<svg xmlns="http://www.w3.org/2000/svg" viewBox="0 0 1000 1000"><path fill="#d0103a" d="M8 195c171-85 341-54 513-28 155 24 312 45 471-34v672c-171 85-341 54-513 28-155-24-312-45-471 34z"/><path fill="#fedf00" d="M8 195c222-110 441-25 669-9v672c-220-15-443-104-669 9z"/><path fill="#0018a8" d="M8 195c104-52 208-61 315-53v672c-104-8-208 0-315 53z"/><path fill="#c7b37f" d="M470 340c12 2 17 12 28 15q10 1 18-3 7-3 13-2 7 0 11 7l2 11-4 12-2 6c0 6 8 9 14 10 2 0 12 2 19-4q-6-1-8-7 1-6 7-7l2 1 2-2 5-2 4 2 2 1h4l4 1 2 2h6q4 1 7 4l1 3 6 3 2 2 2 3 2 1q4 3 5 8l-1 3c-3 9-10 12-17 19q-5 5-5 11l2 4q-1-3 3-5 5 1 6 7l-1 2 9-1q9 2 15 8c10 10 12 22 11 26-1 8 0 22-21 26q6 3 6 8 0 6-7 6l-5-2q-5 5-5 14l2 9 6 8q2-3 6-3 5 0 6 4v2l2 2 1 4 2 3 1 4q-2 7-9 7l-4-1 7 7a30 30 0 0 1 4 16q0 9-4 17-3 7-11 11-11 6-24 7h-17l-22-2q-15-3-26 6 5 4 6 10-1 7-7 8h-3l-2 3h-6q-6 0-10-5l-9 6-3 1-5-3-7-8q-4 3-9 3l-7-3-2-3-3-1q-8-4-8-11 1-7 7-8c-8-9-15-11-26-14l-22-4-17-4-12-5q-25-12-28-37v-4q0-11 10-19l-5-1q-6-2-7-9l1-3 2-2 1-4 1-2q2-3 7-4 3 0 5 4 4-1 5-5 4-5 4-11l-1-8-3-6-6 1q-6-1-7-9 0-5 4-6l-7-5-8-9-3-8-1-12q1-9 7-17 3-4 9-6l9-2 3 1 5 2h1v-2q0-5 5-5 3 1 5 5l1-4q-1-7-6-12c-8-10-16-15-17-26q1-5 5-7h3l1-2 2-2 5-2 2-2q3-3 7-3l4 2 2 1 2-2h3l5 1 1-1 4-1 4 3 3 3 3 1q7 2 7 9l-2 5h-5q8 8 18 8c6 1 14 0 14-6l-3-8q-3-7-3-13-1-6 3-10t10-3"/><path fill="#703d29" d="m426 368 8-7h1l3 4-1 7q-3 3-7 1zm1 0 4 3q2 2 5-1l1-5-2-3zm197 144-3-3q-3 0-3 2l2 5 5 2 4-3v-5l-3-4-4-2q-7 0-12 5l-7 13v18q2 10 9 18l15 10 6 1 5-3q1-3-1-7-1-3-5-4-3-1-5 2l-1 2 2 4h3l2-2v-1l1 1q0 3-3 3-1 1-4-1l-2-4 1-2q3-4 7-3l5 5q3 4 1 7l-6 4-6-1-7-4-9-7a41 41 0 0 1-9-36q3-9 8-14 4-5 12-5l5 2 3 5v6l-4 3-6-2q-3-2-3-6 1-3 3-3 4 0 5 4zm-26 53q4-4 10-5 6 1 13 5 12 7 16 19l1 9q0 9-3 14v1q-7 12-24 18-12 3-40 0l-22-1q-11 1-16 7l-1-1q5-6 17-7l22 1q28 3 40-1 16-4 22-17l1-1a31 31 0 0 0 2-22q-4-10-15-18-7-4-13-4t-9 4zm4 19q-1-3 1-6l4-2 6 2 4 4 2 2 1 4a21 21 0 0 1-10 26q-8 4-22 4l-8-1h-3l-7-1h-1l-2-1h-4l-11-2h-25l-15 4-6 4-6 8v3q-1 5 8 8v1q-5-2-7-5-2-2-2-5v-2q1-5 7-9l2-2 3-2h1q5-3 15-4h5l6-1h2l9 1h3l11 2h4l2 1h1l7 1h10q15 1 22-3 6-3 10-9 3-7 0-15v-1l-3-5v-1l-4-3-5-2-3 2q-2 3-1 4zm-85-198 1 7q-2 5-6 3-5 0-7-5-3-5-1-8 4-4 11-3l12 6v-1l-1-3 4-9 3-5q2-6-1-9-3-2-7-2l-5 2q-11 4-21 3-9-1-20-9l-5-4h-8q-3 2-1 8l4 7 3 9v5l12-3q7 0 10 6 2 5 0 8-3 4-7 4-4-1-6-6-1-3 1-6l1 1q-2 2-1 5 1 4 5 4 4 1 6-2v-7q-2-6-9-6l-12 3h-2v-1l1-2v-3l-3-9-4-7q-2-6 1-9 4-3 9 0l5 4q12 8 20 9 9 2 20-3l6-2q5-1 8 2 4 4 1 10l-3 6-4 8 1 3 1 2v1h-1l-1-1-12-6q-6-1-10 3-2 3 1 7 2 4 6 4 3 2 5-3l-1-5zm-25-8q4 4 4 9l-1 4-4 2v-1l3-2 1-4q0-4-4-7zm3 10q0 3-3 4h-1v-1q3 0 3-4z"/><path fill="#c7b37f" d="m433 360 2 1 1 1v2l1 1v3l-1 1v1l-1 1h-5l-1-1-2-1v-1l-1-2z"/><path fill="#703d29" d="m431 365-2-2-2 1v3q0 3 3 3 3 2 5-1 2-2 1-5l-3-4-6-2q-4 0-6 3-3 7 9 16 9 8 21 9 14 2 30-5l2-1q3 0 5 2 2 3-1 4h-1q3-2 1-4l-4-1-2 1q-17 7-30 5-13-1-22-9-12-10-9-17 2-4 6-4 5 0 8 3l3 4q1 3-1 6-3 3-6 1-3-1-4-4v-4l3-1zm-41 181-3 1-4 2-1 2-2 2v2l-1 3v2h-1v-2l1-3v-2l2-3 2-2 3-2zm18 3v2l-1 2-1 3-2 3-3 1-2 1h-2v-1h2l2-1 2-1 2-2 1-3 1-2v-3zm92 85q-1 5-8 5h-1l-1-1h1q7 0 8-5zm130-62q5 4 7 13l2 9-4 15q-6 12-23 17-12 4-40 1l-22-1q-10 1-16 6l-1-1q6-6 17-6 7-1 22 1 27 3 39-1 18-5 23-17l1-1a31 31 0 0 0 1-22l-7-12zm-27 7 4-2 6 1 4 4-1 1-4-4-5-1-3 2zm23-11 2 1h6l4-2v-7l-2-3v-1l3 4v7q-1 3-5 4l-7-1zM378 423l-3 1-5 3-3 9-1 1v-1l4-10 5-3 2-1zm59-55q0 4-5 4v-1q4 0 4-4zm182 76q9 2 17 8 11 10 12 26 0 15-9 22-4 4-13 5v-1q7-1 13-5 8-6 8-21-1-16-12-25-8-7-16-8zm1 1q11 0 18 9 9 9 9 25 0 12-7 19-5 6-12 7v-1q6-1 11-7 7-7 7-18 0-16-8-25-8-8-18-8zm-7 84v-3l1-3 1-3 2-3 1-1h1l-2 2-1 2-1 3-1 4zm18-17v3l-1 1-1 2-1 1h-5v-1h4l1-1 1-1 1-2zm-31-76 1-2 1-3 2-2 2-3 2-2 3-3 3-2 2-2 2-2 2-3 2-2v-4l1-3-1-2h1v9l-2 2-2 3-2 3-2 2-3 2-3 3-2 2-3 3-1 2-1 2-1 2zm4 155h2l2-1 1-1v-1l1-1v-2h1v2l-1 2-1 1-1 1-2 1zm-237-59 2 1h2l3-1v1l-3 1h-2l-2-1zm15-53-1 2v1l-1 1h-1l-1 1h-3v-1h4l1-1v-1h1v-2zm9-17-1 3v2l-2 1-2 1-1 1-4 1v-1l3-1h2l2-1 1-2 1-1zm14-48-1 2-1 1-1 1-2 2h-2l-1 1-2-1 1-1v1h2l2-1 1-1 1-2 1-1 1-2zm-8-3v1h-1v-1zm2 51-3 1h-1l1-1 3-1zm229 101h4l1-2v-1h1q1 3-2 4zv-1zm-8-47q2 3 6 3l4-3v-5l-1-2-2-3v-1l1 1 3 5v6l-5 3q-4 0-7-3zm16 42v-1l-1-5h-1l-1-1 1-1 1 1v1l2 6zm-2-7q0-3-5-5v-1q5 1 6 7zm-12-2-2-1q-6-8-7-18l2-8 4-6 1 1q-3 1-4 5l-2 9a25 25 0 0 0 8 17zm-90 82 3-2 2-1 4-2 3-1h2l5-1h6v1h-6l-4 1h-3l-3 1-4 1-1 2zm-20 16q-4 6-12 8-7-4-12-12 4 7 12 11 6-2 11-7zm-20-9-4 6v-1l3-6zm0-3v3h-1zm-4 9-2 1-2 1-3 1-1-1 3-1 3-1zm-16-266 1-3-3-9-4-7q-2-7 1-9 3-3 9 0l5 3v1q12 8 20 9v1l-11-4-9-5-5-4h-1q-4-3-7 0t-1 8l3 7q4 6 4 9zm28-16q9 0 21-4l5-2q5 0 8 3l-1 1q-3-3-7-2l-5 2q-12 5-21 3zm122 188a25 25 0 0 1-8-29l4-6 1 1q-3 1-4 5l-1 9q0 12 9 19zm-111 97q-4 6-12 7-7-3-12-11h1q5 6 11 10 8-1 12-7zm-32-265 4-1q3-2 5 1v5l-1-1v-4l-4-1zm-18 5q9 0 20-5l1 1q-12 5-21 5zm71 249 1 2v5l-3 1q-4-1-6-5h1q1 3 5 4l2-1v-4l-1-1zm-71-249q8 0 20-5v1q-12 5-20 5zm170 177q-2 1-4-1l-3-1a41 41 0 0 1-16-23v-14q2-7 6-13 4-4 7-4v1l-6 3q-4 6-6 13l-1 9 3 12q6 9 13 15h1l2 2zM401 418q4 5 4 9 0 5-3 8-4 5-11 6-6 0-10-2v-1q4 3 10 2t10-5q3-4 3-8 0-5-4-9zm1 16q3 2 3 5l-3 6q-5 5-14 4l-9-3q-5-4-6-9v-1q1 5 6 9l9 3q9 2 13-4 3-3 3-5zm0 10q3 3 3 7 0 7-6 11l-3 1v-1l3-1q5-4 5-10zm193 15v5h-1zm0-1v7h-1v-8zm0-17v10h-1zm0-2v14l-1-1v-13zm-3 136-7 8a31 31 0 0 1-19 7l-20-2-11-3h-2l-15-2-8 1q-8 1-9 4h-1q-3-4-10-7a50 50 0 0 0-23-6l-2-1h-11l-20-4-10-5q-6-3-9-7l-1-1 1-1 1 1a45 45 0 0 0 18 12l20 4h1l10 1h2l15 2 9 4 9 7q3-3 10-4l17-1 6 2h2l11 3 20 2 10-2 9-5zm-113 71h3v1zm49 3h6l1-1 3-2v-1l1-3v-1h1v2l-1 2v1l-3 3-2 1h-6zm83-203v-5q-1-3-4-3v-1l5 4zm-206 32q-1 4-6 7v-1q3-2 5-6zm0-63q-1 4-6 6-4 2-8-3 4 3 8 2l5-5zm-22 11 3 1 1-3q-1-3-4-3v-1q4 0 5 4 0 3-2 3h-4zm10 128h3q2-2 0-5l-4-3h-5l-3 3h-1l-1 2-2 3v13q2 6 6 11v1l-7-12v-13l2-4 2-1v-1l4-3h5l4 3q3 4 1 7h-3zm138 82 1 2h1v1l-1 3-2 1q-4 0-6-4v-1l1 1q1 3 4 3l2-1 1-2v-1zm76-249q4 1 7 5 3 3 3 7l-2 8-3 5-1 1-4 4-8 8q-4 6-4 10 0 10 6 13 4 3 8 0l2-6-4-4h-2l-2 2 1 2 2 1v1l-3-1-1-3 2-2 3-1q4 2 5 5 0 4-3 7-4 3-8 0-7-4-7-14 0-5 4-11l8-8 4-4 1-1 4-5 1-7-3-7-6-4zm26 164q-1-5-5-5l-4 1-1 3 1 4v1q-2-2-2-5-1-2 2-4l4-1q5 1 6 6zm-34-104q-4 3-4 8 0 4 3 8 4 6 10 8 6 3 9 1l1 1q-4 2-10-1-7-3-11-8l-3-9q0-5 4-8zm-221-24q-5 2-7 5a23 23 0 0 0-4 18l4 9 1 2 2 1-1 1v-1l-1-1-2-2a28 28 0 0 1-4-19q1-6 4-9t7-4zm94 187 10 6 8 9 2 8q0 8-5 11t-11 2l-4-3-2-3 2 3 4 2q6 1 10-2 5-3 5-10l-2-7q-3-6-7-9zm-73-149q6 6 6 13t-6 10l-1-1q6-3 6-10 0-6-6-11zm-4 18 7 11 3 12q1 11-8 20h-1v-1a27 27 0 0 0 5-30q-1-5-7-11zm120-83 2-3v-6q2 3 2 7l-3 3zm80 141v31h-1v-31zm0-2v26l-1 8-1-1 1-7v-26zm0-31v22h-1v-22zm0 2v18h-1zm0-22v13h-1zm0-2v16h-1v-16zm0-12v5h-1zm0-1v7h-1v-7zm-3 105-7 8a31 31 0 0 1-19 6l-20-1h-1l-10-3-2-1-15-2-8 1-10 4v1l-1-1-9-7a51 51 0 0 0-23-6h-13l-20-4-10-5-13-12v-1l13 12 20 7 10 2h12l16 3a52 52 0 0 1 18 10q2-2 9-4h17l7 1 2 1 10 3h1l19 2 10-2 9-5 7-8zm-184-27q1 8-3 12-4 3-8 3-7-1-9-6l1-1q2 5 8 6 4 0 7-3 5-4 3-11zm-7-3 3 4 1 5-1 5h-1v-1l1-4-1-5zm-29 37q7 8 17 12 12 6 39 11l22 5q11 5 17 12h-1q-6-6-16-11l-22-5q-27-5-39-11-11-6-17-13m122 38 6 9h-1zm-5 25-1 1q-5 3-11 2-4-1-7-6h1q1 3 6 5 6 1 10-2zm-26-9v1l8 5v1a15 15 0 0 1-9-6zm49 13q-4 6-12 7-7-3-12-11v-1l1 1q4 6 11 10 7-1 11-7zm0-1 1 1q4 4 10 5 5 0 6-3l1-1 1 1-1 1q-2 3-7 3a17 17 0 0 1-11-6zm18 3-1 1-2 2h-6v-1h5l2-1 1-2zm6-17 3 5 1 4q1 4-2 6-3 3-9 3v-1q6 0 8-3 3-2 2-5v-4zm-7 17q-5 0-8-4v-1q4 4 8 4zm89-93a46 46 0 0 1-10-17v-15l7-13 3-3 1 1-3 2v1l-7 12-1 9 4 12 7 11zm-2-162 6 4q3 3 2 6l-1 7-6 6-4 4q-12 10-11 16l1 4-1 1-1-5 3-9 8-7 5-4 5-7 1-6q1-3-2-6-2-3-5-3zm-18 52 3 2h6l1 1h-7zm-23-67 4 5q3 8-9 15-6 3-13 3v-1l12-3q12-7 9-14zm-6 13-6-3-1-2h1l1 1q2 3 5 3zm-29-1-3-1q-2-4-1-8l2-3 4-12q1-12-8-16v-1q9 5 9 17l-4 13-2 3q-1 3 1 6zm2-26v3l-1 4-1 4-2 2-1 3-1 2v3h-1v-3l1-2 1-3 2-3 1-4 1-3zm53 218 1 1 3 4 5 2 5-1 1-3v-4l-2-2-3-1h-1v-1h1l3 1q4 2 3 8l-1 2q-3 3-6 2l-6-3-3-3-1-2zm-223-50-5-1q-4-1-6-4-3-4-1-7h1q-2 4 1 6l5 5zm9-58 1 2q1 5-2 6h-6l-5-4-1-4h1l1 3 4 4h5q3-1 2-5zm22-32 2 3-1 1-2-3zm0-10 2 3h-1zm2 8-3 3q-5 5-13 5l-10-4-6-9v-1l1 1q0 5 6 8 3 3 9 4 7 0 13-4zm-4-24 4 6h-1zm4 13q-3 9-14 10l-10-3q-2 0 0 0l4 2h6q10-2 13-9zm-27-5q0 7 7 8 6 1 8-5 2-5-3-11l1-1q4 6 3 13-3 5-9 5-8-1-8-9zm-17 33a31 31 0 0 0 13 10h-1a33 33 0 0 1-13-10zm21 11q4 0 7-3l2-6-3-6-4-2-1-1h1l5 3 2 6q1 4-2 7t-7 3zm10-64 4 2 1 4h-1l-1-3-3-2zm0-37q3 6 7 9l1 1h-1q-5-4-8-10zm229 88q3 3 1 7-3 5-7 3-6 0-8-5h1q3 4 7 4 4 2 6-3zq-1 0 0 0m-26-49v23h-1zm-212 18 3 1v-3q0-2-2-3l-4 1q-3 2-2 6 2 4 6 5 6 1 8-5 2-5-3-11-4-5-11-6-7 0-13 4-8 6-11 16v7a35 35 0 0 0 10 24q7 7 16 7 4 0 7-2 3-3 3-7-1-5-4-6-3-3-6-1l-2 4q0 3 3 4 1 1 3-1v-3 4q-2 2-3 1-4-1-4-5l2-5q4-2 7 1 4 3 5 7 0 4-3 8-3 3-8 2a28 28 0 0 1-20-11l-2-3a37 37 0 0 1-5-18l1-7q2-11 11-17 6-4 13-4 7 2 12 6 5 7 3 13-2 5-9 5-6-1-7-6-1-6 2-7l5-1 3 3q2 3-1 4h-4zm200-48q6-2 10 3t3 12l-6 8h-1v-1q5-3 6-8 1-6-3-10-3-5-9-3zm10 3h7q5 1 6 4 3 4 3 10-1 10-9 13h-1v-1q8-3 9-12l-3-9q-2-4-5-4h-7zm22 14q4 0 6 3l2 6-2 7-9 10q-11 10-11 16l1 4 3 2v1l-3-2-2-5q0-4 4-9l7-7 5-4 5-7 1-6a8 8 0 0 0-7-8zm1 65h-4v-4q0-2 2-3l6 2q3 3 2 7-2 5-8 5-5-1-8-7-3-7 3-12 5-4 12-3 8 2 14 6l6 7 5 12q3 24-10 31-7 5-17 3-5-1-9-5-2-3-2-8 1-4 4-5h7q4 3 3 6 0 4-4 4l-4-2v-4h1v3l3 2q3 0 3-3 1-3-2-5l-6-1q-3 2-4 5 0 5 2 8 3 3 8 4 9 1 16-2 13-9 10-31l-5-11-6-7q-6-5-13-6-7-2-12 3-5 4-2 10 1 6 7 7 6 0 7-4t-2-7l-4-1-3 2 1 3zq0-1 0 0m-4-4q1-6 10-5 8 1 12 9 6 7 5 17 0 10-4 16t-13 5l-5-1q-3-3-3-5l1 1 2 3 5 1q8 1 12-4t4-17q0-9-4-16-6-7-12-8-8-1-9 4zm6-2q8 3 12 9 3 6 3 14l-2 11q-4 7-13 8h-1v-1q10-1 13-7l2-11q0-8-3-13-4-7-11-9zm17 103 1-1-2-4-4-2-4 1-2 3 3 5-1 1-2-6 1-4 5-1 5 2 1 5v1zm-20-12 9 10v1zm7 26q-13-9-23-6-5 2-6 6l-1 8 3 6 8 5 5-1 2-3q0-4-3-6h-2l-2 1v4h-1v-4l2-2h3q4 3 4 8l-2 2-6 2q-5-1-8-5l-4-7 1-9q1-3 7-5 10-4 23 6m-90 66v4q-1 2-3 2l-4-2-2-4 2-5 5-2q6 1 9 7v4q0 4-2 6-3 3-9 3-5-1-8-5l-4-9q1-8 10-13l15-3h28l6 1h10v1l13-1q12-1 19-7 8-5 9-11l2-9-4-12q-4-8-15-11-9-3-13 5l-1 4 1 5q3 4 7 5l5-1 2-3q0-4-3-6h-2l-2 1v4h-1v-4l2-2h3q4 3 4 8l-2 2-6 2q-5-1-8-6l-1-5 1-5q4-8 14-5t16 12l4 12-2 10q-1 6-9 11-8 6-19 7h-24l-6-1-27-1-15 4q-9 5-10 12 0 4 4 8 3 4 7 5 5 0 8-3 2-2 2-5v-4q-2-4-8-6l-4 2-2 4 2 3 3 2 2-1zm-5-18-10 3-8 7-1 7q0 6 5 11 5 4 9 5l4-1 2-2h1v1l-2 2-4 1q-7-1-11-5-5-6-5-13 0-4 2-7l7-7 10-3zm73-128-4 4-1 6q0 8 6 12l-1 1a15 15 0 0 1-5-20zm4 19-7 9-2 11q0 11 7 21v1-1q-9-11-8-21l2-11zm-34-132q2-3 5-3t6 2q6 5 4 14-1 6-6 8l-1-1q5-3 6-7 2-9-4-13-2-2-5-2zv1zm-155-24q-5-3-9 0-3 4-2 10 1 5 5 9v1q-4-4-6-10-1-6 3-11 3-3 10 0v1zm-10 1-6-3-6 3-2 9q0 9 8 14v1q-9-6-9-15l2-9 6-4q4 0 8 3zm-13 2-6 2q-3 3-3 7l1 7 9 12 8 11q4 6 4 12 0 9-7 12-4 2-9-3-2-3-2-7 1-4 4-4l4 1 1 3-1 3-3 1 1-1 2-1v-2l-1-2-2-1q-3 0-4 3 0 4 2 6 4 4 8 3 6-2 6-11 0-6-4-12l-12-15-5-7-1-9 3-6q3-3 7-3zm-9 6-5 1-2 5 2 7 4 7h1l4 5 8 9 3 10-1 5q-1 3-4 2v-1q1 1 3-2l1-4q1-6-11-18l-4-5v-1l-5-7-2-7 3-6 5-1zm-9 113q1-3 4-2l3 3q1 5-2 6h-6a8 8 0 0 1-5-10l2-2 2-2h5q6 1 12 8 5 6 7 15 3 9 1 18-3 10-10 16l-15 7h-6l-6-5v-7l6-4q4 0 6 4l1 3q0 3-2 3l-4 1-2-4 1-1v1q0 2 2 3h3l1-3v-2q-2-4-6-4l-5 3v7l5 4h6l6-2q6-2 9-5 6-6 9-15a41 41 0 0 0-8-33q-5-6-11-7h-5l-3 4a7 7 0 0 0 4 8h5q3-1 2-5 0-2-2-2-3-1-3 2zm-6 51h4l2-1h1a29 29 0 0 0 15-19l1-4-1-10q-1-7-7-14-2-4-6-4v-1q4 0 7 5a42 42 0 0 1 8 24l-4 11q-5 9-13 13h-1l-2 1zm-6-8v-1l2-4 5-2 4 3q3 2 2 4l-2 5-1-1 2-4-1-4-4-2-4 1-2 4v1zm3-6q0-4 6-4a7 7 0 0 1 6 7l-2 4-1-1 2-3a6 6 0 0 0-5-6q-5 0-5 4zm11 1q9-5 9-17l-1-9-4-6v-1l4 7 2 9q0 12-10 18zm9-1q-4 5-10 8h-1v-1q6-2 10-8zm14 23q-2-4-8-6-6-1-13 1-11 5-15 15l-1 9 3 15q6 13 23 22 12 6 39 11l23 6q12 5 17 12h-1q-6-8-16-11l-23-6q-27-5-39-11a49 49 0 0 1-24-24q-3-5-3-14l1-9a27 27 0 0 1 29-17q7 1 9 7zm-23 0q14-7 24 0l7 7v9l-3 6q-4 3-8 3-5-1-6-3l-2-3q0-6 3-7l3 1q3 0 3 2v4h-1v-4l-2-1-2-1q-4 1-3 6l1 2 6 3q3 0 7-3 3-2 3-5v-9l-6-7q-11-6-23 1zm20 17-1-4-4-3h-5l-3 3h-1l-1 2-2 3v1q-2 6 1 15 3 7 9 12 8 5 22 8l9 2h1l8 2h7l11 2 3 1 9 2 2 1 6 2h1l2 1 2 1 15 8 1 1 4 4 1 1q6 6 7 11v3l-2 4-7 2v-1q8 0 8-6v-2a26 26 0 0 0-8-12l-1-1-3-2-1-1q-5-5-15-8l-1-1-2-1h-1l-7-2-1-1-9-2-3-1-11-2h-7l-8-2h-1l-9-2q-15-3-22-9-7-5-10-12-3-9-1-16h1l1-3 2-2v-1l4-2h6l4 2q2 3 1 6zm72 75-1 3 3 2 3-1 1-3q1-2-1-5l-5-2q-4-2-7 4l-1 3 2 6q3 4 8 5 5 0 8-2 3-3 3-8 0-7-9-14-7-5-15-8-10-5-27-8l-6-1-10-2h-1l-13-4q-12-4-19-12-7-6-10-13l-1-10q0-7 3-11 6-9 17-9 9 0 14 9l1 6-1 4q-3 4-8 4-5-1-6-3l-2-3q0-6 3-7l3 1q3 0 3 2v4l-1-1v-3l-2-1-2-1q-4 1-3 6l1 2 6 3q4 0 7-4l1-4-1-4q-4-9-13-9-10 0-16 8-3 5-3 11l1 9q3 7 9 14 9 8 19 11l14 4 10 2 6 1q16 3 27 8 9 3 15 8 10 8 10 15 0 6-3 8-4 4-9 3-6-2-8-5l-3-7 1-4q3-5 8-4 3 0 5 3 2 2 2 5l-1 4h-4q-3 0-3-2v-4zm-40-271-4-4h-6q-5 3-3 13 0 5 6 8v1h-1q-6-4-6-9-2-10 4-14h6zm144 34q-7 7-22 5-7 0-12-5-4-3-3-9l2-3q4-7 4-12 1-12-8-16l-10-1-9 3q-4 3-7 2a27 27 0 0 1-16-2l-6-4-10-6-10-2q-8 1-7 13l4 14 1 3q2 6-3 9-4 2-12 1-13-3-22-12l1-1q8 9 21 12 7 1 12-1 4-3 2-8l-1-3-4-14q-1-12 8-14l11 2 9 6 7 4 7 2 8 1 6-3 10-3q6 0 11 2 9 4 8 16l-4 13-2 3q-2 4 3 8l11 5q13 1 22-6zM465 606l17 11 8 9a16 16 0 0 1 1 12v-1l-2-10q-3-6-7-9zm1 32 5 2q4 1 8-2 3-3 3-7 0-5-6-11l1-1q6 6 6 12 0 5-4 8-3 3-8 2l-6-2zm2-10-1 3 3 2 3-1 2-2q0-4-3-7 4 3 4 7l-2 3-4 1q-3 0-3-2v-5zm140-241q4 1 7 5l3 8q-1 6-6 12l-1 1-6 5v1l-1-1 1-1 6-5q5-6 6-12l-3-8-6-4zm-6-5 5 4 2 10q0 7-9 12h-1v-1q9-4 9-11l-2-10zm-9-2a13 13 0 0 1 3 13q-1 6-6 8h-1v-1h1l5-7a12 12 0 0 0-3-12v-1zm-11-3q7 6 4 15-1 4-6 7h-1v-1q6-1 6-7 3-7-3-13zm15 85 2 3 9 7h10v1h-10q-6-3-9-7l-1-1zm-230 55q4 1 6 5l1 2-2 4h-4q-3-1-3-4l1-1v1l2 3h3q2-1 2-3l-1-2-5-4zm12-48q6 2 11 9 6 6 7 14 3 10 0 18-2 10-9 16l-3 3h-2l1-1 4-3q6-6 8-15 3-9 0-18-1-8-6-14l-11-8zm-8 40 4 2q3 3 2 5 0 3-2 4l1-4-1-4zm-2 3 4 3q3 3 3 5l-3 5v-1l2-4-2-5-4-2zm30-28 6 13h-1zm6 26-3 6-5 6h-1v-1l6-6 2-6zm-6-49 6 9h-1l-5-8zm6-6q-1 4-5 7h-1v-1q4-3 5-6zm-20-22h3l2-1 1-2 1-2 1-2v-1l1 1-1 2-1 3-1 2-2 1h-4zm-6-11-4 1-5 4a23 23 0 0 0-4 18l5 11 7 3v1q-4 0-7-4l-2-2a28 28 0 0 1-4-19q1-6 4-9 1-3 6-4zm19-12q-2 4-6 4v-1q4 0 5-3zm-13 12q-1-3-6-3a15 15 0 0 0-13 5l-4 7-1 9 1 1v3l3 10q5 7 12 9l4-1q3 0 3-2h1q0 3-3 3l-5 1q-7-3-12-10l-4-13-1-1 3-13 2-4 5-3q4-2 9-2 4 0 7 3zm182-36q0-2 2-3 3 0 3 2 2 2 1 4-1 3-4 3-4 1-6-3-3-3-1-7l3-3h7q4 1 7 5 3 9-10 15-9 5-22 3-12-2-30-14l-2-2h-3v4h-1v-5q2-2 5 1l2 1q17 11 29 14 13 2 22-3 11-6 9-13-2-4-6-5h-7l-2 3v6q3 3 6 2l3-2v-4l-3-1zm3-3 3 2v5l-4 3v-1q3-1 3-3v-3l-2-2zm27 91q-3 3-1 9 1 6 5 8l1 1h2v1h-2l-2-1q-3-3-5-9-2-7 1-10h1zm0-11-2 4 2 6q6 6 14 7 5 1 9-1 5-3 6-7h1q-2 5-6 8l-10 1q-9-1-15-8l-2-6q0-4 3-5zm-2 98-4 13-6 8a31 31 0 0 1-20 7l-20-2-11-3h-2l-15-2-8 1q-7 1-9 4h-1q-3-4-10-7a51 51 0 0 0-23-6l-2-1h-11l-20-4-10-5-9-7q-4-4-6-10l-4-14V379q94 15 190 28zm-1 0V408l-189-27v152l3 14a42 42 0 0 0 26 21l19 4h1l10 1h2l16 2 17 11q3-3 10-4h17l7 1h2l10 3 20 2 10-2 9-5q4-3 6-7z"/><path fill="#c7b37f" d="M389 553q0-4 4-4 4 1 4 4-1 4-4 4-3-1-4-4m0 0 1-3 3-1a5 5 0 0 1 4 5l-1 2-3 1-3-2zm0 0 2 2 2 2q4 0 4-4 0-3-4-3h-2zm-23-30q0-3 2-3 3 1 3 4t-3 3zm-1 0 1-2 2-1q3 0 3 4 0 3-3 3t-3-4m1 0q0 4 2 4 3 0 3-3t-3-3h-1zm13-65q0-2 3-2 2 0 2 3l-2 2q-3 0-3-3m47-92q0-3 2-3 3 0 3 3t-2 3q-3 0-3-3m-50 108-1 1-1 1v1l-1 1v-3l1-1 2-1zm4 44 1-1 1-2h1v-1l1-1q1 0 0 0v1l-1 1v1l-1 2h-1v1h-2m4 14-5 2-1 1h-1v-1h1l6-3zq1 0 0 0m15-50v-1h-1l-2-2v-1l1 1 2 2 1 1zm1-20-1 1h-2v-1l3-1zm-25-28 2 4 1 2 4 3h1v1h-2l-5-6-2-3v-3zm6 1 3 1 5 1 1 1h-1l-5-1-4-1v-1q-1 0 0 0zm20-56h-1l-5-5-3-3v-2l1 1 3 4 4 4zm3-15 1 1v2l2 3 3 3 1 1 1 1h-1l-2-2-2-2-3-4v-1zm10 2 1 2 3 4 3 2v1h-1l-3-2-3-5zv-2z"/><path fill="#703d29" d="M520 371q-1-4-3-4-4 0-7 3-6 2-11 1l-10-4-7-5q-3 0-3 3v2l1-3 2-1 8 5 10 5 10-2 8-2zm1 0v-1l-2-2-4 1-4 2-10 1-13-7-5-2h-2l-1 3v-1l-1-1 2-3h2l4 2 3 2 10 5a22 22 0 0 0 14-3l4-1zm-1 0q0-3-3-4l-4 1-3 2q-5 2-11 1l-13-7-4-2-2 1-1 2v1l1-2 2-1 5 3 3 2 10 5a22 22 0 0 0 13-3l5-1q2-1 2 2M415 568h1zh-2l-1-1h-1l1 2-1 2-4 3v1l-1-1 1-6v-2l1-1-2-1-2-1v2l1 11v1zm4 3 2-1-1-1-2-1h-2l1 2-2 8-2 1 2 1 2 1h1q-1 1-1-2zm6 2h1q3 0 2 4h-4zm-4 7-2 1v1l3 1 1 1-1-3 1-3h1l1 1 1 4q-1 2 2 3l2-1h-2l-1-6h1l2-2q2-2-3-5l-3-1-2-1 1 3zm13 5q-1 2-3 2h1l2 1 2 1h1l-1-3 2-8h2q2 2 1 3l1-1v-2l-5-2-5-2v1l-1 2 3-1h1l1 2zm19-2h1zh-1l-2-1h-1l2 2-1 2-3 5h-1l-1-7v-2l1-1-2-1h-3 1l1 1 2 12v1l1-1zm1 11 3 1q4 2 4-3 1-3-2-4-3-2-3-4l3-1q3 3 2 4h1v-3h-1l-2-2q-3 0-4 3 0 3 2 4 3 2 3 4t-3 1-2-4h-1q0-1 0 0zm24-3 2-1-1-1h-4q2 0 2 2l-1 2-2 5h-1v-1l-1-6-1-2 1-1-2-1h-3 1l1 1 3 12v1l1-1zm3 9-2 2h2l2 1 1-1q-1 1-2-3v-6l8 11h1v-11l1-1v-1h-4l2 2v7l-1-1-6-9h-3l-1-1v1q1-1 2 3zm16-6 1-1v-1h-5q1-1 2 2v9l-1 1 2 1h3q-2 0-2-2zm7 10q-1 2-2 1l1 1h5l-2-2v-8l1-1h1l2 2v-3l-5-1h-6v3l3-2h1l1 1zm9-2 1-3 2 3v1zm3 1 1 2 1 1-1 1h2l2 1 1-1-2-1-5-11v-1l-1 1-3 10-2 2h5l-2-2v-1l1-1zm13-6 2-1 3 2v-2l-1-1h-8l2 2 1 9-1 2h5l-2-2v-4h2l2 2v-1l-1-3v-1q1 1-2 2h-1l-1-1zm6 5q1 6 7 6 6-1 5-7-2-6-7-6-5 1-5 7m2-1q-1-5 3-5 3 0 5 6 1 5-3 6-4-2-5-7m13-4 1-1 3 3q0 2-2 2h-1zm0 9-1 2h4l1-1q-1 1-2-1l-1-3 1-1 1 1 2 2 3 2 2-1h-2l-3-5v-1l1-2q0-2-5-3h-5v1l2 2zm13-1-1 2h5l1-1-3-2-2-8v-1h2q3 0 2 2v-3h-6l-5 1 1 2v1l1-3h2l1 1zm8-10 1-2h-4l-1 1 3 1 2 9-1 2h2l3-1-2-2zm4 4q2 6 7 5 7-2 4-8-3-5-7-5-6 2-4 8m2-1q-2-4 1-6 4 0 6 5 2 6-2 6t-5-5m11-7 4 2q1 2-2 3h-1zm2 9-1 2 1 1 2-1h1l1-1q-2 1-2-1l-2-3 1-1 2 1 2 2 3 2 1-2h-1l-4-4v-4q1-2-5-2l-3 1h-2v1q1-1 3 1z"/><path fill="#d52b1e" d="m414 391 81 11v79l-81-12z"/><path fill="#fff" d="m452 458-1 5-2 4-3 3h-6q-8-3-9-12-3-8-8-7v5l4 3-3 3s-6-1-7-8q-2-5 5-7 7 0 10 6c2 5 3 12 9 12q5-1 5-7l2-2zm5 1 1 5 2 4 3 4 6 3q8-1 9-10 3-7 8-4v4q-3 3-4 2l3 4s6 0 7-6q2-4-5-9-7-2-10 4c-2 4-3 11-9 9q-5-3-5-8l-2-3z"/><path fill="#fedf00" d="m462 426 10-10 2-3h-2l-1-1v-1h3v-3h-3l1-1v-1h4q4-6 14 1 6 9-2 13l-7-2 2-4q5 2 5-1 0-5-4-5-4-1-5 2l-1 3v4l-2 3-11 10-43 38-3-3z"/><path fill="#fff" d="M431 425q-1 1 11 34l12-1q7 1 13 5c9-18 11-31 11-31l-24-33z"/><path fill="#fedf00" d="m457 409 16 24q1 1-9 24l-7-3zm-5 0-16 18q-1 1 9 27l7-1zm52-5 80 12v79l-80-12z"/><path fill="#d52b1e" d="m515 406 12 1v79l-12-2zm23 3 12 2v79l-12-2zm23 4 12 1v79l-12-2z"/><path fill="#fedf00" d="m414 538 2 6 5 7 13 8 16 4 10 1 17 1 18 7v-82l-81-12z"/><path fill="#d52b1e" d="m424 553 4 3 5 3v-79l-9-1zm0 0v-74l9 1v79l-6-3zm0 0 4 3 4 2v-77l-8-2zm45 10v-77l-9-2v79zm0 1h-10v-80l10 1zm-1-1v-77l-8-1v78zm19-75-9-1v78l9 3zm0 1v79l-9-3h-1v-78zv-1zm-1 0-8-2v78l8 3zm-35-6v80l-9-1v-80zm0 80-9-1h-1v-81l10 2zm-1-80-8-1v79l8 2z"/><path fill="#fedf00" d="m584 563-2 6-4 5a22 22 0 0 1-13 5q-10 1-16-1l-10-2-17-4-19 1 1-82 80 12z"/><path fill="#d52b1e" d="m524 501-1 1h-1l-1 1-1 1-1 1-1 1h-1l-1 1h1v2h1l1 1 2 1 2 1h3v1l2 1-1 1 2 3 1 2-2 2v2l1 3 1 4h2l1-1v-1l-1-1h1l-1-1-1-2v-1l2-2 1 1h1l2 1v-1 5h1v4l-1 1-1 1v1h1l1 1h1v-1h2v-1l-1-2v-4l1-2v-2l10 1 3 2v1l1 1v-2h2v2h1l1-1 1-1-1 2-1 1-1 2-1 1-1 1h-2v1l2 1h1v-1h2l1-1 3-4 1-1h1v-2l1 1v8l-2 1v2h1l1 1 1-1v-1h1v-1l1-4v-2l1-1-2-4v-7l3-2v-3l-1-1-3-2-4-1-4-1h-10l-6-2-6 1-3-1-3-1 2-1 1-1-1-1h-1l-2 1-2-2zm2 12"/><path fill="#fedf00" d="M568 520h-3l-3-1-3-1-2 1h-4v-1h-4l1-1-1-1-1-1h4l2-1 8 2h5l1-1-1-1v-1h-1 2l1 3-1 1h-6l-7-2h-3l-1 1h-1 1l1 1h-1 4l-1 1h2l2-1 4 1 3 1h4z"/><path fill="#fcd900" d="m524 504-1 1 1 1 1-1z"/><path fill="#fedf00" d="m524 504-1 2h-2v-1l1-1zm12 15 1 2v4h-1v-4zv-1zm8 0h-1l-1 4h-1l1-3 1-1v-2zm-13-1 1 2 1 2 1 1h-1l-2-3zm28 10 3-1 1 1zm-8-3 5-1 3-1v1q1 0 0 0l-3 1zm4-4 2 1 1 1 2 2 2 2h1v1h-1v-1l-3-2-2-2h-1z"/><path fill="#fcd900" d="M517 507h3v1h-2z"/><path fill="#fedf00" d="M517 507h3v1l-1 1v-1zm1 0v1h1z"/><path fill="#0065bd" d="m525 517-2-1h1v-1l1-1h2v2l-1 1 1 1zm-3-15-1-1v-4l-1-1h1l1 1v1l1 2 1 1zm4 11 2 1 3-3 2-4-2-1h-1l-1 4zm4 18 1-1 2-1v3l-1 1zm33 7h1l2 1v1h-3l-1-1h-1zm-10-4 2 1 1 1v1l-2-1h-2zm-17 0h2l1 2h-4v-1zm-9-30v-6l1-1v1l1 1v2l1 1-1 1-1 1z"/><path fill="#d52b1e" d="m524 536-1 1h-1l-1 1v1h-1l-1 1-1 1h-1l-1 1h1v2l1 1h1l2 1 2 1h1l1 1h1l2 1v1h-1l2 4 1 1-2 2v3l1 2 1 4 1 1 1-1 1-1v-1l-1-1h1l-1-1-1-2v-1l2-1h2l2 1v4h1v4l-1 1-1 1v1h1l1 1h1v-1h2v-1l-1-2v-4l1-2v-2l10 1 3 2v1l1 1v-2l1 1h1v1h1l1-1 1-1-1 1v1l-1 1-1 2-1 1-1 1h-2v1l2 1h1l1-1h1l1-1 3-3 1-2h1v-2l1 2v7l-2 1v2h1l1 1h1v-2h1v-1l1-4v-2l1-1-2-4v-7l3-2v-2l-1-1v-1l-3-2-4-1-4-1h-10l-6-1h-6l-3-1-3-1h2v-1l1-1-1-1h-2l-1 1-2-2zm2 12"/><path fill="#fedf00" d="M568 555h-3l-3-1-3-1-2 1h-4v-1h-4l1-1-1-1-1-1h4l2-1 8 2 5 1 1-2-1-1-1-1h2l1 3-1 2-6-1-7-2-3 1h-2 1l1 1h-1 1l2 1 1-1-1 1h2l2-1 4 1 3 1h4z"/><path fill="#fcd900" d="m524 539-1 1h2z"/><path fill="#fedf00" d="m524 539-1 1h-2v-1l1-1zm0 1v1zm12 14 1 2v4h-1v-4zm8 0h-1v2l-1 2q0 1 0 0h-1l1-3 1-1v-1q0-1 0 0zm-13-1 1 2 1 2 1 1h-1l-2-3zm28 10 3-1 1 1zm-8-3 5-1 3-1v1q1 0 0 0l-3 1zm4-4 2 1 1 1 2 2 2 2h1v1h-1v-1l-3-2-2-1-1-1-1-1h-1z"/><path fill="#fcd900" d="M517 542h3v1l-1 1v-1h-1z"/><path fill="#fedf00" d="M517 542h3v1l-1 1v-1zm1 1h1z"/><path fill="#0065bd" d="m525 553-2-2h1v-1l1-1h1l1 1v1l-1 1 1 1zm-1 0-1 1zm-2-16-1-1v-4l-1-1 1 1h1v1l1 2 1 1zm4 11 2 1 3-3 2-4-2-1h-1l-1 4zm4 18 1-1 2-1v3l-1 1zm33 7h1l2 2h-4l-1-1zm-10-4 2 1 1 1v1l-2-1h-2zm-17 0 2 1 1 1h-4v-1zm-9-30v-6l1-1v1l1 1v2l1 1-1 1-1 1z"/><path fill="#703d29" d="m414 390 81 12v80l-81-12zm0 1v78l81 12v-78zm89 12 82 12v80l-82-12zm1 1v78l80 12v-78zm-90 134v-61l81 12v84-1l-18-7-17-1h-1l-9-1a66 66 0 0 1-23-7l-7-5-4-7zm3 6 1 2 3 4a31 31 0 0 0 13 9 65 65 0 0 0 25 4h1l17 2 18 6v-81l-81-12v56l1 4zm168 19-3 6-1 1-3 4q-2 3-6 4l-7 1a59 59 0 0 1-25-3h-2l-16-4-18 2h-1v-83l82 12zm-1 0v-60l-80-12v82l18-1 6 1 11 2 1 1 9 2 16 1 6-2 6-3 5-5z"/></svg>