<svg xmlns="http://www.w3.org/2000/svg" viewBox="0 0 1000 1000"><path fill="#d0103a" d="M8 195.3c170.8-85.3 341-54.5 513.3-28C676.5 191 833.4 211.8 992 132.7v672c-170.8 85.3-341 54.5-513.3 28C323.5 809 166.6 788.1 8 867.2z"/><path fill="#fedf00" d="M8 195.3c221.7-110.6 440.9-25 669.1-8.9v672c-219.7-15.5-443-104-669.1 8.8z"/><path fill="#0018a8" d="M8 195.3c104-52 207.8-61.2 314.9-53.7v672c-103.8-7.2-208 .3-314.9 53.6z"/><path fill="#c7b37f" d="M469.9 340.3c11.8 2.1 16.7 12.2 28.5 14.3 7.4 1 11.5-.5 18-3 4.5-1.8 7.2-2.6 12.4-2a14 14 0 0 1 11.1 7.7c1.5 3 2.6 7.5 2.1 10.4a50 50 0 0 1-4.2 11.8c-1 2.2-1.9 3.4-2 6 .5 6.3 8.3 9.4 14.4 10.5 1.6.3 11.6 1.8 18.5-3.6-3.8-1-7.2-3.7-7.5-7.4q.4-5.8 6.7-6.8c.7 0 2 .6 2.6.5.9-.5.5-1.4 1.3-2 2-1.2 3.1-1.9 5.6-1.6 1.7.2 2.5.6 3.9 1.6q.7 1 1.7 1.3c1.8.2 2.6-.6 4.4-.5 1.4.3 2.3.5 3.6 1.3 1 .8 1 2.3 2.1 2.6.6 0 3.8-.7 5.4-.6 3.5.6 5 1.8 7.4 4.7.6.8 1 2 1.6 2.2a12 12 0 0 1 5.7 3.2c.8.8 1 1.2 1.7 2.1.4.8 1 2.2 1.7 2.7.8.3 1.5.4 2.6 1.2 2.5 2 4.2 4.8 4.3 7.8q-.2 1.7-.7 3c-3.1 9.6-9.7 12-16.8 19.6-3 3.3-5 5.7-5.3 10.4a15 15 0 0 0 2 4.4c-.2-2.4.6-4.5 3-4.6q5.2.9 6.2 6.1c0 .8-.2 2-.5 2.7a15 15 0 0 1 9-1.2 31 31 0 0 1 14.4 7.4 35 35 0 0 1 11.3 26.3c-1.3 8-.6 22-21.3 25.7q6 3.3 6.5 8.6c-.3 4-2.7 6.4-6.8 6.2a8 8 0 0 1-5.3-2.6c-4.3 3.9-5.1 7.7-5.2 13.8.1 3.6.7 5.7 2.3 9.2a24 24 0 0 0 5.7 8.5c1.6-2.2 3-3.4 6-3.2 2.8.4 4.8 1.3 6 3.9.4.8.2 1.3.5 2 .5 1 1.2 1.3 1.8 2.3.7 1.5.1 2.6.7 4.1.5 1 1.3 1.3 1.8 2.3.6 1.5.8 2.5.8 4.1-.3 4.7-4 7.1-8.8 6.8-1.4-.2-2.2-.7-3.5-.8 2.7 2.9 4.5 4.3 6.6 7.5a30 30 0 0 1 4.5 16 30 30 0 0 1-4.2 16.4c-3 5.5-5.5 8.3-10.8 11.5a49 49 0 0 1-24.7 6.5c-6.5.4-10.2.4-16.8 0l-21.7-2c-11.2-.9-18.6-.4-26.6 6 3.8 3.3 6.1 6 6.3 10.6q-.4 6.9-7.4 8.2c-1 .1-1.8-.2-2.8 0-1 .6-1.1 1.7-2.2 2.3-2 1-3.4 1-5.8.6-4.3-.7-6.8-2-9.9-5.3-3.4 2.3-4.6 4.4-8.3 6-1.3.6-2 1.3-3.4 1.2-2.3-.5-3.3-1.9-5.1-3.6a48 48 0 0 1-6.9-7.1c-3.5 1.5-5.5 2.7-9.5 2.2-2.6-.5-4-1-6.2-2.6-1-.9-1.3-1.8-2.3-2.7-1.2-.8-2.1-.8-3.4-1.4-4.7-2.9-7.4-6.3-7.6-11.4.2-4.5 2.6-6.5 6.8-7.9-7.9-8.6-15.2-11-26.2-13.4-8.4-1.7-13.1-2.4-21.5-4-6.7-1.5-10.4-2.6-17-4.5-5-1.4-7.9-2.1-12.5-4.7-15.8-9.2-25.6-19.8-27.8-37-.2-1.4-.2-2.2-.2-3.7.2-8.8 3.5-13.6 10-19.2-1.7-.5-2.8-.2-4.4-.9-4.1-2-6.6-4.6-6.8-8.9q-.2-2 .8-3.8c.6-.8 1.5-1 1.8-2 .3-1.3 0-2.3.6-3.6.5-.7 1.2-1 1.7-1.7 1.5-2.8 3-4.5 6.2-4.3 2.8.4 4.3 1.8 5.9 4.3 2.6-1 3.3-2.7 4.8-5 2.5-3.9 3.5-6.4 3.6-11.2a23 23 0 0 0-1.4-8.5c-.7-2.4-1-3.8-2.7-5.8-1.7 1.4-3 1.7-5.3 1.5a9 9 0 0 1-7.8-8.9c.2-3.4 1.5-5.2 4.6-6.4-2.5-2.2-4.4-2.7-7.1-4.6-4-3-5.4-5.6-8-9.8a21 21 0 0 1-3.1-7.5 31 31 0 0 1-1.6-11.8 28 28 0 0 1 7.1-17c3-3.3 4.7-5 9-6.5 3.5-1.1 5.5-1.8 9.5-1.5l3 .5c1.7.4 2.8.7 4.4 1.8.7.4 1.5 1.4 1.7.8l-.5-2c.3-3.4 2.2-5.5 5.5-5.4 2.4.5 3.2 2.3 4.4 4.5a5 5 0 0 0 1.1-3.2c-.2-5.2-2.7-8-6-12.6-7.4-9.7-16-14.7-16.2-26 .2-3.4 1.5-5.2 4.6-6.7.9-.3 2 .1 2.8-.2s.7-1.2 1-2c.8-1 1.4-1.3 2.4-2 1.7-1.2 3-.8 4.9-1.7.9-.5 1.1-1.2 1.8-2 2.2-2.1 3.7-3 7-2.6 1.6.2 2.5.3 4 1 .5.4 1.4 1 1.6 1q.5-.6 2.2-1.4a6 6 0 0 1 3.3-.4c1.7.3 2.9 1.2 4.6 1.5.6 0 .7-.4 1.2-.7 1.6-.8 2.4-1.2 4.3-1 1.8.3 2.7 1 4.2 2 1.4 1.2 1.7 2.3 3 3.3 1 .6 1.5.5 2.4 1 4.1 2 6.7 4.6 7 8.9 0 2.3-.5 3.5-2.2 4.9-1.4.8-2.6.6-4.3.8a30 30 0 0 0 17.4 8c6.8.8 14-.4 14.3-6.8-.1-3-1.5-4.7-2.8-7.6a33 33 0 0 1-3.3-13.4c0-4.2.5-6.4 3-9.5 2.7-3 5.4-3.4 10-2.8"/><path fill="#703d29" d="M426.3 367.6v-.2l.1-.3 7.8-6.7h.7a10 10 0 0 1 2.8 4c.8 3 .5 4.7-.9 6.4-2 2-3.7 2.4-6.4 1.4a7 7 0 0 1-4.1-4.6m1 .1a6 6 0 0 0 3.4 3.6q3.1 1.3 5.3-1.2 1.7-2 .8-5.5-.5-1.5-2.2-3zm196.8 144.2c-.8-2-1.8-2.6-3.4-2.6q-2.3 0-2.5 1.7c-.2 2.5.4 4 2.1 5.4a7 7 0 0 0 5 1.2 5 5 0 0 0 3.6-2.3q1.3-2.2.5-5.1a9 9 0 0 0-1.2-2.5l-1.8-1.9q-1.4-.9-4.9-1.4-5.8-.6-11.2 4.8a29 29 0 0 0-6.9 12.8 40 40 0 0 0 8.5 35.5 51 51 0 0 0 15 10.4q2.9 1 5.8.8 3.6-.5 5-3c.9-2 .7-3.8-.4-6.2a8 8 0 0 0-5-4.1q-3.4-1-5.3 2a4 4 0 0 0-.5 2q0 2.2 1.3 3.2 1.5 1.1 3.2.8 1.6-.5 1.6-2.7v-.4h.4q.5 0 .6.5.1 2.8-2.3 3.6-2 .4-4-1-1.8-1.4-1.9-4.2 0-1.4.7-2.5c1.7-2.3 3.5-3 6.5-2.3q3.7 1.2 5.6 4.7c1.3 2.8 1.4 4.8.4 7-1.2 2.1-2.8 3.2-5.6 3.6q-3.4.2-6.3-.9-3.5-1.4-6.5-3.3-6-4.2-9-7.4a41 41 0 0 1-8.8-36.5 30 30 0 0 1 7.2-13.2c3.9-3.8 7.5-5.3 12-5q3.7.6 5.3 1.6a10 10 0 0 1 3.5 5c.6 2.3.4 4-.6 6a6 6 0 0 1-4.2 2.6 8 8 0 0 1-5.8-1.5c-2.1-1.7-2.8-3.5-2.6-6.3q.3-2.4 3.3-2.6 3.1-.1 4.6 3.4v.4l-.3.2q-.4 0-.7-.3"/><path fill="#703d29" d="M597.6 564.8q4.3-4.2 10.6-4.3 5.9 0 13 4.5a37 37 0 0 1 15.6 19 32 32 0 0 1-1.8 23l-.4.9q-6.3 12.7-23.5 17.7-12 3.4-39.7.7-15.6-1.6-22.3-1.2a25 25 0 0 0-16.5 6.7l-1-.9a26 26 0 0 1 17.2-7q6.8-.5 22.6 1.1 27.3 2.8 39.2-.6c11.3-3.3 18.6-8.8 22.8-17.1l.5-1a31 31 0 0 0 1.7-22 36 36 0 0 0-15-18.3 25 25 0 0 0-12.2-4.3q-5.8 0-9.8 4z"/><path fill="#703d29" d="M601.6 583.5c-.5-2 0-3.4 1.3-5.3a6 6 0 0 1 4.3-2q2.8 0 5.5 1.7 2.6 1.8 4 3.8l.3.4 1.6 2.2 1.6 3.8v.3a21 21 0 0 1-10.3 25.8 55 55 0 0 1-22.3 3.3q-3 0-7.3-.5l-2.8-.3q-3-.2-7.9-1h-.6l-2.5-.4-3.7-.6q-6.9-1.2-11-1.5l-2.9-.2q-5.8-.5-8.8-.5h-1.8l-6.5.2h-.8l-2 .2-1.8.3a57 57 0 0 0-14.9 3.9l-.8.4a20 20 0 0 0-5 3q-5.8 4.8-6.5 8.8l-.1 2.3c.2 3.8 2.5 6.1 7.8 8.2l-.2 1q-4.3-1.6-6.7-4.4a8 8 0 0 1-2-5l.1-2.5q.8-4.4 6.8-9.2l2.1-1.5q.9-.7 3.1-1.7l.8-.4q5.5-2.5 15.2-4l1.8-.3 2.1-.1h.7l6.6-.3h1.9q3 0 8.8.5l2.8.2q4.3.4 11.2 1.5l3.7.6 2.5.3.6.1q5 .8 7.8 1l2.8.3q4.5.5 7.3.5 14.3.2 21.9-3.2 6-2.8 9.2-9.6 3.1-7.3.6-15v-.3a24 24 0 0 0-3-5.7l-.3-.4q-1.4-1.8-3.7-3.4a8 8 0 0 0-4.8-1.4q-2.3 0-3.6 1.6-1.7 2.1-1.2 4.4zm-85-197.2c1.4 2.8 1.7 4.7 1.3 6.5-1.2 3-2.8 4-6 3.6a10 10 0 0 1-7.3-5.5c-1.6-3.3-1.6-5.6-.1-8 2.5-3.4 5.5-4.2 10.4-3q3.9 1.3 12.2 6.2l-.2-.7q-.6-2-.6-3.7.2-3.8 3.7-8.5 2.4-3.3 3.3-5.6c1.1-3.8.9-6.3-1-8.5-2-2-4-2.6-7.2-2L520 359q-11.4 4.4-20.5 3.2a54 54 0 0 1-20.6-9.5l-5.3-3.4c-3.2-1.6-5.2-1.7-7.2-.3-1.9 1.7-2.1 4-1 8.3q.9 2.4 3.3 6.5 3.5 5.8 3.7 9.7 0 1.8-.6 3.5l-.2.6a50 50 0 0 1 12.7-2.5 11 11 0 0 1 10 6.3 8 8 0 0 1-.3 8c-1.8 2.7-3.8 3.6-7.2 3.2-3-.6-4.7-2.2-6-5.5-.5-2.3-.2-4 1.4-6.1l.9.7q-2 2.5-1.2 5.3 1.3 3.9 5 4.5c2.8.3 4.6-.4 6.2-2.8a7 7 0 0 0 .2-7 10 10 0 0 0-8.9-5.5q-3.7 0-12.3 2.5l-1 .3-1 .3.1-1 .6-1.8q.5-1.5.5-3.2-.2-3.5-3.5-9-2.5-4.3-3.4-6.8c-1.3-4.7-1-7.4 1.2-9.4 2.4-1.6 4.8-1.6 8.4.2q1.8 1 5.4 3.5a53 53 0 0 0 20 9.4q8.9 1.1 20-3.2 3.8-1.5 5.4-1.8c3.7-.7 6 0 8.5 2.3 2 2.7 2.4 5.4 1.1 9.7q-.9 2.4-3.4 5.8a16 16 0 0 0-3.5 8q0 1.5.6 3.4l.5 1.9.2 1-1-.5-.5-.4q-8.7-5.1-12.5-6.3c-4.4-1.1-7-.4-9.3 2.6-1.2 2-1.2 4 .2 7a9 9 0 0 0 6.3 4.7q3.7.5 5-3 .5-2.1-1.3-5.7z"/><path fill="#703d29" d="M492 378.1c2.9 2.8 4 5.3 4 8.6q-.3 2.9-1.3 4.1-.8 1-3.3 2.4h-.4l-.4-.3q-.3-.4.2-.7 2.3-1.2 3-2.1.8-1.2 1-3.7c.1-2.8-.9-5-3.5-7.5l-.2-.4.1-.4q.4-.3.8 0"/><path fill="#703d29" d="M495.3 387.7c-.3 2.6-1.3 3.8-3.8 4.6h-.4l-.3-.4q-.2-.6.3-.7 2.9-.7 3.1-3.8 0-.4.6-.4.6.1.5.7"/><path fill="#c7b37f" d="m433.5 359.9 1 .9 1.2 1.3.8 1.6.3 1.4.1 1.6v1.1l-.4 1.2-.8.8-1 .9-1.2.5h-1.7l-1.5.1-1.5-.9-1.4-1.1-.8-1.4-.6-1.5v-.6z"/><path fill="#703d29" d="M430.6 365.4q-.2-1.5-1.7-2-1.2-.6-2 .2-1 1.4-.3 3.4a6 6 0 0 0 3.2 3.3c2.2.9 3.7.5 5.3-1.2q1.8-2 .8-5.5-.5-1.4-2.5-3.3a10 10 0 0 0-6.9-2.6c-2.8.3-4.3 1.3-5.5 3.5-1.8 4.7 1 9.6 9 16.3a44 44 0 0 0 21.3 8.6 61 61 0 0 0 29.6-4.9l2-.7q2.9-1.1 4.7 1.1 2 2.8-.4 4.7-.4.3-.8 0l-.1-.5.2-.3q1.8-1.4.3-3.3-1.2-1.6-3.5-.8l-1.9.8a62 62 0 0 1-30 4.9 45 45 0 0 1-22-8.9c-8.5-7-11.4-12.3-9.3-17.5 1.3-2.6 3-3.7 6.2-4q4.3 0 7.7 3a10 10 0 0 1 2.9 3.8q1 4-1 6.4c-2 2-3.7 2.4-6.4 1.3q-2.9-1.3-3.9-4-1-2.5.5-4.3 1.2-1.3 3.1-.5t2.4 3q.1.5-.4.5t-.6-.5m-41 181-3 .7-3.2 2-1.3 1.5-1.7 2.8-.7 2-.7 2.7-.3 2-1-.2.3-2.1.6-2.7.8-2.3 1.8-2.8 1.5-1.8 3.3-2 3.2-.8zm18.4 2.2-.3 2.7-.4 1.9-1.5 3-2.2 2.6-2.4 1.6-1.8.6-2.4.3-.2-1 2.3-.3 1.6-.5 2.2-1.5 2-2.4 1.4-2.9.4-1.7.2-2.6zm92.2 85.2c-1 3.5-3.5 5.1-8.6 5.5h-1l-.3-1.1h1c4.6-.4 6.8-1.8 7.7-4.8zM629.9 572q4.8 5 7.6 12.7 1.4 4.1 1.3 9a32 32 0 0 1-3.5 14.9 35 35 0 0 1-23.5 17.7q-12.1 3.4-39.7.7-15.4-1.5-22-1.1c-7.4.6-12.6 2.6-16.5 6.3l-1-1c4.1-3.9 9.5-6 17.2-6.6q6.8-.5 22.2 1.1 27.4 2.7 39.3-.6 16.8-4.8 22.7-17.2l.5-.9a31 31 0 0 0 1.7-22q-2.5-7.4-7.2-12.2z"/><path fill="#703d29" d="M603.4 579q1.2-1.4 3.8-1.8 3.2-.4 5.7 1.2t3.8 3.7l-.8.4q-1.2-1.8-3.5-3.4-2.1-1.4-5-1-2.3.4-3.3 1.5zm22.3-11.3 2.2 1q3 1.1 5.7.8 3.1-.7 4.5-3 1.4-2.5 0-6a9 9 0 0 0-2.6-3.3l.9-1q2 1.9 2.8 3.8c1.1 3 1.1 5 0 7.2q-1.5 2.9-5.3 3.5-2.9.5-6.4-.8l-2.3-1zm-248-145q-1 .6-2.6 1.2-3.1 1.2-4.6 2.7a47 47 0 0 0-4 9.6q0 .5-.6.3-.4-.2-.4-.6 1.3-4.6 4.1-10 1.8-1.6 5-3l2.6-1q.4-.2.7.2t-.2.7m59.7-55.2c-.2 3-1.5 4.2-5 4.5q-.4.1-.6-.4v-.4l.4-.2c3-.3 4-1.3 4.2-3.6q0-.6.5-.5.5.2.5.6m181.1 76.8q8.9 1 17.3 7.7a32 32 0 0 1 11.8 25.5c0 10.6-2.7 17.8-8.4 22.6a28 28 0 0 1-13.2 5l-.3-.9q8.4-1.3 12.8-4.9c5.5-4.6 8-11.6 8.1-21.9a31 31 0 0 0-11.4-24.7 32 32 0 0 0-16.6-7.4z"/><path fill="#703d29" d="M620.5 444.6c7.2.7 12.8 3.5 17.9 9a39 39 0 0 1 8.6 25.3c.1 8-2 14-6.9 19.2a22 22 0 0 1-11.9 6.4l-.3-1a21 21 0 0 0 11.5-6.2 25 25 0 0 0 6.6-18.5 38 38 0 0 0-8.4-24.6c-4.8-5.3-10.2-8-17.1-8.6zm-7.5 84.2.2-2.4.9-3.8 1.2-2.9 1.3-2.3 1.7-1.8.7.6-1.7 1.7-1.2 2.3-1.2 2.8-.8 3.6-.2 2.4zm18-16.6-.2 2.4-.7 1.6-1.1 1.5-1.4.9-2 .5-1.7-.1-1.3-.4.2-.8 1.1.3 1.6.1 1.7-.4 1.1-.7 1-1.4.7-1.4.2-2.3zm-30.7-76 .5-2.5 1.2-2.3 1.5-2.2 2.6-2.9 2-2 3.3-2.8 2.8-2.5 1.8-1.7 2.4-2.6 2-2.8 1.3-2.3.7-3.1.2-4-.4-1.1.8-.2.4 1.3-.2 4.2-.7 3.3-1.3 2.5-2.1 2.8-2.4 2.6-1.8 1.8-2.8 2.5-3.3 2.8-2 2-2.6 2.8-1.4 2.1-1.2 2.2-.5 2.4zm3.4 154.7 2.4-.2 1.7-.7 1-.8.7-1 .4-1.7v-1.2l1 .1-.1 1.4-.5 1.9-.8 1.1-1.1 1-2 .8-2.6.1zM367 532.4l1.8.3h2.3l2.3-.5.3.9-2.4.5h-2.5l-1.8-.4zm14.7-53.6-.3 2.1-.6 1-.7.9-1.1.7-1.2.4h-2.6v-.9h2.3l1-.3 1-.6.6-.7.4-.8.3-2zm9.1-16.9-.5 3.3-.7 1.4-1.4 1.7-1.9 1.2-1.9.7-3.6.4-.2-.8 3.5-.4 1.8-.7 1.7-1 1.2-1.6.7-1.3.5-3.1zm13.8-48.2-.7 1.9-.8 1.3-1.2 1.5-1.7 1.3-2 .6-1.7.2-1.1-.2v-.8l1 .2 1.5-.2 1.8-.6 1.5-1.2 1.1-1.3.8-1.3.7-1.8zm-8.2-3v1.5h-.8v-1.6zm2.8 51q-1.5 1.2-3.4 1.7-.5.1-.6-.4-.2-.5.3-.6 1.6-.4 3-1.4.4-.3.7.1t0 .7m228.2 101 .3.1.4.2q1.4 1 3.4.3 1.8-.8 1-2.8v-.4l.3-.2q.5 0 .7.3c.6 2 .2 3-1.6 4q-2.3 1-4.4-.4l-.1-.1q-.6-.2-.7-.4l-.1-.4.1-.3q.4-.3.7.1"/><path fill="#703d29" d="M620 516.1c1.6 2 3.4 2.8 6.3 2.5a5 5 0 0 0 3.5-2.3q1.3-2.2.5-5.2a12 12 0 0 0-3.2-4.7l-.3-.2-.2-.2.6-.7.2.2.3.2a13 13 0 0 1 3.6 5.3q1 3.3-.7 5.8a6 6 0 0 1-4.1 2.7c-3.3.3-5.4-.5-7.3-2.9zm16.3 41.5v-1a6 6 0 0 0-1.7-4.2l-.5-.5-.8-.8.5-.8 1 1 .4.4a7 7 0 0 1 2 6.1z"/><path fill="#703d29" d="M633.8 551.5c-.2-2.9-1.6-4.3-5-5.4l.3-1c3.8 1.3 5.4 3 5.7 6.4zm-11.6-2-.6-.6-1.4-1.3a26 26 0 0 1-6.8-17.1q0-4.7 1.7-9 1.6-4 4-5.7l.6.8a13 13 0 0 0-3.7 5.4q-1.6 4-1.6 8.6a25 25 0 0 0 7.8 17.6l.6.6zm-90 81.3 2.8-2 2-1.2 3.6-1.7 3.4-1 2.4-.3 4.8-.3h5.5l.2 1h-5.5l-4.7.3-2.4.2-3.3 1-3.5 1.7-1.9 1-2.7 2zm-20.4 16.4q-4.5 6-12 7.6h-.3q-7.4-4-11.9-11.3l.8-.4q4.4 7 11.3 10.8a19 19 0 0 0 11.3-7.3z"/><path fill="#703d29" d="M491.9 637.8q-1.1 3.6-3.5 5.9-.4.2-.7-.1-.5-.4 0-.7 2.2-2.2 3.3-5.5 0-.4.6-.2.4.1.3.6"/><path fill="#703d29" d="m492.4 634.7-.7 3.2-1-.3.7-3.2zm-4.4 9.1-1.5 1.3-2.7 1-3 .5-.3-1 2.9-.4 2.5-1 1.4-1.1zm-16-265.7-1-.4.3-.6q.6-1.5.6-3-.2-3.5-3.4-9-2.4-4.2-3.2-6.8c-1.5-5-1.2-7.7.8-9.6 2.3-1.5 4.7-1.4 8.7.6q1.5.8 4.9 3.1l.4.3a53 53 0 0 0 20.1 9.4v1a40 40 0 0 1-10.8-3.8 81 81 0 0 1-9-5.3l-.7-.5-4.8-3.2-.5-.2c-3.2-1.6-5.3-1.7-7.3-.3-1.9 1.8-2.1 4.1-1 8.4q.9 2.4 3.3 6.5 3.5 5.9 3.7 9.6 0 1.7-.6 3.6l-.1.3z"/><path fill="#703d29" d="M500.2 361.7q8.4.8 21-3.8 4-1.5 5.2-1.5 4.3-.1 7.3 2.8l-.6.6c-2-1.8-4-2.4-7.1-1.8q-1.7.4-5.3 1.9-11.3 4.5-20.5 3.2v-.5zm122.1 187.8a25 25 0 0 1-8.1-28.9q1.7-4 4-5.8l.7.8a13 13 0 0 0-3.8 5.5q-1.5 4.1-1.6 8.5c.2 8 3.1 14 9.4 19.2zm-110.9 97.3a20 20 0 0 1-12 7.5h-.3q-7.3-4-12-11.3l.9-.4q4.4 7 11.3 10.8a19 19 0 0 0 11.3-7.3zm-32.1-265 3.5-1.3q3.3-1.2 5 1.2c1.5 2.1 1.4 3.4-.2 4.8q-.4.3-.7 0-.3-.5 0-.8 1.8-1.4.2-3.5-1.3-1.7-3.8-.8l-3.6 1.4q-.4 0-.6-.3-.3-.5.2-.6"/><path fill="#703d29" d="M461 387.5a70 70 0 0 0 20.4-5.1l.5.9q-12 4.5-20.7 5.1zm70.5 248.9q.8.7 1.4 1.8l.1.4.4 1.1q.4 1.9-.8 3-1 1-2.7 1c-2.9-.3-4.5-1.5-5.8-4.3l.8-.2c1.1 2.3 2.5 3.3 5 3.5q1.3 0 2-.7.8-.9.5-2.3l-.3-.8-.1-.4q-.4-.8-1-1.4z"/><path fill="#703d29" d="M460.6 387q8.5-.5 20.4-5.1l.5.9q-12 4.6-20.7 5.1zm170.8 177.3q-2.2.6-4.8-.8l-2.3-1.5-.6-.4a41 41 0 0 1-15.8-22.5 29 29 0 0 1 .2-14.5 32 32 0 0 1 6.3-13c2.2-2.4 4.2-3.4 7-3.3v1q-3.5-.3-6.2 3-4.5 5.6-6.2 12.6a29 29 0 0 0 2.4 21 40 40 0 0 0 12.7 15l.7.3 2.2 1.4q2.3 1.2 4 .8zM400.8 417.8c2.8 3 4 5.8 4.2 9.5-.1 3-1.1 5.4-3.3 8a18 18 0 0 1-10.8 5.6 14 14 0 0 1-10.1-2.4l.5-.7c3 2 5.7 2.6 9.3 2.2a17 17 0 0 0 10.3-5.3c2-2.5 3-4.7 3.1-7.5-.1-3.5-1.3-6-3.9-8.7z"/><path fill="#703d29" d="M402.3 433.8a7 7 0 0 1 2.7 5.6q0 2.6-3 5.5c-4 3.6-8.2 5-13.8 4.5a20 20 0 0 1-9.6-3.9 17 17 0 0 1-6-9l.8-.1q1.4 5 5.7 8.4 4 3 9 3.6a16 16 0 0 0 13.2-4.2q2.6-2.6 2.7-5a6 6 0 0 0-2.2-4.7z"/><path fill="#703d29" d="M402.2 443.8q2.8 2.8 2.8 7.6c-.2 4.1-2 7.2-5.8 10.2q-1.5 1-3.1 1.8l-.5-1q1.5-.6 3-1.6c3.6-2.8 5.3-5.7 5.4-9.6 0-3-.8-5-2.4-6.8zm193.1 15.1v5.3l-1-.1v-5.3z"/><path fill="#703d29" d="M595 457.5v7.5l-1-.1v-7.5zm.3-16v9.7l-1-.1v-9.8z"/><path fill="#703d29" d="M595 439.2v13.4l-1-.1V439zm-3 136.2q-2.5 4.3-6.6 7.7a31 31 0 0 1-19.3 6.9 68 68 0 0 1-20.2-2h-.2a101 101 0 0 1-10.4-2.7l-2-.5-6.5-1.4a41 41 0 0 0-16.6.2 22 22 0 0 0-9.7 4.1l-.3.5-.4-.6q-2.1-2.9-9.6-7a50 50 0 0 0-23.2-6l-2-.1-4.8-.2-5.6-.2h-.2l-9.6-1.2q-6-1.2-10.6-2.8a47 47 0 0 1-19.3-12.2l-1-1.1.8-.6.9 1a45 45 0 0 0 18.8 12 75 75 0 0 0 19.9 3.9h.3a99 99 0 0 0 10.3.4l2 .1a75 75 0 0 1 15.6 2.7q4.4 1.5 8 3.4 7.2 4 9.7 7 2.4-2.2 9.6-4a41 41 0 0 1 17-.2q2.6.4 6.6 1.3l2 .5 10.4 2.8h.2q5.7 1.3 9.5 1.6 6 .6 10.4.3 6.1-.6 10-1.8a31 31 0 0 0 8.8-4.9q4-3.3 6.4-7.5zm-113 70.1 2.8.1.1 1h-2.7zm49.4 3.8 2.7.2 2.6-.7 1.7-.7 2.4-2.5.5-.9.4-2.4.1-1 1 .2-.2 1.1-.4 2.5-.6 1.2-2.6 2.6-2 .9-2.7.6-2.8-.2zM611 446q.8-2.9-.2-5.3t-3.6-2.6v-1q3.2.4 4.5 3.4 1 2.6.2 5.9zm-206.2 32.2q-1.4 4.4-5.7 6.5l-.5-.9q4-2 5.3-6zm0-63a9 9 0 0 1-5.8 5.4c-3 .8-5.4.1-8.4-2.3l.6-.7c2.7 2.2 4.8 2.8 7.4 2.1q3.9-1.3 5.4-5zm-21.7 11.2q1.4.9 2.6.1t1-2.8q-.6-2.7-3.5-3.3-.5 0-.5-.5t.6-.4q3.7.8 4.3 4.2.3 2.5-1.3 3.6t-3.7-.1q-.4-.3-.2-.7t.7-.1m9.8 127.6.5.7q.4.5.6.5l.4.2q1.3.4 2-.5 1.8-2-.7-5.3-1.1-1.5-3.5-2.4a7 7 0 0 0-4.9 0q-2.4 1.1-3.7 2.6l-.3.3-1.5 1.9-1.5 3.2-.1.2q-2 5.8-.1 12.6a30 30 0 0 0 6.4 11.2l-.7.6a31 31 0 0 1-6.7-11.6 21 21 0 0 1 .2-13.2v-.2l1.7-3.4 1.5-2 .3-.2q1.5-1.7 4-2.8a8 8 0 0 1 5.6 0q2.6.9 4 2.7c2 2.8 2.2 4.6.8 6.5q-1.1 1.3-3 .7l-.4-.2q-.6-.1-1.2-1l-.3-.5zm138.5 82.1q.7.8 1 1.5h.1l.5 1.5q.4 1.9-.8 3-1 1-2.7 1-3.9-.3-5.7-4.2v-.4q0-.2.3-.2.5 0 .6.3 1.5 3.3 4.7 3.5 1.4 0 2-.7.9-.8.6-2.3l-.4-1.2-.9-1.2-.1-.4.1-.3q.4-.2.7.1"/><path fill="#703d29" d="M606.8 387.1q4.1 1.1 7 4.6 3 3.7 3 7.6 0 4.4-1.3 7.2-1 1.9-3.8 5.3l-.8 1q-1 1.1-4.2 4a72 72 0 0 0-8 8.2 18 18 0 0 0-4 10.5c0 6.4 2 10.3 6.2 13 3 1.4 5 1.3 7.8-.6 1.8-1.5 2.4-3 2-5.5q-.8-3.3-3.6-4.2-1.5-.4-2.5.2t-1.2 2 .5 2q.7 1 2.2 1l.1 1q-2 0-3-1.5-1-1.2-.7-2.8t1.4-2.5q1.4-.9 3.4-.3 3.5 1 4.3 5c.5 2.9-.2 4.7-2.3 6.4-3 2-5.5 2.2-8.8.5-4.6-2.8-6.7-7-6.8-13.9a19 19 0 0 1 4.2-11q2.5-3 8.1-8.2 3.2-2.9 4.1-4l.8-1q2.8-3.3 3.7-5a17 17 0 0 0 1.3-6.9q0-3.6-2.7-7-2.9-3.2-6.5-4.2zm26.3 163.6c-.7-3-2-4.3-5.1-4.8q-2.1-.2-3.6 1-1.5 1.4-1.5 3.6 0 2 1.4 3.7l-.7.6a7 7 0 0 1-1.7-4.4q0-2.6 1.8-4.1 1.8-1.6 4.3-1.4c3.6.6 5.3 2.2 6 5.8z"/><path fill="#703d29" d="M598.5 447.4a9 9 0 0 0-3.9 7.8q0 3.9 3.1 8.3 4 5.2 10.3 7.8 6 2.4 9.2.8l.5.9c-2.6 1-5.6.8-10-.8q-6.8-2.8-10.7-8.2c-2.2-3.3-3.2-6-3.4-9a10 10 0 0 1 4.3-8.4zm-220.7-24q-4.6 1.1-7.2 4.3a23 23 0 0 0-3.3 18.3q1 4.7 3.5 8.7l1.5 2 1.2 1 .5.4-.5.7-.5-.4-1.3-1.1-1.7-2.2a28 28 0 0 1-3.9-19.2q1.4-5.9 3.7-8.9c2-2.3 4.2-3.6 7.6-4.5zm94.6 186.2q6.9 4 9.9 6.5 4.5 3.8 7.8 9.2 1.9 3.2 2 7.8c-.2 5.1-1.8 8.4-5.3 11-3.3 2-6.5 2.4-10.7 1.5q-2.2-.6-4.2-2.2-1.9-1.6-2.4-3l1-.1a6 6 0 0 0 2 2.4q1.8 1.4 3.7 2c4 .9 7 .4 10-1.4 3.3-2.5 4.7-5.5 4.9-10.3q0-4.4-1.8-7.4a36 36 0 0 0-7.6-8.8q-2.9-2.4-9.7-6.4zM398.8 461c4.2 3.8 6 7.6 6.2 12.4-.2 5.3-2 8.5-6.4 10.8l-.5-.9c4-2.1 5.7-5 6-10-.2-4.5-2-8-5.9-11.6z"/><path fill="#703d29" d="M395 479.1q5.4 7.4 7.3 11A30 30 0 0 1 405 502c0 7.6-2.5 13.9-8 19.7q-.2.3-.6 0t0-.7a27 27 0 0 0 5-30.4 80 80 0 0 0-7-10.9q-.4-.4 0-.6t.7.1M514.7 396q1.5-.8 2.3-2.8 1-3.1-.4-5.5l.8-.4q2 2.9 1.3 6.5-.4 1.5-2.4 3l-.2.2-.4-.4-.5.2zm80.6 141.4V561h.1v.5a32 32 0 0 1-.6 6.3l-1-.3.6-5.7v-24.7z"/><path fill="#703d29" d="M595 534.9V561a30 30 0 0 1-1 7.7l-1-.4a43 43 0 0 0 1-7v-26.6zm0-30.6V526l-1-.2V504z"/><path fill="#703d29" d="M595.3 506v17.8l-1-.2V506zm0-22.5v13.3l-1-.1v-13.3z"/><path fill="#703d29" d="M595 481.9v16.4l-1-.2v-16.4zm.3-12v5.2l-1-.2v-5.1z"/><path fill="#703d29" d="M595 468.8v7.5l-1-.1v-7.5zm-3 105-.5 1a29 29 0 0 1-6.5 7.8 32 32 0 0 1-19.3 6.9 67 67 0 0 1-20.1-2h-.4l-5.5-1.4-4.8-1.3-2-.5a82 82 0 0 0-15.3-2.1q-4.4 0-7.9 1c-5.1 1.2-8 2.5-9.6 4l-.4.5-.4-.6q-2.1-2.9-9.6-7a51 51 0 0 0-23.1-6l-2-.1-4.8-.2-5.6-.2h-.3l-9.5-1.2q-6-1.2-10.6-2.8a47 47 0 0 1-23.1-17l.7-.5a46 46 0 0 0 12.6 12 58 58 0 0 0 20.4 7.3q3.7.8 9.5 1.2h.2a89 89 0 0 0 10.4.4l2 .1q4 .3 6.6.7 5.4.9 9 2a52 52 0 0 1 17.6 10.3 25 25 0 0 1 9.6-4 42 42 0 0 1 17-.1q2.7.4 6.7 1.4l2 .4 4.8 1.3 5.5 1.5h.3q5.7 1.3 9.4 1.7 6 .5 10.5.2 6-.5 10-1.8a31 31 0 0 0 8.8-4.8q4-3.3 6.3-7.6l.6-1zm-183.6-26.6c.6 5-.5 8.5-3.6 11.4-2.8 2.4-5.1 3.3-8 3.1-4.5-.7-6.9-2.4-8.4-6.1l1-.2c1.3 3.2 3.4 4.8 7.4 5.4 2.6.1 4.7-.7 7.3-2.9 2.8-2.8 3.8-6 3.3-10.7z"/><path fill="#703d29" d="M401.4 543.5a21 21 0 0 1 2.9 4.3q1 2.2 1 5.2-.2 3-1.2 4.5l-.5.7-.8-.6.5-.6q.8-1.4 1-4.1 0-2.9-.9-4.7-1.2-2.4-2.7-4zm-29 37.4q6.4 7 16.6 12.4 12 6.1 39.3 11 15.1 2.8 21.9 5.2a39 39 0 0 1 16.9 11.2l-.8.6q-5.7-7-16.4-11-6.6-2.3-21.6-5-27.5-5-39.7-11.2-10.4-5.5-16.8-12.7zm121.3 37.8q5.1 5.9 6.4 9.6l-.9.2q-1.2-3.6-6.1-9.2zm-5 25.5-1 .9c-3.3 2-6.5 2.4-10.7 1.5q-5-1.3-7-5.2l.9-.3q1.8 3.4 6.2 4.6c4 .8 6.9.4 9.9-1.4l1-.8z"/><path fill="#703d29" d="m462.6 635.4.5.6c2 2.4 4.2 3.8 7.5 4.7l-.1 1a15 15 0 0 1-8.7-5.8zm49.7 12.3q-4.6 6-12 7.6h-.3q-7.4-4-12-11.3l-.4-.8.8-.4.5.8q4.3 7 11.2 10.8a19 19 0 0 0 11.3-7.3z"/><path fill="#703d29" d="m512.3 647.1 1 1.2c3 2.8 6 4.2 10 4.5q4 .1 5.9-2.7v-.1l.6-.8 1 .4-.8 1.1c-1.6 2.2-3.5 3.1-6.6 3a17 17 0 0 1-11.8-6z"/><path fill="#703d29" d="m529.7 649.8-1.2 1.7-1.8 1.2-2.8.7-2.5-.3v-1l2.3.3 2.4-.6 1.7-1 1-1.6z"/><path fill="#703d29" d="M535.8 633q2.4 2.3 3.6 5.1.8 1.8.9 3.8a8 8 0 0 1-2.3 6.2c-2.4 2.2-5 3-8.7 2.6l-.8-.1v-1l.8.2c3.5.2 5.8-.5 8-2.4a7 7 0 0 0 2-5.5 12 12 0 0 0-.7-3.5 14 14 0 0 0-3.4-4.7z"/><path fill="#703d29" d="M528.9 650.2c-3.3-.5-5.8-1.9-8.4-4.6l.7-.6c2.4 2.5 4.6 3.8 7.6 4.3zm89.6-92.8a46 46 0 0 1-10.2-17.8 30 30 0 0 1 .2-14.5q1.8-8 6.4-13l.3-.5q2-2 3-2.6l.5.9a13 13 0 0 0-2.7 2.4l-.4.4a28 28 0 0 0-6.2 12.7 28 28 0 0 0 2.4 21q3.3 6.3 7.3 10.4zM616.4 395a10 10 0 0 1 5.5 3.6 10 10 0 0 1 2.4 6.2q-.2 4.1-1.7 7-1.2 2-5.2 6.4l-4.5 4c-7.8 6.7-11.3 11.6-11.3 15.7a9 9 0 0 0 1.6 4.2l-.7.4a10 10 0 0 1-1.9-4.7c0-3 1.2-5.7 3.8-9q2.4-2.7 7.8-7.3 3.4-2.8 4.4-4 4-4.4 5.1-6.2 1.5-2.8 1.6-6.6 0-2.9-2.1-5.6a9 9 0 0 0-5-3.2zm-18 51.6q1.2 1.3 3 2.3a7 7 0 0 0 6 .4l.5.9q-3.7 1.3-7-.5a15 15 0 0 1-3.2-2.5zm-23-66.4q2.5 2.1 3.6 4.6c2 5.8-.8 10.3-9.3 15q-5.7 2.7-13 3l-.1-1q7-.2 12.5-3c8.1-4.3 10.8-8.5 9-13.7q-1-2.4-3.2-4.1z"/><path fill="#703d29" d="M568.6 393.1a9 9 0 0 1-5.2-3.1q-.9-1-1.2-1.8l.9-.2 1 1.5a8 8 0 0 0 4.5 2.7zm-29-.7q-1.4-.8-2.2-1.8a7 7 0 0 1-1.3-7.3l1.5-3.3a37 37 0 0 0 4.3-12c.2-8-2.2-13-7.8-16l.3-1c6 3.5 8.7 8.7 8.5 17.2q-.3 4-4.4 12.4l-1.5 3.2a6 6 0 0 0 1.1 6.3l2 1.6z"/><path fill="#703d29" d="m542.5 366.2-.2 3.2-1 3.2-1.6 4.2-1.3 2.7-1.4 2.6-.6 1.8-.3 1.3.2 1.4q.1.4-.4.4t-.5-.4l-.3-1.6.3-1.5.7-1.9 1.4-2.7 1.3-2.6 1.7-4.1.8-3 .2-3.2q0-.5.5-.3.3 0 .4.2zm52.3 218 .8 1.2h.1q.9 1.5 3 3.2a12 12 0 0 0 5 2.2q3.4.4 5.4-1.2 1.2-1.1 1.4-2.3a7 7 0 0 0-.3-4.3 8 8 0 0 0-2.5-2.3q-1.2-.7-2.6-.7-.4 0-.6-.5v-.3l.4-.2q1.7 0 3.3.9c2.8 2 3.7 4.2 3.3 7.6a5 5 0 0 1-1.7 2.8q-2.2 1.9-6.1 1.4-2.6-.4-5.4-2.4a13 13 0 0 1-3.4-3.4q-.7-.7-1-1.5 0-.4.3-.6h.4zM372.4 534q-3.2.4-5.9-.6a12 12 0 0 1-5.6-4.6 8 8 0 0 1-.8-7l1 .3a7 7 0 0 0 .6 6.3q1.8 2.7 5 4.1 2.5.9 5.5.6zm9-57.9q.7.7.9 2c.2 3-.5 4.5-2.6 5.7q-2.6 1.2-5.8 0a9 9 0 0 1-5-4.1q-1-1.9-1-3.8l1 .1q0 1.7.9 3.3 1.4 2.6 4.3 3.7 2.9 1 5.1 0 2.5-1.3 2.1-4.9-.1-.9-.5-1.4zm21.3-32q1.3 1.4 2 3.2l-1 .2q-.6-1.5-1.7-2.7zm0-10a8 8 0 0 1 2 2.3l-.8.3a7 7 0 0 0-1.7-2z"/><path fill="#703d29" d="M405 442q-.8 1.8-2.6 3.4c-3.9 3.6-8.1 5-13.8 4.4a20 20 0 0 1-9.6-3.8 17 17 0 0 1-6.4-9.4q-.2-.5.3-.5.4-.1.6.4 1.3 5 6 8.8 4.2 3 9 3.6a16 16 0 0 0 13.2-4.2q1.5-1.4 2.3-3.2.2-.4.6-.1.4.2.3.6m-3.9-23.9q2.7 2.8 3.8 5.8l-.9.2q-1-2.9-3.5-5.3z"/><path fill="#703d29" d="M404.9 431c-2.2 6.2-6.4 9.4-13.6 10.4a16 16 0 0 1-10.7-3q-.3-.3 0-.6.3-.5.7 0 1.2 1.2 4 2 3.2.9 5.7.6c7-1 10.9-4 13-9.7q0-.5.5-.3t.4.6"/><path fill="#703d29" d="M377.5 426.5c.7 4.5 3 6.6 7.8 7.5 3.7.3 5.7-1 7.3-4.7 1.3-4 .6-7.4-2.4-11.3l.7-.6c3.2 4.3 4 8 2.6 12.3-1.7 4.1-4 5.6-8.2 5.2-5.5-1-8-3.4-8.7-8.4zm-16.3 32.4a31 31 0 0 0 12.4 9.6q.4.2.3.7 0 .3-.6.2a33 33 0 0 1-12.9-10q-.3-.4 0-.6.4-.3.8.1m20.3 11.3a10 10 0 0 0 7.1-2.7 8 8 0 0 0 1.9-6.7q-.4-2.9-2.6-5.3a8 8 0 0 0-4.1-2.7q-.5 0-.5-.5t.6-.4q2.3.5 4.6 3c1.7 2 2.6 3.7 3 6a9 9 0 0 1-2.1 7.3c-2 2-4.3 2.8-7.7 3q-.5 0-.6-.6 0-.4.4-.4m10.6-64q2.2.1 3.7 2a6 6 0 0 1 1.2 3.5l-1-.1q0-1.6-1-3-1.1-1.3-2.8-1.5zm-.2-37.3q2.3 5.8 7.6 9.4.4.3.1.7-.1.3-.6 0a21 21 0 0 1-8-10q0-.3.3-.5h.4zm229.4 87.8a7 7 0 0 1 .6 7.1c-1.5 2.7-3.5 3.7-7.3 3.5a10 10 0 0 1-7.2-4.9l-.1-.4.2-.2q.4-.1.7.2a9 9 0 0 0 6.4 4.3c3.3.2 5-.6 6.4-3 1-2.3.8-4-.5-6.1q-.3-.4.1-.7h.4zm-26-49v23.7l-1-.2v-23.7z"/><path fill="#703d29" d="M383 426.5q1.4 1 2.7 0 1.3-1.1.6-3a4 4 0 0 0-2.2-2.3q-2-.9-4.4.3c-2.2 1.4-2.7 3-2 6.2 1.2 3.2 3 4.7 6.8 5.3 3.7.3 5.7-1 7.2-4.7 1.3-4 .6-7.3-2.4-11.3q-4.3-5.3-11.6-5.7-6.7-.3-12.5 3.4c-5.7 4-9 9-10.7 16q-.9 4.4-.9 7.5a35 35 0 0 0 10.2 23.6q7.3 6.6 15.7 7.4c3.6.1 5.9-.6 8-2.4 1.8-2 2.4-4 2.1-7a9 9 0 0 0-3.8-6q-3.1-2.1-5.8-.6-2 1.2-2 3.9.1 2.8 3 4 1.4.6 2.6-.7 1-1.2-.1-2.5-.3-.4 0-.7.4-.2.7.1 1.5 1.9.2 3.8t-3.7 1c-2.5-1.2-3.5-2.6-3.6-5.1q0-3.3 2.3-4.6c2.3-1.2 4.3-1 7 .6a10 10 0 0 1 4.2 6.8c.3 3.4-.4 5.6-2.4 7.7-2.3 2-4.8 2.8-8.6 2.6a28 28 0 0 1-19.3-10.9l-2.1-2.7a37 37 0 0 1-5.6-18.4q0-3.1 1-7.6a26 26 0 0 1 11-16.6q6-3.9 13-3.6a17 17 0 0 1 12.4 6.2c3.3 4.2 4 7.9 2.6 12.2-1.6 4.2-4 5.6-8.1 5.3-4.2-.8-6.4-2.5-7.7-6.2-.8-3.5-.2-5.5 2.3-7.1 2-1 3.5-1.1 5.3-.4q2 1 2.8 3 .9 2.4-.9 4-1.8 1.5-3.8-.2-.4-.3-.1-.6.3-.4.7 0M582.8 378c4.7-1.6 7.6-.7 10.4 3a15 15 0 0 1 2.4 11.5q-1.1 4.8-5.5 8.2-.3.2-.6-.2l-.2-.3.2-.3q4.1-3.2 5.2-7.7a14 14 0 0 0-2.3-10.8c-2.4-3.2-5-3.9-9.1-2.5q-.3.2-.4 0l-.3-.2q-.1-.5.2-.7"/><path fill="#703d29" d="M592.8 381.3a10 10 0 0 1 7.4-.6q3.6 1.2 6 4.8 2.6 4.3 2.5 9.7a14 14 0 0 1-9 13.1q-.5.1-.7-.3v-.3q0-.2.2-.3c5.5-2.5 8.1-6.3 8.5-12.3 0-3.6-.7-6.4-2.3-9.2q-2.1-3.2-5.4-4.3a9 9 0 0 0-6.7.6h-.3l-.3-.3q-.3-.4.1-.6m22.6 13.4q3.2.7 5.4 3.3a10 10 0 0 1 2.1 5.8q0 4.3-1.4 7a39 39 0 0 1-9.5 10.5c-7.8 6.7-11.3 11.6-11.3 15.7q0 2 1.6 4.1 1.5 2 3 2.2v1a7 7 0 0 1-3.8-2.7 9 9 0 0 1-1.8-4.7c0-3 1.2-5.7 3.8-9a75 75 0 0 1 7.8-7.3q3.4-2.8 4.4-4 3.6-4 4.9-6.2 1.3-2.7 1.4-6.7a8.4 8.4 0 0 0-6.6-8zm.8 65.8q-2.1 1.1-3.9-.8t-.7-4q1-1.9 2.7-2.4 2.4-.7 5.2 1.5c2.5 2.2 3.2 4.3 2.3 7.6-1.3 3.4-3.4 4.7-7.6 4.4-4.2-.6-6.6-2.7-8.4-7.2-1.5-4.6-.6-8.1 2.8-11.6 3.4-3 7.2-4 12.7-3.3a27 27 0 0 1 13.3 6.4q3.3 3 6.2 7.3 3.8 6 4.8 12c2.2 15.3-1 25.3-10 31-4.8 2.8-10 3.6-16.5 2.7-3.8-.7-6.4-2.1-8.7-4.6a11 11 0 0 1-2.4-8.3c.6-3 1.8-4.6 4.2-5.7 2.5-.9 4.5-.6 7 .9q3.4 2.2 3 5.8c-.5 2.4-1.6 3.4-4.3 3.6q-2.3-.1-3.7-2-1.3-2.1.2-3.6.4-.3.7 0l.2.4-.2.4q-1 1 0 2.3 1 1.4 2.7 1.5 3 0 3.4-2.9.4-2.8-2.5-4.8a7 7 0 0 0-6-.7q-3.1 1.3-3.7 5c-.3 3 .4 5.2 2.2 7.5a13 13 0 0 0 7.9 4.3c6.3.9 11.3 0 16-2.6 8.6-5.5 11.7-15.2 9.5-30.2-.6-4-2.1-7.6-4.6-11.6a38 38 0 0 0-6-7 26 26 0 0 0-12.7-6.1c-5.2-.7-8.8.2-12 3-3.2 3.3-4 6.4-2.6 10.7 1.6 4 3.7 5.9 7.5 6.5 3.7.2 5.5-.9 6.7-3.8.7-3 .2-4.8-2-6.6q-2.2-1.8-4.2-1.3-1.5.6-2.2 2-.8 1.6.5 3 1.2 1.3 2.6.4.3-.1.7.2.2.4-.2.7"/><path fill="#703d29" d="M611.6 455.8c1.2-4.1 4-5.5 10-4.9 5.1.8 9 3.6 12.7 9a32 32 0 0 1 5 16.6c0 7.4-1.5 12.6-4.5 16.6-3.3 3.9-7.2 5.5-13 5.2q-2.6-.3-5-1.6-3-1.8-3.1-4.3l1 .1q0 2 2.5 3.4 2.2 1.2 4.6 1.4c5.4.3 9.1-1.2 12.2-4.8q4.4-5.7 4.3-16-.2-8.9-4.8-16.1c-3.5-5.2-7.1-7.8-12-8.6-5.4-.5-8 .7-9 4.3z"/><path fill="#703d29" d="M618.4 453.9q7.6 2.5 11.5 9.3a28 28 0 0 1 3.3 13.5q0 7.7-2.3 11.8-3.6 6.3-13.4 7.7h-.5l-.2-1h.5c6.4-.9 10.3-3.1 12.8-7.2q2-3.9 2.1-11.4 0-7.4-3.1-13c-2.6-4.3-6-7-11-8.8l-.4-.2.2-.9zm17 102.7.1-1a6 6 0 0 0-1.6-4 6 6 0 0 0-3.9-2q-2.2 0-4 1.2-1.5 1.4-1.5 3.6a6 6 0 0 0 2 4.5l-.5.7a7 7 0 0 1-2.5-5.3q0-2.5 2-4.2a6 6 0 0 1 4.5-1.4q2.7.4 4.6 2.4a7 7 0 0 1 1.9 4.6l-.1 1.2z"/><path fill="#703d29" d="M614.9 545.3q4.1 6.3 9.4 9.8.4.3.2.6-.3.4-.7.2a35 35 0 0 1-9.7-10.2q-.3-.4.1-.6l.4-.1zm7 26.1c-8.7-6.3-15.9-8.2-22.8-6-3.3 1.3-5.1 2.9-6.3 5.5q-1.4 3.5-.4 8a16 16 0 0 0 3 6.2q3.7 4.2 7.3 4.7 3.4.5 5.4-1.2 1.3-1 1.5-2.3c.4-3-.4-4.7-2.8-6q-.9-.4-2.3-.2-1.6.1-2 1.3-.5 1.4.3 2.7.3.4-.2.6h-.3q-.2 0-.3-.2a4 4 0 0 1-.4-3.4q.5-1.7 2.7-2 1.6-.1 2.9.3c2.8 1.6 3.8 3.6 3.3 7.2a5 5 0 0 1-1.6 2.8c-1.7 1.3-3.5 1.7-6.2 1.4q-4-.6-8-5.1a17 17 0 0 1-3.2-6.7q-1.1-4.8.4-8.6 1.8-4 6.8-5.9c7.2-2.4 14.7-.4 23.7 6.2q.4.3.1.7 0 .2-.3.2z"/><path fill="#703d29" d="M532 637.3c.7 1.9.8 3 .1 4.2q-.9 1.2-3 1.2-2.5-.2-4.2-2a7 7 0 0 1-1.6-3.8q-.3-3.1 1.9-5a6 6 0 0 1 5.3-1.5c4 .8 6.3 2.8 8 6.7q.7 1.7.9 3.9a8 8 0 0 1-2.3 6.2 11 11 0 0 1-8.7 2.5q-5-.6-8.5-5c-2.4-3-3.4-5.7-3.5-9 .2-5.4 3.2-9.1 9.9-12.4q6.8-3 15-3.8 11.3-.9 27.6.6l5.7.6q6 .6 10 .8h.5q7.9.2 13.2-.3 11.3-1.2 19-7 6.7-5.3 9-11 1.5-4.1 1.4-9.4-.2-6.4-3.2-11.4c-4-6.1-8.9-9.8-15.6-11.7-6.1-1.5-10 0-13.3 5.2a9 9 0 0 0-.8 4.5 11 11 0 0 0 1 4.3c1.7 3 3.7 4.6 7 5.1q3.4.5 5.3-1.2 1.3-1 1.5-2.3c.4-3-.4-4.7-2.8-6q-.8-.4-2.3-.2-1.6.1-2 1.3-.4 1.4.3 2.7.3.5-.2.6h-.3l-.3-.2a4 4 0 0 1-.4-3.5q.5-1.6 2.7-1.9 1.6-.2 2.9.4c2.8 1.5 3.8 3.5 3.3 7a5 5 0 0 1-1.7 2.9q-2.2 1.9-6.1 1.4c-3.6-.7-5.8-2.3-7.8-5.7q-1-2-1-4.8-.1-3 .9-5c3.4-5.4 7.7-7.1 14.3-5.6a27 27 0 0 1 16.2 12.3 26 26 0 0 1 2 21.5A29 29 0 0 1 618 615q-8 6-19.5 7.3-5.4.5-13.3.2h-.6q-3.9 0-10-.8l-5.6-.6a172 172 0 0 0-27.5-.5q-8 .7-14.7 3.7-9.4 4.3-9.4 11.6 0 4.5 3.2 8.4t7.8 4.6c3.5.3 5.8-.4 8-2.4a7 7 0 0 0 2-5.5q0-2-.7-3.5c-1.7-3.6-3.7-5.3-7.2-6q-2.7-.5-4.6 1.2a5 5 0 0 0-1.7 4.3q.3 1.8 1.4 3.2 1.4 1.5 3.4 1.6 1.6 0 2.3-.9.8-1-.3-3.2 0-.5.3-.6h.4z"/><path fill="#703d29" d="M526.7 618.8a66 66 0 0 0-9.8 3.4q-4.4 2.4-7.6 6.5a12 12 0 0 0-1.7 6.8 16 16 0 0 0 5 11.8q4.3 4.1 9.8 4.5 2 0 3.8-.8 1.6-.9 2-1.8 0-.3.2-.3h.4q.4.3.3.7-.4 1.2-2.3 2.3-2 1-4.3.9-6-.5-10.6-4.8a18 18 0 0 1-5.3-12.6q0-4.6 2-7.3a23 23 0 0 1 7.8-6.8q3-1.5 9.9-3.4.5 0 .6.3v.4zm73.6-127.5q-2.5.5-4 3.4-1.6 3-1.7 6.6c.2 5 2 8.5 6 11.6l-.6.7a15 15 0 0 1-4.6-19.4q1.9-3.3 4.6-3.9z"/><path fill="#703d29" d="M604.3 510a56 56 0 0 0-7.1 9.1q-2.4 4.4-2.6 10.6a34 34 0 0 0 7.7 21.1q.3.4 0 .7-.4.3-.7-.1a35 35 0 0 1-8-21.8q.2-6.3 2.7-11a58 58 0 0 1 7.2-9.2q.4-.3.7 0t.2.3zM570 378.4l.5-.7q2-2.6 5.3-3c2.3 0 4 .6 6 2.2 4 3.8 5.3 8.1 4.1 14.4q-1 5-6.4 7.6l-.5-.8q5-2.7 6-7c1-6 0-10-3.8-13.6a7 7 0 0 0-5.2-1.8c-2 .2-3.3 1-4.7 2.6l-.5.7zM415.4 354c-4.1-2.2-6.7-2.2-9.1.1-2.4 2.7-3.1 5.7-2.3 10.1.7 3.3 2.3 6 5.2 9q.3.4 0 .8h-.3l-.4-.1c-3-3.2-4.7-6.1-5.5-9.6-.8-4.8 0-8 2.5-11 2.8-2.5 5.8-2.6 10.3 0q.5.1.2.6l-.2.2z"/><path fill="#703d29" d="M405.3 354.6a10 10 0 0 0-6.7-2.4 8 8 0 0 0-5.3 3c-1.7 2.4-2.4 5-2.4 8.6a18 18 0 0 0 8.6 14.5l-.5.8a19 19 0 0 1-9-15.4c-.1-3.8.7-6.5 2.5-9.1q2.3-3 5.9-3.3 3.8-.2 7.4 2.5z"/><path fill="#703d29" d="M392 357q-3.8 0-6.3 2.4a8 8 0 0 0-2.6 6.1q0 4.5 1.3 7.8a45 45 0 0 0 8.2 12 104 104 0 0 1 8.1 10.3q4.2 6.6 4.3 12c-.2 6.9-2.2 10.5-6.9 12.2-3.3.8-5.8 0-8.8-2.7-2-2.3-2.7-4.3-2.3-7q.9-3.7 4.3-4 2 0 3.4 1.2a5 5 0 0 1 1.5 2.8q.2 1.7-.7 2.7-1.1 1.2-3 .7v-1q1.5.5 2.2-.4.7-.6.5-2t-1.1-2.1q-1-1-2.6-1-2.9.3-3.5 3.4c-.4 2.3.2 4 2 6 2.6 2.5 4.8 3.2 7.7 2.5 4.3-1.6 6.2-5 6.3-11.4q-.1-5-4-11.5-2.5-3.7-8-10.2l-4.3-5a45 45 0 0 1-4.2-7.3 24 24 0 0 1-1.4-8.1q.1-4 2.9-6.7t6.8-2.6z"/><path fill="#703d29" d="M383.3 362.6q-2.9-.1-5 1.6a6 6 0 0 0-2.3 4.6q0 3.8 1.6 6.9 1 2.1 4.9 7.2l.4.6 4 4.7q5.4 6 7.6 9.1 3.8 5.8 3.7 10a9 9 0 0 1-1.5 4.7q-1.6 2.3-3.5 1.7l.2-1q1.3.6 2.5-1.3a8 8 0 0 0 1.4-4.2q.1-6-11-18.5l-4.1-4.7-.5-.6q-3.9-5.3-5-7.4a17 17 0 0 1-1.7-7.3q0-3.1 2.6-5.2a9 9 0 0 1 5.6-1.9zm-9.7 113.6q1.4-3 4.5-2.2 3 .8 3.3 3.3c.2 2.9-.5 4.5-2.5 5.7q-2.6 1.2-5.9.1a8 8 0 0 1-4.8-9.6q.5-1.4 1.4-2.5 1-1 2.1-1.7a11 11 0 0 1 5.4-.4c4.4.7 8 3 12 7.8q5 6.5 7 15 2.3 9.8.5 18.3a30 30 0 0 1-9.2 16 38 38 0 0 1-15.4 7q-3.5.6-6.4-.5a10 10 0 0 1-5.2-4.5 8 8 0 0 1 0-7q1.6-3.3 5.6-3.6c3 0 4.8 1 6.5 3.8q.6 1.2.7 2.6 0 2.8-1.8 3.7-2.1 1-4.1.1-2.3-1.1-2.2-4 0-.6.5-.4.4 0 .4.5 0 2.3 1.6 3 1.5.8 3.3 0 1.3-.7 1.3-3 0-1.2-.6-2.2-2-3.3-5.5-3.2c-2.4.3-3.7 1.2-4.8 3.1-1 2.4-1 4.2 0 6.3q1.4 2.6 4.6 4 2.6 1 5.8.5 3.4-.6 6.3-1.9 6-2.6 8.7-5c4.5-4.2 7.3-9.1 9-15.6a41 41 0 0 0-7.4-32.5c-3.7-4.5-7.1-6.7-11.2-7.3q-3.5-.5-4.9.3a6 6 0 0 0-3 3.7 7 7 0 0 0 4 8.3q2.8 1 5.1 0 2.5-1.4 2.1-5-.2-1.7-2.4-2.3-2.4-.7-3.5 1.8-.2.4-.6.2t-.3-.6"/><path fill="#703d29" d="M367.6 526.7q1.8.9 4 .1.7-.1 2.3-.8l.6-.3a29 29 0 0 0 15.3-18.2q.7-2.6.8-4.8 0-4.1-1-9.4-1.4-7.4-6.2-14.1-2.7-4-6.1-4.4v-1c2.7.6 4.8 2 7 5a42 42 0 0 1 7.2 24 26 26 0 0 1-3.4 11.5 29 29 0 0 1-13.1 12.3l-.6.2-2.3 1q-2.7.8-4.9-.2z"/><path fill="#703d29" d="m362.3 519.1-.2-1.2q.1-2.5 2-4.2a6 6 0 0 1 4.5-1.4q2.8.4 4.6 2.4a7 7 0 0 1 2 4.6 6 6 0 0 1-2.5 4.7l-.6-.8q2-1.3 2-4a6 6 0 0 0-1.6-4 6 6 0 0 0-3.9-2q-2.2 0-3.9 1.2-1.5 1.4-1.6 3.6l.1 1z"/><path fill="#703d29" d="M364.6 513.4c.8-3.5 2.4-4.7 6-4.5a7 7 0 0 1 6.1 6.8q0 2.5-1.7 4l-.7-.7q1.4-1.4 1.5-3.4a6 6 0 0 0-5.2-5.7q-4.3-.5-5 3.7z"/><path fill="#703d29" d="M375.8 514c6.2-3.9 9.1-9.1 9.3-17q0-4.5-1.6-9-1.6-4.2-3.7-6.3l.6-.7q2.4 2.4 4 6.8 1.6 4.6 1.7 9.3a20 20 0 0 1-9.8 17.7zm8.8-1.1q-4.3 5.5-9.8 7.9-.4.2-.6-.3-.3-.5.2-.6 5.2-2.3 9.4-7.6.3-.5.6 0 .5.2.2.6M399 536c-1.5-3-4-4.9-8.5-6-4-.8-7.8-.4-12.3 1.3a26 26 0 0 0-15.1 15q-1.4 3.8-1.2 8.4.2 8.7 3 14.2l.4 1a48 48 0 0 0 22.9 22.4q12 6.2 39.3 11 15.8 3 22.5 5.4 11.2 4.4 17.2 12.1l-.8.5a38 38 0 0 0-16.6-11.7q-6.8-2.4-22.4-5.3-27.5-5-39.6-11.1a49 49 0 0 1-23.8-24q-2.9-5.6-3.1-14.6 0-4.7 1.3-8.7a27 27 0 0 1 28.4-16.9c5 1.3 7.7 3.3 9.3 6.7z"/><path fill="#703d29" d="M376.2 536c9-4.6 16.5-4.7 23.8-.5q5 3.2 6.8 7.7c1 3 1 5.6.4 8.7q-1.1 3.6-3.3 5.8c-2.8 2.4-5.1 3.3-8 3a10 10 0 0 1-6.1-2.9 7 7 0 0 1-1.7-3.2c-.5-3.7.5-5.4 3.4-6.3q1.2-.2 2.8.4 2.2.9 2.7 2.6.6 2-.4 3.4-.1.3-.6 0t-.2-.6q.8-1.1.3-2.6-.4-1.4-2-2-1.4-.5-2.3-.2c-2.4.7-3.1 2.1-2.7 5.3a6 6 0 0 0 1.4 2.7q2 2 5.4 2.5c2.6.2 4.7-.6 7.3-2.9q2-1.9 3-5.4a14 14 0 0 0-.3-8 15 15 0 0 0-6.4-7.2c-6.9-4-14-3.9-22.7.5q-.4.2-.7-.2t.1-.6"/><path fill="#703d29" d="M396 553.4c.5-1.7.1-3-1.1-4.7q-1.3-1.5-3.6-2.3a7 7 0 0 0-4.9 0q-2.4 1-3.7 2.6l-.3.3-1.4 1.8-1.6 3.2v.3c-1.7 4.8-1.5 9.5.7 15q3 7.3 9.1 12a60 60 0 0 0 22 8.9l8.6 1.7 1.4.2 7.8 1.2h.7l2.4.4 3.8.5q6.8.8 11 1.8l2.9.6q6 1.2 8.9 2.1l1.8.6 6.6 2.2.7.2 2.1.8 1.9.9q9.6 4.4 15 8.6l1 .7 3 2.6 1.1 1.2 1 1q5.9 6.6 6.8 11.3l.1 2.5a6 6 0 0 1-2 4.3 11 11 0 0 1-6.7 2.3l-.2-1c5.5-.3 7.7-2 8-5.8q0-1.6-.2-2.3-.8-4.4-6.5-10.8l-.9-1q-.8-.6-1.2-1.2l-2.8-2.4-1-.7a78 78 0 0 0-14.8-8.5l-1.9-.8-2-.8-.7-.2-6.5-2.2-1.9-.6-8.8-2.1-2.8-.6q-4.2-.9-11-1.8l-3.8-.5-2.4-.3h-.7l-7.8-1.2-1.5-.3-8.7-1.7a61 61 0 0 1-22.3-9 30 30 0 0 1-9.5-12.5 22 22 0 0 1-.8-15.8l.1-.2q.7-2 1.6-3.4l1.5-1.9.3-.3q1.5-1.6 4-2.8a8 8 0 0 1 5.6 0q2.6 1 4.1 2.6c1.5 2 1.9 3.6 1.4 5.7z"/><path fill="#703d29" d="M467.6 627.9q-1 1.9-.3 3.1.7 1.1 2.4 1.6 2 .5 3.3-.6 1.1-1 1.4-2.8.2-2.6-1.6-4.8a8 8 0 0 0-4.6-2.7c-3.6-.3-5.6.8-7.2 3.9q-.6 1.4-.8 3.3 0 3.2 2 6.2 3.1 3.7 8 4.7a9 9 0 0 0 7.9-2.1 10 10 0 0 0 3.2-7.4c-.2-5-3.1-9.5-9.5-14.6a62 62 0 0 0-14.7-8.2q-11.1-4.2-27.5-7.4l-5.6-1-10-2-.6-.1q-8-1.9-13.3-3.8-11.4-4.1-19.5-12a40 40 0 0 1-9.2-13.5q-1.6-4.5-1.5-10a21 21 0 0 1 3.4-11c4.1-5.6 9.2-8.3 16.3-8.6 6.5.1 10.9 3 14.3 9.2q1 2.3 1 5.3-.3 2.8-1.2 4.4c-2 3-4.1 4-7.8 3.8a10 10 0 0 1-6.1-3 7 7 0 0 1-1.7-3.2c-.5-3.7.5-5.4 3.4-6.3q1.2-.2 2.8.4 2.2.9 2.7 2.6.6 2-.4 3.4l-.8-.6q.8-1.1.3-2.6-.4-1.4-2-2-1.4-.5-2.3-.2c-2.4.7-3.1 2.1-2.7 5.3a6 6 0 0 0 1.4 2.7q2 2 5.4 2.5c3.3.2 5.2-.7 7-3.3q.7-1.5 1-4 0-3-.9-4.8c-3.2-6-7.2-8.5-13.3-8.6a19 19 0 0 0-15.6 8.1q-3 4.3-3.2 10.7 0 5.3 1.4 9.6 2.3 6.3 9 13 7.7 7.7 19 11.8 5.4 1.9 13.2 3.8l.6.1 10 2 5.6 1q16.4 3 27.6 7.5 8.3 3.2 15 8.3c6.7 5.3 9.8 10 10 15.4-.2 3.4-1.2 5.7-3.5 8a10 10 0 0 1-8.6 2.4c-3.7-.9-6.3-2.4-8.7-5.2a11 11 0 0 1-2.3-7q.2-2 .9-3.5c1.8-3.5 4-4.7 8-4.3q3.1.4 5.4 3c1.4 2 2 3.6 1.9 5.7a5 5 0 0 1-1.7 3.3q-1.6 1.3-4.2.7-2-.5-3-2.1-1-1.8.2-4zm-39.9-270.4-.5-.9a10 10 0 0 0-4.7-3.9 6 6 0 0 0-5.2.5c-3.7 2.4-4.9 6.1-3.8 12.4q1 4.8 6 8.7.5.3.2.7l-.3.2-.4-.2c-3.6-3-5.6-5.8-6.4-9.3-1.2-6.7 0-10.7 4.1-13.4a7 7 0 0 1 6-.5q3.2 1.2 5.3 4.4l.5.9q.3.4 0 .6-.5.1-.8-.2m144.5 33c-5.6 5-12.6 7-22 6a23 23 0 0 1-11.9-5c-3.3-3-4.1-5.6-3-9.1q.1-.9 1.5-3.3 4-8.3 4.3-12c.1-8-2.3-12.6-7.9-15.7-3-1.3-6-1.7-10-1.1q-3.3.6-9.4 3-4.5 1.9-6.4 2.2a27 27 0 0 1-16.2-2.5q-1.8-1-6.4-4.2a81 81 0 0 0-9.4-6 17 17 0 0 0-10-1.8c-5.6 1.3-8 5.3-7.9 13.2a48 48 0 0 0 4.4 13.4l1.5 3.7c1 4 .2 6.2-3 8.2a19 19 0 0 1-12 1.5 37 37 0 0 1-22-12.3l.7-.6a35 35 0 0 0 21.3 12c4.6.6 8 .2 11.4-1.4 2.9-1.8 3.6-3.8 2.7-7.2l-1.5-3.7a49 49 0 0 1-4.4-13.7c-.2-8.4 2.4-12.6 8.5-14a18 18 0 0 1 10.6 2q3.4 1.5 9.6 6 4.5 3.1 6.3 4 3.5 1.6 7.7 2.4 4.3.6 7.8 0 1.7-.3 6.2-2 6.2-2.5 9.6-3.2 6-1 10.6 1.3c6.1 3.2 8.7 8.3 8.5 16.6q-.2 4-4.4 12.4l-1.5 3.2c-.9 3.1-.1 5.3 2.8 8a22 22 0 0 0 11.3 4.7c9.1 1 15.8-.9 21.3-5.7z"/><path fill="#703d29" d="m465.3 605.9.7.2a84 84 0 0 1 17.2 10.8q4.5 3.9 7.8 9.3a16 16 0 0 1 1.4 11.6q0 .4-.5.3t-.4-.6a15 15 0 0 0-1.3-10.9 39 39 0 0 0-7.5-9q-3.3-3-9.7-6.6a82 82 0 0 0-8-4.3q-.5-.3-.3-.7t.6-.2"/><path fill="#703d29" d="M465.9 638.4q2.2 1.4 4.8 1.9a9 9 0 0 0 7.8-2.1 10 10 0 0 0 3.2-7.5q0-5.4-5.4-11l.6-.6c3.9 4.1 5.6 7.7 5.8 11.8-.1 3.4-1.2 5.7-3.5 8a10 10 0 0 1-8.6 2.3 16 16 0 0 1-5.2-2z"/><path fill="#703d29" d="M467.5 627.8q-.9 2 0 3.5.8 1.3 2.5 1.7 2 .6 3.4-.5a4 4 0 0 0 1.4-2.8q.4-3.7-3-6.2-.3-.3-.1-.7t.6 0c2.7 2.1 3.7 4.2 3.5 7.2a5 5 0 0 1-1.7 3.3q-1.7 1.3-4.2.7a5 5 0 0 1-3.2-2.3q-1.3-2 0-4.4 0-.4.5-.1.4.2.3.6m140.3-240.5q3.9.5 6.8 4.3a14 14 0 0 1 3 8.2c-.2 4.4-2 8.3-6 12.6l-.2.1q-1.8 1.8-6 5.5l-.9.7-.7-.7 1-.8 5.9-5.4.1-.1c3.8-4.2 5.6-7.9 5.7-12a13 13 0 0 0-2.6-7.5 10 10 0 0 0-6.1-4z"/><path fill="#703d29" d="M602.1 381.5a14 14 0 0 1 4.5 4.4q2.7 4.3 2.5 9.8c-.4 5.5-3.2 9.3-9.3 12.6h-.4l-.3-.2q-.1-.5.2-.6c5.8-3.2 8.5-6.8 8.9-12q0-5-2.4-9.1-1.8-2.6-4-4-.5-.3-.3-.7 0-.2.3-.2zm-9.6-1.1A13 13 0 0 1 596 393q-1.4 4.9-5.9 7.7-.4.1-.7-.2l-.1-.4.2-.2c3-2 4.6-4 5.6-7.2a12 12 0 0 0-3.2-11.8q-.4-.3 0-.7.3-.3.6 0m-10.2-3c4.3 4 5.6 8.4 4.1 14.5q-1.3 4.8-6.7 7.3-.4.2-.6-.3l-.1-.3q0-.2.2-.3c3.5-1.7 5.3-3.7 6.3-6.7 1.3-5.8.2-9.8-3.8-13.5l-.2-.3.1-.4q.3-.3.7 0m14.8 85.2q.3 1 1.5 2.3l.6.7a25 25 0 0 0 9.3 6.3c3.5 1.3 6.2 1.2 9.3-.1q.2-.2.4 0l.3.2q.2.5-.2.6a13 13 0 0 1-10 .2q-6-2.5-9.8-6.7l-.6-.7q-1.4-1.4-1.8-2.6 0-.5.3-.6h.4zm-229.6 55q3.4.3 5.5 4.1.7 1.3.7 2.7 0 2.6-1.8 3.5-2 1-4.3 0c-1.7-1-2.4-2.1-2.4-4.2q0-.4.5-.4t.5.5q0 2.3 1.7 3.2 1.8.8 3.5 0 1.3-.6 1.3-2.8 0-1-.5-2.1-1.9-3.3-4.7-3.6-.4 0-.4-.5t.4-.4m12-48.1q5.7 1.8 10.9 8.3A39 39 0 0 1 397 492q2.2 9.8.4 18.3a30 30 0 0 1-9.1 16q-1.4 1.2-3.4 2.4l-1.6.9-.5-.9 1.6-.8 3.2-2.3a30 30 0 0 0 8.9-15.6q1.7-8.3-.4-17.9-1.9-7.4-6.6-13.8a22 22 0 0 0-10.3-7.9zm-8.5 39.6q2.4.4 4.4 2.5 1.9 2.2 1.9 4.7t-1.7 4l-.7-.7q1.5-1.4 1.4-3.4 0-2.2-1.6-4a6 6 0 0 0-3.7-2.1z"/><path fill="#703d29" d="M368.8 512.3q2.6.3 4.7 2.6 2 2.3 2 5 0 2.9-2.4 4.6l-.6-.8q2-1.4 2.1-4 0-2.2-1.8-4.2a7 7 0 0 0-4-2.2zm30-28q4.9 6.9 6 12.5.1.4-.4.5t-.5-.5q-1.2-5.4-5.8-12.1-.3-.4.1-.7.4-.1.7.2m5.8 25.5q-.7 3-2.2 5.9a23 23 0 0 1-5.6 6.4q-.4.2-.7-.2-.3-.3 0-.6a22 22 0 0 0 5.4-6.2q1.5-2.6 2.2-5.6 0-.4.6-.3.4.2.3.6m-5.4-48.2q4.3 4 5.5 8l-.9.2q-1.2-3.9-5.2-7.6z"/><path fill="#703d29" d="M405 455.4a15 15 0 0 1-5.4 6.4q-.4.3-.7 0-.3-.6 0-.8 4.2-3.1 5-6 .3-.5.7-.2.4.1.3.6m-19.8-22 3.2-.4 1.8-1.1 1.2-1.5 1-2.5.5-2.1q0-.5.6-.3.4.2.3.6l-.4 2.2-1.1 2.7-1.4 1.6-2 1.3-3.5.5q-.4.1-.6-.4t.4-.5m-6.5-11.3q-2 .3-3.7.9a12 12 0 0 0-5.2 3.6 24 24 0 0 0-3.2 18.4 27 27 0 0 0 5 10.8q3.1 3.4 6.4 3.1l.2 1c-2.7 0-4.8-1-7.3-3.5l-1.7-2.3a28 28 0 0 1-3.8-19.2q1.3-5.9 3.6-9 2.1-2.6 5.6-3.8 1.7-.6 3.9-1zm19-12.2q-1.5 4.3-5.3 3.7-.4 0-.4-.6 0-.4.5-.3c2.2.3 3.3-.6 4.2-3.2q0-.4.6-.3.4.2.3.6"/><path fill="#703d29" d="M385.4 421.7a11 11 0 0 0-6.2-3A16 16 0 0 0 366 424a23 23 0 0 0-3.6 7q-1.3 5.3-1 9.2l.1.5.5 3.5q1.2 5.5 3.3 9.5c3.2 5.1 6.7 7.9 11.5 9a9 9 0 0 0 4.6-.2q2.4-.9 2.6-3l1 .2q-.3 2.7-3.2 3.7a10 10 0 0 1-5 .3 19 19 0 0 1-12.3-9.6 34 34 0 0 1-4-13.3v-.6a27 27 0 0 1 2.5-13.4l2.2-3.5a14 14 0 0 1 4.7-3.8c3.2-1.5 6-2 9.3-1.7 3 .5 5 1.5 6.9 3.4zm181.4-36.1q.4-2 2.4-2.3 2-.1 3.1 1.4 1.5 2.1.6 4.6t-3.8 2.9c-2.6.3-4.4-.6-6.4-3.2q-2-2.9-1-6.6.7-1.6 3-3a9 9 0 0 1 7.6-.7q4.5 1.4 6.2 5.7c2 5.7-.8 10.2-9.3 14.8-6 3-13 3.9-21.9 2.5a78 78 0 0 1-30-14l-2-1.3q-2.3-1.6-3.5-.4-1.5 1.5.4 3.5l.1.4-.1.3q-.4.3-.7-.1c-1.7-2-1.8-3.2-.4-4.8q1.8-1.7 4.7.3l2 1.3a77 77 0 0 0 29.5 13.9 35 35 0 0 0 21.4-2.4c8-4.4 10.8-8.6 9-13.8a9 9 0 0 0-5.6-5 9 9 0 0 0-6.9.6q-2 1.3-2.5 2.6-1 3.3.8 5.7 2.2 3.2 5.3 2.7 2.4-.4 3.2-2.4t-.4-3.7q-.7-1-2.1-.8t-1.7 1.6q0 .2-.2.3h-.4q-.4-.1-.4-.6"/><path fill="#703d29" d="M570.1 383.4q1.7.3 2.7 1.7 1.5 2.3.6 4.6-1.1 2.4-4 3l-.3-.1-.2-.4q-.1-.4.3-.5 2.4-.5 3.3-2.4.8-2-.4-3.7a3 3 0 0 0-2-1.3q-.5 0-.5-.6 0-.4.5-.3m27 90.2c-2.3 2.4-2.8 5-1.6 9.4q1.8 5.7 5 8h.1q.7.6 1.7.9.8.1 1.4.6.4.3.1.7l-.2.2q-.3 0-.4-.2l-1-.4q-1.3-.3-2.1-1.1a16 16 0 0 1-5.5-8.5c-1.3-4.7-.7-7.7 1.8-10.4l.3-.1q.3 0 .4.2.3.3 0 .7"/><path fill="#703d29" d="M597.3 462.8c-1.4.9-2 2-2.2 4.2q0 3.4 2 6c3.7 4 8 6.2 13.9 7.1q5 .7 9-1.5c3-1.7 4.6-3.8 5.7-7l.9.3c-1 3.5-2.9 5.7-6.1 7.6q-4.3 2.2-9.5 1.6-9-1.4-14.6-7.6-2.4-2.8-2.3-6.7.2-3.4 2.7-4.9z"/><path fill="#703d29" d="M594.5 560.5a30 30 0 0 1-3.4 13.9 29 29 0 0 1-6.6 7.8 31 31 0 0 1-19.2 6.8 65 65 0 0 1-20.3-2h-.3l-5.6-1.5-4.8-1.3-2-.5a82 82 0 0 0-15.3-2q-4.4 0-7.8.8c-5.2 1.3-8.1 2.6-9.6 4.1l-.4.5-.4-.6q-2.1-2.9-9.6-7a51 51 0 0 0-23.2-6l-2-.1-4.8-.2q-3.3 0-5.5-.2h-.3l-9.6-1.2a60 60 0 0 1-20.8-7.6 43 43 0 0 1-15.6-17 39 39 0 0 1-3.5-14.7v-153c62.9 8.1 125.7 19.4 190.5 27.9zh-.4zm-1 .4V408.2C531.3 400 469.1 389 405 380.5v152.2a31 31 0 0 0 3.4 14.4 42 42 0 0 0 25.1 21 75 75 0 0 0 20 4h.2a99 99 0 0 0 10.4.4l2 .1q3.9.3 6.6.7 5.3 1 9 2 4.4 1.5 8 3.4 7.1 4 9.6 7 2.5-2.2 9.6-4a42 42 0 0 1 17-.2q2.7.4 6.6 1.4l2 .5 4.9 1.3 5.5 1.4h.3q5.7 1.3 9.4 1.7 6 .5 10.4.2 6.1-.5 10-1.8 5.2-1.9 8.9-4.8 3.9-3.4 6.3-7.5a31 31 0 0 0 3.4-13"/><path fill="#c7b37f" d="M389.2 552.5q.4-3.2 3.9-3.2 3.4.8 3.8 4.2-.4 3.4-3.8 3.3-3.5-.8-3.9-4.3"/><path fill="#c7b37f" d="M389 552.5q0-1.6 1.2-2.7 1.1-1 2.9-.8a5 5 0 0 1 4 4.5q0 1.7-1.2 2.7t-2.8.8-3-1.5q-1-1.3-1.1-3m.5 0a4 4 0 0 0 1 2.7q1 1 2.6 1.3 3.5.5 3.5-3 .1-3.6-3.5-4-1.4-.1-2.6.7a3 3 0 0 0-1 2.4m-23.9-29.3q.2-3 2.7-3 2.5.6 2.7 3.6 0 3-2.7 3-2.5-.5-2.7-3.6"/><path fill="#c7b37f" d="M365.4 523.3q0-1.4.8-2.4t2.1-.9c2 .4 2.9 1.4 3 4q0 3.5-3 3.2-2.9-.3-3-3.9m.6 0q0 3.1 2.4 3.4t2.5-2.8c-.1-2.2-.8-3-2.5-3.4a2 2 0 0 0-1.7.7q-.7.9-.7 2.2m13.1-65.1q.3-2.6 2.6-2.5 2.4.5 2.7 3-.3 2.6-2.7 2.5-2.3-.5-2.6-3m47.1-92.4q0-2.6 2.1-2.8 2.2.4 2.7 3 0 2.5-2 2.7-2.3-.4-2.8-3m-50 108-1.1.7-.7 1-.3 1.6q-.2.6-.6.4-.4 0-.4-.6.1-1.3.4-1.8l.9-1.3q.6-.6 1.4-.8.5-.2.7.3t-.3.6m4.2 43.8.5-.6.9-.9.2-.2 1.4-2 .2-.3.6-1.2.4-.6q.3-.4.7-.2t.2.7l-.4.7-.7 1.2-.2.3-1.4 2-.2.3-1 1-.4.5q-.3.3-.7 0-.4-.4 0-.7m2.8 15.5-.9.3a18 18 0 0 0-5 2.3l-1.1.8-.7.4q-.4.3-.7-.1t.1-.7l.7-.4a22 22 0 0 1 6.4-3.2l.8-.2q.4-.1.6.3.3.4-.2.6m14.7-50.5-.5-.5-.8-.9-.3-.3-2-1.9-.5-.4q-.4-.4 0-.7.1-.3.6 0l.5.4 2.1 2 .3.3.8 1 .5.5q.3.3 0 .6-.4.3-.7 0M399 463l-.6.3-1.3.3q-1.4.3-2.4.2v-1a9 9 0 0 0 3.2-.4l.7-.3zm-25.5-28.3.2.8a12 12 0 0 0 1.8 4q1 1.5 2 2.5a17 17 0 0 0 3.4 2.8l.8.5q.5.3.2.7-.1.4-.6.1l-.8-.5q-1-.5-1.5-1l-2.3-2-2-2.6-1.4-2.8q-.3-.6-.5-1.6l-.2-.8q0-.5.3-.5.5-.1.6.4m6.7 1.7.7.4a13 13 0 0 0 3 1.5 16 16 0 0 0 5.3.7q.5 0 .6.5t-.4.5a18 18 0 0 1-5.7-.8 15 15 0 0 1-3.3-1.6l-.6-.5q-.5-.2-.2-.6.1-.4.6-.1m19.9-56.1-1.2-.8-2-1.4a31 31 0 0 1-4.8-5l-.8-1.3-.5-.8v-.4q0-.2.2-.2.4-.3.7.2l.4.8a16 16 0 0 0 2.5 3.4 30 30 0 0 0 4.8 4l1.2.7q.4.3.1.7-.2.4-.6 0m3.1-14.9.4 1 .6 1.7q.8 1.5 2.1 3.2.9 1 2.5 2.3l1.7 1.3q.4.4 0 .7-.2.3-.6 0l-1.6-1.3q-1.7-1.3-2.7-2.5-1.4-1.7-2.3-3.4l-.6-1.8-.4-1v-.4l.3-.2q.4-.1.6.4m9.7 1.2.3.9.6 1.5a17 17 0 0 0 3.2 4l2.9 2q.4.4.1.8-.1.3-.6 0l-3-2-2.1-2.4-1.3-2.1q-.4-.6-.7-1.6l-.3-1q-.2-.3.2-.5.4-.1.7.4"/><path fill="#703d29" d="M520.5 370.6c-.4-2.6-2.5-3.2-3.7-3.4-2.8-.2-3.6 1-7.1 2.5a18 18 0 0 1-10.3 1.3c-4-.7-5.9-1.5-10.4-4.5-3.5-2.5-4.1-4-7-4.6-1.7-.1-3.3.7-3.4 3.1v1.4l.4.3c0-1.2.3-1.7.8-2.4q1.6-1.1 2.5-.9c2.8.7 4 2.3 7.5 4.8 4.5 3 6.3 3.8 10.3 4.5 4 .5 5.8.3 10.3-1.3 3.6-1.4 4.6-2.9 7.4-2.6q1.5.3 2 1.9l.2 1.2q0 .2.2.3c0-.4.3-.6.3-1.6"/><path fill="#703d29" d="M520.6 370.6q0 .8-.2 1.3l-.1.4h-.3v-.1l-.2-.2v-.4l-.1-.9q-.6-1.5-1.9-1.8-1.7-.2-4.2 1.1-1.8 1-3.1 1.5-5.4 2-10.4 1.3a29 29 0 0 1-13.4-6.8 10 10 0 0 0-4.4-2.4q-1.4-.2-2.4.8-.7 1-.7 2.3h-.3l-.3-.3-.2-1.4q0-1.7 1.2-2.6 1.1-.8 2.4-.6 1.9.3 4.1 2.2l3 2.4q5.5 3.5 10.3 4.5a22 22 0 0 0 13.2-2.8 7 7 0 0 1 4.2-1q3.7.6 3.8 3.5m-.3 0c-.2-1.9-1.1-2.8-3.5-3.2q-1.7-.3-4 1l-3 1.4q-5.5 2-10.4 1.3a28 28 0 0 1-13.5-6.9 9 9 0 0 0-3.9-2.2 3 3 0 0 0-2.2.6q-1.1.8-1 2.5v1.2l.1.1q0-1.2.8-2.2 1-1.1 2.6-.9 1.9.3 4.5 2.5l3 2.3a28 28 0 0 0 10.3 4.5 22 22 0 0 0 13.3-2.8q2.6-1.4 4.4-1.2 1.6.3 2.1 2l.2 1v.3q.3-.6.2-1.3M414.5 568.4c.9-.7 1.3-.4 1.6-.7q0-.4-.5-.5l-1.3-.6-1.3-.7q-.4-.4-.8-.1c0 .6 1.4.7 1 2.3l-1.2 1.6-4.1 3.8-.4.2v-6.6q0-1.8.3-2.5c.4-.6 1 0 1.3-.4q.2-.2-.5-.5l-1.7-.8-1.5-.8q-.5-.5-.8-.1l.1.3q.8.6.8 1.5V575q0 1 .3 1.1t.6-.3z"/><path fill="#703d29" d="M419.3 570.8c.6-1.5 1.3-.6 1.7-1q.1-.2-.5-.5l-2-.9-1.8-.8q-.4-.3-.6 0c0 .6 1.5.9 1.2 2.4l-2.7 7.8c-.6 1.5-1.4.7-1.7 1.2l.2.3 1.7.7 2.4 1.1q.5.3.6 0c0-.5-1.7-.5-1.2-2.6zm5.6 2.4c.4-1 .8-.8 1.4-.6q2.4 1.3 1.6 4c-.3 1-.6 1.7-3 .8q-1-.4-1-.9zm-4.3 6.8c-.8 2-1.7 1-2 1.5q.1.4.5.5l2.4 1 1.4.6h.5c0-.7-1.4-.6-1-2.4l1-2.8c0-.6 0-.8.9-.4q1 .3 1.1 1.5l.5 3.1c.2 1.3.4 2.3 1.7 3q1.2.5 2-.2l-.3-.3h-.5l-.4-.6-1-5.6q0-.2 1-.3 1-.2 1.6-1.7c.3-1 .6-3-2.8-4.7L424 571l-1.8-.8h-.5c0 .7 1.6.7 1.2 2.6zm13 5.5c-.8 1.9-2 .6-2.4 1.1q0 .5.5.6l2.3.8 2.2.9q.8.4.9 0c0-.5-1.8-.8-1.5-2.9l2-7.6q0-1 1-.6l1.3.6c1.8.8 1 2.1 1.5 2.5.5.1.4-.5.5-.8l.2-1.6q0-.3-.2-.5l-5-1.8-4.8-1.9q-.3 0-.4.3l-.8 2.1v.7c.8 0 .8-1.9 2.7-1.4l1.3.5q1 .1.6 1.2zm19.5-2c.7-.9 1.2-.6 1.3-1q0-.3-.5-.4l-1.4-.4-1.4-.5q-.4-.3-.7 0c0 .6 1.5.5 1.4 2.1q0 .4-1 1.9l-3.2 4.5-.3.3-.1-.5-1-6.2q-.4-1.7-.2-2.6c.2-.6 1-.1 1.1-.6q.1-.3-.5-.4l-1.8-.5-1.6-.6c-.3-.1-.7-.4-.8 0l.2.3q.8.5 1 1.4l2 11.3q.3 1 .5 1.1t.5-.4zm.9 10.2q0 .6.3.8 1.4.9 2.7 1.5 3.4.8 4.3-2.6c.3-2.3-.5-3.2-2.2-4.7-2-1.7-2.7-2.1-2.6-3.3q.4-1.7 2.1-1.3c2.7 1.2 2.6 4 2.9 4.3q.4.2.4-.5l.3-2.3-.1-.7h-1c-.4-.2-1-1-2.3-1.5q-3-.7-3.8 2.4c-.2 1.9.4 2.7 1.8 3.9 2.5 2 3.3 2.6 3.1 4q-.5 2.2-2.6 1.5-2.5-1.2-2.8-4.2 0-.4-.3-.5-.4.1-.3.7zm24.3-3c.6-1 1.1-.7 1.2-1.1q0-.3-.5-.4l-1.4-.2-1.4-.4q-.5-.2-.7 0c.1.7 1.5.5 1.5 2.1q.1.4-.7 2l-2.7 4.8-.2.3-.2-.4-1.7-6.2q-.4-1.8-.4-2.5c.1-.8.9-.3 1-.8q.2-.3-.6-.4l-1.7-.3-1.7-.5c-.3 0-.7-.3-.8.1l.2.3q1 .4 1.2 1.4l3.2 11.2q.4 1.1.6 1 .2.1.5-.4z"/><path fill="#703d29" d="M481 599.8c-.3 1.8-1.5 1.3-1.7 2q.1.3.5.2l1.4.2q.8 0 2 .4.5 0 .6-.2c-.2-.8-1.9 0-2-3.4v-6l.1-.3.3.3 7.9 10.6.4.3q.3 0 .2-.5l.1-10c.2-1.9 1.3-1.3 1.4-1.8l-.3-.3-1.8-.2-1.8-.4q-.4 0-.3.3c.2.5 1.8.6 2 2.2v6q0 .6-.2.6l-.5-.5-6.6-9c-.3-.4 0-.5-.6-.6l-1.7-.2-1-.2q-.2 0-.2.2c.1.9 1.6 0 1.8 3.5zm16-5.6c0-1.7 1-.9 1.2-1.5q0-.2-.6-.3l-2.1-.3-2-.4q-.2-.1-.5.2c.2.6 1.6.4 1.8 2v8.6c-.1 1.7-1 1-1.2 1.7l.2.2 1.8.3 2.5.4q.6.1.6-.1c-.2-.6-1.7-.1-1.9-2.3zm6.8 9.4c-.1 2-1.6 1-1.8 1.7q0 .5.6.4l2.3.3 2.3.4c.5 0 .8.2.8-.2-.2-.5-1.9-.4-2.1-2.5l-.1-8.1c0-1 .1-1 .8-.9l1.4.2c1.9.4 1.5 2 2 2.2.5 0 .3-.6.3-.8l-.2-1.7q0-.3-.3-.5l-5-.6-5-.9q-.4 0-.4.4l-.2 2.4q-.1.4.2.6c.7-.1.3-2 2.1-2l1.4.2q.9-.1.9 1zm9.7-2-.6-.1q0-.4.2-.7l1-3 .1-.3.2.2 1.6 3.3.2.7q0 .3-.5.1zm2.8 1.3c.4 0 .5.2 1.2 1.6l.4 1.3c0 1-1 .8-1 1.3q0 .3.4.3h1.8l2.2.3q.6 0 .5-.3c-.1-.5-.7 0-1.5-1.2l-5.3-11.4-.4-.7q-.3 0-.4.6l-3.6 10.6c-.4 1-1 .9-1.1 1.3q0 .3.5.2h1.4l1.6.2c.4 0 .8.2.8-.2-.2-.4-1.6-.3-1.9-1.6l.2-1.4c.4-1.2.6-1.2 1-1.2zm12.8-5.5c-.2-1.3-.2-1.3 1.8-1.2 3.1.3 2.3 2 3 2.2q.3-.3.1-.9l-.3-1.8q0-.2-.3-.3h-3.8l-4.3-.2q-.4 0-.4.3c.3.6 1.7.2 2.1 1.8l1.2 8.5c.1 2.2-1 1.2-1 2q0 .2.3.2h2.1l2 .1q.7.1.7-.2c-.2-.5-1.7-.2-2.1-2.1l-.4-2.7q-.4-1.4.5-1.3h1.2c1.7.3 1.6 1.8 2 2 .4 0 .3-.6.2-.9l-.5-3.2q-.2-.6-.4-.4c-.3.1-.2 1.4-1.6 1.6h-1q-.9.1-.8-1zm6 5q1.4 5.7 6.6 6c5.2-.6 5.3-4.4 4.9-7.2q-1.6-6-6.7-6-5.8.8-4.8 7.2m1.8-1.1c-.4-2.8-.2-4.9 2.6-5.3 2.3.1 4.2 1.8 5.2 6 .5 3.2.1 5.2-2.7 5.6-3-.3-4.4-3.4-5-6.3m12.7-4.3c-.2-1.1.2-1.1.9-1.2q2.5 0 3.2 2.9c.3 1.1.4 2-2 2.3q-.9.1-1.2-.4zm0 8.5c.4 2.3-.7 1.8-.7 2.4q.1.4.6.2l2.4-.3h1.4q.6 0 .4-.3c-.3-.6-1.4.2-2-1.7l-.7-3.1c-.2-.7-.3-.8.6-.9s1 .1 1.6.9l2 2.7c.9 1 1.6 2 2.9 2 .7-.1 1.5-.5 1.4-1.1q0-.3-.3-.3l-.4.2-.7-.2-3.7-4.8.8-.9q.6-.6.4-2.3c-.3-1-1-3-4.7-3l-3.2.3-1.9.1q-.3 0-.3.3c.3.6 1.6 0 2.3 1.9zm13.3-1c.3 2.2-1.3 1.5-1.3 2.2q.1.5.6.3l2.3-.3q1.4 0 2.2-.2.8.1.7-.4c-.3-.4-1.8.1-2.6-2l-2-8.1q-.5-1.2.5-1l1.4-.2c1.8 0 1.8 1.6 2.4 1.7.4-.1.1-.7 0-1l-.6-1.6q0-.3-.4-.4l-4.9.6-4.9.5q-.2 0-.1.4l.3 2.4q-.1.5.4.7c.6-.4-.3-2.2 1.5-2.6l1.3-.2c.7 0 .8 0 1 .9zm8.4-9.7c-.3-1.8.8-1.2.8-1.9q0-.3-.6-.2l-2 .4-1.9.1q-.4-.1-.5.4c.4.5 1.7 0 2.3 1.5l2.4 8.6c.3 1.7-.7 1.4-.7 2q0 .2.3.2l1.7-.3 2.5-.2q.4 0 .4-.4c-.3-.4-1.5.4-2.3-1.7zm3.6 4.5q2.1 5.5 7.2 5c5-1.4 4.5-5.2 3.7-8q-2.3-5.7-7.4-5-5.5 1.6-3.5 8m1.6-1.4c-.9-2.8-.9-5 1.7-5.8 2.2-.2 4.4 1.2 6 5.2.8 3.2.8 5.3-1.9 6.1-3 .2-4.8-2.7-5.8-5.5m11.7-6.5c-.4-1.1 0-1.2.6-1.4q2.5-.3 3.6 2.4c.4 1.2.7 2-1.7 2.7q-.8.3-1.2-.2zm1.2 8.6c.7 2.2-.5 1.9-.4 2.5q.3.3.6.1l2.3-.6 1.4-.3q.5-.1.4-.4c-.4-.5-1.4.4-2.2-1.4l-1.2-3c-.2-.6-.4-.7.4-1 .8-.1 1.1 0 1.8.6l2.4 2.5q1.2 1.7 3 1.6c.6-.3 1.3-.8 1.2-1.4q0-.2-.3-.2l-.4.2q-.3.1-.7-.1l-4.3-4.2q0-.3.7-1 .5-.8 0-2.4c-.4-1-1.5-3-5-2.4l-3 .9-1.8.3q-.3.1-.3.4c.4.5 1.5-.3 2.5 1.5z"/><path fill="#d52b1e" d="m414 390.6 81 11.9v78.7l-81-12z"/><path fill="#fff" d="M452 458s-.1 2.7-.9 4.9c-.9 2.5-.9 2.5-1.7 3.6a11 11 0 0 1-3.8 3.2q-2.9 1.4-5.8.8c-5.5-1.6-7.8-7-9.2-12.1-1.6-5.4-4.6-8-7.3-7q-2 1.6-.3 4.5c1.4 2 4 3.2 4 3.3l-2.9 3.2c-.3-.1-5.6-1.7-7.4-8.2-.3-2.7.7-6.3 4.8-7.5 5.4-.6 8.4 3 10.2 6.4 2.2 5 3.1 11.9 9.3 12.1 3.4-.6 4.7-4.3 4.9-6.8l2.4-2.2 3.6 1.7zm5 .7s.1 2.8.9 5.2c.9 2.8.9 2.7 1.7 4.1q1.8 2.9 3.8 4.3 2.9 2.3 5.8 2.6c5.5 0 7.8-4.8 9.2-9.5 1.6-4.8 4.6-6.6 7.3-4.7q2 2.2.3 4.6a8 8 0 0 1-4 2l2.9 4c.4 0 5.6.2 7.4-5.9.3-2.6-.7-6.6-4.8-9-5.5-2.2-8.3.5-10.2 3.5-2.2 4.3-3 11-9.3 9.3-3.3-1.6-4.7-5.8-4.9-8.2l-2.4-3z"/><path fill="#fedf00" d="m461.7 426 10.6-9.6c.1-.1 1.5-1 1.6-3h-2.2l-.5-1.2V411l2.9-.1v-1.3l.4-1.2-3.3-.3.4-1.3.4-1h2l1.8.2c2.1-3 8.6-4.5 14.2 1.4 3.6 4.8 3 10.7-2 12.3-2.8.5-4.7-.3-6.7-2.1l2-3.4c2.9 1.8 4.6.5 4.7-1.7a5.5 5.5 0 0 0-4.3-5q-3.3-.6-4.8 2.3c-.6 1-.4 2-.5 3.2-.2 1.4-.2 2.2-.6 3.6q-.4 1.5-2.3 3.1l-10.9 9.8-42.2 38.4-3.2-3.3z"/><path fill="#fff" d="M430.6 425.3s2.8 13.1 11.7 33.8c4.6-1 7.3-1.6 12.2-1 4.9.9 7.5 2 12.2 4.6 9-18 11.6-30.3 11.6-30.3l-23.8-33.6z"/><path fill="#fedf00" d="m456.8 409.3 16.6 23.3s-2.3 9.7-9 24c-2.6-1-4.8-1.9-7.6-2.5zm-4.6-.7L435.6 427s2.3 10.3 9 26.6q3.6-.4 7.5-.2zm51.3-4.8 81 12v78.7l-81-12z"/><path fill="#d52b1e" d="m514.9 405.6 12 1.8v78.8l-12-1.9zm23 3.5L550 411v78.8l-12-1.8zm23.2 3.4 12 1.7V493l-12-1.7z"/><path fill="#fedf00" d="M414.4 537.6c.2 1.5.8 4 2 6.6 1.5 2.5 1 2.3 4.3 6.4a32 32 0 0 0 12.9 8.5 58 58 0 0 0 16.3 4q6.2.4 10 .4a112 112 0 0 1 17 1.6 65 65 0 0 1 18 6.8v-82.2l-80.9-12V534z"/><path fill="#d52b1e" d="m423.8 553.3 3.7 2.7 5.2 2.6v-78.3l-9-1.3z"/><path fill="#d52b1e" d="M423.5 553.4v-74.7l9.5 1.4v78.8l-5.6-2.7zm.5-.2 3.7 2.6 4.8 2.4v-77.7l-8.5-1.2zm44.7 10.3v-77.9l-9-1.3v79l9 .5z"/><path fill="#d52b1e" d="M469 563.5v.5h-.3l-9-.4h-.3V484l9.5 1.4zm-.6 0v-77.7l-8.4-1.3v78.6zm18.2-75.1-9-1.4v78.1q4.5 1.2 9 3z"/><path fill="#d52b1e" d="M486.9 488.7v79.8l-.3-.1a76 76 0 0 0-9-3h-.2v-78.7l9 1.4v-.6l.7 1.2zm-.5-.1-8.5-1.3v77.6q4.5 1.2 8.5 2.9zm-35.7-5.7v80s-6-.6-9-1.3v-80z"/><path fill="#d52b1e" d="M451 563.2h-.2q-4.5-.3-9.1-1.4h-.3v-80.5l9.6 1.4zm-.5-80-8.5-1.3v79.5q4.3 1 8.5 1.3z"/><path fill="#fedf00" d="M584.1 562.8a18 18 0 0 1-2.1 6c-1.4 2.1-1 2-4.2 5.2a22 22 0 0 1-12.9 5 52 52 0 0 1-16.3-1q-6.2-1.2-10-2.5a126 126 0 0 0-17-3.5 57 57 0 0 0-18.1 1.2V491l81 12v56.2z"/><path fill="#d52b1e" d="m524.2 500.8-.6.1-.7.7-1.3.6-.5.4c-.3.3-.1.5-.3.9l-.6.8-1 .8-1.2.8-.3.1h-.6q-.4.1-.7.6l.2.6.8 1.5.5.8 1.3.3 2 .8 1.5 1 1.2.6 1 .2h.7v.4l2.1 1.3-.2.3v.8q1 3 1.4 3.3.8.5 1.1 1.6l-.3.2q-.9.6-1.6 1.5c-.8 1-1.2 1-.3 2.6l1.5 2.6a10 10 0 0 1 1 4l1 .4.6-.5.7-1v-1l-.3-.7.7-.5c.3-.4-.2-.7-.6-1.1-.6-.8-1.3-1-1.6-2q-.1-.3.4-.7c.8-.7 1-.8 2-1.4l.9.2 1.3.6q.9.3 1.2.2h.4l.1.7c0 1 0 2.8.2 3.3l.3.6.2.7v1.8l-.2 1.6q-.1.7-.5 1-.3.3-1 .5v1l1.1.6 1.3.5.6-.2q0-.4.2-.6.1-.3.4-.4.6.2 1 0v-.7q0-.8-.3-1.6c-.2-1.1-.2-1.7-.2-2.7q0-.8.2-1.5l.7-2 .3-2.3a27 27 0 0 0 10 .9q1.2 1.1 2.6 2v.9l.2.7q0 .2.3.3h.7q.3-.3.2-.7v-.7l.9.2h.9v1.2q.2.4.5.4h.5q.4-.2.3-.7v-.8l1-.2-.3 1.6-.7 1.3-1 1.3-.6.6-.6.7-.9 1c-.7.3-1 0-2 .4l-.3 1 1.4.7 1.3.4.4-.1q0-.4.2-.7.4-.4.8-.3h1q.4-.6.6-1.4c1-1.5 1.6-2.2 3-3.3.6-.5 1.1-.6 1.6-1.2q.4-.2.6-.7 0-.3-.3-.7l-.1-1c1.4 1 1 .7 1.2 1.5q.2.9 0 1.6l.6 2q0 1-.3 2.1l-.5 1.9q-.4.8-1.1 1.3l-.6.3-.1 1 1 .5 1.7.6.3-.2c.2-.7 0-1.5.4-1.6q.6 0 .8-.2v-.6l.7-4.2.4-1.8.4-1.6c.6-1.9-.1-2.2-1-3.6q-.6-.9-.7-1.5l.1-2.7V519l.3-.2c1.2-.4 1.6-.5 2.4-2q.3-.7.3-1.4l-.1-1q0-.5-.3-1l-.6-.8c-.8-1-1.7-1.3-2.6-1.8-1.5-.7-2.5-.8-4.1-1.1-1.7-.4-2.6-.5-4.2-.7h-5c-2 0-3 0-4.9-.3l-5.7-1.2c-2.4-.1-2.4.3-6 .1-2-.1-3.8-.4-3.8-.4l-2.2-1c.9-.2 1-.3 1.5-.7l.5-1 .8-.8-1-.6-.8-.1a3 3 0 0 0-2 .6l-2.2-1.5c-1.1-.6-1.6-1-3-1.3m2 11.7"/><path fill="#fedf00" d="m567.8 519.8-.7.1q-.9.3-2.4.2h-.3q-1.4-.1-3.5-1-2-.7-3.4-.9-.6 0-1.6.5a6 6 0 0 1-3.5.5h-.8l.4-.8-2.8-.5-1-.3 1.1-.8-.4-.2-1.2-.9-.9-.7h1.1l1.6-.2 1.5-.3a7 7 0 0 1 2.5-.4q2 .2 7.6 1.8 3.5 1 5.2.6.6-.2.8-1.2 0-.7-.7-1.5l-.8-.3q-.5 0-.5-.6l.1-.3h.4q.9 0 1.4.6 1.1 1.1 1 2.3-.1 1.5-1.3 2-2 .4-5.8-.6-5.3-1.6-7.4-1.8-1 0-2 .3l-1.7.4h-.4q.4.3 1 .4l1 .3-1 .8h3.4l-.6 1h.7q.6 0 1.5-.5 1.1-.5 2-.5 1.5 0 3.7 1l3.2.8h.3l2.1-.1.8-.1h.4l.2.4q.1.4-.3.5"/><path fill="#fcd900" d="M524.4 504.4q-.6-.3-1.3 0-.6.4-.9 1 .6.4 1.1.4t.8-.4q.4-.4.4-1z"/><path fill="#fedf00" d="m524.3 504 .5.2v.2q0 .7-.5 1.2t-1 .5l-.8-.3-.3-.2-.4-.1.2-.3.3-.3q.3-.6.7-.7.6-.3 1.2-.1m0 .5h-1l-.5.6v.1l.6.3q.3 0 .6-.4zm11.7 14 .4.8.5 1.6.2 1.2.2 1.2v1.2q0 .4-.6.4l-.3-.2-.1-.4v-1.3l-.2-1v-1l-1-2.2v-.4l.2-.3q.4 0 .7.3m7.9.5-.2.8-.1.5-1.6 4-.3-.2-.1-.4v-.6l1-3.2.1-.5.3-.8q0-.4.6-.2l.3.3zm-12.4-1q.6.3 1 2 .4 2 .9 2.2l.2.4v.3q-.3.4-.7 0-.9-.6-1.3-2.8l-.3-1.2q-.6-.2-.4-.7 0-.4.6-.2m27.5 9.5.4-.2q1.5-.5 2.5-1.2l.7.7q-1.2 1-2.7 1.4l-.4.2zm-7.5-2.8q2-.3 4.6-1l3-.7.3.1.2.4q0 .5-.4.5-.7 0-2.7.6-2.9.8-4.7 1h-.2q-.4 0-.4-.4t.3-.5"/><path fill="#fedf00" d="M555 521h.8q1.2 0 2.3 1.1l.7.6q.9.6 2 1.8 1.2 1.4 2.2 2l.3.2.9.6q.4.3.2.6-.3.4-.7.2l-.8-.6-.3-.2q-1.2-.7-2.5-2.2-1-1.1-1.8-1.6l-.8-.8q-.8-.7-1.5-.7h-1q-.4-.1-.4-.6t.5-.4"/><path fill="#fcd900" d="m517.4 507 .7.2.8-.1q.4 0 .7.2l.3.4v.4q0 .4-.5.4t-.6-.4v-.4h-.8z"/><path fill="#fedf00" d="m517.5 506.8.6.1h.8q.6 0 .8.2l.4.5q.2.4.1.6 0 .6-.8.5a1 1 0 0 1-.8-.5v-.2l-.6-.1-.8-.8-.2-.5zm.7.6h1l-.1.4v.2q0 .2.3.2l.3-.1v-.3l-.3-.3-.4-.2h-.4z"/><path fill="#0065bd" d="m524.7 517.4-2-1 1-.5.5-1.2q.1-.6.7-1.1.5-.3 1 0 .7.3 1 .8 0 .8-.3 1.4t-.2 1.4l.3.9zm-1 .8q0-.6.7-.5.5 0 .6.6t-.6.6a1 1 0 0 1-.6-.7M522 502l-.1-.2q-.4-.4-.6-1.1-.3-.6-.3-1.2v-1.9l-.2-1q-.3-.2-.3-.4l.4.1.9.5q.5.5.7 1.2l.4 1.4.2.8.6.7-.8.7zm3.6 10.7 2.2 1.4a8 8 0 0 0 3.4-3.3c.8-1.5 1-2.4 1.3-4l-1.7-.7h-.4c-.5 1.6-.7 2.4-1.6 3.8q-1.1 1.6-2.6 2.5zm4.8 18.2q.4-.6 1-1.1l1.2-1 .5.2a8 8 0 0 1-.5 2.6l-.4.9-.5.4q-1-1.1-1.3-2m32.5 6.6 1.4.7 1.5 1.1v.5l-2.7-.2-1-.2-.6-.4q.6-1.2 1.4-1.5m-9.6-3.4 1.5.7 1.4 1.2v.4l-2.7-.1-1-.3-.6-.4q.6-1 1.4-1.5m-17-.5 1.4.7 1.4 1.2v.4l-2.6-.1q-.7 0-1-.3l-.7-.4c.6-.6.9-1.4 1.4-1.5m-8.8-30q-1-.6-.6-1.6l.5-.3q.3-.2.1-.8l-.2-.9v-1q-.1-.8.2-1.5l.9-.4v.7q0 .7.2 1.2l.7 1.4q.4.6.4 1.4 0 .6-.2 1a2 2 0 0 1-1.4 1z"/><path fill="#d52b1e" d="m524.2 535.9-.6.2-.7.6-1.3.7q-.3 0-.5.3c-.3.3-.1.6-.3 1l-.6.7-1 .8-1.2.8-.3.1h-.6q-.4.2-.7.6l.2.6.8 1.5.5.8 1.3.3 2 .8 1.5 1q.5.4 1.2.6l1 .3h.7v.4l2.1 1.2-.2.3v.8q1 3 1.4 3.3.8.7 1.1 1.6l-.3.2-1.6 1.5c-.8 1-1.2 1-.3 2.7.5 1 .8 1.1 1.5 2.5a10 10 0 0 1 1 4l1 .5.6-.6.7-1v-.9l-.3-.8.7-.5c.3-.4-.2-.7-.6-1.1-.6-.7-1.3-1-1.6-2q-.1-.3.4-.7l2-1.4q.3.3.9.3l1.3.5q.9.3 1.2.2h.4l.1.7c0 1 0 2.8.2 3.4l.3.5.2.7v1.8l-.2 1.7-.5 1-1 .4v1l1.1.6 1.3.5.6-.2.2-.6.4-.4q.6.2 1 0v-.7q0-.8-.3-1.6c-.2-1.1-.2-1.7-.2-2.7l.2-1.5c.2-.8.5-1.1.7-2l.3-2.3c3.2 1 5.7 1.2 9.2 1h.8q1.2 1.1 2.6 1.9v1l.2.6q0 .3.3.3h.7q.3-.3.2-.7v-.7l.9.2.9.1v1.1q.2.4.5.5h.5q.4-.3.3-.8v-.8l1-.2v.8l-.3.9-.7 1.2-1 1.3-.6.6-.6.8q-.4.5-.9.8c-.7.4-1 0-2 .6l-.3 1 1.4.6 1.3.5.4-.2q0-.4.2-.7.4-.3.8-.3h1q.4-.5.6-1.4c1-1.5 1.6-2.2 3-3.3.6-.5 1.1-.6 1.6-1.1q.4-.3.6-.8 0-.3-.3-.7l-.1-1c1.4 1 1 .8 1.2 1.5s0 1 0 1.7q.4.9.6 1.9 0 1-.3 2.1l-.5 1.9q-.4.9-1.1 1.3l-.6.3-.1 1 1 .5 1.7.7.3-.3c.2-.7 0-1.5.4-1.6q.6.1.8-.2v-.6l.7-4.2.4-1.8.4-1.5c.6-2-.1-2.3-1-3.7q-.6-.9-.7-1.5l.1-2.6V554l.3-.1c1.2-.5 1.6-.6 2.4-2l.3-1.4-.1-1q0-.6-.3-1l-.6-.9c-.8-1-1.7-1.3-2.6-1.8-1.5-.6-2.5-.7-4.1-1-1.7-.4-2.6-.6-4.2-.8h-5c-2 0-3 0-4.9-.3-2.2-.3-4.3-1-5.7-1.2-2.4 0-2.4.3-6 .1-2-.1-3.8-.4-3.8-.4l-2.2-1c.9-.1 1-.3 1.5-.7l.5-1 .8-.8q-.4-.4-1-.5l-.8-.2q-.7 0-1.2.2l-.9.4s-1.2-1-2.1-1.5a11 11 0 0 0-3-1.3m2 11.7"/><path fill="#fedf00" d="M567.8 555h-.7l-2.4.2h-.3q-1.4-.1-3.5-1-2-.7-3.4-.8-.6-.1-1.6.4l-1.7.6h-2.6l.4-1-2.8-.4-1-.3 1.1-.8-.4-.2q-.7-.3-1.2-.8l-.9-.8h1.1l1.6-.1 1.5-.4q1.3-.4 2.5-.3 2 0 7.6 1.8 3.5 1 5.2.5.6-.2.8-1.2 0-.7-.7-1.4l-.8-.4q-.5 0-.5-.5l.1-.4h.4q.9.1 1.4.6 1.1 1.2 1 2.3-.1 1.5-1.3 2-2 .4-5.8-.6a43 43 0 0 0-7.4-1.8q-1 0-2 .4l-1.7.3h-.4l1 .5 1 .3-1 .7h.4l2 .1h1l-.6 1 .7-.1q.6 0 1.5-.5 1.1-.6 2-.5 1.5.1 3.7 1 2 .8 3.2.8h2.4l.8-.2h.4l.2.4q.1.5-.3.5"/><path fill="#fcd900" d="M524.4 539.5q-.6-.2-1.3 0-.6.4-.9 1 .6.4 1.1.4t.8-.3q.4-.5.4-1z"/><path fill="#fedf00" d="m524.3 539.2.5.2v.2q0 .7-.5 1.2l-1 .4-.8-.3-.3-.1-.4-.2.2-.3.3-.3.7-.7q.6-.2 1.2-.1m0 .5h-1l-.5.6v.2l.6.2.6-.3q.3-.3.3-.7m11.7 14 .4.8.5 1.6.2 1.3.2 1.1v1.2q0 .4-.6.4-.3 0-.3-.2l-.1-.4v-1.3l-.2-1v-1l-.6-1.4-.4-.8v-.4q0-.2.2-.2.4-.1.7.3m7.9.5-.2.8-.1.4-.4 1.3-.7 2.4q0 .5-.5.3l-.3-.2-.1-.4v-.6l1-3.2.1-.4.3-.8q0-.4.6-.3l.3.3zm-12.4-1.1q.6.3 1 2 .4 1.9.9 2.3l.2.3v.3q-.3.4-.7.1-.9-.6-1.3-3l-.3-1.1q-.6-.1-.4-.6 0-.5.6-.3m27.5 9.5.4-.2q1.5-.3 2.5-1.2l.7.7q-1.2 1-2.7 1.5l-.4.1zm-7.5-2.8q2-.2 4.6-1l3-.7q.2 0 .3.2l.2.3q0 .5-.4.5-.7 0-2.7.6-2.9 1-4.7 1h-.2q-.4 0-.4-.4t.3-.5"/><path fill="#fedf00" d="m555 556 .8.1q1.2 0 2.3 1.1l.7.6q.9.6 2 1.9t2.2 2l.3.2.9.5q.4.3.2.7t-.7 0l-.8-.4-.3-.2q-1.2-.8-2.5-2.3l-1.8-1.6-.8-.7q-.8-.8-1.5-.8h-1q-.4 0-.4-.6 0-.4.5-.4"/><path fill="#fcd900" d="m517.4 542.2.7.1h.8l.7.1.3.4v.5q0 .3-.5.3t-.6-.4v-.3l-.8-.1z"/><path fill="#fedf00" d="M517.5 542h1.4q.6 0 .8.3.3 0 .4.4t.1.7q0 .6-.8.4a1 1 0 0 1-.8-.5v-.2l-.6-.1-.8-.7-.2-.5zm.7.6h1l-.1.4v.2l.3.1.3-.1v-.3l-.3-.3-.4-.1z"/><path fill="#0065bd" d="m524.7 552.6-2-1.1 1-.5q.3-.4.5-1.1.1-.7.7-1.2.5-.3 1 0 .7.3 1 .9 0 .6-.3 1.3t-.2 1.4q0 .4.3 1zm-1 .8q0-.5.7-.5.5 0 .6.7 0 .5-.6.5a1 1 0 0 1-.6-.7m-1.8-16.1-.1-.1q-.4-.5-.6-1.2-.3-.5-.3-1.1v-2l-.2-.9-.3-.4h.4q.5.1.9.6t.7 1l.4 1.5.2.8.6.7-.8.7zm3.6 10.8 2.2 1.3a8 8 0 0 0 3.4-3.3c.8-1.5 1-2.3 1.3-3.9l-1.7-.8h-.4c-.5 1.6-.7 2.5-1.6 3.8q-1.1 1.6-2.6 2.5zm4.8 18 1-1 1.2-.9.5.1a8 8 0 0 1-.5 2.6l-.4.9-.5.4q-1-1.1-1.3-2m32.5 6.6 1.4.7 1.5 1.1v.5a8 8 0 0 1-2.7-.1l-1-.3-.6-.4c.5-.6.8-1.4 1.4-1.5m-9.6-3.4 1.5.8 1.4 1v.6a7 7 0 0 1-2.7-.2q-.5 0-1-.3-.4 0-.6-.3.6-1.2 1.4-1.6m-17-.5 1.4.8 1.4 1v.6l-2.6-.2q-.7 0-1-.3-.4 0-.7-.4l1.4-1.5m-8.8-30q-1-.6-.6-1.5l.5-.3q.2-.4.1-.8l-.2-1v-1q-.1-.8.2-1.5l.9-.4v.8l.2 1.1.7 1.4q.4.8.4 1.4t-.2 1a2 2 0 0 1-1.4 1z"/><path fill="#703d29" d="m413.7 390.1 81.6 12v79.6l-81.6-12zm.8.9v78l80 11.8v-78zm88.6 12.4 81.7 12V495l-81.6-12.1zm.8.9v78L584 494v-78zm-90 133.3-.2-3.7v-56.6l81.6 12v83.2l-.5-.3a88 88 0 0 0-17.9-6.7 79 79 0 0 0-16.9-1.6h-1.2q-5.2 0-9-.5-9-1-16.3-4a31 31 0 0 1-13-8.6 34 34 0 0 1-4.3-6.4q-1.6-3.1-2.2-6.8m3 6.5.8 1.6q1 1.8 3.3 4.7a31 31 0 0 0 12.7 8.4 65 65 0 0 0 25 4.3h1.2a127 127 0 0 1 17 1.6 63 63 0 0 1 17.6 6.6V490l-80-11.8V534l.2 3.6q.7 3.5 2.1 6.5M584.5 563q-.6 3.5-2.2 6.2l-.9 1.3q-.9 1.5-3.3 4a21 21 0 0 1-6.3 3.4q-2.6 1-6.8 1.5-7.4.7-16.4-.8-3.6-.8-9-2.3l-1.1-.3a143 143 0 0 0-17-3.5 56 56 0 0 0-17.9 1.2l-.5.1v-83.1l81.7 12v56.6q0 2.7-.3 3.6zm-.8-.1v-.1l.3-3.6v-55.8l-80-11.8-.1 81.2a71 71 0 0 1 17.6-1.1q2.7.3 6.1 1 5 1 11 2.6l1.2.3q5.2 1.5 8.8 2.2 9 1.5 16.2.8 4.2-.5 6.7-1.4 4-1.6 6-3.4a22 22 0 0 0 4.2-5.1q1.5-2.5 2-5.8"/><path fill="#1a1a1a" d="M8 195.3c170.8-85.3 341-54.5 513.3-28C676.5 191 833.4 211.8 992 132.7v672c-170.8 85.3-341 54.5-513.3 28C323.5 809 166.6 788.1 8 867.2zm31.3 19.3v604.5c306.5-128.2 611.1 96 921.5-33.7V180.9C654.2 309 349.5 84.9 39.3 214.6" opacity=".2"/></svg>