<svg xmlns="http://www.w3.org/2000/svg" viewBox="0 0 1000 1000"><path fill="#fe0000" d="M8 195.3c170.8-85.3 341-54.5 513.3-28C676.5 191 833.4 211.8 992 132.7v672c-170.8 85.3-341 54.5-513.3 28C323.5 809 166.6 788.1 8 867.2z"/><path d="M8 195.3c108.3-54 216.4-61.8 328-52.7v672c-108-8.8-216.7-2.9-328 52.7z"/><path fill="#028002" d="M664 185.4c108 8.8 216.7 2.9 328-52.6v672c-108.3 54-216.4 61.7-328 52.6z"/><path fill="#fff" d="M539.2 763.3c-6.6-2.5-9.2-5.9-9.6-12.4-.1-5 1.2-8 5-11q1.4-1.2 1-1.2a115 115 0 0 1-71.9-11q-.3-.1 1.6 2 2 2.7 3.2 5c1.1 2.2 1.1 2.4 1.2 6.2 0 3.3-.2 4-.8 5.4-1.5 3-3.7 4.3-8 4.9-5.2.5-15-2.7-37.2-12-19.5-8.1-20.2-8.3-27.8-9q-5.7-.5-14.2-.4c-14.9.3-21 0-29.6-2.1q-20.8-5.2-27.6-19.1l-1-2.4q.4 0 2.7.7a74 74 0 0 0 28 2.8c1.1-.3 1.2-.2-2.3-1.7-5-2.1-9.7-5.8-13.2-10.2a55 55 0 0 1-7.5-18.4l4 2.3a64 64 0 0 0 45.4 9.5 53 53 0 0 1 23.8 2.3l2.6 1 1.6-.8a65 65 0 0 0 6.6-4.4 72 72 0 0 0-16.1.4q-.2-.2 3.3-1.8c.9-.4.5-.4-4.5-.5-3.7 0-5.2.1-8 .4q-1.8 0 1.4-1.2l1.7-.7a96 96 0 0 0-12.6.5q0-.3 1.3-1.1l1.4-1a159 159 0 0 0-12.9.2l2.4-1.3 2.6-1.2-3.9-.5a45 45 0 0 0-7.3-.3l2.3-1.4c2.4-1.4 4.4-3.1 4.4-3.7h-2.2c-2.9.2-6.4-.5-9.5-1.9l-5.3-2.1-2.8-1 2-.3c1-.2 3.6-.8 5.6-1.6l5.2-1.7c2.1-.5 5-.3 7.2.6 1.7.7 1.8.6.9-1.3-2.3-4.2-4.6-5.5-10-5.5q-2.7 0-3.4.3-.3.4-.7 1.9-1.1 3.3-2.8 4.4a3 3 0 0 1-3.2-.8q-.8-1.2-1.7.4c-.8 1.1-2.2 2-3.3 2q-1.8-.4-3-2.4-.5-1.4-1-1.1-2.4.6-4-.3c-1-.6-1.2-.6-4.9 0a42 42 0 0 1-14.6 0 33 33 0 0 1-15.4-10.5l-.6-.8 1.9.6c2.3.5 7.2.9 10 .7 3.2-.4 17.2-2.8 17.3-2.8 0 0-3-.4-6.8-.6-4.9-.3-7.7-.6-10.2-1.1a40 40 0 0 1-20.8-11.4 78 78 0 0 1-6.4-7.8l2.4 1.1c3.7 2 7.5 2.7 17.4 3.6l12.6 1.2-3.2-2.8a83 83 0 0 1-14-15.3 20 20 0 0 1-3.1-7q0-.8-.6-2c-1-2-6.3-6.7-10.3-9q-2.6-1.4-2.9-1.7c.2-.3 3.5-1.7 5.6-2.1 1.5-.2 2.5-.2 4.4.2q2.3.4 2.6.3l-1.2-1.1-2-2-.5-.9 1.8.5q4.8 1.5.5-.8a16 16 0 0 1-6.1-5.7q-.9-1.3 0-.8c1 .4 3.8.7 4 .6q0-.4-1.3-1c-.7-.5-2.1-1.6-3-2.6a7 7 0 0 0-4-2.5c-1.2-.3-2.8-1-3.6-1.4a31 31 0 0 1-7-7.4 390 390 0 0 0 8.3 20c-.5 0-3.8-2.4-6.6-5-10.9-10.9-18.3-25.8-17.2-34.6.8-4 2.8-6.5 7-8q1.4-.7 1.5-.9 0-.3-1.2-1l-4.4-4.4a76 76 0 0 0-8.4-8.9 24 24 0 0 1 12.9 1q.5 0-1.2-1.5l-5.3-5.9-5.7-6.2-2.3-2.3 2.6-.4q3.7-.5 7.8.7 2.9.8.8-.6-4.4-3.5-6.4-10.2c-.8-3.3-2.2-11.4-2.6-15.6-.5-6 .6-11.4 2.7-14.1 1.1-1.4 1.1-1.5.3-3.3-1.5-3-1.5-3.1.3-1.5q2.4 2.2 2.6 1.4l-1.6-2.3a40 40 0 0 1-4.1-7.3l-.3-.8 1 .8c1.5.9 3.8 1.7 4 1.4q0-.4-.7-1a43 43 0 0 1-5.3-9c-.2-.8-.2-.8 1.9.2 2.4 1 7 2.1 7.6 2q0-.4-.8-1.5c-2.1-2.6-3-5.1-3.5-10.4a17 17 0 0 0-.8-3.9l-.6-1.6 1.7.8 1.7.8-.8-1.8a29 29 0 0 1-2.5-10l-.2-2.8 1.2 2.4q1.1 2.4 3.1 4.3l2.2 1.7-1-3a39 39 0 0 1-2.2-23.6l.4-1.3.6 1.9q.6 1.8 1.6 3.5c1.2 1.9 3.6 4.7 3.5 3.8-.8-2.7-1.4-6.4-1.2-6.7q.3 0 .4.4c.5.7 2.5 2.1 3.7 2.5l1 .3-1.5-1.7a17 17 0 0 1-3.6-6q-.7-1.8-1.2-2.6l-4.7-3.9-4.3-3.3 5-.2 5.3-.2q.2-.2-.3-1.2c-.4-.6-1-2-1.2-3.3l-1.3-3.8q-.5-1.4-.4-1.8.4.1 3.1 3l3 3.2-.8-2c-.5-1.2-1-3.3-1.4-4.7q-.5-2.7-2-5l-1.2-2.3 1.3.8 1.3.8a151 151 0 0 0-1.3-14c.5-.2 3.6.7 4.8 1.4q1 .9 2.1 2.4l1.1 1.7v-6.3l1.3 2.3c1.8 3.4 2 3.4 2 .7 0-1.3.2-3.3.5-4.5q.6-2 .4-5.2c0-2.7 0-3 .4-2.7q.4.5 1.3 2.3l.8 1.8.5-3.3c.2-1.9.5-5.1.5-7.3q-.2-6.6 1.7-.9.8 2.2 1.2 2.6.2-.1.2-2.3 0-2.6.9-5.4l1-5 .3-2 .6 2.5.7 2.5.2-1.9 1-4.3c.7-1.9.9-3 1-5.2 0-2.5 0-2.8.4-2.5l.9 1.7c.6 2 .8 2 1.6-.6.6-1.9.8-3.2.8-5.6 0-3 0-3.1.5-2.3.6 1 1.2 2.7 1.3 3.8q.1 1.7 1.1-.8c.4-1 1.3-3 2.2-4.5a45 45 0 0 0 4.7-10.5l.7-2.8 1.6 2.4c1.5 2.6 2.2 4.1 2.6 6.5l.3 1.3.8-2.4c.5-1.3 2-5 3.4-8a73 73 0 0 0 3.6-8.8 31 31 0 0 1 3 5c.7 2.1 1.5 6.2 1.6 8.3q0 1.3.3 1.5.3 0 .3-.3l2-4.5a45 45 0 0 0 4.3-12.4c1 .1 3.3 5 4.3 9.2q.4 1.9.6 2.1s1-1.6 2-3.7a72 72 0 0 1 21.6-24.8c2.6-2 6-4.7 7.3-6l2.6-2.2-.2 4.2a39 39 0 0 1-5.8 20q.3.1 2.5-.7c4.9-1.7 6.6-1.9 14.8-1 4.1.5 7.5 1.1 8 1.3.6.4.3.6-4.6 2.7-9.2 4-14.6 7.5-19.6 12.3-2.5 2.5-5 5.7-5.5 6.9 0 .4.4.7 2.1 1.4q3.5 1.6 1.8 1.5l-2.7.8c-1.8.8-2.9 1.6-6.8 5.2a31 31 0 0 1-6.5 5.2q-2.3 1-1 .8 1.2 0 1.1.3t-.2.3c-.2 0-1.7 1.2-3.5 2.7l-3.7 3 1.7-.3c1.6-.3 3.4-.3 3.9 0q0 .4-.8 1c-.6.5-1.8 2-2.8 3.4l-2.8 3.6c-1 1-1 1-.3 1 1.8-.4 3.7-.3 4 0l-1 .7q-1.7 1-5.1 5.6l-1.7 2.5 2.2-.4q4.4-1 1.2 1.2c-2.4 2-6.4 7.4-5.9 8.1 1.2-.1 5-1.9 7-3.3l1.8-1.4c.3.4-.1 4.3-.9 7.3q-1.6 5.5-4.9 8.8-3.3 3.2 1.5.9l2.3-1-1.6 2.7a36 36 0 0 1-6.8 7.2l-.8.5h1.2l2.7-1q1.5-1 1.7-.8a28 28 0 0 1-4.5 6.5c-2.3 2.4-2.4 2.6 0 2q1.4-.4 1.6-.3c0 .4-3.4 5-5.5 7.1l-3.6 3q-1.4.8-1.6 1.2.2.7 3.7-1.5 8.4-5.4 2.7.2a20 20 0 0 0-4.3 5.9q-1.4 2.7-1.4 3.2a9 9 0 0 0 1.7-2.2 24 24 0 0 1 11.5-9.6q1.5-.3 1.7-.2l-.7 1.5q-1.8 3.4-3.4 11.5c-1.4 7-2.2 9.7-3.3 11.7l-1 1.6 1 2.6c.7 2.3.8 3 .8 6.8a50 50 0 0 1-6.2 21.7l-1.8 4.3c.2.6 1.6.1 3.2-1q1.5-1 1.6-.7a42 42 0 0 1-2.9 9.4q0 .6 2.4-1.3l1.7-1.5-.3 1.5c-.5 3-1.6 6.8-2.7 9l-1 2.4c.1.2 2-.6 3.2-1.5q1.3-1.2 1.2-.5l-.5 2.7a31 31 0 0 1-3.8 10.4c.8.3 3.6-2.5 5.5-5.5l.9-1.5v1.6a47 47 0 0 1-2.8 11.2l2-1.2 3.5-1.8c1.9-.6 4-.8 4.2-.5l-1.3 2.7c-1.5 3-2.8 6.6-3.5 9.5-.6 3-.4 3.7 3.2 9.6a109 109 0 0 1 10.8 22.3 23 23 0 0 1 .8 11.3q-.8 2.4.2 1.6c.7-.6.8-.4 1.2 1.8.7 4.2.7 6.2.4 8.3l-.2 2.3c.6.2 2-1.6 2.8-3.5q.5-1.5.8-1.3l.9 3.4c.5 2.3.7 4.1.8 6.6 0 2.8 0 3.3.4 3q1.1-1.1 2-4.3.4-1.9.7-1.3a57 57 0 0 1 1.6 10.4v3l.7-1.3c.3-.7.6-2 .8-3 .4-2.7.8-1.6 1 2.2q.3 3 .5 3 .3-.5.8-2.9a37 37 0 0 0-.4-12.5 32 32 0 0 1 6.2 6.6c5.4 7.5 7 14.3 5.7 23.3l-.5 3.6h1.9q3.2 0 8.3 2.2c2.7 1.4 20 12 24 15 6.4 5 8.5 9.3 7.4 15.7-.3 2-.3 2.4.2 3.9q.7 1.7.9 1.3.3-.6 2 1.8a27 27 0 0 1 4.5 8.8q.6 3 1.3.2c.3-1.2.3-1.3-1.7-4.3a35 35 0 0 1-6.1-19.7V614l2 3.1q5.3 8.1 11.9 12.5a27 27 0 0 0 6.2 3.1q0-.3-1-2.1a44 44 0 0 1-4-9.3c-.6-3.7-.2-12.5.5-13q.3 0 .9 1.2c1 2 4.3 5.5 9 9.8 5.8 5 8 7.4 10.7 11.3a63 63 0 0 1 7.4 15.7l.7-1.5q2.2-4.6 9.7-6.1c2.2-.2 6.4.3 8.9 1.2l1.6.6 1.5-1.1q4.7-3.2 11.6-2c2.4.6 3.1 1 5 2.2l2.2 1.5 2.4-.8c2-.7 2.7-.8 5-.6q7 1 11.7 5.6l1.3 1.5 1.9-.1c4.8-.2 9.8 1.5 14 4.8 2.2 1.8 4 4.6 4.6 6.5l.5 1q.3-.1.8-2c1-3 4-8.3 6-11 2.7-3.2 5.5-5.3 11-8.6 5-3 7.2-4.7 9-7l1.2-1.7.3 1c.1.6.4 3 .5 5.4a22 22 0 0 1-4.5 15.6q-1 1.2-.8 1.6c.5.2 3.6-.4 6.4-1.4a29 29 0 0 0 12-9.8q1.1-1.6 1.5-1.8c.2.4.2 6.1-.1 8.6q-1.5 7-5.5 12.3c-2.3 2.7-2.4 3-2 4.2q.6 3 1.2-.1 1.1-3.8 4.5-7.3c1.4-1.3 1.8-1.6 2-1.3.8.7 1.4-1.6 1.3-3.5-.6-4.4-.5-6.4.1-8.4q1.6-3.4 5.7-5.9c3-1.5 23-9.2 25.7-9.8 3.7-.7 6-.7 8.3-.2l1.9.6-.4-2.1a46 46 0 0 1-.4-12.7c1-4.6 3-8.1 6.4-12 2.2-2.3 5-4.6 5.5-4.5 0 0 0 1.1-.4 2.4a25 25 0 0 0-.3 5.8 21 21 0 0 0 1.2 7.2l.4-2.8c.3-3.5.6-4.6 1-2.2.1.9.5 2.3.8 3.2l.7 1.6v-3a51 51 0 0 1 1.6-10q.3-.4 1 2c.4 1.5 1 3 1.4 3.6l.8 1v-3.3c0-3.1.8-7.2 1.5-9.4.3-.7.4-.7 1 1 .8 2 2.2 4 2.7 4l-.1-2.6c-.3-3.3.4-9.6.9-10q.3 0 1.1 1l1 1-.8-1.6c-.7-1.4-.7-2-.7-5.6s.1-4.4.9-6.6q3.4-9.6 11-21.1l3.3-5.2c.5-2.1-1.5-9.2-4-14.6q-1-2-1-2.3c.4 0 3.5 1 5.2 1.9l4.4 3.1-1-3.1a47 47 0 0 1-1.8-8.8c-.1-1.6-.1-1.5 1.9 1.8a14 14 0 0 0 4 4.6c.8.7.8.7-.5-2a46 46 0 0 1-3.1-10.6l-.3-1.7 1.4 1.5c1.4 1.4 3.1 2.5 3.3 2q0-.3-.6-1.3a52 52 0 0 1-3.3-11c0-.8 0-.8 1.6.8q2.1 2.1 2.3 1.6l-1.1-3a23 23 0 0 1-1.7-7q.3-.2 1.1.7c1.1 1 3.1 2.1 3.6 2 0-.1-.7-2.2-1.8-4.8-6.2-14.3-7.6-22.5-5.2-29.4l.8-2.2-.8-1.5c-1.2-2.2-2-4.8-3-10.7a61 61 0 0 0-4.5-15.5c.5 0 3.3 1.3 5.4 2.7a42 42 0 0 1 7.3 8.4q1.2 1.9 1.5 1.9l-1-2.8a27 27 0 0 0-4-5.9q-5-5.8 1-1c3 2.3 4.2 3 4.8 3q.2-.1-1-1a37 37 0 0 1-9.3-11.7q.5 0 2.3.8l2.2.9-2.4-2.8a29 29 0 0 1-4.9-7.3q-.3-.8 1.2.5c1.4 1 3.4 2 3.8 1.9L670 424l-3.1-3.5c-1.4-2-3.6-5.8-3.8-6.2l2.2 1.1q4.8 3 1.2-.9-4.6-5.6-5.6-14.6l-.2-2.7 2.2 2.1c3.2 2.9 6.6 5 7.1 4.3l-2.3-3.8q-2.4-3.8-4-5.1c-1.7-1.4-1.7-1.4-.8-1.5q1 0 2.6.6l1.8.6q0-.2-.7-1.2c-.5-.5-1.6-2-2.4-3.4a20 20 0 0 0-4.4-5c-.8-.7-.8-.7 1-.4l2.6.6q1.3.6-.3-1c-.6-.6-1.8-2.5-2.8-4a30 30 0 0 0-3.7-5c.2-.2 3 .2 4.5.7q.9.4-1.7-2.4l-3.5-3.4q-1.8-1.6 0-1.1 1.5.4-.8-1a31 31 0 0 1-6.6-6.4c-4.5-5.1-5.8-6.2-8.6-7.4q-1.2-.5-1.4-.8l2.3-.7q2-.5 2.3-1a81 81 0 0 0-5.9-8.3 100 100 0 0 0-22.3-18.3c-2.3-1.5-2.4-1.6-1.6-1.9.5 0 3.7.1 7.7.6a33 33 0 0 1 14.5 3.9l2.6 1.2-1.4-3.3a45 45 0 0 1-4-17.5l-.2-4.3 2.6 2.9 7.2 7.3a97 97 0 0 1 23.7 32.9q.2-.2.6-2c1-3.8 3.2-8.3 4.2-8.5q.4.2.7 2.2c.6 2.8 1.1 4.2 3.6 10.2l2.4 5.6a8 8 0 0 0 .5-2.7c.1-1.5.5-3.7.8-4.9.8-2.3 3-6 3.6-6.4q.3.1.7 1.7c.3 1 1.6 4.5 3.1 7.9 1.5 3.3 3 7 3.4 8.4l.5 2.3.6-2.4q1.1-3.6 3.4-6.8l.7-.8.6 2.7c.5 1.6 1.4 4.1 2.5 6.5l3.6 7.2q1.5 3 1.8 2.9 1-3.1 1.7-4c.4-.3.4 0 .2 2.4s0 3 .7 5.6l1 3 .7-1.7c1.2-2.6 1.4-2.4 1.4.8 0 2.2.3 3.3 1 5.7.6 1.6 1 3.2 1 3.8q.1 2 1-1.3l.6-2 .3 2c0 1.2.4 3.5.9 5.3.7 2.5.8 3.6.8 5.8q-.2 4 .5 1.9c.5-1.5 2.3-5 2.4-5.2q.2.1.1 2.5l.4 6.3.6 4.8c.1 1 .2.8 1.2-1.2q1-2 1.3-2.3.2.4.1 3.2-.1 3 .4 5.1l.6 4.3q0 2 .2 2.3.4-.2 1.6-2.4l1.3-2.5.1 3 .2 3 1-1.5q2.2-2.8 5.5-3.4c1.7-.2 1.7-.2 1.2 2.2a162 162 0 0 0-1 11.6l1-.6q2.6-2.1.9.6a17 17 0 0 0-2.7 6.3c-.3 1.3-.7 2.9-1 3.6q-.5 1.1-.3 1.3l2.6-2.4q2.3-2.4 2.6-2.5c0 .4-2.3 8-2.9 9.2-.4.8-.4.8 2.5 1l7.1.5-4.5 3.8c-4.6 3.6-4.5 3.6-5.3 5.8q-1.2 3.4-3.6 6.1l-.9 1.3q1 .3 3.4-1.9l1.4-1.3-.2 1.3-.7 5.1c.4-.2 2.7-2.8 3.4-4l1.2-2.8.5-1.7.6 2c.5 1.7.7 3 .6 7.7 0 5-.1 6-.8 9a62 62 0 0 1-3 9c.4 0 2.3-1.6 3.4-3.1.6-.8 1.5-2.3 2-3.4l1-2-.2 3.3a26 26 0 0 1-3.3 11.6l2-1 1.8-1-.7 1.4c-.3.6-.8 2.2-1 3.6l-.6 4.7q-.5 3.6-2.9 6.4l-1 1.5c.5.2 4.6-.6 6.6-1.3 3.4-1.5 3.3-1.6 2 1.2-1.3 3-2.4 4.9-4 6.7-1 1.2-1 1.3-.5 1.3s1.5-.4 2.5-1q1.6-.7 1.9-.6a39 39 0 0 1-6.5 10.4 11 11 0 0 0 3.5-2.2q1.3-1.5.8-.2l-.8 2.1c-.8 1.7-.8 1.8.4 3.3 3.1 4 3.5 10.2 1.2 23.3-1.7 9.5-3.4 13.1-7.6 16.4q-2.2 1.6 1.1.5a20 20 0 0 1 7.7-.5l2 .4q0 .3-1.9 2.2l-5.3 5.8-5.4 6q-2 2-1.5 1.9c2.3-.8 5.8-1.4 7.6-1.5 2.8 0 5.4.4 5.6.6q0 .3-.9.8a56 56 0 0 0-7.5 7.6 52 52 0 0 1-4.7 4.7c-1.4 1-1.4 1 .7 1.9 5.5 2.3 7.4 6.4 6.4 13.4-1.6 9-8 20-16.5 28.3-3.2 3-6.5 5.2-7.1 5.1a444 444 0 0 0 7.8-18.1q.4-1.8-1.4 1c-1.4 1.8-4 4-6 5-.6.4-2 .8-3 1-1.7.4-2.2.7-3.6 2.1-1 1-2.4 2-3.2 2.4l-1.5.7 1 .2 2.3-.2q1.1-.3 1.4-.1c.1.4-1.2 2.3-2.6 3.6-1.3 1-4 2.4-6 3.1-1.3.5.1.5 2.2.1q1.8-.3 2.2-.2l-1.8 2q-1.6 1.6-1.3 1.6c1.4-.4 4.6-.4 6.4 0 2 .6 5.3 2.2 5.6 2.5l-3 1.6a47 47 0 0 0-9.6 7c-.3.4-.8 1.8-1.2 3.2s-1 3.2-1.5 4c-3.1 5.3-9.5 12-15.6 16.2l-3.2 2.4q0 .3 1.5.2l10.3.1c11 .2 15.6-.5 19.3-2.4q1-.6 1.2-.5c0 .3-3.5 4.7-6.1 7.2a33 33 0 0 1-14.4 8.2 46 46 0 0 1-16.6 1c-1.7-.1-5.3-1-6.5-.4.9.4 13.4 4.2 16 4.8a32 32 0 0 0 12.6.4q-.1.4-2 2.3c-4.4 4-8.2 6-13 7-3.7.5-10.3-.3-15.6-2-3.6-1.3-3.9-1.3-4.8-1q-1.4.8-3.8-.3-.8-.4-1 .5-1 1.8-2.6 2.3c-1.6 0-2.7-.8-4.6-3.7l-1.5.5c-1.3.6-1.5.6-2.5.1q-1.9-1.1-3-5l-.8-2a13 13 0 0 0-3.2-1c-4-1-5.8-.8-8 .8a9 9 0 0 0-2.7 4h1.7c3.7-.5 6.3.2 10.8 3 2.3 1.4 5.4 2.9 8 3.7.8.3.6.4-1.8.8-1.6.3-4 .8-5.3 1.2-3.1.7-6.6.6-9.5-.2l-2.2-.4c0 .5 2.3 3 4.5 4.6s3 2.4 1.5 1.8c-.9-.3-8.4-1.5-9.7-1.5-.7 0-.4.2 1.7 1.7q2.3 1.6 2.4 2l-2.4-.7c-2.1-.7-10.2-2.6-10.5-2.6l1.2 1.1q2.4 2 1.2 1.6c-2.8-1.1-12-3.6-12.3-3.5l2.2 1.5q3.3 2.2.3 1c-1.2-.5-6.7-2-10.2-2.8q-2.5-.7-1.6 0l2 1.4q1.3.9 1.3 1.2l-4-1.4a77 77 0 0 0-11.9-3.2 51 51 0 0 0 5.8 5.7l2 1.6 2.8-.3a33 33 0 0 1 9.7.4c6.2.8 7 1 12.3 2.7 9.7 3 13 3.9 17.5 4.6 10.2 1.4 18.5.1 29.9-4.7l3.8-1.4c0 .3-1 4.6-2 7.1a28 28 0 0 1-13.7 16.2 33 33 0 0 1-8.1 2.3q.1.4 2.7 1.2c2 .6 4.5 1 9.9 1.6a51 51 0 0 0 18.8-.5s-.3 1-.9 2.1q-6 12.2-24.7 14.4c-8.8.8-17.2 0-30-3.3-14-3.6-20-4.7-25.6-4.5-1.6 0-8 .8-14 1.7a238 238 0 0 1-33.6 3.2c-5 0-4.4 0-7.8-1.2zm-77.5-17.5q1.7-.9 2.7-2c.9-1.2 1-1.5 1-3.9 0-2.2-.1-2.8-.9-4.2-2-3.4-4.5-5.3-9.1-6.8-3.8-1-8.3-1.2-18.7-.5l-12 .6c-13.9.1-22.1-2.1-27.4-7.4-4-4.6-5.2-11.7-2.7-17a28 28 0 0 1 7.7-7.7c-.4-.5-3.8-1.5-7.4-2a61 61 0 0 0-9.4 0c-15.6.9-15.7 1-23.3.2-6-.6-7.5-.9-10.5-1.8a60 60 0 0 1-12.5-5.6L336 686l1.2 2.6c4.6 9.5 12 15.3 25.5 19.9q2.8 1 3 1.4c-.4.5-4 2.3-6.9 3.1a56 56 0 0 1-28.4-.9q0 .4 1.8 2.2c3.4 3.3 10 6.7 17.1 9a86 86 0 0 0 28.5 2.8c10.6-.3 12.4-.2 18.2.5 7.8 1 10.4 1.7 27.3 8.4 20 8 26.8 10.3 33.1 11.1 3.2.4 3.6.4 5.3-.3m87.7 14.2c6.1 0 12.8-.5 27.2-2.2a86 86 0 0 1 27-1c6.5.8 6.3.8 23.5 5.1a94 94 0 0 0 19.9 2 45 45 0 0 0 16-3.6 23 23 0 0 0 6-4.5h-2.7c-6.8.8-16.6-.6-23.2-3a43 43 0 0 1-9.1-5.3l-1-1 2-.1c11.7-1.2 19.3-4.6 24.2-10.5 2-2.8 4-6.5 3.8-7l-3.2 1.1a41 41 0 0 1-22.6 3c-7.6-.8-7.5-.8-23.2-5.5a54 54 0 0 0-15.7-2.5l-1.3.3 1.9 1.9c2.2 2.3 5 6 6 8.2 2.3 5.6 1 12.5-2.8 15.9-4.5 3.3-10.3 4-19.8 2a143 143 0 0 1-20.3-6.1 71 71 0 0 0-16.7-4.7q-10.4-.4-11.4 7.3c-.1 4 1.6 6.6 5.6 8.7q3 1.2 9.9 1.5m-127.1-36.7 10.8-.6a62 62 0 0 1 17.4 0q4.1.7 3.7.3a255 255 0 0 0-34.4-16.9c-4-1.3-10.3-2-13.2-1.8-5.8 1-8 3.2-7.9 8 .5 3.6 3 7 6.2 8.5a54 54 0 0 0 17.4 2.5m168 25.5c5.4 0 7.3-.9 9.3-3.7a10 10 0 0 0 .8-6.6q-1.8-4.8-9.2-7.3c-5.8-1.8-11-1.7-21.8 0-5.7 1-24 5.5-24.9 6q0 .2 1.8.2c4 0 9 1.5 21.4 5.9a67 67 0 0 0 22.7 5.5m-83.8-13.4c12 .9 22.7.3 34.7-2 2.4-.4 9.2-2 15-3.4 12-3 16.3-3.8 21.1-4.2a52 52 0 0 1 13.5 1.3l2 .5-.9-.9a133 133 0 0 1-18.8-21c-4.5-7.2-8.1-10.1-13.7-11.1-2.1-.3-4-.2-10.3.5-16 1.9-29.4 2-44 .8-14-1.3-34-7.2-55.6-16-7.4-3.1-9.2-3.6-11.9-3.6-4.4.2-7.6 2.2-11.3 7a89 89 0 0 1-19.3 16.2q-1.6.9-.4.9a34 34 0 0 1 10.4.8 94 94 0 0 1 23.7 10.5c15.7 8.6 22.7 12 32.3 15.7 11.7 4.4 23.4 7.2 33.5 8m-3.4-10.2q-1.5-.6-2.5-1.3l-1-1-.7.8q-1.4 1.2-3.6-.7c-1.1-1-1.5-1.1-2.4-.6-1 .5-3 .1-4.2-.7-.7-.6-1.4-.8-5.4-1.3-6.9-1-14.3-3.5-18.5-6.1a6 6 0 0 1-2.7-3.3q-.1-.2-1 .1c-2.2.8-6.1-.6-7.6-2.9-.7-1.5-.6-2 .4-7.4.6-2.6 1.1-5.6 1.2-6.6q.5-3 1.9-3c.4.1.4.4-1 7.2-.8 4.7-1 6.4-.8 7a8 8 0 0 0 6.6 2.8q.9-.3 1.2-.8.9-1.2 1 1c0 1.1 0 1.2 1.8 2.3a71 71 0 0 0 19 6.6q4.4.5 5.2-.8.1-.3.6-.3t.4.5c-.7 1.8-.7 1.8.8 2q2.1.4 3.2-1.4 1-1.4 1 .4c-.2 1 0 1.1 1 1.9 1.5 1 1.9.9 2.6-.7q1-1.8 1.4.4.3 1.2.9 1.6c1.2.6 5.7 1.2 6.7 1 .5-.4.5-.4-.4-1.7q-1-1.2-1.1-1.8c-.1-1 .3-2.8.7-3 .4.3 1.7 2.3 2.2 3.7.8 3 .2 5.5-1.5 6.3a11 11 0 0 1-5.4-.2m15 1.4c-2.3-1-3-2.2-4-7.5l-1.6-6.8c-.8-3-.8-3.3-.4-4.1s.5-.8.9-.1l1.6 6.7c.7 3.3 1.6 6.3 1.8 6.8.5 1 .7 1 3 1.4 5.4.6 13.4-.4 13.5-1.8q-.2-.3-1.6-.6c-1.9-.3-2.2-.8-1.3-2.7a5 5 0 0 1 6.6-1.2c.7.7.7.8.6 2.6l-.2 2 1 .1a48 48 0 0 0 16-4.1c1.1-1 1.2-1.4.5-2.1q-.4-.6-1 .4c-.6 1.1-1.1 1.2-2.7.6-.9-.4-1.2-.8-1.8-2-1.2-3.5-.7-6 1.2-6 1.2.3 3.4 2.2 4.6 3.9q2.8 5 1.4 7.8c-1.4 1.7-7 4-12.4 5-4 .5-5.6.4-7.3-.5l-1.2-.7-1.4 1c-1.6 1-5.2 2-8.4 2.4-2.4 0-6.3-.2-7.4-.5m33.6-13.7q.5-.5-.1-.7-1.3-.5-1.5.4c.1.7 1 .8 1.6.3m-111-9.3q-2.3-.9-4.2-3.3c-1-1.3-1.2-1.8-1.2-3q0-2.9 2.6-5c2.5-1.9 4-2 2 0l-1.6 1.7c-1.1 3 1.7 6.1 6.4 7.1 3 .4 3.3.1 3.4-4V694l1-.7 1.6-.6c.4.3.4 2.3-.2 4.8q-2.5 9-9.8 6.2m65.5 7.6q-1.4-1.6.2-2.6c.6-.3.8-.2 1.7.8l1 1-.7.9c-.8 1-1.1 1-2.2 0m-41.4-7.6c-.7-.8-.8-.9-1.6-.5s-.8.4-1.6-.6c-.9-1.3-.9-1.5.3-2.3l.9-.5.8 1c.8 1.2.8 1.2 1.5.7s.7-.5 1.3.1q1.5 1.7.3 2.6c-1 .7-1 .7-1.9-.4m95.8 11.2q-1.8-3.8-3.9-7.4a18 18 0 0 1-2.5-6v-1.9c.3.1 4.7 7.7 7.3 13.1q1.4 3.1 1.4 4.4 0 1.1-.3 1.2c-.2 0-1-1.5-2-3.4m-30.1-3c-.9-.7-1-.9-.2-2 .7-1.1.8-1.1 2-.2 1.2.7 1.2.9.7 2q-.7 1.4-2.5.1m-83.7-23.1c-.5-1.5-.3-1.7 1.1-1.8.9 0 1 0 1.4.8q1 2-.4 2.2c-1.4.3-1.7.1-2.1-1.2m99 16c-1.1-.7-.5-2.5.8-2.6q2 .4 1.7 2.2-.2 1.2-1.1.9zm-131.2-17.5c2.5-.2 3.9-.7 5.5-2.1q3.5-3.4-.1-5.2c-3.1-1-5.7 0-8.7 3.4l-2.2 2.4q-.9.6.8 1c2 .5 2.7.6 4.7.5m176 25.8-.8-1-2.2-3.2q-3.8-5.2-8.2-5.1c-2.3.5-2.4 1.6-.7 4.4a13 13 0 0 0 9.7 5h2.1m-194.4-30a6 6 0 0 0 3.5-2.4c1-1.5 1.3-2.2.7-3.3-.4-.6-.8-.7-2.4-1a5 5 0 0 0-3.4.6c-1.4.9-5.2 4.8-5.6 5.6.2.4 2.4 1 4.2 1q1.3 0 3-.5m9.8 1.9c3.5-1 6-4.3 5.1-6.3-1.3-1.4-3.8-1.5-6.3-.4-1.3 1-5.5 5.2-5.8 5.8.4.6 4.7 1.2 7 .9m194.2 28.6c0-.6-4.3-6.2-6-7.7-3.2-2-6-2.1-6.3 0 .3 2.1 2.8 5.2 5.7 6.7 1.6.6 6 1.2 6.6 1m9.9 1a27 27 0 0 0-5.6-7.3c-3.1-2.1-6-2-5.9.5.5 1.5 2.6 4 4.5 5.4 1.3.8 2.2 1 4.2 1.3 1.3.2 2.6.2 2.8 0m9.5.6-2-3.2q-1.9-2.8-3.5-3.8-3.7-2.2-4.9-.4c-.4 1.4 1.2 4 3.8 5.9 2.9 1.7 6.5 2.7 6.6 1.5M386 681.4c3.7-1.8 5.2-4.5 3.3-6-2.6-1-4.6-.2-7.5 3-2.8 3.4-2.8 3.4.2 3.5q2.4.1 4-.5m-9.2-2.1c.8-.3 2-1 2.7-1.7 2-2.4 1.2-4-2-4q-2.1.1-5 3.9l-1.4 1.9.9.2q2.2.5 4.8-.3m250.9 36c.4-.1.3-.4-1.1-2.5-2.1-3.1-3.5-4.3-5.4-4.9q-2.5-.6-2.5 1.4c.3 2 2.4 4 5.3 5.4 2 .8 2.8.9 3.7.7M424 680.8c.5-.7.5-.8 0-1.3q-.8-.6-1.2-.1-.7.4-.2 1.3c.5 1 .6 1.1 1.4.1m152.6 22.8q.5-.9-.2-1.3-.6-.6-1-.1-.6.3-.1 1.3.6 1.7 1.3.1m-206-29.8q1.8-.4 2.9-1c1-.7 1-.7.3-1.3q-2.3-2-6.7-2.2c-3 0-4.8.4-7.1 1.7l-1.2.7 1 .6c2.6 1.5 7 2 10.9 1.5m268.3 37c1.4-.5 1.4-.6.8-1.1a16 16 0 0 0-13.4-3.3q-1.3.6-1.5 1c.5.7 3.5 2.5 5.7 3.2 2.9.7 6.5.7 8.4.2M502 685c0-4.5-.2-7.5-.3-8q-.4-.8-1.2-1.4-2.1-1.2-3.2.9c-.2 1.2-.4 13.3-.2 14.5.3.4.7.6 2.5.9l2.3.4zm-98.3-8q.9-.5.4-1-.8-1-1.6-.2-.6 1.1.2 1.6zm11.2.8-.8-.8c-.8-.6-.8-.6-1.3 0q-.5.5 0 1.2c.6.6.6.6 1.3.1zm79.8 6.1c0-5.8-.2-6.8-.7-7.7-1-1.3-2.8-1.7-4-.9-.7.7-.7.8-.5 5.3l.5 6.7c.2 2.6.5 2.8 3.2 3.2l1.6.2zm13.8 8.6a73 73 0 0 0 1-13.3q-.1-.9-1-1.6c-1-.6-1.2-.6-2.2-.3q-1 .3-1.4.8c-.2 1-.7 13-.6 13.8.6.5 3.3 1 4.2.6m78 10.3-.6-.8-.9.4-.8.4.7.7c.7.7.8.7 1.3.3q.7-.4.2-1m10.3 2.6q.1-.4-.2-1.2c-.4-.8-.4-.8-1.3-.4l-1 .5 1 .7c1 .8 1.2.9 1.5.4m-203.3-30.1q1-.3 1-.6l-1-1-1.1-1-.6.8q-.6.8-.1 1.5.3.6.6.7zm214 30.8q.4-.6-.2-1.5l-.5-.8-1.1.5-1.2.8 2.4 1.6q.2 0 .6-.6M384.2 674l1.4-.5-.9-.6c-.8-.7-.8-.7-1.6.1q-.7.8-.6 1.2c.2.3.1.3 1.7-.2m103.4 12c-.3-6.6-.7-9.7-1.2-10.6-1-1-2.7-1.3-3.6-.7-.6.6-.6 1.3 0 8.2l.3 5 1 .3 2.3.5 1.3.2zm28.5 6.7c.2-.7.9-11.5.8-12.4q-.8-1-2.6-1.3-.7 0-1.4.6c-.6.7-.7 1.3-.9 5.5l-.4 6.3-.2 1.4 2.2.1q2 .1 2.5-.2m100.8 14.6q0-.4-.6-1.3c-.8-1-.8-1-1.6-.5l-.9.5 1 .7c1.4.8 1.8 1 2.1.6m-135.7-22.2-.4-5.6c-.2-3-.3-3.4-1-4q-.7-.6-1.6-.5t-1.3.7a44 44 0 0 0 .2 10c.3.5 1.9 1.2 3.5 1.5.8.2.8.2.6-2.1m40.5 8c.8-.2.8-.6 1-5.6.3-4 .3-4-.5-5q-.9-.9-1.6-1.2c-1.6 0-1.8.5-2.2 5.8l-.4 5.5q-.2.6 1.6.5zm-110.3-16.8c2-1.8-1.2-6.5-5.8-9q-3.4-1.4-5-1c-.5.2-.3.6 1.5 3.7a31 31 0 0 0 3 4.3q3.9 3 6.3 2m181.4 26.4c1.8-.8 3-2 5.2-5.2l1.4-2.1-.9-.4a16 16 0 0 0-5.4 0c-3 1-5.5 3.5-5.9 6 .3 2 2.5 2.7 5.6 1.7m-192-28c.7-.1.8-.3.8-1.4s-.3-1.6-1.3-3a10 10 0 0 0-7-4q-2.2-.3-2.7-.1a27 27 0 0 0 3.8 5.8q3.1 3.4 6.4 2.8m20.8 2.8c1.3-1 .2-4.3-2.2-6.6a14 14 0 0 0-8.2-3.3h-1l1.4 2.6c2.1 3.4 3.6 5.2 5.3 6.3 1.5.9 3.6 1.3 4.7 1m4.6-.1q.6-.9.5-1.4a12 12 0 0 0-3.3-2.6l.2 1.1.3 2q.3 3 2.3.9m149.3 21.6.4-2.3q.2-.4 0-.6c-.7.1-3.2 1.5-3.4 2 .1.8 1.4 2.3 2.1 2.5q.8.2.9-1.6m7 2.1c1.7-.7 3-1.8 5-4.7l1.7-2.3-2.6-.5c-2.3-.3-3-.3-4.5.2-1 .4-2.3 1-2.8 1.4-2 1.9-2.7 4.4-1.7 5.5a7 7 0 0 0 4.9.4m19.3 2.8c2-.3 2.9-1 5.2-3.7 1.6-2 1.8-2.5 1.5-2.8-.8-.5-4.6-.7-6.2-.3-2.8 1-5 3.6-4.7 5.5q.9 1.7 4.2 1.3M381 671.8c1.3-1 0-3.6-3-5.9a11 11 0 0 0-3.9-1.5l-2.1-.5 1.3 2.2c2.4 4 3.9 5.4 6 5.8zm9.4.8c.6-1.6-.9-4.3-3.4-6.3a12 12 0 0 0-5.5-2q-1.1 0-.5.7.6.8 1.5 2.6 2.6 5 6.2 5.4 1.4.3 1.7-.4m222.7 32q1.2-.6 2.1-1.4c1.5-1.8 3-4.6 3-5.1q-.2-.4-1.9-.4-6.6.6-7.5 5.4 0 1 .5 1.4 1.5.8 3.8 0m8.5 1.4c1.3-.5 2.2-1.2 4-3.8s1.8-2.7-1.1-2.5c-3.8.5-6.4 2.3-6.7 4.8q.3 2.2 3.8 1.5m-151.4-22.3-2-3c-3-3.9-5.3-7.5-9.2-14-4.1-7-5.8-9.4-9-13a43 43 0 0 0-10.8-8.8A50 50 0 0 1 429 637c.4.1 12.4 6 14.8 7.4a39 39 0 0 1 10.5 10.6l3.2 4.1c.3 0-.6-2.9-2-6.3a29 29 0 0 0-4-6.1 43 43 0 0 0-15.6-10.5l-8.4-4.3a36 36 0 0 1-8.1-7.4l-2.4-3 .3 1.4c.5 2.9 2 7.2 3.5 9.9a46 46 0 0 0 17.8 15.9c6.3 3 10.2 7 18 18 2 3 5.4 7.7 7.5 10.4l4.3 5.8q1.5 1.6 1.8.6zm4.2.7-.5-1c-1-1.1-5-7.2-6.2-9.5-1.7-3.5-2.4-6-2.5-8.8.1-4.1 1.4-6 4.7-7.2 2.5-.6 6-.2 9.1.9l2.8 1.2c.6.2 1 0 2.2-1q3.1-2.4 8.5-2.2c2 .2 2.8.4 4.8 1.4l2.5 1.2 1.4-.4c2-.5 5.2-.3 7.7.6 2.6 1 5.4 3 6.8 4.6q1 1.2 1.4 1.3c.2 0 1.4 0 2.6-.3a17 17 0 0 1 10 2 10 10 0 0 1 4.5 8.5c-.2 4.6-2.5 9-7.7 14.5l-1.6 2c.5 2.3 8.4-7 12.2-13.6 3.3-6.5 3.8-14.7 1.1-19.9q-3-4.6-8.8-7.6c-2.2-.9-6.6-1.6-8.8-1.5-1.2 0-1.4 0-2.8-1.5-4.8-4.7-10.8-6.6-16.3-5l-2 .6-1.6-1.2c-5.4-3.2-11.7-3.3-16-.2-1.7 1.3-1.8 1.3-3 .8-2.1-.6-7-1.3-9-1.2q-3.6.7-6.5 2.7c-3.3 2.7-4.1 5.1-4 10.9.4 6.8 2.3 11.6 8 20.6q6.7 10.5 7 8.3m58.7 6.2a195 195 0 0 0 10.6-11.3c4.3-4.8 8.7-8.6 11.5-10.2a29 29 0 0 1 5.1-1.6A31 31 0 0 0 579 656c1-1.8 3.2-7.9 3.3-9q-.2-.3-3.2 2.3c-1.8 1.6-4 3.2-5 3.7-1.1.4-5.4 1.5-9.7 2.4-10 2-12.8 3.1-16.4 6.1-2.2 2-2.9 2.8-4.2 5.3-.8 1.7-1.5 3.6-1.7 4.3l-.2 1.3 1-1a32 32 0 0 1 13.8-10.3c2.2-.6 13.7-2.7 14-2.7a29 29 0 0 1-5.1 2.8l-5.5 2c-8.7 2.7-12.3 5.7-19.8 15.9-4 5.5-6.4 8.4-9.1 11.1q-1.8 2-2 2.5 0 1.8 4-2.2m-185.3-23.9a29 29 0 0 0 1-16.3c-1.2-3.2-3.2-6.6-4.2-7.1q-.7 0-1.2.3c-.3.5-.2 1 1.2 4 2.7 6.2 3 9.3 1.6 14.5l-1 3.4c0 .8 1 2 1.6 2q.4-.1 1-.8m305.6 41.2c.8-.8.7-1.5-.4-4.5a24 24 0 0 1-.6-9.2l2-5c1.5-3 1.6-3.6 1.3-4q-1.1-1.6-3.2 1.4c-2.2 3.3-2.8 5.7-2.9 11.3 0 3.7.2 4.9.8 7q1 3.5 2 3.6.4 0 1-.6m-188.8-26.3q0-.6-2.4-3.8l-7.6-10.2c-8.5-11.5-11.1-14-18.1-17.9a38 38 0 0 1-9.4-6.4l.8 2.4c.4 1.3 1 3.1 1.1 4.1q.6 3 1.6.2l.5-1.3.8 1.1 2.3 3.6c1.3 2.2 1.8 2.7 4.5 4.6 7.2 5.4 14.7 12.2 21.2 19.6 2 2.3 4 4.2 4.1 4.3q.5 0 .6-.3m74.1 8.5a95 95 0 0 1 21.8-13.6c2.8-1.2 3-1.4 4.9-4 1.1-1.5 2.2-2.5 2.4-2.7q.5 0 1 1.4t.6 1.5q.4-.1.7-1.7a40 40 0 0 1 2-5.9l-1.4.8a28 28 0 0 1-8.4 3 27 27 0 0 0-10.7 5.4l-9.6 9.6c-7 7.3-8 8.6-7 9 .3-.1 1.9-1.2 3.7-2.8m-78.2-9.3c-.2-.6-5.4-6.2-10.2-10.6-4-3.6-8.7-7.6-12.2-10.3l-1.3-1 .2 1.7.3 2.4q-.1.8 1.4 1.5 5 3 10.5 10c2 2.7 2.4 2.9 9 5.7 2.3 1 2.3 1 2.3.6m82.8 11.7 4.5-.7 3.1-2.9c3.3-3 6.8-5.1 9.5-6q1.6-.2 1.5-1c0-.4 0-1.5.2-2.4l.2-1.5-1.6.7c-2.4 1.1-9.2 4.8-11.6 6.3-6 3.9-11 7.6-10.4 8zm-212.5-28.7 4.3-1c1-.4 1-.5 1.2-2.3a6 6 0 0 1 1.1-3.4c1.7-2.5 1.8-2.4-.8-2.3-1.3 0-5.6.6-9.6 1.3-8.8 1.6-12.1 2-15.2 1.8h-2.3l.8.7a40 40 0 0 0 8.3 4.5c3.7 1.1 8.1 1.3 12.2.7m349.2 44.7c2.2-.5 7.2-2.5 8.8-3.6l.8-.6-2.3-.2c-3-.2-6.7-1-13.9-3.4a99 99 0 0 0-12.2-3.5h-1l.6.9c1.6 2.6 2.1 4 2.2 5.6v1.5l2.2 1c5.2 2.1 10.5 3 14.8 2.3m-251-33.6q.6-.5 2-1.2c1.3-.7 1.3-.7.7-1.4s-.7-.6-1.8.4q-1 1-2.1 1.1-1.7 0-.5 1 1 1 1.8.1m142.7 21.5q1.3-.6-.5-1a7 7 0 0 1-2-1.8c-1-1.1-1.3-1.3-1.7-1-.7.5-.6.7 1.5 2.5 2 1.9 2 1.8 2.7 1.3m-217.2-31.8c.6-2.2 1-6 .6-9-1-7.2-3.2-11.7-5.2-10-.3.4-.2.7.4 2 1.9 3.7 2.8 9 2.2 12.9-.8 4.7-.8 4.5 0 5 1.2.4 1.5.3 2-1m120.5 15.9-.3-2c-.3-.5-1.7-.6-2-.1a12 12 0 0 0 2.2 3.5zm50.3 7.8c1.3-1.6 1.3-2 0-2.3q-1-.1-1 .6c-.7 3.3-.6 3.5 1 1.7M647 704.8c.5-.4.5-.5 0-2.1-.5-2.3-.6-7.3-.1-10.2.3-1.1 1-3 1.6-4.2.8-1.7 1-2.2.7-2.6-2-2-4.2 2-5.3 8.8q-.4 4.4.6 8.7c.4 1.5.6 1.8 1.2 1.9q.8 0 1.3-.3m-305.6-41.2a5 5 0 0 0 1.7-1.4c1.3-2 2-6.3 1.5-8-.6-.6-1.4-.3-3.2 1.3-2.7 2.8-3.5 6.1-2 7.8.8.7.6.7 2 .3M660 705.4c1.3-1.8.4-5-2.3-8.2-2.8-2.8-3.4-2.6-3.2 1.2q.5 5.4 3.3 7c1.3.7 1.4.7 2.2 0m-99.8-14.2c3.8.5 4.7.5 5.2.2.5-.4.4-.5-.5-1.6q-1-1.2-1.9-3.1c-.8-2-.8-2-1.7-1.8-2 .7-5.3 2.6-7.3 4.3l-2 2q.2.3 1.8-.1c1.5-.4 2.4-.4 6.4.1m-133-19.2q3.4-.9.6-4.2a11 11 0 0 0-5.8-2.9c-1.8-.1-5 .3-6.7 1-.7.3-.7.3.7.9.8.3 2.7 1.5 4.3 2.6 4 2.7 4.6 3 6.9 2.6m19.2 2.1a48 48 0 0 0-7.5-7l-1.8-1.3-1.2 2a8 8 0 0 1-2 2.5l-1 .5.8.7c.6.6 1 .8 4.5 1.2 3 .4 4.2.7 6 1.4 3 1.3 3 1.3 2.2 0M578 693.4l4.3-1.6 2-.6-.9-.6a14 14 0 0 0-9.7-2.3q-5 1.6-2.8 4.6c1.8 1.6 3.8 1.8 7.1.5m-180.4-27.5q1.7-.5 2.8-1.3 2.8-2.6-1.2-4.5c-2.2-1-3.1-1-5.1-.6a36 36 0 0 0-6.4 3.4c-.1.4 2 1.7 4.1 2.4q3.3 1 5.8.6m209.6 30.6c1-.1 2.4-.4 3.3-.7 1.4-.5 1.4-.5 1-1l-2.8-2.3c-3.6-3-5.7-3.7-8.7-3.2q-3.8 1-1.2 4.2 3 3 8.4 3M377 663.4c-.2-.6-2.4-1.4-5.1-1.7-2.8-.3-2.9-.3-2.2.3.6.4 1.2.6 2.8.6 1.1 0 2.5.2 3 .4 1.3.6 1.5.6 1.5.4m96.8 13q1.3.2 1.3-.2c0-1 1-2.2 2-2.7 1-.3 1.7-.2 3.5.6q.7.4.7-.2 0-.5.9-1 2-1.2 4.5.8c1.4 1.2 1.5 1.2 1.5.6.1-.8 1.4-1.6 2.7-1.7 1.7 0 2.5.4 3.7 1.7q1 1.3 1 .6l1.2-1.2c2-1.3 4.4-.7 6.3 1.5l1 1.3.8-.7q3-1.9 5.7 1.2l1 1.3 1.2-.7c1-.5 1.4-.5 2.5-.2q2.5.8 2.7 2.2 0 .6.8.4c1.9-.3 2.6-.1 3.8.8q1.1 1 1.5 2.3c.3 1.1.4 1.2 1.2 1.2q.9 0 1.6.5c1 .6 1.1.4 3-3.1q4-8.6-3-12.6a17 17 0 0 0-8.9-.9l-1.8.5-1.7-2c-2.9-3-4.7-4.1-8.4-4.8-2.6-.4-3.2-.4-4.7.2l-1.8.6-1.7-1.1c-1.5-1-2-1.3-4.6-1.7s-3.2-.3-5 .2a11 11 0 0 0-3.4 2l-1.6 1.5-2-1c-1.7-.9-2.8-1.2-5.4-1.7-3.2-.4-3.4-.4-5 .3-3.9 2.2-4 6.3-.3 13.5q1 2 1.5 1.7zm152.8 22c1.9.2 2.6.1 3.1-.2s.4-.4-2.9-.7c-2.8-.2-3.5-.2-4 .2q-1 .8.4.4c.5 0 2 0 3.4.2m-241.3-35.5c-.6-.8-.6-.8.2-1.4q1.2-.6.2-.6c-.3 0-1.6-.4-2.8-.9l-2.1-.8-1.2 1.3-1.3 1.6q.2.3 2 .3c1.2.1 2.8.3 3.6.6 2.1.7 2.1.7 1.4-.2M618 696.2q2.5.3 2.7 0l-1-1.9q-1.2-1.4-1.6-1.4l-2.8.5c-2.2.3-2.2.3-1.4.9.7.6.7.6 0 1.3l-.6.6 1-.1c.6-.1 2.2 0 3.7.1m-209.2-30.5q1.4-.3 2.3-.2t2.1-.6l1.4-.6-1-.4c-2.2-.8-3.1-1.3-5-2.8l-1.7-1.5-.7 1.2a4 4 0 0 1-1.6 1.4q-.7.4-.6.7l-.1 1.1c-.2.6 0 .7 1.4 1.3l2 .6zm185.7 27.2q1.4 0 1.1-.6l-.3-1.3a2 2 0 0 0-.8-1q-.6-.3-1.9-3.1l-1.5.8a10 10 0 0 1-4.8 1.7l-1.4.2 1.1 1q1.2.9 2.1 1l2.3.8q1.2.6 2 .6zm-162-24.2c2-1 3.1-4.1 2.7-8.1a27 27 0 0 0-3-7.6l-.6-.9-1.6 3.4c-2 4.4-2.3 6.6-1.2 9.6.5 1 1.2 2.3 1.7 2.9 1.1 1.1 1 1 2 .7M568.7 689c1.6-1.2 2.2-2.8 2.3-5.9 0-2.5-.1-2.9-1.6-6.5l-1.7-3.9-.6.7a24 24 0 0 0-3 6.8c-.4 3.7.7 7.3 2.6 8.9 1 .5 1 .5 2 0M368.5 660l5.2.4c-.4-.7-6.3-3-10.2-4-2.2-.4-2.6-.4-4 .2-1.9.7-2 .9-1.7 2 .2.8.2.8 2.9.9 1.5 0 5 .2 7.8.5m273 37.8c.5-1.4-1.7-3.3-4.5-3.8a38 38 0 0 0-11.4 1.8l3.9.5c2 .2 5.2.6 7 1 4.4.9 4.8.9 5 .5M378 659.7l1-1.7c-.1-.9-2-2.7-3-3l-2 .3c-1.7.5-2.9.3-7-1.3l-3.5-1.4-.6.7c-1 1.3-.8 1.6 1.7 1.9a20 20 0 0 1 9 3.6l3.2 2q.2 0 1.2-1.1m252.6 33c1-.2 2.9-.3 4.2-.2q2.2.2 2.4 0c0-.8-.7-2-1.2-2.2-.2 0-1.6.2-3 .6-3.8.7-5.4.7-7.3-.1-2.2-1-2.7-1-4.2.1L620 692l.7 1 1.3 1.8.7.8 3-1.3zM391 659q4.6-2.1 1.2-4.7a8 8 0 0 0-5.1-1.3c-1.8.4-7.2 2.6-7.5 2.9a12 12 0 0 0 4 2.4q4.1 1.8 7.4.7m184.4 25.9c-.5-1.4-1-1.8-1.8-2-.7 0-.7 0-.8 1.7l-.2 1.8 1.6-.3c1.4-.3 1.5-.4 1.2-1.2m42.1 6.1q2-.7 2.2-1a43 43 0 0 0-6.9-4.4 7 7 0 0 0-5.8-.2q-3.1 1.8 1.1 5c1.5.9 2 1 4.4 1.2 2.3.2 3.1 0 5-.6m-197.1-28.5q1.1-.4 1.7-1.1c.5-.6.5-.8 0-1.8q-.6-1-1.6-2c-3-2.6-5.6-3.2-10.7-2.4l-3.3.7.7 1c1 1.6 2.9 3.3 4.7 4.5 1.5 1 2 1 4.4 1.3q2.8.3 4-.2m6.1 0q0-1.6-.4-1.7-1.7-.2-2 1.2c-.4 1.1-.4 1.2.6 1.6 1.8.8 1.8.7 1.8-1m159.8 25a11 11 0 0 0 5.4-3.1l1.1-1.2-3.2-1.5c-5.3-2.3-8.1-2.4-11.1-.4-2.3 1.8-2 3 .6 4.8 2 1.1 4.9 1.7 7.2 1.5m-227.1-33c3.1-2.2 3.1-6-.2-6.4q-1.1.1-1.8.7c-.6.6-.6.7-.2 2.8.7 3.8.6 3.7 2.2 2.8m45 5c1.4-2.1.9-6.2-1.3-10a17 17 0 0 0-4-3.8c-.3.6-.7 7-.6 8.5q.8 3.2 3 5.2c1.5 1 2 1 2.9.2M598 688.2q1-.7 2-2.1c1-1.6 1-1.6.8-6.1-.1-2.5-.3-4.6-.4-4.7-.4-.2-2.4 1-3.7 2.4q-3.3 4.2-2.3 8.3c.9 2.8 1.6 3.2 3.6 2.2m43.7 5.3.6-2.7c.3-2 .3-2.1-.3-2.8-1.1-1.1-2.7-1.4-3.7-.7-1.3 1.6-.6 4 1.8 6 1.2.9 1.4.9 1.6.2M338 651.2c3 0 5.6-.1 5.7-.2.3-.5-.6-2.6-1.8-4q-1.2-1.4-4-2.7a66 66 0 0 0-25.4-4.8 63 63 0 0 1-17.5-2.1c0 .3 2.4 2.6 5.1 4.9 7.9 6 19.8 8.7 38 8.9M678.2 695c8.2-.2 13.6-1.3 18.5-3.8 2.7-1.6 7-5.2 7-5.7 0 0-1.2 0-2.6.3-2.2.4-4.5.4-15-.1-14.2-.8-17-.8-23.8.9-4.2 1-5 1.5-6.1 3.7-1 2-1 2.1.2 2.5 4 1 16.3 2.3 21.8 2.2m-280.8-38-.4-1.2q-.2-.5-.7-.5h-.9q-.4 0-.5 1c0 1 0 1 1.4 1.2q1.6.3 1-.4m206.9 29.6q0-1-.5-1.1l-1-.3q-.4-.3-.8.8l-.3 1.1 1.3.3c1.2.2 1.3.1 1.3-.8m28.5 2.8q1.7-.3 2.5-.2c1.4-.1 1.5-1.9.2-2.8-2.3-.9-5.9-.2-8.7 1.6-1.1.9-1 1 .5 1.6 1.2.3 2.5.3 5.5-.2M373 653.7c.4-.3.3-.4-.5-1.2q-3.2-2.9-6.8-3.4c-2.6-.3-3 0-2.8 1.5.3 1 .4 1 1.3 1.2q1.1.1 2.8 1c2.2.8 5 1.3 6 1zm8.7-1.2c1.6-.6 3.2-2 3.4-2.8-.3-1.5-3-3.1-5.5-3.1-2.1.3-6.9 2.6-7.3 3.4.2.2 2.5 1.7 3.8 2.2 1.5.4 4.4.6 5.6.3M426 658q2.7-3.2 1.2-9.8c-.8-2.4-2.5-5.7-2.9-6q-.3.1-.8 1.4-.7 2.2-1.7 4.3c-1.4 3.3-1.5 4.8-.4 7.5q2 4.5 4.6 2.6m150.5 22.7q.8-.6 1.5-2.2c1-2.4.8-4-1-8.9-.9-2-1.5-4-1.6-4.3q0-1.5-1.5.8a13 13 0 0 0-2.2 7.9c0 2.4.1 3.4.5 4.3 1.5 2.7 2.6 3.4 4.3 2.4m47.4 6.2q1.7-.3 2.4-.8c.7-.5.7-.5-1.4-2.1a16 16 0 0 0-5.4-3.3q-2.9-.5-4.7.8c-.7.6-.7.8-.4 1.7a8 8 0 0 0 3.6 3.2c1.5.6 4 .8 5.9.5m-227.8-34c.7-1.2.8-4 .2-6.2s-2.4-4.8-4-6.4c-1.8-1.5-1.7-1.6-2.2 2.8-.4 4.8.2 6.7 2.5 9.3q2 2.2 3.5.4m210.4 30.7a7 7 0 0 0 2.7-4.4c.2-2-.4-8.2-.7-8.6-.6.2-3.8 3-4.7 4.2-1.5 3-1.7 6.2-.4 8.4q1.3 1.8 3.1.4m-216.7-31.9-.7-1.4c-.7-1.2-.7-1.3-1.4-1q-.6.5-.8 1.1c0 .6 0 .7 1.1 1zm222.1 31.7c.9 0 .7-1-.3-1.9-.6-.5-.7-.4-1.5.7l-.9 1.3h2.7m-247-35.8h1.8l-1.7-1c-1-.5-3-1.3-4.7-1.8-2.7-.8-3-1-2.5-1.3q.7-.4 2.2-.8 2.3-.4.8-.8l-2.9-1.5-3.2-1.7-1.5-.6 2-.4q3.6-.8 4.7-1.9.6-.4-.8-1-1.2-.5-2.2-1.2l-1.3-.8-3.5 1.7q-8.3 4.5-17 6.2l-1.2.2 1.9.6a26 26 0 0 1 5 2l.4-1.1q1-1.9 3.5-1.8.8 0 2.4 1.8l1.5 1.7.7-.7c1.7-1.2 3.8-.4 5.4 2.2 1 1.5 1 1.6 2.3 1q2-.8 4.3.7 1.1 1 1.5.6.6-.2 2.1-.3m218.3 30.9-.2-1c-.7-1.2-2.4-2.1-2.6-1.3l-.3 1.7-.2 1.3 1.7-.4zm-170.8-25.8c1.7-.6 1.8-.8 2-1.9 0-1-.1-1.3-.9-2-2.3-2-6.1-2.9-9.8-2.4l-1.4.3 1 1.4a23 23 0 0 1 2.7 4.6c.8.7 4 .8 6.4 0m6.7.8-.3-1.7h-1.2q-1 .3-1.3 1.1-.4 1 .6 1.2l1.3.5q1.3.9 1-1.1m175 25.3q.9-1.7 1.9-2.7l1-.9-1.4-.6c-3.8-1.5-7.6-1.6-9.9-.3-.7.5-.9.8-.8 1.8.1 1.1.3 1.4 1.5 2.2q2.5 1.7 5.5 2c1.2.1 1.3 0 2.2-1.5m44 6.5q2-.9 4.1.2c1.3.8 1.4.8 2.3-.5q2.7-3.5 5.5-1.1l.8.9.8-1.1q1.7-1.9 3.4-1.8c1.2.2 2.5 1.2 3 2.4l.5 1.1q.2.1 1.5-.4l3.4-.8 2-.2-1.2-.4a61 61 0 0 1-16.8-9l-4-2.6-.8.4q-.6.4-1.9.7-1.1.4-1.4.7c0 .6 1.8 1.9 4.4 3l2.3 1-1.5.2-3.2 1.1c-1 .5-2.4.9-3 1l-1.1.1 1.5.6c.9.3 2 1 2.5 1.3l.9.7-3.1.2-4.6.8-1.5.5 1.3.4 1.8.7c.8.5 1 .5 2.1-.1M372.7 647c4-.6 5.4-2.6 3.2-4.6a8 8 0 0 0-6.5-.6c-2.2 1-4.4 2.2-4.5 2.5.1.4 1.8 1.5 3.7 2.2 2.1.7 2.2.8 4 .5m258 36c1.6-.2 3.7-1 3.9-1.4-.2-.3-2.4-2-4.6-3.5q-1.4-1-3.4-1.1c-4.4-.3-5.5 1.7-2.4 4.4 1.3.9 3.4 1.6 4.6 1.7zm-243-36c1-1.5.9-4.3-.2-7a21 21 0 0 0-4.5-5.6l-.6 3.2c-.5 4.5-.2 6.2 1.8 8.6 1.7 2 2.3 2.1 3.5.8m227.2 32.8q1.6-1.5 2.4-4c.2-1.4-.5-7.7-.8-8-.6 0-3.1 2.3-4 3.6-1.7 3-1.8 6.1-.4 8.2 1 1 1.5 1 2.8.2m-232.9-34.3-.6-1.1-.8-1.6q-.2-.7-.6-.4l-1 .4q-.5-.1-.2 1.1c.3 1 .4 1.1 1.5 1.4zm238.8 32.7c.2-.9.1-1-.3-1.2l-1-.6q-.3-.5-1.1 1.2l-.8 1.5h1.4c1.4 0 1.5 0 1.8-1M418.4 649q1.6-1.7 1.7-5-.1-4.5-2.9-8l-1.4-2-.3 1-1.1 4c-.6 1.7-1 3.5-1 4.1.2 3 1.8 5.9 3.5 6.4q.7 0 1.5-.5m165.8 24a7 7 0 0 0 1.7-4.5c0-.5-.5-2.9-1.2-5.3-1.2-4.1-1.2-4.2-1.8-3.7a14 14 0 0 0-3.8 8.1c.1 2.7 1.8 5.8 3.3 6.3q.7 0 1.8-1M337 638.2c7.2-1.9 15.8-6.1 34.3-16.4a79 79 0 0 1 22.6-10c7.4-.8 13.6 3 17.2 10.6l1.2 2.8v-1.8c.1-2.4-.3-4-1.7-6.2-2.2-3.1-4-4.6-13.6-10.7-17.5-11-17.5-11-22.3-11.3-4-.2-5 0-16 5.3-26.2 12.4-38 16.5-47.6 15.6a13 13 0 0 1-7.8-3l-1.3-.7c-.2.6.9 3.2 2.5 5.9 5.2 8 15.7 17.7 21.3 20 2.8.8 7.4.8 11.2 0zm338.9 43.5a58 58 0 0 0 19.5-17.4c1-1.7 2-4.2 2-4.6q-.4 0-1.9 1c-2.5 1.5-4.4 1.9-8.3 1.7-8.8-.6-20.6-6-41.4-20-13-8.7-15-10-17.2-11a19 19 0 0 0-9.1-1.2c-2.2.5-23.8 8.5-26.3 9.7-4.5 2.6-6.3 5.3-6.2 9.5v1.6l1.5-2.6c1.8-3.4 3.9-5.3 7.2-6.6 2-.7 2.4-.7 5.7-.3 2.7.4 3.8.7 5.5 1.5a153 153 0 0 1 22.2 15.5c13.5 10.6 18.4 14 24.4 17.6a37 37 0 0 0 16.8 6.6c2.8 0 3.3 0 5.6-1m-309-41.1c1.5-.6 2.7-1.7 2.9-2.4q-.3-1.6-2.5-2.3c-1.9-.5-3.1-.3-6 1.2-2.2 1.4-2.4 1.5-1.8 2 2.4 1.4 5.2 2 7.4 1.5m272.3 37.2 1.2-.7c-.3-.4-4.5-3.4-5.8-4-2.4-.8-4.7-.3-5 1.1.1.9 1.4 2.4 2.8 3.3 1.5.7 5 .8 6.8.3m-233-33.3c2-.8 2-1.5.8-3.4a9 9 0 0 0-7.5-3.3l-3.4.2q-1.2 0-1.4.4c.3.9 2.7 3.5 4.8 4.8q4 2.3 6.8 1.3m5.8.6-.2-1.9c0-1-.1-1-1.2-1.2-1.2-.2-1.1-.3-1.3 2q0 .5 1.2 1.1c1.6.8 1.7.9 1.5 0m177.5 26.2q.8-.1.6-.7l-.2-1.3q.1-1-1.2-1.1c-1.1-.3-1.1-.3-1.1.9l-.2 2c-.2.8-.1.8 2.1.2m10.8 1c2.2-1.1 4.7-3.2 4.3-3.8a39 39 0 0 0-7.8-2c-3.5.4-5.8 2.4-5 4.4 1.5 1.9 5.2 2.5 8.5 1.4m-220.5-32.7q1.5-4.2-2.3-9-1.6-1.8-2-2-.3.1-.8 3.3c-.3 3.1-.3 3.6.1 5.2a8 8 0 0 0 2.9 3.9q1.2.4 2.1-1.4M623 674.7q1.3-1.5 1.9-3.7c.2-1.5-.5-6.8-.9-7.5-.6 0-2.6 1.7-3.8 3.5-.7 1.3-.9 1.8-.9 4 0 2.1.2 2.7.7 3.4q1.4 1.5 3 .3m-248.2-34.8-.7-1.5-.7-1.3-1.1.3q-1.6.8-.9 2.1c.5.3 3.2.6 3.4.4m253.5 34.7q.1-.9-.5-1l-1.1-.6q-.5-.4-1.2.8l-.7 1.1 1.2.3c2 .4 2.1.4 2.3-.6m-78.4-19.5c1.5-2.8 2.4-3.8 4.5-5.8l3.7-3 1.2-.6-1 1.4c-2.3 3-5 8-5 8.3q.6 0 2.5-.6c4.3-1.7 9-6.7 11.1-12.1a20 20 0 0 0 .9-8q-.4 0-1.1.7l-5.9 3.7a32 32 0 0 0-14 13.8c-1.1 2.2-4 9.5-4 10.3l2.6-2.2c2-2 3-3.3 4.5-6M455 645a50 50 0 0 0-18-25.8l-4.6-4.1-1-1v1.8c0 2.3 1 6.6 2 9.5A29 29 0 0 0 446 639a88 88 0 0 0-5.5-10.8c.6.3 4.6 4.5 6.1 6.6.8 1.2 2.2 3.6 3 5.4a34 34 0 0 0 6.6 9zm-65.5-8.5q.4 0 1.5.9.9.7 1.2.6.4-1-1.5-2.3l-2-1.8q-1.3-1.6-1.3-.6 0 .4-.5 1.3c-.4.8-.4 1 .7 2.7l1.3 1.8v-1.3q.2-1.2.6-1.3m222 32.8c1-1.4 1.1-1.6.7-2.5l-.4-1.3q-.1-1-1.2.1-.7.6-1.8 1.2-1.9 1-2 2-.1.4 1.3-.1c1.8-.7 2-.7 2 1 0 1.5 0 1.5 1.4-.4m-240-33.1q1-.9 1.1-3.3c-.1-1.8-1.7-5.2-3-6.5l-1-.7-.7 2.6c-.7 3.2-.5 4.5 1 6.5 1.2 1.4 1.8 1.7 2.7 1.4m258.6 35c1.6-1.7 1.8-3 1-6.1l-.7-2.7c-.5-.3-2.2 1.5-3.2 3.3a7 7 0 0 0-.3 5.5q1 2.3 3.2 0m-219-31.9c1.4-1.4 1.8-3 1.7-6.1q-.4-4.5-2.6-7c-.6-.6-.6-.6-.9 0l-1.4 3c-1 2-1 2.6-1 5 0 2.3 0 2.8.7 4 1.5 2.1 2 2.4 3.5 1.1M591 665.6q2.7-2.9-.1-9.8l-1.2-3-.3-.8-1 1c-2.9 3.6-3 9.2-.3 12.7 1.2 1.1 1.7 1.1 3 0M365 633.5c.8-.8.1-3-1.2-4-.6-.4-1-.3-3 .7l-2.3 1.5c.2.3 1.7 1.3 3.2 1.9q2.2.5 3.3 0m274.2 37.5 1.4-.7c-.3-.6-4.4-3.4-5-3.5-.8.3-1.8 1.9-1.9 2.9q.5 2.8 5.5 1.3m-42.6-6.3c1.2 0 .3-1.3-1.4-2.2l-1.4-.7-.2 1.2-.4 1.9-.2.7 1.4-.5zM405.8 637l-.3-1.7c0-1 0-1-1.6-.7q-1.2.3-1.6 1c-.2.5-.1.6 1.6 1.4l2 .8q.2 0 0-.8m-7-1.5c1.3-.4 1.5-.7 1.6-1.5.1-1 0-1.3-1.2-2.4-2-2-3.1-2.3-7.4-1.5q-3.1.7-3.4.9.1.3 1.4 1.7 4.6 4.2 9 2.8m208.5 30c1.7-.8 3.5-2.3 3.4-2.7l-6.2-2.9c-3.2-.6-6.4 1.3-5.9 3.5 1.5 2.3 5.2 3.1 8.7 2m-224.6-33c2.4 2 2.3 2 2.9 1q1.4-3.1-1.3-4.6c-1.5-.5-6.4-1-6.8-.8l1 1.2c.5.6 1.2 1.9 1.7 2.9l.8 1.8.1-1.4.1-1.4zm235 32.7q.2.1.3 1.1v1.1l.5-1 1.8-2.3 1.3-1.4-1.3-.4q-6-1.5-7.1.8c-.2 1.1 0 2.7.6 3.5.3.4.6.3 2-.5zm16.2 0q-1.5-1.5-1 .8l.2 1.3.8-.7.8-.6zm-267.7-36 .2-1.4c0-.6 0-.6-1 0s-1 .7-.4 1.3q1 1.5 1.2 0m38.4 3.3q3-4-.5-10.6c-1-1.7-1-1.8-1.4-1l-1.5 3c-1 2-1 2.6-1 4 .5 2.8 1.7 5 3 5.4q.6 0 1.4-.8m192 28.8c1-.5 2-2.4 2.3-4.4.1-1.5 0-2-1-4.2l-1.4-3.3c-.2-.7-.3-.7-1.1.2a10 10 0 0 0-2.2 6.6c.2 2.2 1.2 4.5 2.1 5l.6.3zm-223-33q0-1-1.1-2.5c-1-1.3-1.2-1.4-1.6-1s-.4.6 1 2.5l1.6 2.1zm252.7 36q.3-.7 1.4-1.8c1-1.1 1-1.2.6-1.8-.5-.5-.6-.5-1.6.6q-1.1 1.4-1.2 2.3.2 2 .8.6M390 628.4l2.2-.7q0-.4-1.6-1.9a28 28 0 0 1-5.4-6.8l-.8-1.6-1.6.9-1.7 1q0 .4 1.2 2.1l3.4 4.6c1 1.6 2 2.8 2.1 2.9zm223 31.2q1.4-2 3.2-4l2.2-2.5-1.5-1.2-1.8-1.3q-.3 0-.8 1-1.5 2.6-5 5.2l-2 1.8c.3.4 3 2 4 2.3q.6 0 1.6-1.3m-228.7-33c-.1-.5-2.2-3.6-3.5-5.1l-1.3-1.5-2.5 1.4-3 1.7q-1 .3.2 1.1.8.8 1.8 1.2c1.3.4 8 1.2 8.3 1.1m239.2 33.8 2-.8q1-.6 0-1l-3-2.4-2.4-2-1.3 1.2a26 26 0 0 0-3.6 4.2c.4.2 6.7 1 8.3.8m-225.8-34.2q0-2.4-2.8-6.2c-3.2-3.9-4.7-4.7-7-4-1.9 1-1.7 2.3.9 5.7 2.7 3.2 5.8 5.3 8 5.6q.9.1.9-1m208.5 30.4c3.2-1.5 6.4-4.6 6.7-6.5-.3-2.2-2.7-3.3-5-2.4a20 20 0 0 0-5.4 5.5q-1 2.5-.5 3.7c.6.4 2.5.2 4.2-.3m-198-32a4 4 0 0 1 1-1.7c.4-.3.4-.5-.4-1.9-1.1-2-3.4-4.5-4.9-5.4-1.5-.8-3-1.2-3.2-1l2.8 3.7c2.5 3.2 3.2 4.5 4 7.2q.3 1.3.8-.9m184 27.6a10 10 0 0 1 2.3-4.3l2.7-2.6 2-2h-1.1q-4.8.7-7.5 4.5c-.7 1.2-.7 1.4-.3 1.8q.5.6.9 2 .7 2.3 1 .6m-191.7-30.5q.6-1.5.8-2.7-.3-2.3-2.2-4c-1.4-1-4-1.3-5.9-.8l-1.3.4 1.2 1c1.6 1.6 3.7 4.2 5 6.2q.9 1.5 1.3 1.6.3-.2 1-1.7m201 29.5c.6-.9 2-2.5 3.3-3.5 1.8-1.6 2.1-2 1.8-2.4a10 10 0 0 0-4.6-1.5 4 4 0 0 0-3.8 4 13 13 0 0 0 2 5q.3 0 1.3-1.6m-281.6-37.7q4.9-.5 2-2c-1.1-.6-1.4-.6-4.4-.3a11 11 0 0 1-4.7 0q-1.2-.4-1.3 0c.3 1.5 2.5 3 4.4 3zm-10 0-2-1.5c-2-1.6-6.4-6-6.4-6.2.5.2 3.4 2 5.8 3.8l2.7 2c.4-.2-.6-2-1.5-2.7-.5-.4-2-2-3.3-3.6-3.4-4.1-4.8-5-9.3-5.4q-3.2-.1-4.2.1l-1 .3 1.9 1.2 5.2 4c5.1 4.5 7.2 6 9.3 7.2 1.8.8 3 1.2 2.7.8m376.5 45.9q1.5-.9 1.6-2 0-.3-1.5 0c-1.2.1-2 0-4.3-.6-1.6-.4-3.2-.6-3.7-.6-1 .3-2 1.1-1.9 1.5.5.3 6 1.8 7.4 2q1.5 0 2.4-.3m6.8-.5a28 28 0 0 0 7.8-5.2c1.8-1.5 4.3-3.2 5.6-3.9 2.8-1.5 2.5-1.7-2.5-2-4.6 0-6.1.6-8.9 3.5q-2.8 3.3-4.6 4.7-.8.7-1 1.4c.1.6.3.6 2-.7a41 41 0 0 1 6.3-3.6c1 .2-3.8 4-6.3 5.6l-2 1.3q.3.3 3.6-1zm-364.4-48 2.1-.9-.1-2.3c-.3-2.4-1.6-5.7-2.7-7-.6-.5-.7-.3-2.1 3.8-1 3.2-1.2 4.7-.7 6.3.4 1 .8 1 3.5 0m345.5 44q.8-2.4-1.9-9.1l-.5-1.4-.7.8c-1.7 2.4-3 6.5-2.5 8.2a20 20 0 0 0 4.8 2.7q.3-.1.8-1.1m-356.8-45.3q1.1-.4 1.5-1.1c.6-1.7-1.5-4-4.6-4.9a34 34 0 0 0-7.8.8c.1.5 1.5 2.2 2.9 3.3q4.3 3 8 1.9m6.1.4q0-.8-.2-1.5c-.2-1-.3-1-1.3-1.2q-1.1 0-1 .5l-.3 1q-.1.3 1 1c1.7.8 1.8.8 1.8.2m353.8 44.8q1.3-.4 1-1.4.1-1-1-1c-1.2-.2-1.4.2-1.5 2 0 1 0 .9 1.5.4m11 .2c1.7-.7 4.3-3 4.6-3.8q0-.3-.8-.4l-3.2-.7c-3.2-.8-4.6-.7-6.7.6q-2.6 1.5-1.7 3.1c1.2 1.8 4.5 2.3 7.9 1.2M337 607.8q2.1-1 2.5-1.4c0-.7-2.4-1.8-5.5-2.4-2.4-.4-2.6-.4-2.5.1l1 4.1q.1 1.2 1.1.8c.5 0 2-.6 3.4-1.2m329.8 43.7.6-2.6.5-1.8h-2.7c-3 .1-5.2.7-5.5 1.4l6.5 4q.4-.1.6-1m-344.2-45.8c1.9-1.4 2.5-5.6 1.3-9.1q-1.7-3.4-2.4-3.7c-.5.5-2.4 5-2.8 6.9q-.2 3 1.5 5.2c1 1 1.4 1.2 2.4.7M679.2 650c1.9-2.4 1.8-4.9-.2-10l-1.1-2.6-.7.9c-2.5 3.3-3 7.2-1.6 10.7q1.7 3.1 3.6 1M342 605.6l-.2-2-.4-1.8-1.1.1q-1.7.3-2 1.4l1.1 1 1.2 1.1c.1.4 1 .6 1.4.2m316.8 41.6 1.3-.9q1.3-.4.6-1a8 8 0 0 0-2.8-1.6l-.6 3.7q.6.6 1.5-.2M312 601.6q.6-.4 1-1c0-1.7-2.6-3.8-5.5-4.2-2 0-5.9.4-6.4.7-.2.5 1.4 2.3 3.3 3.7 2.6 1.5 5.5 1.8 7.6.8m5.3.5c0-1.4-.3-1.6-1.7-1.7-1.1 0-1.2 0-1.3.8q-.2.9 1.3 1.3l1.5.4q.2 0 .2-.8m30.5.7c1-.7 1-.8.8-2.5q-.7-5-3.2-2.5c-1.8 2.2-2.6 4.7-2.2 6.4l.4.9 1.5-.8zm308.3 42c-.1-2.8-2-6.5-3.6-7q-1.5.1-1.7 3.3v1.7l2.2 1.8q2.1 1.6 2.6 1.7.3-.1.5-1.6m28.2 3.3q.6-.3.7-1t-1.2-.8c-1.4-.2-1.7 0-1.8 1.4 0 1 .1 1 2.3.4m10 0c1.9-.9 4.1-2.9 4-3.5-.5-.3-4.5-1.2-6.3-1.4-3.2 0-5.7 1.7-5.5 3.7 1 1.8 4.5 2.4 7.8 1.3m-357.6-45.9q1.8-.7 0-2.8c-1.4-1.8-2.5-2.3-5.1-2.5h-3.2c-.9.3-.9.3-.4 1.4 1.8 3 5.8 4.8 8.7 4m331.1 43a9 9 0 0 0 3.6-3.2c.4-.8.4-.8-.8-1.1a19 19 0 0 0-6-.3c-1.4.7-2.7 2-2.9 3q0 .6.6 1c1 .5 4.2.8 5.5.5m-350.7-47.4q2.4-4-.5-9.3l-1.2-1.7q-.4.3-1.5 2.8c-1.3 3.2-1.5 5.3-.7 7.3.9 1.7 1.1 2 2.2 2q.8.1 1.7-1.1m24.1 2.5a7 7 0 0 0 2.7-3.6q-.1-.6-2-1.8c-1-.7-2.1-1.2-2.3-1.2-1 .3-1.6 3.8-1 5.7.8 1.5 1.3 1.6 2.6 1M660 642.5q1-.8 1.2-3c-.1-1.7-.8-3.6-1.4-3.8-1 0-4 1.6-4.2 2.1q.1 1.6 2.1 3.7c1.2 1.2 1.6 1.3 2.3 1m25 1.8c1-.7 1.8-2.9 1.7-5-.3-1.8-2.2-6.5-2.6-6.9-.6.3-2.1 3.2-2.7 5.2-.3 1.4-.3 2 0 3.3 1 3 2 4 3.7 3.4m-332.2-44.2 2-1.2-1.2-.5q-3-1-3.3.4c-.1.9.1 2.2.4 2.4zm296.4 40.1q.1-1 0-1.6-.8-1-3.4-.5l-1 .3 1.8 1.4 2.1 1.5q.3 0 .5-1m-338-46.3c0-1.3-.1-1.3-1.2-1.3q-1.3 0-1.1 1-.1 1 1 1.4l1.3.3zm-5.5.5q3-1.5-.2-4c-1.8-1-3.5-1.3-7-.8-4 .6-4 .7-2.4 2 3.2 2.6 6.8 3.6 9.6 2.7m384 46.6q.7-.5.8-1.1.1-.8-1.2-.8c-1 0-1.1 0-1.1 1.2q-.1 1.8 1.5.7m11 0c2.2-1 3.8-2.3 3.7-2.8a38 38 0 0 0-8.1-1.6c-1.7.3-3.3 1.1-3.9 2-.9 2.9 3.6 4 8.3 2.4m-375.4-47.3q.1-1.4-.7-3.2c-1-2-3.2-5-3.8-5.2-.4.2-.4 2.3 0 3.6 1 1.9 3.8 6.1 4.1 6.3q.4 0 .4-1.5m5.3 1.6-1.3-1.6-2.2-3.3q-1-1.9-1.2-1.2l.3 2.1q.5 1.5.5 2.9v1.3h1.9zm341.8 43.1c0-.7.3-2 .5-2.9q.8-3.2-.9-.8c-.5.8-1.5 2-2.3 2.7-1.6 1.4-1.6 1.5.3 1.9 2.4.5 2.4.5 2.4-.9m3.5-.6c.8-1.1 1.7-2.7 2-3.5.8-1.6 1-3.6.5-4-.6.3-2.6 2.6-3.8 4.6q-1.2 2.5-.7 4.4l.4.5zm-317.2-40.6q1.3-.6 1.3-1.1c-.3-.8-3-3-7-5.3a70 70 0 0 0-9.4-4 119 119 0 0 1-9.5-3.4c-.2.5 1.2 3 3 5.2q3.9 3.8 7.8 5.7a64 64 0 0 0 7.7 2.4c.4-.3-2.2-2.3-5.8-4.8q-4.4-2.9-2.3-2.2a51 51 0 0 1 11.9 7.4c.8.9.7.9 2.3 0m285.7 38a31 31 0 0 1 11.1-4l-3 1.7c-4 2-6.4 3.4-6 3.7l3.3-.2a20 20 0 0 0 12.4-5.4c1.8-2 3-3.9 2.9-4.5q-.4-.1-2 .4c-.9.3-4 1-7 1.5s-6.6 1.2-8.1 1.6c-4.5 1.4-8.6 3.6-9 4.5a7 7 0 0 0 2.6 2zm-309.4-40.7c1-.5 1.2-.8 1.2-2-.2-2.6-2.9-5.7-6.9-8.1-3-1.7-3.3-1.7-3.1 0a17 17 0 0 0 6.2 9.8c1.3.7 1.7.7 2.6.3m331.2 43.1c2.7-.9 6-5.2 6.8-8.8.1-1.2.1-1.4-.5-1.4-1.1 0-4.9 1.8-6.7 3.1a9 9 0 0 0-2.9 4.8c.1.8 1.3 2.4 1.9 2.6zm-302-42.3c1.2-.5 1.2-.5.5-4.4-.4-2.8-.4-2.9.9-11.1l.4-2.7.6 1.4c.5 1.3.6 2.3.7 8 0 8 0 7.4.6 7.5.8 0 1.3-1.1 2.1-4.8a27 27 0 0 0-6.8-24.6l-.1 3.2c0 3.5 0 4.4-1.8 10.5q-2 7.5.3 16.1c.4 1.5.7 1.6 2.5 1m274 35.2a29 29 0 0 0-.6-15.5 25 25 0 0 1-1.3-9v-4.3l-1.1 1.2q-4.6 5.3-6.1 11.2c-1 6 .2 15.2 2.2 16.4.5 0 .5-.5.6-6.9.1-6 .3-7.1.7-8.2l.7-1.3.4 2.7c1.3 8.5 1.3 8.6.8 11.1l-.6 3.2c0 .8 0 1 1.1 1.6 2.3 1.2 2.3 1.1 3.1-2.2M278 581c-6.5-13.7-8.8-20.4-9-24.8.1-1.6.3-2.2.8-3q.5-.8.5-1.1-.4-.4-2-.7c-6.7-1.2-7 5-1.2 17.7A69 69 0 0 0 282 590zm33.7 8.6a9 9 0 0 0-.1-7.6c-1.4-3-1.6-3-2.8-.5-1.9 4.4-2 5.9-.7 8.5.6 1 .8 1 1.8 1 .8 0 1.1-.2 1.8-1.4M691 636.9c1.6-2 1.6-4.2-.3-8.9l-1-2.3-.7.7c-2.4 3.6-2.6 7.8-.4 10.6q1.1 1 2.4-.1m30.2-1.8c8.7-10 14.9-22.5 15-29.8 0-3-.5-4-2.2-4.6-1.4-.4-2.3-.3-4 .4-1.1.4-1.1.4-.3 1.3q.7.7.7 1.6c.3 5-1.8 11.2-8.6 25.4l-4.2 8.9c.1.5 1-.3 3.6-3.2m-414.9-47.4c-.1-1.4-.2-1.5-1-1.5q-1-.2-1.3.8c-.5 1.2-.5 1.2.7 1.7 1.7.7 1.7.6 1.6-1m389.4 47.5c.4-.6-.6-2-1.5-2q-.8-.1-.8 1.4l-.1 1.5 1-.4q1-.2 1.4-.5M360 592.4l-.2-1.1q-.3-.9-.7-.1-.6.4 0 1 .8 1 1 .2m280.7 37.9q0-.3-.5-.8-.4-.3-.5-.1l-.2 1q-.4 1 .5.5.6-.3.7-.6m-339.8-43c2.6-1.2 1.6-3.3-2-4.6-1.2-.2-5.8.5-6.6.9 0 .4 2 2.4 3.7 3.3a8 8 0 0 0 4.9.4m18 .3q1.1-4.2-2-8.2l-1.2-1.5-.4 1c-.5 1.6-.4 4 .3 5.8.8 1.7 2.2 3.7 2.7 3.9q.3 0 .6-1M682.2 633q3-4.4 1.8-8.3l-.3-1-.8.6a10 10 0 0 0-2.5 8.6c.6 1.4.7 1.4 1.8 0m21.6 1.5c1.7-.8 3.2-2.2 3-2.7a15 15 0 0 0-5-1.3c-3.3 0-5.2 1.4-4.7 3.2 1 1.4 4 1.8 6.7.8m-378.6-48.1c-.1-2-.9-3.5-5.2-9.2l-3.8-4.8-.6.7-.6 1 3.6 5.3a44 44 0 0 0 6.3 8.5q.3-.2.3-1.5m354.2 40c2.6-3.3 4.5-6.2 4.6-6.5q0-.7-.4-1.2c-.4-.5-.8-.2-4.5 4.1a53 53 0 0 0-4.5 5.9c-.5 1.5-.5 3.7-.1 3.9zM357.2 589c1.4-2 1.8-4.2 1.4-7.8l-.5-3c-.4 0-5.3 4.9-6.4 6.4q-.6 1.3-.7 2.2c0 1 .2 1.1 2 2.2q2 1 2.7 1.2.6 0 1.5-1.2M646 628.7c2.4-1 2.6-1.3 1.7-3.7-.6-1-5.8-7.6-6.5-8.2l-.6 2.3q-.8 6 1.7 9.5c1 1 1 1 3.7 0m-340.3-44.2a8 8 0 0 0 1.2-5c-.3-1.7-1.6-4.2-2.1-4.5a26 26 0 0 0-2.4 5v2.5q1.3 3.8 3.3 2M696.2 631c.5-.8.6-1.4.5-3-.3-2.2-1.7-5.7-2.3-6-.6.4-1.8 2.9-2 4.5-.2 2.5 1 5.1 2.5 5.5q.6 0 1.3-1m-346.6-44.7.4-1.3q.4-.8-1.1-.8c-1.1 0-1.4 0-1.9.7-.6 1-.7.9.8 1.5 1.6.6 1.6.6 1.8-.1M651.9 627c1.1-.2 1.1-.3.3-1.4-1-1-2.9-1.4-2.8-.4.5 2.1.6 2.2 1.1 2zm-319-43c-.6-2.2-1-3-2.1-3.7q-2-1-1 1.3.3 1.4 1.5 2.3c1.6 1.2 1.8 1.2 1.5 0m334.9 43.5q1.9-1.4 2.1-3.1c0-.8 0-.8-1.4-.4-.9.4-1.2.7-1.5 1.8l-.6 1.9q-.4.9 1.4-.2M290.3 581q-.1-.3-1.8-1.5c-2.5-1.9-7-6.5-6-6.7q2.6 1 6.6 4.5 2.3 2.2 2.4 1.9c-.1-.4-1.1-2-2.2-3.8-3.4-5-6.4-6.9-11.5-7.5l-2.7-.3.7 1.4a35 35 0 0 0 8.1 9.7c2.7 1.8 6 3 6.4 2.3m421 48c2.5-.6 4.3-1.7 7-4.3 2.2-2.4 5-6.6 5.3-7.5 0-.4-.4-.4-2.2-.3-5.6.5-8.3 2.2-12.1 7.8-2 2.9-2 3-.8 2q6.8-5.2 8.5-5.3c.1.4-4.5 5.3-6.5 6.7q-2.3 1.3-1.4 1.4zm-366.7-45c1.2-.6 1.3-1.3.3-3.2a12 12 0 0 0-5.6-4.5 41 41 0 0 0-8.3-1.2c.2.7 3 4.6 4.5 5.9 3.2 2.5 6.6 3.6 9 3m315.6 41.4c2.6-.8 4.5-2 6.5-4.5l1.6-2.2c-.5-.3-6.4-.5-9 0a8 8 0 0 0-5.5 4c-.4 1.1-.4 1.2.5 2q1.9 1.7 6 .7m-360.7-45.2q1.7-1.8-1.5-5.2a11 11 0 0 0-6.1-3.1c-1.8-.2-1.9-.2-2 .5.2 1 1.4 3.6 2.6 5.1s3.8 3 5.3 3.3q1 0 1.7-.6m405 47c2.3-1.6 4-4 4.5-6 .2-1.2.2-1.2-1-1.2a11 11 0 0 0-8.5 4.7c-.6 1.3-.4 2.7.4 3.3 1.3.7 2.5.5 4.7-.8m-390.2-51q.1-.8-.1-1.2c-.3-.5-.5-.5-1.5-.2l-2.8.5q-1.6 0-1.9.3 0 .3.2.3c.6.3 3 2.8 4 4.2l.8 1.3.6-2.3zm362.9 45.1c2-2.2 3.6-4 3.6-4.2-.2-.7-1.8-2-2.2-1.8-2.4 2.5-7 8-7.4 8.9-.8 1.9-.7 2 .9 1.5a19 19 0 0 0 5-4.4m9.3 5.6c.2-.7 2-3 3.3-4l1-.7-.9-.2-4-1.3q-1.8-.5-.7 3.2c.4 1.1.6 2.3.7 2.7q0 .7.3.7t.3-.4m-358.2-45.4c0-1-1.3-3-4.5-7.2l-3.6-4.3q-.3 0-1.3.8l-1 .8 3.6 4.5c2.2 2.7 4.1 4.6 4.8 5.1q2.1 1.2 2 .3m23.3-.5c.7-.5 1.7-1.8 2.3-3 1.1-2.2 1.2-2.4 1.2-5.9 0-2-.2-3.7-.4-4a25 25 0 0 0-7 6.5c-1 2.7-.8 5.7.5 7q1.3.8 3.4-.6m299.9 41c.6-.8.7-1.2.6-3 0-1.3-.4-2.9-.7-3.7a35 35 0 0 0-6.9-7.5 15 15 0 0 0-.3 3.9c0 3.2 0 3.8.9 5.8 1 2.3 2 3.5 3.6 4.6 1.5.9 2 .8 2.8-.1m-349.2-45.5.7-2q.3-.3-1.9-2c-2.3-1.7-5.2-5-5.4-5.9q0-.4.8-.2t1.7 0c.8-.1.8-.1-.9-1-2-1-2.6-1-5.3-.6l-1.9.3 2.6 3c1.5 1.7 3.5 3.7 4.6 4.5q1.7 1.4 3 3.4l1.3 1.9zM699 623.3a14 14 0 0 1 3.3-3.2c2.2-1.7 6.5-6.2 6.6-6.7l-2.5-.6c-2.3-.5-2.5-.5-4 .2q-2.9 1.3 0 1.1 1.1 0 1.4.2c0 .7-3 3.9-5.2 5.4l-2.2 1.4c-.2.5 1 3.5 1.4 3.8zM330.1 577c-1.6-3.6-1.6-3.6.4-3.5l1.7.2-1-.8a35 35 0 0 1-5.8-7.1c-1.3-2.5-1.5-3.2-.7-3l2.5.6 2 .4-1.4-1.1a21 21 0 0 1-7-10.6l1.1.3c2 .8 2 .6.5-1.4l-2.7-4.3-1-2.4h2.9l-1.9-2-2-2 .1 3.7.3 3.6-1.2-.8c-1.5-1-1.6-1-1.6.2a4 4 0 0 1-.5 1.8c-.4.6-.4 1 0 2.4.6 3 .7 3.1 1.2 1.8q.4-1.2.6-1.3c.5.3 2.4 2.8 3.4 4.9a17 17 0 0 1 1.5 10.4c-.4 1.9-.4 1.8 3.8 7 2.9 3.4 4.4 4.7 5.5 5q.2-.2-.7-2m341 44.4 4.1-4.3c2.6-2.9 2.9-3.4 2.8-4.2q-1.2-5.6 1-10.6c.8-1.7 3.3-5 3.7-5.3q.2.1.6 1.3l.5 1.3.6-2c.5-1.8.5-2 .1-2.9a6 6 0 0 1-.5-2.2q.2-1.6-.6-.8-.6.6-1.3.9l-.8.4.2-3.6v-3.6l-1.9 1.7-1.9 1.7 1.6.2 1.5.3-1.2 2.3c-.7 1.2-1.9 3-2.7 3.9-1.5 1.7-1.4 1.9.5 1.4q1-.3 1.2-.1a19 19 0 0 1-7 9.5l-1.5 1 2-.2 2.7-.2.8-.1-1 2a21 21 0 0 1-6 6.6l-1.7 1 1.8.3c2.1.3 2.1.3.7 3.3q-.8 1.4-.8 1.7.5.6 2.5-.7m-14.7-4.8q-.7-.7-1.6-1c-1 0-1 0-1 1.9v1.8l1.6-1 1.6-.9zm-311-41.4c0-1-1.3-1.1-2.5-.1q-1 .9-.2 1l1.5 1 .8.8.2-1zm-33.2-1.5c2.4-1.2 2.6-2.3.6-4.5a8 8 0 0 0-5.3-2.5c-1 0-7.4 1.2-8 1.4-.2.8 3.1 3.8 5.8 5.2 2.2.9 5 1 6.9.4m382.8 46a15 15 0 0 0 4.6-4q0-.2-.5-.3-.9-.1-3.4-1c-3.5-1.2-5.2-1.3-7.4-.4-1.8.8-3.2 2.2-3.4 3.3q.5 3 6 3.3c1.6 0 2.5-.3 4-1m-353.6-46.3q.5-.7.5-1.2c-.2-1.2-2-3.5-4-4.8-1.9-1.1-2.3-1.3-6.4-1.7-3.4-.4-4.2-.4-4.4-.1.2.7 2.7 4 4.5 5.5a10 10 0 0 0 6.8 2.8c2.1 0 2.6 0 3-.5m324.3 42.2a14 14 0 0 0 6.5-6 29 29 0 0 0-9.5-.2c-4.3 1.6-6.4 4.5-4.2 6.3 1.5.7 5 .7 7.2 0m-373-45.6c-.1-.2-5.3-5.4-9.1-8.8-5.6-5-8.4-6.7-10.4-6.9-1 0-1.2.2-1.5.9-.6 2.1 0 6.2 1.2 9.5l.6 1.2 3.5.3c3.8.4 6.2 1.2 8.7 2.8 1.4 1 1.7 1 4.2 1.1zm421.5 47.2a18 18 0 0 1 8.8-2h2.7l.7-1.5q1.5-3.6 1.6-6.8c-.3-5-2.8-4.5-10.9 2-3.2 2.6-10 8.7-10.4 9.2l2.6.2c2.5 0 3 0 4.9-1M318 569.6q2-2 2-6.2a9 9 0 0 0-1-4.8q-1.6-3.6-2.2-3.5l-1.8 3.6c-1.5 3-1.6 3.6-1.6 5.7 0 2.3.4 3.7 1.5 5.1q1.5 1.3 3.1.1m366.6 45.5c2-2.7 1.8-5.7-.4-10.9-1.6-3.4-1.6-3.5-2.2-3-.4.3-1 1.5-1.7 2.7-1 1.9-1 2.4-1 4.8 0 2.1.2 3 .7 4.2q2.4 4.5 4.6 2.2m-338.5-43.4c3.8-2 5.3-6.8 4-12.2l-.4-1.2-2.7 2.6c-3.3 3-4 4.5-4.2 7.3q0 4.8 3.3 3.5m309.4 41.4c.8-.6 1.3-2.5 1-4.2-.4-2.5-1-3.6-4-7l-2.9-3.3-.4 1c-.2.5-.4 2.2-.4 3.8.1 4.2 1.3 6.8 4.2 9.1 1.2.9 1.6 1 2.5.6m-343.8-48.4c0-1.5 0-1.5-1-1.6q-1.3-.1-1.4.7c-.3 1.3-.2 1.4 1 1.9l1.4.5zM689.6 612q1 .2.4-1.6 0-.8-1.3-.8c-1 0-1 0-1 1.4 0 1.5 0 1.5.6 1.3q.6-.3 1.3-.3m-383.2-47.4q3-1.8-1-4.9c-2-1.3-4.2-1.6-7.9-.8-1.5.4-2.8.8-3 1-.2.5 1.5 2.3 3.4 3.6q4.9 3 8.5 1.1m394.5 46.8a18 18 0 0 0 4.3-3.6l-3.2-1.1c-5-1.5-7.7-1.1-9.8 1.4q-1.5 2 1 3.4c2 1 5.3 1 7.7 0m-359.5-46 .2-1.6-1.4-.1c-1.1-.1-1.5 0-2 .6s-.5.7 1 1.9q1.5 1 1.8.9zM660.9 608c.8-.5.8-.5.2-1.3-.5-.7-.8-.8-2-1h-1.4l.2 1.2.4 1.8c.2.7 0 .8 2.6-.7m-368-44.5 1.5-.3-2-1.8c-1.2-1-2.6-2.4-3.3-3.3l-1.2-1.5 1 .3c1.3.3 1 0-1-1.9a35 35 0 0 1-5-5.5q0-.3 1-.3h1l-1.4-1c-.8-.5-2-1.5-2.6-2.2q-1.1-1.1-1.8-1.3c-1.7.2-12 4-12.3 4.3l2.7.9a40 40 0 0 1 16.1 10.4c4 3.8 4 3.9 7.2 3.2zm418 47.8a124 124 0 0 1 9.5-7.9 36 36 0 0 1 9.2-4.2l2.6-1c-.4-.4-10.5-4.3-12-4.5q-.7 0-2 1.3c-.7.7-1.9 1.6-2.7 2l-1.5.8h1.3q1 .2 1.2.5a61 61 0 0 1-6.2 6.3l-1.2.9 1.1-.2 1.1-.2-.6 1c-.9 1-3 3-4.7 4.3l-1 .8 1.7.4c2.8.7 3.3.7 4.2-.3m-374-48.3c1-.9 1-1.2-.2-3-2.2-3-3.9-4-9-4.8l-3.8-.4c-.2.5 1 2.5 3 4.5 2.6 2.7 4.6 3.8 7.4 4.1 1.6.2 2.1 0 2.7-.4m332.2 42.6c1.3-.6 3-1.6 3.7-2.3 1.5-1.5 2.7-3.4 2.6-3.9l-3.8-.1c-4.2 0-6 .5-8 2.1-1 1.1-2 2.4-2 3.1q0 .4.7 1.1 2 1.8 6.8 0M311.4 561q.7-.4 1.5-2c1.3-2.7 1.2-5.4-.2-9l-1.6-3c-.6-.5-.7-.3-2.2 2.7-2.2 5-2.3 8-.3 10.6q1.3 1.5 2.8.7m379.1 46a8 8 0 0 0 1.3-7.4l-1.7-4c-1.5-3.2-1.6-3.2-3.2 0-1.8 4-1.5 8.6.7 11.2q1.5 1.5 2.9.2m-347.6-46.3a9 9 0 0 0 2.7-6.7 13 13 0 0 0-.7-5l-3 2.6c-2.4 2.2-3 2.8-3.4 4.4-.6 2.2-.5 4.4.3 5.5q1.6 1.5 4.1-.8M660.3 604c.5-.4 1-1.7 1-3.1 0-2.5-1-4.3-3.9-7.5-1.5-1.7-2.8-3-3-3-.4.2-.8 3.8-.5 6.3 1 4.8 3.9 8.2 6.4 7.3m-354.8-47.8-.1-2h-1.5c-1.3 0-1.5.3-2.1 2.5.1.2 2 1 3.5 1.3zM696 604.4c1.8-.2 1.8-.3 1.4-1.1l-.6-1.3c-.4-.6-2.3-1.1-2.8-1l-.2 2c0 1.7.1 1.9.6 1.7zM299.2 556q3.2-1.8-.3-4.8c-2.5-1.6-5.8-1.6-11.4 0q-.5 0 .6 1.4c3.5 3.4 7.8 4.7 11.1 3.4m408.3 47.5c2-1 4.2-2.8 4.3-3.5-.5-.5-5-2-7.1-2.1-2.9 0-4.4.7-5.7 2.5q-1 1.5.6 2.7 3.3 2.2 7.9.4m-370.7-47.8q.1-1 .4-1.6.3-.8-.8-1l-1.4-.5q-.6-.4-.9.8c-.3 1.6-.3 1.5.7 2.3 1.4 1 1.7 1 2 0m327.4 43 1.3-.7-.3-1.4q-.3-1.4-.8-1l-1.5.2q-1.1 0-.7.8l.7 2.7zm-359.7-46.4c2.6-2.6 2.5-8-.3-12.6l-.8-1.1-.9 1.7c-2.8 5.8-3 9.3-.6 11.9 1.3 1 1.3 1.1 2.6.1M698 598.8c.8-1 1-1.6 1-3.6.1-2.2 0-2.6-1.4-5.6l-1.7-3.4c-.5 0-1.7 2-2.4 4q-1.5 4.8.9 8.5 1.8 2.4 3.6 0zm-365.7-45c2-1.9-1-5.5-5.6-7-2.7-.6-5.5-.7-5.8-.4.2.6 2 3.4 3.2 4.6 3 2.6 6.2 3.7 8.2 2.8m339.3 43.7a12 12 0 0 0 6.8-6.2c-.3-.2-5.3-.3-7.3 0a9 9 0 0 0-4.7 4q0 3.4 5.2 2.2m-373-50v-1.9h-1.5c-1.3.2-1.4.2-1.4 1l-.2 1.2q-.3.4 1.4.9l1.6.4zm39.6 3.6a7 7 0 0 0 3-5 11 11 0 0 0-.5-5.4l-2.6 2c-2.8 2.8-3.5 4.2-3.3 6.5q.5 3.7 3.4 1.9M663.8 594q1.2-1.4.5-4.2c-.3-1-1-2.2-3-4.5l-2.8-3.2-.4 2.1c-.4 3.9.7 7.3 3 9.3 1.4 1 2 1 2.7.5m39.4 2.3c.7 0 .8 0 .6-.9-.4-1.7-.4-1.8-1.7-1.8h-1.4v1.6c0 1.6 0 1.6.9 1.4zm-410.7-48.6q2.1-1 1.2-2.6-1.5-2.2-5-2.4c-2 0-6.5 1.2-6.8 1.6.3 1 3.4 3.1 5.7 3.9a9 9 0 0 0 5-.5m421.2 48.2a10 10 0 0 0 3.8-2.8c-.1-.1-1.5-.7-3.3-1.2-3-1-3.5-1-5.1-.7-2 .4-3.6 1.6-3.8 2.7.6 2.4 4.6 3.3 8.4 2m-26.1-4.1 2.5-3.4c.5-1.3.6-3 .2-3.2q-.4.1-2 1.8a14 14 0 0 0-3.3 5.7c0 .7.3 1.6.5 1.6zM314.4 547c0-1.4-1.4-4.1-3.3-6.4l-2-1.9c-.3.2-.3 1.7.1 3 .7 1.3 4.3 6 4.8 6.2q.3 0 .4-.9m19.2.5.2-1.7-1.8-.2c-2.7-.1-2.8.3-.6 2.3l2 1.4zM668 591.4l1.6-1-.2-.7q-.6-.5-2-.7h-1.5l.1 1.6q0 1.6.3 1.7zm-359.1-45.1c.2-.7 0-1.2-.5-2.7-.5-1.1-1-2.9-1-4.2-.3-2.2-.3-2.2-2.7-5l-2.8-3.5c-.4.3-.1 2.8.6 4.4.3.5 1 1.8 1.8 2.7q2.6 3.3 3.3 7.1.6 3 1.3 1.2M691.7 592c.4-2.2 1.8-5 3.6-7.3 1-1 1.7-2.4 2-3.4q.9-3 .2-3.2-.4 0-.4.3c0 .2-1 1.4-2.3 2.7-2.3 2.5-2.4 2.7-2.7 5.6q-.3 1.5-.9 3.1-1.2 3.3 0 3.8.3-.1.5-1.6m-421.1-51.8c-2-2.1-3.3-3.8-3.4-3.9.7-.1 3.8 2 6.6 4.6q5.6 5.6 1.6-.4c-4.1-5.7-7-7.3-14.6-8.5q-2.2-.4-.6 1.1l4.3 4.7 4.7 4.7c1.4 1 4 1.8 4.6 1.6zm458.2 52.4a27 27 0 0 0 7.6-7.1l3.4-4h-1.2c-2 .1-5.9 1-8 2-1 .4-2.5 1.5-3.4 2.4a21 21 0 0 0-4.8 6.7q.6 0 3.4-2.7c2.8-2.6 5.4-4.4 6-4.2q0 .8-4 5l-2.4 2.5h1q1 0 2.4-.6M298.2 544c1.1-1 2-3.5 2-5.7a14 14 0 0 0-2.2-5.8c-.6-.5-.7-.4-1.9 2.1-1.8 4.4-1.8 7.1.1 9 1 1 1 1 2 .4m405.7 46.3c1-2 1-3.5-.6-7.4-1.3-3-1.4-3.2-2-2.7a13 13 0 0 0-2.1 5.4c-.1 1.8.2 3.1 1.2 5 .6 1 .8 1.1 1.7 1.1s1.2-.3 1.8-1.4m-387.7-49.8c-.8-2.8-2.5-6.3-4.2-8.6l-4.7-5c-3.3-3.2-3.5-3.4-4.7-3.4h-1.2v1.5c.4 3.2 2.3 6 8.4 12.1 2.5 2.5 5 5.2 5.6 6.1l1 1.7.2-1zm376.4 40.1c3.4-3.3 4.8-5.5 5.4-8.4l.2-1.5h-1.4c-1.3 0-1.5.1-5.2 3.4-6.3 5.7-7.7 8-8.8 14.6l-.2 1.4 3.4-3.2zm-411.5-38.4q1-.1-.8-1c-.7-.4-2.2-1.6-3.3-2.7q-1.9-1.7-2.2-1.8c.2.5 4.4 5.4 5 5.8zm48 2c.7-1.2.5-2.2-1-4-1.7-1.6-3.4-2.2-7-2.5l-3.2-.2.7 1.3c1.1 1.9 3.1 4 4.8 5q1.3.7 3.2 1c1.6 0 1.9 0 2.5-.7M676 588.5a16 16 0 0 0 5-4.7l.4-.9-2.8-.2c-4-.2-5.5.1-7.3 1.7-1.1 1.1-1.4 1.6-1.4 2.5q0 1.2.7 1.6 2.4.9 5.4 0m44.8 1.9c1.8-2 3.4-4.2 3.4-4.3l-2.2 1.8-3.2 2.3q-1.4.6-.5.8c1.2.5 1.5.4 2.5-.6m-427.2-48.9-.2-1.6q.2-.7-1.4-.5-2.2.3-2.2 1.6 0 .3.7.5.8 0 1.7.5c1.5.7 1.6.7 1.4-.5m414 48.5q1.9-.6 1.7-1.2l-.2-.7-3-.7-.4 3.2zM333 544a7 7 0 0 0 3.4-3.9c.5-1.9.5-6.3 0-7.2-.6 0-4.4 3.6-5.4 5.3-1 2.3-.8 4.5.4 5.7.6.4.8.4 1.7 0M668 587.1q1.2-1.5.6-4.4c-.4-1.2-1-2.2-3-4.5-3-3.4-3.2-3.4-3.2.9q0 4.3 2.3 6.8c1.8 1.7 2.4 2 3.3 1.2m-381.7-46.2q1.5-.3 2.2-1.1c.5-.8.5-1 .1-1.6a6 6 0 0 0-4-2.3c-1.6 0-6 1-6.6 1.3-.2.7 2.4 2.7 4.8 3.5 2 .6 1.8.6 3.5.2m431 48.3a15 15 0 0 0 4.1-2.8c-.3-.3-4.7-1.7-6.3-1.9-3.6.2-5.6 2.3-3.7 4.2q2.5 1.6 5.9.5M344.1 539c-.2-3.9-1.2-6.7-6.1-17-8.5-17.8-11.6-21.2-21.4-23.3-1.3-.2-7.1-1-13-1.4a158 158 0 0 1-33.6-4.8 15 15 0 0 1-10.3-11.3q-.5-2-.8-2l-.8 2.5c-.9 3.9-.1 12.7 2 22a19 19 0 0 0 11.3 13.4c5 2 10.1 2.6 28.7 3.9 23.7 1.8 27.6 2.7 31.7 4.8 6.6 3.5 11 9.4 11.7 15.4.3 3.7.7 1.7.6-2.2M657 578.5q4.5-9 16.1-10.5c1.6-.1 7.7 0 16 .3 22.7.7 32 0 36.7-1.2 3-1 6.6-3 8.8-5.1 2.8-3 4.3-6.2 5.4-12a102 102 0 0 0 1.8-14 28 28 0 0 0-1.2-7.3q-.4 0-.7 1.5a16 16 0 0 1-9.1 11.2c-6.3 2.3-16.8 3.5-38.3 3-12.8-.3-16.5.4-20.8 4a80 80 0 0 0-11.1 17.6c-4.4 8.7-5.3 11.3-5.4 15.4 0 3.5.4 4.3.7 1.3q.4-2.3 1-4.2m-354.7-40.4-.5-1.2c-.4-.8-.4-.8-.5 1 0 1.7 0 1.8.5 1.2zm395.9 46.5q-.2-1.3-.6-.2-.4.8 0 1.7.5 1.4.5.2zm-405.4-47.2q2.6-3.2.4-8.6-.8-1.9-1.2-2.1c-.6.3-2.8 4.5-3.2 6.2a7 7 0 0 0 1.4 4.6q1.2 1.2 2.6 0m416.8 48q1.8-2 1.1-4.9c-.5-1.6-2.5-5.4-3-5.7l-1 1.8q-2.2 5.1 0 8.5c1.1 1.3 1.8 1.4 3 .3m-369-48.5c-.2-.4-.6-1.3-1-1.8l-1-1 .3 1 .1 2.8v1.5l1-.8q.8-.8.6-1.7m319.9 42v-2.6l-.8 1.3-.9 1.8a6 6 0 0 0 1.6 2.2zM329 536.8c1.3-1.9.3-5.7-2.2-8.6a16 16 0 0 0-5.2-3c-.5 0-.6 0-.4 2.3.5 4 1.8 6.5 4.4 8.7 1.9 1.3 2.4 1.4 3.4.6m344 44.4a10 10 0 0 0 4.4-4.8l.9-3.9c.2-2.6.2-2.7-2.6-1.6-2.4 1-3.6 2-4.8 4.2q-2.4 5 .9 6.4zm40.1 1.5q-.6-1-.9 0 0 .7.5.5t.4-.5m-426-48.6c0-.6-.6-.5-.9 0q0 .5.4.5t.5-.5m31.8 1.7c-.1-.6-2.5-5.7-4-8.3-2.2-3.5-2.1-3.5-5.5-3.7l-3-.1 3.6 3.8c2 2.2 4.2 4.8 5 6.2 1.3 2.2 1.4 2.3 2.7 2.4q1.1 0 1.2-.3m4 .5-.9-1.4q-1.7-2.5-2.5-7.6l-.4-2.9-4.7-.3 1.4 2.4a91 91 0 0 1 4.9 9.4c.4.4 2 .7 2.2.4M678.3 581q.5-.3 2-3.1a63 63 0 0 1 4.4-7.8l-2.3-.3h-2.2l-.4 2.7a18 18 0 0 1-3.3 8.4c0 .3 1 .3 1.8.1m6.3-2q1.8-2.5 5-5.6l3.4-3-2.1-.1c-4-.2-4.3-.1-6 2.3a76 76 0 0 0-4.5 8.4q0 .4 1.3.5c1.2 0 1.3 0 2.9-2.5m-406.1-46.5c-.7-.7-2-1.8-3-2.5-2-1.3-7.4-5.7-7.6-6l3.3 1.5q2.8 1.5 3.1 1.3c-.2-.7-2.5-4.2-3.7-5.4a17 17 0 0 0-5.6-3c-2-.5-6.2-1-6.4-.8.2.4 3.8 5 6.8 8.2 5.3 5.4 9.1 7.9 12.6 8.1h1.6zm445.7 49.8c1-.3 2.6-1.1 3.7-1.8a111 111 0 0 0 11.3-11.4l1.6-2.1h-1.6a17 17 0 0 0-11.3 4.6 18 18 0 0 0-2.8 4.5l3-1.3 3.1-1.3-.2.4-3 2.5-4 2.7c-1.3.7-3.7 3-4 3.5.3.5 2.2.4 4.2-.3m-439-49.8q1.4-1.5-.4-4.5c-2-2.9-4.3-4.3-8.3-5-1.9-.3-1.9-.3-1.7.5 1 3 4.4 7.6 6.5 9q2.4 1 4 0M718.4 581q1.4-1 2.3-2c1.2-1.5 3-4.8 3.4-5.9.2-.8.2-.8-1.4-.8q-5.3.3-8.3 4.4c-2.2 4.2-.1 6.4 4 4.3m-383-50c-.3-.7-3-2.8-5.4-3.9-3-1.2-3.2-1.2-1.6.6a10 10 0 0 1 2.5 5.9l.3 1.7 2-2q1.9-1.7 2.2-2.3m333 45.8c.3-2 .8-3.2 2.4-5l1-1.4-1.3.2-2.5.7a12 12 0 0 0-4 2.6 44 44 0 0 0 4 4.6zm-368.2-52c-.4-1.4-.5-1.4-2.2-1.6l-1.8-.2.2 2.3q.5 4 2.8 6.4l1.2 1.1.1-3.4q0-3.2-.3-4.7m401.4 52.4c1-1.9 1.6-5 1.3-6-.6-.6-2.8-.5-3.4.1a13 13 0 0 0-.5 5.8c.2 2.7.2 2.7.9 2.3q.7-.6 1.7-2.2m-405.6-46-.4-2c-.2-1-.5-2.5-.5-3.6q0-1.7-.3-2.3c-.6-.6-3.6-1-4-.7 0 .2.8 1.5 1.8 3 1 1.6 2 3.4 2.2 4.4q.7 2.5 1.2 1.2m408.6 47c.3-1.1 1.5-3.4 3-5.6q1.7-2.2-.4-2-1.2.3-1.8.2c-.5 0-.6.5-.8 2.4-.1 1.4-.5 3-.7 3.8q-.7 2.4.2 2.4zm-414.1-52.6q0-1-.6-2c-.7-1.1-.7-1.1-4.8-1.7-2.3-.3-6-1-8.4-1.5s-4.3-.7-4.5-.7q-.5.9 4 2c4.6 1 6.5 2 8.6 4q1.6 1.8 2 3.1l.6 1.8c.6.3 2.8-3.5 3.1-5m421.8 53c.2-1 1.6-3.5 3-4.8 1.6-1.4 4-2.3 8.2-3.2 3.2-.6 3.8-.9 4-1.7-.1-.3-.4-.3-1.8 0-2.7.6-9.3 1.6-12.6 1.8l-3 .1-.6 1.5c-.8 1.7-.8 1.7 1 4.7q1.8 3.1 1.8 1.6M329 499.3c.5-2.4 1-3.7 2.7-7.9.2-1.5-3.7 1.1-6.9 4.1l-2.1 2.5q.1.4 1.7 1.3l4 2.8zm346.9 44.2q1-.4 1-.7a51 51 0 0 0-6.9-7c-2.4-1.6-2.7-1.7-2-.2 1 2 2.2 5.4 2.6 8l.4 2.5 2-1.1zm-354.6-48c1.7-1.9 2.8-3.8 3.8-7q.5-1.8 0-1.6l-4 1.5-5 2q-2.7 1.8-3 4.4l-.1 1.1 2.4.6c4.1.9 4 .9 6-1m363 46.7q2 0 2.2-.6a7 7 0 0 0-.7-2.4c-1.1-2.2-2.4-3.3-6.2-5l-3.9-2c-1.8-1-1.8-1-1 1.8a18 18 0 0 0 3.9 7c1.3 1.3 1.7 1.5 2.6 1.4zM311 495.3c.2-.7-1-3-2.3-4.8-.7-.8-2.6-2.3-4.3-3.5a23 23 0 0 1-6.6-5.9q-1.1-2-1 .4c.2 4.2 3.9 11.9 6.3 13.4 1.3.4 7.4.6 8 .4m386.2 46.2c1-.7 3-3.7 4.1-6.4 1.3-3.7 2.2-8.8.8-6.7-1 1.6-3.4 3.6-6.3 5.2a31 31 0 0 0-4.5 3.1c-1.6 1.7-3 4.2-2.7 5 .7.3 7.2.3 8.6-.2m-403.9-49-1.2-3.6q-.4-2.7-1.4.5a10 10 0 0 1-1.9 3l-1.3 1.5 1.4.2 3.3.3h1.9zm6.7 2a59 59 0 0 1-4.4-10.8c-.6-2.5-.8-3-1.3-3.1-2.6 0-2.5 0-2.3 1.3.5 2.5 1.9 7.7 2.8 10.2l1 2.5h2.1q2 .1 2-.1m404 47.1c1-1.8 3.2-9.6 3.4-12q.2-.9-1-1H705q-.4 0-1 3c-.8 3-2.3 6.7-3.5 8.8-1 1.6-.9 1.8 1.2 2 1.5 0 1.8-.1 2.2-.8m7 .8h1.1l-1.3-1.6a14 14 0 0 1-2-3.6l-.7-2-.8 2.7-1.1 3.3c-.7 1.2-.5 1.4 1.7 1.3zM280 492.3q-.3-2.6-4.4-4.7c-3.6-1.5-10.4-2.3-11.3-1.5q0 .4 1.4 1.8 2.7 2.5 10.1 4.3c4.1 1 4.2 1 4.2 0m6.5 0q1.4-1 2.4-3.2c1-2.1 1.1-2.4 1.1-6l-.2-4c-.5 0-3.8 2.4-5.8 4.5-2.2 2.8-2.8 6.2-1.5 8.8q1.3 1.6 4 0M717 541c.7-1.3.7-4.3 0-6.2l-1.3-2.3a42 42 0 0 0-6-5.2l-.4 3.2q-.1 7.3 4 10.4 2.7 1.8 3.7.1m8.3-.1c4.2-1 7.6-2.6 9-4q.8-1.1.9-1.5c-.1-.3-1-.3-3.5-.2-7.2.4-11.9 2.7-12.3 6 0 1 .1 1 5.9-.3M313 490.8l1-1.4-1-.7a5 5 0 0 0-3.2-.3c-.7.1-.7.1.4 1.5l1.2 1.8q0 1 1.6-1m376 43.9c-1.1-.6-1.3-.6-2.3 0l-1.3.7q0 .2 1 1.5l1 1.4 1.4-1.5 1.4-1.5zm-408.8-47.7.6-1.8q0-.3-1.4-.6c-1.2-.2-1.6-.1-2.4.4l-1 .7 1.4 1 1.7 1.3q.5 1 1.1-1m440.4 49.6 1.7-1.2 1.1-.5-1-.8c-.8-.6-1.2-.7-2.5-.6q-1.4.1-1.3.6l.6 1.8q.4 1.3.6 1.4.3 0 .8-.7m-403.5-49.3a10 10 0 0 0 4.4-4.3 20 20 0 0 0 1.7-5.5v-.7l-2 .7c-4.2 1.3-5.2 2-6.6 3.3-1.5 1.9-2.3 4.3-1.9 5.6 1 1.6 2 1.8 4.4.9m368.8 46q1.5-1.1 0-4.7c-1.2-2.4-2.6-3.6-6.6-5.6l-3.2-1.5.2 1.6c.9 5 3.5 8.7 7 10.3 1.4.5 1.8.4 2.6 0m-375.2-47.5q.3-.4.4-1.5-.5-5-7.4-9l-3-1.2q-.1.3.2 1.8 1.8 6.5 6.3 9.3c2 1 2.8 1.2 3.5.6m381.1 46.3a14 14 0 0 0 6.9-10.6q-.5 0-3.3 1.2-7 3.2-7.1 8 0 2.9 3.5 1.4M276 484q2-1.8-1.5-5.4c-2.1-2-4.3-2.8-10.2-3.6l-2-.2.7 1.5c.9 1.5 3.4 4.5 5 5.8 3 2 6.3 2.7 8 1.8zm453.6 48.4c2.4-1.3 5.4-4.2 6.8-6.5 1-2 1.3-1.9-3.7-1.2-4 .6-5.8 1.4-7.7 3q-3.4 3.5-1.4 5.3c1.2.7 3.5.5 6-.6m-462.4-48.8q0-.2-.3-.3a24 24 0 0 1-5.8-6.4c-.3.3.3 4 .9 5.4q.6 1.4 1.7 1.4 3.3.4 3.5 0m469.3 49.1q.7-.1 1.2-1.6c.6-2 .9-4.3.6-4.6l-1.5 2c-.7 1.2-2 2.5-2.7 3.1q-1.3 1-1.4 1.4c.1.1 2 0 3.8-.3m-36.8-4.4c1.6-2 1.7-2.3.8-3.2-.6-.6-.6-.6-.9 0-.5 1.5-1.8 4.1-2.4 5.1l-.7 1 .9-.6q1-.6 2.3-2.3m-418.7-46c1.5-1 3.1-3 3.8-5.1.5-2 .6-6.1.2-7.9l-.2-.9-2.9 2.7c-3.4 3.3-4.1 4.7-4.2 7.6.1 3.6 1 4.5 3.3 3.6m20.5-.9-1.4-3.3-.4-1.2-.7.7q-.7.6-.5 1.4a26 26 0 0 0 4 4.6q0-.3-1-2.2M721 531c1.1-1.4 1.1-4.2 0-6.9a26 26 0 0 0-6.3-6.4 29 29 0 0 0 0 8.4c.8 2.1 2.4 4.4 4 5.2 1.4.7 1.4.7 2.3-.3m-408.5-50q0-.4 1-1.5c1-1.1 1-1.2.5-1.6l-1.2-1c-.6-.6-.6-.6-1.7.3-.8.9-.9 1.1-.6 1.6l1 1.5q.9 1.5 1 .7m376 45 .8-1.4-1-1-1-1.2-1 1-1.2 1.1.8.8q.8.8 1 1.5c.3 1 .5.8 1.5-.8m25 .6-.7-4-.4-2.4-1.2.8c-1 .8-1 1-.9 2.4.2 1.4.4 1.8 1.8 3.3q1.6 1.5 1.8 1.5zm-425.3-49c.8-1 1-1.4 1-2.8s-.2-1.7-.9-2.4q-1.6-1.6-1.4.7c0 .8-.2 2.5-.5 3.8l-.5 2.4c.2.3 1.3-.6 2.3-1.7m7 .8a11 11 0 0 0 5.1-6.1c.7-2.4 1-5.2 1-5.4-.7.1-6.8 2.8-8 3.5-2.3 2-3.3 5.5-2.3 7.7q1.3 1.5 4.3.3m413 48q1.4-1.6.1-4.8-1.5-3-4.6-4.7a43 43 0 0 0-5.5-2.6c0 .5.7 5 1.4 6.7 2.3 4.7 6.3 7.2 8.7 5.4m-431.8-50.3.4-1.8-1.2-.5c-1-.3-1.1-.3-1.9.5-1 1.2-1 1.3-.2 1.6l1.4 1 .8 1zM726 524.9q1 .1-.4-1.4c-.9-.9-1.1-.9-3-.1l.4 1.6.5 1.5 1-.8zM310 476c1.4-1.4.4-5-2.2-7.6a40 40 0 0 0-6.7-3.8c0 .1 0 1.2.3 2.4q1.8 7.8 7.7 9.5zm7.3.3a10 10 0 0 0 4.3-4.3c.8-2.1 1.3-4.5 1-4.7-1 0-5.5 1.9-6.6 2.7-2 1.9-2.9 4.6-2 6 .6.5 2 .7 3.3.3m368 45.3q.5-2-1-4.6a11 11 0 0 0-5-3.7l-2.4-1c-.6-.3-.6-.3-.4 1.1 1 4.9 3.8 8.3 7.2 8.9 1 0 1.2 0 1.6-.7m7.9.3q2.5-1.8 4-5.4c.6-2 1-4.3.7-4.5-.5.1-5.6 2.5-6.6 3.2-2.1 1.8-3.3 5.4-2.4 7q1.5 1 4.3-.3M271.7 474c1.7-1.4-.4-4.7-4.1-6.6a54 54 0 0 0-7.6-1.4c-.1.8 2.7 4.7 4.7 6.4q4.3 2.6 7 1.6m461.5 48.5a15 15 0 0 0 5.5-5.5l.6-1.6-7.2 1.2c-3.8 1.7-6.1 5-4.6 6.7 1.1.4 3.6.1 5.7-.8m-454.8-50.6q3.6-2.6 3.4-9.1l-.3-2.9a21 21 0 0 0-5.5 5c-1.4 2.5-1.6 5.4-.6 7q1 1 3 0m446 48a8 8 0 0 0-1.5-6.4 26 26 0 0 0-5-4.7c-.1.1-.3 1.7-.3 3.6 0 3 .1 3.6 1 5.3q1.9 3.7 4.3 3.7 1 .1 1.4-1.4m-433.8-49 .5-1c-1.6-1-1.9-1.1-2.7-.4l-.7.7 1 .9q.9.8 1.2.8zm421 47.7q0-.2-.6-.8c-.6-.6-.8-.6-1.6-.3-1.2.5-1.2.6-.3 1.8l.6 1 1-.8zm-23-3.1.6-1c-1-.8-1.4-.9-2.4-.3l-1.1.8.8 1.5c.9 1.3 1 1.3 1.2.7q.3-.8 1-1.7zM313 470.4l.8-1.1-.8-.8c-1-.7-2.3-1-2.7-.5 0 .5 1.4 3.2 1.8 3.5zm415.9 45.8 1-.7-.7-.6q-.7-.7-2.2-.5c-1.5.2-1.4-.1-.8 3.2l.2 1 .7-.8zm-455.4-49.6.2-1.2-1.4-.2q-1.3-.2-2.3.4l-1 .6 1.7 1 1.9 1.5q.4.6.9-2zm14 2.2c.9-1.6-.3-4.7-2.8-7.6l-1.6-1.6.2 2.4v4.2q-.7 3.3.8 1.6l.8-.9.9 1.2c.8 1.4 1 1.5 1.7.7M714 516c.4-.6.4-.6 1 .2q1.5 1.9 1.1-.7l-.2-4.3.1-2.8-1.6 1.7q-4 4.7-2.4 7.2c.6.7.7.6 2-1.3m-420.5-47.4q4.1-1.7 6-7.1c.6-2.3.9-5.3.6-5.7l-3.6 1.5c-3.8 2-5.4 3.5-6.4 6.2-.6 2.5-.6 3.4.4 4.5.9.9 1.5 1 3 .6m415.3 47.6q.6-.5.5-2.3-.3-3.6-3-6.3a45 45 0 0 0-7.2-4.4v2.4c.3 3.7 1.3 6 3.5 8.5q4 4 6.2 2m-392.4-48.7c1.4-.6 3.2-2.3 4.1-3.9.9-1.8 1.2-4.3.6-4.5l-2.6.8c-1.3.3-2.7.9-3.3 1.2-1.2 1-2.4 3-2.6 4.4q.4 2.9 3.8 2M686 512.9q.7-.8.5-1.7a8 8 0 0 0-2.5-4.3c-1-.7-5.5-2.8-6.2-3-.2.3.3 3.1 1 4.8 2 3.8 5.1 5.6 7.2 4.2m-375.6-46.5c1.4-1 1-3.6-.9-6.2a15 15 0 0 0-3.5-2.7c-3.3-1.7-3.3-1.7-3.2-.1q.7 5.9 4.8 8.5c1.6.8 2 .9 2.8.5m381.8 46q3.4-2 4.2-7.4l.2-2-2.4 1c-4.5 2-5.7 3.5-6 6.6q0 1.8.7 2.1 1.2.6 3.3-.3m-423-48.2c1-.8.5-2.8-1.1-4.5-1.7-1.5-3-2-6.3-2.2-3.8-.1-3.8 0-2 2.6q2.9 4.4 7 4.5 1.7 0 2.3-.4m465.6 49.2c2.7-1.3 5-3.5 5.8-5.8.2-.7.1-.7-2-.7q-4.2 0-6.4 1.4c-2.3 1.7-3.2 4.1-2 5.2 1 .5 3 .4 4.6-.1m-460.5-50q3.4-2.1 3.6-8.4c0-3.2-.2-3.3-3.4 0-3 3-3.6 4.4-3.3 6.9q.4 3 3.1 1.6M727.1 513q.4-.3.9-1.4.6-2.8-1.6-5.9a17 17 0 0 0-4.6-4.3l-.2 3.2c0 2.6.2 3.2 1 5q2.1 4 4.5 3.3m-437.7-51 .6-1.7c-1-.7-2.5-1-3.2-.7l-.7.5 2.3 3.6zm422.8 48.4c1-1.6 1-1.7.5-2.2q-.7-.4-1.3-.3l-2 .7.7 1.9.8 1.6zm-432.5-51q.6-.6.4-1c-.3-.4-1-.5-1.2-.1l-.2 1q-.2 1.5 1 .1m441 49-.3-1c0-.5-.7-.6-1.1-.1-.2.5.6 1.5 1.2 1.7q.3 0 .1-.5m-435.2-50.2q1.2-1 0-4c-1.7-3.6-3.3-5-8.7-7.5l-3.5-1.5.2 1 1 3.4c1 2.5 1.2 2.6 2.5 1 .7-1 .7-1 1-.5.5 1 1.2 3.9 1.3 5.1 0 1.3.7 1.9 3 2.7 1.8.6 2.4.7 3.2.3m29 .4q1.8-2.7.4-7a72 72 0 0 0-4.5-7.1q-.3.1-.9 1.7c-.4 1.3-.5 2.6-.5 5 0 3.7.6 5.5 2.2 7.4q2 2.3 3.4 0m373.3 46.5q1-.9 1.7-2.5c1-2.7 1-7.4 0-10.2q-.6-1.5-1-1.4l-2 3c-2.4 3.6-3 5.6-2.6 8.2q.8 3.3 2.3 3.6.6 0 1.6-.7m29.4 1.5c2.5-.9 2.8-1.1 2.8-2.6s.9-4.6 1.3-5.2q.4-.1 1 .8.8 1 1.2 1a19 19 0 0 0 2.2-5.2c.3-1 .1-1-2.4 0a30 30 0 0 0-7 3.7c-2.2 2.2-3.5 5.5-2.9 7.3.6.9 1.3 1 3.8.2m-424-49.3q4.2-3 5.2-10v-2c-.6 0-6.6 3-7.6 3.8a10 10 0 0 0-3 6.3c0 1.6.2 2 .7 2.4 1.1.7 3 .5 4.8-.5m417.3 48.9c1.4-2 .6-5.4-2-8.5a53 53 0 0 0-7.8-4.8l.2 2.8c.4 3 1.6 6 3 8 2.2 2.3 5.1 3.4 6.6 2.5m-440.7-50c.7-2.1-.3-6.3-2.6-9.5a24 24 0 0 0-5.2-4c-.4.2-.4 2.7.1 5.4q1.1 4.7 3.9 7.6 2.8 2.6 3.8.5m462.9 49q3.7-3.5 4.4-10.4c.3-2.7.2-2.8-1.8-1.7a14 14 0 0 0-6.3 9c-.3 1.5-.2 2 .2 3.1.8 1.7 1.6 1.7 3.5 0m-459-51.9c0-.7-2.3-7.5-3.7-10.6a16 16 0 0 0-5.2-6.3l-3-2.6-1.2-1 .2 1.3q.8 4 5.5 9.5c3.3 3.9 4.4 5.9 5 9.2l.3 2.3 1-.7zm34 2.6a16 16 0 0 1 0-11.1l.9-3c-.3-.9-2.6-4-3-4q-.3.2-1 2.8c-.7 3-1 7.5-.5 10.1.3 1.9-.2 1.2-1-1.2-.7-2.6-.7-8.8 0-12.3l.6-2.3-3.2-3.5c-1.8-2-3.4-3.6-3.6-3.7q-.3.1-.8 1.4l-1 2.7-.6 1.4 1.6-.9 1.5-.9v2.5q.2 4.4-1.2 8.5-.4 1.5-.3 1.7l2-1.2 2.1-1.3c.3.5-.1 6-1 9.2l-.7 3 .9-.6q1.6-1.5 1.6 0 0 .9.4 1 .2-.1.3-.7c0-1 .1-.9 1.7.5 2.7 2.2 4.6 3.2 4.4 1.9m384.8 47 2.6-1.6 1.9-1.2.2.7q.2 1.4.8-1c.2-.4.3-.3 1.3.7q1 1 1.1.9l-.8-3q-.9-3-1-6.3l-.2-3.5 2 1.7 2.3 1.6q.2-.1-.5-2.6c-.9-3.3-1.5-9.8-1.2-10.2l1.8 1 1.7 1.1-.8-1.8c-.5-1-1-2.3-1.1-2.9q-.2-1-.5-1l-6.9 6.7.5 2a26 26 0 0 1-.5 13.8l-.7 1.4.3-2a32 32 0 0 0-1.5-12.7q-.4 0-1.8 1.6l-1.5 2 1 2.8a17 17 0 0 1 0 11.4q-.5 1 1.5.3m35-.5c.4-3.1 1.6-5.5 5-9.3a24 24 0 0 0 5.7-10c0-.6-.3-.5-2.4 1.2a25 25 0 0 0-7 7.7 63 63 0 0 0-3.6 10.6c.4.6 1.6 1.8 1.8 1.9q.2-.2.4-2M319 455.5l2.8-7.5c5.3-13.4 5.8-19.7 2.3-25.7-2.3-3.7-10.9-13-22.3-23.8-16.9-16-21.8-21-24.7-26.4l-1-2-.2 1.3c0 1.8.4 5 2.3 15.4 1 4.9 1.5 8.8 1.5 9l-8.2.2c-4.5.1-8.2.3-8.3.4l4.2 3.3c20.9 15.1 37 31.1 44.9 43.6 2.2 3.6 4.6 8.6 5.4 11.3q.9 3 1.3 1m362.4 44.3c4.4-13.9 23.3-32 52.1-52.2q2.3-1.7 2.4-2c-.1 0-3.7-.3-8.2-.4s-8-.6-8.2-.6c0-.2.4-3.8 1.3-8.2 2.4-13 2.8-16.7 2.2-17l-1 1.5c-2.2 4.5-8.8 11.4-22.2 22.7a249 249 0 0 0-23.8 21.8c-2.8 3.7-3 4.6-3 9.5 0 5.5.8 8.5 4.5 18.3l2.8 8q.1 1.4 1.1-1.4m-394-49 .6-1.5-1.5-.9-1.3-.7-.7.7-.8.7 1.4 1.5 1.5 1.5zm427.2 46.3-.6-.8-1.3.7-1.5.7.6 1.5.8 1.3 1.3-1.3c1.4-1.4 1.4-1.4.7-2.1m-423.5-50.7q2.7-1.7 4.1-5.3c.7-2 1.3-6.2 1.2-6.8-.2 0-1.6.5-3.4 1.4-3.9 2-5.8 3.7-6.7 6.1-1.4 5 .4 6.8 4.8 4.6m421.5 49c1.4-2 .4-6.1-2.2-8.9-.9-.6-5.4-3.4-7.3-4.4q-.2 0 0 2.4.6 7.4 5.5 10.4 2.8 1.5 4 .5m-429.1-49c1.5-2-.7-6.5-4.3-8.8-2-1-7-2.6-7.4-2.6-.1.4.8 3.5 1.7 5.4 2.6 4.8 7.4 7.6 10 6m436.3 48.8a13 13 0 0 0 6-6c1-2.3 1.6-4.8 1.3-5-.8 0-6.4 2-7.6 2.6-3.4 2.3-5.2 6-3.9 8.2q1 1.2 4.2.2m-434.4-57.7c-1.4-.8-1.3-.8-2.3 0l-.7.6 1.2 1.6 1.2 1.5 1-1.5.8-1.5zM716.8 487l-.8-.8c-.8-.6-.9-.6-2.1 0l-1.3.5.9 1.6.8 1.7 1.3-1.4zm-447.2-52.4-.8-3.8q0-.2 1 .6 1.6 1.4 1.5.7a25 25 0 0 1-2.7-9.7l-.2-2 1.2.8 1.3.6q-.1-.5-2.4-3.2c-1.5-1.7-3.4-4-4.2-5.2l-1.6-2.1-.1 3.1a45 45 0 0 0 7.7 24.3zM731.4 484a48 48 0 0 0 5.3-20.3v-3l-1.9 2.6-4.2 5a15 15 0 0 0-2.2 2.8q.3 0 1.3-.5 1-.7 1.2-.4l-.3 3a23 23 0 0 1-2.3 7.5q-1.5 2 .8.4l1.3-.7-.6 3.6c-1.4 5.8-1.2 5.8 1.6 0M282 436.1c1.4-2.1-.4-6.4-3.9-8.9a55 55 0 0 0-7.3-3.1c-.2.4.6 3.5 1.4 5.5 2.5 4.8 7.4 8 9.8 6.5m7 0c2.7-1.5 5.4-5.6 6.2-9.2q.4-2.4-1.8-2.4c-2.4.2-5.7 3-7.6 6.3-1.2 2.5-1.2 3.8-.2 5 1 1 1.7 1.1 3.5.3m424.6 48.3c1-1.1 1-2.3 0-4.7a16 16 0 0 0-5.3-6c-2-1.3-3-1.4-4-.5-.4.6-.5.8-.1 2.2a16 16 0 0 0 6.1 9.1c1.8.9 2.3.9 3.3 0m7.2.4c2.2-.9 4.8-3.4 6.1-6a18 18 0 0 0 1.6-5.6c-.4 0-5.5 2-7.4 2.9-3.4 2.3-5.2 6.3-3.9 8.6.8.7 1.5.8 3.6 0M286 427l-1.3-.5c-1-.3-1.5-.3-2.5.1l-1.2.6 1 1.2 1.3 2.1c.4.8.4.8 1.5-1.3zm430.3 52.3q.1-.4 1.2-1.8l1.1-1.5-1.2-.6c-1-.4-1.3-.4-2.4-.1q-1.2.3-1.2.5l1 2q1.5 2.6 1.5 1.5m-434.5-54.5q1.3-1.3-.5-4.7c-1.3-2.4-3.2-3.8-7.7-5.4l-3.9-1.2c0 .5 1.2 4.3 2.2 6.1 3 4.6 7.5 6.9 9.9 5.1M723 473.2q4.3-2.5 6.5-8.7.7-2.3-.8-1.5l-2.7.8q-4.4 1.3-6.6 3.5c-1.4 1.6-2.3 4-2.1 5.4q1 2.6 5.7.5M288 425c1.3-.5 3.3-2.1 3.5-2.8 0-.2-1.2-1.4-2.7-2.9-2-2-2.7-2.3-3-2.1a12 12 0 0 0-2 5.2c-.2 2.6.8 3.3 4.2 2.5m427.3 48.3c.6-1 .5-3.2-.3-5.4-1.3-2.9-1.3-2.9-4.2-.2l-2.7 2.6c0 .6 2 2.4 3.3 3q2.8.9 4 0M283.8 418l1-2-1-.9c-1.3-1.1-1.4-1.1-2.5-.3q-.8.6-1.4.6-1.2.1 0 1.1.7.6 1.7 2l1.1 1.4zM719 465.6c1.3-1.3 1.3-1.3.5-1.4q-.7 0-1.5-.7c-1-.9-1.2-.9-2.5.2l-1 .9 1 2 1 2 .8-1zm-391.9-51.9a114 114 0 0 1 3.8-14.5c-.3 0-2.2 1.2-4.2 3.1s-5 6.6-6.1 9l-.7 1.8.7 1q1.1 1.9 1.5.6a38 38 0 0 1 4.3-8.4L325 412l-1.5 5.8.8.8.7.9.6-.7c.2-.4 1-2.6 1.6-5.2zm348.5 48-2.6-11.2c.3.1 2 3.2 3.3 6.5l1.2 3.3 1-1 1-1-1.4-3c-2-4.2-3.8-6.8-6.7-10q-3.5-3.7-3-2.2c.7 2 2.3 7.8 3.2 11.8q1.5 7.6 2.4 8.7c.7.6 1.8-.8 1.6-2m-395.2-48.3.5-.8c-2.7-2.2-12.6-9.1-12.7-9.2 0 .9 1.7 4 3.8 6.2a15 15 0 0 0 7 4.5q.7 0 1.4-.7M723 462.1c2.4-1.2 6-4.9 7.4-7.4q.8-1.7.6-2c-.3 0-2.7 1.7-10.9 7.6l-1.8 1.3.8.7c1 .8 1.7.8 4-.2m-404-56q.6-1.3.3-1.4l-3.6 4q0 .4 1 1.5l1 1.1.5-1.9zM683.5 454c-.2-.3-1-1.4-2-2.4l-1.7-1.8.7 1.7.9 3.6.2 1.7 1.1-1c1-1 1-1.2.8-1.8m-363.8-51.9c-.6-1-5.7-1-9.3 0l-1.3.4 2.6 2.6 2.6 2.6 2.7-2.6a16 16 0 0 0 2.7-3m368.2 49.2c2.6-2.3 2.6-2.5-.2-3.4s-7.4-1-7.9-.6c.3.6 4.9 5.7 5.4 6 .2 0 1.4-.9 2.7-2M309.5 400c-1.7-1.3-4-2-4.3-1.3q.1.3 1 1.3c1.2 1 1.3 1 2.6.8q1.7-.2.7-.8m384 46.5q.8-.7.6-.9-1.9-.2-3.3.4-1.1.5-1.2.8c.2.4 2 1 2.6.8zm-376.2-48c3-1.5 6.7-5.4 6.5-6.6a63 63 0 0 0-10 .4c-2 .6-4 2-4.7 3.6-.3.8-.3 1.1.1 1.8q.7.8 1.5 1.2l1.2.4c1 .2 3.6-.1 5.4-.8m372.7 46c.7-1 .7-1.3-.2-2.8-1.9-2.7-4.4-3.9-11.1-4.9-3.8-.5-3.9-.5-1.7 2.5a22 22 0 0 0 6.2 5.3c2.5 1 5.6.9 6.8-.2M307.6 396q.5-.7.5-2.8c0-3-1-4.7-4.4-8.4l-2.7-3-.5 1.5c-.6 2.5-.4 6 .4 8.3 2 4 5 6 6.7 4.4m387.2 47c1.5-.7 3-2.8 3.8-4.7.3-1 .6-2.7.6-4 0-2.3-.6-4.4-1-4.7-.7.3-5.3 5.2-6.2 6.6-.7 1.9-.8 5.5-.2 6.7q1 1 3 .2m-425.2-51-2.6-2.3.3 1.5q1 2.9 3.4 2.9h1.2zM730 443a3 3 0 0 0 1.7-1.7c.8-2.2.4-2.2-2 0-2 1.8-2.2 2-1.6 2.1zm-453-50.1-.8-3.8-.6-3-2-.3a9 9 0 0 1-2.6-.8q-1.3-1.1-1.1.3c0 1.5 1.2 4.2 2.3 5.7a9 9 0 0 0 4.3 2.6q.7.1.4-.7m447.5 49c2-1.1 3.2-2.6 4.1-5.3q.9-2.6.4-2.9l-1 .5c-.4.3-1.6.6-2.6.7-1.5.2-1.8.3-2 .9l-.6 3.2-.7 3c-.2 1 .3.8 2.4-.2m-425.4-50c-1-3.3-.8-6 1.2-11.7l.7-2.4-1.6 1-2.2 1.5-.8.5.4 3.5c.2 2 .3 4.2.2 5.1-.2 1.6-.2 1.7 1.2 3q1.1 1.4 1.5 1.4zm402.4 47.8c.2-.3.4-2.4.6-4.8l.4-5.4c.1-1 0-1.2-.9-1.7-.5-.3-1.5-1-2.1-1.7l-1.3-1q0 .4.7 2.6c2 5.8 2.1 8.5 1 11.7l-.6 1.8c.1 0 1.7-1 2.2-1.5M313 391.2q.4 0-.3-1.4t-1.2-1.2l-1.6.3c-1 .1-1 .2-.9.8l.4 2 .2 1.2 1.5-.9q1.4-.8 2-.8M690.3 436q.2-.7-.6-.7t-1.6-.4c-.8-.3-.9-.2-1.3.6q-.4 1-.6 1-.9.2.5.8 1 .4 2 1.2l1 .8.2-1.3zm-394.4-49q0-2.6-.3-3c-.6-.2-1.8.9-2.5 2.1-.5 1-.5 1 .8 2.4q1.3 1.2 1.7 1.3.2-.1.3-2.8m409 49.5c1.6-1.5 1.6-2 .3-3.5-1.7-1.7-1.9-1.5-2 1.8q0 2.6.3 2.9.3 0 1.5-1.2m-384-47q1.7-.7 2.8-1.6a14 14 0 0 0 3-3.7c-.5-.3-6.6-.7-8.8-.4-2.9 1-4.7 3.2-4 5q2 2.4 7 .7m363.8 45.7c.8-.5.9-.7.7-1.6a9 9 0 0 0-4.6-4.5 64 64 0 0 0-8.4-.8c.2.7 2.2 3.3 3.7 4.7q5.1 3.9 8.7 2.2m-390.5-52q1-.7 1-1.3c0-.6-.1-.7-3-.8h-2.9v1.3c0 1 .2 1.5 1.2 2.6l1.2 1.3.7-1.2q.7-1.2 1.8-1.9M311 387c.8-.6 1.3-2.5 1.1-4.2-.4-2-1.3-3.5-3.7-6.4l-2.3-2.6-.5 1.8c-.3 1-.5 2.4-.5 3.2a11 11 0 0 0 3.5 7.8c1 .8 1.5.8 2.4.4m379.3 46.1a9 9 0 0 0 3.7-8l-.6-3-.4-1.4-2.2 2.2c-2.4 2.6-3.3 4-3.8 6-.2 2.3.7 4.5 2 4.8q.4 0 1.3-.6m18.4.1q1.1-1 1.1-2.3v-1.3H708c-1 0-2.4-.2-3-.4q-1.2-.4-1 .6 0 .8 1 1.5 1.1.7 1.8 1.8l.8 1.1zm-435.5-49.6-.4-1.3c-.6-1.3-1.5-5-1.4-5.6l.8 1.7c1 2.4 2.4 5.2 2.7 4.5-.1-1.3-1.7-10-2.2-11.4q-1.5-3.6-3.4-4.8l-1.2-.3.2 3.2.7 6.5c.4 4 1.1 5.9 2.7 7.1q1.6 1.2 1.5.4m454.9 48c1.4-1.5 1.7-2.6 2.2-8.4l.7-6.3q.3-1.3-.4-1.2c-1 .2-3.3 2.8-4.1 4.8-.7 2.3-2.2 11-2.2 11.6q.3.1 1.7-2.5 2.7-5 .7 1l-.8 2.4.6-.1zm-42.2-2.4v-2l-1.3-.2q-1.2-.2-2.1.2l-1 .6 1.9 1.1q1.7 1.2 2 1.7.5 1.5.5-1.4m-371.8-44.8 1.9-1.3 1.6-.8-.8-.7q-1-.9-3.4-.3c-.3.4-.1 3.2.2 3.5q.3 0 .5-.4m-25.8-2.5q0-.7-.6-1.8c-.6-1-.8-1.2-2-1.2q-1.6-.2-.7.7c.8 1 2.8 2.9 3 3q.3 0 .3-.7M713 429.4q1.5-1.5 1.2-1.6l-1.2-.3q-.7-.3-1.4 1c-.7 1.2-1 2.4-.4 2.5.1 0 1-.7 1.8-1.6m-409-47.9c-.4-1.4-1.8-4.1-2.2-4.4-.5.3 0 2.6 1 4.2q1.5 2.4 1.2.2m393.4 45 .2-1.9c-.5-.1-2 2.8-2 4.2v1l.7-1q.8-.9 1.1-2.4m-403.2-46.9q5.5-1.5 8.2-7.3l.5-1.2-1.7.1c-5.6.4-6.8.6-8.4 1.4-4 2.1-5.1 5.6-2.3 7 1.5.5 1.5.5 3.7 0m31 .8c1-.3 2.2-1 2.7-1.4 1.4-1.4 2.5-3 2.4-3.3-.7-.3-7.3-.8-8.8-.5-1.4.5-3 1.9-3.6 3-.5 2.8 3 3.7 7.4 2.3m355.3 45.1c2-1.8-.6-4.8-4.9-6a25 25 0 0 0-6.8 0c.2.5 3 3.7 4.2 4.7q4.4 2.7 7.5 1.3m29.4 1.6c.8-1 .6-2-.7-4.1-1.5-2-3.6-3.2-7.4-3.9l-4-.7c-1.4-.1-1.4.3-.2 2.7a21 21 0 0 0 5.7 5.8c2.3 1 5.3 1 6.6.2m-394.5-48q1.1-1.7.5-4.8c-.8-2-4.4-7.2-5-7.3l-.8 2.3q-1 5.5 2.2 9.3 1.9 1.8 3 .5m371.3 45.5q1.2-1 2-2.5a14 14 0 0 0 0-7.6l-.7-1.5-1.6 2c-2.3 3-3 4.5-3.4 6.5q0 3.5 1.9 4.1.7 0 1.8-1m-399.4-48c.7-1.5.6-3.9-.4-6.1-.9-1.7-2.4-3.4-5.8-6.5l-1.9-1.6-.4 2.3q-.9 7.6 4.6 11.6c2 1.3 3 1.4 3.9.3m428 48.7q4-2.1 5-8c.2-2 0-5-.5-5.6l-1.9 1.3c-5 4.2-6.3 6-6.4 9.5 0 1.6.1 2.2.6 2.7 1 1 1.4 1 3.2.1M304.5 375c.5-2 .5-2.6.2-3.4l-.4-1-.6 1.6c-.8 2.6-.8 5 0 5.2q.3-.1.8-2.4M696 422.6c-.1-2-.9-4.8-1.4-4.6q-.5 1.3.3 4.6 1 3.5 1.1 0m-404-51.1 1-.5-.9-.9c-.8-.7-1.1-.8-2.3-.7q-1.7.1-1.2 1l.4 2 .2 1.2.9-.8zm418.7 47q.5-.5-1.2-.7c-1.1-.1-1.5 0-2.2.5l-.7.7 1.1.8 1.8 1.4.6.8.2-1.4zm-402.3-47c0-1.1.4-3.6.8-5.5.7-3.2.8-3.3 1.3-2.8q.5.6.7.5l.4-2c.2-1.9.2-2-.5-2q-.7-.1-1.8-1.1l-1.1-1.1-1.4.8-1.3 1h1.4l1.3-.2-.2 1.5a26 26 0 0 1-2.8 6.5c-.6.8-.6.9 0 2.2q.5 1.3.6 1 .3-1 .8.3a14 14 0 0 0 1.6 3zm12.5 2.1c2.6-1.4 5-5.2 6-9.5.5-2.9.2-3-2.2-1.8-4.3 2.5-7.4 6.1-7.7 8.7q.4 3.7 3.9 2.6M681 419c1.7-1 1.8-2.3.4-5a22 22 0 0 0-8.9-8c-.5.9.6 5.5 2.3 8.7 1.7 2.8 3 3.8 5.2 4.7zm11.3-.5q.8-1.5 1.2-1.5.5 0 .8-1c.2-1 .2-1.2-.6-2.5-1-1.8-2.4-5.4-2.5-6.7 0-.8.1-.8 1.2-.6q1 .2 1.1.1l-1-1-1.2-1-1.2 1q-1.1.8-2 .9c-.5 0-.5 0-.3 1.7.3 2.2.4 2.5 1 1.8q.4-.5.6-.4c.2.7 1.7 8.9 1.7 9.9q-.2 2.1 1.2-.7m-364-45.9c1.8-.9 4.3-3.3 5.7-5.7 1.2-2.4 2.2-5.3 2.3-6.5q.2-1.1-.7-.4c-1.3.9-4 2-5.3 2.3s-1.3.3-2 3.1a35 35 0 0 1-3.4 7.7c.2.3 2 0 3.5-.5m346 44.9L673 414l-2-5.3-.6-2.3-1.9-.8-3.6-2.1c-2.1-1.6-2.2-1.4-1 2.4q3 8.5 8.7 11.2 1.9.6 2 .2m-374.1-48.5a9 9 0 0 0 3.8-3.2 18 18 0 0 0 2-3.4l.4-1.2h-3.1c-5.2.3-7.9 1.4-9.7 4q-1.5 2.7-.4 3.8c1.8 1.4 3.6 1.4 7 0M706 416.7l.6-1-.9-1.9a9 9 0 0 0-4.5-4.3c-1.3-.4-8-1.6-8.4-1.6 0 .5 2 4.5 3.5 6.2 2.4 2.4 4.2 3.3 7 3.4 1.8 0 2 0 2.7-.9m-390.3-48.1q.3-1 1.3-2.7l1.2-1.7-1.3-.7q-1.3-.6-2.5-1.5-1-1-1.3-.8c-.5 1-1 3.7-1 4.5a18 18 0 0 0 3.1 4q.3-.3.5-1.1M687 412c.3-.6.3-1-.2-2.7q-.6-1.9-.9-2.1l-1.5.9q-1.2.9-2.3 1l-1 .3 1.1 2a14 14 0 0 1 1.7 3.9c.4 0 2.2-1.9 3.1-3.2m-395.8-45c.6-1.2.6-4-.1-5.9-.8-1.5-2.3-3.3-5.6-6.3-2.3-2.1-2.4-2-2.8.6-.2 2 .1 4.6.7 6.3 2.1 4.6 5.9 7.1 7.8 5.3m420.3 48.6c1.6-1 3.6-3.5 4.5-5.5.6-2 .7-6 .3-7.6-.3-.8-.4-.7-3.2 1.6-4.3 3.7-5.4 5.3-5.5 8.6q.2 4.5 4 2.9m-4.6-7.4c.2-.6.1-.6-1-.9a3 3 0 0 0-2.4.3c-.9.6-1 .6-.3.9l1.7 1.4 1.1 1.3.3-1.2q.2-1.2.6-1.8m-412.8-46.1q.6-.7 1.6-1.2l1-.5-.8-.5c-1-.6-3.7-.9-4-.5l.5 1.2q.5.9.5 1.5 0 1.2 1.2 0m29.4-1.1c2.2-1 5-3.5 5.8-5.2q.4-.9.3-1.2l-4.3-.5c-4.8-.3-6.4 0-8.4 1.4q-3.8 3.3-1 5.5c1.6.9 5 .9 7.6 0m359.6 45.7q1-.5 1.3-1 .4-3-3.9-5.7c-2-1-2.2-1.1-6.5-1.4l-4.5-.2.6 1.5c1.4 2.5 3.8 4.9 6.5 6.2 2.1 1 4.9 1.2 6.5.6m-380.5-48a13 13 0 0 0 7.3-8.2c-.5 0-6.8.3-8.2.6-3.7 1.4-6.1 4.6-5.2 7q1.6 1.9 6.1.7m399.7 47.3c.9-1 .8-2-.3-4-1.9-2.8-4-3.8-10.6-5-2.1-.3-2.2-.2-1.4 1.7 1.4 3.2 4.3 6.2 7.2 7.4 1.9.7 4 .6 5-.1m-407.4-50q1-2.2-.6-5.7c-.8-1.7-1.6-2.6-4-5L287 343l-.2.9-.3 3.6c0 2.4.2 3 1.2 5 2.3 4.4 5.4 6.1 7.1 3.9m18.9.5q1.2-3-.5-7c-1.7-3.5-1.7-3.5-3.4-1.7l-1.6 1.5 1.4-.2 1.5-.1-.2 1.4-1.2 3.2-.8 1.7.6 1q2.5 3.2 4.1.2m375.5 46.9c1-1.3 1.1-1.5.2-3.4-.4-1-1-2.5-1-3.3l-.2-1.5 1.4.4 1.5.3-1.5-1.6q-1.5-1.5-1.9-1.2l-1.5 2.5a9 9 0 0 0-1.2 4c0 1.7.7 3.4 1.4 4.1q1.5.8 2.8-.3m18.7 1.2c1.2-.7 3-2.6 3.8-4a16 16 0 0 0 1-6.6c-.3-3-.4-3-3.7-.2-4.4 3.9-5.6 6.6-4.5 10 .4 1 .6 1.1 1.5 1.2zm-388.7-52q1 0-.7-1.1c-1.4-.8-3-1-3.2-.4l.2 1.6.2 1.3 1.5-.7zm364.5 46.4.2-1.4c.1-1 .1-1-1-1.1q-1.4-.2-2.3.5l-1 .6 1.8.9c2.2 1 2.3 1 2.3.5m-386-47.8 1.5-.7q.9 0-.2-1.1l-.8-1q0-.5-.6-.2-.5.4-1.4.6c-.9.2-.9.2-.4 1.2q.5.9.5 1.5c0 .7.2.7 1.5-.3M703 399.2l.4-1.4q.3-.5-1-1.2l-1.3-.5-.6 1q-.6 1-.2 1.1l1.3 1c1.1 1.1 1.2 1.1 1.4 0m-375.5-48c3-1.2 5.8-3.9 6.1-5.8 0-.5-.5-.6-4.3-.8s-4.6 0-6 .5q-3.1 1.7-3.5 3.9c.4 2.3 3.6 3.1 7.7 2.1m351.1 44.4q2-2.5-2.7-5.6c-2-1.1-2.2-1.2-6.2-1.5-4.8-.3-4.9-.3-3 2.5a16 16 0 0 0 5.5 4.6c2 .6 5.4.6 6.4 0m-372.3-46.9c1.1-.5 2.5-1.5 3.2-2.2 1.3-1.6 2.5-3.9 2.3-4.4-.7-.2-6.8.2-8.3.8-3.5 1.9-4.8 4.7-3 6.2q2.4 1 5.8-.4M699 396.1c.7-.7.8-1 .5-1.8q-1-3.3-5-4.8c-1.8-.6-6.8-1.3-7.1-1.2 0 .5 1.4 3.1 2.2 4.3 2.9 3.5 7.2 5 9.4 3.5m-380.8-48.4q1.1-3.2-.1-6.3l-3.5-5.6c-.3.2-1.3 2.5-1.8 4.3a9 9 0 0 0 2 7.9q2 2.1 3.4-.3m366.7 46.1q3-3.6 1.2-9.8l-1-2.2c-.4.2-2.9 3.6-3.8 5.4-.5 1.5-.6 4-.1 5.5q1.3 3.1 3.7 1.1m-388-46.9q.6-.6.8-2.6c0-2.8-.8-4.7-4-8.4l-2.3-2.7-.5 1.3c-.6 2-.6 6.1 0 8.2 1 2 3.4 4.6 4.6 4.9q.8 0 1.4-.7M705 395q3.9-2.2 4.2-8.1c0-2.6-.6-4.8-1.1-5a41 41 0 0 0-5.5 6.4q-1.5 3.3-.1 6c.7 1.2 1.2 1.3 2.5.7m-383.4-50.5 2-.9.7-.2-.7-.9q-.5-.8-.6-1.4 0-.4-.6-.3t-1.7.3c-1 .1-1 .2-.9 1.1l.2 2c0 1.2 0 1.2 1.6.3m358 43.3c.2-1.3.2-1.4-.8-1.6q-1-.2-1.6-.5-.5-.3-1 .8l-.5 1.3q0 .3 1 .8l1.7 1.1c.8.7.9.5 1.2-1.9m-378.3-45.3c1.2-.9 1.3-.9.7-1.6s-.7-.8-1.5-.5l-1 .5c-.1.2.3 2.3.4 2.5zM700 389.7q.2-1.1.1-1.3l-1-.5c-.9-.4-1-.4-1.5.2-.6.8-.6.8.3 1.4l1.1 1q.7 1 1-.8m-369.6-46.8a13 13 0 0 0 6-4.5c2-3 2.2-2.9-2.3-2.4-5.7.6-6.7 1-8 2q-3 3 .6 4.6c1.5.5 2.1.6 3.7.3m343.5 43.4c1-.8 1.2-1.4.4-3-1.1-1.6-2.8-2.5-7.7-3.8l-4.7-1.4c-.7-.3-.5.3 1.2 2.8q3 4.6 6.4 5.7c1.5.4 3.4.3 4.4-.3M307.3 340q3-1.6 5.1-4.5c1.4-2 1.4-2.1-1.5-2.1-4.4.2-8 2.4-8.4 4.9.2 1 1.4 2.2 2.4 2.4q.9 0 2.4-.7M696 387c1-1 1-1.2.3-2.8-1.3-2.2-5.1-4.2-9-4.6l-1.7-.2.6 1.1c2 3.3 6 6.7 8.2 7.2q.8 0 1.6-.8m-395.4-48.7c.1-.4.3-1.5.3-2.5 0-1.4-.2-2-1-3.3a23 23 0 0 0-5.1-5.2l-.4 2.8a8 8 0 0 0 .6 4.4c1.7 3.5 4.3 5.3 5.6 3.8m20.3 1.4c1.5-1 2-4.3 1.2-7-.5-1-3.1-5.5-3.7-6.2l-1 1.8c-.7 1.5-.8 2.4-.9 4.6 0 2.4.1 2.9.9 4.3q1.6 2.5 2.6 2.8.4 0 1-.3m359.3 45c2.6-2 3.2-6.3 1.5-10.7l-1-2.2-1.6 2.6c-2.2 3.2-2.4 3.8-2.4 6q.2 3.1 1.5 4.3c.8.6.8.6 2 0m22 .6q3.4-3.5 2.4-8.9l-.4-1.3-2.2 2a16 16 0 0 0-3 3.3c-.7 1.7-.8 4-.3 5.3q1.1 1.5 3.6-.4m-377.2-48.5q.5-.5 1.8-1l1.4-.6-.8-.9c-.8-.9-1-.9-2.3-.6q-1.5.2-1.3.8l.2 1.6q0 2 1 .7m350 43.2c0-1.4 0-1.5-1.3-2-1.2-.3-1.4-.3-2.2.4l-.8.8.8.4 1 .4q.4.1 1.1.8c1.2 1 1.3 1 1.4-.8m-369.8-47.4q3.3-2 4.7-7.9c.3-2 0-4.3-.5-5q-.8-.4-3.8 2.3c-3.5 3.7-5 8.3-3.3 10.3 1 .8 1.4.9 2.9.3M697 379.3c1.6-2-.8-8.3-4.5-11.7-2-1.6-2.5-1.9-3-1.4-.4 1-.2 5 .4 7.2 1.9 5 4.7 7.3 7.1 5.9m-362.7-46c2.2-1 5.2-3.7 5-4.5a27 27 0 0 0-6.6-.7q-4.2.9-4.6 3.4.4 3.7 6.2 1.8m336.3 43.8q1.2-1.5-.2-3.5-2.1-2-7.2-2.6h-3.3c0 .8 3 3.9 5.1 5.3 2.3 1.2 4.5 1.5 5.6.8m-358-45.5c2.1.2 2.4.1 2.4-.4 0-1.1 1-4.4 2-7l1-2.4.5 1.6.6 1.5.5-3.6q.5-5.3 1.1-3.4.3.7.7 1c.4.1.4 0 0-1.3l-.6-2q0-.6-1.4 2a19 19 0 0 1-5.9 7c-1.4 1-1.8 1.5-2.3 3-.3 1-.9 2.2-1.3 2.7q-1.4 1.8-.3 1.4c.3-.1 1.6-.2 3 0zm376.9 45.2a10 10 0 0 1-1.4-3.1c-.6-1.7-.8-2.1-1.8-2.7a24 24 0 0 1-7.2-10l-.4-1.1-.4 1.7-.7 2.1q-.1.4.6-.3.9-.6 1.1-.5c0 .2.3 1.8.4 3.8q.1 3.1.4 3.6.4-.2.7-1.6.5-2 .8-.9a66 66 0 0 1 2.6 8.2l.2 1.6 2.8.2 3 .2zm-363.1-45.7q1.5-1.8-.2-5.5c-1.5-2.4-4.3-5-5-4.8-.3.9-.3 5 .2 7q1.9 5.5 5 3.3m350 44.5c1.2-1.3 1.7-3 2-6.5.1-3.9 0-4-2.4-2.2-3.3 2.6-4.5 5.8-3.1 8.4q.6.8 1.7 1 1 0 1.8-.7m-376-47.9q.5-4 4.5-7.9l2.3-2.3-.1-2.3c-.3-2.4-1.4-5.8-2-6.2l-.5 1.2c-.3.7-1.5 3.3-3 5.7q-4 7.2-4 10c0 1 .2 1.4 1 2.3l1.4 1zm400.3 48c1-1 1-1 .9-2.8q-.5-3.1-4.4-10.6a48 48 0 0 1-3-6.3c-.6.3-1.6 3.7-1.9 6.3l-.1 2.5 1.7 1.4a17 17 0 0 1 5.2 9.8q-.2 1.6 1.6-.3m-368-49.8c2.6-1.8 4.5-5.3 5.3-9.7.6-3.7.5-3.8-2.4-2.3-5 3-6.9 5.2-7.4 9-.1 1.7 0 2 .5 2.7q1.7 1.5 4 .3m337.9 43.6c1.1-1.7.4-5.1-1.7-8.3a51 51 0 0 0-7.8-6c-.1.6.6 5.7 1.3 7.6 2.7 5.9 5.8 8.5 8.2 6.7m-330-44q4.4-1 8.3-5a31 31 0 0 1 5-4.7l1-.6-1.3-.3a25 25 0 0 0-8.2-.2l-3.5 1.2c-1.6.7-1.8.9-2.2 2.2l-.6 2c0 .5.3.3 2-.7a20 20 0 0 1 6.7-2.7l1.1-.2-1 1.3a21 21 0 0 1-9.4 6q-.5 0-1.7 1.2l-1.3 1.2h1.5zm322.8 43.3c-.2-.9-1.5-2.2-3-3a26 26 0 0 1-9.5-8.4c.4-.5 4 1.3 7.2 3.8l2 1.5c.3-.3-.7-3.4-1.3-4.2-.4-.4-2-1.2-3.6-2q-4.8-2-8.8-2l-1.6.1 1.4 1.4 3.9 4.5a20 20 0 0 0 13 8.4zm-348.7-47.7c1.7-2 3.4-5.3 4.1-8.1.5-2.4.6-7.3.3-9.1a19 19 0 0 0-1.8-4.3q-.2.1-.6 1.4l-2 4.5c-2.4 4.9-3.3 7.8-3.2 9.8l.4 4.8c.3 3.6.4 3.6 2.8 1M687.3 367c0-1.2.2-3 .4-4 .5-2.8 0-4.9-2.8-11a62 62 0 0 1-2.8-6.8q-.4.1-1 1.7a22 22 0 0 0 1.2 16.2c1.3 2.5 3.9 5.6 4.7 6q.3-.3.3-2.2m-360.5-45.5 1.8-4.8a25 25 0 0 0 1-19.1q-.3-.3-1.3 2.4l-3.1 7.3c-2.4 5.3-3 7.7-2.3 10q.9 2.6 1.4.3c.2-1 1.7-4.8 3.2-8.3.5-.8 0 2-.9 6.8-.8 4.3-.9 5.4-.5 5.8q.6.3.7-.4m346 39.1c-1-5.3-1.5-8.4-1-7.5s3.2 8.5 3.6 9.7l.3 1 .5-.8a9 9 0 0 0 .4-3c0-2.4-.4-3.6-3.7-11.2l-3-7.3a28 28 0 0 0 1.6 20.9c1.3 3.4 1.5 4 1.8 3.4q.2-.9-.6-5.2zm-338.6-47.8a67 67 0 0 0 27-29c1.4-3.8 2.3-7.7 2.3-9.3l-.1-1.1-4.4 3.5c-14.2 11.4-23 23.3-26.2 34.3-.8 2.7-.7 2.9 1.4 1.6m7.3.7q3.4-1.7 8.4-1.6c3.2.1 3.4 0 4.5-1.7a49 49 0 0 1 14.3-13.5 86 86 0 0 1 11.2-5.2c-.5-.2-7.3-.2-10.3.2-7 1.1-10.8 3-13.5 6.1a88 88 0 0 1-12.5 11.5c-3.3 2.5-3.6 2.8-3.7 3.8q0 1 .2 1.1zm318 41.5c-.1-.8-.6-1.3-2.9-3.4-5-4.6-11.4-11.8-14-15.5q-1.8-2.8-7.2-5.6a51 51 0 0 0-14.4-4.6c-1.4-.2-1.4-.2 3.4 3a63 63 0 0 1 18.4 17.5c3.8 5.9 3.3 5.4 5.7 5.6q4.6.5 8.5 2.9 1.7 1 2.2 1.1zm7.6 1.2c-.2-1.4-2.3-7.3-4.1-11.2a120 120 0 0 0-22.5-29.5l-4.4-4.5-.1 1.2c-.1 3 2.2 10.5 5 16a91 91 0 0 0 25.8 28.7q.2 0 .3-.7M466 629q-2-1.3-2-3.6c0-1.8.6-3.6 1.1-4 .8-.1.8.2.4 1.8-.3 1.3-.3 1.5.2 2.4 1.3 1.7 4.6 2.2 6.6 1 .8-.5.8-.6.5-1.4l-1.2-2c-.8-.9-.8-1-.3-1.9.6-1.2.7-1.2 1.5 0q1.8 2.1 2.9.3.8-1.6 1.3.2c.3 1.1 1.4 1.8 2.2 1.3.5-.4.5-.5 0-1.4s-.5-.9 0-1.5c.8-1 1-.8 1.5.8s0 3.5-.9 4.4c-.8.5-2.1.3-2.9-.4q-.5-.7-.8-.1-.4.3-1.2.3c-.6 0-.7 0-1 1.2-.4 2.7-1.6 3.5-5 3.4a7 7 0 0 1-2.9-.7m33.6 3.6-.4-2.4q-.6-3.9-2.5-7.4c-1.1-2.1-1.2-2.7-.3-3.8s1.2-.5 2.6 2.7a21 21 0 0 1 1.6 7.8c0 2-.6 4-1 3m21.3 3.1c-.7-1-1-1.9-1.5-4-.4-1.7-.5-1.7-1.6-2a6 6 0 0 1-4-2.6q-.7-1.7 1.5-4.3 1.4-1.9 3-1.2c1 .6 1.7 2.1 2 5.6.3 2.1.6 3.4 1.3 5 1 2 1 2.1.6 3.2-.6 1.2-.6 1.2-1.3.3m-2.4-9.2c.2-.6-.6-2-1.4-2.2q-1.2 0-1.4 1c.3.9 2.2 1.7 2.8 1.2m6 9.9c-.4-1.2-.2-1.9.7-3.2a26 26 0 0 0 3.4-6.6q1.3-4 1.8-2c1.4 4.3 2.6 6.9 4.9 10.5.5.8.5.9 0 2l-.6 1-1-1c-.9-1.2-3-5.6-3.6-7.4-.3-.8-.4-.6-1.6 2-1.7 3.5-3.4 5.5-4 4.7m-17.2-4.7q-1-4.6-3-8.1c-1.1-2-1.2-2-.6-3.2.5-1 .8-1 2 .5q2.3 2.4 4.3.6c1-1 1.3-1 1.3 1 0 1-.2 1.4-1 2.1q-1 .8-1.7.8c-.4 0-.4 0-.3 1.3q1 6.7-.3 7.2-.3-.2-.7-2.2m-24-5.6V625l4.1.6-.1-1q-.3-1 .7-1.7.7-.7.5-1-.3-.4 0-1.3l.4-.8 1.6 1.1c3.6 2.8 4.5 4.4 3.4 6.7-.7 1.2-1.2 1.3-2.6.5-1-.6-1.3-.6-2.5-.2q-1.5.4-3.5 0l-2-.2zm10 .2q0-.3-.6-1.1l-.7-.9-.3.8v1c.3.5 1.2.6 1.6.2m-2.8-1.6q.7-1.2-.7-1.6-.6 0-.8.4c-.2.5.3 1.4.8 1.6q.3 0 .7-.4m-15.8-7.4q-1.1-.9-.1-1.6.5-.5 1.2.4c.6.8.6.8 0 1.2q-.5.6-1.1 0m2.5.2c-.5-.7-.5-.8-.2-1.2q.8-.9 1.7.2.5.6-.2 1.2c-.7.6-.7.6-1.3-.2m-1.3-2.3c-.6-.7-.6-.8-.1-1.2q.5-.6 1.2.1c.9.7.9.8 0 1.4-.5.5-.5.5-1.1-.3m-73.7-20.6q-5-5.6-5.2-7.7c.2-1.5 1.4-2.7 2.8-2.7.7 0 .8 0 .8-1q.4-3.5 3.9-3.5a2 2 0 0 0 1.4-.4l4-6 3.7-5.7v-7.3l.2-7.4-1-1.7c-1.5-2.6-1.6-3.7-.6-5.6 1-1.6 1-1.8.2-3.7-.8-1.8-.8-2.1.2-3.6q.7-1.3.8-2.2c-.1-.9-14.3-51.7-14.5-52.2l-1 1.3c-1.4 2-4.3 4.8-5 4.9-.3-.3-3.4-8-8-21l-9.4-25.6-1.8-5.2c.1-.2 1.2-1.5 2.7-3q4.5-4.4 6.4-7.7l.8-1.6-1-3.8c-1.6-5.9-1.4-5.7-3.3-6.1q-3.7-1-4.2-4.7c-.1-2.2.3-3.3 1.9-4.6a10 10 0 0 1 7.1-1.9c3.4.5 5 1.5 6 3.6q1.8 4.4-1.7 6-.8.5-.9.8l6 22.6 18 68.3 1.3 4.2q.2-.3.3-6.2c0-6.2 0-6.5-.7-7.4-1.4-2.1-1.4-5.5 0-7q.6-.5.7-1c0-.3-1.2-2.6-2.6-5.3l-2.7-5.2q-.2-.6 1.2-.3h1.7c.3-.3.4-4.5.3-20.9v-20.6l-1.5-1a9 9 0 0 1-3.8-4.4q-.9-1.8-2-2.6a6 6 0 0 1-2.4-4.2q0-1-.7-1.5c-2-1.5-4-4-4.7-6.2l-.3-.9 13.3 1.9 13.5 1.7c0-.1.2-9.3.2-20.6v-20.4l-1-1.4c-2.5-3.5-2.5-7 0-8.7l1-.5-1.2-1.8a9 9 0 0 1-.9-9.9 7 7 0 0 1 3.6-3.2c.8-.3 1-.6 1.4-1.6s1-1.6 2.9-3c3-2.2 4.2-3.7 4.6-5.5q.2-1 .4-1.2.2.2.6 1.7a8 8 0 0 0 2.3 3.6c4.3 4.6 5 5.5 5.2 6.6.2.9.7 1.5 2 2.7 2 2 2.9 3.3 3.6 5.5q1.2 5.3-1.7 8.4l-1 1 .8.9c2.5 3.3 2.2 7-.7 8.5l-1 .3.2 21c0 19 .1 20.8.6 21 .3 0 2.9-.6 5.9-1.7l18.6-6.5-.4-1q-.5-.9-.3-1.7a3 3 0 0 0-.2-1.6q-.4-.7 0-1.3c.2-.7-.3-2.6-.7-2.9a29 29 0 0 1-8.3-20c0-4.4.4-6.3 2.3-10 3-5.7 7.4-8.6 17.1-11.3a32 32 0 0 0 13.7-6.6c2-1.8 2-1.8 1.2-2.4a5 5 0 0 1-1.2-4q.2-.8.9-1.5l.6-.6-1-1.6c-2.7-4.9-2.3-6.6 3-11.8 1.6-1.6 3.3-3.6 3.8-4.4l.8-1.6.7 1.7a55 55 0 0 0 4.3 5.7c5.3 6.1 5.7 7.8 3.5 12l-1.3 2.4.6 1.3q1.3 2.4-.5 4.4l-.8.8.8 1.4c1.3 2 4 4.1 12.4 9.9l10.1 7.3a32 32 0 0 1 10.5 14 21 21 0 0 1-6.1 23c-2 1.8-2 1.8-2 4l-.2 3.4q0 1.3-.3 2c-.2.5.5 1 10.4 7.6 12.6 8.1 13.5 8.6 14 8.5 0-.2.2-8.7.2-21 0-20.4 0-20.8-.6-21.6l-1-.8q-.2-.1-.8-1.6-1.4-5.1 1.9-6.9l.9-.3-1-1.4c-3.7-5.3-2.6-10.6 2.5-13q1-.2 1.3-1.8c.4-1.2 1-1.8 3.1-3.7q3.9-3.3 3.9-5.5.1-1.7 1 1c.3 1.4.8 2.2 3.6 5.3 2.6 3 3.2 4 3.5 5s.6 1.6 1.8 2.8c2.2 2.2 3 3.5 3.8 5.8.6 3.1 0 5.3-2.1 7.6l-.8.8.9.6q.9.6 1.7 2.2 1.7 4.7-1.6 7l-1 .3V443l23.7 3.2-.2 1c-.7 2.7-1.8 3.9-4.2 4.7q-.9.4-1.1.9c-.7 2-1 2.5-2.4 3.3a5 5 0 0 0-2.2 2.5c-.8 2.2-1.4 2.8-2.8 3.6q-1.3.6-1.3 1.6t-1 2l-1 1v37.8l3.5.5q3.3.5 3.5.8l-2.1 3.5-3.1 5-1.1 1.7.6 1.4c1.2 2.6 1.2 3.5 0 5.8l-1.1 2-.3 6.9v6.6c.2-.2 2-6.5 16.2-56.3l9.6-33.6-1.1-1.4a5 5 0 0 1-1.2-4.9q.8-2.6 2.6-3.4c2.1-.6 7.5.6 10.6 2.3 2 1.5 2.6 4.2 1.7 6.8a5 5 0 0 1-3.6 2.7c-1.1 0-1.2.2-1.8 2.4l-1.5 5-.8 2.5 1.2 2q2.3 4.1 6.2 8.8l2 2.4-.5 1.8-7.2 18.5-8.7 22a41 41 0 0 1-2.4 5.4c-.6-.3-3.8-4.3-5-6.4q-1-1.8-1.2-1.4l-1 3.5-7.4 24.8-7 22.7c-.2 1-.1 1.2.7 2.1 1.3 1.5 1.5 2.7 1 4.6-.5 1.3-.5 1.5 0 2 .5 1 .8 3 .6 4.6q-.4 1.2-1.2 2.2l-1 1v7.2c0 8.4-.4 7 4.7 14.3l5 7.1c2.3 3.3 2.3 3.3 3.7 3.5.6.1 1.7.6 2.4 1a5 5 0 0 1 2 2.7c.7 1.4 1 1.7 2 2.2a7 7 0 0 1 3.4 3.1c.6 1.6.6 3.4 0 3.8-.4 0-46-5.7-101.8-14.2l-101.3-14.7zM606.6 624c.4-.3.4-.4 0-1.3q-.6-.9-1.5-1.7c-1.2-.8-4.4-.2-100-15-89.4-13.9-99-14.5-99.4-14.1-.7.8-.6 2.2.2 2.8 1.5.5 199.6 29.4 200.7 29.3m-5.6-6.8q0-.6-1-1.6l-1-1-95-13.9c-94.3-14.6-95-13.8-95.5-13.4q-1 1.1-.4 2.1l96.5 14.5c94.7 14.6 96.4 13.6 96.4 13.3m-110.5-20.5c0-.2-1.5-2.5-3.4-5.2l-3.3-4.8-14.4-2.3-14.3-2c.2.6 6 9.4 6.5 10 1.3.3 28.7 4.3 28.9 4.3m33.3 5c-.1-.2-5.1-7.2-6.8-9.1l-1-1-14.9-2.4c-10.3-1.6-14.7-2-14.9-2 .3.6 6.4 9.4 7 10 .8.3 30.2 4.6 30.6 4.6m-67.2-14-4.7-7.7-2.7-4.4-11.9-1.8-12.6-1.7q-.7.3-1.8 1.7l-4.3 6.2-3.2 4.6c.1.3 2.6.6 22.2 3.4l21 3zm90.3 17c0-.2-1.7-2.4-3.8-5l-3.8-4.7-10-1.6c-6-.9-9.8-1.2-9.9-1.2.3.6 6.6 9 7 9.3.8.3 20.3 3.2 20.5 3.1m41.4 5.7 4.9.6-4.6-6.7-5.2-7.3c-.6-.6-1.6-.8-13-2.5a64 64 0 0 0-12.9-1.4c-.5.5-8 10.8-8.5 11.6.1.2 3.8 1 17.2 2.8zM536.6 593c.3-.2 3-3.5 4.2-5.2l.6-.8-8-1.2c-6.7-1-7.7-1.2-7.6-.7l2.8 4 2.6 3.4 2.5.4c1.4.2 2.7.2 2.9.1m-71-11.1-1.9-3.7-1.8-3.4-11.1-1.7v1.4c0 1.1.3 1.7 1.5 3.6l1.5 2.2 5.9.9zM496 583l-2.7-3.4-14.5-2.3-14.5-2c.1.5 3 5.6 3.4 6.1.2.1 7.2 1.4 15.7 2.7l15.3 2.4zm31.3 7-2.4-3.3-1.8-2.5-13.5-2c-7.5-1.3-13.5-2-13.5-2 0 .2 1.2 1.7 2.7 3.5l2.7 3.2 26.4 4zm-78.5-23.7V559l-24-3.4v7.2l.3 7.4c.2 0 5.5 1 11.9 1.8l11.7 1.6zm134 20.6v-7l-12.4-1.7-12.3-1.9v14.1l12.3 1.7 12.4 1.7zm-108.3-12.1c0-.3-2.6-4.2-3.6-5.3-.5-.3-3-.9-10.3-2l-9.8-1.5v2.5q0 2.3.2 2.7c.5.2 23 3.6 23.5 3.6m30 2.6c-2.8-4-1.1-3.3-16.8-5.8q-13.9-2-14-1.8a46 46 0 0 0 3.5 5c.2.1 6.7 1.3 14.6 2.5l14.2 2.2zm16.2 4.1-2.3-2.9-2.3-2.6-5.6-.8c-3.1-.5-5.5-.7-5.6-.7l3.8 5.2c.8.3 11.6 1.9 12 1.8m18.7-.3v-5l-14.1-2.1v8.4l14 2.1zm5.1 2.8 1.4-1.1v-5.6l-5.1-5.7-5.2-5.7-.1 1.7-.1 1.8 3.1 3.5 3.2 3.6v4.2c0 4.2 0 4.3.7 4.4q.8 0 2.1-1m-21.4-3.7.2-3.6v-3l-3.1-3.3-3.1-3.4v-9l-2-2-3.2-3-1-1.1v-3.9c0-4.2.3-3.5-4-7.3l-2-1.8v-5.6l-1.6-1.8-2-1.9s-.3 5-.3 11.9v11.9l1.4 1.9c3 4.1 20.1 25.6 20.3 25.7q.2 0 .4-.7m-69-18.1c-1-2.2-1.3-2.5-2.2-2.8l-1.1-.2v4.7l4.5.7zm29.8 6.4c-.4-.7-3.3-4.1-4.1-4.7-1.2-.4-24.4-4-24.7-3.9.1.6 2 4.3 2.3 4.7 1.1.4 26.3 4 26.5 4zm29.6 4.3-2.1-2.7-1.8-2-13-2a57 57 0 0 0-13-1.6q.2.6 1.8 2.7l1.9 2.2 13.2 2c12.7 2 13.2 2 13 1.4M450 557q.6-.7.7-1.4 0-.9-.7-1.7c-.6-.7-1-.8-13.4-2.6-11.2-1.6-12.7-1.7-13.3-1.3-.9 1-.5 2.8.8 3.7l12.9 2c12 1.8 12.4 1.8 13 1.3m13.2 2.3a24 24 0 0 0-2.6-4.4q-.5-.4-4.6-1l-4-.7.2 1.1q.3 1.2.2 2.4v1.3l5.4.8c3.7.5 5.2.6 5.4.4m13.6.5-2.1-2.6c-1-.5-11-2.1-11.5-2 .1.5 2.3 4.2 2.7 4.7.3 0 3 .7 6.4 1.2l6 1zm16.5 4.3a29 29 0 0 0-3.5-4.7c-1.2-.5-11.8-2-12.3-2q0 .5 1.7 2.7l1.9 2.3 6.1 1c3.4.5 6 .7 6.1.7m14.5 2.2-2-2.6-2-2.3-5.3-1-5.5-.6q0 .4 1.6 2.6l2 2.4 5.6.9c3.1.5 5.5.7 5.6.6m38 4.5c0-1.2-.1-1.6-.8-2.4-.7-.9-1-1-3.4-1.4q-2.5-.3-2.7 0l2.2 2.6c2 2.1 2.4 2.4 3.4 2.5 1.1 0 1.1 0 1.2-1.3m38.8 6.6q1-1 0-2.8l-.4-.8-13.8-1.9c-15-2.1-14.5-2.2-14.5 0 0 2-.5 2 14.5 4 12.2 1.8 13.6 1.8 14.2 1.5m-51.4-12.5v-4l-6.7-1.1c-5.2-.9-6.6-1-7-.8-.2.8-.2 7.2 0 7.8.2 0 3.2.7 7 1.2l6.7 1zm-83.2-14q1.2-1 .2-2.6c-.6-.6-1.4-.8-13.4-2.6a84 84 0 0 0-13.3-1.5q-.3.5-.3 1.5c0 2.1 0 2 13.7 4 12 1.8 12.4 1.8 13 1.3M584.4 571q.8-1.8-.7-3a97 97 0 0 0-13.3-2.3c-12.2-1.7-12.5-1.7-13.2-1.2q-1.2 1.2-.1 2.7c.5.7 1.3.9 13.7 2.6 13 1.9 13.2 1.8 13.6 1.2m-39.9-6c1-.8 1-1.3.3-2.4-.5-.6-1-.7-5-1.3l-4.3-.7v1.6c.2 1.5.3 1.6 1.2 2 .5.2 2.3.6 4 .8 2.5.4 3 .4 3.8 0m-73.2-12.6a6 6 0 0 0-1.5-1.8l-8.9-1.4-8.2-1.1-.1 1.4-.1 1.4 19.8 3zm28.8 4.3-1.4-1.8-26.2-4 1.2 1.7 1.2 1.7 26.7 4.1zm45 2.7.9-1V517l-.8-1.2c-1-1.7-1.5-4.2-1.3-6q.2-1.1 1.1-1.5l1-.4-2.8-5-2.8-5 3.2.2q3.2.6 3 .1A71 71 0 0 0 510 463a56 56 0 0 0-14.2-2.2c-15.1.1-24 3.3-33.5 11.8a82 82 0 0 0-9.9 10.8c.2 0 2.4.6 5.4 1l5.4.9 1.5 1.7q3.1 3.5 6 3.7c2 0 4.2-.6 5.7-1.8s2-1.3 3.8-1c1.4.2 1.6.3 3.2 2.3 2.8 3.2 4.7 3.8 8 2.6q1.2-.7 2.2-1.7c.9-1 .9-1 3.3-.7 2 .4 2.4.5 2.4.9l-1.4 5.5-1.5 5v50.5h1.8v-18c.2-13 0-18-.2-18.7q-.3-.7-.2-1.5l-.2-1.7c-.3-1-.3-1.1 1.4-2.6 1-1 2-1.5 2.1-1.6l2 2 1.6 1.9-.3 2q-.2 1.7-.6 2.4c-.8 1.2-.4 1.5 3.5 2.1 3 .5 3.5.5 3.7 0q.1-.3-.1-.9t-.5-2.5l-.3-2 1.8-1.6 1.8-1.5 1.9 2.2c1.6 2 1.8 2.3 1.6 3l-.2 1.9q0 .8-.3 1c0 .2-.3 2.5-.3 5.7v5.5l3.5 3.1 3.4 3.2v2.6c0 3-.1 2.9 3.7 6.2l2.5 2.2v3.8c0 2.1.2 4.1.4 4.6q.6 1.3 3.4 3.4.6.5 5.8 1.3l5.1.8zm-95.6-35v-20.7l-24.8-3.6V542l12.3 1.6 12.4 1.7zm11.9-2.5v-25.4l-1.2-5.5c-1.1-5.4-1.2-6-1.5-5.7l-6.8 9.5.5.3c.9.3 1.7 2.1 1.8 4.2 0 2.2-.4 3.2-1.7 4.3l-1 .7v20.2c0 11.1.2 20.4.3 20.7.2.5.8.7 4.9 1.3l4.7.7zm32.5 29.7v-47.2l-29.9-4.6v47.8l15 2.3c13.9 2.1 14.7 2.2 15 1.7m89-7v-20.7l-12.5-1.8-12.3-1.9V562l12.3 1.7 12.4 1.6zm-55.7 5.6v-3.6l-7-1-7-1v6.5l.3.8 6.8 1 6.8.9zm62.2-12.1 5.6-18.8 3.6-12.1 9.7-32.7 7.2-24.6a7 7 0 0 0-3-1.2l-5.4 18.6-19.4 66.6-3 10.5v4.7l.1 4.3zm-68.1 0V536l-14-2.2v2.2l.1 2.4 7 1.2 6.8 1zM409 500.6 398.5 461a1346 1346 0 0 0-12.5-45.8c-.3-.2-2.9 0-3.4.3l1 3.7 7.7 27.4 11.2 40 8.2 29.5 2.2 7.8.1-4 .1-4.1zm92.8 24.8c.4-.2.5-.7.5-3.4l-.3-3.7q-.4-.5-1.2-.5h-1v3.4c-.1 4 .1 4.5 2 4.2m9 1.3c.2-.2.3-1 .3-3.2l-.1-3-3.1-.6c-4.8-.9-4.6-1-4.6 2.3q0 2.8.4 3.3c.8.4 6 1.4 7 1.2m4 .6c.3-.2.4-1 .3-3.7V520l-2.4-.4v7.1c.3.6 1.3.8 2 .5m-11.2-11.9c0-.4-.4-.6-2.2-1q-2.2-.3-2.6 0-.8.9 2.7 1.3c1.7.2 2 .1 2.1-.3m12.9 2.3q.5-.8-2.7-1.4-3.1-.4-2.6.8c.7.4 4.7.8 5.3.6m-13.2-3.9c.6-.3.7-1.3.1-2q-.6-.5-2.2-.8h-2.2c-.5.5-.5 1.6-.2 2.1.4.3 3.6.8 4.5.7m12.8 2c.7-.3.6-1.5-.1-2.2a6 6 0 0 0-4.3-.4c-.7.5-.7.6-.4 1.3.4.7.7.9 2.3 1.1 1.1.2 2.2.2 2.5.2m-14.3-5.7q-.1-.8-1-.7-.2.3-.1.5c.3.5 1 .6 1.1.2m12.5 1.8q-.9-.9-1 0 0 .3.7.4.8.2.3-.4m-63.3-10.2c1.6-1 1.5-4-.3-5.4-.6-.3-4.8-1-14.2-2.4-12.9-1.8-13.4-1.7-13.9-1.2-.6 1.1-.6 3.4.2 4.6.7.7 1 .8 14.1 2.6 8.4 1.2 13.7 1.8 14.1 1.8m134 19.4q1-2.3-.2-4c-.6-.8-1-.9-14.3-2.7-8.4-1.2-13.8-1.8-14.2-1.7q-1 .8-.8 3.2c.4 2.2-.1 2 15 4.2l13.9 2zM492 502.5a522 522 0 0 0-28-4.3c.1.1 4.7 1 14.8 2.5 8.5 1.3 14.2 2.2 13.2 1.8m91.8 10.7 2.8-3.7 1.9-2.8-18-2.5c-9.8-1.4-17.7-2.3-17.8-2.3a89 89 0 0 0 5.2 8.6l12.8 2 12.3 1.7zm-131.5-22.5 2.6-3.8a574 574 0 0 0-35.6-5.4c0 .2.7 1.7 3 5.8l1.8 3 25.8 3.8zm41.6 9c.2-.5 2-6 2-6.4 0-.6-1.4-.5-2.2.2a8 8 0 0 1-5.4 2 9 9 0 0 1-6-3.5c-.9-1.1-1.2-1.3-2.5-1.6-1.3-.2-1.8 0-3 .6q-4.9 2.7-8.6 1.1l-3.2-2.4q-2.9-2.6-3.2-1.6l1.4 6 .3 1.3 15 2.3a96 96 0 0 0 15.4 2M431 464.3c0-9.1.2-16.7.3-17 .3-.2 1.6-.1 6.3.6l6 1 .1 17 .1 16.8 4.6.7v-38l-23-3.3v37.8c.1.1 1.4.4 2.9.6l2.7.4zm9 4.8v-13l-5.5-.8-.1 13-.1 13 2.9.4 2.8.3zm125.2 15v-17l12.4 1.8v34l5 .6-.1-18.9-.1-19-11-1.5-11.1-1.7v38l4.9.7zm8.4 5.2v-13l-5.6-.9-.1 13-.1 13 6 1zm-15.1-26.7c-.3-.4-11.1-2-53.8-8.6a1067 1067 0 0 0-53.7-7.8v32.3l1-1.4a43 43 0 0 1 23.2-18.4 66 66 0 0 1 49.5 4 73 73 0 0 1 31.3 30.7l2 3.6a776 776 0 0 0 .5-34.5m26 .6.4-1.1c-.2-.6-7.5-1.1-79.8-12.2-76.7-11.8-79.8-11.8-80-11.3-.3 1.7-5.5.3 79.7 13.5 78 12 79.5 11.6 79.7 11.1m2.4-3.7c1.2-1 2.2-2.5 2.1-3.3-.3-.5-10.4-1.4-85.5-13A1794 1794 0 0 0 418 431c0 .7 2.3 3.1 4 4.1 1.2.6 11.5 1.9 82.7 13 81 12.5 81.5 11.9 82.2 11.4m4.7-6q1.9-.7 1.7-2.1c-.4-.5-12.5-1.7-90-13.6-86.6-13.3-89.8-13-90-12.6q.2 1.3 1.8 2.5l88 13.4c74.6 11.5 87.5 12.7 88.5 12.5m5-5q.8-.4 1-1c0-.7-5-.4-93.2-14-51.5-8-93.2-13.7-93.5-13.6l.3 1 .5.8 92 13.7c73.5 11.3 92.3 13.3 93 13m22.6-.8c.5-.5.4-.5-2-1-4.2-1-5.5-2-5.3-4.5q.1-2.2-1.3-.4-1.4 2.9 3 5.5c1.8.7 4.7 1 5.6.4m-234.5-34.6q1.6-.6 1.9-1 .6-1-1.6-.2c-.9.3-2.3.5-3.3.6-1.6 0-1.8-.2-2.6-1q-.9-1-.9-2.1v-1.1l-.7.7q-1.1 1.6.5 3.7c.7.9.9 1 2.8 1a10 10 0 0 0 3.9-.6m167 25.3-10.9-7.3L530 424l-10-2.3a224 224 0 0 0-43.8-6.2l-5.9-.4-10.6 3.6c-6 2-10.8 3.8-11 3.9l51.4 8.1zm-120.7-39c0-11-.1-20.3-.2-20.6q-.2-.5-1.6-.8l-1.5-.2v41l3.3.5zm5 .1V379l-1.6-.1-1.6-.2v20c-.1 11 0 20.2 0 20.5q.3.4 1.7.6l1.4.2zm5.5 1.8-.1-20.4c-.2-1-.3-1.1-1.7-1.3l-1.5-.3v41.1l1.6.1 1.6.2zm123 17.7-.1-20.4-1.6-.3-1.6-.4v41l3.3.6zm5 .6v-20.5l-1.6-.1-1.6-.1v39.7c.2 1.1.3 1.1 1.7 1.4l1.4.2zm5.4 1V400l-1.6-.4-1.6-.3v20.3c0 11.2.2 20.4.3 20.6l1.6.5 1.4.2zm-45 1.1c.5-1.2-.3-1.4-11.3-3.9a293 293 0 0 0-37.8-5.9c-10.4-.9-10.9-.9-10.5.4.2.4.6.5 2.4.6l11.1 1a315 315 0 0 1 37.4 6.3l8 1.9q.5 0 .8-.4m-37-9.9c10.5 1.3 21.9 3.3 30.2 5.4 5 1.2 6.9 1.5 6.7 1a256 256 0 0 0-59.4-9.4c-.5.6.9.8 6.2 1.3zm-11.8-3.6c15 1.2 27.1 3.2 42.8 6.9l5.7 1.2c.3-.4-.4-.6-5-1.8a264 264 0 0 0-54.3-7.4q0 .3 2 .4zm-4-2.8c13.7.3 33.6 3.5 48 7.7 5.6 1.7 5.3 1.7 8.2-1a20 20 0 0 0 3.9-22.9 32 32 0 0 0-7.1-10c-2.8-2.7-3-2.9-11.6-8.4l-7.5-5.3c-2-1.8-5-5-6.3-7-.6-.7-.8-.8-4.6-1.4l-4-.6-3.3 2.7a32 32 0 0 1-14.3 7c-11.2 3.4-16.2 8.5-17.2 17.6-.4 6 2 13.2 6.4 19.2 1.7 2.2 1.8 2.2 3 2.3zm-33.1-28.6c1.5-1.5 1-3.5-1-4.8a84 84 0 0 0-9.8-1.8c-9.8-1.4-10.4-1.3-11 .5-.4 1.2-.3 1.8.6 3 .7.9.7.9 10.6 2.3 9.5 1.3 9.9 1.3 10.6.8m133.7 20q2-2.3-1-4.6c-1-.4-3-.8-9.8-1.8-8.8-1.3-10-1.3-10.9-.3q-.9 1.7.3 3.7l.7.9 19.8 2.8zm-136.3-27.2c-.1-.5-1-.7-8.2-1.7-7.5-1.1-8.5-1.2-8-.4a134 134 0 0 0 16.2 2m133.5 20.2c-.1-.5-1-.7-8-1.7-7.4-1-8.6-1.1-8.2-.4a127 127 0 0 0 16.2 2m-132.6-22.3c1.9-.8 2.5-1.8 2.6-4.5 0-2-.2-2.4-1-3.8q-1-1.5-2.3-2.8l-1.2-1.3-6.1-1-7.3-.9a9 9 0 0 0-4.7 3.7 8 8 0 0 0 0 5.7q.6 1.2 1.7 2.1c1.1.8 1.6 1 9.2 2 6.7 1 8 1 9 .8zm134 20q3.2-2.4 1.6-7.3a14 14 0 0 0-4.2-4.8 62 62 0 0 0-14-1.7c-4.4 1.8-5.7 6.4-3 10.3l1.3 1.3c.4.1 4.4.9 9 1.6 8 1.1 8.2 1.1 9.3.5M440 353.1c-.1-1-1-1.2-6.4-2s-6.3-.8-6.4.1a63 63 0 0 0 12.8 1.9m133.5 20c-.1-.8-1-1-6.3-1.9-4.6-.6-5.5-.6-6-.3l-.5.6a133 133 0 0 0 12.8 1.7m-136.6-23.4q0-.3-1.6-2.3t-1.9-1.8q-.1.4-1.6 1.7c-1.6 1.3-1.7 1.3-1 1.7 1 .3 5.7.8 6.1.7M570.5 370c0-.2-.8-1.3-1.8-2.4-1.7-2-1.7-2-2.1-1.3l-1.7 1.6-1.3 1.1q.3.4 3.5.9 3.4.5 3.4 0m-64.8-14c.7-.2.8-.4.9-1.5q-.1-1.2-.5-1.8c-.4-.3-2-.7-6-1.3-4.8-.7-5.5-.7-6-.3q-.7 1.4.3 2.8c.7.7 1 .9 5.6 1.6 2.7.4 5.2.6 5.7.5m.2-6.4a5 5 0 0 0 1.5-4.2c-.3-1.8-1.4-3.7-4.8-8-2.3-2.8-2.5-3-2.9-2.6l-2.6 2.9c-2.8 2.8-3.6 4.2-3.7 6.3 0 1.6.4 2.5 1.5 3.9.6.8.8.9 5.5 1.6 4.5.7 4.8.7 5.5.1m123.8 230.1a61 61 0 0 1-13.3-17.7 27 27 0 0 1-1.8-9.8q.6-3.6 2.5-6.7l4.6-6.5a148 148 0 0 0 16.5-28.9q.4 0 2 1.8 5 6.5 7 14.3c.7 2.7.8 3.7.7 7.8s-.4 5.1-1.1 7.3a27 27 0 0 1-5.8 9.8 37 37 0 0 0-9 15.7c-1.1 4.8-1 10.3.4 14.3.3 1-.3.7-2.7-1.4m-262.6-39c.6-2.6.7-3.5.6-7.2-.2-6.3-1.3-9.1-7.6-19.4-6.6-10.8-8.1-15-8.2-23 0-4.3.2-5 1-7.4a35 35 0 0 1 2.4-5.2c2.1-3.3 4.9-6.4 5.4-6.5.2.2 1 1.5 1.6 3.3 4 9.8 8.3 18 14.4 27.9 5.4 8.7 6.8 12.6 6.9 19-.2 8.1-3.7 13.4-13 19.5q-3.4 2.3-4 2.1-.2-.3.5-3m11.5-36.3c-10.4-17.8-16-30.2-17.9-39.4a24 24 0 0 1 11.3-24.8l9.7 25.8 9.5 25.4-2.3 2.1q-7 6.9-7 14v2.3zm238.2 36.4c-.2-5.1-2.4-10-7.4-16l-2-2.3 2.6-6 9.6-23.3c3.9-9.7 7.3-17.4 7.3-17.4.5.2 4.6 5 6.2 7.2a29 29 0 0 1 5 19.6 82 82 0 0 1-12.1 27c-2.8 4.4-9 13.2-9.1 13.3zM476.7 322.6c-3.6-4-3.9-4.6-3.5-5 .5-.2.9.1 3.4 3 4.7 5.2 4.6 5.1 5.2 4.7q.5-.3.5-.6-.1-.5-1.8-2.6-2.4-3.2-1.6-3.3l3.6 4.6q.6.9 1.4.7.6 0 .7-.3l-2.8-4.7-2.6-4.7c.6-.6 1.2.2 3.7 4.2l3 4.5.8-.2c.5-.3.5-.5-.8-3.3-1.5-3.3-1.5-3.3-.9-3.2q.6.3 1.7 3c1.3 2.8 1.7 3.2 2.7 2.8.3-.3 0-1.2-1.4-4.6-1.8-4.7-2.1-5.6-1.3-5.7q.4.4 2.4 4.8c1 2.7 2.1 4.8 2.3 5 1 .4 1-.3.2-3.1-.9-3.2-1-3.7-.4-3.5q.4.4 1.2 3.1.9 3 1.4 3.2h.7c0-.2-.2-2.4-.7-5-.6-2.6-.8-4.7-.8-4.9.2-.2 1-.2 1.1 0l2 9.9q.3.2.8 0c.5-.2.5-1 0-5.3q-.3-1.3.3-1.2c.3.1.5.6.7 2.4.3 3.7.4 4.1 1.1 4.3.6 0 .7-.2.7-5.2 0-4.8 0-5.1.5-5 .6.3.6.7.7 5.4s.2 5 .7 5.2c.5 0 .6-.2.8-1.7l.2-3.1q0-1.5.5-1.4c.5.2.5.5.3 3.5-.2 3.2-.2 3.3.4 3.3.5-.1.8-.7 1.6-4.6.8-3.6 1.1-4.4 1.6-4.5.7 0 .7.6-.3 5.3-1 4.6-1 4.5-.2 4.6.6 0 .8-.4 1.6-2.6.8-2.6 1.2-3.2 1.6-2.8l-.7 2.8-.7 3.1c.6 1.2 1.2.4 3-3.5l2.4-4.2c1 0 .7 1.1-1.1 5-1.5 3.3-1.7 4-1.4 4.3.9.7 1.2.4 2.7-2q2-3.2 2.2-2l-1.5 2.7c-1.2 1.9-1.4 2.4-1 2.7q1 .8 1.6.1c.5-1 4.9-6.1 5.3-6.4 1.1 0 .7 1-1.7 4-2.9 3.7-3 4-2 4.6q.5.5 1.7-.8c2.2-2.4 3-3 3.3-2.7q0 .6-1.6 2.3c-2.3 2.4-2.3 2.4-1.5 3 .6.4 1 .2 4.3-2.4 2-1.6 3.7-3 3.9-3q.3 0 .5.5a39 39 0 0 1-8 7q-.4-.1-1.6-1.3c-2-2-6.9-5.2-9.8-6.5a44 44 0 0 0-14.7-2.5 34 34 0 0 0-9.9 3.3l-2.4 1.1zm5.2-18.7c-.9-1.2-1-1.5-.2-2.3q1.2-1.5 2.5.3c.9 1.2.9 1.4 0 2.2q-1.4 1.1-2.3-.2m-8-2.4q-1.3-.5-1.5-.8.3-.2 2.1-.1c2.7.1 4.2-.4 5.7-2 .9-1.3 1-1.4.3-1.9-.7-.8-.6-2 .3-2 2 0 2.1-.2 2.5-1.4q.4-1.2.7-1.3l.6 2c.5 2.6 1 3.8 2 4.5a65 65 0 0 0 16.1 2.1c1 0 .7-.7-.3-1.2-.5-.2-2.8-.5-5.1-.6-3.3-.3-4.8-.5-6-1-2.2-.8-2.5-1.2-2.1-2.5q1.6-3.1 6.6-4c1.2-.2 1.3-.2 1.2.5-.2.5-.7.8-2.4 1.3-1.3.3-2.7.9-3.3 1.2-1 .7-1 .7-.3 1.4.6.5 1.4.7 6.6 1.3 5.8.7 6 .7 6.6 1.5q.7.8.7 1.8a2 2 0 0 1-.7 1.5c-.7.5-1.5.6-5 .5q-4.2-.2-8.2-.8c-5-.8-5.6-1.2-6.6-4q-.6-1.6-.9-1.8c-.5 0-1.7 1.7-2.4 3.3q-1 2.7-3.7 3c-1.4.3-1.7.2-3.6-.5m41.4 4.5-1-1.3q-.4-.9-1.1-.5c-1.3.4-3.3-.1-3.6-.9 0-.8 1.3-2.1 3-3q1.1-.7 1.6-1.4.3-.8.6-.8l.3 3c.2 3.1.4 3.4 2 3.8q.9 0 1.6-.7c.6-.7.7-1 .5-3.2q-.3-3.8.4-3.8.3.3.7 3c.5 3.4.9 4.3 2.3 5.1 1.5.7 1.5.3.5-3.4q-1.1-4.4-.2-4.5s.7 1.7 1.3 3.8c1 3.4 1 4 .8 5q-1.2 2.6-4.2 0l-1-1-1 1q-2 1.4-3.5-.2m-2.2-3.3q1.6-.3.7-1.5c-.5-.1-2.1.6-2.3 1.1 0 .4.2.5 1.6.4m14.7 1.3-.6-6.4c-.3-2.7-.3-3.4.1-4.1.5-.8.5-.8.9 2.5.4 4.1.4 9.6 0 10.5q-.2.6-.5-2.5m-136.3-18.7q-.6-2.4.9-5.2c.8-1.3.8-1.4.3-2.3q-.5-1-.5-1.8c.2-.8.3-.6 2.4 2.3 2.6 3.7 3.4 4.3 4.7 3.7 1-.6 2-2 2-3q0-.8-1.5-2.6c-3-3.8-3.6-4.7-3.7-5.6 0-.8.3-.6 3.3 2.7 3.1 3.6 3.2 3.7 4.7 3.9 1.2.1 1.7 0 2.4-.5l1-.7-1.4-1.5-3.2-3.3a9 9 0 0 1-2.1-3q-.3-1 0-1.1c.3.1 3.4 3 6.4 6.3 1.5 1.8 1.7 2.1 1.7 3.4 0 1.1-.2 1.6-1 2.3a4 4 0 0 1-4.2.5l-1-.5v1.8c-.7 3.6-3 4.5-5.8 2.5l-1.1-1v.9c-.2 1.2-2.2 2.8-3.6 2.8q-.3 0-.7-1m2.3-2.7q1.6-1.1.6-2-.5-.6-1 .3-1.3 2-.9 2.4zm112.7 15.5-.6-6.3c0-1.2 0-1.4-.6-1.5-.8-.4-.8-2.3 0-3.2q1.3-.8 1.8.3 0 1-1.1.4-.4-.3-.3.2.4.5 1.3 1l1.1.4-.8.5-.7.6.5 3.5c.6 3.7.7 5.3.6 7.6q-.2 4-1.2-3.5m97.5 16.7c-1.6-1.3-2-2-2-2.3.2-.5.1-.5 2.3-.4h2.8c1-.3 1.2-.5 1.4-1.9l.2-5c0-3-.1-3.4-.8-4.6-1-1.6-1-2.6-.2-3.8q1.4-1.8 2 .8c.3 1.7.4 9.6.1 12q-.1 1.4.2 1.4c.7-.3 5.1-4.3 6.4-6.1.9-1.4 2.1-2.2 2.7-1.8.1.5-.7 2.9-1.1 3.1q-.5.2-2.8 2.3a31 31 0 0 1-4 3.1c-1.4.8-1.8 1.2-2.2 2.3-.5 1.5-1.5 2.7-2.4 2.7zm3.8-.6q.7-1.3-.9-1-2 0-.7.9 1.2 1 1.6.1m-20.5-2.7q-3-1.1-1.2-1.4c1.1 0 4.8 1.6 5.3 2-.1.6-1.9.3-4.1-.6m4.6-1.6-2-1c-1.7-.7-2.5-1.4-1.3-1.3q.7 0 .7-.6.1-1.5 2.1-1.4 2 .4 1.7 1.7c-.3.6-1 .5-1.2-.1q0-.5-.7-.6t-.4.4l.1.7 1.2 1q1 .8 1 1.2-.6.5-1.2 0m-114-20c1.3-1 1.3-1 .7-1.7-.7-1-.4-2.2.5-2.7q1.7-.7 1.6 1.7c0 1.7-.3 2.1-1.9 3.2q-2.9 1.4-.9-.5m2.2-2.5q-.2-.9-.8-.5-.3.5.5.8.3 0 .3-.3m31.5 8 1.2-.8q.1-.1-.4-1-.9-1.8.5-2.5 1.5-.6 1.7 2.4c0 1.5 0 1.7-.6 1.8q-.6 0-1.4.5c-.8.5-1 .4-1.4.4q-.9 0 .4-.8m2.3-2.5q-.2-.8-.8-.5-.3.6.5.8.3 0 .3-.3m3.4 1.2q-.3-1.6.7-.9t1.1-.3q0-.5.3-.5.4 0 .4.6t.3.5q.3 0 .3-.6.3-1.5.9 0 .5 1.5-1.8 1.9c-1.6.2-1.9.1-2.2-.7m76 10.6 1.2-2.8 2.7-5.8c1.5-3.3 3-5.3 3.5-4.5q0 .5-.2.8l-1.7 3.6q-4 8.8-5.3 8.9zm-111-17.4c.5-.6 4.8-2.1 5.4-2q.4.5-3 1.8-2.8 1-2.5.2m11.4 1.2q0-.3.5-.7 1.2-1-.6-1-2 .1-.6-1 .5-.6 1.7 0c1.5.5 1.6.6 1.7 1.3q-.1.6-1.4 1.2-1.1.5-1.3.2m90 10.8c-4.4-3-5.2-4-5-6.8 0-.7-.1-.8-1.5-1q-3-.6-3.4-2c.1-.8 1.2-1.9 2.5-2.4q.7-.2 1.7-.2 2 .4 2.3-.9.3-.6.8-.7c.4.2.3.6-.3 3.1-1 4-1 4.9 0 6.2 1.3 1.2 6.5 4.5 7.4 4.8q.6 0 1.3-1c1-2.2 3.8-9.2 4-9.9 0-.7 1.3-1.8 1.9-2q.3.3.3 1.6t-.5 1.7c-.4.3-1.5 2.3-2.6 4.9-2.2 5-3.5 6.6-5.1 6.6-.5 0-2.2-1-3.8-2m-4.5-9.7c.3-1 .2-1.1-1-1.3q-2.1-.3-2.1.6c.2.9 2.5 1.4 3 .7m-62.6.7q-.2-.7 3.5-1.7 3.5-1 1.3.4c-1.7.8-4.3 1.5-4.8 1.3m9.4 1.4c0-.6 1-1 1.4-1q.5.3 1.3-.6t1.5-.7c.8.4.8 1.6 0 2.5-.7.6-1 .6-2.5.3zm4-1q0-.6-.6-.1l-.5.4.5.2q.5 0 .5-.4m-117.4-17.1-4.7-6q-3.5-4.6-4.2-6-.3-1.2-.2-1.4c.1 0 8.2 10 9.3 11.6 1.7 3 1.6 4.2-.2 1.8m8.3 1.4a8 8 0 0 1-3-5.6q-.1-2 .2-1.6t.4 1c0 1 1 2.7 1.8 3.6 1.9 1.5 4.8 1 6.5-1 1.5-2.3 1.6-2-3-8.9l-4.5-6.6c-.6-.7-1-1.8-1-2.4.3-.5.4-.4 1.5.4q1.3.9 1.3 1.5a78 78 0 0 0 5.6 9.3c2.1 3 2.3 3.5 2.3 5.6 0 1.5-.2 2-1 3q-3.2 3.6-7.1 1.7m9.7 1.2q.1-.4 1.4-.7c2-.8 4.2-2.6 4.8-4 .5-1.6.7-3.6.5-3.8l-1.4.2c-1.1.1-1.4 0-2.1-.5s-.8-1-.9-2.3q.4-4.7 3.7-1.4.7.9 1.3 1c2 0 4.6-1.8 4.9-3.3q0-.6.3-.6.3.1.3 1t.7 1.1q1.7-.1 2.8-2.4l.4-1.3.3 1q.8 1.6 2.4 1 .6-.3 0-1.2-.7-2.1.1-2.2c1.1.5 1.7 4 .9 5.3q-.5.5-2 .2c-1.2-.1-1.5 0-2.5.8q-1.1 1-2.5 1-1.2.2-2.2.7l-2 1-1.2.3v2.7c0 3.3-.5 4.5-2.3 5.6-2.1 1-5.3 1.4-5.7.8m5-11c0-.4-1-.7-1.4-.4q-.4.3-.1.7c.3.4 1.3.2 1.5-.2m67.5 20.5c.8-.9 4.2-1.7 4.6-1.1a12 12 0 0 1-4.2 1.6q-1 .1-.4-.5m56 7.7-2.1-.8q-1.1-.3-.3-.8c.5-.3.7-.3 3 .5 2.9 1 3.1 1.2 2.5 1.6-.7.2-1.4.1-3.1-.5m-169-26q-.9-1.6.4-.7.6.7 1 0 .3-.5.2-1.4-.2-1 .6-.7 1 .5.7-1v-1.2l.6 1q1.3 1.8-.2 2.8-.8.5-.8 1c-.1.6-.9 1.2-1.5 1.2q-.5 0-1-1m232 31.5q-3.5-1.5-1.4-1.6c1.2.1 5.1 1.8 5.4 2.2q-.2.6-1.4.5zm-61.3-8.6q-3-1.2-1.2-1.5.9 0 .8-.8c.3-1.4 2.8-1.5 3.6-.2q.1.6-.2 1-.4.7-1-.3-.5-.8-1-.7-.6 1 1.5 2.3 1.9 1.3 0 1.1c-.3 0-1.5-.5-2.5-1m-172.8-27.3c0-.5.5-1.8 1.2-3 1.1-2 1.3-2 1.6-1.6.3.6.2 1-.9 3.1q-1.8 3.8-2 1.5m64 7.8 1.6-.7a8 8 0 0 0 4.6-4.7c1-2.8 1-3.2-1-5.1-1.4-1.3-1.8-1.8-1.9-2.5q0-1.5 1.7 0c2 1.8 2.8 3.7 3 6.6-.2 3.5-1.4 5.4-4.2 6.5-1.3.4-3.5.3-3.7-.1M588 289.8c.4-.7.8-2 .9-2.9.1-1.4.3-1.6.9-1.6s.7 0 .7 1c-.2 2.2-1.6 4.5-2.8 4.7q-.6 0 .3-1.2m-24.6-3.8 4.1-9.6c1.3-2.6 2.8-4.6 3-3.4q0 .6-.3 1l-1.8 4a30 30 0 0 1-3.9 7.7q-1.2 1-1.1.3m-9.8-3.4-1.9-1c-.3-.6.7-1.5 1.6-1.5q.8 0 2.3-.8c1.8-1 1.8-.7 0-6.4-.8-3.2-1.1-3.7-2.5-5.3-1.8-2.1-2-3.2-1-4.6.7-.7.7-.7 1.2 0 1.3 2.2 3.1 7.3 4.4 12.6q.5 1.8.9 1.2c1-1.1 3.5-6.7 3.7-8.7q0-.8 1-1.4l.8-.6.1 1.8q0 1.6-.2 2-.5.5-1.8 3c-.8 1.7-2 3.7-2.6 4.6-1 1.2-1.2 1.7-1.2 3.2-.1 3.1-1 3.5-4.8 1.9m3.8-1.8q.2-1.4-1.4-.4-1.5.8.7 1.1.8.3.7-.7m-17.5-10.4-.4-7.7c-.2-2.4-.1-2.8.4-3.4l.7-.7.4 6.5c.4 6.7.2 9.8-.5 10.3-.2-.1-.4-1.5-.6-5m37.8 9.9c.1-.8 1-1 3.7-.6 2.9.4 3.2.6 2.5 1.3-.8.2-5.7-.4-6.2-.7m17.7 2q-2.1-.4-.6-1.2 1-.3 5 1 1 .2.5.6-.6.6-5-.4m-65.6-10a9 9 0 0 1-2-1.8l-.8-1.3-.5.7c-1.3 1.4-3.6 1.6-5.4.6a6 6 0 0 1-1.6-3.3c0-.6 0-.7-1-.3-2 .6-4.3-.2-4.6-1.5q.4-1.9 3.7-3c1.7-.4 2-.7 2.3-1.5.3-1 1-1.7 1.3-1.4v3.3c-.2 1.7-.2 3.5-.1 4q.6 2 3.1 1.9c2.3-.4 2.4-.7 2.5-4.8 0-3.7.3-5.1 1.1-5.2.3.2.4 1.1.5 4.2 0 4.6.4 5.6 2 6.8q1 .6 2 .8c1.1.2 1.1.2.4-4.9-.5-3.3-.5-3.6 0-4.7q1-1.8 1.2.6l.5 4.7c.6 3.9.4 5.3-.8 6.3q-1.7 1-3.8-.1m-10.4-8.2c0-.9-.4-1-2.2-.5q-1.3.4-.7.7t1.6.5q1.3.1 1.3-.6m-52.6-2a3 3 0 0 1-.5-1.5c0-.7 0-.7 1.4-.3 1.2.3 1.8.2 3.2-.3q1.5-.6 1.9-1 0-.6-.7-2.5-1.3-3.5-.6-4 .3.3 1.7 3.4c2 4.3 2.7 5 5.5 4.9q1.7-.2 2.3-.6a9 9 0 0 1 2.3-2.1q.4.1 1.9 1.5a6 6 0 0 0 3.6 2c2.5.4 6.2.4 8 0l1.2-.4-1-.4-3.4-1a8 8 0 0 1-2.4-.9c.2-1.2 1-2 3.6-3 3-1 4-1.8 5.4-4 1.7-2.4 2.8-2.1 4.2 1 .6 1.3.6 1.6.3 2.6-.4 1-.5 1-1.5 1l-2.3-1c-1-.5-1.1-.5-1.7 0q-.7.7-2.2 1.5l-1.6.8 1.8.7 5.7 1.6c2.3.6 4 1.2 4 1.4l-.3.9c-.3.4-.6.5-2.2.3a14 14 0 0 0-4.6.3 24 24 0 0 1-10.4.8c-2.6-.3-3.4-.3-3.6 0-.4.4-2.1 0-3.8-1.1-1-.6-1-.6-1.6-.2-1.8 1-4.2.6-5.9-1.2l-.7-1-1.2 1.1c-2 1.5-4.5 1.8-5.8.7m17.2-1.6q-.7-1.5-1.3-.7-.6.5 0 .9l1 .4q.8.2.3-.6m19-6.7q-.8-2-1.7-1.2c-.6.5-.6.5.2 1q.7.6 1.3.7.7.2.3-.5m-88-3.6 1.1-1.7-1-.5c-1-.4-1-.6-1-1.7q.2-2.3 1.5-2l1.3 1.8.8 1.4-.9 1.6q-1.6 2.7-2.5 2.9l.8-1.8zm1-3.7q-.1-.8-1-.6-.2.1-.1.5c.3.4 1 .5 1.1.1m25.3 4.2c1.2-1.6 1.2-1.8.2-2.5q-1.4-1.2-.3-2.9c1-.8 1.5-.5 2.4 1.6.7 1.6.7 1.7.2 2q-.5.4-.5.7c-.2.6-2 2.3-2.6 2.4q-.3-.2.6-1.3m1.2-3.8-.4-.4-.4.2q-.1.4.4.4t.4-.2m9.5 6.5c-.3-.5-.3-2 0-2q.3 0 .5.6.7 1.4 1.7-.5.6-1.3.8-.2 1 1.5 1.4-.2c0-1 .5-1 .7-.1.2 1.5-.7 2.8-1.8 2.3q-.4-.1-1 .2-1.5.5-2.3 0m-1.2-3q.2-.6 2.2-2.4c2-1.7 2.2-1.7 2.3-1s-.3 1.2-2 2.5c-2.2 1.7-2.5 1.8-2.5 1m65 5.9q0-.3 1.3-.7c2.1-.5 2.3-.7 1.5-1.6q-1.2-1.5.8-2.4c1.5-.5 1.9-.1 2 2.2q-.1 1.8-.4 1.8-.4-.1-1.9.3-3 1-3.4.4m4.6-3.2q0-.4-.5-.6-.8 0-.2.8.6.6.7-.2m44.6 9.8-2-.7c-.9-.2-1-.3-1.2-1q0-1.4 1-1.6v.6q-.1 1.6 1.6.7c1-.6 1-.6 1 0s.9 1.5 1.2 1q0-.3.6-.9.5-.8.5.3 0 1.3-1.5 1.9zm-98.2-16.5q0-.3.3-.7c.7-.6.7-1.5-.1-1.7q-1.4-.3.1-1 1.6-.6 1.4 1.5c-.1 1.2-.1 1.2.8.9.5-.3.6-.5.4-1.6q-.2-1.3.7-2c1-1 2.2-1 2.6 0 .1 1-.9 3.9-1.4 4l-2 .5c-2 .6-2.4.6-2.8 0m5-3.2q0-.7-.3-.8-1 0-.7 1.2.6 1 1-.4m7 5c-.4-.7-.5-2.2 0-2.3q.3 0 .3.6l.4.7c.6.3 1.5-.5 1.6-1.4q-.1-1.1.6.2 1.3 1.6 1.3-.3.3-1.5.8-.1c.2 1.6-.8 2.7-2 2.4l-1.3.3c-1.2.5-1.2.5-1.7 0m46.4 5.3c-.6-.8-.6-1-.1-2l.4-.7.2.9q.4 1.8 1.7.5l.7-.7.6.8.5.8.4-.9q1-1.5 1 0 0 2.1-2.3 1.8h-2q-.6 0-1-.5m-37.3-6q-.2-.9 3.2-2.1c3.6-1.2 3.1.1-.5 1.7-2.5 1-2.7 1-2.7.4m75 10.1c.5-.5 1-.5 3.5-.4 2.5.2 2.8.3 2.6.7-.3.7-.6.8-4 .5l-2.8-.1zm-64.3-11 1.6-1 1-.6-.8-.8c-.9-1.1-1-1.3 0-2.5q.6-.8 1.4-.7.9 0 1 1.4l.3 2c0 .5-.3.9-2 1.8-2.2 1-4 1.4-2.5.4m3.4-3.7q0-.5-.5-.6-.8 0-.3.7t.8-.1m-23.6.4q0-.4.4-.9a28 28 0 0 1 5-2.4q.4 1-1.8 2.2l-2.6 1.1q-1.1.6-1 0m46.5 6q0-1 3.3-1.7l2.8-.4q.3.9-1.1 1.4c-2 .5-4.8.8-5 .8"/><path fill="#1a1a1a" d="M8 195.3c170.8-85.3 341-54.5 513.3-28C676.5 191 833.4 211.8 992 132.7v672c-170.8 85.3-341 54.5-513.3 28C323.5 809 166.6 788.1 8 867.2zm31.3 19.3v604.5c306.5-128.2 611.1 96 921.5-33.7V180.9C654.2 309 349.5 84.9 39.3 214.6" opacity=".2"/></svg>