<svg xmlns="http://www.w3.org/2000/svg" viewBox="0 0 1000 1000"><path fill="#fe0000" d="M8 195c171-85 341-54 513-28 155 24 312 45 471-34v672c-171 85-341 54-513 28-155-24-312-45-471 34z"/><path d="M8 195c108-54 216-62 328-52v672c-108-9-217-3-328 52z"/><path fill="#028002" d="M664 185c108 9 217 3 328-52v672a597 597 0 0 1-328 52z"/><path fill="#fff" d="M539 763q-9-3-9-12-1-7 5-11l1-1a115 115 0 0 1-72-11l1 2 4 5 1 6-1 5q-3 5-8 5-6 1-37-12c-20-8-20-8-28-9h-14c-15 0-21 0-30-2q-21-6-28-19v-3l2 1c8 2 22 4 28 3q2-1-2-2-8-3-13-10l-8-19 4 3a64 64 0 0 0 46 9 53 53 0 0 1 23 2l3 2 2-1 6-5-16 1 3-2-4-1-8 1q-2 0 1-1l2-1h-13l2-1 1-1-13 1 3-2 2-1h-4l-7-1 2-1 5-4h-3l-9-2-5-2-3-1h2l5-2 6-2 7 1q3 2 1-1-3-6-10-6l-4 1v1l-3 5-3-1q-1-2-2 1l-3 2-3-3-1-1h-24q-8-3-15-11l-1-1 2 1 10 1 11-4-11-1q-12-2-20-11l-7-8 3 1q3 3 17 4l13 1-4-3-14-15-3-7v-2l-11-9-2-2 5-2h5l2 1-1-2-2-2h-1 2q5 2 1-1-4-2-6-5v-1h4l-2-1-3-2-4-3-3-1-7-8 8 20-7-5c-10-10-18-25-17-34q1-6 7-8l2-1-2-1-4-5-8-8 13 1-2-2-11-12-2-2 3-1 8 1q2 1 0-1-4-3-6-10l-3-15q0-10 3-15v-3q-2-4 1-1l2 1-1-2-5-7v-1l1 1 4 1v-1c-2-1-5-7-6-9h2l8 2-1-1-4-11v-4l-1-1h2l1 1v-1q-3-5-3-10v-3l1 2 3 4 2 2-1-3q-5-12-2-23l1-2v2l2 4 3 3-1-6h1l3 3h1l-1-2-4-6-1-2-5-4-4-4h10v-1l-1-3-2-4v-2l3 3 3 3-1-2-1-5-2-5-1-2 1 1 1 1-1-14 5 1 2 3 1 1v-6l1 2q3 6 2 1l1-5v-5l1-3 1 3 1 2v-4l1-7q0-7 1-1l2 3v-3l1-5 1-5v-2l1 2v3l1-2 1-4v-5l1-3 1 2q1 3 1-1l1-5 1-3 1 4q1 2 1-1l2-4 5-11 1-3 1 3 3 6v2l1-3 3-8 4-8 3 5 2 8v1l2-5 5-12 4 9v2l2-3q6-13 22-25l7-6 3-2v4a38 38 0 0 1-6 20l2-1c5-2 7-2 15-1l8 1q2 1-4 3-14 6-20 13l-6 6 3 2q4 1 1 1l-2 1-7 5q-4 5-7 6h-1l2 1h-1l-3 3-4 3 2-1h4l-1 1-3 4-3 3v1h4l-1 1-5 6-2 2h2q5-2 2 1-6 5-6 8l7-3 1-2v8l-5 8q-3 4 1 1l3-1-2 3-7 7-1 1h1l3-1 2-1-5 6q-3 4 0 2h2l-6 7-3 3-2 1 4-1q8-6 3 0l-5 6-1 3 2-2q6-8 11-10h2l-1 2-3 11q-2 10-4 12v4l1 7q1 7-6 22l-2 4 4-1 1-1-3 10 3-2 1-1v1l-3 9-1 3 3-2h2l-1 2-4 11 6-6 1-1v1l-3 12 2-2 4-1 4-1-2 3-3 9q-1 3 3 10l11 22 1 12v1q1-1 1 2l1 8-1 3 3-4 1-1 1 3 1 7v3l2-5 1-1 1 11v3l1-2 1-3q1-3 1 2v3l1-2v-13l6 7q8 10 6 23l-1 4h2l8 2 24 15q10 7 8 15v4l1 2 2 1 4 9q1 3 2 0l-2-4q-6-9-6-20v-3l2 3q4 9 12 13l6 3-1-2-4-10v-13l1 1 9 10q8 7 11 12l7 15 1-1q2-4 10-6 4-1 9 1l1 1 2-2q5-2 11-2 4 1 5 3l3 1 2-1h5q8 0 12 5l1 2h2q8-1 14 4l5 7v1l1-2 6-11 11-9q7-3 9-7l1-1v1l1 5q1 9-5 16l-1 1 7-1q7-3 12-10l1-2v9l-5 12-2 4q0 3 1 0t5-7q1-2 2-1l1-4v-8l6-6 25-10h9l1 1v-15q2-7 6-12t6-5l-1 3v5l1 8v-3q1-6 1-2l1 3 1 1v-3l2-10 1 2 1 4 1 1v-3l1-10 1 1 3 4v-2l1-10 1 1 1 1-1-2-1-5 1-7a100 100 0 0 1 15-26l-4-15-1-2 5 2 4 3-1-3-2-9q0-3 2 2l4 4v-2l-3-10-1-2 2 1q2 3 3 2v-1c-2-2-4-9-4-11l2 1 2 2-1-4-2-7 1 1 4 2-2-5q-8-20-5-29l1-2-1-2-3-10-5-16 6 3 7 8 2 2-1-3-4-6q-6-5 1-1l4 3-1-1-9-11 3 1h2l-3-2-5-8 2 1 3 2-1-2-3-3-4-7 2 1q5 3 1 0-5-6-5-15v-3l2 2 7 5-6-9-1-2 2 1h2l-1-1-2-3-4-5q-2-1 1-1l2 1v-1l-3-4-4-5 5 1-2-3-3-3v-1l-1-1-7-7q-5-7-8-7l-2-1 3-1h2l-6-9q-7-9-22-18l-2-2 8 1c8 0 10 1 14 3l3 2-1-4q-4-7-4-17l-1-4 3 2 7 8a97 97 0 0 1 24 33l1-2q1-7 4-9v2l4 11 2 5 1-2 1-5 3-7 1 2 3 8 3 8 1 3 1-3q0-3 3-7l1-1v3l3 7 3 7 2 3 2-4v2l1 6 1 3 1-2q1-3 1 1l1 6 1 3q0 3 1-1v-2l1 2 1 5v6q1 5 1 2l2-5 1 2v7l1 5 1-2 1-2v3l1 5v7l2-3 1-2v3l1 3 1-2 5-3q3 0 1 2l-1 12 1-1q3-2 1 1l-3 6-1 4v1l3-2 2-3-3 9 3 1 7 1-5 4-5 5-3 7-1 1 3-2 2-1-1 1v5l3-4 1-3 1-1v2l1 7-1 9-3 9 4-3 2-3v-2 3l-3 12 2-1 2-1-1 1-1 4-1 4-2 7-1 1 6-1q5-3 2 1l-4 7v1l2-1h2l-6 10 3-2h1l-1 2q-2 1 1 3 4 5 1 23c-2 10-4 13-8 17h11l-2 2-11 12-1 2 7-1h6l-1 1-7 8-5 4q-3 1 1 2 8 2 6 14-3 15-17 28l-7 5 2-4 5-13-6 5-3 1-4 2-3 2-1 1h4l-2 4-6 3h2l2-1-2 2-1 2h6l6 3-3 1-10 7-1 3-1 4a60 60 0 0 1-19 19h12q15 1 19-2l1-1-6 8-14 8-17 1-7-1 27 6h2l-2 2q-6 6-13 7t-15-2l-5-1h-5l-3 2q-1 1-4-3h-4q-2 0-3-5l-1-2-3-1q-5-1-8 1l-3 4h2q4-1 10 3l8 4-1 1-6 1h-9l-2-1 4 5 2 2-10-2 2 2 2 2-2-1-11-2 1 1 2 1-13-3 2 1 1 1-12-3 2 2 1 1-4-1-12-4 6 6 2 2 3-1 10 1 12 2c10 4 13 4 18 5q14 3 29-5l4-1-2 7q-4 12-14 16l-8 3 3 1 10 1h19l-1 2q-6 12-25 14-12 2-30-3-19-6-25-4l-14 1c-22 3-26 3-34 3-5 1-4 1-8-1m-77-17 2-2 1-4v-4q-3-6-10-7l-18-1-12 1q-20 0-28-7-6-8-2-17l7-8q0-2-7-2h-33l-10-2-16-7 1 3q6 13 26 19l3 2-7 3a56 56 0 0 1-29-1l2 2q6 6 17 9c9 3 16 3 29 3l18 1c8 1 10 1 27 8 20 8 27 10 33 11zm87 14 28-2c16-2 18-2 27-1l23 5 20 2 16-4 6-4h-3q-11 1-23-3l-9-5-1-1 2-1q17-1 24-10l4-7-3 1-12 3h-11l-23-5-16-3h-1l2 2 6 8q3 10-3 16-5 5-20 2l-20-6-17-5q-11 0-11 8 0 6 5 8zm-127-37h32l-34-17-13-2q-9 2-8 8t6 9zm168 26q8 0 10-4v-7q-1-4-9-7-7-3-22 0l-23 6q4 0 22 6 15 6 22 6m-83-14a130 130 0 0 0 49-5l21-4 14 1 2 1-1-1-19-21q-6-10-13-11h-11q-23 3-44 1-22-2-55-16l-12-4q-7 0-12 7c-3 5-14 14-19 17q-2 1 0 0l10 1 24 11c15 8 23 12 32 15q18 8 34 8m-4-10-2-1-1-1-1 1q-1 1-4-1l-2-1h-4l-6-2q-11-2-18-6l-3-3h-1q-4 1-7-3v-7l1-7 2-3-1 7-1 7q4 4 7 3l1-1 1 1q0 2 2 3l19 6h5l1-1v1q-2 1 1 2l3-2q1-2 1 1l1 2q2 1 3-1h1l1 2 7 1-1-2-1-2 1-3 2 4q1 5-1 6zm15 2q-3-1-4-8l-2-11h1l2 7 2 7 2 1c6 1 14 0 14-2h-2q-2-1-1-3 3-3 7-1v4h1c3 1 13-2 16-4l1-2-1 1h-3l-2-2q-2-5 1-6l5 4q3 5 1 8-3 3-12 5l-7-1h-2l-1 1-8 2zm34-14-2 1zm-111-9-4-4q-2-1-2-3t3-5q5-3 2 0l-2 2q-1 5 7 7 4 2 3-4v-3l1-1h2v4q-3 9-10 7m65 7q-2-2 1-2h1l1 1v1zm-41-7-2-1h-1v-3h1l1 1h1l2 1v2zm96 11-7-13v-2l9 17v1zm-30-3-1-2h2q3 0 1 2zm-84-23q-1-3 1-2l1 1v2zm99 16q-2-2 1-3 2 0 1 2l-1 1zm-131-18q3 0 5-2 3-3 0-5-4-1-9 3l-2 3 1 1zm176 26-1-1-2-3q-4-5-9-5-3 1 0 4 3 5 9 5zm-195-30 4-2v-3l-2-1h-3l-6 6 4 1zm10 2q6-2 5-6-2-3-6-1l-6 6zm194 29-6-8q-5-3-6 0 1 3 6 7zm10 1-5-8q-6-3-6 1l4 5 4 2zm10 0-2-3-4-4h-5q0 2 4 6zm-234-34q6-2 3-6-3-1-7 3-4 5 0 4zm-9-2 2-1q3-4-1-4l-6 3-1 2 1 1zm251 36-1-2q-4-5-6-5l-2 1q0 3 5 6zm-204-34v-1l-1-1v2zm153 23v-2h-2v1q1 3 2 1m-206-30 3-1v-1l-7-3-7 2-1 1h1q4 2 11 2m268 37 1-1q-7-5-13-4l-2 1 6 4zm-137-26v-8l-1-1q-3-2-4 1v14l3 1h2zm-98-8h-1v1zm11 1h-1v1zm80 6-1-8-4-1v12q0 3 3 4h2zm14 9 1-7v-7l-1-1-3-1-1 1-1 14zm78 10h-1l-1 1 1 1zm10 3v-2h-3l1 1zm-203-31-1-1-2-1v3zm214 31-1-1v-1h-1l-1 1 2 2zm-224-32 2-1h-3l-1 1zm104 12-2-11h-3v13h1l2 1h2zm28 7 1-13-3-1-1 1-1 5v6l-1 2zm101 14h-2l1 1zm-136-22v-5l-1-4-2-1-1 1v10l4 1zm41 8 1-5-1-5-1-2q-2-1-3 6v6zm-111-17q2-3-5-9l-5-1q-2 0 1 4l3 4q4 3 6 2m182 27 5-5 1-3h-6q-5 2-6 6 2 3 6 2m-192-28 1-2-2-3q-2-3-7-4h-2l3 6zm21 3q2-3-3-7-3-3-8-3h-1l2 2q3 6 5 7zm4 0 1-2-4-2 1 1v2q0 3 2 1m149 21 1-2v-1l-4 2 3 3zm7 2 6-4 1-3h-7l-3 1q-3 4-1 6zm20 3q2 0 5-4l2-2-7-1q-5 2-4 6zm-221-32q1-2-3-6l-4-2h-2l1 2 6 6zm9 1q1-3-3-7l-6-2v1l2 3q2 5 6 5zm223 32 2-2 3-5h-2q-6 0-7 5v1zm9 1 4-4q2-3-2-2-5 1-6 4 0 3 4 2m-152-22-2-3-9-14-9-13q-4-5-11-9l-10-8 15 8q5 3 10 10l3 4-2-6-4-6q-3-5-15-11l-9-4-8-7-2-3v1l4 10q6 9 17 16 9 3 18 18l8 10 4 6zm4 0-6-9-3-9q0-6 5-7 4-1 9 1l3 1 2-1q3-3 8-2l5 1 3 1h9l7 5 1 1h3l10 2q4 3 4 9t-7 14l-2 2c0 2 8-7 12-13q5-11 1-20-3-5-9-8l-8-2q-2 1-3-1-8-8-17-5l-1 1-2-2q-9-4-16 0-2 2-3 1l-9-1-7 2q-4 4-4 11 1 9 8 21 7 11 7 8m59 7 11-12q6-7 11-10l5-2 6-1q9-4 13-10l3-9-3 2-5 4-10 2c-10 2-12 4-16 7q-3 2-4 5l-2 4v1l1-1q7-7 14-10l14-3-5 3-6 2c-9 3-12 6-20 16l-11 14zm-185-24c2-3 2-12 1-17l-4-7-1 1q-2 0 1 3 3 9 1 15l-1 3 2 2zm306 41-1-5-1-9 3-5 1-4q-1-2-3 2-4 3-3 11v7l3 3zm-189-27-3-3-7-11c-9-11-11-14-18-17l-10-7 1 3 1 4q1 3 2 0v-1l1 1 2 3 5 5a139 139 0 0 1 25 24zm74 9q10-8 22-14 3 0 5-4l2-2 1 1 1 2v-2l2-6-1 1-9 3-10 5-17 19zm-78-9-23-21-1-1v4l2 1 10 10q2 3 9 6zm82 11h5l3-3 9-6 2-1v-4l-1 1-12 6-10 8zm-212-28 4-1 1-3 2-3q2-2-1-2l-10 1-15 2h-2l9 5zm349 44 9-3 1-1h-3l-13-3-13-4h-1l1 1 2 6v1l2 1q9 3 15 2m-251-33 2-1 1-2-2 1-2 1-1 1zm143 21-2-1-1-1 1 2q2 3 3 1m-217-32v-9q-2-11-5-10l1 2 2 13v5q1 2 2-1m120 16v-2h-2l2 4zm51 8v-2l-2 1q0 4 2 1m121 17v-12l1-5 1-2q-3-2-5 9l1 8 1 2zm-306-41 2-2 2-8-4 1q-3 6-2 8zm319 41q1-3-2-8-4-4-3 1 0 6 3 7zm-100-14h6l-1-1-2-3-2-2-7 4-2 2zm-133-19q4 0 1-4l-6-3-7 1 1 1 4 2q5 4 7 3m19 2-7-7-2-1-1 2-2 2-1 1 1 1 4 1 6 1zm132 19 4-1 2-1h-1l-9-3q-6 2-3 5t7 0m-180-27 2-1q3-3-1-5h-5l-6 3 4 2zm209 30h3l1-1-2-2q-5-4-9-4-4 1-1 4 3 5 8 3m-230-33-5-1h-2l3 1zm97 13h1l2-2h4l1-1q2-2 5 1h1l3-1 4 1 1 1 1-1q3-2 6 1l1 1h1q3-2 6 1l1 1h1l2-1 3 3h1l4 1 1 2 1 1 2 1 3-3q4-9-3-13l-9-1-2 1-2-2q-2-4-8-5h-5l-1 1-2-1q-2-2-5-2h-5l-3 2-2 2-2-1-5-2h-5q-6 3 0 14l1 1zm153 22h3zl-4 1q-1 0 0 0zm-242-35 1-1v-1l-3-1-2-1-1 2-2 1h2l4 1zm233 33h3l-1-2-2-1h-3l-1 1v2h-1zm-209-30 2-1h2l2-1h-1q-4-1-5-3l-2-1-1 1-1 1-1 1v1l1 1 2 1zm186 27-1-1-1-1-1-3-2 1-5 1-1 1 1 1 2 1h2l2 1zm-162-24q3-2 2-8l-3-8v-1l-2 4q-3 5-1 9l2 3zm136 20 2-6-2-6-1-4h-1l-3 7q0 6 3 9zm-200-29h5l-10-3h-5l-1 2 3 1zm273 38q0-3-5-4l-11 2h3l7 1zm-264-38 1-2-3-3h-2q-2 2-7-1l-4-1q-2 3 1 2l10 4 3 2zm253 33h4l2-1-1-2-3 1h-12l-1 1 1 1 1 2 1 1 3-2zm-240-34q4-2 1-5l-5-1-7 3 4 2q4 3 7 1m184 26-1-2-1 2v1h1q3 0 1-1m43 6 2-1-7-4-6-1q-3 3 1 5l5 2zm-198-28 2-2v-1l-1-2q-5-4-11-3l-3 1v1l5 4 4 2zm7 0-1-2-2 1 1 2zm159 25 6-3 1-2-3-1q-8-4-12-1-3 3 1 5zm-227-33q4-5 0-7l-2 1v3q1 5 2 3m45 5q2-5-1-10l-4-4-1 8 3 6zm194 28 2-2 1-6v-5l-4 3q-3 3-3 8 1 4 4 2m44 5v-5q-2-2-4-1-1 3 2 6zm-304-42h6l-2-4-4-3q-9-4-25-4l-18-3 5 5q12 9 38 9m340 44q12 0 19-4 6-3 7-6l-3 1h-15c-14-1-17-1-24 1q-5 1-6 3-2 2 1 3zm-281-38v-1l-1-1-1 1zq3 0 1-1m207 30v-1l-1-1-1 1v1l1 1zm29 3 2-1q3-1 1-2-4-2-9 1v2zm-260-36v-2l-7-3q-4-1-3 2l1 1 3 1zm9-1 3-3q-1-3-5-3l-8 3 4 2zm44 5q3-4 1-10l-3-6v2l-2 4q-3 4-1 7 2 5 5 3m150 23 2-3q2-2-1-8l-2-5-1 1q-3 3-2 8v4q3 4 4 3m48 6 2-1q2-1-1-2l-5-3h-5l-1 2 4 3zm-228-34v-6q0-4-4-7-1-2-2 3-1 7 3 9 2 3 3 1m211 30 2-4v-9l-5 5q-3 5-1 8zm-217-31-1-2-1-1-1 1 1 1zm222 31v-2l-2 1-1 1zm-247-35 2-1h-2l-5-2q-3-1-2-2h2l1-1-3-2-3-1-2-1h2l5-2-1-1-2-2h-1l-4 1-17 7h-1 2l5 2v-1l4-2 2 2 2 2v-1q3-1 6 2 1 3 2 1l4 1 2 1zm218 30q-1-2-3-1v3h2zm-171-25 2-2v-2q-5-3-10-3l-2 1 1 1 3 5zm7 0v-1h-1l-2 1 1 1h1q1 2 1-1m175 26 2-3 1-1-1-1h-10l-1 2 1 2 6 2zm44 6h7q2-3 5-1l1 1 1-1 3-2 3 2 1 1h1l4-1h1l-1-1-17-8-3-3h-1l-2 1-2 1 5 3 2 1h-1l-4 1-3 1h-1l2 1 2 1 1 1h-3l-4 1h-2l1 1zm-265-38q6-2 3-5h-7l-4 2 4 2zm258 36 3-1-4-4-4-1q-6 1-2 4l5 2zm-243-36q1-3-1-7l-4-6-1 4q0 6 2 8 2 3 4 1m227 33 2-4-1-8-4 3v8q1 3 3 1m-233-35-1-1v-1l-1 1v1l1 1zm239 33-1-1-1-1-1 1v2h1zm-203-29q3-2 2-5 0-5-3-8l-1-2v1l-3 8q1 5 4 6zm166 24 2-4-1-6q-2-5-2-3-4 3-4 8l3 6zm-247-35q9-2 34-16 18-10 23-10 11-1 17 10l1 3v-2l-1-6-14-11c-17-11-17-11-22-11-4 0-5 0-16 5-27 13-38 17-48 16q-5 0-8-3l-1-1 3 6c5 8 15 18 21 20zm339 44c6-3 15-12 19-18l2-4-1 1-9 1c-9 0-20-6-41-20l-17-11-9-1-27 10q-6 3-6 9v2l1-3q3-4 8-6l5-1 6 2 22 15 24 18q12 7 17 7zm-309-42 3-2q0-2-3-2-2-1-6 1l-2 2q5 2 8 1m272 38 1-1-5-4q-5-1-5 1l2 3zm-233-34q3 0 1-3t-8-3h-4l4 5q4 3 7 1m6 1v-2l-1-1q-2-1-2 2l1 1zm177 26 1-1v-1l-1-1-1 1-1 2zm11 1q5-2 5-4l-8-2q-6 2-5 5 3 3 8 1m-220-32q1-4-2-10l-3-2v9l3 4zm243 35 2-4-1-7q-2-1-4 3l-1 4 1 3q2 2 3 1m-248-35-1-2-1-1h-1l-1 3zm253 35v-1l-1-1-2 1v1zm-78-20 4-6 4-3h1l-1 1-5 8h3q7-4 11-12l1-8h-1l-6 4q-11 6-14 14l-4 10 2-2zm-95-10a50 50 0 0 0-18-26l-4-4-2-1v2l3 9a29 29 0 0 0 12 14l-5-11 6 7 3 5 6 9zm-65-9 1 1 1 1zl-2-2-2-1v2l1 2 1 2v-1zm222 33v-4l-1 1-2 1-2 2h1q3-2 2 1zm-240-33 1-3-3-7h-1l-1 2q-2 5 1 7 2 2 3 1m258 35q3-1 1-6v-3l-4 4v5q1 3 3 0m-219-32q3-1 2-6 0-4-3-7l-2 3-1 5 1 4q2 4 3 1m180 27q3-4 0-10l-1-3-1-1v1q-5 7-1 13zm-226-32q1-2-1-4h-3l-2 2 3 2zm274 37 2-1-5-3-2 3q0 3 5 1m-42-6-2-2-1-1v1l-1 2v1l2-1zm-191-28v-2h-2l-2 1 2 1zm-7-1 2-2-2-2q-2-3-7-2l-4 1 2 2zm208 29 4-2-6-3q-7-1-6 3 3 5 8 2m-224-33q2 3 3 1 1-3-2-4l-6-1 1 1 1 3 1 2v-3zm235 33v2l1-1 1-2 2-1-2-1q-5-1-7 1l1 4 2-1zm16 0q-1-2-1 1v1h1zm-268-36 1-1h-1zm39 3q3-4-1-10l-1-1-2 3-1 4 3 5zm192 29 2-4-1-5-1-3h-2l-2 7 2 5zm-223-33-1-2q-2-3-2-1l1 2 2 2zm252 36 2-2v-1h-1zq0 2 0 0m-236-36h2l-1-2-6-7-1-2-1 1-2 1 1 2 6 8zm223 32 3-4 2-3-1-1-2-1-1 1-5 5-2 2 4 2zm-229-33-3-5-2-2-2 1-3 2v1l2 1zm239 33h2v-2l-3-2-2-2-1 1-4 5zm-225-34-3-6q-4-6-7-4-3 1 1 6t8 5zm208 31q6-3 7-7-1-3-5-2l-6 5v4zm-198-32 1-2v-2l-5-5-3-1 2 3q4 5 4 8zm184 27 2-4 3-3 2-2h-1q-5 1-7 5l-1 2zm-192-30 1-3-2-4-6-1-1 1 1 1 5 6 1 1zm201 29 4-3 2-3-5-1q-4 1-4 4l2 5zm-281-37q5-1 2-3h-11q2 3 5 3zm-10 0-2-2-7-6 6 4 3 2-2-3-3-4q-4-5-9-5h-5l1 1 6 5 9 7zm376 45 2-2h-6l-4-1q-2 0-1 2l7 2zm7 0 8-5 5-4q5-2-2-2-6-1-9 3l-5 5v1h1l7-4-7 6-1 1zm-364-48 2-1v-2l-3-7q-1-2-2 3l-1 7zm345 44q1-3-2-9v-2l-1 1q-3 6-2 8zm-357-45 2-1q0-3-5-5h-8l3 4q5 3 8 2m7 0-1-1-1-2-1 1v1l1 1zm353 45 1-2-1-1-1 2zm11 0 5-4h-1l-3-1q-4-2-7 1-3 2-1 3 2 3 7 1m-351-47 3-2-6-2h-2l1 4 1 1zm330 44v-3l1-2h-3q-5 0-5 2zm-344-46q2-4 1-9l-2-4-3 7 1 5zm356 44q3-3 0-10l-1-3-1 1q-3 6-1 11 1 3 3 1m-337-44v-2l-1-2h-1l-2 1 1 1 2 1zm317 41 1-1 1-1-3-1-1 3zm-347-45 1-1q-1-3-5-5l-7 1 3 4q5 2 8 1m5 0-1-2-2 1 2 1zm31 1 1-3q-1-5-4-2l-2 6 1 1 1-1zm308 42q-1-6-3-7-2 0-2 3v2l2 2 3 1zm28 3-1-1q-2 0-2 2zm10 0 4-3-6-2q-5 0-6 4 3 3 8 1m-357-46v-3l-5-2h-4v1q4 5 9 4m331 43 3-3v-1h-6q-3 1-3 3v1zm-351-47q2-4 0-10l-2-1-1 2q-2 6-1 8l2 2zm24 2 3-3-2-2-2-1q-2 1-1 5 0 3 2 1m319 43 1-3-1-4-5 2 3 4zm25 1q2 0 2-5l-3-6-3 5v3q1 5 4 3m-332-44 2-1h-5l1 2zm296 40v-1l-3-1h-1l2 2 2 1zm-338-46-1-1-1 1 1 1h1zm-5 0q3-1-1-3-1-3-7-1-6 0-2 2 5 3 10 2m384 47 1-1-2-1-1 1q0 3 2 1m11 0q4-1 3-3l-8-1-3 2q-1 5 8 2m-376-47v-3l-4-6v4l4 6zm6 1-2-1-2-3-1-2v2l1 3v2h2zm342 44v-3q1-4-1-1l-2 3q-3 1 0 1zm3-1 2-4v-4l-3 5-1 4v1zm-317-41 1-1-7-5-9-4-10-4 3 6 8 5 8 3-6-5-2-2q8 3 11 7zm286 38 4-2 7-2-3 2q-7 3-6 4l3-1q7 0 12-5l3-4h-2l-7 1-8 2-9 4 3 2zm-310-40 1-3q0-3-7-8h-3q2 7 6 10zm331 43q5-3 7-9v-2l-7 4-3 4 2 3zm-302-43q3 1 1-4c-1-3-1-3 1-11v-3l1 2v8c0 8 0 7 1 7l2-5a27 27 0 0 0-7-24v3l-2 10q-2 8 1 16-1 3 2 1m274 36a29 29 0 0 0 0-16q-3-4-2-9v-4l-1 1q-4 5-6 11c-1 6 0 15 2 17l1-7 1-9v-1l1 3 1 11-1 3 1 2q2 2 3-2m-360-50q-9-19-9-25l1-3v-1l-2-1q-9-1-1 18a69 69 0 0 0 15 21zm34 9v-8q-2-4-3 0-3 5-1 8l2 1zm379 47q2-2 0-9l-1-2h-1q-4 6-1 11zm30-2q14-16 15-30 1-4-2-4h-4v3q2 6-8 25l-5 9q0 2 4-3m-415-47-1-2-1 1q-2 1 1 2zm390 47-2-2-1 2v1h1zm-336-43h-1v1zm281 38v-1 2zm-340-43q4-2-2-4l-7 1 4 3zm18 1q1-5-2-9l-1-1-1 1 1 6zm363 45q3-5 2-8v-1h-1l-3 9zm22 1 3-2-5-2q-5 1-5 4zm-379-48-5-9-4-5v1l-1 1 10 14zm354 40 5-6v-1q0-2-5 4l-4 6-1 3q2 0 5-6m-322-37q3-2 2-8l-1-3-6 7-1 2 2 2 3 1zm289 40q4-1 2-4l-7-8v2q-1 6 1 10zm-340-45 1-5-2-4-2 5v2q0 5 3 2m390 47 1-3-3-6-2 5q0 4 3 5zm-346-45-1-1-2 1q-2 1 1 1zm302 41v-1l-3-1 2 2zm-319-43-2-4q-3 0-1 2l1 2zm335 44 2-4h-2l-1 2-1 2zm-378-47-1-1-6-7 6 5 3 1-3-3q-4-7-11-8h-3l1 1q3 6 8 10zm421 48q4 0 7-4l6-8h-3q-7 0-12 8-3 4 0 2 6-6 8-5zl-2 2zm-366-45v-3q-1-3-6-4l-8-2 5 6q5 5 9 3m315 42q4-1 7-5l1-2h-9l-5 4v2zm-360-46q1-1-2-5l-6-3-2 1 3 5 5 3zm405 47q4-1 4-6l-1-1q-6 0-8 5v3q2 2 5-1m-390-51h-1l-3 1h-2l4 4 1 2 1-3zm362 46 4-5-2-1-8 8q0 3 1 2zm10 5 3-4h1l-1-1-4-1-1 3 1 3zm-359-45-4-7-4-5-1 1-1 1 4 4 4 6zm24-1 2-3 1-6v-4l-7 7v7zm300 41v-3l-1-4-6-7-1 4 1 5q1 4 4 5zm-350-45 1-2-2-2-5-6v-1h2l-1-1h-7l3 3 4 5 3 3zm397 46 3-3 7-7h-7v1h2l-5 6-3 1 2 4zm-369-46q-3-4 0-3h2l-1-1-6-7v-3l2 1h2l-1-1a21 21 0 0 1-7-11h1q3 2 0-1l-2-4-1-3h3l-2-2-2-2v8l-1-1h-2v4q0 4 1 2l1-1 3 5q3 5 2 10-2 1 3 7l6 5zm341 44 4-4 3-4q-1-5 1-11l4-5v1l1 2v-2l1-3-1-2q0-3-1-1l-1 1h-1v-3l1-4-2 2-2 1 1 1h2l-1 2-3 4q-3 3 0 1h2a19 19 0 0 1-7 10l-2 1h2l3-1h1l-1 2-6 7-2 1h2q3 1 0 3v2zm-15-4-1-1-1 2v1l1-1h2zm-311-42h-2v1l1 1 1 1zm-33-1q4-1 1-5l-5-2-8 1q0 3 5 5zm383 46 5-4h-1l-3-1q-5-3-8-1l-3 3q0 3 6 4zm-354-47-4-5-6-1h-5l5 5q2 3 6 3zm325 43 6-6-9-1q-8 4-4 7zm-373-46-9-9-11-7-1 1q-1 4 1 10l1 1h3l9 3 4 1zm421 47 9-2h3v-1l2-7q1-7-11 2l-10 9h2zm-396-47 2-7-1-4-2-4-2 4-2 5 2 6zm367 45q3-2-1-11l-2-3-2 3-1 5 1 4q3 5 5 2m-339-43q6-4 4-12v-2l-3 3q-4 4-4 7 0 6 3 4m309 41 2-4-4-7-3-3-1 1v3q0 7 4 10zm-343-48-1-2-2 1 1 2h2zm378 47v-2h-1l-1 1v1zm-384-47q3-3-1-5-3-3-7-1l-3 1 3 4q5 2 8 1m395 46 4-3-3-1q-7-2-10 1-1 2 1 4 4 2 8-1m-360-46 1-1h-4l1 2 2 1zm320 43v-1l-2-1h-1v3zm-368-44 1-1-2-1-3-4-1-1h1l-1-2-5-5 1-1h1l-1-1-3-2-2-1-12 4 2 1q9 3 17 10 4 5 7 4m418 47 9-7 10-5 2-1-12-4-2 1-2 2-2 1h2l-6 7-1 1 1-1h1v1l-5 4-1 1 2 1zm-374-48v-3q-3-4-9-5h-4l3 4 7 5zm332 43 4-3 2-3-3-1q-6 0-8 3l-2 3v1zm-358-45 2-2v-9l-2-3q-1-1-2 3-3 7 0 10zm380 46q2-3 1-8l-2-4q-1-5-3 1-3 6 1 11zm-348-46 3-7-1-5-3 3-4 4 1 5zm317 43 1-3q0-3-4-8l-3-3v7q2 7 6 7m-354-48-1-2h-1q-2-1-2 3l3 1zm390 48q3 0 1-1v-1l-3-1v4zm-397-48q3-2 0-5h-12l1 2q6 4 11 3m408 48 5-4-7-2-6 2q-2 2 1 3 3 3 7 1m-370-48v-2l-1-1h-1l-1 1 1 2zm327 43 2-1-1-1-1-1h-1l-1 1 1 2zm-360-47q4-4 0-12l-1-1v1q-4 9-1 12zm394 47 1-4-1-5-2-4-3 4 1 9zm-366-45q2-4-5-7l-6-1 3 5q5 5 8 3m340 44 6-7h-7l-5 4q0 3 6 3m-373-51v-1h-2l-1 1-1 1 2 1h2zm39 4q3-2 3-5v-5l-3 2q-4 3-3 6 0 4 3 2m326 43v-4l-3-5-2-3-1 2q0 6 3 9zm39 2-2-2h-1v2q0 3 1 1zm-410-48 1-3-5-2-7 1 6 4zm421 48 3-3-3-1-5-1-4 3q2 3 9 2m-26-4 2-4v-3l-2 2-3 6v1zm-374-45-3-7-2-1v3zm19 0 1-1h-2q-4-1-1 2l2 1zm335 44 2-1h-1l-2-1h-1v3zm-359-45-1-3-1-4-2-5-3-3v4l2 3 4 7q0 3 1 1m383 46q0-3 3-7l2-4v-3l-2 3q-3 3-3 6l-1 3v4zm-421-52-4-4 7 5q5 5 1 0-5-8-14-9-3 0-1 1l4 5 5 5 5 1zm458 53 7-8 4-3h-1l-8 1-4 3-5 7 4-3 6-4-4 5-3 2zm-431-49 2-6-2-5q-1-2-2 2-3 6 0 9zm406 46q2-2-1-7l-2-3-2 6 1 5 2 1zm-388-49q-1-5-4-9l-5-5-4-3h-2v1q1 4 9 12l5 6 1 2 1-1zm377 40 5-9v-1h-1q-1-1-5 3c-7 6-8 8-9 15v1l3-3zm-412-39-3-2-2-2 5 5zm48 2q2-1-1-4-2-2-7-2l-3-1 1 2 4 5 4 1zm347 44q3 0 5-4v-1h-2q-5-1-8 1l-1 3 1 1zm45 2 3-4-2 2-3 2-1 1q2 1 3-1m-427-48-1-2-1-1-2 2 2 1zm414 48 1-1v-1l-3-1v4zm-375-46 4-4v-7l-6 5q-2 4 1 6zm335 43 1-4-3-5q-4-5-4 1 0 4 3 7 2 3 3 1m-382-46 2-1 1-2-4-2-7 1q0 2 5 4zm431 48 4-3-6-1q-6 1-4 4zm-373-50c0-4-1-7-6-17-9-18-12-21-21-23l-13-2q-27-1-34-4-9-4-10-12l-1-2-1 3q-1 7 2 22 3 9 11 13c5 2 11 3 29 4 24 2 28 3 32 5q10 5 11 15 1 5 1-2m313 40q4-10 16-11h16c23 1 32 0 37-1l9-5q3-4 5-12l2-14-2-7v1q-3 9-9 11c-7 3-17 4-39 3-12 0-16 1-20 4l-12 18c-4 9-5 11-5 15q1 6 1 2zm-355-41v-1q-1-2-1 1t1 1zm396 47v2q0 1 0 0zm-405-48v-8l-1-2-3 6q-1 2 1 4zm416 48q3-1 2-4l-3-6-2 2q-2 5 1 8 1 3 2 0m-369-48-1-2v-1 6l1-1zm320 42v-3 2l-1 1 1 3zm-331-42q1-4-2-9l-6-3v3l4 8q3 3 4 1m344 44q4-2 4-5l1-3q1-4-2-2-4 1-5 4-2 4 1 7zm-354-45-4-8q-1-5-6-4h-3l4 3 5 7q1 3 3 2zm4 0-1-1-2-8-1-3h-5l2 2 5 10zm355 45 2-3 5-8h-5v3l-4 8zm7-2 5-5 3-4h-2q-4-1-6 3l-5 8 2 1zm-407-46-3-3-7-6 3 2 3 1-3-5-6-4h-6l6 8q9 8 13 8h2zm446 49 4-1 11-12 2-2h-2q-6 0-11 5l-3 4 3-1 3-1-3 2-4 3-4 4zm-439-49v-5q-3-4-8-5l-2 1 6 9zm433 48 3-2 3-6-1-1q-6 0-9 5-2 7 4 4m-383-50-5-4q-4-2-2 1 3 2 3 6v1l2-2zm333 46 3-5 1-1h-4l-4 3 4 5zm-368-52-2-2h-2v2l3 7 1 1 1-3zm402 52 1-6h-4v6q0 4 1 2zm-406-46v-2l-1-3v-3h-4l2 3 2 4q0 3 1 1m408 47 3-5q3-3 0-2h-2v2l-1 4v2zm-414-52v-3l-5-1-13-2 4 2q7 1 9 4l2 3v2zm422 53 3-5q2-3 8-3l4-2h-1l-13 2h-3l-1 1 1 5zm-383-80 3-8-7 5-2 2 1 1 4 3zm347 45 1-1-7-7q-3-3-2 0l3 8v2l2-1zm-355-49q3-1 4-6v-2l-4 1-5 2q-3 2-3 5v1h2q5 2 6-1m363 47h3l-1-3-6-5-4-2q-3-2-1 2l4 7 2 1zm-373-47-2-4-5-4-6-6q-1-2-1 1c0 4 4 11 6 13zm386 47 4-7c2-4 2-9 1-7l-6 6-5 3-3 5zm-404-50-1-3q0-3-1 0l-2 3-2 2h7zm7 2-4-10-2-3-2 1 3 10 1 3h2zm404 48 3-12-1-1h-1l-1 3-4 8q-1 3 2 2zm7 0-1-1-2-4-1-2-1 3-1 3q-1 2 2 1zm-431-50-4-4c-4-2-11-3-12-2l2 2q2 3 10 4zm6 0 3-3 1-6v-4q-2 0-6 5-3 4-2 8zm431 49v-6l-1-3-6-5-1 3q1 8 4 11zm8 0q8-2 9-4l1-2h-3q-11 2-13 6zm-412-50 1-2h-1l-3-1v2l1 2zm376 44h-4l1 2 1 1 2-1 1-2zm-409-48 1-2-2-1-2 1-1 1 1 1zq1 1 1-1m441 50 1-2h1l-1-1-2-1-1 1v2l1 1zm-404-50 5-4 1-6h-2q-5 2-6 4-3 3-2 5 1 3 4 1m369 46v-4q-1-4-7-6l-3-2v2q2 8 7 10zm-375-47v-2q0-4-7-9l-3-1v2q2 6 6 9zm381 46 5-5 2-6-4 2q-6 3-7 8 0 3 4 1m-416-48q2-2-2-5-2-3-10-4h-2l1 1 5 6q5 3 8 2m454 49 6-7q3-3-3-1-5 0-8 3t-2 5zm-463-49-6-6 1 5 2 2zm469 49 2-2v-4l-1 2-3 3-1 1zm-36-4v-4l-3 5-1 1h1zm-419-47 4-5v-8l-3 2q-5 5-4 8 0 4 3 3m20 0-1-4v-1l-1 1-1 1 4 5zm420 49v-7l-6-6v8q1 3 4 5zm-409-50 1-2 1-1-1-1h-2l-1 2zm376 45 1-1-1-1-1-2-1 1-1 2h1l1 2zm25 1v-4l-1-3-1 1-1 2 2 4 2 1zm-425-49 1-3-1-3q-1-1-1 1l-1 4v2zm7 0q3-2 5-6l1-5-8 3q-3 4-2 8zm413 48v-4l-4-5-6-3 2 7q4 8 8 5m-432-50 1-2h-3v2l1 1 1 1zm450 49-1-1-3-1 1 2v2l1-1zm-416-49q1-3-2-8l-7-3v2q2 7 8 9zm7 0q3 0 5-4l1-5-7 3q-3 4-2 6zm368 45q1-1-1-4-1-3-5-4l-2-1v1q1 8 7 9zm8 1q3-1 4-6l1-4-7 3q-3 4-2 7zm-421-48q1-3-4-7l-8-1 5 6q4 3 7 2m461 48 6-5v-2l-7 2q-6 3-4 6 2 1 5-1m-455-50q4-3 4-9l-1-3-5 5q-2 4-1 7zm446 48q1-3-1-7l-5-4v3l1 6q1 3 4 3zm-433-49h-3l1 1 1 1zm421 48-1-1h-2v2h2zm-23-3v-1l-2-1-1 1v2h2zm-376-46h-1l-3-1 2 4zm416 46h-1l-2-1q-2 0-1 4v1l1-1zm-456-49 1-2h-2l-2 1h-1l2 1 2 2zm14 2q1-3-2-8l-2-1v6q0 3 1 2l1-1 1 1zm427 47h2v-8l-1 2q-4 5-3 7t2-1m-420-47 6-7v-6l-3 1q-6 3-7 7l1 4zm415 47v-2q0-4-3-6l-7-5v3q1 5 4 8 3 4 6 2m-392-49 4-3v-5l-2 1-4 1-2 4q0 3 4 2m369 46 1-2-3-4-6-3 1 5q4 5 7 4m-376-47q2-1 0-6l-4-2-3-1q0 6 5 9zm382 46q4-1 4-7l1-2-3 1q-6 2-6 7l1 2zm-423-48q2-2-1-4-2-3-6-2-5-2-2 2t7 5zm466 49q5-2 6-5l-2-1-7 1q-3 3-2 6zm-461-50q4-2 4-8 1-4-3 0-4 3-4 7 1 3 3 1m453 50 1-1-2-6-4-5v4l1 5q1 3 4 3m-438-51 1-2h-4l2 4zm423 48 1-2h-2l-2 1 1 1 1 2zm-432-51h-1v1zm441 49h-1zm-435-50-1-4q-1-4-8-7l-4-2 1 1 1 4q0 3 2 1l1-1 1 5q0 2 3 3zm29 1v-7l-5-7v1l-1 5 2 8zm373 46 2-2v-11l-1-1-2 3q-4 6-3 8l2 4zm29 2q4-1 3-3l1-5 1 1 2 1 2-6h-3l-7 4q-3 4-2 7zm-424-50q5-3 5-10v-2l-7 4-3 6 1 3q2 1 4-1m418 49q1-3-2-8l-8-5v3l3 8q3 3 7 2m-441-50q2-4-3-9l-5-4v5l4 8q3 2 4 0m463 49q3-3 4-10 2-4-2-2-4 3-6 9v3q1 3 4 0m-459-52-4-10-5-7-3-2-1-1v1q0 4 6 10 4 5 4 9l1 2 1-1zm34 3v-11l1-3-3-4-1 3-1 10-1-1v-13l1-2-3-4-4-3-1 1-1 3v1l1-1 2-1v3l-1 8-1 2 2-1 2-1-1 9v3l1-1h1l1 1v-1l2 1zm385 47 2-2 2-1 1 1v-1l2 1h1l-1-3-1-6v-3l2 1 2 2v-3l-2-10 2 1 2 1-1-2-1-2-1-2-6 7v2q2 8-1 14v1-2l-1-12-2 1-2 2 1 3a17 17 0 0 1 0 12zm35-1q0-4 5-9l5-10-2 1q-6 4-7 8l-3 10 1 2zm-409-46 3-8q8-18 2-26l-22-24c-17-15-22-21-25-26l-1-2v1l2 16 2 9h-17l5 4q31 24 44 43l6 12q1 3 1 1m363 44q7-22 52-52l2-2-16-1 1-9 2-16-1 1q-3 6-22 23l-24 22q-4 3-3 9c0 6 1 9 5 18l2 8q0 2 2-1m-395-49 1-2h-1l-2-1v1h-1l1 2 2 1zm428 46-1 1-2 1 1 1 1 2 1-2zm-424-51q3-1 4-5 2-4 1-7l-3 2q-6 2-7 6-1 8 5 4m422 49q2-4-3-8l-7-5v3q1 7 6 10zm-429-49q1-4-5-8l-7-3 2 6q4 7 10 5m436 49 6-6q2-3 1-5l-7 3q-6 4-4 8zm-434-57h-4l2 2 1 1 1-1zm431 49-1-1h-2l-1 1v1l1 2 2-1zm-447-52-1-4h1l1 1-2-10-1-2 2 1 1 1-3-3-4-6-1-2v3a45 45 0 0 0 7 25zm461 49q6-12 6-20v-3l-2 2-7 8 2-1h1v3l-3 8h1l1-1v4q-3 9 1 0m-449-48q2-4-4-9l-7-3 1 6q6 8 10 6m7 0q5-2 6-9 0-3-2-2-3 0-7 6v5zm425 48v-4q-1-5-6-6-3-3-4-1v2q2 7 6 10zm7 1 6-6 2-6-8 3q-5 4-4 9zm-435-58h-5l1 1 1 3 2-2zm430 52 1-2 1-1-1-1h-2l-1 1 1 2zm-434-54-1-5q-1-3-8-5l-3-1 2 6q5 7 10 5m441 48q5-2 6-8v-2l-3 1-7 3-2 6q1 2 6 0m-435-48 3-3-2-3-3-2-2 5q-1 4 4 3m427 48v-5q-1-5-4 0l-3 2 3 3zm-431-55 1-2-1-1h-4v1l2 2 1 2zm435 48v-2h-3l-2 1 2 2 1 2v-1zm-392-52 4-15-4 3-6 9-1 2 1 1 1 1 4-9-1 6-1 6v1l1 1 1-1zm349 48-3-11 3 6 2 3 1-1 1-1-2-3-7-10-3-2 4 12 2 9zm-396-49-13-10 4 7 7 4zm443 49 7-7 1-2-11 7-2 2zm-404-56v-1l-3 4 1 1 1 1v-2zm364 48-2-2-1-2v2l1 3v2l2-1zm-363-52h-10l-1 1 3 2 2 3 3-3zm368 49q3-2 0-3l-8-1 5 6zm-378-51-5-1 1 1 3 1zm384 47v-1h-3l-1 1 2 1zm-377-48 7-7h-10l-5 4v2l2 1zm373 46v-3q-3-4-11-5-5-2-2 2l6 6zm-382-49v-3q0-3-4-8l-3-3v10q4 7 7 4m387 47 4-5v-3l-1-5-6 6v7zm-425-51-3-2v1q1 3 4 3h1zm460 51 2-2q1-3-2 0l-2 3zm-453-50-1-4v-3h-2l-3-1h-1l2 6zm448 49 4-5v-3h-1l-2 1-2 1-1 3-1 3zm-426-50q-2-4 1-12l1-2-1 1-3 1v9zl2 2zm403 48v-5l1-6-1-1-2-2-2-1 1 3q3 8 1 11l-1 2zm-389-49v-1l-2-1h-1l-1 1v2l1 1 1-1zm377 45h-2l-1 1-1 1h1l2 2h1v-3m-394-49v-3l-3 2 1 3 2 1zm409 50q3-2 0-4-2-3-2 2l1 3zm-384-47 3-2 3-4h-9q-5 2-4 5 2 2 7 1m364 45 1-1-5-5-8-1 3 5q6 4 9 2m-391-52 1-1-3-1h-3v1q0 2 2 3l1 1 1-1zm17 4 1-4-3-7-3-2v2l-1 3q0 5 4 8zm379 46q4-2 4-8v-3l-1-1-2 2-4 6zm19 0 1-2v-1h-2l-3-1-1 1 1 1 2 2 1 1zm-436-49v-2l-2-5 1 1 3 5-2-12q-1-3-4-4l-1-1v4l1 6q1 6 3 7zm455 48q3-2 2-9l1-7q-3 0-4 5l-3 11 2-2q3-5 1 1l-1 2h1zm-42-3v-2h-3l-1 1 2 1 2 2zm-372-45 2-1 2-1h-1l-3-1zm-26-2v-2l-2-1-1 1zm425 47 1-1h-2l-1 3zm-409-47-2-5 1 4zm393 44 1-1q-2 0-2 4v1-1zm-403-46q6-2 8-8l1-1h-2l-8 2q-6 4-3 7zm31 0 3-1 2-3-8-1-4 3q0 5 7 2m356 46q2-4-5-6h-7l4 4q5 3 8 2m29 1q2-1-1-4-1-3-7-4h-4q-3-1 0 2l5 6zm-395-48 1-5-5-7-1 2q0 6 2 10zm372 46 2-3v-7l-1-2-1 2q-4 4-4 7l2 4zm-400-48v-6q-1-3-6-7l-2-2v3q-1 8 4 11 3 3 4 1m428 48q5-2 5-8v-5l-2 1q-7 5-6 10v2zm-410-50v-3l-1-1v7zm391 48-1-5v5q1 3 1 0m-404-51 1-1-1-1-2-1-1 1v4l1-1zm419 47-1-1h-3v1l1 1 1 1 1 1v-1zm-403-47 1-6 2-3v1l1-2-1-2-2-1-1-1h-1l-1 1h2v2l-3 6v2l1 1 1 1 1 3zm13 2q4-3 6-10 1-4-2-2-8 5-8 9 1 3 4 3m360 45q3-1 0-5l-8-8q-1 2 2 9zm11-1 2-1v-4l-3-6 1-1h2l-2-1-1-1-1 1-2 1v2l1 2v-1l2 10q0 3 1-1m-364-45 6-6 2-7q0-1 0 0l-6 2-2 3-3 8zm346 44-1-3-2-5-1-3h-2l-3-2q-3-3-1 2 3 9 9 11zm-374-48 4-3 2-4v-1h-3q-7 0-9 4l-1 4zm406 48 1-1-1-2-5-5-8-1 3 6 7 4zm-390-48 1-3 1-2h-1l-2-2-2-1-1 5zm371 43v-3l-1-2-2 1-2 1-1 1 1 1 2 4zm-396-45v-6l-5-6q-4-3-3 1v6q5 7 8 5m421 49 4-6v-7l-3 1q-6 5-5 9 0 4 4 3m-5-8h-3l-1 1 2 1 1 1v-1zm-413-46 2-1h1l-1-1h-4l1 1zm30-1q4-2 5-5l1-1-5-1q-5 0-8 2-4 3-1 5zm359 46 2-1q0-3-4-6l-7-1h-4v1q3 5 7 6zm-380-48a13 13 0 0 0 7-8h-8q-6 4-5 7 2 3 6 1m399 47v-4l-11-5q-3 0-1 2 3 5 7 7zm-407-50q1-2-1-5 0-2-4-5l-3-3v4l1 5q4 8 7 4m19 1q1-3-1-7-1-5-3-2l-2 2 2-1h1v2l-1 3-1 2 1 1q2 3 4 0m375 47v-4l-1-3v-1h3l-1-1-2-2-2 3-1 4 1 4zm19 1 4-4 1-7q0-4-4 0-6 6-5 10l2 1zm-389-52v-1l-4-1 1 2v1h1zm365 46v-1l-1-1h-2l-1 1 1 1zm-386-47 1-1v-1l-1-1q0-2 0 0h-2v3zm405 47 1-1-2-1-1-1v1l-1 1 2 1zm-375-48q5-2 6-6h-11l-3 4q0 3 8 2m351 45q2-3-3-6l-6-1q-7-2-3 2l5 5zm-373-47 4-3 2-4-8 1q-6 4-3 6zm393 47v-2q0-2-5-5l-7-1 3 5q5 5 9 3m-381-48v-7l-4-5-1 4q-1 5 2 8zm367 46q3-4 1-10l-1-2-4 5v6q1 3 4 1m-388-47 1-3q0-3-4-8l-3-3v10l4 5zm408 48q4-2 4-8l-1-5-6 6v6q2 3 3 1m-384-50 2-1 1-1-1-2h-2l-1 1v2zm359 43-1-2h-2l-1 1v1l1 1 1 1zm-379-45 1-2-2-1-1 1 1 2zm399 47v-2h-3l1 1 1 1zm-370-47q4-1 6-5 4-3-2-2l-8 2q-3 3 1 5zm344 43v-3l-8-4-4-1 1 3 6 6zm-367-46 5-5q3-3-1-2-8 2-8 5l2 3zm389 47v-3q-2-3-9-5h-1v1q4 6 8 8zm-395-49v-2l-1-4-5-5-1 3 1 4q3 7 6 4m20 2q2-3 1-8l-4-6-1 2v9zm359 44q5-3 2-10l-1-2-2 2-2 6 1 5zm22 1q4-3 3-9l-1-1-2 2-3 3v5q1 2 3 0m-377-48 2-1 1-1v-1l-3-1-1 1v2zm350 43-1-2h-2l-1 1h1l1 1 1 1q1 2 1-1m-370-48q4-2 5-7v-6l-4 3q-6 7-3 10zm392 47q2-5-4-11l-3-2v7q3 8 7 6m-363-46q5-2 5-4l-6-1q-5 1-5 4 0 4 6 1m337 44-1-3q-1-3-7-3h-3l5 5q3 3 6 1m-358-45 2-1 2-7 1-2 1 1v2l1-4q0-4 1-3v1-3l-2 2-5 7-3 3-1 2v2zm376 45-1-3q0-2-2-3l-7-10v-1l-1 2v2-1h1l1 4v3l1-1q0-3 1-1l2 8v2h6zm-363-46v-5q-2-5-5-5v7q2 5 5 3m350 45q3-2 2-7 1-5-2-2-5 5-3 8l2 1zm-376-48 5-8 2-2v-3l-2-6v1l-3 6-4 10 1 2 1 1zm401 48 1-3-5-11-3-6-2 6v3l2 1q5 5 5 10zm-368-50q3-3 5-10 1-5-2-2-7 4-8 9l1 3zm338 44q1-4-2-9l-8-6 1 8q5 9 9 7m-330-44 8-5 5-5 1-1h-10l-3 1-2 2-1 2 2-1 7-2h1l-1 1-10 6-1 1-1 1zm322 43-3-3-4-3-5-6 7 4 2 2-1-5-4-1q-4-3-9-2h-1l1 1 4 5q5 6 13 8m-348-48 4-8v-9l-2-4v1l-2 5q-5 6-3 9v5q-1 6 3 1m372 46 1-4q1-3-3-11l-3-7-1 2-1 5 2 11 5 6zm-360-46 2-4a25 25 0 0 0 1-20l-2 3-3 7q-3 7-2 10t1 0l3-8v7zm346 40-1-8 3 10 1 1v-1l1-3-4-11-3-8-2 9 3 12 2 4zm-339-48q20-13 27-29l3-10-1-1-4 4a74 74 0 0 0-26 34q-2 4 1 2m8 0 8-1q3 1 4-2 7-8 15-13l11-6-10 1q-10 2-14 6l-12 11-4 4v1zm317 42-2-4q-9-7-14-15l-8-6-14-4 3 3 8 5 11 12c4 6 3 6 5 6l9 3zm8 1-4-11q-7-13-23-30l-4-4v1c0 3 2 11 5 16a91 91 0 0 0 26 29zM466 629l-2-3 1-4q1-1 1 1v3q2 2 6 1l1-2-1-2-1-2h2q2 3 3 1h1q0 2 2 1v-3q1-1 2 1l-1 5-3-1h-2l-1 2q-1 3-5 3zm34 4-1-3-2-7-1-4q2-1 3 3l2 8zm21 3-2-4-1-2-4-3q-1-1 1-4 2-2 3-1 2 0 2 5l2 5v3q0 3-1 1m-2-9-2-3-1 1zm5 10 1-4 4-6 1-2 5 10v3l-1-1-4-7-2 2q-2 5-4 5m-17-5q0-5-3-8v-4l2 1q2 3 4 1 1-2 1 1l-1 2h-1l-1 2v7zm-24-6v-1l4 1v-1l1-2v-1l1-1v-1l1 1q6 4 4 7h-11zm10 0-1-1v2zm-3-1v-2l-1 1zm-15-8v-1zm2 1v-2l2 1-1 1zm-1-3h1v2zm-74-20-5-8q0-2 3-3l1-1q0-3 3-3l2-1 4-6 4-5v-15l-1-2q-3-2-1-5v-4l1-4v-2l-15-51-5 5-8-21-9-25-2-6 2-3 7-7 1-2-1-4c-2-6-2-5-4-6q-3-1-4-4 0-4 2-5 3-3 7-2 5 1 6 4 2 4-2 6l5 23 19 68 1 4v-6l-1-7v-7l1-1-3-5-2-6h3v-41l-2-1-3-5-2-2q-3-2-3-5v-1l-5-6v-1l13 2 13 1 1-20v-21l-1-1q-4-6 0-9h1l-2-2q-3-4 0-10l3-3 2-2 2-3q5-2 5-5v-1l1 1 2 4 6 7 1 2q3 2 4 6 1 5-2 8l-1 1 1 1q4 6-1 8v43l6-2 19-6-1-1v-5l-1-3-2-3q-6-8-6-17l2-10q4-9 17-11 10-3 14-7l1-2-1-4 1-2h1l-1-2c-3-5-3-6 2-12l4-4 1-2 1 2 4 6c5 6 6 7 4 12l-2 2 1 1q2 2-1 5v2l13 10 10 7q8 7 10 14 5 14-6 23l-2 4v6l10 7 14 9v-52l1-1-1-1q-6-8 2-13l2-2 3-3 4-6 1 1q-1 2 3 5l4 5q-1 1 2 3l3 6q1 4-2 8h-1l1 1 2 2q2 5-2 7l-1 1v42l24 3v1q-1 4-4 5l-1 1-3 3-2 2-3 4-1 2-1 2-1 1v38h3l4 1-2 3-3 5-1 2v7l-1 2v14l16-57 10-33-2-2-1-4 3-4 10 2q3 4 2 7t-3 3-2 2l-2 5v3l1 2 6 9 2 2-1 2-7 18-8 22-3 6-5-7-1-1-1 3-8 25-6 23v2q2 3 1 5v2l1 4-1 2-1 1v8c0 8-1 7 4 14l5 7 4 4 2 1 2 2 2 2 4 4v3c-1 0-46-5-102-14l-101-15zm205 29v-1l-2-2-100-15c-89-14-99-14-99-14v3zm-6-7-1-1-1-1-95-14c-94-15-95-14-96-14v3l97 14c94 15 96 14 96 13m-111-20-3-5-3-5-15-2-14-3 7 10zm34 5-7-9-1-1-15-3-15-2 7 10zm-67-14-5-8-3-4-12-2-12-2-2 2-4 6-4 5 23 3 21 3zm90 17-4-5-4-5-10-1-10-2 7 10zm41 6h5l-4-7-6-7-13-2-12-2-9 12 17 3zm-51-18 4-5v-1l-8-1-7-1 3 4 2 4zm-71-11-2-4-2-3-11-2v2l1 3 2 2 6 1zm30 1-3-3-14-3-15-2 4 7 15 2 16 3zm31 7-2-3-2-3-13-2-14-2 3 4 2 3 27 4zm-78-24v-7l-24-3v14l12 2 12 2zm134 21v-7l-13-2-12-2v15l12 1 13 2zm-108-12-4-5-10-2-10-2v5zm29 2c-2-3-1-3-16-5l-14-2 3 5 15 2 14 3zm17 5-3-3-2-3-5-1h-6l4 5zm18-1v-5l-14-2v9l14 2zm6 3 1-1v-6l-5-5-5-6-1 2v2l4 3 3 4v8zm-22-3v-7l-3-3-3-4v-9l-2-2-3-3-1-1v-4c0-4 0-3-4-7l-2-2v-6l-2-1-2-2v24l1 1zm-69-19-2-2-1-1v5l4 1zm30 7-4-5-25-4 2 5zm29 4-2-3-1-2-13-2-13-1 1 2 2 3 14 2zm-63-16 1-1-1-2-13-3-14-1 1 4zm13 2-2-4-5-1-4-1v1l1 3v1l5 1zm14 1-2-3-12-2 3 5 6 1 6 1zm16 4-3-5-12-2 1 3 2 2 6 1zm15 2-2-2-2-3-5-1h-6l2 2 2 3 5 1zm38 5-1-3-3-1h-3l2 3 4 2zm39 6v-2l-1-1-13-2c-16-2-15-2-15 0s0 2 14 4c13 2 14 2 15 1m-52-12v-4l-6-1-7-1v8l7 1 6 1zm-83-14v-3l-13-2-13-2-1 2c0 2 0 2 14 4zm134 20v-3l-14-2c-12-2-12-2-13-1v2l14 3zm-40-6 1-2-5-2h-5v1l2 2 4 1zm-73-13-1-1-9-2-8-1v2l-1 1 20 3zm29 5-1-2-27-4 2 2 1 1 26 4zm45 2v-41l-1-1-1-6 1-2h1l-3-5-3-5h7l-8-13q-13-16-29-22l-14-2q-21-1-34 12l-10 10 6 1 5 1 2 2 6 4 5-2 4-1q2 0 3 2 4 4 8 3l3-2 3-1 2 1-1 6-2 5v50h2v-40q-2-1 1-2l2-2 2 2 2 2-1 2v3q-2 1 3 2h4v-1l-1-3v-2l2-1 2-2 2 2 1 3v3l-1 6v5l4 4 3 3v2q-1 3 4 7l3 2v8l3 4 6 1 5 1zm-96-35v-20l-24-4v42l12 2 12 1zm12-2v-25l-1-6-1-6-7 10 2 4q1 4-2 5h-1v20l1 21 5 1 4 1zm33 30v-48l-30-4v48l15 2zm89-7v-21l-13-2-12-2v42l12 2 13 1zm-56 5v-3l-7-1-7-1v7l7 1 7 1zm62-12 6-19 4-12 9-33 7-24-2-1-6 18-19 67-3 10v9zm-68 0v-2l-14-2v4l7 1 7 1zm-112-37-11-40-12-46-3 1 1 3 7 28 11 40 9 29 2 8v-8zm93 24v-7h-2v3q0 6 2 4m9 2v-7h-3q-6-2-5 2l1 3zm4 0v-7h-2v7zm-12-12-2-1h-2q-1 1 2 2zm13 3q1-1-2-2l-3 1zm-13-4v-2l-2-1h-2v2zm13 2v-2l-5-1v1l2 2zm-14-6-1-1v1zm-51-8v-6l-15-2c-13-2-13-2-14-1l1 4 14 3zm134 19v-4l-15-3-14-1-1 3c1 2 0 2 15 4zm-93-19-13-1zm92 11 3-4 2-2-18-3-18-2 5 9 13 1 12 2zm-132-22 3-4-18-3-18-3 3 6 2 3 26 4zm42 9 2-7-2 1-6 1-6-3-2-2-3 1q-5 3-9 1l-3-2-3-2 1 6 1 1 15 3zm-63-36v-17l7 1 6 1v34h5v-38l-23-3-1 19 1 19 2 1h3zm9 5v-13l-5-1-1 13v13l3 1h3zm125 15v-17l13 2v34l5 1v-38l-12-2-11-2v38l5 1zm9 5v-13l-6-1v26l6 1zm-15-26-54-9-54-8v17l1 14q8-12 23-18 25-8 50 4 20 10 31 30l2 4zm26 0v-1l-80-12-80-12c0 2-5 1 80 14 78 12 79 12 80 11m2-4 2-3-85-13-86-12 4 4 83 13c81 12 81 12 82 11m5-6q2 0 1-2l-90-13a839 839 0 0 0-88-10l88 13c75 12 88 13 89 12m5-5-94-15-93-12 1 1 92 13c73 12 92 14 93 13m22 0q2-1-2-1-5-1-5-5h-1q-1 3 3 5zm-234-35 2-1h-5l-3-1-1-2v-1 5l3 1zm167 25-11-7-11-7-10-2-44-7h-6l-10 4-11 4 51 8zm-121-39-2-21h-1v41h3zm5 1v-21h-3v20l2 21h1zm6 1-2-21-2-1v41l2 1h1zm123 18-1-20-1-1h-2v41h4zm5 1v-21h-4v19l2 22h2zm5 1v-21h-2l-1-1v21l2 21h1zm-45 1c0-2 0-2-11-4a293 293 0 0 0-49-6l3 1 11 1c11 1 26 3 37 6zm-37-10-16-2zm-12-4h-8zm-4-3c14 1 34 4 48 8 6 2 6 2 9-1a20 20 0 0 0 3-23q-1-5-7-10l-11-8-8-6-6-6-5-2-4-1-3 3c-5 4-7 5-14 7q-17 5-18 18 0 10 7 19l3 2zm-33-28q2-3-1-5l-10-2c-9-1-10-1-11 1l1 3 11 2zm134 20q2-2-1-5l-10-2h-11v4l1 1 20 2zm-136-27-9-2h-8zm133 20-8-2h-8zm-133-23q3 0 3-4l-1-4-2-3-1-1-7-1-7-1-5 4v5l2 3 9 2zm134 20q4-2 2-7l-4-5-14-2q-7 4-3 11l1 1zm-136-34-6-2h-7zm133 20-6-2h-6zm-136-23-2-3-2-1-1 1-1 2zm134 20-2-2-2-2-2 2-1 1 3 1zm-65-14 1-2-1-1-6-2h-6v3l6 1zm0-6q2-2 1-5l-4-8-3-2-3 3-4 6 2 4 5 1zm124 230-14-18q-2-5-1-10l2-7 5-6 16-29 2 2q5 6 7 14l1 8-1 7-6 10q-7 8-9 16v14zm-263-39 1-8c-1-6-2-9-8-19-7-11-8-15-8-23l1-7 2-6 6-6 1 3q6 14 15 28 6 12 7 19 0 11-13 20l-4 2zm12-37q-16-26-18-39-2-10 4-19l7-6 10 26 9 25-2 3q-7 7-7 13v3zm238 37q0-7-8-16l-2-2 3-6 10-24 7-17 6 7q6 10 5 20a82 82 0 0 1-12 27zM477 323l-4-5q0-2 4 3 5 7 5 4l-2-3-1-3 4 4 1 1h1l-6-10 4 5 3 4h1l-1-3-1-4 2 3q1 5 2 3l-1-4q-3-7-1-6l2 5 2 5 1-3-1-4 1 3 2 3h1l-1-5-1-4h1l3 3 1 2 1 5 1-6v-5l1 6 1 5v-2l1-3v-1 3l1 4 1-5 2-5v10l1-2 2-3-1 3-1 3q1 2 3-4l3-4-1 5-2 5 3-2q2-4 2-2l-1 2q-3 3-1 3h1l5-6q3 0-1 4t-2 4l1-1 4-2-2 2q-3 2-1 3l4-2 4-3q1 1-3 4l-5 3-1-1-10-7-15-2-10 3-2 1zm5-19v-2h2v2zm-8-2-2-1h3l5-2 1-2v-2q3 1 2-2l1-1 1 2q0 4 2 5l16 2-1-2h-5l-6-1q-2-1-2-3 2-3 7-4l1 1-2 1-4 1v2l7 1 6 1 1 2-1 2h-13q-6-1-7-5v-1l-3 3q-1 3-4 3zm41 4-1-1-1-1q-2 1-3-1l3-3 1-1 1-1v3q0 4 2 4l2-1v-3l1-4v3q1 5 3 5v-8l1 4 1 5q-1 3-4 0l-1-1-1 1zm-2-3 1-2-3 1zm15 1-1-6v-5l1 3v10zm-137-19 1-5 1-2-1-2 3 2q3 6 4 4l2-3-1-3-4-5 3 3q4 4 5 3h2l1-1-1-1-5-7v-1l6 7q3 2 2 3l-1 2-4 1-1-1v2q-1 6-6 3l-1-1-4 3zm3-2v-2h-1l-1 2zm112 15v-6l-1-2v-3h2l-1 1 1 1h1l-1 1h-1l1 4 1 8q-1 3-2-4m98 17-2-2 2-1h3l1-2 1-5-1-4v-4q1-2 2 1v13l6-6 3-2-1 3-3 2-4 4-2 2-2 3zm4-1-1-1q-3 0-1 1zm-21-2q-3-2-1-2l5 2zm5-2-2-1-1-1v-1l2-1 2 1h-2v1l1 1zm-114-20 1-2v-2q2-1 2 1t-2 3zm34 5-1-1 1-3 1 3v1zh-2zm2-2-1-1zm3 1h1v-1l1 1v1-1h1l-2 2zm76 11 1-3 3-6q3-5 4-4h-1l-1 4zm-111-18 5-2q1 1-2 2zm11 1q2-1-1-1v-1h1l2 1-1 1zm90 11q-6-3-5-7h-1l-4-3 3-2h2l2-1 1-1v3q-2 5 0 7l7 4 1-1 4-9 2-2v3l-3 5q-2 7-5 6zm-4-9-1-2-2 1zm-63 0 4-1h1q-3 2-5 1m10 2 1-1 1-1 2-1v3zm-114-18-5-6-4-6v-2zm8 1-3-5 1-2v1l2 4q4 1 6-2c2-2 2-2-3-8l-5-9h1l2 2 5 9 2 5v3q-4 4-8 2m10 1h2l4-4 1-4h-2l-2-1-1-2q1-4 4-1l1 1q4 0 5-4h1v1l1 1 2-2 1-2v1q1 2 2 1l1-1v-2 5h-1l-3 1-2 1-3 1-2 1h-1v3q1 4-2 6zm5-11h-1v1zm68 21 4-1zq-1 0 0 0m56 8-3-1v-1l3 1 3 1zm-169-26v-1h1v-1l1-1 1-1-1-1 1 1v2l-1 1zm232 31q-4-1-2-2l6 3h-2zm-62-8q-3-2-1-2l1-1h4l-1 1h-1l-1-1 2 2v2zm-173-28 2-3 1-1q2 0-1 3-1 4-2 1m64 8 2-1 5-4q2-3-1-5l-2-3h1q3 3 3 7 0 5-4 6zm137 19 1-3 1-2 1 1zm-25-4 5-10q2-4 3-3l-1 1-2 4-3 8zm-9-3-2-1q-1-2 1-2l3-1v-6q-1-4-3-5-3-4-1-5h1q3 4 5 13l1 1 3-9 1-1 1-1v4l-2 3-2 4-2 4q0 4-4 2m3-2-1-1q-2 1 1 2zm-17-11-1-7 1-4h1v6l-1 10zm38 10h3q5 0 3 1zm17 2 5 1v1zm-65-10-2-2-1-1-1 1q-2 2-5 0l-2-3h-1q-4 1-4-2l4-3 2-1 1-2v8l3 2q3 0 3-5l1-5v4q0 7 2 7l2 1 1-5v-5q1-2 1 1v4q2 5-1 7zm-11-8h-3zm-52-2-1-1 2-1h3l2-1-1-2-1-4 2 3q2 6 6 5l2-1 2-2 2 2 4 2h8l1-1h-1l-3-1-3-1 4-3q4-1 5-4 3-3 4 1l1 3-2 1-2-1h-2l-2 1-2 1 2 1 10 3v1h-7l-11 1h-3l-4-1h-2q-2 1-6-2l-2 1zm17-1-1-1v1zm19-7q-1-2-2-1v1zm-88-4 1-1-1-1-1-2q0-2 2-1l1 1 1 2-1 1-3 3zm1-3v1zm25 4 1-3q-2 0-1-2 2-2 3 1v2l-1 1-2 2zm11 3v-2h3q1 1 1-1h1q0 3-2 2l-1 1zm-1-3 2-3 2-1-2 3zm65 6 1-1 2-2v-2q3-1 2 2v2h-2zm49 6h-2l-1-1 1-2v1h2q0 2 2 1v-1l1 1-2 2zm-98-16v-3q2-1 1 2l1 1 1-2v-2h3l-2 4-2 1zm5-4v1zm7 5v-2 1q2 1 2-1h3q0 3-2 2l-2 1zm46 6v-3l1 1 1 1 1-1 1 1h1q0-3 1 0l-3 1zm-37-6 3-2q5-1 0 1zm75 10h6l-4 1zm-64-11 1-1 1-1-1-1v-2l2-1 1 2v2l-2 1zm-21-3 1-1 5-3-2 2-3 2zm47 6q0-2 3-2h3l-1 1z"/></svg>