<svg xmlns="http://www.w3.org/2000/svg" viewBox="0 0 1000 1000"><path fill="#74acdf" d="M8 195c171-85 341-54 513-28 155 24 312 45 471-34v672c-171 85-341 54-513 28-155-24-312-45-471 34z"/><path fill="#fff" d="M8 419c171-85 341-54 513-28 155 24 312 45 471-34v224c-171 85-341 54-513 28-155-24-312-45-471 34z"/><path fill="#f6b40e" d="m496 501 35 89 2 1v-2l-29-90zm7 30c0 13 7 21 6 32s4 18 6 23v8q2 1 3-9c-1-6-5-9-5-23 1-13-5-17-3-30z"/><path fill="#85340a" d="m497 501 12 31h1v3l22 55v1l1-1-1-1-29-90h2l29 90v1l-1 2q-1 1-3-2l-19-51 1 8 2 16 2 16 2 6v7l-2 2h-2v-8l-1-4q-5-11-5-19 1-6-3-15l-3-17h2l3 16 3 16q-2 8 4 18l2 5-1 6v1l1-1 1-7-2-6q-3-8-2-17l-2-15-2-12-14-34z"/><path fill="#f6b40e" d="m496 499 3 92 1 2 1-1 3-91zm-4 29c-5 11-1 21-5 31-5 9-2 18-3 22l-2 7q3 2 5-7c2-6-1-9 4-21 6-12 2-18 7-28z"/><path fill="#85340a" d="m496 499 2 33 1 1-1 2 2 57v1-1l4-91h1l-3 91v1l-2 1q-2 0-2-3l-2-52-1 7q0 9-3 14-4 7-4 16v6l-3 6-2 1-2-1 1-2 2-5v-4q-1-12 2-19l3-14 2-16 2 1q-3 5-3 15 0 11-3 15-3 7-2 18v4l-2 6h-1 2l3-6v-5q0-9 4-16l3-14 2-11z"/><path fill="#f6b40e" d="m496 498-29 81v2l2-1 35-78zm-14 23c-8 8-8 18-16 24q-9 12-10 19c-2 4-5 3-5 5q2 2 8-3c4-5 2-10 11-18 10-7 8-14 17-21z"/><path fill="#85340a" d="m497 498-11 29h1v1l-2 1-17 50v2-1l35-78 2 1-35 78-1 1h-2l-1-3 17-47-4 6q-3 7-8 11-6 5-9 12l-2 5-6 4h-2l-1-1q-1-2 1-2l4-3 1-4q3-11 9-15l8-12q3-9 8-12l1 1q-5 3-8 12-4 9-8 12-6 4-9 14l-1 4-4 4h-1v1h2l5-4 2-5q3-7 9-12 5-4 8-11l6-9 11-31z"/><path fill="#f6b40e" d="m497 496-57 59v2h1l62-53zm-22 15c-11 3-14 12-24 14s-13 10-16 12c-4 3-6 1-7 2q2 4 9 1c5-3 5-8 17-10 12-3 13-10 24-12z"/><path fill="#85340a" d="m498 497-21 20h1v2h-3l-35 36v1h1l62-53v1l-61 53-1 1-2-1v-3l33-33-5 3-13 6-12 7-4 3q-4 3-7 2l-2-1-1-2 2-1 4-1 3-3q7-9 14-10 5-1 11-6 7-6 13-8v2l-12 7q-6 6-12 7-6 2-13 9l-3 3-5 1h-1l2 1 6-1 4-3q4-6 13-7l12-6 9-5 22-22zm7 37c1 12 7 18 6 29 2-8-4-16-4-29zm-7-33 24 61-20-62zm-5 31c-3 10 0 19-4 28 5-7 2-16 6-27zm5-32 2 63 2-63zm-15 25c-8 8-7 16-15 22 7-3 7-13 16-20zm15-26-20 56 24-54zm-24 15c-10 4-12 11-22 13 9 1 12-8 23-11zm24-16-39 40 42-36z"/><path fill="#f6b40e" d="m498 496-76 26-1 2 2 1 79-21zm-26 3c-12-2-18 4-28 2-11-2-17 3-21 4l-7-1q0 3 9 4c5 0 7-4 20-2 12 3 15-3 27 0z"/><path fill="#85340a" d="m499 496-27 10v1l-3-1-47 17v1h1l78-20 1 1-79 20h-1l-2-1q-1-2 2-2l43-16-6 1h-29l-5 2-7-2-2-2v-2h2l5 1 4-1q9-5 17-3 4 2 13-1l15-1v2q-6-2-14 1-9 2-14 1-8-2-17 2l-3 2q-3 1-6-2h-1l1 2 7 1 4-1q7-3 16 0l13-1h11l29-10z"/><path fill="#f6b40e" d="m500 495-84-9-1 1 1 2 84 16zm-27-8c-11-7-19-4-28-10-10-7-17-5-21-5l-7-4q-2 2 7 7c5 2 8-1 20 7 11 8 16 4 26 12z"/><path fill="#85340a" d="m500 496-29-3-1 1-2-1-52-6h-1l1 1 84 16v1l-84-16h-1l-1-2 2-1 48 5-7-3-13-5q-7-6-15-6l-5-1-7-5-1-2 1-2 2 1 5 3h4q10 0 17 5 4 3 13 5 11 1 15 6v1l-15-5-14-5q-7-5-16-5l-5-1-5-3v-1 2l6 4 5 1 15 6q5 5 14 6l10 4 32 4z"/><path fill="#f6b40e" d="m502 496-79-44-2 1 1 1 76 50zm-24-19c-8-10-17-11-24-21q-12-12-19-13l-4-7q-3 2 3 9c5 5 9 4 17 15 9 12 15 11 22 22z"/><path fill="#85340a" d="m501 497-27-16-1 1-2-2-48-27h-1v1l77 49-1 2-76-50-1-1-1-2h3l45 24-6-4-11-11-12-12-5-3q-4-3-4-7l-1-2 1-1q2-1 2 1 1 4 4 5l3 2q11 5 15 12l12 10q9 6 13 11l-1 1q-4-6-13-11l-12-10q-5-7-14-12l-4-2-4-5v-1 2l4 6 4 3q7 5 13 12l11 11q5 3 9 8l30 16z"/><path fill="#f6b40e" d="m503 497-62-71-1-1v2l57 76zm-17-26c-4-13-12-18-16-29-3-11-10-16-13-20s-1-7-3-7q-3 0 1 9c3 6 7 7 11 21 5 13 11 15 14 28z"/><path fill="#85340a" d="m503 498-22-26v1h-1l-1-3-38-44-1-1v1l58 76-1 1-58-76v-3l3 1 35 41-4-7q-5-7-7-14-2-9-8-15l-4-5-2-8 1-2 1-1q2 0 2 3l1 5 3 3q8 8 11 17 1 6 8 14 6 7 8 15h-1l-8-14q-7-9-8-15-3-7-10-16l-4-3-2-7v1l2 7 3 5q5 6 8 16l7 14 6 10 23 28zm-33 3c-11-1-16 5-26 2 8 4 14-1 26 1zm29-3-52 18 54-14zm-29-10c-10-5-17-2-26-9 6 7 14 4 25 11zm30 10-58-7 58 11zm-25-21c-8-9-16-10-22-19 4 8 12 10 20 20zm26 21-54-30 52 34zm-17-29c-5-11-13-15-16-26 1 9 9 14 14 27zm17 29-42-49 39 52z"/><path fill="#f6b40e" d="m504 499-35-89-2-1v2l29 90zm-7-30c0-13-7-21-6-32s-4-18-6-23v-8q-2-1-3 9c1 6 5 9 5 23-1 13 5 17 3 30z"/><path fill="#85340a" d="m503 499-12-31h-1v-3l-22-55v-1l-1 1 1 1 29 90h-2l-29-90v-1l1-2q2 0 3 2l19 51-1-8q-3-9-2-16 0-9-2-16l-2-6q-1-4 1-7l1-2h2v8l2 4q4 11 4 19-1 6 3 15l3 17h-2l-3-16q-3-10-2-16 1-8-5-18l-2-5 1-6v-1l-1 1-1 7 2 6q3 8 2 17l2 15 2 12 14 34z"/><path fill="#f6b40e" d="m504 501-3-92-1-2-1 1-3 91zm4-29c5-11 1-21 5-31 5-9 2-18 3-22l2-7q-2-2-5 7c-2 6 1 9-4 21-6 12-2 18-7 28z"/><path fill="#85340a" d="m504 501-2-33-1-1 1-2-2-57v-1 1l-4 91h-1l3-91v-1l2-1q2 0 2 3l2 52 1-7q0-9 3-14 4-7 4-16v-6l3-6 2-1 2 1-1 2-2 5v4q1 12-2 19l-3 14-2 16-2-1q3-4 3-15t3-15q3-7 2-18v-4l2-6h1-2l-3 6v5q0 9-4 16l-3 14-2 11z"/><path fill="#f6b40e" d="m504 502 29-81v-2l-2 1-35 78zm14-23c8-8 8-18 16-24q9-12 10-19l5-4q-2-3-8 2c-3 5-2 10-11 18-10 7-8 14-17 21z"/><path fill="#85340a" d="m503 502 11-29h-1v-1l2-1 17-50v-2 1l-35 78-1-1 34-78 1-1h2l1 3-17 47 4-6q3-7 8-11 6-5 9-12l2-5 6-4h2l1 1q1 2-1 2l-4 3-1 4q-3 11-9 15l-8 12q-3 9-8 12l-1-1q5-3 8-12 4-9 8-12 6-4 9-14l1-4 4-4h1v-1h-2l-5 4-2 5q-3 7-9 12-5 4-8 11l-6 9-11 31z"/><path fill="#f6b40e" d="m503 504 57-59v-2h-1l-62 53zm22-15c11-3 14-12 24-14s13-9 16-12c4-3 6-1 7-2q-1-3-9-1c-5 3-5 8-17 10-12 3-13 10-24 12z"/><path fill="#85340a" d="m502 503 21-20h-1v-2h3l35-36v-1h-1l-62 53v-1l61-53 1-1 2 1v3l-33 33 5-3 13-6q8-3 12-7l4-3 7-2 2 1 1 2-2 1-4 1-3 3q-7 9-14 10-5 1-11 6-7 6-13 8v-2l12-7q6-6 12-7 7-2 13-9l3-3 5-1h1l-2-1-6 1-4 3q-4 6-13 7l-12 6-9 5-22 22zm-7-37c-1-12-7-18-6-29-2 8 4 16 4 29zm7 33-24-61 20 62zm5-31c3-10 0-19 4-28-5 7-2 16-6 27zm-5 32-2-63-2 63zm15-25c8-8 7-16 15-22-7 3-7 13-16 20zm-15 26 20-56-24 54zm24-15c10-4 12-11 22-13-9-1-12 8-23 11zm-24 16 39-40-42 36z"/><path fill="#f6b40e" d="m502 505 76-27 1-2-2-1-79 21zm26-4c12 2 18-4 28-2 11 2 17-3 21-4l7 1q0-3-9-4c-5 0-7 4-20 2-12-3-15 3-27 0z"/><path fill="#85340a" d="m501 504 27-10v-1l3 1 47-17v-1h-1l-78 20-1-1 79-20h1l2 1q1 2-2 2l-43 16 6-1h29l5-2 7 2 2 2v2h-2l-5-1-4 1q-8 5-17 3-4-2-13 1l-15 1v-2q6 2 14-1 9-2 14-1 8 2 17-2l3-2q3-1 6 2h1l-1-2-7-1-4 1q-7 3-16 0l-13 1h-11l-29 10z"/><path fill="#f6b40e" d="m500 505 84 9 1-1-1-2-84-16zm27 8c11 7 19 4 28 10 10 7 17 5 22 5l6 5q2-3-7-8c-5-2-8 1-20-7-11-8-16-4-26-12z"/><path fill="#85340a" d="m500 504 29 3 1-1 2 2 52 5h1l-1-1-84-16v-1l84 16h1l1 2-2 1-48-5 7 3 13 5q8 6 15 6l5 1 7 5 1 2-1 2-2-1-5-3h-4q-10 0-17-5-4-3-13-5-10-1-15-6v-1l15 5 14 5q7 6 16 5l5 1 5 3v1-2l-6-4-5-1-15-6q-5-4-14-6l-10-4-32-4z"/><path fill="#f6b40e" d="m498 504 79 44h2l-1-2-76-50zm24 19c8 10 17 11 24 21q12 12 19 13 3 6 5 7 2-2-4-9c-5-5-9-4-17-15-9-12-15-11-22-22z"/><path fill="#85340a" d="m499 503 27 16 1-1 2 2 48 27h1v-1l-77-49 1-2 76 50 1 1 1 2h-3l-45-24 6 4 11 11 12 12 5 3q3 3 4 7l1 2-1 1q-2 1-2-1-1-4-4-5l-3-2q-11-5-15-12l-12-10q-9-5-12-11l1-1q3 6 12 11l12 10q5 7 14 12l4 2 4 5v1-2l-4-6-4-3q-7-4-13-12l-11-11-9-7-30-17z"/><path fill="#f6b40e" d="m497 503 62 71 1 1v-2l-57-76zm17 26c4 13 12 18 16 29 3 11 10 16 13 20s1 7 3 7q3 0-1-9c-3-6-7-7-11-21-5-13-11-15-14-28z"/><path fill="#85340a" d="m497 502 22 26v-1h1l1 3 38 44 1 1v-1l-58-76 1-1 58 76v3l-3-1-35-41 4 7q5 7 7 14 3 9 8 15l4 5 2 8-1 2-1 1q-2 0-2-3l-1-5-3-3q-8-8-11-17-1-5-8-14-6-7-8-15h1l8 14q7 9 8 15 3 7 10 16l4 3 2 7v-1q1-3-2-7l-3-5q-6-6-8-16l-7-14q-5-5-6-10l-23-28zm33-3c11 1 16-5 26-2-8-4-14 1-26-1zm-29 3 52-18-54 14zm29 10c10 5 17 2 26 9-6-7-14-4-25-11zm-30-10 58 7-58-11zm25 21c8 9 16 10 23 19-4-8-13-10-21-20zm-26-21 54 30-52-34zm17 29c5 11 13 15 16 26-1-9-9-14-14-27zm-17-29 42 49-39-52z"/><path fill="#f6b40e" d="M534 505c0 21-15 35-34 32s-34-21-34-42 15-35 34-32 34 21 34 42"/><path fill="#85340a" d="M535 505q0 16-10 26t-25 7-25-15-10-28 10-26 25-7q15 1 25 15 10 13 10 28m-2 0q0-15-9-27-10-12-24-14-13-3-24 7-9 9-9 24t9 27 24 14 24-7 9-24"/><path fill="#843511" d="M512 494q-5 0-6 2 5 5 12 2-3-4-6-4m0 0 4 3q-4 4-9-1z"/><path fill="#85340a" d="M512 492q-4-1-6 2l-2 1q-1 1 0 0l3-1zq8 3 8 5s-2-5-8-6m10 4q-11-9-18-5l-2 5q-1 4 2 11h-1q-3-7-2-13l1-4q9-7 20 6m-8 2-2 2q-3 0-3-3 0-2 3-2 2 0 2 3m4 2q-6 4-11 0l-2-2 3 2q3 2 10 0m-23 5q-2 1-2 3l2 3 2-1 3 1h3l2 1 2-2-1-3 1 2-2 1-2-2q0 2-3 2-3-1-3-3l-2 2-1-2zm2 8q-2 0-6 4l5-2q2-1 4 1h4l5 3-6-5-3 1zm-1 4h-4q6 0 8 2h8q-6-2-8-1zm-4 0c6 2 3 4 9 5s3-2 9-3c-6-1-4 3-9 2-4-1-3-3-8-4m12 11q0-4-5-6-4 0-5 5 2-4 5-4zm-26-38q10-8 18 0l2 5q0 6-3 10l1 1a21 21 0 0 0 1-16q-10-10-19 0m9-1q5 1 6 4l3 1q0 2-1 1l-3-3-5-2-8 3q0-3 8-4"/><path fill="#843511" d="m488 490-6 3q5 5 13 1zm0 1q3 0 5 3-5 3-10-1z"/><path fill="#85340a" d="M491 493q0 3-3 3l-2-3q0-3 2-3zm-9 1q8 6 11 3l3-2-4 2q-3 1-10-3"/></svg>