<svg xmlns="http://www.w3.org/2000/svg" viewBox="0 0 1000 1000"><path fill="#74acdf" d="M8 195.3c170.8-85.3 341-54.5 513.3-28C676.5 191 833.4 211.8 992 132.7v672c-170.8 85.3-341 54.5-513.3 28C323.5 809 166.6 788.1 8 867.2z"/><path fill="#fff" d="M8 419.3c170.8-85.3 341-54.5 513.3-28C676.5 415 833.4 435.9 992 356.8v224c-170.8 85.2-341 54.4-513.3 28-155.2-24-312.1-44.6-470.7 34.5z"/><path fill="#f6b40e" d="m496.1 501.2 35 88.7s.6 1.5 1.6 1.4c.9-.5.4-1.9.4-2l-29.2-90.5zm7 30c-.3 12.5 6.4 20.6 5.7 31.8s4.6 18.4 6.1 23c1 4.8-1.1 6.6-.2 7.6 1.4.5 3.5-2 2.9-8.6-1-6.4-5-9-4.2-22.6s-5-17.8-3.6-30.2z"/><path fill="#85340a" d="m496.7 501 12.4 31.2v-.2l1.3.4-.1 2.8 21.4 54.5q.4 1 .7.8.2 0 .2-.4l-.2-.6-29.2-90.5 1.3-.3 29.2 90.4.2 1.1q.1 1.4-1 1.8-1.4.4-2.4-2l-20-50.5q.4 3.4 1.6 7.3 2.4 8.9 2 15.8a38 38 0 0 0 2.4 16.4q1.4 3.8 1.8 6 .4 4.5-.8 7.4-.6 1.3-1.3 1.8-1 .7-1.8 0-1-.6-.4-2.7.9-2.9.3-5.3l-1.8-4.2a40 40 0 0 1-4.4-19.2q.4-5.5-2.6-15-3.3-10.4-3.1-16.8l1.3.3q0 6.1 3 16.1 3.2 10 2.8 15.8-.5 7.8 4.2 18.2 1.5 3.1 1.8 4.5.9 3-.2 6.3l-.2.8.2-.1q.6-.4 1-1.3 1.1-2.5.6-6.6-.3-2-1.7-5.5-3-8-2.5-17.2.5-6.7-2-15.3a47 47 0 0 1-1.8-11.7l-13.4-34z"/><path fill="#f6b40e" d="m495.8 499.4 3.2 92c0 .2 0 1.6 1 2 1 0 1-1.5 1-1.6l3.2-91.1zm-3.7 29c-4.6 10.9-1 20.7-5.5 30.1s-2 18-2.2 22.7c-.6 4.6-3.4 5.2-2.9 6.5 1.2 1 4.2-.3 6-6.3 1.2-6-1.8-9.9 3.8-21.4s1.4-17.6 7-27.8z"/><path fill="#85340a" d="m496.5 499.4 1 32.4h.2l1.2.8-1.2 2.4 2 56.5q0 1 .3 1t.3-.2v-.6l3.2-91.2 1.4.3-3.2 91v.1l-.1 1q-.5 1.4-1.6 1.2-1.7-.3-1.7-2.7l-1.8-52.6q-.8 3.1-1 7-.8 8.9-3.6 14.6a32 32 0 0 0-3.5 15.4q.2 3.8-.3 6-1.1 4-3.4 6-1 .9-1.9 1-1.1.2-1.8-.7-.7-1 .6-2.6 2-2 2.2-4.5l-.3-4.4a34 34 0 0 1 2.5-18.5q2.3-4.5 2.6-14.3a46 46 0 0 1 2.9-15.8l1.2.8A45 45 0 0 0 490 544a39 39 0 0 1-2.8 14.9q-3.4 6.6-2.3 17.7.3 3.4.2 4.6-.3 3-2.4 5.4l-.6.6h.3a3 3 0 0 0 1.4-.7q2-1.7 3-5.5.4-1.8.3-5.5-.3-8.3 3.5-16 2.8-5.6 3.5-14 .4-6.5 2.2-11l-1.2-35.3z"/><path fill="#f6b40e" d="M496.1 497.6 467 579.1c0 .1-.5 1.4.4 2.1 1 .4 1.5-.8 1.6-1l35-77.8zm-13.8 23.7c-8.3 7.5-8.1 17.6-16 24-7.8 6.2-8.1 14.7-10 18.7-2.2 3.8-5.1 3.1-5 4.5.7 1.4 4 1.5 7.9-3 3.3-4.7 1.7-9.3 11.2-17s7.6-14.7 16.6-21.3z"/><path fill="#85340a" d="m496.8 498-10.3 28.7.1-.1.8 1.3-2 1.6-17.8 50q-.3.9 0 1l.3-.1.4-.5 35-78 1.2.9-35 77.9-.5.8q-1 1-2 .3-1.5-.9-.7-3l16.6-46.5a38 38 0 0 0-3.4 5.6q-3.8 7.4-8.6 11.2-6.2 5-8.7 11.9a21 21 0 0 1-2.5 5 10 10 0 0 1-5.4 4q-1.2.3-2.2 0-1.2-.4-1.5-1.4-.4-1.1 1.5-2a7 7 0 0 0 3.6-3q.5-1 1.3-4 3-10.4 9-15 3.8-3 7.5-11.3 4-8.9 8.3-12.6l1 1.2a37 37 0 0 0-8 12.2 32 32 0 0 1-8 11.7 27 27 0 0 0-8.5 14.5q-.8 3-1.3 4.2a8 8 0 0 1-4.3 3.6l-.8.3.4.1q.6.2 1.5 0a9 9 0 0 0 4.8-3.5q1.1-1.5 2.3-4.7 2.6-7.4 9-12.4 4.7-3.7 8.4-10.9a33 33 0 0 1 6-8.6l11.2-31.1z"/><path fill="#f6b40e" d="m497 496.3-57 58.6c-.1 0-1 1-.4 2 .9.8 1.8-.1 1.9-.2l61.5-53zM475.2 511c-10.8 3-14 11.9-24 14-9.8 2.3-13 9.5-16.3 12.2-3.5 2.4-6.1.6-6.6 1.8.4 1.6 3.5 3 8.9.7 4.9-2.7 4.9-7.4 17-10 12-2.8 12.4-9.7 23.6-11.5z"/><path fill="#85340a" d="m497.5 496.9-20 20.5h.1l.4 1.5-2.5.5-35 36q-.7.7-.4 1h.4q.3 0 .5-.3l61.5-53 1 1.2-61.6 53-.8.5q-1.1.5-2-.5-1.2-1.6.4-3l32.5-33.5q-2.6 1.3-5.3 3.4a31 31 0 0 1-12.4 6.2 24 24 0 0 0-12.7 6.7q-2.4 2.4-4 3.3a11 11 0 0 1-6.8 1.2q-1.3-.3-2.1-1-1.1-.7-1-1.7 0-1.3 2.1-1.1 2.9 0 4.7-1.2.8-.6 2.6-2.9 6.6-7.8 14-9.4a28 28 0 0 0 11.4-6.6q7-6 12.5-7.4l.5 1.4q-5.3 1.4-12.1 7.2t-12 6.9a24 24 0 0 0-13.2 9l-2.8 3a8 8 0 0 1-5.5 1.5h-.8l.2.2q.6.5 1.6.6 2.7.5 6-1 1.5-1 3.7-3.2 5.2-5.3 13.3-7 5.9-1.4 11.9-6 4.5-3.5 8.9-4.8l21.8-22.4z"/><path fill="#85340a" d="M505.3 533.6c.8 12.3 6.6 18.6 5.6 29.5 2.5-8.4-3.6-16-3.4-29zm-7.2-32.9 24 61-20.2-62.2z"/><path fill="#85340a" d="M493.4 531.5c-3.5 11 0 19-4.8 28 5.3-6.2 2-15.5 6.8-26.7zm4.5-31.7 2 63.2 2.2-62.6z"/><path fill="#85340a" d="M482.5 524.6c-7.3 8-6.7 16.5-14.5 22.4 7.4-3.3 7.4-12.6 16-20.4zm15.5-25.7-20.1 55.9 24-53.5z"/><path fill="#85340a" d="M474.3 514c-10 3.9-12.3 11.5-22 13.3 8.4.3 11.6-7.9 22.7-11zm24.1-15.8-39.2 40 42.2-36.3z"/><path fill="#f6b40e" d="M498.4 495.5 422 522.4s-1.3.4-1 1.5c.5 1.1 1.7.7 1.8.7l78.7-20.1zm-26.5 3.5c-11.6-2-17.9 4.3-28.3 2s-16.1 2.7-20.2 3.8c-4.2.6-6.2-2-7-1.2-.2 1.5 2.3 4.1 8.3 4.3 5.7-.3 7.4-4.4 20-1.6 12.8 2.7 15.6-3.1 27.2 0z"/><path fill="#85340a" d="m498.7 496.2-26.9 9.4h.2l-.2 1.5q-1.2-.4-2.6-.6L422.4 523q-.8.3-.7.6 0 .3.4.2h.6l78.7-20.1.5 1.4-78.7 20.1q-.4.2-1 .1-1.4 0-1.7-1.3-.6-1.9 1.4-2.4l43.5-15.5q-3 0-6.5.7-7.7 1.5-14.2.1-8.1-1.8-14.7.5-3.1 1.1-5.2 1.2-4.1 0-7-1.8-1-.7-1.7-1.7-.7-1.1-.3-2 .4-1 2.4 0 2.9 1.3 5 .9l3.6-1.4a26 26 0 0 1 16.9-2.4q5 1.2 13.4-.9 8.9-2.2 14.9-1.1v1.5c-4-.7-8.5-.4-14.4 1a32 32 0 0 1-14 1 25 25 0 0 0-16.2 2.3q-2.6 1.2-3.8 1.5-2.6.5-5.8-1.1l-.8-.4.2.3q.4.6 1.3 1.2 2.5 1.6 6.1 1.6 1.9 0 4.8-1.1 6.9-2.5 15.4-.6 6.2 1.4 13.7 0 5.7-1.2 10.4-.6l29.2-10.1z"/><path fill="#f6b40e" d="m500 495.4-83.8-9c-.2 0-1.5-.2-1.6 1 .1 1 1.4 1.3 1.6 1.3l83.8 15.9zm-27-8.2c-10.8-6.7-19.1-3.9-28.5-10.3s-16.6-4.5-21-5.3c-4.3-1.4-5.3-4.5-6.4-4.1-.7 1.2.9 4.7 6.6 7.4 5.7 2.1 8.7-.8 20.1 7s16.3 4 26.5 11.6z"/><path fill="#85340a" d="m500 496.2-29.5-3.4.1.1-.6 1.2-2.4-1.6-51.4-5.3q-1-.1-1 .2l.4.4.6.1 83.8 16v1.4l-83.8-15.9q-.6 0-1-.3-1.3-.6-1.3-1.9 0-1.9 2.2-1.6l47.9 5q-3-1.4-6.6-2.1-8.1-2-13.9-6-7.3-5-14.5-5.8-3.4-.3-5.5-1.2a15 15 0 0 1-6-4.5q-1-1.2-1.2-2.2-.2-1.4.4-2 .8-.6 2.4 1.1 2.3 2.3 4.5 3l4 .2q10.3.3 17.2 5.2 4.5 3 13.5 4.9 9.5 1.9 14.9 5.3l-.6 1.3q-5.2-3.3-14.4-5.1c-9.2-1.8-10.7-3-14-5.2a30 30 0 0 0-16.5-4.9q-3 0-4.2-.3a11 11 0 0 1-5.3-3.4l-.7-.7.1.4q.2.7.8 1.6 2 2.4 5.5 4 1.8.6 5 1c5.2.6 10 2.5 15.3 6.1q5.4 3.8 13.3 5.7 6 1.5 10.4 4l32 3.6z"/><path fill="#f6b40e" d="M501.6 496 423 452.4c0-.1-1.3-.8-1.8.1-.3 1 1 1.8 1 1.9l76.3 49.6zM478 477.3c-8-10.4-17.3-11.5-24.1-21.1-7-9.6-14.7-11.1-18.6-13.7-3.7-3-3.7-6.1-4.8-6.3-1.2.8-.8 4.5 3.8 9.3 4.8 4.3 8.8 3.1 17.2 14.8 8.4 11.6 14.5 10.4 21.7 21.4z"/><path fill="#85340a" d="m501.4 496.7-27.7-15.5v.1l-1 .8q-.7-1.2-1.7-2.4L422.7 453q-.9-.4-1-.1l.2.4.5.4 76.3 49.7-.6 1.2-76.2-49.6-.9-.7q-1-1.1-.5-2.2.6-1.6 2.7-.4l44.9 24.7a52 52 0 0 0-5.7-4.6 49 49 0 0 1-11.5-11.1 37 37 0 0 0-12-11.3 27 27 0 0 1-5-3.4 17 17 0 0 1-4.3-6.5q-.4-1.5-.4-2.5.3-1.3 1-1.5 1.2-.2 2 2 1.4 3 3.4 4.4l3.8 2q9.9 4.7 15 11.9 3.4 4.6 11.4 10 8.7 5.8 12.7 11l-1 1a51 51 0 0 0-12.3-10.7 45 45 0 0 1-11.8-10.5 36 36 0 0 0-14.4-11.4l-4-2a13 13 0 0 1-4-5.3l-.3-.8-.1.3.2 1.8a15 15 0 0 0 4 5.7q1.5 1.5 4.5 3.2a39 39 0 0 1 12.7 11.8 47 47 0 0 0 11 10.7q5.3 3.7 8.7 7.9l30.2 16.8z"/><path fill="#f6b40e" d="m503 497.2-61.5-71.7c-.1 0-1-1.2-1.9-.7-.6.9.3 2 .4 2.1l57 75.9zm-16.5-26.4c-4.3-12.4-13-17.4-16.2-28.6-3.4-11.3-10.5-16-13.4-20-2.5-4.1-1.4-6.9-2.4-7.5-1.4.1-2.4 3.5.4 9.7 3.2 5.8 7.5 6.6 11.6 20.3s10.5 15.3 13.7 28z"/><path fill="#85340a" d="M502.5 497.7 481 472.4v.2l-1.3.1-.8-2.8-37.8-44q-.6-.6-1-.4l.1.4.4.6 57 75.9-1 .8-57-75.8q-.4-.4-.6-1-.6-1.4.2-2.1 1.3-1.3 2.8.8l35.1 40.8q-1.5-3.1-3.9-6.5-5.2-7.6-7.3-14.6-2.6-8.8-7.8-15-2.6-3-3.6-5-2-4.3-2-7.7 0-1.5.6-2.2.5-1.1 1.5-1 1.2.3 1.3 2.7a11 11 0 0 0 1.6 5.3l3 3.3a41 41 0 0 1 10.5 16.9q1.6 5.4 7.6 13.6a57 57 0 0 1 8.6 15l-1.3.3q-2-6-8.3-14.5a48 48 0 0 1-7.9-14.2 39 39 0 0 0-10-16l-3.2-3.6a13 13 0 0 1-2-6.3v-.9q-.2 0-.2.3-.4.6-.4 1.6 0 3 1.7 6.7 1 1.9 3.4 4.7a42 42 0 0 1 8.2 15.8 50 50 0 0 0 7 14q3.9 5.5 5.8 10.6l23.5 27.5z"/><path fill="#85340a" d="M470 501.2c-11.2-.9-16 4.8-26.2 2.2 8.1 3.9 14.1-1.8 26 .1zm29-3.5L446.8 516l54-13.8z"/><path fill="#85340a" d="M470.2 488.2c-10.6-5.5-17.3-2.6-26.3-9.2 6.5 6.8 14.4 4.4 25.4 11.2zm29.7 9.4-57.6-6.4 57.6 11z"/><path fill="#85340a" d="M475 477c-8.4-9.3-16-9.7-22.5-19.3 4 8.8 12.6 10.1 21 20.7zm25.7 20.9-54-30.2 52.4 34.2z"/><path fill="#85340a" d="M483.6 469.4c-5-11.7-12.3-15.4-15.2-26.5.8 9.3 8.8 14.2 13.2 27zm17.8 29-42.1-49.2 39.2 52z"/><path fill="#f6b40e" d="m503.9 498.8-35-88.7s-.6-1.5-1.6-1.4c-.9.5-.4 1.9-.4 2l29.2 90.5zm-7-30c.3-12.6-6.4-20.6-5.7-31.8s-4.6-18.4-6.1-23c-1-4.8 1.1-6.6.3-7.7-1.5-.5-3.6 2-3 8.7 1 6.4 5 9 4.2 22.6s5 17.8 3.7 30.2z"/><path fill="#85340a" d="m503.3 499-12.4-31.2v.2l-1.3-.4.1-2.8-21.4-54.5q-.4-1-.7-.8-.2 0-.2.4l.2.6 29.2 90.5-1.3.3-29.2-90.4-.2-1.1q-.1-1.4 1-1.8 1.4-.4 2.4 2l20 50.5q-.4-3.4-1.6-7.3-2.4-8.9-2-15.8a38 38 0 0 0-2.4-16.4q-1.4-3.7-1.8-6-.4-4.5.8-7.4.6-1.3 1.3-1.8 1-.6 1.8 0 1 .7.4 2.7-1 2.9-.2 5.3.3 1.2 1.7 4.2a40 40 0 0 1 4.4 19.2q-.4 5.5 2.6 15 3.3 10.4 3.1 16.8l-1.3-.3a53 53 0 0 0-3-16.1q-3.2-10-2.8-15.7.5-8-4.2-18.3-1.5-3.2-1.8-4.5-.9-3 .2-6.3l.3-.8-.3.1q-.6.4-1 1.3-1.1 2.5-.6 6.6.3 2 1.7 5.5 3 8 2.5 17.2-.5 6.7 2 15.3 1.7 6.4 1.8 11.7l13.4 34z"/><path fill="#f6b40e" d="m504.2 500.7-3.2-92.1c0-.2 0-1.6-1-2-1 0-1 1.5-1 1.6l-3.2 91.1zm3.7-29c4.6-11 1-20.8 5.5-30.2 4.6-9.5 2-18 2.2-22.7.6-4.6 3.4-5.2 2.9-6.5-1.2-1-4.2.3-6 6.3-1.2 6 1.8 9.9-3.8 21.4s-1.4 17.6-7 27.8z"/><path fill="#85340a" d="m503.5 500.6-1-32.4h-.2l-1.2-.8 1.2-2.4-2-56.5q0-1-.3-1t-.3.2v.6l-3.2 91.2-1.4-.3 3.2-91v-.1l.1-1q.5-1.4 1.6-1.2 1.8.3 1.7 2.7l1.8 52.6q.8-3.2 1-7 .8-8.9 3.6-14.7a32 32 0 0 0 3.5-15.3q-.2-3.8.3-6 1.1-4.1 3.4-6 1-.9 1.9-1 1.1-.2 1.8.7.8 1-.6 2.6a8 8 0 0 0-2.2 4.5l.3 4.4a34 34 0 0 1-2.5 18.5 37 37 0 0 0-2.6 14.3 46 46 0 0 1-2.9 15.8l-1.2-.8q2.3-5.3 2.7-15.3t2.8-14.9q3.4-6.6 2.3-17.7-.3-3.4-.2-4.6.3-3 2.4-5.4l.6-.6h-.3a3 3 0 0 0-1.4.7 11 11 0 0 0-3 5.5q-.4 1.8-.3 5.5.3 8.3-3.5 16-2.8 5.6-3.5 14-.4 6.5-2.2 11l1.2 35.3z"/><path fill="#f6b40e" d="m503.9 502.4 29.2-81.5c0-.1.5-1.4-.4-2.1-1-.4-1.5.8-1.6 1l-35 77.8zm13.8-23.7c8.3-7.5 8.1-17.6 16-24 7.8-6.2 8.1-14.7 10-18.7 2.2-3.8 5.1-3.1 5-4.5-.7-1.4-4-1.5-7.9 3-3.3 4.7-1.7 9.3-11.2 17s-7.6 14.7-16.6 21.3z"/><path fill="#85340a" d="m503.3 502 10.2-28.7-.1.1-.8-1.3 2-1.6 17.8-50q.3-.9 0-1l-.3.1-.4.5-35 78-1.2-.9 35-77.9.5-.8q1-1 2-.4 1.5 1 .7 3.1L517 467.8a38 38 0 0 0 3.4-5.6q3.8-7.4 8.6-11.2 6.2-5 8.7-11.9a21 21 0 0 1 2.5-5q2.5-3.2 5.4-4 1.3-.3 2.2 0 1.2.4 1.5 1.3.4 1.4-1.5 2a7 7 0 0 0-3.6 3.1q-.5 1-1.3 4-3 10.4-9 15-3.7 3-7.5 11.3-4 8.8-8.3 12.6l-1-1.2q4.1-3.6 8-12.2t8-11.7a27 27 0 0 0 8.5-14.5q.8-3 1.3-4.2a8 8 0 0 1 4.3-3.6l.8-.3-.3-.1q-.7-.3-1.6 0a9 9 0 0 0-4.8 3.5q-1.1 1.4-2.3 4.7-2.6 7.4-9 12.4-4.7 3.8-8.3 10.8a33 33 0 0 1-6.1 8.6l-11.2 31.2z"/><path fill="#f6b40e" d="m503 503.7 57-58.6c.1 0 1-1 .4-2-.9-.8-1.8.1-1.9.2l-61.5 53zm21.8-14.7c10.8-3 14-11.9 24-14 9.8-2.3 13-9.5 16.3-12.3 3.5-2.3 6.1-.5 6.6-1.7-.4-1.6-3.5-3-8.9-.7-4.8 2.7-4.9 7.4-17 10-12 2.8-12.4 9.7-23.6 11.5z"/><path fill="#85340a" d="m502.5 503.1 20-20.5h-.1l-.3-1.5 2.4-.5 35-36q.7-.6.4-1h-.4q-.2 0-.5.3l-61.5 53-1-1.2 61.6-53 .8-.5q1.1-.5 2 .5 1.2 1.6-.4 3L528 479.2q2.6-1.3 5.4-3.4 6.2-4.8 12.3-6.2 7.8-1.6 12.7-6.7 2.5-2.4 4-3.3 3.7-1.8 6.8-1.2 1.3.3 2.2 1t1 1.7q-.2 1.3-2.2 1.1-2.9 0-4.7 1.2-.8.6-2.6 2.9-6.6 7.9-14 9.4a28 28 0 0 0-11.4 6.6q-7 6-12.5 7.4l-.5-1.4q5.3-1.4 12.1-7.2t12-6.9q7-1.4 13.2-9 2-2.4 2.9-3a8 8 0 0 1 5.4-1.5h.8l-.2-.2q-.6-.5-1.6-.6-2.7-.5-6 1-1.5.9-3.7 3.2a26 26 0 0 1-13.3 7q-5.9 1.4-11.9 6-4.5 3.4-8.9 4.8l-21.8 22.4z"/><path fill="#85340a" d="M494.7 466.4c-.8-12.3-6.6-18.6-5.6-29.5-2.5 8.4 3.6 16 3.4 29zm7.2 32.9-24-61 20.2 62.2z"/><path fill="#85340a" d="M506.6 468.5c3.5-11 0-19 4.8-28-5.3 6.2-2 15.5-6.8 26.7zm-4.5 31.7-2-63.2-2.2 62.6z"/><path fill="#85340a" d="M517.5 475.4c7.3-8 6.7-16.5 14.5-22.4-7.4 3.3-7.4 12.7-16 20.4zM502 501.1l20.1-55.9-24 53.6z"/><path fill="#85340a" d="M525.7 486c10-3.9 12.3-11.5 22-13.3-8.4-.3-11.6 7.9-22.7 11zm-24.1 15.8 39.2-40-42.2 36.3z"/><path fill="#f6b40e" d="m501.6 504.5 76.3-26.9s1.3-.4 1-1.5c-.5-1.1-1.7-.7-1.8-.7l-78.7 20.1zm26.5-3.5c11.6 2 17.9-4.3 28.3-2s16.1-2.7 20.2-3.8c4.3-.6 6.2 2 7 1.2.3-1.5-2.3-4.1-8.3-4.3-5.7.3-7.4 4.4-20 1.6-12.8-2.7-15.6 3.1-27.2 0z"/><path fill="#85340a" d="m501.3 503.8 26.9-9.4h-.2l.2-1.4 2.6.5 46.8-16.6q.8-.3.7-.6 0-.2-.4-.2h-.6l-78.7 20.1-.5-1.4 78.7-20.1q.4-.2 1-.1 1.3 0 1.8 1.3.6 1.9-1.5 2.4l-43.5 15.5q3 0 6.5-.7 7.8-1.5 14.2-.1c5.6 1.2 10.2 1 14.7-.5q3.1-1.1 5.2-1.2 4.1 0 7 1.8 1 .7 1.7 1.7.8 1.1.3 2-.4 1-2.4 0-2.9-1.3-5-.9l-3.5 1.4a26 26 0 0 1-17 2.4q-5-1.2-13.4.9-8.9 2.2-14.9 1.1v-1.5q5.9 1 14.4-1a32 32 0 0 1 14-1 25 25 0 0 0 16.2-2.3q2.6-1.2 3.8-1.5 2.6-.5 5.8 1.1l.8.4-.2-.3q-.4-.6-1.3-1.2-2.5-1.6-6.1-1.6-1.8 0-4.8 1.1a28 28 0 0 1-15.4.6 33 33 0 0 0-13.7 0q-5.6 1.2-10.4.6l-29.2 10.1z"/><path fill="#f6b40e" d="m500 504.6 83.8 9c.2 0 1.5.2 1.6-1-.1-1-1.4-1.3-1.6-1.3L500 495.4zm27 8.2c10.8 6.7 19.1 3.9 28.5 10.3s16.6 4.5 21 5.3c4.3 1.4 5.3 4.5 6.4 4.1.7-1.2-.9-4.7-6.6-7.3-5.7-2.2-8.7.7-20.1-7.1s-16.3-4-26.5-11.6z"/><path fill="#85340a" d="m500 503.9 29.5 3.3-.1-.1.6-1.2 2.4 1.6 51.4 5.4q1 0 1-.3l-.4-.4-.6-.2-83.8-15.8v-1.5l83.8 15.9q.6 0 1 .3 1.3.6 1.3 1.9 0 1.9-2.2 1.6l-47.9-5q3 1.3 6.6 2.1 8.1 2 13.9 6 7.3 5 14.5 5.8 3.4.3 5.5 1.2a15 15 0 0 1 6 4.5q1 1.2 1.2 2.2.3 1.4-.4 2-.8.6-2.4-1.1a10 10 0 0 0-4.5-3l-4-.2q-10.3-.3-17.2-5.2a37 37 0 0 0-13.5-4.9q-9.5-1.9-14.9-5.3l.6-1.3q5.1 3.3 14.4 5.1c9.3 1.8 10.7 3 14 5.2 4.5 3.1 9.7 4.7 16.5 4.9q3 0 4.2.3a11 11 0 0 1 5.3 3.4l.6.7v-.4q-.2-.6-.9-1.6-1.9-2.4-5.4-4-1.8-.6-5-1c-5.2-.6-10-2.5-15.3-6.1q-5.5-3.7-13.3-5.7a39 39 0 0 1-10.4-4l-32-3.6z"/><path fill="#f6b40e" d="m498.4 504 78.7 43.6c0 .1 1.3.8 1.8-.1.3-1-1-1.8-1-1.9L501.6 496zm23.6 18.7c8 10.4 17.3 11.5 24.1 21.1 7 9.6 14.7 11.1 18.6 13.7 3.7 3 3.6 6.1 4.8 6.3 1.2-.8.8-4.5-3.8-9.3-4.8-4.3-8.8-3.1-17.2-14.8-8.4-11.6-14.5-10.4-21.7-21.4z"/><path fill="#85340a" d="m498.6 503.3 27.7 15.5v-.1l1-.8q.7 1.2 1.7 2.4l48.3 26.7q.9.4 1 .1l-.2-.4-.5-.4-76.3-49.7.6-1.2 76.2 49.6.9.7q1 1.1.6 2.2-.7 1.6-2.8.4l-44.9-24.7 5.7 4.6q7.3 5.2 11.5 11.1 5.3 7.5 12 11.3 3.3 1.8 5 3.4 3.3 3.2 4.3 6.5.4 1.5.4 2.5-.3 1.3-1 1.5-1.1.2-2-2-1.4-3-3.4-4.4l-3.8-2q-9.9-4.7-15-11.9-3.4-4.6-11.4-10-8.7-5.8-12.7-11l1-1q3.9 5.2 12.3 10.7a45 45 0 0 1 11.8 10.5q4.9 6.8 14.4 11.4l4 2q2.4 1.8 4 5.3l.3.8.1-.3-.2-1.8a15 15 0 0 0-4-5.7q-1.4-1.4-4.5-3.2a39 39 0 0 1-12.7-11.8 47 47 0 0 0-11-10.7 47 47 0 0 1-8.7-7.9l-30.1-16.8z"/><path fill="#f6b40e" d="m497 502.8 61.5 71.7c.1 0 1 1.2 1.9.7.6-.9-.3-2-.4-2.1l-57-75.9zm16.5 26.4c4.3 12.4 13 17.4 16.2 28.6 3.4 11.3 10.5 16 13.4 20 2.5 4.1 1.4 6.9 2.4 7.5 1.4-.2 2.4-3.5-.4-9.7-3.2-5.9-7.5-6.6-11.6-20.3s-10.5-15.3-13.7-28z"/><path fill="#85340a" d="m497.5 502.3 21.6 25.3v-.2l1.3-.1.9 2.8 37.7 44q.7.7 1 .5l-.1-.5-.4-.6-57-75.9 1-.8 57 75.8q.4.4.6 1 .6 1.4-.2 2.2-1.3 1.1-2.8-.8L523 534q1.5 3.2 3.9 6.5 5.2 7.6 7.3 14.6 2.6 8.8 7.8 15 2.6 3 3.7 5c1.3 3 2 5.3 1.9 7.7q0 1.5-.6 2.3-.5 1-1.5.8-1.1-.3-1.3-2.5a11 11 0 0 0-1.6-5.4l-3-3.3a41 41 0 0 1-10.5-16.9 47 47 0 0 0-7.6-13.6 57 57 0 0 1-8.6-15l1.3-.3q2 6 8.3 14.5a48 48 0 0 1 7.9 14.2 39 39 0 0 0 10 16l3.2 3.6q1.8 2.5 2 6.3v.9l.3-.3q.3-.6.3-1.6 0-3-1.7-6.7-1-1.9-3.4-4.7a42 42 0 0 1-8.2-15.8 50 50 0 0 0-7-14 50 50 0 0 1-5.8-10.6l-23.5-27.5z"/><path fill="#85340a" d="M530 498.8c11.2.9 16-4.8 26.2-2.2-8.1-3.9-14.1 1.8-26-.1zm-29 3.5 52.3-18.3-54 13.8z"/><path fill="#85340a" d="M529.8 511.8c10.6 5.5 17.3 2.6 26.3 9.2-6.5-6.8-14.4-4.4-25.4-11.2zm-29.7-9.4 57.6 6.4-57.6-11z"/><path fill="#85340a" d="M525 523c8.4 9.3 16 9.7 22.5 19.3-4-8.8-12.6-10.1-21-20.7zm-25.7-21 54 30.2-52.4-34.2z"/><path fill="#85340a" d="M516.4 530.6c5 11.7 12.3 15.4 15.2 26.5-.8-9.3-8.8-14.2-13.2-27zm-17.8-29 42.1 49.2-39.2-52z"/><path fill="#f6b40e" d="M534.2 505.3c-.3 20.8-15.1 34.7-34.2 32-19-3.2-33.9-21.7-34.2-42.5.3-20.9 15.1-34.8 34.2-32.1 19 3.2 33.9 21.7 34.2 42.6"/><path fill="#85340a" d="M535 505.4q0 15.9-10.2 25.5-10.3 9.6-24.8 7.4a40 40 0 0 1-24.8-15 45 45 0 0 1-10.3-28.7 34 34 0 0 1 10.3-25.5q10.3-9.6 24.8-7.4a40 40 0 0 1 24.8 15q10.3 12.8 10.3 28.7m-1.9-.3a43 43 0 0 0-9.7-27.2 38 38 0 0 0-23.5-14.2 27 27 0 0 0-23.5 7 32 32 0 0 0-9.7 24.2 43 43 0 0 0 9.7 27.2 38 38 0 0 0 23.5 14.2 27 27 0 0 0 23.5-7 32 32 0 0 0 9.7-24.2"/><path fill="#843511" d="M511.7 493.8q-3.7-.6-6 2.5c3 3 8.2 4 12.4 1.6a11 11 0 0 0-6.5-4m0 .5q3.8.9 4.7 3c-3 2.6-6.5 1.8-9.5-1q2.1-2.5 4.8-2"/><path fill="#85340a" d="M512 492.1c-3.4-.4-4 .2-5.7 1.4-1.6 1.1-2.3.9-2.6 1-.2.4 0 1.1.5 1q.8-.1 3.2-1.8c1.6-1.1 3-1 4.7-.7 4.6 1.1 7.5 5 7.9 5.2.1-.6-2.4-4.8-8-6"/><path fill="#85340a" d="M521.6 495.3c-6.4-6.7-13.4-8.6-18-5q-1.5 2-1.9 4.4c-.4 3.4.4 6.7 2.8 10.9q-.6 0-1 .4a25 25 0 0 1-2.2-13.4q.2-1.7.8-3.2c6-4.2 13.3-3.6 19.4 5.9"/><path fill="#85340a" d="M514 497q-.3 2.3-2.4 2.2-2.2-.5-2.4-3 .2-2.3 2.4-2.2 2 .7 2.3 3"/><path fill="#85340a" d="M518.4 499.4c-4.7 3-8.7 2-11.6 0-2.6-2.2-2.6-2.7-2-2.7.4.1 1 .7 3 2.2 2.4 1.5 5.2 2 10.6.5m-23.6 5q-1.8.2-2 2.2a3 3 0 0 0 2.4 3 2 2 0 0 0 2-.9 6 6 0 0 0 3.1 1.4q1.2.2 2.8-.4a3 3 0 0 0 2 1.4q2.1 0 2.4-2.2-.2-2-2-2.9 1 .6 1 1.8 0 1.6-1.5 1.5-1.4-.4-1.6-1.9c-.3.6-1.2 1.9-3.3 1.8-2-.5-2.9-2.1-3.2-2.8q-.2 1.5-1.6 1.4-1.5-.4-1.6-2 0-1 1-1.5m2.6 8.1c-2.6-.1-3.6 1.8-6 3.4 1.3-.4 2.4-1.3 4.2-2.2 2-.7 3.3.6 4.5 1 1.1 0 2.5-1 4.5.4 1.8 1.4 2.9 2.7 4.2 3.5-2.4-2.3-3.5-4.6-6-5.3q-1-.1-2.7.5-1.7-1.1-2.7-1.3"/><path fill="#85340a" d="M496.5 515.7q-1.5-.2-4.4.2c4.7-.2 5.7 1.3 7.9 1.8 2.1.2 3-1 7.9.6-5.3-2.4-6.3-1.6-8-1.8-1-.2-1.7-.6-3.4-.8"/><path fill="#85340a" d="m492.3 516-1-.2c5.4 1.8 3 4.1 8.7 5.4 5.8.5 3.2-2.6 8.7-2.7-5.8-1.1-4 2.1-8.7 1.8-4.4-1-3.2-3.4-7.7-4.4m12.4 11.3c-.2-3-2-5.3-4.7-6q-4.3 0-4.7 4.5 1-3.6 4.7-3.4 3.6 1 4.7 4.9m-26-38.5c6.4-4.8 13.4-4.5 18 .4a15 15 0 0 1 1.9 5.1q.7 5-2.8 10 .6.2 1 .8a22 22 0 0 0 1.4-16.2c-6-6-13.3-7.7-19.4-.1"/><path fill="#85340a" d="M488.2 488.4c3.5.6 4.2 1.5 5.8 3.2 1.6 1.6 2.3 1.6 2.6 1.8.2.4 0 1.1-.5.8q-.7-.3-3.1-2.8a7 7 0 0 0-4.8-2.1c-4.7-.3-7.3 2.8-7.9 2.8-.1-.7 2.4-4 8-3.7"/><path fill="#843511" d="M488 490.2q-3.6-.6-5.8 2.5c3 3 8 4 12.4 1.6a11 11 0 0 0-6.5-4.1m0 .6c2.3.4 4.1 1.7 4.6 2.9-3 2.6-6.5 1.9-9.5-.9q2.1-2.5 4.8-2"/><path fill="#85340a" d="M490.7 493.4q-.2 2.3-2.3 2.2-2.2-.5-2.4-3 .2-2.1 2.4-2.2 2 .7 2.3 3m-8.8.4c4.8 4.3 8.7 4.7 11.6 3.5 2.6-1.4 2.6-1.9 2-2-.5 0-1 .4-3 1.2-2.4.8-5.1.3-10.6-2.7"/><path fill="#1a1a1a" d="M8 195.3c170.8-85.3 341-54.5 513.3-28C676.5 191 833.4 211.8 992 132.7v672c-170.8 85.3-341 54.5-513.3 28C323.5 809 166.6 788.1 8 867.2zm31.3 19.3v604.5c306.5-128.2 611.1 96 921.5-33.7V180.9C654.2 309 349.5 84.9 39.3 214.6" opacity=".2"/></svg>