<svg xmlns="http://www.w3.org/2000/svg" viewBox="0 0 1000 1000"><path fill="#006" d="M8 195.3c170.8-85.3 341-54.5 513.3-28C676.5 191 833.4 211.8 992 132.7v672c-170.8 85.3-341 54.5-513.3 28C323.5 809 166.6 788.1 8 867.2z"/><path fill="#bd1021" d="M8 531.3c327.6-275.4 653.1-120.5 984-398.5v672c-171 26.9-341.4-62.3-513.8-147.6-155-76.7-311.8-150.9-470.2-126"/><path fill="#fff" d="M113.4 492.3C403.4 321 697.3 416.4 992 168.8v600C697.6 815 413.5 520 113.4 492.2"/><path d="M762.2 561.9c6.5 1.1 6.3 8.8 6.3 9.3l23.3-.6c3.1-11.3 5.9-10.3 11.7-5.3a36 36 0 0 0 11.2 6.3c2.8-16 18.2-15 18.7-15 7-24 7.6-23.8 3.4-26.1a16 16 0 0 1-5.9-7c-3.9-6.1-6-15-6.5-20.9-1-5-4.7 2.7-6.2 1.9-1.5-1.4-7.8 0-8.3.1 1.3 2.5-4 1.6-4.3 1.5.5.7 0 3 0 3-.9-.8-5-1.5-5.2-1.6-.5 1.4-1.5 3-1.5 3-2.8-1-7.5-.6-7.7-.5-7.5.6-11.8 3.7-14 5.6s-9.5 7.4-15.7 15.6c-6.4 8.2-9.4 7.5-9.6 7.4-2.2 9.2-16.2 20-16.4 20.1-2.8 3-9.3 4-13.5-.1-3.3-4.9-.1-11.6 0-12 1.5-3.5 2.7-3.3 3-15.7.3-8.4 6.3-14.9 12.9-24.7 7.9-11.9 19-31.7 19-31.7.3 6 2.3 6.9 2.5 7a73 73 0 0 1 5.3-11.3q.4.8.7.9c2.5-4.7 4-6.6 4-6.6-1.2-.3-7.5.3-14.2 8.1-6.8 7.6-10.7 5.4-11 5.3a9 9 0 0 1-4.8-6.7 43 43 0 0 1 9.6-33c-17.3-6-4.8-34.9 16.6-48.7 8.8-5.7 14-10 17-13.1 1.8-1.9 4.2-3.9 4.2-6.4 1.1 1.9 2.2 5.2 2.2 5.2.2-.3 1.8-3.4 14.1-12 12.3-8.8 18.3-16 18.3-16 1.5 4.1 1.2 7 1.2 7 33.7-20.6 66.8-65.6 67-65.9.8 3 .5 7.6.5 7.7 5.5-8.2 25.2-30.2 25.3-30.3a23 23 0 0 1-5.9 16 20 20 0 0 1 1 4c3.3-3.5 18.4-22.8 18.5-22.8 5.2 5.2.7 16.6.5 17 1.9-1.2 3.3-3.8 3.4-4 1 11-7.5 23.4-7.6 23.6 1.5-.6 4.1-3.4 4.2-3.5-2.2 13-18.4 31.5-18.6 31.6 2.2 2.7.3 6.6-1.9 9.3s-5.2 7-4.5 8.6c1.6.4 8.1-7.5 8.6-8.1.7 5-8 17.2-8.3 17.6 6.9-1.2 24.9-18 25.2-18.3a47 47 0 0 1-17.1 27.4c-8.6 7.1-8.2 7.5-8.2 7.6 2 .5 13-6.8 13.5-7.2-4 12.2-16 23.1-16 23.3 3.6 2.5 7.8-2.7 12.6-8.8a126 126 0 0 1 18-17.3c7.3-5.5 11.8-5.1 12-5.1 6.1-4.6 10.5-3.3 10.7-3.2 11.4-3 12.3 1.3 12.4 1.6 1.2-.1 2.1.1 5 1.7 2.7 2 2.7 10.2 2.6 15-.2 4.3-1 4.7-1.6 6.2a13 13 0 0 0-.6 4.5c-.1 1.8-2.8 13.2-20.1 20.7-17.3 7-26.3 9.7-26.3 9.7a13 13 0 0 0-3.1 2.2c-7.5 7-3.3-2.1-12.1 10.2-9 12.3-13 11.8-13.1 11.8a211 211 0 0 1-15.7 22.5c-5.1 5.9-4.3 5.3.3 6.8 4.8 1.2 11-2.7 11.3-2.9-4 5.3-1.5 6.1-1.3 6.2 6-6.2 9-5.6 9.2-5.5 1.4 6.6-4.6 18.6-4.7 19 2.5-.4 7.3-2.1 7.3-2.1-1.4 5-5.9 11.1-9.5 13.9-3.4 2.5-2.9 2.9-1.8 5.5.9 2.8.2 5.7.2 5.8-6.3-3.7-6.4.7-6.4 1-.6 7.1-.6 17-.6 17-4.4-1.5-4.5 1.8-4.5 2-1.4 6.6-6.4 15-6.5 15-.5-3.8-2.6-4.1-2.8-4.2a46 46 0 0 1-7.9 13.3 82 82 0 0 0 .6 15c-3.3-.2-4.3 0-5 1.2-.4 1.2.7 1.4.8 1.5q21-3.5 42.8-9c.8 0 2.9-.4 3.2 5.9-.3 6.4-3.5 7.6-3.7 7.7q-23.2 5.8-46.9 9.6c0 .1.2 1.6-2.2 4-2.5 1.9-1.7-1.5-2.3 6.3-1.4 7.7-9.6 1.4-10 1-1.7 3.4-5.2 7.9-5.2 8-2.2-8.5-4.1-10.7-7.6-2.8-2.7 8 5.5 5.5 6 5.3l7.6-2.7c15.2-5.5 48-19.7 50.4-20.7 3.2-1.2 6-1.8 7.6 3.5.6 5.6-6 8.3-6.6 8.5a613 613 0 0 1-56.4 20.2c-1.7 4.7-5.6 5-6 5 .1 4.5-2.8 7.5-4.7 9.5-2 1.6-6.8 1.7-7 1.7-7 6.6-9.6 2.7-9.8 2.4-4.5 2.9-6.8 2.2-10.5.5-3.4-2.3-3.2-7.3-3.2-7.6q-17.6 4-35.6 7c-1.7 1-2.8 2.4-2.9 2.4.8 2.5-2.3 7.1-2.5 7.4 1.1 1.2 2.9 3.7 3.4 9.8-.2 6.6-5.4 7.6-2.8 12 3.4 4.2 8.3.8 14.8-3.7 6.3-4.1 12-4.2 14.8-4.3 2.7 0 9.9 1.8 14.6 3.6 4.7 1.6 6 .4 6.4-3 .5-3.2 2.2-4.2 2.4-4.3-.5 3.3.6 4.4.6 4.5 1.9-.3 4.8-2.6 4.9-2.7-.5 2.4-2.4 4-2.5 4-4.2 4.8 1.4 2.5 1.6 2.4a54 54 0 0 1 19.9-5.2c3.2.3 18.2 6.2 18.3 6.3.4-2.3.1-7.2.1-7.2 4 1 5.4 3.3 5.5 3.4 1.2-2.6.5-5.8.5-6 12 7.6-2.2 14.2-6.6 17-4 2.7-4 4.6-4 4.7 3.4-2 5.7-2.9 8.4-3.7s1.8-.4 8.4-3.5c6.8-2.8 9.7-.3 9.9-.1-5.5 1.8-7 4-7.1 4.1 3.1 3 .4 5.7.2 6-5.5-7-9 1.7-9.3 2.2 2-.5 6.5-.1 8.2.7 1.1.7 3.7 2 6.9 3.2 4.6 1.8 3.7.4 7.2 1.2 3.4 1.5 2.3 5.6 2.2 6-1.8-3.4-4.6-4-4.8-4-.6 5.3-3.7 6.8-4 7 4-8.3-5-8.8-10-7.9-4.7 1.5-8 5.6-8.1 5.8 9.7 10 15.6 5 15.9 4.9-2 4.5-8.4 4.5-9 4.5 3.5 3.2 3.3 5.5 3.2 5.7-2-2-4.8-.4-11.7-5-7-4.4-12.5-1.9-12.7-1.7 6 8.9-2 15.3-2.5 15.6-2.8 3.4 1 5.6 1.4 5.8-4.2 1.2-4.6-3.4-4.7-3.9-2.3.2-5.1 3.6-5.3 3.9.7-5.9 5.3-3.9 6-10 0-6.2-5-9.6-21-5s-20.5-1.7-20.6-1.9c-1.3.4-1.6 2-1.6 2 2.7 3.4 3.7 4.5 3.4 7-.4 2.6.7 3.1.8 3.2-3-.5-3.1-4.4-3.1-4.7-.2 2-.7 2.2-1.7 4.3a8 8 0 0 0 0 4.7c-1.4-1.5-3.3-2.9-1.4-7.4 1.1-3.7-3-7-3.4-7.2-2.4-2.3-6.8 0-7.2.3-11 3-16.9-5.4-17.1-5.7a17 17 0 0 1-3.6-.8c-11.8 6.7-21.2-7.4-21.5-7.8-8.8 2-12.4-3.4-15.2-9.2-2.6-5.6-3.1-6-6.6-9-3.6-3.4-6.5-10.8-3.5-15.3 2.7-3.8 2-4.5 2-4.6-4-10.5 7.4-13.3 8.2-15.9q1-5.4 5.7-6c2.8-.1 2.8.2 4.7-2.4 2.2-2.2 5 .4 5.3.7 1-1 6.6-6.8 12.4-4 5.8 3 9.8.9 10 .7 3.9-1.2 36-9.1 36-9.2 2.2-4.5 3.6-9.3 12.4-13.2a49 49 0 0 0 15.6-12.1c-1.8-2-4-1.7-5.5-1.7-1.4-.3-4-3-4.2-3-1.6 1.1-2.4.9-14 11.6-10.7 8.9-10.7-7.1-10.7-7.6l-22.6 1.3c-.8 6.7-3.9 9.2-4 9.3l-8.3.8c-4.4-3.8-4.7-13.9-4.7-14.3a69 69 0 0 0-38.7 12.3 187 187 0 0 0-50.3-27c34.3-2.5 52.3-15.1 52.4-15.2a64 64 0 0 0 36.6 16.2c1-9.4 5-11.7 5.3-11.8z"/><path fill="#ffc221" d="M721.5 639.7c-7 5.7-6 8.5-5.3 10.4s.7 3.4-1.2 6.2c-1.9 2.7-1.8 3.5-1.7 3.5.6 9.6 5 11.7 7.2 14 1.7 2.2 4.6 8.2 4.7 8.2 3.9 7.2 7.3 7.4 10.4 7.4 2.9 0 2.6-.3 1.2-2l-4.3-5c3.8 2.2 7.4 7.2 7.5 7.4 7.6 10.7 13.7 9.3 17 8.7 2.8-.9 2.4-2.8 2.4-3l-3-.6c-11-1.7-14.1-10.7-14.3-11a26 26 0 0 0 20.1 10.1c3.2-.1 3 .9 2.3 1.3h-3c-1.5-.1-1.5.3-1.2 1.1q.7 1 3.4.8c1.7-.1.5 0 4.9 4.7 5 4.3 15.3.3 15.7.1-7.2-2.3-8.2-6.2-8.2-6.4-10 1.6-13.7-5.6-13.9-6-2-2.2-7-5.8-7-5.9-5.5-3.6-6.4-9.7-6.5-10 1.8 3 4.6 6.2 8.5 7.8 3.9 1.4 5 2.1 5 2.1-2 .3-2.9-.3-3-.4-3.8-1.3-1.7.6-1.7.7 4.4 4.5 5.4 4.1 5.5 4.1 11 .7 5.8-4.5 5.6-4.7 8.1 1.9 9.2-1.7 9.3-2 2.3 4.5 7.2 2.8 7.7 2.7-7.8 5.9-2 3.9-2 3.9 8.3-2.4 9.6-.2 9.7 0 2.4 2.5 4.3 2 4.4 2l4.6.6c3.2.7 7.7 3.3 12.3 2.4 4.5-1.1 5.1.4 5.2.5-1-.3-2.7-.4-6.3 2-3.7 2.5-9.3 3.8-18.2 1.8s-9.4-1.8-9.4-1.8c2 2.1 3.7 4.8 4.3 6.9.5 2 1.8 2 1.9 2 .8-2.7 3-4 3.2-4 2 2 6.3 4.5 6.4 4.5.4-1.5 0-2.4 0-2.4 3.7 3.8 7 2.4 7.2 2.3 1-1.3.8-3.4.8-3.6 1.3 0 1.5.9 2.5 1.7 1.1.6 3.8 0 4-.1-1.1-.7-1.9-2.7-2-2.8 5-4.4 13.8-4.1 14-4 7 1.2 6.2 6.4 6.1 6.9 1.4.8 3.2 3.2 3.3 3.3.5-2.3 0-4.4 0-4.4 3.1 2 3.8 6.2 3.9 6.5 3.1-6.7-3.1-11.3-3.5-11.6a37 37 0 0 1 9.6-1.3 14 14 0 0 1 8.4 3.7c3 2.4 7.4 3 7.6 3-.4-1.2-2.6-2.8-3.3-3.2s-.9-1.4-.9-1.4c2.4 0 4-.5 4-.5-8.3-5.4-10.4-8.3-10.4-8.3a7 7 0 0 0 4.9-3c-6.7 1.2-6.9-.8-6.9-1 1 .2 3.7.6 7.8-1.1s9.3-2 9.4-2c-3.3-5.3-13.5-2.5-17.4-1.5-3.6.9-4.9.5-5 .5.6-.5 1.2-1.3 4-1.9 2.9-.5 5.3-.7 8.6-4.2 3.5-3.4 7.2-3.5 7.5-3.5-1.5-2.6-5.7-2.5-10.4 2s-8.1 4.2-8.4 4.2c7-2.8 8.9-6.2 9-6.3-2.2-.2-3.2.8-7.4 2.7-4.3 1.6-5.2.1-5.3 0 4.6-4.4 7.7-6.5 7.7-6.5a25 25 0 0 1-7.4-2.1c-4.2 6-7 9-15 4.8s-11.5-3.4-11.7-3.4c7-6.1 13.5-4.9 18.9-1.5 5.2 3 6.4 0 6.5-.2-1.6-1.2-1.4-2.3-1.4-2.3 12.5 6.3 17.5.3 20.4-3 2.3-3.3-1-5.4-1.2-5.6-.6 5.7-5 8.7-9.3 7.8-4-1.1-7.6-2.8-13.3-5.2-5.9-2.1-12.7.3-19.5 3-6.7 2.6-7.4 2-8.1 1.2s-.9-2.6-4.3-.6c-3.7 2-11.1-2-16.3-3.4-5.1-1.1-12.8.2-20 5.6s-10.2 4.4-12.5 3.1c-2.2-1.6-3.2-4.5-1.2-8 2.3-3.4 2.4-4.2 2.3-8.8-.5-4.7-3.4-7.2-3.5-7.3 3-4.5 3.7-5.3 2.7-7.2-.8-2 .5-1.9 2.4-3 1.7-1.2 1-1.2.5-2.7-.5-1.3-1.3-1.1-1.4-1.1-4.1.2-6.2-1.1-6.3-1.2-7.1-3.5-12.7 3.8-13 4.2-4-3.8-4.6-1.7-5.4-.5q-1 1.5-3.8 2c-1.8.2-3.9 1-5 3 0 0-.6 1.5.2 3.5.1.1 1 2-.8 4.7-2 2.7-2.5 3.2-2 5.7.5 2.6.4 4.3-.3 6 0 0-.8-1.4-.7-3.1q.4-2.4 0-3.6s-1.8 2.5-2.2 4.3c0-.2-.7-2.6 2-6.5 2.7-3.8 3.7-5.3 3.1-7-.8-.8-2.4.5-3 1"/><path d="M729.2 680.9c-.2-.2-3-3.5-3-8.6.4-5 .3-5.5 0-6.5 0 0-.6.4-.6 2.4 0 1.8-.2 3.6-.3 4 0 0-1.8-4-2.5-5 0 0 .5-4-.3-6-1.1-2-1.9-2-3-1.5-1.7 1-2.7 2.5 2.4 8.6 0 0 1.8 2.1 3.3 6.8s3.4 5.4 4 5.7m16.9-13.6s-.2-2.7 1.5-7.7.8-8.4.4-9.8c-.5-1.2-.7-.8 1.1-3 2-2.8-.5-5.6 3-10.4l3-4.1s-4 2.9-6.6 4.4c-3 1.8-11.9 7.8-10.3 12.6 2.2 4.4 2 4.6 1.6 6.5-.3-.3-5.4-4-3.8-11.2 0 0 1-2.6 3.4-5.8 2.3-2.8.8.4 5.5-3 0 0 3.4-3 5.5-7l-3.2 2.5c-.3 0-5 1.4-7.4 4.4-2.3 3.2-6.4 8.1-5.2 14.2-.3 0-4.8-.9-6.4-8.4-.2.3-9.6 15.9 10.7 24.1 0 0 3.7 1.3 7.2 1.7"/><path fill="#ffc221" d="M836.1 605.5c7.6-2.7 51.7-21 56-22.8 4.6-1.9 6-3 7.6 1.4.8 5.3-5.5 7-6 7.2a616 616 0 0 1-53 19.3c-2.6.7-3-.3-3-.4l-2-3.4s-.7-.8.4-1.3"/><path fill="#5a3719" d="M727.9 645.1c0 .3-5.6 16.1 16.8 20.6 0 0 0-1.8 1-4.4.9-2.8 2.5-7.6 1-11.2-1.6-3.3 1-1.7 2-6 .4-4.5-.3-3.8 1.2-6.7a34 34 0 0 0-9.8 7.8c-2.2 4.5 3.2 7.2 0 12-.2 0-3-1.5-5-6.1-.4 0-4 0-7.2-6"/><path d="M749.9 665.3c.2.3 5.4 6 12.1 6 6.8-.7 9.3-3 11.1-6.7 0 0 1.2 2.7 1.3 4.6.3-.3 5.4-6.3 15.6-1.8 9.8 4.8 6.9 3.6 9 3.7-.1 0-4-.5-13.8 6-10.3 6.8-35 5.8-35.3-11.8"/><path fill="#5a3719" d="M740.7 636.4c.2 0 2.2.4 5-3.4-.2 0-3.2 1-5 3.4m-18.9 30.3c-.3-.4-4.2-4.5-1.6-6 .1 0 1.9-.4 1.6 6"/><path d="M822.8 693c.2-.3 2.4-5.8 9.6-7.3 7.1-.8 8 3.1 17 2.6-.4.2-10.5 5.6-18.4 3.3a9 9 0 0 0-8.2 1.4"/><path fill="#5a3719" d="M752.3 669.7c.4.2 10.2 8.2 20.2-1.4q.2 0 1.4 3.3c.3-.3 6.9-9.3 20-.5 0 0-1.4 0-7.6 3.8-8.3 5.3-27 9-34-5.2"/><path d="M793.4 676.7s10.2.6 18.9-.9c5.5-1.1 10.7-3 8.2-.2-2.8 2.8-1.6 3 10.7-.3 12.1-3 0 2.6 8.3 3.4-.3.2-20 17.2-46-2"/><path fill="#5a3719" d="M820.2 665.1a14 14 0 0 1 11.6-1c5.5 2.9 4.7 3.1 8.4 3.1-.2.4-2.3 5-8.7 2.3a33 33 0 0 0-11.3-4.4m6.7 24.3c.3-.2 5.6-4.4 12.4-1.6.8.4 2.6 1 4.2 1.3-.2.1-4.7 2.6-10 1.5a31 31 0 0 0-6.6-1.2m-29.1-11.2c.2 0 13 .3 20.2-2.3 0 0-8.2 6.4 12.5 1.3.3-.1 4.1-1.3 4-.3-.6 1-.9 1.7 1.4 2.4-.3.2-15.1 11.6-38.1-1.1"/><path d="M732.3 665.4s.1 1.2 3 3.1 4.4 4.9 5.1 6.7c.7 1.9 2 4 4.5 5.1-.4.1-9.7 2.7-14.9-4.4-.2-.3-3.1-4.9 2.2-10.5z"/><path fill="#5a3719" d="M813.2 693.9s-4 0-9.6-2c-5.7-1.9-6.9 0-10.2-2.7-3.5-2.7-9.1-.7-10.6-.3-1.3.3-4.3.4-.4-3.7-.2 0-3 0-4.6-2.1-.1.1-1.4 1.9-7.2 1.6.2.3 2.5 4.9-7.6 4.1.1.2 3 4.3 6.7 5.6 3.7.7 5 .4 7.5-.7 0 .3-.6 3.8 4 5.6 4.7 1.4 5.7 2.4 8 3.6 0-.1.3-2.5-5.9-8.5.1 0 3.3-.3 8.2.8 5.2 1.3 15.4 3.9 21.7-1.3m2.6 6.1c0 .2.9 2.8 4 2 3.4-1.2 8-2.8 13.2-.3 0-.4.8-5.3-9-4.9-.2 0-6 1.4-8.2 3.2m-83.9-32.6c-.3.3-3.4 3.9-.3 8.7 3.4 4 7.7 3.8 10.3 3.6 0 0-1.3-1-2.6-3.6-1.2-2.6-1.4-4-3.9-5.8-2.7-1.7-3-2.1-3.5-3m-4-22.2c0 .3-5.6 16.1 16.8 20.6 0 0 0-1.8 1-4.4.9-2.8 2.5-7.6 1-11.2-1.6-3.3 1-1.7 2-6 .4-4.5-.3-3.8 1.2-6.7a34 34 0 0 0-9.8 7.8c-2.2 4.5 3.2 7.2 0 12-.2 0-3-1.5-5-6.1-.4 0-4 0-7.2-6"/><path d="M787 681.6c.1 0 4.5-1.2 16.7 3.7 12 4.8 16.9 2.8 18.8 2.3-.3.2-6.5 5.4-17.3.5-9.3-4.6-9.8-2.6-18.2-6.5"/><path fill="#ffc221" d="M862 668c.2 0 2.7-.5 4.4 0 0 0 1-1.3 3.6-2.3-.2-.2-1.5-1.7-8 2.3m-8.1-7.5a6 6 0 0 0 3.5-2.6c0-.1-1.3-2-3.4-3 0 .1.3 2.5-.1 5.6m-92.2-32.3c0-.2-.4-1.6 2.4-2.5l40.2-10.4c.1 0 1.8-.2 2.3 1.5.2 2-.2 3.3-9.3 5.7l-27.6 6.3-5.2 1.1c-.2 0-2.3.6-2.8-1.7"/><path fill="#ffc221" d="M798.2 623.9c0 .5 0 6.6 5.3 7.8 5.4.4 6.9-1 8.4-5 .5-1.7 1.8-8-.3-9.1q-1.7-.2-3.7 1c-2 1.3-3.3 2.5-2.9 3.7 1.3 2.6 1.5 3 1 3.4-1.3.5-2-.7-2.4-1.9-.3-1.4.6-2.1-2.8-1.2-1.6.4-2.5.5-2.6 1.3m22.3-7.9c2.8.7 2.5 7.6-.7 12-3.8 4.2-6.7 3.4-7 3.3-1.7-.8-1.5-.5-.1-3.5s1.8-6.4 1.2-9q-.2-1.3 1.3-1.9s2.5-.9 5.3-.9"/><path fill="#ffc221" d="M823 616.4c0 .2 1.6 3-.6 9.7 0 0-1 1.7 1.4 1.3 2.7-.8 7.4-4.6 7.3-9.3 0 0-.2-1-1.6-.8s-.3-1 .3-1.3 2.3-1.4-2.4-5c0-.1-.7-.9-1.7-.4s-3 2-3.3 4.2c0 .8.5 1.6.5 1.6"/><path fill="#ffc221" d="M828.2 610c.1.1 3.5 3.2 3.8 4.3 0 1.3-.4 2.5.6 2.4 1.4-.4 4.8-2 4-5.7-1.2-3.6-2.2-4.6-4.1-5.3-2-.5-2.4.6-4 2.6-.2 0-1.2 1-.3 1.7m-20.7 7.8c0-.3.5-2.6-2.8-3.6 0-.1 1.3-1.6 4.3-1.2 2.9.8 2.6 3 2.6 3.6 0 0-2.2.1-4.1 1.1m7.4-1.4s4-1.3 5.8-1.3c-.2-.5-1.7-5.2-7.3-3.1.1.1 1.7 2.6 1.5 4.4m6.9-2.3c0-.1 0-1.7 3.3-4.1a5 5 0 0 0-3.9-1.4c-2.6.7-3 1.8-3.1 1.9a7 7 0 0 1 3.7 3.6m1.3-6.4s2 .5 3.4 1.8c0-.1 2-3 3.6-4.1-.2-.2-3-1.7-7 2.3"/><path fill="#5a3719" d="M713 597.8c.4-.4 9-9.8 14.5-9 5 1.2 2.6.5 8.2-.8a62 62 0 0 1 13.8-1.7 30 30 0 0 0-19-6.5s-8.5 4-14.6 9.1c-.3-.2-11.1-8.6-23.3-4.4 0 0 12.8 7 20.4 13.3"/><path fill="#ffc221" d="m811.2 613 1.6-.5c.2.3 2.3 3.7.7 4.4-1.5.1-1-.5-1.2-1.8a4 4 0 0 0-1-2m-11.7 1.4s-.9 1.5.8 1.1c2.2-.6 1.8 0 4-2.4.2-.2 1.4-2 4.2-1.2.1 0 2 .7 4-.6 1.9-1.4 2.3-1.4 3.3-1.4s.9.3 2.2-1.2c1.4-1.3 3.4-.8 5-2.5s3-.7 0-3.4c0 0-.6-.8-.6-1.6 0 0 1.1.3 2.2 1.4s2.5.5 2.9.2c0-.1.3-3.7 3-8 2.9-4 2.9-4.2 1.2-4-1.8.1-4.3-.2-5.5.7-1 1.2-9.3 9.4-14.2 11.4-5 2-9.1 4.1-12.5 11.5m-130.1-41.4s14.9 6.5 18.3 8.8c0-.3.7-3-6-6.5.2 0 16.3.6 34 11.8.3-.3 8.3-9 35.6-6.6 0 0 0-3.2.2-5.8-.2 0-18.7-.6-36.5-15.5 0 0-15.7 10.2-45.6 13.9m83.2 12.5c-.8-20.9 4.6-22.8 4.8-22.8 0 0 2.7 0 5.8.5-.1.1-4.5 7.5-3.4 22.5 0 .2.4 2.2-3.5 2.5-3.8-.2-3.7-2.4-3.7-2.6"/><path fill="#5a3719" d="M756.7 599.5a21 21 0 0 1-3.2-8.5s0-1 2.8-1.1c3 0 3.2-.4 4 1.8s2.6 6.7 3 7.3z"/><path fill="#ffc221" d="M762.8 588.9c-.2-2.7-.3-5-.3-8 .3-11.6 1.5-10.6 2.2-9.2h2.9c0-.4-1.7-12.6-4.6-5.3a47 47 0 0 0-2 18.5q.3 5 .8 6.8z"/><path fill="#5a3719" d="M795.8 587c.2 0 5.4.6-3 4.3 0 .4.2 13.7 10.6 3.3 0 0 6-5.7 10.2-8.4.1-.1 1.9-1.2 1.9-3.4 0-.2.2-2.3-2-1.8-.1 0-1.7.2-2.9-.2 0-.1-1-1.6-2-1-1 .8-2.5.6-1.2 3 1.5 2.2 1.9 1.6 2.6.8s3.8-3 1 1c-3.3 3.5-5.1-1-6.2-2.3zm-28.2 3.4H765c0 .1-1.2 2.7-2.3-1.5l-1 2.8c0 .2 2.7 15 5.8-1.3"/><path fill="#ffc221" d="M764 572.9s-1 9.9.4 16.1q13.4 0 27-.8s-.2-7.1.1-16.8l-3.8.2s-.4 8.1 0 13l-.7.1s-.4-6.9 0-13l-3.1.2s-.5 7.5-.1 13.1h-.6s-.4-6.5 0-13l-3 .1s-.6 6.8 0 13h-.8s-.5-6.7 0-13l-3.4.2s-.8 6.3 0 13.1h-.8s-.7-6.3 0-13l-3.4.1s-.7 7.2-.1 13.1h-.7s-.4-6.8.2-13l-3.2.1s-.8 6-.2 13l-.7.1s-.5-5.2.2-13zm28.7 16.6c0-.2-.5-17.7 1.8-22.9 2.6-4.8 3-4 7.4-.6 4.3 3.3 9.9 6.7 10.8 7.2 1 .3 2 .6 2.2 4 0 3.2.4 4-3.3.4a19 19 0 0 0-3.6-3c-3.2-1 .5 1 2 3.2 1 1.8 1.7 1.6-.8 2.8-2.6 1.2-11.7 6.1-16.5 9"/><path d="M802.2 575.8c-.2-.3-1.8-2.9.5-4.2 2.5-.5 2.7 4.6 3 8.7.1 3.5-3-3.3-3.6-4.5m-3.6 16c-.2.2-2.7 1.6-1 3 2 .3 7.2-4.8 5.4-5-1.8.7-4.4 2-4.4 2m4-5.9c.1 0 2.3-.5 2 1-.6 1.5-1.3.8-1.8.4-.5-.3-2.1-.9-.3-1.4"/><path fill="#ffc221" d="M816.2 579.8c0 .4.8 6.2 5 8 .2 0 2.3.5 2-2.4l-.8-3.5c-.5-1-2-1.4-2.3-1.5-.1-.2-.4-.8.8-.4q1.6.8 1.3-.7c-.2-1.1-.7-.7-1.9-1.2q-.4-.5.5-.6c.5 0 1.4.3 1.5-2 0-.1.3-1.2-1-1.3-1.5 0-1.4-.7-1-1 .7 0 1.9 1 2.5-1.3.1-2.5-1.9-.8-1.8-2 .6-1.3 2 .3 2.3-1.1s1.4-2.2-.9-2.4c-1.1-.2-.1-.9 1.2-.9 1.4-.1 2.2-2.2 3-3.2 1-1 5.3-4.9-.7-3.2-6 2.4-7.7 6-8.2 7.1s-2 5.7-1.5 13.6m14 3.5q1.4-.5 1.9.6c.7 2.6-1 2-2.6 4.2-1.3 2.2-1.3 1.9-3 1.3-1.9-.8-2.5-3.8-2.6-4 0-1.2.5-1.4 1.5-1.4.1 0 3 0 4.9-.7"/><path fill="#ffc221" d="M823.7 582.7s.1.7 1.2.8c1.1 0 3.9-.2 5.8-1.1 0 0 .6-.2.3-1.8 0 0 0-1-1.6-.4s-3.8.5-4.7.4c-.8 0-1.3.2-1 2.1m-.2-5c0 .2 0 2 1.5 2.3a15 15 0 0 0 4.5-.6c.7-.2 1.7-.7 1.9-2 0-1.3.3-2.2-1.7-1.3-2 .8-4.3.8-4.6.8-.3-.1-1.4-.4-1.6.8m.7-4.5s-.3 1-.3 2q.2 1.3 3.3 1 3.5-.5 4-2c.2-1 .7-2-1-1.6-1.7.6-3.6 1-4.5.6q-1.2-.5-1.5 0"/><path fill="#5a3719" d="M901 568.8s0 1.9 1.2 3.6a529 529 0 0 1-58.1 10.7s.7-.9 1-4q27.6-3.5 56-10.3"/><path fill="#ffc221" d="M824.7 569.9c0 .2-.4 1.9.5 2.3q1.6.6 5.2-.4c.1 0 1.1 0 1.7-1.8.4-1.7.3-1-3-1.3 0 0-1.1-.2 2-.7 0 0 1.6-.2 2-.6.3-.6 2.4-3-.5-2.6-3 .5-1.4-.5 0-.7 1.6-.2 2 0 2.5-.6s0-.3-.8-1.3-.2-.7.4-.2c.6.6.8.7 1.5-.2.6-1-.4-1.7 0-1.8.6.2.8 1.2 2.7-.2 2.1-1.5 4.3-1.3 5.2-.7.8.6 2.5 1 3.9-.7 1-2-1.3-2.7-.3-3.3 1.2-.4 1.8 0 2.3-1.3.3-1.4-1.5-2 .4-3.3 1.8-1.8.4-8.3-.4-9.5 0 0-2.2 2.4-5 8.5-2.6 6.3-4 9.4-7.5 8.5-5.3-1.3-7.5 2-8.5 3-.9 1.3 2.4 1 .4 1.5-2.2.4-2.2.6-2.4 1q-.2 1 .3 1c.5 0 1.3.8 0 1-1.5.2-2.3 0-2 2q-.2.1.8.3c.8.2 1 1-.4 1.3q-1.2.4-1 .8m5.4 19.2c-.1 0-1 1 .3 1 1.5 0 2.2.2 2.7-1 .6-1 2.2-.9 1-2.2-1.3-1.1-2-.3-4 2.2"/><path fill="#ffc221" d="M836 564.3c.4-.4 4.4-6.3 9-3.4 4 3.6 4.4 4 4.4 4.2.1 0 .5.4-.6 2-1 1.5 0 1.2 1.2.2s1.3-.3 1.9.5 1.3 1.1-.5 1.5l-5.9 1c-.1 0-2.5.9-1.3-1 1.3-1.8 1.1-3.2.4-3.4-.6 0 0 .8-.4 1.7q-.8 1.3-2.4 1.7c-1 .2-1.7 1.1-.3 1.7 1.5.7 0 1.2-.9 1.4s-4.6 1-.7 1.1c3.6.1-.1.4 2.4 2.3 2.9 2.5 1 7-.3 8.1 0 0-1.3 1 .4.7 1.6-.6 2.4-1 1.3.4-1.3 1.7-3.2 5.3-6.6 3.2 0 0-1.4-.7 1.1-1.3 2.4-.7-1.8-.7-2.9-1.3-1-.8-3.6-3.9-1.9-4 2 0 1.2-1.1.1-1.6s-1.4-2.5 0-2.4c1.2.4 2.6 1 3.7.9q1.7-.4-1.5-1.3c-2.2-.6-3-.6-2.5-3.2.8-2.5 2.7.4 2.3-1.2-.8-1.7-2.4-.7-1.5-3.2 1.1-2.6 1.3-1.7 1.8-1.4.6.2 1.3 0 0-1.4-.9-.9 0-2 .3-2.5"/><path d="M839.5 565.5s0-.7.9-.8c.8 0 .6-.5.9-.8.3 0 2.3.4.4 1.9-.9.4-1.9.4-2.2-.3"/><path fill="#ffc221" d="M844.2 571.8c-.2.1-1.5 1.3-.2 3.5 1.2 1.8 1.3 2.4 1.2 3.8 1.5 2.1 54.4-10 55.8-10.3 0-.2.1-4.7 2.3-8.4 0 0-30.5 7.5-59.1 11.4"/><path fill="#5a3719" d="M902 567.2c0-.2.4-4 2-6.1 1-1 2-1 2.6 2.3.4 4.9-1.9 8.9-3.6 8-1.2-1.6-1-4-1-4.2"/><path fill="#7b3c20" d="M837.8 599c0-.1 3.6-5 4.3-7 .5.3 9.4 7.8 9.5-.9 0 0 0-2.4.3-4.7.3 0 3.3-.2 4.2-4.3l-9.4 1.3s-1 0-2.5 2.3c-1.7 2.6-4.2 5-7.2 3.6-.1 0-1-1-2.4.2-1.2 1.3-1.2 1.6-.3 2.8 1 1.2 3 4.6 3.5 6.6m21.7-30.7-5.5.8s-2.1-3.4-6-7.2c0 0-1-.4 1-3.2 2.3-3 2.9-5.4 3-6.7 0-1.3-.2-2.9.7-1.7 1.3 1.6 6 6.7 7.4 5 .8-2.3 1-3.3 1.1-4s.3-2.5 1.2-.8c.8 1.9 1.3 1.3 1.4 6.5 0 0 .2 5.2.7 7-.5-.1-6.5-1.7-5 4.3m-24-12c.4.3 3.8 2.4 6.3-2 2.2-4.8 3.3-5.6 2-9.6-1.5-4-.2-6 1.1-8s2.1-1.9 2.4-8.5c.4-6.7 3.4-9.5 5-11.9 1.8-2.6 5.1-5.7-.4-6.4-6-.4-16.8-2.6-20.2-8.2-3.2-5.4-4.2-2-4.4-1.6 0 .3-.8 4.7 2 12.5 3 7.7 5.5 12.3 8.4 14.6s5.2 3.2 4 8.8c-1.5 5.7-4.1 15.6-6.2 20.4"/><path fill="#5a3719" d="M851 536.5c0 .4.9 13.2 8.2 17.2 0 0 1.5-5.6 1-10.9.1 0 2.2 0 3 1.2 0-.3.1-3.6-3.3-4.8-3.3-1.5-1.8-9.5-.6-11.4 1.2-1.4.9-2.8 0-4.4s-1-3.6 1.9-3.4c3 .2 2.5-1.5.7-3.2-1.7-1.9-1.7-3.8.8-4.5 2.7-.9 6.3-4.2 4.1-5.2-2.5-.6-3.2-1.3.1-3.4 3.4-2.2 5-3.9 2.5-4-2.6.1-4.1-.5-1.8-1.7 2.3-1.5-.3-3.7-3.3-3.5-3 .6-8.6 3.2-4.1-3.1 4.3-6.6-6.6.1-2.1-4.5s-1.5-1.8-2.6-1.6c-.9.2-.8.2-.5-1.6q.2-3-2.1-1.1c-1.4 1.3-1.4 1.3-1.3-1.2-.2-2.3-1.6-.4-2.8.5-1.3 1-3.5 3.7-4.8 2.7-1.1-1.4-1.6-2.6-5 .5-3.3 3.1-2.6.8-2.5-.5s1.4-5.9-3.2-.4c-4.9 5.4-.5-5-4.4-1.2-3.7 4.1-4 4.7-4.6 3.2-.6-1.6-1.1-2.6-5.2 1.2-4 3.6-1-1.8-.4-3.2.4-1.4 2.4-9.1-1.3-2.8-.1.3-1.4 4.1-5.4-2.7-.3.5-3.4 7.3-5 4.7q-1.5-4.6-3.3-1.2c-1.3 2.2-.5 0-1-1.8-.5-2-.7-5-7.4 2-6.3 7.3 2.2 1.6-2.8 5-5.1 3.5-17.2 13.1-6 10.6 10.5-2.4-4.7 5.5-1.6 7.6 3.8 1.4 2.7 5.7 17.2-.8s12.1-2.2 19.5-7.3c7.2-5-1.6 1.2 8.3.1 9.3-1.6 2.4-.4 3.6 2.4a27 27 0 0 0 18.1 7.6c8-.7 9.6-4.6 7.5.3-2.2 5-3 7-4.4 8.8-1.4 2-4.7 6.1-5 12.6-.5 6.5-5.8 8.5-4 15.3z"/><path fill="#5a3719" d="M864 549.5c-.1 0-1.6-1.3-1.8-4.4 0 0 1.2 0 1.8 1 .3-.5 4.1-7.1-1-9.3-5.2-2-2.7-8-.8-9 1.9-.5 2.1-1.1.6-3.7-1.5-2.5-1.4-2.6 1.7-4s2.6-2 1.2-2.9a10 10 0 0 1-2.4-2.2c.6-.5 7.9-6.3 5.9-8.7-2.6-1.8-.3-1.8 2.5-4.8 2.5-3 2.8-3.5 3.2-4.5 0 0-2.4.8-4.3.8.2-.2 2-1.8 0-3.9-2.2-2-3-3.7-6.5-2.1-3.4 1.7-2.3 0-1-2.2s.8-3.1-1.7-3.2c0 0 .4-2 2.2-5a17 17 0 0 1-6.3.7c0-.1 1.7-2.1 2-4.3 0 0-2.5 1.5-5.8 1.8 0 0 1.7-2.5 1.9-4.6-.1.1-5.4 3-8.2 6 0 0-.6-.1-1-.9-.6-.8-.8-1.4-7 2.2 0 0 .7-3.7 2.1-5.7 1.4-1.8 1.4-4.5-8.4 5 0 0-1.2-.8-2.4-4.7a36 36 0 0 1-3.7 6c-.1 0-1.2.9-1.2-1.7 0-2.5-1-.7-2 .3s-1.6 2.7-1.1-2.5c.3-5.4-1.2-6-1.4-6.1 0 .1-3 5.8-4.8 7 0 0-3-3.9-4.3-6.6-1-2.7-1-3.6-2.2 1.3s-2.4 5.5-2.5 5.5c0 0-1.8-2-2.2-3.2 0 0-.3 1.3-1 2 0 0-1.4-2.5-1.5-6.4-.2.1-10 8.7-11.7 13.5-.1 0-9.8 0-14 1.2 0-.2 1.1-4.2 3.6-6.8-.2 0-2.3-.2-2.7-3.8 0 0 2 .2 3.4-.3 1-1-1.6-5 1.4-5.7 3.4-.2 5.1 1.6 3.9-4-1.4-5.9-.8-5.9-.8-6 .4.4 5.2 3.8 6.6 3 .7-1.4-.7-3.3 4.3-2.8s3.7-2.7 5.6-3.4c2-.3 3 1.3 1.8-11-1-12.3 6 5.6 1-12.7 0-.3-1.3-5.3-4.2-7.8 0 .3-.5 3.9-4 .9-4-3.4-9.6-4-7.3-7.3 2.8-3.3 4-6.8 3.3-9.3-.2.3-3 4.5-9 2-4.7-2-5.4 2-10.2 1.3 0 0 .1-1.5 4-6 3.7-4.4-2.2 1.2-4.7 2.4-2.5.7-3 .3 2-5.4 5.4-6 15-15.8 14-23.9.2.3 2.2 3.7 8.7.5 6.5-3.6 10.8-5.2 13-9.8a41 41 0 0 1 8.2-11c1.3-1 2.9-2 1 2.5-2 4.6-5.2 12-13.9 18a43 43 0 0 0-13.6 12.3c-2 3-9.3 8.6-4.4 7.7 5.4-1.2 13.8-.8 9.9-2.2-4.5-1-8.6 1.6-5.1-3.4 3.9-5.2 4.6-6.7 10.2-10.5 5.7-4 11.4-11.5 11.2-3.9-1 8-10.9 17.1-13.7 20-2.5 2.7-1.7 2.3-1.5 3.3 0 1.1-.5 3-1.5 4.2s-.7 2.1-.4 4.3-.3 3 .5 3.4c.8.2 1.4.3 1.8 1.9.2 1.5.7 1.6 2.3 1.3q2.3-.6 2.6 1c.2 1.2 1.3 2.7 1.7-1 .2-3.7 1-4.4-1.6-2.5-2.8 1.9-3.3 1.4-3.3-.4s-.2-1.3-1.4-1.3c-1.2-.3-1.5-2 .5-3.9 2.1-1.5 2-.2 4.6-3.3 2.5-3.2 2.5-3.9 3-5.3-.1-1-3.5 3.9-5.7 5.7-2 1.2-1.4-.6-1-3.8a13 13 0 0 1 7.3-7.7c2.6-.1 6.7.8 5 5.3-2.5 4.7-7.8 9.4-5.6 10 2.7 0 3-1.2 4.6.3 1.3 2 .2 5.3-.6 7.6-.8 2.1-2.2 4.6-2.8 5.3 0-.2-2.5-6.4-2.7-1.2 0 5.5-.5 7.2 0 7.5s3.7 2.4 4.7 2.6c.4.5-5 4-2.7 4.6 2.9-.2 6.4-2.2 8.2-6.2-.2 0-5-1.3-7.5-3.7.4-.2 5.8-2.5 4.5-10.7.5.1 5.6 1.3 3.6 5.7-2.9 4.1-4.2 3.8-2 4.6l3.5 1.6s1.4.8.6 2.8c-.9 2.1-1 4.3-.1 4.4 1-.3 3.1-1.9 1.2-3.7s2.3-1.6.5-3.1c-2-1.3-2.6-1.6-3.1-2.3.2-.7 25-24.4 12.3-15.3.1-.5 2.7-7.7 6.5-9 3.9-.2 4 3.1 2 7-2.2 3.6-3.7 8.1-8.7 10.3.3.2 6.8 3.6-1.3 13-.2.1-1.7 1.3-1.2 2.2 1 .3 5.3-3.5 6.5-6.2a12 12 0 0 1 3.7-5.7c2-1.8 11.2-12 14.4-19.4 2.9-7.2 3.6-7.6 9.2-14.8 5.7-7.3 4.7-5.9 5.4-7.5.7-1.7 1.1-4 3.6-6.7 2.6-2.5 12.5-12.5 15.7-16.3 3.2-4 9.5-11.3 12.3-16.8 3.1-5.9 10-13.4 12.1-13.3q2.4 1.5-4.5 10.6l-17 23c-2 2.4-11 13.3-14.4 15-3.4 1.5-3.1 2.8-5.1 6.4a239 239 0 0 1-8.4 13 30 30 0 0 0-5.7 9c-.1 2.5.6 2.6-2.4 7.1a102 102 0 0 1-15.2 16.8c.4.2 5.1 1.5 2.3 7.6-3.5 5.8-3.2 5-3.5 5.4.4 0 8.2-3.2 2.5 7.2 0 0-1.2 2.7 1.6-.4 2.8-3.8 1.8-7 1.4-7.9.1-.1 4.5-4.3 10-5.7 5.3-1.2 5-1.5.3-2.6.3-.4 3-5.6 6.3-4 2.8 2.4 2 3.9-1.1 6.8-3.1 2.7-7.4 4.6-10.8 7.6.3 0 5.8.4 9.7-3.5 3.4-4 3.5-2.6 4-2s.8 1.5-.7 4.9c-1.5 3.2-1.6 3.4-1.6 4 0 .8 0 2.5-3.1 4q-4.8 2-3.4 5c1 2.2 1 6.2-1.6 6.8-2.5-.3-2-2.7-2.9-4-1.1-1-2.3-2.2-7 1.6-4.7 3.7-4.8.4-4.7-1.9-.2.3-2.6 3.6-5.4 1-2.2-3-.4-4.3 1.2-6.2s7-5.8 3.7-5c-3.8 1.1-8.2 2-9.8-1.4-.8-3.6 2.3-3.6 3.1-3.4.8.5 2.8 2.5 3.2-.9.5-3.6 3.6-4.4 2.6-5-1.4-.3-3 1.8-3.7 2.9a5.5 5.5 0 0 0-7-2.5c-4.1 2.3 1.2 1 2.6 1 1 .4.5 2.8-3.4 8.4-3.8 5.2-2.2 3.7.7 3.2 3.3-.4 9.4-1.4 5.8 3.8-4.2 5.3-5.6 7.4-7.9 7.1-1.9-.8.1-2.5 1.2-3.6 1-1 1.6-2.3-.5-1.1-2 1.2-2.6 1.5-4.3-2.2s-1-2.7-.3-5.3c.8-2.8 2.2-5.3.4-4.3-1.9 1.2-1.7 1.2-1.5-1.8-.1-3-2-3.3-2.2-3.3 0 .1.8 2.7.1 4.8s-.8 2.5.5 3 2.5 1.6.8 3.6c-1.8 2-1.6 1.7-.5 2.6 1.3 1 2.7 1.8 1 4.5-1.6 2.6-.3 1.8.7 1.6 1 0 2.7.7 3 3 0 2.5-.2 3 2.7.5 3.4-2.6 8.2-3.1 8.7 0-.1 3.1-.7 3.9 2.4.9 3.4-2.8 4.1 1.4 6.6-1 2.2-3 3.3-5.3 5.9-1.7 2.4 4 1.8 5.1-1.3 8.8-2.9 3.6 1.4.4 3.7-1.6 2.7-2 8.4-4 12.4-2.7 3.7 1.4 4.6.8 7.4-1.3 2.8-2.2 3.9-2.7 8.1 0 4.3 2.7 7 2.7 9.4 2.1 0 0-4.5 3.4-9.6 5.1-5.2 1.8-7.5 3.5-8.6 4.8.1 0 2.7 1.8 3.6 4.8.1 0 3.2-1.2 5-.8 0 .2-.7 3.2 1.2 4.8 2.2 1.3 3.3 1.5 2 4.3-1.3 3 2 .7 0 4.8a17 17 0 0 0-2.8 8.5c0 2.8.4 3-1.5 3.8-1.7 1 .1 3-.6 7-1.2 3.7-6 4.6-6.2 14.2 0 0 1.7-5 4.9-9.9s3.3-5.3 3.3-7.7c-.1-2.5-.2-2 1.5-4.2 1.5-2.4-.5-3.3 1-6.5 1.7-3.1.3-2.1 2.3-5.4 1.7-3.3-1.5-2.5.3-5.9 1.4-3.6-4.4-4.5-3-7 2.2-2.5 5.5-5.3-6.4-2.6.2-.4 2.8-6.6 13-8.1 0 0-2.4 3.1-2.9 5.7 0 0 1.2.5 1.9.6 0 0-.4 2-2.3 4.7.2 0 5 2.8 6.2 5-.1 0-3 2.1-4.1 4.3 0 0 1.3 1.8 1.9 4.6-.3 0-3.3.3-4.1 4-.6 3.9-1.4 1.7-1.6 3.8 0 2.3.1 3-1.1 3.7s-.3 2.1 0 3.4.5 3.8.4 4.8c0 0-1.8.5-2.7 1 0 .3.4 4.7-1.6 6.4-2 1.4 1 1.4-1.1 2.7-2.3 1.1-2 1.2-4.9 8.8l5-5.2c2.3-3-.1-1.5 3.9-8 4-6.7 3.5-6.9 3-9.6-.3-2.9-.3-5 1.1-8 1.6-3.3 2-6 7.3-7.2 0-.2-1.6-4.1-3.5-5.2 0 0 2.6-2.9 5.3-4a23 23 0 0 0-7.2-5.9s3.8-5.7 4.9-8c0 0-1.8.7-3.3.7 0 0 .7-2.3 4.2-6.5a8 8 0 0 1 1.9 4.7c.2-.2 6-6 9.6-7 0 .2 1.6 5.5-6.8 19.3 0 0 5.2-.9 7.5-1.8 0 .2-1.3 5.7-7.6 11-6 5.3 1 6.5-5.2 7.7-6.4 1.3-4.7 3.4-4.3 8 .2 4.6.3 9.2.2 10.5-.4 0-4.7-1-5 5.8-.3 7-2.6 8.9-3.3 9.8 0 0-1.5-1.4-3.8-2.1 0 0-3.4 9-8.5 15.1"/><path fill="#7b3c20" d="M856.5 464.3c.1 0 1.7-.6 4.8 1.3 3.3 1.3 5.7-3.4 2.6-4.7-3.1-1-.1-2.7 3.1-.3s4.1 1 5.4-.6c1.2-1.5 2.3-2.2.3-3.8-1.9-1.7 1.3-1.3 3-.4 1.5 1.2 1 2.5.7 3-.1.6-.5 4.9 2.7.1 3.1-5 4.5-9.3 4.6-11.5 0 .1 1.5 1 1.9 3.6.5 2.4 2.4-1.8 3.3-3.7.8-1.7 2-5.5 2-8.2.2.2 1.8 3.5 5.2-1.4 3-5.1 1.6-2.3 5.4-4.5 3.7-2.5 8.2-7.4 10.9-12.4 2.6-4.8 2.5-2.4 6-4.2a37 37 0 0 0 10.3-14c.6-3.7.6-5.6-.4-4.2s-.6.5-2-.3c-1.5-.4-3.3 2.4-3.4 2.7.1 0 1.8 1.3.5 2.9-1.7 1.7-3 4.6-6 4.8-3.2.3-6 5.2-6.1 5.6.1.1 2.3 1.9-1 5-3.4 3-2.9 3.3-5 2 0 0-3.8 7.2-5.8 9.3 0 0-1 .2-1.7-.8 0 0-2.5 4.2-3.6 5.4-.1 0-1.5-1.5-3-1.9 0 .1-3 5.5-5.3 7.9 0 0-.8-1.6-2.3-2.5 0 .2-1 6.3-6 11.6 0-.1.3-1.6-2.2-3.5-.1.1-6.5 8.6-9 10.2-2.4 1-.3-1.4.2-2.6s1.8-4.2-1.1-5.2c-3-.5-2.7 1.2-3.3 2-.7.4-.7-.6-2.8.1-2 1-1.8 2-2.6 2.7-1.2.5-4.1 0-4.3 3.2.3 3.4 1.6 5-1.3 7.6s1 1.3 5.3-.3"/><path fill="#5a3719" d="M869.4 452.5c0-.3.6-4-1.9-5.8.5-.2 16.4-6.7 4.2-13.2.6-.3 14.3-7.4 11.6-13.6-4-5.6-6.8-3.7-7.6-3.3-.1-.2 3-4.1 4.2-4.3 1.5.4 12.5 3.8 10.1-1-3.1-4.8-2.9-4.5-3.3-6 .1 0 3.7-.8 10 5.5.1 0 1.3-2.1 1.2-5.4.2 0 4.2.5 5.7 1.8 0 0 .7-2.2.5-3.3a13 13 0 0 1 5 4.2c0-.1 1.6-2.6 2-5 .2 0 3.6 1 4.8 2.2 0 0 1-2.5.7-5.7.5 0 5.6.5 7.1-5 .4 0 5.7-.4 2.2 4.4-5.3 6-.5-.8-5.9 6-4.2 5.6-6.4 10.2-8.5 10.3-1.6.4-3 5.5-5.2 3.9-2.1-2.2-2-1.1-3.5 2.4-1.4 3.3-3.5 7-3.5 7s-1.1-.6-2-1.5c0 0-1.2 3-2.7 5.6-.1 0-1.3-1.8-3.2-2.8 0 0-3.2 5.6-5 7.8-.1 0-1.8-1.8-3.7-2.3 0 .3-.5 6.3-4 11-.1-.2-.9-1.9-3.3-2.8 0 0-2 4.4-6 8.9"/><path fill="#5a3719" d="M860.5 444.2c-.1.2-1.8 2.4-.7 4.6 1.4 1.8 1.4-.4 3-1.2 2-.8 22.2-9.3 3.7-13.5 0 0 .8-1 4-2.3 3.7-1.4 14.5-7.7 9.6-12.6-5.9-3.8-9.8 3.7-5.5-3.7 3.4-6.5 1-8.2.8-8.4 0 0-11 12.4-13.4 14.7-2.6 2.6-5.6 6-1.8 7.5 4.4.2 6.6-6.7 7.3-5.8-.2 1.8-7.5 10-7 12.8 1.2 3 1 5.1 3.1 4.4 2.2-.8 7.8-.4 3.2.6-4.7 1-6.2 2.8-6.3 3"/><path d="M868 428.4s-1.9 2.1.6.8c3-1.6 7-3.9 6.7-5.6-1.3-1.3-4 1-7.3 4.8"/><path fill="#7b3c20" d="M901.3 390.7c.3-.1 9.3-2.8 13.7-.7 4 2.5 5.9 4 7 4.3 0 .4 0 4.6-6.3 3.5 0 0 .2 2.2-.4 4.8 0 0-2.2-1.2-4.9-1.5 0 0-.5 2-1.3 3.4-.1-.1-2.7-2.7-5.8-3.2 0 0-.7 2-1.2 2.9-.1 0-3.2-1.4-5.8-1 0 .2.4 2.6 0 4-.3-.3-6.7-5.3-13.2-3.2 0 0 3 5.2 5 7.7-.6.1-12 1.7-10.6-8 2-9.8 0-7.1 8-8.9 8.3-2 15.8-4.1 15.8-4.1"/><path fill="#5a3719" d="M842.2 429.3c-.1.2-1.3 1.7 0 3 1.8.5 6-4.2 7.1-5.4.8-.8 2.4-1.1 0 2-2.5 2.9-5 6-6.5 9 0 0 8-4.5 13.7-11.9 5.4-7.5-.2-2.2 9-10.1 9.3-8.4 14.3-18.7 9.2-17-4.9 2.5-9.5 10.8-13.3 14.7q-6 5.6-5.5 2.7c.9-1.7 3.3-1.7 8.8-8.6 5.3-7 4.3-6.3 4.2-8.4s-1.8-6.4 6-14.2c8.1-7.6 32.6-33.9 35.1-41.7 0 0-7 3.4-16.9 15.6a127 127 0 0 1-17.3 19.6c-2.7 1.8-2.3 1-4 4.1a410 410 0 0 1-13 19.8c-1.7 2.3-2.2 3.5-2.4 7.3-.4 1.8-10.8 14.7-14.2 19.5"/><path fill="#5a3719" d="M875.2 397c-.2 0-1.8 1.4-3.7.8-1.7-1.2-1.2-5.8 3-10.3a90 90 0 0 1 16.2-12.4c0 .1-.6 6.8-13 15.7.1.2.7 3-2.6 6.2"/><path fill="#aa5323" d="M879.5 391.5s.3 1.6 0 3.2a49 49 0 0 0 35-25.6c-.2 0-16.2 7.1-22.9 14 .1-.2 4.2-7.8 16.3-17.4 12.3-9.6 17.1-18.3 18.3-22.7-.2.2-15.4 12.1-22.8 14.5 0 0-1.4.4-2.9 1.9-1.3 1.5-11.3 13.8-13.9 16.2.2 0 5.2-2.1 7.6-5-.1.3-4 14.7-14.7 21"/><path fill="#5a3719" d="M835.4 418c-.2.2-2.6 3-1.7 4.5 1.4 1.2 3.1 1.2 7.8-4.6 4.8-6.3 15.3-20 8.6-20-.5 0-8.2.8-8.6 8.1 0 7.5-5.4 11.3-6 12m-20.5-1.7c.4.3 5.2 3.6 3.6 8 .5-.5 17.3-22.3 12.9-26.9-5.5-3-8.6 4.7-7.8 6 1.5.4 3.6-1.2 3 .4a176 176 0 0 1-11.7 12.5"/><path fill="#5a3719" d="M810.4 410c.2.2 3.5 1.2 4 3.5 1 2 11.2-12.3 8.8-18-2-2.3-7.3-2.6-8.2 2.5.4 5 5.4-1 3.7 2.7-3 5.1-7.4 8.5-8.3 9.4m42-17.3c-.3.2-2.3 2.6-.3 4 2.3.8 3.6-1.3 4.8-3.1 1.2-1.6 6.5-8.3 8-12 1.4-3.9 3-5.3 5.2-7.6 2-2.3 16-15.3 25-28.3 8.7-13.1 5-9.3 14.1-18.9a63 63 0 0 0 17-26s-4.1 3.4-8 7.8c-3.7 4.5-12 14-13.7 15.6-1.7 1.4-3.9 2.3-5.2 4.4-1.2 2.1-1.3 4.1-5.5 10.3-4.5 6.2-27 33.2-29.7 36.7-2 2.7-7.5 10.7-10.2 14.8z"/><path fill="#aa5323" d="M834.1 403c.1 0 2.4-2 7.1-2.5 4.8-1 22.7-27.5 28.3-34 5.3-6 21.8-26.3 24.1-30 2.2-3.6 2.8-6.7 4.6-9.1 2-2.3 3.6-2.7 8.2-7.4 4.7-5.1 25.5-29 24.7-39.3 0 .2-32.1 36.7-39.4 46.9a641 641 0 0 1-31.6 38.3c-3.6 3.9-6.7 9.7-12.7 17.7-6.3 7.9-12 14.4-13.3 19.4"/><path fill="#aa5323" d="M827.4 394.6c.5 0 5.3-1.4 6.7 2.2 0 0 12.5-14 15.7-19.3 2.7-5.5-1-1.9 6.2-9.7s31.2-36.2 34.8-41.4c3.5-5 10-12.2 15.2-18.5 5.5-6.5 25.1-26.3 23.4-37.2L911 293.4c-3.5 3.9-4.7 2.9-8.3 7.4-3.4 4.7-10.8 14-12.3 16.6a309 309 0 0 1-18.4 24c-5.7 6.3-18.2 18.7-24.3 26.9-6 8.2-17.8 23.2-20.3 26.3"/><path fill="#aa5323" d="M809 394.5c.1 0 2.7-.2 3.8 1.2.3-.4 5.1-6.7 11.5-1.4 0-.1 21.3-23.1 23.8-28.7 2.3-5.4 5.6-6.1 14.1-16.1s13.8-15 19.4-22.2c5.6-7.3 10.4-15.2 14.4-19.9 4.2-5 13.7-16.4 12.4-24 0 0-8 8.8-13.6 18.2s-4.7 2.6-10.4 10.5c-5.5 8.1-13.9 19-20.9 25.3s-2.9 4.7-7.8 10.2c-5.1 5.3-4.7 4.6-6.6 5.5-2 1.1-4.6 3.3-6.6 6.6a78 78 0 0 1-12.3 13 214 214 0 0 0-21.3 21.8"/><path fill="#aa5323" d="M815.5 378.4c-.1-.2-1-3 .9-5.8 2-2.7 5.6-9.1 6.4-13.2.6-4 .2-3.3 6.2-7.4a252 252 0 0 0 49-47c2.4-3.1 8.2-10.2 10.6-13.4.1.2 1 3.9-1.4 7.8a468 468 0 0 1-14.1 17.4l-13.6 14.8c-2.8 2.7-9.7 8.8-12.2 12-2.4 3.2-2.2 4-13.2 13s-11.4 9.6-11.1 10.3c.6 0 5-2.9 7.6-5.3 2.4-2.2 11.3-9.3 14-12.6 2.8-3.4 7.3-8.7 9.3-10.6 1.9-1.9 18-18.4 22.8-24.2 4.8-6 5.9-7.4 7-7.1 1.1.5 2.5.2.5 3.4s-8.7 12.6-11.2 15.5a344 344 0 0 1-12.6 13c-2 2-3.1 4.8-4.2 6.4a35 35 0 0 1-9.2 7.7c-4.3 2.4-5.3 6.5-8 9.7-3 3-23.2 20.7-23.9 21.4 0-.1 1.1-1.8.4-5.8"/><path fill="#aa5323" d="M885.9 303.4c-.1.1-1 1.5-.5 2.3 1 .9 3.3 2.6 7.1-3 3.6-5.6 13-18.6 16.1-22.1s4.4-6 4.4-9.5c0 0-14.5 15-27.1 32.3m20-7.2c0-.1 2.3-5.6 7.8-12.3 5.5-6.5 13.6-16.2 14.8-18.3.1.2 1.8 2.1-2.3 7.5L912.4 290c-1 1.4-2.7 3.5-6.5 6.2"/><path fill="#7b3c20" d="M794.2 371.8c-.5.3-5.4 4.4-4 7.5 2.6 2.5 5.3 1.6 6.9.6l4.3-2.2c.6-.3 5.3-2.8 7-6.3a46 46 0 0 1 7.8-10.9c3-3.3 3.8-6 3.5-8zM758 412.2c.2-.2 4-3.1 10.1-1.6 0 0-.3-1.9-1.1-3 .3 0 6.6-2.8 8.7-7.2 1.6-4.4 1.9-3.6 3.3-5 1.7-1.7 10.5-12.1 10-14.8-1-2.2-1.5-5-2.2-6.3 0 0-2 3.9-11.4 10.7s-19.8 11.8-27.5 25.8c-7.6 14.3-7 22 2.4 25.7.2-.1 6.4-5.3 22.5-4.3 16.1 1.5 21.3 8.6 22.5 10.2 1 1.6 4 6.3 1 15.9.3.1 3 1.5 3.6-2.6.3-4.2.4-3.3 1.1-2.7s1.6.6 1.3-2.6-1.5-10-2.9-12.5c-1.3-2.4.1-1.5 1.1-1 1.1.6 4 3.7 2.3-2.8-2.1-6.6-2.5-3.4-2.5-3-.1.5-.4 2-4.9-2s-8.3-6-11.3-7c-2.8-1-1-1 .8-2 2-1 4-1.7 5-4.3-.2 0-1.7.6-5-.7-3.5-1.3-9.3-1-14.8 4.4.2-.7 1.6-7.4-3-7.6-4.9.6-7.9.6-13 6 0-.3-.1-7.7 4.4-12.5 4.8-4.2 4-2 6.7-3 2.6-1.5 2.8-4.4 1.8-5.8.1 0 5.9 1 16.5-11.2-.2.3-5.6 9.9-12.4 12.7 0 .3-1 4.9-7.2 6.7-6 1.8-6 5.8-6 7.4"/><path fill="#5a3719" d="M740.2 461c0-.6 3-23.8 20-26.8 14.9-1.9 19.4.1 22.5 1.3 3.4 1.3 9.5 3.2 7.3 6.9-3 3.3-4.3 2.9-4.4 2.9.2-.4 3-4.6.3-5.8-3-.4-3.2 1.6-3.6 3.9-.4 2.1-.7 4.4-2 6.2-.2-.1-1.4-2-3.7 0-2 2.2-.4 2 .6 1.7s1.8-1 1.7.7c-.3 2-1.4 4.8-5 7.7-3.4 2.7-3.2 2.5-7.4 3.6s-8 3.4-13.4 9.8c-5.7 6.3-11 4.4-12.4-2.7-1-6-.5-9.4-.5-9.4"/><path d="M759.6 460c0-.4 1.4-4.5-1.3-7.1-.5 0-8.3 2-11.6-1.4.2 0 9.5-1 15.7-4.2 5.9-3.7 4.3-5.4 2.2-6-2.4-.3-5.5.8-6.3 3.4 0-.1-1-2.5.3-4.5q2.6-2.9 6-1.5c2.3.8 4 1.8 11-3.4.4 0 3.7 1 4.2 4.8a17 17 0 0 1-.6 5.9c-.4.6-.8 1.5-1.7 1.6-1 0-1.8-.3-3 2.3-1 2.7-1.7 4.8-3.4 6.7 0-.5 1.8-7.4-3.1-9.8-.2.2-4.2 3.3-7.5 3.9.3.4 3.7 4.7-1 9.3"/><path fill="#5a3719" d="M768.9 444.9c-.2-.2-1.8-2.5.6-3.3 2.9-.2 5.6 1.8 5.3 4.2-1 2.2-3.4 2.2-6-.9"/><path fill="#fff" d="M914.6 381.6c-.4.2-4.3 2.9-.4 5.9 4.4 2.7 6.5 5.1 9.7 5.4 3.4.2 6.2.5 6.5 5-.2 4.3-.7 6.2-2.4 9.8-1.5 3.7.7 3.9 3.2 1.5 2.3-2.5 4.2-4.2 5.8-6 1.6-1.6 4-2.5 1.7 0-2.4 2.5-4.7 4.2-1.7 3.3 3.1-1 20.5-7.4 24.6-10.7 4-3.3 8.3-5.8 9-12.7 0-.1.3-3 1.6-5 1.4-1.8 2.5-5 .4-2.2q-3.3 4.5-4 4.1c-.5-.4-.5-.7 1-2.4 1.5-1.5 2.2-1 3.6-4.4s1.3-3 .5-3.7-2-.7-1.5-2.4c.7-1.9 1.7-5.9-1.8-2.3-3.2 4-9.8 12.5-12.7 14.8-3 2.3-5.3 4.3-9.3 7s-6.5 4.9-10.8 9.7c-4.6 4.5-3.9-.2-3.3-1.3.2.2 1.4 3.1 6-3.4s2.9-1.5 13.7-10.4c10.6-9.2 8.2-8.8 12.2-13.6 4.5-5 7.8-6.5 5.3-9.4-3-2.7-3.2-2.9-7 3A69 69 0 0 1 944 381c.5-.5 23.4-23 21.6-25q-4-1.6-6.8-1.6c-1.7.2-2-.1-6 3.8-3.9 4-4.5 4.7-5.6 5.3a43 43 0 0 0-9 7.6c-4.6 5-7 7.1-10.1 10.7 0-.2 2.2-6.3 11.6-13.9 9.7-7.7 14-12.7 13.3-13.2-1.1-.2-3.3.2-5.2 1.2-1.8 1-1.2.3-7 5.6s-3.4 3.7-8 6.7c-4.7 3.1-6.6 5-9 7.2 0 0 1-2 4.2-4.7 1.4-1.5-1.7-1 2.7-2.8q.6-.1 1.2-.5a53 53 0 0 0 11.2-9.7 27 27 0 0 0-12.3 7c-5.7 5.6-3.1 3.5-5.1 4.7a56 56 0 0 0-7.7 8.4c-1.5 2-3.4 3.8-3.4 3.8"/><path fill="#5a3719" d="M773.4 441.2c.1 0 2 .8 2.8 2.9s1.8-1 1.9-2c-.2-1.3-1.2-4.8-3.9-3.1-2.3 2.1-1.3 2-.8 2.2"/><path fill="#7b3c20" d="M767.1 483.9c.2-.1 4.7-3 8.8-3.1 0-.6-1.5-6.9 1.3-6.5 2.7 1.1 2 .8 2.5.6 0 0 0-5-.5-7 0 0 2.8.6 5.8.6-.1-.3-2.5-6.8.2-12.4.1.3 1.7 4.3 5.4 5.6v-4.2c.1 0 2.1-.4 4 .6 2 .4 3-12.9-2-16.4 0 .2-1.2 2.7-6 4.6s-4.8 2.9-6.8 8-3.6 5.3-7.7 9c-4 4-6.5 11-6.7 11.7 0 .1 1.9 3.4 1.7 8.9"/><path fill="#999" d="M928 370.7c1.6-1.2-1.7-.9 2.7-2.8q.6-.1 1.2-.5a53 53 0 0 0 11.2-9.7 27 27 0 0 0-12.3 7c-5.7 5.6-3.1 3.6-5.1 4.8a56 56 0 0 0-7.7 8.3c-1.5 2-3.4 3.8-3.4 3.8-.4.2-4.3 2.9-.4 5.9 4.4 2.7 6.5 5.1 9.7 5.4 3.4.2 6.2.5 6.5 5-.2 4.3-.7 6.2-2.4 9.8-1.5 3.7.7 3.9 3.2 1.5 2.3-2.5 4.2-4.2 5.8-6 1.6-1.6 4-2.5 1.7 0-2.4 2.5-4.7 4.2-1.7 3.3 3.1-1 20.5-7.4 24.6-10.7 4-3.3 8.3-5.8 9-12.7 0-.1.3-3 1.6-5 1.4-1.8 2.5-5 .3-2.2q-3.1 4.5-4 4.1c-.4-.4-.5-.7 1-2.4 1.6-1.5 2.3-1 3.7-4.4s1.3-3 .5-3.7l-1.3-.9c-.1 0-1-.7-2.3.9-1.4 1.7-6.8 7-9 8.5a46 46 0 0 0-8.4 7.7c-4.3 4.6-10 11.7-11.6 7.5l-3.5 3.1c-4.6 4.4-4 .3-3.3-1.3 0 .1-2 4.2-2.2 1.1.3-3.2 1.5-3.2 4.2-5.2 2.9-2.3 6.2-5.4 5-7-2-.8-3.4 2.8-5.4 5-2.2 2-5.2 4-6.2.6-.6-3.7-.5-5.8-5.6-4.8s-4.8-2.8-3.5-5.4c1.4-2.4 2.7-5.6 7.4-8.6"/><path d="M944 398.5s8-8 15.2-13.4c7.3-5.3 1.5-.3.3.7-1.2 1.1-12.5 10.8-15.2 13.4s-2 1-.3-.8m1.9 1.5c.4-.3 8.5-6.7 10.5-6.4 1.5 1 .4.7-1.7 1.8l-8.7 5c-1.4.5-.1-.4-.1-.4m14.2-9.8c.1-.1 1.5-1 1.8-.4q0 1.1-1.6 1.5c-1 .2-1.7 0-.2-1.1"/><path fill="#fff" d="M726.2 536.6c0-.2-.2-10.3 3.5-16 4-5.3 22.8-32.4 26-40 0 0 2.2 2.1 2.5 6.5 0 0 3.3-7.5 5.7-10.5.1.1 2 3 1.9 9.3.1-.1 4.5-3.3 11.7-4 0 .2-2.4 4.4-2.7 7 0-.1 9.8-2 15-1.3-.6.4-13 10.4-9.8 11.9 4 .5 7.7-.5 7.8-.6-.1.2-4.2 6-11.2 8 .4-.1 8.2-.5 10.5 1.8a39 39 0 0 0-15.4 9.8s-.5-.4-.7-3c0 0-.2 2.2-2.1 4.6s-6.6 7.3-8.4 9.7c-2 2.7-5 7-8.5 7.1 0-.2.7-3.3-1.8-4.7q-4.2-1.6-7.6 2.7s-9.2.3-12.1.7c.1-.3 2-4 4-4.3 2.3.2 9 1.4 10.2-5.7.2-7.2-4.5-5.2-2.8-9.5 2.1-4.2 1.7-4 1.7-4.4 0 0-1.6 1.3-2.7 5-1 4-1.8 6.7-5.4 10.5-3.7 3.9-5.1 6-6.2 8.7z"/><path d="M931.7 400c0 .2 1 1.7.5 3-.8 1.4-1.6 2.5-1.3 4 0-.2.6-2.5 3.1-4 2.6-1.5 8.8-6.3 12.9-10s13.2-13.3 16.3-14.8c-.1 0-2.2.2-10.5 8.7a95 95 0 0 1-17.9 14.8c-2.5 1.2-.5-.3-3-1.6m-6.2-11.5s.1.6.8.4 1.4-1.3 1.6-1.5q.3-.3-.5-.8t-1.6.4c-.5.8-.7 1-.3 1.5"/><path fill="#fff" d="M735 530.3s.3-1.3 3-2c2.7-.8 2.8-2.3 2.5-3.2-.5-.7-1.8-.7.6-4.8 0 0 .9.4 1.6 1.3.7 1.4 3.5 9.2-7.7 8.7"/><path fill="#999" d="M728.5 522.8c.8 6.9 6.5 4.6 7 4.5a36 36 0 0 0-5 6c0-3.5-3.5-4.3-3.8-4.3q.6-3.3 1.8-6.3m25-37.8q1.5-2.7 2.1-4.4c.2.1 2.3 2.2 2.6 6.6 0 0 3.3-7.5 5.7-10.5.1.1 2 3 1.9 9.3a26 26 0 0 1 11.7-4c0 .2-2.4 4.4-2.7 7 0-.1 9.8-2 15-1.3-.6.4-13 10.4-9.8 11.9 4 .5 7.7-.5 7.8-.6-.1.2-4.2 6-11.2 8 .4-.1 8.2-.5 10.5 1.8 0 0-2.5.7-5.9 2.5-.1-.2-2.4-2.7-9.8-2.3 0 0 5.7-4.3 10.2-6.2-.2-.3-1.7-3.1-5 0-.4-.4-5.8-5.1-1.2-10.7-.2 0-3.3-.7-6 1.5.1-.2.3-3.6 2.8-5.9-.4 0-6.3-1-8.6 5.8 0-.1-1.2-2.7-.7-6-.1 0-4 3.4-6.1 7 0-.2-.8-6.6-3.3-9.5m-13.4 45q-1.9.6-5.1.4s.2-.8 1.6-1.6c0 .1.4 1 3.5 1.2"/><path d="M752.7 503s3 3.4 4.2 5.4c0 0 2.8-2.9 4-5.1 0 0 2 2 3 4.9 0 0 1.4-1.5 1.9-3.6.1 0 3.7 1 5.2 2.7 0 0 .5-5.2 0-8.5.1 0 2.7.2 4.5 1-.1-.2-1.4-3 6.4-8.2-.2.1-5.7 2.2-8.3 5.9-.2 0-2.4.2-3.7-.8v7.8s-1.5-.8-4.6-1.6c0 0-.7 1.6-1.2 2.1 0 0-1.8-2-2.7-4.6 0 0-3 3.7-4 5.3-.2-.1-2.8-2.4-4.7-2.7"/><path fill="#ffc221" d="M734.6 556.8c.1 0 1.1.7 4.2-2.4 3-3.3 10.8-10.4 12-16.2.3-5.8-2.4-6-5.4-4.4-2.5 2-1.7 4.7-1.5 6 .1 1.1.1 4.8-4.2 10.6z"/><path fill="#ffc221" d="M733.7 558.6c-.5-.3-6.1-3.4-.7-7.9 6-4 8.4-5.1 9.3-8.5.6-3.4.3-2.8-2-1.4-2.6 1.8-9.9 6.3-11.8 1.8.2 0 3.2 1.6 7.8-1 4.5-2.9 7.5-3.6 5-5a43 43 0 0 0-14.2.9c-1.6.6-1.3.5-1.5 2.7-.4 2.3-2.2 6.9-2.8 8.3-.8 1.7-2.1 6.6.7 9.6a9 9 0 0 0 10.2.5"/><path d="M731.1 538.9c-.1 0-1.4.2-1.2 1 .3.8.6.7 1.2.8q1 0 1.5-1c0-.5-.9-1-1.5-.8"/><path fill="#fff" d="M733.3 556.6c-.2-.2-2.9-1.8.4-4.7 3.6-2.7 7.1-5.2 7.8-6.2 0 0-1.7 3.2-8.2 10.9"/><path fill="#1a1a1a" d="M8 195.3c170.8-85.3 341-54.5 513.3-28C676.5 191 833.4 211.8 992 132.7v672c-170.8 85.3-341 54.5-513.3 28C323.5 809 166.6 788.1 8 867.2zm31.3 19.3v604.5c306.5-128.2 611.1 96 921.5-33.7V180.9C654.2 309 349.5 84.9 39.3 214.6" opacity=".2"/></svg>