<svg xmlns="http://www.w3.org/2000/svg" viewBox="0 0 1000 1000"><path fill="#006" d="M8 195c171-85 341-54 513-28 155 24 312 45 471-34v672c-171 85-341 54-513 28-155-24-312-45-471 34z"/><path fill="#bd1021" d="M8 531c328-275 653-120 984-398v672c-171 27-341-62-514-148C323 580 166 506 8 531"/><path fill="#fff" d="M113 492c290-171 584-76 879-323v600c-294 46-578-249-879-277"/><path d="M762 562c7 1 7 9 7 9h23c3-12 6-11 11-6l12 7c3-16 18-15 18-15 7-24 8-24 4-26l-6-7q-6-12-7-21c-1-5-4 2-6 1-1-1-8 1-8 1 1 2-4 1-4 1v3l-6-1-1 3q-6-2-8-1-11 2-14 6-4 2-15 15c-7 8-10 8-10 8-2 9-16 20-17 20-2 3-9 4-13 0-3-5 0-12 0-12 1-4 3-4 3-16q1-12 13-25l19-31q1 8 2 6l6-11v1l4-7q-2-1-14 9c-7 7-10 5-11 5q-5-4-5-7c-2-19 10-33 10-33-17-6-5-35 17-48q12-8 17-14 3-1 4-6l2 5 14-12 18-16 2 7c33-20 66-65 67-66v8l25-30c0 10-5 16-5 16l1 4 18-23c5 5 1 16 0 17l4-4c1 11-8 23-8 24l4-4c-2 13-18 31-18 32q2 4-2 9t-4 9l8-9c1 5-8 18-8 18 7-1 25-18 25-18q-3 16-17 27c-9 7-8 8-8 8 2 0 13-7 13-8-4 13-16 24-16 24q6 2 13-9 7-9 18-17c7-6 12-5 12-5q9-6 11-4c11-3 12 2 12 2l5 2c3 2 3 10 2 15l-1 6-1 4c0 2-2 14-20 21l-29 12c-8 7-4-2-12 10-9 12-13 12-13 12l-16 23q-7 6 0 6 9 0 12-3c-5 6-2 7-2 7 6-7 9-6 9-6 2 7-4 19-4 19l7-2q-3 8-9 14-5 3-2 5v6c-6-3-6 1-6 1l-1 17q-6 0-5 2c-1 7-6 15-6 15q-2-5-3-4-6 13-8 13l1 15q-5 0-5 2-1 1 1 1l42-9q2-1 4 6-3 9-4 8-23 6-47 9l-2 4c-3 2-2-1-3 6-1 8-9 2-10 2l-5 7q-3-13-7-2c-3 8 5 5 6 5l7-3 51-20q5-4 7 3c1 6-6 8-6 9l-57 20q-3 6-6 5 0 6-4 9c-2 2-7 2-7 2-7 7-10 3-10 2q-6 4-11 1-4-5-3-8l-36 7-2 3-3 7q2 1 3 10c0 6-5 7-2 12q5 5 14-4 11-5 15-4l15 4q7 2 6-3 2-6 3-5v5l5-3-2 4c-4 5 1 3 1 2l20-5 18 6 1-7q6 3 5 4l1-6c12 7-3 14-7 17q-5 3-4 4l8-3 9-4c7-3 9 0 10 0l-7 4c3 3 0 6 0 6-6-7-9 2-9 2l8 1 7 3 7 2q3 3 2 6-4-5-5-4c0 5-4 6-4 6 4-8-5-8-10-7q-7 3-8 5c10 10 16 5 16 5-2 5-8 5-9 5l3 5-12-4c-7-5-12-2-12-2 6 9-2 15-3 15-3 4 1 6 2 6-5 1-5-3-5-4l-5 4c0-6 5-4 6-10q2-10-21-5c-16 5-21-2-21-2l-2 2 4 7 1 4q-4-3-3-5l-2 4v5q-3-2-1-8c1-3-4-7-4-7-2-2-7 0-7 0-11 4-17-5-17-5l-4-1c-12 7-21-7-21-8q-13 2-15-9c-3-6-4-6-7-9-4-3-7-11-4-15l2-5c-4-10 8-13 9-16q0-4 5-6 3 1 5-2h5c1-1 7-6 13-4q9 3 10 1l36-9c2-5 3-9 12-13s16-12 16-12q-3-3-6-2l-4-3-14 12c-11 8-11-8-11-8l-22 1-4 10h-9c-4-3-4-13-4-14-25 1-39 12-39 12-28-20-50-27-50-27 34-2 52-15 52-15 19 16 37 16 37 16q3-12 5-11z"/><path fill="#ffc221" d="M721 640c-7 5-5 8-5 10q2 3-1 6l-2 4c1 9 5 11 8 14l4 8q6 9 11 7 3 0 1-2l-4-5 7 8c8 11 14 9 17 8q3-1 2-2l-3-1c-11-2-14-11-14-11 7 9 17 10 20 10l3 1h-4l-1 1 4 1 5 5c5 4 15 0 15 0q-9-4-8-6c-10 1-14-6-14-6l-7-6c-5-4-6-10-6-10q2 5 8 8l5 2-3-1q-4 0-1 1l5 4c11 1 6-4 6-5q11 1 9-2c2 5 7 3 8 3-8 6-2 4-2 4q10-2 9 0l5 2h4q5 3 13 3h5l-7 2q-4 5-18 2l-9-2 4 7 2 2 3-4 7 5v-3q6 4 7 3l1-4 2 2h4l-2-3c5-5 14-4 14-4 7 1 6 6 6 7l4 3v-4q4 5 3 6c4-6-3-11-3-11l10-2q3 0 8 4l8 3-4-3-1-2h4l-10-8 5-3q-9 0-7-1l8-2 9-1c-3-6-13-3-17-2l-5 1q0-2 4-2t8-5q7-4 8-3-3-5-11 2-7 5-8 4 10-5 9-6l-7 2-6 1 8-7-7-2c-5 6-7 9-15 5q-12-6-12-4 11-8 19-1c5 3 6 0 6 0l-1-3c13 7 18 1 20-3 3-3-1-5-1-5q-1 8-9 8l-13-6q-9-1-20 3c-7 3-7 2-8 2q0-3-4-1c-4 2-11-2-17-3q-8-3-20 5c-7 6-10 4-12 3q-4-2-1-8 3-3 2-9-2-7-4-7 5-5 3-7-1-2 3-3v-3l-1-1-7-1c-7-4-12 4-13 4q-5-5-5 0l-4 2q-3 0-5 3v8q-3 2-2 6l-1 5v-6l-3 4 2-6 4-7q-2-1-4 1"/><path d="m729 681-3-9v-6 2l-1 4-2-5-1-6q-1-3-3-1-3 0 3 8l3 7zm17-14 2-7v-10q-1-1 1-3c2-3 0-6 3-11l3-4-7 5c-2 1-11 7-10 12l2 7c0-1-6-4-4-11l3-6c3-3 1 0 6-3l5-7-3 2s-5 2-7 5q-6 5-5 14-3 1-7-9c0 1-9 16 11 25z"/><path fill="#ffc221" d="M836 605c8-2 52-21 56-22q6-4 8 1c1 5-6 7-6 7q-27 12-53 20l-3-1-2-3z"/><path fill="#5a3719" d="M728 645s-6 16 17 21l1-5q2-5 1-11c-2-3 1-2 2-6q-1-4 1-7s-7 4-10 8c-2 5 3 7 0 12q-1 1-5-6-1 2-7-6"/><path d="M750 665c0 1 5 6 12 6q9-1 11-6l1 4c1 0 6-6 16-2l9 4q1-2-14 6c-10 7-35 6-35-12"/><path fill="#5a3719" d="M741 636q0 2 5-3zm-19 31q-3-3-2-6s2-1 2 6"/><path d="M823 693s2-6 9-7c8-1 8 3 17 2 0 1-10 6-18 4q-6-2-8 1"/><path fill="#5a3719" d="M752 670c1 0 11 8 20-2l2 4c0-1 7-10 20-1l-8 4c-8 5-27 9-34-5"/><path d="m793 677 19-1q11-3 8 0c-2 2-1 3 11-1 12-3 0 3 9 4-1 0-20 17-47-2"/><path fill="#5a3719" d="M820 665c1 0 6-3 12-1 5 3 5 3 8 3 0 1-2 5-9 3-6-4-7-4-11-5m7 24s5-4 12-1l5 1q-2 2-11 2zm-29-11s13 0 20-2c0 0-8 6 12 1h5q-2 2 1 2s-15 12-38-1"/><path d="m732 665 3 4q5 3 5 6 1 3 5 5c-1 0-10 3-15-4 0 0-3-5 2-11"/><path fill="#5a3719" d="m813 694-9-2c-6-2-7 0-11-3-3-2-9-1-10 0-2 0-5 0-1-4q-1 1-4-2l-7 2s2 5-8 4q1 2 7 5h7q-1 2 4 5l8 4s1-3-6-9l9 1c5 2 15 4 21-1m3 6q0 2 4 2 5-3 13 0c0-1 1-6-9-5 0 0-6 1-8 3m-84-33c0 1-3 4 0 9q5 5 10 4l-3-4q0-3-4-6zm-4-22s-6 16 17 21l1-5q2-5 1-11c-2-3 1-2 2-6q-1-4 1-7s-7 4-10 8c-2 5 3 7 0 12q-1 1-5-6-1 2-7-6"/><path d="M787 682s5-2 17 3 17 3 18 3c0 0-6 5-17 0z"/><path fill="#ffc221" d="M862 668h4l4-2s-2-2-8 2m-8-7 3-3-3-3zm-92-33 2-2 40-11 3 2q2 3-10 5l-27 7-6 1q-1 1-2-2m36-4s0 6 6 8q6 1 8-5c0-2 2-8 0-9q-2-1-4 1l-3 3q2 3 1 4l-2-2q0-3-3-1zm23-8c2 1 2 8-1 12q-6 5-7 3-3 1 0-3 2-5 1-9l1-2zm2 0q2 0-1 10-1 1 2 1 6-1 7-9l-2-1 1-1q3 1-3-5h-1l-4 4zm5-6 4 4 1 3q3-1 4-6-2-5-5-5-2-1-4 2zm-21 8q2-1-2-4l4-1q4 2 3 4zm8-2 6-1s-2-5-8-3zm7-2 3-4-4-2-3 2zm1-6 3 1 4-4z"/><path fill="#5a3719" d="M713 598c0-1 9-10 14-9 6 1 3 0 9-1l14-2c-1 0-7-6-20-6l-14 9s-11-9-23-5z"/><path fill="#ffc221" d="M811 613h2q2 1 0 4l-1-2zm-11 2q3 0 4-3l5-1q1 1 4-1l3-1 2-1 5-3q4 0 0-3l-1-2 3 2h3q-1-1 3-8l1-4-6 1c-1 1-9 9-14 11q-7 2-12 12m-130-41 18 9s1-3-6-7c0 0 16 1 34 12 0 0 8-9 35-6l1-6c-1 0-19-1-37-16 0 0-16 10-45 14m83 13c-1-21 4-23 5-23h5c0 1-4 8-3 23q1 1-4 2-4-1-3-2"/><path fill="#5a3719" d="m757 599-3-8 2-1q4-1 4 2l3 7z"/><path fill="#ffc221" d="M763 589v-8c0-12 1-11 2-9h3c0-1-2-13-5-6l-2 19 1 7z"/><path fill="#5a3719" d="M796 587s5 1-3 4c0 1 0 14 10 4l11-9 1-3q1-1-2-2h-2l-2-1q-3 0-2 3 2 2 3 1c1-1 4-3 1 1-3 3-5-1-6-3zm-28 3h-3q0 3-2-1l-1 3s3 15 6-2"/><path fill="#ffc221" d="M764 573v16l27-1 1-17-4 1v13h-1v-13h-3v13h-1v-13h-3v13h-1v-13h-3v13h-1v-13l-3 1v13h-1v-13h-3v13h-1v-13zm29 17c0-1-1-18 1-23 3-5 3-4 8-1l11 7q2 0 2 4 1 5-3 1l-4-3c-3-1 1 1 2 3q3 2-1 3z"/><path d="M802 576q-2-1 1-4 2 0 3 8c0 4-3-3-4-4m-3 16q-2 0-2 3c3 0 8-5 6-5zm3-6q2-1 3 1h-2z"/><path fill="#ffc221" d="M816 580s1 6 5 8q1 1 2-3l-1-3-2-2h1l1-1-2-1 1-1 1-2-1-1-1-1q2 1 3-1c0-3-2-1-2-2l2-1q3-2-1-3h2l3-4c1-1 5-5-1-3q-8 4-8 7-2 2-2 14m14 3 2 1q0 3-2 4-2 3-4 1l-2-4 1-1zm-6 0 6-2v-1l-2-1-4 1q-2-1-1 2m0-4 2 2 4-1q2 1 2-2 1-2-1-1l-5 1zm1-5v2l3 1 4-2q1-2-1-1z"/><path fill="#5a3719" d="m901 569 1 3q-28 8-58 11l1-4q28-3 56-10"/><path fill="#ffc221" d="M825 570v2h5q2 1 2-2 1-2-3-1l2-1 2-1q2-2 0-2-4 0 0-1l2-1-1-1h2v-2h3q3-2 5-1 2 2 4-1v-3l2-1q-2-2 0-3c2-2 1-9 0-10l-5 8q-3 11-8 9-7 0-8 3c-1 1 2 1 0 1l-2 2q2 0 0 2l-2 1 1 1zm5 19v1l3-1q2-1 1-2t-4 2m6-25s4-6 9-3l4 4v2q-1 2 1 0 1-1 2 1 2 1-1 1l-5 1q-2 1-2-1l1-3-1 2-2 1q-2 1 0 2l-1 1c-1 1-5 1-1 2 4 0 0 0 2 2q3 5 0 8v1h2q-2 5-7 3l1-1c3-1-2-1-3-1l-2-4q3 0 1-2-3-2-1-2h4l-1-1q-3 1-3-3l3-1q-2-1-2-3 1-3 2-2z"/><path d="M840 566v-1l1-1q3 0 1 2z"/><path fill="#ffc221" d="M844 572v3l1 4c2 2 55-10 56-10q-1-1 2-9s-30 8-59 12"/><path fill="#5a3719" d="m902 567 2-6q2-2 3 2-1 9-4 8z"/><path fill="#7b3c20" d="m838 599 4-7c1 0 9 8 10-1v-5q1 1 4-4l-9 1-3 3q-2 5-7 3h-2q-3 2-1 3zm21-31-5 1-6-7 1-3 3-7q0-3 1-2c1 2 6 7 7 5l1-4q0-2 1-1 2 1 2 7v7s-6-2-5 4m-23-12s3 3 6-2c2-5 3-5 2-9q-2-6 1-8c1-2 2-2 2-9q2-9 5-12c2-2 5-6 0-6-6-1-17-3-20-8-3-6-5-2-5-2q-1 1 2 12 4 12 9 15 5 2 4 9z"/><path fill="#5a3719" d="M851 537s1 13 8 17l1-11 3 1q1-2-3-5c-3-1-2-9-1-11q2-3 0-5-1-2 2-3 4 0 1-3t1-5c2-1 6-4 4-5q-5 0 0-3 6-4 2-4t-1-2q2-4-4-4c-3 1-8 4-4-3 4-6-6 1-2-4 5-5-1-2-2-2q-1 1-1-1 0-4-2-1-2 2-1-2-2-2-3 1-2 3-5 3-1-4-5 0-4 3-2 0c0-2 1-6-4-1-5 6 0-5-4-1q-5 6-5 3 1-3-5 1c-4 4-1-1 0-3 0-1 2-9-2-3 0 1-1 5-5-2 0 0-3 7-5 4q-1-4-3-1-2 2-1-2c-1-2-1-5-8 2-6 8 2 2-2 5-6 4-18 14-7 11 11-2-4 5-1 8 4 1 3 5 17-1 15-7 12-2 20-7 7-6-2 1 8 0 9-2 2-1 3 2q6 6 19 8c8-1 9-5 7 0l-4 9q-4 3-5 12c-1 7-6 9-4 16zm13 13-2-5 2 1s4-7-1-9-3-8-1-9q3 0 1-4-3-2 1-4t2-3l-3-2c1 0 8-6 6-9q-2-1 3-4l3-5-4 1v-4q-3-4-7-2-4 1-1-2 2-3-2-4l3-5q-3 2-7 1l2-4-5 2 1-5-8 6-1-1q1-2-7 2l2-5c2-2 2-5-8 5l-3-5-3 6-1-2q0-2-2 0c-1 1-2 3-2-2q0-7-1-6s-3 6-5 7l-4-7q-1-4-2 2-2 6-3 5l-2-3-1 2-1-7c-1 1-10 9-12 14l-14 1 3-7q-1 1-2-3l3-1c1-1-1-5 2-5 3-1 5 1 3-4v-6l6 3c1-2 0-4 5-3 5 0 3-3 5-4 2 0 3 2 2-11-1-12 6 6 1-12q0-3-4-8s-1 4-4 1c-4-4-10-4-7-7l3-10c0 1-3 5-9 2-5-2-6 2-10 2l4-7c3-4-3 2-5 3q-5 2 2-6c5-5 15-15 14-23 0 0 2 3 9 0q9-4 13-10l8-11q3-3 1 3-2 8-14 18-12 8-14 12c-2 3-9 9-4 8s14-1 10-2c-5-1-9 1-5-4s4-6 10-10 11-12 11-4c-1 8-11 17-14 20l-1 3-2 4v8q2-1 2 2 1 2 3 1l2 1q1 3 2-1 1-5-2-2-4 2-3-1l-1-1q-3 0 0-4 2 0 5-3l3-6-6 6q-2 2-1-4 3-6 7-7 6-1 5 5c-2 5-7 9-5 10h4q2 4 0 8l-3 5s-3-6-3-1v8l5 2c0 1-5 4-3 5q6-1 8-7s-5-1-7-3c0 0 6-3 4-11 1 0 6 1 4 6q-5 5-2 4l3 2q2 0 1 3v4q3-1 1-3c-2-2 2-2 1-4l-3-2c0-1 25-24 12-15 0-1 3-8 6-9q5 1 2 7-2 6-8 10s7 4-2 13l-1 2q3 0 7-6l3-6c2-1 12-12 15-19s3-8 9-15l5-7 4-7 16-16 12-17c3-6 10-13 12-13q3 1-4 10l-17 23c-2 3-11 13-15 15q-3 2-5 7l-8 13-6 9q1 1-2 7l-16 17c1 0 6 1 3 7l-4 6c1-1 8-4 3 7l1-1q3-5 2-8 1-2 10-5 8-2 0-3s3-5 6-4q4 3-1 7l-11 8q3 1 10-4 5-5 4-2 2 1-1 5l-1 4q1 1-3 4-5 2-4 5 2 4-1 7-3-2-3-4t-7 1q-6 4-5-2c0 1-3 4-5 1q-3-4 1-6c2-2 7-6 4-5q-7 2-10-1 0-5 3-4 2 3 3 0l3-6-4 3s-2-4-7-2c-4 2 1 1 3 1q2 0-4 8-5 6 1 3c3 0 9-1 6 4q-5 9-8 7-2-1 1-3 2-3 0-1-3 2-5-2v-6q2-5 0-4-2 2-1-2-1-4-2-3v8q4 0 1 3-3 2 0 3 2 1 1 4-2 3 0 2 2 0 3 3-1 4 3 0 6-4 9 0-2 6 2 1c3-2 4 2 7-1q2-6 6-1 3 5-2 8c-3 4 2 1 4-1q5-4 12-3 5 2 8-1 3-4 8 0 6 3 9 2l-9 5q-8 3-9 5l4 5 5-1q-1 1 1 5 3 1 2 4c-2 3 2 1 0 5q-3 5-3 8l-1 4-1 7c-1 4-6 5-6 14l5-10 3-7 1-5 1-6 3-5c1-4-2-3 0-6 1-4-4-5-3-7 2-3 6-6-6-3 0 0 2-7 13-8q-2 1-3 6h2l-3 5 6 5-4 4 2 5q-1-1-4 4l-1 4q0 3-2 3v4l1 4-3 1q1 3-1 7c-2 1 1 1-2 3-2 1-2 1-4 8l5-5c2-3-1-1 4-8q5-7 3-9-2-4 1-8 1-5 7-8l-4-5 6-4-8-6 5-8-3 1 4-7 2 5s6-6 10-7c0 0 1 6-7 19l8-1-8 11c-6 5 1 6-5 7-7 2-5 4-5 8l1 11c-1 0-5-1-5 6q-2 10-4 9l-4-2s-3 9-8 16"/><path fill="#7b3c20" d="m856 464 5 2c4 1 6-4 3-5q-3-3 3 0 4 3 5-1 4-1 1-4h3v3s0 5 3 0q5-8 5-12l2 4c0 2 2-2 3-4l2-8s2 4 5-1 2-3 6-5q6-4 10-12c3-5 3-3 6-4 4-3 10-11 11-14q0-6-1-5 0 2-2 0l-3 3v3q-2 3-6 4c-3 1-6 6-6 6s3 2-1 5q-3 4-5 2l-6 9h-1l-4 5-3-2-5 8-2-3q1 3-6 12l-3-3-9 10q-2 0 1-3 1-3-2-5-3-1-3 2h-3l-2 3q-2-1-5 3 3 4-1 8-3 2 5-1"/><path fill="#5a3719" d="M869 452q1-1-1-5s16-7 4-14c0 0 14-7 11-13-4-6-7-4-7-3l4-5c1 1 12 4 10-1l-3-6s3-1 10 6l1-6 6 2v-3l5 4 2-5 5 2 1-5s5 0 7-5c0 0 5-1 2 4-5 6-1-1-6 6q-5 10-8 10c-2 1-4 6-6 4q-2-3-3 3l-4 7-2-2-2 6-4-3-5 8-3-3q0 3-4 11l-4-2zm-8-8q-2 1-1 5c1 2 1-1 3-1 2-1 22-10 4-14l4-2c3-2 14-8 9-13-6-4-10 4-5-3q3-10 0-9l-13 15q-6 4-2 7c5 0 7-6 8-5-1 1-8 9-7 12q0 5 3 5h3q-7 2-6 3"/><path d="M868 428s-2 3 1 1q6-3 6-5-2-2-7 4"/><path fill="#7b3c20" d="M901 391c1 0 10-3 14-1l7 4c0 1 0 5-6 4l-1 5-5-2-1 4-6-4-1 3-6-1v4s-6-5-13-3l5 8s-12 1-10-8c1-10-1-7 8-9z"/><path fill="#5a3719" d="M842 429v3c2 1 6-4 7-5q3-2 0 2l-6 9s8-5 14-12c5-7-1-2 9-10 9-8 14-19 9-17s-10 11-14 15q-6 5-5 2c1-1 3-1 9-8 5-7 4-7 4-9s-2-6 6-14 32-34 35-42q-1-1-17 16l-17 20q-3 1-4 4l-13 20q-2 2-3 7c0 2-10 15-14 19m33-32-3 1q-4-3 3-10c4-5 12-11 16-13 0 0-1 7-13 16q1 1-3 6"/><path fill="#aa5323" d="M880 392v3s22-3 34-26c0 0-16 7-22 14q-1-2 16-17 17-16 18-23s-15 12-23 15l-2 1-14 17 7-5s-4 14-14 21"/><path fill="#5a3719" d="m835 418-1 5q1 3 8-5c4-6 15-20 8-20 0 0-8 1-8 8-1 8-6 11-7 12m-20-2c0 1 5 4 4 8 0 0 17-22 12-27-5-3-8 5-7 6l3 1zm-5-6q3 0 4 4c1 2 12-13 9-18q-5-5-8 2c0 5 5-1 4 3q-6 8-9 9m42-17q-2 1 0 4 3 0 5-3l8-12q2-6 5-8c2-2 16-15 25-28s5-10 14-19q14-15 17-26l-8 8-13 15-6 5-5 10-30 37-10 14z"/><path fill="#aa5323" d="m834 403 7-3c5 0 23-27 28-33l25-30 4-10q3-1 8-7c5-5 26-29 25-39 0 0-32 36-39 47l-32 38-13 18q-10 11-13 19m-7-8c1 0 6-2 7 2 0 0 13-14 16-20 3-5-1-1 6-9l35-42 15-18c5-7 25-26 23-37l-18 22c-4 4-5 3-8 8l-13 16c-1 3-12 18-18 24l-24 27zm-18-1 4 2c0-1 5-7 11-2 0 0 22-23 24-28 2-6 6-6 14-17l20-22 14-20c4-5 14-16 12-24 0 0-8 9-13 19-6 9-5 2-11 10-5 8-13 19-20 25-7 7-3 5-8 11-5 5-5 4-7 5q-3 1-6 7l-13 13c-5 5-19 17-21 21m6-16q-1-1 1-5l7-14c0-4 0-3 6-7a252 252 0 0 0 49-47l11-13q1 1-2 7l-27 33-13 12c-2 3-2 4-13 13l-11 10 8-5 14-13 9-11 23-24q6-8 7-7 2 0 0 4l-11 15-13 13-4 6q-2 4-9 8-5 4-8 10l-24 21zm71-75-1 3q2 3 8-3c3-6 13-19 16-22q4-5 4-10s-14 15-27 32m20-7 8-12 15-18q2 0-3 7l-14 17z"/><path fill="#7b3c20" d="M794 372s-5 4-4 7q4 4 7 1l4-2c1-1 6-3 7-7l8-10q4-5 4-9zm-36 40s4-3 10-1l-1-3s7-3 9-8c1-4 1-3 3-5 2-1 10-12 10-14l-2-7q2 0-12 11c-9 7-19 12-27 26q-12 21 2 26c0-1 7-6 23-5 16 2 21 9 22 10 1 2 4 7 1 16 1 0 3 2 4-2q0-5 1-3t1-3c0-3-1-10-3-12q-1-3 1-1c2 1 4 4 3-3-2-7-3-3-3-3q1 3-5-2-6-6-11-7-3-1 1-2l5-4-5-1q-6-3-15 4s2-7-3-7q-7 0-13 6s0-8 4-13c5-4 4-2 7-3q4-2 2-5s6 1 16-12c0 1-5 10-12 13 0 0-1 5-7 7q-7 4-6 7"/><path fill="#5a3719" d="M740 461c0-1 3-24 20-27 15-2 20 0 23 1 3 2 9 4 7 7q-4 5-4 3s3-4 0-6q-4 1-4 4 1 4-2 7 0-2-3 0-2 3 0 1 2-1 2 1 0 3-5 8l-8 3q-5 1-13 10-10 9-12-3z"/><path d="M760 460s1-5-2-7c0 0-8 2-11-2 0 0 9 0 15-4q8-4 3-6-5 0-7 4-1-1 1-5 2-3 6-1c2 0 4 2 11-4l4 5-1 6-1 2q-2-1-3 2l-4 7c0-1 2-8-3-10l-8 4c1 0 4 4 0 9"/><path fill="#5a3719" d="M769 445q-2-2 0-3 5-1 6 4-2 3-6-1"/><path fill="#fff" d="M915 382c-1 0-5 2-1 5q6 5 10 6 5-1 6 5 1 5-2 10-1 5 3 1l6-6q4-2 2 0-6 4-2 4l25-11q7-3 9-13l1-5 1-2-4 4q-2 0 1-2c1-2 2-1 3-5l1-3q-2-1-2-3c1-2 2-6-2-2l-12 15-10 7q-5 3-10 9c-5 5-4 0-4-1 0 0 2 3 6-3 5-7 3-2 14-11s8-9 12-13q9-6 5-10-2-5-7 3c-4 6-14 17-20 20 1-1 23-23 22-25l-7-2q-2 0-6 4l-6 5-9 8-10 11q-2-1 12-14l13-13-5 1-7 6-8 6-9 7 4-4c1-2-2-1 3-3l1-1 11-9q-2-1-12 7l-5 4-8 9z"/><path fill="#5a3719" d="m773 441 3 3q2 1 2-2c0-1-1-5-4-3z"/><path fill="#7b3c20" d="M767 484q2-2 9-3c0-1-2-7 1-7l3 1-1-7h6v-12q0 2 6 6v-5l4 1c2 0 3-13-2-16l-6 4q-6 2-7 8-2 6-8 9c-4 4-6 11-7 12z"/><path fill="#999" d="M928 371c2-1-2-1 3-3l1-1 11-9q-2-1-12 7l-5 4-8 9-3 4c-1 0-5 2-1 5q6 5 10 6 5-1 6 5 1 5-2 10-1 5 3 1l6-6q4-2 2 0-6 4-2 4l25-11q7-3 9-13l1-5 1-2-4 4q-2 0 1-2c1-2 2-1 3-5l1-3-2-1h-2l-9 9-8 8c-5 4-10 11-12 7l-3 3c-5 5-4 1-4-1 0 0-2 4-2 1q1-3 4-5 6-4 5-7-2 0-5 5-4 4-6 1 0-6-6-5-7 0-3-6 0-3 7-8"/><path d="m944 398 15-13zm2 2s8-7 10-7q3 1-1 2zq-1 1 0 0m14-10h2l-2 1z"/><path fill="#fff" d="M726 537c0-1 0-11 4-16 4-6 23-33 26-40l2 6 6-10 2 9 12-4q-2 1-3 7s10-2 15-1c-1 0-13 10-10 11h8s-4 6-11 8c0 0 8-1 10 2 0 0-8 2-15 9l-1-3-2 5-9 10q-2 6-8 7 1-1-2-5-4-2-7 3l-13 1 4-5c3 0 9 2 11-5 0-8-5-6-3-10l2-4-3 5q-1 5-6 10l-6 9z"/><path d="M932 400v3l-1 4q-1-1 3-4 6-3 13-10l16-15s-2 0-10 9l-18 15c-3 1-1-1-3-2m-6-11 2-1-1-1h-1z"/><path fill="#fff" d="m735 530 3-2q4-1 2-3l1-5 2 2c0 1 3 9-8 8"/><path fill="#999" d="M729 523c0 7 6 4 6 4l-4 6c0-3-4-4-4-4zm25-38 2-4 2 6 6-10 2 9 12-4q-2 1-3 7s10-2 15-1c-1 0-13 10-10 11h8s-4 6-11 8c0 0 8-1 10 2l-6 2q1-2-10-2l11-6q-1-3-5 0c-1-1-6-5-2-11q-1-1-6 2l3-6s-6-1-8 5l-1-6-6 7zm-14 45h-5l2-1z"/><path d="m753 503 4 5 4-5 3 5 2-3 5 2v-8l4 1s-1-3 7-8c0 0-6 2-8 5h-4v8l-5-2-1 2-3-5-4 6q0-2-4-3"/><path fill="#ffc221" d="m735 557 4-3c3-3 11-10 12-16q-1-8-6-4-2 3-1 6 1 2-4 10zm-1 2c-1-1-6-4-1-8q8-4 9-9 2-4-2-1c-2 2-10 6-12 2q2 1 8-1 8-4 5-5h-14q-2 1-1 3l-3 8q-2 4 0 10 6 4 11 1"/><path d="m731 539-1 1 1 1 2-1z"/><path fill="#fff" d="M733 557c0-1-3-2 1-5l8-6z"/></svg>