<svg xmlns="http://www.w3.org/2000/svg" viewBox="0 0 1000 1000"><path fill="#fff" d="M8 867.3c170.8-85.3 341-54.5 513.3-28C676.5 863 833.4 883.9 992 804.8v-672c-170.8 85.2-341 54.4-513.3 28C323.5 136.7 166.6 116 8 195.1z"/><path fill="#ce0f25" d="M699.7 611.7c11.2 27.8 6.5 48.7 0 69.4 16.6-5.4 50.3-21.2 46.7-42.3-7.6-17.9-29.6-22.6-46.7-27"/><path fill="#221b0f" d="m699.3 612-.4-1 1 .2 1.1.3a174 174 0 0 1 26.5 8.5c9.8 4.7 16 10.6 19.4 18.6q2.7 14-15.9 27.7a114 114 0 0 1-31 15.3l-1 .4.2-1q6-19 6.6-32a87 87 0 0 0-6.5-37m1.3.5a88 88 0 0 1 6.3 36.6q-.8 12.8-6.3 31.2 17.5-6 29.8-14.9c12.1-9 17-17.5 15.5-26.5A35 35 0 0 0 727 621q-8.4-3.8-26.2-8.4z"/><path fill="#faf8f0" d="M642.2 725c10.2-2.5 17.2-5.5 34.2-6.8 7-.4 25.7 1.6 36.7-1.4 10.7-3.1 16.3-6.1 17-11.6.5-9.7 3.5-20.7 7.2-30.8 5.4-14.3 11.6-26 12.7-29.9.8-3.8-.6-7-3-10.6-9.5-13-29.8-22.6-48.3-23.6l.7 3.2c14.6 1.2 41.8 12.2 44 26.7 2 23.3-69.6 23.4-110.1 27.2a40 40 0 0 0-13.9 4.8c-2.5 2.8-3.6 8.6-1.2 12 18.3 20.2 24 40.6 24 40.7"/><path fill="#221b0f" d="M642.3 725.5h-.5l-.1-.5q-1.5-5.1-5-12.8-7.5-15.3-18.8-27.7c-1.4-1.7-1.8-3.6-1.5-6.6q.5-4 2.6-6c2.6-2.3 7-4 14.2-5l33.6-2.3c25.5-1.7 43.1-4.4 53-7 16.3-4.4 23.6-10.2 23-17.3-1-6.7-6.3-12.2-17-18q-14.2-7.3-26.4-8.2h-.4l-1-4.4h.7q13.9.8 27.8 7.4 13.8 6.8 21 16.5c2.8 4.3 3.7 7.6 3 11q-.4 1.8-3.8 9.2-6 12.7-8.9 20.8-6.5 17.8-7.2 30.7c-.6 4.8-5.9 8.6-17.3 12q-7.4 2.1-26.6 1.6l-10.2-.2a144 144 0 0 0-27 4.9zm.2-1.2 6.6-1.7q14.4-4 27.2-5l10.4.2q19 .5 26.3-1.5c11-3.3 16-6.8 16.5-11.1q.8-13 7.3-31 3-8 9-20.8 3.3-7.4 3.7-9c.6-3.1-.2-6.2-3-10.2a54 54 0 0 0-20.4-16.1q-13.4-6.4-26.8-7.3l.5 2.2q12.3 1 26.5 8.4c11 5.9 16.6 11.7 17.6 18.7.6 7.8-7 14-23.9 18.6-9.8 2.5-27.5 5.3-53 7l-33.6 2.2q-10.2 1.6-13.6 4.8-1.9 1.7-2.4 5.4c-.3 2.7 0 4.3 1.2 5.7a118 118 0 0 1 24 40.5"/><path fill="#f6e4be" d="M743.3 653.8c-27.4 18-63.3 17.6-95.5 17.5l-20.4 19 18.7 30.1 5.8-1.3c7-1.6 18.5-4 25.7-4.7 7.6-.6 16.1.8 23.7 0 6.7-.8 12-.2 16.6-5 4.9-6 5-16.4 7.5-23.8 1.8-4.6 4.4-8.5 8-14a212 212 0 0 0 10-17.8"/><path fill="#ce0f25" d="M632.4 736c4.6-24.3-10.3-35.5-18.9-51.6 0 0 9 4.7 13.8 6 8.9 2.2 14 2.6 27 1.6 10.6-1 19.2-5.3 26.7-1.6q1.5 1 2 3c.2 3.7-1.5 6.8-3.6 9.8-11.4 15.3-46.8 32.7-47 32.8"/><path fill="#221b0f" d="M631.9 735.8c1.5-8 1-15.1-1.5-22.2a93 93 0 0 0-9.8-17.1 135 135 0 0 1-7.5-11.9l-.8-1.4 1.4.7q9 4.7 13.6 6a89 89 0 0 0 36.7 0q12.1-2.6 17.2 0 1.9 1.1 2.3 3.4.5 4.4-3.6 10.2A101 101 0 0 1 652 726a234 234 0 0 1-19.5 10.6l-1 .4zm1.2-.8q8.5-4.2 18.4-10a100 100 0 0 0 27.5-22.2c2.7-3.8 3.7-6.6 3.4-9.4q-.2-1.8-1.6-2.5c-3.3-1.6-8.5-1.6-16.5 0a87 87 0 0 1-37.1 0q-4.4-1.1-12.4-5.3 2.3 3.9 6.6 10.3 7.5 11 10 17.4 3.7 10.3 1.7 21.7"/><path fill="#ce0f25" d="M300.2 564.3c-11.2 26.8-6.5 48 0 69.4-16.7-7-50.2-23.6-46.6-44.2 7.6-18.3 29.4-22.3 46.6-25.2"/><path fill="#221b0f" d="M300.7 564.5A83 83 0 0 0 294 601q.8 13 6.6 32.5l.3 1-1-.4a149 149 0 0 1-31-17c-12.6-9.6-17.6-18.2-16-27.7v-.1a35 35 0 0 1 19.5-18.5 123 123 0 0 1 26.4-6.9l1.2-.2 1-.1zm-1.4.5h-.2q-17.9 3.1-26.2 6.8a34 34 0 0 0-18.8 17.8c-1.6 9 3.3 17.4 15.4 26.6q12.4 9 29.9 16.5A145 145 0 0 1 293 601a84 84 0 0 1 6.3-36"/><path fill="#faf8f0" d="M357.8 686c-10.3-4.4-17.3-8.8-34.3-12.5-7-1.4-25.8-1.6-36.7-5.2-10.7-3.8-16.3-6.8-17-12.3a112 112 0 0 0-7.2-31c-5.4-14.3-11.6-25.8-12.7-29.7-.8-3.8.6-7.1 3-10.7a60 60 0 0 1 48.4-21.7l-.8 3.2c-14.6-.2-41.7 9.8-44 24.7-1.8 20.6 69.2 27 110.1 39.6.2 0 10 3.9 14 8 2.4 3.3 3.5 9.4 1 12a83 83 0 0 0-23.9 35.7"/><path fill="#221b0f" d="m357.6 686.6-7.2-3.3q-14.2-6.5-27-9.3-2.3-.5-10.2-1.2a133 133 0 0 1-26.6-4c-11.4-4.1-16.7-8-17.2-12.8q-.9-12.9-7.3-30.7-3-8-8.9-20.8a95 95 0 0 1-3.8-9c-.7-3.5.2-6.9 3.1-11.2q7-10 21-16.4 13.8-6.2 27.8-5.5h.6l-1 4.2h-.4a58 58 0 0 0-26.4 6.6c-10.7 5.4-16 11.1-17 17.7-.6 7.2 6.7 12.6 23 17.8 9.9 3 27.5 6.9 53 12.6q23.8 5.5 33.6 8.6A36 36 0 0 1 381 638q2 2.5 2.6 6.7.7 4.4-1.5 6.2a83 83 0 0 0-23.8 35.4v.5zm-.2-1.2q1.5-4.9 5-11.5 7.4-13.9 19-23.9 1.5-1.4 1.1-5.3a12 12 0 0 0-2.4-6 35 35 0 0 0-13.6-7.8q-9.8-3.1-33.5-8.5c-25.6-5.8-43.3-9.6-53.1-12.7-17-5.4-24.5-11-23.9-19 1-7 6.6-13 17.6-18.5a59 59 0 0 1 26.5-6.7l.5-2q-13.4-.6-26.7 5.4a50 50 0 0 0-20.5 16q-4 5.8-3 10.3.5 1.5 3.8 8.9 6 12.7 8.9 20.8 6.6 18 7.3 31c.5 4.3 5.6 8 16.5 11.9q7.3 2.3 26.3 4 8 .6 10.4 1.2a132 132 0 0 1 27.2 9.3z"/><path fill="#f6e4be" d="M256.6 604.4c27 17.6 63.6 21 95.5 27l20.4 23.2-18.7 26.2s-20.7-8.8-31.5-11.3c-7.6-1.7-16-1.3-23.7-2.8-6.7-1.3-12-1-16.6-6.1-4.9-6.2-4.9-16.6-7.5-24.1-1.7-4.7-4.4-8.7-8-14.2-5.5-9-10-17.9-10-17.9"/><path fill="#ce0f25" d="M367.6 699.2c-4.7-25.4 10.2-33.3 18.8-47.3 0 0-9 2.5-13.7 2.8-9 .2-14-.5-27-3.8-10.7-2.9-19.3-8.5-26.8-5.8q-1.5.8-2 2.6c-.2 3.7 1.5 7.1 3.6 10.3 11.1 16.4 47 41 47 41.1"/><path fill="#221b0f" d="m368 699.1.3 1.2-1-.7q-9-6.3-19.4-14.5-20.9-16.4-27.8-26.8-4.2-6.4-3.7-10.7.4-2.2 2.3-3c3.6-1.3 9-.6 17.2 2.4a105 105 0 0 0 36.7 7.1q4.6 0 13.6-2.7l1.4-.5-.8 1.3q-2.2 3.6-7.4 10.1a68 68 0 0 0-9.9 15q-3.8 9.5-1.4 21.8m-1.3-1q-2-12 1.7-21.4 2.5-5.9 10-15.1 4.4-5.4 6.6-8.8a58 58 0 0 1-12.4 2.5 106 106 0 0 1-37.1-7.3c-8-2.9-13.1-3.6-16.5-2.4q-1.4.5-1.6 2.3-.4 3.9 3.4 9.8c4.6 7 13.7 15.6 27.5 26.6q9.9 7.7 18.4 13.7"/><path fill="#faf8f0" d="M328.4 726c-4.7-3.4-9.8-6.9-13-11.6-2-3.5-2.8-7.6-2-11.4a91 91 0 0 0 .6-49.5c-1.3-5.7-2.5-13 4-12.7 16.5 2.1 35 9 48.4 10 5.8.4 13.1.3 14.3-5.7 0-7.4-16.8-15.3-17.3-15.6 11 2.6 19.4 8 22.7 14.9q1.6 4.7-.9 8.6c-3.4 4.3-9 5-14.7 5.1a182 182 0 0 1-40.5-7.4c-4.9-1.4-6.4-2.1-7.3-1.6-2 1.8.6 5 7.4 12a283 283 0 0 0 45.6 37C420.2 728 453.8 741 500 748.2c46 7 79.9 4.5 124.2-15a180 180 0 0 0 45.6-28.3c6.8-6 9.3-9 7.4-11-1-.6-2.4-.1-7.3.5a141 141 0 0 1-40.5-.1c-5.7-1.4-11.3-3.4-14.7-8.5-1.6-2.8-2-6.1-1-8.9 3.4-6 11.8-9.4 22.8-9.7-.6.2-17.3 4.4-17.3 11.7 1.2 6.3 8.5 8.2 14.3 9 13.4 1.8 31.9-1.7 48.5-1.6 6.4.6 5.2 7.6 4 13.2a91 91 0 0 0 .5 49.6q1.1 6-2 11c-3.2 4.5-8.2 7.2-13 10A262 262 0 0 1 500 802c-55.9-8.7-117-36.3-171.6-76"/><path fill="#221b0f" d="m328.2 726.5-1.9-1.3a46 46 0 0 1-11.3-10.5 15 15 0 0 1-2-11.9q3.8-15 3.6-26.3 0-9.2-3.2-23-1.1-5.6-.9-8.7c.7-3.5 2.1-4.7 5.5-4.5q7.5.9 23.1 4.8 18 4.6 25.3 5.2c8.9.5 13-1 13.8-5.3 0-3-2.3-5.9-8-10a70 70 0 0 0-9-5l.3-1c12.3 2.9 19.6 7.8 23.1 15.2a9 9 0 0 1-1 9.2c-2.6 3.3-7.3 5-15 5.3q-13 0-40.7-7.5l-3.6-1q-3-1-3.3-.7-1.1.9.5 3.3t7 8q17.9 18.4 45.5 36.9a342 342 0 0 0 61.3 33.5 291 291 0 0 0 62.7 16.5q35.2 5.4 62.6 2.4 28.8-3.2 61.4-17.5a180 180 0 0 0 45.4-28.1q5.4-4.8 7-7 1.5-2.1.5-3.2-.4-.3-3.3.2l-3.6.5q-27.7 3.1-40.6-.2c-7.8-2-12.5-4.8-15.1-8.7-2-3.7-2.4-6.4-1-9.4 3.5-6.7 10.8-9.7 23.1-10l.3 1q-4.5 1.2-8.9 3.2c-5.8 2.7-8.1 5.1-8 8 .7 4.5 4.8 7.1 13.7 8.5q7.3 1 25.3-.3 15.6-1.3 23.1-1.3c3.4.2 4.8 1.6 5.5 5.1q.4 3.2-1 8.7-3 13.3-3.1 22.5-.1 11.5 3.7 26.9c1 4.2.3 7.7-2 11.5a36 36 0 0 1-11.4 9l-1.8 1A260 260 0 0 1 500 802.7a344 344 0 0 1-86.5-26.5q-45-20.1-85.4-49.7m.6-.9a469 469 0 0 0 85.1 49.7q43.8 19.7 86.2 26.4 42.3 6.6 86-1 45-7.8 85.2-31.1l1.8-1q8.4-5 11-8.7c2.2-3.6 2.8-6.8 2-10.7a113 113 0 0 1-3.8-27.2 111 111 0 0 1 3.2-22.7q1.3-5.4 1-8.3-.7-4-4.4-4.1-7.5 0-23 1.3a135 135 0 0 1-25.5.3c-9.5-1.5-14-4.5-14.8-9.5-.2-3.5 2.4-6.2 8.6-9.1l4.7-2c-9.3 1-14.8 3.9-17.8 9.3-1.2 2.8-.9 5.1 1 8.4 2.4 3.6 6.8 6.2 14.3 8.2q12.7 3.2 40.3.1l3.6-.5q3.4-.5 4.2.1 1.8 1.8-.4 4.7a60 60 0 0 1-7 7.1q-18.1 15.9-45.7 28.3a212 212 0 0 1-61.7 17.6q-27.4 3-62.8-2.5a293 293 0 0 1-63-16.5q-29-11.7-61.5-33.6a285 285 0 0 1-45.7-37q-5.5-5.7-7.1-8.2c-1.5-2.4-1.6-3.7-.4-4.8q.9-.5 4.2.5l3.6 1a164 164 0 0 0 40.3 7.5c7.5-.3 12-1.8 14.4-5a8 8 0 0 0 .9-8c-3-6.1-8.5-10.4-17.8-13.3q2.4 1.2 4.7 2.9c6.2 4.3 8.8 7.6 8.6 11-.8 5-5.3 6.8-14.8 6.2a183 183 0 0 1-25.5-5.2q-15.5-4-23-4.8-3.7-.5-4.3 3.6-.4 3 .9 8.4 3 13.7 3.2 23.1a107 107 0 0 1-3.8 26.7c-.8 3.8-.2 7.1 2 11q2.6 4 11 10z"/><path fill="#f6e4be" d="M677 762a20 20 0 0 0 4.4-6.6c1.5-7.8-2.1-16.2-2.4-24.4-.2-8.8 1.4-26.1 1.4-26.1-21.9 19.9-79 66-180.4 50.5-97.8-15.4-159.7-74.1-180.5-95.8 0 0 1.6 17.6 1.4 26.3-.3 8.2-3.8 16-2.4 24.1 1 3.3 4.3 7.2 4.4 7.3 55.6 40.4 114.9 71.5 177 81.3 62.5 9.5 121.4-3.8 177.1-36.5"/><path d="M392 740.3c2.2-5.5 7.9-10.3 18-5.7 8.4 4.3 11.6 10.8 9.2 18.3-2.9 7.3-9.6 10.2-18.3 6.3-9.5-5-10.8-13-9-18.9m22.2 11.5c2.4-7.3 0-13.2-5.6-16.2-4-1.8-8.5-2-11.6 6-2.2 6.8-.4 13.2 6 16.7 2.5 1.1 7.6 2.5 11.2-6.5m11.8 1.3 1.6-7c.2-1.2 0-1.7-1-2.4l-1.3-.6q-.6-.2-.5-.5 0-.4.8 0l5 2 4.2 1.5q.8.2.6.6 0 .3-.6 0l-1-.2q-1.3-.3-1.7 1.4l-1.8 7-1 4.5c-1.1 5-.7 7 .6 9.2a8 8 0 0 0 4 3 7 7 0 0 0 5 0c2.3-1.3 3.1-3.8 4-7.4l1-4 1.6-7c.2-1.3.1-1.8-1-2.5l-1.2-.6q-.5-.2-.5-.5.1-.4.8 0l3.9 1.6 3.9 1.4q.8.2.6.6 0 .3-.6 0l-1-.2q-1.3-.3-1.8 1.3l-1.7 7-.9 3.5c-1 3.8-2.2 7-5.6 8.6-3 1-5.3.5-7.7-.4a14 14 0 0 1-7-5.2c-1.3-2.3-2-5-.9-9.9zm30.4 18.7q-.2 0-.3.2l-2.6 4-.8 2q-.1.9 1.2 1.5l.6.1q.6.1.5.4t-.7.2l-3.6-1.2-4.2-1q-.6-.2-.6-.6 0-.2.5-.2l1 .3c1.8.1 2.5-.6 3.5-2.2l11.7-18.5q.7-1.1 1.1-1 .4 0 .7 1.3l5.7 23.2c1 3.4 1.8 4.1 2.5 4.6l1.4.6q.5 0 .4.4.2.4-1.6-.2l-6.5-2q-1-.2-1-.6t.5-.2q.5 0 .4-.6l-1.8-7.9-.3-.3zm7.3.4.2-.1-1.9-9.3-.1-.4-.3.3-4.4 7.3.1.3zm18.1 10.8c0 2.8.4 3.6 1.1 4q1 .5 1.8.7.6 0 .6.3 0 .4-.8.2l-4.3-.9-3.8-.6q-.7-.1-.8-.5 0-.2.6-.2l1.6.2c.9-.3 1-1 1.2-4.2l1-20.4q0-1.1.6-1 .4 0 1.2 1.2l10.5 13.2 7.4 9.4h.2l.2-15.7c0-2.2-.3-2.8-1.1-3.3l-1.9-.6q-.6 0-.5-.4 0-.3.9-.1l4.2.9 3.5.5q.6.1.8.5 0 .3-.7.2l-1-.1c-1 .1-1.3.7-1.4 2.7l-1.2 21.9q0 1.1-.5 1l-1.2-1-10-12.2-8-10.3zm33.4 1.1-.3.3-1.5 4.7q-.4 1.3-.4 2 0 1 1.5 1.3h.5q.7 0 .6.3 0 .5-.6.3c-1.1 0-2.6-.3-3.7-.4-.4 0-2.3 0-4.1-.2q-.7 0-.7-.4 0-.3.4-.2h1c1.7-.2 2.2-1.2 2.8-3l7.2-21.1q.5-1.4 1-1.4.2 0 .9 1.2l10.1 22.1c1.7 3.3 2.6 3.8 3.4 4.1l1.4.3q.5 0 .5.3c0 .3-.2.3-1.6.2l-6.6-.6q-1 0-1-.3-.1-.4.4-.3.5-.1.3-.8l-3.3-7.5q-.1-.2-.4-.3zm7-1.2q.3 0 .2-.2l-3.7-9-.3-.3-.1.3-2.6 8.4.1.3zm20.7 1.2c.7 4.6 1.1 6.8 1.9 7.6.7.5 1.5.7 4.3.7q2.7.2 3.9-1 .5-1 .5-2.2 0-.5.3-.5.4 0 .4.6c0 .4.2 3 .1 4s-.2 1-2 1H540l-2.4.1q-.6 0-.7-.3t.5-.3l1.2-.2q.9-.2.7-2c0-1.4-.4-4.2-1-7.5l-.9-6.2-1.2-7.5c-.2-1.2-.5-1.7-1.7-2l-1.2-.1q-.6 0-.6-.3 0-.4.7-.3h4.7l4.7-.1q.7 0 .8.3 0 .3-.6.3l-1.3.1c-1 .3-1 .8-1 2l1 7.6zm19.3.4q-.2 0-.3.3l-.7 5v2.2q.1 1 1.6 1l.5-.1q.5 0 .6.2 0 .4-.5.4l-3.7.3-4 .5q-.6 0-.7-.3t.4-.3l1-.2c1.5-.5 1.9-1.5 2.2-3.5l3.5-22.6q.2-1.6.6-1.5.5-.1 1.2 1l13.3 20.4c2 3 3 3.4 3.9 3.5h1.4q.4 0 .5.2c0 .3-.2.4-1.5.6l-6.4.6q-1 0-1.1-.2t.4-.3q.4-.2.1-.9l-4.4-7q0-.2-.4-.1zm6.5-2.5q.3 0 .1-.3l-5-8.3q0-.2-.3-.3v.3l-1.2 9q0 .2.2.2zm11.4-4c-1.8-6.2-.6-14 9.4-16.4 8.5-1.6 14.7 2 17.5 10 2.4 8-.7 15-9.2 17.1-9.7 1.8-15.5-4.3-17.7-10.6m22.7-4.2c-2.8-8-8-11.4-13.7-10.5-4 1-7.2 3.8-4.7 12.6 2.5 7.4 7.7 11.8 14.2 10.7 2.6-.6 7-2.7 4.2-12.8"/><path fill="#666" d="M638.8 327.8c-91.6-9.4-183.2-28.4-277.6-38.2v20.2c91.6 9.4 183.2 28.4 277.6 38.1z"/><path fill="#520" d="M360.7 289c92 9.5 183.9 28.6 278.6 38.3v21.2c-92-9.4-183.9-28.5-278.6-38.2zm1 1.2v19c91.3 9.5 182.5 28.4 276.6 38.1v-19c-91.3-9.5-182.5-28.3-276.6-38"/><path fill="#eace24" d="m361.2 309.8-31.4-78.6-5.3 1.3-11.5-27.9 21.2-4.9 4.8 13.1 10.2-2.2-4.4-12.8 21.6-3 3.8 13.4 10.7-1-3.7-13.4 21.6-1.3 3 13.6 14.3-.2 1.2 6.8h5.3l-1-6.7h11l1 7 5.4.2-.8-7 10.9.7 1 6.9 10.5.7-2-20.4 22 2.2.8 13.4 10.4 1.4-.2-13.4 22 3.4-.2 13.5 10.6 1.9.8-13.4 21.9 4.3-2 20.1 10.6 2.4.9-6.6 10.9 2.6-.9 6.6 5.5 1.3 1-6.4 10.9 2.7-1 6.6 5.4 1.5 1.3-6.6 14.1 4 3-13 21.6 6.5-3.3 13 10.2 3.1 4-12.7 21.5 7-4.5 12.6 10.3 3.7 5-12.6 21.2 7.6-11.5 26.4-9.1-3.7-32 74.5c-88.6-35-193-55.5-278.6-38.2"/><path fill="#806600" d="m360.2 310-31-77.5-5.3 1.2-12.4-29.8 23.3-5.5 4.8 13.1 8.2-1.7-4.4-13 23.7-3.2L371 207l8.5-.7-3.7-13.6 23.8-1.3 3 13.6 14.3-.2 1.3 6.9h3.2l-1-6.8h13l1.1 7 3.3.2-.8-7 13 .7 1 7 8.5.6-2-20.5 24.1 2.4.8 13.4 8.4 1.2-.2-13.4 24.2 3.7-.4 13.5 8.6 1.5.8-13.4 24 4.8-2 20.1 8.6 1.9.9-6.6 13 3-1 6.7 3.5.8 1-6.4 13 3.2-1 6.6 3.3 1 1.3-6.6 14.2 4 3-13 23.8 7-3.4 13 8.2 2.6 4-12.8 23.6 7.7-4.5 12.7 8.2 3 5-12.6 23.3 8.3-12.3 28.4-9.1-3.7-32 74.5-1-.4a653 653 0 0 0-140-38.8c-49.5-7.6-95.3-8-137.9.6l-.3-1zm1.6-1.5c42.6-8.5 88.2-8 137.6-.4a657 657 0 0 1 139.8 38.6l32-74.6 9 3.7 10.8-24.4-19.2-6.8-5 12.6-12.3-4.5 4.5-12.5-19.4-6.4-4 12.7-12.2-3.8 3.3-13-19.5-5.7-3 12.9-14-4-1.4 6.6-7.4-2.1 1-6.6-8.8-2.1-1 6.4-7.6-1.8.9-6.7-8.8-2-1 6.5-12.6-2.7 2-20.1-19.7-4-.8 13.4-12.7-2.2.3-13.5-19.9-3 .2 13.3-12.5-1.7-.7-13.3-19.9-2 2 20.4-12.7-.9-.9-7-8.8-.4.8 7-7.4-.4-1.1-6.9h-9l1.2 6.8h-7.4l-1.2-7-14.3.3-3-13.6-19.5 1.1 3.7 13.6-12.7 1-3.8-13.3-19.5 2.7 4.4 12.7-12.3 2.7-4.8-13.1-19 4.4 10.6 25.8 5.3-1.3z"/><path fill="#5e520e" d="M493.5 265.2v-24c.7-9.6 16.2-7 16.8 2.6v24z"/><path fill="#520" d="M493 265.1v-24c0-2.6.9-4.1 2.8-5.4q2.5-1.5 6.1-1a12 12 0 0 1 6.1 2.9c2 1.9 2.8 3.7 2.9 6.3v24l-1-.2v-24a8 8 0 0 0-2.5-5.3 11 11 0 0 0-5.5-2.6q-3.2-.5-5.5.9t-2.4 4.6v24z"/><path fill="#5e520e" d="m370.4 264.4-7.3-24c-2.3-9.7 12.8-11.3 16.3-1.9l7.3 24z"/><path fill="#520" d="m369.9 264.5-7.3-24q-1-3.6 1-6.1 2-2.2 5.4-2.7 3.4-.3 6.4 1.2 3.3 2 4.5 5.5l7.3 24-1 .3-7.3-24a8 8 0 0 0-3.9-4.8q-2.7-1.5-5.8-1.1t-4.8 2.3-.8 5.2l7.3 24z"/><path fill="#5e520e" d="m615.8 294.4 7.3-22.3c3.5-8.7 18.5-3.7 16.2 5.5l-7.2 22.4z"/><path fill="#520" d="m615.3 294.2 7.3-22.3a7 7 0 0 1 4.4-4.5q3-.9 6.5.2 3.4 1.2 5.4 3.8a7 7 0 0 1 1 6.4l-7.3 22.4-1-.4 7.3-22.5a6 6 0 0 0-.9-5.3 10 10 0 0 0-4.7-3.4q-3.2-1-5.9-.2a6 6 0 0 0-3.8 3.9l-7.3 22.3z"/><path fill="#806600" d="M344.8 268a391 391 0 0 1 67.1-8l-8.7-39.9c-17.3.9-41.5 4.3-72.7 11.5l-5.9 1.4-.3-1 6-1.5c33.3-7.7 58.7-11 76.2-11.6l-2.6-12.8 1-.1 2.9 14h-3.6l2 9.2a497 497 0 0 1 57.6 1.7l-.8-9.2-3.6-.3h-.5l-.8-7h1l.8 6a648 648 0 0 1 86.1 13.2l.7-5.6 1 .2-.7 6.7-.5-.1-5.5-1.2-.5 9a841 841 0 0 1 57.5 14.7l1.9-8.8-4.2-1.2-.5-.2 1.4-6.8 1.3-6.3 1 .4-1.3 6.3-1.2 5.7c19.6 5.6 47.8 16.4 84.6 30.3l-.3 1c-34-12.8-60.5-23-79.8-28.9l-8.2 37.8a913 913 0 0 1 63.8 21.7l-.3 1a761 761 0 0 0-155.6-42.5c-53.4-8-105-8.2-155.5 2.3zm12.6 31.9a376 376 0 0 1 21-3.6l-2.3-7q-11 1.6-21.7 3.7l-.3-1q6.8-1.5 13.8-2.6l-2.5-7-14 2.6-.3-1q8.2-1.7 16.3-3l-2.2-6.4q-8.5 1.3-16.9 3l-.3-1c49.4-10.2 100-10 152.3-2.1 52.2 7.9 103 22.7 152.5 41.6l-.3 1-12-4.5-2.3 6 12 4.5-.2 1-8-3-2.5 6.4 7.4 2.9-.3 1-12.5-4.8-2.4 6.5 12.1 4.7-.3 1c-46.4-18-94-32-143-39.4s-96.5-7.6-142.8 1.6zM538 272.6l2-39.3a648 648 0 0 0-75.9-11.5l3.7 40a561 561 0 0 1 70.2 10.8m-71.2-11L464 232a497 497 0 0 0-57.4-1.7L413 260q26.6-.7 53.7 1.7m125 24.6 6-28q-28.2-8.3-57.3-14.6l-1.5 29.1a740 740 0 0 1 52.8 13.5m-152 6.6-1.1-7.2a431 431 0 0 0-27.6.4l1.6 7.1q13.4-.6 27.2-.3m170.7 32.7 2-6.6q-13.3-4.5-26.9-8.6l-1.4 6.8a726 726 0 0 1 26.3 8.4M477 279l-.4-6.5q-13.8-1.5-27.4-2.2l.9 6.6q13.4.6 26.9 2m-83-1.1-1.7-6.5a402 402 0 0 0-26 3.1l2.3 6.4q12.7-2 25.5-3m173.8 26.5 1.2-6.8-23.6-5.8-.7 6.9q11.6 2.7 23 5.7m-48-2.8.3-7-19.6-3.3-4-.6.1 7.1 4 .6zm-64.3-16.1-.9-7.2q-11.3-.6-22.5-.8l1.3 7.2q11 0 22 .8m7.5 8.6-.7-7.1q-11.2-1-22.5-1.1l1.2 7.1q11 .3 22 1.1m49.8-1.9.2-7-12.2-2-10-1.4.2 7 9.6 1.4zM641 320.7l-20.5-7.4-2.1 6.6 20 7.3zm-8 5.6-19.4-7-2 6.7 19 6.8zm-84.7-35 .7-6.4-21.4-4.6-.4 6.4zm-99.4-14.5-.8-6.5q-10.7-.5-21.2-.5l1.3 6.5q10.4 0 20.7.5M583.1 317l1.5-6.8-19.2-5.3-1.1 6.8zm30-7.2 1.8-6-20.6-6.6-1.5 6.1zM482.3 296l-.3-7.1q-9.5-1.2-18.9-1.8l.7 7zm135 23.7 2.1-6.6-18.1-6-1.9 6.6zm-205.7-26.3-1.7-7.2q-9 .5-18.1 1.4l2 7q8.9-.8 17.8-1.2m-7.6-8-1.8-7q-9 .5-17.8 1.5l2.1 7zm-18.5 1.6-2.2-7q-8.4 1-17 2.3l2.6 7q8.2-1.4 16.6-2.3m88-.2-.5-7.1-17.4-1.4.8 7.1zm-41.2-2.2-1.3-7.2-16 .2 1.5 7.2q7.8-.2 15.8-.2m97.1 10.7.5-7-16.1-3-.2 7zM412 276.7l-1.5-6.6-17.2 1 1.8 6.6zm186.5 36.6 1.8-6.7-15.7-4.8-1.4 6.8zm-72.2-26.8.4-6.4-17.1-3.1-.1 6.4zm37 24.8 1.2-6.8-15.4-3.8-.8 6.9zm-73.4-22.7-.3-7-15.4-1.8.5 7zm45.8 16.1.6-7-15.1-3-.4 7zm43.6-5.5 1.3-6.1-15.9-4.3-1 6.2zm-70.9-16 .1-6.4-8.1-1.3-7.5-1 .2 6.4 7.6 1.1zm-115.5 11.5-2-7.1-13.7 1.6 2.4 7zM582 308.3l1.4-6.8-13.4-3.7-1.2 6.8zm46 6.6 2.2-6-14.3-5-1.8 6.1zm-200.9-38.6-1.2-6.5-14.5.3 1.5 6.5zm116.5 22 .8-6.9-13.4-2.9-.5 7zM492 280.8l-.1-6.5-14.3-1.7.4 6.5zm70.7 14 1-6.3-13.5-3.3-.8 6.3zm-67.1 2.7-.1-7-12.4-1.6.4 7zm-80-12.7-1.6-7.1-10.7.5 1.8 7.1zm176 18.2 1.5-6.1-11.7-3.4-1.2 6.1zm-44.6 4.4.8-6.9-10.7-2.4-.6 7zm92.3 5-8.2-3-2 6 8 2.9z"/><path fill="#1353b4" d="M361.2 309.8v145.4c.7 47 3 83.2 23 114.2 24.2 37.1 64.4 67.7 116.3 100.1 52-16.4 91.8-35.3 116.3-66.9 20-26.3 22.3-62.4 23-109.1V348c-92-9.4-183.9-28.5-278.6-38.2"/><path fill="#540" d="M360.2 308.6c92.6 9.5 185.2 28.8 280.6 38.4v146.6q-.6 41.4-4.2 62.4a108 108 0 0 1-19 47.3q-17.2 22.4-48 39.5a391 391 0 0 1-68.7 27.7l-.4.2-.5-.3a641 641 0 0 1-68.6-48.4 242 242 0 0 1-48-52 136 136 0 0 1-19-51.6 459 459 0 0 1-4.2-63.3V309.6zm2 2.3v144.4q.7 41.4 4.3 63 5 29.7 18.5 50.6a239 239 0 0 0 47.6 51.5q26 21.6 67.9 48a389 389 0 0 0 68-27.6 151 151 0 0 0 47.4-39q13.5-17.7 18.6-46.4 3.6-20.8 4.2-62V349c-91.2-9.4-182.5-28.3-276.5-38"/><path fill="#ce0f25" d="M635.9 553.7c.2-12 2.5-17.6 2.5-29.7q1.9-36.2 1.4-72.6c-92-9.4-183.9-28.5-278.6-38.3-.4 24.2.1 48.2 1.3 72.9.1 12.1 2.5 18.2 2.6 30.3 89.4 9.5 178.7 27.7 270.8 37.4"/><path fill="#540" d="M360.8 411.4c92.2 9.5 184.4 28.6 279.4 38.3v2.2c-92.2-9.4-184.4-28.6-279.4-38.4zm4.2 103.8c89.4 9.4 178.8 27.7 270.9 37.4v2.2c-89.4-9.4-178.8-27.7-271-37.5z"/><path fill="#fff" d="m465.8 493.2 33.8-9-13.8 32.6 15-8 15 12.6-13.7-36.7L536 504l-10-17 10-13.8-33.8 8.9 13.8-32.5-15 8-15-12.7 13.7 36.8-33.8-19.3 10 17z"/><path d="m464.7 494 10.6-14.8-10.6-18 34.1 19.6-13.9-37.2 16 13.4 15.9-8.4-14 32.8 34.3-9-10.7 14.7 10.7 18-34.2-19.5 13.9 37.1-16-13.3-15.9 8.4 14-32.9-33 8.7zm2.2-1.6 33.5-8.8-13.7 32.2 14.2-7.5 14 11.9-13.6-36.5 33.5 19.2-9.4-16 9.4-13-33.5 8.9 13.7-32.2-14.1 7.4-14.2-11.8 13.7 36.4-33.5-19.1 9.4 15.9z"/><path fill="#eace24" d="M277.1 567.4c-.3 42-.7 43.5-.7 43.5 18 18.5 20.2 25.2 25.4 31.4 7.4-9.7 17.2-5.3 17.6-5.2 2.6-9.6 13.4-16.8 13.6-17-16.2-2.7-43.2-12.4-45.7-15.6-6.9-11.8 2.6-44.3 2.7-44.7z"/><path fill="#806600" d="m276.6 567.1 14.3-8.4-.4 1.3q-2.4 8.3-4 18c-2 13-1.6 21.4 1.2 26.2 1.3 1.7 6.8 4.1 17.4 7.8q16.5 5.7 28 7.6l1.4.2-1.2.8a43 43 0 0 0-5.9 4.9q-6 6-7.5 11.8l-.1.6-.6-.3q-2.6-1-6-1c-4.7.1-8 2-11 6l-.3.5-.5-.5-4.8-6.5a191 191 0 0 0-20.6-24.8l-.2-.2.1-.3q.4-1.5.7-43.4zm1 .7q-.3 39.2-.6 43 12 12.4 20.5 24.7l4.3 5.9c3-4 6.5-5.7 11.4-6q3.2 0 5.8 1a28 28 0 0 1 7.7-11.8q2.5-2.4 4.9-4.2-11.2-2-26.8-7.4c-10.9-3.7-16.5-6.3-18-8.2-3-5-3.5-13.7-1.4-27q1.6-9 3.7-16.8z"/><path fill="#eace24" d="m316.5 635-17.7-15 21 14z"/><path fill="#806600" d="m316.2 635.3-17.7-14.9.6-.8 21 14-.5 1-13.3-9 10.5 8.9z"/><path fill="#eace24" d="M290.2 547.9c.4-.1 21.8-8.2 45 9.7 2.2.8 3.7.8 5.4.6 4.6-4.7 14.2-17.2 22-15 .6-12-.7-60-.7-60-3.4.2-4.4 5.6-4.5 6 1.8 14.3-5.3 95.5-37.3 38.7l-22.3 1.1z"/><path d="m289.3 548.8 8.1-20.3 23-1.1.2.3c7.3 13 13.3 19.3 18.9 19.7 4.6 0 8-3.8 11.3-12.3q3.8-10.2 5.5-26 1.4-13.5.6-19.8v-.2c1-4.8 2.4-6.6 5-6.5l.5.1v.5q1.5 48 .8 60v.7l-.6-.2c-4.3-1.2-10.2 2.5-19 12l-2.6 3h-.3q-3.2.3-5.7-.6h-.2a51 51 0 0 0-30.6-11.7 39 39 0 0 0-13.8 2zm1.9-1.8q5.3-1.7 13-1.6 16.8.4 31.2 11.8 2.1.7 5 .5l2.5-2.7q5.9-6.4 9.2-9.1 5.8-4.4 10.1-3.4.4-12.4-.8-58.8c-1.7.3-2.7 1.8-3.4 5.6q.8 6.6-.6 20a114 114 0 0 1-5.6 26.2c-3.5 9-7.2 13-12.3 13-5.9-.4-12.2-6.7-19.7-20l-21.6 1z"/><path fill="#806600" d="m289.3 548.8 8.1-20.3 23-1.1.2.3c7.3 13 13.3 19.3 18.9 19.7 4.6 0 8-3.8 11.3-12.3q3.8-10.2 5.5-26 1.4-13.5.6-19.8v-.2c1-4.8 2.4-6.6 5-6.5l.5.1v.5q1.5 48 .8 60v.7l-.6-.2c-4.3-1.2-10.2 2.5-19 12l-2.6 3h-.3q-3.2.3-5.7-.6h-.2a51 51 0 0 0-30.6-11.7 39 39 0 0 0-13.8 2zm1.9-1.8q5.3-1.7 13-1.6 16.8.4 31.2 11.8 2.1.7 5 .5l2.5-2.7q5.9-6.4 9.2-9.1 5.8-4.4 10.1-3.4.4-12.4-.8-58.8c-1.7.3-2.7 1.8-3.4 5.6q.8 6.6-.6 20a114 114 0 0 1-5.6 26.2c-3.5 9-7.2 13-12.3 13-5.9-.4-12.2-6.7-19.7-20l-21.6 1z"/><path fill="#eace24" d="M278.1 355.5c19 7.5 19.4 11.2 38.2 29.5 15.2 7.3 37 24 38.7 27.7l-1.2 4.7c3.2 1.5 5.4-4 5.6-4.4-3.5-17.9-55.8-72-55.9-72.2l-23.4 4.2z"/><path fill="#806600" d="m277.5 355.8 2.2-11.3 24-4.3.2.2a576 576 0 0 1 26.9 29.4q27.2 32.1 29.1 43.1v.3q-.7 1.7-1.8 3.2-2.4 3-4.6 1.4l-.3-.2 1.2-5q-1.3-2.7-13.9-12a158 158 0 0 0-24.5-15.1l-.1-.1-10.8-10.8a117 117 0 0 0-11.6-10.7 76 76 0 0 0-15.6-8zm1.2-.7a76 76 0 0 1 15.4 8q3.8 2.8 11.7 10.8l10.7 10.6q10.7 5.2 24.6 15.2c9 6.6 13.5 10.8 14.4 12.8v.2l-1.1 4.5q1.3.6 2.9-1.6.9-1.2 1.6-2.7-2.1-10.9-29-42.4-13.4-15.7-26.6-29.1l-22.7 4z"/><path d="m296.4 348 59.7 60.6 1.4 4.4-1 .2-1.3-4-59.6-60.4zm13.1 21.7a37 37 0 0 0 16.8 15.5l-.3 1q-2.9-1.2-6.4-3.8a38 38 0 0 1-11-12.2z"/><path fill="#fff" d="M285 333.7c.2-20.3 22.6-32.8 23-34.5-3-14.5-35 18.3-37.4 23.1-1.7 6.8 2.4 14.2 2.6 14.5z"/><path d="M284.4 333.7q0-10.3 7.7-20.2 4.2-5.4 12.5-11.9l3-2.5q-.5-2.1-2-2.8-1.4-.6-4 .1-4.6 1.6-12.1 7.5-6.2 5-12.3 11.2a43 43 0 0 0-6.1 7.4c-1.2 4.3-.5 8.7 2.5 14l-.9.6q-1.2-2-2.1-5c-1.2-4-1.3-7-.5-10q.8-1.9 6.4-7.8 6-6.3 12.3-11.3 7.7-6 12.5-7.6 2.9-.9 4.7-.1 2 1 2.6 3.8 0 .8-3.4 3.4a78 78 0 0 0-12.3 11.7c-5 6.5-7.4 12.7-7.4 19.5z"/><path fill="#fff" d="M291.4 307.3c-6.8 6-12.5 24.1-12.6 24.4z"/><path d="M291.7 307.8a39 39 0 0 0-8.7 14q-2.2 5.5-3.7 10l-1-.3q1.5-4.7 3.7-10.2 4.7-10.9 9-14.4z"/><path fill="#fff" d="M274.2 333.1c-2.5-19.7 11-35.7 10.5-36.5-9.1-4.2-20 18.6-23.6 27l4.4 26.8z"/><path d="M273.7 333.2a53 53 0 0 1 10.3-36l.1-.3c-3.6-1.4-7.5 1.2-12.8 8.7q-5.2 7.5-9.7 18l4.4 26.7-1 .2-4.4-27v-.1a108 108 0 0 1 9.8-18.4c5.8-8.2 10.2-10.9 14.5-8.9q.5.3.3 1l-.3.6-1.1 2a52 52 0 0 0-9.1 33.4z"/><path fill="#fff" d="M269.6 317c-3.4 9.7.1 22.2.2 22.4z"/><path d="M270 317.3q-2 5.7-1.1 14.4.5 4.3 1.4 7.5l-1 .3q-.9-3.2-1.5-7.7-1-8.8 1.3-15z"/><path fill="#fff" d="M266.7 343.3c-4.2-5.2-.7-38-1.5-38.6-9.8.7-14.7 32-12.8 39.4 6.8 22.1 12 26 12 26z"/><path d="M266.4 343.7c-2-2.4-2.7-12-1.8-29.8l.3-6.6v-2c-4 .5-7.2 5.6-10 16.7a49 49 0 0 0-2 22 106 106 0 0 0 8.5 21.1q2.1 3.6 3.3 4.6l-.6.8q-1.4-1-3.6-4.8-4.5-7.5-8.6-21.4a50 50 0 0 1 2-22.6c3-12 6.6-17.3 11.3-17.6q.7 0 .7 1.2v2l-.2 6.6c-1 17.5-.4 26.8 1.4 29z"/><path fill="#fff" d="M258 331.7a49 49 0 0 0 7 22.4z"/><path d="M258.5 331.8a34 34 0 0 0 3.2 14.6q1.8 4.3 3.7 7.4l-.9.6a59 59 0 0 1-3.8-7.6q-3.5-8.8-3.2-15.1z"/><path fill="#fff" d="M264.4 368.3c-12-12.2-14.5-43.3-16.1-46.7-13 3.7-6.6 35.8-6.4 36.4.6 2.6 17.3 23.2 17.4 23.4z"/><path d="M264 368.6q-9.2-9-14.7-40-.8-5-1.4-6.4c-5 1.6-7.2 7.4-7.3 18.7a93 93 0 0 0 1.8 17c.3 1.7 5.9 9.1 17.3 23.1l-.8.7q-17.1-20.9-17.6-23.6a94 94 0 0 1-1.7-17.2c0-12.2 2.7-18.3 8.6-19.9h.3l.2.3q.5.9 1.6 7.2c3.7 20.5 8.5 33.3 14.5 39.4z"/><path fill="#fff" d="M246.7 342.6c-3.7 9.4 15 34.9 15.4 35.4z"/><path d="M247.2 342.9c-1.6 3.7.3 10.2 6 20.5q4.4 7.6 9.3 14.2l-.8.7q-5-6.7-9.4-14.4c-6-10.6-7.8-17.4-6-21.5z"/><path fill="#fff" d="M279.8 443.6c0-.4-3-45.3 2.3-52.5l-16.6-25.5-21.6 44 19.5 36.4z"/><path d="m280.4 444.1-17.3 2.5-19.8-36.9 22-45.1 17.5 26.6-.3.3c-2.2 2.9-3.2 12-3.1 28.4q.1 12.3 1 23.7zm-1.1-1q-.9-11.1-1-23.2 0-23.8 3.2-28.8l-16-24.4-21 43 19.2 35.8z"/><path d="m280.4 444.1-17.3 2.5-19.8-36.9 22-45.1 17.5 26.6-.3.3c-2.2 2.9-3.2 12-3.1 28.4q.1 12.3 1 23.7zm-1.1-1q-.9-11.1-1-23.2 0-23.8 3.2-28.8l-16-24.4-21 43 19.2 35.8z"/><path fill="#fff" d="M264.1 543c7.2 10 10.9 31.2 11 31.4l2-7c1 1 2 5.7 3.2 6.2.4-.4.8-5.2 2-6 .3.5.6 7.3 1.6 8 1-.5 1.5-5.3 1.6-5.4.8 1 1 7.1 1.8 4-.5-37.7 69.1-63 68.3-104 1.4-42.9-43-63-70.8-99.8-.1-.4-7.9-23.3 6.5-13 11.5-2 10.6-12.6 10.6-13l6.3.2c2.2-25.1-21.4-20.3-22-20.2-23-.1-25 23.6-25 23.9-5.3 31.6 33.8 69.7 34.2 70.1 5.6 13.7 0 35.6 0 35.8q-27.6 25.4-55.8 53.4z"/><path d="M264.5 542.7q4.6 6.2 8.3 19.5 1.5 5.5 2.3 10l1.8-5.6.6.3q.6.5 1.4 3t1.2 3l.2-1.4c.5-2.9 1-4 1.9-4.3q.6-.1.7.5l.2.7.1 2q.4 4.6.7 4.6t.7-3.3l.4-1.7q0-.2.2-.2.3-.3.6 0 .6.4 1 2.8.5-11.5 10-24.3 6.1-8.3 22.9-24a242 242 0 0 0 24.6-25.4 46 46 0 0 0 10.7-28.7 60 60 0 0 0-11-36q-7.2-10.6-27.7-30-22.5-20.9-31.9-33.5v-.1q-2-6-2.2-10.8c0-3 .5-4.5 1.8-5.4 1.8-.8 4-.1 7.5 2.5 4.6-.8 7.2-2.8 9-6.7q1-3.1.8-5.9v-.5l6.4.3c.9-10-2-15.8-9.5-18.6q-5.8-1.8-11.8-.6h-.1c-9.6-.1-16 3.6-20.7 11.5q-3.2 6-3.9 12c-2.3 13.2 2.5 28.2 14.8 46.3a161 161 0 0 0 19.2 23.3l.1.1v.1a48 48 0 0 1 2.3 23.2q-.8 7.4-2.3 13v.1a2129 2129 0 0 0-55.9 53.5l-.7-.8A2129 2129 0 0 1 295 454q1.4-5.5 2.2-12.6 1.4-14.4-2.2-22.6-9.9-9.8-19.2-23.4c-12.5-18.3-17.3-33.6-15-47q.6-6.2 4-12.4a22 22 0 0 1 21.5-12q6.3-1.3 12.2.6c8.2 3 11.4 9.3 10.3 20.2v.5l-6.3-.3q0 2.8-1 5.7c-1.8 4.4-4.8 6.6-10 7.4h-.2l-.2-.1c-3.2-2.5-5-3.1-6.4-2.6q-1.4.9-1.4 4.5.3 4.5 2 10.4 9.5 12.3 31.7 33.2 20.6 19.4 28 30.2 11.9 17.8 11.2 36.7.4 14.3-10.9 29.3-6.9 8.9-24.8 25.6a215 215 0 0 0-22.8 23.7q-10 13.5-9.7 25.2v.1l-.4 1.2q-.3.4-.7.3-.3 0-.4-.4l-.5-2-.3-1.3q-.6 4.1-1.7 4c-1-.2-1.4-1.7-1.7-5.6l-.2-1.8-.7 3q-.3 2.5-1 2.5-1.3 0-2.4-3.8l-.5-1.6-1.9 5.9-1-.1q-.9-5.4-2.7-12-3.6-13-8-19.1z"/><path fill="#fff" d="M240.2 507.1a440 440 0 0 0-22.7 30.8c-4.7 6.6 4.6 4.2 5.1 4l-3.6 4.2a206 206 0 0 1-19.6 19.5c3 6.4 16.8-4.2 17.3-4.6-.5.4-13.8 10-13.8 12 4.9 2.6 17-7.1 17.4-7.4-.2.3-2.8 4.1-.5 6a51 51 0 0 0 14.4-8.8c-.2.4-1.9 4.3.2 5.5 3.1-2.2 18.6-15.5 26.1-21.9l4.2-3.5z"/><path d="m240.6 507.5-1.3 1.7q-17.9 22.6-21.4 29-1.7 2-1.4 2.8.2.7 1.6.8 1.9.2 4.4-.3l1.6-.4-1 1.2a201 201 0 0 1-23.1 23.4q.8 1.6 3 1.5t5.7-1.8l5-2.8 2.7-2 .6.9-3 2c-7.3 5.3-10.5 8.2-10.7 9.2 2 1 4.8.1 9.7-2.7q3.7-2.2 7-4.9l.7.7-1.1 2.4q-.7 2.1.3 2.9 4.3-.5 14-8.7l.7.6-.7 2.4q-.3 1.9.5 2.3c3-2.2 13-10.9 30-25.2l.6.8q-26.1 22.3-30.3 25.5l-.2.1h-.2q-1.9-.7-1.4-3.7l.2-.8q-9.1 7.3-13.3 7.8h-.1l-.2-.1c-1.3-.9-1.6-2-1-4.2l.3-.5-5.3 3.5c-5.5 3.2-8.7 4-11 2.6l-.1-.2c-.2-1 1.3-2.9 5.5-6.4a16 16 0 0 1-4.9 1.4q-3.2.2-4.1-2.5l-.2-.4.4-.3q7.2-5.5 22.1-22.3H218q-2-.1-2.4-1.4-.4-1.4 1.6-3.8 3.4-6.4 21.4-29l1.3-1.8zm10.1-11.6-3.2 5a8 8 0 0 0-1 3v.2h1.1l.3 1q-1.1.3-1.8 0t-.7-1.2a9 9 0 0 1 1.2-3.4 46 46 0 0 1 3.3-5.3z"/><path fill="#fff" d="M249.2 468c-6.5 13.2-14.2 33.5-5.6 43 2.8 0 10.7-29.3 16.7-32.8l4.1-14.4.8-2.7z"/><path d="M249.7 468.3c-10.5 21.3-12.3 34.9-5.9 42.1a55 55 0 0 0 5.5-12.2c4.7-12.3 8.2-18.8 10.5-20.4l2.3-8 2.6-8.8 1 .3-2.6 8.8-2.4 8.5-.2.1c-2.1 1.2-5.4 7.5-10.2 19.9-3.5 9.1-5.6 12.9-6.9 12.8h-.1c-7-7.6-5.4-21.6 5.4-43.5z"/><path fill="#fff" d="M259 466.5c3 .4-6.2 6.7-10.2 16.4z"/><path d="M259 466q1 0 1.2.6 0 .5-.3 1.2-.4.8-2.3 3-6.4 7.3-8.3 12.3l-1-.4q2-5.2 8.5-12.6l2.4-3.1h-.1z"/><path fill="#fff" d="M261.7 469c-4.7 23.7-.4 28.4 1.7 28.7 2.7-2 8.2-22.3 13.7-24.1z"/><path d="M262.2 469a68 68 0 0 0-1.7 23c.6 3.3 1.4 4.7 2.7 5.2q1-.9 4-8.4c4.2-10.2 7.3-15 9.8-15.8l.3 1c-2.2.8-5 5.4-9 15.2a29 29 0 0 1-4.7 9h-.3c-2-.3-3-2-3.9-6q-1.3-7.9 1.8-23.4z"/><path fill="#fff" d="M236.9 360c-20.2-19-23.2-40.2-25.2-40.7-9.4.8 3 38.7 3.2 39.4l24.3 18.7z"/><path d="M236.5 360.5a93 93 0 0 1-23-36.1q-1.5-4.5-1.9-4.5-1.4 0-2.1 1.3a11 11 0 0 0-.9 4.2q0 4.9 1.6 13.4 2 9.8 5.2 19.5l24.2 18.7-.7.9-24.4-18.9v-.1q-3.3-9.9-5.3-19.8a65 65 0 0 1-1.6-13.6q.1-3.1 1-4.7 1.1-2 3.1-2c.7.2 1.5 1.6 2.8 5.1q8.3 22.3 22.7 35.7z"/><path fill="#fff" d="M233.7 365c-.1 0-9.6-7.2-15-17.1z"/><path d="M233.3 365.5a52 52 0 0 1-15-17.3l1-.6a51 51 0 0 0 14.7 17z"/><path fill="#fff" d="M236.9 374.2c-29.9-16.4-34-42.5-36.3-42-8.9 5.4 2.3 28.7 2.5 29.2 2 6.8 25.4 27.4 25.6 27.6z"/><path d="M236.6 374.7a74 74 0 0 1-33.8-37.8q-1.8-4.1-2-4.1c-3.6 2-4.2 6.7-2 15.6q2 6.6 4.8 12.8c1.3 4.7 9.5 13.3 25.5 27.4l-.7.8c-16-14.1-24.4-23-25.8-27.7a79 79 0 0 1-4.7-13c-2.4-9.4-1.6-14.6 2.5-16.9.9-.2 1.8 1 3.4 4.6a72 72 0 0 0 33.4 37.3z"/><path fill="#fff" d="M231 382.5s-12.6-9.2-23-24.4z"/><path d="M230.8 383a109 109 0 0 1-23.2-24.5l.8-.7a108 108 0 0 0 23 24.3z"/><path fill="#fff" d="M227.6 387c-35.7-19-37.1-40.6-40.8-39.2-8.1 24.7 22.5 43.6 45 59.8z"/><path d="M227.4 387.5a96 96 0 0 1-26.7-19.7 80 80 0 0 1-10.6-15.5q-2-3.9-3-4c-3.1 10.2 0 20 9.8 30.8q8.8 9.3 32.1 25.9l3.1 2.2-.6.9-3.1-2.3a242 242 0 0 1-32.3-26c-10.2-11.1-13.3-21.3-9.8-32.2l.1-.2.2-.1q1.7-.8 4.4 4.4 4.9 9 10.5 15.3a95 95 0 0 0 26.4 19.5z"/><path fill="#fff" d="M229.6 397c-.2 0-16.2-5.3-26.7-20.4z"/><path d="M229.4 397.5q-4.2-1.4-9.6-4.6-10.9-6.4-17.4-16l.9-.6a54 54 0 0 0 26.4 20.2z"/><path fill="#fff" d="M231 407c-31.3-9.2-46.5-36-50.4-34.5-8.5 5.3 9.5 26.9 10 27.4a173 173 0 0 0 40.8 22.6z"/><path d="M231 407.6q-14-4-26.7-13.6-7-5.4-16.5-15.3c-4.2-4.3-6.2-5.8-7-5.8-1.8 1.1-2.4 2.7-2 5.6q.8 3.7 3.9 9a93 93 0 0 0 8.3 12 129 129 0 0 0 26 16q8.3 4 14.6 6.5l-.4 1q-6.3-2.4-14.6-6.5-16.6-8-26.3-16.1h-.1q-4.8-6-8.4-12.2a34 34 0 0 1-4-9.3c-.5-3.6.3-5.5 2.6-7 1.3-.2 3.6 1.4 8.2 6q9.3 9.9 16.4 15.2 12.5 9.5 26.2 13.5z"/><path fill="#fff" d="M231.9 411.6c-.2 0-21.6-3.3-33.7-14.3q16.5 6.6 33.7 14.3"/><path d="M231.8 412.2q-5.5-.9-12.5-3a56 56 0 0 1-21.4-11.5l.7-.8a55 55 0 0 0 21 11.2q7 2.1 12.3 3z"/><path fill="#fff" d="M231.3 420.6c-49.6-14.4-53-28-57-26.5-8.1 8.5 19 27.3 19.8 27.8 3.8 4.6 40 13 40.2 13.1z"/><path d="M231 421.2c-23.6-7-40.9-14.5-52.2-24.3q-3.1-2.7-4.3-2.3c-1.7 1.8-1.8 3.7-.4 7q1.9 3.7 7.1 8.9 6 6 13.2 11h.1c1.7 2.1 8.4 4.6 21.2 8.1l18.8 4.9-.3 1c-24.6-6-37.7-9.6-40.5-13.2q-7.2-5-13.3-11-5.3-5.2-7.3-9.2c-1.6-3.7-1.4-6 .9-8.4l.1-.1c1.3-.4 2.8.3 5.4 2.4 11.3 9.8 28.4 17.3 52 24.1z"/><path fill="#fff" d="M235.2 423c-.2 0-25.2 1.5-36.2-6a693 693 0 0 1 36.2 6"/><path d="M235.2 423.6q-6.5.4-14.1-.2a45 45 0 0 1-22.4-6l.7-1q6.5 4.8 21.8 6 7.7.5 14 .2z"/><path fill="#fff" d="M233.6 434.9c-47.6-8.7-55.6-20.2-59-19.1-5 9.3 22.4 23.6 23 24 18.1 8.7 42.3 9.5 42.4 9.5z"/><path d="M233.5 435.4c-23.2-4.2-41.2-9.6-54.3-17.3a11 11 0 0 0-4.3-1.9c-1.8 3.8 1 8 9.3 14.4a116 116 0 0 0 13.8 8.7 98 98 0 0 0 27.7 8q8.2 1.2 14.3 1.5v1q-6.2 0-14.6-1.5a99 99 0 0 1-28-8 116 116 0 0 1-13.8-8.8c-9-6.8-12-11.6-9.4-16l.1-.2h.2q1.3-.5 5.3 1.8c13 7.7 30.9 13 54 17.2z"/><path fill="#fff" d="M239 440.6s-16.7.9-27.7-4.2q13.7 1.8 27.7 4.2"/><path d="M239 441.1q-4.1.3-9.8-.1a51 51 0 0 1-18.1-4l.5-1a51 51 0 0 0 17.7 3.9q5.6.4 9.7.1z"/><path fill="#fff" d="M232.2 467.3c-13.6 13.6-21 36.7-14.2 38.4 3.7-.7 14.3-27.8 29.2-32.6l9.6-8.6z"/><path d="M232.5 467.6a62 62 0 0 0-14.5 23.6q-2 6-2 9.9 0 3.6 2 4c.8-.3 2.7-2.7 6-8.2q6-9.7 9.8-14.3 6.8-8 13.2-10l9.5-8.5.7.8-9.7 8.7h-.2a28 28 0 0 0-12.7 9.6 135 135 0 0 0-9.6 14.2c-3.7 6-5.8 8.6-7 8.8h-.1c-2-.5-2.8-1.8-3-5q0-4.2 2-10.3a63 63 0 0 1 14.9-24z"/><path fill="#fff" d="M251.4 463.2c2.7.2-16.8 6.8-21 16.6z"/><path d="M251.4 462.6h.4q.6.3.4.8 0 .3-.6.7l-2.8 1.4c-10.5 5.4-16.2 10.1-18 14.4l-1-.3c2-4.6 7.8-9.5 18.6-15l2.6-1.4h.2l.1.5z"/><path fill="#fff" d="M225 456c-19.6 16.5-25.6 34.3-23 35.4 4.4.5 21.8-18.1 28.2-20 3-.9 21.4-11.1 21.4-11.1A776 776 0 0 0 225 456"/><path d="M225.4 456.5a81 81 0 0 0-19.8 23.3 38 38 0 0 0-3.4 8.2q-.6 2.7 0 2.9c1.5.1 5.8-3 13.8-9.9a56 56 0 0 1 14-10.1q3-.8 21.3-11.1l.5 1a186 186 0 0 1-21.5 11.1q-2.9.7-13.6 10-12.3 10.6-14.8 10-1.6-.4-.7-4.1t3.5-8.5a83 83 0 0 1 20-23.7z"/><path fill="#fff" d="M237 457.5c2.8.1-13 6.4-17.2 16.2z"/><path d="M237 457q.8-.1 1 .5 0 .4-.6.9L235 460c-8.4 5.2-13 9.7-14.7 13.9l-1-.3q2.5-6.6 15.1-14.6l2.4-1.5.1.2v.3z"/><path fill="#fff" d="M239 449c-22 2.9-58-16.5-59.6-14.3-8.4 12.3 30.3 26.5 39.9 25.4q15.5 0 31.5.9z"/><path d="M239.1 449.5q-9.8 1.4-26.3-3.3-9.1-2.8-24.4-8.4l-8.4-2.7-.1-.3v.1h-.1c-2 3-1.6 5.3 1 8.6q3.7 4 12 8.3 7.4 3.6 15.4 6 7.8 2.1 11 1.7 15.7.1 31.7 1v1q-15.6-.7-31.6-.9-3.5.5-11.5-1.8-8.1-2.4-15.6-6a41 41 0 0 1-12.2-8.5c-3-3.7-3.3-6.5-1-9.9q.2-.5 1.3-.4l2 .5q1.5.4 6.5 2.3c23.7 8.7 40.2 13 50.2 11.7z"/><path fill="#fff" d="M247.5 455s-25.9.9-37.7-3.5q18.5 1.2 37.7 3.6"/><path d="M247.5 455.6q-6.5.1-14.5-.1a81 81 0 0 1-23.4-3.5l.4-1q7.3 2.8 23.1 3.4 7.9.4 14.4.1z"/><path fill="#fff" d="M306.3 452.5c0-.5-.1-11.6-6-13.1 0 0-13.2-1.6-28.2.7-33.6-21.7-7.7-47-12-56.9-2-14.5-24.2-34.8-24.4-35-2 2.9.3 14.5-1.3 14.5-4.5-1.5-2 7.5-3 10.9-4.5-1-4.2 5-3.1 10.3-3.5 1.2-2.4 6.6-1.6 11.4-6.8-2.8 1.8 10-.2 10.8-10.6-.4 1.2 10.1 1.5 10.4-6 3-3.4 7 1 9-5 4.6-.1 9.7 2 10.3-4.4 3.2.3 6.2 3.4 9.1-3.8 4.6 3.2 5.8 7.5 7.4-2.8 5.2.2 6 3.8 7.5-1.6 4.1 2.6 3.6 6.2 3.1-3.4 4.6 2.2 5.8 5 5.5.2.4 1.3 4.9 6 3.4-.4 4.2 7.3 3.8 8 3.7.8 4 12.9 3 13.5 3z"/><path d="M305.7 452.5q0-3-.7-6.1c-1-4.2-2.4-6-4.7-6.5q-13.3-1.6-28 .7h-.4c-10.7-6.8-16.3-14.2-17.6-23.4q-1-7.9 3.5-21.6c2-6.5 2.6-10.2 1.8-12.1v-.2q-1.1-8.7-12.7-22.7-5.7-6.6-11.1-11.6a28 28 0 0 0-.4 8.4v5.2l-.5.5q-.3.3-.7 0-.9-.4-1.2-.1-.5.1-.6.9a22 22 0 0 0-.2 4.7q.1 4-.4 5.2l-.2.4-.4-.1q-1.4-.4-2 .2-.6.5-1 2.1-.3 2.9.6 7.4v.6h-.5q-1.7.5-2 3.5 0 2 .8 6.7l.1.6.2 1-1-.4q-1.2-.7-1.7-.5-.2.1-.2.8.1 1.4 1.6 5.3 1 2.4 1.2 3.3v1.2q0 .3-.3.6t-.6.1q-3.3-.3-3.7.9-.5 1 1 3.1 1.7 2.7 4.7 5.5l.6.6-.8.3c-2.6 1.3-3.5 2.4-3.1 4.2q.8 2.3 4.1 3.7l.9.4-.8.5c-2.1 1.9-2.5 3.5-1.5 6q1.4 3.3 3.4 3.5l1.6.2-1.5.8q-2.3 1.4-1.4 3.2.7 1.2 3.5 3.8l1.4 1.2.4.4-.4.4q-1.2 1.1-1.1 2 0 .7.9 1.4 1.2.9 5.3 2.4l2.2.7.5.2-.3.6q-1.6 2.8-.7 4.2.7.9 3.5 2.2l.8.3.5.3-.2.5q-.6 1.2-.4 1.7t1.2.7q1.5.4 4.8-.1l1.5-.3-1 1.2q-1.3 1.3-1.1 2.2.1.8 1.1 1.5 2.3 1.3 4.6.8h.5l.1.4a6 6 0 0 0 1.2 2.3q1.5 1.9 4 .8l1-.5-.3 1.1q-.3 1.1.5 1.8t2.6 1q2 .3 4.3.3h.6v.5c.2 1.5 1.9 2.2 6.3 2.5h6.7l.1 1a51 51 0 0 1-6.9 0c-4.6-.3-6.6-1.1-7.2-3l-4.1-.3a8 8 0 0 1-3-1.1q-1-.9-1-2c-2 .4-3.2 0-4.5-1.4a7 7 0 0 1-1.2-2.2q-2.4.3-4.9-1.1-1.4-1-1.5-2.2-.2-1 .5-2-2.5.2-4-.1-1.4-.4-1.8-1.3t.1-2.2l-.3-.1q-3-1.4-4-2.5-1.2-2 .4-4.9l-1.5-.5q-4.4-1.5-5.7-2.6-1.2-1-1.3-2.1 0-1.2 1-2.4l-.9-.9q-3-2.7-3.7-4-1.1-2.4.9-4-1.7-1-3-3.7c-1.2-2.8-.9-4.7 1.1-6.8q-3.1-1.6-4-4c-.4-2.3.4-3.7 3-5.2a32 32 0 0 1-4.3-5.2q-1.6-2.6-1-4 .8-2 4.6-1.7v-.5l-1.1-3.1q-1.5-4.1-1.7-5.6 0-1.4.8-2 .7-.2 1.7.1-.7-4.5-.7-6.5.2-3.5 2.3-4.3a23 23 0 0 1-.4-7.3 5 5 0 0 1 1.3-2.8q1-.9 2.5-.6l.2-4.2q-.1-3.8.2-5t1.1-1.7q.8-.3 2 0v-.6l-.1-3.9c-.3-5.7 0-8.6 1-9.7l.3-.4.3.4q5.8 5.1 11.7 12.1c8 9.5 12 17 12.9 23.2.8 2.2.3 6.2-1.9 12.9q-4.3 13.4-3.4 21c1.3 8.8 6.7 16 17 22.5q14.8-2.2 28.1-.7c2.8.7 4.4 2.7 5.6 7.4q.8 3.3.8 6.4z"/><path d="M240.5 380c2 5 3.6 7 5.7 7.1v1.1c-2.6-.2-4.5-2.4-6.6-7.8zm-5-17.8c2.4 8.5 4.3 12 6.4 12.3v1c-2.6-.1-4.9-4-7.5-13zm-3.1 10.2c.7 5.5 1.8 7.6 3.8 7.8v1c-2.6-.1-4-2.5-4.9-8.6zm-3.7 10.8c2 5 3.6 6.9 5.7 7v1.1c-2.6-.1-4.5-2.3-6.6-7.7zm-1.8 11c2.2 4.5 3.9 6.2 6 6.4v1c-2.6-.1-4.6-2-7-6.8zm.3 11c3.4 5.5 5.8 7.7 8 7.9v1c-2.5 0-5.2-2.5-9-8.2zm.9 11.2q5.2 4.3 8.4 4.3v1q-3.6 0-9-4.5zm1.3 8.9c3.6 3 6.1 4.2 8.4 4.3v1q-3.6 0-9.1-4.5zm1.1 9.6q7.9 3.4 11.1 3.5v1q-3.4 0-11.5-3.5zm3.4 9q9 .5 12.3.4v1.1q-3.3 0-12.3-.4zm7.3 7.3q7.5-.5 10.9-.5v1q-3.3 0-10.9.6zm4.2 7.4q6.7-1.9 10.9-.5l-.4 1q-3.9-1.2-10.2.5zm6 4.1c4.6-1.2 7.9-1.3 10.8-.3l-.3 1q-3.9-1.5-10.2.4zm4.8 5q6.2-1 10.6-2.7l.4 1q-4.5 1.7-10.9 2.7zm6.6 3.3q2.4.7 6.7-1l.4 1q-4.6 1.8-7.4 1zm7.4 3.4q2.2-.2 6.5-1.8l.4 1q-4.4 1.6-6.8 1.9zm31.5-129.7q-3.4-6.4-7-8.5-2-1-3.1-.8h-.1q-1.3 0-3 .8-2 .9-3.8.9-2.7-.2-3.3-2.6-.3-1.2 0-2.3l1 .3q-.3.8 0 1.8.4 1.6 2.3 1.7 1.5 0 3.4-.8c1.9-.8 2.3-.9 3.3-.9q1.5-.1 3.7 1 4.1 2.3 7.5 9z"/><path d="M293.6 335.2c-1.4 4.7-4.3 5.5-4.5 5.5 0 .4.7 4.2 3.6 5 5.5.8 7-3.3 4.6-8-1-1.1-3.6-2.5-3.7-2.6"/><path fill="#fff" d="M297 340.9q0 1-2 1.7-2.1.5-2.6-.4-.1-1 2-1.7 2-.5 2.5.4"/><path d="M224.7 541.6q-.3.5.2.9t2 .5h.3l.2-.3.3.3q2.7-.2 3.8-1.6l-.1-.1 1.2-1.5.3-.4q8-9.4 17-16.6-2.7 1.2-3.7 1.2-.6 0-1-.3-1.8 1.8-5.1 4.5l-.6-.9q3.3-2.7 5.2-4.5v-.4q-.1-1 .4-2.7-1.4.6-2.7.8a160 160 0 0 0-19.5 21.5l-.8-.6q11-14 18.6-20.8a7 7 0 0 1-3.8-1.5q-3.3-2.8-1.5-5.9l.9.6c-.9 1.6-.5 2.8 1.3 4.5l.4.3 6.6-10.4.9.6L239 519a6 6 0 0 0 3 .4q1.6-.3 3.4-1.1l8-7.7q-.7-.1-1.1-.7c-1-1.6 0-4 3.4-8.5l.8.7c-3.1 4-4 6-3.4 7.1q.4.6 1.3.5l5.5-5.2.7.8-5.4 5.1v.2l-.3.1-8.4 8a10 10 0 0 0-.8 3.5l.5.5h-.1l.2.1q1 0 5.7-2.2h-.1l8.7-10 .8.8-8.3 9.3.4.6-.7.6q-.1 1 .2 1.5.4.3 1.6 0 2.4-.9 4.9-3.1l4.6-5.2.7.7-4.1 4.7.2.7q.7 3 2.3 3.2 1.3.1 4.6-5a16 16 0 0 1 3.3-4.4l.5 1a16 16 0 0 0-3 3.9q-3.2 5.2-5 5.6l.3.5a55 55 0 0 0-15.1 16.7q.5.7 2 1.8 2 1.2 2.8 1 1.3-.7 8.7-10 5.8-7 6.8-7.7l.5 1q-.9.6-6.5 7.4a57 57 0 0 1-9.2 10.3q-.8.2-2.2-.3a200 200 0 0 0-18.3 17.9l-.7-.7q10.2-11.2 18-17.7l-.4-.3q-1.5-1-2.3-2l-.5.5.5.5a309 309 0 0 1-14.8 14.7l-.7-.8q6-5.6 13.6-13.4-1.2.5-2.4.7l-2-.1a419 419 0 0 0-23.7 22.3l-.7-.7a421 421 0 0 1 23.4-22.2l-.5-.7a6 6 0 0 1-4.2 1.1l.2.1a242 242 0 0 1-16.6 16.2l-.6-.8q8-7.1 16-15.7-1-.1-1.6-.6a283 283 0 0 0-19.6 19.1l-.7-.7a283 283 0 0 1 19.5-19.1q-.5-.6-.6-1.4a7 7 0 0 1-4.4 1.6 54 54 0 0 1-10 9.3l-.3-1q1.9-.8 8.9-8.4-1.2 0-2-.6-1.2-.9-.4-2.4zm29.2-16.9q-4 3.3-7.4 6.6l-.7-.7q3.1-3.1 6.8-6.1l-.3-.3q-.6-.5-.6-1.4a126 126 0 0 0-18.8 18.3q0 2.8 2.8 3.2c2 .2 3.2-.1 4.4-1.2l.5-.6q1.3-2.2 4-6 6-7.6 15-14.7l.4.4-.2-.6a14 14 0 0 1-5 3zm6.3-2a93 93 0 0 0-14.7 14.6 43 43 0 0 0-4.1 6l-.5-.2v.1q.6 1.8 2.7 1.4 2.2-.3 4.2-2.3l.2-.2a56 56 0 0 1 14.9-16.6q-.8 0-1.3-.6a69 69 0 0 0-5.7 5l-.7-.8q2.2-2.1 5.7-5zm-6.5-146q.7 5 3 12l.2.3-.2.2a17 17 0 0 0-4.4 9.6l-1-.1q.7-5.9 4.4-10a66 66 0 0 1-3-11.8zm36 82.8q-3.1-10.6-12.2-14.2l.4-1a21 21 0 0 1 12.8 15zm12.7 1c-2.2-7.3-6-11.9-12.2-14.5l.3-1a22 22 0 0 1 12.9 15.2zm-8.2 12.8a26 26 0 0 0-14 12l-1-.4a27 27 0 0 1 14.6-12.6zm-23.7 30.2a21 21 0 0 0-4 6.5h.1l1.5-.3q2.6-1.1 6.8-4l.6 1q-4.3 2.9-7 4a5 5 0 0 1-2 .4q-.5 0-.8-.3-.3-.4-.2-1 .1-1.7 4.2-7zm-8.6-103c-.7 2.5.1 5.4 2.8 9.8q2.3 3.2 4.5 5.7l-.8.7a45 45 0 0 1-4.5-5.8c-3-4.7-3.8-8-3-10.8zm17 59.3c-2.4-8.8-5.1-13.4-8.5-14.8l.4-1c3.7 1.6 6.6 6.4 9.2 15.5zm-18.8-49c-.7 2.4.2 4.4 3.3 7.1q2.2 2 4.9 3.2l-.5 1q-2.7-1.4-5.1-3.3c-3.4-3.1-4.4-5.5-3.6-8.4zm7.8 46c-.9-7.7-2-11.5-3.5-12.6l.5-1c1.8 1.3 3.1 5.4 4 13.4zm-1.7-59.7c-.7 2.5-.4 4.8 1 7.9q1.2 2.2 2.5 3.7l-.8.7q-1.5-1.6-2.6-4c-1.6-3.3-1.9-5.9-1-8.7zm-8.3 52.6q1.2-8.6.6-11.8l1-.3q.6 3.4-.5 12.2zM240.5 380c2 5 3.6 7 5.7 7.1v1.1c-2.6-.2-4.5-2.4-6.6-7.8zm-1.6 9.5c2 5 3.6 7 5.7 7.1v1.1c-2.6-.2-4.5-2.4-6.7-7.8zm25.8 36.2q.3 2.4 3.9 3 1.8.3 3.7 0l.2 1.1q-2 .2-4.1 0-4.3-.7-4.7-4zm2 102.2-7 6.7q-.4 0-.5-.5l.1-.4.2-.3.1.1 6.3-6.4zm-23.6-93c4.6-1.6 6.3-3 6.1-5l1-.2c.4 2.7-1.5 4.4-6.8 6.3zm-6-27.4c2.4 3.2 4.2 4.5 6.4 4.6v1q-3.6.1-7.3-5zm-1.3-10q3.4 4.6 6.4 4.6v1c-2.5 0-4.6-1.5-7.3-5zm3.5 20.3q3.9.8 7 .7v1.1q-3.3 0-7.3-.8zm33.6-52.4q-.6 1.7.6 4.4l.9 1.5.2.2-.4-.1q-.4-.1-.5.4v.2l1-.5v.5q0 .4-.5.4l-.3-.1-.4-.4-.9-1.7q-1.5-3-.7-5.2zm31.6 47.7 4.5 5.2-.7.7-4.6-5.2zm-32-72.9c-1.4.2-2 1.4-2.1 4.5h-1.1c.3-3.9 1.1-5.4 3.2-5.5zm14.3 43 3.6 5-.9.6-3.6-5zm-40.8-10 .2 2q.5 1.7 2.2 1.7v1q-2.4 0-3.2-2.4-.3-1.2-.2-2.4zm3.3 67.5q1 0 1.8-.6 1.5-1 1.2-2.6l1-.2q.6 2.4-1.7 3.8-1 .5-2.2.7zm39.2-43.4 3.9 4.6-.8.7-3.8-4.6zm-46.9 27.9h4v1.1h-4.2zm27.1 69.9-2.2 3.5-.9-.6 2.2-3.5zm12.1-144.7q-2.2 0-2.8 1.2l-1-.5q1-1.9 3.8-1.8zm-21.2 183.1.7.6v-.1q0-.5-.6-.5m67.7-100.9c.1.3 2.3 5.8 3.7 6.9.1 0 1.7.6 3 0 .9-.7 0-2 0-2.2a26 26 0 0 0-6.7-4.7m-9.1 2.4c0 .3-.2 6.1.8 7.6.1.1 1.3 1.3 2.8 1.2 1.2-.3.8-1.8.8-2-.8-2.5-4.3-6.7-4.4-6.8m6.2 23.3c0 .3 0 6.1 1 7.6 0 .1 1.2 1.3 2.7 1.3 1.2-.4.8-1.9.8-2-.8-2.6-4.3-6.8-4.4-6.9M340 466l-.2.3h-.3l-.6-.3c-.5-1-.3-4.2 0-6.4-.8-1-2.1-3.2-2-4.5q0-.4.4-.6l.3-.2.3.3a20 20 0 0 1 4 5.5c0 1-1.4 4.7-2 6m-34.2 16.5c-1.2.3-2 3.2-1.4 5 0 0 .8 1.6 2.2 2 1.3.1 1.5-1.4 1.5-1.5.3-2.7 0-5-2.3-5.5m-7 51.9c-.6.8-2.4 2-2.8 2.2l-.3.2-.3-.2q-1-1 1.2-4.4c0-1.2.2-3.7 1-4.6q.3-.3.7-.3h.4l.1.5c.1.7.7 5 0 6.6m-16.2 4.3q-.6.7-1.4.6t-1.2-.3h-.1c-.8-1-.5-2.8-.3-3.9 0-1.1.2-3.7 1-4.7q.4-.3.8-.3h.4v.4c.4 1.4 1.3 6.5.7 8.2m13.5-25q-.5.8-1.3.7-1-.1-1.3-.3c-.9-1-.5-3-.3-4 .3-.7 1-2.7 2.7-2.7h.4v.4c.1.6.5 4.3-.2 6m21-17.6c0 .2-2.1 5.5-1.7 7.3 0 0 .8 1.6 2.2 2 1.3.2 1.5-1.3 1.5-1.5.1-2.6-1.9-7.7-2-7.8m-7.4 14.9c-3.8 1.5-4.5 5.3-4.3 7.3 0 0 .4 1.7 1.5 2.6 1.2.5 1.9-.9 2-1 1.3-2.5 3.2-6.3.8-9M289 487.3c-2.5 1.8-2.6 3.1-2.6 5 0 0 0 1.7 1 2.7 1.3.6 4.3-.4 4.5-.5 1-2-2.3-2.1-3-7.2m27.5-24c-2.5 1.6-2.5 1.3-2.5 4.8 0 .1.9 2.7 2 3.8 1 .7 1.9-1.4 2-1.6 1.4-2.3.7-5.8-1.5-7m18.9 15.4c-1.2.3-2 3.1-1.4 5 0 0 .9 1.5 2.2 2 1.3.2 1.5-1.3 1.5-1.5.4-2.7 0-5-2.3-5.5m-8 9.5c-1.8 5.4-3.3 6.8-2.8 8.4l3.3 1c1.3.1 1.5-1.4 1.5-1.5.2-2.5-1.4-2-2-7.9m-44.8 61.3c-1.3.4-2 3.2-1.5 5 0 .1.9 1.6 2.3 2 1.2 0 1.4-1.4 1.5-1.6.3-2.7 0-5-2.3-5.4"/><path fill="#eace24" d="M724 616.5c.3 42 .6 43.5.6 43.5-17.8 17.7-20 24-25.4 29.6-7.3-10.3-17.2-7.2-17.6-7a46 46 0 0 0-13.6-19.1c16.4-.2 43-7 45.7-10.5 7-11.3-2.6-44.4-2.7-44.8z"/><path fill="#806600" d="m724.4 616.2-14.3-9.3.4 1.4a160 160 0 0 1 4 18.3c2.1 13.1 1.7 21.5-1.2 26.1-1.2 1.6-6.7 3.7-17.4 6.4q-16.4 3.8-27.9 3.9h-1.4l1.1 1q2.9 2.3 6 5.7 6 7 7.4 12.9l.2.6.5-.2a15 15 0 0 1 6-.3c4.7.7 8 3 11 7.2l.4.6.4-.5a73 73 0 0 0 4.8-6q8.5-11.7 20.6-23.6l.2-.2v-.3q-.3-1.4-.8-43.4zm-1 .6q.4 39.3.7 43-12 12-20.5 23.5l-4.3 5.5a16.5 16.5 0 0 0-17.3-7 34 34 0 0 0-7.6-12.8q-2.6-3-5-5 11.3-.2 26.8-3.9c11-2.7 16.6-5 18-6.8 3-4.8 3.5-13.4 1.4-26.8q-1.5-9.1-3.7-17.1z"/><path fill="#eace24" d="m684.5 680.7 17.7-13-21 11.7z"/><path fill="#806600" d="m684.9 681 17.7-12.9-.6-1-21 11.8.5 1 13.3-7.4-10.6 7.7z"/><path fill="#eace24" d="M710.8 596.2c-.2 0-21.9-9.7-44.9 4.5-2.2.4-3.7.1-5.5-.3-4.6-5.5-14.2-19.8-22-19.3-.6-12 .7-59.8.7-59.8 3.3.9 4.4 6.5 4.5 7-1.7 13.6 5.4 97.3 37.3 44.9l22.4 3.6z"/><path d="m711.8 597.2-8.2-21-23-3.6-.1.3c-7.4 12.1-13.3 17.4-19 16.9-4.5-.9-8-5.3-11.3-14.4q-3.7-11-5.5-27-1.4-13.9-.6-20v-.1c-1-5-2.4-7.1-5-7.6h-.5v.5q-1.3 47.8-.8 59.9v.6h.7c4.2-.4 10.2 4.6 18.9 15.7l2.6 3.3.1.1h.2q3.2.9 5.7.4h.2a49 49 0 0 1 44.4-4.5zm-2-2a50 50 0 0 0-44.2 4.9q-2 .4-5-.2l-2.4-3.2q-6-7.5-9.3-10.7c-4-3.8-7-5.4-10-5.5q-.5-12.4.7-58.6c1.7.6 2.7 2.4 3.5 6.4q-.9 6.3.6 20 1.7 16.4 5.5 27.3c3.5 9.6 7.3 14.3 12.3 15.2 6 .6 12.2-4.7 19.7-17l21.7 3.5z"/><path fill="#806600" d="m711.8 597.2-8.2-21-23-3.6-.1.3c-7.4 12.1-13.3 17.4-19 16.9-4.5-.9-8-5.3-11.3-14.4q-3.7-11-5.5-27-1.4-13.9-.6-20v-.1c-1-5-2.4-7.1-5-7.6h-.5v.5q-1.3 47.8-.8 59.9v.6h.7c4.2-.4 10.2 4.6 18.9 15.7l2.6 3.3.1.1h.2q3.2.9 5.7.4h.2a49 49 0 0 1 44.4-4.5zm-2-2a50 50 0 0 0-44.2 4.9q-2 .4-5-.2l-2.4-3.2q-6-7.5-9.3-10.7c-4-3.8-7-5.4-10-5.5q-.5-12.4.7-58.6c1.7.6 2.7 2.4 3.5 6.4q-.9 6.3.6 20 1.7 16.4 5.5 27.3c3.5 9.6 7.3 14.3 12.3 15.2 6 .6 12.2-4.7 19.7-17l21.7 3.5z"/><path fill="#eace24" d="M723 404.5c-19.1 6.7-19.2 10.2-38.2 26.3-15.3 5.3-37.1 18.2-38.7 21.3l1.2 5c-3.2.9-5.4-5-5.7-5.5 3.3-16.2 55.6-63.3 56-63.6l23.3 6z"/><path fill="#806600" d="m723.6 404.8-2.3-11.3-24-6-.1.1q-13.3 12-27 26c-18.2 18.5-27.7 30.7-29 37.9l-.1.1v.2q.8 1.8 1.8 3.4c1.8 2.5 3 3.1 4.6 2.4l.4-.1-1.3-5.3c1-1.6 5.4-4.7 14-9.5q13.7-7.7 24.4-11.4l.2-.1q4.5-3.8 10.7-9.5 7.9-7.2 11.7-9.7 5.5-3.4 15.5-7zm-1.3-.7a79 79 0 0 0-15.3 7q-3.9 2.6-11.8 9.7l-10.7 9.5q-10.7 3.7-24.5 11.5c-9 5-13.5 8.3-14.4 10.1l-.1.2 1.2 4.7q-1.3.3-3-2.1l-1.5-3.1c1.4-7 10.9-19 28.9-37.3q13.5-13.7 26.6-25.7l22.7 5.7z"/><path d="m704.7 396-59.8 51.9-1.3 4 1 .5 1.2-3.8 59.6-51.8zm-13.2 20.2a30 30 0 0 1-16.7 13.4l.3 1a31 31 0 0 0 17.3-13.8z"/><path fill="#fff" d="M716 382.3c-.2-20-22.5-34.5-23-36.4 3-13.8 35.3 21 37.5 25.7 1.7 6.8-2.5 14.1-2.6 14.4z"/><path d="M716.6 382.4c0-7-2.4-13.6-7.6-20.7q-4.3-5.6-12.5-13l-3-2.8q.4-2.1 1.9-2.6 1.4-.5 4 .5 4.6 2 12.2 8.5 6.2 5.4 12.2 11.8 5.4 6 6.2 7.7c1.2 4.3.4 8.6-2.6 14l1 .5q1-2 2-4.9c1.2-4 1.4-7 .6-10q-1-2-6.4-8a161 161 0 0 0-12.3-12 54 54 0 0 0-12.5-8.6q-3-1.2-4.8-.6-2 .8-2.5 3.6 0 .7 3.3 3.7 8.1 7.3 12.4 12.9c5 6.8 7.3 13.2 7.4 20z"/><path fill="#fff" d="M709.7 355.6c6.8 6.4 12.5 24.8 12.5 25z"/><path d="M709.4 356q4.1 3.8 8.7 14.6 2.2 5.4 3.7 10.2l1-.3q-1.5-4.8-3.8-10.3-4.6-11.1-9-15z"/><path fill="#fff" d="M726.9 382.3c2.4-19.6-11.1-36.2-10.5-37 9-3.6 20 19.3 23.6 27.6l-4.4 26.8z"/><path d="M727.4 382.4c1.3-10.2-1.6-21.3-9.2-34.5l-1.3-2.3c3.7-1.1 7.6 1.6 12.9 9.3q5.1 7.6 9.6 18.1l-4.3 26.6 1 .2 4.4-27q-4.6-10.7-9.9-18.5c-5.8-8.4-10.2-11.3-14.5-9.5q-.4.2-.3.9l.3.7 1.2 2c7.4 13 10.4 23.9 9 33.8z"/><path fill="#fff" d="M731.5 366.3c3.3 9.8-.2 22.1-.3 22.4z"/><path d="M731 366.5q2.1 5.8 1.2 14.5-.6 4.3-1.5 7.5l1 .3q1-3.2 1.5-7.7 1-8.8-1.2-15z"/><path fill="#fff" d="M734.3 392.6c4.2-5.2.7-38 1.5-38.6 9.9.8 14.8 32 12.9 39.4-6.8 22.3-12 26-12 26z"/><path d="M734.7 393c2-2.4 2.7-12 1.7-29.8l-.3-6.6v-2c4.1.5 7.2 5.6 10 16.7a49 49 0 0 1 2 22 106 106 0 0 1-8.4 21.2 18 18 0 0 1-3.4 4.5l.6.9q1.5-1.1 3.7-4.9a107 107 0 0 0 8.6-21.5q1.9-6.6-2-22.5c-3-11.9-6.6-17.2-11.4-17.5q-.6 0-.7 1.2v2l.3 6.6c1 17.5.4 26.8-1.5 29z"/><path fill="#fff" d="M743 381a49 49 0 0 1-6.9 22.4z"/><path d="M742.5 381.1a34 34 0 0 1-3.1 14.7 58 58 0 0 1-3.7 7.3l.8.6q2-3 3.8-7.5 3.7-8.8 3.2-15.2z"/><path fill="#fff" d="M736.6 417.6c12-12.1 14.6-43.4 16.2-46.9 13 3.3 6.5 35.5 6.4 36.1a260 260 0 0 1-17.5 24z"/><path d="M737 418q9.2-9 14.8-40.1.9-5.2 1.3-6.6c5 1.5 7.2 7.1 7.3 18.4q0 8.6-1.7 17v.1a144 144 0 0 1-17.4 23.6l.8.7q17.2-21.2 17.6-24.2a96 96 0 0 0 1.7-17.3c0-12.1-2.7-18.1-8.5-19.4h-.4l-.2.3q-.4.9-1.6 7.2-5.4 30.8-14.4 39.5z"/><path fill="#fff" d="M754.3 391.7c3.8 9.4-15 35.3-15.4 35.6z"/><path d="M753.9 392c1.5 3.7-.3 10.2-6.1 20.6q-4.4 7.8-9.3 14.4l.8.7q5-6.7 9.4-14.5c6-10.8 7.9-17.7 6-21.7z"/><path fill="#fff" d="M721.2 492.6c0-.4 3-45.2-2.3-52.6l16.7-25 21.5 43.7-19.5 36.7z"/><path d="m720.7 493 17.2 3 19.8-37.3-22-44.8-17.4 26 .2.4c2.2 3 3.3 12.2 3.2 28.6q-.2 12.2-1 23.6zm1-.9q1-11.1 1-23.2c.1-16-1-25.4-3.1-29l16-23.9 21 42.7-19.2 36.1z"/><path d="m720.7 493 17.2 3 19.8-37.3-22-44.8-17.4 26 .2.4c2.2 3 3.3 12.2 3.2 28.6q-.2 12.2-1 23.6zm1-.9q1-11.1 1-23.2c.1-16-1-25.4-3.1-29l16-23.9 21 42.7-19.2 36.1z"/><path fill="#fff" d="M737 592.4c-7.2 9.9-11 31-11 31.1l-2.1-7c-1 1-1.9 5.5-3.1 6-.4-.4-.8-5.2-2-6-.3.4-.6 7.2-1.6 7.8-1-.5-1.5-5.3-1.7-5.5-.8 1-1 7.1-1.8 3.9.5-36.2-69.1-71.2-68.2-113-1.4-42.8 42.8-55.2 70.7-90.6.2-.5 8-22.7-6.5-13.4-11.5-2.9-10.5-13.6-10.5-14l-6.4-.3c-2-25.2 21.5-18.6 22-18.4 23 1.3 25 24 25 24.7 5.4 32.3-34 68.5-34.1 68.7-5.6 13.2 0 35.5 0 35.8q27.5 27.6 55.8 54.1z"/><path d="M736.5 592q-4.5 6.2-8.3 19.4-1.5 5.4-2.3 10l-1.7-5.8-.6.4q-.6.4-1.4 3l-1.2 2.8-.3-1.4q-.6-4-1.8-4.4-.5-.1-.8.5l-.1.7-.2 2q-.3 4.5-.6 4.5t-.8-3.3l-.3-1.7-.2-.3q-.3-.3-.7 0t-1 2.7a48 48 0 0 0-10-25 296 296 0 0 0-22.8-26.4 266 266 0 0 1-24.7-29.3 54 54 0 0 1-10.7-30.7 51 51 0 0 1 11-34q7.4-9.1 27.8-25.8 22.4-18.2 31.9-30.5v-.1q2-6 2.1-10.6c0-3-.5-4.6-1.8-5.6-1.8-.8-3.9-.3-7.4 2a12 12 0 0 1-9-7.4q-1-3.2-.9-6v-.5l-6.4-.3c-.8-10.2 2.1-15.6 9.6-17.6q5.7-1.4 11.8.2a23 23 0 0 1 20.8 12.3q3.2 6 3.8 12 3.5 19.6-14.8 46a135 135 0 0 1-19.2 22.2l-.1.1q-3.7 8.2-2.2 23 .7 7.4 2.2 13.2v.1q27.6 27.8 56 54.3l.6-.8q-27.4-25.6-55.6-54-1.5-5.6-2.2-12.8a46 46 0 0 1 2.1-22.4q10-9 19.3-22.3 18.5-26.7 15-46.8-.7-6.2-4-12.4a24 24 0 0 0-21.6-12.8 26 26 0 0 0-12.2-.2c-8.2 2.2-11.3 8.1-10.3 19.2v.5l6.3.3q0 2.8 1 5.8c1.9 4.6 4.9 7 10 8.2h.4c3.3-2.2 5.1-2.8 6.5-2.2q1.4.9 1.3 4.6-.2 4.5-2 10.2-9.5 12-31.7 30.3a195 195 0 0 0-27.9 25.9 52 52 0 0 0-11.2 34.6 55 55 0 0 0 10.8 31.4q6.9 10.1 24.8 29.4a298 298 0 0 1 22.8 26.3c6.7 9.7 9.9 18 9.8 26l.3 1.2q.3.4.7.4t.5-.4l.5-2 .2-1.3c.4 2.9 1 4 1.7 4.2 1-.2 1.4-1.7 1.8-5.5l.1-1.8q.3.8.7 3 .4 2.5 1 2.5 1.3.1 2.5-3.7l.5-1.6 1.8 6h1q1-5.4 2.7-12 3.8-13 8.1-19z"/><path fill="#fff" d="M760.8 556c3.1 3.7 18.9 22.2 22.8 28.6 4.7 6-4.6 4.8-5.2 4.7.1.1 15.7 15.8 23.3 20.2-3.2 7-16.8-1.5-17.4-1.8.6.3 13.9 8 13.9 10-5 3.3-17-4.7-17.4-5 .2.3 2.7 3.8.5 6-4.6-.2-14.1-7.3-14.4-7.5.1.3 1.8 4.2-.3 5.5-4-2.6-30.1-24.4-30.2-24.5z"/><path d="m760.4 556.3 1.4 1.6q18 21.4 21.3 27 1.7 1.9 1.5 2.7-.2.7-1.7 1-1.8.4-4.4.2l-1.5-.2 1 1.1q15.5 15.6 23 20.1-.7 1.8-3 2-2.2.3-5.7-.9-2.4-.9-4.9-2.1l-2.8-1.6-.6 1 3 1.6c7.3 4.3 10.5 6.6 10.7 7.6-2 1.2-4.7 1-9.7-1.3a49 49 0 0 1-7-4l-.7.9q.8 1 1.2 2.2.6 2-.4 3c-2.9-.2-7.3-2.4-13.9-7.4l-.8.6q.5 1.1.7 2.3.3 1.9-.4 2.4c-3-2-13-9.8-30-24.3l-.7.9a411 411 0 0 0 30.4 24.5l.2.1h.2q1.8-.9 1.4-3.8l-.2-.8c6.2 4.5 10.3 6.5 13.3 6.5h.1l.1-.1q2-1.3 1-4.3l-.2-.5q2.5 1.5 5.3 2.8c5.4 2.4 8.6 2.6 11 1v-.3c.3-1.1-1.2-2.6-5.4-5.5q2.9.8 4.8.6 3.3-.3 4.2-3.2l.1-.4-.3-.2q-7.3-4-22.2-19.1 1.8 0 3.3-.3 2-.5 2.5-1.8t-1.6-3.7q-3.6-5.6-21.4-27l-1.4-1.6zm-10-11.2q1.9 2.6 3.1 5 1 2 1 2.8v.3h-1l-.4 1q1.1.3 1.8 0 .7-.4.7-1.3 0-1.1-1.1-3.4l-3.3-5z"/><path fill="#fff" d="M751.8 517.3c6.5 12.8 14.3 32.7 5.7 42.6-3 .2-10.7-28.8-16.7-32.3l-5-17.1z"/><path d="M751.4 517.5c10.4 21 12.3 34.3 5.8 41.9a52 52 0 0 1-5.5-12q-7-18-10.5-20.2l-2.3-8-2.5-8.9-1 .3 2.5 9 2.4 8.4h.3c2 1.3 5.4 7.5 10.2 19.8 3.5 9 5.5 12.7 6.8 12.6h.2v-.1c7-8 5.3-21.8-5.5-43.3z"/><path fill="#fff" d="M742 515.9c-3 .4 6.3 6.6 10.3 16.2z"/><path d="M742 515.4q-1 0-1.1.6t.2 1.2l2.4 3q6.3 7.1 8.3 12l1-.3a47 47 0 0 0-8.5-12.5l-2.4-3h.1z"/><path fill="#fff" d="M739.3 518.3c4.8 23.7.5 28.5-1.6 28.8-2.7-2-8.2-22.5-13.8-24.5z"/><path d="M738.8 518.4q3 15.3 1.8 23c-.7 3.3-1.5 4.7-2.8 5.2q-1-1-4-8.5c-4.1-10.2-7.2-15.2-9.8-16l-.2 1c2.2.8 5 5.5 9 15.4q3.4 8.4 4.7 9v.2h.2c2-.4 3-2.1 4-6.1q1.2-8-1.9-23.4z"/><path fill="#fff" d="M764.2 408.6c20.3-20.6 23.1-42.6 25.2-43.3 9.5-.6-3 39.1-3.3 39.8l-24.3 21z"/><path d="M764.5 409q14.6-14.6 23-38.4 1.7-4.7 2-4.8 1.4-.1 2 1 .7 1.4.9 4.1.1 4.9-1.6 13.7a208 208 0 0 1-5.1 20.2l-24.2 21 .7.8 24.4-21.2v-.2q3.3-10.3 5.3-20.5 1.6-9 1.6-13.9a11 11 0 0 0-1-4.5q-1.1-1.9-3.1-1.5-1 .1-2.9 5.5-8.3 23.5-22.7 38z"/><path fill="#fff" d="M767.4 413.4s9.5-8 14.9-18.6z"/><path d="M767.7 413.8a58 58 0 0 0 15-18.8l-.9-.4q-5.2 10.4-14.7 18.4z"/><path fill="#fff" d="M764.2 422.7c30.3-18.7 33.5-46.4 36.3-46.2 8.9 3.7-2.3 29-2.6 29.6-2.1 7.4-25.4 30.6-25.6 30.8z"/><path d="M764.4 423.2q14.5-8.9 24-22.7a109 109 0 0 0 9.8-19l2-4.5c3.6 1.4 4.2 6 2 15.3a92 92 0 0 1-4.8 13.6q-1.7 7.3-25.4 30.6l.7.8q23.9-23.5 25.7-31.1 3-6.7 4.8-13.7c2.4-10 1.6-15-2.6-16.5-.8 0-1.7 1.3-3.3 5q-4.7 11.4-9.8 19a77 77 0 0 1-23.6 22.3z"/><path fill="#fff" d="M770 430.7c0-.1 12.6-10.4 23-27.2z"/><path d="M770.3 431q3.2-2.5 7.7-7.2 9-9.5 15.5-20l-.9-.6a119 119 0 0 1-23 27z"/><path fill="#fff" d="M773.4 434.8c36.5-22.8 36.5-46.3 40.8-45.6 8.3 23.3-22.6 48.6-45 66.6z"/><path d="M773.7 435.3Q790 425 800.4 412a99 99 0 0 0 10.6-17.6q2-4.2 2.9-4.6c3.2 9.5.1 20.1-9.7 32.8A221 221 0 0 1 772 453l-3 2.5.6.8 3-2.4a221 221 0 0 0 32.3-30.6q15.3-19.5 9.8-34.2v-.2l-.3-.1c-1.2 0-2.4 1.4-4.4 5.4a98 98 0 0 1-10.4 17.2 101 101 0 0 1-26.4 23z"/><path fill="#fff" d="M771.5 445c.2 0 16-6.8 26.7-23.8z"/><path d="M771.7 445.5q4.2-1.7 9.6-5.6a64 64 0 0 0 17.3-18.4l-.9-.5a63 63 0 0 1-26.4 23.5z"/><path fill="#fff" d="M770 455.2c31.5-12 46.4-43.3 50.4-42.7 8.6 3.3-9.6 29.2-10 29.7-15.7 16.4-40.6 28.4-40.8 28.5z"/><path d="M770.1 455.7a82 82 0 0 0 26.6-16.9q7.2-6.6 16.6-18.4c4.1-5.2 6.2-7.3 7-7.4 1.8.6 2.3 2 1.9 5.1q-.8 3.8-3.8 10-3.6 7-8.3 13.8-9.7 10.2-26 20.3-8.4 5-14.7 8l.4 1a158 158 0 0 0 41-28.6q4.8-7 8.5-14.1 3.1-6.4 3.9-10.3c.5-3.7-.2-5.4-2.6-6.3-1.2 0-3.6 2.2-8.1 7.9Q803 431.5 796 438a81 81 0 0 1-26.3 16.6z"/><path fill="#fff" d="M769.2 459.9c.3-.1 21.4-5.4 33.6-18.8q-16.5 9.6-33.6 18.7"/><path d="M769.3 460.4q5.5-1.4 12.5-4.3 13.8-6.2 21.4-14.7l-.8-.7a61 61 0 0 1-21 14.4q-6.9 3-12.3 4.2z"/><path fill="#fff" d="M769.8 468.8c50.9-19.2 51.7-36.8 57-36.3 8.4 6.6-19.4 32-19.8 32.4-4.5 6.2-39.8 18.4-40.3 18.5z"/><path d="M770 469.3c23.6-8.9 41-20.2 52.3-32.8q3-3.5 4.2-3.5c1.7 1.4 1.9 3.3.5 6.8q-2 4.4-7.1 10.8-6 7.4-13.2 13.9h-.1v.1c-1.7 2.4-8.5 6.3-21.3 11.5q-9.6 4-18.7 6.8l.3 1c24.5-7.8 37.7-14.7 40.5-18.7q7.2-6.5 13.2-14 5.4-6.5 7.3-11c1.7-4.2 1.4-6.5-.8-8.2h-.2q-1.7-.2-5.3 3.8a130 130 0 0 1-52 32.5z"/><path fill="#fff" d="M765.9 471.5c.4 0 24.8-.8 36.1-10.7a742 742 0 0 1-36.1 10.7"/><path d="M765.9 472q6.3 0 14-1.4 15.6-3 22.5-9.4l-.7-.8q-6.6 6-21.9 9.1-7.5 1.4-14 1.5z"/><path fill="#fff" d="M767.4 483.2c48.6-12.6 54.8-29.1 59-29 5.3 8.4-22.6 29-23 29.2a106 106 0 0 1-42.3 14.7z"/><path d="M767.6 483.7c23.1-6 41-15 54.3-26q3.2-2.6 4.2-2.9c1.9 3.2-1 8.4-9.3 16.7q-6.5 6.3-13.7 11.5-11.1 7.5-27.7 12a100 100 0 0 1-14.3 2.6v1a101 101 0 0 0 42.5-14.7q7.3-5.3 13.9-11.7c9-9 11.8-14.7 9.3-18.3v-.2h-.3q-1.3 0-5.2 3.2-19.6 16.7-54 25.8z"/><path fill="#fff" d="M762 489.3c.3 0 16.6-.3 27.7-7q-13.6 3.7-27.7 7"/><path d="M762 489.8q4.3 0 9.9-.9a50 50 0 0 0 18-6.1l-.4-1a49 49 0 0 1-17.7 6q-5.6 1-9.8 1z"/><path fill="#fff" d="M768.9 515.5c13.5 12.5 21 34.5 14.1 37-3.7-.2-14.2-26.1-29.2-30.2l-9.6-8.5z"/><path d="M768.5 515.9c6.5 6 11.2 13 14.6 22q2 5.8 2 9.7 0 3.7-2.1 4.3c-.8-.2-2.7-2.4-6-7.5q-6-9.2-9.8-13.5-6.8-7.5-13.1-9.1l-9.5-8.4-.7.8 9.7 8.6h.1a27 27 0 0 1 12.7 8.9q3.7 4.3 9.7 13.3c3.7 5.6 5.8 7.9 7 8 2-.7 2.9-2.2 3-5.5q0-4-2-10a56 56 0 0 0-14.9-22.4z"/><path fill="#fff" d="M749.7 512.4c-2.8.3 16.8 6.2 21 15.4z"/><path d="M749.7 511.9h-.4q-.5.3-.5.8 0 .3.7.7l2.7 1.3q15.6 7.3 18 13.4l1-.5c-1.9-4.4-7.8-8.8-18.6-13.9l-2.6-1.3h-.2l-.1.5z"/><path fill="#fff" d="M776 503.6c19.6 14.4 25.8 30.6 23 32.3-4.6 1.3-21.6-15-28.1-16.4-3.1-.7-21.3-10-21.4-10a785 785 0 0 0 26.5-5.9"/><path d="M775.7 504q12.8 9.3 19.7 20.8 2.5 4.4 3.4 7.6.7 2.7 0 3c-1.5.4-5.8-1.9-13.8-7.8q-10.9-8.1-14-8.6t-21.3-10l-.5 1q18.5 9.6 21.6 10 2.9.5 13.6 8.5c8.3 6.1 12.9 8.4 14.8 7.9q1.5-.7.7-4.3a33 33 0 0 0-3.5-8 72 72 0 0 0-20.1-21z"/><path fill="#fff" d="M764 506c-2.8.4 13 5.5 17.2 14.7z"/><path d="M764 505.5q-.7 0-.9.6 0 .5.5.9l2.5 1.4q12.3 6.7 14.7 12.6l1-.5q-2.7-6.1-15.2-13l-2.3-1.4-.2.1v.4z"/><path fill="#fff" d="M762 497.7c21.6 1.5 58.8-24.4 59.7-23.3 9 11-30.8 32.6-40 32.6a729 729 0 0 1-31.5 3.2z"/><path d="M762 498.2q9.8.9 26.2-5.9 9.3-3.9 24.4-12.7l6.6-3.8 1.8-.9.2-.3v.1c2 2.5 1.7 4.9-1 8.9q-3.7 5-12 10.9-7.4 5.1-15.3 8.7a32 32 0 0 1-11 3.3h-.1a733 733 0 0 1-31.6 3.2v1q15.6-1.2 31.6-3.1 3.4.1 11.5-3.4a100 100 0 0 0 15.5-8.9q8.5-6 12.2-11.1c3-4.5 3.4-7.4 1.1-10.2q-.3-.4-1.3 0-.7 0-2 .9l-6.6 3.8c-23.7 13.7-40.2 19.2-50.1 18.5z"/><path fill="#fff" d="M753.6 504.2c.2 0 25.4-.7 37.7-7a735 735 0 0 1-37.7 7"/><path d="M753.5 504.7q6.6 0 14.5-1a71 71 0 0 0 23.5-6l-.5-1a70 70 0 0 1-23 6q-8 1-14.5 1z"/><path fill="#fff" d="M694.8 499.5c0-.6 0-11.6 5.9-12.6 0 0 13.3-.3 28.2 2.4 33.7-20.8 8-47.3 12-56.7 2-14.2 24.2-35.7 24.4-36 2.1 2.8-.2 14.6 1.3 14.5 4.6-1.8 2 7.3 3.1 10.6 4.4-1.2 4.1 4.6 3 10.1 3.6.9 2.5 6.4 1.6 11.3 6.8-3.5-1.8 10.2.3 10.7 10.6-1.4-1.2 10.3-1.6 10.6 6 2.5 3.4 6.6-1 9 5 4.2.1 9.8-2 10.6 4.5 2.8-.3 6.2-3.4 9.3 3.9 4.3-3.1 6-7.4 7.9 2.7 5-.3 6-3.9 7.7 1.6 4-2.6 3.7-6.1 3.3 3.3 4.4-2.2 5.8-5.1 5.5-.2.5-1.3 5-6 3.5.5 4.2-7.3 3.6-7.9 3.6-1 4-12.9 2.5-13.6 2.4z"/><path d="M695.3 499.5q0-3 .8-6c1-4.1 2.3-5.8 4.6-6q13.4-.4 28.1 2.3h.4q15.7-9.6 17.6-23.3 1-7.8-3.5-21.5-3-9.6-1.9-12.2l.1-.1c.8-6 4.8-13.3 12.6-23a159 159 0 0 1 11.2-12.2q.7 1.6.3 8.4l.1 5.2.4.5h.8q.9-.5 1.2-.3.3.1.6.8.2 1.2.1 4.7 0 4.1.4 5.2l.2.4.5-.2q1.2-.4 2 0 .6.6.9 2.1.3 2.8-.5 7.5l-.1.5h.5q1.8.3 2 3.3a41 41 0 0 1-.8 6.8v.6l-.3 1.1 1-.6q1.3-.7 1.7-.6t.2.8q0 1.3-1.6 5.5l-1.2 4.5q0 .4.3.6h.7q3.3-.5 3.7.5t-1 3.3a36 36 0 0 1-4.7 6l-.6.6.8.2c2.6 1 3.4 2 3 3.9q-.6 2.4-4 4.1l-1 .4.8.6c2.1 1.6 2.6 3.2 1.6 5.8q-1.5 3.4-3.4 3.8l-1.6.3 1.4.7q2.4 1.2 1.4 3-.7 1.4-3.5 4.1l-1.3 1.4-.4.4.4.3q1 1 1 2 0 .6-.8 1.4-1.3 1-5.4 2.7l-2.1.9-.6.3.3.5c1.2 2 1.4 3 .7 4.2q-.6 1-3.5 2.3l-.8.4-.5.3.3.5q.6 1.2.3 1.7t-1.1.8q-1.6.3-4.8 0l-1.5-.3 1 1.1q1.2 1.4 1 2.3 0 .8-1 1.5-2.3 1.4-4.6.9l-.5-.1-.2.5q-.2 1.2-1.1 2.3-1.6 1.8-4 .8l-1-.5.2 1.1q.4 1.1-.5 1.8-.7.6-2.5 1a20 20 0 0 1-4.4.2h-.5v.5c-.2 1.4-2 2-6.3 2.2q-3.4.1-6.7-.4l-.1 1q3.4.5 6.8.5c4.6-.2 6.6-1 7.3-2.7q2 0 4-.3 2.1-.4 3-1.2 1-.7 1.1-2c1.9.5 3 .1 4.4-1.3q.8-1 1.2-2.3 2.6.4 4.9-1.1 1.4-1 1.6-2.3 0-1-.5-2 2.5 0 4-.2 1.3-.4 1.8-1.4.3-.9-.1-2.1l.3-.2q3-1.5 3.9-2.7 1.2-2-.3-4.9l1.5-.6a25 25 0 0 0 5.7-2.9q1.2-1 1.2-2.3t-1-2.3l1-.9q2.9-3 3.7-4.4 1-2.4-1-3.9 1.8-1 3.1-4c1.2-2.9.8-4.7-1.2-6.6q3.2-1.9 4-4.5c.5-2.3-.4-3.6-3-4.8q2.7-3 4.3-5.6 1.6-2.9 1-4.2c-.6-1.3-1.8-1.6-4.6-1.1l.1-.6 1-3.2a31 31 0 0 0 1.8-5.8q0-1.5-.9-1.9-.6 0-1.7.3.7-4.5.7-6.6-.2-3.5-2.3-4.1.9-4.5.4-7.3-.3-1.9-1.3-2.7t-2.4-.3q-.3-1.2-.2-4.3 0-3.7-.2-5-.4-1.2-1.1-1.5-.9-.3-2 .2v-4.6c.3-5.8 0-8.6-.9-9.7l-.4-.3-.3.4q-5.7 5.6-11.7 12.8-11.7 14.4-12.8 23.3c-.9 2.2-.4 6.2 1.8 13q4.4 13.3 3.5 21c-1.4 8.8-6.8 16-17 22.3q-14.8-2.7-28.1-2.4c-2.9.4-4.4 2.3-5.7 6.8a31 31 0 0 0-.7 6.3z"/><path d="M760.5 428.8c-2 5-3.6 7.1-5.7 7.4v1c2.6-.2 4.5-2.5 6.7-8zm5.1-18.1c-2.4 8.6-4.4 12.4-6.4 12.7v1c2.6-.3 4.8-4.3 7.4-13.4zm3 10c-.7 5.5-1.8 7.7-3.8 8v1.1c2.7-.4 4-2.9 5-9zm3.7 10.4c-2 5.1-3.6 7.2-5.7 7.5v1.1c2.6-.3 4.5-2.7 6.7-8.2zm1.8 11c-2.1 4.5-3.8 6.4-6 6.7v1.1c2.6-.3 4.6-2.4 7-7.4zm-.2 11c-3.5 5.7-6 8.1-8 8.4v1.1c2.5-.3 5.2-3 8.9-9zm-1 11.2q-5.2 4.7-8.3 5v1q3.5-.3 9-5.3zm-1.2 9c-3.7 3.2-6.2 4.7-8.4 4.9v1c2.5-.2 5.2-1.7 9-5.1zm-1.2 9.7a33 33 0 0 1-11 4.2v1.1q3.4-.2 11.5-4.4zm-3.4 9.3q-9 1-12.3 1.1v1q3.4 0 12.4-1zm-7.2 7.7h-11v1l10.9.1zm-4.3 7.6a19 19 0 0 0-10.8-.2l.3 1q4-1.3 10.2.2zm-6 4.4a19 19 0 0 0-10.8-.3l.4 1c2.7-.8 5.8-.8 10.1.3zm-4.8 5a44 44 0 0 1-10.5-2.7l-.4 1a45 45 0 0 0 10.8 2.8zm-6.5 3.4q-2.5.6-6.7-1l-.4 1q4.5 1.8 7.4 1zm-7.5 3.3q-2.1-.2-6.5-2l-.4 1q4.5 1.8 6.9 2zM699.4 392c2.2-4.2 4.4-6.5 7-7.9q2-.8 3-.5h.1q1.3 0 3 .9 2 1 3.8 1.1 2.8.1 3.4-2.3.3-1.1 0-2.3l-1 .2a4 4 0 0 1 0 1.8q-.5 1.5-2.4 1.6-1.4 0-3.4-1-1.8-1-3.3-1.1-1.4-.3-3.6.6-4.2 2-7.6 8.3z"/><path d="M707.4 383.2c1.4 5 4.3 5.9 4.6 6 0 .3-.8 4.1-3.7 4.7-5.4.3-6.9-4-4.5-8.4 1-1 3.6-2.2 3.6-2.3"/><path fill="#fff" d="M704.1 388.7q0 1 2 2 2 .6 2.6-.3 0-1-2-2-2.1-.6-2.6.3"/><path d="M776.3 589.1q.3.6-.1 1-.7.5-2.1.7h-.2l-.3-.3-.3.3q-2.6 0-3.8-1.2l.2-.1-1.3-1.4-.2-.4Q760 579 751 572q2.7 1.1 3.8 1l.9-.3a54 54 0 0 0 5.2 4.2l.6-.8q-3.4-2.5-5.3-4.3l.1-.4a8 8 0 0 0-.4-2.7q1.4.6 2.7.7 7.8 6.3 19.5 20l.8-.8a176 176 0 0 0-18.6-19.2 7 7 0 0 0 3.7-1.7c2.3-2.2 2.7-3.9 1.6-6l-1 .6c1 1.6.5 2.8-1.3 4.6l-.4.4-6.6-10.1-.8.6 6.5 10q-1.4.7-3 .6h-.1a12 12 0 0 1-3.4-1l-8-7.4q.7-.1 1.2-.7c1-1.7 0-4-3.5-8.5l-.8.7c3.2 4 4 6 3.5 7.1q-.5.5-1.4.5L741 554l-.7.7 5.5 5.1v.3h.3l8.4 7.8q.8 2.4.8 3.4l-.5.5v.1h-.1a19 19 0 0 1-5.7-2l-8.7-9.8-.8.7 8.3 9.3-.4.6.8.6q0 1-.2 1.4-.5.4-1.6.1-2.5-.7-5-3l-4.5-5.2-.8.7 4.2 4.7-.2.7q-.8 3-2.4 3.2c-1-.1-2.3-1.5-4.5-5.1q-2.4-3.8-3.4-4.5l-.5 1q.8.5 3 4 3.2 5.2 5.1 5.6l-.4.6a56 56 0 0 1 15.2 16.5 8 8 0 0 1-2.1 1.8q-2 1.3-2.7 1-1.4-.5-8.8-9.8-5.6-7.1-6.8-7.8l-.5 1q1 .5 6.5 7.5c5.1 6.5 8.1 9.6 9.2 10.2q.9.2 2.2-.4 7.8 6.5 18.3 17l.7-.7q-10.2-10.5-18-16.8l.4-.3q1.7-1 2.3-2l.5.5-.4.4q8.3 8.4 14.7 14l.7-1q-6-5-13.5-12.6 1.1.6 2.4.7 1.1 0 2-.3 8 6.3 23.6 20.3l.7-.8a716 716 0 0 0-23.4-20.1l.5-.7q1.7 1.1 4.2.8l-.1.2q8.2 8.2 16.5 14.6l.7-.8q-8-6.4-16-14.2l1.6-.8q7.8 6.1 19.5 17.1l.7-.8q-11.7-10.9-19.5-17l.7-1.5q1.5 1.4 4.4 1.2 7.7 7.6 10 8.3l.2-1c-1.2-.6-4.1-2.8-8.9-7.5q1.3-.2 2-.8 1.3-1 .4-2.4zm-29.1-15q3.9 3 7.4 6.3l.7-.8q-3.2-3-6.8-5.9l.3-.2q.4-.6.6-1.4 9.9 7.5 18.8 17.3c-.1 2-1 2.8-2.8 3.4q-2.8.5-4.4-1l-.6-.5q-1.2-2.2-4-5.7-6-7.4-15-14.5l-.4.5.2-.7q2.4 2.2 5 3zm-6.3-2a98 98 0 0 1 14.7 14.2q3 3.6 4 5.9l.6-.3-.1.2q-.5 1.6-2.6 1.5a7 7 0 0 1-4.2-2.1l-.2-.2a57 57 0 0 0-15-16.4l1.4-.6q3.5 2.8 5.6 5l.8-.8-5.7-5zm6.4-146q-.6 5-3 12l-.1.2.2.3q3.6 3.7 4.4 9.5l1-.2q-.9-5.8-4.4-9.8 2.2-6.9 3-12zm-36 81.8c2.2-7.1 6-11.3 12.3-13.6l-.4-1a20 20 0 0 0-12.8 14.3zm-12.6-.2c2.1-7 6-11.1 12.2-13.3l-.4-1q-9.7 3.1-12.8 14zm8.2 13.6a29 29 0 0 1 14 13l1-.4q-1.3-2.4-3.6-5.3a31 31 0 0 0-11-8.3zm23.7 31.5a21 21 0 0 1 4 6.6h-.2l-1.4-.4q-2.7-1.1-6.8-4l-.6.8q4.2 3 7 4.2 1.2.6 1.9.5.5 0 .8-.4.3-.3.3-1a21 21 0 0 0-4.2-7zm8.6-103c.7 2.6-.2 5.5-2.9 9.9a43 43 0 0 1-4.4 5.6l.7.8q2.4-2.5 4.6-5.8c3-4.7 3.8-8 3-10.8zm-17.1 59c2.5-8.7 5.2-13.2 8.5-14.5l-.3-1c-3.7 1.4-6.6 6.1-9.2 15.1zM741 460c.6 2.5-.3 4.5-3.3 7.2a24 24 0 0 1-4.9 3.2l.5 1a25 25 0 0 0 5-3.4c3.5-3 4.5-5.4 3.7-8.4zm-7.9 46c1-7.7 2-11.5 3.6-12.6l-.5-1c-1.9 1.4-3.2 5.4-4.1 13.4zm1.7-59.7c.8 2.6.5 4.9-1 8a17 17 0 0 1-2.4 3.5l.7.8q1.4-1.5 2.7-3.9c1.5-3.3 1.8-5.9 1-8.7zm8.3 52.6q-1.2-8.5-.5-11.8l-1-.2q-.7 3.4.5 12.2zm17.4-70.2c-2 5-3.6 7.1-5.7 7.4v1c2.6-.2 4.5-2.5 6.7-8zm1.6 9.4c-2 5-3.5 7.1-5.6 7.4v1.1c2.6-.3 4.5-2.6 6.6-8.1zm-25.8 37q-.2 2.2-3.8 2.8-1.9.3-3.8 0l-.1 1q2 .3 4 0 4.3-.6 4.8-3.8zm-1.9 102 6.9 6.7q.5.1.5-.4v-.4l-.3-.3h-.1l-6.2-6.4zm23.6-93.3c-4.7-1.4-6.4-2.8-6.2-4.8l-1-.2c-.3 2.7 1.6 4.4 6.9 6zm6-27.8c-2.4 3.3-4.3 4.7-6.4 5v1c2.5-.2 4.6-1.8 7.3-5.4zm1.3-10.1c-2.4 3.3-4.3 4.8-6.5 5v1q3.6-.1 7.3-5.4zm-3.5 20.5q-4 1-7.1 1.1v1a34 34 0 0 0 7.3-1zm-33.6-52q.5 1.8-.7 4.5l-1 1.6h.3q.5-.1.5.4v.2l-.9-.6v.3l-.1.2q0 .6.5.5l.4-.1.3-.4 1-1.7q1.4-2.9.7-5.2zm-31.6 45.7L692 465l.8.7 4.5-4.8zm32-70.7q2 0 2.1 4.5h1c-.2-3.9-1-5.4-3.2-5.6zm-14.3 42.3-3.6 4.7.8.7 3.6-4.8zm40.7-9.5-.1 2q-.5 1.8-2.2 1.7v1.1q2.4 0 3.2-2.6.3-1.1.2-2.3zm-3.3 67.6-1.8-.5q-1.4-1-1.2-2.6l-1-.2q-.5 2.5 1.7 3.7 1 .6 2.2.7zm-39.2-44.1-3.8 4.3.8.8 3.8-4.4zm47 28.2-4.1.3v1q3.4 0 4.3-.2zm-27.2 70.4 2.2 3.5 1-.5-2.3-3.6zm-12-145.1q2.1 0 2.8 1.3l1-.4q-1-1.9-3.9-2zm21.1 183.6-.6.6v-.2q0-.4.5-.4zm-67.8-106c-.1.2-2.2 5.4-3.7 6.3 0 0-1.6.4-2.9-.4-1-1 0-2.2 0-2.3 1.7-1.8 6.4-3.6 6.6-3.7m9.2 3.7c0 .3.1 6.1-.9 7.5a4 4 0 0 1-2.7.9c-1.2-.5-.9-2-.9-2.2.8-2.4 4.4-6 4.5-6.2m-6.3 22.5c0 .3.1 6-.9 7.5 0 0-1.3 1-2.7.8-1.2-.5-.9-2-.8-2.1a22 22 0 0 1 4.4-6.2m-15.5 5.2.1.4h.4q.3 0 .5-.2c.5-1 .4-4 .1-6.4.8-1 2-2.8 2-4q0-.5-.4-.8l-.4-.3-.3.3c-.5.4-3.5 3-4 4.8 0 1 1.5 5 2 6.2m34.3 21.4c1.2.4 2 3.4 1.4 5.1 0 .1-.9 1.5-2.2 1.8-1.3 0-1.5-1.5-1.5-1.7-.4-2.7 0-5 2.3-5.2m7 52.5a9 9 0 0 0 2.8 2.5l.3.2.3-.2q1-.9-1.2-4.5c0-1.2-.2-3.7-1-4.7l-.8-.3h-.4v.4c-.2.7-.7 5 0 6.6m16.2 5.5q.5.7 1.3.7l1.3-.2v-.1c.9-.9.6-2.7.3-3.8 0-1.2-.2-3.8-1-4.8l-.8-.3h-.3l-.1.4c-.3 1.3-1.3 6.3-.7 8M705 561.9q.6.7 1.3.7l1.3-.2h.1c.8-1 .5-2.9.2-4-.2-.7-1-2.8-2.6-3l-.4.1v.4c-.2.6-.6 4.3.1 6M684 542a24 24 0 0 1 1.8 7.5s-.8 1.4-2.2 1.8c-1.3 0-1.5-1.6-1.5-1.8-.2-2.6 1.8-7.4 1.9-7.5m7.4 15.7a8 8 0 0 1 4.3 7.8c0 .1-.3 1.7-1.5 2.4-1.2.4-1.8-1-1.9-1.1-1.3-2.7-3.2-6.7-.9-9m20.6-22c2.5 2 2.5 3.2 2.5 5 0 .1 0 1.7-1 2.7-1.2.6-4.2-.7-4.4-.8-1.1-2.2 2.3-2 2.9-7M684.5 509c2.6 2 2.6 1.7 2.6 5.2 0 0-1 2.6-2 3.5-1 .5-2-1.6-2-1.8-1.4-2.5-.8-6 1.4-6.9m-18.9 12.7c1.2.5 2 3.5 1.5 5.2 0 0-.9 1.4-2.3 1.7-1.2 0-1.5-1.6-1.5-1.7-.3-2.8 0-5 2.3-5.2m8 10.7c1.8 5.7 3.3 7.3 2.8 8.8 0 0-1.9.4-3.2.5s-1.5-1.5-1.5-1.7c-.2-2.5 1.3-1.7 1.9-7.6m44.9 66c1.2.3 2 3.2 1.4 5 0 .1-.8 1.5-2.2 1.9-1.3 0-1.5-1.5-1.5-1.7-.4-2.7 0-5 2.3-5.3"/><path fill="#eace24" d="M493.5 394c.3-3.3 0-9-1.4-12.2-.7-1-1.8-2.2-3-2.4-1 0-2.2 0-2.8.9-.4.8-.7 2.5-.6 3.6.2 1.4 1.6 4.3 1.6 4.4 0 0-5.2-2.1-7.2-3.8a19 19 0 0 1-4.3-7.2 11 11 0 0 1 0-6.4c.6-1.8 2.2-3.8 3.5-4.9 3.9-2.4 9.8-.7 11.5.3a16 16 0 0 1 4.8 6 73 73 0 0 1 3.1 16.4c.2 2.4.6 4.5.2 6.8-.3 1.2-.6 4-1.3 5.8a7 7 0 0 1-2.6 3.2 24 24 0 0 1-7.9 1.4s3.2-3.9 4.1-5.7c1-2.2 2-3.7 2.3-6.2"/><path fill="#806600" d="M493 393.9q.7-7.7-1.4-11.9-1-1.9-2.4-2-2-.3-2.4.6a6 6 0 0 0-.6 3.3q.1 1.3 1.6 4.2l.5 1-1-.3q-5.6-2.1-7.5-3.9a16 16 0 0 1-4.6-7.5v-.2q-.7-3.6 0-6.6a11 11 0 0 1 3.8-5c1.8-1.2 3.8-1.6 6.9-1.3q3.5.5 5.2 1.6 3.6 2.8 5 6.3a57 57 0 0 1 2 8.3q.8 4.2 1.1 8.3l.2 1.8q.3 3.4 0 5.1l-.2 1.3-1 4.6a8 8 0 0 1-2.8 3.3q-2 1.5-8.2 1.6h-1.3l.8-1q3.3-3.9 4-5.6l.7-1.2q1.4-3 1.6-4.8m-.7 5.4-.6 1.2q-.7 1.6-3.4 4.9 4.8-.3 6.3-1.3l.1-.1q1.8-1.4 2.4-3 .5-1.2 1-4.4l.3-1.3q.3-1.5 0-4.8l-.2-1.8-1-8.2q-.9-4.4-2.1-8-1.1-3.2-4.5-5.7-1.4-1-4.7-1.4-4-.5-6.2 1a10 10 0 0 0-3.4 4.7q-.9 2.6 0 6v.2a15 15 0 0 0 4.1 6.9q1.6 1.4 6 3.2-1.1-2.4-1.2-3.5a7 7 0 0 1 .6-4q.8-1.3 3.4-1 2 .2 3.3 2.7 2.2 4.3 1.5 12.6-.2 2-1.7 5"/><path fill="#eace24" d="M508.2 396.3c-.3-3.4 0-9 1.4-11.8q1.1-1.5 2.9-1.5c1 .3 2.3.7 2.9 1.8.4 1 .7 2.8.6 3.8a18 18 0 0 1-1.6 3.9s5.2-.5 7.2-1.5c1.8-1.4 3.6-3.6 4.3-6 .2-.8.9-3 0-6.4-.6-2-2.3-4.5-3.6-6a14 14 0 0 0-11.5-3.2c-1.8 1-3.8 2.6-4.7 4.5a64 64 0 0 0-3 15.5c-.3 2.3-.7 4.3-.3 6.7.2 1.3.6 4.2 1.3 6.2s1.7 3 2.6 4c2.1 1.9 7.7 3.8 7.9 3.9 0 0-3.2-5-4.2-7-1-2.5-1.9-4.3-2.2-6.9"/><path fill="#806600" d="m510.3 401.6.6 1.4q1 2 4 6.9l.9 1.2-1.3-.4a21 21 0 0 1-8.1-4l-.1-.2a13 13 0 0 1-2.8-4.1l-1-5-.2-1.3a19 19 0 0 1 0-5.1l.2-1.7 1-8q.8-4.2 2.1-7.6a9 9 0 0 1 5-4.8q1.6-.6 5.2 0 4.4 1 6.9 3.4 2.7 3 3.7 6.2t0 6.6v.2q-1 3.7-4.5 6.1-2 1.2-7.4 1.6h-1.2l.6-.9q1.4-2.4 1.6-3.7a7 7 0 0 0-.6-3.5q-.5-.9-2.4-1.4-1.4-.1-2.5 1.4-2 3.4-1.3 11.4.2 1.9 1.6 5.3m-2.7-5.3c-.5-5.8 0-9.5 1.5-12.1q1.4-2.2 3.4-1.7 2.6.6 3.3 2a8 8 0 0 1 .7 4.2q0 1.2-1.2 3.1 4.3-.3 6-1.3a10 10 0 0 0 4.1-5.6v-.2q.8-3 0-6-1-3-3.4-5.7a12 12 0 0 0-6.2-3 10 10 0 0 0-4.7 0 8 8 0 0 0-4.5 4.2q-1.3 3.3-2 7.4l-1 8-.3 1.7q-.3 3 0 4.8l.2 1.4 1 4.7q.7 1.7 2.4 3.7h.2q1.4 1.7 6.2 3.3a45 45 0 0 1-3.4-5.9l-.6-1.4q-1.4-3.5-1.7-5.6"/><path fill="#eace24" d="M500.8 419c.2-.2 4.4-3.4 5.6-8 .4-4.3-2.3-9.6-2.7-11.7-.8-8.3 1-18.5 1.3-19.4.8-3.3 1.6-4.7 2.1-5.7l2.4-3.7c.6-.8 1.8-2.3 2.5-4a14 14 0 0 0 0-9c-.4-1.4-1.6-3.6-3.5-5.2l-4.3-3.5a18 18 0 0 1-3.4-6.5c0 .2-1.4 4-3.4 5.5l-4.2 2.1c-2 1-3.1 2.8-3.6 4.1a14 14 0 0 0 0 9.1c.7 1.8 2 3.7 2.6 4.7 1 1.7 2 3.5 2.3 4.4.6 1.2 1.4 2.8 2.2 6.4.2 1 2 11.8 1.3 19.8-.5 2-3.2 6.4-2.8 10.8 1.1 4.9 5.4 9.6 5.6 9.8"/><path fill="#806600" d="m500.8 419-.3.3a20 20 0 0 1-5.8-10.1q-.5-3.1 1.8-8.5l1-2.5q1-8.3-1.3-19.5-.6-3-1.8-5.6l-.3-.7q-.4-1-2.4-4.3l-.4-.8-2.1-4q-.8-2.1-.8-5 0-2.2.7-4.5 1-2.9 3.8-4.4l4-2 .2-.1q1.7-1 3.2-5 0-.5.5-.5t.6.6q1.5 4.6 3 6l4.4 3.5q2.7 2.3 3.8 5.5.7 2.6.7 4.8 0 2.8-.8 4.7-.5 1.3-2.1 3.4l-.5.6-2.3 3.5q0 .3-.3.7-1.2 2.3-1.8 5-2.3 10.4-1.3 19.2 0 .6 1 2.8 2.2 6 1.7 9-.9 4.8-5.8 8.3zm0-.7c3-2.4 4.5-4.6 5.1-7.5q.3-2.7-1.7-8.5-1-2.3-1-3-1-8.9 1.3-19.6a23 23 0 0 1 4.6-9.6l.4-.6q1.5-2 2-3.2.7-1.6.8-4.3 0-2-.7-4.4-1-2.9-3.4-5l-4.3-3.4a13 13 0 0 1-3.1-5.3q-1.5 3.5-3 4.4h-.3l-4 2.1q-2.6 1.3-3.4 3.8a14 14 0 0 0 0 8.8q.5 1.4 2 3.8l.5.8 2.4 4.5.4.7a32 32 0 0 1 1.8 5.8 65 65 0 0 1 1.3 20q0 .6-1 2.7-2.2 5.2-1.8 7.9.8 4.4 5.1 9"/><path fill="#eace24" d="m511.6 395-2.3-3.8-17-2.6-2.3 3 2.4 3.7 17 2.7z"/><path fill="#806600" d="m512.3 395-2.7 3.5-17.5-2.7-2.7-4.3 2.7-3.5 17.5 2.7 2.5 4zm-1.3-.2-2-3.1-16.4-2.6-2 2.6 2 3.1 16.4 2.6z"/><path fill="#eace24" d="M402.3 380.7c.2-3.3 0-9-1.5-12.1-.6-1-1.8-2.2-2.9-2.4-1 0-2.3.1-2.9 1-.4.9-.6 2.6-.6 3.6a26 26 0 0 0 1.7 4.4c-.1 0-5.3-2-7.3-3.5a18 18 0 0 1-4.3-7.1c-.2-1-.8-3.4 0-6.5.7-1.8 2.3-3.8 3.6-5 3.8-2.5 9.7-1 11.5 0a16 16 0 0 1 4.7 5.9 72 72 0 0 1 3.1 16.3c.2 2.4.6 4.5.2 6.8-.2 1.2-.6 4-1.2 5.8a8 8 0 0 1-2.7 3.3 25 25 0 0 1-7.8 1.6s3.1-4 4-5.8c1.1-2.2 2-3.7 2.4-6.3"/><path fill="#806600" d="M401.7 380.6q.7-7.8-1.3-11.8-1.1-1.9-2.4-2-2-.2-2.5.7a6 6 0 0 0-.6 3.3q.3 1.3 1.6 4.1l.6 1.2-1.1-.4q-5.6-2-7.5-3.7a16 16 0 0 1-4.5-7.3v-.2q-.9-3.7 0-6.6 1.2-3 3.7-5.2c1.8-1.2 3.8-1.7 6.9-1.5q3.6.5 5.2 1.5c2.6 1.9 4 3.7 5 6.2a56 56 0 0 1 3.2 16.4l.1 1.8q.4 3.4 0 5.2l-.2 1.2q-.5 3.3-1 4.7a9 9 0 0 1-2.7 3.4h-.1q-2 1.5-8.2 1.7h-1.2l.8-.9a36 36 0 0 0 4-5.7l.6-1.3q1.5-3 1.6-4.8m-.6 5.4-.6 1.3-3.4 5q4.6-.4 6.3-1.6 1.9-1.5 2.5-3A28 28 0 0 0 407 377l-.2-1.8q-.3-4-1-8.2-.8-4.3-2-8-1.2-3-4.6-5.5-1.4-.9-4.7-1.3-4-.3-6.1 1.3a11 11 0 0 0-3.5 4.7q-.7 2.7 0 6v.2q1 3.7 4.2 6.8 1.5 1.3 5.9 3-1-2.4-1.2-3.5-.3-2.1.7-4 .8-1.3 3.3-1.1 2 .2 3.4 2.6 2.3 4.4 1.5 12.6-.2 2-1.7 5.1"/><path fill="#eace24" d="M417 382.7c-.4-3.4-.1-9 1.4-11.8q1-1.6 2.8-1.6 1.8.3 3 1.7c.3 1 .6 2.8.6 3.8-.3 1.4-1.7 3.9-1.7 4 .1 0 5.2-.6 7.2-1.7 1.9-1.3 3.6-3.6 4.4-5.9.2-.9.8-3.1 0-6.5-.7-1.9-2.3-4.4-3.6-5.9a14 14 0 0 0-11.5-3c-1.9.9-3.8 2.6-4.8 4.6l-2 7.5a53 53 0 0 0-1 8c-.3 2.3-.7 4.3-.3 6.7.3 1.3.7 4.2 1.3 6.1.8 2 1.7 3 2.7 4 2 1.9 7.7 3.7 7.8 3.7s-3.2-4.8-4.1-6.9c-1-2.4-2-4.2-2.3-6.8"/><path fill="#806600" d="m419 388 .7 1.4q.8 2 4 6.8l.8 1.1-1.3-.3a21 21 0 0 1-8-3.9l-.2-.1a13 13 0 0 1-2.7-4.1q-.5-1.4-1-5l-.3-1.2q-.3-2 0-5.2l.2-1.7 1-8q.9-4.3 2.2-7.7a9 9 0 0 1 5-4.8q1.5-.6 5.2-.1c3 .6 5 1.6 6.8 3.3q2.7 3 3.8 6.1.9 3.3 0 6.7v.1q-1.1 3.8-4.5 6.2-2 1.2-7.5 1.7h-1.1l.5-.9a12 12 0 0 0 1.6-3.7q.2-1.9-.5-3.5-.5-1-2.5-1.4-1.4-.1-2.4 1.4c-1.4 2.5-1.8 6-1.4 11.5q.3 2 1.6 5.2m-2.6-5.2c-.5-5.8 0-9.5 1.5-12.2q1.4-2 3.4-1.7 2.6.6 3.3 2a8 8 0 0 1 .7 4.2q-.2 1.1-1.2 3.1 4.4-.5 5.9-1.4a10 10 0 0 0 4.2-5.7v-.2q.8-3 0-6-1-3-3.5-5.6a12 12 0 0 0-6.2-3 10 10 0 0 0-4.7 0 8 8 0 0 0-4.5 4.4q-1.2 3.4-2 7.5l-1 7.9-.2 1.8q-.3 3 0 4.8l.2 1.4q.5 3.3 1 4.6.6 1.8 2.4 3.7h.1q1.5 1.7 6.3 3.2a43 43 0 0 1-3.4-5.8l-.6-1.4q-1.5-3.5-1.7-5.6"/><path fill="#eace24" d="M409.6 405.5c.1-.2 4.4-3.5 5.6-8.2.4-4.2-2.3-9.5-2.7-11.6-.9-8.2 1-18.4 1.2-19.4.8-3.3 1.6-4.7 2.2-5.7q.6-1.4 2.3-3.7c.7-.9 1.9-2.4 2.6-4q.8-2.8.7-4.5 0-2.5-.7-4.6c-.4-1.4-1.7-3.5-3.6-5.1l-4.3-3.4c-2-2-3.3-6.3-3.4-6.4 0 .2-1.3 4-3.3 5.5l-4.3 2.2a9 9 0 0 0-3.6 4.2 15 15 0 0 0 0 9.1c.8 1.8 2 3.7 2.6 4.7l2.4 4.3c.5 1.2 1.4 2.8 2.1 6.4.2 1 2.1 11.7 1.3 19.7-.4 2-3.2 6.5-2.8 10.9a25 25 0 0 0 5.6 9.6"/><path fill="#806600" d="m409.6 405.5-.4.4a20 20 0 0 1-5.8-10q-.4-3.1 1.9-8.5l.9-2.5q1-8.5-1.3-19.6-.6-2.8-1.7-5.5l-.4-.7q-.4-1-2.3-4.3l-.5-.7q-1.5-2.5-2.1-4-.7-2-.8-5 0-2.2.7-4.5 1-3 3.9-4.5l4-2 .2-.2q1.6-.9 3-5.1.3-.5.7-.5.3.2.5.6 1.5 4.6 3.1 6l4.3 3.3q2.9 2.3 3.8 5.5.8 2.6.8 4.8 0 2.8-.8 4.7-.6 1.3-2.2 3.4l-.4.6-2.3 3.6-.4.7q-1.1 2.4-1.8 5-2.2 10.5-1.2 19.3 0 .5.9 2.7 2.2 6 1.8 9a14 14 0 0 1-5.8 8.5zm0-.7a13 13 0 0 0 5-7.6q.5-2.7-1.7-8.4l-1-3a62 62 0 0 1 1.3-19.6q.6-2.8 1.9-5.3l.3-.6q.5-1 2.4-3.8l.5-.6q1.5-2 2-3.2.6-1.7.7-4.4 0-2-.7-4.4a10 10 0 0 0-3.3-4.8l-4.4-3.4q-1.6-1.4-3-5.2-1.5 3.4-3.1 4.4h-.3l-4 2.2a7 7 0 0 0-3.4 4 15 15 0 0 0 0 8.7q.6 1.5 2 3.8l.6.7 2.4 4.4.3.8a30 30 0 0 1 1.9 5.7 65 65 0 0 1 1.2 20q0 .6-1 2.7-2.1 5.2-1.8 8 .9 4.4 5.2 8.9"/><path fill="#eace24" d="m420.4 381.3-2.3-3.8-17-2.2-2.3 3.1 2.3 3.7 17 2.2z"/><path fill="#806600" d="m421 381.4-2.7 3.5-17.5-2.3-2.7-4.3 2.7-3.6 17.5 2.4 2.5 4zm-1.3-.2-2-3.1-16.3-2.2-2 2.6 2 3 16.4 2.3z"/><path fill="#eace24" d="M584.8 407.6c.3-3.3 0-9-1.5-12.2-.6-1-1.8-2.1-2.9-2.3s-2.3 0-2.9.9a10 10 0 0 0-.6 3.6c.3 1.4 1.7 4.3 1.7 4.4-.1 0-5.2-2-7.3-3.7a19 19 0 0 1-4.3-7.1c-.2-1-.8-3.4 0-6.5.7-1.8 2.3-3.8 3.6-4.9 3.8-2.4 9.7-.8 11.5.2 1.8 1.4 3.8 3.7 4.7 5.8a72 72 0 0 1 3.1 16.3c.2 2.5.6 4.6.2 6.9-.2 1.2-.6 4-1.2 5.8a8 8 0 0 1-2.7 3.3 24 24 0 0 1-7.8 1.5s3.1-4 4.1-5.8c1-2.2 2-3.7 2.3-6.2"/><path fill="#806600" d="M584.3 407.5c.4-5.3 0-9-1.4-11.9q-1.1-1.9-2.4-2-2-.2-2.5.7a6 6 0 0 0-.6 3.3q.3 1.3 1.6 4.2l.6 1-1.1-.3q-5.5-2-7.5-3.8a16 16 0 0 1-4.5-7.5v-.1q-.9-3.7 0-6.6 1.1-3 3.8-5.1 2.4-1.7 6.8-1.4 3.6.5 5.2 1.5 3.7 2.8 5 6.2a55 55 0 0 1 3.2 16.5l.1 1.8q.4 3.4 0 5.2l-.2 1.2q-.5 3.3-1 4.6a9 9 0 0 1-2.7 3.4l-.1.1q-2 1.5-8.2 1.6h-1.2l.7-.9q3.3-4 4.1-5.6l.6-1.3q1.5-3 1.6-4.8m-.6 5.4-.6 1.2q-.9 1.6-3.4 5 4.7-.4 6.3-1.5 1.8-1.5 2.5-3l1-4.5.2-1.3q.3-1.5 0-4.8l-.2-1.8q-.3-4-1-8.2a55 55 0 0 0-2-8q-1.2-3.2-4.6-5.6-1.4-.9-4.7-1.3-4-.4-6.1 1.2a10 10 0 0 0-3.5 4.6q-.7 2.7 0 6v.2q1 3.8 4.2 6.9c1 1 3 2 5.9 3a14 14 0 0 1-1.2-3.4 7 7 0 0 1 .7-4q.8-1.3 3.3-1 2 .1 3.4 2.6 2.2 4.4 1.5 12.5-.3 2-1.7 5.2"/><path fill="#eace24" d="M599.4 409.5c-.3-3.4 0-9 1.4-11.8q1.1-1.5 3-1.6c1 .2 2.2.7 2.8 1.7.4 1 .7 2.8.6 3.8-.2 1.3-1.6 3.9-1.6 4 .1 0 5.2-.7 7.2-1.8 1.9-1.4 3.6-3.7 4.4-6 .2-.9.8-3.2 0-6.5a19 19 0 0 0-3.6-5.8 14 14 0 0 0-11.5-2.9c-1.9 1-3.8 2.7-4.8 4.6a65 65 0 0 0-3 15.5q-.6 3.4-.3 6.8c.3 1.3.7 4.1 1.3 6.1.8 2 1.7 3 2.7 4 2 1.8 7.7 3.6 7.8 3.6s-3.2-4.8-4.1-6.8c-1-2.5-2-4.3-2.3-6.9"/><path fill="#806600" d="m601.6 414.8.6 1.4a50 50 0 0 0 4 6.7l.8 1.2-1.3-.4a20 20 0 0 1-8-3.7l-.2-.1a13 13 0 0 1-2.7-4.1q-.5-1.5-1-5l-.3-1.3q-.3-1.8 0-5.1l.2-1.7 1-8q.9-4.3 2.1-7.7 1.4-3.2 5-4.9 1.7-.6 5.3-.2 4.3.9 6.8 3.2 2.7 3 3.8 6 .9 3.3 0 6.7v.1q-1.1 3.9-4.6 6.3-1.9 1.3-7.4 1.9h-1.1l.5-.9q1.5-2.5 1.6-3.7.2-1.9-.5-3.5-.5-1-2.5-1.3-1.4-.3-2.4 1.4-2 3.4-1.4 11.4.3 2 1.6 5.3m-2.6-5.3q-.7-8.4 1.5-12.1 1.4-2.2 3.4-1.8 2.5.5 3.3 2a8 8 0 0 1 .7 4.1 11 11 0 0 1-1.2 3.2q4.4-.6 6-1.6 3-2.3 4-5.7l.1-.2q.8-3.1 0-6-1-3-3.5-5.6a11 11 0 0 0-6.2-2.8q-3.2-.5-4.7.1a8 8 0 0 0-4.5 4.4q-1.2 3.3-2 7.5-.7 4-1 7.9l-.2 1.7q-.3 3.2 0 4.8l.2 1.4 1 4.7a11 11 0 0 0 2.4 3.6l.1.1q1.5 1.6 6.3 3.1a44 44 0 0 1-3.4-5.8l-.6-1.4q-1.4-3.4-1.7-5.6"/><path fill="#eace24" d="M592 432.4a17 17 0 0 0 5.7-8.2c.4-4.2-2.3-9.5-2.8-11.6a79 79 0 0 1 1.3-19.4c.8-3.3 1.7-4.7 2.2-5.8q.7-1.3 2.4-3.7c.6-.8 1.8-2.4 2.5-4a14 14 0 0 0 0-9c-.4-1.5-1.7-3.6-3.6-5.2l-4.3-3.4c-2-1.9-3.3-6.2-3.4-6.3 0 .1-1.3 4-3.3 5.5l-4.3 2.2a8 8 0 0 0-3.6 4.1 14 14 0 0 0 0 9.2c.8 1.8 2 3.6 2.6 4.6l2.4 4.4c.5 1.2 1.4 2.8 2.2 6.3.1 1 2 11.8 1.2 19.8-.4 2-3.2 6.4-2.8 10.8 1.2 5 5.5 9.5 5.6 9.7"/><path fill="#806600" d="m592 432.4-.3.4a20 20 0 0 1-5.8-10q-.4-3.1 1.9-8.5l1-2.6q.8-8.3-1.4-19.5a29 29 0 0 0-1.8-5.5l-.3-.8-2.3-4.2-.5-.8q-1.5-2.5-2.1-4a16 16 0 0 1 0-9.5q1-2.9 3.7-4.4l4-2.1.3-.1q1.6-1 3.1-5.1.2-.5.5-.5.4 0 .6.6 1.5 4.6 3.1 6l4.3 3.3q2.9 2.3 3.8 5.4.8 2.6.8 4.8 0 2.8-.8 4.7-.6 1.3-2.2 3.4l-.4.7-2.4 3.6-.3.7a23 23 0 0 0-1.8 5q-2.2 10.5-1.2 19.2 0 .6.9 2.8 2.2 6 1.8 9a14 14 0 0 1-5.8 8.5zm0-.7a13 13 0 0 0 5.2-7.6q.4-2.7-1.8-8.4l-1-3q-1-9 1.3-19.7a24 24 0 0 1 1.9-5.2l.3-.7 2.4-3.7.5-.7q1.5-2 2-3.2.7-1.7.7-4.4 0-2-.7-4.4-.8-2.8-3.3-4.8l-4.3-3.3q-1.8-1.4-3.1-5.2-1.5 3.3-3.1 4.4h-.3l-4 2.2a7 7 0 0 0-3.4 3.9 14 14 0 0 0 0 8.7q.5 1.4 2 3.8l.6.8 2.4 4.4.3.7q1.2 2.9 1.9 5.8 2.2 11.3 1.3 19.9l-1 2.8q-2.2 5.1-1.8 8 .8 4.3 5 8.9"/><path fill="#eace24" d="m602.9 408-2.3-3.6-17-2.2-2.3 3 2.3 3.7 17 2.3z"/><path fill="#806600" d="m603.5 408.2-2.7 3.5-17.5-2.3-2.7-4.2 2.7-3.6 17.5 2.3 2.5 4zm-1.3-.2-2-3.1-16.3-2.2-2 2.6 2 3.1 16.4 2.2z"/><path fill="#eace24" d="m475.2 632.6 51.1 7.9v12.3l-51-8zm0-2.7a89 89 0 0 0-6.4-34.4h1.9c3.7.9 6.2 3.8 6.5 7.7q0 1.4-.5 2.5 1.3-.4 2.8-.2c3.7.9 6.2 3.8 6.5 7.7q-.6 6-6.5 5.7-.8 0-1.4-.4 1.1 7.5 5.5 8.8 3.2.3 4.8-4.3 1.7 5 5 5.8c3 .2 5-2.9 5.5-8q-1.6.8-3.7.5a8 8 0 0 1-6.6-7.7q.6-6 6.5-5.7a8 8 0 0 1-.9-3.5c.3-3.8 2.8-6 6.6-5.6 3.8.8 6.2 3.7 6.5 7.7q0 1.8-.8 3.2c3.7.9 6.2 3.8 6.4 7.7-.2 3.9-2.7 6-6.5 5.7a8 8 0 0 1-3.7-1.8c.4 5.3 2.5 9 5.6 9.9q3.2 0 4.8-4.3 1.6 5 4.9 5.8 4.4-.1 5.5-7.1l-1.4-.1a8 8 0 0 1-6.5-7.7q.6-6 6.5-5.7 1.5.3 2.8 1a8 8 0 0 1-.5-2.6q.6-6 6.5-5.7l1.9.5a77 77 0 0 0-6.5 32.5z"/><path fill="#806600" d="M474.7 629.9a88 88 0 0 0-6.4-34.2l-.3-.7h2.6q3 .4 5 2.8 2 2.5 2.1 5.5 0 .9-.2 1.6h2q2.9.5 5 3 2 2.4 2 5.4t-2 4.8a6 6 0 0 1-5.8 1.2c.8 4.8 2.1 6.8 4.9 7.5q2.8.3 4.3-4l.5-1.5.5 1.7q1.6 4.8 4.4 5.3 1.9.2 3.3-1.8t1.7-4.9q-1.5.5-3.1.3-3-.5-5-3a9 9 0 0 1-2.1-5.4q0-2.8 2-4.8a6 6 0 0 1 4.2-1.4q-.6-1.5-.6-3 0-2.9 2-4.7 2.2-1.7 5-1.4 3 .5 5 3 2 2.4 2.1 5.3 0 1.6-.5 2.8a9 9 0 0 1 6.2 8.2q0 2.9-2.1 4.8a6 6 0 0 1-5 1.3 8 8 0 0 1-3.1-1.2q.4 3 1.6 5.3 1.4 2.5 3.3 3c2.1 0 3.3-1 4.4-4l.5-1.6.5 1.7q1.5 4.8 4.4 5.3c2.8.2 4-1.4 4.9-6h-.8q-2.9-.6-5-3a9 9 0 0 1-2-5.4q0-3 2-4.8 2.1-1.8 5-1.4l2 .6-.3-1.7q0-3 2.1-4.8t5-1.4l2 .6.6.3-.2.5a74 74 0 0 0-6.4 32.3v.5l-52.2-8zm1-.4 50.1 7.7q.3-19.4 6.2-31.6l-1-.3q-2.5-.3-4.3 1.2a5 5 0 0 0-1.8 4q0 1.3.5 2.5l.5 1.4-1.2-.8a7 7 0 0 0-2.6-1q-2.5-.3-4.2 1.2a5 5 0 0 0-1.8 4 7.4 7.4 0 0 0 6 7.2h2l-.1.7a12 12 0 0 1-2 5.6q-1.7 2.1-4 1.9c-2.2-.5-3.6-1.8-4.9-4.8-1.3 2.6-2.6 3.5-4.9 3.3q-2.4-.5-4.2-3.5-1.6-3-1.8-7v-1l.8.7q1.5 1.3 3.4 1.6 2.4.3 4.3-1.1a5 5 0 0 0 1.7-4.1 7.4 7.4 0 0 0-6-7l-.9-.2.5-.8q.8-1.3.8-3a7.4 7.4 0 0 0-6-7q-2.5-.4-4.3 1.2a5 5 0 0 0-1.7 4q0 1.8.8 3.2l.4.9-.9-.1q-2.5-.4-4.2 1.1a5 5 0 0 0-1.8 4.1 7.4 7.4 0 0 0 6 7q1.9.3 3.5-.5l.8-.5v1.1a13 13 0 0 1-1.9 6.4c-1.3 1.7-2.4 2.3-4.2 2.2q-3.1-.6-4.9-4.8c-1.3 2.6-2.6 3.5-4.8 3.3q-2.3-.5-4-3.2-1.6-2.6-2-6.2l-.1-.7.7.2 1.2.4q2.5.3 4.3-1.2a5 5 0 0 0 1.8-4 7.4 7.4 0 0 0-6-7.2 6 6 0 0 0-2.6.2l-1.2.4.5-1.2a6 6 0 0 0 .5-2.3 7.4 7.4 0 0 0-6-7l-1.2-.1q6 14 6.2 33.5m51.1 10.5v13.4l-52-8V632zm-51-6.8v11.2l50 7.7V641z"/><path fill="#806600" d="M502.3 615.7h7l-7.4-2.3-1.1-7.7-1.2 7.3h-7.3l7 2.2zM475 634.6q.4 0 .7.4l.3.4 1.2 3v.8l-1.2 2.6q-.4.5-1 .5zm.6-21.1 6.7-1.3-7.4-1-2.4-7.6 1.8 9.3z"/><path fill="#806600" d="M473.7 609.7h.3l.3.2.4.4.3.4q.8 1.1.9 2.6l-.1 1-.1.1-.3.7-.3.2-.2.1h-.1l-1.2-5.8z"/><path fill="#ff8080" d="m496 641.8 4.5-2 4.6 3.4-4.6 2z"/><path fill="#9e7800" d="m495.6 641.3 4.6-2.1h.6l4.5 3.6q.5.3.2.7l-.2.2-4.5 2h-.6l-4.6-3.5q-.4-.4-.1-.8zm1.3.6 3.6 2.7 3.5-1.6-3.5-2.7z"/><path fill="#ff8080" d="m496 641.8 4.5-2 4.6 3.4-4.6 2z"/><path fill="#ba0028" d="m505 643.2-4.4 2h-.1v-2.7z"/><path fill="#cf1e45" d="M500.5 642.5v2.8l-4.6-3.5z"/><path fill="#ff083c" d="M500.5 639.7v2.8l4.6.7-.1-.1-4.2-3.1z"/><path fill="#f9c" d="m472.5 638 2.7-2.3 1.3 3-1.3 2.6z"/><path fill="red" d="m472.5 638 4 .7-1.3 2.6z"/><path fill="#ccc" d="M473.6 610.4h.3q1.2 1.2 1.2 2.7 0 .8-.4 1.5l-1 .2q-2-.6-2.2-2.5.1-2 2.1-2"/><path fill="#9e7800" d="m473.6 609.8.3.1h.2v.1q1.5 1.5 1.6 3.2 0 1-.5 1.8l-.2.1q-.6.3-1.4.2a3 3 0 0 1-2.6-3.1q0-1.1.7-1.8.9-.7 2-.6m0 1.1q-.7 0-1.2.3-.5.5-.5 1.1t.5 1.3q.5.4 1.1.6h.8l.2-1.1a3 3 0 0 0-1-2.2"/><path fill="#fff" d="M472.6 611.1q1 .2 1 1.2t-1 .9-1-1.2 1-.9"/><path fill="#806600" d="m526 621.2-6.7-3.3 7.4 1.2 2.4-6.8-1.8 8.8z"/><path fill="#806600" d="M527.9 618h-.7q0 .2-.3.3l-.3.3q-.9 1-1 2.3l.2 1v.2l.4.8.2.3.2.2h.2z"/><path fill="#ccc" d="M528 618.8h-.3q-1.2.6-1.3 2.3 0 .8.4 1.5.6.5 1.1.5 2 .1 2.2-1.8a3 3 0 0 0-2.2-2.5"/><path fill="#9e7800" d="M528 618.2a3 3 0 0 1 2.6 3.1q0 1.2-.8 1.9-.7.6-1.9.5-.8-.1-1.4-.6v-.1l-.1-.2q-.5-.9-.5-1.8 0-1.9 1.5-2.8zm0 1q-1 .6-1 2l.3 1.1q.4.3.7.3.7 0 1.2-.3.4-.4.5-1.1 0-1.7-1.7-2"/><path fill="#fff" d="M528.3 619.3q-1 0-1 .9t1 1.2q1 0 1-1t-1-1.1"/><path fill="#806600" d="M526.6 642.6a1 1 0 0 0-1 .5l-1.2 2.5v.9l1.2 3q.3.6 1 .7z"/><path fill="#ff083c" d="m529 646.8-2.7-3.2-1.2 2.6 1.2 3z"/><path fill="#ba0028" d="m529 646.8-3.9-.6 1.2 3z"/><path fill="#ccc" d="M503.2 614.7q-.2 2.3-2.4 2.1a3 3 0 0 1-2.4-2.8q.2-2.2 2.4-2.1a3 3 0 0 1 2.4 2.8"/><path fill="#9e7800" d="M503.5 614.8q0 1.1-.8 1.8t-2 .5q-2.5-.5-2.6-3.2 0-1 .8-1.8.8-.6 1.9-.5 2.6.5 2.6 3.2m-.5-.1a3 3 0 0 0-2.1-2.5q-.8-.2-1.5.4a2 2 0 0 0-.7 1.4q0 2.2 2.2 2.5 2.1.4 2.1-1.8"/><path fill="#fff" d="M501.4 613.7q0 1-1 .9-1-.3-1-1.2 0-1 1-1 1 .4 1 1.3"/><path fill="#ccc" d="M490.6 638.5q-.2 1.6-1.8 1.5-1.6-.4-1.7-2 .1-1.5 1.7-1.6 1.6.5 1.8 2"/><path fill="#9e7800" d="M490.8 638.5q0 .8-.6 1.4t-1.4.4q-2-.4-2-2.4 0-.9.6-1.4t1.4-.3a2.4 2.4 0 0 1 2 2.3m-.5 0q0-.7-.4-1.2t-1.1-.6q-1.4-.2-1.5 1.3 0 .6.4 1.1t1.1.6q1.4.3 1.5-1.3"/><path fill="#fff" d="M489.2 637.8q0 .6-.7.6a1 1 0 0 1-.7-.9q0-.6.7-.6.6.1.7.9"/><path fill="#ccc" d="M490.6 643.7q-.2 1.6-1.8 1.5-1.6-.4-1.7-2 .1-1.6 1.7-1.5 1.6.4 1.8 2"/><path fill="#9e7800" d="M490.8 643.8q0 .8-.6 1.3t-1.4.4q-2-.4-2-2.4 0-.9.6-1.3.5-.6 1.4-.4.9 0 1.4.8.6.7.6 1.6m-.5-.1q0-.7-.4-1.2t-1.1-.6q-1.4-.1-1.5 1.3a2 2 0 0 0 1.5 1.8q1.4.1 1.5-1.3"/><path fill="#fff" d="M489.2 643q0 .6-.7.6a1 1 0 0 1-.7-.8q0-.7.7-.7.6.1.7.9"/><path fill="#ccc" d="M514.8 642.2q-.2 1.5-1.8 1.6-1.5-.5-1.7-2.1.1-1.6 1.7-1.5 1.6.4 1.8 2"/><path fill="#9e7800" d="M515 642.3q0 .8-.6 1.4-.6.4-1.4.3a2.4 2.4 0 0 1-2-2.3q0-.9.6-1.4t1.4-.4q.8.2 1.4.8t.6 1.6m-.5-.1a2 2 0 0 0-1.5-1.8q-.6 0-1 .3-.4.4-.5 1 0 1.6 1.5 1.8t1.5-1.3"/><path fill="#fff" d="M513.4 641.5q0 .7-.7.6a1 1 0 0 1-.7-.8q0-.7.7-.6t.7.8"/><path fill="#ccc" d="M514.8 647.5q-.2 1.6-1.8 1.5-1.5-.5-1.7-2 .1-1.7 1.7-1.6 1.6.4 1.8 2"/><path fill="#9e7800" d="M515 647.5q0 .9-.6 1.4t-1.4.4q-.8-.2-1.4-.9-.6-.8-.6-1.5 0-.9.6-1.4t1.4-.4q.8.2 1.4.8t.6 1.6m-.5 0q0-.7-.4-1.2t-1-.6q-1.6-.2-1.6 1.3 0 1.4 1.5 1.7t1.5-1.3"/><path fill="#fff" d="M513.4 646.7q0 .7-.7.6a1 1 0 0 1-.7-.8q0-.6.7-.6.6.1.7.8"/><path fill="#eace24" d="m423.6 565.8 51.1 7.5v12.2l-51-7.5zm0-2.7a88 88 0 0 0-6.4-34.4h1.9a8 8 0 0 1 6.5 7.6 7 7 0 0 1-.5 2.5q1.3-.3 2.8-.2a8 8 0 0 1 6.5 7.6q-.6 6-6.5 5.8l-1.4-.3c.7 4.8 2.6 8 5.5 8.7q3.2 0 4.9-4.4 1.5 5 4.8 5.8 4.8-.2 5.6-8.2-1.6.9-3.7.6a8 8 0 0 1-6.6-7.6q.6-6 6.5-5.8a8 8 0 0 1-.8-3.4c.2-3.9 2.7-6 6.5-5.7a8 8 0 0 1 6.5 7.6q0 1.9-.8 3.2c3.7.9 6.2 3.8 6.5 7.7q-.6 6-6.6 5.7a8 8 0 0 1-3.7-1.7c.4 5.3 2.5 9 5.6 9.8q3.2.2 4.8-4.3 1.7 5 5 5.8 4.3 0 5.4-7.2h-1.4a8 8 0 0 1-6.5-7.7q.6-6 6.5-5.7 1.6.3 2.8 1a8 8 0 0 1-.5-2.6q.6-6 6.5-5.7 1 .1 1.9.5a75 75 0 0 0-6.5 32.5z"/><path fill="#806600" d="M423.1 563a87 87 0 0 0-6.4-34l-.3-.7h.6q1-.3 2-.1 3 .4 5 2.8t2.1 5.4l-.2 1.7h2q2.9.4 5 2.8 2 2.4 2 5.4t-2 4.8a6 6 0 0 1-5.8 1.3c.8 4.8 2.1 6.8 4.9 7.4 2 .2 3.2-1 4.4-4l.5-1.5.5 1.6c1 3.4 2.3 4.9 4.3 5.3q2 .2 3.4-1.8 1.2-2 1.6-4.9-1.5.4-3.1.3-3-.5-5-2.9a9 9 0 0 1-2.1-5.4q0-3 2-4.8a6 6 0 0 1 4.2-1.5 9 9 0 0 1-.6-2.9q0-3 2.1-4.8t5-1.4 5 2.9 2 5.4q0 1.5-.5 2.8 2.4.6 4.1 2.7 2 2.4 2 5.4t-2 4.8a6 6 0 0 1-5 1.3 8 8 0 0 1-3.1-1.2q.4 3 1.6 5.4 1.4 2.5 3.4 2.8 2.8.4 4.3-4l.5-1.5.5 1.7c1.2 3.4 2.4 4.8 4.4 5.3 2.8.2 4.1-1.4 4.9-6h-.8q-2.9-.6-5-3a9 9 0 0 1-2-5.4q0-3 2-4.8 2.1-1.8 5-1.4l2 .6-.2-1.7q0-3 2-4.8 2.1-1.7 5-1.4l2 .7.6.2-.2.6a74 74 0 0 0-6.4 32.2v.5l-52.2-7.6zm1-.4 50.1 7.4q.3-19.4 6.3-31.6l-1.2-.3q-2.5-.4-4.2 1.2a5 5 0 0 0-1.8 4q0 1.3.5 2.5l.5 1.4-1.2-.8a7 7 0 0 0-2.6-1q-2.5-.3-4.2 1.2a5 5 0 0 0-1.8 4 7.4 7.4 0 0 0 6 7.2h2v.7a12 12 0 0 1-2 5.6q-1.9 2.1-4 1.9c-2.3-.5-3.7-1.8-5-4.8-1.3 2.6-2.6 3.5-4.8 3.3q-2.5-.3-4.3-3.5-1.5-3-1.8-6.9v-1l.8.7q1.5 1.3 3.4 1.6 2.4.3 4.3-1.2a5 5 0 0 0 1.7-4 7.4 7.4 0 0 0-6-7.1l-.8-.2.4-.7a6 6 0 0 0 .8-3 7 7 0 0 0-6-7q-2.5-.4-4.3 1.2a5 5 0 0 0-1.7 4q0 1.8.8 3.2l.4 1-.9-.2q-2.5-.3-4.2 1.2a5 5 0 0 0-1.8 4 7 7 0 0 0 6 7.1q2 .3 3.5-.6l.8-.5v1.1a13 13 0 0 1-1.9 6.4q-1.6 2.5-4.2 2.2-3.1-.5-4.9-4.7c-1.3 2.6-2.6 3.5-4.8 3.3q-2.3-.4-4-3-1.5-2.6-2-6.3l-.1-.7.7.3 1.3.3q2.5.2 4.2-1.2a6 6 0 0 0 1.8-4.2 7 7 0 0 0-6-7q-1.5 0-2.6.2l-1.2.5.5-1.2a6 6 0 0 0 .5-2.4 7 7 0 0 0-6-7h-1.2q6 14 6.3 33.4m51 10.2v13.4l-52-7.7v-13.3zm-51-6.4v11.2l50 7.3v-11.2z"/><path fill="#806600" d="m450.7 548.6 7-.1-7.4-2.3-1.1-7.6-1.1 7.3h-7.4l7 2.2zm-27.3 19.1a1 1 0 0 1 1 .9l1.2 2.9q.2.5 0 .8l-1.2 2.6q-.4.6-1 .5zm.6-21 6.7-1.5-7.4-.9-2.4-7.5 1.8 9.3z"/><path fill="#806600" d="M422.1 542.8h.2l.3.3q.3 0 .4.3l.3.4q.9 1.3.9 2.6l-.1 1v.1h-.1v.1l-.3.6-.3.3h-.2v.1l-1.3-5.8z"/><path fill="#ff8080" d="m444.3 574.7 4.6-2.1 4.6 3.4-4.6 2.1z"/><path fill="#9e7800" d="m444 574.2 4.6-2.1h.6l4.6 3.5q.4.4.1.8l-.1.2-4.6 2h-.6L444 575q-.3-.2-.1-.8zm1.2.6 3.6 2.7 3.6-1.6-3.6-2.7z"/><path fill="#ff8080" d="m444.3 574.7 4.6-2.1 4.6 3.4-4.6 2.1z"/><path fill="#ba0028" d="m453.5 576-4.5 2.1h-.1v-2.7z"/><path fill="#cf1e45" d="M448.9 575.4v2.7l-4.6-3.4z"/><path fill="#ff083c" d="M448.9 572.6v2.8l4.6.6h-.1l-4.2-3.2z"/><path fill="#f9c" d="m421 571.3 2.6-2.4 1.3 3-1.3 2.5z"/><path fill="red" d="m421 571.3 3.9.5-1.3 2.6z"/><path fill="#ccc" d="M422 543.6h.3q1.2 1 1.3 2.7 0 .8-.4 1.5l-1.2.1q-1.9-.5-2.1-2.4.2-2 2.1-2"/><path fill="#9e7800" d="M422 543h.4v.1l.2.1q1.4 1.4 1.5 3.2 0 1-.5 1.7v.1h-.2q-.6.4-1.4.3a3 3 0 0 1-1.8-1q-.9-1-.8-2.1t.8-1.8 1.8-.6m0 1.1q-.6 0-1.1.3-.5.5-.5 1.1t.5 1.3q.5.4 1.1.6h.8l.2-1.2a3 3 0 0 0-1-2.1"/><path fill="#fff" d="M421 544.3q1 .2 1 1.2t-1 .9q-1-.3-1-1.2 0-1 1-1"/><path fill="#806600" d="m474.4 554-6.7-3.3 7.4 1.2 2.4-6.8-1.8 8.8z"/><path fill="#806600" d="M476.3 550.8h-.7l-.3.3-.3.3q-.9 1-.9 2.3l.1 1v.2h.1q0 .5.3.8l.2.3.2.2h.2z"/><path fill="#ccc" d="M476.4 551.6h-.3q-1.2.6-1.3 2.3 0 .7.4 1.5.5.5 1.2.5 1.9.2 2-1.8a3 3 0 0 0-2-2.5"/><path fill="#9e7800" d="M476.4 551q1 .3 1.8 1.1.9 1 .8 2 0 1.2-.8 1.9-.7.6-1.8.5-.9-.1-1.4-.7h-.2v-.2q-.5-.9-.5-1.8 0-1.9 1.5-2.8zm0 1q-1 .6-1 2l.3 1.1.8.3q.6 0 1-.3.5-.4.6-1.1 0-1.7-1.6-2"/><path fill="#fff" d="M476.7 552q-1 0-1 1t1 1.2q1 0 1-1t-1-1.1"/><path fill="#806600" d="m475 575.3-.8.2-.2.4-1.2 2.5v.9l1.2 3q.4.6 1 .7z"/><path fill="#ff083c" d="m477.5 579.6-2.8-3.2-1.2 2.6 1.2 3z"/><path fill="#ba0028" d="m477.5 579.6-4-.6 1.2 3z"/><path fill="#ccc" d="M451.6 547.6q-.2 2.2-2.4 2.1a3 3 0 0 1-2.4-2.8q.2-2.2 2.4-2.1a3 3 0 0 1 2.4 2.8"/><path fill="#9e7800" d="M451.9 547.6q0 1.1-.8 1.8t-2 .6q-2.5-.5-2.6-3.2 0-1 .8-1.8.8-.6 1.9-.5 2.6.4 2.7 3.1m-.6 0a3 3 0 0 0-2.1-2.6q-.8 0-1.5.5a2 2 0 0 0-.6 1.4q0 2.2 2 2.5 2.3.4 2.2-1.8"/><path fill="#fff" d="M449.8 546.6q0 1-1 .9-1-.3-1-1.2 0-1 1-1 1 .4 1 1.3"/><path fill="#ccc" d="M439 571.5q-.2 1.6-1.8 1.5-1.6-.4-1.7-2 .1-1.6 1.7-1.6 1.6.5 1.8 2"/><path fill="#9e7800" d="M439.2 571.5q0 .9-.6 1.4t-1.4.4q-2-.4-2-2.4 0-.9.6-1.4t1.4-.4 1.4.9.6 1.5m-.5 0q0-.7-.4-1.2t-1-.6q-1.6-.2-1.6 1.3a2 2 0 0 0 1.5 1.7q1.4.3 1.5-1.3"/><path fill="#fff" d="M437.6 570.7q0 .7-.7.7a1 1 0 0 1-.7-.9q0-.6.7-.6.6.2.7.8"/><path fill="#ccc" d="M439 576.7q-.2 1.6-1.8 1.5-1.6-.4-1.7-2 .1-1.6 1.7-1.6 1.6.5 1.8 2"/><path fill="#9e7800" d="M439.2 576.7q0 .8-.6 1.4t-1.4.4q-2-.4-2-2.4 0-.9.6-1.3.5-.6 1.4-.4a2.4 2.4 0 0 1 2 2.3m-.5 0a2 2 0 0 0-1.5-1.8q-1.4-.1-1.5 1.3a2 2 0 0 0 1.5 1.7q1.4.3 1.5-1.3"/><path fill="#fff" d="M437.6 576q0 .6-.7.6a1 1 0 0 1-.7-.8q0-.7.7-.7.6.1.7.9"/><path fill="#ccc" d="M463.2 575q-.2 1.6-1.8 1.6-1.5-.5-1.7-2 .1-1.7 1.7-1.6 1.6.4 1.8 2"/><path fill="#9e7800" d="M463.5 575q0 .9-.6 1.5-.7.4-1.5.4-.8-.2-1.4-.9t-.6-1.5.6-1.4 1.4-.4a2.4 2.4 0 0 1 2 2.4m-.5 0q0-.7-.4-1.2t-1-.6q-.7 0-1.1.3t-.4 1q0 1.5 1.4 1.7 1.5.3 1.5-1.3"/><path fill="#fff" d="M461.9 574.3q0 .7-.8.6a1 1 0 0 1-.7-.8q0-.6.7-.6.7.1.8.8"/><path fill="#ccc" d="M463.2 580.3q-.2 1.6-1.8 1.5-1.5-.4-1.7-2 .1-1.7 1.7-1.6 1.6.4 1.8 2"/><path fill="#9e7800" d="M463.5 580.3q0 .9-.6 1.4t-1.5.4a2.4 2.4 0 0 1-2-2.4q0-.9.6-1.4t1.4-.4a2.4 2.4 0 0 1 2 2.4m-.5 0q0-.7-.4-1.2t-1-.6q-1.6-.2-1.6 1.3t1.5 1.7 1.5-1.3"/><path fill="#fff" d="M461.9 579.5q0 .7-.8.7a1 1 0 0 1-.7-.9q0-.6.7-.6.7.2.8.8"/><path fill="#eace24" d="m526.8 581.3 51.1 7.5v12.3l-51-7.5zm0-2.6a89 89 0 0 0-6.4-34.5h1.8c3.8.9 6.3 3.8 6.6 7.7q0 1.4-.5 2.5 1.2-.3 2.7-.2c3.8.9 6.3 3.8 6.6 7.7q-.6 6-6.6 5.7l-1.3-.3c.7 4.8 2.6 8 5.4 8.7q3.3.3 5-4.3 1.5 5 4.8 5.8c3 .1 5.1-3 5.6-8.2q-1.7.9-3.8.7a8 8 0 0 1-6.5-7.7q.6-6 6.5-5.7a8 8 0 0 1-.9-3.5q.6-6 6.6-5.7a8 8 0 0 1 6.5 7.6q0 1.9-.9 3.2a8 8 0 0 1 6.5 7.7q-.6 6-6.5 5.7a8 8 0 0 1-3.7-1.7c.4 5.3 2.5 9 5.5 9.8q3.3.2 5-4.3 1.5 4.9 4.8 5.7 4.4 0 5.5-7.2h-1.4a8 8 0 0 1-6.5-7.6c.2-4 2.7-6 6.5-5.8q1.5.2 2.8 1a8 8 0 0 1-.5-2.7c.2-3.8 2.7-6 6.5-5.8l1.9.6a76 76 0 0 0-6.5 32.6z"/><path fill="#806600" d="M526.3 578.6a88 88 0 0 0-6.4-34.2l-.3-.6.6-.1h2q2.9.4 5 2.8 2 2.5 2.1 5.5l-.2 1.6h2c2 .4 3.4 1.3 5 3q2 2.4 2 5.4t-2 4.8a6 6 0 0 1-5.8 1.2c.8 4.8 2.1 6.8 4.9 7.5q2.8.3 4.3-4l.5-1.5.5 1.6c1.1 3.4 2.4 4.9 4.4 5.4q1.9.1 3.3-1.9t1.6-4.9q-1.5.5-3 .3-3-.5-5-2.9a9 9 0 0 1-2.1-5.4q0-3 2-4.8 1.8-1.4 4.2-1.5-.6-1.4-.6-2.9 0-3 2-4.8 2.2-1.7 5-1.4 3 .5 5 2.9t2.1 5.4q0 1.5-.5 2.8a9 9 0 0 1 6.2 8q0 3-2.1 4.9a6 6 0 0 1-5 1.4 8 8 0 0 1-3.1-1.2q.3 3 1.6 5.3 1.4 2.6 3.3 2.9c2 0 3.3-1 4.4-4l.5-1.6.5 1.7q1.5 4.8 4.4 5.3c2.7.1 4-1.5 4.9-6.1h-.8q-2.9-.5-5-3a9 9 0 0 1-2-5.3q0-3 2-4.9 2.1-1.7 5-1.4 1 .1 2 .6l-.3-1.7q0-3 2.1-4.9 2.1-1.7 5-1.4 1 .1 2 .6l.6.2-.3.6q-6 12.4-6.4 32.3v.6l-52.1-7.7zm1-.4 50.1 7.4q.3-19.4 6.2-31.8l-1.1-.2q-2.5-.3-4.3 1.2a5 5 0 0 0-1.7 4.1q0 1.2.4 2.5l.6 1.3-1.3-.8a7 7 0 0 0-2.5-.9q-2.5-.3-4.3 1.2a5 5 0 0 0-1.7 4.1 7 7 0 0 0 6 7h2l-.1.8q-.5 3.3-2 5.6-1.8 2.1-4 2-3.1-.6-4.9-4.8c-1.3 2.6-2.6 3.5-4.9 3.3q-2.5-.3-4.2-3.4-1.6-3-1.8-7v-1l.8.7a7 7 0 0 0 3.4 1.6q2.5.3 4.2-1.2a5 5 0 0 0 1.8-4.1 7 7 0 0 0-6-7l-.9-.2.5-.7a6 6 0 0 0 .8-3 7.4 7.4 0 0 0-6-7q-2.5-.3-4.3 1.2a5 5 0 0 0-1.8 4q0 1.7.8 3.3l.5.8-.9-.1q-2.5-.3-4.2 1.2a5 5 0 0 0-1.8 4 7 7 0 0 0 6 7.1q1.9.3 3.5-.5l.8-.5v1a13 13 0 0 1-1.9 6.4q-1.8 2.6-4.2 2.2-3.1-.5-4.9-4.7c-1.3 2.5-2.6 3.5-4.9 3.3q-2.2-.5-4-3.1-1.5-2.6-2-6.3v-.7l.7.2 1.2.4q2.5.3 4.3-1.2a5 5 0 0 0 1.7-4 7.4 7.4 0 0 0-6-7.2q-1.3 0-2.5.2l-1.2.4.5-1.2a6 6 0 0 0 .4-2.3 7.4 7.4 0 0 0-6-7l-1-.1q5.9 14 6.1 33.5m51.1 10.2v13.3l-52.1-7.7v-13.3zm-51-6.5v11.2l50 7.4v-11.2z"/><path fill="#806600" d="m553.9 564.3 7-.1-7.4-2.3-1.1-7.6-1.2 7.3-7.3.1 7 2.2zm-27.3 19a1 1 0 0 1 1 .8l1.2 3v.8l-1.3 2.6q-.3.5-1 .5zm.6-21.1 6.7-1.3-7.4-1-2.4-7.6 1.8 9.3z"/><path fill="#806600" d="M525.3 558.4h.2l.4.2.4.4.3.4q.7 1.1.9 2.6l-.2 1v.1l-.3.7-.3.2-.2.1h-.1l-1.2-5.8z"/><path fill="#ff8080" d="m547.5 590.4 4.6-2 4.6 3.4-4.6 2z"/><path fill="#9e7800" d="m547.2 590 4.6-2.2h.5l4.6 3.5q.5.4.2.8l-.2.2-4.6 2h-.5l-4.6-3.5q-.4-.3-.2-.7zm1.3.7 3.6 2.6 3.5-1.6-3.5-2.7z"/><path fill="#ff8080" d="m547.5 590.4 4.6-2 4.6 3.4-4.6 2z"/><path fill="#ba0028" d="m556.7 591.8-4.5 2h-.1v-2.7z"/><path fill="#cf1e45" d="M552 591v2.9l-4.5-3.5z"/><path fill="#ff083c" d="M552 588.3v2.8l4.7.7-.1-.1-4.2-3.1z"/><path fill="#f9c" d="m524.1 586.8 2.7-2.4 1.3 3-1.3 2.6z"/><path fill="red" d="m524.1 586.8 4 .6-1.3 2.6z"/><path fill="#ccc" d="m525.2 559 .3.1q1.1 1.2 1.2 2.8 0 .8-.4 1.4l-1 .2q-2-.5-2.2-2.5.1-2 2.1-2"/><path fill="#9e7800" d="M525.2 558.6h.5v.1q1.5 1.5 1.5 3.2 0 1-.4 1.8l-.2.1q-.6.3-1.4.2-1-.2-1.9-1-.7-1-.7-2.1t.7-1.8 2-.5m0 1q-.7 0-1.2.3-.5.5-.5 1.1a2 2 0 0 0 1.6 2l.7-.1q.3-.5.3-1.1a3 3 0 0 0-1-2.2"/><path fill="#fff" d="M524.2 559.8q1 .2 1 1.2t-1 .9-1-1.2 1-.9"/><path fill="#806600" d="m577.6 569.6-6.7-3.3 7.4 1.2 2.4-6.9-1.8 8.8z"/><path fill="#806600" d="M579.4 566.3h-.6l-.3.3-.4.4q-.8.9-.8 2.3l.1 1v.2l.4.7.2.4h.2l.1.2 1.3-5.5z"/><path fill="#ccc" d="M579.5 567h-.2q-1.2.8-1.3 2.4 0 .8.4 1.6l1.1.4q2 .1 2.2-1.9a3 3 0 0 0-2.2-2.4"/><path fill="#9e7800" d="M579.5 566.5q1 .2 2 1 .6 1 .7 2.1t-.8 1.8q-.8.8-1.9.6-.8-.1-1.4-.6v-.1l-.2-.1q-.4-1-.4-1.9 0-1.8 1.5-2.7v-.1zm0 1.1q-1 .6-1 1.9 0 .6.3 1.1.4.3.7.3.7 0 1.2-.3.4-.5.4-1.1 0-1.7-1.6-1.9"/><path fill="#fff" d="M579.9 567.6q-1 0-1 .9t1 1.2q1 0 1-1t-1-1.1"/><path fill="#806600" d="m578.2 590.9-.8.2-.2.3-1.2 2.6q-.2.5 0 .9l1.2 2.9q.3.6 1 .8z"/><path fill="#ff083c" d="m580.6 595-2.7-3-1.2 2.5 1.2 3z"/><path fill="#ba0028" d="m580.6 595-4-.5 1.3 3z"/><path fill="#ccc" d="M554.8 563.3q-.2 2.3-2.4 2.1a3 3 0 0 1-2.4-2.8q.1-2.2 2.4-2a3 3 0 0 1 2.4 2.7"/><path fill="#9e7800" d="M555 563.4q0 1-.8 1.8-.7.6-1.8.5-2.7-.4-2.7-3.1 0-1.1.8-1.8t1.9-.6q2.6.5 2.6 3.2m-.5-.1a3 3 0 0 0-2.1-2.5q-.8-.1-1.5.4a2 2 0 0 0-.7 1.4q0 2.3 2.2 2.6 2.1.3 2.1-2"/><path fill="#fff" d="M553 562.3q-.1 1-1 .9-1-.2-1-1.2t1-.9q.9.2 1 1.2"/><path fill="#ccc" d="M542.1 587.2q-.1 1.6-1.7 1.5-1.6-.4-1.8-2 .2-1.7 1.8-1.6 1.6.4 1.7 2"/><path fill="#9e7800" d="M542.4 587.2q0 .8-.6 1.4-.5.4-1.4.4-2-.4-2-2.4 0-.9.6-1.4t1.4-.4 1.4.9.6 1.5m-.5 0a2 2 0 0 0-1.5-1.8q-1.4-.2-1.5 1.3 0 .6.4 1.1.6.5 1 .6 1.6.3 1.6-1.3"/><path fill="#fff" d="M540.8 586.4q0 .8-.7.6a1 1 0 0 1-.7-.8q0-.6.7-.6.7.1.7.8"/><path fill="#ccc" d="M542.1 592.4q-.1 1.6-1.7 1.5-1.6-.4-1.8-2 .2-1.5 1.8-1.6 1.6.5 1.7 2"/><path fill="#9e7800" d="M542.4 592.4q0 .9-.6 1.4t-1.4.4q-2-.4-2-2.4 0-.9.6-1.4t1.4-.4a2.4 2.4 0 0 1 2 2.4m-.5 0a2 2 0 0 0-1.5-1.8q-1.4-.2-1.5 1.3 0 .6.4 1.1.6.6 1 .6 1.6.3 1.6-1.3"/><path fill="#fff" d="M540.8 591.7q0 .6-.7.6a1 1 0 0 1-.7-.9q0-.6.7-.6.7.2.7.8"/><path fill="#ccc" d="M566.4 590.7q-.2 1.5-1.8 1.6-1.6-.5-1.7-2 .1-1.7 1.7-1.6 1.6.4 1.8 2"/><path fill="#9e7800" d="M566.6 590.8q0 .9-.6 1.3-.5.6-1.4.4a2.4 2.4 0 0 1-2-2.3q0-.8.6-1.4t1.4-.4a2.4 2.4 0 0 1 2 2.4m-.5-.1q0-.7-.4-1.2t-1-.6q-.7 0-1.1.3-.5.4-.5 1 0 1.6 1.5 1.8t1.5-1.3"/><path fill="#fff" d="M565 590q0 .7-.7.6a1 1 0 0 1-.7-.8q0-.7.7-.6t.7.8"/><path fill="#ccc" d="M566.4 596q-.2 1.5-1.8 1.5-1.6-.5-1.7-2 .1-1.7 1.7-1.6 1.6.4 1.8 2"/><path fill="#9e7800" d="M566.6 596q0 .8-.6 1.4-.5.4-1.4.4a2.4 2.4 0 0 1-2-2.4q0-.8.6-1.4.5-.4 1.4-.4a2.4 2.4 0 0 1 2 2.4m-.5-.1q0-.6-.4-1.1t-1-.6q-1.6-.2-1.6 1.3t1.5 1.7 1.5-1.3"/><path fill="#fff" d="M565 595.2q0 .7-.7.6a1 1 0 0 1-.7-.8q0-.6.7-.6.6.1.7.8"/><path fill="#1a1a1a" d="M8 195.3c170.8-85.3 341-54.5 513.3-28C676.5 191 833.4 211.8 992 132.7v672c-170.8 85.3-341 54.5-513.3 28C323.5 809 166.6 788.1 8 867.2zm31.3 19.3v604.5c306.5-128.2 611.1 96 921.5-33.7V180.9C654.2 309 349.5 84.9 39.3 214.6" opacity=".2"/></svg>