<svg xmlns="http://www.w3.org/2000/svg" viewBox="0 0 1000 1000"><path fill="#fff" d="M8 867c171-85 341-54 513-28 155 24 312 45 471-34V133c-171 85-341 54-513 28-155-24-312-45-471 34z"/><path fill="#ce0f25" d="M700 612c11 28 6 48 0 69 16-5 50-21 46-42-7-18-29-23-46-27"/><path fill="#221b0f" d="M699 612v-1zl1 1q18 4 26 8 15 7 20 19 3 14-16 27-13 10-31 16h-1v-1q6-19 7-32 0-18-7-37m2 1q6 18 6 36l-6 31q17-6 29-15 19-13 16-26-4-11-19-18-8-4-26-8"/><path fill="#faf8f0" d="M642 725c10-2 17-6 34-7 7 0 26 2 37-1q16-4 17-12 2-14 7-31l13-29q1-6-3-11c-9-13-30-23-48-24v4c15 1 42 12 44 26 2 24-69 24-110 27 0 0-10 2-14 5q-4 6-1 12c19 20 24 41 24 41"/><path fill="#221b0f" d="m642 725-5-13q-8-15-19-28l-2-6 3-6q4-3 14-5l34-2q38-4 53-7 24-8 23-18-1-9-17-18-14-7-27-8l-1-4h1q13 1 27 7 15 7 21 17 4 5 4 11l-4 9-9 21q-7 18-7 30-1 8-18 12-7 2-26 2h-11a144 144 0 0 0-34 6m1-1 6-1a145 145 0 0 1 38-5q18 0 26-2 16-5 17-11 0-12 7-31l13-30-3-10q-7-9-21-16-14-6-27-7l1 2q12 1 26 8 17 9 18 19 1 12-24 19-14 4-53 7l-34 2q-9 2-13 5l-3 5q-1 4 2 6a118 118 0 0 1 24 40"/><path fill="#f6e4be" d="M743 654c-27 18-63 17-95 17l-21 19 19 30 6-1 26-5h23q10 1 17-5 6-11 7-23l8-14z"/><path fill="#ce0f25" d="M632 736c5-24-10-36-18-52l13 6c9 3 14 3 27 2 11-1 19-5 27-2l2 3q0 6-4 10c-11 15-46 33-47 33"/><path fill="#221b0f" d="M632 736q2-12-2-22-1-7-9-18l-8-11-1-2 2 1 13 6a89 89 0 0 0 37 0q12-3 17 0l2 3q2 4-3 11-7 9-28 22-10 7-19 10zm1-1 18-10q21-13 28-22 5-6 3-10l-1-2q-5-3-17 0a87 87 0 0 1-37 0l-12-5 6 10q8 11 10 17 4 10 2 22"/><path fill="#ce0f25" d="M300 564c-11 27-6 48 0 70-17-7-50-24-46-45 7-18 29-22 46-25"/><path fill="#221b0f" d="M301 565q-8 18-7 36 1 13 7 33v1l-1-1q-18-8-31-17-19-13-16-28 5-12 19-18 9-4 27-7h2zm-2 0q-18 3-26 7-15 6-19 18-2 13 16 26 12 9 29 17l-6-32q-1-18 6-36"/><path fill="#faf8f0" d="M358 686c-10-4-18-9-34-13-7-1-26-1-37-5q-17-5-17-12-2-15-7-31l-13-30q-1-5 3-10c10-14 30-23 48-22l-1 3c-14 0-41 10-43 25-2 20 69 27 110 39 0 0 10 4 14 8q4 8 1 12a83 83 0 0 0-24 36"/><path fill="#221b0f" d="m358 687-8-4-27-9-10-1-26-4q-17-6-18-13 0-13-7-31l-13-30q0-4 4-11 6-9 20-16 15-6 28-6h1l-1 5q-13-1-27 6-16 8-17 18 0 10 23 18l53 12 34 9q10 4 14 8l3 7-2 6a83 83 0 0 0-24 35zm-1-2 5-11q8-13 19-24l2-5-3-6q-3-5-13-8l-34-9-53-12q-25-8-24-19 2-10 18-19 14-7 26-6l1-3q-13 0-27 6-13 6-21 16l-3 10 4 9 9 21q7 18 7 31 1 6 17 12l26 4 11 1 27 9z"/><path fill="#f6e4be" d="M257 604c27 18 63 21 95 27l20 24-18 26s-21-9-32-12l-23-2c-7-2-12-1-17-6q-6-12-7-25l-8-14z"/><path fill="#ce0f25" d="M368 699c-5-25 10-33 18-47l-13 3c-9 0-14-1-27-4-11-3-20-9-27-6l-2 3q0 5 3 10c12 16 47 41 48 41"/><path fill="#221b0f" d="M368 699v1za396 396 0 0 1-47-42q-4-6-4-10 1-3 3-3 5-3 17 2a114 114 0 0 0 37 7l13-3h2l-1 1-8 10q-7 9-9 15-4 10-2 22m-1-1q-3-12 2-21 1-6 10-15l6-9-12 2a106 106 0 0 1-37-7q-12-5-17-2l-2 2q0 4 4 10 7 10 27 26z"/><path fill="#faf8f0" d="m328 726-13-12q-3-5-2-11c6-21 5-33 1-49-1-6-2-13 4-13 16 2 35 9 48 10 6 0 14 0 15-6 0-7-17-15-18-15q17 3 23 14 2 5-1 9-5 6-15 5c-11 0-29-4-40-7l-7-2q-3 2 7 12 21 21 46 37c44 30 78 43 124 50a201 201 0 0 0 170-43q10-9 7-11h-7c-11 2-29 3-41 0q-8-1-14-8-3-4-1-9 6-9 23-10c-1 0-18 5-18 12 1 6 9 8 15 9 13 2 31-2 48-2 6 1 5 8 4 13-4 17-5 28 0 50q1 6-2 11-5 7-13 10c-54 32-115 41-171 32s-117-36-172-76"/><path fill="#221b0f" d="m328 726-2-1-11-10q-3-6-2-12l4-27q0-9-4-22v-9q0-5 5-5l23 5 25 5q13 1 14-5 0-4-8-10l-9-5v-1q19 5 24 15 2 5-1 9-5 5-15 6-14 0-41-8l-4-1h-3q-2 0 1 3l6 8q19 18 46 37 33 21 61 33a291 291 0 0 0 126 19 212 212 0 0 0 113-52q2-3 1-4h-3l-4 1q-28 3-41 0-11-3-15-9-3-5-1-9 6-10 23-10l1 1-9 3q-8 4-8 8 1 6 14 8h25l23-1q5 0 5 5 1 3-1 9l-3 22q0 12 4 27 1 6-2 12l-11 8-2 2a260 260 0 0 1-172 32q-42-8-86-27-45-20-86-50m1 0q40 29 85 49 44 19 86 27a264 264 0 0 0 171-32l2-1 11-9q3-6 2-11-4-15-4-27l3-23q2-5 1-8 0-4-4-4l-23 1h-26q-13-1-14-9 0-4 8-9l5-2q-13 2-18 9-2 4 1 9 4 5 15 8 12 3 40 0l3-1 5 1q2 1-1 4l-7 7q-18 16-46 29-32 14-61 17-28 3-63-2a293 293 0 0 1-177-96q-3-3-1-4h5l3 1q28 8 40 8 11-1 15-5 3-4 1-8-5-10-18-14l5 3q9 7 8 11-1 8-15 6l-25-5-23-5q-4 0-4 4v8q4 14 4 24 0 11-4 26-1 5 2 11l11 10z"/><path fill="#f6e4be" d="m677 762 4-7c2-7-2-16-2-24l1-26c-21 20-79 66-180 50-98-15-160-74-180-95l1 26c0 8-4 16-2 24 0 3 4 7 4 7 55 41 115 72 177 82q93 13 177-37"/><path d="M392 740c2-5 8-10 18-5q13 6 9 18-5 11-18 6-14-9-9-19m22 12q3-12-5-16-7-4-12 6-4 10 6 16c2 1 8 3 11-6m12 1 2-7-1-2-2-1h1l4 2 5 1v1l-1-1-2 2-2 7-1 4q-2 7 1 10l4 3h5l4-8 1-4 1-7q2-2-1-2l-1-1h1l3 1 4 2h1-2l-1 1-2 7-1 4q-1 6-6 8h-7l-7-5q-3-3-1-10zm30 19-3 4v2l1 1v1h1-1l-3-1-5-1v-1h1q3 1 4-2l11-18 2-1v1l6 23 3 5h1v1h-1l-7-2-1-1h1v-1l-2-8zm8 0-2-9v-1 1l-5 7zm18 11 1 4 2 1h-1l-4-1h-4v-1h2l1-4 1-20v-1l2 1 10 13 8 9v-15l-1-4h-2l-1-1h1l5 1 3 1h1-2l-1 3-1 22-1 1-1-1-10-12-8-11zm33 1-2 5v2l1 1h1v1h-4l-4-1h-1 2q2 0 3-3l7-21 1-2 1 2 10 22 3 4h2l-1 1-7-1h-1v-1l1-1-4-7zm7-1-3-9-1-1v1l-2 8zm21 1 2 8h4l4-1v-2h1v4l-2 1h-15 2v-2l-1-8v-6l-2-8-1-2h-2 11-2l-1 2 1 8zm19 0-1 5v2l2 1h1l-1 1h-8 1q3-1 2-4l4-23 1-1 1 1 13 20 4 4h2l-2 1h-7v-1l-4-7zm7-2-5-9h-1l-1 9v1zm11-4c-2-6-1-14 9-16q14-3 18 10 3 13-9 17c-10 2-16-5-18-11m23-4q-5-12-14-11-7 1-5 13 5 12 15 11c2-1 7-3 4-13"/><path fill="#666" d="M639 328c-92-10-183-29-278-38v20c92 9 183 28 278 38z"/><path fill="#520" d="M361 289c92 9 184 29 278 38v22c-92-10-184-29-278-39zm1 1v19c91 10 182 29 276 38v-19c-91-9-182-28-276-38"/><path fill="#eace24" d="m361 310-31-79-5 1-12-27 21-5 5 13 10-2-4-13 21-3 4 13 11-1-4-13 22-1 3 13h14l1 7h6l-1-7h11l1 7h5l-1-7 11 1 1 7 11 1-2-21 22 2v14l11 1v-13l22 3-1 14 11 1 1-13 22 4-2 21 10 2 1-7 11 3-1 6 6 2 1-7 11 3-1 7 5 1 1-6 14 4 3-13 22 6-3 13 10 3 4-13 21 8-4 12 10 4 5-13 21 8-11 26-9-4-32 75c-89-35-193-56-279-38"/><path fill="#806600" d="m360 310-31-78-5 2-12-30 23-6 5 14 8-2-5-13 24-3 4 13 9-1-4-13 24-2 3 14h14l1 7h3l-1-7h13l2 7h3l-1-7 13 1 1 7h8l-1-20 24 2v14l9 1v-14l24 4-1 14 9 1 1-13 24 5-2 20 8 2 1-7 13 3-1 7 4 1 1-7 13 3-1 7 3 1 1-7 15 4 3-13 23 7-3 13 8 3 4-13 24 8-5 12 9 3 5-12 23 8-13 29-9-4-32 74h-1q-65-26-140-39-74-11-137 1l-1-1zm2-1q63-12 137-1 75 12 140 39l32-75 9 4 11-25-19-6-5 12-12-4 4-13-19-6-4 13-13-4 4-13-20-6-3 13-14-4-1 6-8-2 1-6-8-2-1 6-8-2 1-6-9-2-1 6-12-3 2-20-20-4-1 14-13-3 1-13-20-3v13l-13-1v-14l-20-2 2 21-13-1-1-7-9-1 1 7h-7l-1-7h-9l1 7h-8l-1-7h-14l-3-13-19 1 3 13-13 1-3-13-20 3 5 12-13 3-4-13-20 4 11 26 5-1z"/><path fill="#5e520e" d="M493 265v-24c1-9 17-7 17 3v24z"/><path fill="#520" d="M493 265v-24q0-3 3-5 2-2 6-1l6 3q3 1 3 6v24h-1v-24l-3-6-5-2-6 1-2 4v24z"/><path fill="#5e520e" d="m370 264-7-24c-2-9 13-11 16-1l8 24z"/><path fill="#520" d="m370 265-7-24q-2-4 1-7l5-2 6 1q4 2 5 5l7 24-1 1-7-24q-1-4-4-5l-6-1-5 2v5z"/><path fill="#5e520e" d="m616 294 7-22c4-9 19-4 16 6l-7 22z"/><path fill="#520" d="m615 294 8-22q1-3 4-5l7 1 5 3q2 4 1 7l-7 22h-1l7-23-1-5q-2-3-5-3l-6-1q-3 1-3 4l-8 23z"/><path fill="#806600" d="M345 268q33-7 67-8l-9-40q-26 1-72 12l-6 1-1-1 6-1q51-12 77-12l-3-13h1l3 14h-4l2 9 58 2-1-9-4-1-1-7h1l1 6q43 4 86 14l1-6h1l-1 7h-1l-5-1v9l57 14 2-8-4-2h-1l2-7 1-6h1l-1 7-2 5 85 31v1l-80-29-8 38 63 21v1q-75-29-155-42-80-12-156 2zm12 32 21-4-2-7-22 4v-1l14-3-3-7-14 3v-1l16-3-2-6-17 3v-1q74-15 152-3 79 13 153 42l-1 1-12-4-2 6 12 4v1l-8-3-3 7 8 2v1l-13-4-2 6 12 5v1q-70-27-143-40-74-11-143 2zm181-27 2-40q-38-8-76-11l4 40a561 561 0 0 1 70 11m-71-11-3-30-58-2 7 30zm125 24 6-28-58-14-1 29zm-152 7-1-7h-28l2 7zm171 33 2-7-27-9-2 7zm-134-47-1-7-27-2 1 7zm-83-1-2-7-26 3 2 7zm174 26 1-6-24-6v7zm-48-2v-7l-20-4h-4l1 7h4zm-65-17v-7l-23-1 1 8zm8 9-1-7-22-1 1 7zm50-2v-7l-12-2-10-1v7l9 1zm128 29-21-8-2 7 20 7zm-8 5-19-7-2 7 19 7zm-85-35 1-6-21-5-1 7zm-99-14-1-7h-21l1 6zm134 40 2-7-20-5-1 7zm30-7 2-6-21-7-1 6zm-131-14v-7l-19-2 1 7zm135 24 2-7-18-6-2 7zm-205-27-2-7-18 1 2 8zm-8-8-2-7-18 2 3 7zm-19 2-2-7-17 2 3 7zm89 0-1-7-17-2v7zm-42-2-1-8-16 1 1 7zm97 10 1-7-16-3v7zm-117-18-2-7-17 1 2 7zm186 36 2-6-16-5-1 7zm-72-27 1-6-17-3-1 6zm37 25 1-6-15-4-1 7zm-73-22v-7l-16-2 1 7zm46 16v-7l-15-3v7zm43-6 1-6-15-4-1 6zm-71-16v-6l-8-1-7-2v7l8 1zm-115 12-2-7-14 1 2 7zm189 13 1-6-13-4-1 7zm46 7 2-6-14-5-2 6zm-201-39-1-6h-15l2 7zm117 22v-7l-13-2-1 6zm-52-17v-7l-14-1v6zm71 14 1-7-14-3-1 6zm-68 3v-8l-12-1v7zm-80-13-1-7h-11l2 7zm177 18 1-6-11-4-2 7zm-45 4 1-7-11-2v7zm92 5-8-3-2 6 8 3z"/><path fill="#1353b4" d="M361 310v145c1 47 3 83 23 114 24 38 65 68 116 101 52-17 92-36 117-67 20-27 22-63 23-110V348c-92-9-184-28-279-38"/><path fill="#540" d="M360 309c93 9 185 28 281 38v147q-1 41-4 62-6 30-19 47-18 22-48 40-27 14-69 28h-1v-1q-42-25-69-48-30-25-48-52-13-21-19-52-3-21-4-63zm2 2v144q1 42 4 63 6 30 19 51 17 26 48 51 26 23 67 48 42-14 68-27 31-16 48-39 13-18 19-47 3-20 4-62V349c-91-9-183-28-277-38"/><path fill="#ce0f25" d="m636 554 2-30q3-36 2-73c-92-9-184-28-279-38q-1 36 2 73l2 30c89 10 179 28 271 38"/><path fill="#540" d="M361 411c92 10 184 29 279 39v2c-92-10-184-29-279-38zm4 104c89 10 179 28 271 38v2c-90-10-179-28-271-38z"/><path fill="#fff" d="m466 493 34-9-14 33 15-8 15 12-14-36 34 19-10-17 10-14-34 9 14-32-15 8-15-13 14 37-34-20 10 17z"/><path d="m465 494 10-15-10-18 34 20-14-37 16 13 16-8-14 32 34-9-11 15 11 18-34-19 14 37-16-14-16 9 14-33zm2-2 33-8-13 32 14-8 14 12-14-36 34 19-10-16 10-13-34 9 14-32-14 7-14-12 13 37-33-20 9 16z"/><path fill="#eace24" d="m277 567-1 44c18 18 21 25 26 31 7-9 17-5 17-5 3-9 14-17 14-17-16-3-43-12-46-15-7-12 3-45 3-45z"/><path fill="#806600" d="m277 567 14-8v1l-5 18q-3 19 2 26 1 3 17 8l28 8h1l-1 1-6 4q-6 7-7 12v1h-1l-6-1q-6 0-11 6h-1l-4-7-21-25zm1 1-1 43 25 30q4-5 11-6l6 1q2-6 8-11l5-5a190 190 0 0 1-45-15q-5-7-2-27l4-17z"/><path fill="#eace24" d="m317 635-18-15 21 14z"/><path fill="#806600" d="m316 635-18-15h1l21 14v1l-14-9z"/><path fill="#eace24" d="M290 548c1 0 22-8 45 10h6c4-5 14-17 22-15l-1-60c-3 0-4 6-5 6 2 14-5 96-37 39l-22 1z"/><path d="m289 549 8-20 23-2 1 1q10 19 19 19 6 1 11-12a112 112 0 0 0 6-46q1-7 5-6 2 48 1 60v1q-7-3-19 12l-3 3-6-1q-15-10-31-12l-14 2zm2-2 13-2q18 2 31 12l5 1 3-3 9-9q6-4 10-4 1-12-1-58l-3 5q1 7-1 20-2 17-5 27-5 12-12 13-9-1-20-21l-22 2z"/><path fill="#806600" d="m289 549 8-20 23-2 1 1q10 19 19 19 6 1 11-12a112 112 0 0 0 6-46q1-7 5-6 2 48 1 60v1q-7-3-19 12l-3 3-6-1q-15-10-31-12l-14 2zm2-2 13-2q18 2 31 12l5 1 3-3 9-9q6-4 10-4 1-12-1-58l-3 5q1 7-1 20-2 17-5 27-5 12-12 13-9-1-20-21l-22 2z"/><path fill="#eace24" d="M278 355c19 8 20 12 38 30 15 7 37 24 39 28l-1 4c3 2 5-4 5-4-3-18-55-72-55-72l-24 4z"/><path fill="#806600" d="m277 356 3-11 24-5 27 30q27 32 29 43l-2 3q-3 3-4 2h-1l1-5q-1-3-13-12l-25-16-11-10q-7-8-12-11-4-4-15-8zm2-1 15 8 12 11 11 11a160 160 0 0 1 38 28h1l-2 4 3-1 2-3q-3-10-29-43l-27-29-22 4z"/><path d="m296 348 60 61 1 4h-1l-1-4zm14 22a37 37 0 0 0 16 15v1l-6-4q-8-4-11-12z"/><path fill="#fff" d="M285 334c0-21 23-33 23-35-3-14-35 18-37 23-2 7 2 15 2 15z"/><path d="M284 334q0-11 8-20l16-15-2-3h-4l-13 8-18 19q-1 6 3 14h-1l-2-5q-3-6-1-10l7-8 12-11 12-8h5l3 4-4 3-12 12q-7 10-8 20z"/><path fill="#fff" d="M291 307c-6 6-12 24-12 25z"/><path d="M292 308q-5 3-9 14l-4 10-1-1 4-10q5-11 9-14z"/><path fill="#fff" d="M274 333c-2-20 11-36 11-36-9-5-20 18-24 27l4 26z"/><path d="M274 333a53 53 0 0 1 10-36q-5-2-13 9l-9 18 4 26h-1l-4-26v-1l9-18q9-12 15-9v2l-1 2q-12 18-9 33z"/><path fill="#fff" d="M270 317c-4 10 0 22 0 22z"/><path d="M270 317q-2 6-1 15l1 7-1 1-1-8q-1-9 1-15z"/><path fill="#fff" d="M267 343c-4-5-1-38-2-38-10 0-15 32-13 39 7 22 12 26 12 26z"/><path d="M266 344q-3-4-1-30v-9q-6 1-10 17t-2 22l8 21 4 5-1 1-4-5-8-22q-2-6 2-22 4-18 11-18l1 1v9q-2 26 1 29z"/><path fill="#fff" d="M258 332c0 10 7 22 7 22z"/><path d="M259 332q-1 6 3 14l3 8-4-7q-5-9-3-15z"/><path fill="#fff" d="M264 368c-12-12-14-43-16-46-13 3-6 35-6 36l17 23z"/><path d="M264 369q-9-10-15-40l-1-7q-7 3-7 19l1 17 18 23-1 1-18-24-1-17q-1-17 8-20h1l1 7q6 31 15 40z"/><path fill="#fff" d="M247 343c-4 9 15 34 15 35z"/><path d="M247 343q-2 6 6 20l10 15h-1l-10-14q-8-16-6-22z"/><path fill="#fff" d="M280 444c0-1-3-46 2-53l-17-25-21 44 19 36z"/><path d="m280 444-17 3-20-37 22-45 18 26q-4 5-4 29zm-1-1-1-23q0-24 3-29l-15-24-21 43 19 35zm1 1-17 3-20-37 22-45 18 26q-4 5-4 29zm-1-1-1-23q0-24 3-29l-15-24-21 43 19 35z"/><path fill="#fff" d="M264 543c7 10 11 31 11 31l2-7 3 7 2-6 2 8 2-6 1 4c0-38 69-63 69-104 1-43-43-63-71-100 0 0-8-23 6-13 12-2 11-12 11-13l6 1c2-26-21-21-22-21-23 0-25 24-25 24-5 32 34 70 34 70 6 14 0 36 0 36l-55 54z"/><path d="M265 543q4 6 8 19l2 10 2-5 2 3 1 3v-2l2-4 1 1v2l1 5 1-3v-2h1l1 3q0-12 10-25l23-24q18-16 24-25 12-15 11-29 1-18-11-36-7-11-28-30-22-21-32-33l-2-11 2-6q3-1 7 3 8-1 9-7l1-6h7q2-15-10-18-5-3-12-1-14 0-20 11-4 6-4 12-4 20 15 47 9 13 19 23 3 9 2 23l-2 13v1l-56 53-1-1 56-53 2-13q1-14-2-22-10-10-19-24-20-26-15-47 0-6 4-12 7-12 21-12 7-2 12 1 13 3 11 20h-7l-1 6q-1 6-10 7-4-4-6-3t-2 5l2 10q10 13 32 33 21 19 28 31 12 18 11 36 1 14-11 30-7 9-25 25l-22 24q-10 13-10 25v1l-1 1-1-1v-3l-2 4-2-6v-1l-1 3-1 2-2-4-1-1-1 6-1-1-3-12-8-19z"/><path fill="#fff" d="m240 507-23 31c-4 7 5 4 6 4l-4 4c-5 6-14 16-20 20 3 6 17-5 18-5-1 0-14 10-14 12 5 3 17-7 17-7v6c4-1 14-9 14-9v5l27-22 4-3z"/><path d="m241 507-2 2-21 29-2 3 2 1 5-1h1l-1 1q-15 18-23 24l3 1 6-2 5-2 2-2h1l-3 3-11 9q3 2 10-3l7-5 1 1-1 2v3q4 0 14-9l1 1-1 2v3l30-26 1 1-30 26h-1l-1-4v-1q-9 8-13 8-3-1-1-4v-1l-5 4q-8 5-11 3l-1-1 6-6-5 1q-3 1-4-2v-1l22-22h-3l-3-2 2-3 21-29 2-2zm10-11q-3 2-3 5l-2 3h2v1h-2l-1-1 2-4 3-5z"/><path fill="#fff" d="M249 468c-6 13-14 33-5 43 2 0 10-29 16-33l4-14 1-3z"/><path d="M250 468q-16 32-6 42l5-12q7-18 11-20l2-8 3-9h1l-3 9-2 9h-1q-3 1-10 20-4 13-7 12-11-10 6-43z"/><path fill="#fff" d="M259 467c3 0-6 6-10 16z"/><path d="m259 466 1 1v1l-2 3-9 12h-1q2-6 9-13l2-3z"/><path fill="#fff" d="M262 469c-5 24-1 28 1 29 3-2 9-23 14-24z"/><path d="m262 469-2 23 3 5 4-8q6-15 10-16v1q-3 1-9 15l-4 9h-1q-3 0-4-6-1-8 2-23z"/><path fill="#fff" d="M237 360c-20-19-23-40-25-41-10 1 3 39 3 40l24 18z"/><path d="M237 360q-15-14-23-36l-2-4-2 1-1 4 1 14 5 19 25 19-1 1-25-19-6-34 1-4q0-2 3-2l3 5q8 22 22 36"/><path fill="#fff" d="M234 365s-10-7-15-17z"/><path d="M233 366q-9-7-15-18h1q6 9 15 17z"/><path fill="#fff" d="M237 374c-30-16-34-42-36-42-9 6 2 29 2 29 2 7 25 28 26 28z"/><path d="M237 375a73 73 0 0 1-34-38l-2-4q-5 3-2 15l5 13q1 7 25 28h-1q-24-21-25-27l-5-13q-4-14 2-17l4 4q4 11 10 18 9 12 23 20z"/><path fill="#fff" d="M231 383c0-1-13-10-23-25z"/><path d="m231 383-8-7q-9-8-15-18a108 108 0 0 0 23 24z"/><path fill="#fff" d="M228 387c-36-19-38-41-41-39-8 25 22 43 45 60z"/><path d="M227 387q-16-8-26-19-6-6-11-16l-3-4q-5 16 10 31 9 9 32 26l3 2-1 1-3-2-32-26q-15-17-10-32v-1h1l4 5 10 15q10 11 27 20z"/><path fill="#fff" d="M230 397c-1 0-17-5-27-20z"/><path d="m229 398-9-5q-10-7-18-16l1-1a54 54 0 0 0 27 21z"/><path fill="#fff" d="M231 407c-31-9-46-36-50-35-9 6 9 27 10 28 15 13 40 22 40 22z"/><path d="M231 408q-13-5-27-14l-16-15q-6-7-7-6-3 1-2 6l4 9 8 12q9 7 26 16l15 6-1 1a204 204 0 0 1-41-23l-8-12-4-9q-1-6 2-7 2-1 9 6 9 10 16 15 12 9 26 14z"/><path fill="#fff" d="M232 412s-22-4-34-15z"/><path d="m232 412-13-3q-13-5-21-11l1-1q7 7 21 11z"/><path fill="#fff" d="M231 421c-49-15-53-28-57-27-8 9 19 27 20 28 4 5 40 13 40 13z"/><path d="M231 421q-36-10-52-24l-4-2q-3 1-1 7l7 9 13 10v1h1q2 3 21 8l18 5v1q-36-8-40-14l-14-11-7-9q-2-5 1-8 2-1 5 2 18 14 52 24z"/><path fill="#fff" d="M235 423s-25 1-36-6z"/><path d="m235 424-14-1q-16 0-22-6v-1q7 6 22 6l14 1z"/><path fill="#fff" d="M234 435c-48-9-56-20-59-19-5 9 22 23 23 24 18 8 42 9 42 9z"/><path d="M234 435a168 168 0 0 1-59-19q-3 5 9 15l14 8q11 6 28 8l14 2v1a132 132 0 0 1-43-10l-13-8q-13-10-10-16v-1h1l5 2q20 11 54 17z"/><path fill="#fff" d="M239 441s-17 0-28-5z"/><path d="M239 441h-10l-18-4 1-1q6 3 17 4z"/><path fill="#fff" d="M232 467c-13 14-21 37-14 39 4-1 14-28 29-33l10-9z"/><path d="M233 468q-10 9-15 23l-2 10q0 4 2 4l6-8 10-14q6-9 13-10l9-9 1 1-10 9q-6 1-12 9l-10 14-7 9q-3 0-3-5l2-10q4-15 15-24z"/><path fill="#fff" d="M251 463c3 0-16 7-21 17z"/><path d="M251 463v1l-3 2q-16 8-18 14h-1q3-7 18-15z"/><path fill="#fff" d="M225 456c-20 17-26 34-23 35 4 1 22-18 28-20 3 0 22-11 22-11z"/><path d="M225 456q-12 11-19 24l-4 8v3q2 0 14-10l14-10 21-11 1 1-22 11-13 10q-13 10-15 10l-1-4 4-9q6-12 20-23"/><path fill="#fff" d="M237 457c3 1-13 7-17 17z"/><path d="m237 457-1 1-2 2q-12 8-15 14h-1q3-7 15-15z"/><path fill="#fff" d="M239 449c-22 3-58-16-60-14-8 12 31 26 40 25l32 1z"/><path d="M239 450q-10 0-26-4l-33-11q-3 4 1 9l12 8 15 6 11 2h32v2l-43-3-16-6-12-9q-4-4-1-10h3l7 3q35 14 50 11z"/><path fill="#fff" d="M248 455c-1 0-26 1-38-3z"/><path d="m248 456-15-1q-16 0-23-3v-1q8 3 23 3l15 1z"/><path fill="#fff" d="M306 453c0-1 0-12-6-14 0 0-13-1-28 1-33-22-8-47-12-57-2-14-24-35-24-35-2 3 0 15-2 15-4-2-2 7-3 11-4-1-4 5-3 10q-3 3-1 11c-7-2 2 10-1 11-10 0 2 10 2 11-6 3-3 6 1 8-5 5 0 10 2 11-4 3 0 6 3 9-3 4 4 6 8 7-3 6 0 6 4 8q-2 5 6 3c-3 4 2 6 5 5 0 1 1 5 6 4-1 4 7 4 8 4 1 4 13 3 13 2z"/><path d="m306 453-1-7q-1-6-5-6-13-2-28 1-16-10-18-24 0-8 4-21l2-13q-1-9-13-22l-11-12-1 8v6h-2l-1 1v10h-3l-1 2 1 8h-1l-2 4 1 7v1h-1l-1-1v1l1 5 1 4v1l-1 1h-3q-1 1 1 4l4 5 1 1h-1q-3 1-3 4l4 4h1l-1 1q-3 2-1 6l3 3h2l-2 1q-2 1-1 4l3 3 2 2-1 2 1 2 5 2 2 1h1l-1 1v4l3 2h1v3l1 1 5-1h1l-1 1-1 3 1 1 5 1h1l1 3h5l-1 1 1 2 2 1h5v1q1 2 7 2h6l1 1h-7q-7 0-8-3h-4l-3-1-1-2q-3 1-4-2l-1-2-5-1-2-2 1-2h-4l-2-2v-2l-4-3v-4l-1-1-6-2-1-3 1-2-1-1-4-4q-1-3 1-4l-3-4q-2-3 1-6l-4-4q-1-4 3-6l-4-5q-2-3-1-4 1-2 4-1v-1l-1-3-2-6 1-2h2l-1-6q1-4 3-4l-1-8 2-3h2v-9l2-2h1l1-1-1-3 1-10 1-1v1l12 12q12 14 13 23l-2 13q-4 13-4 21 2 13 17 23 15-3 28-1 5 0 6 7zm-65-73q3 7 5 7v1q-3 0-6-8zm-6-18q4 13 7 13v1q-4 0-8-13zm-3 10q1 8 4 8v1q-3 1-5-8zm-3 11q3 7 5 7v1q-3 0-6-7zm-2 11q3 7 6 7v1q-4 0-7-7zm0 11q6 9 8 8v1q-3 0-9-8zm1 11q5 5 8 5v1l-9-5zm1 9 9 5v1q-4 0-9-5zm2 10 11 3v1zm3 9h12v1zm7 7h11v1h-11zm4 8q7-3 11-1v1q-4-2-10 1zm6 4q7-3 11-1v1q-4-1-10 1zm5 5 11-3v1zm7 3 6-1 1 1q-5 2-8 1zm7 3 7-1v1l-7 1zm32-129-7-9-3-1h-1l-2 1-4 1-4-2v-3h1v2q1 2 3 2l3-1 3-1 4 1zm-8-10q-4 7-5 6 0 2 4 5 8 0 4-8z"/><path fill="#fff" d="m297 341-2 2-3-1 2-2z"/><path d="m225 542 2 1h1l4-2h-1l2-1v-1l17-16-4 1h-1l-5 4-1-1 6-4v-3l-3 1q-7 6-19 21l-1-1q11-14 19-20l-4-2q-3-3-2-6l1 1q-1 2 2 4v1l7-11v1l-6 10h3l3-1 8-7-1-1q-2-2 4-9l1 1q-6 6-4 7l1 1 6-5h1l-6 6-9 8v4l6-2 9-10-8 10h1l-1 1v1h2l4-3 5-5 1 1-4 5 2 4 5-6 3-4 1 1-3 4-5 6q-10 7-15 17l2 2 3 1 8-10 7-8 1 1-7 7-9 11-2-1-19 18v-1l18-17h-1l-2-2-15 15v-1l11-12h-2q-9 6-24 22l-1-1 23-23q-1 2-4 1v1l-16 16-1-1 16-16h-2l-19 19-1-1 20-19-1-2-4 2-10 9-1-1q2 0 9-8l-2-1v-2zm29-17-8 6 6-7v-1q-10 8-19 18 0 3 3 3 3 1 4-1l1-1 4-5 15-15zm6-2a93 93 0 0 0-19 20q0 2 3 2l4-3q6-9 15-16l-1-1-6 5-1-1 6-5zm-6-146 3 12q-4 4-5 10h-1q1-6 5-10l-3-12zm36 83q-3-11-12-15v-1q9 5 13 15zm12 0q-3-10-12-14l1-1q9 5 12 15zm-8 13a26 26 0 0 0-14 12h-1a27 27 0 0 1 15-13zm-24 31-3 6h1l7-4v1l-7 4h-2l-1-1 5-7zm-8-104q-1 4 3 10l4 6-1 1-4-6q-4-7-3-11zm17 60q-4-13-9-15l1-1q5 2 9 15zm-19-49q-1 3 3 7l5 3v1l-5-3q-6-4-4-9zm8 46q-1-12-4-13l1-1q3 3 4 14zm-2-60q-1 4 1 8l3 4h-1l-3-4q-2-4-1-8zm-8 53v-12h2zm-17-70q3 7 5 7v1q-3 0-6-8zm-2 10q2 6 6 7v1q-4 0-7-8zm26 36 4 3h3v1h-4q-4-1-4-4zm2 102-7 5v1-1l6-6zm-24-93q7-3 6-5h1q2 3-7 6zm-6-28q3 6 6 5v1q-3 0-7-5zm-1-10q3 6 6 5v1q-3 0-7-5zm3 21 7 1v1zm34-53 1 5v1h1-1v1h1-1l-1-2q-2-2-1-5zm31 48 5 5-1 1zm-31-73q-2 0-3 5h-1q1-6 4-6zm14 43 3 5v1l-4-5zm-41-10v2l2 2v1l-3-3v-2zm3 68 2-1q2-1 1-2l1-1q1 3-1 4zm40-44 3 5v1l-4-5zm-47 28h4v1h-5zm27 70-2 4-1-1 2-4zm12-145q-3 0-3 2l-1-1zm46 83 4 7h3v-3zm-9 2 1 8 3 1 1-2zm7 23v8l3 1 1-2zm15 8v-6l-2-5v-1h1v1q3 1 4 5zm-34 17-2 5 3 2 1-2q1-5-2-5m-7 52-3 2h-1l2-5 1-4v-1h1zm-16 4h-3v-4l1-5h1v1zm13-25-1 1-2-1v-4q0-2 3-3zm21-18-2 8 2 2q3-1 2-2zm-7 15q-5 4-5 7l2 3 2-1q3-4 1-9m-21-24-2 5 1 3q3 1 4-1zm28-24q-4 2-3 5l2 4q2 0 2-2 2-3-1-7m18 16q-2 1-1 5l2 2 2-2q1-4-3-5m-8 9q-3 7-2 9l3 1 1-2c1-2-1-2-2-8m-44 62q-2 1-2 5l2 2q3-1 2-2 1-5-2-5"/><path fill="#eace24" d="m724 617 1 43c-18 18-20 24-26 30-7-11-17-8-17-7-3-10-14-19-14-19 16-1 43-8 46-11 7-11-3-44-3-45z"/><path fill="#806600" d="m724 616-14-9 1 1 4 19q3 19-2 26l-17 6q-16 4-28 4h-1l1 1 6 6q6 7 7 13h7q6 1 11 7h1l4-6 21-24zm-1 1 1 43-25 29a17 17 0 0 0-17-7q-2-6-8-13l-5-5q12 0 27-4 17-4 18-7 5-6 2-27l-4-17z"/><path fill="#eace24" d="m685 681 17-13-21 11z"/><path fill="#806600" d="m685 681 18-13-1-1-21 12v1l14-7z"/><path fill="#eace24" d="M711 596s-22-10-45 5l-6-1c-4-5-14-19-22-19l1-60c3 1 5 7 5 7-2 14 5 98 37 45l22 4z"/><path d="m712 597-8-21-23-3h-1q-10 18-18 17-7-1-12-15a126 126 0 0 1-6-47q-1-7-5-7-2 48-1 60v1q7-2 19 15l3 4h6a49 49 0 0 1 45-4zm-2-2-13-2q-17-2-31 7h-5l-3-3-9-11q-6-5-10-5l1-59 3 6 1 20 5 28q6 14 13 15 8 1 19-17l22 3z"/><path fill="#806600" d="m712 597-8-21-23-3h-1q-10 18-18 17-7-1-12-15a126 126 0 0 1-6-47q-1-7-5-7-2 48-1 60v1q7-2 19 15l3 4h6a49 49 0 0 1 45-4zm-2-2-13-2q-17-2-31 7h-5l-3-3-9-11q-6-5-10-5l1-59 3 6 1 20 5 28q6 14 13 15 8 1 19-17l22 3z"/><path fill="#eace24" d="M723 404c-19 7-19 11-38 27-15 5-37 18-39 21l1 5c-3 1-5-5-5-5 3-17 55-64 56-64l23 6z"/><path fill="#806600" d="m724 405-3-12-24-6v1l-27 26q-26 27-29 37v1l2 3q3 4 5 3v-1l-1-5 14-9 24-12 23-19q4-3 15-7zm-2-1-15 7-12 10-10 9a160 160 0 0 0-39 22l1 5-3-2-2-3q2-10 29-38l27-25 22 5z"/><path d="m705 396-60 52-1 4h1l1-3zm-13 20a30 30 0 0 1-17 14v1l7-3q7-5 10-11z"/><path fill="#fff" d="M716 382c0-20-23-34-23-36 3-14 35 21 37 26 2 6-2 14-2 14z"/><path d="M717 382q0-10-8-20l-15-16 1-3 4 1q6 2 13 8l18 20q1 6-3 14h1l2-5q3-6 1-10l-6-8-13-12-12-8-5-1-3 4 4 4 12 12q8 11 8 20z"/><path fill="#fff" d="M710 356c6 6 12 24 12 25z"/><path d="M709 356q5 4 9 15l4 10h1l-4-11q-4-11-9-15z"/><path fill="#fff" d="M727 382c2-19-11-36-11-37 9-3 20 20 24 28l-4 27z"/><path d="M727 382a55 55 0 0 0-10-36q5-3 13 9l9 18-4 27h1l4-27-9-19q-9-12-15-9v1l1 2q12 19 9 34z"/><path fill="#fff" d="M731 366c4 10 0 22 0 23z"/><path d="M731 367q2 6 1 14l-1 8h1l1-8q1-9-1-15z"/><path fill="#fff" d="M734 393c5-6 1-38 2-39 10 1 15 32 13 39-7 23-12 26-12 26z"/><path d="M735 393q3-3 1-30v-8q6 0 10 16t2 22q-4 14-8 21l-4 5 1 1 4-5q4-7 8-21 2-7-2-23-4-17-11-18l-1 2v8q2 27-1 29z"/><path fill="#fff" d="M743 381c0 10-7 22-7 22z"/><path d="M743 381q0 6-4 15l-3 7 1 1 3-8q4-9 4-15z"/><path fill="#fff" d="M737 418c12-12 14-44 16-47 13 3 6 35 6 36 0 3-17 24-17 24z"/><path d="M737 418q9-9 15-40l1-7q7 2 7 19l-1 17-18 23 1 1 18-24 1-17q1-18-8-20h-1l-1 8q-6 30-15 39z"/><path fill="#fff" d="M754 392c4 9-15 35-15 35z"/><path d="M754 392q2 5-6 21l-9 14v1l10-15q9-16 6-22z"/><path fill="#fff" d="M721 493c0-1 3-46-2-53l17-25 21 44-19 36z"/><path d="m721 493 17 3 20-37-22-45-18 26h1q3 4 3 29zm1-1 1-23q0-24-3-29l16-24 21 43-20 36zm-1 1 17 3 20-37-22-45-18 26h1q3 4 3 29zm1-1 1-23q0-24-3-29l16-24 21 43-20 36z"/><path fill="#fff" d="M737 592c-7 10-11 31-11 32l-2-8-3 7-2-6-2 7-1-5c-1 1-1 7-2 4 0-37-69-71-69-113-1-43 43-56 71-91 0 0 8-23-6-13-12-3-11-14-11-14l-6-1c-2-25 21-18 22-18 23 1 25 24 25 25 5 32-34 68-34 68-6 14 0 36 0 36l55 54z"/><path d="M737 592q-5 6-9 19l-2 10-2-5-2 3-1 3v-2l-2-4-1 1v2l-1 5-1-4v-2h-1l-1 3q0-12-10-25-5-9-23-26-18-19-24-30-11-16-11-30 0-19 11-34 7-9 28-26 22-19 32-31l2-10-2-6q-3-1-7 2-7-1-9-7l-1-6v-1h-7q-2-15 10-18h12v1q14 0 20 12 4 6 4 12 4 19-14 46-10 13-20 22-3 9-2 23l2 13 56 55 1-1-56-54-2-13q-1-15 2-22 10-9 19-23 19-26 15-46 0-7-4-13-6-12-21-13h-12q-13 3-11 19v1h7l1 6q1 7 10 8 5-3 6-2 2 1 2 5l-2 10q-10 12-32 30-21 17-28 26-11 15-11 35 0 13 11 31 7 11 25 29l22 27q10 14 10 26l1 1h1v-3l2 4q2 0 2-6v-2l1 4 1 2 2-4 1-1 2 6h1l2-12q4-13 8-19z"/><path fill="#fff" d="M761 556c3 4 19 22 23 29 4 6-5 4-6 4 1 0 16 16 24 21-3 7-17-2-18-2 1 0 14 8 14 10-5 3-17-5-17-5s3 3 0 6c-4-1-14-8-14-8q2 2 0 6l-31-25z"/><path d="m760 556 2 2 21 27 2 3-2 1h-6l1 1q15 15 23 20-1 2-3 2l-6-1-5-2-2-2-1 1 3 2 11 7q-3 3-10-1l-7-4-1 1 1 2v3q-4 0-14-7h-1l1 3v2l-30-24-1 1 30 24h1l1-3v-1q9 6 13 6h1v-5l6 3q7 4 11 1l-6-6 5 1q3 0 4-3v-1q-7-4-22-19h3l3-2-2-4-21-27-2-1zm-10-11 4 5 1 3h-2v1h2l1-1-2-3-3-6z"/><path fill="#fff" d="M752 517c6 13 14 33 5 43-2 0-10-29-16-32l-5-18z"/><path d="M751 518q16 30 6 41l-5-12q-7-17-11-20l-2-8-3-9-1 1 3 9 2 8h1q3 2 10 20 4 13 7 12 10-12-6-43z"/><path fill="#fff" d="M742 516c-3 0 6 7 10 16z"/><path d="m742 515-1 1v1l3 3 8 12h1q-2-6-9-13l-2-3z"/><path fill="#fff" d="M739 518c5 24 1 29-1 29-3-2-9-22-14-24z"/><path d="M739 518q3 16 2 23l-3 6-4-9q-6-15-10-16v1q3 1 9 16l4 9h1q3-1 4-6 1-8-2-24z"/><path fill="#fff" d="M764 409c20-21 23-43 25-44 10 0-3 39-3 40l-24 21z"/><path d="M765 409a102 102 0 0 0 24-43l3 1v4l-1 14-5 20-25 21 1 1 25-22 6-34-1-5-3-1-2 5q-9 24-23 38z"/><path fill="#fff" d="M767 413s10-8 15-18z"/><path d="M768 414q9-9 15-19h-1q-5 11-15 18z"/><path fill="#fff" d="M764 423c30-19 34-47 36-47 9 4-2 29-2 30-2 8-25 31-26 31z"/><path d="M764 423a78 78 0 0 0 34-42l2-4q6 2 2 15l-5 14q-1 7-25 31h1q24-23 25-31l5-14q4-13-2-16l-4 5-9 19q-11 13-24 22z"/><path fill="#fff" d="M770 431s13-11 23-27z"/><path d="m770 431 8-7 15-20v-1a119 119 0 0 1-23 27z"/><path fill="#fff" d="M773 435c37-23 37-46 41-46 8 23-22 49-45 67z"/><path d="M774 435q17-10 26-23 6-7 11-18l3-4q5 14-10 33-9 11-32 30l-3 2 1 1 3-2q23-19 32-31 15-19 10-34h-1l-4 5-10 17q-11 14-27 23z"/><path fill="#fff" d="M772 445s16-7 26-24z"/><path d="m772 446 9-6q11-7 18-19h-1a63 63 0 0 1-27 24z"/><path fill="#fff" d="M770 455c32-12 46-43 50-43 9 4-9 30-10 30-15 17-40 29-40 29z"/><path d="M770 456q14-5 27-17l16-19 7-7q3 1 2 5t-4 10l-8 14a131 131 0 0 1-41 28l1 1a158 158 0 0 0 41-28l8-15q4-6 4-10 1-5-2-6-2-1-9 8-9 12-16 18-12 12-26 17z"/><path fill="#fff" d="M769 460s22-5 34-19z"/><path d="m769 460 13-4q14-6 21-15h-1q-7 8-21 14z"/><path fill="#fff" d="M770 469c51-19 52-37 57-37 8 7-20 33-20 33-4 6-40 18-40 18z"/><path d="M770 469q36-13 52-33l5-3v7l-7 11-13 13v1q-3 3-22 11l-18 7v1q37-13 40-19l14-14 7-11q2-6-1-8-2 0-5 4-18 18-52 32z"/><path fill="#fff" d="M766 472s25-1 36-11z"/><path d="m766 472 14-1q15-3 22-10v-1q-7 6-22 10z"/><path fill="#fff" d="M767 483c49-12 55-29 59-29 6 9-22 29-23 29-18 13-42 15-42 15z"/><path d="M768 484a137 137 0 0 0 58-29q3 4-9 16l-14 12a89 89 0 0 1-42 15v1a101 101 0 0 0 43-15l13-12q14-13 10-18l-6 3q-19 17-54 26z"/><path fill="#fff" d="M762 489s17 0 28-7z"/><path d="m762 490 10-1q10-2 18-6l-1-1q-6 5-17 6l-10 1z"/><path fill="#fff" d="M769 515c13 13 21 35 14 37-4 0-14-26-29-30l-10-8z"/><path d="M769 516q9 9 14 22l2 10-2 4q-1 1-6-8l-10-13q-6-7-13-9l-9-9-1 1 10 9q6 2 12 9l10 13 7 8q3-1 3-5l-2-10q-4-14-15-23z"/><path fill="#fff" d="M750 512c-3 1 17 7 21 16z"/><path d="M750 512v1l3 2q16 7 18 13h1q-3-7-18-14z"/><path fill="#fff" d="M776 504c20 14 26 30 23 32-5 1-22-15-28-17-3 0-21-9-22-9z"/><path d="M776 504q12 9 19 21l4 7v3q-3 2-14-7t-14-9-21-10l-1 1 22 10q3 0 13 8 13 10 15 8l1-4-4-8q-6-11-20-21z"/><path fill="#fff" d="M764 506c-3 0 13 6 17 15z"/><path d="m764 505-1 1 1 1 2 1q12 7 15 13h1q-3-7-15-14l-3-1v1z"/><path fill="#fff" d="M762 498c22 1 59-25 60-24 9 11-31 33-40 33l-32 3z"/><path d="M762 498q10 2 26-6l25-12 6-4 2-1q3 3-1 9-3 5-12 10l-15 9q-8 4-11 3l-32 4v1l43-7q9-3 16-9l12-11q4-6 1-10h-1l-2 1-7 4q-35 19-50 18z"/><path fill="#fff" d="M754 504s25 0 37-7z"/><path d="m754 505 14-1 23-6v-1l-23 6-14 1z"/><path fill="#fff" d="M695 499s0-11 6-12l28 2c34-21 8-47 12-56 2-15 24-36 24-36 2 2 0 14 2 14 4-2 2 7 3 11 4-2 4 4 3 10q4 3 1 11c7-3-2 10 1 11 10-2-2 10-2 10 6 3 3 7-1 9 5 5 0 10-2 11 4 3 0 6-3 9 3 5-4 6-8 8q3 6-4 8 1 5-6 3c4 5-2 6-5 6 0 0-1 5-6 3 1 4-7 4-8 4-1 4-13 2-13 2z"/><path d="m695 500 1-7q1-5 5-6l28 3q16-10 18-24 0-7-4-21l-2-12h1q0-9 12-23l11-13 1 9v6h1l1-1 1 1v10h3l1 2-1 8h1q2 1 2 4l-1 6v2h1l1-1 1 1-2 5-1 5h1l3 1q1 1-1 3l-4 6-1 1h1q3 1 3 4l-4 4h-1l1 1q3 2 1 6l-3 3-2 1h2q2 1 1 4l-3 4-2 1v1l1 2v1l-6 3-2 1h-1 1v5l-3 2h-1v3l-1 1h-5l-1-1 1 2 1 2-1 1-5 1v1l-2 2-4 1-1-1 1 1-1 2-2 1h-5v1q0 2-7 2h-6v1h6q7 0 8-3h4l3-1 1-2 4-1 1-3q3 1 5-1l2-2-1-2h4l2-2v-2l4-3v-5h1l6-3 1-2-1-3 1-1 4-4q2-3-1-4l3-4q2-4-1-7l4-4q1-3-3-5l4-5q2-3 1-5l-4-1 1-4 2-5-1-2h-2l1-6q0-4-3-5l1-7-1-3h-3v-9l-1-2h-2v-4l-1-10h-1l-12 13q-12 15-13 23-1 4 2 13 4 14 4 21-3 13-17 23l-28-3q-5 1-6 7zm66-71q-3 7-6 7v1q3 1 6-8m5-18q-4 12-7 12v1q4 0 8-13zm3 10q-1 7-4 8v1q3-1 5-9zm3 10q-3 7-5 8v1q3-1 6-9zm2 11q-3 7-6 7v1q4 0 7-8zm0 11-8 9v1q3-1 9-9zm-1 11q-5 6-8 5v1q3 1 9-5zm-1 9q-6 6-9 5v1q4 0 9-5zm-1 10-12 4v1q5 0 12-4zm-4 9-12 1v1l12-1zm-7 8h-11v1h11zm-4 8q-7-3-11-1v1zm-6 4h-11v1h10zm-5 5-11-3v1l11 3zm-7 3q-1 2-6-1l-1 1q5 3 8 1zm-7 4-7-2v1zm-32-132 7-8h4l3 1 3 1q3 0 4-3v-2h-1v2q-1 2-3 2l-3-1-3-1h-4q-4 2-8 9zm8-9q4 7 5 6 0 2-4 5-8-1-4-8z"/><path fill="#fff" d="m704 389 2 2 3-1-2-2z"/><path d="M776 589v1l-2 1h-1l-3-1v-1l-2-1-17-16 4 1h1l5 4 1-1-6-4v-3h3l19 20h1l-19-20 4-1q3-4 2-6h-1q1 3-2 5l-7-10v1l6 10h-3l-3-1-8-7 1-1q2-2-4-8v1q5 4 3 7h-1l-6-5-1 1 6 5 9 8v4l-6-2-9-10v1l8 9v3h-2l-4-3-5-5h-1l4 5v1q0 3-2 3l-5-5-3-5-1 1 3 4q4 6 6 6h-1q10 8 15 17l-2 2-3 1-8-10-7-8-1 1 7 8 9 10h2q9 6 19 17v-1q-9-11-18-17h1l2-2h1l-1 1 15 14 1-1-14-13 2 1 2-1 24 21 1-1-23-21 4 1 16 15 1-1-16-14 2-1 19 17 1-1-19-18 4 1 10 8 1-1q-2 0-9-7l2-1v-3zm-29-15 8 6-6-6v-2l19 17q0 3-3 4l-4-1-1-1-4-5-15-15v1-1zm-6-2 19 20q0 2-3 2l-4-3q-5-9-15-16l2-1 5 5 1-1-6-5zm6-146-3 12v1q4 3 5 9h1q-1-6-5-10l3-12zm-36 82q4-10 13-14l-1-1q-9 4-13 15zm-12 0q3-10 12-14v-1q-10 4-13 14zm8 13a29 29 0 0 1 14 13h1l-4-5q-5-6-11-9zm24 32 4 6h-2l-7-4v1l7 4h2l1-1zm8-103q2 3-3 10l-4 5 1 1 4-6q5-6 3-10zm-17 59q4-13 9-15l-1-1q-4 2-9 15zm19-49q2 4-3 7-2 3-5 3v1l5-3q6-4 4-8zm-8 46q1-11 4-12l-1-1q-3 1-4 13zm2-60q1 4-1 8l-3 4 1 1 3-4q2-5 1-9zm8 53v-12h-1zm18-70q-3 7-6 7v1q3 1 6-8m1 9q-2 7-6 8v1q4-1 7-8zm-26 37q0 3-3 3h-4v1h4q4 0 4-4zm-2 102 8 6h-1l-6-7zm24-93q-7-2-6-5h-1q-2 4 7 6zm6-28q-3 5-6 5v1q3 0 7-5zm1-10q-3 5-6 5v1q3 0 7-5zm-3 21-7 1v1zm-34-52v4l-1 2h-1l1 1v-1h1v-2q2-3 1-5zm-31 45-5 5 1 1zm32-71q2 1 2 5h1q0-5-3-6zm-15 43-3 4 1 1 3-5zm41-10v2l-2 2v1l3-2v-3zm-3 68-2-1-1-2h-1q-1 2 1 3l3 1zm-39-44-4 4v1zm46 28h-4v1h5zm-27 70 3 4v-1l-2-3zm-12-145q3 0 3 2l1-1zm-46 78-4 6h-3v-2zm9 4-1 7-3 1-1-2zm-6 22-1 7q-1 2-3 1l-1-2zm-16 5 1-1v-6l2-4v-1h-1l-4 5zm34 22 2 5-3 2-1-2q0-5 2-5m7 52 3 3h1l-2-5-1-5h-1zm17 6h1v-4l-1-5h-1v9m-14-26 1 1 2-1v-4l-3-3zm-21-20 2 7-2 2-2-1zm7 16q6 4 5 8l-2 2-2-1q-3-5-1-9m21-22q3 3 3 5 1 1-2 3l-4-1zm-27-27q2 2 2 5l-2 4-2-2q-2-5 2-7m-19 13q2 1 1 5l-2 2-2-2q-1-5 3-5m8 10q3 8 2 9l-3 1-1-2c-1-3 1-2 2-8m45 66q2 2 1 5l-2 2-2-1q-1-4 3-6"/><path fill="#eace24" d="M494 394q1-6-2-12l-3-3-3 1v4l1 4-7-3q-3-3-4-8v-6l3-5q8-2 12 0l5 6 3 17v7l-1 5-3 4-8 1 4-6z"/><path fill="#806600" d="m493 394-1-12-3-2-2 1-1 3 2 4v1h-1l-7-4q-4-3-5-8v-6l4-5q3-2 7-2l5 2q4 3 5 6l3 17v8l-1 5-3 3-8 1h-1 1l4-6v-1zm-1 5v2l-4 4 7-1 2-3 1-4v-8l-3-17-4-5-5-2-6 1-4 5v6l4 7 6 3-1-3 1-4 3-1q3 0 4 3 2 5 1 12z"/><path fill="#eace24" d="M508 396q-1-6 2-11l2-2q3 0 3 2l1 4-2 3 8-1 4-6v-6q-1-4-4-6-7-5-11-4l-5 5-3 15v7l1 6 3 4 8 4-5-7z"/><path fill="#806600" d="m510 402 1 1 4 7 1 1h-2l-8-4-2-5-1-5-1-1v-7l4-15q1-3 5-5h5l7 3q3 3 3 7v6q-1 5-4 6l-8 2h-1l1-1 1-4v-3l-3-1q-1-1-2 1-2 3-1 11zm-2-6q-1-7 1-12l4-2 3 3 1 4-2 3 6-2q4-2 4-5v-6l-3-6-6-3h-5q-3 1-4 4l-2 8-1 8-1 1v5l1 1 1 5 2 4 6 3-3-6-1-1z"/><path fill="#eace24" d="M501 419q2 0 5-8 0-8-2-12c-1-8 1-18 1-19l2-6 3-3 2-4v-10l-4-5-4-3q-3-4-3-7l-4 6-4 2-3 4v9l2 5 3 4 2 7c0 1 2 11 1 19l-3 11c1 5 6 10 6 10"/><path fill="#806600" d="M501 419q-5-4-5-10-1-3 2-8v-3a64 64 0 0 0-3-25v-1l-2-4-1-1-2-4-1-5 1-4 4-5 4-2 3-5h1l3 6 5 4 4 5v10l-3 3v1l-3 4-2 5-1 19 1 3q3 6 2 9-2 5-6 8m0-1q4-3 5-7l-2-9-1-3 1-19 5-10h1l2-4v-8l-4-5-4-4-3-5-3 4h-1l-4 2-3 4v9l2 4 1 1 2 4v1l2 6q3 11 1 20l-1 2q-2 6-1 8 0 4 5 9"/><path fill="#eace24" d="m512 395-3-4-17-2-2 3 2 3 17 3z"/><path fill="#806600" d="m512 395-2 4-18-3-3-4 3-4 18 3zm-1 0-2-3-16-3-2 3 2 3 16 2z"/><path fill="#eace24" d="M402 381q1-7-1-12l-3-3-3 1-1 4 2 4-7-3-4-7v-7l3-5q8-2 12 0l4 6 3 16 1 7-2 6q0 2-2 3l-8 2 4-6z"/><path fill="#806600" d="M402 381q1-8-2-12 0-2-2-2h-2l-1 4 2 4v1h-1l-7-4q-4-3-5-7v-7l4-5q2-3 7-2l5 2q3 2 5 6l3 16v9l-1 4-3 4-8 1h-1v-1l5-5v-2zm-1 5-1 1-3 5 6-1 3-3 1-11v-2l-3-16q-1-3-5-5l-4-2-7 2-3 4v7l4 6 6 3-1-3 1-4 3-1 3 2q3 4 2 13z"/><path fill="#eace24" d="m417 383 1-12 3-2 3 2 1 4-2 4 7-2q3-2 5-6v-6l-4-6q-8-5-11-3l-5 4-3 16v7l1 6 2 4 8 3-4-6z"/><path fill="#806600" d="m419 388 1 1 4 7 1 1h-2l-8-4-3-4-1-5v-8l3-16 5-5h6l6 3 4 7v6l-4 7-8 1h-1l1-1 1-3v-4l-3-1-2 1q-2 4-2 12zm-3-5q-1-9 2-12 1-2 3-2l4 2v4l-1 3 6-1 4-6v-6l-3-6-6-3h-5l-5 5-2 7-1 8v8l1 5 3 3 6 4-3-6-1-2z"/><path fill="#eace24" d="M410 406q2-1 5-9 0-7-3-11l2-20 2-5 2-4 3-4 1-5-1-4-4-5-4-4-3-6-4 5-4 3-4 4v9l3 5 2 4 2 6c1 1 3 12 2 20q-2 3-3 11 3 8 6 10"/><path fill="#806600" d="m410 406-6-10 2-9 1-2a64 64 0 0 0-3-25v-1l-3-4v-1l-2-4-1-5 1-4 4-5 4-2 3-5 1-1v1l3 6 5 3 3 6 1 4-1 5-2 4-3 5-2 5q-2 10-1 19l1 3 2 9zm0-1 5-8-2-8-1-3q-1-9 1-20l2-5v-1l3-3v-1l2-3 1-5-1-4q0-3-3-5l-4-3-3-6q-1 4-4 5l-4 2q-3 1-3 4v9l2 4 3 5 2 6q2 11 1 20l-1 3-2 8z"/><path fill="#eace24" d="m420 381-2-3-17-3-2 3 2 4 17 2z"/><path fill="#806600" d="m421 381-3 4-17-2-3-5 3-3 17 2zm-1 0-2-3-17-2-2 2 2 4 17 2z"/><path fill="#eace24" d="M585 408q1-7-2-13 0-2-3-2l-2 1-1 4 2 4-8-4-4-7v-6l4-5q6-3 11 0l5 6 3 16v7l-1 6-3 3-8 2 5-6z"/><path fill="#806600" d="M584 407q1-8-1-11t-3-2h-2l-1 4 2 4 1 1-2-1-7-3-4-8h-1l1-7q0-2 3-5l7-1q4 0 5 2 4 2 5 6l3 16 1 2v5l-1 1-1 5-2 3v1l-9 1h-1l1-1 4-5 1-2zm0 6-1 1-3 5 6-1 2-3 1-5 1-1v-5l-1-2-3-16-4-6-5-1-6 1q-3 3-3 5l-1 6h1q1 4 4 7l6 3-2-3 1-4q2-2 3-1 3 0 4 2 2 4 1 13z"/><path fill="#eace24" d="M599 410q0-7 2-12l3-2 3 2v4l-1 4 7-2 4-6v-7l-3-6q-7-4-12-2l-5 4-3 16v7l1 6 3 4 8 3-4-7z"/><path fill="#806600" d="M602 415v1l4 7 1 1h-1l-8-4-3-4-1-5v-8l3-16q1-3 5-5h5q4 0 7 3l4 6v7q-1 4-5 6l-7 2h-1v-1l2-4-1-3-2-1-3 1q-2 4-1 12zm-3-5q-1-9 1-13 1-2 4-1 3 0 3 2l1 4-1 3 6-2 4-5v-7l-4-5q-1-2-6-3h-5l-4 4-2 8-1 8v8l1 5 2 3 7 3-4-5v-2z"/><path fill="#eace24" d="M592 432q2 0 6-8l-3-11c-1-9 1-19 1-20l2-6 3-3 2-4v-9q0-3-3-5l-5-4-3-6q0 2-3 5l-5 2-3 5v9l2 4 3 5 2 6c0 1 2 12 1 20l-3 11z"/><path fill="#806600" d="M592 432q-5-6-6-10l2-9 1-2a64 64 0 0 0-3-25l-1-1-2-4v-1l-3-4v-10l4-4 4-2 4-5v-1l1 1 3 6 4 3 4 6 1 4-1 5-2 3-1 1-2 4-2 5-2 20 1 2 2 9q0 5-6 9m0 0q5-4 5-8l-2-8-1-3 2-20 2-5v-1l2-4h1l2-4 1-4-1-4-4-5-4-3-3-6-3 5-4 2-4 4v9l2 3 1 1 2 5h1l1 6q3 12 2 20l-1 3-2 8q1 4 5 9"/><path fill="#eace24" d="m603 408-2-4-17-2-3 3 3 4 17 2z"/><path fill="#806600" d="m604 408-3 4-18-3-2-4 2-3 18 2zm-2 0-2-3-16-2-2 2 2 3 16 3z"/><path fill="#eace24" d="m475 633 51 8v12l-51-8zm0-3q1-18-6-35l2 1q5 1 6 7v3h2q6 1 7 7 0 6-7 6h-1q2 7 6 8 3 0 4-4l5 6q5 0 6-8h-4q-6-1-6-7t6-6l-1-4q1-5 7-5 6 2 6 7l-1 4q7 1 7 7t-7 6l-3-2q0 9 5 10 3 0 5-4 2 5 5 6 5 0 5-7l-1-1q-6 0-6-7 0-6 6-6l3 1-1-3q1-5 7-5h2q-7 15-7 33z"/><path fill="#806600" d="M475 630q-1-21-7-34v-1h3q2 0 5 3l2 5v2h1q3 0 5 3l3 5-3 5-5 1q0 7 5 8 3 0 4-4v-2l1 2q1 5 4 5 3 1 4-2l1-4h-3l-5-3-2-5q0-4 2-5l4-2v-3q-1-3 2-4 2-3 5-2l5 3 2 6-1 2a9 9 0 0 1 6 8q1 4-2 5l-5 2-3-2 2 6 3 3q3 0 5-4v-2l1 2q1 5 4 5 4 1 5-6h-1q-3 0-5-3l-2-5 2-5q3-2 5-1h2v-2l2-4q2-2 5-2l2 1h1l-1 1q-6 11-6 32zm1-1 50 8q0-19 6-31l-1-1-4 1-2 5v2l1 1h-1l-3-1q-3-1-4 1l-2 4a7 7 0 0 0 6 7h2v1l-2 5q-1 3-4 2-3 0-5-5-2 4-5 4l-4-4-2-7v-1l1 1 3 2 5-2 1-4a7 7 0 0 0-6-7v-1l1-3a7 7 0 0 0-6-7l-4 1-2 5 1 3v1l-1-1-4 2-2 4a7 7 0 0 0 6 7l4-1v1l-1 6q-2 3-5 2-2 0-5-4-1 3-4 3t-4-3l-2-6-1-1h2q2 1 5-1l1-4a7 7 0 0 0-6-7h-2l-1 1v-2l1-2a7 7 0 0 0-6-7h-1q5 14 6 33m51 11v13l-52-8v-13zm-51-7v11l50 8v-11zm26-17h7l-7-3-1-7-1 7h-8l7 2zm-27 19 1 3v1l-1 3h-1zm1-22 6-1-7-1-2-7 1 9zm-2-3v1l1 2v1l-1 1z"/><path fill="#ff8080" d="m496 642 4-2 5 3-5 2z"/><path fill="#9e7800" d="m496 641 4-2h1l4 4 1 1h-1l-4 2h-1l-4-4zm1 1 3 3 4-2-4-3z"/><path fill="#ff8080" d="m496 642 4-2 5 3-5 2z"/><path fill="#ba0028" d="m505 643-4 2h-1v-3z"/><path fill="#cf1e45" d="M500 642v3l-4-3z"/><path fill="#ff083c" d="M500 640v2l5 1z"/><path fill="#f9c" d="m473 638 2-2 1 3-1 2z"/><path fill="red" d="m473 638 3 1-1 2z"/><path fill="#ccc" d="m474 610 1 3v2h-1l-3-3q1-2 3-2"/><path fill="#9e7800" d="m474 610 2 3-1 2h-1l-3-3 1-2zm0 1h-2v3h2l1-1z"/><path fill="#fff" d="m473 611 1 1-1 1-1-1z"/><path fill="#806600" d="m526 621-7-3 8 1 2-7-2 9zm2-3v1l-1 2v2h1z"/><path fill="#ccc" d="m528 619-2 2 1 2h1q2 1 2-2z"/><path fill="#9e7800" d="m528 618 3 3-1 2-2 1-1-1h-1v-2zm0 1-1 2v1l1 1 1-1 1-1z"/><path fill="#fff" d="m528 619-1 1 1 1 1-1z"/><path fill="#806600" d="M527 643h-1l-2 3 2 3 1 1z"/><path fill="#ff083c" d="m529 647-3-3-1 2 1 3z"/><path fill="#ba0028" d="m529 647-4-1 1 3z"/><path fill="#ccc" d="m503 615-2 2-3-3q1-2 3-2t2 3"/><path fill="#9e7800" d="M503 615v2h-2q-3 0-3-3l1-2h2q3 0 2 3m0 0-2-3-2 1v1q0 2 2 3z"/><path fill="#fff" d="m501 614-1-2 1-1z"/><path fill="#ccc" d="m491 638-2 2-2-2 2-2z"/><path fill="#9e7800" d="M491 639h-1q-2 0-2-2v-1l2-1a2 2 0 0 1 2 3m-1-1h-1l-2 1 1 1 1 1z"/><path fill="#fff" d="M489 638h-1l1-1z"/><path fill="#ccc" d="m491 644-2 1-2-2 2-1z"/><path fill="#9e7800" d="m491 644-1 1-1 1q-2-1-2-3v-1l2-1 1 1zm-1 0v-1l-1-1-2 1 2 2z"/><path fill="#fff" d="m489 643-1-1z"/><path fill="#ccc" d="m515 642-2 2-2-2 2-2z"/><path fill="#9e7800" d="m515 642-1 2h-1l-2-2 1-2h1l1 1zm0 0-2-2-1 1v1l1 1q1 1 2-1"/><path fill="#fff" d="M513 642h1z"/><path fill="#ccc" d="M515 647q0 3-2 2l-2-2 2-2z"/><path fill="#9e7800" d="M515 648h-1l-1-1-1-1 1-1 1-1 1 1zm0-1h-1l-1 1 1 2z"/><path fill="#fff" d="m513 647 1-1z"/><path fill="#eace24" d="m424 566 51 7v13l-51-8zm0-3q0-17-7-34h2q6 1 7 7l-1 3h3q6 1 6 7t-6 6h-2q2 7 6 8 3 0 5-4 2 5 5 6 5 0 5-8h-3q-6-1-7-7 1-6 7-6l-1-4q0-6 6-5 6 0 7 7l-1 4q6 1 6 7t-6 6l-4-2q1 9 6 10 2 0 5-4 1 5 4 5 4 1 6-7h-1q-6-1-7-7 1-6 7-6l2 1v-3q0-6 6-5h2q-7 15-6 33z"/><path fill="#806600" d="M423 563q0-20-6-34l-1-1h3l5 3 2 5v2h2q2 0 5 3l2 5-2 5-6 1q1 7 5 8 3 0 4-4l1-2v2q2 5 5 5 2 1 3-2l2-4h-3l-5-3q-2-2-2-5t2-5l4-2-1-3 2-5 5-1q3 0 5 3t2 5v3l4 3 2 5-2 5q-2 2-5 1l-3-1 1 6 4 2q3 1 4-4l1-1v2q1 4 4 5 5 0 5-6l-5-3-3-5q1-4 3-5 1-2 5-2l1 1v-2l2-5 5-1 2 1h1q-7 13-7 33zm1 0 50 7q0-19 6-32h-1l-4 1-2 4 1 3v1l-1-1-2-1-5 2-1 4a7 7 0 0 0 6 7h1l-2 6q-1 3-4 2-3 0-4-5-2 4-5 4l-5-4-1-7v-1 1l4 1q3 1 4-1l2-4a7 7 0 0 0-6-7h-1v-1l1-3a7 7 0 0 0-6-7l-4 1-2 4 1 4v1-1l-5 2-1 4a7 7 0 0 0 6 7l3-1h1v1l-2 6q-2 3-4 2-3 0-5-4-2 3-5 3t-4-3l-2-6v-1h2q3 1 4-1l2-4a7 7 0 0 0-6-7h-3l-1 1 1-1v-3a7 7 0 0 0-6-7h-1q6 15 6 34m51 10v13l-52-8v-13zm-51-7v12l50 7v-11zm27-17 7-1-8-2-1-7-1 7h-7l7 2zm-28 19 1 1 2 2v1l-2 3h-1zm1-21 7-2-8-1-2-7 2 9zm-2-4v1l1 2v2l-1 1z"/><path fill="#ff8080" d="m444 575 5-2 4 3-4 2z"/><path fill="#9e7800" d="m444 574 5-2 5 4v1l-5 2-5-4zm1 1 4 3 3-2-3-3z"/><path fill="#ff8080" d="m444 575 5-2 4 3-4 2z"/><path fill="#ba0028" d="m453 576-4 2v-3z"/><path fill="#cf1e45" d="M449 575v3l-5-3z"/><path fill="#ff083c" d="M449 573v2l4 1z"/><path fill="#f9c" d="m421 571 3-2 1 3-1 2z"/><path fill="red" d="m421 571 4 1-1 2z"/><path fill="#ccc" d="m422 544 2 2-1 2h-1q-2 0-2-3 0-2 2-1"/><path fill="#9e7800" d="m422 543 1 3v2h-2l-2-1-1-2 1-1zm0 1h-1l-1 2 1 1h2v-1z"/><path fill="#fff" d="m421 544 1 1-1 1-1-1z"/><path fill="#806600" d="m474 554-6-3 7 1 2-7-1 9zm2-3-1 3v1l1 1z"/><path fill="#ccc" d="m476 552-1 2v1l1 1q3 0 2-2 1-2-2-2"/><path fill="#9e7800" d="m476 551 2 1 1 2-1 2h-3l-1-2q0-2 2-3m0 1-1 2 1 1h1l1-1z"/><path fill="#fff" d="m477 552-1 1 1 1 1-1z"/><path fill="#806600" d="m475 575-1 2v1l1 3 1 1z"/><path fill="#ff083c" d="m477 580-2-4-1 3 1 3z"/><path fill="#ba0028" d="m477 580-3-1 1 3z"/><path fill="#ccc" d="M452 548q-1 2-3 2l-2-3q0-2 2-2t3 3"/><path fill="#9e7800" d="m452 548-1 1-2 1q-3 0-2-3v-2h2q3 0 3 3m-1 0-2-3h-1l-1 2 2 2q2 1 2-1"/><path fill="#fff" d="M450 547h-1l-1-1 1-1z"/><path fill="#ccc" d="M439 571q0 3-2 2l-2-2 2-2z"/><path fill="#9e7800" d="M439 572h-2l-2-2 1-1 1-1 2 1zm0-1h-1l-1 1 1 2z"/><path fill="#fff" d="M438 571h-2l1-1z"/><path fill="#ccc" d="m439 577-2 1-2-2 2-1z"/><path fill="#9e7800" d="M439 577v1h-2q-2 1-2-2l1-1 1-1a2 2 0 0 1 2 3m0 0-2-2-1 1 1 2z"/><path fill="#fff" d="m438 576-1 1-1-1 1-1z"/><path fill="#ccc" d="m463 575-2 2-1-2 1-2z"/><path fill="#9e7800" d="M463 575v1l-2 1-1-1-1-2 1-1h1zm0 0-1-1-1-1-1 1v1l1 1z"/><path fill="#fff" d="m462 574-1-1z"/><path fill="#ccc" d="m463 580-2 2-1-2 1-2z"/><path fill="#9e7800" d="M463 580v2h-2l-2-2 1-2h1zm0 0-1-1-1 2 1 2z"/><path fill="#fff" d="m462 580-1-1h1z"/><path fill="#eace24" d="m527 581 51 8v12l-51-7zm0-2q0-18-7-35h2q7 2 7 8l-1 2h3q6 2 7 8-1 6-7 6l-1-1q0 8 5 9 3 0 5-4 2 5 5 6 5 0 5-9l-3 1q-6-2-7-8 1-6 7-5l-1-4q1-6 6-6 7 2 7 8l-1 3q6 2 7 8-1 6-7 6l-4-2q2 8 6 10 3 0 5-5 1 6 5 6 3 0 5-7h-1q-6-2-7-8 1-6 7-6l2 1v-2q1-6 7-6l1 1q-6 14-6 32z"/><path fill="#806600" d="M526 579q0-20-6-35h2q3 0 5 3 3 2 2 5v2h2q3 0 5 3l2 5-2 5-6 1q1 7 5 7 2 2 5-4v-1l1 2q1 4 4 5 1 1 3-2l2-5-3 1-5-3-2-6 2-5 4-1-1-3 2-5 5-1q3 0 5 3 2 2 2 5v3a9 9 0 0 1 6 8l-2 5-5 1-3-1 1 5 4 3q3 0 4-4l1-1v1q2 5 5 6 3 0 4-7l-5-2-2-6 2-5 5-1h2l-1-1 3-5q1-2 5-1h2v1q-6 12-7 32v1zm1-1 50 8q1-20 7-32h-1q-2-1-5 1l-2 4 1 2v2l-1-1-2-1-5 1-1 4a7 7 0 0 0 6 7h2v1l-2 6-4 2q-4-1-5-5-2 3-5 3t-4-3l-2-7v-1l1 1 3 1 4-1 2-4a7 7 0 0 0-6-7h-1l1-1v-3a7 7 0 0 0-6-7l-4 1-2 4 1 3 1 1h-1l-5 1-1 4a7 7 0 0 0 6 7h3l1-1v1l-2 7q-1 3-4 2-3 0-5-5-2 4-5 4l-4-4-2-6v-1l1 1h1l4-1 2-4a7 7 0 0 0-6-7h-4l1-1v-2a7 7 0 0 0-6-7h-1q6 14 6 33m51 10v14l-52-8v-13zm-51-6v11l50 7v-11zm27-18h7l-7-2-2-8-1 8h-7l7 2zm-27 19 1 1 1 3v1l-1 3h-1zm0-21 7-1-8-1-2-8 2 10zm-2-4h1v5h-1z"/><path fill="#ff8080" d="m548 590 4-2 5 4-5 2z"/><path fill="#9e7800" d="m547 590 5-2 5 3v1l-5 2zm2 1 3 2 4-1-4-3z"/><path fill="#ff8080" d="m548 590 4-2 5 4-5 2z"/><path fill="#ba0028" d="m557 592-5 2v-3z"/><path fill="#cf1e45" d="M552 591v3l-4-4z"/><path fill="#ff083c" d="M552 588v3l5 1z"/><path fill="#f9c" d="m524 587 3-3 1 3-1 3z"/><path fill="red" d="M524 587h4l-1 3z"/><path fill="#ccc" d="m525 559 2 3-1 1h-1l-2-2z"/><path fill="#9e7800" d="m525 559 1 3v2h-2l-2-1v-4zm0 1v1l1 2h1v-1z"/><path fill="#fff" d="m524 560 1 1-1 1z"/><path fill="#806600" d="m578 570-7-4 7 1 3-6zm1-4-1 2v2h1v1z"/><path fill="#ccc" d="m580 567-1 2v2h2q2 1 2-1 0-3-2-3"/><path fill="#9e7800" d="m580 567 1 1 1 2-1 1-1 1-2-1-1-2 2-2zm0 1v3h2v-2z"/><path fill="#fff" d="M580 568h-1l1 2z"/><path fill="#806600" d="m578 591-1 3v1l1 3 1 1z"/><path fill="#ff083c" d="m581 595-3-3-1 3 1 2z"/><path fill="#ba0028" d="M581 595h-4l1 2z"/><path fill="#ccc" d="M555 563q0 3-3 2l-2-2q0-3 2-2 3 0 3 2"/><path fill="#9e7800" d="m555 563-1 2-2 1-2-3v-2l2-1q3 1 3 3m0 0-3-2h-1l-1 2 2 2q2 1 3-2"/><path fill="#fff" d="m553 562-1 1-1-1 1-1z"/><path fill="#ccc" d="m542 587-2 2-1-2 1-2z"/><path fill="#9e7800" d="M542 587v2h-2l-2-2 1-2h1l2 1zm0 0-2-2-1 2v1h1q2 1 2-1"/><path fill="#fff" d="m541 586-1 1-1-1z"/><path fill="#ccc" d="m542 592-2 2-1-2 1-2z"/><path fill="#9e7800" d="M542 592v2h-2l-2-2 1-2h1zm0 0-2-1q-1-1-1 1v1l1 1z"/><path fill="#fff" d="m541 592-1-1h1z"/><path fill="#ccc" d="m566 591-1 1-2-2 2-1z"/><path fill="#9e7800" d="m567 591-1 1-1 1a2 2 0 0 1-2-3v-1l2-1a2 2 0 0 1 2 3m-1 0v-1l-1-1h-1l-1 1 2 2z"/><path fill="#fff" d="M565 590v-2z"/><path fill="#ccc" d="M566 596q0 2-1 1l-2-2 2-1z"/><path fill="#9e7800" d="m567 596-1 1-1 1a2 2 0 0 1-2-3v-1h2zm-1 0v-1l-1-1-2 1q0 3 2 2z"/><path fill="#fff" d="M565 595v-2z"/></svg>