<svg xmlns="http://www.w3.org/2000/svg" viewBox="0 0 1000 1000"><path fill="#cf142b" d="M8 195c171-85 341-54 513-28 155 24 312 45 471-34v672c-171 85-341 54-513 28-155-24-312-45-471 34z"/><path fill="#00247d" d="M8 195c163-81 324-57 492-31v336c-162-25-325-52-492 31z"/><path fill="#fff" d="M8 195v38c144 26 288 135 437 259l55 8v-38C356 342 211 219 63 172q-27 9-55 23m492-31v38C356 278 211 353 63 508q-27 9-55 23v-37c144-171 288-259 437-338zm-287-23v336q40-3 82-1V140q-40-2-82 1M8 307v112c163-81 324-57 492-31V276c-162-25-325-52-492 31"/><path fill="#cf142b" d="M8 330v67c163-81 324-57 492-31v-68c-162-25-325-51-492 32m221-190v336h50V140zM8 531q81-94 164-162l37-4q-81 60-164 150zm0-336q81 16 164 62l-37 6Q72 233 8 220zm291 57q81-50 164-94l37 6q-80 42-164 91zm201 248q-80-69-164-133l37 3 127 105z"/><path fill="#fff" d="M860 321v285c-1 82-111 111-112 111 0 0-110-27-111-106V326c73 8 147 10 223-5"/><path fill="#2f8f22" d="M860 606c-1 82-111 111-112 111 0 0-110-27-111-106 0 0 0-6 2-10 0 1-1 13 6 23 0 0-5-14 0-27 0 1-2 17 6 28 0 0-4-14 0-30 0 1-2 25 6 32 0-1 3-15-1-25 1 1 6 4 6 25 0 0 2-3 2-18 0 0 1 17 5 22l-1-10q0-11 2-10s-1 8 4 15c0 0-2-13 1-15 0 0-1 11 6 15l-1-8v-8c0 1 2 11 5 13q-2-1 0-12s0 8 6 13c0-1-4-7-2-15l37 4 19 1q29-3 57-8l10-13c0 1 4 7-2 20 0 0 6-2 8-16q2 1-1 16s7-10 8-21c0 0 2 9-4 22 0-1 6-4 8-16 0 0 2 7-3 18 0-1 10-9 10-25 0 0 4 8-1 20 0 0 5-7 6-17 0 1 3 4 0 17 0 0 6-9 7-19 0 0 2 8-4 20q1 2 8-13l-3 12q2 1 6-11v10q1 1 3-13l2 7z"/><path fill="#d40000" d="M802 449h-9q-6-3-8 1c0-1 2-6-3-10q1 2-1 8h-2l-3-5q2 0 3-7-2-8-4-8v5s-4-3 1-9q9-7 4-10l-4-6 1 5q-2 5-3 0v-8c1 0 5 2 8-5 0 0 2-7-5-11l1 5c0 1-1 4-3 1q-3-3-3-7s6 1 5-8c0 0-1 6-10-2 1 0 5-7 4-14q1-2-7 0c1-1 5-5 3-9q1-2-6 1 3-1-2-8l-5 4-5-8-5 8-5-4q-2 1 0 9l-5-2s-3-3-3 2l2 7c-1 0-8-3-8 3q0 7 4 11c-1 1-4 8-9 2l2 8q2 1 0 7s-3 3-5-3c0 0-5 6 1 12q2 3 8-1c0 1-1 13-5 11 0 0-2-2 2-5 0 0-5-1-7 7 0 0-1 5 5 8 0 1 3 2-1 7l-1 8c1 0 3 4-3 5l-5-1v7q0-2-10 0l-7 2-1 4 3 6-1 7 2 1 14-8 14-9 12 1 7 2 9 1 7-5 10-1 11 7 12 10 7 1 5-1v-14z"/><path d="m802 449 2 5v14l-5 1-7-1-12-9-11-7h-10l-6 5h-10l-7-3-12-1-14 10-14 8-2-1v-4l1-3-1-1-1-2-2-3v-1l2-4 1-1q1 1 6-1 6-3 9-1l1-6h1l4 1q3-1 3-3v-2q-2-5 1-9 3-1 2-4l-2-1q-3-1-4-6v-3q0-6 4-7l3-1v1h1-1l-2 3v1h2l2-4 1-5q-2 2-5 2l-3-1q-5-4-3-9l2-5h1q0 4 2 4h2l1-4-2-3q-3-5-1-8 3 4 6 1l2-2-4-12 2-3 3-1h3l-1-6v-3l2-1 1 1h1l3 2v-8h1q3 0 5 3 1-6 5-7l5 7 4-4h1q3 3 3 7v1q5-3 5 0v6l-1 2q4-2 5 1 2 4-1 10l-2 4q4 4 7 3l1-1 1-1v1q1 6-2 8l-3 1 2 4 1 2h2l1-1-1-5v-1q5 3 5 8v4q-1 5-5 6h-2v9l1-2-1-5 1-1 5 7 1 4-5 7q-4 3-3 5l1 2-1-3v-1h1q4 2 5 7l-2 7-1 2 3 3 1 1q2-3 1-8v-1a9 9 0 0 1 4 9h8q5 2 8 1m0 1q-4 2-9-1-5-2-8 1v-1a8 8 0 0 0-2-8l-1 7-1 1-2-1-4-4v-1h1q3-3 3-7-1-5-4-7v4l-2-2q-1-4 3-7t5-6l-1-4-3-4v3l-2 3-1-1v-10h3q4-1 4-5l1-4-4-6v5l-1 1h-3l-1-2-1-6 3-1q2-1 1-6l-1 1q-2 2-8-4l2-5q3-5 1-8l-1-1h-5v-1l2-3q2-3 1-4-1-2-5 1h-1v-3l-2-6-5 5v-1l-5-7q-3 3-4 7l-1 1v-1l-5-3q-2 4 1 7v1h-1q-2 1-5-2h-2v2l1 7v1l-4-1-3 1-1 2 4 11v1l-3 3q-3 3-6-1l2 6 1 3q2 4-1 6l-2 1-3-4-1 3q-1 4 3 8 3 3 7-2h1v1l-1 7-2 4h-3l-1-2 2-3-2 1q-3 1-4 6l1 3 4 5 1 2q2 3-1 5-3 3-1 7v3q0 3-4 4l-4-1-1 6v1q-3-3-10 0-5 2-6 1l-2 4 2 3 1 2v1h1v1h-1v6l1 1 14-8 14-10 12 1 7 3h9l7-5h10l11 7 12 9 7 1 4-1v-13zm-106 13"/><path fill="#d40000" d="M690 467s5 3 8-1c0 0 2-7-4-10 0-1 3-5 0-11q0-3-6-1 0-2-4-5-2-1-4 4-2-2-7 1s-3 5 2 10l4 1 3-2 4 2q-2 1 4 12"/><path d="M690 467q-5-6-4-12l-4-1-3 2h-1l-3-1a9 9 0 0 1-2-11q2-4 6-1 1-4 5-4 3 0 5 4 3-2 5 1 3 4 2 8l-1 3 4 7-1 5q-2 3-5 2zm0-1q6 4 7 0l1-4q0-4-4-6v-1l1-3q1-4-2-7-1-3-4-1h-1q-1-4-4-4t-4 4h-1q-3-2-5 0l-2 3q0 4 3 7h3l4-2 4 2h1v1q-1 6 3 11m-4-11"/><path fill="#64b4d1" d="M810 451c7-1 9 5 9 6 3 10-3 17-4 17l1 5c10 2 8 16 8 17l-3-4q-10-2-16 17c-5 12-3 17-2 31s17 20 17 20l-13 46c-5 17-15 11-18 8q-4-4-5 0c-1 2 6 10-9 19s-17 16-20 18-12 1-14-1q0-2-4-5l-18-11q-9-10-7-13c0-1 3-11-6-3-9 7-15-5-16-5l-8-29-6-22 6-3q8-8 11-20c2-9 0-22-1-25s-5-15-11-19c-6-2-9 3-9 3-1 0-2-15 8-16l1-6c-1 0-7-6-4-17 0-1 2-7 8-6l-1 4s-2 22 22 8 23-17 37-7l10-1s14-9 19-5l17 12 4 3s15 6 19-9z"/><path d="M810 451q4-1 7 2l2 3a18 18 0 0 1-3 18v5q7 1 8 9l1 8v1l-4-4q-9-3-16 17a44 44 0 0 0-2 22v8q2 8 9 15l8 4v1l-8 30-4 16q-4 11-11 12-4 0-8-4l-3-2-1 2h-1v2l1 8q-2 4-9 10a70 70 0 0 0-21 17q-1 2-7 1-6 0-7-2l-1-1-3-4-9-5-9-6q-7-6-7-13v-5l-2-1-4 3q-5 4-11 1l-5-6-9-29-5-21v-1l6-3q6-5 11-21l1-14-2-10-4-9-7-10q-3-2-7 1l-2 3h-1v-1l1-8q1-8 8-9v-5l-3-4q-3-6-1-13l2-4q4-3 8-3v1l-2 4 2 9q6 8 20-1l9-6 15-7q4 0 13 5h10l8-4q8-4 11-2l21 15 8 2q8-1 11-10zm1 0 1 7q-1 10-11 11l-8-2-21-15q-3-2-11 1l-8 5h-10q-9-5-13-5-3 0-14 7l-10 6q-14 9-20 1-3-4-2-10l1-4q-4 0-6 3l-2 3q-2 7 1 12l3 5-1 6q-6 1-8 8v7l2-2q4-2 7 0 4 1 8 9l4 10a64 64 0 0 1 0 25q-4 15-11 20l-6 4 6 21 9 29 4 5q6 4 11-1l4-3 2 1v6q0 8 7 12l9 6q7 3 9 6l4 5 7 1h7l2-3 18-15q7-4 9-10v-10q2-3 5 0 4 4 8 4 7 0 10-12l4-15 9-30q-5-1-8-5-9-6-9-15l-1-8v-11l2-12 8-14q4-5 9-3l3 3v-7q-3-8-8-8l-1-6 3-5q3-6 1-12l-2-3zM676 563"/><path fill="#fff" d="m738 551-1-11s-2-7 1-12l4-6q0-2 5-5l3-1c1-1 3-7 11 0 0 0 2-5 6-6 0 0 4-2 6 2 0 0 4-4 8 2 1 0 5-4 9 4 1 0 5-4 9 3l3 10 2 12 8 13-19 12-9 1-18 7-31 4-9-14z"/><path fill="#00247d" d="m738 551-2-11q-1-8 2-12l3-6q3-5 6-5l3-1q0-3 3-3 3-3 8 2l6-6q5-1 6 2l3-1q3 0 5 4l3-1q4 0 7 4l3-1q3-1 5 5l3 10 2 12 9 13-20 13h-9l-18 8-31 4-9-15zm1 0-12 15 8 13 31-3 18-8h9l19-12-8-13-3-12-2-10q-2-4-6-4l-2 1-1 1v-1q-2-4-6-4l-2 1h-1q-2-4-5-4l-3 1v1-1q-2-3-6-2l-6 6v1q-5-5-8-3l-3 3-3 1q-2 0-5 5l-4 6q-3 4-1 11z"/><path fill="#d40000" d="M712 622s-5 0-7 2l-7 5q1 1-7 1s-9-4-9 6c-1 0-11 1-7 14 0 1 3 11 10 4 0 1-4 7 4 12 0 0 5 2 7-6l-1-7 4-5c0 1-5 9 1 14 0 0 7 3 8-8q-1-3 3-7c0-1 6-2 9-12 0 0-8-7-8-13"/><path d="M712 621v1q0 4 4 8l4 4 1 1-6 10-4 2q-2 1-2 7 0 8-5 9h-4q-3-2-3-5l-1 2q-1 5-4 6h-4q-5-3-5-8l1-2q-4 3-7-1l-2-4q-3-9 2-13 2-3 4-2 1-7 5-7h12l1-2 6-4zm8 14-4-4-5-8-6 1-5 4-2 2q-1 2-7 0h-4q-5 0-5 6v1q-3 0-5 2-4 3-1 11l2 4q3 4 6 0h1l-1 5q-1 4 5 6h3q3-1 4-5l-2-7v-1h1l3-3 1-1h1v1l-1 1-1 4q-1 5 2 8h4q4-2 4-8-1-6 3-8l3-2q4-3 6-9m-23 17-2 1 1 3zm23-17"/><path fill="#d40000" d="M693 520s-7-4-11-1c0 0-4-3-9 0l-9 8q-1-1-1 11v9l-4 5c-1 0-4 5-8 0 0 0 1 7 8 7 0 0-3 3-1 13q2 1-1 14s6-3 6-12q-1-3 1-11s-2 4 2 13c0 0 3 6 1 13 0-1 5-3 5-12-1-10-4-6-2-15l3 7q2 4 3 13 2-2 2-12l-1-8 10-8 6-13z"/><path d="M693 520v22l-5 13-11 7 2 8-3 12h-1q1-7-3-13l-2-5 1 5 1 8q1 6-2 10l-3 2-1-1q3-6 0-12l-3-8v6q0 6-3 10l-3 2v-1q3-7 1-13l-1-10 1-2q-4 0-6-4l-1-4v-1 1q3 3 5 2l2-3q3-4 5-4v-9q-1-9 1-11l8-9q4-2 7-1l3 2q3-3 7-1zm-29 43v3l3 10q2 5 1 12l1-2q3-4 3-9l-2-7v-8q0-1 0 0h1l2 7q3 5 3 11 3-6 2-10l-2-8 11-8 5-13 1-21-4-1q-4-2-6 1h-1l-3-2-6 1-8 9q-2 2-2 10l1 10h-1l-4 4-3 3-4-1 1 1q2 4 6 4v1l-1 2q-1 5 1 9 2 7-1 13l2-1q3-4 2-9zm12-6q-4 0-5-6h1q0 5 5 5zm-13-10 4 2q0 3 2 2v1q-2 1-3-2l-3-2zm20-8q-1 1-3-2-1-1-3 1-1 1 1 4 3 0-1 6s5-2 3-6l-2-3z"/><path fill="#784421" d="m756 557-18-84 16 85z"/><path d="m757 557-4 2-16-86 2-1zm-1 0-18-84 16 85zm-62 94c-1 0-4-3-8 0q-1-1 3-3s1-5 6-5l-4 5z"/><path fill="#64b4d1" d="M679 663s-6-6-3-15q0-2 3-2s4 2 1 9z"/><path fill="#00247d" d="m679 664-3-5q-3-5 0-12 0-2 3-2l2 2q1 4-1 9l-1 2zm-1-2 2-7v-7l-1-2q-2-1-3 2a14 14 0 0 0 2 14"/><path fill="#64b4d1" d="M693 673c-1 0-10-6-7-16q0-2 3-3 2-2 3 7-1 2 1 12"/><path fill="#00247d" d="m692 674-4-5q-5-6-2-12 0-4 3-4l2 2 1 6zm0-2v-11l-2-6-1-1-3 3q-1 6 2 12z"/><path d="m691 635-5 5-2-3 2 1z"/><path fill="#64b4d1" d="M699 671s7-2 6-13c0 0-1-4-4-4 0 0-3 1-1 8q1 2-1 9"/><path fill="#00247d" d="M699 672v-1l1-9-1-7 2-1q4-1 4 4 1 7-2 11zm1-2 2-2q4-3 3-10-1-4-4-4l-1 2z"/><path fill="#f5ce00" d="m733 448 7 4c1 0 7 4 16 0l7-4-5 10v5l3 5q0 2-7-3s-5-5-12 0l-7 4 4-7-1-6z"/><path d="m733 448 7 3 5 2q6 1 11-2l7-4v1l-4 10v4l3 7h-1q-1 1-7-3l-4-3q-4-1-8 3l-7 3h-1l5-7-2-6zm1 1 4 7 2 6-4 6q3 0 5-3 5-4 10-3l3 3 6 3-2-5v-6l4-8-6 3q-6 3-11 2l-5-2z"/><path fill="#fff" d="M702 659v-1zv4l1 4q-1 0 0 0v-7"/><path fill="#d40000" d="M806 465c-1 0-5 4-8 0 0-1-3-7 4-11-1 0-4-5 0-11 0 0 2-3 5-1q0-2 5-5 1-1 4 4 2-2 6 1c1 0 4 4-1 10l-4 1-4-2-4 2q1 1-3 12"/><path d="m806 465-3 2q-4 1-5-2l-1-4q0-4 4-7l-1-3q-1-5 2-8 2-3 5-2 2-4 5-4t4 4q4-3 7 0l1 4q0 4-3 7v1h-4l-4-1-3 1a17 17 0 0 1-4 12m-1 0q4-7 4-12v-1l4-2h1l3 2 4-1q3-3 2-6l-1-3q-2-3-6 0-1-4-4-4t-4 4h-1q-3-1-5 1-2 4-1 8l1 3v1q-4 2-4 6v4q3 3 7 0m4-11"/><path fill="#f5ce00" d="m763 462-1 1q0 2-2-1v-1l2-5c0-1 3-4 10 0l8 6 11 7 10 2s8 0 12-9c0 0 2-6 0-10l-3-1-3 2q-1 1 1 5l2-2q0-1 0 0v5s-5 11-19 1l-19-13s-9-6-15 4c0 1-4 8 2 14 0 1 4 3 7-2 0 0 2-5-2-8 0 0-2-2-4 3q0 6 3 2 0-1 0 0"/><path d="m761 457 2-1 2 1q2 1 2 5l-1 3q-2 4-5 4l-3-1q-3-4-3-10l2-5q4-6 10-6l5 2 19 13q9 6 14 3l5-4v-4l-1 2-2-1v-5l3-2q2-1 3 1 3 4 0 11a14 14 0 0 1-12 8q-7 1-11-2l-10-7-9-5q-4-3-7-2zm2 5-1 2-2-1v-1l-1-1 2-6 3-1q4-1 8 2l8 5 11 7q4 3 10 2l4-1q6-1 7-7 3-6 1-9h-1q0-2-2-1l-2 2v3l1 1 1-2v-1h1v1l-1 5-4 5q-7 3-15-3l-19-13-5-2q-6 0-9 6l-2 4q0 6 3 9l2 1q3 0 4-3l1-3q1-3-2-4l-1-1-3 3v2l1 1h1z"/><path fill="#e4cb5e" d="M690 504v-16l1-3c1-2 3-4 5 3l5-7c1 0 3-2 5 2l3-6c1 0 4-3 5 8l3-4q0-3 5 1l6 8 1 5 1 5 3 2 4 5s1-1 3 20v37l-19 30-30-12-12-8-2-12 11-9 6-23-2-16z"/><path d="M689 496v-8l2-4 2-1 3 4 5-6 2-1 3 2 3-5 3-1q2 1 2 8l3-4q3-3 5 2l6 8 1 5 1 5 3 2q3-1 5 5v2l2 18v37l-19 31-30-13-12-8-3-12 12-10 6-22-2-16-3-10zm1 8 3 9 2 17-7 23-11 9 3 12 11 7 30 13 18-30v-37l-2-19v-1q-1-4-4-4l-3-3-2-5-1-5-5-8q-2-3-5-1l-3 5-1-1q1-7-2-8h-1v1q-3 0-4 5h-1q0-3-2-2l-1 1-6 6v1-1l-3-4-2 1-1 3z"/><path fill="#784421" d="m772 525 1-3 3-4 6 22v6s7 2 9 18l-6 17-10-7-3-3z"/><path d="m771 525 2-3 4-4 5 22v6l4 3q5 5 5 15v1l-6 17-11-8-3-3zm1 0v46l3 3 9 6 7-16q-2-9-5-14l-4-3v-7l-6-21-3 3z"/><path fill="#fff" d="M677 650q-2 0-1 7l1 1z"/><path d="m707 648-1-2v-3h1v2zm7-163 1 6 2 5 2 6h-1l-2-6-2-4z"/><path fill="#d40000" d="M784 621q1-1 7 2l7 5h7s8-4 9 6c0 0 11 0 7 14-1 1-3 10-10 4 0 1 4 7-4 12 0 0-5 2-7-6l1-7-5-4c1 0 6 9 0 14 0 0-8 3-9-8q1-3-2-7s-6-2-10-12c1 0 9-7 9-13"/><path d="m784 621 7 1 5 4 2 1v1h7l4-1q6 0 5 7l5 1q5 4 2 13l-2 5q-3 4-7 1l1 2q-1 6-6 8l-3 1q-3-1-5-6v-2q0 3-3 4l-4 1q-5-2-5-9 1-6-2-7l-4-2-6-10 1-1h1l3-4q4-4 3-8zm13 27 4 3v1l-1 6q1 5 4 6l3-1q5-1 5-6l-1-4v-1q4 4 7 0l2-4q3-8-1-12l-5-1v-1q-1-5-5-6l-4 1q-6 2-7-1l-2-1-5-4-7-1q0 3-4 8l-4 4v1q1 5 6 8l3 2q3 3 3 8 0 6 4 7h4q3-2 2-8l-2-5v-1l1 1zm2 7 1-3-1-1zm-89-153 8 85h-1zm2 0 9 79h-1zm2 0 10 78h-1z"/><path fill="#784421" d="m732 572-18-85h-1l16 86z"/><path d="m732 572-3 2-16-87h1zm-1 0-17-84 15 85zm-12-73 18 62v1zm-1 1 18 65h-1z"/><path fill="#fff" d="m689 667-2-8v-1 1q-2 2 1 8z"/><path d="m720 498 19 57h-1zm-5 3 11 77z"/><path fill="#f5ce00" d="M808 555c-8-6-10-19-10-19q0-23 2-26c6-15 15-19 15-19s-9 9-12 21v19l2 14z"/><path d="M808 556q-5-4-8-12l-2-8a62 62 0 0 1 2-26q3-10 9-16l6-4v1a51 51 0 0 0-11 21q-2 9-1 19v3l2 8v3l4 10zm-1-2-2-9-1-2-1-9-1-3q-1-9 1-19a46 46 0 0 1 9-19l-2 2a41 41 0 0 0-11 23v18l2 7q2 7 6 11"/><path fill="#784421" d="m773 522-34 16-2 20c-9 17-25 19-25 19l13 19 25 7 13-14 12-15c-2-8-1-20-1-20l1-6z"/><path d="m773 522 2 26-1 6 1 20-12 15-13 15-25-8-13-19 9-3q10-6 16-16l2-21zm0 0-34 16-2 21a35 35 0 0 1-24 18l12 19 25 7 13-14 11-15v-26zm-36 31 36-18h1q-13 9-37 19zm-11 17a129 129 0 0 0 48-23l8-7v1l-7 7a117 117 0 0 1-48 23zm56-23-8 8q-7 5-19 10-21 11-37 11v-1q15 0 37-10l19-11 8-8zm-8 22-14 9q-15 9-24 9v-1q9 0 24-9l14-9z"/><path fill="#d40000" d="M803 519c0-1 7-5 11-2 0 0 4-4 9-1l9 8q1-1 1 11v9l4 4c1 1 4 6 8 0 0 0-1 7-8 8 0 0 3 3 1 12q-2 2 1 14c-1 0-6-2-6-11l-1-11s2 4-2 13c0 0-3 6-1 13 0 0-5-2-5-12 1-10 4-6 2-15l-3 8q-2 3-3 12-2-1-2-11l1-8-10-7-6-13z"/><path d="m803 518 4-2q4-2 7 1l3-2q3-2 7 1l8 8q2 3 1 11v9l5 4 2 2q2 1 5-2v-1 1l-1 4q-2 4-6 4l1 2-1 10q-2 7 1 14v1l-3-3-3-9v-6l-3 8q-3 7 0 12l-1 1-3-2q-3-4-2-10l1-7 1-5-2 5q-5 6-3 12v1h-1l-3-12 2-8-11-7-5-13zm30 42 1 10q-1 6 2 9l2 2q-3-7-1-13l1-9-1-3v-1q5 0 6-3l1-2q-2 2-4 1l-3-2-4-4h-1l1-10q0-9-2-10l-8-8q-3-3-6-1l-3 2h-1q-2-3-6-1l-4 2 1 21 5 12 11 7v1l-2 8 2 9q0-5 3-11l2-7h1v8l-2 7q0 6 3 9l1 2q-2-6 1-12l3-10v-4z"/><path fill="#fff" d="M680 573c0-1 1-6 6-4 0 0 1-10 10-10 8 0 8 11 8 12 1 0 3-4 7-4 0 0 7-1 4 15l2 2c0-1 5-17 16-13 1 1 11 5 4 19 0 1 5 9 10 9 5-1 8-3 13-14s15-13 18-13q3 2 5 6c0-1 5-25 25-24l8 5 3 1-4 18-11 35-8 5-9-6-3 2v10l-12 12-8 5-9 8-2 8s-4-3-10 0l-2-6-5-7-20-13-4-16-3-3-5 7h-6l-8-8z"/><path fill="#00247d" d="m680 573 1-4q1-2 4-1l2-5q3-5 9-5 5 0 7 6l2 5q2-3 6-3l3 2q3 4 2 14l1 1 4-8q5-7 12-4l5 4q4 6 0 15 5 9 9 8 5 0 6-3 4-3 7-10 3-8 9-11 5-3 9-2 3 1 5 4l5-11q8-13 20-11h1l8 4 3 2-5 18-11 36-9 4-8-6-3 2v10l-12 13-8 4-8 9-3 8v-1h-10v1l-2-7-5-6-21-14-3-16-3-2-4 6-7 1-9-9zm0 0 10 37 9 9 5-1 4-6 4 2 4 16 20 14 5 6 2 6h10l2-7 9-9 8-4 11-12v-10l4-3 9 6 8-4 11-35 4-17-3-2-8-4q-11-2-20 10l-5 13v2-2q-1-4-5-5t-8 2q-7 3-10 10l-6 11q-3 3-7 3-4 1-10-8v-1q4-8 1-14l-5-4q-7-3-12 4l-4 8v1l-2-3q2-10-1-13l-3-2q-4 0-6 4l-1 2v-2l-1-6q-3-6-7-6-5 0-8 5l-2 5v1h-5z"/><path d="m767 451-3 1q-4 3-4 9h-1q1-7 4-10l4-1z"/><path fill="#f5ce00" d="M817 561c-13-4-16-23-17-23-2-14 2-27 2-28 7-19 16-21 16-21 6 0 6 5 6 5l-1 6c-4 3-6 0-6 0q-2-4-1-5l3-1 1 3q1-1-1-3c-1 0-4-1-9 8 0 0-6 11-6 25 0 0-1 26 19 31l-6 20s-4 20-8 31c-1 1-6 15-18 11-1 0-7-4-7-11q-1-3 3-8 2-1 5 5s0 5-5 4l-1-2q0-2 2-2h-2v2l1 2h2q0 2 4 5 6 1 9-3l4-8 6-24 5-16z"/><path d="M817 562q-9-3-13-13l-4-11a61 61 0 0 1 2-28q4-12 10-18l6-3q4-1 6 2l1 3-2 7q-4 3-7 0v-6l-6 7-3 7-3 18 2 13q5 14 17 17h1l-1 1-6 20-8 32-4 7q-7 8-14 3-3 0-4-3-4-3-4-8v-4q1-3 4-4h3q2 1 2 5l-1 3-2 2 4 3q4 2 9-3l3-7 7-25 4-16zm1-1-1 3-4 16-7 24v1l-4 7q-4 4-9 3l-5-4h-2v-1l-1-2 1-2h2v1h-2v1l1 2 4-2v-2q0-3-2-4h-2l-3 4v3q0 4 3 8l4 2q7 3 13-3l4-7 9-31 5-20q-12-3-16-17l-3-14a59 59 0 0 1 7-26l6-7 3-1 2 2v2h-1l-1-2q-2-1-2 1v4q3 3 5 0 3-2 2-5l-1-3q-1-3-5-2l-5 3q-7 5-11 18l-1 8v19l3 10q6 10 14 13"/><path fill="#f5ce00" d="M780 614q1-1 2 3s0 4-4 3q-2 1-2-7 0-2 4-3 3-1 5 6v11q-5 8-11 11s-11 6-15 10c0 0-4 5-3 10l3 1q1 1 1-2l-1 2h-2v-4q0-3 4-2 3 0 2 6l-4 4q-1 1-4-3c-3-3-3-10-1-13q0-2 6-7l12-7 8-7 3-7q1-2-2-5z"/><path d="M782 619q-1 3-4 2l-2-1-1-7q2-4 5-4 4 0 6 7 1 6-1 11-2 6-11 11l-14 10q-4 4-4 8l1-2q1-3 5-1 3 2 1 6-1 4-4 4l-5-2-2-7 2-8 6-6 3-2 9-5 8-7v-1zm-2-5h2l1 5-2 7-9 8-9 5-2 2q-5 2-6 6l-2 7 2 6 4 2q3 0 4-3 0-4-2-5-3-2-4 1v3l2 1 1-2h1v1l-2 2-3-2q-2-3 1-7l2-4 15-10q8-5 10-11 3-4 1-10-1-6-5-6-3 0-4 4l1 5 1 1q3 1 3-2l1-1-1-2zm0 0q3-1 5 3l1 5h-1l-1-4q-1-4-4-3zm7-7-1 1v4l4 7v1l-1-1q-3-1-4-7v-5l2-1z"/><path fill="#f5ce00" d="m733 462 1 2 2-2q1-2-2-6s-3-3-10 1l-8 6-11 7-10 2s-8 1-12-8c0 0-2-6 0-10l3-1 2 2q2 0 0 5-1 1-3-2 0-1 0 0l1 5s5 10 19 0l19-13s8-6 14 4c1 0 5 8-1 14 0 0-4 3-7-3 0 0-2-5 1-7q2-3 5 2 0 6-3 2 0-1 0 0"/><path d="m734 457-2-1q-4-1-7 2l-9 6-10 7q-5 3-11 3a13 13 0 0 1-12-8q-3-7 0-11l3-2 3 3q2 2-1 5h-1l-1-1v4l4 3q7 3 15-3l18-14 6-2q6 0 10 6l1 5q1 6-3 10l-2 1q-3 0-5-3l-1-4 2-5zm-2 5v1l1 1h1l1-1-1-2q0-2-2-2h-1q-3 1-2 4l1 3q1 3 4 3l2-1q3-3 3-8l-2-5q-3-6-9-6l-5 2-19 14q-8 6-15 3l-4-4-1-6h1l1 2h1v-4l-2-1q-2-1-3 1v9a13 13 0 0 0 12 8q6 0 10-3l10-7 9-6q4-3 8-2l2 2h1l1 7v1h-2zm1 0"/><path fill="#f5ce00" d="M688 557c8-6 9-20 10-20 1-14-2-25-3-25-5-16-14-19-14-19s9 9 12 20v19l-2 15z"/><path d="m688 557 4-11v-2l2-8v-4q1-9-1-19a42 42 0 0 0-11-20v-1l6 4a39 39 0 0 1 11 23v18l-2 8q-3 9-8 12m0-1 7-11 2-8a61 61 0 0 0-2-25 38 38 0 0 0-12-17l3 3q6 8 7 15l1 19-1 4-1 9-1 2zm40-106 4 2q3 2 3 9 0-6-4-8l-3-2z"/><path fill="#f5ce00" d="M678 564c14-6 17-24 17-24 3-15-1-28-1-28-7-20-16-20-17-20q-6 2-5 5l1 6q6 2 6-1v-5l-2-1q-2 2-1 3h-1l2-3s4-1 9 7c0 1 6 12 6 26 0 0 1 25-19 31l6 20s4 20 8 31c1 1 6 15 18 10 0 0 7-4 7-11q2-3-4-8-1-1-4 5s0 5 5 4l1-2q0-2-2-2h1l1 2-1 2h-2q0 2-4 5-6 2-9-3l-4-7-11-40z"/><path d="m679 564 1 2 4 15q3 18 7 24v1l3 7q4 4 9 2 3 0 4-3l-3-2v-3q0-4 2-5h2q4 0 4 4l1 4q-1 5-4 8l-4 3q-7 4-14-2l-4-8q-5-10-8-31h-1l-5-19-1-1h1q12-4 17-18l2-13v-1a57 57 0 0 0-6-24q-3-6-6-7 1 3-1 6t-6 0l-2-6 1-3q3-3 5-3l6 3q7 5 11 18l2 8v20l-4 10q-4 11-13 14m-1-1q9-2 14-14a46 46 0 0 0 3-29l-2-8q-4-12-10-17l-6-3-4 2-1 3q0 4 2 5 3 3 5 0v-4l-2-1-1 2v1h-1v-3l2-1h3l6 7 3 8 3 18q1 6-2 14-4 14-16 18l5 19 9 31 4 7q6 6 13 2l3-2q4-4 4-8v-4q-1-3-4-3h-2l-1 4v2q1 3 4 2l1-2-1-1h-2v-1h3l1 2-1 2-1 1h-2q-1 4-4 4-5 3-9-2l-4-8-7-24-4-16z"/><path fill="#f5ce00" d="M716 615q-1-1-3 3 0 2 5 3 2 1 2-7s-1-4-5-4q-1-2-5 7-1 1 1 11 6 8 11 10l15 10s4 5 2 10l-2 2-2-2h1v1h3v-4s-1-3-5-1q-1-1-1 5 0 3 4 4l4-2q4-7 1-14 0-2-7-6l-11-7q-5-3-8-7l-3-8 1-4z"/><path d="m714 620 2 6q3 4 8 7l9 5 3 2 6 6 2 8-3 7-4 3-5-4q0-5 2-7 4-2 5 2l1 1q0-4-4-8l-14-9q-8-5-11-11-3-5-1-11 2-7 5-7 5 0 5 4v6l-2 2q-3 0-4-2m0-5 2-1v2zl-1 2v1l3 2h1l1-2 1-5q-1-3-4-3-4 0-5 6-2 6 1 10 2 6 10 11l15 9 2 4q3 4 1 7t-3 2q-2 1-2-2v-1h1v1l1 1 1-1 1-3q-1-3-4-1-2 2-2 5 1 3 4 3 3 1 4-2l2-6-2-7-6-6-3-2-8-5q-6-3-9-7l-2-8zm2 1q-3-1-4 3l-1 4h-1l1-5q2-4 5-4zm-7-9 2 1v5l-4 8h-1v-1l4-7v-4zm32-147 4-2q6-1 10 3l-1 1q-3-4-8-3l-4 2zm-38 55q2-4-3-13v-1l-4-13 4 13q4 9 4 15zm3-32 3 11 2 6 2 6-1 1-2-6-2-7zm1 38q3 4 2 10 0-6-3-10zm-8-5q2 3 2 13 0 7 4 11-4-4-4-11l-1-10-2-2zm-1 26h4q6 1 5 7l3 7q5 1 6 7h-1q0-6-5-6-3-1-3-8 0-4-5-6zm3 8 3 5zm11-7 3 7h-1zm10-54 4 5-1 1zm8 22 2 3q2 6 1 15 0 9 2 13h-1q-2-4-1-13l-2-14q0-3-2-3z"/><path fill="#784421" d="m709 501 1 1s7 1 11-6v-2q-1-2-12 7"/><path d="M709 501q3-4 8-6h4l1 2a13 13 0 0 1-12 6h-1zm1 0a13 13 0 0 0 11-6v-1h-4q-4 2-7 6m27 57q27-10 37-18v1q-10 7-37 18z"/><path fill="#784421" d="m734 489 13-7v2l-13 7z"/><path d="m734 489 13-7 1 2-14 7zm0 0v1l13-6v-1zm2 1 8 58v1l-9-59zm1-1 10 58h-1zm2-1 11 58h-1zm4-2 15 43h-1zm2-1 16 43h-1zm1-1 18 42-1 1zm-3 64 7-3v1l-7 3zm-5-5q20-8 35-17v1l-35 17zm0 3q25-9 35-17v1q-10 7-35 16m8 28 1 5 3-1-1-6h1l1 6-4 2zm10-4 1 5 3-2-1-5h1l1 6-4 2zm-18-32v-8l34-15 1 7-2-6-32 14v8zm15-14 1 7zm11-5 2 6v1zm3-1 2 6h-1zm2-1 3 6h-1zm2-2 4-3 2 6h-1l-1-5-4 3zm2-1 2 6z"/><path fill="#00247d" d="m691 600-2-6q-2-7 2-12l-3-3-3-10h1q-1 5 2 9l4 3v1q-4 5-2 11l2 6zm12 7q-1 1-3-1-3-4-2-13l-3 8q-1 5 2 9l4 1q4 0 5-3l1 1q-2 3-6 3l-4-1-3-5v-6l4-10 1-3v3q-1 11 1 15zm-7-27q-3 3-1 9h-1q-2-6 1-10zm3 0 2 10q-3-3-3-10zm2-2q0 7 3 11v1q-4-4-4-12zm2-2q0 8 4 12l-1 1q-4-5-4-13zm20 12q3-7 8-7l1 1-1 1-2 3q0 5 3 6l5-2v1q-1 2-5 2l-4-4v-3l1-3q-3 0-5 5zm12 31-6-5q-6-7-5-14 1-6 6-10v1q-5 4-5 9 0 7 5 13l5 5zm-7-21q-2 4 1 7l-1 1q-2-4-1-9zm2-3q-1 4 1 8l-1 1zm3-3v8q-3-4-1-8zm-11 27q7 7 11 7v1q-5 0-11-7zm-2 2q6 7 10 8v1q-4-1-10-8zm-2 2q8 9 12 9v1q-5 0-12-9zm30 18-3 4-1 3 2 3v1l-3-4 1-4zm-5-6 11-8 1 1zm3 3q11-11 15-12v1zm5 0 16-13v1l-15 13zm7 0q7-8 14-13v1zm16-22-3-2q-4-1-11 3l-2 1 1-2q4-6 13-10v2l-10 6q6-2 9-1 3 0 3 2zm9-39v9h-1zm-18 28q2-5 8-8h1q1 6 5 4l3-2q3-4 2-10l-2-3q-3-4-7-4v-1q5 0 8 4l1 4q2 7-1 10-1 3-4 3-3 1-5-1l-1-3q-6 3-8 7m33-39 4 2q4 3 4 9l-1 7q-2 7-9 10v-1q6-2 9-9v-7q0-6-3-8l-4-2zm6 5q2-6 8-10v1q-4 3-7 10zm2-13 4 5-1 1zm-1 4 3 4-1 1zm-1 3 2 3v1l-2-3zm-41-48q1-4 6-3l-1 1q-3-1-4 2zm21 25 2-7q4-6 9-3v1q-6-3-8 3zm7-11q1-6-1-9l1-1q2 4 1 10zm-5 0v5z"/><path fill="#64b4d1" d="M803 672c1-1 9-7 7-17l-3-3q-2-1-3 7 1 3-1 13"/><path fill="#00247d" d="m803 672 1-12v-1q-1-4 1-6l2-1q1-1 3 3 2 6-2 12zm1-1 3-4q5-6 3-12-1-3-3-2l-2 1-1 5z"/><path fill="#fff" d="m807 665 2-7v-2 1q1 2-2 9z"/><path fill="#64b4d1" d="M817 661s6-6 3-16l-3-1s-4 2-1 9z"/><path fill="#00247d" d="m817 662-1-7q-3-5-1-9l2-2q2-1 3 2a15 15 0 0 1-3 17m0-2 3-3v-11q-1-2-3-2l-2 2 1 7z"/><path fill="#fff" d="m819 648-1-1zq2 0 0 8v1-8"/><path fill="#64b4d1" d="M797 670c-1 0-7-2-6-13 0 0 0-4 4-4 0 0 3 1 1 8q-1 1 1 9"/><path fill="#00247d" d="m797 670-4-2q-3-4-3-11 1-5 5-5l1 2v7q-1 4 1 9m-1-1v-15l-1-1q-3 0-4 4 0 7 2 10z"/><path fill="#fff" d="M794 657q0-1 0 0l1 4-1 3v1z"/><path d="M802 649s4-3 8 0q1-1-3-3s-1-5-6-4l4 4zm3-15 4 4 3-3-3 1zm-17 14 1-4v-2h1l-1 3v2zm31-94q5-1 5-5h1q-1 5-6 6zm13-9-2 2-3 3v-2q2 1 2-2l4-2zm-19-8q1 1 3-2 2-1 3 1 1 1-1 4-3 0 1 6s-5-2-3-6l1-3z"/><path fill="#64b4d1" d="m816 460 1-8q1-8 4-5 2 0 0 5 0 3-5 8"/><path fill="#00247d" d="M816 460v-8l2-6h4v6q-2 6-6 8m1-1 4-7v-5h-3l-1 5z"/><path fill="#fff" d="m817 455 1-6v-1l1 1-1 7h-1z"/><path fill="#64b4d1" d="m815 458-3-6q-3-6 1-8 1-1 3 4z"/><path fill="#00247d" d="m815 458-4-6-1-5 3-3q2 0 3 4zm0-1v-9q0-4-2-3-2 0-2 2-1 3 1 5z"/><path fill="#fff" d="m814 453-2-6q-1 0 0 0 0-1 0 0l3 6z"/><path fill="#64b4d1" d="m811 457-5-4q-4-4-1-7 1-1 3 2 2 2 3 9"/><path fill="#00247d" d="m810 457-4-3-3-4 2-4q1-1 4 2l2 9zm0-2-2-7q-2-2-3-1l-1 3 2 3z"/><path fill="#fff" d="m809 453-4-3v-1l5 4z"/><path fill="#64b4d1" d="m813 458-6-1q-5-1-5 5l4 2q3-1 7-6"/><path fill="#00247d" d="M813 458q-3 4-7 5-3 0-4-2l1-5h5zm-1 1-5-2q-3-1-4 1v4q0 2 3 1z"/><path fill="#fff" d="m804 461 5-1v1l-6 1z"/><path d="M807 441q3 2 2 5h-1q1-3-1-4zm9 0v6z"/><path fill="#64b4d1" d="m680 462-1-8q-1-8-5-5v6q1 3 6 7"/><path fill="#00247d" d="m680 462-5-7v-6l3-1q3 2 2 6zm-1-1v-7l-2-5h-3v5z"/><path fill="#fff" d="m678 458-1-7q0-1 0 0-1 1 1 7 0 1 0 0"/><path fill="#64b4d1" d="m681 460 3-6q3-6-1-8-1-1-3 4-1 3 1 10"/><path fill="#00247d" d="M681 460q-3-5-1-10 0-4 3-4l2 2q2 4-1 6zm0-1q0-3 3-5l1-5-2-3-3 4z"/><path fill="#fff" d="M681 455q-1-1 3-6 0-1 0 0-2 0-3 6 0 1 0 0"/><path fill="#64b4d1" d="m685 459 4-4q5-4 1-7l-3 2q-2 2-2 9"/><path fill="#00247d" d="M685 459q0-5 2-8 1-4 4-2l1 3q0 4-3 4zm0-2 4-2 3-4-2-3-3 2z"/><path fill="#fff" d="m686 455 5-3v-1q-3 0-5 4"/><path fill="#64b4d1" d="m683 460 5-1c4-2 6 2 5 4q1 3-4 2-2 0-6-5"/><path fill="#00247d" d="m683 460 5-2q3-2 5 1l1 5q-1 2-5 2zm0 1 6 4q3 1 4-2l-1-3q-1-3-4-1z"/><path fill="#fff" d="m692 463-5-1h-1v1q2 2 6 0 0-1 0 0"/><path d="M689 444q-2 1-2 4h-1zm-9 0v4l-1 1zm85-30 1 10 1 5q2 2 4-3s2 6-3 11c0 0-3 3-6-1q-2-2-1-9l-1-9 2 8c0 1-1 10 4 10q3 2 4-7 0 2-3 2-2-1-2-5zm-6 18s0 7-6 10v-6l-1-6v14s8-2 7-12m-7-8-1-7-2-6 1 6v5s-2 1-5-5c-2-6-3-5-4-5l3 5q2 6 8 7m-14-13 2 9q-2 0-5-7c0 1-4 2-3 9l-5-6 4 3s0-5 4-7l4 6zm7-9 4 3 4-3q1 2-4 5s-4 0-4-5m-18 32 3 4q0 2 3-1l3-4-3 5-1 2-3-1zm22-51c-4 0-1 4-1 4q-1 10-7 7c-2-2 0-7 0-7s-3 3-1 7q4 5 9-2 4 7 9 2c2-5-1-7-1-7s2 5-1 7q-5 3-6-7s3-4-1-4m2-8 2 9q1-2-2-9m-12 8-3-4zm20 0s1-4 3-4zm-25 6 4-1zm-7-23q2-1 5 4l-3 3 2-3zm42-1q-2-1-5 5l3 3-1-3q-1-1 3-5m-19 5 5-2q1-2 5 0l-5 1q-2 3-5 1"/><path fill="#fff" d="M752 373q0-3 8-4c-1 0-2 5-8 4"/><path fill="#784421" d="m757 371-1 2-1-2 1-2z"/><path d="m757 371-1 1-1-1 1-1zm-17-8 5 2q2 2 5-1l5-5-6 5-2-4 3-5q-2 0-4 5l2 4-3-1zm9 30c-3 4 0 3 0 3s3 1 0-3m-2-23-5-2q-1-2-5 0l5 2q1 2 5 0"/><path fill="#fff" d="M745 373q1-3-8-4c0 1 1 6 8 4"/><path fill="#784421" d="m742 371-1 2-1-2 1-2z"/><path d="M741 371v1zm120 234q0 50-56 89a194 194 0 0 1-56 25h-1l-17-5q-21-7-38-19-56-35-57-84V325c74 8 149 9 225-5zm-2-282c-73 14-146 12-221 5v283q1 47 55 82a195 195 0 0 0 56 23l17-5q21-8 38-20 55-37 55-85z"/></svg>