<svg xmlns="http://www.w3.org/2000/svg" viewBox="0 0 1000 1000"><path fill="#cf142b" d="M8 195.3c170.8-85.3 341-54.5 513.3-28C676.5 191 833.4 211.8 992 132.7v672c-170.8 85.3-341 54.5-513.3 28C323.5 809 166.6 788.1 8 867.2z"/><path fill="#00247d" d="M8 195.3C170.7 114 332.5 138 500 164v336c-161.8-25-325.3-51.9-492 31.3z"/><path fill="#fff" d="M8 195.3v37.5c144.3 26.5 288.3 135.5 437 258.8l55 8.4v-37.6C356.2 342 211.4 219.4 63 171.6a520 520 0 0 0-55 23.7M500 164v37.6c-144.2 76.1-288.7 151.3-437 306a520 520 0 0 0-55 23.6v-37.5c144.3-170.6 288.4-258.3 437-338z"/><path fill="#fff" d="M213 140.9v336q40.3-2.6 82-.9V140a755 755 0 0 0-82 .9M8 307.3v112C170.7 338 332.5 362 500 388V276c-161.8-25-325.3-51.9-492 31.3"/><path fill="#cf142b" d="M8 329.7v67.1c162.7-81.1 324.5-57.1 492-31.2v-67.2c-161.8-25-325.3-51.9-492 31.3M229.4 140v336q24.2-1 49.2-.5v-336q-24.2-.5-49.2.5"/><path fill="#cf142b" d="M8 531.3A1256 1256 0 0 1 172 369q18-2.5 36.7-3.9c-54.1 41-108.3 88.8-164 149.5A530 530 0 0 0 8 531.2m0-336c54.1 10 108.2 31.4 164 61.9a573 573 0 0 0-36.7 6.2c-42-20-84-35-127.3-43zm291.3 57a2389 2389 0 0 1 164-93.8L500 164c-54.1 28.6-108.2 57.1-164 90.6q-18-1.5-36.7-2.4M500 500c-54.1-45.3-108.2-90.7-164-133.4l36.7 3.6L500 475z"/><path fill="#fff" d="M859.5 321.1v284.6C858.8 687.5 749 717 748.3 717.3c-.4-.1-110.6-27.3-111.3-106.5V326.3c73.4 7.6 146.9 9.5 222.5-5.2"/><path fill="#2f8f22" d="M859.5 605.7C858.8 687.5 749 717 748.3 717.3c-.4-.1-110.6-27.3-111.3-106.5 0-.2.2-5.8 2.3-9.4 0 .3-1 12.3 5.9 22.8-.1-.2-5.3-13.7-.2-26.7 0 .3-1.8 16.5 5.8 27.4 0-.2-4-14.2.6-29.4 0 .4-2.2 24.5 6 31 0-.2 2.1-14.2-1-24 .1 0 5.6 3.6 5.5 24.8 0 0 1.7-3 2.3-18.2 0 .3.5 17 4.7 21.9 0-.1 1.2-1.6-.5-9.8s.6-10.4 1.2-10.4c0 .2-.8 8.4 4.4 15.7 0-.6-2-13.2 1-15.6 0 .5-.6 11 6 14.7 0 0 .4-3.2-1-7.2 0-.2-1-4.5-.3-8 .1.3 2.3 10.2 5.1 12.7a29 29 0 0 1-.1-12.4c0 .4.5 8.4 6.1 12.8 0-.2-3.5-6.8-2.3-14.4q18.3 2.3 37 3.9l19.3 1.3q28.4-2.9 57.5-8.3l10-12.7c0 .3 3.7 6.8-2.3 19.5.2-.1 5.8-2.2 8.1-15.6 0 .2 2.3 6.8-1 15.4.2 0 6.6-10 7.9-20.8 0 .2 2.4 9.6-3.8 21.7.2-.1 5.4-3.3 8.2-15.4 0 .2 1.8 6.6-3.6 17.5.2-.2 10-8.9 10-24.6.2.2 4.2 7.7-.5 20.5 0-.2 5-7.2 5.8-17.1 0 .1 2.7 3.8-.3 16.5.1-.2 6.3-9.4 7.5-18.7 0 .2 1.3 8-4.1 19.7 0-.1 3.5-2 7.4-12.9 0 .1.8 3.7-2.4 12 .2-.2 3.3-1.5 6-11.3 0 0 .3 5.4-.6 10.7 0-.1 2.6-3 3.4-13.7 0 .1 1.3 3.1 1.5 7.5z"/><path fill="#d40000" d="M802.2 449.3c-.1 0-3.7 1-8.8-.4-5.1-1.6-6.8-.8-8.5.6.1-.4 1.7-5.1-3-9.6.2.3 1.4 5-.5 8.1-.1.1-.9 1.3-2.2-.5 0 0-1.7-2.2-3.5-4 .3-.2 3.7-2.1 3.4-8-1-5.7-2.9-6.3-4.3-7 0 0 .4 2.5 0 4.4-.3-.3-4-2.9 1.7-8.5 6-5.4 5-7.9 3.9-10.5-1.2-2.4-3.4-5-4.6-6 0 .2 1 2.6 1 4.9-.5 2.2-2.7 3.8-2.5-.1.5-4 0-3.3 0-7.5.3.2 4.9 2.1 7.6-5.2 0-.4 1.9-7-4.8-11 0 .2 1.4 2.8.8 5.4 0 .2-1.2 3.5-3.2.8-1.8-3-2.7-3.5-2.7-7.1.4 0 5.8.8 4.6-8.4 0 .3-.8 5.9-9.2-1.7.2-.3 5-7.4 3.3-13.6 0-.2-.6-2.4-6.4-.9.3-.3 4.4-4.1 2.9-8-.1-.3-1-2.2-5.8.9.1-.3 1.6-4-2.7-8.8 0 0-3 2.3-4.7 4.3 0 0-3.2-5.2-5.1-7.5-.2.2-3.3 2-4.6 7.6 0 0-1.7-2.5-5.5-4-.1.3-1.6 4.4.6 8.7-.1 0-1.7 0-5-2-.3-.1-3.4-2.3-3.2 2 .5 4.3.8 5.2 1.5 7.3-.5-.2-7.5-2.6-8 3.4q.4 6.4 4 11c-.2.5-4.1 7.7-8.6 2 0 .1-1.2 1.8 1.6 7.4.2.3 2.6 4.1.5 7.3-.2.2-2.9 3.3-4.9-3.5-.2.3-4.9 6.6 1 12.7.3.3 3.6 3 8.1-1.5 0 .7-1 13-5.2 11.1-.1-.2-2.1-2.1 2-5.1-.5 0-5.7-1.1-7.2 6.8 0 .4-.6 5.9 4.6 8.9.3.1 3.7 1.8-.2 6.3-.2.3-2.6 2.9-1 7.8.2.4 2.2 4.6-3.6 5.5 0 0-3.2-.2-4.4-.8 0 .1-1.2 3.2-.4 7.1-.2-.2-2.8-2.8-9.8 0-6.8 2.8-6.2.8-6.8 1.6l-1.8 4.4c1.1 2 2 4.2 3.6 6l-.7 6.7 1.7 1.2 14-7.9 14.1-9.7 11.4 1 7.3 2.4 9.4.8 6.8-5 9.9-.4 10.8 6.8 12.3 9.2 6.5 1 5-.8V454z"/><path d="m802.2 448.8.4.2 2.4 4.7v14q0 .4-.3.6l-5 .8-6.5-1-.2-.1-12.3-9.2L770 452l-9.7.4-6.7 5h-.2l-9.5-.7-7.2-2.4-11.3-1-14 9.6-14 8-.3-.1-1.8-1.2q-.2-.2-.2-.6l.3-3.4.3-2.3v-.8l-.4-.7-1.3-2-1.8-3v-.7l1.9-4.4q.3-.6.9-.4 1.6.5 6-1.4c4.3-1.8 7-2 9.3-.6q-.4-3.4.7-6.3.2-.3.5-.2 1.1.6 4.3.7 3.3-.2 3.6-2.4.2-1.2-.4-2.2c-1.3-3.7-1-6 1.2-8.5q2.3-2.4 1.6-4a3 3 0 0 0-1.3-1.4 8 8 0 0 1-4.6-5.7q-.4-2-.3-3.8c.6-3.7 1.8-5.6 4.2-6.8a6 6 0 0 1 3.4-.5l.3.3v.5l-.2.3q-2.3 1.5-2.3 3 0 .7.5 1.2 1 .7 2-.5.8-1.2 1.4-3.8l1-5q-2.4 2.1-5.1 1.7-1.7-.2-2.7-1a9 9 0 0 1-3-9.2 12 12 0 0 1 2.1-4.7q.4-.1.5.4 1 4 2.7 4 .8 0 1.6-.8 1.2-1.4.5-4-.4-1.5-1.1-2.5c-2.1-4-2.6-6.3-1.6-8.1l.3-.2q.2 0 .3.2c1.7 2.4 3.1 2.8 5.3 1.3q1.5-1.1 2.5-2.8a21 21 0 0 1-3.9-11q0-2.5 1.3-3.7 1.1-.9 3-1 1.7 0 3.4.4-.7-2.6-1.2-6.5-.2-1.7.3-2.6.5-.7 1.5-.6t1.9.7q2.5 1.5 4 1.9a11 11 0 0 1 0-8.3q0-.4.4-.3 3.4 1.2 5.2 3.4c.9-3.5 2.2-5.5 4.6-7l.4.1q2 2.1 5 7.1 1.5-2 4.4-4 .2-.2.4 0 3 3 3.3 6.5v1.7c2.9-1.8 4.3-1.9 5.3-.2 1 1.9.7 3.6-.7 6l-1 1.4c3.2-.6 4.6-.1 5.3 1.7.8 2.8.5 5.6-1 9.5q-1 2.4-2 4.2c3.2 3 5.2 4 6.9 3.4q1-.5 1.2-1.7 0-.4.3-.4h.3l.2.3c.7 4.4.1 6.7-1.9 8.4q-1.3.8-2.7.8.2 2.3 1.5 4.4l1.1 1.8q.9 1.4 1.7.6.6-.5.8-1.4.7-2-.8-4.8v-.5q0-.4.5-.3a9 9 0 0 1 5.3 7.2q.3 2.5-.3 4.5c-1 3.4-2.5 5-4.9 5.8q-1.4.3-2.6 0l.1 2.4q.2 1.8 0 4.3-.3 1.2 0 1.6 0 .3.4.2 1-.2 1.2-1.8a9 9 0 0 0-1-4.4v-.6q.2-.5.6-.2 3 2.4 4.7 6.1a8 8 0 0 1 .8 4.7q-.7 2.9-4.8 6.6-3.5 3-3 5.5.3.9.9 1.6l-.2-3.4v-.3l.3-.4h.3l.3.2c2.4 1.3 3.6 3.4 4.2 7.3q.4 3.9-1.5 6.6-.7 1-1.5 1.5l3 3.6q.7 1 1.2.8.3 0 .4-.3 1.9-2.5.5-7.4v-.6l.3-.2h.3a9 9 0 0 1 3.4 9q3-1.7 8 0 4.8 1.5 8.6.4m-.2 1.1q-3.9 1.1-8.7-.5c-3.8-1.1-6.2-1-8.2.6q-.4.3-.6-.2v-.5a8 8 0 0 0-1.7-8q.8 4.6-1.1 7.1l-.9.6q-1 .2-1.9-1l-3.4-4q-.4-.4-.1-.9l.2-.2c2.6-1.5 3.4-3.6 3.1-7.3q-.7-4.6-3.3-6.2a12 12 0 0 1-.2 3.6q0 .6-.5.4a5 5 0 0 1-1.7-2.6c-.5-2.4.5-4.3 3.3-6.9q3.8-3.3 4.5-6 .3-1.3-.8-3.7a17 17 0 0 0-3.1-4.6q.5 1.7.3 3.2-.3 2.3-1.9 2.8-.7.2-1.2-.6t-.2-2.4q.4-2.4.1-4l-.2-3.3q0-.6.4-.6h.2q1.3.5 2.8.2 2.9-.7 4.3-5 .4-1.8.2-4a8 8 0 0 0-3.6-5.7q.8 2.4.2 4.4l-1.1 1.8q-1.5 1.5-2.8-.8l-1-1.7q-1.9-2.9-1.8-5.9l.1-.4h.4q1.4 0 2.7-.8 2-1.3 1.6-5.5-.5.7-1.2 1c-2 .7-4.3-.4-8-3.9l-.2-.3.1-.5q1.3-1.9 2.4-4.5a13 13 0 0 0 .8-8.5q-.1-.5-.8-.8-1.6-.8-5.2.2h-.3l-.1-.4.1-.6q1.2-1 2.2-2.5 1.6-2.8.6-4.7c-.8-1.3-2.2-1-5.2 1q-.4.4-.5-.2v-.5q.3-.9.2-2.4-.2-2.8-2.7-5.5a26 26 0 0 0-4.7 4.3l-.2-.2q-3-5.1-5-7.2-3 2-4 7 0 .5-.5.5l-.2-.2a10 10 0 0 0-5-3.7 9 9 0 0 0 .7 7.7q.2.4 0 .8l-.4.1q-1.8-.2-5.1-2-1-.7-1.7-.7-.5 0-.8.3-.3.4-.1 1.6a38 38 0 0 0 1.5 7.7q0 .2-.2.3h-.3q-2-.6-4-.6-1.6.2-2.5.8-1 1-1 2.6.5 6.6 4 10.7.1.4 0 .8-1.3 2.1-3 3.5c-2.4 1.6-4 1.4-6-1q-.4 1.8 2 6.1l1.2 2.8q.9 3.3-.8 5.3-1 1-2.1 1-2.1 0-3.2-3.9-.9 1.5-1.3 3.4c-.6 3.2.2 5.5 2.6 7.9 2.7 1.9 4.8 1.5 7.6-1.5l.3-.2.3.3.1.4q-.3 3.6-1.1 6.7-.7 2.9-1.7 4.1-1.4 1.8-3 .7-.7-.9-.8-2 0-1.6 1.4-3.1-.7 0-1.5.4-3 1.4-3.7 6 0 1.4.3 3.2a7 7 0 0 0 4 5 4 4 0 0 1 1.8 1.9q1.1 2.5-1.8 5.5c-1.8 2-2 4-1 7q.7 1.5.5 3c-.4 2.2-1.6 3-4.4 3.4q-3-.2-4.2-.7-1 3-.2 6.3 0 .5-.3.7l-.4-.1c-2-2-4.7-2-9.3 0q-4.8 2-6.6 1.5-.6 1-1.8 4l1.6 2.7 1.3 2 .4.7.2.3v1.3l-.3 2.4-.3 3 1.3.9 13.8-7.8 14.2-9.7h.2l11.4 1 7.2 2.3 9.3.9 6.7-5 .2-.2 9.9-.3h.1l10.9 6.9 12.3 9.2 6.3 1 4.5-.8v-13zm-105.8 11.9-.4.2.3-.2zm-.3 1 .1.1z"/><path fill="#d40000" d="M689.9 466.6c.4.3 4.8 3.7 7.6-.4.2-.4 2.7-6.9-3.5-10.5.2-.3 3.2-5.2-.2-11-.2-.3-1.8-2.7-5.5-1.1 0-.3-1.3-3.8-4.7-4.3-.3 0-2.7-.2-4 4.2-.3-.2-3.6-2.3-6.3.5-.2.4-3.4 5 1.5 10.3l3.7.8 3.7-2.1 4.1 1.8c0 .3-.9 5.4 3.6 11.8"/><path d="M689.7 467.1a17 17 0 0 1-3.9-11.9l-3.6-1.6-3.5 2h-.2l-3.8-.7-.2-.1a8.6 8.6 0 0 1-1.5-11.2c1.8-2.1 3.5-2.4 6.3-.9 1-2.9 2.1-4 4.2-4 2.4.3 3.8 1.4 5 4.2 2.5-1.1 4-.7 5.6 1.3 1.6 2.7 2.1 5 1.6 8.2l-1 3a8 8 0 0 1 4 6.7q0 2.4-.8 4.4c-1.2 2.1-2.6 2.7-5.1 2.1a10 10 0 0 1-3.1-1.5m.4-1c3.6 2.5 5.5 2.5 7-.2q.7-1.7.7-3.8c-.2-2.9-1.3-4.5-3.9-5.8q-.4-.2-.3-.8l.1-.1q.8-1.4 1.2-3.3.6-3.9-1.4-7.1c-1.4-1.8-2.7-2-5-1q-.4.3-.5-.2-1.4-3.7-4.4-3.9-2.7-.2-3.6 3.8-.1.4-.5.3c-2.8-1.6-4.3-1.5-5.9.4q-1 1.3-1.1 3c-.2 2.6.4 4.4 2.4 6.4l3.5.7 3.6-2h.3l4 1.8.3.1v.3l.1.2v.1c-.5 3.8.5 7.1 3.4 11.2m-4-10.8h.3z"/><path fill="#64b4d1" d="M810.3 451c6.7-.9 8.6 5.2 8.8 5.7 3 10.7-3.6 17-3.8 17.2.5 2.4.6 5.5.6 5.6 10 1.2 8.4 15.6 8.4 16.2l-3.4-3.3c-6-2.1-11.7 4.8-16.3 17-4.2 12-2.3 17-1.5 30.6 1.3 13.7 16.5 19.7 16.9 19.9l-12.6 45.6c-5.4 17.7-15 11.7-18.4 8-3-3.2-3.7-1.5-5.2.4-1.1 2 6.4 9.8-8.4 19.3-15 9.3-17.8 15.4-20.3 17.7-3 2-12.3.8-14-1-1-1.8-.5-1.7-4.4-5s-10.5-6.3-17.7-11.3c-7.2-5.3-7-10.9-7-12.4.2-1.7 2.6-11-6-3.6-8.9 7.2-15.4-4.2-15.7-4.7-1.5-3.1-8.7-29.2-8.7-29.3-2-9.7-5.6-21.2-5.6-21.2.2 0-.4 1 5.9-3.3 6.2-4.7 9-12.4 11.2-20.5 2-8.1 0-21.7-.7-24.7-1-3-5.5-15.4-11.3-18.9-6-2.5-9.3 2.9-9.6 3.3 0-.6-1.7-15 8.4-16.7 0 0 .1-3.2.6-5.6-.3-.3-6.8-6.1-3.8-17 .1-.5 2.1-6.7 8.8-6.1l-1.6 4c0 .2-1.7 21.8 22.3 8.4 24-14.1 23-17 36.7-7.6l10-.4c.4-.3 13.8-8.9 19-5.8a483 483 0 0 0 17.4 12.8l3.7 2.5c.5.2 15.3 6.6 19-8.7z"/><path d="M810.3 450.6c3-.5 5 .1 7 2.3a11 11 0 0 1 2 3.6 18 18 0 0 1-3.7 17.5q.4 2.3.6 5c4.3.6 6.7 3 8 8.6q.8 4.1.4 8.2v.7l-3.8-3.7c-5.9-2-10.8 3.1-16 16.7a44 44 0 0 0-2 22.2l.6 8.2q.5 8.2 8.6 14.8a34 34 0 0 0 8.1 4.8h.3l-8.5 30.7-4.2 15.4c-2.4 8.1-5.5 11.8-10.2 12.4a11 11 0 0 1-8.7-4.1q-1.6-1.9-2.6-1.7-.6 0-1.7 1.3l-.5.8q-.2.1.2 2 1.3 4.4.4 7.4-1.7 5.3-9 10a70 70 0 0 0-20.3 17.5c-1.4 1-3.7 1.4-7.8 1.1-4-.4-5.9-1-6.6-2.1l-.6-1a17 17 0 0 0-3.7-4q-2.2-1.8-8.5-5.5-6-3.5-9.3-5.7c-5-3.7-7.2-7.6-7.1-12.9v-.8q.6-3.5 0-4.7-.4-.7-1.5-.5-1.4.5-4 2.8c-3.9 3.4-7.2 3.6-11.3.7a19 19 0 0 1-4.8-5.4q-1.6-3.2-8.7-29.5a188 188 0 0 0-5.7-21.2l-.1-.4.3-.1h.4q.1.5 5.4-3.3 6.9-5 11.1-20.2 1.3-5.1.7-14.1a64 64 0 0 0-1.4-10.3 61 61 0 0 0-3.7-9.3q-3.9-7.4-7.4-9.4c-2.4-1.2-4.3-1-6.7.5a10 10 0 0 0-2.6 2.7l-.4.7-.1-1q-.4-4 .4-8.1c1.3-5.6 3.6-8.3 8-9q0-3 .5-5a16 16 0 0 1-3-4.5c-1.9-4.2-2-8.2-.7-13q.5-1.8 2-3.6c2.1-2.3 4.1-3 7.1-2.6h.5l-1.8 4.5q-.3 5.3 2 9c3.7 5 9.8 4.7 19.8-1l9.3-5.7a54 54 0 0 1 15-7.5q4.3-.3 12.7 5.4l9.8-.3q3.6-2.4 7.7-4.2c5.9-2.6 9.2-3 11.5-1.5q4.5 3.7 21 15.2 4 1.7 8.4 1.5c5.8-.5 8.9-3.5 10.4-9.8l-1.9-7.4zm.4.8 1.7 6.7c-1.6 6.9-4.9 10-11 10.6q-4.5.1-8.5-1.5-16.7-11.6-21.2-15.3c-2.1-1.4-5.3-1-11 1.6a67 67 0 0 0-7.7 4.2l-10.1.4h-.1q-8.4-5.9-12.4-5.4-3.5.4-14.8 7.4l-9.3 5.6c-10.3 6-16.6 6-20.4.8a16 16 0 0 1-2.3-9.7v-.1l1.4-3.5c-2.6-.2-4.3.5-6.1 2.6q-1.4 1.6-2 3.3c-1.2 4.5-1 8.2.7 12.2q1.4 2.7 3 4.3l.3.2-.1.3q-.4 2.4-.6 5.5v.4h-.3c-4.2.6-6.5 3-7.7 8.4q-.7 3.5-.5 7 1-1.3 2.3-2.3a7 7 0 0 1 7.2-.5q3.8 2 7.7 9.7 2.6 5.2 3.8 9.5a64 64 0 0 1 .7 25q-4.4 15.4-11.4 20.6-4.1 2.9-5.6 3.4 3.6 11.2 5.5 20.7a299 299 0 0 0 8.7 29.2q1.8 3 4.5 5.1c4 2.8 7 2.6 10.7-.6q2.8-2.3 4.3-2.9 1.5-.4 2.2.9.6 1.4 0 5.3v.7c0 4.9 2 8.6 6.8 12q3.3 2.3 9.2 5.8 6.4 3.7 8.6 5.5a18 18 0 0 1 4.4 5.2c.7.8 2.5 1.4 6.3 1.8 3.9.3 6 0 7.4-1q.5-.4 1.9-2.2a70 70 0 0 1 18.4-15.4c5-3.1 7.6-6 8.7-9.5q.8-2.8-.3-6.8-.7-2.4-.1-3l.5-.7c1.7-1.9 3.1-1.8 5.1.3 2.7 2.8 5 4 8.3 4 4.4-.6 7.3-4.1 9.6-11.8l4.3-15.4 8.2-29.9q-3.9-1.5-8-4.7-8.3-6.7-8.8-15.4l-.7-8.1a45 45 0 0 1 2.2-22.7 45 45 0 0 1 7.7-14c3.3-3.4 5.9-4.3 9-3.2l3 3a27 27 0 0 0-.4-7c-1.3-5.4-3.5-7.7-7.7-8.1h-.3v-.4q0-3.2-.6-5.5v-.3l.1-.2q1.8-1.6 3.1-4.5c1.7-4 2-7.7.6-12.1a10 10 0 0 0-1.9-3.3q-2.5-2.9-6.2-2.2M676 562.8"/><path fill="#fff" d="M738.4 551.3s-.8-6.9-1.7-11.3c0-.3-1.5-6.7 1.3-11.8l3.7-6c.2-.2 2.3-3.9 5.2-4.9.2 0 2.7-.2 3.2-1 .5-1 3.1-7.4 11-.1a13 13 0 0 1 6-6.4c.3-.1 3.6-1.6 6 2.2.2-.3 4-4.5 8.2 2.4.4-.3 4.8-4.1 9.2 3.4.3-.3 4.7-3.6 8.4 3.3 3.1 7.2 2.6 10 2.6 10.2L804 543l8.5 13.4-19.7 12-8.8.6-17.7 7.3a766 766 0 0 1-31.4 3.8l-8.7-14.1z"/><path fill="#00247d" d="M738 551q-.8-6.6-1.7-10.9a16 16 0 0 1 1.4-12.3l3.7-5.9q2.5-4.4 5.5-5.1 2.7-.1 2.8-.6a6 6 0 0 1 3-3.6c2.6-1.1 4.9-.4 8.2 2.7q2.5-5 6.1-6c2.9-1.1 4.5-.6 6.1 1.9a5 5 0 0 1 2.6-1.3q3.3-.6 5.7 3.7a6 6 0 0 1 3-1c2.7 0 4.4 1.2 6.2 4.5q1.3-.8 3-1c2.5.1 4.1 1.4 5.7 4.6 2.1 5 3 8.2 2.6 10.6l2.4 11.3 8.7 13.9-20.2 12.3-8.9.6-17.6 7.4a758 758 0 0 1-31.6 3.8l-9.2-14.8zm.9.5-12.2 14.4 8.3 13.5q15.4-1.5 31.1-3.7l17.7-7.4 8.8-.6 19-11.6-8-12.9-2.5-11.9v-.1q.5-2.8-2.5-9.8c-1.4-3-2.9-4-5.1-4.1q-1.6 0-2.8 1l-.4.2-.2-.4c-1.7-3.2-3.3-4.4-5.7-4.4q-1.6.2-2.9 1.1l-.3.3-.2-.4c-1.7-3-3.1-4-5.2-3.7q-1.5.3-2.5 1.4l-.4.4-.2-.5c-1.4-2.4-2.9-3-5.5-2q-3.4 1.2-5.8 6.1l-.2.6-.4-.4c-3.3-3.2-5.4-4-7.8-3q-1.8 1-2.5 3-.5 1.2-3.5 1.3c-1.9.5-3.3 1.9-5 4.7l-3.7 6a15 15 0 0 0-1.2 11.2q1 4.5 1.7 11.4z"/><path fill="#d40000" d="M712 622c-.2 0-4.6.4-7.2 1.8-2.3 1.5-4.2 3.2-7 5.5 0 .1-1.1 2-6.7.5-.4-.1-8.7-3.5-9.3 6.4-.5 0-10.7.4-6.7 14.2.2.5 2.8 10.1 9.6 3.7-.2.4-3.8 7.3 3.9 11.5.4.2 5.1 2 7.3-5.7 0-.1.8-2.9-1.3-7.1.2 0 2.6-.7 4.7-4.6-.2.5-5.5 9.3.6 13.8.4.2 7.5 3 8.5-8.4 0-.3-.5-4.8 2.5-7 .3-.2 6-1.9 9.4-11.7-.4-.2-8.7-6.7-8.4-13"/><path d="M711.9 621.4h.1q.5.1.3.7c-.2 2.4.9 4.8 3.7 8.2a36 36 0 0 0 4.1 3.9l.3.2.2.1v.8a21 21 0 0 1-5.9 9.6 12 12 0 0 1-3.7 2.2c-1.8 1.2-2.5 3-2.2 6.5v.1c-.3 5.2-1.7 7.8-4.7 9q-2.1.6-4.3-.1a7 7 0 0 1-3.2-4.5q0 1-.3 2-1.2 5.2-4.6 6.2-1.8.4-3.2-.2c-3.7-1.8-5.1-4-5.3-7.7q0-1.3.4-2.5c-2.5 1.7-4.2 1.6-6.3-.6a13 13 0 0 1-2.5-4.7c-2-6.2-1.4-10 1.7-13q2.2-1.6 4.9-2c.3-4.3 1.7-6.2 5-6.9q2.5-.3 4.8.6c3.7 1 5.4 1 6.3-.4l.1-.1 1.8-1.5q3.4-2.8 5.3-4 2.5-1.6 7.2-1.9m7.9 13.8-1-1-3.2-3q-4.1-4.9-4-8.6-4.4.3-6.5 1.6l-5.1 4-1.8 1.5c-1.2 1.6-3.1 1.8-7 .7q-2.3-.9-4.6-.6c-3 .7-4.2 2.4-4.3 6.4q0 .6-.4.5-2.7.3-4.8 2c-2.8 2.5-3.2 5.9-1.5 11.5a12 12 0 0 0 2.3 4.3c2.1 2.1 4 2 6.6-.8l.3-.2.3.3q.3.3 0 .6-.9 1.9-1 4.1c.2 3.1 1.5 5 4.7 6.6q1.4.4 2.8 0 3-.7 4-5.3.8-2.8-1.2-6.7-.2-.4 0-.8h.3q2-.6 3.7-3.2l.7-1.3q.2-.4.6 0l.2.3-.1.4-.7 1.3a20 20 0 0 0-1.4 4c-.7 3.8 0 6 2.4 7.7a6 6 0 0 0 3.9.1c2.6-1 3.8-3.3 4.1-8-.3-4 .5-6 2.7-7.6h.1q1.5-.6 3.5-2 3.6-3.3 5.5-8.8M697.2 652q-.9.8-1.9 1.1a14 14 0 0 1 1.1 3.3 15 15 0 0 1 .8-4.4m22.7-17.3.1-.2z"/><path fill="#d40000" d="M693 520.1c-.5-.3-6.7-4.5-10.7-.6a8 8 0 0 0-9.8-.7s-4.7 4-8 8.4c-.2 0-2.2 2.4-1.5 11.1 0 .2 1 6 .4 9.2 0 0-1.4-.5-4.7 4.3-.3.4-3.6 5.5-7.6 0 0 .6 1 7.4 7.7 7.4-.1.1-3 3-.4 12.3 0 .2 1.9 6.3-1.2 14.2.3-.1 5.4-2.6 5.6-12.1 0-.1-.3-6.2 1.2-10.7 0 .1-1.5 3.8 2.3 13 0 .2 2.7 6.2.5 12.7.3-.1 5.4-2.3 5.2-12-.8-9.6-3.8-5.9-1.8-14.5 0 .1.7 4.4 2.3 7a17 17 0 0 1 3 12.6c.1-.2 3.2-5.5 2.7-11.7-1-6-1.7-7.9-1.7-7.9l10.9-7.7 5.3-13z"/><path d="m693.2 519.6.2.6-.2 21.2-.1.3-5.4 13-.2.2-10.4 7.5q.7 2.1 1.5 7.6c.4 4.3-.4 8-2.8 12q0 .3-.4.2-.3-.1-.3-.7a16 16 0 0 0-2.9-12q-1.3-2-2-5.1-.4 3 .4 4.7 1.5 3 1.8 7.5a15 15 0 0 1-2.5 10q-1.5 1.9-3 2.5h-.3q-.3-.2-.2-.8c1.6-4.2 1.4-7.9-.5-12.2q-2.1-4.9-2.7-8.3-.3 2.6 0 5.8a16 16 0 0 1-2.8 10q-1.5 1.9-3 2.6h-.4l-.2-.4v-.4c2.1-5.1 2.5-9.4 1.2-13.7q-1.7-5.9-.8-10l.6-2c-2.5-.1-4.1-1.2-5.7-3.6q-1-2-1.5-4.2l.2-.5.3-.1.3.2c1.5 2.3 2.7 2.9 4.6 2q1.5-.7 2.3-2 3.2-4.6 4.8-4.6.5-3-.5-8.4v-.1c-.6-6.1 0-9.7 1.5-11.7q3.4-4.4 8.2-8.4a8 8 0 0 1 7-1q1.7.6 3 1.5c1.7-1.7 3.6-2 6.7-1.1q2.3.6 4.2 2m-29 43.7-.2 2.6a29 29 0 0 0 2.6 9.6 16 16 0 0 1 1 11.9q1-.6 1.7-1.7c1.7-2.5 2.4-5.2 2.3-9.2q-.3-4.1-1.6-6.9c-1-2-1-4.3-.1-7.8q0-.4.5-.3.2.1.2.5.6 4.4 2.2 6.6a18 18 0 0 1 3.3 11 17 17 0 0 0 1.6-9.6q-.7-6-1.6-7.7v-.4q0-.3.2-.4L687 554l5.3-12.8.3-20.7q-1.8-1-3.7-1.8c-3-.8-4.8-.4-6.3 1.2q-.2.3-.5 0a9 9 0 0 0-2.9-1.6 7 7 0 0 0-6.5 1 51 51 0 0 0-8 8.3c-1.4 1.8-1.8 5-1.4 10.7q1.2 6.2.5 9.4 0 .4-.4.3c-1-.1-2.3 1-4.4 4.2q-1.1 1.5-2.6 2.4-2.5 1.2-4.4-.7l.8 1.5c1.5 2.5 3.2 3.4 6 3.2q.4 0 .4.5l-.1.5q-.7.7-1.1 2.5-.8 3.8.8 9.3c1.2 4.2 1 8.2-.6 13l1.6-1.6a15 15 0 0 0 2.6-9.2 27 27 0 0 1 1.2-11q.2-.5.6-.2t.1.8z"/><path d="M676.5 557.3c-3.3-.7-4.9-2.4-5.6-6l.8-.2q.8 4.3 4.8 5.1zm-13-10.4q1.5.1 3.2 2.3 1 2 2.3 2v1q-1.7.1-3-2.3-1.2-1.8-2.5-1.9zm19.6-7.7a6 6 0 0 1-3.6-1.8c-.1 0-1.2-1.2-2.1.7-.1.2-1.1 2.5 1 4.2.2.2 2.6 1.9-1.7 5.7.4-.2 4.8-2 3.2-6-.1-.1-2-2.2-1.4-3.2 0 0 .2-.6 1.1.3 1.1.8 2.6.7 3.5.1"/><path fill="#784421" d="m756.2 557-17.9-84.3-.6.2 15.8 85.5z"/><path d="m756.6 557.3-3.3 1.6-16-86.3 1.2-.5 18 84.8zm-.7-.5L738 473.2l15.6 84.6zm-62 94c-.4-.2-4-3-7.8.1 0-.1.4-1.8 3-2.8.1-.4 1.4-5 5.5-4.8 0 0-1.7 2.6-3.9 4.8.2 0 2.2.5 3.1 2.7"/><path fill="#64b4d1" d="M679 663.4c-.4-.3-6.4-6-3.2-15.7.1-.2 1-2.4 3.1-2 .3.2 3.8 1.9 1 9.7-.1.2-1.5 5-1 8"/><path fill="#00247d" d="M678.8 663.7a15 15 0 0 1-3.2-16.2q1.2-3 3.4-2.2 1.1.5 1.9 2.2 1.3 3.1-.8 8.2v.2l-.2.5-.5 2q-.5 3.2-.2 4.8zm-.3-1.3a18 18 0 0 1 1.1-7.2q1.9-4.6.7-7.3-.5-1.4-1.5-1.8-1.7-.7-2.7 1.8a14 14 0 0 0 2.3 14.5"/><path fill="#64b4d1" d="M692.5 673.3c-.3-.2-9-6.2-6.6-16.5 0-.2.9-3 3-3 .3.1 3.3.5 3 7.2 0 .1-1 6.4.6 12.3"/><path fill="#00247d" d="M692.4 673.7q-2.3-1.7-4.5-4.6c-2.8-4.2-3.4-8-2.3-12.4q1-3.6 3.3-3.3 1 .2 2 1.2 1.8 2 1.3 6.5-1 6.4.6 12zm-.4-1.3q-1.4-5.5-.4-11.5.4-3.9-1.1-5.7-.7-.7-1.6-1-1.8-.2-2.7 2.8c-1 4.2-.5 7.6 2.1 11.5a19 19 0 0 0 3.7 4"/><path d="M690.5 635.4s-2.8 2.8-4 4.6c0 0-1.2-2-2.7-3.4 0 0 1.6-.1 2.7 1 0-.1 1.4-1.7 4-2.2"/><path fill="#64b4d1" d="M699 671.1c.4-.1 7-2.1 6.1-12.9 0-.4-.7-4.2-3.9-4.2-.3.2-3.4 1-1.3 8 0 .3 1.2 4.6-.9 9.1"/><path fill="#00247d" d="m699 671.5-.2-.7a11 11 0 0 0 .8-8.6q-1.5-4.5-.2-7 .7-1.2 1.7-1.6c2.5-.2 3.6 1 4.3 4.5.5 4.8-.3 8-2.6 10.9a9 9 0 0 1-3.7 2.5m.6-1.1q1.4-.7 2.7-2c2.1-2.7 2.9-5.7 2.4-10.1-.6-3-1.5-4-3.5-3.8q-.8.3-1.4 1.3-1.2 2.1.3 6v.1c.8 3.2.7 5.7-.5 8.5"/><path fill="#f5ce00" d="M732.9 448.3s4.8 2.1 7.4 3.5c.3.2 6.7 4 15.9-.2 0 0 6-3.3 6.8-3.6l-4.6 9.7-.2 5 2.8 5.6c-.1 0-1.5.9-6.8-3.2-.4-.3-5.3-5.4-12.6.1-.1.2-3.6 3.2-6.8 3.4l4.4-6.7-1.7-6z"/><path d="m733 447.8 7.5 3.5q1.7 1 4.5 1.6 5.6.9 11-1.8 6-3.4 6.9-3.7l.4.9-4.5 9.5-.2 4.6 3 6.1-.4.3c-1.5.6-3.5-.3-7.3-3.2a9 9 0 0 0-3.5-2.1c-3.1-.8-5.6-.2-8.5 2.2-2.7 2.4-4.8 3.4-7.1 3.5h-.9l4.8-7.4-1.5-5.7-4.6-7.4zm1 1.6 3.9 6.1 1.8 6.5-4 6q2.6-.4 5.7-3.2c3.2-2.6 5.8-3.3 9.1-2.4q2.3.7 3.9 2.2c3 2.4 4.7 3.3 6 3.3l-2.7-5.1.3-5.3 4-8.5-5.7 3.2c-3.9 1.8-7.4 2.4-11.4 1.8q-3-.6-4.7-1.7z"/><path fill="#fff" d="M702 658.6q.1-.1-.1-.7s-.3-.2-.6.4c0 0-.7 1.6-.1 4 0 0 .5 1.6.3 3.3l.2.5q.1.1.4-.4s.3-1.6-.3-3.3c0-.1-.7-2.3.1-3.8"/><path fill="#d40000" d="M805.7 465c-.4.3-4.8 3.8-7.6-.1-.2-.5-2.7-6.9 3.5-10.7-.2-.3-3.2-5 .2-11 .2-.3 1.8-2.8 5.5-1.4 0-.3 1.4-3.7 4.8-4.4.2 0 2.6-.3 3.9 4 .3-.3 3.7-2.5 6.3.2.2.3 3.4 4.8-1.5 10.4l-3.7.9-3.7-2-4.1 2.1c0 .3.9 5.3-3.6 12"/><path d="M805.9 465.4q-1.5 1.2-3.1 1.7c-2.5.7-3.9.1-5-1.9q-.8-2-.8-4.4a8 8 0 0 1 4-6.8q-.8-1.3-1.1-3-.8-4.5 1.6-8.2c1.6-2.2 3.1-2.6 5.6-1.7q1.6-4 5-4.2 2.9-.5 4.1 3.7c3-1.6 4.6-1.5 6.4.6q1 1.4 1.3 3.5c.3 3-.5 5.2-2.9 7.7l-.1.1-3.8 1h-.2l-3.5-2-3.6 1.9a17 17 0 0 1-3.9 12m-.4-.9q4.2-6 3.4-11.3v-.3l.1-.3.3-.1 4-2h.3l3.6 1.8 3.5-.9q2.9-2.9 2.4-6.4a7 7 0 0 0-1.1-3c-1.6-1.8-3.2-1.8-5.8-.2q-.5.3-.6-.2c-.7-2.8-1.7-3.7-3.6-3.6q-3 .3-4.4 4-.1.6-.5.4c-2.3-1-3.6-.7-5 1a10 10 0 0 0-.2 10.4v.7l-.2.3a7 7 0 0 0-3.9 6q0 2 .6 3.7c1.6 2.6 3.5 2.6 7 0m4-11h-.3q.2.2.4 0"/><path fill="#f5ce00" d="M763 461.8s-.2 1.3-1.2 1.7c-.1 0-1 .5-1.9-1.4v-.7c-.2-1-.3-3.3 1.7-5.7.3-.3 3.1-3.5 10 .4a370 370 0 0 0 19 12.4s3.9 2.3 10.1 2.3c.4 0 8 0 12.1-8.5.1-.3 2.4-6 0-10 0-.2-1-1.5-3-1.2q-1 .3-2.3 2.2c-.1.2-1.2 2.5.2 4.5.1.1 1.7 1.4 2.7-2.1 0 0 0-.3 0 0 .1.3.5 2.8-.5 5.3-.2.3-4.9 10.7-19.1 1.3l-18.6-13.1c-.4-.2-8.7-5.8-14.8 4.2-.2.4-4.1 8 1.3 14 .3.2 3.8 3 7-2.4.1-.4 2-5-1.3-7.8-.2-.1-2.8-1.7-4.3 2.4-.9 4.3 2 5.1 2.7 2.2 0 0 0-.7.2 0"/><path d="m761.4 456.6 1.3-.4q1 0 1.9.5 2.4 1.6 2.2 5.3a12 12 0 0 1-.8 3.3c-1.3 2.7-2.7 3.6-4.9 3.6q-1.4-.3-2.6-1v-.1c-2.6-2.6-3.5-5.4-3-9.6q.4-3 1.6-5.1c2.6-4.6 5.5-6.4 9.8-6.2q3.2.3 5.5 1.8l18.6 13c6 4.1 10.3 5 14.5 3q2.9-1.5 4-4 .7-1.5.7-3.3-.5 1.1-1.4 1.2t-1.3-.3h-.1c-1.2-1.6-1.2-3-.3-5.3q1.3-2 2.7-2.5 2.1-.6 3.3 1.3c1.9 2.8 2 6 0 10.8a14 14 0 0 1-12.4 8.7q-6.2.2-10.4-2.3a150 150 0 0 1-10.3-6.6q-3.6-2.7-8.7-5.8-4-2.5-7.1-1.8-1.5.4-2.3 1.3zm2 5.2q-.2 2-1.5 2.2h-.1q-1 .5-1.8-.6l-.4-1v-.1l-.2-1a8 8 0 0 1 2-6q.9-1.1 2.7-1.6c2.4-.5 4.6 0 7.6 1.9q5.1 3.1 8.7 5.8l10.2 6.6h.1q4 2.4 10 2.2 2.2 0 4.6-1c3.4-1.5 5.5-3.7 7.2-7.1 1.6-4.3 1.6-7 0-9.5q-1-1.4-2.6-1-1.1.4-2.1 2-1 2.2.1 3.7.4.3.9.2.8-.1 1.2-2v-.3l.5-.2.3.2v.3q.6 3-.6 5.7-1.4 2.9-4.5 4.6c-4.4 2-9 1.2-15.1-3L772 449.7q-2.3-1.5-5.2-1.7c-4-.1-6.7 1.5-9.2 5.7q-1 2.1-1.4 4.7c-.4 3.7.4 6.1 2.6 8.4q1 .8 2.3 1 2.6.1 4.1-3 .6-1.4.7-2.9 0-2.9-1.8-4.2-.7-.4-1.5-.4-1.5.2-2.2 2.5l-.3 1.5.1.6.4.7.3.3h.9q.4-.4.5-1.2l.1-.5.2-.2q.3-.2.5.1l.2.5z"/><path fill="#e4cb5e" d="M689.6 504.2v-15.8c0-1.3 0-2.3 1.4-3.8 1.5-1.6 2.6-3.6 5 3.2 0 0 4.2-5.5 5.5-6.6.2-.1 2-2.4 4 1.5 0-.1 2.3-4.3 4-5.6.2-.2 3.7-3.4 4.3 7.5l3.2-4c.2-.1 2.2-2.4 5.3 1.2 0 0 4.5 6.3 5.3 8 0 .1 1 2 1.1 5 0 .2.1 3.3 1.3 5.4 0 0 1.4 1.6 2.9 2.1.2 0 3 .2 4.5 4.5 0 0 .5-.7 2.2 19.9v37.6l-18.5 30-29.8-12.8-12-7.4-2.6-12.1 11.5-9.4 6.3-22.7-2-16.3z"/><path d="M689.3 496v-7.7q0-2.4 1.5-4l.3-.3q1.5-1.5 2.3-1.3 1.4.5 2.6 4.4 4-5.4 5.3-6.2.7-.7 1.5-1 1.7-.1 2.7 2 2.2-4 3.8-5.1 1.2-1 2.3-.5c1.5 1 2.2 3 2.5 7.4l2.7-3.4c2-1.9 3.5-1.6 5.7 1.2q4.5 6.4 5.3 8.2 1 2 1.2 5.1 0 3.3 1.2 5 1.4 1.7 2.7 2.1 3.4.3 4.8 4.6l.1.3.4 2.1q.6 4.8 1.7 17.7v37.9l-18.7 30.4-30-13-12-7.5-2.8-12.6 11.6-9.5 6.2-22.4-2-16.2-3-9.4zm.6 8.1 2.9 9.4 2 16.5-6.3 22.9-11.4 9.3 2.5 11.6 11.8 7.4 29.5 12.7 18.4-29.7v-37.5q-1-12.9-1.7-17.6l-.3-1.6-.2-.5c-.9-2.8-2-4-4.2-4.2q-1.5-.5-3.1-2.3-1.4-2.1-1.4-5.6-.1-3-1-4.8t-5.4-8c-1.8-2.4-3.1-2.7-4.8-1.1l-3.7 4.5v-.9c-.2-4.5-.8-6.6-2-7.5q-1-.3-1.9.4-1.6 1.1-3.8 5.4l-.3.6-.3-.6q-.9-2.4-2.3-2-.7 0-1.2.7h-.1a36 36 0 0 0-5.4 6.5l-.3.5-.2-.6q-1.4-4-2.4-4.5-.6-.1-1.8 1.1l-.3.4a5 5 0 0 0-1.3 3.4z"/><path fill="#784421" d="m771.7 525 1.4-3 3.4-3.7s5 18.1 5.4 22.1v5.8c.2 0 7.4 2.1 9 18.3l-6.3 16.5-10-7-3-2.8z"/><path d="m771.4 524.7 1.5-3 3.7-4.1.2.5q5.1 18.3 5.4 22.3v5.4q1.8.7 4 3.2 4 5.2 5 15.4v.1l-6.5 17-10.3-7.2-3-2.9v-46h-.3zm.6.3v46l2.7 2.6 9.7 6.8 6.2-16a28 28 0 0 0-5-14.8 9 9 0 0 0-3.8-3h-.2v-6.1q-.4-4-5.3-21.5l-3 3.3z"/><path fill="#fff" d="M677 650s.4-.5.2-.9c0 0-.2-.3-.6.4-.1.2-1.8 2.8-.4 7.9 0 0 .1.6.5.5q.2 0 0-.8c0-.2-1.2-3.8.3-7"/><path d="M706.8 648.5a4 4 0 0 0-.4-2.6q-.6-1.3-.4-3l.8.3q0 1.2.3 2.2.8 1.7.5 3.4zm7.3-163.9q0 3.9.8 6.8l1.6 4.1q2 5 2.3 6.8h-.7q0-1.5-2.1-6.4-1.3-3-1.6-4.2-.9-3-1-7z"/><path fill="#d40000" d="M783.9 621s4.5.3 7 1.6c2.4 1.5 4.3 3.1 7 5.3.1.1 1.2 2 6.7.3.5-.2 8.8-3.9 9.4 6 .5 0 10.7-.2 6.6 13.9-.1.5-2.7 10.2-9.5 4.1.2.4 3.8 7.1-3.9 11.7-.4.1-5.1 2.2-7.3-5.4 0-.2-.8-3 1.3-7.2-.2 0-2.6-.6-4.7-4.4.2.4 5.5 9-.6 13.8-.4.2-7.5 3.3-8.5-8 0-.4.4-5-2.5-7.1-.3 0-6-1.7-9.4-11.3.4-.3 8.7-7 8.4-13.2"/><path d="M783.9 620.5q4.7.1 7.2 1.6 1.9 1.1 5.3 3.9l1.8 1.4v.1c1 1.3 2.7 1.4 6.3.2q2.5-1 4.9-.8c3.3.5 4.7 2.4 5 6.7q2.8.1 4.9 1.8c3.1 2.7 3.7 6.5 1.7 12.8q-.9 2.9-2.5 4.9c-2 2.2-3.8 2.5-6.3.8l.4 2.6c-.2 3.7-1.6 6-5.3 7.9q-1.5.6-3.2.3c-2.4-.7-3.7-2.4-4.6-6l-.3-2q-.7 2.8-3.1 4.5-2.3.9-4.4.4c-3-1.1-4.4-3.7-4.7-9 .3-3.5-.4-5.3-2.2-6.5a11 11 0 0 1-3.7-2 20 20 0 0 1-6-9.5v-.3q0-.3.2-.5h.1l.3-.3 1-1 3-3c2.9-3.5 4-5.9 3.8-8.3q0-.6.3-.7m13.7 27.2q1.6 2.6 3.7 3l.2.1q.3.3 0 .8-1.9 3.9-1.2 6.6v.1c.8 3.2 2 4.6 4 5.3q1.6.3 2.9-.3c3.2-1.7 4.5-3.6 4.6-6.7q0-2.2-1-4v-.7l.3-.3.3.1c2.8 2.7 4.6 2.8 6.7.6q1.5-1.9 2.3-4.4c1.7-5.8 1.3-9.1-1.5-11.5a8 8 0 0 0-4.8-1.7q-.4 0-.4-.5c-.2-4-1.3-5.7-4.3-6.2q-2.3-.2-4.6.7c-3.9 1.3-5.8 1.2-7-.4l-1.8-1.3-5.1-3.9q-2.3-1.2-6.5-1.5c0 2.7-1.2 5.3-4 8.7l-3.2 3.2-1 1a19 19 0 0 0 5.4 8.6q1.9 1.5 3.5 2c2.3 1.4 3.1 3.5 2.8 7.5.3 4.7 1.5 6.9 4.1 7.9a6 6 0 0 0 3.9-.3c2.4-1.8 3.1-4 2.4-7.8a20 20 0 0 0-2-5.2l-.2-.4.2-.4q.4-.2.6.1zm1.9 7.2q.3-1.4 1-3.2l-1.8-1 .4 1.3zM775.9 634v-.2zm-65.5-132 7.7 84.6h-.7l-7.6-84.5zm1.8-.1 8.5 78.9h-.6l-8.6-78.8zm1.6-.4 9.9 78.3-.7.1-9.8-78.2z"/><path fill="#784421" d="M731.8 572 714 487l-.6.3 15.8 86z"/><path d="m732.2 572.3-3.3 1.5-16-86.8 1.2-.4 18 85.3zm-.7-.6-17.8-84.1 15.6 85.1zm-12.3-73.2 18.1 62.7-.5.3-18.1-62.7zm-1.2 1 17.5 65.5-.6.3-17.5-65.5z"/><path fill="#fff" d="M689 667.1c0-.1-1.8-2.8-1.8-7.8 0 0 .1-1-.2-1.2 0 0-.4-.2-.5 1 0 .2-.4 4.8 2 8.2q0 .2.4.2.2.1.2-.4"/><path d="m720 497.7 18.7 57.2-.6.3-18.6-57.2zm-5 3.5 11.4 77-.6.1-11.4-77z"/><path fill="#f5ce00" d="M808.3 555c-8-5.8-10-19-10-19.4-1.7-13.9 2-25.1 2-25.2 5.7-15.7 14.2-19.5 14.4-19.6a53 53 0 0 0-11.3 21s-1.8 9.6-.9 19c1.1 9.4.7 7 2.4 14.1z"/><path d="M808.1 555.6a24 24 0 0 1-8.2-12q-1.4-4.4-2-7.8a62 62 0 0 1 2.1-25.6 42 42 0 0 1 9.3-16q3-2.9 5.3-4l.3 1a52 52 0 0 0-11.2 20.7 63 63 0 0 0-.8 18.8l.4 3.2q.6 4.8 1.5 8.6l.5 2.2 3.4 10.1zm-.7-1.8-2.9-8.6-.5-2.3q-.9-3.9-1.5-8.7l-.4-3.2q-1-9.5.9-19.4a46 46 0 0 1 9.4-18.8l-2.6 2.4a41 41 0 0 0-10.8 22.7q-1.5 9.1-.2 17.6.4 3.4 1.8 7.5a25 25 0 0 0 6.8 10.8"/><path fill="#784421" d="M773.1 522a976 976 0 0 1-34.4 15.6l-1.8 20.9a36 36 0 0 1-24.7 18.5l12.8 19.1 24.8 7.2 13-14 11.8-15.4c-1.1-7.9-.6-19.6-.6-19.7 0-2 .6-6.6.6-6.6s-2-19-1.5-25.6"/><path d="M773 521.7h.3v.3a172 172 0 0 0 1.5 25.5v.1q-.6 4.6-.6 6.6-.6 11.9.6 19.7v.1l-11.9 15.5-13 14-25-7.2-13.1-19.5h.3q4.1-.7 9.3-3.2a35 35 0 0 0 15.3-15.2l1.9-21q16.9-7.3 34.4-15.7m-.1.6a962 962 0 0 1-34 15.5l-1.9 20.8a35 35 0 0 1-24.5 18.6l12.6 18.7 24.7 7 12.9-13.8 11.7-15.3a101 101 0 0 1 0-26.2 182 182 0 0 1-1.5-25.3"/><path d="M737.3 552.8a274 274 0 0 0 36-18.1l.3.7q-13.4 8.5-36.2 18.2zm-10.9 17.5a129 129 0 0 0 48-23l7.3-7.2.3.7-7.3 7.1a130 130 0 0 1-48.2 23.2z"/><path d="m782 546.5-7.8 8.1a156 156 0 0 1-18.9 10.7 89 89 0 0 1-36.9 10.3v-.8q14.9.1 36.7-10.3Q766 559.3 774 554l7.8-8zm-7.8 22.2q-6.1 4.5-14 9.1a57 57 0 0 1-24.4 9.1v-.8q8.7-.2 24.2-9 7.8-4.5 13.9-9.1z"/><path fill="#d40000" d="M803 518.6c.4-.4 6.6-4.8 10.6-1.1.3-.3 4.4-4.1 9.8-1.2 0 0 4.7 3.7 8.1 7.9.1 0 2.1 2.2 1.5 11 0 .2-1 6.2-.5 9.2.1 0 1.4-.6 4.8 4 .3.5 3.5 5.3 7.6-.4 0 .5-1 7.4-7.8 7.8.2.2 3 2.8.4 12.4a23 23 0 0 0 1.3 14c-.3 0-5.5-2.2-5.6-11.7 0-.1.3-6.2-1.2-10.6 0 .1 1.5 3.6-2.3 13-.1.3-2.8 6.5-.6 12.9-.2-.1-5.3-2-5.2-11.7.8-9.6 3.9-6.2 1.8-14.6 0 0-.7 4.4-2.3 7a18 18 0 0 0-3 12.8 21 21 0 0 1-2.6-11.5c.9-6 1.6-8 1.7-8l-10.9-7.2-5.4-12.8z"/><path d="M802.8 518q1.9-1.2 4.1-2c3.2-1 5-.8 6.8.8q1.1-1 2.9-1.7 3.7-1.5 7 .7a48 48 0 0 1 8.2 8c1.6 1.8 2.1 5.3 1.6 11.5q-1 5.8-.6 8.5 1.8-.1 4.8 4.2 1 1.5 2.3 2c2 .7 3.2 0 4.7-2.3q0-.3.3-.3l.3.1v.5q-.2 2.1-1.4 4.3-2.1 3.7-5.7 4l.7 2q.8 4-.9 10-2 6.4 1.2 13.6v.4l-.1.4q-.2.1-.4 0-1.5-.6-3-2.3a15 15 0 0 1-2.8-9.9v-5.8q-.7 3.5-2.8 8.5c-1.9 4.5-2 8.2-.5 12.3q.1.4-.2.7 0 .2-.3.1-1.5-.5-3-2.3a15 15 0 0 1-2.5-10q.3-4.3 1.8-7.5.9-1.8.4-4.8-.5 3.2-2 5.2a18 18 0 0 0-2.9 12.3q0 .4-.3.7-.3 0-.4-.2a18 18 0 0 1-2.7-12q.8-5.4 1.5-7.6l-10.5-7-.2-.2-5.4-12.8v-.2l-.3-21.3q0-.3.3-.5m29.7 42a27 27 0 0 1 1 10.4c0 3.9.9 6.6 2.7 9q.7 1 1.6 1.6a20 20 0 0 1-.6-13q1.5-5.8.8-9.4-.5-1.8-1.2-2.4l-.1-.5q0-.5.5-.5c2.7 0 4.4-1 6-3.6l.7-1.6q-2 2-4.3 1-1.5-.7-2.6-2.2c-2.2-3.1-3.4-4.2-4.4-4q-.4.2-.5-.2a26 26 0 0 1 .5-9.5c.5-5.7 0-8.9-1.3-10.6a47 47 0 0 0-8-7.8 7 7 0 0 0-6.6-.7q-1.7.7-2.9 1.8-.2.3-.5 0c-1.5-1.6-3.2-1.9-6.2-.9a17 17 0 0 0-3.7 1.9l.2 20.7 5.3 12.6 10.7 7v.1l.3.3-.1.5q-.7 1.8-1.6 7.8-.6 5 1.6 9.4c0-4.1 1-7.5 3.3-11.1q1.6-2.4 2.2-6.8 0-.3.3-.4.3-.3.5.2c.8 3.5.8 5.8-.1 7.9q-1.4 2.9-1.7 7c-.1 4 .6 6.6 2.3 9q.9 1 1.7 1.6c-1.1-4-.8-7.7 1-12q2.3-5.7 2.6-9.7 0-1.8-.2-2.6l-.1-.2q-.1-.5.2-.8t.5.2z"/><path fill="#fff" d="M680 572.7c.1-.4.9-5.8 5.6-3.6.1-.5 1.6-10 10-10.5 8.3.7 8.8 11 8.8 12.3.2-.3 2.3-4.3 6.6-4.1.3 0 6.6-.4 4.4 15l1.3 2c.2-.5 5.2-16.3 16.6-12.4.4.2 10.3 4.3 3.8 18.9.2.4 5 8.8 9.8 8.6 4.7-1 8.5-3 13.1-14 5-11 14.7-13 17.7-12.6q4.2 1.2 5.2 5.3c.1-.7 5.4-24.7 25.5-23.4l8 4.6 3 1.5-4.5 18-11 35.2-8.4 4.2-8.7-6.2-3 2.4-.3 10.2-11.5 12-8 4.8-8.8 8.5-2 7.4c-.4-.2-4.7-2.4-10.5.1l-1.8-6-5.1-6.8-20-13.2-3.6-16-3.7-2.4-4 6.2-6 .7-9-8.7z"/><path fill="#00247d" d="M679.6 572.6q.3-1.8 1.2-3.1c1.3-1.8 2.5-2 4.6-1.1q.5-2.5 1.7-5c2.3-3.6 4.7-5.2 8.5-5.4 3.8.2 6 2 7.9 6.2a21 21 0 0 1 1.2 5.2c1.9-2.6 3.6-3.5 6.3-3.2q1.8 0 3.5 2c1.9 2.7 2.4 6.9 1.4 13.5l.7 1.2q1.5-4 4-7.4c4-5.2 7.8-6.5 12.8-4.7a11 11 0 0 1 4.7 4.3c2.5 4.3 2.3 8.9-.5 15.2 3.5 6 6.3 8.4 9.3 8a14 14 0 0 0 6.4-3.1 32 32 0 0 0 6.4-10.6 21 21 0 0 1 9.7-10.8c3.5-1.8 6-2.4 8.4-2 2.7.5 4.1 1.7 5.1 4q1.5-5.6 5-11c5.5-8.4 12-11.9 20.6-11.2l8 4.6h.1l3.4 1.7-4.7 18.5-11.1 35.5-8.7 4.4-8.7-6.1-2.6 2-.3 10.2-11.7 12.2-8 4.8-8.7 8.3-2.2 7.8-.3-.2c-3.4-1.7-6.3-1.6-10.1.1l-.4.2-2-6.5-5-6.5-20-13.3-3.7-16-3.2-2.1-4 6-6.3.8-9.1-9-9.6-38.2zm.9.1 9.4 37.7 8.6 8.4 5.7-.6 4.2-6.4 4 2.6 3.7 16 19.9 13.2 5.3 6.9 1.7 5.7a11 11 0 0 1 9.9-.1l2-7 8.9-8.7 8-4.8 11.3-11.7.3-10.3 3.4-2.7 8.8 6.2 8-4 11-35 4.3-17.4-2.7-1.4-8-4.6c-8.2-.6-14.4 2.7-19.7 10.7q-3.7 6-5.2 12.3l-.4 2-.4-2q-.7-4-4.9-4.9-3-.4-7.9 2a20 20 0 0 0-9.3 10.4 33 33 0 0 1-6.7 11q-2.6 2.3-6.7 3.2c-3.3.4-6.4-2.1-10.3-8.8l-.1-.3.1-.3c2.8-6 3-10.3.8-14.2q-1.8-2.7-4.3-3.9c-4.7-1.7-8.3-.5-12 4.4q-2.7 3.6-4 7.8l-.3.8-2-2.9.1-.3c1-6.4.6-10.3-1.1-12.8q-1.4-1.5-2.9-1.6c-2.8-.3-4.5.8-6.2 4l-.8 1.4V571q0-3-1.2-6.2c-1.7-3.8-3.7-5.3-7.2-5.6-3.5.2-5.7 1.6-7.8 5q-1.4 2.6-1.7 5.2l-.1.6-.5-.3q-2.7-1.5-4 .6-.7 1.2-1 2.5"/><path d="M767.1 451q-1.7 0-3.6 1.2c-2.3 1.8-3.3 4.3-3.3 8.8h-.8c0-4.9 1.1-7.7 3.8-9.8a7 7 0 0 1 4-1.3z"/><path fill="#f5ce00" d="M817.4 561.4c-13.3-4.6-16.9-23-17-23.3-2.4-14.6 1.7-27.5 1.7-27.6 6.4-20 16.1-21.2 16.3-21.2a5.3 5.3 0 0 1 5.8 5c.3 4.4-1.6 6-1.7 6.1-3.8 2.7-5.6 0-5.7-.2-1.3-2.6-.4-4.8-.4-5 1.1-1.7 2.5-1.2 2.7-1.2 1.3.6 1.2 2.6 1.2 2.8 0-.3.3-2.6-1.7-3-.2 0-3.7-.6-8.7 7.8 0 .1-6 11.3-6.1 25.3 0 .3-.8 26 19.1 30.8 0 0-2 4.5-6 20.3 0 0-4.3 20.2-8.4 31.3-.2.5-5.2 15.1-17.7 10.5-.3-.1-6.8-3.7-7.3-11 0-.6-.4-6 3.9-7.4.3 0 3.8-.7 4.2 4.2 0 .5.2 5-4.5 4.6-.1 0-1.5-.4-1.4-2.6 0-.2.3-1.8 2.3-1.3 0-.1-.7-.4-1.6 0 0 0-.6.3-.8 1.9 0 0 0 1.1 1 1.8 0 0 1.1.5 2 .3.1.2 1.3 3 4.1 4.3 4.1 1 6.8-.4 9-2.9 2.1-2.6 3.6-6.6 4-7.7.4-1 4-12.4 6.7-24.5 0 0 2.4-10.4 4.2-16z"/><path d="M816.8 561.8q-8.1-2.8-13.2-13.3-2.6-5.4-3.5-10.3a61 61 0 0 1 1.6-28 39 39 0 0 1 10.7-18.3q3.4-2.8 6-3.2c2.5-.2 3.9.5 5.2 2.5q.9 1.5 1 3c.3 3.3-.3 5.2-1.9 6.7-2.7 2.2-4.4 2-6.2-.3a6 6 0 0 1-.5-5.5q-2.9 1.8-5.8 6.8-1.5 2.8-3 7.3-3 9.1-3 17.7 0 6.4 2 13.5c3.2 9.5 8.6 14.8 16.8 16.8h.6l-.3.8q-2.1 4.5-6 20.1-4.3 20.4-8.4 31.4-1.4 4-4.4 7.5c-4.2 4.5-8.4 5.5-13.8 3.4q-1.9-1-3.8-3a13 13 0 0 1-3.8-8.6q-.1-1.7.4-3.6.9-3.7 3.9-4.4 1.2 0 2.3.3c1.6.8 2.3 2 2.3 4.5q0 1.5-.5 3a4 4 0 0 1-2.2 2q1.2 2.6 3.5 3.5c3.6 1 6 .2 8.7-2.8q1.8-2 3.6-7l.3-.5q2.7-7.1 6.6-24.4 2.4-10.5 4.3-16zm1.1-.8-.9 2.8q-1.8 5.5-4.2 15.9a191 191 0 0 1-6.7 24.5l-.3.6a29 29 0 0 1-3.8 7.4c-3 3.2-5.6 4-9.4 3q-2.9-1-4.2-4.3-.9 0-2-.3l-.5-.4-.3-.4a3 3 0 0 1-.4-1.6q.1-2 1.1-2.5t1.8 0q.3 0 .3.4v.4q0 .4-.5.4-1.1-.4-1.5.2l-.3.6q-.1 1.6 1 1.9c2 .3 2.9-.2 3.7-1.6q.4-1.1.4-2.3 0-2.8-1.8-3.5-1-.4-2-.2-2.4.5-3.2 3.5-.3 1.6-.3 3.2c.2 3 1.2 5.3 3.5 7.9q1.8 1.7 3.6 2.7c5.1 2 9 1 13-3.2a23 23 0 0 0 4.1-7q4.2-11.1 8.5-31.2 3.6-14.7 5.7-19.7c-8.3-2.2-13.6-7.7-16.8-17.3a44 44 0 0 1-2.1-14 59 59 0 0 1 6.2-25.6q3-5.4 6.3-7.3 1.7-.9 2.8-.7 1.5 0 2 1.8v1.8q0 .3-.3.5-.5 0-.5-.5v-.1q.1-2-1-2.2-1.4-.5-2.1 1-1 2.1.3 4.2c1.5 2 2.9 2 5.2.2 1.3-1.3 1.7-2.8 1.5-5.5q-.1-1.3-.9-2.6-1.4-2.5-4.4-2-2.5.2-5.8 3a38 38 0 0 0-10.2 17.8q-1 3.3-1.8 8.2-1.5 10.1.2 19 .9 4.6 3.4 10 5.1 10.3 13.2 13z"/><path fill="#f5ce00" d="M779.9 614.2c.2 0 2.2-.6 2.5 2.4 0 .4-.1 4-4.1 3.7-.3 0-3.5-.8-2.5-7 0-.3.8-3.7 4.6-3.8.2 0 3.2 0 5 6.6.1.2 1 5.3-.8 10.5a28 28 0 0 1-10.8 11s-11 6.6-14.5 10c-.3.3-4.6 5-2.9 10 0 .2.9 1.7 2.2 1.9.1 0 1.4 0 1.8-2v-.2c0 .2-.2 1.3-1 1.9 0 0-1 .6-2.2-.6-.1 0-1.1-1.4-.2-4 0-.2 1.2-2.7 4.4-1.4.2.2 2.4 1.7 1.6 5.8a5 5 0 0 1-4.3 3.7c-.1 0-2.3 0-4-2.2-2.4-3.9-2.5-10-.5-14 .1-.1 2.1-3.6 6.2-6.2l11.6-7a23 23 0 0 0 8.3-7.5s1.6-2.7 2.2-7.3c0-.3.4-3.1-1-4.1 0 0-.7-.4-1.6-.2"/><path d="M782 619.3q-1.3 2-3.8 1.6a4 4 0 0 1-2-1.4c-1.1-1.6-1.4-3.4-.8-6.3.8-3.2 2.2-4.3 5-4.2 2.7.2 4.2 2.1 5.5 6.9q1.1 5.8-1 11a27 27 0 0 1-11 11.2 80 80 0 0 0-14.4 10c-2.5 2.8-3.5 5-3.3 7.5l.4-1.3c1.2-2.3 2.5-2.8 5-1.6 2 1.6 2.5 3.3 1.8 6.5-1 2.7-2.2 3.9-4.7 4q-2.5 0-4.3-2.4-2-2.7-2.1-7.3 0-4.4 1.6-7.3 2.1-4 6.4-6.4l2.8-1.7 8.7-5.3q5.8-3.4 8.2-7.3a17 17 0 0 0 2-6.2m-2.2-5.7q1-.1 1.8.3 1.9.8 1.3 4.6-.5 4.8-2.3 7.7a24 24 0 0 1-8.5 7.6l-8.7 5.3-2.8 1.7a17 17 0 0 0-6 6q-1.5 2.7-1.5 6.7.1 4 1.9 6.6 1.4 2 3.7 2 3 0 4-3.3c.5-2.5.1-3.8-1.5-5-2-1-3-.7-3.9 1q-.8 2.2.1 3.4 1 1 1.8.5.6-.4.7-1.4 0-.6.4-.5h.3l.1.2v.5q-.2 2.6-2 2.5-1.7 0-2.6-2c-1-2.4-.8-4.5.6-7.5q1-2 2.3-3.3a80 80 0 0 1 14.6-10q8.3-5.2 10.7-10.9 1.8-4.8.8-10c-1.1-4.3-2.5-6-4.8-6.2q-3.3-.3-4.1 3.4-.7 3.4.6 5.2.7.9 1.6 1 2.2.5 3-1.2.5-.9.6-1.8 0-1.5-1-1.9h-1q-.5.1-.6-.4l.1-.6z"/><path d="M780 613.6c2.2-.4 3.5.6 5 3.8q1 3 1.1 4.6l-.8.2q-.2-1.5-1.1-4.2c-1.2-2.8-2.3-3.6-4-3.3zm6.7-6.9q-.6.1-1 .9-.7 1.4 0 4.4a13 13 0 0 0 4.4 6.8l-.5 1-.3-.3q-3.1-2.6-4.4-7-.9-3.6.2-5.6.6-1 1.5-1.3z"/><path fill="#f5ce00" d="M732.9 462.1c0 .1.1 1.4 1.2 1.7.1 0 1 .5 1.8-1.4l.1-.7c.1-1 .2-3.3-1.7-5.7-.3-.3-3.2-3.4-10 .7 0 0-5 3.3-8.7 6 0 0-9.2 6.4-10.3 7 0 0-4 2.3-10.2 2.6-.4 0-8 .2-12-8-.2-.3-2.4-6 0-10a3 3 0 0 1 2.9-1.3q1.1.2 2.4 2c0 .2 1.1 2.5-.2 4.6-.2 0-1.8 1.4-2.7-2 0 0 0-.3-.1 0 0 .3-.4 2.7.6 5.2.1.3 4.8 10.5 19.1.6l18.5-13.6c.4-.3 8.8-6 14.8 3.8.2.4 4.2 8-1.2 14-.4.2-3.9 3.2-7-2.1-.2-.4-2-5 1.3-8 .2 0 2.7-1.7 4.3 2.4.8 4.3-2 5.2-2.7 2.3 0 0-.1-.8-.2 0"/><path d="m734.4 457-.4-.6q-.8-.8-2.3-1.2c-2.3-.4-4.4.2-7.2 2q-5.1 3.3-8.7 6-9 6.3-10.3 7a20 20 0 0 1-10.4 2.6 13 13 0 0 1-12.4-8.2c-1.9-4.7-1.8-7.9 0-10.8q1.3-1.9 3.3-1.4 1.5.4 2.7 2.3 1.6 3.1-.3 5.3-.6.6-1.3.4-.8 0-1.5-1a8 8 0 0 0 .7 3.1q1.3 2.5 4 4c4.2 1.7 8.6.6 14.6-3.6l18.5-13.6q2.5-1.5 5.5-2c4.4-.2 7.2 1.5 9.9 6a17 17 0 0 1 1.6 5.1c.4 4.2-.5 7-3 9.6q-1.2 1-2.7 1.2c-2.2.1-3.5-.9-4.9-3.4q-.6-1.5-.7-3.3c-.1-2.7.5-4.2 2.2-5.4q.9-.6 1.9-.5.7 0 1.2.3m-2 5.3v-.2l.3-.6q.2-.3.5 0l.2.2v.5q.1.7.6 1l.1.2h.1l.6-.1q.3 0 .4-.3l.3-.7.1-.6-.2-1.6q-.7-2.2-2.3-2.3a3 3 0 0 0-1.5.4q-1.9 1.3-1.7 4.3 0 1.5.6 2.8c1.2 2.2 2.3 3 4.1 2.9q1.4-.3 2.3-1c2.3-2.4 3-4.8 2.7-8.5q-.4-2.7-1.5-4.7c-2.4-4.1-5-5.7-9.1-5.5q-2.9.4-5.2 1.9l-18.5 13.6c-6.2 4.4-10.8 5.4-15.2 3.6a10 10 0 0 1-4.5-4.4 10 10 0 0 1-.5-6l.3-.2.4.2v.3q.5 1.8 1.3 2 .5 0 .8-.3 1.2-1.5.2-3.8-1-1.5-2.2-1.8-1.5-.3-2.5 1.1c-1.6 2.6-1.6 5.2 0 9.4a13 13 0 0 0 11.7 7.7q6-.1 10-2.6h.1q1-.5 10.2-6.9 3.6-2.7 8.8-6c3-2 5.2-2.5 7.6-2.1q1.7.5 2.7 1.4a8 8 0 0 1 1.8 7v.1l-.5 1q-.7 1.1-1.7.8h-.1q-1.4-.4-1.5-2.2m.1 0"/><path fill="#f5ce00" d="M687.5 556.9c8-6.3 10-19.6 10-19.9 1.8-14-2-25-2-25.2-5.6-15.5-14.1-18.8-14.4-18.9.2.1 8.6 9 11.4 20.4 0 .1 1.8 9.6.8 19s-.7 7-2.4 14.3z"/><path d="m687.7 557.4-.5-.8 3.3-10.3.6-2.2q.9-3.8 1.4-8.6l.4-3.2q1-9.2-.8-18.8a42 42 0 0 0-11.2-20.2l.3-1q2.4 1 5.3 3.8a39 39 0 0 1 11.1 23q1.5 9.2.3 18-.5 3.6-2 8a26 26 0 0 1-8.2 12.3m.7-1.9q4.2-3.6 6.8-11 1.5-4.2 2-7.6a61 61 0 0 0-2-24.8 38 38 0 0 0-11.8-17.3l2.8 3.6a44 44 0 0 1 6.7 14.8q1.8 9.9.8 19.3l-.4 3.2q-.5 5-1.5 8.8l-.5 2.2zm40.3-105.2a7 7 0 0 1 4 1.2c2.6 2 3.8 4.9 3.8 9.8h-.9c0-4.5-1-7-3.3-8.8a6 6 0 0 0-3.6-1z"/><path fill="#f5ce00" d="M678.5 563.6c13.2-5.2 16.8-23.7 16.9-24a63 63 0 0 0-1.7-27.6c-6.4-19.7-16-20.4-16.3-20.5-5.2.1-5.7 5-5.8 5.5-.2 4.3 1.6 5.8 1.7 5.9 3.8 2.5 5.6-.3 5.8-.5a6 6 0 0 0 .3-5c-1-1.7-2.5-1.1-2.6-1.1-1.3.7-1.2 2.7-1.2 2.8h-.1c0-.2-.3-2.6 1.7-3 .3 0 3.7-.8 8.7 7.4 0 0 6 11 6.2 25 0 .4.7 25.8-19.2 31.7 0 0 2.1 4.4 6 20 0 0 4.4 20 8.4 30.9.2.5 5.3 14.9 17.8 9.9.3-.2 6.7-4 7.2-11.4 0-.5.4-5.9-3.8-7.2-.4 0-3.9-.5-4.3 4.4 0 .4-.1 4.9 4.6 4.4.1 0 1.4-.4 1.3-2.6 0-.2-.2-1.8-2.2-1.2v-.1s.7-.4 1.5 0c0 0 .7.3.8 1.8 0 .1 0 1.2-1 2 0 0-1 .4-2 .3a9 9 0 0 1-4 4.4 8 8 0 0 1-9.1-2.5c-2-2.6-3.5-6.5-4-7.6-.3-1-4-12.2-6.6-24.2 0 0-2.5-10.3-4.3-15.8z"/><path d="m679 564 .6 1.5q1.8 5.5 4.2 15.9a183 183 0 0 0 6.7 24l.2.6q2 4.7 3.6 6.9c2.8 2.8 5.2 3.5 8.7 2.4a7 7 0 0 0 3.6-3.6q-1.4-.5-2.2-2a7 7 0 0 1-.6-2.9c0-2.5.7-3.7 2.4-4.6q1.1-.4 2.3-.3 2.9.5 4 4.2.3 1.9.2 3.6 0 4.8-3.8 8.8a17 17 0 0 1-3.7 3c-5.5 2.3-9.6 1.5-13.8-3q-3-3.2-4.4-7.2a234 234 0 0 1-8.5-31 133 133 0 0 0-6-19.8l-.3-.7.6-.1c8.3-2.4 13.6-8 16.8-17.6q2.2-7.2 2-13.6a57 57 0 0 0-6-24.7q-2.9-4.9-5.8-6.5c.8 1.9.7 3.4-.4 5.4-1.8 2.5-3.5 2.7-6.2.7-1.7-1.5-2.3-3.3-2-6.6q.3-1.5 1-3.1 1.8-3 5.2-2.7 2.6.2 6 2.9 6.8 5.4 10.7 17.9 1 3.3 1.9 8.4 1.5 10.3-.2 19.5-1 4.9-3.5 10.4Q687 560.7 679 564m-.8-1c5.6-2 9.7-6.3 13.3-13.5a46 46 0 0 0 3.6-29q-.7-5-1.8-8.3c-2.6-8.2-6-13.7-10.3-17.4q-3.2-2.5-5.7-2.7-3-.3-4.5 2.3-.7 1.3-.9 2.7-.4 3.8 1.5 5.3 3.3 2.6 5.3-.4 1.2-2.2.3-4.3-.8-1.4-2.2-.9-1 .4-1 2.3v.1q0 .5-.4.5t-.4-.4v-.2l.1-1.6q.5-1.8 2-2 1-.2 2.7.6a18 18 0 0 1 6.3 7q1.5 3 3.2 7.4 3 9.2 3 18 .3 6.7-2 14c-3.3 9.8-8.6 15.5-16.8 18.1q2.1 4.9 5.7 19.4 4.4 20 8.4 30.8 1.4 3.8 4.1 7c4 4 8 4.8 13 2.6q1.9-1 3.6-2.8a12 12 0 0 0 3.5-8q0-1.5-.3-3.2-.8-2.9-3.2-3.4-1-.1-2 .3-1.7.8-1.8 3.5 0 1.2.5 2.3.9 2 3.6 1.5 1.2-.3 1-2l-.2-.5q-.5-.6-1.5-.2-.5.1-.6-.4v-.4q0-.3.3-.4a2 2 0 0 1 1.8 0q1 .5 1.1 2.4a3 3 0 0 1-.4 1.7l-.3.3-.4.4q-1.2.5-2 .5a8 8 0 0 1-4.2 4.3c-3.9 1.2-6.5.5-9.5-2.6a27 27 0 0 1-3.8-7.2l-.2-.6q-2.8-7-6.7-24.3-2.4-10.2-4.3-15.7l-.9-2.7z"/><path fill="#f5ce00" d="M716 615c-.2 0-2.3-.5-2.5 2.5 0 .3.1 4 4 3.6.4-.1 3.6-1 2.6-7-.1-.4-.9-3.8-4.6-3.8-.3 0-3.2.2-5.1 6.8 0 .1-1 5.3.8 10.4 2.6 5.5 8 9 10.9 10.8 0 0 11 6.3 14.5 9.6.3.3 4.6 4.8 2.8 10 0 .1-.8 1.6-2.2 1.8 0 0-1.3 0-1.7-2a3 3 0 0 0 1 1.7s1 .7 2.2-.5c0-.1 1-1.5.2-4-.1-.3-1.2-2.8-4.4-1.3-.2.1-2.5 1.7-1.6 5.7a5 5 0 0 0 4.2 3.7 6 6 0 0 0 4-2.4 15 15 0 0 0 .5-14s-2-3.5-6.2-6l-11.6-6.7c-3.3-2-6.1-4-8.2-7.2 0-.1-1.6-2.7-2.3-7.3 0-.3-.3-3.2 1-4.2.1 0 .8-.4 1.7-.2"/><path d="M713.8 620.1q.6 3.9 2 6.2 2.5 3.9 8.2 7l8.8 5.1 2.8 1.6a17 17 0 0 1 6.3 6.3q1.8 2.9 1.7 7.3c-.2 3.2-.8 5.4-2.1 7.4a6 6 0 0 1-4.3 2.6q-3.5-.1-4.7-4c-.8-3.2-.3-5 1.8-6.5 2.4-1.3 3.8-.9 5 1.4l.3 1.3c.2-2.6-.7-4.7-3.3-7.5q-3.3-3.3-14.4-9.5-8.4-5.1-11-11-2-5.1-1-11c1.4-4.7 2.9-6.7 5.6-7 2.8-.2 4.1.9 5 4 .6 3 .3 4.8-.9 6.4a4 4 0 0 1-2 1.4q-2.5.6-3.8-1.5m.4-5.4q.9-.4 1.8-.3.3 0 .4.3v.4q0 .5-.5.5h-1q-1 .5-1 1.9 0 .9.5 1.8 1 1.6 3 1.2h.1q.8-.2 1.6-1.1 1.3-1.8.6-5.2c-.7-2.6-1.8-3.5-4.2-3.3-2.3.3-3.6 2-4.7 6.3q-1.1 5.4.8 10 2.4 5.7 10.6 10.6a76 76 0 0 1 14.6 9.6q1.4 1.4 2.4 3.3c1.4 3 1.5 5.1.6 7.5q-1 2-2.6 2-1.7.1-2.1-2.4v-.5l.2-.2h.2q.4 0 .4.5.1 1 .7 1.3.9.6 1.8-.5t.1-3.3q-1.2-2.5-3.9-1c-1.5 1.2-2 2.6-1.3 5q1 3.3 3.8 3.3 2.3 0 3.8-2.2 1.7-2.5 1.8-6.6 0-4-1.4-6.6a16 16 0 0 0-6-6l-2.9-1.6-8.7-5q-5.9-3.3-8.4-7.4a19 19 0 0 1-2.4-7.5c-.3-2.8 0-4 1.3-4.8"/><path d="M715.7 615.5q-2.4-.6-4 3.4-1 2.8-1.2 4.3l-.8-.2q.3-1.7 1.2-4.6 1.9-4.8 5-4zm-6.4-8.9q.8.3 1.4 1.2c.8 1.4.9 3 .2 5.6q-1.2 4.4-4.3 7.2l-.3.2-.5-1 .3-.2q2.9-2.5 4-6.6.9-3 0-4.5-.4-.6-1-.8zm31.8-146.4q1.7-1.5 4.3-2.2c3.6-.7 6.4 0 9.5 2.7l-.4.9c-3-2.5-5.6-3.2-9-2.5q-2.4.7-4 2zm-38 55c.6-3.3-.4-7.6-3.2-13.7q-2.7-8.2-4.2-13.6l.5-.2q1.5 5.3 4.3 13.4a28 28 0 0 1 3.3 14.4zm2.7-32.7q2.4 8.1 3.2 11.7l1.9 6.3 1.7 5.8-.6.3-1.7-5.9-1.9-6.2q-.8-3.6-3.2-11.7zm1.1 38.3q2.5 4 2.3 10.3h-.6q.1-6.1-2.1-9.7zm-8.3-4.4c1.9 1.7 2.8 5.3 2.7 12.4 0 4.9 1 8 3.7 10.8l-.3.6c-2.9-2.8-4-6.3-4-11.5q0-6.1-1.2-9.5a5 5 0 0 0-1.2-2zm-.6 25.4q2.3-.2 4.5.4c3.2 1.2 4.6 3 5 6.3.2 4.6 1 6.7 2.8 7.5 3.2.7 4.8 2.5 5.6 6.6l-.6.2c-.7-3.7-2.1-5.3-5-6-2.2-.9-3.2-3.2-3.4-8.2-.4-3-1.6-4.5-4.5-5.6q-2.2-.6-4.3-.4zm3 8.3q1.5 3 3 4.5l-.4.7q-1.5-1.5-3-4.7zm11.1-7.2a32 32 0 0 1 2.7 7.4l-.6.2q-.6-2.6-2.6-7.1zm9.5-54.4q2 3.7 4 5.5l-.4.7a24 24 0 0 1-4-5.7zm8 22.3a8 8 0 0 1 2.2 3.4q2 5.3 1.5 14.6-.4 8.5 1.2 13.2l-.5.4a36 36 0 0 1-1.3-13.6 38 38 0 0 0-1.5-14.2q-.9-2.4-1.9-3z"/><path fill="#784421" d="m709.2 500.6.3 1.4c.4 0 7.2.6 11.9-6.4l-.5-1.3c-.3 0-6.3-.5-11.7 6.3"/><path d="m709 500.7-.1-.2.1-.2q3.3-4.4 7.9-5.9 2.4-.7 4-.6h.2l.6 2-.1.1a13 13 0 0 1-12.1 6.5h-.2zm.6 0 .2 1a13 13 0 0 0 11.2-6.1l-.3-1q-1.5 0-3.7.6-4.4 1.5-7.4 5.5m27.3 56.4q26.6-11 36.8-17.9l.2.8a230 230 0 0 1-36.9 18z"/><path fill="#784421" d="m733.8 489.3 13.2-6.9.3 1.2-13.2 6.9z"/><path d="m733.7 489 13.4-6.9.4 1.7-13.5 7-.4-1.6zm.3.5.2.7 12.8-6.7-.2-.7z"/><path d="m735.5 489.8 8.7 58.5-.6.2L735 490zm1.5-.7 10 58.1-.6.2-10-58.2zm1.7-1 11 57.8-.6.2-11-57.7zm4.3-2.2 15 43.1-.6.4-15-43.2zm2-1 15.9 42.8-.6.3-15.9-42.8zm1.4-.9 17.2 42.4-.5.4-17.2-42.4z"/><path d="m743.3 548.5 6.7-3.1.2.8-6.7 3zm-5.1-5.8q19.7-8 34.7-16.9l.2.8a248 248 0 0 1-34.8 17zm-.3 3c16.7-6 28.3-11.8 35-16.5l.3.8a159 159 0 0 1-35.1 16.5zm8 28 1.2 5.2 3-1.4-1-5 .5-.3 1.3 5.8-4.2 2-1.4-6zm10.2-4 1.2 5 3-1.4-1.1-5 .5-.2 1.4 5.8-4.2 1.9-1.4-5.8zm-17.7-32.1-.3-7.7q16.4-6.9 33.4-14.6l1.9 6.5-.6.4-1.7-5.9a967 967 0 0 1-32.4 14.2l.3 7z"/><path d="m752.7 524.1 1.8 6.5-.6.3-1.8-6.5zm11.5-5 2 6-.5.4-2.1-6.1zm2.7-1.3 2 5.8-.6.4-2-5.8zm2.6-1.2 2 6-.5.4-2-6zm1.7-1.1 3.9-3.2 1.7 5.8-.6.3-1.4-5-3.3 2.8z"/><path d="m773.4 514.2 1.8 5.6-.5.3-1.9-5.6z"/><path fill="#00247d" d="M691.2 599.7q-1.5-2.5-2.5-6c-1-4.6-.3-8.2 2.2-12q-1.5-1.2-3-3.1c-2.2-3.3-3-6.2-2.6-9.6l.8.3a12 12 0 0 0 2.4 8.5q1.4 2 3.2 3.4l.5.3-.4.6q-3.7 5-2.3 11.3.8 3.3 2.3 5.5zm11.9 7.8q-1.9.1-3.4-2c-1.7-2.5-2.3-6.3-2-12.4L695 601c-.8 3.8-.1 6.3 2.4 8.9q1.4 1.2 4 1.3 3.3 0 4.5-3l.7.4q-1.3 3.7-5.2 3.7-2.9-.1-4.4-1.5a10 10 0 0 1-2.8-5q-.5-2.9 0-5.3A110 110 0 0 1 698 590l1.1-2.8-.4 3.2c-.7 7.3-.2 11.8 1.5 14.5q1.3 1.7 2.8 1.6zm-7.2-27.6c-1.6 2.2-1.9 4.8-.7 9l-.8.4c-1.3-4.7-1-7.7.9-10.3zm2.9.5q.4 5.9 2.4 9.3l-.6.7a22 22 0 0 1-2.6-10zm1.9-2.3a18 18 0 0 0 3.6 11.3l-.5.8a19 19 0 0 1-4-12.1zm1.9-2.4q0 7.8 4.2 12.7l-.5.9q-4.4-5.4-4.5-13.6zm20.9 12.2c1.7-4.7 3.8-6.5 7.2-6.5l1.7.2-1.5.9c-1.4 1-2 2-2 4q-.2 4.5 3.4 5 2.9.5 4.5-1.6l.6.7c-1.4 1.8-2.8 2.4-5.2 2q-2.8-.4-3.7-3.3-.4-1.5-.4-2.9 0-2.3 1.1-3.8c-2.2.7-3.7 2.3-5 5.8z"/><path fill="#00247d" d="M734.7 618.9q-3-2-5.7-5.1a18 18 0 0 1-4.8-13.5c.5-4.7 2-7.6 5.3-9.9l.3 1c-3 2.1-4.4 4.8-4.8 9-.4 4.4 1 8.2 4.5 12.5q2.8 3.1 5.5 5z"/><path fill="#00247d" d="M727.7 597.8a9 9 0 0 0 1.1 7.2l-.6.7q-2.4-3.4-1.3-8.3zm2.5-3c-.8 3.2-.5 5.6.9 8.1l-.7.7a12 12 0 0 1-1-9.3zm2.8-2.4c-1 2.7-1 4.8.3 7.3l-.7.6a10 10 0 0 1-.4-8.5zm-10.6 26.5c4.3 5 7.6 7.2 10.9 7.5v1c-3.5-.2-7-2.5-11.4-7.7zm-2 2.3q5.9 6.3 9.4 7.4l-.2 1.1q-3.6-1-9.7-7.7zm-2.2 1.8c5 5.9 8.5 8.7 11.5 9.3v1.2q-4.7-.9-12-9.7zm29.3 18.4q-1.6 1.3-2.7 3.2-.8 1.5-.7 3 .2 1.9 1.9 3.6l-.5 1a7 7 0 0 1-2.2-4.5q0-1.9.9-3.8 1.1-2 3-3.5zm-4.8-6.7q8-5.9 11.5-8.1l.4 1-11.6 8zm2.8 3q11.7-9.9 15.2-12.1l.3 1q-3.4 2.2-15 12zm6 .5q9.9-9.2 15.3-13.4l.4 1q-5.3 4.1-15.3 13.3zm6.5-.4q6.9-7.5 13.6-13.2l.4 1q-6.6 5.5-13.5 13zm15.8-21.7q-.8-1.4-2.8-2.1c-3.1-.9-6.4 0-11.1 2.8l-2.3 1.5 1.8-2.4q4.2-5 12.2-9.4l.3 1q-6 3.3-9.7 6.8c3.7-1.7 6.3-2.2 9-1.4q2.4.8 3.2 2.6zm9.5-38.7q.8 5.6 0 9l-.8-.3q.8-3.1 0-8.4z"/><path fill="#00247d" d="M764.7 604.5q2.4-4.8 8.3-7.4l.4-.2.1.5c1.2 3.3 2.7 4.3 5.7 3.5q1.5-.5 3-2.2c1.7-2.5 2.2-5.3 1.4-9.5q-.3-1.6-1.6-3.6a9 9 0 0 0-7.2-3.9v-1a10 10 0 0 1 7.9 4.2q1.3 2 1.7 4c.9 4.6.3 7.8-1.7 10.6q-1.5 1.8-3.4 2.5-3 1-5-1.5a8 8 0 0 1-1.4-2.2q-5.4 2.6-7.6 6.8zm33.4-38.3q2 .4 4.1 1.8c2.8 2.2 4 4.8 4 8.8a24 24 0 0 1-.9 7.3c-1.7 5.3-4.4 8.4-9 10l-.1-1c4.2-1.6 6.7-4.4 8.3-9.3q1-3.7 1-6.9 0-5.2-3.7-7.9a10 10 0 0 0-3.8-1.7z"/><path fill="#00247d" d="M804.4 571.4c1.6-4.7 3.9-7.8 7.3-10.2l.3 1a18 18 0 0 0-6.9 9.6z"/><path fill="#00247d" d="M806.2 558.2q2.2 4.3 3.5 4.9l-.3 1q-1.5-.5-3.8-5.2zm-1.1 3.9q2 3.1 2.6 3.6l-.4 1a21 21 0 0 1-2.9-3.8zm-.7 3.4a7 7 0 0 0 2 2.5l-.5 1a8 8 0 0 1-2.2-2.8zm-41.6-48.8c1.4-2.6 3-3.2 5.9-2.4l-.2 1c-2.5-.6-3.9-.1-5 2zm21 25q.7-3.7 2.4-6.8c2.7-4.2 5.2-5 9.2-3.3l-.3 1c-3.6-1.5-5.9-.7-8.2 3q-1.5 3-2.2 6.2z"/><path fill="#00247d" d="M791.4 531.2c.5-4.3 0-7-1.2-9l.6-.9c1.5 2.4 2 5.4 1.4 10zm-5-.2a7 7 0 0 1 0 5.3l-.6-.5q.7-2-.2-4.2z"/><path fill="#64b4d1" d="M803.3 671.7c.3-.2 9-6.6 6.6-16.7 0-.3-.9-3-3-2.9-.3.1-3.3.6-3 7.3 0 .1 1 6.3-.6 12.3"/><path fill="#00247d" d="m803.4 672.1-.4-.5q1.6-5.7.6-12v-.1q-.5-4.4 1.3-6.5.9-1.1 2-1.3 2.3-.5 3.3 3.1c1.1 4.5.5 8.2-2.3 12.5q-2.1 3-4.5 4.8m.4-1.3q2-1.5 3.7-4c2.5-4 3.2-7.5 2.1-11.6q-.8-3-2.7-2.6-.8 0-1.6 1-1.5 1.8-1 5.7.8 6-.5 11.5"/><path fill="#fff" d="M806.7 665.4c.1-.1 2-2.9 1.8-7.9 0 0 0-1 .3-1.2 0 0 .4-.3.5 1 0 .2.4 4.7-2 8.3l-.5.2q-.1.1 0-.4"/><path fill="#64b4d1" d="M816.9 661.2c.2-.3 6.3-6.3 3-15.8 0-.2-1-2.4-3-1.9-.3.2-3.8 2-1 9.8.1.2 1.5 4.8 1 7.9"/><path fill="#00247d" d="m817 661.5-.4-.4q.6-2.8-1-7.6c-1.3-3.4-1.5-5.8-.7-8.1q.7-1.6 1.9-2.3 2.2-.9 3.4 2a15 15 0 0 1-3.2 16.4m.4-1.4q1.2-1.4 2.1-3.6c1.5-3.7 1.6-7 .2-11q-1-2.2-2.8-1.6-.8.6-1.5 1.9c-.7 2-.5 4.1.8 7.3a19 19 0 0 1 1.2 7"/><path fill="#fff" d="M818.6 647.8s-.4-.5-.2-.9c0 0 .2-.3.6.4.1.2 1.8 2.7.4 7.8 0 0-.1.6-.5.5q-.2.1 0-.7c0-.3 1.2-3.9-.4-7"/><path fill="#64b4d1" d="M796.8 669.8c-.4-.1-7-2-6.1-12.7 0-.4.7-4.2 3.9-4.3.3.1 3.4.9 1.3 8 0 .2-1.2 4.6.9 9"/><path fill="#00247d" d="M796.7 670.2a8 8 0 0 1-3.7-2.4c-2.3-2.8-3.1-6-2.6-10.8.6-3.5 1.8-4.7 4.2-4.6q1.1.3 1.8 1.5c.9 1.8.8 3.8-.2 7s-.6 5.8.8 8.6zm-.7-1.1a12 12 0 0 1-.4-8.5q1.4-4.2.3-6.2-.5-.9-1.4-1.2c-2 0-3 1-3.5 4-.5 4.4.3 7.3 2.4 10q1.3 1.2 2.6 1.9"/><path fill="#fff" d="M793.9 657.4s-.3-.5 0-.7c0 0 .3-.3.6.3 0 .1.7 1.6.1 4 0 0-.5 1.6-.3 3.3 0 0 0 .5-.3.6l-.3-.4c0-.1-.3-1.6.3-3.3 0-.2.6-2.4-.1-3.8"/><path d="M802.2 649.3a6 6 0 0 1 7.7-.2c0-.2-.4-1.9-3-2.8-.2-.4-1.4-4.8-5.5-4.5 0 0 1.7 2.5 3.8 4.6a5 5 0 0 0-3 2.9m3-15.6a29 29 0 0 1 4.1 4.5s1.2-2 2.7-3.5c0 0-1.6 0-2.7 1 0 0-1.4-1.6-4-2m-17 14q-.4-1.6.4-3.4.4-1 .3-2.1l.8-.3a6 6 0 0 1-.4 3q-.6 1.3-.4 2.5zm31.1-93.8c2.9-.8 4.2-2.3 4.9-5.3h.8c-.8 3.7-2.3 5.5-5.6 6.4zm13-9q-1.2.2-2.5 2.1-1.3 2.6-3 2.6v-1.2q1.4 0 2.3-2 1.6-2.3 3.3-2.5zm-19.6-7.7a6 6 0 0 0 3.6-2c.2 0 1.2-1.2 2.2.6 0 .2 1 2.5-1 4.3-.2.1-2.6 2 1.6 5.6-.4-.2-4.8-1.8-3.2-5.8.2-.2 2-2.3 1.5-3.3 0 0-.2-.6-1.2.3-1 1-2.6.8-3.5.3"/><path fill="#64b4d1" d="M816 460c0-.1 1-2 .6-8 0-5.9 3-6.7 4.7-5.4.2.1 1.4 1.5.2 5.5a18 18 0 0 1-5.5 7.9"/><path fill="#00247d" d="M815.8 459.8q.8-2 .5-7.7-.2-4.1 1.8-5.9 2-1.5 3.4.1c1.1 1.3 1.2 3 .2 6q-1.8 5-5.6 8zm.9-.9q3-2.7 4.5-7 1.2-3.6 0-5c-1-.7-1.6-.7-2.8 0q-1.7 1.5-1.5 5 .3 4.7-.2 7"/><path fill="#fff" d="M817.4 455.4s1.2-2.1.7-6.6l.2-.5q.1-.2.4.3c0 .2.6 4.4-.8 7.4 0 0-.3.4-.5.1z"/><path fill="#64b4d1" d="M814.8 458c0-.1-.2-2.2-3.1-6-2.7-4.2-.7-7.3 1.3-8 .1 0 1.7 0 2.6 3.8a21 21 0 0 1-.8 10.2"/><path fill="#00247d" d="M814.5 458q-.2-2.2-3-5.8a6 6 0 0 1-1.2-5.7q.8-2.6 2.7-2.8c1.5 0 2.3 1 2.9 4q.8 5-.8 10.4zm.4-1.4q1-4.4.4-8.7-.6-3.5-2.3-3.4-1.4.2-2.2 2.3c-.4 1.8-.1 3.1 1.1 4.8q2.3 3 3 5"/><path fill="#fff" d="M814.3 452.9c0-.2 0-2.7-2.6-5.6l-.1-.6s.2-.4.5-.1c0 .1 2.6 2.8 3 6.3 0 0 0 .5-.4.5q-.1.1-.4-.5"/><path fill="#64b4d1" d="M810.7 456.6s-.7-1.6-4.4-3.2c-3.6-2-2.8-5.6-1.2-7 .1-.1 1.5-1 3.4 1.6 1 1.7 2 3.9 2.2 8.6"/><path fill="#00247d" d="M810.5 456.9q-.8-1.7-4.3-3.1-2.7-1.1-2.8-4 0-2.7 1.6-3.8 1.8-1.3 3.7 1.7a19 19 0 0 1 2.4 8.9zm-.1-1.5q-.4-4-2.2-7.1-1.6-2.5-3-1.6-1.2.9-1.2 3 0 2.4 2.4 3.3a11 11 0 0 1 4 2.4"/><path fill="#fff" d="M809.1 453.3c0-.2-.8-2.4-4.2-3.4l-.3-.4s.1-.5.4-.4c.2 0 3.3.8 4.8 3.8 0 0 .1.5-.2.6q-.1.2-.5-.2"/><path fill="#64b4d1" d="M813 458.3s-1.6.8-5.6-1.3c-4.2-1.8-5.5 2-5 4.8 0 .2.6 2.2 3.8 1.7 1.8-.5 4-1.3 6.9-5.2"/><path fill="#00247d" d="m813 458 .3.6a13 13 0 0 1-7.1 5.3q-3.2.9-4.1-2-.7-2.3.8-4.5c1.3-1.6 2.5-1.8 4.6-.8q3.9 2 5.5 1.3m-.8 1q-1.8 0-5-1.5-2.4-1.5-3.9.5-1.2 1.9-.6 3.7.7 2.2 3.4 1.5 3.4-.9 6-4.1"/><path fill="#fff" d="M803.9 461s1.6 1.2 5-.7h.4q.1.3-.2.7c-.2.2-3.2 2-5.7.8 0 0-.3-.3 0-.6 0 0 0-.4.4-.2"/><path d="M807.4 441.3c1.6 1 2 2.4 1.8 5l-.8-.2q.3-2.8-1.3-3.7zm9-.2q.8 3.5-.1 5.6l-.7-.5a8 8 0 0 0 0-4.6z"/><path fill="#64b4d1" d="M679.6 462s-1-1.9-.6-7.8c0-6-3-6.6-4.7-5.2-.1.1-1.4 1.6-.2 5.5.9 2.3 2.1 4.9 5.5 7.6"/><path fill="#00247d" d="m679.9 461.9-.4.6a17 17 0 0 1-5.6-7.8c-1-3-1-4.6.2-6q1.4-1.5 3.4-.2c1.4 1.2 2 2.8 1.8 5.8a18 18 0 0 0 .6 7.6m-1-.8q-.5-2.4-.2-7 .2-3.6-1.5-4.9-1.5-1.1-2.8.2t0 5q1.5 4.1 4.5 6.7"/><path fill="#fff" d="M678.2 457.6c0-.1-1.2-2-.7-6.6l-.2-.4s-.3-.2-.4.3c0 .1-.5 4.4.8 7.4 0 0 .3.3.5 0q.2 0 0-.7"/><path fill="#64b4d1" d="M680.8 460s.2-2.2 3.1-6.2c2.7-4.2.7-7.3-1.3-7.7-.1 0-1.7-.1-2.6 3.8a21 21 0 0 0 .8 10.1"/><path fill="#00247d" d="m681.1 460-.6.2a23 23 0 0 1-.8-10.4c.6-3 1.4-4 2.9-4.2q1.8.2 2.7 2.8 1 3-1.2 5.8-2.8 3.6-3 5.9m-.4-1.4q.7-2.2 3-5.2c1.2-1.7 1.5-3 1-4.8q-.5-2-2.1-2.2-1.6-.1-2.3 3.5-.6 4.2.4 8.7"/><path fill="#fff" d="M681.3 455c0-.2 0-2.8 2.6-5.8l.1-.6s-.2-.3-.5 0c0 0-2.6 2.8-3 6.4 0 0 0 .5.4.4q.1.1.4-.5"/><path fill="#64b4d1" d="M684.9 458.5s.8-1.7 4.4-3.4c3.6-2 2.8-5.7 1.2-7.1-.1 0-1.5-1-3.4 1.8-1 1.7-2 4-2.2 8.7"/><path fill="#00247d" d="m685.1 458.7-.5-.2q0-5.2 2.3-9 2-3 3.7-1.9 1.5 1.1 1.6 3.7 0 3-2.8 4.2-3.5 1.4-4.3 3.2m.1-1.4q1.3-1.4 4-2.6 2.3-1 2.4-3.4 0-2.1-1.2-3-1.4-.8-3 1.8a17 17 0 0 0-2.2 7.2"/><path fill="#fff" d="M686.5 455s.8-2.3 4.2-3.5l.3-.4s0-.5-.4-.4c-.2 0-3.3 1-4.8 4 0 0-.1.5.2.6q.1.2.5-.2"/><path fill="#64b4d1" d="M682.6 460.3s1.5.7 5.6-1.6c4.2-2 5.5 1.9 5 4.6 0 .2-.6 2.3-3.8 1.9-1.8-.4-4-1.1-6.9-4.9"/><path fill="#00247d" d="M682.6 459.9q1.6.7 5.5-1.6 2.8-1.7 4.6.6 1.5 2.2.8 4.6-.9 2.8-4 2.1-4-1-7.2-5zm.9 1q2.7 3.1 6 3.9 2.8.5 3.4-1.6.6-2-.6-3.7-1.5-2-4-.4a11 11 0 0 1-4.8 1.8"/><path fill="#fff" d="M691.8 462.6c-.2 0-1.7 1.2-5.1-.5q-.1-.1-.4.1-.1.1.2.6c.2.1 3.2 1.8 5.7.6 0 0 .3-.3 0-.7 0 0 0-.3-.4-.1"/><path d="M688.5 444q-1.6 1.2-1.3 3.9l-.8.1q-.5-3.6 1.8-5zm-8.5-.4q-.7 3.1 0 4.7l-.7.6a9 9 0 0 1 0-5.6zm85.4-29.2s1.1 4.8.7 9.3c-.4 4 .2 4.9 1.3 5.7 1 .5 2.8-.5 3.2-3.8.1.4 2.2 6.1-2.3 11.2-.3.2-3.1 2.8-6.4-.7-1-1.6-1.5-5-1-8.7 0 0 .6-4.7-.5-9.6 0 .1 1.7 2.7 1.4 8.6 0 .6-1 9.5 4.6 9.6.3 0 3.5-.2 4-6.6-.1.2-1.3 2-3.2 1.6q-2.3-.8-2.3-4.7c.3-2.8.7-7.7.5-12m-6.3 17.2c0 .4-.4 7.6-5.8 10.3 0-.1.7-1.4-.4-5.5 0-.1-1.1-2.3-1.1-6-.1 0-1.6 1.7.2 6.7 1 3.2.2 6.2-.2 6.6 0 0 8.4-1.7 7.3-12m-7-8c-.1-.1-1.3-2-1.5-6.7s-.7-5.8-1.2-6.4c0 0 .6 4 .5 6.5-.1 2.6.1 4 .4 5.2-.3 0-2.7.6-4.9-5.3-2-5.6-3.4-5.2-4.5-5.1.1 0 1 .2 3.2 5.3 2.1 5.2 2.6 6.1 8 6.5m-14-12.2s1.6 5.6 1.8 8.6c-.2-.1-3.6-1.8-5-6.6-.4.2-3.9 1.8-2.8 8.7-.2 0-3.4-1.8-5.3-6 0 .1 2 2.1 4 3.2 0-.4-.2-5 4.7-7.4 0 .3.8 4.4 3.2 6zm6.6-9.6c0 .1 1.3 2.4 4.2 2.8 1.4 0 2.6-.4 4.2-3 0 .4-.2 4.4-4.2 5-.4 0-3.8.2-4.2-4.8m-17.4 32.5 2.5 3.5c.1.1 1.3 1.8 2.7-.5.2-.3 1.6-3.7 3.6-4 0 0-1.3 1.4-3 5.2 0 0-.4 1.3-1.5 1.6-.6 0-1.2.2-2.3-1.3q-.2 0-2-4.5m21.6-51.7c-4 .5-1 4.1-.7 4.4-.2 7.2-3.7 9-6.8 7.3-2.6-2.5-.8-6.8-.7-7.2-.2.2-2.8 2.6-1.1 7 2.5 4 6.9 2.3 9.3-1.6 2.3 3.8 6.7 5.4 9.2 1.3 1.7-4.4-.9-6.7-1.1-6.9.1.4 1.9 4.6-.6 7.2-3.1 1.9-6.6.1-6.9-7 .2-.4 3.4-4-.6-4.5m2.5-7.6s1.3 3.3 1.2 8.6c0-.3 1-5-1.2-8.6m-12.9 8.1c0-.3-.3-3.3-3-4 0 0 2.2 2.2 3 4m20.7-.2c0-.3.4-3.4 3-4.2 0 0-2.1 2.3-3 4.2m-24.9 5.9c.2 0 1.9.8 3.4-1.2zm-6.9-23c.2 0 2.3-.3 5 4.7 0 0-2.4 1.8-3 2.8 0 0 0-1.5 1.1-3 0-.2-.5-2.4-3-4.5m41.1-.5c-.1 0-2.2-.2-4.9 4.8 0 0 2.3 1.7 3 2.7 0 0 0-1.5-1.1-3 0-.1.5-2.4 3-4.5m-19 4.3c.2 0 2 .6 5-1.4.3-.2 3.1-2.2 5.6-.1-.2-.1-1.8-1-5.5 1.4-.3.2-3.3 2.5-5 0"/><path fill="#fff" d="M752 372.6c.1-.4 1.7-4.1 7.6-3.8-.1.4-1.4 5.7-7.6 3.8"/><path fill="#784421" d="M757 371q0 1.9-1 2-1.2 0-1.2-1.9.1-1.8 1.1-2 1 .1 1.1 2"/><path d="M756.6 371q0 1.2-.7 1.3-.6 0-.7-1.2t.7-1.2.7 1.2m-17-8c.2 0 3.5.4 5.9 2.1.2.2 2 1.7 5-.8 0 0 2.8-2.4 4.7-5.6 0 0-4.4 4.1-6 5-.1-.1-1.5-1.6-2.2-3.9 0 0 .3-1.6 2.6-5-.1.2-2.9 1.4-3.8 5.2 0 0 .6 2.2 1.8 4 0 0-.5.4-2.1-.9-.2 0-3.2-1.3-5.9-.2m9.3 29.8c-3 3.8-.2 3.3 0 3.3.1 0 2.9.4 0-3.3m-1.9-23.2c-.1 0-2 .7-5-1.2-.2-.2-3-2.2-5.5 0 .1-.1 1.7-1 5.5 1.2.3.2 3.3 2.4 5 0"/><path fill="#fff" d="M744.7 372.7c-.1-.4-1.7-4-7.6-3.7.1.5 1.4 5.7 7.6 3.6"/><path fill="#784421" d="M742 371.3q-.2 1.7-1.2 2-1-.3-1.2-2 0-1.9 1.2-2 1 .1 1.1 2"/><path d="M741.5 371.3q0 1-.7 1.2-.6 0-.7-1.2t.7-1.2q.6 0 .7 1.2"/><path d="M860.9 605.4c-.2 32.2-18.7 63.3-56.3 88.3a194 194 0 0 1-55.8 24.9h-.3q-7-1.5-17.5-5a197 197 0 0 1-38.4-18.2c-37.6-23.4-56-52.4-56.2-84.6v-286c74 7.7 148.2 9.7 224.5-5.3zm-2-282.8c-72.8 14-145.5 12.8-220.5 5.1V611c.1 31 18.2 59 55 82a195 195 0 0 0 55.2 23q6.9-1.8 17.2-5.5a193 193 0 0 0 38-19.2c36.9-24.4 55-54.5 55-85.5z"/><path fill="#1a1a1a" d="M8 195.3c170.8-85.3 341-54.5 513.3-28C676.5 191 833.4 211.8 992 132.7v672c-170.8 85.3-341 54.5-513.3 28C323.5 809 166.6 788.1 8 867.2zm31.3 19.3v604.5c306.5-128.2 611.1 96 921.5-33.7V180.9C654.2 309 349.5 84.9 39.3 214.6" opacity=".2"/></svg>