<svg xmlns="http://www.w3.org/2000/svg" viewBox="0 0 1000 1000"><path fill="#f7e017" d="M8 195c171-85 341-54 513-28 155 24 312 45 471-34v672c-171 85-341 54-513 28-155-24-312-45-471 34z"/><path fill="#fff" d="M8 242v299c171-61 341-6 513 45 155 46 312 89 471 32V459c-171 37-341-42-514-118-155-68-312-133-470-99"/><path d="M8 401v140c171-37 341 42 514 118 155 68 312 133 470 99V618c-171 37-341-43-514-118-155-68-312-133-470-99"/><path fill="#cf1126" d="M483 693a84 84 0 0 1-37-24v3q0 10-6 10-8 1-16-10-9-10-17-15-8-3-14-1l-5 2-2 1v-8q2-4 6-6l3-2-1-3q-3-9 2-13 7-4 15 0l3 2-2-5q-2-6-2-13 1-10 9-11 5-1 12 11 26 37 59 47c6 2 17 3 24 3q31-2 56-30 5-7 10-5 4 0 7 5 3 6 3 11l-2 8q-4 5 2 3 9-2 15 4 4 6 1 14l-2 4 4 1q6 3 7 13l-1 3-3-2q-6-4-13-5h-9q-7 3-13 9-6 7-12 6-5-1-8-6v-11l-4 2q-5 5-12 8c-16 6-39 6-57 0m8-40c-27-8-52-30-67-62-17-34-22-75-17-112q4-27 17-44-11 32-6 69c7 47 35 90 70 103 13 7 27 4 40 0 29-10 51-44 53-85q4-34-7-67c4 4 9 16 13 25 10 30 11 65 5 95-9 38-31 69-60 77q-20 6-41 1m-133-70q-4 1-3 4 2 4 5 6a33 33 0 0 0 16 5q6 1 12-2 3 0 5-4 1-3-2-4l-6 2h-14l-10-5zm2-9q-3 0-3 4l6 6 12 4h1q4 1 9-2 3 0 5-4 2-2-1-4l-4 1q-6 3-14 2l-8-5zm2-9q-2-1-2 3l2 4q6 6 13 7h1l8-2q4-1 4-4v-4h-3q-5 3-11 3l-9-5zm-25-140q-2 6-1 13 2 19 6 37c5 11 13 18 18 29q3 7 2 16v43q8 6 15 7 7 0 10-5v-75q-5-10-12-17l-10-16c-2-5-8-7-6 1q4 8 6 18c1 3 3 10 1 12l-7-10c-4-4-8-5-9-11q-2-12-8-21 2-11-4-21zm7 2q-3 2-1 6l1 12q5 11 7 21l3 6 10 10q1 2 1 0l-2-7q-3-5-7-7a44 44 0 0 0-8-20l-2-18zm5 3v4l1 13 5 11 2 9 6 5-3-8-3-8q-3-5-2-12 0-7-3-12zm7 2-2 2 1 2 1 10 1 7 3-3q1 1 0 0l-1-13zm286 190q4 0 3 5l-5 4q-7 3-15 2h-1q-6-1-12-5-3-1-5-5-1-3 2-4l6 4q7 3 14 3 5 0 10-3zm-2-10q3 1 3 5l-6 5q-6 2-12 1h-1q-5 0-9-4-3-1-5-5-2-3 1-4l4 2q6 5 14 5l8-3zm-2-9 2 4-2 3q-6 4-13 4h-1l-8-4q-3-2-4-5v-4l3 1q5 5 11 5l9-3zm25-135q2 5 1 13-2 18-6 35c-5 11-13 17-18 26q-2 7-2 16v43q-8 5-15 3-7-1-10-7v-74q5-10 12-15l10-14c2-4 8-5 6 2q-4 8-6 17-3 7-1 12 3-6 7-9 7-2 10-8 1-12 7-20-2-13 4-20zm-7 1q3 2 1 6l-1 12q-5 9-7 20l-3 4-10 8q-1 2-1 0l2-7 7-5q0-6 3-10 2-6 5-9 0-9 2-17zm-5 1v5l-1 12-5 10-2 8-6 5 3-7 3-8q3-5 2-11 0-8 4-12zm-7 1 2 2-1 3-1 9-1 7-3-3v-1q-1-7 2-13zM497 608q-14-5-20-26 1-1 3 2t5 3l6 8c2 1 5 4 4 0v-6l5-10 3 5q4 5 3 11-2 4 1 4l7-6 7-2q1-3 3-1l-5 10q-6 8-13 9zm11-13-1-8-6-12c-2-1-3 3-4 4q-3 6-4 13c-2 2-3-2-5-4l-2-12 2-19q4-7 3-15 1-7-3-12c-2-4 2-3 3-2l6 5 2-7c2-3 3 1 4 4q0 4 2 6 3-4 6-5t2 2q-3 3-4 9-1 8 1 15 7 14 4 29-1 6-5 9zm-3-67-4-7q-3 1-4 4-1 5-4 2-4-5-3-13 1-10 4-19v-13l-6-13 4 1 5 6 1-5q1-5 4-2l1 8 4-4h6l-3 6q-5 6-2 16l3 14-1 16q0 5-4 6zm-11-60q-3-4-3-9l2-5q2-4-1-4-5 2-6-4l2-6 2-4-6 6-8 9q-10 8-16-1-2-3 1-5l3-3 11-9q3-1 1-3-4 1-13 10l-5 4h-10l-4-6 2-2 3-2q7-7 17-9 3-1-1-2-8 1-17 9-11 7-17-4l-1-3 4-1 10-4c7-3 8-4 13-4q3-2 0-2-3-2-13 3c-8 5-10 5-15 5q-5-1-10-8l-4-11 2 1 9 2h10q9-3 16-9 13-11 25-9 12 1 19 12l3 4 1-9 3 1 1 8 1-1q2-4 6-7 12-5 26 4l11 10q8 9 17 14a36 36 0 0 0 20 3q2 3-4 11-8 9-23-4-12-9-15-7l1 1q4 1 13 8 10 8 12 8 3 0 1 4-3 4-8 4-5-1-9-6c-6-7-19-16-19-12l3 2q7 2 15 12l4 5 1 2q-3 4-7 4t-10-6q-11-14-15-16-3 0 2 4l11 12 3 4q3 3 0 5-1 3-6 2-8-2-18-18l-6-8 2 5q3 5 2 9t-5 1q-4-1-1 3 3 8-1 14l-3 1-1-2q-4-7-6-1l-2 3zm11-86-4 3-3-3v26l7 1zm-22-30q-1 17-6 29l7-8 6 9 5-8 6 9 6-7 6 10 5-7 8 10q-6-14-7-32c-8 7-27 6-36-5m15-4h-9l-6 2c1 8 28 15 36 5l-6-4-8-2v7l-7-1zm5-40h-4v46h4zm0 1-1 22 16 14-8-17 11-3zm-2-6q-3 0-4 3l4 3q5 0 5-2 0-3-5-4"/><path fill="#f7e017" d="M494 689q4 0 5-7l1-5h-3v4q1 7-8 6l-5-1q-4-2-3 1l2 1c2 1 9 2 11 1m15 2 3-2q3 0 3-2 3-6-1-14-2-5-4 0-2 4 1 4l2 2q3 7-1 7-4-1-4 2l-1 3zm-5-6 1-11-1-9-2 2v3l1 10q-1 12 1 5m-12-6 1-7 1-6q0-5-2-2l-1 1v4l-1 15h1zm-10 1 3-11v-8q-3 1-2 6 1 6-2 10-3 3-4-2c1-4-3-3-4-2q-4 2-3-2-2-3-6-2 0-3-2-4-8-1-14-6-3-4-1-8l4-10c2-3-2-2-3-1-2 2 0 6-2 8q-1 5-5 5-5-3-8-10-2 2 0 6 3 4 8 6l5 6q6 4 13 6l3 4q3 0 5 2c-2 3 2 3 3 3q3-1 5 3 3 4 6 2zm-41-34 3-6 2-5q2-2-1-2-2 0-2 2l-3 9-1 4zm-25-26q-3 0 0 3l2 3q2 6 8 8h3v6l3-2q4-2 4-6t-3-4l-3 1q-6 5-9-3zm16 12q2 0 1 2h-2zm130 13-2 2q-3 6-1 10 1 3 3 1t2 1q-1 8-8 15l-3 2q0 2 4 0l8-10 1-9-1-9q1-2-2-3zm0 4 1 2v3h-2q-1-5 1-5m-21 37q7-3 8-9l2-4-3-3q-3 0-1-4l-1-7-2 1v4q1 4-2 7l-1 2v2l2-1 2-2 1 2 2 2q-3 7-12 8-3 1-4-2l-1-3 1-3q0-4-2 0-3 5-1 8 2 2 7 3zm27-17q4-4 4-13v-5l2-1q5-3 5-6t-2 0l-6 4-1 7q0 9-4 13-3 4-1 4zm-27-8-2-1v2zm38-7-2-2v2zm-46-43-2 3v1q3 4 3 10 2 6 1 12l-2 2-6-2-5 1-3-3v6h1l4 1 1 5h4l2-4q1-2 3-2 4 0 4-7l-3-16zm-6 29 2 4q-2 3-3-1-2-2 1-3m-52-25-2 1q-5 5-2 8t-1 5q-5 3-15-4-2-2-1 1 0 4 5 5 6 3 11 1l4-4 2-3 3 1q4 1 3 3t3 3l5 1 3 1q-1 3 5 2l8 1 4 2q7-1 9-6l3-1q5 0 0-2l-5-3-3-1q-4 0-4 2l3 1q2 0 3 2l1 2-6 3-3-1q-3-3-5-1l-1-1-1-2-3 1h-3l-4-2-5-1-1-3v-2h-2q-6 2-5-5 0-4-3-4m-1 4h1v2h-2zm-7 3c3-2 3-2 3-8l-1-4-1 5-2 4q-4 2-7-3l1-4q3-6-1-3-2 3-2 0 0-2-2-2l-1 2-1 2q-3 0-4-3l7-10 3-4-2-1-1 1-5 7c-5 7-5 8-3 11q4 3 7 1l1-2v3q1 5 3 7 4 3 8 1m107-33v7q-2 3-5 4-4 1-6 6-1 5-4 2-2-4-5-2l-2 6-3-5q-2 2 0 6t1 7q-2 5-6 2l-2-6q-1 3-2 2l-2-7-2 5 3 12 1 6 1-8 6 1q3-2 5-6v-8l7 2-1 8q-2 6-6 10-2 2 0 2 5-3 8-10l1-11q2-3 5-2 4 0 3-5 1-4 3-5 4-2 4-7 1-4-2-6m-7 17c2 1 0 6-2 2zm-11 2c3 1 2 6 0 3q-2-2 0-3m-107 7-1-1-1 2zm35 0-1-1v2zm-43-35q-3-1-3 2-1 5-4 6l-4-2q-2-2-2-5-2-1-3 2l3 5 3 3q0 3 2 3 2 2 1 4l-1 6q2 1 2-2l2-2 8 2q3 0 5-3l5-7q2-1-1-3l-3 4-5 6h-5l2-2 2-4-3-2-7 3v-4l6-7 1-3zm1 14q1 2-2 2v-1zm-4 3q2 0 1 2-2 0-1-2m31 7h-2l1 1zm76 3q0-3-2-2zm-119-31 1-5v-5q4 1 7 6l-1 3v3l4-4q-1-4-6-9l-4-2q-5-1-3 6 2 9-4 2-3-5-4-13 1-8 6-8 3-1 0-2-6-2-8 7-2 11 7 20 3 3 5 1m143 14v-2l1-3 2-2q-1-3-3-1h-2l1-1q3-1 1-3-4-2-4 4l1 3q2 2 1 3 0 4 2 2m13 0 2-3 2-2q4-4 2-10l-5-10-6-6v5l6 6q4 7 4 10-1 3-5-3l-3-5-1 2 2 5q4 6 1 8l-1 1-2-3-8-12v2l1 3 7 11 2 3zm6-23-9-14-1 2q0 3 2 3l4 6 4 5zm-49 123v1h-2v-3h2zm5-2-1 2h-1l-1-2 1-1h1z"/></svg>