<svg xmlns="http://www.w3.org/2000/svg" viewBox="0 0 1000 1000"><path fill="#f7e017" d="M8 195.3c170.8-85.3 341-54.5 513.3-28C676.5 191 833.4 211.8 992 132.7v672c-170.8 85.3-341 54.5-513.3 28C323.5 809 166.6 788.1 8 867.2z"/><path fill="#fff" d="M8 242v298.6c170.7-60.9 340.9-6 513 45 155.3 46 312.3 89 471 32.5V459.4c-171 36.7-341.3-42.7-513.7-118.3C323.3 273.2 166.4 208 8 242"/><path d="M8 400.6v140c171-36.7 341.4 42.7 513.8 118.3C676.8 726.8 833.6 792 992 758V618c-171 36.6-341.3-42.8-513.7-118.3-155-68-311.9-133.2-470.3-99.2"/><path fill="#cf1126" d="M483.4 693.2a84 84 0 0 1-33.8-21.2l-3.4-3.3q-.3.4-.4 3.8c-.2 6-1.7 8.5-6.2 9.6-4.4.6-10.3-3-15.8-9.7a56 56 0 0 0-16.9-15c-4.5-2-9.9-2.4-14.2-1.1-2 .6-4.1 1.6-5 2.2q-1.2.8-1.8.9c-.6-.6-.6-6 .1-8.4a12 12 0 0 1 6.5-6q2.4-1 2.6-1.8c0-.4-.5-2-1-3.5-2-5.3-1.2-9.2 2.2-12.7 3.9-3.2 9.3-3 14.9.4l2.7 1.6c.7 0 .3-1.2-1.6-5.4a22 22 0 0 1-2.4-12.2c.6-6.8 4.1-11.2 9.2-11.3 4 .3 6.3 2.2 12.3 10.8 17.7 25.3 36.5 40.6 58.8 47.6 5.7 1.7 16.9 3 23.5 2.7a82 82 0 0 0 56-29.8c4.4-5 6.3-6 10-5.7 3.2.6 5 2 7.5 5.7 2 3.5 2.6 6.3 2.5 11-.2 3-.5 4.4-1.8 7.2-2 4-1.7 4.4 2.2 3a13 13 0 0 1 15 4.8c2.9 4.5 3.1 8 .9 13.3l-1.6 3.8c.1.6.6.9 3.8 2q6.3 2.4 6.4 12.2 0 3.1-.3 3.4l-3.5-2.2a25 25 0 0 0-13-5 20 20 0 0 0-8.7.5 34 34 0 0 0-13.3 9c-4.5 4.7-7 5.8-11.4 5.3q-5.8-1-8-5.9c-.7-1.8-.9-2.7-.7-6.4V683c-.2 0-1.7 1-3.5 2.4a44 44 0 0 1-12.6 7.3 91 91 0 0 1-56.2.5"/><path fill="#cf1126" d="M490.7 652.7c-26.5-7.7-51.4-30-67-61.9A199 199 0 0 1 407 479.1a92 92 0 0 1 17.5-43.9 139 139 0 0 0-6 68.5c6.4 47.5 34.8 90.4 69.3 102.8 13.8 7.3 27.5 4 40.6.2 28.8-9.7 50.3-43.3 53.2-84.7 2.2-22.2-.3-45.8-7.7-67.2 4.2 3.8 9.5 16.2 12.7 24.8 10.9 30.5 11.4 65 5 95.1-9 38.4-30.6 69.3-59.8 77.7a83 83 0 0 1-41 .3zm-132.8-69.5c-2-.4-3.4 1.4-3 4 1.4 2.6 3.3 4 5.3 5.4a33 33 0 0 0 16 5q5.9.7 11.5-1.3c2.2-.8 4.4-1.4 5.5-4.4.7-2-.5-3.9-2.1-3.9-2.1.4-4.1 1.4-6.2 2a31 31 0 0 1-13.9.2 37 37 0 0 1-9.8-4.9q-1.5-1.3-3.3-2.1"/><path fill="#cf1126" d="M359.8 573.7c-1.9-.3-3 1.8-2.5 4.3 1.5 2.8 3.5 4.4 5.7 5.9q5.6 3.5 11.6 4c-1.5-.2.5 0 1 0a20 20 0 0 0 9.9-1.4c2-.9 4-1.5 5-4.3.5-1.7.1-3.6-1.3-4.1-1.4-.1-2.5.7-3.7 1.1q-6.8 3-14.1 1.4a30 30 0 0 1-8.5-4.7q-1.5-1.4-3.1-2.2"/><path fill="#cf1126" d="M362.2 564.6c-1.6-.1-2.4 1.6-2.3 3.7a9 9 0 0 0 2.2 4c3.8 4 8 5.8 12.7 6.3-1.8-.2 2.3.3 1 0q4.4.4 8.2-1.6c1.9-.9 3.6-1.7 4.3-4.3.3-1.4.4-2.8-.6-3.8-1.1-.8-2 0-3 .6a18 18 0 0 1-10.7 2.3 18 18 0 0 1-8.9-4.7c-1-.8-1.8-2-3-2.5"/><path fill="#cf1126" d="M337 425.2c-2 3.1-.6 8.4-.6 12.6 1.2 12.4 2.6 24.9 6 36.8 4.2 11.5 12.7 18.5 18 29 1.8 5 1.4 10.7 1.7 16q.4 21.6 0 43c5 4 9.8 7.4 15.4 7 3.5-.7 8.7-.7 9.9-5l-.7-74.2c-2-7.8-7.4-12.4-11.7-17.7q-5.2-7.7-9.7-16.1c-2.2-4.2-8.3-6.7-6.3 1 1.7 6.2 5.2 11.3 6.3 18 .4 3.8 3 10 .6 12.2a25 25 0 0 0-7.3-10c-3.2-3.4-7.7-5.2-9.1-10.7a53 53 0 0 0-7.4-21.2c.9-7.1-.1-15.4-4.4-20.5z"/><path fill="#cf1126" d="M343.8 427.2c-2 .6-2 3.5-1 5.7q1.5 6.3.7 12.6a55 55 0 0 1 7.3 20.8c.2 2.9 2 4 3.6 5.6 3.4 3.2 7 5.7 10 9.6.6 1 1 2 .7.1-.5-2.5-.8-5-2-7a18 18 0 0 0-7-6.7 44 44 0 0 0-8-20.4c.1-5.7 0-11.6-1.7-17-.6-1.6-1.3-3-2.6-3.3"/><path fill="#cf1126" d="M349.5 430c-1.4.6-1.2 2.6-.7 4.3q.9 6.1.7 12.4c2.6 3.1 4.2 7.2 5.7 11.3q1.6 4.2 2.2 8.5 3 2 5.5 5.3c-.7-2.7-2-5-3-7.5q-1.7-4-2.6-8.4a19 19 0 0 1-2.6-11.4q0-7-3.2-12.7-.9-1.4-2-1.9"/><path fill="#cf1126" d="M356 431.8q-1.2.4-1.7 1.9.2 1.2.7 2.6 1.3 4.8 1 9.8 0 3.6 1.4 6.8.5-2.2 2.3-2.5c.4 0 .9.3.7-.5a74 74 0 0 0-1.9-13.4q-.6-2.4-1.9-4.3-.3-.4-.7-.4M642.1 622c1.9 0 3.4 2 3 4.7a12 12 0 0 1-5.3 4.3q-7.1 2.9-14.7 1.8c1.7.1-.6 0-1.2-.2q-6-.8-11.6-4.1c-2.2-1.3-4.5-2.5-5.5-5.7-.7-2.3.5-3.8 2.1-3.4 2.1 1 4.1 2.4 6.2 3.4q6.8 3.4 13.8 3.5a29 29 0 0 0 9.9-2.8c1.1-.6 2.1-1.4 3.3-1.5"/><path fill="#cf1126" d="M640.2 612.1c1.9.1 3 2.5 2.5 4.8a12 12 0 0 1-5.7 4.8 22 22 0 0 1-11.6 1.4l-1-.1q-5.1-.7-9.9-3.8c-2-1.3-4-2.5-5-5.4-.5-1.9-.1-3.7 1.3-3.8 1.4.2 2.5 1.3 3.7 2q6.8 4.5 14.1 4.6a23 23 0 0 0 8.5-2.9q1.5-1.1 3.1-1.6"/><path fill="#cf1126" d="M637.8 602.6c1.6.1 2.5 2.1 2.3 4.1q-.6 2.2-2.2 3.5-5.7 4.7-12.7 3.6l-1-.1q-4.4-.7-8.2-3.6c-1.8-1.3-3.6-2.6-4.3-5.4-.3-1.4-.4-2.9.6-3.6 1.1-.5 2 .6 3 1.3q5.1 4 10.7 4.8c3.3.3 6-1 8.9-2.7q1.3-1.2 3-2"/><path fill="#cf1126" d="M663 467.9c2 3.4.6 8.5.6 12.6a194 194 0 0 1-6 35.8c-4.2 10.9-12.6 16.2-18 25.6-1.8 4.7-1.4 10.4-1.7 15.7q-.4 21.5 0 43c-5 2.9-9.7 5.3-15.4 3.6-3.5-1.4-8.8-2.8-9.9-7.2l.7-74.2c2-7.3 7.4-10.5 11.7-15q5.2-6.5 9.7-14c2.2-3.7 8.3-4.8 6.3 2.3-1.7 6-5.2 10.3-6.3 16.7-.4 3.9-3 9.4-.6 12.2q2.5-5.7 7.3-8.5c3.2-2.8 7.7-3.7 9.1-9 .9-7.7 3.7-14.3 7.4-19.8-.9-7.3.1-15.3 4.4-19.7z"/><path fill="#cf1126" d="M656.2 468.7c2 1 2 3.8 1 5.9q-1.5 6-.7 12.4a46 46 0 0 0-7.3 19.5c-.2 2.9-2 3.6-3.6 4.9-3.4 2.5-7 4.3-10 7.6-.6.9-1 1.8-.7 0 .5-2.5.8-4.9 2-6.6q3-4.1 7-5.4c.3-3.8 1.6-7.1 2.8-10.4 1.4-3.2 2.9-6.4 5.2-8.4a51 51 0 0 1 1.7-16.7q.8-2.4 2.6-2.9"/><path fill="#cf1126" d="M650.5 470.4c1.4 1 1.2 2.9.7 4.5a73 73 0 0 0-.7 12.2 41 41 0 0 0-7.9 18.3q-3 1.4-5.5 4.2c.7-2.6 2-4.6 3-6.9q1.7-3.7 2.6-7.9 3.1-4.4 2.6-10.9 0-6.9 3.2-12 .9-1.3 2-1.5"/><path fill="#cf1126" d="M644 471q1.1.7 1.7 2.2-.2 1.2-.7 2.5a29 29 0 0 0-1 9.6q0 3.6-1.4 6.5-.6-2.4-2.3-2.9c-.4-.1-.9 0-.7-.7q.3-6.8 1.9-13 .6-2.4 1.9-4zM497 607.8c-9.4-3-17.4-13-20.4-25.5.3-1.8 1.9 1.1 2.9 1.8a14 14 0 0 0 5.4 3.3c2.3 2 4 5.2 6.3 7.4 1.3 1.4 4.5 4 4.1.4a10 10 0 0 1-.7-6.7q2.2-5.3 5.3-9.6c1.5 0 2.4 3.3 3.5 5.2a20 20 0 0 1 2.4 11c-.9 1.5-1.5 5 .8 4.3q4-2.2 7.3-6c2-1.4 4.4-1.4 6.6-2.6 1.1-.4 2.8-2.3 3.4-1a42 42 0 0 1-5.1 10.6q-5.2 7.3-12.8 8.2-4.5.4-9-.8"/><path fill="#cf1126" d="M507.9 594.8q.1-3.9-1.2-7.6a96 96 0 0 0-5.5-12c-2-1.4-2.9 2.5-4.2 4.1-2 3.8-4.2 7.4-4.5 12.4-1.4 1.8-3-2-4-3.9a26 26 0 0 1-2.8-11.6 63 63 0 0 1 2.5-18.8c1.4-5 3.3-9.7 3.3-15.5 0-4.4-.6-8.9-3-12.4-2.2-3.1 1.3-2.7 2.8-1.3 2.1 1 3.3 5 5.3 4.7.7-2.5 1-5.3 2.5-7.2 2-2.4 3.2 1.5 3.9 3.8 1 2.3.1 5.7 1.7 6.5 2.2-2 3.8-4.7 6.6-5.4 1.2-.5 2.9.2 1.6 2a17 17 0 0 0-4.3 9.2q-.6 7.6 1.9 14.7c3 9.4 5.3 19.4 3.8 29q-1.3 6.5-5.5 9.8-.5.4-1-.5"/><path fill="#cf1126" d="M504.6 528.4q-1.4-4.1-3.9-7.2c-1.6 0-2.6 2.2-3.7 3.7-.8 2-1.6 4.8-3.6 2.2-3-3.2-3.6-8.1-3.6-12.7 0-7.1 1.9-13.3 3.8-19.6q1.3-6 .1-12.7c-1-4.8-3.6-8.6-5.8-12.6.4-1.3 2.7-.3 4 .2 2.1 1.4 3.6 4 5.3 6.4 1-.6.8-3.5 1.3-5.3.2-2.3 1.9-4.7 3-1.5 1.2 2.5.3 5.9 1.8 7.6 1.5-.7 2.5-2.8 4-3.8q2.6-1.7 5.3.4c.3 2.2-1.6 3.4-2.5 5.2a24 24 0 0 0-2.6 16.5c1 4.7 2.6 9.2 3.2 14q1 8.2-.3 15.9a8 8 0 0 1-4.7 5.9q-.7-1.3-1.1-2.6"/><path fill="#cf1126" d="M494.3 468.2c-2.3-2.8-3-4.9-3-9.3 0-2.3.2-3.3 1.3-5.2 1.5-2.9 1.3-3.6-1-3.2-3.7.7-5-.6-5.4-5 0-2 .3-2.7 2.3-5.8 1.6-2.5 2.1-3.6 1.9-4.2-.5-.2-2 1.4-6.2 6.3a94 94 0 0 1-7.8 8.7c-7 5.1-12.8 5.1-16 0-1.5-2.8-1.5-4 .3-5.3a20 20 0 0 0 3-3 57 57 0 0 1 11-9.1q3.7-2.1 1.4-2.6c-2.2 0-8.4 4.4-13.5 10a21 21 0 0 1-4.7 3.8c-2.7 1-7 .8-9.5-.4-1.6-1.1-4-4.7-4.3-6.1q.1-.7 1.4-1.5a14 14 0 0 0 3-2.6A34 34 0 0 1 466 425c1.9-.4 1.2-1.5-.9-1.9-4.3-.1-12 3.6-17 8.4-6.1 5.4-14 3.8-17-3.7a7 7 0 0 1-.7-2.6c.2 0 1.8-.6 3.8-1s6.1-2.1 10.1-4.3c6.3-3.3 8-3.9 12.4-4.2 2-.3 2-1.3.2-2-2.6-.6-6 .3-12.7 3.8-8.5 4.4-10.7 5-15.2 4-4-1-6.1-2.5-9.5-7.3a34 34 0 0 1-4.6-11.2q.3-.2 2.2.7c1.2.6 4.5 1.4 8.6 2 5.7.8 7.1.8 10.2 0a47 47 0 0 0 16.4-8.9c9-7.7 15.9-10 25.1-8.9A25 25 0 0 1 496 400q2.8 4 3.2 4c.2-.4.5-4.2.6-8.7.1 0 2.2.1 3 1.1 0 7.3 0 7.8.8 8q.9 0 1.4-1.6c.9-2.4 3.3-5 6.3-6.7 6.4-3.2 16.6-1.8 25.4 3.6q5.5 3.6 11.5 10.6c4 4.6 11.7 11 16.3 13.6a36 36 0 0 0 20.9 2.9c1.3.7-1 6.5-4.2 10.7-6 6.8-13 5.8-23.7-3.4-6.8-6-13.8-9.4-14.3-7q0 1 1 1 3.5.8 12.8 8a39 39 0 0 0 12.5 8c1.6.3 1.6 1.4.2 4.3-1.9 3-4.1 4-8 3.6-3.8-.7-5.6-1.9-9-6-5.7-7.2-18.2-15.8-18.3-12.2q.2 1.1 2.1 1.8a44 44 0 0 1 15.9 12.7l4 4.5c.7.8.7 1 .1 2.4a7 7 0 0 1-6.3 4c-3.7-.2-6.5-1.9-9.9-6a62 62 0 0 0-15.2-15.8q-2.5-.2 2 3.7c3.9 3.5 7.8 7.8 10.8 12 1.4 2 3 3.9 3.5 4.4 1.2 1.2 1.1 2.2-.2 4.6-1.6 2.2-3.5 2.9-6.6 2-6-1.8-10.4-6.2-17.8-17.6-2.8-4.5-5.4-8-5.6-8.2q-1.4 0 1.5 4.9c2.3 4 2.7 5.8 1.9 8.7-1 2.4-2 2.7-4.7 1.4q-4-2.1-1.4 2.7c2.6 5.2 2.2 10-1 13.6q-1.7 1.6-2.3 1.8-.6-.3-1.6-2.5c-2.3-4.6-3.7-4.8-6-.8l-1.2 2.5z"/><path fill="#cf1126" d="m504.6 382.2-3.6 3.3-3-3.8v26l6.6 1z"/><path fill="#cf1126" d="M482.8 352c-.7 12.1-3 20.3-6 29.2l7.5-8.4 5.3 9.4 5.7-7.9 5.8 8.3 5.6-6.8 5.8 10.2 5-6.9 8.7 9.8c-3.2-10-7.2-18.5-6.8-31.7-8.8 7-27.6 5.6-36.6-5.2"/><path fill="#cf1126" d="M498 348q-4.8-.6-9.2-.4-3 .3-5.4 2c1 8.2 27.4 15.4 35.5 5.7a16 16 0 0 0-5.6-4 46 46 0 0 0-8.8-2.2v6.6l-6.6-1z"/><path fill="#cf1126" d="m503.4 308.2-4.4-.6v46l4.4.8z"/><path fill="#cf1126" d="m503.3 309.4-1.6 21.8 16.6 13.7-8.4-16.7 11.5-3.3zm-1.8-6q-4-.4-4.4 2.1.3 2.6 4.4 3.5 4 .4 4.4-2.1-.4-2.6-4.4-3.5"/><path fill="#f7e017" d="M493.9 689.3c2.8-1 4.1-2.7 5.4-7 .5-2.1.8-4.3.8-4.9q-.6-2.1-2.7-.3c-.9 1-1 1.4-.7 3.5.5 5.4-.7 6.4-8 6.4a28 28 0 0 1-4.6-1.1q-5.3-1.7-3.5.8.9.9 2.2 1.6c2.2.9 8.8 1.5 11 1m15.1 1.4c.5-.4 1.8-1 3.1-1.5 1.8-.5 2.6-1.1 3.4-2.5 2-4.2 1.7-7.6-1.4-13.3-1.8-3-2.3-3-3.8-.2-1.1 2.4-1.1 2.6.6 3.4q1.3.9 2.2 2.7 2.6 7-1.5 6.8c-2.5-.3-3 0-3.8 2l-.6 2.7q.2 1.4 1.8 0m-5-5.7a138 138 0 0 0 .3-20.1c-.6-.5-2.2.7-2.7 2 0 .5.1 1.9.5 3 .6 1.9.7 3.4.6 10-.3 8.2 0 9.6 1.4 5"/><path fill="#f7e017" d="M492.4 679.4c.2-1.5.6-4.6.7-7 .2-2.2.5-5 .8-6.3q1-4.8-1.9-2.6l-1.4 1.2.3 4.7c.2 4.3-.3 11.9-1 14.8q-.2 1.2 1-.5c.5-1 1.2-2.8 1.5-4.3m-10.2.6c2.3-2.7 2.2-7.2 2.7-11.2 0-2.7 1-5.6.4-8-2.4.4-3.6 2.7-2.6 6.1.1 3.6 0 7.2-1.3 10.2-1.4 1.7-4 1-4.3-2 .5-4.1-2.6-2.7-4.4-1.8-1.3.9-3.3.7-2.7-2-.9-3.4-3.7-2-5.8-2.2-1.6-.8-.2-4.3-2.6-4.4-4.8-1.1-9.6-1.5-13.8-5.8-2.3-2.2-2-5.4-.8-8 1.4-3.3 2-7.3 4.2-9.8 2-2.8-2-2-3.2-1.2-1.9 1.7-.5 5.7-2 8.1-1.2 2.6-2.3 5.2-5 4.7-3.5-1.7-5.6-6-8.2-9.7-2.2-.3-1 4.4.2 6q3.5 4 7.6 6.1c2.6.3 2.9 4.3 5 5.8 4.4 3.2 9 4.7 13.6 5.8 1.7 1 1 4.3 3.2 4.2 1.6.6 4 .1 4.5 2.2-1.7 3 1.7 3.4 3.4 3 2 0 4-.6 4.8 3 1.8 2.4 4.2 2.5 6.3 1.6z"/><path fill="#f7e017" d="M441.3 645.6c.7-1.2 1.9-3.7 2.5-5.5a23 23 0 0 1 2.1-4.6q1.6-2.7-1.4-2.5-1.4.2-1.6 1.8a40 40 0 0 1-2.6 9.5c-1.7 3.2-1.7 3.3-1 3.4q.7-.1 2-2M415.7 620c-2 0-2 1.2-.1 2.5q1.3 1 2.3 3.5c1.9 5.2 2.8 6.1 7.7 7.4l3 .9.2 2.6q.2 2.3.6 2.6l2.6-1.1a10 10 0 0 0 4.4-7c-.1-1.5-1.6-3-3.4-3.5q-1.3 0-3.2 1.4-5.7 4.2-9.2-3-2.6-5.8-4.9-6.3m16.7 11.4q1.4.3.7 2.8c-.5 1.2-1.4 1-1.8-.2q-.6-2.5 1.1-2.6m129.7 13.9c-1.3-.1-1.6.2-2.4 1.7a16 16 0 0 0-.3 10.3c.8 1.4.9 1.4 2.5.7 2.2-1 2.5-.8 2.5.8-.2 4.3-4.3 11.2-8.9 15q-2 1.6-2.4 2.5 0 1.6 3.4 0c2.9-1.8 6.4-6.1 8-10 1.2-3.1 1.4-4.2 1.6-9.8 0-5.3 0-6.7-.7-8.6-.7-2-.9-2.2-2.7-2.5zm.1 3.6c1 .2 1.1.4 1.2 2.3.1 1.6 0 2.4-.7 3.2-.8.9-.9.9-1.7-.8-1-2.6-.4-4.6 1.2-4.7m-20.7 36.8a16 16 0 0 0 7.9-9l1.3-4c-.2-1-1.9-2.2-3.2-2.6-1.2-.3-1.4-1.2-.9-4.3.4-3.2-.1-6.4-1-6.9q-.8 0-1.4 1.4c-.7 1.2-.7 1.7-.2 3.7.6 3.1.1 4.8-1.8 6.5q-1.3 1.1-1.3 2.6l.1 1.5 2.2-1.2 2-1.2 1.2 1.4q1 1.5 1.1 2.7c-.4 3.5-6.6 7.6-11.7 7.7-2.5-.1-2.9-.3-3.8-1.6a4 4 0 0 1-.7-3l.5-3.6q.4-4.2-2 .6-2 4.2-1 7.2c1 1.4 4.3 3 7.3 3.3q2.7.2 5.4-1.2m26.7-16.4c2.4-3.2 3.5-7 3.5-13.5V651l2.1-1c2.9-1.7 5-4.4 5.3-6.5q0-3-1.8 0c-1 1.5-2 2.2-6.2 4.3-1 .6-1.1.8-1.4 6.9-.3 7-1 9.3-3.8 13.7-1.7 2.7-1.8 3-.6 3.2q1-.1 2.9-2.2m-27.4-8c0-1-1-1.7-1.8-1q-.3.5-.1 1.2c.5 1 1.5.9 1.9-.1m37.7-7.9c.1-1-1-1.8-1.7-1.1q-.4.5-.2 1.3c.6.9 1.6.8 2-.2M533 610.8q-1.3 1-2.2 2.9-.4.6.2 1.3 2.3 4.5 3.3 9.7c.8 4 1.7 8 1 11.9-.5 1.5-1.2 2.7-2.5 2.1-2.1-.5-4.2-1.5-6.2-1.8-1.9 0-3.3 1.7-5.2 1.4-1.2-.4-1.1-3.2-2.3-2.8-.5 1.8-.3 3.8-.3 5.7q.4.3 1.1.3l3.7.6c.3 1.8.4 3.7 1.2 5.3 1.4.8 2.7.5 4 0 1.2-.8 1.5-2.6 1.8-4.4.6-1.6 2-1 3.2-1.6q4-1.5 4-7.4c-.2-5.4-1.6-10.6-2.8-15.8l-1.6-7q-.1-.4-.4-.4m-6.2 29.6c1.4.3 1.9 2.3 1.7 4-.8 2-2.3.5-2.8-1.2-.7-1.6-.3-3 1-2.8"/><path fill="#f7e017" d="M475.4 615q-1-.2-2 .6c-3.7 3.2-4.5 6.5-2.1 8.9 1.7 1.6 1.3 2.6-1.5 4.3-4.3 2-7.5 1.2-14.6-3.7q-2.3-1.8-1.7 1.3c.5 2.2 1.7 3.3 5.2 5 3.9 1.7 8 2 11 .8q2.2-1 4.5-4l2.2-3 2.6.9c3.2 1 3.2 1 3.2 3.1 0 1.7 0 1.7 3 2.6 1.7.4 3.8 1 4.9 1.1q1.9.3 2.4 1.5c.6 1.2.9 1.3 5.7 1.5 4.6.1 5.4.3 7.4 1.6q2.3 1.2 4.3 1.4c3.7-.3 7.8-3 8.9-5.9q.3-.5 2.7-.9 5.2-.7.4-2.5c-1.4-.5-3.5-1.5-4.7-2.3s-2.8-1.5-3.6-1.7q-3 0-3.4 2.5c0 1 .3 1.2 2.4 1.2 2 0 2.4.3 3.5 1.5q1 1.5 1 2.1c-.8 1-4.3 2.7-6.3 3q-1.8 0-3.1-1.1c-1.8-1.4-3.7-1.8-4.4-1q-.2.6-1.4-1l-1-1.5-2.4 1c-2.6 1-3.3.9-3.4-.8 0-.7-.7-.9-4.3-1.1-4-.3-4.4-.4-5.2-1.7-.6-1.2-.7-1.5-.2-2.5s.5-1.3 0-2q-.4-1-2.5-.4c-4 .7-5 0-5.1-4.4q-.2-3.9-2.4-4.5m-1 3.8q.3 0 .6.6.6 1 .4 2c-.5 1-1.8.8-2.4-.5q-.2-1 .6-1.7.6-.5.8-.4"/><path fill="#f7e017" d="M467.3 621.5c2.4-1.7 2.3-1.5 2.7-7.3.2-4.1.2-4.3-.6-4.5q-1.9-.2-1.8 4.9c0 2.2-.3 3-1.1 4.1-2.5 2.2-6.5.6-7.7-3-.1-1.3.1-2.2 1.1-4.2q3.2-6.1-1-2.2c-1.8 2-2 2-1.8.1q.5-2.5-1.8-2.2-1 .2-1.4 2-.2 1.8-1.3 2c-1.4 0-3-1.5-3.3-3 .2-1 3-5.5 7.1-10.7a27 27 0 0 0 2.7-4q0-.5-1.8-.8t-1.7.9c-.2.6-2 3.8-4.5 7.3-5 7.1-5.4 8.5-3 11q3.3 3 6.7.7l1.7-1.3v2.8c0 3.7.5 4.9 2.5 6.8q4.2 3.3 8.3.6m107-32.3c-1.7 1.6-.6 4.5-.2 7-1 2.8-3.3 3.1-5.5 3.4-3 .6-4.7 3-6 6.6-.7 2.3-1.8 5.2-3.5 1.7-1.6-2.1-3.6-3.6-5.4-1.9-1.2 1.5-1.5 3.6-2 5.7-.7-1.9-1.1-4-2.5-5-2.4.6-1.6 4.1-.4 6.4 1 2.3 1.8 4.7 1 7.1-1.2 2.8-3.7 4-5.8 1.5-1.5-1.8-.8-5.3-2.2-6.2-.8 1-.8 5-2.2 2.6-.9-2.3-.6-5-1.7-7.1-1.4.3-2.3 2.8-2 4.9 1.8 3.7 2.6 8 3.3 12 .4 2 .1 4.7 1 5.8.7-2.6.2-5.5.7-8 1.8 0 3.8 1.1 5.7 1 2.8-.4 4.5-2.7 5.7-6q.2-3.7-.1-7.5c2.1.7 4.2 1.1 6.3 2.3.8 2.3-.2 5-.6 7.3a23 23 0 0 1-6.4 10.3c-1 1-1.3 3 .4 2q5.3-2.7 7.7-10c1-3.5.3-7.6 1-11.3 1.3-2.5 3.4-1.7 5.5-1.4 2 0 3.4-2.4 3-5.4-.4-3.2 1.5-4.1 3.3-5q3.5-2.1 3.6-7.4c-.1-2-.1-4.7-1.7-5.4m-7.6 16.5c1.9 1.6 0 6.3-1.6 2.7-.3-1.6.4-2.8 1.6-2.7m-10.6 2.7c2.8.7 2.2 5.5-.6 2.9-1.2-1.3-.9-3 .6-2.9m-107.3 6.5q0-1-.5-1-1.4 0-1 1.6 1 1.4 1.5-.6m34.8 0q0-1.4-.8-1.2c-1.2.3-1.3 2-.2 2.3q1 .1 1-1.1m-43-35c-1.5-.4-2.2.8-2.8 2.4a12 12 0 0 1-4.1 5.4q-2.2.2-4-1.7c-1.2-1.2-1.1-3.2-1.6-5-1.2-1-2.6 0-2.8 1.8.1 2.3 1.4 3.6 2.7 4.7 1.2 1.1 2.5 1.8 3 3.7.1 1.7.5 3.2 1.9 3 1.6.4 1.9 2.6 1.3 4.2a12 12 0 0 0-.7 5.6c.8.8 1.4-1 2-1.8l1-1.8 8.3 1.8q3 0 4.8-3c1.7-2.2 3.3-4.8 5.2-6.8 1.3-.6.8-3.6-.8-3.2-1.3.7-1.8 2.4-2.7 3.7a37 37 0 0 1-5.2 6.6q-2.2.5-4.6-.7c-.4-.9 1-1.2 1.5-2q1.4-1.4 2.3-3.4c-.6-1.5-1.8-1.8-2.9-2-2.5.3-4.5 2.4-7 2.5-1.8-.4-1-2.6 0-3.7l5.3-7.3c.6-.8 2.1-1.2 1.1-2.6zm1.2 14.2c1.1 1.3-.7 2.3-1.7 2-1.2.2-1.1-1-.1-1.4q.8-.5 1.8-.6m-3.9 3c.8.2 2.2 1.1.8 1.7-1.1.7-2-1.1-.8-1.7"/><path fill="#f7e017" d="M468.7 604.1c-.2-1.3-1.6-1.3-2 0q-.2 1.1 1 1 .9 0 1-1m76.5 2.5c0-1.3-1-2.1-1.8-1.4-.5 1 0 2.4 1 2.5q.6-.1.8-1m-119.1-30.9c1.2-1.3 1.2-1.3.7-4.5-.8-4.5-.7-4.8.5-5.1 1.8 0 5 2.8 6.3 5.4.6 2 .6 2-.5 3.3-1.2 1.5-1.2 3 0 3.3 1.2-.1 3.5-2.8 3.8-4.3-.3-2-3-6.2-5.6-8.4q-2.2-1.7-4.7-2.1c-3.2-.4-3.6.3-2.8 5.5q1.5 9-3.8 1.7a20 20 0 0 1-3.5-12.5c.1-6 1.5-8.2 5.2-8.6q3.6-.3-.1-1.7-5.8-1.5-7.9 7.4a23 23 0 0 0 7 19.5c2.8 2.5 3.7 2.7 5.4 1.1m142.7 14.3a4 4 0 0 0 .5-2q.1-1.3 1.1-3.1l1.1-2.4c-.1-1.2-1.2-1.3-2.4-.3q-1.9 1.6-2-.2 0-.6 1.2-1.2 2.4-1.3.4-3-3.1-1.5-3.7 3.7c-.1 2.2 0 2.6 1.2 3.8 1.1 1 1.3 1.5 1.2 2.8q-.4 3.5 1.4 1.9m13.4-.2a8 8 0 0 0 1.8-2.8q.1-.9 1.9-2.5c3-2.7 3.5-5.1 2.2-10-.6-1.8-2-4.4-5.6-9.2a67 67 0 0 0-5.5-6.8c-.9.3-.7 4.2.2 5.2a19 19 0 0 1 5.6 6q4.8 6.8 3.8 10.1c-.9 1.9-1.7 1.2-4.6-3.4-1.5-2.4-3-4.2-3.2-4.3q-.6 0-.6 1.8c0 1.4.5 2.7 2 5.2 2.4 4.1 2.6 6 .8 7.8l-1.4 1q-.4-.1-1.2-2.5a64 64 0 0 0-8-12.7q-.6 0-.6 2c0 1.8.2 2.3 1.2 3.2 1.2 1.1 4.1 5.5 7.2 11l1.9 2.8q.4-.1 2.1-2m6-22.5c-.7-2-8.5-14-9.4-14.6q-.7-.2-.5 2.5c.1 2.3.3 2.6 1.4 3.2.7.5 2.8 3 4.8 5.8 2 3 3.6 4.8 3.7 4.8q.3-.4 0-1.7m-49 122.5q0 .9-.5 1.3-.6.3-1.2-.2a2 2 0 0 1-.6-1.5q0-.9.6-1.2t1.2.1q.6.7.6 1.5m4.3-1.3q0 .9-.6 1.2-.6.4-1.2-.2a2 2 0 0 1-.6-1.4q0-.9.6-1.3.6-.3 1.2.2t.6 1.5"/><path fill="#1a1a1a" d="M8 195.3c170.8-85.3 341-54.5 513.3-28C676.5 191 833.4 211.8 992 132.7v672c-170.8 85.3-341 54.5-513.3 28C323.5 809 166.6 788.1 8 867.2zm31.3 19.3v604.5c306.5-128.2 611.1 96 921.5-33.7V180.9C654.2 309 349.5 84.9 39.3 214.6" opacity=".2"/></svg>