<svg xmlns="http://www.w3.org/2000/svg" viewBox="0 0 1000 1000"><path fill="#009b3a" d="M8 195c171-85 341-54 513-28 155 24 312 45 471-34v672c-171 85-341 54-513 28-155-24-312-45-471 34z"/><path fill="#fedf00" d="M92 498c134 44 269 148 408 256 135-63 270-125 408-252-134-44-269-148-408-256-135 63-270 125-408 252"/><path fill="#002776" d="M672 522c0 94-77 160-172 146-95-15-172-98-172-190 0-94 77-160 172-146 95 15 172 98 172 190"/><path fill="#fff" d="M342 411q30-2 60 3c102 13 196 67 269 131l-7 27a483 483 0 0 0-262-134q-35-5-69-2z"/><path fill="#009b3a" d="M353 431q-6 0-8-8-1-7 6-8 7 0 8 8 1 7-6 8m0-3q4 0 3-5t-4-5-4 5 5 5m14 3-1-16h9q5 2 5 6t-4 4h-7l1 6zm2-9h6q2 1 2-2l-2-2h-6zm11 10q1-5-4-8h-4q6 3 6 7zm7 0v-16l8 1q7 1 7 7v3q-1 6-7 6zm3-3 5 1q4 0 4-4v-1q0-5-4-5l-5-1zm18 5 15 3v-3l-12-2v-4l10 1v-2l-10-2v-3l12 2v-3l-14-2zm21 4 3 1 1-11 2 12h3l4-10-1 11 3 1 1-16-4-1-4 10-3-12-4-1zm34 9 12 4v-3l-9-3 1-3 7 2 1-3-8-2 1-2 9 2v-2l-12-4zm31 11 4-15 9 4q5 2 4 6-1 5-6 3l-6-3-2 6zm5-7 6 2 3-1-2-3-6-2zm15 15 5-14 9 4q4 2 4 7-3 3-7 2l-6-3-2 5zm6-7 6 3 2-1q1-1-1-3l-6-2zm7 13q3-4-1-8l-4-2q6 5 3 9zm14 7q-7-4-4-11 3-6 10-3 6 3 4 10-3 7-10 4m1-3q4 1 6-2 1-4-2-7-4-1-6 3-1 4 2 6m18 13q-6-3-3-10 4-6 10-3 4 3 4 8l-3-2-2-4q-4-1-7 2-1 4 2 7 4 1 6-2l3 1q-3 6-10 3m5-6 5 3-1 2-5-3zm3 2 2 1-3 7-2-1zm4 11 8-13 8 5q4 3 3 8-3 3-7 1l-6-4-3 5zm7-5 6 3h3l-1-3-6-4zm6 13q3-3 0-8l-4-2q6 4 1 9zm6 4 13 9 1-2-10-8 2-3 8 6 2-3-9-5 2-3 10 7 1-2-12-9zm24 11q-1 2 2 4 3 3 4 1c1-3-8-7-6-12 4-3 8 0 10 1q4 3 2 8l-3-2q1-3-2-4-1-3-3-1c-1 2 8 7 5 12q-4 3-9-1-4-3-3-8zm18 13q-2 2 1 5l4 1c1-3-7-8-5-13q7-3 10 2 4 3 2 8l-3-3q1-1-2-4-1-2-3 0c-1 2 7 7 5 12q-5 3-9-1-5-4-3-9zm16 20q-5-5 0-10 5-6 10-1 6 5 1 11-5 4-11 0m2-2q3 3 7 0 2-4-1-7-3-2-6 1t0 6"/><path fill="#fff" d="m359 443-2 7 4 1zm0 0 3 7-4 1zm7 6-7-1v4zm0 0-6 4-2-3zm-14-1 6 4 3-2zm0 0h8v4zm12 9-3-7-3 1zm0 0-6-5 2-3zm-9-1 6-4-2-3zm0 0 2-7 4 2zm20 60-3 6 4 2zm0 0 2 7h-4zm7 5h-8v3zm0 0-6 4-2-3zm-14-1 6 5 2-3zm0 0 7 1v3zm11 9-2-7-4 1zm0 0-6-5 2-2zm-9-1 6-3-2-4zm0 0 3-6 3 1zm-16 2-2 5 3 1zm0 0 1 6h-2zm5 4h-6v3zm0 0-5 3-1-2zm-11-1 5 4 2-2zm0 0 6 1v3zm9 8-2-6-3 1zm0 0-5-4 2-2zm-7-1 5-3-2-2zm0 0 2-5 3 1zm42-29-2 3 2 1zm0 0 1 3-2 1zm3 3-4-1v2zm0 0-3 2-1-2zm-7-1 3 2 1-1zm0 0h4v2zm6 5-1-4h-2zm0 0-3-3 1-1zm-5-1 3-2-1-1zm0 0 2-3 1 1zm22 21-2 5 3 2zm0 0 1 6h-3zm5 5-6-1v3zm0 0-5 3-1-3zm-11-2 5 4 1-2zm0 0 6 1v3zm9 8-2-6-3 1zm0 0-5-4 2-2zm-7-1 5-3-2-2zm0 0 2-5 3 1zm-2 7-1 5 2 1zm0 0 2 5h-2zm5 4-5-1v3zm0 0-4 2-1-2zm-9-1 4 3 1-2zm0 0h5v3zm7 6-1-5-3 1zm0 0-4-3 2-2zm-6-1 4-2-1-2zm0 0 2-4 2 1zm151-114-2 6 4 2zm0 0 3 7-4 1zm7 6-7-1v3zm0 0-6 3-2-3zm-14-2 6 5 3-3zm0 0 8 1v3zm12 9-3-7-3 1zm0 0-6-5 2-2zm-9-1 6-3-2-3zm0 0 2-6 4 1zm72 108-3 6 4 2zm0 0 2 7-4 1zm7 6-8-1v3zm0 0-6 3-2-3zm-14-2 6 5 2-3zm0 0 7 1v3zm11 9-2-7-4 1zm0 0-6-5 2-2zm-9-1 6-3-2-3zm0 0 3-6 3 1zm29-6-2 5 2 1zm0 0 1 5-2 1zm4 4h-5v2zm0 0-4 3-1-2zm-9-1 4 4 1-2zm0 0 5 1v2zm7 6-1-4h-2zm0 0-4-3 2-2zm-5 0 4-3-2-2zm0 0 1-5 3 1zm-14 2-2 5 3 1zm0 0 2 6h-3zm6 5-7-1v3zm0 0-5 2-2-2zm-12-2 5 4 2-2zm0 0 6 1v3zm9 8-2-6-3 1zm0 0-5-4 2-2zm-7-1 5-3-2-2zm0 0 2-5 3 1zm-38 20-2 5 3 2zm0 0 2 6h-3zm6 5-6-1v3zm0 0-5 3-2-3zm-12-2 5 4 2-2zm0 0 7 1v3zm10 8-2-6-3 1zm0 0-5-4 2-2zm-7-1 5-3-2-2zm0 0 2-5 2 1zm3 8-2 4 3 1zm0 0 2 5h-3zm5 4-5-1v3zm0 0-4 2-2-2zm-10-1 4 3 2-2zm0 0h5v3zm8 6-2-5-2 1zm0 0-4-3 1-2zm-6-1 4-2-1-2zm0 0 2-4 2 1zm20-36-1 4 2 1zm0 0 2 5h-2zm5 4-5-1v3zm0 0-4 2-1-2zm-9-1 4 3 1-2zm0 0h5v3zm7 6-1-5-3 1zm0 0-4-3 2-2zm-6-1 4-2-1-2zm0 0 2-4 2 1zm17-16-2 5 3 2zm0 0 2 6-3 1zm6 5-6-1v3zm0 0-5 3-2-3zm-12-2 5 5 2-3zm0 0 6 1v3zm10 8-2-6-3 1zm0 0-5-4 2-2zm-7-1 5-3-2-2zm0 0 1-5 3 1zm-28-8-2 5 2 1zm0 0 1 5-2 1zm4 4h-5v2zm0 0-4 3-1-2zm-9-1 4 3 1-1zm0 0 5 1v2zm7 7-1-5h-2zm0 0-4-4 2-2zm-5-1 4-3-2-2zm0 0 1-5 2 1zM434 491l-1 5 2 2zm0 0 2 6h-3zm6 5-6-1v3zm0 0-5 3-2-3zm-11-2 5 5 1-3zm0 0 6 1v3zm9 8-2-6-3 1zm0 0-5-4 2-2zm-7-1 5-3-2-2zm0 0 2-5 3 1zm116-7-2 4 3 1zm0 0 1 5h-2zm5 4-5-1v3zm0 0-4 2-2-2zm-10-1 4 3 2-2zm0 0h5v3zm8 6-2-5-2 1zm0 0-4-3 1-2zm-6-1 4-2-1-2zm0 0 1-4 3 1zm-44 66-2 7 3 1zm0 0 2 7-3 1zm7 6-7-1v4zm0 0-6 4-2-4zm-14-2 6 5 2-2zm0 0 7 1v4zm11 10-2-7h-3zm0 0-6-5 3-3zm-8-1 6-4-3-3zm0 0 2-7 3 2zm24-42-2 6 3 1zm0 0 2 6-3 1zm6 5-6-1v3zm0 0-5 3-2-3zm-12-2 5 5 2-2zm0 0 6 1v3zm10 9-2-6h-3zm0 0-5-5 1-2zm-8-2 5-2-2-3zm0 0 2-5 3 1zm-16-28-2 5 3 2zm0 0 2 6h-3zm6 5-6-1v3zm0 0-5 3-2-3zm-12-2 5 5 2-3zm0 0 6 1v3zm10 8-2-6-3 1zm0 0-5-4 1-2zm-8-1 5-2-1-3zm0 0 2-5 3 1zm-13 4-2 4 2 1zm0 0 1 4-2 1zm4 4-5-1v2zm0 0-4 2-1-2zm-9-2 4 4 1-2zm0 0 5 1v2zm8 7-2-5h-2zm0 0-4-4 1-1zm-6-1 4-2-2-3zm0 0 1-5 3 2zm11 6-1 3 2 1zm0 0 1 3-1 1zm4 3-4-1v2zm0 0-3 1-1-1zm-7-1 3 2 1-1zm0 0h4v2zm5 4-1-3h-1zm0 0-2-2 1-1zm-4 0 3-2-1-1zm0 0 1-3 2 1zm63 60-2 5 3 2zm0 0 1 6h-2zm5 5-6-1v3zm0 0-5 3-1-3zm-11-2 5 5 1-3zm0 0 6 1v3zm9 8-2-6-3 1zm0 0-5-4 2-2zm-7-1 5-2-2-3zm0 0 2-5 3 1zm18-22-1 5 2 1zm0 0 2 5-3 1zm5 4h-5v2zm0 0-4 3-1-2zm-9-1 4 4 1-2zm0 0 5 1v2zm7 7-1-5h-3zm0 0-4-4 2-2zm-6-1 4-2-1-3zm0 0 2-5 2 1zm-25-17-2 5 3 1zm0 0 1 5h-2zm5 4-5-1v3zm0 0-4 2-2-2zm-10-1 4 3 2-1zm0 0 5 1v2zm8 6-2-4h-2zm0 0-4-3 1-2zm-6-1 4-2-1-2zm0 0 2-4 2 1zm-104-31-2 6 3 2zm0 0 2 7h-3zm7 6-7-2v4zm0 0-6 3-2-3zm-14-2 6 5 2-3zm0 0 7 1v3zm11 9-2-7-4 1zm0 0-6-5 2-2zm-8-1 6-3-3-4zm0 0 2-7 3 2zm73 45-1 2 1 1zm0 0 1 2-1 1zm2 2h-2v1zm0 0-2 1v-1zm-4-1 2 2v-1zm0 0 2 1v1zm3 4v-3h-1zm0 0-2-2 1-1zm-2-1 2-1-1-1zm0 0v-2l1 1z"/></svg>