<svg xmlns="http://www.w3.org/2000/svg" viewBox="0 0 1000 1000"><path fill="#009b3a" d="M8 195.3c170.8-85.3 341-54.5 513.3-28C676.5 191 833.4 211.8 992 132.7v672c-170.8 85.3-341 54.5-513.3 28C323.5 809 166.6 788.1 8 867.2z"/><path fill="#fedf00" d="M91.6 498.2C226.5 542.4 361 646.3 500 754.4c134.7-63 269.8-125.3 408.4-252.6C773.5 457.6 639 353.7 500 245.6c-134.7 63-269.8 125.3-408.4 252.6"/><path fill="#002776" d="M672.2 522c-.3 94.3-76.8 160.5-172.2 146-95.4-15-172-98.3-172.2-190 .3-94.3 76.8-160.5 172.2-146 95.4 15 172 98.3 172.2 190"/><path fill="#fff" d="M342.5 411.2q29-1.4 59.1 2.4c102 13.3 196.9 67.4 269 131.9q-2.1 13.5-6.2 26c-69-65.9-162.2-120.8-262.8-133.9q-35-4.4-68.3-1.5 3.5-13 9.2-25"/><path fill="#009b3a" d="M353.1 431c-4.2-.2-7.5-3.2-8.3-7.8-.3-4.7 2.1-7.9 6.3-8.3 4.3.2 7.5 3.3 8.4 8 .3 4.6-2.2 7.7-6.4 8.1m-.3-3q3.8-.5 3.6-5.1-1-4.6-4.9-5-3.8.6-3.7 5.2 1 4.6 5 5m13.7 2.8-1-16 9.4.3a6 6 0 0 1 5.5 5.3q0 4.6-4.8 4.9l-6.5-.3.4 6zm2.4-8.8 6.3.3q1.9-.1 2-2-.3-1.9-2.3-2.2l-6.3-.3z"/><path fill="#009b3a" d="M380.4 431.5c-.2-2.7-.5-6.8-4-7.5l-4.5-.2c5.2.7 5.5 5 5.7 7.6zm6.9.5-.3-16 7.7.8c4.1.7 6.8 3.6 7.2 7.6v2.3c-.2 4-2.8 6.3-6.9 6.1zm3-2.6 4.4.4q4 0 4.4-3.8v-1.4q-.6-4-4.6-4.8l-4.4-.5zm17.8 5 14.8 2.6v-3l-11.9-2 .2-4.1 9.3 1.6.1-2.8-9.3-1.5V422l11.3 1.9.1-3-14-2.4zm20.8 3.8 2.8.6 1-10.8 2.3 11.5 2.6.6 4.2-10-1 10.8 2.8.6 1.4-15.7-4-1-4.3 10.1-2.3-11.5-4-1zm34 8.7 12.1 3.9.5-2.7-9.4-3 .7-3.5 7.6 2.5.5-2.7-7.6-2.4.4-2.4 9 2.9.5-2.6-11.8-3.8zm31.1 10.7 4.4-14.7 9 3.7q4.4 2.2 3.7 6.7-1.6 4-6.2 2.6l-6.4-2.6-1.5 5.5zm5.3-7 6 2.4q2 .6 2.7-1 .3-1.8-1.6-2.8l-6-2.5zM514 466l5.2-14.4 9 4.1q4.2 2.4 3.3 6.8-1.8 4-6.5 2.3l-6-2.8-1.8 5.4zm5.7-6.8 6 2.8q1.9.7 2.7-1 .4-1.6-1.4-2.7l-6-2.8z"/><path fill="#009b3a" d="M527.5 472.1c.8-2.4 2-6.2-1.1-8.2l-4.3-2c4.8 2.8 3.5 6.6 2.7 9zm13.4 6.7a9 9 0 0 1-4-10.6c1.9-4 5.6-5.3 9.7-3.5a9 9 0 0 1 4 10.6c-1.9 4-5.6 5.3-9.7 3.5m1-2.6q3.8 1.5 6-2.3 1.2-4.2-2.4-6.6-3.8-1.4-5.8 2.4-1.2 4.1 2.2 6.5m18.3 13.1a8.5 8.5 0 0 1-3.5-10.7c2.1-3.9 6-5 10-3q4.5 3 4.2 8l-3-1.6q-.3-2.6-2.4-3.9-3.7-1.6-6 2-1.4 4.2 1.9 6.6 3.8 1.7 6-2l2.8 1.6c-2.1 3.8-6 5-10 3"/><path fill="#009b3a" d="m564.5 483 5.7 3.3-1 2-5.6-3.3z"/><path fill="#009b3a" d="m568 485 2.2 1.3-3.3 6.8-2.1-1.2zm4.5 11.4 7.5-13.1 8.4 5.2q4 2.9 2.3 7-2.5 3.5-7 1.3l-5.8-3.6-2.7 5zm6.8-5.7 5.6 3.6q1.9.9 2.8-.6.7-1.6-1-2.9l-5.6-3.5z"/><path fill="#009b3a" d="M585 504.2c1.1-2.2 3-5.7.1-8l-4-2.5c4.4 3.3 2.5 6.7 1.3 9zm6 4 12.9 8.7 1.5-2.4-10.4-7 2-3.4 8.2 5.6 1.4-2.2-8.2-5.6 1.6-2.5 9.8 6.6 1.5-2.4-12.2-8.3zm24 10.8q-1.2 2 2 4.3 2.9 2.1 3.8.8c1-2.9-7.8-7.4-5.4-12.2 3.2-3.4 7.2-.3 9.3 1.3 2 1.6 4.3 4.2 2.4 7.5l-3-2.2q1-2.2-1.7-4-2.2-2-3.7-.4c-.7 2.4 7.9 7.1 5.6 11.9-2.7 3-6 1.3-9-.8-2.5-2-5.3-5-3.5-8.5zm17.5 13.4q-1.2 2 1.8 4.3 2.9 2.2 3.9 1c1.1-2.9-7.5-7.7-4.8-12.4 3.4-3.2 7.2 0 9.2 1.7s4.1 4.3 2 7.5l-2.9-2.3c1-1.4.2-2.7-1.4-4s-2.6-1.7-3.7-.6c-.9 2.4 7.5 7.4 5 12-3 3-6.2 1.1-9-1-2.5-2.1-5-5.3-3-8.7zm16.7 20a7.7 7.7 0 0 1-.7-10.8 8 8 0 0 1 10.9-.7c3.1 3 3.4 7.2.7 10.8a8 8 0 0 1-11 .8m2-2.2q3.3 2.4 6.6-.7 2.5-3.6-.2-6.6c-2.1-1.5-4.6-1.3-6.6.7q-2.6 3.6.2 6.6"/><path fill="#fff" d="m359.4 443.4-2.2 6.6 3.5 1.5z"/><path fill="#fff" d="m359.4 443.4 2.3 7-3.5.8z"/><path fill="#fff" d="m366.5 449-7.4-.7v3.6z"/><path fill="#fff" d="m366.5 449-6 3.7-2.2-3.1z"/><path fill="#fff" d="m352.4 447.7 6 4.8 2.2-2.7z"/><path fill="#fff" d="m352.4 447.7 7.4.7v3.6z"/><path fill="#fff" d="m363.8 456.8-2.3-7-3.5.7z"/><path fill="#fff" d="m363.8 456.8-6-4.8 2.2-2.7z"/><path fill="#fff" d="m355 456 6-3.7-2.1-3.1z"/><path fill="#fff" d="m355 456 2.4-6.7 3.5 1.5zm19.7 59.6-2.3 6.6 3.5 1.5z"/><path fill="#fff" d="m374.7 515.6 2.2 7.1-3.5.7z"/><path fill="#fff" d="m381.7 521.4-7.4-.8v3.6z"/><path fill="#fff" d="m381.7 521.4-6 3.5-2.2-3.1z"/><path fill="#fff" d="m367.6 519.8 6 5 2.2-2.7z"/><path fill="#fff" d="m367.6 519.8 7.4.8v3.6z"/><path fill="#fff" d="m379 529.2-2.3-7.2-3.5.8z"/><path fill="#fff" d="m379 529.2-6-5 2.2-2.6z"/><path fill="#fff" d="m370.3 528.2 6-3.6-2.2-3.2z"/><path fill="#fff" d="m370.3 528.2 2.3-6.6 3.5 1.5zm-16.7 1.5-2 5.5 3 1.2z"/><path fill="#fff" d="m353.6 529.7 1.9 5.9-3 .6z"/><path fill="#fff" d="m359.4 534.4-6.1-.6v3z"/><path fill="#fff" d="m359.4 534.4-5 3-1.8-2.5z"/><path fill="#fff" d="m347.7 533.3 5 4 1.8-2.3z"/><path fill="#fff" d="m347.7 533.3 6.2.6v3z"/><path fill="#fff" d="m357.2 541-2-6-2.8.7z"/><path fill="#fff" d="m357.2 541-5-4.1 1.8-2.2z"/><path fill="#fff" d="m350 540.2 5-3-1.9-2.6z"/><path fill="#fff" d="m350 540.2 1.9-5.5 2.9 1.2zm41.5-29.1-1 3.1 1.6.8z"/><path fill="#fff" d="m391.5 511.1 1.1 3.4-1.7.3z"/><path fill="#fff" d="m394.9 513.9-3.5-.4v1.7z"/><path fill="#fff" d="m394.9 513.9-2.9 1.7-1-1.6z"/><path fill="#fff" d="m388.2 513 2.8 2.4 1-1.2z"/><path fill="#fff" d="m388.2 513 3.5.5v1.7z"/><path fill="#fff" d="m393.6 517.6-1-3.4-1.8.3z"/><path fill="#fff" d="m393.6 517.6-2.9-2.4 1-1.3z"/><path fill="#fff" d="m389.5 517 2.8-1.6-1-1.5z"/><path fill="#fff" d="m389.5 517 1-3 1.7.7zm21 21-1.9 5.4 3 1.3z"/><path fill="#fff" d="m410.5 538 1.9 5.9-3 .5z"/><path fill="#fff" d="m416.4 542.9-6.2-.9v3z"/><path fill="#fff" d="m416.4 542.9-5 2.8-1.8-2.7z"/><path fill="#fff" d="m404.7 541.3 5 4.2 1.7-2.2z"/><path fill="#fff" d="m404.7 541.3 6.1.8v3z"/><path fill="#fff" d="m414.1 549.3-1.9-6-3 .5z"/><path fill="#fff" d="m414.1 549.3-5-4.2 1.8-2.2z"/><path fill="#fff" d="m406.9 548.3 5-2.9-1.8-2.6z"/><path fill="#fff" d="m406.9 548.3 1.9-5.5 3 1.4zm-1.5 6.8-1.6 4.4 2.4 1z"/><path fill="#fff" d="m405.4 555.1 1.5 4.8-2.4.4z"/><path fill="#fff" d="m410 559-4.9-.6v2.4z"/><path fill="#fff" d="m410 559-4 2.4-1.4-2.2z"/><path fill="#fff" d="m400.7 557.9 4 3.3 1.4-1.8z"/><path fill="#fff" d="m400.7 557.9 4.9.6v2.4z"/><path fill="#fff" d="m408.2 564.2-1.5-4.8-2.3.5z"/><path fill="#fff" d="m408.2 564.2-4-3.3 1.5-1.8z"/><path fill="#fff" d="m402.5 563.5 4-2.4-1.5-2z"/><path fill="#fff" d="m402.5 563.5 1.5-4.4 2.3 1zm151-114.7-2.4 6.5 3.5 1.7z"/><path fill="#fff" d="m553.4 448.8 2.3 7.2-3.5.6z"/><path fill="#fff" d="m560.4 454.8-7.3-1v3.5z"/><path fill="#fff" d="m560.4 454.8-6 3.4-2.1-3.2z"/><path fill="#fff" d="m546.4 452.8 6 5 2.1-2.5z"/><path fill="#fff" d="m546.4 452.8 7.4 1v3.7z"/><path fill="#fff" d="m557.8 462.5-2.3-7.2-3.5.6z"/><path fill="#fff" d="m557.8 462.5-6-5.1 2.2-2.6z"/><path fill="#fff" d="m549 461.2 6-3.3-2.1-3.3z"/><path fill="#fff" d="m549 461.2 2.4-6.5 3.5 1.6zm71.7 107.7-2.3 6.6 3.5 1.5z"/><path fill="#fff" d="m620.7 568.9 2.2 7-3.5.8z"/><path fill="#fff" d="m627.7 574.6-7.4-.8v3.6z"/><path fill="#fff" d="m627.7 574.6-6 3.6-2.2-3.2z"/><path fill="#fff" d="m613.6 573 6 5 2.2-2.7z"/><path fill="#fff" d="m613.6 573 7.4.9v3.6z"/><path fill="#fff" d="m625 582.4-2.3-7.1-3.5.7z"/><path fill="#fff" d="m625 582.4-6-5 2.2-2.6z"/><path fill="#fff" d="m616.3 581.4 6-3.5-2.2-3.2z"/><path fill="#fff" d="m616.3 581.4 2.3-6.6 3.5 1.5zm28.3-6-1.6 4.4 2.4 1z"/><path fill="#fff" d="m644.6 575.4 1.5 4.7-2.4.5z"/><path fill="#fff" d="m649.2 579.2-4.9-.5v2.4z"/><path fill="#fff" d="m649.2 579.2-4 2.4-1.4-2z"/><path fill="#fff" d="m639.9 578.3 4 3.2 1.4-1.8z"/><path fill="#fff" d="m639.9 578.3 4.9.5v2.4z"/><path fill="#fff" d="m647.5 584.4-1.6-4.7-2.3.5z"/><path fill="#fff" d="m647.5 584.4-4-3.2 1.4-1.8z"/><path fill="#fff" d="m641.7 583.8 4-2.4-1.5-2z"/><path fill="#fff" d="m641.7 583.8 1.5-4.4 2.3 1zm-14 2-2 5.4 3 1.3z"/><path fill="#fff" d="m627.7 585.7 1.9 6-3 .5z"/><path fill="#fff" d="m633.5 590.5-6.1-.7v3z"/><path fill="#fff" d="m633.5 590.5-5 3-1.8-2.6z"/><path fill="#fff" d="m621.8 589.2 5 4.1 1.8-2.2z"/><path fill="#fff" d="m621.8 589.2 6.2.7v3z"/><path fill="#fff" d="m631.3 597-1.9-6-3 .7z"/><path fill="#fff" d="m631.3 597-5-4.1 1.8-2.2z"/><path fill="#fff" d="m624 596.2 5-3-1.8-2.6z"/><path fill="#fff" d="m624 596.2 2-5.5 2.9 1.2zm-37.8 19.6-1.9 5.5 3 1.3z"/><path fill="#fff" d="m586.2 615.8 2 6-3 .5z"/><path fill="#fff" d="m592 620.7-6-.8v3z"/><path fill="#fff" d="m592 620.7-5 2.9-1.7-2.7z"/><path fill="#fff" d="m580.4 619.2 5 4.1 1.8-2.1z"/><path fill="#fff" d="m580.4 619.2 6.1.8v3z"/><path fill="#fff" d="m589.8 627.1-1.9-6-2.9.6z"/><path fill="#fff" d="m589.8 627.1-5-4.2 1.9-2.1z"/><path fill="#fff" d="m582.6 626.2 5-2.9-1.8-2.7z"/><path fill="#fff" d="m582.6 626.2 1.9-5.5 3 1.3zm3.4 7.7-1.5 4.3 2.3 1.1z"/><path fill="#fff" d="m586 633.9 1.5 4.8-2.3.4z"/><path fill="#fff" d="m590.7 637.8-5-.6v2.4z"/><path fill="#fff" d="m590.7 637.8-4 2.3-1.5-2.1z"/><path fill="#fff" d="m581.3 636.6 4 3.3 1.4-1.7z"/><path fill="#fff" d="m581.3 636.6 5 .6v2.4z"/><path fill="#fff" d="m588.9 643-1.5-4.8-2.4.4z"/><path fill="#fff" d="m588.9 643-4-3.4 1.4-1.7z"/><path fill="#fff" d="m583 642.2 4-2.3-1.4-2.1z"/><path fill="#fff" d="m583 642.2 1.6-4.4 2.3 1zm20.3-36.2-1.5 4.4 2.3 1z"/><path fill="#fff" d="m603.3 606 1.5 4.7-2.3.5z"/><path fill="#fff" d="m608 609.9-5-.6v2.4z"/><path fill="#fff" d="m608 609.9-4 2.3-1.4-2.1z"/><path fill="#fff" d="m598.6 608.7 4 3.3 1.5-1.7z"/><path fill="#fff" d="m598.6 608.7 5 .6v2.4z"/><path fill="#fff" d="m606.2 615-1.5-4.7-2.3.4z"/><path fill="#fff" d="m606.2 615-4-3.3 1.5-1.8z"/><path fill="#fff" d="m600.4 614.3 4-2.3-1.4-2.2z"/><path fill="#fff" d="m600.4 614.3 1.5-4.4 2.4 1zm16.7-16.3-1.9 5.5 3 1.3z"/><path fill="#fff" d="m617.1 598 2 6-3 .5z"/><path fill="#fff" d="m623 602.8-6.2-.7v3z"/><path fill="#fff" d="m623 602.8-5 3-1.8-2.7z"/><path fill="#fff" d="m611.3 601.5 5 4 1.8-2.1z"/><path fill="#fff" d="m611.3 601.5 6.1.7v3z"/><path fill="#fff" d="m620.8 609.3-2-6-2.9.6z"/><path fill="#fff" d="m620.8 609.3-5-4.1 1.8-2.3z"/><path fill="#fff" d="m613.5 608.4 5-3-1.8-2.6z"/><path fill="#fff" d="m613.5 608.4 2-5.5 2.8 1.3zm-28-8-1.5 4.4 2.3 1z"/><path fill="#fff" d="m585.5 600.5 1.5 4.7-2.3.4z"/><path fill="#fff" d="m590.2 604.4-5-.7v2.4z"/><path fill="#fff" d="m590.2 604.4-4 2.3-1.4-2.2z"/><path fill="#fff" d="m580.8 603.1 4 3.4 1.5-1.8z"/><path fill="#fff" d="m580.8 603.1 5 .7v2.4z"/><path fill="#fff" d="m588.4 609.5-1.5-4.8-2.3.5z"/><path fill="#fff" d="m588.4 609.5-4-3.3 1.5-1.8z"/><path fill="#fff" d="m582.6 608.7 4-2.2-1.4-2.2z"/><path fill="#fff" d="m582.6 608.7 1.5-4.3 2.4 1zM434.4 491l-1.9 5.4 3 1.3z"/><path fill="#fff" d="m434.4 491 1.9 6-3 .4z"/><path fill="#fff" d="m440.3 496-6.2-1v3z"/><path fill="#fff" d="m440.3 496-5 2.7-1.8-2.6z"/><path fill="#fff" d="m428.6 494.3 5 4.2 1.7-2.2z"/><path fill="#fff" d="m428.6 494.3 6.1.8v3z"/><path fill="#fff" d="m438 502.3-1.9-6-3 .6z"/><path fill="#fff" d="m438 502.3-5-4.2 1.8-2.2z"/><path fill="#fff" d="m430.8 501.3 5-2.8-1.8-2.7z"/><path fill="#fff" d="m430.8 501.3 1.9-5.4 3 1.3zm116-7.4-1.5 4.3 2.4 1.1z"/><path fill="#fff" d="m546.9 493.9 1.5 4.8-2.4.4z"/><path fill="#fff" d="m551.5 498-4.9-.8v2.4z"/><path fill="#fff" d="m551.5 498-4 2.2-1.4-2.2z"/><path fill="#fff" d="m542.2 496.5 4 3.4 1.4-1.7z"/><path fill="#fff" d="m542.2 496.5 4.9.8v2.4z"/><path fill="#fff" d="m549.8 503-1.6-4.8-2.3.4z"/><path fill="#fff" d="m549.8 503-4-3.4 1.4-1.7z"/><path fill="#fff" d="m544 502.2 4-2.3-1.5-2.1z"/><path fill="#fff" d="m544 502.2 1.5-4.4 2.3 1.1zm-44 66-2.3 6.5 3.5 1.7z"/><path fill="#fff" d="m500 568.2 2.3 7.2-3.5.6z"/><path fill="#fff" d="m507 574.3-7.4-1.1v3.5z"/><path fill="#fff" d="m507 574.3-6 3.3-2.1-3.3z"/><path fill="#fff" d="m493 572.1 6 5.2 2.1-2.6z"/><path fill="#fff" d="m493 572.1 7.4 1.2v3.6z"/><path fill="#fff" d="m504.3 582-2.2-7.3-3.6.6z"/><path fill="#fff" d="m504.3 582-6-5.2 2.2-2.6z"/><path fill="#fff" d="m495.7 580.6 6-3.3-2.2-3.3z"/><path fill="#fff" d="m495.7 580.6 2.2-6.5 3.6 1.6zm24.2-41.5-1.9 5.4 3 1.4z"/><path fill="#fff" d="m520 539.1 1.8 6-3 .5z"/><path fill="#fff" d="m525.8 544.2-6.2-1v3z"/><path fill="#fff" d="m525.8 544.2-5 2.7-1.8-2.7z"/><path fill="#fff" d="m514 542.4 5 4.3 1.9-2.2z"/><path fill="#fff" d="m514 542.4 6.2 1v3z"/><path fill="#fff" d="m523.5 550.5-1.9-6-2.9.5z"/><path fill="#fff" d="m523.5 550.5-5-4.3 1.9-2.1z"/><path fill="#fff" d="m516.3 549.4 5-2.7-1.8-2.7z"/><path fill="#fff" d="m516.3 549.4 1.9-5.4 3 1.4zM500 521l-1.9 5.4 3 1.4z"/><path fill="#fff" d="m500 521 1.9 6-3 .5z"/><path fill="#fff" d="m505.9 526-6.2-1v3z"/><path fill="#fff" d="m505.9 526-5 2.8-1.8-2.7z"/><path fill="#fff" d="m494.2 524.2 5 4.3 1.7-2.1z"/><path fill="#fff" d="m494.2 524.2 6.1 1v3z"/><path fill="#fff" d="m503.6 532.4-1.9-6-3 .5z"/><path fill="#fff" d="m503.6 532.4-5-4.3 1.8-2.2z"/><path fill="#fff" d="m496.4 531.3 5-2.8-1.8-2.7z"/><path fill="#fff" d="m496.4 531.3 1.9-5.4 3 1.3zm-13.7 3.3-1.6 4.3 2.4 1.1z"/><path fill="#fff" d="m482.7 534.6 1.5 4.8-2.4.4z"/><path fill="#fff" d="m487.3 538.6-4.9-.7v2.4z"/><path fill="#fff" d="m487.3 538.6-4 2.2-1.4-2.1z"/><path fill="#fff" d="m478 537.2 4 3.4 1.4-1.7z"/><path fill="#fff" d="m478 537.2 4.9.7v2.4z"/><path fill="#fff" d="M485.6 543.7 484 539l-2.3.4z"/><path fill="#fff" d="m485.6 543.7-4-3.4 1.4-1.7z"/><path fill="#fff" d="m479.8 542.8 4-2.2-1.5-2.2z"/><path fill="#fff" d="m479.8 542.8 1.5-4.3 2.3 1zm11.5 6.1-1 3.1 1.6.8z"/><path fill="#fff" d="m491.3 549 1.1 3.4-1.7.2z"/><path fill="#fff" d="m494.7 551.8-3.5-.5v1.7z"/><path fill="#fff" d="m494.7 551.8-2.9 1.6-1-1.5z"/><path fill="#fff" d="m488 550.8 2.8 2.5 1-1.3z"/><path fill="#fff" d="m488 550.8 3.5.5v1.7z"/><path fill="#fff" d="m493.4 555.5-1-3.5-1.8.3z"/><path fill="#fff" d="m493.4 555.5-2.8-2.5 1-1.2z"/><path fill="#fff" d="m489.3 554.8 2.8-1.5-1-1.6z"/><path fill="#fff" d="m489.3 554.8 1-3 1.7.7zm62.2 60.2-1.9 5.4 3 1.4z"/><path fill="#fff" d="m551.5 615 2 6-3 .5z"/><path fill="#fff" d="m557.4 620-6.2-.9v3z"/><path fill="#fff" d="m557.4 620-5 2.8-1.8-2.7z"/><path fill="#fff" d="m545.7 618.3 5 4.2 1.8-2.1z"/><path fill="#fff" d="m545.7 618.3 6.1.9v3z"/><path fill="#fff" d="m555.2 626.4-2-6-2.9.5z"/><path fill="#fff" d="m555.2 626.4-5-4.3 1.8-2.1z"/><path fill="#fff" d="m548 625.3 4.9-2.8-1.8-2.7z"/><path fill="#fff" d="m548 625.3 1.8-5.4 3 1.4zm18.3-21.8-1.5 4.3 2.3 1.1z"/><path fill="#fff" d="m566.3 603.5 1.5 4.8-2.3.4z"/><path fill="#fff" d="m571 607.5-5-.7v2.4z"/><path fill="#fff" d="m571 607.5-4 2.2-1.4-2.1z"/><path fill="#fff" d="m561.6 606.1 4 3.4 1.5-1.7z"/><path fill="#fff" d="m561.6 606.1 5 .7v2.4z"/><path fill="#fff" d="m569.2 612.6-1.5-4.8-2.4.4z"/><path fill="#fff" d="m569.2 612.6-4-3.4 1.5-1.7z"/><path fill="#fff" d="m563.4 611.8 4-2.3-1.4-2.1z"/><path fill="#fff" d="m563.4 611.8 1.5-4.4 2.4 1zM538 595.2l-1.6 4.3 2.4 1.1z"/><path fill="#fff" d="m538 595.2 1.5 4.8-2.4.4z"/><path fill="#fff" d="m542.6 599.2-4.9-.7v2.4z"/><path fill="#fff" d="m542.6 599.2-4 2.2-1.4-2.1z"/><path fill="#fff" d="m533.3 597.8 4 3.4 1.4-1.7z"/><path fill="#fff" d="m533.3 597.8 4.9.7v2.4z"/><path fill="#fff" d="m540.9 604.3-1.6-4.8-2.3.4z"/><path fill="#fff" d="m540.9 604.3-4-3.4 1.4-1.7z"/><path fill="#fff" d="m535 603.4 4-2.2-1.4-2.1z"/><path fill="#fff" d="m535 603.4 1.6-4.3 2.3 1.1zm-104-31.9-2.3 6.6 3.5 1.6z"/><path fill="#fff" d="m430.9 571.5 2.3 7.2-3.5.6z"/><path fill="#fff" d="m437.9 577.5-7.4-1v3.6z"/><path fill="#fff" d="m437.9 577.5-6 3.4-2.1-3.2z"/><path fill="#fff" d="m423.9 575.5 6 5.1 2.1-2.6z"/><path fill="#fff" d="m423.9 575.5 7.4 1v3.7z"/><path fill="#fff" d="M435.2 585.2 433 578l-3.5.6z"/><path fill="#fff" d="m435.2 585.2-6-5.1 2.2-2.6z"/><path fill="#fff" d="m426.6 584 6-3.4-2.2-3.3z"/><path fill="#fff" d="m426.6 584 2.2-6.6 3.5 1.6zm73.4 45-.8 2.2 1.2.5z"/><path fill="#fff" d="m500 629 .8 2.4-1.2.2z"/><path fill="#fff" d="m502.3 631-2.4-.3v1.2z"/><path fill="#fff" d="m502.3 631-2 1.1-.7-1z"/><path fill="#fff" d="m497.7 630.3 2 1.7.7-.8z"/><path fill="#fff" d="m497.7 630.3 2.4.4v1.2z"/><path fill="#fff" d="m501.5 633.6-.8-2.4-1.2.2z"/><path fill="#fff" d="m501.5 633.6-2-1.7.7-.9z"/><path fill="#fff" d="m498.6 633.2 2-1.2-.8-1z"/><path fill="#fff" d="m498.6 633.2.7-2.2 1.2.5z"/><path fill="#1a1a1a" d="M8 195.3c170.8-85.3 341-54.5 513.3-28C676.5 191 833.4 211.8 992 132.7v672c-170.8 85.3-341 54.5-513.3 28C323.5 809 166.6 788.1 8 867.2zm31.3 19.3v604.5c306.5-128.2 611.1 96 921.5-33.7V180.9C654.2 309 349.5 84.9 39.3 214.6" opacity=".2"/></svg>