<svg xmlns="http://www.w3.org/2000/svg" viewBox="0 0 1000 1000"><path fill="#ffd520" d="M8 195.3c170.8-85.3 341-54.5 513.3-28C676.5 191 833.4 211.8 992 132.7v672c-170.8 85.3-341 54.5-513.3 28C323.5 809 166.6 788.1 8 867.2z"/><path fill="#ff4e12" d="M8 867.3c170.8-85.3 341-54.5 513.3-28C676.5 863 833.4 883.9 992 804.8v-672C817.6 338.8 643.6 423.7 467.8 517 316 597.6 163 684.1 8 867.3"/><path fill="#fff" d="M534.7 379.4q-8.6-4.1-8.8 6.8c.4 7.5 3.7 11.6 9.3 10z"/><path d="M535 379.3v.1l.5 17.1h-.1c-3 1-5 .4-7-1.7a14 14 0 0 1-2.8-8.6q0-5.5 2.4-7.4 2.5-1.7 6.8.4zm-.6.3c-2.7-1.2-4.4-1.3-6-.3-1.6 1.3-2.2 3.3-2.2 7q.3 5.4 2.6 8.2c1.8 1.8 3.5 2.3 6.1 1.6z"/><path fill="#fff" d="M539.5 366.7q-7.2-6.6-10.9 3c-2 7 0 11.8 6.1 12.3z"/><path d="M539.8 366.6v.1l-4.8 15.6h-.2c-3.2-.2-5-1.3-6.4-4q-1.6-3.4 0-8.6c1.1-3.5 2.5-5.1 4.6-5.9 2.2-.4 4.1.3 6.7 2.7zm-.6.1c-2.3-2-4-2.7-6-2.3q-2.8.9-4.3 5.5-1.5 5 0 8.3c1.2 2.3 2.8 3.3 5.6 3.5z"/><path fill="#fff" d="M547 354.7q-6.2-7.5-11.4 1.2c-3 6.3-1.9 11.3 4.2 12.8z"/><path d="M547.3 354.6h-.2l.2.3L540 369h-.2c-3.2-.7-4.8-2.1-5.8-4.8-.7-2.6-.3-5.1 1.3-8.4 1.8-3.2 3.4-4.5 5.7-4.9 2.2 0 4 1 6.3 3.7m-.6.1q-2.8-3.3-5.6-3.2c-2.1.4-3.6 1.6-5.3 4.6q-2.2 4.5-1.3 8 1.2 3.4 5.2 4.3z"/><path fill="#fff" d="M542 417.5c-6.6 2-7.2 10.4-3 17.2 4.5 6.5 11.5 8.5 16.1 2.4l-13-19.6z"/><path d="m541.9 417.3.2-.3 13.4 20.2-.1.1c-2.4 3.1-4.7 4.2-8.4 3.6q-4.9-1-8.3-6c-2.2-3.6-3-6.9-2.6-10.7.8-4 2.4-6 5.8-7m.1.6c-3.1 1-4.6 2.8-5.3 6.6a15 15 0 0 0 2.5 10.2c2.3 3.3 4.6 5 7.8 5.8 3.4.4 5.6-.5 7.8-3.3z"/><path fill="#fff" d="M534.4 396.5c-6.6-2.8-11.8 4.5-13 12.4-1.7 9.8-14.6 10.8-7.5 27 1.9-9.4 7.6-13.3 12.7-13.2 5.2.4 12 .4 15.5-5.2z"/><path d="m534.3 396.2.2-.1 8 21.5h-.2c-2.5 4.3-7.4 6-15.7 5.4a10 10 0 0 0-7.4 3 18 18 0 0 0-5 10l-.1.9-.4-.9q-3.2-6.9-1.9-11.7.8-3 4.6-7.2a18 18 0 0 0 4.6-8.2c.7-4.4 2.1-7.6 4.6-10.5 3-3 5.4-3.6 8.7-2.2m-.2.5c-3-1.2-5.3-.6-8 2.2q-3.7 4-4.5 10.1-.5 3.6-4.8 8.6-3.5 4.1-4.4 6.9-1.2 4.4 1.4 10.5c1-4.1 2.5-7 5-9.5 2.6-2.3 4.9-3.2 7.8-3 8 .5 12.6-1 15.2-5z"/><path fill="#fff" d="M554.4 438c-7.4 1.2-8.3 10.4-3.2 18.7 5.1 6.8 18 7.5 18.3 1.2z"/><path d="M554.7 437.8v.2l15.1 19.9c0 3.5-2.1 4.8-7.5 4.6-5.4-.4-8.8-2.1-11.3-5.6a18 18 0 0 1-3.2-12.3c.8-4.3 2.7-6.2 6.6-6.8zm-.4.6c-3.5.6-5.2 2.4-6 6.4-.4 4 .5 7.6 3.2 11.8 2.4 3.3 5.6 5 10.7 5.3s7-1 7-3.9z"/><path fill="#fff" d="M575.4 501.9c-.2-6.6-9.5-10.2-14.8-9.9-5.3.4-14-2.2-16.6-8-1.5 4.3.7 8.8 8 12.5 5.3 3 5.2 6.2 3.7 8.1 4.4 1.4 15.5 2.9 19.7-2.8"/><path d="M575.7 501.9v.1c-2 2.7-4.9 4-10 4.2q-5.5.1-10.1-1.3l-.5-.2.3-.3q1.4-1.4.8-3.4-1-2.6-4.3-4.2a18 18 0 0 1-7.5-6.2c-1.3-2.5-1.5-4.4-.6-6.8l.2-.6.3.7c1.2 2.6 3.2 4.5 7 6.2q5.1 2 9.2 1.6 4.4-.3 9.6 2.3c4 2.4 5.5 4.6 5.5 7.9zm-.6-.2c0-3-1.6-5-5.3-7.1a17 17 0 0 0-9.2-2.3q-4.2.3-9.4-1.7a14 14 0 0 1-7.1-5.9 7 7 0 0 0 .8 5.7q2.1 3.4 7.1 5.8c2.6 1.4 4 2.7 4.7 4.7q.6 2.1-.5 3.6 4.3 1.2 9.4 1.1c4.9-.3 7.7-1.4 9.5-3.9"/><path fill="#fff" d="M569.6 459.6c-7.5-4-11.3-.2-14.3 4.4-4.6 6-16-4-20.8 4.3 6-1.2 11.4 4.3 14.3 6.8 8.1 6.4 22.2 7 24.8-5z"/><path d="m569.7 459.3-.1.3.2-.1 4.1 10.6c-1.2 5.9-4.4 8.8-10.5 9.7-5.7.5-10.2-.9-14.8-4.5l-1.3-1c-5.4-4.8-9.3-6.5-12.6-5.7l-.7.2.3-.7a6 6 0 0 1 5-3.6q2-.3 6.6.7c5.1 1 7.7.5 9.2-1.4 4-6.2 8.3-7.6 14-4.8l-.1-.1zm-.4.5c-5.6-3-9.7-1.7-13.8 4.4-1.5 2-4.3 2.5-9.7 1.6q-4.4-.9-6.4-.7-2.8.4-4.3 2.8c3.5-.4 7.3 1.3 12.6 5.9l1.2 1.1a19 19 0 0 0 14.3 4.3c6-.9 9-3.6 10.1-9.2z"/><path fill="#fff" d="M573.8 468.8c-7.3 4.8-10 10.7-9.9 15.4.5 4.9 6.2 14.9 13 16.8 4-8 5.7-24-3.1-32.2"/><path d="M573.7 468.5h.2v.1c4.2 3.8 6.3 8.9 6.6 16.4q0 9.3-3.3 16.1v.2h-.3q-4.6-1.2-9.1-7.4-4-5.8-4.2-9.7c0-6.2 3-11 10-15.6zm0 .7c-6.6 4.4-9.6 9-9.5 15q.2 3.7 4 9.4c3 4 5.6 6.2 8.6 7q3.3-6.6 3.1-15.7c-.3-7.2-2.2-12-6.1-15.7"/><path fill="#fff" d="M543.9 499.3c.4-2.8 3.5-3.2 6.5-2 3 1.6 6.2 4.3 5.3 7.3z"/><path d="M543.6 499.2q0-2.1 2.4-2.7a7 7 0 0 1 4.5.6q2.5 1.3 4.2 3.2c1.5 1.8 1.8 3 1.2 4.5l-.1.2-12-5.4h-.2zm.6-.1 11.3 5.1q.6-1.4-1.2-3.5a14 14 0 0 0-4-3 6 6 0 0 0-4-.6q-2 .6-2.1 2"/><path fill="#fff" d="M504 478.4c-.3-3.6 4.1-7.8 11.3-4 7 4.5 7.7 9.8 5 12z"/><path d="M503.8 478.4q-.6-3.1 3-5c2.7-1.4 5.2-1.2 8.7.7a14 14 0 0 1 6.2 7.1c.8 2.7.4 4.2-1.3 5.5v.1l-16.5-8.2zm.5-.2 16 8c1.3-1.2 1.5-2.5.9-4.9q-1.3-3.7-6-6.7c-3.2-1.8-5.5-2-8.2-.7q-3 1.6-2.7 4.3"/><path fill="#fff" d="M520.8 487c-.2-2.1 4.1-4.6 12.9-1.4 8.4 3.8 10.3 9.1 10.1 13.7z"/><path d="M523.8 484q4.2-1 10 1.4c7.4 3.2 10.6 7.5 10.3 14v.3l-24-12.9h.4q-.3-2 3.3-2.8m-2.8 2.8 22.6 12c0-6-3-9.8-10-12.9a17 17 0 0 0-9.6-1.3q-3.2.7-3 2.2"/><path fill="#fff" d="M503.2 478.3c4.3-3.2 2.8-9.1-1.2-12.1-7-5.1-4.9-13.3-9.2-16.2-4.7-2.8-8.6-6.3-9.1-9.7-2.2 4.4-1 8.2 2.3 11.9 2.7 3.7-2 13.8 1.5 17.9z"/><path d="M503.4 478.5v.1l-16-8.3c-1.5-1.6-1.9-4.5-1.2-10 .6-4.5.4-6.8-.4-8-3.9-4.3-4.5-7.9-2.4-12.2l.5-.9v1c.5 3.3 3 6.1 9 9.5q2.2 1.3 3.5 6.5c1.4 5 3 7.8 5.7 9.7a9 9 0 0 1 4 6.3c.2 3-.5 4.7-2.7 6.3m-.2-.6c1.9-1.4 2.6-3 2.2-5.7a8 8 0 0 0-3.6-5.8c-2.7-2-4.5-5-6-10.1q-1.2-5-3-6c-5.6-3.2-8.4-6-9.3-9-1.5 3.7-.7 6.9 2.7 10.7 1 1.3 1.2 3.8.6 8.5-.7 5.2-.4 7.9.9 9.3z"/><path fill="#fff" d="M408.9 461.8a11 11 0 0 0-16.2-2.8c-3.6 4-3.2 9.5.3 13z"/><path d="m409 461.4.2-.2-.1 1.5-.3-.5-15.8 10.2-.1-.1a9.4 9.4 0 0 1-.4-13.5c2.2-2 4.6-2.8 8.3-2.5 3.7.6 6.1 2 8.1 5.1m-.4.3a10 10 0 0 0-7.7-4.8c-3.5-.3-5.8.4-8 2.3a9 9 0 0 0-2.4 6.6q.3 3.6 2.6 5.9z"/><path fill="#fff" d="M430 455.9c-1.9-8.2-10.4-10.2-15.9-9-5.2 1.6-8.4 8.4-5.2 15z"/><path d="M430.3 455.9h-.3v.3l-21.3 6v-.3a11 11 0 0 1-.6-9.5c1.4-3.3 3.1-5 6-5.8a15 15 0 0 1 9.4 1c4 1.9 6 4.3 6.8 8.3m-.6-.2c-1-3.6-2.7-5.8-6.3-7.6-3.3-1.4-6-1.6-9.2-1q-3.8 1-5.6 5.5a11 11 0 0 0 .4 8.9z"/><path fill="#fff" d="M444 456.8c3.1-6.6-3-16.6-10.5-19.5-6.4-2.1-13.1-3.2-15.8-9.6-1.2 5.3 2.3 9 7 12.8 4.2 4.1-.5 10.5 6.5 16.4z"/><path d="m444.3 457-.2-.1v.2l-13 .1c-2.9-2.4-4.2-5.4-4.5-10.2-.2-3.3-.8-5-2-6.2-6-5-8.2-9-7.2-13.3l.2-.8.3.9q1.4 3.4 5 5.6 2.2 1.2 7.5 2.8l3.2 1c3.9 1.5 6.8 4 9.5 8.5 2.5 4.8 2.8 8.2 1.2 11.5m-.4-.5q2.1-4.3-1.3-10.7a18 18 0 0 0-9.1-8.3l-3.2-1q-5.4-1.5-7.6-2.8a12 12 0 0 1-5-5.1c-.3 3.7 1.8 7.2 7.2 11.7q2 1.8 2.3 6.7c.2 4.6 1.5 7.4 4 9.7z"/><path fill="#fff" d="M443.4 457c-1.3-5.4 1.4-10.6 7.9-9.6 6.5 1.7 9.6 6.4 7.1 12.1z"/><path d="M443.1 457c-.8-3-.5-5 1-7.4 1.9-2.3 4-3 7.2-2.5 3.4.9 5.5 2.3 7.2 4.7 1.5 2.7 1.5 5 .2 7.9l-.1.2-15.2-2.6v-.3zm.5-.3 14.6 2.5c1.2-2.7 1.2-4.7-.2-7.1a11 11 0 0 0-6.7-4.4c-3.1-.5-5 .1-6.7 2.3a8 8 0 0 0-1 6.7"/><path fill="#fff" d="M457.4 459.4c-.6-5.3 2.9-10 9.3-8 6.4 2.6 9 7.6 5.6 12.8z"/><path d="M457.2 459.4c-.4-3 .2-5 2-7 2.2-2 4.4-2.4 7.6-1.3q4.8 1.8 6.6 5.6c1.2 2.8 1 5-.9 7.7l-15.3-4.8zm.5-.2 14.5 4.6a7 7 0 0 0 .7-7q-1.6-3.4-6.2-5.2c-3-1-5-.6-7 1.2a7 7 0 0 0-2 6.4"/><path fill="#fff" d="M471.4 463.8c-.3-5.3 3.4-9.8 9.8-7.5 6.2 3 8.6 8 5 13z"/><path d="M471.1 463.8c-.2-3 .5-5 2.5-6.9 2.3-1.8 4.4-2 7.6-.9 3.3 1.6 5.2 3.3 6.4 6 1 2.8.7 5-1.2 7.5l-.1.1-14.7-5.5-.3.8zm.6-.2L486 469c1.7-2.4 2-4.3 1.1-6.9a11 11 0 0 0-6-5.5c-3-1.1-5-.9-7.1.8a7 7 0 0 0-2.3 6.2"/><path fill="#fff" d="M365.2 532.1c-11.9-1.1-14.6 1.4-16.4 13.7-1.6 15.3 18 19.1 16.4-13.7"/><path d="M365.2 531.8h.3v.3q.6 11.5-2 18.3c-1.7 4-3.6 6-6.4 6.9-2.7.6-4.5-.1-6.5-2.4-1.9-2.5-2.5-5.2-2-9.1 1-6.4 2.3-10.1 4.4-12.1 2.4-1.8 6.1-2.4 12.2-1.9m-.3.6c-5.7-.5-9.2 0-11.5 1.7-2 2-3.3 5.6-4.3 11.8-.4 3.7.2 6.3 2 8.7q2.4 3 5.8 2.1c2.7-.9 4.4-2.8 6-6.6a44 44 0 0 0 2-17.7"/><path fill="#fff" d="M370.5 516.5c-18.3-8.5-27.8 18.9-46 12.9 7 10.5 21.7 2.1 27.9 3.4 10.1 2.6 30.7 1.5 18-16.3"/><path d="M370.2 516v-.4l.5.7c3.1 4.4 4.3 7.6 4.1 10.6-.4 2.6-1.8 4.2-4.7 5.7a27 27 0 0 1-17.8.5q-1.9-.4-7.9.7a47 47 0 0 1-10.9 1.3c-4.3-.5-7-2.2-9.2-5.6l-.4-.6.7.2c4 1.3 7.6 1.2 11.8-.4a61 61 0 0 0 10.4-6.6q7.1-5.2 11-6.7c4.4-1.4 8.2-1.2 12.4.6m.1.7q-6.1-2.9-12.2-.7-3.9 1.4-11 6.6-6.7 5-10.5 6.7a17 17 0 0 1-11.4.6c2.1 2.8 4.5 4.1 8.3 4.6q3.6.2 10.8-1.2a24 24 0 0 1 8.1-.8 26 26 0 0 0 17.5-.5q4-1.8 4.4-5.2.4-4-4-10.1"/><path fill="#fff" d="M358.7 555.4c-9.3-4.5-18.3 7.8-16.9 14.5 2.8 7.7 22.1 3.8 16.9-14.5"/><path d="M358.8 555.2h.1v.2a17 17 0 0 1 .2 11.2 12 12 0 0 1-13 7.2q-3.6-.8-4.6-3.8c-.8-3.9.5-7.4 4.5-11.8 4.5-4.4 8.3-5.3 12.8-3m-.3.4c-4.3-2-7.8-1.2-12 3-4 4.3-5.2 7.6-4.4 11.2q.8 2.8 4.1 3.4 3.4.5 7-1c6-3.4 7.7-8.4 5.3-16.6"/><path fill="#fff" d="M316.8 612.5c5.1 2 10.6 5 9.9 14.8-1.4 9.9-18.8 27.8-35.2 28.7-16.3 1-21.9 20-36 14.9 13-3 13.2-17.3 23.3-22.2-7.5-2.2-11.2 13.6-20.8 14.3-9.5.5-14 15-25.7 15-11.5-.2-13 18.6-36 21.4-18 2.3-39.6 26-47.7 18.8 17.2-5.8 24-16 34.5-28.2 16.8-19 34.8-13 41.5-28.3a49 49 0 0 1-25 9.3c-11 1.2-22.5 19.4-34.8 13.9 7-2.1 11.5-5.6 19-14.4 7.8-8.8 18.4-5.1 27.4-13.8 14-13.7 25.3-3.8 38.7-20-4-1.6-11.3-.3-19 4-7.5 3.9-16.7-1.6-25.3 3.5 1.6-10.7 20.3-6.2 33-13.7 14.1-8.6 25.4-6.3 36.5-5.1-15.3-.7-21.3-15-42.4-10.2-9.4 1.7-16.3-11.7-25.7-4 .7-5.7 9.5-10.6 19.7-5.9 10 4.7 13.7-5.2 33.4 7.2 8.4 4.8 21.8-2.7 30.8 2.9-1.4-3.6-5.9-5.7-12-5.5 4.3-7.7 27-5.8 38 2.6z"/><path d="M317 612.3c7.5 2.9 10.6 7.5 10 15-.8 5.5-4.6 11.2-12 18a38 38 0 0 1-23.5 11q-7.4.3-17.4 8.6a46 46 0 0 1-8.6 6 13 13 0 0 1-10 .3l-1-.4 1-.2q4.7-1 8.2-4.5 2-2 5.3-7.3 4.6-7.6 9-10c-2.4 0-5 1.7-8.6 6.1-4.5 5.6-8 8.1-11.4 8.3q-4.3.2-11 6.9a51 51 0 0 1-6.5 5.7 14 14 0 0 1-8.2 2.4q-3.1 0-6.1 2a44 44 0 0 0-5.3 5.4q-5.3 6-9.2 8.7c-4.5 3-9.4 4.7-15.5 5.4a70 70 0 0 0-24.5 11.1q-9.7 6-13.7 7.8c-4.6 1.8-7.4 1.7-9.7-.2l-.3-.3.5-.2a54 54 0 0 0 17.8-9.8q4.7-4 12.8-13.9l3.7-4.4a50 50 0 0 1 24.4-15.5 65 65 0 0 0 10.3-4.5q4.3-2.8 6.4-7.3a48 48 0 0 1-24.3 8.8 33 33 0 0 0-13.4 7 68 68 0 0 1-10.6 6.7 13 13 0 0 1-11 .1l-.7-.3.8-.2c6-1.8 12-6.4 18.8-14.3 2.8-3 7-5.3 13.5-7q9.6-2.5 14-6.8a30 30 0 0 1 18.5-8.9q6.6-1.3 10-2.8 5.3-2.5 10-8-2.8-1-7.6-.1a38 38 0 0 0-10.8 4.2 23 23 0 0 1-12 1.4q-9.1-.6-13.4 2.1l-.5.3.1-.6c.4-3 1.9-4.7 5-6.3q2.8-1.1 10.3-2.4 12.6-2 18-5.2a42 42 0 0 1 29.5-5.9q-4.2-1.4-9.3-4.2a56 56 0 0 0-11-4.8 32 32 0 0 0-15 .1c-3 .6-6.4-.4-11.5-3.2a27 27 0 0 0-7-3.1q-3.7-.7-7.1 2.3l-.5.5v-.7c.4-3.3 2.2-5.4 6.5-7.2 4.5-1.6 8.7-1.3 13.6 1q3.9 1.9 10.2 1.1 5.5-.7 9.1 0 6.4 1.1 14.2 6.1c2.8 1.6 7.3 2 14.6 1.2q10.8-1.1 15.4 1.3a8 8 0 0 0-3.7-3.2q-3.3-1.5-7.7-1.3h-.5l.2-.5c2.2-3.9 7.3-5.5 16.7-4.9a39 39 0 0 1 21.6 7.5m-.2.5.1-.3za39 39 0 0 0-21.4-7.4c-8.8-.6-13.7.8-16 4.2q4.3 0 7.5 1.3 3.5 1.7 4.4 4.4l.3.8-.7-.5c-3.1-1.9-8-2.5-15.8-1.6-7.4.8-12.1.4-15-1.3a42 42 0 0 0-14-6q-3.5-.8-9 0a19 19 0 0 1-10.4-1.1 16 16 0 0 0-13.3-1c-3.7 1.5-5.4 3.3-6 6a9 9 0 0 1 7.2-2.1q2.4.4 7.2 3.1c4.9 2.8 8.2 3.8 11 3.3a33 33 0 0 1 15.2-.2q4.2 1.2 11.2 4.9 7.4 4 12.8 5.1l3.2.4v.6l-3.3-.4h-.4q-10-1.2-15.4-.6-8.9 1-17.2 6a54 54 0 0 1-18.1 5.3q-7.5 1.2-10.2 2.4-3.9 1.8-4.6 5.2a25 25 0 0 1 13.3-1.9c5.5.4 9.1 0 11.6-1.3q5.5-3.1 11-4.3 5.3-.9 8.3.3l.3.2-.2.3q-4.8 5.8-10.5 8.5-3.4 1.5-10.1 2.8-6 1-9 2.3a30 30 0 0 0-9.2 6.4q-4.5 4.4-14.3 7a26 26 0 0 0-13.1 6.7 45 45 0 0 1-18.4 14.3c3.1 1.2 6 1 9.9-.5a68 68 0 0 0 10.4-6.6 34 34 0 0 1 13.7-7.1q13.5-1 24.8-9.3l.8-.6-.3 1a19 19 0 0 1-7.2 8.5q-3 2-10.4 4.6-7.6 2.8-11.8 5.1a49 49 0 0 0-12.2 10.2l-3.8 4.4q-8 9.8-13 14a54 54 0 0 1-17.4 9.7c2.2 1.4 4.7 1.3 8.8-.3q3.9-1.7 13.5-7.7a71 71 0 0 1 24.9-11.2c5.9-.7 10.7-2.4 15.2-5.3q3.7-2.6 9-8.6 3.5-4 5.4-5.5 3-2.2 6.5-2 4 0 7.8-2.4 2.4-1.5 6.4-5.6c4.8-4.8 8.3-6.9 11.4-7q4.6-.2 11-8.1 3-3.9 4.6-5c2-1.5 3.4-1.8 5.3-1.1l.7.2-.7.3q-4.4 2-9.5 10.1-3.2 5.3-5.3 7.5a17 17 0 0 1-7.5 4.4q4.3 1.3 8.7-.6 3-1.3 8.4-6c7-5.7 12.6-8.5 17.8-8.7q11.2-.5 23-10.9 11-9.7 11.9-17.6c.6-7.2-2.4-11.6-9.7-14.4"/><path fill="#fff" d="M332.5 602c-8-6.5-18.3-.5-25.9-3.4.1 5.3 2.4 12.4 10.6 16.1 2.4-1.7 13.4-10.8 15.3-12.8"/><path d="m333 602-.3.2-7.4 6.5q-6 5-8 6.3h-.2a17.5 17.5 0 0 1-10.8-16.4v-.4l.4.1q3.1 1.3 10.7.6c7.3-.7 12 .2 15.3 2.8zm-1 0q-4.3-3.5-14.5-2.6-7.3.8-10.6-.4.1 4.3 2.2 8.1a17 17 0 0 0 8 7.3 155 155 0 0 0 15-12.5"/><path fill="#fff" d="M344.6 585.5c-12.3-7-14 7.6-23.7 4.2.5 4.8 3.7 10 11.6 12.2z"/><path d="m344.7 585.2.4.1-12.5 17h-.2q-5.4-1.5-8.7-5.3a14 14 0 0 1-3.1-7.3v-.4l.4.2c3 1 5.7.2 9.7-2.7a19 19 0 0 1 5.8-3.4c2.6-.5 5 0 8.2 1.8m-8-1.2q-2.2.5-5.7 3.3c-3.9 2.9-6.7 3.7-9.8 2.8a13 13 0 0 0 3 6.5q3 3.6 8.2 5l11.8-16c-3-1.7-5.2-2.1-7.6-1.6"/><path fill="#fff" d="M351.8 571.9c-18-8.4-20 8.2-30.8 4.5 3 6.3 17.3 10.5 25.4 9.2z"/><path d="m352 571.6.2.1-5.6 14.2h-.1q-6.3 1.1-14.8-1.7c-6.2-2.2-9.5-4.6-11-7.7l-.2-.6.6.2c3.1 1 6.2.2 10.6-2.7q4.7-3.3 8-4 5.3-1 12.2 2.2m-12.1-1.7a25 25 0 0 0-7.8 4c-4.2 2.8-7.3 3.7-10.4 3 1.5 2.7 4.6 4.7 10.2 6.7a31 31 0 0 0 14.4 1.8l5.3-13.4a19 19 0 0 0-11.7-2"/><path fill="#fff" d="M376.5 497.1c-5.2-7.2-14.4-3-16.4 5.1-1.4 8.4 2.1 19.2 9 17.9z"/><path d="M376.9 497.3h-.2l-7.4 23h-.1c-3.5.8-5.8-.7-8-5.4a22 22 0 0 1-1.4-12.8 11 11 0 0 1 7.2-8.5c4.3-1.3 7-.4 9.7 3.4zm-.7-.2c-2.5-3.3-5-4.2-9-3-3.8 1.6-5.8 4-6.8 8.2-.8 4.4-.3 8.2 1.4 12.4 2 4.3 4 5.7 7 5.1z"/><path fill="#fff" d="M388.6 477c-8.6-3-17.3-3.3-16.7 5.2-3.2 1.6-4 11 4.6 15z"/><path d="M388.7 476.6v.3l.2.2-.1.2-12.2 20.2-.2-.1a10 10 0 0 1-7-8.6c-.4-4 .2-5.8 2.2-6.8-.2-4.1 1.2-6 5-7q5-.9 12 1.6m-.4.5c-4.7-1.6-8.2-2-11.3-1.5-3.7.9-5 2.7-4.7 6.6v.2h-.2c-1.8 1-2.4 2.7-2 6.4a10 10 0 0 0 6.3 8z"/><path fill="#fff" d="M394 472c-8.3-10.7-16.8-11.5-22.1-8-9.7 6.3-18 1.5-18.6 8.9 5.8-3.5 10.3 1.5 15 .8s8 7.8 20.7 6z"/><path d="M394.2 471.8h.3l-5.3 8.1h-.1c-5.5.9-10.3-.3-15.6-3.9q-3.3-2.4-5-2-2 .4-6-1c-4.1-1.4-6.7-1.3-9 .1l-.6.3v-.6q.2-2.9 2.2-4 1.2-.6 4.9-1.2 7.4-1 11.7-3.9a12 12 0 0 1 10.2-1.4q6.6 2 12.3 9.5m-12.4-8.9c-3.9-1-6.8-.6-9.7 1.3a28 28 0 0 1-12 4q-3.6.5-4.7 1.1-1.5.9-1.8 3c2.4-1.2 5-1.2 9 .2q3.9 1.3 5.7.9t5.5 2.1c5 3.5 9.7 4.7 15 3.9l5-7.4a24 24 0 0 0-12-9"/><path fill="#fff" d="M374.5 615.2c1.8 2.5 8.4 4.2 12.5.9 4.7-5.2-.3-19.3-8.2-21.9-8-1.3-8.3 15-4.3 21"/><path d="M374.3 615.3c-2.3-3.3-3-7.4-2.4-13.5a14 14 0 0 1 2.1-6.1c1.4-1.7 2.7-2.2 4.8-1.8 4 1.3 6.8 4.3 9.1 10.2 2 6 1.9 9.6-.7 12.2-2 1.7-4 2.3-7.3 1.9q-4.4-.7-5.6-2.9m.6 0q1.1 1.8 5 2.3 4.3.6 7-1.7c2.3-2.5 2.5-6 .5-11.7-2.2-5.6-4.8-8.5-8.7-9.7q-2.6-.7-4.2 1.6-1.5 2-2 5.9c-.7 5.9 0 9.9 2.3 13z"/><path fill="#fff" d="M365.7 614.6c11.4 5 15.6-3.1 9.9-10.1a93 93 0 0 1-9.9 10"/><path d="m365.6 614.9-.4-.3.4-.3q2.6-1.8 9.8-10l.2-.2.2.2c3.3 4 3.7 6.7 1.5 10-2.6 3-6 3.1-11.7.6m.7-.4c5.1 2.2 8.2 2 10.5-.7 2-2.9 1.7-5.3-1.2-8.9a96 96 0 0 1-9.3 9.6"/><path fill="#fff" d="M324.2 626.4c-2.4 6.2-12.8 6.7-25.3 26.3-12.7 19.4-23.8 11-27.1 24.7 15-11.8 26-3.6 35.1-15 13.7-17.5 24.2-14.3 29.6-26 8-17 39.3-13.7 41.6-41-11.4-3-45 22.9-53.9 31"/><path d="M324 626.3v-.2q10.8-9.7 26-19.8c14.1-9 23.1-12.5 28.1-11.2h.3v.3a26 26 0 0 1-8.2 17.6q-4.4 4-15.4 9.3-7.5 3.6-10.8 5.8a21 21 0 0 0-7.2 8.4q-2.7 5.9-11.5 10.8a59 59 0 0 0-18.1 15.3 18 18 0 0 1-7.4 5.7q-2.7 1-8.5 1.8a39 39 0 0 0-19.4 7.6l-.6.5.2-.8q1-4.5 3.6-7 1.7-1.4 6-3.2 5.2-2.3 8.2-4.3 5-3.9 9.3-10.4 7.4-11.8 19.1-20 5.3-3.8 6.2-6.2m.6.2q-1 2.6-6.5 6.5a70 70 0 0 0-18.9 19.8q-4.4 6.8-9.4 10.6-3 2-8.4 4.3a25 25 0 0 0-5.8 3.2 12 12 0 0 0-3.3 5.8c5-3.7 11-6 19-7.2q5.7-.7 8.3-1.7 4.2-1.8 7.2-5.5 7-9.1 18.3-15.5 8.8-5 11.3-10.6a22 22 0 0 1 7.4-8.6q3.2-2.1 10.8-5.9a70 70 0 0 0 15.3-9.1 25 25 0 0 0 8-17c-4.9-1.1-13.7 2.4-27.4 11.2a211 211 0 0 0-26 19.8"/><path fill="#fff" d="M602 391c13.8 6.7 14.5 24.9 30.6 33 16 8.3 17.8 22.4 31 20.3-12.2-4.8-11.7-18.6-24.3-23.8-15-6.2-21-29.7-32.8-35.1z"/><path d="M602 390.6q4.7 2.3 8.4 6.7a85 85 0 0 1 6 9 88 88 0 0 0 6.5 9.8q4.4 5 9.8 7.7 7 3.5 15.1 12.4 4.5 4.9 7 6.4 3.3 2 7.7 1.6a29 29 0 0 1-11-11.4q-6-9.6-12.3-12-5.4-2.2-10.5-8-3-3.4-8.1-11.4c-5.9-9-10.5-14-14.2-15.8l.2-.5q5.6 2.5 14.5 16 5 7.9 8 11.4 5 5.6 10.2 7.7 6.6 2.6 12.6 12.3 5.9 9.3 11.7 11.6l1 .3-1 .2q-5 .9-9.2-1.5-2.5-1.6-7-6.6a54 54 0 0 0-15-12.2 32 32 0 0 1-9.9-7.9q-2.5-3-6.6-9.8a85 85 0 0 0-5.9-9 25 25 0 0 0-8.2-6.4z"/><path fill="#fff" d="M666.5 495.6c2.4 6.3 2.1 15.8-6.7 18.2 5.1 3.3 11.5 1.2 15.7-5.3-5.6 13-2 24.6 7.2 28-3.9-9.7 5-13 2.3-19.4 6 3.2 10.7 11 10.7 16.3 7.1-8.6-5.1-20.2-3.1-28.5z"/><path d="M666.3 495.8v-.2h.3v-.3l26.3 9.4v.3q-1 3.3 2.4 11.5 2.5 6 3 8.9a10 10 0 0 1-2.3 8.2l-.6.6v-.8q0-3.7-3-8.8a22 22 0 0 0-6.8-6.9c.5 2 0 4.1-1.5 7.2-2.3 4.4-2.6 7.9-1.1 11.4l.2.6-.5-.2c-5-1.7-7.8-5-9.5-10.5-1.2-5-1-9.8 1-15.3q-2.6 3-6 4.3a9 9 0 0 1-8.5-1.2l-.5-.4h.6c4-1.1 6.1-3.3 7.3-7.5q1.3-5-.8-10.3m.7.3q2 5.1.7 10.2c-1.2 4.2-3.3 6.4-7.2 7.6a9 9 0 0 0 7.4.7q4.4-1.5 7.4-6.2l.5.3a26 26 0 0 0-2 17.4c1.5 5.1 4 8.1 8.4 9.9-1.2-3.6-.8-7 1.4-11.4 1.7-3.3 2-5.4 1.2-7.4l-.4-.7.7.4q4.4 2.1 7.8 7.4 3 4.7 3.1 8.3 2.2-2.9 1.7-7.1-.4-3-2.9-8.7c-2.3-5.6-3-9.2-2.6-11.7z"/><path fill="#fff" d="M575.4 578c-9-8.6-12-.2-16.6-3.8-4.3-3.7-8.8-4.8-11.2-2 7.3 1.6 3.8 6.3 18 10.1-14.3-.5-11.6 15.2-21.2 13.5 10.5 11 15.2-6 23.8-2.3-2.1.8 3.4 6.8-.6 14.5 7.3.4 10-8.5 11-14z"/><path d="M575.7 577.8v.1l3.1 16.2c-2 10.3-5.3 14.6-11.2 14.2h-.5l.3-.4c1.7-3.2 1.8-6.6.4-11.4l-.5-2.1q0-.6.2-.9c-2.4-.6-5 .2-8.7 3q-4.3 2.9-6.6 3.4c-2.8.2-5.1-.9-8-4l-.6-.6.8.2q2.9.6 4.8-1 1.2-1 3.3-4.3 2.6-4.2 4.5-5.8 2.7-2.1 6.5-2.4a24 24 0 0 1-10.4-6.2 10 10 0 0 0-5.5-3.4h-.6l.3-.5q1.6-2.2 5.2-1.5 3.3.8 6.5 3.6c1.2 1 2.6 1 5 .4q3-1 4.8-.8a13 13 0 0 1 6.8 4.1zm-.6.3a12 12 0 0 0-6.3-3.9q-1.8-.2-4.6.7-3.7 1.3-5.6-.5-3-2.7-6.1-3.4-3-.5-4.4 1 3 .7 5.4 3.4 4.2 4.6 12.2 6.7v.5a12 12 0 0 0-8.3 2.3q-1.9 1.5-4.4 5.7a21 21 0 0 1-3.4 4.4 6 6 0 0 1-4.4 1.2q3.5 3.6 6.9 3.1 2.2-.3 6.3-3.4c4.3-3 7.2-3.8 9.8-2.7l.9.5h-.9q-.4.2-.4.7l.6 2c1.4 4.7 1.3 8.2-.3 11.4 5.2 0 8.3-4.1 10.1-13.8z"/><path fill="#fff" d="M385.5 634.5c-3.6-3.1-12-5.2-15.9-3.6-3.4 1.9-2.3 2.4 2 3.2 4.2 1.3 9.6 8 .5 7.8-4.2.4-2.9 9.7-11.6 10.2 4 4.7 13.4 3 17.6-1.5-.4 4 4 8.1 2.4 12.9 6.6.8 2.7-12.6 13-11.3-4 .7-2.5 9.3 5 8.4-4.3 2.1-2.3 6.6 2.8 6.5-3.2 1-4.1 4.3.2 7.6 4-5.8-.5-27-16-40.2"/><path d="M385.6 634.3a51 51 0 0 1 15.5 23c2.8 8.8 3 14.2.6 17.6l-.1.2-.3-.2q-3.1-2.2-3-5 0-1.6 1.4-2.5-2.6-.3-3.6-2.6t.8-3.7c-2.8 0-4.3-1.2-5.5-4a5 5 0 0 1-.2-3.5q.4-.9 1-1.3c-2 0-3.1.5-4.3 1.6q-1 1.4-2.4 5c-1.4 3.8-2.8 5.1-5 4.8h-.4l.2-.4q1-2.5-1.1-7.3-1.3-2.9-1.5-4.6a14 14 0 0 1-8.4 3.7c-4.4.4-7-.4-9-2.9l-.4-.4h.5c3.5-.1 5.8-2 8-6.3q1.8-4 3.7-3.8 3 0 4.2-.8.8-.8.3-2.2a7 7 0 0 0-5-4.3q-3.6-.8-4.1-1.4t.1-1.2l1.9-1.2q2.7-1.3 8.2 0t8 3.7m-.5.3q-2.4-2.2-7.6-3.5c-3.7-.8-6-.8-7.8 0l-1.7 1.1q-.3.3-.2.5.4.5 3.7 1.1c2.8.7 4.3 2 5.5 4.7q.6 1.8-.4 2.8-1.3 1.1-4.6 1-1.5-.1-3.2 3.5c-2.1 4.3-4.4 6.2-7.9 6.6 2 1.9 4.3 2.5 8.2 2.1q5.8-.7 8.6-4.1l.5.2q-.1 1.7 1.4 5.2 2.1 4.8 1.2 7.4 2.4.2 4-4.6 1.5-3.7 2.6-5c1.6-1.6 3.3-2.1 6-1.7v.6q-1.3 0-1.7 1.4-.5 1.4.1 3c1.3 3 3 4 6.5 3.4l.2.6q-3 1-2 3.7c1 1.8 2.2 2.4 4.6 2.2l.2.6q-2.4.5-2.6 2.7-.1 2.3 2.6 4.2c2-3.3 1.9-8.5-.8-16.8a50 50 0 0 0-15.3-22.8z"/><path fill="#fff" d="M768.8 476a26.5 26.5 0 0 0 24.4-26.4 23 23 0 0 0-24.4-23.6 25.7 25.7 0 0 0-24.4 25.6c.3 14 10.7 24.7 24.4 24.4"/><path d="M768.8 476.3c-7 .2-12.4-2-17.5-6.9a25.5 25.5 0 0 1 0-35.7c5-5 10.5-7.6 17.5-8a23.3 23.3 0 0 1 24.7 23.9 27 27 0 0 1-7.3 18.4c-5 5.3-10.5 7.9-17.4 8.3m0-.6q10-.5 17-8.1c4.7-5.3 7-11 7.1-18a23 23 0 0 0-24.1-23.3q-10 .4-17 7.8a25 25 0 0 0 0 34.9 22 22 0 0 0 17 6.7"/><path fill="#fff" d="M641.4 501.4c7.7-6.4 18.3-8.9 26.4-3 8.2 6.2 32.9 14 46 5.5 12.9-8.8 18.6-13.2 24.4-12.3 4.4 6.6 9.2 9.4 15.6 10 2.3 2.1 8.5 3.6 12.7 3 5.9 1.2 12.2-.8 18-7.3 8.6.4 16-6.3 19.3-16.5 9-2.4 9.4-12 3.9-18.6-5.3-1.2-1.2-18.3-20.4-14 7.8 5 2.2 14.6 8.6 19.2-4.8.5-10.1 2.7-11.9 9.9 1.5-5.2-.1-7.9-1.5-9.1-.2-4.5-8.4-13.4-17.2-9.8 5.8 1.7 2.9 10.7 7 14.8q-5.1.6-8.4 5c-2.6-4-10.2-8-15.3-8.4 0-1.5-.4-4.3-1-5.8a27 27 0 0 1-3-16 70 70 0 0 0-10 15.9c-7-4.4-23 1.6-31 3.2-8.1 1.3-33.1-4.5-39.7-11.6-6.1-6.9-17.5-11.9-28.5-16.3-14.9-6.4-15.3-22.7-31.7-36.5 0 21.3 30.6 90.5 37.7 98.7"/><path d="m641.6 501.7-.2-.2-.1.2-.5-.2.2-.1q-6.6-7.7-21.5-44.3-16.2-40.3-16-54.5v-.5l.4.4a78 78 0 0 1 15.6 19.7q4.2 7 6.6 9.9 4.1 4.6 9.4 6.8 21.9 8.8 28.6 16.5c3 3.2 9 6.2 19 8.9q14.2 3.7 20.5 2.5l6.1-1.5q19.3-5 24.8-1.9 4.5-9.5 9.8-15.6l.6-.7-.1 1q-1 7.6 3.1 15.8.9 2 1 5.6a24 24 0 0 1 15 8.2c2-2.7 4.3-4 7.8-4.7a15 15 0 0 1-2.4-7c-.8-4.7-2-6.7-4-7.3l-1-.2.9-.4c4-1.7 7.7-1.2 12.1 1.9 3.8 3 5.4 5.3 5.5 8q2.3 2 2.3 5.3c2.1-3.6 5-5.4 10-6.1-1.8-1.7-2.8-4.3-3.2-8.7-.6-5.3-2-8.3-4.8-10l-.6-.4.7-.2c6-1.4 9.8-1 13 1.4q2.4 2.1 4.4 7.8c1.1 3.2 2 4.5 3.1 4.8h.2c3 3.6 4.1 7 3.6 11.2-.8 4.4-3 6.7-7.5 8a27 27 0 0 1-7.6 12.2 16 16 0 0 1-11.8 4.3c-5.7 6.4-11.3 8.7-18.1 7.4a19 19 0 0 1-12.8-3.1c-6.6-.6-11.5-3.8-15.7-10q-3.4-.5-8.4 2-3.3 1.8-12.8 8.3l-2.8 2c-6 3.8-14 4.8-25 2.8a52 52 0 0 1-21.4-8.4 17 17 0 0 0-13.1-3 26 26 0 0 0-13 6m-.1-.6q5.8-4.9 13-6c5.4-.7 9.6.3 13.5 3.2a51 51 0 0 0 21.1 8.2c11 2 18.9 1 24.7-2.8l2.8-1.9q9.4-6.4 12.9-8.3c3.6-1.8 6.2-2.4 8.8-2h.2c4.2 6.2 9 9.3 15.5 10h.1q1.4 1.5 5.5 2.5t7 .5c6.8 1.2 12.2-1 17.7-7.3l.1-.1h.2c4.2.2 7.7-1 11.5-4.2q5.3-4.6 7.5-12.1l.1-.2h.2c4.3-1.1 6.3-3.3 7.1-7.4.5-4-.5-7.2-3.4-10.7q-1.8-.3-3.4-5a19 19 0 0 0-4.3-7.7c-2.9-2.1-6.4-2.5-11.8-1.4 2.6 2 4 5 4.4 10.1.5 4.7 1.6 7.3 3.7 8.7l.7.5-.9.1c-5.9.6-9.1 2.8-11 7.4l-.6 2.3-.6-.2.7-2.3c.4-3-.2-4.8-2-6.5h-.2v-.2c0-2.6-1.5-4.9-5.2-7.7-4-2.8-7.2-3.4-10.9-2.2 2 1 3 3.2 3.7 7.5.6 3.9 1.5 6 2.7 7.2l.5.4-.7.1c-3.7.5-6 2-8.2 5l-.3.3-.2-.4a17 17 0 0 0-6.5-5.5q-4.8-2.5-8.6-2.8h-.2v-.3q0-3.7-.9-5.7a29 29 0 0 1-3.3-15.2q-5 6-9.2 15l-.1.4-.3-.2c-3.6-2.3-11.4-1.7-24.6 1.8l-6.2 1.5q-6.3 1.2-20.6-2.5c-10.2-2.8-16.4-5.9-19.4-9.2q-6.6-7.4-28.4-16.3a26 26 0 0 1-9.6-7q-2.4-3-6.7-10a79 79 0 0 0-15-19.1q.1 14.3 16 53.6 15 36.6 21.4 44.1"/><path fill="#fff" d="M468.9 636.7c13.2 1.7 23.3-7 23.6-20.5a29 29 0 0 0-23.6-27.8c-13.3-1.8-23.3 7-23.6 20.6a29 29 0 0 0 23.6 27.7"/><path d="M468.9 637c-6.7-1.2-12-4.2-16.9-9.7a28 28 0 0 1-7-18.3 20.2 20.2 0 0 1 24-21c6.7 1.1 12 4.2 16.9 9.7a28 28 0 0 1 7 18.4c-.2 6.9-2.4 12-7 16.2-4.9 4-10.2 5.5-17 4.6m0-.6c6.7.9 11.8-.5 16.6-4.5 4.5-4.1 6.7-9 6.8-15.8a28 28 0 0 0-6.8-18 27 27 0 0 0-16.5-9.4c-6.6-1-11.7.5-16.5 4.5a21 21 0 0 0-6.8 15.8 28 28 0 0 0 6.8 18q6.9 7.8 16.5 9.4"/><path fill="#fff" d="M412.6 610a20 20 0 0 0 16.1 7.6c3.2 7.8 11.6 9.2 15.7 13.8 4.4 4.7 16.7 6.2 21 4.6q-5.6-1.5-12.5-8.2c-5-5.6-3.2-13.8-7-18 3-3.5 3.5-8.7 3-11.5 3.4-1.7 5.5-4.2 6-5.9 6 .3 10.8-1.8 13.1-3.8 3.3 3 10.2 1 14.6 6.2.5-12-9.9-19.5-17.6-17-3.4-2-10.4-2-12.3-.2-2.8-1.1-9 1.1-12.5 3 3.5-1.9 4-6.9 2.6-9.7 3.2-1 6.1-4.3 6.7-7.4 4.3 1 10.5-.4 13.4.5-4.8-6.8-12-10-19.9-10.7-8.1-.4-11.3 4.4-12.5 10.6-4.8 2.8-6.2 11.4-4.6 15.4-2.8-.2-5 1.8-6.3 3.3-3.8-2-9-3.9-12.8-4.5z"/><path d="M412.8 609.8c3.7 5.2 8.6 7.5 15.9 7.5h.2l.1.3q1.8 4.6 9.4 9.1 4.7 2.7 6.2 4.5c2 2.2 5 3.6 10.3 4.6q6.3 1.1 9.5.2a32 32 0 0 1-11.7-8 20 20 0 0 1-4.1-10.3q-1.1-5.9-3-7.7l-.2-.2.2-.2a12 12 0 0 0 2.9-5.9q.6-3.2 0-5.3v-.3h.2c3.6-1.8 5.3-3.4 6-5.8v-.2h.2c5.6.4 9.6-.8 12.9-3.7l.2-.2.2.2c1 .9 2.6 1.5 5.6 2 4.1.7 6.7 1.9 8.6 3.7a16 16 0 0 0-5.7-13c-4.1-3.5-7.5-4.3-11.6-3h-.2a13 13 0 0 0-6.6-1.6q-4.4 0-5.4 1.3l-.1.2-.2-.1q-1.6-.9-5.8.3a32 32 0 0 0-6.5 2.7l-.3-.5 1-.5q1.5-1.2 2-3.9.7-3-.4-5l-.2-.2.3-.1a10 10 0 0 0 4.2-2.9q2-2.4 2.3-4.4v-.3h.4q2.2.7 7.4.4 3.6-.2 5.2 0a25 25 0 0 0-19.2-9.9c-7-.4-10.7 2.7-12.2 10.4v.2h-.2c-2.2 1.2-3.5 3.2-4.6 7q-1.2 5.1.2 8l.2.5h-.5c-2.3-.3-4 .6-6 3.1l-.2.2-.2-.1a36 36 0 0 0-12.7-4.5v-.6q6.3.9 12.7 4.4c2-2.3 3.7-3.3 6-3.2q-1.2-3 0-8c1-3.9 2.5-6 4.7-7.3 1.6-7.9 5.5-11.1 12.8-10.7 9.2.9 15.5 4.3 20.1 10.9l.5.7-.8-.3q-1.3-.5-5.6-.2-5.2.3-7.4-.3-.4 2.2-2.4 4.4a11 11 0 0 1-4.2 3q1 2 .4 5a9 9 0 0 1-1 2.9q1.8-.8 4-1.5 4.2-1.1 6-.3 1.3-1.4 5.6-1.4 4.4.2 6.8 1.6c4.2-1.3 7.8-.4 12 3.1 4.4 4 6.2 8.4 5.9 14.3v.7l-.5-.7c-1.7-2-4.2-3.1-8.6-3.9q-4.2-.7-5.8-2c-3.3 2.9-7.3 4-12.8 3.7-.8 2.4-2.5 4.1-6 5.8q.4 2.2-.2 5.4-.7 3.7-2.8 6a17 17 0 0 1 3 7.8c.8 4.9 2 7.9 3.8 9.9q6.6 6.5 12.4 8l.8.3-.7.3q-3.3 1.4-10.6.2-7.9-1.5-10.7-4.8-1.5-1.8-6-4.4c-5.3-3-8.2-6-9.6-9.3-7.4 0-12.4-2.4-16.3-7.8z"/><path fill="#fff" d="M408.5 568.5c-1.4-5 .4-8.7 1.6-12.4 2.6-9.2 1.1-11.6-7.2-11.6a80 80 0 0 0 5.6 24"/><path d="m408.8 568.5-.5.1a71 71 0 0 1-5.7-24.2v-.2h.2c4.5 0 6.7.8 8 2.5 1 1.9 1 4.7-.4 9.5l-.7 2a18 18 0 0 0-1 10.2zm-1-2.4q-.2-3.4 1.4-8.1l.6-2c1.3-4.6 1.5-7.3.6-9-1.2-1.5-3.2-2.2-7.3-2.2q-.2 3.1 1.8 11.7 1.5 6 2.9 9.6"/><path fill="#fff" d="M402.4 545c2.6 2.5 9 4.3 10.4-2.3q1.3-12-8.9-9c-.4 1.7-1.1 9-1.5 11.3"/><path d="m402.5 545.4-.5.4.2-.9.4-3.8 1-7.6.1-.1h.1c3.6-1.1 5.8-.8 7.6.8 1.6 1.9 2.1 4.4 1.7 8.5-.5 3.3-1.9 4.6-5 4.9q-3.5 0-5.7-2.2m.3-.5a7 7 0 0 0 5.4 2q4 0 4.4-4.3c.4-4 0-6.3-1.5-8-1.6-1.4-3.5-1.7-6.8-.7l-1 7.3z"/><path fill="#fff" d="M404 533.4c3.2 1.7 8.5 4.5 12.3-1.5 2.5-5.5-.7-9.7-6.7-10.5a38 38 0 0 0-5.6 12"/><path d="m404.1 533.7-.6.6.3-1q2.2-8.6 5.6-12.1h.2c3.1.2 5.1 1.3 6.8 3.5 1.5 2.4 1.5 4.5.1 7.3-2.6 4.4-6.2 4.9-12.4 1.7m.3-.4c5.8 2.9 9.2 2.4 11.6-1.6 1.3-2.6 1.2-4.5 0-6.7-1.6-2-3.4-3-6.3-3.3a28 28 0 0 0-5.3 11.6"/><path fill="#fff" d="M409.2 520.8c1.1 2.6 7.5 10 13.2 6 5.3-4.9 5.3-11.9-2.6-16.3-2.3.5-8.2 6.6-10.6 10.3"/><path d="m409 521-.1-.2v-.1q1.9-3 5.4-6.5 3.9-3.9 5.4-4h.1c4 2.2 6 4.6 6.5 8.3.3 3.4-.8 5.9-3.7 8.5-2.6 2-5 1.9-8.6-.4q-4-3-5-5.7m.5 0q1 2.5 4.7 5.2c3.4 2.1 5.6 2.2 8 .4 2.8-2.5 3.8-4.8 3.6-8-.6-3.4-2.3-5.6-6-7.7q-1.4.2-5 3.8-3.5 3.5-5.3 6.3"/><path fill="#fff" d="M419.8 510.5c1.8 5 6.3 12.8 15.6 10.9 9-2.9 5.4-14 1-17.5a41 41 0 0 0-16.6 6.6"/><path d="M419.4 510.3h.2q3-2.5 9-4.8 5.8-2 7.9-2l.1.1c2.7 2.1 4.1 4.9 4.7 9.3.2 5-1.4 7.5-5.8 8.8-4.3.9-7.5 0-11-2.9a21 21 0 0 1-5-8.2zm.7.4q1.7 4.7 4.8 7.7c3.2 2.8 6.3 3.6 10.4 2.7 4.1-1.2 5.6-3.6 5.4-8.2-.5-4.2-1.8-6.8-4.3-8.7q-2-.1-7.5 1.9-5.9 2.2-8.8 4.6"/><path fill="#fff" d="M436.5 503.9c-.6 4.2 0 14.3 12.5 16.4 12.5 1 9-13.3 5.8-16.4a46 46 0 0 0-18.3 0"/><path d="m436.2 504-.2-.3.4-.1q5-2 18.4 0h.2q1.2 1.1 2.3 4.1t.8 6c-.7 5.5-3.3 7.5-9.1 6.9-5.7-1-9.1-3.2-11.4-7.6q-2.1-4.4-1.4-9m.6.1q-.7 4.4 1.2 8.7c2.2 4.2 5.5 6.3 11 7.2 5.5.5 7.9-1.3 8.5-6.4q0-2.7-.8-5.8a9 9 0 0 0-2-3.7 42 42 0 0 0-18 0"/><path fill="#fff" d="M455.3 504.5c-1.4 3.3-4.6 22 20 20.6 3-.6 11.4-17-20-20.6"/><path d="m455 504.3.1-.1h.2c13.7 1.4 21 5.2 23.2 11.6q1 3.4-.4 6.6-1.2 3-2.8 3c-10.8.7-17-2-20-8.7a19 19 0 0 1-.2-12.4m.4.5q-.6 1.4-.8 4.4-.1 4 1.1 7.3c3 6.4 8.9 9 19.4 8.4q1.3-.2 2.4-2.8 1.3-3 .3-6.2c-2.1-6.1-9.1-9.7-22.4-11.1"/><path fill="#fff" d="M468.7 508.3c-2.2 2.7 3.7 22.8 20.4 22.6 16.5-1.4 2.7-21.9-20.4-22.6"/><path d="M468.5 508h.2q8.2.1 15.3 3.6a29 29 0 0 1 10 7.6c2.3 3.2 3 5.5 2.4 8-1 2.5-3 3.6-7.2 4-7.5.2-13-3-17.7-10.3a29 29 0 0 1-3.2-8c-.6-2.7-.5-4 .2-4.8m.3.5q-.7.8 0 4.2 1 4 3.2 7.8c4.5 7.1 9.8 10.2 17 10 4-.3 6-1.4 6.9-3.7.5-2.2-.1-4.4-2.4-7.4q-3.5-4.4-9.6-7.4a37 37 0 0 0-15-3.5"/><path fill="#fff" d="M482.8 513.5c-2.5 5.6 1.2 22 21.7 25.5 18.6 2.4-1-21.5-21.7-25.5"/><path d="m482.5 513.4.1-.2h.2q7.4 1.4 14.9 6 6.6 4.2 10.9 9.3c2.8 3.7 3.8 6.1 3.5 8.4-.8 2.4-2.8 3-7.6 2.4a27 27 0 0 1-19.7-12.1 22 22 0 0 1-2.9-8q-.4-3.6.6-5.8m.5.4q-1 2-.5 5.5.6 3.8 2.7 7.6c4.2 6.6 10.2 10.3 19.3 11.9 4.4.5 6.4 0 7-2.1q.7-2.9-3.3-7.8a46 46 0 0 0-25.2-15"/><path fill="#fff" d="M498.8 520.9c-1.3 3.2-3 19.7 21.1 25.4 17.5 3.3 13.1-21.6-21.1-25.4"/><path d="m498.5 520.7.1-.1h.2q12 1.2 20.3 6 7.1 4 10 9.5c1.6 3.7 1.6 6 0 8.5-2 2.2-4.7 2.8-9.2 2-10.5-2.4-17-6.8-20.3-13.8q-1.5-3.7-1.7-7.5 0-3 .6-4.6m.5.5q-.6 1.4-.6 4.2.2 3.7 1.7 7.2c3.3 6.8 9.5 11 19.8 13.4 4.3.8 6.8.3 8.7-1.8 1.5-2.2 1.5-4.5 0-7.9a24 24 0 0 0-9.7-9.3q-8.1-4.5-20-5.8"/><path fill="#fff" d="M524.7 532.2c-3 5.2-6.1 17.7 20.2 23.1 17 2.8 6.4-18.2-20.2-23"/><path d="M524.4 532h.3q9.3 1.5 17 6 6.3 3.8 9.7 8.5c2 3.3 2.5 5.3 1.5 7.4-1.4 2-3.6 2.4-8 1.7-11.8-2.3-18.5-6.1-21.4-11.8-1.7-4-1.5-7.5 1-11.7m.3.5c-2.2 4-2.4 7.2-.8 11 2.8 5.5 9.4 9.1 21 11.4 4 .7 6.1.3 7.4-1.5.9-1.8.5-3.7-1.4-6.7q-3.3-4.6-9.6-8.4-7.4-4.2-16.6-5.8"/><path fill="#fff" d="M546.7 539.7c-3.7 5.3-1.1 15.4 8.8 19.3 12.5 4 13.9-7 5.6-14.3-8.7-6.8-14.2-5-14.4-5"/><path d="M547 538.9v.4q1.5-.3 3.7 0 5.1.9 10.6 5.2c4.6 4 6 7.5 5 11.7-1.4 4.3-4.6 5.2-10.9 3.1a16 16 0 0 1-9.7-9.3c-1.6-4.5-1.4-7.6.7-10.5zm-.1 1c-2 2.8-2.2 5.7-.7 10 1.9 4.4 4.7 7 9.3 8.9 6 1.9 9 1 10.3-2.8 1-4-.5-7.2-4.8-11a23 23 0 0 0-10.3-5.1 10 10 0 0 0-3.8 0"/><path fill="#fff" d="M558.7 544c-2.8 5-1.2 16.8 17.5 19.8 4 .2 18.6-12.3-17.6-19.8"/><path d="M558.4 543.8v-.1h.3c15.8 3.2 23.3 7.2 24 13q.3 3-2.3 5.4-2.3 2.2-4.2 2c-8.5-1.3-13.8-4.2-17-9.3-2.5-4.3-2.7-7.5-.8-11m.4.5c-1.6 3.2-1.4 6.2.8 10.2 3.1 4.9 8.3 7.7 16.6 9q1.7.2 3.8-1.8c1.6-1.7 2.3-3.1 2.2-5-.7-5.4-8-9.3-23.4-12.4"/><path fill="#fff" d="M414.2 757.5c15.3 1.8 27-8.5 27.3-24.2a33 33 0 0 0-27.4-31.9c-15.3-1.8-27 8.9-27.3 24.6.2 15.7 12 29.1 27.3 31.5"/><path d="M414.2 757.8c-7.8-1.2-14-4.6-19.6-10.8-5.4-6.4-8-13.1-8.1-21 .1-8 2.7-14 8-19.1a24 24 0 0 1 19.6-5.8c7.8 1.2 14 4.7 19.6 11q8 9.5 8.1 21.2c-.1 8-2.7 14-8 19a24 24 0 0 1-19.7 5.5m0-.6a23 23 0 0 0 19.2-5.5 24 24 0 0 0 8-18.4 32 32 0 0 0-8-20.8 31 31 0 0 0-19.2-10.8 23 23 0 0 0-19.1 5.6c-5.3 5-7.8 10.9-8 18.7.2 7.8 2.7 14.3 8 20.6a31 31 0 0 0 19.1 10.6"/><path fill="#fff" d="M615 378.8c-2.2 2-6.4 7.8-7.4 10.3-8.9 27.1 15 51 29.5 82.7 11.2 25.2 9.9 62-7.7 84.3-6 7.5-4.3 9.9-12 17.4-3 3-6.1 6.3-5.2 18 5.2-.8 11.5 4.2 13.3 8.5 3.9-1.2 8.1-.2 10.2 2.2 6.2-2.1 10.7-.4 16.2 6 4.8-.3 9.3.8 14.1 6.2 2.8-5 7.1-6.2 11-5 0-6.7 5.6-10.5 11.5-7.9-1.4-9 5.7-14.5 13.4-12a20 20 0 0 1 25.4 3c-11.4-3-10.9 8.3-20.5 7.4 2.2 7.5-3.6 11-10.2 13.2 4.4-1.9 8-3.7 9.9-1.3 4-2.9 10.1-1.7 12.3 0 5-1.3 8.9-.2 11.3 5.6 6.4 4.4 10.3 13.8 6 21.7-1.8-7.8-6.4-7.7-8.8-10.9-5.3 1.7-9.5 1.6-11.3-1.7-3.3 2.9-11.8 4.8-16.5.5-1.9 6.6-6.9 11.3-13.4 11.2 1.5 5.4-3 13.2-7 17.5 5.8 4 4.2 10.4 2.7 15 9 2.4 1.6 9.5 17.3 16.1-8.2 2-22.4-1.2-25-11.2-7.9-1.3-12.8-9-12.7-17.6-6-6.6-6.8-14.3 1.4-19.7-7.1 1-10.7-9.8-21-6.7-5.7 1.6-18-3.3-18.4-8.4-2.7 3.2-14.3.5-16.7-6-4.7 1.5-13.6-3.2-14-9.3-5.7 1.5-12.3-3.5-12.4-9.4-5.1-1.8-5.6-6-5.3-10.2-4.4-3-3.4-6.9-1.6-12.3-3-4.3-1.8-8.6.7-13.2-3.4-4.3-2.8-8.1-1.7-13.2-17-3.9-38-11.2-86.6-34-73.5-34-92.7 17.6-76.8 53.7 18.5 41.7-1.8 47.2 4.3 77.4 6.8 2.6 10 8.3 9.8 14.7 4.1 1 6.6 4.6 5.4 11.9 3.5 0 7.4 1.4 10.5 4.7 2.9-4.3 10-4.2 14.7 1.8 9.3 1 13.6 8.7 13.4 18.3a25 25 0 0 1-2 26.7c.3-3.7 0-9.2-.3-12.5-.8-6-7.8-8.4-7.5-13.2-4.5-.5-8-3-9.7-6.6a9 9 0 0 1-9 .4 20 20 0 0 1 7 17.7c2.4 5 2 12.1-1 15.5q-2.7 10.4-13.6 4.5c4-2.2 5.2-6 5.1-10a18 18 0 0 1-3.8-9.5c-7.1-.2-16-7-18.1-9.7-15.4-1.8-27.1 8.9-27.4 24.6-1-6-7.4-12.4-7-17.2-4-14 1.7-25.3 19-26-1.6-5.5 4.8-9.4 2.5-15.7a162 162 0 0 0-20-30.6c5.8-10 4.1-23.8.6-33-5.1-13-9.7-10.7-27.8 7.7-29.4 29.8-68 18.8-102.8 40.6-9.2 5.8-18.1 8.5-8.4-2 10.1-10.3 35.8-20.3 52.8-28.3 31.7-15 58.2-39 69-90.7C390 409 480.3 463.5 538.6 495.6c54.4 29.5 44-20.8 16.9-54.5-33-40.6-26.4-67.2-11-87.4 28.4.4 80.5 16.6 70.5 25.1"/><path d="M615.2 379a38 38 0 0 0-7.4 10.2 43 43 0 0 0 1 27.8q3.2 9.2 14.4 28.4 10 16.9 14.2 26.3 8.7 19.4 7 43.4a74 74 0 0 1-14.8 41.2 47 47 0 0 0-4.8 7.6q-2.8 5.5-7.2 9.8-2.9 2.9-4 5.6-1.8 4.5-1.2 12c2.5-.4 4.8.3 7.9 2.3q4 2.8 5.4 6 2.5-.8 5.6-.2 3 .8 4.5 2.4c5.9-1.9 10.8 0 16.2 6q8.2-.4 14 6 1.7-3 5-4.5 2.9-1 5.6-.3c0-3.3 1.1-5.4 3.7-7.3a8 8 0 0 1 7.8-.7c-.5-4.3.5-7.3 3.5-10 3.2-2.6 6.3-3 10.3-1.7a19 19 0 0 1 12.7-3.2c5.6.6 9.6 2.5 12.9 6.2l.6.8-1-.3q-3.9-1.1-6.7 0a18 18 0 0 0-4.4 3.4c-3.1 3-5.7 4.2-8.8 4 1.2 4.5 0 7.5-4.3 10.4q2.8-.4 3.6.8 2.5-2 6.8-1.6 4 .3 5.6 1.7c5.8-1.5 9.1.2 11.4 5.8a18 18 0 0 1 7.1 9.6 15 15 0 0 1-1.1 12.4l-.4.6-.1-.7q-1-5-5.7-8.2-2.1-1.4-3-2.4c-6.1 2-9.4 1.4-11.2-1.6a14 14 0 0 1-7.6 2.8c-4 .3-6.5-.4-8.7-2.3q-1.4 4.7-4.9 7.8-3.7 3.2-8.3 3.2c.6 2.5.2 5.2-1.5 9a34 34 0 0 1-5.4 8.2c4.1 3 5 7.4 2.7 14.8 2.7.9 4.4 2.4 5.6 5.5q1.3 3.4 2.9 5.2 2.8 3 8.5 5.3l.8.4-.8.2q-6.7 1.8-14.8-1c-6-2.5-9.2-5.6-10.5-10.3-4-.6-6.7-2.5-9.4-6.1a20 20 0 0 1-3.4-11.6 15 15 0 0 1-4.6-10.5c.2-3.7 1.8-6.4 5.2-9q-2.9 0-7.2-3.3a27 27 0 0 0-5.5-3.4q-3.5-1.2-7.2 0-4 1.4-11.3-1.7c-4.6-2.1-6.7-4-7.3-6.2-1.6 1.3-4 1.4-8.3.2-4.7-1.6-7.2-3.5-8.4-6.6q-3.4 1.2-8.5-1.9c-3.6-2.4-5.2-4.5-5.5-7.4-2.9.6-5.3 0-8.3-2-3-2.4-4.1-4.6-4.2-7.6-4-1.5-5.6-4.5-5.3-10.2-2-1.5-3-3-3.1-5.5q0-2.1 1.5-7c-2.5-3.6-2.3-7.6.7-13.2-2.3-3.1-2.9-7-1.8-13q-27.7-6.4-86.3-34a98 98 0 0 0-45-11 37 37 0 0 0-26.6 11.5q-8.6 9.7-10 24.7-1 14.4 5.2 28.2 7.4 16.5 8 29.3.2 7.5-2.5 19.6-1.9 8.2-2.3 12.8-.6 7.5 1 15.6 4.8 1.8 7.6 6 2.3 4 2.3 8.6a7 7 0 0 1 4.7 3.8q1.6 3.3.7 8c4.1.2 7 1.5 10 4.6 1.6-2.1 3.6-2.9 6.9-2.7a11 11 0 0 1 8.2 4.8c4.5.5 7.6 2.3 10.3 6 2.3 3.5 3.3 7.4 3.2 12.5q3.4 7 2.8 14.7-.9 7.3-5 12.2l-.6.8.1-1q.4-3 0-10.5l-.2-2c-.2-2-1.4-4-4.1-6.9q-3.5-3.6-3.5-6-3-.4-5.7-2.2-2.5-1.9-3.7-4.3a8 8 0 0 1-7 1q2.4 2.4 4.2 6.8 2.2 5.7 1.2 9.9 1.8 3.5 1.5 8.4t-2.6 7.3q-1 5-4.8 6.4c-2.7.7-5.4.2-9-1.8l-.6-.3.5-.2c3.5-2 5-4.9 5-9.8a16 16 0 0 1-3.9-9.2q-4.5 0-10.8-3.9a27 27 0 0 1-7.2-5.8c-7.6-.9-13.6 1-19 5.6-5.3 5-7.8 10.9-8 18.7h-.5q-.3-2.6-3.7-8.3-3.6-6.2-3.3-8.9c-2.1-7.5-1.6-13.2 1.5-18.2 3.6-5.2 9-7.7 17.4-8q-.7-2.6 1.5-7.1c1.7-3.7 2-6 1.1-8.3q-6-12.8-20-30.5l-.1-.2v-.2q4.1-6.7 4-16.6-.3-8.5-3.2-16.2c-2.6-6.3-5.1-8.5-8.7-7.7a71 71 0 0 0-18.7 15.7 74 74 0 0 1-27.8 17.5q-9.8 3.4-30.5 7.5-15 3-22.5 5.5-12.4 4-22 10a29 29 0 0 1-11.5 5.2q-1 0-1.4-.4-.4-.6-.1-1.6.7-1.8 4.2-5.6c4.9-5 17.3-12.5 37.5-21.5l15.4-6.9a122 122 0 0 0 42.3-31.5 133 133 0 0 0 26.5-59c10.8-51.7 34.4-77 72-75.8q21 .9 49.7 13.2a619 619 0 0 1 47.4 24.4l5.2 2.8c12.9 7 22.3 9.8 29.2 8.7 6-1.3 8.8-5 9.5-12q.5-9.7-5.6-24-6.3-14-16.5-26.7-22.8-28-23.8-51.6a56 56 0 0 1 12.8-36.2v-.1h.2a165 165 0 0 1 68 17.9q3 2.2 4 4 .6 2-1.3 3.7m-.4-.4q1.8-1.4 1-3.1a10 10 0 0 0-3.5-3.8 81 81 0 0 0-18.1-8q-28-9.4-49.5-9.7a55 55 0 0 0-12.6 35.8q1 23.3 23.6 51.2 10.3 12.7 16.6 26.8 6.3 14.4 5.6 24.3c-.6 7.4-3.7 11.2-9.9 12.5-7 1.1-16.5-1.7-29.5-8.8l-5.2-2.8a619 619 0 0 0-47.4-24.3q-28.4-12.4-49.5-13.2c-37.3-1.2-60.7 24-71.4 75.4-5 24.3-13.9 43.7-26.7 59.2q-16.4 19.5-42.5 31.7l-15.3 6.8c-20.2 9-32.6 16.5-37.4 21.4a21 21 0 0 0-4 5.4q-.3.7 0 1t.9.2q3.5-.2 11.2-5 9.7-6.1 22.1-10.2 7.5-2.5 22.5-5.5 20.7-4 30.5-7.5A73 73 0 0 0 354 611a71 71 0 0 1 18.9-15.7c3.9-1 6.6 1.4 9.4 8q3 7.9 3.2 16.4.2 10-3.8 16.8 14 17.7 20 30.5c.9 2.4.6 5-1.2 8.8-1.5 3.2-1.9 5.2-1.3 7l.1.3h-.3c-8.4.3-13.8 2.8-17.4 7.9-3 4.9-3.5 10.4-1.4 17.8v.1c-.2 1.7.8 4.3 3.2 8.6q2.4 4 3.2 6.4.8-10.3 8-17a24 24 0 0 1 19.6-5.8h.2v.2q1.8 2.4 7.1 5.7 6.3 3.8 10.8 3.9h.3v.3c.4 4 1.6 6.7 3.8 9.1l.1.1v.2c.1 5-1.3 7.9-4.8 10 3.3 1.8 5.7 2.2 8.1 1.6q3.6-1.3 4.6-6.2v-.1q2.2-2.2 2.6-7 .2-4.8-1.5-8.2v-.2c.6-2.9.2-5.8-1.2-9.7q-2.3-5.4-5.7-7.6l.2-.5c3.4 1.5 5.8 1.4 8.7-.5l.3-.2.1.4c2 4 4.6 6 9.4 6.4h.4v.4q-.4 2.2 3.2 5.8c2.8 3 4 5.2 4.3 7.4l.1 2q.4 6.3.2 9.4 3.5-4.7 4.2-11.1.7-7.5-2.7-14.5v-.2c0-5-1-8.7-3.1-12.1a13 13 0 0 0-10-5.8h-.2v-.1a11 11 0 0 0-7.9-4.7c-3.2-.1-5 .7-6.5 3l-.2.2-.2-.3c-3-3.3-6-4.7-10.3-4.6h-.4l.1-.4q.9-5-.6-8.1-1.5-2.9-4.5-3.4l-.3-.1v-.3q.2-4.6-2.2-8.5c-2-2.8-4.2-4.6-7.4-5.8l-.2-.1v-.2a57 57 0 0 1 1.2-28.8 79 79 0 0 0 2.5-19.5q-.6-12.6-8-29a59 59 0 0 1-5-28.5 41 41 0 0 1 10-25 38 38 0 0 1 26.9-11.8c13-.5 27.8 3.1 45.3 11.2q58.8 27.7 86.5 34h.3v.4c-1.2 6-.7 10 1.6 13l.2.1-.1.2c-3 5.6-3.2 9.4-.8 12.9l.1.1v.2q-1.6 4.7-1.6 7 .2 3 3 4.9l.2.1v.2c-.3 5.7 1.1 8.4 5 9.8h.3v.3c0 2.9 1 5 4 7.3 2.9 2 5.2 2.6 8 1.8l.5-.1v.4c0 2.9 1.5 5 5.1 7.3 3.6 2.1 6 2.6 8.3 1.8l.4-.2v.4q1.3 4.3 8 6.4c4.7 1.3 7 1 8.3-.6l.5.2c.2 2.4 2.1 4.2 7 6.5q7 3 10.9 1.7 3.9-1.5 7.5 0 2.1.7 5.7 3.4c3.5 2.6 5.8 3.5 8 3.2l.2.5c-4 2.6-5.7 5.3-6 9.2q0 5.2 4.6 10.1h.1v.2c0 4.3 1 7.8 3.2 11.4 2.7 3.5 5.4 5.3 9.2 5.9h.2v.2c1.2 4.6 4.3 7.6 10.3 10q7.3 2.5 13.6 1.3-5.2-2.3-8-5.2-1.5-1.9-2.9-5.4-1.6-4.3-5.5-5.2h-.3v-.4c2.4-7.4 1.6-11.8-2.6-14.6l-.3-.2.2-.3a33 33 0 0 0 5.6-8.3c1.7-3.8 2-6.5 1.4-9l-.1-.4h.4q4.5.3 8.2-2.9t4.9-8v-.5l.4.4c2.1 2 4.6 2.7 8.6 2.4a13 13 0 0 0 7.6-2.9l.3-.3.1.4c1.6 3 4.8 3.6 11 1.5h.2v.2q.8 1 3 2.5c3.1 2.1 4.8 4.4 5.8 7.7q2.6-5 .7-11.2a17 17 0 0 0-7-9.4l-.1-.2c-2.2-5.3-5.3-6.9-11-5.4h-.2q-1.5-1.4-5.3-1.8-4.4-.2-6.6 1.7l-.3.2-.2-.3q-.9-1.5-5.2-.2-2 1-4.3 1.7l-.2-.5.6-.3 3.6-1.4c5.6-3 7.3-6.3 5.9-11.2l-.2-.5.5.1c3 .3 5.5-.8 8.7-3.8q2.7-2.7 4.5-3.5c2-.7 3.8-.8 6.3-.3a18 18 0 0 0-11.8-5.3c-5.2-.3-9 .7-12.5 3.1l-.1.1h-.2c-3.9-1.3-6.7-.9-9.8 1.5-3 2.8-4 5.7-3.2 10l.1.6-.5-.2a7 7 0 0 0-7.8.4c-2.5 1.9-3.4 4-3.4 7.2v.5l-.4-.2a8 8 0 0 0-5.6.2 10 10 0 0 0-5 4.6l-.1.4-.3-.3c-4-4.5-8.2-6.4-13.8-6.2h-.2v-.1c-5.4-6-10.2-7.8-16-5.8h-.2v-.1a7 7 0 0 0-4.3-2.4 10 10 0 0 0-5.7.3h-.2l-.1-.2q-1.2-3.1-5.3-6-4.4-3-7.8-2.2h-.3v-.3q-.6-7.8 1.1-12.5 1.3-3 4.2-5.9 4.4-4.2 7.1-9.6a47 47 0 0 1 4.9-7.7 73 73 0 0 0 14.6-40.9c1.1-16-1.2-30.1-7-43.1q-4-9.3-14-26.2a190 190 0 0 1-14.6-28.6 43 43 0 0 1-.9-28.1 39 39 0 0 1 7.5-10.4"/><path fill="#fff" d="M713 690.6a30 30 0 0 0 30.1-30.5 31.3 31.3 0 0 0-30.1-31.3 29 29 0 0 0-30.1 29.4 32.3 32.3 0 0 0 30.1 32.4"/><path d="M713 690.9a30 30 0 0 1-21.5-10.1 33 33 0 0 1-9-22.6 29 29 0 0 1 30.5-29.6c8.5.3 15.4 3.4 21.5 9.5a31 31 0 0 1 9 22q-.1 12.9-9 22t-21.5 8.7m0-.5c8.4.1 15-2.6 21.1-8.6q8.6-8.9 8.7-21.6a30 30 0 0 0-8.7-21.6c-6-6-12.7-9-21.1-9.4a28.7 28.7 0 0 0-29.8 29.1c0 8.6 2.9 15.7 8.7 22.2 6 6.3 12.7 9.5 21.1 9.9m-114.6-312q-4.7 20.3-1.8 34.6 2.2 11.2 10.5 23.6a136 136 0 0 1 14 28.1q6.4 17.3 9 35.4c4.3 29 1.1 52-9.6 70l-.5-.4q16-26.5 9.6-69.6a182 182 0 0 0-9-35.2q-6.2-16.5-14-28A68 68 0 0 1 596 413a87 87 0 0 1 1.8-35zm34.8 157.2c5.2-1.6 8-4.4 9.1-9.3q0-.3.3-.2t.3.4c-1.3 5-4.1 8-9.5 9.6h-.3l-.1-.2q0-.3.2-.3m1.9-12.8q.5-2.5 4.5-5.8 4.4-3.5 4.5-6.3 0-.2.3-.2t.2.3q-.1 3-4.6 6.7-4 3.2-4.3 5.5 0 .2-.2.2h-.2q-.2 0-.2-.4m.2-20.3q-.1-2.7 3.4-7.3 3.8-5 3.3-7.6 0-.3.2-.3h.2l.1.2c.3 2.2-.6 4.5-3.3 8q-3.5 4.6-3.4 7 0 .4-.2.4t-.3-.4m-4.6-19.9q-.3-1.4 2.3-5c2.6-3.7 3.3-6 2.7-8q-.1-.4.1-.4h.2l.2.1c.7 2.3 0 4.8-2.8 8.7q-2.3 3.4-2.1 4.6 0 .3-.2.3h-.3zm-5.8-19.5q-.7-1.9.8-5.2c1.2-2.6 1.3-4.2.6-5.6l.1-.4h.3l.1.2c.8 1.6.7 3.3-.5 6q-1.5 3.3-.9 4.8v.3l-.1.1q-.3 0-.4-.2"/><path d="M616.5 446.8q-.3-1 .6-4 1.3-4.4.4-6.3l-.1-.2q0-.2.2-.2l.3.1c.7 1.6.7 3.6-.3 7q-.7 2.7-.6 3.6 0 .3-.2.3h-.2zm-8.5-19 .6-.6c1.8-1.8 2.3-3 1.8-4.6l.1-.4h.3l.1.2c.6 1.8 0 3.3-2 5.3l-.4.5h-.4q-.3-.2 0-.5m-5.8-13.8.7-.3q3.6-1.3 3.3-3.2 0-.3.3-.3t.3.2c.1 1.8-.9 2.8-3.6 3.9l-.7.2h-.2l-.2-.1zM426.2 728.4c-3.6-1.7-6.8-2-10.6-1S410 730 409 733l-.2.1h-.2q-.2 0-.2-.4c1.1-3 3.1-4.9 7-6s7.2-.7 11 1q.3.3.2.5l-.2.1zm-12.5 10.8c.6-3.1 2.3-4.7 5.9-5.8 3.5-.8 5.6-.3 7.4 1.5q.1.3 0 .4h-.3q-1.9-1.3-3.5-.5-1.3.6-2 2.6a6 6 0 0 0 0 3.5q.5 1.8 2.1 2l.2.2v.2q0 .3-.2.2-2-.4-2.7-2.5a7 7 0 0 1 0-3.9 5 5 0 0 1 2.3-2.9q.9-.3 1.7-.3a9 9 0 0 0-4.8 0q-4.9 1.4-5.6 5.4 0 .3-.3.2t-.2-.3m57-134c-2.1 1-3.1 2.5-3.4 5.8 0 3.5 1 6.4 3.5 9.8q.3.1 0 .4l-.4-.1a16 16 0 0 1-3.7-10.2c.3-3.5 1.4-5.3 3.8-6.3q.3 0 .4.2zm6.4 2.7c-1.5 1.2-2 2.8-2 5.7q.4 2.8 1.7 4.5-.6-1.6.4-3.4 1.4-2.5 3.9-2.4 2.3.3 3 2.6t-1.6 4.4q-.1.2-.4 0-.2-.3 0-.4 2.2-1.9 1.5-4-.5-1.7-2.5-2-2.1-.1-3.4 2.2-1.4 2.4 1 4.5v.3l-.1.2h-.2c-2.3-1.5-3.4-3.4-3.8-6.6q-.4-4.3 2-6.1h.5zm247 46c-5.2-1.4-8.5-.1-11.1 4.3-2.3 4.6-1.7 8.8 2 13.8q.3-7 4.6-11.2c3.3-2.9 6.7-3.8 11.3-2.9q.3 0 .2.4v.2h-.3c-4.4-.8-7.6 0-10.8 2.7-3 3-4.3 6.5-4.3 11.6l-.1.3h-.5c-4.4-5.6-5.2-10.1-2.7-15.2 2.8-4.7 6.3-6 11.8-4.6q.3 0 .2.4v.2zm2.8 11.5q-1.6 0-2.6 1-.9 1.1-1 2.5t1.2 2.5q1.1 1 3 1.2 1.1 0 2-1.2.9-1 .9-2.2 0-.3.3-.3t.3.3q0 1.4-1 2.6-1.1 1.4-2.5 1.3-2 0-3.4-1.3a4 4 0 0 1-.2-5.7 4 4 0 0 1 3-1.3q.3 0 .3.3t-.3.3m35-222c1 3 2.7 4.7 6.2 6a17 17 0 0 0 9.8.4q.3 0 .4.2 0 .3-.2.3c-3.7 1-6.8.8-10.2-.3q-5.4-2-6.5-6.4v-.2l.2-.2q.3 0 .3.2m16.1 3c-2.7 0-4.6-.6-6.7-2.6a8 8 0 0 1-2.5-6.2v-.2h.3q.2 0 .2.3c.2 1.3 1.1 2.1 3.5 2.7q3.5.6 5-.8.3-.3.4 0 .2.1 0 .4-1.8 1.6-5.5 1a6 6 0 0 1-3.3-1.6q.4 2.1 2.3 4a8 8 0 0 0 6.3 2.4h.2l.1.3q0 .2-.3.3M428.5 617.7q-.8-2.4 2.2-6.1 2-2.7 2.2-4 .1-3.3 4.2-3.3c3.1.3 5.8 1.8 9 5.3v.4h-.5c-3-3.4-5.5-4.8-8.4-5-2.5 0-3.5.7-3.8 2.6q0 1.6-2.3 4.4c-2 2.5-2.5 4-2 5.5q0 .3-.3.4-.2 0-.3-.2m14.4-46.5-1.4.6-2 .6q-.2 0-.3-.2 0-.4.2-.4.6 0 1.8-.6l1.5-.5q.3 0 .4.2 0 .3-.2.3m12 21.5a12 12 0 0 1-6.3-2.3q-.3-.1-.1-.4.1-.1.4 0 2.1 1.7 6 2.1.4 0 .4.3t-.3.3m-6 6q-3 .9-5.7 1.2-.3 0-.3-.3t.2-.3q2.7-.3 5.5-1.2.3 0 .4.2l-.2.3m-60.2 100.5q0 2 1.6 5.4 1.5 2.8 3 4.3.3.1.1.4-.1.1-.4 0-1.5-1.5-3.1-4.5a13 13 0 0 1-1.7-5.7q0-.3.3-.3t.2.4m13.7-6a11 11 0 0 0-1.7 10.2q0 .3-.2.4-.3 0-.4-.2c-1-4-.5-7.2 1.8-10.7q.3-.2.4 0 .3.1.1.4m25.8 14.4c-1.5-1.5-2-3.8-1.6-8q.2-2.6.1-3.8c-.1-2.6.7-4 2.8-5.3 2.8-1.2 5.4-.6 9.3 2.2q.2.3 0 .4 0 .3-.3 0c-3.7-2.5-6.1-3.1-8.6-2q-2.9 1.4-2.6 4.7l-.2 3.9c-.3 4 .1 6.1 1.5 7.4v.5q0 .1-.4 0m-29.4-25q5.3-.2 8.8 1.6.2.1.1.4 0 .3-.4.1a17 17 0 0 0-8.4-1.6q-.3 0-.4-.3 0-.2.3-.3m40.4-4.3q-1.5 2-1.9 5.2 0 .3-.3.2t-.3-.3q.6-3.4 2-5.5.3-.1.4 0 .3.3 0 .4m14.6 2q-3.3-.5-5.3 2.6-.3.3-.4 0-.3 0-.1-.4 2.2-3.3 5.8-2.9.3 0 .3.4 0 .3-.3.2m-34-97.7q3 1.5 6.2 4.6c2.8 3 4.1 5.2 4.4 7.5q0 .3-.3.2t-.3-.3q-.2-3-4.1-7a26 26 0 0 0-6.1-4.5q-.2-.1-.2-.4.1-.3.4-.1m29.8-18.6c-4.4-1-6.9-2.7-8.6-6.1q-1-2.1-.2-3.5t3.4-1q.3 0 .2.3t-.2.3q-2.2-.4-2.9.8-.6 1 .2 2.9c1.6 3.2 4 4.8 8.1 5.7q.3 0 .3.3t-.3.3m15.6 14.4q-2.3.6-1.4 4 1 3.5 4.5 6.2.2.1 0 .4h-.3q-3.6-2.9-4.7-6.5c-.6-2.8-.2-4 1.7-4.7q.3 0 .4.2 0 .3-.2.3m-21 53.4c-1-1.7-.9-3 .4-5 1.6-2 3.2-2.3 6-1q.2 0 .2.3-.1.3-.4.2-3.5-1.7-5.3.8-1.6 2.5-.4 4.4.2.3 0 .5-.3 0-.4-.2m12.8 67.6c.3-3.2 1.5-4.6 4.2-5.3 2.9-.4 4.6.8 6.2 4.2q0 .3-.2.4l-.3-.2q-2-4.5-5.5-3.8c-2.5.6-3.5 2-3.8 4.8q0 .3-.4.2-.2 0-.2-.3m-25 12c-.2-5.5 1.3-7.7 5.4-7.9a8 8 0 0 1 4.6 2q2.6 2.1 3.9 5.3l-.1.3q-.3 0-.4-.2-1.2-2.9-3.7-5a7 7 0 0 0-4.2-1.8c-3.8.2-5.1 2.2-5 7.4q0 .3-.2.2t-.3-.3m-52.5-2.3q.4-2.9 2.3-5 2-2 4.6-1.3.3 0 .2.3t-.3.2q-2.1-.5-4 1.3a8 8 0 0 0-2.2 4.6q0 .3-.3.2t-.3-.3m322.6-119q-2.2 1.6-1.6 5c.8 2.9 2.5 4.2 6.4 4.8l.2.1v.2q0 .3-.3.3c-4.1-.7-6-2.1-6.8-5.2-.4-2.7 0-4.3 1.7-5.6q.3-.2.4 0l.1.3zm-13.3 11.7q0 1.2 1.8 2.6v.4q-.1.3-.4 0-1.9-1.5-2-3 0-.3.3-.3t.3.3m41.1 16.2q-.7-.5-1.8.1-1.3.8-2 2.4c-1.4 3.1-1 5.3 1.3 7.8l.2.2-.1.2q-.3.3-.4 0c-2.6-2.7-3-5.1-1.6-8.4q.8-1.7 2.3-2.7 1.4-.9 2.4 0 .3 0 .1.3t-.4 0m-56 58c-.6-2.7-.1-4.1 1.8-5.2q2.4-1 6.2 0 .3.1.2.4v.2h-.3q-3.6-1-5.8 0c-1.7.9-2.1 2.1-1.6 4.5v.3h-.2q-.3 0-.4-.2M662.7 638l.8-.5q4.8-2.9 7.9-3.5.3 0 .3.2t-.2.4a28 28 0 0 0-7.7 3.5l-.8.4h-.4zm-1.5 20c.2-4.8 1.4-7.4 4.2-9q.3 0 .4.2v.4c-2.7 1.5-3.9 3.9-4 8.4q0 .3-.3.3t-.2-.3m16-48.5q-.4 6.3 3.3 13v.4l-.5-.1a25 25 0 0 1-3.3-13.6h.2q.3 0 .3.3m41.7 2.6q-4.5 1.3-5.6 3.7-.1.2-.4 0-.2 0-.2-.3c1-1.7 2.7-3 6-4q.3 0 .4.2 0 .3-.2.4m-3.1 14.2a23 23 0 0 0 3.2-3.1q.1-.3.4 0l.1.1v.2q-.7 1-3.3 3.3h-.4zm67-158.1q0 3.9-3.8 5.8a6 6 0 0 1-6.9-.5q-.1-.3 0-.4l.2-.2h.2q2.8 2.3 6.3.6 3.4-1.7 3.4-5.3 0-.3.3-.3t.3.3m13.3-1q2.2 1.5 6.5-.5a7 7 0 0 0 2.8-2.3q.9-1.4.2-3.3v-.2l.1-.2q.3 0 .4.2.8 2-.3 3.8-.9 1.5-3 2.5c-3.2 1.5-5.2 1.6-7 .4l-.2-.1v-.3zm-11.7 30.4q-3.9-.6-6.9-4v-.5h.5c2 2.3 3.9 3.5 6.5 3.9q.3 0 .2.3v.2zm19.5-16.5q-3.7 1.1-7 0-.3-.1-.2-.4l.1-.2h.3q3.2 1.1 6.7 0 .2 0 .3.3v.2zm-50 20.3a20 20 0 0 0 8.7-2.4q.3-.2.4 0v.3l-.1.2q-4.4 2.4-9 2.5-.4 0-.4-.3t.3-.3m-5.3-31.2q-3-.3-5 1l-.3.1-.2-.1.1-.4q2.2-1.5 5.5-1.2.3 0 .2.3v.2zm35.8 7.3a16 16 0 0 1-4.2 7.7q-.2.3-.5 0v-.2l.1-.2q2.6-2.3 4-7.4.1-.2.4-.2t.2.3m-41.8 9c1.4-.4 3 .5 6 3.3q4 3.6 6.2 4.7a9 9 0 0 0 8.2-.4l.3.1v.4a10 10 0 0 1-8.7.5q-2.4-1.2-6.3-4.9-4-3.8-5.5-3.1-.3 0-.4-.2 0-.3.2-.4m21.6-7.9a16 16 0 0 0-2.5 8h-.2q-.3 0-.3-.3.4-4.8 2.5-8 .3-.3.4 0h.2zm-210.8-40c2.6 0 3.7-.5 4.2-1.7l.5.2c-.6 1.5-1.8 2-4.6 2zm-181 141.9c6.8 4.8 8.9 10 7 17.1l-.6-.2c1.8-6.8-.2-11.8-6.6-16.5zM614.5 430q1.2.8 4.6 1.3 3.7.2 6-.3l.3.6q-2.5.6-6.2.2a11 11 0 0 1-5-1.4zm15.3 5.6v1.5c-.3 7.5-1.6 11.2-4.4 12.3l-.2-.6c2.6-1 3.8-4.5 4-11.7v-1.6z"/><path d="M627 447.9c2.9 1.2 5.4 1.4 8.4.9 3.8-1 5.9-2.9 7.3-6.5l.5.3a10 10 0 0 1-7.6 6.7q-4.5.9-8.8-.9z"/><path d="M637 448.7q2 3.6 1.6 7.5c-.7 3.3-2.3 5.3-5.6 7l-.2-.6q4.4-2 5.2-6.5a11 11 0 0 0-1.4-7.1z"/><path d="M638.6 454.7a17 17 0 0 0 10 1.4c4.2-1 5.7-3.2 5.3-7.9h.6c.4 5-1.2 7.4-5.7 8.5q-5 .9-10.4-1.4z"/><path d="M650.4 456q3.3 4.7 10.3 6.9 3.3.8 4.8 0 1.7-1.3 1-4.7l.5-.1q.8 3.9-1.2 5.2-1.7 1.1-5.2.1c-5-1.5-8.3-3.7-10.7-7.1zM636 469c3.6 1.1 6 .8 8.7-1.2 2.8-2.5 3.3-5.6 1.8-10.8l.6-.2c1.6 5.5 1 8.8-2 11.5-2.8 2-5.4 2.5-9.3 1.3z"/><path d="M664 463.8q.3 1.4 3.4 3a24 24 0 0 0 6.6 2.1q3.9.6 6-.3c1.5-1 1.9-2.1 1.4-4.3l.5-.1c.6 2.5.1 3.8-1.7 4.9q-2.1 1-6.2.4-3.7-.6-6.9-2.2-3.2-1.9-3.7-3.4z"/><path d="M678.2 469.3q1.4 3 5 4.9 3.3 1.7 7 1.5 3.6-.4 5-2.4c1-1.7 1-3.5-.4-6.3l.5-.3c1.5 3 1.6 5 .4 7q-1.6 2.2-5.5 2.6-3.7.1-7.2-1.6-3.9-2-5.3-5.2z"/><path d="M692.1 475.5q1.4 1.8 4.6 2.3 3.3.5 6.2-.5 3.2-1.3 4.2-3.6c.7-2 .3-4-1.2-7l.5-.2c1.6 3 2 5.2 1.2 7.4q-1 2.7-4.5 4-3 1-6.4.5t-5-2.5z"/><path d="M706.1 476q3.8 3 7.8 3a8 8 0 0 0 5.8-2.4 6 6 0 0 0 1.4-5.4q-1-3.6-5.6-6.7l.3-.5q4.8 3.3 5.8 7c.5 2.5.1 4.2-1.5 6a9 9 0 0 1-6.2 2.6c-3-.2-5.4-1.1-8.1-3.2z"/><path d="M722 473.7a9 9 0 0 0 7 2.3q3.2-.4 5.7-2.8a8 8 0 0 0 2.5-5q0-2.7-2.7-4l.3-.6q3 1.6 3 4.7-.2 2.8-2.7 5.3a11 11 0 0 1-6 3c-2.9.2-5-.5-7.5-2.4zm-75.3-7.9q2.9 1 5.8.5c2.6-.7 3.8-2 4.6-4.4l.6.2c-.9 2.6-2.3 4-5 4.7q-3.1.7-6.1-.5z"/><path d="M655.3 465.6c0 4.3 1.9 6.5 6.6 7.9 4.8 1 7.5-.4 9.4-4.8l.5.3c-2 4.7-4.8 6.1-10 5q-3-.7-5-3a8 8 0 0 1-2-5.4z"/><path d="M667.3 473.5c1.5 3 3.8 4.6 8 5.3 4.5.5 6.5-.7 7.7-4.3l.5.2c-1.2 3.9-3.5 5.2-8.2 4.7-4.4-.8-6.9-2.4-8.5-5.6z"/><path d="M681.6 478c1.1 2.7 3 3.8 6.9 4 3.8 0 6-1.2 7.5-3.9l.5.3c-1.7 2.9-4 4-8 4.2-4.1-.2-6.2-1.4-7.4-4.4z"/><path d="M692.8 481.6c1.9 3.7 4.6 5.2 9.4 5.1 5-.4 7.7-2.7 9.3-7.5l.5.2c-1.7 5-4.5 7.4-9.7 8-5.1 0-8-1.6-10-5.6z"/><path d="M709.6 483.5c3.2 1.9 6 2.2 9.6 1.2 3.9-1.6 5.4-4 5.1-8.7h.6c.3 5-1.3 7.6-5.5 9.2a11 11 0 0 1-10-1.3z"/><path d="M722.7 483c4 3.2 7.2 3.6 11 1.2 3.5-2.7 4-6 1.6-11.2l.5-.3c2.5 5.6 2 9-1.8 12-4 2.5-7.4 2.1-11.7-1.3z"/><path d="M735 491.3c2-.5 3-1.8 3.8-4.8.5-3 0-4.6-2-5.8l.3-.5c2.2 1.3 2.8 3.1 2.3 6.5-.8 3.2-2 4.6-4.3 5.2zm-94-3.9c4.3-2 6.4-4.4 7.4-8 .6-3.8-.4-7.2-3.2-11.5l.4-.3c3 4.4 4 8 3.3 11.9-1 3.8-3.2 6.4-7.6 8.5z"/><path d="M648.6 480.3c2.9 1.8 5.6 2.1 9.6 1 4-1.6 6-3.8 7-7.5l.6.2c-1.1 4-3.3 6.2-7.4 7.8-4.1 1.2-7 1-10.1-1z"/><path d="M655.9 481.9c3.5 5.3 3.4 9.3-.4 13.7l-.4-.5c3.5-4 3.6-7.9.3-12.9z"/><path d="M658 487q3.3-1.7 7.2-1 3.5.8 6 3.3a8 8 0 0 1 2.5 5.5q0 3.3-3.1 5.5l-.4-.5q3-2.1 3-5a8 8 0 0 0-2.4-5.1 12 12 0 0 0-5.7-3.1q-3.6-.8-6.9 1z"/><path d="M668.8 487.4q1.6-.3 3.5-2.7 2.2-2.6 2.4-5.6h.6q-.3 3.2-2.5 6-2 2.4-4 2.9zm4 4.5c1.2-1 3-1.1 6.4-.6q4.5 1 8.5 3.2c3 2 4.3 3.6 4.7 5.6 0 2.4-1.6 4.2-5.7 6.2l-.2-.5c3.8-2 5.3-3.5 5.3-5.7q-.3-2.6-4.4-5a28 28 0 0 0-8.3-3.2q-4.5-.8-5.8.5z"/><path d="M685.5 481.4c3 1.5 4.4 3.2 5 6.2.2 3.3-1.2 5-5 6.2l-.2-.6c3.6-1 4.8-2.6 4.6-5.5-.5-2.8-1.8-4.4-4.6-5.8zm6.4 18.4c3.2-3 7.2-3.5 13.2-1.8q3.6 1.2 5 3.2c.9 1.8.6 3.2-1 5.2l-.4-.4q2-2.4.8-4.5-1.2-1.7-4.6-3c-5.8-1.6-9.6-1-12.6 1.8z"/><path d="M704.5 498.2a8 8 0 0 1 4.8-5.2q3.1-1 6.9-.2 3.5.8 5.2 2.7.7 1 .7 2-.2 1-1.4 2l-.3-.6q1-.8 1.1-1.5 0-.8-.6-1.5-1.4-1.8-4.8-2.5-3.7-.9-6.6.1a7 7 0 0 0-4.5 4.9zm-3.4-11.1q.6 2.4.1 5a9 9 0 0 1-3 5.6l-.3-.5a8 8 0 0 0 2.8-5.2 13 13 0 0 0-.1-4.8z"/><path d="M717 485.5c1 2.8.6 5-1.1 7.6l-.5-.4q2.5-3.3 1-7zm12 .3c2 4.2 1.6 6.8-1.2 9.2l-.4-.4c2.6-2.3 2.9-4.6 1-8.5zm-150.7-95.7c.2 5.9 1.3 9.5 3.5 11.9 3 2.6 7 2.9 13.3.8l.3.5c-6.6 2.2-10.8 1.9-14-1-2.3-2.5-3.5-6.2-3.7-12.3z"/><path d="M582.5 403.1q-2.4 3-2.5 6.2 0 3 2 5.1c3.5 3.3 7.8 3.1 14.1-.7l.4.6c-6.6 3.9-11.1 4-14.9.5a8 8 0 0 1-2.1-5.6 11 11 0 0 1 2.5-6.5z"/><path d="M561.8 404.4a17 17 0 0 0 7.6 5.4c2.8.8 4.8.7 7-.2q3-1.6 3.3-5.3.2-4.3-3.3-10.1l.4-.3a19 19 0 0 1 3.5 10.5q-.4 4-3.6 5.7a10 10 0 0 1-7.4.2q-4.4-1.5-7.9-5.6zm26.2 12.5c-.7 4.7.2 7.3 3 9.2 3 1.5 5.6 1.4 9.2-.5l.3.5c-3.8 2-6.6 2.1-9.7.5-3.2-2.1-4.1-5-3.4-9.9zm-34.2-12c1 5.5 3.4 9.5 7.5 12.9 4.6 3.3 8.6 3.8 13.4 1.7l.3.5c-5 2.3-9.1 1.7-14-1.8a21 21 0 0 1-7.7-13.2z"/><path d="M565.8 420.5q0 5 3 8.4c2 2.2 4 3.4 6.9 4q4.2.9 7.7-1 3.8-2.4 5.4-7.3l.6.3a13 13 0 0 1-5.7 7.5 12 12 0 0 1-8 1.2q-4.4-1-7.3-4.3a14 14 0 0 1-3.2-9z"/><path d="M582.5 432.8c3 6.3 6.7 9 12.3 9.2 5-.2 8.4-2.2 11.1-6.4l.5.4a13 13 0 0 1-11.5 6.6c-5.9-.1-9.8-3-13-9.7zM568.9 410q2.5 6.3 6 9.1c3.5 2.6 7.3 3 12.5 1.5l.2.5c-5.4 1.6-9.3 1.1-13-1.5a22 22 0 0 1-6.2-9.4zm-35.1-8.2q1.4 4.9 7 7.7c4.7 2.2 9 2 13.8-.4l.3.5a15 15 0 0 1-14.2.5q-5.9-3.1-7.5-8.2z"/><path d="M540.2 409.8a7 7 0 0 0-1.2 5.5 7 7 0 0 0 3.5 4.2c5 2.5 10 1.4 16.5-3.5l.4.5c-6.7 5-12 6.1-17.1 3.5a8 8 0 0 1-3.9-4.6 7 7 0 0 1 1.3-6z"/><path d="M547 421c1.4 7.6 3.4 11.9 6.2 14 4 2.6 9 1.2 16.7-4.6l.4.5c-7.8 6-13.2 7.3-17.4 4.6-3-2.2-5-6.7-6.5-14.4z"/><path d="M562 435.4q5.3 7.3 10.7 8.8c4.7 1 8.5-.8 12.6-6l.5.3c-4.2 5.5-8.2 7.4-13.1 6.3-4-1.2-7.4-4-11.1-9zm30.2 6.6q-.3 6.9 1.2 10c1.4 2.4 3.3 3.4 6.6 3.8 5.3.2 9.4-2 13.3-7.6l.5.4c-4 5.6-8.3 8-13.8 7.8q-5-.5-7-4.1a22 22 0 0 1-1.4-10.5z"/><path d="M599 456c.1 5.8 1.8 9.5 5.5 12.2 4.6 2.7 9.6 2.2 16.6-1.8l.4.5c-7.2 4-12.5 4.6-17.2 1.8-4-2.9-5.8-6.7-5.8-12.8z"/><path d="M605.2 469c-1.5 4.4-.4 8 3.7 12.4 4.9 4.5 10.4 5.6 18.1 3.6l.2.6c-7.9 2-13.6.9-18.6-3.8-4.3-4.5-5.5-8.4-4-13.1zm-35-25.4c-.4 5.5 1 8.7 5.2 10.9 4.7 2 9.8.7 16.7-4.3l.4.5c-7 5.1-12.4 6.4-17.3 4.3-4.4-2.3-6-5.7-5.6-11.5z"/><path d="M577.2 455.6c.5 5.1 2.4 8.4 6.5 10.8 4.9 2.5 9.7 1.2 15.7-4.3l.5.5c-6.3 5.7-11.3 7-16.5 4.3-4.2-2.5-6.2-6-6.7-11.4z"/><path d="M583.6 466.8c-.4 6.9 1.5 10.9 6.4 13.3 5 2.1 9.6 1 15-3.5l.5.4c-5.6 4.8-10.4 5.9-15.7 3.7-5.1-2.6-7.2-6.8-6.8-14zm-19.1-13.3q2.9.5 6.2-3.1l.5.4c-2.5 2.7-4.4 3.6-6.8 3.3zm6 11q1.7.5 4.2-.5a7 7 0 0 0 3.6-3l.5.3q-1.1 2-3.8 3.3-2.6 1-4.6.4z"/><path d="M576.8 481.8q2 2.5 7.1 2c3.5-.4 5.2-1.4 6-3.3l.5.2c-.8 2.2-2.6 3.2-6.4 3.7q-5.4.5-7.6-2.2z"/><path d="M587.4 483.2c2.8 6.7 6.5 9.9 12.1 10.4 5.7.1 9.5-2.7 12.6-9.4l.5.3c-3.1 6.9-7.1 9.8-13 9.7-6-.6-9.8-3.9-12.7-10.8z"/><path d="M610 489c3.3 9 9.5 12.7 19.9 11.7v.6c-10.6 1-17-2.8-20.5-12.2z"/><path d="M615.2 497.5q-2.1 3.4-2 7.2.3 3.6 2.3 6c4 3.7 8.4 3.4 15-1.4l.3.5c-6.8 5-11.5 5.3-15.7 1.2a10 10 0 0 1-2.5-6.4q0-3.9 2.1-7.5z"/><path d="M618.6 513a14 14 0 0 0 3.2 9.7q3.9 4.9 9.6 6.2l-.1.6c-4-1-7-3-10-6.5a15 15 0 0 1-3.3-10zm-26-22.1c-1 7.3.5 12 4.7 15.6 4.4 3.4 9.2 3.6 15.8.6l.2.5c-6.7 3-11.7 2.9-16.3-.6-4.5-3.8-6-8.8-5-16.3z"/><path d="M577.5 495.6c3.8 3.4 8.3 4.3 14.7 2.8l.2.6c-6.6 1.5-11.2.6-15.3-3zm21.9 12.6c-.7 3-.6 5.4.3 8.1q1.3 3.6 4.3 5.6c5 3 9.4 1.7 14.6-4.2l.5.4c-5.4 6.1-10 7.4-15.4 4.3a12 12 0 0 1-4.6-6q-1.4-3.9-.3-8.4z"/><path d="M582.3 498.5c.3 3.6 1.6 6.2 4.4 9q4.8 4.4 11.9 4v.6c-5 .2-8.8-1-12.3-4.1-3-3-4.3-5.8-4.5-9.6zm45.5 29.7c-3.7 2.3-5.3 4.8-5.5 8.4.2 4 2.2 7 6.9 10.4l-.3.4c-4.9-3.4-7-6.7-7.2-10.8.2-3.9 1.9-6.5 5.8-9z"/><path d="M610.7 523.4c.5 7.5 4 11.6 11.3 13.3v.6c-7.7-1.8-11.3-6-11.9-14z"/><path d="M600.2 518.6a11 11 0 0 0-4.2 6.6q-.4 3.3 1.7 5.8a9 9 0 0 0 6 2.9q4 .1 8.4-2.6l.4.5a15 15 0 0 1-8.8 2.7 9 9 0 0 1-6.4-3.1 8 8 0 0 1-1.9-6.3q.6-3.9 4.4-7z"/><path d="M607.7 534.2a11 11 0 0 0 .1 7.2q1.4 3.2 4.1 4.8c4.9 2.6 8.4 1.5 12-3.7l.5.4c-1.9 2.6-3.7 4-6.3 4.8q-3.3.8-6.4-1A10.6 10.6 0 0 1 607 534zm-21.9-27c-1.8 5.3-1.7 9.3.2 13.1 2.2 3.6 5 5.2 9.6 5.6v.6c-4.8-.4-7.8-2.1-10-6-2-4-2.2-8.1-.3-13.6z"/><path d="M572 503a9 9 0 0 0 3.9 7.1 13 13 0 0 0 8.2 1.9l.1.6c-3.5.2-6-.4-8.6-2-2.6-2-3.8-4.2-4.2-7.7z"/><path d="M576 510.7c-2.2 4.4-2 7.2.5 10 2.9 2.5 6.1 3.1 11 2l.3.6c-5.2 1.1-8.6.5-11.6-2.2-2.9-3-3-6-.7-10.7zm40.8 37q-1.2 4.6.1 7.4 1.8 3.2 7.6 5.4l-.1.5q-6.1-2.2-8-5.7-1.4-3-.1-7.8z"/><path d="M617.2 556.4c-5.1 2-7.6 4.6-8.4 9-.3 4.3 1.2 8 5.3 12l-.4.4c-4.2-4.2-5.8-8-5.4-12.5.7-4.6 3.3-7.4 8.7-9.5z"/><path d="M608.9 543.9a9 9 0 0 0-3.4 8.6c.5 3.6 2 6 5 8.3l-.3.5q-4.6-3.2-5.3-8.9a10 10 0 0 1 3.6-9zm-46.2-39.1q-2 1.9-2.3 5.4 0 3.5 1.6 6.6a9 9 0 0 0 5 4.3c2.7.6 5.1.3 8.3-1.4l.3.5q-4.7 2.6-8.6 1.4-3.5-1-5.4-4.6a14 14 0 0 1-1.7-6.9q.2-3.8 2.4-5.8z"/><path d="M597 530.6c-4.2 3.2-5.2 6.4-3.5 11 2.2 4.5 5.8 6.1 12.2 5.5l.2.5c-6.8.8-10.6-1-12.9-5.8-1.8-4.9-.8-8.3 3.7-11.7z"/><path d="M583.7 523.5c-2 5.7-2 9.5-.5 12.6 1.7 2.6 4.6 4 9.6 5v.5c-5.2-.8-8.2-2.5-10-5.3-1.7-3.2-1.6-7.2.4-13.1zM554 503a10 10 0 0 0-4.8 8.3q0 4.4 2.7 8c1.7 2 3.3 2.7 5.7 2.6a6 6 0 0 0 5-3.6l.4.3a6 6 0 0 1-5.2 3.9c-2.7.1-4.5-.7-6.3-2.8a14 14 0 0 1-3-8.5c.3-3.9 1.7-6.5 5.1-8.8z"/><path d="M538.8 495.8c-3.9 4.8-4.4 9.2-1.6 14.6 3.1 5.1 6.9 7 12.7 6l.2.7c-6.1.9-10.1-1-13.4-6.5-3-5.6-2.4-10.2 1.6-15.2zm43.2 37.9a16 16 0 0 0-9.6 6c-2.1 3.3-2 6 .2 9.7 2.1 2.8 4.8 3.7 9.3 3 5-1 8.1-4.4 10-11l.5.2c-1.9 6.8-5 10.3-10.4 11.4-4.7.7-7.6-.3-9.9-3.3-2.4-3.9-2.5-6.9-.2-10.5q3.1-4.4 9.9-6z"/><path d="M567.2 521.6c-2.4 3.4-3 6.1-2.3 9.3 1.1 3.3 3.4 5.7 7.7 8.2l-.2.5q-6.5-3.5-8-8.6c-.9-3.4-.2-6.3 2.3-9.8z"/><path d="M566.5 534.8c-5.8 2.6-7.9 6-7 11.3h-.6c-.9-5.6 1.3-9.2 7.4-11.9z"/><path d="M555.2 522c-1.7 7.8 0 13 5.3 16.6l-.2.5c-5.7-3.8-7.4-9.2-5.6-17.4z"/><path d="M554.8 532.2c-4.2-.8-6.6-.5-8.4.9-1.7 1.7-1.9 4-.7 8.2h-.5c-1.3-4.3-1-6.8.8-8.7 1.9-1.5 4.4-1.8 8.8-1z"/><path d="M546 532.9c-3.9-2.2-6-4.6-7.1-8.1-.8-3.4-.4-6.4 1.4-10.1l.5.3a14 14 0 0 0-1.3 9.7q1.3 4.8 6.7 7.6z"/><path d="M539.5 525.6c-8.1-.7-11.7 1.9-11.9 8.5h-.6c.3-7.1 4-9.8 12.4-9.1zM528 490c-3 1-4.6 2.8-5.9 6.1q-1.5 4.6.3 8.5 1.7 3.5 5.9 4.7c3 .7 5.2.4 7.6-.7l.3.5a11 11 0 0 1-8 .7c-3.2-1-5-2.4-6.3-5-1.2-3-1.3-5.6-.3-9 1.3-3.5 3-5.3 6.2-6.4z"/><path d="M511 480.8c-2.8 3-3 6.3-.4 11.1 2.9 4.8 6 6.6 11 6l.2.6c-5.2.6-8.7-1.3-11.7-6.3-2.7-5.2-2.5-8.6.5-12z"/><path d="M496.6 473.4c-2.8 3.9-2.8 7.4 0 12.2 3.1 4.8 7.3 6.7 13.7 6.1l.2.6c-6.7.6-11-1.4-14.4-6.5-2.9-5-2.9-8.7 0-12.8zm14.2 53.9c-.6-5.5.8-8 5-9 4.5-.6 9 2 14.5 8.5l-.4.3c-5.4-6.3-9.7-8.7-14-8.2-3.8.9-5.1 3.3-4.5 8.4z"/><path d="M524.9 508.2c-3.5 2.8-4.8 6-4.3 11h-.6c-.5-5.1.8-8.6 4.5-11.5zm-42.7-41.3c-2.9 4.8-2.9 8.5 0 12.6 3 4 7.1 5.4 13.4 4.7l.1.6c-6.5.7-10.7-.8-14-5-3-4.3-3-8.3 0-13.3zm32.5 30.1c-3.9 3.5-5.4 6.9-5 11.3q.7 5.4 5.6 10.2l-.3.4a18 18 0 0 1-5.9-10.7c-.3-4.5 1.2-8 5.2-11.7z"/><path d="M509.2 506.2c-6.1-.7-9 1.2-9.7 6.3-.4 5.3 1.6 9 6.8 12.3l-.2.5c-5.5-3.5-7.6-7.4-7.2-13 .8-5.4 3.8-7.4 10.3-6.7z"/><path d="M499.8 489.9q-4.1 2.4-4 7.7c.3 4.1 2 7 6.1 9.6l-.2.5c-4.3-2.8-6.2-5.8-6.5-10.1.1-4 1.4-6.4 4.3-8.2zm-.6 22c-2.8-1.6-5-1.8-7.5-1-2.4 1.2-3.3 2.9-3.2 6h-.5c-.2-3.4.8-5.2 3.5-6.5 2.6-1 5-.7 8 1.1z"/><path d="M491.1 510.8c-2.5-6.1-5.7-8.8-10.6-9.1q-3 0-4.7 2-2 2.5-1.5 6.7h-.6q-.3-4.5 1.6-7a6 6 0 0 1 5.1-2.3c5.2.3 8.6 3.1 11.3 9.5z"/><path d="M495.3 497.4c-5.8.2-9 1.8-11 5.1l-.5-.3c2-3.5 5.4-5.2 11.4-5.4z"/><path d="M485.1 482.7c-2.5 2.7-3.1 5.4-2 9.1 1 3.3 2.6 5.3 5.2 6.8l-.2.5a12 12 0 0 1-5.6-7.2c-1.1-4-.5-6.8 2.2-9.7zm-16.6-21c-.5 4 0 6.6 1.6 8.7 2 2 4.8 3.1 9.5 3.6v.5c-4.8-.4-7.8-1.6-9.9-3.8-1.7-2.3-2.3-5-1.8-9z"/><path d="M471.8 472.3c-1.7 4.3-1.6 7.2.3 10 2.1 2.3 5.1 3.6 10.1 4.2v.5q-7.4-.9-10.5-4.4c-2-3-2.2-6-.4-10.6z"/><path d="M473.9 484.2a10 10 0 0 0-2.3 9.5q1.4 4.6 5.9 8l-.3.4q-4.6-3.4-6.1-8.4c-1-4-.4-6.9 2.3-10z"/><path d="M471 492.5c-4.7-1-7.2 0-8.9 4-1.2 3.8-1 7 .9 10.6l-.5.2c-2-3.8-2.2-7.1-1-11 1.9-4.3 4.6-5.5 9.5-4.4zm-8-32.2c-3.1 1-5 2.7-6.6 5.8a9 9 0 0 0 .4 8.3 9 9 0 0 0 6.5 4q3.6.3 6.8-1.3l.3.5a13 13 0 0 1-7.1 1.4 9 9 0 0 1-7-4.3 9 9 0 0 1-.4-9c1.6-3.1 3.6-5 6.9-6z"/><path d="M459 477.2c-2.4 3.5-2.8 6.3-1.6 9.7q1.8 4.1 6.3 6.8l-.2.5a15 15 0 0 1-6.6-7.1c-1.3-3.7-.9-6.7 1.5-10.3zm-19.8-21.4c-2.1 2.2-2.4 4.3-1 7.7 1.7 3.5 4.4 5.4 9 6.3 4 .5 6.3-.4 8.5-3a8 8 0 0 0 .8-8.2l.5-.2c1.3 3.4 1 5.9-.9 8.8-2.2 2.8-4.8 3.7-8.9 3.2-4.9-1-7.7-3-9.6-6.7-1.5-3.7-1.1-6 1.2-8.4z"/><path d="M446 470c-1.6 4-1.7 6.8-.2 9.8 2 3.2 5.1 4.7 10.7 5v.7c-5.8-.4-9.1-2-11.2-5.5-1.6-3.2-1.5-6.2.3-10.3zm15.6 27.6c-4.2-2.4-7.3-3-10.7-1.8-3.3 1.6-3.8 3.9-2 8.5l-.5.2c-2-5-1.3-7.6 2.3-9.2 3.5-1.3 6.8-.7 11 1.8z"/><path d="M447.8 482.6c-1.4 2-1.9 4-1.6 6.9q.5 4 3 7.2l-.4.3a16 16 0 0 1-3.2-7.5q-.4-4.3 1.7-7.3z"/><path d="M447.1 494.2q-4.3.2-6.1 2c-1.5 2-1.6 4.3-.4 8.2h-.5c-1.3-4-1.2-6.5.4-8.5q2-2 6.5-2.3z"/><path d="M439.6 498.1c-3.6-1.5-6-1.4-8.7.1-2.6 2-2.7 4-.5 7.5l-.5.3c-2.4-3.9-2.2-6.1.6-8.3 2.9-1.6 5.5-1.7 9.2-.1z"/><path d="M429 499.7c-3-.8-5-.3-7 1.8-1.9 2.4-1.7 4.6.6 7.8l-.4.3c-2.6-3.5-2.7-5.8-.7-8.5 2.2-2.3 4.3-2.9 7.6-2z"/><path d="M420.4 504.6a9 9 0 0 0-6.4 3.5c-1.6 2.5-1.3 4.3.9 6.8l-.4.4c-2.5-2.8-2.7-4.8-1-7.5a10 10 0 0 1 6.7-3.8zm24.8-24.8a9 9 0 0 0-5.9 6.6q-.8 4.6 1.7 9.7l-.5.2a16 16 0 0 1-1.7-10.1 9 9 0 0 1 6.2-7z"/><path d="M437.8 463.8c-5.3 1.5-7.5 4.5-7.5 10 .4 5.6 3 9.5 8.8 12.7l-.3.5c-5.9-3.3-8.7-7.4-9-13.2-.1-5.9 2.2-9 7.8-10.6z"/><path d="M434.2 483a9 9 0 0 0-5.5 6.6 10 10 0 0 0 2.2 8.2l-.4.3a11 11 0 0 1-2.4-8.7 10 10 0 0 1 5.8-6.9zM423 456.4q-1.4.3-2 2.4-.6 2.2.1 4.8c1.4 4.7 4.1 7 9.2 7.6v.6c-5.3-.7-8.2-3.1-9.7-8q-.7-2.9-.1-5.2t2.3-2.8z"/><path d="M411.5 459.2a6 6 0 0 0-3 4.8q0 3 2.5 5.7a11 11 0 0 0 6.4 3.3q4.5.5 9.3-2.3l.3.5a15 15 0 0 1-9.6 2.4q-4-.6-6.8-3.6a9 9 0 0 1-2.6-6c.1-2.6 1-4 3.2-5.4z"/><path d="M419.5 473.6q-.9 5 .9 8.4c1.7 3 4.2 4.6 8.5 5.7v.6c-4.5-1.1-7.2-3-9-6a14 14 0 0 1-1-9z"/><path d="M419.9 481.8a6 6 0 0 0-3.7 3 10 10 0 0 0-1.1 5.4c.7 5 3.3 7.8 9 9.3l-.1.5c-6-1.5-8.8-4.4-9.5-9.8q-.2-3.2 1.1-5.7 1.6-2.6 4-3.3zM398.7 466q-3 2.4-2.4 5 .5 2.4 3.3 3.8 2.9 1.4 6 .6 3.4-1 5.5-4.7l.5.3a10 10 0 0 1-5.8 5q-3.3.8-6.4-.7-3-1.5-3.6-4.2c-.4-2.1.4-3.7 2.5-5.6z"/><path d="M386.7 478.1q-1.4 1.7 0 4.5 1.5 2.9 4.4 4.2c2.4.8 4.2.7 6.3-.7q3.6-2.6 6-10.1l.5.2q-2.4 7.6-6.1 10.4a7 7 0 0 1-6.9.7 10 10 0 0 1-4.7-4.5c-1-2.3-1-3.7 0-5zm18.8-2.1c.5 5.6 3.4 8.6 9.7 10v.6c-6.6-1.5-9.7-4.6-10.3-10.7zm9.6 15.8c-5.4.3-8 2.3-9.1 7-.6 4.8 1.4 7.7 7 10l-.1.5c-6-2.4-8.1-5.5-7.5-10.7 1.1-5 4-7 9.6-7.4z"/><path d="M396.1 487.3q-.1 3.6 2.9 6.4a10 10 0 0 0 7.4 2.8v.6q-4.3 0-7.8-3c-2.2-2.2-3.1-4.2-3-7zm15.6 21.5c-4.7.6-6.8 2.6-7.6 6.9q-.3 2.5 1 4.2 1.4 2 4.3 2v.7q-3.2-.2-4.8-2.3a7 7 0 0 1-1-4.8c.7-4.5 3-6.6 8-7.3z"/><path d="M405 533.7c-4.2-2-6-4.4-6.4-8.5 0-4 1.4-6.2 5.2-7.9l.3.6c-3.6 1.5-5 3.6-5 7.4.4 3.7 2 6 6 7.9z"/><path d="M398.6 524.4c-3 1.7-4 4-4 8 .5 3.7 1.5 5.7 3.5 6.9q2.5 1.3 4.2.5 1.8-.7 2-2.9l.6.2q-.2 2.4-2.3 3.3t-4.8-.6c-2.2-1.4-3.2-3.5-3.7-7.4-.2-4.3 1-6.8 4.2-8.6z"/><path d="M404.4 550.8q.3 2-2.3 2.2-2.4 0-5-1.5a8 8 0 0 1-3.2-5c-.3-2.7.4-5.3 2.4-8.6l.5.4c-2 3.2-2.6 5.6-2.4 8.2a7.6 7.6 0 0 0 7.5 6q2.1-.2 2-1.7z"/><path d="M396.7 550.8c-2.7 4.3-2.6 7.3.3 10.5a6 6 0 0 0 4.1 1.7q2.6-.1 4.6-2.5l.5.4q-2.2 2.5-5 2.7-2.6 0-4.5-2c-3.2-3.3-3.3-6.6-.5-11.1z"/><path d="M397.5 562c-1 3.6-.1 6 3 8.4 3.3 2.1 5.6 2 8.6-.3l.4.5c-3.1 2.5-5.8 2.6-9.3.3-3.4-2.7-4.3-5.3-3.2-9.2zm-19-71.6q-1 2.1.6 3.8a7 7 0 0 0 4.4 1.8c5.1 0 7.5-2.5 8.2-8.6h.6c-.8 6.6-3.3 9.2-8.8 9.2q-3-.2-4.8-2c-1.3-1.5-1.5-2.7-.7-4.5z"/><path d="M374.1 499.8q-1 4.3 1.7 6.7c1.9 1.5 3.7 2 6.4 1.8a8 8 0 0 0 5.9-3.7c1.4-2.6 1.4-5.5 0-9.6l.6-.1c1.4 4.3 1.4 7.3-.1 10.1a8 8 0 0 1-6.3 3.9q-4 .4-6.8-2c-2-2-2.6-4-2-7.3z"/><path d="M389.1 503.4q3.4 2.4 8 1.4c4-1 6.2-3.3 7.4-8l.6.1c-1.3 5-3.6 7.5-7.8 8.5q-5 1-8.5-1.5z"/><path d="M397.9 505a17 17 0 0 0 6.3 9.5l-.2.5q-2.1-1.4-4.2-4.2-1.8-3-2.5-5.7zm-11.5 2.2c-.3 3.5.7 6.1 3.5 9q4.2 4.1 10 4.6v.6c-4.2-.4-7.4-1.8-10.4-4.7-3-3.1-4-6-3.6-9.7z"/><path d="M387.6 514.3c-2.3 3.2-3 6-2.4 9.5q1.3 6 9.2 7.4v.6c-5.8-1.2-8.6-3.5-9.8-8-.6-3.6.1-6.6 2.6-10z"/><path d="M369.2 514q-.6 1.7.7 3.7a9 9 0 0 0 4 3c4.5 1.6 7.7.7 11-3.1l.4.4c-3.4 4-6.8 5-11.6 3.2a10 10 0 0 1-4.2-3.2q-1.5-2.2-.9-4.4z"/><path d="M365.7 527.7q-.4 1.4 1 3 1.5 1.4 3.7 1.5c4.2-.2 7.2-3.5 9.9-11.1l.5.2c-2.7 7.9-5.9 11.3-10.4 11.5a6 6 0 0 1-4-1.8q-1.7-1.7-1.3-3.5z"/><path d="M376.2 529.8q2.2 4.1 6.7 5.2c3.7.7 6.2-.5 8.6-4.2l.5.4c-2.6 3.9-5.2 5.1-9.2 4.4q-4.7-1.3-7.1-5.6z"/><path d="M383.8 535.6c-1 3.1-.4 5.4 1.9 8.2 2.5 2.5 5 3.4 8.5 3.1l.1.6a10 10 0 0 1-9-3.4c-2.5-2.9-3-5.4-2-8.8z"/><path d="M370.6 532.6c-.5 4.4.8 7.3 4.5 10.1 3.9 2.5 6.8 2.7 10.2.8l.3.6c-3.6 2-6.7 1.7-10.8-1-4-2.9-5.3-6-4.8-10.7z"/><path d="M363.9 535.9c-1.3 5.5.2 8.8 5.1 11.3q3 1.4 6 .9a8 8 0 0 0 5.3-3.5l.5.4q-2.1 2.9-5.6 3.7A11 11 0 0 1 364 543a11 11 0 0 1-.6-7.4z"/><path d="M377.1 547.8c.5 3.6 2.3 6 6.2 8.3 4.3 2.2 7.7 2.3 11.5.3l.3.5c-4 2.1-7.5 2-12-.3-4.2-2.5-6-5-6.6-8.8zm-17.6 3.7q-.1.8 1.3 1.7 1.7 1 4 1.1c4 0 6-1.7 7-6l.6.2c-1 4.6-3.2 6.4-7.7 6.4q-2.3-.2-4.1-1.2-2-1.1-1.6-2.5z"/><path d="M366.4 554.5c1.6 4 3.8 6 7.6 6.9 4 .6 6.8-.8 9.6-4.8l.5.3c-2.9 4.2-5.9 5.7-10.1 5-4-.8-6.4-3-8.2-7.2z"/><path d="M381 560c.8 3.6 2.6 5.9 6.1 7.8a12 12 0 0 0 10.9 0l.3.5c-4 1.8-7.4 1.8-11.4 0q-5.4-2.8-6.5-8.3zm20.6 11.3c-.8 4.5.2 7.8 3.6 11.3 3.5 3.1 6 3.6 9.1 1.6l.4.5c-3.3 2.1-6.1 1.7-9.9-1.7a12 12 0 0 1-3.8-12z"/><path d="M386.6 567.8c-1.2 4.8.1 8 4.4 11.2 4.5 2.9 7.8 3 11.5.8l.4.5c-4 2.4-7.5 2.2-12.1-.8-4.6-3.3-6-6.8-4.7-12z"/><path d="M371.8 561c-.2 4.7 1 7.9 4 10.7 3.1 2.5 6.2 3 10.4 1.5l.3.5c-4.5 1.5-7.7 1-11-1.6-3.2-3-4.5-6.3-4.2-11.2z"/><path d="M356.2 560.4q-.9 2 .6 4 1.5 1.9 4.3 3.3c4.8 2.1 8.1 2 11.3 0l.4.5c-3.4 2.2-6.9 2.2-11.9 0q-3-1.5-4.5-3.5-1.7-2.4-.8-4.6z"/><path d="M348 576c2 2.2 4.4 2.5 8.5 1.2 4.3-1.8 6.3-4.2 7-8.3l.6.1c-.7 4.4-2.9 7-7.3 8.7-4.5 1.5-7 1-9.2-1.3z"/><path d="M360.9 575c2.6 3.1 5.3 4.7 9 5.2 4.2.2 6.8-1.6 8.8-6.3l.5.3c-2.1 5-4.8 6.8-9.3 6.6a14 14 0 0 1-9.5-5.5z"/><path d="M375.7 579.3a8 8 0 0 0 2 5.1q2 2.4 5 3.2c5 1 8-1 10.2-7.3l.6.2c-2.3 6.6-5.5 8.8-11 7.6q-3-.8-5.2-3.3a9 9 0 0 1-2.2-5.6zm33.7 6.1q-1 2.8 1 6.3 2.3 3.7 6.5 4.9v.5c-3.1-.9-5.1-2.4-6.9-5.1-1.4-2.7-1.8-4.7-1.1-6.9z"/><path d="M398.2 581.6c-.3 2.3.6 4.2 3 6.6 2.9 2.4 5.3 3 8.4 2.5l.2.5c-3.3.7-5.9 0-8.9-2.6-2.7-2.6-3.6-4.7-3.2-7.2zm13 11.4c-.9 2.6-.9 4.7 0 7.3 1.2 2.7 2.8 4 5.7 4.5v.6c-3.1-.6-4.9-2-6.2-5q-1.5-3.8 0-7.6z"/><path d="M411.8 602c-2.3 1.8-2.9 3.6-2.2 6.4 1 2.8 2.7 4.1 6 4.8v.6c-3.6-.7-5.4-2.2-6.5-5.3-.8-3-.1-5 2.3-7z"/><path d="M409.4 608.4c-3.3 2-4.2 4.2-3.4 8 1.2 3.7 3.3 5.4 7.6 5.9v.6c-4.5-.6-6.8-2.4-8.1-6.4-1-4 0-6.5 3.6-8.7zm-19.6-21.9c.2 4.9 1.9 7.3 6 8.6 4 .8 6.2-.5 7.5-4.8l.6.2c-1.5 4.7-3.8 6-8.2 5.1-4.4-1.4-6.3-4-6.5-9.2z"/><path d="M399.3 595.7c-.8 3-.4 5 1.6 7.6a9 9 0 0 0 8 3l.2.6c-3.8.2-6.3-.7-8.6-3.3a8 8 0 0 1-1.8-8.1zm1.3 69.5q.5.8 1.7.8t2.4-.7q3-2 1.8-4.6c-1-2-2.2-2.6-4.6-2.3q-3.3.5-2.8 3.5h-.5q-.6-3.4 3.2-4.1c2.7-.3 4.1.4 5.2 2.7.8 2.3.3 3.7-2 5.3q-1.4.7-2.6.8-1.5 0-2.2-1.1z"/><path d="M404.9 658.7c.3-3.8-.8-5.7-3.9-7-3.1-.7-4.8.2-6.1 3.5l-.6-.3c1.5-3.5 3.3-4.5 6.8-3.7 3.4 1.3 4.6 3.4 4.3 7.6z"/><path d="M397.7 651.3q.7-1.1 0-2.7-.6-1.4-2.1-2.6c-2.8-1.6-4.4-1.4-6 1l-.5-.3c1.8-2.7 3.6-3 6.7-1.2q1.8 1.3 2.5 2.9.8 1.9-.1 3.3z"/><path d="M391.9 644.7q.6-1.8-.2-3.4-.7-1.4-2.3-2.2-1.5-.6-2.8-.3-1.4.5-1.6 2.2l-.5-.2q.3-2 1.9-2.5 1.4-.5 3.2.3t2.6 2.5q1 1.8.2 3.9z"/><path d="M382.6 633q.4-1.2 2.3-1.3 1.6 0 3.3.9a5 5 0 0 1 2.5 2.5q.5 1.8-1 3.8l-.4-.4q1.3-1.7.8-3.3-.5-1.2-2-2.1-1.5-.8-3.2-.8-1.4 0-1.8 1z"/><path d="M396.9 646.7c1.7-1.7 1.6-3.3-.4-6.2-2.2-2.7-3.9-3.4-6-2.5l-.3-.5c2.4-1 4.3-.3 6.7 2.7 2.3 3.2 2.4 5 .4 7zm26.3 15c-2 0-3 .4-3.8 1.5-1 1.5-1 3.4 0 6.6q1.1 3.3 4.7 4.3 3.4 1 4.1-1l.5.3q-.8 2.4-4.7 1.3a7 7 0 0 1-5.1-4.7c-1-3.4-1-5.5 0-7.2 1-1.2 2.1-1.7 4.2-1.7z"/><path d="M418.5 664.3c-1.8-1.3-3.2-1.3-5.2 0-1.9 1.6-2.2 3.4-1 6.6q1.6 3.3 4.7 3.5 2.9 0 3.6-2l.6.3q-.9 2.3-4.1 2.3-3.6-.1-5.2-3.9c-1.4-3.5-1.1-5.5 1-7.3 2.3-1.4 3.9-1.4 5.9 0z"/><path d="M402 671q1.2 1.9 5 2c2.7-.2 4-.8 4.9-2.1l.5.3c-.9 1.5-2.4 2.2-5.3 2.3q-4.3 0-5.5-2.3zm4.8-8.4q1.3-.6 3.1.3a5 5 0 0 1 2.4 2.2l-.5.2q-.5-1.1-2-1.9-1.7-.7-2.7-.3zm-.2-44c-2.6 1.6-3.1 3.6-1.8 7.3 1.6 3.6 3.7 4.7 7.5 4.1l.2.6c-4.2.7-6.5-.6-8.3-4.5-1.4-4-.8-6.2 2-8z"/><path d="M405 626.9c-2.1 1.6-2.3 3.5-.7 7 2 3.2 4 4 7.6 3l.3.5c-4 1.2-6.2.3-8.4-3.4-1.7-3.7-1.5-5.8.8-7.6z"/><path d="M406.3 636.6c-1.5 1.5-1.6 3.1-.2 6 1.7 2.8 3.7 3.9 7.1 3.8l.1.6c-3.7 0-5.8-1.1-7.7-4.2-1.5-3.1-1.4-5 .3-6.7z"/><path d="M404.9 640.4q-1.4-.7-3.5-.4-2.5.3-3.7 2l-.4-.5c1-1.2 2-1.8 4-2.1q2.4-.3 3.8.5zm-4.3-37.1c-2 1.9-2.4 3.8-1.5 6.8 1.2 3 3 4.6 6.5 5.5v.6c-3.7-1-5.7-2.7-7-6-1-3.3-.5-5.4 1.6-7.4z"/><path d="M399.1 611c-3 1.5-4 3.5-3.3 7.5 1.1 4.1 3.6 6.2 8.8 7.3v.5c-5.5-1-8.2-3.3-9.3-7.8-.8-4.3.3-6.5 3.6-8z"/><path d="M398.8 623.7c-1.7 1.4-2 3.2-1 6.5 1.5 3.4 3.4 4.7 7 4.8l.2.6c-4-.1-6.1-1.6-7.7-5.3-1.1-3.6-.8-5.5 1-7z"/><path d="M401.3 634.7q-.7.7-.9 2.3 0 1.8.6 2.6l-.5.3a5 5 0 0 1-.6-3q0-1.8 1-2.7zm-3.7-4.1q-2.1-.1-4.3.9a6 6 0 0 0-3 3.1l-.5-.2a6 6 0 0 1 3.2-3.4q2.3-1.2 4.6-1z"/><path d="M384.8 623.3c.9-2 2.4-2.2 5.6-.9 3.3 1.7 4.8 4 5.3 8h-.6q-.4-5.5-4.8-7.4c-2.9-1.2-4.2-1-5 .6z"/><path d="M396.3 620.8q-3.1.3-4 3.1l-.5-.2q1-3.2 4.4-3.5zm-3.6-27c-2.3 2.1-3.1 4.5-2.7 8.3.8 4.4 3.3 7 8.4 8.7v.6c-5.5-1.9-8.1-4.6-9-9.2-.4-4 .4-6.6 2.9-8.8zm-8.1 21.7q0-2.7 4.4-3c3.3-.1 5.1.8 6.6 3.1l-.4.3c-1.4-2.1-3.1-3-6-2.8q-4.1.3-4 2.5z"/><path d="M380 598.7q1.1 2 4 3.5 3.4 1.6 5.6.4l.3.5q-2.4 1.5-6-.3a9 9 0 0 1-4.3-3.9zm-28.2-20.5q-.1 3.9 2.6 6.9c2 2 4 2.9 6.9 3q3.8-.2 5.3-3 1.1-2.5-.2-5.5l.5-.2q1.5 3.2.2 6c-1.2 2.1-2.8 3-5.7 3.2q-4.3 0-7.4-3.2-2.9-3.1-2.8-7.3z"/><path d="M362.4 588.8c-1.7 2.3-1.8 4.3-.4 7 1.6 2.7 3.1 3.4 5.4 2.8l.2.6c-2.6.7-4.3-.1-6-3-1.7-3.2-1.5-5.3.4-7.8zm4.1-3.4q2.6-.7 6.2-.3c3.3.6 5 1.6 6.3 3.4l-.5.3q-1.4-2.5-5.8-3-3.5-.5-6 .1zm-24.1-.5q-.3.4 0 .7 0 .4.7.8 1.2 1 3.5 1.5c4 .7 6.3.1 8.2-2l.4.4c-2 2.3-4.4 3-8.7 2.2q-2.3-.6-3.8-1.6l-1-1.1.2-1.3z"/><path d="M351.6 588.5a8 8 0 0 0 1.6 5.8c2 2 4.4 2.7 8.4 2l.2.7c-4.3.6-6.9 0-9-2.3a9 9 0 0 1-1.8-6.3z"/><path d="M362.9 602.3q.4-1-.3-2.3a6 6 0 0 0-2.4-2.1c-2.8-1.4-4.8-1-7.3 1.2-2.2 2.4-2.5 4.5-1.1 7.3q.9 1.5 2.2 2.2t2.4 0l.4.6q-1.4.8-3 0-1.5-.9-2.5-2.6c-1.6-3-1.2-5.3 1.2-8 2.7-2.4 4.9-2.7 8-1.2a7 7 0 0 1 2.5 2.4q.9 1.5.4 2.8zm-23-14q-.8 1.4.2 3.6a10 10 0 0 0 3.3 3.7c4 2.4 6.6 2.1 9.5-1.2l.4.4c-3 3.6-6 3.9-10.2 1.2a11 11 0 0 1-3.5-3.8q-1.2-2.5-.2-4.3z"/><path d="M333.1 595.9c-1.7 1.9-1.8 3.6-.2 6.3 1.8 2.5 3.6 3.2 6.3 2.5q3.6-1 4.3-4.4.5-2.9-.7-4.4l.4-.4q1.4 1.8.8 5-.8 3.6-4.6 4.8c-3 .8-5 0-7-2.8-1.7-3-1.6-5 .3-7z"/><path d="M326 602.6q-2.1 1.8-.6 5.3t4.4 3.8 4.6-1.7q1.5-2 1-5l.6-.1q.6 3.3-1.1 5.5-1.9 2-5 1.9-3.4-.3-5-4.2c-1-2.8-.9-4.5.7-6zm16.9.6q-.4 3 2.8 4.5c2.4 1 4 .8 6-.8l.4.5c-2.1 1.7-4 2-6.6.9-2.5-1.4-3.4-2.8-3.2-5.2zm9-3.8q.8-1.4-.8-2.8l.4-.5q2 2 .9 3.7z"/><path d="M319.6 607.7q-1.2.8-.7 2.4t2 2.7 3.3 1q2-.3 3.6-2.5l.4.4q-1.7 2.3-4 2.7-1.9 0-3.7-1.2a6 6 0 0 1-2.2-3q-.4-2 .9-3zm26.4.5c-1 1.1-.9 2.2.4 4.2q1.8 2.8 4.2 2l.2.5c-2 .6-3.3 0-5-2.2-1.3-2.3-1.4-3.6-.2-4.9z"/><path d="M334 611q.6 3 4.6 4.2c3.1.6 5.3 0 7.6-2.5l.4.4c-2.5 2.6-4.7 3.4-8.1 2.6-3.1-1-4.5-2.3-5-4.7z"/><path d="M338.1 615.3q-.8 1.7.5 3.8t3.2 1.9v.6q-2.2.1-3.7-2.2t-.5-4.4zm70 30c-1.2 2.8-.5 4.8 2.7 7.1 3.5 2.2 6 2 9.2-.6l.4.5c-3.3 2.8-6.1 3-9.9.6a8 8 0 0 1-3-3.6q-.9-2.4.1-4.3z"/><path d="M414.5 654.4a7 7 0 0 0 0 4.6q.7 2.6 2.5 4l-.3.4a9 9 0 0 1-2.8-4.3q-.9-3 0-5z"/><path d="M405.7 659.2q.5-2.2 3-3.3 2.6-1 5.2.2l-.2.5q-2.4-1.1-4.7-.1t-2.8 3zm-4.6-7.7a5 5 0 0 1 2.5-3.1q2-1.2 4-.5l-.2.5q-1.7-.6-3.5.5-2 1.1-2.2 2.8zm207.5-82c-3-.3-4.6.4-6 2.3q-1.5 2.5-.7 6.4 1 3.8 3.6 6.1a7 7 0 0 0 6.5 1.6l.2.6q-3.9.9-7-1.8-2.8-2.4-3.8-6.5t.8-6.7c1.4-2.1 3.2-2.9 6.4-2.6z"/><path d="M604.8 584c-1.2 2-1 3.8.9 6.2 2 2.2 3.7 2.5 6.3 1.1l.3.5c-2.8 1.6-4.8 1.2-7-1.3-2-2.6-2.3-4.5-1-6.9z"/><path d="M611 592.4q-1.2 2 0 4.7 1.2 2.6 3.9 4.5a9 9 0 0 0 5.5 1.7q3-.3 4.9-3.5l.5.4q-2 3.3-5.3 3.6-2.9.2-5.9-1.7-2.8-2-4.1-4.8-1.4-3 0-5.2z"/><path d="M621.6 603.3q.1 2 2.6 4a13 13 0 0 0 5.4 2.3q3.2.5 4.9-1 1.9-1.8 1.1-5.8h.6c.5 3 .1 4.8-1.3 6.2q-2 1.7-5.3 1.1t-5.7-2.4q-2.8-2.1-2.9-4.4z"/><path d="M634.6 609c2.3 3.9 5.5 5.7 10.6 6q3.3.2 5-1.4 1.9-2 1.4-5.5h.6c.3 2.7-.1 4.4-1.6 6q-2 1.5-5.4 1.6c-5.3-.4-8.7-2.3-11.1-6.5z"/><path d="M648.8 614.9c2 2.9 5 4.4 9.9 5a8 8 0 0 0 5-.8c1.5-1.1 2-2.4 2-4.7h.6q.1 3.6-2.2 5.2-2 1.2-5.4 1c-5.1-.7-8.2-2.4-10.3-5.5zm-60-66.2c1.2 2.9 3 4.7 6.3 6q4.8 1.9 10.6.3l.2.6q-6 1.6-11-.3a11 11 0 0 1-6.6-6.5zm-4.7 3.2q1.9 1.4 1.8 4.6a11 11 0 0 1-2 5.2 8 8 0 0 1-4.2 3.2q-3 .6-5.7-1.9l.3-.4q2.5 2.3 5.2 1.8a7 7 0 0 0 4-3q1.6-2.4 1.8-5 0-2.8-1.5-4z"/><path d="M584.1 561c3 1.8 5.4 2.2 8.1 1.5 3-1 4.5-3 5.6-6.7l.6.2c-1.2 4-2.9 6-6 7-2.9.8-5.4.4-8.5-1.5z"/><path d="M595 561.6q.5 3.1 4.1 5.4c2.9 1.5 5.8 2.1 9.5 1.9v.6a17 17 0 0 1-9.7-2q-3.9-2.4-4.5-5.9zm-13.6 2.4a8 8 0 0 1 2.5 6q-.1 2.9-2 5.4a7 7 0 0 1-4.3 2.8q-2.6.4-4.4-2l.4-.3c1.2 1.4 2.2 1.9 3.9 1.7a7 7 0 0 0 4-2.6c2.8-4.1 2.7-7.1-.5-10.7z"/><path d="M584 569c2 1.6 4 2 7 1.5 3.3-.8 4.8-2.2 5.4-5.3l.5.2c-.6 3.3-2.2 4.9-5.7 5.7-3.2.5-5.4 0-7.6-1.7z"/><path d="M593 570.4c1 3.9 3.4 6 8.6 7v.5c-5.6-1-8.2-3.2-9-7.5z"/><path d="M582.1 574.7c2 3 4.3 4.5 7.8 5.3 3.7.5 6-.5 8-3.3l.4.3c-2.1 3-4.5 4-8.5 3.5-3.6-.8-6-2.4-8.1-5.5z"/><path d="M594.5 580.2q-.1 3.4 2.9 6.2a10 10 0 0 0 7.1 2.5l.1.6q-4.2.2-7.6-2.7c-2.3-2.1-3.2-4-3-6.7zM575 588q3.4 2 5.6-2.2c1.6-3.3 1.5-6-.3-9.3l.5-.2c1.9 3.5 2 6.4.4 9.8-2 3.3-3.7 4-6.4 2.4z"/><path d="M580.3 598.2c2.7.3 3.8-.7 4.2-3.7.1-3.2-.8-5.7-3.3-8.5l.3-.4a12 12 0 0 1 3.6 9c-.5 3.5-1.8 4.6-4.8 4.1z"/><path d="M592.7 607.6q1.6-.2 2-1.8a6 6 0 0 0-.3-3.8c-1.7-3.8-4.5-5.9-9.6-7.1v-.6c5.4 1.3 8.4 3.5 10.2 7.6q.9 2.3.3 4.2t-2.4 2z"/><path d="M606.6 617q1.4-.3 1.6-2 0-2-1.2-4.2c-2.6-4-6-6-11.6-6.6v-.6c5.8.6 9.4 2.6 12.1 6.9q1.4 2.4 1.3 4.5-.2 2.3-2 2.5z"/><path d="M623.2 623q.9-1.4 0-3.6-1-2-3.3-4c-4-2.9-7.4-3.5-11.3-2.2l-.3-.5c4.2-1.4 7.7-.8 12 2.3a12 12 0 0 1 3.4 4.2q1 2.5 0 4.2z"/><path d="M631.8 630.3q1.8.8 3.1-.9a5 5 0 0 0 1-4c-1-4.4-4.6-6.2-12.3-6.2v-.6c8 0 11.8 2 12.8 6.8q.5 2.6-1 4.4-1.6 2-3.8 1z"/><path d="M641.7 631.4a5 5 0 0 0 2.8-1.7q1.2-1.4 1-2.8-.2-1.5-2.2-2.3a18 18 0 0 0-7.3-.5l-.1-.6q4.9-.3 7.5.6 2.4.8 2.7 2.8.2 1.5-1.1 3.2-1.5 1.5-3.2 1.8z"/><path d="M652.4 633.1q1.3.8 2.2-.3.9-1.3.5-3a5 5 0 0 0-2.6-3.2q-2.6-1.2-6.8-.6l-.2-.6q4.5-.6 7.3.7 2.2 1.3 2.8 3.5.4 2.1-.6 3.5-1.1 1.5-2.8.5zm-71-47.5a9 9 0 0 0 8.5 1.1c3-1.4 4.2-3.2 4-6.6h.6c.2 3.7-1 5.7-4.4 7.2a9 9 0 0 1-8.9-1.3z"/><path d="M592.3 585.7q1.5 2.9.8 6.5c-.5 2.7-1.5 4-3.2 4.8l-.2-.6q2.2-1 2.9-4.4.4-3.5-.8-6z"/><path d="M592.7 593.2q2.8 1.5 5.6.6a9 9 0 0 0 5.1-4.7l.6.3a10 10 0 0 1-5.5 5 8 8 0 0 1-6-.7z"/><path d="M599 594.2q.9 2.4.9 5.2-.2 3.5-1.8 5l-.4-.4q1.5-1.5 1.6-4.7 0-2.6-.8-5z"/><path d="M599.8 598.4a6 6 0 0 0 5.7.7q2.8-1.2 4.3-4.1l.5.3a9 9 0 0 1-4.6 4.3c-2.3.8-4 .6-6.2-.7z"/><path d="M607.7 598.2q2.5 2 3.3 6.8c.3 3.8-.4 5.9-2.7 7.4l-.4-.5c2.1-1.4 2.8-3.4 2.5-6.9q-.7-4.5-3-6.4z"/><path d="M610.8 608.3c5.4.8 8.8 0 11.2-2.7l.4.3c-2.5 3-6 3.8-11.7 3z"/><path d="M620 607.6q2.4 1 4.4 4.5a10 10 0 0 1 1 6.9l-.5-.2q.8-3-1-6.5a9 9 0 0 0-4-4.2z"/><path d="M625.3 617q3 0 6-1.3 3.5-1.7 4.5-4.2l.6.2c-1 2-2.3 3.3-4.9 4.5q-3 1.3-6.1 1.4z"/><path d="M634.6 613.9c3.5 2.5 4.8 5.4 4.6 9.8l-.6-.2c.2-4-1-6.7-4.2-9.1z"/><path d="M638.9 620.4c4 0 5.9-1.3 7-4.8l.5.2c-1.1 3.8-3.2 5.2-7.5 5.2z"/><path d="M645.3 617.9c3.8 1.9 5.5 4.2 5.9 8h-.6c-.4-3.6-2-5.7-5.5-7.5z"/><path d="M650.5 623.4c2.2-.3 3.8-1.4 5.6-3.9l.5.4c-2 2.6-3.7 3.8-6 4zm12.7-3.7c1.8 2.3 1.8 4.6 0 8.3-2.3 3.7-4.4 4.7-7.8 3.6l.1-.5c3.1 1 5 0 7.1-3.4 1.7-3.5 1.8-5.6.2-7.6zm-67.6-225.4q-2.7 1.2-6.7 1-4.2-.2-7.4-2a9 9 0 0 1-4.5-5.5c-.5-2.8.2-5.5 2.3-9l.5.3c-2 3.5-2.7 6-2.2 8.7a8 8 0 0 0 4.1 5q3.1 1.6 7.2 2 4 0 6.4-1z"/><path d="M597.3 384q-4.7 1-9.8 0-4.8-1.4-7.6-4.3c-2-2.3-2.6-4.2-2-6.7.9-2.8 3-4.9 7-7.1l.3.5c-4 2.2-6 4.2-6.8 6.8q-.8 3.1 1.9 6.1 2.7 2.8 7.3 4 4.8 1.2 9.5 0z"/><path d="M580.6 362.3q-3.8-.5-6.9 1.8-2.9 2.3-4 6c-1.5 6.4.8 11 7.5 15l-.2.4a17 17 0 0 1-7.2-7.4 12 12 0 0 1 3.5-14.5 10 10 0 0 1 7.3-2zm-41.4 1.2q-.9 1.7 0 3.8a9 9 0 0 0 3.3 3.5c3.9 2.4 6.9 2.6 10.3.5 2.5-1.9 3.7-4.6 4-9.4a19 19 0 0 0-2.3-10.5l.5-.3a20 20 0 0 1 2.4 10.9c-.4 5-1.6 7.9-4.2 9.8-3.6 2.2-6.8 2-11-.5a10 10 0 0 1-3.5-3.8q-1-2.4 0-4.4z"/><path d="M533.8 376c-.7 2.7-.2 4.5 1.8 6.6q2.9 2.6 7.2 2.7c3.2 0 5.3-.8 7.1-2.8 2-2.6 2.4-5.6 1.6-10.2h.6c.8 4.7.3 7.9-1.7 10.6-2 2.1-4.2 3-7.5 3q-4.6-.1-7.6-2.9c-2.3-2.3-2.9-4.3-2-7.3z"/><path d="M532.4 393.3q.3 3.2 3.9 4.8t7.4.8q4.3-1 5.9-4.3c1.2-3 1-6.2-.7-10.8l.5-.1c1.8 4.7 2 8.1.7 11.2-1.3 2.5-3 3.8-6.2 4.6q-4 .8-7.8-.9c-2.7-1.4-4-2.9-4.3-5.3zm19.8-14.3a19 19 0 0 0 16 8.7v.6a20 20 0 0 1-16.5-9zm4.3-12q.7 2.5 4 4c2.7 1.2 5.3 1.5 8.6.9l.2.6c-3.4.6-6.1.3-9-.9q-3.6-1.8-4.4-4.6zM316.2 610q-2 1.4-1.9 3.2.1 1.5 1.7 2.7 1.4 1.1 3.3.8 2-.5 3.1-3l.6.4q-1.4 2.6-3.6 3.1-2 .4-3.7-.8a4 4 0 0 1-2-3.2q-.1-2.1 2.2-3.7z"/><path d="M311.4 613.3q-1.9 1.3-1.8 3.1 0 1.6 1.6 2.7t3.3.8q2-.5 3.2-3l.5.4q-1.4 2.6-3.5 3.2-2 .4-3.8-.9a4 4 0 0 1-2-3.2q0-2.1 2.2-3.6z"/><path d="M306.4 616.3q-2 1.4-1.9 3.2.2 1.5 1.7 2.7 1.5 1.1 3.3.7 2-.5 3.2-2.9l.5.3q-1.4 2.6-3.5 3.2-2 .4-3.8-.8-1.7-1.4-2-3.2-.1-2.2 2.2-3.7z"/><path d="M301.1 619.1q-1.9 1-2 2.6-.1 1.4 1.1 2.7c2.5 2 4.5 1.6 7.4-1.3l.4.4c-3.1 3.2-5.3 3.6-8.2 1.3q-1.5-1.4-1.3-3.1.2-2 2.3-3.1z"/><path d="M295.4 621.9q-2 1-2 2.6-.2 1.4 1 2.6c2.6 2 4.6 1.6 7.5-1.4l.4.5c-3.1 3.2-5.4 3.6-8.2 1.3q-1.5-1.4-1.3-3.1.1-2 2.3-3zM325 614q0 3.4 4.3 4.1c3.3.3 5.1-.7 6.7-3.8l.5.3c-1.7 3.3-3.7 4.5-7.2 4.1-3.4-.7-4.7-2-4.9-4.8z"/><path d="M330.3 618.8q-1.6 2 .4 4.6c1.6 1.6 2.7 2 4.1 1.5l.3.5c-1.7.7-3 .2-4.8-1.6-1.6-2.1-1.7-3.6-.4-5.4z"/><path d="M319 617.2c0 2 1 3 3.7 4 2.9.7 4.7.2 6.6-1.6l.4.4c-2 2-4 2.5-7.1 1.7q-4.3-1.3-4.1-4.6z"/><path d="M323 621.7q-1.5 1.9.6 4.4c1.6 1.6 2.8 2 4.4 1.6l.2.6q-2.5.8-5-1.8-2.4-2.8-.6-5.2z"/><path d="M314.1 620.4q.2 2.3 2.8 4.1 2.8 1.8 5.9.8l.2.5a7 7 0 0 1-6.4-.8q-2.9-2-3-4.6z"/><path d="M316.7 625q-1.1 1-.7 3 .5 2.1 2.3 3.1l-.3.5q-1.8-1-2.5-3.5-.6-2.4.9-3.7z"/><path d="M307.7 624q-.6 2.1 2.2 4.3c2.1 1.5 3.8 1.6 6 .3l.4.6c-2.5 1.3-4.4 1.2-6.8-.4q-3-2.5-2.4-5z"/><path d="M308.5 627.4q-1.9 1.5-1.7 3.4.3 1.9 2.7 2.3v.5q-3-.5-3.3-2.8-.3-2.1 2-3.9z"/><path d="M301.9 626.5q-.2 1.4 1.2 3 1.5 1.6 3.5 1.5v.6a5 5 0 0 1-4-1.7q-1.5-1.8-1.3-3.5zm-15.2-.6q-.8.5-.3 1.7.5 1.3 2 2.2c2.8 1.7 4.7 1.1 6.8-1.9l.5.3c-2.4 3.4-4.4 4-7.6 2.1a6 6 0 0 1-2.2-2.5q-.7-1.7.5-2.4z"/><path d="M279.7 629q-1 .5-.5 1.8.7 1.4 2.3 2.4 1.8 1.2 3.5.7 2-.6 3.4-3.5l.5.3q-1.4 3-3.7 3.7-2 .5-4-.7-1.8-1-2.5-2.7-.8-1.8.8-2.5zm22.7.5q-1.9.3-2.7 2.5-.8 2 .6 3.2l-.3.4q-1.8-1.4-.9-3.9 1-2.3 3.2-2.8z"/><path d="M293.8 630.3q-.2 1.1 1.5 2.4 2 1.5 3.8.8l.2.6q-2 .6-4.3-.9-2.1-1.5-1.8-3zm-2.4.8q-1.9 1.1-1.1 3.5.7 2.2 2.7 1.8l.1.6q-2.5.5-3.4-2.3c-.5-2-.1-3 1.3-4zM282 634q-1.7 1.3-.9 3c.8 1.3 1.6 1.6 3.3 1.3l.1.6c-2 .3-3-.1-3.9-1.6q-1-2.2 1-3.8z"/><path d="M286.6 633.6q0 .7 1.2 1.4 1.4.7 2.5.4l.2.5q-1.4.4-3-.4-1.4-1-1.5-1.9zm-13.2-1.7q-1 .5-1.5 1.8a3 3 0 0 0 .3 2.4c1.5 2 3.8 2.1 8.4.4l.2.6c-5 1.8-7.4 1.6-9.1-.7q-.8-1.4-.3-2.9t1.7-2.1z"/><path d="M266.4 635q-1.5.7-2 2-.3 1 .2 1.7c1.5 1.2 3.7.8 8-1.7l.4.5c-4.7 2.6-7 3-8.8 1.6q-.9-1-.3-2.4t2.3-2.2zm7.4 3q-1.1.9-1 2.3 0 .6.5.7.8.3 2.1-.2l.2.6q-1.5.5-2.4.2-.9-.4-1-1.3 0-1.7 1.2-2.8z"/><path d="M265.9 639.7q-1.3 1.2-.5 2.6 1 1.5 3.5.7l.1.5q-2.8.9-4-.9-1.1-1.8.5-3.3z"/><path d="M256.8 640.3q-.6.3-.7.6v.4q.5.5 1.8.8c2.8.1 4.8-.7 7-2.9l.4.4c-2.4 2.4-4.5 3.2-7.4 3q-1.6-.1-2.2-1a1 1 0 0 1 0-1q0-.3.8-.8z"/><path d="M259 642.6q-1.2 1.2-.8 3 .2.6.8.9.6.2 2-.2l.1.5q-1.4.5-2.3.2-.9-.4-1.1-1.3-.5-2.1.8-3.5z"/><path d="M250 644.4q-.7.5-.5 1 .1.3 1.1.6c2 .4 4 0 7.1-1.3l.3.5q-4.6 2-7.5 1.4-1.3-.4-1.6-1-.2-1 .7-1.6z"/><path d="M252.6 646.7q-1.8 1.6-1.5 2.7t2.6.7l.2.5q-2.9.7-3.4-1-.3-1.5 1.7-3.3z"/><path d="M245.3 648q-.9.8-.8 1.5 0 .5.9.8 2.1.8 5.6-.7l.2.5q-3.6 1.5-6 .8-1.2-.5-1.3-1.3 0-1 1-2z"/><path d="M245.3 650.9q-3 1.4-2.6 3.4.3.6 1 .9.7.1 1.6-.3l.3.5q-1.2.6-2.2.3-.9-.3-1.2-1.3-.6-2.4 2.9-4zm155.9 23.7q-.6 1.4 1.1 2.8 2 1.3 4.4 1.3 2.6-.1 3.9-1.7 1.3-1.7-.2-4.4l.5-.3c1.1 2.2 1.2 3.6.1 5.1q-1.3 1.8-4.2 1.9-2.6 0-4.8-1.5-2.1-1.7-1.3-3.5z"/><path d="M411 677c1.6 1.3 3 1.6 5.3 1q3-1.2 3-3.8h.6q0 3.1-3.4 4.3c-2.4.7-4 .4-5.9-1.1z"/><path fill="#fff" d="M605 323.5c-14.5-9.2-43-26-51.6-16.8 7.8-2 29.4 4.5 48 24.1z"/><path d="M605 323.3v.2l.2.1-3.7 7.7-.3-.3a86 86 0 0 0-28-20.1q-13-5.7-19.7-4l-1 .4.6-.8c6.6-7.1 23.3-1.4 52 16.8m-.5.3c-27.2-17.2-43.4-23-50.3-17.5a37 37 0 0 1 19.1 4.2 87 87 0 0 1 28 20z"/><path fill="#fff" d="M613.5 323.8c-16.5-21.3-25.8-18.5-37.6-26.7-11.4-7.8-28-11.6-32-2.2 16.3-5.2 30.8 8.5 40 11.5 12.4 4 19.3 14.3 23 19.5z"/><path d="m613.6 323.5.7.3-7.4 2.4-.1-.2-.8-1a46 46 0 0 0-22.2-18.3q-2.6-.8-9.1-4.5-9.1-5-14.3-6.8a26 26 0 0 0-16.3-.2l-.6.2.2-.6c2-4.7 6-6.3 13.4-5.6q9.9 1.4 19 7.7a64 64 0 0 0 10.8 5.7q7.8 3.2 12.1 6.2 7.3 5.2 14.6 14.7m-.6.1q-7.2-9.3-14.2-14.3a70 70 0 0 0-12-6.2q-7.2-3-11-5.7a42 42 0 0 0-18.7-7.6c-6.9-.7-10.6.7-12.6 4.6a27 27 0 0 1 16 .4 88 88 0 0 1 14.4 7q6.4 3.6 9 4.4a47 47 0 0 1 22.5 18.5l.7.8z"/><path fill="#fff" d="M674.8 327.3c-8.8-20.2-26.2-17-34.5-26.1-12-13.5-40.7-28-53.1-21.5 26.7 2.5 38 23.4 52.4 32.2 10.3 6.3 21 17.6 35.2 15.4"/><path d="M675 327.3v.2h-.1c-5 .9-9.6.2-15-2.1a90 90 0 0 1-12.8-8q-5.1-3.7-7.6-5.2-4.5-2.7-13.2-10.9a125 125 0 0 0-16.4-13.6q-10.7-6.6-22.7-7.7h-1l.8-.5c6-3.2 14.6-2.2 27 3.2a75 75 0 0 1 26.5 18.3q3 3.4 12 6.8 8.3 3.2 12.3 6 6.6 4.8 10.3 13.4zm-.6-.2a31 31 0 0 0-10-12.8 60 60 0 0 0-12-6 31 31 0 0 1-12.3-7 75 75 0 0 0-26.3-18.1c-11.5-5-19.7-6.2-25.6-3.7q11.7 1.3 22 7.7 6.3 4 16.5 13.7 8.6 8.1 13 10.8 2.6 1.5 7.7 5.2a89 89 0 0 0 12.8 8q7.3 3.1 14.2 2.2"/><path fill="#fff" d="M643.1 322.4c-14.7-20-36.3-38.3-46.8-33.9 13.3 2.7 17.6 12.3 27.1 19.7 9.3 7.5 5.4 15.3 19.7 14.2"/><path d="m643.4 322.2.3.4h-.5c-4.3.4-7 0-9.3-1.2q-1.9-1.2-4.1-5a28 28 0 0 0-6.5-8q-3-2.3-8.2-7.6-5-5.3-8-7.4a28 28 0 0 0-10.8-4.6l-1-.2.9-.4c5.1-2.1 12 .3 22 7.8q13.5 10.4 25.1 26.2m-.7 0a128 128 0 0 0-24.6-25.7c-9.2-7-15.7-9.5-20.7-8q5.6 1.2 10.1 4.4 3 2.3 8.1 7.5t8 7.6q3.6 2.8 6.7 8 2.2 3.8 4 5c2 1 4.5 1.4 8.4 1.2"/><path fill="#fff" d="M574.5 346.5c-15.5-8-44.3-15-58.5.3 23.4 7.5 56.8 10.4 58.5-.3"/><path d="m574.6 346.2.2.1v.3c-.8 5.2-7.4 7.5-21.3 7.2a134 134 0 0 1-37.5-6.7l-.5-.1.3-.4c6.5-7 15.7-10 29-9q15.6 1.5 29.8 8.6m-.4.5q-14-7.2-29.4-8.5c-12.9-1-21.9 1.8-28.2 8.5a134 134 0 0 0 36.8 6.5c13.4.3 19.8-1.8 20.8-6.5"/><path fill="#fff" d="M571.7 353c-15.3-9.1-26.9-1.3-41.2-4.7-27.4-6.8-46.1-8.2-49 4.7 15.8-11.4 41.4 3.6 52.2 2.7 10.6-1.1 49.4 7 61.9 13.8-6.5-8.6-16-12.2-24-16.5"/><path d="m571.8 352.7 5 2.6a55 55 0 0 1 19 14l-.3.5a128 128 0 0 0-31.6-10 114 114 0 0 0-30.2-3.8q-3.6.3-15.1-2.9-12.7-3.6-19.1-4c-7.5-.6-13.1.8-17.8 4.2l-.6.5.2-.9c1.4-6.3 6.1-9.3 15.4-10q11.6-.4 33.8 5.1 5.6 1.5 16.2.5 8-.7 12-.3 7 .8 13 4.5m-.2.5h-.1v-.1q-5.9-3.5-12.6-4.3-4-.4-12 .3-10.6.9-16.4-.5-22.2-5.6-33.6-5c-8.6.5-13.1 3.2-14.8 8.7a27 27 0 0 1 17.4-3.9q6.5.6 19.2 4.2 11.5 3.1 15 2.8 8.2-.9 30.4 3.9 21.4 4.6 30.6 9.4a58 58 0 0 0-18-12.8z"/><path fill="#fff" d="M619.2 317.8c-3.5-12.6-3.4-24.4 14-22-4.7-6-20-10.8-23.2 9.7-19.5-16.8-39.7-22.1-44-10.3 10.1-7 25 1 43.5 24.7 1.7-.7 5.8-1.9 9.7-2"/><path d="m619.5 317.9-.1.2h-.2q-5.2.3-9.6 2l-.2.2-.1-.2a94 94 0 0 0-24.8-23.8c-7.5-4.1-13.2-4.4-18.3-.9l-.7.6.3-1c2.2-6 7.2-7.8 16.5-5.7a70 70 0 0 1 27.5 15.7c1.4-9.1 4.9-13.6 11.1-14.6a15 15 0 0 1 12.6 5.2l.4.6-.6-.1c-8-1.2-12.5.4-14.7 5.2-1.4 3.8-1.2 9 .9 16.5zm-1.4-17c2.3-4.8 6.6-6.5 14.5-5.5A14 14 0 0 0 621 291c-6 1-9.4 5.5-10.7 14.6v.5l-.4-.3a69 69 0 0 0-27.6-15.9c-8.5-2-13.2-.6-15.6 4.5 5-3 10.7-2.6 18 1.4a95 95 0 0 1 24.9 23.7q4.2-1.7 9.2-2c-2-7.4-2.2-12.6-.7-16.5"/><path fill="#fff" d="M592.8 331c-11.1-9-25.5-22 .2-23.6-11.4-7.6-27-7.3-25.6 14-29.8-16.5-50.4-15.8-55.2-4.4-4.3 12.9 12.7 22.6 16.5 14.8-3.7.6-14.2-4.3-8.8-11.4 6.4-6.5 36.3 3.7 65.8 23.3 8.3 5.2 35.7 8.6 7-12.7"/><path d="M593 330.7q9.9 7.4 12.3 11.8.9 2 .3 3.3-.5 1.2-2.4 1.7-3.2.9-8.9-.2-5.5-1.3-8.7-3.3a190 190 0 0 0-41.5-21.5c-13.2-4.5-20.7-5.1-24-1.9q-1.9 2.3-1.5 4.5a7 7 0 0 0 2.4 3.6q4.3 3.7 7.6 2.8l.6-.1-.2.6c-1 2-2.3 2.9-4.9 3q-3.3-.2-6.8-2.6a16 16 0 0 1-5.3-6.5 12 12 0 0 1 0-9c2.6-6.2 8.3-8.8 18.4-8.5q15.7.9 36.7 12.5c-.5-9.8 2-15.2 8.2-17.6 5.6-1.8 11.1-.6 17.8 3.8l.7.5h-.8q-9 .6-12.3 3c-1.9 1.5-2.2 3.1-1.4 5.7q2.3 5.2 13.6 14.4zm-.9 0a46 46 0 0 1-13.3-14.3c-1-2.8-.5-4.6 1.5-6.3q3.3-2.4 11.8-3c-6.2-3.9-11.3-4.9-16.6-3.2-6 2.3-8.4 7.7-7.8 17.5v.4l-.4-.2a89 89 0 0 0-36.9-12.6c-9.8-.3-15.4 2.2-18 8.2-1 3-1 5.5.1 8.5q1.6 3.6 5 6.2 3.5 2.4 6.6 2.5 2.9 0 4-2.1-3.2.4-7.4-3.1a8 8 0 0 1-2.7-4q-.4-2.6 1.7-5c3.4-3.4 11-2.9 24.5 1.8q20.1 7 41.7 21.5A27 27 0 0 0 603 347q1.6-.5 2.1-1.5.5-1.1-.3-2.8a45 45 0 0 0-12.2-11.5z"/><path fill="#fff" d="M585 349.8c-9-18.5-35.1-7-41.2-24.6-6.7 23.9 38 17 41.2 24.6"/><path d="m584.8 349.9-.2-.4c-1.2-1.6-5.6-2.9-14.3-4.1q-14.7-2.1-20.3-5c-6.6-3.5-8.5-8.2-6.5-15.4l.3-.8.3 1c1.3 3.9 3.5 6.4 7.3 8.4q3.4 1.7 11.8 3.2 8.7 1.7 12.6 3.4a19 19 0 0 1 9.5 9.5zm-.8-1.7a19 19 0 0 0-8.3-7.4 62 62 0 0 0-12.5-3.4q-8.5-1.5-12-3.2a15 15 0 0 1-7.4-8c-1.5 6.3.4 10.5 6.4 13.7a75 75 0 0 0 20 4.9q10.5 1.6 13.8 3.4"/><path fill="#fff" d="M758.8 380.7c5.9 2.4 10.5-1.6 1.9-5.3 5.9 2.3 10.5-1.5 2-5.2 5.8 2.3 10.5-1.6 2-5.3a39 39 0 0 0-6 15.8"/><path d="M758.5 380.9v-.2q.1-3.2 2.1-8.7t3.8-7.3l.1-.1h.2q3.1 1.3 4.3 2.7t.3 2.6q-1.2 1.7-3.5 1.5.9.6 1.3 1.2 1 1.4.2 2.6-1.2 1.6-3.4 1.5l1.2 1q1 1.6.3 2.8c-1.5 1.8-3.4 2-6.8.5zm5.6-10.5q3.3 1.2 4.7-.8.6-.8-.2-1.9-1.1-1.3-4-2.4-1.5 1.9-3.5 7-1.8 5-2 8.2c3 1.3 4.6 1.2 5.8-.4q.6-.8-.2-2a8 8 0 0 0-2.8-2q-.7-.1-1.3-.5l.2-.5 1.3.5c2.4.8 3.7.6 4.8-.8q.5-.8-.3-1.9a8 8 0 0 0-2.8-2l-1.3-.5.2-.5z"/><path fill="#fff" d="M761.7 346.7c12.5-14.4-.7-18 14.5-33 12.4-12.5 2.7-19 14.4-29 4-3.4 12-9.6 13-15.6 4.6 12.7-15.3 16.1-14.4 37 .7 13.2-7.7 12.6-11.3 35.2-.8 5-3.6 15-16.2 5.4"/><path d="M761.5 346.5q4-4.5 5.3-8.5.7-2.6.8-6.9.1-4.9 1.1-7.7a30 30 0 0 1 7.3-10q4-4 5.9-8.2.8-2.5 1.5-7.1.5-4.5 1.4-6.7a20 20 0 0 1 5.7-7l1-.8q11-9.3 11.9-14.5V268l.5 1c1 2.9 1 5.2-.1 8q-1.2 2.4-5.1 7a54 54 0 0 0-6.6 8.9q-3 5.9-2.6 13 .4 6.6-3.8 14a63 63 0 0 0-7.5 21.5q-1 5.9-3.8 8.4c-3.3 2.4-7.1 1.6-12.8-2.9h-.1zm.7.2c5.3 4 8.8 4.8 11.8 2.6 1.9-1.7 3-4 3.7-8a63 63 0 0 1 7.5-21.7c2.7-5 3.9-9.2 3.7-13.5q-.4-7.4 2.7-13.5 1.9-3.4 6.6-9 4-4.5 5-6.8 1.5-3.3.5-6.6-1.7 5.2-12 13.9l-1 .8a19 19 0 0 0-5.4 6.7q-.8 2.2-1.4 6.5-.6 4.6-1.5 7.3-1.9 4.3-6 8.5a30 30 0 0 0-7.1 9.7q-1 2.7-1.1 7.5 0 4.5-.9 7a26 26 0 0 1-5.1 8.6"/><path fill="#fff" d="M767.4 352.6c7.2-15.6 14.9-16 19-22.2 7.8-11.7 22.7-.2 36.3-11.8-2.8 14.8-19.7 11.8-27.9 21.6-7.8 10-14 14.6-27.4 12.4"/><path d="M767.1 352.5a44 44 0 0 1 13.5-17q4.2-3 5.5-5.3c2-2.8 4-4.4 7.3-5.4q2.9-.6 9.3-.6t9.9-.7q5.6-1.4 9.9-5.1l.5-.5v.7q-1.1 5.8-5.5 9.4-2.7 2.1-9.5 4.7-9.7 3.7-13 7.7-6.3 8.1-11.7 10.9a26 26 0 0 1-16 1.6h-.2zm.7 0c6.2.9 11 .3 15.3-1.7q5.2-2.8 11.5-10.8a32 32 0 0 1 13.3-7.9q6.7-2.5 9.3-4.6 4-3.1 5-8.2-4.2 3.4-9.6 4.7-3.4.8-10 .8a45 45 0 0 0-9.1.6c-3 .9-5 2.4-6.9 5.1q-1.4 2.4-5.6 5.6-8.7 6.6-13.2 16.3"/><path fill="#fff" d="M769.2 357.6c12.5-10.3 21.2-4.8 29.9-10.5 21.7-15 29.9-.7 49.2-10-5.7 13.5-33 7-45.7 17.2-12.7 10.4-55.4 21.8-33.5 3.3"/><path d="M779 351.6q3.2-.9 8.9-1.5 7.5-.9 11-3.3a40 40 0 0 1 15.8-7q4.6-.7 12.8 0 12.4 1.1 20.8-3l.5-.3-.2.6c-1.5 3.5-4 5.7-8.6 7.6q-4 1.5-14 2.9-17.5 2.3-23.2 7a56 56 0 0 1-13.7 7.7q-8.7 3.6-16.1 5c-5.7.8-8.6.5-10-.8q-1-1.4.5-3.5 1.5-2.2 5.5-5.6 4.9-4 10-5.8m-9.7 6.2q-3.9 3.3-5.4 5.5-1.2 1.8-.4 2.8c1.3 1.2 4 1.4 9.4.5q7.5-1.3 16-4.9 9-3.9 13.5-7.6c4-3.2 11.6-5.4 23.7-7.1q9.8-1.5 13.8-2.9c4-1.6 6.4-3.6 8-6.5a40 40 0 0 1-20.5 2.8q-8.2-.8-12.6 0-7.4 1.3-15.6 6.9a25 25 0 0 1-11.3 3.4q-5.6.6-8.7 1.5-5.2 1.7-9.9 5.6"/><path fill="#fff" d="M733.2 430.1c-.4-6-5.3-12.8-12.8-14.2-7.3-1.5-10.6-8.8-16.2-9.7-5.6-1.1-9.4-11.9-17-12.6-7.9 0-11 9.5 7.1 20.2 18.5 10.5 37.7 21.3 39 16.3"/><path d="M733.5 430.1q-.2 1.1-1.2 1.4a6 6 0 0 1-2.5 0 43 43 0 0 1-8-2.8q-6.6-2.9-23.8-12.5l-3.8-2.1c-8.4-5-12.6-9.6-13.5-14.4q-.3-3 1.5-4.8a7 7 0 0 1 5-1.6c3 .3 6.1 2.4 10.2 7.1 3 3.6 5.1 5.1 6.8 5.5q2.8.3 7.3 4.4 5.1 4.7 9 5.3c3.6.7 6.4 2.3 9.2 5.5q3.6 4.3 3.8 9m-.5 0a15 15 0 0 0-3.7-8.7c-2.7-3-5.4-4.6-9-5.2q-4-.7-9.2-5.5-4.3-4-7-4.3-2.6-.3-7-5.6-5.8-6.7-10-7-2.9 0-4.5 1.5-1.5 1.7-1.3 4.3 1 6.8 13.2 14l3.8 2.1a327 327 0 0 0 23.6 12.5q5.4 2.2 8 2.8 1.5.2 2.3 0 .6-.2.8-.9"/><path fill="#fff" d="M710.4 434.5c-7.7.6-8.9 11-16.2 11.6 10.4 5.8 17.3-1.6 22.8-8.9z"/><path d="m710.5 434.2 7 3-.2.2c-8.1 10.6-15.4 13.4-23.3 9l-.9-.6h1q3.5-.1 7.7-5.6c3.2-4 5.7-5.8 8.5-6zm-.2.6q-3.7.2-8 5.8-3.9 5-7.2 5.7c4.4 2.1 8 2.2 12.2 0a34 34 0 0 0 9.3-9z"/><path fill="#fff" d="M716.7 436.2c-6.7 6-8.6 17 1 21.2-5.2-8.6 9.7-11.3 5.3-19.3z"/><path d="M716.4 436v-.2l6.8 2v.1c1.2 2 1.3 3.4.6 5.3q-.7 1.5-3.3 4.3a19 19 0 0 0-3.4 4.5q-1 2.5.9 5.3l.5.8-.8-.4c-4.8-2-6.9-5-6.9-10.2.3-4.8 2-8.3 5.6-11.5m.4.5a15 15 0 0 0-5.4 11c0 4.6 1.7 7.3 5.6 9.3a6 6 0 0 1-.4-5 20 20 0 0 1 3.5-4.7q2.5-2.7 3.2-4.2 1-2.3-.4-4.5z"/><path fill="#fff" d="M723.4 436.7c-4.7 10.6 7.7 11.6 4.7 19.7 7.8-2.3 8.9-16.1 2-20.7z"/><path d="m723.1 436.5.3.2v-.3l6.7-1h.1c3.7 2.4 5.1 5.8 4.7 11.6-.6 5.7-2.6 8.6-6.7 9.7l-.6.1.3-.5c.9-2.5.2-4.8-2.5-8q-2.5-3-3.1-4.8-1-3.1.8-7m.5.5q-1.7 3.5-.8 6.3.6 1.8 3 4.6c2.7 3.2 3.5 5.5 2.8 8 3.5-1.1 5.2-3.8 5.8-9 .3-5.5-1-8.7-4.4-10.9z"/><path fill="#fff" d="M671.6 411.8c12.9.4 24 7.8 32 19.6 5.5 7.5 21 10.6 27.2 5 5.5-6.1 2.6-17.4-11.6-14.2-4-6-13.5-4.7-18.7-9.7-5.3-5.5-23.4-20.5-28.9-.7"/><path d="M671.3 412v-.3c1.4-4.9 3.2-7.7 6-9.3 2.7-1.1 5.2-1.2 8.8 0q7.8 2.6 14.6 9.9a21 21 0 0 0 8.9 4.2c5.2 1.4 8.1 3 9.7 5.3 6.7-1.5 10.7-.4 13.3 3.8q1.4 2.5 1 5.7a10 10 0 0 1-2.6 5.3c-3.1 2.9-7.4 3.7-14 2.5-6.7-1.3-10.8-3.8-13.6-7.6-8.7-12.8-18.9-19-31.8-19.4zm.7-.5c12.9.5 23.2 6.8 31.9 19.7q3.7 5.4 13.1 7.4c6.5 1.1 10.6.3 13.6-2.4 3-3.4 3.5-6.4 1.5-10.3-2.5-4-6.3-5-12.9-3.5h-.2v-.1c-1.5-2.2-4.3-3.8-9.6-5.3a22 22 0 0 1-9.1-4.3q-6.8-7.1-14.3-9.8-5-1.5-8.3 0c-2.7 1.6-4.4 4-5.7 8.6"/><path fill="#fff" d="M719.2 422.2c-3.4 1.1-4.3 6-2.3 9.6z"/><path d="M719.2 422.4q-2.2.6-3 3.7-.6 3.3.9 5.6v.4h-.3l-.2-.1a8 8 0 0 1-1-6q1-3.6 3.5-4.1.3 0 .3.2v.2z"/><path fill="#fff" d="M726.4 426c1 1.9.4 4.1-.2 5.5z"/><path d="M726.6 425.8q1.3 2.2-.1 5.8l-.2.2h-.2q-.3-.1-.2-.4 1.5-3.3.2-5.3v-.3l.1-.1q.3-.2.4 0"/><path fill="#fff" d="M691.7 413.7c6.5 1 7.8 5.3 14.8 7.7z"/><path d="M691.7 413.4a17 17 0 0 1 7.8 3.7 24 24 0 0 0 7.3 4.1v.3q0 .2-.4.2-3.3-1-7.3-4.2a16 16 0 0 0-7.4-3.5q-.3 0-.3-.4l.1-.2z"/><path fill="#fff" d="M687.4 397c22.5 7.1 40.3 12.5 51.4 19a55 55 0 0 0 43.2 2.6c15.4-5.3 43.3-12.1 42.5 6.8 7.7-11-2-19-22.2-19.1 0-9.7-9-16.8-16.4-11 6.6-.8 12 10.2-.7 16.6 2-9.8-6.4-17-16.1-12.8 6.1 2 12.1 11.2-1.4 16.3-8.8 2.7-20.8-.2-30.3-6s-60.6-28.7-50-12.4"/><path d="M687.2 397.3v-.1q-2.2-3.2-1.6-4.7t3.5-1.5a60 60 0 0 1 15.6 3.9q22 7.7 32.8 14.3 7.3 4.4 15.4 6.2 8.5 1.6 14.7-.3c6.1-2.2 8.4-4.8 7.9-9-.9-3.7-2.7-5.6-6.5-6.7l-.8-.2.8-.4c5-2.2 8.8-1.8 12.8 1.2 3.6 3.2 4.7 6.5 3.8 11.4 5.4-2.8 7.4-6 6.9-10.5q-.5-2.6-2.4-4.2a5 5 0 0 0-4.2-1.1l-1 .2.8-.7c3.8-3 7-3.1 11.4-.3 3.8 2.9 5.5 6.2 5.5 11.2q14.8 0 21.4 5.6c4.5 4.1 4.7 8.3.7 14l-.6.8v-1c.5-8.4-4-12-14.7-12.1a90 90 0 0 0-27.3 5.6 59 59 0 0 1-23.2 3q-11.8-.8-20.2-5.7c-8.4-4.9-25.4-10.7-51.4-19zm.4-.6c25.9 8.3 43 14.1 51.3 19a47 47 0 0 0 20 5.7 59 59 0 0 0 23-3 91 91 0 0 1 27.5-5.7c10.7 0 15.4 3.6 15.4 11.8 3.2-5 2.9-8.7-1.2-12.5-4.5-3.7-11.3-5.4-21.3-5.4h-.3v-.3c0-5-1.5-8.2-5.3-11-3.7-2.5-6.5-2.6-9.9-.4q2 0 3.7 1.4a8 8 0 0 1 2.5 4.5c.7 5-1.6 8.4-7.8 11.4l-.5.3.2-.6c1-5 0-8.3-3.5-11.4-3.6-2.8-7-3.2-11.5-1.5a9 9 0 0 1 6.1 7c.6 4.5-1.8 7.3-8.2 9.7a30 30 0 0 1-15 .3 50 50 0 0 1-15.6-6.3c-7.2-4.5-18-9-32.7-14.3a60 60 0 0 0-15.4-3.8q-2.5 0-3 1.1-.4 1.3 1.5 4"/><path fill="#fff" d="M744.2 389.2c-6.9 3.7-2.7 10.5-13.4 15.1-11.1 4.5-18.2 13.6-16 22.4 7.7-16.1 20.1-15.6 25-22 4.7-6.8 11-15.6 4.4-15.5"/><path d="M744 389h.1q2.7-.4 3.2 1.4.4 1.4-.8 4A79 79 0 0 1 740 405a24 24 0 0 1-7.8 5.5q-6 3-9 5.4-5 4.4-8.2 11l-.3.8-.2-.8c-1.2-4.5-.2-8.5 3-13q4.8-6.5 13.2-9.7c4-1.8 6.6-4.4 8.3-8.8q1.8-4.8 5-6.4m.2.6q-2.9 1.5-4.7 6a15 15 0 0 1-8.6 9.1 29 29 0 0 0-13 9.5c-2.9 4.2-3.8 7.7-3 11.8a32 32 0 0 1 8-10.6q3-2.4 9-5.5 5.9-3 7.6-5.2 5-7.2 6.5-10.4 1.1-2.5.7-3.6-.3-1.3-2.5-1"/><path fill="#fff" d="M746 390.3c-.6 13.2-10 8.4-6.4 26.9a41 41 0 0 1-.4 24.5c11-8.9 4.4-26 9.2-33a46 46 0 0 0 6.8-12.8c-2.6 8-2.4 21.2 4.8 25.1-5.3-14.1 15.2-25.8.9-41.8-2.4 4.2-8.6 10.8-14.8 11"/><path d="M745.8 390.6v-.4h.3v-.2c2.8 0 5.4-1.2 8.7-4a26 26 0 0 0 5.8-7l.2-.3.3.3c3.8 4.2 5.5 8.2 5.3 13q-.3 4.1-3.6 12a57 57 0 0 0-3.1 8.4q-1 4.6.6 8.5l.3.7-.7-.3c-3.5-1.8-5.4-5.2-6.3-11.2q-.5-5 .2-9.6-2 4-5.2 8.3c-1.3 2-2 5.6-2.1 12q0 7.7-1 11.3c-1.1 4.4-3 7.4-6.1 9.8l-.8.6.4-1q3.5-8.8.5-23.5l-.2-.8a28 28 0 0 1-.5-11.3q.7-2.4 3.2-5.6 3.5-4.3 3.8-9.7m.6 0q-.4 5.4-4 10.1-2.4 3-3 5.4-1 4 .5 11l.1.8q3 14-.1 22.9 3.6-3.3 5-8.8 1-3.6 1-11.2c.2-6.5 1-10.3 2.3-12.3a46 46 0 0 0 6.8-12.7l.5.2-.4 1.4q-1.7 5.9-.9 12.6c.8 5.4 2.4 8.5 5.2 10.4-.8-2.6-.9-5-.3-8.1q.7-3 3.1-8.6 3.3-7.7 3.7-11.7c0-4.5-1.4-8.3-5-12.3a28 28 0 0 1-5.8 6.8q-4.8 4-8.7 4"/><path fill="#fff" d="M710.2 376.6c1.7 3.1 3.3 9.4 2 13.4a33 33 0 0 0 10.1-11.2c7.3 1.7 10 10 3.2 14.3 4.5 0 11.1 0 15.5-4.8-5.2-5.6-20-14-30.8-11.7"/><path d="M709.7 376.3h.4c5-1 10.6-.2 17.7 2.8q8.9 4.1 13.4 9l.2.2-.2.2c-3 3.3-7.8 4.9-15.7 4.9h-1l.9-.6c3.2-2 4.2-4.2 3.5-7.8-1-3.4-2.8-5-6.4-5.9q-1.3 2.7-4.3 6.2-3.2 3.4-6 5l-.7.4.4-.8q1-2.5.2-6.9-.7-3.9-2.2-6.2zm1 .5q1.2 2.4 2 6.1.6 4 0 6.5a31 31 0 0 0 9.4-10.7v-.2h.3c4 .8 6 2.6 7 6.4.8 3.5 0 5.7-2.9 7.9 7-.1 11.3-1.6 14.1-4.5q-4.4-4.7-13-8.6-10-4.4-17-2.9"/><path fill="#fff" d="M600.7 341.3c-1.2-1.2-3-2.4-6.5-3.7-10.5-4-5.3-12.3 4-11.5 19.5-18.9 30-1.4 53.7-5.7 8.4-1.6 13.8-.5 18.4 1.8 10.9-6.3 22.7-3.6 32 5.2q1.4-2.4 4.2-3.2c8.5-1.7 14.7 5.1 17.2 14.8 6.7-1 13.6 2.1 18.7 6.7 7-3.6 11-3.8 13-.3 6.3-3 13.4-5 17.6 4.5 3.5 9.6-8.7 7.2-11.3 27.8-1.7 12.9-14.7 17.9-26 10.4-17.7-12.2-34.2-14.8-43 3-8.5 18.1-15 28.2-35.5 20.6a20 20 0 0 0-22.9 6.8c-6.3 7.3-14.9-.8-26-1.6 13.7-.6 8.4-4.4 20.4-4 10.9-.1 8.2-9.8 15.1-11.1-27.4 4.3-26.3-5.8-48.9-1.7 10.2-11.3 25-3 33-9.3-20.4-3-29.3-17.2-38.6-13-14.3 7.4-8.3 33.3-45.8 25.9-18.5-3.8-29.7-3.1-40.8 6.3 19.4-37 44.5-11.6 57.4-22.3a80 80 0 0 0 16.9-18.1c1.5-2.4 3-3.5 5.5-3.8-31.4-14.8-12.4-27.1 18.2-24.5"/><path d="M600 341q-2-1.8-5.9-3-3.8-1.5-5.3-3.7-1.4-2.2-.3-4.4c1.8-3.4 4.5-4.6 9.5-4q8-7.8 16-9 5-.4 15 1.8a57 57 0 0 0 22.9 1.4c7.2-1.4 13-.8 18.4 1.8a24 24 0 0 1 16.6-3 30 30 0 0 1 15.3 8 7 7 0 0 1 4.2-3c4.3-.8 7.6 0 11.1 3.2q4.5 4.3 6.4 11.5c6.6-.8 12.4 1.2 18.5 6.7q5.1-2.6 8.4-2.7 3.3 0 4.7 2.4 5.6-2.6 9.5-2.3c3.9.5 6.3 2.6 8.3 7q1.2 3.2.3 5.4-.6 1.5-3 4a31 31 0 0 0-8.6 18.6c-.8 6.6-3.7 10.7-9.6 13.2-5.9 2.1-11 1.4-16.9-2.5a46 46 0 0 0-24.6-9.7c-8.1.2-13.7 4.1-17.9 12.6q-7.4 15.6-13.3 20c-5.8 4-12.8 4.2-22.6.7q-5.7-2.1-11.8-.5a21 21 0 0 0-10.7 7.2 8 8 0 0 1-6.8 3.2q-2.5 0-8.2-2a47 47 0 0 0-11.3-2.7v-.5q6.7-.4 10.7-2.4 3.6-2 9.7-1.7 3.9 0 6.3-1.8 1.3-1.2 3-4.2 1.7-2.9 3.3-4.1-12.5 1.5-24.1-1.3-11.2-2.8-22.2-.8l-.9.2.6-.7q3.8-4.4 9.6-5.9 3.5-.6 10.5-.7 8.9 0 12.5-2.3-9.8-1.6-22.6-9a61 61 0 0 0-8.3-4.2 9 9 0 0 0-7 .2q-4.7 2.4-9.8 11.5-5.3 9.6-10.6 12.7c-6 3.4-14.2 4-25.5 1.8q-14.3-3-23.1-1.8a34 34 0 0 0-17.5 8l-.5-.3q8.2-15.9 19.9-19.9a49 49 0 0 1 20-.4q6.9.9 9.8.8c3.3-.3 5.6-1.2 7.8-3a89 89 0 0 0 16.8-18q1.8-3 4.8-3.8-10.4-5-14-10c-2-3.6-2-6 .6-8.8a24 24 0 0 1 12.4-5.2q8.7-1.6 19.4-.7m1 .2.4.5h-.6q-11.2-1-20 .5a24 24 0 0 0-12.1 5c-2.4 2.7-2.5 5-.6 8.2 2.5 3.4 7 6.7 14.6 10.2l1 .5h-1a7 7 0 0 0-5.4 3.7 90 90 0 0 1-17 18.3 14 14 0 0 1-8 3q-3 0-9.9-.8-13-1.7-19.8.4c-7.4 2.6-13.5 8.4-18.8 18.2q7.4-6 16.5-7.2t23.3 1.8c11.2 2.2 19.3 1.7 25.2-1.7q5-3 10.4-12.5 5.2-9.3 10-11.7c2.3-1 4.5-1.1 7.5-.2q2.6.9 8.4 4.3 13.1 7.5 23 8.9h.7l-.5.5q-3.4 3-13.4 2.9-6.9 0-10.3.7a18 18 0 0 0-8.8 5q10.7-1.7 21.6 1a66 66 0 0 0 26.5 1l.1.5h-.5q-2.6.8-4.9 4.8a16 16 0 0 1-3.1 4.4 10 10 0 0 1-6.7 1.8q-5.9 0-9.4 1.7a24 24 0 0 1-8 2.2q3.4.7 8.4 2.3 5.6 2 8 2c2.8 0 4.6-.9 6.4-3a20 20 0 0 1 23.2-6.9c9.5 3.5 16.4 3.3 22-.6q6-4.4 13.2-19.8c4.3-8.7 10-12.7 18.3-13q11 .2 25 10c5.7 3.7 10.7 4.4 16.4 2.3 5.6-2.4 8.5-6.3 9.3-12.6.9-7.6 3.6-13.6 8.6-19q2.4-2.4 3-3.8.8-2-.3-4.9c-2-4.3-4.2-6.2-7.8-6.8-2.7 0-5.6.7-9.5 2.5l-.2.1-.1-.2q-1.3-2.5-4.4-2.4a22 22 0 0 0-8.3 2.7l-.2.1-.1-.1q-9-8.2-18.4-6.6h-.3v-.3q-1.9-7.3-6.3-11.5c-3.5-3-6.6-3.8-10.6-3a7 7 0 0 0-4 3.1l-.3.3-.2-.3a30 30 0 0 0-15.2-8.2c-6-1-11.1 0-16.4 3l-.1.2-.2-.1a28 28 0 0 0-18.2-1.8 58 58 0 0 1-23.1-1.4q-9.8-2.2-14.8-1.7a29 29 0 0 0-15.8 8.8h-.2c-4.8-.5-7.4.6-9 3.8a4 4 0 0 0 .2 3.8q1.4 2 5 3.4 4.5 1.6 6.6 3.7"/><path fill="#fff" d="M755.4 345.4q.7 1.5.7 4c-.5 7.9-11.1 8.5-12.3 20.2-.4 6.3-1 9.2-5.1 8.8-4.2-1-7.4-7-3.7-14.8z"/><path d="M755.7 345.3q.6 1.6.7 4c-.2 2.7-1.7 5.2-5.2 8.3-4.6 4-6.7 7.7-7.1 12q-.5 5.2-1.2 7c-1 1.8-2.1 2.4-4.3 2.1q-3.5-.7-5-5c-1-3.4-.7-6.4 1.1-10.2q.1-.3.4-.1l.2.1v.3a13 13 0 0 0-1.2 9.7c1.1 2.8 2.4 4 4.6 4.6q2.7.5 3.7-1.7.8-1.7 1.1-6.8c.4-4.5 2.7-8.3 7.3-12.4q5-4.4 5-7.8 0-2.4-.7-3.8 0-.3.2-.4h.2z"/><path fill="#fff" d="M606.5 330.2a18 18 0 0 0-8.4-4z"/><path d="M606.4 330.4a17 17 0 0 0-8.3-4v-.6q4.4.8 8.6 4.2z"/><path fill="#fff" d="M670.3 322.2c9.2 5 13.9 14.8 27.4 16.2 13 1.5 21 20.4 43 8.3l1.7-1q-35.5-10.2-72.1-23.5"/><path d="M670.4 321.9q3.4 1.9 9 6.8 5 4.3 7.8 6a26 26 0 0 0 10.5 3.4 33 33 0 0 1 12.8 5.9q7.9 5.1 12.6 6.2c5.5 1 11-.2 17.4-3.8l1.7-1 .3.6-1.7 1a26 26 0 0 1-17.8 3.7q-4.7-1-12.8-6.2a33 33 0 0 0-12.5-5.8q-5.9-.6-10.8-3.4-3-1.8-7.8-6.2a53 53 0 0 0-9-6.7z"/><path fill="#fff" d="M702.3 327.4a19 19 0 0 0-1.9 11.4z"/><path d="M702.5 327.6q-2.7 4.3-1.8 11.2h-.6a17 17 0 0 1 2-11.5z"/><path fill="#fff" d="M659.7 365.4c-16.7-1.1-20.7 6.5-20.8 15 .3 8.5 7.6 19.6 21.5 21.1 13.9 1 20.9-6.9 21.1-16.4-.3-9.6-8.3-18.3-21.8-19.7"/><path d="M659.7 365.1q9.7 1 16 6.8c4.1 4 6 8 6 13.2a16 16 0 0 1-5.4 12.4 21 21 0 0 1-16 4.3 24 24 0 0 1-16-8 21 21 0 0 1-5.7-13.4c.2-11.7 6.9-16.3 21-15.3m0 .6c-13.8-1-20.2 3.5-20.4 14.7a20 20 0 0 0 5.5 13c4.3 4.7 9.2 7.2 15.7 7.8s11.4-.9 15.5-4.2c3.6-3.2 5.2-6.9 5.3-12-.1-4.9-1.9-8.8-5.8-12.6q-6.1-5.8-15.7-6.7"/><path fill="#fff" d="M662.7 401.4c-1-4.6-8-4.9-8.3-8.3.7-3.6 4.2-4.7 4.6-9.7.5-5.1 6.9-4.7 9.8-.7 2.9 4.6 9.3 12 11.5 8.6z"/><path d="M662.4 401.4q-.3-2.3-4.5-4.5-4-2-3.8-3.9.3-1.6 2-4 2.6-3 2.6-5.7 0-3.9 4.2-4c3 0 4.7 1 6.2 3.3q2.3 4 6 7.2 1.9 1.7 3.1 2.1t1.8-.7l.5.2q-.7 1.6-2.4 1-1.4-.4-3.4-2.2a34 34 0 0 1-6.1-7.3q-1.9-3-5.6-3-3.7.1-3.8 3.5 0 2.9-2.6 6a8 8 0 0 0-2 3.7c0 1 1 2 3.5 3.3 3.2 1.7 4.5 3.1 4.8 5z"/><path fill="#fff" d="M668.8 382.7c-3.9 4-5.5 11.3-.5 18.4z"/><path d="M669 383q-3 2.8-3.5 7.8c-.2 3.8.7 6.9 3 10.1l-.4.4a16 16 0 0 1-3.2-10.6 13 13 0 0 1 3.7-8.2z"/><path fill="#fff" d="M674.1 389.3a12 12 0 0 0-.2 9.3z"/><path d="M674.4 389.4c-1.6 3.6-1.6 6.2-.2 9.1l-.5.3c-1.5-3.1-1.5-6 .1-9.7zm65.5-11.2c6.2.3 9.4-1.5 10.9-6.3q.6-2.8-.7-5-1.5-2.2-4.8-2.5v-.6q3.6.4 5.3 2.8 1.5 2.4.7 5.4a9 9 0 0 1-3.6 5q-3.3 2.1-7.9 1.8zm-16.2-39c-2.8-3.5-5.3-4.8-8.8-4.7-3.8.5-5.4 3-5.7 8.7h-.5c.2-6.1 2-8.8 6-9.3 3.8-.1 6.5 1.3 9.4 4.9z"/><path fill="#fff" d="M707.7 357.3c-4.8-11.4-15.3-13.4-21.6-8.3-5 4.7-5.1 16 5.6 19.6a44 44 0 0 1 16-11.4"/><path d="M708 357.2v.3h-.2a35 35 0 0 0-15.9 11.3v.1h-.3c-5.2-1.7-7.8-4.6-8.9-9.6-.6-4.7.3-7.8 3.2-10.6 3.5-2.8 7-3.4 11.7-2 4.9 1.6 8 4.9 10.4 10.5m-.7-.1a16 16 0 0 0-9.9-10c-4.5-1.2-7.8-.6-11.1 2-2.8 2.7-3.7 5.6-3 10 1 4.8 3.4 7.5 8.3 9.1a35 35 0 0 1 15.7-11.1"/><path fill="#fff" d="M702.9 350c-6.7-5.6-15.3 4-7.2 14.8z"/><path d="M702.7 350.2q-2.3-2-4.7-1.6a6 6 0 0 0-4 2.8c-2.6 4.2-2 8.2 1.9 13.2l-.4.4c-4.1-5.3-4.7-9.5-2-14a7 7 0 0 1 4.3-3q2.9-.4 5.3 1.8z"/><path fill="#fff" d="M582.3 365.7c4.4-.3 10.4 2.5 20 8.3 6.3 3.8 23.6 11.6 35.2 7-11.7 2.5-20.3-15.4-29.2-14.9-9.1 1-24.5 2.1-31.7-5.3 16.7 3.1 25.2-8.5 44.3 5a36 36 0 0 0 18 7c-16-20.5-35.5-11.1-38-26.7 9.7 11.2 31.7 1.8 43.7 21.9q-30.5-.6-62.3-2.3"/><path d="M582.3 365.4h1.2a18 18 0 0 1-7.1-4.4l-.6-.6.8.2q6.2 1.1 16.2-.6 8.3-1.6 12.8-1 7.4.8 15.5 6.6 8.8 6.2 17.2 6.9a39 39 0 0 0-12-10.2 72 72 0 0 0-12-4.5 39 39 0 0 1-9-3.7c-2.7-2-4-4.3-4.7-8l-.1-1 .6.8q2.5 3 7.3 4.8 2.9 1 9.6 2 9.7 1.6 14.4 3.7c5.3 2.5 9.3 6 12.5 11.5l-.5.2q-4.5-7.7-12.2-11.2a67 67 0 0 0-14.3-3.6q-6.7-1-9.6-2-4.4-1.6-7-4.3 1 4.3 4.2 6.7a39 39 0 0 0 9 3.5q7.8 2.3 12 4.5 7.4 4 12.6 11l.4.4h-.6q-8.9-.5-18.1-7a34 34 0 0 0-15.2-6.6q-4.4-.5-12.6 1a49 49 0 0 1-15.6.8c5.2 4.8 15.1 6.3 30.8 4.5 2.9-.1 6.7 2 12.4 7q5.3 4.7 8 6.3a12 12 0 0 0 8.8 1.6l.2.5q-7.5 3.3-19.7-.2-8.7-2.6-15.7-6.7c-9.8-6-16.1-8.5-19.8-8.3zm6.1 1.2q5.4 2 14 7.2a67 67 0 0 0 15.6 6.7 34 34 0 0 0 16.7 1q-3 0-6.3-1.9a58 58 0 0 1-8.1-6.3c-5.6-5-9.3-7-12-7q-12 1.4-19.9.3"/><path fill="#fff" d="M604.2 349.4c-2-3.2-1.4-5.6-3.5-8.2z"/><path d="M604 349.5a13 13 0 0 1-1.7-4.2q-.7-2.6-1.8-4l.4-.3q1.2 1.4 2 4.2.6 2.6 1.6 4zM724 339c-4.4-4.1-12-1.4-10 7.4 2-4 5.6-7 10-7.4m-24 22.3a31 31 0 0 1 7.7-4q-2-5-5.2-7.6c-2.4-1-7.4 5.7-2.5 11.6m-10.6-15a18 18 0 0 0-8.5-3.6c-2.6 0-4 .6-5.1 2.3l-.1.1h-.2c-2.4-.2-4 .4-5.7 2q-2.4 2.4-2.5 7.2l-.1.2h-.2q-.3 0-.3-.3.2-5 2.7-7.6a7 7 0 0 1 6-2c1.2-1.9 2.7-2.6 5.5-2.5q4.2.4 8.8 3.8.3.1.1.4l-.2.1z"/><path d="M676.6 358.1c-4.2-3-7.7-4-11.5-3-4 1.4-5.5 4.3-5.3 10v.2l-.3.1q-.3 0-.3-.3c-.2-6 1.5-9 5.7-10.5 4-1 7.6-.2 12 3l.1.3v.2q-.2.2-.4 0m-21.9 13.1q3.5-2.4 6.6-2.6c2.8.1 4.8 1.3 6.9 4v.4h-.5c-2-2.6-3.8-3.7-6.4-3.8q-3 .3-6.2 2.5h-.4zm57-7.7c-1.9 2.8-2 5.5-.2 9.4l-.5.3c-1.7-2-3.6-2.7-6.6-2.2-3.5 1-6.7 3.3-10.4 7.8l-.2.1h-.2v-.5q5.4-6.7 10.6-8c2.7-.4 4.4 0 6.1 1.3-1-3.5-.8-6 .9-8.5l.2-.2.2.1q.2.2 0 .4m16.6 0c-4.5.6-6.4 1.7-6.8 4q-.2 3.1 5.2 5.3l.2.2v.2q0 .3-.4.2c-4-1.7-5.6-3.4-5.5-6 .4-2.6 2.4-3.9 7.2-4.5h.2l.1.3q0 .3-.2.3M663 337.3c-4.3-1.1-6.5-1-8 .6q-.6 1 .4 2.3 1.4 1.6 5 3.4.4 0 .3.3l-.2.2h-.2a16 16 0 0 1-5.3-3.6q-1.4-1.6-.5-3c1.6-1.7 4-2 8.6-.8l.2.2v.2q0 .3-.3.2m14.7-4.3q-7.6-2.4-11-1.4-1.1.3-1 1 .2.8 1.8 1.8l.2.2v.2q-.1.3-.4.1-2-1.2-2.2-2.2-.2-1.2 1.5-1.7 3.5-1 11.3 1.4l.2.2v.2q0 .3-.4.2m-31.1 42c-.2 2.6.3 4 1.4 5.3 1.6 1.2 3.3.8 6.2-1.5q.2-.2.4 0v.4c-3.2 2.6-5 3-7 1.5-1.3-1.4-1.8-3-1.6-5.8q0-.2.3-.2l.2.1zm2.2 12q0 2.2-1 3.4 0 .2-.4 0v-.5q.8-.8.8-3 0-.2.3-.2t.3.3M623 332c-3.7-1.6-5.3-3.3-5.7-5.8q-.1-1.5 1.3-2.3t4.3-.3l.2.2v.2q0 .3-.2.2-2.7-.4-4 .2t-1 1.8q.3 3.1 5.2 5.2.3.1.2.4l-.1.2zm-2.3 14.3c-3.9-1.9-5.5-3.8-6-6.7q0-1.8 1.2-2.8 1.3-.9 3.7-.4.3 0 .2.4v.2h-.3q-2.1-.5-3.2.3-1 .8-1 2.3c.4 2.6 2 4.4 5.6 6.2l.1.1v.3q0 .2-.3.1m13.7-2.2c-4.4-1.7-6.4-3.4-7-5.9q-.5-1.4 1-2.3 1.3-.6 3.7 0 .3 0 .2.3v.2h-.3q-2.2-.4-3.4 0-1 .7-.7 1.8c.6 2.2 2.5 3.7 6.7 5.3q.3 0 .2.4 0 .3-.4.2m1.1-18.7c-3-.4-4.6.1-5.8 2q-.5 1 .6 2.3 1.5 1.5 5.5 3.1.3.1.2.4l-.1.2h-.2a16 16 0 0 1-5.8-3.3q-1.5-1.6-.6-3c1.3-2.1 3-2.7 6.3-2.2q.3 0 .2.3v.2zm12.9 11.8c-5.2-1.2-7.4-1.1-8.2.2-.4 1.4.7 2.6 4.1 4.6l.2.2v.2q-.3.3-.4.1c-3.8-2.1-5-3.6-4.5-5.4 1-1.6 3.4-1.7 8.8-.5l.2.1v.3q0 .3-.2.2m8-9.7c-4-1-6.2-1-7.6.5q-.7.9-.2 1.9.7 1.2 2.5 2.1.3.1.2.4l-.1.2h-.3a6 6 0 0 1-2.8-2.5q-.6-1.4.2-2.5c1.7-1.6 4-1.8 8.3-.7l.2.4-.1.2zM630.2 356c-1.7-1.7-2-3.3-1.5-5.8 1-2.6 3-3 7.7-1.5l.2.1v.2q0 .3-.3.2c-4.3-1.4-6.2-1-7 1.2q-.9 3.1 1.2 5.2l.2.2-.1.2q-.3.2-.4 0m20.1-.4c-3.4-1.1-5.5-.8-7.7 1.3q-1.1 1.3-1 2.8.3 1.7 2.3 3.2.2.2 0 .4l-.1.2-.2-.1q-2.2-1.7-2.5-3.7a4 4 0 0 1 1-3.2c2.4-2.3 4.7-2.7 8.4-1.5l.2.2v.2q0 .3-.4.2m8.7-7q-5.1-1.3-8.3-.5-1.4.3-1.5 1-.1.5 1 1.4l.2.2-.1.2q-.1.3-.4.1-1.5-1.2-1.2-2.2.2-.9 1.8-1.3 3.3-.8 8.6.6.3 0 .2.3v.2z"/><path fill="#fff" d="M723.5 339c-4 .8-7 2.8-9.5 7.4z"/><path d="M723.6 339.3c-4.3.8-7.1 3-9.4 7.2l-.5-.3q3.2-6.3 9.8-7.5z"/><path fill="#1a1a1a" d="M8 195.3c170.8-85.3 341-54.5 513.3-28C676.5 191 833.4 211.8 992 132.7v672c-170.8 85.3-341 54.5-513.3 28C323.5 809 166.6 788.1 8 867.2zm31.3 19.3v604.5c306.5-128.2 611.1 96 921.5-33.7V180.9C654.2 309 349.5 84.9 39.3 214.6" opacity=".2"/></svg>