<svg xmlns="http://www.w3.org/2000/svg" viewBox="0 0 1000 1000"><path fill="#ffd520" d="M8 195c171-85 341-54 513-28 155 24 312 45 471-34v672c-171 85-341 54-513 28-155-24-312-45-471 34z"/><path fill="#ff4e12" d="M8 867c171-85 341-54 513-28 155 24 312 45 471-34V133C818 339 644 424 468 517 316 598 163 684 8 867"/><path fill="#fff" d="M535 379q-9-3-9 7 1 12 9 10z"/><path d="m535 379 1 18h-1q-4 1-7-2l-2-9q0-6 2-7zm-1 1q-3-3-6-1l-2 7q0 6 3 8 2 3 6 2z"/><path fill="#fff" d="M539 367q-6-8-10 3-3 11 6 12z"/><path d="m540 367-5 15q-4 0-7-4v-8l5-6q3-1 7 2zm-1 0-6-3q-3 1-4 6v8q2 3 6 4z"/><path fill="#fff" d="M547 355q-6-8-11 1t4 13z"/><path d="m547 355-7 14q-5-1-6-5-1-3 1-8 3-5 6-5t6 4m0 0q-3-4-6-3-3 0-5 4-3 5-1 8 0 4 5 4z"/><path fill="#fff" d="M542 418c-7 1-7 10-3 17q9 10 16 2z"/><path d="m542 417 13 20q-3 4-8 4-5-2-8-6-4-5-3-11 2-6 6-7m0 1q-5 2-5 6-1 5 2 11 3 5 8 5 5 1 8-3z"/><path fill="#fff" d="M534 397c-6-3-11 4-13 12-1 10-14 11-7 27q4-14 13-13t15-5z"/><path d="m534 396 8 22q-3 6-15 5-4 0-8 3l-5 10v1-1q-3-7-2-12l4-7q5-5 5-8 1-6 5-11 4-4 8-2m0 1q-4-3-8 2-3 4-4 10l-5 9-5 7 2 10q1-6 5-10 3-3 8-3 11 1 15-5z"/><path fill="#fff" d="M554 438c-7 1-8 10-3 19 5 6 18 7 19 1z"/><path d="m555 438 15 20q1 5-8 5-7-1-11-6-4-6-3-12 1-7 6-7zm-1 0q-5 1-6 7l3 12q4 5 11 5t7-4z"/><path fill="#fff" d="M575 502c0-7-9-10-14-10q-11 1-17-8-3 7 8 13 7 4 4 8c4 1 15 2 19-3"/><path d="M576 502q-3 4-10 4l-10-1h-1v-1q2-1 1-3-1-3-4-4l-8-6v-8 1q2 4 7 6l10 2q5-1 9 2 6 3 6 8m-1 0q1-4-5-7l-9-3q-4 1-10-1l-7-6 1 5q2 4 7 6l5 5-1 3 10 2q6-1 9-4"/><path fill="#fff" d="M570 460q-11-5-15 4c-4 6-16-4-20 4 5-1 11 5 14 7 8 6 22 7 25-5z"/><path d="m570 459 4 10q-1 9-11 10-8 1-14-5l-2-1q-7-7-12-5h-1v-1q2-3 5-3h7q8 2 9-1 6-9 14-5zm-1 1q-7-5-13 4-3 3-10 2l-7-1q-3 0-4 3 5-2 13 6l1 1q6 5 14 4 9-1 10-9z"/><path fill="#fff" d="M574 469q-10 8-10 15c0 5 6 15 13 17 4-8 6-24-3-32"/><path d="M574 469q6 5 6 16 2 9-3 16-4-1-9-7-4-6-4-10 0-9 10-15m0 0q-10 7-10 15l4 10q5 6 9 7 3-7 3-16 0-10-6-16"/><path fill="#fff" d="M544 499q1-3 6-2 6 3 6 8z"/><path d="M544 499q0-2 2-2h4l5 3q2 3 1 5zm0 0 12 5q1-1-2-3-1-3-4-3l-4-1z"/><path fill="#fff" d="M504 478c0-3 4-7 11-4q10 8 5 12z"/><path d="M504 478q-1-3 3-5t8 1q6 3 7 7t-2 6zm0 0 16 8q3-1 1-5l-6-6q-4-3-8-1-3 1-3 4"/><path fill="#fff" d="M521 487c0-2 4-5 13-1q11 6 10 13z"/><path d="M524 484q4-1 10 1 10 6 10 14v1l-24-13q0-2 4-3m-3 3 23 12q0-9-10-13-6-3-10-1-3 0-3 2"/><path fill="#fff" d="M503 478q5-6-1-12c-7-5-5-13-9-16q-8-4-9-10-3 8 2 12c3 4-2 14 2 18z"/><path d="m503 479-16-9-1-10v-8q-6-6-3-12l1-1v1q0 5 9 10l3 6q2 7 6 10l4 6q1 4-3 7m0-1q3-2 2-6l-3-6q-4-3-6-10l-3-6q-9-4-9-9-3 6 2 11l1 8q-2 8 1 10z"/><path fill="#fff" d="M409 462c-4-7-12-7-16-3q-5 7 0 13z"/><path d="M409 461v2-1l-16 10a9 9 0 0 1-1-13q4-3 9-3 6 1 8 5m-1 1q-2-5-7-5-5-1-8 2t-3 7l3 6z"/><path fill="#fff" d="M430 456c-2-8-10-10-16-9q-8 4-5 15z"/><path d="m430 456-21 6q-3-4-1-10 2-5 6-5 4-2 10 1 5 2 6 8m0 0q-1-6-7-8-4-2-9-1-3 2-5 6t0 8z"/><path fill="#fff" d="M444 457c3-7-3-17-10-20q-12-1-16-9-2 7 7 13c4 4-1 10 6 16z"/><path d="M444 457h-13q-4-3-4-10l-2-6q-9-7-8-13l1-1v1q1 3 5 5l7 3 4 1q5 2 9 9 4 6 1 11m0 0q2-5-1-11-4-7-10-8l-3-1-7-3-5-5q-1 5 7 11l2 7q0 7 4 10z"/><path fill="#fff" d="M443 457c-1-5 2-11 8-10q11 3 7 13z"/><path d="M443 457q-1-4 1-7 3-4 7-3 6 1 7 5 3 3 1 8zm1 0 14 2v-7l-7-4q-4-1-6 2-3 3-1 7"/><path fill="#fff" d="M457 459q0-9 10-8 10 5 5 13z"/><path d="M457 459q-1-4 2-7t8-1 6 6 0 7h-1zm1 0 14 5q3-4 1-7-2-4-6-5-4-2-7 1t-2 6"/><path fill="#fff" d="M471 464q0-10 10-8 10 5 5 13z"/><path d="M471 464q0-4 3-7t7-1 7 6-2 8zm1 0 14 5q3-3 1-7-1-3-6-5-4-2-7 0-3 3-2 7"/><path fill="#fff" d="M365 532c-12-1-14 1-16 14-2 15 18 19 16-14"/><path d="m365 532-2 18q-3 6-7 7t-6-2-2-9q1-10 4-12 3-3 12-2m0 0q-8-1-12 2-3 3-4 12-1 5 2 9 2 3 6 2t6-7 2-18"/><path fill="#fff" d="M370 516c-18-8-27 19-45 13 6 11 21 3 27 4 11 2 31 1 18-17"/><path d="M370 516q4 7 4 11-1 4-5 6-8 3-18 0l-8 1-10 1q-6 0-10-5v-1h12l11-7 11-7q6-2 12 1m0 1q-6-3-12-1l-11 7-10 6q-6 3-12 1 3 4 9 4 3 1 10-1h8q10 2 18-1 4-2 4-5 0-4-4-10"/><path fill="#fff" d="M359 555c-10-4-19 8-17 15 3 8 22 4 17-15"/><path d="M359 555v12a12 12 0 0 1-13 7q-4-1-4-4-2-5 4-12 7-6 13-3m-1 1q-5-4-12 3-5 5-4 11 1 3 4 3 4 1 7-1 9-4 5-16"/><path fill="#fff" d="M317 613q9 0 10 14c-2 10-19 28-36 29-16 1-21 20-35 15 12-3 13-17 23-22-8-2-11 13-21 14-9 0-14 15-26 15-11 0-13 19-36 21-18 3-39 26-47 19 17-6 24-16 34-28 17-19 35-13 42-28q-13 8-25 9c-11 1-23 19-35 14q9-2 19-15c8-8 18-5 27-13 14-14 25-4 39-20q-7-3-19 4c-8 4-17-2-25 3 1-11 20-6 33-14 14-8 25-6 36-5-15 0-21-15-42-10-10 2-17-12-26-4q3-10 20-6c10 5 13-5 33 7 8 5 22-2 31 3q-3-5-12-5c4-8 27-6 38 3"/><path d="M317 612q12 5 10 15-2 9-12 18-12 11-24 11-7 1-17 9l-8 6h-11 1l8-5 5-7q4-8 9-10-3-1-9 6-6 9-11 8-4 0-11 7l-6 6q-4 3-9 2l-6 2-5 6-9 8q-7 5-16 6-7 0-24 11l-14 8q-6 2-10-1h1q9-3 17-10l13-14 4-4a50 50 0 0 1 24-16l10-4 7-7q-12 8-24 8l-14 7-10 7q-7 3-11 0h-1 1q9-3 19-15 4-4 13-7 10-2 14-6a30 30 0 0 1 18-9l11-3 9-8h-7l-11 4q-3 2-12 1l-13 2-1 1v-1q1-5 5-6l11-3q12-2 18-5a42 42 0 0 1 29-6l-9-4-11-5h-15q-4 2-12-3l-7-3q-3-1-7 2v1-1q0-4 6-7 7-2 14 1 4 2 10 1h9l14 6q5 3 15 1 10-1 15 2l-3-4-8-1h-1 1q3-6 16-5 15 1 22 7m0 1q-9-6-22-8-12-1-16 5l8 1 4 4v1q-4-3-16-2-10 1-15-1-8-6-14-6h-9l-10-1q-7-4-14-1-5 1-6 6l7-3 8 4 11 3h15q4 0 11 5l13 5h3v1l-3-1h-16q-9 0-17 6-6 3-18 5l-11 2q-4 2-4 6 4-3 13-2 8 1 12-2l11-4h8v1q-4 6-10 8l-10 3-9 3q-6 2-10 6t-14 7q-9 2-13 7-11 11-18 14 4 2 9-1l11-6q9-7 14-7 13-1 24-10h1v1l-7 8-11 5-11 5-13 10-3 5-13 14q-8 6-18 9 3 3 9 0l13-8q18-10 25-11 9-1 15-5l9-9 6-5 6-2q5 0 8-3l7-5q6-7 11-7 5-1 11-8l5-5 5-2 1 1h-1q-4 2-10 10l-5 8-7 4q4 2 8-1 3 0 9-6 10-8 17-8 12-1 24-11 11-10 11-18 2-10-9-14"/><path fill="#fff" d="M332 602c-8-6-18 0-25-3q-1 9 10 16z"/><path d="m333 602-16 13a18 18 0 0 1-11-16v-1h1l10 1q11-2 16 3m-1 0q-4-3-15-3h-10l2 8q3 6 8 7z"/><path fill="#fff" d="M345 585c-13-6-14 8-24 5q0 8 11 12z"/><path d="m345 585-12 17h-1q-5-1-8-5-3-3-3-7v-1q4 2 10-2l5-4q4-1 9 2m-8-1-6 3q-6 5-10 3l3 7 8 5 12-16z"/><path fill="#fff" d="M352 572c-18-9-20 8-31 4 3 7 17 11 25 10z"/><path d="m352 572-5 14h-1q-6 1-14-2-9-3-11-8 4 2 11-3l8-4q4-1 12 3m-12-2-8 4q-6 4-10 3 1 4 10 7 8 2 14 1l5-13q-6-3-11-2"/><path fill="#fff" d="M376 497c-5-7-14-3-16 5-1 9 2 19 9 18z"/><path d="m377 497-8 23q-5 2-8-5-3-6-1-13 1-6 7-8 6-3 10 3m-1 0q-3-4-9-3-6 2-7 8 0 7 2 13 3 6 7 5z"/><path fill="#fff" d="M389 477c-9-3-18-3-17 5-3 2-4 11 4 15z"/><path d="m389 477-12 20h-1q-6-2-7-8 0-6 3-7-1-6 5-7 4-1 12 2m-1 0q-6-2-11-1-5 0-5 6-2 1-2 7 2 6 6 8z"/><path fill="#fff" d="M394 472c-8-11-17-11-22-8-10 6-18 2-19 9 6-4 11 1 15 1 5-1 8 7 21 6z"/><path d="m394 472-6 8q-7 2-15-4l-6-2-5-1h-10l2-4 5-1 12-4q4-3 10-2 6 3 12 10m-12-9q-6-2-10 1-4 4-12 4l-5 1-1 3h9q3 2 5 1l6 3q8 5 15 3l5-7q-6-7-12-9"/><path fill="#fff" d="M375 615c1 3 8 4 12 1 5-5 0-19-8-22-8-1-9 15-4 21"/><path d="M374 615q-3-4-2-13l2-6q2-2 5-2 6 1 9 10t-1 12-7 2q-5 0-6-3m1 0 5 3 7-2q3-4 0-12-3-7-8-9-2-1-5 1l-2 6q0 9 3 13"/><path fill="#fff" d="M366 615c11 5 15-4 10-11z"/><path d="m366 615 9-10h1q5 6 1 10-3 4-11 1m0 0q7 3 11-1 3-4-1-9z"/><path fill="#fff" d="M324 626c-2 7-13 7-25 27-13 19-24 11-27 24 15-11 26-3 35-15 14-17 24-14 30-26 7-17 39-13 41-41-11-3-45 23-54 31"/><path d="m324 626 26-20q21-13 28-11 0 11-8 18-4 5-15 9l-11 6q-5 4-7 8-3 6-12 11-10 7-18 16l-7 5-9 2q-12 2-19 8h-1v-1l4-7 6-3 8-4q6-4 10-11 7-11 19-19zm0 1-6 6q-12 8-19 20l-9 10-9 5-5 3q-3 2-4 6 7-6 19-7l9-2 7-6q6-9 18-15 9-5 11-11 3-5 8-8 2-3 11-6l15-9q7-7 8-17-7-2-28 11-14 9-26 20"/><path fill="#fff" d="M602 391c14 7 15 25 31 33s17 22 31 20c-13-4-12-18-25-24-15-6-21-29-32-35z"/><path d="M602 391q5 2 8 6l6 9 7 10 10 8 15 12 7 7 7 1q-5-3-11-11-6-10-12-12-5-2-10-8l-8-12q-9-13-15-15l1-1q5 3 14 16l8 11 10 8q7 3 13 13 6 9 12 11h1l-1 1q-6 1-10-2l-7-6q-7-9-15-13l-9-8-7-9-6-9z"/><path fill="#fff" d="M667 496c2 6 2 15-7 18q8 4 16-5-8 21 7 27c-4-9 5-13 2-19 6 3 11 11 11 16 7-8-5-20-3-28z"/><path d="m666 496 26 10q-1 3 2 12l3 8q1 5-2 9h-1v-1q1-3-3-8-3-6-6-7l-2 7q-3 6-1 11v1q-7-2-10-11-2-7 1-15l-6 4q-5 2-8-1h-1 1q6-2 7-8 2-5-1-10m1 0 1 10q-2 6-7 8l7 1q4-2 7-7l1 1q-5 9-2 17 2 7 8 10-2-5 2-11 2-5 1-8l-1-1 1 1q4 2 8 7l3 9q3-3 2-8l-3-8-3-12z"/><path fill="#fff" d="M575 578c-9-9-12 0-16-4q-7-6-11-2c7 2 3 7 18 10-15 0-12 15-22 14 11 11 16-6 24-2-2 0 4 6 0 14 7 0 10-8 11-14z"/><path d="m576 578 3 16q-3 15-11 14h-1q3-4 1-12l-1-2q-2-1-8 2-4 4-7 4-4 0-8-4v-1 1l5-1 3-5 5-6 6-2q-6-1-10-6l-5-4h-1q2-3 5-2l7 4h10q3 0 7 4m-1 0-6-4-5 1q-3 2-5-1l-7-3-4 1 5 3q4 6 13 7v1q-5-1-9 2l-4 6-3 4-5 1q4 5 7 3l6-3q7-4 10-3l1 1h-1v2q3 7 0 12 7 1 10-14z"/><path fill="#fff" d="M385 634c-3-3-11-5-15-3q-6 2 2 3c4 1 9 8 0 8-4 0-3 10-12 10 5 5 14 3 18-1 0 4 4 8 3 12 6 1 2-12 13-11-5 1-3 10 4 9q-5 5 3 6-5 2 0 8c5-6 0-27-16-41"/><path d="M386 634q10 9 15 23 4 14 1 18h-1q-3-2-3-5l2-3-4-2 1-4q-4 0-6-4v-3l1-2-4 2q-2 1-2 5-2 5-6 5v-1q2-2-1-7l-1-5q-3 3-9 4t-9-3q5 0 8-7l4-3 4-1 1-2q-2-4-5-5l-5-1 1-1 1-1h9zm-1 1q-2-3-7-4h-8l-2 1v1l4 1q3 1 5 5v2l-5 1-3 4q-3 6-8 6 3 3 8 3 6-1 9-5v1l2 5 1 7q3 0 4-4l2-5q3-2 7-2v1l-2 1v3q1 5 6 3l1 1q-3 1-2 4l4 2-2 3 2 4q3-4 0-17-6-13-16-22"/><path fill="#fff" d="M769 476c13-1 24-12 24-26s-11-24-24-24q-22 3-25 26 3 23 25 24"/><path d="M769 476q-11 0-18-7t-7-17q1-11 7-18 7-8 18-8a23 23 0 0 1 24 24q0 11-7 18-7 8-17 8m0 0q10-1 17-8 7-8 7-18a23 23 0 0 0-24-24q-10 1-17 8a25 25 0 0 0 0 35q7 7 17 7"/><path fill="#fff" d="M641 501q14-10 27-3c8 7 33 14 46 6 13-9 18-13 24-12q6 9 16 10 4 3 13 3 8 2 17-8 15 0 20-16c9-3 9-12 4-19-6-1-1-18-21-14 8 5 3 15 9 19q-8 0-12 10 2-7-1-9c-1-4-9-13-18-10 6 2 3 11 7 15q-5 1-8 5-6-7-15-8l-1-6q-4-6-3-16-7 8-10 16c-7-4-23 1-31 3-9 1-34-4-40-11q-11-10-29-17c-14-6-15-22-31-36 0 21 30 90 37 98"/><path d="M642 502v-1q-7-7-21-44-17-40-17-54v-1h1l16 20 6 10 9 7q23 9 29 16 4 6 19 9 14 5 21 3l6-2q19-5 25-2l9-15 1-1v1q-1 7 3 16l1 6a24 24 0 0 1 15 8q3-4 8-5l-3-7q0-7-4-7h-1l1-1q6-3 12 2 6 4 6 8l2 5q3-4 10-6-3-3-3-8-1-8-5-11h-1 1q9-2 13 1l5 8 3 5q4 6 4 11-1 6-8 8-2 8-8 12-5 5-11 5-9 9-19 7a19 19 0 0 1-12-3q-10-1-16-10-3-1-8 2l-13 8-3 2q-9 6-25 3-14-3-21-8-6-4-13-3-7 0-13 6m-1-1q6-4 13-6 9-2 14 3 8 6 21 8 16 3 25-2l2-2 13-9 9-2q7 10 16 10l6 3h7q9 2 17-7h1q6 0 11-4t8-12v-1q6-1 7-7 0-5-3-11-3 0-4-5l-4-7q-4-3-12-2 4 3 4 10 1 7 4 9l1 1h-1q-9 0-11 7l-1 2v-2q1-4-2-7 1-3-5-8-5-3-11-2 3 1 4 8 0 6 3 7l-1 1q-5 0-8 4v1-1l-7-5-8-3h-1l-1-6-3-15-9 15h-1q-4-4-24 2l-6 1q-7 1-21-2-15-5-19-9-7-8-29-17-4-1-9-7l-7-10q-7-12-15-19 0 15 16 54 15 36 21 44"/><path fill="#fff" d="M469 637q21 1 23-21c0-13-10-25-23-28q-21-1-24 21 3 22 24 28"/><path d="M469 637q-10-1-17-10-7-7-7-18 0-10 7-16t17-5 17 10 7 18-7 16-17 5m0-1q9 2 16-4t7-16-7-18q-7-7-16-9-10-2-17 4-6 6-6 16t6 18 17 9"/><path fill="#fff" d="M413 610q9 9 16 8c3 7 11 9 15 13 5 5 17 7 21 5q-5-2-12-8c-5-6-3-14-7-18q4-7 3-12 5-2 6-6 10 1 13-3c3 3 10 1 15 6 0-12-10-20-18-17-3-2-10-2-12 0q-6-1-13 3 5-4 3-10 5-2 7-8l13 1q-8-10-20-11-11 1-12 11c-5 3-7 11-5 15q-5 1-6 4l-13-5z"/><path d="M413 610q5 7 16 7v1q2 5 9 9l7 4q3 3 10 5h9l-11-8q-4-3-4-10l-3-8h-1 1l2-6 1-6h-1 1q4-2 6-6 8 0 13-4l6 2q6 1 8 4 0-7-5-13-6-5-12-3l-7-1-5 1h-6l-7 3v-1h1l2-4v-5h-1 1l4-3 2-5h1l7 1h5q-6-9-19-10-10-2-12 10-4 1-5 7v9q-3-1-6 3h-1q-6-4-12-5 6 0 13 4 3-3 5-3l1-8q1-6 4-7 3-11 13-11 14 1 20 11l1 1-1-1h-13l-3 4q-1 3-4 3l1 5-1 3 4-1 6-1 5-1 7 2q6-3 12 3t6 14v1l-1-1q-2-3-8-4l-6-2q-4 4-13 4-1 3-6 6v5l-3 6 3 8q1 7 4 10 7 6 12 8h1-11q-8-1-11-4l-6-5q-8-4-9-9-11 0-17-8z"/><path fill="#fff" d="M409 569q-2-8 1-13 5-13-7-11c-1 4 3 19 6 24"/><path d="M409 568a71 71 0 0 1-5-25q6 0 8 3 2 2-1 9v2q-3 7-1 10m-1-2 1-8 1-2v-9q-1-2-7-2l2 12z"/><path fill="#fff" d="M402 545c3 2 9 4 11-2q2-12-9-9z"/><path d="m402 545 1-4 1-7v-1q5-1 7 1 3 3 2 9 0 4-5 5zm1 0 5 2q4 0 5-4l-2-8q-3-3-7-1l-1 7z"/><path fill="#fff" d="M404 533c3 2 9 5 12-1q4-9-6-11-4 4-6 12"/><path d="M404 534q2-8 5-12h1q5 1 6 4 3 3 1 7-4 6-13 2m0-1q9 5 12-1v-7q-2-3-6-3z"/><path fill="#fff" d="M409 521c1 2 8 10 13 6q9-9-2-16c-2 0-8 6-11 10"/><path d="m409 521 5-7 6-4q6 3 6 8 1 5-3 9-4 3-9 0-4-3-5-6m1 0 4 5q6 3 8 1 4-4 4-9-1-4-6-7-2 0-5 4-4 3-5 6"/><path fill="#fff" d="M420 511c2 5 6 12 15 10s6-14 1-17c-2 0-12 3-16 7"/><path d="m419 510 9-4 7-2h1q3 2 4 9t-5 9-11-3q-4-3-5-8zm1 1 5 7q4 5 10 3 6-1 6-8-1-6-5-9l-7 2z"/><path fill="#fff" d="M437 504c-1 4-1 14 12 16 13 1 9-13 6-16-5-1-14-2-18 0"/><path d="M436 504q6-3 19 0l2 4 1 6q-1 7-9 7-8-2-11-8-2-4-2-9m1 0q-1 5 1 9 3 6 11 7 8 2 8-6v-6l-2-4z"/><path fill="#fff" d="M455 504c-1 4-4 22 20 21 3-1 12-17-20-21"/><path d="M455 504q21 2 23 12v6l-3 3q-15 1-20-8a18 18 0 0 1 0-13m1 1-1 4 1 7q4 10 19 9l3-3v-6q-3-9-22-11"/><path fill="#fff" d="M469 508c-3 3 3 23 20 23 17-1 3-22-20-23"/><path d="M469 508q7 0 15 4l10 7q3 5 2 8-1 4-7 4-11 0-17-10l-4-8zm0 1v4l3 8q7 10 17 10 6-1 7-4l-2-7-10-8z"/><path fill="#fff" d="M483 514c-3 5 1 21 22 25 18 2-2-21-22-25"/><path d="m483 513 15 6 11 10 3 8q-1 3-7 2-14-2-20-12-3-3-3-8zm0 1-1 5 3 8q6 9 20 12 6 1 7-2 0-3-4-8a46 46 0 0 0-25-15"/><path fill="#fff" d="M499 521c-2 3-3 20 21 25 17 4 13-21-21-25"/><path d="M499 521q12 0 20 6 7 3 10 9 3 5 0 9-3 2-9 2-16-4-20-14l-2-8zm0 0-1 4 2 8q5 10 20 13 6 1 9-2v-8l-10-9q-9-4-20-6"/><path fill="#fff" d="M525 532c-3 5-6 18 20 23 17 3 6-18-20-23"/><path d="M524 532q9 2 17 6 6 4 9 9 3 4 2 7-2 2-8 2-18-4-21-12-3-6 0-12m1 1q-4 6-1 11 4 8 21 11 6 1 7-1 2-3-1-7t-10-9z"/><path fill="#fff" d="M547 540c-4 5-1 15 8 19 13 4 14-7 6-14-9-7-14-5-14-5"/><path d="M547 539h4l10 6q7 5 5 11-1 6-11 3-6-2-9-9t0-10zm0 1q-3 4-1 10 3 6 10 9 8 3 10-3 1-5-5-11l-10-5z"/><path fill="#fff" d="M559 544c-3 5-1 17 17 20 4 0 19-13-17-20"/><path d="M558 544q23 4 24 13 0 3-3 5-1 3-4 2-12-1-17-9-3-7-1-11m1 0q-3 5 1 11t16 9l4-2q3-2 2-5-1-9-23-13"/><path fill="#fff" d="M414 758q25 0 28-25c-1-15-13-29-28-32-15-1-27 9-27 25s12 29 27 32"/><path d="M414 758q-12-2-19-11-8-9-9-21 1-12 9-19 7-7 19-6 11 2 20 11 8 10 8 21 0 12-8 19-9 8-20 6m0-1q12 1 19-5 9-7 8-19 1-11-8-21-7-9-19-10-11-1-19 5-8 7-8 19 0 11 8 21 8 9 19 10"/><path fill="#fff" d="m615 379-7 10c-9 27 15 51 29 83 11 25 10 62-8 84-6 8-4 10-12 17q-5 3-5 19 9 0 14 8 6-1 10 2 8-3 16 6 7-1 14 6 5-7 11-5 2-10 12-7c-2-9 5-15 13-12 7-5 19-5 25 3-11-3-11 8-20 7 2 7-4 11-10 13q7-4 9-1c4-3 11-2 13 0q8-2 11 5 10 9 6 22c-2-8-6-8-9-11q-8 3-11-1c-3 2-12 4-17 0q-2 11-13 11c2 6-3 13-7 18 6 4 4 10 3 15 9 2 1 9 17 16-8 2-22-1-25-11q-12-4-13-18-9-11 2-20c-7 1-11-9-21-6-6 1-18-4-19-9-2 3-14 1-16-6-5 2-14-3-14-9-6 1-13-4-13-10q-6-2-5-10-5-4-2-12-3-6 1-13-4-6-2-13c-17-4-38-12-86-34-74-34-93 17-77 53 18 42-2 48 4 78q10 4 10 14 7 2 5 12 6 0 11 5 6-6 15 2 13 3 13 18 7 16-2 27v-13c-1-6-8-8-8-13q-7 0-9-7-4 3-9 1c4 3 8 12 7 18q3 9-1 15-3 11-14 5 6-4 5-10l-4-10c-7 0-16-7-18-10-15-1-27 9-27 25-1-6-8-12-7-17-4-14 1-26 19-26-2-6 5-10 2-16q-5-12-20-30 7-18 1-34c-5-13-10-10-28 8-29 30-68 19-103 41-9 6-18 8-8-2 10-11 36-21 53-28 31-16 58-40 69-91 25-122 115-67 174-35 54 29 44-21 16-55-32-41-26-67-10-87 28 0 80 16 70 25"/><path d="m615 379-7 10q-5 13 1 28l14 28q11 17 14 27a89 89 0 0 1-12 92l-7 10q-4 3-4 5-2 5-2 12 4 0 8 3 5 2 6 6l5-1 5 3q9-3 16 6 9-1 14 6l5-5h6q0-4 3-7 4-3 8-1 0-6 4-10t10-2q4-3 13-3 7 1 12 6l1 1h-8l-4 3q-4 4-9 4 2 7-4 11h4l6-1 6 2q9-3 11 5 6 4 7 10 2 7-1 12v1-1q-1-5-6-8l-3-2q-9 3-11-2l-8 3-8-2-5 7q-4 4-9 3 2 5-1 9l-6 9q7 4 3 15 4 0 6 5l3 5 8 6h1-1q-6 2-15-1t-10-10q-6-2-9-6-4-6-4-12-4-5-4-10 0-6 5-9l-8-4-5-3h-7q-4 1-11-2t-8-6h-8q-7-1-8-6-4 1-9-2-5-4-5-8-4 1-9-2-4-3-4-7-6-2-5-11-3-2-3-5l1-7q-3-6 1-13-4-4-2-13-28-7-86-34-26-12-45-11-17 0-27 11-9 10-10 25t5 28q8 17 8 29 1 9-2 20l-3 13q0 8 2 15l7 6q3 5 2 9 4 1 5 4l1 8q6 0 10 5 1-4 7-3 5 0 8 5 7 0 10 6 3 4 3 12 4 8 3 15 0 8-5 12v1-14l-5-7-3-6-6-2-4-4q-3 2-7 1l5 7q2 6 1 10 2 3 1 8l-2 7q-1 6-5 7t-9-2h-1l1-1q5-2 5-9-4-4-4-10l-11-3-7-6q-12-1-19 5-8 7-8 19h-1l-3-8q-4-7-3-9-4-11 1-18 6-8 17-8-1-3 2-7 3-6 1-9-6-12-20-30v-1q4-6 4-16 0-9-3-16-4-10-9-8-4 1-19 15-10 12-27 18l-31 8-22 5-23 10q-7 5-11 5h-1v-2q0-2 4-5 7-8 37-22l16-7q26-12 42-31 19-23 26-59 16-78 72-76 21 1 50 13l47 24 6 3q19 11 29 9 9-1 9-12 1-10-5-24-6-13-17-27a91 91 0 0 1-23-51q-1-19 12-36v-1h1a165 165 0 0 1 68 18l3 4q2 3-1 4m0 0 1-4-4-3q-6-5-18-8-28-10-49-10-13 17-13 36 1 23 24 51 10 13 16 27t6 24-10 13q-10 2-30-9l-5-3-47-24q-29-13-50-14-55-2-71 76-8 36-27 59-16 20-42 32l-16 7q-30 14-37 21l-4 5v1l1 1 11-5 22-11 23-5q21-4 30-8 16-5 28-17 13-15 19-16 5-1 9 8 3 9 3 17 1 10-3 17 14 17 20 30 1 3-2 9l-1 7q-13 0-17 8-5 7-2 18l3 8 4 7q0-10 8-17 7-8 19-6l7 6q7 4 11 4h1q0 6 3 9v1q1 7-4 10 4 2 8 1 3-2 4-6 3-3 3-7 0-5-2-8v-1q2-3-1-9-2-6-6-8h1q5 2 8-1h1q2 6 9 7h1q-1 2 3 6t4 7v12q4-5 5-11l-3-15q0-7-3-12-4-5-10-6l-8-5q-5 0-7 3v1-1q-4-4-10-4h-1v-9q-2-3-5-3v-1l-2-8q-3-4-8-6a57 57 0 0 1 1-29l3-20q-1-12-8-29-6-13-5-28t10-25q9-11 27-12 19 0 45 11 59 28 86 34h1v1q-3 9 1 13-5 8 0 13l-2 7q0 3 3 5 0 9 5 10h1v1q0 3 4 7 3 3 8 2v-1 1q0 4 5 7t9 2q1 4 8 7 7 2 8-1h1q0 4 7 7t11 1h7l6 4 8 3v1q-6 3-6 9 0 4 5 10 0 6 3 11 4 6 9 6v1q2 6 11 9 7 3 13 2l-8-5-3-6q-2-4-5-5h-1 1q3-11-3-15l5-9 2-9q5 0 8-3 4-3 5-8v-1l1 1q2 3 8 2 6 0 8-3 3 5 11 2l3 3q5 3 6 7 3-5 1-11-3-6-7-9-3-8-11-6l-6-2-6 2h-6l-4 1 4-2q8-4 6-11h-1 1q4 0 9-4l4-4h6q-4-5-11-5-8-1-13 3-6-2-10 1-4 4-3 10v1h-1q-4-2-7 0-4 3-4 7v1h-6l-5 5q-5-7-14-7-8-8-16-6v1-1l-5-2h-6q-1-3-5-6t-8-2q-1-9 1-13l4-6 7-9 5-8q13-16 15-41 2-24-7-43l-14-26q-12-20-15-29-5-15-1-28l4-5z"/><path fill="#fff" d="M713 691c17 0 30-14 30-31s-13-30-30-31c-17 0-30 12-30 29 0 18 13 32 30 33"/><path d="M713 691q-13-1-21-10-9-10-9-23a29 29 0 0 1 30-29q13 0 22 9 8 9 8 22t-8 22-22 9m0-1q12 1 21-8t9-22-9-21-21-10-21 8q-9 9-9 21 0 13 9 22 9 10 21 10M598 378q-4 21-1 35 2 11 10 23t14 29 9 35q6 43-10 70 16-27 10-70a182 182 0 0 0-23-63q-9-13-11-24-3-15 2-35m35 157q7-1 9-9h1q-1 7-10 10zm2-12q1-3 5-6 4-4 4-6v-1l1 1q-1 3-5 6-4 4-4 6zm0-21 4-7 3-8h1q0 4-4 8zm-4-19 2-5q4-6 3-9 1 4-3 9zm-6-20q-1-2 1-5v-6h1q1 2-1 6zm-9-16 1-4v-7h1v7l-1 4zm-8-19q2-3 1-4l1-1q1 3-2 6zm-6-14h1q4-1 3-4h1q0 3-4 4zM426 728q-5-2-10-1-6 2-7 6h-1q3-5 7-6 6-2 11 1m-12 11q0-5 6-6 4 0 7 2h-4l-2 2v4l2 2h1l-1 1-2-3v-4l2-3h2-5q-5 1-6 5m57-134q-3 1-4 6 0 4 4 10h-1q-3-4-3-10 0-5 4-6m6 3-2 6 2 4v-3q1-3 4-3 3 1 3 3 1 3-1 4h-1q3-2 2-4t-3-2-3 2 1 5h-1q-3-1-3-6-1-5 2-7zm247 46q-7-2-11 4-4 7 2 14 0-7 5-11 4-4 11-3-7-1-11 3-4 5-4 12h-1q-6-7-2-15 3-7 11-5zm3 11-3 1-1 3 2 2 3 2 2-2v-2h1l-1 3-2 1-4-1a4 4 0 0 1 0-6zm35-222q2 4 6 6 5 3 10 1h-10q-6-1-7-6zm16 3q-4 0-7-2-3-3-2-6v-1 1l4 2h5q0-1 0 0l-5 1q-3 0-3-2l2 4zM428 618l3-6 2-4q0-4 4-4 5 1 9 6-4-5-9-5-3 0-4 3l-2 4q-3 3-2 6zm15-47-2 1h-2l2-1zm12 22-6-3h-1 1zm-6 6-6 1v-1zm-60 100 1 5 3 5q1 0 0 0l-3-4zm13-6q-3 6-1 10v1l-1-1q-1-5 2-10 2 0 0 0m26 15q-2-2-1-8v-4q-1-4 3-6 3-1 9 3h-1q-5-3-8-2t-3 5v4q-1 6 2 7zm-29-25q5-1 9 1v1h-1zm40-5-2 5v1-1zm15 2q-4 0-6 3v-1q2-3 6-2m-34-98 6 5q4 4 4 7v1-1l-4-7zm30-18q-7-1-9-6v-4l3-1v1l-3 1v2q2 5 9 6zm15 14q-2 1-1 4 1 5 4 6v1q-4-3-5-7-1-3 2-4m-21 54v-6q3-3 6-1l1 1h-1q-3-2-5 1zm13 67q0-5 4-5 4-1 6 4-2-4-6-4-3 1-3 5zm-25 12q0-8 5-8l5 2 4 5v1h-1l-3-5-4-2q-6 0-5 7zm-52-2q0-3 2-5t4-2l1 1h-1l-4 1zm322-119q-2 1-1 5 0 4 6 5-6 0-7-5 0-4 2-6zm-13 12 2 2v1h-1zm41 16h-2l-2 2q-2 4 1 8h1-1q0 1 0 0-3-3-1-8l2-3zm-56 58q-1-5 2-6h6v1h-6q-2 1-2 5m-11-38 8-4h1v1zm-2 20q0-7 4-9h1v1q-4 1-4 8zm16-49a24 24 0 0 0 4 14h-1a25 25 0 0 1-3-14m42 3q-4 1-6 4v-1zq0-1 0 0m-3 14 3-3h1l-1 1zm67-158q0 4-4 6t-7-1q4 2 7 0 3-1 3-5zm13-1h7l2-3 1-3v4l-3 2q-4 3-7 1zm-12 31-6-4-1-1h1q3 4 7 4zm20-17h-7v-1zm-50 20 9-2zm-5-31-6 1zm35 7-4 8zm-42 9q3 0 7 4 3 4 6 4h8q-5 3-9 1l-6-5q-4-4-5-3zm22-8-2 8h-1q0-5 3-8m-211-40 4-1h1q-1 2-5 2zM372 580q10 7 7 17 3-10-7-16zm242-150 5 1h6v1h-6zm16 6v1q-1 11-5 13v-1q4-2 4-12zm-3 12 8 1q6-1 8-7v1q-1 5-7 6-4 2-9-1m10 1 2 7q-1 6-6 7 4-3 5-7zm2 6q4 2 10 1t5-8q1 7-5 9l-11-2zm11 1 11 7h5v-5h1q1 4-1 5h-5q-8-1-11-7m-14 13q5 2 9-1 4-4 2-11 3 8-2 11-4 3-9 2zm28-5 3 3 7 2h6q3-2 1-5h1q1 4-2 5l-6 1-7-3zm14 5 5 5 7 2q4-1 5-3v-6q3 4 1 7l-6 2-7-1zm14 7 5 2 6-1 4-3q1-3-1-7v-1l2 8-5 4h-6q-4 0-5-2m14 0q4 3 8 3l6-2q2-3 1-6t-6-7h1q5 3 6 7 1 3-2 6l-6 3q-4 0-8-4m16-2q3 3 7 2l6-3 2-5-2-4q3 1 3 4l-3 6-6 3q-4 0-7-3m-75-8h6q3 0 4-4h1q-2 4-5 5zm8 0q0 6 7 7 7 3 9-4h1q-3 7-10 5l-5-3q-2-2-2-5m12 8q2 4 8 5 7 0 8-4h1q-2 6-9 4-6 0-8-5m15 4q1 4 6 4 6 0 8-4h1q-2 4-9 5-6-1-7-5zm11 4q2 5 9 5 8-1 9-8h1q-3 8-10 8-7 1-10-5zm17 1q4 3 9 2 6-2 5-9h1q1 8-6 9-4 2-10-1zm13 0q6 5 11 1t1-11h1q4 8-2 12-5 3-12-2zm12 8q3 0 4-4 1-5-2-6v-1q3 2 2 7 0 4-4 5zm-94-4q6-3 7-8 2-5-3-11h1q5 6 3 11-1 6-8 9zm8-7q3 3 9 1 6-1 7-7h1q-1 6-8 8-6 2-10-1zm7 2q5 7-1 14v-1q6-6 0-13zm2 5 7-1 6 3 3 6q0 3-3 5h-1q3-2 3-5l-2-5-6-3q-3-2-7 1zm11 0 3-2 3-6-2 6zm4 5 6-1 9 4q4 2 4 5 0 4-5 6h-1q6-3 6-6l-5-5-8-3zm12-11q5 3 5 7 1 5-5 6v-1q6-1 5-5-1-5-5-6zm7 19q4-5 13-2l5 3q2 3-1 5l1-4q-2-3-5-3-9-3-13 1m12-2 5-5h7q4 0 5 2l1 2-1 2h-1l2-2-1-1-5-3-6 1q-4 1-5 4zm-3-11v5q0 4-3 6v-1l3-5zm16-2q2 5-1 8h-1q3-4 1-7zm12 1q3 6-1 9h-1q4-4 1-9zm-151-96q1 9 4 12 4 4 13 1-9 3-14-1-3-3-3-12m4 13-2 6 2 5q6 6 14 0-9 6-14 1l-3-6zm-20 1q3 5 7 6h7l4-6q0-4-4-10h1l3 10q0 4-3 6h-8zm26 13q-1 7 3 9 5 2 9 0h1q-6 3-10 1-4-3-4-10zm-34-12q1 7 7 13 7 5 14 1v1q-7 4-14-2-6-4-8-13zm12 15q0 5 3 9l7 4 7-1q5-3 6-7-2 5-5 7-4 3-8 2-5-1-8-5-3-3-3-9zm16 13q4 9 13 9 7 0 11-6-3 6-11 7-9 0-13-10m-13-23q2 6 6 9 5 4 12 2h1q-9 3-13-1-4-3-7-10zm-35-8q1 5 7 8 7 3 14-1v1q-7 3-14 0-6-3-8-8zm6 8-1 5 3 5q8 3 17-4-9 9-17 4l-4-5q-1-3 2-6zm7 11q2 12 6 14 5 4 17-5v1q-11 8-17 5-4-4-7-15zm15 14q6 7 11 9 6 1 12-6l1 1q-6 8-13 6-6-1-11-9zm30 7 1 10 7 4q7 1 13-8l1 1q-6 8-14 7-6 0-7-4-2-3-1-10m7 14q0 8 6 12t16-2v1q-10 6-17 2-5-4-6-13zm6 13q-2 6 4 12 7 7 18 4v1q-11 3-18-4t-4-13m-35-25q0 7 5 10 7 3 17-4v1q-10 7-17 4-6-3-5-11m7 12q1 7 7 10 7 5 15-4l1 1q-9 8-17 4-6-4-6-11m7 11q-1 10 6 13 8 3 15-3-7 7-15 4-7-4-7-14zm-20-13q4 0 7-4v1q-3 3-7 3m6 10h5l3-3h1l-4 4h-5zm7 18q1 2 7 2 4-1 6-4v1q0 3-6 3-5 1-8-2zm10 1q4 10 13 11 8 0 12-10h1q-6 10-13 10-9 0-13-11m23 6q4 14 20 12-16 2-21-12zm5 8-2 8 3 6q5 5 14-2l1 1q-10 7-16 1l-2-6zm4 16q-2 4 3 10 4 5 9 6v1q-6-1-10-7zm-26-22q-2 10 4 16 7 5 16 0v1q-9 4-16-1-6-6-5-16zm-16 5q6 5 15 2v1q-9 3-15-3m22 12 1 8q1 4 4 6 7 5 15-4-7 10-15 4-3-2-5-6zm-17-10q1 6 5 10 5 4 12 4-7 0-13-4-4-4-4-10m46 30q-6 4-6 9 1 6 7 10-7-4-7-10t5-9zm-17-5q0 12 11 14-11-2-12-14zm-11-4-4 6q0 4 2 6 2 3 6 3t8-3l1 1q-5 3-9 2-4 0-7-3l-2-6q1-4 5-7zm8 15v7q1 4 4 5 7 5 12-4v1q-2 4-6 5l-6-1a11 11 0 0 1-5-13zm-22-27q-3 9 0 13 3 6 10 6v1q-7-1-10-6-3-6-1-14zm-14-4q0 4 4 7 3 3 8 2v1l-8-2q-4-3-5-8zm4 8q-3 6 1 10 3 3 11 2-7 2-12-2-4-4-1-11zm41 37v7q1 3 8 5l-1 1q-6-2-8-6zm0 8q-7 3-8 9-1 7 5 12v1q-6-6-6-13 2-6 9-9m-8-12q-5 3-3 8 0 6 4 9-5-3-5-9 0-5 4-9zm-46-39-3 5 2 7 5 4q4 1 8-1h1q-5 3-9 2l-5-5q-2-3-2-7zm34 26q-6 4-3 11 2 6 12 5v1q-10 1-13-6t4-12zm-13-8q-3 9-1 13 3 4 10 5v1q-7-1-10-6-3-4 0-13zm-30-20q-5 3-5 8t3 8q1 3 6 3 3 0 4-4l1 1q-2 3-5 3-4 1-7-2l-3-9q1-5 6-9zm-15-7q-6 7-2 14 4 8 13 6v1q-9 1-13-6-5-9 1-16zm43 38q-6 2-10 6-3 4 1 9 2 5 9 3 7-1 10-11v1q-2 9-10 11-7 2-10-3t0-11q3-4 10-6zm-15-12q-3 4-2 9t8 8l-1 1-8-9q-1-4 3-10zm0 13q-8 3-8 11-2-8 7-12zm-12-13q-2 12 6 17h-1q-8-5-5-17m0 10q-6-1-9 1v8h-1q-2-5 1-8 2-3 9-1m-9 1q-6-3-7-8-1-6 1-10h1l-2 10zm-7-7q-11-2-11 8h-1q0-10 12-9zm-11-36q-4 2-6 6v9l6 4h8q-3 2-8 1-4-1-6-5v-9q1-5 6-6m-17-9q-4 4 0 11 3 7 11 6v1q-7 0-12-7-4-7 1-12zm-14-8q-4 6 0 13 4 6 13 6-9 2-14-6-4-7 0-13zm14 54q-1-7 5-9 6-1 14 9-8-9-14-8-5 1-5 8m14-19q-6 4-4 11h-1q-1-7 4-11zm-43-41q-5 7 0 13 4 5 14 4v1q-10 1-14-5-5-6 0-13m33 30q-6 6-5 11 0 6 5 10v1q-5-6-6-11 0-6 5-11zm-6 9q-9-1-10 7 0 7 7 12-8-4-7-13 1-7 10-6m-9-16q-4 3-4 8 0 6 6 9v1q-7-4-7-10t5-9zm-1 22q-4-3-7-1-4 2-3 6h-1q0-5 3-7 4-1 8 2m-8-1q-3-9-11-9-3-1-4 2l-2 6q-1-4 1-7l5-2q8 0 12 10zm4-14q-8 1-11 6v-1q3-5 11-5m-10-14q-3 3-2 9l5 7q-4-2-6-7-1-6 3-10zm-17-21 2 8q3 4 10 4v1q-7-1-10-4-3-4-2-9m4 10q-3 7 0 10 3 4 10 4v1q-7-1-10-4-3-4-1-11zm2 12q-4 4-2 10l5 8q-5-3-6-8-1-6 2-10zm-3 9q-7-2-9 4-2 4 1 10h-1q-2-5 0-11t9-4zm-8-33q-4 2-7 6-2 5 1 8 2 4 6 4 4 1 7-1v1l-7 1q-4 0-7-4v-9q2-4 7-6m-4 17q-3 5-2 10l7 7h-1q-4-3-6-7-2-6 1-10zm-20-21q-3 3-1 8 3 5 9 6 6 0 9-3 2-4 0-8l1-1q2 5-1 9t-9 3q-7-2-9-6-3-5 1-9zm7 14q-3 6 0 10 3 5 11 5-9 0-12-5-2-4 1-10m16 28q-7-4-11-2-5 2-2 8h-1q-3-6 3-9 4-1 11 2zm-14-15-2 6 3 8q-3-3-3-8-1-4 1-7zm-1 11-6 2q-3 3 0 8h-1q-2-5 1-8 2-3 6-2m-7 4h-9q-4 3-1 8-3-5 1-8 3-3 9 0m-11 2q-4-2-7 2-3 3 1 7l-1 1q-4-5 0-9 3-3 7-2zm-9 5q-4 0-6 3-3 4 1 7h-1q-3-3-1-7 3-3 7-4zm25-25q-4 2-6 6 0 6 2 10h-1q-2-4-1-10 1-4 6-7zm-7-16q-8 1-8 10 1 8 9 12v1q-9-4-9-13 0-8 8-11zm-4 19q-5 3-5 7-1 4 2 8h-1q-2-4-2-9 2-5 6-6m-11-27q-2 1-2 3v5q2 6 9 7v1q-7-1-9-8l-1-6zm-12 3-2 5 2 6 6 3q5 1 10-2-4 3-10 3l-6-4-3-6q0-4 3-5m9 15v8q3 5 9 6-7-1-9-6-2-3-1-9zm0 8q-3 0-4 3l-1 5q1 7 9 9v1q-9-1-9-10-1-3 1-6zm-21-16q-3 3-3 5l4 4 6 1 5-5h1q-3 4-6 5t-7-1-3-4 2-5zm-12 12v5l4 4q3 1 6-1 4-3 6-10h1l-6 11h-7l-5-4zm18-2q1 9 10 10v1q-10-2-10-11m10 16q-7 0-9 7t7 10q-8-3-8-10 2-7 10-8zm-19-5q0 4 3 7t7 3q-4 0-7-3-5-3-3-7m16 22q-7 0-8 7l1 4 4 2v1l-4-3q-2-2-1-4 0-7 8-8zm-7 25q-6-3-6-9 0-5 5-8v1q-5 2-5 7 1 6 6 8zm-6-10q-4 2-4 8t3 7l4 1q3-1 2-3h1q0 3-2 3h-5l-4-8q0-6 4-8zm5 27q1 2-2 2l-5-1q-3-2-3-6l2-8h1l-3 8 3 5 5 1zm-7 0q-5 6 0 10l4 2q2 0 5-3v1l-5 3-4-2q-6-5-1-12zm1 11q-2 6 2 8 5 4 9 0l1 1q-5 3-10 0-5-4-3-9zm-20-72 1 4 5 2q7 1 8-9 0 10-8 10l-5-2q-3-2-1-5m-4 10q-1 4 2 7 3 2 6 1 4 0 6-3 2-4 0-10h1v10l-7 4q-4 0-7-2-3-3-1-7m15 3 8 2q5-2 8-8-1 7-8 8-5 2-8-1zm9 2 6 9v1l-4-4zm-12 2q0 5 4 9t10 5q-6 0-11-4-4-4-3-10m2 7q-4 4-3 10t9 7v1q-8-2-9-8t2-10zm-19 0 1 4 4 3q6 1 11-3-4 6-11 3l-5-3zm-3 14q-1 2 1 3l3 1q7 1 10-11h1q-4 12-11 12l-4-2zm10 2q3 4 7 5 5 2 9-4-4 6-9 5-5-2-7-6m8 6q-2 4 2 8 3 3 8 3v1q-4 0-9-4-3-4-2-9zm-13-3q-2 6 4 10 6 3 10 1h1q-5 3-11-1t-5-11zm-7 3q-2 8 5 11l6 1q3 0 5-3h1l-6 4a11 11 0 0 1-11-6zm13 12q1 5 6 8 7 3 12 0v1q-5 3-12 0-6-4-6-9m-17 3q-1 2 1 2l4 1q6 1 7-6-1 7-7 7l-4-1q-2-1-2-3zm6 4q3 6 8 6 6 2 10-4-4 6-10 5-5-1-8-7m15 5q2 6 6 8 6 3 11 0-5 3-11 0-6-2-7-8zm21 11q-1 7 3 12 5 4 9 1l1 1q-5 3-10-2-6-5-4-12zm-15-3q-3 7 4 11 6 4 12 1-6 4-12 0-7-5-5-12zm-15-7q0 7 4 11 4 3 10 1v1q-6 2-11-2-4-4-4-11zm-16-1 1 4 4 4q7 3 11 0h1q-5 3-12 0l-5-3zm-8 16q2 4 9 1 6-2 7-8-1 6-7 9-7 2-9-2m13-1q3 5 9 5 6 1 9-6-3 7-9 7-6-1-10-6zm15 4q-1 3 2 5l5 4q7 2 10-8v1q-3 9-10 7l-6-3zm33 6 1 7 7 5q-4-1-7-5-2-4-1-7m-11-3 3 6q4 4 9 3-5 1-9-2-5-4-3-8zm13 11v7q2 4 6 5-5 0-6-5zm1 9q-3 3-2 6 1 5 6 5v1q-6-1-7-5-1-5 2-8zm-3 6q-5 3-3 8 1 6 8 6v1q-7-1-9-6 0-7 4-9m-19-21q0 6 6 8t7-5l1 1q-3 6-8 5-7-2-7-10zm9 9q-1 4 2 7 2 5 8 3v1q-5 0-9-3-3-4-1-9zm2 69 1 1 3-1q2-1 2-4-2-3-5-3-3 1-3 4-1-3 3-4 3-1 5 3 1 3-2 5l-3 1zm4-6q0-6-4-7t-6 3h-1q3-6 7-4 6 3 4 8m-7-8v-2l-2-3q-4-2-6 1h-1q3-4 7-1l2 2zm-6-6v-4l-3-2h-2l-2 2h-1l2-3 4 1 2 2zm-9-12 2-1 3 1q2 0 3 2l-1 4h-1l1-4-2-2-3-1zm14 14q3-3-1-6-2-4-5-3h-1q4-3 7 2 3 4 0 7m26 15-4 1v7l5 4q4 1 4-1h1q-1 2-5 2-4-2-5-5v-7zm-5 2h-5q-3 3-1 7 2 3 5 3 3 1 4-2v1l-4 2q-3 0-5-4t1-7 6 0zm-16 7q1 2 5 2t5-2q0 2-5 3-4-1-5-3m5-8h3l2 2-2-2zm0-44q-5 1-2 7 1 5 7 4v1q-5 0-8-5-2-6 2-8zm-2 8q-3 2-1 7 3 5 8 3-6 3-8-3-3-5 1-8zm1 10v6q3 3 7 3v1q-5 0-7-4-3-4 0-7zm-1 3h-4l-3 2h-1l4-3zm-4-37q-3 3-2 7t7 6q-6-1-7-6-2-4 1-7zm-2 8q-5 1-3 7 1 7 9 8-9-1-10-7 0-7 4-8m0 13q-3 2-1 6 1 6 7 5v1q-6-1-8-6-2-4 1-7zm2 11-1 2 1 3-1-3zm-3-4h-5l-3 4v-1l3-3 5-1zm-13-8q1-3 5-1 5 3 6 8h-1q0-5-5-7-4-2-5 1zm11-2q-3 0-4 3 1-3 4-4zm-3-27q-4 2-3 8t8 9q-7-2-9-9 0-5 3-9zm-8 22q0-3 4-4 4 0 7 4h-1q-2-3-6-3t-4 3m-5-17 4 3 6 1h-6zm-28-21 2 7q3 3 7 3 5 0 6-3l-1-5 1-1v6q-1 4-6 4-4 0-7-4-3-3-3-7zm10 11v7q3 3 5 3h1q-5 2-6-3-3-4 0-8zm5-4h6l6 3v1q-2-3-6-3zm-25 0h1l4 2q6 1 8-2-2 4-8 2l-4-1zm10 3q-1 5 1 6 3 3 9 2v1q-7 1-9-2t-2-7zm11 14v-2l-3-2q-4-2-7 1-4 4-1 7l2 3h3-3l-3-2q-2-5 2-8 3-4 7-2l3 3zm-23-14v4l3 4q6 3 10-2v1q-4 5-10 1-3-1-3-4zm-7 8q-3 3 0 6 2 4 6 3t4-5v-4l1 4q-1 4-5 5-4 2-7-3-2-3 1-7zm-7 7q-2 1-1 5l5 4 4-2q2-2 1-5h1l-1 5q-2 3-5 2-3 0-5-4t1-6zm17 0q0 3 3 5t6-1q-3 3-6 1-4-2-4-5zm9-4-1-2v-1q3 1 1 4zm-32 9-1 2 2 3 3 1q3 0 4-3v1l-4 2-4-1-2-3zm26 0v4q2 3 5 2v1q-3 1-5-2-3-4 0-5m-12 3q1 3 5 4t7-2h1q-4 4-9 3-4-2-4-5m4 4 1 4q1 2 3 2v1q-3 0-4-3zm70 30q-2 4 3 7 5 4 9 0-5 4-9 1-3-1-3-4zm6 9v5l3 4-3-4zm-8 5 3-3h5v1l-5-1zm-5-8 3-3h4-1l-3 1zm208-82q-5 0-6 3-2 2-1 6l3 6q4 3 7 2-4 2-7-1l-4-7 1-7q2-2 7-2m-4 15q-2 3 1 6 2 3 6 1v1q-3 2-7-1-3-4-1-7zm6 8v5l4 5 5 1q4 0 5-3h1q-2 4-5 4l-6-2q-4-2-4-5zm11 11q-1 3 2 4l6 3 5-1 1-6q1 5-1 6l-5 1-6-2q-3-2-3-5zm13 6q3 6 10 6l5-1q3-2 2-6 1 4-1 6l-6 2q-7-1-11-7zm14 6q3 4 10 5l5-1q2-1 2-5 1 4-2 6l-5 1q-7-1-11-6zm-60-66q2 4 6 6h11v1q-6 2-11-1-4-1-7-6zm-5 3 2 4-2 6-4 3-6-2q3 2 5 1 3 0 5-3l1-5zm0 9q4 3 8 2 5-2 6-7-1 6-6 7-3 1-8-1zm11 1q1 3 4 5 4 3 10 2-6 1-10-2-4-2-5-5zm-14 2 3 6-2 5-4 3q-2 1-5-2h1l3 2 4-3q4-5 0-11m3 5q3 3 7 2 5-1 5-6h1q-1 5-6 6-4 1-7-2m9 1q1 6 9 7v1q-9-1-9-8m-11 5q2 4 8 5 5 1 8-3-2 4-8 4-5-1-8-6m12 5q0 4 3 6 4 3 8 3v1q-5 0-8-3t-3-7m-19 8q4 2 6-2t-1-9l1-1q3 6 0 10-2 5-6 3zm5 10q4 2 5-4 0-4-4-8h1q3 4 3 9 0 4-5 4zm13 10 2-2-1-4q-1-6-9-7v-1q7 3 10 8v4zm14 9 1-2-1-4q-4-6-12-7 9 0 13 6l1 5q0 2-2 3zm16 6v-4l-3-4q-5-3-11-2h-1q6-3 12 2l4 4zm9 7q2 2 3-1l1-4q-1-6-12-6 11 0 12 6 1 3-1 5zm10 1 3-1 1-3q-1-2-3-2l-7-1h7l3 3-1 3zm10 2h3v-3q0-3-2-3l-7-1v-1l7 1 3 4-1 3zm-71-47q5 2 9 1 4-2 4-7 1 6-4 7-4 2-9-1m11 0q2 3 1 6 0 4-3 5v-1l3-4zm1 7 5 1q3-1 5-5h1q-2 5-5 5zm6 1 1 5q0 4-2 5l1-5zm1 4q3 3 5 1l5-4-4 5zm8 0 3 7q1 6-3 7 3-2 2-7 0-4-3-6zm3 10q8 1 11-2-3 5-11 3zm9 0q3 1 4 4 3 4 1 7l-1-7zm5 9 6-1q4-2 5-5v1l-4 4zm10-3q4 3 4 10 1-6-5-10zm4 6q6 0 7-4-1 6-7 5zm6-2q6 3 6 8-1-5-6-8m5 5q4 0 6-3h1q-3 4-6 4zm13-3q3 3 0 8-2 6-8 4l1-1q4 2 7-3zm-67-226-7 1-7-2q-4-2-5-5l2-9h1q-3 5-2 9 0 3 4 5l7 2zm1-10h-9l-8-4q-3-4-2-7 1-4 7-7l-7 7 2 6 8 4zm-16-22-7 2-4 6q-2 9 7 15v1q-5-4-7-8t-1-8 4-6q4-3 8-2m-42 1v4l3 4q6 3 11 0 3-2 4-9l-2-11q3 4 2 11 0 7-4 10-5 3-11-1l-3-3zm-5 13q-1 4 2 7l7 2q4 0 7-3t2-10q1 7-2 11-3 3-7 3-5 0-8-3t-2-7zm-2 17 4 5 8 1 6-4q2-5-1-11 3 6 1 11-1 3-6 5l-8-1q-4-2-4-6m20-14q6 8 16 9-10 0-16-9m4-12q1 3 5 4l8 1h-9zM316 610l-2 3 2 3 3 1q3-1 3-3h1q-1 3-4 3-2 1-3-1-2 0-2-3zm-5 3-1 3 1 3 4 1 3-3-3 3h-4l-2-4zm-5 3-1 3 1 3 4 1 3-3-3 4-4-1-2-4zm-5 3-2 3 1 2q4 3 8-1-4 6-8 2l-2-3q1-3 3-3m-6 3-2 2 1 3q4 3 8-1-4 5-8 2l-1-4zm30-8q0 4 4 4 5 0 7-4l1 1q-2 4-8 4-4-1-5-5zm5 5q-2 2 1 4 1 2 4 2-2 2-5-1zm-11-2q0 3 4 4t6-1h1q-3 3-7 2-5-2-5-5zm4 5q-2 1 1 4 1 3 4 2-3 1-5-2-2-2 0-5zm-9-2q0 2 3 5h6v1q-3 1-6-1t-3-5m3 5-1 3q0 2 2 3v1l-3-4zm-9-1q-1 3 2 4 3 3 6 1-3 2-6 0-4-2-3-5zm1 3-2 4q0 2 3 2l-1 1-3-3zm-7 0 1 2q1 3 4 2v1l-4-2zm-15-1-1 2 2 2q4 2 7-2h1q-4 6-8 2l-2-2zm-7 3-1 2 2 2 4 1 3-4 1 1q-1 3-4 3h-4l-2-3zm22 0-2 3v4l-1-4zm-8 1 1 3 4 1q-1 1-4-1zm-3 1-1 4q2 2 3 1v1q-3 1-3-2-1-3 1-4m-9 3-1 3q2 2 3 1l1 1q-3 0-4-2-2-1 1-3m5 0h2l1 1zl-2-1zm-14-2-1 2v2q2 3 9 1-7 3-9-1l-1-2zm-7 3-2 2 1 2q1 1 8-2v1q-7 4-9 1v-2zm8 3-1 2v1h3l-3 1-1-2zm-8 2-1 2 4 1v1l-4-1q-2-3 1-4zm-9 0 2 1q4 0 7-3v1q-3 3-7 3l-2-1v-2zm2 3-1 3h3v1h-2l-1-1q-1-3 1-4zm-9 1-1 1 2 1 7-1q-4 3-8 2l-1-1zm3 3-2 2 3 1v1l-3-1q-1-2 1-4zm-8 1-1 1 1 1h6l-6 1-1-1zm0 3-2 3 1 1h2l-3 1-1-2zm156 24 1 2 5 2 4-2-1-4 1-1v5q-1 3-4 2l-5-1q-2-1-1-4zm10 2q3 2 5 1 3-1 3-4h1q0 3-3 5-4 1-6-2"/><path fill="#fff" d="M605 323c-14-9-43-26-52-16 8-2 30 4 48 24z"/><path d="m605 323-3 7h-1q-12-14-28-20-13-6-20-4h-1l1-1q9-10 52 17m0 1q-41-26-51-18 7-1 19 4 16 7 28 20z"/><path fill="#fff" d="M613 324c-16-21-25-19-37-27-11-8-28-11-32-2 16-5 31 8 40 11 12 4 19 15 23 20z"/><path d="m614 324-7 2-1-1q-10-15-22-18l-9-5-15-7h-17 1q3-7 13-6 10 2 19 8l11 6 12 6q8 5 15 15m-1 0-14-15-12-6-11-6q-9-6-19-7-11-1-12 4 7-2 16 1l14 7 9 4q12 4 22 19l1 1z"/><path fill="#fff" d="M675 327c-9-20-26-17-35-26-12-13-40-28-53-21 27 2 38 23 53 32 10 6 21 18 35 15"/><path d="M675 327q-7 1-15-3l-13-8-8-5-13-11-16-13q-11-7-23-8h-1l1-1q9-5 27 4 17 8 27 18l11 7 13 6q7 4 10 13m-1 0q-3-8-10-13l-12-6q-9-3-12-7-9-10-26-18-18-8-26-3 12 1 22 7l17 14 20 16 13 8q8 3 14 2"/><path fill="#fff" d="M643 322c-15-20-36-38-47-33 14 2 18 12 27 19 10 8 6 16 20 14"/><path d="M643 322q-6 0-9-2-2 0-4-5l-7-8-8-7-8-8-11-4h-1l1-1q7-3 22 8 14 11 25 26m0 0q-12-15-25-26-13-9-21-8l10 5 9 7 8 8 6 8 4 5z"/><path fill="#fff" d="M574 347c-15-8-44-16-58 0 23 7 57 10 58 0"/><path d="M575 346q-1 7-22 7-18-1-37-7 9-10 29-9 15 1 30 8m-1 1q-14-7-29-9-19-2-28 9 18 6 36 6 20 0 21-6"/><path fill="#fff" d="M572 353c-16-9-27-1-42-5-27-7-46-8-48 5 15-11 41 4 52 3 10-1 49 7 62 14q-11-12-24-17"/><path d="m572 353 5 2q13 8 19 14l-1 1q-9-6-31-10-22-5-30-4l-15-3-20-4q-11 0-17 4l-1 1v-1q2-9 16-10 11-1 34 5l16 1 12-1q7 1 13 5m0 0-12-4h-29q-22-6-33-5-13 0-15 8 7-4 17-4l20 5q10 3 15 2l30 4q21 5 31 10-6-7-18-13z"/><path fill="#fff" d="M619 318c-3-13-3-25 14-22-4-6-20-11-23 10-19-17-40-23-44-11q15-11 44 25z"/><path d="m619 318-9 2h-1q-13-17-25-24-10-6-18-1l-1 1 1-1q3-9 16-6 13 4 28 16 2-13 11-15a15 15 0 0 1 12 6h1-1q-11-2-14 5-3 6 0 17m-1-17q3-7 15-6l-5-3-7-1q-8 1-11 15-15-13-28-16-12-3-15 4 7-4 18 2 10 6 25 24 3-2 9-2-3-11-1-17"/><path fill="#fff" d="M593 331c-11-9-26-22 0-24-11-7-27-7-26 14-29-16-50-15-55-4-4 13 13 23 17 15-4 0-15-5-9-12 6-6 36 4 66 24 8 5 35 8 7-13"/><path d="M593 331q11 8 12 11l1 4-3 2-9-1-8-3q-22-15-42-21-20-8-24-2-2 2-1 4l2 4q4 3 8 3v-1 1q-1 3-5 3l-7-3-5-6v-9q4-9 18-9 16 1 37 13-1-14 8-18 8-2 18 4l1 1h-1q-9 0-12 3-3 2-2 5 3 6 14 15m-1 0q-11-9-13-15-2-3 1-6l12-3q-9-6-16-3-10 3-8 17v1h-1q-21-12-37-13-13 0-18 8-2 4 1 9 1 3 5 6l6 2q3 1 4-2-3 1-7-3-3-1-3-4l2-5q5-5 24 2 20 7 42 21a27 27 0 0 0 17 4l2-2v-2z"/><path fill="#fff" d="M585 350c-9-19-35-7-41-25-7 24 38 17 41 25"/><path d="m585 350-15-4q-14-2-20-5-10-5-6-15v-1 1q2 6 7 9l12 3 13 3a19 19 0 0 1 9 10m-1-2-8-7-13-4-12-3q-5-3-7-8-3 10 6 14l20 5z"/><path fill="#fff" d="M759 381c6 2 10-2 2-6 6 3 10-1 2-5 6 2 10-1 2-5-3 3-6 11-6 16"/><path d="m758 381 3-9 3-7h1l4 2v3q-1 2-3 1l1 2v2l-3 2 1 1v2q-2 3-6 1zm6-11h5v-2l-4-3-4 7-2 9q4 2 6-1v-2l-3-2h-1v-1l1 1 5-1v-2zl-1-1z"/><path fill="#fff" d="M762 347c12-15-1-18 14-33 13-13 3-19 15-29 4-4 12-10 13-16 4 13-16 16-15 37 1 13-7 13-11 35-1 5-4 15-16 6"/><path d="m762 347 5-9 1-7 1-8 7-10q5-3 6-8l1-7 2-7 5-7h1q12-10 12-15v-1l1 1v8l-5 7-7 9q-3 6-3 13 1 6-3 14-6 11-8 21-1 6-4 9-4 3-12-3m0 0q8 6 12 2 3-2 4-8 1-12 7-21 4-8 4-14 0-7 3-13l6-9 5-7 1-7q-1 5-12 14l-1 1q-4 3-6 7l-1 6-2 7-6 9-7 10-1 7-1 7q-1 5-5 9"/><path fill="#fff" d="M767 353c8-16 15-16 19-23 8-11 23 0 37-11-3 14-20 11-28 21s-14 15-28 13"/><path d="M767 353q5-11 14-17l5-6q3-4 7-5l10-1 10-1q5 0 9-5h1v1q-1 5-5 9l-10 5q-10 4-13 7-6 9-12 11-6 3-16 2m1-1q9 2 15-1 5-3 12-11 3-4 13-8l9-4q4-4 5-9-4 4-9 5l-10 1h-10q-4 2-6 6l-6 5q-9 7-13 16"/><path fill="#fff" d="M769 358c13-11 21-5 30-11 22-15 30-1 49-10-5 14-33 7-45 17-13 11-56 22-34 4"/><path d="m779 352 9-2 11-3q8-6 16-7h12q14 2 21-3h1q-2 6-9 8l-14 3q-18 1-23 7l-14 7q-9 4-16 5-9 2-10-1v-3l6-6zm-10 6-5 5v3q1 2 9 1a82 82 0 0 0 29-13q6-4 24-7l14-3q6-2 8-6-8 3-21 2h-12l-16 7q-3 3-11 4l-9 1z"/><path fill="#fff" d="M733 430q0-11-13-14c-7-2-10-9-16-10-5-1-9-12-17-12s-11 9 7 20c19 10 38 21 39 16"/><path d="m734 430-2 2h-2l-8-3-24-13-4-2q-12-7-13-14l1-5 5-2 10 7q5 6 7 6l7 4 9 6q6 0 10 5zm-1 0q0-4-4-9-3-4-9-5l-9-5-7-5q-3 0-7-5-6-7-10-7l-4 1-2 5q1 6 13 14l4 2 32 15h2z"/><path fill="#fff" d="M710 435c-7 0-8 11-16 11 11 6 18-1 23-9z"/><path d="m710 434 7 3h-1q-11 16-23 9h-1 1q4 0 8-6 5-6 8-6m0 1q-3 0-8 6-3 5-7 5 7 3 12 0 4-1 10-9z"/><path fill="#fff" d="M717 436c-7 6-9 17 1 21-5-8 9-11 5-19z"/><path d="m716 436 7 2q2 2 1 5l-3 5-4 4 1 5 1 1h-1q-7-2-7-11 0-6 5-11m1 0q-5 5-6 12 0 6 6 9v-5l3-5 3-4v-5z"/><path fill="#fff" d="M723 437c-4 10 8 11 5 19 8-2 9-16 2-20z"/><path d="m723 437 7-1q6 4 5 12-1 9-7 10v-1q2-2-3-8l-3-4zm1 0q-3 3-1 6 0 3 3 5 4 4 3 8 5-1 5-9 1-8-4-11z"/><path fill="#fff" d="M672 412q19 1 32 19c5 8 21 11 27 5 5-6 2-17-12-14-4-6-13-4-18-10-6-5-24-20-29 0"/><path d="M671 412q2-7 6-10h9q8 3 15 10 2 3 9 4 8 3 9 6 10-3 14 4l1 5-3 6q-4 4-14 2t-14-7q-12-20-31-20zm1 0q19 0 32 19 4 5 13 8 10 2 14-3 4-4 1-10t-13-4l-10-5-9-4q-6-7-14-10h-8q-5 1-6 9"/><path fill="#fff" d="M719 422q-5 3-2 10z"/><path d="m719 422-3 4 1 6q-2-3-1-6 0-4 3-4"/><path fill="#fff" d="M726 426v6z"/><path d="m727 426-1 6v-6z"/><path fill="#fff" d="M692 414c6 1 8 5 14 7z"/><path d="m692 413 7 4 8 4-1 1-7-4q-4-4-7-4z"/><path fill="#fff" d="M687 397q35 10 52 19c11 6 28 8 43 3 15-6 43-13 42 6 8-11-2-19-22-19 0-9-9-16-16-11 6-1 12 11-1 17 2-10-6-17-16-13 6 2 12 11-1 16q-15 4-31-6c-9-5-60-28-50-12"/><path d="M687 397q-2-3-1-5l3-1 16 4 33 14q6 4 15 6 8 2 15 0 9-3 7-9 0-5-6-7h-1 1q7-3 13 1 4 5 4 11 8-4 6-10l-2-4q-2-2-4-1h-1l1-1q5-4 11 0t6 11q14 0 21 6t1 14h-1v-1q2-12-15-12-11 0-27 6-11 3-23 3-12-1-20-6-13-7-52-19m1 0q39 12 51 19 9 5 20 5 12 1 23-3 15-5 27-5 16-1 16 12 5-8-1-13-7-5-22-5v-1q0-7-5-11-6-3-10 0l3 1q3 3 3 5 1 7-8 11 2-7-4-12-5-3-11-1 4 1 6 7 1 6-8 10h-15q-9-2-16-6a182 182 0 0 0-48-18l-3 1z"/><path fill="#fff" d="M744 389c-7 4-2 11-13 15q-18 9-16 23c7-16 20-16 25-22 5-7 11-16 4-16"/><path d="m744 389 3 1v4l-7 11-8 5-9 6q-5 4-8 11v1l-1-1q-2-7 4-13 4-7 13-10 5-2 8-9 2-4 5-6m0 1q-3 1-4 6-3 6-9 9-9 3-13 9t-3 12l8-11 9-5 8-5 6-11 1-3q-1-2-3-1"/><path fill="#fff" d="M746 390c-1 13-10 9-6 27q3 9-1 25c11-9 5-26 9-33q5-7 7-13c-2 8-2 21 5 25-5-14 15-26 1-42-2 4-9 11-15 11"/><path d="M746 391q4 0 9-4l6-7q6 6 5 13l-3 12-3 8v9l1 1-1-1q-5-2-6-11v-9l-5 8q-2 2-2 12l-1 11-7 10v1-1q4-9 0-24v-12l3-6q4-4 4-9m0 0q0 5-4 10l-3 5 1 11v1q3 14 0 23 3-3 5-9l1-11q0-10 2-13l7-12h1l-1 1-1 13q2 8 5 10v-8l3-8 4-12q0-6-5-12l-6 7z"/><path fill="#fff" d="M710 377q4 6 2 13 7-4 10-11c8 1 10 10 4 14q8 1 15-5c-5-5-20-14-31-11"/><path d="M710 376q8-1 18 3l13 9v1q-4 4-15 4h-2 1q6-2 4-8-2-4-6-6l-5 6q-3 4-6 5v1-8zm1 1 2 6v6l9-10v-1q6 1 7 7 1 5-2 8 10 0 14-5l-13-8q-11-5-17-3"/><path fill="#fff" d="m601 341-7-3c-10-4-5-13 4-12 20-19 30-1 54-6q12-1 18 2 17-8 32 5l4-3q14-2 18 15 10-1 18 7 10-6 13-1c7-3 14-5 18 5 4 9-9 7-11 28-2 13-15 18-26 10-18-12-34-15-43 3s-15 28-36 21q-11-5-23 7c-6 7-15-1-26-2 14-1 9-5 21-4 11 0 8-10 15-11-28 4-27-6-49-2 10-11 25-3 33-9-21-3-29-17-39-13-14 7-8 33-45 26-19-4-30-3-41 6 19-37 44-12 57-22q11-10 17-18 2-4 5-4c-31-15-12-27 19-25"/><path d="m600 341-6-3q-4-1-5-4v-4q2-5 9-4 8-7 16-9l15 2q14 3 23 1 11-2 18 2 9-4 17-3 9 2 15 8l4-3q7-2 12 3t6 12q9-1 18 6l9-2q3 0 5 2l9-2q6 0 8 7l1 5-3 4q-8 7-9 19-1 9-10 13-8 3-16-3-15-9-25-9-12 0-18 12-7 16-13 20-9 7-23 1-5-2-12-1-6 2-10 8-3 3-7 3l-8-2-12-3 11-3q4-2 10-1l6-2 3-4 3-5q-12 2-24-1-11-3-22-1l-1 1 1-1q3-5 9-6l11-1q9 1 12-2-9-2-22-9l-9-4h-7q-5 2-9 12-5 9-11 12-8 6-26 2-14-3-23-2-9 2-17 8h-1q9-16 20-20 7-2 20 0h10q5 0 8-3 13-10 17-18 1-3 5-3-11-6-14-10-4-5 0-9 5-4 12-5 9-2 20-1m1 0h-20q-9 2-12 5-4 4-1 8 3 6 15 11h1-1q-4 0-6 4-3 6-17 18-2 3-8 3l-10-1q-12-2-19 1-12 3-19 18 7-6 16-7 9-2 24 1 16 4 25-1 4-3 10-13 6-9 10-12h8l8 5q13 8 23 8l1 1h-1q-3 3-13 3l-10 1q-6 1-9 5 11-3 21 1 13 3 26 1h1-1l-4 5-4 4q-1 3-6 2l-10 2-8 2 9 2q5 3 8 2l6-3q5-5 11-7h12q15 6 22 0 6-5 14-20 6-13 18-13 10 0 25 10 8 5 16 2 9-3 9-12 1-12 9-19l3-4v-5q-2-6-8-7l-9 3h-1q-1-3-4-3l-8 3h-1q-9-9-18-7h-1q-1-8-6-11-4-4-10-4l-4 4h-1q-7-7-15-9-9-1-16 3l-1 1v-1q-7-3-18-1-9 1-23-2-10-2-15-1-7 0-16 8-7 0-9 4v4l5 3z"/><path fill="#fff" d="m755 345 1 4c0 8-11 9-12 21q0 9-5 8c-4-1-8-7-4-14z"/><path d="M756 345v4q0 4-5 9-6 5-7 12l-1 7-4 2q-4-1-5-5-2-6 1-11v1q-2 5-1 9 2 5 5 5t3-2l2-6q0-7 7-13 5-4 5-8z"/><path fill="#fff" d="m607 330-9-4z"/><path d="m606 330-8-4 9 4z"/><path fill="#fff" d="M670 322c10 5 14 15 28 16 13 2 21 21 43 9l1-1z"/><path d="M670 322q5 1 9 7l8 6q6 3 11 3l13 6 12 6q9 2 17-4l2-1v1l-1 1q-10 6-18 4l-13-7q-7-5-12-5l-11-4-8-6z"/><path fill="#fff" d="m702 327-2 12z"/><path d="M703 328q-3 4-2 11h-1q-1-7 2-12z"/><path fill="#fff" d="M660 365c-17-1-21 7-21 15 0 9 7 20 21 22q21-1 22-17-2-16-22-20"/><path d="M660 365q9 1 16 7 6 6 6 13t-6 12-16 5q-9-1-16-8-5-7-5-14-1-17 21-15m0 1q-21-2-21 14 0 7 6 13 6 8 15 8 10 1 16-4 5-4 5-12 0-7-6-13t-15-6"/><path fill="#fff" d="M663 401c-1-4-8-4-9-8q3-3 5-10c1-5 7-4 10 0s9 12 11 8z"/><path d="M662 401q0-2-4-4l-4-4 2-4 3-6q0-3 4-4 5 0 6 4l6 7 3 2 2-1h1q-1 3-3 1l-3-2q-4-3-6-7-2-3-6-3t-4 3l-2 6-2 4 3 3z"/><path fill="#fff" d="M669 383q-7 7-1 18z"/><path d="m669 383-4 8q0 6 4 10h-1q-3-4-3-10 0-5 4-8"/><path fill="#fff" d="M674 389v10z"/><path d="M674 389v10q-3-4 0-10m66-11q8 1 11-6l-1-5q-1-2-5-3 4 0 6 3v5q0 3-3 5zm-16-39q-4-5-9-5-6 1-6 9 0-9 6-9 5 0 9 5"/><path fill="#fff" d="M708 357c-5-11-16-13-22-8-5 5-5 16 6 20q7-8 16-12"/><path d="M708 357q-9 2-16 11-8-3-9-10-1-6 3-10 4-5 12-2 7 2 10 10m-1 0q-3-7-10-10-6-2-11 2-3 4-3 10 2 7 9 9 8-8 15-11"/><path fill="#fff" d="M703 350c-7-6-15 4-7 15z"/><path d="M703 350q-2-2-5-1l-4 2q-4 7 2 14h-1q-5-7-2-14 3-3 5-3 3 0 5 2"/><path fill="#fff" d="M582 366q7-1 20 8c7 4 24 12 35 7-11 2-20-15-29-15-9 1-24 2-31-5 16 3 25-9 44 5q8 6 18 7c-16-21-36-11-38-27 10 11 32 2 44 22z"/><path d="M582 365h2l-8-4v-1l1 1 16-1 13-1q7 1 15 7 9 6 17 6-4-6-12-10l-12-4-9-4q-3-3-4-8l-1-1 1 1 7 5 10 2 14 3q9 4 13 12h-1q-5-8-12-11l-14-4-10-2-7-4q1 4 5 7l8 3 13 5q7 3 12 11-9-1-18-7-8-6-15-7l-13 2h-16q9 8 31 5 4 0 13 7l8 6q4 3 8 2h1q-8 3-20 0l-16-7q-15-8-20-8zm6 2q6 1 14 7 7 5 16 6 10 3 17 2l-7-2-8-7q-7-7-12-7z"/><path fill="#fff" d="m604 349-3-8z"/><path d="m604 350-2-5-1-4 2 4zm120-11c-4-4-12-1-10 7q3-6 10-7m-24 22 8-4-5-7c-3-1-8 5-3 11m-11-15q-4-3-8-3-4-1-5 2h-1l-5 2q-3 3-3 7v1-1l2-7q3-3 6-2 2-3 6-3l9 4zm-12 12q-7-5-12-3-6 2-5 10h-1q0-9 6-10 6-2 12 3m-22 13 6-2q4 0 7 4-3-4-7-4zm57-7q-3 3-1 9-3-2-7-2-4 1-10 8v-1q5-6 10-8 5-1 6 2-2-5 1-9zm16-1q-6 1-7 4 0 4 6 6h-1q-5-2-5-6 0-3 7-4m-65-26q-6-2-8 1v2l5 4h1-1l-5-3v-3q2-3 8-1m15-4q-8-3-11-1l-1 1 2 1v1h-1l-2-2q0-2 2-2 3-1 11 1zm-31 42q-1 4 1 5 2 2 6-1h1q-5 4-7 2-3-2-2-6zm2 12-1 3h-1zm-26-55q-5-2-6-6l2-2h4-4l-1 2q0 3 5 5zm-2 14q-6-3-6-7l1-2 4-1v1h-4l-1 2q1 4 6 7m13-2q-6-2-7-6l1-2h4-3l-1 2q1 3 7 5zm2-19q-4 0-6 2v3l6 3-6-3-1-3q2-3 7-2m12 12h-8q0 3 4 5 0 1 0 0-6-3-4-5 1-3 8 0m8-10q-6-2-7 1v2l2 2q-2 0-3-2v-2q2-3 9-1zm-26 29q-2-2-1-6 1-3 8-1h-1q-6-2-7 1 0 4 2 5zm20-1q-4-1-7 2l-1 3 2 3-3-3 1-4q4-3 9-1zm9-6q-5-2-8-1l-2 1 1 1v1l-1-2 2-2 8 1z"/><path fill="#fff" d="M724 339q-6 1-10 7z"/><path d="M724 339q-7 1-10 8v-1q3-6 9-7z"/></svg>