<svg xmlns="http://www.w3.org/2000/svg" viewBox="0 0 1000 1000"><defs><radialGradient id="a" cx="247" cy="238" r="36" gradientTransform="matrix(1.60883 .2102 0 1.09603 8 98.194)" gradientUnits="userSpaceOnUse"><stop offset="0" stop-color="#ffef5d"/><stop offset="1" stop-color="#ea5700"/></radialGradient><radialGradient id="b" cx="322" cy="153" r="11" gradientTransform="matrix(1.22823 .1592 0 1.43566 8 98.608)" gradientUnits="userSpaceOnUse"><stop offset="0" stop-color="#ffef5d"/><stop offset="1" stop-color="#ea5700"/></radialGradient><radialGradient id="c" cx="364" cy="238" r="36" gradientTransform="matrix(1.60615 .2111 0 1.09786 8 100.788)" gradientUnits="userSpaceOnUse"><stop offset="0" stop-color="#952d1a"/><stop offset="1" stop-color="#570a00"/></radialGradient><radialGradient id="d" cx="468" cy="156" r="11" gradientTransform="matrix(1.25422 .16344 0 1.40592 8 101.442)" gradientUnits="userSpaceOnUse"><stop offset="0" stop-color="#952d1a"/><stop offset="1" stop-color="#570a00"/></radialGradient></defs><path fill="#ce1126" d="M8 195c171-85 341-54 513-28 155 24 312 45 471-34v672c-171 85-341 54-513 28-155-24-312-45-471 34z"/><path fill="#003f87" d="M8 243c171-85 341-54 513-28 155 24 312 45 471-34v576c-171 85-341 54-513 28-155-24-312-45-471 34z"/><path fill="#6f6" d="m544 337-3-1z"/><path fill="#060" d="m544 338-4-2 1-1z"/><path fill="#fff" d="M758 524c-1 151-115 262-258 240a303 303 0 0 1-258-288c1-151 115-262 258-240a303 303 0 0 1 258 288"/><path fill="#730000" d="M540 339q0-2 2-1l2 6-2 1zm-12 41-1-5 2-1v6zm37-2-6 2 3 2 6-3zm-68 10-3 3-2 4v5c1 3 4 13 3 20q-2 10-1 12l3 4q3 0 2-2c2-3 0-31-1-39q-1-10-3-12l-1-4q-5-6-5-20s-6 0-12-13c-3-7-7-7-12-10l2-1 6 3c2 0 2-4 2-4l2-2v9c0 5 6 11 9 14q5 1 5-7v-10l3 2-1 3 3-2h1l-3 6-1 11 1 10 4 11 2 6 3 7q2 1 2 10l1 10q1 3 6-1 5-5 4-8h2l1 3q-2 5 1 4l9-4h5l-2 2 4 1-9 4-11 4q-7 2-10 6v14l-1 15-14-2c0-1 2-10 0-14l-14-17c-4-3 3 0 3 0v-3l6 9c1 0 11-8 0-24-3-5-7-12-10-13q-3-2-9-2c-5 1-17-1-22-10h4l4-1c-1 0-2 5 8 7 10 1 12 1 11-8l3-1 2 2-1 7q2 4 7 7l3 2 3-1 5-5 1-1z"/><path d="M495 384v-2l-1-2-1-2-3-18-4-1q-5-3-8-12-2-5-9-8l-3-2h-1l3-2 6 3 2-1v-2l-1-1 3-2v10q0 3 4 8l5 6q2 0 3-2 2-2 1-5v-11l4 3-1 3 2-2 1-1v1h2l-1 1-3 5-1 11 1 10q0 3 4 11h1l2 6 2 4v3l3 10v4l1 6v1h1l3-1 1-1q3-3 3-8l2-1h1v1l1 2 1 1h-1v3h1v1l9-5 5 1v1l-2 1h6l-1 1-8 4h-1l-12 4q-9 3-9 6v14l-1 7-1 8-15-2q3-10 0-14l-3-4-10-12-2-2h2l2 1v-4l7 10 4-6q3-8-4-18l-3-5-7-8q-4-3-9-1l-11-2q-8-3-12-9h5l4-1v3l8 3 9 1q2-2 2-8v-1l3-1 2 3v7q0 2 4 5l3 2 2 2 3-2 2-2 2-2zm1 2 3 9v40l-2 1-3-4v-12q2-8-3-20v-5l2-3 1-1 1-1 1-2zl-1-2-1 2-3 2-1 2-4 1-3-1-3-3q-4-2-4-5l1-7-2-2-3 1q1 7-1 8h-10q-6-1-8-4l-1-2h-7q4 6 11 8l11 2q5-1 9 1 3 1 7 9l4 5q7 10 4 18l-4 6-1 1-6-9v3-1l-4-1 1 1 11 13 3 4q3 3 0 13l14 3v-8l1-7v-14q0-4 10-7l11-3 2-1 6-3h-4l1-1 1-2h-4q-6 4-9 4l-2-1 1-3-2-3-1 1q0 6-3 8h-2l-3 2h-1l-1-2-1-6v-4l-2-10-1-3-2-4-2-5-5-12v-4l-1-6q0-10 2-12l2-4v-1l-1 1-1 1h-2l1-3-2-2v10l-1 6q-1 3-4 1l-6-6-3-8v-8l-2 1v2q1 3-2 2l-6-3-2 1 4 1q6 3 8 9 4 8 8 11l4 2 4 18 1 2 1 2v2zm0 2-1 2v2l-1 1-2 2v5q4 12 3 20l-1 11 3 5 2-1v-1l1-18zm69-10 4 2-7 3-3-2zm-26-40h3l2 6-2 1h-1q1-1-2-6zm-12 41v-4l3-1-1 6zm38-1-5 2 2 1 5-2zm-25-39 2 5h1l-1-6zm-12 40v-4h-1z"/><path fill="#730000" d="m499 381 2-4 6-7q3-5 2-11l2 2v5l3-2h2s-8 8-16 20zm-70-39q1 4 5 9h2l-5-9zm12-2-1 10 2-1 1-7zm70-11s0 10 2 16h2q-1-1 2-3 4 0 10-3l-1-3-6 4h-4q-3-1-2-9zm29 50-1 10 3 1s-1-8 1-9zm10 7s-3 4-6 4h5l3-3z"/><path d="m499 381 2-4 3-4 3-3q3-6 2-11l-1-1 3 2v5l3-2 2 1v1q-9 7-16 19v1zm12-52 2 2q-1 7 2 9h3l1-1 6-3 1 3q-3 3-10 4l-1 2-3 1v-1q-3-6-2-16m-12 52 1 2q8-12 15-19h-1l-3 2-1-5-1-1q1 6-2 10l-3 4-2 3h-1zm13-51 1 15 2-1 2-2 10-3-1-2-6 3h-4q-4-1-2-9zm28 49 3 2v1l-1 8v1l-3-2zm-111-37h3v1l5 8 1 1h-3q-3-2-5-7zm12-1 3 2-2 7-3 1h1zm103 49 5-4 3 1v1l-4 2h-5m-4-1 1 1 1-9-2-1zm-110-45 4 7 1-1-4-8h-2zm11-3v8h1l1-7zm109 45-3 4h2l3-2z"/><path fill="#289400" d="m509 359 2 2h2l4 4q3 2 2 0l1 5h1v4l2-1 3 3 3-2 2-1q-11-6-8-11c4-6 9-2 11 0l26 18 1-2-2-5c1-1 3 3 5 4l5 2v-1l4 5q2 0 2-3l5 5 1-1 2-6 3-2 2-2-1-3-3-2 3-2h1l-5-4q1-1-3-4h1l-4-5 2-1q0-2-5-2l2-1q1-1-6-2l-1-3-2 1-4-2c-2 0 1 2 1 2l-4-2-1-5-3 3-1-2q-1 2-3 2l-1-3-1 2v-3l-3 4-2 3h-3v1l-2 1 1 1-4-1 1 2q-2 0-3-3-2-2-4-1l-2 1-2-2v2l-2-3q-2 1 0 2-2 0-1-4-2 1-1 4l-2 1v-2l-3 2v-4q-1-1-3 3h-3l1 2-4-1 1 2-3-1q-2 1 1 1h-4v1l-5-1 2 2-3 3 2 1-2 1 2 1-3 4 4-1v-1 1l3-1v1l3-2z"/><path fill="#030" d="m509 360-2-2-4 1-1 1h-1v-1 1h-4q-1-1 2-3l-1-1v-1l1-1-2-1 3-3-1-2v-1l4 2v-1h3v-1h3v-1h3l-1-1h1l3-1 2-2h2-1v2l1 1 1-1h1v1h1l1-4 1 1v1h1l1 1h1l2 2 2-1 2-1 2 1v1l1 2h2l-1-1h3v-1h1l1-2h3l2-2 3-5h1l-1 3 2-2v1l1 3 1-1 1-1 1-1v2l2-2h1l1 5 2 1v-1h1l4 1 2-1 2 4q4 0 5 2h1-1l4 3v1h-2l3 5h1l1 4 5 3 1 1h-1l-1 1-2 1 2 2 2 2v1h-1l-2 2-3 2-1 4-1 1v1h1l-2 2v-1l-3-3-2-1-1 1-1 1h-1l-3-5v1l-5-1-3-3-2-2 2 5v2h-1l-26-18h-1q-6-5-10 0-1 2 1 5l7 6v1l-2 1-3 1-3-3-3 2v-1l1-4h-2v-4h-2l-5-5h-1zm0-1 2 1 2 1 4 4 1 1v-1h1l1 5h2-1v4l2-2 3 3 3-1 1-1-7-6v-6q3-4 10 0l1 1 26 18v-2q-2-2-1-5v-1l1 1 2 1 2 3 4 1v-1h1l4 5h1l1-1-1-1h1l5 5 1-1v-3l2-3v-1l3-2 2-2-2-2-2-1v-1l3-3-4-3h-1l-2-4v-1h1l-4-3v-1l2-1q-2-3-5-2v-1h2l-6-1v-1l-2-3-1 1v1-1l-4-2v1l1 1-4-1h-1v-1q1-3-1-4l-2 2-1-1-1 1h-2l-1-2-2 2 1-4-3 4-2 3v1-1h-3v1h1-1l-1 1v2l-1-1-2-1 1 2h-3l-2-3-1-1h-2l-2 2v-1l-2-1v1l-1-1-1-1-1-1v1l1 1h-1l-1-2v2l-2 1-1-1-1 1h-1l-1-2v-1l-1 2h-4v1l1 1h-3v1h-3 1v1l-1-1h-3v1h1l-1 1-5-2h1v1l1 1v1q-3 0-3 2l3 1h-1l-1 2h1v1l-3 2h4v-1h1v1l2-1v-1h1v1l2-1z"/><path fill="#289400" d="M506 316v-3l7 2 1-3 4 3 8 1-1 3 8 2c2 1-1 2-1 2l10 4q4 3 1 4l4 6-7 1-2-1-1 4-5-5q-2 1-1 4l-7-6-2 2-4-5h-4l-2-2q-2 1-1 2l-2-3-2-3-3 2q-2-1-2-3-1-2-4-1s-1-5 3-6zm-25 15-3 2-1-1-3 2v-1l-2 2-2-1-1 1h-2l-3 1v-2l-3 2v-1l-2 2-1-2-2 1v-1l-1-1 1-2v-4h-2l3-4v-4l4-1-1-4 4-2 1-3 7 2 1-3 5 2 4-1 4 4 4 1v5l7 3-1 4h5v5l8 4-3 2 1 6v1l-4-3-1 3-3-2h-1l-2-2v-2l-2 1-3-3v-2l-3 2-1-2-1 1-1-4-1 3z"/><path fill="#030" d="m480 331-2 2-1-1-3 3v-2l-2 2-2-1-1 2-2-1-3 2v-1h-1v-1q0 2-2 1h-1l-1 1-1-1-2 1v-2h-1v-1l1-3-1-1v-1h1l-1-1h-2 1q0-4 3-4v-4l4-2v-1l-1-1v-1l4-2 1-3 6 2 2-3 5 2 5-2 3 5 5 1v4l6 4-1 4h5l1 5 7 4v1l-2 1v7h-1l-3-3-1 3-3-2h-1l-2-2h-1v-1l-1 1-4-4v-1l-2 2-1-1v-2l-1 1v1-1l-1-2-1 1zm0 0v-1l1 1 3 3v-2l1 1 1 2 1-1 1 1v1l3-1v3l3 2 2-1v2l2 1h1l3 2 1-2 4 2-1-6 2-2-7-4v-5h-6l1-4-6-3v-4l-5-2-3-4-4 2-5-2-1 2-7-1v3l-4 2v1l1 1-1 1-4 1v4l-3 3 3 1-1 1 1 1v2l-2 2 1 1v1l3-2-1 1v1h1l1-1h1v1l3-2v2l3-2 2 1 1-2 2 1 2-2v2l3-3 1 1zm26-15-1-3 7 1 2-2 4 3h8l1 1-1 2 7 3 1 1v1h-1q6 1 9 4l2 3v1l3 7-7 1h-1l-1-1-1 3h-1l-4-4-1 2v1l-7-5h-1l-1 1v1l-1-1-4-5-3 1v-1l-3-2v2l-2-3-2-3q-1 2-3 2l-2-1v-3h-4v1l-1-1q0-6 4-7zm1 0-5 1h-1q-3 1-3 5h2l2 1 1 1v2l1 1 3-2v-1l2 4 1 1h2l2 2 4-1 3 5 2-1h1l6 5 1-3h1l4 4 2-5v2l1 1h1l6-1-3-6v-1h1l-3-3-9-4h-1 1l1-1v-1l-8-2 1-3h-8l-4-3-1 2-7-2z"/><path fill="#289400" d="M438 338s5 3 5 5q2-1 1-4l2 2v-4q1-3 6 2c0-1 3-3-3-7q-1-1 3-1l-1-3 4 1-6-3q-3-1-1-2v-3l-3-1-5-1-1-3q-1-1-3 1l-5 2-2-2-2 4h-2l1 1-5-1 1 5h-4l1 1-4 2 1 1-2 2 2 1h-4l2 1-1 1 2 1-2 8 4-4-2 4 5-1v-2l1 3 2-4 2 2v-2l4 2h3l-1 1 2-1h2l1-5zm-18 17 2 4-5 2c1 8-1 7-1 7v4l10-5v-1l13-4v1l4-2 2 7-2 1q1 6 3 7h3l4-1v2l4-2 1 2 4-3 3 2 1-3h3l3 2 3-2 2 2 5 3 1-3 6 3-3-6 2-3h-2l2-3h-2v-1l-3-2 2-4-10-4 2-2-2-2-7-1-3-3-3 2-2-1-3 1q0 2 0 0l-4-4-4 5h-2q-2-4-4-3-2 3-4 2h-3l-4 3-5-1-1 3zm60 64v-3l3 3 2-2 2 3 2-3v4l3-2 3 1v-3l1-5h2l-4-6-3-1-5-4h-2l-3-3-2 1-3-2q-2 0-1 1l-6-2 1 2-6-3 1 2-4-1v2h-6l1 2-4-2v3l-4 1 2 1-7 3 2 2-5-1 2 2-5 4 3 3-2 3 6 2 2 4h4v4l7-4s4 4 5 3v-4h2v-4l2 2 3-4 4 6 3-6zm26-13-1-6-1 2v-6l-3-1 1-6-2-1 1-3 2-1 4-3 9 1 1-3 6 2c2 2 4-1 5-1h1l2 3 6 2-2 3 4 1 4 1h7l1 2 4 1-1 1 5 3-1 1 5 2h1v4l5 5 3 2q1 3-3 4v3l-4 4-2-2-2 3-6-7c-2-1-2 3-2 3l-5-5v3l-5-4-2 1-5-6h-4l2-2-6-1-1-4v3l-4-2-4 4-1-3c-1-2-2 2-3 2l-1-4-2 3-3-3zm1 15v-2l8-2 6-2 3-1 2 3 2-3 3 4 1-2 3 3h2v3h6c1-1 1 4 1 4l5 1 1 6 2 8c-1 2-3-3-3-3l-1 5-6-2-3 5-4-5c-2 0-2 4-2 4l-6-8q-2-1-2 2l-3-7-3-3-7 5-1-4-4 1z"/><path fill="#030" d="m506 406-1-5-2 2 1-7-3-1 1-6-2-1 1-3 2-1 4-4 9 2 1-3 6 2h3l1-2h1l1 1 2 3q4-1 7 2l-3 3 4 1 4 1 3-1 4 1 2 2h4l-1 2 5 3-1 1 4 2h2l-1 4 5 5q3 0 3 2v2q-1 2-3 2v4l-3 3-3-2-1 3v1l-1-1-6-7h-1v4l-5-5-1 3-5-5-2 1-5-5h-5l2-2-5-1-1-4v3l-4-3-4 4-1-3-1-1v1l-1 2-1 1-1-4-2 3-3-4-1 2zm-87-51 7-1 1-2 5 1 3-3h6l2-2h2l3 3h1v-1l4-4v-1l1 1 3 4 3-1 2 1 3-3v1l3 3 6 1h1l2 2-2 2 10 4-2 4 4 2h-1l2 1-1 3h1v2l-2 1 3 6v1l-6-4-1 3h-1l-1-1-3-2-2-2-3 2-3-2h-3l-1 3-3-1-4 3-1-2-4 1h-1v-1h-3l-3 1-1-1-2-7 2-1-2-6-4 1v-1l-12 4v1l-12 6v-1l1-4-1-1 1 1 1-1v-6l4-2zm87 49 1-2 1-1 1-1 3 4 2-3 1 3 1-1 1-1h1v1l1 2 4-4 3 3 1-4 1 1 1 4 5 1-1 2h3l5 5 2-1 5 4v-3l5 5v-1l1-1 1-1 6 7 2-2v-1l2 2 3-3v-4h1q2 1 3-1v-2l-4-2q-3-1-4-5h-1l1-1v-3h-1l-5-2 1-1-6-3 2-1-4-1-1-2h-4l-3 1-4-2-5-1 3-3-6-2h-1l-1-3h-1l-2 1-3 1-6-2-1 3-9-2-4 3-2 1v3l2 1-1 6 3 1-1 5 2-2zm-86-49 2 5-4 1-1 7h-1v3l10-4v-1l13-5v1l4-1 3 8-3 1 3 6h3l4-1v1l4-1 2 2 3-3 3 1 1-2 3-1 3 2 3-2v1l2 2 3 2 1 1 2-3v-1l5 3-2-5v-1h1l1-1-2-1h-1l2-3h-2l1-1-4-2 2-4-9-4h-1l2-2-1-1h-1l-7-2-2-3-3 2-2-1-3 1v1l-1-1-3-4-5 6-1-1-2-2-1-1h-1l-2 2-2 1-1-1-2 1-3 3h-1l-5-1-1 2zm60 64-4-1-3 7-4-6-3 4-1-2v3h-3v4l-1 1-2-2-2-2-7 4v-4h-4l-3-4-5-2 2-3-4-3 5-4-2-3 5 1h-1v-2l6-2-1-2h4v-3l3 1-1-1h6l1-2 3 1v-2l5 2v-2l6 3v-2l1 1 3 2v-1h2l3 3 2-1 5 5 3 1 4 5 1 1h-2l-2 5v4l-2-2-4 3v-3l-2 1-2-3-2 2-3-2zm0-1v-3l3 3 2-2 2 3 2-3v5l3-3 2 1v-2l2-5h-1l3-1-5-4-2-1v-1l-5-4h-2l-1 1v-1l-2-3-2 1v1l-3-3h-1l1 1v1l-6-3v2l-5-2v2l-4-1v1h-6l2 3-4-2v2l-4 1 1 1v1l-6 2h-1 1v1l2 1-1 1-4-2 1 2-5 4 4 3-2 3 5 2 2 4 4-1v4l7-4 4 4 1-4v-1l2 1v-5l2 2 3-4 4 6 2-6zm27 3v-3l8-1 6-2 4-1 1 3 2-4 3 5 1-2 3 2 2 1 1 3h6v4l5 1 2 6q2 6 1 8v1h-1l-1-1-1-2v4h-4l-3-2-3 6v-1l-4-5-1 2-1 2v1-1l-6-8-1-1-1 1v3l-1-1-2-7-3-3q-4 5-7 5l-1 1v-5h-2l-2 1v1-1q-3-6 0-10m-69-83h-2l-1 5-1-1v-1 1l-2 2h-1v-2h-3l-2-1v1h-1l-2-1-2 3-1 1v-3 1l-5 1-1 1 2-3-3 2v1-1l2-8h-3l2-2h-2v-1l2-1 2-2-2-1 4-2h-1l1-1 3-1-1-3v-1l5 1-1-2 3 1 2-4 2 1q3 1 4-1l4-2v1l1 3h5l1 1h2v5h1q4 1 6 4h1-4l1 2h-4q4 3 4 6l-1 2q-1-2-4-2h-2l1 4h-1l-1-1-1 3h-1zm69 83v10l1-1 3-1 1 5 7-6h1l2 4 3 6v-1l1-1 1 1 6 7v-1q0-3 2-2l4 4 2-4h1l3 1 3 1 1-5 2 2 1 1-2-8-1-5-5-2-1-3-6-1v-3h-2l-3-2-1 2-3-5-2 4-2-3-3 1-6 1-8 2zm-62-101-4-1h-1l-2-3-2 1v1l-5 1-2-1-1 3h-3l1 2v-1h-5l1 4h-4v1h2l-1 1-4 1 1 1-1 2h1v1h-3l1 1h1l-1 1 2 1-2 7 3-3h1l-3 4 4-2 1-1 1-1v3l1-3h2l1 1v-1l4 1q0 2 0 0h3v2l1-2h1l1-4 3 1 5 4 1-3 2 1v-4h2l4 2 1-1q0-2-4-5v-2h3l-1-1-1-1h4l-5-2-2-1v-1h1v-3z"/><path fill="#004b00" d="m542 345 1 2h4v1l-1 2 5 2-1 1 4 3-3 2 6 5-4 2 1 2h-3l1 4h-6v-1h5l-1-4 3 1-1-2v-1h1l3-1-6-5h-1l4-2-4-2 1-2-4-1h-1 1v-3h-3zm-19 57 2-5 3 2 2-4 3 2 2-4 3 2 1-3 3 3v-4l3 2 1-1-2-2h1l1 3-1 1-2-2v4h-1l-3-3v3l-4-2-2 4-3-2-1 4-3-2zm42-36v-7l6 4v-2l-1-2v-1h1l5 3-1-1-1-2 1-1 3 1h-3l1 2v2l-5-3 1 2v2h-1l-5-2zm-92-33 1-2v-2h1l1 1 1-1v-2l-1-1 2 1h1l1-1v-1l1 1 1 1 1-2h1l1 1 1 1 1-1 1-1 1 1h1l1-2-1 3-1-1h-1l-2 2h-1v-1l-1-1-2 2-1-2-2 1-1 1h-1v2h-2l-1 2v1zm-18 80 2-4 2 6 1-3 1 1 3-3 4 6-1 1-3-6-3 3-1-1-1 3-2-5zm72-83q2 3 3 2l-1-1-1-3v-1h1l1 1 4 2 1-1v-1h1l6 2v1l-6-2v1l-2 1-4-2-1-1 1 4v1zm-11-3-1-2-1-1 1-1v1l2 1 3 4v1l-4-4zm-85 11 1-4-1-1h2l2 2-3-1v5zm16-3-5-3zm17-1v-5zm-44 6 1-4zm87-16v-4zm-59 49q2-3 1-4l1-1 2 2 1 1 1-4h1l2 2 2 3v-6h1l2 1 3 1h1l1-1v-1l2 1 2 2v-5h1l1 1 2 1-2-4 5 1v-4l1 5-5-1 3 5-1-1-3-2h-1v5h-1l-4-3v2h-2l-5-2v6h-1l-3-4-1-1-1 4v1l-1-1-2-2-1-1zm85 24 2 5 3-3 3 6 3-1 4 3 2-1 5 4 2-4 4 2 3-4-3 5-4-2-2 4-5-5-2 2-4-4-4 2-2-6-3 3-3-6zm-14 31 4-1 2 3 3-4 3 4 1-3 4 2 1-2 4 3v-3l2 1 1-2v3l-2-1-1 3-4-3-1 2-3-2-1 3-4-4-3 4-3-3-2 1z"/><path fill="#9dd7ff" d="m450 574-9-20 58-43 58 61-8 17-1 1-4-3-3 2q-4-1-4-3-1 2-5 1t-4-2l-4 1-3-2-4 1-4-2-6 1q-4-1-4-3l-4 1-5-2h-5l-6-2h-5l-5-2h-5l-3-1h-6l-5-3z"/><path fill="#fff" d="M499 451v60l-58 44q-7-28-6-39v-75z"/><path d="M500 451v60l-59 44q-6-19-6-39v-75zm-1 0-63-9v74q0 19 6 38l57-43z"/><path fill="#ffd83c" d="M499 451v60l58 61c5-16 6-31 6-37v-74z"/><path d="m499 451 64 9v75q0 21-6 37v1l-58-62zm1 60 57 60q6-16 5-36v-74l-62-9z"/><path fill="#730000" d="m462 563 12 7q10 5 28 8 16 3 21 1 4 0 4-2l-9 8s-35-3-42-9q-5-3-14-13"/><path d="m462 563 6 4 5 2q11 6 28 9l20 1 4-1 1-1v1l-1 1-8 7q-36-4-43-9zm2 2q7 9 12 11 6 6 42 9l6-6-1 1q-7 1-21-2-18-2-28-8l-5-2zm50 14v-38h1v13l4 5q3 7-4 15v5zm1-25v19q6-7 4-13zm-52 10 17-15-2 23h-1l2-21zm37 14v-41h1zm-14-3v-36h1z"/><path fill="#ff0018" d="m486 541-7 1 7 2zm14-4-7 2 7 2zm15 5-8 1 8 2zm4 18q3-2 5-1v9l-4-2z"/><path d="m519 560 1-1 2-1 2 1v9l-5-1zm1 0v6l4 1v-8h-4zm-5-19v3l-8-1v-1zm-15-4v4l-8-2h-1zm-14 4v3l-8-2zm28 1-6 1 6 2zm-20-3 6 1v-2zm-13 3 5 2v-3z"/><path fill="#fff" d="m466 562 14-12-1 9s-7 3-7 7zm7 4 6-6-1 9zm20-21s6 0 10 2v7c0-1-7-3-11-1q-1-2 1-8m-12 0 10 1v8c-1 0-6-4-10-2z"/><path d="m465 562 15-12q-1-4 1-6l10 2v8q-6-5-10-2l-1-2-1 9q-7 3-7 7zm28-17 10 1h1v8h-1q-7-3-11-1v1-1q-1-5 1-8m-27 17 5 3q1-3 8-7v-7zm27-17-1 7q4-2 11 1v-6zm-12 0v6q4-2 9 2l1-7zm-8 21q2-4 5-6h1l-1 10zm0 0 5 3v-8z"/><path fill="#fff" d="m481 552 10 2v7c-1 0-7-3-11-1q-1-2 1-8m11 1 13 1q-2 2 0 9c0-1-8-4-12-2 0 0-3-5-1-8m-12 7 11 3v9c-1 0-9-3-11-1 0 0-3-7 0-11m13 2 14 2q-3 2 0 12c-1 0-12-5-14-3-1 0-3-7 0-11m14-15s6 0 10 2v7s-7-3-11-1q-1-2 1-8m0 8 10 2v7s-7-3-11-1q-1-2 1-8m1 9 10 1-1 11c0-1-6-4-9-2 0-1-2-7 0-10"/><path d="m481 552 10 1v8q-7-3-10-1l10 2v1l1-1h1l14 2q-3 7 0 12l1 1-1-1q-13-4-14-3l-1 1v-1l-1-5v5-1q-9-3-11 0v-1q-3-8 0-11zm26-5 10 1 1 1v7h-1q-7-3-10-1l10 1 1 1v7h-1q-7-3-11-1 0 2 0 0v-3l1-5h-1v-3zm-14 16q-3 2 0 10 3-3 13 2v-10zm15 0 10 2v11h-1q-6-4-9-2h-1q-2-9 1-10zm-16-10 13 1v8l1 1h-1q-9-4-12-2l-2-3zm-12 8q-2 3 0 10 3-2 10 1l1-9zm28 3v9q3-1 9 2l1-9zm-16-11v5l1 3q3-2 11 1v-7zm15 3-1 4v3q4-2 11 0v-6zm-27 4q3-2 10 0v-6l-9-1q-2 1-1 7m27-12-1 4v2q4-2 11 1v-6z"/><path fill="#fff" d="M520 566c0 1 2 7 4 9l-3 3s-4-3-4-7z"/><path d="M520 566q2 8 4 9h1l-4 4-5-8q3-2 3-5zm0 2-3 4q0 3 4 6l3-3q-3-2-4-7"/><path fill="#006ac8" d="M548 590q-12 22-49 32-36-22-49-48l4-2 5 3h6l3 1h5l5 2h5l6 2h5l5 2 4-1 4 3 6-1 4 2 4-1 3 2 4-1 4 2q4 1 5-1 0 2 4 3l3-2z"/><path d="m546 593-2-1-5 1-4-3q-3 2-5 1l-3-2-4 1-4-2-6 1q-2 0-5-3l-6 1-5-3-4 1-5-3-6 1-5-2h-5l-4-2-6 1-5-3-4 1h-1v-1h1l4-1h1l4 3h6l4 1h5l5 2h6l5 3 4-1v-1l1 1 4 2 7-1q1 3 4 3l6-1 4 2q1 1 4-1l3 2q2 1 5-1l4 3 5-1z"/><path fill="#5ac800" d="m463 586-4 1h-1 1-1q7 10 16 18t26 17l24-9q11-6 17-14c-4 1-3 2-5 1l-3-2-4 1-4-3q-1 2-6 1l-5-2h-6l-5-2-4 1-6-3h-5l-5-2-5 1-4-2h-6z"/><path d="m463 585 5 3h6l4 1h5l5 2h6l5 3 4-1v-1 1l5 2 6-1h1q1 3 4 3l5-1h1l4 3q2 1 3-2h1l3 3 3-1h2q-5 7-17 14-10 6-24 9h-1q-11-6-24-16l-1-1q-10-9-16-18v-1h1zm0 1-4 1q6 9 16 17v1q13 11 25 16 14-3 24-9t15-12h-3l-3-2q-2 2-4 1l-4-2-6 1-5-3-6 1-5-3-4 1-6-2h-5l-5-2h-6l-3-1h-6z"/><path fill="#ffd800" d="M500 622c13-4 15-5 23-9l-4-2-3 1-6-3h-6l-5-2-5 1-3-2h-6l-5-2-6 1c7 5 13 11 26 17"/><path d="M500 622q-13-6-25-17l-1-1h1l6-1 5 3h6l3 1h6l4 2h6l6 2h2l1-1v1l1 1 3 1h1l-1 1zm19-10h-3l-6-3-6 1-5-2h-5l-3-2-6 1-5-3-5 1q12 10 25 16l22-8z"/><path fill="#b34b00" d="M491 511q4-2 3-5l-4-1-4-3-4-5-13-17-3-8-18-22q-2-4-6 0-5 3 0 8l17 19 8 5 17 21q5 4 3 6v3h2z"/><path d="m491 511-2 1h-3v-3q1-3-2-5l-18-22-2-1-5-4-18-19-2-5 2-4 4-1 3 1 2 3 18 24 2 4 11 15 1 1 2 3 3 3 3 3h2l2 1q1 3-3 5m3-5h-5l-3-4-4-5-2-2-11-14-2-5-1-4-16-20-2-2-3-2-3 2-2 3 2 4 17 19 5 4 3 2 18 21q3 5 2 6l-1 2 1 1h2l1-1q4-3 4-5m-48-51 19 21-1 1z"/><path fill="#fff" d="m471 468 2-4c0-1 5-7 7-7l16 14-8 9z"/><path d="m471 467 1-3 3-4 5-4 16 15-3 5-4 4h-1l-9-6zm0 1 9 6 8 5h1v-1l6-8v1-1l-2-1-5-5-8-7-4 3z"/><path fill="#ccb8c8" d="m481 472-9-7-1 3 16 11z"/><path d="m473 465 6 5 5 5 4 4-4-4z"/><path fill="#782121" d="m441 509 35-39q3-1 5 4l-33 41q-2 1-7-6"/><path d="m441 509 35-39h3l2 4-33 41h-1zm6 5 33-40q0-3-2-3h-1l-35 38q2 5 5 5"/><path fill="#730000" d="m558 527-3 1-7-10-35-49 3-3 32 42 11 16q2 1-1 3"/><path d="m558 528-3 1v-1l-3-3-5-7-35-49 5-4 31 43 12 17zm0-1 1-2v-1l-11-16-32-42-3 3 35 49 5 6 2 4z"/><path fill="#fff" d="m525 476-6-8q-2-1-5 3s-3 4-11 4c0 0 2 9 12 16 0 0 3-9 6-10q3-1 4-5"/><path d="M525 476q0 2-3 5-4 1-7 10v1h-1a32 32 0 0 1-11-17l-1-1h1q8 1 11-4 1-2 5-2zm-1 0-5-7q-4 0-5 2-2 4-11 4l2 5 9 11q4-9 7-11 3-1 3-4"/><path fill="#730000" d="m511 504-3 1q-2 0-2-2l1-2 7 1zm38-33v-3q2-2-1-2-3 1-1 7z"/><path d="M511 505h-5l-1-2 2-2q4-2 7 1zm38-33-2 2-1-1-1-5q1-2 3-2h2l-1 2zm-38 32 2-2h-6l-1 1v1zm37-33 1-3v-2h-1l-2 2 1 5z"/><path fill="#fff" d="m510 505 39-34 10 12-3-1 1 3-2-1v3l-3-1v3h-3v3l-3-1 1 3h-4v3l-2-1v3h-4q-1 3 1 3l-3-1v3h-3v2h-3v3h-3l1 2-3-1v3l-2-1v4l-2-2v3l-2-1z"/><path d="m510 505 39-35 10 13h-2v2l1 1-1-1h-2v3h-1q-1-2-2-1v2l1 1h-1l-2-1v4l-1-1h-3v1l1 1h-4v3l-2-1v4h-1l-2-1v3h-1l-2-1v3l1 1-1-1h-3v3l-2-1v3h-3v2h-3v3l-1-1-1-1v4l-1-1h-1v2l1 1h-1l-1-1-1-1zm0 0 9 11v-2h2v-2h2l1-2h2v-2h2l1-2 2-1 1-2h3v-2h2v-2h3v-3h2l1-2 3-1v-2h3v-2h3v-3h2v-2h2v-2h2l-9-11z"/><path fill="#7e4b7e" d="m547 474-3 3 1 10q0-2 1 0l1-2zm-6 5-2 2 1 11c0-1 0-4 2-1l-1-4zm-23 20-3 2 1 7s0-4 2-1l-1-3zm-3-27 6 7-1 1-1-2v1h-2l-1 1h-1l-1-1 2-4h1zm-1 3-1 1-1 1v1l-1 1h1l-2 2-1-1v-1h-1v-1h-1v-1l6-3zm-26 1 2-3 2-3h1l1 1h-1l-2 3zv1l-1 1z"/><path fill="#289400" d="M359 569c2 1 0-6 1-9 1-2 6 7 9 10 4 1 21-5 21-5l4-8 3 7 6-7c2-2 0 4-1 6s3 4 3 8 6-2 6-2l16 4s3-10 8-15l1 6 7-6c8 22 23 46 56 64 31-7 47-25 55-43l9 11 9-2 21 11c2 1 1-5 1-5s7 2 7 7l3-5q4 2 6 6c1 2 17 6 20 8l2 4h6l-2 3q0 3-3 5-2 2 3 2 3 2-6 6-1 1 1 4l-6-1-2 5-6-4q-2 1-1 4c0-1-9-3-12-7q-2 0-2 2l-9-6-2 3-6-4v2l-7-5-2 4-7-5q-2 0-3 2l-5-3-1 5-9-4q-2 1 0 3l-8-4v3l-6-2-4 4-4-1-1 4-10-3v4l-8-2v3c-1 0-9-4-12-3l-4 3v-1l-3-5-5 1h-9q1-1-2-4-2-2-5 1l-3-5q-3-3-4 0v-4l-5-1-4-4-9-1 2-1-12-1c-2-1 2-3 2-3l-11-4-14-1-2-2-5 2v-5c-1 0-7 1-8 3l-1-4-5 5v-2l-6 5v-4l-14 4 1-3-7-2-6-2q-1-1 5-1s-7-3-10-2q-2-1 3-4s-5-5-9-6h7l-5-11z"/><path fill="#060" d="M359 569v-8l1-1 1 1 3 4 4 5q3 2 21-4l4-9 3 8 6-8h1v3l-2 5 1 2q3 3 3 5v1l2-1 3-2 16 3 7-15h1l1 7 7-6q15 42 56 63 40-9 55-42v-1l10 11 8-1 21 11h1v-2l-1-3h1q6 2 7 5l3-3 3 2 3 4 10 4 10 3v1l2 3 6 1-2 3q0 4-3 5l-1 1 4 1 1 1-1 2-6 3q-1 3 1 4v1l-6-2-1 5h-1l-6-3-1 1v1l1 1h-1q-10-3-12-6h-1l-1 1-1 1-8-6-2 2-6-4v2l1 1-8-5-2 3h-1l-6-5h-1l-1 1-1 2-5-4v5h-1l-10-3 1 2v1h-1l-7-4v3l-6-3-4 4h-4l-1 3h-1q-8-3-9-2l1 3v1l-8-3-1 3-11-3-5 3h-1v-1l-2-4h-15l-1-3q-2-3-5 0l-3-5q-1-2-2-1l-2 1-1-4-4-1-4-3-9-1v-1l1-1h-11l-1-1v-1l1-1 1-1-10-4h-14q-2 0-2-3l-5 2-1-2v-2q-6 0-6 2l-1 1v-1l-1-3-5 5-1-1v-1l-4 4h-1v-4q-11 6-14 4h-1l1-3-6-1-4-2-3-1v-1h4l-8-2v-2l2-2q-4-5-8-5v-1l6-1q-3-9-5-10h-1l1-1zm0 1-9-1 5 11h1-6q3 1 7 6h1-1l-3 2v1l10 3v1h-5l2 1 4 1 8 1-1 1-1 2q3 1 14-3l1-1v4l5-5v3l5-6v1l1 3q1-2 7-2h1v5l5-3v1l2 2h14l11 5h1-1l-2 2-1 1h14l-2 2 8 1q1 3 4 3l5 2v3l1-1q3 0 4 2l2 4h5l2 4 4-1h10l3 5-1 1 1-1 4-3 11 4 1-4 8 3v-4l9 3 1-4 5 1 3-5 1 1 5 2 1-3 7 4-1-2 1-1h1l9 3 1-4q2 0 5 3l1-1 1-1h1l7 4 2-3 6 4v-1h1l6 3 1-2h1l8 6v-1h2l1-1h1q1 4 10 6v-2l1-1h1l6 3 2-4v-1 1l5 1v-4l6-3v-2l-4-2v-1h1q3-2 3-5l1-3h-6l-1-4-10-4-11-4-2-3q-1-3-3-2l-3 4q0-4-7-6v4h-1l-4-3-17-8-8 2h-1l-9-11a75 75 0 0 1-55 43q-42-22-56-63l-7 6-2-7-6 15-17-4-3 3-2 1-1-1v-1l-2-5q-2-1-2-3l2-6-6 7v1l-3-7-4 7q-18 7-21 5l-5-6-4-4v10z"/><path fill="#730000" d="m348 408 97-40q1-3-2-7c-28 10-53 24-84 31-2 0-17 5-25 14l-3 7 1 5 2 2 2 1 3-3z"/><path d="m348 408-9 11q-1 3-3 2h-2l-2-3-1-5q0-4 3-7 5-6 15-10l10-5a415 415 0 0 0 84-30l3 8zm0 0 97-40-2-6-25 9a417 417 0 0 1-69 25q-10 5-15 11l-2 6 1 5 1 2h1v1-1l1 1 3-3q3-6 9-10"/><path fill="#fff" d="m426 366 13-4s4 4 4 7c0 1 1 9 11 16 0 1-8 10-24 9 0 0 2-14-1-19h-1q1-4-2-8z"/><path d="m426 366 13-4q4 4 4 8l2 5q3 6 9 10h1l-1 1-6 5q-8 5-18 3 1-13-1-19h-1v-4l-2-4zm1 1 2 4 1 4q3 4 2 19a31 31 0 0 0 23-9q-7-4-10-10l-2-6q2-3-3-7z"/><path fill="#7e4b7e" d="m441 371-4 1v7h-2v-2h-1v-1l-1-1v-1l-3 1-1-1 12-4zm1 3 6 10-1 1-1-1-1 1-4-8h1l-1-2zm0 5 3 6h-1l-3-6zm0 3 1 3v1l-2-4zm-6-9v5zm-1 0v2zm-1 0"/><path fill="#b34b00" d="m530 376 36 23c7 5 10 2 14 4l70 46q10 4 9 7 1 6 3 6 2 1 4-2l1-1 1-1q5-6 1-10c-4-2-4 1-8 1l-9-5-12-9c-4-1-38-24-57-37q-2-5-8-11c-1-2-27-18-40-27q-7-6-12 1-6 7 7 15"/><path d="m530 377-8-8q-2-3 1-8l5-4 6 3h1l16 10 25 17 5 7 2 4 27 18 30 19 8 6 4 2 9 6 4-1 4-1q4 4-1 11v1l-1 1-1 1-4 1q-3-1-3-6 0-2-6-6l-3-1-70-45-5-1-9-3zm1-1 35 23 9 3 5 1 71 45 2 2 5 3q2 2 1 3 0 5 3 5 1 1 4-1v-1l1-1q6-7 2-10h-4l-4 1-9-5-4-3-8-5-31-19-26-18h-1l-2-4q-2-6-5-8l-24-16-16-11h-1l-6-2q-2 0-4 4-3 4-2 7zm3-7 40 26-1 1z"/><path fill="url(#a)" d="m414 373-1 6-4 3c-3 0-5 3-11-1l-1-1c0 1 2 6-4 8l-20 9-1 9v2q-3 1-5 7s-4-2-4-5l2-5 1-8-4-3q-2 0-2 2l2 1-1 5-12 5 2 3c1 1 2 14 6 21 3 6 4 5 5 5l3 3q3 2 6 0 1-4 4-6l8-8s3 9 2 17l22 5h15v-10l3 8q2 5 6 8 5 0 5-4v-9l12 2 6 3q3 0 2-2l-1-1 3 2h6q-1-3-6-5l-6-3-8-1-8 1q-1 1-1-1c1-2 1-10-1-15q-3-4-1-7v-12q-1-3-9-7t-10-9z"/><path d="M414 373q-2 9-1 13l3 5 6 4q7 2 9 7v12l1 7 2 8v8l8-1 8 1 6 2v1q6 2 6 5v1l-6-1-2-1h1l-1 1-1 1-6-2-1-1-11-1v9l-2 2-4 1q-3 0-5-6l-1-2-2-6-1 8h-15l-22-5-2-16q-1 3-8 8l-4 5-3 1-3-1-3-3h-1l-5-5-5-21-2-3 12-6 1-3v-1l-2-1 1-2h2l3 3-1 8-1 2-1 3q0 3 4 5 1-6 5-8v-1q-2-6 1-9l10-5 10-4q6-3 4-8v-1l1 1v1q5 3 9 1l2-1v1h1v-1h-1 1l1-1 2-2 1-3zm0 1-1 3v3l-3 2-1 1h-3q-5 2-9-1v3l-4 5-11 4-10 4-1 9h1l-1 2q-3 2-5 7v1-1q-4-2-4-5l1-3 1-2v-1l1-7-3-2-1-1h-1v2l1 1h1l-1 5-12 5 2 3v3l5 17 5 6 3 3 3 1 2-2 5-5q7-5 7-8h1l3 16q10 4 21 5l14 1 1-10h1l3 7v2q3 6 5 6 2 1 3-1l2-2v-9l12 2h1l5 2h2v-1h-1l-1-1h1l3 1 6 1-6-5-6-3h-15l-2 1v-9l-2-8-1-7v-12q-1-4-8-6l-7-5-3-5z"/><path fill="url(#b)" d="m392 355-1 12 3 10q0 3 3 5c5 4 9 1 12 0l3-2 1-6 1-1 2-4-2-3v-7q1-2-1-3-9 2-19-1z"/><path d="m414 374-1 3v3l-4 3h-1q-7 3-11-1l-4-5-2-10v-12h1-1v-1h1l1 1h4q11 2 16 1h1v10l2 1v4zm-22-19-1 12 3 9 3 6q4 3 10 1l2-1 3-3 1-2v-4h1l1-2 1-2-1-1-1-1h-1v-1l1-7v-3h-20zm-1 2v-4q0-3 2-4l2-3h4l4-1 8 2 5 6q2 2 1 11l-1 4s-1-3-3-1v-10l-11 1-10-4zm0 0v-7l1-2 2-1v-1h5l4-1 8 2 3 4 2 1q2 2 2 12l-1 4-1 1v-1l-1-1h-1l-1 1v1-12l-11 1-10-3zm0-1 1-3v1l10 3q4 1 11-1h1v8l-1 2h1l1 1 1 1 1-4q0-9-2-11l-1-2-3-3q-3-2-8-2l-4 1h-5l-1 2-1 2-1 2z"/><path fill="#fff" d="M395 353q-2-2-1-5 2 1 3 5 0 2-2 0m0 0v-4h1l1 2 1 3v1zm0-1h1l-1-3v-2h-1z"/><path d="m400 365-1 2v2h-1l1-3zm14 3 1 1v2zm-2 5v1zm-9 6-7-1v-1l-1-1h5l3 1v1l-7-1zm-11-19 3 2q3 1 1 5v1l-1 1v2l1 1h1l1-1 2 1h1v-2 3l-1-1h-2v1l-1-1h-1l-2-1 1-2v-7zm9 4 2-1q4-1 7 1v1l-7-2zm1 13-2-1h-1v1zm-4-1h-2z"/><path fill="#fff" d="M392 364q1-2 4 1l-2 1q-3 0-2-2-1 0 0 0m11 2q2-2 3-1l2 2h-5z"/><path d="M402 366q1-2 4-1l1 1h1l1 1h-6zm-10-3 4 1v2h-2q-2 1-3-2zm11 3h4l1-1h-5m-11-2 2 2 1-1h1q-2-2-4-1m1 2 1-1-1-1zm12 2-1-1-1 1zm0 0-1-1v-1h1zm-12-1-1-2 1-1h1l1 2zm0-1 1-1-1-1zm12 2-1-1h-1v2zm-50 48v2q2 10 8 17l-1 1a39 39 0 0 1-8-19zm11 1 5 8 1 4h-1l-1-4q0-4-4-7zm96 29-3-2h-1l-1-1-2-1-2-1 1-1 1 1 2 1 1 1 1 1zm-87-20 3-3 3-2-3 3zm79 19h-1v-1h-1l-3-2 1-1q0 2 3 2v1h1l1 1zm-98-39v3zm65 33 1-9v-11l-5 1-8-3-2-2h1l1 1q2 3 8 3 6 2 6-6v-7q3 8 0 12v13zm-40-12v-15q-1 4-5 4 4-1 5-6v-6l1 2-1 9 1 9v3zm0-23 2 7q3 5 10 6 5 0 9-4l1 1q-6 4-10 3-8-1-11-6zm6 12-1 3v10q3 8-1 15l-1-1q4-6 2-14v-13zm12 8-2 6-4 8q4 2 4 9h-1q0-7-4-9v-1l4-7zm12 0 6 13h-1q1-3-6-13zm-2-28h3l9 1v1q-3-2-9-1zm-2 31v5l-1 7 1-7zm-20-33h12v1l-11-1zm23 45 4 2 1 8-2-8zm-10-53v3q1 5 5 6l-1 1q-4-1-5-7zm23 42 1 2 4 7-4-7zm-18-18v-9h1zm-12 9-1 3-2 3h-1l2-4zm43 20h-3l-1 1-2 1h-1l3-2 3-1zm-33 0q-3-1-4 3v-1q0-3 4-3zm8-52-1 4v2l-1-1v-1l1-4zm-5 33 1 2v1zm-18-5 2-1-2-1-1 1zm31 4-1-1-2 1zm0 1-2-1v-2h2l1 1zm-31-5v-2h2l1 1-1 1zm31 4h-1v-1h-1l-1 1zm-31-4h1v-2h-2v1z"/><path fill="#fff" d="M376 469c2-11 7-19 7-20l14 4 15 2h9l1 7 4 46 1 16 3 54h-3c-1 0-18-1-19-4 0-3-1-36 1-56l-1-8-6-16-8 24-2 55-12 8c-2 0-12-5-12-7q-1-4 6-44v-14z"/><path d="m376 469 6-20h1l27 6h11l2 7 1 16 2 30 1 16 3 54h-3l-16-2q-4 0-4-2v-2q0-36 2-54l-4-13-3-10-8 23v22l-2 34-12 8-7-3-6-5q-2-5 6-44l1-14q0-36 2-47m0 0a412 412 0 0 0-2 61q-8 39-6 44l5 4 7 3 12-8 1-33 1-22 8-24 4 10 4 14q-2 18-2 54v2l3 2 6 1 10 1 3-1-4-53-1-16-2-30-1-16-2-6-8-1h-2l-13-2-14-3-1 1zm34-11q6 3 6 1h1q2 40 5 63h-1l-5-62zm-15-2-4 20-4 40v-1a318 318 0 0 1 8-60zm27 82v14q1 13 5 25h-1a97 97 0 0 1-4-39m-19-80-1 24 1 2 2 2h1-1q-2 1-3 8 0-7 2-8l-2-2-1-2zm-16 67-1 10-1 18h-1l1-18zm-3 32-2 8-2 16h-1l4-25zm23-94v22h-1zm-21-10q-2 9-9 14l-1-1q8-4 9-13zm11 23-4 15-1-1zm-3 42-4 8-1-1q3-2 5-7m16 0 1 6h-1q1-3-1-6zm-11-60-1 6zm11 30 2 6h-1q1-2-2-5zm-22-35 4 2z"/><path fill="#9b5f00" d="m382 449 1-7 28 6h10v7a91 91 0 0 1-39-6"/><path d="m381 449 2-7 11 3 17 3 10-1v1l1 8h-12l-19-4-9-3zm1 0 9 2a95 95 0 0 0 30 4l-1-7-9 1-17-3-10-3z"/><path fill="#fff" d="m386 450 1-7 1 1v7zm29-2v8l2-1v-7zm-21-3v7l1 1 1-7z"/><path d="M415 448h2v8h-2zm-29 2v-7h2v8zm8-5h2l-1 8h-2zm21 10h1v-7h-1zm-29-5h1l1-6h-1zm8 2 1-6z"/><path fill="#ffa54b" d="m371 577-1 7q-1 2 1 5 2-1 2-4v5c3 1 3-4 3-4v6c3 0 3-5 4-5-1 0-2 5 0 6l2-6c0 1-1 6 2 7l3-4v-9l-1-4-6 4zm39-1-1 4q0 3 5 4l12 1 9 3h5l4 1 2-2-4-3-7-2-7-4-8-1z"/><path d="m410 576 8 1h2l8 1 7 4 7 2q4 0 4 3l-1 1-1 1h-2l-2-1h-5l-9-2-8-1h-4l-4-2-1-3v-4zm-39 1 7 4h1l6-4h1v14l-3 3-2-1v-1l-2 1-1-1-1-1-2 1-1-2-2 1-1-2h-1l-2-2v-3zm39-1v5l4 2h4l8 1 9 2h5l2 1h3l1-1-4-2v-1l-8-3-6-2-8-1h-2zm-39 2-1 6v3l1 2 1-1 1-3v5l2-1 1-3v4l1 1 1-1 1-1v-2h1l-1 3v1l1 1 2-2v-3h1l-1 3v1l1 2h1q2 1 2-2v-1l1-1v-8l-1-3-6 4z"/><path fill="#ffb366" d="M344 398q-2-1 0-4l3-2 4-2 4-1 4 4-1 3q-1 1-1-1l-1 2q-2 2-2-1l-1 3-3-1v2h-2q-1-2-5-2"/><path d="M344 399v-1l-1-1 2-3q0-2 3-2 1-3 4-2l4-2 2 2q3 2 2 3 1 2-1 3v1l-1-1-1 2h-2l-1 1h-2v1h-3l-1-1zm-1-1q3-1 5 1l2 1v-2h-1 3l2-2v1h1q0 1 0 0 2 0 1-2h1v1h1l1-3-2-2-2-2-4 1-4 2q-2 0-3 3l-1 2zm11-1-1-1v-1l-4-3h-2v-1l2 1 5 2zm2-2q-1-4-5-4v-1q4 0 6 4zm-6 3v-1h-1l-4-1v-1l4 1 1 1 1 1z"/><path fill="url(#c)" d="m584 398 1 2 1 5 2 3c3 2 9 6 13 4l1-1q-2 2 4 9l18 12 3 2v8l1 3 5 8 3-4-2-6v-8l3-2 2 2-2 1 1 5 12 8-2 2c0 1-2 14-5 20q-5 6-6 4l-3 3q-2 1-5-2-1-4-5-6c-2-3-7-8-7-11 0 0-3 9-3 16h-21l-15-4-1-10-3 7-5 7q-5-2-6-5v-9l-11-2-7 1q-3-2-1-3h-9l1-1q1-3 5-3l6-1 8 2 8 2q1 2 1-1v-11q3-3 1-7l-1-10q2-10 11-11t9-5z"/><path d="M584 398h1v2l1 2v3l3 3q7 6 12 4l1-1 1-1-1 1q0 5 4 9l10 7 11 6v1l1 9v1l5 9q3-1 3-4l-1-4-1-2v-1l-1-7 3-2h3v2l-1 2v4l13 7v1l-2 3h-1v3q-2 12-5 16-2 4-5 4v1h-1l-2 2h-3l-4-2-4-6-7-10-3 15v1h-21l-15-4-1-1-1-8-1 5-2 2q-2 5-4 5l-4-2-2-3v-9l-11-2h-1v1h-6l-2-1v-2l-2 1-6-1v-1l6-4h1l5-1 8 2h1l7 3h1v-12l1-7-1-10q-1-8 11-11 8-2 9-5zm-7 63 1 10q5 3 15 4h21l2-16h1q0 3 8 10l4 7 3 1h2l3-2h1l4-5q3-3 5-15l1-4 2-2-12-8-1-5h1l1-1-1-1v-1l-1 1q-3 0-3 2l1 5v2l1 2 1 4q0 3-4 4l-1 1v-1l-5-8v-3q2-4-1-8l-10-7-10-7a9 9 0 0 1-4-8h-1q-4 3-13-3l-2-4-1-3v-2l-1 5v6q1 4-9 6-10 1-11 10l2 10-1 7q-3 4-1 11v2h-1l-7-3h-1l-8-2-5 1h-1l-5 3 5 1h4l-1 1q-1 0 0 0l1 1h7l11 1v10l2 2 4 2 4-4 1-2z"/><path fill="url(#d)" d="m607 386 1 7v4q1 4-3 10l-4 5c-4 2-9-2-12-4q-3-1-3-3l-1-5-1-2-2-4q0-3 3-2l-1-8 1-3q9 5 20 5z"/><path d="m607 386 2 7-1 2v2q1 4-3 10l-1 2-3 3q-3 2-11-2l-1-1q-3-1-3-4l-1-3v-3h-1l-2-4v-3l2-1v-10h1q6 3 17 4l3 1v-1h1zm-1 0h-3l-17-4v10h-2l-1 2 1 1 1 3h1v2l1 2v3l3 3 1 1q7 5 11 3l3-4 1-1 3-10v-4zm1 2v-6l-3-3-3-3-3-1h-12l-4 4-1 9c0 6 1 5 1 5l3-1-1-4 1-7 12 4h9zm1 0h-2l1-1-1-2h-9l-12-4v12-1l-1-1h-1v1h-1l-1-5 1-9 4-4 5-1h2l5 1 2 1h2l2 2 1 2 2 2zm-1-1v-5l-2-2-1-1-3-2-1-1-3-1h-6l-4 1-5 3v1l-1 8 1 4v1l1-1 1-1v1-5l1-6 12 4h10zm-8 7 1 2v1h-1zm-13 4h-1v-1zm21-5h-4v5l1 3-2 1h-1v-1h-3l-1-2h1v2h5v-3l-1-1q-2-4 1-5zm-4 13-2-1v1zl-4-1h-3v-2h3l2 1q2-1 3 1zm-6-13-3-2-5 1h-1q3-2 6-1 4 0 4 2zm-1 13q4 2 7 1v1zm4 0h-4 3z"/><path fill="#fff" d="M607 395q0-2-4 0l2 2zm-11-1-4-1h-2l2 2h3z"/><path d="m596 394-2 1h-3l-1-1h-1v-1h5zm11 0q0 2-2 2h-1l-1-1-1-1 1-1zm-11 0-1-1h-4l1 1 1 1h3zm11 1h-3l2 1q1 1 2-1m-3 1v-1l1-1 1 1zm-11-1-1-1 1-1 1 1zm0 0h-1v-1l1-2 1 2zm11 1-1-1 1-1 1 1zm-11-1 1-1-1-1-1 1zm11 1v-1h-1l-1 1zm39 59-1 1q-1 10-7 16a31 31 0 0 0 8-17m-12-2q-4 3-4 7l-1 3v1l1-4q1-4 5-6zm-95 4 2-1 2-1h1l1-1h2v-1l-2 1h-1l-2 1h-1zm87 3-4-3-2-4h-1q0 3 3 4zm-80-3h2q3 0 3-2l-3 1h-2zm98-13-1 3h1v-4zm-65 17-1-9v-9l1-2 4 2h9l1-2h-1v1l-9 1q-5-1-6-8l1-7h-1q-2 8 1 12v3l-1 9zm40-2v-2l1-9-1-3 5 5q-4-2-5-8l1-5h-1v20zm0-22-1 6q-2 5-11 3l-9-5q4 5 9 6 9 0 11-4zm-5 11v12q-3 8 2 16v-1q-3-7-1-15v-12zm-12 4 2 7 4 8q-4 2-4 9h1q-2-7 3-8h1l-1-1-3-8zm-12-3q-7 8-6 12h1q-1-4 5-11zm1-28h-2l-10-2v1l9 1zm3 32-1 5 1 8 1-1zm19-28-11-2zm-23 39q-1-1-3 1l-2 8h1l1-7zm11-50-1 2q0 6-4 6v1q5-1 5-6zm-24 36-1 2-4 5 1 1 4-6zm18-13 1-9h-1zm12 12 2 3 1 4 1-1-2-4zm-42 8 3 1v1l3 2-3-3zm32 9q4 0 4 4h1q-1-4-5-5zm-7-54 1 4v2h1l-1-2zm4 34v1l-1 2 1 1 1-3zm18 0-1-1 1-1 2 1zm-30-4-1-1 1-1 1 1zm0 1 1-1 1-1-1-1h-1l-2 1zm30 3h1l1-1-1-1-1-1-1 1v2zm-30-4-1-1v-1h1l1 1zm30 4v-1h2v2z"/><path fill="#fff" d="M622 504c-1-11-6-21-6-22l-14 1-15-2-9-2-2 6-3 45-1 16c0 13-4 39-4 53l4 1c1 0 18 4 19 1 0-3 1-36-2-57l2-7 5-15c1 0 8 23 8 27l3 55 12 11c2 1 11-3 12-4q1-4-6-46c-2-9-1-11-1-14 0-2 0-37-2-47"/><path d="m623 503-7-21-28-1h-1l-9-3-2 7-1 15-2 30-2 16-1 25-2 28 4 1 16 3 3-2v-2q1-36-2-55l4-12 4-8 7 25 1 21 1 34v1l13 10q2 2 6-1l6-3q2-5-6-46l-1-14zm-1 1a424 424 0 0 1 3 61l6 46-6 2-6 2-12-11-2-34v-21l-8-27h-1l-3 10-3 5-1 7q2 19 1 55v2l-2 1-7-1-9-2-3-1 3-52 1-16 2-29 1-16 2-6 9 2 1 1 14 1h13l1 1zm-33-19-7-1h-1q-2 39-5 61h1q3-21 5-60zm14 1 4 21q4 20 4 41h1a342 342 0 0 0-8-62zm-27 75a91 91 0 0 1-5 37l1 1a83 83 0 0 0 5-38zm20-75 1 24-1 2-2 2h-1 1q2 1 2 8h1l-2-8 1-1 1-3zm16 71v10l2 19-1-19zm3 33 2 9 1 16h1zm-24-100 1 23h1zm21-5q3 10 10 16-7-6-9-16zm-10 21 4 15zm2 43 5 8zm-15-5q-3 3-1 6zm10-56 1 6h1l-1-7zm-10 27q-3 3-2 5zm21-30-4 1h5z"/><path fill="#9b5f00" d="M617 482q1-1-2-6h-11l-16-2-10-3-1 8a95 95 0 0 0 40 3"/><path d="m617 482-2-7h-11l-16-1-10-3h-1v8a80 80 0 0 0 30 4zm-1 0h-9a84 84 0 0 1-30-4l1-6 10 3 16 1h11z"/><path fill="#fff" d="m613 482-1-6h-2l1 7zm-29-9-1 8-1-1v-7zm20 3 1 7h-1l-1-7z"/><path d="m584 473-2-1-1 8 3 1zm29 9-1-7h-2v8zm-9-6h-2l1 8h2zm-21 4v-7h1zm29 2h-1v-6zm-8 1-1-7h1z"/><path fill="#730000" d="m627 613 2 8q1 3-2 4l-2-4q2 2 0 5-3-3-3-5 2 4 0 5c-2 0-3-5-3-5s2 5 0 6c-3-1-3-6-3-6s1 6-2 6l-2-5q-2-2-1-9l1-3 7 5c1 1 8-2 8-2m-39-11 1 4q1 4-5 4l-11-3h-9l-5-1h-4l-2-3q0-3 4-1l6-1 8-1 7 1z"/><path d="m588 602-8-1h-2l-7-2-8 2h-7q-3 0-4 2l1 2 2 1h4l5 1 9 1 8 1 3 1 5-1v-7zm40 11-8 2-7-6v1l-1 3v9l1 1 2 4 2-1 1-1 2 2 1-1v-1l2 2 1-2 2 1 1-1h1l2-1v-3zm-39-10 1 2v1l-1 3h-4l-3-1-8-1h-9l-5-2h-4l-1-1-1-1 3-1h7l2-1 6-1 7 1 2 1zm38 11 1 9-1 2-1-2v-2h-1l1 2-1 2-2-1v-3h-1l1 3v1l-1 1-2-2-1-3v5l-2-2v-3h-1v5h-2l-2-3v-9l1-4 6 5q1 2 8-1"/><path fill="#730000" d="M653 445q2-1 1-4 0-2-3-3l-4-3-4-2-4 3v4q2 1 2-2-1 1 1 3h2l1 2h3q-2 0-1 2h3q0-2 3 0"/><path d="m653 445-2-1v1h-4v-1h-2l-1-2h-2l-1-2h-2l-1-4 2-2 3-2 4 3q3 0 4 2l3 3 1 3zm-12-6 1 2 1 1v-1h1l1 2h4-1l-1 1v1h3v-1l1-1 2 1 1-1v-2h-1q0-3-2-3l-4-3h-1l-3-2-2 1-2 2 1 3q0 2 0 0zm2 1 1-1q1-2 5-2h1v1h-1l-4 1-1 1zm-2-2q1-5 5-3-3 0-5 3m6 5 1-1 1-1 4-1v1h-4l-1 1z"/><path fill="#730000" d="m641 434-3 3 1 3h1l1 2h2l2 2h2v2h2q1-2 4-1l1-1-10-8z"/><path d="M639 436v4h1q0-4 3-5l1 1q-3 1-3 4v2h2q0-3 3-5l1 1q-3 1-3 4l1 2h2v-1l3-3v1l-2 2-1 1v1l1 1 2-1h2l2-1-1 2-2-1-1 1-3 1-1-1v-2 1h-2l-1-2h-2l-1-2h-1l-1-1z"/><path fill="#5ac800" d="m389 583-1-6 3 2 1-5 2 3v-5l4 5 1-6q2 1 3 6c0 2 2-3 3-3l2 7 1-2 2 5 3-4 3 6h5l1 4 3-3 3 3 4-1 3 3 2-2q3 0 3 2l3-4 3 5 1-4q1-1 2 2l2-6 3 3c2 2 2-2 2-3l4 8s-22 4-38 0zm151 21 3-4 2 5 3-1 2 3 2-2 3 3 4-2 2 3h7l2 1 3-3 2 3 4-3 2 3 3-2q2-1 4 1l1-3q1-1 3 2l3-3 1 5 4-2v7s3-5 4-3v7l3-1 1 4 4-1c-1 0-19 1-37-3-18-5-35-14-35-14m-13 12c1 0-6 13-23 12-23-3-42-17-42-17l4-5 4 6 1-3q2 0 5 5l2-3q2 1 3 5l4-2 3 7 4-2q2 1 2 6l8-2 4 3 4-5q2 0 3 3l3-5q2-1 2 3l3-4 2 3z"/><path fill="#060" d="M388 583v-7l3 2v-4l3 2v-5l4 5 1-5 3 6 1-1 1-3h1l1 4 1 3 1-2 2 5 3-4 3 6 6 1v3l2-2 4 2h4l3 2 2-2 2 1 1 1 2-3h1l3 4 1-4 1 1 1 1 2-5q3 0 4 3v1-5l1 1 4 8h-1l-3-7v2l-1 1-1-1-3-2-2 6v-1l-1-2h-1l-1 4h-1l-2-4-3 4v-1l-1-2h-1l-2 2h-1l-3-2h-4l-3-3-3 3-1-4h-6l-2-5-3 4-2-6-1 3-2-5-1-2-1 3h-1v-1q0-3-3-5l-1 5v1l-4-5 1 5-1-1-2-2-1 5-2-3zm152 21 2-4h1l3 5 2-1 2 2 2-1 3 2 4-1 2 2h7l2 2 3-3 2 3 4-3 2 2 3-1v-1h2l2 1 1-2v-1l1 1 2 1q0-2 3-2l1 5 4-2h1v5h1l1-2h1v1l1 7 2-2 2 4h2l1 1h-4l-1-4-3 2v-8h-1l-1 1-2 2v-6l-4 2h-1v-5q-2 0-3 2v1l-1-1-1-2h-1l-1 3-1 1v-1l-1-1h-1l-4 2h-1l-1-2-4 3-2-3-3 3-2-2h-7l-2-2-4 1-3-2-2 1-2-2-2 1h-1v-1l-2-4zm-79 6 4-4v-1l1 1 4 5 1-3 5 5 2-2h1l1 1 1 4 3-2h1q3 2 3 6 3-2 4-1 3 3 2 6l2-1 6-1v-1l4 4 4-6 3 3 2-5 3 1v1l3-3 2 3 4-4-4 5h-1l-1-3-3 4-1-2-1-1q-2 0-2 5h-1l-3-3-4 6-4-4-6 2h-2q1-3-2-6l-4 2-4-7-3 3h-1v-4l-1-2-3 3v1-1l-5-5-1 4v1l-1-1q-1-4-4-7z"/><path fill="#fff" d="M499 671c30 4 48-4 58-9 23-13 27-13 31-12q8 1 11 7c0 6-9 7-14 7-6-1-20-7-20-7l-4 2c3 2 31 16 38 7l11-23c0-1-6-12-21-15-14-1-28 6-37 11-10 6-21 14-53 9-31-5-43-16-52-25-10-8-23-19-38-21-14-2-20 9-21 9 0 0 6 16 12 26s34 5 37 4l-3-3h-20c-6 0-14-4-15-10q3-5 11-4c4 0 9 1 32 20 9 8 27 22 57 27m-48-44v-7q-2-7-6-6l-4 4-5-3 9-4c2 0 20 10 26 17 1 2 2 9 1 12q-14-6-21-13m-9 18s-4 3-4 11c0 9 6 10 10 10q8 3 9-11s-8-4-15-10m105-3 1-7q2-6 5-4l5 5 4-2-9-7c-1 0-19 5-25 9-2 2-3 9-2 13q14-2 21-7m9 20s4 5 4 12c0 9-5 9-10 8q-7 0-9-14s8-2 15-6"/><path fill="#69f" d="M433 638h-19c-6 0-14-4-15-10q3-5 11-4c3 0 8 1 23 14m132 19s14 6 20 7c5 0 14-1 14-7q-2-6-11-7c-3-1-7-1-23 7m-114-30-4-4-6-5 4-4q4-1 6 6zm-10 37q4 3 7 2 8 3 9-11l16 8 2 7q-1 6-4 6l-23-8zm106-22 5-3 6-3-5-5q-3-2-5 4zm10 40h-7q-7 0-9-14l-16 3-2 6q0 6 5 8h4l18-1z"/><path d="M499 671q-33-5-58-26l-4-4-17 3q-17 0-21-6l-11-27 5-6q7-4 16-4 16 3 38 22l1 1q10 9 18 13 13 7 33 10 21 3 34 0 8-2 17-8h1q23-13 38-11 10 1 16 8 4 3 5 7h1-1q-5 15-11 24-4 5-20 0-12-3-18-7l-4 2q-27 14-58 9m1-1q31 5 57-9l8-4 14-7h9q12 2 11 7 1 5-5 6-4 2-9 1-5 0-20-6h-1l-2 1q6 4 17 7 16 5 19 0l12-23a29 29 0 0 0-21-14q-16-2-37 11h-1q-10 6-18 8-13 3-34 0-19-3-34-10l-18-14a78 78 0 0 0-38-22 21 21 0 0 0-20 9l11 26q4 6 20 6l16-3-1-1-2-1-19 1-10-3q-5-4-5-8 0-5 11-5l9 4 15 10 1 1 7 6q26 21 57 26zm-68-33q-16-12-22-13-10 0-10 4t5 7l9 3zm134 20q13 6 19 6h9q5-2 5-6-1-4-11-6-6-1-22 6m-132-19-20 1-10-3q-5-4-5-8 0-5 11-5 7 1 24 14zm131 20q17-9 23-7 12 2 11 7 1 5-5 6-4 2-9 1-6 0-20-6m-133-21q-16-12-22-13-10 0-10 4t5 7l9 3zm134 20q13 6 19 6h9q5-2 5-6-1-4-11-6-6-1-22 6m-114-29-2-1-4-4-4-4-2-1q3-4 5-4l4 1 2 5v7zm-2-2v-6l-2-4-3-1-4 3 1 1 5 4zm0 0v-7l-2-4q-2-2-3-1l-4 3v1l-1-1-4-3v-1l4-2 5-2 11 7 15 10 2 7v7h-1q-11-5-21-14zm-8 17 15 11h1q0 13-10 12l-7-2q-3-3-3-9 0-8 4-12m-2-27 5-3q1-1 4 1l2 5v7q10 8 21 13v-6q0-5-2-6-3-4-14-11l-11-6-4 2-4 2zm2 28-4 11q0 5 4 8l6 2q8 0 9-10zm3 2 7 5v8q-1 4-5 4-3 0-5-3l-2-5q1-6 4-9m-3 9 2 5 4 2q3 0 5-4l-1-6-6-5zm0 8 7 2q9 1 9-11v-1 1l16 8h1l2 7-2 5q-2 2-3 1l-15-4-8-3q-6-2-7-5m3 2 4 2 8 3 15 5 3-2 1-4-2-6-15-8q0 11-10 11zm104-24 1-6 2-5h4l4 5 1 1h-1l-1 1-5 3zm0-1 4-2 5-3v-1l-4-4h-3l-2 4zm-1 1q-10 6-22 7v-7l1-6 15-6 11-3 5 3 4 3 1 1h-1l-4 2-1 1v-1l-4-5h-3l-2 4zm10 20q4 5 4 12t-4 8h-7q-9-1-9-14l15-6zm-10-21 1-6 2-5h4l4 5 3-2-8-5-11 3-14 6-1 5-1 6q11-1 21-7m9 22-14 6q0 10 8 13l7-1q3-1 3-7 0-7-4-11m-3 0q4 4 4 10 1 4-2 5-1 2-5 1-3 0-5-5v-7l1-1zm0 1-7 3v7q1 4 5 4h4l1-5zm4 17q-2 2-8 3h-22q-3 0-4-3l-1-5 2-6 16-3h1q0 12 8 14zm-7 1q-9-1-9-13l-15 3-2 5 1 5q1 2 3 2h22l4-1z"/><path fill="#fff" d="m459 661 14 8-1 1zm81 13-14 4v-1zm-3 3-9 3-1-1zm-76-12 10 5v1zm66 9-2 2q0 3 2 5v1q-4-3-3-6zm-55-9 2 3q1 3-2 5h-1q3-2 2-5l-1-2zm-7-2 7 4v1zm69 11-7 2-1-1z"/><path d="M419 616v1l-2 2h-3l-3-2v1h-1l1-4h1v3l1 1 2 1h1l1-1v-2l-1-1-1-1-1-1-2-2v-2l1-1h1l2-1 2 1 1 1h1l-1 4-1-1v-2l-1-1-1-1h-1l-1 1v1l1 2h1zm17 5h-1l-1 2-3 4-1 1h-3l-2-2-1-2v-2l3-6v-1l-1-1h1l4 3h-2l-3 5-1 1v1l1 1 1 1 1 1h1l2-1 2-4 1-1v-1l-1-1v-1zm6 11v2l-1 1-2 1-1-1-1-1-5-3v-1l1 1h1l4-7v-2h-1 1l4 3 1 1 1 1v1l-1 2h-3l1 1zm-1-3v-2l-1-2-1-1-2 4 1 1h2m-1 4v-2l-1-2h-1v-1l-2 4v2h2zm26 10h-1v1l-1 1-2 4-1 2h-3l-1-1-2-1-1-1v-3l3-6v-1h-1v-1l5 2-1 1h-1q0-1 0 0h-1l-2 6v3l1 1h4v-1l2-4 1-2v-1h-1l-1-1h1zm12 17-5-2 1-1h2l2-8-7 7-1-11-2 7v2l1 1v1l-4-2v-1h2v-2l2-5v-2h-1v-1l4 2v9l5-5 1-2 4 2-1 1-1-1v1l-3 8 1 1zm12-2 1 1v3h-1l-2 1-1-1-6-1 1-1h1l1-8v-1l-1-1 5 1h1l1 1 1 1v1l-1 2h-2v1zm-1-2v-3l-2-1h-1v4l1 1h2m0 4v-2l-2-1-1-1h-1v5l1 1 2-1zm16 6-3-1-2-3-2-3h-1v5h1v1l-4-1v-1h1v-10h-1v-1l5 1h1l1 1 1 1 1 1-1 2-1 1h-1l1 2 2 2 1 2zm-4-10-1-1-2-1-1-1v5l1 1 2-1zm17 11h-5v-1h2v-1l-1-3h-5v3l2 1h-5v-1h1l1-1 2-5 1-5h1l4 11 1 1zm-5-5-2-5-1 4zm22-6-1-1-1-1h-3l1 5h1l1-1 1-1v-1l1 5-1-1-1-1h-1l-1 1 1 4h2v1l-5 1v-1h1v-1l-2-9h-1l-1-1 9-1zm13 1 1 3-8 3-1-1h1l1-1h-1l-3-8v-1h-2l4-2v1h-1v1l4 8v1h1l2-1h1v-3zm6-11 3 4 1 2v2l-1 2-4 2-4-2-1-2-1-3v-2l1-2 2-1zm3 8v-2l-3-4-1-1-2-1-2 2-1 1 1 2 2 4 1 1 2 1h1l1-1zm14-6-2 2-3-2-3-1h-1l2 4h2l-4 3v-2h1-1l-4-8-1-1-1 1-1-1 5-2 1-1h2l1 1 1 2v1l-1 1v1l2 1 2 1zm-8-6-2-1-1 1h-2l3 5 1-1 1-1zm18 0 1 4-9 2-1-1h2v-1l-3-8v-1h-2v-1l8-2 1 3-2-1h-4l2 5 1-1h1v-2h1l1 5-1-1v-1h-3l1 4v1h3l1-1h1v-3zm9-7 3 7-1 2-4 2-4-2-2-4v-3l1-2 3-1zm0 9 1-2-1-4-1-2-1-1-2-1-1 1-1 1v6l1 2 1 1h3zm-33 2 2 2 1 3v3l-1 2-2 1h-2l-5-2-2-2-1-3 1-2 1-2 4-2 2 1zm35-12 2 5v3l-1 2-2 1-2 1-5-2a8 8 0 0 1-2-8l1-2 4-2zm-113 25-3-1-2-1v-2l1 1h1l2-6-6 6h-1v-10l-1 5-1 1v1h1v1h1l-1 1-5-2v-2l1 1h1l1-2 1-5 1-1h-1v-1h-1v-2l5 2 1 6v3l3-4 1-1v-1h1l1 1 3 1v1h-2l-2 8v1h1zm-36-28v3l-1 1h-3l-2-1-5-4 1-1h1v1l1-1 2-4 2-2v-1h-1v-2l5 4 2 1v1l1 1-2 2-1 1h-1zm49 27 1 2-1 1-1 1h-3l-3-1-3-1v-1h2l1-9h-1l-1-1 1-1 5 2h2l1 1 1 1v2l-2 2 1 1zm10 7-1-3h-1l-1-2h-1v3l1 1h1v1l-6-1v-1h2v-9h-1v-1h-1v-1l6 1h1l2 1 1 1v3l-1 1-2 1h1l1 1v1l1 1 1 1v1h1v1h1zm70-17-1 1h-1l-2-1h-1l-2-2-1 1 2 2v1h1v-1h1l1 2-4 2h-2v-1l1-1-1-1-4-7h-1l-1-1 2-1 2-2h2l1-1 2 1 1 1v5h1l1 1h1l2 1v-1h1v1zm10-7 1 2v2l-5 1-5 1v-1h1v-1l-1-4-2-4v-1h-2v-1l9-2 2 3-1 1h-1v-1l-1-1h-2l-1 1v1l1 2h1l1-1v-1l1-1 2 6h-2v-1h-2v1l1 2v1h1l1-1h1l1-1v-2zm-145-21h-1l-1-1v1l-1 1-2 3v1l-1 1-2 1-3-2-2-1-1-2v-3l4-5v-1h-1v-2l3 2 2 2v1h-1v-1h-1l-3 5v3l1 1 1 1h1l1-1 3-4v-3h-1l1-2v1l5 3zm30 22h-1v1l-2 5-2 1-1 1-2-1-4-3-1-2 1-1 2-6v-1l-1-1h1v-1l5 3v2l-1-1h-1l-3 6v1l1 1 1 1 1 1h1l1-1 1-3 1-2v-2h-1v-2zm-46-27v1l-2 3h-3l-1-1h-1v-1h-2v-3l1-2 1 1v1l1 2 1 1h2l1-1-1-1v-1l-1-1-2-1-1-1v-4l1-1h2l3 1h2v1l-1 4h-1v-2l-1-1v-1h-3v1l1 1 1 1 2 2zm98 51h-5v-2h1v1-1l-1-2h-3v1h-1v1h2v2l-5-1v-1h1v-1h1v-2l1-3 2-5h1l4 8 1 3v1h2zv1zm17-11h-1l-1-1-1-1h-1l-2 1 1 3h2v-2h1l2 6h-2v-2h-2v4h2l1 1-6 1v-1h-1 1v-1h1l-2-9h-2v-2h2l7-1zm13 1 1 3-9 4v-2h1v-1l-4-8h-1v-1h-1v-1l5-1 1 1h-1v1l3 8h1v1l1-1h1v-1l1-1v-2zm8-3v-2l-2-3-1-2h-3l-1 1v3l2 4 1 1 2 1 1-1 1-1zm34-10v-6l-1-2-1-1h-3l-1 1v6l1 2 1 1h3zm-101 15-1-1-1-1h-1v2l-1 1 1 1h2zm-49-26v-2l-1-1-1-1-1 2-1 1 1 1 1 1zm-21-17-1-1-2-2-1-1-1-2 1-1-1 1v2l1 2h1l1 1zv3l1-2zm143 27-1-1h-2l1 2 1 2h1l1-2zm-62 13v-1l-2-1h-1v4h2zm44 5-1-1-3-8v-1l-2 1h1v1l4 8v1zm-66-13-3 8v1h-1 1l1 1v-2l2-7zh1l-1-1zm-38-24-1-1v1h-1l-1 3-3 4-1 1 2 1v-2h1l1-3zm16 25-1-1-1-1v-2l1-1 2-5v-1h1l-2-1v1l-2 6-1 1 1 2 1 1zm120-2-1-1v-1l-1-1-1-3-1-3v-2h-2l1 1 2 5 1 4v1zm-152-22v-4l1-1 2-4 1-1-1-1v1l-4 6v2zl1 2zm61 31 1-5-2-1 1 1v1l-1 8-1 1h2l-1-1 1-1zm43-2h-1zh1l2 9v1h1v-1l-2-5-1-4zm-32 5v-6h-1v1h1v9h-1v1h2l-1-1zm65-12-1-2-2-3-1 1 1 1 4 6 1 1v2l1-1v-1h-1zm-44 19v-1l-1-3-3-7h-1v1l1 1 2 5v1l1 2v1zm-45-11v-5l-1-5-2-1v1h1zm16 0v-2l-2-1h-1v3h2m-47-26h1v-1l-1-2h-1l-1 3 1 1zm116 25v2zv-2l-3-4-1-2h-2l1 1 2 1 2 4zm33-18-2-1 3 3v6l-1 1 1-1 1-2v-4zm-4 9-1-1-1-2-1-4v-2l1-1-1 1-1 2 1 4 1 2zm-33 12h-1l-2-2-2-4v-3l-1 1v2l3 5 1 1zm-50 8-1-1-1-1v-1l-1-1-1-2h-1 1l1 3 2 3zm67-16-2-1h-1l-1-1h-1l-1-1h-1v1l3 1 3 1zm-70 5 1 2-1 3 1-1 1-1v-2l-1-1zm63-12 1 3v-2l-1-2-1-1-1 1zm-73 16 1 2-1 2h-1 1l1-1 1-1v-1zm-49-27-1 2-1 2h-1 2l1-1zm48 25 1-2v-1h-1l-1-1 1 2zm-48-26h2l1-2v-1l-1-1v2zm70 28v1l-1 2h3zm37 0-1 2h1zm-134-39-2-2v-1 2h1zm167 24-1 1v1l1-1v-2m-47 12v-2h-2zm-67-2 2 1v-1zm-32-33-2-2v2zm30 22-2-1v2-1zm67 17h1l1 1-1-2zm-113-49 1 1v1-3zm157 31v-2 1zm-68 23v2h1zm57-202v74q0 25-9 44a74 74 0 0 1-55 43h-1a115 115 0 0 1-64-106v-75l128 19v1zm-2 0-126-19v74q0 24 9 46 15 39 54 59 39-9 55-43 8-18 8-43z"/><path fill="#552300" d="M716 523q1 45-17 86-16 39-46 67t-69 39q-40 12-84 5-43-6-84-30a276 276 0 0 1-115-129 231 231 0 0 1 0-172q16-40 46-67 30-28 69-40 41-11 84-5 44 8 84 30a276 276 0 0 1 115 129q18 42 17 87m-5 0q0-45-17-85-15-39-45-72a269 269 0 0 0-149-83q-43-7-82 4-38 12-67 39-30 27-45 65-17 39-17 83 0 45 17 85 15 40 45 72a269 269 0 0 0 149 84q43 6 82-5 38-11 67-38 30-28 45-66 17-39 17-83"/><path fill="#007f00" d="M475 263c20-18 37 8 37 20-1 12-20 33-38 11 18 7 24-12 33-12-9-1-13-22-32-19M274 408c-9-27 19-31 29-25 11 6 24 35-2 41 12-14-3-28 0-37-4 8-23 2-27 21m434 22c26 12 10 36-1 40-11 3-40-7-28-31 2 19 22 18 26 27-3-9 14-19 3-36M362 673c-28-6-20-33-11-39 10-6 41-2 36 24-8-18-27-12-33-20 6 8-8 22 8 35m286 18c0 29-29 21-37 11-7-10-10-41 17-36-17 8-7 27-13 33 7-5 23 8 33-8M295 354c-2-29 26-24 35-15 8 9 14 40-13 38 15-10 4-28 10-35-7 6-23-5-32 12m30 272c-28-7-17-34-7-40 10-5 40 0 34 26-7-18-26-14-32-21 5 8-9 21 5 35m222-351c26-9 33 21 29 31-5 10-31 22-41-4 15 13 27-2 36 2-8-5-5-24-24-29m54 447c-13 24-36 3-39-9-2-12 9-39 32-22-19-1-19 19-27 22 8-2 18 17 34 9m124-240c21 20-2 37-14 37-11-1-36-21-17-38-4 18 16 24 17 33 0-9 19-13 14-32M365 287c7-28 33-12 39-1 5 11 1 41-24 30 18-4 12-24 20-28-8 3-21-14-35-1m-84 235c-24-15-6-37 6-39 11-2 39 12 24 34 0-19-20-20-23-29 2 9-16 17-7 34m360-179c29-1 27 28 20 36-8 8-38 12-40-15 12 16 28 6 36 12-7-7 2-24-16-33M481 732c-26 8-32-22-27-32s32-21 41 6c-16-13-28 1-37-3 8 5 4 24 23 29m233-134c12 27-17 33-27 27-11-6-26-34 0-41-11 15 4 28 2 37 3-8 23-3 25-23M270 465c-16-25 11-36 22-33 11 4 31 29 8 41 8-17-10-27-9-36-2 9-22 8-21 28m153 241c-26 6-31-23-25-33 6-9 33-19 41 8-15-14-29-1-37-5 8 5 2 24 21 30m-7-440c16-22 36 2 38 14 1 12-14 37-35 17 19 4 21-16 30-17-9 0-16-20-33-14m273 388c1 30-27 23-35 14s-13-40 14-38c-16 10-5 28-11 35 6-6 23 6 32-11m-7-272c28 8 17 34 7 39-11 5-41-1-34-26 6 19 26 14 31 22-5-8 10-21-4-35m-353-65c1-29 29-20 37-11 7 10 9 41-17 36 16-8 7-27 13-33-7 5-23-8-33 8m-35 258c-25-14-8-36 4-39 11-2 39 11 25 34-1-20-21-21-24-30 2 10-15 18-5 35m304-269c27-6 32 23 26 33-6 9-33 19-40-8 14 14 28 1 36 5-8-5-3-24-22-30m-56 433c-21 16-36-11-35-23s22-32 38-8c-18-8-24 10-34 9 9 2 12 22 31 22m181-204c19 22-5 37-17 36-11-2-34-25-13-40-6 18 13 26 13 35 1-9 21-11 17-31"/><path fill="#005800" d="M474 294c18 7 23-12 32-11-6 6-19 20-32 11m1-31c20-18 37 8 37 20-16-30-21-27-37-20M301 424c12-14-3-28 0-36 4 8 12 28 0 36m-27-16c-9-27 19-31 29-25-31 0-30 7-29 25m405 31c2 19 22 17 26 26-8-3-28-11-26-26m29-9c26 12 10 36-1 40 20-24 15-27 1-40M387 658c-8-18-26-12-32-19 9 1 30 4 32 19m-25 15c-28-6-20-33-11-39-12 28-6 30 11 39m266-7c-17 8-7 26-13 33 0-10-2-31 13-33m20 25c0 29-29 21-37 11 31 13 31 6 37-11M317 377c15-10 4-27 10-34 1 9 4 30-10 34m-22-23c-2-29 26-24 35-15-31-9-31-3-35 15m57 258c-7-18-26-13-31-21 9 2 29 6 31 21m-27 14c-28-7-17-34-7-40-15 28-9 30 7 40m210-324c15 13 26-2 35 2-7 3-25 10-35-2m12-27c26-9 33 21 29 31-5-33-11-31-29-31m47 416c-19-1-18 19-27 21 4-8 12-26 27-21m7 31c-13 24-36 3-39-9 23 26 26 21 39 9m93-241c-4 18 16 23 17 32-7-5-23-19-17-32m31 1c21 20-2 37-14 37 27-16 23-21 14-37M380 316c18-4 12-24 20-28-2 9-6 29-20 28m-15-29c7-28 33-12 39-1-27-20-29-14-39 1m-54 230c0-19-20-20-23-29 8 5 27 15 23 29m-30 5c-24-15-6-37 6-39-23 22-18 26-6 39m340-158c12 16 27 5 35 11-9 1-29 3-35-11m20-21c29-1 27 28 20 36 5-31-2-31-20-36M495 706c-16-13-27 1-36-3 8-3 26-10 36 3m-14 26c-26 8-32-22-27-32 3 33 9 32 27 32m206-148c-11 15 5 27 2 36-4-8-14-28-2-36m27 14c12 27-17 33-27 27 31-2 29-9 27-27M300 473c8-17-10-26-9-35 5 7 18 24 9 35m-30-8c-16-25 11-36 22-33-30 9-27 15-22 33m169 216c-15-14-28 0-36-5 8-3 27-8 36 5m-16 25c-26 6-31-23-25-33 1 32 7 32 25 33m-4-409c19 4 20-16 30-17-5 7-16 24-30 17m-3-31c16-22 36 2 38 14-20-28-24-24-38-14m252 364c-16 10-5 27-11 34-1-9-3-30 11-34m21 24c1 30-27 23-35 14 30 11 31 4 35-14m-34-259c6 18 25 14 30 22-8-2-29-7-30-22m27-13c28 8 17 34 7 39 15-27 9-29-7-39m-333-40c16-8 6-26 13-32 0 9 1 30-13 32m-20-25c1-29 29-20 37-11-31-13-31-6-37 11m-6 253c-1-20-20-20-24-29 9 4 27 14 24 29m-29 5c-25-14-8-36 4-39-23 22-17 26-4 39m290-244c14 14 27 0 35 5-8 3-27 8-35-5m14-25c27-6 32 23 26 33-1-33-8-32-26-33m-53 402c-18-8-23 10-33 9 6-6 21-19 33-9m-3 31c-21 16-36-11-35-23 14 31 19 28 35 23m151-208c-6 18 13 25 13 34-6-6-21-22-13-34m30 4c19 22-5 37-17 36 29-13 25-19 17-36"/></svg>