<svg xmlns="http://www.w3.org/2000/svg" viewBox="0 0 1000 1000"><path fill="#fff" d="M8 195.3c170.8-85.3 341-54.5 513.3-28C676.5 191 833.4 211.8 992 132.7v672c-170.8 85.3-341 54.5-513.3 28C323.5 809 166.6 788.1 8 867.2z"/><path fill="#4e5b31" d="m514.3 733.8-.3-.4-.2-.1-1.7-2.1-5.1-7.2-6.8-9.8-.9-1.3-8.5-4-6.2-4 3.4-3.2 11.3 6.7 8.5 3.1 15.7 14.3-7.6 6q-.7.5-1 1l-.3.5 1-.4 1 1zm-58.3-27a51 51 0 0 1-21.7-9.3c0-.1.9-1.6 3.1-3s5.8-2.6 12.1-1.8h.2q11 1.8 26.6 11.6c-.5.3-8.3 4.1-20.3 2.6zM424 695a6 6 0 0 1-3.5-2q-1-1.3-1.5-3.4c-.5-2.4-.4-4.5-.4-4.8q.8-.2 1.7-.1h.1c2.9.6 4.7 3 5.9 5.7q.7 2.1.3 3.4-.7 1.4-2.6 1.2m56.5 1.7c-19-5.9-26.9-13.8-30.4-19.8-3.5-6.6-3-11.4-3-11.6h.1q0-.2 3 0c5.1.9 17.6 5.3 30.3 31.4m-38.9-9.7a38 38 0 0 1-18.3-6.9q-3.4-3-4-5.2l-.7-2.3c.3-.1 3.4-1 8.5-.7l1.2.2c6.5 1 15.6 4.3 25.9 15.8q-6.9-.1-12.6-1m-39.3-7a47 47 0 0 1-27.6-13.5c.2 0 8-1.1 17-.3l1.6.1q12 1.7 18.3 7.1 2 2 2.3 3.5.2 1.3-1.1 2.2-2.8 1.7-9.8 1zM374.5 662q-1.6-.3-2.7-1.6-.7-1.1-1.2-3c-.4-2.1-.3-4-.3-4.1q.6-.2 1.3-.2a5 5 0 0 1 2.9 1.6q1.2 1.5 1.8 3.2a5 5 0 0 1 .2 3q-.5 1-2 1.1m64 6.9a6 6 0 0 1-3.4-2q-1-1.4-1.6-3.5a20 20 0 0 1-.4-4.8q1-.2 1.7-.1h.2c2.8.7 4.7 3 5.8 5.7q.8 2.2.3 3.5-.6 1.4-2.6 1.1m-31.1-5.7c-17.3-3-26-8.8-30.6-13.5q-3.7-4-4.7-6.6l-1-2.8s1.7-.4 4.3-.2h.4c6 .8 17.4 4.6 31.6 23.1m18.6.8a51 51 0 0 1-25.8-16.5 36 36 0 0 1-5.7-10.5s1.7-.2 4.3 0l.6.1.6.1c7.1 1.2 19.3 6 26 26.8m-71-15.4q-7-.8-13.1-2.9c-7.3-2.6-10.2-5.4-11.7-7.7q-1-1.8-1.1-2.9v-1s4.8-1 11.4-.6l.8.1q4.8.5 9.4 1.8a35 35 0 0 1 17.5 13.1s-5.5 1-13.2.3m32-8.7a6 6 0 0 1-3.5-1.9 9 9 0 0 1-1.5-3.4c-.5-2.4-.4-4.5-.4-4.7q1-.3 1.7-.2h.1c2.9.6 4.8 2.9 5.9 5.5q.7 2.1.2 3.5-.6 1.3-2.5 1.2m-24.2-6c-.1-.2-6.4-2.6-13-7.2a33 33 0 0 1-14.4-22.4h1.8c1.9.2 5.3 1 10 4.8A68 68 0 0 1 363 634m15.8 1s-4.5-2.5-10.3-8a81 81 0 0 1-18.3-27.9s1.2-.5 3.2-.5h.8c2.8.5 6.4 2 11 7.3q7.7 9.5 13.7 29.1zm-40.9-5.3c-5.3-.7-6.9-3.3-7.6-4.8-.8-2.2-.6-4-.6-4.2q1.4-.2 2.6-.1h.2c4.3.5 7.3 2.7 8.9 5 .3.6 1 1.9.4 3q-.9 1.4-3.9 1.1m-11.6-16c-3-.2-7.5-.7-12.2-1.9-4.8-1.4-7.2-5.2-8.8-8.7-1.4-3.7-2-7-2-7.1 14.7 1.3 21.3 6 24.6 9.9a15 15 0 0 1 3.5 8zm15-14.2s-1.6-2.3-3.2-5c-1.8-3-3.2-5.9-3.3-8.3 0-2.2-.6-7-.9-9.7l-.8-6.5c.8.3 8.6 4.1 9.1 12.6 0 8.4-.8 16.8-.8 16.8m-11.2-1.8h-.3c-2.6-.7-7-3-12-6.3Q309 586 304.8 581q-3.5-4.5-4.2-13.4c-.3-4.2 0-7.7 0-8l1.5-.2a14 14 0 0 1 6.8 3.3q3.2 2.5 7 6.6c4.4 4.7 7.9 9.4 8 9.4.2.6 2.7 5.4 4.7 10q1.8 4.3 2.2 6.6.2 1.4 0 2l-.4.5z"/><path fill="#4e5b31" d="m485.7 729.3.4-.2 1.8-1.7c1.5-1.4 3.4-3.6 5.2-5.5l6.7-7.8.9-1 8.5-1.4 6.2-2-3.3-4.3-11.4 3.2-8.5.5-15.7 9.4 7.7 8.3 1.2 2-1-.7-1 .6zm58.3-9q11.1 1.5 21.8-3s-1-1.9-3.2-4a25 25 0 0 0-12.1-5.2h-.2q-11-1.6-26.6 3.5a47 47 0 0 0 20.3 8.7m32.1-2.6q2 .3 3.5-1 1-1 1.5-3c.5-2.2.4-4.4.4-4.7q-.9-.5-1.7-.6h-.1c-3-.2-4.7 1.6-5.9 4a5 5 0 0 0-.3 3.4q.7 1.6 2.6 1.9m-56.5-15c19.1 0 26.9-5.7 30.4-10.7 3.5-5.5 3-10.4 3-10.7h-.1q-.1-.2-3-.8c-5.2-.7-17.6 0-30.3 22.1m38.9 2q12.1 1.5 18.4-1.7a10 10 0 0 0 4-4q.7-1.8.6-2.3a32 32 0 0 0-9.7-3.2c-6.5-.8-15.6 0-25.9 8.3a106 106 0 0 0 12.6 2.8m39.3 3.8c8.7 1 20-.2 27.6-6.8-.1 0-8-3-17-4.4l-1.6-.2c-8.2-1-14-.1-18.2 2.4q-2.2 1.4-2.4 2.8t1.1 2.6q2.8 2.4 9.8 3.5zm27.7-11.2q1.6.1 2.7-1 .8-1 1.2-2.7c.4-2 .3-4 .3-4v-.1l-1.3-.5q-1.9.1-2.9 1a7 7 0 0 0-1.8 2.8q-.5 1.6-.2 3 .5 1 2 1.5m-64-9.8q2 .2 3.4-1 1.1-1 1.6-3c.5-2.2.4-4.4.4-4.7l-1.7-.6h-.2c-2.9-.2-4.7 1.6-5.8 4a5 5 0 0 0-.3 3.4q.6 1.5 2.6 1.9m31.2 3c17.3 1.5 26-2.4 30.5-6a19 19 0 0 0 4.7-5.6q1-2.1 1-2.6s-1.7-.7-4.3-1.1h-.4c-6-.7-17.4.5-31.5 15.3M574 686c14-.4 21.5-5.3 25.8-9.5 4.3-4.6 5.6-8.8 5.7-9.1 0 0-1.7-.6-4.3-1l-.6-.2h-.6c-7.2-.7-19.3.8-26 19.8m71 1.8q7 .6 13.1-.4c7.3-1.4 10.2-3.8 11.7-5.8q1-1.7 1.1-2.8v-1.2s-4.8-1.6-11.4-2.4h-.8a53 53 0 0 0-9.4 0 27 27 0 0 0-17.5 9.6s5.5 2 13.2 3m-32-15.3q2.1.2 3.5-1 1-1.1 1.5-3.1c.5-2.3.4-4.4.4-4.7q-.8-.5-1.7-.6h-.1c-3 0-4.7 1.7-5.9 4.2a5 5 0 0 0-.2 3.3q.6 1.5 2.5 1.9m24.2-.7a51 51 0 0 0 13-4.6 26 26 0 0 0 14.4-19.8l-1.4-.3h-.4c-2-.1-5.3.1-10 3.1a53 53 0 0 0-15.7 21.6zm-15.8-2.3s4.5-1.5 10.3-5.7a60 60 0 0 0 18.3-24.3s-1.2-.7-3.2-1l-.3-.1h-.5c-2.8-.2-6.4.5-11 5q-7.7 7.8-13.7 26m40.9 2.9c5.3 0 6.9-2.2 7.6-3.6.8-2.1.6-4 .6-4.1l-2.6-.6h-.2c-4.4-.2-7.2 1.5-8.9 3.5-.3.5-1 1.7-.4 3q.9 1.4 3.9 1.8m11.6-14.2c3 .2 7.5.3 12.2-.3 4.8-.8 7.2-4.3 8.8-7.7a34 34 0 0 0 2-7c-14.7 0-21.3 3.5-24.6 6.9-3.2 3.7-3.5 7-3.6 7.5zm-15-16.7s1.6-2 3.2-4.5c1.8-2.7 3.2-5.2 3.3-7.6s.6-7 .9-9.6l.8-6.4c-.8.3-8.6 2.7-9.1 11.1 0 8.4.8 16.9.8 17m11.2.1h.3c2.6-.3 7-2 12-4.5q8.6-4.6 12.8-9.1 3.5-4.2 4.2-13c.3-4.1 0-7.6 0-8l-1.5-.3c-2 0-3.9.7-6.8 2.6a57 57 0 0 0-7 5.7 122 122 0 0 0-8 8.4c-.3.6-2.7 5-4.7 9.3a33 33 0 0 0-2.2 6.3 4 4 0 0 0 0 2l.4.5z"/><path fill="#d57800" d="m803 302.3-2.6 1.2-1 .6h-3.1l-3 1.7-5.1 4-.2.2-2 .7-1.8-.7-1 .5-.3 2.2-1 1.6-1.2 1-4.1.6-3.5 2-4.6-1-2 .9-4.5 4.3-2.3 1.2h-.8l-3-.2-1.4.5-1.9 2-3.6.3-1.1.8-1.8 3.7-2 2-1 .2-1.2-.4-.9.2-.4 2.3-.9 1-2.4.8-2 1.7-1.6.9-2.3-.1h-.5l-2.3 1.2-4.3.4-1.7 1.7-.4.3-.9.5-1.3.8-.4.2-1.6-.3-1.9.7-.8-1.2-1.3.7h-1.8l-2.1-1-1.7-.8h-1.2l-.4 2.2v.3l-1.4 1.7-2.3 1.4-.4.4-2.7 3.4-5.2 5.3-4.3 2-4.5 1.2-3.2 2.5-8.3 3.6-13.1 5.7-2.7.6-3.9.3-6.8 2-6 1.3h-.4l-1.2.3-8.6 1.7-4-.8-2.3.6-6.1-1.4-4.3-.4-2.7.2-5 1.9-8.6 3.1-2.8 2.3-4.4 1.8-5.2 1V384l-1.8.3-1.3.2-4.2.1-2.3-.3-1.4-.6h-.3l-8.5 1.7-9.5-.4-4.8.8-3.6-.5-2.2.3-4.4-.1-1.5-.7-.4-.1-12.8-1.4-6-1.6-2.7.2-4.7-2.3-6.9-1.9-1.6-.7-3.6-1.7-1.6.8-1.2-.1-3-1.5-1-.2-2.4.5-1.4-.6-1.3-1.2-3-1-1.8-1.8-10.3-.2-2.8-1.3-9.3-4.2-1.5-.1-1.9 1.1-2.8.6-2.4.3-3.3-.4-3.8-1.6-4-2.5-1.4-.6-3.3-.1h-1l-6-4.2-7.6-6-5.2-3.3-2-.6-.3 1 1 3.2.3 3.2v2.8l-.1 1.8.5 1.6 1.9 2.4.7 2.3.6 6v6l-1 9.5-.2 1.4-1.1 4.8-1 4.4-3.9 11.6-1 1.4-2.7 1.4-5.9 3.4-4.4 2-1.3.4-3.6-.1-2.2-.4-2.7-2-2.7-1-3.6-3-3.9-1.3-4.3-3-1.1-1.5-2.4-.5-3.2-1.4-1.2-.5-.8-.3-4.2-.5-3.9-2.3-2-.7-2.8-.4-2.9 1.1-1.5.6-1.8-1h-1.4l-1.5 2.2-.3.4-1 .5-1.3-.2-1-.1-1.2.4-1.5.5-1.3.5-.6.3h-1.1l-1 .2-1.4-1-.9-.6-1.3-.4-.8.4-.1 2.6-.7 1.5-2.1 1.8-2.2 1.8-1.5 2.2-4 9-2.6 3.7-.8.9-2.6 2.8-2.3 1.7-5.4 4-5.1 1.7-4.4.7-2.1-.1-4-.7-3.7-1.3-4-2.7-4.4-3.7-6.3-6.5-.9-.5-.2-.2-2-1.3h-1.5l-.5 1-.4 1.4-.2 1.3-.8 7 .1.5.4 3 4.8 6.9 1.5 3.6.2.5 1 1.7.8 1.3v.1l1.7 5-1.2 3 .6 1.8-1.4 1.2-.3 1.6 4.3 5.6 1 2.5-1.1 3.4-1.7 1.8-.4.5.2 1.4 2 2 3.4 3 1.8 4.7 1.3 1.3 1.6-.3.9.7h1.3l1.4 1.4.8.5 1.4.7 1 1.5.3 4.4 2 5.5v3.3l1.2 2.3.4 1.7-.6 4.5 1.6 1.6 1.7-.3 1 .2 1.9 1.6 2.1 3.5 2.1-.2 1.3.7 6.5 6.4 1.5.8 1 .7 1.4 1.4 2-1.2h2.5l1 .7 1.8 1.4 2.4.1 5.3 2.1 2.4.8 4.6 3.4 2 1.4 1.2 1 1.5 1.5 3.1 1.6 2.7 1 1.4.4 1.1.6 5.8 2.8 3.2 1 2.9 1.5 2 1 1.6.2 2.2-1.7 2.1.2 1.8.6 1.7-.1 2.7-1.4.5-.8 2-.7h6.5l1.9.8 4.8-1.5 3.3 1.3 2.9-.7 6.3 2.3 1.7 1.4 1.9 2.5h.2l2 .3-.8 1.4 2.8 3.3 2.5 4.2.1.6 1.8 5.7 1.4 2 1 3v1.7l-1.5 1-.2.5-.1.3.3.7.5-.2 1-.4h1.4l2.2.5 1.5.4 2.4-1 1.5-.5 2.5 1.5 2.8.3 1.2.7 3.2 2 1.7.4.6-.3.4-.9-.2-1.1-1.2-1.7-2.8-3.7-1.1-1.8-1-2.6-.2-3.2-.2-2.1.4-2.7.7-1 .6-2 .1-.6 1.6-1.9 4-2 4.4-3.4 3.5-1.9 3.5-1 .1-.4.4.2 9-1.8h.2l4-.1 27.3 6.2 1-.2 1-2.5.4-.4.4-.3 3-.8h1.3l4 1.6 1.5.6 2.6-1 1.8.2 3.7-1.5 2.3.4.9-.2 4.5-2.6 4.3-.6 1.2-.4.4-.2 4.4-1.7 2.8-1.8 2.4-1 2.7-.3 7 .5 1.4-2.1h3l1.8-1.8 2-.6 1.6-2 1.2-1.6 1.7-.8 5.6.4 6.6 1.8.9-.4 1.5-5.3 1.6-.8 4.2-5.7v-4.2l.7-2.6-.5-5 .6-5 2.6-5.9 2.3-2.2 3.7-2.1 1.9-.6 2.7-.1h1.1l9.2 1 3.3.3 3.1.3 7.8 2.4.5.1 2.7 1.2 3 2.8 3.2 3.5.6.7 2 1.1.7.4 1.7-.1 2.5-1.1 1.8-1.4 2.5-1.2h.1l1.4-2v-.1l.6-.9 4.9-1.4 5.7.2.7-.3.3-.2 1.5-1.7 1.4.1 3.5 1.6 2.4-.3 1.9 1 1.5-.1 2.8-.2 3 2.4 1.7.4 6.2 4.1h.4l.1.1.4.1.7-.2 1-.2h.2l.2.1.7 1 1 .3 1-1.5-.4-.7-.1-.3-2.2-.6-2-3.6 1.9-2-3-3.9-.5-.6-.2-.3-1-1.7-5.2-8.4-6.7-6-2.4-2.2-.8-.7-3.7-4-2.5-3.8-.4-.8-.5-1.2-1.6-3.6-2.6-2.4-2.2-2.6-.2-.2-4.5-6.7-.7-1.1-1-.8-2.4-.2-.2-.2v-.2l1-1 1.3-.3.5-1.1-2.3-7v-.3l-.2-2.2 1.9-9.8.2-1.1 3.2-6.4 2-1.5 2.2-4.1 1.8-2.7 1.8-1.6.3-.1 3.2-1.7 2.7-.2 2.6-.2 4.5 1.8 4.2.2h2.8l3.2-.9 1.5-.8.8-1.2 1.6-5.5.5-1.7 1-2 5.8-6.4 4.4-4 9.9-6.9 4.8-2.8 2.5-1.4 22-9.6 5.7-6 3-3 5.2-3.7 6.2-2.7 5.3-4.4 1.2-1.5 1.4-5 1.2-.2 1.1-2.5.4-.7 4.3-3.3.5-.3 16.8-9.6 2.4.2 1.4-2.1 4.9-1.2.9-.2 1.2-.8 1-1.8v-.4l.1-4.8 1-1.4.6-3.2.6-.8.5-.8 1.4-1.1z"/><path fill="#1a1a1a" d="M8 195.3c170.8-85.3 341-54.5 513.3-28C676.5 191 833.4 211.8 992 132.7v672c-170.8 85.3-341 54.5-513.3 28C323.5 809 166.6 788.1 8 867.2zm31.3 19.3v604.5c306.5-128.2 611.1 96 921.5-33.7V180.9C654.2 309 349.5 84.9 39.3 214.6" opacity=".2"/></svg>