<svg xmlns="http://www.w3.org/2000/svg" viewBox="0 0 1000 1000"><path fill="#fff" d="M8 195c171-85 341-54 513-28 155 24 312 45 471-34v672c-171 85-341 54-513 28-155-24-312-45-471 34z"/><path fill="#4e5b31" d="m514 734-2-2-5-7-7-10-1-1-8-4-6-4 3-3 11 6 9 4 16 14zh1l1 1zm-58-27q-11-1-22-10l3-3q3-2 13-1 11 2 26 11-1 3-20 3m-32-12-4-2-1-3-1-5h2q5 1 6 5v4zm56 2c-19-6-26-14-30-20q-4-11-3-12h3c5 1 18 6 30 32m-38-10q-13-2-19-7l-4-5-1-3h10q11 0 26 16zm-40-7c-8-1-20-5-27-14h18q12 2 18 7l3 4-1 2zm-27-18q-2 0-3-2l-1-3-1-4h2l2 2 2 3 1 3zm64 7-4-2-1-4-1-4 2-1v1q4 1 6 5v4zm-32-6q-25-6-30-13l-5-7-1-3h5c6 1 17 5 31 23m19 1q-20-7-26-16-6-10-5-11h5c7 1 19 6 26 27m-71-15-13-3q-10-5-12-8l-1-3v-1l12-1 10 2c11 4 17 13 17 13zm32-9-3-2-2-3v-5h2q3 1 5 5l1 4zm-24-6-13-7q-10-7-15-22l2-1 10 5q9 8 16 25m16 1q-1 1-11-8-8-7-18-28h4q5 0 11 7 8 9 14 29m-41-5q-8-2-8-5v-4h2q7 0 9 5l1 3zm-12-16-12-2q-7-3-9-9l-2-7q22 3 25 10 4 7 3 8zm15-14-3-5-3-9-1-9-1-7c1 0 9 4 9 13zm-11-2-12-6-13-11q-3-4-4-13v-8l1-1 7 4 7 6 8 10 7 16zm156 131 2-2 5-5 7-8 1-1 8-1 6-2-3-5-11 4h-9l-16 10zl-1-1-1 1zm58-9q12 1 22-3l-3-4q-3-3-13-5-11-2-26 4s8 6 20 8m32-2 4-1 1-3 1-5-2-1q-4 0-6 4v4zm-56-15c19 0 26-6 30-11q4-8 3-11h-3c-5-1-18-1-30 22m39 2q12 1 18-2l4-4 1-2-10-3c-7-1-16-1-26 8zm39 4q15 2 27-7l-17-5h-1q-12-1-18 3-3 0-3 2l1 3q3 3 10 3zm27-12 3-1 1-2 1-4-2-1-2 1-2 3v3zm-64-10q3 1 4-1l2-3v-4l-2-1q-4 1-6 4v4zm32 3q25 1 30-5l5-6 1-3-4-1h-1c-6 0-17 1-31 15m-19-4q21-2 26-9 6-8 5-9l-4-1v-1h-1c-7 0-19 1-26 20m71 2h13q10-3 12-6l1-3v-1l-12-3h-10c-11 2-17 10-17 10zm-32-16q1 1 3-1 2 0 2-3v-4l-1-1h-1q-3 1-5 4l-1 4zm24 0q1 1 13-5 11-4 15-20h-2q-3-1-10 3-9 6-16 22m-16-3q1 1 11-5 8-6 18-24l-3-2h-1q-5 0-11 5-8 8-14 26m41 3q8-1 8-3v-4l-2-1q-8 0-9 4l-1 3zm12-14h12q7-2 9-8l2-7q-21 1-25 7t-3 8zm-15-17 3-4q3-4 3-8l1-9 1-7c-1 1-9 3-9 12zm11 1 12-5 13-9q4-4 4-13v-8h-1l-7 2-7 6-8 8-7 16v2z"/><path fill="#d57800" d="m803 302-3 2h-4l-3 2-5 4-2 1-2-1-1 1v2l-1 1-1 1-4 1-4 2-4-1-3 1-4 4-2 1h-4l-1 1-2 2h-4l-1 1-2 3-2 2-1 1-1-1h-1v3l-1 1-3 1-2 1-1 1h-3l-2 1-5 1-1 1-1 1h-1l-1 1h-4l-1-1-1 1h-2l-2-1-2-1h-1v3l-2 1-2 2-3 4-5 5-5 2-4 1-3 3-9 3-13 6-2 1h-4l-7 2-6 1h-2l-8 2-4-1-2 1-7-2h-7l-5 2-8 3-3 3-4 1-6 1v-2h-1l-2 1h-4l-2-1h-2l-8 2-10-1-5 1-3-1-3 1h-4l-1-1h-1l-13-2-6-1h-2l-5-2-7-2-1-1-4-2-2 1h-1l-3-1-1-1-2 1-2-1-1-1-3-1-2-2h-10l-3-1-9-4-2-1-2 2h-2l-3 1-3-1-4-1-4-3-1-1h-5l-6-4-7-6-5-3-2-1-1 1 1 3 1 4v2l-1 2 1 2 2 2 1 3v12l-1 9v1l-1 5-1 5-4 11-1 2-3 1-6 3-4 2-1 1h-4l-2-1-3-2-3-1-3-3-4-1-4-3-1-2h-3l-3-1-1-1h-1l-4-1-4-2-2-1h-3l-3 1-1 1-2-1h-1l-2 2-1 1h-2l-1-1-1 1h-1l-2 1h-2l-2-1h-1l-1-1-1 1v2l-1 2-2 2-2 1-1 3-4 9-3 3-1 1-2 3-3 2-5 4-5 1-4 1h-3l-4-1-3-1-4-3-5-3-6-7h-1v-1l-2-1h-2v3l-1 1v10l5 7 1 4h1l1 2v1l2 5-1 3v2l-1 1v2l4 6 1 2-1 3-2 2v2l2 2 3 3 2 5 2 1h1l1 1h1l2 1h1l1 1 1 2v4l2 6v3l1 2 1 2-1 4 2 2h3l1 2 3 3h2l1 1 6 6 2 1h1l1 2 2-1h4l2 2h2l5 2 3 1 4 3 2 1 1 2 2 1 3 2 3 1h1l1 1 6 2 3 1 3 2 2 1h2l2-2 2 1h4l2-1 1-1 2-1h6l2 1 5-2 3 2 3-1 7 2 1 2 2 2 2 1v1l2 3 3 5 2 6 1 2 1 3v1l-1 1-1 1 1 1 1-1h1l3 1h1l3-1h1l3 1 2 1h2l3 2 2 1v-1h1l-1-2-1-1-3-4-1-2-1-2v-8l1-1v-2l1-1 1-2 4-2 5-3 3-2 4-1v-1 1l9-2h4l28 6h1l1-3 3-1h2l4 1 1 1 3-1h2l3-1h4l4-3h4l1-1h1l4-2 3-2h3l2-1 7 1 2-2h3l1-2 2-1 2-2 1-1 2-1h6l6 2h1l1-6h2l4-6v-4l1-3v-10l3-6 2-2 4-2 2-1h3l10 1h3l3 1 8 2 3 1 3 3 3 4h1l2 2h2l3-1 2-2 2-1 2-2v-1l5-1h6l1-1 1-1h2l3 1h2l2 1h5l3 2 1 1 7 4h1l1-1 1 1v1h1l1-2v-1h-2l-2-4 1-2-3-4v-1l-1-1-5-9-7-6-3-2v-1l-4-4-3-3v-2l-2-4-3-2-2-3-4-7-1-1-1-1h-3l1-1 1-1 1-1-2-7v-2l1-10 1-1 3-7 2-1 2-4 2-3 2-1v-1l3-1 3-1h2l5 2h7l3-1h2v-2l2-5 1-2 1-2 5-6 5-4 10-7 4-3 3-1 22-10 6-6 3-3 5-4 6-2 5-5 1-1 2-5h1l1-3 1-1 4-3 17-10h3l1-2 5-1h1l1-1 1-2v-5l1-1 1-3v-1l1-1z"/></svg>