<svg xmlns="http://www.w3.org/2000/svg" viewBox="0 0 1000 1000"><path fill="#006b3f" d="M8 195.3c170.8-85.3 341-54.5 513.3-28C676.5 191 833.4 211.8 992 132.7v672c-170.8 85.3-341 54.5-513.3 28C323.5 809 166.6 788.1 8 867.2z"/><path fill="#fcd116" d="M438.5 154.7 500 164v672l-61.5-9.3z"/><path fill="#fcd116" d="M8 447.3c170.8-85.3 341-54.5 513.3-28C676.5 443 833.4 463.8 992 384.7v84c-170.8 85.3-341 54.5-513.3 28C323.5 473 166.6 452.1 8 531.3z"/><path fill="#fff" d="m500 164 61.5 9.3v672L500 836z"/><path fill="#fff" d="M8 531.3c170.8-85.3 341-54.5 513.3-28C676.5 527 833.4 547.8 992 468.7v84c-170.8 85.3-341 54.5-513.3 28C323.5 557 166.6 536.1 8 615.2z"/><path d="m479.5 160.8 41 6.4v672l-41-6.4z"/><path d="M8 503.3c170.8-85.3 341-54.5 513.3-28C676.5 499 833.4 519.8 992 440.7v56c-170.8 85.3-341 54.5-513.3 28C323.5 501 166.6 480.1 8 559.2z"/><path fill="#d41c30" d="M623 517.4c-.2 93.4-54.8 160.8-123 150.6-68.1-10.9-122.8-92.8-123-185.4.2-93.4 54.8-160.8 123-150.6 68.1 10.9 122.8 92.8 123 185.4"/><path fill="#006b3f" d="m496 366.8 4-14.8 3.6 15.7 12 2-9.5 8.5 4.3 17.6-10.4-12-10.2 8.3 4-15.8-9.4-11z"/><path d="m495.8 366.2 4.2-16 3.9 17 12.9 2.2-10.2 9.1 4.6 18.9-11.2-13-11 9 4.3-17-10-11.9zm.5 1.2-10.7-1.5 8.6 10.3-3.6 14.6 9.4-7.8 9.6 11.1-4-16.1 8.8-7.9-11.1-1.9-3.3-14.4-3.6 13.2z"/><path fill="#006b3f" d="m504 633.2-4 14.8-3.6-15.7-12-2 9.5-8.5-4.3-17.6 10.4 12 10.2-8.3-4 15.8 9.4 11z"/><path d="m504.2 633.8-4.2 16-3.9-17-12.9-2.2 10.2-9.1-4.6-18.9 11.2 13 11-9-4.2 17 10 11.9zm-.5-1.2 10.7 1.5-8.6-10.3 3.6-14.6-9.4 7.7-9.6-11 4 16.1-8.8 7.9 11.1 1.9 3.3 14.4 3.6-13.2z"/><path fill="#006b3f" d="m553.9 397.7 9.8-7.8-3.6 14.6 9.6 11.2-12-1.3-3.7 16.5-4-17.3-12.5-2 10.2-8.6-3.4-15.8z"/><path d="m553.9 397 10.6-8.4-4 15.7 10.4 12.1L558 415l-4 17.8-4.3-18.7-13.4-2.2 11-9.2-3.7-17zm0 1.4-8.8-9.7 3.1 14.6-9.5 7.9 11.6 1.9 3.7 16 3.4-15.3 11.1 1.2-8.9-10.4 3.3-13.4-8.8 7z"/><path fill="#006b3f" d="m446.1 602.3-9.8 7.8 3.6-14.6-9.6-11.2 12 1.3 3.7-16.5 4 17.3 12.5 2-10.2 8.6 3.3 15.8z"/><path d="m446.1 603-10.6 8.4 4-15.7-10.4-12.1L442 585l4-17.8 4.3 18.7 13.4 2.2-11 9.2 3.7 17zm0-1.4 8.8 9.7-3.1-14.6 9.5-7.9-11.6-1.9-3.6-16-3.5 15.3-11.1-1.2 8.9 10.4-3.3 13.4 8.8-7z"/><path fill="#006b3f" d="m591.1 467.3 12 2-9.5 8 3.6 16.2-9.9-10.6-10.4 9.4 4-16.2-10-11.6 12.6 1.8 3.9-14.5z"/><path d="m591.4 466.8 12.9 2-10.2 8.8 3.8 17.4-10.6-11.4-11.2 10.1 4.4-17.4-10.8-12.5 13.5 2 4.2-15.8zm-.6 1-3.5-14.3-3.5 13.4-11.7-1.6 9.3 10.7-3.7 14.9 9.6-8.7 9.1 9.8-3.3-15 8.7-7.4-10.7-1.7z"/><path fill="#006b3f" d="m408.9 532.7-12-2 9.5-8-3.6-16.2 9.9 10.6 10.4-9.4-4 16.2 10 11.6-12.6-1.8-3.8 14.5z"/><path d="m408.6 533.2-12.9-2 10.2-8.8-3.8-17.4 10.6 11.4 11.2-10.1-4.4 17.4 10.8 12.5-13.5-2-4.2 15.8zm.6-1 3.4 14.3 3.6-13.4 11.7 1.6-9.3-10.7 3.7-14.9-9.6 8.7-9.1-9.8 3.3 15-8.7 7.4 10.7 1.7z"/><path fill="#006b3f" d="m593.6 549.6 9.4 11.1-11.6-1.5-3.9 15-4-16-13-1.4 10.4-8.8-3.7-16.9 10.2 11.6 9.6-7.9z"/><path d="m594 549.5 10.3 12-12.6-1.7-4.2 16.1-4.2-17.1-14.1-1.6 11.3-9.5-4-18.1 10.9 12.4 10.3-8.4zm-1 .3 3.2-13.7-8.8 7.3-9.4-10.7 3.4 15.6-9.6 8.1 12 1.3 3.7 14.8 3.6-14 10.7 1.5-8.5-10z"/><path fill="#006b3f" d="m406.4 450.4-9.4-11.1 11.6 1.5 3.9-15 4 16 13 1.4L419 452l3.8 16.9-10.2-11.6-9.6 7.9z"/><path d="m406 450.5-10.3-12 12.6 1.7 4.2-16.1 4.2 17.1 14.1 1.6-11.3 9.5 4 18.1-10.9-12.4-10.3 8.5zm1-.2-3.3 13.6 9-7.3 9.3 10.7-3.4-15.6 9.6-8.1-12-1.3-3.7-14.8-3.6 14-10.7-1.5 8.5 10z"/><path fill="#006b3f" d="m560.3 613.3 3.4 16-9.4-10.7-9.8 8 3.4-15.1-10.8-11.8 13 2 4-15.6 3.8 17 11.7 2z"/><path d="m560.7 613.5 3.7 17.4-10.1-11.6-10.6 8.6 3.7-16.3-11.6-12.7 14 2.2 4.2-16.8 4.2 18.2 12.6 2.2zm-1-.5 8.7-7.6-10.8-1.9-3.6-15.7-3.7 14.5-11.8-1.8 9.9 10.8-3.2 14 9-7.4 8.7 10-3-14.5z"/><path fill="#006b3f" d="m439.7 386.7-3.4-16 9.4 10.7 9.8-8-3.4 15.1 10.8 11.8-13-2-4 15.7-3.8-17-11.7-2z"/><path d="m439.3 386.5-3.7-17.4 10.1 11.6 10.6-8.6-3.7 16.3 11.6 12.7-14-2.2-4.2 16.8-4.2-18.2-12.6-2.2zm1 .5-8.7 7.6 10.8 1.9L446 412l3.7-14.4 11.8 1.8-9.9-10.8 3.2-14-9 7.4-8.7-10 3 14.5z"/><path fill="#006b3f" d="M524.2 547.1c1.3 27.8-.7 49.3-4.8 49.7-4-.5-8.4-22-9.9-49.8-1.3-27.9.7-49.4 4.8-49.7 4 .4 8.4 22 9.9 49.8"/><path d="M524.5 547.1q1 20.7-.3 35.2c-1 10.2-2.5 14.6-4.7 14.9-2.3-.4-4.2-4.8-6.3-15q-2.8-14.6-4-35.3-1-20.5.4-35.2c1-10 2.4-14.5 4.7-14.8 2.2.4 4.1 4.8 6.2 15q2.9 14.6 4 35.2m-.6 0q-1.1-20.6-4-35.1-1.5-6.9-2.8-10.7-1.5-3.6-2.8-3.7-1.4 0-2.4 3.7t-1.7 10.5q-1.4 14.5-.4 35.2 1.2 20.5 4 35.1 1.5 6.9 2.9 10.7 1.4 3.6 2.7 3.7 1.4 0 2.4-3.7t1.8-10.6q1.4-14.5.3-35"/><path fill="#006b3f" d="M531.8 548.1c1.4 27.8-.8 49.3-5.1 49.7-4.3-.5-8.8-22-10.4-49.9-1.3-27.8.9-49.3 5.2-49.6 4.3.5 8.8 22 10.3 49.8"/><path d="M532.1 548.1q1 20.7-.4 35.2c-1.1 10.2-2.6 14.6-5 14.9-2.4-.4-4.4-4.8-6.6-15a244 244 0 0 1-4-35.3q-1.1-20.5.4-35.2c1-10 2.6-14.5 5-14.8 2.4.4 4.4 4.8 6.5 15q3 14.6 4.1 35.2m-.6 0q-1.1-20.6-4-35.1-1.5-6.9-3-10.7-1.6-3.6-3-3.7-1.4 0-2.5 3.7a62 62 0 0 0-2 10.5q-1.4 14.5-.3 35.2 1 20.5 4 35.1 1.5 6.9 3 10.7 1.7 3.6 3 3.7 1.3 0 2.5-3.7t1.9-10.6q1.5-14.5.4-35"/><path fill="#006b3f" d="M526.9 550.2c1.5 30.7 0 54.6-3.4 55-3.5-.5-7.4-24.4-9-55-1.5-30.8 0-54.7 3.4-55 3.4.4 7.4 24.3 9 55"/><path d="M527.1 550.2q1.1 22.8.2 39c-.8 11.1-2 16-3.8 16.3-2-.3-3.6-5.2-5.5-16.4q-2.6-16.2-3.8-39a363 363 0 0 1-.1-39c.7-11.1 1.9-16 3.8-16.3 1.9.3 3.5 5.3 5.4 16.5q2.6 16 3.8 39m-.5 0q-1.1-22.9-3.8-39-1.2-7.5-2.5-11.7t-2.4-4q-1-.1-2 4a90 90 0 0 0-1.3 11.7q-1 16 .1 38.8t3.8 38.9q1.2 7.6 2.6 11.7 1.3 4 2.3 4.1t2-4 1.4-11.8q1-16-.2-38.8"/><path fill="#9c4a00" d="M463.8 564.5c6 .1 3.7-4 6.7-6.4 3.5-1.7 7.3.2 9 3.6 1.2 3.5.4 5.8 2 6.4 2.2.4 48.6 5.2 50.9 7.8 1.6 3.1 1.8 7.5.2 9.5-2.5 1.5-61-6.6-63.8-9-2-2.6-5-11.2-5-11.9"/><path d="M463.7 564.1c2.6.1 3.8-.7 4.6-3q.7-2.5 2-3.3 2.4-1.5 5.4-.2 2.9 1.3 4 4 .6 1.5.9 4 .1 2 1 2.2l4.6.5c30 3.3 45.1 5.8 46.4 7.3a12 12 0 0 1 1.4 5.5q.1 3.3-1.3 4.7c-1.1.7-11.4 0-31.9-3-20.5-2.8-30.9-5-32.1-6a29 29 0 0 1-3.4-6.9q-1.8-4.7-1.8-5.4v-.4zm.4.8a63 63 0 0 0 4.9 11.3c1.1 1 11.4 3 31.8 6 20.4 2.8 30.6 3.6 31.6 3 .8-1 1.1-2.1 1.1-4.2q-.1-2.9-1.3-5c-1.2-1.3-16-3.7-46-7l-4.7-.5q-1.1-.2-1.5-2.9-.2-2.4-.7-3.7a7 7 0 0 0-3.7-3.6q-2.8-1.1-5 .2-1.1.7-1.8 3-1 3.6-4.7 3.4"/><path fill="#fcd116" d="M497.2 576c.5 6.4 6.4 5.7 7 11-.8 5.7-11.2-1.4-11.8-11.9 1-10.4 11.2-13.8 11.9-7.8-.5 5-6.4 2.3-7 8.7"/><path d="M497.5 576q-.1 3.1 3.5 5.8 3.3 2.5 3.5 5.3-.1 2.4-2.2 2.3a8 8 0 0 1-4.2-2 16 16 0 0 1-6-12.3c.4-5.2 2.2-8.3 6.2-10.4q2.4-1 4.1-.5 2 .6 2.1 3.1 0 2.6-3.3 4-3.6 1.5-3.7 4.7m-.5-.1c.2-2.5 1.3-4 4-5.3q3-1.3 3-3.3t-1.6-2.4q-1.7-.5-3.8.5c-3.8 2-5.6 4.9-6 9.8.2 4.8 2 8.4 5.8 11.7q2.2 1.7 3.9 1.8 1.4 0 1.7-1.7-.1-2.3-3.2-4.6-3.8-2.9-3.8-6.5"/><path fill="#fcd116" d="M501.4 576.7c.4 6.4 6.3 5.7 7 11-.9 5.7-11.3-1.4-12-11.9 1.1-10.4 11.3-13.8 12-7.8-.5 5-6.3 2.3-7 8.7"/><path d="M501.6 576.7q0 3.1 3.5 5.8t3.5 5.3q0 2.4-2.2 2.4a8 8 0 0 1-4.1-2 16 16 0 0 1-6-12.4c.3-5.2 2.2-8.3 6.2-10.4q2.3-1 4-.5 2 .6 2.2 3.1 0 2.6-3.3 4c-2.5 1.2-3.6 2.5-3.8 4.7m-.5 0c.2-2.6 1.3-4.1 4-5.4 2.2-1 3-1.8 3-3.3q0-1.9-1.6-2.4t-3.8.5q-5.6 2.8-6 9.8c.3 4.8 2 8.4 5.8 11.7a7 7 0 0 0 3.9 1.8q1.6.1 1.7-1.7 0-2.3-3.2-4.6-3.8-2.9-3.8-6.5"/><path fill="#fcd116" d="M505.8 577.1c.4 6.4 6.3 5.8 7 11.1-.8 5.7-11.2-1.4-11.9-12 1-10.3 11.2-13.7 12-7.7-.5 4.9-6.4 2.2-7.1 8.6"/><path d="M506 577.2c.2 2.2 1.2 3.8 3.6 5.7 2.3 1.9 3.3 3.4 3.4 5.4q0 2.3-2.1 2.3a8 8 0 0 1-4.2-2 16 16 0 0 1-6-12.4c.3-5.1 2.2-8.2 6.2-10.3q2.3-1.1 4.1-.6 2 .8 2.1 3.2 0 2.6-3.3 4c-2.5 1.1-3.6 2.4-3.7 4.7m-.6-.1c.2-2.6 1.4-4 4.1-5.3q3-1.3 3-3.4-.1-1.9-1.7-2.4t-3.8.6c-3.8 2-5.5 4.9-6 9.7.3 4.9 2 8.4 5.8 11.7q2.3 1.8 4 1.9 1.5 0 1.6-1.7 0-2.3-3.1-4.6-3.9-3-3.9-6.5"/><path fill="#fcd116" d="M510 577.8c.4 6.4 6.3 5.8 7 11.2-.9 5.6-11.3-1.5-12-12 1-10.4 11.3-13.8 12-7.8-.5 4.9-6.4 2.2-7 8.6"/><path d="M510.2 577.9q-.1 3.1 3.5 5.8 3.3 2.5 3.5 5.3-.1 2.3-2.2 2.3a8 8 0 0 1-4.2-2 16 16 0 0 1-6-12.3c.4-5.2 2.3-8.3 6.2-10.4q2.4-1 4.2-.5 2 .6 2 3.1 0 2.6-3.2 4-3.7 1.5-3.8 4.7m-.5-.1c.2-2.6 1.3-4 4-5.3q3-1.3 3-3.4 0-1.9-1.6-2.4t-3.8.6c-3.8 2-5.6 4.9-6 9.7.2 5 2 8.4 5.8 11.7a7 7 0 0 0 3.9 2q1.5 0 1.7-1.8c-.2-1.6-1-3-3.2-4.6q-3.8-2.9-3.8-6.5"/><path fill="#9c4a00" d="M533.7 580.7q-.5 5-4.1 4.9-3.6-1.2-4-6.2.5-5 4.1-4.9 3.6 1.2 4 6.2"/><path d="M533.9 580.8c-.2 4-1.4 5.4-4.3 5.1q-1.7-.4-3-2.2a8 8 0 0 1-1.2-4.4c.2-4 1.4-5.4 4.3-5.1 3 .7 4 2.5 4.2 6.6m-.5-.1q0-2.2-1-3.9-1.1-1.6-2.7-2c-2.6-.2-3.6 1-3.8 4.6 0 3.6 1 5.2 3.7 5.8q3.7.6 3.8-4.5"/><path fill="#006b3f" d="M509.2 557.6c.3 6.3-.7 10.5-2.7 11-2-.3-3.8-4.4-4.4-10.6-.4-6.3.7-10.5 2.7-11 2 .3 3.7 4.3 4.4 10.6"/><path d="M509.4 557.6q.3 4.8-.5 8-.8 3.5-2.4 3.6-1.6 0-3-3.3a29 29 0 0 1-1.2-16q1-3.4 2.5-3.5 1.4 0 2.9 3.2 1.2 3.3 1.7 8m-.4 0q-.4-4.3-1.6-7.2t-2.6-2.9-2 3.1q-.8 3.1-.5 7.4.4 4.2 1.6 7.2 1.2 2.9 2.5 2.8 1.4 0 2.1-3 .7-3.1.5-7.4"/><path fill="#006b3f" d="M503.1 556c.4 6.3-.7 10.5-2.7 11-2-.3-3.7-4.3-4.3-10.6-.4-6.3.7-10.5 2.7-11 2 .3 3.7 4.4 4.3 10.6"/><path d="M503.4 556q.3 4.8-.5 8-.9 3.4-2.4 3.6-1.6 0-3-3.2a29 29 0 0 1-1.2-16q.8-3.4 2.4-3.6 1.6 0 3 3.3t1.6 8m-.4 0q-.4-4.4-1.5-7.3-1.3-2.9-2.6-2.8-1.4 0-2.1 3-.7 3.1-.4 7.4a26 26 0 0 0 1.5 7.2q1.2 2.9 2.6 2.9 1.4-.1 2.1-3.1.7-3.1.4-7.4"/><path fill="#006b3f" d="M498.8 544.8c.4 6.3-.7 10.5-2.7 11-2-.3-3.7-4.4-4.4-10.6-.3-6.3.7-10.5 2.7-11 2 .3 3.8 4.3 4.4 10.6"/><path d="M499 544.8q.3 4.8-.4 8-1 3.5-2.5 3.6-1.4 0-2.9-3.3a29 29 0 0 1-1.2-16c.6-2.4 1.3-3.3 2.4-3.5q1.6 0 3 3.2 1.2 3.3 1.6 8m-.4 0q-.4-4.3-1.6-7.2t-2.5-2.9-2.1 3.1-.5 7.4q.4 4.2 1.6 7.2 1.2 2.9 2.6 2.8 1.4 0 2-3 .8-3.1.5-7.4"/><path fill="#006b3f" d="M504.8 545.3c.4 6.9-.6 11.6-2.5 12.1-2-.3-3.7-4.8-4.3-11.7-.4-6.9.6-11.7 2.5-12.2 2 .3 3.6 4.9 4.3 11.8"/><path d="M505 545.3q.3 5-.4 8.9-.8 3.7-2.3 3.8t-2.8-3.5a36 36 0 0 1-1.3-17.7q.7-3.8 2.2-3.9c1 .1 1.9 1 2.9 3.6q1.2 3.6 1.7 8.8m-.4 0a33 33 0 0 0-1.6-8q-1.1-3.1-2.5-3.1t-2 3.4a32 32 0 0 0 1.3 16q1.1 3.3 2.5 3.2 1.2-.1 2-3.4.6-3.4.3-8.1"/><path fill="#006b3f" d="M513.2 546.7c.4 6.5-.6 10.9-2.5 11.4-2-.3-3.6-4.5-4.3-11-.4-6.5.7-10.9 2.6-11.4 2 .3 3.6 4.5 4.2 11"/><path d="M513.4 546.7q.3 4.8-.4 8.3-.8 3.6-2.3 3.6t-2.8-3.3a32 32 0 0 1-1.3-16.6q.9-3.4 2.3-3.6 1.4 0 2.9 3.3 1.2 3.4 1.6 8.3m-.4 0q-.3-4.4-1.5-7.5t-2.5-3q-1.4.2-2 3.3a29 29 0 0 0 1.1 15q1.3 3 2.5 3c1-.2 1.5-1 2-3.2q.7-3.2.4-7.6"/><path fill="#006b3f" d="M508.6 542.2c.4 6.4-.6 10.8-2.6 11.3-2-.3-3.6-4.5-4.2-11-.4-6.4.6-10.8 2.5-11.3 2 .3 3.7 4.5 4.3 11"/><path d="M508.8 542.2q.3 4.8-.4 8.3-.9 3.4-2.3 3.6-1.5 0-2.8-3.3a32 32 0 0 1-1.3-16.6q.8-3.4 2.3-3.6 1.4 0 2.8 3.3 1.2 3.4 1.7 8.2m-.4 0a29 29 0 0 0-1.5-7.4q-1.2-3-2.5-3c-1 .2-1.5 1-2 3.2q-.7 3.3-.4 7.6.5 4.4 1.5 7.5 1.3 3 2.5 3c1-.2 1.5-1 2-3.2q.7-3.2.4-7.6"/><path fill="#006b3f" d="M502.7 535.8c.4 6.4-.6 10.8-2.5 11.3-2-.3-3.6-4.5-4.3-11-.3-6.5.7-10.8 2.6-11.3 2 .3 3.6 4.5 4.2 11"/><path d="M503 535.7q.3 4.9-.5 8.4-.8 3.4-2.3 3.6-1.4 0-2.8-3.3a32 32 0 0 1-1.3-16.6q.9-3.5 2.3-3.6 1.4 0 2.9 3.3 1.3 3.4 1.6 8.2m-.4 0a29 29 0 0 0-1.5-7.4q-1.2-3-2.5-3c-.9.2-1.5 1-2 3.2q-.6 3.2-.4 7.6.4 4.4 1.6 7.5 1.1 3 2.5 3c.9-.2 1.4-1 2-3.2q.6-3.3.3-7.6"/><path fill="#006b3f" d="M497.3 531.6c.4 6.5-.6 10.9-2.5 11.4-2-.4-3.7-4.5-4.3-11-.4-6.5.6-11 2.6-11.4 2 .3 3.6 4.5 4.2 11"/><path d="M497.5 531.6q.3 4.8-.4 8.3-.8 3.6-2.3 3.6t-2.8-3.3a32 32 0 0 1-1.3-16.6q.9-3.4 2.3-3.6 1.4 0 2.9 3.3 1.3 3.4 1.6 8.3m-.4 0q-.3-4.4-1.5-7.5t-2.5-3q-1.4.2-2 3.3a29 29 0 0 0 1.1 15q1.3 3 2.5 3c1-.2 1.5-1 2-3.2q.7-3.2.4-7.6"/><path fill="#9461c9" d="M488 439.1c-.2.1-11.9 12.3-10.7 51.2a91 91 0 0 0 26.5 61s6.2-9.9 5.7-41.2c-2-45.9-13.6-67.7-13.7-67.8z"/><path d="m487.9 438.8 8 3.2.1.1q3 5.6 6.2 16.8 6.3 22.4 7.5 51.2.4 19.6-2.6 32.5a35 35 0 0 1-3.1 9l-.1.2-.2-.1q-6.2-5.6-12.8-16-12.9-21-13.9-45.4-.8-24.4 4.9-40.3 3-8 5.9-11.1zm0 .7q-2.7 3-5.6 10.8a111 111 0 0 0-4.8 40 92 92 0 0 0 26.3 60.7q1.4-2.6 2.9-8.7 3-12.7 2.5-32.2-1.1-28.6-7.4-51a94 94 0 0 0-6-16.5z"/><path fill="#006b3f" d="M518.6 561.2c-.5 6.1-2 9.9-4.2 9.9-2-.8-3.2-5.1-3-11.3.5-6.2 2-10 4.1-10 2 .8 3.2 5.2 3 11.4"/><path d="M518.8 561.2q-.3 4.6-1.5 7.7-1.3 3-3 2.8-1.4-.4-2.4-3.9a29 29 0 0 1 .8-15.7q1.4-3.1 2.9-2.8t2.5 3.8q.9 3.5.7 8.1m-.4 0q.1-4.3-.7-7.4t-2.2-3.4-2.5 2.5q-1 2.7-1.4 7-.1 4.1.6 7.3.9 3 2.2 3.4 1.4.2 2.6-2.5 1-2.7 1.4-7"/><path fill="#006b3f" d="M512.7 558.2c-.5 6.1-2 9.9-4.1 9.9-2-.8-3.2-5.2-3-11.3.4-6.2 2-10 4.1-10 2 .8 3.2 5.2 3 11.4"/><path d="M513 558.2q-.4 4.6-1.6 7.7c-1 2-1.7 2.8-2.9 2.7q-1.5-.3-2.5-3.8a29 29 0 0 1 .9-15.7q1.3-3.2 2.8-2.8 1.6.3 2.5 3.8 1 3.5.7 8.1m-.4 0q.2-4.4-.6-7.4-.9-3.1-2.2-3.4t-2.6 2.5q-1 2.6-1.3 7-.3 4 .6 7.3.8 3 2.2 3.3t2.5-2.4q1-2.8 1.4-7"/><path fill="#006b3f" d="M509.8 546.3c-.4 6.2-2 10-4.1 10-2-.9-3.2-5.2-3-11.4.5-6.2 2-10 4.1-10 2 .9 3.2 5.2 3 11.4"/><path d="M510 546.3q-.2 4.6-1.5 7.7-1.3 3-2.8 2.8c-1.1-.4-1.9-1.4-2.6-3.9a29 29 0 0 1 .9-15.7q1.3-3 2.9-2.8t2.5 3.8.7 8.1m-.5 0q.2-4.3-.6-7.4-.9-3-2.2-3.4-1.4-.2-2.5 2.5t-1.4 7a26 26 0 0 0 .6 7.3q.9 3 2.2 3.4 1.4.2 2.5-2.5a23 23 0 0 0 1.4-7"/><path fill="#006b3f" d="M515.8 548.2c-.5 6.8-2.1 11-4.1 11-2-.7-3-5.5-2.8-12.3.5-6.7 2-11 4-11 2 .7 3.1 5.5 2.9 12.3"/><path d="M516 548.2q-.3 5.2-1.5 8.5-1.3 3.5-2.8 3.2t-2.4-4.1a35 35 0 0 1 1-17.4q1.2-3.4 2.7-3.2c1 .4 1.7 1.5 2.4 4.2q.8 3.7.6 8.8m-.4 0a32 32 0 0 0-.6-8.1q-.7-3.4-2-3.7-1.4-.2-2.5 2.8-1 3-1.4 7.8a32 32 0 0 0 .5 8q.8 3.4 2.1 3.7 1.4.2 2.5-2.8 1-3.1 1.4-7.7"/><path fill="#006b3f" d="M524 551.7c-.4 6.3-2 10.3-4 10.3-1.9-.8-3-5.3-2.8-11.6.5-6.4 2-10.4 4-10.4 2 .8 3 5.3 2.9 11.7"/><path d="M524.3 551.7a28 28 0 0 1-1.5 8q-1.3 3.2-2.8 2.9c-1-.4-1.7-1.4-2.4-4a31 31 0 0 1 .9-16.2q1.3-3.2 2.8-3c1 .4 1.7 1.4 2.4 4q.8 3.5.6 8.3m-.4 0q0-4.5-.6-7.7-.8-3.2-2.1-3.4-1.3-.3-2.5 2.6-1 3-1.3 7.2-.2 4.4.5 7.6.8 3.1 2.2 3.4t2.4-2.6q1-3 1.4-7.2"/><path fill="#006b3f" d="M520 546.1c-.5 6.4-2 10.4-4 10.4-2-.8-3.1-5.3-2.9-11.7.5-6.3 2-10.3 4-10.3 2 .8 3.1 5.3 2.9 11.6"/><path d="M520.2 546.2q-.3 4.8-1.5 8-1.3 3.1-2.8 2.8t-2.4-3.9a31 31 0 0 1 1-16.3q1.1-3.2 2.7-2.9 1.4.3 2.4 4 .8 3.5.6 8.3m-.4-.1q.2-4.4-.6-7.6t-2-3.4-2.5 2.6-1.4 7.2.6 7.6q.8 3.1 2.1 3.4t2.4-2.6q1.2-3 1.4-7.2"/><path fill="#006b3f" d="M515 538.5c-.5 6.4-2 10.3-4 10.4-2-.8-3.1-5.3-3-11.7.5-6.3 2.1-10.3 4.1-10.3 2 .7 3 5.3 2.9 11.6"/><path d="M515.2 538.6q-.3 4.7-1.5 8-1.3 3.1-2.8 2.8t-2.4-3.9a31 31 0 0 1 .9-16.3q1.3-3.2 2.7-2.9t2.4 4q.9 3.4.7 8.3m-.4-.1q0-4.4-.6-7.6-.8-3.2-2.1-3.4t-2.5 2.5a29 29 0 0 0-.8 14.8q.8 3.3 2.2 3.5c1 0 1.6-.6 2.4-2.6q1-3 1.4-7.2"/><path fill="#006b3f" d="M510 533.2c-.4 6.3-2 10.3-4 10.3-1.9-.7-3-5.3-2.8-11.6.4-6.4 2-10.4 4-10.4 2 .8 3 5.3 2.9 11.7"/><path d="M510.3 533.2q-.3 4.8-1.5 8-1.3 3.2-2.8 2.9t-2.4-4a32 32 0 0 1 .9-16.2q1.3-3.2 2.7-3 1.6.4 2.5 4t.6 8.3m-.4 0q0-4.5-.6-7.7-.8-3.1-2.1-3.4t-2.5 2.6q-1 3-1.3 7.2-.2 4.4.5 7.6.8 3.2 2.2 3.4 1.4.3 2.4-2.5a26 26 0 0 0 1.4-7.3"/><path fill="#d41c30" d="M522.9 505.8c6.7 23 8 42.1 2.8 44.5-5.5 1.5-14.8-14.5-21.8-37.5-6.7-23-8-42.1-2.8-44.5 5.5-1.5 14.8 14.6 21.8 37.5"/><path d="M523 505.7q5 17.1 5.9 30 .3 6.3-.4 10c-.6 2.7-1.4 4-2.8 4.7q-2 .7-4.7-1.9a38 38 0 0 1-5.7-7.7q-6.3-11-11.4-28a141 141 0 0 1-6-30 43 43 0 0 1 .4-10q.9-3.8 2.8-4.6 2-.7 4.7 1.9 2.6 2.5 5.7 7.7 6.3 11 11.5 28m-.2 0a135 135 0 0 0-11.5-27.9q-3-5-5.6-7.6-2.7-2.5-4.5-1.8c-1.3.6-2 1.8-2.7 4.5q-.6 3.7-.4 9.8.9 13 6 30a135 135 0 0 0 11.4 27.9q3 5.1 5.6 7.6 2.7 2.5 4.5 1.8t2.7-4.5q.6-3.7.4-9.8-.9-13-6-30"/><path fill="#006b3f" d="M510 469q-.4 4.6-4.5 4.5-4-1.2-4.3-6.1.4-4.8 4.5-4.6c2.5.7 4.2 3 4.3 6.1"/><path d="M510.3 469q0 2.3-1.4 3.7t-3.4 1-3.3-2.2a7 7 0 0 1-1.3-4.2q0-2.3 1.4-3.7t3.4-1 3.3 2.2a7 7 0 0 1 1.3 4.2m-.6-.1q0-2-1.2-3.8a5 5 0 0 0-2.8-2q-1.7-.2-3 1-1.2 1.3-1.2 3.3 0 2.1 1.2 3.8a5 5 0 0 0 2.8 2q1.6.3 3-1 1.2-1.3 1.2-3.3"/><path fill="#006b3f" d="M512.9 461.8q-.4 4.8-4 4.6-3.6-1-4-6 .6-4.7 4.1-4.6 3.5 1.2 3.9 6"/><path d="M513.2 461.9q0 2.3-1.3 3.7t-3 1.2q-1.9-.4-3-2.2a8 8 0 0 1-1.2-4.2 6 6 0 0 1 1.3-3.8q1.2-1.4 3-1.1 1.7.4 3 2.2a8 8 0 0 1 1.2 4.2m-.6-.1q0-2.1-1-3.8-1.2-1.5-2.6-1.9-1.5-.2-2.6 1-1 1.4-1.1 3.4a7 7 0 0 0 1 3.7q1 1.6 2.6 2 1.4.1 2.6-1 1-1.4 1.1-3.4"/><path fill="#006b3f" d="M507.6 460.9c-.3 3-1.8 4.8-4 4.6q-3.6-1.2-4-6 .5-4.8 4-4.6c2.4.6 3.8 2.9 4 6"/><path d="M507.8 461q0 2.2-1.3 3.7-1.2 1.4-3 1.1-1.7-.4-3-2.2a8 8 0 0 1-1.2-4.2q.1-2.3 1.3-3.7 1.4-1.4 3-1.2 1.9.4 3 2.2a8 8 0 0 1 1.2 4.2m-.5 0a7 7 0 0 0-1-3.8q-1.2-1.6-2.7-2-1.5-.1-2.6 1-1 1.4-1 3.4-.1 2 1 3.8 1 1.5 2.5 1.9 1.5.2 2.6-1 1.1-1.4 1.2-3.4"/><path fill="#006b3f" d="M509 455.6q-.6 4.4-4.3 4.2c-2.4-.6-4-2.8-4-5.7q.4-4.5 4.1-4.3 3.8 1.2 4.1 5.8"/><path d="M509.2 455.6q0 2.2-1.3 3.5-1.4 1.4-3.2 1t-3.1-2.1a7 7 0 0 1-1.3-4 5 5 0 0 1 1.3-3.5q1.4-1.2 3.2-1 1.8.4 3.2 2.2a7 7 0 0 1 1.2 4m-.6-.2q0-1.9-1-3.5-1.2-1.5-2.8-1.9a3 3 0 0 0-2.7 1q-1.1 1.1-1.2 3 0 2 1.1 3.6 1.1 1.5 2.7 1.8a3 3 0 0 0 2.7-.9q1.1-1.1 1.2-3"/><path fill="#006b3f" d="M508.4 449.2q-.4 4.4-4.2 4.2c-2.4-.6-3.9-2.8-4-5.7q.4-4.6 4.2-4.3 3.7 1.2 4 5.8"/><path d="M508.7 449.2q0 2.2-1.3 3.5-1.4 1.4-3.2 1t-3.1-2.1a7 7 0 0 1-1.2-4 5 5 0 0 1 1.3-3.5q1.4-1.2 3.2-1 1.8.4 3.1 2.2a7 7 0 0 1 1.2 4m-.6-.2q0-1.9-1-3.5-1.2-1.5-2.8-1.9a3 3 0 0 0-2.7 1q-1 1.1-1.2 3 0 2 1.1 3.6 1.1 1.5 2.7 1.8a3 3 0 0 0 2.7-.8q1.2-1.2 1.2-3.2"/><path fill="#006b3f" d="M502.4 455.8q-.4 4.8-4 4.6-3.5-1-3.9-6 .5-4.7 4-4.6 3.6 1.2 4 6"/><path d="M502.7 455.9a6 6 0 0 1-1.2 3.7q-1.4 1.4-3 1.2-1.9-.4-3-2.3a8 8 0 0 1-1.3-4.1 6 6 0 0 1 1.3-3.8q1.4-1.5 3-1.1 1.9.4 3 2.2a8 8 0 0 1 1.2 4.2m-.5-.1a7 7 0 0 0-1-3.8q-1.1-1.5-2.6-1.9-1.6-.2-2.7 1-1 1.4-1.1 3.4a7 7 0 0 0 1 3.7q1.1 1.6 2.6 2 1.4.1 2.6-1 1.1-1.4 1.2-3.4"/><path fill="#006b3f" d="M503.6 449.2q-.4 4.6-4 4.5-3.5-1.2-3.9-6 .4-4.6 4-4.4 3.6 1 4 5.9"/><path d="M504 449.2q-.1 2.3-1.4 3.7t-3 1.1q-1.7-.4-3-2.2a8 8 0 0 1-1.2-4q0-2.4 1.3-3.8t3-1q1.9.3 3 2.1a8 8 0 0 1 1.2 4.1m-.5 0q0-2.2-1.1-3.7-1-1.6-2.6-2-1.5-.1-2.6 1-1 1.4-1.1 3.3 0 2 1 3.7 1.2 1.5 2.6 1.9 1.4.2 2.6-1 1-1.3 1.2-3.3"/><path fill="#006b3f" d="M497.6 448.4q-.6 4.8-4.5 4.6-4-1.3-4.4-6.2.5-4.6 4.5-4.5 4 1.3 4.4 6.1"/><path d="M497.9 448.5q0 2.3-1.5 3.7-1.4 1.4-3.3 1-2-.3-3.4-2.2a7 7 0 0 1-1.3-4.2q0-2.3 1.4-3.7t3.4-1 3.3 2.2a7 7 0 0 1 1.4 4.2m-.6-.1q0-2.1-1.2-3.8a5 5 0 0 0-3-2q-1.6-.3-2.8 1-1.2 1.1-1.3 3.3 0 2 1.2 3.8a5 5 0 0 0 2.9 2q1.6.2 2.9-1 1.2-1.3 1.3-3.3"/><path fill="#006b3f" d="M505.4 440.8q-.5 4.5-4.2 4.3c-2.4-.7-4-2.9-4-5.8q.4-4.4 4.1-4.2 3.8 1 4.1 5.7"/><path d="M505.7 440.9q0 2.2-1.3 3.4-1.4 1.4-3.2 1t-3.1-2a7 7 0 0 1-1.3-4 5 5 0 0 1 1.3-3.5q1.4-1.4 3.2-1t3.2 2a7 7 0 0 1 1.2 4m-.6 0q0-2-1-3.6-1.2-1.5-2.8-1.8a3 3 0 0 0-2.7.8q-1.1 1.2-1.2 3.2 0 1.9 1.1 3.5 1.1 1.5 2.7 1.9a3 3 0 0 0 2.7-1q1.1-1.1 1.2-3"/><path fill="#006b3f" d="M499.7 440.9q-.4 4.6-4 4.5-3.6-1.2-4-6 .6-4.6 4-4.5 3.6 1.2 4 6"/><path d="M500 441q-.1 2.2-1.3 3.6-1.4 1.4-3 1-1.9-.2-3-2.1a8 8 0 0 1-1.2-4.1q0-2.3 1.3-3.7 1.2-1.4 3-1 1.7.2 3 2.1a8 8 0 0 1 1.2 4.1m-.6 0q0-2.1-1-3.8-1.1-1.5-2.6-1.9-1.4-.1-2.6 1-1 1.3-1.2 3.3 0 2 1 3.7 1.2 1.5 2.7 1.9 1.4.1 2.6-1 1-1.3 1.1-3.3"/><path fill="#006b3f" d="M491.3 447.7q-.5 4.8-4 4.7c-2.3-.7-3.8-3-4-6q.6-4.9 4-4.7 3.6 1.2 4 6"/><path d="M491.6 447.8a6 6 0 0 1-1.3 3.7q-1.3 1.4-3 1.2-1.9-.4-3-2.2a8 8 0 0 1-1.2-4.2 6 6 0 0 1 1.2-3.8q1.4-1.4 3-1.1 1.9.4 3 2.2a8 8 0 0 1 1.3 4.2m-.6-.1q0-2-1-3.8-1.2-1.5-2.6-1.9-1.5-.2-2.6 1-1.1 1.4-1.2 3.4a7 7 0 0 0 1 3.7q1.2 1.6 2.6 2 1.6.1 2.7-1 1-1.4 1.1-3.4"/><path fill="#006b3f" d="M492.7 444q-.5 4.6-4 4.5-3.6-1.2-4-6 .5-4.6 4-4.4 3.7 1 4 5.9"/><path d="M493 444q-.1 2.3-1.3 3.7-1.4 1.5-3 1-1.9-.2-3-2a8 8 0 0 1-1.2-4.2q0-2.3 1.2-3.7 1.3-1.4 3-1 1.9.2 3 2.1a8 8 0 0 1 1.2 4.1m-.5 0q0-2.1-1-3.8-1.2-1.5-2.6-1.8t-2.6 1a5 5 0 0 0-1.2 3.2q0 2 1 3.7 1.2 1.5 2.6 1.9 1.4.2 2.6-1 1.1-1.3 1.2-3.3"/><path fill="#006b3f" d="M494.3 439.8q-.4 4.7-4 4.5-3.5-1-3.9-5.9.4-4.7 4-4.5 3.6 1.2 4 6"/><path d="M494.6 439.9q0 2.3-1.3 3.7-1.2 1.4-3 1-1.7-.3-3-2.1a8 8 0 0 1-1.2-4.1q0-2.3 1.3-3.7t3-1.1q1.9.4 3 2.2a8 8 0 0 1 1.2 4m-.6 0q0-2-1-3.7-1-1.5-2.6-1.9-1.4-.2-2.6 1-1 1.3-1.1 3.3 0 2 1 3.6 1.2 1.6 2.6 2 1.4.1 2.6-1a5 5 0 0 0 1.2-3.3"/><path fill="#006b3f" d="M528.5 499.2c8 27.2 9.1 50 2.5 52.7-6.9 1.8-18.5-17.6-26.8-44.8-8-27.3-9.1-50.1-2.5-52.8 7-1.7 18.5 17.6 26.8 44.8"/><path d="M528.7 499q6 20.4 6.8 35.8.3 7.4-.7 11.8-1.2 4.7-3.7 5.6c-1.9.5-3.6-.2-6.1-2.3q-3.3-3-7-9.3-8-13.2-14-33.4t-6.8-35.8q-.3-7.4.7-11.8 1.3-4.6 3.7-5.5c1.9-.5 3.6.1 6.1 2.3a45 45 0 0 1 7 9.3q8 13.2 14 33.4m-.5.1q-6-20-13.8-33.2-3.7-6-7-9.1c-2.3-2-3.9-2.7-5.6-2.3q-2.3.8-3.4 5.3t-.7 11.6a155 155 0 0 0 6.8 35.5q6 20.2 13.8 33.3 3.7 6 7 9t5.6 2.3c1.6-.7 2.6-2.1 3.4-5.2q1.1-4.4.7-11.6-.7-15.4-6.8-35.6"/><path fill="#006b3f" d="M529.2 511.8c1.7 5.9 2 10.3.9 11.3-1.4.2-3.5-3.2-5.4-9-1.8-6-2-10.4-1-11.4 1.5-.2 3.5 3.2 5.5 9"/><path d="M529.4 511.7q1.3 4.2 1.6 7.6.4 3.6-.8 4-1.1.5-2.8-2.2a36 36 0 0 1-4.5-14.6q-.4-3.6.8-4 1-.6 2.7 2.2 1.6 2.8 3 7m-.4.2q-1.5-4.1-2.9-6.8-1.5-2.4-2.2-2t-.6 3.4a39 39 0 0 0 4.5 14.2q1.4 2.4 2.2 2t.5-3.4a39 39 0 0 0-1.5-7.4"/><path fill="#006b3f" d="M525.8 512.7a57 57 0 0 1 8 39.2c-3.2-11.3-5-18.4-15.5-37.5-10.3-19.3-5.4-30.4-4.6-36.9 1.5 5.9 1.7 16 12.1 35.2"/><path d="M526 512.5a71 71 0 0 1 8.4 23.4q.8 6.4-.3 16l-.1 1.2-.3-1.1-.5-1.6q-2.8-9.7-5-15-3.3-8.5-10.1-20.8-5.7-10.5-6.5-20.3A54 54 0 0 1 513 481l.6-3.6.1-1.2.4 1.2.9 4.4a104 104 0 0 0 11 30.7m-.3.4a105 105 0 0 1-11.2-31l-.6-3.1-.5 2.5q-1.5 7.6-1.2 13a50 50 0 0 0 6.4 20q6.8 12.3 10.2 20.8 2 5.4 5 15v.6q1-9 .3-14.7-1.5-10.6-8.4-23.1"/><path fill="#006b3f" d="M526.8 527a57 57 0 0 1 8 39.2c-3.3-11.4-5.1-18.4-15.6-37.5-10.3-19.3-5.4-30.5-4.5-37 1.5 6 1.7 16.1 12 35.3"/><path d="M527 526.8a71 71 0 0 1 8.4 23.4q.8 6.3-.3 16l-.2 1.1-.3-1-.5-1.7q-2.7-9.6-4.9-15-3.5-8.5-10.2-20.8-5.7-10.4-6.4-20.2a54 54 0 0 1 1.2-13.3l.6-3.6.2-1.2.3 1.2 1 4.4q2.9 15.7 11 30.7m-.3.4a105 105 0 0 1-11.2-31l-.7-3.2-.4 2.5q-1.5 7.8-1.2 13.1a50 50 0 0 0 6.3 19.9q6.8 12.3 10.2 20.9 2 5.4 5 15l.1.6q1-8.9.2-14.8a70 70 0 0 0-8.3-23"/><path fill="#006b3f" d="M527 538.4a57 57 0 0 1 8.7 39c-3.5-11.3-5.4-18.3-16.1-37.1-10.6-19-5.8-30.3-5-36.8 1.5 5.8 1.8 16 12.5 34.9"/><path d="M527.2 538.2q7.1 12.5 8.8 23.2a70 70 0 0 1 0 16l-.2 1.2-.3-1.1-.5-1.6q-3-9.5-5.2-14.9-3.5-8.4-10.4-20.5-5.9-10.4-6.7-20.1-.5-5.5 1-13.4l.6-3.6v-1.2l.4 1.2q.4 1.2 1 4.4 3.2 15.6 11.5 30.4m-.3.4q-8.5-14.9-11.6-30.7l-.7-3.2-.4 2.5q-1.5 7.7-1 13.2.8 9.5 6.6 19.7 6.8 12.2 10.4 20.6 2.2 5.4 5.2 15l.2.5q.8-9 0-14.7-1.7-10.5-8.7-23"/><path fill="#006b3f" d="M524 494.4c3.1 10.4 3.6 18.1 1.2 19-2.6 0-6.8-7-10-17.2-3.1-10.4-3.6-18.1-1.2-19 2.6 0 6.8 7 10 17.2"/><path d="M524.3 494.4q2.3 7.5 2.7 13.2c.1 4-.4 5.6-1.7 6.1-1.5.1-3-1.2-5-4.8a66 66 0 0 1-8-25.9c-.2-4 .3-5.7 1.6-6.1 1.5-.1 3 1.2 5 4.8q3 5.2 5.4 12.7m-.5 0q-2.4-7.3-5.2-12.4-2.8-4.8-4.5-4.5-1.6.4-1.4 5.6.5 5.5 2.7 13t5.2 12.5c2 3.3 3.3 4.5 4.5 4.5 1.1-.4 1.5-2 1.3-5.7q-.2-5.5-2.6-13"/><path fill="#006b3f" d="M519.4 504c2.4 8.6 2.5 14.7.4 15.3-2.4-.2-5.8-6-8.4-14.6-2.4-8.6-2.5-14.7-.3-15.3 2.3.2 5.8 6.1 8.3 14.6"/><path d="M519.7 504q1.8 6.2 1.9 10.8c0 3.2-.5 4.5-1.7 4.8q-1.9.1-4.4-4.3a54 54 0 0 1-6.2-21.4c0-3.2.4-4.5 1.7-4.8q1.8-.1 4.4 4.3 2.4 4.4 4.3 10.6m-.5 0a52 52 0 0 0-4.2-10.3q-2.4-4.1-3.8-4t-1.4 4.4q.1 4.4 1.9 10.6a53 53 0 0 0 4.2 10.3q2.3 4.1 3.8 4 1.4-.1 1.4-4.4a46 46 0 0 0-2-10.6"/><path fill="#006b3f" d="M514.5 510c2.2 8.6 2.3 14.7 0 15.2-2.3-.3-5.6-6.2-8-14.8-2.3-8.7-2.4-14.7-.2-15.3 2.4.3 5.7 6.3 8.2 14.9"/><path d="M514.7 510q1.7 6.2 1.8 10.8c0 3.2-.6 4.5-1.8 4.7q-1.9.1-4.4-4.4a54 54 0 0 1-5.9-21.5c0-3.2.6-4.5 1.8-4.8q1.9 0 4.4 4.5 2.4 4.4 4.1 10.7m-.5 0a53 53 0 0 0-4-10.5q-2.3-4.1-3.8-4-1.4 0-1.4 4.3 0 4.4 1.7 10.6 1.8 6 4 10.5 2.3 4.1 3.8 4 1.4-.1 1.5-4.3-.2-4.5-1.8-10.6"/><path fill="#006b3f" d="M517.8 486.6c2 6.6 2.2 11 .5 11.6-2-.2-4.7-4.5-7-11-2-6.5-2.2-10.9-.5-11.5 2 .2 4.7 4.5 7 11"/><path d="M518 486.6q1.5 4.7 1.8 8.1 0 3.6-1.4 3.8-1.4 0-3.7-3.3a39 39 0 0 1-5.3-16q-.1-3.6 1.4-3.8 1.4 0 3.6 3.3 2 3.2 3.7 8m-.5 0q-1.6-4.7-3.6-7.8-1.9-3-3-2.9c-.8.2-1.1 1-1 3.3q0 3.3 1.6 8 1.5 4.5 3.5 7.7 2 3 3.1 2.9t1-3.3-1.6-8"/><path fill="#006b3f" d="M513.6 490.7c1.8 6.6 1.8 11 0 11.4-2-.3-4.5-4.8-6.5-11.3-1.8-6.6-1.8-11 0-11.5 2 .4 4.5 4.8 6.5 11.3"/><path d="M513.9 490.7a33 33 0 0 1 1.3 8.1q0 3.6-1.5 3.6-1.5.1-3.6-3.5a40 40 0 0 1-4.6-16.3c0-2.5.5-3.4 1.5-3.6q1.6 0 3.6 3.5 1.9 3.5 3.3 8.1m-.5 0q-1.4-4.5-3.2-7.9-1.9-3-3-3.1-1.1 0-1.2 3.2t1.3 8q1.4 4.6 3.3 8 1.7 3 3 3 1 0 1-3.2a32 32 0 0 0-1.2-8"/><path fill="#006b3f" d="M507 483.4c3.2 11.2 4.3 20 2.9 21.3-1.8.4-5.2-7-8.5-18z"/><path d="M507.3 483.4a109 109 0 0 1 3.2 14.4c.5 4.4.3 6.5-.5 7.2-1 .3-2.1-1-4-4.8a99 99 0 0 1-4.8-13.5l.4-.2q2.4 8.1 4.8 13.4c1.7 3.5 2.6 4.7 3.4 4.5.6-.6.7-2.4.2-6.6q-.9-6.2-3.1-14.3z"/><path fill="#006b3f" d="M513.1 478.4c1.8 6.6 1.8 11 0 11.5-2-.4-4.5-4.8-6.5-11.4-1.8-6.6-1.8-11 0-11.5 2 .4 4.5 4.8 6.5 11.4"/><path d="M513.4 478.4q1.3 4.8 1.3 8.2t-1.5 3.6q-1.6 0-3.6-3.5a40 40 0 0 1-4.6-16.4q0-3.5 1.5-3.5 1.5-.1 3.6 3.4 1.8 3.4 3.3 8.2m-.5 0q-1.4-4.6-3.3-8-1.6-3-3-3-1 0-1 3.1 0 3.4 1.2 8 1.4 4.6 3.2 8 1.9 3 3 3t1.2-3.1q0-3.2-1.3-8"/><path fill="#006b3f" d="M508 481.1c1.6 6.7 1.5 11-.3 11.4-2-.4-4.5-4.9-6.3-11.5s-1.6-11 .2-11.4c1.9.4 4.4 5 6.3 11.5"/><path d="M508.2 481.1q1.2 4.9 1.2 8.2c-.1 2.5-.6 3.4-1.6 3.5q-1.5 0-3.5-3.5a40 40 0 0 1-4.4-16.4q0-3.6 1.6-3.6 1.5.1 3.5 3.6 1.8 3.4 3.2 8.2m-.5 0a39 39 0 0 0-3.1-8c-1.3-2.2-2.1-3-3-3.2q-1 0-1.2 3.1 0 3.4 1.2 8 1.4 4.8 3.1 8 1.6 3.2 3 3.2 1 0 1.2-3 0-3.5-1.2-8.1"/><path fill="#006b3f" d="M501.7 468.5c3 7.8 4.4 14 3.6 15.2-1.3.5-4.1-4.2-7.3-12z"/><path d="M501.9 468.4c3.7 9.4 4.7 14.1 3.5 15.6q-1 .8-3.2-3a69 69 0 0 1-4.4-9l.4-.4q2.3 5.6 4.4 9 2 3.3 2.5 2.8t-.3-4.8a79 79 0 0 0-3.3-10z"/><path fill="#006b3f" d="M503.8 464.2c3 7.8 4.4 14 3.6 15.2-1.3.5-4.1-4.2-7.3-12z"/><path d="M504 464c3.7 9.5 4.7 14.2 3.5 15.6q-1 .9-3.2-2.9a69 69 0 0 1-4.4-9.1l.4-.3q2.3 5.6 4.3 9 2 3.3 2.6 2.8t-.4-4.8a79 79 0 0 0-3.3-10z"/><path fill="#006b3f" d="M513.1 466.6c4.3 10.5 6.3 19.2 5 20.8-1.6.8-5.7-5.8-10.1-16.3z"/><path d="M513.3 466.5q3.2 7.7 4.7 13.8c1 4.4 1 6.5.3 7.3-1 .6-2.1-.5-4.3-3.9q-3-4.8-6.2-12.5l.4-.3q3.2 7.6 6.1 12.4c2 3.1 3 4.1 3.7 3.8.6-.7.5-2.6-.5-6.7q-1.5-6-4.6-13.6z"/><path fill="#006b3f" d="M507 460.7c3 8.4 4.4 15.3 3.6 16.6-1.3.6-4.1-4.5-7.3-13z"/><path d="M507.1 460.5c3.8 10.3 4.8 15.6 3.6 17.1q-1 1-3.2-3.2-2.1-3.8-4.5-10l.5-.2q2.3 6 4.3 9.9 2 3.4 2.6 3c.4-.6.3-2.1-.4-5.3q-1-5-3.3-11z"/><path fill="#9461c9" d="M506.7 449.4c-1.8 2.9-.2 7.6 1.8 10.2 2.3 3.3 13.2 20.9 22 8.6-7-2-18.6-23.4-23.8-18.8"/><path d="M506.5 449.2c1.5-1.4 3.1-1.2 5.9 1q2.3 2 7.4 8c5.4 6.2 8.7 9.1 10.6 9.6l.5.1-.3.5c-3.6 5.3-7.4 6-12.7 2.3q-4-3-9-10.2l-.6-.7a13 13 0 0 1-2.4-5.1q-.9-3.7.6-5.5m.3.5q-1.2 1.5-.5 4.8.9 3 2.3 4.8l.6.8q4.9 7 8.9 10c5 3.4 8.4 2.9 11.8-1.7q-3-1.3-10.3-9.8a83 83 0 0 0-7.4-7.8c-2.6-2-4-2.3-5.4-1.1"/><path fill="#9461c9" d="M505.2 440.9c-1.7 2.9-.1 7.6 1.8 10.1 2.4 3.4 13.3 21 22 8.6-6.9-1.9-18.5-23.4-23.8-18.7"/><path d="M505 440.6c1.6-1.4 3.2-1 6 1.1q2.3 2 7.4 8 7.9 9 10.6 9.6l.5.1-.3.5c-3.6 5.3-7.4 6-12.8 2.3q-4-3-9-10.2l-.5-.7a13 13 0 0 1-2.4-5.1c-.6-2.6-.4-4.2.6-5.6m.3.6q-1.2 1.5-.5 4.8.8 3 2.3 4.8l.5.8q5 7 9 10c5 3.4 8.4 2.9 11.8-1.8q-3-1.1-10.4-9.7-5.1-6-7.4-7.8-3.6-3-5.3-1.1"/><path fill="#9461c9" d="M503.4 432.7c-1.8 2.9-.1 7.6 1.8 10.1 2.4 3.4 13.2 21 22 8.6-7-1.9-18.5-23.4-23.8-18.7"/><path d="M503.2 432.4c1.5-1.4 3.1-1.1 6 1q2.1 2 7.4 8 7.8 9.1 10.5 9.7h.5l-.3.6c-3.6 5.2-7.3 6-12.7 2.3q-4-3-9-10.2l-.6-.7q-1.5-2-2.4-5.2-.8-3.6.6-5.5m.4.5q-1.3 1.6-.5 4.9.7 3 2.2 4.8l.6.7q4.9 7.1 8.9 10c5 3.5 8.5 3 11.9-1.7q-3.1-1.2-10.4-9.7-5.3-6-7.4-7.9c-2.6-2-4-2.3-5.3-1"/><path fill="#9461c9" d="M499.4 423c-1.8 2.9-.1 7.6 1.8 10.1 2.3 3.4 13.2 21 22 8.6-7-1.9-18.5-23.4-23.8-18.7"/><path d="M499.2 422.7c1.5-1.4 3.1-1.1 6 1q2.1 2 7.4 8 7.8 9.1 10.5 9.7h.5l-.3.6c-3.6 5.2-7.3 6-12.7 2.2a46 46 0 0 1-9-10.1l-.6-.8a13 13 0 0 1-2.4-5c-.5-2.6-.4-4.2.6-5.6m.4.5q-1.3 1.6-.5 4.9.7 3 2.2 4.8l.6.7q4.9 7.1 8.9 10c5 3.5 8.4 3 11.9-1.7q-3.1-1.1-10.4-9.7-5.3-6-7.4-7.9c-2.6-2-4-2.3-5.3-1"/><path fill="#9461c9" d="M485 412c4.5-3.5 11.5-3.5 17.8 1.5 4.8 4.2 13.4 18.7 19.5 23-4.5.3-7-.8-9.9-3.1-5.6 4.6-7.4 5-13.1 5.3-8 .1-14-3.3-16.6-9.4-2.3-6-1.3-13.5 2.3-17.2"/><path d="M484.9 411.8a12 12 0 0 1 8.3-2.6 17 17 0 0 1 9.7 4 75 75 0 0 1 8.1 9.9q7.9 10.8 11.4 13.2l.8.6h-.9c-3.7.2-6.6-.7-9.9-3.1a29 29 0 0 1-6.4 4.3 24 24 0 0 1-17.2-1.4c-3-2-5-4-6.3-7.2a20 20 0 0 1-1.2-9.8c.6-3.7 1.7-6 3.6-8m.3.7q-2.6 2.4-3.3 7.5a19 19 0 0 0 1 9.3c1.3 3 3 5 6 6.8a24 24 0 0 0 16.8 1.3 29 29 0 0 0 6.6-4.2v-.1h.2c3 2.3 5.6 3.2 8.8 3.3q-3.5-3-10.6-12.7-6-8-8-9.8-4.3-3.5-9.5-4-4.7-.1-8 2.6"/><path fill="#d41c30" d="M497.4 422.5q-.3 2.4-3.6 2.2-3.2-.9-3.5-3.5.4-2.4 3.6-2.2 3.2.9 3.5 3.5"/><path d="M497.8 422.6q0 1.2-1.2 2a4 4 0 0 1-2.8.3q-1.7-.2-2.7-1.4-1.1-1-1.2-2.3 0-1.4 1.2-2a4 4 0 0 1 2.8-.4q1.6.3 2.8 1.4 1 1.1 1 2.4m-.6-.2q0-1-1-2t-2.2-1.1-2.3.3q-1 .6-1 1.7 0 1 1 2t2.2 1.2 2.3-.4 1-1.7"/><path fill="#fcd116" d="M487.6 430q.5 3.9-3.6 5.7-4.4 1.2-5.8-2.4-.5-3.7 3.7-5.7 4.4-1.1 5.7 2.4"/><path d="M487.9 430q.3 1.7-.7 3.6-1.2 1.8-3.1 2.5-2.1.6-3.8 0-1.9-.8-2.3-2.7-.5-1.8.6-3.6t3.2-2.5 3.8 0q1.8.8 2.2 2.6m-.4.2q-.5-1.5-2-2.2a5 5 0 0 0-3.5 0 6 6 0 0 0-2.8 2.3 4 4 0 0 0-.6 3q.4 1.6 2 2.2a5 5 0 0 0 3.4 0 6 6 0 0 0 2.9-2.2q.9-1.6.6-3m7.6-8.3q-.2 1.3-1.4 1.3-1.1-.4-1.2-1.8t1.3-1.3q1.1.4 1.3 1.8"/><path fill="#fcd116" d="M486 424.5c.1 2.4-.8 4.7-3.5 5.6-2.6 1.3-4.4 4-5.7 9.4-3.9-13.3-1.6-17.8 2.7-18.6 3.9-1 5.6-.6 6.5 3.5"/><path d="M486.3 424.4q.2 2-.7 3.7-1.1 1.9-3 2.4c-2.6 1.3-4.3 4-5.5 9.2l-.3 1-.3-1a32 32 0 0 1-1.7-14.3c.8-3 2.1-4.4 4.7-5q3-.8 4.5 0 1.8.9 2.3 4m-.6 0q-.4-2.5-1.9-3.3-1.4-.6-4.2.2-3.3.5-4.2 4.4-1 4.3 1.3 12.6c1.3-4.8 3-7.3 5.7-8.6q1.7-.5 2.7-2.1.8-1.5.6-3.1"/><path d="M483 424.9q0 1.1-.8 1.2-1-.2-1-1.4t.9-1.2q.7.2 1 1.4"/><path fill="#1a1a1a" d="M8 195.3c170.8-85.3 341-54.5 513.3-28C676.5 191 833.4 211.8 992 132.7v672c-170.8 85.3-341 54.5-513.3 28C323.5 809 166.6 788.1 8 867.2zm31.3 19.3v604.5c306.5-128.2 611.1 96 921.5-33.7V180.9C654.2 309 349.5 84.9 39.3 214.6" opacity=".2"/></svg>