<svg xmlns="http://www.w3.org/2000/svg" viewBox="0 0 1000 1000"><path fill="#006b3f" d="M8 195c171-85 341-54 513-28 155 24 312 45 471-34v672c-171 85-341 54-513 28-155-24-312-45-471 34z"/><path fill="#fcd116" d="m439 155 61 9v672l-61-9zM8 447c171-85 341-54 513-28 155 24 312 45 471-34v84c-171 85-341 54-513 28-155-24-312-45-471 34z"/><path fill="#fff" d="m500 164 62 9v672l-62-9zM8 531c171-85 341-54 513-28 155 24 312 45 471-34v84c-171 85-341 54-513 28-155-24-312-45-471 34z"/><path d="m480 161 41 6v672l-41-6zM8 503c171-85 341-54 513-28 155 24 312 45 471-34v56c-171 85-341 54-513 28-155-24-312-45-471 34z"/><path fill="#d41c30" d="M623 517c0 94-55 161-123 151-68-11-123-93-123-185 0-94 55-161 123-151 68 11 123 93 123 185"/><path fill="#006b3f" d="m496 367 4-15 4 16 12 2-10 8 4 18-10-12-10 8 4-16-10-11z"/><path d="m496 366 4-16 4 17 13 2-10 10 4 18-11-13-11 9 4-17-10-11zm0 1-10-1 8 10-3 15 9-8 10 11-4-16 8-8-11-2-3-14z"/><path fill="#006b3f" d="m504 633-4 15-4-16-12-2 10-8-4-18 10 12 10-8-4 16 10 11z"/><path d="m504 634-4 16-4-17-13-2 10-10-4-18 11 13 11-9-4 17 10 12zm0-1 10 1-8-10 3-15-9 8-10-11 4 16-8 8 11 2 3 14z"/><path fill="#006b3f" d="m554 398 10-8-4 14 10 12-12-2-4 17-4-17-12-2 10-9-4-16z"/><path d="m554 397 10-8-3 15 10 12-13-1-4 18-4-19-14-2 11-9-3-17zm0 1-9-9 3 14-9 8 11 2 4 16 3-15 12 1-9-10 3-14z"/><path fill="#006b3f" d="m446 602-10 8 4-14-10-12 12 2 4-17 4 17 13 2-11 9 4 16z"/><path d="m446 603-10 8 3-15-10-12 13 1 4-18 4 19 14 2-11 9 3 17zm0-1 9 9-3-14 9-8-11-2-4-16-3 15-11-1 8 10-3 14z"/><path fill="#006b3f" d="m591 467 12 2-9 8 3 16-10-10-10 9 4-16-10-11 13 1 3-14z"/><path d="m591 467 13 2-10 9 4 17-11-11-11 10 4-18-10-12 13 2 4-16zm0 1-4-15-3 14-12-2 9 11-3 15 9-9 9 10-3-15 9-7z"/><path fill="#006b3f" d="m409 533-12-2 9-8-3-16 10 10 10-9-4 16 10 11-12-1-4 14z"/><path d="m409 533-13-2 10-9-4-17 11 11 11-10-4 18 10 12-13-2-4 16zm0-1 4 15 3-14 12 2-9-11 3-15-9 9-9-10 3 15-9 7z"/><path fill="#006b3f" d="m594 550 9 11-12-2-3 15-4-16-14-1 11-9-4-17 10 12 10-8z"/><path d="m594 549 10 12-12-1-4 16-5-17-14-2 11-9-4-18 11 12 11-8zm-1 1 3-14-9 7-9-10 3 15-9 8 12 2 4 14 3-13 11 1z"/><path fill="#006b3f" d="m406 450-9-11 12 2 3-15 4 16 14 1-11 9 4 17-10-12-10 8z"/><path d="m406 451-10-12 12 1 4-16 5 17 14 2-11 9 4 18-11-12-11 8zm1-1-3 14 9-7 9 10-3-15 9-8-12-2-4-14-3 13-11-1z"/><path fill="#006b3f" d="m560 613 4 16-10-10-10 8 4-16-11-11 13 2 4-16 4 17 12 2z"/><path d="m561 614 3 17-10-12-10 9 3-16-11-13 14 2 4-17 4 19 13 2zm-1-1 8-8-10-1-4-16-4 14-12-2 10 11-3 14 9-7 9 10z"/><path fill="#006b3f" d="m440 387-4-16 10 10 10-8-4 16 11 11-13-2-4 16-4-17-12-2z"/><path d="m439 386-3-17 10 12 10-9-3 16 11 13-14-2-4 17-4-19-13-2zm1 1-8 8 10 1 4 16 4-14 12 2-10-11 3-14-9 7-9-10z"/><path fill="#006b3f" d="M524 547c2 28 0 49-5 50-4-1-8-22-9-50-2-28 0-49 4-50 4 1 9 22 10 50"/><path d="M524 547v35q-1 15-5 15-3 0-6-15a258 258 0 0 1-3-70q1-15 4-15 4 0 7 15zm0 0a258 258 0 0 0-7-46l-3-3-2 3-2 11a251 251 0 0 0 7 81l2 3 3-3 2-11z"/><path fill="#006b3f" d="M532 548c1 28-1 49-5 50-5-1-9-22-11-50-1-28 1-49 5-50 5 1 9 22 11 50"/><path d="M532 548v35q-2 15-5 15-4 0-7-15a244 244 0 0 1-4-70q3-15 5-15 4 0 7 15zm0 0a245 245 0 0 0-8-46l-2-3-3 3-2 11a238 238 0 0 0 7 81l3 3 2-3 2-11z"/><path fill="#006b3f" d="M527 550c1 31 0 55-4 55-3 0-7-24-9-55-1-31 0-54 4-55 3 1 7 25 9 55"/><path d="M527 550v39q0 16-4 17-2-1-5-17a372 372 0 0 1-4-78q1-16 4-16 2 0 5 16zm0 0-7-50-2-4-2 4-1 11a364 364 0 0 0 8 94q2 0 2-4l2-12z"/><path fill="#9c4a00" d="M464 565c6 0 4-4 6-7q7-2 10 4 0 5 2 6c2 0 48 5 50 8q3 5 1 9c-3 2-61-6-64-9z"/><path d="M464 564q4 0 4-3l2-3h6l4 4 1 4 1 2h4q45 6 47 8l1 5-1 5q-2 2-32-3l-32-6-4-7zm0 1 5 11 32 6q30 4 31 3l2-4-2-5q-1-2-46-7h-4l-2-3-1-4-3-4h-5l-2 3q-1 4-5 4"/><path fill="#fcd116" d="M497 576c1 6 7 6 7 11-1 6-11-1-12-12 1-10 12-14 12-8 0 5-6 3-7 9"/><path d="m497 576 4 6q3 3 3 5 1 2-2 2l-4-2q-6-4-6-12 0-7 6-10l4-1 3 3q0 3-4 4zm0 0q0-4 4-5 3-1 3-4l-2-2h-3q-6 3-6 10 0 8 5 12l4 2 2-2q0-2-3-5-4-3-4-6"/><path fill="#fcd116" d="M501 577c1 6 7 5 7 11 0 5-11-2-12-12 2-11 12-14 12-8 0 5-6 2-7 9"/><path d="m502 577 3 6 4 5q-1 2-3 2l-4-2q-6-4-6-12 1-7 6-11h5q2 0 2 3t-4 4-3 5m-1 0q0-4 4-6l3-3-1-2h-4q-6 3-6 10t6 12l3 1 2-1q0-2-3-5-4-3-4-6"/><path fill="#fcd116" d="M506 577c0 7 6 6 7 11-1 6-11-1-12-12 1-10 11-14 12-8-1 5-7 3-7 9"/><path d="M506 577q0 3 4 6 3 3 3 5 0 3-2 3l-4-2q-6-6-6-13t6-10l4-1 2 3q0 3-3 4-4 3-4 5m0 0q0-3 4-5 3-1 3-4l-2-2-4 1q-5 2-6 9 0 8 6 12l4 2 2-2-4-4q-3-4-3-7"/><path fill="#fcd116" d="M510 578c0 6 6 6 7 11-1 6-11-1-12-12 1-10 11-14 12-8 0 5-6 2-7 9"/><path d="M510 578q0 3 4 6 3 2 3 5t-2 2l-4-2q-6-4-6-12 0-7 6-10l4-1q2 1 2 3 0 3-3 4-4 2-4 5m0 0q0-4 4-6 3 0 3-3l-2-2h-4q-5 3-6 10 1 7 6 12l4 2 2-2q0-2-3-5-4-3-4-6"/><path fill="#9c4a00" d="M534 581q-1 5-4 5-4-1-4-7 0-5 4-4 4 0 4 6"/><path d="M534 581q0 6-4 5-3 0-3-2l-2-5q1-5 5-5 4 1 4 7m-1 0-1-4-2-2q-4 0-4 4 0 6 4 6 3 1 3-4"/><path fill="#006b3f" d="M509 558q1 9-3 11-3-2-4-11 0-10 3-11 4 0 4 11"/><path d="M509 558v8l-2 3q-2 0-3-3a29 29 0 0 1-2-16l3-4 3 4zm0 0-2-8q0-2-2-2t-2 3l-1 7 2 7 2 3 3-3z"/><path fill="#006b3f" d="M503 556q0 10-3 11-3 0-4-11 0-9 3-11 4 2 4 11"/><path d="M503 556v8l-3 4-2-4a29 29 0 0 1-2-16l3-3 3 3zm0 0-2-7-2-3q-2 0-2 3l-1 7 2 8 2 2 3-3z"/><path fill="#006b3f" d="M499 545q0 9-3 11-4-2-4-11-1-9 2-11 3 1 5 11"/><path d="M499 545v8l-3 3-3-3a29 29 0 0 1-1-16l2-3q2 0 3 3zm0 0-2-7-3-3-2 3v7l1 7 3 3q2 0 2-3z"/><path fill="#006b3f" d="M505 545q0 11-3 12-3 0-4-11 0-11 2-12 3 0 5 11"/><path d="M505 545v9l-3 4q-2 0-2-4a36 36 0 0 1-2-17l2-4 3 3zm0 0-2-8-2-3q-2 0-2 4a32 32 0 0 0 1 16l2 3q2 0 2-4z"/><path fill="#006b3f" d="M513 547q1 10-2 11-3 0-5-11 0-10 3-11 4 0 4 11"/><path d="M513 547v8l-2 4-3-4a32 32 0 0 1-1-16q0-4 2-4l3 3zm0 0-1-8-3-3-2 3a29 29 0 0 0 1 16q1 3 3 2l2-3z"/><path fill="#006b3f" d="M509 542q0 11-3 12-3-2-4-11-1-10 2-12 3 1 5 11"/><path d="m509 542-1 9q0 3-2 3l-3-3a32 32 0 0 1-1-17l2-3 3 3zm-1 0-1-7-3-3-2 3v8l2 7q0 3 2 3l2-3z"/><path fill="#006b3f" d="M503 536q0 10-3 11-3 0-4-11 0-10 2-11 3 0 5 11"/><path d="M503 536v8l-3 4-3-4a32 32 0 0 1-1-16l2-4 3 4zm0 0-2-8-2-3q-2 0-2 4l-1 7 2 8 2 3q2 0 2-4z"/><path fill="#006b3f" d="M497 532q1 9-2 11-3-1-4-11-1-11 2-11 4 0 4 11"/><path d="m498 532-1 8-2 4-3-4a32 32 0 0 1-1-16q0-4 2-4l3 3zm-1 0-1-8-3-3-2 3 1 15q2 4 3 3l2-3z"/><path fill="#9461c9" d="M488 439s-12 12-11 51c2 39 27 61 27 61s6-10 5-41c-1-46-13-68-13-68z"/><path d="m488 439 8 3 6 17q6 22 8 51 0 20-3 33l-3 9q-7-6-13-16-13-21-14-46 0-24 5-40zm0 0-6 11q-5 16-5 40a92 92 0 0 0 27 61l3-9q2-12 2-32a223 223 0 0 0-13-67z"/><path fill="#006b3f" d="M519 561q-1 9-5 10-3-2-3-11 1-9 5-10 3 2 3 11"/><path d="m519 561-2 8q-1 3-3 3l-2-4a29 29 0 0 1 1-16q1-3 3-3l2 4zm-1 0v-7l-2-4-3 3-1 7v7l2 4 3-3z"/><path fill="#006b3f" d="M513 558q-1 10-4 10-4-2-3-11t4-10q3 2 3 11"/><path d="m513 558-2 8-2 3-3-4a29 29 0 0 1 1-16l3-3 2 4zm0 0-1-7-2-4-3 3-1 7v7l3 4 2-3z"/><path fill="#006b3f" d="M510 546q-1 10-4 10-4-2-3-11 0-9 4-10 3 2 3 11"/><path d="m510 546-1 8-3 3-3-4a29 29 0 0 1 1-16l3-3 2 4zm0 0-1-7-2-3q-1-1-3 2l-1 7 1 7 2 4 2-3z"/><path fill="#006b3f" d="M516 548q-1 11-4 11-3-1-3-12 1-11 4-11 3 1 3 12"/><path d="m516 548-2 9q0 3-2 3l-3-4a35 35 0 0 1 1-18l3-3 2 4zm0 0-1-8-2-4-3 3-1 8 1 8 2 4 2-3z"/><path fill="#006b3f" d="M524 552q-1 9-4 10-3-1-3-12 1-9 4-10 3 2 3 12"/><path d="m524 552-1 8-3 3-2-4a31 31 0 0 1 0-17l3-3 3 4zm0 0-1-8q0-3-2-3l-2 2-2 7 1 8 2 3q2 0 3-2z"/><path fill="#006b3f" d="M520 546q0 10-4 10-3-1-3-11 1-10 4-10 3 1 3 11"/><path d="m520 546-1 8-3 3q-2 0-2-4a31 31 0 0 1 0-16l3-3 3 4zm0 0-1-7q0-4-2-4l-2 3-2 7 1 7q0 4 2 4t2-3z"/><path fill="#006b3f" d="M515 539q0 10-4 10-3-1-3-12 1-9 4-10 3 1 3 12"/><path d="m515 539-1 8q-2 3-3 2l-3-3a31 31 0 0 1 1-17l3-3 3 4zm0-1-1-7-2-4q-2 0-2 3l-2 7 1 8q0 3 2 3 2 1 2-2z"/><path fill="#006b3f" d="M510 533q0 10-4 11-3-2-3-12 1-10 4-10 3 1 3 11"/><path d="m510 533-1 8-3 3q-2 0-2-4a32 32 0 0 1 0-16l3-3 3 4zm0 0-1-7q0-4-2-4l-2 3-2 7 1 7 2 4 3-3z"/><path fill="#d41c30" d="M523 506c7 23 8 42 3 44-6 2-15-14-22-37s-8-42-3-45c6-1 15 15 22 38"/><path d="m523 506 6 30-1 10-2 4q-2 1-5-1l-6-8q-6-12-11-28t-6-30v-10l3-5q3-1 5 2l6 8q6 10 11 28m0 0q-5-17-12-28l-5-8-5-2q-2 1-2 5l-1 10a140 140 0 0 0 23 65q3 3 5 2l2-4 1-10z"/><path fill="#006b3f" d="M510 469q0 5-4 4-5 0-5-6 0-4 5-4 3 2 4 6"/><path d="m510 469-1 4-3 1-4-2-1-5 1-3q1-2 4-1l3 2zm0 0-1-4-3-2-3 1-2 3 2 4q1 2 3 2l2-1z"/><path fill="#006b3f" d="M513 462q0 5-4 4-4 0-4-6 1-4 4-4 4 1 4 6"/><path d="m513 462-1 4-3 1-3-2-1-5 1-3 3-2 3 3zm0 0-1-4-3-2-3 1-1 3 1 4 3 2 2-1z"/><path fill="#006b3f" d="M508 461q-1 5-4 4-4 0-4-6 0-4 4-4 3 2 4 6"/><path d="m508 461-1 4-3 1q-3 0-3-2l-2-5 2-3q1-2 3-1l3 2zm-1 0-1-4-2-2-3 1-1 4 1 3q1 2 3 2l2-1z"/><path fill="#006b3f" d="M509 456q-1 4-4 4-4-1-4-6 0-4 4-4 4 2 4 6"/><path d="m509 456-1 3-3 1q-3 0-3-2l-2-4 2-3q1-2 3-1 2 0 3 2zm0 0-1-4-3-2-3 1-1 3 1 4 3 2 2-1z"/><path fill="#006b3f" d="M508 449q0 5-4 4-3 0-4-5 0-5 4-5 4 1 4 6"/><path d="m509 449-2 4-3 1-3-2-1-4 1-4 3-1 4 2zm-1 0-1-3-3-2-2 1-2 3 2 3 2 2 3-1z"/><path fill="#006b3f" d="M502 456q0 5-4 4-3 0-3-6 0-4 4-4 3 1 3 6"/><path d="m503 456-2 4-3 1-3-2-1-5 2-3q0-2 3-2l3 3zm-1 0-1-4-2-2-3 1-1 3 1 4 2 2 3-1z"/><path fill="#006b3f" d="M504 449q-1 5-4 5-4-2-4-6 0-5 4-5 3 2 4 6"/><path d="m504 449-1 4-3 1q-3 0-3-2l-2-4 2-4 3-1 3 2zm-1 0-1-4-2-1q-1-1-3 1l-1 3 1 4 3 1q1 1 2-1z"/><path fill="#006b3f" d="M498 448q-1 5-5 5-3-2-4-6 0-5 4-5 4 2 5 6"/><path d="m498 448-2 4-3 1-3-2-2-4 2-4 3-1 4 2zm-1 0-1-3q-1-2-3-2-2-1-3 1l-1 3 1 4 3 2 3-1z"/><path fill="#006b3f" d="M505 441q0 4-4 4-4-1-4-6 1-4 4-4 4 2 4 6"/><path d="m506 441-2 3q-1 2-3 1l-3-2-1-4 1-3 3-1q3 0 3 2zm-1 0-1-4-3-2-2 1-2 3 2 4 2 2 3-1z"/><path fill="#006b3f" d="M500 441q-1 5-4 4-4 0-4-6 0-4 4-4 4 1 4 6"/><path d="m500 441-1 4-3 1-3-2-2-5 2-3q2-2 3-1l3 2zm-1 0-1-4-2-2-3 1-1 3 1 4 3 2 2-1z"/><path fill="#006b3f" d="M491 448q0 5-4 4-3-1-4-6 1-4 4-4 4 1 4 6"/><path d="m492 448-2 4-3 1-3-3-1-4 1-3 3-2q3 1 3 3zm-1 0-1-4-3-2-2 1-1 3 1 4 2 2 3-1z"/><path fill="#006b3f" d="M493 444q-1 5-4 4-4 0-4-5t4-5 4 6"/><path d="m493 444-1 4-3 1q-2 0-3-2l-2-4 2-4 3-1 3 2zm-1 0-1-4-2-2-3 1-1 4 1 3 3 2 2-1z"/><path fill="#006b3f" d="M494 440q0 5-4 4-3-1-4-6 1-4 4-4 4 1 4 6"/><path d="m495 440-2 4-3 1-3-3-1-4 1-3q1-2 3-1 3 0 3 2zm-1 0-1-4-3-2-2 1-1 3 1 4 2 2 3-1z"/><path fill="#006b3f" d="M528 499c9 27 10 50 3 53-7 2-18-18-27-45-8-27-9-50-2-53 7-1 18 18 26 45"/><path d="M529 499q6 20 7 36l-1 12q-1 4-4 5t-6-2l-7-9q-8-13-14-34-6-20-7-36l1-11q1-5 4-6l6 2 7 10q8 13 14 33m-1 0q-5-19-14-33-3-6-7-9-3-3-5-2-3 0-4 5v11q0 17 6 36 7 21 14 33l7 9 6 3q3-2 3-6l1-11q0-16-7-36"/><path fill="#006b3f" d="M529 512q3 9 1 11-2 0-5-9t-1-11q2 0 5 9"/><path d="m529 512 2 7-1 4q-1 1-3-2l-4-15 1-4 2 3zm0 0-3-7-2-2-1 3 5 15 2 2 1-4z"/><path fill="#006b3f" d="M526 513c10 19 9 30 8 39-3-11-5-18-16-38-10-19-5-30-4-36 1 5 1 16 12 35"/><path d="M526 513q7 12 8 23v17-1l-1-2a179 179 0 0 0-15-35q-6-11-6-21l2-17v-1 1l1 5q3 16 11 31m0 0q-9-15-12-31v-3l-1 2-1 13q1 10 6 20l16 36v1-15q-2-11-8-23"/><path fill="#006b3f" d="M527 527c10 19 9 30 8 39-3-11-5-18-16-37-10-20-5-31-4-37 1 6 1 16 12 35"/><path d="M527 527q7 12 8 23v17-1l-1-1a188 188 0 0 0-15-36q-6-11-6-20l1-17 1-1v1l1 4q2 16 11 31m0 0q-9-15-12-31v-3l-1 3-1 13q2 10 6 19l16 36v1-15q-2-10-8-23"/><path fill="#006b3f" d="M527 538c11 19 10 30 9 39-4-11-6-18-16-37-11-19-6-30-5-37 1 6 1 16 12 35"/><path d="M527 538q8 13 9 23v18l-1-1v-2a185 185 0 0 0-16-36q-6-10-6-20-1-5 1-13v-5l1 1 1 5q3 15 11 30m0 1q-9-15-12-31v-3l-1 2-1 13q1 10 7 20l15 36h1v-15q-2-10-9-22"/><path fill="#006b3f" d="M524 494q5 18 1 19-4-1-10-17-4-16-1-19 5 1 10 17"/><path d="m524 494 3 14q1 5-2 6l-5-5a66 66 0 0 1-8-26q0-6 2-6t5 5zm0 0-5-12-5-5-1 6 2 13 6 13 4 4q2 0 1-6z"/><path fill="#006b3f" d="M519 504q4 14 1 15-4-1-9-14-3-14 0-16 4 2 8 15"/><path d="m520 504 2 11q0 4-2 5l-5-5a54 54 0 0 1-6-21q0-5 2-5t4 4zm-1 0-4-10-4-4-1 4 2 11 4 10 4 4 1-4z"/><path fill="#006b3f" d="M514 510q4 14 1 15-5-1-9-15-3-13 0-15 5 1 8 15"/><path d="m515 510 1 11-1 5-5-5a54 54 0 0 1-6-21q0-6 2-5 3 0 5 4zm-1 0q-1-6-4-10l-4-5-1 5 2 10 4 11 3 4q3 0 2-4z"/><path fill="#006b3f" d="M518 487q3 10 0 11-3 0-7-11-3-10 0-11 3 0 7 11"/><path d="m518 487 2 8q0 3-2 3-2 1-3-3l-6-16 2-4 3 4zm0 0-4-8-3-3-1 3 2 8 3 8 3 3 1-3z"/><path fill="#006b3f" d="M514 491v11q-4-1-7-11t0-12q3 2 7 12"/><path d="m514 491 1 8-1 3-4-3-5-16 2-4 4 4zm-1 0-3-8-3-3-1 3 1 8 4 8 3 3 1-3z"/><path fill="#006b3f" d="M507 483q5 18 3 22-3-1-9-18z"/><path d="m507 483 3 15v7l-4-5-5-13h1l4 13q3 5 4 4v-6z"/><path fill="#006b3f" d="M513 478q3 10 0 12-3-1-6-11t0-12q3 1 6 11"/><path d="m513 478 2 9q0 3-2 3l-3-3-5-17q0-3 2-3l3 3zm0 0-3-8-3-3-1 4 1 8 3 7 3 4 1-4z"/><path fill="#006b3f" d="M508 481q3 11 0 12-4-1-7-12-2-11 1-11 2 1 6 11"/><path d="m508 481 1 8-1 4-4-4-4-16q0-4 2-4l3 4zm0 0-3-8-3-3-2 3 2 8 3 8 3 3 1-3z"/><path fill="#006b3f" d="M502 469q4 11 3 15-2 0-7-12z"/><path d="M502 468q6 15 3 16l-3-3-4-9 5 9 2 2v-4z"/><path fill="#006b3f" d="M504 464q5 13 3 15-2 1-7-12z"/><path d="M504 464q6 13 4 16l-4-3-4-9v-1l5 9 2 3v-5z"/><path fill="#006b3f" d="M513 467q6 17 5 20-3 1-10-16z"/><path d="m513 467 5 13v8l-4-4-6-13 6 12 4 4v-7z"/><path fill="#006b3f" d="m507 461 4 16q-3 1-8-13z"/><path d="M507 461q6 15 4 17l-4-4-4-10 5 10 2 3v-5z"/><path fill="#9461c9" d="M507 449q-2 5 1 11c3 3 14 21 22 8-6-2-18-23-23-19"/><path d="M506 449q2-2 5 1l8 8 10 10h1q-6 8-13 3l-9-10-1-1-2-5zm1 1-1 5 3 4v1l9 10q8 6 12-2l-10-9-8-8q-3-3-5-1"/><path fill="#9461c9" d="M505 441q-2 5 2 10c2 3 13 21 22 9-7-2-18-24-24-19"/><path d="M505 441q2-2 6 1l7 8q8 9 11 9v1q-4 8-13 2l-9-10v-1l-3-5zm0 0v5l2 5 1 1 9 10q7 4 12-2-4-1-11-10l-7-8q-4-3-6-1"/><path fill="#9461c9" d="M503 433q-1 5 2 10c3 3 13 21 22 8-7-1-18-23-24-18"/><path d="M503 432q2-2 6 1l8 8q7 10 10 10h1l-1 1q-4 8-12 2-5-3-9-10l-1-1-2-5zm1 1-1 5 2 5h1l9 10q7 6 12-1-3-1-11-10l-7-8q-4-3-5-1"/><path fill="#9461c9" d="M499 423q-1 6 2 10c3 3 13 21 22 9-7-2-18-24-24-19"/><path d="M499 423q2-3 6 1l8 8q7 9 10 9h1l-1 1q-4 8-12 2l-9-10-1-1-2-5zm1 0-1 5 2 5 1 1 9 10q7 5 12-2-3-1-11-10l-7-8q-4-3-5-1"/><path fill="#9461c9" d="M485 412q8-5 18 1c5 5 13 19 19 24q-6 0-10-4-6 6-13 6-12 0-16-10t2-17"/><path d="M485 412q3-3 8-3 6 0 10 4l8 10 11 13 1 1h-1l-10-3-6 4a24 24 0 0 1-17-1q-4-3-7-8l-1-9zm0 0q-3 2-3 8-1 4 1 9 1 4 6 7 4 3 10 2l7-1 6-4h1q3 3 8 3l-10-12-8-10q-4-4-10-4z"/><path fill="#d41c30" d="M497 423q0 2-3 2-3-1-4-4l4-2q3 1 3 4"/><path d="m498 423-1 2h-3l-3-1-1-3 1-2h3l3 1zm-1-1-1-2-2-1-2 1-1 1 1 2 2 1h2z"/><path fill="#fcd116" d="M488 430q0 4-4 6t-6-3q0-3 4-5 5-1 6 2"/><path d="m488 430-1 4-3 2h-4q-2-1-2-3l1-3 3-3h4zm-1 0-2-2h-3l-3 2-1 3 2 2h4l3-2zm8-8-1 1-2-2 2-1z"/><path fill="#fcd116" d="M486 424q0 4-3 6-4 1-6 10-5-19 3-19 5-2 6 3"/><path d="M486 424v4l-3 3q-5 2-6 9v1-1q-3-10-2-15 1-4 4-5h5zm0 0-2-3h-4q-4 1-5 5l2 12q2-6 5-8l3-2zm-3 1-1 1-1-1 1-1z"/></svg>