<svg xmlns="http://www.w3.org/2000/svg" viewBox="0 0 1000 1000"><path fill="#fff" d="M8 195c171-85 341-54 513-28 155 24 312 45 471-34v672c-171 85-341 54-513 28-155-24-312-45-471 34z"/><path fill="#002d62" d="M8 195c141-70 281-62 426-41v269c-140-20-281-31-426 41z"/><path fill="#ce1126" d="M8 598c141-70 281-61 426-41v269c-140-20-281-31-426 41z"/><path fill="#002d62" d="M566 577c140 20 281 31 426-41v269c-141 70-281 62-426 41z"/><path fill="#ce1126" d="M566 174c140 20 281 31 426-41v269c-141 70-281 61-426 41z"/><path fill="#fff" d="M473 462v44q0 5 2 9l6 5 11 2q6 1 7 4 2-3 9-2 5 2 9 1l5-2q2-4 2-10v-41l1-3 6-5-64-10z"/><path fill="#002d62" d="M493 485v-27l-26-4 6 8v19z"/><path fill="#ce1126" d="M504 486v-26l27 4-7 6v19zm-11 10-20-4v17q3 11 11 12l9 1z"/><path fill="#002d62" d="m504 497 21 3-1 17q-1 10-10 8l-10-1z"/><path d="m473 462-7-8 66 10-7 6v43q0 7-3 10l-5 3-8-1h-1l-1-1h-5l-2 2-1 1v-1l-1-1-6-3h-2l-8-2q-4-1-7-5l-2-9zm1 0v44l1 9 7 5 8 1 2 1 6 2 1 2 3-2h7l8 1 5-2q3-3 2-10v-42l1-2 6-5-64-10z"/><path fill="#eac102" d="M498 465v3h-3v2l3 1v10l2 1v-11l3 1v-3h-3v-3z"/><path d="M498 465h2v3l3 1v3l-3-1v11l-2-1v-10l-3-1v-2h3zm0 0v3h-3v2l3 1v10l2 1v-11h3v-2h-3v-3z"/><path fill="#fff" d="M481 466v5l-2-2v34q2 9 8 11 8 0 8-8v-18l-2-2v-2z"/><path fill="#002d62" d="M481 467v5l-2-3v20l9 10v-23z"/><path fill="#ce1126" d="m490 480 3 4v1l-3-3zm5 8v13q-2 2-3 0v-17z"/><path fill="#002d62" d="M495 507c-3 2-4-2-4-2q4 0 4-2z"/><path fill="#ce1126" d="m479 494 9 9c1 8 5 7 7 6q-2 5-8 5-6-2-8-10z"/><path d="m493 485-12-14v-5l12 18zm0 0v-1l-12-17v4zm-14-16 16 19 1 18-3 6q-2 3-6 2-3 0-5-4-3-3-3-7zm0 0v34l3 7 5 4 6-2 2-6v-18z"/><path fill="#eac102" d="M485 464v-3l-3-3 1 4q2 0 2 2"/><path d="m485 464-2-2-1-5 3 4zm0 0v-3l-3-3 1 4zm-3-6 3 6z"/><path fill="#eac102" d="m498 487-12-24z"/><path d="m498 487-12-24zm0 0-13-24z"/><path fill="#eac102" d="M484 463h1-2"/><path d="M484 463v-1l1 1zq0 1 0 0m0 0h1-2"/><path fill="#eac102" d="M480 464v-3l-4-3 2 5z"/><path d="m480 464-2-1-2-5 4 3zm0 0v-3l-4-3 2 5zm-4-6 4 6z"/><path fill="#eac102" d="m495 486-15-22 1-1z"/><path d="m495 486-15-22 1-1zm0 0-15-23-1 1z"/><path fill="#eac102" d="M479 464v-1h1z"/><path d="M479 464v-1h1zm0 0v-1h-1z"/><path fill="#eac102" d="m479 469-1-3-3-3 2 4z"/><path d="m479 469-2-2-2-4 4 3h-1zm0-1-1-2-3-3 2 4zm-4-5 4 6z"/><path fill="#eac102" d="m495 489-17-21h1l17 21z"/><path d="m495 489-17-21h1l17 21zm0 0h1l-17-21h-1z"/><path fill="#fff" d="M517 472v5l2-2v34q-1 9-8 8-8-2-8-10v-18l2-1v-2z"/><path fill="#002d62" d="M517 472v5l2-2v20l-9 7v-19h1v-3z"/><path fill="#ce1126" d="m508 483-3 3v1l3-2zm-5 7v12l4 2v-17z"/><path fill="#002d62" d="M503 508c3 3 4 0 4 0l-4-4z"/><path fill="#ce1126" d="m519 500-8 7c-2 8-6 5-8 3q2 6 8 8 7 0 8-8z"/><path d="m505 487 12-11v-4l-12 14zm0 0v-1l12-13v3zm14-12-16 14v18q0 4 2 7l6 4 6-2 2-7zm0 1v33q0 4-3 7-2 2-5 1l-6-3-2-7v-17z"/><path fill="#eac102" d="M513 468v-2l3-3-1 4z"/><path d="m513 468 2-1 1-4-3 3zm0 0v-2l3-3-1 4zm3-5-3 5z"/><path fill="#eac102" d="m500 487 1 1 13-20-1-1z"/><path d="m500 487 1 1 13-20-1-1zm0 0 13-20v1zm14-19-1-1zm0 0v-1z"/><path fill="#eac102" d="m518 470 1-2 3-3-1 4z"/><path d="m518 470 3-1 1-4-4 2 1 1zm0 0 1-2 3-3-1 4zm4-5-4 5z"/><path fill="#eac102" d="m503 487 15-18-1-1z"/><path d="m503 487 15-18-1-1zm0 0 15-18 1 1z"/><path fill="#eac102" d="M519 470h-1z"/><path d="M519 470h-1zm0 0-1-1h1z"/><path fill="#eac102" d="m519 475 1-3 3-2-1 4z"/><path d="m519 475 3-1 2-4-4 2zm0-1 1-2 3-2-1 4zm4-4-4 5z"/><path fill="#eac102" d="m503 490 17-15-1-1z"/><path d="m503 490 17-15-1-1-17 15zm0 0 17-15 1 1z"/><path fill="#eac102" d="M520 475v-1l-1-1z"/><path d="M520 475v-2h-1zm0 0-1-1h1v2"/><path fill="#ce1126" d="m497 502-1 10-2-1 1-10z"/><path d="m497 502-1 11-2-2 1-6v-4zm-1 0v4l-1 6 2 1z"/><path fill="#002d62" d="m496 501-1 3 2 2 1-6z"/><path d="m495 501 2-1v6h-1l-2-2zm1 0-1 3 2 1v-5z"/><path fill="#002d62" d="M496 515h5q3 0 2-3l-1-14-5 3z"/><path d="M496 515v-14l6-3 2 16q-1 3-3 1zm0 0h5q2 1 2-1v-2l-1-14-5 3z"/><path fill="#002d62" d="M496 515q1 4 2 3 3-1 2-3z"/><path d="M496 515h4v1l-2 2-1-1q-2 0-1-2m0 0 1 2h1q1 1 2-1v-1z"/><path fill="#ce1126" d="m498 500-1 9q2 3 3 2h1v-3q5-1 4-2l-2-8z"/><path d="m498 500 5-2q0-1 0 0v1l2 7v1l-4 1 1 3h-3q-2 0-2-2zm0 0v9l1 2h2v-3l3-1v-1l-1-7v-1zm3 8-3 1h-1l1-1z"/><path fill="#fff" d="m501 515-1-16 2-1 2 15q-2 3-3 2"/><path d="m501 515-1-16 2-1 2 15q0 3-2 2zm0 0h1l1-2-1-15-2 1zm-13-28 7 15 15-9-8-13zm0 0 14-7 8 13-15 9zm0 0 7 14 15-8-8-13z"/><path fill="#fff" d="m488 487 14-6 8 12-15 8z"/><path d="m488 487 14-7 8 14-15 7zm0 0 7 14 15-8-8-12zm7 13 15-7-2-2-7-11-5 3-7 3-1-1v2zm0 0-7-13v-2l1 1 7-3 5-3 7 11 2 2zm0 0 15-7-2-2-7-11-5 4-7 2-1-1 1 2z"/><path fill="#fff" d="M496 484q-3 0-5 2h-2l6 12 4-1 4-1z"/><path d="m496 483 7 13-4 1h-1q-2 3-3 2v-1l-7-13h1l2 1v-1q3-3 5-2m0 1q-2-2-5 1v1h-2l6 12q2 2 3-1l1-1h3z"/><path fill="#fff" d="M496 484q2-4 4-4l1-1 7 12-3 3-2 2z"/><path d="M496 484q0-3 4-3v-1l1-1v-1l8 13q-1 2-3 2l-1 1-2 2zm0 0 7 12q0-2 2-3h1l2-2-7-12-1 2q-4 0-4 3"/><path fill="#fff" d="m495 498-7-12v1l7 13z"/><path d="M495 498v1l-7-13v-2 1zm0 0-7-12v1l7 13zm-5-11q0-1 0 0m3 0q0-1 0 0m-1 2q-1 0 0 0m0-1q0 2 0 0m1-1q2 0 0 0m0 2q-1 0 0 0m1-1q0 1 0 0m0 4q0 2 0 0m3-1q2 0 0 0m1-1q0 1 0 0m-4 4q-1 0 0 0m1-1q0-1 0 0m1 0q1 0 0 0m0 3q0-1 0 0m2-12q0 1 0 0m2 1q0-1 0 0m-1 1q1 0 0 0m1 0q-1 0 0 0m-1 1q1 0 0 0m2-1q0 1 0 0m1 0q-1 0 0 0m0 4q0 1 0 0m1 0q1 0 0 0m1 0q1 0 0 0m0 1"/><path fill="#201b18" d="M484 436q-13-3-24 2-4 2-2 6h-4l-7 3q-2 0-3 2h6l-1 2-2 4 5-3q9-1 17-4 1-1-1-4l7-1 16 2q2 0 2-2v-4l12 2c0 3-2 5 2 7q6 0 16 3l7 3-1 1v2l3 3 7 3c6 3 7 3 12 8l-3-7 6 2-6-6-8-4v-3c-1-2-7-7-9-7l-9-4-8-2-1-4-4-2-20-3-4 1q-2 1-1 4"/><path fill="#002d62" d="m485 440 3-1 11 1 8 1 6 3 1-5q0-3-3-4l-12-2-12-2q-3 1-3 4zm-23 7 2-2 12-2 9 1 5 1 2-1 1-1h-7l-1-3-1-4q-10-2-19 1l-7 3q-1 2 1 4zm43-3q0 3 3 3l14 3 13 7 1 2 3-3q2-1 1-4l-7-5-10-4-9-2-2 6zm25 11q-2 1 1 3 7 5 14 7l5 4-3-6 6 2-1-1c-2-2-9-6-13-7l-3 3h-1l-3-2zm-25-11 4 2h2l1-1q1-2-2-2l-4-2zm-12-2-1-3c-1 0-6 0-6 2l1 2zm-31 6q2 1 5-2l1-1-3 1zm68 7q3 4 5 4l-2-3zm-62-9q2 1-1 2-7 3-14 3l-5 2 3-4-6-1h1c2-2 9-3 13-4l1 2 2 2 1 1 3-2z"/><path fill="#eac102" d="m469 437-1 1q-1 0 0 0v2l1 2h1l1-1v-3zm0 1v1l1 2h-1q0 1 0 0l-1-1zm2-1v4h2-1v-3zm4-1-1 1v3l1 1h1l1-1v-2h-1zm0 1 1 2v2h-1v-2l-1-1zm3-1-1 1v1l1 1h1l1 1-1 1-1-1q0-1 0 0v1h2v-1l-1-2-1-1zq0 1 0 0 1 0 0 0m13-3v5h1v-2h1l1-1-1-1zm0 0 1 1v1h-1zm4 0v2l-1 1v1h1v-1h1v1h1v-1l-1-2zm-1 1 1 2h-1zm4 0h-2v1l1-1zv3h1q1 0 0 0v-4zv1q1 0 0 0zm3 0v3h1v1-2h1v1l1 1v-1l-1-1h1v-2l-1-1zm1 1v1h-1zm2 0v3h1v-4zm3 1v1l-1 2h1v-1h1v1h1v-1l-1-1v-2zm0 1v1l-1 1v-2m9 5v1l-1 3h3v-1l-1 1-1-1v-4zm3 5h1v-4h-1zm2-4v4l1 1h1l1-2h-1v-1h1l-1-1v-1zm1 0v1h-1zm0 2v1h-1zm2 3 1 1h2l-1-1h-1v-2l1 1v-1h-1v-1h1l1 1v-1h-1l-1-1q-1 0 0 0l-1 2zm4-3v1l-1 2v2h1v-2 1l1 1v1-2l1-1v-1l-1-1zm1 1v1h-1zm1 2h1l-1 1v3h1v-4l1 1v-1h-1v-1h-1zm5 1-1 2h-1l1 1v-1h1v2h1v-5m-1 1v2l-1-1zm2 2h-1v1l-1 1 1 1v1h2l1-1v-1l-1-2zm1 1v1l-1 2v1l-1-1v-1z"/><path fill="#006300" d="m485 540 3 1 2 5 2 1-6 1v3l3-1 10-4 9 7q2 2 3 1l1-1-1-1-5-3h1v-1l2-3 3-1c-1-3-21-8-27-4"/><path fill="#ff0" d="M486 549q-2 1 1 1zm23 4h1v-1h-2"/><path fill="#006300" d="m532 467 3 7-1-1-3-5v3l5 9-1-1-2-3-2-4-1-3v2l1 4-3-2h-1l2 3 2 2 3 5 1 2-2-3-4-4 1 1 3 4 2 4 2 3-1-1-3-4-6-6 1 1 4 4 2 4 3 4 1 2-6-7-2-2 3 5 1 1 1 1 3 5 1 1-7-8-2-2v1l2 1 5 8-1-1-1-1-2-2-4-3 2 2 3 3 1 1 2 2 1 3 1 2 2 6-2-6q-1-4-4-5l-1 2q-1-1-2 2l-2 5v1l1-2 2-4-1 6 1-1 1-4c2 2 3 9 3 12l-1-4-2-4-2 3-1-2-1 2v5l1-5 2 5-4 10-3 3v1l3-6 1-6v-1 1l-7 13 1-4-1 1-2 4 1-1 1-4v-1l-1 1-2 4v-4 2l-4 6h1-1 1l6 3 10 1 2 1-3-2-3-1 9 1v-1l-8-2 9 1h2l-6-2 6 1c1 0 6 2 4 0l-6-3 2-1 7-1q4-1 1-1h-6l2-1 4-1h1-1l4-1h5v-1h-10l6-1 2-1h-1l-6 1h-2l10-1 2-1-4-1h-3l2-2h4l-2-1 1-1 1-2-3 2h-1l-4 1 4-3h2l2-1h-4l-4 2 7-6 1-1-5 2-5 3 3-3h1l1-1 3-2 2-1 1-2-6 3-2 2-3 1 9-9 2-1-2 1-6 4-1 1-2 2-3 4q0-3 4-5l3-4q4-4 4-7l-2 2v1l-7 7 2-4 7-9 1-1 2-1q-2-1-4 1-4 2-7 6l3-7 2-2 2-3-1 1h-1l-6 9 3-6 3-5-3 2-5 10 3-9 2-2v-1l2-2 1-1-4 3-3 3 6-9v-1l-6 6-2 2v1l2-6 2-6-2 2-2 3 3-8-1 2-2 4 1-4-4 6v2h-1l2-10h-1v1l-1 2-1 4-5-11zm1 43 3 9-1 2-1-4v-4 2l-1-1z"/><path fill="olive" d="m532 467 2 3 4 7 1 4 1-4v-1l1-1v-1h1l-1 2v8-2l4-7h1l-1 1-1 3 2-3v-1l1-1h1l-1 1v1l-2 5 1-2 2-2-2 6-2 6v-1l2-2 1-1 5-5h1v1l-1 1-3 3-2 4 1-2q4-5 5-3l-1 1-1 1v1h-1v1l-5 10 3-6 2-3 3-2-3 5-3 5 6-8h1v-1h1l-2 3-1 1-1 2-3 6 7-6q3-3 4-1l-1 1h-1v1h-1l-4 5-5 7 7-6v-1l1-1 1-1q0 4-3 7h-1l-3 4-4 5 6-7q2-3 6-4l2-1-1 1-6 5-3 4v-1h2l1-1 7-4-1 2-2 1-4 3-1 1-1 1 3-2 5-2-1 1-6 5 3-1h4-1l-1 1h-1l-1 1-3 1h4l3-2v2l-1 1 2 1h-5l-2 2h3l4 1-1 1h-7 5l-2 1-5 1h9v1h-5v1h-3v1h-2l-3 1h-1 7v1h-3l-9 2 6 3 1 1h-1l-2-1h-4l2 1v1l-1-1h-1l-7-1 6 2 1 1-9-1 2 1h1l3 2-3-1h-1l-6-1h-3l-7-3 1-1 3-6v-1l1 1-1 2 2-3 1-1v1l-1 4 1-3v-1h1v3-1l5-11 1-1v1l-4 11 1-1 2-2 3-10v-3l-1-2-1 5-1-2v-3l1-2v-1l2-5 1-2h1l1-2 2 1-1-1-2-3-3-3-2-2 5 3 1 2h1v1l-1-2-4-5-1-1v-1l3 2 3 4 1 1 1 1-3-3v-1l-1-1-1-1-3-5 2 2 1 1 5 6-1-2-3-4-1-2-2-2-1-1-2-3h-1v-1l3 2v1l3 3 3 3-1-1-3-4-2-4h-1l-1-1h1l3 4h1l1 1-3-5-2-2-2-3h1l1 1 2 1-1-4v-2l1 3 2 4v1l2 2-4-8v-3 1l3 4v1-1l-1-4zm0 0 1 2 1 5 1 1-1-1-3-4v-1l1 3 3 8 1 1h-1v-1h-1l-1-2v-1l-2-4-1-2v1l1 4v1-1l-2-1-1-1h-1l2 3 3 2 2 5 1 2-2-3h-1l-2-3 3 4 1 2 1 2 2 3-1-1-3-4-3-3v-1l-3-2 1 1 2 3 2 1 1 2 2 2 2 4 1 2-5-5-1-2-2-2 3 5h1v1l1 1 1 1 2 3 1 2h-1l-1-2-1-2-4-4-2-2v1h1l1 1 4 5 1 3-1-1v-1h-1l-2-2-3-2 1 1 6 6v1l2 4 2 6-2-4v-2h-1l-3-5-1 2-2 2-2 5v1l1-1v-1l2-3v-1l-1 6v-1l2-3v-1l3 11v1l-1-4-2-4-2 2v1-1l-1-1-1 2v4-5l1 1 1 2 1 3-6 12v1l-1 1v-1l2-5 2-7v1l-6 12-1 1 1-4-1 1-2 4 1-1v-4l1-1-1 1-1 4h-1v-3l1-1-1 1v-1 1l-3 6v1l6 3h3l7 1 2 1-2-2h-1l-3-1 9 1-1-1-7-2h1l10 1-6-2h6l2 1 2 1v-1l-7-3h1l2-1 7-1 3-1h-8l1-1h4l2-1h-1l4-1h5l-8-1h-2 1l5-1 2-1h-1l-6 1h-2l2-1h6l2-1h1-3l-3-1h-1l3-2h4l-1-1h-1l1-2 1-1-3 2h-1l-4 1v-1l4-2h1l1-1h1-3l-4 2v-1l7-5 1-1-5 2-5 3 3-2v-1h1l1-1 3-2 1-1 1-1-6 3-1 1-1 1h-2v1-1l4-4 7-6-2 1-6 4-1 1-2 3-3 4-1-1 4-6 4-3 4-7-1 2h-1v1l-7 7 2-5 7-8 1-1 1-1-3 1-7 6 3-7 1-1 1-1 2-3-1 1h-1l-5 8-1 1 3-6 1-3 2-2-3 3-5 9h-1l6-11v-1l1-1 1-1 1-1-4 3-2 3h-1l3-6 2-2 1-1-5 4-1 1v1l-1 1-1 1v1-1l2-6 1-4 1-1-2 1-2 3 3-6v-1l-1 1-2 4h-1l2-4-3 6-1 2h-1l1-8v-2 2l-1 1-1 5v-1l-2-4-3-7zm-2 43 1 1 2-2 2 4 1 2-3-10v1l-1 3-1 1 1-5-2 4zm3 0 1 1 2 8-1 2-1-4v-3 1l-1-1zm0 0v4l1 1v-2 4l1 3v-1h1l-2-8zm7-3-1-2-1-2v-1l1 3z"/><path fill="#008f4c" d="M542 505c1-5 6-14 8-15l-3 6-5 12zm13-1-2 2q-8 6-12 16-3 7-1 1 4-10 12-17zm-15-13 3-10 3-4-1 1-4 16zm-6 24-2 11-5 7v-1q6-6 6-16 0-5 1-1m10-3v7a11 11 0 0 1-10 9l1-1q9-4 9-13zm-11-42 4 8v3-1l-5-11zm-2 3 5 7 2 3-1-1-6-11zm17 11c-3 3-7 10-7 12l3-4 6-9zm1 2c-3 3-8 12-7 14l3-5 6-10zm-18-11q0 3 3 7l2 3-1-1-5-11zm-3 1 7 5 3 1h-1l-10-7zm27 19c-5 2-12 12-12 14l5-5 9-11zm-1 6c-2 4-9 10-11 10l4-4 8-8zm-26 24c-1 4-5 11-7 11l2-4 5-9zm12-22-6-9-1-1 8 12zm3 33c-4-2-12-3-13-2l4 1 10 1zm-4 1c-4-2-12-3-13-2l4 1 10 1zm-4 1c-4-1-12-2-13-1h5l10 2zm-2 2c-4-2-11-3-12-2l4 1 9 2zm13-9-16 2h6l13-2zm6-15c-6 2-15 9-15 11l5-4 12-7zm3 3c-5 0-15 3-16 5l6-1 13-3zm0 1q-18 14-22 12l9-5 15-10zm-13 1q1-5 9-8l5-1h-1l-15 12zm1-12c1-5 8-19 10-20l-3 6-4 9-3 8zm-3-19q-3-4-1-9l1-4v1l1 14zm2 18-5-8q-5-5-2-1l7 11zm-12 2c3-9 4-7 4-7 6 6 3 23 3 24 0-38-7-17-7-17m2-1 3-8c4 2 4 21 4 22-2-35-7-14-7-14m-3 7c0-6 2-5 2-5 3 4 5 17 5 17-6-27-7-12-7-12m12-18-9-13q-6-6-2-1l11 17zm-1-3-6-10q-6-5-2-1l9 14zm-18 34-3 6 1-2zm-2 1-3 6 1-2zm3 1-3 6 1-2 2-5z"/><path fill="#00873f" d="M456 469v2z"/><path fill="#006300" d="m453 484-1-1v-1zm1-6-1-1zm-3 13-1-3zm10 31q-5-7-7-19 2-5 4-6l1 1q-2 0-5 5 2 12 8 19zm-7-19a57 57 0 0 1 2-34l1 1-4 17zm-2-13q1-4 5-6h3v1h-3q-3 1-4 5zm0 1q4-1 5-6l1-2 2-3h1l-3 3v2q-2 6-5 6zm5 24q-2-5 1-6v6zm0-2q-2-3-5-3 3 0 5 3m-1-14v-5zm0 13-4-6h1zm-1-39-1-2v-1q2 1 1 4z"/><path fill="red" d="m454 470-1-1 1-1z"/><path fill="#006300" d="m454 470-1-1v-1h2zm0 0h-1l-1 1h1z"/><path fill="red" d="m457 493-1 1-1-1 1-1z"/><path fill="#006300" d="M457 493v1l-1 1-1-1v-2h2zm0 0v-1l-1 1v1h1z"/><path fill="red" d="m456 496-1 1-1-1 1-1z"/><path fill="#006300" d="M456 496h-2v-2h2zm0 0h-2v1l1 1z"/><path fill="red" d="m453 505-1 1-1-1 1-1z"/><path fill="#006300" d="M453 505v1h-2v-2h2zm0 0-1 1z"/><path fill="red" d="M452 510h-1l-1-1 1-1z"/><path fill="#006300" d="m452 510-1 1-1-1v-2h1l1 1zm0 0-1-1v-1l-1 1v1z"/><path fill="red" d="M454 512h-2l-1-1 1-1z"/><path fill="#006300" d="m454 512-1 1v-1l-1-1 1-1 1 1zm-1 0a1 1 0 0 0-1-2v2z"/><path fill="red" d="M473 524v-1z"/><path fill="#006300" d="M473 524a1 1 0 0 1 0-2zm0 0h-1v1z"/><path fill="red" d="m474 525-1-1z"/><path fill="#006300" d="M474 525h-1v-2zm-18-27-1-1 1-1 1 2zm15 26 2 1v1zm2 5-1-5zm-9-9 1-2q2 2 4-4h-2l-1-3 1-2q1-2-5 3l-2-3-1 6 2 4 2 2h1zm-2 4-2 1c-4-1-6-6-6-6h4l3 2zq0 1 0 0m-5-10q-7-3-7-1l3 2q5 4 6 3l1 2q-1-5-3-6m-8-19q0-1 0 0-4-4-7-4v-1 2q2 6 3 5-4-2-4 0l4 3 5 1 1 2 4 3-2-7zm23 35-2 1-7-1-1-1 2-1q-4-6-3-7l6 1-2-2v-1l6 4q2 4 1 5zm-18-22h-4l-3-2q-4-3-3-4h2l4 1 2 3zm4 2h3q5-1 4-3l2-2h-2l-2 1v-5h-1l-4 3-2-3q0-1 0 0l-1 4 1 3zm23 14-3 2-4-5v6l-3-2 2 7 5-1h2q2-6 1-7m-25-25 2 3q3 3 5 3 5 0 3-1l-2-3-4-2zm-5-7 2-7 2 6-2 5zm-1 1-7-4h6l5 4zm-3-5-4-2q-3-5-1-5l2 1c-4-4-1-8-1-9l1 1 2 3 1 2q0-2 1-1l2 4 1 4-1 3zm10 9v-4c0-3 4-5 4-5l1 4 4-1-1 5h3q-4 6-7 3zm-8-19 1-3 1 2 2 4q0 3-1 2-4-3-3-5m10 3v-5l-2 2q-4 1-3 2l-1 3q5 1 6-2m-10-9 1-5 1 3 3 4q0 5-1 3-4-2-4-5m11 2 1-4-2 1-4 2-1 3q6 2 6-2m5 12 3-2-3-1q-4-2-4 0l-2 1q4 5 6 2m0 3 3-2-2-1-4-1-2 1q3 4 5 3m-11-21q0-8 3-9l1 4 6-2-1 2h3l-4 5-3 1q-4 1-3 2zm6 13 4-1 4-1 2-2v-1h-2l1-4h-1q-2 3-3 2l-1-3-1 1-3 3z"/><path fill="#00863d" d="m459 496 2-1 1-1v-1 2l1-1-1 1h-1zh3q3-1 4-5l-5 1zm-6 8v-2l-2-3-1-1 1 1v-1l1 1v2l2 3zq0-3-4-7l-1-1q-1 5 2 7l1 1zm-1-28v-1l-1-1v-1 1-2l-1-1 2 3 1 4zv-4l-3-3v-1l-1 2 2 5zm6-10 1-1v-1 1l1-2v1l-2 1-2 3 2-1 2-1 2-5-5 3zm-12 17-2-4v-2 1l1 2v-1 2zv-4l-2-2-1-2q-2 3 1 7zm8-6 3-2 1-1 1-1-1 1v1h-1zh1q1 1 3-1l2-4-4 2q-2 1-2 3m-5 10-1-1-2-1-2-1h1l1 1v-1 1zv-1h-1l-1-1-2-2-2-1 2 5 2 1zm-1 10-2-2h-1 1l-1-1-1-1h1zl-2-4-5-2 2 4q1 3 2 1zm2-10-2-6v1l1 1v-1 2zv-5l-2-4-1 2 1 5zm3 8v-6 2l1-1v1l-1 1zl1-1 1-4-2-4-1 2v2q-1 2 1 3zm2-26 1-3-1-1v-1l1 1v-1zv-1l1-4-1-5-1 2-1 5zm-13 28 1 1 4 2h2v-1h-4l-1-1 2 1v-1l1 1h2v-1l-4-1zm3 6 2 3 5 1-2-1h-2l1-1-2-1 5 3-1-2zm16-25v-2 1l1-2zv1l3-2v-5l-3 2zm-2 31q2 1 2-1v1l2-1-1 1zh3q2 1 3-3h1l-4 1h-2zm0-13 1-4 1-1-1 1v1l2-1-1-3-1 1-2 1zm-1 12 2-3v-1 1l1-2v2zl1-1h1l1-1v-4l-3 2zm4-11 3 1h-1l-5-1 1 1 1 1h3l3-2-3-1zm-17-8 4 3h2v-1h-4 1l-1-1zq0-1 0 0l5 1-3-2zm12 19-1-5 1 1zl1-4-2-3v4zm5-42h1zl-3 1q5 0 6-4l-2 1zm1 13 1-1 2-1h-1l1-2zl2-4 4-2-1 4zm-11 4-1-2-1-3 1 1v1-1 2zv-3l-2-3v4zm2 0 2-1 2-3-1 1-1 1v-1l-1 2zl2-3 3-1-2 4zm5 1h5l1 1h-3zq2 3 5 2 2 0 3-2l-6-1zm4 3h2zl-2-1 4 2 3-1-2-1zm0 14-1-1h-4l-1-1 3 2zm0 2v1h3l-3-3zm-4 0 2-1-2-1-2-1 1 1zm8-25-2 1-3 1q3 1 5-1l2-2h-2zm-6 43 2 3 1 3 2-1h1l-1-1h-2 2l-2-2 2 1v-1 2l1 1 2 1h2l-2-2-2-2zm2-2 1-4-1-2h1v1l1-2-1 3v3-1h1l1-5v-3l-2 2-2 5 1 1zm0 9 2 2h5l1-2-3 1-1 1 1-1-3-1h7q-3-3-8-1zm13 1v-2l-1-2 1 2v-3 1zl1 1v-5l-4-4 1 3-1 2 1 1zm-14-6q-1 1-3-1l-1-1 2 2-1-2 1 1 1 1zl-1-1v-1l-2-1h-4l1 2 5 3zm-11-10 2 1 1 2 5 2-1-2-2-1h-2 2l-1-1h-1q2-1 3 1l2 3-1-3a7 7 0 0 0-7-2m12 6-2-5v-2q-1 1 1 4v-4l-2-2v5zm10 12h2l-1-2v-1 1l1 2v-2l1 2h1l-5-4 1 2zm-2-4-1-2-1-3h-1v-1l1 1zl-1-1q1-3-1-4l-4-3 1 2 2 2zm8 1-1 2h2v-6l-1 1zm-13-12 1-1zl-1 1q3 1 3-3l-1 1h-1z"/><path fill="#ce1126" d="m483 543 3 1-2 3 6-1v-2l-1-2h-3z"/><path d="m483 543 3-1h3l1 2v2h-1l-5 1 1-3zm1 0 2 1-2 3 5-1h1l-1-2v-2l-3 1z"/><path fill="#ce1126" d="m514 547-3 1 2 3-6-3v-2l1-2 3 2z"/><path d="m514 547-2 1 1 3-5-2-1-1v-2l1-2 3 2zm-1 0-2-1-3-1v1l-1 2 1 1 5 2-2-3z"/><path fill="#ce1126" d="m492 548 5-1h3l5 3 2-2v-5h-7l-4-1-3-1-3-1-1 2 1 2q0 4 2 4"/><path d="m492 548-2-1-1-3v-2l1-2 3 1 3 1h2l3 1h6v4l1 1q-1 3-3 2l-5-3h-3zm0 0 5-1h4l4 3q3 0 2-2v-5h-7l-2-1h-2l-3-1-3-1-1 2 1 2v3z"/><path fill="#ce1126" d="m500 546 6 3h-2z"/><path d="m501 546 4 2 1 1h-2zm-1 0 3 2h2-1z"/><path fill="#ce1126" d="M497 546c-6 0-5 1-5 1h2z"/><path d="m497 546-3 1h-3l1-1zm0 0-5 1h2z"/><path fill="#aa241e" d="M497 542q-2 1 0 3v2h4l-1-3v-2z"/><path d="M497 542h3l1 2v4h-2l-2-1-1-1 1-1-1-1v-2zm0 0h-1v2l1 1v2h4v-1l-1-2v-2zm4 2h6v-1 1zm0 2 5 2v1-1zm-4-1-5 1h-1zm-1-2-5-1-1-1 1 1zm-23-11-9 2-4-7q-1-2-3-2-2-2-3-1l-1-1-5-8-2-2 1 7-2-2-4-1 1 1 4 8 5 8 3 3h3l5 8 9 3 4-1q4-2 1-6l9-1 28 4 9 4v4l2 3 3 2 5 1 6-3 4-5h1l2 1 2-2q4-3 5-7l6-8q-5 0-7 2l1-4 1-3-5 4-2 3-1 2c-5-3-7 3-11 7q-8-6-18-9l-4-1q-14-4-28-4z"/><path fill="#ce1126" d="M466 545q1-3 3-2l20-3h5a85 85 0 0 1 35 12l3 3 3-4 1-2q1-1-1-3l-10-6c-15-7-36-10-52-8l-10 3-1 1 1 4 2 3zm-15-16 4 2q1 5 7 12l3 3a10 10 0 0 0 11 0l1-2-5 2q-4 3-6-1l-4-6v-3l2-2-3-4-3-4-3-2-3 3zm-3-8-2-2-3-1 1 2 4 8 5 8h3l-2-2-3-2q-1-4 1-6l1-1-2-5-4-5 1 3zm28 22v-2l-8 3-1 1c3 3 5 0 7-1zm-19-7-2-2-3-3-1-1 1-1c2 1 4 6 5 7m90 7-3 2-7 10-3 2h-5l-5-2-2-2v-2l5 4q4 3 6 0l3-4 1-3-2-3 2-3 3-3q2-2 4-1zm3-6 3-1 3-1-2 2-3 7-6 6h-2l2-2 2-1q3-3-1-7l-1-1 2-4 4-4v3zm-28 14 1-2 7 4 1 2q-3 2-6-3zm20-2 1-1 4-2 1-1-1-1c-3 0-5 5-5 5"/><path fill="#eac102" d="M472 535h-1v2l1 1v2l1-1v-1h-1 1v1h2l-1-1-1-1 1-1zm-1 0v1h-1zm2 0v4h2l1-1h-2v-1q0-1 0 0h1v-1h-1zh2v-1h-1zm5-1h-1l1 1v3h1v-1l1-1v-2zm0 0 1 1h-1zm4 0v1h1v1l-1 1-1-1v-3h-1v3l1 1h2v-4zm3 0h-2l1 2v2h2v-1h1l-1-1v-2zm-1 0h1v1h-1zm1 2h-1v1zm2-2v3h3v-1h-2v-3zm3 0v4h1v-4zm5 3v1l-1-1v-3h1v1-1h-2v4h2zm1-3v2l-1 1v1h1-1v-1h2v1h1l-1-1v-3zm0 1v2zm5 0h-1zv3h2l1-1v-2l-1-1zm0 0v3h-1v-4m5 1-1 1v1l1 1v1h2v-3zm0 1 1 1-1 1v2l-1-1v-3zm1 4h1v-3l1 1v3-1l1-1v-1 3h1v-4h-1v2h-1v-3h-1v4zm4 1 1 1h1l-1-1v-1h1v-3h-1v4zm2 1v-2l1 3v1l1-1v-3l-1-1 1 1-1 1v1-2l-1-1h-1 1l-1 1v3m5-4-1 1v2h1zm1 3v1h2v-1 1h-1zv-1h1v1q0 1 0 0h1l-1-1h-2v2m5-2-1 2v1h-1v1h1v-1h1v1l1 1v-5zm0 1v2h-1l1-1zm2 4v-3l1 2v2h1v-3l1-1h-1v3l-1-1v-3h-1v3zm4-2-1 1-1 1 1 1v-1h1v2h1v-5zm0 1v2h-1v-1z"/></svg>