<svg xmlns="http://www.w3.org/2000/svg" viewBox="0 0 1000 1000"><path fill="#fff" d="M8 195.3c170.8-85.3 341-54.5 513.3-28C676.5 191 833.4 211.8 992 132.7v672c-170.8 85.3-341 54.5-513.3 28C323.5 809 166.6 788.1 8 867.2z"/><path fill="#002d62" d="M8 195.3c140.9-70.3 281.3-62 426.4-41.2v268.8c-140.3-20-281.8-31-426.4 41.2z"/><path fill="#ce1126" d="M8 598.5c140.9-70.3 281.3-62 426.4-41.2v268.8c-140.3-20-281.8-31-426.4 41.1z"/><path fill="#002d62" d="M565.6 577.1c140.4 20 281.8 31 426.4-41.1v268.8c-140.9 70.2-281.3 61.9-426.4 41.1z"/><path fill="#ce1126" d="M565.6 173.9c140.4 20 281.8 31 426.4-41.1v268.8c-140.9 70.2-281.3 61.8-426.4 41.1z"/><path fill="#fff" d="M473.2 462v43.7c0 4 .2 6.1 2 9q2.4 3.7 6.3 5.4c1.7.5 8 1.5 10.2 1.8 4.9.6 5.4 1.6 7.3 4.5 2.3-3 4.2-2.9 8.7-2 2.2.3 6.8 1.1 8.8 1 2.4-.2 4-1 5.7-2.7 2.3-2.7 2.3-6 2.3-9.9v-41.2c0-1.8-.2-1.5.7-2.3l6-5.5-64.7-10z"/><path fill="#002d62" d="M493.5 484.6v-26.7l-26.8-4 6.6 8.1v19.5z"/><path fill="#ce1126" d="M504.2 486.2v-26.6l27.3 4.2-7 6.6v19zm-10.7 9.4-20.3-3.2v16.8c1.2 7.6 6 10.6 10.9 11.5l9.3 1.4z"/><path fill="#002d62" d="m504.2 497.2 20.4 3.2-.1 16.7c-.8 7.3-6 8.8-11 8.1l-9.3-1.5z"/><path d="m473.1 462.1-7-8.6 65.8 10.1-6.4 6-.3.2q-.4.4-.4 1v42.6c0 4.9-.8 7.7-2.4 9.5a9 9 0 0 1-5.7 2.9q-1.6 0-7.3-.9l-1.6-.3-1.1-.1a14 14 0 0 0-4.5-.3q-1.7.4-2.7 2l-.4.4-.2.1-.1-.2-.2-.3-1-1.4a9 9 0 0 0-5.3-2.5l-.5-.1-1.6-.3q-7.2-1-8.6-1.5-4-1.4-6.5-5.4c-1.3-2.2-1.9-5-2-9.4V484zm.5 0v43.6q0 6.1 1.9 9a12 12 0 0 0 6.1 5.2q1.4.4 8.6 1.5l1.6.3h.5q3.8.7 5.7 2.8l1 1.5.1-.2a5 5 0 0 1 3-2.1q1.2-.3 4.6.3l1 .2 1.7.2q5.6.9 7.2.9 3.2-.4 5.5-2.7c1.5-1.8 2.2-4.5 2.3-9.2v-42.6q-.1-.9.5-1.4l.2-.2 5.7-5.3-63.6-9.7 6.3 7.8z"/><path fill="#eac102" d="M497.8 465.2v3l-3-.5v2.5l3 .5v10.6l2.4.4V471l3 .5V469l-3-.5v-3z"/><path d="m497.7 465 2.7.4v3l3 .5v2.8l-3-.5V482l-2.7-.4v-10.7l-3-.5v-2.8l3 .5zm.3.3v3l-3-.4v2.2l3 .4v10.7l2 .3V471l3 .4v-2.2l-3-.5v-3z"/><path fill="#fff" d="M481 466.5v4.9l-2-2.4.3 34.4c.3 5.3 3.4 9.4 8 10.4 4.7.4 7.8-2.6 8-7.9l-.3-17.7-2.1-2.6v-1.8z"/><path fill="#002d62" d="M481 466.7v4.9l-2-2.4.2 19.6 8.6 9.7.1-18.7-.3-.4v-3.2z"/><path fill="#ce1126" d="m490.3 480.2 2.6 3.7v1.2l-2.6-3.1zm4.8 8.2.2 12.3c-1.5 2-3.5.7-3.7.5v-17z"/><path fill="#002d62" d="M495.3 507c-3.4 1.6-4-1.6-4.2-2 2.6 0 3.5-1 4.2-2.5z"/><path fill="#ce1126" d="M479.2 493.8c4.6 5.9 8.4 9.3 8.4 9.4 1.4 8.3 5.5 6.5 7.5 5.3q-1.9 6-7.7 5.5c-4.6-1-7.8-5.1-8-10.5z"/><path d="m493 485.4-12-14.6v-4.7l12 17.7.1 1.3zm-.3-.7v-.9L481.1 467v3.8zm-13.9-16.2 16.4 19.7.3 17.8a9 9 0 0 1-2.4 6.2 7 7 0 0 1-5.8 1.8q-3.3-.5-5.8-3.7a12 12 0 0 1-2.4-7l-.3-34.4zm.4 1 .3 33.9c0 2.6.8 4.6 2.3 6.8a9 9 0 0 0 5.5 3.5q3.3.4 5.6-1.8a9 9 0 0 0 2.3-6l-.3-17.6z"/><path fill="#eac102" d="M485.5 464.1c-.8-1.7-.7-2.3-.1-2.8l-3-3.7.8 4.6c.9 0 1.4.2 2.3 2"/><path d="M485.5 464.2q-1-2.1-2.3-2l-1-4.7 3.2 3.8q-.8.8.1 2.8zm-.3-.7q-.6-1.5.2-2.2l-3-3.6.8 4.5q1.1-.1 2 1.3m-2.9-5.9 3.2 6.5z"/><path fill="#eac102" d="m498 487-.8.2-12.5-23.9.7-.3z"/><path d="m498 487-.8.3-12.6-24 .8-.3zm0 0-12.6-24-.7.4 12.5 23.8z"/><path fill="#eac102" d="M484.2 463.3q0-.4.5-.7t1 0q0 .5-.6.8-.6.1-.9-.1"/><path d="M484.2 463.3q-.2-.4.5-.8h.6q.3 0 .3.2.3.4-.5.7h-.5zm0 0 .4.1h.5q.6-.4.5-.7l-.3-.2-.6.1q-.6.3-.4.6"/><path fill="#eac102" d="M480 464.4c-1-1.7-.8-2.2-.4-3l-3.4-3.2 1.4 4.6c.9-.2 1.4 0 2.5 1.6"/><path d="M480 464.4q-1.1-2-2.4-1.6l-1.5-4.7 3.6 3.4q-.8 1 .4 2.8v.2zm-.3-.6q-.7-1.4-.1-2.3l-3.3-3.2 1.3 4.4q1.1-.2 2.1 1m-3.5-5.5 3.9 6.1z"/><path fill="#eac102" d="m495 485.8-.7.3-15.1-22.4.7-.4z"/><path d="m495 485.8-.7.3-15.2-22.4.8-.5 15.2 22.6zm0 0-15.1-22.5-.7.4 15.1 22.4z"/><path fill="#eac102" d="M478.8 463.7q-.2-.5.3-.8t1 0q0 .3-.5.8-.6.3-.8 0"/><path d="M478.7 463.7q-.2-.4.4-.8l.6-.2q.2 0 .3.2.3.4-.4.8l-.5.2zm0 0h.9q.6-.4.4-.8l-.3-.1-.5.1q-.6.4-.4.7"/><path fill="#eac102" d="M479.2 468.7c-1.1-1.6-1.1-2.1-.7-2.9l-3.8-2.9 1.9 4.5c.9-.3 1.4-.2 2.6 1.3"/><path d="M479.2 468.7q-1.4-1.8-2.6-1.3l-2-4.6 4 3h-.1q-.6 1.1.7 2.8zm-.4-.6q-.9-1.4-.4-2.3l-3.6-2.8 1.8 4.3q1-.3 2.2.8m-4-5.2 4.4 5.7z"/><path fill="#eac102" d="m495.4 489-17.1-21 .6-.5 17.3 21z"/><path d="m495.4 489-17.2-21 .7-.5 17.3 21zm0-.1.7-.4-17.2-20.9-.6.5z"/><path fill="#eac102" d="M477.8 468.1q-.2-.3.3-.8t.9-.1q.2.3-.3.8t-.9.1"/><path d="M477.8 468.1q-.2-.3.3-.8l.5-.3q.3 0 .4.2.3.3-.3.8l-.5.3q-.3 0-.4-.2m0 0h.4l.5-.1q.4-.5.3-.8h-.4l-.4.1q-.6.5-.3.8"/><path fill="#fff" d="M517.2 472v5l2-1.8-.3 34.3c-.3 5.3-3.4 8.4-8 8-4.6-1-7.8-5.1-8.1-10.4l.3-17.6 2.2-2v-1.8z"/><path fill="#002d62" d="M517.2 472.3v4.8l2-1.7-.2 19.5-8.7 7.1v-18.7l.3-.4v-3.1z"/><path fill="#ce1126" d="m507.9 483-2.6 2.9v1l2.6-2.2zm-4.8 6.6-.2 12.3c1.5 2.5 3.5 1.7 3.7 1.7v-17z"/><path fill="#002d62" d="M502.8 508.1c3.5 2.7 4.2-.3 4.2-.6a6 6 0 0 1-4.1-3.8z"/><path fill="#ce1126" d="M519 500a51 51 0 0 1-8.4 6.7c-1.5 8-5.5 4.8-7.5 3q2 6.5 7.7 8c4.7.4 7.8-2.8 8-8z"/><path d="m505.2 487.3 12.1-10.9v-4.7l-12.1 14v1.3zm.3-.6v-.9l11.6-13.3v3.8zm13.8-12L503 489.5l-.3 17.7a12 12 0 0 0 2.5 7q2.4 3 5.7 3.5c2.4.3 4-.2 5.8-1.8a9 9 0 0 0 2.4-6.3l.3-34.3zm-.3.9-.3 33.8q0 3.7-2.3 6.1a6 6 0 0 1-5.6 1.8 9 9 0 0 1-5.5-3.5 12 12 0 0 1-2.3-6.7l.3-17.6z"/><path fill="#eac102" d="M512.7 468.3c.8-1.5.6-2 0-2.8l3.2-2.7-1 4.3c-.8-.3-1.3-.2-2.2 1.2"/><path d="M512.7 468.4q1-1.7 2.3-1.2l1-4.5-3.3 2.8q.9 1.1 0 2.8zm.3-.6q.6-1.4-.2-2.3l3-2.6-.8 4.2q-1.1-.4-2 .7m2.8-5.1-3.1 5.6z"/><path fill="#eac102" d="m500.2 487.4.8.4 12.5-20-.7-.5z"/><path d="m500.2 487.4.8.5 12.6-20.1-.8-.6zm0 0 12.6-20 .7.4-12.5 20z"/><path fill="#eac102" d="M514 467.9q0-.5-.6-.9t-.8-.1.5.8.8.2"/><path d="M514 467.9q.1-.3-.5-1l-.6-.2-.4.1q-.1.4.5 1l.6.2zm0 0h-.4l-.5-.2q-.7-.5-.5-.8l.3-.1.5.2q.7.6.5.8"/><path fill="#eac102" d="M518 470.2c1-1.3 1-1.9.5-2.7l3.5-2.3-1.4 4.2c-1-.5-1.4-.4-2.5.8"/><path d="M518.1 470.3q1.3-1.5 2.5-.9l1.4-4.2-3.5 2.3q.8 1.2-.4 2.7zm.4-.5q.8-1.4 0-2.3l3.4-2.2-1.3 4q-1.1-.5-2.1.5"/><path d="m522 465.2-4 5h.1z"/><path fill="#eac102" d="m503.1 487 .8.6 15.1-17.8-.7-.6z"/><path d="m503.1 487 .8.6 15.1-17.8-.7-.6zm0 0 15.2-17.7.7.5-15.1 17.7z"/><path fill="#eac102" d="M519.4 470q.2-.4-.4-1t-.9-.2q-.1.3.4.9.6.5 1 .2"/><path d="M519.4 470q.3-.4-.4-1l-.5-.3h-.4q-.2.4.4 1l.6.3zm0 0h-.3l-.5-.4q-.6-.5-.4-.8h.3q.3 0 .5.3.6.5.4.8"/><path fill="#eac102" d="M519 474.8q1.5-1.6.7-2.6l3.7-1.8-1.8 3.9c-.9-.6-1.4-.6-2.6.5"/><path d="M519 474.9q1.4-1.4 2.5-.6l2-4-3.8 1.9q.6 1.2-.7 2.6zm.4-.5q.9-1.1.4-2.2l3.6-1.7-1.8 3.7q-1.1-.6-2.2.2m4-4-4.4 4.4z"/><path fill="#eac102" d="m502.7 490 17.2-15.5-.6-.7-17.3 15.6z"/><path d="m502.8 490 17.2-15.5-.7-.7-17.3 15.6zm0 0-.7-.6 17.2-15.5.6.6z"/><path fill="#eac102" d="M520.3 474.7q.2-.3-.3-1-.5-.4-.8-.3-.2.3.3 1 .5.4.8.3"/><path d="M520.4 474.7q.2-.3-.3-1l-.5-.3q-.3-.2-.4 0-.3.3.3 1l.5.3zm0 0h-.4l-.5-.4q-.5-.7-.3-.9h.3l.5.4q.6.6.3.8"/><path fill="#ce1126" d="m496.6 501.7-.7 10.7c-.8-.2-1.8-.4-2-1.3l1.3-10q.8.2 1.4.6"/><path d="m496.7 501.7-.7 10.9h-.1q-2-.6-2.2-1.6l.8-5.9.6-4.1v-.2h.1l1.4.7zm-.3 0-.6-.3-.5-.2-.6 4-.7 5.8q0 .9 1.8 1.3z"/><path fill="#002d62" d="m495.6 501-.3 3.4c.3 1 1.4 1 2.2 1.2l.1-5.5z"/><path d="M495.4 501h.1q1.3-.4 2-1l.2-.2-.1 6h-.1l-.3-.1q-1.8-.3-2-1.3zm.3.2-.2 3.1q.1 1 1.7 1.1h.2v-5q-.6.4-1.7.8"/><path fill="#002d62" d="M495.7 515c2-1.7 4.8 0 5 .2 3.6 1 2.7-2.7 2.7-3-.8-8.5-1.6-14.4-1.6-14.4l-5.2 2.8z"/><path d="m495.5 515.3 1-14.8 5.4-2.9v.2a262 262 0 0 1 1.6 16.4q-.5 2-2.8 1-3.2-2-5-.1zm.3-.7c1.3-1 2.7-1 5 .4q2 .8 2.5-.8v-2l-1.6-14.2-5 2.7z"/><path fill="#002d62" d="M495.7 515.1c-.2 2.5 1.8 2.4 2 2.4 2.9.1 2.1-2.6 2-2.8-3.1-1.2-4 .3-4 .4"/><path d="M495.6 515.2v-.2q1-1.8 4.2-.4.3 1 .1 1.7-.3 1.6-2.2 1.3-.6 0-1.2-.3-1.1-.6-1-2.2m.3 0q-.3 1.5.8 2 .5.3 1 .3h.1q1.8.3 2-1.2v-1.4q-3-1.3-4 .3"/><path fill="#ce1126" d="m497.7 500-.2 9.4c.4 2.4 2.4 1.6 2.6 1.5l1.3.2-.1-3c4.2 0 3.3-2.2 3.2-2.4-1.7-8.4-1.8-8-1.8-8z"/><path d="m497.6 499.8 5-2.3h.2v.2l.3.8 1.5 7.2q.3.8 0 1.4-.6 1.3-3.2 1.1l.1 3h-.1q-.7-.3-1.2-.1l-1.4.1q-1.4-.2-1.5-1.8zm.2.2-.2 9.5q0 1.3 1.2 1.4h1.3q.5-.3 1.2 0l-.2-3h.2q2.5.3 3-1 .3-.5 0-1.1l-1.5-7.3-.2-.7z"/><path d="M501.4 508.2q-2.6-.4-3.7.4v.2l-.3-.1.1-.3q1.2-.9 3.9-.4z"/><path fill="#fff" d="m501 515.2-.9-16.5 1.9-1 1.5 15.5v.2c-.2 2.8-2.3 1.8-2.5 1.8"/><path d="m501 515.2-1-16.6 2-1 1.7 15.6v.2q0 1.9-1.4 2-.6.1-1.2-.1h-.2zm.1-.1q.6.2 1.2.1 1.1-.2 1.1-1.8v-.2L502 498l-1.7.9z"/><path d="m487.7 487 7 14.5 15.4-8-8-13.4z"/><path d="m487.6 487 14.5-7 8 13.4-15.3 8.1zm0 0 7.2 14.5 15.3-8-8-13.4z"/><path fill="#fff" d="m488 487 14.4-6.4 7.9 12.8-15.3 7.7z"/><path d="m487.9 486.8 14.5-6.4 8 13.1-15.5 7.8-7.2-14.4zm.2.2 7 14 15-7.6-7.8-12.6z"/><path d="m495.2 500.4 14.4-7.3-1.1-2-7.2-11.1-5.2 3.5-6.7 2.7-1.2-.9.3 1.6z"/><path d="m495.2 500.4-6.7-13.5-.3-1.6 1.2 1 6.6-2.8 5.3-3.5 7.2 11.1 1.1 2zm0 0 14.3-7.3-1-2-7.2-11-5.2 3.4-6.7 2.8-1.1-1 .2 1.6z"/><path fill="#fff" d="M496 483.5c-2.3-1-4.4 1.3-5.3 2-.8.5-2 0-2.2 0l6.5 13c2 .8 3-1.1 4-2 1.8-1 3.5-.7 3.6-.7z"/><path d="m496 483.5 6.8 12.4h-.2q-1.8-.4-3.5.7l-.7.7q-2 2-3.4 1.2l-6.6-13.1h.2q1.4.6 2 .1l.5-.4q3.1-2.7 5-1.6zm0 .1c-1.4-.6-2.7-.2-4.8 1.7l-.5.4q-.6.4-2 0l6.4 12.7q1.4.7 3.2-1.2l.7-.7q1.6-1.1 3.5-.8z"/><path fill="#fff" d="M496.2 483.7c.3-2.6 2.9-2.9 3.9-3.2.8-.5 1-1.8 1-2l7.4 12.6c-.4 2.1-2.6 2-3.8 2.4-1.8 1-2 2.3-2 2.4z"/><path d="M496.1 483.7q0-2.1 3.4-3.1l.6-.2q.7-.4 1-1.8v-.2l7.4 12.7q-.1 1.7-2.8 2.3l-1 .2q-1.7.8-2 2.3v.2zm.2 0 6.3 12q.4-1.5 2-2.2l1-.3q2.7-.5 2.8-2.1l-7.2-12.3q-.3 1.5-1 1.7l-.6.2q-3.3.9-3.3 3"/><path fill="#fff" d="m494.8 498.5-6.5-12.9v1.3c4.8 8.8 6.8 13.4 6.8 13.4z"/><path d="M494.8 498.4v.4l.4 1.5h-.1q-2-4.6-6.8-13.3v-1.6.2zm0 0-6.4-12.6v1l-.1.1q4.6 8.4 6.7 13l-.2-1.1zm-4.4-11 .1.3v-.2h.1l.1.3v-.1h-.1v.2h.1l.2-.2v.1l-.4.2-.2-.5.3-.2.1.2q-.2-.1-.2 0zm.4-.2.3.5-.1.1v-.2l-.2-.3q-.2 0 0 0zm.6-.3v.2q0-.2-.2 0h.2l.2.1v.3h-.2v.1l-.1-.2h.3-.2l-.2-.2v-.2zm.6.4h-.2v-.1l.1-.1h-.1v-.2l.2.1.1.2zm-.1 0v-.2zm.2-.5h.2l.1.2v.1l-.2-.2zl.1.2v.1zm.3-.3h.1l.1.3v.1h-.1zm.3 0h.2l.1.2v.2h-.2zm0 0 .1.2h.1v-.1zm-1.8 2v.2l.2-.1v-.1.3-.1.2l.2-.1v-.1.1l-.3.3v-.2zl.4-.2v.2q0-.2-.2 0m.7.3-.3-.3.1-.1.2.2v-.2h-.1v-.1.2zm.4-.3-.1.1h-.1v-.4.1h-.1l.1-.1h.1zm0 0-.1-.2v.2m.1-.5h.2l.2.2v.1h-.1l-.1-.1v-.1zv.2h.1l-.1.2v-.1l-.1-.2-.1-.1zm.5-.2v.3q-.2 0 0 0h.2v.2l-.2.1v-.1l-.1-.1v-.1h-.1v-.3m0 0v.2h.1zm.1.4q.2 0 0 0m.3-.6-.2.1.1.1h.1v.1h-.2l-.1-.2v-.2zm0 0h-.1v.1zm0-.4.3.5q.1 0 0 0v.1l-.1-.2zm.2-.2v.2zm.2 0 .1.4v.1l-.1-.1-.1-.2zm.2 0h.2v.4h-.2zm0 0 .1.2v-.3zm-2 2v.2h-.2v.1h.2l.2.1v.2l-.2.1-.2-.1h.3v-.1h-.2l-.2-.1v-.2h.2zm.6.1-.2.1.1.1h.1l-.2.1v-.4zm-.1 0h-.1v.1zm.3-.3.1.2-.1.1v.1h.3v.2h-.2l-.2-.2v-.1q-.2-.2 0-.2m0 0v.2h.1zm.5-.3.2.3v.1h-.3l-.1-.2h-.1l.1-.1.2.3zh-.1zm.2-.1h.3v.2h.1l-.1.1v-.2zl.1.2-.1.1zm.7-.5h-.2v.1zl.2.1v.2l-.2.1-.1-.1h.3v-.1h-.2l-.2-.1v-.2zm.5.3h-.2v-.2h.1v-.2h-.1v.1-.1h.2l.1.2zm0 0v-.2zm.2-.5h.2l.1.3-.2-.1zh-.1l.1.2v.1l-.2-.2zm.4-.4.2-.1v.1l.2.3v.2h-.3.2l-.1-.3zm.7-.1.1.3h.1l-.1.1h-.3v-.2h-.1v-.1l.2.3h.1v-.1l-.1-.2zm.4.2h-.2v-.1l.1-.1v-.1h-.1v.1-.1h.2zm0 0v-.2l-.1.2m.1-.5h.3v.2h.1l-.1.1v-.2zl.1.2-.1.1zm-2.8 4.7h-.3v.4h.4v-.1.2h-.3l-.2-.4zm.6.1-.2.1v.2-.2l-.1-.4zm0 0-.3-.2v.3zm.3-.2v.2h.2l-.2.1v-.1l-.2-.4h-.1l.2-.1h.2v.2zm0 0v-.2h-.2zm.6.1-.2.1-.2-.5h-.1l.2-.1v.1l.2.4m.2-.7h-.1l.2.5h.1l-.2.1-.2-.5h-.1v.2-.1zm.4-.2.2.3v.2l-.2.1h-.2l-.1-.3v-.1h-.2l.2-.1v.1l.2.3h.2zq0-.2-.1 0zm.8 0-.4.2v-.1l-.1-.4h-.1l.2-.1v.1l.1.4h.2zm.1-.5h.4v.4q0 .2-.2.1l-.2-.1zm0 0v.4l.3.1.1-.1v-.3zm.9-.5v.7l-.4-.4h-.1l.2-.2v.2l.3.2v-.3l-.2-.1zm.5.4-.2.1-.2-.5.1-.1v.1l.2.4m.3-.1-.2.1v-.1l-.1-.4h-.1l.1-.1zq0 .2.1 0zm.3-.1h-.2l-.2-.4h-.1l.2-.2v.2l.2.3m-4 3.9v-.2h.1l.1.2h.1v.3h-.1.1v-.2h-.1v-.2h-.2m.3-.3.1-.1.3.5h-.1l-.2-.4m.7-.4.2-.1v.6q.2 0 0 0l-.1.1v-.2l-.4-.2zl.2.2zm.9.2h-.3v-.5l.3.4zm0 0-.2-.2v-.1l-.1.1.1.2zm.1-.3.2.1h.1v-.1.2h-.2zv-.2h.2zm0 0 .2-.1h-.1zm.6-.2v.2h-.1l-.2-.1v-.3h.2zv.3h.2zm0-.4.2.3h.1l-.1.1v-.1zm.5.2h-.2v-.4.1h-.1v-.1h.2zm0 0-.1-.2zm.2-.7h.2l.1.3v.2q-.2 0 0 0zq0-.1-.1 0zm.4.2.2.1v-.1h.1v.2h-.2zv-.2h.2zm0 0 .2-.1h-.1m.3-.3v.2h.1l.1.1v.2h-.2v-.1h.2v-.1h-.3zm.4-.1.1.2h.1v.2l-.1-.1v.1h-.2v-.2h-.2l.1-.1.1.2h.2zh-.1zm.3-.2h-.2l.1.1zv.2h-.1.1zh-.2v-.2m.6.1-.1.1h-.1v-.3h-.1.2zm0 0-.1-.1h-.1v.2zm-4.8 3 .3.5v.1-.1zm.4 0 .2.3-.1.1h-.2l-.1-.2zm0 0 .2.2h.1v-.2l-.2-.1m.4-.2h-.1v.1zv.2l-.1.1v-.1h.1-.2v-.3m.3-.4.2.5v.2-.3l-.2-.2zm.4 0 .2.2v.1h-.3v-.1l-.1-.1.2.2h.1zm.5.1-.1.1-.2-.1v-.2l.1-.1v-.1h-.1v-.1zm0 0-.1-.2h-.2q0 .2.2.2zm0-.5.2.3q.2 0 0 0v.2-.2zm.3-.2h.2v.4h-.2l-.1-.2zm0 0v.2l.2.2h.1v-.2l-.1-.2zm.4-.2h-.1v.1zv.2h-.1.1zh-.2v-.2m.6-.4.3.5v.1l-.2-.2v.1h-.2v-.4zm.1.2h-.2l.1.2zm.3-.5.1.3h.1-.1v.1h-.2v-.1l-.1-.1h-.1v-.1l.2.2h.1zh-.1zm.2 0 .1.2.1-.1v.1h-.2q-.2 0 0-.1zh.2zm0 0q-.2 0-.1.1m.4-.6.2.5h.1l-.1.2v-.2l-.2-.3h-.1zm.4.2v-.1zh-.2zv-.2h.1zm0 0v-.1zm-4 2.8.2.3v-.2l.2.1.1.2h.1l-.2.1v-.3h-.2v.1l.1.2h.1l-.1.1v-.2l-.3-.3zm.8.3h-.2v-.4.1h-.1v-.1h.2v.1zm0 0-.1-.2v.2m.2-.4h.2v.3h-.2l-.2-.4v-.1zm0 0v.3h.2v-.2zm.3-.2.2.3v.1l-.1-.1zm.4.2h-.1v-.3h-.1v.1-.1h.2zq0 .2 0 0m0 0-.1-.1-.1.1v.1zm.1-.4.2.3h-.1l-.1-.2zv.3h.2-.2zm.8-.2v.2h-.1l-.2-.1.1-.3h.1zh-.1l.1.3h.1zm0-.3.1.1zv.3h.1l-.1.1-.1-.3h-.1m.3 0 .2.2v-.1h.1v.1h-.2zv-.2h.2zm0 0h.2zm.3-.3.2.3v.2-.1h-.1zh-.2zm.5.1v.1h-.3v-.3h.2l-.1-.2v-.1zm-.1-.1-.1-.2h-.1v.1l.1.2zm.1-.4h.2l.1.2v.1h-.2zm0 0v.1l.1.2h.2v-.2zm-1.1-10.2v.2q0-.2-.2 0l.3.1v.2l-.1.1-.1-.1h.2v-.1h-.2l-.1-.1v-.2zm.2-.2v.1m0 0 .2.3h.1l-.1.1-.1-.2zm.3 0 .2.1v-.2.3zm.4-.2.1.2-.2.1-.1-.2zm0 0v.1l.2.2v-.2zm.4-.2v.1h.1v.2h-.1.1l-.2-.1zm.2 0q0-.2.2 0v.1q0 .2-.1.1zm0 0v.2l.1.1h.1v-.2zm.2-.2v.2h.1v.1l-.2-.3zm.2 0v.1h.1v.1zm.3-.1.1.2-.1.1q-.2 0-.2-.2zm0 0v.1l.2.2v-.2zm.4-.2v.1h.1v.3l-.1-.1h.2-.3zm-2.1 2.2.1.3h-.1v.2h.1-.1zm0 0 .2.2v-.3zm.3 0h.2v-.1.2zm.2-.4v.1zq.2 0 0 0v.1l.1.2h.1l-.1.1-.1-.3m.3.7h.3v.2h.1-.1v-.2zl.1.2v.1l-.1-.2zv.2h.1l-.1.1v-.1zm.7 0v-.2h-.1v-.1h.2zm0 0h-.1m.2-.2v-.2h.2v.3h.1-.1v-.2zv.3h.2-.2zh-.1v-.1zm.3-.1v.1h-.2zv-.2h.1zm.5 0-.2.1-.1-.2v-.1h.2-.2l.1.2zm.1-.2.1.1h.1v-.1.2h-.1zv-.2h.2v.1zm.3-.2v.1l.1.2-.2-.2m.3 0h.2v.1h-.2zv-.2h.1zm.1-.4v.1m.2 0v.3h.2l-.2.1v-.2h-.1zm.2 0h-.1v.1h.2v.2h-.1.1v-.1h-.2v-.2M498 486l.2.2v-.1.1h-.1zh.2zm0 0h.2zm.3-.2h.2v.2h.1l-.1.1v-.2zl.1.2v.1zm.4-.2h.2v.2h.1v.1l-.1-.1v-.1zl.1.2v.1-.1zv.2h.1l-.1.1v-.2zm.4-.5v.1m.1 0 .1.3h.1l-.1.1-.1-.2zm.2 0h.2l.1.3h-.1v.2h.1-.1zm.2 0v.2h.2v-.1zm.4 0v.1h-.1v-.2h-.1v-.1h.2zm0 0-.1-.1v.1q0 .2 0 0m0-.5.2.4h.1l-.1.1v-.1zm.5.3-.1.1v-.3h-.1v.1-.1h.1zm0 0h-.1zm.2-.3h.2v.3h-.1l-.3-.3v-.1zm0 0v.2h.2v-.2zm.2-.2v.3h.1zm.5.1-.1.1h-.1v-.3.1-.1h.1zm0 0-.1-.1v.1zm-2.7 2.1v.1h-.1.2v.2h-.1v.1-.1h-.1v-.2m.2 0h.2v.1h-.1zv-.2h.2zm.2-.2q.2 0 0 0v.1l.1.2zm.2 0 .1.2.1-.1v.1h-.1zh.2zm.1-.4v.1m.2 0 .1.3v.1l-.2-.2zm.2 0v.1h.1v.2h-.1.1v-.1h-.2v-.2zm.2-.2.2.2v-.3.4zm.4 0h.2v.1h-.1zv-.2h.2zm0 0 .2-.1zm.3-.2q.2 0 0 0v.1l.1.2q.2 0 0 0l-.1-.2h-.1m.5 0v.1h-.2v-.5zm0 0h-.2zm.3-.2v.1l-.2-.1.1-.2h-.1.2zm-.1 0h-.1zm.3-.2v.1h-.2v-.5zm0 0h-.2zm0-.3.2.1h.1q0 .2-.2 0zm0 0h.2zm.2-.3v.1zv.3h.1v.1-.1l-.2-.2m.5.2h-.2v-.2h-.1.2zm0 0-.1-.2v.2m.1-.3h.2v.2h.1v.1l-.1-.1v-.2zl.1.2v.1-.1zv.2h.1-.1zm.5-.2.1.1h.1v-.1.2h-.1zm.3-.2h.2v.2h.1l-.1.1v-.2zl.1.2v.1zh-.1zm.2-.3v.3h.1v.1l-.2-.3zm.3.1v.2l.2-.1v.1h-.2l-.1-.2v-.1zm-4.7 3.4.1.2v.1-.1zv.2h.1l-.1.1v-.1zh-.1v.2h.1-.1zh-.1zm.4-.5.2.3-.1.1v-.2h-.1zm.3 0h-.1v.1h.2v.2h-.1.1v-.1h-.2v-.2m.6 0v.1h-.2v-.3h.1v-.1h-.1v-.1zm0 0h-.2q0 .2.2.2m0-.4.2.2h.1l-.1.1v-.1zm.3-.2v.1l.1.1v.2h-.1.2l-.1-.2h-.1q-.2 0 0-.1m.4 0v.1h-.1l-.1-.1v-.2h.2q0 .2-.1 0l-.1.1v.1zm0-.3.2.3-.2-.2zm.1 0 .1.3h-.1v.2h.1-.1zm0 0 .1.2h.2v-.1zm.1-.4v.1m.1 0 .2.3v.1h-.1v-.2h-.1zm.1-.2.2.5h.1-.1l-.2-.3zm.3 0 .2.1v.2l-.1.1-.2-.2zm0 .1v.1l.1.2h.1v-.2h-.2m.4-.2v.1h-.2.1l.2.1v.1l-.1.1h-.1.2l-.1-.2h-.1v-.1m-1.8 4.2h.2v.1l.2.1v.2h-.2.1v-.2h-.2zm.7 0v.1l-.2.1v-.4h-.2.2v.3zm.4-.8h.2v.5q-.2 0 0 0l-.1-.2-.3-.1.1-.1v.1h.2zm.8.1v.2h-.2l-.1-.2v-.1h.2-.2v.2h.2m.1-.4h.2v.2l-.1.2-.1-.2zm0 0v.2l.1.1h.1v-.2zm.3 0v-.2l.2.1v.2h.1zv.3zm.3-.3h.2v.4l-.2-.2zm0 0v.2l.1.1h.1v-.2zm.6 0-.2.1-.1-.1v-.2a.1.1 0 0 1 .2 0h-.1v.2zm0-.2.2.1h.1v-.1.2h-.2zv-.2h.1zm0 0h.2q0-.2-.1-.1m.2-.2v.3h.1-.1zh-.2zm.3 0v.2l.2-.1v.1h-.2zm.1-.4v.1m.1 0 .1.3h.1l-.1.1-.1-.2zm.3 0h-.1v.1h.2v.2h-.1v-.1h-.1v-.2m.3-.4.2.5-.2-.4zm.4.4h-.1v-.2q-.1 0 0 0h.1zm0 0-.1-.2v.2m-4.2 2.9.2.2v-.2zl.1.3zm.4-.1h.2v.1h-.1zv-.2h.1zm.2-.3v.2h.1zm.5.1v.1h-.2v-.5zm0 0h-.2zm.3-.2h-.2v-.2h.1zm0 0-.1-.1zm.4-.1h-.3v-.3h.1v-.2zm0 0-.1-.2h-.1v.2zm.2-.5h.2l.1.1v-.2.5-.2zm.5-.5.2.5h.1-.1l-.2-.4m.5.4h-.2v-.3h.1zm0 0h-.1zm0-.3.2-.1.2.2v-.2h-.1l.1.3-.2-.2zm.4-.1h.2v.1h-.2zv-.2h.1zm.3-.2v.3h.2-.2zh-.1m.4.1v.2l-.2-.2v-.4zm0 0-.2-.1h-.1l.1.2zm.3-.2-.1.1v-.3h-.1.1zm0 0h-.2zm.4-.1h-.3v-.3h.2l-.1-.1v-.1zm0 0-.1-.2h-.1l.1.2m.3-.5h.2v.3l-.2-.2zm0 0v.1l.2.2v-.2zm.4-.2v.1h-.1.2v.2l-.1.1v-.1h.1l-.2-.1v-.2m-4.7 3.3v.2l.1-.1h.1l.2.2-.1.1-.1-.2h-.1v.2h.2l-.2.1v-.1zm.6.3h-.2v-.3h.1zm.1-.2v.2h.1l-.1.1zm.4.1v.1l-.1-.1v-.2.1h-.1v-.1h.2zm0 0-.1-.1h-.1zm.2-.6.2.4v.1-.1zh-.1zm.2 0 .2.3-.1.1v-.1l-.1-.1zm.2 0h.2v.3h-.1l-.2-.4zm0 0 .1.3h.1v-.3zm.2-.1v.2h.1l-.1.1zm.2 0 .1.1h.1v-.1.1h-.1zv-.2h.1l.1.1zm.3-.2h-.1v.1h.2v.2h-.1v-.1h-.1v-.2m.3.2"/><path fill="#201b18" d="M483.6 435.5a39 39 0 0 0-23.2 2.6c-3.2 1.5-3.8 2-2.1 5.5l-4 .9q-4 .8-7.5 2.2c-1.3.7-1.9 1.2-3 2.2l6.6.4-1 1.3-2.8 4.3q2.7-1.6 5.7-2.7c4.8-1.6 12.8-.8 16.5-4.2.8-1 .3-1.6-.4-3.5 2.5-.5 3.5-1 6.6-1.2 7.4-.4 12.6 2 16.2 1.9q1.9-.2 2.3-1.8l-.5-4 12 2c0 2.3-1.8 4.3 1.8 6.2 3.5 1.3 10.2.7 16.2 3.1l6.6 3.2c0 .3-.4 1.1-.6 1.5q-.4 1 .2 1.8 1 1.3 2.6 2.5 3.1 2 6.8 3.4c6.9 2.8 7.5 3.3 12.8 7.7l-3.7-6.7 6.5 1.5a23 23 0 0 0-6.5-5.3l-8-4.1c.8-1.4 1.3-2.3.7-3.7-1.4-1.8-7.6-6-9.4-6.9q-4.3-1.8-8.6-3.2c-2.9-.9-8.2-2.1-8.2-2.1-.3-.6.5-2.4-1-4.3q-1.7-1.4-4-2c-6-1.4-14.2-2.5-20.3-3q-2.7-.4-4 .6c-1.3 1-1.4 1.6-1.3 3.9"/><path fill="#002d62" d="M485.3 440.2c.9-.7 1-1 2.4-1.2 3.2-.5 8 .2 11.3.8q4 .6 7.9 1.4c2.7.7 4.2 1.3 6 3.1q.5-2.5.8-5.5c0-2.3-1-3-3.1-3.8a105 105 0 0 0-24-3.6q-2.5.4-2.6 3.4c.1 1.1.9 4.5 1.3 5.4"/><path fill="#002d62" d="M461.6 447.3c.5-.5.2-1 2.7-2 3.3-1.4 7.7-2.4 11.4-2.6q4.7 0 9.8 1.1 2.4.7 4.9.9s1.5-.2 2-.5c.5-.5.5-1.5.5-1.6-1.2-.7-4 1.2-6.8.1-.9-.5-1.2-1.9-1.5-3l-1-3.6a42 42 0 0 0-18.3.7c-2.2.7-5.5 2-7 3.1-1 1.2 0 2.8.8 4zm43.5-3c-.1 2 1 2.5 2.6 3 3.3 1 8 .4 14.6 2.5a56 56 0 0 1 12.9 7.3l1.2 1.6 2.6-2.5c.8-1 1.6-2.3.7-3.9a53 53 0 0 0-7-5.2 59 59 0 0 0-18.8-6.4c0 .3-.5 5.3-2 6-3 .2-4.5-2.1-6.8-2.3"/><path fill="#002d62" d="M529.5 455.5c-.2.9-.5.9 1 2.5 4 3.7 10.2 5 14.3 7.3 2 1.2 3.2 2.1 5 3.5l-3.1-5.4 6 1.2-.3-.3a63 63 0 0 0-13-7.8l-3 3.1c-.5.4-.7.6-1.6.2a9 9 0 0 1-2.5-2.2 10 10 0 0 0-2.8-2.1m-24.3-11.7c2 .5 2.2.8 3.7 1.8q.9.4 2.1.6c1 0 1.2 0 1.5-.8.2-1.3-1.5-2.2-2.5-2.6l-4.3-1.3zm-12.4-1.9-.4-2.4c-1.8-.3-6.6-.3-6.8 1.7.2.9.4 1 1.3 1.3 2.6.5 3-.8 5.9-.6m-30.7 5.8c1.1 1.5 3-.5 4.5-1.5.8-.5.9-.5 1.7-.7l-.4-.9c-.8.1-2.6.8-3.3 1.1q-1.6.6-2.5 2"/><path fill="#002d62" d="m529.7 455 .9.4c2 1.8 4 4.5 5.2 4 .3-.9-1.4-2.4-2.2-3l-3.4-2.1zm-61.3-8.8c.3 1 .6 1-1 2.2-4 2.5-10.1 2-14.3 3l-5 2 3.1-4.4-6-.6q.2 0 .3-.2c3-2 9.5-3.2 13-3.9l1 1.4 2.1 2.6q.4.8 1.5.7c1.1-.2 2-1 2.6-1.5s1.9-1.2 2.7-1.3"/><path fill="#eac102" d="M469.3 437.3q-.7-.1-1.5.2c-.2 0-.6.1-.3.3q.4.4.4.7l.4 1.2.6 2s-.1.4.2.3l1-.2q.7-.1 1-.7l.2-.6v-.6l-.2-.8-.5-1-.8-.7zm-.2.3q.5.1.8.7l.4 1q.3.9.2 1.6-.1.4-.5.5t-.5-.4l-.2-.8-.5-1.4-.3-.9q.1-.4.5-.3m2.2-.7q.2.1.3.4l.2.8.2.6.3.9.2.8v.7l.2.2.6-.1.4-.1-.4-.5-.2-1-.2-.7-.2-.5-.3-1.1v-.5q0-.2-.3 0zm3.6-.4q-.5 0-.9.2-.3.4-.4 1v1q.2 1 .8 1.7l.8.6q.4.2.7.1.7 0 .9-.8l.2-.8-.2-1-.4-.9-.6-.7q-.4-.4-.9-.4m0 .3q.5.1.7.8l.5 1.5v1.6q-.4.3-.7 0l-.5-.7q0-.6-.3-1l-.2-.8v-1.3q.1-.2.5-.1m2.8-.2-.3.6.1.8.5.6 1 .7.6.6v.6q0 .4-.5.3l-.5-.4q-.4-.3-.5-.8-.3-.2-.2.1v.7l.4.4.7.3h.7l.5-.5q.2-.5.1-.9-.1-.8-.8-1.2l-.8-.5q-.5-.1-.7-.7 0-.5.3-.6.4 0 .7.3l.3.5q.2.3.2 0 .2-.3 0-.6l-.7-.4q-.5-.2-.8 0zm13.7-3.3h-1.6l.3.6v1.8l.2 1.2-.1.6q-.2.3.2.2h.8q.1 0 0-.2l-.2-.9v-.6l.8-.1q.9 0 1-.9.3-.7-.4-1.3zm0 .4q.4 0 .6.6v.7q0 .6-.6.6-.4 0-.5-.3v-1.6zm3.2-.1q-.4-.1-.4.3l-.2.8-.2 1.3-.4 1.4q-.2.3-.1.5h.7q.2 0-.1-.4v-.6l.2-.1 1 .1.1.8q-.1.3 0 .4h1q.2 0-.2-.4l-.2-.9-.3-1.1-.2-.7-.3-1.3zm-.2 1 .5 1.7q0 .3-.3.2-.4 0-.6-.3l.2-.6.1-.8zm3.6-.6-1.5-.2-.1.5v.5l.2-.2.6-.3q.2 0 .3.2v3.6l-.1.2h.4l.7.2q.2 0 0-.2l-.1-.7v-3.1h.4l.4.3.2.3q.1.2.2 0l-.1-.6q0-.2-.2-.3zm3.5.4-1-.1-.2.1.2.6v3.1q0 .3-.3.5h.4l.9.2q-.2-.1-.2-.4V437q.4 0 .4.3l.2.7.4.6.5.6.5.2q0-.2-.3-.5l-.4-1-.2-.7q0-.2.3-.2.3-.1.5-.5l.1-.7q0-.4-.3-.7l-.5-.4-.8-.3zm.3.4q.5 0 .6.3l.2.6v.5q-.2.5-.6.5l-.6-.1V435q0-.4.5-.2m2.7.8v.6l-.1 1v1.7l-.3.4v.1l.5.2h.7l-.1-.2V436l.2-.5q.2-.3 0-.2l-.7-.1q-.4-.2-.4 0zm3 .3q0 .6-.3 1l-.2.6-.3 1-.5 1.2q-.3.2 0 .3l.6.1q.3 0 0-.2v-.6q0-.4.4-.3l.7.2.1.7v.5l.8.2h.2l-.3-1.2-.1-1.3-.2-1.2-.1-.6q0-.3-.3-.3zm0 1q.3.3.2.8t.2 1q-.1.3-.5 0-.4 0-.4-.3l.2-.5.2-.5.2-.5zm7.9 5.6.2.5v3.9q-.2.2.1.2l2.2.2.1-1h-.2q-.2.5-.8.5l-.5-.1v-.6l-.1-3 .2-.5zm3 4.9 1 .1-.1-.4v-3.7l.2-.3-1.1-.2.1.5v3.5zm1.8-4.3.2.5-.1 1.5-.1 1.7-.1.6q-.3 0-.1.2l1.4.4h1q.6-.5.4-1.3 0-.4-.4-.6l-.4-.5q.6 0 .8-.6.1-.4-.2-1l-.2-.2-.6-.3zm1 .6q.4 0 .7.3.3.5 0 1 0 .3-.3.3h-.5v-1.2zm-.2 1.9q.5 0 .9.5.2.4.1 1 0 .6-.8.5-.3 0-.3-.4zm2.2 2.8q.1.2.4.3.6 0 1.1.4l1 .3.2-.6q0-.4-.2-.2-.5.3-1.1 0-.4 0-.4-.5l.3-1.5.5.2q.3.1.4.6l.2-.4v-.8q-.2.2-.6.1-.4 0-.5-.3l.2-1q.6 0 1 .5l.4.5v-1l-.5-.2-1.7-.7c-.3 0 0 .3 0 .4l-.2 2-.3 1.6zm3.7-3v.8l-.4 2-.2 1.1c0 .2-.4.2-.1.4l.8.4c.3 0 0-.2 0-.4l.2-.9q0-.4.2-.4.3.1.2.5l.4 1.5.7.8-.2-.8v-1l-.1-.7q.4 0 .7-.2.4-.4.3-1.2t-.8-1.1q-.7-.5-1.5-.7zm1 .7q.4.1.7.6.1.8-.2 1.3-.3.3-.7.1-.4 0-.3-.4l.3-1.2q0-.3.2-.4m1.8 1.8.5-.2h.6v.6l-.2.8-.5 2q0 .4-.3.4l.4.4.7.3v-.5l.3-1.5.5-1.9q.4.1.6.5l.2.7q.2-.2.1-.5v-.5l-1-.6-.7-.4-.8-.5-.4.7zm4.1 1.4-.3.5-.4.5-1 1.6-.6.5q0 .3.3.4t.5.2q-.2-.3-.1-.6 0-.5.4-.3l.7.5v.6l-.2.5.6.5c.1 0 .4.3.3 0v-1.6l.2-.9.1-1.5v-.6zm-.3.8v.3l-.1 1.6q-.1.2-.4-.2-.5 0-.3-.4l.5-.7zm2.7 1q0 .5-.2.8l-.4.7-.5.7-.7 1q-.3 0-.1.3l.5.6.8.8q.6.6 1.3.4l.6-.5.3-.8q.3-.5.2-1.1-.1-1-.8-1.8l-.7-.8zm.7 1.2q.5.5.5 1.1 0 1-.6 1.7-.4.5-.9.7-.4 0-.7-.5 0-.5.2-.8l1-1.6q0-.3.4-.5z"/><path fill="#006300" d="m484.6 539.6 3 1.8 2.2 4.6c.9.8.7.6 1.7 1l-5.3 1.4c-1.5.5-1 1.7-.2 2.2.9.3 2.4 0 3-.2a54 54 0 0 0 9.9-4l9.3 7c.8.4 2 1.3 2.8 1q.7-.2.7-1.1-.3-.9-1-1l-5.1-3.1 1.1-.2c.3-.2-.2-.9.2-.8l2.4-3.5 2.9-.6c-.8-2.9-21.3-7.6-27.6-4.5"/><path fill="#ff0" d="M486 549c-.7.3-.5 1.6 1 1.5 1-.4.3-1.5-1-1.5m23.3 3.7q-.4.8.4 1.2.8.5 1.3 0t-.4-1c-.4-.3 0-.3-.4-.2z"/><path fill="#006300" d="M531.8 467q-.2.1 0 .5c2 4.4 1.3 2.4 3 7.9q-.6-.7-1-1.5l-3-5c-.1.4.5 2.6.7 3.2.8 2.8 2.6 6 4 8.6l-1-1c-1.2-1.2-.9-1-1.6-2.4q-1-2-1.7-4.1l-1-3-.2.3v1.2l.7 4.7-3-2.2-.7-.4h-.2c0 .5 1.6 2.4 2 2.8.5.5 2.3 2.2 2.6 2.7.8 2 1.5 3.4 2.6 5l1 1.6-2.2-2.7c-1.7-1.8-2.3-2.6-4.2-4.4 0 .6.7 1.1 1 1.5l2.9 3.7 2.8 4 1.8 3.3-1-1.5-2.8-4a29 29 0 0 0-6.2-5.9q0 .5.6.9l3.9 4.3 2.8 3.6q1.4 2 2.4 4.2l1.1 2.1c-.8-.6-4.8-5.7-5.8-6.9-.8-1-1.2-1.4-2.2-2.1.2.5 2.8 4 3.5 4.9l.6.8 1.2 1.6c.8 1.1 2.2 3 2.8 4.2l.8 2a61 61 0 0 0-6.4-8.4l-2.7-2q0 .5.8 1.1l1 1.2a41 41 0 0 1 5.6 7.5l-.9-1-.9-.9-1.9-1.8-4.4-3c.1.4 1.5 1.5 2 1.9l3 2.8.8 1 1.7 2.3 1.5 2.4 1.2 2.6 1.5 6-2-6c-.7-1.9-1.6-4.8-3.5-4.8q-.9.3-1.2 1.3c-.5.7-.9-.4-2.4 2.3q-1 2.3-1.6 5v1c.3-.2.6-1 .7-1.5.8-1.7 1.4-2.6 2.4-4.2l-1.3 6c.4-.1.6-.8.7-1.2l1.7-4.3c1.8 2 2.6 9.1 2.9 12.1l-1.4-4-2-3.8c-1.2.2-1.3 1.4-1.6 2.4q-.5-1-1.5-1.4-1 .1-1.1 1.6v2.6l.4 2.2.2.3.4-5.2c.8.8 2 4 2 5.5-.8 5-1.2 6.3-3.8 10.2l-2.2 2.8-.9.8c1.4-2.2 2-3 3-5.6q1-3 1.4-6.2v-1q-.4 0-.4.7c-2.3 6.9-2.6 7-6.4 13l.7-4q-.3 0-.4.5 0 .4-.3.7-.7 2.4-1.9 4.3l.5-1.4.8-4v-1c-.4 0-.4.7-.6 1.3q-.6 2-1.7 3.9v-.4q.3-1.6.2-3.2l-.1-.3q-.5.4-.5 1l-.4 1.2c-1 2.3-2 3.8-3.2 5.8-.7 0-.1 0 .2.1h-.2q.6.1.2 0l7 2.5c3.3.4 5.6.5 9 1.3.6.2 2.6.8 3 .7q-1.5-1-3.1-1.7l-3.3-1.3 9.2 1.1-.8-.6c-1.6-.7-5.6-1.7-7.3-2 3.1.1 5.3.2 8.4.6 1 0 3.3 1.2 2.3-.2-1.2-.8-4.5-1.5-5.7-1.7l5.5.6c1 0 6.1 2 4.5.4a40 40 0 0 0-6.7-2.8l2.9-1.1q3-.9 6.6-1.2c2.4-.1 4.2-.8 1-.9h-6l1.5-.6q2.3-.6 5-1 .2.1.2-.2l-.2-.1h-1c1.1-.4 3.8-.6 4.9-.7l3.7-.5q.7 0 1.1-.3l-.2-.2-7.8-.1h-2.5l6.2-1.5c.4 0 1.8-.1 2.1-.4q-.5-.2-1.3-.2-3 0-5.9.6-1 .4-2.1.4c6.8-1.7 4.2-1.3 10.6-1.6q1.1.2 1.4-.4l-3.7-.7q-1.9 0-3.5-.2l2.8-2c.7-.5.4-.7 1.7-.5.5 0 2 .3 2.4.2-1-1-1.2-.7-2-1.3l1-1.2.8-1v-.4h-.4l-2.9 2c-.5.3-.4.3-1 .2l-3.7.2a19 19 0 0 1 3.7-2l2-1c.7-.2 1.9-.5 2.1-.8l-4.4.5c-.9.2-3.2 1-3.8 1.4 2-2 5-4 7.2-5.5.3-.2 1-.4 1.1-.7l-.4-.2c-1.2.2-3.9 1.6-4.9 2l-4.6 2.8 3.2-2.7.7-.5 1.3-1 2.7-2.1 1.4-1c.4-.3 1.2-.7 1.2-1.3l-5.4 2.8-2.6 1.5c-.7.3-2 1.3-2.5 1.6a29 29 0 0 1 9.3-9.4l1.5-1v-.3c-.5 0-1.9.8-2.3 1q-3 2-5.8 4.3l-1 .9-2.4 2.7-3 4a14 14 0 0 1 4-6l3.3-3.2.6-.6c2.2-2.3 3.2-3.9 3.7-6.8l-1.7 2-.8.8-6.7 7a24 24 0 0 1 2.2-4.1l2.7-3.6c.6-.8 3.6-4.2 4.3-4.8l.3-.3q.1-.7 1-1c.5-.4.6-.6 1.3-1-.9-.5-2.8.4-3.4.7-3 1.8-5 4.1-7.2 6.7.4-1.5 2-5.6 2.9-6.8l2-2.8 1.9-2.8q-.8.2-1.3.8l-.5.5c-2.6 2.5-4.1 5.4-6 8.6.3-1.8 1.7-4.4 2.5-5.7l3.4-4.8c-.7 0-2.3 1.6-2.7 2.1a29 29 0 0 0-5.6 9.3l-.2.5a37 37 0 0 1 3.3-9q.9-1.4 2-2.5l.6-.8 1.4-1.6 1.3-1.7c-1 0-3.7 2.6-4.5 3.4l-2.1 2.8a19 19 0 0 1 5.1-8.3l.8-1a23 23 0 0 0-6.6 6l-1.3 1.9-.3.4-.2.3c.2-1.6 1.2-5 1.7-6.4l2.5-5.3c-.7 0-1.9 1.3-2.4 2l-1.5 2.7c.3-1.3 2.3-6 3-7.7q-.6.3-1 1.2l-2.8 4.3q.5-2.4 1.9-4.4c-1.3.7-3.3 4.6-4 6.2q-.4.9-.6 1.9l-.3.7q.2-5.4 1.2-10.6-.4.1-.6.7l-.3.8-.7 2-1 4c-1.4-2.4-2-6.2-4.8-11.2-1-1.6-1.3-1.8-2.5-2.9zm1.5 43.1c1.3 3.6 1.7 5 2.6 8.7l-.3.3-.5 1.5-1-3.4c-.2-1.2 0-3.4-.2-4-.3.6-.2.8-.3 1.9l-.5-1.5c-.7-2-.8-1.5-.4-2.5z"/><path fill="olive" d="M531.9 466.7v.4l.3.2q1.3 1.2 2.2 2.6 1.6 3 3.2 7.5l1.4 3.5 1-3.8.3-1 .3-1 .2-.4.2-.4v-.2q.4-.5.6-.5h.2v.1l-.3 2q-.7 5-.9 7.9l.7-2c1.5-3.9 2.7-5.6 4-6.2l.4-.1-.2.3-.4.6-1.3 3 2.3-3.7.3-.4q.5-.7.9-.8h.3l-.1.2-.6 1.3-2.2 5.2 1-1.8q1.7-2.1 2.5-2l.2.1v.2l-2.6 5.2q-1.2 3.5-1.6 5.9l.1-.3 1.4-2 .9-1.2q4.5-5.3 5.9-4.8h.2l-.1.2-.8 1-.3.3-2.4 2.9q-1.7 2.4-2.3 4.4l1.7-2.2q3.5-4 4.7-3.4l.2.1-1.5 1.8-.7.8-.7.8-.2.3-.5.5a22 22 0 0 0-5 10.4q1-2.8 3-6l2.3-2.9q2-2.6 3-2.1h.1v.2l-3.4 4.8q-1.9 3-2.4 4.9v-.1q3.3-5.6 5.6-7.9l.3-.2.3-.3.1-.2q.8-.7 1.2-.7h.2l-2 3.1-1.1 1.5-1 1.3a18 18 0 0 0-2.7 6.2q4.1-4.7 6.9-6.3t3.6-.6v.1l-1 .6q0 .3-.4.4l-.2.1q-.6.5-.7.8l-.1.2-.2.2q-1.2.9-4.3 4.8l-2.7 3.6q-1.5 2-2 3.4l6.3-6.5.5-.5.3-.3.4-.4 1.3-1.6.3.1a13 13 0 0 1-3.8 6.9l-.2.2-.4.4-3.3 3.3q-2.7 2.6-3.6 5l2.4-3.3a20 20 0 0 1 3.4-3.6q2.4-2.1 5.8-4.2 1.8-1.3 2.4-1.1h.1v.4l-.9.6-.6.6a29 29 0 0 0-9 8.8l.8-.6 1.2-.8 1-.6a45 45 0 0 1 7-3.6h.2v.1q.1.5-1 1.1l-.2.2-1.4 1a32 32 0 0 1-4 3.2l-.3.2-.4.3-.7.5-1.1 1 3-1.8.4-.1a18 18 0 0 1 4.6-2l.4.2.2.1v.1l-.9.7-.3.1a51 51 0 0 0-6.4 4.7l2.9-.8 4.6-.6v.2q-.2.4-1.6.7l-.6.2-.5.3-1.5.6-3.2 1.8h.6l2.4-.1h.2l.7-.1.1-.1 3-2h.5v.5l-.7 1v.1l-1 1.1.6.3q.7.3 1.3 1h.1l-.1.1h-1.7l-.8-.2q-.9 0-1.2.2l-.4.4-2.5 1.7 3.1.1 3.8.8v.2q0 .4-1 .4h-.5l-2.6.2q-2 0-4.2.5l4.2-.3h.2q.8 0 1.2.2h.1v.2q-.2.3-2 .4h-.3l-5.2 1.3h1.4q7-.4 8 .1l.3.3v.1q-.3.3-1 .3h-.3l-3.7.5h-.6l-3.3.5.4.2v.2l-.3.2h-.1l-1.8.3q-2.1.3-3.1.7l-1 .3h7l.3.4-.2.2q-.8.5-2.7.5-4.4.6-6.6 1.2l-2.3 1h-.2q4.2 1.4 6.3 2.7.5.4.5.7t-.6.2l-2.2-.6-2.2-.5-2-.2q1.5.5 2.3 1.1l.3.6q0 .3-.2.3l-1.2-.2-1.3-.2q-2.6-.4-6.7-.6 4.4 1 5.7 1.7l1.2 1-8.7-1.2 2.3 1 .5.2q1.8.8 2.6 1.5h.2l-.2.2q-.3.1-2.4-.4l-.6-.2a52 52 0 0 0-7-1.1l-2-.2h-.1l-7-2.5-.4-.2h-.1v-.2h.3l.8-1.2a30 30 0 0 0 2.7-5.7v-.2q.3-.9.6-1h.1v.1l.2.5-.2 2.8q1.1-2.1 1.5-3.3l.1-.4q.3-1 .7-.9v1.1q-.3 2.5-.8 4l1.2-3 .1-.3.2-.4v-.2q.2-.4.5-.4h.2l-.6 3.5.4-.7q3.3-5.3 5.5-11.7v-.1q.3-.7.6-.7h.1v1.2a31 31 0 0 1-3.7 11v-.1l.7-1q.6-.5 1.5-1.8 2.8-4.2 3.8-10.2 0-.9-.6-3l-1.2-2.1-.4 5.2-.4-.5-.4-1.8v-3.2q0-1.2.7-1.5h-.2V509q.6-3 1.6-5.1 1-1.8 2-2 .3 0 .4-.3.6-1.2 1.3-1.4 1 0 1.9 1.2l-.2-.3-.5-.8-2.1-2.8-.4-.5q-.7-1-2.8-2.6l-.2-.2q-2-1.5-2-2l-.1-.3 4.7 3.2 2 1.8.3.4.5.6-1-1.6q-2.1-3-3.9-4.8l-1-1.2-.2-.1q-.7-.9-.7-1.2l.1-.1 2.9 2.1 3.3 3.8.2.2 1 1.5.7.8-2.4-3.6-.2-.3-1.3-1.6-.1-.3-.4-.5a26 26 0 0 1-3.5-5v-.3l.2.2q.9.6 1.8 1.7l.4.4 1.1 1.5 4.2 5-.8-1.6q-1.2-2.4-2.4-4l-1-1.5-.3-.4-1.5-1.8-1.2-1.4-2.7-3h-.2q-.5-.7-.5-1v-.1h.2q1.4.9 3 2.5l.3.3 3 3.3 2.3 3.3-.6-1a27 27 0 0 0-2.7-4l-2.9-3.7-.2-.2q-.8-.9-.8-1.4v-.3l.2.2 3.6 3.8.6.6.7.9q-1.2-1.9-2.3-4.7l-2.2-2.2-.4-.4q-2.4-2.3-2-3h.3l.6.3.2.1 1 .8 1.7 1.2-.6-4.4v-1.5h.1l.1-.2.1.2 1.1 3q.8 2.4 1.7 4l.4.9 1.2 1.5.3.3.1.2-.1-.3q-2.9-5.2-3.6-7.6v-.3q-.8-2.7-.7-3v-.2l.2.1.6.9 2.4 4.1.6 1-.3-1.2q-.7-2.5-1.5-4l-.9-2v-.6zm0 .7 1 2q.7 1.7 1.4 4.1l.6 1.9h-.3l-1-1.4-2.4-4.2-.3-.6q0 .7.6 2.6v.3q.8 2.3 3.6 7.6l.5 1 .3.4-.4-.3-.8-.7-.3-.3q-.9-1-1.2-1.7l-.4-.7q-1-1.8-1.7-4.2l-1-2.6v1.1l.7 4.6v.3l-.2-.1-1.9-1.4-1-.7-.2-.2-.5-.3h-.1q0 .5 2 2.7l.4.3q2 1.9 2.2 2.4 1.3 3 2.6 5l1 1.5-.1.2-2.3-2.7-.6-.6-3.2-3.3.6.6.2.2 2.9 3.8 1.1 1.5 1.7 2.4 1.8 3.4h-.1l-.2.1q-.1-.4-1-1.5l-2.7-4-3-3.2-.3-.3-2.6-2.2.3.3.1.2q1 .9 2.8 3l1.2 1.3 1.5 1.9.3.4a38 38 0 0 1 3.4 5.5l1.3 2.5-.3-.1q-.7-.4-4.8-5.6l-1.1-1.4-.4-.4-1.4-1.5a42 42 0 0 0 3.7 5l.2.3 1.2 1.6.2.4 2.6 3.9.4 1 .4.9h-.2l-.4-.8-1.5-2-1-1.4-.2-.2q-2.3-3-3.2-3.8l-2.5-1.8.5.6.1.1 1 1.2h.1q1.8 1.8 4 4.9l1.6 2.7-.2.1-.9-1-.5-.5-.4-.4-1.8-1.8-3.9-2.6 1.5 1.3.2.2a24 24 0 0 1 5.4 6l.5.7 2 4 .2.3 1.5 5.9v.1h-.2v-.1l-1.3-4-.8-2v-.2c-1.2-3.2-2.1-4.4-3.2-4.4q-.6.2-1.1 1.2v.1l-.7.4q-.8.1-1.7 1.9a22 22 0 0 0-1.7 5.6l.4-1 .1-.3q.6-1.4 1.9-3.4l.5-.7h.2L532 510l.3-.7.1-.3 1.1-2.8.6-1.5v-.2l.2.2c1.2 1.3 2.1 4.8 2.8 11.7l.1.6h-.3l-1.3-4v-.1l-2-3.6q-.9 0-1.3 1.8v.5l-.2.2-.1-.2-.2-.3q-.6-1-1.2-1-.7-.1-1 1.4v2.6l.1.5.3 1.6.4-5 .2.1q.6.4 1.4 2.5.7 2 .7 3.1a26 26 0 0 1-5.3 12.2l-.8.9-.9.8-.2-.2.3-.4q1.7-2.8 2.6-5.2a31 31 0 0 0 1.5-7l-.2.5v.1a56 56 0 0 1-5.5 11.8l-.8 1.2h-.3l.6-3.8v.4l-.2.3-.2.4q-1 3-1.8 4.3l-.3-.1.3-1 .2-.4.8-4v-.7l-.2.6-.1.4-1.6 3.6-.2.3h-.3v-.7q.4-2 .2-2.9h.3-.2v-.1q-.3 0-.4.7v.2a18 18 0 0 1-2.8 5.7l-.7 1.2.3.1 6.6 2.4 2.2.2a51 51 0 0 1 9.4 1.8q-.7-.6-2.2-1.2l-.5-.3-3.2-1.3v-.3l8.7 1.1-.4-.3q-1.5-.8-7-2h-.2v-.3h1a107 107 0 0 1 9.9 1l-.3-.3q-1.4-1-5.6-1.7v-.2l5.4.5 2.3.5 2.5.6-.3-.4q-2.2-1.4-6.6-2.7l-.4-.1.3-.2.6-.2 2.3-1 6.6-1.1q1.9 0 2.6-.5h.1q-.4-.2-1.6-.1h-6l-.1-.3 1.5-.6q1-.4 3.3-.7l1.9-.3h-1l-.1-.3q.9-.4 4.3-.7h.5l4.7-.7q-1-.5-7.8-.2h-2.5v-.2l.9-.3 5.2-1.2h.4l1.5-.3h-1q-2.5 0-5.8.6l-.7.1-1.5.3v-.3l2.6-.7q3-.7 5.3-.8l2.7-.1h.4q.5 0 .8-.2l-3.5-.7h-1.9l-1.6-.1h-.3l3-2.2.4-.4q.4-.4 1.4-.3l.8.1 1.4.2-1-.6-1-.5 1.1-1.4.1-.1.7-1h-.3l-2.8 2h-.1q-.4.3-1 .2h-2.4l-1.2.2-.1-.3q2-1.4 3.6-2.1l1.5-.7.6-.2.7-.2.8-.3-3.7.4q-2.6.8-3.8 1.4l-.1-.2q2.5-2.5 7.2-5.5l.3-.2.6-.4h-.2q-1 0-4.5 1.8l-.3.2q-3.2 1.6-4.6 2.7l-.2-.2 2.5-2.2.8-.5.3-.3.3-.3q.3 0 .7-.5l.7-.5q1.6-1 2.6-2l1.4-1.1.3-.2.8-.6a65 65 0 0 0-6.7 3.5l-1 .6-1.2.7-1.4.9-.4.1.2-.3q2.3-3.4 3.6-4.7a49 49 0 0 1 7.2-5.7 42 42 0 0 0-7.8 5.3l-.4.3-.5.5q-1.2.9-2.5 2.7l-2.9 4-.2-.2a14 14 0 0 1 4-6l3.2-3.2.4-.4.2-.2q2.9-2.9 3.6-6.2l-1 1.2-.4.4-.3.3-.5.5-6.7 7-.2-.2q.4-1.5 2.2-4.1a70 70 0 0 1 7-8.5l.2-.1v-.1q.2-.4.9-1h.2l.4-.4.7-.5q-.7-.5-3 .9a31 31 0 0 0-7 6.4l-.2.2-.2-.2q.7-3.8 2.8-6.8l1-1.3 1-1.5 1.7-2.5-.6.6-.2.1-.2.3-.3.2a37 37 0 0 0-5.5 7.9l-.4.7-.3-.1q.3-2.2 2.5-5.8l2-2.8 1.3-1.8q-.8 0-2.4 2.1a29 29 0 0 0-5.6 9.3l-.2.5-.2-.1A23 23 0 0 1 550 487l.2-.3.7-.8.7-.8 1.2-1.5q-1-.1-4.2 3.4l-2.1 2.8-.3-.1q.5-2.4 2.6-5.3l2.4-3 .2-.1.7-.9q-1.4.1-5.4 4.8l-.8 1.2h-.1l-1.3 2-.2.4-.6.7v-.5a36 36 0 0 1 3.3-9.7l1-1.9q-.8.1-2.1 2l-1.6 2.7-.2-.1q.1-1.2 2.4-6.4l.4-.9-.4.5-.2.4-2.8 4.3-.2-.1q.1-1.4 1.5-3.8l.1-.3q-1.5 1-3.5 6l-.6 1.9-.3.7-.2-.1q0-3 .8-8.7l.3-1.6-.2.3v.2l-.2.4-.2.4-.4 1-.3.9-1 4.4-.2-.3q-.7-1-1.6-3.8a42 42 0 0 0-3.2-7.5 12 12 0 0 0-2.2-2.5m-1.7 42.6h.4q.8 0 1.4 1.2v-.2q.7-2 1.7-2l2.1 3.8 1 2.6q-1-8.6-2.5-10.4l-.5 1.3-1.1 2.8-.1.3q-.4 1-.8 1h-.2l1.2-5.3-2 3.4v.3zm3.3 0 .4 1.4q1.4 4 2.2 7.4l-.1.1-.3.3-.2.4q0 .7-.3 1l-.2.3-1-3.7v-3.6q-.3.4-.2.8v1l-.3-.2-.5-1.2v-.3l-.5-1.2q-.3-.7 0-1.2v-.3l.2-.1q.3-.8.6-1zm-.2.3-.4.7v.2l-.2.2v1l.5 1.2.1.4.2.6v-.2q0-.7.3-1.2l.1-.2.1.2q.3.3.2 1.8v2.2l.9 3 .2-.7.2-.5.3-.3-2.2-7.2zm6.3-2.8-.5-2.2-.2-.4-1-2.3-.4-.5 1.2 2.7v.3l.8 2z"/><path fill="#008f4c" d="M542.4 505.5c.7-5 6-14.7 8-15.2 0 .1-1.9 2.8-3.5 5.8a75 75 0 0 0-4.6 11.8zm12.6-1.1c-.1 0-1 1-2.4 2a48 48 0 0 0-11.8 15.6c-2.5 6-1.9 4.4-1.1 1.5a38 38 0 0 1 11.9-17.3c1.8-1.3 3.2-2 3.4-1.8m-14.5-13c0-4.3.4-5.7 2.8-10.6 1.6-3.2 2-4 2.3-3.9q.2.5-.3 1.4a65 65 0 0 0-4.7 16.1l-.2-3m-6.8 23.4q.3 5.2-1.8 10.9c-1 2.3-4.3 6.7-5.2 7.3-.4 0-.3-.1.6-1.1 3.7-4 6-9.9 6.1-16q-.1-5 .3-1"/><path fill="#008f4c" d="M544.1 512.3a18 18 0 0 1 0 7 11 11 0 0 1-10.5 8.2l1.5-.6q8.6-3.2 9-12.7l-.2-2q-.2-.7 0-.9z"/><path fill="#008f4c" d="m556.3 523.7-5.4.2c-2.9 0-6.6.3-8.3.4-2.5.1-3 .1-3.2-.1l-.1-.4s7.8-.4 12.2-.4q5 0 4.7.3m-22.7-53.5a17 17 0 0 1 3.2 7.6c.6 2.7.8 3.4.6 3.4q-.3 0-.4-1a62 62 0 0 0-4.7-11.6z"/><path fill="#008f4c" d="M531.5 472.7c.9 3 1.4 4 4 7.2 1.8 2.2 2.3 2.8 2.4 2.6l-.5-.9a64 64 0 0 1-6.4-11zM548 484c-3 2.7-7.3 10-7 11.9q.5-.1 2.7-4.1a59 59 0 0 1 5.9-8.8zm1.4 2.5c-3.5 3-8.3 11.2-7.9 13.2q.5 0 3-4.6a68 68 0 0 1 6.6-9.8q-.3 0-1.7 1.2m-18.9-11.9c.6 3 1 4 3.3 7.7q2.1 3.3 2 2.8.1-.2-.3-.9a64 64 0 0 1-5.2-11.6z"/><path fill="#008f4c" d="M528.4 476.4c2.1 2.4 3 3 6.6 4.8 2.4 1.2 3 1.4 3.1 1.3q0-.4-.8-.7a59 59 0 0 1-10.1-7zm26.6 18.2c-4.7 2.9-12 12-11.8 14.5q.6-.1 4.4-5a75 75 0 0 1 9.7-10.6zm-.7 6.6c-2.3 4-9.1 10-11 9.7a17 17 0 0 1 3.8-3.6 61 61 0 0 0 8-8zM528 525c-1 4.1-5.4 11-7 11.4q0-.4 2.3-4.2a59 59 0 0 0 5-9.2zm12.2-22q-1.4-4-6-9.2c-3-3.2-4-3.9-1.3-.8a51 51 0 0 1 7.7 12.2s0-1-.4-2.1m2.3 32.4a30 30 0 0 0-13-1.8q.5.3 4.7.8a73 73 0 0 1 10 2zm-3.8 1c-3.8-1.3-11.8-2-12.9-1.2l4.6.6a68 68 0 0 1 10 1.4zm-3.8 1.3c-4-1.3-11.8-1.8-13-1q.5.3 4.7.5a70 70 0 0 1 10 1.2zm-2.3 1.9c-3.4-1.6-10.2-2.7-11.3-2q.3.2 4 .9a54 54 0 0 1 8.7 2z"/><path fill="#008f4c" d="M546.3 530.7c-7.6 1-15.6 1.1-16.5 2.7.2.2 3 .2 6.4-.6a73 73 0 0 1 12.5-2.1s-1.2.2-2.4 0m9.4-3.3-6.4.3c-3.4 0-7.8.2-9.8.4-3 .2-3.6.2-3.8-.1l-.2-.5 14.6-.5q5.9 0 5.6.4"/><path fill="#008f4c" d="m553.5 525.1-5.3.8-8 1.3c-2.5.4-3 .4-3.2.2l-.2-.4 12-1.6q4.8-.6 4.7-.3"/><path fill="#008f4c" d="M551.7 516.1c-5.3 1.7-14.6 8.7-14.8 11q.6.1 5.5-3.7a74 74 0 0 1 11.8-7.8z"/><path fill="#008f4c" d="M555.4 519.1c-5.4-.2-15.8 3.1-16.6 5.2.2.2 2.5-.3 6-1.6a69 69 0 0 1 13.1-3.2z"/><path fill="#008f4c" d="M555.2 519.7c-12.9 9.2-19.7 13.2-22.4 11.8 0-.2 4.4-2.3 9-4.6a85 85 0 0 0 15.3-10c0 .1-.8 1.4-1.9 2.8m-13.6 1.4c2.6-4 3.8-4.9 9.3-7.7 3.6-1.8 4.6-2.2 4.8-1.9q-.1.5-1.1 1a63 63 0 0 0-14.5 11.3q0-.3 1.5-2.7M543 509c.7-5.1 8.3-19 10.1-19.5 0 0-1.8 2.7-3.4 5.8s-3 6.8-3.6 8.7q-1.3 4.2-3.5 8.2zm-3.4-19c-1.3-3.5-1.4-4.6-.4-9.1.7-3 .9-3.7 1.2-3.6q.2.3 0 1.1a42 42 0 0 0 .3 13.9q-.3-.2-1-2.3m2.4 18q-1.3-3.8-5.5-8.4c-2.7-3-3.5-3.5-1.1-.7a46 46 0 0 1 7 11zm-12.3 1.9c2.7-8.8 4.4-7.2 4.5-7 5.2 6.6 2.9 23.6 2.8 24-.3-37.3-7.3-17.2-7.3-17"/><path fill="#008f4c" d="M531.8 509.4c2.6-8.9 3.2-8.4 3.2-8.4 4.4 2.5 4.3 21.5 4.3 22-2.2-35.2-7.4-13.7-7.5-13.6m-2.4 6.9c0-6.7 1.1-5.6 1.2-5.5a46 46 0 0 1 5 17c-5.8-26.9-6.2-11.6-6.2-11.5m11.2-18a39 39 0 0 0-8.5-13c-4.3-4.6-5.6-5.5-1.8-1.2a69 69 0 0 1 10.9 17.3z"/><path fill="#008f4c" d="M540.2 495.2a30 30 0 0 0-6.5-10.1c-3.4-3.5-4.3-4.2-1.4-.9a55 55 0 0 1 8.4 13.3q.1-.2-.5-2.3M522 529.3c-.4 2.3-2.3 5.8-3 6.1q-.2-.2 1-2.2a30 30 0 0 0 2-4.9zm-1.8 1c-.4 2.1-2.3 5.7-3 6q-.2-.2 1-2.2a32 32 0 0 0 2-5zm2.7.6c-.4 2.2-2.3 5.8-3 6l1-2.1a34 34 0 0 0 2.1-5z"/><path fill="#00873f" d="M455.7 469.4c0 1 .2 1.3.7 2v-2z"/><path fill="#006300" d="m452.7 483.8-.9-.8.4-.5 1 .9zm1-5.6-.7-1h.1v-.7q.3 0 1 1.4zm-2.8 12.8q-.3-2.1-1.3-2.9l.3-.5q1.4 1 1.7 3.4zm10.5 31q-5.7-7.3-7.6-19.3v-.1q2-4.6 4.5-5.5l.2.6c-1.5.7-2.8 2.1-4 5.1 1.3 8 3.7 14 7.4 18.9z"/><path fill="#006300" d="M453.8 502.7a57 57 0 0 1 2.2-33.2l.7.3q-3 8-3.6 17.5-.5 7.7 1.3 15.3z"/><path fill="#006300" d="M452.3 489.7c.8-3 2-4.5 4.4-5.3q1.8-.5 3.2 0v.7q-1.4-.4-3 0c-2 .7-3.2 2-4 4.9z"/><path fill="#006300" d="M452.5 490.8q3.6-1 4.7-5.8l.5-1.9q1.5-2.7 2.5-3.4l.4.6q-.9.7-2.3 3.2l-.5 1.7c-.9 3.6-2.3 5.3-5 6.3zm4.9 24.2c-1.2-3.6-1-5.1.5-5.8l.2.7c-1.1.5-1.2 1.8 0 5z"/><path fill="#006300" d="M456.7 513.5q-2.1-3-4.7-3.3l-.1-.7q3 .3 5.4 3.7zm-1-14.3q1.2-2.3 0-4.8l.5-.3q1.5 3 .1 5.5z"/><path fill="#006300" d="m456.4 512-4-5.8.6-.4 4 6zm-1.6-38.5q.4-1.8-1-2.8l.4-.5q1.7 1.3 1.2 3.6z"/><path fill="red" d="M454.2 469.8q0 1-1 .9-1-.2-1-1.1t1-1q1 .3 1 1.2"/><path fill="#006300" d="M454.4 469.9q0 .4-.4.8l-.8.2q-.4 0-.8-.5-.3-.4-.3-.9t.3-.7.8-.3q.6 0 .8.5.4.4.4.9m-.4 0-.2-.7-.6-.3-.6.1-.2.6q0 .4.2.6l.6.3.6-.1q.3-.2.2-.6"/><path fill="red" d="M456.9 493.5q-.2 1-1 1-1-.2-1-1.3 0-1 1-1 .8.2 1 1.3"/><path fill="#006300" d="M457 493.5q0 .6-.3.9-.4.3-.8.3t-.8-.5-.4-1 .4-1 .8-.2q.4 0 .8.5.3.4.3 1m-.3 0q0-.5-.3-.8l-.5-.4q-.4 0-.6.2t-.2.7.2.7l.6.4q.3 0 .5-.2t.3-.7"/><path fill="red" d="M456 496q-.2 1-1 .9-1-.3-1-1.2 0-1 1-.8.8.1 1 1.1"/><path fill="#006300" d="M456 496q0 .6-.3.8l-.8.2q-.4 0-.8-.4l-.3-.9q0-.5.3-.8l.8-.2q.4 0 .9.5.3.3.3.8m-.3 0-.3-.6-.6-.4-.5.2q-.3.1-.3.6l.3.6q.2.3.5.3l.6-.1z"/><path fill="red" d="M453.2 505.2q0 1-1 1-1-.3-1.1-1.3 0-1 1-.9 1 .2 1.1 1.2"/><path fill="#006300" d="M453.4 505.3q0 .5-.4.8l-.8.2q-.6 0-1-.5-.3-.4-.3-.9t.4-.8.9-.3.8.5.4 1m-.3 0a1 1 0 0 0-1-1.1l-.6.1-.2.7a1 1 0 0 0 .9 1l.6-.2q.3-.2.2-.6"/><path fill="red" d="M452 509.6q-.2 1-1.1.9-1-.3-1.1-1.3 0-1 1-.9 1 .2 1.1 1.2"/><path fill="#006300" d="M452 509.6q0 .5-.3.8a1 1 0 0 1-.9.3l-.8-.5-.4-1q0-.6.4-.8.3-.3.8-.3t1 .5.3 1m-.4 0-.2-.8-.7-.3-.6.2-.2.6.2.6q.3.4.6.4.4 0 .7-.2z"/><path fill="red" d="M453.5 511.5q0 1-1 1-1-.4-1-1.3t1-1q1 .3 1 1.3"/><path fill="#006300" d="M453.7 511.6q0 .5-.4.8l-.8.2q-.5 0-.9-.5t-.4-1 .4-.8q.4-.2.9-.2t.8.5q.4.4.4 1m-.4-.1a1 1 0 0 0-.8-1l-.7.1-.2.6q0 .4.2.7l.7.4.6-.2q.3-.2.2-.6"/><path fill="red" d="M473.2 523.7q0 .7-.8.7a1 1 0 0 1-.8-1q.1-.6.8-.6.8.1.8 1"/><path fill="#006300" d="M473.3 523.7q0 .5-.3.6-.2.3-.6.2a1 1 0 0 1-.9-1q0-.4.3-.7t.6-.1.7.3zm-.3 0-.1-.5-.5-.3-.6.6.2.5.4.3.5-.2z"/><path fill="red" d="M474.3 525.2q0 .7-.8.7a1 1 0 0 1-.7-1q0-.6.7-.6.8.2.8 1"/><path fill="#006300" d="m474.4 525.3-.2.6q-.2.3-.7.1l-.6-.3-.3-.7q0-.4.3-.6t.6-.2.7.4.2.6m-.2 0-.2-.5-.5-.2h-.4l-.2.5q0 .3.2.5t.4.3l.5-.1zm-17.8-27.4q-.2-.9-1-1.2l.3-.6q1 .5 1.3 1.8z"/><path fill="#006300" d="M471.2 524.4q1 .8 1.5.8h.2l.6.4q-.3.3-.7.3-.9 0-2-1z"/><path fill="#006300" d="M473.1 528.6c-1-4-.8-4.7-.8-4.7zm-8.7-8.1c-.1-.1-.6-1.4.3-2.3.8-.2 3 1.3 4.5-4.2 0 0-.8-.2-2.6.4v-.5s-.4-1.3-.3-3c0 0 .9-1.2 1-1.8-.2 0-1.6-.7-5 3 0-.1-.2-1-2.6-3 0 .1-1 3.4-.6 5.7.5 1.7.5 2.2 2.2 3.7 0 0 1.2.8 1.6 2.7l1.4.1zm-2.4 4c-.5.2-.7.4-1.6.4-4.3-.7-6.4-5.6-6.5-6-.1-1.1.3-.6 1.2 0 1.2.5 1.5.3 2.7.3 1.8.2 3.5 2 3.6 2a6 6 0 0 1 1.2 3q-.4.4-.6.3m-4.9-11c-4.6-2.3-6.8-.8-7-.7l.3.4c2.7.8 2 .5 3 2.3 2.2 2.9 5.2 3 5.4 3l1.4 1.2c-.5-2.5-3-6-3.1-6.1m-7.5-18.8c-.9-.6-.7.4-.7.5a11 11 0 0 0-6.5-4.4l-.7-.4c-.7 0 .2 1.5.2 1.6 1.6 4.1 2.8 4.7 2.8 4.8-1.8.4-4-1.6-3.6-.2a13 13 0 0 0 4.2 3.7c3.3 1.2 4.5.7 4.6.7.8 1.5 1.2 1.7 1.2 1.7 2.9 1.5 3.5 3 3.5 3.1 0-3.2-1.2-7.3-1.2-7.4-1-1.5-3.8-3.7-3.8-3.7"/><path fill="#006300" d="M472 529.5c-1.6.4-1.7 1.3-1.7 1.4-2 1.5-6.6-.8-7-1-1.6-.7-1.4-1-1.3-1.1q2.1-1 2-1.1a15 15 0 0 1-3.3-6.6c4.5-.2 5.8.7 5.9.8-.5-1.8-1.7-2-1.8-2-.3-.7.4-.6.4-.6 4 1.2 6 3.7 6 3.8a7 7 0 0 1 1.1 4.4c.3 2.2-.3 2-.4 2m-18.3-21.3c-2.3-1-3.4-.5-3.5-.4-1.2 0-3-1.3-3.2-1.4-2.7-2.8-3.2-4.2-3.2-4.2.2-.4 2.2 0 2.4 0 3.2.4 3.8 1.1 3.9 1.1 1.6 1.3 1.5 2 2 2.5l1.7 1.5q.8 1.1-.1.9m4.2 1.8c1.7-1.4 3.4-.2 3.5 0 3.3.4 4.1-2.4 4.2-2.7l1.3-2c0-.8-1.3-.4-1.4-.3-2.7.3-2.8.5-2.8.5l.5-4.3c0-.6-.7-.3-.8-.3-3.8 1.9-4.2 3.2-4.3 3.3l-1.6-3.3c-.5-1.2-.8 0-.8 0-.7 3.7-.5 4-.5 4l1 2.7c1 1.4 1 1.8 1 1.8z"/><path fill="#006300" d="M480.5 523.6c-.6.3-2.1 2.3-2.2 2.4-2.1-4-4.4-5-4.5-5-.4.3 0 1 0 1.1.7 2.2 0 3.4 0 3.5-.3 1.4 0 1.8 0 1.8-3-2-3.2-2-3.3-2 .2 2.1 2.3 6 2.3 6.2 5.1-.6 5.5-.5 5.5-.5h1.9c1.3-4.4.4-7.4.3-7.5m-24.9-24.2c2 1.3 2.1 2.5 2.1 2.6 1 1.7 4.8 2.8 5.1 2.8 3.7.1 3.4-.5 3.4-.5-2.2-2.3-1.6-2-2.5-3.1-1.7-1.8-3.7-2.2-3.7-2.3-3 0-3.5-.6-3.5-.6-1 .5-.9 1-.9 1m-4.4-7.3a11 11 0 0 1 2.2-7.4c2.4 5.3 2 6.4 2 6.5-1 3-2.1 5.3-2.1 5.3-.6-2.5-1.6-3.1-2-4.4"/><path fill="#006300" d="M449.6 493c-3.3-.7-6.1-4.3-6.3-4.5 4.9-.5 5.8.3 5.9.3 2.6 2 4.4 3.9 4.4 4-2.2-.4-2.8.3-4 .3m-2.5-5c-2-.2-3.7-2.2-3.8-2.3-2.6-4.2-1.9-5.1-1.8-5.2q.5.2.5.4c1 .9 2.4 1.3 2.5 1.3-4-4-1.7-8.7-1.5-9.2.6-.4.7 1 .7 1a8 8 0 0 0 2.3 3c.9 1.4.9 1.9.9 1.9.5-2 1-1.5 1-1.4.6 1.7 2.2 3.2 2.6 4.4.5 3.2.1 3.5 0 3.5q-.4 2.9-.3 3.2c-1.7-.9-3-.6-3-.6m10.2 9c.9-1.5 0-4 0-4.1 0-3 3.5-5 3.8-5a9 9 0 0 1 1.1 3.8l4-.4c0 2-1.6 4.2-1.6 4.3 2.7 1 3.4.1 3.5 0-1.9 5.6-6.4 4-6.9 3.8a13 13 0 0 0-3.9-2.4"/><path fill="#006300" d="M448.6 478.3c.4-3.6 1-3.6 1-3.6.3.3.6 1.8 1 2.1a5 5 0 0 1 2.3 3.8c-.1 3-.5 2.6-.5 2.6-3-1-3.7-4.6-3.8-4.9m10.3 2.2c1-4 .4-4.4.4-4.4-.5 0-1.4 1.3-2 1.4-2.9.1-3.7 2.2-3.8 2.4-1 3-.5 3-.5 3 3.6 1.4 5.3-.8 5.9-2.4"/><path fill="#006300" d="M448.8 471.5c.4-4.1 1-4.2 1-4.2.4.3.8 2 1.3 2.5 2.6 1.9 2.6 4.3 2.6 4.5-.1 3.3-.5 3-.5 3-3.7-1-4.5-4-4.4-5.8m11.5 2.8c1.1-4 .6-4.4.5-4.5-.4.1-1.3 1.3-2 1.4-2.9 0-3.7 2-3.8 2.3-1.1 3-.6 3-.6 3 3.6 1.5 5.3-.7 5.9-2.2m4.8 12c3.2-2 3-2.7 3-2.8-.5-.2-2 .1-2.6-.2-2.6-1.8-4.6-.9-4.8-.8-2.7 1.5-2.2 1.8-2.2 1.8 2.3 3.3 5.1 2.8 6.5 2"/><path fill="#006300" d="M465 488.6c3-1 3-1.6 3-1.6-.4-.3-1.7-.3-2.2-.7-1.9-1.7-3.7-1.4-3.9-1.3-2.5.6-2.2.9-2.2 1a4.5 4.5 0 0 0 5.2 2.6m-10.7-21c-.9-4.3 2.2-8.2 2.5-8.5l1.2 4.4c3.1-2.6 5.5-2.7 5.6-2.7l-.1 2.3q2.9 0 2.8-.2c-.7 3-4 5.4-4.1 5.5a5 5 0 0 1-3.2.1c-2.7.6-3.3 2-3.3 2.2-.4-1.7-.4-.1-1.5-3.2m5.5 13.6c2-1.9 4.2-.8 4.4-.7 2.5.3 4.3-1.5 4.4-1.7 1.2-1.6 1.8-2 1.8-2q-.4-.8-.7-.6l-1.4.2c1-4 .5-4.2.5-4.3l-.6.2c-1 1.8-3 1.4-3.2 1.4-.2-2.8-.7-2.5-.8-2.5l-1.2.9c-2.6 2.3-2.6 3.3-2.6 3.3 0 3.2-.6 5.7-.6 5.8"/><path fill="#00863d" d="M459.1 496q.7-.6 1.7-1c.6-.3.4-.2.7-.8s.2-.4.6-.8l-.4 1.1 1.7-.7q-.1.4-1 .8l-1.4.6-2.2 1.7c2.1-.2 1.7 0 2.8 0 2.3-.3 3.3-3 4.2-5q-2.5.1-4.4.8c-1.4 1-1.4 1.7-2.3 3.4m-5.8 7.5-.8-1.5-1.5-3c-.5-.9-.3-.4-.6-1.4.3.2.7 1 1 1.5V498q.4 0 .3.8c0 1.3 0 1 .7 2.7l1.7 3-.5-1.4c-.3-2 .5-3.6-3.6-7l-1-.9c0 2.4.3 5.5 2.2 7.2l1 .6zm-1-27.2-.5-1.8c-.2-.6 0-.4-.5-.8l-.5-.7.7.5-.5-1.1-.7-1c.8.2 1.5 2.2 1.7 3 .5 1.7.5 1.5 1.5 3l-.5-1c-.1-1 .6-2.1-.2-4.3-.7-1.3-1.8-1.8-2.4-2.8l-.5-1.2-.6 2.2q-.1 2.6 1.3 4.7zm5.4-10c.2 0 .7-.6 1-.8l1-.8-.1-1q.1-.2.3.7l1.2-1.5c.1.3-.4 1-.6 1.4l-1 1-2 2.2 1.2-.2c1.3 0 1.7-.1 2.7-1.4.8-1.4 1-3 1.4-4.6-2 .5-3.7 1-4.8 2.6-.3.7-.2 1.2-.3 2.5M446 482.8c-.6-1.5-2-3.4-2.1-4.1l-.3-1.7q.3 0 .3.2s0 1 .2 1.3l.6 1.3c0-.8 0-.5.3-1.1.2.5-.2 1 .2 2l1 1.6c0-1.3.6-2.7-.6-4.7q-.7-.9-1.5-1.5l-1-2c-.9 2.1-.7 5.4 1 7.2l1 .7.4.4zm8.4-6.3c.7-.5.5-.8 2.3-1.9l1-1 1.1-1c0 .4-.9 1.4-1.3 1.8l.7.2c-.1.4-.5 0-1 .1-.6.2-1.9 1.4-2.3 1.8l1-.2c1.2 0 1.7.3 3-1 1-1.2 1.3-2.6 1.8-4.1q-2.6.2-4.2 1.3c-1.1 1-1 2-1.5 3zm-5.8 10.7-1-1.1c-.7-.5-.8-.5-1.6-.7l-2.5-1.8q.4-.1 1 .7l1.2.6-.1-.6q.2 0 .3.3v.4c1.2.3 1 .3 2.2 1.2-.2-.5-.2-.5-.6-.8l-.5-.8c-.4-.6 0 .2-.6-.8-1-1.6-2-1.2-2.7-1.4l-1.8-1a9 9 0 0 0 2.1 4.2q.7.8 1.9 1.4zm-1 9.4-1.2-1.1q-.4-.4-.9-.4l-.8-.4 1 .1q-.3-.1-.5-.4c-.6-.6-.7-.6-1.2-1.3q.2-.2.6.3l2.8 2.7 1.4 1a9 9 0 0 0-2.3-4l-4.5-1.9 1.8 3.8c1.4 2 1.5 1.5 2.4 1.5zm2.2-10-1.7-6q.3.2.5 1.2l.4 1.3.4-.8q.2.5-.1 1c-.2.6-.2.4 0 1l.8 2.3.1-1.2a5 5 0 0 0-.2-3.6q-1-2-2.3-3.6l-.5 2.3c-.2 1.5 0 3.3 1 4.5zm3.3 8v-5.4c0-.5 0-.3.2-.6l.1.5v2l.5-1c.3.3 0 .5-.1.8l-.4 1v2.7l.5-1q1-1.4 1-3.4l-1.5-4.5-1 1.8-.6 2.3c-.2 2 .2 2.5.8 3.6zm2.4-25.3.2-3.4-.3-.5-.2-1.1q.3.1.4.7l.2.2v-.7c0-.6 0-.3.2-.8.2.2.1 0 .1.3v.4l-.3 5.4.4-1q1-1.6 1.1-3.4l-1-5.3-1 1.9a8 8 0 0 0-.8 5l.9 2zM442 497l1.3 1.5c1 .8 2.8 1.8 3.9 2l2.2-.1-.3-1.1h-1.3l-1.3-.3-1.3-.5c-.8-.2-.5 0-1.1-.6l2.4.7c-.7-.5-.4-.3-.9-1 .4.1 1 .8 1.4 1.1l2 .2-.1-1.3a6 6 0 0 0-3.6-.5c-2 .4-1.3.4-3.3-.1m2.7 5.8c.2.5 2.2 3.1 2.7 3.5l4.7.9-2-1.2c-1-.5-1-.4-2.4-.4q0-.4 1-.3l-1.7-.9-.2-.3h.2l.4.2c2.2 1 2.8 1.4 4.9 2.6-.7-.6-.8-.8-1.4-1.6-2-2.6-3.7-2.3-6.2-2.5m16.3-24.4.7-1.3c.3-.7-.1-.8 0-1.8.3.1.3.1.4 1l.9-1.9c0 .8-1.1 3-1.5 3.7l-.4 1.3c1.2-1.1 2.4-1.6 2.7-2.6l.2-5.1q-1.6 1-2.5 2.3c-.8 1.3-.7 2.4-.5 4.4m-2.2 30.1 1.2-.4c1.9-.2 1.2.5 2.3-1l-.3.9c.9-.2 1-.6 1.7-1.2q0 .6-.6 1c-1 .8-2 .4-2.7.5l-1.2.5c1.4 0 1.3.2 2.4.6 2.4.4 3-1.5 3.8-3l.6-.9q-2.3.2-4 1c-.8.3-1 .5-1.6 1l-.7.5z"/><path fill="#00863d" d="M458.6 495.7c.7-.8.7-2.5 1.2-3.6l.4-.5q.1-.2.4-.2-.1.4-.5.8l-.4 1.2h.2v-.2q1-1 2-1.3l-.8-3.2-1.5 1-1.2 1.4c-.9 1.8 0 2.8.2 4.6m-.5 12.5 2-3v-1.5c.3 0 .2 0 .4 1 .6-1 .2-.9.9-1.3 0 .4-.7 1.7-.9 1.8l-1.9 3c.5-.2 1-.8 1.4-1l.8-.5.8-.4.8-4.5c-.8.2-2.6 1.3-3.3 2-1.2 1.4-1.3 1.8-1 4.4m4.4-10.8 2.5.2q-.1.4-1.1.3c-1.2 0-3.3-.4-4.5-.5l1 .7 1 .7q1.4.7 2.7.5l3.3-2.7c-1.7.2-.8.4-3.1-.5l-1.3 1zm-18-8.9c1 1.8 2.8 3.5 4.7 3.8.9 0 1-.2 1.5-.7l-.1-.1-.2-.1c-1.4-.5-1.6-.4-3-.5l.6-.2-1.2-.5-1-.6h.5c2 .9 2.3 1 4.4 1.6-.3-.7-1.7-1.6-2.7-2-1.4-.3-1.8.2-3.4-.7m12.3 19-.6-4.2c.3.1.2.2.4 1.1l.7 3.9c.1-1.4.5-2.4.1-4l-1.4-3c-.3.7-.5 2.5-.4 3.4a4 4 0 0 0 1 2.5q0 .2.2.3m5.5-41.7q.3-.1.6-.5l.6-.4q-.2.5-.8 1.1l-1 .9c-1 1-.9.9-2.3 1.3 3.1.3 4.5-2.2 6-4.4-2.9 0-2.4.2-2.7 1zm1 13.3.9-1.3c.5-.6.7-.1 1.5-.7-.1-.3-.1-.2-1 0l1.4-1.7c-.7.2-2.3 2.4-2.8 3l-1 1c.6-1.7.5-3.2 1.3-4l4.6-2.2c-.2 1.2-.7 2.7-1.2 3.6-.8 1.4-1.8 1.8-3.7 2.3m-11.4 3.8c-.2-.8-1-1.7-1.3-2.2l-.6-2.8q.4.4.4 1.2l.4 1.2c.2-.8-.2-.3.3-1 .2.5-.2 1.2 0 1.8l1 1.4q.6-2-.4-3.8l-2.1-2.7c-.5.9-.5 2.9-.1 4.2s.8 1.6 1.7 2.1zm1.9 0c.6-.6 1.7-1 2-1.3l1.8-2.4q-.7.2-.9.8l-.8 1c.1-1 .3-.1 0-1.2-.4.4-.2 1.4-.7 1.8l-1.4.8q.2-2.5 1.8-3.6l3-1.2a7 7 0 0 1-1.3 4.3c-1 1-1.5 1-2.5 1zm5.6 1.1c.8.1 3 .4 3.7.2l1-.3c0 .2 0 0-.4.4 1 0 .5 0 1.4.3H462l-3.4-.2c2.2 1.2 2.5 2.3 5 1.8 2-.5 2.3-1.1 3.5-2.5-3 0-3.3-2.1-6.3-.8z"/><path fill="#00863d" d="M463.5 486.6c.8.2.5 0 1.1.4-.4.2-1.6-.2-2.1-.3l-2.2-.3q1 1.6 3.5 1.8c1.6 0 2-.3 3.3-1l-2.4-1.1zm-1 14.3-1-.8c-1.4-.7-2.4-.4-3.1-.5l-1.6-.4c.5.5 2 1.4 3 1.7 2 .7.7 1 2.8 0m.2 1.6.6.7-.6-.3-.1 1.4h2.8l-2.5-3zm-3.7.3 1.7-1q-.7-.6-1.8-.9l-1.6-.9.8 1.4q.4.8 1 1.4m8.2-24.7-2 1.2c-1.3.2-2.3-.3-3.1.3 2 .2 3 1 4.6-.1q1.3-1.3 2.4-2.9c-.3 0-1.2.1-1.4.3l-.4.6c-.3.4-.1 0 0 .6m-6.3 43.1 1.3 3.1 2 2.7 1.2-.5 1.6-.4c-.9-.5-1-.9-1.4-1-1.2-.3-.5 0-2-.5 0-.2 0-.1.8 0l1 .1-2-1.7 2.1 1.4V523c.4.2.2.8.4 1.7q.3.5 1 1.1l1.7.7 1.6.8c-.7-1-.3 0-1.5-2.5q-.5-1.4-1.6-2.2c-2-1.4-4-1.1-6.2-1.4m2.3-2.4v-3.4l-.3-2.8q.3 0 .3.6l.2.8c.3-1.2.3-1.2 1-2 0 .4-.6 1.2-.8 2.6l-.1 3.4.3-.4.3-.3.6-.8c1.5-2.4.7-3.8.7-4.6l.4-2.4c-.5.1-1.8 1-2.1 1.2-1.3 1.3-2.3 3-1.7 5.2l.6 1.4z"/><path fill="#00863d" d="M462.6 528.5c.3.2 1.8 1 2.2 1 1.7.8 3.6 1.2 4.8 0l1.6-1.2q-1.4 0-2.7.2c-.8.1-.8.5-1.4 1l-.5.3c0-.3.6-.9 1-1.2l-2.2-.4c.2-.3.6 0 1.6 0 1.9 0 2.2-.3 4.2-.3h.4c-3-.7-3.6-2.4-7.3-.6zm13.7.1v-1.5c-.6-.6-.6-.8-1-1.6l1 1.1c0-.7-.4-2-.5-2.8.3.2.5 1 .6 1.5.3 1.9.1 3.2.3 3.8l.9 1.3c.4-1.2 1.4-1.8 0-5.1-1-2-1.6-2.4-3.1-3.9.2 1 .3 1.2.2 2.3l-.4 2c-.2 1.6.2 1.5.6 1.8zm-14.8-5.1-.4-1.1c-1.3-.1-1.6.2-3.4-1.2-.5-.4-.4-.3-.7-.9l2 1.4-.8-1.3q0-.2.2 0l.2.2 1 1.4h1.2l-.3-.8c-.2-.5-.1-.5-.4-.9q-.7-.5-1.7-.9-1-.2-2 0l-2-.8 1 2.2c1 1.4 3 3.2 5 3zm-10.3-11 .2.2q.8.4 1.5 1.2c.5.6.6 1 1.3 1.7 1.3 1.2 2.6 1.4 4.3 1.9l-.8-1c-1.3-1.7-1-1.6-2-1.6l-1.3-.1q.3-.3 1.5-.3l-.9-.4-1-.4c.5-.3 2 .4 3 1.4l2 2.5-1-2.2a7 7 0 0 0-6.8-2.9m11.7 6.6c-.8-2.3-1.8-3.5-2.2-4.9-.2-1-.1-1 0-1.8.4.7-.2 1 1 3.4-.1-.7-.3-1-.1-2l.4-1.6c-.1-.4-1.6-2-2-2.6-.3 2-.7 3.6-.2 5.7.8 2.1 1.7 1.9 3 3.9m10.6 11.7 1.4-.1-1-1.3c-.5-1-.5-1-.2-1.5v.2l.2.7 1.4 1.8v-1.4q.3-.1.2.2l.1 1.2 1.5-.2c-1.1-2-3-3-4.8-4l.5 2.3zm-2.4-4.4-.7-1.5c-.5-1.2-.5-1.6-1.5-2.9l-.5-.6-.4-.4v-.2c.4.1 1 .9 1.3 1.2.5.7 2 3.8 2.4 4.9l-.1-1.4c.2-1.2-.7-3-1.3-3.5l-4.3-2.6q.7.6 1.2 1.7c.3.7.3.2 1.5 1.6 1.1 1.6 1.2 3 2.4 3.7"/><path fill="#00863d" d="m478.9 527.7.2-.6c.1-.4 0-.2.4-.5q.1.3-.2 1l-.9 2.9c1 0 1 0 1.4-.7l.5-1.6-.1-4.2-1.3 1.5c-.6.8-.3.4 0 2.2m-13-11.4 1.3-1.2c.1.4-.6 1-.8 1.2-.7.6-.3 0-1.2 1 2 .3 2.6-1.7 3.2-3l-1.8.3q-.2 0-.2.3t-.2.5z"/><path fill="#ce1126" d="m483.2 542.7 2.3 1.6-1.3 2.5c1 0 4.5-.7 5.6-1-.3-.8-.4-1-.3-2l-.4-2-2.8.6q-1.5.3-3.1.3"/><path d="m483 542.7.1-.1 3.1-.3 3-.6.5 2.2q-.1.9.1 1.6l.1.4v.1l-1.3.2-4.4.7h-.3l1.4-2.6-2.2-1.5zm.6.1 2 1.5-1.2 2.3q1 0 4.1-.6l1.1-.2v-.2q-.3-.8-.2-1.8l-.4-1.7-2.7.5z"/><path fill="#ce1126" d="m513.8 547-2.4.9 1.4 2.9-5.7-2.7c.3-.8.4-.8.3-1.9l.4-1.8 2.8 1.4z"/><path d="m513.8 547.2-2.2.8 1.4 3h-.3l-4.4-2.1-1.2-.6-.2-.1v-.1l.2-.3q.3-.7.2-1.6l.4-2 3 1.4 3 1.3.5.1zm-.5-.2-2.7-1.1-2.7-1.3-.3 1.6-.2 1.7-.1.2 1.1.5 4.1 2-1.3-2.8z"/><path fill="#ce1126" d="M491.6 547.8c2.7 0 5-1 5-1 .5.4 2.4.5 2.5.5l1.4-.1c2.7 2 4.6 2.6 4.6 2.6 2.3 0 2.4-1.4 2.4-1.6-.1-1.6-.2-1.7-.3-1.7 1.1-2 0-3.4 0-3.6-1-.6-4-.2-4.2-.2-2.5.8-2.6.3-2.6.3-1-1.2-3-1.4-4.3-.7-2.6-1-3-1.3-3-1.3-2.8-1.4-3.1-1-3.1-.9a3 3 0 0 0-.7 2.3l.2 1.3c-.3 3.6 2 4 2.1 4.1"/><path d="m491.6 548-1.3-.8q-1.2-1.4-1-3.5l-.1-1.3q-.3-1.4.7-2.4.5-.6 3.2.9l3 1.2q.9-.4 2.3-.3 1.5.3 2.1 1.1l.3.1q.6.1 2-.4h.1q3.7-.6 4.4.3 1.3 1.8.1 3.7l.2 1.7q0 1.9-2.5 1.7-2-.6-4.6-2.7l-1.4.1q-2 0-2.5-.4-2.3 1-5 1m0-.3q2.6 0 5-1v-.1h.1q.4.6 2.4.5h1.3l.1-.1q2.7 2.1 4.6 2.7 2.2.2 2.2-1.5l-.1-1.5-.2-.1.1-.2q1.2-1.7 0-3.4-.6-.6-4.1-.1-1.5.4-2.2.4-.5 0-.5-.2-.6-.9-1.9-1-1.4-.1-2.2.3h-.1q-2.7-1-3-1.3-2.7-1.4-3-.9-.9 1-.7 2.2 0 .8.3 1.3v.1q-.3 2.1.7 3.2z"/><path fill="#ce1126" d="M500.5 546.2c5.7 2.3 5.4 3 5.3 3-.5.4-1.9-.4-2-.5-4.4-2.4-3.4-2.5-3.3-2.5"/><path d="M500.5 546q3.6 1.5 4.9 2.4.7.6.5.9-.4.6-2.1-.5-2.9-1.5-3.4-2.2-.3-.3-.1-.4zm0 .3v.2q.6.6 3.3 2v.1q1.7 1 2 .5l-.5-.5q-1.3-1-4.8-2.3"/><path fill="#ce1126" d="M496.9 545.7c-5.8.5-5.4 1.2-5.4 1.3.5.6 2 .2 2 .1 4.5-1 3.4-1.4 3.4-1.4"/><path d="m496.9 545.5.2.2v.4q-.7.6-3.5 1.1-1.7.6-2.2-.2 0-.3.6-.6 1.2-.6 4.9-.9m0 .3q-3.6.3-4.8.8l-.5.4q.3.5 2 0 2.6-.6 3.2-1z"/><path fill="#aa241e" d="M497.1 541.7c-2.3.3-.7 2-.4 3.4 0 .7-.5 1.6 0 2 .7.3 2 .3 2.7.4 1 .1 1.5.3 1.4-1 0-1-.3-1.3-.4-2.5 0-1 .1-1.7-.7-2-.6-.2-2-.3-2.6-.3"/><path d="M497.1 541.6q1.5 0 2.6.2.9.3.8 1.7v.5l.3 1.5.1 1q0 1-.3 1-.3.3-1 .1h-1.1l-1.8-.4q-.5-.2-.2-1.4v-.7l-.3-1.1-.4-1.6q0-.8 1.3-.8m0 .2q-1 0-1.1.7l.4 1.4.4 1.2-.1.8q-.2 1 0 1.1.5.3 1.8.3h.9l.2.1h1q.2-.2.1-1l-.1-.9q-.3-.8-.3-1.6v-.4q0-1.3-.6-1.5z"/><path d="M500.6 543.5q4 .6 5.4.3.5 0 .5-.3h.3v.2l-.7.3q-1.5.3-5.5-.3zm0 2a21 21 0 0 1 5.4 2.2q.4.3.5.6l-.1.2-.2-.2-.3-.4q-1.2-1-5.2-2zm-4-.5a17 17 0 0 0-5 .9q-.6.3-.4.4l-.2.1q-.2-.3.5-.7 1.3-.6 5-1zm-.7-2.1q-3.8-.4-5.1-1l-.6-.4v-.3l.2.1v.1l.4.3q1.3.6 5.1 1z"/><path d="M472.6 531.6c-3.3.6-5.4 1-8.6 2.4-1.1-2-2.8-5-4-6.7q-1-1.5-2.6-2.8c-1.9-1-2.4-1-3.6-.1l-.8-1.7c-1.6-3-3.2-4.7-5-7.2l-1.6-2.2-.6-.6q1 3.5 1.6 7.2l-2.8-2c-.9-.3-2.7-1-3.7-1.1l1.2 1.2a19 19 0 0 1 4 7.5c1 3 3 6.3 5 8.9.5.5 1.8 1.8 2.5 2.2 2.5 1.2 2.3.4 3.2 0a50 50 0 0 0 5.2 8q3.8 4 9 3.8a11 11 0 0 0 3.6-1c4-2 2.3-3.9 1.7-6.1 1.3-.3 6.7-1 8.7-1.2 6.9-.1 19.4 1.6 27.5 4l9.7 4.3c-.5 1.4-.7 2-.7 3.5.3 1.5 1.3 2.3 2.4 3.2q1.5 1 3.5 2 2.2.8 4.3.8a8 8 0 0 0 6-3c2.1-2.3 2.8-3.7 4-5.3l1 .9h2.1q1.4-.5 2.5-1.5 3.4-3 5-7.5c1.2-3.5 2.5-5 5.2-7-3.4-.3-4.6.4-6.5 1.2l.7-3.5.9-3.3-4.3 4.4-2 2.3c-1.4 2-1.2 2-1.7 2.7-5-3-6.9 2.5-10.2 6.5A64 64 0 0 0 516 536l-4.3-1.2c-9-2.5-18.7-4-27.6-4-4.6 0-7.4.3-11.5.7"/><path fill="#ce1126" d="M466.4 544.8c.7-1.5 1.2-1.7 2.6-2.2a54 54 0 0 1 20.4-2.8l4.6.2a85 85 0 0 1 23.8 5.8c4.5 2 7.5 3.5 11.6 6 1.8 1.2 1.6 1.2 2.6 3 1.3-.7 2.3-2.4 3-3.7q.8-1 1.3-2.3c.4-1.3-.3-1.8-1-2.4a38 38 0 0 0-10-6.3 108 108 0 0 0-52-8q-5.9.7-10 3.1l-1 .7c-.6 1.1.5 3 1 4.1l1.4 2.6q.8 1.3 1.7 2.2"/><path fill="#ce1126" d="M451.2 528.5c1.8.6 2.3 1.2 3.5 3 2.4 3.9 2.7 6.3 6.8 11.8q1.3 1.8 3.2 3.1a10 10 0 0 0 11.4-.6c.4-.5.5-1.7.5-1.8-1.4-.3-3.4 1.4-5 2.4-2.9 1.3-3.7.6-5.7-1.4-1.7-1.8-2.3-3.4-3.4-5.5q-1-1.5-1-3.3l2-1.9-2.5-4.4c-1-1.7-1.6-2.8-2.9-4-.8-.9-2.1-1.8-3.3-1.5q-1.4 1-2.4 2.3z"/><path fill="#ce1126" d="m448.3 521.3-2.6-2-3.2-1.6 1.8 2.3c1.9 3 2 5 3.6 8.4a30 30 0 0 0 5.1 7.1q1.9 1.8 3 .8c0-.6-1.3-1.7-2.2-2.3l-2.5-2.2c-1.7-2.4-.5-4.2 1-5.9l1-1a14 14 0 0 0-2.2-4.5l-4-5.4q.1 1.6.5 3.3c.2.6.7 2.5.7 3m28.2 22.1-.8-2c-1.1.1-6 1.5-7.4 2.1-.4.3-1.6 1-1.1 2 2.3 2.2 4.8 0 6.8-1.4q.9-.8 2.5-.7"/><path fill="#ce1126" d="M456.6 536.1c-.3-.2-.3-.8-1.4-1.8l-3.5-2.8s-.8-.8-.8-1.7c.1-.7.6-.7.6-.7 2.5 1 5 6.4 5 7m90.8 7.2c-1.8.1-2.3.5-3.5 1.9-2.4 3.2-2.7 5.5-6.8 9.7q-1.3 1.5-3.2 2.2-2.4.6-5 0-2.5-.9-4.4-2.2s-1.5-1.2-2-1.8-.5-2-.5-2c1.3 0 3.5 2.5 5 4 2.9 2.1 3.7 1.7 5.7.2 1.7-1.3 2.3-2.6 3.4-4.4q1-1.2 1-3l-2-2.5 2.4-3.6c1-1.5 1.7-2.4 3-3.3.8-.5 2.1-1 3.3-.4a21 21 0 0 1 3.6 5.2"/><path fill="#ce1126" d="m550.2 537 2.6-1.3 3.2-.6c-.5.5-.9.7-1.8 1.7-1.9 2.4-2 4.4-3.6 7.4a19 19 0 0 1-5.1 5.6q-2 1-3-.1c0-.7 1.3-1.3 2.2-1.7q1.5-.6 2.5-1.4c1.7-2 .5-4-1-6.2l-1-1.3q.8-2.2 2.2-3.9l4-4.1q-.1 1.4-.5 3zM522 550.4l.8-1.7c1 .4 6 3.4 7.4 4.4.4.3 1.6 1.5 1.1 2.3-2.3 1.5-4.8-1.5-6.8-3.5a5 5 0 0 0-2.5-1.5"/><path fill="#ce1126" d="M542 549.3c.2-.1.2-.7 1.3-1.4.5-.3 3-1.4 3.5-1.8.1 0 .8-.5.8-1.4-.1-.7-.6-1-.6-1-2.6.3-5 4.9-5 5.6"/><path fill="#eac102" d="M471.8 535h-.7l-1.2.4q-.2 0 0 .2l.3.7.2.8.3 1 .2 1q-.2.5 0 .4l.9-.1s.3-.1 0-.2l-.3-.8-.2-.7q.3-.3.5.2l.5.6.8.5h.7l-.9-.8-.5-1q.5-.2.6-.8t-.6-1.2zm-.3.3q.3 0 .5.5l.2.8q0 .3-.4.5t-.6 0l-.3-1.4q0-.3.4-.4zm1.8-.7.2.6.2 1 .2.8.1.6.2.9c0 .1-.3.3 0 .3l2.2-.2q.3 0 .2-.3v-.7l-.4.4-1 .4q-.3-.1-.4-.5v-.5l-.2-.8q.4-.2.8 0l.4.2-.1-.7q0-.4-.2-.4l-.3.4h-.6q-.2-.2-.2-.6-.1-.5.2-.6.4-.3 1 .2s.3.3.3 0q0-.4-.3-.7h-.6zm5-.6h-.9l-1 .2c-.2.1.2.2.3.5v.6l.2.7.2 1 .1.9v.5h.9q.3 0 0-.3l-.2-.8-.1-.8 1.3-.3q.3-.2.4-.8 0-.5-.2-.9l-.5-.4zm-.4.2q.5 0 .7.6c.2.6.1.5 0 .8q0 .3-.3.4t-.5.1l-.2-.6-.2-1q0-.3.3-.3zm4-.5.4.4.1.6.1.8.1.7.1.8q-.2.6-.9.5l-.4-.4-.2-.6-.2-.8v-1l-.2-.6c0-.2.3-.4 0-.4h-1q0 .3.2.5l.1.6.2 1.4.1.6.3.6.7.5q.8.2 1.3-.2l.3-.6-.1-1-.1-1-.2-1.1.2-.4h-.9m3.2 0h-1.9q.3.2.3.6l.2 1.4.1.8v1.4h1.4l.8-.1.5-.3.1-.5-.2-1-.6-.3q-.3-.1 0-.2l.4-.5q.1-.4-.1-.8t-.6-.4zm-.6.2q.5 0 .8.4v.7q0 .4-.4.4-.4.1-.5-.2V534zm.4 1.9q.3 0 .6.3t.3.7-.2.6l-.7.1-.3-.6v-.7q-.2-.4 0-.4zm2-2.2.2.4v.7l.1.6.1.9v1.5q0 .2.2 0l1 .1h1.2v-.7q.2-.3 0-.2l-.3.4-.4.1h-.4q-.3 0-.4-.3l-.1-.8-.1-1.5v-.9q.2-.2 0-.3zm3 0 .2.4v.5l.1.6.2 2v.4l-.1.3 1.1.1q.2-.1 0-.2-.2-.2-.2-.5v-1l-.1-.6-.1-1v-.7s.3-.2 0-.2zm4.8 3.3q-.3 0-.4.3-.3.3-.6.2-.4 0-.7-.4l-.3-.7-.2-.7v-1l.4-.6q.5 0 .8.3l.3.6q.2.2.3-.2v-.5l-.5-.4q-.8-.3-1.4.1l-.3.4-.3.4v.7q-.1.7.2 1.5l.5.7q.3.4.6.4h.9l.5-.6zm1.7-2.9h-.6l-.2 1-.1.5-.3 1.6-.4.8.1.2h.8l-.3-.4v-.6q.1-.2.5 0h.7l.1.8q-.2.4 0 .4h1l-.2-.4-.2-1-.4-1.3-.3-1.2q0-.3-.2-.4m-.5 1 .5 1.6q0 .3-.3.1h-.5v-.6l.2-.7zm5.3-.3H500l.1.3v3.6c0 .1-.3.3 0 .3q.7.3 1.7.2l.4-.2.5-.5a3 3 0 0 0 .2-1.7q0-.4-.3-.8 0-.3-.3-.5l-.5-.5zm0 .4q.4 0 .6.4l.2.6v.6a4 4 0 0 1-.2 1.9l-.4.2q-.5 0-.6-.3v-3.2q0-.4.5-.2m3.6.3-.7.1-.6.6-.3 1v1l.3.7q.1.5.5.8l.6.3q.7.2 1-.4.4-.3.5-.8l.1-.8v-.6l-.3-.8-.5-.8zm0 .3q.4.1.5.7l.1.7v1.2l-.1.7-.3.6h-.6l-.3-.6v-2.4q0-.4.2-.7 0-.2.5-.2m1.5 4.5.8.2-.2-.5.1-.8.1-.7.2-.7v-.6q.2.3.2.7l.1.8.1.8.1.8q0 .4.3.5t.3-.4l.2-1.1.2-.6q0-.6.3-1v3c0 .2-.3.3 0 .4l.8.2q.3 0 0-.3V537q.2 0 0-.3l-.9-.2-.2.8-.2.8-.2.8q0 .2 0 0l-.2-.7v-.6l-.2-1.3q-.1-.2-.5-.2l-.5-.1q.2.4.1.8l-.1.7-.3 1.6-.1.5q0 .3-.3.4zm4 1.1.8.3h.4q-.3-.2-.2-.5v-.7l.1-.7.2-2 .2-.2q0-.2-.4-.2l-.7-.2.1.4v1.3l-.1.8-.1.6v.7zm1.5.6.6.1q.2.2.2 0l-.2-.7.1-1 .1-.8v-.7l.3.6 1 2.7q0 .3.3.5t.2-.3v-.6l.2-.7v-.7l.1-.7.1-.7c0-.1.4-.2.2-.4l-.7-.2.2.6-.1 1.5-.1.7-.3-.8-.3-.8-.2-.7-.4-1-.8-.2.1.5v1l-.1.7-.1.8-.1.7q0 .3-.3.5zm3.7-3.1.1.5v.6l-.1.5-.1 1-.1.5v.4l-.2.4-.1.1q0 .2.3.3l.6.2q.3 0 .1-.2v-1l.1-.7.1-.5v-.7l.2-.5q0-.3.2-.4l-.5-.2-.5-.2zm1.3 3.2v.7q0 .5.4.9l.5.5q.3.2.8.1.2 0 .3-.2.3-.2.5-.6-.3-.2-.4.2h-.9l-.3-.7-.1-.6v-.9l.1-.6.3-.6.4-.1q.3 0 .5.4l.2.6q0 .4.2.2l.2-.6q0-.2-.3-.5l-.5-.3q-.4-.2-.9 0l-.4.2-.4.7-.2.8zm4.2-1-.7 1.6-.3.5q0 .5-.4.8 0 .3-.3.5-.3 0 0 .3l.6.2q.2 0 0-.4v-.5q.4-.2.6 0l.5.3v.9q-.2.1 0 .2l.6.3h.2v-1l-.1-.8v-2l-.1-.6zm0 .9v2l-.8-.3.2-.6.4-.8zm2 4.4-.2-.8.2-.9v-.6l.2-.8q.2-.1.2.2l.4 1.4.1.6.3 1.2q0 .5.4.5l.2-.8.2-.6q0-.7.2-1.2l.2-1q.3 0 .2-.4l-.7-.2.2.5-.1.8-.2.6-.1.7q-.2-.3-.2-.7l-.2-.9-.3-.9-.1-.6-.7-.5q-.3-.1-.2.2v1.3q-.3.6-.3 1.1l-.2.7q0 .3-.3.5c-.2.2.2.3.3.4zm4.2-2.2-.5.8-.5.8-.9 1.4q-.3.2 0 .3l.6.4v-.4l.1-.6.5.2q.4 0 .5.4l-.1.8q-.2 0 0 .2l.4.2.5.2q-.2-.3-.1-.6v-3.9q-.2 0-.5-.3m-.2 1v1.9q-.2 0-.5-.3-.3 0-.2-.3l.4-.7q0-.4.3-.7"/><path fill="#1a1a1a" d="M8 195.3c170.8-85.3 341-54.5 513.3-28C676.5 191 833.4 211.8 992 132.7v672c-170.8 85.3-341 54.5-513.3 28C323.5 809 166.6 788.1 8 867.2zm31.3 19.3v604.5c306.5-128.2 611.1 96 921.5-33.7V180.9C654.2 309 349.5 84.9 39.3 214.6" opacity=".2"/></svg>