<svg xmlns="http://www.w3.org/2000/svg" viewBox="0 0 1000 1000"><defs><linearGradient id="a" x1="627" x2="630" y1="412" y2="348" gradientTransform="matrix(.78335 .12128 0 .81982 8 87.828)" gradientUnits="userSpaceOnUse"><stop offset="0" stop-color="#fff"/><stop offset="1" stop-color="#1ea8d1"/></linearGradient><linearGradient id="b" x1="629" x2="629" y1="397" y2="470" gradientTransform="matrix(.78335 .12128 0 .81982 8 87.829)" gradientUnits="userSpaceOnUse"><stop offset="0" stop-color="#fff"/><stop offset="0" stop-color="#c1d3e8"/><stop offset="0" stop-color="#88b0d5"/><stop offset="0" stop-color="#5998c6"/><stop offset="1" stop-color="#2c87bc"/><stop offset="1" stop-color="#007db5"/><stop offset="1" stop-color="#0077b0"/><stop offset="1" stop-color="#0075af"/></linearGradient></defs><path fill="#ed1c24" d="M8 195c171-85 341-54 513-28 155 24 312 45 471-34v672c-171 85-341 54-513 28-155-24-312-45-471 34z"/><path fill="#034ea2" d="M8 195c171-85 341-54 513-28 155 24 312 45 471-34v504c-171 85-341 54-513 28-155-24-312-45-471 34z"/><path fill="#fd0" d="M8 195c171-85 341-54 513-28 155 24 312 45 471-34v336c-171 85-341 54-513 28-155-24-312-45-471 34z"/><path fill="#b1babf" d="m385 596-5 1-4 8 9-3 1-5z"/><path d="m385 596 2 1v1h-1l-1 4-9 3 4-8zm1 1-4 1-4 7 8-2zm-9 7 9-7zm8-2-5-5h1z"/><path fill="#b1babf" d="m401 581 3 3-16 14-1-1-2-1v-2z"/><path d="m401 580 3 4-16 14h-1l-2-2v-2zm0 1-16 13v1l2 2h1l15-13zm-15 15 16-13z"/><path fill="#b1babf" d="m406 386 7 8h-2l-7-7z"/><path d="m406 386 7 8h-2l-7-7zm0 0-1 1 6 7 1-1z"/><path fill="#034ea2" d="m430 471 9 11 4-10 1-6-1-36 3 3-10-12-6-7z"/><path d="M430 472v-58l6 7 10 12-2-3v36l-1 6-4 10zm13-42-7-9-5-6v33l-1 23 9 10 4-9 1-6z"/><path fill="#ed1c24" d="m444 466 8-26-9-10z"/><path d="m444 466-1-36 10 10zm0-1 8-25-8-10z"/><path fill="#fd0" d="m430 414 6 7-29-34c-1-1-1 25-1 56l24 28z"/><path d="M431 415v33l-1 24-24-29v-40l1-16 22 25 7 9zm-1-1-1-2-22-25v4l-1 12v40l24 28zm20 23-47-55z"/><path fill="#b1babf" d="m404 383-1-6s-8-4-11-8q5 9 5 13l6 2v1z"/><path d="m404 383-1 2h-1v-1q0-2-5-2l-2-6-3-7q2 4 11 8zm0 0-1-6q-7-3-10-7l4 11 6 3z"/><path fill="#ed1c24" d="m411 392-2-3-1 3-1 17-1 10v1l1 5 1 1 1-7 1-7v-11z"/><path d="m411 391-1 9v11l-1 4v3l-1 7h-1v-1h-1v-12l1-4v-7l1-10v-3zm-1 1-1-3-1 3-1 10v11l-1 6v1l1 5h1l1-6v-3l1-4z"/><path fill="#034ea2" d="m407 387-2 11-1 12-1 8v2h3v-1l1-10 1-17 1-3v-1z"/><path d="m407 386 2 2v1l-1 3-1 10v11l-1 6v1h-3v-2l1-8v-12zm0 1-2 11-1 12v2l-1 6v1h3v-6l1-4v-7l1-10v-3l1-1z"/><path fill="#ed1c24" d="m413 386-6 1 7 4 2-2q0-3-3-3"/><path d="m413 386 2 1 1 1v1l-2 2-7-4zm0 0-5 1 6 4 1-2 1-1-1-1z"/><path fill="#ed1c24" d="M407 387q2 4 6 5l1-1z"/><path d="M407 387q4 0 7 4l-1 1q-3 1-6-5m0 0q3 6 6 5l1-1z"/><path fill="#034ea2" d="m407 387 6-2 1 2-3 1z"/><path d="m407 387 6-2 1 1v2h-5zm1 0h1l2 1h2l1-1v-1l-1-1z"/><path fill="#034ea2" d="M415 385q-3-5-4-4-5 2-4 6c8-6 7 1 7 1z"/><path d="m415 385-1 3-1-3h-2l-4 2q0-6 4-6h2zm0 0-2-3-2-1q-4 1-4 6l4-3 2 1 1 2zm-22-15 11 14h-1zm4 11 6-4z"/><path fill="#b1babf" d="M407 375v7l-2 2-1 2q-5 3-10 0l1 1q9 6 14-1 2-5-1-10"/><path d="M407 375q3 6 1 10-2 3-6 3-4 1-8-2l-1-1q5 3 10 0l2-4q2-3 1-7zm0 0-1 6-1 2-2 2q-4 3-9 0 4 3 8 3t6-3-1-10"/><path fill="#e8b909" d="m406 419-2 1-1-2 1-1z"/><path d="M406 419q0 2-2 2l-1-1v-2l1-1q3 0 2 2m0 0-1-1-1-1h-1v1l1 2z"/><path fill="#e8b909" d="m406 429-5-1q1-7 3-8 4 2 2 9"/><path d="m406 429-3-1h-2l1-5q0-3 2-3l3 4zm0 0v-5q0-3-2-3-1-1-3 7h2zm-2-6-1 5zm1 0v6l-1-1z"/><path fill="#e8b909" d="m409 424-2 2-1-2 1-2z"/><path d="M409 424v1l-2 1-2-2 1-2h1l2 1zm0 0-1-1-1-1-1 1v1l1 1z"/><path fill="#e8b909" d="m410 434-5-1q0-6 2-7 4 1 3 8"/><path d="M410 434h-5v-6q0-3 2-3l3 4zm0 0-1-5q0-3-2-3t-2 7h1zm-3-6v6l-1-1zm1 1v5z"/><path fill="#b1babf" d="m614 629 5 2s2 6 5 9l-9-5z"/><path d="m615 629-1 2 1 5h1l8 5h1l-5-9v-1zm-2 1 1-1 5 2 3 8-7-4q0-4-2-5m9 9-8-10zm-7-4 4-4v-1z"/><path fill="#b1babf" d="m598 609-2 3 16 18h1l1-2v-1z"/><path d="m598 609-2 3 16 18h1l2-2v-1zm0 1 16 17v1l-1 2h-1l-16-18zm15 18-16-17v1z"/><path fill="#b1babf" d="m593 414-6 5 2 1 6-5z"/><path d="m593 413-6 6 2 2 6-6zm1 1-7 5-1-1z"/><path fill="#034ea2" d="m569 492-8 8-5-11v-42l-3 2 10-9 6-5z"/><path d="M569 493v-57l-6 5-10 9h1l2-2-1 36 1 6 4 11zm-13-46 7-7 6-4v56l-8 8-4-11-1-6z"/><path fill="#ed1c24" d="m556 483-9-28 9-8z"/><path d="M555 483v-36l-9 8zm1-1-9-27 9-8z"/><path fill="#fd0" d="m569 435-6 5 29-26c1-1 1 26 1 57l-24 21z"/><path d="M569 436v57l24-22v-41l-1-16-22 19-7 7zm0-1 2-1 21-20v1l1 3v53l-24 21zm-19 17 46-42z"/><path fill="#b1babf" d="m595 411 2-6s7-2 10-5l-4 11q-4-1-6 2z"/><path d="m595 411 2 2q1-2 6-1v-1l1-4 3-7q-3 3-10 5zm0 0 2-6q6-1 9-4l-4 10q-4 0-5 2z"/><path fill="#ed1c24" d="m589 418 2-2 1 3v17l2 11-1 6-2-1v-7l-1-7-1-11z"/><path d="M589 418v20l1 5 1 2v7l1 1h1l1-6-1-7-1-4v-17l-1-3zm0 0 2-2v3l1 10v7l1 4v12l-1 1-1-1v-9l-1-5-1-10 1-1z"/><path fill="#034ea2" d="m593 414 2 12v12l2 8-1 2-2-1-2-11v-17l-1-3v-1z"/><path d="m593 414-3 1 1 1v3l1 10v7l1 4v7l3 1v-1l1-1-1-8-1-12zm0 0 2 11v13l1 2v8l-2-1-1-7-1-4v-17l-1-3v-1z"/><path fill="#ed1c24" d="m587 412 5 2h1q-8 1-7 2l-2-2q-1-4 3-2"/><path d="M587 412h-4l1 2 2 3q1-3 7-3h-1zm-1 0 6 2-6 2-2-2v-2z"/><path fill="#ed1c24" d="M593 414q-1 4-6 3l-1-1q-1-1 7-2"/><path d="M593 414q-5 0-8 2l2 2q2 2 6-4m0 0q-2 6-5 3l-1-1q1-2 7-2"/><path fill="#034ea2" d="m592 414-5-4-1 2q-1 2 2 2z"/><path d="m592 414-5-4-1 2h-1l1 1 2 1h5zm0 0h-4l-2-1v-1l1-1z"/><path fill="#034ea2" d="M584 410q2-4 5-3 4 4 4 7c-9-8-7-1-7 0z"/><path d="m584 410 1 4h1v-3h2l5 3v1-1q-1-6-4-7h-2q-2 0-3 3m0 0 3-3 2 1q3 0 3 6l-4-3h-2l-1 2zm23-9-11 11zm-4 10-6-6z"/><path fill="#b1babf" d="m593 402 2 9 2 2q4 4 10 3h-1q-10 4-14-4-2-6 1-10"/><path d="M593 402q-3 5-2 10 2 3 6 5a12 12 0 0 0 10-1q-6 1-10-3l-3-4zm0 0 2 9 2 2q3 5 9 3h-1q-3 2-8 1l-5-5q-2-5 1-10"/><path fill="#e8b909" d="m593 446 2 2 2-1-2-2z"/><path d="M593 446q0 3 2 2h1l1-1-2-2zm1 0 1 1v1l-1 1z"/><path fill="#e8b909" d="m593 456 5 1q1-7-3-9-2 2-2 8"/><path d="m593 456 4 1h1v-6l-3-3q-2 0-2 3zm0 0v-5q0-2 2-2t3 7zm3-5v5h1zm-2 0 1 5z"/><path fill="#e8b909" d="m590 451 2 2 2-2-2-2z"/><path d="m590 451 1 1 1 1q2 0 2-2l-1-1-1-1-1 1zm1 0v-1h2l1 1-2 2z"/><path fill="#e8b909" d="M589 461h6q1-6-3-8-2 1-3 8"/><path d="M589 461h6l-1-5q0-3-2-3t-2 2zm1-1v-5l2-2q3 1 2 8h-1zm3-4v5zm-2 0v5h1zm-145-32-3 1-6 1 5-1z"/><path fill="#39b54a" d="M431 428v-8c1 0 6-4 4-15v-5l-5 11v9l1 4z"/><path d="M431 428v-8q6-6 4-15l-1-4-4 10v9l1 4-1-4-1-9 6-11v5q1 9-3 15l-1 1zm3-25v4l-1 3-1 2-1 3v4-4l1-3 1-2v-3h1zm-3 17 2-3zm0-5v-2l-1-1 1 1zm0 2 1-2 2-2-1 2zm1-5v-2zm1-2h1v-1l1-1v1l-1 1zm0-2v-4z"/><path fill="#39b54a" d="M437 421q0-3 2-5l5-3-1 2-1 3-2 3z"/><path d="M437 421q-1-3 2-5l1-1 3-2h1l-1 1v1l-1 3-2 3 2-3 1-3v-1l-2 1-2 1z"/><path fill="#39b54a" d="M429 428q1-4 6-6l7-1h4l4-1-11 7-12 2z"/><path d="M428 428q3-5 7-7h13l2-1-1 1-4 3-6 4h-5l-6 1h-1l7-1 5-1 6-4 3-2h-6l-7 1q-4 2-6 6zm1 0 8-4 7-2h1l-8 2zm8-4 3 2zm3 0h3v1l-2-1zm-2 0v-1l1-1h1-1l-1 1z"/><path fill="#39b54a" d="m451 414 1-5 3-4-1 5z"/><path d="m451 414 1-3v-2l1-2 1-2h1l-1 3v2l-2 3zl2-3v-4 1l-2 2v2zm1-2 1-3v-1h1l-1 2z"/><path fill="#39b54a" d="M426 461q4 6 2 11l-1-3-3-1-3-5z"/><path d="M427 461q4 7 1 11l-1-2-1-1-1-1h-1l-2-3-1-2v-1zm-1 0-5 2h1l1 2 1 3h3l1 2v1q2-3-2-10m-2 2q4 4 4 8 0-4-4-8m0 0v5zm1 0 3 4v1z"/><path fill="#39b54a" d="m419 452 1-4 4-3h6l6 2-11 1zl-3 5z"/><path d="M419 452v-2l1-2 4-3h6l3 1h3v1h-4l-7 2-5 4-2 3-1 2 1-2zl5-5 7-1h3l-2-1-3-1-6 1-4 4zm0 1 4-5q3-2 6-1l-6 1q-3 2-4 6zm1-2 1-1 3-1-3 1z"/><path fill="#39b54a" d="m427 447 4-1z"/><path d="m427 447 3-1h1-1z"/><path fill="#39b54a" d="m417 459 1-2 2-2 4-4 5-3h6l-2 3-6 4-5 2zl1-1z"/><path d="m417 459 1-1 2-2 4-5 5-2h6l-1 2-1 2h-1l-5 4-6 1-3 1zm2-2h3l5-2q3 0 5-3l1-1 1-2 1-1-4 1h-2l-5 2-4 4zm-1 0 2-1 1-1 3-2 4-2h1l3-1-3 1-1 1-7 4h-1zm5-3 1-1h4-2l-2 1zm2-1 1-1 1-2-1 2z"/><path fill="#39b54a" d="m442 421 5-4 3-3 12 4-5 1h-5q-6-1-10 2"/><path d="m442 421 4-4 2-1 2-2 8 2 4 1 1 1h-2l-4 1h-5q-9-1-10 3zm1-1 9-1h5l4-1h1l-5-2-7-2-2 2-1 1zm1-1 4-1 3-1h7-7l-3 1zm7-2 3 1h2v1l-2-1zm-3 1 2-1 1-1-1 1-2 2z"/><path fill="#39b54a" d="m426 440 3-4 2-6 3-2 3-1 6 1h6q-3 0-5 3l-5 5-8 2-5 3z"/><path d="m426 440 2-3v-1l1-2 2-4 2-1 1-1 3-1h6l1 1h5-1l-4 3-1 1-4 5-7 1-1 1h-1zm21-12h-4l-6-1-3 1-1 1-2 1-2 4v3l-2 2 3-1h2l6-2q2 0 5-4l1-1zm-19 10 3-3q3-4 6-4h2q5-1 6-3v1l-6 2h-2l-6 4zm2-2 4-1h4-4zm7-5h2v1l2-1h1v1h-4zm-3 1 2-3v-1h1l-1 1z"/><path fill="#39b54a" d="m424 444 2-2 2-3 2-1h3l4 1 5 1-4 1-5 2-6 1z"/><path d="m424 444 1-1 1-1v-1l2-2 1-1h4l4 1h5v1h-1l-3 1-1 1-4 2h-6zm16-4-2-1h-1l-4-1-3 1h-2l-2 3v1l-1 1h3l5-1 4-2h1zm-15 3 2-1 5-2h7-7l-4 2zm3-1h5v1l-2-1zm4-2 2 1h2-2zm-2 0 1-1h1z"/><path fill="#39b54a" d="M416 462c-1-1-10-13-5-27v4c1 1 6 11 6 19z"/><path d="M411 453q-5-9 0-18v4q7 11 6 19l-1 4v1-1zm5 9 1-4q0-8-6-19v-4q-3 9 0 18zm-1-1q0-11-2-12l-2-6v-4 4l2 5zm-2-14v-1h1zm1 4v-1zm0 2h-1l-2-2 2 1zm-2-4-1-1-1-2 1 2zm-1-5-2-3h1zm4 13-2-2h-1 1zm0-2v-1l1-1-1 1z"/><path fill="#39b54a" d="m433 417 4-7s7 0 10-11l2-4-10 7q-3 4-3 8l-1 4z"/><path d="m433 416 3-6h1q7-2 10-11l1-3-9 6-3 8-1 4-1-1 2-3q0-5 3-8l10-7-2 4q-3 9-10 11v1zm14-18-1 2h-1v1l-2 2-2 1-2 2-2 3v1-1l2-3 2-2 1-1 2-2 1-1v-1zm-11 12 4-2v1zm3-4v-3h1l-1 1zm-1 1 3-1h2-2zm3-3v-3zm1-1 2-1h2-2zm2-2v-1l1-2v2z"/><path fill="#39b54a" d="M420 419v-4c0-1-4-4-2-10v-3l4 8-1 5-1 2z"/><path d="M420 419v-5q-4-4-3-9l1-3 4 8-1 5-1 2zm-2-16v2q-1 5 2 9v2l1-2v-4zm0 1 1 2v3h1v3l1 2h-1v-2l-1-2v-4h-1zm2 11-1-2v-1zm0-3 1-2v1zm0 0-1-1-1-2v1l1 1zm0-2 1-1zm-1-1v-1h-1v-1h-1 2zm0-2v-1z"/><path fill="#39b54a" d="M420 435v-8c1-1 6-5 6-18v-5l-6 12-1 10 1 5z"/><path d="m419 435 1-8 1-1q5-5 5-17l-1-4 1-1v-1 6q1 12-5 17l-1 1zm6-28-1 4v1l-1 4-1 1-1 4-1 4v1-1l1-4 1-4 1-2 1-3v-2zm-5 20 2-4h1zm1-6-1-3v-1h1zm0 1q-1-2 2-2l2-2-2 2zm1-4-1-2v-2l1 2zm1-3 1-1 1-1v-1h1l-1 1-1 1zm1-2v-4z"/><path fill="#39b54a" d="m419 427-3-6-2-5q3 1 5 5z"/><path d="m419 427-3-6-2-5 1 1 4 4-3-3-1-1 2 4zm0-3-3-6zm-1-1-1-1v-1zm0-1v-2z"/><path fill="#39b54a" d="M420 439s0-7 4-9l4-3 1-1-2 13-4 7-4 5-1 4z"/><path d="M419 439q1-7 4-10 4 0 5-2l1-1v-1l1 1h-1l-2 12v1l-4 7-4 5-1 4 1-4 4-6 4-6v-1l1-11-4 3q-4 2-4 9zm0 9 2-3v-1l1-1 1-4 1-5 2-3 1-1-1 2-2 2-1 5-1 4-1 1v1zm4-8 2-2h2l-2 1zm-2 4 2-1 1-1-1 2zm1-3-1-3-1-1h1v1zm1-5v-5h1zm-3-2 3-8v-1l2-2-1 2h-1v1l-1 2z"/><path fill="#ffdf4f" d="M425 423h1v-3h-2v1h-1 1z"/><path d="M425 423h1v-1h1-1l1-1-1-1v1-1h-2 1-1v1h-1 1l-1 1zv-1l1-1h2l1 1v1l-1 1z"/><path fill="#de2126" d="M426 421v1z"/><path fill="#ffdf4f" d="M426 428h1v-3h-2l-1 1h1z"/><path d="M426 428h1v-1h1-1l1-1-1-1v1-1h-2 1-1v1h-1 1l-1 1zv-1l1-1h2l1 1-1 1h1l-1 1zm-1-1q-6 3-5 10h-1q-1-7 6-10"/><path fill="#39b54a" d="m433 418 7-6 5-1 5-1-5 4-4 2-5 1z"/><path d="m433 418 1-1 1-2 3-3 6-1h1l3-1h1l-1 1-2 2-1 1-5 3h-6zm3-1h5l4-2 2-1 1-2-2 1h-1l-5 1-3 2zm0-1 2-1 2-1 3-1h3-3l-3 1-2 1zm2-1 2-1h3v1zm2-2h1l1-1h1l-2 1zm-6 13h-2l-4 3v-1l4-2z"/><path fill="#ffdf4f" d="m434 426 1 1v-1q2 1 1-1h1-1q1-3-2-1-1-1 0 0z"/><path d="M434 426h2v-1h1-1v-2h-1l-1 1-1 1zl-1-1 1-1h-1 1v-1h2v1q2 0 0 0h1v1l-1 1q2 0 0 0h-1v1z"/><path fill="#de2126" d="M435 425q1 0 0 0"/><path fill="#ffdf4f" d="M440 432h1q2 1 1-1l1-1h-1q1-2-2-1z"/><path d="M440 432h2v-1h1-1v-2h-2v1-1 1l-1 1zl-1-1 1-1h-1l1-1h2v1q2 0 0 0h1v1h-1v1h-1v1z"/><path fill="#ffdf4f" d="m436 434 1 1 1-1h1v-1l-2-1h-1z"/><path d="m436 434 1 1 1-1q0 2 0 0 2 0 0 0h1v-1h-1l1-1-1-1h-1v1h-1zl-1-1 1-1h1v-1h1l1 1v3h-1z"/><path fill="#de2126" d="M437 433q1 0 0 0"/><path fill="#ffdf4f" d="M431 434h2q1 1 1-1v-1l-2-1-1 1zm-3 3 1 1 1-1v-1q0-2-2-1l-1 1z"/><path d="m428 437 1 1h1v-3h-3v1h1-1zv-2h3v3h-1z"/><path fill="#de2126" d="M428 436q2 2 0 0"/><path fill="#ffdf4f" d="m446 425 1 1q2 0 1-1l1-1h-1q1-2-2-1z"/><path d="m446 425 1 1h1v-1h1v-1h-1v-1h-2v1zh1l-1-1h1l1-1 1 1v1h1v1h-1v1h-1z"/><path fill="#de2126" d="M447 424q1 1 0 0"/><path fill="#ffdf4f" d="m453 416 1 1 1-1v-1q0-2-2-1h-1z"/><path d="M453 416v-1zh1v-3h-1v-1l-1 1h-1 1v1zl-1-1v-1h1l1-1 1 1v1l1 1h-1v1h-1z"/><path fill="#de2126" d="M454 415q1 0 0 0"/><path fill="#ffdf4f" d="m447 415 2 1v-1h1v-1q-1-3-2-1h-1z"/><path d="m447 415 2 1v-1h1v-1h-1 1v-1l-1-1h-1v1h-1zv-2l1-1h1l1 1v3h-1z"/><path fill="#de2126" d="M448 414q1 0 0 0"/><path fill="#ffdf4f" d="m433 442 2 1 1-1v-1l-2-1h-1z"/><path d="m433 442 2 1v-1l1 1v-3l-1-1h-1v1h-1zv-1h1v-1h1l1 1v3h-1z"/><path fill="#de2126" d="M434 441q2 0 0 0"/><path fill="#ffdf4f" d="m428 443 1 1q2 0 1-1l1-1h-1q1-2-2-1z"/><path d="m428 443 1 1h1v-1h1v-1h-1v-1h-2v1zh1l-1-1h1l1-1 1 1v1h1v1h-1v1h-1z"/><path fill="#de2126" d="M429 442q1 2 0 0"/><path fill="#ffdf4f" d="m428 452 1-1v-1q0-2-2-1h-1z"/><path d="M428 452h1v-2l-1-1h-1v1h-1 1-1zv-2h1v-1h1l1 1v1q2 0 0 0v2h-1z"/><path fill="#de2126" d="M428 451q2 0 0 0"/><path fill="#ffdf4f" d="m422 455 2 1v-1h1v-1q-1-3-2-1h-1z"/><path d="M422 455v-2h1v-1h1l1 1v3h-1zm0 0 2 1v-1h1v-2l-1-1h-1v1h-1z"/><path fill="#de2126" d="M423 454q2 0 0 0"/><path fill="#ffdf4f" d="m438 420 2 1 1-1v-1l-2-1h-1z"/><path d="m438 420 1 1 1-1v1-1h1v-1h-1l1-1-1-1h-1v1h-1zl1-1h1v-1h1l1 1v3h-1z"/><path fill="#de2126" d="M439 419q1 0 0 0"/><path fill="#39b54a" d="M452 413q2-4 5-6l4-1q-3 5-9 7"/><path d="m452 413 2-3 3-3h1l3-2 1 1q-4 5-10 7m1 0 8-7-3 1h-1l-3 4z"/><path fill="#39b54a" d="m451 413 4-2 5 1 5-1c-4 4-9 0-13 2z"/><path d="M451 413h1l1-1 1-1h3l2 1 5-1q-3 2-7 2h-5zm3 0h4l6-1h-9zm-1-1 2-2h1l2-2h1-1l-2 2h-1q0 3-2 2m-31 37v-1l2-2z"/><path fill="#39b54a" d="m417 463 1-4 4-2q6 0 11-2-2 5-9 7l-4 1h-4z"/><path d="m416 462 1-2 4-2 5-1 6-1q-2 4-9 7l-4 1h-4zm1 1h3l4-1q7-3 9-7l-6 2h-5l-4 2-1 2zm0 0 1-2h2l3-2h1l4-1 2-1h1l-3 2-4 1h-1l-3 1-1 1zm3-2h2v1zm3-2h4zm-3 1v-1l1-1h1l-1 1h-1zm3-1 1-1h1l1-1-1 1h-1zm-7 3 1-3v-1l1-3h1l-1 3-1 2z"/><path fill="#39b54a" d="M417 460v-10c0-1-5-8-4-22q2-3 1-7l6 18-1 11-1 5z"/><path d="M417 460v-11q-6-9-4-22l1-5v-1 1l6 17-1 11-1 5v-5q2-6 1-11l-4-16-1 5a32 32 0 0 0 4 22zm-2-35v6l1 5 1 2 1 5v6-1l-1-5-1-5v-2l-1-5v-2z"/><path fill="#39b54a" d="M418 450q0-3-3-5z"/><path d="m418 450-3-5h1zm-1-7 1-3 1-1-1 1z"/><path fill="#39b54a" d="M418 444c0-2-4-3-4-6z"/><path d="m418 444-2-3q-2-1-2-3l2 3zm-1-5v-2l1-2v3zm-1-3-1-2-1-1-1-2h1v1l1 1v1zm-1-3 1-2v-3 5z"/><path fill="#009c4f" d="M584 479c0-9-5-47-13-60 1 0 8 13 9 64z"/><path d="m584 479-4 5v-1a282 282 0 0 0-9-64h1q5 9 9 32zm0 0a280 280 0 0 0-8-47q3 20 4 51z"/><path fill="#009c4f" d="M583 474c-5-30-20-58-20-58 6 13 16 46 19 66l2-2z"/><path d="m583 474 1 7-2 1a263 263 0 0 0-19-66h1a185 185 0 0 1 19 58m-12-40-6-15a309 309 0 0 1 17 63l2-2-1-6q-3-19-12-40"/><path fill="#009c4f" d="M559 417c13 26 18 62 19 68l5-3c-5-29-24-65-24-65"/><path d="M559 417a300 300 0 0 1 24 65l-5 4v-1a300 300 0 0 0-19-68m14 42 5 26 4-4a187 187 0 0 0-20-57q6 14 11 35"/><path fill="#009c4f" d="m551 413 17 39 8 36 5-5c-5-26-26-64-30-70"/><path d="M552 413a417 417 0 0 1 29 70l-6 5a299 299 0 0 0-16-59zm7 16 9 23 8 35 5-4q-3-17-16-42l-11-23z"/><path fill="#009c4f" d="M543 410s17 29 22 47l8 33 7-5c-6-16-22-58-37-75"/><path d="M543 410q9 11 21 38l15 37-7 5-8-33a185 185 0 0 0-22-47m9 16q10 20 13 31l8 32 6-4a362 362 0 0 0-35-74z"/><path fill="#009c4f" d="M544 425c8 13 23 44 27 67l7-6c-6-19-27-50-34-61"/><path d="M544 425q28 40 34 61l-7 6q-3-16-12-37-7-18-16-30zm15 30q9 21 12 37l7-6q-6-20-31-56z"/><path fill="#009c4f" d="M549 443c10 15 18 40 19 51l6-5c-6-19-25-46-25-46"/><path d="m549 443 25 46-6 5-6-24q-6-16-13-27m13 27q6 15 6 23l6-4-15-30-5-9q5 9 8 20m11 4q-15-42-25-56v-1a294 294 0 0 1 25 57m5 7a252 252 0 0 0-17-48zm1-5-12-41zm3 3-5-25-8-25a218 218 0 0 1 13 50m-1-17"/><path fill="#b1babf" d="m412 628-4 1-5 9 9-3 1-5h1z"/><path d="m412 628 2 2h-1l-1 5-9 3v-1q2-1 4-8h1zm1 2-1-1h-4l-4 8 8-2zm-9 7 9-8zm8-2-5-6h1z"/><path fill="#b1babf" d="m444 605-29 25h-1l-2-2v-1l30-25z"/><path d="m444 605-29 25h-1l-2-2v-1l30-26zm0 0-2-3-30 25v1l2 2h1zm-31 24 28-24z"/><path fill="#fd0" d="M436 581c-19-16-23-55-22-61v-67l6 7-29-35c-2-1-1 82-1 119 1 18 11 79 72 58 0 0 30-7 39-19l-6-1-3 1c-35 19-56-2-56-2"/><path d="m420 459-6-7v68l1 9q0 9 3 17 6 24 18 33v1l4 3 11 5q19 5 41-7l3-1 6 2h1-1q-6 8-23 14-9 4-16 5-40 15-59-14-7-11-10-24l-3-20V432l1-7 22 26zm16 122q-12-10-19-34l-3-27v-67l-2-2-21-25v1l-1 5v73l1 39a87 87 0 0 0 12 44q19 28 59 14l16-5q17-6 23-14l-6-1-3 1q-22 12-41 6z"/><path fill="#034ea2" d="M414 520c-1 6 3 45 22 61 0 0 21 21 56 2q-16 4-25 0c-17-9-35-31-38-53-3-21-2-62-2-62l3 3-10-11-6-7z"/><path d="M414 520v-67l6 6 10 12-3-2 2 61q2 16 14 31 11 15 24 21 10 5 25 0v1q-22 12-41 6l-15-8q-13-10-19-34zm0 1 1 9q0 9 3 17 6 24 18 34l4 3 11 5q18 5 40-6-15 4-24 0-13-6-24-21-11-16-14-32-3-20-2-62l-7-8-6-7zm0-68"/><path fill="#ed1c24" d="m439 497-1-16-8-10-3-3v1c0 6 0 42 2 61 3 22 20 44 38 53q8 4 25 0l2-2c-31-9-51-42-55-84"/><path d="M439 497q3 31 17 54 16 23 38 30h1l-1 1-2 1q-16 4-25 0-13-6-24-21-11-16-14-32-2-20-2-61v-2l3 4 6 8 2 2zm-1 0v-16l-2-2-6-8-3-3v1l2 61q2 16 14 31 11 15 24 21 9 5 25 0l2-1q-23-6-38-29-15-24-18-55m0-16-47-55v-1z"/><path fill="#b1babf" d="m390 423-2-2v-1h-4l-1 4h2l1 3q3 2 5 1 2-2-1-5"/><path d="M390 423q2 1 2 3l-1 2h-2l-3-1-1-3h-2l1-4 2-1 2 1v1zm0 0-2-2-1-1-1-1-2 1v3l1 1 4 4h2v-2zm7 6"/><path fill="#ed1c24" d="M392 472v-9l1-8v-14l1-12-2-2-1 4-1 20-1 13 1 7z"/><path d="M392 471v-11l1-5v-14l1-12-2-1-1 3v21l-1 4-1 8 1 7-1-7 1-8v-5l1-8v-12l1-4 2 2-1 12 1 1-1 13-1 5v12z"/><path fill="#034ea2" d="m390 425-2 13-1 15v13l1 2 1-4 1-13 1-20 1-4z"/><path d="m390 425 2 2-1 4v21l-1 4-1 8-1 4-2-2 1-11v-2l1-15zm0 0-2 13-1 15v13l1 1 1-3 1-8v-5l1-8v-12l1-4z"/><path fill="#ed1c24" d="m396 424-6 1 7 4 2-2q1-4-3-3"/><path d="M396 424h3v3l-2 2q-1-3-7-4zm0 0-5 1q4 1 6 4l2-2v-2z"/><path fill="#ed1c24" d="M390 425q1 4 6 5l1-1z"/><path d="M390 425q6 0 7 4h1l-2 1q-3 1-6-5m0 0q3 6 6 5l1-1q-2-3-7-4"/><path fill="#034ea2" d="m390 425 5-4 2 2-2 2z"/><path d="m390 425 5-4 1 1 1 1v1l-2 1zm1 0h1l3-1h1v-2l-1-1z"/><path fill="#034ea2" d="M397 420q-4-3-5-2-3 3-2 7c6-8 7-1 7-1z"/><path d="M397 420v4l-1-3h-2l-4 4q-1-6 2-7h2zm0 0-3-2h-2q-3 1-2 7l4-4h2l1 2z"/><path fill="#e8b909" d="M390 477q1-7-2-9-3 1-4 8z"/><path d="m390 477-5-1h-1l1-5q1-3 3-3 2 1 2 9m-1 0q1-9-1-8-2-1-3 2v5h1z"/><path fill="#e8b909" d="m389 467-1 1-2-1 2-2z"/><path d="M389 467v1l-1 1-2-1v-1q-1-2 2-2l1 1zm0 0-1-2-2 1v1l2 1zm-2 4-1 5zm1 0v5h-1z"/><path fill="#e8b909" d="M391 473v5zm-1 0v5zm3 5h-5q-1-7 2-8 4 2 3 8"/><path d="M393 478h-5q0-8 2-8 3 0 3 8m-2-5v5h2q0-7-3-8l-2 2v5l1 1 1-5v5h1z"/><path fill="#e8b909" d="m392 470-2 1-1-2 1-1z"/><path d="M392 470h-2l-1-2q0-2 1-1 2 0 2 2m0 0-2-2-1 1v1l1 1z"/><path fill="#c0cad0" d="M387 423h-3v-3h3z"/><path d="M387 423h-4v-1l1-2h3l1 1zm0 0v-3h-3l-1 2 1 1 1 1z"/><path fill="#b1babf" d="m382 430-2-4 2-4h1l2-2 1-1 1-1h-1q4-4 4-6-4-1-6 2h-1l-1 1-2-9s-12-6-17-11c4 6 8 16 8 19q6 0 9 3l-1 1 1 1-4 2-5-3v3q0 8 8 10z"/><path d="m382 430-4 1-6-4-2-6v-3q3 3 5 2l3-1v-1l1-1q-2-3-9-3l-2-8-6-11h1q4 6 16 11l2 8h2q5-3 6-2l-1 3-2 3-1 1-1 1-2 2h-1l-2 4zm0 0-2-4 2-5 1 1 2-2 1-1v-1l3-3v-3l-5 3-1-1-1 1-2-9q-12-4-16-9l7 16q7 1 9 4l-1 1 1 1-4 2q-3 0-5-3v3l2 6 6 3zm-18-33 17 19zm7 17 9-8zm9 4 1-2 2-1 3 4-1 2h-2l-2-1zm0 0 1 2 2 1 1-1 1-1q1-3-2-3h-2zm-8 1 1 3 2 4q3 3 7 3v1a9 9 0 0 1-9-8z"/><path fill="#b1babf" d="m588 654 4 1 5 10-9-5-1-5h-1z"/><path d="m588 654-2 2h1l1 5 9 5-4-10h-1zm-1 2 1-1 4 2 4 8q-4-4-8-4zm9 9-9-10zm-8-4 5-5h-1z"/><path fill="#b1babf" d="m556 622 29 33 1 1 2-2v-1l-30-34z"/><path d="m556 622 29 34h1l2-2v-1l-30-34zm0 0 2-2 30 33v1l-2 1h-1zm31 32-28-31z"/><path fill="#fd0" d="M564 600c19-10 23-48 22-54v-68l-6 5 29-26c2-1 1 81 1 119-1 17-11 78-72 38 0 0-30-16-39-31h6l3 2c35 30 56 15 56 15"/><path d="m580 483 6-5v76l-4 16q-6 22-18 29l-4 2-11 2q-19 0-41-19l-3-2-6-1h-1l1 1q5 9 23 21l16 10q40 26 59 2 6-7 10-21l3-19V463l-1-6-22 20zm-16 117q12-6 19-29l3-25v-68l2-1 21-20v1l1 5v74l-1 39-2 19q-4 13-10 21-19 24-59-2l-16-10q-17-12-23-21h6l3 2q22 19 41 19l11-2z"/><path fill="#034ea2" d="M586 546c1 6-3 44-22 54 0 0-21 15-56-15q16 8 25 8c17-3 35-21 38-41 3-21 2-62 2-62l-3 2 10-9 6-5z"/><path d="M586 546v-68l-6 5-10 9 3-1-2 61q-2 14-14 27-11 12-24 14-10 1-25-8 22 19 41 19l11-2 4-2q13-6 19-29zm0 0v9l-4 16q-6 22-18 29l-4 2-11 2q-18 0-40-18 15 9 24 7 14-3 24-14 12-12 14-27 3-20 2-62l7-6 6-5zm0-68"/><path fill="#ed1c24" d="m561 516 1-16 8-8 3-2v1c0 6 0 42-2 61-3 20-20 38-38 41q-8 1-25-8l-2-2c31 0 51-26 55-67"/><path d="M561 516q-3 30-17 49a47 47 0 0 1-38 18h-1 1l2 2q16 9 25 8 13-2 25-14 10-12 13-27 2-19 2-61v-2l-3 3-6 6-2 2zm1 0v-16l2-2 6-6 3-2v1l-2 61q-2 15-14 27-10 12-24 14-9 1-25-8l-2-2q23 0 38-18t18-49m0-17 47-42z"/><path fill="#b1babf" d="m610 454 2-1v-1q1-1 4 1l1 4h-2l-1 2q-3 3-5 0-2-2 1-5"/><path d="m610 454-2 3 1 2 2 1 3-1 1-2h2l-1-4-2-1h-2v1zm0 0 2-1 1-1h1l2 1v4h-1l-1 2-3 1-2-1v-2zm-7 5 1 1z"/><path fill="#ed1c24" d="M608 503v-9l-1-8v-14l-1-12 2-1 1 3 1 21 1 13-1 7z"/><path d="M608 503v-11l-1-6v-14l-1-12 2-1 1 3v21l1 5 1 8-1 7 1-7-1-8v-5l-1-9v-12l-1-3v-1l-2 2 1 12-1 1 1 13 1 6z"/><path fill="#034ea2" d="m610 457 2 13 1 16v12l-1 2-1-4-1-13-1-21-1-3v-1z"/><path d="m610 457-2 1v1l1 3v21l1 5 1 8 1 4 2-2-1-11v-2l-1-15q1-6-2-13m0 0 2 13 1 15v13l-1 2-1-4-1-8v-5l-1-9v-12l-1-3v-1z"/><path fill="#ed1c24" d="m604 454 6 2q-7 1-7 3l-2-3q-1-3 3-2"/><path d="M604 454h-3v3l2 2q1-3 7-2v-1zm0 0 5 2q-4 0-6 3l-2-3v-2z"/><path fill="#ed1c24" d="M610 456q-1 3-6 3l-1-1q0-2 7-3"/><path d="M610 457q-6 0-7 3h-1l2 1q3 1 6-3m0 0q-3 4-6 3l-1-1q2-3 7-2"/><path fill="#034ea2" d="m610 456-5-5-2 2 2 2z"/><path d="m610 456-5-5-1 1-1 1v1l2 1 3 1zm-1 0h-1l-3-1-1-1v-2l1-1z"/><path fill="#034ea2" d="M603 450q4-3 5-1 3 4 2 7v1c-6-10-7-3-7-3z"/><path d="M603 450v4l1-2h2l4 5q1-5-2-8l-2-1q-1-1-3 2m0 0 3-2 2 1q3 3 2 7l-4-4-2-1-1 2z"/><path fill="#e8b909" d="M610 509q-1-7 2-8 4 1 4 8z"/><path d="M610 509h6l-1-5-3-4q-2 1-2 9m1-1q-1-7 2-7l2 3v5z"/><path fill="#e8b909" d="m611 499 2 2 1-2-1-2z"/><path d="M611 499v1l2 1h1v-2l-1-2-2 1zm0 0q0-2 2-2l1 2-1 2zm2 5 1 5zm-1-1v6h1z"/><path fill="#e8b909" d="M609 504v5zm1 0v6zm-3 5 5 1q0-7-2-9-4 2-3 8"/><path d="m607 509 4 1h1q0-8-2-9-3 0-3 8m2-5v5h-2q0-7 3-7l2 2v6l-1-1-1-5v5h-1z"/><path fill="#e8b909" d="m608 501 2 2 1-2-1-2z"/><path d="M608 501v1l2 1 1-2-1-2q-2 0-2 2m0 0 2-2 1 2v1h-1z"/><path fill="#c0cad0" d="m613 455 3 2v-4l-3-1z"/><path d="m613 455 4 2v-2l-1-2-3-1-1 1zm0 0v-3l3 1 1 2-1 2h-1z"/><path fill="#b1babf" d="m618 464 2-4-2-5-1 1v-1l-2-2-1-1-1-1 1-1q-4-4-4-6 4 0 6 4l1-1 1 1 2-8s12-3 17-7c-4 5-8 14-8 17q-6-2-9 1l1 1-1 1 4 3 5-2v3q0 8-8 8z"/><path d="m618 464 3 1q3 1 6-2t2-6v-3q-2 2-5 1l-3-2v-1l-1-1q2-2 9-1l3-8 5-9h-1q-3 4-16 7l-2 8-1-1h-1q-4-5-6-3l1 3 2 3v1l1 1 1 1 2 2v1l1-1 2 5zm0 0 2-4q1-3-2-5h-1l-2-2-1-1v-2l-3-3v-3l5 4h2l2-8 16-6-7 15q-7 0-9 2l1 1-1 1 4 3q3 1 5-2v3l-2 6-6 2zm18-30-17 16zm-7 16-9-10zm-9 2-1-2-2-1q-2-1-3 2l1 2 2 1h2zm0 0-1 2h-2l-1-1-1-2q0-2 2-2l2 1zm8 3-1 3-2 3q-3 3-7 2 4 1 8-2l1-3z"/><path fill="#fd0" d="m486 603-13-1s-16 19-16 24c-1 5-1 8 10 8h9l5 1 3-10 5-21z"/><path d="m486 603 4 1-6 21-3 10h-5l-9-1q-7 0-10-2l-1-6q1-4 17-24zm0 0-13-1a85 85 0 0 0-16 24l1 6q2 2 9 2h9l5 1 2-10 6-21z"/><path fill="#ed1c24" d="m491 596-1 4 4 2v10l-3 31-1 8-2 6-3 4v2q1 3 5 3l8-3 1-60z"/><path d="m490 595 9 8-1 60v1l-8 2-3-1q-2 0-3-2v-2l3-4q3-2 3-6l1-8 2-31 1-3v-7l-4-2zm1 1-1 4 4 2v10l-3 31-1 8-2 7-3 3v2l2 2 3 1 8-3 1-59z"/><path fill="#034ea2" d="m490 600-1 4q1 0 0 0l-5 21-3 12-9 12q0 2 4 2h9q4-1 5 2v-2l1-8 3-31v-10z"/><path d="m490 599 4 3v10l-3 31-1 8v2q-1-3-5-2h-12l-1-2 7-10 2-3 2-8v-3l6-21zm0 1v4l-6 21-1 3-2 9-2 2q-6 7-6 10v1l3 1h12l2 1v-1l1-8 2-31 1-3v-7z"/><path fill="#ebc900" d="m481 635-6-1-3 15 8-11z"/><path d="M481 634q1 2-1 3l-2 3-5 7v1h-1v-1l3-14zm-8 13q1-3 5-6l2-3 1-3-6-1z"/><path fill="#023f88" d="m489 654 1-1q-1-3-5-2v10l3-4z"/><path d="m490 654-2 4-3 3v-10h3l2 2zm-1 0 1-1q-1-2-5-2v9l2-3q2 0 2-3"/><path fill="#fd0" d="m510 607 14 3s15 24 16 29c0 5 0 8-10 5l-9-3-6-1-2-10-6-23v-1z"/><path d="m510 607-3-1v1l6 23 2 11 1-1 5 1 9 3q8 3 9 0l1-5q0-5-16-29zm0 0 14 3q16 24 16 29l-1 5h-9l-15-4-2-10-6-23z"/><path fill="#ed1c24" d="m506 598 1 4-4 2v10l3 31 1 9 2 7q3 3 3 5v1q-2 3-5 2l-9-6v-60z"/><path d="m506 598-8 5v61l9 5h3l2-2v-1q0-3-3-5l-2-7-1-9-3-31v-10l4-2zm0 0 1 4-5 2 1 6v4l3 31 1 9 2 7q3 3 3 5v1l-2 2h-3l-8-6-1-60z"/><path fill="#034ea2" d="M507 602v5l6 23 3 12c0 1 8 12 8 15q0 2-3 1l-9-3h-5v-1l-1-9-3-31v-10z"/><path d="m507 602-5 2 1 6v4l3 31 1 9v2-1h5l9 3h3v-1l-6-12-2-3-2-10-1-2-6-23zm0 1v4l6 23 1 3 2 9 1 3q7 9 7 12l-1 1h-2l-9-3-4-1-1 1v-1l-1-9-3-31v-10z"/><path fill="#ebc900" d="m516 640 6 1 2 16c0-3-6-10-8-14z"/><path d="M516 640v4l3 3 5 9v1-1l-2-15zm8 15-5-8-2-4-1-3 5 2z"/><path fill="#023f88" d="M507 657v-2h5v11q0-3-3-5z"/><path d="m507 657 2 4 3 5v-11l-4-1-1 1zm0 0v-1h4l1 9-3-3z"/><path fill="#452c25" d="M496 397s-6 14-5 16c0 0 7-11 13-15 3-2 5 1 5-1 0-3-7-8-8-8z"/><path d="M496 397q-6 13-5 16 7-11 13-15l4-1h1q1-2-8-8zl5-7q9 5 9 8l-2 1-4 1q-6 3-12 14l-1 1v-1q-2-1 5-16"/><path fill="#452c25" d="M472 405c-1 1-9 15-7 16 2 0 12-19 12-20h-3z"/><path d="m471 405 3-4h4q-11 21-13 20l-1-1v-2l3-5zm1 0-8 15 1 1q2 0 12-20l-3 1z"/><path fill="#452c25" d="M475 401c-1 0-10 14-8 16 3-1 13-19 13-20h-3z"/><path d="m474 400 3-3h4q-11 21-14 20l-1-1 1-2 3-6zm1 1-8 15q3 2 13-19h-3z"/><path fill="#452c25" d="M477 398c-1 1-11 13-9 15 2 0 14-17 15-18h-4z"/><path d="m476 398 3-3h4q-13 19-15 18l-1-1 1-2 3-5zm1 0-10 14 1 1q2 1 14-18h-3z"/><path fill="#452c25" d="M480 396c-1 0-13 11-11 13 2 0 17-15 17-15l-3-1z"/><path d="m480 396 3-3 4 1h-1q-15 16-17 15l-1-1 1-2 4-4zm0 0-11 12v1q2 1 17-15l-3-1z"/><path fill="#452c25" d="M480 391s-11 13-9 14c3 1 15-17 15-17l-3-1z"/><path d="m480 390 3-3 4 1h-1q-12 19-15 18l-1-2 1-1 3-5zm0 1-9 14q2 1 15-17h-3z"/><path fill="#452c25" d="M477 404s-11 13-9 15c3 0 15-18 15-18l-3-1z"/><path d="m477 403 3-3 4 1h-1q-12 19-15 18v-3l4-5zm0 1-9 14q3 1 15-17h-3z"/><path fill="#452c25" d="M484 401c-1 1-7 12-6 13 1 0 8-6 13-13 3-7-7 0-8 0z"/><path d="m484 402-6 12 5-4 7-9 1-2v-1l-3 1zl5-3h3l1 1-1 2-8 9-5 4q-1-1 5-13"/><path fill="#452c25" d="M490 400s-6 14-4 16c0 0 8-8 10-15s0-1 0-1v-8l-6 7z"/><path d="M490 400q-6 13-4 16 8-9 10-15v-8zh-1l6-8v8l1-1v-1l1 1h-1v3q-2 7-11 15v1-1q-3-1 4-17z"/><path fill="#452c25" d="M484 400c0 1-6 14-4 17 0 0 8-8 10-16 3-7 0 0 0 0v-8z"/><path d="M484 400q-6 14-4 17 8-9 10-16v-8zl6-7 1 8v-2h1l-1 4q-3 6-11 15-2-2 4-17"/><path fill="#452c25" d="M481 398c-1 1-13 12-11 14 3 0 17-15 17-15l-3-1z"/><path d="m481 398 3-3 4 1v1q-16 16-18 15l-1-1 1-2 4-5zm0 1-11 12q2 1 17-14l-3-1z"/><path fill="#452c25" d="M482 400c-1 1-13 12-11 14 3 0 17-15 17-15l-3-1z"/><path d="m482 400 3-2h4v1q-16 16-18 15v-3l4-5zm0 1-11 12v1q3 0 17-15l-3-1z"/><path fill="#452c25" d="M483 403c-1 0-13 11-11 13 3 1 17-15 18-15l-4-1z"/><path d="m483 403 3-3 4 1q-16 17-18 15v-1l1-2 3-4zm0 0-11 12v1q3 1 17-15l-3-1z"/><path fill="#452c25" d="M484 384s-9 11-9 14c2 2 11-4 14-10 2-5-4-5-5-5z"/><path d="M484 384q-10 12-8 14h2l3-2 8-8v-3l-2-1zh4l1 2v3a26 26 0 0 1-11 10h-3q-1-3 9-14"/><path fill="#452c25" d="M484 397c-1 1-9 15-7 15 3-1 11-11 12-14l1-6-7 3 1 4z"/><path d="M483 398v-3l7-3-1 6-5 8q-5 6-7 6v-2l3-5zm1 0-6 14 7-6 5-8 1-6-7 3z"/><path fill="#452c25" d="M484 392s7-12 0 2c-8 15-10 12-10 12l12-19z"/><path d="m486 387-3 7q-5 9-8 11h-2q-1-1 6-11zm-2 5 2-4-6 8-6 10h2l8-12 3-6h-1z"/><path fill="#452c25" d="M491 391s8-12 0 3c-8 14-11 11-11 11l7-10 7-8z"/><path d="m494 387-4 7q-5 9-8 11h-3l7-10zm-3 4 3-4-7 8-7 10h3q3-2 8-11l3-7z"/><path fill="#452c25" d="M492 392c-1 1-8 16-7 18 1 0 7-7 9-13 1-6 0 0 0 0l2-11z"/><path d="m492 392-7 18q7-7 9-13l2-11-2 8h1v1l-1 2q-2 6-8 13h-1q-1-1 6-18z"/><path fill="#452c25" d="M500 390s-8 15-6 17c0 0 6-6 8-12s0-1 0-1l2-11z"/><path d="M500 390q-8 15-6 17 6-6 8-12v-1l2-11v1l-1 8-1 3q-2 6-8 13-3-2 6-18"/><path fill="#452c25" d="M488 385c0 1-9 11-8 14 2 2 10-4 13-9 2-6-4-5-5-5"/><path d="M489 385q-10 12-9 14h2l4-2 7-7 1-3-2-2zh4l2 2-1 3a26 26 0 0 1-11 10l-2-1q-2-2 8-14"/><path fill="#b1babf" d="m565 608-1 3-117-18v-6l117 18z"/><path d="m565 608-1 3-117-18v-6l117 18zm0 0-1-3-116-17v5l116 17z"/><path fill="#b87510" d="M456 592v2l86 13v-5l-86-13z"/><path d="M456 592v-3l87 13v5l-87-13zm0 0v2l86 13v-5l-86-13z"/><path fill="#b76e11" d="m456 589 86 13v-4l-86-13z"/><path d="M456 589v-4l86 13 1 4zm0 0 86 13v-4l-86-13z"/><path fill="#ac620e" d="m456 585 86 13v-4l-85-13z"/><path d="m456 585 1-4 85 13v4zm0 0 86 13-1-4-84-13z"/><path fill="#a2550b" d="m539 590-80-13-2 4 85 13z"/><path d="m539 589 2 2 1 3-85-13q0-4 2-4zm-80-11q-2-1-2 3l84 13v-3l-2-1z"/><path fill="#b76e11" d="m456 598 86 13v-4l-86-13z"/><path d="M456 598v-4l87 13-1 5zm0 0 86 13v-4l-86-13z"/><path fill="#ac620e" d="m457 602 85 13v-4l-86-13z"/><path d="M457 602v-4l86 13v4zm0 0 85 13v-3l-86-13z"/><path fill="#a2550b" d="m459 606 80 12 3-3-85-13z"/><path d="m459 606-2-2-1-2 86 13-1 2-2 1zm80 12 2-1v-2l-84-13 1 2 1 2z"/><path fill="#c69024" d="m467 607-2-15 2-14h-4l-2 14 2 14z"/><path d="M467 607h-5a68 68 0 0 1 1-29h4a61 61 0 0 0 0 29m0 0a70 70 0 0 1 0-28l-4-1a60 60 0 0 0 0 28z"/><path fill="#c69024" d="m532 617 1-14-2-15 5 1 1 14-1 15z"/><path d="M532 617a61 61 0 0 0-1-29l5 1a67 67 0 0 1 0 29zm0 0 4 1a63 63 0 0 0 0-29h-4a68 68 0 0 1 0 28"/><path fill="#c69024" d="M492 611a105 105 0 0 1 1-29h-5l-1 14 1 14z"/><path d="M493 611h-5v-30l5 1-1 14zm-1 0v-29h-3l-1 14v14z"/><path fill="#c69024" d="M506 613a100 100 0 0 0-1-29l5 1 1 14-1 15z"/><path d="m506 613-1-29 5 1 1 14-1 15zm0 0 4 1v-29l-4-1 1 15z"/><path fill="#c69024" d="m477 595 8 15h3l-8-15-9-16-4-1z"/><path d="m477 595-10-17 4 1a155 155 0 0 1 17 31v1l-4-1-4-9zm0-1 3 7 5 9h3l-17-31h-3z"/><path fill="#c69024" d="m522 601-6 11-2 3-4-1 8-13 10-13h3z"/><path d="m519 607-5 8-4-1 18-27 4 1h-1l-9 14zm3-6 9-13h-3l-10 13-7 13h3l4-7z"/><path fill="#c69024" d="m520 601 6 12 2 4h3l-8-16-9-16h-4z"/><path d="M510 585h4a156 156 0 0 1 17 32h1-4l-5-9-3-7-6-10-3-4zm10 16 3 7 5 8 3 1-17-31-3-1 3 6z"/><path fill="#b1babf" d="M442 594s1-9-2-15q-5-7-7-7c-1-1 9-14 20 3 0 0-9-1-7 19z"/><path d="m441 594 1-5q1-6-2-10l-4-6-3-1h-1l1-1 1-1 4-3q9-3 16 7v1h-1l-4 2q-5 5-3 17h-1q0-12 4-17 1-3 4-3-7-10-14-7l-6 5 3 1 5 6 1 10z"/><path fill="#d3dce0" d="M434 572c4-3 10-7 18 3h1c-11-17-21-4-20-3z"/><path fill="#b1babf" d="m440 590-6 3s-7-5-12-6l-1-1h1q9-1 12-3l6 5z"/><path d="m440 591-6 2-12-6h-1v-1h1l12-3q4 4 6 4v1q-3 0-6-5l-5 2-7 1 12 7zm-18-5 18 3zm12-3v10z"/><path fill="#b1babf" d="m446 595-2 5-2-6z"/><path d="M446 595q0 5-2 5-2-1-2-6 0 6 2 5z"/><path fill="#b1babf" d="m439 584 9 1v10l-9-1z"/><path d="m439 584 9 1v10l-9-1zm1 0v10l8 1v-9zm1 2 6 1v6l-6-1zm0 1v5l5 1v-6zm2 1h2v3h-2zm0 1v1l2 1v-2zm9-14 1-1q-7-10-14-7l-6 4v1h1-1v-1l1-1q2-3 5-3 8-3 15 7v1zm0 0q-5-7-11-6-3 0-7 3l7-4q5 0 11 7"/><path fill="#c69024" d="m479 595-8 13-4-1 8-13 10-13 3 1z"/><path d="m479 595-3 5-5 8-4-1 17-26h5l-1 1zm-1 0 10-13-3-1-10 13-7 13 3 1 4-8z"/><path fill="url(#a)" d="M439 488c1 44 27 83 61 89 33 5 60-26 60-70s-27-83-60-89c-34-5-60 26-61 70"/><path fill="#395054" d="m533 496 9-1h6l10 5v6s-9-1-13-3z"/><path d="m533 496 4-1h3l5-1h2l7 4 3 2 1 6h-1l-13-2zm1 0 11 7 13 3v-6l-3-2-6-3h-10z"/><path fill="#006c3c" d="M475 501q1 1-1 2l5 4 2 2 3 2q0 2 3 2l5 2 5 2 13 2h-12l-2 1v1l3 1 4 2 4 1 5 2 5 1h8q3 2 1 3c-2 0 1 0 0 0l-5-1-3 2v2l2 2 4 1 4 2 4 1 4 2q2 0 3 2h3l3 2 2 1-7 11q-10 13-22 17-9 4-28-2c-13-3-24-18-30-25l-7-15h5l3-1h2l2-1h2q2 0 1-1v-1l3 1h2l2 1v-3l-1-1-2-1-4-1-3-1-4-1q-5-2-1-2 2 0 1-1l2 1h11l2 1 2-1-1-1-1-1-2-2-7-1q-2 0 1-1h13l-2-2-1-1-8-7q-1-1 3-1l-1-2-3-1-3-3-2-1z"/><path fill="#6dbe45" d="m475 501-1 2 4 4 3 2 3 2q0 2 3 2l5 2 5 2 12 2-9 1-2-1-2 1v1l3 1 4 2 4 1 5 2 5 1 4 1 4 1 4 1-5-1h-3l-3 2v2l2 2 4 1 4 2 4 1 4 2q2 0 3 2h3l3 2 1 1 6-15 3-18-3-3h-5l-12-2-3-1-5-1-5-1-11-2-6-1-4-1h-21z"/><path d="M475 501v2l3 4 3 2 1 1 1 1 1 1 2 1 3 1 3 1 4 1 9 2 3 1h1-6l-3 1-2-1h-1l-2 1 3 2 2 1 2 1 5 1 4 2h3l1 1h5l2 1 5 1 2 1h-2l-4-1h-2l-2 2-2 1 3 2 3 1 4 3 4 1 2 1 3 1 3 2 4 1 3 2 3-7 3-9 2-10 1-7-2-2-2-1h-2l-7-1-5-1h-2l-3-1-3-1-4-1-8-1-9-1-7-2h-21zl8 1h15l5 1 7 1 4 1 8 1 9 2 2 1h2l12 2h5l2 2v7l-2 11-3 9-3 7-2-2-3-1h-2l-2-2-2-1-3-1-4-1-5-3-5-2v-2l3-2h2l4 1h2l-1-1h-2l-3-1-5-1-4-1h-2l-2-1-4-1-5-1-3-2-3-1 2-2h1l2 1h1l3-1h5l-2-1h-5l-9-3-4-1-3-1-2-1-1-2-1-1-1-1-3-1-3-2z"/><path fill="#6dbe45" d="M473 503q1 1-2 1c-1 2 7 7 9 9l1 1q2 1 1 2h-3l-3 1-2-1h-8l7 1 3 2 2 1 1 1v1l-2 1h-2l-2-1h-1l-1 1-2-1h-7l-1 1-1-1 6 2 4 2 3 1 2 2 1 1 1 2h-2l-2-1-3-1v1q1 1-1 1l-2 1h-2l-2 1h-9l-6-17-4-24h5l8 3 8 2 3 1z"/><path d="m473 503-1 1v1l3 3 4 3 1 1h1q0 2 0 0l1 1 1 1v1h-4l-3 1-1-1h-8l12 4 1 1 1 1h-1l-1 1-3-1h-10l-1-1h-2v1h-1v1-1h-1v1h2l3 1 4 1 4 2 1 1 1 1h1l1 2-1 1-2-1h-2l-2-1h-1q2 1 1 2l-4 1h-3l-2 1h-7l-1-1-6-19-2-14v-7q2-1 4 1l5 1 11 3h3l2 2 2 2zl-4-2-2-2h-2l-9-3-5-1-5-1h-2l1 2q0 20 9 39l10-1h3l3-2v-1l3 1 4 1v-2l-1-1h-1v-1l-2-1-1-1-3-1-2-1-3-1h-2l-2-1v1h1v-1h1l1-1 1 1h9l2 1h3l1-1v-1l-1-1-2-1-3-2-6-1h-1 5l3 1h3l1-1h2l3-1h-1l-2-2v1-1l-1-1-2-1-4-4-2-1v-1l1-1z"/><path fill="#557176" d="m442 494 4-1 7 2 8 2 6 2 3 2 2 1h7c4 1 1 2 7 1h15l8 2 7 1 5 1 5 1 5 1 6 1 5 1 6 1h4l3 1 1-9c0-1 2-2-2-3l-15-5-12-5c-2 0-11-5-14-5l-12-2-20-3-7-4-6-1-10-1-10-1-5 1z"/><path d="m442 494 1-1 4 1h3l5 2 8 2 4 1 3 2v-1 1l2 1h2l8 2h4l8-1h3q0-1 0 0h5l6 2 8 1 6 1h3l3 1 3 1h1l2 1h5l10 2h3l3 1 1-7v-4l-3-2h-4l-3-2-4-1-4-1-5-2-7-3-10-4-4-1-5-1-7-1-9-1-8-2h-2l-5-3-4-2-10-1-5-1h-14zl1-13v-6l3-1h6l7 1 6 1 6 1h3l7 4h1l2 1h4l16 3 5 1h5l9 4 16 6 4 1 2 1 6 3 4 1q2 0 1 1v2l-1 8-2-1h-4l-10-2h-5l-3-2h-3l-3-1h-3l-3-1h-3l-8-2-6-1-4-1h-1v1h-16l-5-1-3-1h-3l-3-2-4-2-9-2-7-2q-3-1-5 1"/><path fill="#99afca" d="m544 505-1 2zm-92-16-1 2zm5-1-1 2zm1-1v2zm2-1-3 5zm1 0-1 3zm1 0v2zm1 0v2zm8 1 1-3q0-1 0 0zm3-3-1 2zm-3 0-1 2v1zm-10 8q1 0 0 0m1 0-1 1zm3 0-1 2v1zm21-1 2-4zm-10 1-2 1zm-3 4q3 0 5-4zm4 3 2-2zm4-3-4 4v1zm1 0 1-1v-1zm4 4 2-3v-1zm3-2-2 2zm8-1 1-3zm0-3-1 3v1zm2 0-1 3v1zm1 1-1 3v1zm1 1-2 6zm1 1-1 3zm1 0-1 1v1zm1 1-3 3v1zm0-1v2zm1 0-2 4zm5-3v2zm0 6 2-5v-1zm4-5-1 1v1zq0-1 0 0m-7 4-3 2v1zq-1 0 0 0m1 1-3 3zm0 1-1 1v1zm11-4-1 2zm1 3 1-2h-1zm-5 1v2zm1 4 1-4zm0-4-1 2zm2 0-1 2v1zm1 3 1-1v-1zm2-6-1 2v1zm2 1-1 2zm2 1-1 2v1zm1 4v-2zm1-1q0 2-2 3v1zm-4 1-1 1zm2 0-2 2zm8-4-1 2v1zm2 1-2 3zm1 1-1 3zm2 1-2 3v1zm1 2-2 3zm1 2-2 2v1zm-8 1 1-1h1v-1l-1 1zm3-2-1 2zm1 1-2 2v1zm9-4-2 4zm0 4 2-2v-1zm3-2-2 2v1zm2 0-2 2v1zm1 1-1 1v1zm-2 3-3 2zm-5 0h2v-1zm7 0-2 2zm-25-14-2 1zm-33-2-1 3zm-36-12-3 2q-1 0 0 0zm-5-1-3 2z"/><path fill="url(#b)" d="M502 519h3zm4 0h5zm-38-30-5 2-1 2 4 4-1 1v1c2 3 8 4 8 5q-3 0-2 2l5 4 2 3 2 2q3 1 2 2h-4l-2 1-3-1h-3l-7-3 7 3 2 1 3 2 2 1 1 1 1 1-2 1-2-1h-4v1l-2-1h-5l-1-1h-1q1 1-1 1h1l4 2 4 2 3 1 2 2h1v3h-2l-2-1-3-1v1q1 1-1 1h-2l-1 1h-3l-2 1h-6l7 15c6 7 18 22 30 26q19 5 29 1t22-17l6-11h-2l-3-3h-3l-2-2-5-2-3-1-5-2-3-1-2-2q-2 0-1-2l3-2 4-1h3l-3-1h-8l-4-1-5-1-5-2-4-1-3-2v-1l5-3h-4l-4-2-6-2q-3 0-3-2l-3-2-2-2-4-4v-2l-9-4 2-1-1-2-5-3q-1-2 4-3l9-5v-1z"/><path d="m476 485-8 4-3 2-2 1 2 2 4 3-2 2 9 4 1 1-1 1 1 2 3 2 3 2 2 2 1 1 2 1 3 1 2 1 8 2h9-8l-3 2-2 1v1h1l3 2 4 2 5 1 5 1 2 1h8l3 1h1-1l-5 1-2 1-2 2c-1 2 4 3 5 4l6 2 4 1 2 2h2l2 2h3l2 1 1 2h2l-2 4-8 11-10 8-10 5q-5 2-11 1l-15-2-12-7a89 89 0 0 1-25-32l-1-2h6l3-1h2l4-1 1-1-1-1 2 1h3l1 1h1v-2l-1-1v-1h-1l-2-1-1-1-3-1-3-2h-2l-3-2 2 1h11l2 1h3l1-1-1-1-1-1-1-1-4-2-9-4q-1 0 0 0l3 2 5 1 2 1h2l3-1h2l2-1-3-2-2-3-2-2-3-2q-2-2-1-3h2l-1-1-3-1-4-3 1-2-2-2-2-1v-3l3-1 3-1 4-2zl-6 4-2 1-3 1-3 1v2l1 1 2 2 1 1-1 1v2l5 2 2 1h1l-2 1-1 1 1 1 4 4 3 2 1 2 1 1 2 1-1 1h-12l-6-3 7 4 6 2 2 2h1q1 1-1 1v1h-2l-1-1h-9l-3-1-1 1-2-1 4 2 4 2 3 1 1 1 2 1 1 1h1v3l-2-1-3-1h-2v1h1l-1 1h-3l-2 1-3 1h-7q3 11 11 20 9 11 21 19l7 2 8 2h12q6 0 10-3l11-6 6-7 5-8 3-4v-1l-2-1-1-1-2-1h-3l-2-2h-1l-1-1-3-1-6-2-5-2-3-2q-1-2 1-2l4-3h5l-2-1h-8l-4-1-4-1-4-1-5-2-2-1-2-1-1-1 4-2 2-1h7-9l-4-1-4-1-2-1-3-1-2-1-1-1-2-2q-1-2-3-2l-4-3v-1c2-2-3-4-5-4l-3-2h-1 1l2-1-2-2-5-3q1-3 4-3l3-2zm-29-2-1 2zm1 1-1 2z"/><path fill="#4f91c5" d="m488 517 2 1h2v-1zm1 1h2zm-2-1 3-1zm-4 1-4-1zm-3 0h-3zm-2 0h-2zm3 40-3-1h-3 3zm-12-24 4 1zm-13 2h2l1 1h5-5l-1-1zm1 2h6zm15-4h4zm5-1h2zm-16 10 6 1zm6-2 3-1zm5 7h5zm0-3h3l2 1-2-1zm1 11h7-3zm13-3 4 1 2-1 2 1-2-1-2 1zq-1 0 0 0m9 1h4l3 1-3-1zm10 2 6 2zm9 1 3 1h3-3zm7 2h6zm-12 4h5zm1 3 5-1zm17-2h4zm0 2 2-1 2 1v-1h-4zm3-4h2zm-43-4h6v-1l-3 1zm1 2h5v-1zm-2-4h7l-7-1zm7 10h2l4 1-3-1zm0 1 6 1zm-10-32h5zm1 1h3zm-9 8h4zm50 10h4v-1zm-4 2h6zm-41-3 4-1zm58-6h6zm-1 2h4v-1l-2 1zm-2-4h3zq-1 0 0 0m4 5h4zm-9-6h5zm-2-1h2l2-1h-2zm-35-21h4zm2 1h1zq-1 0 0 0m24 37h2zm-43-36h-5zm-1 1-5-1zm-2 1-2-2h-3l2 1zm-3 17h4v-1zm0 1 1-1 2 1-2-1zm1 2h1zm0-5h3-1zm-4-2 2 1h2-2zm10 12h4zm20 4 3 1zm8 1 4 2v-1zm10 2 4 1zm7 2h5zm-33-5 2-1h3-5zm5 8h5v-1zm2 1 4-1zm11 6h3l4 1-4-1zm1 1h2v-1zm-24-20h2zm4 1h2v-1zm7 1-1-1h-2v1l2-1zm3 0 2 1h3l-2-1zm9 2h2q1 0 0 0zm5 1h6l-6-1zm-36-6 3-1zm28 4 3-1zm15 2h2zm4-1h2zm0-2h2zm-49-7h2z"/><path fill="#fff" d="m441 473 6 1q0 2 2 2l7 1h10l3 1v2l4 2 2 2 1 1h3l3-1h3l3 1 3 1 6 3h8l2 1h7l2-1 3 3 6 1 3 1 5 2h5l-1-1-5-2c-3-2-1-2-6-3-5-2-4-3-5-4l-4-1-5-5-5-4-7-6-6-3-8-4-7-3q-6-1-9 2l-11 6-12 4z"/><path d="m441 473 6-1 12-4 8-5 2-1 2-1 8-2 4 3 3 1 4 2 4 2 6 3 8 7 8 7 1 1h2l2 1 1 1 4 2 2 1 4 2 1 1 2 1 2 1 1 1h-5l-7-3h-1l-6-1-2-2h-3l-2 1-5-1-2-1h-8l-6-3-3-1h-2l-1-1h-3l-1 1h-6v-1l-2-1-4-3v-2h-8l-5-1-5-1h-4v-2h-1l-2-1zm3 0 2 1h1v1l2 1h2l5 1h13v1l1 2 3 2 2 2 1 1h1l2-1h8l1 1 3 1 6 2 1 1h7l2 1h7l1-1h1l3 2 6 2h2l1 1 5 1 4 1v-1l-2-1-3-1-4-2-2-1-5-3-1-1-1-1h-2l-2-1-3-4-5-4-7-6-5-2h-1l-4-3-4-1-3-2-4-2q-3-1-8 1l-1 1-3 1-8 5a28 28 0 0 1-15 5m36-6-1 1q-1 0 0 0zm21 7-4 3zm0-2-3 2v1zm-1-2-2 1v1zm0 1-3 2v1zm1 5-3 3zm-1 3-2 1v1zm0 2 2 2zm2 4 1 1zm-24-15-3 2v1zm-1 3-6 2zm-3 2-3 3zm-8 0-3 1v1zm11 4h-2v1zm16 3-2 1zm5 0-2 1zq-1 0 0 0"/><path fill="#007638" d="M458 518v2zm-1 2v-2zm-1 0-1-5zm-2-1-1-4zm1-10-1 2zm0 3v-2zm6-1v1q0 1 0 0zm-5 1v-2zm2-3-1 3zm10 5v-1q0-2 0 0zm-10-2 1-3zm-2 0 1-4v1zm3-1q0-1 0 0m0 1 1-2q0-1 0 0zm-6-1q0-1 0 0m2 8-1-3zm-2 0-1-2v1zm14 10v-1zm36-9 2-2v-1zm2-1v-4zm37 11 1-1h-1zm-3 0 1-4zm3 0v-3zm-1 0v-5zm-1 0v-4zm-1 0v-2zm1-1 1-2zq0 2 0 0m-36-10 1-2zm-1 1v-2zm3-1v-2zm2 0v-3zm1-1v-1q0-2 0 0zq0 1 0 0m1 0v-3zm1 0 1-2h-1zm1 1 1-2v-1zm2-1 1-2zm3 1v-3q0-1 0 0zm1-1 1-2zm-6 1v-2zm-2 0v-2zm-1 0v-1q0-1 0 0zm-1 1v-1zm-2 0 1-3zm7-1v-2q0-1 0 0zm1 0h-1zm2 0v-3q0-1 0 0zm2 0v-4zm-16-2v2zm0 3v-2zm9-1-1-2zm2 0 1-3zm10 11 1-2v-1zm3 0 1-2zm2 0v-3zq-1 0 0 0m1 0 1-4zm-4-2v2zm1 2 1-2zm2 0 1-2zm-4 0v-2zm-1 0v-1zm5-3v2zq0-1 0 0m-2 1v-1zm1 0v-1zm0 2v-1zm-2-2v-1zm21 11 1-4zm1 0v-2zm-2 0 1-1v-1zm2 0 1-3zm1 0 1-4zm-6-9v-2zm6 9 1-4zm-49-22 2-2zq1 0 0 0m37 21v-2zm-36-24-1 2v1zm2 6 1-4zm-4-3q1 0 0 0m36-1q1 0 0 0m11 2v-1zm-5-1v-4zm2 1v-1zm-5-2v-2q0-1 0 0zq0 2 0 0m4 1v-2zm-6-1v-1zm4 1v-1zm-2 0 1-3zm7-1v2zm-3 2 1-1v-1zm2 0v-3zm-3-1v-2zm-4-1v-1q0-1 0 0zq0 2 0 0m7 1v-1zq0 1 0 0m-5 0v-4zm1 0v-2zm2 0v-1zm1-1 1 2zm-1 14v-2zm-5 6v2zm-7-7v-2zm0 2 1-1zm6 7v-1zm-7-7v-2zm-4-6v3zm6 3-1 2zm-4-2-1 2zm1 4 1-1v-1zm-21-11v-1zm-3 0v-1zm-1 0 1-1zq1 0 0 0m11-2v2zm3 0-1 1zm-16-10q0 1 0 0m5 1v-2zm-2-3v2zm-1 0v2zq0-1 0 0m0 2v-1zm-51-8v-3zq0 2 0 0m-3 0-2-5q-1 3 2 6zm2 1v-2zm1 0v-1zm-2-1-1-2zm2 1-1-2v1zm-2-1v-3zm-2-1 1-2zm3-1-1 1v1zq-1 0 0 0m-3 2v-2q0-1 0 0z"/><path fill="#999b9e" d="m477 490-2 1z"/><path fill="#949699" d="m548 466 3 10q-15-18-52-25-36-4-51 9l3-8 4-8q16-8 44-4 29 5 45 18z"/><path d="m548 466 3 10q-7-8-20-15a114 114 0 0 0-63-10q-13 3-20 9v-1l1-2 6-13q17-9 44-4 29 5 45 18zm0 0-2-5-2-3q-16-13-45-18-27-4-44 4l-4 8-2 5-1 2v1q7-6 20-9h31q18 3 32 10 13 6 20 15z"/><path fill="#fd0" d="m498 454 2 7 2-6z"/><path d="m499 454 1 6 2-5-2 6z"/><path fill="#fd0" d="m495 452-1 7 4-5z"/><path d="m496 453-1 5 3-4h1l-4 5h-1z"/><path fill="#fd0" d="m493 449-4 5 6-2z"/><path d="m493 450-3 4 5-2v1l-5 1h-1z"/><path fill="#fd0" d="m492 446-5 3 6 1z"/><path d="m492 446-5 3 6 1-6-1h-1 1z"/><path fill="#fd0" d="m492 443-6 1 6 3z"/><path d="m492 443-5 1 5 2v1l-6-3v-1z"/><path fill="#fd0" d="m494 441-7-2 5 5z"/><path d="m494 441-6-2 4 5-5-5v-1z"/><path fill="#fd0" d="m496 439-6-4 3 6z"/><path d="m496 439-5-4 3 6h-1l-3-6v-1 1z"/><path fill="#fd0" d="m499 438-4-6 1 7z"/><path d="m499 438-4-5 1 6-1-7z"/><path fill="#fd0" d="m502 439-2-7-2 6z"/><path d="m501 439-1-6-2 5 2-6z"/><path fill="#fd0" d="m505 441 1-7-4 5z"/><path d="m504 441 2-6-4 4h-1l5-5z"/><path fill="#fd0" d="m507 443 3-5-6 2z"/><path d="m506 443 4-4q-5 0-5 2l-1-1 6-2z"/><path fill="#fd0" d="m508 446 5-3h-6z"/><path d="m508 446 4-3h-6 7z"/><path fill="#fd0" d="m508 449 6-1-6-2z"/><path d="m508 449 5-1-5-2v-1l6 3z"/><path fill="#fd0" d="m507 452 6 1-5-4z"/><path d="m507 451 6 2-5-4v-1l5 5h1-1z"/><path fill="#fd0" d="m505 454 6 3-4-6z"/><path d="m505 453 5 4-3-6 4 6v1-1z"/><path fill="#fd0" d="m502 455 4 5-1-6z"/><path d="m502 455 4 5-1-6 1 7z"/><path fill="#fd0" d="M508 448q0 7-8 7-8-2-8-10 0-7 8-7 8 2 8 10"/><path d="M508 448q1 3-2 5t-6 2a10 10 0 0 1-8-10q0-3 2-5l6-2a10 10 0 0 1 8 10m0 0-2-6-6-4-6 2-2 5 2 6 6 4 6-2zm-11-4-1-1h1zm-2-1 2-1 1 2-2-1zm9 2v-1zm-2-1 1-1 2 2-2-1zm-3 3h1v1zm3 3h-2l-2-1h3zm-3 1 1 1h-2zm-31-6h-3l1 2v1l-1 1-1-1-1-1v-2h-3v1-4q3-1 4 2 1-2 4-2zm-1 0-1-1-2 1-1 1v-1l-3-1v1l3 1v1-1h1-1 1v-1zm-3 3-1-1v-1 2h2zl-1-1v-1zm17-7-1 1-1 2-1 3-3-4-2-2 1-1h1v1l4-1-1-1h1zm0 0h-1l-3 1-2-1 1 1h1v1l2 3 1-2v-2 1l-1 2-2-1v-2l2-1h1v1-1zm-2 4v-1h-1zm43 5 1 1h4v2h-3l1 3-1 1-1-1-1-2-1-1-1-1v1h-3v-2h2v-1l-1-2v-1h1l1 1zm0 1h1zm15 7 1 2-1 2h-2l-3-4 1-3 1-1v4l1 1zm0 1h-2v1-1l-1-1-1-2v2l3 3 1-1zm-1 2-1-1 1-1 1 1zm-1-3 1-2h1q3 0 4 3v3l-1 1-1-1v-3h-3m0-1h3l1 3v-2l-3-3h-1zm0-1h1v1zm1 0"/><path fill="#fd0" d="M467 445v-2l-4 2-4-1v2q0-2 4 0-1 1 1 4 2-2 0-4zm-3 3v-1zm17-7h-1zh-5v-1 1l1 1q1 0 0 0l3 4 1-4 1-2m-2 5-2-3h2zm41 5h2l1 1h4v2h-3l1 3h-2v-3l-3-1v1h-3v-2h3zh-1l-1-2v-1h1l1 1zm0 1 3 2v-1l-2-1zm4 1h1zm-4-2-1-1v-1zm3 4h1zm13 5h-2q-1 1-1-5l-1 4 2 3q2 1 2-1zm-1 2v-1zm-1-3 2-1q1-1 2 5v-4q1-1-3-3l-2 2zm-37 90v-2l16 3v2z"/><path fill="#5c5342" d="m517 547 4 1v1l-4-1z"/><path d="M523 549v2zl-2-14zl2-4zm-9-1v2zm1 0v2zm1 1v1zm0 0v1zm1 0v1zm1 0v2zm0 0v2h-1zm1 0v2zm1 0v2zm1 0v2zm0 0v2h-1zm3 1v1zm1-3v4zm-3 1v3zm0 3 2-1h1v1l-1-1zm2 0 2-1v1zm-3-4 1 1zm1 1v-1zm-4-11-6-1zm-6-6 2 17-2-9v-1l2 7-2-13zm1 17-1-11v1zm-1 0v-5zm0-8-1 7v1zm0-4-2 11zm0 3-9 4z"/><path fill="#858d8d" d="M517 547h4v1z"/><path fill="#755338" d="m524 549 1-5h1z"/><path fill="#fd0" d="m528 547-1-2-2-1v1l1 1zv1z"/><path fill="#034ea2" d="m526 546 2 2v-1z"/><path fill="#ed1c24" d="m525 546 1 1 2 1-2-2z"/><path fill="#a37853" d="m512 539 9-4zm0-3v12zv-9zm-1 12 14 2v-1z"/><path fill="#616264" d="m505 544 2 1zl-2 1h-3l2-1 1-1z"/><path fill="#a3a5a8" d="M511 548q-1-3-4-3t-4 2z"/><path d="m511 548-8-1v-1 1l1-1 3-1q4 0 4 3m0 0q0-3-4-3l-3 1-1 1z"/><path fill="#797a7d" d="M510 546q0 2 0 0m-1-1q0 1 0 0m-5 1"/><path fill="#939598" d="M507 545q-5-1-5 1l1 1q1-2 4-2"/><path d="m507 545-3 1-1 1-1-1h1q1-2 4-1m-1 0q-1-1-3 1h-1 1v1l1-1z"/><path fill="#442c13" d="M498 546v-2l3 1v1z"/><path d="m498 544 3 1v2l-3-1zm0 2h3v-1h-3v-1z"/><path fill="#442c13" d="M499 540v5z"/><path d="M499 540v5zm0 0v5z"/><path fill="#442c13" d="M501 540v5z"/><path d="M501 540v5zm0 0v5z"/><path fill="#442c13" d="M503 544v-4h-1z"/><path d="M503 544v-4h1zm0 0-1-4z"/><path fill="#442c13" d="m505 544 1-4z"/><path d="m505 544 1-4zm0 0 1-3z"/><path fill="#442c13" d="m502 540-1 5h-1z"/><path d="m502 540-1 5h-1zm0 0-2 5h1z"/><path fill="#442c13" d="M503 540v4h1z"/><path d="m503 540 1 4h-1zm0 0v4z"/><path fill="#a48b58" d="M506 540h-7l4 1z"/><path d="m506 540-3 1-4-1zm0 0h-7l4 1z"/><path fill="#a37853" d="M499 540h7z"/><path d="m499 540 3-1 4 1zm0 0h7zm3 4 1 1zm0 0 1 1zm0 0 1 1z"/><path fill="#939598" d="M501 546q1-2 4-2-5 0-5 2z"/><path d="M501 546h-1zl4-1zm0 0 3-1zl-1 1z"/><path fill="#fd0" d="M516 551h9l-11-1z"/><path fill="#696161" d="M492 534h-2v2h1l1-1 2 1 1-1 1 1h7l2 1h3l1-1q1 0 0 0h-3l-1-1h-7l-2-1-1 1-2-1z"/><path fill="#84848a" d="m492 547-1-1v-10h1l1 1z"/><path fill="#453717" d="M498 546h-2v1h3z"/><path fill="#6a5e46" d="M495 546h-1v1l2 1z"/><path fill="#2f2311" d="M493 547v-2zh-1v1zm-6-2v-2h-1zh-1zl-1 1 3 1v-2z"/><path fill="#acacad" d="M492 541h-1v1z"/><path fill="#2f2311" d="M489 547h1v-1h-1z"/><path fill="#453717" d="M485 546v-1h-1v-1h-2v-1 1h-4v-2 2l-2-1 1 1z"/><path fill="#895f33" d="m476 544-4-2-5-3v1zh1z"/><path fill="#fff" d="M492 534h-2v2h1l1-1 2 1 1-1 1 1h7l2 1h3l1-1q1 0 0 0h-3l-1-1h-7l-2-1-1 1-2-1z"/><path fill="#ffe600" d="m514 550-17-3-13-2-8-2-5-2 1 2 5 2 7 2 23 3 3 1v-1h14z"/><path d="m475 547-6-6zm1-2v-1zm0 0"/><path fill="#565759" d="M476 546v-1h1l-1-1zv-1z"/><path d="M476 546v-1zv-2h1v2m0 0v-1h1-1zm13 1q0 1 0 0m31 5"/><path fill="#ed1c24" d="m474 546 3 2 8 2 38 5-1-2h-7q-1 0 0 0l-17-3-14-2-8-2z"/><path fill="#034ea2" d="m524 552-13-2v1l-3-1-23-3-7-2-5-2 2 2 2 1 8 2 14 2 17 3q-1 0 0 0h8z"/><path fill="#fd0" d="M498 548v-2l16 3v2z"/><path fill="#9b7e39" d="M507 554v-2zm-1-3v2zm-1 1 1-2zm-1 0v-1zm4 2-1-1zm1-1v-1h-1zm1 0h-1z"/><path fill="#fff" d="M498 530h3-1l-1-1h-1l-1-1h-4l-1-1h-1l-1 1h-2 1-1 1l1 1h2l1 1v-1 1h4"/><path fill="#999b9e" d="M500 530h-6v-1 1-1h-2 1-1l-1-1h-1 1-1 2l1-1h1l1 1h4l1 1zl1 1h1-2m-2 0h1zh3-1l-1-1h-1l-1-1h-4l-1-1h-1l-1 1h-2 2-1 1v1h3v1-1 1q0-1 0 0h4"/><path fill="#d0c9ce" d="m500 530-1-1zm0 0-1-1zm-1 0-1-1zm0 0-1-1zm-3-1h1l1 1h-1v-1zm1-1v-1zm-3 0h-1v-1zm-4 0h1-2m2 1"/><path fill="#2f3b30" d="m494 544 1-1 2-1-1-2 1-2-1-2 2-1-1-3-1-1v2q2 0 1 2l-2 1v1l2 1-2 2v1l1 1-1 1z"/><path fill="#fff" d="m494 544 1-1 1-1-1-1v-1l2-2-2-1v-1l2-1q1-1-1-2v-2 1-1l1 1 1 3-2 1 1 2-1 2 1 2-2 1zm0 0 1-1 2-1-1-2 1-2-1-2 2-1-1-3-1-1v1l1 1v2l-2 1v1l2 1-1 2-1 1 1 1-1 1z"/><path fill="#2f3b30" d="m496 544-1-2 1-1-1-2 1-2-2-2 1-3h1v1-1l-1 1-1 2 2 2v1l-1 1 1 2v1l-1 1z"/><path fill="#fff" d="m496 544-1-2 1-1-1-2 1-2-2-2 1-3h1l-1 1-1 2 2 2v1l-1 1 1 2zm0 0-1-1-1-1 1-1v-1l-1-2 1-1v-1l-2-2 1-2 1-1-1 1 1-1h-1l-1 3 2 2-1 2 1 2-1 1z"/><path fill="#64472d" d="M495 528v19h-1zm0-1"/><path d="M525 423q17 13 26 35 10 22 10 48 1 31-14 53-14 21-35 24v-1q21-3 34-24 15-21 14-52 0-25-10-47t-25-35zm-1 2q16 12 26 34 9 22 10 47 0 30-14 51-13 21-34 24v-1q20-3 34-23 13-21 13-51 0-25-10-47-9-21-25-34m-37 153 13 4h13v1a47 47 0 0 1-27-4zm60-32-7 11-9 10a42 42 0 0 1-21 9h-1v-1a42 42 0 0 1-20-3v1h-1a56 56 0 0 1-19-15l-16-24 1-1 13 22 2 2q9 9 19 14v-1l1 1 11 3h10v1h2q10-2 18-9h1a56 56 0 0 0 15-22z"/><path fill="#b1babf" d="M525 423s-11-9-26-11c-12-1-24 3-24 3q-20 9-29 34-8 17-8 39c1 41 23 77 51 90l10 3 11 1c28-3 51-33 51-75-1-55-41-88-36-84m-15 154-11-1-10-3c-26-11-45-45-46-83q1-21 7-37 10-21 27-30c1 0 12-5 22-4 14 2 24 11 24 12 19 15 32 44 32 76 0 38-19 67-45 70"/><path fill="#c69024" d="M475 416c-22 10-36 37-36 72 0 40 20 76 48 89l-1 1c-28-13-48-49-48-91 0-34 14-61 35-72z"/><path fill="#080101" d="M475 416q-16 7-26 26-10 20-10 45 0 30 14 55 13 24 34 34l-1 1q-20-10-35-34a118 118 0 0 1-4-102q10-19 26-27zm-1 0q-16 8-25 27-10 20-10 45 0 31 14 56 13 25 34 35l1-1q-20-10-35-34a115 115 0 0 1-3-100q10-20 25-27"/><path fill="#c69024" d="M524 424c22 17 36 48 36 82 0 41-20 71-48 75l1 1c28-4 48-34 48-76 0-34-14-66-35-83z"/><path fill="#080101" d="m524 424 2-1q16 13 26 35 10 23 10 48 0 31-14 52-14 22-35 25l-1-2q21-3 34-24 14-21 14-51 0-25-10-48-10-21-26-34m1 0q16 13 25 34 10 23 10 48 0 30-13 51-15 21-35 24l1 1q21-3 34-24 14-21 14-52 0-26-10-48t-25-35z"/><path fill="#c69024" d="M477 424c-19 9-32 34-32 65 0 38 18 71 43 82l1 2h-1c-26-12-44-46-44-84 0-32 13-57 32-66z"/><path fill="#080101" d="M454 448q-9 18-9 41 0 29 12 51 13 23 31 31h1v3l-1-1q-20-8-32-32a109 109 0 0 1-4-94q9-17 24-25l2 2h-1q-14 7-23 24m23-24-1-1q-15 7-23 25-9 18-9 41 0 28 12 52 13 23 32 32h1l-1-1q-18-9-31-32a107 107 0 0 1-3-92q9-18 23-24"/><path fill="#c69024" d="m525 423-3 7h-1c-3-2-11-8-22-10-9-1-19 2-21 3l-4-8 1-1s12-5 24-4c15 3 26 13 26 13"/><path fill="#080101" d="m525 422-4 8-1-1q-10-8-22-10-10-2-21 4v-1l-4-8 1-1 8-3q9-2 16-1a53 53 0 0 1 26 12m-8-5q-9-5-18-7-7-1-16 2l-8 2-1 1 4 8q11-5 21-3 12 1 22 10l4-7z"/><path fill="#c69024" d="M522 431c19 15 32 43 32 75 0 38-18 65-44 69l1 2 1-1c25-4 43-32 43-70 0-32-13-60-32-76l-1-1z"/><path fill="#080101" d="m522 431 1-2 1 1q15 12 24 32 9 21 9 44 0 29-13 48-12 19-31 23h-2v-2q19-3 32-22 12-19 12-47 0-23-9-44-9-20-23-31m0-1q15 12 23 32 9 21 9 44 0 28-12 47-13 19-31 22v1q19-3 32-22 12-20 12-48 0-23-9-44-8-20-23-32z"/><path fill="#c69024" d="M526 424q-2 1-3 5l-1 2-2-1 1-2q0-4 4-6z"/><path fill="#080101" d="M527 424q-3 1-4 5v3h-1l-2-2v-2q2-5 5-6zm-1 0h-1q-3 0-4 5v2l1 1v-2q1-4 4-5"/><path fill="#c69024" d="M472 416q3 2 4 6v3l2-1v-3q-1-4-4-6z"/><path fill="#080101" d="M472 416h2q3 2 4 6v3l-2 1v-3q-1-4-4-6m0 0q3 2 4 6v2h2v-3q-1-5-4-6h-1z"/><path fill="#c69024" d="m513 583-1-1-2-4v-4h-11l-10-3v3l-2 3-1 1 1 1q1 3 3 3 1 4 3 2v1l2 3 1 1 3 5h1l3-4 1-1q2-1 2-3 1 2 3-1 2 1 3-2z"/><path fill="#080101" d="m513 582-1 2h-2l-2 2h-1l-2 2-1 1-1 2-2 3-1-1-2-3-1-2-1-1-1-1-1-2-2-1-1-2-2-1-1-2-1-1 1-1 2-3v-3q-1 0 0 0l10 3h11v3zm-20 3 2 2v1l1 1 1 2 2 3h1l1-2 1-2 1-1h1l2-2-1-1h1l1 1 1-2h1l2-1 1-1v-1l-2-4-1-3-10-1-10-3v3l-2 3-1 1h1v1l1 2 2 1 2 2z"/><path fill="#c69024" d="m514 582-3-7-2-1v3q1 5 4 6z"/><path fill="#080101" d="M514 582h-1q-3-1-4-6v-3h2v3l3 5m0 0q-3-2-3-5v-2l-2-1v3q1 5 4 6z"/><path fill="#c69024" d="m485 578 3-5v-2h2v3q-1 4-4 5z"/><path fill="#080101" d="m485 578 3-5v-2h2v3q-1 4-4 5zm0 0 1 1q3-1 4-5v-3h-2v2q0 4-3 5"/><path d="m490 582 2-4zm3 3 3-4v-1zm3 4 2-5zm13-5q-2-1-2-4v1q-1 2 2 4zm-3 2-3-5v1zm-4 4-1-5zq1 0 0 0"/><path fill="#452c25" d="M461 371c-1 1-3 6-2 7q3 3 9-5c3-5-2-4-2-4z"/><path d="m460 371 6-2h2l1 1-1 3q-2 5-5 5l-4 1v-5zm1 0-2 4v3h4l5-5 1-3-1-1h-2z"/><path fill="#452c25" d="M478 378v10q3 3 5-5 1-9-1-7z"/><path d="M478 378v10h3q2-1 2-5v-6l-1-1zl4-2q2 0 2 7-1 4-3 5h-3z"/><path fill="#452c25" d="M481 368c0 1-3 9 0 12 3 2 5-8 5-12 0-2-5 0-5 0"/><path d="m481 368 3-1h2v1l-1 8-2 4h-2q-3-1-1-7zm0 0-1 5q-1 6 1 7l2-1 1-3 2-8-1-1h-1z"/><path fill="#452c25" d="m483 381 2 10q3 0 5-4l-3-9z"/><path d="m483 381 2 10 3-1 2-3-3-8zl4-3 3 9-2 3q-1 2-3 1-2 0-2-10"/><path fill="#452c25" d="M483 370s-3 9 0 12c3 2 5-9 6-12z"/><path d="m483 370 3-1h2l1 1-2 8-2 4h-2q-2-1-1-7zm0 0-1 5 1 7 2-1 2-3 1-8v-1h-2z"/><path fill="#452c25" d="M483 354s-4 4-4 7c1 2 6-3 7-4z"/><path d="m483 354 2 1 1 2-3 3-3 2h-1v-1q0-3 4-7m0 0q-4 4-4 7h1l2-1 4-3-1-2z"/><path fill="#452c25" d="M480 351s-3 6-2 8q2 2 6-3c1-2-3-5-4-5"/><path d="m480 351 3 2q2 2 1 3l-4 4h-1l-2-1zm0 0q-3 6-2 8l1 1 1-1 4-3q1-1-2-3z"/><path fill="#452c25" d="M472 351s-2 8 0 10c3 2 5-5 6-9q-3-3-6-1"/><path d="m472 351 3-1h2l1 2-2 7-2 2h-3q-2-1 1-10m0 0v10h2l2-3 1-6v-1l-2-1z"/><path fill="#452c25" d="M477 351c0 1-4 4-4 7 1 3 6-2 7-3z"/><path d="m477 351 2 1q2 1 1 3l-4 3-2 1h-1v-1q0-3 4-7m0 1q-4 3-4 6v1h1l2-1 4-4-1-1z"/><path fill="#452c25" d="M400 341c-1 0-9 4-10 6s27 0 44-9l-7-5z"/><path d="m400 341 27-8 7 5q-11 6-29 9h-16q1-3 11-6m0 0q-10 4-10 6h4a96 96 0 0 0 40-9l-7-5z"/><path fill="#452c25" d="M411 344s-17 4-5 6c0 0 24-2 38-10l-4-5z"/><path d="m411 344 29-10 4 6q-9 5-24 9l-14 2-5-2 3-3zm0 0-7 3-2 2 4 1 14-2q15-3 23-8l-3-5z"/><path fill="#452c25" d="M436 330c-1 0-17 7-16 8 2 2 14 1 21-3l10-5-8-3z"/><path d="m436 330 7-4 8 4-9 6a43 43 0 0 1-22 3v-1l1-2 6-2zm0 0-16 8h9q7 0 12-3l10-5-8-3z"/><path fill="#452c25" d="m429 350-6 5c2 1 14 1 25-6l-2-5z"/><path d="m429 350-5 5h8q9-1 15-6l-1-5zl18-6 1 5q-7 5-16 6h-9l1-1 2-2z"/><path fill="#452c25" d="M418 347c-1 1-6 4-5 5 2 1 7 5 30-7l3-1-4-7z"/><path d="m418 347 24-10 4 7-3 1q-22 12-30 8v-2l2-2zm0 1-5 3v1q8 4 30-7l2-1-4-7z"/><path fill="#452c25" d="M413 328c-19 5-39 17-39 17l44-13 6-2z"/><path d="M413 329a134 134 0 0 0-37 15l23-7 25-7v1l-25 7-25 7v-1a155 155 0 0 1 39-16z"/><path fill="#452c25" d="M456 366s-4 5-3 7c1 1 5 4 12-4 5-7-5-8-6-8z"/><path d="m456 366 3-5 5 1 2 3q1 2-1 5-4 4-8 4l-5-1zm0 0q-5 6-3 7l4 1q3 0 7-5l2-4-2-2-5-1z"/><path fill="#452c25" d="m451 359-5 9c2 1 8 2 14-5l-1-8z"/><path d="m451 360 8-4 1 7 2-2h1l-3 3q-3 5-8 6l-6-1 2-5zm0 0-3 3-2 5h6q5 0 8-5l-1-7z"/><path fill="#452c25" d="M445 355s-5 6-5 8c1 1 8 2 15-5 7-6 2-9 2-9z"/><path d="M445 355q-5 6-5 8h5q6 0 10-5 5-4 3-7l-1-2zl12-6 2 3q0 4-3 8l-11 5-5-1q-1-2 5-8"/><path fill="#452c25" d="m434 354-4 4c1 1 1 6 15-2l13-6-8-3z"/><path d="m434 353 16-6 8 2v1h-2l-11 6q-9 6-12 4l-3-1v-1zm0 1-3 5 2 1 12-4 11-6h1l-6-3z"/><path fill="#452c25" d="m392 340-9 3s-2 1 3 2q7 3 33-8l14-7-7-3z"/><path d="m392 340 34-13 7 3-13 8q-21 9-34 7l-3-1v-1zm0 0-9 3 3 2q13 1 33-8 9-3 13-7l-6-3z"/><path fill="#452c25" d="M377 344s12-1 17-3h5l36-13-1-3-6 2-36 11c-3 0-15 6-15 6"/><path d="m377 344 15-6 42-12 1 3-35 13-6 1v-1q-5 3-17 3m1-1 16-2h1l4-1 36-12-1-3-42 13z"/><path fill="#452c25" d="M466 372v10q3 1 7-8c1-6-6-6-6-6z"/><path d="M466 372v10q1 1 3-2 3-2 4-6 1-3-2-5l-4-1zl2-3 4 1q3 2 3 5l-4 7q-3 2-4 1z"/><path fill="#452c25" d="m472 377 1 8q2 3 6-4c3-5 1-3 1-3l-6-5z"/><path d="m472 377 2-4 6 4h1l-2 4q-2 4-4 4h-3zm0 0 1 8h2l4-4 1-3-6-5z"/><path fill="#452c25" d="M474 365s-5 10-2 11c3 0 7-8 7-10q-2-2-5-1"/><path d="M474 365h3l2 1 1 1-3 6q-3 4-5 4l-1-1v-1l1-4zm0 0-3 9v1l1 1 4-4 3-6v-1z"/><path fill="#452c25" d="M474 364c-1 1-2 12 0 12 3-1 5-9 5-12z"/><path d="m473 364 3-1h3v1l-1 7-3 6-2-1zm1 1-1 10 1 1q3 0 4-5l1-7-1-1-2 1z"/><path fill="#452c25" d="M478 366c0 1-3 9 0 12 3 2 5-8 5-11s-5-1-5-1"/><path d="m478 366 3-1h2v2l-1 7-2 4h-2q-3-1-1-7zm0 0-1 5q-1 6 1 7h2l1-4 2-7-1-1z"/><path fill="#452c25" d="M466 361c-1 1-2 8-1 10 4 2 6-5 6-8 0-4-5-2-5-2"/><path d="m465 361 2-1 2 1 1 2-2 6-1 2h-3zm1 0q-3 9-1 10h2l2-2 2-6-1-2z"/><path fill="#452c25" d="M443 339s-7 5-7 7c2 1 10 0 15-2l6-4-8-5z"/><path d="m443 339 6-4 8 5v1l-6 3-9 2h-6l3-4zm0 0-3 3-4 4h6a24 24 0 0 0 14-6l-7-5z"/><path fill="#452c25" d="M450 333s-4 3-4 5c2 1 10-2 12-3l2-4z"/><path d="m450 333 10-2-2 4-6 2-6 1 2-3zm0 0-2 2-2 3 6-1 6-2 1-4z"/><path fill="#452c25" d="M455 333s-6 5-5 7c3 2 11-5 13-6 0-2-7-1-8-1"/><path d="M456 332h7v1l-7 5q-5 3-6 1-1-3 5-7zm-1 1-3 3-2 4q2 1 6-1l6-5 1-1z"/><path fill="#452c25" d="m453 330-14 5c-1 0-12 6-11 7s10 0 17-3l14-7z"/><path d="m453 330-14 5-11 7h6a59 59 0 0 0 25-10l-14 7-11 3h-6v-1l1-1 4-2 5-4z"/><path fill="#452c25" d="M456 338c0 1-14 11-12 13q5 2 17-6z"/><path d="m457 338-13 12v1q2 2 6-1l11-5-10 6h-8v-1l1-2 5-4z"/><path fill="#452c25" d="M459 342c0 1-9 14-8 16 1 1 7-2 10-6l6-8z"/><path d="M459 342q-9 15-8 16h1l3-1 6-5 5-8h1l-6 9-6 4-3 2-1-1q-1-1 8-16"/><path fill="#452c25" d="M463 345s-9 16-8 18q3 3 10-5l3-11z"/><path d="m463 345 5 2-3 11-6 6-4-1q-1-1 8-18m0 0-8 18h4q3-1 6-5l3-11z"/><path fill="#452c25" d="M469 347c-1 0-10 19-9 22 3 2 13-14 14-17 1-4-5-6-5-6z"/><path d="m469 347-5 10q-5 10-3 12l2-1 5-5 6-11q0-3-2-4zl3 1q3 2 3 5l-7 11-5 5-1 2-2-1q-2-1 4-12z"/><path fill="#452c25" d="M447 329c-1 0-9 3-8 4 3 1 11-1 12-1 1-1-4-3-4-3"/><path d="m447 329 5 2v1h-2l-11 2v-1l1-1 2-1zm0 0-7 3-1 1h1q1 1 10-1l1-1-2-1zm4 2"/><path fill="#452c25" d="M448 331s-5 3-4 5c1 1 9-2 11-4 1-1-6-1-7-1"/><path d="m449 330 6 1 1 1v1l-7 2-5 1v-2l1-1zm-1 1-4 4v1l5-1 6-3-3-1z"/><path fill="#452c25" d="M460 333s-7 9-5 10c3 1 11-5 12-6-1-2-6-4-7-4"/><path d="m460 333 7 4-5 4q-6 3-7 2h-1l1-2 2-3zm0 0-5 8v2l6-2 5-4q1-1-6-4"/><path fill="#452c25" d="M464 336c-1 0-8 9-6 10h3l7-6c0-2-4-4-4-4"/><path d="m464 336-6 8v2h2l7-6q1-1-3-4 4 2 4 4l-7 6-1 1h-2l-1-1 1-2 2-3z"/><path fill="#452c25" d="M467 339c-1 0-6 9-5 10q3 1 7-4c2-3-2-6-2-6"/><path d="m467 338 2 2v4l-7 5v-3l1-3zm0 1-5 9v1q2 2 6-4v-4z"/><path fill="#452c25" d="m468 344-3 8q3 2 7-3c1-2-4-5-4-5"/><path d="m468 344 3 2 1 3-4 4h-1l-2-1q-1-2 3-8m0 0q-3 6-2 8l1 1 1-1 3-3q2-2-1-3z"/><path fill="#452c25" d="M470 363c-1 1-2 8-1 10 4 2 6-5 6-8 0-4-5-2-5-2"/><path d="m469 363 3-1 2 1 1 2-2 6-2 2h-2zm1 0q-3 9-1 10h2l2-2 2-7-1-1z"/><path fill="#452c25" d="m486 353-4-1-8-6q-3-1-1-1l-1-8s0-6-5-8l-16-3q-2-3-18-2c-10 1-31 8-32 8l31-5h9s-8 3-1 3h6q-2 2 4 2h4q1 3 8 1s2 7 5 9c0 0 2 6 8 8l4 3 3 2z"/><path d="m486 353-4 2-3-2-4-2-6-6-3-3-4-9h-8v-1h-4l-4-1v-1h-9v-1h1l2-1h-8l-19 3-9 1h-4 1l4-1 28-8q11-1 18 3l7 1 9 2q3 0 5 5v3l1 8 1 1q2 0 8 5zm-1 0-3-1-10-7h1l-1-7v-1l-1-3q-1-4-4-5l-9-1-7-2q-7-3-18-2l-28 7-2 1 1-1 9-1 19-3h9v1l-4 1h3l6 1q1 0 0 0v1l4 1h4q5 3 8 1h1q1 7 4 8l2 4q3 4 6 5h1l3 3 3 2z"/><path fill="#452c25" d="M437 327c-1 0-23 6-23 8 1 2 24-3 29-5 3-2-5-3-6-3"/><path d="m437 327-12 3-11 5q1 2 13-1l16-5-2-1zl4 1 3 1-1 1-16 4q-13 3-13 1-1-2 23-8"/><path fill="#452c25" d="m602 374 10 6s2 2-3 1c-5-2-16-7-36-23-10-8-12-8-12-8l12 2z"/><path d="m602 373 10 7v1h-3q-13-5-36-23l-12-8 12 2zm0 1-29-22-10-2 10 7a146 146 0 0 0 38 24h1l-1-1z"/><path fill="#452c25" d="m605 372 10 6s2 2-3 1c-5-2-16-7-36-23-10-7-2 4-2 4l2-7z"/><path d="m605 371 10 7v1h-3q-14-5-36-23l-1-1-1 6v-1l-3-5v-1l1-1 3 2v-2zm-30-16a146 146 0 0 0 38 24h1v-1l-10-6-29-18zm0 0-3-2-1 1 1 1 2 5z"/><path fill="#452c25" d="M621 379s-11-4-15-7l-5-2s2 5-14-8c-15-13-10-7-10-7h5l26 14z"/><path d="M621 379q-11-4-15-7h-1l-4-2-1 1-13-9-8-7-2 1-1-2h1l2 1h3l13 7 13 7zm-1-1-12-9-13-7-13-7h-3l9 7 12 9 1-1-1-1 1 1 4 2h1q3 3 14 6m-42-23-1-1v1z"/><path fill="#452c25" d="m562 375 4 6c0 1-1 5-14-7l-13-11h7z"/><path d="m562 375 4 6-2 2q-4-1-13-8l-11-11h-1v-1h7zl-16-11h-6 1l11 10q7 8 12 8l2-1z"/><path fill="#452c25" d="M545 376s6 8 5 9q-4 3-14-9c-5-9 0 0 0 0l1-13z"/><path d="m545 375 3 5q3 5 2 6l-6-2q-5-2-8-8l-2-4 2 3v-13zl-8-12-1 13 8 8q5 2 6 1l-2-5z"/><path fill="#452c25" d="m551 373 6 9c-1 1-9 0-16-9-6-9-1-10-1-10z"/><path d="m552 373 5 10-6-2q-6-2-10-8-4-5-3-9l2-1v-1zl-11-9-2 2 3 8q4 6 10 8 5 3 5 1 1-1-5-9z"/><path fill="#452c25" d="M585 373s16 9 4 7c0 0-24-10-37-23l4-4z"/><path d="m585 373 7 4 2 3-5 1a158 158 0 0 1-37-23v-1l4-4zl-28-20-3 5q7 7 22 16l14 6h4l-2-2z"/><path fill="#452c25" d="m593 372 10 9c0 2-27-9-43-24l7-3z"/><path d="M594 372q9 7 9 9h-1l-3-1-12-4q-16-9-27-19l7-3zm-1 0-26-18-7 3a108 108 0 0 0 43 24z"/><path fill="#452c25" d="m567 373 6 7c-1 1-14-3-24-13l1-4z"/><path d="m567 373 6 7v1l-9-3q-9-4-15-11h-1l2-5zl-17-10-1 4q6 6 16 11 7 3 8 2l-1-1-2-2z"/><path fill="#452c25" d="M578 375c1 0 6 4 5 5s-6 4-30-14l-3-2 4-5z"/><path d="m578 374 6 6-1 1q-7 2-30-15l-3-2 4-6zl-24-15-3 5 2 2q23 17 30 14v-1l-2-2z"/><path fill="#452c25" d="M554 358s7 7 7 9c-2 0-10-3-15-7l-7-8 9-1z"/><path d="m554 357 4 5 3 5-6-2q-6-2-9-5l-7-8 9-1zm0 1-6-6h-8l6 8 9 5 5 2q2-1-3-5z"/><path fill="#452c25" d="m545 344 14 11 10 11c-1 0-10-4-17-9-6-4-14-13-14-13z"/><path d="m545 344 14 11 10 11-6-2-11-6-14-14 14 13 11 6q4 3 6 2l-1-1-9-9z"/><path fill="#452c25" d="M536 384s2 7 1 8q-4 1-9-9c-3-6 2-3 2-2z"/><path d="m536 384 1 4v4q-2 1-4-2l-6-10v-1h1l2 1zm-1 0-5-3-2-1h-1l1 3 5 7q3 2 4 1v-3z"/><path fill="#452c25" d="M540 380c0 1 4 7 3 8s-5 2-11-7c-5-10 5-6 5-6z"/><path d="M543 388h-4q-4-1-8-7l-1-5 2-2 5 1h1l2 5q4 7 3 8m-3-8-3-5-5-1-2 2 2 5q4 6 7 7h4q2-1-3-8"/><path fill="#452c25" d="m528 348 13 30q-4 2-10-8l-5-18z"/><path d="M528 348q14 29 12 30-1 2-4-1l-6-7-5-18zm0 0-2 5 6 17 5 7q3 2 4 1z"/><path fill="#452c25" d="M544 357c1 1 11 11 9 13q-3 1-13-10c-6-7 4-3 4-3"/><path d="m544 357 10 12-1 1q-4 2-13-10l-3-4 2-1zl-5-1-1 1 2 3q9 11 13 9v-2l-4-4z"/><path fill="#452c25" d="m539 357 7 17q-4 0-10-9l-6-10z"/><path d="m539 356 7 18h-2l-3-2-5-7-6-10h1l5 10 8 9h2z"/><path fill="#452c25" d="M531 350s5 11 4 12q-3 0-7-7 0-6 3-5"/><path d="m531 349 4 11v2q-2 0-7-7-2-2 1-4zm0 1-2 1v4l6 7v-2l-2-4z"/><path fill="#452c25" d="M531 372c0 1 2 9 0 10-4 1-5-7-6-10 1-4 5 0 6 0"/><path d="M531 372v11l-2-1-2-3-2-7 1-2h2zm0 0-3-1h-2v1l1 7 2 3h2z"/><path fill="#452c25" d="m524 386-1 7q-1 3-6-6c-3-6-1-4-1-4l6-2z"/><path d="m524 386-1 8-2-1q-3-1-4-6l-2-4h1l6-2zl-2-4-6 3 1 3 4 6h2z"/><path fill="#452c25" d="M530 385v8q-4-1-7-8c-1-5 6-3 6-3z"/><path d="M530 385v8l-4-2-4-6 1-3h6zl-1-2-4-1-2 1v2l3 5 4 3z"/><path fill="#452c25" d="m524 362 6 20c-3 4-9-11-11-18s4-3 5-2"/><path d="M524 362q8 18 6 20l-1 1-2-1-3-5-6-13v-3l2-1zm-1 0-3-2-1 1v3l8 18h3z"/><path fill="#452c25" d="M520 364c0 1 10 19 6 20-4-1-12-15-13-19-1-3 6-1 7-1"/><path d="m520 364 7 17v2l-1 1q-3 0-8-8l-6-11 1-2h3zm0 0-4-1-3 1v1l5 11 8 8 1-1v-2l-3-7z"/><path fill="#452c25" d="M519 368c1 0 5 17 2 16-3-2-7-16-7-19s5 2 5 3"/><path d="m520 368 2 15v1h-1l-5-9-2-11 2 1zm-1 0-3-3-2-1v1l3 10 4 9h1v-2l-1-5z"/><path fill="#452c25" d="M537 345c0 1 7 12 5 13-3-1-11-9-12-11z"/><path d="m537 345 5 11 1 1-1 1-7-5-5-6q0-2 7-2m0 0-6 2 4 6 7 5v-2l-2-4z"/><path fill="#452c25" d="M532 345c1 0 9 14 7 15q-4-1-3-2l-9-10q2-3 5-4z"/><path d="m532 345 7 12 1 2-1 1-3-1v-1l-9-10q0-3 5-4zq-5 2-4 3l8 10v1l3 1v-2l-3-6z"/><path fill="#452c25" d="M551 347s8 5 7 6l-12-5c-1-1 4-1 5-1"/><path d="m551 346 7 6v2l-11-5-1-1v-1h2zm0 1h-5v1h2q8 6 10 5l-1-1-2-2zm-5 1"/><path fill="#452c25" d="M542 346c0 1 6 8 5 11-3 1-11-10-13-13z"/><path d="m542 346 3 5q3 5 2 6l-3-1-3-3-6-8-1-1h4zl-8-2h1v1l10 11h2l-2-5z"/><path fill="#452c25" d="M526 354s10 22 8 25c-2 1-13-18-14-21 0-3 5-5 6-5z"/><path d="M526 354q11 22 8 25h-1l-2-2-5-7-6-12q-1-3 6-5zq-6 1-6 4l7 12 6 8 1 1q2-1-3-13z"/><path fill="#452c25" d="M519 355s4 7 4 11c-1 3-6-6-7-8z"/><path d="M520 355q4 7 4 11l-1 1-1-1-2-2-4-6q0-2 3-3zm-1 0q-3 2-2 3l5 8h1q0-4-4-11"/><path fill="#452c25" d="m528 353 3 9c-2 1-6-5-8-8-1-3 5-1 5-1"/><path d="M528 353q4 8 3 9l-1 1-1-1-2-2-4-6v-1l2-1zm0 0h-4l-1 1 6 8h1q1-2-2-9"/><path fill="#452c25" d="m513 357 5 10c-1 3-8-5-9-7q1-3 4-3"/><path d="m513 357 5 10-1 1h-1l-3-3-4-5 1-3zm0 0-2 1-2 1 7 8h1z"/><path fill="#452c25" d="M547 345s7 8 6 9-11-8-13-10c-1-2 6 1 7 1"/><path d="m547 345 6 7 1 3-7-5-8-7h1l3 1zm0 0-7-1 13 10v-1l-3-4z"/><path fill="#452c25" d="m540 343 6 7 5 5c-1 1-10-4-12-6l-1-5z"/><path d="M539 343h2-1l6 7 5 4v2l-6-3-6-4-1-5zm1 1h-2l1 4 6 5q5 3 6 2v-1l-2-2-3-2z"/><path fill="#452c25" d="M561 348s22 13 22 16c-1 1-24-12-28-15-3-4 5-1 5-1z"/><path d="M561 348q24 13 22 16l-13-6-16-10v-1h2zl-4-1-2 1 1 1a109 109 0 0 0 28 14l-11-8z"/><path fill="#452c25" d="M561 351c1 1 17 12 16 14-2 0-14-5-21-10l-10-9h8z"/><path d="m570 358 7 7-9-3-12-7-10-9 8-1 7 6zm-8-6-8-6h-7l9 9 12 7 9 3v-1l-2-1-5-5z"/><path fill="#452c25" d="M518 357c0 1 3 7 2 10q-2 1-6-6c-1-2 3-4 4-4"/><path d="M518 357q3 7 2 10h-1l-2-1-3-4q-1-3 1-4zm0 0-3 2-1 2 3 5 2 1h1z"/><path fill="#452c25" d="M518 373c1 1 3 10 0 12-3 1-5-10-5-14 1-2 5 2 5 2"/><path d="m519 373 1 6q1 5-2 6-1 1-2-1l-2-4-1-9 1-1 2 1zm-1 0-2-2h-3l3 13 2 1q2-1 1-6z"/><path fill="#452c25" d="m505 354 11-2 4-1 3-2c0-1-2-12 11-10l32 8a176 176 0 0 1 44 23l11 8-6-3c-9-7-27-18-35-20-2-1 0 3 0 3l-9-6-8-2-7-2-12-3-3-1 1 1-5-1-1 2q-2 1-5-2l-3 8-7 3-2 2-5 2-8-1-2-3z"/><path d="M505 354q9-3 11-2l3-1 4-3 1-5q2-6 10-4l5 1 27 7 19 8 12 8 13 7 12 9h1-2l-16-11-26-13v1l2 2h-1l-9-5-8-3-7-2-9-2-3-1-2-1v1l-5-1-1 2q-4 0-5-2v1l-3 8-4 1-3 1-2 3h-1l-4 1-8-1-2-3zm0 0-1 1 2 3 8 1 4-2 3-2 3-1 4-2 3-7v-1h1l4 1 1-1 4 1v-1l3 1h3l16 4 8 3 9 5-1-1v-1l1-1 25 14 16 10 1 1-1-1-11-8-13-7-12-7-19-8-27-7-5-2q-7-2-10 4l-1 6-3 2-4 1z"/><path fill="#452c25" d="m518 385-1 9q-2 2-5-6l2-7z"/><path d="M518 385v10l-3-1q-3-2-3-7 0-6 2-6zl-4-4-1 1v6q-1 3 2 6h2z"/><path fill="#452c25" d="M515 374c1 0 3 10 0 12-3 0-5-11-5-14q3-1 5 2"/><path d="M517 379q0 6-2 7l-2-1-2-5-1-8 1-1 2 1 3 2zm-2-5-2-2-2-1-1 1 3 12q1 2 2 1 2 0 1-6z"/><path fill="#452c25" d="M513 375s3 10 0 12c-3 0-5-10-5-14 0-2 5 2 5 2"/><path d="m513 375 1 5q1 6-1 7l-2-1-2-4-1-9 1-1 2 1zm0 0-3-2h-2l3 13 2 1 1-7z"/><path fill="#d9c0b9" d="m515 416 1 4q2-1 0-5z"/><path d="m515 417 1-1 1 3v2l-1-1zm0-1 2 3z"/><path fill="#d9c0b9" d="M501 410v2h-1l-1 2z"/><path d="m502 410 1 1-1 1-1 1-1 1 1-4zm-2 2h1v-2h-1z"/><path fill="#d9c0b9" d="m508 419 1-1h1v4h-1v-1z"/><path d="m508 418 1-1 1 1v4h-1v-1l-1-2zm0 1v2l1-3h-1z"/><path fill="#d9c0b9" d="M497 413v-2h2v4l-1-2z"/><path d="m497 413-1-2 1-1h1l1 1v4l-1-2zm0 0h1l1 1v-3h-2z"/><path fill="#d9c0b9" d="M486 414q-2 1 0 4-1-1 2-3z"/><path d="m486 414 2 1-2 3v1l-1-4zm0 0v4l1-3z"/><path fill="#d9c0b9" d="M480 412h1v2z"/><path d="m480 412 1-1 1 1-1 2h-1zm0 0v1l1 1v-2z"/><path fill="#bd8759" d="M507 399v9l-2 1-4 1-1 1h2l-1 1h5l1 1v3l1 3 1-1 2 2-1-4v-3l4 3 1 1 1-1h1l-3-4-3-2-1-2v-9z"/><path d="m507 398 3 1 1 11 1 1 2 1 3 4h-1v1h-1l-1-1-4-3v3l1 4h-1v-1l-1-1-1 1-1-1v-5l-1-1-2 1h-3v-1l1-1h-2l1-2h4l1-1 1-3zm3 21v-3l-1-3h1l4 2 1 2v-1l1-1-2-3-2-1-1-1-1-2v-8l-3-1v9l-2 2h-4 1v2h4l1 1 1 3v3l1-1z"/><path fill="#bd8759" d="m489 410-3 2-1 2q1-1 2 2l2-2 4-4 2 2 3 1-1-2h2l-3-3q-3 0-2-2l2-6-3-5-1 4 1 3-3 5-8 2-2 2v1h3l2-1h2z"/><path d="M486 411h-1l-2 2v-1h-3v1-2l2-2 8-2 1-3 1-3v-3l1-4 4 6-3 7 2 1 3 3h-2v1l1 1-3-1-2-2-3 4-2 2h-1v-1h-2v-3zm3-1-3 3-1 1h1l1 1 1 1 1-3 4-3 2 2 2 1v-2h2l-3-3h-2v-2l2-6-3-5-1 4 1 3-1 3-2 2-4 1-4 1-2 2v1h3l1-1h3zm19-3 1 1h1zm1 0h1zm-1 3v1zm0 6h1v1zm-25-7h1zm31 4"/><path fill="#452c25" d="m519 378-2-4 1-1-3-5v-2l-3-3v-1q0-2-4-6l-4-4-13-3q-9 1-8 4l-1 5 1-1-1 6 1 8v3l2 8 1 1 1 3 1 2 2 4 1 2 1 5 1-2 1 2h1v3l3-4 1-1 1-1 1-3 5 5 1 3 1-1 1 3 1-2v2l1 1q0 2 2-1l2-6 1 1 1-4q1-3 1-1v-7h1l-1-7z"/><path d="m519 378 1 7h-1v7h-1v1l-1 4v1l-1-1v-1 1l-2 5-1 2-1-1h-1v-2l-1 1-1-3-1 1-1-2-5-6-1 3-1 1v1l-4 4v-2h-1l-1-3-1 2-1-3v-1l-1-1v-2h-1l-1-4h-1v-2l-1-2v-1h-1v-1l-2-11-1-5v-3l1-5h-1v-6l3-1 6-2 13 3 4 4q4 2 4 6h1-1l3 4v1l3 6h-1zm-9 25 1 1 2-1 2-6 1 1 1-4v-2h1v-14h1l-2-4v-2l-3-5h1v-1l-3-4v-1l-4-5-4-3q-4-3-13-3-3-1-6 1l-2 2-1 4h1l-1 6v3l1 5v3l3 9 1 1v2l1 2 1 1 1 2v1l1 2 1 4 1-2 1 3h2l-1 2 3-3v-2l2-1 1-2h1l4 5 1 3 1-1zl1-1zm0-40 2 3v-1zm1 4q3 2 2 6 1-3-2-6m3 3 1 4zm0 12 1 2zm-2-7 1 3zm4 7 1 2zm0-8 1 2zm-13-18 2 1zl-2-1zm-18 16v2zm3-18h2v-1zm5 0h2v-1zm-9 16v2zm24-3 1 2zm-1-5 1 2v-1zm1 10v3zm1 4v1zm6 11v4zm-1 3-1 2v1zm-29-13 2 4v-1zm5 1-2-2v1zm-3 4 2 3q-1 0 0 0zm3 2 2 3v-1zm0 4 1 2v-1zm3 1 1 2zm-1 3 1 2zm1-13 2 1zm0 3 3 2zm1 4 2 2zm1 5 1 2zm3-11v1zm6-2v2zm3 1v2zm1 4v2zm2 4-1 2v1zm-7-5-1 1v1zm1 6-1 1zm-3 2v-4zm-3-3v2zm8 5-1 1v1zm4 2-1 2v1zm6-1v2zm-32-19v4q1 0 0 0z"/><path fill="#dcddde" d="m484 361 1-4q-1-2 5-2l4-1h3l3 3 3 1 1 3 2 4v4l-1 3-1 3-2 1-2 2q-3-1-3-3l-1-1q-1 2-6 2l-3-3-1-3-2-3 1-3z"/><path fill="#fff" d="M495 360q3-3 7-2 1 0 0 0-4-1-7 2m10 4q-5-3-8-2v1q3-2 8 1m-8 2q2 5 1 9 1-4-1-10zm-3 1v9zm4-1 7 5q-3-5-7-6zm-2 3-1 5zm4 0 3 7v-1zm-12 3 2-2zm4-14-3-4v1zm-3 0-4-2v1zm4 0q1-2-1-4 2 1 1 4m6 3h4v-1zm2 4q3 0 5 3v-1l-5-3zm-9 4q1 3-2 5 2 0 2-4zm5-1q2 3 1 7 1-3-1-8zm3 0 4 5v-1zm0 3v6zm-1-8q3-1 6 2v-1zm-4-5 3-3q-3 0-3 3 0 1 0 0m-2 1-2-5zq0 1 0 0m-2 1-3-4v1zm-3-1-3-2zm6 9v7zq0-1 0 0m3 0 1 6-1-7zm1-3 5 4v-1zm-8-6-4-3v1zm-1 9-1 2v1l1-2zm3 2-2 3v1zm6-9q2-2 5-2zm-12-2-1-1v1zm2 9-2 2zm3 2q-2 2-2 5v-1zm2 0-1 5zm5-1 3 5-3-6zm1-1q3 2 5 6v-1q-2-4-5-6zm1-3 2 1 2 1 1 1 1 3v-3l-2-1-2-2zm5 5v2zm-6-11 4-1h-4zm-6 0 1-2 1-3q1 0 0 0l-1 2-1 2zm-4 12v4zm2 3v2zm3-1-1 2v1zm-1-4v1zm-2 0v2zm-1 0-2 1v1zm-2 0h-1v1zm-2-1h-1q-1 0 0 0zm8 0v2zm1 0v2zm2 0h1l-1-1zm1-1 1 1v-1zm1-3h1v-1zm-1-2 1-1zm-1-1 1-2zm-1-1 2-2v-1l-2 2zm-2-3v2q0 1 0 0zq0-1 0 0m-3 0v1l1-1zm-1 1-2-1v1l2 1zm2 1v-4zq0 1 0 0m0 0v-3zq0 1 0 0m10 8 2 2v-1l-2-2zm-3 5v2-3zm-2-2v4zm-1 1-1 4q0 1 0 0zm1 1v4zm-7-1v1zm3-1v-2q0-1 0 0zm1-1q1 0 0 0m1-1 1 2v-1zm2 0 2 2v-1l-2-2zm2-2 1 2v-1l-1-2zm-12-7-2-1v1zm3-1-1-1zm3-3v4zm1 5 1-2v-1l-1 1zm2 0v-1l-1 1zm3 1-2-1v1zm-1 2 3 2v-1zm0 2 3 2v-1zm-5-5v-2zm-7-4 3 3 2 2v-1l-2-2zm2 4-1-2v1zm-1 7-1 1v1zm1 1-1 2v1h1zm3 6v-6zm1-4v2h1l-1-3zm2-1 1 3v1zm0 0 1 4-1-6zm2-1 2 4v-1zm3-2-1-1v1l1 1zm-1 0h3v-1l-3-1zm1-9-1 4v1l1-4zm-4 1 1 2v-1l-1-2q0-1 0 0zm-1 1-1-2v2l1 1zm-1 1-4-3v1z"/><path fill="#d9c0b9" d="M466 367s-2-4 4-5l2 2-4 1z"/><path d="M466 367v-2q0-3 4-3l2 2-4 2zm0-1 2-1 4-1-2-2q-4 1-4 3z"/><path fill="#5e3f17" d="m470 363-3 2z"/><path fill="#d9c0b9" d="M467 366h5v-2l-3 1z"/><path d="m467 367 2-1h1l3-1 1 2h-2zm0-1h5v-2l-3 1-1 1z"/><path fill="#dba05f" d="m494 359-6 1-5-1-4-1h-6l-2 2-2 2 1 2 3 2 4 2h11q6 1 10-2v-4z"/><path d="m494 359 5 3-1 5-4 1-6 1-7-1h-4l-3-1-2-1-1-1-1-1-1-1v-1l1-2 1-1 2-1h8l2 1zm0 1h-11l-2-1-2-1h-5l-3 2-2 2v1h1l2 2 1 1 1 1 3 1h17l4-2v-4zm-20 2h1l1-1h1-1 1-1 1v1-1h-1z"/><path fill="#939598" d="M475 361h-1zm-1 0"/><path d="M476 360h-1v1-1zm0 0h1z"/><path fill="#939598" d="M475 361h1v1-1z"/><path d="M477 362h-1l-1 1 1-1-1 1 1-1v1-1 1z"/><path fill="#939598" d="m477 361-1 1h-1 1zm-2 1"/><path d="m475 362 1-1zm0 0"/><path fill="#939598" d="M476 362v1z"/><path fill="#c6262c" d="m478 358-1-3-4-1-2 1h-2v3q1 0 0 0t-2 2q1 2 2 1h1l2-2 3-1 1 1z"/><path d="m478 358-2 1h-4l-2 2h-2l-1-1 1-2h1v-3h1l1-1h2l4 1zm-9 0h-1l-1 2 1 1h2l2-2 3-1h3l-1-2-4-2-1 1h-2l-1 1zm7 3-1 1z"/><path fill="#5e3f17" d="m492 368 2-1z"/><path fill="#842116" d="M471 360v-2zm2-2-1-1zm1 0-1-1zm-2-2q2-1 5 1-3-3-5-1"/><path fill="#7a2e26" d="M473 366h1zm0-5h1v-1zm3 2 1-1zm-1 4h3zm4 0q3 0 3-3 0 2-3 3m1-2 2-2zm0-5 2 1v-1zm17 5v-4zm-13-4q3 2 2 4 0-3-2-4m6 7v-1zm-21-7-1-1zm13 6 1-1zm14-5v3zm-1 1v2q0 1 0 0zm-1 1v2z"/><path fill="#dcddde" d="m483 354-10-4q-7-6-6-8c-3-2-5-8-5-8l-8-1-4-1-4-1s2-2-6-1c-7 0 1-2 1-2h-9l-8 1-7 1-19 6-15 4q2-2 21-9l29-7q12-2 18 2l16 3c5 2 5 8 5 9l1 8h1l8 6h2l2-1 5-1 5 1 6 2 3 1h2l9-2 4-1 3-2s-2-12 11-10l33 8 18 8 15 9 22 15-10-7-8-3-10-6-14-7c-2-1 2 3 2 3l-11-6-8-3-7-2-12-3-3-1 1 2-5-2-1 2-5-1-3 8-8 2-4 2-4-1h-6l-4-2-10-2h-4l-3 2z"/><path d="M483 354q-6-1-10-4-4-2-5-5l-1-3q-2-1-5-8h-5l-3-1-1-1h-7v-2h-9l1-1 2-1h-14l-2 1h-2l-5 1-4 1-15 5-11 3-3 1h-1l2-1a184 184 0 0 1 48-15q9-2 18 2l7 2 9 1q3 1 4 5l1 4 1 8h1l8 6h2l2-1h1l4-1 5 1h2l7 3h2l9-2 3-1 4-2 1-6q3-6 10-4l33 8 18 8 15 9 11 7q6 3 11 8l-10-6-4-2-4-2-7-4-3-2-3-2-7-4-4-1v1l2 2-11-6-8-3-7-2-9-2h-3l-3-1 1 1-5-2-1 2-5-1v1l-3 7-5 1-3 1-4 2h-3l-1-1h-1l-2 1-3-1-4-2-5-1-5-1h-4l-3 2h-1l4-2h4l10 2 4 2h7l3 1v-1l4-1 3-1 5-1 3-7v-1h1l4 1 1-2 5 2-1-2 3 1 3 1 16 4 8 3 11 6-2-2-1-1h1q0-1 0 0l4 1 7 4 3 2 3 2 7 4 4 1 8 5 5 3-10-7-11-7h-1l-14-8-18-8-33-9q-7-2-10 4l-1 6-3 3-4 1q-1-1-9 1h-2l-7-2-2-1-5-1-4 1h-1l-2 1h-2l-10-7h1l-1-7-1-4q-1-4-4-5l-9-1-7-1q-9-4-18-3a179 179 0 0 0-48 15h-1 3l11-3 15-5 4-1 5-1h2l2-1h15l-4 2h9v2h7l1 1 3 1h5l5 8 1 3 5 5q4 4 10 4"/><path fill="#452c25" d="M483 353v1z"/><path fill="#574f4c" d="m508 355 2 2-1-1z"/></svg>