<svg xmlns="http://www.w3.org/2000/svg" viewBox="0 0 1000 1000"><path d="M8 195c171-85 341-54 513-28 155 24 312 45 471-34v672c-171 85-341 54-513 28-155-24-312-45-471 34z"/><path fill="#fff" d="M8 195c171-85 341-54 513-28 155 24 312 45 471-34v448c-171 85-341 54-513 28-155-24-312-45-471 34z"/><path fill="#ce1126" d="M8 195c171-85 341-54 513-28 155 24 312 45 471-34v224c-171 85-341 54-513 28-155-24-312-45-471 34z"/><path fill="#fff" d="m501 503 75 82-6-130c-1-20-17-17-29-12q-18 9-41-4-22 5-41-9c-12-9-28-15-29 4l-6 129z"/><path fill="#c09300" d="m501 504-76 59h-1v-1l5-128q0-15 11-13a41 41 0 0 1 19 9 47 47 0 0 0 41 9q24 12 41 3 11-4 19-3 11 3 11 16l5 130v1h-1zm0-2 74 81-5-128q-1-13-10-15-7-1-19 3-17 9-41-3-23 5-41-9-12-8-19-9-9 0-10 12l-5 127zm-63-71-5 125-9 7 6-129zm11 10-5 105-8 8 5-121zm9 10-3 87-7 6 4-100zm11 6-4 74-7 5 4-83zm9 1-2 62-7 6 2-68zm84-9 5 127 9 9-6-130zm-11 8 5 106 8 10-5-122zm-9 7 3 88 7 8-4-101zm-11 2 4 76 7 7-4-84zm-9-1 2 63 7 8-2-69zm-19 52 11 51-3 3-4-3-6-45 2 44-3 4-3-5 2-43-6 43-4 2-3-4 11-48zm1 0 11 51-4 4-5-4-4-30 2 29-4 5-4-6 2-28-4 28-5 3-4-5 11-48zm-1 1-6-1-10 47 3 3 3-2 5-42h2l-3 43 3 4 3-3-3-44h2l5 45 3 2 3-2z"/><path fill="#fff" d="m476 492-20 72 28 9 13-55z"/><path fill="#c09300" d="m476 491 20 27-12 55-1 1-28-9h-1v-1zm1 2-21 71 28 8 12-54zm-7 23 2 6 13-11 1 2-13 11h-1l-1-1-2-6zm10-14 2 26 8-9 1 1-9 10v1l-1-1-3-28zm8 22 4 17h-1l-5-17zm6 12-9 13 3 15h-2l-2-14-6 8v1l-1-1-3-10-6 9-1-1-5-17 1-1 9-8h1l2 9 6-6v-1l1 1 2 14 9-12zm-11 12-2-13-6 7h-1v-1l-2-9-8 7 4 15 5-8h2l3 10zm-22 15 6-7h1l4 12 4-7h1l4 11-2 1-3-10-4 7h-1l-4-12-5 6z"/><path fill="#fff" d="m524 499 20 79h-28l-13-59z"/><path fill="#c09300" d="m524 499-20 21 12 59 1 1h29v-1zm-1 1 21 77h-28l-12-58zm7 26-2 5-13-15-1 1 13 15h2l2-6zm-10-17-2 25-8-12-1 1 9 13h1l3-27zm-8 18-4 16 1 1 5-16zm-6 11 9 16-3 14h2l2-13 6 10v1l1-1 3-9 6 10v1l1-1 5-16-1-1-9-10v-1l-1 1-2 8-6-8v-1h-1v1l-2 13-9-15zm11 15 2-12 6 8h1l2-9 8 10-4 14-5-10h-2l-3 9zm22 22-6-9-1-1v1l-3 11-5-9h-1l-4 10 2 1 3-9 4 9h1l4-11 5 8z"/><path fill="#fff" d="M500 605c22 3 43 5 55 3q6-1 5-6c5-2 3-7 6-8-3 0-4-6-9-6q-1-9-11-7c-10 2-29 0-46-3s-36-6-46-11q-10-5-11 3c-5 0-5 5-9 5 3 1 1 5 6 8q-1 6 5 8c12 6 33 11 55 14"/><path fill="#c09300" d="M500 606q-37-5-55-13l-6-4v-5q-3-2-4-6l-1-2h-1v-2l1-1 3-1 4-3q1-4 5-5l8 2 37 9 9 2q33 5 46 3 5-2 8 1 4 2 5 6l4 4 3 2 1 2v1h-1l-1 2-4 5v4q-1 2-6 2-18 3-55-3m0-2q36 5 55 3 3 0 3-2l1-4 1-1 3-3v-2l-2-3-3-3h-1l-1-1q0-4-3-5l-6-1q-14 3-47-2l-9-2q-29-6-38-10-3-2-6-1-3 0-3 4l-1 1h-1q-1-1-3 2l-2 1v3l3 4 1 2 1 4 3 2h1q18 8 54 14"/><path fill="#fff" d="M470 567q11 4 21 4c4 1 6 6-1 7l-20-4-20-8c-6-4-2-8 1-7z"/><path fill="#c09300" d="M470 566q15 4 21 4 4 1 4 5 1 3-4 3-10 0-22-4l-20-7-3-3v-4q2-3 5-1zm0 1-19-7q-3-1-4 1v2l3 3 20 7q11 4 20 4 4 0 4-3 0-2-3-2z"/><path fill="#fff" d="M530 576q-11 0-21-3-8 2 1 8l20 2 21-1c5-3 1-8-2-8z"/><path fill="#c09300" d="M530 575q9 1 19-2 3 0 5 4v3l-3 2-20 2q-12 0-22-3-5-1-4-5 0-4 4-3zm0 1q-15 1-21-2-3 0-3 2 0 3 4 4 9 3 20 2l20-1 3-2v-2q-1-2-4-2-9 2-19 1"/><path fill="#fff" d="M449 560q-9 0-6 8l5-3z"/><path fill="#c09300" d="M449 559v4l-1 2q0 2-3 2l-2 1h-1v-7q3-3 7-2m-1 1-4 2-1 4h2l2-1v-2z"/><path fill="#fff" d="M470 579c0-3 3-2 3-6q0-3-3-5-3 1-3 3 0 5 3 8"/><path fill="#c09300" d="m469 579-1-3q-2-2-2-5l1-2 3-1 3 2 1 3-2 4-2 2v1zm1-2 1-1 1-3v-3l-2-1-2 1v2q-1 2 1 3z"/><path fill="#fff" d="M494 573q7 3 3 11-2-4-5-6c1-3 4-2 2-5"/><path fill="#c09300" d="M494 572q5 1 5 6 1 3-2 6h-1l-2-3-3-3 2-3 1-2zm1 2-1 2-1 2 1 2 3 2 1-4z"/><path fill="#fff" d="M551 575q9 3 6 10l-5-4z"/><path fill="#c09300" d="M551 575q4 0 7 4v7h-1v-1l-2-1-3-3-1-3zm1 1 1 3v2l2 1 2 2-1-5z"/><path fill="#fff" d="m530 589-3-7q0-3 3-4l3 4q0 3-3 7"/><path fill="#c09300" d="m530 589-2-3-2-5 1-3 3-1 3 2 1 3-2 4-1 3zm0-3 1-1q2-2 1-3v-3l-2-1-2 1v3l1 3z"/><path fill="#fff" d="M506 575c-6-1-5 6-3 10l5-5q-3-3-2-5"/><path fill="#c09300" d="M506 574v1l1 2 2 4-3 2-2 2v1l-1-1q-2-3-2-7t5-4m-1 1-3 3 1 5 3-1 1-2-1-2z"/><path fill="#fff" d="m450 562 6 2z"/><path fill="#c09300" d="m451 561 5 3v1h-1l-5-3z"/><path fill="#fff" d="m459 566 6 3z"/><path fill="#c09300" d="m459 565 6 3 1 1h-1l-6-3z"/><path fill="#fff" d="M490 574h-6z"/><path fill="#c09300" d="M490 575h-6v-1h7z"/><path fill="#fff" d="M481 573q-2-2-6-1z"/><path fill="#c09300" d="m481 572-6-1h-1l1-1h3z"/><path fill="#fff" d="m550 577-6 1z"/><path fill="#c09300" d="m550 576-5 1h-1z"/><path fill="#fff" d="m541 578-6 1z"/><path fill="#c09300" d="m541 579-6 1-1-1h1l6-1z"/><path fill="#fff" d="m510 577 6 2z"/><path fill="#c09300" d="M510 578h1l6 2z"/><path fill="#fff" d="M519 579q2-2 6 1z"/><path fill="#c09300" d="M519 579h3l3 1h1v1h-1zm-70-3-1-2h1l1 1zm60 13 1-1 1 1v1zm0 3v-1h1l1 1-1 1zm-55-21-1 1h-4l1 1h2l-1 3v1h-2l-1 1-1 2 1 1 3 1 3 2 5 2h1l1-1 1-4v-1h-2v2l-1 2-2-1-1-1 1-2v-2h-2l-1 1v2l-1 1q-2-1-1-2v-2l1-2 1-2zm-5 13v-1h1v2zm3 2-1-1 1-1 1 1v1zm98 15 1-1 1 1v1zm-93-13-1-1v-1h1zm23 5v-1l1-2v-5l1-2v-1l2 2-1 1v2l-1 2v5zm33-6-2 1 1 1v2l1 2-2 1-1 1v4h8l1-1v-5h-1l-2 1 1 1v2h-2l-1-2v-7zm-33-7-2 1v5l-1 3v3h-1v-1l-2-2-1-1h2l1-2-2-2-1-3q-2 0-3 2h-1q-2 0-1 2 2 0 1 2h-2l-1-1-1-3h-1v2l-1 3-2 1h-1l3 1 2-1h7l1 2 1 1 1 2h1l2-1 1-2v-4l1-3zm-8 4h1v1h-1l-1-1h-1 1zm72 2h-2v2h3l2 4v4h-1l-3-1-2 2-2-2-3-2-1-3q-2 0-1 2 0 3-1 2l-1 4q-3 0-2-3h-2l-2 2v2l2 1v1l-2 1h2q2 1 2-2h3q2-2 3 1 2 2 3 1 2 0 1-2h5l3-1 6-1-1-2h-3l-2-4-1-4zm-7 10 1 1v1h-1v-1zm7 1-1 1-1-1zm-10-1-1 1zm-6 1q0-2 0 0m10 2h-2zm-18 3 2-1v-2l-1-2h-1l1-1 1-2v1l1 1 1 1v5h-1l-1 1h-2m-8-2v-1h4l1 1-1 1-1-1h-1l-1 1zm-22-13-1 1v3h-1l-2-3-2 1 2 3-2 3h-2l1 1h3l2-2 5 1 3 1 2 3 2-1 1-2 6 1v-6l-3 1-2 2q-1 1-1-1v-1l-3-1-3-1-3-1-1-2zm3 4h1l3 1h1v3h-1v-2h-1l-3-1h-2l-1-1v-1zm12 3h-1z"/><path fill="#fff" d="M500 530c36-23 33-63 33-64h-3c-8-1-25-8-30-14-5 4-22 6-30 5l-3-1s-3 40 33 74"/><path fill="#c09300" d="M500 531a104 104 0 0 1-33-75v-1l1 1h18q11-2 14-5h1q3 5 13 9 10 5 16 5l2 1h1q2 11-3 24-7 26-30 41m0-1q22-15 29-40l3-23h-2a68 68 0 0 1-30-14l-13 4h-19l3 24q7 28 29 49"/><path fill="#fff" d="M530 469h-1c-7-1-22-7-29-14a61 61 0 0 1-30 5v4a96 96 0 0 0 30 63q20-14 27-38z"/><path fill="#c09300" d="m530 469-3 20q-6 25-27 38a98 98 0 0 1-30-68h1a58 58 0 0 0 29-4h1q4 5 13 9t15 4zm-1 0a66 66 0 0 1-29-13q-5 3-14 4h-15l3 21q6 26 26 45 20-13 26-37zm-41-10-18 1v4a94 94 0 0 0 18 49zm23 3v56a68 68 0 0 0 19-45v-4h-1q-7-1-18-7"/><path fill="#fff" d="M513 450q1-2-1-5c3 3 9 4 10 4-5-3-9-18-9-30q1-17-3-19-5-4-14-6l-2 1q-7-3-12-2c-2 2-2 8-1 7q6-2 9 5 3 5-1 20c-3 9-11 18-11 18l11-2-2 6 9-5 4 6 4-4q1 2 9 6"/><path fill="#c09300" d="m513 450-9-5-4 3v1l-5-6-7 4-2 1 2-6q-6 3-10 2h-1l1-1q8-9 11-18 4-15 1-20l-4-4h-6v-4l2-4q3-2 11 1h1l2-1 8 3 7 4q3 5 3 19l2 19q3 9 6 11v1l-8-3v3zm0-1v-1l-1-2 1-1 7 3q-3-3-5-10l-2-19q0-14-3-18l-6-4-8-3-1 1v1h-1q-9-3-11-2l-2 4v2h6l4 4q3 7-1 21-3 9-10 18l8-3 2-1-2 7 7-4 1-1 4 6 4-4h1q3 5 8 6m-17-31q-2 19-7 23l-1-1q4-4 7-22zm4 0q0 19-4 25l-1-1q3-6 4-24zm4 2 1 24h-1q-2-4-2-24zm4 1q1 18 5 24l-1 1q-5-7-5-25zm-17-12-1-4q-3-7-9-5l4-3q4-1 11 10h-4zm0 0v-1l-1-3-4-5q-3-2-5 1v-1q1-3 4-3 6 0 11 10v1l-4-1-1 1zm0-2h5q-5-9-11-10-3 0-3 3h4q3 1 4 5zm-10-12 1-2q4-1 12 2l2-1q9 2 14 6l2 3-5-2h-4l-2 1-2 1-1-1-1-1-6-4-6-3-4 2zm0 1 1-2q3-1 12 2v-1h2l8 2 6 4 2 3v1-1h-1l-4-2h-4l-2 1-2 1h-1v-1h-1v-1l-6-3-6-4zm0-1 4-1 7 3q3 4 5 4l1 1 1 1 1-1 1-1h6l4 1-1-2-6-3q-4-3-8-3h-2v2q-9-4-12-3z"/><path fill="#fff" d="m500 400-1 1-2-1 2-2z"/></svg>