<svg xmlns="http://www.w3.org/2000/svg" viewBox="0 0 1000 1000"><path d="M8 195.3c170.8-85.3 341-54.5 513.3-28C676.5 191 833.4 211.8 992 132.7v672c-170.8 85.3-341 54.5-513.3 28C323.5 809 166.6 788.1 8 867.2z"/><path fill="#fff" d="M8 195.3c170.8-85.3 341-54.5 513.3-28C676.5 191 833.4 211.8 992 132.7v448c-170.8 85.3-341 54.5-513.3 28C323.5 585 166.6 564.1 8 643.2z"/><path fill="#ce1126" d="M8 195.3c170.8-85.3 341-54.5 513.3-28C676.5 191 833.4 211.8 992 132.7v224c-170.8 85.3-341 54.5-513.3 28C323.5 361 166.6 340.1 8 419.3z"/><path fill="#fff" d="m500.9 502.8 74.9 82.4-5.4-130c-1.2-19.7-17-17.6-29.5-12.4-12.4 6.1-26 4-40.9-3.5-15 3-28.5.8-41-9-12.3-9-28.2-15.8-29.4 3.7l-5.4 128.6z"/><path fill="#c09300" d="m500.9 503.8-76.2 59.4h-.5q-.7 0-.7-.8L429 434c.5-9.4 4-13.4 11.1-13.2a41 41 0 0 1 19.4 9 47 47 0 0 0 40.8 9c15.9 8 28.9 9 40.4 3.5q11.4-5 19.4-3.3c7.1 1.8 10.6 6.8 11.1 16.3l5.4 130.1q0 .3-.2.5-.5.5-1-.1zm.5-1.4 73.6 81-5.3-128.3c-.5-8.7-3.5-13.1-9.8-14.8a32 32 0 0 0-18.6 3.2c-11.8 5.7-25.1 4.6-41.3-3.5a48 48 0 0 1-41.3-9.2 40 40 0 0 0-18.6-8.6c-6.3-.2-9.3 3.4-9.8 12L425 561l75.3-58.6q0-.4.6-.3.3 0 .5.3"/><path fill="#c09300" d="m438.2 430.7-5.2 125-8.8 6.9 5.4-128.6c2.6-1.5 6.7-3.3 8.6-3.3m10.5 10.6-4.4 104.5-8.8 8L441 433c1.7 2 6.8 7.2 7.8 8.2m9.6 9.5-3.5 87.3-7 6 4.4-99.5c1.7 2 5.1 5.1 6 6.2m10.4 6-3.4 74.4-7 4.6 3.5-82.7c1.8 1.1 5.2 3.4 7 3.8m9.5 1.4-2.5 62-7 6 2.6-68.2c1.9.3 5.9.7 6.9.2m83.6-8.8L567 576l8.8 9.2-5.4-130a38 38 0 0 0-8.6-5.8m-10.5 7.5 4.4 105.9 8.8 10.5L559 451zm-9.6 6.6 3.5 88.3 7 8-4.4-100.7c-1.7 1.5-5.1 3.6-6 4.4m-10.4 3 3.4 75.3 7 6.7-3.5-83.8c-1.8.6-5.1 1.8-7 1.7m-9.5-1.4 2.5 62.7 7 8.1-2.6-69c-1.9-.3-5.9-1-6.9-1.8m-18.3 52.4L514 568l-3.5 3-3.6-3.3-6-44.6 2.6 44.1-3.5 4-3.4-5 2.5-43.4-6 42.8-3.6 2.2-3.5-4 10.6-47.5z"/><path fill="#c09300" d="m504 517.4 10.6 51-4 3.4-4.2-3.8-4-29.7 1.7 29.2-4.1 4.7-4-6 1.6-28.6-4 28.4-4.2 2.6-4-4.8 10.7-48.1 7.4 1.1v.6zm-1 .5-6-.9-10.3 46.6 2.9 3.4 3-1.8 5.9-42.5 1.2.3-2.5 43 2.8 4.2 2.9-3.3-2.5-43.8h1.1l6 44.4 3 2.7 2.8-2.5z"/><path fill="#fff" d="m476.5 491.7-20.9 72.7 28.7 8.9 12.2-55.2z"/><path fill="#c09300" d="m475.8 491.5.2-.4q.5-.3 1 .2l20 26.4.2.6-12.3 55.2q0 .6-.7.4l-28.7-8.9q-.7-.3-.5-.9zm1 1.6L456.4 564l27.4 8.4 12-54.2z"/><path fill="#c09300" d="m470.2 516.4 2.1 5.6 12.9-10.6 1 1.2-13.6 11.2h-.3q-.5.3-.9-.4l-2.5-6.7z"/><path fill="#c09300" d="m479.7 502.3 2.6 25.9 7.6-9 1 1-8.5 10.3-.5.2q-.7 0-.8-.8l-2.8-27.7z"/><path fill="#c09300" d="m487.7 523.6 4.7 17.4-1.4.2-4.7-17.4z"/><path fill="#c09300" d="m494.1 535.7-9.4 13.2 3 15h-1.4l-2.7-13.6-5.6 8q-.1.3-.4.3-.6 0-.9-.6l-3-9.8-5.4 8.5-.4.2q-.7 0-.9-.6l-4.5-17.8.1-.6 9-8 .3-.2.5.1q.3.2.3.5l2.5 9.2 5.5-6.8q.1-.2.4-.3t.6.2l.3.5 2.3 13.8 8.7-12.1zm-11 12.6-2.2-13.4-5.5 6.7q-.4.4-1 0l-.2-.5-2.5-9.4-7.8 7 4 15.8 5.5-8.4.4-.3.5.2q.3.2.3.5l3 9.8z"/><path fill="#c09300" d="m461.2 563 5.8-7.4q.4-.6 1 0l.2.4 3.3 11.7 4.4-6.9q.3-.6 1 0l.2.3 3.5 11.3-1.3.3-3-9.7-4.4 7-.4.2-.6-.1-.3-.5-3.3-12-5 6.4z"/><path fill="#fff" d="m523.5 499 20.9 79-28.7.1-12.3-59z"/><path fill="#c09300" d="m524.2 499-.2-.5q-.5-.4-1 0l-20 20.2q-.2.2-.2.5l12.2 59q.3.5.8.6l28.7-.2q.7 0 .5-.7zm-1 1.3 20.4 77-27.4.1-12-58z"/><path fill="#c09300" d="m529.8 525.5-2.1 5-12.9-14.5-1 .9 13.6 15.3.2.2q.7.4 1-.2l2.5-6z"/><path fill="#c09300" d="m520.3 508.6-2.6 25-7.6-11.3-1 .7 8.6 13 .4.3q.7.1.8-.5l2.8-26.9z"/><path fill="#c09300" d="m512.4 527.4-4.8 16 1.4.5 4.7-15.9z"/><path fill="#c09300" d="m505.9 537.5 9.4 16.2-3 14 1.4.4 2.7-12.7 5.6 9.8.4.3q.6.3.9-.3l3-8.9 5.4 10.1.4.4q.7.3.9-.4l4.5-16.4-.1-.7-9-10.7-.3-.3h-.5q-.3 0-.3.4l-2.5 8.5-5.5-8.6-.4-.3h-.6l-.2.4-2.4 13L507 537zm11 16 2.2-12.7 5.5 8.3q.3.7 1 .3l.2-.3 2.5-8.7 7.8 9.4-4 14.5-5.5-10-.4-.4h-.5q-.3.1-.3.4l-3 8.9z"/><path fill="#c09300" d="m538.8 575-5.7-9.3q-.4-.6-1-.3l-.3.4-3.3 10.7-4.4-8.2q-.3-.7-1-.4l-.2.3-3.5 10.3 1.3.6 3-8.8 4.4 8.3.4.4h.6q.2 0 .3-.4l3.3-10.9 5 8z"/><path fill="#fff" d="M500 605c21.9 3.4 42.6 4.8 54.9 3.1 5.2-.5 5.2-2.7 5.2-6.5 5-1.6 2.6-7 6-7.1-3.5-.2-4.4-6.2-8.7-6.6-.4-6.3-5.8-7.8-11.3-7-10.4 2-28.6 0-46.1-2.7-17.4-3.5-35.5-6.3-46.1-11.4-5.5-2.5-11-2.6-11.3 3.7-4.5-1-5 4.8-8.8 4 3.4 1 1.2 5.9 6.1 9 0 3.7 0 6 5.4 8 12 5.2 32.9 10.2 54.7 13.6"/><path fill="#c09300" d="M500 606.4a239 239 0 0 1-55-13.7q-4.2-1.4-5.5-4.1-.7-1.4-.9-4.5-2.7-1.8-3.7-6.1-.3-1.7-.9-2l-.5-.2q-.6-.3-.9-.7-.2-.5 0-1.1.2-1 1.2-.8l.6.1q1 0 2.3-1.6 2.3-2.7 4.7-2.7c.5-2.9 1.7-4.2 4.5-5 2.5-.4 5 .1 8.4 1.6q8.4 4 36.4 9.5l9.3 1.8q33.2 5.1 45.7 2.7 4.8-.8 8.4 1a8 8 0 0 1 4.5 6.1q2.3.8 4.7 4.1 1.5 2 2.3 2.3h.6q1.3.3 1.3 1.6 0 1-1 1.1h-.5q-.5.2-1 1.8-1 4-3.6 5.1-.2 3-.8 4.2-1.4 2.4-5.4 2.6-18.5 2.6-55.2-3.1m0-2.7q36.4 5.7 54.5 3h.2q2.8 0 3.6-1.4.5-.8.5-3.8 0-1 .9-1.2 2-.4 2.8-3.7l.8-2q-1-.9-2-2.5-2.2-2.9-3.6-2.8-.7 0-1-.3t-.6-1v-.3q0-3.3-2.8-4.8-2.8-1.3-6.8-.6-12.8 2.4-46.5-2.7l-9.4-1.9a188 188 0 0 1-37.1-9.6 12 12 0 0 0-6.8-1.4q-2.8.6-2.8 4 0 1.3-1.3 1.1h-.3q-1.4-.5-3.5 1.8l-2.1 1.9q.4.9.7 2.2.9 3.5 3 4.5.8.5.8 1.4 0 3 .5 4 .8 1.5 3.8 2.6h.1q17.9 7.8 54.4 13.5"/><path fill="#fff" d="M470.4 566.6c7 2 14.8 4 21 4.2 3.4 1 6 6.5-1 7a92 92 0 0 1-20.8-4.2c-4.4-1.5-14-4.8-20.1-7.4-5.8-4.1-2-7.8 1.7-7 5.4 2.6 12.3 5.3 19.2 7.4"/><path fill="#c09300" d="M470.5 566q13.7 3.9 20.8 4c2.6.6 3.7 1.8 4.2 4.5.1 2.8-1.2 3.8-5 4a75 75 0 0 1-21-4.3q-14-4.5-20.2-7.4-2.4-1.5-3.2-3.2-.7-1.7 0-3.2c1.4-2.1 2.8-2.7 5.3-1.9q9.6 4.5 19 7.4m-.2 1.3q-9.7-3-19.3-7.4-2.4-1-3.6 1.4-.4.9 0 1.9a6 6 0 0 0 2.3 2.3 285 285 0 0 0 20 7.4q11.5 3.9 20.6 4.1 4 .1 3.8-2.5-.3-2.5-2.7-3a96 96 0 0 1-21.1-4.2"/><path fill="#fff" d="M529.7 575.7c-7.2 0-14.9-.6-21-2.2-3.6 0-5.9 4.6.9 7.2a87 87 0 0 0 20.8 2.2c4.4-.1 14-.5 20.1-1.3 6-2.4 1.9-7.3-1.7-7.5a109 109 0 0 1-19.1 1.6"/><path fill="#c09300" d="M529.6 575q9.4 0 19-1.6 3.5-.2 5.3 3.4.8 1.8 0 3.2t-3.1 2.3h-.1q-6.4.9-20.1 1.3a71 71 0 0 1-21.1-2.2c-3.8-1.3-5.1-2.8-5-5.5q.6-3.6 4.3-3.1a89 89 0 0 0 20.8 2.2m.1 1.4q-13.9-.2-21-2.2-2.5-.4-2.8 2.1c0 1.8 1 2.8 3.8 3.7q9 2.5 20.6 2.2 13.8-.4 20-1.3 1.9-.6 2.4-1.7.3-.9 0-2-1.3-2.5-3.7-2.4a105 105 0 0 1-19.2 1.7z"/><path fill="#fff" d="M448.7 559.8c-5.5-1.3-7.6 3.8-6.1 8 1-1.5 4.1-1.4 5.2-2.8.7-2.7-.7-2.8 1-5.2"/><path fill="#c09300" d="m448.8 559.1.3.2q.5.5.2 1a3 3 0 0 0-.6 2.2 6 6 0 0 1-.3 2.8q-.5 1.1-3 1.8-2 .4-2.2 1 0 .3-.3.3-.6.3-1-.4a7 7 0 0 1 .5-6.7c1.7-2.4 3.4-3 6.4-2.2m-1.2 1.2q-2.6-.4-4 1.9-1.2 2-.8 4.3.8-.5 2.1-.8 2-.6 2.2-1 .3-1.1.2-2.2t.3-2.2"/><path fill="#fff" d="M469.6 579.4c.3-3.5 3-2.6 3.4-6.1 0-2-.9-4.4-2.6-5a3 3 0 0 0-3.5 3c-.4 3.5 2.3 4.5 2.7 8"/><path fill="#c09300" d="M468.9 579.3q0-1.4-1.3-3.4-1.7-2.6-1.4-4.7 0-1.5 1.3-2.7 1.4-1 2.9-.8 1.4.3 2.6 2.3.7 1.7.7 3.4 0 2-2 3.5-1.4 1.1-1.4 2.6 0 .7-.7.6t-.7-.8m.7-2.4 1.2-1.2q1.5-1.1 1.5-2.5a7 7 0 0 0-.6-2.7q-.6-1.3-1.3-1.4-1-.1-2 .6-.8.7-.8 1.8v.1q-.3 1.6 1 3.6z"/><path fill="#fff" d="M494.4 573c5.2 1.3 4.6 7.4 2.2 11-.5-2.5-4-4.3-4.4-6 .4-2.7 3.5-2.1 2.2-5"/><path fill="#c09300" d="M494.4 572.3c3 .6 4.2 2.1 4.7 5.4q.2 3.9-2 6.8-.4.4-1 0l-.2-.6q-.1-1-2.3-3-2-1.9-2.1-3 0-1.6 1.8-2.8 1-.7.5-1.8-.4-.6.2-1zm1 1.7q.1 1.4-1.3 2.3-1.2 1-1.3 1.8.1.4 1.6 1.8 1.6 1.4 2.3 2.5 1.1-2.2 1-4.8-.3-2.8-2.2-3.6"/><path fill="#fff" d="M551.3 575.5c5.5.3 7.6 6 6.1 9.7-1-1.7-4.1-2.6-5.2-4.3-.8-3 .7-2.6-1-5.4"/><path fill="#c09300" d="M551.2 574.7c3 0 4.7 1.2 6.4 4 1.3 2.8 1.4 4.7.4 6.9q0 .3-.4.3l-.5-.1-.3-.4q-.4-.7-2.2-1.7-2.5-1.4-3-2.6-.5-1.5-.3-3 .2-1-.6-2.3-.4-.6.2-1zm1.2 1.4q.4 1.3.3 2.4t.2 2.1q.3.7 2.2 1.7l2 1.4q.6-2-.7-4.5-1.4-2.7-4-3"/><path fill="#fff" d="M530.4 588.8c-.3-3.5-3-3.7-3.4-7.2 0-2 .8-4 2.6-4.1 1.9.5 3.3 2.2 3.5 4 .4 3.7-2.3 3.7-2.7 7.2"/><path fill="#c09300" d="M529.7 588.7q0-1.5-1.5-3-1.9-2.2-2-4.2.1-1.7.8-3.1 1-1.9 2.6-1.6t3 1.7q1 1.5 1.2 3 .3 2.4-1.3 4.4a5 5 0 0 0-1.4 3q0 .6-.7.6-.7-.1-.7-.9m.7-2.3q.3-.8 1-1.4 1.3-1.7 1-3.3v-.1q0-1.1-.9-2.1t-1.9-1.2q-.7-.1-1.3 1t-.6 2.5 1.5 3q.7.7 1.2 1.6"/><path fill="#fff" d="M505.6 574.8c-5.2-.3-4.6 6-2.1 10.2.4-2.4 4-3 4.3-4.6-.4-2.8-3.5-3.2-2.2-5.6"/><path fill="#c09300" d="m505.6 574 .4.2q.6.6.2 1-.6.9.5 2 1.9 1.7 1.8 3.3 0 1.1-2.2 2.4-2 1.2-2.2 2.3 0 .3-.2.5-.6.3-1-.3a12 12 0 0 1-2-7.4c.5-3.2 1.8-4.2 4.7-4m-1 1.4q-2 .3-2.3 2.9-.1 2.6 1 5.1.7-.9 2.3-1.8t1.5-1.3q0-.9-1.2-2.2-1.5-1.4-1.4-2.7"/><path fill="#fff" d="M450.4 561.8c1.9.4 4.3 1.5 5.2 2.6z"/><path fill="#c09300" d="M450.5 561.4q3.9.6 5.5 2.7.3.4 0 .7h-.5l-5.2-2.5h-.1q-.3-.3-.2-.7t.5-.3"/><path fill="#fff" d="M459 565.9c1 .2 4.4 1.5 6.2 2.7z"/><path fill="#c09300" d="M459.1 565.4q3 .5 6.3 2.8.4.3.2.6-.2.4-.6.2l-6-2.7-.3-.2-.1-.5q0-.4.5-.2"/><path fill="#fff" d="M490.4 574.2a16 16 0 0 0-6-.2z"/><path fill="#c09300" d="m490.4 574.7-6-.1q-.2 0-.5-.3-.2-.4.1-.7 1-.7 6.4 0 .3 0 .5.4.1.4-.2.7z"/><path fill="#fff" d="M480.9 572.7c-1.2-1-4.2-1.5-6.1-1z"/><path fill="#c09300" d="m481.2 572.4.1.4q.1.4-.4.4l-6.2-1-.4-.3v-.4q0-.2.2-.2 1.4-.5 3.6-.2t3.1 1.3"/><path fill="#fff" d="M549.6 577c-1.9-.2-4.1.2-5.2 1z"/><path fill="#c09300" d="M549.6 576.5q.4 0 .4.4.1.4-.3.6l-5.1 1q-.3 0-.5-.2-.4-.4 0-.7 1.8-1.6 5.5-1.1"/><path fill="#fff" d="M541 578.4c-1 0-4.3.2-6.2.9z"/><path fill="#c09300" d="m541 579-6 .8q-.5 0-.6-.4t.2-.6q3.2-1.3 6.3-.9.4 0 .5.4l-.1.5z"/><path fill="#fff" d="M509.6 577.2c1.8.2 5 .8 6 1.7z"/><path fill="#c09300" d="m509.6 577.7-.4-.3-.1-.4q0-.4.5-.3 5.3.8 6.4 1.9l.2.3-.1.4h-.5z"/><path fill="#fff" d="M519.1 578.6c1.2-.7 4.2-.3 6.1 1z"/><path fill="#c09300" d="M519.1 579.1q-.4 0-.5-.6 0-.3.3-.4.8-.6 3-.3 2.2.4 3.6 1.4l.3.3-.1.4-.5.2zm-70.1-3.4q-1-.3-.8-1.2.4-1.1 1.3-.7l.9 1q-.1.7-.5.8l-.2.1zm60 13.6q-.4-.3-.5-.9c0-.5.6-1 1-1q.4.1 1 .7.4.8-.3 1.3zm.4 2.8q-.6-.3-.6-1-.1-.7.5-1h.4l.4.2q.8.4.8 1t-.7.8c-.4.1-.4.1-.8 0"/><path fill="#c09300" d="M453.8 571.4q-.7 0-1.2.4c-.7 0-1.5.3-2.2-.2q-1.3-.6-1.7.6.6 1.2 1.8.9c.5-.6 1.5-.7 1.8.3l-.9 2.5q0 .8-.5 1.4-.7-.2-1.5 0a2 2 0 0 0-1.7.8q-.8.9-1 2 .5 1.1 1.7 1.3l2.2 1 3.4 1.5 5.3 2 .6.3q1 .1 1.1-1.1l1-3.8c.3-.5.6-1.5-.4-1.5q-.7.6-1.8.7c-.9 0-.4.9 0 1.4q0 1-.5 2-1 0-2-.6c-.6-.1-1.7-.5-1.2-1.4l.5-1.9.5-2c-.5-1-1 0-1.6 0-.5.2-1.7.2-1 1 .5.6.1 1.3 0 2q-.3 1-1.6.6c-.8-.2-1.6-.8-1-1.5q.1-1 .4-1.9l.7-2.2.7-1.8.5-2.2q0-.5-.4-.6m-4 7.6h.3q.4.3 0 .6l-.3.2q-.7-.1-.7-.4-.1-.2.4-.3zm-1.2 5.4q-.8-.8.4-1.4.4-.4 1 .2.8.9 0 1.5-.2.3-.7.1-.3.1-.7-.4m3.4 1.6q-.9-.5-.7-1.4c.2-.4.2-.5 1-.4q.9.1.9 1 0 .5-.3.6-.4.3-1 .2m97.5 15q-.3-.3-.3-.7 0-.7.8-1 1-.3 1.3.5.6 1 0 1.3c-.3.3-.3.3-.9.2s-.6-.1-.9-.4m-93-13q-.6-.2-.6-.9 0-.4.3-.6l.6-.2q.4 0 .6.3.9.7.4 1.3-.5.5-1.3.2m24 4.7-.3-.3q0-1 .2-1.8l.2-1.8.5-3q0-.9.2-1.6l.2-2.4c0-.3.3-1 .6-.5l1.6 1.9c.4.4 0 .7-.3.8q-.6.4-.5 1l-.3 1.4-.2 2-.1 2.2-.2 1.2q0 .8-.5 1.3-.6.1-1.1-.4m32.5-6-1.5 1.2c-.6.5.4.9.7 1.3l.2 2.1q.3 1 .2 2c-.1.6-.9.4-1.3.7q-.7.4-1.2 1l-.4 1.7q-.1.8 0 1.6l.2.2.5.1q.9.2 1.7.1l4 .3 2.4.1q1 .2.9-.9c-.3-.8-.1-1.6-.3-2.4q-.3-1.2-.3-2.4-.3-1.1-1.2-.6-.7.3-1.2.8c-.3.6.6.8.8 1.3l.2 1.7q-.1.8-1 .6-1.1.3-1.8-.6-.3-.9-.2-1.8l-.3-3-.4-3.7q.2-1.1-.8-1.3m-.6 9.1.3.1v.9h-.8l-.2-.1q-.4-.3.1-.8zm-32.8-15.5c-.4 0-1 .5-1.4.5-1 0-.8.8-.1 1.4v1c.1.9-.3 1.5-.3 2.4q-.1 1.5-.4 2.8l-.4 3c-.2 1-.7.6-1.3.2v-1.2c0-1-.5-1.2-1.3-1.5q-1-.2-1-1.4.8-.3 1.7 0c1.1.1 1-1 .5-1.8l-1.6-2q0-1.5-1.3-2.6-1.8 0-2.5 1.6l-1.5.3c-.8.2-1.7 1.2-.8 2 .8.3 2.3.8 1.6 1.7q-.8 1-2 .2-1.5-.1-1.7-1.5t-.5-2.6c-.3-1-1.1-1-1.3 0q-1.1.8-.1 2.2.3 1.4-.4 2.4c-.3 1-1.1.9-2 1-.4.1-1.6-.3-1.2.6q1.2.7 2.6.7t2.2-1.2c.6-.4 1.5 0 2.4 0 .8.3 1.7.9 2.5.7.3-.7 1.2-1.4 1.7-.4q.1 1.5 1.6 1.6c1 .2.6.8.6 1.4q.2 1.5 1.6 2.3l.9.1q1.3-.1 1.9-1.3.4-1 .6-2.3l.5-3.7.4-3.5.4-2.6q-.2-.7-.6-.6m-7.4 3.6q.2 0 .3.6t.4.9q.3.1 0 .4h-.7q-1 0-1.4-.7l-.2-.3.3-.1.6-.5q.4-.4.7-.3m72.2 2.2h-1.8c-1.2 0-1.7.8-.6 1.7.7 1.7 1.5 0 2.7.2 1.5.7 1.7 2.2 2 3.7q.1 2 .8 3.9c.9 1.4-.7 1.7-1.6.7-.8-.9-2-1.8-3-1-.9.4-1 1.5-1.8 1.9-1.3 0-1.5-1.4-2.1-2.3-.8-1-1.9-1.3-3-1.8-.3-1.1-.2-2.6-1.1-3.5-1 .4-2.2 1.4-1 2.5 1 1.3-.5 1.5-1.2 2.1q-1 1.4-1 3.2c-1.4.4-1.6-1-1.8-2.2-.3-1.2-1-1-1.9-.7-1 .3-1.5 1.2-2.3 1.9v2.3c.4.9 1.3.7 2 .7 1.2-.2 1.5.8.7 1.5-.8.5-2.2 0-2.3 1.2l1.9.3q2-.3 2.5-2.2c.4-1 1.7-.7 2.8-.8 1.2-.1 2.3 0 2.7 1.5 1 1 2.3 2 3.4 1.1q1.2-.7 1.2-2.3c0-1 1.3-.7 1.8-.2.7 1 2.2 1 3.2.6.9-.6 1-1.6 2.4-1.5q3-.3 5.9-.8c1.4-.3-.1-1.3-.6-2-1.3-.6-2.1 1.2-3.6 0-1-1-1-2.3-1.3-3.6-.2-1.7-.3-3.3-1.2-4.7a4 4 0 0 0-2.8-1.4m-7.5 9.5.6.3q.8.6.8 1.2.1.4-.4.4l-.6.1q-.5-.2-.6-.7l-.2-.5v-.6zm7.2 1.5q.5 0 .8.5t-.4.8l-.5.1-.4-.3q-.4-.2-.4-.5 0-.6.9-.6m-9.8-1.4.4.2.3.8v.7q.1.3-.6.1-1 0-.8-.8 0-.6.3-.8zm-6 .7q.3.1.5.6 0 .4-.3.6h-1l-.2-.3v-.3l.2-.2.2-.2q.3-.3.6-.2m10.1 2.9q.3 0 .5.2.3.5 0 .6c-.2.1-1 0-1.3-.1l-.2-.3q-.1-.3.4-.4zm-18.8 2.5q-.2 0 0-.3.3-.4.8-.4.9-.4 1.5-1l.5-1-.1-1.5q-.3-.8-1-1.3-.4-.2-.8-.8l.4-1 .8-1.3q.5-.2.8.5l.5 1 .8 1.5.4 1.1.2 1.4q0 1-.2 1.8l-.7.8q-.5.4-1.2.6c-.3 0-.4.4-.8.2q-1 0-1.7-.2zm-7.5-.6q-.3-.5-.3-.8t.3-.6c.5-.4.7-.4 1.6.2q1.1.8 1 .3.4-.4 1-.4.4 0 .7.3c.3.3.3.3.3.9q0 .6-.3.7-.3.3-.8.2-.7-.2-.8-.8 0-.5-.2-.2l-.3.1-.9.4-.5.1q-.5.1-.8-.5M490.4 588q-1.3 0-1.6 1.1c.2 1 .7 1.8.4 2.7.2 1.2-.8 1.4-1.6.6q-.6-1.8-1.4-3.4c-1-.3-1.3.8-2 1.3.4 1 1.2 1.8 1.4 3q.1 1.6-1.3 2.4c-.8.5-1.7.2-2.7.2-1 .6.7 1 1.3 1.2q1.9.5 3.2-.5c.8-.4.8-1.6 1.8-1.7l5.2 1c1 .4 2.3.4 3 1.1q.3 1.9 2 2.8c.6.2 1.1-.3 1.7-.4 1-.3.8-1.4 1.4-2l5.4.8q.3-.1.7-.6l-.2-2.2c-.3-1 0-2-.6-3-1-.2-1.6.4-2.6.4q-1.6.4-1.9 2.2c-.7.9-1.4-.3-1.2-1.2v-1c-.7-.8-1.5-.8-2.3-1l-3.4-.7q-1.5-.2-2.9-.6c-1-.3-1-1.2-1.2-2.1zm2.1 4.5q.6 0 1.1.3.8 0 1.5.2l3.2.7.7.5v2.3q0 .5-.2.9h-.3q-.5 0-.7-.6v-1.5q-.3-.4-.8-.4l-2.7-.6-2.4-.5-.8-.5q-.2-.6.4-.8zm12.4 2.2q.2-.1.3.4l.1.6q0 .2-.2.2-.9.1-1.2-.2-.1-.4.1-.6.6-.4.9-.4"/><path fill="#fff" d="M500 530.5c35.5-23 32.6-64 32.6-64.3l-2.8-.1c-7.7-1.3-25-8.3-29.5-14.5-4.8 4.2-22.4 6.3-30.1 5.3l-2.8-.7c0 .3-3 40.3 32.6 74.3"/><path fill="#c09300" d="M500.2 531.2h-.4l-.2-.3a104 104 0 0 1-29.9-50.1 81 81 0 0 1-3-24.8l.1-.7.7.3 2.7.6q6 .9 16-.6 10.6-1.7 13.7-4.5l.5-.5.4.7q2.8 4 13.2 8.8a66 66 0 0 0 15.8 5.3q1.3.2 2.7.2h.7v.7q.8 10.5-3 23.8a69 69 0 0 1-29.8 41zm-.2-1.5a68 68 0 0 0 29-40q3.6-12.7 3-22.8l-2.2-.2q-6.6-1-16.1-5.4a39 39 0 0 1-13.4-8.8 60 60 0 0 1-30.1 5l-2.2-.5q-.6 9.9 3 23.6 7.2 28.3 29 49"/><path fill="#fff" d="m529.8 468.8-1-.1c-7-1.2-22.2-7-28.6-13.3a61 61 0 0 1-29 4.4l-1-.2.2 4.6a96 96 0 0 0 29.6 62.5 66 66 0 0 0 26.9-37.5 83 83 0 0 0 2.9-20.4"/><path fill="#c09300" d="M529.8 468.8h.5a76 76 0 0 1-3 20.6 65 65 0 0 1-27 37.7l-.3.2-.3-.3a98 98 0 0 1-30-67.5v-.6l.6.2.9.2q5.4.8 14.5-.4 9.8-1.3 14.2-4l.3-.2.3.3q4.2 4.2 13.9 8.5 8.7 3.7 14.4 4.7h1zm-.5.5-.5-.1a66 66 0 0 1-14.7-4.7 49 49 0 0 1-13.9-8.5 42 42 0 0 1-14.3 4q-9.2 1-14.7.3h-.5l.2 4a94 94 0 0 0 29 61.7c13.2-9 21.9-21 26.5-37a81 81 0 0 0 2.9-19.7"/><path fill="#c09300" d="M488.4 459a68 68 0 0 1-18.2.5l.2 4.7a94 94 0 0 0 18 49zm22.5 3.4v55.2a68 68 0 0 0 16-28.4 82 82 0 0 0 2.9-20.4l-1-.1c-4-.7-11.3-3.1-17.9-6.3"/><path fill="#fff" d="M513.5 449.5c.5-.2-.9-3.8-1-4.1 2.3 2.1 9 3.9 9.2 4-4.4-3.1-8.6-18-8.2-30.2.3-12-1.7-16.7-3.4-18.9-2.5-2.5-9-5.5-13.9-6.6-2.6-.3-2.2 1.5-2.2 1.7-5-2-9.4-3.1-11.8-2.1-2 1.6-2.7 7.4-1 7 3.9-2.1 6.6.6 9 4.4 1.8 3.4 1.7 11-1 20.2a59 59 0 0 1-10.9 18.2 25 25 0 0 0 10.4-2.3l-1.4 6a39 39 0 0 0 8.2-4.5l4.4 5.4c1.5-1.8 4.3-4 4.3-4 .2.1 3.7 4.1 9.3 5.8"/><path fill="#c09300" d="M513 450.1q-5.2-1.5-8.8-5.5-2.6 2-3.8 3.6l-.5.5-4.4-5.5q-3.6 2.7-8 4.2l-1.2.4 1.4-5.8q-5.4 2.3-9.4 1.8l-1.4-.2.9-1a49 49 0 0 0 10.8-18c2.9-9.6 3.1-15.8 1-19.6q-1.8-3-3.7-4.2t-4.3.1q-.7.4-1.2 0l-.6-1q-.3-1-.1-2.5.4-3.8 2.1-4.7c2.3-1 5.8-.5 11.6 1.7l.1-.4q.6-1.4 2.8-1 3.7.9 8 2.8 4.5 2.2 6.2 4.1c2.8 3.5 4 9.6 3.6 19.5q-.3 8.6 2.3 18.2c1.8 6.3 3.5 9.7 5.6 11.1l-.4 1.3q-5.1-1.2-7.8-2.7v.1l.5 1.6v.7q-.2.6-.9.5zm0-1.4-.4-1-.7-2.1 1-.6q1.5 1.6 6.6 3.1-2.4-3.2-4.4-10.3a63 63 0 0 1-2.3-18.7c.3-9.4-.8-15.2-3.2-18.4a19 19 0 0 0-5.7-3.7 40 40 0 0 0-7.7-2.6q-1.1-.2-1.4.3l-.1.6.2 1.1-1-.4c-6-2.4-9.3-3-11.4-2q-1.1.5-1.5 3.8v1.8c2-1 3.5-1 5.5 0q2.2 1.4 4.2 4.8c2.4 4.2 2.2 10.8-.9 20.8q-2.8 9-10 17.3 3.6 0 8.6-2.4l1.4-.7-1.5 6.2q3.7-1.5 6.7-3.9l.5-.4 4.3 5.3q1.5-1.5 4-3.5l.5-.4.4.5a17 17 0 0 0 8.2 5.5"/><path fill="#c09300" d="M496.5 418.4c-1.8 12.3-4.1 19.6-7.3 23l-1-1.2q4.4-4.4 6.9-22.2zm3.8 0q-1 18.8-4.2 24.3l-1.2-.8q3-5.4 4-23.7zm3.4 1.3q0 20.3 1.2 23.8l-1.3.3q-1.2-3.8-1.2-24.3zm4.4 1.7a58 58 0 0 0 5 23.7l-1.2.6a59 59 0 0 1-5.2-24.5zm-16.8-12.8q-.3-2.5-1.1-3.9c-2.4-3.8-5.1-6.5-9-4.4 0-.2 1.2-3.3 3.9-3.5 2.2.4 6.5 2.6 10.8 10.5-.1 0-2.8-1-3.7-.6-1.4 1-.9 1.8-.9 2"/><path fill="#c09300" d="M491.2 408.7q-.3-.4-.2-1a9 9 0 0 0-1-2.9 14 14 0 0 0-3.9-4.4c-1.7-1-3-1-4.8.1l-.5.3.2-.6q1.3-3.8 4-3.5c4 .5 7.4 3.7 11 10.5l.3.5-.4-.2q-3-1.2-3.6-.7-.8.6-.9 1l.1.8-.3.5zm0-1.5.8-.7q.8-.5 3.5.5c-3.5-6.4-6.7-9.4-10.4-10q-2.3-.1-3.5 2.9 2.3-1.2 4.7.2 2 1.4 4 4.5a9 9 0 0 1 1 2.6"/><path fill="#c09300" d="M480.8 395.4q.5-1.5 1.4-2.1c2.4-1 6.8 0 11.9 2 0 0-.5-2 2.1-1.6a34 34 0 0 1 13.9 6.6q.7 1 1.6 3c-1.4-1.7-4-2.1-5-2.2h-3.3q-1.3 0-2.5.5c-.5.4-.9 1.6-1.6 1.6-1.1-.2-1-.5-1.3-.9q-.6-1-1-1.3-1.8 0-5.6-3.6c-2.5-2.3-3.4-2.9-6.6-3.2-3.1 0-4 1.3-4 1.4z"/><path fill="#c09300" d="M481 395.7h-.1l-.4-.2.1-.2q.6-1.7 1.5-2.2c2.2-1 5.7-.4 11.7 2q0-.5.2-.9.5-1 2.2-.7 3.7.9 8 2.7 4.4 2.2 6 4 1 1.3 1.7 3l.1.3h-.5v-.2q-1.3-1.7-4.7-2h-3.7l-2 .5q-.2 0-.5.6-.7 1-1.3 1-1-.2-1.4-.8l-.1-.2-.4-.6-.4-.6q-1.8 0-5.7-3.6-3.1-3-6.5-3.2-2.9-.2-3.9 1.3m.4-1q1.3-.9 3.5-.7 3.6.4 6.7 3.3 3.8 3.5 5.4 3.5.5 0 .9.9l.3.5.1.2q.3.5 1.1.6.4 0 1-.9.3-.6.5-.7a6 6 0 0 1 2.3-.5h3.6q3 .2 4.4 1.5-.4-1-1.2-2-1.5-1.7-5.9-3.8a40 40 0 0 0-7.8-2.7q-1.4-.3-1.9.6v1.2l-.3-.1c-6-2.5-9.6-3-11.7-2.1q-.6.3-1 1.2"/><path fill="#fff" d="M500 400q0 1.1-1.3 1-1.1-.2-1.3-1.5.1-1.1 1.3-1 1.2.3 1.3 1.4"/><path fill="#1a1a1a" d="M8 195.3c170.8-85.3 341-54.5 513.3-28C676.5 191 833.4 211.8 992 132.7v672c-170.8 85.3-341 54.5-513.3 28C323.5 809 166.6 788.1 8 867.2zm31.3 19.3v604.5c306.5-128.2 611.1 96 921.5-33.7V180.9C654.2 309 349.5 84.9 39.3 214.6" opacity=".2"/></svg>