<svg xmlns="http://www.w3.org/2000/svg" viewBox="0 0 1000 1000"><path fill="#c60b1e" d="M8 195c171-85 341-54 513-28 155 24 312 45 471-34v672c-171 85-341 54-513 28-155-24-312-45-471 34z"/><path fill="#ffc400" d="M8 363c171-85 341-54 513-28 155 24 312 45 471-34v336c-171 85-341 54-513 28-155-24-312-45-471 34z"/><path fill="#ad1519" d="m228 439-1-2h-1l-1-1v-3l2-2 2-1 1-1h2l1-1h6l3-1h2l2 1 3 1 3 1 1 1 1 2v1l-1 1-1 2h-1l-1 1-11-1z"/><path d="m228 439-1-2h-1l-1-1-1-3 2-2 3-1 1-1h2v-1h2l1-1 2 1h2l5-1 2 1 4 1 2 1 1 1 1 1v2l-1 1-1 2-1 1h-2l-10-1zm0 0 10-2 10 1h1l1-1 1-1 1-1 1-1v-1l-1-1v-1l-1-1-3-1-3-1h-13l-1 1h-2l-1 1-2 1-2 2v3l1 1h1z"/><path fill="#c8b100" d="M240 429q1 4-2 4l-1-3 1-4q2 0 2 3"/><path d="M240 429v3l-2 1-1-1-1-2 1-3 1-1q2 0 2 3m0 0v-2l-2-1-1 4 1 3 2-1z"/><path fill="#c8b100" d="m239 429-1 4v-7z"/><path d="m240 429-2 4-1-3 1-3v-1l1 1zm-1 1-1-3v5h1z"/><path fill="#c8b100" d="m240 426-2 1-1-1 1-1zm0 0h-3 1v-2h-1v-1h1v-1h1v1h1v1h-1v2z"/><path d="m240 426-3 1v-2h1v-1h-1v-1h1v-1h1v1h1v1h-1zm0 0h-1v-4h-1v1h-1v1h1v2h-1zm-1-1 1 1-1 1-2-1zl-1 1 2 1 1-1z"/><path fill="#c8b100" d="M238 438h-6v-3l-1-2-3-3v-1q4-1 7 4l1 1h5l1-1q3-6 7-5v1l-3 4-1 2v3z"/><path d="M232 439v-4l-1-2-3-3h-1l1-1q3-2 7 4l1 1h5l1-1q4-7 7-5l1 1h-1l-3 4-1 2v3zm13-1v-5l4-4v-1q-3-1-7 5l-1 1-5 1-1-1q-4-7-7-5l4 4v5zm-17-9q2-1 6 5-4-6-6-4zm21 0q-2 0-6 5 4-6 6-5"/><path fill="#c8b100" d="m229 441-1-1a39 39 0 0 1 21-1l-1 2-1 1a33 33 0 0 0-18 0z"/><path d="m247 442-9-1-9 1v-1l-1-1a38 38 0 0 1 21-1l-1 2zm-18-1h1l8-1h10v-2a37 37 0 0 0-19 1z"/><path fill="#c8b100" d="m238 444 8-1 2-1h-1a34 34 0 0 0-17 0l-1 1 1 1z"/><path d="m238 445-8-1-1-1 1-1 8-1 9 1h1l-1 1zm0-1 8-1 2-1h-1l-9-1-8 1-1 1 2 1z"/><path fill="#c8b100" d="m249 438-1-1-2 1-1-2-2 1-1-1-2 1-2-1-1 1-2-1-1 1h-2l-1 1h-2l-1 1h1a38 38 0 0 1 19 0z"/><path d="M249 438a36 36 0 0 0-19 0l-1-1h1v-1 1h2l1-1v-1 1h2l1-1 2 1 1-1h1l1 1 2-1 1 1 2-1 1 1h2zm0 0-1-1-2 1-1-1h-5l-2-1-1 1h-2l-1 1-2-1-1 1h-2v1a38 38 0 0 1 19-1z"/><path fill="#c8b100" d="m239 435 1 2 2-1v-1 1l1 1 2-2h1l-1 1 2 1h1v-1 1l1 1 1-1 1-1v1l-1 1h-3l-2-1-2 1-1-1h-4l-1 1-2-1-1 1-2-1-2 1h-1l-1 1h-1l-1-2 1 1h1l1-1 1 1 2-2h-1l1-1v1l2 1 1-1v-1 1l2 1z"/><path d="m239 434 1 1h1l1-1v1l1 1 2-2v-1l1 1v1l1 1 1-1v1h2l1-1v1l-1 1-1 1-1-1h-1l-2-1h-3l-2 1-2-1-1 1-2-1-1 1h-2l-2 1-1-1-1 1h-1l-1-2v-1 1l1 1h1l1-1v-1 1l1 1 1-2 1-1v1l1 1h1l1-1v-1 1l2 1 1-1v-2m3 2-2 1-1-2h-1v1l-1 1-2-1-1 1-2-1v-1 1l-1 1-1 1-1-1-1 1h-1l-1-1 1 2h1l1-1h1l2-1 2 1 1-1h2l1-1h1l1 1zh3l2 1h1v-1 1h2l1-1v-1l-1 1-1 1-1-1h-1l-2-1v-1l-2 2z"/><path fill="#c8b100" d="m238 438-10 2v-1a38 38 0 0 1 21 0z"/><path d="m238 439-10 1v-1a37 37 0 0 1 21 0v1q-5-2-11-1m0-1 11 1zl-10 2z"/><path fill="#c8b100" d="M225 437h-1l1-1 1 1v-1 2"/><path d="M225 437h-1v-1h2v2m0-1"/><path fill="#c8b100" d="M228 436h-2l2-1z"/><path d="M228 436v1h-3l2-2zm-1 0-2 1h2zm-2 1v1zm0 0"/><path fill="#c8b100" d="M228 437v1z"/><path d="M228 437v1zm1 0"/><path fill="#c8b100" d="m229 436 2-1h-2z"/><path d="m229 436 1-1h2v1zm0 0 1-1h-1z"/><path fill="#c8b100" d="m231 433 1 2h1v-2z"/><path d="m231 433 2 1-1 2h-1zm0 0 2 2v-2z"/><path fill="#c8b100" d="M234 435h-2l1-1z"/><path d="m234 435-2-1 1-1zm0 0-1 1zm-1 0-1 1h-1v-1l1-1zm-1 0"/><path fill="#c8b100" d="m236 434 1 1h1v-1z"/><path d="m236 434 2 1h1l-1 1h-2zm0 0 1-1z"/><path fill="#c8b100" d="m238 431-1 1 1 2h1l1-2z"/><path d="m238 431 1 1-1 2h-1l-1-2zm0 1v2h1v-2z"/><path fill="#c8b100" d="m241 434-1 1h-1l-1-1h1z"/><path d="M241 434v1h-2l-1-1h1zm0 0h-1z"/><path fill="#c8b100" d="M239 434v-1z"/><path d="m239 434-1 1v-1zm0 0"/><path fill="#c8b100" d="M243 434v1h2v-1z"/><path d="m243 434 2 1v1h-2zm0 0h2z"/><path fill="#c8b100" d="m246 432-1 2h-1v-2z"/><path d="m246 432-1 2h-1l-1-3zm0 0-1 1v1l1-1z"/><path fill="#c8b100" d="m248 435-2-1 1-1z"/><path d="m248 435-1 1-2-1v-1zm-1 0-1 1h-1 1zm-1 0h-1l1-1zm0 0v1zm3 1v-1zm-1 0q0 1 0 0"/><path fill="#c8b100" d="M252 436h-1z"/><path d="M252 437v-1l1-1v1l1-1v1h1-1v1zm0-2h1zm0 1"/><path fill="#c8b100" d="M249 435v1h2l-1-1z"/><path d="M249 435h1l2 1-1 1-2-1zm0 1h2l-1-1z"/><path fill="#c8b100" d="M252 436h-1v1z"/><path d="M252 436h-1v-1zm0 0v1z"/><path fill="#ad1519" d="M228 441h1l-1 1z"/><path d="M228 441h1l-1 1zm1 0"/><path fill="#058e6e" d="M232 441h2z"/><path d="M232 441v-1h3l-1 1zm0 0h1zm4-1v-1h-1zm0 0v1z"/><path fill="#ad1519" d="M239 440h-2v-1zv1z"/><path d="M237 440h3v1zm3 0h-3v1zm2 0h1zm0 0"/><path fill="#058e6e" d="M245 440v1z"/><path d="M245 440h-2zv2zm0 0h-1zm3 1-1-1zm0 0"/><path fill="#ad1519" d="m238 444-8-1h17z"/><path d="m238 444-8-1a36 36 0 0 1 17-1v1zm0-1h8-15zm1 1v-2zm0 0v-2zm1-1v-1zm-2 1v-2zm0 0v-2zm-1 0v-2zm0 0v-2zm-1 0v-2h1zm0 0v-2zm0 0v-2zm-1 0v-2zm0 0v-2zm0 0v-2zm-4-1"/><path fill="#005bbf" d="m259 584-5-1a12 12 0 0 0-10 0l-6 1-5-1a12 12 0 0 0-10 1l-5 1v3l5-1a12 12 0 0 1 10-1 12 12 0 0 0 11 0 12 12 0 0 1 10 0l5 1z"/><path d="M259 583v4l-5-1-5-1-5 1a12 12 0 0 1-11 1l-5-1-5 1-5 2v-4l5-2 5-1 5 1 5 1 5-1a12 12 0 0 1 11-1zm0 1-5-1-5-1-5 1a12 12 0 0 1-11 0l-5-1-5 2-5 1v3l5-1a12 12 0 0 1 10-1 11 11 0 0 0 10 0 12 12 0 0 1 11 0l5 1z"/><path fill="#ccc" d="m259 587-5-1a12 12 0 0 0-10 0l-6 1-5-1a12 12 0 0 0-10 1l-5 1v3l5-1a12 12 0 0 1 10 0 12 12 0 0 0 11-1l5-1 5 1 5 1z"/><path d="M259 587v3l-5-1-5-1-5 1a12 12 0 0 1-11 1l-5-1-5 1-5 2v-4l5-1a12 12 0 0 1 10-1 11 11 0 0 0 10 0 12 12 0 0 1 11 0zm0 0-5-1-5-1-5 1a12 12 0 0 1-11 1l-5-1-5 1-5 1v3l5-1a12 12 0 0 1 10-1l5 1 5-1a12 12 0 0 1 11 0l5 1z"/><path fill="#005bbf" d="m259 590-5-1a12 12 0 0 0-10 0l-6 2-5-1a12 12 0 0 0-10 0l-5 1v4l5-2a12 12 0 0 1 10 0l5 1 6-1a12 12 0 0 1 10-1l5 1z"/><path d="M259 590v4l-5-1-5-1-5 1a12 12 0 0 1-11 0l-5-1-5 1-5 2v-4l5-1a12 12 0 0 1 10-1l5 1 5-1a12 12 0 0 1 11 0zm0 0-5-1-5-1-5 1a12 12 0 0 1-11 1l-5-1-5 1-5 2v2l5-1a12 12 0 0 1 10 0l5 1 5-2a12 12 0 0 1 11 0l5 1z"/><path fill="#ccc" d="m259 597-5-1a12 12 0 0 0-10 0l-6 1-5-1-5-1-5 1-5 2v-3l5-2a12 12 0 0 1 10 0l5 1 6-1a12 12 0 0 1 10-1l5 1z"/><path d="m259 597-5-1-5-1-5 1-6 1-5-1-5-1-5 2-5 1v-4l5-1a12 12 0 0 1 10 0l5 1 5-2a12 12 0 0 1 11 0l5 1zm0-1v-2l-5-1-5-1-5 1a12 12 0 0 1-11 0l-5-1-5 1-5 2v3l5-2 5-1 5 1 5 1 5-1a12 12 0 0 1 11-1z"/><path fill="#005bbf" d="m259 600-5-1-5-1-5 1-6 1-5-1-5-1-5 2-5 1v-3l5-2a12 12 0 0 1 10 0 12 12 0 0 0 11 0 12 12 0 0 1 10 0l5 1z"/><path d="m259 600-5-1-5-1-5 1-6 2-5-2h-5l-5 1-5 1v-3l5-2 5-1 5 1 5 1 5-1a12 12 0 0 1 11-1l5 1zm0 0v-3l-5-1-5-1-5 1-6 1-5-1-5-1-5 2-5 1v3l5-2 5-1 5 1 5 1 5-1a12 12 0 0 1 11 0z"/><path fill="#c8b100" d="M227 571v1q0 3-4 4l31-1q-4-1-4-4z"/><path d="m227 571 21-1h1v1q0 4 4 4h-31l3-1 1-2zm25 4-1-1-1-3h-1l-21 1h-1l-1 3z"/><path fill="#c8b100" d="M228 569h21l2 1-2 1h-21l-2-1z"/><path d="m228 569 21-1q2 0 2 2l-2 1-21 1-2-1v-2zm0 0-1 1h-1l2 1 21-1h2l-2-1z"/><path fill="#c8b100" d="m224 584 30-1v-8l-30 1z"/><path d="m223 576 31-1v8l-31 1zm1 0v7l29-1v-7z"/><path fill="#ccc" d="m228 568 21-1V460l-21 1z"/><path d="m228 461 21-1v107l-21 1zm0 0v107l21-1V460zm15-1v107zm3 0v107h-1z"/><path fill="#c8b100" d="m224 453 29-1v-8l-29 1z"/><path d="M224 444h29v8l-29 1zm0 1v7l29-1v-7z"/><path fill="#c8b100" d="m227 458 21-1h1l-1-2 1-2h-1l-21 1h-1l1 2z"/><path d="m227 457 1-1-1-2h1l21-1h1v1l-1 1 1 2h-1zm1 0h21l-1-2 1-1h-21l1 2z"/><path fill="#c8b100" d="m228 458 21-1 2 1-2 1-21 1-2-1z"/><path d="M228 457h21l2 1-2 1-21 1h-2v-2zm0 1-2 1h23l2-1-2-1z"/><path fill="#c8b100" d="M228 452h21l2 1h-2l-21 1-2-1z"/><path d="m228 452 21-1q2 0 2 2l-2 1h-23v-1zm0 1h-2zl21-1h2l-2-1z"/><path fill="#ad1519" d="M221 542q-5 3-4 4l2 3q3 2 2 5l3-6q0-4-3-6"/><path d="M221 542q3 2 4 6l-3 6h-1v-3l-2-2-3-2q0-2 5-5m0 0-4 4 2 2 3 3v2l2-5q0-4-3-6"/><path fill="#ad1519" d="M271 500a64 64 0 0 0-32-2q-21 4-22 12v1l-4-11q0-9 24-15a69 69 0 0 1 34 2z"/><path d="M271 500q-7-3-22-3l-10 1q-9 1-16 6-6 3-5 6v1h-1l-5-11q0-4 7-8a60 60 0 0 1 30-8 61 61 0 0 1 22 3zm0 0v-13q-9-3-22-3a69 69 0 0 0-30 8q-7 4-6 7l4 10q1-3 6-6a54 54 0 0 1 26-7q13 1 22 4"/><path fill="#ad1519" d="M228 514q-9 0-11-4 0-3 6-6h5z"/><path d="M228 515q-10-1-11-5 0-3 5-7h1l5 1zm0-1v-10h-5q-6 3-5 6 0 4 10 4"/><path fill="#ad1519" d="m249 505 8 3q1 3-8 8z"/><path d="m249 505 8 3q2 3-8 8zm0 1v10q8-5 8-8z"/><path fill="#ad1519" d="M215 536q0-4 13-9l11-5q18-9 18-14l2 11q-1 4-17 13l-14 6q-11 6-11 8z"/><path d="M214 536q0-3 14-10l9-4h1l14-8q6-4 5-6v1l2 10-4 6a93 93 0 0 1-27 14l-8 4-3 3v1h-1v-1zm1 0 2 9 3-3 8-4 26-14q6-3 4-5l-1-9-4 4-14 8-2 1-9 4q-14 6-13 9"/><path fill="#ad1519" d="m434 450-1 1-2-1-1 1-2-1-2 1h-3v-1l-1-1h-1l-1-2q0-2 3-2h7l4 1h4l4 1 3 1 3 3v2h-1l-1 1h-2v-1h-2l-1-1h-2l-2-1-1 1z"/><path d="M434 451h-4l-2-1-2 1h-4v-2h-1l-1-2q0-3 3-2h3l4-1 4 2h4l4 1 3 1q4 1 3 3v2h-1l-1 1h-2v-1h-2l-1-1-2 1-2-1h-1zm0-1 2 2 1-1h1l1 1h2v-1 1l1 1h2l1 1h1l1-1 1-2-3-3h-3l-4-2h-4l-4-1h-7q-3 0-3 2h1v2h1l1 1v1h1l1-1 1 1 2-1 1 1 2-1 1 1z"/><path fill="#c8b100" d="m436 445-2 2q-2 0-2-3l2-2q2 0 2 3"/><path d="M436 445v2h-2l-1-1-1-2 1-2h1q2 0 2 3m0 0-1-2-1-1-1 1v1l1 3q2 1 2-2"/><path fill="#c8b100" d="m435 445-1 2-1-2 1-3z"/><path d="m435 445-1 2-1-1v-3l1-1zm0 0-1-3v5z"/><path fill="#c8b100" d="m435 442-1-2 1-1zm1-1v1h-3v-1h1v-2h-1 1v-1h1v3z"/><path d="M436 441v1h-4v-1h2v-1l-1-1v-1h2v1h1v1h-1v1zm0 1-2-1v-2h1-1v-1 1h-1 1v2h-1v1zm-1-2 1 2-2 1-1-1 1-2v1l-1 1 1 1 1-1zm-15 8v-2l1-2 3-1 2 1-2-1-3 1-1 2zm7-2v-1q0-3 3-3l3 1-1 1-2-1h-2l-1 2zm14 2v-1q0-3-3-3h-2l2-1q4 1 4 4zm7 4v-2q0-3-4-4h-2 2q4 0 4 4zm-28-6v-2zm0-2-1-1zm2-2-1 1-1-1zm1 0q0 1 0 0m2 0-1-1zm2 3h-2l1-1zm0-2h-1l1-1zm0 0v1zm1-1h-1l1-1zm2-1v-1zm2 1v-1zm0 0v1zm6 1h-1l-1-1h1zm2 0h-1v-1h1zm1 1-1-1h1zm2 1-1-1zm0 0"/><path fill="#fff" d="m443 447-1-1z"/><path d="m443 447-1-1zm1-2-1-1zm2 0-1-1zm2 1v-2zm2 4-1 1h-1v-1l1-1zm-1 0"/><path fill="#c8b100" d="m425 454-1-1h10l10 2v2l-1 1a36 36 0 0 0-18-3z"/><path d="M443 458a36 36 0 0 0-18-3v-1l-1-1v-1l10 1 10 2h1l-1 2zm-18-4h9l9 2v-1h1a43 43 0 0 0-20-3z"/><path fill="#c8b100" d="M434 459h8q2 0 1-1a39 39 0 0 0-18-3v1l1 1z"/><path d="m434 459-8-2-1-2h9l9 2 1 1-2 1zm0 0h8l1-1-9-3h-9v1l1 1z"/><path fill="#c8b100" d="M444 454h-2l-1-1h-2l-2-1-1 1-2-2-1 1-2-1-1 1-2-1-2 1-1-1-1 1v1a39 39 0 0 1 20 3z"/><path d="M445 454a41 41 0 0 0-20-3v-1l1-1 1 1 2-1 2 1 1-1 1 1 2-1 2 2 1-1h1l1 1h2l1 1h2zm-1 0h-2l-1-1-2 1-2-1h-1l-2-1h-4l-2-1-2 1h-2v1h10z"/><path fill="#c8b100" d="m434 449 1 1h1l1-1v1l1 1 2-1v-1 1l1 2h2v-1 1l1 1 1-1h1l-1 1-2 1-1-1h-1l-1-2-2 1-2-1h-1l-2-1-2 1-1-1h-6l-1 1-1-1-2-1 1-1 1 1 1 1v-2l1 1 1 1 1-2v-1l1 1 1 2 2-1v-1 1l1 1z"/><path d="m434 449 1 1 1-1h1v1l1 1 1-1 1-1v1l1 2 2-1v1l1 1 1-1 1-1v1l-1 2h-2l-1-1h-1l-1-1h-2l-2-1h-1l-2-1-2 1-1-1-2 1-1-1-2 1-1-1-1 1-1-1-2-1v-1h1l1 1 1 1v-2l1 1h1q1 1 1-1v-1l1 1v1h3v-1 1l1 1 1-1zm3 2h-1l-2-1v-1 2h-2l-1-1-2 1-1-2h-1v2h-1l-1-1-1 1-1-1-1-1v1l1 1 1 1 1-1h1l2-1 1 1h5l2 1zl1 1 1-1h1l1 2 1-1h1v1h2l1-1-1 1h-1l-1-1h-2l-1-2-1 1h-1z"/><path fill="#c8b100" d="M434 453h-10v-1zl10 3h1-1z"/><path d="M434 453h-10v-1q-1 0 0 0h10q6 0 11 3l-1 1zm0 0 11 2h-1a40 40 0 0 0-20-3z"/><path fill="#c8b100" d="m421 449-1-1h-1l1-1v1-1l1 1z"/><path d="M421 449v-1h-1v-1h1l1 1zm0-1v-1h-1z"/><path fill="#c8b100" d="M423 449h-2l1-1z"/><path d="m423 449-2-1 1-1zm0 0-1 1z"/><path fill="#c8b100" d="M424 450v-1z"/><path d="M424 450v-1zm0-1"/><path fill="#c8b100" d="M425 449h1v-1h-2z"/><path d="M425 449v-1l2 1h1l-1 1zm0-1 1 1 1-1z"/><path fill="#c8b100" d="M427 446h-1l1 2h1v-2z"/><path d="M427 446h1v2l-1 1v-1l-1-2zm0 0 1 2z"/><path fill="#c8b100" d="M430 448h-2l-1-1h1z"/><path d="M430 448v1h-2l-1-1zm0 0h-1z"/><path fill="#c8b100" d="M428 448v-1z"/><path d="m428 448-1 1v-1q0-1 0 0zm0 0"/><path fill="#c8b100" d="M431 449q-1 0 0 0"/><path d="M430 449v1zm1 0"/><path fill="#c8b100" d="M432 448v1h2v-1z"/><path d="m432 448 2 1v1h-2zm0 0v1h2z"/><path fill="#c8b100" d="m434 446 1 2v1l1-2z"/><path d="m434 446 2 1-1 2h-1l-1-3zm0 0 1 1 1-1z"/><path fill="#c8b100" d="m437 449-2-1v-1z"/><path d="m437 449-2-1v-1h2zm-1 0-2 1zm-1 0h-1l1-1zm0 0v1z"/><path fill="#c8b100" d="M439 449v1h2z"/><path d="m439 449 2 1v1h-2zm0 1h2z"/><path fill="#c8b100" d="m442 448-1 1-1-2z"/><path d="m442 448-2 1-1-2zm0 0h-1v2z"/><path fill="#c8b100" d="m443 451-2-1v-1z"/><path d="m444 451-1 1-2-1v-1h2zm-1 0h-2z"/><path fill="#c8b100" d="m442 450-1 1-1-1z"/><path d="m442 450-1 1h-1v-1l1-1zm2 2q1 0 0 0m0 0"/><path fill="#c8b100" d="m447 453 1-1h1l-1-1v1-1l-1 1z"/><path d="M447 453v-1l1-1h1v1h-1zm1-2v1l1-1zm-1 2"/><path fill="#c8b100" d="M445 452h2z"/><path d="M445 452h1l1 1v1zm0 0 2 1z"/><path fill="#c8b100" d="M447 453q0-1 0 0-2 0 0 0 0 2 0 0 2 0 0 0"/><path d="M448 453h-1 2m-25 1 1 1-1 1zm0 0"/><path fill="#058e6e" d="M428 454h-2l1-1zv1z"/><path d="M428 454h-2l1-1h2v1zm0 0h-1v1z"/><path fill="#fff" d="M432 454h-2l1-1z"/><path d="M432 454h-1l1-1zm-1 0"/><path fill="#ad1519" d="M434 454h-1v-1l3 1v1z"/><path d="m433 454 3 1v1zm3 0h-3zm2 1v-1zm0 0"/><path fill="#058e6e" d="M441 456h-3l1 1z"/><path d="M441 456h-1l-1-1h3v1zm0 0h-2 1z"/><path fill="#ad1519" d="M444 457h-1z"/><path d="M444 457v-1zm0 0"/><path fill="#ad1519" d="m434 458-8-2 16 2z"/><path d="m434 458-8-2a36 36 0 0 1 17 2v1zm0 0h8l-15-2zm0 0v-2zm1 0v-2zm1 0v-1zm-2 0v-2zm-1 0v-2zm0 0v-2zm0 0v-2zm-1 0v-2zm0 0v-2zm-1 0v-2h1zm0-1v-1zm0 0v-1zm-1 0v-1h1zm0 0v-1zm0 0v-1zm0 0v-1zm-1 0v-1zm0 0v-1zm0 0v-1zm-1 0v-1zm0 0v-1zm0 0v-1zm-1-1"/><path fill="#005bbf" d="m455 602-5-2-6-2h-5l-5 1-5-2-5-2h-5l-5 1v3l5-1h5l5 2 5 2 5-1h5l6 2 5 2z"/><path d="M455 601v4l-6-2-5-2-5 1h-5l-5-2-5-2-5 1h-5v-4h10l5 1 5 2h5l5-1 6 2zm-1 1-5-2-5-2h-5l-5 1-5-2-5-2h-5l-5 1v3l5-1h5l5 2 5 1h10l6 2 4 1z"/><path fill="#ccc" d="m455 605-5-2-6-2h-5l-5 1-5-2-5-2h-5l-5 1v3h5l5-1 5 2 5 2h5l5-1 6 2 5 2z"/><path d="M455 605v3l-6-2-5-2-5 1h-5l-5-2-5-1h-10v-3l5-1h5l5 2 5 1h10l6 2zm-1 0-5-2-5-2-5 1h-5l-5-2-5-2-5 1h-5v3l5-1h5l5 2 5 2 5-1h5l6 2 4 2z"/><path fill="#005bbf" d="m455 608-5-2-6-2-5 1h-5l-5-2-5-2-5 1h-5v3h10l5 1 5 2h5l5-1 6 2 5 2z"/><path d="M455 608v4-1l-6-1v-1a13 13 0 0 0-10-1h-5q-3 1-5-2l-5-1h-5l-5 1v-4l5-1h5l5 2 5 2 5-1h5l6 2zm-1 0-5-2-5-2-5 1h-5l-5-2-5-1h-10v3h5l5-1 5 2 5 2h5l5-1 6 2 4 2z"/><path fill="#ccc" d="m455 614-5-1-6-2h-10l-5-1-5-2h-5l-5 1v-4h10l5 1 5 2h5l5-1 6 2 5 2z"/><path d="m455 615-6-2a13 13 0 0 0-10-2l-5 1-5-2a13 13 0 0 0-10-2l-5 1v-4h5l5-1 5 2 5 2h5l5-1 6 2 5 2zm-1-1v-3l-5-1v-1a13 13 0 0 0-10-1h-5q-3 1-5-2l-5-1h-5l-5 1v2h5l5-1 5 2 5 2h5l5-1 6 2z"/><path fill="#005bbf" d="m455 618-5-2-6-2h-5l-5 1-5-2-5-2h-5l-5 1v-3l5-1h5l5 2 5 1h10l6 2 5 1z"/><path d="m455 618-6-2-5-2-5 1h-5l-5-2-5-2-5 1h-5v-4h5l5-1 5 2 5 2h5l5-1 6 2 5 2zm-1-1v-2l-5-2a13 13 0 0 0-10-2l-5 1-5-2-5-2h-5l-5 1v3l5-1h5l5 2 5 1h10l6 2z"/><path fill="#c8b100" d="M423 584q-1 5-4 3l30 5q-3-1-3-4v-1h-1z"/><path d="m422 584 22 4h1v1q0 3 3 4h1-1l-30-4v-1h3zm25 7-2-3v-1l-22-3-1 4z"/><path fill="#c8b100" d="m423 582 22 3 1 1-1 1-22-3-1-2z"/><path d="m423 581 22 3 2 2-2 1-22-3-1-1v-1zm0 1h1l22 4 1-1-1-1z"/><path fill="#c8b100" d="m419 595 30 5v-8l-30-5z"/><path d="m419 587 30 5v8l-30-4zm0 1v7l30 4v-7z"/><path fill="#ccc" d="m424 580 21 3V476l-21-3z"/><path d="m423 473 22 3v108l-22-3zm1 1v106l21 3V477zm15 2v107l-1-1zm2 0v107z"/><path fill="#c8b100" d="m420 464 29 5v-8l-29-5z"/><path d="m419 456 30 4v9l-30-4zm1 1v7l29 4v-7z"/><path fill="#c8b100" d="m423 470 22 3h1l-2-2 2-1h-1l-22-3v-1l1 2z"/><path d="m423 470 1-2-1-1-1-1h1l22 3h1v1l-1 1 1 2v1l-1-1zm1 0 21 3-1-2 1-1-21-3z"/><path fill="#c8b100" d="m423 470 22 3 1 1-1 1-22-3-1-1z"/><path d="m423 470 22 3 2 1q0 2-2 1l-22-3h-1v-2zm0 0 1 1 22 3 1-1-1-1z"/><path fill="#c8b100" d="m423 465 22 3 2 1-2 1-22-3-1-1z"/><path d="m423 465 22 3 2 1-2 1-22-3-1-1q0-2 1-1m0 0h1l22 3h1l-1-1z"/><path fill="#ad1519" d="M452 558q4 3 4 5l-2 2-3 5-2-6q0-4 3-6"/><path d="M452 558q-3 2-3 6l3 6h1v-2l2-3 2-2q1-1-4-5m0 0 4 5-2 2-3 2v2l-2-5q0-4 3-6"/><path fill="#ad1519" d="M402 510a65 65 0 0 1 32 2q21 8 21 15l5-11q0-7-24-16a79 79 0 0 0-34-3z"/><path d="M402 511q7-3 21-1a75 75 0 0 1 26 10q7 4 6 7h1l4-10q1-4-6-9a70 70 0 0 0-30-11h-22zm0-1v-12q7-3 22-1a77 77 0 0 1 30 11q6 5 6 8l-4 10-6-7a64 64 0 0 0-27-10q-14-1-21 1"/><path fill="#ad1519" d="M445 530q9 0 10-3t-5-7l-5-1z"/><path d="M445 530q10 2 11-3 0-3-6-7l-5-1zm0 0v-10h5q6 4 5 7t-10 3"/><path fill="#ad1519" d="m424 519-8 1q-1 3 8 9z"/><path d="m424 518-8 2h-1q-1 3 8 9l1 1zm-1 1v10l-7-8v-1z"/><path fill="#ad1519" d="M458 553q-1-3-13-11l-11-6q-18-11-18-16l-2 11q1 5 17 15l14 8q10 5 11 9z"/><path d="M458 553q2-4-13-11l-9-5-2-1-14-10-4-5v-1h-1v1l-1 10 4 6a104 104 0 0 0 27 17l8 5 3 4h1zm0-1-2 10-3-3-8-5-26-17q-5-4-5-6l1-9 5 5 14 9 1 1 10 6z"/><path fill="#c8b100" d="M226 496q4-1 4-5h-4l-4 1 4 8h1l1-1zm-1-4q1-1 2 1l-1 2h-1zm10-4-1 1h-2l2 8 6-1v-1l-4 1zm11 7 3-9h-1l-2 7-3-6h-3l5 8zm12-7-3-1q-3 0-3 3c0 3 4 3 4 5l-2 1-2-2-1 2h2q4 0 5-2c0-3-4-3-4-5l1-1zm157 20 2-9-2 6-4-6h-3l6 9zm8-9h-1v9l6 1v-1l-4-1zm9 3 3 1v-1l-8-2v1l3 1-1 7 2 1h1zm4 9h1l1-4 1 2 1 3 1 1h2l-1-1-2-4 3-1-1-3-2-1-3-1zm4-7 2 2v1l-3 1zm11 12-1 3 2 1h1l1-9-1-1-9 4 1 1 3-1zm-2-3 2-1v3z"/><path fill="#ad1519" d="m336 388 21 5a49 49 0 0 0 20 6q6 0 14 5 7 3 10 8l-2 1v6l-6 5-3 3-7 4h-3l-1 3-43-9-43 2-2-3h-3l-7-6-2-3-6-6-1-6-2-2a38 38 0 0 1 24-9 50 50 0 0 0 20-2q9-3 22-2"/><path d="m336 388 21 5a47 47 0 0 0 20 6q6 0 14 5 7 3 10 8h1l-3 1v6l-6 6-3 2-6 4h-4l-1 3-43-9-44 2-1-3h-3l-7-6-3-2-5-7-1-6-2-2a38 38 0 0 1 24-9 49 49 0 0 0 20-2q9-3 22-2m0 0q-13 0-21 2l-12 2h-9l-13 3-10 6 2 2v6l6 6 2 3 7 5 4 1 1 3 43-3 43 10 1-3h3l7-5 3-2 5-6 1-5 2-1a46 46 0 0 0-24-13 50 50 0 0 1-20-5q-9-5-21-6"/><path fill="#c8b100" d="m304 398 1 1 3-4q-5-3-5-9v-1q2-10 16-10 8 0 12 4v-2q-5-4-12-4-16-1-18 12v1q0 6 4 9z"/><path d="m304 398 2-3a13 13 0 0 1-4-11q0-5 5-8 6-4 13-4l12 4v4-1a21 21 0 0 0-23-1q-4 3-4 7l-1 1q1 5 5 9h1l-3 5zm0 0 1 1 3-4a11 11 0 0 1-5-10q0-5 5-8t11-2 12 4v-2q-5-3-12-4-7 0-12 3-6 3-6 9v1q0 5 4 9z"/><path fill="#c8b100" d="M304 398q-6-5-6-11t7-11a12 12 0 0 0-4 10q0 6 4 9z"/><path d="M304 398q-6-5-6-11t7-11l1 1a11 11 0 0 0-5 9q0 5 4 9zm0-1 1-2a13 13 0 0 1-4-11l2-6q-4 4-5 9 1 6 6 10"/><path fill="#c8b100" d="M273 401q-3-3-3-8l1-5q6-9 22-10l8 1-1 2-7-1q-15 1-19 9l-1 4q0 5 3 8l-3 6-2-2z"/><path d="M273 401q-3-3-3-8l1-5q3-5 8-8a33 33 0 0 1 22-1h1v1l-2 2-7-1q-6-1-12 2-6 2-7 6l-1 4q0 5 3 8h1l-4 6-2-2zm1 0-3 4 2 1 3-5q-4-3-4-8l1-4q3-4 8-7a30 30 0 0 1 19-1l1-1-8-2q-7 0-13 3t-8 7l-2 5 3 8z"/><path fill="#c8b100" d="m277 382-6 6-1 5q0 5 3 8l-2 4-3-9q0-9 9-14"/><path d="M277 382q-4 3-5 6l-2 5 3 8h1l-3 4-3-9q0-8 9-14m-5 4q-4 4-4 10 0 5 3 8l2-3q-3-3-3-8z"/><path fill="#c8b100" d="M336 373q3 1 5 4v8l2 11-7 7-7-8 2-11v-8q2-3 5-3"/><path d="M336 373q4 0 5 4l1 6v2l1 11-7 7-7-8 1-11v-2l1-6q1-4 5-3m0 0q-4 0-5 3v8l-2 11 7 7 7-6-2-11v-8q-1-4-5-4"/><path fill="#c8b100" d="m336 375 3 2v7l2 11-5 5-5-5 2-11v-1l1-6z"/><path d="M336 375q2 0 3 2v7l2 11v1l-5 4-5-5 2-11v-7q1-3 3-2m0 0-2 2-1 6v1l-1 11 4 4 4-4-1-11v-1l-1-6z"/><path fill="#c8b100" d="m368 403-1 1-3-5a9 9 0 0 0 5-9q-2-10-16-12-7-1-12 2v-3l12-2q16 4 18 15v1q0 6-4 9z"/><path d="m369 403-2 2-3-6a9 9 0 0 0 5-9l-5-8q-5-3-11-4-7-1-12 2v-3q5-3 12-2t13 5 5 10l1 1q-1 6-5 9zm-1 0-1-3a11 11 0 0 0 4-10q0-5-6-9a24 24 0 0 0-24-3v1l12-2q6 1 11 5 5 3 5 8v1q0 6-5 9l3 4z"/><path fill="#c8b100" d="M368 403q6-3 6-10 0-6-7-12a14 14 0 0 1 4 10q0 6-4 9z"/><path d="m368 403-1-3a11 11 0 0 0 4-10q0-5-5-8l1-1q7 6 7 12 0 7-6 10m0 0q5-4 6-10-1-4-5-9l3 7q-1 6-5 9z"/><path fill="#c8b100" d="M399 411q3-3 3-8l-1-5q-6-10-22-13h-8l1 2h7q14 3 20 12v4q0 5-3 7l3 7 2-2z"/><path d="m399 411 2 4-2 2-4-7h1q3-3 3-7l-1-4q-1-4-7-7a34 34 0 0 0-19-5l-2-2h1a37 37 0 0 1 22 4l8 9 1 5q0 5-3 8m0 0q3-3 3-8l-2-5q-2-5-8-8a36 36 0 0 0-21-5l1 2a36 36 0 0 1 19 4q5 3 8 8l1 4q0 5-4 8l3 5 2-1z"/><path fill="#c8b100" d="m395 391 6 7 1 5q0 6-3 8l2 4q3-4 3-9 0-7-9-15"/><path d="M395 392q9 7 9 15 0 5-3 9l-3-4h1q3-3 3-8l-2-5q-1-3-5-6m5 4 1 2 1 5q0 5-3 8l2 3q3-3 3-8 0-4-4-10"/><path fill="#005bbf" d="M342 368q-1 5-6 5-4-1-6-6 2-5 6-5 5 1 6 6"/><path d="m342 368-2 4-4 1-4-2-2-4 2-4 4-1q3-1 4 2zm0 0-2-4-4-2-4 1-2 4 2 4 4 2 4-1z"/><path fill="#c8b100" d="M335 352v3l-4-1v3l4 1v9l-4-1-1 1 1 2 10 1 1-2v-1h-4v-9h3v-3h-3v-3z"/><path d="m334 351 4 1v3h3v3h-3v9h4v3l-11-1-1-2v-1h4v-8h-3v-4h3zm1 1v3l-3-1v3h3v10l-4-1v1h-1l1 2 10 1 1-2-1-1h-3v-9h3v-3h-3v-3z"/><path fill="#fff" d="M339 397q-1 2-3 2t-2-3l2-2q2 0 3 3"/><path d="m339 397-1 2h-2q-3 0-3-3 0-2 3-2l2 1zm-1 0v-2l-2-1q-2 0-2 2t2 3l2-1z"/><path fill="#fff" d="M339 392q-1 2-3 2l-2-2q0-3 2-3z"/><path d="M339 392q0 3-3 2-3 0-3-2 0-3 3-3t3 3m-1 0v-2h-4v2l2 2 2-1z"/><path fill="#fff" d="m338 387-2 2-2-2q0-2 2-2z"/><path d="M338 387q1 2-2 2a2 2 0 0 1-2-3q0-2 2-2 3 1 2 3m0 0-1-1-1-1q-2 0-2 2l1 1h1z"/><path fill="#fff" d="m338 382-2 1-1-1 1-1z"/><path d="m338 382-1 1-1 1-1-1-1-1 2-2 1 1zm-1 0-1-1-1 1v1h1z"/><path fill="#fff" d="m337 378-1 1-1-1 1-1z"/><path d="m337 378-1 1-1-1v-1h2zm0 0-1 1v1z"/><path fill="#fff" d="m270 406-1 2-1-2 1-1z"/><path d="m271 406-1 2h-1q-2 1-2-2l2-1zm-1 0-1 1 1 2z"/><path fill="#fff" d="m268 403-1 1-1-1 1-2z"/><path d="m269 403-2 1-2-1 1-1h2zm-1 0v-1h-1l-1 1z"/><path fill="#fff" d="m267 399-1 1-2-1 2-2z"/><path d="M267 399h-2l-1-1q0-3 2-2zm0 0-1-1-1 1 1 1z"/><path fill="#fff" d="m267 394-1 2-2-2 2-1z"/><path d="M267 394v1l-1 1q-2 0-2-2l2-1zm0 0-1-1h-1l-1 1 2 1z"/><path fill="#fff" d="m268 390-1 1-2-1 2-2z"/><path d="m268 390-1 2-2-2v-1l2-1zm0 0-1-1-2 1 2 1z"/><path fill="#fff" d="m270 386-1 1-2-1 2-1z"/><path d="m271 386-2 2-1-1-1-1 2-2 1 1zm-1 0h-1l-1 1 1 1z"/><path fill="#fff" d="m273 383-1 1-2-1 2-2z"/><path d="m273 383-1 1-2-1 2-2 1 1zm0 0v-1h-2v1l1 1z"/><path fill="#fff" d="m277 380-2 1-1-1 1-1z"/><path d="m277 380-1 1-1 1-1-1v-2l1-1zm-1 0h-2v1l1 1z"/><path fill="#fff" d="m281 378-2 1-1-1 1-1z"/><path d="M281 378q1 2-2 2l-1-1v-1l1-2 2 1zm0 0h-2v2h1z"/><path fill="#fff" d="m285 376-1 2-2-2 2-1z"/><path d="m285 376-1 2q-2 1-2-2v-1h3zm0 0-1-1-1 1h-1l2 2v-1z"/><path fill="#fff" d="m290 376-2 1-1-1 1-2z"/><path d="M290 376h-3v-1l1-2 2 1zm0 0-2-1-1 1 1 1z"/><path fill="#fff" d="m294 376-1 1-2-1 2-2z"/><path d="m295 376-2 1-2-1 1-2h1l1 1zm-1 0v-1l-1-1-1 2 1 1z"/><path fill="#fff" d="m299 376-2 1-1-1 1-1z"/><path d="m299 376-1 1-1 1-1-2v-1l1-1zm-1 0-1-1-1 1v1h2z"/><path fill="#fff" d="m304 396-2 2-1-2 1-1z"/><path d="m304 396-2 2-1-1-1-1 2-2zm-1 0-1 1v1h1z"/><path fill="#fff" d="m301 393-1 1-2-2 2-1z"/><path d="m301 393-1 1q-2 1-2-2l2-1h1zm0 0-1-2-1 1 1 2z"/><path fill="#fff" d="m300 389-2 1-1-2 1-1z"/><path d="M300 389h-3v-3h3zm0 0-2-2-1 1 1 2z"/><path fill="#fff" d="m300 384-1 2-2-2 2-1z"/><path d="M300 384v1l-1 1-2-1v-1l2-1zm0 0-1-1-2 1 2 1z"/><path fill="#fff" d="m301 380-2 1-1-1 1-1z"/><path d="M301 380q0 2-2 2l-1-2 1-2 2 1zm0 0h-1l-1 1 1 1z"/><path fill="#fff" d="m303 376-1 2-2-2 2-1z"/><path d="M303 376v1l-1 1-2-2v-1h2zm0 0-1-1h-1l-1 1 2 1h1z"/><path fill="#fff" d="m306 374-1 1-1-1 1-2z"/><path d="M307 374h-2l-1-1 1-2h1zm-1 0-1-1h-1v1z"/><path fill="#fff" d="m310 372-1 1-1-1 1-2z"/><path d="m311 372-2 1-2-1 1-2h1l1 1zm-1 0-1-2-1 1v1l1 1z"/><path fill="#fff" d="m315 371-2 1-1-2 1-1z"/><path d="m315 371-2 1-1-2 1-1zm-1 0v-1l-1-1-1 1v1z"/><path fill="#fff" d="m319 370-1 1-2-1 2-1z"/><path d="m320 370-2 2-2-2 2-2zm-1 0h-1l-1 1 1 1z"/><path fill="#fff" d="m324 371-2 1-1-2 1-1z"/><path d="M324 371h-1l-1-2 1-1h1zm-1-1-1 1v1l1 1z"/><path fill="#fff" d="m328 372-1 1-2-2 2-1z"/><path d="m329 372-1 1h-2l-1-2 2-1zm-1 0v-1l-1-1-1 1 1 2z"/><path fill="#fff" d="m333 373-2 2-1-2 1-1z"/><path d="M333 373q0 3-2 2l-2-2 1-1h2zm-1 0-1 1 1 1q1 1 1-1"/><path fill="#fff" d="m342 374-1 2-1-2 1-1z"/><path d="m343 374-2 2-1-1-1-1q0-2 2-1zm-1 0h-1l-1 1v1h1z"/><path fill="#fff" d="m347 373-2 1-1-1 1-1z"/><path d="m347 373-2 2-1-2 1-2zm-1 0h-2v1l1 1z"/><path fill="#fff" d="m351 373-1 1-2-1 2-2z"/><path d="m352 373-2 1h-1l-1-1q0-2 2-2zm-1 0v-1h-1q-1-1-1 1l1 1z"/><path fill="#fff" d="m356 373-2 1-1-1 1-1z"/><path d="m356 373-1 1-1 1-1-2v-1l1-1zm-1 0-1-1-1 1 1 1z"/><path fill="#fff" d="m360 374-1 2-2-2 2-1z"/><path d="m360 374-1 2-1-1-1-1 2-1zm0 0-1-1-1 1 1 1z"/><path fill="#fff" d="m365 376-2 1-1-1 1-1z"/><path d="m365 376-1 1-1 1-1-1-1-1 2-2 1 1zm-1 0h-2v2h1z"/><path fill="#fff" d="m368 379-1 1-1-1 1-2z"/><path d="M369 379h-2l-1-1 1-2h1zm-1 0-1-1h-1v1z"/><path fill="#fff" d="m372 382-2 1-1-1 1-2z"/><path d="m372 382-2 1-1-1v-2h1q2 0 2 2m0 0-2-1-1 1 1 1z"/><path fill="#fff" d="m374 386-1 1-2-1 2-2z"/><path d="M374 386v1l-1 1-2-1v-1q-1-2 2-2zm0 0-1-1h-1l-1 1 1 1h1z"/><path fill="#fff" d="m375 390-2 2-1-2 1-1z"/><path d="M375 390v2h-2l-1-1v-1l1-1zm0 0-1-1-1 1 1 1z"/><path fill="#fff" d="m375 395-1 1-2-2 2-1z"/><path d="m375 395-1 1q-2 1-2-2l2-1 1 1zm0 0-1-1v-1l-1 1h-1a1 1 0 0 0 2 2z"/><path fill="#fff" d="m374 398-2 2-1-2 1-1z"/><path d="m374 399-2 1-1-1v-1l1-1h2zm0-1-2-1-1 1 1 1q1 1 2-1"/><path fill="#fff" d="m371 402-1 1-2-2 2-1z"/><path d="m372 402-2 1h-1l-1-2 2-1 1 1zm-1 0-1-1q-1-1-1 1l1 1z"/><path fill="#fff" d="m376 382-1 2-2-2 2-1z"/><path d="m376 382-1 2-2-2 1-1h1zm0 0-1-1h-1v2h2z"/><path fill="#fff" d="m381 383-2 1-1-2 1-1z"/><path d="M381 383a1 1 0 0 1-2 1l-1-2 1-1zm-1 0v-1l-1-1-1 1z"/><path fill="#fff" d="m385 384-1 1-2-2 2-1z"/><path d="M385 384h-1l-1-1-1-1 1-1h2zm0-1-1-1-1 1v1h2z"/><path fill="#fff" d="m390 385-2 1-1-1 1-2z"/><path d="M390 385q0 2-2 1h-1v-3h1l2 1zm0 0h-1l-1 1 1 1z"/><path fill="#fff" d="m394 387-1 1-2-1 2-2z"/><path d="M394 387v1l-1 1-1-1-1-1 2-2zm0 0-1-1-1 1v1h2z"/><path fill="#fff" d="m398 390-1 1-2-2 2-1z"/><path d="M399 390h-1q-2 1-2-2l1-1h1l1 1zm-1 0v-1l-1-1-1 1 1 2z"/><path fill="#fff" d="m402 393-2 1-1-1 1-2z"/><path d="m402 393-2 1-1-1v-2h1l1 1zm-1 0h-2v1z"/><path fill="#fff" d="m405 397-2 1-1-2 1-1z"/><path d="m405 397-2 1-1-2 1-1h1zm-1 0v-1l-1-1h-1v2z"/><path fill="#fff" d="m407 401-2 1-1-2 1-1z"/><path d="m407 401-2 1-1-2v-1h1q2 0 2 2m0 0-2-1q0-1 0 0h-1l1 2z"/><path fill="#fff" d="m408 405-2 2-1-2 1-1z"/><path d="M408 405q0 2-2 2l-1-1v-1l1-2zm0 0-2-1-1 1 1 1z"/><path fill="#fff" d="m408 410-2 1-1-2 1-1z"/><path d="M408 410h-3v-2l1-1 2 1zm0 0-1-1-1-1-1 1 1 2z"/><path fill="#fff" d="m406 414-1-2 1-1z"/><path d="m407 414-2 1h-1l-1-2 1-1h1l1 1zm-1 0v-1l-1-1-1 1v1z"/><path fill="#fff" d="m404 417-1 1-1-1 1-2z"/><path d="m405 417-1 1h-1l-2-1q0-2 2-2l1 1zm-1 0-1-1-1 1v1z"/><path fill="#c8b100" d="M336 447q-24-3-41-8l-1-2 1-1q17-4 41-3 25 2 41 9l1 2-1 1q-16 3-41 2"/><path d="M336 447q-24-2-41-8l-1-2 1-2q17-4 41-2t41 9l1 2-1 2q-17 3-41 1m0-1q24 3 41-1l1-1-1-2q-17-6-41-9-24-1-41 3v3q18 5 41 7"/><path fill="#c8b100" d="M336 433q-25-1-41 3v-4q-3-5-4-4 18-4 45-3 28 4 45 10-1-1-3 3v5q-17-8-42-10"/><path d="M336 433q-24-1-41 3l-1-4q-1-4-3-4 19-5 45-3 27 3 45 10v1q-1-1-3 2v4l-1 1q-16-7-41-10m0 0q24 2 41 9l1-4q0-2 2-3a153 153 0 0 0-88-7l3 3 1 4q16-4 40-2"/><path fill="#c8b100" d="M336 425q-27-1-45 3l-1-1v-1q18-6 46-4 27 3 46 11l1 2h-2q-17-7-45-10"/><path d="M336 426q-26-3-45 2-1 1-2-1v-1l1-1q19-4 46-3a150 150 0 0 1 47 12v1l-2 1q-18-8-45-10m0-1q27 3 45 10h2v-1l-1-1q-19-8-46-10a135 135 0 0 0-46 3v1l1 1q19-5 45-3"/><path fill="#c8b100" d="m336 411 2 1v2q0 5 6 7 5 0 6-4l1-2v2q1 5 7 6 6 0 6-6l2-2 1 2v3q0 6 6 7l5-2 1-2v2q0 3 3 5l5-2 5-4v3l-5 5-6 1-3-5-5 1q-6-1-8-6-3 3-7 2-5 0-8-4-2 3-6 2-5 0-8-5-2 4-8 4l-6-3q-3 3-7 3t-7-3q-3 4-8 4l-5-1q-1 3-4 3l-6-1-5-6 1-3 4 5 5 2q3 0 3-4v-2l2 2q1 3 5 3 5 0 6-6l-1-3 1-2 2 2v1q1 5 7 6 5 0 6-4v-3l1 2q2 5 6 5 6 0 7-6v-2z"/><path d="M336 411h2v3l2 4 4 2q5 0 6-3v-1l1-2 1 2v1q0 5 6 6l4-2 2-4v-1l2-2 2 4h-1v2q-1 3 2 4l4 3 5-2 1-3v3q1 4 3 5l5-2 5-4v3l-5 5-6 1-4-4h-4q-6 0-9-5l-6 2-8-4q-2 2-6 1-5 0-8-4-2 3-8 3l-6-3q-3 3-7 3t-7-3q-2 5-8 5l-5-2-4 4-6-2-5-6v-3h1l4 5 5 2q3 0 3-4v-3l2 3q1 2 5 3l4-2 2-4-1-2v-1l1-3 3 3v1l1 4 5 2q5 0 6-5v-2l1 2h1q1 5 5 5l5-1 2-5-1-2zm0 0-1 1v2l-2 4-5 2q-5-1-6-5v-2l-1 1v1q0 5-6 5l-5-3-2-4v-1l-2-2v5l-2 5-4 1q-4 0-6-3v-1 1q0 4-4 5l-5-3-4-4v2l5 5 5 2q3 0 4-3v-1 1l5 1q6 1 8-5l7 4q4 0 7-3l6 3q5 0 8-4 3 5 8 5 4 0 6-2h1q3 4 7 4t6-2h1q2 5 8 6l4-1h1l3 4q3 1 6-1 3-1 5-4v-2l-5 3q-3 3-5 2-3-1-3-5v-1l-1 1q-2 3-5 2l-5-2-2-5 1-3-1-2-2 2q0 3-2 5l-4 1q-6 0-7-6v-2 1l-1 1q-2 4-6 4-2 0-5-3l-1-6z"/><path fill="#c8b100" d="m281 417-1-2h-3l-3-3-5-1q1-3 4-4l4 2v-2l2 3v5l1-2 4-3 2-1v2l5 1-4 3 1 1 1 1z"/><path d="m281 417-1-1-2-1h-1v1-1l-3-3-5-1q0-4 4-4l3 1 1-1 3 2v4-1l4-2 1-1h1v2l5 1-3 3 1 2zm-1-2 1 2h6v-1l-1-1 3-3h-5v-2l-1 1q-3 0-3 2zm-1-1v-4q0-2-2-3v2h-1q0-2-3-2t-3 4h4l3 4z"/><path fill="#ad1519" d="M277 415h3l1 3h-3z"/><path d="M277 415h4l1 2-1 2q-1 1-3-1l-1-2zm0 1 1 2h3v-1l-1-1z"/><path fill="#fff" d="m292 417 1-3 2 2-1 2z"/><path d="M292 417v-2l1-1 2 2v2l-1 1zm0 0 2 1 1-1v-1l-2-2-1 1z"/><path fill="#c8b100" d="m305 412-1-2v-1l-2-1-3-1h-2l1 2q-3 0-4 3l5 1v2h1l3-2z"/><path d="m305 412-2 2-3 1h-2v-2l-4-1v-1l4-2-1-1v-1h5l2 1v2zm-1 0v-3l-2-1-3-1h-2l1 1v1h1-1l-4 2 5 2v2-1h1l3-1z"/><path fill="#c8b100" d="m304 398 3 4h1l1-1v5l-1 2h-2l-2 1-1-2-2-3-1-2h2l1 1z"/><path d="M304 398q3 1 3 4l1-1h2l-1 2v3l-1 2v1-1h-2l-2 1-3-4v-1l-1-2h2zm0 0-1 5h-1l-2-1 1 2 1 1 1 2 1 1 2-1 2 1 1-4v-3l-2 1v1-1z"/><path fill="#c8b100" d="m308 411 1-1-1-2 2-1 3-1 1-1v2l4 2-4 2 1 2h-1l-3-1z"/><path d="M308 411v-3h-1 1l2-2 2-1h2v2l5 1v1l-4 2v1l1 1h-5zm1 0 2 1 3 1h1v-1l-1-1 4-2-4-2h-1l1-1v-1l-1 1-3 1-2 1 1 2z"/><path fill="#ad1519" d="M309 410q0 3-3 3l-3-3 3-3q3 1 3 3"/><path d="M309 410q0 3-3 3t-3-3 3-3l3 1zm0 0-3-3-2 1v2q0 3 2 2 3 1 3-2"/><path fill="#fff" d="m320 413 1-3 2 2-1 3z"/><path d="M320 413v-2l1-1 2 2v2l-1 1zm0 0 2 1 1-2-2-1h-1z"/><path fill="#c8b100" d="m334 411-1-2 1-2-2-1-4-1-2-1 1 2-5 2q3 3 5 3v1l-1 1h2l4-1z"/><path d="m334 411-2 2h-6v-1l1-1-5-2v-1l5-2-1-2h2l4 2 2 1zm-1-2 1-2-3-1-3-1h-1v-1 2l1 1h-1l-4 1 4 3h1-1v2h1l3-1 3-1z"/><path fill="#c8b100" d="m336 396 3 5 1-1h2l-1 2-1 4-2 2-2-1h-2l-1-2-1-3-1-2h1l2 1z"/><path d="M336 396q3 2 3 5l1-1h2v1l-1 1v1l-1 3-1 2h-1l-2-1-2 1-2-5-1-1v-2l-1-1h1l2 1zm0 0-2 5h-1l-1-1h-1l1 2 1 3 1 2 2-1 2 1 2-4 1-1v-1h-2v1l-1-1z"/><path fill="#c8b100" d="m338 411 1-1-1-2 3-1 3-1h2v1l-1 1q3 0 5 3l-5 2 1 2-2-1-3-1z"/><path d="m338 411 1-1-1-2 3-2h4l1-1v3l4 2v1l-4 2v2h-2v-1l-3-1zm1 0 2 2 3 1h2-1v-2l5-1q-2-3-5-3l1-2h-2l-3 1-2 1z"/><path fill="#ad1519" d="M339 410q0 2-3 2-2 0-3-3l3-2q3 0 3 3"/><path d="m339 410-1 2h-2q-3 0-3-3t3-3 3 4m0 0q0-3-3-3-3-1-2 2 0 3 2 3 3 0 3-2"/><path fill="#fff" d="m353 415-2-2-1 2q-1 2 1 2z"/><path d="m351 417-1-1-1-1q1-3 2-2l1 1 1 1zm1-2v-1l-1-1-1 2v1l1 1z"/><path fill="#c8b100" d="M364 416v-2l1-1-2-2-3-2h-2l1 1v1q-3-1-5 1l4 3-1 1 2 1h3z"/><path d="m364 416-2 1h-5v-1l1-1-4-3v-1l4-1v-2l1 1h1l3 2 2 2-1 1zm-1-2 1-1-1-2-3-1-1-1v2l-5 1 4 3v1h-1 7z"/><path fill="#c8b100" d="m368 403-3 4-1-1h-1v1l1 4 1 2h2l1 1 2-2 1-2 1-2h-2z"/><path d="m368 403 1 5h3l-1 2h-1l-1 2-1 2h-1l-1-1h-3l-1-6v-2l2 1zm0 1-2 3-1 1v-1l-1-1h-1l1 2v2l1 2h2l1 2 3-4v-1l1-1h-2l-1 1v-1q1-2-1-4"/><path fill="#c8b100" d="m368 417 1-1-1-2 3-1h4v1l-1 1 4 3-4 1v2l-1-1-3-1z"/><path d="M368 417v-3l3-1h5v1h-1v1l4 3-1 1h-4v2h-2l-2-2zm0 0 2 2 3 1 1 1v-1l-1-1h1l4-1-4-3 1-1h-1l-3-1-2 1v2z"/><path fill="#ad1519" d="M369 415q0 3-3 3l-3-3q0-3 3-3 3 1 3 3"/><path d="m369 415-1 2-2 1-2-1-1-2q0-4 3-3 3 0 3 3m0 0q0-2-3-3l-2 1v3l2 1h2z"/><path fill="#fff" d="m381 424-1-3q-2 0-2 2v2z"/><path d="M381 424q-1 2-3 1l-1-1v-2l3-1 1 1zm-1 0v-3l-2 2v1l1 1z"/><path fill="#c8b100" d="m391 426 1-2h3v1l3-4h5q0-3-4-4l-3 1v-2l-3 3v5l-1-3-3-2-2-1v1h-5l3 4-1 1 1 1 4 1z"/><path d="M391 426h-2l-3-1h-3v-1h1l1-1-3-3-1-1h6v-2l2 2 3 3 1-4q0-2 3-2v1h3l4 4v1h-4l-3 3h-1v-1l-3 1zm0-1h1l-1-2-3-3-2-1v2h-5l3 3h1-1l-1 1h1v1h6m2-2 2 1 3-3h5q0-3-4-4l-3 1v1l-1-2-2 2z"/><path fill="#ad1519" d="M395 424h-3l-1 3h3q2-2 1-3"/><path d="m395 424 1 2-1 1h-4v-1l1-2zm0 0-3 1-1 1 1 1h2l1-1z"/><path fill="#ad1519" d="M336 444q-22-2-37-6 16-4 37-2 23 2 38 8-15 2-38 0"/><path d="M336 445a182 182 0 0 1-38-8q17-3 38-2a144 144 0 0 1 38 9q-17 3-38 1m0-1h37a145 145 0 0 0-73-6q15 4 36 6m4 1v-9zm3 0v-9zm4 0v-8zm-10 0v-9zm-2-1v-8zm-2 0v-9zm-3 0v-9h1zm-2 0v-9h1zm-2-1v-8h1zm-1 0v-8zm-2 0v-8zm-2 0v-8h1zm-1-1v-7zm-2 0v-7h1zm-1 0v-7zm-2 0v-7zm-2-1v-6h1zm-1 0v-5zm-2 0v-5h1zm-2-1v-4h1v4zm-1 0v-4zm-2-1v-3h1zm-2 0v-3l1 1v2zm-1 0v-2h1zm-5-1q17-4 39-3 24 3 40 9v1a140 140 0 0 0-79-7"/><path fill="#ad1519" d="m292 432 2-2h4l-3 3z"/><path d="m292 432 2-3 5 1-4 3zm1 0 2 1 3-2-4-1z"/><path fill="#fff" d="m302 430 1-2 2 2-2 1z"/><path d="m302 430 1-2 2 1v1l-2 1zm1 1 2-1-2-1-1 1z"/><path fill="#058e6e" d="M315 430h-4l-1-1 1-2h6l2 1-1 2z"/><path d="m315 430-4 1-1-2v-1l1-1h6l2 1-1 2zm0 0h3v-1l1-1-2-1-3 1h-4v1l1 1z"/><path fill="#fff" d="m324 428 1-1 1 2-1 1z"/><path d="M323 428h2l1 2-2 1h-1zm2 2 1-1-1-2-1 1z"/><path fill="#ad1519" d="M336 430h-4l-2-1 2-2 9 1 1 2-1 1z"/><path d="M332 430h-1l-1-1q0-2 2-2l9 1h1v3h-1zm9 1 1-1-1-1v-1h-10v1l1 1z"/><path fill="#fff" d="m346 430 1-1 2 1-2 2z"/><path d="m346 430 1-1h2v3h-2l-1-1zm1 1h1l1-1-2-1z"/><path fill="#058e6e" d="M358 434h3l2-1-2-1-3-1-3-1-2 1 2 2z"/><path d="m358 434-3-1-1-1-1-1 2-1 3 1h3l1 1 1 1-2 2zm0-1 3 1 1-1v-1h-1l-3-1-3-1-1 1v1l1 1z"/><path fill="#fff" d="m368 435 1-1 1 1q0 2-1 1z"/><path d="m367 435 2-2 2 2-2 2zm2 1 1-1-1-1-1 1z"/><path fill="#ad1519" d="m380 439-2-2h-4l4 3z"/><path d="m380 439-2 1-5-4h6zm0 0-2-2h-3l3 2z"/><path fill="#ccc" d="M337 605q-27-2-49-14-16-9-17-29v-45q65 2 131 11v45q0 19-17 26-23 8-48 6"/><path d="M337 606q-27-2-49-15-8-4-13-12t-5-17v-45q66 2 133 10v46q0 9-5 16t-13 10q-22 9-48 7m0-1q25 1 48-6a27 27 0 0 0 17-26v-45q-64-9-131-10v44a32 32 0 0 0 17 29q24 12 49 14"/><path fill="#ffd691" d="M340 586q4 1 4 6-1 5-7 5-6-1-7-7 0-3 4-5l-1-1h1l1 1 1-1 1-1 1 1v1l1-1h1z"/><path d="M344 592q1 2-2 4l-5 1-5-2-2-5q0-5 3-5v-1h-1l1-1 2 1 1-1h1l1 1h3l-1 1v1q4 1 4 6m-4-6 1-1v-1l-1 1h-1v-1l-1-1-1 2h-1l-1-1h-1l1 1v1q-4 0-4 4l2 4 5 2 5-1 2-3q-1-4-4-6"/><path fill="#058e6e" d="m336 600-7-5h-8l3 2 4 3z"/><path d="M336 600h-9l-4-3-3-2v-1h2l6 1zm-7-4-6-1h-1l2 2 4 2 8 1z"/><path fill="#058e6e" d="m338 600 7-3 8 2-2 1-5 1-7-1z"/><path d="M338 600q3-3 7-3l8 1 1 1h-1l-2 1-5 2-7-1zm1 0h2l5 1 5-2h1l-7-2z"/><path fill="#ad1519" d="m337 596-2-5 2-5 2 5z"/><path d="m337 596-3-5 3-5q3 2 2 5 1 3-2 5m0-1 2-4-2-5-2 5z"/><path fill="#058e6e" d="M336 603v-7l1 1 1 3v3z"/><path d="m335 603 1-4v-3h2v7h-1zm1 0 1-1v-5 2z"/><path fill="#ad1519" d="M336 565c0 18-14 31-32 30-19-1-33-15-33-33v-45l65 4z"/><path d="M337 565q0 15-10 23t-23 8q-14-1-24-11-10-9-10-23v-45l67 3zm-1-44q-32-3-65-3v44q0 13 9 23 10 9 24 10 13 1 23-8 9-9 9-22z"/><path fill="#c8b100" d="M270 562q2 14 8 21v-67h-7z"/><path d="M270 562v-46h8v68-1q-8-9-8-21m1 0q0 11 7 20v-65l-7-1z"/><path fill="#c8b100" d="m285 589 8 4v-77h-8z"/><path d="M285 589v-73h8v77l-7-3zm0 0h1l7 3-1-75-7-1z"/><path fill="#c8b100" d="M300 595h7v-78h-7z"/><path d="M299 595v-79l9 1v79h-1zm1 0h7v-78h-7z"/><path fill="#c8b100" d="m314 594 8-3v-73l-8-1z"/><path d="M314 594v-77l8 1v73q-4 3-8 3m0 0 8-3v-73h-7z"/><path fill="#c8b100" d="M329 585q5-5 8-17v-49l-8-1z"/><path d="M329 585v-67l8 1v49q-2 12-8 17m1-1q5-6 6-16v-49h-7z"/><path fill="#ad1519" d="M402 528v45c0 17-14 29-33 28-18-3-32-18-33-36v-44q33 2 66 7"/><path d="M403 528v45q0 14-10 21-10 9-24 7-13-1-23-12t-10-24v-45zm-1 0-65-7v44q0 14 9 24 10 9 23 11 14 2 24-6 9-9 9-22z"/><path fill="#c8b100" d="m366 557-6-7-2 1-4-5 2-2-7-8h-1v5l3 1v6h-3v6l2 2 5 1v-2h7v2zm-9-26v2l3 1v-3zm-10 27 2-2-2-1-1 1zm21-11-2-1v-6l2-1v-2l-2-3h-4l-1 2-6-1v-2h-5l7 9 2-1 4 5-1 2 6 7zm-9-3-2 1 2 3 2-1zm10 49q-3 0-3-3l-6-2 1-2 5 2 2-1v-8l-2-1v-6h2v-11l-5 6 1 2-4 4-2-1-5 4v4l4 4-1 2-5-5-3-1q-3-2 0-5l-2-7h2l2 6 2 1 4-5-1-2 4-4 2 1 5-5v-1h-4v2l-7-1v-2l-5-1-2 2v6h-2v-6l-3-3q1-3 3-3v-6l-2-1v-6h2v-6q-2 0-2-3t3-3l4 2 4 1v-2h6l1 3h4q0-2 3-2v11h-1v4h1v29h-1v3h1zm-8-25-1-2-3 3 2 1zm-13-26h-2v3h2zm12 16v-2h-4v2zm-14 12-2-1v-6h2zm2-7 3 1v6h-2l-1-4zm14 24 1-2-6-4-1 2zm-1 2-1 1-6-3 1-2zm8 5q-3-1-3-4l-5-1-1 2v-1l-6-3v-2l-3-4q-1 1-3-1l-1-2v-3h1l-2-5h-2v-7h2v-4q-3 0-3-3t3-4v-5l-2-1v-6h2v-5l-3-4q1-5 4-3l4 2 4 1v-3l7 1v2l4 1q0-2 3-2v11h-1v3l1 1v29h-1v3h1zm-8-6 5 2q0 3 3 3v-16h-1v-4l1 1v-29h-1v-4h1v-11q-3 0-3 2h-4l-1-3h-6v2h-5q0-3-3-3t-3 3 2 3v6h-2v6l2 1v6q-2 0-2 3 0 2 2 3v5l2 1v-6l2-2 5 1v2l6 1 1-3 4 1v1l-5 5-2-1-4 4 1 2-4 5-2-1-2-4v-1l-2-1v2h1l1 5-1 3 1 2 3 1h1l3 3 1 2 1-2-4-4v-4l5-5 2 2 4-4-2-2 6-6v11h-2v6l2 1v8l-2 1-3-1h-1l-1-1-1 2zm2-1 3 1 2-2v-7l-2-1v-6h2v-11l-5 6 1 2-4 4-2-1-4 4-1 4 3 3 1-2h1l5 4zm5-41v9l-6-7 1-2-4-4h-2l-7-9v-1l5 1v2l6 1 1-2h4l2 2v3l-2 1v6zm-2 11h-4l-1-3h-6v2l-5-1-2-2v-6h2v-6l-2-1v-6h1l7 9-2 2 4 5 3-1zm2-10-2-1v-7h2v-2l-2-3h-4v2l-7-1v-2h-5l7 9 3-1 4 5-2 2 6 7zm-2 10-6-6h-2l-4-5 1-2-7-8v5l3 1v6l-3 1v5q2 0 3 2l4 1v-3l7 1v2zm-17 13 1 4h2l4-4-2-2 5-4 2 1 5-5v-1h-4v2l-7-1v-2h-4l-3 2v3l3 1v6zm0 0h2v-2l-1-1v-3l-2-1v3zm7 13 5 3 1 1 1-2-6-3zm3 5-3-2-1-1-1 2 6 3 1-1zm1-29-4-1v-2h4zm-4-28h4v3l-4-1zm-8 11v4l-2-1v-3zm14 26-3 3-2-2 3-3zm-3-25 2 4-2 1-2-3zm-12 15-2-2 1-1 1-1 2 2zm13 0v-2h-3v2zm-3 28 2 2 1-2-2-2zm-9-21h-2v3h2zm9-34v2h3v-1zm-9 11h-2v3h2zm13 26-1-1-3 2 2 1zm-2-24-2 1 2 3 2-1zm-12 13 1-1-1-1-1 1zm-1 11v-5l-2 6 2 1zm26-10v-1l6-6 2 1 4-4-1-2 7-7v6h-2v6l2 1v5l-2 2h-5v-2l-6-1-1 2zm10-24v2l-4-1v-2zm9 28-1-1 1-2 2 2zm-21-15 2-1v-6l-2-1v-2l2-2h4l1 3h6l1-2 4 1-7 8-2-2-4 5 1 2-5 5h-1zm10-1 1 2-2 2-2-2zm-11 47q3 0 3-2l7-1-1-2-6 1-2-2v-8h2v-6l-2-1v-10l6 6-2 2 4 5 2-1 5 6v3l-4 4 1 2 5-4h3q3-2 1-5h-1l2-7h-2l-2 5h-1l-5-5 1-2-4-5-2 1-5-7h4l1 2 6 1v-2l5 1 2 2v5l2 1v-6q3 0 3-3 0-2-3-3v-6h2v-6l-2-1v-6q2 0 3-3l-4-4q-3 0-3 2h-4l-1-2-6-1-1 2h-4q0-3-3-3v11h1v4h-1v29h1v3h-1zm8-23 2-2 2 3-2 2zm13-24 2 1v3h-2zm-12 14v-2l4 1v2zm14 15h2v-6l-2-1zm-2-8-2 1v3l-1 3 3 1zm-14 21-1-2 6-2 1 2zm1 3 2 1 5-2-1-2zm-8 3q3 0 4-3h4l2 2 5-3v-2l3-3h3l2-2-1-3 1-5h2l1-6-3-1v-4q3 0 3-3t-3-4v-5h3v-6l-3-1v-5q3-1 3-4t-4-4l-4 2h-3l-1-2-6-1-1 2h-3q-1-3-4-3v11h1v4h-1v29h1v3h-1zm8-4-5 1q0 3-3 2v-16l1 1v-4h-1v-29h1v-4h-1v-11q3 0 3 3h4l1-2 6 1v2l5 1q0-2 3-2t3 3-2 3v6l2 1v6h-2v6l3 3q-1 3-3 3v5h-2v-5q-2-1-2-3h-5v2l-6-1-1-2h-4l5 7 2-1 4 5-1 2 4 6h3l1-4v-2h2v2l-2 5 1 2-1 3h-3l-3 2-1 1h-1l-1-1 4-3v-4l-4-6-3 1-4-5 2-2-6-7v11l2 1v6h-2v8l2 2h4l1-1 1 2zm-1-2-4 1-2-2v-8h3v-6l-3-1v-10l5 6-1 2 4 5 2-1 5 6v3l-3 2-1-1-6 2zm-6-41v8l1 1 5-6-1-2 4-4 2 1 7-7v-2h-5v2l-6-1-1-2h-4l-2 2v3h2v6zm2 11h4l1-2 6 1v2l5 1v-1l2-1v-6l-2-1v-6h2v-6l-8 7 2 2-4 4-2-1-6 6zm-2-11h3v-7l-3-1v-2l3-2h3l1 3 6 1 1-3 3 1h1l-7 7-2-1-5 5 2 2-6 5zm2 10 6-6 2 2 4-5-1-2 7-7v5l-3 1v6l3 1v5l-2 2h-4l-1-3h-7v2zm17 18-1 3h-1l-5-5 2-2-4-5-3 1-5-7h4v3h7l1-2 4 1 2 2v3h-3v7zm1-1h-2v-6h2zm-8 12-4 2h-2l-1-2 6-2zm-3 4 3-1 1-1 1 2-5 2-2-1zm-1-29h4v-3h-4zm4-27-4-1v3h4zm8 12v4h2v-3zm-13 24 2 3 2-2-2-3zm3-24-3 2 2 2 3-2zm11 16h1l1-1-1-1-1-1q-2-1-2 2zm-13-2v-2l4 1v2zm4 29-3 1-1-2 3-1zm8-19h2v3h-2zm-9-36v2l-3-1v-1zm9 13h2v3h-2zm-13 23 2-1 2 2-2 1zm3-24 1 2-2 2-1-2zm11 16-1-1 1-2 1 2v1zm1 11v-5l2 7h-2z"/><path fill="#058e6e" d="M366 558q0-3 3-3 4 1 4 4t-4 3q-3-1-3-4"/><path fill="#ad1519" d="m271 517 65 4v-75l-65-4z"/><path d="m270 442 67 3v76q-33-3-67-3zm1 1v74l65 3v-74q-32-3-65-3"/><path fill="#c8b100" d="M293 460h-1v-1h-2v5h2v3h-5v10h3v20h-5v10l37 2v-10h-5v-20h3v-10h-5v-4h2v-5h-2v2l-1-1v-1h-2v1h-2v-1h-2v5h2v3h-4v-11h2v-5h-2v2l-1-1v-1h-2v1h-2v-1h-2v5h2v11h-4v-4h2v-5h-2v2l-1-1v-1zm-3 35 27 1zm0-2 27 1zm0-3 27 1zm0-3 27 2zm0-2 27 1zm0-3 27 2zm0-2 27 1zm-3-3 33 2zm0-2 33 1zm0-3 33 2zm0-2 33 1zm5-3 23 2zm9-2 5 1zm0-2h5zm0-3 5 1zm0-2h5zm-2-3h9zm-7 10h5zm-2-3h9zm0 45v-2zm0-4v-3zm-3-1v3zm5 3v-2zm2 3v-3zm0-5v-3zm0-6v-2zm0-4v-3zm-2 7v-3zm-5 0v-3zm10-3v3zm2 1v-3zm-7-5v2zm5 0v2zm4 0v3zm-2 0v-3zm2-5v2zm0-5v2zm-2-3v3zm2-2v2zm-4 0v2zm-5-1v3zm-2-2v2zm4 0v3zm5 0v3zm2-2v2zm-4 0v2zm-5-1v3zm-2-2v2zm9 0v3zm-5-5v3zm21 1h-5zm2-3h-9zm0 46v-3zm0-5v-3zm3 0v3zm-5 2v-2zm-2 3v-3zm0-5v-3zm0-6v-2zm0-4v-3zm2 7v-3zm5 1v-3zm-10-4v3zm-2 0v-2zm7-4v2zm-5 0v2zm-4-1v3zm2 0v-2zm-2-5v2zm0-5v3zm2-2v2zm-2-3v3zm4 0v3zm5 1v2zm2-3v3zm-4 0v2zm-5 0v2zm-2-3v3zm4 0v3zm5 1v2zm2-3v3zm-9 0v2zm5-5v3zm-10 27v-3zm0-10v-3zm0 5v-3zm0-10v-3zm0-5v-3zm0-7v-3zm0-5v-3zm-11 3h5zm9-7h5zm9 8h5z"/><path d="M293 460v-1h3v1-1h3v6h-2v2l4 1v-11h-2v-5h3v1-1h3v1h1v-1h3v6h-3v10h4v-3h-2v-5h3v1h1v-1h2v1h1v-1h3v6h-2v2l4 1v10h-2v19l5 1v11l-38-2v-11h5v-19h-3v-11h5v-3h-2v-5h2zm3 8h-8v2l32 1v-2zm-4 35v2l23 1v-2zm21 5v-2l-18-1v2zm-18-7v1l18 1v-2zm2-3v2l13 1v-3zm20-12h-13v2h13zm-27 1 13 1v-2l-13-1zm27-3-11-1v2l11 1zm-27 1h11v-2h-11zm27 4-11-1v2l11 1zm-27 0 11 1v-2h-11zm27-7-8-1v2h8zm-27 0h9v-2h-9zm19-11v2h8v-1zm-19-1v2h9v-1zm9-16 9 1v-2h-2v1h-2v-1l-1-1v2h-2v-2h-2zm-9 8h9v-2h-2v1h-2v-1l-2-1v2h-1v-2h-2zm12-5h6v-2h-9v2zm-3 39v1l9 1v-2zm10-34 8 1v-2h-1v1h-2v-2h-2v2h-2v-2h-1zm2 3h6v-2h-8v2zm-19-1h7v-2h-9v2zm19 35v2h4v-2zm-7-8v2h4v-2zm-12 7v2h4v-2zm25-7h-4v2l4 1zm-22-1v2l4 1v-3zm4 0v3h4v-2zm10 1v2h4v-2zm-21 6v3h4v-2zm29 2h-1v2h4v-2zm-27-7h4v-2h-4zm21-13v2h4v-2zm0-5v2h4v-2zm0 20v2h4v-2zm-21 13v-2h-5v2zm-5-5h5v-2h-5zm19-21v2h4v-2zm-12-3v2h4v-2zm0-5v2h4v-2zm16 5v-2h-4v2zm14 29h-4v2h4zm-30-14v2h4v-2zm30 9h-4v2h4zm-18-31v2h4v-2zm-2-8h4v-2h-4zm18 11h-4v2h4zm-23 4v2h4v-2zm5 0v2h4v-2zm-3 3v1l4 1v-2zm-11-7 4 1v-2h-4zm9-1v2h4v-2zm5 0v2h4v-2zm0-5h4v-2h-4zm15 10v-1l-4-1v2zm-4 0v-2h-4v2zm-10 0v-2h-4v1zm-4-1v-1l-4-1v2zm18 32v-2l-4-1v2zm-15-26v2h4v-2zm-5 10v2h4v-2zm5 0v2h4v-1zm-14 10v2h4v-2zm25-2v2l4 1v-2zm3 3v2h4v-2zm-10-26v2h4v-1zm0-5v2h4v-1zm-12 4v-2h-4v2zm0 30v-2h-4v2zm12-13v1l4 1v-2zm-16 6v2h4v-2zm9-29v1l4 1v-2zm3 17v2h4v-2zm15 9-4-1v2h4zm-22-1v1h4v-1zm14 0v2h4v-2zm-19 1h4v-1l-4-1zm-5 3h2v-3h-2zm35-1v2h2v-2zm-14-36h-2v2h2zm-10 2h-1v2h1zm15 3h2v-2h-2zm4-2h-2v2h2zm-25 11v-2h-2v2zm16-19h-2v2h2zm14 19h-2v1l2 1zm-35 28h2v-2h-2zm35-33h-2v1l2 1zm2 33-2-1v2h2zm-34-33h2v-2h-2zm4-5h2v-2h-2zm10-2h1v-2h-1zm0-5h1v-2h-1zm-12 18v2h2v-2zm26 1v2h1v-2zm1 15h-1v2h1zm-27 1h2v-2h-2zm21-29h4zm-15-1-4-1v1zm6-7h4z"/><path fill="#c8b100" d="M310 508v-6q1-4-7-5-7 1-6 4v7z"/><path d="m310 509-13-1v-7l1-3 5-2q4 0 6 3l1 3zm0-1v-6l-1-3-6-2q-3-1-4 2l-1 2v6z"/><path fill="#c8b100" d="m300 502-4-1 2-3 2 2z"/><path d="m299 502-3-1 2-4 3 3zm0-1 1-1-2-2-1 3z"/><path fill="#c8b100" d="m305 499 1-3-3-1-2 1 2 3z"/><path d="M305 499h-3l-1-3 2-1 3 1h1zm-1-1 2-2h-5l2 2z"/><path fill="#c8b100" d="M308 502h3l-1-4-3 2z"/><path d="M308 502v-2h-1l4-2 1 4zm0 0h2v-3l-3 1z"/><path fill="#c8b100" d="M299 491v-7q0-3-3-4-4 0-4 4v6z"/><path d="M299 491h-7v-7l1-3 3-1q3 0 3 4zm0-1v-6q0-3-3-3-4 0-3 3v6z"/><path fill="#c8b100" d="M308 491v-7q0-3 4-3 3 0 3 4v7z"/><path d="m308 484 1-2 3-1 2 1 1 3v7h-7zm1 7h6v-6l-1-2-2-2-3 1z"/><path fill="#c8b100" d="M297 474v-6l-6-1 1 7z"/><path d="M297 474h-5l-1-7h6zm0 0v-6h-5v5z"/><path fill="#c8b100" d="M306 474v-6h-5v6z"/><path d="m306 475-5-1-1-6h7zm0-1v-6h-5v6z"/><path fill="#c8b100" d="M310 475v-7l6 1-1 6z"/><path d="m310 475-1-7h7v7zm1-1 4 1 1-6h-6z"/><path fill="#0039f0" d="M308 508v-5q0-3-5-4-4 1-3 3v6zm-10-18v-6l-2-3q-3 0-3 3v6zm11 1v-6q0-3 3-3t2 3v6z"/><path fill="#ccc" d="M336 521q33 2 66 7v-75l-66-7z"/><path d="m336 445 67 8v75l-67-7zm1 1v74l65 7v-74z"/><path fill="#db4446" d="M370 467h-3l-3-2-2-2h-4l3 2 2 2 5 1z"/><path d="m370 467-7-1-2-3-3-2h4l1 1h1l3 2 3 1h1zm0 0h-3l-3-2-1-1-1-1h-3l2 2 2 2 4 1h3"/><path fill="#ed72aa" d="M380 466v5l1 1-1-1h-1v1l1 2 1 2v2l-1-2-2-1 1 3v2l-3-3 1 2v4l-1-2-2-1 1 2 3 6q1 4 7 5 5-3 2-9l-2-7 1-4v-5l2-3v-3l1 2v2l2-2 2-2h1l-1 3-2 3 1-1 1 1-1 1-2 3-2 2-1 7 3 8-2 6-5 1-1 4 1 3 2 1 1 1v1l-2 3-1 3v2q2 0 1 2l-1-1-2 1v-2h-1v1l-1-1h-2l1-2h1-1l-1-1v-2h4l-1-2-1-2v-1 3l-1-1-1-2v3l-1-1-2-2v-5l-1-1-3 1 1 3v4l-1 1-1-1h-3l-2-1-1 1v1l-2-1h-1l1-1v-1h-1l-1 1-1-2v-2l2 1v-2l1-1 1-1v2l3 2 2-1v-3l-1 1-1 1v-1l1-2-1-1v3l-1-2v-3q1-2 3-2h6l-5-3-2-3-1-2h-1l-2 1-1 1v-2l-1 2-2 1v-2l-2 1h-2v2l-1 1-1-1h-1v-1l1-1h-2v-2h1q1-1-1-1v-2l1-1 2 2h2l2-1 3-2-2-1-1-1-3-2h-2l1-1h2l-2-1-2-1h-1 3l-1-1-1-2h-3v-2l-1-1h2l-1-1-1-1 1-1 1-1 2 2v-3l2 1h1l-1 2v2l2 2 2 1 3 2 1 1h5l1-1-1-2 1-1q2 1 3-1l-1-2-3-2v-2h4l1-1 2-1 4 3z"/><path d="M380 466v5l1 1v1l-2-1v-1 1l1 2 1 2v3-1l-1-1-1-1 1 2-1 2-2-3v6l-1-2h-1v1l3 6q3 5 7 5 3-1 2-4l-1-5-1-7 1-2v-2l1-7v-1l1-1v-2l1 2h2v-1l2-1 1-1v1l-1 3-1 2h2v1l-3 3-1 1-1 2h-1v8l2 7q0 5-2 6l-3 1h-1l-2 4 1 3 1 1h1l1 1v2l-1 1v1l-2 3 1 2v2h-1v-1l-1 1h-1v-2h-1v1h-2v-1h-1l1-2h1-2v-3h3v-2l-1-1v2l-1-1-1-2v2l-1-1-2-2v-5h-3v4l1 3-2 1h-1l-2-1h-2l-1-1v1q-1 0 0 0l-1 1h-2l-1-1v-1h1v-1h-1l-1 1-1-2v-2h1l1 1v-1l-1-1v-1h2l1-1v1l1 1 2 1h2l-1-1v-1 1l-1 1v-4 2h-1v-5l3-2h5l-4-3-2-3-1-2h-1l-2 1-1 2v-2l-1 1-2 1-1 1v-1l1-2-1 1h-3v2l-1 1-1-1h-1v1-3 1h-2v-3h2v-1h-1l-1-1v-1h1l1-1 1 1 1 1 2-1h1l1-1 2-1-1-1h-1v-1l-3-1-2-1-1-1h2l-1-1h-2v-1h2l-1-1v-1l-1-1h-2l-1-1v-2h2l-1-1-1-1v-1h1l1-1 1 1 1 1v-3h1l1 1h1v2l-1 2 2 2h1l1 1 1 1 2 1 1 1h5l1-1-1-1-1-1 2-1h1l2-1-1-2h-1l-2-2v-2h4l1-1 2-1 4 3zm-5 14 1 1 1 1v-3l-1-2v-1h1l1 2 1 1v-2l-1-2 2 1 1 1v-1l-1-2h-1v-3l-1-1h1l1 1v1-6l-7-6h-2v1h-5v2l2 1h1l1 3-2 2h-2 1l1 2-1 1h-7l-2-2-1-1h-1l-2-1-1-2v-2l1-2h-2l-1-1v3l-1-1-1-1v1l-1 1h-1 1v1h1v1h-2l1 1v2h1l1-1 1 1v1l1 1 1 1h-2l1 1h3v1h-2v1h1l3 1 1 1v1l2 1v1l-2 1-2 1h-3l-1-1h-1v-1 1l-1 1v1h1l1 1h-2v2h2v1h-1v1h3v-2l2-1 2-1v3l2-1 1-3v2h1l1-1 2-1v1l1 2 3 3 4 3h1-1l-2 1-1-1h-3l-2 2h-1v4l1-1v-2 1l1 1v2l1-1v3l-2 1-3-2v-1l-1-1v1l-1 1v1l1 1h-3l1 1v1h2v2h1l1 1v-2h3l1 1h3l1-1v-2l-1-1v-4h5v1l-1 1v2l1 2 1 2h1v-2l1 2v-2h1v1l1 1h1v3l-2 1-1-1h-1v2h1q0 2 0 0l1 1v1h-1v1h1v1h1v-1l1-1v2h3l-1-1v-2l2-5 1-1-1-1v-1h-1l-1-1-1-3 1-4h2l3-1 2-6-3-8q-1-6 1-7l1-1 1-1 1-1v-2l2-1h-2v-1l2-2 1-3-2 2h-1l-1 2h-1v-2l-1-1v2l-1 1v3l-1 4v4l1 7 1 5q0 4-3 4-4 1-7-4v-1l-3-6zm-14-8-1 1-1 1h6l-1 2v3l3-1 1-1v4h1l1-1 1-1 1 1v2l1-1 1-1v-1l1 1h-1l-1 2v1l-1 1v-1l-1-2v-1l-1 1h-1l-1 1-1 1-2 1v-1h2l1-2v-3l-1 1-2 1h-2l1-2v-1h-2v1h-1l-1 1h-1l2-1 1-1 1-1 1-1h-1l-1-1h-3v1-2zm18-1-1-2v1zm-6 21 3 4-2 3v-1l2-2zm-7-29v-2 1h1zm0 0h-1zm6-1 1 1zm-1 0 2 1 1 1h-2zm1 0 1 1zm-6 6v1zm1 0 1 2zm0-4h1zm1 0 1 1h-1zm0 0 2 1h-2zm0 1"/><path fill="#db4446" d="M352 461h1v-1l-2-2z"/><path d="m351 461 1-1v-2l2 3v1h-1zm1 0h1v-1l-1-2z"/><path fill="#db4446" d="m349 462-2-1-2 1 2 1v1l1-1z"/><path d="M349 462h-1l-1 1-1-1-1-1h-1 1l2-1zm-1 0h-2 1v1z"/><path fill="#db4446" d="m347 466-1 1-1 2 1-1 2 1v-1z"/><path d="m347 466 1 2v1h-3v1-3zm0 1h-1l-1 1h2z"/><path fill="#db4446" d="M351 480h-2l-2 1h2l1 1v-1z"/><path d="M351 480h-1v1h-1v-1h-2l2-1zm-1 0-1 1h2z"/><path fill="#db4446" d="m349 484-1 1-1 1h2l1-1z"/><path d="M349 484v3l-1-1h-2v1-1l1-2zm0 0-1 1h2v-2"/><path fill="#db4446" d="m351 488 1 2 1 1v-2l-1-1z"/><path d="M351 488h1l1 1h1-1v2h1-1l-1-1zm1 0v2h1z"/><path fill="#db4446" d="m361 499-2-1h-2l2 1v1z"/><path d="m361 498-1 1h-1v-1h-2v-1l2-1zm0 1-2-1h-1l1 1z"/><path fill="#db4446" d="M358 502h-2v2l1-1 2 1z"/><path d="M358 502v2l-1-1h-2l-1 1v-1l1-2zm0 0-2 1h1l1 1z"/><path fill="#db4446" d="M361 506v2l1 1v-1l1-1z"/><path d="m361 506 2 1-1 1v1l1 1-1-1-2-1zm0 1v-1z"/><path fill="#db4446" d="M377 510h-2l-1 1h3z"/><path d="M377 509v2l-1-1-2 1v-1l1-2zm0 1h-2v1h2z"/><path fill="#db4446" d="m378 514-1 1 1 2v-1l1-1z"/><path d="M377 514h1l1 1-2 1v2-1l-1-2zm1 0-1 1 1 1v-1z"/><path fill="#db4446" d="M382 515v2l1 1v-2h1z"/><path d="M381 515h3v1l-1 1 1 1v1l-1-1-1-1zm1 1v1l1 1z"/><path fill="#c8b100" d="M379 460h-1v-1h-1v-1h-2l-1-2v3l4 3 3 4 1-1h3l-2-1h-1v-2h-2z"/><path d="M379 459v2h1v1h2v1h-1v1h1v1h2-1l-3 1-3-4-4-2v-4l1-1v3h1v-1 1h1l1-1v1h-1v1h1v1zm2 5v-1zl-1-1h-1v-2h-3v-2h-1l-1-1v1l-1 1 4 3 3 4 1-1h1zm-4-3v1zm0 0v1zm4 4"/><path fill="#c8b100" d="M377 456v2h1z"/><path d="m377 456 1 1-1 1h-1v-2zm0 0-1 1h1z"/><path fill="#c8b100" d="M377 456v2h1z"/><path d="m377 456 1 1-1 1h-1v-2zm0 0-1 1h1z"/><path fill="#c8b100" d="m375 457 1 1v-2z"/><path d="m375 457 1 1v1h-2zm0 0 1 1v-1z"/><path fill="#c8b100" d="m378 458-1 1-1-1v-1z"/><path d="M378 459h-1l-1-1v-1l2 1zm-2-2h-1zm0 0"/><path fill="#c8b100" d="M373 456v-1l-1-1h2z"/><path d="M373 456v-1l-1-1h2zm0-1q2 0 0 0m0 1"/><path fill="#c8b100" d="m375 456-1-1z"/><path d="m375 457-1-1v-1h2zm-2-2 1 1h-1zm7 4v-2zm0 0"/><path fill="#c8b100" d="m378 459 1 1z"/><path d="M378 459v2zm0 0 1 1z"/><path fill="#c8b100" d="m380 461-1-1h1z"/><path d="M380 461v-2l2 1zm0 0h-1zm-1-2h-1zm0 1q0-1 0 0"/><path fill="#c8b100" d="M383 461v1h-1z"/><path d="M383 461v1h-2l1-1zm0 0v1z"/><path fill="#c8b100" d="M383 463h-1l-1-1h1z"/><path d="M383 464h-1l-1-2h1l1 1zm-1-1"/><path fill="#c8b100" d="M381 461h2z"/><path d="m381 461 1 1v1h-1zm0 1"/><path fill="#c8b100" d="M382 463h-1z"/><path d="M382 463v-1h1zm0-1"/><path fill="#c8b100" d="M384 465v1z"/><path d="M383 465h2l-1 1zm1 0v1z"/><path fill="#c8b100" d="m383 464 1 1z"/><path d="M383 464v1zm0 0 1 1z"/><path fill="#ad1519" d="M358 522q-2 23-21 23c-12-1-22-12-22-26s10-24 22-23q20 3 21 26"/><path d="M358 522q0 11-6 17-6 8-15 6-9 0-16-8-6-8-6-18t6-18q6-6 16-6 9 2 15 9 6 8 6 18m0 0q-1-10-7-17-6-8-14-9-9 0-15 6-6 7-6 17t6 17 15 9 14-6 7-17"/><path fill="#005bbf" d="M352 522q-2 16-15 16-14-3-15-19 1-16 15-17 13 3 15 20"/><path d="M352 522q0 7-5 12-4 6-10 5-7-1-11-7-5-6-5-13t5-13q4-4 11-4 6 0 10 6 5 6 5 14m-1 0q0-7-4-13t-10-6-11 4-4 12 4 13 11 6 10-4 4-12"/><path fill="#c8b100" d="m329 507-1 4v3l-1-1q-2 0-2 2v1l1 1h1l1 1h-1v2h1l-1 2 1-1 1 2 2-1h1l-1-2h1v-1h-1v-1l1-1 1 1 1-1v-1q1-2-2-2-1-1-1 1v-4z"/><path d="m329 507 2 4-1 2h1l2 1 1 2-1 1v1h-1l-1-1-1 1h1l1 1v1h-2l1 2h-1l-1 1h-1l-1-1h-1l1-2h-2v-2h2l-1-1h-1q0 2 0 0h-1v-1l-1-1 1-2h3l-1-2zm2 7v-3q1-1-2-3l-1 3 1 3v1h-1v-1l-1-1-2 1v2l1 1 1-1 1 1 1 1h-1v1h-1l1 1-1 1h2v1l1-1h1l1 1-1-2h1v-1h-1v-2h2l1-1q1-2-2-2z"/><path fill="#c8b100" d="M327 520h5v-1l-5-1z"/><path d="m326 518 7 1v1h-7zm1 1 5 1v-1z"/><path fill="#c8b100" d="m343 508-1 4v4l-1-2q-2 0-2 2v1l1 1h1l1 1v1l-1-1v2h1l-1 2h1l1 1 2-1h1l-1-2h1v-1h-1v-1l1-1 1 1 1-1v-1l-2-2-1 1v-4z"/><path d="m343 508 1 4v3l1-1 2 1 1 2-1 1v1h-1l-1-1-1 1v1h2v1l-1 1-1-1 1 2v1l-1-1-1 1h-1l-1-1h-1l1-2h-2v-2h2l-1-1h-1v1h-1v-2l-1-1 1-2h3l-1-2zm1 7 1-3q1-1-2-3l-1 3 1 4h-1v-1l-1-1-2 1v2l1 1 1-1 1 1v2h-1v1h1l-1 2 1-1h1v2l1-1h1v-2h1v-1h-2v-1l1-1h1l1 1 1-1v-1q1-2-2-2zh-1z"/><path fill="#c8b100" d="M341 521h5v-1l-5-1z"/><path d="m340 519 7 1v2l-7-1zm1 1h5v-1z"/><path fill="#c8b100" d="m336 520-1 4v3l-1-1q-2 0-2 2v1l1 1 1-1 1 2h-1v1l1 1-1 2 1-1 1 2 2-2 1 1-1-2h1v-1l-1-1 1-1 1 1 1-2v-1l-2-2-1 1v-3z"/><path d="m336 520 1 4v2h1l2 1 1 1-1 2v1h-1l-1-1-1 1h1l1 1v1h-2l1 2h-1l-1 1h-1l-1-1h-1l1-2h-1l-1-1v-1h2l-1-1h-2v-1l-1-1 1-2h3l-1-2zm1 7 1-3-2-4-1 4 1 3v1h-1v-1l-1-1-2 1v2l1 1 1-1 1 1v1h-1v1h1v1l-1 1h2v1l1-1h1v1-2h1v-1h-1v-1h-1l1-1h2l1-1v-1l-2-1z"/><path fill="#c8b100" d="m334 532 5 1v-1z"/><path d="M333 531h7v2h-7zm1 0v1l5 1v-1z"/></svg>