<svg xmlns="http://www.w3.org/2000/svg" viewBox="0 0 1000 1000"><path fill="#002868" d="M8 195c171-85 341-54 513-28 155 24 312 45 471-34v672c-171 85-341 54-513 28-155-24-312-45-471 34z"/><path fill="#fff" d="M8 195q27-14 55-23 94 31 191 98 94-64 191-114l55 8 11 32c-67 35-133 70-202 113q100 75 202 163l-22 56c-78-65-155-129-235-183-78 54-155 119-235 211L8 531v-37q94-111 191-184-94-57-191-77z"/><path fill="#ce1126" d="M254 307v25C175 387 96 453 15 548l-7-17c81-96 162-166 246-224m0 0 37 1q106 78 216 173l-7 19c-81-68-162-136-246-193M8 195c81 15 162 56 246 112l-37 2c-69-43-138-76-209-89zm246 112v-25q103-69 209-124l37 6c-81 43-162 86-246 143"/><path fill="#fff" d="M295 140v112c95 4 189 23 287 36v112c-95-13-189-32-287-36v224q-40-2-82 1V365c-68 5-135 19-205 54V307c68-34 135-49 205-54V141q40-3 82-1"/><path fill="#ce1126" d="M279 140v134c100 2 200 22 303 37v67c-100-14-200-35-303-37v247h-50V342c-73 3-146 17-221 55v-67c73-37 146-52 221-56V140z"/><path fill="#68bfe5" d="M8 531c163-81 324-57 492-31V164c162 25 325 52 492-31v672c-171 85-341 54-513 28-155-24-312-45-471 34z"/><path fill="#fff" d="M647 345v230c0 77 99 124 99 124s99-49 99-128V342q-98 14-198 3"/><path fill="#d21034" d="M732 431v103q-42 0-85-5v38q42 4 85 5v120l14 7 14-7V571q42 0 85-8v-37q-42 6-85 8V430zm-85-86c65 6 131 8 198-3v88q-98 15-198 4z"/><path fill="#fff" d="M674 401q-2 11-11 12-10-2-12-13 1-11 12-12 9 2 11 13"/><path d="M674 401q0 6-3 9-4 4-8 3-5 0-9-4l-3-9q0-6 3-9 4-3 9-3l8 4zm-1 0q0-5-3-8-3-4-7-4-5-1-8 3-3 3-3 8t3 8q2 4 8 4 4 1 7-2 3-4 3-9"/><path fill="#fff" d="M672 395q-1 6-9 6-9-2-10-8 1-6 10-6 8 2 9 8"/><path d="M673 395q0 3-3 5l-7 2-8-3-3-6q0-2 3-5l8-1q4 0 7 3 3 2 3 5m-1 0q0-3-3-5l-6-2-7 1-3 4q0 3 3 5t7 3l6-2q3-1 3-4"/><path fill="#fff" d="M672 409q-1 6-9 6-9-2-10-8 1-6 10-6 8 2 9 8"/><path d="M673 409q0 3-3 5l-7 1-8-2-3-6q0-3 3-5t8-1l7 2zm-1 0q0-3-3-5a14 14 0 0 0-13-1q-3 1-3 4t3 5l7 2 6-1z"/><path fill="#fff" d="M672 401q-1 7-9 6-9-1-10-7 1-7 10-6 8 0 9 7"/><path d="M673 401q0 4-3 5-3 2-7 2-5 0-8-3t-3-5q0-4 3-5l8-2 7 3q3 3 3 5m-1 0-3-4-6-3q-4-1-7 2-3 1-3 4t3 4q3 3 7 3l6-1q3-2 3-5"/><path fill="#ffd100" d="m840 413-1-5-5-5q-1-12-6-13l-6 2q-3 3-9 3l-3-1-3-2-3-6q5 1 10-9c5-7 8-5 8-5-2 7 1 6 1 6 6-6 1-14-1-14l-2-1-2 3c1-13-4-15-4-15l-1 3q-3 10-12 4c-6-3-20 5-24 8-5 3-13 7-21 1q-9-6-12-3-6 2-10 1l-4-1v-9s-4 1-2 11v2l2 4v1l2 1q0 2 2-2c0 1-1 9 7 11v-2l-1-3-1-3q2-3 6 0l7 2-1-6c1 0 7 8 9 8 3 0 8-4 11-3 0 0 0-2 10-5s22-10 26-5l3 6s0 9-13 5l-4-1s-1-3-24 7l-2 1-7 2c-5 3-22 10-33 8l-4-1h1l-1-1c-9-2-8-7-7-7v1q1-6-1-9l1-1q8-6 9-5c-3-5-8-3-9-3l-2-13c-6 1-9 7-9 8-1-7-6-10-6-10 2 4 1 11 1 12h-1v2-1c0 1-2 1-5 9l-1 3s-2 4-9-1c0 0-9-7-12-7q-5 0-5 3s-6-1-9 4c0 0-5 1-1 8l2 4s0-5 1-4l1 1 1 4h1v-4h1l-1 1 2 2 1-1 2 1 1-1c2 0 2-4 2-4l4-1c1 4 6 8 7 8h-1q6 4 7 3l-1 6-2 2 7 1v2l-2 9s-7 3-10 7l-1-1-5-4h-4l-1-7-1-4q-1 2-3 1l-1 1h-1v2h-1v-1h-1l-1 1h-2v5q-3 3-2 5c2 10 14 7 15 8l5 2 4 4c2 0 0-2 7-5l11-6 3-6v3q0 4-2 4l7-2q3-3 2-4c3 10 7 11 7 11l1-5h2l-2-5 3 3h1l2 3v-2l4 2v-2c6 5 15-1 15-1l3-1q4-1 3-3c7-1 12-7 12-7q4-2 3-4 1 2 7-4c7-15 18-8 18-8l-6 1c-17 1-10 15-10 15h1q5 3 5 11c-4 6-10 1-12-5q-4-6-5-4c-1 1-9 3-6 13h1q0 3 4 8t13 2l13-8 6-8c2-5-3-6-5-8v-2c6 2 6-9 6-10q3 11 6 9c2-4 0-12 0-12 8 16 11 14 12 13-4-3-2-7-2-7 4 18 17 1 17 0q-1 4 1 6 3 2 2 5c-1 4-6 4-7 4 0 0-6 0-6 7q3 3 6 1l2 1h3l5-2 3-3q7-5 6-8"/><path d="M821 426h-3q-3 0-3-2 0-4 3-7l3-1q6 0 7-3l-1-3-1-1-2-5-6 6h-12l-7-10 1 1-2 8h-1l-2-2-3-4v3l-2 3h-4v1l3 2 2 3v5l-4 5-2 2v1l-13 8-8 1q-4-1-5-4-5-3-5-7v-1q-2-6 1-10-3 3-7 3-1 3-4 2 0 3-3 2l-5 2q-5 2-9-1v1q-3 1-4-1l-1 2v-1l-2-2h-1l-1-1v2h-2v5h-1l-3-1-4-7-2 2-6 2-1-1 1-3-2 3-10 6q-5 1-7 4l-1 1-3-3-1-2q-4 1-5-2h-2l-8-1q-4-1-5-7l-1-2 2-4 1-4h2l1-2 1 1 1-1v-1h1v1l1-1h1l2-1v-2l2 5v5l1 2h3l2 2 3 2 1 1q3-4 9-6l3-10-7-1v-1l1-3 1-5q-4 1-6-2l-1-1h1l-6-7-3 1-1 1q0 3-2 2l-1 2h-1l-1-1-1 1-1-2-1 2v1h-1l-2-4v-1 5l-1-1-2-5q-3-4-1-7l2-2 5-4h4l1-2 4-1q3 0 12 8l7 2 2-2v-1l1-1q3-8 5-9v-2q2-8-1-11l1-1 3 3 3 6 2-2q3-4 7-5h1v1l2 12h3l6 3v1h-1l-9 6v10q1 3 7 4l1 1 3 1q7 2 19-2l14-5 5-2h1l3-2q22-9 24-7l4 1q9 3 11-1l1-3-2-6q-3-2-7-1l-11 4-8 3-9 3-1 1v1h-1q-2-1-6 1l-4 2-7-6-2-3v3l1 3h1l-1 1-7-3h-5l-1 1 1 2 1 1v5q-6-1-7-7v-3l-1 1h-1l-1-1v-1h-1v1-2l-2-4-1-1q-1-7 1-10l2-3v7l1 1v1l3 2q3 1 10-2h1l4-1 8 5q7 5 19-2 19-11 25-8 4 3 7 2 3 0 4-5l2-4 3 3q2 5 1 11l1-1 1-1 2 1 2 1 2 4q1 7-3 10h-2l1-5h-2q-2 0-5 5-6 8-10 9l3 5 2 1h1v1h3q7 0 8-2v-1q2-2 6-1 6 2 7 12 0 3 4 5l2 6-1 4-5 4v1l-4 3-8 1zm19-12-2-6q-4-2-4-5-1-10-7-12l-5 1q-1 3-8 4h-1l-3-1v-1q-3 0-3-2l-3-5v-1q4-1 10-9l6-6 2 1h1l-1 5h1q3-2 2-8l-2-4-1-1h-2l-2 2-1 1v-1q1-7-1-12l-2-2-1 2q-1 6-5 7l-7-2q-6-3-24 8-13 7-21 1l-7-4h-4l-1 1q-7 3-10 1l-4-2v-1l-1-1-1-4v8l1 2 1 3 1 1 1 2 2-2h1v5q1 4 5 5v-2l-1-2v-1l-1-1 1-2h1q2-3 6 0 2 3 5 2l-1-4v-1l1-1 3 3 6 6 4-2 6-2 11-4 8-3 11-4q6-1 8 1v1q0 4 2 5v1l-1 4q-4 5-12 2l-5-2h-2l-30 11-14 6q-12 3-18 1v1l-1-1h-3l-2-1v-1l-7-4v-4l1-1v1l-1-6v-1l1-1q3-5 8-6l-4-2-4 1v-1l-2-12q-3 0-6 4l-3 3h-1q0-4-3-7l-1-2v14l-1-1-4 8-1 4-1 1v-1l-2 1q-3 1-7-2-9-8-12-8l-3 1-1 2h-4q-5 1-6 4l-2 2 2 6 1 2v-2l1-1v1l1 1 1 4 1-4h2l-1 1 1 1h3l1-1h-1 1l1-1 1-2v-1q3 1 4-1l1 1q0 3 6 7v1q3 3 6 2l1 1-2 6v1l-1 1h6l1 1-1 2-2 8h1l-1 1v1q-7 3-10 7v1l-1-2-3-2-2-2h-2l-2-1-1-3v-4l-1-2h-2l-1 1h-1l-1 1v1h-1v-1h-1v-1 1l-1 1h-2v4l-2 3 1 1v1q1 7 12 7h3l4 2 2 2 2 3 1-1q1-3 6-4l10-6v-1q3 0 3-5h1v6l5-2q2 0 2-3h1q1 6 4 8l2 2v-5h2l-1-3v-1l3 2h2v1l1 2v-3l1 1q1 2 3 2v-1l-1-1 1 1q4 2 10 1l5-3q2 1 3-1 3 0 3-2 7-1 11-7l1-1q3 0 3-3 3 1 6-5 5-9 12-9l7 1v1l-6 1q-10 1-11 8l1 7h1l4 4q3 4 1 7-3 5-7 3l-5-7-3-4h-2l-4 2q-3 4-1 9v1q1 4 4 7 2 3 5 3l8-1 12-7 3-4q3-1 3-4l1-3-3-2-2-3-1-2v-1h4l2-3 1-6h1l2 7 2 2 2-7-1-5h1q4 11 8 12l1 1-1-4v-3l1-2v2q1 6 4 7 3 2 5-1l8-6v1q-1 2 2 5 2 2 2 6-1 3-8 3l-3 1q-2 2-2 6l2 1h3l1 1v-1h4l5-2 3-1v-2q4-1 5-4zm-83-1 3-1h2q3 1 4 4 1 4 5 6 3 2 5-1v-1q2-2-1-6l-3-3h-2l-1-9q-3 6-6 5l-1 1-3 3zm17-17 7-2 4-1h-5zm36 13-2-4zm-153-23 1-1 2 1-1-5 2-2v-1l-2 2v5l-1-1zm174 38-9 1q-2-1 3-5l-1-1-3 6c1 2 8 0 10-1m-72 9 1-8q-3 5-1 8m-5-8q0 5 5 8-4-4-4-8 1-8 3-8v-1q-3 1-4 9m64-3v4zl2-2v-1zm-147-38-1 4h-1l-1-2h-2v-2l2-4q-2 1-2 3v3l1 1 2 1h1zc5 1 7-5 8-6h-1c0 1-3 6-7 5m-9-1v4l1 1 2-1h1v-1l-1 1-1 1-2-2zl3-4h-1zm-6 35 2-3 2 2v-1l2 5v2q0-6-2-7h-1l-1-1zm13-8q-2-1-4 2v3l3 6v-1l-2-5-1-2v-1zl1 4zm-6 2-1 1c0 1 1 7 3 9v-1l-2-8zh2zm-2 0-1 4zh1v-1zm54-33 1 6v1-1l-1 1 1 3q1 3 7 5h-1l2 1h1l3 1h-1l1 1 10 7q-1 3-11 2h-1l1 1 5 10q-4 1-9-2v1l3 9q-1 1-3-2l-1-1v2l-1-2h-2l-3-2v-1l-1 1h1l2 4h-2v1l-1 4c-1-1-4-2-6-11l-1 1q1 1-2 3l-5 2v-7l1-3v-1c-1 0-8 4-12 2l2-8v-3l-6-1 1-1v-1q0-3 2-5l-1-1-6-2 3-2h1v-1l-1-2 3 1v-4h-1v3l-2-1-1-1v2l1 2-4 3 6 3-1 5-1 3q6 2 7 1v1l-3 9v1h1q5 1 11-2l-1 3 1 4-2 3 1 1 6-2q3-2 2-3c3 9 7 9 7 10l1-1v-4h2v-3l1 1h1l2 3 1-2q2 3 4 2v-1l-3-9q6 3 8 2h1l-5-10c7 1 10-3 11-4l-10-7 1-1h-1l-5-2-1-1q-6-2-7-4v-1l1-3zm-21-3q1 2-2 5h-7l2 4 4 1-2 9q1 2 5-1l1 7 1 3v2l5-7 1-2v1q0 3 4 6v1-2l1-4 1-2v-2l3 3q3 2 4 1v-1h-2l-1-2v-3l-1-2 2 1 3 2h1-1l-2-4 1-2v-10 3l-1 7v2l1 3-2-1q0-2-2-2v1l1 2v3l1 2 1 1-3-1q-2-4-4-3l1 2-1 2-1 4v1q-4-3-4-6l1-1h-1l-2 1q-2 6-4 7v-4l-2-7v-1 1q-4 3-5 1l3-9q-3 1-5-2l-2-3q4 3 7 1zl4-9-5 8m7-9-1 3c11 3 16 11 16 11v1l2-3c-6-12-16-12-16-12m0 1c1 0 10 1 16 11l-2 1c-1-2-6-8-15-10zm-3 6-2 6h1q-2 2-2 6v4l1 1q0 7 6 6 5-2 5-5h1q0-2 2-2l2-3 1-1 2-6h-1l-1 5-1 2-2 2-3 2v1l-5 4q-5 1-6-5v-1q-2-7 1-10zl4-4h-1zm-2 16h3l1 3 5 1-1-1q-3 1-4-1v-3h-4l-1-4zm3-4-1 1q0 2 2 3h2v-2q-2-3-3-2m1 3-2-2 1-1q1-1 3 2v1zm0 3v3l1-2zm0 1-1 2zm-3-3v3l1-3zm0 0-1 1zm-1-1 1 5 2 2h2l1-2h1v-1l-1 1-1 1h-2l-2-1zm1-9-2 3h1zh2zm9 6 1 6h1q1-6-2-7zm-7 0q-1 1 1 3l-2-1zm2-12q3 1 0 7 2 0 2-3 0-5-2-4m11 7q-2 1-2-1-1-3-3 0l-3 3 3-3q2-2 3 1zm0 1-2-1-2-1-3 2 4-2zm-2 1-3 1-1-2 2 1zq1 1 0 0m-1 0-2-2zm0-1-1-1zm-9-7q2-1 2 6v-5zm0 2 2 4v-1zm1 1 1 2v-1zv-2zm4 3v4l-1 2v-4zm12 19c3 1 10 8 10 8h1c-1-1-8-8-11-9zm3 10q1 6 3 7v-1zm-8 1q1 7 3 10l1-1-3-9zm-10 0v4l1-1z"/><path fill="#fff" d="m657 385 2 5v-5z"/><path d="m657 385 2-1 1 1-1 5zm0 0 2 4v-4z"/><path fill="#fff" d="m661 387 1 4h1v-4z"/><path d="M660 387h3l-1 4h-1zm1 0 1 4h1v-4z"/><path fill="#fff" d="m663 387 2 3 1-1v-3z"/><path d="M663 387q1-2 3-1v3l-1 1zm1 0 1 3 1-1v-3z"/><path fill="#fff" d="m669 388-1 2-2-1v-3z"/><path d="m669 388-1 2-2-1v-3q2-1 3 2m0 0-2-2-1 3 2 1z"/><path fill="#fff" d="M658 414v-4h1l1 4q0 2-2 0"/><path d="M658 414v-4h1l1-1v6h-1zm0 0 1 1 1-1-1-4h-1z"/><path fill="#fff" d="M665 411v-4l3-1 1 3z"/><path d="M665 411v-4l3-1v-1l1 4q-3 0-4 2m0-1 4-1-1-3-3 1z"/><path fill="#fff" d="m662 411 1-4h2v5q1-1-3-1"/><path d="m662 411 1-4h2v5-1zm3 0v-3h-2v3z"/><path fill="#fff" d="m660 411 1-3 1 1v2l-2 3z"/><path d="m660 411 1-3 1 1 1-1v3h-2l-1 3zm0 0v2l1-2h1v-2h-1v-1z"/><path fill="#00a651" d="M697 479s6 8 5 15c0 0 4-11-1-15q-5-4-4 0"/><path d="M697 479v-3l5 2q3 3 2 10l-2 7-1-1q1-4-1-10zm0 0 3 5 2 7 1-3q1-7-2-9l-3-2z"/><path fill="#964b36" d="M689 486v6l-1 7v8q-2 2 1 8l3 1 1-9v-9l-1-6v-4s-3-4-3-2"/><path d="m688 486 1-1 2 1 1 2v4l1 6v18h-4q-2-4-2-9l1-8zm1 1v12l-1 8q-1 6 1 8h3q2-3 1-8v-9l-1-6v-3l-2-2-1-1z"/><path fill="#00a651" d="M691 476c-1 0-8-20-14-22-5-2-5-8-5-8q-1 1 5 4c4 0 12 8 13 15l2 6z"/><path d="m691 476-1 2zl-4-10q-5-11-9-11-3-1-5-5l-1-4h1q1 3 5 3 3 0 8 6 5 5 6 10l1 5 1-1zm0-1 1-4-1-1-1-5-5-10q-6-5-8-5l-5-2 1 1q1 4 4 5 5 1 9 11z"/><path fill="#00a651" d="M691 475c0-1 2-25 15-26 12 1 8 2 11-1 0 0-8 6-14 7-5 1-9 13-9 16q-1 6-4 6-1-2 1-2"/><path d="m690 474 3-12q4-13 13-13h8l3-1v1l-1 1h-1q-7 5-12 5-3 1-6 7t-2 9l-2 5q-1 3-3 1l-1-1zm1 1v1q1 2 3-1l1-4 3-9q3-7 6-8 4 0 10-4h-7q-7 0-12 12-3 6-3 13"/><path fill="#00a651" d="M693 484c1 0 3-9 8-6 0-1-3-9-10-2z"/><path d="m694 485-3-8q6-5 8-2 3 1 3 4l1 1-1-1q-3-2-5 2zm0-2 1-4q3-3 5-2l-2-3q-3-2-7 2z"/><path fill="#00a651" d="M684 474s4 22-2 29c0 0 0-11-4-19-3-7 4-14 6-10"/><path d="m684 474 2 12q0 13-4 17v1-1q0-12-4-19-2-4 1-9l3-3zm0 0-2-1-3 2q-3 4 0 9 3 8 3 18 3-4 3-16z"/><path fill="#00a651" d="M685 478s7 10 7 13c1 3 2-9-1-13l-7-5z"/><path d="M684 478v-6 1q4 1 7 4t2 10v5l-1-1q0-3-8-13m1-1 8 13v-3q0-7-2-9-3-3-7-4z"/><path fill="#964b36" d="m671 502 3 5 1 4 1 4 1 6 4-2q1-1-1-6l-1-5-2-6-2-5s-2 5-4 5"/><path d="m671 502 2-2 1-1 1-1 2 5q3 1 2 6 2 2 1 5 3 3 2 6v1h-1l-4 1q-2-1-1-6-2-2-1-4l-2-4q-2-1-2-5m1 0 2 4v1l1 3h1v5l1 5 4-1-1-6q1-2-2-5 1-4-1-5v-1l-2-4-1 2z"/><path fill="#00a651" d="M675 497c-1 0-9-5-15 1 0 0 8 2 9 4q4 1 6-5"/><path d="M675 497q1 2-2 5l-2 1h-2q-2-3-9-5h-1 1q3-4 9-3zm-1 0-5-1q-5-1-8 2 7 2 8 4h1l2-1z"/><path fill="#00a651" d="m672 505-2-2c-1-1-8-4-10 6 0-1-3-10 1-12q7-1 11 8"/><path d="m672 505-2-2-5-1q-4 1-5 7v2-2l-1-6q0-6 2-6 6-2 11 8m-11-7q-2 0-2 5l1 4q1-5 5-6l5 1q-4-6-9-4"/><path fill="#00a651" d="m666 483 4 9 1-1s-3-7-5-8"/><path d="m665 483 6 9v1l-3 1zm1 1 4 8 1-1z"/><path fill="#00a651" d="M663 469s-2-10-5-8c-3 3-2 10-2 10s-6-8-3-15c4-6 10 2 10 13"/><path d="m664 470-1-5-2-3h-2q-3 3-2 10v2-1l-3-6v-10l3-2 4 2q4 4 4 13zm-1-4q-1-6-4-9-1-2-3-2-2-1-2 2-3 3 0 9l1 4q0-7 3-10l2 1 2 3z"/><path fill="#964b36" d="m670 493 1 3q2 2 3 0l-2-5q-2 0-2 2"/><path d="m670 493 1-2 1-1 1 1 1 2 1 3-1 1h-1l-2-1zm0 0 1 2 2 1 1 1v-1l-2-5v1z"/><path fill="#00a651" d="M668 480c0-1 0-10 5-13l1-2s-4 12-3 18v1z"/><path d="M668 480v-6l4-8h1l1-1v1q-3 12-2 17l-1 1v-1q-1-6 2-16l-4 8z"/><path fill="#00a651" d="M669 468c0-1 8-22 19-14-1 0-11 2-15 12l-4 8z"/><path d="m669 468 5-11q7-9 14-4l1 1h-1l-6 3q-6 3-9 9l-4 9zm0 0 1 4 3-6q2-6 9-10l5-2q-6-5-12 4z"/><path fill="#00a651" d="m665 476-4-18q-3-5-8-2c1 0 5-5 11 0 6 7 5 15 5 15l-1 11z"/><path d="M664 476q-2-15-4-18-3-4-6-1l-1-1 4-2q4-2 8 2t4 10v17zl3 5 1-10v-5q-1-6-5-9-3-4-7-2l4 3z"/><path fill="#00a651" d="M674 496c-1-1-10-27-17-9v7c0-1-4-4-2-14 2-9 12-4 16 4z"/><path d="M673 495q-2-6-6-10-2-4-5-4-2 0-5 6v7l-2-4v-10q1-7 7-5 7 3 9 9 6 12 4 13l-2-1zm1 0-4-12q-3-5-9-8-6-2-7 4l1 11v-4q3-7 6-7t6 4z"/><path fill="#00a651" d="M702 505c1-1 7-20 12-11q1 1-1 7c0-1-2-5-5 0l-2 6q-1 1-4-2"/><path d="m702 505 4-9 4-5q3-1 4 3v7h-1l-1-2q-3-1-4 3l-2 4v1q-3 1-4-2m4 2 2-5q1-3 4-3l2 2v-6l-3-2-4 4-4 9q0 2 3 2"/><path fill="#00a651" d="M713 501q3-1 3 9c0-1 5-14-2-16q1 1-1 7"/><path d="m713 501 1-3v-3q3 0 4 3v5l-2 8v-1l-1-6zm1 0 2 2 1 4 1-5-1-5-2-2v2z"/><path fill="#00a651" d="M714 486s9 4 10 10c0 0 1-10-4-14 0 0-6 1-6 4"/><path d="M714 487q-1-2 3-4l3-1v1-1q4 3 4 9v6l-5-7zm0-1 5 3q4 2 5 5v-4l-4-8-3 1z"/><path fill="#00a651" d="M718 469c5-11 10 3 10 4 0-1 1-11-4-14-5-1-8 24-8 24l-7 2c0-1 2-23 11-25h2z"/><path d="m719 468-1 2-2 13v1l-7 2v-1l2-12q3-12 9-14l2 1 2-2q4 2 4 9v7l-1-1q0-4-3-6l-2-2q-2 0-3 3m-1 1 3-8h-1q-5 1-8 13l-2 11 5-1 3-13zm2-3 1-2 4 2 3 5v-4q-1-7-4-8-2 0-4 7"/><path fill="#00a651" d="M711 475s-6-16-10-18 2-4 5-1q4 3 6 16z"/><path d="M711 476q-7-17-10-19l-2-2 2-1 5 2 1 1q6 8 6 15zm0-2 1-2q0-7-5-14l-2-2q-1-2-4-1l-1 1h1q4 3 10 18"/><path fill="#00a651" d="M705 498c0-1 2-11 6-15q8-4 9-1s-5 1-6 5q-2 5-3 4z"/><path d="m705 498 1-6q2-7 5-9 5-3 9-2l2 1h-2q-5 2-6 5l-3 4zm0-1 6-7q2 0 2-3 2-4 5-5-3-1-7 2-3 2-4 8z"/><path fill="#964b36" d="m702 505-2 8-1 8q0 2 4 2s3-6 2-10l1-6z"/><path d="m702 505 3 1h1v1q1 3-2 6 1 4-2 10-1 1-5-2l2-8zm0 1-1 6v1q-3 6-2 8l3 1 3-8v-1l1-6zm-13-14 3 1v-1q-1 1-3-1zm-1 7q2 1 5-1v-1q-3 2-5 1m0 8c1 0 4 3 6 0v-1q-4 3-5 0m-15 1q2 0 3-5zm1 4q2 1 4-3h-1q-1 2-3 2m1 5 4-2q-3 2-4 1m24 0 3 2 2-1v-1l-2 1z"/><path fill="#964b36" d="M807 522v-1h-1l-1-3v-5l-1-1 1-2-1-2 1-1v-2l-1-2 1-1v-2l-1-1 1-1h-1v-5 4-7l-4-2v24l-1 7-3 4v3h2l-2 1h1v1l1-1v1l1-1 1-1 1-1h3l1-1 1-1h1v1z"/><path d="m808 522-1 1h-1v-1l-1 1-1 1h-2l-1 1-1 1h-1l-1 1v-1 1h-1v-1h-1l1-1-1 1v-4l3-4 1-7-1-13 1-11v-1l4 3v3l1 1v1h-1v1h1v21l1 1v2h1v2zm-1 0h-1l-1-2v-5l-1-2v-22l-4-2-1 31-3 7 2-1-1 2h2v-1h1l1-1 1-1 1 1h1v-1l1-1h2z"/><path fill="#964b36" d="M799 527h3q0 1 0 0h1v-1l1 1 1-1h1l1-1 1 1 1-1h-1v-2h-1v-1h-2v-1l-1-1v2h-1l-1 1-1 1-1-1h-1v2h-1q0 1 0 0v-2l-1 1v1l-1 2h2"/><path d="M799 527h-1l1-1v-2l1-1v2h1v-2h3l1-1v-1h1v-1l1 1v1h1q0-1 0 0h1v1h1v2h1v1h-2v-1 1h-2l-1 1h-2v1-1h-1l-1 1h-1v-1zm0-1h4v-1h1v1l1-1 1-1v1-1h2v1-2l-1-1v-1l-1 1v-1h-1l-1-1v1h-1l-1 1h-1v1h-1v-1h-1v2zv-1h-1v3zh1z"/><path fill="#964b36" d="M796 523v2h-1v2q0 1 0 0h3v-4z"/><path d="m796 523-1 1v1h-1v2h2l1-1v-3 1h1l-1 1v2h-2l-1 1v-3h1v-2zm11-34q0 3-2 3l-2-2 2-3zm0 0v3l-2 1q-2 0-2-3t2-4 2 3m0 0-2-2-1 1v3l1 1 1-1zm-6-3-1 3-2-2q0-3 2-3zm1 0-1 3-1 1-2-1v-2q-1-3 2-4 2 0 2 3m-1 0v-1l-1-1-1 1v3l1 1 1-1zm3 1-1 3-2-2q0-3 2-3zm1 0-2 4q-2 0-2-3-1-4 2-4l1 1zm-1 0-1-1v-1l-1 1v3l1 1v-1zm-3 3-1 3q-2 0-2-3l2-3zm1 0q0 3-2 3l-2-1v-4l2-1q2 0 2 3m-1 0v-2h-1l-1 1-1 1q0 3 2 2zm3 2-2 3-1-3 1-3q2 0 2 3m0 0q0 3-2 3t-2-3 2-3 2 3m0 0q0-3-2-2l-1 2v2h1z"/><path fill="#00a651" d="M805 462c0-1 17-34 35-3l-1 7-1-3-1 1v-2h-2l1-4-3 3 1-2-3 3 1-7-3 7v-5l-1 2v-2l-1 2-1-1v2l-2-2-1 3-1-3-1 2-1-2v3l-3-2v3l-1-2v2h-2v2l-3-1 1 2h-4l2 1-1 1c1 0 18-10 20 21l-3 3 1-3h-1l-3-3 1-4h-1v-2l-1 1-1-3v1l-1-2-1 2v-5l-1 3-1-2v2l-2-3v2l-1-1v1l-2-2v2l-1-1v1l-3-2v2l-2-2v2s16 11 12 33l-1 3-1-7-1 4 1-8-1 1v-3l-2 3v-3l-1 1-1-6-1 3-1-6-1 3v-6l-1 4-2-5v2l-1-4-1 2-4-1-3 6v-4l-1 3v-3l-2 9-1-6-1 5v-1l-1 2v-1l-1 3-1-1v3l-1-1v5l-1-2v2l-1-1v5l-1-2-1 3 1 3-1-1v5c0-1-4-12 1-24 6-13 13-16 13-16v-1l-1-1-4 3v-2l-1 2-1-2v2-1l-2 2v-3l-1 4-1-3-1 6v-4l-1 5-1-6-1 6v-5l-1 6-1-5-1 4-1-3-1 5-1-5-1 8-1-3v6l-1-4 1 7-1-2v4l-2-5v6l-1-2v2s-1-21 10-26c12-5 18-1 18 0l-4-5 1-1h-2l1-2-4 1 1-2-2 1v-2l-2 2 1-2-2 2v-2l-1 2-1-2-5 7 1-7-1 1v-1l-1 3v-2l-1 2v-3l-2 3-1-2v3l-1-2-1 3-1-2v2l-3-1 1 2-2-2v4l-1-2-1 4-1-4-1 3s10-33 34-13l4 5v1l-1-24 1 11 1-4v5l2-7-2 16s2-13 5-16l-3 11 1-1-1 2h1l-1 4-1 2 1 1z"/><path d="M810 466h9q9 3 10 22l-4 4 1-4-3-3v-3h-1v-2l-1-2v1l-1-2-1 2v-5l-2 3v-1l-2-2v2l-1-1v1l-2-2v2l-1-2v1l-3-1v2l-1-2-1 1q5 3 8 8 7 12 4 25l-2 5v-8l-1 3h-1l1-7-1 1v-3l-1 4v-4l-1 1-1-5-1 2-1-6-1 3v-5l-1 3-2-5v2l-1-4-1 1-4-1-1 1-1 2-1 4-1-1v-2l-1 3v-2l-1 6h-1v-4l-1 5v-2 2l-1-1-1 2v3l-1-1-1 5h-1v-1l-1 5-1-2v6l-1-1v4l-2-8q-2-8 3-17 3-7 9-12l4-4h-1v-1l-5 4 1-2-1 2-1-2v2l-1-1-1 2v-2l-1 3-1-3-1 5h-1v-2l-1 4v-4l-1 4v-3l-1 4-1-4-1 4-1-4-1 6-1-5-1 8v-3l-1 6v-2 4l-1-1v2l-1-3v5l-2-2v1h-1l2-11q1-12 9-16l13-2 3 1-2-2v-2h-1v-1h-3l1-1h-2v-1l-2 3v-2l-1 1-1-2v2l-1-3-6 8 2-7-1 1v-1l-1 3v-2l-1 3-1-4-1 3v-2l-1 3-1-2-1 3-1-2v2l-2-2 1 4-3-3v4l-1-2-1 5-1-4v2l-1-1 1-4 7-10q11-12 27 0l2 5v-22h1v8l1-1v3l2-6 1 1-2 9q1-8 4-9l1-1-4 11h1v2l-1 4v2h1q4-9 11-14 13-9 25 10l-2 8v1l-1-3h-1v-1h-2v-3l-2 2v-2l-2 3v-6l-3 7 1-5-1 1v-2l-1 2-1-1v2l-2-2-1 4-1-4v3l-1-3-1 2-3-1 1 3-2-2v2l-2-1v2h-2v1zm-5-4-1 2-1-2 1-2 1-3h-1v-2h-1v7l-1-1 1-12-1 2h-1v-3 16l-1-1-3-6q-14-12-26-1l-7 12 1 1v-3l1 2 1-4 1 2v-2l3 1v-2l1 2 1-3 1 2v-4l1 3 2-3v2l1-2v2l2-3v2l1-2-1 7 4-6 1 2 1-3v4l3-3-1 2 1-1v1l3-1-1 2h3v1h1v2l4 4-1 1-5-2-13 2q-6 3-9 15l-1 8 1 2v-6l2 4-1-4 1 2v-5l1 2v-6l1 3 1-7 1 5 1-6 1 4v-4h1l1 4 1-4v1l1-2 1 4v-3h1v2l1-5 1 2 1-4 1 4 1-2 1-2v3l1-2v2l5-3v1l1 2-5 3-9 13a31 31 0 0 0-2 20v-1h1v-7l1 3 1-5 1 1v-2l1 1v-5l1 2v-3l1 1 1-3v1l1-3v2l1-4h1v4l1-7h1v1l1-1v2l1-2 1-2 1-1 4 1 1-2 1 4v-2l2 4 1-4v6l1-2 1 6 1-3 1 6 1-1v3l2-3v3l1-2-1 7 2-3v7-1a31 31 0 0 0-11-33v-2l2 1v-2l2 2 1-1 1 1v-2l2 3v-2l1 1v-2l2 3 1-2v2l1-3v4l1-1 1 2v-1l1 3 1-1v3l1-1-1 5 3 2 1 1-1 2 3-2q-1-19-10-22-5-1-10 2v-2l-1-2h3v-1h2v-2l3 1-1-3 2 2-1-3 4 2v-4l1 3 1-3 1 4v-3l2 2v-1l2 1 1-3v2l2-2-1 4 3-7v8l2-4v3l2-3-1 5h2l1 1h1v2l1-6q-11-19-24-10-6 4-11 13m-2-7 3-10-2 8zm-1 21q0-2 4 1v-1c-3-3-5 0-5 0m1-12-1 1zl-1 2 2-1-3 5h1l3-6-2 1 1-3zl1-4h-1zm-4 1 1 2h-1l3 8 1-1-1 3h1l1-6-2 2-2-5 1 1-1-3 2 1v-3h-1v1l-2-1zm-2 11 3-1 1 2v-1l-1-2zm3 9-1-5h1zm5-1-1-4zm1 2v-4z"/><path fill="#00a651" d="m673 595-4-1-2 3q2 2 5 0z"/><path d="m673 595-2 2h-5v-1l1-1 1-2q1-2 4 1m-4 0-1 1v1h4l1-2z"/><path fill="#00a651" d="m674 597-1 5 1 4s2-5 1-7z"/><path d="m674 597 2 3-1 7h-1v-2l-2-2zm-1 5 1 2v1q2-5 1-6l-1-2z"/><path fill="#00a651" d="m671 587-4 3v4s4-2 4-4z"/><path d="M671 587v3q0 2-4 5v-5q0-3 4-4zm-3 3v3l3-3v-3z"/><path fill="#00a651" d="M672 588q2-1 1-5l-2-4v8z"/><path d="m672 588-1-2v-8l1 2 1 1zm0 0 1-5-2-2v5z"/><path fill="#00a651" d="m669 587-1-6-3-2 2 7z"/><path d="M669 587h-2q-2-1-2-8l1 1 2 1zm0-1-1-4-2-1q0 4 2 5z"/><path fill="#00a651" d="M675 594q2-2 3 4v3s-2-5-4-6z"/><path d="M675 594h1q2 0 3 4v4h-1v-1q-1-5-4-6zm0 1 3 5v-2q0-3-2-3zm-1 2v4h1zl1-8zm-3-2 4-2h-1l-3 1m4-3-7-6v-1zm-5-2 2-2zm2-1-1-4v-1zm2 6v1l3 2h1z"/><path fill="#fff" d="M709 598c2-2 3-8 3-8l-6 5c4-4 8-16 8-16-2 5-10 8-16 12-5 5-3 16-2 17q-4-4-6-14 0-8-6-10c-4 0-6 5-6 5l-6 4 6 1s4 2 4 6c0 5-3 22 3 33 4 7 19 12 19 12z"/><path d="m708 598 3-6-4 3-1-1q3-2 6-12l-8 6-6 4q-3 2-3 9l1 7v1l-1-1-3-5-2-9q-1-7-6-9-3 0-6 5l-4 3h4q5 3 5 7l-1 5q-1 19 3 28 3 4 11 8l9 4-1 1-8-4q-9-4-12-9-5-8-2-29v-4q0-3-4-6l-7-1 7-4 1-3q3-3 5-2 6 1 7 10l4 12-1-5q0-7 4-10l6-4q8-5 9-8h1v1l-5 13 2-3h1q0 7-3 9z"/><path fill="#fff" d="M697 612c0-1 1-8 5-8s5-5 8-6c2-1 13-5 15-13 0 0-1 12-12 19l10-6s-4 10-14 12c1 0 9 0 11-4-1 1-4 7-11 8q3 3 8 1s-3 5-8 6h1s-3 5-8 2c-4-4-4 0-4 1z"/><path d="m697 612 1-5q1-3 4-3t5-4l2-3h1q14-5 15-12a28 28 0 0 1-7 16l4-4 1 1-3 6-5 5 4-2v-1l1 1-1 1-2 3-6 4h6v1l-6 5-3 3q-3 2-6-1t-3-1l-1 2h-1l1-3q1-2 5 1 2 3 5 1l2-2h-1v-1l6-3-6-2-2-1h2l8-4v-1l-8 2v-1q6-1 10-7l2-3-8 4v-1a23 23 0 0 0 11-14q-4 4-14 9l-3 3q-2 4-5 4l-3 3z"/><path fill="#fff" d="m706 624 6 18s9 14 13 16l-5-3 3 4-3-2 2 3q1 0 0 0l-2-1-1 1-1-1v2l-2-1v1h-4l-2 3-6-21z"/><path d="m706 624 6 18q9 14 13 15h1l-1 1h-2v1h-1 1v1l-1 1v-1h-1l-1-1v2h-1l-1-1v1h-2v1h-4l-1 1-1 1v1l-7-22h1l6 20 1-1v-1h4l1-1h1v-2l1 1 1 1v-2h1l1 1-1-1 1-1v1l-1-3v-1l-9-12q0-6-5-18m6 38-8-21 1-1zm7-1-14-21 1-1 14 21zm3-2-15-20v-1zm-39-68-2-2-1 1h1q1-1 2 1m-5-2v5l1-3zm5 2h-3zm0 0-2-1zm0 0-3-1zm0 37-1 4 3 3q0 3 2 2h1q-2-1-5-8z"/><path fill="#964b36" d="M805 585s7-12 13-10l10 3c0 1 0 8-3 9-3 0-6-7-9-5l-6 8c-1 1-7 2-5-5"/><path d="m805 585 4-6q5-6 9-5l10 4v5q-1 4-3 4l-4-2q-4-4-5-2-5 4-6 7l-1 1h-3l-1-2zm0 0v4l2 1h3q0-2 6-8 1-1 5 2l4 3 3-5v-3l-10-4q-4-2-9 4z"/><path fill="#964b36" d="m779 647-1 4 2-2z"/><path d="m779 647 1 1 1 1-1 2h-2l-1-1 1-1zm0 1-1 2h2z"/><path fill="#964b36" d="M777 650s-3-2-6 4c-3 7-5 17-7 19-1 1 16-11 16-16v-7z"/><path d="M777 649h2l1 1v6l-9 11-8 5v-1l3-8 4-10q1-5 4-5zm0 1h-2l-4 4-6 18 1-1 6-4q8-7 8-10v-6h-1z"/><path fill="#964b36" d="M778 651q-1-1-5 8-3 11-6 11z"/><path d="m778 651-2 1-2 7q-1 7-6 11l-1 1v-1q6-4 6-11l3-7z"/><path fill="#964b36" d="M828 578c0 1-5 3-4 9z"/><path d="m828 579-2 2q-3 3-2 6h-1l2-7z"/><path fill="#fff200" d="M786 598c0-1 0-17 11-18q2 1 1 3 1-2 3 1s3-2 4 2q2-1 3 4 1-2 2 1 2-2 3 3c0-1 3-4 3 2 0-1 3-4 4 1 1 6-3 17-7 20z"/><path d="m786 598 1-9q3-9 10-9l1 2v1l1-1 2 2 2-1q2 1 2 3h2l1 3h1l2 2h1l1 2 2-1 1 1v2l2-1q2 0 2 3 1 4-1 11l-6 10v-1l5-9 2-11q0-2-2-2l-2 1-1-3-2 1-1-3-1 1h-1v-1l-1-1h-1l-1-3h-2l-2-3-2 1v-1l-2-1-1 1h-1l1-1v-1l-1-2q-7 0-10 9zm30-2c0 1 1 14-5 20 6-6 5-19 5-20m-7 16c3-6 4-19 4-19s-1 13-4 18m-4-2c0-8 5-17 5-17l-1-1s-4 10-5 18m-1-2q3-16 5-17v-1c0 1-5 8-5 18m-4-3c1-11 6-17 6-17v-1s-6 7-6 18m-4-2c0-11 5-17 5-17v-1s-6 7-6 18m-5-4c1-12 8-15 8-15v-1s-7 4-9 15"/><path fill="#00a651" d="M779 620c0-1-1-16 6-22l2 2c0-1 3-3 4 2q1-3 2 0 3-1 4 3s3-2 3 2c0 0 3-2 3 2 0 0 3-2 3 3 0-1 4-2 3 3 0 0 3-2 2 2q3-1 3 4-4 9-12 14z"/><path d="M779 620v-9q1-10 6-13 2-1 2 1h2q2 0 2 2l1-1 2 2h3v2h1q2 1 2 3l2-1 1 1v2l1-1 2 1v2h2l1 1v2h1l1 1v2h2l1 2v3q-4 8-12 13v-1q7-4 11-13l1-2-1-1-2-1v-2h-3l1-2-1-1h-3v-2l-1-1h-2 1l-1-2-2 1v-1l-2-2h-2 1l-1-2-1-1h-2l-1-1-1 1q0-3-2-3l-2 1-2-2q-5 4-5 13z"/><path fill="#00a651" d="M776 637c-1-1-3-13 2-18l1 1h3q1-2 3 1 1-2 3 1 1-2 2 1s2-2 2 2q2-3 2 2 3-1 3 3 2 0 2 2 2-2 2 3 1-1 1 3-4 7-10 10z"/><path d="M775 637v-7q0-8 3-11h1l1 1v-1l2 1 1-1 2 1h1q2-1 2 1h1l1 2 1-1 2 2h1v1l1 1 1 1 1 1v1l1 1 1 1v1h1l1 1v1l1 1v3l-4 6-6 4v-1q3 0 5-3l5-6v-3h-1l-1 1v-1l1-2h-3l1-1v-1l-1-1h-1v-2l-1-1h-2v-3l-2 1-1-2h-1l-1-1h-1q0-2-2-2l-1 1q0-2-2-1h-3l-1 1v-1h-1q-3 2-3 9z"/><path fill="#00a651" d="M779 648c0-1-6-8-3-11l2 2s1-3 2 0q1-1 2 1l2 2q1-1 2 1l2 1 2 2q2 0 2 3-3 2-10 0z"/><path d="m779 648-3-5-1-3 1-3 2 2v-1h1l1 1h1l1 1 2 2h2v1h1l1 1h1l1 2 1 1 1 1v2h-11zm0-1 3 1h10v-1l-1-1h-1v-1l-1-1h-1v-1l-1-1-1 1v-2h-2l-2-2-1-1h-1v1-1l-1-1-1 1v1l-1-1-1-2-1 3 1 3zm22-15c4-3 10-15 10-16 0 0-7 13-10 15m-2-1 10-16zm-2-1 9-18-1-1c0 1-5 14-8 18m-2-2c1-7 8-18 8-18-1 0-7 11-8 17m-13-5c0-9 5-19 5-19v-1c0 1-6 11-5 21m3-1c-1-7 5-18 5-18v-1c-1 1-6 11-6 19m7 2c0-8 6-17 6-17-1 0-6 9-6 17m-13 17c-2-8 2-17 2-18h-1s-3 10-1 19m2-1c-2-8 1-19 1-19-1 0-3 11-2 19m11 7c6-4 10-12 10-12h-1s-4 7-10 11m0-1c5-4 10-12 10-12l-1-1c0 1-4 9-9 12m-1 1c4-4 9-14 9-14s-5 10-9 14m-6-5c0-8 3-18 3-18s-4 10-3 18m3 2c4-6 5-18 5-19 0 0-2 13-5 18m2 3c6-6 7-16 8-16h-1s-2 10-7 16m1-23v2l-4 18v1l4-19c0-9 5-19 6-20h-1s-5 9-5 18m4 4c0 1-1 13-6 19 5-6 7-18 7-18l7-18zm-15 15 2 9h1zm3 0v9zm0 9 2-8zm0 0 3-7q0 2-4 6m2 2q5-3 5-6 0 3-5 6m0 0 7-4v-1q0 3-7 5m1 0q3 2 9-3l-1-1c-2 4-7 3-7 3M645 343c67 6 133 8 202-4v232q0 49-50 96a227 227 0 0 1-50 35h-2l-15-9q-19-10-35-25-50-44-50-93zm3 5v227q1 46 49 90a225 225 0 0 0 49 32l15-8q18-11 34-26 48-45 49-91V344q-96 15-196 4"/></svg>