<svg xmlns="http://www.w3.org/2000/svg" viewBox="0 0 1000 1000"><path fill="#002868" d="M8 195.3c170.8-85.3 341-54.5 513.3-28C676.5 191 833.4 211.8 992 132.7v672c-170.8 85.3-341 54.5-513.3 28C323.5 809 166.6 788.1 8 867.2z"/><path fill="#fff" d="M8 195.3a522 522 0 0 1 55-23.7c63 20.3 126 54.4 191 98.2a1945 1945 0 0 1 191-114.2l55 8.4 11 31.8c-66.7 35.2-133.3 69.9-202 113C375.6 358 442.3 414 511 471.5l-22 56.7C411.5 463.5 334 398.9 254 345A1230 1230 0 0 0 19 556L8 531.4v-37.6C71 419.2 134 360.3 199 310c-63-37.3-126-65.2-191-77.2z"/><path fill="#ce1126" d="M254 307.3v25A1232 1232 0 0 0 15.3 547.8L8 531.2a1240 1240 0 0 1 246-223.9m0 0q18 0 36.7.6c71.5 51.4 143 111.5 216.6 173.2L500 500c-81.1-68-162.3-136.2-246-192.7M8 195.3c81.2 14.9 162.3 55.7 246 112a716 716 0 0 0-36.7 1.3c-69-42.9-138.1-75.2-209.3-88.3zm246 112v-25c69.1-47.8 138.2-86 209.3-124L500 164c-81.2 42.9-162.4 85.5-246 143.3"/><path fill="#fff" d="M295 140v112c94.7 4 189.4 22.8 287 36.2v112c-94.7-13-189.4-32.1-287-36.2v224a755 755 0 0 0-82 .9v-224A530 530 0 0 0 8 419.3v-112a531 531 0 0 1 205-54.4v-112q40.3-2.6 82-.9"/><path fill="#ce1126" d="M278.6 139.5V274c100.1 2.3 200.2 22.6 303.4 36.7v67.2c-100-13.7-200.3-34.3-303.4-36.7v246.4q-24.2-.5-49.2.5V341.6A535 535 0 0 0 8 396.9v-67.2c73.1-36.5 146-52 221.4-55.3V140q24.2-1 49.2-.5"/><path fill="#68bfe5" d="M8 531.3C170.7 450 332.5 474 500 500V164c161.8 25 325.4 51.9 492-31.2v672c-170.8 85.2-341 54.4-513.3 28-155.2-24-312.1-44.6-470.7 34.5z"/><path fill="#fff" d="M646.6 345v229.8c.6 77.7 99.2 124.5 99.4 124.5 0 0 98.8-49 99.4-128V341.4c-65.6 11-131.2 10-198.8 3.6"/><path fill="#d21034" d="M732.2 430.6V534q-42.1-.5-85.6-4.8v37.6a983 983 0 0 0 85.6 4.8v120.5l13.8 7.2 13.8-7.4V571.4c28.2-.8 56.5-3.2 85.6-8.1v-37.6a624 624 0 0 1-85.6 8V430.4q-13.6.4-27.6.3"/><path fill="#d21034" d="M646.6 345c65.6 6.4 131.2 7.8 198.8-3.5v88.7c-65.6 11-131.2 10-198.8 3.6z"/><path fill="#fff" d="M673.7 401.4c-.3 7-4.8 11.7-11.2 11.5-6.3-.9-10.8-6.3-11.1-13.3.3-7 4.8-11.5 11.2-11.3 6.3.8 10.9 6.1 11.1 13.1"/><path d="M674 401.5q.1 5.2-3.4 8.8a10 10 0 0 1-8 3c-3.3-.4-5.7-1.7-8.2-4.4a15 15 0 0 1-3.4-9.3c.2-3.7 1.2-6.3 3.4-8.8 2.5-2.2 4.8-3.1 8.1-3 3.3.4 5.7 1.7 8.1 4.4s3.3 5.6 3.4 9.3m-.6 0c-.1-3.4-1-6-3.2-8.7a12 12 0 0 0-7.7-4q-4.5-.4-7.6 2.8c-2.1 2.3-3 4.6-3.2 8q0 4.9 3.2 8.6 3.1 3.8 7.6 4.2c3.2.1 5.4-.7 7.7-2.9a12 12 0 0 0 3.2-8"/><path fill="#fff" d="M672.5 395c-.3 4-4.2 6.3-10 6-5.7-.6-9.6-3.7-9.9-7.7.4-3.9 4.2-6.2 10-6 5.7.7 9.6 3.7 9.9 7.7"/><path d="M672.8 395q0 3.1-3 5a12 12 0 0 1-7.3 1.5 14 14 0 0 1-7.1-2.7q-3-2.4-3.1-5.5 0-3.1 3-5 3.1-1.7 7.3-1.4 4 .4 7.1 2.6 3 2.4 3.1 5.5m-.7 0q0-2.6-2.7-4.7c-2-1.4-4-2.2-6.9-2.5a12 12 0 0 0-6.8 1.4q-2.7 1.6-2.8 4.2.1 2.5 2.8 4.7 2.8 2 6.8 2.5 4.1.3 7-1.4 2.6-1.6 2.6-4.2"/><path fill="#fff" d="M672.5 408.7c-.3 4-4.2 6.3-10 6-5.7-.6-9.6-3.7-9.9-7.7.4-3.9 4.2-6.2 10-6 5.7.8 9.6 3.7 9.9 7.7"/><path d="M672.8 408.7q0 3.1-3 5a12 12 0 0 1-7.3 1.5 14 14 0 0 1-7.1-2.6q-3-2.5-3.1-5.6 0-3.1 3-5 3.1-1.7 7.3-1.4 4 .4 7.1 2.6 3 2.4 3.1 5.5m-.7 0q0-2.6-2.7-4.7a14 14 0 0 0-13.7-1.1q-2.7 1.6-2.8 4.2.1 2.5 2.8 4.7 2.8 2 6.8 2.5 4.1.3 7-1.4 2.6-1.6 2.6-4.2"/><path fill="#fff" d="M672.5 401.4c-.3 3.9-4.2 6.3-10 6-5.7-.7-9.6-3.7-9.9-7.7.4-4 4.2-6.2 10-6 5.7.7 9.6 3.7 9.9 7.6"/><path d="M672.8 401.4q0 3.1-3 5a12 12 0 0 1-7.3 1.5 14 14 0 0 1-7.1-2.7q-3-2.4-3.1-5.5 0-3.1 3-5 3.1-1.7 7.3-1.4 4 .3 7.1 2.6t3.1 5.5m-.7 0q0-2.7-2.7-4.7c-2-1.5-4-2.2-6.9-2.5a12 12 0 0 0-6.8 1.3q-2.7 1.6-2.8 4.2.1 2.6 2.8 4.7 2.8 2.2 6.8 2.6 4.1.2 7-1.4 2.6-1.8 2.6-4.3"/><path fill="#ffd100" d="m840.5 413.4-1.7-5.8c-.2-.2-4-1.8-4.8-5-.9-8.7-3-11.3-6.4-12.2a7 7 0 0 0-5.6 1.5c-1.4 2-5.8 2.7-9 3.2-2.7.3-2.8-1.2-2.8-1.4-2.2 0-3-1.7-3-1.8-1.6-3.8-2.6-5-3.3-5.6 3.8-.4 6.3-2.7 10.5-9.2 4.9-6.8 7.5-5 7.8-4.9-2 6.3.5 5.5.7 5.4 5.7-5.5 1-14-1-14-1.9.5-2.3-.8-2.3-.9-.2 2-2 2.8-2 2.9 1.2-12.3-3.5-14.6-3.7-14.7-.8 1.2-1.3 3.3-1.3 3.3-1.7 7.4-6 6.9-11.7 3.8-5.7-2.6-19.5 5-24.3 7.9-4.8 2.8-12.4 6.6-20.2 1.4-7.5-5.5-9.1-4.6-12.1-3.4-3.3 1.2-7.8 2.5-10 1.4a10 10 0 0 0-4.2-1.5c.4-.6-.2-2-.3-2-2-4.5.2-6.6.3-6.8-.2.1-3.8 1.5-2.5 11.4l.8 1.4c0 .2.6 3 1.8 4v.7s.9-.6 1.3 1.4c.6 1.9 1.8.2 2.6-1.5 0 .4-1 8.3 7 11 0 0-.8-1.3-.6-2.2s-.8-1.7-.9-3.1-1.8-2-.3-3.1c1.7-1.3 2.4-3 6-.3 3.9 2.7 6.3 2.2 6.5 2.2-.2-.5-2-5.5-1-6.1 1.2.4 6.7 8.4 9.4 8.5 2.8-.8 7.6-4.4 10.4-3.4 0-.2.2-1.7 10.2-4.7 10.1-3.1 21.7-10.4 26.7-5.3 0 .3.6 4.3 2.4 5.7 0 .4-.2 9.3-12.6 5.5l-4.4-1.2c-.1-.3-.6-2.5-24 6.6 0 0-1.4.8-2.3 1.7-1 .8-2-.2-6.8 2-5 2.6-21.6 10.1-32.4 7.5-2.5-.9-4.4-.6-4.7-1 0-.6 1.2.1 1.3.2-.8-1.3-1.1-1.4-1.1-1.4-8.8-2-7.5-6.7-7.4-7l.5 1.7c1.1-2.9-.5-8.5-.6-8.8l-.2-.5.8-.7c4.5-4.7 9-5.6 9.2-5.6-3.5-4.7-8.7-2.7-9.1-2.5 0-6-1.7-13-1.7-13-6.2 1.2-9.4 7.2-9.6 7.5-.7-6.3-5.7-9.8-6-10a28 28 0 0 1 .8 12l.3.2h-.6l-.1 1.8-.2-.1c-.1 0-2 1-4.7 8.5 0 0-.2 1.8-1.2 3.4v-.6c-.2.3-2.4 4.4-9.1-.6a46 46 0 0 0-11.8-7.5c-3.2.2-4.8 1.6-4.8 3-.5-.1-6.5-1.2-9.4 3.9-.4.2-4.7 1.9-.8 8.4 0 0 .7 2.5 2 4 0-.2-.4-5 .7-3.6l.7 1c.2.7.6 2.7 1.5 4l.7-.3c0-1.3.3-3 .5-3.7h.2v.2l1.2 2.7 1.4-1c.7 0 1.5.9 1.5 1l1.7-1.7v-.1c1.6 0 2-3.4 2-3.7q2.1.7 3.9-.7c1.2 3.6 6.1 7.5 6.4 7.7h.2l-.7.7a12 12 0 0 0 7.4 2.3c-1.9 1.4-1.8 5.7-1.8 6a3 3 0 0 0-1.3 2.3c4.2 2.1 6.5.8 6.7.7.2 1.8-.1 2-.1 2a68 68 0 0 0-2.2 9l-.1.3c-.2 0-6.6 3-10 7.2 0 0-.2-1.2-1-1.4s-3.6-3-4.9-3.8c-1.3-.5-2.9.1-3.5-.6-.3-.8-.5-5.9-1-7l-.9-3.3c-.8 1.6-2.8 1.1-3 1q0 .3-1 1l-1-.3q-.3.4-.6 1.9l-.3.3v-1c-.6.4-1.4-.3-1.8-.4q-.3.1-.6 1.5l-2.3.1c-.2.4-.1 4.1-.1 4.3a4 4 0 0 0-1.4 5c2.2 10.2 13.6 7.1 15.2 8.2 1 1.4 3 1.8 4.3 2 1 .3 2.6 3.6 4.2 4.4 1.5.1 0-2.6 7.5-5 7.5-2.3 10-6 10-6.1 2.4-.9 3-4.1 3.2-6l.2 2.5c.1 3.6-1.4 4.7-1.5 4.7l6.6-2.3c2.5-1.2 2.2-3.7 2.2-4 2.8 9.8 6.7 10.5 7 10.6.9-3.7.8-4.7.8-4.8h2a6 6 0 0 0-2-4.4l3.1 2.7 1.3-.3c.1 1.6 1.6 2.9 1.7 3l.2-2c1.7 2.5 4 1.8 4.2 1.7l-.3-1.4c6.3 4.5 14.6-1 15-1.2 2.5.5 2.8-1.1 2.8-1.3 2.9.2 3.4-2 3.5-2.2 6.7-1.3 11.1-7.2 11.3-7.4 3.2-.7 3.3-3.4 3.4-3.6.2 0 3 .7 6.4-4.7 7.8-14.3 17.9-8 18.2-7.9l-6.3 1c-16.3 1.4-10 15.1-9.7 15.7l1-.2c2 .8 6.6 5.6 5 10.4v.2c-3.9 6.3-9.4 1-11.5-4.5-2.2-5.2-5.1-4-5.4-4-.4.2-8.8 2.2-5.5 12.5h.1c.2 2.6 1.2 5 4.6 8 2.3 3.5 7.7 3.7 12.5 2.2 2.1-.9 13.2-7.9 13.2-7.9 1.1-3.2 3.4-2.9 6-7.7 2-5-3-6.2-4.8-8.8-1.2-2.5.3-2.2.4-2.1 5.6 2.7 5.8-8.6 5.8-9.2 1 7.4 5 8.8 5.3 9 2.7-4.7 1-12 .8-12.3 7.2 16.3 11 13.4 11.2 13.3-3.5-3.2-2-7-1.8-7.2 4 17.4 16.9.7 17.2.3-.6 2.7 0 4 1.3 5.6s2.5 2.1 2 5.3c-1.3 3.1-6.7 3.4-7.1 3.4-.5 0-5.7.3-5.8 7.4.8 1.7 4.2 1.8 6.1 1.2 0 0-.6.2 1.7.4q1.2 0 2.7-.3c2.7-.5 5.5-1.5 5.5-1.5 3.6-1.7 3.1-3 3-3.2 5.5-2.6 6.1-7 6.2-7.4"/><path d="M821.2 426.2q-1.4.3-3.4.2-2.5-.4-3-2c0-3.5.8-5.5 3-7.2q1.7-1 3.3-1c4.2-.3 6-1.1 6.6-3q.5-2-1.1-3.7l-.8-.8a7 7 0 0 1-1.6-4.5 26 26 0 0 1-6.5 5.4q-3.6 2-6.1.8l-1.2-.9-.6.5q-1.4 1-3.5-.5a26 26 0 0 1-6.8-9.5v.5q.3 5.4-1.6 8.3l-.2.3-.3-.1q-1.3-.6-2.6-1.9-1.7-1.7-2.4-4.2l-.6 2.6q-.8 2.7-2 3.7-1.5 1.3-3.6 0h-.2q0 .4.4 1.1a9 9 0 0 0 2.2 2q2 1.6 2.8 2.8 1.1 2-.1 4.7-1.4 2.6-3.9 4.8a6 6 0 0 0-2 2.8l-.2.3-.2.1q-11 7.1-13.3 8-3.9 1.2-7.4.8-4-.6-5.6-3.2a12 12 0 0 1-4.6-7.9l-.2-.3c-1.5-4.3-1.2-7.3.8-10.1a16 16 0 0 1-6.9 3q-.8 2.4-3.4 2.2-.7 2-3.1 1.3-2.3 1.5-5.3 2.4c-3.8 1-6.5.9-9-.6v.6l-.4.2q-2.4.8-4-1l-.2 1.7-.6-.6q-1.5-1.3-1.8-2.7l-1 .2-.7-.6q.3.7.2 1.6v.6h-2q-.2 1.5-.9 4.4v.5h-.5a6 6 0 0 1-2.8-1.8 18 18 0 0 1-3.9-7q-.6 1.5-2.3 2.1l-6.5 2.4-.4-1.3q1.2-.7 1.2-3-.9 2.5-2.6 3c-2 2.8-5 4.7-10.2 6.2q-4.6 1.3-6.2 4-.7 1.1-1.5 1-1-.4-2.7-2.8-1.1-1.6-1.5-1.7-3.3-.3-4.6-2.1l-2.5-.2q-4.9 0-7.4-1a9 9 0 0 1-5.4-7.2l-.3-2.1q0-2.3 1.7-3.6c-.2-2.9 0-4.1.4-4.5h.2q1 0 1.9-.2.4-1.4 1-1.5l.6.3q.8.4.9.3l.5-.6q.3-.7.6-.8h.2l.8.3.9-.8.1-.1h.2q2 .5 2.4-.7l.5-1.4 1.3 4.8q.5 1 .8 4.6 0 2 .2 2.2l1.1.1q1.5 0 2.2.2l2.4 2q2 1.8 2.2 1.8.9.1 1.3 1 3.2-4 9.3-6.6.8-4.4 2.3-9.2l.1-.2v-.5c-1.9.7-3.7.4-6.3-1l-.4-.3v-.5q.3-1.7 1.3-2.5 0-3.2.8-5-4-.2-6.2-2.4l-.6-.6.5-.5q-4.7-3.6-5.8-6.9-1.7 1-3.2.6l-.4 1.5q-.6 2.2-1.9 2.1l-1.8 2-.3-.5q-.6-.6-1-.7l-1.8 1.1-1-2.2-.3 2.3v.4l-1.2.5-.2-.3q-1.1-1.4-1.6-4.1l-.5-.6v4.4l-.9-1q-1.3-1.5-2-4.2c-2-3-2.3-5-1.3-7.3a5 5 0 0 1 2.2-2q1.6-3.3 5.8-4 1.8-.3 3.4 0 .3-1.1 1.4-1.9 1.6-1 3.9-1.1 3.1 0 12 7.7c2.7 2.1 4.6 2.7 6.6 2.2q1.4-.6 2-1.6l.7-1.2v.3l.4-1.5v-.1c1.8-5.3 3.3-8 4.8-9l.1-1.7h.4q1.1-7.7-.7-11l.5-1q1.5.9 3 2.7 2.5 3 3.1 6.1l2-2.3q3.3-3.7 7.2-4.2h.4l.2.5q1.5 6.5 1.7 12.3 1.3-.4 3-.4c2.8.1 4.5 1 6 3.3l.5 1-.8.1c-3.3.7-6 2.4-9 5.5l-.5.4c1.4 4.6 1.6 7.4.6 9.5l-.2.3v.2c1.1 1.9 3 3 6.7 3.7q.5.2 1.4 1.6 1.6.1 2.8.5l.3.1a35 35 0 0 0 18.3-1.6q7.4-2.4 14-5.8 2.9-1.4 5.5-1.7.9 0 1-.2a10 10 0 0 1 2.5-1.8c15.1-6 22.8-8.2 24.4-6.7l4.3 1.2c5.2 1.7 8.2 1.4 10.5-1q1.3-1.4 1.5-3.4-1.8-1.4-2.4-5.7c-1.6-1.5-3.6-1.9-7.1-1.2q-3.2.7-10.8 3.7-5.6 2.3-8.3 3-6 2-8.6 3.4l-1 .8h-.1l-.1.8-.6-.3c-1.1-.4-3 0-6.5 1.8q-2.7 1.5-3.7 1.7c-1.4 0-3.4-1.6-6.8-5.8l-2.6-2.8.1.3.4 1.9 1 3 .2.8-.6.2c-2.2.3-4.1-.3-6.8-2.4-1.9-1.4-3.1-1.5-4.6-.4l-1.3 1 .2.4q.7 1 .7 2 0 .3.5 1.2.6 1.1.4 2-.2.6.5 1.6l-.5 1.1a10 10 0 0 1-6.9-6.8q-.5-1.5-.5-2.9l-.7.7q-.6.4-1 .3-.7-.2-.9-1.4 0-.7-.4-.9h-.3l-.8.5.1-1.4q-1-1.1-1.7-4l-.8-1.5v-.2a17 17 0 0 1 .7-9.9q1-1.8 2.2-2.2l.4 1.2q-.5.4-.8 1.5-.6 1.9.6 4.2l.4 1 .2.9q2 .3 3.7 1.5c1.4.8 4.3.5 9.6-1.4l.4-.2q2.6-.9 4.5-.6 2.7.6 7.7 4.2c5.3 3.7 11.4 3.3 19.7-1.4 12.6-7.5 20.4-10 24.7-8q4.5 2.6 7.1 2 3-.6 4-5.2a11 11 0 0 1 1.3-3.7l.3-.3.3.1a7 7 0 0 1 2.6 3q2.1 4.3 1.5 11.3.8-.7.9-1.7l1-.4q.3 1 1.7.6 1-.4 2.2 1.3 1.1 1.6 1.8 4c1 4.4.2 7.3-2.7 9.9h-.2q-.8.4-1.5-.4-1-1.3.1-5.2l-1.5.1q-2.5.8-5.2 4.8c-3.6 5.4-6.6 8.2-9.6 9.3q1 1.4 2.3 4.7.8 1.8 2.7 1.6h.5v.6l.2.4q.6.6 2.2.3l.9-.1c4.7-.8 6.9-1.7 7.6-2.7v-.1l.1-.1c1.8-1.7 3.5-2.1 6-1.7 4 1.1 6 5 6.8 12.7.4 2 1.6 3.3 4.5 4.5h.2l1.6 6h.2v.6q-.3 1.4-1.1 3.2a11 11 0 0 1-5 4.6l-.3.9q-.8 1.4-3.2 2.5a37 37 0 0 1-8.4 1.8q-1.5-.1-1.8-.4m18.8-12.5-1.6-5.5q-4.3-2-4.9-5.4c-.7-7.2-2.6-10.6-6-11.6q-3.1-.7-5.2 1.3c-1 1.4-3.4 2.4-8.3 3.2l-.9.2q-2 .3-2.8-.7l-.5-.7q-2.2 0-3.1-2.1-1.8-4.5-3-5.3l.2-1.3c3.2-.5 6.3-3.2 10.2-9q2.9-4.5 5.8-5.3 1.5-.4 2.5.2l.4.3-.2.6q-1.2 3.4-.6 4.3.3.2.7.2c2.3-2.2 3-4.5 2.1-8.2q-.6-2-1.5-3.5-1-1.2-1.3-1-1.4.5-2.2-.2-.5 1.4-2.1 2.1l-.8.3.2-1c.5-5 .1-8.5-1.2-11.4q-.9-1.8-2-2.4-.5 1-.8 2.7c-.9 3.8-2.3 5.6-4.8 6.3q-2.9.5-7.6-2c-4-2-11.6.5-24 7.8-8.5 5-14.9 5.3-20.5 1.4a23 23 0 0 0-7.4-4.1 8 8 0 0 0-4 .6l-.4.2c-5.6 2-8.7 2.3-10.4 1.3a8 8 0 0 0-3.9-1.4l-.2-1.3-.1.1v-.4l-.4-.8a8 8 0 0 1-1-4.2q-1.2 2.9-.4 8.2l.8 1.5q.6 2.8 1.6 3.7l.3.2v.3q1 .3 1.3 2l.1.3.3-.2q.8-.6 1.3-1.8l.9.4q-.2 2 .4 4.4c1 2.8 2.4 4.4 5 5.5V381l-.2-.7q-.7-1.2-.7-2.2.1-.2-.4-.8l-.6-1.3q0-.8 1-1.5l.9-.7q2.5-2.1 5.6.4 3 2.4 5.5 2.2l-1.1-4.5v-1q.3-.7.8-.7.7 0 3.2 3.1c3.3 4 5 5.4 6.1 5.5l3.5-1.6q4.9-2.5 6.8-2c1.2-1.4 4.3-2.8 10.3-4.6q2.6-.7 8.1-3 7.8-3 11-3.7c4-.7 6.2-.3 8 1.6l.1.2v.2c.5 3 1.1 4.4 2.2 5.2l.3.1v.5a8 8 0 0 1-1.9 4.8c-2.5 2.7-5.8 3.2-11.3 1.4l-4.7-1.4-.1-.3-.1.1q-.8-.1-2.7.1-6.1 1.1-20.6 6.9-1.3.7-2.2 1.5-.4.5-1.6.6-2.5.1-5.2 1.6a86 86 0 0 1-14 5.8 36 36 0 0 1-18.4 1.7v.1l-.4-.1q-1.3-.6-3.3-.7-1.5-.1-1.6-.9v-.7c-3.7-.8-5.7-2.1-6.9-4.3a5 5 0 0 1-.3-3.6l.4-1.6.5 1.8q.4-2.2-.9-6.2h-.2v-.7l-.1-.5-.1-.4 1-1a18 18 0 0 1 8.5-5.5 6 6 0 0 0-4.6-2q-2 0-3.4.6l-.6.3v-1q0-5.6-1.5-12.2a12 12 0 0 0-6.5 3.8q-1.5 1.8-2.4 3.4l-.9-.4c-.2-2.5-1-4.5-2.9-6.8l-1.3-1.4q1 3.9 0 10.4h-.1l-.2.7-.2 2.1-.6-.4c-1.3 1-2.6 3.3-4.2 8q-.3 2-1.3 3.6l-.8 1.4v-1l-1.6 1c-2.3.6-4.4 0-7.4-2.4q-8.5-7.4-11.5-7.5-2 0-3.4 1-1 .8-1 1.3l.2.9-.7-.2q-1.6-.3-3.7 0-3.7.7-5.2 3.7v.2h-.2a4 4 0 0 0-1.9 1.7c-.7 1.6-.4 3.2 1.3 5.6v.3q.4 1.5 1 2.6l.3-2.5q.3-.6.7-.5t.7.6l.6.8.1.1v.3q.5 2.2 1.2 3.4h.1l.5-3.5.2-.4h.4l.2.1 1 .2-.5.7.7 1.7 1.1-.7h.1q.7 0 1.6.7l1-1-.4-.9 1.1.3q.6.3 1-1.3.4-.9.5-1.8v-.8l.6.3q1.7.6 3.5-.7l.6-.4.2.8c.5 2.3 2.3 4.4 6 7.2l.4 1.3h-.2a10 10 0 0 0 6.5 1.7l.3 1.3c-1.2.7-1.6 2.2-1.5 5.5v.4l-.3.2q-.7.4-.9 1.2c2.5 1.3 4.1 1.4 5.9.5l.6-.4v1q.3 1.8-.1 2.4-1.4 4-2.1 8l.2.2-.2.7v.1l-.2.2v.3h-.3q-6.6 2.9-9.7 7l-.6 1-.2-1.2q-.2-.9-.7-1-.6 0-2.7-2l-2.2-1.8q-.5-.2-1.8-.2-1.5.2-2-.6l-.4-3a14 14 0 0 0-.6-3.9l.1-.4-.2.1-.6-2.2q-.9.9-2.6.5l-.9.7v.2h-.2l-1-.3-.3 1.4v.2l-.1.1-.3.3-.8.8V409l-1-.3-.2-.1-.3 1v.3h-.4q-1 .3-2 .2v3.6l.1.4-.3.2q-1.4 1-1.5 2.7 0 .8.3 1.5v.2c1 4.7 4.5 6.9 11.9 7.2q2.8 0 3.2.6 1.1 1.4 4 1.7.7 0 2.1 2.1 1.5 2 2.1 2.3.3.1.6-.4c1.3-2.2 3.3-3.5 6.8-4.6q7.3-2 9.7-5.9l.1-.1h.2c1.6-.6 2.4-2 2.8-5.5l1 .1.2 2.4q0 2.2-.3 3.5l4.7-1.7q2.1-.7 2-3.2l.9-.3q1.5 5.9 4.2 8.6 1 1 2 1.4l.6-3.9v-.7l2-.1a6 6 0 0 0-1.8-3.2l.5-1.1 3 2.6 1.7-.4v.8q0 .8.8 1.8l.3-2.5.7 1.3q1 2 3.2 1.6l-.2-.7-.3-1.7 1 1c2.6 1.8 5.3 2.2 9.4 1q2.9-.9 5.2-2.3l.1-.2.2.1q2 .6 2.2-.7l.1-.6h.5q2.4.4 3-1.7v-.4h.3c4.5-.8 7.8-3 11-7.3l.2-.2h.1q3-.3 3-2.9v-.8l.5.1c2.2.3 3.8-.9 6-4.4 3.3-6.4 7-9.3 12.3-9.7q3.7 0 6.6 1.6l-.2 1.3-6.4 1c-6.8.4-9.9 2.6-10.5 7.4q-.3 3.4 1 6.9l.9-.2q1.9.5 4.2 4c1.7 2.9 2 5 1.2 7.4l-.1.2v.1c-2 3.3-3.9 4-7 2.4a13 13 0 0 1-5.3-7q-1.1-3-3-3.6a3 3 0 0 0-1.9 0 9 9 0 0 0-4 2.3c-2.2 2.4-2.5 4.9-1.3 8.8h.3v.6c.2 2.8 1.5 5 4.3 7.5h.1v.2c1 1.5 2.4 2.3 5 2.7q3.5.4 7.1-.8 2-.7 13-7.7a8 8 0 0 1 2.4-3.3q2.3-2 3.6-4.3.9-1.8.1-3.2-.6-.9-2.5-2.4-1.9-1.4-2.5-2.4l-.6-1.7q0-.9.4-1.3.5-.3 1-.2h.2q1.7 1.2 2.7.2.9-.8 1.6-3 .8-2.7.8-5.7l1-.1c.3 3 1.2 5 2.7 6.8q1 1 2 1.5 1.4-2.4 1.1-6.9 0-2.4-.6-4.3l.9-.7c3 6.9 5.5 10.8 8 12.6l1.4.7a7 7 0 0 1-1.5-4.2q0-1.6.6-3l.6-1.4.3 1.5c.8 4 2 6.1 3.8 7.2 1.6.7 3.1.5 5.4-.7q3.8-2.1 7.2-6.4l.8.6q-.6 2.8 1.1 5l.7.8c1.4 1.6 1.8 3 1.5 5.1-.8 2.6-3 3.7-7.6 4q-1.5 0-3 1-2.5 1.6-2.3 5.6.2.6 2.2 1 2 .1 3.3-.4l.2 1.3h.1q.3-.4.2-.7t-.2-.4l1.6.2 2.6-.2a36 36 0 0 0 5.4-1.5q2-.9 2.6-1.9l.1-.3-.2-.8.6-.2q3.2-1.4 4.8-4.3.7-1.2.9-2.3m-83-.6q1.4-.9 2.8-1.2 1-.4 2.2 0c1.8.6 2.8 1.8 3.8 4.3q1.4 4.4 4.8 6.4c2.6 1.3 4.1.8 5.7-2h.1v-.1c.7-1.8.4-3.5-1-6q-2.1-2.9-3.6-3.4l-1.2.2-.2-.4a17 17 0 0 1-1.3-9l-.1.2c-2.3 3.8-4.1 5.2-6.4 5.1l-.5 1.3q-1 2-3 2.2zm16.7-17.4q2.7-1.3 6.7-1.5l4-.6q-1.8-.6-4-.6-3.7.2-6.7 2.7m35.8 13q-1.2-1.5-1.9-4.1v.2a5 5 0 0 0 1.9 3.9"/><path d="M657.4 385.7c0-.1.3-.9.9-1q.6 0 1.5 1.4l.3-.3c-.1-.2-1.3-3-1-5.1q.6-1.5 2-1.7v-.5q-1.9.4-2.3 2l-.2 1.2q0 1.5.6 2.9-.6-.5-1-.4-.8.1-1 1zm173.9 38c-4.2 1.3-8.8 2.3-9.7 1-.1-.4-.1-1.4 3-4.6l-.4-.7c-2.6 2.8-3.5 4.3-3.3 5.6 1.5 2.5 8.4.2 10.5-.5zm-72 8.8c-.8-2-.5-4 1.1-7.3l-.5-.5c-1.8 3.6-2.1 6-1.2 8.3z"/><path d="M754.2 424.9q.2 4.6 4.8 8.4l.3-.8c-3-2.5-4.2-4.8-4.4-7.7a13 13 0 0 1 3.2-7.6l-.4-.8c-.3.4-3.3 3.6-3.5 8.5m64.2-3.2c-1 2.3-.7 4.6-.7 4.8l.7-.3s-.2-2.1.6-4a5 5 0 0 1 2.5-2.4l-.1-1a6 6 0 0 0-3 2.9m-147-37.6h-.3v.2c0 .2-.4 2.6-1.2 3.4q-.4.3-.9 0l-1.5-1.4q-.4-.6-1-.5-.2-.2-.5-2v-.3q.3-1.8 2-3.4l-.3-.4a6 6 0 0 0-2 3.7c0 1.7.5 2.7.6 2.8v.2l.2-.1q.3-.2.7.4l1.7 1.5q.7.3 1.2 0c.9-.9 1.2-2.8 1.3-3.5 4.2.8 7-4.6 7.4-5.3l-.3-.3c-.3.6-3 6-7.2 5"/><path d="M661.7 382.3a6 6 0 0 0 .4 3.3q.7 1.5 1.4 1.7.8 0 1.3-.9.5-.5.8-.6l.4.4.3-.3-.7-.6q-.6 0-1 .7-.6.8-1 .8-.6-.2-1.2-1.5t-.3-2.8c.6-2.4 2.5-4 2.6-4l-.2-.5c-.2.1-2.1 1.7-2.8 4.3m-5.5 34.3q.3-1.4 1.6-2.2c0 .1.8 1 1.7 1.1l.6-.3a9 9 0 0 1 1.7 4.6l-.2 1.5.3.2a9 9 0 0 0-1.7-6.8v-.1l-.2.1-.5.3c-.8 0-1.6-1-1.7-1a4 4 0 0 0-2 2.5zm12.8-8c-1 .2-3 .6-4 2.1a3 3 0 0 0 0 2l.3 1c.7 2.8 1.5 5.4 2.3 6.2l.1-.4a23 23 0 0 1-2-5.9l-.4-1.1q-.1-.8.1-1.5c.8-1.3 2.6-1.7 3.6-1.8.5.2.7 2.5.8 4.2h.4c-.2-2.5-.4-4.5-1.2-4.7"/><path d="M662.7 410.8c-.5.6-.4 1.4-.4 1.4 0 .6.4 6.4 2.5 8.4l.1-.5c-1.8-1.8-2.2-7.5-2.2-7.9l.2-1q.6-.6 2 0l.1-.5q-1.7-.6-2.3 0m-1.8.4c-1 1.1-1 3.5-1 3.8h.4c0-.2 0-2.4.8-3.3q.5-.4 1.2 0l.1-.4q-.8-.6-1.5 0m54.2-33s1 3.3 1 6l-.1 1.1-.5-1.5-.3 1c0 .2-.3 1.5.3 3.3 1.2 2.3 3.3 3.6 7.3 4.4l-.3.2-.1.2v.4q.1.7 1.5.7h.6l.4.3v-.2a9 9 0 0 1 2.9 1l-.8.3 1 .5s6.8 4 10 7.1c-1.1 1.2-4.2 4.3-10.5 2.5l-1-.4.6 1.1c.1.1 3.8 6.3 4.9 10.1-1.7 0-6.4-.3-8.6-2.3l-.5.6c0 .1 2.4 5.1 3.1 9.1-.8.1-2.3.2-3.5-1.7l-.4-.8-.3 2.3q-.8-.9-1.1-2.1v-.6l-1.5.4-3-2.7-.6-.4-.4.7.5.4a6 6 0 0 1 2 3.7h-2v.6q.1.3-.7 4.1c-1.2-.4-4.2-2-6.5-10.2l-.6.2v.3c0 .9-.2 2.4-2 3.2l-5.3 2q.5-1.1.6-3v-1l-.2-3c0-1.7.3-2.5 1.2-3.3l-.3-.8c-.4.2-7.5 3.5-11.8 2a83 83 0 0 1 2.2-8.5l-.2.2c.3-.2.5-.6.3-2.4v-.6l-.5.2c-.2.1-2.3 1.3-6-.6q-.1-.7 1-1.5h.2v-1c0-1.5.2-4.1 1.5-5l-.1-1c-.3 0-4 .1-6.8-1.8a8 8 0 0 1 3.7-1.9h.2v-.7q.1-.7-.4-2.3 1.6.8 2.6.5l.1-.2-.1-3.5h-.7l.1 3q-.8 0-2.4-1l-1-.4.6 1.2q.7 1.6.6 2.6c-2.3.6-4 2.2-4.2 2.4l-.3.3.4.4c2.1 1.9 4.9 2.3 6.6 2.4-.9 1.5-1 3.7-1.1 5v.4c-1 .8-1.3 2.2-1.3 2.3v.4l.2.1c3.6 2 5.6 1.3 6.5 1v.9a69 69 0 0 0-2.4 9.2v.4l.2.2c3.5 1.6 8.5-.1 11.3-1.3a7 7 0 0 0-.5 2.7l.2 3.9c-.1 2.6-1.2 3.4-1.3 3.5l.2.8 6.5-2.4c1.6-.5 2-1.6 2.4-2.7 2.9 8.5 6.4 9.3 6.8 9.4h.2l.1-.3c.6-2.6.8-3.8.8-4.5h2v-.7l-.4-2 1.2 1 1-.2a6 6 0 0 0 1.8 2.8l.4.3.2-1.9c1.8 2 3.8 1.5 4 1.4h.3v-.5c-.4-3-1.8-6.6-2.7-8.5a21 21 0 0 0 8.3 1.7h.4v-.5a46 46 0 0 0-4.6-10.2c7 1.4 10.1-2.7 10.5-3.2l.2-.3-.3-.3a50 50 0 0 0-9.5-7l.7-.3-.7-.6a9 9 0 0 0-4.9-1.7c-.8-1.2-1.2-1.4-1.3-1.5-4.6-1-6-2.5-6.8-4v-.2l.1-.4q.7-1.1.6-2.9a29 29 0 0 0-1-6.3z"/><path d="M694.2 375.5c0 .2-.6 3.2-2.6 5-1.8 1-3.6.8-6.3-.8l-.3-.1v.4c0 .2.3 2 1.6 3.6q1.8 1.9 4.8 1.7a20 20 0 0 0-2.9 8.5v.6c.6.4 3.5 1.6 5.4-1 .1 1.4.4 5 1.4 6.7q.8 1.5.8 3l-.1 1.6-.2.7.5-.4c.2-.3 3-3.2 4.3-7.3 0 0 .5-1 1.5-1.5v.7c0 1.8.5 4.3 4 6.5l.2.2v-1.3c0-1.2.2-3.2 1-4.4a4 4 0 0 0 .6-2.3q0-.9-.2-1.4c.8.4 2.2 1.1 3 2.8 1.4 2.4 4.1.8 4.6.6l-.1-.5c-.2 0-1.4.3-2.4-.5q-.6-.5-.7-1.7l-.2-2.6q0-1.7-.5-2.5c.5 0 1.2 0 1.7 1.1a3 3 0 0 0 2.8 2.1l.7.1-.6-.5c-.2-.2-1.6-1.6-1.5-3.8l.2-1.6c.5-2.8 1.2-7.3.7-10.2l-.4.1q.3 1.1.2 2.5c0 2.5-.5 5.5-.8 7.5l-.3 1.6v.6q.2 2 1.1 3-1-.2-1.8-1.6c-.6-1.5-1.7-1.5-2.4-1.4h-.5l.4.4c.6.7.6 1.2.7 2.6l.1 2.7q.2 1.4 1 2 .6.5 1.3.6c-1.2.3-2.3.5-3-.8a6 6 0 0 0-3.6-3.2h-.3l.2.4.2 1.6q0 1-.6 2a10 10 0 0 0-1 4.7v.4c-3-2-3.4-4.2-3.5-5.8l.1-1 .1-.4h-.3c-1.4.5-2 1.8-2 2-1 3.3-3 5.7-3.9 6.6v-1q.1-1.7-.8-3.3c-1-1.9-1.3-6.6-1.3-6.8v-1l-.4.8c-1.7 3-4.8 1.5-5 1.4a22 22 0 0 1 3.1-9l.4-.5h-.6q-3.2.4-5-1.4a7 7 0 0 1-1.3-3c2.7 1.5 4.4 1.6 6.2.6 2.2-1.9 2.8-5 2.8-5.3 2.6-7.3 4.4-8.2 4.5-8.3v-.5c-.3.1-2.2 1-4.8 8.7"/><path d="M699.6 364.8h-.1l-2 3.5.6.1a27 27 0 0 1 16.1 10.8l.3.4 1.9-2.8-.1-.3a20 20 0 0 0-16.7-11.7m.2.9c1.6 0 10.5 1 15.7 11l-1 1.6a28 28 0 0 0-15.8-10.6z"/><path d="M698.1 372.3c-.9 1.7-1.7 4-1.7 5.2v.5h.1q-1.6 2.2-1.7 6 0 2.3.5 4.3l.2.8c1.2 4.1 1.9 7 6.4 5.5 4.3-1.7 4.5-2 5.6-4.4l.3-.7c.6-1.3 1.2-1.5 1.9-1.7.9-.4 1.6-.7 2.4-2.7l.7-1.4c.8-1.5 1.7-3.2 1.9-5.6h-.4a13 13 0 0 1-1.8 5.3l-.7 1.5c-.8 1.8-1.4 2-2.2 2.4-.8.2-1.4.5-2.2 2l-.2.6c-1.1 2.3-1.2 2.6-5.4 4.2-4.2 1.3-4.8-1-5.9-5.1l-.2-.8c-1-4.6-.2-8.4 1.3-10.1l.5-.5h-.7c0-.8.5-3 1.6-5a16 16 0 0 1 3.2-3.4l-.2-.5c-.1.2-2.2 1.8-3.3 3.6"/><path d="M696.1 387.7q1.1 1 3 .1-.1 1.1 1 2.9c1 1.1 2.2 1.4 4.4.8v-.5q-3 .8-4.2-.7a5 5 0 0 1-.8-2.8v-.4l-.2.1q-2 1-3 0c-1.1-1.4-1.1-4-1.1-4.3h-.4c0 .3 0 3.1 1.3 4.7"/><path d="M698.5 383.7q-.7.4-.7 1.2v.3q.5 2 2.1 2.7t2.6-.3q.3-.4-.1-1.8c-1.7-3.3-3.6-2.3-3.9-2.1m1.6 3.7q-1.6-.6-1.9-2.2-.1-.5.4-1c.3-.2 2-1.1 3.5 1.9q.3.8 0 1.2-.5.7-2 .1m-.3 3c-.2 2.9-.1 2.9 0 3h.2l.1-.2 1.2-2-1.5-1.1zm.3.5.6.4-.7 1.2zm-3.4-2.9v2.7l1.5-2.6-1.5-.4zm.4.3.4.1-.5.8z"/><path d="M695.6 387.1s1.2 3.3 1.4 4.5q.3 1.3 1.7 2.1 1.3.7 2.2 0l1-1.3q.5-.6.8-.5v-.5q-.5 0-1 .6l-1 1.2q-1.2.6-1.9 0a3 3 0 0 1-1.4-1.7l-1.5-4.6zm1.6-9.5a6 6 0 0 0-2 3l.4.2c0-.1.6-2 1.7-2.8q.9-.4 2 .2v-.5q-1.1-.7-2.1-.1m8.9 6.1c.3.4 2.3 2.7 1.2 6l.3.3c1.3-3.8-1-6.4-1.3-6.7zm-7.6.2c0 .2-.3 1.7 1.6 2.7 0 0-1.7-.1-2-.8 0-.7 0-2 .4-1.9m6.1 2.6q0 .3-.2.3t-.2-.3.2-.3.2.3m.3 1.2q0 .3-.2.3t-.3-.3.2-.3.3.3m-1.3-.6-.2.3q-.3 0-.2-.3t.2-.3.2.3m.4 1.8q0 .3-.2.3t-.3-.3.2-.3.3.3m-5.9-8.4q0 .2-.2.2t-.2-.3l.2-.3q.3 0 .2.3m.3 1.3q0 .3-.2.3t-.3-.3.2-.3.3.3m-1.3-.7q0 .3-.2.3t-.2-.3.2-.3.2.3m.4 1.8q0 .3-.2.3t-.3-.3.3-.3zm3.9-10.5c.2.2 2.5 2.3 0 7 .1 0 1.3-1.3 1.6-3.7 0-2.5-.8-4.2-1.6-3.3m11 7c-1 .5-2.1-.5-2.9-1.8-.8-1.2-1.9-1.5-3 .5-.9 2.1-2 2.8-2 2.8s1.2-1 2.5-2.7c1.3-1.6 1.9-.4 3.1.7 1.3.9 1.4 1 2.3.7z"/><path d="M712.2 379.6c-.4.4-1 .6-1.8-.2s-1.3-1.8-2.3-1.3-2.7 2.3-2.7 2.3c.2-.1 2.7-2.2 3.4-2 .7.8 1.8 2 2.6 1.8z"/><path d="M710 381.2c-1-.8-1.7.8-2.6.7-.7-.4-1.3-2-1.4-2 .1.1.7 1.7 1.8 1.5 1-.5 1.6-1.2 2.3-.6s0 .4-.1.4"/><path d="M708.6 381.4c-1.8 0-2-2-2-2.1 0 .1.5 1.8 2.2 1.7z"/><path d="M708.5 379.8q.3 1-.4 1t-.8-1c.2-.6 1-.4 1.2 0m-6.4-3.6q0 .7-.6.7-.4 0-.4-.7 0-.8.4-.8.6 0 .6.8"/><path d="M700.1 373.4c.2 0 2.8 0 1.6 5.3 0-.1 1-2.4.4-4.5-.9-1.8-1.8-1.5-1.9-1.4q-.2.1 0 .5"/><path d="M700 375.4q0 1.6 1.5 3.3l.3-.4q-1.4-1.6-1.4-2.8c0-1 .5-1.4.5-1.4l-.2-.4s-.6.6-.7 1.7"/><path d="M700.7 376.4q.3.9 1 1.4l.2-.5q-.7-.4-.8-1c-.2-1 .3-2 .3-2l-.3-.3c0 .1-.6 1.2-.4 2.4m4.2 3c0 .1.5 1.7-.2 3.6l-.9 1.7c0-.1 1-2.4.7-3.6-.3-1 .4-1.6.4-1.7m12 18.2a54 54 0 0 1 10.3 8.7l.4-.7c-.4-.5-7.3-7.6-10.6-9zm2.8 10.8c.4 3.9 3 6 3.3 6.3l.3-.7c-.1-.2-2.5-2.3-3-5.7zm-7.6.5c.3 4.4 2.9 9.5 3 9.8l.6-.5c-.1-.2-2.7-5.2-3-9.2zm-10 .1q.6 2 .4 2.5-.4.6-.5.5v.9q.5 0 1-.9.5-1.1-.3-3.3z"/><path fill="#fff" d="M657.3 385s.3 2.6 1.8 4.6c0 0 0-3 .3-4.4 0 0-.7-1.2-2-.3"/><path d="M657.2 385v-.2q.8-.7 1.7-.3.7.4.7.7v.1q-.4 1.3-.3 4.3v.5l-.3-.3a8 8 0 0 1-1.8-4.9m.3.1a8 8 0 0 0 1.5 4.2q-.1-2.8.3-4l-.5-.3q-.6-.4-1.3.1"/><path fill="#fff" d="M660.6 387c0 .1.4 2.5 1.5 4l.7-.3s.3-3 .6-3.6c.2-.2-1.4 1-2.8 0"/><path d="M660.4 387v-.4l.2.3q1 .8 2.6 0h.4v.3q-.4.4-.7 3.6l-.8.3h-.1q-1.2-1.4-1.6-4m.4.3q.4 2.2 1.3 3.3l.5-.1.5-3.2q-1.5.5-2.3 0"/><path fill="#fff" d="m663.4 387.1 1.3 2.7 1.4-.9-.3-3.1s-.8-.3-2.4 1.3"/><path d="M663.3 387.2v-.2q1.7-1.7 2.5-1.4h.1l.4 3.4-1.7 1zm.3 0 1.1 2.4 1.2-.8-.2-2.9q-.7-.1-2 1.3"/><path fill="#fff" d="m669.3 388.1-1.7 1.7s-.8-.9-1.5-.9l.3-2.8c0-.1 1-1 2.9 2"/><path d="m669.4 388.3-1.8 1.8v-.1q-.8-1-1.5-.9h-.2l.4-3.2q1.3-1.2 3 2.1l.2.2zm-.3-.2q-1.5-2.7-2.6-2l-.2 2.6q.6 0 1.3.9z"/><path fill="#fff" d="M657.7 414.2c0-.2-.1-4 .1-4.3 0 0 1 .5 1.6 0 0 0 .6 3.2.5 4.6-.3 1.2-1.2.7-2.2-.4"/><path d="M657.6 414.2c-.2-3-.1-4.2.1-4.5h.1q1.1.6 1.5 0l.2-.2v.3q.7 3.4.5 4.7-.1 1.1-1 .9-.6-.2-1.4-1.1zm.2-.1q.7.7 1.3.9.6.1.6-.6.2-1.1-.4-4.2-.5.4-1.5-.1z"/><path fill="#fff" d="M665 410.6c0-.1 0-3.2.4-3.8.2 0 2.2.5 3-1l.9 3.3c-.2 0-2.5-.5-4.2 1.5"/><path d="M665 410.6q-.2-3.5.4-4 2.3.6 2.9-1l.1-.4 1 4.2-.2-.1q-2.6-.6-4 1.4l-.3.4zm.2-.5q1.5-1.6 3.8-1.2l-.6-2.6q-.7 1.2-3 .8-.2.4-.2 3"/><path fill="#fff" d="M662.5 411c0-.1.5-3.2 1-3.5 0 0 1 .5 1.6 0l-.1 4.3c0-.2 0-1.7-2.5-.8"/><path d="M662.3 411q.6-3.6 1.1-3.7 1.2.6 1.6 0l.2.2v4.2h-.4l-.2-.6q-.5-.5-2 .1l-.3.1zm2.5 0 .1-3.1q-.4.1-1.5-.2-.3.1-.7 3 1.5-.5 2 .1z"/><path fill="#fff" d="M659.7 411.3c0-.2.6-2.8 1-3 .4 0 1.2.8 1.8.4v2.3c-.2 0-1.9-.7-2.4 3.1z"/><path d="M659.6 411.3q.6-3.3 1-3.2l.6.2q1 .5 1.2.2l.2-.2v3h-.2q-.4-.3-1 0-.9.5-1.2 2.8h-.3zm.3 0 .2 1.7q.3-1.6 1.2-2 .6-.3 1-.2V409l-1.2-.3-.4-.2q-.3 0-.8 2.8"/><path fill="#00a651" d="M697 478.8c.1.3 6 8.3 4.7 15.6.2-.4 3.8-11.4-.3-15.8-4.6-3.6-4.6-1.2-4.5.2"/><path d="m696.7 479.1.2-.3h-.3q-.2-1.9.7-2.4c1-.4 2.1 0 4.3 1.8 2 2 2.6 4.8 2 9.8q-.6 3.6-1.6 6.6l-.6-.3c.6-3 0-6-1.7-10.1q-1.5-3-3-5m.5-.6q1.5 2.2 3 5.1 2 4.1 2.1 7.5.4-1.5.6-3.4c.6-4.6 0-7.1-1.6-8.8q-2.8-2.3-3.7-1.8-.4.3-.4 1.4"/><path fill="#964b36" d="M688.7 486.4c0 .2-1.4 2.8.2 5.5-.1.2-1.7 3.6-.5 7.3 0 .1-1 3.5-.9 7.4 0 .3-.8 5.4 1.2 8.7.2.1 2.3 1.6 3.6.4 0-.2 1.9-4.1.8-9 0-.2 1.3-3.6-.2-8.7 0 0 .4-2.6-1-6 .1 0 .9-1.9.2-3.8-.2-.2-2.7-4.3-3.4-1.8"/><path d="M688.4 486.2q.3-1.3 1-1.1.6 0 1.3.8l1.7 2v.1q.8 2 0 4c.8 2.3 1 4 .9 6 1 3.4 1 6 .1 8.7.8 3.4.6 6.2-.8 9.3q-1.3 1.6-4-.3c-1.7-2.3-2-5-1.4-9.2q-.3-3.8.9-7.3a9 9 0 0 1 .4-7.3c-1.1-1.9-1.2-3.5 0-5.7m.5.4q-1.5 2.8.1 5l.2.2-.1.3a8 8 0 0 0-.5 7l.1.1v.2q-1.2 3.5-1 7.1v.1c-.6 4-.3 6.3 1.1 8.3 1.6 1.1 2.4 1.2 3.2.5a12 12 0 0 0 .7-8.6v-.4q1.4-3.6-.2-8.2v-.3q.4-2.6-.9-5.6v-.5q.8-1.8.2-3.3l-1.5-1.9-1-.7q-.3 0-.3.5z"/><path fill="#00a651" d="M690.6 476.1c-.2-.4-7.7-20-13.1-22-5.4-1.8-5.7-7.9-5.8-8.3 0 .2.6 3 5 3.7 4.6.7 12.3 8.8 13.6 15.4 1 6.4 1.8 5.7 1.8 5.6z"/><path d="m691 476.2-1.2 1.6.4-1.7q-1.8-5-4.4-10.2c-3.6-7.2-6.2-10.5-8.4-11.3-2.4-.7-4-2-5.1-4.9q-.7-2-.9-4h.6c.6 2.1 1.8 3 4.7 3.4q3.4.4 8.2 5.5 5 5.5 5.7 10.3a19 19 0 0 0 1.4 5.2l.8-.7zm-.5-1.1 1.2-4.2-.4-.5q-.8-1.4-1.3-5.4-.8-4.4-5.4-9.7c-3.3-3.5-5.7-5-8-5.4q-2.9-.2-4.1-1.8l.3 1.2c1.1 2.6 2.5 3.8 4.7 4.5 2.4.7 5.1 4.2 8.8 11.6q2.4 5 4.2 9.7"/><path fill="#00a651" d="M690.6 474.7c0-.7 2.7-24.6 15-25.3 12 .2 8.4 1.5 11.1-1a48 48 0 0 1-13.3 6.2c-5.2 1.2-9 13.4-9.1 16.5-.1 2.8-2.4 6.7-4.2 5.4-1.2-1.8.4-1.8.5-1.8"/><path d="M690.3 474.3q.8-6.2 3-12.5c3.1-8.7 7-12.6 12.3-12.8q4.9 0 8.4.4h.4l2.2-1.5.3.8-1 1q-.4.4-1.4.6-6.6 4.2-11 4.7c-2.3.5-4.1 2.6-6.3 7.3a24 24 0 0 0-2.6 8.7q.1 2.3-1.6 4.7-1.9 2.7-3 1.1-.7-.7-.7-1.3-.1-.6.4-1zm.6.5h-.3v.4l-.4.1-.2.1v.2l.3.7q.8 1 2.3-1.1 1.4-2.2 1.4-4 0-3 2.6-9.2c2.3-5 4.3-7.2 6.8-7.7q3.9-.6 9.7-4-3.2-.3-7.5-.3c-5.1.2-8.7 3.9-11.8 12.3a61 61 0 0 0-2.9 12.5"/><path fill="#00a651" d="M693.4 484.3c.2-.6 2.4-9.2 7.6-6.4-.2-.4-3.4-9.2-10.4-1.8 0 .2 2.7 5.6 2.8 8.2"/><path d="M693.6 484.8h-.6v-.5a20 20 0 0 0-2.7-8l-.1-.2.2-.3c3.1-3.5 5.3-4.1 8-2.2q1.8 1.6 2.8 4.1l.5 1.3-.9-.7c-2-1.3-3.4-.8-5.2 1.8a18 18 0 0 0-2 4.4zm0-2.1q.6-1.7 1.5-3.2 2.4-3.6 5-2.5-.8-1.5-2-2.6c-2.4-1.7-4.3-1.2-7 1.8q1.9 4 2.5 6.5"/><path fill="#00a651" d="M684.1 473.6c0 .4 3.7 22.3-2.2 29.4 0-.1 0-11.3-3.5-18.8-3.2-7.5 3.2-14 5.7-10.6"/><path d="M684.4 473.6q1 5.7 1.2 12.3c.3 9-.9 14.5-3.5 17.5l-.5.6v-1a41 41 0 0 0-3.5-18.5c-1.7-3.8-1.5-6.7.8-10a6 6 0 0 1 2.9-2.2q1.7-.5 2.6 1zm-.6.2q-.7-1-1.9-.7-1.4.5-2.6 2c-2 3-2.2 5.5-.7 8.9a41 41 0 0 1 3.7 18c2-3 3-8 2.7-16.1q-.3-6.4-1.2-12"/><path fill="#00a651" d="M684.6 477.7c0 .1 6.9 9.9 7.7 13.1.7 3 1.7-9-1.2-13.1a17 17 0 0 0-7.1-4.7z"/><path d="m684.3 477.9-.7-5.4h.4q3.7 1 7.2 4.8c1.5 2 2.2 4.8 2.2 9.6q0 2.4-.3 3.9l-.5 1q-.2.1-.5-.4l-.1-.5a47 47 0 0 0-7.7-13m.6-.4a53 53 0 0 1 7.6 12.8q.3-1.4.3-3.5c0-4.5-.6-7.1-2-8.8a15 15 0 0 0-6.5-4.5z"/><path fill="#964b36" d="M671.2 501.7c0 .2.7 3.7 2.4 4.9 0 .2.2 2.7 1.7 4 0 .1-.7 2.2.6 4 0 .3-.1 4.6 1 6 .2 0 3-.1 4.4-1.2 0-.2.5-3-1.2-6.6 0-.1.2-2.8-1.5-4.8 0-.3.4-3.8-1.7-5.8 0-.1-.5-3.2-1.8-5.1-.2.3-2.6 4.5-4 4.5"/><path d="m670.9 501.7-.2-.7.5.2q.6.3 2.2-2l1-1.6.3-.5.2-.4q.3-.3.4 0 1.5 2 1.9 5.2c1.5 1.4 2 3 1.8 5.9a7 7 0 0 1 1.5 5q1.7 3.4 1 6.7v.2q-1.3 1.3-4.6 1.3h-.1c-1-1-1.4-2.8-1.2-6.2q-1.4-1.7-.7-4-1.4-1.2-1.6-4-1.8-1-2.4-5m.7.3q.7 3.4 2.1 4l.2.2v.3q.1 2.7 1.5 3.6l.3.2-.1.4q-.7 2 .5 3.5l.1.1v.3q-.2 4.3.8 5.5 2.9-.2 4-1.1.5-3-1.1-6l-.1-.2v-.1q.2-2.9-1.4-4.5l-.1-.2v-.2q.4-3.7-1.5-5.3l-.2-.1v-.3q-.3-3-1.4-4.5l-.3.4-1 1.7q-1.5 2-2.3 2.3"/><path fill="#00a651" d="M674.7 497c-.4-.2-9-5-14.8 1 .4 0 7.6 2.3 9.2 4.4 1.6 1.8 5.5-2.8 5.6-5.4"/><path d="M674.8 496.6h.2v.3q.4 2.1-2.4 4.8-1 1.2-2 1.5-1.3.5-1.8-.6c-.9-1.4-3.5-2.7-8.9-4.3l-.7-.1.5-.6c2.5-2.8 5.3-3.6 9.6-3q3.1.7 5.5 2m-.3.7q-2.4-1.2-5.2-1.8c-3.8-.6-6.3 0-8.6 2.2 5.2 1.5 7.7 2.9 8.7 4.5q.2.5 1 .2a6 6 0 0 0 1.9-1.4q2.2-2.3 2.2-3.7"/><path fill="#00a651" d="m671.8 505-1.7-2c-1.3-1-8.4-4.5-10 5.9-.2-.7-2.7-9.9 1.3-11.8 4.4-.8 7.4 2.4 10.4 7.8"/><path d="m671.6 505.2-1.7-1.9q-1.5-1.5-4.7-1.2c-2.9.6-4.2 2.4-4.8 6.9l-.2 1.6-.5-1.6q-.6-2.7-1-5.6c-.1-4.2.6-6 2.6-6.7 4-.7 7.2 1.6 10.8 8l-.3.2zm-10.2-7.6c-1.6.5-2.1 2.1-2 5.8q.1 1.9.6 3.8c.9-3.8 2.3-5.4 5.1-6q2.8-.4 4.6.9c-2.9-3.8-5.2-5-8.3-4.5"/><path fill="#00a651" d="M665.6 482.9c0 .2 3 8.4 4 9.4 1.1.3 1.8-.9 1.8-1a32 32 0 0 0-5.8-8.5"/><path d="m665.3 483-.3-.7.6.1c1.5.5 3.3 3 6 8.7l.2.3-.1.2q-1 1.6-2.2 1c-.8-.5-2.2-3.4-4.2-9.6m.8.6q2.7 7.8 3.6 8.2.7.4 1.3-.5a26 26 0 0 0-4.9-7.7"/><path fill="#00a651" d="M663.4 469.4c-.2-.7-2.1-10.5-5.4-8.7-2.7 3.2-2.2 10.4-2.2 10.8-.2-.4-5.4-8.4-2.4-15 3.7-6 9.7 1.3 10 12.9"/><path d="m663.8 469.9-.7-.1v-.4l-1.6-5.2q-.8-2-1.6-3-1-.9-1.7-.1c-1.8 1.9-2.5 5-2 10.4v1.3l-.6-1q-1.4-2.4-2.6-5.3c-1.4-4.3-1.3-7.4 0-10.3q1.4-2.4 3.3-2.4 1.8.1 3.6 2.2c2.5 3.4 3.7 7.5 3.8 13.3zm-.9-3.5a18 18 0 0 0-3.5-9.8q-1.5-1.8-3-1.9-1.7 0-2.8 2c-1.3 2.7-1.3 5.5 0 9.5q.8 2.1 1.8 4c-.2-5 .5-8 2.4-9.9q1.2-1 2.5.3.9 1 1.8 3.2z"/><path fill="#964b36" d="M670 493s.1 1.9 1.1 2.7c1.3.8 2.9 1.9 3.1.7-.1-1.7-1.4-5.7-2.2-5.6-.6.5-1.5.5-2 2.1"/><path d="M669.7 492.9v-.1q.3-1.5 1.6-2l.6-.4q.4-.4 1 .5l.8 1.8q.8 2.6.8 3.7 0 .8-.5 1l-1-.2-2-1q-1.2-.9-1.3-3.3m.7.1q0 1.8.8 2.3 1.2.9 2 1 .4.3.6.2l.1-.1a13 13 0 0 0-1.7-5.2l-.7.4q-1 .5-1.1 1.4"/><path fill="#00a651" d="M668.2 479.7c0-.4-.1-9.2 4.3-13 0 0 .9.3 1.4-1.6 0 .2-3.4 11.9-2.6 18.2l-.2.8z"/><path d="M667.9 479.7q-.1-2.6.4-5.4 1.1-5.8 4-8h.2q.6.1 1-.7l.1-.7.6.4-.2.7q-3.4 11.3-2.4 17.2v.1l-.2 1-.6-.3.2-.7q-1-5.8 2-16.1h-.4c-1.8 1.5-3 3.6-3.7 7.4q-.4 2.7-.4 5.1z"/><path fill="#00a651" d="M669.1 468c.2-.6 8-22.3 18.6-14.2-.4 0-10.3 2.3-14.6 12.3l-3.8 7.5z"/><path d="M668.8 467.7q2.2-5.8 5.5-10.5c4.9-6.3 8.9-7.5 13.5-3.8l.7.7-.8.1q-2.6.7-5.7 2.4a20 20 0 0 0-8.6 9.7L669 475l-.2-7h.2zm.6.4.2 4.2 3.3-6.4q2.5-6.3 8.8-10.1 2.7-1.6 5-2.2c-4-2.7-7.6-1.5-11.9 4.3q-3.3 4.5-5.4 10.2"/><path fill="#00a651" d="M664.6 476.2c0-.1-2.7-15.8-4-18.2-1.8-2.5-3.9-4.6-7.3-1.5.4-.4 5-5.6 11.2-.1 5.5 6.3 4.5 14.2 4.5 14.5l-.7 11-3.8-5.2z"/><path d="M664.3 476.3a81 81 0 0 0-4-18c-2.4-3.4-4.3-3.8-6.7-1.5l-.5-.7q1.4-1.5 3.6-2.3c3-1 5.3-.3 8 2.2a18 18 0 0 1 4.5 9.8 23 23 0 0 1 .1 4.8v.3l-.7 11.9-4.3-5.9.4-.6 3.4 4.6.5-10.1v-.4l.1-1-.1-3.5a17 17 0 0 0-4.3-9.2c-2.4-2.3-4.4-2.9-7.1-2.2q1.7.6 3.6 3.2a79 79 0 0 1 4.1 18.5z"/><path fill="#00a651" d="M673.6 495.7c-.2-.4-9.7-26.6-16.8-9-.1.3-1 4.5.1 6.8-.1-.2-3.4-4-2-13.2 2.2-9 12.6-4 16.2 3.8 3.3 8 4 11.5 3.7 12.1-.5.3-1.1-.4-1.2-.5"/><path d="M673.2 495.5a48 48 0 0 0-5.8-10.8q-2.8-3.7-5.2-3.8c-2 .3-3.5 2-5.2 6-.7 3.2-.7 5 .1 6.3l-.4.6q-1-1-1.7-3.3-1.4-4.5-.4-10.4c1-4.7 3.3-6 7.9-4.7 4.2 1.6 7 4.1 8.9 8.5 3.3 8 4.3 11.8 3.6 12.7q-.7.5-1.6-.6l-.4-.4zm.6 0q.6.6.9.3c.2-.6-.8-4-3.9-11.5a14 14 0 0 0-8.4-8c-4.3-1.2-6.2 0-7.2 4a21 21 0 0 0 .7 10.7q0-1.8.6-4.4c1.7-4.5 3.3-6.3 5.7-6.6q2.5.1 5.7 4.1 3.3 4.6 6 11.3"/><path fill="#00a651" d="M702.3 505c.2-.5 7-20 11.8-11 0 .3 1 4.4-.6 6.6-.2-.3-2.6-4.6-5.6.8-2.5 5.9-1.6 5.5-1.5 5.5-.2 0-2.5.8-4-1.9"/><path d="M702 504.8q2-5.2 4.3-9.2 2.2-3.5 4-4.3 2.4-1 4 2.5v.1c1 3.5.7 5.5-.6 7l-.3.3-.2-.3q-.7-1.2-1.6-1.6-2-1-3.4 2.4-1.5 3.6-1.7 4.7h-.2v.5l.1.4q-2.9 1-4.3-2l.2-.3zm3.8 1.8v-.3q.2-1.5 1.8-5 1.8-4 4.2-2.9 1 .5 1.7 1.6 1.4-1.8.3-5.8-1.3-3-3.3-2a11 11 0 0 0-3.7 4 56 56 0 0 0-4 8.8q.9 2 3 1.6"/><path fill="#00a651" d="M713.5 500.6c.2.2 3.6 2.8 2.6 9 .2-.7 5.1-13.3-2-15.6 0 .3 1.1 4.2-.6 6.6"/><path d="m713.3 501-.4-.4.4-.4q1-1.1 1-3.6l-.3-1.7-.2-.5h.3v-.8q2.8.6 3.7 3.3.7 2.1.4 5.5-.5 3.8-1.8 7.3l-.6-.3a9 9 0 0 0-.8-6.3q-.7-1.4-1.7-2.1m.7-.5 1.6 2q1 2 1.1 4.1.6-2.1.9-4.3.3-3.1-.4-5a4 4 0 0 0-2.6-2.7l.3 2q0 2.5-.9 4"/><path fill="#00a651" d="M714 486.2c.3.2 9 4 10 9.8 0-.5 1.4-10.3-3.9-14.4-.5 0-6 1.2-6.2 4.6"/><path d="M713.6 486.6v-.3q-.2-2.4 3-4 1.6-.7 3.4-1.2l-.1.1-.1.3v.4l.4-.7c2.5 1.7 3.7 4.3 4.2 8.8a28 28 0 0 1-.1 6h-.6c-.3-2.3-1.7-4.2-5-6.6q-2.4-1.7-4.9-2.7zm.6-.7q2.4 1 4.8 2.7 3.6 2.7 4.9 5.4v-3.9q-.7-6-3.8-8-1.7.3-3.2 1-2.6 1.3-2.7 2.8"/><path fill="#00a651" d="M718.3 468.8c4.6-10.5 9.2 3.4 9.4 3.8 0-.5 1.6-10.9-3.4-13.8-5.4-1.2-8.6 23.8-8.7 24.5l-6.2 1.7c0-.6 1.8-22.5 11-25.2l1.1.2z"/><path d="m718.8 468.5-.5 1.9a137 137 0 0 0-2.3 13v.3l-7 1.9.1-.6q.5-6 2-12c2.4-8.4 5.2-12.6 9.3-13.6l1.1.2q1.4-1.7 2.9-1.2c2.3 1.3 3.5 3.5 3.9 8.1q0 3.3-.3 6.2l-.2 1.2-.4-1.1q-1.4-3.5-3-5.9-1.7-1.9-2.9-1.7-1.4.3-2.7 3.3m-.8.1.2-.5q1.5-5.2 2.8-7.7l-.6-.1c-3.8 1-6.4 5-8.6 13a71 71 0 0 0-2 11.2l5.5-1.5a140 140 0 0 1 2.4-12.9zm1.6-3q.9-1.1 1.8-1.3 1.6-.1 3.3 2 1.6 2 2.8 5 .3-2.2.1-4.7c-.3-4.2-1.3-6.3-3.4-7.3-1.7-.4-3 1.2-4.6 6.3"/><path fill="#00a651" d="M710.8 475.4c0-.4-6-16.1-9.8-18.6-3.7-2.3 1.7-3.6 4.6-.8 2.6 3.3 6.8 7.3 6.6 15.8z"/><path d="M710.6 475.6c-4-11.2-7.2-17-9.8-18.4q-1.6-.7-1.5-1.8 0-1 1.5-1.4c2.2-.5 3.6 0 5 1.7l1.1 1.4q6 7.3 5.6 14.8l-1.7 4.5zm.2-1.2 1.1-2.7a21 21 0 0 0-5.4-14l-1.1-1.4c-1.3-1.5-2.5-1.9-4.5-1.4q-.9.3-1 .6 0 .4 1.1 1c2.8 1.4 6 7 9.8 18"/><path fill="#00a651" d="M704.8 497.7c0-.3 1.8-10.6 6.3-14.3 5-3 8.8-2 9-1.8-.3 0-5 1.5-6.5 5.3-1 3.7-2.3 3.9-2.5 3.9z"/><path d="M704.5 497.6q.4-2.8 1.5-6 2-6.4 5-8.6c3.4-2.2 6-2.7 9.2-1.9l1.4.5-1.4.4c-3.7 1.1-5.5 2.6-6.3 5q-1 3.9-2.6 4.2l-6.8 7.4zm.8-1 5.7-6.2h.1q1.4-.3 2.2-3.7.9-3.3 5.2-5a11 11 0 0 0-7.2 2.1q-2.7 2-4.8 8.2z"/><path fill="#964b36" d="M702.3 505c0 .3-2.2 6.4-2 7.7-.1.3-2.4 5.1-1.7 8.2.2.2 2.6 2.7 4 1.9.2-.3 2.9-5.8 2.4-9.4 0-.2 1.9-3.8 1.4-6.5-.3 0-3 0-4-1.9"/><path d="m702 504.8.3-.7.3.7q.7 1.7 3.7 1.6h.3v.3q.8 2.8-1.3 6.8.8 3.5-2.4 9.5v.1c-1.1.9-2.3.4-4.5-1.9v-.1c-.7-2.2-.3-4.6 1.6-8.4q-.4-1.7 2-7.9m.4 1q-2.2 5.8-1.8 6.7l.1.2-.1.3q-2.5 5-1.7 7.6 2.5 2.8 3.5 1.8c2-4 2.7-6.6 2.3-8.9v-.4q1.9-3.5 1.4-5.8-2.7 0-3.7-1.5m-13.6-13.5c.2.1 1.6 1 2.7.8l.8-.8-.6-.5c-.6 1-2 .2-2.7-.3zm-.3 6.5-.1.9c.3 0 3 .9 4.7-.7l-.4-.7c-1.5 1.3-4 .6-4.2.5m-.8 7.4-.4.7c.3.3 3.3 3.4 6 0l-.5-.5c-2.3 2.8-4.7.2-5.1-.2m-14.2.1.2.5c.3-.1 2.9-1.5 3.4-4.6h-.4a6 6 0 0 1-3.2 4.1m1.8 4v.5c.3 0 2.7 0 3.5-2.8l-.4-.1a3 3 0 0 1-3.1 2.4m.6 4v.6c.3 0 3 .3 4.4-2l-.3-.2c-1.3 2-3.9 1.7-4.1 1.7"/><path d="M700.1 513c.1.2 1.4 1.9 3 2q1.3 0 2.1-1.3l-.5-.7q-.7 1.1-1.6 1.1c-1.3-.1-2.5-1.6-2.5-1.7z"/><path fill="#964b36" d="m796 527.2-.4.4z"/><path d="m796 527 .2.3-.5.5-.3-.3z"/><path fill="#964b36" d="M807.4 522.2q0-.3-.3-.3c-.2-.3-.3-1-.5-1.2q-.1-.1-.4 0l-.8-2.4v-1c-.2-.2-.3 0-.4-.3v-2.9l-.2-.7q-.3-.7-.3-1.8v-1.7l-.2-1.7.2-1.5v-9l-.1-1.7-.2-.7.1-.8v-1.9l-.1 4.3-.2-7.1-4.1-2.3-.3 11.8.3 12.5-.7 7.2s-1.9 2.1-2.8 4.3c-.7 2.3-.6 2.9-.8 3l2-.6-1.5 1.4q.4-.2.9.2l.2.2.3-.3c.3 0 .6.5.9.5l.5-.5.2-.7h1.3q.6-.5 1-1.4.5-.5 1-.5c.4 0 .7.4 1.1.4q.4.1.8-.4l.4-1 1-.4.5.2h.8l.3.1.2-.6z"/><path d="M807.6 522.1v.6l.1.2v.4l-.2.4h-.5v-.1h-.8l-.5-.1-.9.2-.1.4-.3.6q-.2.5-.8.6l-.7-.3-.5-.2q-.4 0-.8.5l-.3.5q-.5.8-.9.9h-1.2v.2l-.2.4q-.3.6-.6.6t-.5-.3l-.3-.2v.1l-.3.3-.4-.3q-.4-.4-.8-.1l-.1-.4.8-.8-1.2.3v-.8l.7-2.5q.9-2.2 2.8-4.3l.6-7.2q.3-2.2-.3-12.4l.3-11.8v-.3l4.4 2.4v.1l.1 3h.2v.4l.1.4v3.2l.1.9v.2l.2.5-.1.7v8.3l-.2 1 .1.6.2 1-.1.6v1q0 .8.3 1.8v.2l.2.6v.6l-.1.4v1.2l.1.6.3.3.1.7v.4l.1.3.7 1.8h.3l.3.7.2.6q.3 0 .4.4m-.3.2-.2-.1-.3-.8-.2-.5h-.4l-.7-2-.2-.4v-1q-.3 0-.3-.3V516l-.1-.2v-2l-.1-.1q-.4-1.1-.4-2v-1.2l.1-.5v-.8l-.2-.9.1-1v-.5q.2-1 .1-2v-4.9l-.1-.4v-.5l.1-.5v-.5l-.1-.2v-.8h-.3l-.2-7-3.8-2a277 277 0 0 0 0 23.9l-.6 7.2v.2a13 13 0 0 0-3.4 6.6v.1l2.3-.7-1.6 1.6.4.3.1.2.3-.3q.2-.1.6.3l.3.2.3-.5.1-.2.2-.5h.9l.5-.1q.2 0 .6-.7l.4-.5q.4-.7 1-.7l.6.3.5.2h.1q.4 0 .5-.3l.3-.6.2-.5 1.1-.4.5.2h.2l.6-.1.2.1v.1-.2l.2-.2z"/><path fill="#964b36" d="M799.1 526.7q.4-.1.7.1v.3h.3l.3.2h.5l.4.1q.4.2.7-.3.4-.4.7.2.2.4.4 0v-.2l.4-.1.4-.2.5-.4.4.3.3.1q.4-.6 1-1c.2-.3.5 0 .8 0q.2 0 .3-.3h.5q0-.3.3-.4c.3 0 .6.5.8.6s.8.2.8-.5c-.1-.7-.5-.2-.6-.6v-1q-.2-.5-.5-.6h-.4l-.3-1q-.1.4-.4.3-.2 0-.3-.4c-.4-.4-.5.3-.9.3-.2-.1-.4-.8-.6-1.2-.1-.2-.4-.7-.5-.6l-.2 1.2q-.2.2-.5 0l-.4.5q-.3 1-.8 1.1l-.6-.1-.5.5h-.6l-.4-.6h-.2l-.3-.2q-.2-.1-.3.4l-.2.8q0 .5-.3.7-.2.3-.5.4c-.2 0-.4.4-.5 0-.1-.9.4-1.8-.2-1.7q-.3 0-.4.4v1c-.2.6-.8 1.5-.7 2 .1.3.4-.2.5-.1l.2.6c.3.4.8-.7 1-.1z"/><path d="M799.2 527v.1l-.2.1-.2.2q-.6.4-.7 0l-.2-.3v-.2l-.2.2q-.3 0-.4-.2-.1-.4.4-1.3l.3-.8v-1q.2-.5.5-.6.4-.1.5.2v1.6l.2-.2h.2l.3-.2.3-.6.1-.9q.2-.7.6-.6l.1.2h.4l.2.4.2.2h.4q.2 0 .3-.2l.2-.3.5.1h.2q.2.1.6-.7v-.2l.5-.6h.4v-.3l.2-.9q.3-.2.8.6l.2.5.4.7.2-.2.3-.3q.2 0 .4.3l.1.2.2.1.2-.1v-.1l.2-.2v.2l.2.5.1.4h.4q.4 0 .5.7v1h.2q.4.1.5.6l-.1.6q-.1.2-.4.3h-.5l-.4-.4-.4-.2-.3.2-.3.1h-.1v.1l-.4.2h-.4q-.3-.1-.4 0l-.3.2q-.5.4-.5.7l-.1.3-.2-.2-.3-.1-.2-.1-.2-.1h-.1l-.2.3h-.3l-.2.2h-.2v.3h-.1v.1q-.4.3-.6 0v-.2q-.4-.3-.5-.1-.4.6-.9.3l-.3-.1h-.5l-.3-.1-.3-.1v-.1l-.1-.1v-.1h-.4zm0-.5.7.1v.1l.1.1h.1l.2.2h.6l.4.1q.3.1.6-.2.4-.4.9.2v.1h.1l.1-.2.1-.1.3-.2h.3l.2-.2.5-.3.3.1.2.1.1.1.7-.7.2-.2q.3-.2.7-.2l.3.1h.1l.2-.2h.4v-.2l.3-.2q.3 0 .7.3l.3.3h.5v-.2q0-.2-.2-.3-.4 0-.4-.3v-1q0-.4-.3-.5h-.1q-.3.1-.4 0l-.2-.6v-.2l-.4.2-.4-.4v-.1l-.2-.1-.1.1q-.3.4-.5.3-.3 0-.6-.8l-.2-.4v-.1l-.2-.4-.1.3v.7q-.2.3-.6.2h-.1l-.2.3-.1.2q-.5 1.1-1 1h-.3l-.1-.1-.2.2-.4.3h-.6l-.4-.4-.1-.2h-.2l-.1-.1h-.2v.1l-.2 1-.4.7-.4.3h-.1l-.2.2-.3.1q-.2.1-.3-.4v-1.5q-.2 0-.2.3v.5l-.1.5-.4 1-.3.8.1-.1q.3-.3.4-.1l.2.5v.2l.3-.2.4-.2h.1z"/><path fill="#964b36" d="M796.5 522.8v-.1l-.6-.3-.5.8q-.2 1.4-.8 1.7h-.5q-.2.5-.1 1.2v.5l-.2.4c-.1.6.2.4.4.3h1.3q.3 0 .7-.4l.6-.3.2-.7v-.7c.1-.4.3-.3.4-.7 0-1.2-.8-.3-.7-1.4z"/><path d="m796.3 522.9-.2-.2h-.2l-.4.6-.2.8q-.3 1-.7 1h-.4v1.6l-.2.2v.1l-.1.2h.2l1.4-.2.5-.2.3-.2.4-.1.1-.6v-.8l.3-.4v-.3q.1-.3-.1-.4-.6-.1-.5-1h.4q0 .5.2.5.5.2.4 1l-.2.6-.1.1v.7l-.3.9-.5.3h-.2l-.1.1-.6.3h-1.3v.1h-.4q-.3-.1-.2-.7 0-.2.2-.3h.1v-.5l-.1-.3q0-.8.2-1 0-.2.5-.1h.1q.3 0 .4-.8l.2-.8q.4-1 .7-1l.4.2.2.1h.1v.4zm10.6-33.6q-.2 2.5-1.7 2.9-1.6-.1-1.8-2.6.2-2.5 1.7-2.9 1.6.1 1.7 2.6"/><path d="M807.2 489.3q0 1.2-.6 2.2t-1.5 1.1q-2 .1-2-3c.1-2.2.7-3 2-3.3 1.4 0 2 .7 2 3m-.6 0q0-2.3-1.4-2.2-.4.1-1 .8-.3.7-.3 1.7t.4 1.6 1 .6q.4-.1 1-.8.3-.7.3-1.7m-5.2-2.9q-.1 2.5-1.7 3-1.5-.2-1.7-2.7.1-2.4 1.7-2.9 1.5.1 1.7 2.6"/><path d="M801.6 486.4q0 1.3-.6 2.3t-1.4 1-1.5-.8q-.5-.9-.5-2.2c0-2.2.6-3 2-3.3q2-.1 2 3m-.6 0a3 3 0 0 0-.5-1.6q-.3-.6-1-.5-.4 0-.9.7a4 4 0 0 0 0 3.3q.4.6 1 .6t1-.8.4-1.6"/><path d="M804.2 487.2q-.1 2.5-1.7 3-1.5-.2-1.7-2.7.2-2.5 1.7-2.9 1.5.1 1.7 2.6"/><path d="M804.6 487.2q-.1 3.1-2 3.4-2.1 0-2-3-.1-3.3 2-3.4.8 0 1.4.8t.6 2.2m-.7 0q0-.9-.4-1.6-.4-.6-1-.5t-1 .7a4 4 0 0 0 0 3.3q.5.6 1 .6t1-.8q.4-.7.4-1.7"/><path d="M801.4 490q-.2 2.5-1.7 2.9-1.5-.1-1.7-2.6.1-2.5 1.7-3 1.5.2 1.7 2.7"/><path d="M801.7 490c0 2.2-.6 3-2 3.3q-.8 0-1.5-.8-.5-.9-.5-2.2t.5-2.3 1.5-1q2-.1 2 3m-.6 0a3 3 0 0 0-.5-1.6q-.4-.6-1-.6t-.9.8-.4 1.7q0 2.3 1.4 2.2 1.4-.2 1.4-2.5"/><path d="M804 491.8q-.1 2.5-1.7 3-1.5-.1-1.7-2.7.2-2.4 1.7-2.9 1.5.1 1.7 2.6"/><path d="M804.3 491.8q0 3.1-2 3.4-2 .1-2-3t2-3.4q2-.1 2 3m-.6 0q0-2.2-1.4-2.1T801 492q0 1 .5 1.6.3.7 1 .6 1.3-.1 1.3-2.4"/><path fill="#00a651" d="M804.8 461.8c.3-.4 16.7-33.8 35.6-3.2 0 0 0 3.2-1.6 7.2l-.4-2.7-1.1.6-.3-1.7-2 .1.6-3.6-2.2 2.6.3-2.6-2.4 3.8.3-7.3-2.7 6.5.4-4.2-1 2-.5-2.4-.9 2.6-1.2-1.1v1.7l-2.2-2.3-.7 3.5-1.1-3.5-.3 2.6-1.1-2.8-.2 3.2-3.5-1.7.8 2.9-1.7-1.5.3 1.6-2.4-.4.2 2-2.5-.4.5 1.6-3.4-.3 1.2 1.8-.3.8c.3-.2 18-10.3 19.8 21l-3.4 2.7 1-2.7-1-.7-2.8-2.6.8-4-1 .4V479l-.6.5-1-2.2-.3 1-.8-2.7-.8 2-.5-4.6-1.2 3-.1-1.6-.5 1.1-1.5-2.3-.5 1.7-.6-1.2-.5 1.5-1.7-1.9v1.7l-1-1.1-.5.8-2.7-1.6-.1 1.7-1.4-1.5-.5 1.7c.3.2 16.4 11 11.6 33.2l-1 2.8-.2-7.1-1.6 4 1.1-8.4-1 1.6-.2-3.1-1.4 3.3-.5-3.6-.6 1.2-1-5.4-.7 2.4-1.2-6-1 2.6-.6-5.2-.6 3.2-1.8-4.4-.4 1.9-1-3.7-.7 1.3c-.1 0-2.9 0-4-.9-1.1-.2-3.3 6-3.5 6.7l.3-4.5-1.1 3v-3l-2 9.1-.5-6.3-1 5.6-.5-1.7-.3 2.4-.6-.8-.6 2.5-1-1v3.4l-1-1.6-.7 5.1-.5-2v2.3l-.7-1.2-.8 5-1-2-.2 3.6.4 2.8-1.2-.8.5 4.4c-.1-.3-4.6-11.7.9-24.1a35 35 0 0 1 13.4-16l-.8-1-.1-1-4.6 3.5.1-2-1.2 1.6-.3-2-.8 2-.2-1-1 2.5-.7-3.4-.7 4.1-.8-2.7-1.5 6v-4.4l-1.3 4.7-.4-5-1 6v-5.3l-1.4 5.3-.9-5-.6 5-1-3.8-.9 5.7-1.4-5-.7 7.7-1-3-.1 5.5-1.1-3.3 1 7.1-1.3-2.6.5 4.4-2-4.8.1 5.7-1-1.9-.5 2.2c0-.6-.3-21.2 10.5-26.7 11.2-4.6 17.8-.2 18 0l-4.1-4.3.4-1.6-1.5.2.6-1.8-3.2.5.9-1.8-2.5.6v-1l-1.5 1.8.6-2-2.2 2-.1-2.7-1.1 2.4-.6-2.5-5 7 1.4-7-1 1.6v-1.5l-1.4 3-.4-2-.6 2.5-.4-3-1.1 3-1.1-2.6-.5 3.6-.7-1.9-1 2.8-1.2-1.6-.2 1.7-2.4-1.4.6 2.5-1.9-2-.4 3.4-1.1-1.7-.8 4.3-.8-4-.7 3.2c.2-.7 9.3-33.3 34-13.8.1 0 2.6 3.3 3.4 5.8l.1.4-.4-23.4.9 10.1.6-3.6-.1 5.2 2.4-7.6c0 .2-2.6 12.4-1.8 16.9 0-.5 1.3-13.6 4.8-16.3l-3.4 10.4 1-.3-.7 2.2h.9l-1.1 3.4-.6 1.8.6 1.6z"/><path d="M810 466.4a13 13 0 0 1 8.8-.9c6.6 2 10 9 10.6 22.5v.3L825 492l1.2-3.6-.7-.5-3-2.8.7-3.6-.7.5-.2-2.2-.2.3-1-1.9-.4 1.1-.8-2.7-.9 2.4-.4-4.7-1.3 3.2-.1-1.8-.3.6-1.4-2.3-.5 1.9-.7-1.3-.4 1.4-1.5-1.7v1.6l-1.3-1.4-.5.8-2.4-1.5-.2 1.9-1.5-1.7-.2.8q4.1 3 7.6 8.3c4.8 7.7 6 15.7 4 25.2l-1.6 4.5-.3-7.4-1 2.6-.6-.2 1-7-1 1.3v-2.7l-1.4 3.1-.5-3.7-.6 1-.8-5-.8 2.4-1.2-6-1 2.7-.6-4.5-.4 2.3-1.8-4.4-.4 2.2-1.2-4.3-.4.9h-.2q-3.1 0-4.2-1l-.5.5-1.1 2.3-1.5 3.6-.6-.2.2-2-1 2.5V490l-1.3 6.2h-.6l-.3-4-1 4.6-.3-1.4-.2 1.6-.7-1-.5 2.5-.9-.8v3.8l-1-1.9-1 6-.1-1v.6l-1-1.5-.8 5.2-1-1.8v2.3l.6 3.5-1.3-.8.4 3.6-.6.3q-1.2-3-1.8-7.6c-.5-6.3.3-11.7 2.7-17q3.7-7.6 9-12.6 2.3-2.2 4.1-3.3l-.5-.6v-.6l-4.8 3.7.1-1.6-1 1.3-.3-1.7-.7 2-.2-1-1 2.4-.6-2.7-.7 3.8-.8-3-1.3 5-.6-.2v-1.9l-1 4-.4-4.2-.6 3.4h-.6v-2.8l-1.1 4.3-.8-4.4-.6 4.6-1-4-.9 5.7-1.3-4.7-.8 7.5-.8-2.6-.2 5.4-.4-1.2.5 3-.6.4-.6-1.2.3 2.6-.6.3-1.4-3.2.2 5.2-1.4-2.2-.2 1.3h-.7q0-5.7 1.2-11.8c1.8-8.4 4.8-13.1 9.6-15.4q7-3 13.3-1.9l2.9.8-2.6-2.7.4-1.2-1.6.1.6-1.7-3.4.5.9-1.7-2.1.5v-.6l-2 2.4.7-2.3-1.8 1.6V462l-1 2-.7-2.7-5.4 7.8 1.3-6.8-.4.8-.2-1.3-1.3 3-.2-1.6-.7 2.6-.5-3.3-1 2.6-.9-2.3-.4 3.6-1-2.2-.8 2.6-1-1.5-.2 1.4-2.2-1.2.7 3-2.3-2.5-.4 3.5-1.2-1.7-.9 5.1-.8-4-.4 1.6-.6-.2 1-4.6.2.8q2.6-6.2 6.8-11c7.6-8 16-7.7 26.6.7q1.9 2.6 2.9 4.6l-.5-21.3.7-.1.7 7.6.2-1.2h.6v3.1l1.7-5.5.6.2q-2 8.8-2.1 13.4l.7-4c1-5.5 2.3-8.2 4-9.3l.7-.4-3.5 10.6 1.1-.3-.8 2.3h.9l-1.3 4-.6 1.6.4 1 .6-1q4.4-8.5 11-13.3c9.2-6.3 17-3.1 25 10l.1.2a18 18 0 0 1-1.6 7.6l-.4.9-.6-3.2-1 .6-.4-1.8-2.1.1.5-3-2.1 2.6.3-2.3-2.4 3.5.3-6.5-2.7 6.6.3-4.5-.6 1.3-.5-2.2-.6 2-1-.9v1.8l-2.4-2.4-.9 4-1-3.2-.3 2.4-1-2.6v2.2l-3.4-1.6 1 3.3-2-1.6.3 1.1-2.4-.4.2 2-2.4-.4.5 1.6-3-.3zm-4.8-4.5-1.4 2-.9-2.3.7-2 .9-2.8-1 .1.8-2-1 .2-.6 5.3-.2 2-.4-1.9q-.8-3.2.6-11.1l-.7 1.9-.6-.1v-1.6h-.4l-.2-1.2.3 14.3.2.7v.3q0 .4-.3.4t-.4-.4l-.2-1.1q-.7-2.4-3.2-5.6c-10.3-8.2-18.4-8.5-25.9-.8a36 36 0 0 0-6.8 11.5l.3 1.7.6-3.4 1 1.6.5-3.2 1.4 1.5-.5-2 2.8 1.6.2-2 1.3 1.8 1-3 .7 1.5.4-3.6 1.3 3 1.2-3.3.4 2.6.6-2.7.4 2.7 1.4-3.1.2 1.6 1.4-2.3-1.4 7.4 4.4-6.4.6 2.3 1.2-2.8.2 3.4 2.6-2.5-.5 1.6 1-1.2v1.5l2.9-.7-1 1.9 3.1-.5-.6 1.8 1.5-.1-.5 1.8 4 4-.4.8a14 14 0 0 0-4.8-1.7q-6.3-1.1-13 1.8c-4.6 2.2-7.4 6.8-9.2 14.8q-1 4.4-1 8.5l.7 1.4-.1-6.2 1.8 4.4-.4-4 1.2 2.5-.7-5 .6-.4.5 1.6.2-5.5 1 3.3.8-7.8 1.4 5.2 1-5.9.9 3.6.4-3.1.6-.1.7 3.6 1-4 .6.2v1.1l.3-1.9h.7l.3 3.3.7-3h.7v2l1.2-4.8.7 2.5.8-4.3.8 4 1-2.4.2.7.8-2 .4 2.5 1.4-1.8-.2 2.2 4.5-3.4.2 1.5 1.1 1.4-.5.2q-1.9 1-4.5 3.4a43 43 0 0 0-8.8 12.4 31 31 0 0 0-1.8 20.5l-.2-1.7 1.1.7-.3-2 .2-4.8 1.2 2.2.8-5 .6 1v-1.1l.6-.2.1.5.7-4.4.8 1.4v-3l1.1 1.1.6-2.6.6.7.4-3 .5 1.8.8-4.3h.6l.3 4.2 1.6-7 .6.2v1l.5-1.3.6.2-.2 2.2.7-1.6 1.2-2.4q.9-1.2 1.4-.7.8.8 3.7.8l.8-1.8 1 3.1.2-1.6 1.9 4.5.8-4.2.7 5.9.8-2.4 1.3 5.9.8-2.5 1 5.8.6-1.2.4 3.3 1.5-3.5.2 3.6 1.3-2-1 7.2 1.2-3 .3 7 .4-1.2a31 31 0 0 0-11.4-32.7l-.3-.1.7-2.8 1.3 1.5.2-1.5 2.8 1.7.5-1 .8.9v-1.7l1.9 2.1.5-1.7.6 1.2.4-1.7 1.6 2.5.8-1.7.1 1.6 1.2-3 .5 4.5.6-1.7.8 2.6.2-.6 1.2 2.4.7-.6.1 2.4 1.2-.6-1 4.6 2.7 2.4 1.1 1-.6 1.7 2.4-2c-.7-12.8-3.9-19.5-10.2-21.4-3.3-.8-6-.4-9.2 1.2l-.8.5.6-1.6-1.6-2.4 3.7.3-.5-1.6 2.6.3-.1-1.9 2.2.4-.4-2.1 1.6 1.4-.7-2.5 3.8 1.8.2-4.2 1.2 3 .4-2.7 1.1 3.7.7-3 2 2.2v-1.6l1.4 1.2 1-3.1.6 2.6 1.3-2.8-.3 4 2.6-6.3-.4 7.9 2.6-4-.3 2.9 2.2-2.7-.7 4.4 1.8-.1.3 1.5 1.1-.6.4 2.1a16 16 0 0 0 1-5.8c-7.7-12.8-15.3-15.9-24.2-9.9a36 36 0 0 0-10.7 13m-1.7-7.3 3-9.4q-1.5 1.9-2.7 7.9z"/><path d="m802.3 475.8.5.6c.2-.3 1.4-2.3 4.2.2l.4-.7c-3.3-3-5-.3-5.1 0m-.7-11.5-.2.8 1.2-.8-.8 2 1.8-1-2.2 4.2.5.5 3.5-6.6-2.2 1.2 1-2.3-1.9 1.3.4-3.3h-.7z"/><path d="m798.3 465 .7 2.2-1.2-.6 3.6 8.3.5-.8-.8 2.6.6.2 1.6-5.5-.6-.4-1.2 2.3-2.2-5 1 .4-1-2.9 1.4 1v-3.2l-.7.1v1.6l-2.2-1.7zm-2.3 11 .3.8q1.4-1 2.4-.5c.7.5.9 1.3.9 1.4l.6-.3c0-.1-.3-1.3-1.2-2q-1.2-.6-3 .5m2.8 9-.5-4.7.6-.2.6 4.6zm4.8-1.3-1-3.5.7-.3.9 3.5zm1.7 2.5-.7-3.5.7-.3.6 3.5z"/><path fill="#00a651" d="M673.4 595c-.2-.2-2.7-1.8-4.3-.8-1.2 1.4-1.1 3-2.2 3 .3 0 4 1.4 5.3 0l1.2-1.9z"/><path d="m673.3 595.3.3.3-1.1 2c-1 1-2.5 1-5.7 0v-1q.5.1 1-.8.5-1.5 1.2-2 1.3-1.2 4.5.8zm-4-.7q-.5.4-1 1.6l-.4.8q3.4 1.1 4 0l1.1-1.8q-2.5-1.6-3.7-.7"/><path fill="#00a651" d="M673.9 596.7c-.1.1-1.7 3.2-1.3 5.4.8 2.1 2 2.4 1.8 3.8 0-.2 1.6-5.1 1-7l-1.2-2.1z"/><path d="m674 596.9.4-.4 1.2 2c.6 1.5.4 3.7-1 7.7l-.5-.4q0-.5-.6-1.4-.8-1.1-1.2-2.1c-.4-1.7 0-3.4 1.3-5.9zm-1 5 1 1.9.5.8q1.3-4.3.6-5.5l-1-1.9q-1.7 3-1.2 4.8"/><path fill="#00a651" d="M670.7 586.8c-.2 0-2.8 1-3.4 3.2-.2 2.2.6 3.4-.2 4.4.2-.2 3.5-2.6 3.9-4.8 0-2-.2-2.5-.2-2.5z"/><path d="m670.7 587.1.5-.1.1 2.7q0 2.2-4 5l-.4-.7q.3-.3.2-1.5-.3-1.5-.1-2.6.4-2.4 3.6-3.5zm-3.1 3v2.3l.2 1q2.9-2.2 2.9-3.8l-.1-2.3q-2.7 1-3 2.8"/><path fill="#00a651" d="M672.5 588.4c0-.2 1.2-3.6.5-5.7-1-2-2.2-2-2.2-3.4 0 .2-.9 5.5 0 7.3q1.4 1.9 1.4 1.7z"/><path d="m672.3 588.2-.3.5-1.5-1.8c-.7-1.3-.8-3.6 0-7.8l.6.2q0 .6.7 1.3 1 .9 1.5 1.9.9 2.1-.5 6zm0-.3q1.2-3.3.4-5-.3-.7-1.2-1.6l-.6-.7q-.7 4.5 0 5.7z"/><path fill="#00a651" d="M669.5 586.7c0-.2-.1-4-1.4-5.6-1.5-1.1-2.5-.4-3-1.8 0 .3 1 5.7 2.3 6.8l1.8.8z"/><path d="M669.3 586.7v.6q-.5 0-2-.8c-1-.7-1.8-2.8-2.5-7.2l.6-.1q.3.5 1 .7 1.2.3 1.9.9 1.5 1.3 1.5 6zm-.1-.3q0-3.7-1.2-4.9-.6-.4-1.6-.7-.4 0-.7-.3.7 4.6 1.8 5.2z"/><path fill="#00a651" d="M674.7 594.4c.2-.1 3-1.3 3.6 3.6.2 4.9-.2 3.2-.2 3.2 0-.2-1.8-5-3.7-6.4z"/><path d="M674.6 594q.9-.4 1.8-.1 2 .7 2.2 4v3.8q-.2.3-.5.2l-.2-.3-.1-.3q-1.7-5.1-3.5-6l-.4-.3.6-1zm.4.7q1.5 1.3 3 5.3v-2c-.2-2-.7-2.8-1.7-3.3z"/><path d="m673.8 596.8.4 3.8h.5l-.4-3.8 1.1-8-.4-.2z"/><path d="m670.8 595.3-.2.6c1.8.7 3.7-1.2 4-1.4l-.3-.5c-.2.1-2 1.8-3.5 1.3m4.2-4.5-7.5-5.7.3-.8 7.5 5.8z"/><path d="m669.6 589.3-.5-.7 1.5-2 .5.7zm2.6-.8-1.6-4.8.6-.4 1.6 4.8zm2.2 5.9v.9c2 .1 2.5 1.6 2.6 1.8l.6-.2c-.2-.6-.8-2.4-3.2-2.5"/><path fill="#fff" d="M708.6 598.3c2.3-2.2 3-8.1 3-8.4-1 2.4-5 4.6-5.2 4.7 3.3-3.1 7.4-15.3 7.5-15.5-1.5 4.5-9.7 8-15.6 12.1-5.4 4.7-2.8 16.3-2.7 16.7-1.6-1.7-4.5-8.2-5.3-14.2s-2.2-8.1-6.2-9.2c-4-.4-6 4.4-6.1 4.8l-5.8 3.7 5.9.7c.2.2 3.7 2.1 4.2 6.7-.1 4.6-3.5 22 2.3 32.6 4.8 7.3 19.5 12 19.9 12z"/><path d="M708.4 597.8q1.8-1.3 2.6-5.8-1.4 1.5-4.4 3.1l-.4-1c1.9-1.7 3.9-5.4 6.2-11.9a43 43 0 0 1-8.1 5.9l-5.8 3.6c-2.2 1.8-3.2 4.6-3.3 9.4q0 3.6.8 6.7l.4 1.6-1-1q-1.4-1.4-3.2-5.7a37 37 0 0 1-2.3-9c-.7-5.2-2.4-7.7-5.8-8.7-2.6-.4-4.2.9-5.8 4.6v.2l-4.5 2.8 4.3.5c3.1 1.8 4.4 3.9 4.6 7.3l-.4 4.3c-1.3 13.4-.4 22.4 2.6 28q2.8 4.4 11.3 8.6 4.5 2 8.3 3.2l-.1 1.1q-3.9-1.2-8.4-3.3-8.9-4.3-11.7-9c-3.2-5.8-4.2-15.1-2.8-28.8l.3-4.2c-.1-2.8-1.2-4.5-3.8-6l-7.4-1 7-4.4q.7-1.5 1.7-2.8 2.2-2.8 4.9-2.2c3.9 1.1 5.8 4 6.5 9.7a35 35 0 0 0 4.1 12.5q-.4-2.4-.4-5c0-5.3 1.2-8.3 3.7-10.4l5.8-3.7c5.6-3.3 8.5-5.8 9.5-7.7l.1-.5.8.5-.2.4q-3 9-5.4 13 2.1-1.5 2.5-3l.8.2c-.4 4.8-1.4 7.4-3.2 9z"/><path fill="#fff" d="M697.2 611.7c0-.5 1.1-7.2 5-7.5 3.9-.1 5.1-5.3 7.3-6.7 2.7-1 13.7-4.8 15.5-12.6 0 .3-1.2 12.4-12 18.9.3-.1 8.2-3.8 9.8-6.3-.1.4-3.9 10.9-13.4 12.8.5 0 8.2-.8 10.2-3.9-.2.3-4 6.7-10.6 7.9.5.2 5.5 3.2 7.7.7-.2.3-3.2 4.8-7.4 5.5l1.1.5c-.3.4-3.4 5.5-8.1 1.7-4.5-4-4.4.6-4.4.9z"/><path d="M696.8 611.6a20 20 0 0 1 1.1-4.1q1.8-4.2 4.4-3.9 2.1.1 4.5-3.6 1.7-2.6 2.6-3l.5-.2c9.1-3.4 13.7-7.3 14.7-12l.8.2a28 28 0 0 1-7.8 16q4.1-2.2 4.8-3.8l.7.6q-1 3-3.2 6-2.5 3.4-5.4 5.2 3-.7 4.2-2l.6-1 .6.7-.6 1q-1 1.5-2.3 2.8-3 3.1-6.4 4 4.3 2.2 5.6.4l.2-.2.6.7q0 .2-.2.3a12 12 0 0 1-5.7 5l-.4.6a9 9 0 0 1-2.6 2.7c-2.3 1.3-4 1-6-.9-1.8-1.6-2.6-2-3.3-1.2q-.5.6-.5 1.7h-.8q0-1.6.7-2.5 1.3-2 4.3 1.1 2.5 2.6 5.3.8 1-.7 1.9-1.8l-.5-.2.1-1q2.9-.3 5.5-3.2-2.1.1-6-2l-1.4-1 1.6-.1q3.9-.5 7.5-4l.1-.2a27 27 0 0 1-7.1 1.4l-.1-1.1c4-.8 7-2.8 10-6.8l1.8-3a41 41 0 0 1-8 4.3l-.3-1a23 23 0 0 0 10.8-14.2 29 29 0 0 1-13.6 8.8l-.5.2q-.7.3-2.2 2.6c-1.9 3-3.3 4-5.2 4q-2.1-.1-3.6 3.4a18 18 0 0 0-1 3.7z"/><path fill="#fff" d="M706 624.2s4.8 11.6 5.5 17.7c.2.4 9.6 14.2 13.2 15.6-.2 0-1.6.8-4.8-2.7 0 .1 2.6 3.6 3 3.9.5.2-1.8-.4-2.4-1.3 0 .1 1.1 2 1.8 2.5l-.7-.3s-1.2-.3-2-1c-.6-.5-.1 1.7-.1 1.8 0 0-1.4-.6-2-1.3-.6-.6.2 1.5.2 1.5l-1.3-.4-.9.8s0 .7-.7 0c-.7-.5-1.6 0-1.7 0 0 .1-.7.9-1.2.3-.6-.4-1.8 2.3-1.9 2.5l-6.3-20.9z"/><path d="M706.4 624a68 68 0 0 1 5.5 17.7c6.4 9.7 10.5 14.5 12.8 15.3l1.5.3-1.4.7q-.9.4-2 0l.2.2h.2l.1.1.1.4-.1.5h-.5l-.8-.2.4.4h.2l.2.3v.5q0 .5-.4.3h-.2l-.3-.1-.4-.2q-1-.3-1.7-.8v.9l.2.9-.6-.3-1.4-.6v.1l.4 1-2-.6-.5.5q0 .3-.3.4-.4.6-1-.2-.5-.4-1.3 0l-.5.4q-.7.5-1.2-.3l.1.2-.6.8-.7 1.5-.5 1-6.5-22 .7-.4 6 20 1.1-1.8q.6-.6 1 0h.3l.3-.3h.1q1.4-.8 2.2 0v.3-.3l1.2-1 .7.2v-1.1q.1-.3.4-.3l.4.3q.3.4 1.2.9v-1.3q.2-.3.5-.3t.4.2l.8.6-.5-1v-.1l.6-.6v.1l.5.4-1.7-2.4.5-.7q-3.5-4-8.9-12.2v-.3q-.6-6-5.5-17.5z"/><path d="m712 662-8-21 .9-.6 8 21zm6.9-1.3-13.6-21.2.7-.8 13.6 21.2zm3-1.7-15.4-20.2.7-1 15.4 20.2zm-38.7-68c0-.2-.9-2.3-1.9-1.7q-1.3 1.2-1.5 1s.8 0 1.4-.6q1-.9 2 1.3m-5.4-1.5.5 1.6-.6 2.5.4.2.7-2.7-.6-1.9z"/><path d="M683 590.6s-.7 1-1.8.7l-1-.4 1.4.2q1.2-.1 1.4-.5"/><path d="M682.8 590.8c-.1-.1-1-1.2-1.6-1 0-.1 1-.4 1.7.9z"/><path d="M682.6 590.5c0 .1-1 .9-2.2-.2v-.1c.2 0 1.4.8 2.2.3"/><path d="M682 590.3q0 .4-.3.4t-.3-.5.3-.4.3.5m.5 38s-.7 1.9-.4 3.3c.6 1.2 2.2 2 2.7 3.6.3 1.7.8 1.7 1.8 1.6l1-.3s-3.4-3-4.7-7.5z"/><path fill="#964b36" d="M805.1 585.3c.3-.5 6.6-12.3 13-10.6 6.2 2.5 10.1 3.6 10.1 3.6 0 .6 0 7.5-3.1 8.8-3.4-.3-6.1-7-9.3-4.8-3 3-5.2 6.4-5.6 7.7-.7 1-7.2 2.4-5-4.7"/><path d="M805 585.1q1.7-3.3 4.2-6.2c3.6-4.1 6.2-5.3 9-4.4q6.1 2.4 10 3.5h.2v.2q0 2.2-.3 4.3-.8 4.5-3 4.8-1.4.1-4.4-2.7-3.3-3.5-4.8-2-5 4.8-5.5 7.4 0 .7-1.5 1-1.2.3-2.4 0-1.4-.5-2-1.7-.4-1.5.3-3.7zm.3.3q-.9 2.3-.4 3.6.4 1 1.7 1.4 1.1.3 2.3 0 1-.1 1-.4.7-2.9 5.8-7.9c1.3-1 2.8-.5 5.3 2q2.7 2.9 4.1 2.7 1.8-.3 2.6-4.3l.3-4q-4-1-10-3.5c-2.6-.9-5 .3-8.5 4.3q-2.5 3-4.2 6.1"/><path fill="#964b36" d="M779 647.2c-.2.2-1.8 2.6-1.1 3.5 1 .5 2.4-.2 2.6-1.2-.2-1-1-2.4-1.6-2.3"/><path d="M778.7 647v-.1q.6-.4 1.4.7.6 1 .7 1.9 0 1-1.2 1.6-1.1.4-1.9 0-.5-.4-.3-1.3 0-.6.4-1.3zm.4.7L778 650v.3q.5.3 1.4 0 .7-.4.7-.8t-.5-1.3z"/><path fill="#964b36" d="M777.4 650c-.3-.3-3.2-2.4-6.3 4-2.7 6.8-5.3 17.1-6.7 18.8-1.3 1.4 15.1-11 16-16.1 0-.5 1-5.8-.7-6.3-1.8.3-2 .5-2.3-.5"/><path d="m777.5 649.5.2.2q.3.6 1.1.4l.9-.1q.8 0 1.2 1.2l.1 2.3-.3 3.2q-.3 3.3-8.8 10.9a105 105 0 0 1-7.5 5.8q-.3 0-.4-.3v-.5l.2-.1q.8-.8 3.2-8.5 2.1-7.2 3.4-10.2c1.3-3 2.6-4.3 4.5-4.8q1.2-.1 2.2.5m-.3.8q-.8-.6-1.9-.4-2.2.4-4 4.3-1.1 3-3.3 10.1-1.7 5.3-2.6 7.4l.6-.4 5.5-4.4q8.4-7.4 8.5-10.2v-.1l.4-3.1-.1-2q-.2-.7-.6-.6l-.8.1q-1.4.2-1.7-.7"/><path fill="#964b36" d="M777.9 650.7c-.3 0-3.3 1.3-4.4 8.4s-5.7 10.8-6.1 11.2z"/><path d="M778 651a5 5 0 0 0-2 1.4q-1.8 2.4-2.3 6.8a18 18 0 0 1-6.1 11.3h-.1l-.3-.4h.2a17 17 0 0 0 5.9-11 14 14 0 0 1 2.5-7q1-1.4 2-1.7z"/><path fill="#964b36" d="M828.3 578.3c-.4.2-5 3.1-4.6 8.4z"/><path d="M828.3 578.5q-1.3.8-2.6 2.3-2.3 2.8-1.8 5.8l-.4.2q-.6-3.3 2-6.4 1.3-1.5 2.7-2.4z"/><path fill="#fff200" d="M785.8 597.8c0-.6.2-17 10.9-17.9 2 .4 1.1 3.2 1 3.4.2-.1 2.1-2.2 3.4 1 .3-.1 3-2.2 3.8 2.2.3 0 3.3-1 3.2 3 .2 0 2.2-1 2.4 1.9.2-.1 2.6-1.8 2.6 2.2.1-.2 2.8-3.1 2.7 2 .2-.2 2.9-3.2 4.4 1.6 1 5.4-3.2 16.3-7.6 20z"/><path d="M785.6 597.8q0-4.5 1.4-9c2.2-6.2 5-8.9 9.7-9.2q1.4.2 1.5 2l-.1 1.1 1-.4q1.4-.4 2.1 1.7.9-.5 1.7-.5 1.8-.1 2.2 2.7.7-.1 1.6 0 1.7.6 1.6 3h1q1.4 0 1.4 1.8l1.2-.3q1.4 0 1.4 2.4.7-.6 1.3-.7.8-.2 1.1.5t.3 2.2q.8-.6 1.5-.8 2.1-.5 3 2.8c.4 2.7-.1 6.1-1.9 11a23 23 0 0 1-6 9.4v-.5q3-2.4 5.7-9.2 2.5-6.8 1.7-10.5-.7-2.9-2.4-2.5-1 .3-1.7 1l-.4.4v-.6a5 5 0 0 0-.1-2.3q-.3-.6-.8-.4t-1.4 1l-.4.3v-.6q.3-2.3-1-2.4-.6 0-1.2.4l-.3.2v-.4q0-1.5-1-1.7l-1.2.1-.3.1v-.4q.4-2.3-1.2-2.8H805l-.2.1v-.3q-.2-2.6-1.8-2.5-.9 0-1.7.6l-.2.1v-.2q-.6-2-2-1.7-.6.2-1.1.7l-.6.6.3-.9.2-1.5q0-1.4-1.1-1.5c-4.5.2-7.3 2.8-9.3 8.8a34 34 0 0 0-1.4 8.8z"/><path d="M815.5 596.2c0 .5 1.2 13.4-4.3 19.6l.2.4c5.8-6.4 4.6-19.6 4.5-20zm-6.9 16 .3.3a55 55 0 0 0 4.4-19h-.3c0 .4-1 13.3-4.4 18.7m-3.4-2.8h.4a64 64 0 0 1 5.1-17.9l-.3-.2c0 .2-4.5 9.8-5.2 18.1m-2.7-2h.4c.9-10 5.3-17.5 5.4-17.7l-.3-.3a47 47 0 0 0-5.5 18m-3.7-3h.4a29 29 0 0 1 6-17.7l-.3-.4c-.2.2-5.4 6.2-6 18m-3.5-2.5h.3c0-10.6 5.5-17 5.7-17.3l-.2-.4a29 29 0 0 0-5.8 17.7m-6.2-3.3h.3c1.4-11.4 8.2-14.8 8.5-15l-.1-.4c-.3.2-7.3 3.6-8.7 15.4"/><path fill="#00a651" d="M779.5 619.9c0-.4-1.6-16 5.4-22.1.2 0 1.2-.5 2.1 1.8.3-.2 3.5-2.4 4 2 0-.2 1.7-2.2 2.4.5.3 0 3.7-1.4 3.3 2.7.3 0 3-1.5 3.2 2.5.2-.1 3-2 2.8 1.6.3-.1 3.3-1.5 2.8 2.6.3 0 4-1 3.2 3.3.2 0 3-1.4 2.5 2.1.4 0 4 .5 2.4 4.6-2.1 4-7 10-12 13.2z"/><path d="M779.3 620q-.4-4.2 0-9c.7-6.7 2.5-10.8 5.6-13.5q1.4-.5 2.2 1.7l1.9-.6q2 0 2.1 2.4l.8-.5q1.3-.5 1.6 1.3a4 4 0 0 1 1.8-.2q1 .2 1.4.9t.3 2q.8-.3 1.4-.2 1.7.3 1.7 2.6.8-.4 1.4-.4.8 0 1.2.4.3.6.3 1.6.7-.2 1.5-.1.7 0 1 .8.5.7.3 2h1.8q1 .4 1.3 1 .3 1 0 2.2.8-.2 1.4-.1.7 0 1 .6t.2 1.8q1 .2 1.8.8.7.6 1 1.5.2 1.2-.5 2.6-4.5 8.7-12.2 13.4v-.5a32 32 0 0 0 11.9-13.1q.6-1.4.4-2.2-.2-.7-.8-1.3-.9-.6-1.9-.7h-.2v-.3q.3-1.2 0-1.6t-.8-.5q-.8 0-1.5.3l-.4.2.2-.5q.4-1.5 0-2.2-.3-.6-1-.8a4 4 0 0 0-2 0h-.3l.1-.4q.3-1.2 0-1.9-.3-.4-.9-.6l-1.6.2-.3.2v-.4q.1-1.1-.1-1.6-.3-.3-.9-.3t-1.6.6l-.3.1v-.4q.2-2.3-1.2-2.5-.8 0-1.6.3l-.4.2.1-.5q.3-1.4-.2-2-.3-.4-1-.6a4 4 0 0 0-1.9.2h-.2v-.2q-.4-1.5-1.2-1.2l-1 .7-.2.4v-.6q0-2.4-1.8-2.3-1 0-1.9.6l-.2.1v-.2q-.7-2-1.9-1.7c-3 2.5-4.6 6.5-5.3 13q-.5 4.8 0 8.9z"/><path fill="#00a651" d="M775.6 636.8c-.1-.5-2.7-13 2.7-17.5 0 0 .9-.4 1.2 1 0-.2 1-2.1 2.2-.4.2-.1 2.5-1.8 3.5.8.2-.1 1.7-2.2 2.9.9.1-.1 1.6-1.1 1.8 1.4.2-.1 2.2-1.5 2.5 1.5.2 0 2.2-1.4 2 2 .2.1 3.2.5 2.5 3 .2 0 3 .8 2 2.8.2 0 3.2-.8 1.6 2.6.2 0 2.5-1.4 1.2 2.8a19 19 0 0 1-9.7 9.8z"/><path d="M775.4 636.9q-.8-3.4-.8-7.4c0-5.5 1.1-8.6 3.6-10.4q.3-.2.6-.1.6.1.8.7l.5-.6q1-.6 1.7.5.6-.5 1.4-.6 1.6-.3 2.1 1.3.4-.4 1-.6 1.3-.4 1.9 1.5l.8-.2q1 .1 1.1 1.6l1-.3q1.4 0 1.5 1.8l1-.2q.6.1.8.7t.1 1.7l1.6.6q.7.4 1 1t0 1.4l1.4.7q.5.4.8 1v1h1.2q.7.3.8 1 0 .6-.3 1.5h.7q.6.1.6 1 .1.8-.4 2.3-1.2 3.2-4.3 6.3t-5.6 3.7v-.5q2.5-.7 5.4-3.6t4.1-6q.5-1.5.4-2.1 0-.4-.3-.6l-1 .2-.6.3.4-.7q.6-1.2.5-1.6t-.5-.6h-1.5l-.5.1.4-.5q.3-.6.1-1l-.6-.8-1.5-.6-.2-.1.1-.3q.3-.7 0-1.2l-.8-.8q-.7-.5-1.6-.6h-.2v-1.9q-.2-.4-.6-.4t-1 .3l-.3.1v-.4q0-1.7-1-1.6-.6 0-1.2.4l-.3.1v-.4q0-1.4-.7-1.4l-.8.2-.2.1v-.2q-.7-1.9-1.7-1.5l-1 .7-.2.3v-.4q-.5-1.5-1.9-1.3l-1.4.6-.2.1v-.1q-.6-1-1.3-.5l-.7.8-.2.5-.1-.5q0-.7-.5-.9h-.5c-2.3 1.8-3.3 4.7-3.3 10q0 3.9.8 7.2z"/><path fill="#00a651" d="M779.1 647.6c-.3-.5-5.8-7.5-3.3-10.7 0 0 1.2.5 1.8 2.3 0-.2 1.3-3 2.4 0 .1 0 2-1.1 2.3.9l1.8 1.7c.1 0 1.9-.4 1.7 1.5.2 0 2-.5 2.2 1.1.2 0 1.8 0 1.8 1.9.3 0 3.1.4 2 3a17 17 0 0 1-10.3 0c-.1 0-2-1-2.4-1.7"/><path d="M779 647.8a30 30 0 0 1-2.8-4.4q-1-2.1-1.4-3.6-.2-2.1.9-3v-.2h.1q1.3.6 1.8 2l.8-.8q.4-.4 1-.2.3.3.7 1.2l1-.2q1.4 0 1.4 1.4l1.6 1.5h1q.6.2.7.6.3.3.2.9h1q1.1 0 1.2 1.2l.9.2q.9.5 1 1.6.8.1 1.3.6.7.4.9 1 .1.8-.4 1.8l-.1.1c-4.3 1.4-7.4 1.4-10.4 0q-2.1-1-2.5-1.7m.3-.5v.2q.4.6 2.4 1.5 4.2 2 10 0 .4-.7.3-1.2t-.6-.7l-1.5-.6h-.2v-.3q.1-.9-.7-1.3l-1-.2h-.1v-.3q0-.8-.9-1l-1 .1-.4.1.1-.4v-.8l-.6-.3h-1l-2-1.9q0-1.1-.9-1l-1 .2-.3.1v-.2q-.3-1-.7-1.2l-.6.2q-.4.3-.8 1l-.2.5-.1-.5q-.4-1.6-1.6-2-.8.7-.6 2.4.3 1.4 1.3 3.4a30 30 0 0 0 2.7 4.2m21.5-15 .2.4a71 71 0 0 0 10.5-15.6l-.3-.3c-.2.3-6.8 12.8-10.4 15.4m-2-2 .1.4c3.1-3 9.7-15 10-15.6l-.3-.3c-.1.3-6.8 12.6-9.9 15.5m-1.8-.9.2.4c3.3-4.4 8.4-17.4 8.7-18.1l-.4-.2c0 .2-5.3 13.6-8.5 18m-1.7-2.8h.4a63 63 0 0 1 7.4-17.5l-.3-.3a61 61 0 0 0-7.5 17.8m-13.4-7h.4c-.3-9.3 5-19.5 5.1-19.8l-.3-.3a48 48 0 0 0-5.2 20.1m3.5.6.4-.1c-.6-7.5 5.3-18 5.5-18.3l-.3-.4a41 41 0 0 0-5.6 18.8m5.5 2.3h.4c0-8.5 5.6-17.1 5.7-17.4l-.2-.3c-.2.3-5.8 9-6 17.7"/><path d="m777.7 638.5.4-.2a37 37 0 0 1 1.6-17.9l-.4-.2c0 .3-3.5 10.2-1.6 18.3m2.5.4.3-.2A48 48 0 0 1 782 620l-.4-.2c0 .3-3 11-1.3 19m10.2 7.3.1.5c6-3.8 10-11.3 10.2-11.5l-.3-.3c-.2.3-4 7.6-10 11.3m-1.2-1.7.1.4c4.8-3.6 9.3-12 9.5-12.2l-.3-.2c-.2.2-4.6 8.4-9.3 12m-1.2-.6.2.4c3.7-4.2 8.7-14 8.8-14.2l-.4-.2c0 .2-5 9.9-8.6 14m-6.1-4.4.4-.1a52 52 0 0 1 3-18.5l-.2-.2c-.1.3-3.8 10.2-3.2 18.8m2.6 2 .3.4c3.7-5.4 5.2-18 5.3-18.8h-.4c0 .3-1.5 13.2-5.2 18.5m2.7 1.3.2.4a38 38 0 0 0 7.1-16.6h-.4a36 36 0 0 1-6.9 16.2m.7-22.7v1.5l-4.2 18.9h.4l4.2-18.9c-.4-9 5-19 5.2-19.3l-.3-.3c-.1.2-5 9.3-5.3 18.1"/><path d="M792.3 624.4c-.1.5-1.6 12.7-6.4 18.1l.2.4c5-5.5 6.4-17.6 6.5-18.4 2.1-3.8 7.4-17 7.4-17l-.3-.3c0 .2-5.3 13.2-7.4 17.2m-15 14.9c.1.3 1 6.4 2 8.7l.3-.3c-.8-2.2-1.8-8.4-1.8-8.6zm2.5-.1-.1 8.8.3.2c.1-.7.2-7.6.1-9zm.2 9 .3.2c1.6-5 2.2-8.2 2.2-8.3h-.4s-.6 3.3-2.1 8.1m.4.2.1.4a14 14 0 0 0 3.8-7h-.4c0 .2-.8 3.9-3.5 6.6m.5.3v.5c3-1 4.9-5.3 5-5.8l-.3-.2c-.1.3-2 4.5-4.7 5.5"/><path d="M781.2 649v.4c4.8-1 6.7-4.4 7-4.8l-.4-.3c-.1.3-2 3.6-6.6 4.6"/><path d="M781.5 649v.5c.7.2 5.6 1.3 8.3-3l-.3-.2c-2.5 3.9-7.5 2.8-8 2.7"/><path d="M644.9 342.6c66.7 6.5 133.5 8 202.2-3.7v232c-.2 32.2-16.8 65.6-50.5 96.5a227 227 0 0 1-50 34.1l-.6.3-.5-.2a229 229 0 0 1-50-33c-33.8-30-50.4-61.8-50.6-94zm3.4 5v227.3c.2 30.5 16.3 60.9 48.9 89.6a225 225 0 0 0 48.8 32.3q6-2.7 14.9-8 18.5-11.4 33.9-25.3c32.6-29.8 48.7-61.6 48.9-92V344.2c-64.5 10.5-129 9.7-195.4 3.4"/><path fill="#1a1a1a" d="M8 195.3c170.8-85.3 341-54.5 513.3-28C676.5 191 833.4 211.8 992 132.7v672c-170.8 85.3-341 54.5-513.3 28C323.5 809 166.6 788.1 8 867.2zm31.3 19.3v604.5c306.5-128.2 611.1 96 921.5-33.7V180.9C654.2 309 349.5 84.9 39.3 214.6" opacity=".2"/></svg>