<svg xmlns="http://www.w3.org/2000/svg" viewBox="0 0 1000 1000"><defs><linearGradient id="a" x1="826" x2="786" y1="420" y2="396" gradientTransform="matrix(.82 .06346 0 1.12 8 134.654)" gradientUnits="userSpaceOnUse"><stop offset="0" stop-color="#a43907"/><stop offset="1" stop-color="#fff"/></linearGradient><linearGradient id="b" x1="852" x2="763" y1="436" y2="420" gradientTransform="matrix(.82 .06284 0 1.12 8 135.158)" gradientUnits="userSpaceOnUse"><stop offset="0" stop-color="#a43907"/><stop offset="1" stop-color="#fff"/></linearGradient><linearGradient id="c" x1="1016" x2="975" y1="399" y2="401" gradientTransform="matrix(.82 -.10646 0 1.12 8 289.426)" gradientUnits="userSpaceOnUse"><stop offset="0" stop-color="#a43907"/><stop offset="1" stop-color="#fff"/></linearGradient><linearGradient id="d" x1="1033" x2="946" y1="421" y2="429" gradientTransform="matrix(.82 -.09953 0 1.12 8 282.549)" gradientUnits="userSpaceOnUse"><stop offset="0" stop-color="#a43907"/><stop offset="1" stop-color="#fff"/></linearGradient><linearGradient id="e" x1="1023" x2="777" y1="445" y2="445" gradientTransform="matrix(.82 -.00733 0 1.12 8 195.251)" gradientUnits="userSpaceOnUse"><stop offset="0" stop-color="#a43907"/><stop offset="1" stop-color="#fff"/></linearGradient><linearGradient id="f" x1="783" x2="1144" y1="463" y2="465" gradientTransform="matrix(.82 -.07047 0 1.12 8 254.155)" gradientUnits="userSpaceOnUse"><stop offset="0" stop-color="#a43907"/><stop offset="1" stop-color="#fff"/></linearGradient><linearGradient id="g" x1="1032" x2="1003" y1="442" y2="444" gradientTransform="matrix(.82 -.13315 0 1.12 8 316.29)" gradientUnits="userSpaceOnUse"><stop offset="0" stop-color="#a43907"/><stop offset="1" stop-color="#fff"/></linearGradient><linearGradient id="h" x1="776" x2="804" y1="472" y2="476" gradientTransform="matrix(.82 .0732 0 1.12 8 126.89)" gradientUnits="userSpaceOnUse"><stop offset="0" stop-color="#a43907"/><stop offset="1" stop-color="#fff"/></linearGradient><linearGradient id="i" x1="803" x2="755" y1="467" y2="440" gradientTransform="matrix(.82 .07902 0 1.12 8 122.316)" gradientUnits="userSpaceOnUse"><stop offset="0" stop-color="#a43907"/><stop offset="1" stop-color="#fff"/></linearGradient></defs><path fill="#00247d" d="M8 195c171-85 341-54 513-28 155 24 312 45 471-34v672c-171 85-341 54-513 28-155-24-312-45-471 34z"/><path fill="#fff" d="M8 195q27-14 55-23 94 31 191 98 94-64 191-114l55 8 11 32c-67 35-133 70-202 113q100 75 202 163l-22 56c-78-65-155-129-235-183-78 54-155 119-235 211L8 531v-37q94-111 191-184-94-57-191-77z"/><path fill="#cf142b" d="m254 307 37 1q106 78 216 173l-7 19c-81-68-162-136-246-193v25C175 387 96 453 15 548l-7-17c81-96 162-166 246-224l-37 2c-69-43-138-76-209-89v-25c81 15 162 56 246 112v-25q103-69 209-124l37 6c-81 43-162 86-246 143"/><path fill="#fff" d="M295 140v112c95 4 189 23 287 36v112c-95-13-189-32-287-36v168q-40-2-82 1V365c-68 5-135 19-205 54V307c68-34 135-49 205-54V141q40-3 82-1"/><path fill="#cf142b" d="M279 140v134c100 2 200 22 303 37v67c-100-14-200-35-303-37v191h-50V342c-73 3-146 17-221 55v-67c73-37 146-52 221-56V140z"/><path fill="#00247d" d="M8 531c163-81 324-57 492-31V164c162 25 325 52 492-31v672c-171 85-341 54-513 28-155-24-312-45-471 34z"/><path fill="url(#a)" d="M686 666c-1 0-7-15-13-15-6 1-11 10-12 10l-8-14c0-1 9-28 13-29 5 0 14 3 15 4z"/><path fill="#fff" d="m682 669-4-7-4-5q-4 1-9 9-4 5-7 0l-2-2-6-10q-3-7-2-11l1-1 6-17q6-13 10-14 5-1 11 2 10 3 10 10l5 42zm-3-23-2-19-9-2-1 1-3 7-6 14 2 4 1 1q6-7 11-8zm-22 4-1 2zm19-26"/><path fill="url(#b)" d="M701 650c0 2-2 42-12 56-11 14-26 21-32 19-6-3-19-45-20-46 1 1 14 21 25 19 10-3 17-27 19-39v-36z"/><path fill="#fff" d="m706 650-2 25q-5 26-12 36-7 11-19 17-11 6-18 3-8-3-22-50l8-6 8 9q8 9 12 8 5-1 9-13a109 109 0 0 0 6-56l8-5 21 27zm-10 3-9-13-2 21q-1 13-6 25-7 16-16 19-6 2-13-4l8 18 11-3q10-6 16-15 6-7 9-29z"/><path fill="url(#c)" d="M806 665c1-1 7-16 13-16 6 1 11 9 12 10l8-15c0-1-9-27-13-28-5-1-14 3-15 5z"/><path fill="#fff" d="m811 668-10-4 5-43q0-6 10-10 6-3 11-2 4 1 10 13l6 16 1 2q1 4-2 10l-7 13q-4 5-8 1v-1q-5-7-9-8l-4 6zm2-24 7-2q6 1 11 7l1-1 2-4-10-22-8 3zm22 3 1 2zm-19-25"/><path fill="url(#d)" d="M791 649c0 2 2 42 12 56 11 14 26 20 33 17 5-4 18-47 19-47-1 1-14 22-25 21-10-3-17-26-19-39v-36z"/><path fill="#fff" d="m786 650 1-5 21-28 8 4v34q2 12 6 22 4 11 9 12 4 1 12-8l8-10 8 6q-14 47-22 51-7 4-18-2-12-6-19-16-8-11-12-36zm10 2 2 19q3 21 9 29 7 9 16 13 8 4 11 3v-1l3-5 5-12q-7 6-13 4-9-1-16-18a121 121 0 0 1-8-46z"/><path fill="url(#e)" d="M655 641q-7 11-9 17-3 7 4 20c5 10 44 51 96 51s91-44 97-54q6-15 3-20-2-6-9-17c0 12-33 60-91 61-58 0-91-47-91-58"/><path fill="#fff" d="m651 636 9 5q0 3 5 9 6 11 16 18a98 98 0 0 0 130-1q10-9 17-19l4-9 9-6 9 16v2q5 9-3 27l-12 15q-9 10-21 19-33 24-68 24t-68-22l-21-18-12-14q-7-18-3-27v-2zm3 18-3 7-1 1q-2 3 4 13l8 10 20 17q31 21 64 21 33-1 64-23a144 144 0 0 0 28-28q6-10 4-13l-1-1-3-7-3 5a110 110 0 0 1-89 50 105 105 0 0 1-92-52"/><path fill="url(#f)" d="m835 716 9-23-5-3c-1 5-6 8-7 15q2 12 3 11"/><path fill="#fff" d="m840 717-1 2q-2 4-5 4l-2-1-1-2-2-3q-2-6-2-13 1-6 6-12l2-4 7-4 5 4 1 8zm-9-4-1 6 1 1z"/><path fill="url(#g)" d="M843 709c0-1 1-9-4-10-5 0-7 6-7 4q2-3 5-16l-1-15s2-11 10-12c9 1 9 9 9 13l-1 5z"/><path fill="#fff" d="M838 708v-3l-2 2q-1 3-4 3t-4-5v-4l1-4q3-4 3-10l-1-12v-3l3-9q6-10 13-9 8 0 11 7a29 29 0 0 1 0 19l-11 31zm5-15 7-18v-1q0-7-4-7-3 0-4 3l-1 2 1 14-1 6z"/><path fill="url(#h)" d="m657 719-9-22 5-4c1 5 6 8 7 14q-1 12-3 12"/><path fill="#fff" d="m652 720-8-20 1-9 5-4 7 4 2 3q5 7 6 13a28 28 0 0 1-4 16l-1 2-2 1q-3 0-5-4zm7 1 2 2 1-1-1-6z"/><path fill="url(#i)" d="M649 712c0-1-1-9 4-10 5 0 7 5 7 3q-3-3-5-15l1-15s-2-11-10-11c-9 1-9 9-9 13l1 5z"/><path fill="#fff" d="m654 711-9 4-11-30-2-9 2-10q3-7 11-9 7-1 13 9l3 8v3l-1 13 3 9 2 6v3q-2 5-5 5l-4-3-2-1zm-5-15 2-1-1-5 1-15-1-2q-1-3-4-2-4 0-4 6v2z"/><path fill="url(#a)" d="M686 666c-1 0-7-15-13-15-6 1-11 10-12 10l-8-14c0-1 9-28 13-29 5 0 14 3 15 4z"/><path d="m685 667-4-8q-5-7-8-7-5 0-11 10h-2l-1-2-3-5-4-8v-1l1-2q9-26 13-27l10 2 6 3 4 44zm-1-5-4-40-5-2-9-1q-3 1-12 26l-1 3 1 1 7 11q6-10 12-10 4 0 9 7zm-31-14"/><path fill="url(#b)" d="M701 650c0 2-2 42-12 56-11 14-26 21-32 19-6-3-19-45-20-46 1 1 14 21 25 19 10-3 17-27 19-39v-36z"/><path d="m702 650-2 24q-4 24-11 33-7 10-18 16-10 4-15 3-3-2-12-25l-7-21 1-1 8 10q10 9 16 8t12-15a115 115 0 0 0 6-59l2-1zm-1 1-19-25q2 22-1 33-1 14-6 24-6 15-13 16-7 2-17-9l-5-6 17 40q4 2 14-3 10-6 17-16 7-8 10-32z"/><path fill="url(#c)" d="M806 665c1-1 7-16 13-16 6 1 11 9 12 10l8-15c0-1-9-27-13-28-5-1-14 3-15 5z"/><path d="m807 665-1-1 4-43q0-3 7-4 6-3 9-2 4 0 13 26l1 2-4 10-4 6-2 1v-1q-6-9-11-9-3 0-8 7zm1-5 2-4q5-8 9-8 6 0 12 10l1-2 7-11v-1l-1-2q-9-25-12-25-3-1-9 2l-5 2zm31-15"/><path fill="url(#d)" d="M791 649c0 2 2 42 12 56 11 14 26 20 33 17 5-4 18-47 19-47-1 1-14 22-25 21-10-3-17-26-19-39v-36z"/><path d="m790 649 20-28h2v36l6 23q6 14 12 15 6 0 16-10l8-11 1 1-19 48q-5 3-15-2-10-6-18-15-7-9-11-33zm2 1 2 22q4 24 10 32 7 9 17 15 10 5 14 2 4-2 12-24l5-17-5 7q-10 10-17 10-7-1-13-16a115 115 0 0 1-7-57z"/><path fill="url(#e)" d="M655 641q-7 11-9 17-3 7 4 20c5 10 44 51 96 51s91-44 97-54q6-15 3-20-2-6-9-17c0 12-33 60-91 61-58 0-91-47-91-58"/><path d="m654 640 2 1q0 4 6 13 6 10 17 19a101 101 0 0 0 134-1l18-20q5-10 5-14l2-1 8 16 1 1q3 7-4 21-2 5-10 13-9 10-21 19-31 23-66 23-34 0-66-22-12-8-21-17-8-7-10-12-7-14-4-21l1-1zm0 3-7 15-1 1q-2 6 4 19l10 12 20 17q33 21 66 21 34 0 66-23l20-18 10-13q6-13 4-19l-1-1-7-14-6 13q-8 11-18 20a102 102 0 0 1-136 2l-18-19z"/><path fill="url(#f)" d="m835 716 9-23-5-3c-1 5-6 8-7 15q2 12 3 11"/><path d="M836 716h-1v-1l-1-2q-2-4-2-9l4-10 4-6h1l4 4v1zm-1-2 8-20-3-3-4 6q-3 4-3 8zm-1 2"/><path fill="url(#g)" d="M843 709c0-1 1-9-4-10-5 0-7 6-7 4q2-3 5-16l-1-15s2-11 10-12c9 1 9 9 9 13l-1 5z"/><path d="M842 709v-5q0-4-3-4l-6 3-1 1v-2l1-3 3-12v-15l2-6q3-7 8-7 10 1 10 14l-1 5-11 31zm2-5 10-27v-4q1-11-8-12-4 0-7 6l-2 5v15q0 6-3 13 3-3 6-2 3 0 4 6"/><path fill="url(#h)" d="m657 719-9-22 5-4c1 5 6 8 7 14q-1 12-3 12"/><path d="m656 719-8-22v-1l4-4 1 1 4 5 4 9a21 21 0 0 1-3 13h-1zm1-2 1-1 1-9-3-7-4-6-3 3zm1 2"/><path fill="url(#i)" d="M649 712c0-1-1-9 4-10 5 0 7 5 7 3q-3-3-5-15l1-15s-2-11-10-11c-9 1-9 9-9 13l1 5z"/><path d="M650 712h-2l-11-30-1-5q0-13 10-14 5-1 8 6l2 6v15l3 12 1 4q2 0 0 0v1l-1-1-6-3q-3 0-3 4zm-2-5q1-6 5-6l5 1-3-12v-15l-2-5q-3-5-7-5-8 1-8 12v5h1zm27-30-4-4-1 1 1 1v1l-5 11h-1v-1l-1 1 4 5 4 2q3 0 5-4 3-7-2-13m-2 0 1 1q3 4 1 10-3 6-7 2v-1zm3 22 9 6 1-4-1-1-1 2-4-2 2-6 2 1v2l1 1 2-5-1-1-1 2-2-2 2-5 3 2v1l-1 2 1 1 2-4-8-6-1 1 1 1v1l-4 12-1-1zm12 7 3 2q4 1 5-3l-1-4-1-3-1-3q0-2 2-2l1 1 1 1-1 2 1 1 1-4-3-2q-3-1-5 2l1 4q0 2 2 3l1 4q-1 3-3 2l-1-2h-1l1-3-1-1zm8 5 5 2 1-1-1-1h-1l3-13h2v-1l-5-3v1l1 1v1l-3 13h-1zm11-14v2h1v1l-2 13h-1l-1 1 5 2v-1l-1-1 1-6q2 1 2 5l1 4 2 1h2v-1q-3 0-2-2l-1-5-1-2q3 0 4-3 0-4-4-6zm3 3h1q3 1 2 4 0 4-3 3h-1zm8 19 9 1v-5h-1v3h-5l1-7h2v3h1v-6h-1v2h-2v-7l3 1h1v2l1 1v-5h-9v1h1l1 1-1 13v1h-1zm16-14v4h1l1-2v-1h2v15h-1v1h5v-1h-1l-1-1v-14h3v3h1v-4zm11 0v1l1 1 1 14h-2v2h5v-2h-1v-7h5v7h-1v1h5v-1h-1l-1-1v-13l1-1h1v-1h-6l1 1h1v6l-5 1v-7h1v-1zm14 17 10-2-1-4h-1v3l-4 1-1-7h3v2h1v-6h-1v2l-3 1v-7h4v2h1v-4l-9 2v1h2v14l-1 1zm14-21v2l1-1v1l2 13v1h-1v1l5-1v-1h-2v-6q2-1 3 2l2 3 2 1 2-1v-1l-3-1-1-4-2-1q3-2 2-5 0-5-5-3zm4 1 3 3q0 3-3 4h-1zm11 12 6-3v-1l-2 1v-1l-3-13 1-1v-1l-5 3v1l1-1 1 1 3 13h-1l-1 1zm12-15 1-1 1 1 1 5h-1q-4 2-6-4-2-7 3-10h2l1 3 1-1-1-4-4 1q-6 4-5 12 3 8 8 5 3 0 4-3l-1-6 1-1v-1zm3-11v1zv1l5 12-1 1v1l5-4-1-1-1 1-2-6 5-4 2 6-1 1v1l5-4v-1l-1 1h-1l-4-12v-1l1-1-1-1-4 4v1h2l1 5-5 4-1-5v-1l1-1-1-1zm12-11 1 4 1-1v-3l2-2 5 12-1 1v1l5-4v-1l-2 1-5-12 2-2 1 2 2-1-2-4z"/><path fill="#0072c4" d="M746 691s-93-40-93-186V315q92 11 186-3v189c0 70-22 119-45 148-23 32-48 42-48 42"/><path fill="#fff" d="m745 694-15-8q-17-12-32-31-48-58-48-150l1-193c63 5 125 7 190-4l1 192q0 92-48 154a159 159 0 0 1-47 40zm1-7q6-2 14-8 17-12 31-30 46-59 46-148l-1-185q-89 12-180 3l-1 186q0 89 46 146a149 149 0 0 0 45 36"/><path fill="#bcbcbc" d="m666 359 3-2 4-3 4-2 4-4v-7l4-3 5-2h5l5 3 4 4 3 4 4 3 5 4 2 4 4 4q2 3 6 2l5 1h5l6 1h5l6 1 5-1h5l6 1 5-1 6-1h7l5 1 4 2 4 4 3 6 2 7 1 7v8l-1 8-1 7v15l-1 7-3 9-3 4-1 3 1 5 1 7 1 6h-1q-2 2-3-1l-1-6-1-7q-1-4-3-3l-5-1q-2-1-2 3v8l-2 6-3 5q-1 3-4 3l-2-4 3-5 2-6-3-5-2-6-4-1-5 2h-5l-5 2h-4l-6 1-5-1-5-2-5 1-4 5-2 7-1 6-1 6q-1 5-3 2l-2-5 1-7q-2-3-3 0v6l-3 5-3 3v-10l1-7-2-7q0-3-3-4l-4-4-4-4-3-3q-3-2-3-5l-2-7-1-7-1-7-1-7-1-8v-15l-1-7-3-3q-1 3-4 2l-5-2-4-2-2-5-1-7z"/><path fill="#fefefe" d="M689 381q6-3 11-10c4-2 11 1 11-7l-6 12c-4 4 1 7 3 2q3-9 10-13v12c1-2 1-10 1-4-1 4 2 14 3 6l1 7c3 6 2-5 3-8q0-5 0 0v-1c1 3 0 13 3 5q3-6 0 0c-1 1 3-8 2-2q0 9 2 16c1-3 0-16 2-7 1 3 0 9 3 4q3-6 3-13c1-3 2-8 3-3 0 7 4 11 4 18q2-9 0-17c0-6 5-3 4 2 0 4 4 13 4 4q2-6 2 0c1 3 3 12 3 4l1-12q1 6 2 2c2 0 2 8 4 10 2 3 4 8 4 1 0-3-2-11-1-12q3 9 8 16c4 2 1-7 0-10-2-2-4-8-1-3q6 8 10 9-4-2 0 0c2 1-2-6-3-8q-5-5-5-9 5 4 8 11c2 2 5 6 3 0 2 0 7 7 6 1-1-3-6-8-5-9q1 3-1-1 7 3 11 12c1 2 2 12 0 6-3-1 2 8-2 8 0-3-3-8-2-3q3 12 1 24v11c-1 4-2-6-3-7 0-2-1-12-3-6 0 6 4 12 1 18-1 1-2 5-2 1q-2-8-6-14c-1-4-5-11-4-3l1 11-6-16c0 3 2 13 0 7q-1-9-7-14c-1 1 2 9 1 10-1-4-2-10-5-9l1 17c0 6-3-5-3-7-5-2 0 9-3 5q-4-3-4-10c-5-1-4 5-4 10 0 3-1 9-3 10v-14c1-3 0-9-2-6-1 6 2 13-1 18-2 2-5-3-8-2-3-3-2-11-5-15-3-3-1 14-3 6 1-6-5-8-5-2q3 4 2 9 1 7-2 0c0-4-6-7-5 0-3-2 0 10-4 7-5-4-7 2-12 1-3 1-9 2-5-4 4-3 5-11 10-7q6-1 12-7c2-3 1-8-2-5-3 5-10 5-13 5 3-3 9-3 8-9-3 1-7 5-9 2 1-1 4-4 1-3q-7 2-14 0c-4-6 6-4 7-8q-4 1-4-1 6 1 10-4 5-4 6-9c-5 3-8 8-14 5 4-4-1-5-4-5-2 1-8-2-3-2 3 1 6-4 2-4zm-23-11-1-8 4-5 7-5q3 0 5-4-1-5 1-8l6-3 8-1 6 4 4 5 4 5q2 1 0 2-1 3-4-2l-1 3-2-4q1-3-1-1c-1 2 2 5-1 4q-3-1-6 1 0 3 3 4h4q3-1 6 1 1 5-2 6l-5 2c-3 0-2 3-5 4l-5 1 2-5c2-3-2-3-2 0 0 2-2 5-1 1q1-3-1-3-4-1-3 2h-5q-2-5-5-2c-1 2-3-1-5 0q1 4 4 4h5q1 4-3 3l-6-2s-3 1-1 2q4-1 4 4h-6z"/><path fill="#bcbcbc" d="m674 358-1 1-4 3-1 1 3-1 3-1zm13-18 1 2 1 5 1-6-2-1zm5 1v2l1 5 1-4q1-4-2-3m10 46 1-2 3-2 4-3h2q0 3-2 3l-2 3q-2-1-2 2zm5 11 3-4 3-3 2-5 3-4v6l-1 4-2 3-3 3-3 1q0 2-2-1m-8 9 1-1 4-3 3-1h2q1 2-1 3l-2 2-4 1-2-1 2 1zm12 0v-2q1-3 3-3 1-2 3-2v4l-2 3q-1 2-3 2z"/><path fill="#c4c4c2" d="m678 356 2-1q0-2 2-3l2 2q2 0 3 2 2 0 0 1h-3l-3 1q-2 1-3-2"/><path d="m678 356 2-1 1-3h1l3 2 1 1 2 1 1 2-1 1h-4l-3 1q-2 0-3-2zm1 0 2 2 3-1 3-1-2-1h-1v-1l-2-1-2 2v1zm5-1-2 2-1-2 1-2z"/><path fill="#005121" d="M687 465c-3 0-2-1 4 6q3-4 5 2 1 3 3-3c1 6 1 12 4 7q6 0 9 2c3 5 1-1 4 1 4 1 4-5 10-7 3 5 4 1 8-2 4 2 6 8 7 2q3-9 4 0c3 2 4-2 6-4q5 5 13 2 2 6 5 1 6 5 13-1c2-4 1 0 3 3 4-2 3-2 8-2q5 1 6-5 3 6 7 1c5 0 3 0 6-2 3 6 3 2 6 4q-3 9-8 13-2 10-8 13l-9 12q-7 3-16 3l-15 1h-31q-6 3-13 4-8 1-15-2l-8-11-5-11-4-16z"/><path fill="#002b0e" d="m684 466 2-1v-1h1l1-1v2l4 5 3-2 2 5h1v-1l1-3 2-1v3l2 7 1-2h2q6 0 8 2l1 2v-1h2l4-3 5-4h1l3 3 2-2 3-3h1l3 3 2 1v-2l3-5 3 5 1 1 1-2 2-3h1q5 5 13 2l1-1v1l1 3 2-1 1-1h1l5 2 6-2 2-3 1 2 1 3 2-1 6-1 4-1 1-3 1-2 1 1v1l3 2 2-2h3l3-1 1-1 1-1v1l1 3h1l3 1h1v1l-8 14-1 2q-3 9-7 11l-10 12q-4 3-15 3h-1l-46 1q-2 2-11 4h-3l-14-2-4-5-5-6-3-7-1-5-3-8-2-8v-10zm4 2v7l2 9 4 13 2 5 5 7 4 4q3 2 13 2h3l11-4 46-1h1q10-1 14-3l3-3 7-8v-1q3-1 6-9l1-3 1-1 7-12h-1q-3 2-4-3l-4 2h-2l-4 3-3-3q0 3-2 3l-4 1h-1l-5 1-2 1v1l-1-1-1-4-1 1-7 3-6-2v1l-3 1-3-3q-8 3-12-1l-1 1-2 3q-2 1-3-2l-2-3-1 3-2 4-3-2-3-3-2 2-3 3-4-3-4 4q-2 5-6 3l-2 1-1-3-7-1h-1l-2 2-2-2-1-5h-1l-1 2q-1 1-2-1l-1-4-2 2-1 1v-1z"/><path fill="#005121" d="M794 478v2q1-6-3 6 0 4-3 4z"/><path fill="#002b0e" d="M794 478v2l-2 7q-1 3-4 4v-2l3-3 3-9z"/><path fill="#005121" d="M784 485q-6 7-8 15zq-6 7-8 15z"/><path fill="#002b0e" d="M784 484h3l-2 2-7 15-2-1 6-13 2-2z"/><path fill="#005121" d="m768 478-1 8z"/><path fill="#002b0e" d="m769 478-1 9-2-1 1-8zm-4 12v1h-2v-1zm-10-11h1v2h-1z"/><path fill="#005121" d="m693 479 6 8q-2 8 0 15z"/><path fill="#002b0e" d="m693 478 2 3 4 6h1v14l-2 1v-14l-5-8z"/><path fill="#005121" d="m702 489 6 8zl6 8v2l1-13c1 3 2 8 3 3q8 0 13-4l1 3z"/><path fill="#002b0e" d="m702 488 1 2 3 4 1-8 1-2 1 2v1l1 3v-2h1q5 0 10-3l3-1h1v2l1 2-1 1-1-1v-1h-2l-10 4-1 1h-2l-1-3v10h-2v-1l-4-6-3-4z"/><path fill="#005121" d="M801 479h1l-5 12z"/><path fill="#002b0e" d="M801 478h3l-1 2-4 7-2 4-1-1 2-4 3-7zm-45-2h9v2h-9z"/><path fill="#fff" d="M684 488c-13-1-17 17-31 16v1q0 19 2 37c12-1 16-17 29-17 13 2 18 20 31 21 13 0 18-18 31-19 13 0 18 18 31 18 13-1 18-19 31-21 13-1 17 15 29 15q3-18 2-38c-14 1-18-16-31-15-13 2-18 20-31 21-13 0-18-17-31-18-13 1-18 19-31 19-13-1-18-19-31-20m0 73c-10 0-15 10-23 15l10 29q6-5 13-6c13 1 18 19 31 20 13 0 18-18 31-18s18 18 31 18c13-1 18-20 31-21q7 0 13 5l10-30c-8-4-13-14-23-13-13 2-18 20-31 21-13 0-18-18-31-18-13 1-18 18-31 19-13-1-18-19-31-21m62 76c-13 0-18 18-31 18-12-1-17-17-29-20 16 25 34 40 46 48 4-4 8 5 14 5 6-1 10-9 14-6 12-8 30-23 45-48-11 4-16 20-28 21-13 0-18-18-31-18"/><path fill="#522108" d="m664 569 13-4 10 14 11 16-17 3zm1 1 16 27 16-3-10-14-10-15zm38 38 10-43q-9 36-9 43zm3 0 4-21 3-22h1l-3 22-4 21zm3 0 3-21 3-22-3 22zm-3-12 5-2v1zm1-5 5-2v1zm1-6 4-1 1 1zm2-5h3v1h-2zm48 57q0-11-11-74h1zm-4-2-4-36-4-35 1-1 4 36zm-3-6-3-32-3-33v-1l3 34zm7-1-7-4v-1zm-3-11-5-2v-1q3 3 5 2zm-1-8-5-3v-1zm-1-10-5-2v-1l6 2zm-2-10-2 1h-2v-1zm-1-8-4 2v-1zm36 24-6-2 1-1q3 3 5 2zm3 14-11-54zm-4-1-4-26-4-27 4 27zm-4-4-3-24-3-24 1-1 3 25zm4-16-6-1 1-1zm-1-7-6-1v-1zm-2-7-4 1zm-1-6-4 2v-1z"/><path fill="#dd8b59" d="m742 627 1-129h4l-1 129z"/><path fill="#522108" d="M742 627v-65l1-65h3l1 1v64l-3 66h-2zm1 0h2V498h-2l-1 65z"/><path fill="#dd8b59" d="m778 502-1 97v12l-3 5 1-114z"/><path fill="#522108" d="M778 502v55l-1 55-3 5 1-115zm-1 1h-2v111l2-3z"/><path fill="#dd8b59" d="M715 602v-96l-2-1v96z"/><path fill="#522108" d="m715 603-3-2 1-97 2 1zm0-1v-96l-2-1v95z"/><path fill="#dd8b59" d="m701 567 26-5v5l-25 3z"/><path fill="#522108" d="m701 566 26-5v7l-25 3zm1 1 1 3 23-3 1-5z"/><path fill="#dd8b59" d="m701 537 30-10v3l-26 9-4 1z"/><path fill="#522108" d="M701 536q2 1 30-10v5l-30 10zm1 1v3l29-10v-3z"/><path fill="#dd8b59" d="m702 522 1 4 23-10v-3z"/><path fill="#522108" d="m703 522 3-1 10-4 10-3v3l-24 11v-1zm0 0v4l23-11v-1h1l-1-1-9 4-10 4z"/><path fill="#dd8b59" d="m734 515 24-11v5l-20 8-2 1z"/><path fill="#522108" d="m734 515 24-11v5l-22 10-3-4zm0 0 2 3 22-10v-3zm24-7"/><path fill="#dd8b59" d="m732 529-1 4 31-11v-3z"/><path fill="#522108" d="m732 528 30-10v4l-15 6-16 6v-5zm0 1v4l15-6 15-6v-2z"/><path fill="#dd8b59" d="M733 565v4l26-5-1-3z"/><path fill="#522108" d="m733 565 25-4 1 3-26 5zm0 1v2l25-5v-2z"/><path fill="#dd8b59" d="M763 568v3l26-7v-3z"/><path fill="#522108" d="m763 568-1-2zl21-5 5-2 1 2v2l-27 7zm0 0v2l26-8v-1l-5 1z"/><path fill="#dd8b59" d="M763 535v3l31-13v-4c-1 1-30 15-31 14"/><path fill="#522108" d="M762 535a138 138 0 0 0 31-13v4l-31 14zm1 0v3l31-16-4 2z"/><path fill="#dd8b59" d="M766 518v3l23-10v-3c-3 1-22 11-23 10"/><path fill="#522108" d="m766 517 18-8 6-2v1l-1 2-12 6-12 4v-3zm0 1v3l11-5 11-4 1-2v-1l-5 2q-15 7-18 7"/><path fill="#fecf3e" d="M717 528q3-3 1-5c1 0 3 3 5 1q3-6 2-8c-1 1-16 8-20 8q5 4 12 4"/><path fill="#522108" d="m717 529-11-4-1-1 11-4 9-4v3q0 4-2 5h-4q0 4-2 5m-1-1q2-1 2-4v-1h1l4 1 2-5v-2l-19 7h1q7 5 9 4"/><path fill="#fecf3e" d="M767 521s1 5 3 5l4-3s1 4 4 4c3-2 4-7 4-7h4l2-9z"/><path fill="#522108" d="m766 521 23-11-1 1-2 9h-4q-1 6-4 7-3 2-4-4l-3 3q-1 1-3-2zm1 0 1 3 2 2 4-4v1q1 5 4 3 3-1 4-6v-1l4 1 2-8z"/><path fill="#fecf3e" d="m765 571 3 4 3-3c1 1 1 5 5 4q6-4 5-7-1 1 2 2c3 0 6-6 6-7z"/><path fill="#522108" d="m765 571 20-6 4-1v1l-2 3q-2 4-4 4l-2-1v1l-5 4q-4 1-5-3v-1 1l-3 2-3-1zm16-1 2 1 4-3 1-3-3 1-20 5 1 2 2 1 2-2 1-1v1h1q1 5 4 3zl1-1v-1z"/><path fill="#fecf3e" d="M765 538s-4 5-3 13l3 14s4-9 9-11c4 0 12 5 12 5l-1-18c1-6 7-16 7-16z"/><path fill="#522108" d="m764 537 28-13-1 1q-6 10-6 16v19q-8-6-12-5-3 0-8 9l-1 2-3-15a24 24 0 0 1 2-14m1 1-2 4-1 9 3 14 1-1q4-10 8-10 4-1 12 4l-1-17q0-5 6-15z"/><path fill="#fecf3e" d="M702 571s0 4 3 3l4-3s0 5 4 5c4-1 6-6 6-6 1 0 1 4 3 3l4-5z"/><path fill="#522108" d="m702 570 1 1 5-1 1-1v1l11-1v-1l6-1v1q-1 4-4 5-2 2-2-1l-1-1q-2 5-6 6-3 0-4-3v-2l-4 3-2-1-1-2v-1zm7 1 1 3 3 2q5-1 6-6v-1zm11-2v2l2 1q3-2 3-5zm-17 3v1l2 1q3-1 3-3z"/><path fill="#fecf3e" d="M702 540q-2-1-2 11l4 15c0-1 3-9 8-10 4-1 11 4 11 5l1-16q2-13 5-14z"/><path fill="#522108" d="m702 540 26-9 1-1v1q-4 6-5 14v16h-1q-7-6-11-5t-7 9l-1 1-2-4-2-11v-9zm0 1-1 1-1 9 4 14v-1l7-9q5-1 12 5l1-16q0-6 4-12z"/><path fill="#fecf3e" d="M734 517c2 1 4 5 6 4l3-4c0 1 0 6 3 5q4-2 3-5 1 2 4 0c2-2 3-9 3-9z"/><path fill="#522108" d="m734 516 22-9v5l-3 6h-4q0 4-3 5l-2-1-1-2v-2l-3 4q-1 1-4-3l-2-2zm1 1 2 2q2 3 3 2l3-4 1-1v6h2q2-1 3-5h4l2-5 1-4-7 3z"/><path fill="#fecf3e" d="M734 532q-3 3-3 17 2 13 4 15s6-8 10-10c5-1 11 5 11 5l-1-13c0-6 5-24 5-24z"/><path fill="#522108" d="m733 531 27-9-5 24 1 12 1 1h-1l-1-1-2-2-8-2-9 9-1 1-2-5-2-10zm23 27-2-12 5-23-25 9-1 2a38 38 0 0 0 0 25l2 4 1-1q6-7 9-8t8 1z"/><path fill="#fecf3e" d="M734 569q0 3 3 4 4-1 3-4c0 1 0 6 4 6 4-1 5-6 5-6s0 3 4 1l7-6c-1 0-25 6-26 5"/><path fill="#522108" d="m733 569 26-6v2l-2 2-5 4h-3l-1-1q-2 5-5 6-3 0-4-3v-1l-3 2-3-3zm1 0 1 2 2 2q2 0 3-4v1l1 2q0 3 3 3 3-1 5-6l1 1h3l6-6-2 1q-20 5-23 4"/><path fill="#dd8b59" d="M702 605s4 54 45 53c42-3 53-57 53-57l-18 1s-14 25-32 25-24-6-28-12l-8-13-21-13 2 12z"/><path fill="#522108" d="m702 606-8-5-1-12 22 13 7 13 9 8q7 4 19 4 16 0 31-24l1-2h19v1q-3 13-11 27-16 27-43 29-26 1-38-26a87 87 0 0 1-7-26m0-1 2 9 5 18q13 27 38 25 26-1 42-29 9-13 11-26h-18v1q-16 25-32 25-13-1-19-5-5-2-9-7l-8-14-20-12 1 11z"/><path fill="#dd8b59" d="m814 597-1-7v-6l2-7-31 10-1 12z"/><path fill="#522108" d="m815 597-32 3v-13l1-1v1l31-10h1l-3 7v6zm-31-10v12l30-3-1-6v-6l2-6zm0 0"/><path fill="#dd8b59" d="M808 584v11h5l-1-11z"/><path fill="#522108" d="m808 584 5-1v12l-6 1zm1 1-1 10 4-1v-10z"/><path fill="#dd8b59" d="M803 585v12l3-1v-11z"/><path fill="#522108" d="m803 585 4-1-1 12-4 1zm0 1v10l3-1v-10z"/><path fill="#dd8b59" d="M798 597v-9l3-2v9z"/><path fill="#522108" d="m797 588 4-2 1 9-5 3zm1 8 3-1v-8l-3 2z"/><path fill="#dd8b59" d="m791 597 1-8h4v9z"/><path fill="#522108" d="m791 597 1-8h4v9zm1 0h4v-7h-4z"/><path fill="#dd8b59" d="M785 598v-7l4-1v8z"/><path fill="#522108" d="m784 597 1-7h4v8zm1 0h3v-7l-3 1z"/><path fill="#dd8b59" d="m781 602 34-2 1-4-36 3z"/><path fill="#522108" d="m781 602-1-4 36-2v4zm0-1 34-1v-3l-34 2z"/><path fill="#dd8b59" d="m782 589 34-11v-6l-29 12-5 1z"/><path fill="#522108" d="M782 589v-4l34-13 1 1v5h-1q-30 12-34 11m1-1q5 0 33-11l1-4h-1l-33 13z"/><path fill="#dd8b59" d="m663 569 28 21-1 2-27-20z"/><path fill="#522108" d="m663 568 28 22-1 3-27-21zm1 2v2l26 20v-2z"/><path fill="#dd8b59" d="m676 564 6 34-4-33z"/><path fill="#522108" d="m675 563 3 1 2 17 3 16v1h-4v-1zm1 2 4 32h2l-2-16-2-16zm55 60q0-9 11-58-10 49-10 58zm4 0 4-29 4-28h1l-5 29zm2 0 4-28 3-29h1l-4 29-3 28zm-6-8 8-3-7 4zm3-8 5-2h1zm1-6 6-3v1zm1-9 6-1-6 2zm3-6h3v1h-2zm1-7 4 1v1zm22 43q0-8 11-56zm3-2 4-27 5-26-4 27zm4-4 3-25 3-24h1l-3 25zm-7-1 7-4 1 1zm3-8 5-3v1q-3 3-5 2m1-6 5-3v1zm1-8 5-2 1 1zm3-7h3v1l-4-1zm0-7 4 1v1l-4-1zm-43 38q0-8-11-56h1zm-4-2-4-27-4-27h1l4 27zm-3-4-3-25-3-25 3 25zm7-1-7-3v-1zm-3-8-5-2v-1zm-1-7-5-1v-1zm0-7-6-2v-1zm-3-7-4 1v-1zm-1-6-4 1v-1z"/><path fill="#b6b6b4" d="M693 590c-1 0-7-2-7 1q1 4 4 6c0 2-1 7 1 7q4 0 4-4v-8z"/><path fill="#522108" d="m693 589 2 2v1l1 8-2 3-3 2-2-2v-3l1-2-2-3-2-4q-1-2 1-2zm0 1h-7l2 5 2 2v6l1 1 3-2 1-2v-8zm8 14 9 3 9 17-1 1-8-17-9-3zm6 3q4 10 10 19 12 15 32 15 22 0 34-20 7-11 9-20-2 9-8 20-13 21-35 21-20 0-33-16-6-8-9-19m91-5-12 27q-17 26-37 24-21-3-31-13-5-6-9-17l-4-16 1-1 4 17q3 10 9 16 9 11 30 13 19 2 36-24 8-12 12-26zm-10-41 2-33zm26 14-23-49h1zm-68-76 2 1 9 6 20 37 20 37a884 884 0 0 1-40-74zm31 6 11 6 3 11h-1l-3-11zm-63 0 1 2 4 4 6 6 1 11-2-10-5-6-4-5zm-39 73q5-2 40-45v1q-35 42-40 45zm-10-9 20-22 20-23v1l-20 23zm67-37 37 88h-1zm33 36 2 11 6 13 10 7-1 1-9-8q-3-1-6-13l-3-10zm-1 1 2 12 5 16 9 10-9-9q-3-3-5-16zm-30-2 3 18q4 19 10 24l16 14v1l-16-14q-6-5-10-24zm0 0 5 14 12 21q7 8 19 15l-1 1q-11-7-18-16-6-5-12-20zm-31 1 3 11q0 9 2 11l8 14-1 1-7-14-3-12zm1 1 3 8 5 15 20 31v1l-21-31z"/><path d="M726 625q0 3-3 3l-3-4 3-3q3 0 3 4"/><path fill="#522108" d="M726 625q0 3-3 4-3-1-3-5l1-3 2-1 2 2zm0 0q0-4-3-4l-2 1v5l2 1q3 0 3-3"/><path d="M739 633q0 3-2 3t-3-3q1-3 3-3t2 3"/><path fill="#522108" d="M739 633q0 3-2 4-3-1-3-4l1-3 2-1 2 1zm0 0q0-3-2-3l-2 1v4l2 1q2 0 2-3"/><path d="M756 635q0 3-2 3t-3-3l3-4z"/><path fill="#522108" d="M756 635v2l-2 1q-3 0-3-3l1-3 2-1q3 0 2 4m0 0-1-2-1-1q-2 0-2 3v2l2 1q2 0 2-3"/><path d="m771 626-1 3h-2l-1-3 1-2h2z"/><path fill="#522108" d="M771 626v2l-2 1h-2v-5l2-1q3 0 2 3m0 0q0-2-2-2l-2 2q0 3 2 3l1-1z"/><path d="m783 616-2 3q-2 0-2-3-1-3 2-4z"/><path fill="#522108" d="M783 616q0 3-2 3l-2-1-1-2q0-4 3-4l1 1zm-1 0-1-3q-2 0-2 3v2l2 1z"/><path fill="#ff0101" d="m713 506-17 6c3 0 16 5 17 4z"/><path fill="#522108" d="M713 505v11h-1l-1-1-6-1-9-3v-1h1l5-2zm-1 1-10 4-4 1 13 4 1 1z"/><path fill="#ff0101" d="M744 498q-7 2-11 6l11 4z"/><path fill="#522108" d="M744 498v5l1 4-1 1h-1l-2-1-9-3h1v-1h1l4-2zm-1 1-10 5h2l9 3v-4z"/><path fill="#ff0101" d="M775 503c-1 0-12 4-11 5 3 1 10 4 11 3z"/><path fill="#522108" d="M775 502v9h-2l-9-4v-1l2-1zm0 1-3 1-7 4 8 3h1z"/><path fill="#be1017" d="m737 541 2 3q0 3-2 3t-2-3 2-3"/><path fill="#522108" d="m737 541 1 1 1 2q0 3-2 3t-2-3v-2zm0 1h-1l-1 2 1 2h1l1-2z"/><path fill="#be1017" d="m750 537 2 2q0 3-2 3t-2-3z"/><path fill="#522108" d="m750 536 1 1 1 2q0 4-2 3-3 0-2-3v-2zm0 1-1 1-1 1q0 2 2 3l1-3v-1z"/><path fill="#be1017" d="m743 546 2 3q0 3-2 3t-2-3z"/><path fill="#522108" d="m743 546 2 1 1 2-1 3h-2q-2 0-2-3l1-2zm0 1-1 2v2l1 1q2 0 2-3 1-2-2-2"/><path fill="#be1017" d="M743 532q2 0 2 2 0 3-2 3t-2-3z"/><path fill="#522108" d="M743 531q3 0 3 3l-1 3h-2q-2 0-2-3l1-2zm0 1v3l1 1q2 0 2-3v-1z"/><path fill="#be1017" d="M743 539q2 0 2 3l-2 2-2-2z"/><path fill="#522108" d="m743 539 2 1 1 2q-1 3-3 3l-1-1-1-2 1-3zm0 0-1 3 1 2 2-2v-2z"/></svg>