<svg xmlns="http://www.w3.org/2000/svg" viewBox="0 0 1000 1000"><defs><linearGradient id="a" x1="826.45" x2="786.124" y1="419.932" y2="396.11" gradientTransform="matrix(.82 .06346 0 1.12 8 134.654)" gradientUnits="userSpaceOnUse"><stop offset="0" stop-color="#a43907" stop-opacity=".996"/><stop offset="1" stop-color="#fff"/></linearGradient><linearGradient id="b" x1="851.569" x2="763.033" y1="436.067" y2="419.673" gradientTransform="matrix(.82 .06284 0 1.12 8 135.158)" gradientUnits="userSpaceOnUse"><stop offset="0" stop-color="#a43907" stop-opacity=".996"/><stop offset="1" stop-color="#fff"/></linearGradient><linearGradient id="c" x1="1016.15" x2="974.919" y1="398.539" y2="400.941" gradientTransform="matrix(.82 -.10646 0 1.12 8 289.426)" gradientUnits="userSpaceOnUse"><stop offset="0" stop-color="#a43907" stop-opacity=".996"/><stop offset="1" stop-color="#fff"/></linearGradient><linearGradient id="d" x1="1033.335" x2="945.904" y1="421.219" y2="428.645" gradientTransform="matrix(.82 -.09953 0 1.12 8 282.549)" gradientUnits="userSpaceOnUse"><stop offset="0" stop-color="#a43907" stop-opacity=".996"/><stop offset="1" stop-color="#fff"/></linearGradient><linearGradient id="e" x1="1023.357" x2="776.646" y1="445.132" y2="445.132" gradientTransform="matrix(.82 -.00733 0 1.12 8 195.251)" gradientUnits="userSpaceOnUse"><stop offset="0" stop-color="#a43907" stop-opacity=".996"/><stop offset="1" stop-color="#fff"/></linearGradient><linearGradient id="f" x1="783.43" x2="1144.088" y1="462.503" y2="465.421" gradientTransform="matrix(.82 -.07047 0 1.12 8 254.155)" gradientUnits="userSpaceOnUse"><stop offset="0" stop-color="#a43907" stop-opacity=".996"/><stop offset="1" stop-color="#fff"/></linearGradient><linearGradient id="g" x1="1032.128" x2="1002.941" y1="442.287" y2="444.033" gradientTransform="matrix(.82 -.13315 0 1.12 8 316.29)" gradientUnits="userSpaceOnUse"><stop offset="0" stop-color="#a43907" stop-opacity=".996"/><stop offset="1" stop-color="#fff"/></linearGradient><linearGradient id="h" x1="775.747" x2="803.908" y1="471.718" y2="476.185" gradientTransform="matrix(.82 .0732 0 1.12 8 126.89)" gradientUnits="userSpaceOnUse"><stop offset="0" stop-color="#a43907" stop-opacity=".996"/><stop offset="1" stop-color="#fff"/></linearGradient><linearGradient id="i" x1="803.177" x2="755.308" y1="466.888" y2="440.32" gradientTransform="matrix(.82 .07902 0 1.12 8 122.316)" gradientUnits="userSpaceOnUse"><stop offset="0" stop-color="#a43907" stop-opacity=".996"/><stop offset="1" stop-color="#fff"/></linearGradient></defs><path fill="#00247d" d="M8 195.3c170.8-85.3 341-54.5 513.3-28C676.5 191 833.4 211.8 992 132.7v672c-170.8 85.3-341 54.5-513.3 28C323.5 809 166.6 788.1 8 867.2z"/><path fill="#fff" d="M8 195.3a522 522 0 0 1 55-23.7c63 20.3 126 54.4 191 98.2a1945 1945 0 0 1 191-114.2l55 8.4 11 31.8c-66.7 35.2-133.3 69.9-202 113C375.6 358 442.3 414 511 471.5l-22 56.7C411.5 463.5 334 398.9 254 345A1230 1230 0 0 0 19 556L8 531.4v-37.6C71 419.2 134 360.3 199 310c-63-37.3-126-65.2-191-77.2z"/><path fill="#cf142b" d="M254 307.3q18 0 36.7.6c71.5 51.4 143 111.5 216.6 173.2L500 500c-81.1-68-162.3-136.2-246-192.7v25A1232 1232 0 0 0 15.3 547.8L8 531.2a1240 1240 0 0 1 246-223.9 716 716 0 0 0-36.7 1.3c-69-42.9-138.1-75.2-209.3-88.3v-25c81.2 14.9 162.3 55.7 246 112v-25c69.1-47.8 138.2-86 209.3-124L500 164c-81.2 42.9-162.4 85.5-246 143.3"/><path fill="#fff" d="M295 140v112c94.7 4 189.4 22.8 287 36.2v112c-94.7-13-189.4-32.1-287-36.2v168a755 755 0 0 0-82 .9v-168A530 530 0 0 0 8 419.3v-112a531 531 0 0 1 205-54.4v-112q40.3-2.6 82-.9"/><path fill="#cf142b" d="M278.6 139.5V274c100.1 2.3 200.2 22.6 303.4 36.7v67.2c-100-13.7-200.3-34.3-303.4-36.7v190.4q-24.2-.5-49.2.5V341.6A535 535 0 0 0 8 396.9v-67.2c73.1-36.5 146-52 221.4-55.3V140q24.2-1 49.2-.5"/><path fill="#00247d" d="M8 531.3C170.7 450 332.5 474 500 500V164c161.8 25 325.4 51.9 492-31.2v672c-170.8 85.2-341 54.4-513.3 28-155.2-24-312.1-44.6-470.7 34.5z"/><path fill="url(#a)" d="M685.7 666c-.2-.5-6.8-15.2-12.8-15.3-6 1.2-11.2 10-11.7 10.8-.6-.3-8.5-13-8.6-14.1.5-1 9-28 13.7-29.4 5-.5 14.1 3.1 14.7 4.3z"/><path fill="#fff" d="M681.5 669.3a57 57 0 0 0-3.7-7q-3.2-5-4.3-4.9-3.2.6-8.3 8.2l-.5.8c-2.4 2.9-4.3 2.7-7.2-.5l-1.4-2a151 151 0 0 1-6.2-10.2c-2.3-4.4-2.7-7.4-1.4-10.3l.6-1.8q3.4-10.3 6-16.3c3.8-9 7-13.2 10.3-14a26 26 0 0 1 10.9 1.7c6.5 2.3 9.4 5.1 9.6 9.6l4.7 42.7zm-3-23.1-2-19.4a31 31 0 0 0-8.8-2.2l-.8 1.3a60 60 0 0 0-3.2 6.7q-2.2 5.3-5.4 14.6l2 3.5.7 1c3.9-4.7 7.4-7 11.2-7.7 2.2-.1 4 .5 6.4 2.1m-21.1 3.4q-.9 2.2-1.3 2.8a8 8 0 0 0 1.3-2.8m18.7-25.6"/><path fill="url(#b)" d="M701.2 650.2c0 1.4-2.5 41.8-12.4 56-10.5 14-26.1 21.2-32.3 18.7-5.7-3.4-18.9-45.2-19-45.7.3.5 13.7 20.7 24.5 19 10.5-3 16.6-26.7 18.6-39.1 1.8-12.2.4-36 .4-36.1z"/><path fill="#fff" d="M706.2 650.4q0 8-2.6 24.6-4 26-11.2 36a59 59 0 0 1-19.3 17c-7.9 4.2-13.4 5.2-17.9 3.3-5.4-2.8-12.7-19-22.2-49.9l8-6.5q3.3 4.9 7.6 9.5c5.4 5.5 9.1 7.6 12.3 7.2 3.2-1 6-4.9 9.2-12.8q3.8-9.7 5.7-21.5 1.8-11 .3-34l8.3-5 20.2 27.2zm-10 2.4-9.6-13q0 12.8-1.2 21-2.1 13.5-6.5 24.8c-4.6 11.5-9.6 17.6-15.8 19.2q-5.8 1.3-12.8-3.5 2.7 7.4 4.9 12a45 45 0 0 0 3 5.4c2.2.5 5.5-.3 10.8-3.2a50 50 0 0 0 16.2-14.1q5.4-7.4 8.8-29.6 1.9-12.4 2.2-19"/><path fill="url(#c)" d="M806.3 664.6c.3-.6 6.9-15.5 12.9-15.9 5.9 1 11 9.3 11.6 10.1a108 108 0 0 0 8.6-14.6c-.5-1-9-27.3-13.6-28.5a29 29 0 0 0-14.8 5z"/><path fill="#fff" d="m810.5 667.7-9-3.7 4.6-42.8c.2-4.6 3-7.5 9.6-10.1q6.9-2.5 11-2.2c3.2.6 6.4 4.7 10.3 13.4a268 268 0 0 1 6 15.9l.6 1.7v.1c1.2 2.7.8 5.8-1.4 10.3a159 159 0 0 1-6.3 10.8l-1.4 2c-2.9 3.4-4.8 3.6-7.2.9l-.5-.7c-3.4-5.2-6-7.5-8.3-7.8q-1-.1-4.3 5.1a60 60 0 0 0-3.7 7m3-23.2a10 10 0 0 1 6.4-2.4c3.8.4 7.2 2.6 11.2 7.1l.6-1 2-3.6q-3-9.3-5.4-14.4a57 57 0 0 0-4-7.7 24 24 0 0 0-8.8 2.5zm21 2.3a7 7 0 0 0 1.3 2.7q-.5-.6-1.2-2.7M815.8 622"/><path fill="url(#d)" d="M790.8 649.2c0 1.4 2.5 41.8 12.4 55.6 10.5 13.7 26 20.2 32.3 17.2 5.7-3.7 19-46.5 19-47-.3.5-13.7 21.8-24.5 20.6-10.5-2.4-16.6-25.9-18.6-38.2-1.8-12-.4-36-.4-36z"/><path fill="#fff" d="m785.9 649.6 1.5-5 20.2-27.8 8.3 4.6q-1.4 23 .3 34 2 11.9 5.7 21.3c3.2 7.7 6 11.4 9.3 12.2 3 .3 6.8-2 12.2-8q4.5-4.8 7.6-10l8 5.9c-9.5 31.7-16.8 48.4-22.2 51.5-4.4 2.2-10 1.6-17.9-2.2a55 55 0 0 1-19.2-16.3q-7.3-9.8-11.3-35.7-2.5-16.5-2.5-24.5m9.9 2q.4 6.7 2.2 19 3.4 22 8.8 29.3a46 46 0 0 0 16.2 13.4c5.4 2.6 8.6 3.3 10.8 2.6l.6-.8q1-1.7 2.4-4.8 2.2-4.8 5-12.3c-4.9 3.6-8.8 4.9-12.9 4.3-6.2-1.3-11.2-7.1-15.8-18.4q-4.3-11.1-6.5-24.6-1.3-8.1-1.2-21z"/><path fill="url(#e)" d="M655 641c-4.7 7.4-7.2 13.1-9.2 17.4-1.8 4.4-.8 10.4 3.7 19.8 5 10 44.5 51.3 96.5 51.2 52.1-.9 91.3-44 96.5-54.6 4.5-9.7 5.5-15.7 3.7-20-2-4.1-4.5-9.7-9.1-16.8-.3 11.6-32.8 59.9-91 60.8-58.4.1-90.9-46.4-91.2-57.8"/><path fill="#fff" d="m651.1 636.4 8.7 5q.2 2.2 4.7 9a98 98 0 0 0 81.5 41.7c24.7-.3 46-8.8 65-25.3q10-9 16.5-18.8 4.5-7.1 4.7-9.3l8.7-5.5q4.4 6.6 8.9 16.1l.6 1.3c2.9 6.5 1.7 15.3-3.8 27.4a68 68 0 0 1-11.2 14.8q-9.5 10.2-21.5 19A117 117 0 0 1 746 736q-34.8 0-67.9-22.5-12-8.4-21.5-17.9a63 63 0 0 1-11.1-14c-5.6-11.8-6.8-20.4-3.9-27.2l.5-1.1q4.5-10 9-17m3 17.3-3.5 7.4-.5 1.1c-.7 2 .3 5.8 3.5 12.5A53 53 0 0 0 662 685q8.8 8.9 20 16.6c21 14 42 21.1 64 21q32.5-.3 63.8-22.6 11.2-8.2 20-17.5 6.9-7.5 8.6-10.9c3.1-6.8 4.1-10.7 3.4-12.7l-.6-1.3-3.4-6.9q-1.4 2.7-3.3 5.7-7.5 11.3-18.8 21.6a104.4 104.4 0 0 1-139.5 1.8 104 104 0 0 1-22.2-26"/><path fill="url(#f)" d="m834.8 716 9-22.6-4.6-3.8c-1.6 5.7-6 8.4-7.2 15-.4 7 3.4 12.8 2.8 11.3"/><path fill="#fff" d="m839.6 717.2-.6 1.9q-1.8 4.2-5.1 3.8a4 4 0 0 1-1.7-.7q-.7-.6-1.5-1.7l-1.7-3.3a27 27 0 0 1-1.8-13q.7-5.9 5.3-12.5 1.8-2.7 2-3.5l7.6-4.4 4.5 3.7 1.4 8.6zm-9-3.8a9 9 0 0 0-.3 5.8l.3 1z"/><path fill="url(#g)" d="M842.9 708.7c0-.6 1.4-9-3.5-10-5.2.3-7.5 6-7 3.8 1-2.9 3.7-6.1 4.3-15.6.3-9.5-.4-14.4-.4-14.4 0-.6 1.9-11.7 10-12.2 8.3.8 8.6 8.7 8.6 12.4a16 16 0 0 1-.7 5.1z"/><path fill="#fff" d="M838 708q.3-1.3.2-2.5-1 .2-2.3 1.8-1.9 2.2-3.6 2.5c-2.7.2-4-1-4.8-4.4q-.3-1.5 0-3.1 0-.7.3-1.6.4-1.5 1.6-4 2-4.4 2.4-9.5.2-8.5-.3-12.6v-2.8q.7-4.5 2.8-8.8c3.4-6.6 7.3-9.4 12.8-9.5 5.3.4 8.6 2.7 11 7.8a29 29 0 0 1 .3 19l-11.2 30.8zm5.5-15.2 6.3-17.4.2-.4-.1.3.1-1.7c-.1-4.4-1.3-6.2-4.3-6.5q-2.1-.1-3.4 2.5l-1 2.5a106 106 0 0 1-.3 19.9q1.4.3 2.5.8"/><path fill="url(#h)" d="m657.3 718.8-9-22 4.5-4c1.6 5.6 6.1 7.9 7.2 14.6.4 6.8-3.3 12.9-2.7 11.4"/><path fill="#fff" d="m652.4 720.3-8.4-20.5 1.4-8.6 4.5-4.1 7.5 4 2 3.3q4.7 6.3 5.4 12.3a28 28 0 0 1-3.4 16.4q-.7 1.2-1.6 1.8-.7.6-1.7.8-3.3.6-5.1-3.5zm6.8.3 2.2 2.2.4-1a9 9 0 0 0-.5-6z"/><path fill="url(#i)" d="M649.1 712c0-.5-1.4-8.8 3.5-10.2 5.3 0 7.5 5.5 7 3.4-1-2.9-3.7-5.9-4.2-15.4s.3-14.4.4-14.4c-.1-.5-2-11.6-10.2-11.5-8.1 1.4-8.5 9.3-8.5 13 0 3.4.7 5.1.8 5.1z"/><path fill="#fff" d="m654 711-9.2 3.8-11.2-29.9a30 30 0 0 1 .4-19c2.3-5.3 5.6-8 11-8.7 5.5-.4 9.3 2.2 12.7 8.6q2 4.2 2.9 8.6v2.8q-.6 4.2-.3 12.7a25 25 0 0 0 2.3 9.3 26 26 0 0 1 2 5.5v3.1c-.9 3.5-2.2 4.8-4.8 4.7q-1.9-.1-3.6-2.3-1.4-1.5-2.3-1.7zm-5.3-14.7q1-.7 2.4-1l-.5-5.5q-.4-9 .2-14.5l-1-2.4q-1.2-2.5-3.3-2.2c-3 .5-4.2 2.4-4.4 6.8q0 1 .2 1.7l-.2-.4.2.5z"/><path fill="url(#a)" d="M685.7 666c-.2-.5-6.8-15.2-12.8-15.3-6 1.2-11.2 10-11.7 10.8-.6-.3-8.5-13-8.6-14.1.5-1 9-28 13.7-29.4 5-.5 14.1 3.1 14.7 4.3z"/><path d="M685 666.5a64 64 0 0 0-4-7.7c-3.4-5-5.7-7-8-7-3.5.5-6.9 3.6-11 10l-.3.4q-.5.8-1.5-.4l-1-1.6q-1.5-1.9-3.1-4.8c-3.3-5.3-4.3-7.9-4-8.8l.2-.5.6-1.8c6.1-18 10.4-26.6 13.2-27.3q3.3-.4 9.4 1.5c4.3 1.5 6 2.6 6.2 3.9l4.7 43.5zm-.5-4.8-4.3-39.4q0-.2-5-1.8-5.8-1.9-8.8-1.5c-2.4.6-6.3 9-12.2 26.2l-.8 2.3v.2l1 1.6a119 119 0 0 0 5.8 9.6l.8 1.2c4.3-6.6 8-9.8 11.7-10.4 2.9 0 5.6 2.2 9.3 7.8zm-31.1-14-.2.4z"/><path fill="url(#b)" d="M701.2 650.2c0 1.4-2.5 41.8-12.4 56-10.5 14-26.1 21.2-32.3 18.7-5.7-3.4-18.9-45.2-19-45.7.3.5 13.7 20.7 24.5 19 10.5-3 16.6-26.7 18.6-39.1 1.8-12.2.4-36 .4-36.1z"/><path d="M702 650.2q0 7.4-2.5 23.5-3.7 24.3-10.2 33.2a55 55 0 0 1-18 15.9c-6.9 3.6-11.5 4.5-15 3-2.6-1.4-6.6-9.1-12.1-24.3a479 479 0 0 1-7.4-22l1.2-1q3.4 5.4 8.2 10.4c6.5 6.6 11.3 9 15.6 8.3 4.5-1.3 8.3-6 12-15.5a115 115 0 0 0 6.1-23q1.9-11.9.4-35.7l1.2-.7 20.2 27.2zm-1.5.4-18.6-25q1.3 22.2-.6 33.7-2 12.9-6.1 23.4c-4 10-8.1 15.1-13 16.5-4.8.9-10-1.8-16.8-8.8a84 84 0 0 1-5.7-6.6q2.7 8.3 5.8 16.9c5.3 14.6 9 22 11.2 23.3q4.5 2 14-3.1a54 54 0 0 0 17.6-15.4q6-8.6 9.8-32.3 2.3-15.4 2.4-22.6"/><path fill="url(#c)" d="M806.3 664.6c.3-.6 6.9-15.5 12.9-15.9 5.9 1 11 9.3 11.6 10.1a108 108 0 0 0 8.6-14.6c-.5-1-9-27.3-13.6-28.5a29 29 0 0 0-14.8 5z"/><path d="m807 665-1.4-.5 4.7-43.8c.2-1.2 2-2.4 6.2-4q6-2.4 9.4-2c2.9.5 7.1 9 13.2 26.4l.7 1.9.1.5c.3.8-.7 3.4-4 9l-4.1 6.6q-.9 1.2-1.5.5l-.3-.4c-4.1-6.2-7.5-9-11-9.5-2.2.1-4.6 2.2-7.9 7.4a67 67 0 0 0-4.1 8m.6-4.9q1-2.2 2.4-4.3c3.7-5.8 6.4-8.2 9.3-8.2q5.4.4 11.7 9.8l.9-1.3 3-4.9 2.8-5 .8-1.7v-.2l-.7-2.2c-6-17-9.8-25-12.1-25.5q-3.1-.3-9 1.9l-5 2zm31-15.6.3.4z"/><path fill="url(#d)" d="M790.8 649.2c0 1.4 2.5 41.8 12.4 55.6 10.5 13.7 26 20.2 32.3 17.2 5.7-3.7 19-46.5 19-47-.3.5-13.7 21.8-24.5 20.6-10.5-2.4-16.6-25.9-18.6-38.2-1.8-12-.4-36-.4-36z"/><path d="m790 649.3.3-.7 20.2-28 1.2.7q-1.5 24 .4 35.8 2.1 12.5 6 22.7c3.8 9.2 7.6 13.8 12.1 14.8 4.4.5 9.2-2.3 15.6-9.3q4.8-5.4 8.2-11l1.2 1q-3.3 11-7.3 22.4c-5.6 15.6-9.6 23.7-12.2 25.3-3.5 1.6-8.1 1-15-2.3q-10.6-5.4-18-15.1-6.5-8.7-10.2-33a181 181 0 0 1-2.5-23.3m1.5.3q.1 7.2 2.4 22.5 3.8 23.7 9.9 32a50 50 0 0 0 17.5 14.7c6.6 3.1 10.9 3.8 14 2.3 2.2-1.4 5.9-9 11.3-24l5.7-17.4a91 91 0 0 1-5.6 7c-6.8 7.6-12 10.5-16.8 10-5-1.2-9-6-13-15.9q-4.1-10.4-6.2-23.1-1.8-11.5-.6-33.7z"/><path fill="url(#e)" d="M655 641c-4.7 7.4-7.2 13.1-9.2 17.4-1.8 4.4-.8 10.4 3.7 19.8 5 10 44.5 51.3 96.5 51.2 52.1-.9 91.3-44 96.5-54.6 4.5-9.7 5.5-15.7 3.7-20-2-4.1-4.5-9.7-9.1-16.8-.3 11.6-32.8 59.9-91 60.8-58.4.1-90.9-46.4-91.2-57.8"/><path d="m654.4 640.3 1.3.8q.1 4.4 5.8 13.1 6.9 10 17.5 19.1a100.7 100.7 0 0 0 134-1.7q10.8-9.5 17.5-20a31 31 0 0 0 5.9-13.5l1.3-.8q4.2 6.4 8.5 15.6l.6 1.3c2 4.6.9 11.2-3.7 21.1a63 63 0 0 1-10 13.1q-9.2 9.8-21 18.4a114 114 0 0 1-66 23.6c-22.8 0-44.6-7.3-66.3-22a147 147 0 0 1-20.9-17.2 58 58 0 0 1-10-12.5c-4.5-9.6-5.7-16.2-3.7-20.9l.5-1.1a143 143 0 0 1 8.7-16.4m0 3q-3.6 6.3-7.4 14.5l-.5 1.2c-1.7 4-.6 9.9 3.6 18.7q2.2 4.2 9.7 11.9 9 9.1 20.7 17 32 22 65.5 21.8 33.5-.4 65.6-23.4a150 150 0 0 0 20.7-18.1q7.5-8.2 9.6-12.5c4.2-9.1 5.3-15 3.6-19l-.6-1.3q-3.8-8-7.3-13.8-1.1 4.9-6 12.6-7 10.5-17.9 20.4a101.5 101.5 0 0 1-135.4 1.7 99 99 0 0 1-17.8-19.5q-4.9-7.4-6-12.1"/><path fill="url(#f)" d="m834.8 716 9-22.6-4.6-3.8c-1.6 5.7-6 8.4-7.2 15-.4 7 3.4 12.8 2.8 11.3"/><path d="m835.6 716-.1.6q-.2.7-.8.6l-.3-.1-.4-.6-1.2-2.5a21 21 0 0 1-1.5-9.4q.6-4 4-9.2a21 21 0 0 0 3.2-6l1.2-.6 4.4 3.8.2 1.2zm-1-1.8 8.1-20.3-3.2-2.7q-.9 2.4-3.1 5.5a20 20 0 0 0-3.6 8 18 18 0 0 0 1.9 9.5m-.6 1.8v.5z"/><path fill="url(#g)" d="M842.9 708.7c0-.6 1.4-9-3.5-10-5.2.3-7.5 6-7 3.8 1-2.9 3.7-6.1 4.3-15.6.3-9.5-.4-14.4-.4-14.4 0-.6 1.9-11.7 10-12.2 8.3.8 8.6 8.7 8.6 12.4a16 16 0 0 1-.7 5.1z"/><path d="M842.2 708.6q.3-2.3.1-4.6c-.4-2.9-1.2-4-3-4.3q-3.1-.1-6 3.6l-1 .8q-.6 0-.7-.7v-.5l.1-.7 1.1-2.7q2.8-5.9 3.1-12.6.4-9.3-.3-14v-.5q.5-3.4 2-6.6c2.5-4.6 5-6.4 8.9-6.5 6.2.4 9 4.4 9.2 13.2q0 3.7-.9 5.7L843.5 709zm1.6-4.6 9.7-26.5v-.1q.7-1.5.7-4.6c-.2-7.7-2.5-11-8-11.5-3.2.1-5.3 1.6-7.3 5.5q-1.4 2.8-1.9 5.6.7 5 .4 14.4-.3 6.8-3 12.8 2.5-2 5.1-2c2.6.4 3.7 2 4.3 6z"/><path fill="url(#h)" d="m657.3 718.8-9-22 4.5-4c1.6 5.6 6.1 7.9 7.2 14.6.4 6.8-3.3 12.9-2.7 11.4"/><path d="m656.4 718.8-8.7-21.5.2-1.3 4.5-4 1 .5q.7 2.2 3.2 5.8 3.6 5 4.1 9a21 21 0 0 1-3.1 12.6l-.3.1q-.5.1-.8-.5zm.9-1.7.6-1.4q1.5-4.4 1.3-8.2-.5-3.4-3.7-7.8-2.2-3-3.1-5.4l-3.2 3zm.1 2 .4.3-.1-.8z"/><path fill="url(#i)" d="M649.1 712c0-.5-1.4-8.8 3.5-10.2 5.3 0 7.5 5.5 7 3.4-1-2.9-3.7-5.9-4.2-15.4s.3-14.4.4-14.4c-.1-.5-2-11.6-10.2-11.5-8.1 1.4-8.5 9.3-8.5 13 0 3.4.7 5.1.8 5.1z"/><path d="m649.9 711.9-1.4.6-11.3-30q-.7-2-.9-5.6c.2-8.9 3-13 9.2-14 3.9-.2 6.5 1.5 8.9 6a24 24 0 0 1 2 6.4v.4q-.6 4.8-.3 14.1.4 6.6 3 12.4 1 1.8 1.2 2.7l.2.6v.6q-.2.7-.8.7-.3 0-.9-.7-3-3.6-6-3.3c-1.9.4-2.7 1.6-3 4.6q-.3 2.3 0 4.5m-1.6-4.5v-.4c.6-4 1.8-5.7 4.3-6.2a7 7 0 0 1 5 1.6q-2.5-5.9-2.9-12.6-.3-9.4.4-14.4-.6-2.8-1.8-5.5c-2.1-3.7-4.2-5.1-7.5-5-5.3.8-7.7 4.4-7.9 12.1q0 3 .7 4.6zm26.8-30-4.2-4.2-.5 1 .8 1v.6l-5.2 11.1-.4.1-1-.8-.5 1 4.3 4.4q2 2.2 4 2.2 2.8-.3 4.6-4 3.1-6.9-1.9-12.3m-1.7 0 .8.8c2.3 2.5 2.4 5.1.6 9.3-2 4-3.7 4.7-6.2 2.4l-.9-.8zm3.1 21 8.5 6.3 1.4-4.1-1-.8-1.2 2.2-.3.3-3.7-2.8 2-6 2.1 1.6.1.4-.4 1.8 1 .7 1.8-5.3-1-.7-.7 1.5-.3.2-2-1.5 1.8-5.5 3.1 2.3.1.4-.4 2.2 1 .9 1.3-3.7-7.9-5.8-.4 1 1 1v.4l-4.1 12.3-.4.2-1-.6zm11.2 7.1q1.5 1.7 3 2.5 4.3 1.8 5.5-2.8.5-2.3-.6-4.4-1.2-2-2-3-1.1-1.8-.7-3.3.6-2.2 2.5-1.4.7.4 1.1 1l.2.4-.3 2.7 1.2.7.9-4q-1.5-1.6-3-2.4-3.7-1.5-5 2.8-.3 1.8.4 4 .9 1.7 1.8 2.9 1.5 2 1 4-.5 2.1-2.6 1.2l-1.4-1-.1-.6.4-3-1.3-.7zm8.8 5.2 5 2.5.2-1.2-1-.7-.2-.5 3-13.1.3-.2 1.1.4.3-1.2-5-2.5-.2 1.2 1 .7.2.4-3 13.2-.3.2-1.1-.4zm10.6-13.3-.2 1.2 1 .5.2.4-2 13.6-.4.3-1-.2-.2 1.2 4.8 1.6.2-1.2-1-.5-.2-.5.8-5.7h.3c1.8.8 2 1.8 2.2 4.5q-.1 1.9.8 3.8a3 3 0 0 0 1.6 1.4l1.8.4.1-1.3h-.2c-1.1-.5-1.5-1-1.7-2.5q0-2.1-.4-4a4 4 0 0 0-1.6-2.3q3 0 3.6-3.3c.3-3-.6-4.6-3.3-5.7zm3.3 2.6.8.2q2.4 1 2 4.1-.5 3.4-3.2 2.5l-.6-.2zm7.5 19 9.3.9.2-4.7H726l-.4 2.7-.3.4-4-.4.2-6.8 2.3.2.2.4.1 1.9h1l.3-6h-1l-.3 1.8-.3.4-2.2-.2.2-6.2 3.4.3.3.3.1 2.3 1.3.1v-4l-8.7-.8v1.2l1 .3.3.4-.4 13.9-.3.4h-1zm16.4-14.4v4.6h1.2l.3-2.8.2-.3h2.2l-.1 14.2-.3.4-1.2.2v1.2l5.3.1V721l-1.1-.1-.3-.4v-14.2h2.2l.3.3.3 2.8h1.2v-4.6zm10.8.4v1.3l1 .1.3.4.2 14-.3.3-1 .2v1.3l5-.2v-1.3h-1l-.3-.5-.1-6.6 5.1-.2.1 6.6-.2.4-1.1.2v1.3l5-.2v-1.3h-1l-.3-.5-.2-13.9.3-.4 1-.2v-1.3l-5 .3v1.3h1l.4.4v5.8l-5.1.2-.1-5.7.3-.5 1-.1V705zm14.2 17 9.5-1.6-.3-4.6-1.2.2-.1 2.8-.2.4-4.1.7-.5-6.8 2.3-.4.3.4.3 1.8 1-.2-.3-6-1 .2-.1 1.9-.3.4-2.3.4-.3-6.2 3.5-.6.2.3.4 2.3 1.3-.2-.3-4.1-9 1.4.2 1.3h1l.4.2.8 13.9-.2.4-1.1.3zm13.5-20.8.1 1.2 1.2-.1.3.2 1.6 13.7-.3.5-1 .4v1.3l5.4-1.5-.2-1.3-1.1.2-.4-.3-.6-5.8h.3c2-.5 2.4.3 3.3 2.6.5 1.2.8 2.2 1.9 3q.8.5 2 .2l1.9-.8-.2-1.2h-.2c-1.3.4-1.8.3-2.4-1q-.6-1.9-1.6-3.5-.7-1-2.1-1 3-1.8 2.7-5.3c-.5-3-1.9-3.8-5-3.1zm4 .4.9-.3q2.7-.7 3.1 2.5c.2 2.5-.5 3.6-2.5 4.3l-.7.1zm11.8 12.4 5.4-2.7-.3-1.2-1.2.4-.4-.2-3-13.1.3-.5 1.2-.7-.3-1.2-5.4 2.7.3 1.2 1.2-.5.4.2 2.9 13.1-.2.6-1.2.7zm11.2-15.3.3 1.2 1.4-.6.3.2 1.1 5-1 .6q-4.3 2-6-4.7-1.2-6.7 3-9 .8-.5 1.5-.5l.4.3.9 2.5 1.3-.7-.9-4.2q-2 .3-4 1.2-6 3.6-4.8 11.7 2.1 8 8.2 5.4 2-1 3.9-3l-1.2-5.8.2-.5 1-.7-.2-1.2zm2.8-10.7.4 1 1-.6.5.1 4.4 12-.2.5-1 1 .5 1 4.8-3.9-.4-1.1-1 .7-.5-.1-2-5.7 4.8-4 2.1 5.6-.1.6-1 1 .4 1 4.8-4-.4-1-1 .7-.4-.1-4.4-12 .1-.5 1-1-.5-1-4.7 4 .4 1 1-.7.4.1 1.8 5-4.9 4-1.8-5 .2-.5 1-1-.5-1zm12-10.7 1.7 3.7 1.1-1-.7-2.6.1-.5 2-2 5 11.7v.6l-1 1.1.4 1 4.9-4.7-.5-1-1.1.9-.4-.1-5.1-11.5 2-2h.3l1.3 2 1-1-1.6-3.8z"/><path fill="#0072c4" d="M746 690.8s-93.4-39.8-93.3-185.7l.7-190c61.1 5.5 122.3 6.6 185.2-3l.7 188.7c0 70.3-22 118.8-44.8 148.5-24 31.2-48.5 41.5-48.5 41.5"/><path fill="#fff" d="M745.3 694q-6-2.4-15-8.3-18-12-32.7-30.2c-31.8-39-47.5-89.8-47.4-150.7l.8-193.3c62.7 5.8 125.4 7 190-3.2l.8 192.1c.1 60.9-15.5 113-47.3 153.4q-15 18.8-32.7 31.4-9 6.2-15 8.8l-.4.2h-.7zm.7-6.7q5.5-2.5 13.6-8 17.2-12.2 31.7-30.3c30.6-38.7 45.7-89 45.6-147.8l-.7-185.5c-59.6 9-119 8.4-180.3 3l-.7 186.6c-.2 58.8 15 107.7 45.5 145.2a149 149 0 0 0 31.7 29.1q8.1 5.3 13.6 7.7"/><path fill="#bcbcbc" d="M666.3 359.2c.2 0 1.3-1.3 2.3-2.5q2.2-1.7 4.3-3c1.1-.8 3.3-1.4 4.3-2a12 12 0 0 0 3.5-3.6l.4-7.2q2.2-1.5 4.3-2.5c1.9-.7 2.3-1.6 4.2-2q2.1-.5 5-.3c2 .3 3.3 2 5 2.6 2 1.3 3 2 4.6 4.1 1 1.7 1.6 3 3.1 4.2 1.3 1 2.5 2.3 4 3 1.6 1.3 2.9 2.1 4.2 4l2.7 4q1.9 2.1 4 4c1.7 1.5 3.1 2.5 6 2.4q2-.3 4.6.1 3-.2 5.4.6 2.8.1 5.5.6 2.5.5 5.4.5 2.5.6 5.5.4l5.4-.1 5.5-.2q3.1-.1 5.4.4 2.9-.3 5.5-.9l5.8-.8 6.6-.5c1.8.5 3.8.9 5 1.9 1.6.5 2.4 1.3 4 1.9 1.2.7 2.8 1.9 3.8 3.5q1.7 2.4 3.1 5.8 1.4 3 2.4 7 .6 3.6.8 7.7.4 3.6.3 7.8l-1.1 7.8q-.2 4.3-.8 7.3c-.4 2.4-.7 3.9-.8 6.8v7.8c-.1 2.5-.5 4.4-.8 7.3l-2.7 8.5a21 21 0 0 0-3.1 4.8q-1.2 1.4-1.2 2.3c1.5.8 1.2 2 1.2 4.9l.8 7.1c.2 2.7.6 4.2 1.2 6 .6 1 .7.6-.8.7q-2 1.9-2.7-1.5c-1-1.4-1.2-3.1-1.6-6-.2-2.5-.6-5-1.2-6.5-.2-3.1-.7-3-3-3.1-1.3-1.2-2.5-1.4-4.7-1.3s-2.3-.2-2.4 2.9v7.8l-1.5 6.2c-1.1 1.3-1.9 3.1-3.1 4.6-.8 2.6-1.6 3-3.5 3.5-.7-1-1.8-2.6-2.4-3.8 1.2-2.5 2-3 2.7-5.6l2-5.7c-.9-1.7-1.5-2.5-2.3-4.9a35 35 0 0 1-2-6c-1.3-.5-3.2-.6-4.3-1.5-1.9-.2-2.4 2-4.6 2.4l-5.5.2c-2.4.3-3 1.7-5 1.8h-4.3c-1.7.8-3.5.7-5.5.7s-3.5-.6-5-1q-2.7-1.1-5.5-1.8c-2.3 0-3 .3-4.6 1.7-1.2 1-3 3.1-4.3 4.3-.5 1.9-.9 5-1.6 7.2-.4 2.2-1 3.6-1.5 5.6-.5 1.8-1 3.7-1.2 6.6-.2 3.7-.7 3.3-2.3 2.2l-2.3-5c.3-2.9.7-4.3.7-7.3-.4-2.2-1.1-2-2.3-.6q.2 4.3-.8 6.6a7 7 0 0 1-2.3 4.4 7 7 0 0 1-3.1 3.8q-.2-.1 0-2.2c-.8-2.7-.2-4.6 0-7.8 0-2.8-.1-4.7.4-7.2 0-2.7-.9-5.3-1.2-7.3-.8-2.1-1.1-3-3.1-4-1.5-.8-3.3-2-4.3-3.5a10 10 0 0 0-3.5-4 18 18 0 0 1-3.9-3c-1.2-2-2-2.8-2.7-5.2-.7-1.8-1-4.9-1.6-7.3a38 38 0 0 0-1.1-6.7c-.3-2.5-.5-4.3-1.2-6.8l-1.2-7.3q0-4-.3-7.8v-7.7c-.3-2.3-.5-5.6-.8-7.3 0-3-.3-4.7-.8-6.7-.9-2-1-2.8-2.3-3.5-1.2 1.7-2.6 2.2-4.7 2.5-1.4-.6-3.4-1-5-2q-2.2-1.2-4-2.6-1-2.4-2.3-4.6c-.2-3-.6-4.5-.8-7.3 0-2 0-1 1.6-3.8"/><path fill="#fefefe" d="M689.3 380.8c2.5-1.1 7.8-6 11-9.5 4-2.6 10.3.4 11-7.7-.6 2.5-4.5 8.5-6.6 12.2-4 4.1 1.5 7.6 3.3 2.4 2.4-5.8 5.3-11 10-13.4-1 4.2-1.4 7.9.5 11.8.5-2 .9-9.1.8-3.1-1 3.6 1.9 13.5 2.3 5.7.7-4.6.6 5 1.5 7 2.5 5.8 2.2-5.2 2.6-8 .4-4.3.5-3.2 0 0-.4 4 .4-8.2.8-1.5.2 3.7-.3 13 2.4 5.6 2-4.5 2.5-4.6.3-.6-.7 1.3 3-8.2 1.7-1.4 0 5 .2 12 2 15.4 1.2-2.9.6-15.3 2.2-6.6.4 2.8-.2 9.3 2.4 4.2 2.6-4.3 4-7.8 3.8-13.7.4-3 1.4-7.6 2.8-2.5-.5 6.9 4.1 11.1 3.8 17.8a28 28 0 0 0-.3-17.4c.3-5.6 5.8-2.5 4.7 2.7.1 3.6 3.3 12.8 4 4.2.6-4 2-4.5 1.7 0 .8 3 3.4 11.6 3.3 4 .2-4.1-.3-8.3.9-12.3.9 2.6 1 6.1 2.2 1.5 2 .5 1.2 8 3.9 10.5 1.2 3.1 3.8 8 3.2 1.3.3-3.9-1.6-11-.9-12.2 3 5.3 4.4 12 8.4 16.2 3.9 1.9.7-7 .2-10.2-2-2-4.4-8.2-.9-3.2 2.2 4.7 7.6 8.3 9.6 9.4-1.8-1.6-3.3-2.3-.4 0 2.2.3-1.2-6.8-2.6-8.7-1.5-2.9-6-6.2-5-8.4 4.2 1.4 5.6 7 8.1 11.1 1.8 1.9 5.3 5.4 3.4-.3 1.6 0 6.7 7.3 5.8.7-1.3-3.2-5.7-8.3-5.7-8.8 1.8 3.4.7 1-.7-.8 5.3.8 8.2 7 11.6 11.5.4 2.2 1.7 12.5 0 5.8-3.5-.8 1.4 8.3-2.4 8.2-.4-2.5-3.3-7.6-1.9-2.5 2.6 7.6.8 16 1 24.1l-.3 10.6c-.3 3.7-1.5-5.5-3-6.8-.3-2.1-1.3-11.8-2.7-5.9.3 6.1 4 11.7 1 17.4-1.2 1.8-1.7 5.6-2.4 1.5-1.7-5.1-2.9-10.3-5.7-14.4-1.3-3.3-5.1-10.9-4.2-2.7q1.1 5.6 1 11.5-2.6-8.5-6-16.2c.3 2.5 2.6 13 .6 6.3-1.5-5.8-3.5-11-7.7-13.6-.5.5 2.2 9.2 1.3 10-.5-3.7-2.3-9.8-4.7-9 .2 5.9 1.7 11.2.8 17.3 0 5.6-2.7-5.4-3.5-7.3-4.6-2.4.4 9.4-3 4.8-2.8-2.6-4-5.1-3.9-10-5-.5-3.2 5.6-3.3 10.1-.5 3.4-1.8 8.7-3 10-.5-4.5-.2-9.2-.3-13.8.6-3 .3-8.9-2.4-6.1-.3 6 2.1 13.2-.8 18.3-2.1 2-4.5-3.4-7.9-2.3-3.5-3-2.4-10.7-4.8-15.3-3-2.6-1.2 14-3 6 .6-5.6-5.6-7.8-4.7-2 1.7 2.8 2 5.6 1.9 9.1.3 4-1.4 5-2.1.6-.7-4.7-5.8-7-5-.5-3.8-2 .2 10.3-4.2 6.6-4.6-3.7-7 3-12 1.8-3 .5-8.8 1.3-5.3-4 3.7-3.5 5.1-11.6 10.4-7.2 4.1-.4 8-3.8 11.4-7.4 2.3-2.7 1.9-8.1-1.8-4.8-3.1 5.4-10 5.2-12.7 4.7 2.8-2.8 8.8-3 7.6-8.3-3 .6-6.6 4.7-8.6 2.1 1-1.4 3.9-4.6.5-3.4-4.5 1.6-8.9 1-13.4.3-3.7-6.2 5.6-4 6.3-7.9-1.3-.1-5 .5-3.5-1.6 3.9.3 7 .7 9.9-3.8 1.9-2.4 6.5-6.8 5.7-8.9-4.2 3.3-8 7.9-13.3 4.9 3.8-4.5-1.3-4.8-4.4-4.6-2 .3-7.5-2.3-2.8-2.2 3.3.4 6.4-4.2 1.5-4-1.1-.4-2.2-.2-3.3-.4m-23.8-10.5c-.2-3-.9-5.8-.7-8.7q1.8-2.8 3.8-5c2.4-1.6 4.7-3.5 7.4-4.3q2.8-1.2 4.7-4.2c.5-2.7-.2-6.2 1.2-7.7q3.3-2 6.5-3.6 3.6-1.3 7.3-.4 3 1.7 5.8 3.6 2.5 2 4.2 5.3 2.2 2.5 4.7 4.2c1.3.5 1 2.3 0 2.5-.9 3.3-3.4.5-4.3-1.7.6-1.1.2 2.7-.7 3.1-1.9.6-1.8-2.9-2-4.8.1-1.4-.5-3-1-.9-1 2.2 1.2 5.4-1.3 4.6-2.1-.5-4-1-5.9.6-1.1 2 1.3 2.9 2.5 4 1.4 1.5 2.8.3 4.4 0q3-1 6 1c.7 2.8-.7 4.9-2.4 6q-2.4 1.4-5 1.7c-2.4.5-2 3.9-4.4 4.5q-2.4 1.1-5 .6c0-1.3 1.5-3.1 1.9-5 1.4-2.8-2.1-2.4-2 .3 0 2-2.4 4.5-1.6 1.4.1-1.9 1.3-4-.9-3.2-1.4 0-3.4-.3-3 2.3q-2.4.6-4.6-.8c-1-3-2.9-4.1-4.6-1.8s-3.3-.8-5 .2c.2 2.6 1.7 3.8 3.5 4 1.8 0 3.4-.3 5.2.1 1.3 2.8-1.3 3.2-3 2.8-2-.3-3.7-1.7-5.7-1.8-1 0-3 1-1 1.6 1.7.5 4.2.6 3.9 3.8-1.3.6-2.7-.1-4 .4-1-.2-3 .4-2-.4-.7-1.7-2-2.8-2.9-4.3"/><path fill="#bcbcbc" d="m674.2 357.9-1.6 1.4c-1.2.8-2.5 2.2-3.3 3-.7.6-.7.8-1.4 1a6 6 0 0 0 3-1.4q2.3 0 3.6-1.3c.6-.4 0-1.8-.3-2.7m12.7-17.6 1 2c.5 1.5.8 2.6.9 4.3.3-1.9.9-3.4 1-5.4-.3-1-.4-1.5-1.6-1.7 0 1 .1.5-1.3.7m4.9.7v.4q0-1.5.3 1.6.5 1.9.5 4.7 1-1.2 1.7-3.4c0-3-.3-3-2.5-3.3m10.2 45.7h.3c-.8 0-.4 0 1-1.1q1.4-1.6 3-2.6c1.4-1.4 2.3-2 3.7-2.7.6-.4 1.1-1 1.9-.3-.2 2-.5 2.6-1.7 3.5q-1.1 1.4-2.5 2.3c-1 .5-1.7.5-2.2 1.8-1.5.9-1.6.8-3.5-.9m5.2 11.6 3-3.8q1.5-2.6 2.8-3.8c.8-1.7 1.8-2.8 2.5-4.3l2.2-3.9c0 1.8 0 4 .2 5.2 0 2.3-.2 3-.8 4.6s-1 2.3-2.5 3.1c-1.2 1-2 1.2-3 2.3q-1.2 1-2.5 1.8c-.7.5-.4.3-1.9-1.2m-8.5 8.7h.2c-.7 0-.3 0 1.1-1.1a9 9 0 0 1 3.6-3q1.9-.2 3.3-1c.7-.3 1.1-.7 1.7 0 .9 1.7 1 2.1-.3 3.1q-1.2 1.3-2.7 1.9-1.2.9-3.4 1c-1.1 0-1.6 0-2.2-.9l2.2 1c-1-.1-1.7 0-3.5-1m11.8.5v-.4q-.1 1.5.6-1.6c1-2.2 1.4-3.2 2.7-3.8.7-1 1.7-1.3 3-1.9q.5 1.8 0 4-.8 2-1.9 3.4c-.9.9-1.2 1.5-2.5 1.9-1 0-.5 0-1.9-1.6"/><path fill="#c4c4c2" d="M678.3 355.8c-.5-.1 1-.8 1.7-1a7 7 0 0 1 1.6-3.1c1.4.3 2 .8 2.8 2.1 1.1.6 1.6 1.3 3 1.8.6.7 1.2.8 0 1.2q-1.4.7-3.3.6a7 7 0 0 0-3.3 1c-1.8-.2-1.6 0-2.5-2.6"/><path d="m678 356.4-.2-.1a1 1 0 0 1-.1-1l.2-.2q0-.2.5-.4l1.2-.6a8 8 0 0 1 1.7-3l.2-.2h.2q1.9.4 3 2.3l1.1.7 1.7 1h.2v.2l.4.3q.7.7.5 1.3t-1 .8q-1.1.8-3.5.6a7 7 0 0 0-3 1h-.5q-1.8-.2-2.5-2.2zm1-.4.1.3q.5 1.2 1.5 1.3 1.6-1 3.5-1 2 .1 2.8-.4-.7-.3-1.6-1l-1-.6-.2-.1-.2-.2q-.7-1.4-2.1-1.8-.6.8-1.3 2.6l-.1.3h-.2l-.2.1z"/><path d="M683.6 355q-.2 1.7-1.4 1.8-1.2-.2-1.4-2 .1-1.8 1.4-1.9 1.2.4 1.4 2"/><path fill="#005121" d="m686.9 464.7 1 .1c-3.3-.2-1.5-.3 4.5 6.5 2.4-2.7 2.3-3 4.4 1.8 1.2 2.6 1.5 0 3.3-3 .8 6 1.2 11.5 4.3 6.5 3.6.1 6.8 0 8.8 2 2.4 5.7 1.3-.7 3.3 1.6 4.9.5 4.9-5.3 10-7.5 3.5 5.6 4.7 1.8 8.9-1.4 3.1 1.7 5.6 7.3 6.4 1.4 2.6-5.8 2.7-5.4 4.4 0 2.6 2.6 3.4-1.3 5.5-3.3 4 3 7.6 3.3 13.2 1.2 1.2 5 3.1 3 5.5 1.4 5 2.7 6.5 3.4 12.1-.6 2.7-4.5 1.4-.3 3.3 3 4.1-2.2 3-2.4 7.7-2.2 4.8-.4 5.1-.6 6.6-5.3 2.5 3.4 3.2 5.4 6.6 1 5.1-.3 3.7.5 6.6-2.3 2.5 6.6 2.6 2 5.5 4-1.9 6.8-4.4 10-7.7 13.5-2 5.4-3.5 10.5-7.7 13.4-3.1 4.7-6.3 7.7-9.9 11.8-4.8 2-10 2.3-15.4 2.6l-15.4.7-15.4.3H732a45 45 0 0 1-13.2 4.5c-5.1-.1-10.6-.4-14.3-2-2.4-3.5-6.4-7.5-8.8-11.5-2-3-2.5-7.9-4.4-11.2-1.7-4.6-2.5-11.6-4.3-16z"/><path fill="#002b0e" d="m684 465.7 1.5-1.2q.2-.7 1-.8l1.1-.9v.9h.4v1.6q2.3 2.2 4.3 4.6 1.8-2 2.8-1.5.8.4 2.3 4.2l.2.4.5-1 1.3-2.6 1.1-1.6.3 2.2.2 1.4a33 33 0 0 0 1.5 6.2q.4-.2 1.3-1.6l.3-.5h1.8c4.2.3 6.5.9 7.8 2.2l.2.1v.3l.7 1.5q.3-.7.8-1 .7-.3 1.5.6 2.1.1 4.2-2.9 2.6-3.7 5.3-4.6l.5-.2.3.6q1.4 2.4 2.5 2.5.7-.1 2.5-1.9 1.7-1.6 2.8-2.4l.3-.2.3.1q1.1.5 3.2 2.6 1.5 1.5 1.9 1.5l.4-1.8v-.4q2.2-4.7 3.3-4.7 1 .1 2.5 4.6.7.8 1.1.5.5-.2 1.4-1.7 1.1-1.7 2-2.3l.4-.3.4.3c3.5 2.7 7.3 3 12.5 1.1l.8-.3.2 1q.4 2.4 1.2 2.5.7 0 2.4-1.2l.8-.6.3-.2.4.2q3.9 2 5.5 2.2 2.2 0 5.7-2.7 1.4-2.2 2-2.2 1 0 1.3 2 .3 1.7.8 2.7l1.7-.9q2-1.2 5.8-1 3.3-.3 4.1-.9.7-.5 1.7-3.7l.5-1.5.8 1.1.8 1q1.5 2.1 2 2.2 1 .2 2.7-2.2l.2-.3h.4l2.7-.1q1.4 0 2.5-1.1l1-.9.7-.7.4 1q.9 2.6 1.4 3.2h.8a3 3 0 0 1 3 .6l.5.4-.2.8q-2 7.3-7.9 13.8l-1 2.7q-3.2 8.4-6.8 10.8a75 75 0 0 1-6.5 8l-3.4 3.8v.2h-.3a48 48 0 0 1-14.5 2.6h-1q-22.7 1.4-46 1.1-3 2-11 3.9l-2.3.6h-.9a39 39 0 0 1-13.8-2.1l-.2-.1-.1-.2-3.7-4.6q-3.7-4.5-5.1-6.8-1.4-1.9-2.7-6.4a22 22 0 0 0-1.7-5h-.1v-.1q-.9-2.2-2.1-7.8-1.5-6-2.3-8.1l-.1-.3v-10l-.2-.2zm3.7 2v7.8q1 2.5 2.3 8.3a61 61 0 0 0 4 12.8q1.1 4.2 2.2 5.5v.1q1.5 2.2 5 6.7l3.7 4.5a40 40 0 0 0 13.1 1.9h.7l2.2-.5a38 38 0 0 0 10.7-3.9h.1q23 .1 46.4-1l1.1-.1a48 48 0 0 0 14-2.5l3.3-3.7a68 68 0 0 0 6.4-7.8v-.2l.3-.1c2.1-1.5 4-4.5 6.1-10l1.1-2.9.1-.2.2-.1q5.1-5.7 7.1-12-.6-.3-1.3 0-2 .6-3.5-3.1l-.2.2a5 5 0 0 1-3.5 1.5H807q-2.1 2.9-3.8 2.6-1-.2-2.9-2.7a8 8 0 0 1-1.9 3.3q-1.1.8-4.9 1.2-3.5-.2-5.2.8l-2.2 1.2-.5.3-.3-.5q-1-1.4-1.5-4.2l-.6 1.1-.2.2-.1.1q-4.1 3-6.7 3-1.8 0-5.8-2.1l-.4.3q-2.2 1.5-3.2 1.4-1.6-.2-2.4-3c-5.2 1.8-9 1.4-12.6-1.2l-1.2 1.6q-1.2 1.9-2 2.2-1.4.8-2.9-1l-.1-.2v-.2l-1.3-3.5q-.2-.1-1.7 3.4-.4 3.6-2 3.5-.9-.1-2.7-2-1.6-1.5-2.5-2l-2.3 2q-2.1 2-3.4 2.2-1.7 0-3.4-2.7-2 .9-4 3.8-2.8 4-5.9 3.5h-.2l-.2-.4h-.1q-.7 1.5-1.6 1.1-.7-.4-1.7-2.8-1.3-1.2-6.7-1.4h-1q-1 1.5-2 1.9t-2-1.2q-.5-1.4-1.3-5.7l-.2.4q-.9 1.8-1.3 2-1.1.7-2-1.6l-1.6-3.2-1.2 1.4-.4.4-.5.6-.6-.6z"/><path fill="#005121" d="M793.5 478.5v1.5c0-4.3.1-2-2.2 6.5-.5 2-1.4 2.6-3.3 3.4z"/><path fill="#002b0e" d="M794.3 478.4v1.6h-.5l-1.7 6.8q-.7 2.6-3.9 4.1l-.4-2q2.5-1.1 2.8-2.7l1.8-7.2q.5-2.3 1.3-2.2.4.1.6 1.6"/><path fill="#005121" d="m783.6 485.5 1.1-.1c-4.1 5.8-6.6 8.4-7.7 14.6l7.7-14.6c-4.1 5.8-6.6 8.4-7.7 14.6z"/><path fill="#002b0e" d="m783.6 484.4 3-.2-1.3 1.9-7.6 14.5-1.4-.8q.8-5.4 6-12.5l1.3-1.9z"/><path fill="#005121" d="M768.2 478.4c0 .2-.3 5.5-1 7.9z"/><path fill="#002b0e" d="M769 478.4a25 25 0 0 1-1.2 8.4l-1.4-1q1-2.4 1-7.4zm-4.4 11.1v1.6H763v-1.5zm-9.6-10.2h1.1v2.1h-1z"/><path fill="#005121" d="M693.5 479.3c.3.2 2.7 5 5.5 8-.8 4.8-1.7 9.8 0 14.2z"/><path fill="#002b0e" d="M693.5 478.2q.6 0 2 2.5 2.4 4.2 4 5.8l.3.5v.6l-.3 1.3q-1.2 8.5.1 12.1l-1.3 1q-1.7-4.3-.3-13.6v-.6a44 44 0 0 1-4.6-7.5z"/><path fill="#005121" d="M702.3 489.1c.3.3 2.7 5 5.5 8zc.3.3 2.7 5 5.5 8v1.7c0-5-.2-9.8 1-12.6 1.3 3.2 2.6 7.7 3.4 3.3 6.2-.3 9.1-2.5 13.1-4.4 0 2.3-.2 1.3 1.2 3.2z"/><path fill="#002b0e" d="M702.3 488q.2 0 .5.4.6.5 1.4 2l2.7 4q.3-6.7 1.3-8.8l.7-1.4.6 1.5.5 1.2 1.3 3v-.6l.2-.9h.6q4.7 0 10.4-3l2.6-1.3 1-.5v2.5l.1.4.8 1-1.1 1.5-.7-1-.6-1.4-1.6.8q-5.5 2.9-10.2 3.2l-.6 1.5q-.7.9-1.8-.3l-1.5-3q-.4 2.5-.4 7.8v2.2H707v-1.1a43 43 0 0 1-4-5.9l-2.6-3.9z"/><path fill="#005121" d="m801.2 479.4 1.1-.1c-2 2.7-3.7 7.8-5.5 11.5z"/><path fill="#002b0e" d="m801.2 478.3 3.3-.3-1.6 2q-1.2 1.7-3.4 6.9l-2 4.5-1.3-1.2 1.9-4.3q2-4.5 3.1-6.5zm-45-2.2 8.7-.3v2.2l-8.8.3z"/><path fill="#fff" d="M684.3 487.5c-13.3-.3-17.6 17.2-30.9 16.5h-.7v1q0 19.7 2 36.9c12.3-.6 16.8-17 29.6-16.6 13.2 1.3 17.7 19.5 30.8 20.4 13.2-.2 17.7-18 31-18.6 13.1.3 17.6 18.1 30.8 18 13.2-1.3 17.7-19.5 30.9-21.3 12.7-.9 17.2 15.1 29.4 15q2.2-17.7 2.1-38l-.7.1c-13.3 1.6-17.6-15.8-30.9-14.9-13.1 1.8-17.7 20-30.8 21.2-13.2.2-17.7-17.5-30.9-17.9-13.2.6-17.7 18.4-30.9 18.6-13.2-1-17.7-19-30.8-20.4m0 73.7C674 561 669 571.2 661 576q4.2 16 9.8 29.3c4-3.6 7.7-6.4 13.4-6.3 13.2 1.4 17.7 19.5 30.8 20.4 13.3-.2 17.7-18 31-18.6 13.1.4 17.6 18.1 30.8 18 13.2-1.2 17.7-19.5 30.9-21.3 5.5-.4 9.2 2.1 13 5.5q5.6-13.6 9.9-29.7c-7.8-4.4-12.7-14.3-23-13.6-13.1 1.8-17.6 20-30.8 21.2-13.2.2-17.7-17.5-30.9-17.9-13.2.6-17.6 18.4-30.9 18.6-13.1-1-17.6-19-30.8-20.4m61.7 75.5c-13.2.6-17.7 18.5-30.9 18.6-12.4-.8-17.2-17.1-28.8-20a160 160 0 0 0 45.3 47.5c4.4-3.7 8.1 4.7 14.4 5.3 6.2-.7 10-9.2 14.3-5.6a166 166 0 0 0 44.9-48.6c-11.2 3.8-16 19.7-28.3 20.8-13.2.2-17.7-17.6-30.9-18"/><path fill="#522108" d="M664 569c8.7-3.5 12.7-4.7 13.4-4.1l10 14.6 10.6 15-17.4 3.9-17-29.3zm.6.5 16.3 28 15.9-3.5-9.7-14-10.2-14.6a62 62 0 0 0-12.3 4.1m38.8 38.1q.3-6.4 9.2-43l.5.2q-8.8 36.5-9.1 43zm3 .5 3.5-21.5 3.6-21.6.6.2-3.6 21.6-3.5 21.5zm2.4.2 3-21.6 2.9-21.7.6.2-3 21.7-2.9 21.6z"/><path fill="#522108" d="M706.1 595.6q1.4 0 4.5-1.4l.2.8a12 12 0 0 1-4.7 1.4zm.6-4.4c.2-.5 1.5-1 4.9-1.9v.8l-4.3 1.1zm.9-6.5 4.9-1v.8l-4.8 1zm2.5-4.7v-.3h.2l1.2.3h1.7v.9l-1.8-.1q-1.9-.2-2-.9zm47.8 56.9q-.5-11-10.8-74l.6-.2q10.4 63 10.8 74.1zm-3.6-2-4.1-35.6-4.2-35.7.6-.1 4.2 35.6 4.1 35.7zm-3.6-5.5-3-32.8-3.2-33 .6-.1 3.1 33 3 32.8z"/><path fill="#522108" d="M757.7 628.2a28 28 0 0 0-7.2-4.7l.2-.7q5.5 2.7 7.3 4.7zm-2.4-11q-1.9 0-5.5-2.7l.2-.7q3.6 2.6 5.3 2.6zm-1.4-8.7q0-.3-5.2-2.3l.2-.8c3.9 1.5 5.4 2.4 5.6 3.1zm-.5-10-5.7-2 .1-.8 5.8 2zm-2.1-9.4q0 .9-2.3 1-1 .3-2 .2v-.8q3.7 0 3.7-.4zm-1.4-7.9q-.7 0-3.9 1.5l-.2-.8q3.4-1.4 4.1-1.5zM786 605q-1.9 0-5.5-1.8l.2-.7q3.5 1.8 5.3 1.7z"/><path fill="#522108" d="M788.6 619.4q-.4-8.2-10.8-54.5l.6-.3q10.4 46.5 10.8 54.7zm-3.6-1.2-4.1-26.4-4.2-26.4.6-.2 4.2 26.4 4 26.3zm-3.6-4-3-24.3-3.2-24.4.6-.2 3.1 24.5 3 24.3z"/><path fill="#522108" d="M784.6 598.5q0-.2-5.2-1.4l.2-.8c3.9 1 5.4 1.5 5.6 2.1zm-.5-7.3-5.7-1.3v-.8l5.9 1.2zm-2.1-7c-.2.6-1.3 1-4.3 1.1v-.8l3.7-.3zm-1.4-5.7q-.7 0-4 1.2v-.8l4-1.3z"/><path fill="#dd8b59" d="m742.3 627.3 1-129.6c.3 0 3-.5 3.3 0l-.7 129.6c-.7.5-3.6 1-3.6 0"/><path fill="#522108" d="m742 627.2.5-64.7.5-65.2h.3l2.8-.3q.8 0 .8.6l-.2 64.9q-.4 64.6-.6 65-.4.7-2.3.8h-1.3l-.4-.4q-.2-.3-.2-.7m.6.1v.2h1.2q1.7-.2 2-.5l.4-64.5.2-64.6H745l-1.4.1-.5 64.5z"/><path fill="#dd8b59" d="m777.7 502.3-.6 96.7-.1 12.4-2.6 4.2.8-113.1z"/><path fill="#522108" d="m778 502.3-.4 54.5-.3 54.7-3.2 5.3.8-114.7 3.1-.2zm-.6.5h-2l-.6 111.7 1.9-3.3.3-54.3z"/><path fill="#dd8b59" d="M714.8 602.2c.2-3.1.3-96.6.3-96.6l-2.2-.6-.3 95.5z"/><path fill="#522108" d="m715 602.8-2.7-2 .4-96.3 2.7.7v.4q0 93.4-.3 96.6zm-.5-1.3.3-95.6-1.5-.4-.4 94.8z"/><path fill="#dd8b59" d="M701 566.5c1.5 0 26-4.9 26-4.9l-.3 5.7-24.2 2.9z"/><path fill="#522108" d="M701 566.1q1.5.2 26-4.9h.4l-.4 6.5-24.7 3-1.8-4.6zm.5.8 1.1 2.9 23.8-2.9.3-4.8a365 365 0 0 1-25.2 4.8"/><path fill="#dd8b59" d="M701.4 536.6c1.8.2 29.2-9.9 29.6-10 0 .2 0 3.3-.3 3.6l-25.8 8.8-3.5 1.2z"/><path fill="#522108" d="M701.5 536.2c1 .2 10.6-2.7 29.5-10l.3-.2v2.4q-.1 2.2-.6 2.2l-29.2 10-.4.1V536zm.2.8v2.7q28.5-9.7 29-10v-2.6a201 201 0 0 1-29 9.9"/><path fill="#dd8b59" d="M702.5 521.6c-.3 2.1.3 4.6.3 4.7l23.5-10.7c.1-.2 1-2.3 0-2.5-1.7.3-23.3 9.1-23.8 8.5"/><path fill="#522108" d="m702.8 521.7-.1-.3-.2-.1h.2l.9-.2 3.3-1.1 9.7-3.7 9.7-3.7q.6 0 .8.8v1l-.5 1.4v.2l-24 10.8v-.4q-.7-2.6-.4-4.8v-.2zm-.1.4q-.1 1.6.3 3.7l23.1-10.5q.3-.5.3-1l.1-.7-.2-.1-9.5 3.6-9.7 3.7z"/><path fill="#dd8b59" d="M733.6 515.2c.7-.2 24-11 24.2-11 0 .2.2 4.3 0 4.6l-19.6 8.5-2.5 1z"/><path fill="#522108" d="M733.6 514.8q.6.2 24.1-11l.4-.2v.5l.1 2.3v1.7q0 1-.4 1.1l-22 9.5h-.2l-2.7-4zm.6.7 1.6 2.3 21.8-9.4v-3.7q-20.2 9.7-23.5 10.7m23.5-7h.2z"/><path fill="#dd8b59" d="M731.8 528.6c0 .2-.6 4.4-.4 4.7l30.7-11.7v-3.1a924 924 0 0 1-30.3 10.1"/><path fill="#522108" d="M731.5 528.3q15.2-4.8 31-10.3v3.9l-15.6 6.1-15.5 5.7q-.3 0-.4-.6v-.6l.1-1.6.4-2.4zm.5.7-.3 2-.1 1.6v.2l15.1-5.6 15.1-6V519q-14.6 5.2-29.8 10"/><path fill="#dd8b59" d="M732.8 565.3v3.6l26-5.4-.6-2.5z"/><path fill="#522108" d="m732.5 565 25.9-4.5 1 3.4-26.9 5.5zm.7.7v2.8l25.3-5.3-.5-1.8z"/><path fill="#dd8b59" d="m762.9 567.6.3 3c.4 0 25.5-6 26-6.5 0-.7 0-3.3-.3-3.6-.7.2-25.3 7.2-26 7"/><path fill="#522108" d="m762.6 567.6-.2-1.3.7 1c.1 0 7-1.6 20.9-5.7l5-1.5q.4 0 .5 2v2c-.2.5-8.5 3.2-26.2 7h-.3zm.6.3.3 2.3c17-3.7 25.4-6 25.5-6l-.2-3 .1-.3-4.8 1.5q-18 5.2-20.9 5.5"/><path fill="#dd8b59" d="m762.5 534.5.4 3.6q15.1-6.3 30.7-13.6c0-.2.6-2.9.4-3-1.2.3-29.9 14.1-31.5 13"/><path fill="#522108" d="m762.2 534.6.6-.3c.5.4 9.1-2.8 27.1-11.4l4-2q.4 0 .5.5v.5l-.2 1.1q0 .9-.3 1.6v.2a891 891 0 0 1-31.3 13.8zm.6.3.3 2.7q15-6.3 30.3-13.4l.4-2.3-3.7 1.8c-15.9 7.6-24.9 11-27.3 11.2"/><path fill="#dd8b59" d="M765.8 517.9c0 .2-.3 2.8 0 3 .6-.1 22.2-8.9 22.8-9.4.1-.7 2-3.5.3-3.1-2.4 1-21.7 10.5-23.1 9.5"/><path fill="#522108" d="m765.6 516.7.4 1a75 75 0 0 0 18.1-7.5l4.7-2.2q.7-.3 1 0 .2.3.1 1 0 .5-.7 1.7l-.3.8a213 213 0 0 1-23 10q-.5-.1-.6-1v-1.1l.2-1.6zm.4 1.6v2.1l-.2.1q.3 0 11.4-4.4l11-4.6.5-1.2.6-1.5v-.1h-.3l-4.7 2.3a82 82 0 0 1-18.3 7.3"/><path fill="#fecf3e" d="M716.6 528.3c3-1.8 1.3-4.7 1.8-5 .9.2 3 2.3 4.7.6 1.5-2.6 2.4-7.6 1.8-7.8-1 .6-16 7.7-19.6 8 2.4 1.4 8.2 5.1 11.3 4.2"/><path fill="#522108" d="M716.7 528.7c-1.9.6-5-.4-10.4-3.6l-1.1-.6v-.8q2.2 0 10.8-3.7a105 105 0 0 0 9.1-4.3l.3.4v.8l-.3 2.3q-.7 3.4-1.8 5c-1 1-2 1-4-.1l-.8-.4v.3q.7 3.5-1.8 4.7m-.2-.7c1.3-.8 1.7-1.8 1.5-3.8v-.8q-.1-.6.4-.6l1 .5q2.5 1.4 3.5.3.9-1.5 1.6-4.7l.3-2 .2-.4a100 100 0 0 1-18.5 7.9c5.3 3.1 8.2 4 10 3.6"/><path fill="#fecf3e" d="M766.9 521c0 .4 1.6 5.4 3.6 5 1.8-1.3 3.6-3.3 3.6-3.3.1.4 1.3 4.5 4 3.9 2.4-1.6 3.9-6.7 4-7 0 0 2.3.8 3.6.3.8-1 2.4-8.6 2.5-9z"/><path fill="#522108" d="m766.4 520.7 22.2-10.3-.1.7q-1.6 8.5-2.7 9.2t-3.6-.2c-1 4-2.3 6-4 6.9-2 .7-3-.3-4.3-3.6a17 17 0 0 1-3.3 3q-1.4.7-2.9-2.3l-1.1-3zm.9.5 1 2.4q1.1 2.4 2 2a17 17 0 0 0 3.6-3.2l.3-.4.2.5q1.3 4.8 3.6 3.7c1.6-1 2.7-2.8 3.8-6.7v-.3h.3q2.5.9 3.4.4t2.3-8z"/><path fill="#fecf3e" d="M764.7 571.1c-.2 1.3 1.6 3.3 3.6 3.5 1.9-.4 2.4-3.4 2.9-2.7.3 1.4.3 5.2 5 3.9 4.7-2.3 4.7-6.2 4.7-6.5 0 .1-1.3 1.5 1.9 2 3.4-.5 6.1-6.6 6.1-7.1-.7.1-23.2 7-24.2 7"/><path fill="#522108" d="m764.5 570.6.3.1q.5.4 19.8-5.6l4.3-1.4q.2 0 .3.3v.6l-.4.9-1.4 2.6c-1.8 2.6-3 3.6-4.7 3.6q-1.1-.2-1.8-.5l-.3.9q-1.3 2.9-4.3 4c-3 1-4.4 0-5.3-3.4v-.4l-.3.4q-1.3 2.2-2.4 2.3-1.4 0-2.8-1.4-1.4-1.5-1.1-2.7zm16.6-.2q.4.3 1.7.5 2 0 4.2-3.3.8-1.3 1.3-2.5l.2-.4-3.8 1.2a182 182 0 0 1-19.8 5.6q0 .6 1 1.4 1.2 1.3 2.4 1.3.9-.1 2-2l.4-.7.4-.2q.3 0 .4.4l.1.8c.8 3 2 3.7 4.6 2.9a7 7 0 0 0 4.3-4.7l-.2-.5q0-.6.5-1.2l.5-.5v.8z"/><path fill="#fecf3e" d="M764.7 537.5c-.1.2-3.4 5.7-2.6 13.5 1.2 8 2.7 14.1 3 14.4.3-.4 4.4-9.9 8.6-11.2 4.6-.3 12 4.8 12.3 5 0 0-1-12.3-.7-18 .7-5.8 6.4-15.9 6.5-16z"/><path fill="#522108" d="m764.5 537.3.2.2-.1-.4 28-12.8-.6 1.1c-4 7-6 12-6.4 15.8q-.3 5.6.7 18v.7l-.4-.3q-7.9-5.6-12.2-5c-2.2.6-4.5 3.4-7.6 9.6l-1 1.6c-.8-.2-1.8-4.6-3.2-14.7a24 24 0 0 1 2.6-13.8m.4.6q-.9 1.4-1.6 3.7-1.4 4.7-.9 9.3A73 73 0 0 0 765 565v-.2l.6-1c3.2-6.4 5.7-9.4 8-10q4.4-.7 12 4.6-.9-11.7-.6-17.3.4-5.5 6-15z"/><path fill="#fecf3e" d="M702.1 570.7c.3.4 0 4.2 2.9 3.7a6 6 0 0 0 3.6-3.4c0 .4.7 5 4.7 5.3 4-1 6-6.2 6.2-6.5 0 .3.2 4.2 2.9 3.1a10 10 0 0 0 3.2-5l-22.8 3.9z"/><path fill="#522108" d="m702.1 570.3.2.1.6 1 5.5-1 .3-1 .1 1 10.8-1.9v-.2.2l6.4-1.2-.1.6q-.8 3.8-3.4 5.4-1.8 1-2.8-1.2l-.4-1.1c-1.6 3.6-3.3 5.3-6 5.7q-2.6.1-4-2.7l-.8-1.9a6 6 0 0 1-3.4 2.7q-1.6.4-2.4-.9-.4-.7-.7-2.4v-.5l-.6-.7zm6.9.9q0 1.1.7 2.3 1.3 2.5 3.6 2.4c2.6-.5 4.3-2.3 5.9-6.3v-.2zm10.7-1.9v.4l.5 2q.6 1.5 2 .8 2.2-1.4 3-4.2zm-17 2.9.4 1.2q.7 1 1.8.6 2.4-.8 3.3-2.7z"/><path fill="#fecf3e" d="M702.1 540.2c-.2.1-3 1.3-2.2 10.8a38 38 0 0 0 4 14.6c.3-.3 3.4-8.2 7.6-10 4.6-1 11.6 4.7 12 5 0-.1-.7-8.3.3-16 1.3-7.8 4.7-13.3 4.7-13.4-.1 0-25.2 8.9-26.4 9"/><path fill="#522108" d="M702 539.8c.7 0 9.4-2.7 26.3-9l1-.4-.7 1a34 34 0 0 0-4.6 13.2q-1 7.7-.4 15.9l.1.8-.5-.4c-5.2-4.2-8.7-5.7-11.7-5-2.2 1-4.3 3.5-6.7 8.7q-.7 1.5-1 1.4-.6 0-2-4-1.5-4.9-2.3-11-.5-6 .7-9.1.8-1.7 1.7-2zm.2.8q-.7.4-1.3 1.7-1.2 2.9-.7 8.6a59 59 0 0 0 3.7 14.3v-.2l.4-.9c2.6-5.3 4.8-8 7.1-9 3-.7 6.6.6 11.7 4.7q-.6-8 .4-15.3a36 36 0 0 1 4.2-12.6c-16 6-24.5 8.6-25.5 8.7"/><path fill="#fecf3e" d="M734.3 516.8c1.6 1 3.8 5.1 5.4 4.6a24 24 0 0 0 3.6-4.1c0 .5-.4 5.6 2.6 5.1 2.8-1.4 3.2-4.9 3.2-5.2.2.1 2 1.4 4 0 1.9-2.2 3.3-8.8 2.9-9.4-1 .3-20.8 9-21.7 9"/><path fill="#522108" d="M734.4 516.4q.8.1 14.4-5.9l7.2-3.1q.4 0 .5.7l-.1 1-.6 3q-1.3 4.2-2.5 5.4-1.8 1.5-4 .3-.5 4-3.4 5-1.1.5-1.8-.4-.6-.7-.9-2l-.2-2a18 18 0 0 1-3.1 3.4q-1 .7-3.7-2.5a9 9 0 0 0-2-2.1zm.8.6 1.4 1.7q2.3 2.9 3 2.4 1.4-1 3.5-4.1l.6-.8v1.1q-.1 1.5.1 2.9.3 1 .7 1.6.4.5 1.3.2c1.8-.8 2.7-2.1 3-4.8v-.6l.5.3q2 1.4 3.6 0 1.1-1.1 2.3-5.1l.7-3.5-7 3a166 166 0 0 1-13.7 5.7"/><path fill="#fecf3e" d="M733.6 531.7c-.2 1.1-3.4 9.3-2.6 17 1.2 8 3.4 14.8 3.7 15 .3-.1 5.9-7.8 10.4-9.8 5.2-1 11.1 4.7 11.3 5-.3-.3-1.7-7.4-1.8-13.3.2-5.8 5.4-23.3 5.4-23.4z"/><path fill="#522108" d="m733.3 531.4 27.2-9.9-.2.8a109 109 0 0 0-5.4 23.2q0 3.9.7 8.8l.7 4 .3.3v.6l-.2.2-.3-.3-.1-.1-.7-.7-2.8-2c-3.1-2-5.2-2.5-7.3-2q-3.4 1.3-9.3 8.5-1 1.5-1.2 1.4c-.4-.2-1-1.5-1.9-4.9q-1.3-5.3-2-10.5a39 39 0 0 1 2.5-17zm22.3 26.2a53 53 0 0 1-1.4-12 106 106 0 0 1 5.3-22.8l-25.7 9.3-.4 1.6a38 38 0 0 0 0 25.4l1.2 4.2.2-.2.7-.9q6-7.4 9.6-8.7c2.2-.5 4.4 0 7.7 2q1.5.9 2.8 2.1"/><path fill="#fecf3e" d="M733.6 569c0 .7 1 3.7 3.6 4 2.5-.3 2.9-3.3 2.9-3.5 0 .5-.4 5.5 3.6 5.6 4-1 5.3-5.8 5.4-6.2 0 .2.3 2.8 3.6 1.5a28 28 0 0 0 7.3-6.9c-1 .2-25.2 6.7-26.4 5.4"/><path fill="#522108" d="m733.3 569 .6-.2a106 106 0 0 0 26-5.7q.3 0 .4.3v.3l-.2.3q0 .3-.4.6l-1.8 2q-3 3-5 4.2-2.2 1-3.4-.2l-.4-.6c-1.2 3.5-2.7 5-5.4 5.5q-2.7.4-3.6-2.9l-.2-1q-.8 1.9-2.7 1.9-1.8 0-3-2-.9-1.5-1-2.6m.7.5q.2.7.8 1.5 1 1.7 2.5 1.8 2.3 0 2.6-3.3l.6.1q0 1.5.3 2.9.8 2.6 3 2.3c2.6-.5 4-2.2 5.1-6l.6.1q0 .6.5 1.1.9 1 2.7.1a21 21 0 0 0 6.6-5.9l-1.8.5a111 111 0 0 1-23.5 4.8"/><path fill="#dd8b59" d="M702.1 605.3s3.6 53.7 45.2 52.5c41.6-2.7 53.2-56.3 53.2-56.3l-18.1.3c-.5.4-14.4 25.1-32.6 25.5-18-.5-23.8-6.7-27.8-12-4-5.4-7.6-13.1-7.6-13.1l-21-12.8 1.1 11.4z"/><path fill="#522108" d="m701.8 605.6-7.6-4.5-1.2-12.4 21.6 13.1v.1q3.7 8 7.6 13 4 5.3 8.5 7.8 7.1 4 19.1 4.1c10.7 0 20.9-7.8 31.6-24.2l1-1.2 9-.1 9.5-.3-.1.5q-3 13.4-11 27.4-16.5 27.9-42.5 29.3c-17.6.6-30-8-38.4-26a87 87 0 0 1-7-26.6m.5-.3q.3 3.3 1.2 8.3a86 86 0 0 0 5.8 18.2c8.3 17.7 20.5 26.2 38 25.6q25.8-1.4 41.9-29 7.8-13.5 10.8-26.5l-8.7.2h-9v.2l-.5.8c-10.9 16.6-21.2 24.5-32 24.6a43 43 0 0 1-19.4-4.2q-4.6-2.6-8.7-8a76 76 0 0 1-7.6-13L693.8 590l1 10.4 7.6 4.5z"/><path fill="#dd8b59" d="m814.4 596.6-1.3-6.7v-6.2l2-6.6-31.4 9.8q-.3 6-.2 12.2a638 638 0 0 0 30.9-2.5"/><path fill="#522108" d="M814.8 597a641 641 0 0 1-31.6 2.6V593l.2-6.1q0-.4.3-.5l.2.1q3.6-1.3 31.2-9.7l.5-.2-2.2 7.1v6q.9 5.2 1.3 6.7zM784 586.9l-.1 6-.1 5.8q15-.9 30.2-2.5l-1.2-6.2v-6.4l1.8-5.9c-20.5 6.5-30.5 9-30.6 9.1m0 0"/><path fill="#dd8b59" d="m808.4 584.2-.7 10.9 5-.6-.3-10.8z"/><path fill="#522108" d="m808.2 583.8 4.5-.5.4 11.6-5.7.6.7-11.4zm.5.7-.7 10.1 4.5-.4-.4-10z"/><path fill="#dd8b59" d="m803 585.2-.4 11.4 3.3-.8.4-11z"/><path fill="#522108" d="m802.7 584.8 3.9-.4-.4 11.7-3.9 1 .4-11.9zm.6.8L803 596l2.6-.7.4-10z"/><path fill="#dd8b59" d="M797.6 597v-8.7l3.3-1.9.3 8.8z"/><path fill="#522108" d="m797.3 588 3.8-2.2.4 9.7-4.2 2.1zm.6 8.5 3-1.6-.3-7.9-2.7 1.5z"/><path fill="#dd8b59" d="m791.4 597 .8-7.8 3.6.2.3 8.3z"/><path fill="#522108" d="m791.1 597 .8-8.2 4.2.3.4 9-5.4-.7zm.7-.3 4 .5-.3-7.4-3-.2z"/><path fill="#dd8b59" d="m784.6 597.5.3-6.7 3.7-.8v7.8z"/><path fill="#522108" d="m784.3 597.5.4-7 4.1-1v8.7l-4.5-.3zm.6-.4 3.4.2v-6.8l-3 .6z"/><path fill="#dd8b59" d="M781 601.9q16.8-.6 34.3-2l.4-3.6a645 645 0 0 1-35.5 2.5z"/><path fill="#522108" d="m780.7 602.3-.9-3.9q18-.7 36.2-2.6l-.4 4.5q-17 1.5-34.6 2zm.5-.9a639 639 0 0 0 33.9-1.9l.2-2.8a647 647 0 0 1-34.7 2.5z"/><path fill="#dd8b59" d="M782.4 588.9a484 484 0 0 0 34-11.3c0-.4 1-4.8 0-5.2-.8.2-21 8.1-29.8 11.3l-4.2 1.5z"/><path fill="#522108" d="M782.1 589.3v-4.4h.2c22-8 33.4-12.7 34.1-12.9q.6 0 .8 1v2l-.5 2.7v.2l-.2.1c-20 7.8-31.4 11-34.1 11.3zm.6-.9c3.1-.4 14.3-3.7 33.5-11.1l.4-4q0-.4-.2-.4c-.7 0-11.9 4.8-33.7 12.7z"/><path fill="#dd8b59" d="m663 568.7 27.5 21-.7 2.6c-.1-.1-26-19.4-26.4-20 0-.5.3-2.4-.4-3.6"/><path fill="#522108" d="m663.2 568.4 27.7 21.2-1 3.3-.2-.2a335 335 0 0 1-26.6-20.4v-.5q.1-2-.3-2.8zm.5 1.3v2.7s8.6 6.8 26 19.3l.4-1.8z"/><path fill="#dd8b59" d="M675.7 564c0 1.6 4 33.3 4 33.3.2 0 2.3.6 2.5.2l-4.3-32.8z"/><path fill="#522108" d="m675.4 563.5 2.7.8 2.3 16.7 2.1 16.5q0 .6-.7.6h-.9l-1.3-.4h-.2v-.3q-4-31.9-4-33.4zm.6 1 4 32.5 1.8.3.1.2-2.1-16.4-2.2-16.1zm55 60.1q.4-8.5 10.8-57.4l.6.2q-10.4 48.8-10.8 57.3zm3.6.6 4.1-28.7 4.2-28.8.6.2-4.2 28.7-4.1 28.8zm2.8.1 3.5-28.7 3.5-28.9.6.2-3.5 28.8-3.4 28.8z"/><path fill="#522108" d="M731.5 617.4q1.8-1.6 7.3-3.8l.2.8q-5.4 2.2-7.2 3.7zm2.7-8.7a13 13 0 0 0 5.3-2l.2.7a13 13 0 0 1-5.5 2.2zm.8-6q0-.8 5.6-2.5l.1.8q-5.1 1.5-5.1 1.7zm1-8.5 5.7-1.6.1.9-5.8 1.6zm2.8-6.5h3.7v1l-2-.1q-2.3-.2-2.3-1zm.8-6.9q.7 0 4 1l-.1 1q-3.2-1.1-3.9-1.1zm22 43.2q.5-8.2 11-55.8l.5.2Q762.7 616 762.3 624zm3.7-1.7 4.1-26.8 4.2-26.8.6.1-4.2 26.8-4.1 26.8zm3.6-4.3 3-24.6 3.1-24.8.6.2-3 24.7-3.1 24.6z"/><path fill="#522108" d="M762.2 617q1.9-1.6 7.3-4l.1.8q-5.4 2.4-7.1 3.8zm2.7-8.5q1.7 0 5.3-2.2l.2.7a15 15 0 0 1-5.5 2.3zm.7-5.8c.2-.6 1.8-1.4 5.7-2.7l.1.8-5.2 1.9zm1-8.2 5.8-1.8.1.8-5.8 1.8zm3-6.4h3.6v.8q-4.3 0-4.3-.8zm.7-6.6q.7 0 4 .8l-.1.8q-3.2-.8-4-.8zM727 618.8a597 597 0 0 0-11-55.8l.6-.2q10.5 47.6 10.9 56zm-3.6-1.6-4.2-26.9-4.2-26.8.6-.2 4.2 26.9L724 617zm-3.7-4.2-3-24.7-3.1-24.9.6-.1 3 24.9 3.1 24.6z"/><path fill="#522108" d="M726.7 612.3a31 31 0 0 0-7.1-3.7l.2-.8q5.4 2.2 7.3 3.9zm-2.3-8.2q-1.8-.2-5.6-2.3l.3-.7q3.5 2 5.3 2.1zm-1.4-6.7q0-.2-5.2-1.8l.1-.8c4 1.2 5.5 2 5.7 2.6zm-.5-7.4-5.8-1.7.1-.8 5.8 1.7zm-2.2-7.2q0 .8-4.2.8v-.8h3.6zm-1.3-5.9q-.7 0-4 1l-.1-.9q3.3-1 4-1z"/><path fill="#b6b6b4" d="M692.7 589.9c-.6-.2-6.5-1.8-6.9.6.6 2.5 3.4 5.4 4 7 .2 2-1 6.5 1 6.7 2.4-.6 4.2-2.2 4.4-3.9l-.3-8.8z"/><path fill="#522108" d="m692.8 589.5 2.4 1.8v.2l.3 8.8q0 1.4-1.5 2.8-1.5 1.2-3 1.5-1.4.3-1.6-1.6v-3.2q.3-1.9.1-2.2-.2-.6-1.5-2.4-2.2-3-2.5-4.6 0-1.4 1.2-1.7.9-.3 2.4-.1 1.8.1 3.6.7zm-.2.8q-1.7-.5-3.5-.7l-2.3.1q-.7.3-.7.7.3 1.4 2.4 4.3 1.4 1.9 1.6 2.6v2.6q-.2 2.3 0 3 0 1 .7 1 1.6-.4 2.9-1.5t1.2-2l-.3-8.6zm8 14q1.2 0 9.5 3h.1l8.8 17-.5.4-8.6-16.7a93 93 0 0 0-9.2-2.9z"/><path fill="#522108" d="m707 606.8.3.7a58 58 0 0 0 9.4 19.2 39 39 0 0 0 32.4 15.6c14.5-.3 25.6-7.1 34.3-20.7a64 64 0 0 0 8.5-20l.6.1a65 65 0 0 1-8.6 20.4c-8.8 13.8-20 20.7-34.8 21a39 39 0 0 1-32.8-15.8q-6.3-8.3-9.6-19.5l-.1-.4z"/><path fill="#522108" d="M797.9 602.4q-4.3 13.3-12.4 26.4c-11.1 17.5-22.9 25.4-36.4 24.2a48 48 0 0 1-30.9-13 43 43 0 0 1-8.8-17.2q-2.5-9-4-16.2l.6-.2q1.5 7.2 4 16.1a42 42 0 0 0 8.6 16.8q10 10.6 30.5 12.9c13.4 1.1 25-6.6 36-24q8-12.9 12.2-26.1zm-9.6-41.4q.3-1.5 1.4-32.6h.6q-1.1 31.2-1.5 32.8zm25.3 13.5L791.2 526l.5-.5 22.4 48.5zm-68-75.3q0-.4.3-.4h.2l.3.1 1.3.7 3.9 2.4a26 26 0 0 1 5.8 4.2l19.9 37.2 20 36.2v.8c-.3-.1-7.1-11.8-20.5-36.5q-20-37-20-37.7l-10.6-7zm31.9 5.9 10.2 5.6L791 522l-.6.3-3.2-11-10-5.5zm-63.1.3h.2v-.5l.4.4 1.2 1.4 3.9 4.4 5.7 6.3 1.6 10.6-.6.1-1.5-10.2-5.6-6.2-3.9-4.4-1.2-1.4-.3-.4-.1-.2v-.6h.2zM674.9 578c3.3-1.9 16.6-16.3 40-44.8l.4.6c-23.4 28.6-36.8 43-40.2 45zm-9.5-8.9 19.5-22 19.9-23 .4.5-20 23-19.4 22.1z"/><path fill="#522108" d="m731.7 532 37.2 87.8-.5.4-37.3-87.8zm32.8 36.3q1.2 5.2 2.8 10.6c2.2 7.4 4.1 11.3 5.8 12.7q4.4 3 9.5 7.8l-.4.6a76 76 0 0 0-9.4-7.7q-2.7-2-6-13-1.7-5.6-2.8-10.8z"/><path fill="#522108" d="m764 568.8 2.1 12.7q2.7 13.2 5.3 15.9 4.3 4.4 8.7 9.4l-.4.6-8.7-9.4q-2.7-2.8-5.4-16.3-1.4-6.6-2.1-12.8zm-30-1.4q1.2 8.6 3.3 18c3 12.7 6.1 20.3 9.6 23.6l16 14.1-.4.7-15.9-14.1q-5.4-5-9.9-24-2.1-9.6-3.2-18.1z"/><path fill="#522108" d="M733.7 566.8q2.3 6.7 5.6 14.5 6.8 15.4 11.6 20.4 8 8.1 18.8 15.5l-.3.7q-10.8-7.3-18.8-15.5a78 78 0 0 1-11.8-20.7q-3.2-7.8-5.7-14.5zm-30.4 1.3q1 3 2.3 11 1.2 9.1 2.7 11.3 2.9 4.3 7.3 13.7l-.6.5a109 109 0 0 0-7-13.6q-1.5-2.5-3-11.7a60 60 0 0 0-2.2-10.8z"/><path fill="#522108" d="m704 568.6 2.8 8.6a134 134 0 0 0 5.1 15q1.9 4.2 20.3 30.8l-.5.6a369 369 0 0 1-20.3-31q-1.5-3-5.1-15l-2.8-8.6z"/><path d="M725.8 624.5q-.2 3.5-2.7 3.8-2.5-.4-2.7-4 .2-3.4 2.7-3.7 2.5.4 2.7 3.9"/><path fill="#522108" d="M726 624.5q0 4.2-3 4-2.8 0-2.8-4.1 0-1.6.8-3 1-1 2-1 1.4 0 2.1 1.2.9 1.1.9 2.9m-.4 0q0-3.6-2.5-3.7-1 0-1.8 1-.7 1.2-.7 2.6t.7 2.6q.7 1 1.8 1 2.5.1 2.5-3.5"/><path d="M739.2 632.9q-.2 3-2.4 3.3-2-.3-2.3-3.3.2-3 2.3-3.4 2.2.3 2.4 3.4"/><path fill="#522108" d="M739.4 632.9q0 3.6-2.6 3.6-2.5 0-2.5-3.6 0-1.4.7-2.6.8-1 1.8-1 1.1 0 1.8 1 .7 1.2.8 2.6m-.4 0q0-3.1-2.2-3.1-.8 0-1.5.9a4 4 0 0 0 0 4.4q.8.8 1.5.9 2.1 0 2.2-3.1"/><path d="M756.2 634.8q-.2 3-2.4 3.4-2.1-.4-2.3-3.4.2-3 2.3-3.3 2.2.1 2.4 3.3"/><path fill="#522108" d="M756.4 634.8q0 1.5-.8 2.5-.7 1-1.8 1.1-2.5.1-2.5-3.5 0-1.5.7-2.6.8-1 1.8-1.1 2.6-.1 2.6 3.5m-.4 0a4 4 0 0 0-.6-2.1q-.7-.9-1.6-.9-2.1 0-2.1 3.1 0 1.4.6 2.2.8.9 1.5.9 2.1 0 2.2-3.1"/><path d="M771.2 626.3q0 1.5-1 2.5-1.1.8-2.3 0-1-.7-1-2.4t1-2.5q1.2-.9 2.2-.1t1 2.5"/><path fill="#522108" d="M771.4 626.2a4 4 0 0 1-.7 2.3q-.7.9-1.7 1t-1.7-.9q-.6-.9-.6-2.2 0-1.2.6-2.2.8-1 1.7-1 2.4 0 2.4 3m-.4 0q0-2.5-2-2.4-1.9 0-2 2.6 0 2.6 2 2.5.9 0 1.4-.8.6-.7.6-1.8"/><path d="M782.6 615.6q-.2 3-2 3.5-1.8-.2-2-3.3.2-3 2-3.5 1.8.2 2 3.3"/><path fill="#522108" d="M782.8 615.6q0 3.6-2.2 3.7-.8 0-1.6-1a5 5 0 0 1-.6-2.5q0-3.6 2.2-3.7.8-.1 1.6 1 .6 1 .6 2.5m-.4 0q0-3.2-1.8-3c-1.2.2-1.7 1-1.8 3.2q0 1.3.5 2.2.6.8 1.3.8c1.2-.2 1.7-1 1.8-3.2"/><path fill="#ff0101" d="M712.8 505.6c-1.5 1-19 6.2-16.7 6 3.2 0 16.2 5.6 16.7 4.3-.2-1.6 0-9.2 0-10.3"/><path fill="#522108" d="m712.6 505.3.5-.5v2.4a75 75 0 0 0 0 8.6q0 .6-.3.8h-.6l-1.7-.3-5.4-1.7a46 46 0 0 0-9.3-2.6l-.2-.2v-.4l.2-.1.1-.1 1.2-.4 4.6-1.6q10.4-3.4 10.9-4m-.1 1q-2 1-10.6 3.8l-4.3 1.4q2.4.5 7.6 2.3l7 2 .3.4q-.3-1.4 0-9z"/><path fill="#ff0101" d="M743.5 498.3c-3.3 1-8.4 3.3-10.8 5.7 1 .3 11 4.2 11.5 3.6-.2-1-.4-7.7-.7-9.3"/><path fill="#522108" d="M743.5 497.9v.4l.3-.1.4 4.8.3 4.4q.1.4-.1.7h-1l-2.4-.7-8.6-3.4v-.4h.2l.3-.3 1.1-.6 3.6-2 5.5-2.7v-.1zm-.2 1-10.6 4.7 2.5.8 8.7 3-.3-4.4z"/><path fill="#ff0101" d="M775 502.6c-1.4.8-12.3 4.7-10.9 5.6 2.7.7 10 3.8 10.5 3.2 0-1.1.2-8.1.4-8.8"/><path fill="#522108" d="m774.9 502.2.3.7q-.2.3-.3 8.5.1.5-.4.6h-.4q-.6 0-1.5-.4l-4.2-1.5-4.3-1.5-.3-.1q-.2-.1-.2-.6 0-.3.5-.6l1.9-1.1zm-.3 1-2.5 1.2-7.6 3.5 4.1 1.5 5.5 1.8h.2q0-6 .3-8"/><path fill="#be1017" d="M737 541.4q1.6.4 1.7 2.8-.1 2.5-2 2.7-1.6-.4-1.8-2.9.3-2.5 2-2.6"/><path fill="#522108" d="M737 541q.8 0 1.5 1 .5 1 .5 2.3 0 3.2-2.3 3-2.1-.2-2-3.3 0-1.3.6-2.2.7-.8 1.6-.8m0 .8q-.7 0-1.2.6t-.5 1.6.4 1.7 1.2.7q1.5.1 1.7-2.2 0-2.2-1.6-2.4"/><path fill="#be1017" d="M750 536.6q1.6.3 1.8 2.8-.3 2.5-2 2.6-1.7-.3-1.9-2.8.3-2.5 2-2.7"/><path fill="#522108" d="M750 536.1q.8 0 1.5 1t.6 2.3q-.2 3.2-2.3 3-2.2 0-2.2-3.2 0-1.3.8-2.2.6-.9 1.5-.9m0 .9q-.6 0-1.1.6t-.6 1.6q0 2.3 1.6 2.4t1.7-2.2a3 3 0 0 0-.5-1.7q-.4-.7-1-.7"/><path fill="#be1017" d="M743.4 546.5q1.7.4 1.9 2.8-.4 2.5-2 2.7-1.7-.4-1.9-2.9.3-2.5 2-2.6"/><path fill="#522108" d="M743.4 546q1 .1 1.6 1t.5 2.3-.7 2.2-1.6.9q-2.1-.2-2-3.3 0-1.3.6-2.2t1.6-.8m0 .8q-1.6-.1-1.7 2.2 0 1 .4 1.7t1.2.7q1.6.1 1.7-2.2t-1.6-2.4"/><path fill="#be1017" d="M743.4 531.5q1.7.3 1.9 2.9-.4 2.4-2 2.6-1.7-.4-1.9-2.8.3-2.5 2-2.7"/><path fill="#522108" d="M743.4 531.1c1.6.2 2.1 1 2.1 3.3q0 1.3-.7 2.2-.7.8-1.6.8c-1.5-.2-2-1-2-3.2q0-1.4.6-2.2.7-1 1.6-.9m0 .9q-.7 0-1.2.6t-.5 1.6.4 1.7 1.2.7q1.6.1 1.7-2.2a3 3 0 0 0-.5-1.7q-.4-.7-1-.7"/><path fill="#be1017" d="M743.4 539q1.7.4 1.9 2.8-.4 2.5-2 2.7-1.7-.3-1.9-2.9.3-2.4 2-2.6"/><path fill="#522108" d="M743.4 538.6q1 0 1.6 1t.5 2.3q0 3-2.3 3-.8 0-1.5-1t-.6-2.3q0-1.3.7-2.2.7-.8 1.6-.8m0 .8q-1.6-.1-1.7 2.3 0 2.3 1.6 2.4 1.6 0 1.7-2.3a3 3 0 0 0-.5-1.6q-.4-.7-1-.8"/><path fill="#1a1a1a" d="M8 195.3c170.8-85.3 341-54.5 513.3-28C676.5 191 833.4 211.8 992 132.7v672c-170.8 85.3-341 54.5-513.3 28C323.5 809 166.6 788.1 8 867.2zm31.3 19.3v604.5c306.5-128.2 611.1 96 921.5-33.7V180.9C654.2 309 349.5 84.9 39.3 214.6" opacity=".2"/></svg>