<svg xmlns="http://www.w3.org/2000/svg" viewBox="0 0 1000 1000"><path fill="#da000c" d="M8 195c171-85 341-54 513-28 155 24 312 45 471-34v672c-171 85-341 54-513 28-155-24-312-45-471 34z"/><path fill="#fff" d="M8 195c171-85 341-54 513-28 155 24 312 45 471-34v450c-171 85-341 54-513 28-155-24-312-45-471 34z"/><path d="m386 453 123 18v115q-61-10-123-18z"/><path fill="#da000c" d="m450 560-75-10-17 13v16l92 12z"/><path d="m375 552-16 12v14l92 12v2l-94-11v-18l17-14 77 10v3z"/><path fill="#da000c" d="M418 489c11 2 20 15 20 31v38l14 3V414l-77-11v147l24 3v-39c0-15 8-26 19-25"/><path d="M418 491q-7-2-13 6-5 7-5 17v41l-26-4V402l79 10v150l-16-2v-40q0-11-6-20-4-8-13-9m0-3q9 1 15 11 6 9 6 21v37l12 2V415l-75-10v144l22 3v-38q0-12 6-19 6-8 14-7m-17-181 36 5v89l-36-5z"/><path fill="#da000c" d="m437 387-32-4v-15l-22-3v15l-16-2v-15l-9-1v28l79 9zm-70 3 67 9v12l-67-9z"/><path d="M404 384v-15l-20-3v15l-18-2v-15h-7v24l7 1 69 9h3v3h-3v11l-69-8v-12l-9-1v-30l11 1v15l14 2v-16l24 4v15l32 4v3zm-36 8v9l65 8v-9z"/><path fill="#da000c" d="M394 274v92l11 2v-26q1-15 12-16h1q12 4 13 20v25l11 2v-93z"/><path d="m393 272 50 7v95l-13-2v-26q0-8-4-12-3-6-8-6v-1h-1q-4 0-8 4-3 5-3 11v27l-13-2zm2 3v90l9 1v-24l4-13q4-4 9-4h1q6 1 10 7t4 14v24l9 1v-90z"/><path fill="#da000c" d="M390 261v12l56 8v-13z"/><path d="m389 259 58 8v15l-58-8zm2 3v10l54 7v-10z"/><path fill="#da000c" d="M382 236v24l68 9v-24l-11-2v12l-12-1v-13l-19-2v12l-13-2v-12z"/><path d="m381 234 15 2v12l11 2v-13l21 3v13l10 1v-12l13 2v26l-70-9zm2 3v22l66 8v-21l-9-1v12l-14-2v-12l-17-3v13l-15-2v-13zm-25 325 93 12v3q-46-7-94-12v-3z"/><path fill="#da000c" d="m510 577-63-9-19 9v19l82 12z"/><path d="m447 569-18 9v17l82 12v2l-83-12v-21l19-10 64 10v3zm-19 7 84 12v3l-84-12zm186-90-123-18v115q61 10 123 18z"/><path fill="#da000c" d="m550 576 75 10 17 16v16l-92-12z"/><path d="m625 587 16 16v14l-92-12v3l94 12v-18l-17-18-77-10v3z"/><path fill="#da000c" d="M582 514q-18 0-20 24v39l-14-2V428l77 10v147l-24-2v-39c0-15-8-28-19-30"/><path d="M582 515q7 1 13 10 6 8 5 19v40l26 3V437l-79-10v149l16 3v-40q0-11 6-18 4-7 13-6m0-3q-9 0-15 7t-6 19v38l-12-2V430l75 10v144l-22-3v-37q0-12-6-21t-14-11m17-176-36-5v89l36 5z"/><path fill="#da000c" d="m563 406 32 5v-15l22 2v15l16 2v-15l9 1v27l-79-9zm70 21-67-8v12l67 8z"/><path d="M596 412v-15l20 3v15l18 2v-15h7v25l-7-1-69-9h-3v3h3v12l69 9v-12l9 1v-30l-11-1v15l-14-2v-15l-24-3v15l-32-4v2zm36 17v9l-65-8v-10z"/><path fill="#da000c" d="M606 304v93l-11-1v-26q-2-16-12-19h-1q-12 0-13 16v25l-11-2v-92z"/><path d="m607 303-50-7v96l13 1v-26q0-7 4-11 3-4 8-4h1l8 6q3 5 3 12v27l13 1zm-2 3v90l-9-2v-24l-4-13q-4-7-9-8h-1q-6 0-10 5t-4 12v25l-9-2v-90z"/><path fill="#da000c" d="M610 292v13l-56-8v-12z"/><path d="m611 291-58-8v15l58 8zm-2 3v9l-54-7v-10z"/><path fill="#da000c" d="M618 269v24l-68-9v-24l11 2v12l12 2v-13l19 3v12l13 2v-12z"/><path d="m619 268-15-2v12l-11-1v-12l-21-3v12l-10-1v-13l-13-1v26l70 10zm-2 2v22l-66-9v-21l9 1v12l14 2v-12l17 2v12l15 2v-12zm25 331-93-12v3l94 12v-3z"/><path fill="#da000c" d="m490 574 63 10 19 15v18l-82-12z"/><path d="m553 585 18 14v17l-82-12v2l83 13v-21l-19-16-64-9v2zm19 12-84-12v3l84 12z"/><path fill="#f8d80e" d="m533 563-14 8-22 18q-4 3-4 9l3-2h6l8-8 25-16z"/><path d="m533 562 1 5 1 6h-1l-6 3a130 130 0 0 0-27 21h-6l-1 1-1 1h-1l-1-1q0-6 4-10l5-5 18-13 1-1zm0 2-12 6-2 2-17 13-5 5q-3 3-3 7l1-2h7l4-5 4-3 18-13 6-3v-3zm-24 15v10l-1 1v-13zm5-4v10l-1 1-1-1v-10l1-2zm5-3v10l-1 1-1-2v-10l1-1zm4-4v11l-1 1-1-1v-11l1-1z"/><path fill="#f8d80e" d="m467 553-2 8q16 12 30 26l9 12q1 3-2 3-3-2-4-1-5 3-1 7 9 8 14-3 2-5-1-11-7-10-15-17-13-13-28-24"/><path d="m467 549 1 3q13 9 28 24l1 1 13 16q4 6 1 13-1 5-6 6l-9-3-1-2-1-3 3-4q3-2 5 1h1l1-2-8-10-1-1q-15-15-30-26h-1l1-5 1-4zm1 5-1 4-1 3q15 10 30 25v1l1 1 8 10v1l-1 3-2 1-1-1h-3q-2 1-2 3v1l1 1 7 3q4-1 6-5 2-7-1-11l-13-16-1-1zm29 25v8l-1 1-1-1v-9l1-1zm6 5-2 8-1 1-1-2 2-8 1-1zm5 7-3 6-2 1v-2l4-6 1-1zm1 17-5-4-1-2 2-1 5 5zm2-7h-6l-1-1 1-2 6 1 1 1zm-9 9v-7l1-1 1 1v7l-1 1zm0-7-5 4h-1v-2l5-4h1zm-23-41v8l-1 2-1-2v-8l1-1zm12 11v9l-1 1-1-1v-10l1-1zm-6-5v8l-1 1-1-1v-9l1-1z"/><path fill="#f8d80e" d="M461 755v21l10 2v-11l13 2v11l10 2v-22zm0 29v22l33 5v-21l-10-2v10l-13-2v-10z"/><path d="m460 783 12 2v10l11 2v-11l12 2v24l-35-5zm0-29 35 5v24l-12-2v-10l-11-2v10l-12-1zm2 32v18l31 5v-18l-8-2v11l-15-2v-11zm0-29v18l8 1v-10l15 2v11l8 1v-18z"/><path fill="#f8d80e" d="m494 671 10 2v152l-10-1z"/><path d="m493 670 12 2v155l-12-2zm2 3v150l8 1V674z"/><path fill="#f8d80e" d="m494 685 10 1v132l-10-2z"/><path d="m493 683 12 2v134l-12-2zm2 3v129l8 1V687z"/><path fill="#f8d80e" d="m499 635 21 19-21 13-20-19zm-27 6-6-1v12l6 1 27 26 27-18 6 1v-12l-6-1-27-25z"/><path d="m472 640 27-18 28 26 6 1v14l-6-1-28 18-27-26-7-1v-14zm-5 2v9h5l27 26 27-17h5v-9h-5l-27-26-27 17zm33-8 22 21-23 14-22-21zm-1 2-18 12 18 18 19-12z"/><path fill="#f8d80e" d="M499 595q-8 2-8 12v30q1 10 9 13 6 2 9-6l-3-3q-1 4-6 4-5-2-5-9v-29q0-7 6-6 2 2 3 0 1-3-2-5zm11 12-4 4v19l4 4z"/><path d="M498 594h4v1q3 4 2 7h-4l-4 1-1 4v29l1 5 3 3q4 0 5-4v-1l5 5v1q-3 9-10 7-4-1-7-6l-3-9v-30l2-9q3-4 6-4m12 11 1 1v30l-2-2-4-3v-21l1-1 3-3zm-11-9-5 4q-2 3-2 7v30l2 8 6 4q6 2 8-4l-2-2q-1 4-6 3-2 0-5-3l-1-7v-30l2-5q2-2 5-2l1 1h1l-1-3h-2zm10 14-2 2v18l2 1zm-37-350 56 9v140l-56-9z"/><path fill="#da000c" d="M467 260v117l18 2v-34c0-9 3-18 15-17 12 2 15 13 15 21v35l18 3V270zm30 17 6 1v40l-6-1zm-16 6 6 1v29l-6-1zm32 5 6 1v29l-6-1z"/><path d="m466 258 68 11v119l-20-3v-36l-3-12q-4-6-11-8-7-1-11 5-3 4-3 11v36l-20-3zm2 3v114l16 3v-33q0-9 3-13 4-7 13-5 9 1 13 9 3 6 3 14v33l16 2V271zm36 16v43l-8-1v-43zm-16 6v31l-8-1v-32zm32 4v32l-8-1v-32zm-22-8v37l4 1v-38zm-16 5v27l4 1v-27zm32 5v27h4v-26z"/><path fill="#da000c" d="M461 242v17l78 12v-17z"/><path d="m460 240 80 13v19l-80-12zm2 3v14l76 12v-14z"/><path fill="#da000c" d="M453 221v20l94 14v-19l-12-2v11l-13-2v-11l-15-2v10l-14-2v-10l-15-3v11l-13-2v-11z"/><path d="m452 220 14 2v11l11 1v-10l17 2v11l12 2v-11l17 3v10l11 2v-11l14 3v22l-96-15zm2 3v17l92 14v-17l-10-2v11l-15-2v-11l-13-2v11l-16-3v-10l-13-2v10l-15-2v-11z"/><path fill="#da000c" d="M436 411v12l128 20v-12z"/><path d="m435 410 130 19v15l-130-20zm2 3v9l126 19v-9z"/><path fill="#da000c" d="M431 371v39l138 21v-39l-13-2v15l-17-2v-15l-24-4v15l-30-5v-15l-24-3v15l-17-3v-15z"/><path d="m430 370 15 2v15l15 2v-15l26 4v15l28 5v-15l26 3v15l15 3v-15l15 2v42l-140-21zm2 3v36l136 21v-37l-11-1v15l-19-3v-15l-22-4v16l-32-5v-16l-22-3v15l-19-3v-15z"/><path fill="#da000c" d="M448 425v143l24 3v-53c0-25 12-35 28-33 15 3 28 16 28 41v54l24 4V441z"/><path d="m447 425 1-1 104 16 1 1v143l-1 1-24-4-1-1v-54q0-17-8-28-7-9-19-12-12-1-19 6-8 9-8 26v53l-1 2-24-4-1-2zm1 1v140l23 4v-52q0-19 9-28 7-7 20-6 12 2 20 12 9 12 9 31v52l23 3V442z"/></svg>