<svg xmlns="http://www.w3.org/2000/svg" viewBox="0 0 1000 1000"><path fill="#da000c" d="M8 195.3c170.8-85.3 341-54.5 513.3-28C676.5 191 833.4 211.8 992 132.7v672c-170.8 85.3-341 54.5-513.3 28C323.5 809 166.6 788.1 8 867.2z"/><path fill="#fff" d="M8 195.3c170.8-85.3 341-54.5 513.3-28C676.5 191 833.4 211.8 992 132.7V583c-170.8 85.3-341 54.5-513.3 28C323.5 587.1 166.6 566.3 8 645.4z"/><path d="M385.8 453c40.6 4.8 81.2 11.2 123 17.6v115.5c-40.6-6.2-81.2-12.7-123-17.7z"/><path fill="#da000c" d="M449.7 560.2q-37-5.5-75.1-10L358 563.5v15.9q45.1 4.6 91.7 11.7z"/><path d="m374.9 551.6-16 12.7V578c30.3 3 60.5 7.2 91.7 11.8v2.6a1975 1975 0 0 0-93.6-12v-17.9l17.3-13.7q37.6 4.3 76.3 10.1v2.7q-37.3-5.7-75.7-10.1"/><path fill="#da000c" d="M418.3 489.4c11 1.8 19.4 14.8 19.6 30.2v38.8l14.1 2.1v-147a2229 2229 0 0 0-77.4-10.3v147l24 2.9v-38.8c.2-14.8 8.5-26 19.7-24.9"/><path d="M418.3 490.7c-5.4-.6-9.4 1.3-13.3 6.1a29 29 0 0 0-5.4 17.6v40.1l-26-3V401.7c26.2 3 52.4 6.5 79.4 10.5V562l-16-2.4v-40.1q-.2-10.8-5.6-19.3c-3.8-5.7-7.9-8.6-13.1-9.5m0-2.6c5.8 1 10.3 4.2 14.5 10.5q6 9.3 6 21.2v37.5L451 559V414.7q-37.2-5.7-75.4-10V549l22 2.7v-37.5c.1-7.9 2-14 6-19.4 4.3-5.3 8.8-7.4 14.7-6.7M401 307l35.6 4.8V401l-35.6-5z"/><path fill="#da000c" d="m436.6 387.1-31.2-4.3v-15l-22.8-2.9V380l-15.5-1.7v-15.1l-9.3-1v27.4c26 2.6 52 6 78.8 9.8zm-69.5 3.4c22.2 2.3 44.3 5.2 67.2 8.5v12q-33.1-4.9-67.2-8.6z"/><path d="M404.5 384v-15l-21-2.7v15.1l-17.4-2v-15l-7.3-.8v24.8l7.3.8v-.2q34 3.8 69.2 8.8v.1l2.2.4v2.6l-2.2-.3v11.8a1948 1948 0 0 0-69.2-8.8v-11.8l-9.2-1v-30L368 362v15l13.5 1.6v-15.1l24.8 3v15.2l31.1 4.3v2.6zm-36.4 8v9.2l65.2 8.3v-9.2q-32-4.7-65.2-8.3"/><path fill="#da000c" d="M393.8 273.7v92.6l11.6 1.4v-25.4c.2-9.7 4.8-16.4 11.8-16.2h.7c7.4 1.4 12.8 9.6 13 19.7v25.4l11.1 1.6v-92.6z"/><path d="m392.8 272.2 50.2 6.9v95.2l-13-1.9v-26.7q0-6.9-3.6-12.2c-2.5-3.6-5-5.4-8.5-6h-.6c-3.3-.2-5.6 1-7.8 4-2 3-3 6.4-3.1 11v26.7l-13.6-1.8zm2 2.9v90l9.7 1.2v-24.1q0-7.6 3.5-12.7c2.7-3.4 5.4-4.8 9.2-4.7h.7c4 .8 7 2.9 9.9 7a26 26 0 0 1 4 14.1v24.2l9.3 1.3v-90z"/><path fill="#da000c" d="M389.6 260.6V273l56.2 7.7v-12.6z"/><path d="m388.6 259.2 58.1 7.8v15.2l-58.1-7.9zm2 2.8v10l54.2 7.3v-10z"/><path fill="#da000c" d="M382.3 235.7v24l67.5 9.1v-24l-10.4-1.6v12.3l-12.5-1.8v-12.2l-19.2-2.6V251l-12.6-1.6v-12.3z"/><path d="M381.4 234.3 396 236v12.3l10.6 1.3v-12.2l21.1 2.9v12.2l10.6 1.5v-12.2l12.4 1.8v26.7l-69.4-9.4zm2 2.8v21.4l65.4 8.8V246l-8.4-1.2V257l-14.5-2v-12.3l-17.3-2.3v12.2l-14.4-1.9v-12.2zm-25.4 325c30.7 3.1 61.4 7.3 93 12v2.6c-31-4.6-62-8.8-94-12V562z"/><path fill="#da000c" d="m509.6 577.1-62.3-9.5-18.8 9.7v18.4l81.1 12.3z"/><path d="m447.5 569-18 9.2v16.3l81 12.3v2.6l-83-12.5v-20.6l19.5-10 63.6 9.7v2.6z"/><path d="m428.5 576 83 12.5v2.6l-83-12.6zm185.7-90.4c-40.6-4.8-81.2-11.2-123-17.7v115.5c40.6 6.3 81.2 12.7 123 17.7z"/><path fill="#da000c" d="M550.3 575.6q37 5.4 75.1 10l16.7 16.7V618c-30.3-3-60.6-7.1-91.8-11.7z"/><path d="m625.1 586.8 16 16v14c-30.3-3.2-60.5-7.3-91.7-11.9v2.7c30.9 4.5 61.8 8.7 93.6 12v-18l-17.3-17.4q-37.6-4.2-76.3-10v2.5q37.3 5.7 75.7 10.1"/><path fill="#da000c" d="M581.7 513.7c-11-1.2-19.4 9.3-19.6 24.7v38.8l-14.1-2v-147c25.5 3.8 51 7.3 77.4 10.3v147l-24-2.9v-38.8c-.2-14.8-8.5-28.2-19.7-30"/><path d="M581.7 515c5.3 1 9.4 3.9 13.3 9.7a36 36 0 0 1 5.4 19v40l26 3.2V437.3a2187 2187 0 0 1-79.4-10.6v149.6l16 2.4v-40.1c.2-7.4 2-13 5.6-17.8 3.8-4.6 7.8-6.3 13.1-5.8m0-2.6c-5.8-.6-10.3 1.3-14.5 6.4a31 31 0 0 0-6 19.5v37.5L549 574V429.6q37.2 5.7 75.4 10v144.5l-22-2.7V544q0-11.5-6-20.9c-4.3-6.3-8.8-9.6-14.7-10.6M599 335.8l-35.6-4.8v89l35.6 5z"/><path fill="#da000c" d="m563.4 406.3 31.2 4.3v-15l22.8 2.8v15l15.5 1.8V400l9.3 1v27.3q-38.8-4-78.8-9.8zm69.5 21q-33.1-3.5-67.2-8.5v12q33.1 4.7 67.2 8.5z"/><path d="M595.5 412v-15l21 2.6v15l17.4 2v-15.1l7.3.8V427l-7.3-.7v-.1q-34-3.7-69.2-8.8l-2.2-.2v2.6l2.2.3V432q34 5 69.2 8.8V429l9.2 1v-30l-11.2-1.2v15l-13.5-1.5v-15l-24.8-3.1v15l-31.1-4.2v2.6zm36.4 16.7v9.2l-65.2-8.3v-9.2q32 4.6 65.2 8.3"/><path fill="#da000c" d="M606.2 304.4V397l-11.6-1.5v-25.4c-.2-9.8-4.8-17.6-11.8-19.4h-.7c-7.4-.8-12.8 5.8-13 15.9V392l-11.1-1.6v-92.6z"/><path d="m607.2 303.2-50.2-6.8v95.2l13 1.9v-26.8c.1-4.6 1.2-8 3.6-11.1s5-4 8.5-3.7h.2l.4.1c3.3.8 5.6 2.6 7.8 6.1q3 5.2 3.1 11.8v26.8l13.6 1.7zm-2 2.4v90l-9.7-1.3v-24.1q0-7.6-3.5-13.6c-2.6-4.1-5.4-6.3-9.2-7.2h-.5l-.2-.1c-4-.4-7 .9-9.9 4.2q-4 5-4 13v24l-9.3-1.2v-90z"/><path fill="#da000c" d="M610.5 292.4v12.5l-56.3-7.6v-12.6z"/><path d="m611.4 291.2-58.1-8v15.2l58.1 8zm-2 2.3v10l-54.2-7.4v-10z"/><path fill="#da000c" d="M617.7 269.2v24l-67.5-9V260l10.4 1.5v12.2l12.5 1.8v-12.2l19.2 2.6v12.2L605 280v-12.3z"/><path d="m618.6 268-14.7-1.8v12.2l-10.6-1.3v-12.3l-21.1-2.8v12.2l-10.6-1.5v-12.3l-12.4-1.8v26.7l69.4 9.3zm-2 2.4v21.4l-65.4-8.8v-21.5l8.4 1.3V275l14.5 2v-12l17.3 2.3v12.2l14.4 1.9V269zM642 601c-30.7-3.1-61.4-7.3-93-12v2.7c31 4.6 62 8.8 94 12V601z"/><path fill="#da000c" d="m490.4 574.1 62.3 9.6 18.8 15v18.5L490.4 605z"/><path d="m552.5 585 18 14.5v16.3l-81-12.3v2.7l83 12.5V598L553 582.4l-63.6-9.7v2.6z"/><path d="M571.6 597.4 488.4 585v2.6l83 12.5z"/><path fill="#f8d80e" d="M533.2 563c-5 1.6-9.7 4.7-14.3 7.6a123 123 0 0 0-22.3 18.5 11 11 0 0 0-3.6 8.7c.3 1.4 1.6-1.4 2.7-1.7q3-1.7 6-.3c2.6-3.1 5.6-5 8.4-7.7q8.8-7.3 18.3-12.8 3.3-1.9 6.8-3.2z"/><path d="m533 562 .7-.3 1.2 5.6 1.2 5.6-.7.2q-2.2.7-6.5 3l-.2.1a131 131 0 0 0-26.4 20.3l-.3.4-.4-.2q-2.8-1.3-5.5.3h-.3l-1.1 1.2-1 1q-.4.3-1-.2a2 2 0 0 1-.4-1.2q-.4-5 3.8-9.5 2-2.6 5.2-5.2 7.4-7 17.2-13.4l1.8-1.2q8.2-5.1 12.7-6.5m-.3 2.2q-4.2 1.5-11.6 6.2l-1.8 1.1q-9.8 6.4-17 13.3h-.1a24 24 0 0 0-5 5v.1h-.1a11 11 0 0 0-3.4 6.6q1.1-1.3 1.8-1.4 2.9-1.7 6-.5 1.6-1.9 5-4.6l3.1-2.8q7.4-6.3 18.4-12.9h.2q3.9-2.2 6-3l-.7-3.6z"/><path d="M509.4 578.6V589q0 1.3-1 1.1t-.9-1.4v-10.3q0-1.3 1-1.2t1 1.5m4.6-3.7v10q0 1.4-1 1.2-1 0-1-1.5v-10.2q0-1.3 1-1.1 1 0 1 1.5m4.6-3.3v10.1q0 1.4-1 1.2-.9 0-1-1.5v-10q.1-1.4 1-1.3 1 .2 1 1.5m4.6-3.2V579q.1 1.3-1 1.1-.8-.1-.9-1.4V568q0-1.3 1-1.1t1 1.4"/><path fill="#f8d80e" d="m467.1 553.1-2.3 8.4c10.7 7.1 20.8 16 30.4 25.8a62 62 0 0 1 9.2 11.5c.4 2.3-.8 3.6-2.5 2.9-1.5-1-2.7-1.7-4.3-.7-2.2 1.4-3.8 4.6-.8 7 4.8 4.6 11.3 4 13.8-2.8 1-3.7 1.1-8-1-11.5-4-6.8-9.1-12-14.2-17.1-9-8.8-18.4-17-28.3-23.5"/><path d="m467.3 549.4.5 3q13 8.8 28 23.4l1 1.1a94 94 0 0 1 13.4 16.2c2.2 3.8 2.6 7.6 1.1 12.6-1.3 3.7-3.2 5.5-6.6 6.2-3.2.4-5.6-.5-8.2-3.1q-1.4-.9-1.9-2.3t-.1-2.8a5 5 0 0 1 2.8-3.6q1.6-1.2 4.6.5l.2.1q.9.5 1.3-.1.6-.5.4-1.4a66 66 0 0 0-8-10l-1-1.1a197 197 0 0 0-30.2-25.7l-.7-.5 1.2-4.4 1.3-4.8zm.3 5-1.1 4-.7 2.6q14.7 10 29.8 25.5l1 1.1q6 6.6 8.4 10.6v.2l.1.2q.6 2.3-.7 3.6-1.1 1.3-2.7.4l-.2-.1q-2.4-1.4-3.5-.6-1.6.8-2.1 2.6v1.3q.3.7 1.1 1.2h.1l.1.2c2.3 2.2 4.4 3 7.2 2.7 2.8-.6 4.4-2 5.5-5.2 1.3-4.2 1-7.3-.8-10.4a93 93 0 0 0-13-15.8l-1.1-1.1q-14.7-14.4-27.4-23"/><path d="m497.2 578.5-.6 8.7q0 1.3-1 1-1-.2-.9-1.5l.6-8.7q0-1.3 1-1 1 .2 1 1.5m5.2 5.5-1.6 8.4q-.3 1.2-1.2.7t-.7-1.7l1.7-8.3q.3-1.2 1.1-.8 1 .5.7 1.7m5.6 7.3-3.5 6.1q-.6 1-1.3.1t-.3-1.9l3.5-6q.6-1 1.4-.2.7 1 .2 1.9m.5 16.7-5-4.5q-.9-.7-.4-1.8t1.3-.4l5 4.5q.9.8.4 1.8-.4 1.1-1.3.4m2.1-6.8-5.7-.1q-1-.1-1-1.4-.2-1.3.8-1.3l5.7.2q1 0 1 1.3.2 1.4-.8 1.3"/><path d="m502.2 610-.3-6.9q0-1.3.8-1.3 1 .1 1 1.4l.5 7q0 1.3-1 1.3-.9-.1-1-1.4"/><path d="m501.7 603-4.8 4q-.8.8-1.3-.4-.6-1.1.2-1.8l4.7-4q.9-.7 1.4.4t-.2 1.8m-22.5-40.7v8.1q0 1.4-1 1.2t-1-1.5V562q.1-1.3 1-1.1 1 0 1 1.5m12 10.5v9.3q0 1.3-.9 1.1t-1-1.4v-9.3q0-1.4 1-1.2t1 1.5m-6-5.3v8.7q-.1 1.4-1 1.2-1 0-1-1.5v-8.7q0-1.3 1-1.1t1 1.4"/><path fill="#f8d80e" d="M461.1 755.4v21l9.7 1.5v-10.5l13.2 2V780l10.3 1.6v-21.1zm0 29v21.2l33.2 5v-21l-10.3-1.7v10.6l-13.2-2v-10.6z"/><path d="m460.2 783 11.6 1.7v10.6L483 797v-10.5l12.3 1.9V812l-35.1-5.3zm0-29 35.1 5.3V783l-12.3-1.9v-10.6l-11.2-1.7v10.6l-11.6-1.8zm1.9 31.9v18.5l31.3 4.8v-18.5l-8.5-1.3V800l-15-2.4v-10.5zm0-29v18.4l7.8 1.2v-10.6l15 2.3v10.6l8.5 1.3v-18.5z"/><path fill="#f8d80e" d="m494.3 671.5 9.6 1.4v152.6l-9.6-1.5z"/><path d="m493.4 670 11.5 1.8V827l-11.5-1.8zm1.9 3v149.8l7.7 1.2V674.1z"/><path fill="#f8d80e" d="m494.3 684.7 9.6 1.4v131.4l-9.6-1.4z"/><path d="m493.4 683.2 11.5 1.8v134l-11.5-1.8zm1.9 3v128.7l7.7 1.2V687.3z"/><path fill="#f8d80e" d="m499.1 634.8 20.4 19.4-20.4 13-20.4-19.3zm-27.3 6.2-5.3-.8v11.7l5.3.8 27.3 25.8 27.4-17.4 5.3.8v-11.7l-5.3-.8-27.4-25.8z"/><path d="m471.5 639.6 27.6-17.6 27.6 26.1 6 1v14.3l-6-1-27.6 17.7-27.6-26.1-6-1v-14.3zm-4 2v9l4.6.8 27 25.6 27-17.3 4.7.7v-9l-4.6-.7-27-25.6-27.1 17.3zm32.1-7.9 22 20.8-22.5 14.3-22.4-21.2 22.4-14.4zm-.5 2.7-18.4 11.8 18.4 17.4 18.5-11.7z"/><path fill="#f8d80e" d="M498.7 595c-4.7.6-7.9 5.7-7.8 12.3v29.4c.5 6.7 4.2 12.3 9 13.5 4 .8 7.4-1.3 9.2-5.9l-3.3-3.2q-1.6 4.5-5.7 3.8c-3.3-.8-5.4-4.6-5.4-9v-29.3c.5-4.2 2.8-6.5 5.9-6 1.3 0 2.7 2 3.6.5.9-2.2-.7-3.9-1.9-5.4zm11.1 12c-.8 1.9-2.2 2.7-3.6 3.6v19.7l3.9 3.7v-25.3q0-1-.3-1.7"/><path d="M498.4 593.7h.4l1.3.2q1.5.2 2.4.5h.2l.3.4.3.4c2.1 2.8 2.6 4.7 1.7 6.7q-.8 1.9-3.1.5l-1-.4h-.4q-1.8-.5-3.2 1-1.5 1.4-1.6 3.8V636q0 2.6 1.2 4.9 1.4 2.3 3.2 2.5h.1c2.5.7 3.7-.2 4.7-3l.4-1.5 5 5-.3 1c-2.2 5.8-5.2 7.7-10.2 6.5-2.6-.6-4.7-2-6.8-5.1q-2.9-4.3-3-9.7l-.1-18.5v-11q0-5.2 2.3-9.3 2.5-4 6.2-4.2m11.3 10.8 1 1.8q.2.6.3 2v28.1l-2.1-2-3.6-3.4v-21.3l.4-.3.3-.2a8 8 0 0 0 3-3zm-11-8.1q-2.9.2-5 3.4-2 3.3-1.9 7.6V637q.3 4.2 2.6 7.8t5.5 4.1c3.8 1 6-.3 8-4.2l-1.6-1.5c-1.5 3-3.2 3.9-6.2 3.1q-2.8-.3-4.7-3.7a13 13 0 0 1-1.7-6.9v-29.2q.3-3.6 2.3-5.7 2.1-2 4.5-1.4a4 4 0 0 1 2 .7l.8.3.1-.1q.5-.9-1.3-3.1l-.1-.2-1.8-.3zM509 610q-.7.8-1.9 1.4v18.2l2 1.8v-7.1zm-38.3-350 56.4 8.8v139.8l-56.4-8.7z"/><path fill="#da000c" d="M466.9 259.6v117l17.8 2.7v-34.6c.2-8.3 3.7-18.2 15.3-16.8 11.6 2.2 15.1 13.2 15.3 21.5V384l17.9 2.7v-117zm30.3 17.8 5.6.9v40l-5.6-.8zm-15.8 5.5 5.6.8V313l-5.6-.9zm31.6 4.9 5.6.8V318l-5.6-.9z"/><path d="m465.9 258.2 68.2 10.5v119.6l-19.8-3v-36q0-6.9-3-12.3a16 16 0 0 0-11.3-7.8c-5.1-.6-8.4.7-11.2 4.4q-3 4.4-3 11.2v36l-20-3zm2 2.9v114.4l15.9 2.4v-33.4a23 23 0 0 1 3.5-12.9c3.2-4.2 7-5.7 12.7-5 5.6 1 9.5 3.8 12.7 9q3.4 6.2 3.5 14v33.3l16 2.5V271zm35.8 16v42.7l-7.4-1.2V276zm-15.8 5.4v32l-7.5-1.2v-31.9zm31.7 5v31.9l-7.5-1.2v-32zm-21.4-8.6v37.4l3.6.6v-37.5zm-15.9 5.4V311l3.7.5V285zm31.7 5v26.6l3.7.5v-26.6z"/><path fill="#da000c" d="M460.8 241.9v16.7l78.4 12v-16.7z"/><path d="m459.8 240.4 80.4 12.4V272l-80.4-12.3zm2 3v14l76.5 11.7v-14z"/><path fill="#da000c" d="M453.4 221.4v19.4l93.2 14.2v-19.3l-11.7-1.8v10.7l-13.2-2v-10.7l-15-2.3v10.6l-13.3-2v-10.7l-15-2.3V236l-13.3-2v-10.7z"/><path d="m452.4 220 13.7 2v10.7l11.3 1.7v-10.7l17 2.7V237l11.3 1.8V228l17 2.6v10.7l11.2 1.7v-10.6l13.7 2v22L452.4 242zm2 2.9v16.7l91.2 14v-16.7l-9.8-1.5V246l-15-2.3v-10.6l-13.2-2v10.6l-15.2-2.3v-10.7l-13.1-2v10.6l-15.1-2.3v-10.6z"/><path fill="#da000c" d="M436.1 411.2v12l127.8 19.4v-12.1z"/><path d="M435.1 409.7 565 429.3V444l-130-19.6zm2 3v9.4l125.8 19v-9.4z"/><path fill="#da000c" d="M430.9 371.2v39.2L569 431.2V392l-13-1.9v15.1l-17.5-2.5v-15.1l-23.3-3.6v15l-30.6-4.6v-15.1l-23.3-3.6v15.1l-17.4-2.6v-15z"/><path d="m430 369.8 15 2.1V387l15.4 2.3v-15l25.3 3.8v15.1l28.6 4.4v-15l25.3 3.8v15l15.5 2.4v-15.1l15 2.2v41.8l-140.2-21zm1.8 2.9v36.6l136.4 20.5v-36.6l-11.2-1.6v15l-19.3-2.8v-15l-21.5-3.4v15.1l-32.4-5v-15l-21.5-3.3v15l-19.3-2.8v-15.1z"/><path fill="#da000c" d="M447.5 424.9v142.7l24.7 3.7v-53.4c.2-25.3 12.1-35 27.8-32.7 15 2.5 27.6 15.9 27.8 41.2v53.4l24.7 3.8V440.9z"/><path d="M446.6 424.8q-.1-1.4 1-1.2l104.9 16q1 .1 1 1.4v142.7q0 1.3-1 1.2l-24.7-3.8q-1-.1-1-1.4v-53.4a47 47 0 0 0-8-28.2q-7.3-9.8-18.8-11.6c-8.1-1.2-14 .7-19 5.7-5.2 5.7-7.8 14-7.8 25.8v53.4q0 1.4-1 1.2l-24.7-3.7q-1-.2-1-1.5zm1.9 1.6v140l22.7 3.4v-52c.1-12.7 2.9-21.6 8.4-27.7 5.4-5.5 11.8-7.5 20.4-6.3a31 31 0 0 1 20.1 12.5c5.8 8 8.6 17.8 8.7 30.3v52l22.7 3.5V442z"/><path fill="#1a1a1a" d="M8 195.3c170.8-85.3 341-54.5 513.3-28C676.5 191 833.4 211.8 992 132.7v672c-170.8 85.3-341 54.5-513.3 28C323.5 809 166.6 788.1 8 867.2zm31.3 19.3v604.5c306.5-128.2 611.1 96 921.5-33.7V180.9C654.2 309 349.5 84.9 39.3 214.6" opacity=".2"/></svg>