<svg xmlns="http://www.w3.org/2000/svg" viewBox="0 0 1000 1000"><path fill="#e32118" d="M8 195c171-85 341-54 513-28 155 24 312 45 471-34v672c-171 85-341 54-513 28-155-24-312-45-471 34z"/><path fill="#fff" d="M8 195c171-85 341-54 513-28 155 24 312 45 471-34v448c-171 85-341 54-513 28-155-24-312-45-471 34z"/><path fill="#3e9a00" d="M8 195c171-85 341-54 513-28 155 24 312 45 471-34v224c-171 85-341 54-513 28-155-24-312-45-471 34z"/><path fill="#0073ce" d="M8 195v672c81-151 162-277 246-392C173 365 92 268 8 195"/><path fill="#fff" d="m448 424 104 16v113c0 38-47 1-52 21-8-22-52 1-52-39z"/><path d="M553 440v113q0 15-10 18h-10l-11-1-14-2q-6 1-7 6l-1 2-1-2q-2-6-8-9l-14-2-10-2-10-4q-10-7-10-22V424zm-105-15v110q1 15 9 21l10 3 18 3 6 2q7 3 9 8 1-5 7-5h7l19 3 9-1q9-3 10-16V441z"/><path fill="#73452b" d="M507 557h-3c-3-3-3-72-3-73q9-7 10-6l3 3c-12 5-11 14-10 30l1 21q5 14 6 24-1 3-4 1"/><path d="M507 557h-2l-3-37v-36l10-7 3 4q-7 3-10 10l-1 8 1 10v6l2 17 3 12 3 12-1 2h-1zm0 0 3 1 1-1v-1l-2-12-4-12-1-17v-24q1-7 10-10l-3-3-3 1-7 5v36l3 36z"/><path fill="#73452b" d="m499 474 5 1c-4 40-1 64-1 76l2 6c-5 4-7-1-7-2z"/><path d="M504 475a380 380 0 0 0 1 81v1q-3 3-5 1-2-1-2-3l1-81zm-5-1-1 81 2 3q2 2 5-1l-2-6v-11a499 499 0 0 1 1-65z"/><path fill="#a36629" d="M491 554q-6 0-5-3c10-20 15-65 6-72v-4c4 2 7 7 7 7 1 52 0 73-1 74-5 4-7-2-7-3z"/><path d="M491 555q-3 1-4-2l-1-1v-1q4-7 7-19a154 154 0 0 0 3-41q-1-9-5-12l1-4 5 4 2 3-1 74q-3 3-5 1l-2-4 2 4q2 1 5-1l1-18-2-59-5-4v4q3 3 4 12v19q0 12-3 22l-7 20 1 1q1 3 4 1zm0-2v-3l2-5 3-8 1-11 1 1-2 10-4 13zm14-16 3 20h-1q2-8-3-20z"/><path fill="#009a3b" d="M515 458q2-2 5-2 3-6 8 3 7 1 4 6 9-2 8 7c10 5 6 10 2 11q-2 6-9 3-10 4-14-4-9 0-11-7c-6 2-7 2-12-2q0 5-4 2 1 8-6 5c3 7-5 9-9 2q-4 0-6-3-4 7-9 1-11-5-1-6 3-5 7-2 1-4 4-1-2-3 2-4-5-6 2-7-2-6 4-4-1-7 6-6-1-2 3-2-3-7 5-4c2-7 15-2 14 8q7 1 7 6"/><path d="m515 457 2-1h3l1-2h3l2 1 2 3 5 2-1 5 7 1q3 2 2 6 6 3 5 7l-1 3-3 1q0 3-3 4l-6-1q-5 3-9 1-2 0-5-5l-7-1-3-4-1-1h-6l-6-3-1 3-2-1h-1l-1 5h-5l1 4q-1 2-3 2h-4l-3-3-3-1-2-2-1-1q-1 4-5 4l-2-1-2-2-4-2-2-2 2-2h3q1-3 3-3l4 1 1-2h2v-2l3-1-2-5 4-2v-4h4l1-5 5-1v-2h3v-5h5q0-2 3-2 2-1 5 1l5 4 2 6 4 2zm0 1-2-4-5-2q1-4-1-6l-5-4-5-1q-2 0-3 3l-5-1v5h-3v3h-5l-1 5h-4v4l-4 2 2 5v1h-2v3l-2-1-2 2-4-1q-2 0-2 3h-4l-1 2 1 2 4 1v1l2 2 2 1q4 0 5-4l1 1 2 2h3l3 4h4l2-2v-5 1h5l1-5h1l2 1 1-3 6 3 6-1 1 2 3 4 7 1q3 4 6 5t7-1h1l6 1q3-1 3-4l3-1 1-3q1-4-6-7 1-4-1-6l-7-1 1-4q-2-2-5-2h-1l-1-4-2-1h-3l-1 2h-3zm-29-8 1 1 1 2 1-2 2 1q2 1 2 5h-1l-1-5h-2l-1 1h-1v-2zm23 2-2 1-2 1-1 3-3-2-2 1 2-1 3 2v-3l3-1zm6 6v2l-1 4v-1l1-3zm17 7-5 1v-1zm10 18-2-1-3 1q0-4-3-5 3 0 3 4h3zm-10 3v-3l-1-2h1v2zm-9-6h-2l-2 2 1-2zm-15-5v-2l2-2v1l-1 1zm-32 7 2-2 1-1-2-3q-2-2-4 1v-1h4q2 0 2 3l-1 1zm3-4h2l2 2h-1l-1-1zm-5-11h3l3 1h-1l-2-1zm6-6 2 1 2 2 4-3 2 1-2-1-4 3v1-1l-2-2zm15 1q3-1 5 2l4 5 1-2h3-3l-1 2h-1l-4-5zm23 9 4 1 3 3 2-1h3-2l-3 1v1-1l-3-3zm-33 2 2-1h2l1-2h2-2l-1 3h1-1l-2-1z"/><path fill="gold" d="M496 416h-6l-3 5-3-6-6-1 3-5-3-6 6 1 3-5 3 6h6l-3 5z"/><path d="m496 417-5-1-4 6-3-7h-7l3-6-3-6h7l3-5 3 6 7 1-3 5 3 7zm0-1-3-6 2-4-5-1-3-5-3 4h-6l3 5-2 5h5l3 6 3-5z"/><path fill="gold" d="m471 414-6 1-2 6-4-6-6 1 2-6-4-5h5l2-6 4 5 6-1-2 6z"/><path d="M471 415h-6l-2 7-4-6-7 1 2-7-4-5 6-1 2-6 4 5h7l-2 6zm-1-1-4-5 2-5h-6l-4-4-1 5-6 1 4 4-1 5h5l4 5 1-6z"/><path fill="gold" d="m446 416-6 2v6l-5-4-6 2 1-6-5-5 5-2 1-6 5 4 5-2v7z"/><path d="m446 416-5 2v7l-6-5-6 2 1-6-6-5 6-2v-7l6 5 6-2-1 6zm-1 0-5-4 1-6-5 2-5-4v6l-5 2 5 3-1 6 5-2 5 4v-6z"/><path fill="gold" d="m504 417 6 2 3 6 3-5 6 1-2-6 3-5-6-1-3-6-3 5-6-1 2 6z"/><path d="m504 418 3-5-3-7 6 1 4-5 3 7 7 1-4 5 3 7-6-2-4 6-3-7zm1-1 6 1 2 6 3-5 6 1-3-5 3-4-5-2-3-5-3 4-6-1 3 6z"/><path fill="gold" d="m530 423 6 3 1 6 5-4 6 2-2-6 4-4-6-2-1-6-5 4-5-3 1 7z"/><path d="m529 424 5-5-2-6 6 2 5-4 2 7 6 2-5 5 2 6-6-2-5 4-2-7zm2-1 5 2 2 6 4-3 5 2-2-6 4-3-5-3-2-5-4 3-5-2 2 6z"/><path fill="gold" d="m555 432 5 4v6l6-3 5 4v-6l5-3-6-4v-6l-5 3-6-4 1 7z"/><path d="m554 432 5-3v-7l6 4 5-3 1 7 6 4-6 3 1 7-6-4-6 3v-7zm2 0 5 4v5l5-2 5 3-1-6 5-2-5-3v-6l-5 2-5-3v6z"/><path fill="#fff" d="m562 552 7 11 6-9-4-8z"/><path d="m561 552 10-7 5 9-7 10zm2 0 6 10 6-8-4-8z"/><path fill="#fff" d="M519 575v10h5l4-2v-5z"/><path d="m518 574 11 3v6l-5 2h-5zm1 1 1 10 4-1 4-1v-5z"/><path fill="#fff" d="m482 569-1 10-5-1-4-3-2-7z"/><path d="M482 569v10h-1l-5-1-4-3-3-8zm-1 1-11-2 3 7 4 2 4 1z"/><path fill="#fff" d="m438 533-7 9-8-14 6-5z"/><path d="m438 534-7 9-8-15 6-6zm-1-1-8-9-5 4 7 13z"/><path fill="#fff" d="M472 588c1 9 56 18 56 9v-14c-1 7-55-3-56-9z"/><path d="M472 588v-14h1q0 3 8 5a162 162 0 0 0 39 6q8 0 8-2h1v14q0 3-9 4l-20-1-19-5q-9-3-9-7m1 0q0 3 8 6a101 101 0 0 0 39 6q8 0 8-4v-11l-8 1a137 137 0 0 1-47-10z"/><path fill="#fff" d="M422 549c5 27 50 34 50 34v-9q-2-4 8-4c3 0 2-4 2-4s-19 0-34-8c-18-11-21-25-21-26 0 1-2 12-5 17"/><path d="M421 549q3-3 4-10l1-7h1l1 3 3 6q6 11 18 17 8 5 21 6l12 1 1 3q0 3-3 3h-7v13h-1a98 98 0 0 1-41-18q-7-7-10-17m1 1q4 15 27 26l23 6v-8q-2-3 1-4h7l2-2v-2l-12-1q-13-1-22-6-12-7-18-17l-3-7-1 4z"/><path fill="#fff" d="M578 573c-5 25-49 19-50 19v-9q2-3-8-7-3-2-1-5s19 7 33 3c19-5 21-19 21-20 0 0 2 12 5 19"/><path d="M579 573q-1 8-10 14l-17 5h-24v-9l-1-3-7-3q-3-1-2-4v-2h1l11 3h22q12-3 17-12l4-8zm-1 0-5-16-3 6q-6 9-18 12h-22l-11-3v1l1 3 8 3 1 4v8h23q23-3 26-18"/><path fill="#fff" d="M425 540c-12-9-3-14-1-35 2 13 15 20 14 28-6-1-8-10-11-1z"/><path d="M425 540q-6-3-6-8v-5l1-5 3-17h1l3 8 6 8 4 6q2 3 1 6l-3-1-3-2-2-1-3 4zm0-1 1-7 3-4 4 2 5 2-2-5-4-6-5-7-3-6-4 20v4q0 4 5 7"/><path fill="#fff" d="M575 562c12-5 2-13 1-34-2 12-15 15-14 24 6 0 8-7 11 2z"/><path d="m574 563-1-8-3-4-3 1-2 1h-3q-1-3 1-6l4-5 5-6 4-8v1l4 18 1 5v5q0 4-6 7zm1-1q5-3 5-6v-4l-1-6-3-15-3 5-5 6-4 4-2 5 5-1 3-1q3 1 3 5zm-142-11 1 1-3 3v3h3l3-3 1 1-3 3q-3 2-5 0-2-3 0-5zm6 5 1 1v7l3-4 1 1-4 6-2-1v-6l-3 4-1-1zm2 12 4-7 1 1-3 7zm6-6-3 8 3 2q4 1 5-2 2-4-2-6zm1 3q4 1 2 4 0 3-4 1zm8 2-5 7 2 1 1-2 3 1 1 2 2 1-2-10zm1 2v3h-2zm4-1-1 9 4 1q4 0 4-4t-4-5zm1 2q4 1 4 4t-4 2zm27 15v9h2v-3h3l2-2q0-3-3-3zm2 2h2q3 1 0 2h-2zm8-1-3 9h2v-2l4 1 1 2h2l-4-9zm1 2 1 4h-2zm5 7 4-6h-4v-2l7 1v2l-5 5 5 1v1l-7-1zm27-14h2l1 6-2 3q-3 0-3-3h1l1 1 1-1zm3 0h2v5l2 2q2 0 2-2l-1-5h1l1 5q1 4-2 4t-4-4zm8 5h2q1 2 2 1l1-1-4-1-1-3 2-2q3 0 4 2l-2 1q-1-2-2-1l-1 1 4 1 2 2q1 2-2 3-3 0-5-3m8-5h-2l-1-1 6-2 1 1-3 1 3 7h-1zm3-3 2-1 4 8-2 1zm10 2h1q2 4-3 4-5-3-4-7 3-4 6 0h-2q-2-1-3 1l2 4q3 1 3-2m-1-6 1-1 5 7-1 1zm5-4-1 1 3 9 1-1-1-2 3-2 1 1 2-1zm1 3 2 1-1 2z"/></svg>