<svg xmlns="http://www.w3.org/2000/svg" viewBox="0 0 1000 1000"><path fill="#e32118" d="M8 195.3c170.8-85.3 341-54.5 513.3-28C676.5 191 833.4 211.8 992 132.7v672c-170.8 85.3-341 54.5-513.3 28C323.5 809 166.6 788.1 8 867.2z"/><path fill="#fff" d="M8 195.3c170.8-85.3 341-54.5 513.3-28C676.5 191 833.4 211.8 992 132.7v448c-170.8 85.3-341 54.5-513.3 28C323.5 585 166.6 564.1 8 643.2z"/><path fill="#3e9a00" d="M8 195.3c170.8-85.3 341-54.5 513.3-28C676.5 191 833.4 211.8 992 132.7v224c-170.8 85.3-341 54.5-513.3 28C323.5 361 166.6 340.1 8 419.3z"/><path fill="#0073ce" d="M8 195.3v672a3325 3325 0 0 1 246-392c-81.1-110-162.3-207.6-246-280"/><path fill="#fff" d="m447.5 424.5 104.7 16v112.3c-.7 37.7-47.3 1.5-52.2 20.8-7.8-21.6-51.6 1.1-52.2-39l-.2-89.3z"/><path d="M552.9 439.8v113c-.2 10.2-3.4 15.7-10.2 18q-4 1-10 .6-3.6-.4-10.9-1.6a68 68 0 0 0-14-1.6c-4.2.6-6.2 2.2-7.2 5.7l-.4 2.3-.8-2.4a14 14 0 0 0-8.2-8.3q-4-1.5-14-3-7.2-1-10.6-1.7-5.8-1.5-9.7-4c-6.5-4.4-9.6-11.4-9.8-22.3v-42.4l-.2-67.7v-.7zm-104.7-14.6.2 67.1v42.4c.2 10.3 3 16.9 9 21a32 32 0 0 0 9.3 3.7q3.4.9 10.5 1.8l7.5 1.1q4 .9 6.8 2 5.9 2.4 8.4 7.4c1.4-3 3.6-4.3 7.6-4.8q2.7-.2 6.7.3l7.7 1.2q7.2 1.3 10.7 1.6 5.9.5 9.5-.6c6.4-2 9.3-7.2 9.4-16.7V441z"/><path fill="#73452b" d="M507.4 556.9c-.1 0-1.3 1-3.8-.3-2.2-2.2-2.8-72-2.8-72.4 5.6-5.3 9.8-6.6 9.9-6.6l3.2 3.3c-12.2 4.8-11.2 13.7-10 30 .2 6 .3 13.5 1.6 21 2 9.6 5.6 18 6 24-.2 3.5-3.8 1.1-4.1 1"/><path d="M507.4 557q-.3.3-1 .4-1.4.3-2.9-.7c-1-1-1.8-12.8-2.4-37l-.4-35.6a36 36 0 0 1 10-6.7l3.5 3.5-.2.1c-5.5 2.2-8.5 5.3-9.9 10.1q-.8 3.1-.8 8 0 3 .6 10.2v1.7l.2 3.6q.4 11.3 1.5 17.3 1 4.3 3.2 12 2.7 8.6 2.8 12 0 1.3-.6 1.8-.4.3-1.5.2-1-.2-2-.9m-.2-.2v-.1h.1q1.1.7 2.1.9.9 0 1.4-.2.5-.4.4-1.6-.2-3.2-2.7-11.8-2.4-7.8-3.3-12-1-6.1-1.5-17.4l-.1-3.7-.1-1.6-.5-10.2q0-5 .8-8c1.4-5 4.4-8 9.8-10.3l-3-3q-1.2.3-2.8 1.2-3.5 2-7 5.2l.5 35.6c.5 24 1.3 35.8 2.2 36.6q1.5.9 2.7.7z"/><path fill="#73452b" d="m499 474 4.8.8c-4 40-.6 64.6-.5 76.4.2 4 1.9 5.6 1.9 5.6-5.3 4.3-7.2-1-7.4-1.4z"/><path d="M504 474.7v.2a380 380 0 0 0-1 65.2l.4 11.1q0 3 1.8 5.3l.1.2v.2c-2.3 2-3.8 2.4-5.7 1.1a7 7 0 0 1-2-2.6l1.2-81.5zm-5-.5-1 81.2a6 6 0 0 0 1.7 2.4c1.8 1.2 3.2.9 5.3-1v-.1a9 9 0 0 1-1.9-5.5q0-3-.4-11.1-1-15.7-1-26.5 0-19 2-38.7z"/><path fill="#a36629" d="M491.3 554.4c-4.8 1-5.1-2.7-5-3.6 10.1-19.9 14.4-64.4 5.2-71.4l.6-4.4a25 25 0 0 1 6.8 7c1.3 52 0 72.8-.8 73.7-5.2 4-6.7-1.4-7.1-2.5z"/><path d="M491.3 554.5c-2.2.6-3.4.3-4.5-1l-.6-1.7v-1a85 85 0 0 0 6.4-18.5 154 154 0 0 0 3.5-22.1q.9-11.5-.2-19.7c-.9-6-2.3-9.3-4.4-11h-.1l.6-4.7h.1q2.2 1.1 4.8 4.2 1.4 1.6 2.1 2.8v.1q1 34.5.5 56.2c-.3 11.4-.8 17-1.3 17.7-2.2 1.9-3.6 2.1-5.2 1a9 9 0 0 1-2-3.3l-.1-.3h.2l.1.2a8 8 0 0 0 2 3.1q2 1.6 4.8-1c.4-.6.9-6.1 1.2-17.5q.5-21.6-.4-56l-2-2.9q-2.5-2.8-4.6-4l-.5 4.2c2.2 1.8 3.6 5.2 4.5 11.2q1.1 8.2.1 19.8-1 11.3-3.4 22.1-2.8 11.4-6.4 18.5v.9q0 .8.6 1.5c1 1.2 2 1.5 4.1 1z"/><path d="M490.9 553.5q-.2-1.4.4-3.6l1.8-4.8q2.1-5.4 3-8.5 1.5-5.5 1.3-10.1h.3q.1 4.7-1.3 10.2-.9 3-3 8.5l-1.8 4.8a9 9 0 0 0-.5 3.5zm13.6-16.2q3.8 11.4 3 19.6h-.3q.8-8.2-3-19.5z"/><path fill="#009a3b" d="M515 457.5c1.7-1.7 1.7-1.7 4.7-1.2 1.1-4 6.8-3.1 8 2.3 5.5 0 6.3 3 4.3 6.3 5.4-.5 9.5 1.3 8.4 7.4 9.2 4.4 5.9 9.7 1.7 11q-1.3 6-9.6 2.4c-6.8 3.6-10.1 1.6-13.4-3.7-7.4-.2-7.9-1.7-11.2-6.5-5.8 1.6-6.7 1.4-11.7-2.4-.5 3.8-1.6 2.6-4.1 1.9 0 5.2-1.5 6.8-6 4.6 2.8 7.8-4.8 9.1-9.3 2.8-3.9-.4-4.1-1.4-6-3.2-2.2 5.3-7.2 3.7-8.8.4-7.6-2.6-6.9-6-.5-5.7 1-4.3 4-3 6.8-2 .4-2.7 1.8-2 3.3-1.2-.8-2.2-.4-3 2.2-3.3-3.4-5.5-1.6-6.5 2.1-7.8-1.6-4.8 1.2-4 3.9-3.9-.2-4.8 1-5.3 6-5.2-.5-1.9.2-3 3-2.6-1.4-5.1.4-5.7 5.5-4.2 1.5-6.7 14.6-1.4 14.2 8 4.2 1.3 5.3 2.2 6.5 5.8"/><path d="m515 457.3 1.8-1.4 2.8.2q.3-1.4 1.4-2t2.7-.4q1.4.4 2.6 1.6a6 6 0 0 1 1.4 3.2q3.9-.1 5 2 1 1.8-.4 4.2 4-.3 6.4 1.3c2 1.6 2.4 3.3 2 6.3 4.2 2 5.8 3.8 5.7 6.7a5 5 0 0 1-1.4 2.8q-1.2 1.2-2.8 1.5-.5 3.1-3.1 3.8-2.5.6-6.6-1.3-4.6 2.6-8 1.5-3-1.1-5.4-5.2a15 15 0 0 1-6.8-1.3q-1.5-.9-3.7-4.2l-.7-1q-4.4 1.1-6.2.9a17 17 0 0 1-5.4-3.2q-.2 2-1 2.5-.5.2-2-.3l-1-.3q0 3.7-1.4 5-1.5 1.3-4.6-.3 1 2.5.4 4.3a3 3 0 0 1-2.5 2.2q-1.7.5-3.8-.5a10 10 0 0 1-3.7-3.3 9 9 0 0 1-3.2-.8l-1.8-1.5-.9-.8c-1 2.5-2.2 3.4-4.6 3.3q-1.4-.1-2.7-1a5 5 0 0 1-1.6-2q-2.6-1-4.2-2-1.4-1.1-1.3-2.2 0-1 1.3-1.5t3.6-.3q.5-2.9 2.8-3 1.4 0 4 .9.3-1.7 1.4-1.9.6 0 1.8.6-.4-1.4 0-2.2.5-.7 2.2-1-2.3-3.5-1.4-5.3.7-1.4 3.7-2.4-1-2.9 0-3.6.8-.5 3.1-.4h.7q0-3.3 1.1-4.4 1.1-.9 5-.8-.5-1.4.3-2 .7-.8 2.6-.6c-.7-2.5-.6-3.7.4-4.5q1.4-.8 5.1.3.4-2.4 2.8-2.9 2.3-.4 5.2 1t4.8 4q2 2.9 1.7 6 3 1 4.4 2 1.2 1.2 2 3.7m.1.3-.1.2-.1-.2a8 8 0 0 0-2.1-3.7 13 13 0 0 0-4.3-2h-.2v-.2a9 9 0 0 0-1.6-6 13 13 0 0 0-4.7-4c-2-.8-3.4-1-5-.8q-2.3.5-2.6 2.8v.2h-.2q-3.7-1.3-5-.5-1.4 1-.3 4.4v.2h-.1q-1.8-.3-2.6.5-.7.6-.3 2v.1h-.1q-3.7 0-4.9.7-1.1 1-1 4.4v.2h-.9q-2.3-.2-3 .2-1 .8 0 3.5l.1.1h-.1q-3 1.2-3.7 2.3c-.5 1.3 0 2.8 1.6 5.3l.1.2h-.2q-1.7.2-2.3 1-.3.7.2 2.2l.1.3-.3-.2q-1.3-.7-2-.7-1 0-1 1.8v.2h-.2q-2.8-1.1-4.1-1-2.3.1-2.6 2.9h-.1q-2.3-.1-3.6.4-1.2.4-1.3 1.3 0 .9 1.3 1.9a14 14 0 0 0 4.1 1.9h.1q.4 1.3 1.6 2 1.1.9 2.5 1c2.3.1 3.5-.8 4.4-3.3v-.2l.2.2 1 1 1.8 1.3q1.1.6 3.2.8 1.6 2.3 3.6 3.4 2 .9 3.7.5t2.3-2.1-.5-4.4l-.1-.3.3.1q3.1 1.7 4.6.5 1.4-1.3 1.2-5v-.2h.2l1.2.4q1.5.5 2 .3.6-.4.7-2.4v-.3l.2.2q3.7 2.8 5.5 3.2t6.2-.9l.1.1.8 1.1q2.3 3.3 3.6 4 2 1.3 6.7 1.3h.1v.1q2.4 4.1 5.3 5.2c2.4.6 4.7.2 8-1.5q4 1.7 6.5 1.2 2.5-.7 3-3.6v-.1q1.6-.4 2.8-1.5t1.4-2.7c0-2.7-1.5-4.5-5.8-6.4l-.1-.1v-.1c.6-2.9 0-4.6-1.7-6q-2.4-1.7-6.6-1.3h-.3l.2-.2q1.6-2.4.6-4.2-1-2.1-4.9-1.8h-.1v-.2a6 6 0 0 0-1.4-3.1 5 5 0 0 0-2.5-1.5q-1.4-.3-2.5.3-1 .6-1.3 2v.1h-.1l-2.8-.2q-.6.3-1.8 1.4"/><path d="m485.9 450.4.7.3 1.3.9q.6.6.7 2 .7-1 1.5-1.3 1-.3 1.8.3 1.6 1.4 1.7 5h-.3q0-3.5-1.6-4.7-.7-.6-1.4-.4-.9.4-1.7 1.6l-.2.3v-.4q-.1-1.6-.7-2.2-.3-.4-1.2-.8l-.8-.4zm22.7 1.5q-.4.4-1.8 1-1.5.7-2.1 1.3-1 1-.7 3h-.3a5 5 0 0 0-2.6-2q-1.6-.5-2.4.7l-.2-.2q1-1.3 2.6-.8a5 5 0 0 1 2.5 1.8q0-1.7.9-2.8.5-.6 2.2-1.2 1.3-.6 1.7-1zm6.6 5.7-.3 2.8a8 8 0 0 1-1.1 3.2l-.2-.2q.6-1 1-3l.3-2.9zm16.9 7.2v.2l-.3.1h-.7q-3.5-.2-4.8.4l-.1-.2q1.4-.8 4.8-.5h.9v.2zm10 18.5-.3-.2q-1.4-.9-2.2-1-1.4-.4-2.3.7l-.3.3v-.4c0-2.8-.9-4-2.8-4.5v-.3c2 .5 2.9 1.7 3.1 4.5q1-.9 2.4-.6.8.2 2.2 1.1l.3.2zm-9.7 2.4q0-1.9-.3-3l-.8-1.6.2-.1.8 1.6.4 3.1zm-9-5.2q-1.4-1.3-2.8-.5t-1.3 2h-.3q0-1.4 1.4-2.2c1.2-.6 2-.5 3.2.5zm-15.9-5.1v-2.8q.2-1 1.2-1.3l.1.2q-1 .3-1.1 1.2v2.7zm-31.1 7q.3-1.6 1.5-2.6.7-.7.7-1.3-.4-1.8-1.8-2.7-1.7-.9-3.8.8l-.2-.2q2.2-1.8 4-.8 1.8.8 2 3 .1.6-.7 1.4-1.1 1-1.5 2.4z"/><path d="M478.6 478.4q1.3-.2 2.4 0 1.2.5 1.6 1.2l-.2.1q-.4-.6-1.4-1a5 5 0 0 0-2.3 0zm-4.7-11q.8-.8 2.7-.4 1.5.3 3 1.2l-.2.2a8 8 0 0 0-2.8-1.2q-1.8-.2-2.5.3zm5.6-6h.6l2.3.6q1.3.5 1.8 2 2-2.9 3.7-3 1.5-.3 2.1 1h-.2q-.6-1-1.8-.8-1.7.4-3.7 3.1l-.2.2v-.2q-.6-1.5-1.7-2-.7-.4-2.2-.5l-.7-.1zm15.8.8q1.7-.4 4.2 1.5 2.5 2 4 4.9.7-1.4 1.6-1.8.5-.3 2-.2h.8v.3h-.9l-1.8.1q-.9.5-1.5 2l-.1.2-.2-.2a16 16 0 0 0-4-5q-2.4-1.9-4-1.5zm23 8.9q2.1-.7 4.2.8a15 15 0 0 1 2.5 3l.1.2q1.1-1.3 2.3-1.5h2.4v.3h-2.3q-1.2.2-2.2 1.5l-.1.1-.2-.1-.2-.4q-1.5-2-2.5-2.9-1.8-1.4-4-.8zm-33.2 1.6q.6-1 2-1 1 0 2 .6 0-1.6.9-2.4t1.9-.1l-.2.2q-.8-.6-1.6.1-.7.8-.6 2.5v.3l-.2-.2q-1-.7-2.2-.7t-1.7.9z"/><path fill="gold" d="m496.5 416.2-6-.7-3 5-3.3-5.7-6-.7 2.7-5-3.3-5.9 6.3.7 2.7-5 3.3 5.7 6 .7-2.7 5.1z"/><path d="m496.5 416.7-5.8-.6-3.2 5.4-3.6-6.2-6.6-.8 3-5.5-3.6-6.3 6.9.7 3-5.6 3.5 6.4 6.6.7-3 5.6 3.6 6.3zm-.9-1.1-3-5.2 2.5-4.7-5.5-.6-3-5.3-2.4 4.6-5.8-.6 3 5.3-2.5 4.6 5.5.7 3 5.2 2.8-4.6z"/><path fill="gold" d="m470.8 414.3-6 .6-1.7 5.7-4.4-5.2-5.7.6 1.6-5.7-4-5.1 5.7-.7 1.6-5.7 4.4 5.1 6-.5-2 5.7z"/><path d="m470.9 414.8-5.8.5-1.8 6.2-4.7-5.5-6.3.6 1.8-6.2-4.5-5.6 6.3-.7 1.8-6.3 4.7 5.6 6.6-.6-2 6.2 4.7 5.7zm-1-1-4-4.7 1.7-5.1-5.5.4-4-4.6-1.5 5.2-5.2.6 3.8 4.7-1.5 5.2 5.2-.6 4 4.7 1.5-5.2z"/><path fill="gold" d="m445.9 415.8-5.5 2-.3 6.1-5.2-4.1-5.4 2 .5-6.2-5.2-4.2 5.5-2 .6-6.2 4.9 4.2 5.4-2-.2 6.2z"/><path d="m446 416.2-5.1 2-.3 6.7-5.7-4.6-6 2.2.6-6.7-5.6-4.6 6-2.2.5-6.7 5.4 4.5 6-2.1-.4 6.7 5.4 4.6zm-1-.6-4.5-3.8.2-5.7-5 1.8-4.5-3.7-.5 5.6-4.9 1.8 4.7 3.8-.5 5.6 5-1.8 4.7 3.8.3-5.6z"/><path fill="gold" d="m504.4 417.4 6 1.2 2.7 6 3.3-4.8 6 1.2-2.7-6 3.3-4.7-6-1.3-3-6-3.3 4.8-6-1.2 2.7 6z"/><path d="m503.6 417.7 3.2-5.2-3-6.5 6.6 1.3 3.6-5.2 3.2 6.5 6.6 1.3-3.6 5.2 3 6.5-6.5-1.3-3.6 5.2-3-6.4-5.7-1.2zm1.6-.6 5.5 1 2.5 5.5 3-4.3 5.4 1-2.5-5.4 3-4.3-5.4-1.1-2.8-5.5-3 4.4-5.5-1.1 2.5 5.4z"/><path fill="gold" d="m530 423.4 5.8 2.4 1.7 6.2 4.3-3.8 5.8 2.3-1.7-6.2 4.4-3.9-6-2.4-1.7-6.2-4.3 3.8-5.8-2.3 1.7 6.2z"/><path d="m529.2 423.5 4.4-4.2-1.8-6.8 6.3 2.5 4.8-4.1 1.8 6.8 6.5 2.6-4.7 4.2 1.7 6.8-6.2-2.6-4.8 4.2-1.8-6.8-5.4-2.2zm1.8-.2 5.2 2.1 1.5 5.7 4-3.5 5.2 2.1-1.5-5.6 4-3.6-5.5-2.1-1.5-5.7-4 3.5-5.2-2.1 1.5 5.6z"/><path fill="gold" d="m554.7 432.3 5.4 3.6.3 6.3 5.2-2.7 5.5 3.5-.3-6.3 5-2.7-5.5-3.6-.3-6.2-5.2 2.6-5.5-3.5.6 6.3z"/><path d="m553.7 432.2 5.7-3-.6-6.8 6 3.9 5.6-3 .3 6.9 6 3.9-5.4 3 .3 6.8-6-3.8-5.6 2.9-.3-6.9-5.3-3.4zm2 .2 4.9 3.3.3 5.6 4.7-2.4 5 3.2-.3-5.7 4.5-2.5-5-3.2-.3-5.7-4.7 2.4-5-3.2.6 5.7z"/><path fill="#fff" d="m562 552 6.9 11 6.3-8.6-4.4-8.8z"/><path d="m561.4 551.8 9.5-6.9 4.8 9.6-6.8 9.4-7.3-11.7zm1.3.3 6.2 10 5.7-7.8-4-8z"/><path fill="#fff" d="m518.6 574.8.5 10.2s2.7.3 5.2 0c2.2-.6 4-2 4.1-2l-.2-5.3z"/><path d="m518 574.2 10.6 3.1.3 6-.2.2q-2 1.4-4.2 2-2.5.3-5.4 0h-.4l-.6-10.7zm1.1 1.3.5 9q2.3.3 4.6 0a12 12 0 0 0 3.7-1.7l-.2-4.7z"/><path fill="#fff" d="m482 569.2-.6 9.7s-2.4-.4-5-1.3c-2-1-4-2.6-4-2.6l-2.7-7.2z"/><path d="m482.4 569.3-.5 10.2-.5-.1a27 27 0 0 1-5-1.4 16 16 0 0 1-4.3-2.7h-.1l-3-8 13.5 1.4zm-1 .3-11-1.2 2.4 6.3q1.7 1.5 3.8 2.4 2.3.9 4.4 1.2z"/><path fill="#fff" d="m438 533.2-7.2 9-7.6-14 5.7-5.3z"/><path d="m438.3 533.5-7.5 9.6-8.2-15 6.3-5.9 9.7 11zm-1-.4-8.4-9.5-5.1 4.8 7 13z"/><path fill="#fff" d="M472.1 587.8c1 9.5 55.4 18.2 56.3 8.7v-13.4c-1 7-55.4-3.1-56.3-8.7z"/><path d="M471.6 587.8v-13.5l1 .2c.3 1 2.6 2.3 8.4 4.1a162 162 0 0 0 38.6 6.4c5.8 0 8-.6 8.3-2l1 .1v13.5c-.3 2.6-2.8 3.8-9.2 4.4q-7.9.5-19.4-1.2-11.5-1.8-19.5-4.8c-6.3-2.5-8.9-4.6-9.2-7.3m1 .2c.3 2 2.6 3.9 8.4 6.2a101 101 0 0 0 19.3 4.7 92 92 0 0 0 19.2 1.2c5.8-.5 8.2-1.5 8.5-3.6v-11.7q-2 1.2-8.3 1.2-7.8 0-19.4-2-11.4-1.9-19.4-4.4a28 28 0 0 1-8.3-3.6z"/><path fill="#fff" d="M421.8 549.4c5.6 26.3 49.8 33.6 50.3 33.7v-8.7c-.9-3.6.7-4.3 8.2-4.4 3-.3 1.8-4.1 1.7-4.5-.2 0-19.5.4-33.7-7-18.8-11-21.5-25.8-21.6-26 0 0-1.5 11.3-4.9 16.9"/><path d="M421.4 549.4v-.4q2.1-3.3 3.8-10.3.7-3.6 1-6.4h1l.7 2.6q1.1 3.1 3 6.4a47 47 0 0 0 17.6 16.8q8.6 4.6 21.9 6.3 6.6.8 11.5.6h.4l.1.5q.4 1.2.4 2.4-.1 2.8-2.4 2.6-5.5.1-7.1.8-1.4.8-.7 3v9.3h-.5L465 582q-8.7-2.3-16.2-5.5-10.5-4.5-17.2-10.4a30 30 0 0 1-10.1-16.7m1 .1c2.2 10.9 10.8 19.2 26.5 26.1a116 116 0 0 0 22.7 6.9v-8.1q-.8-2.8 1.2-4 1.7-.7 7.5-.9 1.4.1 1.5-1.7l-.2-1.8q-4.9 0-11.2-.6-13.4-1.7-22.2-6.5a49 49 0 0 1-18.1-17.2 40 40 0 0 1-3-6.6l-.2-.3-.8 4.2q-1.6 7.1-3.8 10.5"/><path fill="#fff" d="M578.5 572.8c-5.5 25-49.5 19-50 19V583c.6-3.4-1-4.6-8.5-7-2.9-1.1-1.5-4.6-1.4-5a73 73 0 0 0 33.6 3.2c18.6-5.5 20.7-19.7 20.8-20 0 .2 2 12 5.5 18.5"/><path d="M579 572.9q-1.8 8.8-10 13.9a46 46 0 0 1-17.2 5.4 95 95 0 0 1-23.4 0h-.5v-9.3q.6-2.1-.9-3.3-1.6-1.2-7.1-3-2.3-.6-2.2-3.3 0-1.2.4-2.4l.2-.3.4.1q4.8 1.6 11.5 2.9a54 54 0 0 0 21.8.2c7.8-2.2 13.2-6 17.2-11.7a27 27 0 0 0 3.3-7.9l1 .1q.4 3 1.3 6.8 2 7.5 4 11.4l.1.2zm-1-.1a53 53 0 0 1-5-16.2l-.2.4q-1 3-2.8 5.7-5.9 8.8-17.6 12.1a55 55 0 0 1-22.3-.2q-6.4-1.2-11.2-2.8-.3.9-.3 1.7 0 1.8 1.4 2.2 5.6 1.8 7.5 3.2 2 1.6 1.4 4.3v8.1l6.6.5q8.7.3 16-.5c15.8-2.3 24.2-8.3 26.4-18.5"/><path fill="#fff" d="M425.4 540c-12.3-8.9-3-14.5-1.7-35.2 2.4 13 15.4 20.2 14.3 28-6-1-8.3-9.3-11.3-.4z"/><path d="M425.2 540.5c-4-2.9-5.9-5.4-6.5-8.6q-.3-1.9.2-4.7l1.3-5.4a88 88 0 0 0 3-17h1q.7 4.2 3.3 8.6 1.5 2.6 5.2 7.2 3.3 4.3 4.4 6.3a10 10 0 0 1 1.3 6.2v.3h-.4a8 8 0 0 1-3.2-1.1l-2.5-2q-2-1.6-2.8-1.6c-.8.3-1.5 1.3-2.3 3.9l-1.5 8.3zm-.2-1.2 1.3-7c.9-3 1.7-4.2 3-4.5q1.1 0 3.6 1.8 2.8 2.3 4.6 2.7.3-2.2-1.2-5-1-2-4.3-6.1a82 82 0 0 1-5.3-7.4q-1.8-3-2.7-5.9-.8 6.3-2.9 14.3l-1.3 5.3q-.4 2.5-.2 4.4.8 3.7 5.4 7.3"/><path fill="#fff" d="M574.9 562.5c12.3-5.8 2.4-13.9 1-34.9-2.2 12.3-15 15.7-13.8 24 5.6.6 8-7 10.9 2.7l1.9 7.9z"/><path d="M574.4 563.2v-1l-1.9-7.8q-1.1-3.9-2.3-4.5-.6-.4-2.8.9-1.5.9-2.3 1.1-1.6.5-3 .3l-.4-.1-.1-.4q-.5-2.9 1.2-5.8 1.1-1.7 4.4-5 3.5-3.6 5.1-5.7 2.5-3.8 3.2-7.7l1 .2a76 76 0 0 0 3.3 18.1l1.4 5.7q.5 2.8.2 4.6c-.6 3-2.4 5-6.3 6.8zm.9-1.5q4.6-2.4 5.2-5.9.1-1.6-.2-4.2l-1.4-5.6q-1.4-5-2-8.1-.8-3.7-1.1-7.2a22 22 0 0 1-2.7 5.1q-1.5 2.2-5.2 5.8a37 37 0 0 0-4.3 4.9c-1 1.7-1.3 3-1.2 4.7q1.9.1 4.5-1.3 2.4-1.4 3.6-1c1.1.7 2 2.2 3 5.4zm-142.3-11 1.4 1.3-3 3c-1.2 1.2-1.5 1.8-.7 2.9 1.1 1.1 1.7.9 2.9-.2l3.3-3.1 1 1.3-3.2 3.4c-2 1.8-3.3 1.2-4.8-.4-1.3-1.5-1.9-2.9-.2-4.9zm5.5 5.5 1.4 1-.3 6.7 3-4.3 1.4 1-4.4 6.7-1.6-1 .2-6.8-3 4.4-1.3-1zm2.5 12.1 3.8-7.3 1.3 1-3.5 7.1zm6-5.8-3 7.7 3 1.5c3 1.4 4 .5 5-1.9.8-2.5.5-4-2.3-5.8zm1 2.1c2.9 1.5 3 2.5 2.3 4.4s-1.4 2.4-4.1.6zm8 2.3-5 6.8 2 .9 1-1.8 3.3 1.3.3 2 2 .6-2-9.3zm.5 2 .6 3.5-2.2-.6zm4.2-.6-.3 8.7 3.2.5c3 .4 3.7-.9 3.9-3.6 0-2.7-.8-4.2-4-5zm1.6 1.8c3 .6 3.4 1.4 3.4 3.6-.1 2.1-.5 2.8-3.5 2zm27 14.8v9l2 .2v-3.3s1.6.3 3 .2c1-.2 1.7-.7 1.8-2.5q0-2.5-2.6-3zm2 1.7 1.9.3c1.6.5 1.3 2.4 0 2.5l-2-.3zm7.9-.2-3.6 8.4 2 .3.8-2.1 3.5.5.8 2.4 2 .3-3.6-9.5zm.8 2 1.4 3.7-2.5-.4zm4.6 6.1 4.7-5.1-4.1-.7v-1.4l6.5 1v1.4l-4.9 5.2 5 .7v1.7l-7.2-1.1zm27.6-13.1h1.7l.8 5.1q.3 2.8-1.7 3.3c-1.6.2-3-.4-3.5-3h1.4c.4 1.5.8 1.7 1.5 1.6q.9-.4.7-1.8zm2.8 0 1.6-.2.7 4.3c.4 2 .9 2.6 2 2.7 1.5-.1 1.6-.8 1.3-2.5l-1-4.6h1.7l1 4.8c.6 3-.6 3.6-2.5 3.8-1.8 0-3.2-.6-4-3.4zm8.5 5 1.3-.3c.8 1.3 1.7 1.4 2.6 1.2q1.5-.9.7-1.8c-.9-.5-2.7-.3-3.8-.7q-1.8-1-1.6-2.5.2-1.8 2.4-2c1.4-.2 2.5 0 3.5 1.9l-1.6.3q-.9-1.3-1.8-.8c-.6.1-1.2.4-.9 1.3.5.6 2.3.6 3.4.7q1.9.4 2.1 2.2c.2 1.6-.3 2.2-2 2.7-2.2.4-3.8-.6-4.3-2.1m7.3-6-2.1.8-.6-1.4 6-1.7.6 1.2-2.2.8 2.4 6.6-1.3.6zm3.6-2.5 1.4-.6 3.8 7.8-1.4.6zm9.3 2 1.6-.4c.7 2-.2 4.3-3.2 4.1a5.5 5.5 0 0 1-4-6.8c1.5-2.4 4-2 5.6-.4l-1.4 1c-1-1.2-2.6-.9-2.9.2q-.2 2.7 2 4.3c1.4.7 3-.3 2.3-2m-.8-6 1.3-1 5 7.4-1.4 1zm5.2-3.5-1.4.9 3 8.8 1.4-1.2-.9-1.8 2.5-1.9 1.6 1 1.4-.8zm.5 2 2.7 1.8-1.6 1.4z"/><path fill="#1a1a1a" d="M8 195.3c170.8-85.3 341-54.5 513.3-28C676.5 191 833.4 211.8 992 132.7v672c-170.8 85.3-341 54.5-513.3 28C323.5 809 166.6 788.1 8 867.2zm31.3 19.3v604.5c306.5-128.2 611.1 96 921.5-33.7V180.9C654.2 309 349.5 84.9 39.3 214.6" opacity=".2"/></svg>