<svg xmlns="http://www.w3.org/2000/svg" viewBox="0 0 1000 1000"><defs><linearGradient id="a" x1="628" x2="630" y1="272" y2="227" gradientTransform="matrix(1.23036 -.07404 0 .72539 8 234.01)" gradientUnits="userSpaceOnUse"><stop offset="0" stop-color="#474747"/><stop offset="1" stop-color="#f50"/></linearGradient><linearGradient id="b" x1="762" x2="762" y1="360" y2="381" gradientTransform="matrix(1.00337 -.04664 0 .88946 8 223.477)" gradientUnits="userSpaceOnUse"><stop offset="0" stop-color="#b50000"/><stop offset="1" stop-color="#ffc500"/></linearGradient><linearGradient id="c" x1="1809" x2="1858" y1="169" y2="167" gradientTransform="matrix(.45548 -.07465 0 1.95936 8 317.553)" gradientUnits="userSpaceOnUse"><stop offset="0" stop-color="#d5dfff"/><stop offset="1" stop-color="#fff"/></linearGradient><linearGradient id="d" x1="1273" x2="1287" y1="129" y2="129" gradientTransform="matrix(.60362 -.03516 0 1.4785 8 232.52)" gradientUnits="userSpaceOnUse"><stop offset="0" stop-color="#474747"/><stop offset="1" stop-color="#f50"/></linearGradient><linearGradient id="e" x1="423" x2="384" y1="1130" y2="1094" gradientTransform="matrix(2.08797 -.37202 0 .42743 8 329.536)" gradientUnits="userSpaceOnUse"><stop offset="0" stop-color="#d5dfff"/><stop offset="1" stop-color="#fff"/></linearGradient><linearGradient id="f" x1="1149" x2="1139" y1="277" y2="258" gradientTransform="matrix(.72215 -.10623 0 1.2358 8 303.61)" gradientUnits="userSpaceOnUse"><stop offset="0" stop-color="#d5dfff"/><stop offset="1" stop-color="#fff"/></linearGradient></defs><path fill="#012169" d="M8 195c171-85 341-54 513-28 155 24 312 45 471-34v672c-171 85-341 54-513 28-155-24-312-45-471 34z"/><path fill="#fff" d="M8 195v38c144 26 288 135 437 259l55 8v-38C356 342 211 219 63 172q-27 9-55 23m492-31v38C356 278 211 353 63 508q-27 9-55 23v-37c144-171 288-259 437-338zm-287-23v336q40-3 82-1V140q-40-2-82 1M8 307v112c163-81 324-57 492-31V276c-162-25-325-52-492 31"/><path fill="#c8102e" d="M8 330v67c163-81 324-57 492-31v-68c-162-25-325-51-492 32m221-190v336h50V140zM8 531q81-94 164-162l37-4q-81 60-164 150zm0-336q81 16 164 62l-37 6Q72 233 8 220zm291 57q81-50 164-94l37 6q-80 42-164 91zm201 248q-80-69-164-133l37 3 127 105z"/><path fill="#6a4c2d" d="m733 665-4 9-7-4-7 9c-2 1-7-1-7-1l-6-2v-3c0 1-7 8-9 8-2-1-8-11-8-11l-1 5-11-1-10-10-5 12-10 2-1-2-6-6 5-9-2-2-4 4-7 5-7-5 3-7v-6l6-11 69-87 34 87z"/><path d="M734 665q-3 10-5 10t-7-4q-4 9-7 9-2 1-7-2l-7-1v-2q-6 8-9 6l-7-10-1 5-11-2-10-9-2 6-2 4-1 1-1 1h-1l-3 1-5 1-1-3-7-6 1-1 4-8-1-1-3 3-8 6-8-6 3-8 1-6 6-11 69-87 35 88zm-1-1 5-25-34-86-69 86-5 11-1 6-2 7 6 5 7-6 4-4v1l3 2-5 9 6 5v2l10-2h-1l1-1 2-4 3-6v-1l10 10 11 1 1-6v1l8 11 9-7 1-1v2l-1 2 6 1 7 2q2-1 6-9v-1h1l7 5zm-76 13"/><path fill="#fff" d="m782 669 18-2-7-5q33-4 68-13l-10-3-8-14h-43q-1-7-3-8l-22-1-14 13 9 32z"/><path d="m782 670-12-1-9-33 14-14 22 1 4 8q4-2 6 1l36-1 9 14 9 4v1q-33 8-66 13l5 3v1zm0-2 16-2-6-3 1-2q32-3 66-12l-8-2-8-15-36 1h-7v-1l-3-8-22-1-13 13 9 31z"/><path fill="url(#a)" d="m712 395 2-9 3-10q1-7 3-7s6-3 8 3c9-15 17-1 17-1l3-4 5-8 7 10 2 1 8-1q2-1 3 11c2 3 5 15 5 16z"/><path d="m712 394 2-8 3-10 2-8 4-1q4 1 5 4 5-10 12-6l5 5 2-3 6-9 8 12v-1l9-1 2 3 1 9q3 3 5 15l1 1q-34 2-67-1zm1 0q31 2 64 1-2-12-5-14v-1l-1-8-2-3-7 2h-2v-2l-7-9-5 8-3 5v-1l-5-6q-7-3-11 7l-1 1v-2q-1-3-5-3h-3l-2 7q0 4-4 10z"/><path fill="#656263" d="M782 494q5-1 5-12c-1-9-5-9-9-9l-6 4-10-8c0-1 6-43 11-47l6-9-2-4-33-4-31 4-3 7q0 3 6 11c6 7 11 44 11 44l-9 5q-2-2-5-1-3 0-6 11c0 8 5 13 5 13s29-4 34 7c5-13 32-10 36-12"/><path d="m782 494-8 2-16 2q-10 3-11 8l-1 2v-2q-3-6-19-7l-15 1h-1l-2-4-2-10 2-9 4-3h3l2 1 8-5-2-19q-4-19-8-24l-6-10 2-8 32-5 33 5 2 4q0 3-6 9v1q-3 2-7 24l-3 21 9 8 6-4 6 1q4 2 4 9t-5 12zm0-1q4-4 4-11-1-10-9-8-2 0-5 4l-11-9 3-23q4-22 8-25 5-5 5-8l-1-3-33-4-31 4-2 6v1l6 9q3 4 8 25l2 20h1l-1 1q-9 6-10 4h-1l-3-1-3 3-2 8q0 5 2 9l2 4 15-1q16 0 19 7 2-6 12-8l16-3zm32-47 3-8c3-2 19-5 23-3 4 3 6 19 6 19l2 10 1 7s13 21 13 42c2 15 1 53-3 69 0 18-5 31-6 31q2 0 2 7l-2 6 20 10-8-3 8 7-9-3 5 5-12-5 6 6-9-4 5 6-8-3 1 4c-1 0-6 1-6-5l-5-5-14-1-16-62 4-108 1-5zm0 0q0-5 3-8t11-4h13q2 2 4 11l1 9 3 10v7a102 102 0 0 1 14 42 274 274 0 0 1-3 69 99 99 0 0 1-6 31l1 6-1 7 19 9v1h-1l-4-1 1 1 4 3v2h-1l-5-3 3 4v1h-1l-9-4 1 1 1 2h1v2h-1l-4-2-2-1 1 1 2 2v2h-1l-6-3v4l-4-1q-3-1-3-5l-5-4-13-2-16-62 4-108 1-5zm51 187-12-6v-1l1-6-1-6v-1l3-9 3-22q3-11 3-35v-33q0-14-7-29l-7-14v-7l-3-10-1-8q-1-9-4-10-3-2-12-1-9 2-10 4-3 2-3 6l2 15-1 5-4 108 15 61 14 1 5 5q0 4 3 5h2v-3h1l5 1h-1l-3-3v-1l1-1 4 2 2 1-3-3v-1h1l9 3-3-3v-1h1l4 2v-1l-4-3z"/><path fill="#fb0" d="M804 790c0-1-8-22-12-22-3-10 13-86 44-95 16 0 1 26-10 20 1 7 7 16 7 16s-22 16-29 81"/><path d="m804 790-5-11q-4-10-7-11-2-5 1-18a197 197 0 0 1 22-60q9-15 21-18 6 0 7 4 2 4-1 9-3 6-7 8-5 3-8 1l6 14 1 1h-1q-5 4-12 16-13 24-16 65l-1 2zm0-3q4-39 16-63l12-16q-6-8-7-14v-2l1 1q4 2 8-1l7-7q3-5 1-8-1-4-6-4-21 7-35 47-5 15-7 30l-2 17q3 1 8 11z"/><path fill="#fb0" d="M697 795c0-1 7-25 11-26s-11-86-43-90c-17 1-1 26 10 20-1 7-7 16-7 16s22 15 29 80"/><path d="M698 795h-1q-5-40-17-64-6-12-12-15l-1-1 1-1 6-14h-8q-4-2-7-8-3-4-1-9 1-4 7-5 12 1 21 16 8 12 15 31a208 208 0 0 1 8 40l-1 5q-3 0-7 12zm-1-3 4-10q4-13 7-14v-3l-1-10-7-30q-7-18-14-30-10-14-21-15-5 0-6 4-2 3 1 7 3 6 7 7 4 3 8 0h1v1q-1 7-7 16l12 15q12 24 16 62"/><path fill="#00713d" d="M726 633s-7 3-2 15l3-7s-5 8 1 16q3-10 4-9s-4 15 0 19l3-9s-3 14 0 18q1-8 3-8s-2 14 2 16l4-11c0 1-2 12 5 13l1-10c0 1 3 12 7 11v-11c1 0 3 11 8 9l1-7s2 7 7 5v-7c1 0 7 9 10 4 1-7-6-8-6-8l5-1s-1-5-9-7l5-1s-1-7-9-8l6-1s-1-6-9-9q4-2 5-1c0-1-3-6-7-7-4 1-38-4-38-4"/><path d="M726 633h4l33 4q4-1 7 6l1 2h-5q6 2 7 5l2 4v1h-4l5 4 2 4v1h-4l6 4 2 3v1h-3l1 1q4 3 2 7 0 3-3 2l-3-1-3-3v5q-3 3-7-1l-1-2v6q-4 2-7-4l-1-3v8q-4 2-6-4l-2-5-1 8v1q-4-1-6-7v-4l-2 8h-1q-3 0-3-9v-6l-2 7v1l-1-1-1-11 1-5-2 7v1h-1q-2-2-1-12l1-6q-2 2-3 7v1l-1-1q-3-4-2-11l1-2-2 4v2l-1-2q-3-7 0-12l2-3zm1 0h-1l-2 3v9l4-6 1 1-2 5q-1 6 1 9l4-8h2l-1 1-1 8v10q1-6 4-9l1-1v2l-2 8v8l4-7 1-1-1 2v7q0 7 2 8 0-6 3-10l1-2v8q1 6 4 6l2-9v-2l1 2 2 6q1 4 4 4v-11l1 1v1l2 4q2 4 5 4v-7l1-2v2l2 3q2 3 5 1v-6l1-1 3 4 3 2 2-2q1-3-2-5l-3-2v-1h5l-2-2q-3-4-7-4h-2l2-2 5-1-2-2q-3-4-7-4v-1q3-2 6-1l-1-3q-2-4-8-5h-1l1-1 4-2q-3-5-6-5-3 1-33-3l-3-1z"/><path fill="#3ec26d" d="m760 670 3 4v1l-1-1-2-3zm2-3q4 4 4 7h-1q0-3-4-6zm3-2 4 7v1h-1v-1l-3-6zm6 2 1 6h-1v-1l-1-5v-1zm3 2-1 5-1-1h1v-4zm-38-22q3 3 3 8v1l-1-1q0-4-3-7v-1zm0 4 1 4v1h-1v-1l-1-3v-1zm4-4 2 8-1 1v-1q1-3-2-7zm4 3v5h-1v-5zm2 2 1 1-1 3h-1v-1l1-1zm-2 9q4 0 4 5 1 0 0 0h-1q0-3-3-4zq0-1 0 0m2-4 2 1 3 5-1 1q-1-5-4-5zm5-1 1 3 1 5h-1v-4l-1-3zm5 1v7h-1v-8zm3 2v6l-1 1v-8zm-5-9q3 1 2 5l-1-1-1-3zm2-3q3 3 3 7v1h-1v-1l-2-6zm4-2q2 4 1 9v1l-1-1q1-4-1-8v-1zm4 2-1 7h-1l1-8h1zm2 3v4h-1q-2-2 1-5zm-13 19-1 5v1-6zm-4-2q2 4 1 7l-1-1q1-2-1-5zm-4 0 2 6h-1q1-2-2-5zq0-1 0 0m-3 0 2 5h-1v-1l-2-3zm-1 4 1 4h-1v-1l-1-2v-1z"/><path fill="#fff" d="M702 499h25c1 0 16 0 19 7 4-9 17-9 18-9l26-3v87c-5 34-23 58-42 69-24-11-38-38-43-69z"/><path d="M702 498h25l9 1q7 1 10 6 3-5 10-8l8-1 26-3 1 51v37q-4 24-16 44-12 17-27 25-17-7-29-26-10-19-15-43l-1-40zm1 1 1 42 1 40q5 24 15 42 11 18 28 26 15-9 26-25 12-19 16-43v-37l-1-49-25 2-8 2q-7 2-10 8v1l-1-1q0-4-9-6l-9-1h-12z"/><path fill="#006b00" d="m711 499 37 135 33-139c-10 2-32-1-35 12-5-11-27-7-35-8"/><path d="m711 499-1-1zh8l16 1q9 2 11 6 3-6 11-8l17-2 7-1h1l-34 142zm1 1 36 131 33-135h-7l-17 2q-9 3-10 9l-1 2v-2q-3-4-11-7z"/><path fill="#ffc900" d="M736 572c2 0 2-36 3-38l2-7q-5-6-12-1l2 7c4 9 3 39 5 39"/><path fill="#006b00" d="M736 572v-3l-1-10-3-25-2-7q3-3 7-3 4 1 5 3v1l-1 7v1q-2 0-2 21l-1 11zm0 0v-1l1-4v-12l2-21 2-7q-2-3-5-3l-6 2 1 7q3 4 4 25z"/><path fill="#cdad56" d="m726 282 3-5c0-1 12-1 19-19 4-10 0-4 0-4v-5s4-6 3-9c-2-3-1 3-4 4-3-1-2-8-2-8l-1-2-2 3-2-6s-1-3-3 7c1 10 6 8 6 16q-1 11-6 12l-1-6-1-3s3 0 2-8c-1-9-2 1-3 1-2-1-1-8 0-9 0-2-1-5-5 5-1 4-1-1-2-1q-2 5 1 11 5 5 5 9-1 5-4 6c-2 0 0-5 0-7l-4-8-2-6-1 5c-2 5-3-4-3-4s-1 7 2 11l-3 1 4 6q-1 5-4 6s2 3 7-3l-2 7q3 1 3 3"/><path d="M727 283v-1l-2-2-1-1v-1l1-5-4 3-2-1v-1q4-2 4-5l-3-3-2-3q1-2 3-2l-2-6v-4l1-1v1l2 5v-1l1-5 1-1 1 1v3l2 2 3 9v7l2-3 1-3q0-3-4-9t-1-11v-1l1 2v-1l5-7 1 1v2l-1 5 1 4 1-3 1-3 2 5-2 8 1 3v6l3-4 3-8-3-6q-3-4-3-10v-1q0-6 2-7h2v1l1 6 1-1 1-3h1l1 2v5l1 3 2-3v-2h1l1 1q2 4-3 11v2h2v1l-2 5q-5 15-18 19v1h-1zm0-2 2-4 1-1q12-5 17-18v-1l2-3h-1q0 2 0 0h-1v-5q4-6 3-9v1l-3 4q-2-1-3-5l1-4-1-1v1l-1 2q-2 0-2-4l-1-3q-2 1-2 7l3 9 3 6-3 10-4 4-1-1v-6l-1-2v-1l2-8-1-3v1l-3 4-1-5 1-6-4 6-1 2v-1l-1-1 1 9q5 7 5 10l-1 4-3 3-1-1v-7l-3-8-1-3-1-1-1 3-1 2-2-2v-1 1l2 7v1h-3l2 2 3 4q0 4-4 6h1q2 0 5-4h1l-2 7v1zm-4-30"/><path fill="#cdad56" d="m710 282-2-6c-1 0-11 1-16-17-3-9 0-4 0-4v-4s-3-6-2-9c1-2 1 3 3 4 2-1 1-7 1-7l1-2 2 5 3-6c1 0 1-4 3 5-2 10-7 8-7 14q2 11 5 12l1-6 1-2s-4 1-4-7c2-6 3 0 5 1v-9c0-1 2-5 4 5 0 4 2-3 2-4q1 7-2 12l-3 9q0 4 2 4 2-1 1-5l3-7 1-4c1 0 1-2 2 3s2-3 2-3 1 6-1 10l2 1-1 5q0 6 1 5s-1 3-6-3l2 7q-3 0-3 3"/><path d="m710 282-3-5q-12-3-16-18l-1-4v-1l1-1v1-3q-3-6-1-9v-1h1l1 2 1 2 1-3-1-4 2-1 1 3 1 2 2-5 1-2h1v-1l1 1 1 6q0 6-4 9-3 3-3 5l2 8 3 3v-5l1-2h-1q-2-1-2-7 0-3 2-3l1 2 2 1v-8q0-2 2-2t2 7l1-2 2-2q1 4-2 12l-1 1q-3 4-3 8 0 3 2 3h1v-2l-1-2 4-7v-5h2l2 4v1-1l1-4 1 1v3l-1 6 2 2-1 2-1 3 1 5v1l-1 1-4-3 1 4v1l-1 1zm-8-23v7l-1 1-3-3-3-9 3-6q4-3 4-8l-1-5v1l-1 1q-2 6-3 5l-1-3-1-2-1 1 1 3q0 5-2 5t-2-4l-1-1 2 9v5h-1v-1l1 3v1q4 14 15 16l1 1 2 4 2-1v-1l-1-6q0-2 0 0 3 3 5 3l-1-5 1-3 1-2-2-1h-1v-1q2-3 2-7v2l-1 1-1-2-1-3h-1v2l-1 3-3 6v2l1 2-2 2q-3-1-3-5t4-9q3-7 2-11v2l-1 2-1 1-1-1v-1l-1-6-1 1v3l-1 6-2-2-1-1-1 2 1 6zm13-1"/><path fill="#ffc900" d="M775 518q-2-2-3 0l-2-2-1-1-1 3 1 3q0 3-3 4l1-3-1-3v-4l-2 1-2 3-4-1 3-2 1-3 2-1-1-2-3-1-1-5q3 2 2 3l3-1 2 2v-5l2-5v4l1 2v4l2-1 1-2h4l-2 2q0 2-2 3l-2 1 1 2 3 1zm-57 2 4-1 1-1 2-1v6l2 4v-3l1-3v-4l2 1 1 2q2 1 4-1l-2-1-1-3-2-1 1-3 2-1 2-4-2 2h-3l-2 2-1-3 1-3-2-4v4l-2 2 1 3h-2l-2-2h-3l2 2 1 3 2 1-1 2-3 1zm55 7c-2 2-14 7-15 23 0 15 2 18 0 19-5-1-5-17-5-25v-6q1-1 3 5c0 3 3-9 2-13q4 4 5 1l-2-4 2 1q1-1-2-2c-4-1 0-2 0-2q1 2 3 0l-3-4q0-2-5-5c-3-1-2 1-5 1v3q-2 5-1 6 1-2 4 1-1 5-4 1l-1 1 1 3q-1-1-4 3l3 1-5 4v-2l-4-2-2 9q2 2 5 2l5-4c-4 5-9 12-12 13q-1-3-3-2-2 2 1 3s-4 1-3 5q1 3 2 1l2-2q5-1 4-3l-3 3-3 1 1 3c0 1 3-3 5 0q4-1 3-7 2 3 1 5c0 1 5-4 3-8l1 5 2-1v3l2 6-2-3-6 4c-2 1 2 9 2 10l-3-1c-1 0-2-3-3-1q0 3 1 2h-3l-1 3 4 1-4 1v3q2 1 3-1v3q2 1 4-5v4q1 1 4-5v4l2-2-1 13c-3-2-4 1-4 1l-1 7 2-1 3-3 1-2-2 3q-2 2-1 3l2 3 3-7v2l2-2q-2-2 0-6c2-2 0 2 0 2l1 4c1 0 2-6 1-9l2 2v-8l-3-1v-2s3 4 4 3q2-3-3-7c-3-2 0-7 0-7q1 2 4 2 2-3 0-2c0-1 5-5 5-7h-2l2-6q-2 3-3 2l2-7-2 3c-1-1-2-12 1-14 4 0 2 6 2 6 1 0 5-3 0-8l4 3c0-1-1-8-7-3q1-4 4-3 3 0 5-3l-5 1c0-1 8-2 8-9"/><path fill="#006b00" d="M773 527q2 6-6 8h3q1 2-2 3h-4l-1 1q2-2 4 1l1 4-3-3 2 3-1 3q0 3-2 3v-6h-2q-2 0-2 6l1 6h1l1-2q1 3-1 6l2-2-1 7h1q0 2-4 6v2l-1 1h-3l-1-1-1 2v2l1 2q3 1 3 4v3l-1 9-1-1v3l-2 5v-1q-1 2-3 2h-1v2l-1 3-1 1v-1l-1-1-1-2-1-1-1 2h-1v-8l1-2h4l1-11-2 1v-2l-2 3h-2v-2l-2 2-2 1v-2l-1 1h-2v-4l1-1h-1v-2l1-2 2-1v-2h1l1 1 1 1h3l-3-8v-1l1-1 4-2 2-2 1 2 1 1-3-5v-2l-1 1v-1l-1-1v2l-2 2h-1q0 1 0 0v-2l-1 2q0 2-3 3v-1l-2-1-2 1-1 1v-1l-1-2v1h-1l-1-2h-1l1-3 2-2-1-1v-2h3l1 2h1l6-7 5-5-4 2-1 1q-2 1-5-2v-1l1-8h1l4 2v1l4-3h-2v-1q0-3 4-3l-2-2v-1l1-1h1l2 2 1-3v-1h-1l-2 1v-1q-2-4 1-6l-1-1v-2h1l2-1 3-1q3 1 5 6l4 3v1q-1 2-3 1l-1-1-1 1h1q2 0 2 2v2-1l-2-1 2 3v2h-2l-2-1-3 13v-1q0-4-3-5l1 21q1 10 4 9h1v-4l-1-14q0-8 5-15l8-7zm-18 56 1 1 1 2h1v-3l-3-3-2-2v-3l2-3 2 1h2l1-1h-1v-1q4-3 5-6l-2 1h-1v-1q3-2 3-5l-3 1 2-6-1 1-1 1-1-7q0-6 2-7h2l1 2-1 4 2-2v-2l-2-4q1-1 4 2l-1-2q-2-3-6 0l4-4h3l2-1h-5v-1h1q7-3 7-7l-2 1-8 7q-4 6-5 14l1 18-1 1q-3 0-5-9v-22q3 0 3 4l2-12 3 2 1-1h1-1l-2-4 1-1 1 1h1l-2-1h-2v-2h5l-3-3q-2-5-5-6l-2 1-3 1-1 1h1v1q2 0 0 0l-1 6 2-1h1l1 2q0 3-2 3l-2-1h-1l2 3h-1q-3 0-4 3h3v1l-4 4h-1v-2l-4-1-1 7q2 4 3 3l2-2q3-3 4-2h1l-1 1-5 6-6 6h-1l-2-2h-1v3h1l-1 1-1 1-1 2v1l1 2v-1h1v-1l1-1h1l3-2v-1h1l-1 2-2 2h-3v1l1 2 3-2 2 2 3-3v-5h1v5l2-2 1-2v-3q-2 0 0 0 0-1 0 0l1 3v2l2-1v3q3 3 2 6h-1v-1l-1-2-2 1-4 3v1l1 3 1 6h-3l-1-1-1-1h-1v1l1 1-1 1v-1h-2l-1 2v1l2 1h1l1-1v1h-2l-2 1v3h2l1-1 1 1v1h1l2-4v-2 5h2l1-4v-1h1q0-1 0 0v4l2-1h1l-2 13h-3l-1 1v7l1-1 2-2 1-1v-2h1q0-1 0 0 0 3-2 3l-1 1v2l1 1 1 2 1-1v-2l2-4v1l2-2v-5l1-1v1l-1 3 1 3 1-4v-4l-1-1h2l1 2v-7l-3-2zq0-1 0 0m-2 16v-2l1-2h-1zm3-13-1-1-1 1zm-25-53 3-2q3-1 5 3-2-2-5-2zm10 9-2 2v-1zm4 7h2q4-2 6-6-2 5-5 7h-4zm5-1 1 3h1v1h-2v3l-1 3v-1l1-2-1-3v-1l2 1z"/><path fill="#e80000" d="m747 597-3 3z"/><path fill="#006b00" d="m748 597-4 3h-1l1-1zm1-13v-10l1-3 2-4h1v1l-2 3-2 4zm0-5-1 2q-3 2-6 1-1 0 0 0v-1q3 2 5-1zm2-12-1 3q-1 3-4 1h-1l1-1q3 2 4-1zm-7-28-1 2v5h-1zm8-7 3-2 2-4-1-5q2-2 3 0c2 1-1-4-3-5l-3 2v1l1 3 2 5z"/><path fill="#ffc900" d="m754 519 1 2zm0 0h1v2zm1 1q0-1 0 0"/><path fill="#e80000" d="M746 606v4l1-3z"/><path fill="#006b00" d="m745 606 1 1-1 3v1zm1 1v2z"/><path fill="#e80000" d="m743 601-2 2 2-1z"/><path fill="#006b00" d="M743 600v2h-1l-1 1v-3zm0 1-1 1-1 1 1-1h1z"/><path fill="#e80000" d="m743 598-2 1h2z"/><path fill="#006b00" d="M743 598v1q0 2 0 0h-1l-1 1v-1q0-2 2-1m0 0-1 1z"/><path fill="#e80000" d="m736 575 2 2q1-2-2-2"/><path fill="#006b00" d="m736 575 2-1v3h-1zm1 0 1 1z"/><path fill="#e80000" d="M734 578h2l-1 2z"/><path fill="#006b00" d="m734 578 1-1h1v2l-1 1v-1zm1 0"/><path fill="#e80000" d="M734 584h1v1z"/><path fill="#006b00" d="M734 584v-1h2v2h-1zm0 0h1z"/><path fill="#e80000" d="m732 553-2 1 2 1z"/><path fill="#006b00" d="M732 553v1h-1l-1-1v-1zm-1 0"/><path fill="#e80000" d="m729 565 1-4 1 2q-2 0-2 2"/><path fill="#006b00" d="m729 565 1-4q0-1 0 0l1 1v1zm0-2 1-1v-1z"/><path fill="#e80000" d="m733 563-1 2h1z"/><path fill="#006b00" d="M733 562v3h-1q0 2 0 0v-2zm0 1h-1z"/><path fill="#ffc900" d="M731 537q-1 3 2 3z"/><path fill="#006b00" d="M730 537h2l1 3v1l-2-1zm1 1v1l2 1z"/><path fill="#e80000" d="m732 536 2 1-1-3z"/><path fill="#006b00" d="M732 536v-1h1l1 3zm1 0"/><path fill="#e80000" d="m733 541 2-1-2-1z"/><path fill="#006b00" d="M733 541v-2h1l1 1zm1 0"/><path fill="#ffc900" d="M731 533q-1 2 1 2z"/><path fill="#006b00" d="M730 533h2l1 2-1 1-1-1zm1 0v1l1 1z"/><path fill="url(#b)" d="M731 524q2-2 9 1c3 3 3 0 3 0l6 2 1-1c1-2-3 0-4-3q0-4-2-3v-7l-3 3c-2-1 0-5-3-6l-2 6q-5 3-5 8"/><path fill="#c01500" d="M665 776c4-1 24 7 32 19-2-20-6-36-6-36s-11-5-14-3c-2 3-9 13-12 20"/><path d="m665 776 12-20q3-2 14 3l1 1 5 36 1 2-2-1q-5-8-17-15-10-6-14-5m1-1q4 0 14 5 10 6 16 13l-5-33q-12-6-13-4z"/><path fill="#c01500" d="m659 681-4 5c-2 5-3 19-5 22q-5 3-5 6-2 6 7 13c6 0 16-12 16-13q2-1 8-15c-13 4-21-11-17-18"/><path d="m659 681 1-1zv5l2 7q6 7 14 4h1v1q-2 9-7 16l-6 6q-7 8-11 6-7-3-7-13 0-3 2-4l2-3 4-12 1-9v-1q3-4 5-4m-1 2-3 3-1 9-4 13-2 3q-2 1-2 3 0 9 6 12 4 1 10-6l6-6 7-14q-8 2-14-5-3-4-3-8z"/><path fill="#c01500" d="M836 769c-4-1-24 9-32 21 2-20 6-36 6-36 2-1 11-6 14-4 2 3 10 12 12 19"/><path d="m836 769-14 6q-12 7-17 15l-1 2v-2q2-21 6-37 12-6 14-4l1 2zv1zm-1-1q-2-6-11-16l-1-2q-1-2-12 4-4 15-6 34 6-8 17-14 9-6 13-6"/><path fill="#c01500" d="m842 675 3 5c2 5 3 13 6 16q4 5 4 10 2 4-7 10c-6 1-15-8-15-8s-5-7-7-15c12 4 19-12 16-18"/><path d="m842 674 3 4v2l2 4q2 9 4 11 4 5 5 11-1 6-8 11-4 0-10-4l-6-4v-1q-4-6-7-15v-1h1q7 3 13-5l3-6-1-6v-1zm1 3v4q0 4-3 7-5 8-14 6l7 13 5 5 10 4q6-4 7-10l-5-10-4-11-2-5v-1z"/><path fill="#fb0" d="M652 757s12 13 13 18c34-65 122-85 171-8q12-19 13-18c-51-82-157-71-197 8"/><path d="M652 757q15-30 41-46a109 109 0 0 1 109-6q29 14 48 44v1l-5 4-9 14v1-1q-18-28-43-40-23-11-48-9-25 3-46 18t-34 40v1l-1-2-6-11zm1 0q11 11 12 17 13-25 34-39 21-15 46-18t48 9q25 12 43 40l13-17q-19-30-47-44a108 108 0 0 0-109 6q-25 16-40 46"/><path fill="#1e5aa6" d="M782 495h5l-9 16 10 16-21 37 20 32-8 20-11-17 20-36-17-25z"/><path d="M782 494h6l-9 16-1 1 11 16-11 20 11 16-10 18 9 14v1l-9 20v1l-12-18 10-18-10-17 10-17-6-9 6-27 1-1zm-5 54-9 16 10 16 10-17zm1 34-10 17 11 16 8-19zm0-70-6 26 5 8 11-19zm1-6 6-11-3 1z"/><path fill="#1e5aa6" d="M710 499h-5l10 15-10 18 21 33-18 32 9 22 11-18-22-35 16-27z"/><path d="m711 498 4 15 1 1h-1l7 25-5 10 10 16-10 18 11 18-11 19v-1q-6-8-9-21v-1l8-14-11-17 10-17-11-17 10-18v-1l-10-15zm5 86-7 14q3 12 8 20l10-17zm0-34-10 16 10 16 10-17zm-1-34-10 16 11 16 5-9zm-2-6-3-10h-4z"/><path fill="#1e5aa6" d="m735 587-8 14 28 44q7-5 13-12l-14-23 6-24 8 13-27 47q-6-3-13-11l14-25z"/><path d="m735 585 7 25-4 7 10 16 10-16-5-7 6-25 10 14-10 18 10 16-14 13-7-11-6 12h-1l-14-12 10-18-10-16 8-15zm3 34-10 16 13 11 7-12zm11 15 6 10q6-3 13-11l-10-15zm9-18 10-17-8-11-6 22zm-23-28-7 13 10 15 3-6z"/><path fill="#1e5aa6" d="m726 565 6 8-4-11z"/><path d="m726 565 2-5 4 13-1 1zm1 0 3 4-2-6z"/><path fill="#1e5aa6" d="m763 572 4-8-1-2z"/><path d="m763 572 3-12 3 4-3 5zm1-4 1-4v-1z"/><path fill="#fff700" d="M822 445q5-6 8-7l1 1-1 1q-2 0-8 6 0 2 0 0zm0 0 5-2 26-10v1l-25 10-4 1-1 1zm0 0 33-9h1v1l-17 5-11 3-4 1h-2zm1 0q34-7 37-6v1h-1q-2-1-36 6h-1zm-1 0q35-5 36-4l-1 1q-1-1-35 4zm0 0h17q18 1 20 4v1h-1q-1-3-19-3zm38 13-9-8q-12-6-29-4v-1q17-2 29 4 7 3 10 8zm-38-13 11 1q11 2 14 6l1 1h-1q0 2 0 0-4-4-15-6l-10-1zm1 0h7q10 2 18 14v1h-1q-8-11-17-14h-8z"/><path fill="url(#c)" d="M815 465c1 0 16-1 17 1-1 3-12 9-13 18 0 10 9 9 10 21s-7 15-9 18c-2 2-5 19-5 29s3 43 6 50c4 3 8 12 13 8 4-4 1-14 1-18l2-13-2-10c1-1 13 3 13 21-2 17-6 13-7 13 0 0 2 21-2 25-8 6-13 1-13 1l1 4-6-3-9-19-3-41v-80l5-21z"/><path d="M815 466v-1q18-2 17 1l-3 4q-9 8-9 14 0 5 4 9 5 5 6 12l-2 10-5 6-3 2v1l-3 11-2 17 7 49 2 3q6 8 9 6 4-3 1-16v-1l1-7 1-7-1-7-1-3h3l5 3q6 6 6 18t-4 14h-2v10q0 13-3 15-4 5-9 3l-3-1v4l-6-4-9-20-3-20v-21a424 424 0 0 0 0-60v-20l3-16 2-6zm0 0v2l-2 6-3 17v99l3 20 8 20 5 2-1-5 1 1 4 2q4 1 9-2 2-2 2-14v-12h3q3-1 3-12t-6-17l-4-3h-1v1l1 8-1 7-1 6v2q3 13-1 17h-6l-4-5-3-4a169 169 0 0 1-5-68l4-11 2-3q4-3 5-6l2-9q-1-5-6-11-4-4-4-10t9-15l3-3z"/><path fill="#ff7000" d="M797 461s11-16 18-15c4 0 1 3 0 3 1 0 6 0 7 4l-3 2q2-1 3 3c-1 3-24 3-25 3"/><path d="m796 461 7-8q7-8 12-8l2 1v2q5 1 6 4l-2 3 2 3-2 2-3 1-9 1zm2 0 24-3q-1-2-3-2v-2h2l1-1q-1-3-7-3h-1l1-1 1-2-1-1q-4-1-11 8zm-1-1 7-3q8-3 11-8l1 1q-4 5-12 9l-7 2zm13-6 5-1q5 0 5 2h-10z"/><path fill="#fff" d="M843 635s8-4 10-8c2-1 8 12-10 8"/><path d="M843 634q7-3 10-7l1-1 1 2 1 4q0 3-3 4h-10zm2 1h8q2-1 2-3l-1-3v-1h-1z"/><path fill="#fff" d="M841 546q1 8-1 14h-1l-2 3-3 7v3l1 6-1 5-2 4 2 10 1 8h-1v-2l-1-5-2-10 2-6 1-4-1-5v-4l4-8 2-2q2-6 1-14zm-14-25-4 3-4 9v1h-1v-1q1-6 5-10z"/><path fill="#c75b00" d="M824 453s2 7 9-1c-5-7-9 1-9 1"/><path d="m824 453 3-3q4-1 6 3h1l-1 1q-4 6-8 4zm0 0 2 2q2 2 6-3-3-3-5-2zm5-1-1-1z"/><path fill="#fff" d="M767 439s13 18 22 18c1 6-4 11-6 14-5-2-9 1-19-16z"/><path d="m767 438 8 10q8 8 14 8v1q1 5-5 14h-1v1h-1l-2-1-6-3q-4-3-10-12v-1l2-15zm0 2-2 15q5 9 9 12l6 3h2l1-1q6-7 5-11-5 0-14-9z"/><path fill="#fff" d="M785 393q3-12 8-15c-1-5 6-29 26-41 1 12-8 25-8 25s29-10 36-22c-1 5-7 35-39 39 12 15-4 28-11 25 12-14-3-20-12-11"/><path d="M784 392q1-5 4-9l4-5 1-7 5-12q8-15 21-23h1q0 9-4 19l-4 6 14-6q17-9 20-15h1q-1 11-8 20-10 17-30 19 4 6 4 10a17 17 0 0 1-9 15q-4 2-7 1l-1-1h1q4-5 4-9 1-2-2-5l-7-1-7 4-1 1zm2-1 6-3q4-1 7 1 4 2 3 6 0 5-4 9l5-1q5-2 6-5l3-9-4-10-1-1h1q19-2 31-19 5-8 7-17-6 7-20 14l-15 7-2 1 1-2 5-8q4-9 4-16-13 7-20 22l-5 11-1 7v1l-4 4q-3 4-3 8"/><path fill="#cccccd" d="M795 382q7-8 13-6l-3 1 1 4q-2-3-11 1"/><path fill="#ccc" d="m795 381 7-5h6v1l-3 1 2 2-1 1h-1q-4-1-10 1zm3-1 7-1-1-2h1-3zm7-2"/><path d="m792 378 19-16v1l-18 16z"/><path fill="#00f" d="M782 471c1 0 16 5 19-28-4-14-9-42-1-52-8-6-14 1-15 1 0 2-6 14 2 35-20-5-12 18-12 19 1-4 11-9 14 12q0 5-5 11z"/><path d="M782 472v-1h1q6-8 6-12-2-13-8-15l-4 1-1 2-1 2v-2l-2-12q0-6 3-7 4-3 10-1-7-19-1-34 2-3 5-3 6-2 10 1l1 1h-1q-5 6-3 24 1 15 4 28-1 21-10 27-4 3-9 2m1-2q4 1 8-1 7-6 9-25-4-15-4-28-2-18 3-25-4-3-9-1l-4 3h-1q-5 15 2 33l1 2-1-1q-7-2-10 1-3 2-3 6l1 10 6-2q7 1 9 16 0 5-7 12m0 0"/><path fill="#00f" d="M801 444c0-1 17-15 17-45-15 3-20 28-20 29z"/><path d="m801 445-4-17 5-14q6-13 16-15 1 19-8 34-5 8-9 11zm0-2 8-11q9-14 8-32-9 2-14 15l-5 13z"/><path fill="#fff" d="M723 445s-12 14-20 9c-6 4-12-3-12-4 0 1 7 38 34 12z"/><path d="m723 444 3 18-1 1q-16 16-27 4-6-7-7-16l-1-3 1 2 4 3q4 3 8 1 4 3 12-3zm0 2-7 6q-9 6-13 3-4 3-8 0l-3-3q1 9 6 14 10 11 27-4z"/><path fill="#00f" d="M703 454c1-8 5-12 9-4 5 0 9-25-8-22 5-35-9-48-9-48s-5 38-3 46c2 7-3-13-22-21 0 30 20 45 21 45 0 0 5 7 12 4"/><path d="M703 454q-4 3-9 0l-4-4q-5-3-10-11-10-15-10-34v-1 1q14 5 21 18-1-10 3-43v-2l1 1q4 4 7 12 6 15 3 37 5-1 9 2 3 3 3 8l-1 9-4 4v-1h-1q-2-4-4-3-3 1-4 7m-1-1 4-8q3-2 6 4l3-3 1-8q0-4-3-7t-9-2v-1q3-21-3-37l-6-10-2 19-1 25 1 1v2h-1v-1q-7-15-21-21a56 56 0 0 0 20 43l4 4q4 2 7 0m3-24q-3 2-4 6-3 7-2 15h-1a29 29 0 0 1 6-22zm-12-2-1 5q0 9 3 16l-1 1a60 60 0 0 1-2-23zm-3 24q1-3 4-3 4-2 9 6l-1 1q-5-7-8-6l-3 3z"/><path fill="#fff" d="M692 394s-11-1-5 17c-5 1-17-9-9-24-27-3-38-22-38-38 8 12 27 9 34 16-8-11-7-25-7-25s23 11 28 39z"/><path d="M692 395h-1l-3 1q-4 4 0 14v1h-6l-5-6q-5-8 0-17-18-3-29-14-9-12-9-25v-2l1 1q3 4 9 7l11 4q8 1 11 4a40 40 0 0 1-4-23v-1l13 9q12 13 15 31v1l-1 11-1 2v2zm0-2 1-3 1-11a53 53 0 0 0-26-38v7q1 10 6 17v1l-14-6-11-3q-6-3-9-7 2 13 9 23 11 12 29 14h1v1q-6 9-1 17l5 4 4 1q-4-10 0-15zm-18-29 10 8q9 5 12 9l-1 1q-2-4-11-9l-11-8z"/><path fill="#cccccd" d="M679 384s9-1 12 3q-4-1-10 1l2-3z"/><path fill="#ccc" d="M679 383h5l8 4v1h-3q-4-1-8 1v-1l1-2v-1h-1l-2-1zm3 1 1 1v1l-1 1h8q-1-2-6-3z"/><path fill="#923f00" d="M727 283s5-6 11-1c-3 11-12 7-12 7l-1 8 4 8s9-3 11 3h7l10-3c3 0 10 2 12 5 0 2 3 15 5 15 1 1-4 4-6 0-2-3-1 5-1 5l5 9c1 2-3 16 0 25l-3 4q-1 7-4 6l-1-6-2 2 1-4 4-16c0-4-3-10-6-10-3 1-5 11-5 12l-1 10-2-3-2 7-3 3-1-8c1-2 7-11 7-16v-5s-4-4-4-7c-1-2-4 3-11 1l-2 16 1 14c1 2-3 4-3 5l-3 5-1-3-2 2 1-4q2-6 3-20v-15s-5 0-5 8-2 8-1 10l1 11-2 3-1 1s-5 3-5 5l-1-5v-6q1 1 4-10l-1-10 1-9-5 2 3-8c-1-2-3 3-6 0l3-8c0-3-2 2-4 0l2-5h-2l1-8-1-6-4-6v-3c-1 0-5 5-12-6 6-6 12-2 12-1 0-1 1-6 9-6q9 4 8 6"/><path d="m727 282 3-2q4-2 8 2v1q-1 7-7 7h-5v6l3 8 5-1q4 0 7 4h6l10-3 7 2 5 3 1 4 4 12h1l-1 1-2 1q-3 2-5-1v-1 5l6 9v5q-3 14 0 20v1h-1l-2 2v1q0 5-5 7l-1-6-3 3 1-6 4-16q1-3-2-6l-3-4q-2 1-5 12l-1 9v1q1 0 0 0v1-1h-1v-1l-1-1-2 7q0 2-3 2h-1v-8l2-4 5-12-1-5-4-7-1 1q-5 2-8 1l-2 15v13l1 3-2 1-2 2-3 7-1-1v-3l-2 2-1 1 1-6 1-7q3-8 2-13l1-14h-2q-3 2-3 7l-1 8v2l1 3v8q0 2-2 3v1h-1l-5 4v2h-1v-12q3-3 3-10l-1-10 1-3v-5l-1 1-3 1v-2l1-2 1-5-1 1q-2 2-5-1v-1l2-4 2-3h-1l-3 1-1-1 2-5h-1l-1-1 1-2 1-5-2-6v-1l-3-4-1-3-3 1q-4-1-8-8v-1q4-3 8-3l4 2 1-3q2-2 8-2 4 0 7 3zm-1 1-1-2q-2-3-6-3l-7 2-2 3v1-1l-4-1q-4-1-7 2 4 6 7 6h3l1-1v1l1 3 2 4 1 2 2 6-2 5v2h3l-1 1-2 5 3-1 1-1 1 1v1l-2 4-2 3h6v2l-2 6 1-1h3v7l-1 2 1 2v8l-2 8-1 3v8l5-4v-1l2-2v-8l-1-3v-2l1-8q0-5 3-8l3-1h1v1l-1 15q1 5-2 14l-1 6v2l1-1v1l1 1v1l3-5 2-2 1-1v-1l-1-15 2-15h1l7-1 2-1h1v1l4 6v1l1 4q0 5-6 14l-1 3v7l2-2 3-7v-2 1l1 2 1-8q2-13 6-13 2 0 4 4 3 4 2 7l-4 16v3l2-2 1 6q3-1 3-5v-2l2-2q-2-7 1-20v-4l-6-9v-5l1-2h1v1q1 2 4 1h1l-4-12-1-4-5-3-6-1-10 2h-7q-1-3-6-3l-5 1h-1v-1l-3-8v-9h1l5 1q5-1 6-6-3-3-7-2l-3 2v1zm4 88"/><path fill="#00f" d="M766 392c1 0 12 0 13 10 0 9-4 7-4 7l-10-1z"/><path d="m766 391 7 2q6 2 7 8 0 7-2 8l-3 1-5-1-5-1zm0 2v14l4 1h7l2-6q0-5-7-8z"/><path fill="#fffeff" d="M753 390c1 0 16-1 16 9-2 10-5 8-5 8l-8-1z"/><path d="m753 389 8 1q8 2 8 9 0 6-3 8l-3 1-8-1zm1 1 2 15 8 1h2q2-1 2-7 0-5-7-8z"/><path fill="#00f" d="m744 389 9 1c1 0 6 1 6 8-1 8-6 8-6 8l-9-1z"/><path d="m744 388 10 1 3 2q2 2 2 7 0 6-3 7l-3 2-10-1zm1 2-1 15h9l3-1 2-6q1-5-2-6l-3-2z"/><path fill="#fff" d="M722 392c-1 0-13 1-13 10s3 7 4 7l9-1z"/><path d="m722 392 1 17h-5l-5 1h-3l-2-8q0-6 7-9zm-1 1-6 1q-6 3-6 8 0 6 2 6l2 1 5-1 4-1z"/><path fill="#00f" d="M735 390c-1 0-16 0-16 9 2 10 5 8 5 8l8-1z"/><path d="m735 389-2 18-9 1-2-1q-3-1-3-8 0-6 7-9zm-1 2-7 1q-7 1-7 7t2 7h10z"/><path fill="#fff" d="m744 389-10 1s-5 1-5 8c1 8 5 8 6 8l9-1z"/><path d="M744 388v18l-9 1-3-1-4-8q0-4 3-7l3-2zm-1 2-9 1-2 1q-3 2-3 6 1 5 3 6l3 1h8z"/><path fill="#5e0043" d="M769 495s7-13 10-12c2 1 0 11-1 12z"/><path d="M769 495q6-15 10-13 2 1 1 7 0 6-2 7h-10zm1 0h8l1-6v-6h-1l-5 6z"/><path fill="#5e0043" d="M723 498c-3-4-5-15-9-12-2 2 0 11 1 13z"/><path d="M724 499h-9q-2-1-2-7l1-7q3-1 4 2l3 7 2 4zm-2-1-2-4-3-6-2-2-1 6 1 6zm5-27q13 11 18 11 3 1 17-15l1 2q-13 15-18 14-5 1-18-11z"/><path fill="#5e0043" d="m728 428 3-5 13 9 12-8 3 4-14 14z"/><path d="m728 427 3-4 13 9 13-9 3 5-15 15zm1 1 16 13 13-13-2-3-12 8-13-9z"/><path fill="#474747" d="M718 427c1 2 9 16 11 27s-1-15-1-15 10 6 11 11c0 4 4 0 5-1l-30-27zm0 1-4-5v-1h1l29 26v1l-3 3h-2l-1-2q0-4-9-10l1 11-1 7v-1l-1-3q-1-10-10-26m1 0q7 12 9 21v-11q11 8 11 12l1 1h1l2-2zm49-2s-10 20-9 41c-2-10 0-27 0-27l-3 2c0 1-2 14-5 17l-1-3-4 7 3 33-3 2-2-36 3-4q3-2 5-14l-4 3-2 11q-3 2-2 3v-12zm1 1a82 82 0 0 0-10 40h-1v-25l-1 1q-3 13-6 16h-1v-1l-3 5 2 33-3 3h-1v-1l-1-36v-1l-1-12h1l24-23q0-1 0 0h1zm-24 35 1 35 2-1-2-14v-20l4-6h1v2l5-16 2-2 1-1v1l-1 19a85 85 0 0 1 8-30l-18 17 3-2h1q0 7-4 14zm3-15-4 3 1 8 1-1zm-1 10q3-5 4-11l-2 2zm-2 3 1-2z"/><path d="m744 449 3 58h-1zm-26 27 3 3 4 12q10 0 16 3l5 4 7-4q7-4 11-4l8-14 1 1-8 14v1h-1q-3-1-11 3l-7 4h-1l-4-4q-7-3-16-2h-1v-1l-4-12z"/><path fill="#b4b6b9" d="m711 420 33 29 29-28c1 0 6-4 6-8q-2-4-4-1l-26 26-5 4-31-28q-1-1-3 1z"/><path d="m711 420-1-1v-4l2-2 1 1 31 27 31-30 2-1q2 1 2 3 1 4-5 9l-30 28zm1-1 32 29 29-27q6-5 5-8l-1-1h-1l-1 1-30 30-32-28h-1l-1 1z"/><path fill="#474747" d="M770 412c-1 0-8-4-9-1 0 5 1 5 2 8l-1 4-1-3-5-5c-1-2 1-5-2-6q-5 0-6 6c0 4-4 14-4 14l1-22 25 3zm-1 0-4-1-2-1-1 1 1 7v4l-1 2h-1v-4l-3-1-3-4v-2l-1-3q-5 0-5 5l-4 14-1 1v-23l1-1 23 3h2v1l1 1-1 2zm-16-4-8-1v19l3-11q0-4 2-5zm9 1-8-1q3 1 2 5v2l3 2 3 3v2-3l-1-8zm8 2-1-1h-1zm-30-4-11 2c-1 2 3 4 3 6q-1 5-3 6l-11-9-2-2zm0 1-11 2 2 2 1 4v1q-2 6-3 4-3 0-7-4-4-2-4-5l-2-1v-1l24-4h1v1zm-11 1-11 2 1 1 4 4 6 4 2-3v-2l-1-2-1-2z"/><path d="M744 404v28h-1zm-15-32-10 21v-1l9-20z"/><path fill="url(#d)" d="m745 372 4 9 3 9z"/><path d="m746 371 3 10 4 8-1 1-4-8v-1l-3-9zm15-1-8 18h-1q-1-1 8-18zm-44-79-3 1-2-3h3zm3 0 2 1q2-1 2-3l-2-1z"/><path fill="#ff7000" d="m821 630-3 1-10 2-1 2 1-1 3 3v1l1-1 16-2z"/><path d="m821 629 7 6v1l-16 2-1 1v-2l-3-2-1 1h-1v-1l2-3h2l7-1 1-1zm0 2-3 1h-1l-1 1-7 1 2 2h1v1l14-2zm-3 1"/><path fill="#ff7000" d="m826 636-12 2-4 5 3 1v3l2-1s10 1 20-3q7-6 3-8c-4-1-11 1-12 1"/><path d="M826 635h11l2 1v2q0 3-4 5-10 4-21 4l-2 1v-1l-1-2h-1l-1-1v-1l4-6zm0 1-12 2-3 5h2v1l1 2h1q11 0 20-4l4-4v-1l-1-1z"/><path fill="url(#e)" d="m783 675 23-3-4-4q30-4 61-13l-2-6q-34 9-69 13l8 5-18 2v3h-4z"/><path d="m783 676-6-4 1-1h4l-1-3 17-2-6-3v-2q34-4 70-13l2 8q-30 8-61 12l4 5zm18-9 62-12-2-5-67 13zm-18 8 22-3-4-5h-1l-17 3v2h-3z"/><path fill="url(#f)" d="M809 501q-4-3-19 7v28c1 0 13-10 20-9z"/><path d="m809 501 1 17v10q-5-2-12 4l-7 5h-1v-29l12-8zm-1 1h-6q-6 2-11 6v27l7-5q7-4 11-4v-8zm-125 86-54 68v-1zm24 2-44 76v-1zm-2-21-58 93-1-1zm-61 90 6-8 1 1-6 8zm72-41-22 42-1-1zm-23 47v16h-1v-16zm33-32-23 41-1-1zm-5 37 10-22 1 1-10 22zm5-25-12 18-1-1zm-4-17-8 13v-1l8-13zm-10-20-24 51h-1q0-4 24-52zm-3-6-20 36-1-1 21-36zm-22 48-3 6-1-1 4-6zm-8 15-6 9 5-10z"/><path fill="#8a9396" d="M680 475v11l10 28 2 5s7-11 10-12c2 1 1 31 1 31q-1 3-7 5c-2 0 6 12 6 23s-11 62-16 64c-4 0 2-9 2-13 0-3-1-1-2-4l1-11-3-5 1-6-3-4 1-5c-1-4-1 2-4 3-2 0-4 7-4 8-1 0-5 8-11 4q3 14 0 13c-1 1 0 7-2 8-3 1 2 14-1 16q3 5 0 5s-7 0-6 15c-24-14-36-35-36-55q0-33 17-44c3-16 9-34 9-34v-12l4-9-1-18 3-11c0-4-1-19 1-22l9-4q4-4 9-5l6 4s10 1 12 7q-1 9-3 8s2 9-5 16"/><path fill="#2b2b2b" d="M680 476v10l12 32q7-11 10-11l2 5v27h-1q-4 5-7 5l2 4q5 12 5 18a221 221 0 0 1-17 64h-1l-1-3 2-5 2-5-1-1-2-3 1-6v-5l-1-3-2-2 1-3v-3l-1-1-1-3v-5l-3 3-4 8-3 4q-4 3-7 2l1 8q0 4-2 4v2q0 6-2 5l-1 2 1 5v9l1 4-1 2h-1l-3 2q-3 3-2 12v1h-1q-18-11-27-26t-9-31 4-27 13-17l8-33v-12l4-10 1-25 1-3v-5q0-16 2-18l5-3 4-1 2-1q4-4 7-3l6 3 5 1q7 3 7 7 1 4-1 7l-1 1v6q-1 6-6 11m0-1q4-5 5-11v-6q3-1 2-7 0-3-6-5l-5-1h-1v-1l-5-3-7 3-1 1-4 2q-5 0-5 2-2 2-2 17v5l-1 4-1 7v18l-4 9v12l-9 34v1q-8 3-12 16-4 11-4 27 0 15 9 29 9 15 25 25 0-9 3-12l4-3 1-1q0-2-2-2l-1-1 2-1v-8l-1-5 2-3 1-4 1-3 1-3-1-10-1-2 2 2q2 2 6-1l3-4q3-8 5-8l3-3v-2l1 2v6l1 1 1 3v4l-1 2 1 1 2 4v5l-1 6 1 2 2 2-2 6-2 5v1h1q3 0 9-28 7-26 7-35 0-6-5-17l-2-4v-2l1-1q3 0 7-4l-1-30q-3 0-10 11v1-1l-12-33q-3-3 0-11"/><path fill="#cecfcf" d="m670 452-2 4h-3q-1-2 2-4z"/><path fill="#2b2b2b" d="M670 452q1 2-2 5h-2l-2-1 1-2 1-2 3-1zm-1 1-2 1-2 3 3-1z"/><path d="m668 454-1 1-1-1 1-1z"/><path fill="#2b2b2b" d="m685 466 1 10q1 12-1 19h-1q3-7 2-19zm1-8 3 7q3 9 2 16a47 47 0 0 0-5-23m0-2 3 3 2 6-2-5zm2-2 4 6h-1l-4-6z"/><path d="m687 452-6 14q-4 16-4 25h-1q0-9 4-25l6-14z"/><path fill="#2b2b2b" d="m687 452-8 10q-7 15-9 39h-1q2-24 10-40 4-7 8-10z"/><path d="m686 459-6 6-1-2 6-5z"/><path fill="#2b2b2b" d="m664 502 6-23q7-24 17-28v1q-9 3-17 27zm28 18c0-1 8-12 10-12l1 30-7 6c-1 0 6 14 6 20v5l-2-8c-2-6-1-11-12-25-3-8 5 4 7 3 2-2-3-19-3-19m0-1q7-13 10-12 2 1 2 31v1h-1q-4 5-7 5l1 1 1 4 5 15-1 5v1h-1v-1l-1-8-1-4-3-8-9-13v-3l1-1 3 3 4 4q2-1-3-16zm5 29-2-4v-1h1l7-5-1-30-9 12v2q4 16 3 18l-6-4-2-2v1zm5 16-3-12 2 8zm-23-119-4 2-1 3h-3l-3-3 1-1 3 3h1l1-2q1-3 4-3zm-19 13c0 1-4 6-3 8 3 0 5-5 5-5 0 1 0 9 2 9l9-7h2c1 1 5 6 9 5l-4 7s-3 5-8 4q-7-3-6-4-1 1-5-3l-2-4-2 2c-1-2 0-9 3-12m0 1-2 3-1 2 1 1 4-5h1v1l1 8 8-7h3l1 1q6 6 8 4h1v1q-2 7-5 8l-2 2q-3 3-6 2-4-2-6-5-4 1-5-2l-2-3h-1l-1 1-1-1v-6q1-5 4-6zm-3 7v3h1l1-1h1l1 4 5 2 6 5q3 1 5-2l3-2v-1l3-5q-2 0-8-5l-2-1-8 7h-1l-1-1-1-3v-3q-2 5-5 3m30-14-4-2q-6 0-7 3l-2 7 1 2v1q-2 0-2-3l2-8q2-3 8-3l5 1z"/><path d="m689 451-2 2-1-2 1-3q2 0 2 3"/><path fill="#2b2b2b" d="M663 480c0 1 4 8 8 11s-3 3-8-1l-2-10zm0 0a23 23 0 0 0 9 11l1 2-3 1q-3 0-7-3-3-7-2-11v-1zm-1 1q-1 4 2 10l6 2h2-1q-5-3-9-11m32 46s-10-20-13-21c-3-2 2-2 5 2 4 4 0-6 0-7zm0 1a79 79 0 0 0-14-23v-1h1l6 4v-1l-1-2-1-3 1-1 1 3 8 23zm-2-7-4-11h-1l-1-1q-1-3-4-3zm-30 117c4 0 21 15 25 19s12 2 12 2l-6 4c-2 1 6 1 7 1-1 0-22 7-45-11-1-13 5-15 7-15m0 0q3-1 13 7l12 12q4 3 12 2v1l-4 3h5v2l-14 1a54 54 0 0 1-31-13q-1-9 2-13 2-2 5-2m0 1-5 2q-2 5-1 12a53 53 0 0 0 39 11h-3v-2h1l3-1q-6 0-9-3l-13-11q-10-8-12-8m25-107-4-4-6-11c-3-2-13-11-17-11q-5 0-6-2-2-1-2 3l-2 12 8 16 1 7 6 7q2 1 2 4l-5 10-6 6q0 5 6 9c5 2 17 2 18 0l1-10q-2-3-5-4l-3 2-2 1c0-2 4-8 5-8q3 0 8 7 0 6 5 7 6 0 8-13-2-14-5-16l-5-6zm0-1 1 6 5 5 3 6 2 11-4 10-5 4-4-2-1-4v-2q-1-3-7-6h-2l-4 7h1l1-1 1-1 2-2 3 2 2 2v6l-1 6-8 1-10-1-5-5-1-5q0-3 6-6l5-10q0-2-2-3l-7-8v-7l-4-7-4-9q-1-2 1-7l1-5 1-3h1l6 1 9 5 8 7 4 7 2 4zm-1 1-4-3-2-4-3-7-8-7-9-4-6-2h-1v2l-1 5-1 7 7 15q2 1 1 7l6 8q3 1 3 4l-6 11q-5 3-5 5l1 4 4 5 10 1 7-1 1-5 1-5-2-2-3-1-2 1-1 1-1 1h-1l-1-1 3-5 2-3h2q7 3 8 6v3l1 3 3 1q3 0 5-3l3-9-2-11-3-5-5-5zm-60 33 14-2c3 1 13 8 16 13 4 5 10 14 14 14l5-2-1 5h-5l-9-7c-3-5-13-18-22-18-9 1-14 11-14 11l1-7-2 3zm0 0 14-3 8 5 9 8 1 2q8 13 12 12l5-1 1 1-2 4h-6q-5-1-8-7l-9-10q-7-7-13-7t-10 5l-3 5-1 3v-8l-1 1-1-1zm-2 6v6l2-4q6-6 11-6 6 0 13 8l10 10q3 6 8 7h4l1-2-4 1q-4 0-13-13l-1-2-8-7-8-5-14 2zm42 10 8 2q6-1 6-3v-2l1-3 3 6-1 1-1-2-1 1c0 1-6 7-10 6q-7-4-6-6zm1 0 7 1 6-2v-2l1-5v1l4 7-2 2h-1v-2 1h-1q-6 7-10 5-3 0-5-3l-1-1-1-1 1-1v-1h1zm-1 1 2 1 4 3q3 1 10-5-3 2-7 2zm15-1 2-3-2-2zm2-3v3l1-1zm-33 14-6 1-3 2-2-4q1-2 7-1zm0 1h-5l-2 2h-2l-2-1v-3q1-3 7-2l4 2zm-1-2-3-1q-6 0-6 2v1l1 1 2-1 1-1zm15 17s0-8-2-11q-4-5-6-3l5 6c0 3 2 9 1 10 0 1-1-4-4-6q-7-3-8 1c2 2 5 0 7 5l4 10v-4h2v-6zm1 0-1 2v6l-2 1-1 5-1-2-3-10q-1-3-4-3l-3-2v-2l2-1 6 1 4 6-2-7v-2l-3-3-2-2v-2q4 0 7 3l2 8zm-3 3-1-2-4-5-5-1-1 1 2 1q3 1 5 5l3 7v-1l2-1zm2-3-1-4-2-7q-2-3-5-3l1 1 4 5v1l2 8zm-3 25-3-11-5-8q-5-3-7 0l7 7v3l-5-2q-2 3-5 2c-2-1-3-10-3-11l-2-1v-12l-5-5c0-1 0-38 23-5-10-17-13-16-15-16s-10 0-13 15c-2 16-5 6-5 6s0 6 2 9c2 2-1 7-1 7s-4-15-4-21q-2 9 5 32c6 10 12 19 28 30 9-17 8-19 8-19m1-1-8 19h-1a100 100 0 0 1-28-30h-1l-4-20v-13l1 1q-1 6 3 20l1-2v-4q-3-2-2-9v-1l1 1 1 2 1-1 2-7q2-10 6-14l7-2q7 1 16 17l-1 1v-1q-8-10-13-13-4-1-7 3l-2 9-1 6 5 5 1 6v6h2v6l3 6 2-1 2-1 4 1h1v-2l-3-2q-4-3-4-5t3-2l5 1q3 3 4 9zm-1 1-4-10q-1-7-4-8l-4-2-2 1 4 4 3 2v3l-1 2-2-1-3-1-1 1-4 1-3-6-1-5-1-2v-11l-2-2-4-4 4-16q3-4 7-3 3 0 5 3-4-4-7-4t-6 2q-4 3-6 13l-2 7-2 2-1-2 1 6q3 1 1 6l-2 3-1-1-2-9q1 10 4 19l11 15q6 8 17 15z"/><path fill="#8a9396" d="M646 632q2 0 6 5l2 8 3-5 2-2c0-2-5-9-7-10l-7 3q-1 1 1 1"/><path fill="#2b2b2b" d="m646 633-1-1 1-1q4-5 7-3 2 0 5 4l3 6-2 2-1 1-2 4-1 1h-1l-1-9q-2-3-6-4m0-1q5 1 7 5l1 6 2-3 2-2h1l-3-5-4-4q-3-1-7 3z"/><path fill="#8a9396" d="m657 649 8 5a77 77 0 0 0 24 6v1a77 77 0 0 1-32-10z"/><path fill="#2b2b2b" d="m698 576-10 41zm-2 9q-2 9-9 17l-1-1q8-7 9-17z"/><path d="m660 754 2-3 1 1v1l3 4 1-1v-1l-1-2h1l1 3-3 5-1-1 1-1v-1l-3-3h-1zm5-6 4-5 2 1-1 1h-1l-1 1-1 1 1 1h1v-2l2 2-1 1v-1l-1 1 1 2h1v-1l1-1v-1l-1-2h1l1 3-4 5v-2l-3-4zm8-10 2-1 3 1 1 3-1 2-1 2-2 1-3-2v-3zm1 1-1 1 1 3 1 1h2v-2l-2-3zm6-9 3-2v-1l2 2v1l-1-1h-2l1 1 2 4v1-1h1v1l-2 2-1-1h1l-1-1-2-4-1 1v2zm6-4 4-4 2 2v1l-1-1h-1l-1 1h-1l1 2h1v-2l2 3-1 1v-1h-1l1 2h1v-1l1-1v-2l1 4-5 3v-2l-2-4v-1zm6-5 4-3h2l1 1v2l-1 1 2 1v1h1v-1l1 1-2 2-3-2h-1l1 1v1h1v1l-3 2v-2h1l-1-1-1-4-1-1v1zm3 0 1 2 1-1v-2h-1zm5-5 3-2h3v3l-1 1 2 1 1 1v-1l1 2-2 1-3-3h-1l1 2v1h1v-1 2l-3 1v-1h1v-1h-1l-1-5zm2 0 1 2h1l1-1v-2h-1l-1 1zm7-5 2-1 3 6h1l1 1-3 2-1-1 1-1-1-1-2 1v1h1l1 1-3 1zm1 4h2l-2-2zm5-7 2-1 3 5v-5l2-1 1 1h-1v1l1 5h1v1l-3 1v-1h1v-1l-2-5v8l-3-6 1 5h1v1l-3 1v-1h1v-1l-1-5-1-1v1zm12-4 4-1h1l1 1 1 1-1 2-1 2h-1v2h1v1l-3 1-1-1h1v-1l-1-5v-1zm3 1v2h2v-1l-1-1zm4-3h6l1 1v3l-2 1 2 1v1h1v1h-2l-2-3h-1v2l1 1v1h-3v-1h1v-1l-1-5h-1zm3 2v2h1l1-1v-2zm9-3 3 1 1 3-1 2-1 2-2 1-2-1-1-3v-4zm0 1-1 1-1 2 1 3h2l1-3v-2zm5-1 3-1 1 1h1l1 1v1l-1 2-2 1h-1v2h1v1h-3v-1h1v-6zm2 1v2h2v-2zm5-2 4 1h1l1 1v3l-2 1 2 2v1h1v1h-3l-1-4h-1v2h1v2l-4-1 1-1v-1l1-5h-1zm2 2v2h2l1-1h-1v-1zm6-1h3v2h-1v7h-3v-1h1v-1l1-5-1-1zm7 1h1l1 7v1h1v2l-3-1v-3h-2v1l1 1-1 1-2-1v-1h1zm-1 5h1v-3zm6-4 3 1v5l2-4h3v2l-1-1v1l-1 5v1h1l-1 1-3-1 1-1 1-6-2 7h-1l-1-8v7h-3l1-1 1-1zm13 4 3 2h1l1 1v2l-1 2h-2l-1-1-1 2 1 1v1l-3-1v-2 1h1v-1l1-5zm2 3-1 2h2v-2zm5 0 3 2h1l1 1v2l-1 2h-2l1 2v1h1v1l-1 1-1-1-1-5h-1v4l-3-2v-1h1l2-5v-1h-1zm1 3v2h2v-1l-1-1zm9 3 2 2-1 6-2 1-2-1-2-2 1-4 2-2zm0 1h-1l-2 2v3l1 1h1l1-2 1-2zm5 2 3 3v3h-1v-2l-1-1v1l-2 4v1h1l-1 1-3-2 1-1v1h1v-1l2-4v-1h-1l-1 1-1-1zm6 4 4 4v3h-1v-1l-1-2-1-1-1 2h1v1l1-1-1 4-1-1v-2l-1 2v1l1 1h1l1-1 1 1-2 2-5-4 1-1h1l2-4v-1l-1-1zm7 12 3 3-1 1v-1h-1v1l-1 2-1-1v-1h-2l-1-2 1-5 1-1 2-1 2 1v1l1 1v3h-1v-3l-1-1h-1l-1 1v1l-1 1v3h2zm7 2 1 1-2 7v3l-3-3 1-1h1v-1l-1-2-1 1v2l-2-2v-1h1zm-2 4v-3zm6 1 2 4v-1l1 1-1 3h-1v-3l-3 4v1l-1 1-2-3 1-1v1h1l3-4v-1h-2l-1-1z"/></svg>