<svg xmlns="http://www.w3.org/2000/svg" viewBox="0 0 1000 1000"><defs><linearGradient id="a" x1="628.185" x2="629.785" y1="271.548" y2="226.528" gradientTransform="matrix(1.23036 -.07404 0 .72539 8 234.01)" gradientUnits="userSpaceOnUse"><stop offset="0" stop-color="#474747"/><stop offset="1" stop-color="#f50"/></linearGradient><linearGradient id="b" x1="762.133" x2="762.243" y1="359.667" y2="380.517" gradientTransform="matrix(1.00337 -.04664 0 .88946 8 223.477)" gradientUnits="userSpaceOnUse"><stop offset="0" stop-color="#b50000"/><stop offset="1" stop-color="#ffc500"/></linearGradient><linearGradient id="c" x1="1809.394" x2="1857.924" y1="169.031" y2="167.001" gradientTransform="matrix(.45548 -.07465 0 1.95936 8 317.553)" gradientUnits="userSpaceOnUse"><stop offset="0" stop-color="#d5dfff"/><stop offset="1" stop-color="#fff"/></linearGradient><linearGradient id="d" x1="1273.382" x2="1286.522" y1="129.031" y2="129.031" gradientTransform="matrix(.60362 -.03516 0 1.4785 8 232.52)" gradientUnits="userSpaceOnUse"><stop offset="0" stop-color="#474747"/><stop offset="1" stop-color="#f50"/></linearGradient><linearGradient id="e" x1="423.335" x2="383.956" y1="1130.48" y2="1093.78" gradientTransform="matrix(2.08797 -.37202 0 .42743 8 329.536)" gradientUnits="userSpaceOnUse"><stop offset="0" stop-color="#d5dfff"/><stop offset="1" stop-color="#fff"/></linearGradient><linearGradient id="f" x1="1148.702" x2="1139.012" y1="277.136" y2="257.536" gradientTransform="matrix(.72215 -.10623 0 1.2358 8 303.61)" gradientUnits="userSpaceOnUse"><stop offset="0" stop-color="#d5dfff"/><stop offset="1" stop-color="#fff"/></linearGradient></defs><path fill="#012169" d="M8 195.3c170.8-85.3 341-54.5 513.3-28C676.5 191 833.4 211.8 992 132.7v672c-170.8 85.3-341 54.5-513.3 28C323.5 809 166.6 788.1 8 867.2z"/><path fill="#fff" d="M8 195.3v37.5c144.3 26.5 288.3 135.5 437 258.8l55 8.4v-37.6C356.2 342 211.4 219.4 63 171.6a520 520 0 0 0-55 23.7M500 164v37.6c-144.2 76.1-288.7 151.3-437 306a518 518 0 0 0-55 23.6v-37.5c144.3-170.6 288.4-258.3 437-338z"/><path fill="#fff" d="M213 140.9v336q40.3-2.6 82-.9V140a755 755 0 0 0-82 .9M8 307.3v112C170.7 338 332.5 362 500 388V276c-161.8-25-325.3-51.9-492 31.3"/><path fill="#c8102e" d="M8 329.7v67.1c162.7-81.1 324.5-57.1 492-31.2v-67.2c-161.8-25-325.3-51.9-492 31.3M229.4 140v336q24.2-1 49.2-.5v-336q-24.2-.5-49.2.5"/><path fill="#c8102e" d="M8 531.3A1256 1256 0 0 1 172 369q18-2.5 36.7-3.9a1224 1224 0 0 0-164 149.5A526 526 0 0 0 8 531.2m0-336c54.1 10 108.2 31.4 164 61.9a573 573 0 0 0-36.7 6.2c-42-20-84-35-127.3-43zm291.3 57a2389 2389 0 0 1 164-93.8L500 164c-54.1 28.6-108.2 57.1-164 90.6q-18-1.5-36.7-2.4M500 500c-54.1-45.3-108.2-90.7-164-133.4l36.7 3.6L500 475z"/><path fill="#6a4c2d" d="M733.1 664.6c-.1.5-2.8 9-4.3 9.7-1.6-.3-7-4.2-7.2-4.3-.2.3-4.1 8.3-6.2 9.4-2.3.2-7.6-1.6-7.8-1.6s-5-.4-5.7-1.3l.2-3.2c-.3.4-7.5 7.5-9.5 7.5-1.7-1-7.5-10.8-7.6-11l-1 5.2-11-1.3-9.8-9.3-5.6 11.5-9.6 2-.6-2.4-6.2-5.7 4.9-9c-.2-.3-2.3-1.6-2.4-1.6l-3.5 3.6-7.2 5.7-7.2-5.4 3.1-7.6.4-5.8 5.7-11 69-86.6 34.2 86.7z"/><path d="M733.6 664.8c-2 7-3.5 10-4.8 10.2q-1.6 0-7-4.1c-2.8 6-4.8 8.6-6.3 9.2q-2.2.4-8-1.6c-4-.2-5.7-.8-6-1.9l-.1-1.6c-4.9 4.9-7.5 6.7-9 6.5q-1.6-.7-7.1-10.2l-.9 4.4-11.6-1.3-9.4-9-2.5 5.3-2 4-.6 1.2-.3.4-.1.2q-.2.2-.5 0l-.2.1-1.1.2-3.3.7-4.7 1.1-.4.2-.7-2.9-6.5-6 .3-.5 4.6-8.4-.7-.5-.9-.5-3.3 3.4-7.4 5.8-8-5.8 3.3-8.1.4-5.9 5.8-11.3 69.6-87.1 34.5 87.7zm-1-.5 5-25.4-33.6-85.7-68.6 86-5.6 10.8-.4 5.8-2.9 7.1 6.5 4.8 7-5.5 3.6-3.8.3.1q2.6 1.6 2.7 2.3-.1.5-4.7 8.9l6 5.4.5 2a35 35 0 0 1 9.5-1.7q-.3-.3-.6-.1l.1-.3.7-1.2 2-4 2.7-5.8.2-.6 10 9.6 10.6 1.2 1.2-6 .6 1.1c4 7 6.3 10.3 7.3 10.8 1.2.2 3.9-2 9.1-7.4l1.2-1.2-.4 2-.2 2.8c.3.4 1.7.6 5.2.8h.1q5.5 2 7.6 1.6c1.3-.5 3.1-3.2 5.9-9.1l.2-.6.5.4q5.5 4.1 7 4.2c.7-.2 1.9-2.9 3.7-9.3m-75.3 12.2-.1-.1z"/><path fill="#fff" d="m782.2 668.9 18-2.3-7.7-4.5c22.7-3 45.3-7 68.6-12.8l-9.7-3.2-8.6-14.4q-17.5 1-35.5 1c-.2-.2-2.5-2.2-7-.7-.5-3.9-3.4-8.3-3.5-8.4l-21.9-.8-13.6 13.2 9.2 32z"/><path d="m782.2 669.6-12-1-9.6-32.8 14.2-13.7 22.2.8.2.2q3 4.4 3.5 8c3-1 4.8-.6 6.8.9q17.5 0 35.6-1l8.6 14.5 9.6 3.1-.2 1.4q-32.9 8.1-66.5 12.5l5.8 3.5-.2 1.3zm0-1.4 16-2-5.9-3.5.2-1.3q32.6-4 66-12.2l-7.4-2.5-8.5-14.3a582 582 0 0 1-35.5 1l-.1-.1c-1.8-1.5-3.7-1.7-6.6-.7l-.6.3v-.8q-.2-3.4-3.3-7.8l-21.4-.8-13.2 12.8 9 31z"/><path fill="url(#a)" d="m712.2 394.5 1.8-8.3c0-.2 3-7.2 3.2-10.5s2.3-6.9 2.3-7c.5-.2 6.6-2.4 8.8 3.4 8.3-15.5 16.7-1 17-.7l2.5-4 5.2-8.8c0 .1 7 9.2 7.4 10.8.2 1.5 1.2.5 1.3.5l8-1.2c.1.2 3.4 3.8 3 11.6a52 52 0 0 1 5.3 15.3q-32.4.9-65.8-1.1"/><path d="m711.7 394.3 1.8-8.4v-.1q3-7 3.2-10.1 0-3.5 2.5-7.4v-.2h.2a11 11 0 0 1 4-.7q3.7.3 5 3.3c3.6-6.2 7-7.9 11.5-5.6q3 1.9 5.4 5.2l2.1-3.4 5.5-9.3.4.5a46 46 0 0 1 7.6 11.5q.3 0 .5-.3v-.1l8.4-1.2.2.1 1.9 3.1q1.5 4 1.3 8.8c1.8 2 3.6 6.8 5.3 15.5l.1.8q-33 1-67-1.1zm1.2-.4q31.7 2 64.4 1-2.5-12-5-14l-.2-.2v-.4q.5-4.7-1.1-8.3-.7-1.7-1.5-2.6l-7.7 1.1-.6.4q-.5.1-.9-.2t-.4-1.2a52 52 0 0 0-6.9-10l-4.8 8.3-3 4.7-.3-.6a16 16 0 0 0-5.4-5.5c-4.3-2.1-7.4-.3-10.8 6.1l-.5 1.2-.4-1.4q-.9-3.2-4.5-3.5a10 10 0 0 0-3.5.6q-2 3.4-2.1 6.3 0 3.4-3.2 10.7z"/><path fill="#656263" d="M782.2 493.8c1.6-1.3 5.4-3.3 5.2-12-1-8.7-5.7-9.2-9-8.8-3.2.7-5.8 4-6 4.1l-10-8.4c0-.5 5.2-43.2 10.4-46.8 5.1-5.5 6-7.5 6-8.7-.1-1.2-1.8-3.9-1.9-4a739 739 0 0 1-33-4.3 877 877 0 0 1-31.3 4.6c0 .1-2.2 4.8-2.1 7 .3 2 .5 4 6 10.3 6 7 10.4 43.8 10.5 44-.5.4-8.4 5.2-9.3 5-.8-.6-3-1.4-4.6-1.2-1.6.4-5.6 3.1-6 11.5.4 8.3 4.5 13 4.6 13.1.5 0 29.3-3.8 34.4 7 4.9-13.1 32.3-10.1 36.1-12.4"/><path d="M782.5 494.4q-1.2.8-8.3 1.4a103 103 0 0 0-16.5 2.2c-6.3 1.8-9.7 4.3-11.2 8.4l-.4 1.3-.5-1.2c-2-4.5-7.7-6.6-18.4-7.2a99 99 0 0 0-15.4.6h-.2l-.2-.1q-1.1-1.4-2.3-3.7a24 24 0 0 1-2.4-10c0-4 .9-6.7 2.6-9.3q1.8-2.5 3.7-2.9 1.2-.2 2.8.3 1.7.5 2.2 1.2c.3 0 2.8-1.3 8.4-5q-1.1-9-2.8-19-3.8-20-7.4-24a23 23 0 0 1-6.2-10.5v-.3q-.3-2.3 2.2-7.5v-.3q15.7-2 31.7-4.7 16.4 2.6 33.3 4.5l.1.1q2 3 2 4.4 0 2.8-6.2 9.3l-.1.1c-2 1.4-4.3 9-7 24a425 425 0 0 0-3 21.9l9.4 7.9c2-2.4 3.7-3.6 5.9-4q3.3-.5 5.7 1c2.4 1.8 3.5 4.2 3.9 8.4.2 5.5-1.3 9.2-4.8 12.2zm-.5-1.2.6-.5c3.2-2.7 4.5-5.9 4.3-10.8-.6-6.5-3-8.9-8.5-8.3q-2.9.5-5.5 4l-.3.4-10.8-9v-.4q1.3-11 3.3-22.3c2.6-15.4 5.1-23.4 7.5-25 3.9-4.2 5.5-6.6 5.7-8q0-1-1.6-3.4a758 758 0 0 1-32.8-4.4 880 880 0 0 1-31 4.6q-2.1 4.5-2 6.2l.1.3q.6 3.9 5.8 9.6 4 4.3 7.7 25 1.9 10.2 3 19.6v.5l-.3.2c-6.3 4-9.1 5.4-10 4.8q-.1-.3-1.6-.8-1.5-.3-2.4-.2-1.5.3-3.2 2.5a15 15 0 0 0-2.3 8.3q0 4.9 2.2 9.2 1 2 2 3.2 7.4-.9 15.4-.6c10.2.6 16 2.6 18.7 6.9 2-4 5.4-6.4 11.5-8.2q5.5-1.5 16.7-2.2 6.8-.6 7.8-1.2m32.4-47.6c0-.2.5-4.6 2.8-7.4 3-2.5 18.6-5.6 23-3.1 3.8 3.2 5.5 18.8 5.5 19.2 0 0 2.3 5.4 2.7 9.7.1 4.3.4 7.1.4 7.2.2.1 13 21 13.5 42.2 1.4 14.3 1 52.8-3 68.4-.4 18.4-5.8 31.3-5.8 31.4s1.2 2.8 1.1 6.3c-.2 3.5-1.4 6.8-1.5 6.8l19.4 9.3-7.1-2.1 7.1 6.6-8-3.5 4.7 5.6-11.7-5c1.7 2 3.9 3.6 5 5.9l-8.7-4c1.7 2.1 3 4.7 5.1 6.3-.3-.3-7.5-3-7.6-3.1l.4 3.8c-.5 0-5.4.5-6-5.6-3-1.9-5-4.5-5-4.6l-13.7-1.1-15.6-61.7 3.7-107.7 1-5.6z"/><path d="M814 445.6c.2-3.6 1.2-6 3-8 1.6-1.4 5-2.5 11.2-3.6 6.4-1 10.2-.9 12.3.4q2.6 1.9 4.5 11 .8 4.4 1.2 8.6a29 29 0 0 1 2.7 9.9q.1 4 .4 6.9 3.3 5.3 6.6 13.1a79 79 0 0 1 6.9 29.3q1.2 12.3.6 33.8-.7 24-3.6 34.8a99 99 0 0 1-3 22.7q-1.4 5.4-2.7 8.6 1.2 2.9 1 6.4a25 25 0 0 1-1.2 6.4l18.8 9q.5.2.3.9t-.7.4L868 635l1.3 1.2 3.5 3.3q.4.4.1 1l-.3.3-.4-.1-5.4-2.3 2.8 3.2q.3.3 0 1-.4.5-.8.1l-8.8-3.6.5.6 1.8 2 .5.6.2.2.1.4v.5l-.5.4h-.2l-4.4-2-2-1 .8 1 1.8 2.2.5.6.1.2v-.1l.2.3a1 1 0 0 1-.2 1h-.6l-.2-.2-.1-.2-6.4-2.4.3 2.7q0 .7-.5.8-1.7.2-3.2-.4c-2.2-1-3-2.5-3.3-5.3a18 18 0 0 1-4.7-4.4l-13.6-1.1q-.3 0-.4-.4L811 573.4v-.2l3.6-107.8v-.1l1-5.4-1.7-14.2zm51.2 187.3L853 627l-.3-.4.1-.5q1.2-3.2 1.4-6.5 0-3.2-1-6v-.7q1.3-3.2 2.7-8.7a97 97 0 0 0 3-22.3v-.3q2.7-10.5 3.6-34.4.6-21.5-.7-33.6v-.1a78 78 0 0 0-6.7-28.7q-3.3-7.9-6.6-13.2v-.3q-.4-2.8-.6-7.2a28 28 0 0 0-2.5-9.4l-.1-.2-1.2-8.6q-1.8-8.6-4-10.2c-2-1.2-5.6-1.3-11.8-.3-6 1-9.2 2.1-10.7 3.4a11 11 0 0 0-2.6 6.7l1.7 14.2v.3l-1 5.4L812 573l15.4 61.1 13.4 1.1q.2 0 .3.2 2.1 2.8 4.8 4.5.3.1.3.6 0 3.3 2.7 4.4 1 .5 2.2.5l-.3-3v-.3q.3-.7.7-.5l5 1.9-.4-.5-2.7-3.3q-.1-.4 0-.8.1-.7.6-.5l4.4 2 1.7.8-.3-.4-2.7-3q-.3-.2-.1-.7.1-.7.7-.5l9.1 3.8-2.8-3.2q-.2-.4 0-.8.1-.7.6-.5l4.5 1.9-.5-.4-3.5-3.3q-.3-.3-.2-.8z" opacity=".98"/><path fill="#fb0" d="M804 789.8c-.2-.6-7.9-21.4-11.9-22.2-3.5-10 12.5-85.2 43.5-94.9 16.9 0 1.6 26-9.8 20.6a68 68 0 0 0 7 15.3c-.2.1-22 16-28.8 81.2"/><path d="M803.6 790.1a174 174 0 0 0-4.5-11c-3.3-7.4-5.5-10.6-7-10.8h-.3l-.1-.4c-1-2.7-.8-8.4.8-18q2.6-15 8-30.2 6.3-18.3 14.3-30.2 9.9-14.2 20.7-17.5h.1c4.4 0 6.5 1.1 7.7 4.1.7 2.7.3 5.5-1.6 9.3q-2.9 5-7.1 7.8c-3 1.7-5.4 2-8 1.2q1.7 6 6.6 13.7l.4.7-.6.4a50 50 0 0 0-11.7 16q-12.6 24.1-16.8 64.6l-.2 2.3zm.2-2.6q4.2-39.3 16.7-63 6.1-11.6 11.5-16a51 51 0 0 1-6.7-15l-.3-1.5 1 .6c2.7 1.3 5 1.1 8.3-.7q4-2.5 6.6-7.3 2.3-4.7 1.5-7.8c-1-2.5-2.9-3.4-6.8-3.4-13.4 4.1-24.6 19.2-34.3 46.8q-5.2 15.2-7.8 30a49 49 0 0 0-1 16.7c1.8.6 4.2 4 7.5 11.4q2 4.5 3.8 9.2"/><path fill="#fb0" d="M697.2 795c.2-.6 6.6-25 10.6-26s-10.6-86-42.4-90c-17 1.3-1.7 26.2 9.9 20-1.6 6.7-7 15.9-7 16s22 14.7 28.9 80"/><path d="m697.7 795.2-1-.1q-4.2-40.6-16.9-64.2a46 46 0 0 0-11.8-15.3l-.6-.4.4-.7a60 60 0 0 0 6.7-14.2c-2.7 1-5 .8-8.1-.7q-4.4-2.5-7.1-7.4-2.9-5.2-1.7-9.2c1.2-3 3.4-4.4 7.8-4.7 7.6 1 14.3 5.9 21 15.6q7.9 11.8 14.1 31 5 15.3 7.3 30.3 1 6.2 1.1 10 .2 4.5-1 4.6c-1.6.3-3.5 4-6.4 12.6q-2.2 6.5-3.8 12.8m-.3-3 3.1-10.4c3.1-9 5.3-13 7.3-13.4q.2 0 .1-3.1a93 93 0 0 0-1-9.8q-2.5-15-7.3-30.1a125 125 0 0 0-14-30.6c-6.5-9.4-12.9-14.2-20.2-15-4 .2-5.8 1.3-6.8 3.8-.6 2.3-.2 4.6 1.5 7.8q2.6 4.6 6.6 6.9c3.3 1.6 5.6 1.6 8.4.1l1-.6-.3 1.5q-1.5 6.6-6.8 15.4 5.5 4.1 11.6 15.4 12.5 23.1 16.8 62"/><path fill="#00713d" d="M726.4 633.2c-.4 0-7.5 3-2.9 14.9a11 11 0 0 1 4-7.1c-.3.3-5 8.1.2 16 1-7 3.8-9 4-9-.2.4-3.7 15.2 0 19.2.7-6.5 3.3-9 3.5-9.2-.1.5-3.2 13.7-.4 17.6.6-5.5 3-7.8 3-7.9 0 .7-1.3 14 2.7 16 .3-5.4 3-10.3 3.1-10.4 0 .5-1.3 11.4 5.2 12.6.2-4.6 1.3-9.8 1.3-9.9.2.7 2.8 12 7.4 10.7v-11c0 .7 2.5 11.4 8 9.8-.7-3.6.2-7.5.2-7.6.2.5 2.5 6.9 7.8 4.8a19 19 0 0 0-.2-6.8c.4.6 6.6 9.4 9.5 3.6 1.5-6.4-5.4-7.8-5.9-8l5.5-.2c-.1-.4-1.8-5.7-9.1-7.2 2.7-1.5 5-.7 5-.7 0-.4-1.4-7.1-9-8.2 3.1-1.3 6-.7 6.2-.7 0-.4-1-6.9-9.3-9.1 1.6-2 4.6-1.6 4.8-1.6-.2-.4-3.1-6.2-7-6.3-4 .4-37.6-4.3-37.6-4.3"/><path d="M726.3 632.5h.4l1 .2 3.4.5c20 3 31 3.8 32.9 3.6 2.8-.2 5 1.7 7.5 6.6l.6 1.2-1.1-.1q-2.3-.3-3.6.5 4.5 1.4 7 5.1 1.3 2.3 1.6 4.2l.1 1-.7-.1a9 9 0 0 0-3.3-.2q2.9 1.1 5 4 1.4 2.2 1.8 4.2l.2 1.3-.9-.4q-1.4-.5-2.8-.2 3.4 1 5.5 3.6 1.5 1.8 2 3.5l.2 1h-3l.8.6c2.6 2 3.3 4 2.3 7.2q-1 2.6-2.9 2.5-1.4 0-3.4-1.6-1.4-1.1-2.7-2.6.5 3-.3 5v.2h-.2c-2.5 1.2-4.2.8-6.3-1.4q-.8-1-1.5-2.3-.4 3 0 5.7l.2.6-.5.2c-2.6 1-4.4-.1-6.6-4.2l-1-2.5v7.7l-.4.2c-2.2.9-3.8-.4-5.9-4.8l-1.5-4.2q-.7 4-.9 7.6v.7h-.5c-3.1-.5-4.7-2.4-5.6-7l-.2-4a21 21 0 0 0-2 8v.9l-.6-.2c-2-.7-3-3.3-3.3-9l.1-6a13 13 0 0 0-1.9 6.3v1.2l-.8-.7c-1.5-1.7-1.9-5-1.2-10.7l.8-5.2q-1.5 2.6-1.9 7v1.1l-.7-.5c-1.9-1.8-2.5-5.2-1.8-11.6q.4-3.5 1-6.6-1.8 2.4-2.5 7.5v1.3l-.8-1A14 14 0 0 1 725 646l.5-2.2a10 10 0 0 0-1.5 4.4l-.1 2-.8-1.7c-2.2-5.4-2.3-9.3-.5-12.8q1-1.5 2.3-2.5l1-.6zm.5.4-.8.8.4.2h-.2l-.8.5q-1.1.9-2 2.2c-1.3 2.7-1.4 5.5 0 9.5q.9-3.4 3.8-5.8l.6 1.1q-1.2 2-1.8 5a12 12 0 0 0 1.4 9c.7-4.1 2-6.5 4-8.1l1.1-.8-.4 1.6a69 69 0 0 0-1.4 8.3q-.7 7 .6 9.4a14 14 0 0 1 3.6-8.4l1.3-1.2-.5 2q-.9 3.6-1.4 7.5-.7 5.9.1 8.2.8-4.5 3.2-6.8l1-.8-.2 1.5a61 61 0 0 0-.3 7.5c.2 4.2.8 6.4 1.9 7.4q.4-5 3.2-9.9l1.2-2-.3 2.6q-.3 2.9.1 5.9c.7 3.6 1.9 5.2 4.1 5.8q.3-4.4 1.3-9.3l.5-2 .5 2q.8 3 2 6 2.2 5 4.4 4.3v-10.5q0-.6.5-.5t.5.6v.4l.4 1.3 1.5 3.8c1.7 3.1 3 4.2 5 3.8q-.6-3.3.4-7.3l.4-1.6.5 1.5q.6 1.8 1.9 3.2c1.7 1.9 3 2.2 5 1.4q.6-2.1-.3-6l.8-.8q1.8 2.5 3.8 4 1.7 1.5 3 1.5t1.9-1.7c.7-2.3.2-3.8-1.9-5.4q-1.6-1-3.6-1.5l.1-1.4 4.6-.3-1.3-2q-2.7-3.1-7-3.8l-1.8-.2 1.6-1.1a6 6 0 0 1 4.6-1q-.4-1.2-1.3-2.5a9 9 0 0 0-7-4.1l-.1-1.4a10 10 0 0 1 5.6-.9l-1.2-2.6c-1.9-2.6-4-4-7.5-5l-.9-.1.6-1q1.3-1.8 4.2-1.9-2.9-5.2-6-4.8c-2 .2-13-.6-33-3.6l-3.4-.5-1-.2h-.2.1l.3-.3v-.9z"/><path fill="#3ec26d" d="M760 670.2q3.3 2 3.3 4.3 0 .3-.2.5l-.4.2q-.4 0-.4-.8 0-1.3-2.7-3-.4-.3-.2-1 .3-.5.7-.2m1.8-3.3c2.7 2.7 3.9 4.7 4 6.9q0 .6-.5.7t-.5-.8q0-2.3-3.6-5.6-.4-.4-.1-1l.3-.3zm3.4-2c2.2 2 3.2 4 3.4 7.1l-.1.5q0 .2-.4.3t-.5-.7c-.2-2.6-1-4.3-3-6q-.4-.4-.2-1 .2-.3.4-.3zm5.3 1.9c1 3.3 1.3 5 .9 6l-.3.3q-.3 0-.4-.2-.4-.4 0-1 .1-.5-1.1-4.5v-.6l.2-.4q.4-.2.7.4m3 2.5q.3 3.9-.4 4.5-.4.4-.7-.3-.1-.5.2-.9v-3.1q-.1-.9.4-.8.5-.2.6.6m-38-22.3a10 10 0 0 1 3.5 8.2q0 .4-.2.5 0 .2-.3.1-.5 0-.5-.7c0-2.8-.8-4.8-3-6.9l-.3-.4v-.6q.4-.5.8-.2m-.2 3.9q1.9 2.5 1.5 4.4l-.3.4h-.4q-.5-.2-.3-.9.2-1-1.2-3l-.2-.4.2-.5q.4-.4.7 0m4.5-3.6c1.7 3.4 2.2 5.8 1.7 8.3q-.1.6-.6.4-.3 0-.4-.3v-.5q.7-2.8-1.5-7-.2-.6.1-1t.7.1m4.1 3q1.2 3.3 0 5.2-.3.6-.7 0l-.2-.4.2-.5q.7-1.3-.2-3.6-.1-.6.2-1h.4zm2 1.3.5 1.7q.5 2.2-.6 3-.4.4-.7-.2v-.5q0-.3.2-.4.4-.4.1-1.5l-.4-1.3q-.3-.6.1-1 .3-.2.4-.1zm-1.7 9c2.5 1 3.7 2.3 4.2 5q.1.7-.4.9l-.4-.1-.2-.5q-.5-3-3.5-3.9l-.3-.3v-.5q0-.7.6-.6m1.9-3.1q1 0 2 .8 2 1.6 2.3 5.2v.5l-.4.2q-.5.1-.6-.6c-.3-3.1-1.3-4.4-3.4-4.7q-.5-.1-.5-.8 0-.3.2-.5zm4.6-1.9q.5 0 1.6 3.4t.9 4.8q-.1.7-.6.5-.3 0-.4-.3v-.6q.2-.9-.8-3.8l-.7-2-.3-.7-.2-.6q0-.7.5-.7m5 1q1 5.5.2 7.5 0 .3-.3.4l-.4-.1q-.4-.3-.2-1 .5-1.4-.3-6.5-.1-.6.4-.8h.4zm3 2.2v6.1q0 .7-.5.8-.3 0-.4-.2v-.5l-.1-3.1v-3q-.1-.9.4-.8.3 0 .4.2zm-4.7-9q2.5 1.3 2.4 4.8 0 .7-.6.7-.4-.1-.4-.8 0-2.4-1.8-3.3-.5-.3-.3-1l.3-.4zm2.1-2.7c2.1 1.8 3 3.8 2.8 7q0 .4-.2.5l-.4.2q-.4 0-.4-.8.1-3.7-2.3-5.6l-.3-.4.1-.6q.3-.6.7-.3m3.4-1.7a12 12 0 0 1 1.7 9q-.1.7-.6.5t-.4-.8q.7-4.2-1.4-7.7l-.2-.5.2-.5q.4-.4.7 0m4.4 1.5a24 24 0 0 0-.5 7q0 .3-.4.4t-.6-.5a25 25 0 0 1 .6-7.3q0-.5.6-.5l.3.3zm2.5 3.6q-1.2 1.3-.7 3l.1.4q0 .3-.3.5-.4.3-.6-.3-1-2.5.9-4.7.3-.4.7.1v.5zm-13.8 18.9q.6 4-.2 5 0 .3-.3.2l-.4-.3q-.3-.4 0-1 .3-.3 0-3.7-.1-.7.3-.8h.4zM749 667q1.9 4.4 1.2 6.9 0 .3-.3.4h-.4q-.5-.3-.2-1 .4-1.7-1.1-5.6-.3-.6.1-1h.4zm-3.8-.3q2 3.4 2 6.1 0 .7-.5.7-.3 0-.4-.2v-.5a10 10 0 0 0-1.8-5.2q-.4-.4 0-1 .4-.4.7.1m-3 .6q1.9 2.7 1.8 4.4l-.2.5h-.4q-.6 0-.4-.7 0-1-1.6-3.2l-.2-.5.2-.5q.4-.4.7 0m-1.6 3.7q2 2.8 1.8 3.7 0 .6-.6.5l-.3-.3v-.5q0-.2-1.6-2.4l-.2-.5.2-.5q.4-.4.7 0"/><path fill="#fff" d="m702 498.7 25.4.2c.5 0 16 .2 18.6 7.5 3.7-9.8 17.1-9.7 17.6-9.7q13.1-1 26.2-2.6l.5 86.5c-5.3 34.2-22.8 58.6-42.5 69.1-23.5-10.3-38-37.6-43-68.6z"/><path d="m702 498 13 .2h12.4q4.2 0 8.7 1c5.4 1.3 8.3 3 9.9 5.6 1.8-3.7 4.8-6 9.9-7.6q4-1.2 7.7-1.2a708 708 0 0 0 26.7-2.7l.3 50.8.2 36.5v.1a113 113 0 0 1-16 43.8 74 74 0 0 1-26.9 25.9h-.3a64 64 0 0 1-28.7-26.8q-10.7-18.1-14.6-42.4l-1.4-40.3-1.4-42.9zm.6 1.4 1.3 41.4 1.4 40.2q3.8 23.9 14.4 41.8a63 63 0 0 0 28 26.2 73 73 0 0 0 26.4-25.4q12-18.9 15.7-43l-.2-36.4-.3-49.3q-12.7 1.5-25.7 2.5-3.6 0-7.5 1.1c-5.3 1.7-8.2 4.1-9.7 8.1l-.5 1.7-.4-1.7c-1-3-3.7-4.7-9.6-6q-4.4-1-8.5-1H715z"/><path fill="#006b00" d="m711 498.8 37 134.8L781.3 495c-10.7 1.5-32-.8-35.2 11.9-4.8-11.2-27.3-7.3-35-8.2"/><path d="m710.6 499-.3-1h.8q1.8.3 7.5.3 11-.2 16.3.7c5.7 1 9 3 11 6.4 1.6-4.1 4.8-6.6 10.6-8.3q5.4-1.4 17.3-2l7.5-.7h.8l-34 141.3zm1.2.6L748 631.5l32.6-135.6q-2.2.3-6.8.5-12 .7-17.1 2c-6 1.8-9 4.4-10.2 8.7l-.3 1.7-.6-1.5c-1.6-3.7-4.8-5.8-10.8-7q-5.2-.7-16.2-.6z"/><path fill="#ffc900" d="M736.2 572c1.3 0 1.5-35.7 3.3-37.6l1.4-7.8c-2-3.8-8.3-3.6-11.4-.4l1.7 7c3.5 8.6 3 38.8 5 38.8"/><path fill="#006b00" d="M736.2 572.4q-.5 0-.9-1.2l-.5-3-.7-10q-1.3-20.5-3.1-24.8l-1.8-7.1v-.4c1.7-1.8 3.5-2.5 6.4-2.6q4.3.1 5.6 3.1v.3l-1.5 7.8v.2h-.1c-.5.6-1.1 7.2-1.7 20.8l-.6 11.8-.4 3.7q0 .6-.2 1t-.5.4m0-.8.2-.8.3-3.6.6-11.7q1-19.4 1.9-21.3l1.4-7.5q-1.1-2.5-5-2.6-3.9 0-5.8 2.2l1.6 6.7q2 4.4 3.3 25.2l1.1 12.8z"/><path fill="#cdad56" d="M726.3 282.2s2.5-4 2.7-5c.5-.8 11.5-1.6 18.9-19.4 3.7-9.4 0-4 0-3.9l-.2-4.5c.2-.4 4.3-6 3-9.8-1.8-2.7-1.2 3.7-4 4.3-2.6-1-1.4-7.8-1.3-8.4 0 0-.2-.9-1-1.4-1.1.4-1 2.8-2 3.4-1-.4-2-6.3-2-6.8 0-.2-1.5-3.1-3.3 7 1.1 10.8 5.6 8.7 6 15.8-.4 7.4-4.4 12.3-5.9 12.8-1.2-.5-.8-5.5-.8-6 0-.2-.7-2.7-1.2-3-.2 0 2.3-.5 2.2-8.7-1.2-9-2 1.3-3.8 1.8-1.7-1.2-.6-8.3.2-9.9.4-1-.6-4.9-5 5.3-.4 4.6-.9-.7-1.6-1a12 12 0 0 0 .8 10.7q4.6 6.2 4.7 9.5c-.2 2.2-1.6 5.8-3.8 6.3-1.9-.6 0-5 0-7.2-.3-1.8-3.6-8.2-3.6-8.3l-2.3-5.7c.2-.2-.2-1-1.4 4.7-1.6 5.3-2.6-3.6-2.6-3.8-.1.3-1.4 6.5 1.9 11.2-2.8-.4-3 .8-3 .9.4 1.9 3.3 3 4.2 6.3 0 3.5-3.5 5-3.8 5.2.1.2 1.5 3.2 6.7-3 0 4.2-1.8 6.9-1.9 7 1.8 1 2.8 1 3.2 3.6"/><path d="M726.8 282.6q-.1.3-.4.3-.5 0-.6-.6-.2-1.6-1.8-2.5l-1.2-.7q-.5-.4 0-1 1.5-2.1 1.7-5c-2 2.2-3.3 3-4.7 3.1a2 2 0 0 1-2-1.4q-.2-.7.3-.9 3.8-1.6 3.5-4.4-.4-1.6-2.4-3.5-1.7-1.7-1.8-3 .3-1.7 2.2-1.6-1.4-2.6-1.5-6.4 0-2.4.4-4.2 0-.4.4-.5.5-.2.6.6a30 30 0 0 0 1.3 5v-.1l.3-1.2q.8-3.6 1.3-4.7.4-.7.8-.6.3 0 .3.5v.5l.2.5.8 1.9 1.2 2.7q3.5 6.7 3.7 8.7.1.7-.4 2.8l-.5 2.9.1.6.3.2q1.1 0 2.3-2.1 1-2 1-3.6c0-2-1.4-4.7-4.6-8.9-2-4-2.2-7.4-1-11.5q.2-.3.4-.3.6-.2 1.3 1.5v-.2c2-4.7 3.4-6.8 4.7-7.2q1-.2 1.4 1 .3 1-.3 1.7-.5.9-1 4.7-.2 3.9.5 4 .4.1 1.4-3 .9-2.4 1.4-2.6 1 .1 1.4 4.4c.2 4.5-.4 7.2-1.8 9q.5.8.9 2.6v.3l.1 4.8.2.4q1.1-.2 3-3.5 2.2-4 2.3-8.6 0-2.9-2.1-5.6-3.2-4-3.8-10.2v-.2c.7-4.6 1.5-6.9 2.5-7.8q1-.7 1.7.6l.1.2a48 48 0 0 0 1.4 6.3q.3 0 .5-1.2.5-2 1.5-2.2h.2a3 3 0 0 1 1.4 1.9v.4l-.4 4c0 2.4.3 3.3 1.2 3.5q1 0 2-3 .4-1.5.8-1.9.3-.5 1 0 .2.1.6 1c1.2 2.7.4 5.7-3 10.4l.2 2.7 1-.7q.6-.3.8.5v1.2l-1.8 4.8c-4 9.8-9.6 16-17.8 19l-1 .4q-.5 1.4-2.7 5m-.3-1.8q2-3 2-3.7.1-.6 1.7-1.2c8-3 13.4-9 17.2-18.4q1.1-2.6 1.5-4l-.7 1q-.3.5-.7 0l-.1-.5-.3-4.5q0-.4.2-.6c3-4.2 3.9-6.7 3-8.8l-.3-.5-.4 1.2q-1.1 3.8-3 3.8-2.1-.1-2.1-5 0-2 .4-4-.2-.6-.6-.8-.2.2-.5 1.2-.4 2-1.3 2.2t-2-3.8l-.6-3.4h-.3q-1 .7-2 6.7c.4 3.8 1.5 6.6 3.4 9.2a11 11 0 0 1 2.5 6.6q0 5-2.5 9.4-2.1 3.9-3.7 4-.9.1-1.2-1.2l-.3-2.3v-3q-.4-2.4-.6-2.3h-.2l-.3-.4v-.8l.3-.2c1.4-1.4 2-3.7 1.8-8l-.3-3v.1l-.6 1.5q-1.3 4-2.5 3.8c-1.1-.5-1.5-2-1.2-5.5q.5-4.4 1.2-5.6v-.2q0-.2-.2-.2c-1 .4-2.2 2.2-3.9 6.4q-.2 2.5-.9 2.5-.4-.1-.9-1.6l-.2-.8c-.8 3.2-.5 5.9 1 9q5.1 6.4 5 10-.3 1.9-1.3 4.1-1.4 2.8-3 2.7-.9 0-1.2-.7-.3-.5-.3-1.5l.5-3.2.4-2.3q0-1.6-3.6-8l-1.2-2.8-.7-1.8-.8 3.4q-.6 2.4-1.5 2.2-.7-.2-1.2-2l-.3-.9v.7q0 4.3 2.1 6.7.4.4 0 1 0 .3-.4.2-2.2-.4-2.4.3.1.4 1.4 1.6 2.4 2.4 2.7 4.4c.3 2.5-.6 4-3 5.6h.3q1.9.1 4.8-3.8.4-.4.8 0l.1.5q0 4-1.5 6.8l.4.2q1.5.9 2.1 2.3m-3.2-30.2v.1"/><path fill="#cdad56" d="m710 281.8-2.3-5.5c-.4-.7-10.5.6-16-17.6-3.2-8.7 0-3.6 0-3.5l.2-4.1c-.2-.4-3-5.8-2-9.1 1.6-2.5 1 3.3 2.8 4.1 2.3-.8 1.2-7 1.1-7.6 0 0 .3-.8 1-1.3.8.5 1.6 4.4 2.3 5 .9-.2 2.7-4.7 3.3-6.2.8-.5.8-4.2 2.2 4.8-1.1 9.9-6.4 7.7-6.7 14.2.2 6.7 3.6 11.3 4.9 11.8 1-.3.7-5 .7-5.4 0-.1.6-2.4 1-2.6 0 0-3.1.9-3.1-6.5 1.1-6.2 2.8-.1 4.5.2 1.3-1 0-6.8.3-8.3.3-1.1 2.2-5.4 3.4 4.5.5 4 2.1-3.1 2.8-3.5 1 3.9-.5 8.4-2.2 11.9a17 17 0 0 0-3.6 8.7c.2 2 .7 3.8 2.5 4 1.7-.2.8-2.7.7-4.6.4-1.6 3.1-6.6 3.2-6.7.4-1.4.2-3.7.7-4.8 1-.2 1.3-1.7 2.4 3.3 1.3 5 2.2-3.1 2.2-3.3 0 .3 1.1 6-1.6 10.1 2.3-.2 2.5.9 2.5 1-.1 1.7-1 2.5-1.5 5.5-.2 3.2 1.1 4.8 1.2 5-.1.1-1.3 2.8-5.7-3.2 0 4 1.5 6.4 1.6 6.5-1.5 1-2.4.8-2.7 3.2"/><path d="M709.7 282.1q-1.9-4-2.3-5.4l-.8-.1c-7.4-1.8-12.3-7.4-15.3-17.7l-1.4-4.3v-1q.1-.8.7-.5.4.1.7.7l.2-2.6c-2.4-4.4-3-7.2-2-9.6l.7-.9q.4-.3.8.2.3.4.6 2 .5 2.5 1.1 2.6 1 0 1-3.2 0-1.8-.3-3.7v-.3q.3-1.2 1.2-1.6h.2q.7.1 1.6 2.9.5 2 .8 2 .3.2 2.2-4.3l1-1.9.2-.4.4-.7q.6-.3 1 .7l1 5.7v.2c-.4 3.9-1.7 6.6-4.2 9.2q-2.5 2.2-2.5 4.9 0 4 2 8 1.6 3 2.5 3.2l.1-.3.2-1.7v-3q.2-1.2.5-1.9l-.9-.4c-1.3-1.3-1.9-3.2-1.8-6.6v-.1q.5-3.4 1.6-3.4.7 0 1.9 1.7 1 1.4 1.4 1.4.6-.1 0-4.6V244q.2-2.4 1.8-2.4c1.2.3 2 2.2 2.4 7v.4l.8-1.9q1.1-2.9 1.7-2.6.3 0 .3.4 1.5 4.9-2.3 12.5c-2.5 3.4-3.5 5.8-3.4 8.3q.2 3.4 2 3.5.5 0 .6-.4t-.2-1.9l-.1-1.8q.1-1.8 3.2-7.1l.3-2.1a7 7 0 0 1 .4-2.7q.1-.3.4-.3h.4q.9-.4 1.3.3t1.1 3.6l.3 1.1.3-1 1-3.8h.3q.3 0 .3.3.4 1.7.4 3.9-.1 3.4-1.3 5.7 1.6.2 1.8 1.6v.1q0 1-.6 2.5l-.9 3.2q-.3 2.7 1 4.3.4.3.2.8-.5 1-1.7 1-1.7 0-4-3 .3 2.7 1.5 4.7l.1.4-.1.4-.1.1-1 .5q-1.4.7-1.5 2.2l-.1.4-.4.1zm-7.2-22.6-.6 2a28 28 0 0 1-.1 4.8q-.4 1.3-1 1.1-1.4-.2-3.3-3.8-2-4.2-2-8.7-.1-3.2 2.8-5.9 3.3-3.2 3.8-8.1l-.8-5-.6.6q0 .4-.6 1.4c-1.5 3.7-2.4 5-3.1 4.9q-.7-.2-1.4-2.8l-.8-2.1-.5.7q.3 1.9.3 3.7 0 4.3-1.8 4.4-1.4-.2-2-3.6l-.3-1.2-.2.4c-.8 2-.2 4.4 2 8.4v.4l-.1 4.1q0 .3-.2.5l-.3.1-.3-.2-.5-.8 1.2 3.7c3 9.9 7.5 15.2 14.7 16.9q1.3.2 1.4.9t1.7 4.1q.6-1.2 1.8-1.8l.3-.2q-1.3-2.8-1.3-6.3l.1-.4q.4-.4.7 0 2.5 3.6 4.1 3.7.5 0 .6-.2a7 7 0 0 1-1-5q.3-1.7 1-3.6.5-1 .5-1.8-.1-.7-2-.4l-.4-.2v-.8c1.5-2 2-4 2-7l-.3 1.1q-.6 1.6-1 1.8-1 .1-1.4-2.1-.5-2.6-.8-3.1 0-.1-.4 0l-.5.1-.2 1.9q0 2-.4 2.7-3 5-3 6.5l.1 1.5q.3 1.7.1 2.3-.1 1.4-1.4 1.4-2.7-.1-3-4.7-.1-4 3.7-9.1c2.2-4.4 2.9-7.6 2.4-10.4l-.6 1.5-1 2.5-.5.4q-.4 0-.6-.3l-.4-1.6c-.4-4-.8-5.6-1.5-5.9q-.9 0-1 1.4v.2l.2 2.6c.4 4 .1 5.6-.8 6q-.8.1-2.3-1.8-.9-1.2-1.2-1.3-.3 0-.7 2.4c0 2.9.3 4.4 1.4 5.4q.4.3 1 .4h.4q.3.1.3.4.1.4-.1.7zm12.3-1.4"/><path fill="#ffc900" d="M775.2 518.4c-2.3-2.4-2.4-.4-3.6-.8q-.8-.5-1.4-1.5-.6-.7-1.4-1l-.6 2.4c-.1.8.5 2.1.6 3.4-.3 1.9-.7 3.1-2.4 4 .5-1.3.7-1.4.6-3-.2-.7-1.5-2-1.5-2.8.3-1.3.7-2.6.4-3.8-.7.6-1.5.4-2.2.8-.5.4-.7 1.7-1.4 2.4q-1.6.9-4.1-.7c1-1 1.6-.5 2.5-1.4.4-.5.6-2.4 1-3 .4-.5 1.5-1 2-1.5q-.5-1.1-.8-2.3c-.5-.5-2.2-.5-2.7-1-.7-1.4-.8-3-1.5-4.3 2.1 1.2 1.9 2.3 2.4 2.3q1.6-1 2.5-.6c.5.4 1.6 2 2.1 2.4l.7-2.7c0-.8-.8-2.2-.7-3 .5-1.6 1.4-3.1 1.8-4.7l.5 4.4c.2.7 1 1.2 1.3 1.9 0 .8-.6 2.6-.6 3.4q1.1 0 2.1-.3c.6-.3 1.2-2 1.7-2.4 1.3-.3 2-.3 3.4 0-1 1.2-1.6 1.2-2.3 2.2-.3.6.1 2-1.1 3.2-.6.4-1.7.1-2.3.5l1.3 2c.5.5 2.1.8 2.7 1.4a6 6 0 0 1 1 4.1m-56.8 2c2.3-2.5 2.4-.5 3.6-1q.8-.5 1.4-1.5.6-.7 1.4-1l.6 2.4c.1.8-.5 2.1-.5 3.3.2 2 .6 3.2 2.3 4-.5-1.3-.7-1.4-.6-3 .2-.7 1.5-2 1.5-2.8-.3-1.2-.7-2.5-.4-3.8.7.6 1.5.4 2.2.8.5.4.7 1.7 1.4 2.4q1.6.8 4.1-.9c-1-.9-1.6-.4-2.6-1.3-.3-.5-.5-2.4-.9-3l-2-1.5q.5-1 .8-2.3c.6-.5 2.2-.5 2.7-1 .7-1.4.8-3 1.5-4.3-2.1 1.1-1.9 2.3-2.4 2.3q-1.6-1-2.5-.5c-.5.4-1.6 2-2.1 2.4l-.7-2.7c0-.8.8-2.1.7-3l-1.8-4.7-.5 4.5c-.2.7-1 1.1-1.3 1.9 0 .8.6 2.6.6 3.4l-2.2-.3c-.5-.3-1-2-1.6-2.3-1.2-.3-2-.3-3.4 0 1 1.2 1.6 1.2 2.3 2.2.3.6-.1 2 1.1 3.2.6.3 1.8 0 2.3.5l-1.3 1.9c-.5.5-2.1 1-2.6 1.5a6 6 0 0 0-1 4.2"/><path fill="#ffc900" d="M773.2 527.2c-2.3 2.2-14.5 7.1-15 22.4 0 15.5 2.1 18.6-.2 19.2-4.6-.5-5.3-16.4-5.2-24.5.2-7.5.3-6.4.3-6.4.2.1 2.9 1 3 4.8-.1 3.6 2.7-9 2-12.7 2.3 2.8 4.6 1.7 4.8 1.5 0-.2-1.5-2.5-2.2-4.2-.4-1.7 2.2.8 2.4.9 0-.3.1-2.7-2.6-2.7-3.3 0 .5-1.5.6-1.6.1.2 1.7 2.3 3.3-.3a12 12 0 0 0-3.6-3.1c0-.3-1.9-4.5-4.4-5.7-3-.7-2.5 1.5-5.9 1.4-.6 1.8-.6 2 .7 2.5-2 2.5-1.1 6.2-1 6.4.2 0 3.2-2 3.4 1.3-.3 3.5-2 3-3.5.9-1.2-.8-1.5.8-1.5 1l1.8 2.7c-.2 0-3.2-.1-4.5 3.1 2 0 3 .5 3 .6s-3.8 2.6-4.5 3.9c-.4 1.2-.6-1.4-.6-1.5l-4-2-1.4 8.4c.2.3 2.5 3.3 4.2 2.5 1.6-1.5 3.9-4.3 5.7-3.8-4.7 5-9.4 11.7-11.9 13-.8-1.1-2.6-3.7-3.8-2.5-.9 1.8-.4 3.3 1 3.4.7 0-3.4 1.3-2.9 4.4 1 3 1 2.7 1.9 2 .8-1-.7-1 2.6-2.4 3.5-1.4 3.4-2.6 3.4-2.7 0 .2-.7 2-2.6 2.7-2 .6-3.1.6-2.9 1.4.5.8 1.1 2 1 2.9.2.5 3.3-3.8 4.9-.2 2.9-.7 4.4-4.4 3.3-7.6.3 3 1.3 3.9.7 5.3-.2 1 5.5-4 2.8-8 .8 3 1 5.2 1 5.2.1 0 1.5-.2 2-1 .4-.5-.6 2-.2 2.8.6.8 2.7 3.6 2 6.2-.7-1.6-.8-3.3-1.6-3.3-.8.3-4.2 3.3-6.2 3.7-1.5 1 2.1 9.4 2.4 10-.1 0-2.9-.3-3.4 0-.6 0-2.2-3.2-2.8-1.2-.6 2.8.6 1.7.6 1.7-.1 0-1.5-1-2.6.2-1 1.5-1.8 2.6-1.2 3.3.8.5 3.4.5 4 .4 0-.2-3 .4-3.6 1-.3.7-.7 2.5 0 3.4 1 .7 2.6-.3 2.9-1 .2-.4.3 2.1.3 2.2.2 0 3 .4 3.4-4.5 0-4.8.3 3.5.3 3.5.3 0 3.1.7 3.6-4 .2-5 .4 3.2.4 3.2.1 0 2-1 2.2-1.8 0 0-.1 9.2-1.7 12.7-2.7-2-4 1.3-4.1 1.6l-.1 7c-.1 1.3 1.6-.8 1.8-1.4.3-.5 2.5-2.2 2.7-2.6l.8-2.3c0 .1-.6 2.5-1.5 3.1q-1.7.9-1.4 3c.5 1 1.7 1.9 2.4 3 .7.4 2.2-6.2 2.3-6.8l.2 1.7c.1 0 2.2-.8 2.7-2.3 0-1.7-2.3-2.8-.3-5.5 2.3-2.3 0 2.3 0 2.4s.8 3.3 1.3 3.6c.5-.6 1.6-6.5.5-8.7-1.3-1.7 2 2 2 2 .2-.4 1.6-6.5 0-8l-3-1.4c0-.1 1-1.7.5-2.1-.1.2 2.4 3.8 3.3 3 .6-1.4 1.3-4.3-2.5-6.5-3.5-2.4-.4-7-.1-7.4.2.3 2.1 3.5 4.1 1.7 1.6-2.3 0-2.2-.1-2.2a21 21 0 0 0 5-6.5c-1-.1-2.5.2-2.5.3.2-.2 2.5-2.5 2.1-6.7-1.2 2.1-2.4 2.2-2.5 2.2.1-.1 2.1-3.2 2-6.5-1.4 1.7-1.3 2.7-2.3 2.4-.9-1-2.4-11.7 1.2-13.4 3.6-.2 2 5.5 1.9 6 .5-.3 5.1-3 0-8.2 1.5-.2 4 2.6 4.1 2.8 0-.5-.9-7.8-7.2-3 1.6-2.3 2.4-3.5 3.6-3.3 1.6.3 5-.4 5.5-2.1-1.2-1-3.2.5-4.5.1-.5-.7 7.7-1.7 7.7-8.4"/><path fill="#006b00" d="m773 526.9.2-.1.3.3c.2 3.5-1.8 5.9-6.8 8.1l.7-.2q2-.6 2.8.2v.2q0 1.5-2.4 2.3-2.2.6-3.3.3-.6-.2-2 1.2c2-1 3.2-.7 4.5.8q1 1.6 1.4 3.8v.3q-.3.3-.4 0a9 9 0 0 0-3.1-2.6q1.4 1.4 1.8 2.8.3 1.5-.3 3-1.1 2.3-2.4 2.3-.2 0-.3-.2v-.3l.1-.4q.5-2.2.3-3.4 0-1-.5-1.4-.4-.5-1.4-.2c-1.5.6-2.1 2.3-2.1 6.5q0 5.8 1 6.2.3 0 .7-.6l1.4-1.8q.2 0 .3.3.3 2.8-1.5 6 .8-.5 1.5-2h.2q0-.2.2 0l.1.2q.6 3.6-1.4 6.1h1.6q.3 0 .2.4-.2 2.2-4.6 6.3l.2.2q.3.3.2 1l-.8 1.4q-1.3 1.5-3 0-.8-.5-1.3-1.3-.8 1.2-1.1 2.5t-.2 2.2q.4 1.1 1.5 1.7 2.6 1.3 3.1 3.8a6 6 0 0 1-.4 3.3l-.4.4q1.2 1.8-.4 8v.2l-.2.2-.2-.1-1.1-1.2v3.8q-.6 4-1.3 4.1-.4 0-.8-1v.1q-.3 1.8-2.8 2.7-.4 0-.4-.3l-.6 2.2-1.2 3.1q-.1.3-.4.2l-.3-.3-1-1.4a6 6 0 0 1-1.4-1.7l-.1-1q-.3.7-1.1 1.4l-.8.5q-.3 0-.4-.3v-.7a54 54 0 0 0 .1-7q.5-1 1.2-1.8 1.6-1.5 3.1-.2 1.2-2.6 1.5-11-.6.5-1.8 1l-.1.1q-.3.1-.3-.4v-1.5q-.6 1.8-1.9 2.4a3 3 0 0 1-1.9.3l-.2-.4v-1.1q-.5 1.5-1.6 2-.9.5-1.9.5l-.2-.4-.1-1.2v-.2l-1 .6q-1.4.6-2 0-1.3-1.4 0-4 0-.3.5-.5-.6-.1-.9-.4-.7-.6 0-1.9.1-.6 1.2-2 .7-1 1.7-.8l.2-1q0-.6.4-.9h.7q.4.2 1.3 1.2l.5.5v.2q.5-.4 3 0l-1.6-4.3-1-3.6V568q.3-.7.8-.8 1.2-.1 4.4-2.5l1.7-1.2q.7-.2 1.4 1.9l.2.9q.4-2.2-2.1-5-.4-.5 0-2.1l-1.5.4q-.3 0-.3-.3l-.1-.8-1 1.6q-.7 1.2-1.8 2l-.6.5q-.4 0-.5-.3l.1-.6q.3-.3.1-1.2 0 .6-.4 1.2-1.2 2.8-3.4 3-.2 0-.3-.2-.4-1.5-1.7-1.3-.9.3-2.3 1.4l-.4.3h-.3q-.2 0-.3-.3v-.3q.3-.5-.6-2 0 .3-.4.6l-.2.1q-.6.6-1 .2l-.9-2-.1-.4c-.4-1.2-.2-2 .7-3.2l1.5-1.2q-.4-.3-.7-1.1-.5-1.4.4-2.7.6-1.1 2.1 0 .7.5 1.9 2l.1.2q1.5-.9 6.4-6.6l4.7-5.6q-1.2.3-3.6 2.6l-1.3 1.2c-1.2.8-2.4.1-4.5-2.5v-.4l1.3-8.4q0-.4.4-.2l3.9 1.9q.3 0 .4 1v.5q.8-1.3 4-3.5-.9-.3-2.3-.2h-.1l-.2-.2v-.3q1-3.2 4.2-3.4l-1.4-2-.1-.4q0-.6.4-1 .7-1 1.6-.2 1.1 1.6 2 1.6 1 0 1-2.2 0-.9-.3-1.3-.4-.3-1-.2-.9 0-1.7.6h-.3l-.1-.2c-.7-2.9-.5-4.7.8-6.4q-.7-.4-.8-.8t.4-2q0-.3.3-.3 1.5.2 2.9-.8 1.4-1.1 3-.6c1.8.8 3.1 2.4 4.5 5.7q2.1 1.3 3.6 3.3v.5q-.9 2-2.4 1.3-.7-.3-1.2-.8l-1.4.7h1q1.8-.1 2.5 1.4.3.9.3 1.7v.2l-.3.1h-.2l-2-1.4 1.8 3.2.5 1.1q0 .4-.7.7l-1.2.2q-1.6 0-2.8-1.2a32 32 0 0 1-2.4 12.6q-.3.1-.4-.4v-.6q.2-3.3-2.4-4.3l-.2 6q0 8.3.8 15c1 6.3 2.2 8.8 4.1 9q.7 0 .8-.8l-.2-3.5q-.8-7.5-.7-14.5a23 23 0 0 1 5-14.2q2.6-3.3 8-7 1.8-1.1 2.1-1.5m-18 56.2 1 1.3q.6.7 1.2 1l.4.2q.6-1.3.4-2.7-.4-2.1-2.8-3.3-1.4-.7-1.8-2.1-.3-1.2.1-2.7.5-1.7 1.5-3.2.1-.2.4 0l1.4 1.6q1.4 1.2 2.3 0l.7-1v-.2l-.6-.2q-.3 0-.3-.4l.1-.3q4.4-4 4.9-5.9-.9 0-2.1.3h-.3v-.7a7 7 0 0 0 2.2-5.4q-1 1.6-2.4 1.7-.3 0-.3-.4l.1-.3q2-2.9 2-5.4l-.7 1.1q-.8 1.1-1.4.9c-.8-.5-1.3-2.5-1.4-6.9 0-4.6.8-6.6 2.6-7.3q1.3-.2 1.9.4t.7 1.8q0 1.4-.3 3.7.8-.4 1.5-2 .5-1.1.2-2.2-.4-1.5-2.2-3.2-.3-.2-.1-.5l.1-.1q1.3-.6 3.7 2-.4-1.3-1-2.2c-1.5-1.7-3-1.6-5.5.5q-.3.3-.4 0v-.5q2.6-3.7 4-3.4 1 .3 3-.3 1.8-.5 2-1.2-.5-.3-2.2.1-1.5.5-2.1.2l-.2-.1v-.5q0-.3.3-.4l1-.5c4.5-2 6.3-3.9 6.5-6.7l-1.9 1.4a39 39 0 0 0-8 6.8 22 22 0 0 0-4.7 13.6 138 138 0 0 0 1 18q-.3 1.4-1.3 1.6c-2.4-.2-3.7-3-4.8-9.7a105 105 0 0 1-.3-22h.3c2 1 2.9 2.2 3 4.5q.4-1.1.8-3 1.3-6.6.7-8.8v-.3l.1-.2h.3q1.3 1.7 3 1.8.8 0 1.2-.2h.1l-.3-.5q-1.4-2.2-1.8-3.4v-.7q0-.4.4-.4l1 .4 1 .7-.2-.5q-.6-1.1-2-1-1.4 0-1.6-.3l-.1-.5v-.3l.5-.4 1.6-.8h.3q.4.6 1 .9 1 .4 1.8-.8-1.4-1.9-3.4-2.9l-.1-.2q-1.9-4.5-4.2-5.5-1.4-.3-2.7.5-1.4 1.1-3 1l-.3 1.2 1 .6v.6c-1.3 1.5-1.6 3-1 5.6l1.5-.5q.9-.1 1.4.4.6.5.6 2-.1 2.8-1.6 2.9-1.1 0-2.3-1.8-.5-.4-.9 0l-.2.6 1.7 2.5.1.3v.2l-.3.1q-3 0-4 2.4 1.6 0 2.7.6.3.2.1.6l-.1.1q-4 2.7-4.4 3.7-.1.6-.4.6t-.4-.3l-.3-1.2v-.4l-3.6-1.8-1.3 7.8q2.5 3.2 3.7 2.2.4-.2 1.3-1.2 3.4-3.3 4.7-2.5l.2.2v.3l-.1.1-5.3 6.1a32 32 0 0 1-6.7 6.9l-.2-.1-.3-.3q-1-1.4-1.8-2-1-.7-1.4-.1-.6 1-.3 2 .3.7 1 .7h.2q.2 0 .3.3l-.1.4-.5.3-1.9 1.4q-1 1.1-.5 2.2l.1.4.8 1.8.3-.2.2-.2q.3 0 .2-.3t.2-.5v-.4l.4-.4.9-.2 1-.5q2-.8 2.7-1.4l.5-1.1q0-.2.2-.2t.4.3q0 .7-.6 1.3a4 4 0 0 1-2.2 1.8l-1.5.4-.4.1-.8.5q.9 1.5 1 2.4v-.1q1.5-1.1 2.4-1.4 1.7-.4 2.4 1.4 1.7-.2 2.7-2.6l.6-2-.5-2.5.1-.4q.3-.1.4.1.6 1.3.6 2.7v.3q.5 1.1.3 2l1.8-2q.8-1.2 1.1-2.2-.2-1.5-.8-3.1v-.4q.3-.3.4 0a4 4 0 0 1 1 3.5l.2 1.5q1.2-.2 1.5-.8l.1-.2q.1-.1.4 0v.8q-.6 1.9-.4 2c2.3 2.7 2.9 4.6 2 6.7q0 .4-.3.2v-.1l-.7-1.7q-.4-1.4-.7-1.5l-1.6 1.1a13 13 0 0 1-4.5 2.7q-.2 0-.3.2v1l1 3.4q.8 2.4 1.9 4.9l-.1.5h-.2q-3-.4-3.3-.2t-1.2-.7q-.7-1-1-1h-.3l-.2.3-.1 1 .7.3v.2l.1.3-.1.2q-.4.4-.8.3t-.5-.7q-.9-.2-1.3.5l-1.2 2q-.3.6 0 .8t1.9.4h.7l.8-.1h.6v.7h-.1l-1.3.2h-.3l-1.9.6q-.9 2.1 0 3 .4.4 1.4 0t1-.7l.1-.3q.3-.3.4 0l.2.4v.8l.1 1q.8 0 1.4-.5 1.5-.9 1.6-3.7v-1.8h.5v.2l.1 1.5.2 3.3q.6 0 1.4-.3 1.5-.8 1.6-3.5v-1.3l.1-.3.1-.2q.3-.3.4 0t.2 1.6l.1 3q1.7-.7 1.8-1.2v-.3l.2-.2.3.1v.4q-.3 10-1.7 12.8-.3.3-.4.1-1.4-1.4-2.7 0-.6.5-1 1.3l-.1 7 .3-.3 1-1.2q0-.6 1.7-1.8l1-.8.3-1.2.4-1.2.2-.2h.2q.3.2.2.5-.7 2.9-1.7 3.4-.6.3-1 1-.4.8-.3 1.4l1.1 1.4 1.2 1.4.2-.4.8-2.3 1-3.8.1-.3h.2q.3 0 .2.3l.1 1.3q2-.6 2.2-2 0-.3-.5-1.3-1.3-2.4.3-4.3 1-1 1.3-.7t0 1.4l-.8 2q.7 3.2 1 3.2.3.1.7-3.4.4-3.6-.3-4.6l-.4-.5v-.4q0-.3.3-.2h.2q0 .2.7.9l1.2 1.3c1-4.4 1-6.4 0-7.1l-3-1.3-.2-.2v-.4l.7-1.4-.2-.2v-.4q0-.4.4-.3t.4.7m-1.8 15.5-.3-1.1v-.3l.9-2.1v-.3l-.4.5q-1.3 1.4-.2 3.3m2.8-13.2-.4-.4-.8-1-.1.1-.3.6zm-12.3-48.1h.2zm-12.8-4.8q1.5-1 3.1-1.4 3.5-.7 5.3 2.5v.6q-.3.1-.4 0c-1.2-2.1-2.5-2.7-4.8-2.3q-1.5.4-2.9 1.3h-.2l-.2-.2q0-.3.2-.5"/><path fill="#006b00" d="M741.1 542.1v.1l-.5.6q-1.4 1.9-1.8 1.8-.2.1-.2-.4 0-.3.2-.4l1.5-1.6.8-.9q.3 0 .3.4t-.3.4m3.6 7.4q1.2 0 2.8-.7 3.1-1.5 5-5.9.3-.3.5 0l.1.2v.3q-2.2 4.5-5.5 6.2a6 6 0 0 1-3 .6h-.1v-.4q0-.3.2-.3"/><path fill="#006b00" d="M750.3 547.6q.3 3.5 1 3.5.2 0 .3.2v.6l-.1.1-.7.3-1 .1.5 2.5q0 2.3-1 3.2-.4.1-.5-.2v-.3l.2-.2q.8-.7.7-2.4 0-1.6-.8-3l.3-.6q.5.4 1.4.1a11 11 0 0 1-.8-4q0-.3.2-.2t.3.3"/><path fill="#e80000" d="M747.5 596.6c-.1.1-1.7 2.5-3.9 3z"/><path fill="#006b00" d="M747.7 596.8q-1.9 2.9-4 3.1-.3.1-.3-.4 0-.3.2-.4 2-.2 3.7-2.8l.2-.1h.2zm1.5-12.6q-1-7.8-.4-9.9.3-1.4 1.7-3.5a21 21 0 0 0 2-3.6h.2q.3.2 0 .6-.5 1.5-1.8 3.5a10 10 0 0 0-1.5 3.2v.1a33 33 0 0 0 .3 9.8l-.2.1q-.2 0-.3-.3"/><path fill="#006b00" d="M749.2 578.7q-.4 1.2-1.5 2.3c-1.6 1.3-3.3 1.7-6 1h-.2v-.4q0-.4.3-.3 3.6 1 5.6-1 1-.9 1.3-2 0-.3.4-.2l.1.2zm1.6-11.9a7 7 0 0 1-.5 3c-1 2-2.3 2.3-4.7 1.4l-.2-.2v-.3q0-.4.3-.3c2.2.9 3.3.6 4.2-1q.4-1 .4-2.5v-.3l.2-.1q.3 0 .3.3m-6.6-27.5-.9 1.7a8 8 0 0 0-.3 4.3q0 .4-.2.5h-.2l-.2-.3a9 9 0 0 1 1.5-6.8l.2-.1.1.1zm7.8-7.2s2.7-1.6 3.3-2.4 1.5-2.3 1.8-3.5c0-1.2-1.6-2.8-.8-5.4.7-1.2 1.5-1.4 3.2-.1 1.7 1-1.6-3.8-3-4.4-1.7 0-2.7 1.4-3.1 1.2s0 1.4-.6 1.6 1.2 1.4 1.2 2.5c0 1 2 4.2 2 5-.3 1-3.3 5-4 5.5"/><path fill="#ffc900" d="M754 519.3c1.3-.4 1.4 0 1.2 1.5q-.7-.5-1.2-1.5"/><path fill="#ffc900" d="M754 518.9q1-.3 1.3.1.4.6.2 1.9l-.1.3h-.3q-.7-.5-1.3-1.7v-.5zm.5.6.5.7v-.6z"/><path fill="#e80000" d="M745.5 605.8c0 .3-.3 3.7.7 4.4q0-2.4.5-3z"/><path fill="#006b00" d="M745.2 605.8v-.1q.1-.4.4-.3l.4.5.8.9q.3.3 0 .6-.4.8-.4 2.8 0 .4-.3.4-1.3-.4-.9-4.9m.5.9q-.1 2.2.2 2.9 0-1.5.4-2.3z"/><path fill="#e80000" d="M743 600.8c-1.1 0-2.5 1-2.2 2.5 1-1 1.5 0 2.2-1z"/><path fill="#006b00" d="M743 600.4q.3 0 .3.3.1 1.4-.1 1.9-.4.6-1.2.6t-1 .4q-.3.3-.4-.1-.5-1.4.6-2.4 1-.9 1.9-.7m-.3.8q-.6 0-1.3.6-.4.4-.5.9.4-.3 1-.3t.8-.3z"/><path fill="#e80000" d="M743 598c0-.1-1.4-.4-1.8 1.2 1.1-.3 1.4-.4 1.8 0z"/><path fill="#006b00" d="M743 597.5h.1q.3.2.2.5v1.3q-.3.4-.4.2-.3-.3-1 0h-.7q-.3 0-.3-.4.3-2 2.2-1.6m-.3.8q-.9-.1-1.1.4h1z"/><path fill="#e80000" d="M736.3 575s.9.6 1.2 2c.7-.8 1.3-3.5-1.2-2"/><path fill="#006b00" d="m736.2 575.4-.1-.2v-.5q1-.6 1.5-.6.6.1.7 1 .3 1.4-.6 2.2h-.1q-.3.1-.3-.2-.3-1.1-1.1-1.7m.7-.3q.5.5.8 1.2.2-.4.1-1 0-.4-.2-.4t-.7.2"/><path fill="#e80000" d="M734 578.5c.1-.1 1.7-1.6 2.1-.1q-.5 1-.9 1.1c-.2 0-.7-1-1.3-1"/><path fill="#006b00" d="m733.8 578.1 1.2-.7q.5-.1.8 0 .5.1.6 1v.3l-.3.4q-.5.7-.8.8-.3 0-.7-.5t-.6-.5h-.2l-.1-.4zm.8.3.4.5.2.2.5-.6.1-.2-.1-.2h-.6z"/><path fill="#e80000" d="M733.8 584.1c0-.1 1-1.4 1.7-.5.4 1-.3 1-.4 1z"/><path fill="#006b00" d="m733.6 583.7.8-.7q1-.5 1.3.3l.2 1q0 .3-.3.5l-.5.2h-.1q-.4-.4-1.3-.5-.3 0-.2-.4zm.9.2.7.3.1-.1v-.3q-.2-.4-.6 0z"/><path fill="#e80000" d="M732 552.9c-.1-.1-1.4-.8-2.2.6q1.3.4 1.9 1.3c-.2-.7-.4-1.6.3-2"/><path fill="#006b00" d="M732.3 552.8q0 .3-.2.5-.3 0-.3.4l.1 1v.3l-.2.2h-.2l-.1-.3a3 3 0 0 0-1.6-1h-.1l-.2-.3v-.3q.8-1.7 2.6-.8zm-1 .2q-.6 0-1 .3l1 .6z"/><path fill="#e80000" d="M729 564.6c0-.1.2-2.5 1-3.7q.5.6.9 1.8c-.7.2-1.4.3-1.9 1.9"/><path fill="#006b00" d="M728.7 564.6q.2-2.9 1-4 .3-.1.4 0 .4.3.8 1.4l.2.5v.5h-.1l-.3.2q-1.1.3-1.4 1.5 0 .4-.4.3zm.7-1.5 1-.7-.4-1q-.5.6-.6 1.7"/><path fill="#e80000" d="M733.2 562.7c-.2.1-1.6 1-1.2 2.4.6-.8 1.1-.6 1.2-.6z"/><path fill="#006b00" d="M733 562.4h.3l.1 2.1q0 .4-.2.4h-.1q-.5 0-.9.5-.3.3-.4 0-.5-1.1.4-2.2zm-.1 1-.4.4-.3.6q.3-.3.7-.3v-.5z"/><path fill="#ffc900" d="M730.7 537.4c-.5 1.2.6 3 2.2 2.9.1-2.5-1.6-3.5-2.2-2.9"/><path fill="#006b00" d="M730.5 537.2q.5-1 1.7.2t1 3q0 .3-.3.3-1.1.2-2-1-1-1.5-.4-2.5m.4.5q-.3.4.3 1.4t1.4.8q0-1.1-.7-1.9-.8-.7-1-.4"/><path fill="#e80000" d="M732.3 535.6c0 .2.2 1.7 1.5 1.4-.3-1.4-1-2.5-1-2.5q0 .9-.5 1.1"/><path fill="#006b00" d="M732 535.7v-.3l.2-.2q.3 0 .2-.4v-.4l.1-.2q.1-.3.4 0a6 6 0 0 1 1.2 2.7q0 .4-.3.5-.8.3-1.5-.6zm.6.1.2.4q.2.4.6.4 0-.8-.5-1.3 0 .3-.3.5"/><path fill="#e80000" d="M733.1 541c0 .1.6 1 2-1-.6 0-1.6-.6-1.7-.6s0 1.4-.3 1.6"/><path fill="#006b00" d="M732.9 541.3v-.2q-.1-.3.1-.5.2 0 .2-1.2v-.2q0-.3.4-.2.9.8 1.4.5l.3.1v.6q-.9 1.4-1.7 1.5zm.6-.4q.4 0 .8-.6l-.7-.3q0 .6-.2.9"/><path fill="#ffc900" d="M730.6 533.2c-.5 1 .2 2.2 1.7 2 .2-2.4-1.2-2.7-1.7-2"/><path fill="#006b00" d="M730.4 532.9q.5-1 1.5-.2t.7 2.6q0 .3-.3.3-1.1.3-1.8-.6-.7-1.1-.1-2.1m.4.5q-.3.5 0 1 .5.6 1.3.5 0-1.1-.5-1.5t-.8 0"/><path fill="url(#b)" d="M731.2 523.9c.4-.2 5.2-2 8.8 1.1 3.1 3.1 3 .5 3 .3.2.1 4.3 2 5.7 1.7 1.3-.5-.8.3.9-1.3 1.3-1.4-3 .3-4-2.6-.7-2.1 0-4.1-1.8-3.5-1-2.4.6-3.8.4-6.3-1.4 1.2-2-.3-3 2.8-2.3-1.2-.6-4.8-3.1-5.8-.2 3.3-1.8 3.5-2.1 5.4-1.5 1.4-5.8 5-4.8 8.1"/><path fill="#c01500" d="M665.2 775.5c4-.6 23.5 7.8 31.6 19.6-1.7-20.4-5.7-36.1-5.7-36.2-.5-.2-11.4-4.9-13.7-3.2-2.4 3.3-9.5 13.2-12.2 19.8"/><path d="m665.3 776.2-1 .3.4-1.3q2.7-6.7 12.3-20c1.6-1.5 5.8-.6 14.2 3l.3.2v.3q4.2 15.9 5.8 36.3l.2 2-1-1.5a48 48 0 0 0-17.2-14.3c-7.2-3.9-11.6-5.4-14-5m.8-1.5q4 .1 13.6 5.2a52 52 0 0 1 16.5 13.2q-1.8-18.7-5.5-33.6c-7.9-3.4-11.7-4.4-13-3.3q-8.7 12-11.6 18.5"/><path fill="#c01500" d="M659 681.4c-1.4.3-2.7 1.3-4.2 4.4-1.6 5.5-3 18.9-5.2 22-2.5 3-4.2 3.2-4.5 6 0 3.3.4 9.4 6.6 13 6.6.2 16.2-12.1 16.5-12.5 0 0 5-7.3 7.3-15.5-12.5 4.4-20.6-11-16.5-17.4"/><path d="m659 680.7 1.5-.2-1 1.4q-1.5 2-1 5.3a16 16 0 0 0 2.9 6.5c4 5.1 8.3 6.5 14 4.4l1-.4-.4 1.3q-2.2 8.3-7.4 15.8a64 64 0 0 1-6 6.6c-4.6 4.5-8 6.2-10.9 6h-.1c-4.7-2.6-6.8-6.7-7-13.6q.1-2.1 2.3-4.1l2.4-2.4q1.2-1.7 3.2-12.8 1.2-6.8 1.8-9 2.1-4.3 4.7-4.8m-1.3 2q-1.2 1-2.4 3.5-.6 2.1-1.8 8.7a47 47 0 0 1-3.5 13.5q-.9 1.2-2.5 2.5-1.8 1.6-1.8 3c.1 6.2 2 9.8 6.1 12.1 2.7.2 5.8-1.5 10.3-5.7q3.2-3.2 5.8-6.5 4.5-6.6 6.8-14c-5.7 1.7-9.9.1-14-5.1a18 18 0 0 1-3.2-7.3q-.4-2.7.2-4.7"/><path fill="#c01500" d="M836.2 768.5c-4-.3-23.8 9.3-31.8 21.3 1.7-20.3 5.7-36.1 5.7-36.2 1.9-.9 11.3-5.5 13.4-4 2.5 3.3 10 12.6 12.7 19"/><path d="M836 769.2q-3.2-.5-14 6-12 7.2-17.2 15l-1 1.7v-2.1q1.8-20.4 5.8-36.3l.1-.4.3-.1.4-.2c8-3.8 12-5 13.5-3.7l1.2 1.6q9.3 11.9 11.5 17.5l.5 1.2zm-.8-1.4q-2.5-5.4-10.8-16l-1.2-1.6c-1.2-1-4.9.2-12.5 3.9h-.2q-3.7 15-5.4 33.8 5.3-7.4 16.5-14a41 41 0 0 1 13.6-6"/><path fill="#c01500" d="M841.9 674.6c1.4.3 1.9 2.3 3 5.5 1.7 5.3 3.5 12.7 5.7 15.6 2.4 3 4.3 7 4.4 10 0 3-.5 6.6-6.8 10.6-6.5.9-15.1-8-15.4-8.3 0-.1-5-7-7.3-15 12.5 3.6 19.7-11.7 16.4-18.4"/><path d="M842 673.9q1.4.1 2.8 4l.6 1.9 1.2 4q2.7 9.4 4.3 11.4 4.5 5.4 4.6 10.4c-.1 4.9-2.3 8.3-7.1 11.3h-.1c-3 .5-6-.5-10.4-3.6a44 44 0 0 1-5.5-4.8 46 46 0 0 1-7.3-15.2l-.4-1.3 1 .3c5.7 1.7 9.7.2 13.6-5q2-3.2 2.8-6.7.6-3.4-.6-5.5l-.7-1.3zm1.3 3.3-.2 3.6q-.7 4-3.1 7.4c-4 5.3-8 7-13.6 5.8q2.1 7.2 6.7 13.4a43 43 0 0 0 5.3 4.6c4.2 3 7.1 4 9.7 3.6 4.4-2.7 6.2-5.6 6.4-9.8q0-4.4-4.3-9.5a43 43 0 0 1-4.5-11.8l-1.2-4-.7-1.8z"/><path fill="#fb0" d="M652 756.7c.2.2 12.2 12.9 13 18.5 33.8-65.2 121.6-85.6 171-8.5a55 55 0 0 1 13.4-18c-51.5-82.1-157-71.2-197.4 8"/><path d="m651.7 757.2-.4-.4.3-.5a118 118 0 0 1 41-46.7 110 110 0 0 1 109.8-6c19 9.7 34.6 24.2 47.4 44.6l.4.7-.6.4q-1.6 1.3-4.2 4a70 70 0 0 0-9 13.7l-.5.8-.4-.6A108 108 0 0 0 793 727a87 87 0 0 0-48.2-8.5 96 96 0 0 0-45.4 17.5 110 110 0 0 0-34 39.6l-.8 1.6v-2q-.3-3.2-6.5-10.8-3-3.9-6.3-7.2m1-.6q10.7 11.1 12.5 17a108 108 0 0 1 33.6-38.8 97 97 0 0 1 45.8-17.7q25.5-2.7 48.6 8.6a109 109 0 0 1 42.7 39.8 72 72 0 0 1 12.7-17 119 119 0 0 0-46.6-43.7q-26.2-13.2-55.6-11.6A109 109 0 0 0 693 711c-17 11.1-30.2 26-40.3 45.7"/><path fill="#1e5aa6" d="m781.6 495.1 5-.5-9 16 10.7 16.3-21 37.2 19.8 31.5a108 108 0 0 1-8 20.4l-11.4-16.6 20.6-36.2-17-25.3z"/><path d="m781.5 494.4 6.1-.6-9 16.3-.2.5 10.6 16.2-11.1 19.8 11 16.5-10.2 18.1 9 14.3-.1.4q-3.6 12-8.1 20.6l-.4.6-12-17.6 10.3-18.2-10.7-17.1 9.8-17.5-5.7-8.6 6.4-27-.2-.5.6-1 3.6-15.1zm-4.3 53.4L768 564l10 16 9.6-16.9zm.9 34.6-9.7 17L779 615q4.2-8 7.5-19.2zm0-70.2-6.2 25.5 5.3 7.9 10.5-18.6zm1.3-6 6-10.7-3.5.3z"/><path fill="#1e5aa6" d="m710.4 499-5.3-.1 10 15-10.6 17.7 22 33.1-18.2 32.7c2.2 7.4 5.3 15.6 8.7 21.7l10.7-18.4-22.1-34.3 16.2-27.7z"/><path d="m710.8 498.2 4.1 14.5.8 1.2-.3.6 7 24.4-5.8 10 10.5 15.8L717 583l11.4 17.7-11.5 19.5-.4-.7q-4.8-9-8.7-21.8v-.4l7.8-14.2-10.7-16.7 10.3-17.5-11.4-17.3 10.4-17.4-.2-.7-10-15.3h6.4zm5.5 86-7.4 13.4a114 114 0 0 0 8 20.3l10.2-17.2zm-.4-34.3-9.7 16.5 10 15.6 9.6-17.2zm-1.2-34.2-9.5 15.8 10.7 16.3 5.3-9.2zm-1.7-5.9-3-10.2h-3.8z"/><path fill="#1e5aa6" d="m735 586.8-7.7 14.2 28 44.1c4.9-3.5 8.7-7.5 13-12.4l-14.6-22.5 6-24 8.5 13.2-26.7 47a61 61 0 0 1-13.9-11.7l14.1-24.4z"/><path d="m735.2 585.4 7.1 25-4 7 10 15.9 9.2-16.1-4.4-6.8 6.3-25.5 9.4 14.4-10 17.8 10.2 15.7-.4.5a83 83 0 0 1-13.1 12.4l-.4.3-6.7-10.5-6.7 11.8-.4-.2a59 59 0 0 1-14-11.9l-.4-.4 10-17.3-10.3-16.5 8-14.6zm2.4 33.1-9.3 16q6.3 7 13 11l6.4-11zm11.4 15.9 6.4 9.9q5.5-4.1 12.2-11.6l-9.4-14.5zm9.1-18.4 9.4-16.6-7.7-11.8-5.5 22.4zM735 588.3l-7 12.7 9.7 15.4 3.5-6.2z"/><path fill="#1e5aa6" d="m726.4 564.6 5.1 8.8-3.3-11.9z"/><path d="m725.8 564.6 2.6-4.5 3.6 13-.9.7-5-8.8zm1.3 0 2.8 4.8-1.8-6.5z"/><path fill="#1e5aa6" d="m763 572 4-7.6-1.5-2.8z"/><path d="m763.3 572.4-.8-.6 2.8-11.7 2.4 4.3-2.3 4.2zm1-4.1.3-.4 1.8-3.4-.7-1.5z"/><path fill="#fff700" d="M821.6 445.4q5.1-6.4 8.7-7.3.5 0 .5.6l-.1.6-.4.2q-3.3.7-8 6.8-.5.6-.8 0-.3-.4 0-1"/><path fill="#fff700" d="m822.2 444.5 5.3-1.9a189 189 0 0 0 25.8-9.9l.1.5-.1.5c-.7.8-9 4.6-25.7 10.3l-3.5 1.2-1 .3h-.1l-.4.2-.4-.2q-.3-.4 0-1"/><path fill="#fff700" d="M822.3 444.9c.4-.3 11.2-2.7 33.1-9.3q.5-.1.6.6t-.5.8l-16.3 4.7-11.3 3-3.7.9-1 .2-.3.1-.2.1q-.2 0-.3-.2-.4-.4 0-1"/><path fill="#fff700" d="M822.6 444.8c23.5-4.6 35.4-7 37.2-5.7q.4.4 0 1-.3.5-.7.2c-1.6-1.1-13.2 1.4-36.5 5.8h-.4l-.1-.6q0-.6.5-.7"/><path fill="#fff700" d="M822.5 444.6c23.1-2.7 34.2-4.6 35-3.8q.2.3.1.5 0 .3-.2.5-.4.5-.7 0c-.6-.4-11.5 1.5-34.2 4.2l-.4-.1-.1-.5q0-.7.5-.8"/><path fill="#fff700" d="M822.6 444.6q16.2-.2 32.8-1.5.5 0 .5.7t-.6.7a557 557 0 0 1-32.7 1.5q-.6 0-.5-.7t.5-.7"/><path fill="#fff700" d="M822.2 445q3.4-.4 17.2.3c12 .5 18.2 1.5 19.9 3.8q.3.4-.1 1l-.4.2-.3-.2c-1.6-2-7.5-3-19.2-3.4q-13.7-.7-17-.3-.5 0-.6-.7t.5-.7"/><path fill="#fff700" d="M860.3 458v-.1a29 29 0 0 0-9.4-7.6 47 47 0 0 0-28.8-4.1q-.5 0-.5-.6t.5-.8a48 48 0 0 1 29.2 4.2q6.4 3.4 9.7 7.8.3.4 0 1-.2.3-.4.3t-.3-.2"/><path fill="#fff700" d="M822.3 445.1q4.7 0 10.2.6c7.5 1.2 12.2 3.2 15 6.6v.5l-.1.5q-.4.6-.7 0c-2.6-3.1-7.1-5-14.4-6.2a65 65 0 0 0-10.5-.8v-1z"/><path fill="#fff700" d="M822.5 444.8c2.2-.8 4.6-.8 8 0q9.3 2.4 17.4 14.2.3.4 0 1l-.4.2q-.3 0-.4-.2-7.9-11.5-17-13.9-4.5-1-7.4 0-.5.2-.6-.5t.4-.8"/><path fill="url(#c)" d="M815 465.4c.6 0 16-1 16.8 1-.5 2.2-12 8.3-12.7 17.7.2 9.5 9.2 9 10.2 20.8.3 12-7.3 14.9-9.2 18.2-1.6 2.1-5.5 19-5.2 29 .5 10.2 2.9 43.2 6.5 49.7 3.1 3.3 7.2 11.9 12.2 8.6 4.5-4.4 1.6-14.6 1-18-.3-3.2 1.8-8.7 2-13.5-.2-4.7-1.6-8.3-1.7-9.4.7-1 13 2 12.6 20-1.1 18-5.9 13.7-6 13.5 0 .5 1.3 21.1-2.6 25.3-7.8 6.2-12.6 1-12.9.7l.7 4.4-5.6-3.3s-7.2-13.3-9-19.5c-1.5-6.3-3.5-34-3-40.4.6-6.2 1-41.8.9-43.7-.3-1.9-1.5-31.4-.9-36l5-21.4z"/><path d="M815 466v-1.3c11.8-.7 17-.3 17.3 1.6q0 1.2-3.5 4.1c-6.1 5.4-9 9.6-9.2 13.7 0 3 1.3 5.6 4.3 8.7a19 19 0 0 1 6 12q.1 5.9-2.2 10.4-1.5 2.4-4.8 5.6a14 14 0 0 0-2.4 2.7l-.1.1q-1.3 1.4-3.2 11.1-2.1 10.7-1.8 17.4.8 13.5 2 26.1a84 84 0 0 0 4.4 23.1l2.5 3.2c4.2 5.3 6.7 6.8 9.1 5.3 2.4-2.3 2.8-7 1-15.4l-.3-1.8q-.2-1.8.9-6.6 1-4.8 1.1-7 0-2.8-1.2-7l-.4-2.6q0-.8 1.2-.8l1.6.3q2.4.9 4.6 2.9c4.5 4.2 6.4 9.8 6.1 17.8s-1.6 12.2-3.6 14q-1.3 1-2.4.6.3 4.9.2 10c-.2 8.3-1.2 12.8-3 14.7-3.5 2.8-6.3 3.7-9.7 3q-1.6-.6-2.7-1.3l.6 4-6.7-3.9v-.1q-7.4-13.5-9-19.7-1.3-4.6-2.4-20.4a157 157 0 0 1-.7-20.3q.5-4.4.8-23.4a381 381 0 0 0-.8-37.2q-.5-16.2 0-19.3.5-2.7 3.9-16.6l1.4-6 .4-1.8.1-.5v.1q0 .6.5.6m.4 0-.4 1.8-1.5 6-3.8 16.5q-.4 3 0 19 .6 15 .9 16.8v20.4a418 418 0 0 1-.9 23.6q-.3 4.5.7 20t2.3 20q1.6 6 8.8 19.2l4.6 2.7-.8-5 1.2 1.3q1.3 1.3 3.4 2c3.1.6 5.7-.1 8.9-2.8 1.5-1.5 2.3-5.6 2.5-13.3q0-5.8-.3-11.2l-.1-1.6 1 .8q1 1 2.2 0c1.6-1.5 2.6-5.4 3-12.8s-1.5-12.7-5.7-16.6a14 14 0 0 0-4.4-2.7l-1.4-.3.4 1.4q1.2 4.4 1.2 7.4 0 2.5-1.1 7.4-1 4.5-.9 6l.4 1.7c1.8 9.1 1.3 14.4-1.6 17-2 1.4-3.5 1.3-5.7-.2q-1.6-1.2-4.6-5.2-1.8-2.4-2.5-3v-.1h-.1q-4.3-7.5-6.6-50.1a80 80 0 0 1 5.3-29.7q.6-1 2.7-3 3.2-3 4.5-5.2 2-4 2-9.3-.5-5.9-5.6-11.1c-3.2-3.5-4.7-6.4-4.7-9.8.2-4.7 3.2-9.3 9.8-15a17 17 0 0 0 2.9-2.7c-.3-1-5-1-16-.4"/><path fill="#ff7000" d="M796.7 461.3c.3-.4 11.5-16 18.6-15.6 3.3 0 .3 3.1.1 3.4.4 0 5.4 0 6.8 3.4-.1 1.6-2.6 2.4-2.8 2.4.2 0 2.2.4 2.6 3.3-.8 3.1-24.3 3.3-25.3 3.1"/><path d="M796.4 460.8q3-4.2 6.8-8.2c5.3-5.5 9-7.8 12.1-7.6q1.4-.2 1.8.6.4.6 0 2l-.5.8c3.6.4 5.3 1.4 6.1 3.9q.1 1.5-1.6 2.6 1.3 1 1.4 3.2 0 1.1-1.4 1.8-1 .4-2.9.8-3.2.6-8.7 1-12.5.8-13.1.1l-.4-.4zm1.3 0a174 174 0 0 0 20.4-1.5l2.8-.7.6-.4q-.2-2.3-2.2-2.6v-1.4l1.4-.5q1-.6 1-1c-.7-2-2.5-2.8-6.3-3H814l1.1-1.2q.8-.8 1.1-1.6l.1-.4q0-.2-1-.1h-.1c-2.9-.2-6.3 2-11.5 7.3a88 88 0 0 0-6 7.2"/><path d="M797.3 459.9q3.1-.9 6.9-2.6 7.4-3.8 10.7-8.5l.7 1q-3.5 5-11.1 8.8a44 44 0 0 1-7 2.6z"/><path d="m810.1 454 4.7-.6q5.1-.3 5.1 1.5h-1a55 55 0 0 0-8.7.3z"/><path fill="#fff" d="M843 635.1c.3-.1 7.6-3.9 10.1-8 1.7-1 8 12.2-10 8"/><path d="M843 634.4q7.6-3.8 9.8-7.7v-.2q.6-.6 1.4 0l1 1.3q1 2.2.8 4.5-.4 2.9-3.4 4-3.3 1.1-9.7-.5l-.3-.3v-.5q0-.4.3-.6m2 .4q5 1 7.6.1 2.2-.7 2.5-2.7a6 6 0 0 0-.7-3.5l-.7-1-.1-.2a21 21 0 0 1-8.5 7.3"/><path fill="#fff" d="M841.4 545.5q1 8.5-1.9 14.8v.1l-2.1 3q-3.6 4.7-3.8 6.3 0 1 .6 3.6.8 3.7.8 5.7-.2 1.6-1.5 4.9-1.2 3.3-1.2 4.4 0 1.4 1.5 10c.8 5 1 7.3.7 7.8q-.4.4-.7-.2v-.9l-.2-1.5-.8-4.8q-1.5-8.6-1.5-10.2t1.3-5.2q1.1-3 1.4-4.3 0-1.6-.7-5.2l-.7-4q.2-2.1 4.1-7.5l2-2.7c1.7-4 2.3-8.3 1.7-13.7q-.1-.7.4-.9.5-.1.6.5m-14.9-24.1q-1.5.9-3.2 2.8a19 19 0 0 0-4 9.1q-.2.7-.7.6-.3 0-.3-.2v-.6q.9-5.7 4.4-10 1.9-2 3.5-3 .4-.3.6.3t-.3 1"/><path fill="#c75b00" d="M823.7 453c.1.4 1.9 7.4 9.1-.8-5-7.1-8.9.5-9.1.8"/><path d="m824.2 452.7-.1-.1q-.1-.3-.4-.3l-.3.2.1-.1a11 11 0 0 1 3.5-3.6c2.5-1 4.2-.2 6.2 3l.3.5-.4.4c-3.3 4-5.4 5-7.7 3.8a5 5 0 0 1-2.2-3.4zm.1.4q.6 1.4 1.6 2.1c1.8 1 3.5.1 6.2-3q-2.2-3.4-4.8-2-1.5.7-3 3"/><path d="M828.8 452q0 .8-.7.9t-.8-.7.8-.9q.6 0 .7.7"/><path fill="#fff" d="M766.9 438.8c.3.4 13 18.3 21.7 18.1 1.1 5.8-3.7 11.1-6 14-4.5-1.6-8.2.7-18.4-15.7.7-10.9 2.7-16 2.7-16.4"/><path d="M767.2 438.3q3.3 4.7 7.6 9.3c6 6.2 10.2 8.8 13.8 8.6h.3l.2.4c.8 3.9-.8 8.1-5.5 14l-.7.8-.2.2h-.3q-.7-.4-2.4-.7a16 16 0 0 1-6.4-2.8 51 51 0 0 1-9.8-12.5l-.1-.2v-.3q.5-8.2 2.4-15.3l.2-.8.1.1zm-.1 1.8v.2q-1.9 6.8-2.4 14.6 5.4 8.6 9.4 12 2.5 1.8 6 2.6l2.3.6.5-.6q6-7.3 5.3-11.9c-3.7 0-8.1-2.7-14-8.9q-4-4.2-7.1-8.6"/><path fill="#fff" d="M784.7 392.6c1.9-7.6 5-13 8-14.2-.6-5.9 6.3-29.6 26.6-41.8a46 46 0 0 1-8.7 25.8c.4-.1 29.2-10.6 36-22.3-.7 4.8-6.7 35-38.7 38.7 11.7 14.8-3.5 28.1-10.7 25.3 12.3-14.6-3.2-20.2-12.5-11.5"/><path d="M784.2 392.4q1.4-5.7 3.7-9.7 2.1-3.8 4.3-4.8 0-2.4 1-6.9 1.5-5.7 4.5-11.5a56 56 0 0 1 21.4-23.5l.6-.3v.8q.8 8-3.9 18a60 60 0 0 1-3.7 6.7q6.8-2.5 14-6.1 16.4-8.5 20-15.4l1 .4q-1.4 10.3-7.7 20.2c-7.3 11-17 17.3-30.2 19a18 18 0 0 1 3.6 9.9 17 17 0 0 1-9.1 15c-2.8 1.2-4.7 1.4-6.6.6l-.9-.4.7-.8q4.2-4.8 4.4-8.6.1-3-2.5-4.7-2.7-1.6-6.5-1-4.2.7-7.3 3.8l-1.3 1.3zm1.5-1.5q2.9-2.3 6.5-3 4.1-.6 7.1 1c2.2 1.6 3 3.3 3 6.1q-.2 4-4 8.8 2.1.5 5-.9 3.6-1.7 6-5.3a14 14 0 0 0 2.5-8.3q-.2-5-4.2-10l-1-1.1 1.4-.1a40 40 0 0 0 30.6-18.7 50 50 0 0 0 7-17q-4.8 6.5-19.2 14-8.2 4.1-15.7 6.7l-1.7.6 1.3-1.8q2.3-3.3 4.7-8 4.1-9.1 3.8-16.3a55 55 0 0 0-20.3 22.6 62 62 0 0 0-4.3 11.2q-1.1 4.7-1 6.9l.2.7-.6.1q-1.9.6-4.1 4.4a36 36 0 0 0-3 7.4"/><path fill="#cccccd" d="M795 381.7c6.1-5.8 8-6 13.1-5.5-3.6 1-3.5 1.2-3.6 1.2 0 0-.2.6 1.9 3.2-2.6-.7-4.5-2-11.5 1"/><path fill="#ccc" d="M794.7 381.1q4.4-4.1 7.1-5.2a16 16 0 0 1 6.4-.4v1.4l-3 1q.3.7 1.5 2.2l-.4 1.2-1.2-.3q-4.3-1.4-10 1.3zm3.3-1.4q3.6-.9 6.7-.3-.9-1.4-.6-2.3l.6-.3q-1.6 0-2.7.4-1.6.7-4 2.5m7-2"/><path d="M792.4 377.9q11.9-9.7 18.5-16.3l.6 1q-6.7 6.8-18.7 16.5z"/><path fill="#00f" d="M782.4 470.9c.3 0 16 5 18.3-27.5-3.6-14-8.3-42.9-1-52.6-7.4-5.5-14.2 1-14.5 1.3-.6 1.7-6.5 13.8 1.7 34.6-19.8-5-12 18.5-11.8 19.2 1.1-4.1 10.9-8.5 14 11.8.3 3.6-2.6 8-5 11-.5.7-1.5 1.3-1.7 2.2"/><path d="m782.3 471.6-.4-.3v-.9l.2-.2.4-.5q6.8-8 6-11.8c-1.2-8.8-3.5-13.2-7.3-14.6a5 5 0 0 0-3.8.5q-1.5.9-1.8 2.2l-.4 2-.6-1.8A33 33 0 0 1 773 434q.5-5.2 3.4-7.4c2.4-1.6 5.2-1.8 9.5-.9a46 46 0 0 1-1.4-33.3l.2-.5v-.2l.2-.2q2-1.8 4.8-3c4-1.3 7-.9 10.3 1.7l.6.5-.5.6c-3.2 4.2-4.4 11.8-3.6 24q1 14 4.6 27.9v.2c-.8 14-4 22.5-10 26.6a11 11 0 0 1-8.8 1.6m1.1-1.2c2.5.4 4.6-.1 7.2-1.7 5.6-3.8 8.7-11.8 9.5-25.1q-3.6-14-4.6-28c-.8-12.1.3-20 3.4-24.7-2.9-2-5.4-2.2-9-1q-2.5 1-4.3 2.7l-.2.4a45 45 0 0 0 2 33.4l.5 1.3-1.2-.3c-4.6-1.2-7.5-1.1-9.8.4-1.7 1.4-2.5 3.2-2.9 6.3a31 31 0 0 0 1.2 10.1 6 6 0 0 1 6.3-2.2c4.2 1.5 6.7 6.2 8 15.5.5 3.1-1.3 7.1-6 13m-1-.3"/><path fill="#00f" d="M800.8 443.6c.2-.1 17-14.3 17-44.3-14.8 2.9-20 28-20 28.5z"/><path d="m800.5 444.7-3.3-16.9v-.1q1.5-6.7 4.6-13.7c4.5-9.5 9.5-14.3 16-15.4h.4v.6a65 65 0 0 1-8.4 34q-4.4 7.4-8.7 11zm.7-2.1q3.9-3.6 7.9-10.3a63 63 0 0 0 8.1-32.2c-5.8 1.3-10.4 5.8-14.6 14.6q-3 6.7-4.4 13z"/><path fill="#fff" d="M723 444.7c-.4.4-12.4 14.2-20.2 9.7-5.8 3.6-11.4-3.5-11.8-4 .1.4 7.2 37.6 34.2 11.7a136 136 0 0 0-2.2-17.5"/><path d="m722.7 444.1.4-.5.3.7q1.4 3 2.3 17.7v.4l-.2.2c-11.6 11.3-20.3 12.5-27.7 4a37 37 0 0 1-7.3-16l-.4-2.3 1.3 1.6q1.5 1.9 3.7 3.5c3 1.8 5.1 2 7.5.4l.2-.2.2.2c3.2 1.9 6.8 1 12.4-3q4-3 7.2-6.7m.2 1.7a52 52 0 0 1-7 6.3c-5.7 4.1-9.5 5-13 3-2.5 1.7-4.8 1.5-8.1-.5q-1.5-1-2.7-2.2 2 7.8 6.4 13.2c7 8 15.2 6.8 26.2-3.9l-1-11z"/><path fill="#00f" d="M702.7 453.7c1.3-7.8 5.2-11.2 9.1-3.8 4.8.5 9.7-24.4-7.4-21.5 4.5-35-9.5-48.6-9.6-48.7 0 .1-4.9 38.5-2.8 46 2.2 6.9-3.5-12.8-21.9-20.5.1 29.6 20.4 44.4 20.6 44.6.4.4 5.5 7.1 12 4"/><path d="M703.2 453.9v.3l-.3.2c-2.9 1.6-5.3 1.4-8.7-.6q-2.2-1.5-3.8-3.5-5.2-3.9-10.5-11.3a58 58 0 0 1-10.3-33.9v-.8l.6.2a41 41 0 0 1 20.8 18.7q-1.1-10.4 3.3-43.7l.1-1 .7.6q3.6 3.7 6.7 11.5 6 15.6 3.2 37c4-.6 6.4 0 8.7 2.2q2.8 2.9 3.1 8.4.2 4.7-1.3 8.7-1.6 4.4-3.8 3.6h-.2l-.1-.3c-1.7-3.4-3-4.3-4.9-3.5-1.7 1.1-2.7 3.2-3.3 7.2m-1-.7c.8-4.2 2-6.5 4-7.8 2.3-1 3.9 0 6 3.8q1.1.1 2.4-3 1.4-3.6 1.2-8-.4-4.8-2.7-7.3c-2.2-2-4.7-2.6-8.6-1.8l-.8.1.2-1q3-21.5-3-37-2.7-6.9-5.8-10.3L693 400q-1.9 21-.6 25.4l.4 1 .2 1q0 .4-.4.5l-.4-.1-.1-.2h-.1l-.1-.3a41 41 0 0 0-21.3-21.2 56 56 0 0 0 20.4 43v.2q1.5 1.8 3.6 3.2c3 1.8 5.1 2 7.6.7"/><path d="M704.7 428.7a27 27 0 0 0-6 21l-1 .4a29 29 0 0 1 6.3-22.5zm-12-2.2a32 32 0 0 0-.5 6q.2 7.6 2.6 15.7l-1 .5q-2.4-8.4-2.6-16.2 0-4 .4-6.4z"/><path d="M690.5 450.9a6 6 0 0 1 3.1-3c3-.7 5.7 1 9.4 5.8l-.7 1c-3.4-4.5-5.8-6-8.4-5.4q-1.7.6-2.6 2.3z"/><path fill="#fff" d="M692.4 394.1c-.3-.1-11.7-.8-5 16.7-5.7 1.6-17-9.2-9-23.5-27.6-3-38.5-22-38.7-38.6 8.5 12 27 9.5 34.1 16.7a41 41 0 0 1-6.6-25.7 55 55 0 0 1 27.6 39.8c-1.4 5.8-2.2 14.6-2.4 14.6"/><path d="M692.3 394.8h-.3l-1.3.1q-1.9.4-3.2 1.6c-2.5 2.7-2.4 6.9.4 14l.3.8-.6.2q-2.2.8-5.2-1-3-1.7-5-5c-3.4-5.8-3.4-11.2 0-17.6a44 44 0 0 1-29-14.3 38 38 0 0 1-9.2-25v-1.7l.9 1.3q2.9 4.4 8.8 7.2 3.5 1.5 11 3.5 7.8 2 11.6 4a40 40 0 0 1-4.8-23.3v-.8l.6.3q5.9 3 12.4 9.3a54 54 0 0 1 15.6 31v.3q-.9 3.2-1.8 11l-.3 2.7-.2.8-.1.4-.3.3zm-.2-1.4v-.3l.4-2.7q1-7.7 1.7-11a53 53 0 0 0-26.6-38.7 42 42 0 0 0 .3 7.6q1.3 9.8 6.3 16.6l-.7 1q-2.8-3-13.6-5.7a73 73 0 0 1-11.3-3.5 24 24 0 0 1-8.3-6.3q.5 12.4 8.7 22.2a43 43 0 0 0 29.3 14l1 .1-.6 1.1c-3.5 6.2-3.7 11.3-.6 16.8a14 14 0 0 0 4.7 4.7q2.2 1.3 3.9 1c-2.8-7.4-2.7-12 .2-15a8 8 0 0 1 5-2zm-.1 1 .2.4-.1-.2z"/><path d="M674 364.2q2.1 3.2 10.3 7.8 8.6 5 11.7 8.7l-.7 1a45 45 0 0 0-11.4-8.4q-8.3-4.8-10.7-8.2z"/><path fill="#cccccd" d="M679 383.6c.4 0 9-.9 12.3 3.7-3.8-.3-4.9-1.4-10.4.9 1.5-1.2 1.2-2.7 2-2.9.6-.2-3.4-1.6-4-1.7"/><path fill="#ccc" d="M678.9 383q2.4-.1 5.2.1c4 .6 6.1 1.7 7.5 3.9l.6.9h-.9l-2.5-.4q-3.7-.5-7.8 1.2l-.3-1q.7-.5 1.1-1.7l.3-.7-.8-.3-2.3-.9zm2.6 1 1.7.8.1.4q0 .4-.2.6h-.3l-.3.6-.2.7a15 15 0 0 1 8-.4q-1.8-2-6.2-2.5z"/><path fill="#923f00" d="M726.9 283c.3-.4 4.8-5.9 11-.6-3.2 10.4-11.5 6.6-12 6.4 0 .1.2 5.2-.6 7.8 1.7 2.3 3.4 8.2 3.4 8.4.5-.2 9-2.9 11.6 2.6 3.8-.6 6.3 0 6.4 0 0 0 7.4-2.5 10-2.8 3 .2 10.6 2.7 11.9 4.7.8 2.7 3.6 15.4 5.4 15.9 1.4.1-4 3.1-6.2 0-2-3.1-1.3 4.5-1.2 4.8 0 0 5 7.4 5.8 9 .4 1.8-3 15.6-.3 25-2.5.8-2.7 4-2.8 4.2a6 6 0 0 1-4 5.4l-1-5.7-2.5 2.3 1-4.5s3.5-12 4-15.8c0-4.3-3.2-10-6.1-10.4-2.8.9-4.7 11.6-4.8 12.2 0 .1-1.2 9-1 10l-1.8-3s-1.4 5.5-2.2 7.2a6 6 0 0 1-3 2.4 34 34 0 0 1-.9-7.6c.7-2.2 7.2-10.4 7-16.4-.6-5.9 0-4.5-.2-4.7s-3.4-4.3-3.8-6.7c-.6-2-4.3 2.6-10.6 1.4-1.6 4.4-2 14.9-2 15 0 .3-.3 12.6.6 14.4s-2.7 4.4-3 4.7l-3.2 5.6c-.3-1-.4-2.4-1-3.3l-2.2 2 1.2-4.2c0-3.2 2.9-12 3-19.3 0-7.4.4-15.4.4-15.4-.4 0-5.2-.4-5.6 7.6 0 8-1.2 8.4-1 10.8.3 2.4 1.6 8.8 1.3 10.8a4 4 0 0 1-2.3 2.5l-.4 1c-.3.2-5.3 3.5-5.6 5 .2 1.5-.2-4.2-.2-4.2l-.3-6.2c.2-.1 3.1-2.8 3.4-10.3 0-7.4-.7-8.5-.6-10.1l.8-8.5c-.4-.4-3 1.4-4.2 1.6-.6-.5 1.4-4 2-7.6 0-2.8-2.6 2.4-5.9-.8 1.4-3.8 3-5 3.6-8 0-2.5-1.9 2-4.4.4.4-3 2.3-5.2 2.4-5.3 0 0-1.8-.2-2.5 0-1-1 1.2-3.4 1.7-7.8 0-4.3-1.6-6-1.7-6.2s-3-4-3.6-5.4c-.4-1.5-.5-3.2-.5-3.2-.2.2-4.7 4.6-11.1-6.2 6-5.8 11.1-1.5 11.5-1.2 0-.4 1.4-5.4 8.6-5.3 7.1 1.1 8.6 5.8 8.3 5.5"/><path d="M727 281.8a10 10 0 0 1 3-2c3.1-1 5.4-.5 8.2 2l.3.3-.2.5c-1.3 4.8-3.4 7-7.3 7.7q-2.3.2-4.5-.5 0 4.3-.6 6.7 1.7 2.2 3.1 7.7 2.3-.7 4.8-.7c3.7 0 5.6 1 6.8 3.3q3.5-.4 6 0 7.5-2.5 10.2-2.7 2.2 0 6.7 1.6 4.9 1.8 5.5 3.5l1 3.9c2 8 3.3 11.4 4 11.6h.3q.5 0 .5.7t-.5 1l-2 1q-3.7 1-5-1.5 0-.3-.2-.4v4.3q5 7.5 5.8 9.1.2.7-.3 5a52 52 0 0 0 0 20l.3 1h-.7q-1.4.3-2 1.9l-.3 1.6c-.3 3.3-1.6 5-4.5 6.1l-.5.2-.9-5.5-3.2 2.7 1.5-6.3q3.5-12 3.9-15.6 0-2.6-1.8-6.2-2-3.4-3.7-3.4c-1.7.3-3 3.7-4.4 11.6q-1.1 8.9-1 9.4l.1.2v.6q0 .6-.5.5l-.2-.1v-.1l-.3-.3-.6-1-.5-.9q-1.1 4.6-2 6.3-1 1.8-3.2 2.6l-.5.1-.1-.5q-1.4-5.9-1-8 .3-.9 2-3.8 5.3-8.7 5-12.4l-.3-4.6q-3.5-4.4-3.7-6.8h-.1q-.4 0-1.6.7a13 13 0 0 1-8.1 1.4q-1.5 4.3-1.8 14.2a44 44 0 0 0 .5 13.9q.7 1 .1 2.2-.4.8-1.3 1.8t-2 1.7l-3.5 6.6-.4-1.2-.5-1.8-.2-.8-1.8 1.6-1.3 1.2 1.8-6.1q0-1.5 1-6.3 2-8.6 2-13 0-7 .4-14.6-1 0-2.1.7c-1.7 1.3-2.4 3-2.5 6.2q0 5-.8 8.6l-.3 2 .5 2.8q1.3 6.8 1 8.4-.5 1.6-2.5 2.9l-.5 1h-.1a18 18 0 0 0-5.3 4.1v.9l-.3.3h-.5l-.2-.4v-2l-.2-2.7-.3-6.6.2-.2c2.1-2 3.1-4.8 3.2-9.7a67 67 0 0 0-.6-10.2l.2-2.4.6-5.3q-.4 0-1.4.6-1.8 1-2.3 1-.6 0-.7-.8v-1l.8-1.9q1.2-3.2 1.4-4.7l.2-.1-.8.4c-2.3 1.3-3.7 1.1-5.1-.5l-.3-.3.1-.5q.7-1.8 2.1-4.2 1.2-2 1.4-3.3l-.1.1q-2.5 2.1-4 .6l-.2-.2v-.4q.3-2.5 1.7-4.6h-1.2l-.1.1h-.2q-.9-.6-.7-1.8l.7-1.9q1.3-2.9 1.4-4.9 0-3-1.4-5.4l-.3-.7v.3l-.1-.2-.6-.7a23 23 0 0 1-2.9-4.6l-.4-2.2a5 5 0 0 1-2.9.6c-3-.5-5.4-2.7-8.2-7.6l-.3-.5.3-.4c2.7-2.8 5-3.6 8.3-3.1q1.9.5 3.3 1.4.6-1.2 1.6-2.4c2-2 4.1-2.7 7.4-2.5q4.5.4 7.2 3.3zm-.8 1q-.3-.9-1-1.6a10 10 0 0 0-6.6-3c-3-.2-4.9.5-6.7 2.2q-1 1.3-1.5 2.5l-.2.8-.5-.4q-1.4-1.2-3.5-1.6c-2.7-.5-4.7.2-7 2.4q3.5 6 7.1 6.4a4 4 0 0 0 3-1l.9-.7v1.3q0 1.5.4 3 .3.7 2.6 4l1 1.6v-.2q1.8 2.8 1.7 6.4-.1 2.4-1.5 5.6l-.6 1.4 2.4.2 1.2.2-1 1a8 8 0 0 0-2 4.3q.9.4 2.5-.9l1-.6q.5 0 .8.7v1q-.3 1.8-1.7 4.3-1.2 1.8-1.8 3.4 1.3 1.3 3.8-.2.9-.5 1.3-.5t.6.6l.1 1.1a25 25 0 0 1-2 6.7l1.5-.8 1.3-.6q1.1-.5 1.4.4l-.6 6.5-.2 2.3.1 1.8q.5 3.6.5 8.2 0 4.9-1.8 8.4-.7 1.4-1.6 2.3l.3 5.7.1 2.4q1.4-1.5 4.8-3.6l.5-1.1h.1q1.8-1.1 2-2.1.4-1.1-.9-7.7l-.5-2.8q0-1 .3-2.8.9-3.3.8-8.1 0-5.5 3-7.4 1.6-1 3.1-.9h.6v.8q-.5 7.9-.5 15.3 0 4.5-2 13.3-1 4.8-1 6v.2l-.7 2.3.5-.5.2-.2q.1-.4.6-.3l.3.3v.1l.2.4.3 1.2.2.7 2.7-4.9q1.1-.8 2-1.8l1-1.3v-.5c-.8-1.3-1.1-6-.7-15q.3-10.7 2-15.3l.3-.4h.3q3.3 1 8-1.2l1.8-.6.7.1q.4.4.5 1 .2 2 3.6 6.2.3.2.3.6t-.2.6l.3 4q.4 4.3-5.2 13.5l-1.8 3.2q-.4 1.8.8 6.6 1.5-.6 2.2-2 .9-1.5 2-7l.4-1.2.6 1 .9 1.4q0-2.6 1-8.2c1.5-8.6 3-12.4 5.3-12.7q2.3-.1 4.5 4t2 7.1q-.4 4-3.9 16l-.6 2.7 2-1.7 1 5.9q3-1.3 3.1-4.6 0-1 .5-2.2.8-1.8 2.1-2.5-1.5-6.6.2-20l.4-4.1q-.6-1.5-5.8-9l-.1-.1v-4.1q0-1.6.4-2.2.4-.5 1-.2.4.3.7 1c.8 1.3 1.8 1.6 4 1l1-.4q-1.5-2.2-4.1-12l-1-3.7q-.4-1.2-4.9-2.8-4.3-1.5-6.4-1.6-2.5.1-10 2.7h-.2q-2.6-.6-6.2 0l-.3.1-.2-.4c-1-2.2-2.6-3-6.1-3q-2.6 0-5 .7l-.4.2-.2-.6a21 21 0 0 0-3.2-8l-.3-.3.2-.6q.8-2.4.5-7.4v-1l.7.3q2.2.9 4.8.7c3.3-.6 5.1-2.3 6.4-6.3-2.4-2-4.3-2.4-7-1.4a9 9 0 0 0-3 2v.3q-.4.4-.8 0v-.2zm4.7 88.7.3-.3v-.3zm-.6-1v.4z"/><path fill="#00f" d="M765.9 392c.6 0 12.4 0 13.3 9.5-.3 9.4-3.7 7.4-4.2 7.3l-9.5-1.2z"/><path d="M765.9 391.4q3 0 6.8 1.2c4.7 1.8 6.7 4.4 7 8.9 0 4.1-.7 6.4-2 7.7q-1.2.9-2.7.3l-4.8-.6-5.2-.7.4-16.8zm.5 1.4L766 407l4.3.6 4.8.5h.2q1.1.5 1.9-.1c1-1 1.4-2.8 1.5-6.4-.3-3.8-2-6-6.3-7.7q-3.3-1-6-1.1"/><path fill="#fffeff" d="M753.2 389.8c.6 0 15.5-.6 15.4 9-1.3 9.7-4.8 8.1-5 8l-8-.7z"/><path d="M753.2 389q4.1 0 8.1 1c5.7 1.7 8 4.3 7.8 9-.5 4.4-1.5 6.8-3.2 8.1q-1.2.9-2.5.4l-8.2-.7-2.6-17.7zm.6 1.5 2.3 15 7.6.6q.8.4 1.8-.2 2-1.5 2.6-7.1c0-3.8-1.9-5.9-7-7.4a30 30 0 0 0-7.3-1"/><path fill="#00f" d="m744 388.8 9.5 1c.4 0 5.1.9 5.4 8.3-.8 7.5-5.4 7.7-5.8 7.7l-9.2-.6z"/><path d="m744 388.2 9.5.9q1.5.3 3 1.5c2 1.8 3 4 2.9 7.5s-1.2 5.6-3.3 7.3q-1.5 1-3 1.1l-9.7-.6.1-17.8zm.6 1.4-.2 15 8.7.5q1.3 0 2.6-1c1.7-1.3 2.5-3 2.7-6 0-3-.7-4.8-2.4-6.3a6 6 0 0 0-2.6-1.3z"/><path fill="#fff" d="M722 392.4c-.7 0-12.5.2-13.3 9.6.3 9.4 3.7 7.4 4.1 7.2l9.6-1.3z"/><path d="m722.5 391.7.4 16.8-5.3.8-4.8.6q-1.4.6-2.6-.2c-1.4-1.3-2-3.5-2-7.7.2-4.5 2.2-7 7-9a20 20 0 0 1 6.8-1.3zm-1 1.4q-2.8 0-6 1.2c-4.3 1.8-6 4-6.3 7.8q0 5 1.5 6.4.7.5 1.9.1h.1l4.8-.7 4.3-.6z"/><path fill="#00f" d="M734.6 389.9c-.6 0-15.5-.3-15.4 9.3 1.3 9.6 4.8 8 5 7.9l8-.8z"/><path d="m735.2 389.2-2.6 17.7-8.2.9q-1.2.5-2.5-.4c-1.7-1.3-2.7-3.7-3.2-8.1-.2-4.7 2-7.3 7.8-9q4-1.2 8.1-1zm-1.2 1.4q-3.7 0-7.3 1c-5.1 1.6-7 3.7-7 7.5.5 4 1.3 6 2.6 7q1 .7 1.8.3l7.6-.8z"/><path fill="#fff" d="m743.8 388.8-9.4 1.1c-.4 0-5.2 1-5.5 8.4.8 7.4 5.5 7.6 5.9 7.7l9.1-.8z"/><path d="m744.3 388 .1 17.9-9.7.8q-1.5-.2-3-1.2c-2-1.6-3-3.7-3.3-7.2 0-3.5.9-5.7 2.9-7.6q1.5-1.2 3-1.5l9.5-1zm-1 1.6-8.9 1q-1.3.3-2.6 1.3c-1.7 1.6-2.4 3.4-2.4 6.4.2 3 1 4.7 2.8 6q1.3.9 2.5 1l8.7-.7z"/><path fill="#5e0043" d="M769 495.3c.3-.5 6.5-13 9.7-12.6 2.2 1.7.6 11-.6 12.7z"/><path d="M768.6 495c4.8-9.8 8-13.6 10.2-13 1.4.8 1.8 2.8 1.5 7.1-.5 4-1.1 6-2 6.9v.1H768zm1.4-.3h8q.6-1 1.3-5.7c.3-3.6 0-5.1-.8-5.6-1.1-.3-2.6 1.3-5.3 5.6z"/><path fill="#5e0043" d="M722.6 498.2c-2.3-4.6-5-14.7-8.1-12.4-2.3 1.8-.6 11 .6 12.7z"/><path d="m723.5 498.9-8.6.3v-.1q-1.4-1.2-2-6.8c-.4-4.3 0-6.2 1.3-7.1q1.8-1.7 3.9 1.6 1 1.8 3 6.8l1.9 4.2zm-1.9-1.3-1.3-3.3a56 56 0 0 0-3-6.6q-1.4-2.4-2.5-1.3h-.2c-.8.6-1 2.2-.7 5.7q.6 4.7 1.3 5.7zm5.7-26.9c8.9 7.5 14.4 11 17.3 11.4 2.9 0 8.5-4.6 17.7-14.6l.7 1c-9.4 10.3-15.3 15-18.4 15q-4.4-.4-17.8-11.6z"/><path fill="#5e0043" d="m728.3 427.7 2.6-4.3 12.7 8.9 12.8-8 2.6 3.5-14.4 14.1z"/><path d="m728 427.3 2.7-4.7 12.9 9 13-8.1 3.1 4.4-15 14.9-17.1-14.9zm1 .3 15.6 13.5 13.6-13.3-1.9-2.7-12.8 8-12.5-8.8z"/><path fill="#474747" d="M718.3 427.3c1 1.9 9 15.5 10.7 26.9 1.5 11.2-.9-15.5-.9-15.5.3.2 9.6 6.8 10.5 11.2.8 4.1 4.5-.1 5-1l-29.3-26.5z"/><path fill="#474747" d="m717.9 427.8-4-4.9q-.3-.4 0-.9 0-.3.3-.3l.3.2 29.4 26.4q.4.3.2.8-.4 1.4-2.8 2.8-1.1.7-2 .4-1-.4-1.2-2.3c-.4-2.7-3.2-5.7-9.4-10.1l.9 10.7.3 6.6q-.2.6-.6.4l-.3-.3-.1-.4q-.2-.5-.4-2.6Q727 443.6 718 428zm1.2-.1a94 94 0 0 1 9.3 21.3l-.8-10.2q0-.7.4-.8h.3c7 5 10.4 8.6 10.8 11.8q0 1 .5 1.2t1.3-.4q1.5-.8 2-1.6z"/><path fill="#474747" d="M768.4 426.2c-.1.2-10.4 19.5-9.4 40.5-2-10-.5-26.5-.4-26.6l-2.4 2.1c0 .3-2.6 13.7-5.5 16.4q-.6-2.4-.4-2.3s-3.3 5.7-3.9 6.4c-.3.9.2 19.3.2 19.5a58 58 0 0 0 2.4 13.5c-1.5 1-3.2 2.5-3.2 2.5l-1.3-36.6 3-4.1c0-.1 3.7-6.6 4.3-13.2a10 10 0 0 1-3.7 2.7c0 .3-.8 8.8-2.1 10.5-1.5 1.5-1.6 3.6-1.7 3.7l-.3-12z"/><path fill="#474747" d="M768.8 426.6a82 82 0 0 0-5.1 12.3 75 75 0 0 0-4.2 27.7q0 .7-.5.7-.4.1-.5-.4a87 87 0 0 1-.6-25.4l-1.2 1.1c-1.8 9.7-3.6 14.9-5.7 16.6q-.6.3-.7-.3l-.3-1q-2.8 4.8-3.3 5.4-.3.3.4 18.8a45 45 0 0 0 1.8 13q.5-.1.6.6 0 .5-.3.6l-3.2 2.5q-.4.3-.7-.2v-.3l-1.4-36.6v-.4l-.4-12.1q0-.4.2-.6l24.4-23 .4-.1.3.3q.1.4 0 .8M745 462l1.2 35.1 2-1.5a60 60 0 0 1-2.1-13.2q-.8-19.3 0-20.2.6-.5 3.8-6.2.2-.3.5-.3.5.2.4.8l.2 1.2a39 39 0 0 0 5-16l2.3-2q0-.2.3-.2t.4.3v.5q-1.1 11-.5 19.1a85 85 0 0 1 7.9-30.4L748 446.3a8 8 0 0 0 3.5-2.5q0-.2.3-.2.5 0 .5.7-.4 6.8-4.5 13.6zm2.6-15.3-3.1 3 .2 8.4q.4-.6 1-1c.8-1 1.5-4 1.9-10zm-.9 10.9.4-.5q3.3-5.6 4-11.2-1.2 1.2-2.5 1.7-.6 7.8-1.9 10m-1.6 2.3 1.3-1.9-.2.2a4 4 0 0 0-1.1 1.7"/><path d="m744.5 449 2 57.7q.1.7-.4.7t-.6-.6l-2-57.7q-.1-.7.4-.8.5 0 .6.7"/><path d="M718.2 475.7q1.3 1.2 2.8 3.7 2.8 4.9 4 12 9.8-.5 16.2 2.7 3 1.6 4.4 3.4a77 77 0 0 1 7-4q7.7-3.7 11.6-3.2 2.2-6 8-14l.7 1q-5.9 8-8 14l-.1.5h-.4c-2.6-.5-6.1.4-11.5 3a77 77 0 0 0-7.2 4.2l-.4.2-.2-.4q-1.2-1.7-4.3-3.4-6.4-3.3-16.1-2.5h-.5v-.6a37 37 0 0 0-4-12 14 14 0 0 0-2.5-3.4z"/><path fill="#b4b6b9" d="m711.3 419.5 32.7 29.7 29.3-27.8c.4-.3 5.6-4.7 5.6-8.2-.7-3.2-2.4-2-3.7-1.3l-26.6 26.2-4.1 4-31.6-27.7c-.2 0-2-1-2.7 1-.3 2 .7 3 1.1 4.1"/><path d="M711 420.1v-.1l-.1-.2-.4-.8a6 6 0 0 1-.8-3.9q.3-1.7 2-1.7.7 0 1.3.3h.1l31.4 27.6c19.6-19.2 29.8-29.5 30.5-30h.2a5 5 0 0 1 2.2-1q1.6.2 2 2.7c.2 2.7-1.4 5.3-5.8 9L744 450zm.7-1 32.3 29.2 29-27.5h.1c4-3.3 5.4-5.4 5.3-7.4q-.3-1.6-1-1.6t-1.9.7c-.7.5-11 10.9-30.7 30.2l-.3.2-31.8-27.9-1-.2q-1 0-1 .7-.3 1.1.6 2.7z"/><path fill="#474747" d="M769.7 411.8c-.6-.3-7.5-4.2-8.4-.3 0 4.2.3 4.6 1.6 7.2 1 2.8-.8 4.3-1 4.5l-.8-3c-.8-1.7-4.6-3.1-5.4-5.1-.2-2.5.8-5.3-1.7-6-2.9-.2-5 1.4-5.8 5.8-.7 4.2-4 14-4 14l.4-22.3c6 .6 16.8 2 25.2 3-2.2-.3.7.2 1 1.4-.4 1-1.1 1.1-1.1.8"/><path fill="#474747" d="M769.3 412.4q-2-1-4-1.6-1.6-.6-2.6-.3-.8.1-.9 1 0 3.9 1.5 6.8 1 2 0 4-.5 1-1.2 1.5-.4.3-.7-.3l-.8-3q-.2-.6-2.2-2-2.9-1.9-3.1-3.3l-.1-2.3q0-2.9-1.2-3.1c-3.2-.3-4.6 1.1-5.3 5.2q-.6 4.3-4 14.2-.2.6-.8.3-.3-.1-.2-.6l.4-22.3q0-.7.6-.7l23 2.8 1.1.1h.2l1 .2q.3 0 .4.5.8.7.8 1.6v.1q-.3 1-1 1.4h-.5zm-16-4-8.2-1-.4 18.2q2.5-7.5 3-10.9.4-3.2 2.3-5 1.4-1.4 3.3-1.4m8.5 1-7.3-.8c1.3.5 1.8 1.7 1.7 4.4v2q.3.8 2.6 2.3 2.5 1.7 2.8 2.7l.5 2.2.4-.6q.6-1.1 0-2.4-1.6-3.3-1.7-7.6 0-1.5 1-2.1m8 1.8h.2l.2-.3-1.2-.6h-.2l-1.2-.2zm-29.7-4.2c-1.7 0-8.8 1.2-11 2.6-1.3 1.7 2.6 3.7 2.5 6-.6 2.3-.7 5.6-3 5.2a34 34 0 0 1-10.6-8.3c-.4-1.8-1.8-2-1.9-2s22.8-3.6 24-3.5"/><path fill="#474747" d="M740.2 407.6a33 33 0 0 0-10.8 2.7v.2l1.1 1.4q2.2 2.4 1.7 3.8l-.4 1.5q-.9 4.9-3.3 4.1-2-.9-6.2-3.8-4.4-3.5-4.7-5-.2-1.3-1.4-1.4l-.4-.2-.1-.6q0-.5.4-.6 23-3.7 24.2-3.5l.3.3v.5q0 .5-.5.6m-11.3 1.5-10.7 1.7q.4.6.5 1.5t4.2 4q4 2.9 6 3.7 1.4.5 2-3.2l.5-1.7q0-.5-1.4-2.1l-1.3-1.8q-.3-.6-.2-1.2t.4-.9"/><path d="m744.3 404.3-.1 27.3h-1v-27.3zm-15.5-32-9.3 20.7-1-.5 9.4-20.9z"/><path fill="url(#d)" d="M745.2 371.5c.1.3 3.6 7.3 3.5 9.5 1.5 2 3.4 8.5 3.5 8.7z"/><path d="M745.6 371.1q3.6 7 3.7 9.6 1.5 2.1 3.3 8.7l-1 .5a25 25 0 0 0-3.2-8.3l-.3-.3.1-.5q.3-1.7-3.4-8.8z"/><path d="M761 370.4a152 152 0 0 0-8.3 17.4l-1 .4a99 99 0 0 1 8.5-18.6zm-44.5-79.2q-.5 1.4-2.4.7-2-1-1.8-2.6.5-1.5 2.5-.7 1.8 1 1.7 2.6m3.5-.3q.5 1.5 2.4.9 1.9-1 1.8-2.5-.5-1.5-2.5-.9-1.8 1-1.7 2.5"/><path fill="#ff7000" d="M820.7 629.8c-.2.1-3 1.3-3 1.6-.6.3-8.9 1.6-9.6 1.5-.3-.1-1.3 2.1-1.4 2.3l1.5-1.4c.2.2 2.2 2.7 3 2.7.7-.2-.2 1.1 0 1.5.2.2.8-.5.8-.6l15.5-2.3z"/><path d="M820.6 629.2h.4l6.8 5.3q.3.1.2.6v.5l-.5.2-15.3 2.3q-1 1-1.4.5t0-1.4q-1-.3-2.6-2.5l-1.2 1q-.2.3-.5.1-.5-.3-.2-1l1.2-2.2.3-.3q.6-.4.8.2v-.2l1.1-.1a58 58 0 0 0 7.6-1.3l.2-.2.4-.3zm0 1.4-1.4.5-1 .6h-.1l-.2.3-.2.2-.4.1-1 .3a56 56 0 0 1-7.5 1q1.9 2.4 2.3 2.3.3-.3.6 0 .3.1.3.8l13.9-2zm-2.5 1v-.5z"/><path fill="#ff7000" d="m826.5 635.7-12.7 2s-3 4.3-3.4 5.3c0 1 2 1 2.1 1l.7 3.2 1.6-1c.2 0 10.6.8 20.7-3.5q7.5-5.1 2.3-7.4c-3.6-.9-11.1.4-11.3.4"/><path d="M826.5 635h.2l.4-.1q7.8-1.2 10.9-.2 1.5.4 2 1.3.8 1.1.3 2.5-.8 2.3-4.7 4.8-9.9 4.5-20.7 3.6l-1.5 1q-.5.2-.7-.5l-.6-2.7-.8-.1-.9-.4q-.6-.5-.5-1.3a27 27 0 0 1 3.9-5.9zm0 1.4-12.5 2a37 37 0 0 0-3 4.6l.5.2 1 .1q.4 0 .5.5l.6 2.4 1-.6.3-.1q10.6.9 20.4-3.5 3.5-2.1 4-4 .2-.4 0-1-.6-.6-1.6-1a28 28 0 0 0-11.2.4"/><path fill="url(#e)" d="m783.1 675.4 22.8-3.2-4.2-4.6q30.3-4.4 61.6-12.3l-2.1-6.3q-34 8.6-69 13.1l8.3 4.6-18.7 2.2.6 2.6h-4.9c.2.1 5 2.6 5.6 3.9"/><path d="m783.2 676-.5.1v-.6c-.3-.6-1.8-1.6-5.4-3.3l.2-1.4h4.2l-.5-2.5 17.1-2-6.3-3.5.1-1.4a603 603 0 0 0 69.4-13.2l2.6 7.6A595 595 0 0 1 803 668l4.2 4.5a701 701 0 0 1-24 3.5m17.3-9q30.6-4.4 62-12.3l-1.7-5q-32.8 8.2-66.5 12.7l6.4 3.6zm-17.1 7.5 21.2-3-4-4.3-.1.1-18 2.1.6 2.7h-2.8q2.4 1.4 3.1 2.4"/><path fill="url(#f)" d="M808.7 501.3c-2.1-1-9.5-1.6-18.7 6.8l.4 28c.3-.3 12.8-10.2 19.4-9.2-.4-8.6-.4-19.7-1.1-25.6"/><path d="m808.9 500.7.2.1v.4q.6 3.8.9 16.4l.3 9.2v1l-.7-.2c-2.7-.5-6.3.7-11.7 4a74 74 0 0 0-7.3 5l-.7.7-.4-29.5.2-.2q6-5.6 12.2-7.1c3.3-.7 5.3-.6 7 .2m-.7 1.1q-2-.9-6.2 0-5.8 1.5-11.5 6.7l.4 26.4q3-2.3 6.6-4.6 7.6-4.6 11.7-4.2l-.2-8.3q-.3-12-.8-16M683 588.2l-53.7 68.1-.7-1 53.7-68.1zm24 1.7-43.6 75.8-.8-1 43.6-75.7zm-2-20.5-58 92.1-.8-1 58.2-92zM644.4 659l5.7-8.5.7 1-5.6 8.4zm71.9-41-22.6 41.6-.8-.8 22.6-41.6zm-23.5 46.7.6 16.3h-1l-.6-16.3zm33.8-31.5-24 40.2-.8-1 24-40.1zm-5.1 36.8 9.7-21.6.9.7-9.8 21.7zm4.5-25.1-11.7 17.8-.8-1 11.7-17.8zm-3.5-17.1-8 13-.8-.8 8-13.1zM712.1 608c-16.2 31.9-24 48.5-23.9 51.1l-1 .1c-.1-3 7.7-19.9 24-52zm-2.7-6.2q-.5.5-20.9 36.3l-.8-.9q20.6-36 21.2-36.6zm-22 48-3.7 5.8-.8-1 3.7-5.8zm-8.4 14.8-5.7 9.7-.8-.9 5.7-9.7z"/><path fill="#8a9396" d="M680 475.5c0 .2-1.4 6.7 0 10.6 1.2 2.7 7.3 19.6 10.3 28l1.7 5c.2-.4 7-11 9.7-11.8 2.4.7 1.4 30.2 1.4 31-.3.2-4 4.7-6.8 4.7-2.4.1 6 12.2 6 23.2-.3 11.2-11.7 62-16 63.5-3.9 0 1.5-9 1.7-12.5-.4-2.8-1.2-1-2.3-4.3-.7-3.3 1.1-8 1-11.2-.8-3.2-2.5-2.8-3-5 0-2.3 1.3-2.8 1.3-5.4-.6-2.5-2.6-2.1-2.6-4.3.2-2.3.4-1.3.2-5.5-.3-3.7-.7 2.2-3.3 3-2.6.9-4.6 7.5-4.7 8-.3.6-4.8 9-10.4 4.7 3 9.5.8 12.7-.4 13.1-.9.9.6 6.5-2 7.3-2.4 1 1.8 14.5-1.1 16.3 3.3 2.8 1 5 .7 5.2-.3 0-7.7.2-6.4 14.9-24-14-35.6-35.1-35.5-55.5.3-20.5 5-37.7 16.5-43.5 3.3-16.4 9-33.8 9-33.9 0 0-.9-7.4-.3-12.2 1-4.8 4-9.2 4-9.3 0 0-.4-11.6-.3-17.4.4-5.7 1.8-8.2 2.2-11.3.1-3.5-.5-19.4 1.6-22.4 2.6-2.4 6.7-2.2 9.2-3.7 2.5-2 5.3-4.7 8.5-4.5 3 .9 5.5 3.5 5.6 3.7.6 0 10.8.8 12.3 6.9.4 6.3-2.2 8-2.4 8.2 0 .3 1.5 8.5-5.4 16.4"/><path fill="#2b2b2b" d="M680.5 476q-1.5 6.4 0 9.8 1.6 3.6 11.6 32c4.7-7.5 7.7-10.9 9.5-11.2 1 .1 1.5 1.5 1.9 5.4q.3 3.8.4 10.7l-.3 15.6v.3l-.2.1c-3 3.7-5 5.1-7 5v.4l1.6 3.9q5 11.9 4.9 18.2-.2 9-6.5 35.7c-4.5 18.8-7.7 27.8-10 28.5q-1.2.1-1.7-.7-.4-.9-.3-2.3.3-1.5 1.7-5.3a21 21 0 0 0 1.4-4.8q0-1.1-.6-1.5a5 5 0 0 1-1.7-2.7q-.5-2 .4-6.6.7-3.4.5-4.7-.2-1.5-1.4-2.5a4 4 0 0 1-1.4-2.5q0-1.4.6-3a5 5 0 0 0 .6-2.5q-.2-.9-1.2-1.7-1.6-1.2-1.4-2.8l.2-1.4v-3.3q-1.3 3-2.7 3.1c-1.6.3-2.9 2.4-4.3 7.6v.1q-1.5 2.5-3.4 4.4c-2.5 2.1-4.3 2.5-6.5 1.4a22 22 0 0 1 .9 8.7q-.7 3.3-2.2 3.6v2c0 3.6-.5 5-2 5.3q-.4 0-.4 1.6 0 1.3.4 4.9c.5 4.9.4 7.6-.3 9q1.8 1.8 1.3 4-.4 1.1-1.2 1.9l-.1.1h-.1q-2 0-3.6 1.8c-2.3 2.6-3 6.3-2.3 12.3v1.2l-.7-.4a76 76 0 0 1-27.1-25.6q-9-14.7-8.8-30.6.2-16.4 4-27.6 4.4-12.2 12.5-16.4 3.3-16.3 8.9-33.5-.9-7.4-.2-12.3.7-4.8 4-9.4-.4-11.4-.3-17.1.3-3.6 1.4-7.8l.8-3.6v-4.4c0-11 .6-16.8 1.8-18.4q1.4-1.7 5.5-2.5 2.8-.6 3.7-1.3l1.5-1.2c3.3-2.6 5.4-3.5 7.3-3.3q3.2.5 5.8 3.6 2.9.3 5.8 1.2c4.3 1.5 6.2 3.3 6.8 6.3q.4 4.2-1 7-.6 1-1.3 1.7.3 2.2-.1 5.1-1.1 6.5-5.5 11.3m-.9-.6v-.2l.2-.2q4.2-4.5 5.2-10.6.4-3 0-5v-.6l.3-.2c1.8-1.5 2.4-3.6 2-7.5-.4-2.4-2-3.8-5.9-5.2q-3-1-5.8-1.1h-.1l-.2-.2q-2.5-2.9-5.4-3.5-2.2-.3-6.6 3.2l-1.5 1.2q-1.1.8-4 1.4-3.9.9-5.1 2.3c-1 1.3-1.6 6.8-1.5 17.3v4.6q-.1 1.4-.9 4-1 4-1.2 7.3-.3 5.8.2 17.4v.3l-.1.2q-3.2 4.4-4 8.9-.5 4.6.3 12v.4a312 312 0 0 0-9 33.7v.4h-.2c-5.4 2.8-9.3 7.8-12.2 16a89 89 0 0 0-4 27q0 15.4 8.5 29.6 9.2 14.8 26 24.7c-.5-6 .3-9.7 2.7-12.4q1.9-2 4-2 .5-.6.7-1.3.4-1.4-1.4-2.7l-1.2-.9 1.3-.4c.8-.5 1-2.8.3-8.3l-.4-5.1q0-2.9 1.3-2.9c.9-.2 1.2-1.2 1-4q0-3 .9-3.2t1.4-2.7q.5-3.6-1.3-9.5l-.8-2.3 1.5 1.4c2.2 1.9 4 1.7 6.6-.5q1.8-1.6 3-4c1.7-5.6 3.1-8 5.2-8.3q1 0 2.2-3 .5-1.4.9-1.3.6 0 .7 2a24 24 0 0 1-.2 5.6q0 .6.8 1.3 1.6 1.2 1.8 2.9 0 1.4-.7 3.3-.6 1.2-.5 2 0 .7 1 1.5 1.4 1.4 1.8 3.5.2 1.6-.5 5.4-.9 4.1-.5 5.7.5 1.3 1.2 1.9 1 .7 1.2 2.6 0 1.3-1.5 5.6l-1.6 5v1q.2.3.9.2c1.8-.6 4.7-9.3 9-27.6q6.4-26.4 6.6-35.3 0-5.9-4.8-17.5l-1.6-4q-.3-.9-.2-1.5.2-.9 1-.7c1.7 0 3.5-1.2 6.3-4.5q.3-7.7.2-15.3 0-6.7-.3-10.5-.4-4.1-.8-4.1c-1.6.3-4.5 3.8-9.3 11.5l-.5.8-.3-1a973 973 0 0 0-12-32.8q-1.7-4 0-11.2"/><path fill="#cecfcf" d="M669.8 452.5q.3 1.6-2 3.4-2.2 1.3-3.1 0-.4-1.7 1.8-3.5 2.4-1.3 3.3 0"/><path fill="#2b2b2b" d="M670.2 452.2q.9 2.4-2 4.3-1.3.8-2.3.8-1.2 0-1.7-1.2t.3-2.4 1.8-2q1.2-.6 2.2-.7 1.3 0 1.7 1.2m-.9.6q0-.4-.7-.4-.9 0-1.8.6-2 1.4-1.7 2.5t2.5-.2q1-.8 1.5-1.5.3-.7.2-1"/><path d="M667.8 454q0 1-.9 1-.8-.3-.8-1.2 0-1 .8-1 .8.1 1 1.1"/><path fill="#2b2b2b" d="M685.3 465.7q.6 4.5 1 10.4.5 11.9-1.6 19.3l-.5-.3q2.1-7.4 1.6-19-.4-6-1-10.2zm.8-7.7q1.4 2.6 2.7 6.9 2.7 8.4 2.2 16.3l-.5-.1a47 47 0 0 0-4.8-22.7zm.4-2.3q.4 0 2.5 3.4 2.3 3.9 2.2 6.3h-.5q0-2.2-2-5.8-2-3.2-2.2-3.2zm1.2-2a15 15 0 0 1 3.8 6.2l-.4.2q-.8-2.8-3.7-6z"/><path d="M686.5 452.5a135 135 0 0 0-5.3 13.6A67 67 0 0 0 677 491l-1 .1q-.8-9.8 4.3-25.6 2.5-7.8 5.4-13.8z"/><path fill="#2b2b2b" d="M687 451.7a33 33 0 0 0-7.6 10.1 100 100 0 0 0-9.6 38.9l-.5-.1q1.8-24.1 9.7-39.2 4-7.5 7.7-10.3z"/><path d="m685.5 459-5.8 5.5-.6-1.1 5.8-5.5z"/><path fill="#2b2b2b" d="M663.9 502.3q2-11.4 5.8-23.4c5.3-16.3 10.7-25.2 16.8-27.9l.2.7c-6 2.6-11.3 11.4-16.5 27.5q-3.8 12-5.8 23.3zm28.3 17.5c.3-.4 7.6-12.1 9.6-12.3 1.5 1.3 1.2 30.2 1.2 30.8-.2.2-5.6 5.1-7 5.3-.9.4 6.1 14.1 6.3 20-.2 5.4-.3 5.4-.4 5.4 0 0 0-3.1-1.8-8.5-1.7-5.3-.8-10.9-12.4-24.7-2.3-7.5 5.2 4.2 7.6 3.4 1.3-2.4-3-18.8-3-19.4"/><path fill="#2b2b2b" d="M691.8 519.4c5.5-9 8.5-12.7 10-12.6 1.5.8 2 10.8 1.7 31.5v.4l-.2.2a26 26 0 0 1-6.8 5.4l.2.5 1.5 4a53 53 0 0 1 4.6 14.9l-.4 4.8v.5q-.2.7-.5.7h-.5v-.7q0-3-1.7-8.2l-1-3.6q-1-4.8-2.6-8.1-2.8-5.6-8.7-12.8l-.1-.1v-.1q-.6-1.7-.7-2.6 0-.6.3-1 .3-.2.8 0t2.8 2.6q4 4 4.4 3.5c.6-1 0-5.8-2.5-15.8q-.8-2.9-.6-3.4m4.8 28.2-1.2-3.5v-.7q.1-.6.7-.5 1 .2 6.4-5c.3-19.7 0-29.2-.8-29.7-1.1 0-3.9 3.5-9 11.8l.1.4.5 2c2.6 10.6 3.3 16 2.3 17.3-1 .6-2.5-.3-5.7-3.5q-1.5-1.8-2.2-2.2l.4 1.4q5.7 6.7 8.5 12.2m5.2 16.6v-.7q0-2.5-3.3-11 .8 2 1.2 4.4l.9 3.4zm-23.2-119.3q-2.9.9-3.4 2.3-.4 1.5-1.7 2.7-1.4 1-2.3.5-1.2-.9-3.1-3.2l.6-1q2 2.3 2.8 2.9.5.3 1.5-.4a4 4 0 0 0 1.3-2q.6-2.1 4-3.2zM660 458.3c-.4.5-4.4 5.6-2.6 7.3 2.6.4 4.7-4.4 5-4.9 0 .8-.2 9.3 2 8.9 2-1.5 8.1-6.8 8.1-6.8l2.6.1c.7.7 5.2 6 9 4.7-2.2 6.7-4 7.3-4.2 7.4-.2.4-3.3 5.4-8.1 4.3-4.6-2-5.7-4.4-5.8-4.5-.2 0-3.5 0-5-2.5l-1.6-4c-.2.3-2 2.7-2.8 1.4-.5-1.9 0-9.1 3.4-11.4"/><path fill="#2b2b2b" d="M660.3 458.8q-1.2 1.5-2 3.2-.8 1.4-1 2.2 0 .6.3.7c1.4.4 2.6-.8 4.3-4.6q.3-.5.7-.2t.2.7a51 51 0 0 0 .9 7.7q0 .4.2.5h.2a124 124 0 0 0 8.4-7 8 8 0 0 1 2.7.3l.7.7c3.8 3.7 6 4.8 8 4q.1-.2.4-.1l.2.4v.6c-1.4 4.7-2.7 6.9-4.3 7.7q-1 1.6-2.3 2.8c-2.3 1.8-4 2.2-6.2 1.5q-4.4-1.7-6-4.4c-2.7-.1-4.1-1-5.1-2.8l-1.4-3.2-.7.7q-.7.5-1.2.6-.8.2-1.2-.8-.6-1.7.2-6.1 1-4.9 3.4-6.2h.5l.2.4zm-3.5 7.2a8 8 0 0 0 .1 3.4h.1q.3 0 .8-.4l1.3-1.3q.5-.2.6.4.4 1.4 1.6 3.9 1 2.1 4.6 2 .3 0 .5.4 1 2.5 5.4 4.2c1.9.6 3.4.2 5.4-1.4q1.4-1.2 2.2-2.7l.3-.2c1.2-.5 2.2-2.1 3.4-5.7-2.1.1-4.4-1.1-7.9-4.5l-.4-.5q-.4-.2-2.2-.2-6 5.4-8 6.8-.7.4-1.2 0-.4-.3-.8-1-.4-1.3-.6-3.4l-.2-2.8q-2.4 4.2-4.6 3.2z"/><path fill="#2b2b2b" d="M687.5 451.7q-2.2-1-4.8-1.3c-3.5-.3-5.4.4-6.8 2.7q-2 3.9-2 6.5 0 2 1 2.4l-.3 1.4q-1.7-.8-1.8-3.8.1-3.2 2.3-7.4c1.6-2.6 3.8-3.5 7.6-3.2q2.8.3 5 1.4z"/><path d="M689 450.8q-.1 2.3-1.7 2.5-1.5-.4-1.7-2.7.1-2.4 1.7-2.6 1.5.3 1.7 2.8"/><path fill="#2b2b2b" d="M662.8 480.4c0 .2 3.7 7.6 8 10.5 4.1 2.8-2.7 3.3-7.4-.7-3-6.4-2.4-10.2-2.3-10.4 0 0 .7-1 1.7.6"/><path fill="#2b2b2b" d="M663.2 480a23 23 0 0 0 9 11.2q.7.8.4 1.5-.4 1-2.2 1-4 .2-7.3-3l-.1-.1a18 18 0 0 1-2.4-11v-.2q.4-.5.9-.6.9-.2 1.7 1.2m-.9.7q-.3-.6-.6-.5h-.2q-.5 3.8 2.2 9.5c2.1 2 4 2.7 6.6 2.7q1 0 1.3-.2l-1-.7c-3-1.9-5.6-5.2-8.3-10.8m32 47.4c-.2-.2-10.5-19.7-13.4-21.4-2.7-1.5 2-1.5 5.5 2.5 3.4 4-.8-6.6-.9-6.8z"/><path fill="#2b2b2b" d="M693.8 528.5q-10.2-19.9-13-21.2l-.9-.5-.3-.5q-.1-.5.1-.9.4-.5 1.7-.2a9 9 0 0 1 5.6 4l-.3-1.5-.6-1.8-1-3.2.9-.6 1 3.3 7.7 22.5zm-2.3-6.7-3.7-11q-.4.2-.7 0l-1-1a8 8 0 0 0-4-3q2.8 2.8 9.4 15m-29.7 117.5c4.2-.6 20.9 14.8 25 19.1 4.5 3.7 11.7 2 12.1 2 0 0-3.7 2.7-6 3.6-2 1 6.6 1 6.9 1-.4.2-21.7 7.1-44.6-10.8-1.6-12.9 4.6-14.8 6.6-15"/><path fill="#2b2b2b" d="M661.7 638.6c2-.3 6 2 12.9 7.8q7.4 6.2 12.6 11.5c2.7 2.5 6.1 3 11.6 1.8q.5 0 .6.6 0 .4-.2.7a31 31 0 0 1-4.6 3h.8l4.4.4q.5 0 .5.7t-.4.7a41 41 0 0 1-14 1.4 54 54 0 0 1-30.9-12.4l-.2-.5c-.9-5.9-.3-9.8 2-12.9q2.2-2.9 4.9-2.8m.2 1.4h-.1q-2.4-.1-4.3 2.5c-2 2.6-2.5 6-1.8 11.2a53 53 0 0 0 39.5 11.7q-1.7 0-2.3-.3-.7-.1-.9-.6v-.8l.3-.3.4-.1q1.4-.4 3.4-1.7c-4.3.4-7-.4-9.5-2.7a174 174 0 0 0-12.5-11.4c-6.7-5.5-10.5-7.8-12.2-7.5M687 532.6c-.1 0-2.7-1-4.4-3.4-1.4-2.5-3.7-8.2-5.8-10.8-2.4-2.8-13-11.2-17-11.4-4.1 0-5.2-1-5.7-1.8-.7-.6-2 0-1.9 3 0 2.8-2.7 8.5-1.8 11.7 1.3 3.2 7 15 8 15.8.9 1 .4 6.5.4 6.9 0 .1 5.1 7 6.3 7.8 1.3.6 2.4 1.8 2.4 3.5-.4 1.7-5.5 10.1-5.5 10.2-.3.2-5.3 3.6-5.9 6 0 2.5 1.4 6.9 6 9.2 5.1 1.8 16.4 1.5 17.6.2.6-1.7 1.5-9.8 1.2-11-.6-1-3.3-3.4-5-3.4-1.6.4-2.8 1.8-2.8 2.3s-2 1.8-2.2.3a21 21 0 0 1 5-7.6c.8.6 6.4 2.1 8.1 6.5 1.2 4.8 1.3 7.4 4.6 7.4 3.6-.5 8-4.1 8.6-13.1.2-9-3.7-14.9-4.9-16a25 25 0 0 1-4.9-5.5c-.2-1.5-.8-5.6-.4-6.8"/><path fill="#2b2b2b" d="m687.1 531.9.8.2-.5.9q-.5 1 .5 6.3.3 1 4.7 5 1.4 1.4 3.2 5.3a28 28 0 0 1 2 11.3c-.4 4.4-1.4 7.5-3.4 10.3q-2.5 3.2-5.7 3.5-2.1 0-3.2-1.5-.6-1-1.4-4.2l-.5-2.2c-.8-2.1-2.6-3.7-6.6-5.4l-1.2-.6-.5.6a26 26 0 0 0-3.9 6.3h.5l.6-.5q.1-.7 1-1.6 1.1-1 2.3-1.2 1.3-.2 3.3 1.4 1.8 1.4 2.3 2.4.4.8-.2 5.7-.5 4.7-1 6c-.7.9-2.9 1.3-7.8 1.4q-7 0-10.4-1.4-3.2-1.4-5-4.7-1.5-2.7-1.4-5.2c.2-2 2-3.8 6-6.5q5.2-8.3 5.4-9.7.1-1.8-2-2.7-1.4-.6-6.6-8l-.2-.3v-.4c.5-4 .4-5.7 0-6q-.9-.6-4.2-7.3-2.8-5.7-4-9-.8-2 .8-7.5 1-3.4.9-4.4-.2-2.3.8-3.4t2 0q1 1.7 5.1 1.5 2.9-.1 9.5 4.7 5.8 4.2 8 6.8 1.5 1.7 4 7.2l2 3.8q1.4 2.2 4 3m-.8 1.2q-2.6-1.1-4-3.4l-2-3.9q-2.6-5.3-3.8-6.8-2.2-2.6-7.8-6.7-6.5-4.6-9-4.5-4.3.1-6-2-.2-.1-.5.2-.6.7-.5 2.2.1 1.4-1 5.1-1.4 5-.9 6.4a155 155 0 0 0 7.7 15.4c1 .7 1.3 2.7.8 7.4q4.9 7 5.9 7.4c2.1.9 2.9 2 2.8 4.2q-.2 1.9-5.6 10.6h-.1v.1c-3.9 2.5-5.5 4-5.7 5.4q0 2 1.2 4.3 1.6 3 4.4 4.2 3.3 1.3 10.2 1.3c4.5 0 6.5-.3 6.9-.8q.4-1 1-5.4.3-4.4.2-4.8-.3-.7-1.9-2-1.7-1.3-2.6-1.1a4 4 0 0 0-2.4 1.6q0 .6-.5 1l-.9.5q-.6.3-1 .1-.8-.3-.8-1.3 0-1.5 2.5-5l1.7-2.4q1.1-1.3 1.7-.6l1 .4c4.3 1.9 6.3 3.7 7.2 6.3l.6 2.3q.6 2.8 1.1 3.6.8 1.1 2.4 1c2-.2 3.4-1.2 5-3.2q2.8-3.5 3.1-9.3.2-5.5-1.8-10.6-1.5-3.6-2.8-4.8-4.8-4.2-5.1-5.8-1-4.6-.7-6.6m-10.5 27.8-.3-.2zm-3.2 6.6"/><path fill="#2b2b2b" d="M625.8 566.4c.1 0 10.9-2.4 13.8-2.3a51 51 0 0 1 16.6 12.7c3.3 4.7 9.4 14.2 13.7 14.2 4.2-.6 5.3-1.6 5.4-1.6l-1.7 4.1s-3.2.9-5 .3c-1.8-.8-4.9-2.4-8.4-7.1-3.5-5-13.4-17.2-22.3-17.7-8.8.5-13.5 10.7-13.7 11 0 0 .2-5.6.4-6.8s-1.8 2.4-1.8 2.5z"/><path fill="#2b2b2b" d="M625.7 565.8a58 58 0 0 1 14-2.3q2.2.4 8.3 4.8 6.3 4.8 8.6 8l1.4 2c5.8 8.5 9.5 12 11.8 12q4.1-.6 5.2-1.5l.7 1-1.7 4.3-.2.1c-2.5.7-4 .8-5.4.3q-4.8-2.1-8.6-7.4a73 73 0 0 0-9-10.5c-5-4.6-9-6.7-12.9-7q-5.2.1-9.8 5.5a26 26 0 0 0-3.5 5.4l-1 2.2V580l.2-5-.6 1.1-.9-.8 3.1-9.5zm-1.2 6.4h.3q.4.3.4 1l-.1.3q-.3.8-.4 4.3l2.7-3.8c3.4-3.9 6.6-5.6 10.5-5.7q5.8.1 13.4 7.2 5 4.8 9.3 10.7 3.6 5 8 7 1.7.5 4.7-.3l.8-2.1q-1.4.6-4.1 1c-2.7 0-6.6-3.7-12.7-12.5l-1.4-2q-2.3-3.2-8.3-7.8a27 27 0 0 0-8-4.7 57 57 0 0 0-13.4 2.3z"/><path fill="#2b2b2b" d="M666.2 582a24 24 0 0 0 7.3 1.6c4.6 0 6.8-2.1 7-2.3l-.3-2.4.7-3.3s3.2 5 3.4 6c-.2 1-1.4 1.2-1.4 1.3l-.5-2.4-1.2 2c-.4.3-6.3 6-10.2 5.3-3.9-1.6-6.6-4.4-6-5.5.9-.6 1.3-.4 1.2-.4"/><path fill="#2b2b2b" d="M666.7 581.6q1 .8 6.8 1.3c2.9 0 4.7-.5 6.4-1.9l-.3-2.2 1-4.6.6 1a20 20 0 0 1 3.6 6.5q-.2 1.4-1.8 1.8l-.5.1-.4-1.6-.6 1c-4.8 4.7-7.9 6.3-10.7 5.5q-2.6-1-4.8-3.1l-1.4-1.7-.3-1q-.1-.7.4-1l.4-.3-.2-.3.8.1h.6zm-.7 1-.8.3h.2l1.1 1.4q2 2 4.6 2.8c2.4.7 5.2-.8 9.7-5.2l.1-.1-.1.1c-1.9 1.8-4 2.5-7.3 2.3-4.3-.3-6.5-.9-7.5-1.6m15-1 1.5-2.5-1.4-2.2-.4 2zm1.6-2.4.6 2.8q.5-.2.6-.5 0-.4-1.2-2.3m-32.4 14c-.1 0-3.8-.3-5.7.5-1.8 1.1-2.4 2.2-3.6 2-1.3-.5-2-2.3-1.8-3.3.7-1.4 2.7-2.6 7.3-1.9 4.4 1.1 3.9 2.6 3.8 2.7"/><path fill="#2b2b2b" d="M650.2 594q-3.8-.6-5.5.4l-1.6 1.1q-1.4 1.1-2.3 1-1-.3-1.8-1.9-.7-1.4-.3-2.6c1.1-2.3 3.2-3 7.7-2.2q2.9.6 4 2 .6.9.3 1.7l-.2.4zm-.8-1.6q-.8-.7-3-1.2-5.8-1.1-6.8 1.6-.1.3.2 1.1.5 1 1.2 1.2.4 0 1.6-.8l1.7-1.2a10 10 0 0 1 5.1-.7m14.7 16.7c0-.5-.5-7.7-2.5-11.2-2.4-3.2-4.7-3.5-6-3.2-.7.6 3.9 3.9 5 6.4a55 55 0 0 1 1.9 10.1c-.7 1-1.4-3.9-5-6.4-3.8-1.8-7.7-1.6-7.2.7 1.4 2 4.5.9 6.9 5.4 1.9 4.7 3.4 9.6 3.4 9.6l.7-3.2 1.7-.5.2-6.3z"/><path fill="#2b2b2b" d="m664.6 609.4-.8 1.4-.3 6.6-1.8.5-1 4.8-.5-2q-1.5-4.8-3.5-9.5-1-2.6-4.2-3.5-2-.6-2.6-1.9-.6-1.4.3-2.2.7-.6 2-.7 2.9-.2 5.5 1.2 2.3 1.4 4.3 5.7v.2q-.1-2-1.6-7.3l-.3-1.4q-.3-1-3.2-3.8l-1.5-1.6-.5-.8v-.8q.3-.3.5-.3c2.6-.4 4.5.5 6.6 3.4q1.5 2.3 2.2 7.1.4 3 .4 4.7zm-2.2 2.7q-.3 0-.6-.3l-.7-1.3q-1.8-4-3.7-5a9 9 0 0 0-5-1.2q-1.1 0-1.6.5-.1.1 0 .4.2.5 1.9 1.1 3.6 1.2 4.9 4.2l3 8 .2-1.8 1.7-.5.2-4.2zm1.2-3.3-.4-4q-.7-4.5-2-6.4-2.2-3.3-4.9-3.2l1.2 1.2q3.1 3 3.5 4.5l.4 1.4a61 61 0 0 1 1.6 7.5z"/><path fill="#2b2b2b" d="m661.3 633.6-3.6-10.1c-.1-.3-1.3-6-4.2-8.4-3.4-2-6.7-2.1-7.2 0 .5 2 6.2 5.5 7 6.6.4 1.4.2 3-.4 3.2-.6-.1-3.4-1.6-5-1.5-1.5.6-2.2 2.6-4.5 2-2.2-1.7-3.8-10.2-3.1-11.7.6-.7-1.4 1.4-2.2-1-.3-2.7.4-10-.1-11.3-1-1.1-4.7-5-5-5.6 0-1-.2-37.8 23.3-4.8-10-16.9-13.7-15.7-15.6-16-1.7 0-10 0-12.6 15.5-2.6 15.2-5 5.5-5 5.3 0 .4-.2 6.3 2 9 2 2.6-1 7-1.2 7.3 0 0-4-14.8-3.7-21a69 69 0 0 0 4.7 31.6c6.4 9.9 12.4 19 28.4 30.1 8.4-16.8 8-19 8-19.2"/><path fill="#2b2b2b" d="M661.7 633.4v.2q.1 3.2-8 19.6-.3.5-.6.2a100 100 0 0 1-18-15.6 139 139 0 0 1-10.6-14.7v-.1q-3.7-9.7-4.8-19.6-.8-7.6 0-12.6.1-.5.6-.5.5.2.4.9-.5 5.8 3.3 19.6l1-2q.8-2.4-.2-3.5c-1.8-1.9-2.5-4.7-2.2-9.6q0-.4.3-.6.6-.1.7.5v.1q.3 1.8 1.3 2.6.4.3 1-1 .9-1.9 1.7-7c1-6.9 3.2-11.2 6.9-14 2.2-1.5 4-2 6.2-2l.5.1q6.3.6 15.5 16.1.3.6 0 1l-.4.2-.4-.3q-7.8-11.2-13.1-13.2c-2.9-.9-4.7 0-6.5 2.8q-1.7 3.3-2.5 9.2-.4 4.1-.3 5.6l4.8 5q.6 1 .4 6.4-.3 4.4 0 5.4 0 .6.5.6l.9-.3h.1l.1-.1.4.1q.3.4.2.9l-.3.5q-.4.5.6 5c.8 3.3 1.5 4.8 2.4 5.4q1 .4 2.6-.9 1-1 1.6-1 1.1-.3 4 1l1 .4.2-.6q0-.9-.2-1.6 0-.3-2.3-1.9-4.7-3.4-4.7-5.1.2-2.1 3-2.2 2.5 0 4.9 1.6c2.2 1.7 3.5 4.3 4.4 8.9zm-1 .4-3.5-10v-.2c-.9-4.2-2-6.5-4-8a9 9 0 0 0-4.4-1.4q-1.9 0-2 1c.2.5 1.3 1.7 4.1 3.7a10 10 0 0 1 2.8 2.6q.4 1 .3 2.4-.3 1.6-1 1.7l-1.5-.5q-2.6-1.1-3.4-1l-1.3 1q-1.8 1.5-3.5.9-1.7-.9-3-6.4-.9-3.3-.8-5h-.3q-1.2 0-1.6-1.8V607q.3-4.9 0-5.1-.2-.4-1.8-2a17 17 0 0 1-3.3-4 37 37 0 0 1 3-15.8c2.1-3.4 4.2-4.3 7.5-3.3q2.3.9 5 3.3-3.8-4-6.8-4.3h-.5q-2.9-.2-5.7 1.8c-3.4 2.6-5.4 6.6-6.4 13a34 34 0 0 1-1.8 7.6q-1 2-2.2 1.3-.6-.3-1-1.2 0 4.3 1.7 5.8c1.2 1.4 1.4 2.9.5 5.5q-.6 1.7-1.5 3-.1.3-.4.3l-.3-.3-.2-.3a137 137 0 0 1-3-12.3l.3 3.3a79 79 0 0 0 4.6 19q6.1 9.4 10.5 14.5a98 98 0 0 0 17.3 15.1 84 84 0 0 0 7.7-18.1"/><path fill="#8a9396" d="M646.1 632.4c.3 0 4.3 1.2 6 4.6 1.1 3.4 1.8 8.4 1.8 8.5.8-2.2 1.2-3.8 2.7-5.3 1.6-1.4 2.6-1.5 2.6-2.7-.4-1.5-4.8-8.1-7.4-9.2-2.7-.3-6.6 2.8-6.8 3 0 0-.8 1.3 1.1 1"/><path fill="#2b2b2b" d="M646.1 633h-1q-.7-.3-.8-1 0-.6.3-1.2l.1-.1q4.5-3.8 7.1-3.1 1.8.5 5 4.6 2.8 4 3 5.3 0 1.2-1.5 2.2l-1.4 1q-1.1 1.1-2.1 3.9l-.4 1.2q-.1.3-.4.3h-.4l-.2-.6q-.6-5-1.8-8.2-1.2-3-5.5-4.2m0-1.4c3.5 1 5.3 2.4 6.4 5q1 2.7 1.6 6.5 1-2.5 2.2-3.6l1.5-1.2q.9-.6.9-.9 0-.9-2.7-4.3-2.9-4-4.3-4.3c-1.6-.2-3.4.6-6.2 2.8z"/><path fill="#8a9396" d="M657 649.4a77 77 0 0 0 32.2 10.5l.1.5q0 .7-.5.7a77 77 0 0 1-32.2-10.5q-.4-.3-.3-1l.3-.3z"/><path fill="#2b2b2b" d="M697.7 576.1q-1 14-8.9 41-.1.6-.6.4l-.3-.4v-.6a224 224 0 0 0 9-41q0-.2.4-.1.4 0 .4.7"/><path fill="#2b2b2b" d="M696.1 584.7a39 39 0 0 1-9 17.3l-.6-1.1q6.2-7 8.7-16.6z"/><path d="m660.3 754.3 2-3 .7.8-.2.3-.1.3v.3l.2.3 2.7 3.6.2.2h.2l.2-.2.5-1.1v-1.2l-.3-1.4.8-.6 1.2 3.2-3.3 4.7-.7-.8.2-.3.2-.3v-.3l-.2-.3-2.8-3.6-.2-.3h-.2l-.2.2-.3.4zm4.6-6.6 3.8-5 2 1.5-.4 1-1-.3q-.4 0-.7.2l-.6.6-.7.9 1.1 1.6.2-.3.4-.5v-.3l-.3-.5-.2-.3.6-.7 2 2.8-.7.7-.2-.2-.3-.4h-.2l-.4.4-.3.3 1 1.5.3.3h.1l.3-.3.3-.5.6-1q.3-.7.2-1.3 0-.8-.3-1.4l.8-.5 1 3.2-3.9 5.1-.6-.9v-.2l.4-.4v-.3l-.3-.4-2.5-3.7-.3-.3h-.1l-.3.2-.2.3zm8-10q1.2-1.3 2.6-1 1.3.2 2.2 1.8.7 1 .8 2.2t-.1 2.3-1.1 2q-1.1 1.1-2.3 1.1-1.5-.2-2.5-1.8a6 6 0 0 1-.9-3.5q.3-1.8 1.3-3m.7 1q-.5.6-.5 1.6 0 1.2.8 2.4t1.5 1.5q.7.1 1.2-.4.5-.7.5-1.6a5 5 0 0 0-1.7-3.5q-.6-.4-1-.4t-.8.4m6.4-8.4.5-.4.2.1 3-2.6-.1-.3.5-.5 2 2-.6 1-.7-.5-.8-.2-.5.2v.5l2.2 4.3.2.4.2.1h.1l.4-.4.6 1-2.6 2.4-.5-1 .1-.2.3-.4v-.2l-.2-.5-2.1-4.4q0-.2-.2-.2h-.1l-.4.6-.1 1v1.1l-.8.3zm5.9-4.8 4.6-3.5 1.7 2-.6.9q-.5-.6-.8-.7t-.8 0l-.7.4-.9.6.9 2 .3-.3q.3-.2.3-.4l.1-.3-.2-.6-.1-.3.7-.5 1.4 3.3-.7.5-.1-.3-.3-.5h-.2l-.5.2-.3.2.8 1.8q0 .3.2.3h.4l.4-.5q.5-.3.8-.8l.4-1.2v-1.4l.8-.3.5 3.5-4.8 3.7-.4-1 .1-.2.4-.3v-.3l-.2-.5-1.8-4.3-.3-.4h-.1l-.3.1-.3.2zm6.5-5 3.6-2.3.7-.4h1q.3 0 .7.3t.5.9q.4.9.1 1.8t-.8 1.4l1.9 1.2.4.2h.2l.3-.2.3-.1.4 1-1.9 1.3-3-2.2-.6.3.6 1.6.3.5.1.1.3-.1.3-.2.4 1.1-2.8 1.9-.4-1.2.2-.1.3-.3v-.7l-1.8-4.5-.1-.3-.2-.1h-.2l-.1.1-.3.2zm2.6 0 .8 2 .9-.5.6-.6q.3-.3.3-.7l-.1-.6-.3-.5-.5-.1q-.3 0-.7.4zm4.7-4.7 3.7-2 .8-.4h.9q.4 0 .7.5.3.3.5.9.3 1 0 1.8t-.9 1.4l1.9 1.3.4.2h.5l.2-.2.4 1.1-1.9 1-3-2.4-.5.3.5 1.6.2.5.2.1h.3l.3-.2.3 1.1-2.9 1.6-.3-1.1.2-.2q.3 0 .3-.2v-.7l-1.5-4.6-.2-.4h-.4l-.3.2zm2.6.1.7 2.2.9-.5.7-.6.3-.6v-.7l-.4-.4-.4-.2-.8.3zm7.2-5.2 1.3-.6 3.6 5.6.4.5.5-.1.3 1.1-3 1.4-.2-1.2h.2l.3-.3v-.3l-.2-.4-.4-.6-1.8.8v1.5h.3l.4-.1.3 1.1-2.4 1.1-.3-1.1.4-.2v-.3l.1-.5zm1 4.6 1.2-.6-1.2-2zm4-7 2.8-1 2.2 4.8v-5.6l2.9-1 .2 1.2h-.3l-.3.3v.6l1 4.9.2.4h.7l.3 1.1-3 1.1-.3-1.2h.3l.3-.2.1-.2v-.5l-1.1-5.2v7.6l-1 .3-2.8-6.3 1 5.2.2.3h.4l.3-.1.2 1.2-2.5 1-.2-1.3h.2l.3-.2.1-.3v-.5l-1-4.7q0-.4-.2-.5l-.1-.1h-.3l-.3.1zm13-4.3 3.3-.8h1.1q.5 0 .8.3l.6.7.3 1q.1 1.1-.4 2-.6 1-1.6 1.2l-1 .3.1 1.6.1.4.2.2h.3l.3-.1.1 1.2-3 .7-.2-1.2h.2l.4-.2v-.7l-.6-4.8-.1-.5-.2-.2h-.3l-.3.1zm2.5.9.3 2.4h.6l.7-.4.3-.5v-.7q0-.6-.4-1h-.8zm4.3-2.5 4-.7h.8q.5 0 .9.2t.6.8a3 3 0 0 1 0 2.7q-.5.7-1.2 1l1.5 2 .3.3.3.1h.5l.1 1.2-2 .3-2.4-3.4h-.6l.2 1.8v.6l.2.2h.7v1.1l-3 .6-.2-1.3h.3l.3-.1.1-.2v-.5l-.4-5-.1-.4-.1-.1h-.7zm2.5 1 .2 2.3 1-.2q.6 0 .8-.3.3 0 .4-.4v-.7l-.1-.6-.4-.3h-.8zm9.2-2.8q1.5 0 2.5 1 1 1.3 1.1 3.3 0 1.4-.3 2.4-.5 1-1.2 1.7t-1.8.7a3 3 0 0 1-2.4-.8 5 5 0 0 1-1.2-3.4q0-2 .8-3.4 1-1.4 2.5-1.5m0 1.4q-.7 0-1.1.9t-.4 2.5q0 1.5.6 2.3t1.2.6q.7 0 1-.8.5-1 .5-2.4 0-1-.3-1.8l-.6-1q-.4-.3-.8-.3m4.8-1.6h3.4l1.1.1q.4.1.7.6l.5.8.2 1.1a3 3 0 0 1-.7 2q-.7.6-1.7.7h-1.1v2.1l.1.1h.6v1.3h-3v-1.2h.6l.1-.2v-6.1h-.7zm2.4 1.4v2.5h.5l.8-.1.3-.5.2-.7q0-.6-.4-1l-.7-.2zm4.6-1.4 4 .2.8.2a2 2 0 0 1 1.4 1.3l.1 1.1q0 1-.6 1.6-.6.5-1.3.8l1.2 2.2.3.4.2.2h.6v1.3l-2.1-.2-2-4h-.5v2.6h.7v1.3l-3.2-.2V708h.6l.2-.2v-.5l.3-5v-.4l-.1-.2h-.7zm2.3 1.6-.1 2.3h1.8l.4-.5q.3-.1.2-.6v-.6l-.4-.4-.8-.2zm5.7-1 3.1.4v1.2h-.7l-.1.2-.1.4-.4 5v.6l.3.1h.4l-.1 1.3-3.2-.4.1-1.2h.7v-.2l.2-.4.4-5v-.5l-.1-.2h-.3l-.3-.1zm6.7 1 1.5.2 1 7.2.2.7.5.2-.2 1.2-3-.6.1-1.2h.6l.1-.2v-.5l-.1-.8-2-.4-.3.9-.1.3v.2l.2.2h.4l-.2 1.3-2.4-.5.1-1.2h.4l.2-.1.2-.4zm-.8 4.7 1.3.2-.3-2.5zm6.2-3.7 2.8.8.2 5.6 2-5 3 .8-.3 1.2h-.7l-.2.5-.8 5-.1.4v.2l.3.1.4.1-.2 1.2-3-.8.2-1.2h.7l.1-.5 1-5.3-2.8 6.7-.9-.2-.2-7.4-1 5.3v.3l.1.2.3.1h.3l-.2 1.3-2.6-.8.2-1.2.3.1h.5l.1-.6.9-4.8v-.7l-.3-.1-.3-.1zm13 4.1 3.2 1.4q.6.1 1 .6l.5.8.2 1v1q-.4 1.1-1.1 1.7-.8.4-1.9 0l-1-.4-.4 1.5-.1.4v.3l.3.1.3.2-.3 1.1-3-1.2.4-1.2h.2l.4.2.1-.1.2-.5 1.2-4.7.1-.5v-.2l-.3-.2-.3-.1zm1.9 2.3-.7 2.4.5.3.8.1q.3 0 .4-.3.3-.1.4-.6l-.1-1-.7-.6zm4.7.5 3.6 1.9.8.5q.5.3.6.8.3.4.3 1l-.1 1.1q-.4 1-1 1.3t-1.4.2l.6 2.6v.1l.1.5.2.2.3.2.2.1-.4 1.2-1.9-1-.7-4.6-.5-.2-.5 1.6-.2.6v.2l.4.2.2.2-.3 1.1-3-1.5.4-1.1.3.1.3.1.2-.1.2-.5 1.4-4.6.1-.4v-.3l-.2-.1h-.2l-.2-.2zm1.8 2.5-.7 2.2.9.4.8.3q.3 0 .5-.2l.3-.6v-.6l-.2-.5-.7-.5zm8.9 3.3q1.3.8 1.8 2.5a6 6 0 0 1-1.6 5.5q-.7.7-1.6.8a3 3 0 0 1-1.8-.5 4 4 0 0 1-1.7-2.3q-.5-1.7.2-3.8.7-1.8 2-2.5t2.7.3m-.5 1.3q-.6-.5-1.3 0t-1.3 2q-.4 1.4-.4 2.4.2.9.8 1.3t1.3 0q.7-.6 1.3-1.9l.4-1.7q0-.9-.2-1.4-.1-.5-.6-.7m5.3 1.6.5.4v.3l3 2.3.2-.2.6.4-.5 3.3-1-.2.1-1.2-.2-1q0-.3-.3-.5h-.2l-.2.3-2 4.5-.1.5v.4l.5.4-.5 1-2.7-2 .5-1 .2.1.4.2h.1l.3-.6 2-4.6v-.4l-.6-.1q-.3 0-.7.3l-.7.6-.6-.9zm5.8 4.7 4.4 3.8-.6 3-.9-.3.1-1.3a2 2 0 0 0-.9-1.6l-.8-.7-1 2 .3.1.5.3h.2l.3-.5.2-.3.6.5-1.5 3.3-.7-.6.1-.3q.3-.3.2-.6v-.3l-.4-.4-.2-.2-1 1.7v.6l.2.2.4.4 1 .5q.5 0 .9-.2l1-.7.5 1-2.1 2.2-4.6-4 .5-1 .2.1.4.3.2-.1.2-.4 2-4.2.3-.5v-.2l-.3-.3-.2-.2zm7.2 11.7 2.5 2.4-.6 1-.2-.1-.3-.2h-.1l-.3.4-1.3 2.3-.7-.7v-.7a3 3 0 0 1-1.7-.8q-.7-.7-1-1.7t-.1-2.3a7 7 0 0 1 .7-2.3 5 5 0 0 1 1.4-1.6q.8-.5 1.7-.5.8.2 1.5.8.5.3.6.8l.4.9.3-.2.5.5-.9 2.8-.8-.3V734l-.1-.9-.4-.7-.8-.3q-.5 0-1 .4t-.9 1.2l-.7 1.7v1.4l.5 1 .6.3h.5l.4-.4.1-.3.2-.4v-.3l-.3-.3-.3-.2zm7 2 1 1.1-2 7.1v.8l.2.5-.6 1-2.2-2.6.6-1 .1.2.3.2.2-.1.2-.4.2-.9-1.4-1.6-.6.5-.3.3v.4l.4.4-.7 1-1.8-2.1.6-1 .3.2h.2l.4-.1zm-2.5 3.6 1 1 .7-2.4zm6.8.8.4.6-.1.3 2.5 3.2.2-.2.4.6-1 3-.9-.4.3-1.1v-1q0-.4-.3-.6v-.1q-.2 0-.3.2l-2.7 4-.3.4v.4l.4.5-.7.9-2.1-2.8.6-1 .1.2.3.3h.2l.4-.4 2.7-4 .2-.2-.1-.2-.5-.3h-.8l-.8.5-.3-1z"/><path fill="#1a1a1a" d="M8 195.3c170.8-85.3 341-54.5 513.3-28C676.5 191 833.4 211.8 992 132.7v672c-170.8 85.3-341 54.5-513.3 28C323.5 809 166.6 788.1 8 867.2zm31.3 19.3v604.5c306.5-128.2 611.1 96 921.5-33.7V180.9C654.2 309 349.5 84.9 39.3 214.6" opacity=".2"/></svg>