<svg xmlns="http://www.w3.org/2000/svg" viewBox="0 0 1000 1000"><defs><radialGradient id="a" cx="447.418" cy="308.269" r="16.534" gradientTransform="matrix(1.025 .1556 0 1.12 8 89.246)" gradientUnits="userSpaceOnUse"><stop offset=".216" stop-color="#f9f0aa"/><stop offset="1" stop-color="#b07e09"/></radialGradient><radialGradient id="b" cx="451.558" cy="312.995" r="10.911" gradientTransform="matrix(1.025 .15633 0 1.12 8 88.915)" gradientUnits="userSpaceOnUse"><stop offset=".216" stop-color="#f9f0aa"/><stop offset="1" stop-color="#b07e09"/></radialGradient><radialGradient id="c" cx="454.11" cy="308.643" r="9.78" gradientTransform="matrix(1.025 .15674 0 1.12 8 88.732)" gradientUnits="userSpaceOnUse"><stop offset=".216" stop-color="#f9f0aa"/><stop offset="1" stop-color="#b07e09"/></radialGradient><radialGradient id="d" cx="458.39" cy="307.057" r="17.354" gradientTransform="matrix(1.025 .15733 0 1.12 8 88.462)" gradientUnits="userSpaceOnUse"><stop offset=".216" stop-color="#f9f0aa"/><stop offset="1" stop-color="#b07e09"/></radialGradient><radialGradient id="g" cx="445.976" cy="252.363" r="13.018" gradientTransform="matrix(1.025 .15532 0 1.12 8 89.37)" gradientUnits="userSpaceOnUse"><stop offset=".216" stop-color="#f9f0aa"/><stop offset="1" stop-color="#b07e09"/></radialGradient><radialGradient id="j" cx="477.858" cy="215.266" r=".345" gradientTransform="matrix(1.025 .15868 0 1.12 8 87.835)" gradientUnits="userSpaceOnUse"><stop offset=".259" stop-color="#a50a0a"/><stop offset="1" stop-color="#4c0505"/></radialGradient><radialGradient id="k" cx=".5" cy=".5" r=".5" gradientTransform="matrix(1.025 -.5113 0 1.12 8 195.25)"><stop offset="0" stop-color="#fff"/><stop offset="1" stop-color="#fff" stop-opacity="0"/></radialGradient><linearGradient id="e" x1="473.906" x2="472.357" y1="259.171" y2="231.963" gradientTransform="matrix(1.025 .15855 0 1.12 8 87.893)" gradientUnits="userSpaceOnUse"><stop offset=".216" stop-color="#b07e09" stop-opacity="0"/><stop offset="1" stop-color="#b07e09"/></linearGradient><linearGradient id="f" x1="483.126" x2="485.495" y1="296.656" y2="326.583" gradientTransform="matrix(1.025 .15864 0 1.12 8 87.854)" gradientUnits="userSpaceOnUse"><stop offset=".216" stop-color="#b07e09" stop-opacity="0"/><stop offset="1" stop-color="#b07e09"/></linearGradient><linearGradient id="h" x1="451.541" x2="455.366" y1="249.523" y2="240.576" gradientTransform="matrix(1.025 .15664 0 1.12 8 88.777)" gradientUnits="userSpaceOnUse"><stop offset=".216" stop-color="#f9f0aa"/><stop offset="1" stop-color="#b07e09"/></linearGradient><linearGradient id="i" x1="473.314" x2="475.929" y1="237.247" y2="270.446" gradientTransform="matrix(1.025 .1586 0 1.12 8 87.868)" gradientUnits="userSpaceOnUse"><stop offset=".216" stop-color="#f9f0aa"/><stop offset="1" stop-color="#b07e09"/></linearGradient></defs><path fill="#4997d0" d="M8 195.3c170.8-85.3 341-54.5 513.3-28C676.5 191 833.4 211.8 992 132.7v672c-170.8 85.3-341 54.5-513.3 28C323.5 809 166.6 788.1 8 867.2z"/><path fill="#fff" d="M336 142.6c108.2 9 216.5 33.6 328 42.8v672c-108.2-9-216.5-33.6-328-42.8z"/><path fill="#24420e" d="M471.4 582.1q2 0 5-.7l1.1-.3.2.5-1.1.2q-3 .8-5.1.8zm8.6-5.1q2.4 3 3.2 5.8h-.5q-.7-2.5-3-5.5zm-5.2-1.3q1.9 2.2 3.2 5.2l-.4.2q-1.2-3-3.1-5.1zm-47.6-155a10 10 0 0 1-5 3.2l-.2-.5q3.5-1.2 4.8-3zm-5.6 2.6v-1.7q-.2-2.3 0-3.2l.4.1v4.9zm-1.6.4.7 2.4-.4.1-.7-2.4zm2.6 4-1.7.1h-.4v-.5h2zm-6-1.6q0 3 .6 8.8h-.4l-.6-8.9zm-1.3 7.3 1.5 2.3-.2.4q-.6-.6-1.6-2.5zm-3 9q.8 2 1.3 4.7h-.4q-.5-2.7-1.4-4.5zm5 .3q-.4 0-1.6 1l-.4.4-.3-.4.4-.3 1.7-1.2zm-.3 6.5q-1.2 1-3.6 2l-.2-.5a16 16 0 0 0 3.5-1.9zm-7.4 46.4q2 3.8 4 5.7l-.3.3a24 24 0 0 1-4-5.8zm4.4 8q-1.5-.4-3-1.5l.1-.4q1.5 1 3 1.5zm1.7 8.1 1.7 1.4-.2.4-1.8-1.3zm1.3 5.2a27 27 0 0 1 3.9 5l-.4.2q-2.4-3.6-3.8-4.8zm2.3 7.8q2.3.9 3.3 1.7l-.2.4q-1-.7-3.2-1.6zm2.1 4.2 2.2.4v.5l-2.2-.4zm3.7-5.2-.5 4.7-.5-.1.5-4.7zm0 6.5.5-1.8.4.2-.4 1.8zm5.8 5.7-.2 3.6h-.4l.1-3.6zm40 41-1.2 1.6-.4-.4 1.2-1.6zm-4-3.3-.8-2.2h.4l.7 2z"/><path fill="#406325" d="M506.3 596a12 12 0 0 0-3.4-3.4c-8-5.7-15.7-9-24.7-12-2-.8-4.2-3-6.3-4.5-5-3.3-10.7-5.3-15.7-8.7l-2.1-2c-2.1-2.7-5.4-4.2-7.7-6.8-8.6-10-17.5-19.5-22.4-31.8-5.7-15-12.6-30.6-11.8-46.7.5-10.1-.7-20.6 1.5-30a111 111 0 0 1 15.8-38.5l-1.3.7c-8 11-12.4 24.4-15.9 38.5-2.2 9.4-1 19.9-1.5 30-.8 16.2 6 31.6 11.9 46.8 4.8 12.3 13.7 21.6 22.3 31.8 2.3 2.5 5.6 4 7.7 6.7l2.2 2c5 3.4 10.5 5.4 15.7 8.7 2 1.6 4.2 3.7 6.2 4.6a88 88 0 0 1 24.7 11.9q2 1.4 3.4 3.5z"/><path fill="#24420e" d="M506.3 596v.2l-1.5.7q-1-1.7-3.3-3.5a94 94 0 0 0-24.7-12q-1.4-.4-4-2.7a34 34 0 0 0-9.8-6 78 78 0 0 1-8.2-4.5q-1.3-1-2.2-2-1-1.5-4-3.7-2.7-2-3.7-3l-3.8-4.5a108 108 0 0 1-18.5-27.4l-2.2-5.6q-5.2-13.5-7.1-20.3-3-11.5-2.6-20.8l.2-10.9q0-13.1 1.3-19.2 6.3-25.7 16-38.6l1.3-.7v.1a111 111 0 0 0-15.7 38.5 91 91 0 0 0-1.4 19.2l-.1 10.9a67 67 0 0 0 2.6 20.8 239 239 0 0 0 7 20.2l2.2 5.6q4.1 10.6 18.9 27.7l3.4 4q1.1 1.3 3.7 3.2 3 2.1 4 3.6.9 1.1 2.2 2 2.5 1.8 8 4.5 5.2 2.6 7.7 4.3l2.4 1.9q2.6 2.1 3.8 2.6a93 93 0 0 1 24.7 12q2.5 1.8 3.4 3.5zm-.2 0q-.9-1.5-3.2-3.3a93 93 0 0 0-24.7-12q-1.3-.4-4-2.6l-2.3-1.9q-2.5-1.6-7.7-4.2a75 75 0 0 1-8-4.5 8 8 0 0 1-2.2-2.1q-1-1.4-4-3.6-2.7-2-3.7-3.1l-3.4-4a108 108 0 0 1-19-27.9l-2-5.5q-5.4-13.4-7.2-20.3-3.1-11.5-2.6-20.9l.2-10.8q0-13.2 1.4-19.3 6.2-25.2 15.5-38.2l-1 .6a110 110 0 0 0-15.8 38.4q-1.4 6.1-1.4 19.3l-.1 10.8q-.5 9.3 2.6 20.8 1.9 6.8 7 20.2l2.2 5.7q4.1 10.4 18.5 27.3l3.8 4.4a23 23 0 0 0 3.6 3q3 2.2 4.2 3.8.7 1 2.1 2 2.5 1.7 8.1 4.5 5.1 2.6 7.6 4.2l2.3 1.8a16 16 0 0 0 4 2.7q15 5 24.6 12a12 12 0 0 1 3.4 3.4z"/><path fill="#67923d" d="M424.5 524.1a61 61 0 0 1-.2-26.4c6.7 15.9 4.6 26.8.2 26.4"/><path fill="#24420e" d="M424.4 524.1a44 44 0 0 1-1.6-15.2q.3-9.3 1.4-11.2l.1-.2v.2a45 45 0 0 1 4.3 19.4c-.4 5.4-1.5 7.3-4.1 7.1zm.2 0c2.4 0 3.5-1.8 3.9-7q.4-8.6-4.2-19.2-1 2.1-1.3 11-.2 10.1 1.6 15.1"/><path fill="#67923d" d="M471.5 581.9a42 42 0 0 0-22.4 9.4c15.7 2.1 24.3-4.3 22.4-9.4"/><path fill="#24420e" d="M471.5 581.8c1.2 3-.1 5.1-4.5 7.6-4.9 2.4-10.6 3-18 2v-.2q1.4-2 9-5.8a29 29 0 0 1 13.5-3.6m0 .2q-4.9-.4-13.4 3.6-7.4 3.5-8.9 5.6c7.3 1 12.9.4 17.7-2 4.3-2.4 5.6-4.4 4.6-7.3"/><path fill="#67923d" d="M479.2 578.2a87 87 0 0 1-14.4-31.9c15.5 14.9 19.3 29.8 14.3 32"/><path fill="#24420e" d="M479.1 578.3q-4.6-4.8-10-17.5a54 54 0 0 1-4.4-14.5v-.1h.1a59 59 0 0 1 15 20.9c2.4 6.7 2.2 10-.6 11.2zm0-.2c2.8-1.2 2.9-4.4.5-11q-4.1-10.4-14.7-20.6a56 56 0 0 0 4.4 14.2q5.3 12.6 9.9 17.4"/><path fill="#67923d" d="M474 577.5a80 80 0 0 1-16.4-28c15.7 12 20.6 25.3 16.4 28"/><path fill="#24420e" d="M474 577.6a55 55 0 0 1-10.9-15.1q-5.3-10.1-5.6-13v-.1h.2a53 53 0 0 1 15.7 17.6c2.9 6 3 9 .6 10.6m0-.2c2.3-1.6 2-4.5-.8-10.4a52 52 0 0 0-15.5-17.3q.3 3 5.6 12.7 6 11 10.7 15"/><path fill="#67923d" d="M458 567.5c.8-9-5.8-27.7-7.8-30.3-2.8 18.3 3 31 7.8 30.3"/><path fill="#24420e" d="M458.1 567.5c-2.9.4-4.8-1.8-7-8a49 49 0 0 1-1-22.3l.1-.2.1.2a48 48 0 0 1 5 12.7q3.4 11.9 2.8 17.6m-.2 0q.6-5.9-2.7-17.5a51 51 0 0 0-4.9-12.6q-2 12.5 1 22c2 6.1 4 8.3 6.6 8"/><path fill="#67923d" d="M430 536.2c-2.2-7-.5-21.4.5-23.4 5.5 14.2 3.5 23.8-.5 23.4"/><path fill="#24420e" d="M430 536.2q-1.5-4.4-1.1-13.6.5-8.2 1.5-10h.1v.1A40 40 0 0 1 434 530c-.5 4.8-1.6 6.5-3.9 6.3zm0 0c2.3 0 3.2-1.6 3.7-6.2q.6-7.5-3.2-17-1 1.7-1.4 9.6-.5 9 1 13.5"/><path fill="#67923d" d="M416 448.2a45 45 0 0 1 21.5-14.8c-7.3 15.4-18.1 19.4-21.5 14.8"/><path fill="#24420e" d="M416 448.2q2.4-4.7 11-10.2 8-4.8 10.5-4.7h.1v.1q-5 10.7-12.3 15c-4.8 2.6-7.4 2.5-9.4-.1zm0 0c2 2.5 4.6 2.6 9.2 0 5-3 8.8-7.6 12.2-14.7q-2.6 0-10.2 4.7a32 32 0 0 0-11.1 10"/><path fill="#67923d" d="M416.7 442a48 48 0 0 1 17.8-19.9c-4.1 17.2-13.7 23.8-17.8 20"/><path fill="#24420e" d="M416.6 442q1.6-5.2 8.8-12.7 6.7-6.7 9-7.3h.2v.2q-2.8 11.8-9 17.9c-4 3.7-6.5 4.2-9 2zm.2 0c2.3 2.1 4.8 1.5 8.7-2q6.2-6.1 8.9-17.7-2.4.6-8.9 7.1a35 35 0 0 0-8.7 12.7"/><path fill="#67923d" d="M445.2 557.2c-5-8-8-27.6-7.5-30.7 11.6 16.1 12.3 29.7 7.5 30.7"/><path fill="#24420e" d="M445.2 557.2a54 54 0 0 1-6-17.2q-2.3-10.9-1.5-13.5v-.1l.1.1a54 54 0 0 1 10 21c1 6.4.3 9.2-2.6 9.8zm0-.1c2.7-.6 3.4-3.3 2.4-9.5a53 53 0 0 0-9.8-20.8q-.6 2.6 1.6 13.2 2.5 12 5.9 17"/><path fill="#67923d" d="M415.9 512.2c-7.4-.1-21.6-8-23.5-10.2 15.1-1.4 24.5 5.4 23.5 10.2"/><path fill="#24420e" d="M415.9 512.3q-4.8 0-13.9-4.2a36 36 0 0 1-9.7-6l-.1-.2h.1q10.4-1 18 2.8c4.7 2.6 6.2 4.7 5.6 7.5zm-.1-.2c.5-2.7-1-4.7-5.6-7.3q-7.4-3.7-17.7-2.7 1.8 2 9.6 5.8a35 35 0 0 0 13.7 4.2"/><path fill="#67923d" d="M413.6 501a40 40 0 0 1 10.6-17.2c-1.4 13.4-7.4 19.5-10.6 17.2"/><path fill="#24420e" d="M413.5 501q.6-4 5-10.7 4-5.8 5.7-6.6v.1a30 30 0 0 1-4.6 14.6c-2.5 3.3-4.1 4-6 2.7zm.2 0c1.8 1.2 3.4.5 5.8-2.7q3.7-5.3 4.6-14.3-1.6 1-5.5 6.4-4.3 6.5-5 10.6"/><path fill="#67923d" d="M466.2 574.2c-9-.5-24.8 8.5-26.8 11.3 18.7 2.6 29.1-5.2 26.8-11.3"/><path fill="#24420e" d="M466.2 574v.1c1.4 3.6-.2 6.2-5.4 9a35 35 0 0 1-21.4 2.4h-.1v-.1c1.2-1.7 4.5-4 10.8-7 7-3.2 12-4.6 16-4.3m0 .2c-4-.3-9 1-16 4.3a33 33 0 0 0-10.5 6.8q12.8 1.8 21-2.4c5.2-2.8 6.8-5.3 5.5-8.7"/><path fill="#406325" d="M424.6 524c4.4.4 6.4-10.4-.3-26.3a108 108 0 0 1 .3 26.3"/><path fill="#24420e" d="M424.6 524h-.2l.1-.1c1.1-1.6 1.1-10-.3-26.2h.2a45 45 0 0 1 4.3 19.3c-.4 5.4-1.5 7.3-4.1 7m.1-.1c2.4 0 3.5-1.8 3.8-7a44 44 0 0 0-4-18.7c1.3 15.5 1.3 23.8.2 25.7"/><path fill="#406325" d="M436 548a61 61 0 0 0-22.2-15.6c9.4 14.8 20 19.6 22.2 15.6"/><path fill="#24420e" d="M436 548h.1c-1.4 2.3-3.7 2.2-8.5-.7q-7.4-4.6-13.9-14.9v-.1q2.4.2 10.4 5.3 8.8 5.8 12 10.3m-.2 0a45 45 0 0 0-11.9-10.2q-7.7-5-10-5.2a46 46 0 0 0 13.7 14.7c4.7 2.7 6.9 3 8.2.8"/><path fill="#406325" d="M411 485.2a80 80 0 0 0-15.1-28.9c1.8 19.7 10.5 31 15.1 28.8"/><path fill="#24420e" d="M411 485.2c-2.6 1.2-5-.5-8.7-6.2a53 53 0 0 1-6.5-22.7v-.1h.1q2.4 1.8 8.1 11.7 6.3 11.2 7 17.2m0 0q-1-6-7.1-17.1a52 52 0 0 0-8-11.5q1.3 13.4 6.6 22.4c3.5 5.6 5.8 7.3 8.4 6.2"/><path fill="#406325" d="M419.6 524.7a48 48 0 0 0-21.5-8.1c10.8 10.6 20.3 12.2 21.5 8.1"/><path fill="#24420e" d="M419.7 524.7c-.7 2.4-2.6 2.8-7.2 1.6a37 37 0 0 1-14.4-9.6l-.1-.2h.1q2-.4 9.6 2 8.4 3 12 6.2m-.2 0q-3.5-3-11.8-6-7.4-2.3-9.4-2 7.3 7.1 14.2 9.4c4.4 1.2 6.3.9 7-1.4"/><path fill="#406325" d="M410 495.6a58 58 0 0 0-17.3-17.6c6 14.8 14.5 20.7 17.3 17.6"/><path fill="#24420e" d="M410 495.6c-1.7 1.9-3.7 1.3-7.6-2q-6-5.4-9.9-15.5v-.2h.1q2 .6 8.4 6.5 6.9 6.7 9 11.2m-.2 0q-2-4.4-9-11a35 35 0 0 0-8-6.4 41 41 0 0 0 9.7 15.3c3.8 3.2 5.7 3.7 7.3 2.1"/><path fill="#406325" d="M412.8 442.8a75 75 0 0 0-7.5-29.2c-2.8 17.7 2.8 29.8 7.5 29.1"/><path fill="#24420e" d="M412.9 442.8c-2.8.4-4.7-1.7-6.7-7.7a47 47 0 0 1-1-21.6v-.1l.1.1q1.8 2.2 4.9 12.3 3.2 11.4 2.7 17m-.2-.1q.5-5.6-2.7-16.9-3-9.7-4.7-12-2 12 1 21.3c2 5.8 3.8 7.9 6.4 7.6"/><path fill="#406325" d="M417.4 426.7c2.5-7.3.7-24.7-.5-27.5-6.5 14.6-4 26.7.5 27.5"/><path fill="#24420e" d="M417.5 426.7h-.1c-2.6-.4-4-2.8-4.5-8.5q-.6-9 3.9-19v-.1l.1.1q1.2 2.3 1.8 12 .6 10.8-1.2 15.5m-.2-.1q1.8-4.7 1.2-15.4-.6-9.3-1.6-11.8a39 39 0 0 0-3.8 18.8c.5 5.6 1.7 7.8 4.2 8.4"/><path fill="#406325" d="M422.5 418.8a49 49 0 0 0 3.6-21.3c-7.4 10.2-7.1 19.8-3.6 21.3"/><path fill="#24420e" d="M422.6 418.9c-2.2-.9-2.8-3-2.5-7.5q.8-7 6-14v-.1.2q.7 2-.2 9.6-1.2 8.4-3.3 11.8m-.1-.2q2-3.3 3.2-11.6.9-7.4.4-9.4-5 6.8-5.8 13.8c-.4 4.3.3 6.3 2.2 7.2"/><path fill="#406325" d="M428.6 412.8a41 41 0 0 0 9.3-18.2c-10 6.7-12.3 15.5-9.3 18.2"/><path fill="#24420e" d="M428.7 412.9h-.1c-1.8-1.6-2-3.7-.3-7.7q2.7-6.2 9.6-10.7h.1q0 2.1-2.9 8.8-3.4 7.3-6.4 9.6m0-.2q3-2.3 6.2-9.5 3-6.4 3-8.5-6.8 4.4-9.5 10.6c-1.5 3.9-1.5 5.9.2 7.4"/><path fill="#406325" d="M412.2 458.9c0 .9-1.1-9.1-10.3-21.9.6 16.9 6.2 23.4 10.3 21.9"/><path fill="#24420e" d="M412.3 458.9v.1h-.2c-2.4.8-4.2-.3-6.5-4a41 41 0 0 1-3.8-18v-.2l.1.2q8.4 11.4 10.3 21.8zm-.2 0a54 54 0 0 0-10.1-21.6q.3 11.3 3.8 17.5c2.2 3.8 4 4.8 6.3 4"/><path fill="#406325" d="M445.6 559.7a59 59 0 0 0-26.5-10.4c13.3 13.3 25.1 15.4 26.4 10.4"/><path fill="#24420e" d="M445.6 559.6c-.8 3-3.2 3.4-8.8 1.8q-8.7-3-17.7-12.2h-.1l.1-.1q2.4-.5 11.8 2.7a44 44 0 0 1 14.7 7.7m-.1 0a44 44 0 0 0-14.6-7.5 37 37 0 0 0-11.6-2.8q8.9 9.2 17.6 12c5.4 1.6 7.8 1.2 8.6-1.6"/><path fill="#406325" d="M458 567.4c-5 .7-10.6-11.8-7.8-30.2 3 16.2 6.4 28.8 7.7 30.2"/><path fill="#24420e" d="M458 567.5c-2.9.3-4.8-1.9-6.9-8a49 49 0 0 1-1-22.3h.2c3.4 18.8 6 28.4 7.7 30.1l.1.1zm-.3-.2q-2.5-2.8-7.5-29.6a49 49 0 0 0 1 21.7c2 6 3.9 8.1 6.5 8"/><path fill="#406325" d="M471.6 582c1.8 5-6.7 11.4-22.4 9.2 12.5-3.7 21.5-7.7 22.4-9.3"/><path fill="#24420e" d="M471.6 581.9c1.1 3-.2 5-4.6 7.5-4.8 2.4-10.4 3-17.8 2v-.3c14.3-4.3 21.3-7.2 22.3-9.2v-.2zm0 .2c-1.3 2-8.3 5-22 9.1q10.5 1.5 17.4-2c4.2-2.3 5.4-4.2 4.6-7"/><path fill="#406325" d="M479.1 578c5-2.1 1.2-16.8-14.3-31.6 8.8 16.3 14.6 29.6 14.3 31.7"/><path fill="#24420e" d="M479.2 578.2h-.2v-.2q1-3.7-14.3-31.6l.1-.1q10.7 10.1 15 20.7c2.4 6.7 2.2 9.9-.6 11.2m0-.3c2.6-1.3 2.7-4.4.3-10.9q-4-10.3-14.4-20.2 14.6 26.9 14.1 31.1"/><path fill="#406325" d="M474 577.4c4.2-2.8-.7-16-16.3-27.8a137 137 0 0 1 16.2 27.8"/><path fill="#24420e" d="M474 577.5h-.2v-.1c.1-2.5-5-11.6-16.2-27.8v-.1a53 53 0 0 1 15.8 17.4c2.9 6 3 9 .6 10.6m0-.3c2.2-1.6 2-4.5-.8-10.2a53 53 0 0 0-15.2-17q16 23.3 16 27.2"/><path fill="#406325" d="M430 536.2c4 .3 6-9.2.6-23.4.7 12.6.3 22.2-.5 23.4"/><path fill="#24420e" d="M430 536.3h-.1l.1-.2c1-1.4 1.3-8.8.5-23.3h.1A40 40 0 0 1 434 530c-.5 4.8-1.5 6.5-3.8 6.3m.1-.2c2.1 0 3-1.6 3.6-6.1q.5-7.4-3.1-16.7c.8 13.8.5 21-.5 22.8"/><path fill="#406325" d="M416 448.3c3.4 4.6 14 .5 21.3-14.9-10.6 9-19.5 15-21.3 14.9"/><path fill="#24420e" d="m415.9 448.3-.1-.2h.2c2.3.4 9-4.3 21.3-14.8l.1.2q-4.9 10.6-12.2 15c-4.7 2.5-7.3 2.5-9.3-.2m.3 0c1.9 2.5 4.4 2.5 9 0a32 32 0 0 0 11.9-14.5c-11.7 10-18.5 14.6-21 14.6"/><path fill="#406325" d="M416.8 442c4.1 4 13.6-2.7 17.7-19.8-8.4 11.5-16 19.6-17.7 19.9"/><path fill="#24420e" d="m416.8 442.2-.2-.2h.2c2.3-.3 8-6.6 17.7-19.9l.1.1q-2.7 11.9-8.9 17.9c-4 3.7-6.5 4.3-9 2m.3 0c2.3 2 4.7 1.4 8.6-2.1q6-5.9 8.7-17.4c-9.3 12.8-14.9 19-17.3 19.6"/><path fill="#406325" d="M445.2 557.1c4.9-1 4-14.5-7.4-30.5 5.2 16 8 28.7 7.4 30.5"/><path fill="#24420e" d="M445.3 557.2h-.2v-.2q1.5-3-7.4-30.4h.2a54 54 0 0 1 9.8 21c1 6.3.4 9-2.4 9.6m0-.2c2.7-.7 3.3-3.3 2.3-9.5a53 53 0 0 0-9.6-20.4q8.5 26.3 7.4 29.9"/><path fill="#406325" d="M415.7 512c1-4.7-8.3-11.3-23.4-10a88 88 0 0 1 23.3 10"/><path fill="#24420e" d="M415.7 512.1v.2l-.1-.2c-1.3-2-8.7-5.3-23.3-10v-.2q10.3-1 17.8 2.8c4.7 2.5 6.2 4.6 5.6 7.4m0-.2c.4-2.6-1.1-4.6-5.6-7q-7.4-3.7-17.4-2.8 20.8 6.8 23 9.8"/><path fill="#406325" d="M413.7 501c3.2 2.3 9.1-3.7 10.5-17.1a79 79 0 0 1-10.5 17.2"/><path fill="#24420e" d="m413.6 501.1-.1-.1h.1c1.5-.6 5-6 10.5-17.2l.2.1a30 30 0 0 1-4.6 14.5c-2.5 3.3-4.2 4-6 2.7m.2 0c1.7 1 3.3.3 5.7-2.8q3.5-5.1 4.5-14c-5.3 10.7-8.7 16-10.2 16.8"/><path fill="#406325" d="M466.1 574.4c2.4 6-7.9 13.7-26.6 11.1 14.8-4.5 25.7-9.3 26.6-11.2"/><path fill="#24420e" d="M466.2 574.3c1.4 3.6-.2 6.1-5.4 9a36 36 0 0 1-21.3 2.3v-.2c17-5.1 25.5-8.7 26.6-11.1v-.2zm0 .3c-1.5 2.4-9.9 5.9-26.3 10.9a35 35 0 0 0 20.8-2.4c5-2.7 6.6-5.2 5.5-8.5"/><path fill="#406325" d="M417.3 517.2c-3-7.6-15-19-17.4-20 5.4 16 14.3 23 17.4 20"/><path fill="#24420e" d="M417.4 517.1c-1.9 1.8-4 1-8-2.8q-5.9-6.2-9.5-17.3v-.1q2.2.8 8.6 7.6 7 7.6 9 12.5m-.2 0a45 45 0 0 0-8.9-12.4 38 38 0 0 0-8.3-7.4 44 44 0 0 0 9.4 17c3.9 3.7 6 4.5 7.8 2.8"/><path fill="#67923d" d="M410.2 457.5a37 37 0 0 1 20.1-7.1c-8.6 10.5-18 11.4-20 7.1"/><path fill="#24420e" d="M410.2 457.5q2.8-3.2 10.8-5.6c5-1.5 7.8-1.9 9.3-1.6h.2l-.1.1q-5.9 7.4-12.5 9.2c-4.4 1-6.5.5-7.8-2zm.1 0c1.2 2.4 3.3 3 7.5 2a25 25 0 0 0 12.4-9q-2.2-.5-9.1 1.6a26 26 0 0 0-10.8 5.5"/><path fill="#67923d" d="M436 548c-2.3 4-12.7-.7-22.3-15.6A112 112 0 0 0 436 548"/><path fill="#24420e" d="M436 548c-1.4 2.4-3.6 2.2-8.4-.6q-7.4-4.7-14-15h.2c13 10.6 20.1 15.6 22.1 15.5h.2zm-.2.1q-3.2-.2-21.7-15.3a46 46 0 0 0 13.5 14.4c4.6 2.7 6.8 3 8.2 1"/><path fill="#67923d" d="M411 485.1c-4.6 2.1-13.3-9-15.1-28.7a138 138 0 0 0 15 28.7"/><path fill="#24420e" d="M411 485.2c-2.7 1.2-5.1-.5-8.7-6.2a54 54 0 0 1-6.5-22.6h.2c7.9 18.2 12.8 27.4 15 28.6l.1.1zm-.3 0c-2.2-1.7-7-10.8-14.7-28.3q1.3 13.2 6.5 22c3.4 5.5 5.7 7.2 8.2 6.2"/><path fill="#67923d" d="M419.6 524.8c-1.3 4-10.7 2.5-21.4-8.2a88 88 0 0 0 21.4 8.1"/><path fill="#24420e" d="M419.6 524.8c-.7 2.4-2.6 2.8-7.1 1.5a37 37 0 0 1-14.4-9.6l.1-.1c12.9 6 19.7 8.6 21.3 8h.2zm-.2 0q-2.7.7-20.8-7.9 7.1 7 13.9 9.2c4.3 1.2 6.2.9 7-1.2"/><path fill="#67923d" d="M409.9 495.5c-2.8 3-11.3-2.8-17.3-17.5 8.6 10 15.9 17.2 17.3 17.5"/><path fill="#24420e" d="M410 495.6c-1.7 1.8-3.7 1.2-7.6-2a43 43 0 0 1-9.8-15.6h.1c9.8 11.6 15.4 17 17.2 17.4h.1zm-.3 0c-2-.7-7.4-6.1-16.8-17.2a41 41 0 0 0 9.6 15c3.7 3.1 5.6 3.7 7.2 2.2"/><path fill="#67923d" d="M412.7 442.6c-4.7.7-10.2-11.2-7.5-29 2.8 15.6 6.2 27.7 7.5 29"/><path fill="#24420e" d="M412.7 442.7c-2.7.4-4.6-1.7-6.6-7.6a47 47 0 0 1-1-21.5h.2c3.2 18 5.7 27.3 7.4 29h.2zm-.2-.1c-1.7-2-4.2-11.2-7.3-28.5q-1.7 11.8 1 21c2 5.6 3.7 7.7 6.3 7.5"/><path fill="#67923d" d="M417.3 426.6c-4.5-.8-7-12.7-.5-27.3-.8 14.4-.4 25.8.5 27.3"/><path fill="#24420e" d="M417.3 426.7c-2.6-.5-3.9-2.9-4.5-8.5q-.6-9 4-19v.1c-.9 16.6-.6 25.3.6 27.2v.2zm-.2-.2q-1.6-3.2-.4-26.7a39 39 0 0 0-3.7 18.4c.6 5.4 1.7 7.7 4.1 8.3"/><path fill="#67923d" d="M422.5 418.7c-3.6-1.5-3.8-11 3.6-21.2a82 82 0 0 0-3.7 21.2"/><path fill="#24420e" d="M422.4 418.8c-2-.9-2.7-2.9-2.3-7.4q.7-7 5.9-14l.1.2c-3.2 12.6-4.3 19.3-3.6 21l.1.3zm-.1-.2q-1-2.8 3.6-20.7-4.9 6.8-5.7 13.5c-.3 4.3.3 6.3 2.1 7.2"/><path fill="#67923d" d="M428.6 412.8c-3.1-2.7-.8-11.5 9.2-18.1a71 71 0 0 0-9.2 18"/><path fill="#24420e" d="M428.5 412.8c-1.8-1.5-1.9-3.6-.3-7.6q2.7-6.2 9.6-10.6l.1.1c-6.6 10.4-9.4 16.2-9.2 18v.3zm0-.2q-.1-3 9-17.6-6.5 4.3-9.2 10.3c-1.4 3.7-1.4 5.8.2 7.3"/><path fill="#67923d" d="M412.1 458.9c-4.1 1.5-9.6-5-10.2-21.9q8 20.7 10.2 21.9"/><path fill="#24420e" d="M412.2 459c-2.5.9-4.3-.2-6.6-4a41 41 0 0 1-3.8-18h.1q8 20.5 10.2 21.8zm-.3-.1q-2.5-2-10-21.4a40 40 0 0 0 3.8 17.3q3.1 5.4 6.2 4"/><path fill="#67923d" d="M445.5 559.7c-1.3 5-13.1 3-26.3-10.4 13.7 6.7 24.6 10.9 26.3 10.4"/><path fill="#24420e" d="M445.6 559.7c-.8 3-3.2 3.4-8.8 1.8q-8.7-3-17.7-12l.1-.2c15.8 7.7 24.2 11 26.3 10.3h.1zm-.2.1c-2.4.5-10.7-2.7-25.8-10.2q8.8 9 17.2 11.7c5.4 1.6 7.7 1.2 8.6-1.5"/><path fill="#67923d" d="M437.1 547.9c-4-5.9-7.1-20.2-6.9-22.6 9.2 11.5 10.4 21.4 7 22.6"/><path fill="#24420e" d="M437 548a42 42 0 0 1-5.1-12.7q-2.2-8-1.8-10v-.2l.2.2q6.4 7.8 8.2 15.2c1 4.8.7 6.8-1.4 7.5zm.1-.3c2-.6 2.3-2.6 1.3-7.2q-2-7.3-8.1-15-.3 2.1 1.7 9.8 2.5 8.9 5.1 12.5"/><path fill="#67923d" d="M419.8 517.4a60 60 0 0 1-3-26c8.4 14.6 7.5 25.8 3 26"/><path fill="#24420e" d="M419.7 517.5c-1.5-3.3-2.6-8-3.2-15a35 35 0 0 1 .3-11.2v-.2.2q5.9 10 6.4 18.5c.2 5.5-.7 7.5-3.4 7.7zm.2-.2c2.4-.2 3.3-2.2 3.2-7.5a43 43 0 0 0-6.3-18.3q-.7 2.3-.1 11 .8 10.2 3.2 14.8"/><path fill="#67923d" d="M417.1 517.2c-3.1 3-11.9-4-17.3-20a111 111 0 0 0 17.3 20"/><path fill="#24420e" d="M417.2 517.2c-1.9 1.8-4 1-8-2.8q-5.9-6.1-9.5-17.2l.2-.1q14.5 19.5 17.2 20zm-.2 0c-2.1-.8-7.6-7-17-19.6a44 44 0 0 0 9.4 16.7c3.7 3.7 5.8 4.4 7.6 3"/><path fill="#406325" d="M410.2 457.6c2 4.2 11.4 3.3 20-7.2-12.4 6-17 8.4-20 7.2"/><path fill="#24420e" d="M410.1 457.7v-.2h.1c1.9.7 7.1-1 16.7-5.6l3.2-1.6.1.2q-5.9 7.3-12.5 9.1c-4.3 1-6.4.5-7.6-2m.2.2c1.2 2.2 3.2 2.7 7.4 1.7q6.5-1.9 12.1-8.8L427 452q-13.8 6.7-16.7 5.8"/><path fill="#406325" d="M419.8 517.2c4.4-.2 5.3-11.2-3-26a99 99 0 0 1 3 26"/><path fill="#24420e" d="M419.8 517.3h-.2v-.1c1-1.7.2-10-3-26h.2q5.9 10 6.4 18.5c.1 5.4-.8 7.5-3.4 7.6m.1-.1c2.4-.3 3.3-2.3 3.1-7.5a43 43 0 0 0-6-18c3 15.2 3.8 23.4 3 25.5"/><path fill="#406325" d="M437.1 547.8c3.5-1.1 2.3-11-6.8-22.5a100 100 0 0 1 6.8 22.5"/><path fill="#24420e" d="M437.2 547.9h-.2v-.1q.9-2.4-6.8-22.4l.1-.1q6.4 7.8 8.3 15.2c1 4.7.6 6.7-1.4 7.4m0-.2c1.9-.7 2.2-2.7 1.2-7.2a40 40 0 0 0-7.9-14.7 81 81 0 0 1 6.8 21.9"/><path fill="#406325" d="M412 477.8a55 55 0 0 0-4.3-29.2c-4.7 17-.4 29.3 4.4 29.2"/><path fill="#24420e" d="M412.2 477.8c-2.8.1-4.4-2.2-5.9-8.2a45 45 0 0 1 1.4-21v-.2l.1.1q2.3 3.2 4 12.6a45 45 0 0 1 .5 16.7m-.2-.1a45 45 0 0 0-.4-16.6 38 38 0 0 0-3.9-12.3 44 44 0 0 0-1.3 20.8c1.4 5.8 3 8 5.6 8.1"/><path fill="#67923d" d="M411.8 480c-6.2.2-8.8-14.3-4.2-30.9 1.1 15.5 3 29.4 4.2 30.9"/><path fill="#24420e" d="M411.8 480q-2.2.3-4-2.2-1.5-2.5-2.2-6.9a53 53 0 0 1 2-21.8c1.5 19.4 3 29.3 4.2 30.8l.2.2zm-.2 0q-2-2.9-4-30.4a52 52 0 0 0-1.9 21.3 19 19 0 0 0 2.3 6.8q1.5 2.3 3.6 2.2"/><path fill="#67923d" d="M410.6 479.8c-.4-8.8 7-24.6 9-26.5 2 18.3-4.3 28.5-9 26.5"/><path fill="#24420e" d="M410.5 479.8c-.2-4 1-9 3.6-16q3.6-8.9 5.5-10.6h.1v.1q1.5 12.6-2 21c-2.4 5.2-4.4 6.7-7.2 5.6zm.1 0c2.7 1 4.6-.6 7-5.7a43 43 0 0 0 2-20.6q-1.8 1.6-5.4 10.5a42 42 0 0 0-3.6 15.7"/><path fill="#406325" d="M410.7 479.7c4.7 2 10.9-8 9-26.3a100 100 0 0 1-9 26.3"/><path fill="#24420e" d="M410.6 479.7h-.1l.1-.1c1.9-1.2 4.8-9.6 9-26.3h.2q1.3 12.6-2 21c-2.4 5.1-4.4 6.6-7.2 5.4m.2 0c2.7 1 4.5-.6 6.8-5.6a42 42 0 0 0 2-20.2c-4 16-6.9 24.3-8.7 25.8"/><path fill="#67923d" d="M412 490.6c.3-8.8 8.6-23.3 10.8-25 .6 18.5-6.2 27.8-10.8 25"/><path fill="#24420e" d="M411.9 490.6q0-5.7 4.6-15.2 4.3-8.6 6.3-9.8.6 12.8-3.4 20.6c-2.7 4.9-4.8 6.1-7.5 4.5zm.2 0c2.5 1.5 4.5.2 7.2-4.5a41 41 0 0 0 3.4-20.3q-2 1.4-6 9.7-4.5 9.4-4.6 15"/><path fill="#406325" d="M412 490.8c4.6 2.8 11.4-6.4 10.8-24.9a97 97 0 0 1-10.7 25"/><path fill="#24420e" d="m412 490.9-.1-.1h.1c2-1 5.4-8.9 10.7-25l.2.1q.5 12.7-3.4 20.5c-2.7 4.8-4.8 6-7.5 4.5m.2 0c2.6 1.3 4.5 0 7.1-4.6a41 41 0 0 0 3.4-19.9c-5 15.4-8.5 23.2-10.4 24.4"/><path fill="#ba1f3e" d="M415.9 433q-.1 1-1.1 1-1-.2-1.2-1.4.2-1 1.2-1 1 .2 1 1.3"/><path fill="#511124" d="M416 433q0 1.3-1.2 1.1-.5 0-.9-.5-.3-.4-.3-1t.3-.9.9-.2q1.1.1 1.2 1.4m-.2 0q0-.4-.3-.8l-.7-.4q-1.1-.1-1 1-.1 1 1 1.2l.7-.2q.4-.2.3-.8"/><path fill="#ba1f3e" d="M424.5 427.2q-.2 1-1.2 1-1-.2-1-1.3 0-1 1-1.1 1 .3 1.1 1.4"/><path fill="#511124" d="M424.5 427.2q0 1.3-1.2 1.1-.5 0-.8-.5t-.4-1q0-1.3 1.2-1.1 1.3.2 1.2 1.5m-.2 0q0-.5-.3-.9l-.7-.4q-1-.1-1 1 0 .4.3.8t.7.4q1 .1 1-1"/><path fill="#ba1f3e" d="M420.7 422.9q0 1-1.1 1-1-.1-1.1-1.3.1-1.1 1.1-1t1.1 1.3"/><path fill="#511124" d="M420.8 422.9q0 .5-.3.9a1 1 0 0 1-.9.3q-1.2-.2-1.2-1.5 0-.6.4-1l.8-.2q1.2.2 1.2 1.5m-.2 0q0-.5-.3-.8t-.7-.5q-1-.1-1 1t1 1.3 1-1"/><path fill="#ba1f3e" d="M411.6 501.6q0 1.3-1.3 1.3-1.2-.4-1.3-1.6 0-1.3 1.3-1.3 1.3.4 1.3 1.6"/><path fill="#511124" d="M411.7 501.7q0 1.5-1.4 1.3-.6 0-1-.6l-.4-1.1q0-.7.4-1t1-.4 1 .6.4 1.2m-.2 0-.3-1q-.4-.5-.9-.6l-.8.3q-.4.4-.4.9t.4 1 .8.5q1.2 0 1.2-1.2"/><path fill="#ba1f3e" d="M414.2 484q0 1.5-1.3 1.3-1.1-.2-1.3-1.6 0-1.3 1.3-1.2t1.3 1.6"/><path fill="#511124" d="M414.3 484q0 .7-.4 1.1t-1 .3-1-.5-.4-1.2.4-1 1-.3q1.5.1 1.4 1.7m-.2 0-.3-1q-.5-.4-.9-.5l-.8.3q-.4.3-.4.8 0 1.4 1.2 1.5.5 0 .9-.3.3-.3.3-.8"/><path fill="#ba1f3e" d="M427.7 527.8q0 1.2-1.3 1.2-1.1-.3-1.3-1.6 0-1.2 1.3-1.3 1.3.4 1.3 1.6"/><path fill="#511124" d="M427.8 527.8q0 1.5-1.4 1.3-.6 0-1-.6t-.4-1.1q0-.7.4-1t1-.4 1 .6.4 1.2m-.2 0-.3-1q-.4-.5-.9-.5-1.1-.2-1.2 1.1 0 .6.4 1 .3.4.8.5t.9-.3.3-.9"/><path fill="#ba1f3e" d="M421.8 529.1q-.2 1.2-1.4 1.3-1.1-.4-1.3-1.6.2-1.3 1.3-1.3 1.2.3 1.4 1.6"/><path fill="#511124" d="M421.9 529.1q0 1.6-1.4 1.4-.7 0-1-.6-.5-.5-.5-1.2 0-1.5 1.4-1.3.7 0 1 .6.5.5.5 1.1m-.2 0q0-1.3-1.3-1.5l-.8.3q-.3.3-.3.9 0 .5.3 1l.8.5q.6 0 .9-.3z"/><path fill="#ba1f3e" d="M467.2 570.7q-.1 1.3-1.3 1.2-1.2-.3-1.3-1.6 0-1.3 1.3-1.2 1.1.4 1.3 1.6"/><path fill="#511124" d="M467.3 570.7q0 1.5-1.4 1.3-.6 0-1-.6t-.4-1.1q0-1.5 1.4-1.3t1.4 1.7m-.2 0-.4-1q-.3-.4-.8-.5a1 1 0 0 0-.9.2q-.3.3-.3 1 0 1.1 1.2 1.4 1.1.1 1.2-1.1"/><path fill="#ba1f3e" d="M470.2 579q-.2 1.5-1.3 1.3-1.2-.4-1.4-1.6.2-1.3 1.4-1.2t1.3 1.6"/><path fill="#511124" d="M470.3 579.1q0 1.5-1.5 1.3-.6 0-1-.6l-.4-1.1q0-1.6 1.4-1.4.7.1 1 .6.5.6.5 1.2m-.3 0-.3-1q-.4-.5-.9-.5-1.2-.2-1.1 1.1t1.1 1.5q1.3.1 1.2-1.1"/><path fill="#24420e" d="m583.3 466.3.9.8 1.5 1.6-.3.3-1.5-1.5-.9-1zm-4.8-19.6q0-1.2-.7-4.4l-.2-1.3h.4l.3 1.2.7 4.5zm3-1.8q0 3.6-1 6l-.5-.2q1.1-2.4 1.1-5.9zm-5.4 4.6a34 34 0 0 0 5.4 5l-.2.5a35 35 0 0 1-5.5-5.2zm9.4 7.2a24 24 0 0 1-.7 6.6l-.4-.2q.7-3.2.7-6.5zm-.8 8.1 1.4-2.3.4.3-1.4 2.3zm-.3 11q2.3.9 3.8 4.5l-.5.2q-1.4-3.4-3.4-4.2zm3.9 3 1.6-2.2.4.4-1.7 2.2zm3.8 32.8q-1 1.8-2.6 3.6l-.3-.4 2.5-3.5zm-6.6 2.7.2.4q1.5 3.2 2.4 4.4l-.3.3a27 27 0 0 1-2.5-4.5l-.2-.4zm5.1 12q-2.2 2.9-4.6 4l-.2-.4q2.3-1.1 4.5-3.9zm-4.4 9q-.9.6-2.8 3.5l-1 1.3-.3-.3 1-1.4q2-2.9 2.8-3.5zm4.8-16.6-2.2.7-.1-.5 2.1-.7zm-3.5-8.3 1.3 1.4-.3.4-1.3-1.5zm-8.5 42.4-1.7-.2h-.4v-.5h.4l1.8.2zm-4-3 .7 2h-.4l-.6-1.8zm-7.2 6.7q-.3 2.4.2 6.2h-.4q-.5-3.9-.2-6.3zm4.6-3.3 1 2.7-.4.1-1-2.7zm4.8 3.3-2.6.1v-.5h2.5zm-34 23.7-1 1.8-.4-.3 1-1.8zm11-.7q-1.3 0-3.6-.7l-.6-.1v-.5l.6.2q2.3.6 3.6.6zm-9.9 5-3-1.5.2-.5 3 1.5zm-17.9-.9q-.8.7-3 4v.1l-.4-.3q2.2-3.4 3.2-4.2zm-3.7-1q-1.9.8-3.6 4.1l-.9 1.6-.4-.3.9-1.5q1.8-3.6 3.8-4.4zm-1.9 9.4q-1.8-.9-5.4-3.1l.1-.5 5.5 3.2zm11.7-1.3q-1.7-1.2-5.2-2.1l-2-.6v-.5l2 .6q3.7 1 5.4 2.2zm3.8-1.4a32 32 0 0 0-10.5-1.7v-.6q5.6 0 10.6 1.8zm-2.6-3.5-1.4-.9.1-.4 1.5.9zm-7.1 4.4-2.4-1.8.2-.4 2.4 1.8zm57.2-48.2a18 18 0 0 0-3.8 3.8l-.3-.4a18 18 0 0 1 3.9-3.8zm-2.2-85.1-2.2-1.1.2-.5 2.2 1.1z"/><path fill="#406325" d="M494.3 594.1a8 8 0 0 1 3.3-2.4c8-3.3 15.7-4 24.7-4.3 2-.2 4.2-1.8 6.3-2.6 5-1.8 10.7-2.2 15.7-4 .3-.2 1.5-.8 2.1-1.4 2.2-2 5.4-2.6 7.8-4.5 8.6-7.6 17.4-14.4 22.3-25.4 5.7-13.5 12.6-27 11.8-43.4-.5-10.3.7-20.4-1.5-30.5-3.5-15-7.8-29.7-15.8-42.9l1.3 1.2c8 13.1 12.4 27.9 15.9 42.8 2.2 10 1 20.2 1.5 30.5.8 16.4-6 30-11.8 43.5-5 11-13.8 17.8-22.4 25.4-2.3 1.8-5.6 2.4-7.7 4.4-.6.6-1.8 1.3-2.1 1.4-5 2-10.6 2.3-15.7 4-2.2 1-4.2 2.4-6.3 2.6-9 .2-16.7 1.1-24.7 4.3a7 7 0 0 0-3.4 2.5z"/><path fill="#24420e" d="M494.2 594q.9-1.3 3.4-2.4 9.5-3.9 24.7-4.3 1.2 0 3.8-1.4l2.4-1.2q2.5-.9 7.7-2 5.5-1 8-2 1.4-.5 2.2-1.4 1-1.2 4-2.4 2.7-1.1 3.7-2l3.4-3c10-8.7 16-16 18.9-22.4l2.1-5q5.3-12 7.1-18.3 3.2-10.6 2.6-20.1-.2-3.7-.1-10.9 0-13-1.4-19.6a148 148 0 0 0-15.8-42.8l.1-.1 1.4 1v.1a147 147 0 0 1 15.9 42.9q1.5 6.6 1.3 19.6 0 7.2.2 10.9.5 9.5-2.6 20.1-2 6.4-7 18.4l-2.3 5a71 71 0 0 1-18.5 22.1l-3.8 3.4q-1 .9-3.6 2-3 1.2-4.1 2.4-.9.9-2.2 1.4a55 55 0 0 1-8.2 2.1q-5.1 1-7.5 1.9l-2.3 1.1q-2.6 1.5-4 1.5A72 72 0 0 0 499 593a7 7 0 0 0-3.3 2.4v.1l-1.5-1.2zm.2.1 1.2 1q1-1.4 3.4-2.4 9.7-3.9 24.7-4.3 1.3 0 4-1.4l2.2-1.2a62 62 0 0 1 7.6-1.8q5.5-1.2 8.1-2.1 1.4-.6 2.1-1.4 1.1-1.2 4.2-2.5 2.6-1 3.6-2l3.8-3.3a71 71 0 0 0 18.5-22l2.2-5.1q5.1-12 7-18.3a61 61 0 0 0 2.6-20.1q-.2-3.7-.1-10.9 0-13.1-1.4-19.6a146 146 0 0 0-15.8-42.8l-1-.8a149 149 0 0 1 15.6 42.5q1.5 6.5 1.4 19.6l.1 10.9q.5 9.5-2.6 20.2a184 184 0 0 1-7.1 18.3l-2.2 5q-4.1 9.5-18.8 22.4l-3.5 3q-1.1 1-3.7 2-3 1.4-4 2.4t-2.2 1.5q-2.6 1-8 2-5.2 1-7.7 2l-2.4 1.1q-2.5 1.4-3.9 1.5a71 71 0 0 0-24.6 4.3 8 8 0 0 0-3.3 2.3"/><path fill="#406325" d="M575.5 550a71 71 0 0 0-1.5-30.4c-6.7 16.6-3.5 30 1.5 30.4"/><path fill="#24420e" d="M575.6 550v.2h-.1c-3-.4-4.4-3-5.3-9.3a44 44 0 0 1 3.7-21.3v-.1l.1.1q1.5 2.5 2.4 13.2 1 12-.8 17.3m-.2-.1q1.8-5.4.9-17.1-1-10.4-2.3-13-4.6 11.2-3.6 21c.8 6.2 2.2 8.7 5 9"/><path fill="#406325" d="M568.2 557a56 56 0 0 0-.5-23.7c-5.5 12.7-3.4 22.9.5 23.6"/><path fill="#24420e" d="M568.3 557c-2.4-.4-3.5-2.4-4-7.4a34 34 0 0 1 3.4-16.3v-.2.2q1 2 1.7 10.3.4 9.3-1.1 13.4m-.1-.2q1.5-4 1-13.2a39 39 0 0 0-1.5-10q-3.7 8.4-3.2 16c.5 4.8 1.5 6.8 3.6 7.2"/><path fill="#406325" d="M585.4 476.3a64 64 0 0 0-19.7-19.2c6.7 16 16.6 22.5 19.7 19.1"/><path fill="#24420e" d="M585.5 476.2v.1c-1.9 2-4.2 1.4-8.6-2.2q-6.8-5.9-11.3-17h.1q2.3.5 9.6 7 7.9 7.3 10.2 12.1m-.2 0a46 46 0 0 0-10.1-12 40 40 0 0 0-9.4-7A44 44 0 0 0 577 474c4.4 3.4 6.6 4 8.4 2.2"/><path fill="#406325" d="M583.8 467a62 62 0 0 0-14.8-20.7c3.5 15.3 11.3 23 14.8 20.8"/><path fill="#24420e" d="M583.9 467v.1c-2 1.3-4.1.3-7.5-3.8q-5.2-6.5-7.5-17v-.2l.1.1q2 1.1 7.6 8.2 6 7.9 7.3 12.6m-.2 0q-1.4-4.6-7.3-12.5-5.3-6.8-7.3-8 2.4 10.3 7.4 16.7c3.3 4 5.3 5 7.2 3.8"/><path fill="#406325" d="M588.7 484.5c-4-5-15.3-10.8-17.5-11 7.5 11.2 15.6 14.2 17.5 11"/><path fill="#24420e" d="M588.7 484.4v.1c-1 2-2.9 2-6.7 0q-5.8-3.3-10.8-11l-.1-.1h.1a27 27 0 0 1 8.1 3.6q7 4.1 9.4 7.4m-.1 0a33 33 0 0 0-9.3-7.2q-6-3.5-8-3.7 5.2 7.7 10.8 10.8c3.7 1.9 5.4 2 6.5.2"/><path fill="#406325" d="M585.8 536c6.7 1.7 19-2 20.9-3.6-13.6-4.6-21.8-1-21 3.6"/><path fill="#24420e" d="M585.8 536c-.6-2.7.8-4.1 5-5.4q6.6-1.6 15.9 1.7h.1v.1c-1.2 1-3.8 2-8.7 3.2a27 27 0 0 1-12.3.4m0-.1q4.3 1.2 12.2-.5 6.9-1.6 8.5-3a28 28 0 0 0-15.7-1.6c-4 1.2-5.4 2.5-5 5"/><path fill="#406325" d="M585.6 529.6a58 58 0 0 0-8.1-21.2c-.3 13.7 4.7 22.1 8.1 21.2"/><path fill="#24420e" d="M585.7 529.6c-2 .5-3.6-.9-5.6-5.2a37 37 0 0 1-2.7-16v-.3l.1.2q1.5 1.4 4.7 8.8 3.4 8.2 3.5 12.4m-.1 0q-.2-4.3-3.5-12.4-3-7-4.5-8.6-.3 9.2 2.6 15.9c2 4.1 3.5 5.5 5.4 5"/><path fill="#406325" d="M586 514.4a72 72 0 0 0-10.8-28c-.6 18.3 6.3 29.5 10.9 28"/><path fill="#24420e" d="M586.1 514.4c-2.7.9-4.8-1-7.5-6.5q-4-8.9-3.5-21.5v-.2l.2.1a44 44 0 0 1 6.2 11.6 49 49 0 0 1 4.6 16.5m-.1-.1q-.1-5.7-4.6-16.4a47 47 0 0 0-6-11.3q-.6 12.3 3.4 21.2c2.6 5.5 4.6 7.3 7.2 6.5"/><path fill="#406325" d="M531.9 590.8c5 7 19.8 15.2 22.6 15.6-9.4-15.1-20.2-19.7-22.6-15.6"/><path fill="#24420e" d="M531.8 590.9v-.1c1.5-2.5 3.8-2.3 8.8.5q7.5 4.6 14 15v.2h-.1q-2.4-.2-10.6-5.3-9-5.7-12.1-10.3m.2 0q3 4.4 12 10.2 7.8 5 10.3 5.2-6.2-10.3-13.8-14.9c-4.8-2.7-7.1-2.8-8.5-.6"/><path fill="#67923d" d="M575.4 549.9c-5-.5-8.2-13.7-1.4-30.2a121 121 0 0 0 1.4 30.1"/><path fill="#24420e" d="M575.4 550c-3-.4-4.4-3-5.2-9.2a44 44 0 0 1 3.7-21.2h.2c-.6 18.4 0 28.1 1.4 30.2v.1zm-.2-.2c-1.3-2.4-1.8-12-1.3-29.7q-4.5 11.1-3.6 20.7c.8 6 2.2 8.5 5 9"/><path fill="#67923d" d="M520.7 590.7a63 63 0 0 1 22.4 16.1c-15.7-2.5-24.3-11.6-22.4-16.1"/><path fill="#24420e" d="M520.7 590.6q4.9 1 13.5 7.7 7.7 6 9 8.5v.1a37 37 0 0 1-18-7.3c-4.4-3.8-5.7-6.3-4.6-9zm0 .2c-1 2.5.3 5 4.6 8.6a36 36 0 0 0 17.7 7.3 44 44 0 0 0-8.9-8.3q-8.4-6.5-13.4-7.6"/><path fill="#67923d" d="M520.7 581.8a52 52 0 0 1 18-22.1c-4 18.8-13.8 26.2-18 22"/><path fill="#24420e" d="M520.6 581.7q1.5-5.7 8.8-14a31 31 0 0 1 9.2-8.1h.2v.1a40 40 0 0 1-9 19.7c-4.1 4.2-6.7 4.8-9.2 2.4zm.2 0c2.4 2.3 4.8 1.6 8.9-2.4 4.1-4.6 7-10.8 8.8-19.5q-2.5 1-9 8a39 39 0 0 0-8.7 14"/><path fill="#67923d" d="M542.5 580.3a60 60 0 0 1 7.8-27.9c2.8 19.2-2.9 30.1-7.8 28"/><path fill="#24420e" d="M542.4 580.3a45 45 0 0 1 2.8-16.7q3.2-9.5 5-11.3h.1v.1q2 13.2-1 22c-2 5.6-4 7.2-6.8 6zm.2 0c2.7 1.1 4.5-.5 6.6-6q3-8.7 1-21.7a37 37 0 0 0-4.9 11 45 45 0 0 0-2.7 16.7"/><path fill="#67923d" d="M564.5 567.3a44 44 0 0 1 22.3-9.4c-9.5 12.3-20 14-22.3 9.4"/><path fill="#24420e" d="M564.4 567.2q3.2-3.6 12-7 8-2.8 10.3-2.4h.2v.2a30 30 0 0 1-14 11c-4.8 1.5-7.1 1-8.5-1.7zm.2.1c1.3 2.6 3.6 3 8.3 1.6a30 30 0 0 0 13.7-11 30 30 0 0 0-10.1 2.6c-6 2.2-9.7 4.4-12 6.8"/><path fill="#67923d" d="M591 511.3a46 46 0 0 1 11.8-19.6c-1.5 15.2-8.2 22.2-11.9 19.6"/><path fill="#24420e" d="M590.8 511.3q.8-4.7 5.6-12.2 4.5-6.6 6.4-7.5h.1v.1q-.9 10.4-5.1 16.5c-2.9 3.8-4.7 4.7-7 3.2zm.2 0c2 1.3 3.9.5 6.6-3.2a34 34 0 0 0 5.1-16.3q-1.8 1.1-6.1 7.5-4.8 7.4-5.6 12"/><path fill="#67923d" d="M579 552.3a48 48 0 0 1 25-2.9c-12.5 9.3-23.8 8-25 2.9"/><path fill="#24420e" d="M578.9 552.2q4-2.5 13.9-3.3 8.8-.6 11.2.5h.1v.1a30 30 0 0 1-16.9 6.8c-5.3 0-7.6-1-8.3-4zm.1.1c.8 2.8 3 3.9 8.2 3.9q8.2-.5 16.6-6.7a34 34 0 0 0-11-.4 32 32 0 0 0-13.8 3.2"/><path fill="#67923d" d="M589.5 526.3a41 41 0 0 1 18.2-13.8c-6.3 14-15.3 17.8-18.2 13.8"/><path fill="#24420e" d="M589.4 526.2q2.1-4.1 9.5-9.3 6.6-4.4 8.8-4.5h.1v.1a30 30 0 0 1-10.5 13.7c-4 2.4-6.2 2.5-7.9.1zm.2 0c1.6 2.2 3.7 2.2 7.6-.2a30 30 0 0 0 10.3-13.4q-2.1.2-8.6 4.5a29 29 0 0 0-9.3 9.2"/><path fill="#67923d" d="M588 475a58 58 0 0 1 10.2-25.8c1 18.5-5.6 28.3-10.2 25.8"/><path fill="#24420e" d="M587.9 475q0-5.8 4.3-15.6 4-8.8 6-10.3v.1q.8 12.8-3 20.9c-2.6 5-4.6 6.4-7.3 5zm.1 0c2.6 1.3 4.5-.1 7-5a43 43 0 0 0 3.1-20.6 37 37 0 0 0-5.8 10.1A43 43 0 0 0 588 475"/><path fill="#67923d" d="M580.9 445a52 52 0 0 1-.1-22.4c5.5 13.3 3.8 22.6 0 22.4"/><path fill="#24420e" d="M580.8 445a38 38 0 0 1-1.4-13 31 31 0 0 1 1.3-9.5v-.1l.1.1a38 38 0 0 1 3.6 16.4c-.4 4.7-1.3 6.4-3.5 6.2zm.1 0c2 0 3-1.6 3.3-6.1.2-4.9-.9-10-3.5-16.2a34 34 0 0 0-1 9.4q-.3 8.6 1.2 12.9"/><path fill="#67923d" d="M576.5 442a72 72 0 0 1-10.7-26.3c12.1 12.5 14.7 24.5 10.7 26.3"/><path fill="#24420e" d="M576.5 442a50 50 0 0 1-7.5-14.4 43 43 0 0 1-3.2-11.9v-.1h.1a48 48 0 0 1 11.4 17.3c1.8 5.6 1.6 8.1-.7 9.2h-.1zm0-.1c2.2-1.1 2.4-3.5.7-9q-3.1-8.6-11.3-17 0 2.6 3.2 11.7 3.8 10.2 7.4 14.3"/><path fill="#67923d" d="M588.4 482.3c-.2.7 3.1-7.9 14.6-15.2-4.4 15.5-11 18.8-14.6 15.2"/><path fill="#24420e" d="M588.4 482.3v-.2A37 37 0 0 1 603 467l.1-.1v.2q-3 10.7-7.6 14.9c-3 2.4-5 2.5-7 .5zm.1 0c2 2 3.9 1.9 6.8-.5q4.7-4.1 7.6-14.5-10.4 6.4-14.4 15"/><path fill="#67923d" d="M553.5 578a57 57 0 0 1 30-3.2c-15 11-28.6 9.3-30 3.3"/><path fill="#24420e" d="M553.4 578q4.9-3 16.7-4 10.7-.6 13.4.7h.1l-.1.2a36 36 0 0 1-20.1 8c-6.3.1-9.1-1.3-10-4.8zm.2.1c.8 3.4 3.6 4.7 9.8 4.7q9.7-.4 19.9-8-2.9-1.1-13.2-.6-11.7.9-16.5 4"/><path fill="#67923d" d="M568.2 556.9c-4-.8-6-11-.5-23.5-.7 12.3-.3 22 .5 23.5"/><path fill="#24420e" d="M568.2 557c-2.3-.5-3.4-2.5-3.9-7.4a34 34 0 0 1 3.3-16.3h.2c-.9 14.3-.6 21.8.4 23.5l.2.2zm-.2-.2q-1.6-2.8-.4-23a34 34 0 0 0-3.1 15.8c.5 4.7 1.5 6.6 3.5 7.2"/><path fill="#67923d" d="M585.4 476.3c-3.1 3.4-12.8-3-19.6-19 9.8 11 18 18.7 19.6 19"/><path fill="#24420e" d="M585.5 476.4c-1.9 2-4.2 1.3-8.6-2.2q-6.5-5.9-11.1-17h.1c11.2 12.7 17.5 18.7 19.5 19h.2zm-.2 0c-2.3-.6-8.5-6.6-19.2-18.8a44 44 0 0 0 11 16.4c4.1 3.4 6.4 4 8.2 2.4"/><path fill="#67923d" d="M583.7 467c-3.5 2.2-11.3-5.3-14.7-20.7 7 11.6 13.3 20 14.7 20.7"/><path fill="#24420e" d="M583.8 467.1c-2 1.3-4.1.3-7.5-3.8q-5.1-6.5-7.4-17h.1c8 13.4 12.9 19.9 14.7 20.7h.2zm-.3 0q-3-1.5-14.4-20.3a41 41 0 0 0 7.3 16.4c3.2 3.9 5.2 4.9 7.1 3.9"/><path fill="#67923d" d="M588.7 484.5c-1.8 3.2-9.8.2-17.3-11 10.7 8.2 14.7 11.4 17.3 11"/><path fill="#24420e" d="M588.8 484.6c-1 1.9-2.9 1.9-6.6 0a33 33 0 0 1-10.9-11l.1-.1 2.8 2c8.3 6.4 12.9 9 14.5 9h.2zm-.2 0q-2.5.1-14.5-8.9l-2.4-1.8a32 32 0 0 0 10.5 10.5c3.6 1.8 5.3 1.9 6.4.3"/><path fill="#67923d" d="M586 536c-1-4.6 7.2-8.2 20.7-3.6a67 67 0 0 0-20.7 3.5"/><path fill="#24420e" d="M585.9 536c-.6-2.7.8-4.1 5-5.3q6.6-1.6 15.8 1.6v.2c-13 1-19.5 2-20.7 3.5v.1zm0-.3c1.5-1.3 8-2.4 20.4-3.4q-9-3-15.4-1.5c-4 1.2-5.3 2.5-5 5"/><path fill="#67923d" d="M585.6 529.6c-3.5.8-8.5-7.5-8.1-21.1 3.5 11.5 7 20.2 8 21.1"/><path fill="#24420e" d="M585.6 529.7c-2 .5-3.6-.9-5.6-5.2a37 37 0 0 1-2.6-16h.1q6 19.7 8 21l.2.1zm-.2-.1a87 87 0 0 1-7.9-20.6q-.2 8.9 2.7 15.5c1.9 4 3.3 5.4 5.2 5"/><path fill="#67923d" d="M586 514.5c-4.6 1.5-11.4-9.5-10.8-27.8a125 125 0 0 0 10.8 27.8"/><path fill="#24420e" d="M586 514.6c-2.7.9-4.7-1-7.4-6.5q-4-8.9-3.4-21.4h.1c5.3 17.5 8.8 26.4 10.7 27.7l.2.1zm-.2-.1q-3-2.4-10.5-27.3-.4 12.2 3.4 20.8c2.6 5.4 4.5 7.1 7 6.5"/><path fill="#67923d" d="M532 590.8c2.5-4.2 13.1.4 22.5 15.5a105 105 0 0 0-22.5-15.5"/><path fill="#24420e" d="M531.9 590.7c1.5-2.4 3.8-2.3 8.8.5q7.4 4.6 13.9 15.1l-.2.1Q535 590.5 532 591h-.2zm.2 0c2.3.2 9.5 5 22 15.3a44 44 0 0 0-13.5-14.6c-4.7-2.7-7-2.9-8.5-.7"/><path fill="#406325" d="M542.6 580.3c4.9 2 10.5-8.7 7.7-27.9-3 15.4-6.4 26.9-7.7 27.8"/><path fill="#24420e" d="M542.6 580.3h-.2l.2-.1c1.7-1.2 4.2-10 7.6-27.8h.2q2 13.2-1 22c-2.1 5.5-4 7.2-6.8 6m.2-.1c2.7 1 4.4-.7 6.4-6q3-8.5 1.1-21.4c-3.3 17-5.8 25.8-7.5 27.3"/><path fill="#406325" d="M553.1 576a66 66 0 0 0 4.7-29.6c-10.1 14.1-9.6 27.7-4.7 29.6"/><path fill="#24420e" d="M553.2 576c-3-1-4-4-3.5-10.2q1-10 8-19.4l.1-.1.1.1q.9 2.8-.3 13.3-1.5 11.8-4.4 16.3m-.1-.2q2.9-4.4 4.3-16.1 1.2-10.2.4-13a40 40 0 0 0-8 19.1c-.4 6 .6 9 3.3 10"/><path fill="#406325" d="M520.6 590.7c-1.8 4.5 6.7 13.6 22.4 16a105 105 0 0 1-22.4-16"/><path fill="#24420e" d="M520.6 590.6v-.1l.1.2c1 2.2 8 7.4 22.3 16v.2q-10.8-1.7-17.8-7.3c-4.4-3.8-5.7-6.3-4.6-9m0 .3c-.8 2.5.4 5 4.6 8.5q7 5.5 17.3 7.2c-13.6-8.2-20.6-13.3-21.9-15.7"/><path fill="#406325" d="M520.8 581.7c4.2 4.1 13.9-3.2 17.8-22-8.4 12.8-16 21.7-17.8 22"/><path fill="#24420e" d="m520.8 581.8-.2-.2h.2c2.3-.3 8-7.3 17.8-22l.1.1q-2.7 13-8.8 19.7c-4.1 4-6.7 4.8-9.2 2.4m.3 0c2.4 2 4.8 1.4 8.7-2.6q6.1-6.5 8.8-19-14 20.9-17.5 21.6"/><path fill="#406325" d="M564.6 567.4c2.2 4.6 12.7 2.9 22.2-9.4a74 74 0 0 1-22.2 9.4"/><path fill="#24420e" d="M564.5 567.4v-.2h.1c2 .7 9-2.2 22.1-9.3l.1.1a31 31 0 0 1-13.8 11.1c-4.9 1.5-7.1 1-8.5-1.7m.2.1c1.4 2.4 3.6 2.8 8.2 1.4q7.2-2.5 13.5-10.6-18.4 10-21.7 9.2"/><path fill="#406325" d="M591 511.3c3.7 2.6 10.3-4.4 11.8-19.6a77 77 0 0 1-11.8 19.6"/><path fill="#24420e" d="m591 511.4-.2-.2h.2c1.7-.6 5.5-6.7 11.7-19.5h.2q-.9 10.5-5.1 16.6c-2.9 3.7-4.7 4.6-6.9 3m.3 0c2 1.3 3.7.4 6.4-3.2q4.1-5.9 5.1-15.9c-6 12.2-9.7 18.2-11.5 19.1"/><path fill="#406325" d="M579 552.3c1.3 5 12.4 6.4 25-2.8a79 79 0 0 1-25 2.8"/><path fill="#24420e" d="m579 552.4-.1-.2h.1c2 1.2 10 .5 24.9-2.8v.2a30 30 0 0 1-16.6 6.8c-5.3 0-7.6-1.1-8.4-4m.2.1c.9 2.7 3.1 3.7 8.1 3.7a30 30 0 0 0 16.3-6.5q-21.3 4.4-24.4 2.8"/><path fill="#406325" d="M589.6 526.2c2.9 4 11.8.2 18.1-13.8a68 68 0 0 1-18 13.8"/><path fill="#24420e" d="m589.6 526.2-.2-.1h.2c2 .2 7.7-4 18-13.7h.2a30 30 0 0 1-10.4 13.7c-4 2.5-6.1 2.5-7.9.1m.3.1c1.6 2 3.7 2 7.5-.3q6-4 10.2-13.2c-10 9.2-15.6 13.4-17.7 13.5"/><path fill="#406325" d="M588 475c4.7 2.5 11.2-7.2 10.2-25.7a99 99 0 0 1-10.1 25.7"/><path fill="#24420e" d="M588 475h-.1l.1-.1c2-1 5.2-9.1 10.1-25.6h.2q.8 12.7-3 20.8c-2.6 5-4.6 6.4-7.3 5m.2-.1c2.6 1.2 4.5-.2 7-5a43 43 0 0 0 3-20.2c-4.7 15.8-8 23.9-10 25.2"/><path fill="#406325" d="M581 445c3.7.2 5.4-9-.2-22.4 1 12 .8 21.3.1 22.4"/><path fill="#24420e" d="M581 445.1h-.2v-.2c1-1.3 1-8.4 0-22.3a38 38 0 0 1 3.6 16.3c-.3 4.7-1.3 6.3-3.5 6.2m.2-.2c2 0 2.8-1.6 3.2-6q.3-7-3.4-15.8 1.4 19.5.2 21.8"/><path fill="#406325" d="M576.6 441.9c4-1.8 1.4-13.7-10.7-26.1 6.7 13.4 11 24.4 10.7 26.1"/><path fill="#24420e" d="M576.6 442h-.1v-.1q.7-3-10.7-26l.2-.2a48 48 0 0 1 11.4 17.1c1.8 5.6 1.6 8.1-.8 9.2m.1-.2c2-1.2 2.2-3.6.5-9q-3-8.3-11-16.6 11 22.2 10.5 25.6"/><path fill="#406325" d="M588.5 482.4c3.5 3.6 10.1.2 14.5-15.3-8.1 10.4-13 15-14.5 15.3"/><path fill="#24420e" d="M588.4 482.4v-.1c1.9-.2 6.5-5 14.5-15.3l.2.1a31 31 0 0 1-7.6 14.9c-3 2.4-5 2.5-7 .4m.2 0c2 2 3.8 1.8 6.7-.5a30 30 0 0 0 7.4-14.4c-7.7 9.8-12.2 14.5-14.1 15"/><path fill="#406325" d="M553.6 578.1c1.4 6.1 14.9 7.8 29.8-3.2-15.5 3.3-28 4.3-29.8 3.2"/><path fill="#24420e" d="M553.5 578.1v-.2l.1.2c2.3 1.4 11.9.6 29.8-3.3v.2a36 36 0 0 1-20 8c-6.2 0-9-1.3-10-4.9m.3.2c1 3.3 3.7 4.6 9.7 4.5q9.6-.4 19.6-7.7-25.6 5.4-29.3 3.2"/><path fill="#406325" d="M560.6 570.5a50 50 0 0 0 3.7-22c-7.6 10.6-7.3 20.5-3.7 22"/><path fill="#24420e" d="M560.7 570.6c-2.2-.9-3-3-2.6-7.7a30 30 0 0 1 6.1-14.4v-.1l.2.1q.6 2-.3 10-1.2 8.6-3.4 12m-.1-.1q2.1-3.5 3.3-12 .9-7.5.3-9.7a30 30 0 0 0-6 14.3c-.3 4.5.4 6.5 2.4 7.4"/><path fill="#406325" d="M580.7 541.3a55 55 0 0 0 3-25.3c-8.4 12.4-7.4 23.9-3 25.3"/><path fill="#24420e" d="M580.8 541.4c-2.6-.9-3.6-3.2-3.4-8.6q.5-8.4 6.3-16.9h.1q1 2.5.3 11.4a36 36 0 0 1-3.2 14m-.1-.1q2.3-4 3.2-14 .6-8.5-.2-11-5.8 8.3-6.2 16.6c-.2 5.2.7 7.5 3.2 8.4"/><path fill="#67923d" d="M553 575.9c-4.9-1.9-5.3-15.4 4.8-29.4a110 110 0 0 0-4.7 29.4"/><path fill="#24420e" d="M553 576c-2.8-1.1-3.8-4-3.3-10.2q1-9.8 8-19.4l.1.1q-6.4 26-4.6 29.3v.2zm0-.2c-1-2.7.4-12 4.6-28.9q-6.8 9.4-7.7 18.9c-.5 6 .4 8.8 3 10"/><path fill="#67923d" d="M589.1 504.4c-.7-9 4-21.6 6.8-24.3 2.5 16.7-2.5 26.1-6.8 24.3"/><path fill="#24420e" d="M589 504.4q-.5-6.1 2-14.6 2.6-7.7 4.9-9.8l.1.1q1.8 11.6-.9 19.2c-1.9 4.8-3.5 6.2-6 5.2zm.2 0c2.4.9 4-.5 5.8-5.2q2.6-7.6.9-19-2.2 2.2-4.7 9.7a38 38 0 0 0-2 14.5"/><path fill="#67923d" d="M560.6 570.4c-3.7-1.5-4-11.3 3.6-21.8a84 84 0 0 0-3.6 21.8"/><path fill="#24420e" d="M560.6 570.5c-2.2-.9-2.9-3-2.5-7.6a30 30 0 0 1 6-14.4h.2c-3.3 13.1-4.4 20-3.6 21.9v.2zm-.2-.2q-1-3 3.6-21.3a30 30 0 0 0-5.8 14c-.3 4.3.3 6.4 2.2 7.3"/><path fill="#67923d" d="M584.5 457c-2-7.2.1-22 1.3-24.2 5.3 14.8 2.8 24.8-1.3 24.3"/><path fill="#24420e" d="M584.5 457q-1.5-4.6-.7-14a32 32 0 0 1 2-10.2v-.1.1a41 41 0 0 1 3 18c-.7 5-1.9 6.6-4.3 6.3zm0 0c2.4.2 3.4-1.5 4.1-6.3q.8-7.7-2.8-17.7-1 2-1.8 10-.8 9.3.6 14"/><path fill="#67923d" d="M525 583c3-8.9 16.4-20.8 19.3-21.7-4.8 19-15.1 26-19.3 21.6"/><path fill="#24420e" d="M525 582.9q1.7-5.8 9.5-13.9 7.2-7.2 9.7-7.8h.2v.2a40 40 0 0 1-10 19.6c-4.3 4-7 4.6-9.5 2zm.1 0c2.4 2.4 5 1.9 9.2-2a40 40 0 0 0 9.9-19.5q-2.6.8-9.6 7.7a38 38 0 0 0-9.5 13.8"/><path fill="#67923d" d="M580.9 544.6c3.1-6.8 15-15 17.4-15.5-5.4 14.8-14.2 19.4-17.4 15.4"/><path fill="#24420e" d="M580.8 544.5q2-4.4 9-10.2 6.3-5 8.5-5.3h.1v.2a32 32 0 0 1-9.6 14.7c-4 2.8-6.1 3-8 .7zm.2 0c1.8 2.2 3.9 2 7.7-.7q5.9-4.5 9.5-14.6-2.2.4-8.4 5.3-7 5.6-8.8 10"/><path fill="#67923d" d="M580.8 541.1c-4.5-1.4-5.4-12.7 3-25.1a91 91 0 0 0-3 25.1"/><path fill="#24420e" d="M580.8 541.2c-2.6-.9-3.6-3.2-3.4-8.5.4-5.7 2.4-11 6.3-16.8h.2c-3.2 15.1-4 23.2-3 25.2v.2zm-.2-.2q-1.4-3.3 3-24.6a33 33 0 0 0-6 16.3c-.2 5.1.6 7.4 3 8.3"/><path fill="#406325" d="M589.2 506.5c5.4 2.4 9.1-9.6 6.7-25.9a115 115 0 0 1-6.7 25.9"/><path fill="#24420e" d="m589.2 506.6-.2-.1h.1c1.4-1 3.6-9.2 6.8-26h.1a49 49 0 0 1-.4 20.1q-1.1 3.7-2.7 5.3-1.7 1.7-3.8.7m.3-.1q1.7.8 3.4-.7 1.5-1.6 2.6-5.2 2.2-8.1.5-19.5c-3 15.9-5.2 24-6.5 25.4"/><path fill="#406325" d="M590 506.2c.3-8.7-7.1-26.5-9.2-29-1.8 17.8 4.4 29.7 9.2 29"/><path fill="#24420e" d="M590 506.2c-2.8.5-4.8-1.6-7.2-7.5q-3.5-9.3-2-21.5v-.1q2 2.1 5.7 12.2 3.8 11.2 3.6 16.9m-.2-.1q.2-5.6-3.6-16.7a50 50 0 0 0-5.4-12q-1.3 12 2 21.2c2.4 5.8 4.3 7.8 7 7.5"/><path fill="#406325" d="M584.6 457c4 .5 6.5-9.3 1.2-24.1.3 13-.4 23-1.2 24.1"/><path fill="#24420e" d="M584.6 457.1h-.2l.2-.2c1-1.3 1.5-9 1.2-24h.1a41 41 0 0 1 3 17.8c-.8 5-2 6.7-4.3 6.4m.2-.1c2.2 0 3.2-1.6 3.8-6.3a40 40 0 0 0-2.7-17.3c.4 14.3 0 21.8-1.1 23.6"/><path fill="#406325" d="M525.1 582.9c4.2 4.4 14.4-2.6 19.2-21.6C535 574 527 582.6 525 583"/><path fill="#24420e" d="M525 583v-.2h.1c2.4-.2 8.5-7 19.1-21.5h.2a40 40 0 0 1-9.9 19.7c-4.3 4-7 4.5-9.5 2m.3 0c2.4 2.2 5 1.7 9.1-2.2a40 40 0 0 0 9.7-19q-15.2 20.6-18.8 21.2"/><path fill="#406325" d="M581.1 544.6c3.2 4 12-.6 17.3-15.4a71 71 0 0 1-17.3 15.4"/><path fill="#24420e" d="M581 544.7v-.2h.1c2 0 7.5-4.8 17.2-15.4l.2.1A32 32 0 0 1 589 544c-4 2.8-6 3-8 .7m.3 0c1.8 2 3.8 1.8 7.6-.9q5.8-4.4 9.3-14.2c-9.3 10.1-14.8 14.8-17 15.1"/><path fill="#67923d" d="M589.9 506c-4.8.8-11-11-9.1-28.7a129 129 0 0 0 9 28.7"/><path fill="#24420e" d="M589.9 506.1c-2.8.5-4.8-1.6-7.1-7.4q-3.5-9.4-2-21.4c4.3 17.8 7.3 27 9 28.6l.3.2zm-.2-.1c-1.9-2-4.8-11.1-8.9-28.2a46 46 0 0 0 2.1 20.8c2.3 5.6 4.2 7.6 6.8 7.4"/><path fill="#ba1f3e" d="M587.9 462.5q-.1 1-1.2 1-1-.2-1-1.3t1-1 1.1 1.3"/><path fill="#511124" d="M588 462.5q0 .5-.4.9a1 1 0 0 1-.9.3q-.5-.1-.8-.5-.4-.6-.4-1 0-.6.4-1 .3-.2.8-.2t1 .5zm-.3 0q0-.5-.3-.8t-.7-.5q-1-.1-1 1 0 1 1 1.2.4 0 .7-.2t.3-.7"/><path fill="#ba1f3e" d="M591.7 476.3q0 1-1 1.1-1-.2-1.2-1.4.1-1 1.1-1 1 .2 1.1 1.3"/><path fill="#511124" d="M591.9 476.4q0 .5-.4.9a1 1 0 0 1-.9.2q-1.2 0-1.2-1.5 0-.5.4-.9.3-.3.8-.2t.9.5zm-.3 0q0-1.2-1-1.3t-1 1 1 1.2q.4 0 .7-.2t.3-.8"/><path fill="#ba1f3e" d="M593.3 518.5q0 1.3-1.3 1.3-1.2-.3-1.3-1.6 0-1.3 1.3-1.3 1.3.4 1.3 1.6"/><path fill="#511124" d="M593.4 518.5q0 1.6-1.4 1.4-.6 0-1-.6l-.4-1.1q0-1.6 1.4-1.4t1.4 1.7m-.2 0q0-.6-.4-1-.3-.4-.8-.5-1.2 0-1.2 1.2 0 1.4 1.2 1.5.5 0 .8-.3t.4-.9"/><path fill="#ba1f3e" d="M588 510q0 1.3-1.2 1.2t-1.3-1.6q0-1.3 1.3-1.2 1.1.3 1.3 1.6"/><path fill="#511124" d="M588.2 510q0 1.4-1.4 1.4-.6-.1-1-.6t-.5-1.2.5-1 1-.3q1.4.1 1.4 1.7m-.2 0-.4-1q-.3-.4-.8-.5a1 1 0 0 0-.9.3q-.3.3-.3.9 0 .4.3 1 .4.3.9.4.5 0 .8-.2z"/><path fill="#ba1f3e" d="M573 552.6q-.2 1.3-1.3 1.2t-1.3-1.6q0-1.3 1.3-1.2 1.1.2 1.3 1.6"/><path fill="#511124" d="M573 552.6q0 1.5-1.3 1.3t-1.5-1.7q0-1.4 1.5-1.4 1.4.2 1.4 1.8m-.2 0-.4-1q-.3-.4-.8-.5a1 1 0 0 0-.9.3q-.3.3-.3.8t.3 1l.8.5q.5 0 .9-.3z"/><path fill="#ba1f3e" d="M579.4 556.5q0 1.3-1.3 1.3-1.2-.3-1.3-1.6 0-1.3 1.3-1.3 1.2.4 1.3 1.6"/><path fill="#511124" d="M579.5 556.6q0 1.5-1.4 1.3-.6 0-1-.6t-.4-1.2.4-1 1-.3q.6 0 1 .6t.4 1.2m-.2 0q0-1.4-1.2-1.6l-.8.3q-.4.4-.4.9 0 1.3 1.2 1.5 1.2 0 1.2-1.2"/><path fill="#ba1f3e" d="M536 586.5q-.2 1.2-1.4 1.2-1.1-.3-1.3-1.6.2-1.3 1.3-1.3 1.2.3 1.4 1.7"/><path fill="#511124" d="M536 586.5q0 1.5-1.4 1.3t-1.4-1.8q0-.6.4-1 .4-.3 1-.3 1.4.2 1.5 1.8m-.3 0q0-.6-.3-1-.4-.5-.9-.5-1.1-.2-1.2 1 0 1.4 1.2 1.6 1.3 0 1.2-1.2"/><path fill="#ba1f3e" d="M528.8 591q-.1 1.3-1.3 1.2-1.2-.3-1.3-1.6 0-1.3 1.3-1.2 1.1.4 1.3 1.6"/><path fill="#511124" d="M528.9 591q0 .7-.4 1-.4.5-1 .3-.6 0-1-.6l-.4-1.1q-.1-.7.4-1t1-.4q1.4.2 1.4 1.8m-.2 0q0-.6-.4-1-.3-.4-.8-.5-1.3-.1-1.2 1.1 0 1.4 1.2 1.5.5 0 .8-.3z"/><path fill="#ba1f3e" d="M580 455.1q0 1-1 1-1-.1-1.1-1.3 0-1.1 1-1t1.2 1.3"/><path fill="#511124" d="M580.2 455.1q0 .6-.3 1a1 1 0 0 1-1 .2q-1.2-.2-1.1-1.5t1.2-1.2 1.2 1.5m-.2 0q0-1.1-1-1.3-.4 0-.7.3l-.3.7q0 .5.3.8t.7.4.7-.2.3-.7"/><path fill="#8c959d" d="M453.1 533.5c0 1.3.8 2.5 2.2 2.6.4 0 .6-.5.1-.5q-.6 0-1.2-.6-.9-1.2-.4-2.2z"/><path fill="#485654" d="m453 533.4.7-.7h.1q-.5 1.3.4 2.2.6.7 1.2.6l.3.1v.2q0 .3-.4.4-1 0-1.7-1-.6-.7-.5-1.8zm.2 0q-.1 1 .5 1.8t1.6.8q.3 0 .3-.2v-.1h-.2q-.6 0-1.2-.7-.8-1-.6-2z"/><path fill="#8c959d" d="M456.2 536.2q-1.9 2-3.5.4-1-1-.5-2.2l-1.2 1.2c.1.2.8 1.5 1.8 2.3q2.2.9 4.1-1.2c.8-1 1.5-2.3 1-3.9a6 6 0 0 0-2-2.2l-1 1.1q.7-.3 1.7.6c1.2 1.5.6 2.8-.4 4"/><path fill="#485654" d="m456.2 536.2-1.2 1q-.7.2-1.5 0-.4 0-.8-.4l-.5-.7-.2-.9.1-.8h.1l-1.1 1.3v-.1l1 1.6.8.6.8.3q.9 0 1.6-.3.8-.4 1.3-1l1-1.4q.3-.7.4-1.7l-.2-1-.6-.7-1.4-1.3h.1l-1 1h-.1q.3-.2.8 0 .3 0 .7.3.7.6 1 1.4 0 .9-.3 1.6zm0 0q.5-.5.8-1.2t.2-1.6q-.3-.8-1-1.3t-1.4-.3v-.2l1-1h.1q.8.5 1.5 1.2l.5 1q.3.4.3.9a4 4 0 0 1-.4 1.8l-1 1.5q-.5.6-1.4 1-.7.4-1.7.3l-.9-.3-.7-.6q-.7-.8-1.1-1.7v-.1l1.1-1.2h.2l-.2.8.2.8.5.7.7.5q.8.1 1.5-.1z"/><path fill="#6c301e" d="m536.1 448.7-41.1 38-42.1 37.6c-1.2 1.3-4.4 4.8-4.7 5.3-2.2 2.3-4.6 5.3-7.4 8-.6.5-1.1.2-1.8.5-1.8 1-3.7 2.7-5.2 4.1l-12.5 13.4q-1.2 1.3-.4 2l6.7 11c1.4 1.5 2.6 2.3 3.3 1.3 3.3-5.6 11.1-13.9 14.3-20.7 1.8-4.3 4.2-11.7 5.7-13.5l12-12.4 1-1 1-1 72.3-71.3z"/><path fill="#351710" d="M536 448.6h.2l.6.7.5.7v.1l-26.7 26.4-45.6 45-1 .9-1 1-3.7 3.8-8.3 8.6q-1.1 1.1-3.7 8.2l-2 5.2q-1.8 4.1-8.6 12.8-4.3 5.6-5.7 8-.4.8-1.5.3-.9-.5-2-1.7l-6.7-10.9q-.8-.8.4-2.2l12.6-13.3q2.8-3 5.2-4.2l.7-.2q.7 0 1-.3a88 88 0 0 0 7.4-8l2.6-3 2-2.3 21.2-18.8 21-18.9zm.1.3-41 37.8-21 18.9-21.2 18.8-2 2.3-2.6 3-2.6 2.8q-3 3.4-4.8 5.1-.4.4-1.1.5l-.7.1q-2.4 1.2-5.2 4.1l-12.5 13.4q-1 1.1-.5 1.9l6.8 10.8q1 1.2 1.9 1.7t1.2-.3q1.4-2.3 5.8-8 6.6-8.7 8.5-12.7l2-5.2q2.7-7.1 3.7-8.3l8.3-8.6 3.8-3.8 1-1 1-1 45.5-44.9L537 450l-.4-.6z"/><path fill="#8c959d" d="M450.7 524c-1.3-.3-2-1.1-3-2q1.9 1 3.6.9z"/><path fill="#485654" d="M450.7 524q-1.2-.2-2.8-1.8l-.2-.2v-.1l.5.2q2.1 1 3 .7h.2zm0-.1.5-1q-1.1.3-3-.7h-.2q1.5 1.5 2.6 1.7"/><path fill="#b2b6ba" d="M579 422.3 546.4 447q-.5.4-1-.2l-3-3.1v-.7l1.4-1.4q.3-.2 0-.6l-.7-.8q-.3-.2-.6.1l-1.5 1.5q-1.2 0-1.4 1.3l-56.3 51.7-23.2 20.6c-.9 1-4.3 2.6-6.7 3.9q-1.3.7-1.9 1.4l-1.9 5.9-2.5 4.3c2.4 3 2.3 2.8 4 4.7l11.3-11.5.9-1a21 21 0 0 0-3.3-4.2q-.1-.3.4-.6l80.2-73.5.4.1h.7l2.8 4q1 1 1.8.7z"/><path fill="#485654" d="M579 422.2v.2l-32.6 27.3q-1 .3-2-.8l-2.7-4q-.3.2-.7.1h-.3l-55 50.4-25.2 23-.2.1-.2.3.4.5.2.2 2.7 3.5v.1l-.3.4-.6.7-5.7 5.7-5.7 5.8v.1l-.1-.1-1-1.1-3-3.7v-.1l.5-.9q1.6-2.5 2-3.4l2-5.8q.3-.7 1.8-1.5l2.4-1.3q3.9-2 4.4-2.6l23.1-20.6 32-29.3 24.3-22.4q0-1.4 1.4-1.4l1.5-1.4q.4-.4.8 0l.5.6.1.1q.4.5.1.8l-1.4 1.4v.5l3 3.1.4.3.4-.1 32.6-24.7zm-4.2 3.4-28.3 21.5q-.3.3-.6.2t-.5-.4l-3-3.2v-.1l-.1-.5v-.1l1.5-1.5-.2-.4v-.2l-.6-.6-.5.1-1.5 1.5q-1.2 0-1.3 1.2l-24.4 22.5-32 29.3-23 20.6a22 22 0 0 1-4.5 2.6l-2.3 1.3q-1.5.9-1.9 1.4l-1.9 5.8-2 3.5-.5.8 3 3.5.8 1 5.6-5.6 5.7-5.8.7-.7.1-.2-1.3-2-1.3-1.4-.2-.3-.4-.4q-.2-.2 0-.4l.3-.3.1-.1 25.2-23 55.1-50.6.4.2h.6l.1-.1 3 4q.7 1 1.6.8z"/><path fill="#485654" d="M449.7 526.4h1.2l.8-2.5.7-2.6-.7-.6.8.6-.7 2.6-.8 2.5q-.3.2-.6.1zm8.2-1.4q0 .9-.8.7-.7 0-.7-.9l.2-.5q.2-.3.5-.1.7 0 .7.8m-.1 0q0-.6-.6-.7t-.5.6l.1.4.4.2q.6.1.6-.5m-3.7 3.7q0 .3-.2.5l-.5.1-.5-.3-.2-.5q0-.4.2-.6l.5-.1q.7 0 .7.9m-.1 0-.2-.5-.4-.2h-.4l-.1.5.1.4.4.3q.5 0 .6-.6m6-9.7-1.7-2 1 1z"/><path fill="#8c959d" d="m522.7 457.7 3.6 4.3.7-.5-3.6-4.4z"/><path fill="#485654" d="m522.6 457.6.8-.6 3.6 4.5-.7.6zm.2 0 3.5 4.3.6-.5-3.5-4.2z"/><path fill="#8c959d" d="M544.3 549.4c0 1.3-.9 2.3-2.3 1.8-.4-.2-.6-.7-.1-.6q.8.3 1.2-.1 1-1 .5-2z"/><path fill="#485654" d="m544.3 549.3-.6-1-.1.1q.4 1.4-.5 2-.6.5-1.2.2h-.3v.2q0 .3.4.5 1 .4 1.7-.3.8-.7.6-1.6zm0 0q0 1-.7 1.6t-1.6.3l-.3-.4v-.1h.2q.6.3 1.3-.2.8-.7.6-1.8z"/><path fill="#8c959d" d="M541.1 551q1.8 2.5 3.5 1.7.9-.9.6-2l1 1.5c0 .2-.7 1.3-1.8 1.6q-2.2.3-4-2.5c-.8-1.3-1.4-3-.8-4.2q.8-1.2 2-1.5l1 1.4q-.7-.5-1.7 0c-1.3 1-.7 2.5.2 4"/><path fill="#485654" d="M541.1 551q.4.8 1.2 1.3t1.5.7q.4 0 .7-.2l.6-.5.2-.8v-.9h-.2l1 1.7v-.1q-.4.7-1 1.2l-.8.4h-.8q-.9-.3-1.6-1a8 8 0 0 1-2.2-3q-.3-1-.3-2 0-.4.3-.7l.5-.7 1.5-.7h-.1l1 1.4.1-.1q-.4-.3-.8-.3h-.7q-.7.4-1 1.2a3 3 0 0 0 .1 1.6q.3.8.8 1.5m0 0-.7-1.5q-.3-.7-.1-1.6.3-.7 1-1 .6-.2 1.3.2l.1-.1-1-1.5q-.9.2-1.6.8l-.6.6-.3.9q0 1 .3 2l1 1.8q.5.8 1.3 1.5.7.6 1.7.9h.9l.8-.4 1.1-1.3v-.1l-1-1.6h-.2l.1.9q0 .4-.3.7l-.5.5-.7.2q-.8 0-1.4-.6z"/><path fill="#6c301e" d="m465.8 435.5 39 52.4 40.2 52.5 4.4 6.9c2 3 4.3 6.8 7 10.4.4.7 1 .7 1.7 1.2 1.7 1.6 3.6 3.9 4.9 5.8l11.8 17.5q1.3 1.6.4 2.2l-7.2 8.5c-1.5 1.1-2.7 1.5-3.3.3-3-6.7-10.4-17.6-13.3-25.5-1.5-4.8-3.6-13-5-15.3L535 535.8l-1-1.3-.9-1.4-68.4-96.7z"/><path fill="#351710" d="m465.9 435.4-.7.5-.5.4v.2l25.2 35.8 43.3 61 .9 1.2.9 1.3 3.6 5.2 7.8 11.4q.9 1.5 3.3 9.4l1.7 6q1.6 4.5 8 15.5 4 7.1 5.3 9.9.4 1 1.4.8 1 0 2-1l7.3-8.5q.8-.6-.4-2.3l-11.8-17.5a32 32 0 0 0-5-6l-.7-.4q-.7-.3-1-.7l-4.6-6.8-2.3-3.6-2.5-4-2-2.9-20-26.2-20-26.2zm-.1.3 39 52.3 20 26.3 20 26.2 2 3 2.5 3.8 2.3 3.7 4.6 6.8q.3.5 1.1.8l.7.4q2.2 2 5 5.8l11.7 17.5q1 1.4.4 2l-7.2 8.5q-1 .9-2 1-.8.1-1.1-.7a142 142 0 0 0-5.4-9.9q-6.3-10.9-7.9-15.5l-1.7-5.9a56 56 0 0 0-3.3-9.5l-7.9-11.4-3.6-5.2-.9-1.3-.9-1.3-43.2-61-25.2-35.6.5-.4z"/><path fill="#8c959d" d="M547.1 540.8c1.3.2 2-.3 3-1-1.3.2-2.4.4-3.5-.3z"/><path fill="#485654" d="M547.1 540.8q1.2.4 2.9-.8l.1-.1v-.1h-.4q-2.1.3-3.1-.4h-.2zm0 0-.4-1.2q1 .6 3 .3h.1q-1.4 1-2.6.8"/><path fill="#b2b6ba" d="m424.5 394.5 31.2 35.6q.4.6 1 .2l3-2v-.2l.1-.5-1.3-1.9q-.3-.4.1-.6l.6-.5q.4-.2.7.3l1.4 2q1.2.4 1.3 1.8l53.5 71.5 22 28.7c1 1.3 4.2 4.1 6.5 6.3q1.3 1.1 1.8 2.1l1.6 6.4 2.4 5.2c-2.6 2.2-2.4 2-4.2 3.3l-10.7-15.5-.8-1.2a13 13 0 0 1 2.8-2.5l.6-.5c.2-.2-.2-.5-.4-.8L461.5 430h-.4l-.7-.3-3 3q-1 .7-1.8 0z"/><path fill="#485654" d="m424.5 394.4-.1.2 31.2 38.2q1 .7 2 0l2.9-3 .6.3h.4l52.2 70 24 31.7.1.2.2.3v.1l-.3.3-.3.2q-.7.4-1.3 1l-1.5 1.5v.2l.2.3.6 1 5.4 7.7 5.4 7.7v.1h.1l1-.8 3.2-2.6v-.1l-.5-1.1-1.9-4.1-1.6-6.4q-.3-.7-1.8-2.2l-2.3-2a33 33 0 0 1-4.2-4.2l-22-28.8-30.4-40.5-23-31q0-1.4-1.5-1.9L460 425q-.5-.6-.8-.4-.2 0-.5.4l-.2.1q-.3.4-.1.8l1.3 1.8v.5l-3.1 2.1-.4.2q-.3 0-.4-.3zm4 4.8 27.1 31q.2.4.6.4l.5-.2 3.2-2v-.7l-1.3-2v-.5h.2l.5-.5q.2 0 .5.3l1.4 2q1.4.3 1.3 1.6v.1l23.2 31 30.3 40.6 22 28.7q.6.9 4.3 4.2l2.3 2a9 9 0 0 1 1.7 2.1l1.6 6.4 2 4.2.4 1-3.1 2.5-1 .7-5.2-7.6-5.4-7.8-.6-1-.2-.2a12 12 0 0 1 2.7-2.4l.3-.2.4-.3q.1 0 0-.4l-.2-.4-.2-.2-24-31.7-52.3-70h-.4l-.6-.3v-.1l-3.1 3q-.8.7-1.7.1z"/><path fill="#485654" d="M548 543.5h-.7l-.5-.4-.6-2.8-.7-2.7q.3-.4.8-.4-.5 0-.8.4l.6 2.8.6 2.8.6.3zm-8-4.1q0 .8.6.9t.8-.7l-.2-.6-.5-.3q-.7 0-.7.6m.1 0q0-.5.6-.4t.5.7q0 .3-.2.4h-.4q-.4 0-.5-.6m3.5 4.9.2.6q.2.3.5.3l.5-.1q.3-.2.2-.5l-.1-.6-.5-.3q-.7-.2-.8.6m.2 0 .2-.4h.3q.3 0 .4.2l.2.4-.2.4q-.2.2-.4.1-.5 0-.5-.7m-5.7-11.8 1.9-1.4z"/><path fill="#8c959d" d="m478.7 449.2-3.8 3-.6-.8 3.8-3z"/><path fill="#485654" d="m478.8 449.2-.8-1-3.8 3.2.7.9zm-.2 0-3.7 3-.5-.8 3.6-3z"/><path fill="#67923d" d="M452.8 566a55 55 0 0 0-30-3.3c17 11.2 29.9 9.6 30 3.3"/><path fill="#24420e" d="M452.8 565.9c0 3.8-2.5 5.2-8.6 5.1a43 43 0 0 1-21.4-8.2l-.2-.1h.2q2.3-1.5 12.9-.9 11.6 1 17 4.1m0 .1a41 41 0 0 0-17-4q-10.3-.5-12.7.7a43 43 0 0 0 21.2 8.1c6 0 8.4-1.3 8.5-4.8"/><path fill="#67923d" d="M544 583.7c8.4-2.3 27.2 3.2 30 5.3-17 6.4-30 1-30-5.3"/><path fill="#24420e" d="M544 583.6q5.4-1.6 17.1 1A39 39 0 0 1 574 589h.1l-.1.1a35 35 0 0 1-21.4 2.1c-6.1-1.7-8.6-4-8.7-7.6zm0 .1c.2 3.5 2.6 5.6 8.6 7.3 6.6 1.6 13.4 1 21.2-2a40 40 0 0 0-12.7-4.3 38 38 0 0 0-17-1"/><path fill="#406325" d="M452.6 566.1c0 6.3-12.8 7.9-29.8-3.3 16 3.2 28.2 4.4 29.8 3.3"/><path fill="#24420e" d="M452.7 566.1c0 3.7-2.5 5-8.6 5a43 43 0 0 1-21.3-8.2v-.2c18.3 3.7 27.8 4.8 29.7 3.3l.2-.1zm-.2.2c-2.2 1.3-11.6.3-29.3-3.3q11.4 7.5 20.9 8c5.9 0 8.2-1.3 8.4-4.7"/><path fill="#406325" d="M544.2 583.8c0 6.2 12.7 11.7 29.8 5.3-16-1.2-28.3-3.7-29.8-5.3"/><path fill="#24420e" d="M544 583.8v-.2l.2.1c1.9 2 11.4 4 29.7 5.3l.1.2a35 35 0 0 1-21.3 2.1c-6.1-1.7-8.6-3.9-8.6-7.5m.1.2c.2 3.4 2.6 5.5 8.5 7.1q9.4 2.5 20.8-2c-17.6-1.3-27-3.1-29.3-5.1"/><path fill="#b2b6ba" d="M529.2 571.7a317 317 0 0 0-78-88.1 49 49 0 0 1 15 9c24.6 21 45.4 47 67.3 77.3l-3.5 2.8z"/><path fill="#485654" d="M529.1 571.7a295 295 0 0 0-37.7-50.9 304 304 0 0 0-40.3-37.1l-.3-.3h.4q5.3.8 15 9 30 25.7 67.4 77.4v.2l-3.5 2.9h-.1zm.2 0 .7.9q1.8-1.2 3.4-2.8-37.4-51.5-67.2-77.2-9.5-8-14.6-8.8a304 304 0 0 1 40 36.9 296 296 0 0 1 37.7 51"/><path fill="#8c959d" d="m531.3 571.7-1.5 1.4c-23.7-36.8-56.4-73.6-78.6-89.5 30.8 20.2 56.8 55.5 80 88z"/><path fill="#485654" d="m531.3 571.7-1.5 1.4a431 431 0 0 0-17.2-24.8 391 391 0 0 0-50-55.5q-5.6-4.8-11.4-9l.1-.3q12 8 23 18.3 10.7 10.4 20.5 21.8 9.7 11.6 18.8 23.7zm0 0-17.8-24.4q-9.1-12.1-18.8-23.6T474 502t-22.9-18.3l.1-.2q6 4.4 11.4 9.2a384 384 0 0 1 31.1 32q9.8 11.5 18.8 23.6 9 12 17.2 24.8z"/><path fill="#fab81c" d="M538.4 567.6q-3 .4-5.3 1.7a4 4 0 0 1-3.7 3.1l-.6-1h-.2l-.6.3q-1-.4-1.7.8-.2 1.8 1.3 3.6c1 1 1.4 1.4 2.5 1.5a3 3 0 0 0 2-1.5c3.8 5.7 6.6 8.8 11.5 13.7q3.4.3 2.5-2.8-.4-1-1.3-.9v-.5c2.5-2.4 3.5-5 1-10.9-2.6-5-4.8-6.6-7.3-7.1m6.4 6q.7 1.4 1 2.5c1.4 3.9.4 7-2.3 8.2h-.2c.3-.8-.7-2.3-1.5-2 .2-1-.6-2.2-1.5-2.1.3-1-.5-2.1-1.5-2 .4-.9-.2-2-1.3-2 .3-1-.3-2-1.3-2q0-1.1-.6-1.7c1.2-.8 2.5-2 3.6-2.6 2.9-.5 4.3 1.7 5.6 3.7"/><path fill="#6c301e" d="M538.2 567.5v-.1h.2c3 .7 5.2 2.8 7.4 7.3 2.2 5 2 8.3-.9 11v.3q.9-.1 1.3 1 .6 1.5-.2 2.3-.8.9-2.4.6h-.1a105 105 0 0 1-11.4-13.5q-1 1.2-2 1.3-1.1 0-2.6-1.5-1.9-2.3-1.3-3.8.5-1.1 1.8-.9l.5-.2h.3l.3.5.3.5c2.2-.3 3.1-1.2 3.5-3v-.1a17 17 0 0 1 5.3-1.7m.2.2q-3 .4-5.3 1.6-.4 3-3.7 3.2h-.1l-.3-.6-.3-.4-.6.3h-.1q-1.1-.4-1.6.8-.5 1.4 1.2 3.5 1.4 1.3 2.5 1.3.8 0 1.8-1.2v-.1l.1-.1h.1q4.5 6.5 11.5 13.7 1.5.2 2.3-.6.6-.7.1-2-.4-1-1.2-.9h-.2v-.6h.1c2.8-2.8 3-5.8 1-10.9-2.3-4.4-4.4-6.4-7.3-7m6.5 5.9.8 1.7.3.7a8 8 0 0 1 .3 5.3q-.8 2.4-2.8 3.2h-.5l.2-.2q.2-.6-.4-1.4t-1-.5l-.3.2.2-.4q.2-.6-.3-1.3t-1-.6h-.4l.2-.2q.3-.5-.2-1.2t-1.1-.5h-.4l.2-.2q.3-.6 0-1.3-.5-.6-1.1-.6h-.2v-.2q.3-.6-.2-1.2t-1-.6h-.2v-.1q.2-1-.4-1.6l-.1-.2 1.4-1 2.2-1.6c2-.4 3.6.6 5.8 3.7zm-.1.1-.1-.1q-2.8-4.4-5.5-3.5l-2.2 1.5-1.2 1q.5.6.5 1.5.7 0 1.1.7t.3 1.3q.7 0 1.1.7t.2 1.3q.6 0 1.1.6.6.8.4 1.3.6 0 1 .8.6.7.4 1.3.6-.1 1.1.7t.5 1.4q1.8-.7 2.6-3 .7-2.5-.3-5l-.3-.8z"/><path fill="#fab81c" d="M546 577.3q-.7-.6-.6-1.3.4-.5 1.3 0 .8.7.6 1.3-.4.6-1.3 0"/><path fill="#6c301e" d="M545.4 576q0-.3.5-.3t.8.3q1 .6.7 1.4-.4.6-1.4 0-1-.8-.6-1.4m.7 1.3q.9.6 1.2 0t-.7-1.2q-.4-.3-.7-.3t-.4.3q-.3.6.5 1.2z"/><path fill="#fab81c" d="M545.7 576.2q-.7-.8-.6-1.4.4-.5 1.3 0 .8.7.6 1.3-.4.6-1.3 0"/><path fill="#6c301e" d="M545 574.8q.2-.3.6-.3t.8.3q1 .7.6 1.4-.3.7-1.3 0t-.7-1.4m.8 1.3q1 .6 1.1 0v-.6q-.1-.4-.6-.6-.4-.3-.7-.3t-.5.3q-.2.6.6 1.2z"/><path fill="#fab81c" d="M545 574.8q-.8-.7-.5-1.3t1.2 0 .7 1.3q-.4.4-1.3 0"/><path fill="#6c301e" d="M544.4 573.4q.2-.3.5-.3.4 0 .8.3t.6.7.1.7q-.3.8-1.4 0-.9-.7-.6-1.4m.8 1.4q.9.5 1.1 0v-.7l-.6-.6-.7-.2q-.4 0-.5.2-.3.7.6 1.2z"/><path fill="#fab81c" d="M544.3 573.5q-.9-.7-.6-1.3t1.2 0 .7 1.3q-.5.6-1.3 0"/><path fill="#6c301e" d="M543.6 572.2q.4-.8 1.3 0 1.1.6.7 1.3-.3.8-1.4 0-.9-.6-.6-1.3m.7 1.3q1 .6 1.2 0 .3-.6-.6-1.3-.9-.6-1.2 0t.6 1.3"/><path fill="#fab81c" d="M543.2 572.3q-.7-.7-.6-1.4c.3 0 .7.2.7-.2q-.2-.1 0-.1l.6.3q.8.7.6 1.3-.4.6-1.3 0"/><path fill="#6c301e" d="M543.2 572.3q-1-.7-.6-1.4v-.1l.5.1h.1v-.4l.7.4.6.7v.7q-.3.8-1.3 0m0 0q1 .4 1.3 0 .3-.7-.7-1.3l-.5-.3v.3h-.2l-.4-.1q-.3.7.5 1.3"/><path fill="#fab81c" d="M532 576.2q1.3-3.1 3.6-3.8zm.3.3c1.5.3 3.2-.8 3.9-2.3zm1.2 1.8c1.8.5 3.2-.8 4-2.1zm1.5 2c2.1.2 3.2-1 3.9-2.1zm1.6 2q2.8-.2 3.7-2.2zm1.5 1.7q2.8.1 3.7-1.7zm1.7 1.9q2.7.2 3.5-1.6zm1.8 1.9q2.6.1 3.2-1.7z"/><path fill="#6c301e" d="M532 576.2a8 8 0 0 1 1.4-2.4l1-1 1.2-.3q-.6 0-1.2.5l-1 .8q-.8 1-1.4 2.4m.3.3h1.2a5 5 0 0 0 2-1.3l.7-1q-.2.6-.6 1l-1 .9-1 .4zm1.2 1.8a3 3 0 0 0 2.3-.4l1-.7.7-1a5 5 0 0 1-1.6 1.8l-1.1.5q-.7 0-1.3-.2m1.5 2h1.2a4 4 0 0 0 2-1.2l.7-1q-.6 1.2-1.6 1.9l-1 .4zm1.6 2a4 4 0 0 0 3-1.3l.7-1q-.1.7-.6 1l-.9.8-1 .4zm1.5 1.8h1l1.1-.3 1-.6.6-.8-.6 1-1 .5q-.9.5-2.1.2m1.7 1.9h1q.6 0 1-.3l.8-.5.7-.8q-.1.6-.6.9l-.9.6a3 3 0 0 1-2 0m1.8 2h1a3 3 0 0 0 1.6-.9l.6-.8a3 3 0 0 1-1.3 1.5l-1 .3z"/><path fill="#b2b6ba" d="M469.4 559.6a202 202 0 0 1 82-58.4 36 36 0 0 0-15.4 3.4c-25.4 11.9-47.5 29.7-70.8 51.6l3.3 4.2z"/><path fill="#485654" d="M469.5 559.7a183 183 0 0 1 40-36.4 205 205 0 0 1 42-22l.3-.1-.4-.1q-5.2-1.3-15.5 3.4-30.9 14.3-70.8 51.6v.2l3.3 4.1.1.1zm-.2-.2-.8.7-3.2-4q39.9-37.2 70.7-51.5c6.7-3 11.4-4 15-3.5q-21 8-41.6 21.9a184 184 0 0 0-40.1 36.4"/><path fill="#8c959d" d="m467.3 558.9 1.4 1.9c25.4-27.8 59.8-51.7 82.6-59.6-31.6 9-59.1 33.9-84 57.6z"/><path fill="#485654" d="m467.3 558.9 1.3 1.9a272 272 0 0 1 71-54.5 110 110 0 0 1 11.8-5l-.1-.2a119 119 0 0 0-23.7 9.8q-11.3 6.1-21.5 14a316 316 0 0 0-20 16.3 786 786 0 0 0-18.9 17.7m0 0q9.4-9 19-17.6a322 322 0 0 1 20-16.3q10.2-7.7 21.5-14 11.3-6 23.6-9.7v-.2a110 110 0 0 0-23 11 247 247 0 0 0-41.3 30.4 270 270 0 0 0-18.4 18.2z"/><path fill="#fab81c" d="M460.4 552.2q3 1.5 5.3 3.6a7 7 0 0 0 3.5 4.5l.6-.8h.2l.5.5q1 0 1.7 1.5.1 1.8-1.5 3.1c-1 .6-1.4.9-2.5.5-1.1-.6-1.7-1.7-2-2.1a55 55 0 0 1-12 9.3q-3.4-1-2.4-3.7.5-.8 1.4-.4v-.5c-2.4-3.2-3.2-6.2-.4-11.1 2.8-4 5-4.9 7.6-4.4m-6.6 3.6-1.2 2a7.5 7.5 0 0 0 2 9.1h.1c-.2-.9.9-2 1.6-1.4-.1-1 .7-2 1.6-1.6-.2-1 .6-1.9 1.6-1.3-.4-1 .3-2 1.3-1.6-.1-1 .5-1.8 1.5-1.5q0-1.1.6-1.5l-3.3-3.8c-3-1.7-4.4 0-5.8 1.6"/><path fill="#6c301e" d="M460.7 552.2v-.1h-.3c-3-.5-5.2.7-7.6 4.4-2.5 4.2-2.4 7.5.2 11.2v.3q-.9-.5-1.3.6-.7 1.1 0 2.3.8 1.1 2.5 1.5c5-3 9-6 12-9.2q1 1.5 2 2 1.2.4 2.6-.5 1.9-1.5 1.5-3.2-.5-1.5-1.7-1.6l-.6-.5h-.3l-.3.4-.3.3q-3-1.4-3.3-4.3v-.1a24 24 0 0 0-5.1-3.5m-.3 0q2.9 1.6 5.2 3.6.3 3.1 3.5 4.6h.1l.4-.5.3-.3.6.5q1.2.1 1.6 1.4.4 1.5-1.4 3-1.4.9-2.5.5-1-.4-1.7-1.9l-.1-.2v-.1h-.2a66 66 0 0 1-12 9.4q-1.6-.4-2.3-1.4a2 2 0 0 1 0-2q.4-1 1.2-.5l.2.1v-.7c-2.7-3.7-2.8-6.9-.4-11 2.5-3.7 4.6-4.9 7.5-4.4zm-6.7 3.6-.9 1.4-.3.6a7 7 0 0 0-.6 5 7 7 0 0 0 2.6 4.2h.2l.3.3-.2-.4q-.2-.5.4-1.2t1-.1l.4.3-.2-.4q-.1-.7.4-1.2t1-.3l.4.2-.2-.3q-.2-.5.3-1.1t1.1-.1l.3.2-.1-.4q-.3-.6.1-1.2t1.1-.2h.2v-.1q-.1-.7.2-1.2t1.1-.2h.1q0-1 .6-1.5h.1l-.1-.2-1.2-1.4-2.2-2.4c-2-1.2-3.6-.8-5.8 1.5h-.1zm.1.1c2.2-2.3 3.7-2.7 5.6-1.6l2.1 2.3 1.2 1.4q-.6.5-.6 1.4a1 1 0 0 0-1.1.3q-.6.4-.4 1.1-.7-.2-1.1.4-.4.5-.3 1.1-.7-.1-1.2.3-.4.6-.4 1.1-.5-.2-1 .4t-.5 1.1q-.5-.2-1.1.3-.7.7-.5 1.3-1.8-1.4-2.5-4a7 7 0 0 1 .6-4.9l.3-.6z"/><path fill="#fab81c" d="M452.4 559q.9-.3.7-1t-1.3-.5q-.8.4-.7 1 .3.8 1.3.6"/><path fill="#6c301e" d="M453.1 558q0-.4-.5-.5-.4-.2-.8 0-1 .3-.7 1 .3 1 1.3.6 1-.3.7-1.1m-.8 1q-1 .3-1.1-.4-.3-.7.7-1h.7q.3 0 .4.4.3.7-.6 1z"/><path fill="#fab81c" d="M452.8 558q.8-.4.6-1t-1.2-.6q-.9.4-.7 1.1.3.6 1.3.5"/><path fill="#6c301e" d="M453.5 556.9q-.1-.3-.5-.5h-.8q-1 .3-.8 1.1.4.9 1.4.6t.7-1.2m-.8 1q-1 .3-1.1-.4v-.6l.6-.4h.8l.4.4q.2.7-.6 1z"/><path fill="#fab81c" d="M453.5 556.9q.8-.3.7-1.1-.4-.6-1.3-.5-.8.4-.7 1 .3.8 1.3.6"/><path fill="#6c301e" d="m454.2 555.8-.5-.5q-.4-.1-.8 0-.5 0-.6.4l-.2.7q.4.9 1.4.5 1-.3.7-1.1m-.8 1q-1 .3-1.1-.4v-.6l.6-.4h.8q.3 0 .4.4.2.7-.6 1z"/><path fill="#fab81c" d="M454.3 556q.9-.5.7-1.2t-1.2-.4-.7 1q.3.8 1.2.5"/><path fill="#6c301e" d="M455 554.8q-.2-.8-1.2-.5-1.2.4-.8 1.1.3.9 1.4.6t.7-1.2m-.8 1q-1 .3-1.2-.4t.7-1 1.2.4-.7 1"/><path fill="#fab81c" d="M455.5 555q.7-.4.6-1v-.2q-.6 0-.6-.3v-.1l-.6.1q-.9.4-.7 1 .4.8 1.2.6z"/><path fill="#6c301e" d="M455.5 555.1q1-.3.7-1.2l-.1-.1h-.4l-.2-.1v-.2h.1v-.1q0-.1 0 0h-.7l-.7.5q-.2.3 0 .7.2.9 1.3.5m0-.1q-1 .3-1.3-.5-.2-.7.7-1h.6v.3l.2.1h.4q.3.9-.7 1z"/><path fill="#fab81c" d="M466.3 563a9 9 0 0 0-3.4-5zm-.3.2c-1.4-.2-3-2-3.7-3.7zm-1.3 1.4c-1.8-.2-3.1-2-3.8-3.6zm-1.6 1.4c-2-.5-3-2-3.7-3.5zm-1.6 1.4a6 6 0 0 1-3.6-3.5zm-1.6 1.2q-2.8-.9-3.6-3.1zm-1.8 1.2a5 5 0 0 1-3.4-2.8zm-1.9 1.2a4 4 0 0 1-3-2.8z"/><path fill="#6c301e" d="M466.3 563a10 10 0 0 0-1.2-2.9l-1-1.2q-.5-.6-1.2-1l1.2 1 .9 1.3q.8 1.3 1.3 2.8m-.3.2q-.6 0-1.2-.5l-1-.9-.9-1-.6-1.3q.1.7.6 1.3l.8 1.1 1.1 1zm-1.3 1.4-1.2-.4-1-.9a9 9 0 0 1-1.6-2.3 7 7 0 0 0 1.5 2.4l1 .9zm-1.6 1.4-1.2-.5a6 6 0 0 1-1.8-1.8l-.7-1.2q.5 1.3 1.5 2.3l1 .8zm-1.6 1.4q-1.2-.4-2.1-1.4l-.9-1-.6-1.2q.2.7.6 1.3l.8 1 1 .8q.6.4 1.2.4m-1.6 1.3-1.1-.5-1-.6-.9-1-.6-1a4 4 0 0 0 1.4 2q1 1 2.2 1m-1.8 1.3-1-.4a5 5 0 0 1-1.8-1.4l-.6-1a4 4 0 0 0 1.4 2l1 .5zm-1.9 1.2-1-.3-.8-.7a5 5 0 0 1-1.3-1.8q.3 1.1 1.2 2l1 .5q.4.3 1 .3"/><path fill="#406325" d="M427.5 422c7.6-2 18.8-14.4 20-17.3-16.2 2.7-23.1 12.5-20 17.2"/><path fill="#24420e" d="M427.5 422c-1.9-2.8-1.1-5.5 2.6-9.5 4.3-4.2 9.8-6.7 17.3-7.8h.2q-.9 2.7-7.6 9.1a32 32 0 0 1-12.5 8.2m0-.2q4.9-1.1 12.4-8.2 6.5-6.2 7.4-8.7a30 30 0 0 0-17 7.7c-3.7 4-4.5 6.5-2.8 9.2"/><path fill="#406325" d="M576.9 449.6a72 72 0 0 0-16-24.6c3.1 17.6 11.9 27 16 24.6"/><path fill="#24420e" d="M577 449.6c-2.5 1.4-4.8 0-8.5-4.7a47 47 0 0 1-7.7-19.9v-.2l.1.1q2.3 1.4 8.3 9.8a48 48 0 0 1 7.7 14.9m-.1 0q-1.4-5.4-7.8-14.8a48 48 0 0 0-8-9.6q2 11.9 7.6 19.6c3.6 4.7 5.9 6 8.2 4.7"/><path fill="#67923d" d="M427.5 422c-3.2-4.9 3.7-14.5 19.8-17.2-11.4 8-19.4 15.2-19.8 17.1"/><path fill="#24420e" d="M427.4 422c-1.8-2.8-1-5.5 2.7-9.5q6.1-6 17.2-7.8v.2q-19.3 13.6-19.7 17v.3zm0-.3q.9-3.7 19.5-16.7a30 30 0 0 0-16.7 7.7c-3.6 3.8-4.4 6.3-2.8 9"/><path fill="#67923d" d="M576.9 449.6c-4.1 2.4-12.8-6.8-16-24.4a119 119 0 0 0 16 24.4"/><path fill="#24420e" d="M577 449.7c-2.5 1.3-4.8 0-8.5-4.7a47 47 0 0 1-7.6-19.8h.2c8.5 15.7 13.7 23.4 15.8 24.3h.2zm-.3-.1q-3.2-1.6-15.6-24a46 46 0 0 0 7.5 19.2c3.6 4.6 5.8 6 8 4.8"/><path fill="url(#a)" d="M471.5 515.9c-.3 0-5.9-.3-8-10-1.4-10.5 5-10.4 5.4-10.4 0 0 8.3.4 13.5 1l2.3 20.5z"/><path fill="#999270" d="M468.1 514.6c-2.4-1.9-3.9-4.5-4.7-8.7-.8-4.6-.1-7.2 2-9.2a6 6 0 0 1 3.5-1.3q8.2.4 13.5 1l2.3 20.7-13.2-1.1q-1.5-.1-3.4-1.4m3.5 1.2 13 1-2.3-20.2a191 191 0 0 0-13.4-1q-1.8 0-3.4 1.2c-2 2-2.7 4.5-2 9 .9 4.2 2.3 6.8 4.7 8.7q1.7 1.2 3.3 1.3z"/><path fill="url(#b)" d="M472.4 513c-.4 0-3.7.1-5-7-.3-5.2 2-5.4 2.3-5.4l9.4 3.2v9.2z"/><path fill="#999270" d="M470.2 512.2q-2.3-1.8-2.9-6.2c-.3-3.6.4-5.1 2.3-5.5l9.6 3.2v9.4h-6.8q-1.1 0-2.2-.9m2.2.6 6.7.1v-9l-9.4-3.2c-2 .4-2.5 1.8-2.2 5.3q.6 4.4 2.7 6 1.1.9 2.1.9"/><path fill="url(#c)" d="m469.7 500.6 9.2.5 1.3 6.6-7.3-.6c0-.5-.6-5.4-3.2-6.5"/><path fill="#999270" d="m469.7 500.5 9.2.5 1.4 6.8-7.4-.7c-.5-4-1.4-5.8-3.2-6.4zm.6.2c1.5 1 2.3 2.7 2.7 6.3l7 .6-1.2-6.4q-3 0-8.5-.5"/><path fill="url(#d)" d="M468.4 495.5c.4 0 7.2-.8 8.7 8.6.1 2.9-1 7.5-4.8 8.8l14.3.6-1.3-17-4.8-.3c-.1 0-10-1-12.1-.7"/><path fill="#999270" d="M468.4 495.5q2-.5 12 .6l5 .3 1.3 17.2-14.3-.6v-.1q2.4-.8 3.8-3.8 1-2.6.8-5c-.5-4-1.9-6.2-4.6-7.7a8 8 0 0 0-4-.8h-.1zm1.7 0q1 0 2.3.7c2.9 1.5 4.2 3.8 4.8 8a11 11 0 0 1-.9 5q-1.2 2.8-3.4 3.7l13.6.5-1.3-16.8-4.7-.3q-7.5-.9-10.4-.8"/><path fill="#f9f0aa" d="M471.5 515.9s53.2 4.4 58.6 5.4c16-7.8.1-47.3-13.6-71 .9-4.9-30.1-20-45.2-21.6l-5.2-.4c-8 .2-8 10.4-4.8 18.2 3.4 7.8 30.8 65.7 11.4 69.3z"/><path fill="#999270" d="M471.5 516v-.2h1.2c4.3-1 6.3-3.8 6.8-9.8q.4-7.4-3-20-4.3-14.7-14.3-37.3l-1-2.2a23 23 0 0 1-1.8-12c1-4.5 2.8-6.2 6.6-6.3l5.3.4q10.7 1 28.7 9.5 7.4 3.7 12.2 7 4.8 3.4 4.4 5.1a176 176 0 0 1 18 41.6c4.3 16.6 2.9 26-4.4 29.5q-5-1-58-5.3zm1.3-.1q52.3 4.2 57.3 5.3c7.2-3.6 8.6-12.9 4.3-29.4q-5.4-19.8-18-41.5v-.1q.5-1.6-4.3-5-4.5-3.1-12.2-6.9a91 91 0 0 0-28.6-9.5l-5.2-.4c-3.8 0-5.6 1.8-6.5 6.1q-.9 5.7 1.8 12l1 2.1a293 293 0 0 1 14.2 37.5q3.4 12.5 3.1 20-.6 8.8-7 9.8"/><path fill="url(#e)" d="M528.5 474.5c-3.6-8.7-8-17.2-12-24.3.9-4.8-30.1-20-45.2-21.5l-5.3-.4c-7.9.2-7.9 10.4-4.7 18.2 1 2.3 4.4 9.7 8 18.8z"/><path fill="#999270" d="M528.4 474.6a210 210 0 0 0-12-24.3v-.1q.5-1.6-4.3-5-4.5-3.1-12.2-6.9a91 91 0 0 0-28.6-9.5l-5.2-.4c-3.8 0-5.6 1.8-6.5 6.1q-.9 5.7 1.8 12l1 2.1 7 16.7h-.1l-7.1-16.6-1-2.2a23 23 0 0 1-1.8-12c1-4.5 2.8-6.2 6.6-6.3l5.3.4q10.8 1 28.7 9.5 7.4 3.7 12.2 7 4.8 3.4 4.4 5.1 6.7 11.7 12 24.3z"/><path fill="url(#f)" d="M474.4 479.2c5.8 17.6 8.8 34.6-1.7 36.6h-1.2s53.2 4.5 58.7 5.4c8.7-4.2 8-17.3 3.3-33z"/><path fill="#999270" d="M474.5 479.2a94 94 0 0 1 5.3 24.2c0 7.8-2 11.5-7 12.5q52.3 4.2 57.3 5.3c7.8-3.8 8.8-14.3 3.3-33h.1c5.6 18.8 4.6 29.3-3.3 33.1q-5-1-58-5.3h-.7v-.2l1.2-.1c4.9-1 7-4.6 6.9-12.3q-.3-9-5.3-24.2z"/><path fill="url(#g)" d="M466.6 431.6c-4-.2-4.7 3-4.7 5.8.6 6.7 4.3 7.5 4.7 7.6l6.1.6 3-13.2z"/><path fill="#999270" d="m466.6 431.5 9.1.8-3 13.4-6.1-.6q-1.2-.2-2.4-1.4a9 9 0 0 1-2.4-6.3q0-2.5 1-4.1 1.2-2.2 3.8-1.8m0 .2q-2.4-.3-3.6 1.7a8 8 0 0 0-1 4q.2 4 2.4 6.2 1.1 1 2.3 1.3l6 .6 3-13z"/><path fill="url(#h)" d="m466.6 431.6 9 .8 1 10.4-8-.9c.2-.4 2.3-7.1-2-10.3"/><path fill="#999270" d="m466.6 431.5 9.1.9 1 10.5-8-.9h-.1v-.4a15 15 0 0 0 .7-3.9q0-4.4-2.7-6zm2.2 10.4 7.7.8-1-10.2-8.5-.8c1.7 1.3 2.4 3 2.4 6a18 18 0 0 1-.6 4z"/><path fill="url(#i)" d="M516.5 450.2c7-.7 6.7-9.7 2.1-15-15.9-3-36.8-5.8-51.9-6.9 2 .3 6 1.4 7 8.4q0 5-3.1 7.3c-2 1.3-4 1-4 1a33 33 0 0 0 6.8.6c21.6.3 43 4.6 43 4.6z"/><path fill="#999270" d="M516.4 450.3a232 232 0 0 0-46.1-4.7q-3.4-.3-3.7-.5v-.1q2 .2 4-1c2.3-1.9 3.2-4 3-7.3-.5-5.2-2.5-7.5-6.9-8.3v-.2a442 442 0 0 1 51.9 7c2.5 2.7 3.5 5.5 3.4 9.3-.5 4-2 5.5-5.3 5.8zm0-.2v-.2l.2.2c3.3-.3 4.7-1.8 5.2-5.7.2-3.7-.8-6.4-3.2-9a440 440 0 0 0-50.4-6.9c3.5 1.2 5 3.5 5.6 8.2.1 3.4-.8 5.5-3.1 7.4q-1.4 1-2.9 1.1l2.5.2 3.1.1q21.6.3 43 4.6"/><path fill="#b07e09" d="M478 460.1q-.2-.6-.8-1-.5 0-.6-.5h.8l1.7.1q.5.5 0 .5-.6.3-.2 1l1.4 3.6q.3.6.7.8h1.2q.3-.3.2-1c0-.4.5-.2.5.1l.4 1.5q0 .3-.4.2l-3-.3q-.6.2-1-.2c-.1-.5.4-.2.5-.5q0-.5-.3-1zm4.9.4q-.2-.6-.7-1-.5 0-.6-.5h2.4c.3.2.5.7 0 .6q-.4.1-.2.7l1.5 4q0 .5.6.8.4-.1.7.4-.2.3-.7.1h-1.6q-.4 0-.5-.5c0-.3.5 0 .6-.3q0-.6-.3-1.1zm4.6 1.5q.1.2.5.2.6 0 .6-.5 0-.9-.7-1.4-.4-.5-1.2-.4l.2.5zm.6 1.9.6 1.2q.5.3.9.2t.4-.6q-.3-1.3-1.3-1.8l-1-.2.2.5zm-2-3q-.2-.7-.8-1.1-.4-.1-.7-.5c.2-.3.6 0 .9 0q1.3 0 2.6.3 1.3.6 1.5 2 0 .7-.6.9.2-.1.5.2 1 .4 1.4 1.5.5.8 0 1.4t-1.4.3l-2.3-.2c-.3 0-.5-.5 0-.5q.4 0 .2-.7zm7.6-1q.4.1.4.7l.4 1q-.4.1-.7-.5-.1-.5-.7-.6l-1.2-.1q-.1.2.1.6l.6 1.6h.8q-.2-.8.2-.8.4.5.4 1l.6 1.4q-.6.1-.7-.5-.4-.5-1-.5-.2 0 0 .3l.7 1.8q.4.5 1 .5t1-.3c.1-.3-.3-.8 0-.9q.5.2.5.8l.3 1h-.4l-3.2-.2q-.5.2-.9-.4c.1-.3.6 0 .6-.5l-.4-1.2-1.2-3.2q-.1-.6-.7-.8-.6 0-.5-.5h1.1zm2.3 1.9q-.1-.7-.7-1.2-.6.1-.7-.5h1q1.2 0 2.5.4a3 3 0 0 1 1.6 2.3q0 .8-.7.9c-.3 0 .2.1.3.3q.9.6 1.4 1.8c.1.3.5.9.6.4s.6 0 .5.4q0 .6-.7.5-.8 0-1.1-.9l-1.3-2q-.5-.4-.9-.3l.1.5.6 1.4q.4.5 1 .6.4.5-.2.4l-1.8-.2c-.3.1-.8 0-.6-.5q.6.1.5-.5l-1.1-3zm1.5 1.2q.3.4.8.3t.3-.9-1-1.4c-.2-.1-.7-.4-.8 0l.6 1.9zm7.4 3q0 .7.5.9.6 0 .7.5c0 .3-.4 0-.6 0l-1.7-.1q-.4 0-.5-.5c.2-.2.6 0 .7-.3l-.5-1.4-1.1-3.4q-.3-.4-.8-.4t-.7.3v.9q-.4-.1-.5-.7l-.3-1q.1-.3.5-.2l4.2.5q.5 0 .5.6l.4 1.1c-.1.4-.4 0-.5-.3q-.3-.7-1-.9-.5-.1-.8 0l.2.8zm3.8-.4q-.2.1-.1.4v1l.8.5q.3.4-.1.4l-1.3-.2q-.6 0-.6-.5.4 0 .6-.3v-5.5q.4-.3.6.2l3.7 5.7q.3.5.8.6c.3 0 .4.6 0 .5l-1.5-.3h-.7q-.4-.6.2-.5.3-.2-.2-.8l-.6-.9-.5-.1zm1.2-.3q.2 0-.1-.3l-1.3-2v2.1zm3.1-1.6q-.2-.8-.8-1.2-.6 0-.5-.6l1.7.2q1 0 2.1.6a6 6 0 0 1 3 4.2q.2 1-.6 1.7-1.2.4-2.5 0l-1.5-.1q-.4-.5 0-.5.5-.1.3-.8zm2 3q.2.8.6 1.3l1 .2q.7 0 .7-.9 0-1.3-.6-2.5-.6-1.3-1.9-1.8l-1-.2v.4zm-21.6 10.6q.3.7.8.9.6-.1.7.5h-.7l-1.6-.1-.9-.1q-.3-.4.1-.5.5.1.7-.4l-.3-1-1.2-3.2q-.2-.5-.7-.4t-.7-.4q.1-.3.7-.3l1-.2q.3 0 .4.4zm.8-4.9 2 .3c.4 0 .2-.4.5-.4q.4.2.3.9 0 .6-.6.5l-1.6-.3.4 1.5q.3-.2.7-.1 1.7.3 2.7 2.1.4 1 0 1.7-.7.6-1.7.4-.8-.1-1.4-.8-.2-.7.2-.7.6.1.7.7.3.4.8.3.4 0 .6-.5 0-.9-.5-1.6a2 2 0 0 0-1.4-1h-.8q-.3-.1-.5-.7l-.6-2.1q0-.3.2-.2m7 2.2q-.2-.8-.9-1.2-.6 0-.5-.5l1.8.1a5 5 0 0 1 2.1.6q2.5 1.5 3 4.2.2 1.2-.6 1.7-1.2.4-2.5 0h-1.4q-.5-.4 0-.6.5 0 .2-.7zm2 3.1q.2.7.7 1.2.4.3 1 .2t.7-1q-.1-1.2-.7-2.4-.7-1.3-2-1.8l-1-.2.1.5zm6.7-3.7q.4 0 .4.6l.4 1c-.3.3-.5-.1-.6-.4q-.3-.5-.7-.7l-1.3-.2q-.2.2 0 .7.4.7.6 1.6h.8c.2-.3-.2-.9.3-.8q.4.4.4 1l.5 1.4q-.4.3-.6-.5-.3-.4-.9-.5-.3 0-.2.2l.7 1.8q.4.6 1 .5.6.1 1-.2c.1-.2-.2-.7 0-.9q.5.1.5.7l.3 1q-.1.3-.4.2l-3.2-.4q-.5.1-.9-.2c-.1-.5.5-.2.6-.5q0-.6-.3-1l-1.2-3.5q-.1-.6-.7-.9-.6 0-.5-.5l1.1.1zm-28 11.6q.4.9 1.2 1.1a6 6 0 0 1 2.1 1.7q.6.7.6 1.5-.2 1-1 1-.9.2-1.8-.4c-.3 0-.1.5-.5.3l-.3-1-.4-1.1c0-.4.5-.1.5.1q.6 1.3 1.7 1.6.7 0 .9-.6 0-.9-1-1.4l-2-1.2q-.8-.9-1-2 .1-.7.9-.9l1.6.2c.2.1.3-.2.6 0l.2.8.3 1q-.3.2-.5-.3-.3-.8-1-1.1-.6-.1-1 .2zm6.8-.8q.4.1.4.7l.3 1q-.4.3-.6-.4-.1-.5-.6-.7l-1.3-.1v.6l.5 1.6h.8c.2-.3-.1-.7.2-.8q.4.2.4.8l.5 1.5q-.4.3-.6-.3t-.8-.6q-.4 0-.3.2l.6 1.8q.3.5.7.5.8.1 1.2-.2l.1-.9q.5-.1.5.5l.3 1.2q-.1.2-.4 0l-3.2-.2q-.5.2-.9-.2c0-.4.4-.2.6-.5l-.2-1-1-3.4q-.1-.6-.7-.8-.6 0-.5-.6l1.1.1zm4.3 5.3q0 .6.6 1 .5-.1.7.4c0 .3-.4 0-.7 0H492q-.4.1-.6-.4c0-.3.4 0 .6-.3l-.1-.9-1-3.5q-.2-.6-.7-1-.5.1-.6-.4.3-.2.7 0 1.2 0 2.3.2 1.2.4 1.8 1.6.3.8-.1 1.4-.7.6-1.6.5-.2 0 0 .3zm-.6-2h.7q.4 0 .4-.7-.2-.8-.6-1.4-.5-.4-1.1-.3v.5zm6.3 2.6q0 .5.5.8.5 0 .7.5h-2.3q-.6 0-.5-.5c.2-.2.6 0 .6-.4l-.3-1.3-1-3.4q-.2-.4-.7-.4-.7 0-.7.3v.8q-.5.3-.5-.4l-.3-1.2q.1-.2.5-.2l4.2.4q.5 0 .5.6l.4 1.2q-.4.3-.5-.2-.3-.8-1-1-.4-.2-.8 0l.1.7zm2.1-3.3q0-.6-.6-1-.5 0-.6-.5.2-.2.6 0h1.9c.2 0 .4.6.1.6q-.5 0-.4.4.1 1 .5 1.9l.7 2.6q0 .4.5.5t.6.5q-.3.2-.7 0l-1.7-.1q-.4 0-.4-.5.5 0 .7-.3l-.4-1.4zm6-1q.4.2.3.7l.3 1q-.3.3-.5-.4-.2-.5-.7-.7l-1.3-.1v.6l.5 1.6h.8c.2-.3-.1-.7.2-.8q.4.2.4.8l.5 1.5q-.4.3-.6-.3a1 1 0 0 0-.7-.6q-.4-.1-.4.2l.5 1.8q.3.4.8.5t1.2-.1l.1-1q.5 0 .5.5l.3 1.2q-.2.2-.5.1l-3.1-.3q-.6.1-.9-.2c-.2-.4.3-.2.5-.5v-.9l-1-3.5q-.2-.7-.8-.9-.6 0-.4-.5h1zm2 1.5q-.1-.8-.8-.8c-.4 0-.5-.7 0-.5l1.6.2.6 1.1 2.3 3.6v-.3l.3-4h1c.4 0 1 0 .8.5q-.6 0-.5.6l1.1 4.2q.3.7 1 .8c.2 0 .3.6-.1.4l-1.9-.2q-.6.1-.6-.5.6.1.6-.5l-1-3.7v.4l-.3 3.3-.1.8q-.4 0-.5-.3l-3-4.6q.2 0 .2.3l1 3.4q.1.6.8.7.4.6-.2.4l-1.6-.1c-.3-.1-.3-.6 0-.5q.6-.1.3-.9zm9 2.3q.1.3.5.2t.6-.5q0-.8-.5-1.4-.6-.4-1.2-.4l.1.5zm.4 1.9.5 1.2q.4.2.9.2t.4-.5q0-1.1-.9-1.8l-1-.3q-.2.3 0 .5zm-1.8-3q0-.7-.6-1.1-.5-.1-.7-.5c.2-.3.6 0 .8 0q1.4-.1 2.8.4 1.1.6 1.3 2 0 .7-.7.8l.5.2q.8.5 1.2 1.4t0 1.5q-.7.5-1.5.3l-2.4-.3c-.3 0-.4-.5 0-.5q.5 0 .3-.6zm5.1.6q0-.7-.5-1.1-.6-.1-.7-.6h1l2 .3q1.4.5 1.8 2 .2.8-.4 1.2l-.4.1q1 .6 1.4 1.7l.5 1q.3.1.4-.4.6.1.4.7-.4.7-1.1.3-.6-.2-.8-.8l-1-2q-.4-.4-1-.3l.1.5.4 1.3q.4.6 1 .6c.2.1.3.7-.1.5l-1.9-.2q-.4 0-.7-.3c-.1-.4.4-.2.6-.4l-.1-1zm1.4 1.2q.3.4.8.3.5 0 .4-.6t-.5-1.5q-.5-.4-1.1-.3v.5zm7-1.7q.5 0 .4.6l.3 1q-.4.2-.5-.3-.2-.6-.7-.8l-1.3-.2v.6l.4 1.6h.8c.3-.2 0-.6.2-.7q.5.1.4.7l.5 1.6q-.4.3-.6-.3a1 1 0 0 0-.7-.6q-.4-.2-.4 0l.5 1.9q.3.4.7.5h1.2q.3-.5.2-1 .5 0 .5.5l.2 1.2q-.1.1-.4 0l-3.2-.4q-.4.1-.9-.1c-.2-.5.3-.4.5-.5q.2-.3 0-.8l-1-3.6q0-.6-.6-1-.5 0-.5-.5l1 .2zm-33.6 9.5q0-.8-.6-1.2-.6 0-.6-.5h1q1.4 0 2.6.4 2 1 2.6 3.1.5 1.5-.2 2.5-1 .8-2.3.6l-1.9-.2c-.2.1-.6-.1-.4-.4q.6 0 .6-.5 0-.9-.4-1.8zm1.7 3q0 .6.4 1.1.4.3 1 .2.8 0 .9-.9 0-1.3-.4-2.5t-1.5-1.6q-.6-.3-1.2-.2v.4zm7.2-3.9q.3.1.4.7l.2 1q-.2.3-.5-.4-.2-.5-.6-.7l-1.3-.2v.7l.3 1.6.8-.1.2-.8q.5.2.4.9l.4 1.5q-.4.2-.5-.4-.2-.5-.8-.5-.3-.2-.4.1l.5 1.8q.2.4.7.5.7.1 1.2-.2c.3-.2 0-.6.2-.9q.5 0 .5.6l.1 1q-.1.3-.4.2l-3.2-.3h-.8q-.2-.5.3-.5.4-.2.2-.8l-.8-3.7q0-.7-.6-.9-.6 0-.5-.5h1zm6.7 5.7q0 .5.6.7t.7.4q0 .4-.6.2l-1.7-.2h-.9q-.4-.6.2-.5.4.1.7-.4l-.1-.9-.7-3.2q-.1-.5-.7-.4-.4 0-.6-.3.1-.4.7-.4l1-.2q.4 0 .4.4zm3.8-3.2q-.1-.7-.7-1-.6-.2-.8.2-.1.8.3 1.2l1 .7.2-.6zm.8 3.4q-.2-.9-1-1.2-.3-.3-.6-.3-.5.5-.3 1.2.2.9 1 1.3.6.1 1-.4zm.8-.1q.2.9-.5 1.4-1 .4-2 0a2 2 0 0 1-1.2-1.7q-.2-1 .5-1.4c.1 0 .5 0 .2-.2q-1-.6-1.1-1.5t.5-1.4q1.6-.4 2.7 1.2.3.8 0 1.4l-.6.4q.8.3 1.2 1 .3.4.3.8m3.4 1.1q.5 0 .5-.3 0-.6.3-.6.4.1.3.7 0 .8-.3 1.2h-.9l-1.7-.4q-.4.2-.8 0v-.8q.4-1 1.2-1.6.5-.4.7-1.1 0-.8-.3-1.4-.5-.9-1.4-.6-.4.3-.2.8l.7.5q.1.6-.3.6-.7 0-1-.9t.5-1.5q.9-.2 1.7.1.9.4 1.3 1.5v1.5q-.8.9-1.8 1.6l-.2.6q.2-.2.6-.1zm4.1.2q0 .5.6.8.5 0 .7.4 0 .4-.5.2l-1.8-.3h-.9q-.4-.6.2-.5.5.1.7-.4l-.1-.9-.6-3.2q0-.4-.6-.4-.4 0-.7-.2 0-.5.6-.4l1.2-.3q.3 0 .3.4z"/><path fill="url(#j)" d="m495.7 409-3.9 4.5c-1 5.9 1.8 10.4 7.9 15.3 5.2 4.1 13.4 6.1 16.7 4l-14-16.7z"/><path fill="#4c0505" d="m495.6 409 6.7 7 14.2 17h-.1q-2.2 1.6-7.7.3t-9.2-4.4c-6.5-5.3-8.8-10-7.9-15.4zm.1.3-3.8 4.3c-.9 5.3 1.5 10 7.8 15.1a24 24 0 0 0 9.1 4.4c3.7.8 5.9.7 7.4-.2l-14-16.7z"/><path fill="#448127" d="m524.2 564.5-2.1-3a86 86 0 0 1-33.5 26.8c15.6-2.6 25.5-13 35.6-23.8"/><path fill="#34541f" d="M524.4 564.7h-.2q-9.9 10.5-15.7 15-9.5 7-19.8 8.7l-.1-.2a86 86 0 0 0 33.4-26.8v-.1l2.3 3.2zm-.4-.2-2-2.8a87 87 0 0 1-32.4 26.3q9.8-1.8 18.8-8.6 5.7-4.4 15.6-15"/><path fill="#448127" d="M508.3 602q8.4-16.7 18.7-33.2l-2.2-3.3c-7.6 12.6-16.2 27.2-16.5 36.6"/><path fill="#34541f" d="M508.3 602.5v-.4q.1-9.6 16.4-36.7v-.2l2.4 3.6a477 477 0 0 0-18.7 33.3zm.2-1q5.8-11.7 18.4-32.8l-2-3q-15.9 26.2-16.4 35.8"/><path fill="#448127" d="M551.1 480.3a90 90 0 0 0-4.4-15.3q-4.2-9.4-12.1-20.6a172 172 0 0 0-32.7-35.5v-.2h.1l.2.1-.2-.2h.5l-.3-.3h.5l-.4-.4h.5l-.4-.4.6.1-.3-.5.4.1-.4-.4h.6l-.5-.5h.5l-.4-.4h.6l-.5-.5.6-.2-.6-.6.7-.2-.8-.4.6-.3-.7-.3.5-.5h-.7l.3-.7h-.7v-.1l.4-.5h-.7l.3-.6-.7.3.2-.8-.6.4v-.8l-.5.5v-.8l-.5.5v-.8l-.5.6v-.8l-.4.6-.2-.8-.4.7-.2-.8-.3.7-.1-.8-.3.8-.2-.8-.3.7-.1-.7-.3.8-.2-.8-.2.8-.3-.8-.2.9-.3-.8v.9l-.5-.8v1l-.4-.8v.8l-.4-.5.2.9-.5-.5.2.8-.5-.3.2.7-.4-.2.2.6h-.4l.2.3q-.4 1.8-.3 4c0 .2.5.5.7.7l.2.8c-1.7 2.7-3 4.6-3.3 8 1.4-1.8 2.6-3.5 4.6-3.4-.9 2-1.2 6.3-.3 7.7l.8-1.4q0 1.8.4 2.6.4-1 1-1.8 0 2.6.7 3.8a4 4 0 0 1 1.6-1.5q-.4 1.3-.4 3 1-1.5 2-2.5c-.3 1.8 0 3 .4 5.1.5-2.2.6-2.4 1.6-3.3q-.2 3.3.1 5.3c1-1.7 1.5-1.4 2-2.5 0 1.8-.3 3.6 0 5.3a4 4 0 0 1 2-2.7c.2 2.4.6 2.1-.8 4 .7.3 2.5 0 3.7-.4-.4 1.3-.4 2.3-.9 3.2q1.6-.8 3-2.2c-.5 1.5-1.4 2.8-1 4.4q.6-2.1 2.3-2.4c-.1.9-.3 2.3-1.3 3 2.6.5 3.4-.9 4.8-2.3-.2 1.6-.1 2.7 1.5 5.1-.2-2.7.2-2.1 1.4-3.5.6 2.6 1.3 5 3.5 7.2-1-2.7-1-4-.6-5.5.4 1.7 1.7 4 2 5.5q.4-2.6 1-4.4 1 3.1 1.4 6.5.8-1.5 1.2-3.3c20.2 26.5 24.7 56 2.6 84 7.9-5 10-13.6 14.5-21-4.3 9.8-6.4 21-13.9 28.6 7.3-6 9-11.9 13.4-18a167 167 0 0 1-20.3 40.3l4.8 6.5 4.2-7c9.7-16 25-38 17.3-77"/><path fill="#34541f" d="M551.2 480.3q5 24.2-1.4 45-3.6 12-14.2 29.4l-1.7 2.8-4.3 7.2-5-6.8q11.7-16.5 20-39.5l-3.2 5.2a44 44 0 0 1-9.6 12l-.2-.1q5.3-5.3 10.4-19.6l2.7-7.1-2.5 4.7a34 34 0 0 1-11 14.5l-.2-.2a61 61 0 0 0 14.6-42.4 76 76 0 0 0-17-41.1l-1.2 3-.1.5v-.5a30 30 0 0 0-1.4-6.2q-.5 1.3-.8 4.1h-.2l-1-2.5-1-2.6q-.3 1.9.7 5.1l.1.4-.3-.3a15 15 0 0 1-3.4-7l-.7.6q-.8.7-.5 2.6v.5l-.2-.4a8 8 0 0 1-1.7-4.8l-.3.3q-2.1 2.3-4.3 1.7h-.3l.2-.2q.9-.5 1.2-2.6v-.2q-1.5.2-2 2.4v.4l-.2-.4q-.3-1.2.5-3.3l.3-.7q-1.5 1.4-2.6 1.8l-.4.1.2-.3q.3-.4.5-1.5 0-.8.3-1.4-2.6.8-3.5.3h-.1v-.2q1-1.4 1-2.5l-.1-1.2q-1.4 1-1.8 2.5l-.1.4-.1-.4q-.4-1.3-.1-4.1v-.7l-.5.6q-.8.6-1.3 1.5v.2l-.2-.3-.1-2.9V424q-.9 1-1.3 3h-.3v-.2a15 15 0 0 1-.5-4.5v.1l-1.7 2-.1.4v-.4q-.1-1 .2-2.5v-.2q-.9.6-1.3 1.3l-.1.2-.1-.2q-.6-1-.7-3.5l-.8 1.5-.1.2-.1-.2q-.3-1-.4-2.3l-.7 1.1q-.9-.8-.7-3.8.2-2.6.8-3.9-1.6 0-3.9 2.8l-.4.5-.2.3v-.4q.2-3 2.8-7.2l.5-.8-.2-.6-.3-.3q-.4-.3-.5-.6 0-2.5.4-3.9l-.3-.6.4.2-.2-.7.4.2-.2-.8.5.3-.2-.7.5.4-.2-1 .5.6v-1l.4.8v-.9l.4.8v-1l.5.9.1-1 .3 1 .3-1 .2.9.3-.8.1.7.3-.7.2.8.3-.8.1.8.4-.7.1.9.4-.7.2.8.5-.6v.8l.6-.6v.8l.5-.5-.1.8.6-.5-.1.9.7-.4-.2.8.7-.3-.3.7h.7l-.4.5h.7l-.3.7h.8l-.6.7.9.3-.7.3.8.5-.8.1.6.6-.6.2.5.5-.6.1.5.4h-.5l.5.4h-.7l.5.6h-.5l.3.4-.5-.1.3.4h-.4l.3.4h-.4l.2.3h-.5l.2.2h-.3q14 10.7 32.5 35.3 8.5 12 12.2 20.7 2.5 6.2 4.4 15.3M502 408.5l-.1-.1h.4l-.3-.3.5.1-.3-.5h.4l-.3-.3h.5l-.3-.4h.4l-.3-.4h.5l-.5-.4h.5l-.4-.3.6-.2-.5-.4.7-.2-.7-.6.6-.1-.7-.5.6-.2-.6-.2.4-.5h-.6l.3-.7h-.5v-.1h-.1v-.1l.2-.3h-.6l.2-.5-.6.2.2-.7-.6.3.1-.7-.6.5v-.8l-.4.5v-.7l-.5.5v-.7l-.4.5-.2-.8-.3.8-.2-.8-.3.7-.2-.8-.2.7-.2-.7-.3.7-.1-.7-.3.8-.2-.8-.2.8-.3-.8-.1.9-.4-.8v.9l-.4-.8v.9l-.4-.7v.7l-.3-.4.2.8-.6-.5.2.8-.4-.4.1.7-.3-.2.1.4v.2h-.3.1v.2q-.4 1.4-.3 3.8l.3.5.3.3q.4.6.3.8l-.5.8a18 18 0 0 0-2.7 6.8l.1-.3q2.5-3 4.3-2.8h.2v.2a10 10 0 0 0-1 4q-.1 2.6.4 3.4l1-1.7v.5q0 1.4.3 2.3l.9-1.6.1-.2v.3q.3 2.7.7 3.6.6-.8 1.6-1.4h.2v.2l-.2.5-.3 2 1.4-1.8.4-.4.2.1q-.2 1.6.3 4.6.5-2 1.5-2.9l.2-.1v5.2l1.2-1.4q.6-.4.8-.9l.2.1-.1 1.2v3.6q.5-1.5 1.9-2.3l.2-.1v1.6a4 4 0 0 1-.8 2.6q.9.3 3.5-.5h.2v.2l-.5 1.6q0 .8-.3 1.2 1-.5 2.6-2l.2.2-.5 1.3q-.7 1.5-.6 2.5.5-1.9 2.3-2h.1v.5q-.4 1.8-1.1 2.6 1.8.2 3.8-1.8l.6-.6.2-.2v.4q-.2 2.2 1.3 4.6 0-1.7.6-2.4l.8-.8.2-.2v.2q1.2 4.7 3.1 7-1-3.5-.4-5.3l.1-.4.1.5q.2.9 1 2.9l1 2q.3-2.8.9-3.9v-.2l.2.3q1 3.5 1.3 6l1-2.8v-.2l.2.2a77 77 0 0 1 17.2 41.4 61 61 0 0 1-14.1 42q5.2-3.6 10.3-14l3.5-6.5.2.1q-1.3 3-3.5 9-4.5 12.5-9 18.1 4-3.8 8-10.6 2.3-4 3.8-6l.2.1a166 166 0 0 1-20.3 40.3l4.7 6.3 4-6.9 1.8-2.8q10.5-17.2 14.2-29.2a92 92 0 0 0 1.4-45 92 92 0 0 0-4.4-15.2q-3.7-8.8-12.1-20.6a187 187 0 0 0-32.7-35.5l-.1-.1v-.1l.1-.2z"/><path fill="#eac102" d="M493 404c-1 .2-1.4.5-2.2 1.3q1.4.6 2.6.7.4 0 .3-.6l-.1-1q-.3-.4-1-.3z"/><path fill="#a08307" d="M493 404h.2q.4 0 .5.3l.1 1.1v.5q-.1.3-.4.2-1.5-.3-2.6-.7h-.2l.1-.2q1-1 2-1.2zm0 .2h-.2q-.8.2-1.8 1l2.4.7.2-.1v-.4l-.1-1q0-.2-.3-.2z"/><path fill="#a08307" d="m490.8 405.3 2.2-.2-1 .2z"/><path d="M498.4 405q0 .8-.8.8-.6-.2-.8-1 0-.9.8-.8.8.2.8 1"/><path d="M498.5 405q0 .4-.3.7l-.6.2q-.9-.2-.8-1.1t.8-.9q.8.2.9 1.1m-.1 0q0-.8-.8-1-.7 0-.7.8t.7 1q.3 0 .5-.2t.3-.6"/><path fill="url(#k)" d="M498.2 404.8q0 .4-.4.3-.3 0-.3-.4t.3-.3.3.4"/><path fill="#34541f" d="m508.4 601.8 1.6-4.8 1.8-4.6a127 127 0 0 1 9-17.1l2.5-4.1 2.6-4.1-2.5 4.1-2.5 4.2a247 247 0 0 0-9 17.1 114 114 0 0 0-3.5 9.2M489 588.2a74 74 0 0 0 9.8-4.2 65 65 0 0 0 9-5.8 80 80 0 0 0 8-7.1 63 63 0 0 1-17 13q-2.3 1.3-4.8 2.3zm38.2-27 2.2-3.3 2.2-3.5 4-7 3.9-7.3 3.8-7.3-1.8 3.7-1.9 3.7-3.8 7.3a169 169 0 0 1-8.6 13.7m6-27.2a65 65 0 0 0 13.8-29.8l.5-2.1.3-2.2a70 70 0 0 0-1-22.2 82 82 0 0 1 1.4 9 74 74 0 0 1-.2 13.3l-.3 2.2-.4 2q-2 8.5-5.2 16.2a57 57 0 0 1-8.9 13.6"/><path fill="#34541f" d="M531.6 527.4q3-2.7 5-5.8a55 55 0 0 0 7-14.3l1.4-3.8.4-1 .3-.9.6-2a54 54 0 0 0-1.5-25.8l1.9 8.7q.6 4.4.6 8.7 0 4.5-.8 8.6l-.6 2-.3.9-.4 1-1.4 3.7-3.1 7.4a34 34 0 0 1-9 12.5"/><path fill="#34541f" d="m525.7 559.1 3.6-5 1.9-2.6 1.7-2.5q1.6-2.7 3-5.6l2.8-5.8q2.8-5.8 5-11.8t3.6-12.7q1.3-6.5 2-13.3.6-6.7 0-13.7t-2.8-13.7a74 74 0 0 1 1 40.8 87 87 0 0 1-8.7 24.5l-2.8 5.7-3 5.6q-.8 1.4-1.8 2.6l-1.8 2.5z"/><path fill="#34541f" d="m528.5 563 7.1-12q3.5-6 6.7-12.3 3-6.3 5-13.2l1.8-7 .6-3.7.5-3.7q.9-7.4 1-15-.1-7.5-1.3-15.1-1.3-7.7-4-15-3-7.4-7.2-14a80 80 0 0 1 7.2 14 83 83 0 0 1 5.4 30.2q0 7.5-1 15l-.4 3.6-.6 3.7a91 91 0 0 1-7 20.3q-3 6.3-6.6 12.3zM500 411.2l1.5.3a19 19 0 0 1 4.1 2 35 35 0 0 1 9.4 9l2 2.7-2.1-2.6-4.4-4.8a38 38 0 0 0-7.7-5.6z"/><path fill="#448127" d="M516.8 426s3 2.5 4.8 5.7c-.1-.1-4.5-1.8-8.2-6.5z"/><path fill="#34541f" d="M516.8 426q.8.4 1.4 1.2l1.3 1.3 2.2 3.1.2.3-.3-.1q-1.2-.4-2.3-1.2-1.1-.6-2.2-1.5a20 20 0 0 1-3.7-4 22 22 0 0 0 3.8 3.9 24 24 0 0 0 4.4 2.6v.1a16 16 0 0 0-2.2-3l-1.3-1.5z"/><path fill="#448127" d="m509.8 423.9 8.5 6.9c0-.2-1.7-4-5.2-6.4z"/><path fill="#34541f" d="m509.8 423.9 4.3 3.4 2 1.7 1.1.9 1.1.8-.1.1a17 17 0 0 0-3.5-5.1q-.7-.8-1.6-1.3a11 11 0 0 1 3 2.7 16 16 0 0 1 2.3 3.6l.1.3-.2-.1q-1.2-.7-2.2-1.7l-2.1-1.7z"/><path fill="#448127" d="M512.8 421.7c.1.2 3.5 2.4 4.7 5.7-.1 0-6.7-4.4-8.2-6.2z"/><path fill="#34541f" d="M512.8 421.7a14 14 0 0 1 2.9 2.4l1.1 1.5.8 1.7v.3l-.2-.1-2-1.4-5.2-3.9-.9-1 1 1 1 .8 2 1.5 4.2 2.8h-.1l-.8-1.6a12 12 0 0 0-2.4-2.8z"/><path fill="#448127" d="M507 424c0 .2 6.7 6 8.8 6.8-.1-.2-2-3.8-5.6-6.2z"/><path fill="#34541f" d="m507 424 2 2 2.2 1.7 3.4 2.4q.6.5 1.2.5l-.1.2a22 22 0 0 0-3.9-5l-1.6-1.2a15 15 0 0 1 4.5 4.3l1.2 1.8v.2h-.1q-.7-.2-1.3-.6l-1.2-.7-2.2-1.7-2.1-1.9z"/><path fill="#448127" d="M507 425.7c0 .2 3.4 3.6 5.5 4.2 0-.1-2-3.8-5.5-6.2z"/><path fill="#34541f" d="m507 425.7 1.2 1.3 1.4 1.1 2.1 1.4.8.3-.1.1a18 18 0 0 0-5.4-6.2 15 15 0 0 1 4.5 4.3l1 1.8.2.2h-.2q-.8-.2-1.6-.7a16 16 0 0 1-4-3.6"/><path fill="#448127" d="M505.2 418.1c.1.2 7 6.9 8.2 10.1 0 0-6.4-4.4-8-6.2z"/><path fill="#34541f" d="M505.2 418.1a83 83 0 0 1 6.7 7.2l1 1.4.6 1.5.1.3-.2-.2-2.1-1.4-2-1.5-2-1.6a49 49 0 0 0 6.2 4.3l-.2.2q-.2-.8-.7-1.5c-.5-.7-.5-1-.9-1.4a42 42 0 0 0-4.2-5z"/><path fill="#406325" d="M464.2 573.3a40 40 0 0 1-21 2.2c10.5-7.7 19.8-6.5 21-2.2"/><path fill="#24420e" d="M464.2 573.3c-2.4 1.5-6 2.4-11.7 2.8q-7.4.3-9.3-.5h-.2l.1-.2c5-3.6 9.4-5.4 14.1-5.6 4.4 0 6.4 1 7 3.5m-.1 0c-.7-2.4-2.6-3.3-6.9-3.3q-6.7.3-13.8 5.5 2 .8 9.1.4 8.1-.6 11.6-2.7"/><path fill="#406325" d="M535.7 589.2c5.8 6.2 21.2 12 24 12-11.2-13.7-22.2-16.6-24-12"/><path fill="#24420e" d="M535.6 589.3v-.1c1-2.7 3.4-3 8.6-1a42 42 0 0 1 15.6 12.9v.1q-2.4.2-11-3.5-9.5-4.4-13.2-8.4m.2 0q3.7 3.9 13 8.2 8.3 3.7 10.8 3.6a42 42 0 0 0-15.5-12.7c-5-2-7.3-1.7-8.3.8"/><path fill="#67923d" d="M464.1 573.2c-1.1-4.2-10.4-5.4-20.9 2.3 11-2.3 19.5-3 20.9-2.3"/><path fill="#24420e" d="M464.2 573.2v.2l-.1-.1c-1.7-1-8.3-.4-20.9 2.3v-.2q7-5.4 14-5.6c4.4 0 6.3 1 7 3.4m-.2-.2c-.7-2.2-2.6-3-6.8-3a25 25 0 0 0-13.6 5.3c12-2.5 18.4-3.1 20.4-2.3"/><path fill="#67923d" d="M535.8 589.2c1.8-4.7 12.7-1.8 24 11.9a98 98 0 0 0-24-12"/><path fill="#24420e" d="M535.7 589.1c1-2.7 3.4-3 8.5-1a42 42 0 0 1 15.6 13h-.1c-14.3-8.5-21.9-12.3-23.9-11.8h-.2zm.2 0c2.3-.3 9.8 3.4 23.5 11.7q-7.4-9.2-15.2-12.5c-5-1.9-7.2-1.7-8.3.7"/><path fill="#1a1a1a" d="M8 195.3c170.8-85.3 341-54.5 513.3-28C676.5 191 833.4 211.8 992 132.7v672c-170.8 85.3-341 54.5-513.3 28C323.5 809 166.6 788.1 8 867.2zm31.3 19.3v604.5c306.5-128.2 611.1 96 921.5-33.7V180.9C654.2 309 349.5 84.9 39.3 214.6" opacity=".2"/></svg>