<svg xmlns="http://www.w3.org/2000/svg" viewBox="0 0 1000 1000"><defs><radialGradient id="a" cx="447" cy="308" r="17" gradientTransform="matrix(1.025 .1556 0 1.12 8 89.246)" gradientUnits="userSpaceOnUse"><stop offset="0" stop-color="#f9f0aa"/><stop offset="1" stop-color="#b07e09"/></radialGradient><radialGradient id="b" cx="452" cy="313" r="11" gradientTransform="matrix(1.025 .15633 0 1.12 8 88.915)" gradientUnits="userSpaceOnUse"><stop offset="0" stop-color="#f9f0aa"/><stop offset="1" stop-color="#b07e09"/></radialGradient><radialGradient id="c" cx="454" cy="309" r="10" gradientTransform="matrix(1.025 .15674 0 1.12 8 88.732)" gradientUnits="userSpaceOnUse"><stop offset="0" stop-color="#f9f0aa"/><stop offset="1" stop-color="#b07e09"/></radialGradient><radialGradient id="d" cx="458" cy="307" r="17" gradientTransform="matrix(1.025 .15733 0 1.12 8 88.462)" gradientUnits="userSpaceOnUse"><stop offset="0" stop-color="#f9f0aa"/><stop offset="1" stop-color="#b07e09"/></radialGradient><radialGradient id="g" cx="446" cy="252" r="13" gradientTransform="matrix(1.025 .15532 0 1.12 8 89.37)" gradientUnits="userSpaceOnUse"><stop offset="0" stop-color="#f9f0aa"/><stop offset="1" stop-color="#b07e09"/></radialGradient><radialGradient id="j" cx="478" cy="215" r="0" gradientTransform="matrix(1.025 .15868 0 1.12 8 87.835)" gradientUnits="userSpaceOnUse"><stop offset="0" stop-color="#a50a0a"/><stop offset="1" stop-color="#4c0505"/></radialGradient><linearGradient id="e" x1="474" x2="472" y1="259" y2="232" gradientTransform="matrix(1.025 .15855 0 1.12 8 87.893)" gradientUnits="userSpaceOnUse"><stop offset="0" stop-color="#b07e09" stop-opacity="0"/><stop offset="1" stop-color="#b07e09"/></linearGradient><linearGradient id="f" x1="483" x2="485" y1="297" y2="327" gradientTransform="matrix(1.025 .15864 0 1.12 8 87.854)" gradientUnits="userSpaceOnUse"><stop offset="0" stop-color="#b07e09" stop-opacity="0"/><stop offset="1" stop-color="#b07e09"/></linearGradient><linearGradient id="h" x1="452" x2="455" y1="250" y2="241" gradientTransform="matrix(1.025 .15664 0 1.12 8 88.777)" gradientUnits="userSpaceOnUse"><stop offset="0" stop-color="#f9f0aa"/><stop offset="1" stop-color="#b07e09"/></linearGradient><linearGradient id="i" x1="473" x2="476" y1="237" y2="270" gradientTransform="matrix(1.025 .1586 0 1.12 8 87.868)" gradientUnits="userSpaceOnUse"><stop offset="0" stop-color="#f9f0aa"/><stop offset="1" stop-color="#b07e09"/></linearGradient></defs><path fill="#4997d0" d="M8 195c171-85 341-54 513-28 155 24 312 45 471-34v672c-171 85-341 54-513 28-155-24-312-45-471 34z"/><path fill="#fff" d="M336 143c108 9 216 33 328 42v672c-108-9-216-33-328-42z"/><path fill="#24420e" d="m471 582 5-1h2v1h-1zm9-5 3 6zm-5-1 3 5zm-48-155-5 3v-1q3 0 5-3zm-5 2v-5zm-2 1 1 2h-1zm3 4h-2l-1-1h3zm-6-2v9zm-2 7 2 3zm-3 9 2 5h-1zm5 1-1 1h-1v-1zm0 6-4 2zm-7 47 4 5-1 1zm4 8-3-2zm2 8 1 1zm1 5 4 5zm2 8 4 1-1 1zm2 4h3v1zm4-5v4h-1zm0 6 1-2v2zm6 6v4l-1-1zm40 41-1 1h-1zm-4-3-1-3h1z"/><path fill="#406325" d="m506 596-3-3q-12-8-25-12l-6-5-16-9-2-2-8-6q-13-14-22-32c-6-15-13-31-12-47l2-30q4-22 16-38h-2q-11 17-16 39-2 14-1 30c-1 16 6 31 12 47q8 17 22 31l8 7 2 2 16 9 6 4q13 5 25 12l3 4z"/><path fill="#24420e" d="m506 596-1 1-4-4-24-12-4-2-10-6-8-5-2-2-4-4-4-3-4-4q-15-16-18-27l-3-6-7-20q-3-12-2-21v-11l1-19q7-25 16-39l1-1 1 1q-10 12-16 38l-2 19v11l3 21 7 20 2 6q4 10 19 28l3 4 4 3 4 3 2 2 8 5 14 9q15 5 25 12zm0 0-3-3q-10-8-25-12l-4-3-2-2-8-4-8-5-2-2-4-3-4-3-3-4q-15-18-19-28l-2-6-7-20-3-21v-11l2-19q6-25 15-38h-1q-9 14-16 39l-1 19v11q-1 9 2 21l8 20 2 6q4 11 18 27l4 4 4 3 4 4 2 2 8 5 10 6 4 2 25 12 3 4z"/><path fill="#67923d" d="M425 524c-3-8-2-24-1-26q9 26 1 26"/><path fill="#24420e" d="m424 524-1-15 1-11q6 10 5 19-1 8-5 7m1 0q3 0 3-7 1-9-4-19l-1 11q-1 11 2 15"/><path fill="#67923d" d="M472 582c-8-1-21 7-23 9 16 2 24-4 23-9"/><path fill="#24420e" d="M472 582q1 4-5 7-7 4-18 2l9-6zm-1 0q-4 0-13 4l-9 5q11 2 18-2 6-3 4-7"/><path fill="#67923d" d="M479 578c-7-7-14-28-14-32 15 15 19 30 14 32"/><path fill="#24420e" d="m479 578-10-17-4-15q11 11 15 21 3 10-1 11m0 0q4-1 1-11-4-11-15-20l4 14z"/><path fill="#67923d" d="M474 578c-7-7-16-25-16-28 15 11 20 25 16 28"/><path fill="#24420e" d="M474 578q-5-4-11-16l-5-12v-1q10 9 15 18 4 9 1 11m0-1q3-1-1-10t-15-17l5 12q6 12 11 15"/><path fill="#67923d" d="M458 567c1-8-6-27-8-30-3 19 3 31 8 30"/><path fill="#24420e" d="M458 568q-4 1-7-8-3-10-1-23 3 3 5 13 4 12 3 18m0-1-3-17-5-13q-2 13 1 22 3 10 7 8"/><path fill="#67923d" d="M430 536c-2-7-1-21 1-23q6 23-1 23"/><path fill="#24420e" d="m430 536-1-13 1-10h1l3 17q-1 8-4 6m0 0q3 1 4-6l-3-17q-2 1-2 10z"/><path fill="#67923d" d="M416 448c4-7 19-14 22-15-8 16-19 20-22 15"/><path fill="#24420e" d="M416 448q2-4 11-10l10-5h1q-6 11-13 15-6 4-9 0m0 0q3 4 9 0 8-4 12-15l-10 5q-9 6-11 10"/><path fill="#67923d" d="M417 442c2-8 15-19 18-20-5 17-14 24-18 20"/><path fill="#24420e" d="M417 442q2-6 8-13l9-7h1q-3 12-9 18t-9 2m0 0q3 4 9-2t8-18l-8 7q-7 8-9 13"/><path fill="#67923d" d="M445 557c-5-8-8-27-7-30 11 16 12 29 7 30"/><path fill="#24420e" d="m445 557-6-17q-2-11-1-13v-1 1q7 11 10 21 1 9-3 9m0 0q5-1 3-9-3-10-10-21-1 3 1 13z"/><path fill="#67923d" d="M416 512c-8 0-22-8-24-10 16-1 25 5 24 10"/><path fill="#24420e" d="M416 512q-5 0-14-4l-10-6q11-2 18 3 8 3 6 7m0 0q1-4-6-7-8-4-17-3l9 6q9 4 14 4"/><path fill="#67923d" d="M414 501c1-6 8-16 10-17-1 13-7 19-10 17"/><path fill="#24420e" d="m413 501 5-11 6-6q0 9-4 14t-6 3m1 0q1 2 6-3 3-5 4-14l-5 6q-5 7-5 11"/><path fill="#67923d" d="M466 574c-9 0-25 9-27 11 19 3 30-5 27-11"/><path fill="#24420e" d="M466 574q3 5-5 9-9 5-22 3v-1l11-7q10-4 16-4m0 0q-6 0-16 5l-10 6q12 3 21-2 7-4 5-9"/><path fill="#406325" d="M425 524q8-1-1-26 2 23 1 26"/><path fill="#24420e" d="M425 524q2-2-1-26 6 10 5 19-1 7-4 7m0 0q3 0 4-7 0-9-5-19 3 24 1 26"/><path fill="#406325" d="M436 548c-5-7-20-15-22-16 9 15 20 20 22 16"/><path fill="#24420e" d="M436 548q-2 3-8-1-8-4-14-15l10 6q9 5 12 10m0 0q-3-4-12-10l-10-6q6 11 14 15 6 4 8 1"/><path fill="#406325" d="M411 485c-1-9-13-27-15-29 2 20 10 31 15 29"/><path fill="#24420e" d="M411 485q-4 2-9-6-4-9-6-23l8 12q6 11 7 17m0 0q-1-6-7-17l-8-11q2 13 6 22 5 7 9 6"/><path fill="#406325" d="M420 525c-6-5-20-9-22-8q18 15 22 8"/><path fill="#24420e" d="M420 525q-1 4-8 1-6-1-14-9 3-1 10 2zm0 0-12-6-10-2q8 8 15 9 6 2 7-1"/><path fill="#406325" d="M410 496c-3-7-15-17-17-18q11 23 17 18"/><path fill="#24420e" d="M410 496q-3 2-7-2-6-6-10-16l8 6zm0 0q-2-5-9-11l-8-7q4 10 10 15 4 5 7 3"/><path fill="#406325" d="M413 443c0-9-6-27-8-29q-1 27 8 29"/><path fill="#24420e" d="M413 443q-4 1-7-8t-1-21v-1 1q3 2 5 12zm0 0-3-17-5-12q-2 12 1 21t7 8"/><path fill="#406325" d="M417 427c3-8 1-25 0-28-7 15-4 27 0 28"/><path fill="#24420e" d="M417 427q-3-1-4-9 0-9 4-19l2 12q0 12-2 16m0 0 2-16-2-12q-4 10-4 19 1 8 4 9"/><path fill="#406325" d="M423 419c3-5 4-19 3-22q-10 18-3 22"/><path fill="#24420e" d="M423 419q-4-1-3-8l6-14v10zm-1 0 4-12v-9q-4 6-6 13 0 7 2 8"/><path fill="#406325" d="M429 413c4-4 9-16 9-18-10 6-12 15-9 18"/><path fill="#24420e" d="M429 413q-3-2-1-8 3-6 10-11v1l-3 8zm0 0 6-10 3-8q-7 4-10 10-2 6 1 8"/><path fill="#406325" d="M412 459c0 1-1-9-10-22q3 25 10 22"/><path fill="#24420e" d="M412 459q-3 2-6-4-4-6-4-18 9 12 10 22m0 0q-1-10-10-22 0 12 4 18 3 6 6 4"/><path fill="#406325" d="M446 560c-7-6-24-11-27-11 13 14 25 16 27 11"/><path fill="#24420e" d="M446 560q-2 4-9 1-9-2-18-12l12 3q10 3 15 8m-1 0q-3-4-14-8l-12-3q9 9 18 12 8 3 8-1"/><path fill="#406325" d="M458 567c-5 1-11-11-8-30 3 16 7 29 8 30"/><path fill="#24420e" d="M458 567q-4 2-7-8-3-9-1-22 6 29 8 30m0 0q-3-2-8-29-2 12 1 21t7 8"/><path fill="#406325" d="M472 582c1 5-7 11-23 9q21-7 23-9"/><path fill="#24420e" d="M472 582q1 4-5 7-7 4-18 2 21-6 22-9zm0 0q-3 3-22 9 10 2 17-2 5-3 5-7"/><path fill="#406325" d="M479 578c5-2 1-17-14-32q14 27 14 32"/><path fill="#24420e" d="M479 578q1-4-14-32 11 11 15 21 3 10-1 11m0 0q4-1 1-11-4-11-15-20 15 27 14 31"/><path fill="#406325" d="M474 577c4-2-1-16-16-27q15 23 16 27"/><path fill="#24420e" d="M474 577q0-3-16-27v-1q10 9 15 18 4 9 1 10m0 0q3-1-1-10-5-9-15-17 16 23 16 27"/><path fill="#406325" d="M430 536q7 0 1-23z"/><path fill="#24420e" d="M430 536v-23h1l3 17q-1 7-4 6m0 0q3 1 4-6l-3-17z"/><path fill="#406325" d="M416 448c3 5 14 1 21-15q-16 14-21 15"/><path fill="#24420e" d="M416 448q3 1 21-15-5 11-12 15-7 5-9 0m0 0q3 4 9 0 7-4 12-14-17 15-21 14"/><path fill="#406325" d="M417 442c4 4 13-3 18-20q-14 19-18 20"/><path fill="#24420e" d="M417 442q3 0 17-20h1q-3 12-9 18t-9 2m0 0q3 3 9-2 6-6 8-17-14 19-17 19"/><path fill="#406325" d="M445 557c5-1 4-14-7-30q8 25 7 30"/><path fill="#24420e" d="M445 557q2-3-7-30 7 11 10 21 2 9-3 9m0 0q5-1 3-9-3-10-10-21 9 26 7 30"/><path fill="#406325" d="M416 512c1-5-9-11-24-10q21 7 24 10"/><path fill="#24420e" d="M416 512q-2-3-24-10 11-2 18 3 7 3 6 7m0 0q1-4-6-7-7-4-17-3 21 7 23 10"/><path fill="#406325" d="M414 501c3 2 9-4 10-17z"/><path fill="#24420e" d="M414 501q2-1 10-17 0 9-4 14t-6 3m0 0q2 2 6-3 3-5 4-14-8 16-10 17"/><path fill="#406325" d="M466 574c2 6-8 14-27 12q24-8 27-12"/><path fill="#24420e" d="M466 574q3 5-5 9-9 5-22 3v-1q25-7 27-11m0 1q-2 3-26 11 12 2 21-3 7-4 5-8"/><path fill="#406325" d="M417 517c-3-7-15-19-17-20 5 16 14 23 17 20"/><path fill="#24420e" d="M417 517q-2 3-8-3t-9-17l9 8zm0 0-9-12-8-8q4 12 10 17 4 6 7 3"/><path fill="#67923d" d="M410 458c5-5 18-8 20-8-8 11-18 12-20 8"/><path fill="#24420e" d="m410 457 11-5 9-2q-6 7-12 10-7 1-8-2m0 1q3 3 8 1 6-2 12-9l-9 2z"/><path fill="#67923d" d="M436 548c-2 4-13-1-22-16q18 16 22 16"/><path fill="#24420e" d="M436 548q-2 3-8-1-8-4-14-15 19 16 22 16m0 0q-3 0-22-15 6 9 14 14 5 4 8 1"/><path fill="#67923d" d="M411 485c-5 2-13-9-15-29q11 26 15 29"/><path fill="#24420e" d="M411 485q-4 2-9-6-4-8-6-23 12 28 15 29m0 0q-3-2-15-28 2 13 6 22 5 7 9 6"/><path fill="#67923d" d="M420 525q-4 7-22-8z"/><path fill="#24420e" d="M420 525q-1 4-8 1-6-1-14-9 19 9 22 8m-1 0q-2 1-20-8 7 7 13 9 7 2 7-1"/><path fill="#67923d" d="M410 496q-6 5-17-18 13 16 17 18"/><path fill="#24420e" d="M410 496q-3 2-8-2-5-6-9-16 14 17 17 17zm0 0q-3-1-17-18 4 10 10 15 4 5 7 3"/><path fill="#67923d" d="M413 443c-5 0-11-12-8-29q5 24 8 29"/><path fill="#24420e" d="M413 443q-4 0-7-8-3-9-1-21 6 27 8 29m0 0q-3-3-8-29-2 12 1 21t7 8"/><path fill="#67923d" d="M417 427c-4-1-7-13 0-28z"/><path fill="#24420e" d="M417 427q-3-1-4-9-1-9 4-19zm0-1v-26q-4 9-4 18 1 8 4 8"/><path fill="#67923d" d="M422 419q-6-4 4-21z"/><path fill="#24420e" d="M422 419q-3-1-2-8l6-14v1q-4 18-3 21zm0 0 4-21-6 13q0 7 2 8"/><path fill="#67923d" d="M429 413c-3-3-1-12 9-18q-10 14-9 18"/><path fill="#24420e" d="M429 413q-3-2-1-8 3-6 10-10-11 15-9 18m-1 0q0-4 10-18-7 4-10 10z"/><path fill="#67923d" d="M412 459q-7 3-10-22 8 21 10 22"/><path fill="#24420e" d="M412 459q-3 2-6-4-4-6-4-18 8 21 10 22m0 0q-3-2-10-21 1 11 4 17t6 4"/><path fill="#67923d" d="M445 560c-1 5-13 3-26-11z"/><path fill="#24420e" d="M446 560q-1 4-9 1-9-1-18-12 23 12 26 11zm-1 0-25-10q9 9 17 11 7 3 8-1"/><path fill="#67923d" d="M437 548c-4-6-7-20-7-23q13 20 7 23"/><path fill="#24420e" d="m437 548-5-13-2-10q7 8 9 15 1 7-2 8m0 0q3-1 1-7-2-7-8-15l2 9z"/><path fill="#67923d" d="M420 517c-4-7-4-23-3-26q11 24 3 26"/><path fill="#24420e" d="M420 517q-3-5-4-14l1-12q6 10 6 19 0 7-3 8m0 0q3 0 3-7 0-9-6-18v11q0 9 3 14"/><path fill="#67923d" d="M417 517c-3 3-12-4-17-20q14 19 17 20"/><path fill="#24420e" d="M417 517q-3 3-8-3-6-5-9-17 15 20 17 20m0 0q-3-1-17-19 4 10 9 16 6 6 8 3"/><path fill="#406325" d="M410 458c2 4 12 3 20-8q-17 9-20 8"/><path fill="#24420e" d="m410 458 17-6 3-2q-6 7-12 10-7 1-8-2m0 0q3 3 8 1 6-2 12-8l-3 1q-14 7-17 6"/><path fill="#406325" d="M420 517q8-2-3-26z"/><path fill="#24420e" d="M420 517q1-2-3-26 6 10 6 19 0 7-3 7m0 0q3 0 3-7 0-9-6-18 4 22 3 25"/><path fill="#406325" d="M437 548q6-3-7-23 7 19 7 23"/><path fill="#24420e" d="M437 548q1-2-7-23 7 8 9 15 1 7-2 8m0 0q3-1 1-7-1-7-7-15 7 19 6 22"/><path fill="#406325" d="M412 478c2-10-2-25-4-29-5 17-1 29 4 29"/><path fill="#24420e" d="M412 478q-4 0-6-8-2-11 2-21v-1 1l4 12zm0 0v-17l-4-12q-3 11-2 21 2 8 6 8"/><path fill="#67923d" d="M412 480c-6 0-9-14-4-31 1 16 3 30 4 31"/><path fill="#24420e" d="M412 480q-3 1-4-2l-2-7q-2-10 2-22 2 28 4 31m0 0q-3-3-4-30-4 11-2 21l2 7z"/><path fill="#67923d" d="M411 480c-1-9 7-25 9-27 2 19-5 29-9 27"/><path fill="#24420e" d="M410 480q0-6 4-16l6-11q1 14-2 21-4 8-7 6m1 0q3 1 7-6 3-8 2-20-2 1-6 10-4 10-3 16"/><path fill="#406325" d="M411 480c4 2 11-8 9-27z"/><path fill="#24420e" d="m411 480 9-27q1 14-2 21-4 7-7 6m0 0q3 1 7-6 3-8 2-20-6 24-9 26"/><path fill="#67923d" d="M412 491c0-9 9-24 11-25q-2 27-11 25"/><path fill="#24420e" d="M412 491q-1-6 5-16 3-7 6-9 0 12-4 20-3 7-7 5m0 0q4 2 7-5 4-8 4-20-3 2-6 9-5 10-5 16"/><path fill="#406325" d="M412 491q9 3 11-25-8 22-11 25"/><path fill="#24420e" d="M412 491q3-1 11-25 0 13-4 20-3 7-7 5m0 0q4 2 7-5 4-7 4-20-8 24-11 25"/><path fill="#ba1f3e" d="m416 433-1 1-1-1 1-1z"/><path fill="#511124" d="m416 433-1 1h-1v-2l1-1zm0 0-1 1 1 1z"/><path fill="#ba1f3e" d="m424 427-1 1-1-1 1-1z"/><path fill="#511124" d="m425 427-2 1h-1v-1l1-1zm-1 0h-1l-1 1 1 1z"/><path fill="#ba1f3e" d="m421 423-1 1-2-1q1-2 2-1z"/><path fill="#511124" d="m421 423-2-1 1-1 1-1zm0 0-1 1 1 1z"/><path fill="#ba1f3e" d="m412 502-2 1-1-2 1-1z"/><path fill="#511124" d="m412 502-2 1-1-1v-2h1l1 1zm0 0-1-1-1-1h-1v2l1 1z"/><path fill="#ba1f3e" d="m414 484-1 1-1-1 1-2z"/><path fill="#511124" d="M414 484v1h-2l-1-1 1-1 1-1zm0 0h-2v1l1 1z"/><path fill="#ba1f3e" d="m428 528-2 1-1-2 1-1z"/><path fill="#511124" d="m428 528-2 1h-1v-3h1l1 1zm0 0-1-1-1-1-1 1 1 1v1z"/><path fill="#ba1f3e" d="m422 529-2 1-1-1 1-1z"/><path fill="#511124" d="M422 529q0 2-2 1h-1v-1l1-2 1 1zm0 0-2-1-1 1 1 1z"/><path fill="#ba1f3e" d="m467 571-1 1-1-2 1-1z"/><path fill="#511124" d="m467 571-1 1-1-1-1-1 2-1zm0 0v-1l-1-1h-1v1l1 2z"/><path fill="#ba1f3e" d="m470 579-1 1-1-1 1-2z"/><path fill="#511124" d="M470 579q0 2-1 1h-1l-1-1 2-2 1 1zm0 0h-1q-1-1-1 1l1 1z"/><path fill="#24420e" d="m583 466 1 1 2 2h-1l-1-2zm-4-19-1-5v-1 1zm3-2-2 6zm-6 5 5 5zm10 7-1 6h-1zm-1 8 1-3v1zm-1 11q3 1 4 4v1q-1-4-4-5m4 3 2-2zm4 33-2 3h-1zm-7 2 2 4zm6 12q-3 4-5 4zm-5 9-3 4-1 1 1-2zm5-16h-2zm-4-9 2 2h-1zm-8 43h-2v-1zm-4-3 1 2h-1zm-7 7v6zm4-4 1 3zm5 4h-2v-1zm-34 23-1 2zm11 0-3-1h-1v-1h1zm-10 4-3-1zm-18 0-3 4v-1zm-3-1q-3 0-4 4l-1 1 1-2zm-2 9-6-3 1-1zm12-1-6-2-2-1h2zm3-2-10-1v-1zm-2-3-2-1zm-7 4-3-2zm57-48-4 4v-1zm-2-85-3-1 1-1z"/><path fill="#406325" d="m494 594 4-2q11-5 24-5l7-2 15-4 2-2 8-4q15-10 22-25c6-14 13-28 12-44q1-15-1-30-5-23-16-43l1 1q12 20 16 43l2 30c1 17-6 30-12 44q-9 15-22 25l-8 5-2 1-16 4-6 3q-13 0-25 4l-3 2z"/><path fill="#24420e" d="m494 594 4-2q9-4 24-5l4-1 3-1 7-2 8-2 2-2 4-2 4-2 4-3q14-13 18-23l3-4 7-19q3-11 2-20v-11l-1-19q-6-28-16-43l1 1q10 15 16 43l2 19v11q0 10-3 20l-7 19-2 5q-4 9-19 22l-3 3-4 2-4 3-2 1-8 2-8 2-2 1-4 2q-15 0-25 4l-3 2zm0 0 2 1q0-2 3-2 10-4 25-5l4-1 2-1 7-2 9-2 2-2 4-2 3-2 4-3q15-13 19-22l2-5 7-19q3-10 3-20l-1-11q1-12-1-19-6-28-16-43l-1-1q10 16 16 43l1 19v11q1 10-2 20l-7 19-2 5q-4 9-19 22l-4 3-4 2-4 2-2 2-8 2-7 2-3 1-4 1q-15 1-24 5z"/><path fill="#406325" d="M575 550c3-8 0-27-1-30-7 16-4 30 1 30"/><path fill="#24420e" d="M576 550q-4 0-6-9 0-11 4-21v-1 1q2 2 2 13zm-1 0q3-5 1-17 0-10-2-13-4 11-4 21 2 9 5 9"/><path fill="#406325" d="M568 557c2-6 1-21 0-24q-7 21 0 24"/><path fill="#24420e" d="M568 557q-3 0-4-7 0-9 4-17l1 11q1 9-1 13m0 0 1-13-1-10q-4 7-4 16 1 6 4 7"/><path fill="#406325" d="M585 476c-3-7-17-18-19-19 6 16 16 23 19 19"/><path fill="#24420e" d="M586 476q-3 4-9-2-7-5-11-17l9 7q9 8 11 12m-1 0q-2-4-10-12l-9-7q4 12 11 17 6 5 8 2"/><path fill="#406325" d="M584 467c-2-7-13-19-15-21 3 16 11 23 15 21"/><path fill="#24420e" d="M584 467q-3 2-8-4t-7-17l8 8zm0 0-8-13-7-8q3 11 7 17 6 6 8 4"/><path fill="#406325" d="M589 484c-4-5-16-10-18-11q14 17 18 11"/><path fill="#24420e" d="M589 484q-1 2-7-1-5-2-11-11l8 4zm0 0-10-7-8-3q5 7 11 10t7 0"/><path fill="#406325" d="M586 536c6 2 19-2 21-4q-22-5-21 4"/><path fill="#24420e" d="M586 536q-1-4 5-5 6-2 16 1l-9 4zm0 0q4 2 12-1l8-3q-9-3-15-1-6 1-5 5"/><path fill="#406325" d="M586 530c-1-7-7-20-9-22q2 22 9 22"/><path fill="#24420e" d="M586 530q-3 1-6-5-3-7-3-17h1l4 9q4 9 4 13m0 0-4-13-4-8q-1 9 2 15 3 7 6 6"/><path fill="#406325" d="M586 514c0-8-9-25-11-28q2 30 11 28"/><path fill="#24420e" d="M586 514q-4 2-7-6-4-9-4-22l7 12q4 10 4 16m0 0q0-6-5-16-3-9-6-11 0 12 4 21 3 7 7 6"/><path fill="#406325" d="M532 591c5 7 20 15 22 15-9-15-20-19-22-15"/><path fill="#24420e" d="M532 591q2-4 9 0 7 5 14 15v1l-11-6q-9-6-12-10m0 0q3 4 12 10l10 5q-6-10-13-15-7-3-9 0"/><path fill="#67923d" d="M575 550c-5-1-8-14-1-30z"/><path fill="#24420e" d="M575 550q-4 0-5-9 0-10 4-21zm0 0q-2-4-1-30-4 11-4 21 2 8 5 9"/><path fill="#67923d" d="M521 591c7 2 20 13 22 16-16-3-24-12-22-16"/><path fill="#24420e" d="M521 591q4 0 13 7l9 9q-11-2-18-7-6-6-4-9m0 0q-2 3 4 8 7 6 18 8l-9-9z"/><path fill="#67923d" d="M521 582c2-9 15-21 18-22-4 18-14 26-18 22"/><path fill="#24420e" d="M521 582q2-6 8-14 7-8 10-8-3 13-9 19-6 7-9 3m0 0q3 3 9-3t9-19q-3 0-9 8-7 8-9 14"/><path fill="#67923d" d="M543 580c-1-9 5-26 7-28 3 20-3 31-7 28"/><path fill="#24420e" d="m542 580 3-16 5-12q3 13-1 22-3 9-7 6m1 0q3 2 6-6 4-9 1-21-2 1-5 11t-2 16"/><path fill="#67923d" d="M564 567c6-5 20-9 23-9q-17 17-23 9"/><path fill="#24420e" d="m564 567 12-7 11-2q-7 9-14 11-7 3-9-2m1 0q1 4 8 2t14-11l-11 2z"/><path fill="#67923d" d="M591 511c1-7 10-18 12-19q-5 23-12 19"/><path fill="#24420e" d="M591 511q0-4 5-12l7-7q-1 10-5 16t-7 3m0 0q3 3 7-3 3-6 5-16-3 1-6 7z"/><path fill="#67923d" d="M579 552c6-4 22-4 25-3-13 10-24 8-25 3"/><path fill="#24420e" d="M579 552q4-3 14-3h11v1q-8 6-17 6-7 0-8-4m0 0q1 4 8 4 9 0 17-7h-11z"/><path fill="#67923d" d="M589 526c4-6 16-13 19-14-7 14-16 18-19 14"/><path fill="#24420e" d="m589 526 10-9 9-5v1q-4 9-11 13-5 5-8 0m1 0q1 3 7 0 6-4 11-13-3 0-9 4-7 5-9 9"/><path fill="#67923d" d="M588 475c0-9 8-24 10-26 1 19-5 29-10 26"/><path fill="#24420e" d="M588 475q0-6 4-16l6-10q2 14-3 21-3 8-7 5m0 0q4 2 7-5 4-8 3-21l-6 11q-4 9-4 15"/><path fill="#67923d" d="M581 445c-2-7-1-20 0-22q7 21 0 22"/><path fill="#24420e" d="m581 445-2-13 2-10v1q4 9 3 16 0 7-3 6m0 0q3 0 3-6l-3-16-1 9q-1 9 1 13"/><path fill="#67923d" d="M577 442c-6-6-11-23-11-26 12 12 15 24 11 26"/><path fill="#24420e" d="m576 442-7-14-3-12q8 8 11 17 3 7 0 9m1 0q3-2 0-9-3-9-11-17l3 12z"/><path fill="#67923d" d="M588 482c0 1 4-8 15-15q-7 23-15 15"/><path fill="#24420e" d="M588 482q5-9 15-15-3 11-8 15-3 4-7 0m1 0q2 3 6 0 5-4 8-15-11 7-14 15"/><path fill="#67923d" d="M553 578c8-5 27-4 30-3-15 11-28 9-30 3"/><path fill="#24420e" d="M553 578q6-3 17-4l13 1h1q-10 8-21 8-9 1-10-5m1 0q0 5 9 5 10-1 20-8l-13-1q-12 1-16 4"/><path fill="#67923d" d="M568 557q-8-3 0-24z"/><path fill="#24420e" d="M568 557q-3 0-4-7 0-9 4-17zm0 0v-23q-4 8-4 16 1 6 4 7"/><path fill="#67923d" d="M585 476c-3 4-12-3-19-19z"/><path fill="#24420e" d="M586 476q-3 3-9-2-7-6-11-17 16 19 19 19zm-1 0q-3 0-19-18 5 10 11 16 6 5 8 2"/><path fill="#67923d" d="M584 467c-4 2-12-5-15-21q11 19 15 21"/><path fill="#24420e" d="M584 467q-2 2-8-4-5-6-7-17 12 20 15 21m0 0q-3-1-15-20 3 10 7 16 5 6 8 4"/><path fill="#67923d" d="M589 485q-4 5-18-11 15 12 18 11"/><path fill="#24420e" d="M589 485h-7l-11-11v-1l3 3q13 9 15 8zm0 0q-3 0-15-9l-2-2q4 7 10 10t7 1"/><path fill="#67923d" d="M586 536q-1-9 21-4-19 2-21 4"/><path fill="#24420e" d="M586 536q-1-4 5-5 6-2 16 1-19 2-21 4m0 0q2-3 20-4-9-3-15-1-5 1-5 5"/><path fill="#67923d" d="M586 530q-7 0-9-22z"/><path fill="#24420e" d="M586 530q-3 1-6-5-3-7-3-17h1q6 20 8 22m-1 0q-2-2-7-21-1 9 2 15 3 7 5 6"/><path fill="#67923d" d="M586 515q-9 0-11-28z"/><path fill="#24420e" d="M586 515q-4 1-7-7-4-9-4-21 8 26 11 27zm0-1q-3-1-11-27 0 12 4 21 3 8 7 6"/><path fill="#67923d" d="M532 591c2-4 13 0 23 15q-19-14-23-15"/><path fill="#24420e" d="M532 591q2-4 9 0 7 5 14 15h-1a80 80 0 0 0-22-15m0 0q4 0 22 15-6-10-13-15-7-3-9 0"/><path fill="#406325" d="M543 580c4 2 10-8 7-28z"/><path fill="#24420e" d="M543 580q2-1 7-28 2 13-1 22t-6 6m0 0q3 2 6-6 4-8 1-21-4 26-7 27"/><path fill="#406325" d="M553 576c4-7 6-26 5-30-10 15-10 28-5 30"/><path fill="#24420e" d="M553 576q-5-1-3-10 0-10 8-20v14q-2 12-5 16m0 0q3-5 4-16l1-13q-7 9-8 19-2 9 3 10"/><path fill="#406325" d="M521 591c-2 4 6 13 22 16z"/><path fill="#24420e" d="M521 591q1 3 22 16-10-2-18-7-6-6-4-9m0 0q-2 3 4 8 7 5 18 8-21-13-22-16"/><path fill="#406325" d="M521 582c4 4 14-4 18-22z"/><path fill="#24420e" d="M521 582q3-1 18-22-3 13-9 19t-9 3m0 0q3 3 9-3t8-19q-14 21-17 22"/><path fill="#406325" d="M565 567c2 5 12 3 22-9q-19 10-22 9"/><path fill="#24420e" d="M565 567q3 2 22-9-7 9-14 11-7 3-8-2m0 1q1 3 8 1 7-3 13-11-18 10-21 10"/><path fill="#406325" d="M591 511q8 4 12-19z"/><path fill="#24420e" d="M591 511q2 0 12-19-1 10-5 16t-7 3m0 0q3 3 7-3 3-6 5-16-9 18-12 19"/><path fill="#406325" d="M579 552c1 5 12 7 25-3q-21 5-25 3"/><path fill="#24420e" d="M579 552q3 2 25-3v1q-8 6-17 6-7 0-8-4m0 1q1 3 8 3 9 0 17-6-22 5-25 3"/><path fill="#406325" d="M590 526c2 4 11 0 18-14q-15 14-18 14"/><path fill="#24420e" d="M590 526q2 0 18-14-4 10-11 14-6 5-7 0m0 0q1 3 7 0 7-4 10-13-14 13-17 13"/><path fill="#406325" d="M588 475c5 2 11-7 10-26q-6 24-10 26"/><path fill="#24420e" d="M588 475q3-1 10-26 2 14-3 21-3 7-7 5m0 0q4 2 7-5 5-8 3-20-7 24-10 25"/><path fill="#406325" d="M581 445q7-1 0-22z"/><path fill="#24420e" d="M581 445v-22q4 9 3 16 0 7-3 6m0 0q3 0 3-6l-3-16z"/><path fill="#406325" d="M577 442c4-2 1-14-11-26q11 21 11 26"/><path fill="#24420e" d="M577 442q1-3-11-26 9 8 11 17 3 8 0 9m0 0q3-1 0-9-2-9-11-17 12 22 11 26"/><path fill="#406325" d="M589 482q6 8 14-15z"/><path fill="#24420e" d="M588 482q3 0 15-15-3 10-8 15-3 4-7 0m1 0q2 3 6 0 5-4 8-15-11 15-14 15"/><path fill="#406325" d="M554 578c1 6 14 8 29-3-15 3-28 4-29 3"/><path fill="#24420e" d="M553 578q3 3 29-3-9 8-20 8-9 1-10-5m1 0q1 6 9 5 10 0 20-8-26 6-29 3"/><path fill="#406325" d="M561 571c3-6 4-20 3-22-7 10-7 20-3 22"/><path fill="#24420e" d="M561 571q-4-1-3-8l6-15v10zm0-1 3-12v-9l-6 14q0 7 3 7"/><path fill="#406325" d="M581 541c3-6 4-22 3-25-9 12-8 24-3 25"/><path fill="#24420e" d="M581 541q-4 0-4-8 1-8 7-17v11zm0 0 3-14v-11q-6 9-7 17 0 7 4 8"/><path fill="#67923d" d="M553 576c-5-2-5-15 5-30q-6 26-5 30"/><path fill="#24420e" d="M553 576q-5-1-3-10 0-10 8-20v1q-6 25-5 29m0 0q-2-4 5-29-7 9-8 19-1 9 3 10"/><path fill="#67923d" d="M589 504c-1-9 4-21 7-24 2 17-3 26-7 24"/><path fill="#24420e" d="m589 504 2-14 5-10q2 12-1 19-2 8-6 6m0 0q4 2 6-5 3-7 1-19l-5 10z"/><path fill="#67923d" d="M561 570c-4-1-4-11 3-21q-4 18-3 21"/><path fill="#24420e" d="M561 571q-4-1-3-8l6-15v1q-4 19-3 21zm-1-1 4-21-6 14q0 6 2 7"/><path fill="#67923d" d="M585 457c-3-7 0-22 1-24q6 24-1 24"/><path fill="#24420e" d="M584 457v-14q0-9 2-10l3 18q-1 7-4 6m1 0q3 1 4-6l-3-18-2 10q-1 9 1 14"/><path fill="#67923d" d="M525 583c3-9 16-21 19-22-4 19-15 26-19 22"/><path fill="#24420e" d="M525 583q1-6 10-14 6-7 9-8-3 14-10 20-6 6-9 2m0 0q3 4 9-2 7-7 10-20-3 1-9 8-9 8-10 14"/><path fill="#67923d" d="M581 545c3-7 15-15 17-16-5 15-14 19-17 16"/><path fill="#24420e" d="M581 545q1-5 9-11l8-5q-3 11-9 15-5 4-8 1m0 0q3 3 8-1 6-4 9-15l-8 5q-7 6-9 11"/><path fill="#67923d" d="M581 541c-5-1-6-13 3-25-3 13-4 24-3 25"/><path fill="#24420e" d="M581 541q-4-1-4-8 1-9 7-17-5 22-3 25m0 0q-2-3 3-25-6 8-6 17-1 7 3 8"/><path fill="#406325" d="M589 506c6 3 9-9 7-25z"/><path fill="#24420e" d="M589 507q2-1 7-25v20l-3 5zm0-1h4l2-5q3-8 1-20-4 24-7 25"/><path fill="#406325" d="M590 506c0-8-7-26-9-29-2 18 4 30 9 29"/><path fill="#24420e" d="M590 506q-4 2-7-7-3-10-2-22l5 12q4 12 4 17m0 0q0-5-4-17l-5-12q-1 12 2 22 3 7 7 7"/><path fill="#406325" d="M585 457q7 0 1-24z"/><path fill="#24420e" d="m585 457 1-24 3 18q-1 7-4 6m0 0q3 0 4-6l-3-18z"/><path fill="#406325" d="M525 583c4 4 15-3 19-22q-15 21-19 22"/><path fill="#24420e" d="M525 583q4 0 19-22-3 14-9 20t-10 2m0 0q4 4 9-2 7-7 10-19-15 20-19 21"/><path fill="#406325" d="M581 545c3 4 12-1 17-16q-13 15-17 16"/><path fill="#24420e" d="M581 545q3 0 17-16-3 11-9 15-5 4-8 1m0 0q3 3 8-1 6-5 9-14-14 14-17 15"/><path fill="#67923d" d="M590 506c-5 1-11-11-9-29q5 26 9 29"/><path fill="#24420e" d="M590 506q-4 1-7-7-4-10-2-22 6 27 9 29m0 0q-3-3-9-28-1 11 2 21 3 7 7 7"/><path fill="#ba1f3e" d="m588 462-1 2-1-2 1-1z"/><path fill="#511124" d="M588 462v1l-1 1-1-1v-2h1zm0 0v-1l-1 1 1 1z"/><path fill="#ba1f3e" d="m592 476-1 1-1-1 1-1z"/><path fill="#511124" d="m592 476-1 1v1l-2-2 1-1h1zm0 0-1-1-1 1 1 1z"/><path fill="#ba1f3e" d="m593 519-1 1-1-2 1-1z"/><path fill="#511124" d="m593 519-1 1-1-1v-1l1-1zm0 0v-1l-1-1-1 1 1 2z"/><path fill="#ba1f3e" d="m588 510-1 1-2-1 2-2z"/><path fill="#511124" d="m588 510-1 1h-1l-1-1 1-1 1-1zm0 0v-1h-2v2h2z"/><path fill="#ba1f3e" d="m573 553-1 1-2-2 2-1z"/><path fill="#511124" d="m573 553-1 1-2-2 2-1zm0 0v-1l-1-1h-1l-1 1 1 1 1 1z"/><path fill="#ba1f3e" d="m579 557-1-2 1-1z"/><path fill="#511124" d="m580 557-2 1-1-1v-2h2zm-1 0-1-2h-1v1z"/><path fill="#ba1f3e" d="m536 586-1 2-2-2 2-1z"/><path fill="#511124" d="m536 586-1 2-2-2 1-1h1zm0 0-2 1 2 2z"/><path fill="#ba1f3e" d="m529 591-2 1-1-1 1-2z"/><path fill="#511124" d="m529 591-1 1h-2v-2l1-1zm0 0-1-1-1-1-1 2 1 1z"/><path fill="#ba1f3e" d="m580 455-1 1-1-1 1-1z"/><path fill="#511124" d="M580 455v1h-1l-1-1 1-1zm0 0-1-1h-1v2h2z"/><path fill="#8c959d" d="M453 533q0 3 2 3l-1-1z"/><path fill="#485654" d="M453 533v2l1 1h1-1l-1-1zm0 0 1 2 1 1h1-1l-1-1z"/><path fill="#8c959d" d="M456 536q-2 2-3 1l-1-3-1 2 2 2q2 1 4-1l1-4-2-2-1 1h2q1 3-1 4"/><path fill="#485654" d="m456 536-1 1h-2l-1-1v-2l-1 2 1 1 1 1h2zl1-2v-2l-1-1-1-1-1 1h1l1 1v2zm0 0 1-1v-2l-1-1h-1l1-1 1 1 1 1v3l-1 1-2 1h-1l-2-1-1-1 1-2v2l1 1h2z"/><path fill="#6c301e" d="m536 449-41 38-42 37-5 6-7 8h-2l-5 4-13 14v2l7 11q2 2 3 1c3-6 11-14 14-21l6-13 12-13 1-1 1-1 72-71z"/><path fill="#351710" d="M536 449v1l-26 27-46 44-1 1-1 1-4 4-8 9-4 8-2 5-8 13-6 8h-1l-2-1-7-11v-2l13-14 5-4h1l1-1 10-10 2-3 21-19 21-18zm0 0-41 38-21 19-21 18-2 3-3 3-7 8h-2l-5 4-13 14v2l7 10 2 2h1l6-8 8-13 2-5 4-8 8-9 4-4 1-1 1-1 45-45 27-26z"/><path fill="#8c959d" d="M451 524q-2 0-3-2l3 1z"/><path fill="#485654" d="m451 524-3-2 3 1zm0 0v-1l-3-1z"/><path fill="#b2b6ba" d="m579 422-33 25h-1l-3-3v-1l2-1v-1l-1-1h-1l-1 2-1 1-57 52-23 20-7 4-1 2-2 6-3 4 4 5 11-12 1-1-3-4v-1l81-73h1l3 4 1 1z"/><path fill="#485654" d="m579 422-33 28-2-1-2-4h-1l-55 50-26 23v1l1 1 2 3v1l-6 6-6 6-1-1-3-4 1-1 2-4 1-5 2-2 3-1 4-3 23-20 32-30 24-22 2-1 1-2h1l1 1v1l-1 1v1l3 3zm-4 4-29 21h-1l-3-3v-1l2-1v-1l-1-1-2 2-1 1-25 23-32 29-23 20-4 3-3 1-1 2-2 6-2 3-1 1 3 3 1 1 6-5 5-6 1-1-2-3-1-1v-1l26-23 55-50h1l3 4h1zM450 526l1-2v-3 3zm8-1-1-1 1-1zm0 0v2zm-4 4v-1zm0 0h-1v1zm6-10-2-2 1 1z"/><path fill="#8c959d" d="m523 458 3 4 1-1z"/><path fill="#485654" d="m523 458 4 4-1 1zm0 0 3 4 1-1z"/><path fill="#8c959d" d="M544 549q0 3-2 2-1-1 0 0l1-1z"/><path fill="#485654" d="m544 549-1 2-1 1h2zm0 0v2h-2 1z"/><path fill="#8c959d" d="M541 551q2 3 4 2v-2l1 1-2 2zv-4l2-1 1 1h-2z"/><path fill="#485654" d="m541 551 1 1 2 1h1v-2l1 1-1 1-1 1h-1l-1-1-2-3-1-2 1-1v-1h2l1 1h-2l-1 1v2zm0 0-1-1v-2l1-1h2l-1-1v-1l-2 1v1l-1 1 1 2zl2 1 1 1h2l1-2-1-1v1l-1 1-2-1z"/><path fill="#6c301e" d="m466 435 39 53 40 52 4 7 7 11 2 1 5 6 12 17v2l-7 9h-3c-3-6-11-17-14-25-1-5-3-13-5-16l-11-16-1-2-1-1-68-97z"/><path fill="#351710" d="m466 435 25 36 43 61 1 2 1 1 3 5 8 11 4 10 1 6 8 15 6 10 1 1 2-1 7-9v-2l-12-17-5-6-1-1h-1l-4-7-3-4-2-4-2-3-20-26-20-26zm0 1 39 52 20 26 20 26 2 3 2 4 3 4 5 8h1l5 6 12 17v2l-7 9-2 1-1-1-6-10a112 112 0 0 1-13-31l-7-11-4-5-1-2-1-1-43-61-25-36z"/><path fill="#8c959d" d="m547 541 3-1-3-1z"/><path fill="#485654" d="m547 541 3-1-3-1h-1zm0 0v-1h3z"/><path fill="#b2b6ba" d="m424 395 32 35h1l3-2-2-2 1-1h1l1 2 2 2 53 71 22 29 7 6 1 2 2 7 2 5-4 3-11-15v-2l2-2h1v-1l-77-102h-1l-3 3h-1z"/><path fill="#485654" d="m425 394 32 38h2l2-3h1l53 70 24 32v1h-1l-1 1-1 1v2l6 8 5 7h1l3-3h1l-1-1-2-4-1-7-2-2-3-2-4-4-22-29-30-40-23-31-2-2-1-2-1-1v1l-1 1 2 2-3 2h-1zm3 5 28 31v1l1-1 3-2-1-2v-1h1l1 2 1 2h1l23 31 30 40 22 29 4 4 3 2 1 2 2 7 2 4v1l-3 2-1 1-5-8-5-7-1-1 3-3v-1l-24-32-52-70h-2l-3 3h-1zm120 145-1-3v-3l-1 1 1 2zm-8-5 1 1v-1zm0 0v1zm4 5h1zm0 0h-1zm-6-11 2-2z"/><path fill="#8c959d" d="m479 449-4 3-1-1z"/><path fill="#485654" d="m479 449-4 3 1 1zm0 0-4 3-1-1z"/><path fill="#67923d" d="M453 566c-9-5-27-5-30-3 17 11 30 9 30 3"/><path fill="#24420e" d="M453 566q0 6-9 5-9 0-21-8 2-2 13-1 11 0 17 4m0 0q-6-3-17-4l-13 1q12 7 21 8 9 0 9-5"/><path fill="#67923d" d="M544 584c8-3 27 3 30 5-17 6-30 1-30-5"/><path fill="#24420e" d="M544 584q6-2 17 1 10 2 13 4-12 5-21 2-10-3-9-7m0 0q0 4 9 7t21-2q-3-2-13-4-11-3-17-1"/><path fill="#406325" d="M453 566c0 6-13 8-30-3q26 5 30 3"/><path fill="#24420e" d="M453 566q0 6-9 5-9 0-21-8 27 5 30 3m0 0q-4 3-30-3 12 8 21 8 8 0 9-5"/><path fill="#406325" d="M544 584c0 6 13 12 30 5q-25-2-30-5"/><path fill="#24420e" d="M544 584q3 3 30 5-12 5-21 2-9-2-9-7m0 0q0 4 9 7t21-2q-27-2-30-5"/><path fill="#b2b6ba" d="M529 572c-21-37-53-70-78-88 4 0 12 6 15 9q36 32 68 77l-4 3z"/><path fill="#485654" d="M529 572a295 295 0 0 0-78-88v-1q6 2 15 9 30 26 68 78l-4 3zm0 0 1 1 3-3q-37-52-67-77-9-9-14-9a304 304 0 0 1 77 88"/><path fill="#8c959d" d="m531 572-1 1z"/><path fill="#485654" d="m531 572-1 1a431 431 0 0 0-79-89q12 8 23 18a287 287 0 0 1 40 45zm0 0-18-25-39-45q-11-10-23-18l23 19a384 384 0 0 1 56 70z"/><path fill="#fab81c" d="m538 568-5 1q0 3-4 3v-1l-1 1q-1-1-2 1l2 3 2 2 2-2 12 14q3 0 2-3l-1-1q4-3 1-11-4-7-8-7m7 6 1 2q1 6-2 8h-1q1-2-1-2l-2-2q1-2-1-2l-1-2-2-2v-2l3-2q4 0 6 4"/><path fill="#6c301e" d="M538 567q5 1 8 8t-1 11l1 1v2l-2 1h-1l-11-14-2 2-3-2-1-4h2l1-1v1q4 0 4-3zm0 1-5 1q0 3-4 4v-1q0-1 0 0h-1l-2 1 2 3 2 1 2-1 12 14 2-1v-2l-1-1q4-4 1-11-4-7-8-7m7 6 1 1v6q0 3-2 3h-1v1-2l-1-1v1-1l-1-1-1-1v-1l-1-1v-1l-1-1h-1v-1l-1-1v-1l-1-1h1l1-1 2-1q3-2 6 3m0 0q-3-4-6-4l-2 2-1 1v1l1 1 1 1 1 1v1l1 1v1l2 1v1l1 1v1q3 0 3-3v-5l-1-1z"/><path fill="#fab81c" d="M546 577h2v1z"/><path fill="#6c301e" d="M545 576h1v1h-1zm1 1h1zh-2z"/><path fill="#fab81c" d="m546 576-1-1h1l1 1z"/><path fill="#6c301e" d="M545 575v1l1 1h-1zm1 1h-2z"/><path fill="#fab81c" d="m545 575-1-2h2v2z"/><path fill="#6c301e" d="M544 573h1v2h-1zm1 2h1v-1l-1-1z"/><path fill="#fab81c" d="M544 574v-2h1l1 2z"/><path fill="#6c301e" d="m544 572 1 2h-2zm0 2 2-1-1-1h-1z"/><path fill="#fab81c" d="M543 572v-1q0-1 0 0h1l1 1z"/><path fill="#6c301e" d="M543 572v-2 1h1l1 1zm0 0h1v-1h-1z"/><path fill="#fab81c" d="m532 576 4-4zm0 0q3 1 4-2zm2 2q2 1 4-2zm1 2q3 1 4-2zm2 2 3-2zm1 2q3 1 4-2zm2 2q3 0 3-2zm2 2 3-2z"/><path fill="#6c301e" d="m532 576 1-2 1-1 2-1-2 1-1 1zm0 0h2l1-1 1-1v1l-1 1-1 1zm2 2h2l1-1 1-1-2 2zm1 2h1l2-1 1-1-2 2zm2 2 3-1v-1 1l-1 1zm1 2h2l1-1 1-1-1 1-1 1zm2 2h1l1-1v-1 1l-1 1zm2 2 1-1 1-1-1 2z"/><path fill="#b2b6ba" d="M469 560c24-29 57-49 82-59-3-1-11 2-15 4q-36 17-71 51z"/><path fill="#485654" d="M469 560q17-21 41-37 20-13 41-22h1-1q-5-1-15 3-31 15-71 52zm0 0-4-4q40-37 71-51 10-4 15-4a205 205 0 0 0-82 59"/><path fill="#8c959d" d="m467 559 2 2c25-28 60-52 82-60-31 9-59 34-84 58"/><path fill="#485654" d="m467 559 2 2a271 271 0 0 1 82-60q-12 4-23 10a184 184 0 0 0-42 30zm0 0 39-34 22-14 23-10-23 11a247 247 0 0 0-59 49z"/><path fill="#fab81c" d="m460 552 6 4 3 4h1q0-1 0 0h1l1 1-1 4h-3l-2-2-12 9q-3-1-2-3l1-1q-4-5 0-11 4-5 7-5m-6 4-1 2q-3 5 2 9l1-2 2-1q0-2 1-1l2-2q0-2 1-1l1-2-3-4q-4-1-6 2"/><path fill="#6c301e" d="M461 552q-4 0-7 4-4 7 0 12l-1 1v2l2 1 12-9 2 2h3q2-1 1-4l-1-1-1-1-1 1q-3-1-3-4zm-1 0 6 4q0 3 3 4h2l1 2-1 3h-3l-2-2-12 9-2-1v-2l1-1q-3-5 0-11 3-5 7-5m-6 4-1 1v1q-2 2-1 5l2 4h1v-1h2l-1-1 1-1h1v-1h2v-2h1v-1h1l1-2-1-2-2-2q-3-2-6 2m0 0q3-3 6-2l2 3 1 1-1 1-1 1v1h-1l-1 1-1 1v1h-1l-1 1-1 1v1l-3-4 1-5v-1z"/><path fill="#fab81c" d="m452 559 1-1h-1z"/><path fill="#6c301e" d="M453 558h-1l-1 2h1zm-1 1 1-1h1z"/><path fill="#fab81c" d="M453 558v-1l-1-1-1 2z"/><path fill="#6c301e" d="m453 557-1 2h2zm0 1h-1v-1h1z"/><path fill="#fab81c" d="m453 557 1-1-1-1z"/><path fill="#6c301e" d="M454 556h-1l-1 1zm-1 1 1-1h1v1z"/><path fill="#fab81c" d="m454 556 1-1-1-1z"/><path fill="#6c301e" d="m455 555-1-1-1 1zm-1 1 1-1 1 1z"/><path fill="#fab81c" d="m455 555 1-1h-1l1-1-1 1z"/><path fill="#6c301e" d="M456 555v-2h-1l-1 1v1zm-1 0 1-1v-1 1h1z"/><path fill="#fab81c" d="m466 563-3-5zm0 0-4-3zm-1 2-4-4zm-2 1-4-3zm-2 1-3-3zm-1 2-4-4zm-2 1-3-3zm-2 1-3-3z"/><path fill="#6c301e" d="m466 563-1-3-1-1-1-1 1 1 1 1zm0 0h-1l-1-1-1-1-1-1 1 1 1 1 1 1zm-1 2-1-1-2-1-1-2 1 2 1 1zm-2 1h-1l-2-2-1-1 2 2 1 1zm-2 1-2-1v-1l-1-1v1l1 1zm-1 2-1-1-1-1h-1l-1-2 2 3zm-2 1-2-2 1 2zm-2 1-1-1-1-2 1 2z"/><path fill="#406325" d="M427 422c8-2 19-14 20-17-16 2-23 12-20 17"/><path fill="#24420e" d="M428 422q-2-4 3-10 6-6 17-7h1l-8 9q-7 7-12 8m0 0 12-8 7-9q-11 2-17 8-5 5-2 9"/><path fill="#406325" d="M577 450c-2-9-14-23-16-25 3 18 12 27 16 25"/><path fill="#24420e" d="M577 450q-3 2-9-5-5-8-7-20l8 10q7 9 8 15m0 0-8-15-8-10q2 12 8 20 4 6 8 5"/><path fill="#67923d" d="M427 422c-3-5 4-15 20-17q-17 13-20 17"/><path fill="#24420e" d="M427 422q-2-4 3-9 6-7 17-8-19 14-19 17zm0 0q1-4 20-17-11 2-17 8-5 5-3 9"/><path fill="#67923d" d="M577 450c-4 2-13-7-16-25q12 22 16 25"/><path fill="#24420e" d="M577 450q-3 2-8-5-6-8-8-20 13 24 16 24zm0 0q-4-2-16-24 3 12 8 19 4 6 8 5"/><path fill="url(#a)" d="M472 516c-1 0-6 0-9-10-1-11 5-11 6-11l13 2 3 20z"/><path fill="#999270" d="M468 515q-3-3-5-9 0-7 2-9l4-2 13 1 3 21-13-1zm4 1 13 1-3-20-13-1-3 1q-4 2-2 9 1 6 4 8z"/><path fill="url(#b)" d="M472 513q-1 2-5-7 1-6 3-5l9 3v9z"/><path fill="#999270" d="m470 512-3-6q0-5 3-5l9 3v9h-7zm2 1h7v-9l-9-3q-3-1-2 5l2 6z"/><path fill="url(#c)" d="M470 501h9l1 7-7-1s-1-5-3-6"/><path fill="#999270" d="M470 501h9l1 7-7-1zm0 0q3 1 3 6l7 1-1-7z"/><path fill="url(#d)" d="M468 496c1 0 8-1 9 8q1 6-5 9l15 1-2-18z"/><path fill="#999270" d="m468 495 12 1h5l2 18-15-1 4-4 1-5q-1-5-5-8zm2 0 2 1q5 2 5 8l-1 5-3 4h13l-1-16-5-1z"/><path fill="#f9f0aa" d="m472 516 58 5c16-8 0-47-14-71 1-5-30-20-45-21l-5-1c-8 0-8 11-5 19 4 7 31 65 12 69z"/><path fill="#999270" d="M472 516q6-1 7-10 0-7-4-20-3-15-14-37l-1-2-2-13q1-6 7-6l5 1q12 0 29 9l12 7 5 5q12 23 18 42 7 24-5 29zm1 0 57 5q11-5 4-29-5-19-18-42 1-1-4-5l-12-7q-18-8-29-9l-5-1q-6 0-6 7-1 5 1 11l1 3 15 37 3 20q-1 9-7 10"/><path fill="url(#e)" d="M528 475q-4-14-12-25c1-5-30-20-45-21l-5-1c-8 0-8 11-5 19l8 18z"/><path fill="#999270" d="M528 475q-4-13-12-25 1-1-4-5l-12-7q-18-8-29-9l-5-1q-6 0-6 7-1 5 1 11l1 3 7 16-7-16-1-2-2-13q1-6 7-6l5 1q12 0 29 9l12 7 5 5z"/><path fill="url(#f)" d="M474 479c6 18 9 35-1 37h-1l58 5q12-7 3-33z"/><path fill="#999270" d="M474 479q6 15 6 24 0 12-7 13l57 5q12-5 3-33h1q8 29-4 33l-58-5h1q7-1 7-13-1-9-6-24"/><path fill="url(#g)" d="M467 432q-5 0-5 5 2 9 5 8l6 1 3-14z"/><path fill="#999270" d="m467 431 9 1-3 14-6-1-3-1-2-7 1-4zm0 1-4 1-1 4 2 7 3 1h6l3-13z"/><path fill="url(#h)" d="M467 432h9l1 11-8-1c0-1 2-7-2-10"/><path fill="#999270" d="M467 432h9l1 11-8-1v-4zm2 10 7 1v-10l-9-1q2 2 2 6z"/><path fill="url(#i)" d="M517 450c6 0 6-10 2-15-16-3-37-6-52-7q4 0 7 9 0 4-3 7l-4 1 6 1c22 0 43 4 43 4"/><path fill="#999270" d="M516 450a232 232 0 0 0-49-5l4-1q3-3 3-7-1-8-7-9 25 2 52 7l3 9q-1 6-5 6zm0 0q4 0 5-6l-3-9-51-6q5 1 6 8 0 4-3 7l-3 1h2l3 1q22 0 43 4"/><path fill="#b07e09" d="M478 460q0-1 0 0h2zl1 4 1 1h1v-1h1v1h-4v-2zm5 0h2v1l1 4 1 1 1 1h-3v-2zm4 2h2l-1-2h-1zm1 2 1 1h1l-1-2h-1zm-2-3-1-1v-1l3 1 2 2h-1l1 1 1 1v2h-4v-1q1 0 0 0zm8-1v1zh-1v1l1 2 1-1v1l1 1h-1l-1-1v1l1 1 1 1h1v-1 1q0 1 0 0h-4v-2l-1-3-1-1h4m1 2-1-1v-1h1l2 1 2 2-1 1 2 2q0 1 0 0l1 1h-1l-1-1-1-2h-1l1 2v1h-1l-1-1q1 0 0 0zm1 1h1l1-1-1-1h-1zm8 3h1-3l1-1v-1l-2-3v-1l-1 1h-1v-1h5v1l1 1h-1l-1-1h-1 1zm4 0q-1 0 0 0v2h-1l-1-1h1zv-5l1 1 3 5 1 1q1 0 0 0h-2v-1l-1-1zm1-1-2-2h1v2zm3-1-1-2h1l3 1 3 4-1 2h-3l-1-1v-1zm2 3h1v-3l-2-2h-1zm-22 10 1 1 1 1h-2l-1-1q-1 0 0 0zl-1-4h-1v-1h2zm1-5 2 1 1-1v1l-1 1-1-1v2h1l3 2v2h-2l-1-1v-1 1l1 1 1-1-1-2-1-1h-1zm7 3-1-2h2l2 1 3 4-1 2h-2l-2-1v-1zm2 3h1l1-1-1-2-2-2h-1zm7-4 1 1zh-1v1l1 2h1v-1 1l1 1h-1l-1-1 1 2 1 1h1v-1l1 1h-5l1-1-1-1-1-3-1-1h4m-29 12 1 1 2 1 1 2-1 1h-2q0-1 0 0l-1-1v-1q0-1 0 0l2 1h1l-1-2-2-1-1-2 1-1 1 1h1l1 1h-1l-1-1zm7-1q0 1 0 0h-1v1l1 2v-1l1 1v1l-1-1v2l1 1 1-1h1v1h-4v-2l-1-3-1-1h4m3 5 1 1v1l-2-1v-1l-1-4-1-1h3l1 2v1l-1 1zm-1-2h1l1-1-1-1h-1zm7 3h-2l-1-1h1l-1-1v-4h-2v1l-1-1 1-1 4 1h1v1h-1l-1-1v1zm2-4h2q1 0 0 0zv2l1 2 1 1h-3l1-1v-1zm6-1v1l1 1h-1l-1-1h-1v1l1 1v-1l1 1v2-1h-1v2h2v-1l1 1v1h-4v-1q-1 0 0 0v-1l-1-3-1-1v-1zm2 2q0-1 0 0h2v1l3 4v-5h1l1 1h-1l1 5h1v1h-2v-2l-1-3v4h-1zl1 3v1q1 0 0 0h-1q-2-1 0 0v-1zm9 2h1v-1l-2-1v1zm0 2 1 1 1 1v-1l-1-2h-1zm-1-3-1-1-1-1h1l3 1 1 2-1 1h1l1 1v2h-4v-1q2 0 0 0zm5 1-1-1-1-1h3l2 2v2h-1l2 1v1h1v1h-1l-1-1-1-2h-1l1 2h1v1l-2-1h-1 1l-1-1zm1 1v-2h-1q-1 0 0 0zm7-2 1 1zl-2-1v1l1 2 1-1v2q0 1 0 0l-1-1v2l1 1h1v-1h1v2l-4-1q-1 0 0 0v-1l-1-4v-1h-1 4m-34 11v-1l-1-1h4l2 4v2l-2 1-2-1q-1 1 0 0v-2zm2 3 1-1v-2l-2-2h-1zm7-4v1h-1zh-2v1l1 1h1l1 2h-1l-1-1v2h2l1-1v2h-4v-1l-1-4v-1h-1zm7 5 1 1v1h-3v-1h1v-1l-1-3v-1h-1 1l1-1v1zm4-3-1 1 1 1h1zm1 4-1-2h-1v1l1 2zm1 0h-2l-1-2v-1q1 0 0 0l-1-2 1-1 3 1v1l-1 1 1 1zm3 1h1zl-2-1h-1v-1l1-1 1-1v-2h-1l-1 1h1v1l-1-1v-2h2l1 2v1l-2 2v1h2m4 1h-3v-1h1v-1l-1-3-1-1h2z"/><path fill="url(#j)" d="m496 409-4 5q-1 8 8 15c5 4 13 6 16 4l-14-17z"/><path fill="#4c0505" d="m496 409 6 7 15 17h-8q-6-1-9-4-10-7-8-16zm0 0-4 5q-2 8 8 15 3 3 9 4h7l-14-17z"/><path fill="#448127" d="m524 565-2-4q-13 18-33 27c15-2 25-13 35-23"/><path fill="#34541f" d="m524 565-15 15q-10 6-20 8 18-7 33-27zm0-1-2-2a87 87 0 0 1-32 26q9-1 18-9 6-4 16-15"/><path fill="#448127" d="m508 602 19-33-2-4c-8 13-16 28-17 37"/><path fill="#34541f" d="M508 602q0-9 17-37l2 4zm0 0 19-33-2-3q-16 25-17 36"/><path fill="#448127" d="m551 480-4-15-12-21q-14-19-33-35v-1h1-1 1-1 1v-3h1-1l1-1h-1 1l-1-1v-1h-1 1-1v-1h-1v-1 1-1h-1v-1l-1 1v-1 1l-1-1v1-1 1l-1-1v1-1 1-1l-1 1v-1 1-1 1l-1-1v1-1 1h-1v1-1 1h-1l1 1h-1 1l-1 4 1 1q-3 4-3 8l4-3v8l1-2v3l1-2 1 4 2-2-1 3 2-2 1 5 1-3v5l2-2v5l2-3v4h3l-1 3 3-2-1 4 3-2-2 3q4 0 5-3l2 6q-1-3 1-4l3 7v-5l2 5 1-4 1 6 2-3c20 26 24 56 2 84 8-5 10-14 15-21-5 10-7 21-14 29q9-9 13-18-7 20-20 40l5 6 4-7c9-16 25-38 17-77"/><path fill="#34541f" d="M551 480a92 92 0 0 1-15 75l-2 2-4 8-5-7q11-16 20-40l-4 6-9 12v-1q5-4 10-19v-2q-5 11-11 14 16-20 15-43-2-20-17-41l-2 3v1-1l-1-6-1 4-1-2-1-3 1 5v1l-1-1-3-7-1 1v3l-2-5-5 2 1-3-2 2v1-1l1-3v-1l-3 2 1-2v-1h-4l1-2v-2l-2 3v-5 1l-2 1v-5l-1 3h-1v-5l-2 2v1-3l-1 1-1-3-1 1v-2l-1 1-1-4 1-4-4 3v1-1l3-7v-2h-1v-5h1-1 1v-1 1-2l1 1v-1 1-1h1v-1 1l1-1v1-1 1-1l1 1v-1 1h1v1l1-1v1-1 1h1v1l1-1v2h1-1 1v1h1-1l1 1h-1 1l-1 1h1-1l1 1h-1 1-1l1 1h-1v2l-1-1 1 1h-1q14 11 33 35l12 21zm-49-71h1l-1-1h1-1 1-1 1v-4h-1l1-1h-1v-1l-1 1 1-1h-1v-1l-1 1v-1 1-1h-1v-1 1l-1-1v1-1 1l-1-1v1-1 1-1l-1 1v-1 1-1 1h-2l1 1-1-1v2l-1 4h1v2l-3 7 4-3h1l-1 4v3l1-1v3l1-2 1 4 2-2v1l-1 2 2-2 1 5 1-3v-1 6l2-2v-1 5l2-2 1 2-1 2h3v3l2-2v1l-1 3q1-2 3-2l-1 3 3-2 1-1 1 5 1-2 1-1 3 7v-6 1l1 3 1 2 1-4 1 6 1-3h1q15 20 17 41 1 23-14 42 5-3 10-14l3-6h1l-4 9-9 18q5-4 8-11l4-5q-8 23-20 40l5 6 4-7 1-2 15-30q6-21 1-45l-4-15-13-21q-18-24-32-35"/><path fill="#eac102" d="m493 404-2 1 2 1 1-1z"/><path fill="#a08307" d="M493 404v2h-1l-2-1zm0 0-2 1 2 1h1v-1zm-2 1h2z"/><path d="m498 405-1-1 1-1zm0 0-1-1 1-1zm0 0-1 1z"/><path fill="#34541f" d="M508 602a105 105 0 0 1 13-27l2-4 3-4-3 4-2 4zm-19-14 10-4a65 65 0 0 0 20-17l-11 11zm38-27 3-3 2-4 4-7 4-7 3-7-1 4-2 3-4 7zm6-27 9-14 5-16 1-2v-2 2l-1 2a80 80 0 0 1-9 24zm-1-7 5-5 7-15 1-3v-1l1-1v-2a54 54 0 0 0-1-26l2 9v17h-1v3l-1 1-1 3-7 15zm-6 32 3-5 2-2 2-3 3-6 3-5 8-25 2-27v14l-5 26-5 12-3 5-3 6-2 3-2 2zm3 4 7-12 11-26 3-10v-34l1 15-1 15v4a86 86 0 0 1-14 36zm-29-152 1 1 5 2 9 9-9-9-3-2z"/><path fill="#448127" d="m517 426 5 6q-2 0-9-7z"/><path fill="#34541f" d="m517 426 4 4 1 2-9-7 6 5 3 2-3-3z"/><path fill="#448127" d="m510 424 8 7q1-1-5-7z"/><path fill="#34541f" d="m510 424 4 3 2 2 1 1 1 1-3-5-2-2 3 3 2 4h1-1l-2-2-2-2z"/><path fill="#448127" d="m513 422 5 5-9-6z"/><path fill="#34541f" d="m513 422 3 2 1 2 1 1v1l-1-1-2-1 3 1h-1v-1l-3-3z"/><path fill="#448127" d="m507 424 9 7-6-6z"/><path fill="#34541f" d="m507 424 2 2 2 2 4 2 1 1-4-5-2-1 5 4 1 2-2-1h-1l-2-2-2-2z"/><path fill="#448127" d="m507 426 5 4-5-6z"/><path fill="#34541f" d="m507 426 4 3 1 1-5-6 4 4 2 2h-1l-1-1z"/><path fill="#448127" d="M505 418s7 7 8 10l-8-6z"/><path fill="#34541f" d="m505 418 8 9 1 1h-1l-2-1 2 1v-1l-1-2-5-5z"/><path fill="#406325" d="M464 573c-5 3-18 3-21 3q18-10 21-3"/><path fill="#24420e" d="M464 573q-3 3-11 3h-10v-1q7-5 14-5t7 3m0 0q0-3-7-3-6 0-14 6h10q8 0 11-3"/><path fill="#406325" d="M536 589c5 6 21 12 24 12-11-14-23-16-24-12"/><path fill="#24420e" d="M536 589q1-4 8-1 9 4 16 13l-11-3q-10-4-13-9m0 0q3 5 13 9l11 3-16-13q-7-2-8 1"/><path fill="#67923d" d="M464 573q-3-7-21 2 18-3 21-2"/><path fill="#24420e" d="M464 573q-2-1-21 3v-1q7-5 14-5t7 3m0 0q-1-3-7-3-7 0-13 5 18-3 20-2"/><path fill="#67923d" d="M536 589c2-4 13-2 24 12z"/><path fill="#24420e" d="M536 589q1-4 8-1 9 3 16 13zm0 0q3 0 23 12-7-9-15-13-7-3-8 1"/></svg>