<svg xmlns="http://www.w3.org/2000/svg" image-rendering="optimizeQuality" shape-rendering="geometricPrecision" text-rendering="geometricPrecision" viewBox="0 0 1000 1000"><path fill="#c62139" d="M8 195c328-163 653 102 984-62v672c-169 84-338 55-508 28-157-24-316-46-476 34z"/><path fill="#00297b" d="M32 215c311-136 620 97 936-40v611c-160 69-319 42-480 17-151-23-302-45-456 22z"/><path fill="#92dbfc" d="M500 339c0 1 77 79 77 171 0 94-77 151-77 151 0-1-77-87-77-174 0-86 77-148 77-148"/><path fill="#008ce7" d="M569 562c-20 62-69 99-69 99s-48-55-68-120z"/><path fill="#9c8431" d="m574 544-2 13-1 6-85-14 4-12c1 0 71 16 84 7"/><path fill="#ffde52" d="M472 623q4-3 9-4l6-1q4-2 9-1 13 2 25 0c11-2 6-12-1-17-6-3-16-2-22-6-5-4-1-6 1-7l7 2 2 1q10 2 18 1c11 0 11-4 16-3l9-3 2-2q4-4 7-4h3c-23 52-63 82-63 82s-13-15-28-38m-26-45q6 1 11 5 8 6 15 6c7 2 12 8 19 10 13 2 18 11 8 9l-8-2-12-4q-9-1-17 5z"/><path fill="#8c4200" d="M523 591q-3-12-9-23-10-16-15-37c-4-19-4-53-3-80v-20l-1-1v-2q3-6 6-5v2l1 2v3l-1 1v5c0 28-1 75 4 94 4 17 14 37 21 47l15 15c4 8-3 13-9 11q-7-3-9-12"/><path fill="#fff" d="m462 506-4-3q-3-3-4-9v-4l2-7 2-1 6-2 3 1 4 4 1 4v1h-3l-1-1v-1l-2-2-3-1-3 1q-2 1-2 7t5 8l2 1 3-1 1-1v-2l-3-1h-2l-1-1v-4h1l4 1h4v1h1v4l-1 6q-3 3-7 3zm22 4-5-3-2-7v-17h3l1 1v8l1 11 2 2h3l2-3v-17h2l2 1v17l-3 6-1 1zm19 2 7-23h2l2 1 4 13 3 13h-3l-2-4v-4h-4l-3-1-1 3-1 4h-2zm11-10-2-6q0-1 0 0l-2 6zm15 14v-25h2l2 1h1l2 9 2 9 3-8 2-9h2l2 1h1v12l-1 13h-3v-15 1l-2 7-2 6h-1l-2-1h-1l-2-7-1-8v7l-1 8h-1z" clip-rule="evenodd"/><path fill="#bd0728" d="M462 505q-4-1-6-5l-2-10 2-7q4-4 10-1l4 6v1l-2 1v-1l-1-3q-2-2-6-2l-3 1-2 7 1 6q3 5 8 5l3-2v-4l-2-1h-3v-3l4 1h4v9h-1l-5 3zm22 4-5-3-1-5v-17h2v18l3 4h4q2 0 2-3l1-9v-8h2v15q0 6-3 7l-2 1zm20 2 3-11 4-11h2l4 13 4 12h-3v-1l-1-4-1-3h-4l-4-1-1 3-1 4zm11-7-1-5-1-5-1-2v1l-2 6-1 4h3zm14 0v-12h2l2 1 3 9 2 11 1-2 3-10 2-7h1l2 1v23h-2v-20l-3 9-3 9v1h-2l-3-11-2-10v20h-1l-2-1z" clip-rule="evenodd"/><path fill="#109421" d="m449 415-5 3c0-2 10-14 23-15q16 3 22 7l2 1q1 1 0 0l-4-5h1l2-1-5-2 2-2-5-4h2l-3-3 1-1-4-2 1-2-4-3h1l1-1-2-3-1-1q8 2 13 9l10 15q2 0 1-2l-2-3-1-2h1l1-1-2-2-2-4h1l2-1-2-2-3-3 1-1 2-1-4-5 1-1 1-1q-3-2-4-5h3l-5-6h2l-1-3v-2l1 2q1 4 4 1v3l1 3 2-3 1 8h1l1-1 1 7h1l1-1v9h1l1-1v8l1-1h1l-1 6v1q0 5 1 2c4-11 20-19 27-14l-4 2 2 1-5 1 3 4-2-1h-4l2 1 1 2-3-1q-3-1-5 1l2 2v1h-4l1 2 1 1-8 4h7q9-1 13 1 11 4 14 11l-5-3v3l-3-4v2l-4-3v3l-3-3v3l-4-4v3l-4-3v4q-3-2-4 0l-5 2q15 3 26 17c4 6 3 17 3 18l-1-3-1-3v1h-1l-2-5-1 1h-1l-1-5v1l-1 1-2-6v2l-1 1-1-5-1 2-1 1-2-5v1q0 2-1 1l-1-3-1-2v4l-2-4-2-3v4l-3-2-2-3v3l-1-1-3-2 2 4 1 1-2 1 5 5h-1q-2 0-1 1l4 5h-2l1 2 2 3h-2l2 4h-2l3 7h-2v9q1-1-1-6l-2-1v-5h-1l-1 1v-7h-1l-1 1v-6l-1-1h-1l1-4h-2v-3h-1l-1-1v-5h-2v-3q-3-3-5 0l-1 4-1-1-1-1v5l-1-1-1-1v8l-2-3v5l-1-1v-1 6l-1-1q0-1 0 0v4h-1v7h-1l-1-2-2 10-1-8-3-1 1-3q2-1 1-3l-1-1 3-6-2-1 1-1 3-4-2-1 2-1 1-3-1-1 4-5v-3l-1 2-3 2-1-3v-2l-4 6-1-3-3 6-1-2v-1l-4 6v-2l-1-1-2 5v-1l-1-1-2 6-1-2v-1l-4 4 2-6q6-15 21-19v-1h-7v-3l-2 1-3 1-1-3-2 1-3 3v-1q0-3-1-2l-4 5 1-5-5 5-1-3-1 1-4 3zm31 28"/><path fill="#8c4200" d="M499 422q1 3-1 5-2 1-4-2-1-3 1-5 2-1 4 2m0 3q1-3 4-1 2 3 1 6-2 3-5 1zm-4 3q2-4 4-1 3 3 1 6t-5 1z"/><path d="m472 562 4 1v4l-4-1z"/><path fill="#8c4200" d="M451 561s27 7 44 5l-1 4q-4 4-10 3v3l2 1h1s0 3-11 2c-3 0-14-1-17-6l3 1v-4q-3 1-11-6l-1-3zm14 10 1 3c5 2 14 3 15 2v-3z"/><path fill="#fdf9ff" d="M454 560c1 0 10-12 8-41 0 0 10 5 21 26l7 20z"/><path fill="#c62139" d="M500 319c1 1 86 89 87 193-1 104-87 169-87 169 0-1-86-98-87-195 1-98 87-166 87-167m0 20s-77 62-77 148c0 87 77 173 77 174 0 0 77-57 77-151 0-92-77-170-77-171"/></svg>