<svg xmlns="http://www.w3.org/2000/svg" image-rendering="optimizeQuality" shape-rendering="geometricPrecision" text-rendering="geometricPrecision" viewBox="0 0 1000 1000"><path fill="#c62139" d="M8 195.3c327.5-163.4 652.8 101.9 984-62v672c-169.2 83.7-337.7 54.4-508.3 28.2C327 809.3 168.2 787.3 8 867.3z"/><path fill="#00297b" d="M32 214.7C343 79.1 652 312 968 175.2v610.5c-160 69.2-319.3 42.5-480.4 17.6-150.2-23.2-302-45-455.5 21.9z"/><path fill="#92dbfc" d="M500.2 339.3c.3.3 76.5 78.7 77 171.2-.5 93-76.7 150-77 150.2-.2-.2-77-87-77.3-173.3.4-86.8 77.1-148 77.3-148.1"/><path fill="#008ce7" d="M569 562.2a218 218 0 0 1-68.8 98.5s-47.9-54.3-68.4-119.4z"/><path fill="#9c8431" d="m574 543.8-1.6 13.4-1.5 5.4-85-13.1 4-12.3c.7.1 70.7 16.1 84 6.6"/><path fill="#ffde52" d="M472 623c3.3-2.4 5.4-4 8.6-3.8 2.9.2 4.7-.5 6.8-1.3 2.4-1 4.5-1.8 8.3-1.4 8 3 18.5 1.7 25 1v-.1c11.2-2 6-12-.8-17-5.7-3.6-15.7-2.8-22.2-6.6-4.5-3.5-1-6 1.8-6.7q2.9 0 6.4 1.6l2.3.9c5.8 1.5 13 2 18.2 1.7 10.6-.6 10.1-4.2 15.2-3.7a13 13 0 0 0 9.1-2.6q1.4-1 2.8-2.4c2.3-2.2 4.3-4 7-3.7l2 .4a221 221 0 0 1-62.3 81.4S487.4 646.1 472 623m-25.6-45q5.4 1 10.4 4.9c5.9 4.7 9 5.2 15.3 6.3 6.5 1.4 11.7 7.7 18.7 9.3 13 2.8 18.5 11.1 8.3 10q-3.2-.8-8.2-2.9a42 42 0 0 0-11.7-3.4c-7.6-.2-11.7 0-17.3 4.6a372 372 0 0 1-15.5-28.8"/><path fill="#8c4200" d="M523.3 590.7c-1.6-7.7-6.2-15.4-9.5-22.5-5.5-11-11.4-22.8-14.8-37.5-4-18.5-3.8-53-3.5-79.5l.1-20.2-.3-1q-.7-1.5-.6-2.4c1.7-3.2 5.6-5.9 6.2-4.2q0 .8.4 1.7l.4 1.4c.3 3.2.2 3.3 0 3.5l-.2.2c0 .1-.6.3-.6.6v5.7c-.4 28-.7 74.8 3.8 93a167 167 0 0 0 21 47.3c4.6 6.2 9.7 8.7 14.8 15.6 4.9 7.8-2.9 12.7-8.8 10.5-5.6-2.8-7-5-8.4-12.2"/><path fill="#fff" d="m462 506.2-.6-.1q-2.7-1-4.9-3.2-2.8-3.3-3.6-8.8v-4.5a16 16 0 0 1 2.3-6.6q.6-.9 1.4-1.5a8 8 0 0 1 6-1.5q2 .2 3.7 1.2 2.2 1.4 3.5 3.6a20 20 0 0 1 1.5 4.3q0 .9-.5 1l-1.3.4c-1.3.2-1.4.2-1.7-.1q-.3-.3-.4-1t-.4-1.3a5 5 0 0 0-1.6-2.3q-1.5-1-3.5-1.1-1.6 0-2.7.9-2.2 2-2.2 7.1c.3 4.8 1.5 7 4.7 8.6.6.2 1.9.4 2.5.3a6 6 0 0 0 3-1l.3-.2v-2.9l-2.4-.4-2.4-.4-.2-.1-.3-.4v-3.8l.3-.3.2-.1 4.2.6 4.1.7.2.1.3.4v4.7c0 4.7 0 4.9-.2 5.2l-.6.6q-3 2.2-6.2 2.3zm22 3.6a9 9 0 0 1-5.1-3.3 13 13 0 0 1-2-6.6l-.1-8.7a73 73 0 0 1 .3-8.2l.2-.2 1.4.2c1.4.2 1.5.2 1.7.4l.3.4.1.2v8l.1 8.6c.2 1.5.4 2 1 2.8q.8 1.3 2.6 1.6 1.7.3 2.7-.1c.9-.5 1.2-1.1 1.5-3l.2-8.6c0-8.8 0-8.2.4-8.4l.1-.2 1.5.3c1.7.2 1.6.2 2 .7v7.4l-.1 10c-.4 2.9-1 4.4-2.5 5.7l-1.2.7q-1 .6-2.5.6zm19.6 2.7-.3-.4q-.3-.4-.2-1l7.3-22.8c.2-.3.3-.3 2 0s1.6.2 1.9.7l3.9 12.6 3.8 12.8q0 .4-.4.7c-.1.1-.1.1-1.8-.1l-1.7-.3-.2-.2c-.2-.2-.2-.2-1.3-4l-.9-3.2-3.3-.6c-3.1-.5-3.3-.5-3.3-.4l-1 3-1.2 3.5H505zm10.7-10.2-2-6.7-1.9 6.2 2 .4 2 .3zm15 14.2-.5-.8v-24.2l.1-.2c.3-.4.3-.4 2.5 0l2.2.4.3.4 2.4 9.1 2.2 9 2.4-8.2 2.4-8.4c.3-.5.2-.5 2.3-.1 1.8.2 1.9.2 2 .4q.2 0 .3.4l.2.2v12a187 187 0 0 1-.4 12.7l-.2.1-1.4-.2c-1.5-.2-1.5-.2-1.6-.4l-.3-.4-.1-.2v-13.8l-.3.8-2 6.7a36 36 0 0 1-1.8 6q0 .3-.3.3l-2.8-.5-.3-.4-2-7.5-1.8-7.3-.1 7c0 7.7 0 7.2-.4 7.4l-.1.1-1.4-.1z" clip-rule="evenodd"/><path fill="#bd0728" d="M461.8 505.2q-3.7-1.5-6-4.7a18 18 0 0 1-2-10.4q.4-4.1 2.3-6.7c2.4-2.6 6-3.1 9.9-1.2 2.2 1.3 3.4 3 4.3 6.2l.1.8-2 .4-.3-.6a9 9 0 0 0-1.4-3.2 7 7 0 0 0-5.2-2.2 5 5 0 0 0-3.5 1.8 11 11 0 0 0-1.8 6.3q0 4 1.2 6.8 2.8 4.7 7.9 4 1.5-.3 2.8-1.2l.3-.3v-4.4l-2.7-.4-2.8-.4V493l4 .6 3.9.6v8.7l-.5.3q-2.6 2-5.4 2.3c-.7 0-2.3-.2-3-.4m21.6 3.6a8 8 0 0 1-4.1-2.8q-1.3-1.8-1.7-4.8c-.2-1.4-.2-2.2-.2-9.8V484l1.2.2 1.2.1v8c0 8.5 0 8.3.3 9.6q.5 2.7 2.6 3.8 1.8.8 3.8.6c1.5-.4 2.2-1 2.7-3 .3-1.4.3-1.3.3-9.7v-7.7l1.2.2 1.2.1v15.4c-.3 3.7-1 5.3-2.7 6.7q-1 .6-2.7.8zm20.2 2.4 3.6-11.1 3.4-10.9 1.3.2 1.3.2 3.7 12.2 3.8 12.4-1.3-.1-1.4-.2-.2-.9-1-3.7-.9-2.9-4-.6-3.8-.6-1 3.4-1 3.4-1.3-.2-1.3-.2zm11.5-7.6-1.2-4.2-1.6-5.8-.4-1.7-.2.8c-.3 1.6-.6 2.7-1.8 6.3l-1 3.7 3 .6c3 .5 3.2.5 3.2.4m14.1 0V492l1.8.3 1.8.3 2.5 9.8 2.6 10.4.2.8.7-2.4 2.7-9.7 2-7.2 1.7.2 1.6.2v23.5l-1.2-.1-1.1-.2V498l-2.5 8.7-2.7 9.4-.2.7-1.1-.1-1.1-.2-2.7-10.3-2.6-10.5v9.9l-.1 10h-1.2l-1.1-.3z" clip-rule="evenodd"/><path fill="#109421" d="M449.2 415.3c-.9-.5-4.8 2.4-5.2 2.6a30 30 0 0 1 22.9-14.6c11.6.5 18 4.4 22.3 7.2l1.4.8c1 .3.7-.7.7-.8-.9-2.1-3.3-3-4.4-4.4l.8-.3 1.9-.5c-.1 0-3.7-1.8-4.2-2.3l1.5-1.6a35 35 0 0 1-5-4l2.2-.5s-2.2-1.3-3.4-2.6c0-.2 1.4-1.2 1.5-1.2-2.3-1.3-3.5-1.7-3.8-2.3l.9-1.7s-2.8-2-3.9-3.2l.5-.2q.9 0 1-.4c-.1-.6-1-1.8-1.8-3q-1.3-1.5-1-1.8a25 25 0 0 1 13 9.7c1.8 2.7 8.6 12.6 10.1 14.5q1.6 1.3.9-1.5-.5-1.5-1.8-3c-1.3-1.4-1.2-1.5-1.2-2.1q.1-.4 1-.3t1-.3q-.2-.7-1.7-2.4c-1.5-1.7-2.8-3.2-2.2-3.9q.5-.2 1.3-.1 1.2.2 1.3-.7c0-.5-1-1.6-2.2-2.8a11 11 0 0 1-2.3-3q.1-.5 1-.8 1.1-.2 1.2-.9c-.3-1.2-3.3-4.2-3.6-5.4q.1-.5.8-.7t.8-.7c-.4-1.4-3.5-3.4-3.9-4.6.3 0 2.9.6 3-.3-.3-1-4.1-5-4.5-6 .2 0 2.1.3 2.3-.3q-.1-1-1-2.6-1.1-1.8-.8-2.4.5 0 1.5 1.7c1.2 2 2.4 4 3.6 1.5l.6 2.9.6 2.7c1.6-2 2-2.8 2.2-2.8.1.2-.1 2.7 1 8.6q.2.2.8-.7.8-1.2 1.1-1c.2 1 .2 6 .7 7.5.4.6.9 0 1.5-.8.4-.6.8-1.1 1-.5q.1 2.6-.1 5a15 15 0 0 0 0 4.4q.3.5 1.2-.7.7-1.1 1-.7.2 2.2-.1 4.2-.3 1.8-.1 3.5.1.3.7-.4.8-1 .8-.5.1 3-.2 5.7v1.2c-.2 2.4-.3 5.2.7 2.7 3.9-11 20.2-19 27.3-14.4-.4.1-4.7.8-4.2 1.6l2 1.6-4.8 1.1 2.8 3.2q-.4.4-2.6-.3c-1.6-.5-2.9-1-3.2-.4l1.1 1.4 1.3 1.6q-.4.2-2.4-.3c-2.1-.5-4.2-1-5 .2q-.1.8 1.1 2t1 1.6H515q-.3.2 1 1.2c.9.9 1.7 1.6 1.3 2-1.4.4-5.6.5-8.7 3.4-.4.8 2.4.6 7 0 5.3-.7 11.3.5 13 1 8.4 2.5 12.8 7 14.3 11.3 0 0-2.5-2-4.7-3.1-.2.1.1 2.2.1 2.4-.8-.6-2-3-3.1-3.7-.4 0-.6 2.4-.6 2.6-.6-1.7-3.2-3.3-3.3-3.4v1.3c0 1 0 2-.2 1.7-.8-1.7-2.2-3.2-3.2-3.2 0 .2.7 3 .4 2.9-1.3-1.6-3-2.4-4.7-3.9q-.3.1.2 1.6.4 1.6.2 1.6l-.3-.3q-1.8-1.8-3.7-2.4v.7l-.1 2.6c-1.7-.7-3.5-1.1-4 .6-.5.9-4.3 1.4-4.6 1.4 9 1.7 19.5 8 25.7 17.4a39 39 0 0 1 3 18q-.3-.4-.9-2.9c-.3-1.4-.6-2.8-.8-3q-.4-.1-.7.7c-.4.5-.6 1-1 .6-.3-.4-1.4-4.7-1.6-5.2q-.4-.2-.7.7c-.4.8-.6 1.4-1.2.5-.3-1-.4-4.4-.7-5q-.4-.1-1 .8-.4 1.3-.9.7c-.3-.8-.9-5-1.2-5.5q-.4-.1-.6 1.2t-.6 1c-.8-1.3-.8-3.4-1.5-4.3-.4-.3-.5.5-.7 1.5q-.2 1.7-.7 1.3c-.8-1.4-1.2-4-1.8-5.3-.2-.4-.3.2-.4.9-.2 1-.3 1.9-.7 1.4q-.5-1-1-2.8-.6-2.2-1-2.5c-.4.4-.7 3.6-.8 3.7q-.7-.5-1.6-3.2-.9-2.9-1.7-3.2c-.3.3-.8 3.8-.8 4-.4 0-1.2-1.1-2-2.5-1.2-1.6-2-3-2.6-2.6l-.1 2.7-1.2-.8q-1.2-1-2.2-1.5c-1.7-.3.1 1.6 1.6 3.3q.9 1.1 1 1.5c-.1 0-2 .7-1.9 1.1 1.7 1.8 4.3 2.9 5 4.3l-.6.2c-1 .3-2.3.7-2 1.5 1.4 1.9 3.7 3 4.6 4.4-.2 0-2.4-.3-2.2.4q.7 1.1 1.6 2 1.3 1.1 1.5 2.5h-.6c-.8.1-1.6.2-1.5.6.9 1.6 1.7 2.2 2.4 3.9-.2 0-1.9-.5-2 .4.9 4.3 2.6 6 2.7 6q-.1.4-.8.3-.8 0-1 .2c.6 4.3.6 8.4.3 9 0-.1.2-3.4-1.5-6-.3-.2-2.3-.5-2.4-.5V457q-.1-.3-.8.4-.5.6-.6.4v-3.3l-.2-4-1.1.8-1 .6c.3-2.7.2-4.3 0-6.3l-1.2-.2-.9-.1q1-2.2.8-4.2l-.7-.1h-.7c0-.1.4-.2.2-2.9q-.1-.2-1-.3t-1.2-.3c0-2.8.2-5.3.2-5.3-.2.1-2-.3-2.2-.4v-.6a6 6 0 0 0 0-2.2c-1-1.6-4.4-2-5.6 0-.2.8-.3 2.8-1 3.7l-.1-.3c-.6-.6-1.4-1.5-1.7-1.3-.1.2 0 1.4.2 2.6.1 1.3.3 2.6.2 2.8q-.3 0-1-1-.6-1.3-1-1.2c-.1.6-.3 6.6-.5 7.2l-1.4-2.1c-.4 1-.3 4.8-.3 4.8l-.6-1.4q-.6-1.7-.8-1.2c-.2 1.5.6 6.5.6 6.6q-.3.3-.7-.8-.5-1-.6-.5l-.2 3.6v.6q0 .3-.4 0-.4-.6-.6-.2c-.1 2.3 0 7.4.1 7.4l-.4-.7c-.6-1-1.1-2.2-1.5-1.4-.6 2-1.6 7.9-1.8 9.5a70 70 0 0 0-1.2-8l-2.6-.6q-.2-.8 1-3 1.2-2.1 1.2-3.1c-.3-.5-1.3-.7-1.7-.6a41 41 0 0 0 2.7-6.4c-.1-.5-1.2-.9-1.6-.9l1.1-1.5c1-1.4 2.4-3.2 2.8-3.5.6-.6-1.5-.8-1.7-.8q.1-.4 1.4-1.5c1.5-1.2 2.9-2.3 1.9-3q-.4-.3-.8-.2l-1-.2 4.4-5.8q.7-1.7.1-2.2l-1.5 1.2q-2.1 2-3 2.2l-.3-2.7c0-1.3 0-2.3-.3-2.1-.8 1.4-2.7 4.4-4.3 6.3 0-.3 0-3.3-.8-3.1-1.2 1-3.3 5.8-3.4 6q-.3-.1-.4-1.8t-.4-1.7c-.5.4-2.1 4.3-3.5 6q-.3 0-.5-1.5-.1-1.3-.3-1.3a19 19 0 0 0-2.2 4.9q-.3 0-.6-1.1t-.5-1a50 50 0 0 0-2.4 5.9q-.3-.1-.4-1.5l-.3-1.4c-2 .8-3.5 4.5-3.6 4.8q-.6-1.7 1.5-7a35 35 0 0 1 20.7-19q.8-.3 0-.8-2.4-.4-4.9.1l-1.7.3-.3-3.2q-.1-.2-2 1-2.3 1.4-2.6 1.3c0-1-.2-3.4-.9-3.6l-2.3 1.7-3.2 2.4v-1q.1-2.3-.4-1.9l-3.8 4.7s.2-3.2 0-4c-.5 0-4.7 4.1-5 4.4l-.1-3.3-1.7 1.4-3.2 2.6s0-2.6-.3-3.3m32.8 50.8v-.4zm-2.1-23"/><path fill="#8c4200" d="M498.9 422q1.2 3.2-.8 5-2.2 1-3.9-1.9-1.2-3.2.8-5 2.2-1 3.9 2"/><path fill="#8c4200" d="M498.5 425q1.9-2.7 4.5-.7a5 5 0 0 1 .8 6q-1.9 2.7-4.5.6a5 5 0 0 1-.8-5.8"/><path fill="#8c4200" d="M494.6 427.6q2-3 4.7-.7a6 6 0 0 1 1 6.3q-2 3-4.8.7a6 6 0 0 1-1-6.3"/><path d="m471.5 562 4.2.6v4l-4.2-.7z"/><path fill="#8c4200" d="M450.7 561.3s27.3 6.6 44.1 4.8c.2.1 1.3 1.3-.6 4.2-2.3 2.5-6.9 2.5-10 2.7 0 0-.5 1.8-.6 2.8.3 1 1.7 1.2 2.7 1.1h.8c0 .2-.4 3.4-10.8 2.6-3.7-.4-14-1.9-17-6.4 0 0 2 .5 2.6.4.5-.4.2-2.7 0-3.3-.4-.3-7-1.4-11-6a9 9 0 0 1-1.4-3.3zm14.2 9.5q-.4 2.4.6 3.2a44 44 0 0 0 15.4 2c.3-.7.2-2.7.2-2.8-8.7-.2-16.1-2.4-16.2-2.4"/><path fill="#fdf9ff" d="M454.5 560.2c.1-.1 9.9-12 7-41.3.2 0 10.4 5 21.4 26.5 0 0 3 4.5 6.9 19.4z"/><path fill="#c62139" d="M500.3 319.4c.2.2 86 88.4 86.4 192.2-.4 104.7-86.2 169-86.4 169-.3-.2-86.6-97.7-87-194.6.4-97.7 86.8-166.5 87-166.6m0 19.9c-.3.2-77 61.3-77.4 148.1.4 86.3 77.1 173 77.3 173.3.3-.1 76.5-57.2 77-150.2-.5-92.5-76.7-171-77-171.2"/><path fill="#1a1a1a" d="M8 195.3c327.5-163.4 652.8 101.9 984-62v672c-169.2 83.7-337.7 54.4-508.3 28.2C327 809.3 168.2 787.3 8 867.3zm31.3 19.3v604.5c305.9-128 610.3 95.7 921.5-33.4V181.2C654 308.6 349.3 85 39.3 214.6" opacity=".2"/></svg>