<svg xmlns="http://www.w3.org/2000/svg" viewBox="0 0 1000 1000"><path fill="#171796" d="M8 195.3c170.8-85.3 341-54.5 513.3-28C676.5 191 833.4 211.8 992 132.7v672c-170.8 85.3-341 54.5-513.3 28C323.5 809 166.6 788.1 8 867.2z"/><path fill="#fff" d="M8 195.3c170.8-85.3 341-54.5 513.3-28C676.5 191 833.4 211.8 992 132.7v448c-170.8 85.3-341 54.5-513.3 28C323.5 585 166.6 564.1 8 643.2z"/><path fill="red" d="M8 195.3c170.8-85.3 341-54.5 513.3-28C676.5 191 833.4 211.8 992 132.7v224c-170.8 85.3-341 54.5-513.3 28C323.5 361 166.6 340.1 8 419.3z"/><path fill="red" d="M500 673.8c52.8 7.9 95.4-44.3 95.7-116.6V402c-63.2-8.2-126.3-19.6-191.3-28v155.2c.2 71.9 42.9 136.1 95.6 144.6"/><path fill="#fff" d="M500 671.7c51.8 7.7 93.6-43.4 93.8-114.3V404.3C532 396 470 385 406.2 376.7v153.1c.2 70.5 42 133.6 93.8 142"/><path fill="red" d="m445.8 387-36-5v54l36 5.1zm0 108.4 36.1 5.4v-54.1l-36-5.5zm-36 34.6q0 7.4.5 14.6l35.5 5v-54.2l-36-5zM518 506.4l-36-5.6V555l36 5.6zm0 108.4 36.1 5.4v-54.1l-36-5.5zm36.1 35c8-7 15-16 20.6-26.6l-20.6-3zm-108.3-46 36.1 5.4V555l-36-5.4zm-20.6-3a147 147 0 0 0 20.6 32.6v-29.7zm81.1 66.4q6 .2 11.7-.4v-52l-36-5.6v52q5.7 2.5 11.6 4 6.4 1.4 12.7 2m83.3-96.2q.6-7 .6-14.5V517l-36-5v54zM518 506.4l36.1 5.5v-54.2l-36-5.4zm0-108.3-36-5.6v54.2l36 5.6zm72.2 64.7v-54.2l-36-5v54.1z"/><path fill="#fff" d="m592.2 400 22.4-66.6-17-39.7-28.3 10.5-19.8-34-26.2 16.6-23.3-29.7-23.3 22.5-26.1-24.4-19.9 28-28.2-18-17.1 35.5 22.4 72.1a155 155 0 0 1 92.2-13.5c32.9 5.1 64 19.5 92.2 40.6"/><path fill="#0093dd" d="M431.3 286.4v.1l-28-18-15.7 32.6 6 19.4 15.2 49.2q17-8 35.5-11.8z"/><path fill="#fff" d="M429.7 320.4q1.5 4.1 1.6 9c-.2 10.4-6 17.4-13.7 16.7-6.8-1.2-12-8-13.4-17 2.5 6.2 6.7 10.3 12 11.3 7.7.7 13.5-6.3 13.7-17z"/><path d="M429.9 320.3a29 29 0 0 1 1.5 9 26 26 0 0 1-1 7.2q-.6 1.7-1.3 3a17 17 0 0 1-3.8 4.6q-1 .8-2.3 1.5-1.3.5-2.6.7a11 11 0 0 1-5.3-.6 14 14 0 0 1-4.4-2.9 21 21 0 0 1-5-7.3l-1-3-.7-3.3h.3q.9 2.1 2.1 4 1.3 2 2.8 3.4 1.5 1.5 3.3 2.4t3.6 1.2h2.8l2.5-.8a12 12 0 0 0 6-5.9 21 21 0 0 0 2.4-10l-.2-3v-.1zm0 1.3a40 40 0 0 1-.1 5.7 24 24 0 0 1-2.1 6.5l-1.7 2.5-2.1 2q-1.1 1-2.4 1.5a10 10 0 0 1-5.4.8 13 13 0 0 1-7-3.7 22 22 0 0 1-2.9-3.4l-1.7-3.1a33 33 0 0 0 1.5 5 26 26 0 0 0 3 5 21 21 0 0 0 4 3.7q1 .8 2.2 1.2l2.4.6h2.7a11 11 0 0 0 4.9-2.1 14 14 0 0 0 4.9-7.5 24 24 0 0 0 1-7l-.4-4.6zm-12.8-29v.4l-1 6.6 3.7 5 .2.2h-.2l-4.7 1.7-1 6.5v.3l-.2-.2-3.8-5-4.8 1.6h-.2v-.2l1-6.6-3.7-5-.2-.2.2-.1 4.7-1.6 1-6.6v-.3l.2.2 3.8 5 4.7-1.6z"/><path fill="#f7db17" d="m411.5 301.6 3.5 4.6 4.4-1.4zm0-.3 8 3.2-3.6-4.6zM403 298l8 3.2-3.6-4.7zm7.9 3.4-8-3.2 3.6 4.7zm.4-.3 5.4-7.7-4.5 1.5zm-5.7 8.2 5.3-7.7-4.4 1.5zm5.5-7.5-5.4 7.6 4.5-1.5zm5.7-8.2-5.3 7.6 4.4-1.5zM411 301l-2.6-10.8-1 6.2zm2.9 11.7-2.7-10.9-.9 6.2zm-2.5-10.9 2.6 10.8 1-6.1zm-2.8-11.6 2.6 10.8.9-6.2z"/><path fill="#171796" d="M477 282.8h-.1l-26-24.1-19.6 27.7 13 71.5q18-3.6 37-2.9z"/><path fill="red" d="M441 340.1q19.2-3.7 39.2-3l-1.1-18.3q-21.2-.7-41.3 3.3zm-6.4-35.9q21-4.2 43.4-3.4l-1-18q-23.4-.8-45.7 3.7z"/><path fill="#0093dd" d="M523.2 290 500 260.6l-23 22.2 4.3 72.2a175 175 0 0 1 37.5 5.8z"/><path d="M500 318.5q-.2 0-.2.2l-1.3 2.1q-.7.3-.4 1.1-.9 0-.8 1.4-1-2-2-1.4 0-1-1-1.4-.7-.2-1-.7l-.5-.4q-.5-.3-.4.2l2 4.6.1.7.4 1.4v.4a4 4 0 0 0-1.7-.7q-.6-.2-.9-.6-.2-.3-.2.2 0 2.6 1.4 5.2l-1.6-.2q-.3 0-.2.3.3 1.6 2 2.9-.7.4-.9 1.6 0 1-.5 1.4-.2 0 0 .3.9 1 2.1.7a6 6 0 0 0-.5 2.8q.8.3 1.5 0v1l-.4 1.1v.4q1.4.5 2.3.2l.2 2.4q0 .4.3.1l1.2-1.5.4.8q.4.3.4 1.2v.3c.5 0 1.3-1 1.5-1.8q.7.7 1 1.7.3.4.4 0l.2-2.4a3 3 0 0 0 2.2.5v-.3q-.3-.6-.3-1.3v-1q.6.6 1.4.5 0-1.5-.5-3 1.2.7 2.2 0v-.3q-.5-.4-.6-1.6t-.8-1.9a3 3 0 0 0 2-2.2q0-.3-.2-.4l-1.8-.3a8 8 0 0 0 1.5-4.8q0-.4-.2-.3-.2.4-.9.4t-1.6.2v-.4l.3-1.3q.3-.2.3-.6l1.9-4q0-.6-.5-.3l-.4.2q-.4.4-1 .4-1 0-1 1.1-1.2-1-2 .7 0-1.3-.8-1.5.3-.9-.4-1.3l-1.6-2.6z"/><path fill="#f7db17" d="M506.1 324.1q-.2 0-.4.3v.6l.3-.1v-.1h.1zm-12.2-1.9q.3 0 .4.4v.6q-.1.1-.3-.4t0-.6m11 4.7-.2.2q0 .2.2.2l.1-.1zm-9.8-1.5q-.2 0-.2.2t.2.2l.1-.2zm10.4.6a39 39 0 0 0-11-1.7v.2a48 48 0 0 1 11 1.5"/><path fill="#f7db17" d="M494.6 324a47 47 0 0 1 11 1.8l.3-.6h-.2q-.4-.3-.1-1 .2-.4.5-.3l.2.4 1-2.3q-.5.6-1.3.6-1 0-1 1 .3.5-.4 0-1.2-.7-1.6 1-.3.8-.4-.2v-.6q0-1.1-.5-.9t-.4-.2l.2-.7q0-.3-.4-.4L500 319l-1.4 2.2q-.3 0-.4.2l.2.8q.2.5-.3.1-.4-.3-.5.7v.6q0 1-.4 0-.5-1.7-1.7-1.4-.4.4-.4-.2.1-.9-1-1.2-.8-.3-1.4-1l1 2.4.2-.2q.3 0 .6.5l-.1 1h-.1zm10.6 4.7q-.2 0-.4.4l-.5.5h-.1v-.1l.7-.8-.7-.2-.5.2-.4.4q-.2-.1 0-.2 0-.3.3-.4l.2-.1-.7-.3-.2.2-.1.2h-.1v-.2l.1-.2-.6-.1-.1.1-.1.3h-.1v-.4l.1-.1-.8-.2-.2.2-.1.2h-.1v-.1l.1-.3-.8-.2h-1 .1l.2.3v.1h-.1l-.2-.3-.1-.2-.9-.1v.1l.2.3v.1h-.2v-.3l-.2-.2h-.6l.2.2v.2h-.1q0-.2-.2-.3l-.1-.2h-.8l.3.2.3.5v.2h-.1q0-.3-.3-.5l-.6-.5h-.7l.2.4.5.7v.1l-.6-.7-.3-.5-1.4-.7-1.1-.4q0 .4.3.8l.5.5v.1q.2.9.5 1.4 0 .3.4.5l-.4-.9-.2-1.4h.2l.1 1.4.7 1.2v.2q-.6-.3-1-.9l-.4-1.4q-.3-.2-.5-.6l-.3-.7q0 2 1 4l.7.7q.3.4 0 .3h-.3l.6.4q.5.4.5 1v.1h-.1q0-.5-.5-.9l-1-.7-1.1-.1 1.2.8.5.4.5.6v.1h-.2l-.4-.5-.5-.4-.8-.5-.5-.5a4 4 0 0 0 2.2 2.7l.6.3.7.2v.2l-.7-.2-.4-.2h-.3q-1 0-1 1.5l.7-.6q.4-.3.8 0v.1l-.8.1-.7.7q-.1.8-.5 1.2.1.3.4.2l.6-.2.7-.1v.2h-.7l-.5.3q.8.3 1.6 0l.3-.1.9-.3v.2q-.3 0-.5.2l-.3.2-.2.2q-.4.4-.5 1l-.2.6.5-.9q.4-.5.9-.8v.2l-.8.8-.5 1v.3l.7-1q.5-.3 1-.2v.2q-.4 0-1 .3l-.8 1h1.3l.6-.5.1-.2.3-.3v.2l-.1.3-.3.3-.4.8-.3 1.9.4-.4.3-.7q0-.6.4-.8.3-.4.6-.5h.1v.2q-.3 0-.6.4l-.4.8q0 .4-.3.8l-.4.3h.3q.4 0 .7-.3l.4-.6.1.1q-.1.5-.4.7l-.5.3q.6 0 1.1-.2c.2 0 .3-.5.3-.6l.3-.5.4-.4.1.1v.1q-.3 0-.4.3l-.2.5-.1 1v2l.5-.5.1-2.4.1.1v2l.1-.3.2-1.5v-.1h.1v1.6q0-.3.4-.4v-1.4h.1l.1.1v1.4q0 .5.3.8.4.4.4 1v-1.3l-.2-1.3v-.1l.4 1.4v1.6c.2-.3.8-.7.8-1.9v-.3l.2.4v.3l.1-.2.2.2v-1.4h.1a3 3 0 0 0 .1 1.7l.2.3v-2h.1v1.1l.1 1.1.4.8.1-2-.1-1-.3-.6-.3-.4v-.1q0-.2 0 0 .3 0 .4.4l.3.5.3.8 1.1.5-.4-.4-.4-.8v-.1l.5.8q.4.4 1 .5l-.4-.4-.4-1q0-.4-.4-.8-.2-.5-.5-.6v-.2l.7.7.4 1q0 .4.3.7 0 .3.4.5l-.3-2-.5-1q.2-.1.6.5l1.3.5-.8-1.4q-.5-.5-.9-.5v-.2q.4 0 1 .6l.7 1v-.2l-.6-1.2-.8-1v-.1q.6.4 1 1l.4 1q0-.4-.2-.7 0-.6-.4-1l-.5-.7-.2-.1-.4-.3v-.2q.3 0 .5.3l.2.2q.3 0 .5.3.8.6 1.6.6-.2-.3-.5-.4l-.6-.3-.1-.1v-.1q.4 0 .8.3l.6.4h.4q-.4-.6-.5-1.4l-.8-1-.7-.3h-.1v-.2q.5 0 .9.4l.7.8q-.2-1.5-1.1-1.9l-.5-.1q0-.2.6-.2 1.4-.3 2-2l-.4.3-.9.3-.5.2-.4.4h-.1v-.1l.4-.5.6-.2q.6 0 .8-.3l.3-.2-1-.2q-.6.1-1 .4t-.5.7h-.1q0-.7.5-.9l.5-.3h-.2q-.5 0 0-.3.3-.2.5-.7 1-1.5 1.2-3.5l-.3.6-.6.4q0 .9-.4 1.3-.3.4-.9.6v-.2a3 3 0 0 0 .8-2.3h.1q0 .8-.2 1.4l-.4.8.5-.5.4-1.2q.4-.2.6-.5l.3-.7q-.6.2-1.1.1z"/><path fill="#f7db17" d="M505 328.1a34 34 0 0 0-9.9-1.5v.1l.3.1a42 42 0 0 1 9.7 1.3"/><path fill="#f7db17" d="m495.2 326.3-.1-.3q.3 0 .4-.3 0-.5-.3-.5l-.3.1-.1-.5a48 48 0 0 1 10.6 1.7l-.2.5-.2-.3q-.3 0-.3.4t.3.4h.1v.4l-5-1.2zm7.5-.2q-.3 0-.3.4 0 .3.3.4.3 0 .3-.3 0-.4-.3-.5m-2.6-.5q-.3 0-.3.4 0 .3.3.4.3 0 .3-.3 0-.4-.3-.5m-2.6-.3q-.3 0-.3.4 0 .3.3.4.3 0 .3-.3 0-.5-.3-.5m2.6.5.1.2-.1.2q-.2 0-.2-.2t.2-.2m-2.6-.3.1.2-.1.2-.1-.2zm5.3.8.2.2q0 .3-.2.2l-.1-.2z"/><path d="M500 323.2q0-.4-.2-.6l-.4-.4v-.2l.4-.4.2-.8q0-.2.2 0 0 .4.2.7l.5.5v.3q-.3 0-.4.2l-.2.7h-.2m.2-.4.2-.5.2-.2-.5-.9-.2.5q0 .3-.3.4.3 0 .4.3zm2 17.3-1.3.4h-.2v-.2l1.3-.5.2.1zm0-1.1-1.4.9-.1-.1v-.2l1.5-.8zm-4.4-1 1.5 1.4v.2h-.1l-1.5-1.3zm.1 1 1.3 1v.1q0 .2 0 0l-1.3-.8v-.2m.6 1.5q.5.3.9.2.3.1.4-.4V339l-.7-.2-.5-.7V337h.2v1q0 .3.3.5l.8.3h.7l.5-.4.1-.6-.1-.2-.3-.2h-.5l-.1-.1v-.1h.6l.4.2.2.4q0 .5-.2.8l-.5.4h-.7v1.6q.1.5.5.6.3.2.8 0l.1.2h-1l-.5-.5q-.2.4-.5.4-.4 0-1-.3v-.2m.9.8 1 .2v.2l-1-.1zm1.5-10 1-.9q.5-.3.9-.2v.2l-.8.2zm-1.5 0q-.5-.8-1-1.2-.6-.5-1-.5v-.2q.4 0 1 .5t1.1 1.2v.2m-.6 3.2.3-.6.5-.5q.2.1 0 .2l-.3.5-.3.6h-.2zm.9-5.6a4 4 0 0 1 .4 1.8v.8q0 .4-.3.8l-.4.3-.4-.1v1l-.4-.2-.3-.2-.6-.5-.3-.5-.3-.5v-.6l-.5-.5-.4-.5v-.2h.2l.3.5.5.5 1 .5.7.8.1.1.4.1.3-.2.2-.7V330l-.3-.7v-.2zm-1 3.4-.7-.8-.7-.4v.4l.2.5q0 .3.3.4l.6.5.3.2.2.2v-1zm1.9-3-.3.6v1.6l.2.7q0 .3.3.4h.3v-.1h.2l.7-.6 1-.2.4-.3.4-.4h.1v.2l-.4.4-.5.3v.6l-.2.5-.4.4-.6.2-.3.2-.3.1h-.1v-1l-.4-.1-.4-.5-.2-.8V330l.3-.6h.2zm2.3 2.7q-.4 0-.8.3-.4.1-.8.5v1l.2-.2.3-.1q.3 0 .5-.3.3 0 .3-.3l.2-.4z"/><path d="M498 331.6q.6.1.6.8 0 .6-.6.6-.3-.1-.5-.8 0-.6.6-.6m4 .6q.6.1.6.8t-.5.6-.5-.8q0-.6.5-.6m0 .2q-.3 0-.4.5 0 .5.4.5.3 0 .3-.4t-.3-.6m-4.1-.6q-.4 0-.4.4t.4.6q.3 0 .3-.4t-.3-.6m0 .2.2.3q0 .3-.3.3l-.2-.3q0-.3.3-.3m4 .6q.3 0 .3.4l-.2.2q-.2 0-.2-.3t.2-.3m-12.8-47.9-.2.1-1.2 2.3q-.7.3-.4 1.1-.8 0-.7 1.4-1-2-2-1.3-.1-1-1-1.4-.7 0-1.2-.6l-.4-.4q-.5-.2-.4.3l2 4.5q0 .4.3.7l.4 1.3v.4a4 4 0 0 0-1.7-.6q-.6 0-.9-.5-.2-.4-.2.2 0 2.6 1.6 5.1h-1.7q-.2 0-.2.2.5 1.6 2 2.8-.6.5-.7 1.6t-.5 1.5q-.3.1 0 .4.9.8 2.1.6-.4 1.2-.4 2.7.8.3 1.5 0v1q0 .6-.3 1.1v.4q1.2.4 2.2 0 0 1.3.3 2.5 0 .4.3.1.5-1 1.2-1.6l.4.8q.4.3.4 1.2l.1.3c.4 0 1.1-1 1.4-1.9q.6.7 1.1 1.7.1.2.3 0l.1-2.5a3 3 0 0 0 2.2.4q.2 0 0-.3l-.3-1.3-.1-1q.8.5 1.5.4 0-1.5-.6-2.9 1.3.5 2.2-.1v-.4q-.6-.4-.6-1.6-.2-1.1-1-1.8a4 4 0 0 0 2-2.3q0-.4-.2-.4-1 0-1.7-.3 1.4-2.2 1.3-4.8 0-.6-.3-.3-.2.4-.8.4t-1.6.3v-.4l.3-1.3q.3-.3.2-.6l1.8-4.2q0-.5-.5-.3-.1.2-.4.3-.4.4-1 .4-1 .1-1 1.2-1-1-2 .8.1-1.3-.7-1.5.2-.7-.5-1.2l-1.6-2.5z"/><path fill="#f7db17" d="M495.7 290q-.3-.1-.4.3v.6l.3-.1v-.2q.3-.4 0-.6m-12.2-1.3q.2 0 .4.4v.6q-.2.1-.3-.4-.3-.4 0-.6m11 4.2-.1.2.1.2.2-.2zm-9.8-1-.1.1.1.3.2-.2q0-.2-.2-.2m10.4 0a40 40 0 0 0-11-1.2v.3a46 46 0 0 1 11 1"/><path fill="#f7db17" d="M484.2 290.5a45 45 0 0 1 11 1.2l.3-.6h-.2q-.3-.4-.2-1 .3-.5.6-.4l.2.5 1-2.4q-.6.6-1.4.7-1 0-.9 1 .2.6-.4 0c-.9-.5-1.3.1-1.6 1q-.3 1-.4 0v-.7q-.1-1.2-.6-.8-.5.2-.3-.2l.1-.7q0-.4-.4-.4l-1.6-2.6-1.3 2.3q-.3 0-.3.3l.2.7q.1.6-.4.2t-.4.7v.7q0 .9-.5 0c-.3-1-.8-1.8-1.6-1.4q-.5.4-.5-.2.1-.8-1-1.1-.6-.3-1.4-1l1.1 2.4.1-.2q.5 0 .6.5.3.6 0 1zm10.7 4.1-.4.4-.5.6v-.2l.4-.5.2-.3-.7-.2-.5.3q-.3.1-.3.4h-.1v-.2l.3-.4.3-.2-.8-.1-.2.1-.1.2h-.1v-.1l.1-.2-.5-.2-.2.2v.2h-.2v-.3l.1-.1-.8-.1-.2.1-.1.2q0 .2-.1 0l.2-.4h-1l-.8-.2v.1l.2.3v.1h-.1l-.2-.2-.1-.2-.9-.1v.1l.2.3v.1h-.1l-.1-.3-.2-.2h-.6l.2.3v.1h-.1l-.2-.3-.1-.1h-.8l.3.2.4.5v.1h-.2q0-.2-.3-.5l-.6-.4h-.7l.2.4.6.7v.1h-.1l-.6-.6q0-.3-.3-.5-.7-.5-1.4-.7-.6 0-1.1-.3l.3.7q.2.4.5.6l.5 1.4.5.5-.4-.8-.3-1.4.1-.1q0 .8.3 1.4t.7 1.2v.2q-.6-.3-1-.9l-.5-1.3-.5-.6-.3-.7q.2 2 1.2 3.9l.6.7q.4.4 0 .4h-.3l.6.3q.5.4.6 1v.1h-.2q0-.5-.5-.9l-1-.6-1-.1.3.3.8.5q.3 0 .6.4l.4.5v.1h-.1l-.4-.5-.5-.3-1.4-1q.8 2 2.1 2.5l.2.1.6.3.7.1v.2l-.7-.1-.4-.2h-.3q-.8 0-1 1.6l.7-.6q.4-.3.9-.2v.2q-.6 0-.8.2l-.8.7q0 .8-.4 1.2.1.3.4.2l.6-.3h.7v.1l-.7.1-.5.3q.8.3 1.6-.1l.3-.1.9-.4v.2q-.3 0-.5.2l-.3.3-.2.2-.5 1-.1.7.5-1q.3-.5.8-.8v.2q-.4.3-.7.8l-.5 1-.1.3.7-1 1-.3.1.2q-.6 0-1 .4l-.8 1h1.3q.3-.4.6-.5v-.2l.3-.3h.1v.1l-.2.3-.2.4-.5.8q0 1-.2 1.9l.4-.4.3-.8q0-.5.4-.8.3-.4.6-.5h.1v.2q-.4 0-.6.4l-.4.8q0 .5-.3.8 0 .3-.3.4h.3l.6-.3.4-.7.1.1q0 .6-.4.8l-.4.2q.6 0 1-.2.3-.2.4-.7l.2-.5q.1-.2.4-.3v.2l-.3.3-.2.5-.1 1 .2 2 .4-.6v-2.3h.1v2.1l.2-.3a3 3 0 0 0 .1-1.6v-.1h.2v1l-.1.6.4-.4v-1.4h.1l.1.1v1.4q0 .5.4.8.3.4.4 1v-1.4q0-.7-.3-1.2v-.2h.1l.4 1.4v1.6q.6-.2.8-1.9l-.1-.2v-.1h.1l.1.4v.2h.2l.2.1-.1-.6v-.8h.1v.8l.2.8v.1l.2.2-.1-2h.1l.2 2.3.4.7v-2l-.1-1-.3-.6-.3-.4v-.1q.3 0 .4.4l.3.6.4.7q.6.4 1 .4l-.4-.3-.4-.8v-.2l.1.1.4.7q.4.5 1 .5l-.8-1.3-.4-.8q-.2-.4-.6-.6v-.2q.4.1.7.6l.5 1q0 .4.3.8l.4.4-.3-1.9-.5-1.1.6.5q.7.4 1.3.4-.4-.8-1-1.3-.3-.5-.8-.5v-.2q.4 0 1 .5l.8 1.1-.1-.3-.6-1.2-.8-.9v-.1q.6.3 1 1l.5 1-.2-.8-.5-1-.5-.6-.2-.1-.4-.3v-.2l.5.3.2.2.5.3q.8.5 1.6.4l-.5-.3-.6-.3h-.1v-.2q.4 0 .7.3l.7.4.4-.1q-.4-.6-.6-1.3l-.8-1q-.3-.3-.7-.2l-.1-.1v-.1q.4-.1 1 .3l.6.8v-.1q-.2-1.5-1.1-1.8l-.5-.1q0-.2.6-.2c1-.4 1.5-.8 2-2.1l-.5.3-.8.4-.6.2-.3.4h-.1v-.1q0-.3.4-.5l.5-.2.8-.4.4-.2-1.2-.1-1 .4-.4.7v.1l-.1-.1q0-.5.5-.9l.6-.3h-.3q-.4 0 0-.3l.5-.7q1-1.5 1-3.6l-.2.6-.5.5q-.1.8-.4 1.2-.3.6-1 .7v-.2l.7-1v-1.3l.2-.1-.1 1.5-.4.8.4-.5q.4-.4.4-1.2v-.1q.4 0 .6-.5l.2-.7-1 .2q-.9 0-1.4.3"/><path fill="#f7db17" d="M494.8 294a32 32 0 0 0-10-1v.2h.3a41 41 0 0 1 9.7.8"/><path fill="#f7db17" d="M484.8 292.8v-.4q.3 0 .3-.3 0-.4-.3-.5l-.2.2-.2-.6a47 47 0 0 1 10.6 1.2l-.1.5-.3-.2q-.3 0-.3.3 0 .4.3.5h.2v.4a33 33 0 0 0-10-1.1m7.4-.6q-.2 0-.2.3 0 .5.3.5l.3-.4q0-.3-.4-.4m-2.6-.4q-.3 0-.3.4 0 .3.3.4.3 0 .3-.4t-.3-.4m-2.6-.2-.2.4q0 .3.3.4.2 0 .2-.3 0-.4-.3-.5m0 .2.2.2-.1.2q-.2 0-.2-.2t.2-.2m2.5.2.2.2q0 .2-.2.2l-.1-.2zm2.7.4.1.2-.1.2-.2-.2q0-.2.2-.2"/><path d="m489.7 289.3-.3-.6-.5-.3v-.2l.4-.4.2-.9h.2l.2.8.5.5v.2q-.3 0-.3.3-.2.2-.3.7zm0-.4.2-.5.3-.3-.4-.4-.2-.4-.2.5-.2.4.3.3zm2.4 17.2-1.2.5h-.1v-.2l1.3-.5zm.2-1-1.5.9-.1-.1v-.2l1.5-1v.2q.2 0 0 .1m-4.4-.7 1.5 1.3v.2l-1.6-1.2v-.2h.1m.2 1 1.2.8.1.2h-.1l-1.3-.7v-.2q0-.2 0 0m.7 1.4q.5.3.8.2t.5-.4V305q-.5 0-.8-.2l-.5-.6v-1.1h.1v1l.4.5.8.2h.7l.5-.4v-.9l-.4-.1h-.5v-.2h.5l.5.1.2.5-.2.8-.5.4h-.7v1.7l.5.5h.9l.1.1v.2h-1l-.5-.5-.5.4-1-.2v-.2q0-.2 0 0m1 .7h1v.3h-1l-.1-.2m1.2-10.2 1-.9q.5-.3.9-.2v.2l-.8.2-1 1-.1-.1zm-1.5 0-1-1.1q-.6-.4-1-.4v-.2q.4-.1 1 .4t1.1 1.2zm-.5 3.3.7-1.2h.1v.2l-.6 1.2h-.1q-.2 0 0-.2m.6-5.6.5 1.7v.8l-.2.8-.4.3h-.4v1h-.1l-.3-.2-.3-.2-.6-.5-.4-.4-.2-.6-.1-.6-.5-.4-.4-.5v-.2h.2q0 .3.3.5l.5.5q.4 0 1 .4l.7.7v.1h.2q0 .3.3.2t.3-.3l.2-.7v-.8l-.1-.8q0-.4-.3-.7zm-.8 3.3-.7-.7-.8-.4v.5l.2.5.4.4.5.4q.2 0 .3.2l.3.1-.1-.9m1.7-3.2-.2.6v1.7l.2.7q0 .3.3.3h.4v-.1l.8-.6 1-.2.4-.4.4-.4.1.2-.4.4-.4.4v.5l-.3.6-.3.4-.6.3-.3.1-.3.2-.1-.1v-1h-.4l-.4-.5-.3-.8V296l.3-.7h.1zm2.4 2.6-.8.3-.7.5v.1l-.1.9.2-.1.3-.2q.4 0 .6-.3l.3-.3.1-.4z"/><path d="M487.9 297.9q.5.1.5.8 0 .6-.5.6t-.5-.7.5-.7m4 .4q.6.1.6.8 0 .6-.5.6t-.5-.7.5-.7m0 .2q-.3 0-.3.5t.3.5.4-.4q0-.5-.4-.6m-4.1-.4q-.3 0-.4.5 0 .5.4.5.3 0 .3-.5 0-.3-.3-.5m4.1.6.2.4q0 .2-.2.2t-.2-.3.2-.3m-4.1-.4.2.3q0 .3-.2.3t-.2-.3.2-.3m22.6-10.3h-.1l-1.4 2.2q-.7.1-.5 1-.8 0-.7 1.3-1-2-2-1.4 0-1.1-1-1.5l-1-.7-.5-.4q-.5-.5-.4.1l1.9 4.7.1.7.3 1.4v.4q-.9-.6-1.6-.8-.6-.2-1-.6 0-.4-.1.2-.1 2.6 1.3 5.2l-1.7-.3q-.2 0-.2.3.3 1.6 2 3-.9.4-1 1.5t-.5 1.4q-.3.1-.1.4.9 1 2.1.8a6 6 0 0 0-.5 2.7q.8.4 1.5.1l-.2 1q0 .6-.3 1v.4a3 3 0 0 0 2.3.3v2.5q.1.4.4.1.6-1 1.3-1.4 0 .4.4.8.3.3.3 1.2l.1.3c.4 0 1.2-1 1.5-1.7q.6.7 1 1.7.2.4.3 0 .3-1 .2-2.3 1 .7 2.3.6v-.3l-.3-1.3v-1q.8.5 1.5.5 0-1.5-.5-3 1.3.8 2.2.2.2-.2 0-.4-.5-.4-.5-1.6a3 3 0 0 0-.8-1.9 3 3 0 0 0 2-2.1q.1-.3-.1-.4l-1.7-.4q1.5-2 1.6-4.7 0-.5-.2-.3-.4.4-1 .3l-1.5.1v-.4l.3-1.2q.3-.2.3-.6l2-4q.1-.4-.4-.3l-.5.3q-.4.3-1 .3-1 0-1.1 1-1-1-2 .7.2-1.4-.7-1.6.3-.9-.4-1.3l-1.5-2.7z"/><path fill="#f7db17" d="M516.6 293.8q-.2 0-.5.3v.6q.3.1.4-.1v-.1q.2-.4 0-.7zm-12.2-2.5q.2 0 .4.4v.6q-.3.1-.4-.4zm11 5.3-.2.1.1.3q.2 0 .2-.2t-.2-.2m-9.8-2-.1.1.1.3.2-.2q0-.2-.2-.2m10.5 1.1q-2.7-1-5.5-1.6l-5.5-.7v.3a49 49 0 0 1 11 2"/><path fill="#f7db17" d="M505 293.2a48 48 0 0 1 11 2.3l.3-.6h-.2q-.3-.4 0-1 .1-.4.5-.3l.2.4 1.1-2.2q-.6.5-1.4.5-1 0-1 .9.2.7-.4 0c-.8-.6-1.3 0-1.6.9q-.4.9-.5-.1v-.7q0-1.2-.5-.8-.5.2-.3-.3l.2-.7q0-.3-.4-.4l-1.5-2.7-1.4 2.1q-.3 0-.4.2l.2.8q0 .5-.3.1-.5-.3-.6.6v.7q0 1-.4 0c-.3-1-.8-1.8-1.6-1.5q-.6.4-.4-.3.1-.8-1-1.2-.7-.4-1.3-1.1l1 2.4v-.1q.5 0 .6.6t0 .8h-.2zm10.5 5.2-.4.3-.5.5h-.1v-.1l.5-.5.2-.3-.7-.2-.5.1-.3.4h-.2v-.1l.4-.4.3-.2-.8-.2-.1.1-.2.2h-.1v-.1l.1-.3-.5-.2-.2.2v.2h-.2l.1-.3v-.1l-.8-.2-.3.3-.1-.1.1-.2-.8-.3-.9-.1.2.3v.1h-.1l-.1-.3-.2-.2-.9-.1.1.1.1.3v.1h-.1l-.1-.3-.2-.3h-.6l.2.3v.1h-.1l-.1-.3-.2-.2h-.8l.3.2.4.6v.1h-.2q0-.3-.3-.5l-.6-.5h-.6l.1.3.5.7v.2l-.6-.7-.3-.6q-.6-.6-1.4-.7l-1-.5.2.8.5.6.4 1.4.5.6-.4-.9-.2-1.4.1-.1v.1l.2 1.3.7 1.3v.2q-.6-.4-1-1l-.4-1.4q-.3-.2-.5-.6l-.3-.8q0 2.2 1 4l.6.9q.4.2 0 .3h-.3l.6.4q.5.4.5 1v.1h-.2q0-.5-.4-1l-1-.7-1-.2.2.4.8.5a2 2 0 0 1 1 1v.2h-.1l-.4-.6-.5-.4-.8-.6-.5-.5q.6 2 2 2.7l.1.1.7.4.6.2v.2l-.6-.2-.5-.2h-.2q-1 0-1.1 1.4l.7-.6q.4-.2.9 0v.1l-.1.1q-.4-.2-.8 0l-.8.7q0 .8-.5 1.2l.4.2.6-.2h.8v.1h-.7l-.6.3q.9.3 1.7 0h.3l.4-.2.5-.1v.2l-.6.2-.3.2-.2.2-.5.8-.2.7.5-.9.9-.7.1.1v.1q-.5.3-.8.7l-.6 1-.1.3.8-.9q.6-.3 1-.2v.2l-1 .2-.8 1q.6.2 1.3 0l.6-.3.1-.2.3-.3q.2.1 0 .2l-.4.6-.5.7-.3 1.8.4-.3.3-.7.5-.8.6-.5v.3q-.3 0-.5.4l-.4.7-.4.7-.4.4h.3q.4 0 .7-.2l.4-.6h.1l-.4.8-.5.2 1.1-.1.4-.6.2-.5.4-.4.1.1v.2l-.3.2-.3.5-.2 1 .1 2 .4-.6.2-1v-1.2h.1v2l.1-.2a3 3 0 0 0 .2-1.6h.1l-.1 1.5.5-.3v-1.4h.2v1.5q0 .5.2.8.4.4.5 1v-1.3l-.2-1.3v-.1l.4 1.4-.1 1.6c.3-.3.9-.6.9-1.8v-.3l.2.4v.2l.3.1-.1-.6v-.8h.2v1.6l.1.1.2.3v-2h.1v2.3l.4.7.2-2-.1-1-.2-.6-.4-.4v-.1q0-.2 0 0 .3 0 .5.4l.2.6.3.8 1.1.5q-.3 0-.4-.4l-.4-.8v-.2l.1.1.4.8q.4.4 1 .6l-.4-.5-.4-1-.3-.8-.6-.6v-.2q.4.2.7.7l.4 1q0 .4.3.8 0 .3.4.5l-.3-2c0-.4-.4-1-.4-1.1l.6.5q.5.5 1.3.6l-.9-1.4q-.4-.6-.8-.6v-.2q.4 0 1 .6l.7 1.2-.1-.3-.5-1.2-.8-1v-.2h.1l.8 1 .5 1.2-.2-.8q0-.6-.4-1l-.5-.7-.1-.2-.4-.2v-.2l.4.3.3.2.5.4q.7.5 1.6.6l-.6-.5-.6-.3v-.2q.4 0 .7.4.4.4.6.4h.4q-.4-.6-.4-1.4l-.8-1q-.4-.4-.7-.3l-.1-.1v-.1q.4-.1.9.4l.6.8q0-1.6-1-1.9-.4 0-.4-.2t.6-.2q1.4-.1 2-1.8l-.4.3-.9.2-.5.2-.4.4h-.1v-.2q0-.3.4-.4l.6-.2.8-.2.3-.2-1-.3q-.6.1-1 .4-.5.1-.5.6h-.2q0-.6.6-.8l.5-.3h-.2q-.4-.2 0-.4.3-.1.6-.5a8 8 0 0 0 1.2-3.5l-.3.5-.6.5-.4 1.2q-.4.5-1 .6v-.2l.7-1 .2-1.3h.2q0 .8-.3 1.4l-.4.7q.3 0 .5-.4l.4-1.1v-.1q.4 0 .6-.4l.3-.7h-1.1q-.7 0-1.4.3"/><path fill="#f7db17" d="M515.4 297.8a36 36 0 0 0-10-2q0 .2.3.2a40 40 0 0 1 9.6 2z"/><path fill="#f7db17" d="M505.5 295.5v-.4q.3 0 .3-.3t-.3-.4h-.2l-.1-.5a48 48 0 0 1 10.6 2.2l-.2.6q0-.3-.3-.3l-.3.3q0 .4.3.5h.2l-.1.4q-2.5-.9-5-1.5zm7.5.1q-.3 0-.3.4 0 .3.3.5.3 0 .3-.4 0-.3-.3-.5m-2.6-.6q-.3 0-.3.4t.2.4q.3 0 .4-.3 0-.4-.3-.5m-2.6-.4q-.3 0-.3.3t.3.5q.2 0 .3-.4 0-.3-.3-.4m0 .2.1.2-.1.2-.2-.3zm2.6.4.1.2-.1.2-.2-.2q0-.2.2-.2m2.6.7.1.2-.1.1q-.2 0-.2-.2t.2-.1"/><path d="M510.6 292.6q0-.4-.3-.7l-.4-.3v-.3l.4-.3.2-.8q.1-.2.2 0 0 .4.2.7.2.4.5.6v.2l-.4.2zm0-.4.2-.4.3-.3-.3-.4-.2-.5-.2.5q0 .3-.3.4zm1.5 17.3-1.3.4v-.2l1.3-.4zm.2-1-1.5.7h-.1v-.2l1.5-.8h.1zm-4.4-1 1.4 1.3v.2h-.1l-1.4-1.4zm.2 1.1 1.2 1v.1h-.1l-1.2-.9zm.6 1.5.8.3q.3.1.5-.4v-1.6q-.3 0-.7-.3l-.5-.7v-1q0-.2.2-.1v1.1q0 .3.4.5l.7.3h.8q.3 0 .4-.3l.2-.6-.1-.3-.3-.1h-.6v-.3h.6l.4.3.2.4-.2.8-.6.3h-.7v1.6q0 .5.4.7h.9l.1.1v.2l-1-.1-.5-.6q-.2.4-.6.4l-.9-.3v-.2m.9.8 1 .2v.2l-1-.1-.1-.2zm1.7-10 1-.7q.6-.3 1-.2v.2l-.9.2-1 .8h-.1zm-1.5 0q-.5-.9-1-1.3t-.9-.6v-.2q.4 0 1 .6l1 1.3q.2 0 0 .1m-.7 3.2.8-1.1h.1v.2l-.4.5-.3.6h-.1zm1-5.5.2.8.1 1v.7q0 .5-.3.8-.1.3-.4.3l-.4-.1v1h-.1l-.3-.2-.3-.3-.6-.4-.4-.5-.2-.6v-.6l-.8-1v-.2h.1l.4.5.4.5 1 .6.7.8.1.1.4.1.3-.2.2-.6v-1.7l-.3-.7v-.2zm-1 3.4-.8-.8-.7-.5v.4l.5 1 .5.4.3.3q.2 0 .3.2zm2-3-.3.6-.1.9v.8l.2.7q0 .3.3.3h.5l.7-.5 1-.2.5-.3.3-.3h.2v.2l-.4.3-.5.3-.1.6-.2.5-.4.3-.6.3-.3.1-.3.1h-.1v-1l-.4-.1-.4-.5-.2-.8v-.9l.1-.9.3-.6h.1q.2 0 0 .1m2.2 2.9-.8.1-.8.5v.1l-.1.9.2-.1.4-.2.5-.2.5-.7z"/><path d="M508.3 300.9q.5.1.5.8 0 .6-.6.6-.5-.2-.5-.8t.6-.6m4 .8q.6.1.6.8 0 .6-.5.6-.4-.1-.6-.8 0-.6.6-.6m0 .2q-.4 0-.4.4t.3.6q.4 0 .4-.4t-.3-.6m-4.1-.8q-.4 0-.4.4t.3.5.4-.4q0-.4-.3-.5m4 1q.3 0 .3.3t-.2.3-.2-.3.2-.3m-4.1-.8.2.3q0 .3-.3.3l-.2-.4q0-.2.3-.2"/><path fill="#171796" d="M568.8 307.2 549 273.6 523.2 290l-4.4 70.8q19 5.1 37 14z"/><path d="M528.3 305.6q1.4-.3 2.6.7.6.4.9 1l1.2-1q.9-.8 1.8-1.1a6 6 0 0 1 2.8-.7l3 .2q1.1.4 2.3 1.4l2 1.7 2.2 1.8q1.5.9 3 1.1.9.2 1.7.1.7 0 .2.6c-3.6 2-5.9-.3-8.3-2l2.1 2.7c1 1.3 1.9 2.5 3.6 3.9q1.4 1.2 3.6 1.7h1.6q.4 0 .4.3t-.2.5c-1 .7-1.6.8-2.6.8q-2.6-.4-5.4-2.7-1.9-2-3.3-3.9-1.7-1.8-3-2.4-1.6-.7-3-.4l.6.6q.6.6 2 1 .6.3-.5 1-.5 1-1.7.7c-1 .7-1.3.2-1.7-.5q0 .6-.2 1.1v.6l.2 1q0 .4.2.6l.4 1q0 .4.2.7l.6.8q.9.6 1 2 .7.4.7 1.2.4.3.7.8l2.7.5q1.1.5 2 2 .6.2 1.2.1.6-.3 1.4-.2a6 6 0 0 1 2.3.4q.8.4 1.3 1.2.8 1 1.8.6 1.2-.6 2.4.4.6-.3 1.1 0 .6-.7 1-.5 1-.1 1 1.2-.1.4-.4.5-.4 1.1-1.4.8 0 .7-.4 1 .3 1.9-.7 1.7-.1.5-.7.4-.4.5-.9.5 0 .4.3 1c.4 1-.2 1.1-.8 1.1l.1 1.9q1 .8.1 1.6.6 1.6-.5 2.2 0 1-.3 1.4-.5.1-.3.6.4 1.5-.2 1.7-.2 0-.2.2l-.2.2-1.6 1.2h-.2q-.6 1.5-1.8 3-.1 1.1-1 1.5 0 .3-.3.4.5.8.1 1.4-.6.8-1.3 1-1.4.3-2.1-.5-.4-.9 0-1-.8-.1-.7-1.1 0-.4.3-.2.5 0 1-.3l.5-.7q.1-1.4 1.2-1.6.8-.4 1.4-1.6l.9-1.9-.3-1-.6-.9q-.6-.2-.7-.8h-.3l-.7.1-1.1 1.2q-.2.7-.8.6c-.9.2-1.4 1.4-2 2l-.4 1q.1 1.4-.4 1.4l-.4-.1h-.4q.4.6 0 1.2a1 1 0 0 1-.8.4q-1 0-1.7-.5-.5-.5-.5-1.1-.4-.4-.3-.7 0-.4.4-.3l.6-.2a5 5 0 0 1 2-1.6q.1-.6.6-.8.2-1.1 1-1.8 0-.5.2-.9v-.4q-.3-.7-.2-1.5v-.8q-1.6.9-1.6-.3-.7.7-1-.2-.7.2-1.2 0l-.9.1q0 .4-.4 1 0 .9-.5 1.9l-.8 2v.7q0 1.2-.5 1.4l-.5 1v.3q.3.8-.2 1.4l-.9.6q-.6.2-1-.2c-.6-.4-.5-.6-.5-.8l-.5-.1-.3-.4q-.3-.5.1-.8.5 0 .9-.6 0-.5.4-.5.2-.8.6-1l.7-1.9q.2-.2.1-.6 0-.3.2-.4v-.3q-.1-.9.2-1.6c.3-.6.5-1.8.3-2.6l-.1-1.2q-.2 0-.3-.2-.3-.2-.6.3-.1.6-.4.8-.2 1.7-1 2v1.6q0 1-.2 1-.4 0-.6.7v.4q.3.8-.1 1.3-1 1-2.3 0-.9-.6-.7-1-1.2-.7 0-1.3 1.1-.2 2-1.7 0-1.7.6-1.9 0-1 .4-1.9.4-.7.3-1.8-.7-.7 0-1.2l-.1-.4q-.4-.2-.2-.8 0-.3-.3-.3-.7-.4-.2-1 .3-.2.1-.5l-.2-.7q-.4-.7 0-1.2-.3-.5-.3-1.1-1.2-.4-.6-1.4.1-.5.6-.8.3-.5.3-1.1-.1-1 1-1.7l-.1-.6q-.4-.7 0-1.2v-.6c-.9 0-.8-.5-.5-1.6q-.6-.6.5-2l.1-.4q-.6 0-1 .3t-1-.1q0-.4-.4-.7l-.2-.9c-1-.2-1.1-1-.6-1.5q.5-.4.7-1a5 5 0 0 1 1.3-2l.1-.7-.8-.5-.6-1q-.2-.2 0-.6-.7-1-.3-1.4"/><path fill="#f7db17" d="M545.6 341.7h-.2l-.8.8q-.6-.3-.3.3h-.2q0 .7-.5.7h-.2l.1-1.1v-.1l-.2 1.2c-.8.3-1.3 1.3-1.8 2.1q-.4.4-.5 1l-.2 1.3h-.3q0-.4-.4-.1-.5-.2-1-.1 0 .2.7.5.2.3.1.7c-.4.8-1.7.4-2.4-.1q-.2-.3-.2-.7h.3l.6-.2v-.2q0-.2-.1 0h-1l-.2-.2h.3l.7-.2q.8-1.2 1.9-1.7.3-.5.8-.9.2-1.2.9-1.8l.2-1v-.5q-.2-.8-.1-1.4v-1.3l.4-.4.4-.2v1l-.1.4-.1.4.1-.3.2-.3q.4 0 .8-.4l.7-.8v1.5l-.6.9h.1l.5-.8.2-.1q.3-.4.8-.5v1.2q0 .8.5 1.4z"/><path fill="#f7db17" d="m529.7 326.7.2-.2.8-1.5h.1l-.5.8-.3.8v.2l.2 1 .3-.5.5-.5.3-.3.2-.5h.1l-.2.6-.3.4-.7.8v.4q-.5.5 0 1 0 .5.2.8l-.2 1q-.2.3.2.2l.3-.5.4-.4.3-.7.2-.7h.1a3 3 0 0 1-.6 1.5l-.6 1q.3.4.3 1h.1l.2-.3.2-.5h.1l-.2.6-.2.3q.3.5 0 .8-.5.4 0 1v2.1-.6l-.1.2q-.5 1-.6 2.3c-.7.2-.6 1-.6 1.8q-.8 1.4-2 1.8-.3 0-.5.4 0 .2.4.2.8-.6.1.4l.1.4q1.1 1 2.2.6.7-.4.3-1.2 0-1.2.8-1.5v-.7l.1-1.7q0-.2.2-.2.4-.2.7-1.6v-.5q.2-.4.3-.2l.2-.4q.3-.8.9-.4a6 6 0 0 1 0-2.7l.3-1 .4-1-.3 1-.3 1v.2a5 5 0 0 0 .2 2.7q.3.2.2.6v.8a5 5 0 0 1-.3 3l-.2 1.2q.2.4 0 .7v.2l-.2.7-.8 2.1q-.5.1-.6 1-.3-.1-.4.4-.4.5-.9.6-.3.3.2.6.3.2.6-.4c.3-.6.3-.2.2 0l-.2 1q.2.3.7.5.7-.1 1.2-.6t.1-1.1l-.4-.2-.6-.4q0-.2 0 0l.6.3h.5v-.3l.5-1q.5-.3.4-1.2v-.7q.5-1 .8-2.1.5-.9.5-2 0-.4.3-.4l.3-.6.1-.5q0-.2.2-.3v-1.3l-.2-.3v-.3h.1v.5h.1l.2.8-.1.7-.2.2v.5l.6-.2.4-.5.2-.8h.1q0 .6-.2.8 0 .3-.3.5.6.2 1.1 0v-1.6q.1-.7.4-1l-.3 1v1.6q.2.6.6.4l.3-.3.1-.1 1.8-1.9h.1v.2l-1 .7-.7 1v.3q0 .8.6.6l.6-.3q.3 0 .3-.2l.5-.4.5-.3.2-.8.7-1.6a2 2 0 0 0 1.1-1.5h.1q0 .6-.4 1l-.7.6a6 6 0 0 0-.9 2.2v1.3q.4 0 .7-.3l.8-1 .2-.6.4-.4h.1v.1q-.3 0-.4.4l-.2.6v1.6l1-.6v1.4q0 .6.4 1.2l.4-.6.1-.2.4-.3.2-.3.2-.3q.1.1 0 .2l-.1.2-.3.3-.3.3v.6l.6.2q.1.8.5.8v-.7l.2-.6v1.3q.2.7.7 1l.2-1.3h.1v.7l-.3.7v.7l.2-.4.3-.5q.1 0 0 .1l-.2.5-.2.5.2.3c-.7 1.4-1.3 3-2.5 3.7q-1 .3-1 1.6-.5.3-.6.7-.6.4-1.3.3 0 .6.4.6.8-.4.7-.2.1.1-.5 1v.1c.5.9 1.3.8 2 .6.3 0 1-.5 1.2-1q0-.4-.3-1c-.7 0-.6-.8 0-.3q.3 0 .4-.4.8-.3 1-1.4 1-1.1 1.6-2.6l.2-.7.2-.6v-.7h.1l-.2 1.2q0 .3.2.3.7-.7 1.6-1.2 0-.5.4-.5l.2-.1q.1-.7-.2-1.2c-.1-.6 0-.6.4-.9q.3-.6.2-1.4v-.6q-.2 0 0-.1l.1.5v.2q.4-.2.7-.7 0-.6-.3-1.3l-.2.1-.5.2v-.1l.5-.2.3-.2.3-.3q0-.6-.5-1l-.7-1v-.1l.7 1v-1.6l-.2-.5-.5-.7-.1-.7.2.7.4.5q.5.3 1 0c.3-.2-.1-.8-.3-1.1v-.8l-.1-.2-.2-.2v-.1l.2.2.2.3h.1q.6 0 .8-.6l-.4-.6-.4-.6q0-.2 0 0l.9 1.1q.4.3.5-.3l-.2-.6-.3-.6h.1l.3.6.2.6h.5v-1.4l-.2-.1-.2-.2v-.1h.1l.2.2h.2l.4-.7c0-.5 0-.3.5-.3q.5.2 1-.7l.1-.4q0-.6-.3-.7-.7-.1-1 .3v.4l-.2-.3H555l.2.5.1.6-.2-.6-.3-.6q-.6-.4-1-.4l.2.2.2.3v.1l-.3-.3-.2-.3-.9.1-.6.2.4.7.2.9-.3-.8-.4-.7-.5-.2.2.6h-.1l-.2-.6q-.2 0-.5-.3l.2 2.1h-.1l-.2-2.3-.3-.3-.5-.7v.4l-.3.6v-.1l.2-.6v-.4l-1.1-.5.5 1.3.3.6v.8l-.1-.7-.2-.6-.3-.7-.4-.7-.4-.1.1.1v.4-.3l-.2-.2h-.8a11 11 0 0 1 1 3.2v.1l-.4-1.8-.7-1.6h-.7l.3.4.2.3v.1l-.3-.3-.3-.4-.3.1h-.2l1 1.7v.1l-1.1-1.7h-.7l.5 2.4-.6-2.4-.4-.2.3 2.5-.4-2.5q-.6-1-1.4-1.6l.3.6.1 1h-.1l-.1-1-.4-.8-.3-.1-1-.3.4 1v.1h-.1q0-.5-.5-1.1l-.7-.1q.3.3.3.5l.3.7.1.9.5.6q-.4-.1-.5-.6l-.3-1-.2-.5-.3-.6-.7-.2.3 2.7h-.1l-.3-2.7-.6-.7v.4h-.1v-.5q-.2-1-.7-1.2v.5l-.2.7v-.1l.1-.6v-.6q0-1.3-1-1.9l.1.4v.6h-.2v-1.2l-.4-.7a5 5 0 0 1-.5 2h-.1l.4-1.1v-1l-.1-.5-.1.3h-.1v-.3l.1-.2q0-.6-.3-.8v.2l-.2.4h-.1l.2-.4v-.3l-.1-.4-.1.2-.2.3h-.1v-.2l.2-.2v-.2l.1-.3-.2-1h-.3l-.5.3v-.1l.4-.3h.4v-.4q-.7.3-1.1.2t-.8-.3q0-.2 0 0l.8.2 1.1-.2.2-.8h-.5v-.1h.6v-.3q0-.4.4 0l.5.5q.4.4.8 0l-.2-.2v-.1l.3.1q1 .2 1.4-.5l-.9-.1-.7-.4v-.1l.7.3 1 .2.1-.1.5-.4q-1-.3-2-1l-.7-.6q-.8-.1-1.4.2 0-.2-.3-.5l-.4-.2-.7-.1v-.1h.7l.6.3q1-.3 1.7-.2.9-.2 1.8 0v-.3q.4-.6.3-1.2l-.8-1.2-1.3-.2-.9.1.6.7q.4.6.4 1.4v.1h-.2q0-.9-.3-1.4l-.8-.7-1.3.1q-.4 0-.8.4l1 .2q.3.3.5 1.1v.2l-.2-.1q-.2-.7-.5-1-.9-.4-1.6.1l-.7.7q0 .2-.1 0-.2-.1 0-.2l.6-.8.7-.3q.4-.5 1-.6h1.4l-.5-.9-.8-.2-1.5.9.5.1v.2h-.9l-1.5 1.3-1 .1q-.3.3-.1.8l-.2 1q-.9.8-1.4 2l-.3.6.3.3.1-.5.2-.5v.6l-.2.7-.2-.3-.3-.2-.3.4-.2.4q0 .4.5.5c.6.2.2.5.5 1l.4.6q.3.3.5 0 0-.7.2-.7v-.3l.2-.3h.1v.1l-.1.3v.8q.4-.2 1-.2c.7-1 1-.6.4 0l-.1.3-.2.8c-.3.3-1 1-.7 1.4q.3 0 .3.3-.3.5-.4 1.2l.3.1.7-.8q.5-.4.6-1h.1l.3-1q0-.6.3-1l.3.4.3.2.2-.1.3-.3-.2.4-.3.1q-.2 0-.3-.2l-.3-.3-.2.8-.3 1v.2q-.1.6-.6 1l-.5.7.1.8 1-1.2.8-1.3q.1 0 0 0 0 .4-.3.8v1.5h-.1v-1.3l-.3.4-1 1.2c-.4.4-.6.4-.2 1l.3-.4.4-.3h.1v.1l-.4.3-.4.3.1.6 1-.7v.1l-.8.7-.1.1c-.3.3-1.1.9-1.1 1.5l.6-.3.7-.5-.6.7v.3h-.1v-.3l-.6.2q0 .8-.3 1.4c-.2.1-1 .9-.7 1.3z"/><path fill="#f7db17" d="m530.1 308.8-.7-.5q-.2-.6-.5-.9-.3-.2-.1-.3.3 0 .3-.2l.3.1.2.3v-.1l-.2-.3-.4-.1-.4-.2-.2-.6.4.2.2.2v-.1l-.2-.2-.2-.2q1.1-.2 2.2.7.5.4.8 1l-.2.2q-.7-.1-1 .1t-.3.9"/><path d="m546 341.5-.4.2.4-.7zm2 6.2q0 .2-.3.5l-.5.4h-.1l.5-.5.4-.5m1.4-1.9-.2.4h-.1v-.1l.2-.4v.1m-.6-.2-.2.5-.5.4v-.1l.4-.4.1-.5h.1m1.4-2-.2.3v.3h-.2l.1-.4.2-.2zm1 .4-.1.6-.2.6h-.1v-.1l.2-.6zm-.5-8.5q.4 1 .4 2l.2-.6.3-.8v-.8a3 3 0 0 1-.2 1.6l-.2 1.4q0 .2-.2 0v-.1a6 6 0 0 0-.4-2.6zm-.8 1.3v.3h-.1v-.3zm-.2 1.9.3 2v-.2l.4-.3v.1l-.3.3-.1.5h-.1zm1.1.9v1.6-1.7m1 0v1.5q-.2.4-.1.8 0 .5.2.9h-.1l-.2-.9v-.9l.1-.7v-.8zm.5-2.2-.1.4v.4h-.2v-.4l.2-.4m-.4-3.7v.5l-.1-.5m.3-2.7v1l-.2.6v.8h-.1v-.9q0-.3.3-.5zm-2-1.3.8 1.1q.3.6.3 1.3h-.1l-.5-.3-.1 2.5q-.3.9-1 1.2v-2.4h.1v2.2q.5-.3.8-1 .2-1 0-2.6h.1l.5.3q0-.6-.2-1.1l-.7-1zm5.3-.7v.1l-.1.2h-.1v-.4zm-1.3-.2.3.3.2.3h-.1l-.2-.3-.2-.2zm-1.8.4.3.8v.9h-.1v-.9l-.3-.7h.1m-6.2 0v.5h-.1v-.6zm1.2-.6v.6-.2l-.1-.4m2.4 2.5v.4zq-.2 0 0 0m.8-2.3.1.2v.2h-.1zm-5.6-.5v.5l.2.5.3.6v.6l-.1-.6-.2-.5-.3-1.1m2.4 2.4a4 4 0 0 1 .2 2l.1 1.1.7 1-.1-1.2q0-.7.3-1.3l.3-.5v-.6h.1v.6l-.3.6-.3 1.2.1 1.5-.9-1.2q-.2-.6-.1-1.2v-1l-.2-.9v-.1m-.8 1.8-.2 1-.4.8.2-.1.7-.6.3-.5h.1v.1q0 .3-.3.5l-.3.3v.2l.1.3h-.1v-.4l-.4.2-.5.2v-.1l.5-1zm-1-.3v.4h-.1z"/><path d="M544 329.9q.3.8.2 1.4t-.5 1l-.5.9-.1.7.2-.3q.2-.3.5-.3l.6-.5.6-.6-.5.7-.7.5-.5.3-.3.6h-.1q0-.7.3-1.2 0-.5.5-.8l.4-1.1-.2-1.3v-.1zm2.3 5.3.2.5v.2q.4.6.3 1.2v1.2h-.2q0-.7-.4-1.3l-.8-1v-.2l1 1.1q0 .6.3 1v-.8q0-.6-.2-1.1v-.2q-.4-.4-.3-.7zm1 .1v.2l.2.2v.1l-.2-.2-.1-.2q0-.2 0 0m1.3.6-.3 1-.2.9.1-1 .3-1zm.7 5.6v.2zm-.7-1.7v.4l-.2.5v-.5l.1-.5zm-1-.1.1.1v.1zm-1.2-1v.3l-.1.3h-.1v-.4zm-1.7 2.2-.1.3v.4h-.2v-.4zm-4.9 5.8v.2l-.2.2h-.1zm.8-.4-.3.3v-.2h.1v-.2zm1-.7v.1l-.2.1v-.1zm1.5-5.2v1.2h-.1v-1.3zv.1zm1-14.3v.5q0 .3-.3.4zm-1-1.4.2 1.3v.1l-.1-.7zm-1.4 2.2-.4-.7-.1-.6h.1v.6zm1.6 3.8v.3h-.2v-.3zm-2-3q.6.7.7 1.5v1q.3 0 .4-.4l.1-1.2.3-.7v-.8h.2l.4 1.2.3 1.3h-.1l-.3-1.3-.4-1-.3 1.4v1.2q-.2.5-.5.5v.6h-.1l-.1-1.8q-.1-.8-.6-1.4zm1.2 7v1.1h-.2v-.6zm-2.2 1v.5l-.1-.5m2-3.2-.2.8-.4.7-.3.9v1l-.1-1q0-.6.3-1l.4-.7.1-.7zm-.5-1.1v.8l-.5.8-.4.6-.2.7h-.1l.2-.8.5-.6.3-.8zm-2.4 1.2q0 .8-.2 1.5l-.7 1v-.2q.4-.3.6-1l.2-1.3m-3.2 2v.2l.2.3h-.1l-.1-.2zq-.1 0 0-.1m-1.2-.1v1l.3 1 .2.6v.5l.4-.6.2-.8-.1.9-.5.7-.1-.7-.1-.6-.4-1V334m.2 6 .2-1.1h.1l-.2 1zm-.2 1.5v-.6h.1zm-.8 2.5.2-.3.2-.4q.1 0 0 0l-.1.5-.3.4zm-1.2-9.3v.3h-.1v-.3m-2 6v-.4h.1zm5.1-10.4-.2 1.4q0 .6.3 1l.5 1 .1-.5v-.6l.1.6-.1.7h-.1v-.2l-.5-1q-.4-.4-.4-1t.2-1.5zm-.4-1.8v1l-.2 1-.2 1.5q0 .7.3 1.4h-.1l-.3-1.5q0-.8.2-1.4l.2-1zm-2.3 4.2v.6q0 .4.2.7v.1h-.1l-.2-.8v-.7zm-1-.6v.8l-.1.4.1.4v.1l-.2-.5v-.4l.1-.4v-.4zm6-11.1v1q0 .6.3 1v.2h-.1l-.3-1.1v-1.2m-.7 1 .5 2.4v.1l-.2-1.4zm-3.7-.3-.5 1.6q0 .8.2 1.3a5 5 0 0 1 0 2.3h-.1a4 4 0 0 0 0-2.2q-.3-.7-.2-1.4t.5-1.7zm3.5-1.5-.1.6q0 .3-.3.5-.4.3-.3.6v1.1h-.1v-1q0-.5.3-.8l.3-.5v-.5zm-3.6-.1v.9q0 .4-.4.8l-.4.8v1h-.2l.1-1.1.4-.8.4-.8v-.8zm2 .5v.3l.2.4h-.1l-.1-.3zm0-.7q-.3 0-.4.4l-.2 1 .2.8v1l-.1-1-.2-.6q-.6.7-.6 1.6t.5 2.1v.1q-.6-1.3-.6-2.2t.7-1.7l.1-1.1.5-.6h.1zm-.6-1.2v.2q0 .5-.3.9l-.2.4v.6h-.1v-.7l.3-.4.2-.9v-.1zm5.8 9.4.2.5v.6h-.1v-.6zm0 2.6a4 4 0 0 1-.2 1.8l-.3.7.2-.8.2-.9zv-.1zm-1.2-2.6q.5.9.7 1.8v1.9h-.1a5 5 0 0 0-.7-3.6zm-.1 2.8a8 8 0 0 1-1.2 2.3l-.2.7h-.1l-.1-.7-.2-.7-.3-1.2q0-.6.4-1.1l.2-.8.1-.8h.1v.8l-.4.9-.3 1q0 .5.3 1.1l.3 1.1.1-.4.3-.5zM536 329l.1 1 .3 1h-.1a5 5 0 0 1-.4-2v-.1zm-1.8 1v.5zm.6-2.1v.7l-.3.6h-.1v-.1l.2-.6zm-1.6 4a7 7 0 0 1-.3-2.4q.1-.9.6-1.4l.5-.8q.2-.4 0-1.3h.1v1.4l-.5.8q-.5.6-.6 1.4t.3 2.4zm-1-1.7v.5l.1.5v.1l-.2-.6zm4.7-3.7q.3.5.3 1.1t-.2 1.3l-.1-.1.2-1.2q0-.5-.3-1zm1.5-1.3.2 1.2-.1 1.2h-.1q0-.6-.2-1 0-.5-.4-.9 0-.2 0 0 .4.3.5.8l.2.6zm.9-1.4.4 1v2.2l.2.6-.3-.6v-2l-.4-1zm-2.3-.7-.2.7v.9h-.1v-1q0-.4.2-.7zm-4.4 3.4q0 .8-.4 1.5l-.8.8h-.1v-.1l.8-.8q.3-.5.3-1.4zm0-2v.6l-.3.6.1-.7v-.6zm3 0v1.5h-.1zm.7-1.6q-.3.4-.3 1l.2 1q.3.9.3 1.7t-.4 1.6v-.1l.2-1.6-.2-1.6-.2-1q0-.7.3-1.2v.1m-4.6-12q.6-.6 1-.5.6 0 1.2.5h.8v.2h-.8q-.6.6-1.1.7t-.9-.4v-.2q.4.4.9.4t1-.6q-.6-.4-1-.4-.6 0-1 .4z"/><path d="m532.4 310.3.2.4q0 .4-.3.4l-.2-.4q0-.3.3-.4m1.8 2.5.7-.7h.1q0 .3-.3.5l-.5.4zm3.8-1.5h.3l.3.3q0 .2-.1 0l-.3-.2h-.2zm-2.2-.2q.1-.4.4-.6h.7v.1h-.7zq-.1 0 0 0m.2.5v-.3l.3-.2h.1v.1l-.3.2zm-3.6 1-.2.4v.5h-.1v-.5q0-.3.2-.4m1 .9v.2h-.1v-.3m-.6-1.6.3.1h.4v.2h-.4zm.7-2.6h-.2l-.2.3.1-.3.3-.1zm-1.1 0-.2.1v.2h-.2l.1-.3.3-.1zm-.7 0-.2.4h-.1v-.4l.3-.2zm-.8.8-.2.3-.2.2zm.2 1.3-.2.2-.1.2h-.1l.1-.3.2-.2v.1m-.8.3v.4h-.1zm1.1 2.2v.8h-.1v-.8zm-.6-.8v.5h-.1v-.5m-.5-6.3.3.3.1.4-.2-.4zv-.1zm5.3 10.2.1 1-.1.9h-.1l.1-1-.1-.9m-1.7 2.5.3-1 .5-.7.3-.9v-1h.1v1.1q0 .5-.4 1l-.4.7zm-2.2-1.2.2-.3.2-.2h.1v.1l-.3.2zm-.4-.3.2-.3.4-.3v.2l-.3.2zm2.3-2.7.2.1h.3v.1h-.3l-.3-.1zm-1.2-.4.1-.1h.1v.2zm24.8 13.4.1.3v.3q.1 0 0 0v-.2l-.2-.3m-27.4 13.4.4.5.4.2v.1l-.5-.2-.4-.5z"/><path fill="red" d="m550 311 1.7.2q-.8.6-2 .8l.4-.5zm-1.5-.4 1.2.4v.4l-.2.4v.2l-.9-.1h-.4v-.1l.3-.6zm-10.8-5.8 2.1.2q.4.3.5.6.2.5.1 1.1l.1.2h.1l-.1-1.4q0-.3-.3-.4h.2q1.3.3 2.2 1.2.3.4.2.7 0 .4-.3.7v.2h.1l.4-.8v-.5l1.7 1.5v.7l-.4.3-.1.2q0 .2.1 0 .4 0 .6-.4l.1-.6 1.2 1v.6l-.4.4v.1q0 .3.1.1.4-.2.5-.5v-.5l.5.3 1.3.7q.2.3.1.6l-.2.4v.2c-1.5-.4-2.8-1.5-4.2-2.5l-.5-.3-1.6-1.2-.2-.1-1.5-.8-1.7-.2q0-.7-.2-1.2z"/><path fill="red" d="M535.3 305.3q1.1-.4 2.2-.5.5.4.6.8.2.4.1.9a3 3 0 0 0-1.8 0l-.7-1zm7.7 6.5-.6-.6q-1.5-1.2-3.1-1.7.6-.7.4-1.5l-.7-1q.6 0 1 .2 1 .3 2 1v1.2q0 .5-.5.8v.2q0 .1 0 0 .7-.3.8-1l-.1-1q.6.4 1 1l1.1 1.2q0 .9-.3 1-.3.3-.9 0z"/><path fill="red" d="m545 314.2-1.8-2.2.9-.1q.4-.3.4-1l1.2 1.4.5.8v.9l-.3.2h-.8"/><path fill="red" d="m547.3 316.5-.7-.6-1.4-1.5h.7l.4-.2.2-.5v-.3l2.1 2.4q0 .4-.3.5h-1z"/><path fill="red" d="M549.6 318q-1.2-.5-2.1-1.3l1-.1q.3-.1.3-.7l1.3 1v.6z"/><path fill="red" d="m554.4 318.1.3.1q-2.3 1.3-5 0 .4-.2.6-.6v-.6l1.7.8v.3l-.6.4v.2q0 .2.1 0 .4 0 .6-.4l.1-.4q1 .2 2.2.2m-9.9 32.2-.2.4q-.6.4-1.3.3 0 .6.4.6l.7-.3q.1.4-.5 1v.2c.5.9 1.3.8 2 .6.3 0 1-.5 1.2-1q0-.4-.3-1-.5 0-.5-.4-.7-.3-1.5-.4m-15.5-9-1 .6q-.5 0-.6.4 0 .2.4.2.8-.6.1.4l.1.4q1.1 1 2.2.6.7-.4.3-1.2v-.3l-.7-.2-.4-.4zm10.2 6.3q-.1.3.6.6.2.3.1.7c-.4.8-1.7.4-2.4-.1l-.2-.7h.3l.6-.2v-.2q0-.2-.1 0h-1l-.2-.3.3.1.7-.2v-.2zM532 346l-.2.3q-.4.6-.9.7-.3.3.2.6.3.2.6-.4.3-.4.2 0l-.2 1c0 .2.6.4.7.5q.6-.1 1.3-.6.3-.5 0-1.1l-.4-.2-.6-.4v-.1zm2.8-36.5h.4l.6.3q1-.3 1.7-.2.9-.3 1.8 0v-.3q.4-.6.3-1.2l-.8-1.2-1.3-.2-.9.1q.4.3.6.7l.5 1.4-.1.1-.1-.1q-.1-.8-.4-1.3t-.8-.7H535l-.8.4q.5 0 1 .3.3.3.5 1v.3l-.2-.1q-.2-.7-.5-1-.9-.4-1.6 0l-.7.9q1.2.2 2.2.8zm-2.3-1v-.1l.7-.8.7-.3q.4-.5 1-.6l1.4-.1q-.2-.6-.6-.8t-.7-.2q-.8.3-1.5.9h.5v.3h-.9l-1.3 1z"/><path fill="#0093dd" d="m591.2 396.5 21.2-63.1-15.7-36.6-28 10.4-12.9 67.6a244 244 0 0 1 35.4 21.7"/><path fill="#fff" d="M564 331.9a281 281 0 0 1 40.6 24.6l-8.2 24.4q-18-13.2-37.4-22.8z"/><path fill="red" d="m597.7 377 5.5-16.3a277 277 0 0 0-40-24.3l-3.2 16.9a262 262 0 0 1 38 23.1z"/><path d="M567.1 350.2q.6-.4 1.2 0h1l.7-.3v-.4l-.2-.5q-.8-1-1-2.2-.6-.2-.6-.5l-.6-.2q-1 0-1.3-.7l-.6-.7-.3-.5q-.3-.8.2-.9h1.7q.4 0 .8-.6v-.5q0-.3.2-.3.6.2 1 .9.7.3 1.1 1.2 1 .2 1.2.9 0 .4-.4.8v.2q.3.3.3.7.6.3 1.1 1 1.5 0 5 3.5 2.1.8 4.1 2.2l.9.2c2.6 0 4.6.5 7 3.1l2.3 1.2q.7.5 1.6.7 1.3.3 2.7 1.3 1.5.6 2.5 2 .6 1.2-.3 1.6-.4 1.2-1.8.2-1-.1-2-1.5a13 13 0 0 1-2.6-2.1q-.6-.8-1.3-1-.5-.3-.8-.2v.3l.5 1.1v1.5q0 .7.6 1.3l1 .7q.4.1.3.5l.5 2.4q0 .3.4.5.7 1.2-.3 1.4-.7.7-1.4 1-.5 0-.7-.5-.3 0-.4-.4c-.5-.6-.1-1.2 1-.8q0-.3.3-.2v-1.3l-.3-.3q-.7-.3-1.2-1l-2.3-2.3q-1.1-.4-1.9-1.1l-.8-.2q-.3 0-.5.2-.4.4-.8.2l-1.1-.2h-.5q-.7 0-1.1.2-.3.4-.7 0l-.3-.3-.6-.4q-.6-.4-.5-.6c-.7-.4-.4-.9 0-1l1.4.5q.8.3 1.2-.2l.6-.6q-1.2-.3-1.9-1-1.7-1.7-2.9-.7h-.6l-.6-.1q-.6 0-1.2-.3l-2-.2q-.7.4-1.1 0l-.7-.7q-.4-.1-.5-.4-.5-.2-.4-.6-.3-.4 0-.7.6-.2 1 .2l.6.5.6.2q.3-.4 1-.2l.7-.2v-.2q-.6-.4-.8-1.2-1-.2-1.6-1-.6 0-1-.5l-.8-.1q-.8 0-1.4-.2l-.9-.2q-.4.6-1 .2l-.8-.9q-.4-.2-.4-.5-.4-.4 0-.7t1 .2z"/><path fill="#fff" d="M583.2 359q0-.1-.4 0-1.2-.2-2.2-1-1-1-2.1-1.3l.8-.5 1.5.2 2 1a3 3 0 0 1 1 1.2l.5.6q.3.2.3.5l-.7-.2z"/><path d="M584.9 309.2v.3l1 6.9-3.8 4-.2.2.3.1 4.7 3 1 6.8v.3l.2-.2 3.8-4 4.8 2.9.2.1v-.3l-1-6.9 3.8-4 .2-.2-.2-.1-4.8-3-1-6.8v-.3l-.2.2-3.8 4-4.8-3z"/><path fill="#f7db17" d="m582.6 320.4 3.5-3.8 4.5 2.7zm8.6-1.1 3.6-3.8 4.4 2.7zm8-1-3.5 3.9-4.5-2.7zm-8.6 1.3-3.5 3.7-4.5-2.7zm-5.2-9.7 4.5 2.7.9 6.4zm5.8 9.8 4.4 2.7 1 6.4zm5.2 9.2-4.5-2.6-.9-6.5zm-5.7-9.8-4.5-2.7-1-6.4zm3-10.2 1 6.4-3.6 3.8zm-2.8 11 .9 6.4-3.6 3.7zm-2.8 10-1-6.4 3.6-3.8zm2.8-11-.9-6.4 3.6-3.7z"/><path fill="#1a1a1a" d="M8 195.3c170.8-85.3 341-54.5 513.3-28C676.5 191 833.4 211.8 992 132.7v672c-170.8 85.3-341 54.5-513.3 28C323.5 809 166.6 788.1 8 867.2zm31.3 19.3v604.5c306.5-128.2 611.1 96 921.5-33.7V180.9C654.2 309 349.5 84.9 39.3 214.6" opacity=".2"/></svg>