<svg xmlns="http://www.w3.org/2000/svg" viewBox="0 0 1000 1000"><path fill="#171796" d="M8 195c171-85 341-54 513-28 155 24 312 45 471-34v672c-171 85-341 54-513 28-155-24-312-45-471 34z"/><path fill="#fff" d="M8 195c171-85 341-54 513-28 155 24 312 45 471-34v448c-171 85-341 54-513 28-155-24-312-45-471 34z"/><path fill="red" d="M8 195c171-85 341-54 513-28 155 24 312 45 471-34v224c-171 85-341 54-513 28-155-24-312-45-471 34zm492 479c53 8 95-45 96-117V402c-63-8-127-20-192-28v155c1 72 43 136 96 145"/><path fill="#fff" d="M500 672c52 7 94-44 94-115V404l-188-27v153c0 70 42 133 94 142"/><path fill="red" d="m446 387-36-5v54l36 5zm0 108 36 6v-54l-36-6zm-36 35v15l36 5v-55l-36-5zm108-24-36-5v54l36 6zm0 109 36 5v-54l-36-5zm36 35q12-10 21-27l-21-3zm-108-46 36 5v-54l-36-5zm-21-3q9 18 21 32v-29zm81 66h12v-52l-36-6v52zm84-96v-54l-36-5v54zm-72-65 36 6v-54l-36-6zm0-108-36-6v55l36 5zm72 65v-54l-36-5v54z"/><path fill="#fff" d="m592 400 23-67-17-39-29 10-20-34-26 17-23-30-23 23-26-25-20 28-29-18-17 36 23 72q42-21 92-14 50 9 92 41"/><path fill="#0093dd" d="m431 286-28-18-15 32 6 20 15 49q17-9 35-12z"/><path fill="#fff" d="m430 320 1 9q-1 18-13 17-11-2-14-17 4 9 12 11 13 1 14-17z"/><path d="m430 320 1 9-1 8-1 3-4 4-2 2h-8l-4-3-5-8-2-6 2 4 3 4 3 2 4 1h3l2-1 6-5a21 21 0 0 0 3-14m0 2v5l-2 7-2 2-2 2-2 2-6 1-7-4-5-7 2 5 3 5 4 4 2 1 3 1h2l5-2 5-8a24 24 0 0 0 0-14m-13-29-1 7 4 5-5 2-1 6-4-5-5 2 1-7-4-5h1l4-2 1-6v-1l4 5z"/><path fill="#f7db17" d="m411 302 4 4 4-1zm1-1 7 4-3-5zm-9-3 8 3-4-5zm8 3-8-3 3 5zm0 0 6-8-5 2zm-5 8 5-7-4 1zm5-7-5 7 4-1zm6-9-6 8 5-1zm-6 8-3-11-1 6zm3 12-3-11-1 6zm-3-11 3 11 1-7zm-2-12 2 11 1-6z"/><path fill="#171796" d="m477 283-26-24-20 27 13 72q19-4 37-3z"/><path fill="red" d="m441 340 39-3-1-18q-21-1-41 3zm-6-36q21-4 43-3l-1-18q-24-1-46 4z"/><path fill="#0093dd" d="m523 290-23-29-23 22 4 72a175 175 0 0 1 38 6z"/><path d="m500 319-2 2v1l-1 1-2-1-1-2h-1v-1l-1 1 2 4 1 1v2l-2-1-1-1v1l2 5h-2l2 3-1 1-1 2 2 1v3h1v2h2v3h1l1-2v1l1 1v1l1-2 1 2h1v-3l2 1v-3h1v-2h2v-1l-1-1-1-2 2-2v-1h-1l1-5h-3l1-1v-1l2-4h-2l-1 1-2 1-1-1v-2z"/><path fill="#f7db17" d="M506 324v1zm0 2-11-2v1zm-11-2 11 2v-2l1-2-1 1-1 1q-2-1-2 1v-1l-1-1v-1l-2-3-1 2h-1v1q1 1 0 0v2h-1l-1-2h-1l-1-1-1-1 1 2v1q1 0 0 0zm10 5v1h-1zh-1q0 2 0 0h-3l-1-1v1-1h-1v1-1h-1v1q2 0 0 0v-1h-1 1v1h-1v-1h-1v1h1-1v-1l-1-1h-2l1 1 1 2v-2 1l1 2-1-1-1-1v-1l-1-1 1 4 1 1v1l1 1-1-1-1-1h-1l1 1h1v1-1h-1l-1-1 2 3h2-2l-1 1v1l1-1h1-1l-1 1v1h1-1 3-1v1l-1 1h1l1-1-1 1-1 1 1-1h1-1l-1 1h2v-1h1v1h-1v1l-1 2 1-1v-1l1-1v1l-1 1v1l1-1v1h-1 1l1-1v-1 4-2 2-1l1-1v1-2 2l1 1v1-3 3l1-2v1-1l1 1-1-1v-1h1v2-2 3l1-2-1-1v-1 1h1v1h1l-1-1 1 1h1l-1-1v-1l-1-1 1 1v2h1v-2l-1-1 1 1h1l-1-1-1-1 1 1 1 1-1-2v-1h-1 1v1l1 1v-1l-1-1-1-1h1v1l2 1v-1h-1 2l-1-1-1-1h-1 1q0-1 0 0l1 1-1-2v-1q2 1 2-2v1h-2v1-1h2v-1h-1l-1 1h-1l1-1 1-1 1-3h-1v2l-1 1v-3h1l-1 1v1l1-1v-1l1-1h-1zm0-1-10-1zm-10-2 10 1v2zm8 0"/><path d="M500 323h1v-1 1zm0 0-1-1v2m3 16-1 1v-1zm0-1-1 1zm-4-1 1 1v1zm0 1 1 1zm0 2h2v-2h-1v-2 1l1 1h1v-2h-1 1v2h-1v2h1zm1 1h1zm2-10 1-1 1-1v1h-1zm-2-1h-1zm0 4h1zm1-6v3l-1 1v1l-1-1-1-1v-1l-1-1 1 1 1 1h1v1l1-1zm-1 3-1-1v1l1 1h1zm2-3-1 1v2h1v1l1-1h2v-1 1h-1v2h-2v-1h-1v-3zm2 3-1 1v1h1v-1h1zm-5 0-1 1zm4 0 1 1-1 1zm-13-47-1 2v1l-1 2-2-2-1-1-1-1h-1l2 5 1 2h-2l-1-1 1 5h-1v1q0 2 2 2l-1 2-1 1v1h2v3h2l-1 1v2h2l1 2 1-1h1v2l1-2 2 2v-3l2 1v-3h1v-2l2-1-1-2-1-1q3-1 2-3h-2l2-5h-3v-2l2-4v-1l-1 1h-1l-1 1-2 1v-1l-1-2z"/><path fill="#f7db17" d="M484 289q-1 0 0 0m11 3-11-1zm-11-1 11 1v-2h1l1-2-1 1h-1l-1 1q-1-1-1 1l-1-1v-1h-1v-1l-2-3-1 2v2h-1v1q0 1 0 0-1-2-2-1v-1l-1-1-2-1 1 3h1zm11 4v-1zl-1-1-1 1 1-1h-1l-1 1v-1h1-1q0 1 0 0h-2 1-5 1-2l1 1-1-1-2-1h-1l1 1 1 1v1-1l-1-1v-1 1l1 1v1l-1-1v-1l-1-1 1 4h1v1l1 1-1-1h-2 1l1 1q0 1 0 0h-1l-1-1 2 2h1v1h-1l-1 1 1-1h1v1h-2v2h1v-1 1h-1 2l1-1v1h-1l-1 1v1l1-1 1-1-1 1-1 1v1l1-1 1-1-1 1-1 1h2v-1h1-1v3-1l1-1-1 1v1h1v-1 1l-1 1 1-1h1v-1 4-3 2h1v-2 2-2 1l1 1v1-3 3l1-2v1h1v-2 2-2 3h1v-3h-1v-1 1h1v1h1l-1-1 1 1h1l-1-1v-1h-1v-1l1 1v2h1v-2l-1-1 1 1h1l-1-1-1-1 1 1 1 1v-1l-1-1v-1h-1 1v1l1 1v-1l-1-1-1-1h1v1h2-1 2l-1-1-1-1h-1v-1l1 1 1 1-1-2h-1l1-1q2 1 2-2v1h-2v1-1h1v-1h1-1l-1 1h-1l1-1v-1l1-4v1l-1 2h-1l1-1v-1 2l1-2v-1h-1zm0-1-10-1zm-10-1-1-1 11 1v1h-1 1v1zm7-1"/><path d="M490 289v-1l1-1v2m0 0v-1l-1 1zm1 17-1 1zm0-1-1 1zm-4-1 1 2zm0 2h1v1zq0-1 0 0m1 1v-2h-1v-2 2h2v-2h-1v1-1h1v2h-1zh2l-1 1zm0 1h2zm2-10 1-1h1-1zm-2 0-1-1-1-1h1zm0 3v-1h1zm0-6 1 2v2h-1v1h-1v-1h-1v-1l-1-1v-1l1 1 1 1 1 1h1v-3zm0 4-1-1h-1v1h1zm1-3v3h1l1-1h1l1-1-1 1v1l-1 1h-1v-1h-1v-4zm3 2-1 1v1h1v-1h1zm-1 0 1 1-1 1zm19-10-1 2v1l-1 2-2-2-1-1-1-1-1-1v1l2 4v3l-1-1-1-1-1 1 2 5h-2l2 3-1 1-1 2 2 1v3h1v2h2v3h1l1-1 1 2 1-2 1 2h1v-2h2v-2h1v-3h2l-1-2v-2l2-2h-1l-1-1 1-4q0-1 0 0h-2v-2l2-4v-1l-1 1h-1l-1 1-2 1v-2l-1-1z"/><path fill="#f7db17" d="m516 296-11-3v1zm-11-3 11 2v-1h1l1-2h-2v1h-1l-2 1q0 2 0 0v-2h-1v-1l-1-3-2 3q0-1 0 0v1h-1v1q0 1 0 0l-2-2q0 2 0 0l-1-1-2-1 1 2 1 1zm11 5q-1 0 0 0h-1v1-1h-1v-1l-1 1v-1h-1v1-1h-3 1-1v-1 1l-1-1v1l-1-1v1q0 2 0 0l-1-1-1-1h-1v1h1v2-2 1l1 2-1-1v-1l-1-1v-1l1 4v1q2 0 0 0l1 1v1l-1-1v-1h-2 1l1 1 1 1h-1v-1l-1-1h-1l2 3h2v1l-1-1h-1l-1 1v1l1-1h1-1l-1 1v1h1-1 3-1v1l-1 1h1l1-1-1 1-1 1 1-1h1-1l-1 1h2v-1l1 1h-1v1l-1 2 1-1v-1h1l-1 1v1h-1 1l1-1-1 1h1v-1h1v1l-1 1 1 2v-3 2-2h1v1-1 2l1 1v-3 3l1-1v-1 1-1h1v2-2 3l1-2-1-1v-2 1h1v1l1 1-1-1v-1 1h1l1 1-1-1v-1h-1v-1h1v2l1 1-1-2v-1h1l1 1-1-2h-1 1l1 1-1-1v-1q-1 0 0 0v1l1 1v-1l-1-1v-1h-1 1v1h2-1v-1l1 1h1l-1-1-1-1v-1 1h1l-1-1v-1q2 1 2-2v1h-2 1l1-1h-2v1h-1l1-1h1-1v-1h1l1-4v1h-1v2h-1v-1zv1l-1 1 1-1zh1v-1zm-1 0-10-2h1zq1 0 0 0m-9-3 11 2v1l-1-1v2zm7 1"/><path d="m511 293-1-1v-1l1-1zm0-1v-1zm1 17-1 1zm0-1-1 1zm-4-1 1 2zm0 1 1 1v1zm0 2h2v-2h-1v-2 2h2v-1h-1v-1h1v2h-1v2l1 1h-1v-1zm1 1h1zm2-10 1-1h1-1zm-1 0-2-1v-1h1zm-1 3 1-1zm1-6v4h-1v1h-1v-1l-1-1v-1l-1-1h1v1l1 1 1 1h1zm-1 4-1-1v-1 2zm2-3v3h1l1-1h1l-1 1v1h-1l-1 1v-2l-1-1v-1zm2 3v1zm-5-1h-1zm4 1h-1zm-4-1v1zm0 0"/><path fill="#171796" d="m569 307-20-33-26 16-4 71q19 5 37 14z"/><path d="M528 306h3l1 1 1-1 2-1 3-1 3 1 2 1 2 2 2 2 3 1h2q-5 2-8-2l2 3 3 4 4 2h2v1h-3l-5-2-4-4-3-3h-3l1 1h2v1l-2 1h-2v3l1 1v1l1 1 1 1v2h1l3 1 2 2h5l1 2h6l1 1v1h-2v2l-1 1v1h-1v1l-1 1v7l-1 1v2l-2 1-2 3-1 2v1l-1 2-2-1v-1l-1-1 1-1h1l1-2 1-1 1-2v-1l-1-1v-1h-2l-1 1v1l-2 2-1 1v1h-1v1l-1 1-1-1-1-1v-1h1l2-2v-1l1-1v-4h-4l-1 1v2l-1 2-1 2v2l-1 1h-1l-1-1-1-1h1v-1h1l1-1v-3l1-1v-5h-1v1l-1 2v2l-1 1v2h-3v-2l2-2v-2l1-2v-4h-1v-5l-1-1 1-1v-1l1-2v-6h-2v-1l-1-1v-1l1-1 1-2v-1h-1v-2z"/><path fill="#f7db17" d="M546 342v1h-2l1-1h-1v2l-2 2v2h-2 1v1h-2l-1-1h1-1v-1 1l1-1 2-1 1-1v-2l1-1v-4 2l1-1 1-1v2h-1v1h1v-1l1-1v1zm-16-15 1-1zv-1h1zq1 0 0 0v1l1 1-1 1h1v-1h1v-1l-1 1v2h1-1v4l-1 2v2l-2 2h-1l1 1q0-1 0 0l2 1v-1l1-2v-2h1v-3h1l1-1v-4 11l-1 1v2l-1 1-1 1v1l1-1v2l2-1v-1h-1v-1 1h1v-2l1-1v-3l1-2v-1h1v-2 2h1v-1 1h1v-2 3l1-1 2-2-1 1-1 1 1 1 1-1 1-1v-2l1-1h1l-1 1-1 1v3l1-1v-1h1-1v2h1v1l1 1v-1h1-1v1l1 1v-1 1l1 1v-1 2l1-1-1 1v1l-2 3-1 2-1 1h-1v1l1-1v2h2l1-1v-1q-1-1 0 0v-1l1-1 2-3v-2 2l2-1v-3l1-1v-1 1-2h-1 1v-1h1l-1-1-1-1 1 1v-2l-1-1v-1 1l1 1h1v-1l-1-1h1-1v-1l1 1v-2l1 1v-1q0-1 0 0v1h1v-2h-1 1v-1h1l1-1v-1l-2 1h1-2v1-1l-1-1v1-1h-1l-1 1h1v1l-1-1h-1v-1 2-2l-1-1v1-1l-1-1v2h1v1-1h-1v-2h-1v1-1h-1l1 4v-2l-1-2v1l-1-1 1 2-1-1-1-1 1 3-1-3v3-3l-2-1 1 1-1-1v-1h-1v1l-1-1v1l1 1v1l-1-1v-2h-1v3-3l-1-1v1-2l-1 1v-1l-1-2h1l-1 1v-2 1l-1 1 1-1v-2l-1 1v-1h1l-1-1v1-3h-1v1-1h1-2 2v-1h-1 1q0-1 0 0h2-1 1l1-1h-1 2l-2-1-1-1h-3v-1l1 1h4v-3h-2l1 2h-1v-1l-1-1h-2l1 1 1 1h-1v-1h-2v1h-1v-1h1l1-1h2v-1h-3v1h1-1l-1 1h-1l-1 1v1l-1 2v1-1 1h-1v1l1 1v1h1v-2 2l1-1h1l-1 1v3h1v-1q0-1 0 0v-1l1-1h1-1l-1 2-1 2 1-1 1-1v2-1h-1l-1 1v1h1-1v1l1-1-1 1-1 2 1-1h1l-1 1h-1v1zm0-18v-1h1-1l-1-1h1l2 1 1 1h-2z"/><path d="m549 345-1 1zm2-10v2zv3zm-1 3v3zm1 1v2zm1 0v1h-1l1 1h-1v-1zm0-8v1h-1v-1zm-2-2 1 1v2l-1-1v3l-1 1v-2 2l1-1v-3l1 1-1-2zm2 0v1zm-8-1v1zm3 2v3l1 1v-3 4l-1-1zm-1 2v1l-1 1h1v-1zh-1v1h-1l1-1zm-2-2v2l-1 1v1l1-1 1-1-1 1-1 1v-1l1-1zm2 5v2l-1-1zl1 1 1 1v-2zm2 1v1zm-8 10q0 2 0 0m3-6v2zm-1-13v-1zm-1 1 1 1v1-2l1-1v3-3l-1 2v2-2zm1 4v1l-1 1v2-2l1-1zm-1-1v2l-1 1v-1h1zm-2 1v2l-1 1 1-1zm-4 2v3h1v-1 1l-1 1v-3zm0 6v-1zm1-10-1 2 1 1v1-1 1-1l-1-1zm-1-1v4-5m-2 5v1zm-1-1v1-2m6-10v2zm-1 1 1 2zm-4-1v6zm4-1h-1v2-2zm-4 0v1h-1v1-1zm2 0v3-2l-1 2v2-4zm0-2-1 1v1-3m6 13v3zm-1-2 1 2v1zm0 3-1 2v1l-1-2v-2l1-2-1 2v2l1 1v-1zm-3-2v1zm-1-1-1 1zm-2 4v-4l1-1v-1 1l-1 1zm4-6v3zm1-1v2zv2zm1-2v2l1 1v1h-1zm-2 0v1h-1zm-5 3v2l-1 1v-1h1zm3-2v2zm1-1v4-6zm-5-13h3v1h-3 1zm1 0h-1zm3 7v1zm-1 2 1-1v-1 1zm-5 23q0-1 0 0"/><path fill="red" d="M550 311h2zm-12-6h2v1l1 1v-1l-1-1h1l2 1v2-1l2 1v1h-1 1v-1l1 1v2l1-1 1 1v1l-4-3h-1l-1-1-2-1h-2zm-3 0h2l1 1-2 1zm8 7-3-1 1-2-1-1h1l2 1v1l-1 1h1v-2l1 1 1 2zm2 2-2-2h1l1-1 1 1v2zm2 3-2-3h1v-1l3 3h-2m3 2-3-1h1l1-1 1 1zm4 0h-5v-1l2 1-1 1h1v-1zm-9 32h-1v1zv2h2l1-1v-1h-1zm-16-9-1 1h-1l1 1q0-1 0 0l2 1v-1l1-1h-2zm10 7h-2l-1-1h1-1v-1 1l1-1zm-7-2-1 1v1l1-1v2l2-1v-1h-1zm3-37h3v-3h-2l1 2h-1v-1l-1-1h-2l1 1zv-1h-2v1zm-3 0h1l1-1h2v-1h-3l1 1h-1z"/><path fill="#0093dd" d="m591 397 21-64-15-36-28 10-13 68q18 9 35 22"/><path fill="#fff" d="M564 332q21 10 41 25l-9 24q-18-14-37-23z"/><path fill="red" d="m598 377 5-16q-19-15-40-25l-3 17z"/><path d="M567 350h3v-1l-1-2-1-1-2-1-1-1 1-1h2v-1l1 1 1 1 2 1-1 1 1 1 1 1 5 3 4 2 1 1q3-1 7 3l2 1 1 1 3 1 3 2-1 1-1 1-2-2-3-2-1-1h-1v3l1 1 1 1 1 3v2h-3q0-2 1-1h1v-2h-1l-1-1-2-2-2-1-1-1v1h-4l-1-1-1-1q-1 0 0 0h3v-1l-2-1-2-1-1 1-1-1h-4l-1-1-1-1h4l-1-1-1-1-1-1h-4l-1-1v-1q-1 0 0 0z"/><path fill="#fff" d="m583 359-2-1-3-1 1-1h2l2 1zl1 1z"/><path d="m585 309 1 7-4 4v1l5 3 1 7 4-4 5 3v-1l-1-7 4-4-5-3-1-7-4 4z"/><path fill="#f7db17" d="m583 320 3-3 5 2zm8-1 4-4 4 3zm8-1-3 4-5-3zm-8 2-4 3-4-2zm-6-10 5 3 1 6zm6 10 5 2 1 7zm5 9-4-3-1-6zm-5-10-5-3-1-6zm3-10 1 6-4 4zm-3 11 1 6-4 4zm-3 10-1-6 4-4zm3-11-1-6 4-4z"/></svg>