<svg xmlns="http://www.w3.org/2000/svg" viewBox="0 0 1000 1000"><path fill="#d21034" d="M8 195c171-85 341-54 513-28 155 24 312 45 471-34v672c-171 85-341 54-513 28-155-24-312-45-471 34z"/><path fill="#00209f" d="M8 195c171-85 341-54 513-28 155 24 312 45 471-34v336c-171 85-341 54-513 28-155-24-312-45-471 34z"/><path fill="#fff" d="m407 402 186 27v169l-186-27z"/><path fill="#016a16" d="m537 543-38-4-37-6s-20 6-28 6c-8 1-7 4-13 5l-8 1-6 2v24l186 27v-22l-6-4-9-5c-6-2-5-5-13-8s-27-16-28-16m1 0q18 13 27 16l7 5 6 3 7 4 2 1q5 1 6 4v22l-186-27v-24l6-3h8l6-2 7-3q9 0 28-6l37 6zm-1 1-38-5-37-5-28 6-7 2-6 2-3 1h-5l-6 2v23l186 28v-22l-6-4-2-1-7-4-6-3-7-5q-9-3-28-15"/><path fill="#f1b517" d="M489 484h3l5 25-1 7z"/><path d="M489 484h3l5 25-1 7zm0 0 7 31 1-6-5-25z"/><path fill="#fff" d="m486 467 2 19h2z"/><path d="m486 467 3 20-2-1zm1 4 1 15h2z"/><path fill="#f1b517" d="m492 509-9-27h3l10 33z"/><path d="m491 509-8-27h3l10 33zm1 0 4 5-10-32h-3z"/><path fill="#fff" d="m479 466 4 19h2z"/><path d="m479 467 7 20-3-1zm1 2 3 16h2z"/><path fill="#f1b517" d="m484 499-5-13h2l9 21z"/><path d="m484 499-5-13 2-1 9 22zm0 0 6 7-9-20h-2z"/><path fill="#fff" d="m473 471 5 18h3z"/><path d="m472 471 8 18h-3zm2 2 4 15 3 1z"/><path fill="#0a328c" d="m485 501-23-32c-7 6-6 17-5 17l25 27z"/><path d="m485 501-3 12-26-27q-1-12 6-17zm0 0-23-31q-6 4-5 16l25 27z"/><path fill="#d20014" d="m498 518-17-22c-7 0-2 12-1 14l18 20z"/><path d="M498 518v12l-18-20-1-1-2-8 1-4 3-1zm0 0-17-22-3 2v3l2 9 18 19z"/><path fill="#f1b517" d="m496 515-34-48-2 1 37 52z"/><path d="M497 515v6l-37-53 2-1zm-1 0-34-48-1 1 36 51z"/><path fill="#f1b517" d="M460 464v-2l-7-6 3 9h3v1z"/><path d="m460 464-2 2v-1l-3-1-3-10 7 7zm0 0-1-1v-2l-7-6 3 8 3 1v1z"/><path fill="#f1b517" d="m456 467 5-4 2 3-4 4z"/><path d="m456 467 5-5 3 4-5 4zm0 0 3 2 4-3-2-3z"/><path fill="#0a328c" d="m452 473 2 3 7-7 6 1 1-2c-4-5-7-1-7 0zm0 0 9-6 2-1q2-1 5 2l-1 2-5-1-8 7h-1zm1 0 1 2 7-6h6l1-1q-3-3-5-2l-2 2z"/><path fill="#d20014" d="M457 478q1-6 4-7c2 1 4 3 7-3-2 2-6-1-7-1l-2 1 1 1-6 6zm0 0-4-3 6-6v-1l2-1h1q4 3 6 1-1 6-7 3l-2 3zm-1-1 2-4 3-2q4 2 7-2-3 1-7-2l-1 2-6 6z"/><path fill="#0a328c" d="m475 507-28-30c-5 5-1 22-1 23l27 21z"/><path d="m475 507-1 14-28-21q-5-19 1-23zm0 0-28-30q-5 6-1 22l27 21z"/><path fill="#d20014" d="m498 531-23-25c-8 1-2 14-1 16l24 19z"/><path d="M499 531v10l-25-19-1-1-2-9q0-6 4-6zm-1 0-23-25q-4 1-4 6l3 9v1l24 19z"/><path fill="#f1b517" d="m497 526-50-50-1 1 53 55z"/><path d="m498 526 1 7-53-56 1-1zm-1 1-50-51-1 1 52 54z"/><path fill="#f1b517" d="m445 473-1-1v-2l-8-5 4 8 3 1 1 1z"/><path d="m445 473-1 2-1-1h-3l-5-9 9 5zm0 0-1-1-1-2-7-4 4 7 3 1 1 1z"/><path fill="#f1b517" d="m442 476 4-5 2 3-3 5z"/><path d="m441 476 5-5 3 3-4 5zm1 0 3 2 3-4-2-2z"/><path fill="#0a328c" d="M439 483v3l7-8h5l1-2c-4-4-7 0-7 1zm0 0 6-6 2-3q3-1 5 2h1l-2 2-5 1-7 7zm0 0v2l7-7h5l1-2q-2-3-5-1l-2 2z"/><path fill="#d20014" d="m443 488 3-8c3 1 5 3 7-4-3 3-7 0-7 0l-2 2v1l-5 7zm0 0-4-2 5-7v-1l2-3v1q5 3 6 0h1l-3 5-4-1-2 3zm0 0 1-5 2-4v1l4 1 2-4q-2 2-6-1l-2 2v1l-5 7z"/><path fill="#0a328c" d="m473 522-33-26-4-3q-2 9 1 14-1 3 2 12 1 8 5 12c4 15 16 18 21 7z"/><path d="m473 522-8 16q-3 9-11 6-7-1-10-13-4-4-5-12l-2-12-2-6 1-8 19 14zm0 0-18-14-18-15q-2 4-1 8l1 6h1l-1 2 2 10 5 12q3 10 10 13 7 2 11-6z"/><path fill="#d20014" d="m497 541-25-20c-8 1 0 17 1 19l24 14z"/><path d="M497 541v13l-24-14-1-1-3-11v-5q0-2 3-3zm0 0-25-20q-2 0-3 2v5l3 11 1 1 23 13z"/><path fill="#f1b517" d="m493 534-56-42-1 2 59 46z"/><path d="m493 534 2 6-59-46 1-2zm-1 0-55-42-1 1 58 46z"/><path fill="#f1b517" d="M434 490v-2l-9-3 6 7h2l1 1z"/><path d="m434 490-1 2-1-1h-2l-6-8 9 4v2zm0 0-1-1-1-2-7-3 5 7h3z"/><path fill="#f1b517" d="m432 494 3-6 3 2-3 5z"/><path d="M431 494q1-4 4-6v-1l3 3-3 6zm1 0 3 1 3-5-3-2z"/><path fill="#0a328c" d="m429 501 2 3 5-10 5-1 1-2c-4-4-6 2-7 2zm0 0 6-8 2-3q2-2 5 1l-1 2-4 2-6 9h-1zm1 0 1 2 5-9 5-1 1-2q-2-3-5 0l-1 2z"/><path fill="#d20014" d="M435 505c-1-2 1-8 1-9 3 1 5 2 6-5q-4 3-6 1l-2 2 1 1-4 9zm0 1-5-2 4-9v-1l2-2q5 2 6-1h1l-3 6-4-1-1 4zm-1-1 1-5 1-4h4l2-4h-6l-1 2v1l-4 8z"/><path fill="#f1b517" d="M510 487h-2l-5 23 1 8z"/><path d="m510 487-2-1-5 24 1 8zm0 0-6 30-1-7 5-23z"/><path fill="#fff" d="m513 471-2 19-2-1z"/><path d="m514 472-4 18 3 1zm-1 3-2 15-1-1z"/><path fill="#f1b517" d="m508 512 9-25-4-1-9 30z"/><path d="m508 512 9-25-4-1-10 30 1 1zm0-1-4 5 10-29h2z"/><path fill="#fff" d="m521 473-4 17h-3z"/><path d="m521 473-6 17 3 1zm-1 2-3 15h-2z"/><path fill="#f1b517" d="m516 504 5-12-3-1-9 19z"/><path d="m516 504 5-12-3-1-9 19h1zm0 0-6 5 9-17h1z"/><path fill="#fff" d="m527 479-5 16h-3z"/><path d="m527 479-8 16 3 1zm-1 2-5 14h-2z"/><path fill="#0a328c" d="m515 505 22-24c7 8 6 18 6 19l-25 19z"/><path d="m515 505 3 14 25-19q1-12-5-19h-1zm0 0 23-24q6 7 5 19l-25 18z"/><path fill="#d20014" d="m502 519 17-17c6 2 1 12 1 14l-18 15z"/><path d="M502 519v12l18-15v-1q3-4 2-7v-4l-3-2zm0 0 17-17 2 2 1 4-2 8-18 14z"/><path fill="#f1b517" d="m503 516 35-37 1 1-36 41z"/><path d="m503 516-1 5 38-41-2-1zm1 0 34-37 1 1-36 40z"/><path fill="#f1b517" d="M540 476v-2l7-4-3 7h-3l-1 1z"/><path d="m540 476 1 3 1-1 3-1 3-8-8 4zm0 1 1-1v-2l6-4-3 7h-2l-1 1z"/><path fill="#f1b517" d="m544 480-6-6-2 3 5 5z"/><path d="m544 480-6-6-2 3 5 5zm-1 0-2 2-4-5 1-2z"/><path fill="#0a328c" d="m547 488-1 2-8-9-5-1-1-2c4-4 7 1 7 2zm1 0-9-9-2-2q-3-2-6 1l2 2 5 1 8 9zm-1 0-1 2-8-9-5-1-1-2q2-3 5-1l2 3z"/><path fill="#d20014" d="m543 491-4-8c-3 1-5 2-8-5q6 3 7 1l2 2v1l6 7zm0 0 4-2-7-7v-1l-2-3q-4 3-6 0h-1q3 6 7 5h1l2 3zm0 0-2-5-2-3h-1q-4 0-6-4h6l2 2v1l6 7z"/><path fill="#0a328c" d="m525 514 28-21c5 7 1 23 1 23l-28 13z"/><path d="m525 514 1 15 28-13q4-17-1-23zm0 0 28-21q4 7 1 23l-28 13z"/><path fill="#d20014" d="m501 531 24-17c7 3 2 14 1 16l-25 11z"/><path d="M501 532v10l25-12v-1l3-8q0-6-4-7zm1 0 23-18q4 1 3 7l-2 8v1l-25 11z"/><path fill="#f1b517" d="m502 527 51-35 1 1-53 39z"/><path d="m502 527-1 6 53-40-1-1zm0 0 51-35v1l-52 39z"/><path fill="#f1b517" d="M555 490v-2l8-2-4 7-3-1-1 1z"/><path d="m555 490 1 2 1-1 3 1 4-8-8 3zm0 0 1-1v-1l7-3-4 6h-2l-1 1z"/><path fill="#f1b517" d="m558 494-4-6-3 2 4 5z"/><path d="m558 494-4-7-3 3 4 6zm0 0-3 1-4-5 3-2z"/><path fill="#0a328c" d="M561 502v2l-7-9-6-2-1-2c4-4 7 2 8 2zm0 0-6-9-2-3q-4-2-6 1l1 2 5 2 7 9h1zm0 0-1 2-6-9v-1l-5-1-1-2q1-3 4 0l3 3z"/><path fill="#d20014" d="m557 505-3-9c-3 1-5 2-7-6 2 4 7 2 7 2l2 3-1 1 6 8zm0 1 4-2-5-8v-1l-2-3q-5 2-7-2 1 5 3 6h4l2 4zm0-1-1-5-2-4h-4q-2-1-2-5 2 3 6 1l1 3v1l5 8z"/><path fill="#0a328c" d="m527 530 36-18q3 10-1 14 1 3-1 12l-5 10c-4 14-16 13-21 1z"/><path d="m527 530 7 19q4 9 12 9 7 0 10-10 4-3 5-10l2-10v-2l1-5q2-5-1-9l-18 9zm0 0 18-8 18-9q2 3 1 8l-2 4v3q1 4-1 10-2 7-5 10-3 10-10 10-8 0-11-9z"/><path fill="#d20014" d="m503 542 25-13c7 3 0 18-1 20l-24 6z"/><path d="M503 542v13l24-6 1-1 3-10v-6l-3-3zm0 0 25-13 3 4v5l-4 10-24 6z"/><path fill="#f1b517" d="m507 537 56-26 1 2-59 28z"/><path d="m507 536-2 6 59-29-1-2zm0 1 56-26 1 2-59 28z"/><path fill="#f1b517" d="M566 510v-2l8-1-5 6-2-1-1 1z"/><path d="m565 510 1 2h4l6-6-9 1-1 2zm1 0v-1l8-1-5 5-3-1v1z"/><path fill="#f1b517" d="m568 514-3-7-3 2 3 6z"/><path d="m568 514-3-7-3 2 3 6zm0 0-3 1-3-6 3-1z"/><path fill="#0a328c" d="m570 522-1 3-6-11-5-3-1-2c5-3 7 3 7 4zm1 0-6-9-2-4q-3-3-6-1v1l1 2 5 3 6 11zm-1 0-1 2-6-11-4-2-1-2q2-2 4 0l2 4z"/><path fill="#d20014" d="m565 525-1-10q-6 3-7-7 6 5 7 4l1 2v1l4 9zm0 0h4l-4-10 1-1-2-3q-5 1-6-3h-1q1 6 3 7h4l1 5zm0 0v-5l-1-5h-4l-2-6q1 3 6 3l1 2v1l4 9z"/><path fill="#016a16" d="m498 445-1 20 5 1v-20h5v-8l-15-2v7zm-1 0-5-2v-7l15 1 1 9h-6l1 20-7-1zm1 0-1 20 5 1-1-20h6v-8l-15-2v7zm2-8c-16-20-27-13-31-11l5-1-2 3 5-2-1 2 4-2-1 4 2-1v1q7 3 10 7z"/><path d="M500 437q-10-12-20-14-6 0-10 3l3-1h1v1l-1 2 5-2v1l-2 1 2-1 2-1v1l-1 2h2v1l6 3 4 4-4-4-6-3v-1l-3 1 1-3-1 1-2 1v-1l1-1-5 1 1-2h-4q5-3 11-3 10 1 20 14m-19-7"/><path fill="#016a16" d="M496 440c-2-5-30-16-37-5l5-2v3l3-3-1 3 3-2v3l4-5-1 3 4-1-1 2z"/><path d="M496 440q-3-5-17-8-15-4-19 2 1 1 4-1v-1 3l3-2h1l-1 2 2-2v3l4-4v3l3-1v2h-1l1-2-4 1 1-2-4 4v-3l-3 2 1-3-4 3 1-2-5 1v-1q4-7 20-3 15 4 17 9"/><path fill="#016a16" d="M495 440c-8-7-19-5-19-5-8 4-12 2-13 11l3-3 1 4 1-5 1 4 2-6v4l3-3 1 1 2-3 1 2h3l2-2v2l2-2 1 2 2-2v1l6 1z"/><path d="M494 440q-8-6-18-5l-5 2q-7 3-7 9l2-3 1 3 1-4 1 3 2-5 1 4 2-4 1 2 2-3 1 2h3l2-3v3l2-3 1 2 2-1v1l6 1v1l-7-1v-1l-1 1-1-2-2 2v-2l-2 3v-1l-3 1-1-2-1 2-2-1-3 4v-4l-2 6-1-4v5l-2-4-3 2q1-7 8-9l4-2h1q10-2 19 5z"/><path fill="#016a16" d="M493 441c-6-1-20 3-24 9l2-1 1 3 1-3v2q1-2 3 1v-3l1 3 1-3 1 3 2-5v3l1-2 1 2v-3l1 2 2-2 1 1 7-4z"/><path d="m493 441-13 2-11 7 2-1 1 2 1-2v2l1-1 1 1 1-2 1 2 1-2v3l3-5v3l1-3 1 2v-2l1 2 1-3h1l1 2 7-4-7 5-2-2-1 2v1l-1-2v2l-1-2-1 3v-3l-2 4-1-1v-1l-1 2-1-2v2h-1l-1-2-1 2v-2l-1 2-1-3-2 1q3-4 11-7 9-3 13-2"/><path fill="#016a16" d="M494 442c-7 3-13 12-13 17q4-6 4 2l1-5 1 3v-4h1v-2l1 1 1-3v-4l1 2v-2l5-1z"/><path d="M494 443q-5 1-9 7l-4 8 3-2 1 2v2l1-4 1 2v-3h1v-3l1 1 1-2-1-1 1-3 1 1v-1l5-2v1l-5 1v3l-1-2v3h1-1l-1 2 1 1v1l-2-2v3l-1-1v4l-1-3-1 5-1-3v-2l-2 2-1 1q0-4 4-10t9-7z"/><path fill="#016a16" d="m495 443-3 6h1l-3 2h3q-2-1-5 6l4-2-3 6 2-2-2 7 2-2c-1 5-1 5 1 9v-6l5 6-3-8 5 5-4-7 4 4-4-7 4 1-3-6 3 3-1-4h1l-2-3 1-1v-2h1v-2z"/><path d="m495 443-3 5 2 1-3 2h2v1q-4 1-4 4l3-1h1l-4 5 2-1-2 6 2-2v1l1 8v-6l4 6-2-7h1q1 4 4 4l-4-6 3 3-4-7 4 2-2-6v-1l2 4v-5l1 1-3-4h2v-2h1v-2l1 2h-2l1 3h-2l3 4-2-1 1 4-1 1-2-4 3 6v1l-4-2 4 7-3-3 3 6-4-4 2 7-4-6v6h-1l-2-9-1 2 1-6-2 1 4-5-4 1q1-4 4-5l-2-1 3-2h-1z"/><path fill="#016a16" d="M497 445c-4 6-2 17-4 22z"/><path d="m497 445-3 13-1 9h-1l2-9q0-9 3-13"/><path fill="#016a16" d="M500 437c16-15 27-5 30-2l-4-2 1 3-5-3 2 3-4-3 1 3-2-1v1q-8 0-10 4z"/><path d="M500 437q10-9 20-7 6 0 10 5l-3-1-1-1h-1l1 1 1 2-5-3v1l1 1-1-1-2-1v-1 1l1 3-2-2v2q-3-1-7 1l-4 3h1l4-3 6-1v-1l2 2v-4l1 1 2 2-1-2 4 3h1v-1l-2-2h1l3 1h1-1q-4-4-10-6-10-2-20 8m19-1"/><path fill="#016a16" d="M504 441c2-4 30-7 36 6l-4-3v3l-4-4 2 4-3-4v3l-4-5v3l-3-3v3z"/><path d="M504 441q1-5 17-3 15 1 19 9l-4-3v-1 3l-4-3 1 3-3-3v2l-3-5v3l-3-2v3h1l-1-2 4 2-1-2 4 5v-3l3 3v-1l-1-2 3 3v-2l4 2h1q-5-9-20-9-16-1-17 3"/><path fill="#016a16" d="M505 442c8-4 19 1 19 1 8 6 11 5 12 14l-2-3-2 3v-5l-1 4-2-7-1 4-2-4-2 1-1-4-1 2-3-1-2-3-1 2-1-3-1 2-2-2v1l-6-1z"/><path d="M505 442q7-5 19 1l5 3q6 5 7 11l-2-3v-1l-2 3v-4l-1 3-2-6-1 4-2-5-2 1-1-3-1 2-3-1-2-3-1 2-1-3-1 2-2-3v2l-6-1v1h6v-1l2 2 1-1 1 2 1-1 2 2 3 1v1l1-2 1 3 2-1 2 5 1-4 2 6 1-3v5l2-4 2 3 1 1v-1q-1-6-8-11l-5-3q-12-6-19-1"/><path fill="#016a16" d="M507 443c5 1 20 9 24 17l-3-2v2l-1-2-1 2q0-3-2-1v-2l-1 2-1-3-1 3-2-6v3l-1-3-1 2v-3l-1 2-2-3-1 1-7-6z"/><path d="M507 443q5 1 12 6 9 6 11 10l-2-1v2l-1-2h-1v1-1l-2 1v-2l-1 1-1-3v1l-1 2-2-5-1 2v-3l-1 2v-2h-1v2l-2-3-1 1-7-6 7 7 1-2 1 3v1l1-2 1 2 1-1v2h1v-2l2 5 1-1v-1l1 3 1-3v3-1l1-1 1 2h1v-2l1 3v-3l3 2q-3-5-12-11-7-6-12-6"/><path fill="#016a16" d="M506 444c7 5 13 16 13 21q-4-7-4 0l-1-5-1 3-1-4v-3l-2 1v-7l-1 2-1-3-4-2z"/><path d="m506 444 9 10 3 10-2-3-1 2v1l-1-4-1 2v-3h-1v-3l-1 1-1-3v-4l-1 1v-2l-5-2h-1l5 3v2l2-1v3l-1-1v1q2 1 1 3v1l2-1-1 2h1l1 4 1-2 1 4v-2l1-2 2 3v1h1q0-4-4-11z"/><path fill="#016a16" d="m505 445 3 6h-2l3 3h-2l4 6-4-2 4 6-2-2 2 7-2-2c0 5 0 5-2 9v-7l-4 4 2-7q0 3-4 4l3-5-3 2 4-6-4 1 3-6-3 3 1-5h-1l2-2-2-1 1-2-2-1v-2z"/><path d="m505 445 3 6h-2l3 3-2-1v1q3 2 4 6l-4-3v1l4 6-2-2 2 6-2-2v1l-1 8-1-6-4 4 2-6v-1l-4 4 4-5-1-1-2 2 3-5-3 1 2-6-2 2v-4h-1l2-3h-1v-2l-1-1v-2h-1v2l1 1v2l2 1-3 3h2l-1 4 2-2-2 5 3-1-3 6 3-2-3 5q1 1 4-2l-2 5v1l4-5v7q3-4 2-9l2 2-1-6 1 2v-1l-3-6 4 3-1-1-3-6 2 1-3-4h1z"/><path fill="#016a16" d="M503 446c4 8 2 17 4 23z"/><path d="M502 446q3 4 3 14l2 9-1-9z"/><path fill="#f1b517" d="m502 537 2-31-1-25-7-1-1 24 2 33z"/><path d="m502 537-5-1-1-57 7 1a308 308 0 0 1-1 56m0 0a345 345 0 0 0 0-56l-6-1a339 339 0 0 0 1 56z"/><path fill="#f1b517" d="m495 481 8 1-1-6-5-1z"/><path d="m495 481 2-6 5 1 1 7zm1 0 7 1-1-5-5-1z"/><path fill="#f1b517" d="m496 477 7 1-1-7h-5z"/><path d="m496 477 1-6h5l1 7zm0-1 7 1-2-5-4-1z"/><path fill="#f1b517" d="m496 472 6 1-1-6-3-1z"/><path d="m496 472 1-6h4l1 7zm1 0h5l-1-5-3-1z"/><path fill="#f1b517" d="m501 466-4-1v2l5 1z"/><path d="M502 466v2h-5v-3zm-1 0-4-1v2l5 1zm1 67-5-1zm1-5h-6v-1zm0-4-7-1zm1-5-8-1zm0-4-8-2zm0-5-9-1v-1zm0-4-9-1v-1zm0-5-9-1v-1zm0-5-9-1zm-1-4-8-2zm0-5-7-1z"/><path fill="#0a328c" d="m500 431-4-5 2-3q2-4-1-4c1-2 7 0 8 4v6l-2 3zm0 0-3-3-1-2 2-3v-3l-1-1 1-1h1l2 1q4 1 4 4v6l-2 3zm0-1 3 1 2-2v-6q0-3-4-4l-2-1h-1v5l-2 3 1 2z"/><path fill="#f1b517" d="m501 444-2-2v-16l2 1z"/><path d="m501 444-2-2v-16l2 1zm0 0v-17l-1-1-1 16z"/><path fill="#d20014" d="M503 432q3-2 2-5-3-3-7-4l-2 3 4 2zm0 0-1-2-2-2-4-1v-1l2-3 3 1 4 3q1 3-2 5m0-1q3-1 1-4l-3-2-3-2-2 3 3 2 1-1 2 3z"/><path fill="#016a16" d="m477 519-3-2-4 1-1-1q1-2 5-2z"/><path fill="#fff" d="M477 520v-1l-1-3-3-1h-4l-1 2v1l1 1v-1l4-1q3 1 3 3m0-1-3-2q-3-1-4 1v-1l1-1h3q3 0 3 3"/><path fill="#016a16" d="M477 523q0 5-3 5-4-1-4-6v-3l7 1z"/><path fill="#fff" d="M477 523q0 6-3 5l-3-2-1-4v-3l7 1zm0 0v-3l-7-1v3q0 5 4 5l2-1zm0-4q0 2-3 1-4 0-4-2t4-2z"/><path fill="#016a16" d="m473 521-1-8 3 1-1 7z"/><path fill="#f1b517" d="m473 521-1-8h3v8zm0-1 1 1 1-7-3-1z"/><path fill="#016a16" d="M477 519q-1 2-3 1l-4-2-1 1q1 2 5 3 3 1 4-2z"/><path fill="#fff" d="M477 519v1l-1 2h-3l-4-1-1-2v-1l1-1v1l4 2zm0 1-3 1-4-2 1 2 3 1q3 1 3-2"/><path fill="#f1b517" d="m492 550-14-7-6-13-21-4 1 9 18 6 2 4 21 10z"/><path d="m492 550 1 5-22-10-1-4-19-6v-10l21 5 6 13zm0 0-14-7-6-13-21-4 1 8 18 7 2 4 20 10z"/><path fill="#503200" d="m478 551-22-40-1 1 21 40z"/><path d="m478 551-2 1-22-40 2-1zm-1 0-21-40-1 1z"/><path fill="#fff" d="m458 513-3-5-2-1v2l2 5z"/><path d="m458 513-3 1-2-5-1-1 1-1q2-1 3 1zm0-1-3-4-2-1v2l2 5z"/><path fill="#f1b517" d="m480 529-44-12-1 7 44 12z"/><path d="m481 528-2 8-44-12 1-7zm-1 1-44-12-1 7 44 11z"/><path fill="#f1b517" d="m435 515-1 10h2l1-9z"/><path d="m435 515 2 1-1 9h-2zm0 0-1 10h2l1-9z"/><path fill="#f1b517" d="m443 518-1 9h1l1-8z"/><path d="m442 517 2 2-1 8h-1zm1 1-1 8 1 1 1-8z"/><path fill="#f1b517" d="m473 526-1 8 2 1 1-9z"/><path d="M472 526h3l-1 9h-3zm1 0-1 8h2v-8z"/><path fill="#f1b517" d="m479 527-1 10 2 1 1-5 2 2 2-2q0-3-2-3l-2 1v-3z"/><path d="m479 527 3 1-1 2h2q2 0 2 3l-1 1-1 1-2-2-1 5-3-1zm0 0-1 10h2l1-4 2 2 1-1 1-1-1-2-1-1-2 2v-4z"/><path fill="#f1b517" d="m463 526-6 7 1 1 8-5z"/><path d="m463 526 3 4-8 5-1-2zm0 1-6 6 1 1 7-5z"/><path fill="#f1b517" d="m449 544 6-7-1-1-7 5z"/><path d="m449 544-3-3 8-5 1 1zm0-1 6-6-1-1-7 5z"/><path fill="#f1b517" d="m465 544-7-7h-1l6 9z"/><path d="m465 544-2 3-6-10 1-1zm0 0-7-7h-1l6 9z"/><path fill="#f1b517" d="m447 526 7 8 1-1-6-9z"/><path d="m446 526 3-2 6 9-1 1zm1 0 7 8 1-1-6-9z"/><path fill="#f1b517" d="m455 522 1 11h1l2-10z"/><path d="m455 522 4 1-2 10h-2zm0 1 1 10h1l2-10z"/><path fill="#f1b517" d="M457 548v-11h-1l-2 10z"/><path d="m458 548-4-1 1-10h2zm-1-1-1-10-2 10z"/><path fill="#f1b517" d="M467 535h-9v1l9 3z"/><path d="m468 535-1 4-9-3v-1zm-1 1-9-1v1l9 3z"/><path fill="#f1b517" d="m445 536 9-1v-1l-9-2z"/><path d="M445 536v-4l10 2-1 1zm0-1h9l-9-3z"/><path fill="#f1b517" d="M459 535q-1 3-3 3l-2-4 2-2z"/><path d="M459 535q0 3-3 3l-2-1-1-3q1-2 3-2l2 1zm-1 0v-2l-2-1q-2 0-2 2v2l2 1q3 1 2-2"/><path fill="#f1b517" d="M469 537q0 13-13 12-12-3-13-16 1-13 13-13 13 4 13 17m-2-1q-2-10-11-13-9 1-11 10 2 11 11 13 9 1 11-10"/><path d="m470 537-4 10q-4 3-10 3-6-2-9-6-4-5-4-11t4-10 9-3 10 6zm-1 0q0-6-4-11-3-4-9-6-5 0-9 3-4 4-4 10t4 11 9 5q6 2 9-3 4-3 4-9m-2-1q0 6-3 8-4 3-8 3l-8-5q-3-4-3-9t3-8l8-2 8 5q3 3 3 8m0 0q0-4-4-8-3-4-7-5-4 0-7 3t-3 7 3 9 7 4 7-2q4-2 4-8m-19-10-2-2zm15 1 1-2h1zm3 19-2-2v-1zm-18-1 2-2z"/><path fill="#f1b517" d="m493 526 2 14h-2l-2-14z"/><path d="m493 526 2 14-2 1-2-15zm-1 0 2 14 2-1z"/><path fill="#fff" d="M491 524q-1 1-4-3c-4 3-1 4 0 8l5-3h4l-1-1z"/><path d="M491 524h4l1 3h-2l-2-1-4 2-1 1-1-3q-2-4 1-6zm0 0-3-3q-3 2-1 4l1 4 1-1 4-2h4l-1-1z"/><path fill="#fff" d="m493 527-1-4h-2l1 4z"/><path d="M493 527h-2l-1-4 1-1h1l1 1zm0 0-1-4v-1h-1v5z"/><path fill="#f1b517" d="M482 536h2v3l2 4v6l-1 2h-2v2l2 2q2 2-2 2h-2q-4-2-2-3l2-1v-11l1-2zm3 7-2-2-1 1v3l2 4 1-2z"/><path d="M482 536h2v3l1 1 1 3v6l-1 2h-2v2l2 2h1v1l-3 1h-2l-2-2v-1l1-1h1v-11l1-2zm0 0v4l-1 2v11l-1 1h-1v1l2 1 2 1 2-1h1l-1-1-2-2v-3l2 1 1-2v-6l-1-3-1-1h-1v-2zm3 7v6h-1l-2-4v-4h1q3 0 2 2m0 0-2-2-1 2v2l2 4 1-1z"/><path fill="#fff" d="m469 545-1 3h2l1 3-5-1q3 8 8 5 4-4-4-8z"/><path d="m469 545 1 1 5 5-1 4h-4l-4-5h3l2 1v-2l-1-1h-2v-3zm0 0v3h2l1 1v2h-2l-3-1 4 5h4l1-4q-1-3-5-4zm1 2v1zm-39-6-2-9zm2 0-3-7h1zm5-1-6-5zm3 0-12-8z"/><path fill="#d20014" d="M422 524h-6l1 2c-1 2-8 1-9 1l7-2-1-4 4-1zm0 0h-5v2q0 3-5 2l-4-1v-1h4l3-1v-1l-1-3 4-1zm-1 0-3-4q-3 0-4 2l1 2v1l-3 1-4 1h4q5 1 5-1v-1l-1-1z"/><path fill="#503200" d="m428 530-10-11h-1v1z"/><path d="m428 530-1 1-10-11v-2l1 1zm-1 0-10-11z"/><path fill="#f1b517" d="m437 540-8-9v-2l-2 1-1 2h2l7 8z"/><path d="m438 540-3 1-7-9h-3l1-1 1-1 2-2v3l4 5zm-1 0-4-4-4-5-1-2-1 1-1 1 2 1 7 8z"/><path fill="#f1b517" d="m467 556-1 1-2-2 2-1z"/><path d="m467 556-1 1-2-1v-2h2zm0 0-1-2-2 1 1 1 1 1z"/><path fill="#f1b517" d="m463 552-1 1-2-1 2-2z"/><path d="m464 552-1 1-1 1-2-2 1-2h1zm-1 0-1-2-1 2 1 1z"/><path fill="#f1b517" d="m458 553-1 2-2-2 2-2z"/><path d="m459 553-1 1-1 1-1-1-1-1 1-1 1-1zm-1 0h-1q-1-1-1 1v1h2z"/><path fill="#f1b517" d="m451 554-2 1-1-1 1-2z"/><path d="m451 554-2 2-1-3 1-1zm-1 0v-1l-1-1-1 1v2h2z"/><path fill="#f1b517" d="m447 554-1 1-2-2 2-1z"/><path d="M447 554v1h-2l-1-2 1-1h1zm0 0v-1l-1-1-1 1v2h1z"/><path fill="#f1b517" d="m444 553-1 2-2-2 2-1z"/><path d="m444 553-1 2-2-2v-1l2-1zm0 0-1-1-2 1 1 1 1 1 1-1z"/><path fill="#f1b517" d="m441 553-2 1-1-2 1-1z"/><path d="M441 553q0 2-2 1h-1v-3h1l2 1zm0 0-2-2-1 1v1l1 1z"/><path fill="#f1b517" d="m442 550-1 2-2-2 2-2z"/><path d="m443 550-2 2-1-1-1-1 2-2zm-1 0h-1l-1 1 1 1z"/><path fill="#f1b517" d="m446 551-2 1-1-2 1-1z"/><path d="M446 551q0 2-2 1h-1l-1-2 1-1h1l1 1zm-1 0-1-2-1 1 1 2z"/><path fill="#f1b517" d="m449 551-2 1-1-2 1-1z"/><path d="M449 551q0 2-2 1l-1-2v-1h1l1 1zm-1 0-1-2-1 1v2h2z"/><path fill="#f1b517" d="m447 548-1 1-2-2 2-1z"/><path d="M447 548v1h-1q-3 1-2-2l2-1 1 1zm0 0-1-2-1 1h-1l1 1 1 1z"/><path fill="#f1b517" d="m444 547-1 2-2-2 2-1z"/><path d="m444 547-1 2-2-2v-1l2-1zm0 0-1-1h-1l-1 1 1 1 1 1 1-1z"/><path fill="#f1b517" d="m473 559-1-2 2 1h3v1q2-3 4 0 2-2 4 1 2-2 3 0h1q1-1 3 1h2l1 1h1l-1 1 1 1h-2l-2-1q-2 2-3-1h-1q-2 2-3-1h-1q-1 2-3 0-3 1-4-1-2 2-3 0zm11 1-1-1-1 1 1 1zm-4-1h-1l1 1zm7 2-1 1zm4 1v-1h-1zm-14-3h-2l1 1zm17 3v2zm-5-1h-1z"/><path d="m473 559-1-1h1l2 1h2l2-1 2 1h2l2 1h1l2 1h1l2-1 1 1 2 1h2v1l-1 1 1 1h-3l-1-1-1 1-2-1-1-1-2 1-1-2h-1l-2 1-1-1h-5l-2-1h-2v-1zm1 0h-2v1h2zl1 1 1-1h1l3 1v-1 1l1 1 2-1h1l1 1h4l1 1h1v-1 1l1 1 1-1 1 1h1l-1-1v-1h1v-1l-1 1h-1v-1h-2l-1-1h-2v1-1h-1v1-1l-2-1-1 1h-1l-1-1h-2l-2-1-2 1v-1zl-1-1h-1l1 1zm10 1-1 1h-1v-1l1-1zm-4 0h-1v-1l1-1 1 1zm7 1v-1h-1l1-1zm5 1h-1l-1-1 1-1zm-15-3-1 1h-1v-1zm17 3h-1l-1-1zm-11-2-1 1zm6 1v-1zm-9-2h-1l1 1zm7 2v1zm2 0"/><path fill="#f1b517" d="m508 552 13-3 6-10 22 2-1 8-18 2-2 3-21 3z"/><path d="M507 552v6l21-4 2-3 18-1 1-10-22-2-6 11zm1 0 14-2 6-11 21 2-1 8-18 1-2 4-21 3z"/><path fill="#503200" d="m522 558 22-34 1 1-22 34z"/><path d="m522 557 1 1 22-34-1-1zm0 1 22-33h1l-22 34z"/><path fill="#fff" d="m542 525 2-4h2l1 3-2 4z"/><path d="m542 526 3 2 2-4v-2l-1-1h-2zm0-1 2-4h2l1 1v2l-2 3z"/><path fill="#f1b517" d="m519 535 45 1 1 8-44-2z"/><path d="m519 534 2 8 44 2-1-8zm1 1 44 1 1 7-44-1z"/><path fill="#f1b517" d="m564 534 2 11-2-1-2-9z"/><path d="m565 534-3 1 2 10h2zm-1 1 1 9h-1l-1-9z"/><path fill="#f1b517" d="m557 535 1 9h-2v-8z"/><path d="m557 535-2 1 1 8h2zm0 0v9l-1-8z"/><path fill="#f1b517" d="m527 534 1 9h-2l-1-9z"/><path d="M527 534h-2l1 9h2zm0 1 1 8h-2l-1-9z"/><path fill="#f1b517" d="m521 534 1 10h-2l-1-5-2 1q-2 0-2-3l2-2 2 2-1-4z"/><path d="M521 533h-3v3l-1-1q-2 0-2 2v2l2 1 2-1v5h3zm-1 1 2 10h-2l-1-6-2 2-2-1v-3h2l2 1-1-3z"/><path fill="#f1b517" d="m536 538 7 8-1 1-8-7z"/><path d="m537 537-3 3 8 8 1-2zm-1 1 6 8v1l-8-7z"/><path fill="#f1b517" d="m551 559-6-8v-1l8 7z"/><path d="m551 560 2-3-8-8-1 2zm0-1-6-8v-1l8 7z"/><path fill="#f1b517" d="m535 555 7-5h1l-6 8z"/><path d="m534 555 3 3 6-8-1-1zm1 0 7-5h1l-6 7z"/><path fill="#f1b517" d="m553 543-8 5v-1l5-8z"/><path d="m553 543-3-4-6 8 1 1zm0 0-8 5v-1l5-7z"/><path fill="#f1b517" d="m545 536-1 10h-1l-2-10z"/><path d="M545 536h-5l3 10 1 1zm0 0-1 10h-1l-2-10z"/><path fill="#f1b517" d="m542 561 1-10h1l2 10z"/><path d="M542 561h4l-2-11h-1zm1 0v-10h1l1 10z"/><path fill="#f1b517" d="m532 545 10 3v1h-10z"/><path d="M532 545v4h10v-1zm1 1 9 2v1h-9z"/><path fill="#f1b517" d="m555 552-9-3-1-1 10 1z"/><path d="M555 553v-5h-10v1zm0-1-9-3h9z"/><path fill="#f1b517" d="M541 548q0 2 3 3l2-2-2-4q-3 0-3 3"/><path d="M541 548q0 3 3 3h2v-2l-2-4-2 1zm0 0 1-2h2q2 0 2 3l-1 1-1 1q-3-1-3-3"/><path fill="#f1b517" d="M530 546q2-13 14-12 12 3 13 16-1 13-13 13-12-3-14-17m3 1q1 10 11 13 10 0 10-10 0-11-10-13-10-1-11 10"/><path d="M530 546q0 6 4 11t10 6 9-3 4-10q0-5-4-11l-9-6q-6 0-10 3-4 4-4 10m1 0q0-6 3-9 4-5 10-3 5 1 9 5l4 11q0 6-4 10l-9 3q-6-1-10-6-3-5-3-11m2 1q0 5 3 8 3 5 8 5 4 1 7-2t3-8-3-9-7-5-8 3-3 8m0 0q0-6 3-8 3-3 8-2 4 1 7 4l3 9q0 4-3 7t-7 3-8-5-3-8m19-5 2-1v-1zm-15-4-2-2zm-4 18 3-1-1-1zm19 5-2-3v1z"/><path fill="#f1b517" d="m507 528-2 13 2 2 2-14z"/><path d="m507 528-2 13 2 2 2-14zm0 1h2l-2 13-2-1z"/><path fill="#fff" d="M508 527q2 1 5-2c3 4 1 4 0 8l-5-4-4-1 1-2z"/><path d="m508 527-3-1-2 2h3l2 1 3 3 2 1 1-3q2-2-1-6-1 3-4 2zm0 0h1l4-2q2 3 1 5l-1 3-1-1-4-3-2-1-2-1 1-1z"/><path fill="#fff" d="M507 529v-4q2-1 2 1v4z"/><path d="m507 529 2 1v-5h-2zm0 0v-4h1l1 1v3z"/><path fill="#f1b517" d="M518 542v3l1 3v11l2 1q1 2-2 2h-2q-5-1-2-3h2v-3h-2l-2-3v-6q2-4 3-3v-3zm-3 5v5l1 2 2-4v-2l-2-2z"/><path d="M518 541h-2v3h-1l-2 3v6q0 3 2 3h2v2l-2 1-1 1v1l3 1 2 1 2-1v-2h-1l-1-1v-11l-1-3zm0 1v4l1 2v11l1 1 1 1-2 1h-2l-3-2h1l2-1v-3h-2l-1-3v-6l1-2h1v-3zm-3 5-1 5 1 1 1 1q2 0 2-4v-2l-1-2h-1zm0 0 1-1 1 1 1 1v2l-2 4-1-1z"/><path fill="#fff" d="m531 555 1 3-2-1q-2 2-1 3h4q-3 7-7 3t3-7z"/><path d="m531 555-2 1q-3 0-4 3t1 4q1 3 4 1 3 0 4-4h-5v-2l1-1 2 1zm0 0 1 1v1h-2l-1 1v2h4q0 3-3 4t-4-1l-1-4q1-3 5-3zm-2 1 1 1zm40 6 2-9h-1zm-2-1 2-6v-1zm-6-2 7-3v-1zm-2-1 12-5z"/><path fill="#d20014" d="m578 548 5 1-1 2c2 2 9 3 10 3l-7-4 1-3-4-3zm0 0 5 1-1 2 5 3h5v-1h-1l-6-3v-1l1-2-4-3zm1-1 3-2q3 0 3 2v2l-1 1 4 2 4 2-5-1-4-2v-3z"/><path fill="#503200" d="m572 551 10-8h1v1l-11 8z"/><path d="M572 551v2l11-9v-1h-1zm0 0 10-8h1v1l-10 8z"/><path fill="#f1b517" d="m562 559 9-7v-2l2 2 1 2h-2l-7 6z"/><path d="m562 559 3 1 7-6h2l-1-2-2-2-1 2-4 4zm1 0 4-3 4-4v-2l2 2 1 2-2-1-7 7z"/><path fill="#f1b517" d="m533 566 1 1q1 1 2-1l-2-2z"/><path d="m532 566 2 2 1-1 1-1-1-1-1-1zm1 0 1-2 1 2v1h-1z"/><path fill="#f1b517" d="m536 563 2 2 1-1-1-2z"/><path d="m536 563 1 2h1l1-1v-2h-1zm1 0 1 2-1 1z"/><path fill="#f1b517" d="m541 566 2 2 1-2-1-1q-2-1-2 1"/><path d="m541 566 1 1 1 1h1v-3l-1-1zm1 0h1l1 1v1l-1 1z"/><path fill="#f1b517" d="m549 569 2 2 1-2-1-1z"/><path d="M549 569q0 2 2 2l1-2-1-2q-3 0-2 2m0 0h1l1 1-1 1v1l-1-1z"/><path fill="#f1b517" d="m552 570 2 2 1-2-1-1q-2-1-2 1"/><path d="m552 570 1 1 1 1h1l1-2-1-1-1-1zm1 0v-1h1l1 1v1l-1 1z"/><path fill="#f1b517" d="m556 570 1 2 2-1-2-2z"/><path d="m555 570 2 2 2-1-1-2h-2zm1 0 1-1 1 2v1h-1l-1-1z"/><path fill="#f1b517" d="m559 571 1 2 2-2-2-2z"/><path d="m559 571 1 2 2-1v-2l-2-1-1 1zm0 0q0-2 1-1h1l1 1-1 1h-1z"/><path fill="#f1b517" d="m557 568 2 1q1 1 1-1l-1-2z"/><path d="m557 568 2 2 1-1v-1l-1-2q-2 0-2 2m1 0v-1l1-1 1 2-1 1z"/><path fill="#f1b517" d="m554 567 2 2 1-1-1-2z"/><path d="M554 567q0 3 2 2h1v-3h-3zm0 0 2-1 1 2-1 1z"/><path fill="#f1b517" d="m551 566 2 2 1-1-1-2z"/><path d="M551 566q0 2 2 3l1-2v-1l-1-1zm0 1 2-2 1 2-1 1z"/><path fill="#f1b517" d="m553 564 1 2 2-2-2-1z"/><path d="m552 564 1 1 1 1q2 1 2-2l-2-2-1 1zm1 0 1-1h1v2l-1 1z"/><path fill="#f1b517" d="m556 564 1 2 2-1-2-2z"/><path d="m555 564 2 2 2-1-1-2h-2zm1 0 1-1 1 1v2h-1l-1-1z"/><path fill="#f1b517" d="m526 567 2 1zq0 2-3-1h-3q-1 1-3-1h-6q-2 1-2-1h-4l1-1-1-1h3q2-2 4 1h4q2-2 4 1 1-3 4 1v-1l2 1h3zm-10-2 1 1h1l-1-1zm4 1h1zm-8-1 1 1 1-1-1-1zm-4-1 1 1 1-1-1-1zm15 3h1zm-17-3v-2zm5 1"/><path d="m527 567 1-1v-1h-1l-2 1-2-1-2-1h-2l-2-1-2 1-2-1-1 1-1-1-2-1-2 1h-2l-1-1-1 1 1 1h1-1v1l1 1h7l2 1 1-1h1l1 1h5l2 2 1-1 2 1 1-1zm-1 0h-1l-2-1q-1 2-3-1l-2 1-1-1h-1l-1 1-2-1h-1l-1-1-1 1-1-1-1 1-1-1h-1v1l-1-1h1v-1l-1-1h5l1 1h1v-1l1 1 1-1 2 2 2-1 2 1 2-1 1 2h3l2-1 1 1h-1zm-10-2v1l1 1 1-1-1-2zm3 1 2 1 1-1-1-1h-1zm-7-1h1l1-1-2-1zm-4-1 1 1h1v-1l-1-1zm15 3 1-1-1-1zm-17-3h1v-2zm10 1h1l1 1h-1zm4 1v1zm-7-1h1zm-5-1h1v1h-1zm15 3 1 1zm-12-2"/><path fill="#0a328c" d="M500 535q-9 0-9 3v2q2 2 9 4l8-1 1-2q-2-4-9-6m0 0q9 1 9 6l-1 2-8 1q-8-1-9-4v-2q-1-4 9-3m0 0-7 1q-2 1-2 3v1q2 2 9 3h8v-2q0-4-8-6"/><path fill="#f1b517" d="M509 542v15q-2 3-9 2-9-1-9-4v-16q0 3 9 5 7 0 9-2"/><path d="M509 542v15q0 2-3 3h-6q-10-2-9-5v-16l2 2a22 22 0 0 0 13 2zm-18-2v15q0 3 9 4 8 2 9-2v-14q-2 2-9 1-8-1-9-4"/><path fill="#d20014" d="M491 539v2l4 16 4-11 3 13 3-11 4 8v-4l-4-8h-1l-2 8-3-8-1-1-3 8-3-10zm0 0 1 2 3 9 3-7h2l2 8 2-7h1l1-1 3 9v4l-4-8-3 12-3-13-4 11-4-17zm0 2 4 16 4-12 3 13 3-11 4 8v-3l-4-8h-1l-2 9-3-9h-1l-3 8zl-1-1z"/><path fill="#0a328c" d="M509 554v3q-2 3-9 2-9-1-9-4v-3q0 4 9 4 7 1 9-2m0 1v2q0 2-3 3h-6q-10-2-9-5v-3l2 2a22 22 0 0 0 13 2q2 0 3-2zm-18-2v2q0 3 9 4 8 2 9-2v-1l-9 1q-8-1-9-4"/><path fill="#f1b517" d="M503 557h-2v3h2z"/><path d="M504 557v3h-3v-4zm-1 0h-2v2h2z"/><path fill="#f1b517" d="M494 555v3l2 1v-3z"/><path d="M494 554h2v4l-2-1zm0 1v3h2v-2z"/><path fill="#f1b517" d="M491 552v3l1 1v-3z"/><path d="m491 552 1 1v4-1l-1-1zm0 3v-2l-1-1z"/><path fill="#f1b517" d="m509 555-2 1v3l2-2z"/><path d="M509 555v2l-2 2v-3zm0 0-2 1v3l2-2zm0-13v15q0 2-3 3h-6q-10-2-9-5v-16 16q0 3 9 4 8 2 9-2z"/><path fill="#fff" d="M507 540q-1 2-7 1-7-1-7-3l7-1zm0 0-2 2-5-1-5-1-2-2q0-2 7-1zm-1 0-1-1-10-2-2 1 7 3h5z"/><path fill="#f1b517" d="m497 540 1 3 2 1v-3z"/><path d="m497 540 3 1v3l-2-1zm1 1v2h1l1-2z"/><path fill="#f1b517" d="M506 541h-2v3h2z"/><path d="M506 541v3h-2l-1-3zm-1 0h-1v3l1-1z"/><path fill="#f1b517" d="M495 535h-2l1 3 1-1z"/><path d="M495 535v3h-1l-1-3zm0 0-1 1v1h1z"/><path fill="#f1b517" d="M500 535h-1v3h2v-3z"/><path d="M500 535h1v3h-2v-3zm0 0 1 2z"/><path fill="#f1b517" d="M505 537v2l1 1v-3z"/><path d="m505 536 1 1v3l-2-1zm0 1v2h1z"/><path fill="#f1b517" d="M492 541v-3l-1-1v3z"/><path d="m492 541-1-1-1-4 3 2zm0 0v-3l-1-1v3z"/><path fill="#f1b517" d="M509 543v-3h-2z"/><path d="m509 543-2-3h2zm-1-1 1-2h-2z"/><path fill="#f1b517" d="M527 527q4 0 4 6-1 3-3 2l-4 1 1-3v-6z"/><path d="m527 526 3 2 1 5-1 2h-2l-4 1h-1l1-2v-1l1-6zm0 1h-2v6l-1 2v1l4-1v-1h1l2-1-2-4q0-3-2-2"/><path fill="#f1b517" d="M525 533h1l1 1v-1l3 1z"/><path d="M525 533h1l1 1v-1h3v1l-3-1v1l-1-1z"/><path fill="#d20014" d="M528 529q1-3-1-4h-2l-3 2 2 1 2-1z"/><path fill="#f1b517" d="m528 529-1-1h-2l-1 1-2-2 1-2h4l1 2zm0-1v-1l-1-2h-2l-2 1v1l1 1h1l1-1 1 1zm-98 17 1 3 2-1 1 2-1 2-1-1-1 3q-2 0-2-3l-14 3 4 3v-3l6 4q-3 3-8 2l2-2c-1 0-7-2-8-4l4-6h-2q3-2 8-2-2 0-4 5l-1-2-2 4 15-4q-2-2 1-3m3 4-1 1z"/><path d="m430 545 1 3 2-1 1 1v1l-1 2h-1l-1 2-1-1-1-1-10 1-3 1h-1l4 2v-2l6 4q-4 4-9 2l2-2q-7-2-7-4l4-6h-3l1-1 3-1 5-1v1q-3 2-3 5h-1l-1-2-2 3 14-3v-2zm0 0-1 1v2l-15 4 2-4v-1 1l1 1 3-4h-4l-3 1 2 1-4 6 8 4-2 2q4 1 8-2l-6-3v2l-4-3h-1l5-1 10-2 1 2 1 1v-4l1 1h1l1-1v-1h-3v1-1zm4 4-1 1-1-1v-1h1zm-1 0"/><path fill="#f1b517" d="m585 575-1-5-1 1-2-9 8 9-3-1 3 7q-1-1-3 4h-2v-3l-15-10-3-3q3 0 5 2z"/><path d="m585 575-1-5-1 1q1-3-2-9l5 4 3 5v1l-3-2 2 5 1 2h1-1q-3 1-3 4h-2v-3l-15-9-3-4h2l2 1h1zm0 0-14-8-1-1-2-1h-2l3 3 16 10h-1v2l2 1q0-4 3-4l-1-2-2-5 3 1-4-4-4-5q3 5 2 9l1-1h1z"/><path fill="#f1b517" d="m570 570 2-3q0-2-2-2l-2 4q0 2 2 1"/><path d="m570 570-2 1v-3l2-3h2v2zm0 0 2-4v-1l-2 1-2 3v1z"/><path fill="#fff" d="M463 562v-4h-4v4z"/><path d="M464 563h-6l1-5h4zm-1-1v-4h-4v4z"/><path fill="#fff" d="m432 563-6-4c24 6 29-3 34-3 4 1 5 5-2 2l1 6s-16 8-33 1z"/><path d="m431 563-5-4q17 3 29-1l5-2 3 1v2h-5l2 5h-1a46 46 0 0 1-33 1h-1zm1 0-6 1q10 4 23 2l10-4-2-5h1q4 3 5 1l-1-2h-2l-5 1q-12 5-28 1z"/><path fill="#fff" d="M536 574v-5l5 1 1 5z"/><path d="M536 574v-5l6 1v5zm0-1 5 2v-4l-5-1z"/><path fill="#fff" d="m569 583 5-3c-27-3-21-8-35-11-3-1-6 3 3 2l-2 5 5 1q15 11 30 9z"/><path d="m569 583 7 3-1 1q-17 2-30-10l-5-1 2-5h-5l-1-1 1-1 2-1 10 5q9 6 25 7v1zm0 0 4-2q-16-2-24-8l-10-4h-2l-1 1 1 1h5l-1 5h4q13 12 29 10z"/><path fill="#fff" d="M458 558v7s15 9 42 13 42 0 42 0v-7s-11 4-42 0c-31-5-42-13-42-13"/><path d="M457 558q11 7 42 13 31 4 42 0v7q-15 5-42 0-27-4-43-12v-8m1 1v6q15 9 42 13 27 5 42 0v-6q-12 3-42-1t-42-12m3 7 1-5h1zl2 1v1zm4-2v-1l1 1zm7 1v3l-1 1v1l-1-1h-2v-2l1-3v4l1 1h1v-1zm0 5 1-5h1l2 5v-4l1 1-1 5-2-5-1 4zm5 2 1-5h1l-1 5zm2-2 1-2h2l2 2v3h-4l-1-2zm1 0v2l1 1h2v-4l-1-1-1 1zm5 4v-5h1l2 5v-4h1l-1 5-3-5zm6 2 1-6 3 1v1l-3-1v2h2v1l-2-1v3zm4 0 2-5 1 1 2 5h-1l-1-2h-2zm1-2 2 1v-2l-1-1v1zm4 3v-5h1zm3 1v-5h-1v-1l3 1h-1zm5 0v-5zh2v1zm3 1 2-6 1 1 2 5h-1v-2h-3v2zm2-2h1v-2l-1-1zm5 2v-5h3v1l-2-1v2h2v1h-2v2zm4-2v-2l2-1h1l1 1 1 2-1 1v1h-3l-1-1zm1 0v1l2 1 1-1v-3h-1l-1-1-1 1zm5 2-1-5h4v2l-1 1 1 1 1 1h-1l-1-1-1-1h-1zm0-3h2v-1l-1-1h-1zm8 1v1l-1 1h-2l-1-1v-3l1-1h2l1 1h-1v-1a1 1 0 0 0-2 0l-1 1 1 2 1 1h1zm1 2-1-6h4l-3 1v1h3v1h-3l1 2 3-1v1z"/></svg>