<svg xmlns="http://www.w3.org/2000/svg" viewBox="0 0 1000 1000"><path fill="#d21034" d="M8 195.3c170.8-85.3 341-54.5 513.3-28C676.5 191 833.4 211.8 992 132.7v672c-170.8 85.3-341 54.5-513.3 28C323.5 809 166.6 788.1 8 867.2z"/><path fill="#00209f" d="M8 195.3c170.8-85.3 341-54.5 513.3-28C676.5 191 833.4 211.8 992 132.7v336c-170.8 85.3-341 54.5-513.3 28C323.5 473 166.6 452.1 8 531.3z"/><path fill="#fff" d="M406.9 401.8c61.4 8.1 122.9 19 186.2 27.4V598c-61.4-8.1-122.9-19-186.2-27.4z"/><path fill="#016a16" d="m537.5 543.3-38-4.6-37.9-5.3s-19.4 5.2-27.3 6c-8 1-7 3.6-13 4.5-5 .6-5.5.9-8.4.7q-2.7.2-6 2.6v23.4c61.4 8 122.9 19 186.2 27.4v-22.3q-3-2.1-5.9-3.7c-2.7-1.4-4.6-2.7-9.5-4.7-6-2.6-5.2-5-13-8.2a253 253 0 0 1-27.2-15.8"/><path fill="#016a16" d="M537.5 543.1a170 170 0 0 0 27.2 15.8q4.3 1.6 7.6 4.7 2.7 2.4 5.5 3.5 3.5 1.5 7.3 3.5l2.2 1.3q3.3 1.8 6 3.6v22.7c-61.6-8.1-123.2-19-186.6-27.4V547q4-2.6 6.2-2.6 2 .1 5-.2l3.3-.5q2.8-.3 5.4-2 3.4-2 7.6-2.5 8-.7 27.4-6l37.9 5.3zm0 .4-38-4.6-37.8-5.3q-19.5 5.3-27.4 6-4.2.3-7.5 2.5a14 14 0 0 1-5.5 2l-3.4.5q-3 .3-5 .2t-5.9 2.5v23.1c61.4 8 122.7 19 186 27.3v-21.9a47 47 0 0 0-5.8-3.6L585 571q-3.9-2.1-7.3-3.5-2.9-1.2-5.6-3.6-3.3-3-7.4-4.6-8-3-27.3-15.8"/><path fill="#f1b517" d="m489.2 483.8 2.8.4 5 24.8-1 7.4z"/><path d="m489.2 483.6 3 .4 5 25-1 7.5h-.4l-6.8-33zm.3.4 6.4 31.4 1-6.4-5-24.7z"/><path fill="#fff" d="m486.4 467.3 1.8 18.9 2 .1z"/><path d="M486.2 467.3h.3l4 19.2-2.4-.2zm.7 3.4 1.5 15.3h1.6z"/><path fill="#f1b517" d="m491.6 509-8.5-27.2 3.2.3 9.8 33.1z"/><path d="m491.4 509-8.5-27.4 3.5.3 10 33.3-.4.1zm.3-.1 4 5.4-9.5-32-2.8-.3z"/><path fill="#fff" d="m479.2 466.5 3.5 18.5 2.8.4z"/><path d="M479 466.5h.3l6.4 19.2-3.2-.5zm.8 2.5 3 15.8 2.4.4z"/><path fill="#f1b517" d="m484 498.8-4.9-13 2.1-.1 9.1 21.5z"/><path d="m484 498.8-5.1-13.1 2.5-.3 9 21.8-.2.1zm.2-.1 5.4 7.3-8.4-20.1-1.8.1z"/><path fill="#fff" d="m472.6 470.6 5.5 18 2.8.4z"/><path d="m472.4 470.7.4-.1 8.4 18.6-3.2-.4zm1.2 2.5 4.6 15.2 2.4.4z"/><path fill="#0a328c" d="m484.8 500.7-22.6-31.4c-6.8 5.8-5.7 16.7-5.7 17.1l25.5 26.7z"/><path d="m485 500.7-2.9 12.7-25.8-27c-.7-8.1 1-13.5 5.8-17.3h.2l22.6 31.5zm-.5 0-22.3-31.1c-4.5 3.7-6.2 8.9-5.5 16.7l25.2 26.4z"/><path fill="#d20014" d="M497.8 518.1 481 496.3c-6.9 0-1.8 11.5-1.1 13.6l17.8 20z"/><path d="M498 518v12.4L479.7 510l-.4-1.4q-1.7-5.1-2-7.8-.2-2.4.5-3.5 1-1.5 3.2-1.2zm-.4.1L481 496.6q-2-.2-2.8 1-.6 1.1-.5 3.3a38 38 0 0 0 2.4 9l17.5 19.7z"/><path fill="#f1b517" d="m496.3 514.6-34.5-47.4-1.3.9 36.5 51.8z"/><path d="m496.5 514.5.8 6-37-52.5 1.5-1zm-.3.1-34.4-47.1-1 .7 36 51z"/><path fill="#f1b517" d="m459.8 464.2-.7-1.1v-2l-7-6.2 3.1 8.6 2.4.9.8 1z"/><path d="m460 464.3-1.6 1.5-.9-1.3-2.4-.8-3.5-9.4 7.7 6.7v2l.7 1zm-.4-.2-.7-1v-2l-6.5-5.6 3 7.9 2.3.8.7 1z"/><path fill="#f1b517" d="M456.2 466.7c1.3-1.5 2.6-2.9 5.2-4.2l2 3.6-4.3 3.4z"/><path d="M456 466.5q2.4-2.7 5.3-4.2h.2l2.1 3.8-4.5 3.7-3.2-3.1zm.5.2 2.6 2.6 4-3.3-1.7-3.2a16 16 0 0 0-5 3.9"/><path fill="#0a328c" d="m452.4 473.2 1.2 2.5 7.9-6.6 5.2.6 1.4-1.6c-4.2-4.8-7-.8-7.3-.5z"/><path fill="#0a328c" d="m452.2 473.1 8.4-5.7a6 6 0 0 1 2.4-1.7q2.8-1 5.3 2.2l.1.2-1.6 1.8-5.2-.6a85 85 0 0 1-8 6.6h-.1l-1.3-2.6zm.4.2 1 2.1q1-.6 7.8-6.5l5.2.6 1.3-1.5q-2.2-2.9-4.8-2-1.3.7-2.2 1.8z"/><path fill="#d20014" d="M456.5 477.7c.6-2.2 3.6-6.4 4.2-6.8 2.8 1.4 4.7 3.2 7.6-3-2.8 2.6-6.5-.7-6.9-1l-2 1.5.1 1-6 5.4z"/><path fill="#d20014" d="m456.7 478-3.5-3.2 6.1-5.6v-.9l2.1-1.7.1.1c3.2 2.6 5 2.9 6.6 1.1l.3.3c-1.8 4-3.7 4.8-7 3.4l-.7-.3q-.5.2-2 2.5a13 13 0 0 0-2 4zm-.3-.7q.4-1.4 2-3.9t2.3-2.7l.8.4c2.8 1.3 4.4.7 6.1-2.2-1.7 1-3.4.5-6.1-1.8l-1.9 1.5v.9l-5.8 5.3z"/><path fill="#0a328c" d="m475 506.6-28.4-29.8c-4.5 5.4-.9 22.3-.8 22.8l27.7 21.2z"/><path d="M475.1 506.5v.2l-1.5 14.4-28-21.4c-2.6-12.3-2.3-19.5 1-23v-.2zm-.4.2-28-29.6c-3 3.5-3.3 10.5-.7 22.4l27.3 21z"/><path fill="#d20014" d="M498.4 531 475 506c-7.7.9-2 13.8-1.2 15.9l24.5 19z"/><path d="M498.9 531.2h-.4l.1 10.1-24.9-19.2-.3-.9a42 42 0 0 1-2.4-8.9c-.3-4.4.8-6.1 4-6.4h.1l23.4 24.9zm-.7-.2L475 506.3c-3 .3-4 2-3.8 6q.5 3.4 2.4 8.8l.3.8 24.2 18.7z"/><path fill="#f1b517" d="m497.4 526.5-50.2-50.6-1.2 1.1 52.8 55z"/><path d="m497.6 526.4 1.5 6.2-53.4-55.6 1.4-1.4zm-.3.2L447.2 476l-1 1 52.3 54.3z"/><path fill="#f1b517" d="m444.8 473.3-1-1-.2-2-7.8-4.9 4.4 8 2.5.5.9 1z"/><path d="m445 473.3-1.4 1.8-1-1-2.5-.5-4.8-8.7 8.5 5.2.2 2 .9 1zm-.5 0-.8-1-.2-2-7.2-4.4 4 7.4 2.4.4.8.8z"/><path fill="#f1b517" d="M441.7 476.4c1-1.7 2-3.4 4.3-5.2l2.5 3.2-3.6 4.3z"/><path d="M441.5 476.3a17 17 0 0 1 4.4-5.2l.1-.1 2.7 3.4-3.7 4.6-3.6-2.5zm.4 0 3 2.2 3.3-4.1-2.2-2.9q-2.4 2-4.1 4.9"/><path fill="#0a328c" d="m438.8 483.2.4 2.4 7-7.3 5-.3 1-1.7c-3.9-4.8-7 0-7.2.5z"/><path fill="#0a328c" d="m438.7 483.1 6.1-6.5q1-1.5 2.4-2.2c2.1-1 3.5-.5 5.2 1.8l.1.1-1.1 1.9-5.1.3a106 106 0 0 1-7 7.3l-.3.1-.3-2.7zm.3.2.3 2q1.1-1 6.7-7.1l5.1-.4 1-1.5c-1.6-2-2.8-2.5-4.7-1.6a7 7 0 0 0-2.3 2.2z"/><path fill="#d20014" d="M442.9 488c0-2.4 2.4-7.9 2.8-8.4 3.3 1.6 5.5 3.3 6.9-3.7-2.3 3-6.5.1-6.9-.2l-1.6 2 .2 1.2-5.1 6.8z"/><path fill="#d20014" d="m443 488.4-4.1-2.6 5.2-7-.3-1.2 1.9-2.1h.1c3.5 2.3 5.2 2.4 6.6.3l.3.2c-.5 3.1-1.3 4.5-2.5 5q-1.1.5-3.9-1l-.5-.2q-.4.4-1.6 3.3a14 14 0 0 0-1.2 5zm-.3-.7q0-1.5 1.2-4.7 1.2-3.4 1.7-3.6h.1l.8.3q2.5 1.3 3.5 1 1.5-.4 2.2-3.9c-1.5 1.5-3.3 1.3-6.4-.8l-1.6 1.8.3 1.2-5 6.7z"/><path fill="#0a328c" d="m472.9 522-32.5-25.8-4-3.1c-2.3 5-.2 12 1 13.6 0 3.4-1.1 5 1.3 12.4a25 25 0 0 0 5.3 12c3.7 15 15.8 17.7 21.2 6.8z"/><path d="M473 521.8h.1l-7.7 16.3c-2.8 5.7-6.2 7.6-11.4 6.3-5.2-1.7-8.3-5.7-10.1-13.1a24 24 0 0 1-5.3-12.1 26 26 0 0 1-1.4-12.4q-1.2-1.5-1.9-5.6-.6-5 1-8.2v-.2l18.4 14.5zm-.3.2-18.1-14.3-18-14.3q-1.6 3-1 7.8.7 4 1.9 5.4v2.5q-.4 4.4 1.4 10c1 5.2 2.6 8.9 5.3 12 1.8 7.4 4.8 11.3 9.8 13 5 1.1 8.3-.7 11-6.3z"/><path fill="#d20014" d="M496.8 541 472 520.7c-7.7.9-.2 17.5.6 19.6l23.9 13.3z"/><path d="m497 540.9-.3 13-24.1-13.5-.5-1.2a67 67 0 0 1-3.4-10.8 13 13 0 0 1 0-5.5q.8-2.4 3.3-2.4h.1l24.7 20.3zm-.4.2L472 520.8q-2.2 0-3 2.2-.4 2 0 5.2a67 67 0 0 0 3.4 10.8l.4 1 23.6 13.2z"/><path fill="#f1b517" d="M492.6 534.4 436.8 492l-1 1.4 59 46.2z"/><path d="m492.7 534.2 2.4 6-59.5-46.7 1.2-1.6zm-.2.3-55.6-42-.8 1 58.2 45.6z"/><path fill="#f1b517" d="m434.1 490-1-.9-.5-2-8.3-3.5 5.5 7.3h2.4l1 .8z"/><path d="m434.4 489.9-1.1 2.1-1.1-.9h-2.5l-6-8 9 3.9.6 2 1 .8zm-.5 0-1-.7-.4-2-7.6-3.1 5 6.6h2.3l1 .7z"/><path fill="#f1b517" d="M431.6 493.7c.7-2 1.5-3.8 3.5-6l2.8 2.8-2.8 5z"/><path d="M431.4 493.6q1.3-3.6 3.5-6l.1-.2 3.1 3-3 5.3-3.8-2zm.4 0 3.2 1.6 2.7-4.7-2.6-2.6a18 18 0 0 0-3.3 5.7"/><path fill="#0a328c" d="m429.4 501 1.1 2.8c.5-.6 5.9-9.4 6-9.5l4.8-1 1-2.2c-4.4-4.1-6.7 1.5-7 2z"/><path fill="#0a328c" d="m429.1 501 6.1-8q.8-1.7 2-2.8c1.9-1.5 3.3-1.3 5.2.8l-1 2.4-4.8 1.1q-5.4 8.9-6 9.4l-.2.2zm.5 0 1 2.4q.9-1 5.7-9.2l4.9-1.2.8-1.9q-2.2-2.7-4.5-.6-1.2 1-2 2.7z"/><path fill="#d20014" d="M434.6 505.4c-.2-2.5 1-8.9 1.4-9.5 3.3 1.5 5.4 2.1 6.3-5-2.2 3-6.2 1.4-6.5 1.2l-1.4 2.3.3.9-4 8.2z"/><path fill="#d20014" d="m434.8 505.8-4.4-2.2 4-8.4-.2-.9 1.5-2.4h.1c3.3 1.3 5 1 6.4-1l.3.1c-.4 3.4-1.1 5-2.4 5.8q-1.3.6-4-.7-.4.5-1 3.9-.6 3.9-.3 5.4zm-.4-.7q-.2-1.6.4-5.3.7-3.8 1-4l.1-.1h.1c2 .9 3 1 4 .8 1-.7 1.6-2 2-4.8-1.4 1.6-3.1 1.8-6.1.7l-1.3 2 .3.9-4 8.1z"/><path fill="#f1b517" d="m510.5 487-2.8-.4-5 23.3 1 7.7z"/><path d="m510.5 486.9-2.9-.5-5 23.5 1 7.7.4.1 6.7-30.8zm-.2.4-6.5 29.3-1-6.7 5-23z"/><path fill="#fff" d="m513.4 471.5-2 18.3-2-.5z"/><path d="M513.6 471.5h-.4l-4 18 2.4.5zm-.8 3.2-1.5 14.8-1.6-.4z"/><path fill="#f1b517" d="m508.1 511.5 8.5-24.5-3.2-.7-9.8 30z"/><path d="m508.3 511.6 8.5-24.8-3.5-.7-9.9 30.2.3.2zm-.3-.2-4 4.2 9.6-29 2.7.5z"/><path fill="#fff" d="m520.6 472.9-3.5 17.4-2.9-.4z"/><path d="m520.7 473-.3-.2L514 490l3.2.5zm-.8 2.2-3 14.9-2.4-.4z"/><path fill="#f1b517" d="m515.7 503.6 5-11.3-2.2-.9-9 18.8z"/><path d="m515.8 503.8 5-11.7-2.4-1-9.2 19 .3.2zm-.3-.3-5.3 5.6 8.4-17.4 1.8.7z"/><path fill="#fff" d="m527.1 479-5.5 16.3-2.8-.4z"/><path d="m527.3 479.1-.3-.2-8.5 16.1 3.2.5zm-1.1 2.2-4.7 13.8-2.4-.4z"/><path fill="#0a328c" d="m515 505.4 22.5-24.5a27 27 0 0 1 5.7 18.8l-25.5 18.9z"/><path d="m514.8 505.3 2.8 13.6 25.8-19v-.2a23 23 0 0 0-5.8-19l-.1-.1zm.4.2 22.3-24.4c4.5 5 6.3 10.8 5.5 18.4l-25.2 18.7z"/><path fill="#d20014" d="m502 518.8 16.7-16.7c6.7 2 1.7 12 1 14L502 530.5z"/><path d="M501.8 518.6V531l18.1-14.8.4-1.2a31 31 0 0 0 2-7.3q.2-2.2-.5-3.7-1-1.7-3.1-2.1h-.1zm.3.3 16.6-16.6q2 .4 2.8 1.9.6 1.4.5 3.4a30 30 0 0 1-2.4 8.3l-17.5 14.3z"/><path fill="#f1b517" d="m503.4 515.7 34.5-36.8 1.4 1.3-36.6 40.6z"/><path d="m503.2 515.5-.7 5.9 37-41.2-1.6-1.6zm.3.3 34.4-36.6 1 1-36 40z"/><path fill="#f1b517" d="m539.9 476.5.8-.9-.1-2 7.1-4.1-3.2 7.7-2.4.1-.8.9z"/><path d="m539.7 476.5 1.6 2 .9-1 2.4-.1 3.5-8.4-7.7 4.5v2l-.6.8zm.4 0 .7-.8v-2l6.5-3.7-3 7-2.3.1-.7.8z"/><path fill="#f1b517" d="M543.5 480a23 23 0 0 0-5.2-5.7l-2 3 4.3 4.7z"/><path d="M543.7 480a25 25 0 0 0-5.3-5.8l-.1-.1-2.2 3.2 4.5 5 3.2-2.2zm-.4 0-2.7 1.7-4-4.4 1.8-2.7a25 25 0 0 1 4.9 5.3"/><path fill="#0a328c" d="m547.3 487.7-1.1 2.1c-.7-.5-8-8.9-8-9l-5.1-.9-1.5-2c4.2-3.6 7 1.3 7.4 1.7z"/><path fill="#0a328c" d="m547.6 487.7-8.5-8.2a9 9 0 0 0-2.3-2.5c-2.1-1.3-3.6-1-5.4.7l1.6 2.4 5.2 1q7.1 8.5 8 8.9zm-.5 0-1 1.8q-1-.9-7.7-8.7v-.1l-5.3-1-1.3-1.8q2.3-2.3 4.8-.6 1.3 1 2.2 2.4z"/><path fill="#d20014" d="M543.2 491c-.5-2.3-3.7-7.5-4.2-8-2.7.5-4.7 1.6-7.5-5.3 2.7 3.3 6.4 1.2 6.8 1l2 2.1v1l6 7.2z"/><path fill="#d20014" d="m543 491.3 3.5-2.2-6.1-7.4v-1l-2.1-2.3h-.1c-3.2 1.7-5 1.5-6.6-.8l-.3.1c1.8 4.6 3.8 6 7 5.6l.7-.1q.5.2 2 3.2 1.8 3.1 2 4.6zm.3-.7q-.3-1.4-2-4.4-1.8-3.2-2.2-3.4h-.9c-2.7.5-4.4-.6-6.1-4 1.7 1.5 3.4 1.5 6.2.1l1.8 2v.9l5.8 7.1z"/><path fill="#0a328c" d="m524.8 514.3 28.3-21.3c4.5 6.8.9 22.6.8 23l-27.6 13z"/><path d="m524.6 514.2 1.5 15 28-13.1v-.1c2.6-11.4 2.3-18.7-.9-23.2l-.1-.2zm.4.2 28-21.1c3 4.3 3.3 11.5.8 22.6l-27.4 12.7z"/><path fill="#d20014" d="m501.4 531.4 23.2-17.6c7.6 3.1 2 14.3 1.2 16.2l-24.5 11.4z"/><path d="M500.9 531.5h.3l-.1 10.2 24.9-11.5v-.1l.3-.7q2-5 2.4-8.2c.3-4.3-.8-6.4-4-7.6h-.1l-23.4 17.6zm.6 0 23.2-17.5c3 1.2 4 3.1 3.7 7.1q-.4 3.3-2.4 8l-.3.7-24.2 11.3z"/><path fill="#f1b517" d="m502.3 527.3 50.3-35.4 1.1 1.5-52.8 39z"/><path d="m502.1 527.1-1.5 5.7 53.4-39.3-1.4-1.8zm.3.3 50.2-35.2.9 1.2-52.3 38.4z"/><path fill="#f1b517" d="m555 490 .9-.7.2-2 7.8-2.5-4.4 6.8-2.4-.4-1 .7z"/><path d="m554.7 490 1.4 2.2 1-.8 2.5.4 4.8-7.4-8.4 2.8-.3 2-.8.6zm.5 0 .8-.6.3-1.9 7.2-2.4-4 6.2-2.5-.3-.8.6z"/><path fill="#f1b517" d="M558 494.1c-.9-2-2-4-4.3-6.5l-2.4 2.5 3.5 5.3z"/><path d="M558.2 494a26 26 0 0 0-4.4-6.5l-.1-.1-2.7 2.6 3.7 5.7 3.6-1.5zm-.4 0-3 1.2-3.3-5 2.2-2.3q2.4 2.7 4.1 6"/><path fill="#0a328c" d="m560.9 501.7-.3 2.3c-.6-.6-7-9.3-7-9.3l-5.1-1.9-1-2c4-3.6 7 2.1 7.2 2.7z"/><path fill="#0a328c" d="m561 501.7-6.1-8.3a12 12 0 0 0-2.4-3q-2.8-2.4-5.2.3l1 2.3 5.2 1.8q6.3 8.9 7 9.4l.2.2zm-.3 0-.3 2-6.7-9.2-5.1-1.8-1-1.8c1.6-1.6 2.9-1.6 4.7-.2a11 11 0 0 1 2.3 2.8z"/><path fill="#d20014" d="M556.9 505.4c0-2.4-2.4-8.7-3-9.4-3.1.7-5.3 1.7-6.7-5.6 2.2 3.6 6.4 2 6.8 1.8l1.7 2.5-.3 1.1 5.2 8.3z"/><path fill="#d20014" d="m556.6 505.7 4.3-1.5-5.3-8.4.3-1.2-1.9-2.6c-3.6 1.3-5.3.8-6.7-1.7l-.3.1q.7 4.7 2.5 5.8 1.1.7 3.9.2l.6-.1q.3.4 1.5 3.8a17 17 0 0 1 1.2 5.2zm.4-.6q0-1.5-1.2-5.1-1.2-3.8-1.7-4.1h-.8q-2.6.6-3.6 0-1.5-.9-2.2-4.5c1.5 1.9 3.3 2.2 6.4 1l1.6 2.3-.3 1.1 5 8.2z"/><path fill="#0a328c" d="m526.8 530.2 36.5-18c2.4 5.8.3 12.1-1 13.4.1 3.4 1.1 5.3-1.3 12q-1.3 7-5.3 10.5c-3.7 13.9-15.8 13-21.2.5z"/><path d="m526.8 530-.2.1 7.8 18.6c2.7 6.5 6.2 9.5 11.4 9.7 5.2 0 8.2-3.1 10-10.1 2.8-2.4 4.4-5.6 5.4-10.6a23 23 0 0 0 1.5-9.7l-.1-2.2q1.2-1.2 1.8-5.1.8-4.9-1-8.5v-.2l-18.4 9.1zm.3.3 18-8.8 18.1-9q1.5 3.5.9 8-.7 4-1.8 5h-.1v.1l.1 2.4q.4 4.7-1.5 9.5-1.4 7.3-5.2 10.4l-.1.1c-1.8 7-4.7 10-9.8 10-5-.3-8.3-3-11-9.5z"/><path fill="#d20014" d="m503 542 24.7-12.8c7.5 3.3 0 17.5-.7 19.5l-23.8 6z"/><path d="m502.8 541.8.2 13.1 24.2-6v-.1l.4-1q2.7-6 3.4-9.9.6-3.3 0-5.4a5 5 0 0 0-3.3-3.4zm.3.3 24.6-12.6q2.3.8 3 3 .4 2.1 0 5.3-.9 3.9-3.4 9.8l-.4.9-23.5 5.9z"/><path fill="#f1b517" d="m507.1 536.6 55.8-25.4 1 1.7-58.9 28.4z"/><path d="m507 536.4-2.4 5.3 59.5-28.7-1.1-2zm.3.4 55.5-25.3.8 1.2-58.2 28.1z"/><path fill="#f1b517" d="m565.6 509.8 1-.6.5-1.8 8.3-1.2-5.4 5.8-2.5-.7-1 .5z"/><path d="m565.4 509.7 1 2.4 1.2-.6 2.4.8 6-6.4-9 1.3-.5 1.9-1 .5zm.4.2 1-.5.5-1.8 7.5-1-4.9 5.2-2.4-.7-1 .4z"/><path fill="#f1b517" d="M568.2 514.3a24 24 0 0 0-3.5-7l-2.9 2 2.8 5.7z"/><path d="M568.3 514.2q-1.3-4-3.5-7l-.1-.2-3.1 2.1 3 6.1 3.8-.8zm-.4-.1-3.2.7-2.6-5.5 2.5-1.8q2.1 3 3.3 6.6"/><path fill="#0a328c" d="m570.4 522.2-1.2 2.4c-.5-.7-5.9-11-6-11l-4.8-2.6-1-2.4c4.4-2.8 6.7 3.4 7 4z"/><path fill="#0a328c" d="m570.6 522.2-6.1-9.7a13 13 0 0 0-2-3.4c-1.9-2-3.3-2.2-5.2-.7v.1l1 2.6 4.9 2.6q5.3 10.4 5.9 11l.2.2zm-.4 0-1 2q-1-1.3-5.7-10.7v-.1l-5-2.6-.8-2.1c1.7-1.3 2.9-1.1 4.6.7q1.2 1.5 1.9 3.2z"/><path fill="#d20014" d="M565.1 525.1c.2-2.4-1-9.2-1.4-9.9-3.2.6-5.4.5-6.3-6.8 2.2 3.6 6.2 3.1 6.5 3.1l1.4 2.6-.3.8 4.1 9.5z"/><path fill="#d20014" d="m564.9 525.4 4.5-.9-4.2-9.5.3-.9-1.5-2.8h-.1c-3.2.3-5-.6-6.3-3l-.4.1q.5 5 2.4 6.5 1.3 1 4 .5.4.5 1 4.1.6 4.1.3 5.6zm.4-.5q.2-1.6-.4-5.4-.6-4-1-4.4l-.1-.1h-.1q-2.7.5-4-.4-1.5-1.3-2-5.3 1.9 3 6.2 2.4l1.2 2.4-.3.8 4 9.3z"/><path fill="#016a16" d="m497.6 445-1 20.2 5.7.8-.8-20.2h6l-.7-8.2L492 436l.1 7.3z"/><path fill="#016a16" d="m497.4 445.1-5.5-1.7v-7.7l15 1.7.8 8.5h-6l.8 20.4-6-1zm.3 0-.9 19.9 5.4.8-.9-20.2h6l-.7-7.8-14.4-1.6v7l5.5 1.6z"/><path fill="#016a16" d="M499.6 437c-15.6-19.6-27-13.3-30.1-11.1 2 .5 3.5-.3 4.4-.4l-1.7 2.5c.2-.1 4.6-1.6 5.3-1.5-.7.5-1.4 1.8-1.4 1.8.3 0 3-1.7 3.5-1.8a9 9 0 0 0-1 3.2l2.2-.8c.6.6 0 1.2.4 1.4 4 .6 8.9 5.2 10 6.8z"/><path d="M499.5 437.1c-6.7-8.4-12.9-12.8-19.6-13.6-3.8-.3-6.8.4-10 2.3q1.3.2 3-.3l1-.2h.5l-.3.3-1.4 2q4.3-1.6 4.9-1.3l.2.1-.2.2q-.5.4-1.1 1.4l1.2-.8 1.9-1h.4l-.3.4q-.6.9-1 2.8l2.2-.8v.1q.4.4.3 1.2v.2a13 13 0 0 1 6.2 3q3 2.4 3.9 4l-.3.1q-.8-1.4-3.8-3.8a13 13 0 0 0-6-3q-.3 0-.4-.2V429l-2.5 1v-.4q.3-1.8.8-2.8l-1.2.7q-1.6 1-2 .9l-.1-.1.1-.2 1.1-1.6q-1 .2-4.7 1.5l-.6.3.4-.6 1.4-2h-.5a6 6 0 0 1-3.6.2l-.4-.1.4-.2q4.6-3.2 10.5-2.6c6.8.8 13.1 5.2 19.9 13.8zm-18.3-7"/><path fill="#016a16" d="M495.9 439.6c-2.3-4.6-30-15.7-36.6-5 2.5.7 4.4-1.4 4.5-1.6l-.2 2.6 3.9-2.8-1.4 3.3 3-2.4v2.9l3.8-4.2-.5 2.7 3.4-1.1-.4 2.2z"/><path d="M495.7 439.7c-1.3-3-6.4-5.5-16.5-8.2-10.6-2.5-16.7-1.6-19.6 3q2 .7 4-1.6l.4-.4-.2 2.7 3.6-2.5.3.2-1.1 2.6 2.8-2.2-.1 2.8 3.9-4.3-.6 3 3.4-1.1-.5 2.6-.3-.1.3-2-3.4 1.2.5-2.3-3.7 4v-3l-2.7 2.2-.3-.3 1.1-2.6-3.6 2.7.2-2.5q-2 2-4.3 1.1h-.2v-.3c3-4.9 9.2-6 20.1-3.3 10.3 2.7 15.5 5.4 16.8 8.4z"/><path fill="#016a16" d="M494.6 440a26 26 0 0 0-19-4.7c-7.6 3.5-11.1 2.2-12.3 10.7a17 17 0 0 0 2.7-2.7l1.5 3.6.5-4.7 1.2 3.9 1.8-5.8.4 4.2 2.8-3.8 1.3 1.4 1.1-3 1.1 2.3c.2 0 1.8-.9 3 0l2.1-2.5.5 2 1.8-2 .7 1.8 1.8-1.6-.1 1.3 6.2 1z"/><path d="M494.5 440.2c-5.2-4.5-11-6-18.9-4.7l-5 2c-4.2 1.6-6.3 4-7 8.1l2.3-2.4.1-.3 1.4 3.3.4-4h.4l1 3.3 1.6-5.3h.4l.3 3.7 2.6-3.5 1.3 1.4 1.2-3.1 1.2 2.4q1.8-.9 2.9 0l2.2-2.6.5 2 1.8-2 .7 1.8 2-1.7-.2 1.6 6 1v.4l-6.4-1v-1l-1.6 1.4-.6-1.8-1.9 2.1-.5-2-2 2.3v-.1q-1-.9-2.9 0l-.1.2-1-2.1-1.2 2.9-1.3-1.5-3 4-.3-3.8-1.7 5.5-1.1-3.6-.5 4.5-1.6-4a10 10 0 0 1-2.6 2.6h-.3v-.3c.7-4.5 2.9-7 7.4-8.8l5-2c8-1.3 14 .2 19.2 4.8z"/><path fill="#016a16" d="M492.9 440.8c-5.6-.8-19.7 3.2-24 9.3l2.5-1 .7 2.8 1-2.6.2 2.1q.7-2.4 2.3.3l.3-2.5.7 2.5 1-2.5c0 .2.6 2.7 1 3 0-.3 1.6-4.4 2.3-4.9l.2 3.1 1-2.9 1 2.5.1-3.3 1 2.7c0-.1.6-2.2 1.3-2.8l1.5 1.8 6.7-4.4z"/><path d="M492.9 441q-4.4-.6-12.4 2-8.1 2.9-11 6.6l1.8-.8h.2l.7 2.5.7-2h.4v1.4q.5-.6 1-.6t1.2 1l.3-2h.3l.5 2 1-2.5.1.6.4 1.5.3 1.1c1.2-3.1 2-4.4 2.5-4.7h.2l.2 2.4.8-2.5.8 2.1.1-2.4h.4l.8 2q.4-1.9 1.2-2.3h.1l1.5 1.7 6.5-4.3.3.4-6.8 4.5-1.5-1.8q-.6.4-1.1 2.6l-.1.5-1-2.4-.1 2.4h-.3l-.8-2-.8 2.5h-.3l-.2-2.8q-.7.6-2 4.5l-.1.1h-.1q-.4.1-.9-1.6l-.2-.8-1 2.4-.5-2.2-.3 2-.3-.3q-.7-1.4-1.2-1.3-.3 0-.8 1h-.3l-.1-1.4-.9 2.4-.8-3.2-2.3 1-.3-.3q2.8-4.4 11.6-7.4 8.1-2.7 12.6-2z"/><path fill="#016a16" d="M493.9 442.3c-7.1 2.4-12.9 11.5-12.7 16.5 3-3.8 2.5-3.4 3.8 1.8 0 0 .7-4 1-4.7l1 3.4.3-4.2 1 .2-.3-2.7 1.4 1.4c-.4-1.6-.7-2 .7-3.2-.1 0-1.6 0-.4-3.5l1.4 1.6s-.2-1.5.2-2.1l4.9-1.2z"/><path d="M494 442.5a18 18 0 0 0-9 7.2 16 16 0 0 0-3.6 8.6v-.2q1.9-2 2.2-2 .5 0 1 2.3l.4 1.3q.4-3.5 1-4l.2-.1.7 2.6.2-3.3 1 .1-.3-2.9 1.3 1.3q-.3-1.5.6-2.5l-.4-.4q-.6-1 .3-3.3v-.3l1.2 1.5q-.1-1.3.4-1.8l5-1.2v.4l-4.8 1.1q-.3.6-.2 2l.1.7-1.5-2q-.7 2-.3 2.6.2.4.6.4h.6l-.5.4q-1.1.8-.8 2.5l.1.5.1.6-1.4-1.5.2 2.4-1-.2-.3 4h-.3l-.8-3q-.3 1-.8 4.4h-.4l-.5-2.2q-.4-2-.7-2a8 8 0 0 0-1.8 2l-.4.5-.3.3v-.5c-.2-2.7.9-5.5 3.5-9.4q4.3-5.8 9.2-7.3z"/><path fill="#016a16" d="m494.6 443.3-2.7 5.2 1.4.7-3 2 2.5.2c-.3 0-3.5 1-4.4 5.3l4-1.4c-.1.1-3.1 3.4-3.8 5.7l2.2-2c0 .2-2 2.3-1.8 6.6l1.6-1.9c-.3 5-.2 5.4 1.8 9.6 0-.2-.3-5.8 0-6.6l4.5 5.9-2.5-7.8c.2.3 2.7 4.6 4.4 5l-3.5-6.7 3.5 3.7-4-7.2 3.7 1.8c0-.1-2.4-4-2.4-6.5l2.5 3.5s-.8-3.6-.7-4.7l1.3.5-2.5-3.6 1.7-.1-.2-2.2 1.2-.2v-2.4z"/><path d="m494.7 443.4-2.5 5 1.5.7-2.8 2h1.9v.5c-2.4.8-3.6 2.1-4.1 4.8l3.6-1.3.2.4q-2.8 2.9-3.6 4.9l1.8-1.5.3.3a8 8 0 0 0-1.9 6l1.8-2v.6q-.4 4.4 1.2 8.5-.3-5.1.2-5.8l.2-.1 4 5.2-2.3-6.8.4-.1q2.4 4.5 4 4.8l-3.4-6.3.3-.2 2.5 2.7-3.6-6.5 3.6 1.7a12 12 0 0 1-2-6v-.5l2.2 3.1a11 11 0 0 1-.5-3.9v-.1l1 .3-2.3-3.4 1.8-.1-.2-2.2 1.2-.2v-2.2h.3v2.5l-1.1.3.2 2.2H497l2.7 3.9-1.7-.6q0 1 .7 4.4l-.3.1-2.1-3q0 2 2.3 5.8l.4.6-3.7-1.9 3.6 6.7-.2.3-2.6-2.8 3 5.7h-.2q-1.5.2-3.8-3.6l2 6.2-.3.2-4.3-5.7q-.3 1 0 6.3h-.3q-2-4.2-1.8-9l-1.6 1.8v-.5a10 10 0 0 1 1-5.3l-1.5 1.2.1-.6q.6-2 3.2-5.1l-3.4 1.2v-.4c.5-2.6 1.4-4 3.5-5l-2-.1 3.2-2.3-1.2-.6 2.7-5.5z"/><path fill="#016a16" d="M497.2 445.4c-4 6-2.4 16.4-4.7 21.3z"/><path d="M497.3 445.5a28 28 0 0 0-3 12.7q-.6 6.5-1.6 8.7l-.3-.3q1-2 1.5-8.5.7-9.4 3.1-12.9z"/><path fill="#016a16" d="M500 437c15.7-14.7 27.1-4.8 30.3-1.8-2 0-3.6-1.4-4.5-1.8l1.7 3c-.1 0-4.7-3-5.3-3 .7.7 1.5 2.2 1.5 2.3-.3-.1-3-2.7-3.6-3 .8 1.3 1 3.5 1.1 3.6l-2.3-1.6c-.5.5.1 1.4-.4 1.3-4-.6-8.8 2.4-9.9 3.8z"/><path d="M500.2 437.2c6.7-6.4 12.9-8.8 19.6-7.6q5.5 1.3 10 5.4-1.1-.1-3-1.2l-1-.6-.4-.1.3.5 1.3 2.3q-4.3-2.9-4.8-2.7h-.3l.2.3 1.2 1.7-1.3-1.2q-1.5-1.4-1.8-1.5h-.5l.3.3q.7 1 1 3.1l-2.1-1.4h-.1q-.4.4-.3 1.2v.1a10 10 0 0 0-6.2 1.1 10 10 0 0 0-3.9 2.8l.3.2q.8-1.2 3.8-2.6a10 10 0 0 1 6-1q.3 0 .4-.3v-1l2.5 1.7v-.4q-.3-1.8-.7-3l1 1q1.8 1.6 2 1.6h.2v-.3l-1.2-2 4.7 3 .6.4-.4-.6-1.3-2.5.4.3q2.2 1.3 3.6 1.2h.4l-.3-.3q-4.8-4.7-10.6-5.9c-6.8-1.2-13 1.2-19.9 7.7zm18.3-1.3"/><path fill="#016a16" d="M503.9 440.8c2.2-3.8 30-6.4 36.5 6.2-2.4 0-4.3-2.7-4.5-2.9l.2 2.7-3.9-4 1.4 3.7-3-3.3v2.8l-3.7-5.2.5 2.8-3.4-2.2.4 2.4z"/><path d="M504 441c1.4-2.6 6.4-3.6 16.5-3 10.6.6 16.7 3.4 19.6 8.8q-2 .1-4-2.8l-.4-.5.2 2.8-3.6-3.6-.2.2 1 2.8-2.8-3 .1 2.8-3.8-5.5.5 3.2-3.4-2.1.5 2.7h.3l-.3-2 3.4 2.2-.4-2.5 3.6 5.1v-3l2.7 3 .3-.2-1.1-2.9 3.6 3.8-.2-2.6q2.1 2.8 4.3 2.5h.3l-.2-.3c-2.8-5.7-9-8.7-20-9.4-10.3-.5-15.4.5-16.8 3.2z"/><path fill="#016a16" d="M505.2 441.7c7.8-4.1 18.6.9 19 1 7.5 5.9 11 5.7 12.2 14.5-.6-.5-2.6-3.4-2.7-3.5l-1.5 3.2-.5-4.9-1.2 3.5-1.8-6.4-.4 4.1-2.7-4.5-1.3 1-1.2-3.4-1.1 2c-.1-.2-1.8-1.5-3-1l-2.1-3.1-.5 1.8-1.8-2.6-.7 1.6-1.8-2.1.1 1.3-6.2-.8z"/><path d="M505.3 441.9c5.1-3 11-2.6 18.8 1q1.9 1.5 5 3.6c4.2 2.9 6.3 6 7 10.3l-2.2-3.2-.2-.2-1.4 2.8-.4-4.2h-.3l-1 3-1.7-5.9h-.3l-.4 3.6-2.6-4.3-1.3 1-1.2-3.5-1.2 2q-1.7-1.4-2.9-1l-2.2-3.2-.5 2-1.7-2.7-.7 1.7-2-2.4.1 1.7-6-.8v.4l6.4.8v-1l1.6 2 .7-1.6 1.8 2.7.5-2 2 3q1-.6 2.9.9l.1.1 1-1.7 1.2 3.2 1.3-1 3 4.8.3-3.7 1.7 6 1.1-3.2.5 4.7 1.7-3.5q1.8 3 2.5 3.3l.3.2v-.4c-.7-4.6-2.9-8-7.4-11l-5-3.6c-8-3.7-14-4-19.1-1z"/><path fill="#016a16" d="M506.9 443a49 49 0 0 1 24 16.6l-2.5-1.8-.8 2.6-1-2.8-.1 2q-.9-2.7-2.3-.4l-.4-2.6-.6 2.3-1-2.8c0 .2-.7 2.5-1 2.6 0-.2-1.8-4.9-2.4-5.5l-.2 3-1-3.2-.9 2.2-.2-3.3-1 2.3s-.6-2.4-1.3-3.1l-1.5 1.3-6.6-6.5z"/><path d="M506.9 443.1q4.3.7 12.4 5.9a38 38 0 0 1 11 10l-1.9-1.3-.2-.2-.6 2.3-.8-2.3h-.3l-.1 1.4q-.4-.8-.9-1-.5 0-1.2.8l-.4-2.1-.3-.1-.5 1.8-1-2.8-.1.5-.7 2.4q-1.8-5-2.5-5.4h-.2l-.1 2.2-.9-2.7-.8 1.8-.1-2.4-.4-.2-.8 2q-.5-2.2-1.2-2.8h-.1l-1.5 1.2-6.5-6.3-.2.3 6.7 6.5 1.5-1.3q.6.7 1.1 3l.2.5.9-2.1.1 2.5h.4l.7-1.7.8 2.8h.4l.2-2.7q.6.8 2 5.1v.2h.1q.5.1.9-1.3l.2-.8 1 2.7.5-2 .4 2.2.2-.4q.8-1 1.2-1 .4.3.8 1.4h.3l.2-1.3.8 2.6.9-2.9 2.2 1.7.3-.3q-2.8-5-11.6-10.9a37 37 0 0 0-12.6-5.9z"/><path fill="#016a16" d="M505.9 444.2c7 4.5 12.8 15.6 12.6 20.4-3-4.8-2.5-4.2-3.8.6 0 0-.6-4.3-1-5l-1 3-.3-4.2-.9-.1.2-2.6-1.3 1c.3-1.5.6-2-.8-3.5.1 0 1.6.6.4-3.4l-1.3 1.3a5 5 0 0 0-.3-2.3l-4.9-2.7z"/><path d="M505.8 444.4q4.7 2.9 9 10 3.5 6.1 3.6 9.6l-.2-.2a11 11 0 0 0-2-2.7q-.5-.1-1.1 2l-.3 1.2q-.6-3.6-1-4.3l-.2-.2-.7 2.5-.3-3.5h-.9l.3-3-1.3 1q.3-1.5-.7-2.8.2 0 .5-.3.5-.8-.4-3.3v-.3l-1.2 1q.1-1.2-.4-1.8l-5-2.8v.4l4.8 2.7q.3.6.2 2l-.1.6 1.5-1.4q.7 2 .3 2.6-.2.3-.6.2l-.6-.2.5.5q1.1 1.3.8 2.8l-.1.5-.1.5 1.4-1-.2 2.4h1l.3 4.2h.3l.8-2.6q.4 1 .8 4.5l.4.1.5-2q.4-1.9.7-1.8t1.8 2.5l.5.7.2.4v-.5c.2-2.6-.9-5.8-3.5-10.5a29 29 0 0 0-9.2-10.1z"/><path fill="#016a16" d="m505.2 444.9 2.6 6-1.3.3 3 3-2.6-.6c.2.1 3.5 2.1 4.4 6.6l-4-2.6s3.2 4.4 3.9 6.9l-2.3-2.7c0 .2 2 3 1.9 7.2l-1.7-2.4c.4 5 .2 5.4-1.8 9 0-.2.4-5.6 0-6.7l-4.5 4.6 2.5-7c-.2.2-2.6 3.8-4.4 3.5l3.5-5.5-3.4 2.7 3.8-6-3.6.6c.1-.1 2.4-3.2 2.4-5.7l-2.4 2.7s.8-3.3.6-4.5l-1.3.1 2.5-2.8-1.6-.7.2-2-1.3-.7.1-2.4z"/><path d="m505 445 2.5 5.8-1.4.3 2.7 2.8-1.9-.5v.3a8 8 0 0 1 4.2 6.1l-3.7-2.4-.2.3q2.8 3.8 3.6 6l-1.8-2-.3.2q2 2.9 1.9 6.5l-1.8-2.5v.7q.4 4.5-1.2 8 .3-5-.2-5.8l-.1-.2-4 4.1 2.2-6.2-.3-.2q-2.6 3.8-4 3.6l3.3-5.2-.2-.4-2.5 2 3.5-5.5-3.6.7q2.3-3.1 2.1-5.4v-.5l-2.3 2.5q.7-2.9.5-3.8v-.2h-1l2.4-2.6-1.9-.7.2-2-1.2-.7v-2.2h-.3v2.4l1.2.6-.3 2.2 1.6.5-2.6 3h1.6q0 1-.7 4.1l.3.3 2.2-2.4q-.2 2.1-2.4 5l-.4.5 3.7-.7-3.6 5.6.3.3 2.5-2-3 4.8.2.1c1.2.3 2.2-.3 3.8-2.4l-2 5.6.4.3 4.2-4.4q.3 1.2 0 6.2l.3.2q2-3.6 1.8-8.5l1.6 2.3v-.5q.2-3-.9-5.6l1.4 1.7v-.7q-.6-2.2-3.3-6l3.4 2.2v-.4a9 9 0 0 0-3.5-6.1l2.1.5-3.3-3.2 1.3-.3-2.8-6.3z"/><path fill="#016a16" d="M502.6 446.2c4 7.4 2.3 17 4.6 22.8z"/><path d="M502.4 446.3q2.4 4.1 3 13.6.6 6.7 1.6 9.2l.4-.2q-1-2.3-1.6-9-.7-9.6-3.1-13.8z"/><path fill="#f1b517" d="M501.9 537.3s2.2-21.9 2.3-31.5c0-7.5-1.6-24.5-1.6-24.5l-6.7-1s-1 16.4-.9 24c.2 9.6 2.3 32.3 2.3 32.3z"/><path d="M502 537.4h-.1v.1l-4.7-.7v-.2q-2.2-22.7-2.4-32.3 0-7.5.9-24v-.3l7 1.1v.2q1.7 17 1.7 24.6 0 9.6-2.4 31.5m-.3-.3a345 345 0 0 0 2.3-31.3q0-7.5-1.6-24.3l-6.4-1q-1 16.3-.8 23.8.2 9.6 2.3 32.2z"/><path fill="#f1b517" d="m495.4 481.3 7.8 1.2-.9-6.1-5.6-1z"/><path d="m495.2 481.4 1.3-6.1 6 .9 1 6.5zm.5-.3 7.3 1.1-.8-5.7-5.4-.8z"/><path fill="#f1b517" d="m496 476.6 6.9 1-1.3-6.1-4.3-.7z"/><path d="m495.7 476.7 1.4-6.1 4.6.7 1.4 6.6zm.5-.3 6.4 1-1.2-5.8-4-.6z"/><path fill="#f1b517" d="m496.4 471.8 5.8.9-1-6.1-3.7-.6z"/><path d="m496.2 472 1.1-6.2 4 .6 1 6.5zm.4-.4 5.4.8-1-5.7-3.4-.5z"/><path fill="#f1b517" d="m501.4 465.9-4-.6-.5 2 4.8.8z"/><path d="m501.6 465.7.3 2.6-5.2-.8.5-2.5zm-.4.4-3.7-.6-.3 1.7 4.3.7zm1 66.6-5.1-.8v-.4l5.1.8zm.3-4.3-5.8-.9v-.4l5.8 1zm.8-4.3-7.4-1.1v-.4l7.4 1.1zm.3-4.8-7.6-1.1v-.5l7.6 1.2zm.1-4.8-8-1.2v-.4l8 1.2zm.3-4.3-8.7-1.4v-.4l8.7 1.4zm0-4-9.1-1.5v-.4l9.1 1.5zm0-4.9-9.2-1.4v-.4l9.2 1.4zm-.3-4.8-8.9-1.4v-.4l8.9 1.4zm-.4-5-8-1.2v-.4l8 1.2zm-.4-4.4-7.2-1.1v-.4l7.2 1.1z"/><path fill="#0a328c" d="M499.8 430.6c-1.6-1.1-4-3.4-3.5-4.8l1.4-2.5c1.8-4.7.2-3.2-.2-4.7.6-1.4 6.8.7 7.7 4.3 0 1-.5.3-.5 5.8l-1.5 3q-1.8 0-3.4-1"/><path fill="#0a328c" d="m499.7 430.8-2.6-2.3q-1.6-2-1-2.8l1.5-2.5c.8-2.1.9-3 .4-3.6q-.6-.4-.7-1t.4-.6l.9-.1q1 0 2.6.8 4 1.7 4.2 4.2l-.1.7a20 20 0 0 0-.4 5v.1l-1.6 3.2a7 7 0 0 1-3.6-1.1m.2-.3q1.4.9 3.2 1l1.4-3a20 20 0 0 1 .5-5.6q-.2-2.2-3.8-3.9-1.5-.6-2.6-.7h-.8l-.2.3q.1.4.5.7 1.2.8-.2 4.1l-1.4 2.6q-.5.6.8 2.2 1.1 1.2 2.6 2.3"/><path fill="#f1b517" d="m500.8 444-2-2.2.6-15.8 1.9 1z"/><path d="m500.7 444.1-2-2.2.5-16.2 2.3 1-.6 17.7zm-.1-.6.5-16.5-1.6-.7-.5 15.5z"/><path fill="#d20014" d="M503.3 431.6c1.2-.8 1.9-2.7 1.3-4.5-2.2-3-3.2-2.3-6.7-4-.7.8-1.9 2-1.7 3.3 4.4 3 2.6 1 4.1 1.3.8.4 1.3 1.4 3 4"/><path fill="#d20014" d="M503.4 431.8h-.3l-1-1.8q-1.4-2-1.8-2.1h-.6q-.6.7-3.6-1.3h-.1v-.2q-.3-1.2 1.6-3.3l.2-.1v-.1h.2q1.1.7 2.9 1.2 2.4.8 3.8 3 1.5 3.3-1.3 4.7m0-.4q2.4-1.4 1-4.2-1.3-1.9-3.6-2.7l-2.8-1.1h-.1q-1.7 1.9-1.6 2.9 2.8 1.8 3.1 1.4t1-.2q.5.2 2 2.3z"/><path fill="#016a16" d="M477.4 519.5q-1-1.9-3.9-2.5-3-.3-4 1.3l-.1-.8q.4-2.5 4.1-2.1 3.8.8 4.1 3.3z"/><path fill="#fff" d="m477.4 520 .2-.4q.3-.4.2-.9 0-1.2-1.3-2.3t-3-1.3-3 .4-1.3 2l.2.9.2.4.2-.4q.9-1.5 3.7-1.2t3.7 2.4zm0-1.1q-1.1-1.7-3.9-2.2c-2-.2-3 0-3.9 1v-.2q0-1 1.1-1.5t2.8-.4q3.9.7 3.9 3z"/><path fill="#016a16" d="M477 522.8q-.2 4.7-3.5 4.7-3.1-1-3.6-5.8v-2.9l7.2 1.1z"/><path fill="#fff" d="M477.3 522.8c-.2 3.8-1.2 5.1-3.8 5q-1.5-.4-2.7-2.1a8 8 0 0 1-1-4v-3.1l7.5 1.2zm-.4 0V520l-6.8-1v2.6c.1 3.5 1 5 3.4 5.6q1.4.2 2.4-1.1t1-3.4"/><path fill="#fff" d="M477 519q-.2 1.8-3.5 1.5-3.1-.7-3.6-2.6.4-1.7 3.6-1.5 3.1.8 3.6 2.6"/><path fill="#016a16" d="m472.7 520.6-.6-7.5 2.7.4-.4 7.3z"/><path fill="#f1b517" d="m472.5 520.6-.6-7.7 3.1.5-.5 7.7-2-.3zm.4-.2 1.3.2.4-6.9-2.3-.3z"/><path fill="#016a16" d="M477.4 519.2q-1 1.6-3.9 1.3-3-.6-4-2.5l-.1.8q.4 2.4 4.1 3.3 3.8.3 4.1-2l-.2-1"/><path fill="#fff" d="m477.4 518.6.3.5.2 1q0 1.2-1.4 1.9t-3 .4a7 7 0 0 1-3-1.3q-1.4-1.1-1.3-2.4l.2-.9.2-.4.2.5q.9 1.9 3.7 2.3 2.8.5 3.7-1.2zm0 1.2q-1.1 1.4-3.9 1c-2-.4-3-1-3.9-2.2v.2q0 1 1.1 1.8a6 6 0 0 0 2.8 1.2c2.7.4 3.7-.1 3.9-1.8z"/><path fill="#f1b517" d="m492.2 549.8-13.9-7-6-12.7-21.5-4.4.8 8.9 18.2 6.7 1.7 3.8 21 10z"/><path d="m492.4 549.7.3 5.6-21.3-10-1.7-3.8-18.3-6.7-.8-9.4 21.7 4.5 6.1 12.7 13.9 7zm-.4.3-13.8-7-6-12.7-21.2-4.4.7 8.6 18.2 6.7 1.8 3.8 20.6 9.7z"/><path fill="#503200" d="m477.7 550.9-22-40-1 .7 21.7 40.2z"/><path d="M477.7 550.6h.1v.5l-1.4 1-22-40.6 1.4-1zm-.3.2-21.7-39.7-.8.6 21.6 39.8z"/><path fill="#fff" d="m457.8 512.6-2.3-4.8q-.7-1.5-2.1-.9c-1 .6-.9 1.5-.5 2.5l2.2 4.5z"/><path d="m458 512.7-3 1.4-2.3-4.6q-.3-.8-.2-1.6t.8-1.2q1.4-.6 2.3 1l2.3 4.8zm-.5-.2-2.2-4.7q-.7-1.2-1.8-.7-.6.3-.7 1 0 .5.3 1.2l2 4.3z"/><path fill="#f1b517" d="M480.3 528.6 436 516.9l-1 7.1 44 11.6z"/><path d="m480.5 528.5-1.4 7.4-44.4-11.7 1.2-7.6 44.4 11.8zm-.4.3L436 517l-1 6.8 43.8 11.5z"/><path fill="#f1b517" d="m435.2 514.9-1.1 10 1.9.2 1.2-9z"/><path d="m435 514.6 2.4 1.3-1.3 9.4-2.2-.3 1.2-10.2zm.4.5-1.1 9.6 1.5.2 1.2-8.8z"/><path fill="#f1b517" d="m442.6 517.6-.5 9 1.2.4.9-8z"/><path d="m442.5 517.2 1.9 1.7-1 8.3-1.5-.4.5-9.3zm.3.8-.5 8.5.8.2 1-7.6z"/><path fill="#f1b517" d="m472.6 526-1 8.4 2 .3 1-8.4z"/><path d="m472.5 525.8 2.2.3-.8 8.8-2.6-.3 1.1-8.7zm.3.4-1 8 1.7.3.8-8z"/><path fill="#f1b517" d="m479.2 527.3-1.5 9.7 2.4.7.7-5q.5 1.6 2 2 2 .1 2.2-2-.3-2-2.1-2.5-1.3-.2-1.9 1.2l.5-3.6z"/><path d="m479 527 2.7.6-.4 2.8q.6-.6 1.6-.4 2.2.3 2.3 2.8 0 1-.7 1.7a2 2 0 0 1-1.6.5q-1.4-.2-2-1.5l-.6 4.5-2.8-1 1.5-9.8zm.4.5-1.5 9.3 2 .7.7-5h.4q.4 1.8 1.9 2 .8.1 1.3-.3t.6-1.4-.6-1.6-1.3-.8q-1.3-.2-1.7 1.1l-.4-.1.5-3.5z"/><path fill="#f1b517" d="m463.2 526.4-6 7 .7 1 7.8-5z"/><path d="m463.2 526.1 2.8 3.4-8.2 5.1-.9-1.3 6.2-7zm0 .6-5.8 6.6.5.8 7.5-4.7z"/><path fill="#f1b517" d="m449 543.8 6.2-7-.8-1-7.8 5z"/><path d="m449 544-2.6-3.4 8-5 1 1.3-6.2 7zm0-.5 6-6.7-.6-.7-7.5 4.7z"/><path fill="#f1b517" d="m465 544.2-7.4-7.6-.8.5 5.9 9.2z"/><path d="m465.3 544.2-2.6 2.4-6.1-9.6 1-.7 7.5 7.8zm-.6 0-7.1-7.4-.5.3 5.6 9z"/><path fill="#f1b517" d="m446.7 526.4 7.6 7.4.9-.6-6-9.3z"/><path d="m446.5 526.4 2.8-2.8 6.1 9.7-1.1.8-7.7-7.5zm.5 0 7.3 7.2.6-.5-5.6-8.9z"/><path fill="#f1b517" d="m455 522.4.6 10.4h1l2.4-9.5z"/><path d="m454.7 522.2 4.6 1-2.5 9.9-1.3-.1-.8-10.6zm.4.5.7 9.9h.7l2.3-9.2z"/><path fill="#f1b517" d="m457.4 547.7-.7-10.4-1.2-.3-1.3 10.2z"/><path d="m457.6 547.9-3.6-.5 1.4-10.6 1.4.3.8 10.6zm-.4-.5-.7-10-.8-.1-1.3 9.7z"/><path fill="#f1b517" d="m467.3 535.4-9.4-.3-.1 1 9.5 2.8z"/><path d="M467.5 535.2v4l-10-3 .2-1.3 9.6.2zm-.4.3-9-.2-.1.6 9.1 2.8z"/><path fill="#f1b517" d="m444.9 535.5 9.2-.3.2-.7-9.5-2.7z"/><path d="m444.7 535.8-.1-4.2 10 2.7-.4 1.2-9.3.3zm.3-.5 9-.3v-.4l-9-2.5z"/><path fill="#f1b517" d="M458.6 535.2q-.2 2.5-2.5 2.4-2.2-.6-2.5-3.1.2-2.5 2.5-2.4 2.3.6 2.5 3.1"/><path d="M458.8 535.2q0 2.9-2.7 2.6-1.1-.2-1.9-1.2t-.8-2.2q0-2.9 2.7-2.5a3 3 0 0 1 1.9 1.1q.7 1 .8 2.2m-.4 0q0-1-.7-2-.7-.7-1.6-1-2.3-.2-2.3 2.3 0 1 .7 1.9t1.6 1q2.3.3 2.3-2.2"/><path fill="#f1b517" d="M469.4 536.8c-.3 8.3-5.7 13.4-13.3 12.6a17 17 0 0 1-13.3-16.5c.3-8.3 5.8-13.5 13.3-12.6a17 17 0 0 1 13.3 16.5m-2.7-.4c-.2-6.6-4.6-12-10.6-13.2-6-.6-10.3 3.4-10.6 10 .3 6.7 4.6 12 10.6 13.3 6 .6 10.4-3.4 10.6-10"/><path d="M469.6 536.9c-.2 4.2-1.4 7.1-4 9.8a11 11 0 0 1-9.5 3q-5.5-1-9.5-5.8a18 18 0 0 1-4-11c.2-4.3 1.4-7.2 4-10 2.8-2.4 5.6-3.3 9.5-2.8q5.5.9 9.5 5.7a18 18 0 0 1 4 11m-.4 0q-.1-5.9-3.8-10.7a15 15 0 0 0-9.3-5.6c-3.8-.5-6.5.4-9.3 2.8a13 13 0 0 0-3.8 9.6q.1 5.9 3.8 10.7a15 15 0 0 0 9.3 5.6c3.8.4 6.5-.4 9.3-2.8a13 13 0 0 0 3.8-9.6m-2.3-.3c-.1 3.4-1 5.7-3.2 7.9a9 9 0 0 1-7.6 2.3q-4.4-.8-7.6-4.6-3-4-3.2-8.9c.1-3.4 1-5.7 3.2-7.9a9 9 0 0 1 7.6-2.3q4.4.7 7.6 4.6 3 4 3.2 8.9m-.4-.1q0-4.7-3-8.6a12 12 0 0 0-7.4-4.4q-4.3-.6-7.4 2.2-3 3-3 7.7a14 14 0 0 0 3 8.5q3.1 3.8 7.4 4.5 4.3.6 7.4-2.3 3-2.8 3-7.6"/><path d="m447.7 526.4-2-2.1.1-.3 2.1 2zm14.9.2 1.7-1.8.3.3-1.8 1.8zm3.8 19.2-2.2-2.2.2-.3 2.2 2.3zm-18.7-.8 1.9-2 .2.3-1.9 2z"/><path fill="#f1b517" d="m492.5 526 2.3 13.5-1.9.9-2-14.5z"/><path d="m492.7 526 2.3 13.7-2.2 1-2-15h1.9zm-.3.2h-1.2L493 540l1.5-.7z"/><path fill="#fff" d="M491.3 524.1c-1.1-.6-2.3-.1-4.7-3.6-3.3 3.4-.5 4.3.4 8.3 1.1.3 1.7-2.4 4.5-2.6l4.6.2-1-1.8z"/><path d="m491.4 524 3.6.4h.1l1.3 2.3-2.6-.2-2.2-.1q-1.6 0-3.1 1.8-1 1.1-1.6.8v-.2q-.3-1.3-1.3-3.2c-1-2.2-.8-3.6 1-5.3v-.1l.2.2q1.6 2.5 3.6 3.2.7 0 1 .3m-.1.4-.9-.3a7 7 0 0 1-3.8-3.2q-2 2-.7 4.7 1 1.8 1.3 3.2.3 0 1-.8 1.6-1.9 3.3-2l2.3.2 2 .1-.9-1.4z"/><path fill="#fff" d="m492.8 527-.4-4c-.6-1.5-1.8-.6-2 .2l.4 3.7z"/><path d="M493 527.1h-2.3l-.4-3.9q0-.8.9-1.2h.8l.6.9.4 4zm-.4-.4-.4-3.8q0-.3-.3-.5h-.6q-.6.3-.7.9l.4 3.4z"/><path fill="#f1b517" d="m481.8 536.1 1.8.3v2.9c.7 0 2.4.6 2.6 3.8v5.5c-.1 1.3-.9 2.4-1.5 2.5l-1.9-.4v2.5q.8 1 2.1 1.6 2.4 1.5-2 2.2l-2-.4c-2.4-1.2-2.5-2-2-2.7.7-.4 1.7-.4 2.1-1v-11c0-1.2 0-1.8.9-2.1zm3.2 6.6c0-1-1-1.8-1.5-2-.5 0-1.4.8-1.5 1.8v2.2c.1 1 .7 3.5 1.8 4.1q1 0 1.3-1.5z"/><path d="m481.6 535.8.3.1 1.9.3v2.9q.6 0 1.4.8 1.2 1.1 1.2 3.2v5.6c-.1 2-.6 2.6-1.7 2.6l-1.7-.4v2.3q.3.4 1.8 1.3l.2.1q.6.4.8.8t0 .9q-.7.6-2.9.9l-2-.4q-1.7-.8-2.2-1.7t.2-1.3l1-.5q.7-.1 1-.4v-11.1q-.2-1.8.8-2.2v-3.5zm.4.5v3.6q-1 .3-.8 2V553q-.3.6-1.2.7l-1 .4q-.3.3 0 .8.5.8 2 1.5l1.9.3q2-.2 2.5-.8.2 0 .1-.3 0-.3-.6-.6l-.2-.1a7 7 0 0 1-2-1.5l-.1-.1v-2.8l2.1.4q1.3.1 1.3-2.3v-5.5q0-1.9-1-3-.7-.6-1.5-.6h-.2v-3zm3.2 6.4v4.6q0 .7-.4 1.3-.6.6-1 .4-1.6-.6-2-4.3v-2.3q0-.7.7-1.3t1-.5q1.7.4 1.7 2.1m-.4 0q.1-1.5-1.3-1.7-.3-.1-.8.4t-.5 1.1v2.2q.3 3.4 1.6 3.9.4 0 .7-.3.4-.6.4-1z"/><path fill="#fff" d="M469 545.3c-1.2-.5-1.2 2.2-1.2 2.4l2 .3c.9.7 1.5 2 1 2.8-.7.2-4-1.3-4.5-.8 1 4.6 5.3 6.6 7.5 5.3 1.8-2 2.2-6-3.6-8.7z"/><path d="m469.2 545 1.1 1.4c2.8 1.2 4.1 2.5 4.8 4.7q.5 2.8-1.2 4.3-1.5 1.4-4.4-.3c-2-1.4-3-2.8-3.4-5.1v-.1q.3-.6 2.6.2 1.8.7 2 .5.3-.4 0-1.2-.4-.7-1-1.2l-2-.3V546l.5-1q.3-.3 1 0m-.2.4h-.5q-.3.3-.4.9l-.1 1.2 1.8.3q.8.5 1.2 1.5.3 1.1 0 1.6-.4.3-2.3-.4-2-.7-2.3-.5.6 3 3.3 4.7 2.6 1.6 4 .4 1.5-1.4 1-4-.7-2.8-4.5-4.3z"/><path d="m470.4 546.7-.6 1.4-.3-.2.6-1.4zm-39.6-5.4-1.9-9.4h.4l1.9 9.3zm2.3-.2-2.9-7.5h.4l2.9 7.4zm5.1-1-6.5-5 .1-.3 6.6 5z"/><path d="m441 539.7-12.1-7.8.2-.3 12.1 7.7z"/><path fill="#d20014" d="M421.7 524.2s-4.4-.6-5.2-.5c-.1.2 1 2 .8 2.6-1.8 2-8 1-9.3.4-.1-1 6.4-.9 7.1-1.4 0-.7-1-2.7-1-3.8.6-1.4 3.3-1.6 3.5-1.6z"/><path fill="#d20014" d="M421.7 524.4q-4.4-.7-5.2-.5h.1l.3.7q.8 1.4.5 1.9-.7 1.5-5 1.3-3.7-.3-4.5-1l-.1-.4q0-.2.2-.3l1-.3 3-.2 3-.3-.5-1.3q-.6-1.9-.5-2.6.3-1.5 3.6-1.7h.1l4.5 4.8zm-.5-.5-3.6-3.8q-3 .1-3.3 1.4 0 .6.6 2.3l.4 1.5q0 .4-3.2.7l-4 .5q.8.6 4.4.9 3.9.2 4.6-1.2.1-.2-.5-1.5l-.3-.9.1-.3q.8-.1 4.8.4"/><path fill="#503200" d="m427.6 529.6-10-10.9s-.4-.5-.8-.2q-.2.9.1 1l10.4 11.2z"/><path d="m427.9 529.5-.5 1.5-10.6-11.3-.2-.5q-.3-.5 0-.8.4-.4.8-.1l.3.3 10 10.8zm-.5.1-10-10.7-.1-.2q-.3-.1-.4 0v.4l.1.3 10.2 11z"/><path fill="#f1b517" d="m437.3 540.3-8.2-9.3-.5-2.3-1.7 1.2c-.4.4-1.1 1.6-1.1 1.6l2.2.5 7 8.3z"/><path d="M437.7 540.5H435l-7-8.3-2.5-.5.1-.3 1.2-1.7 1.7-1.2.2-.2.6 2.6 4 4.6 4.1 4.7zm-.8-.4-3.8-4.3-4.1-4.7-.5-2.1-1.5 1-1 1.4 2 .4 7.1 8.3z"/><path fill="#f1b517" d="M467 555.5q0 1.5-1.4 1.4-1.3-.4-1.4-1.8.1-1.4 1.4-1.4 1.3.4 1.5 1.8"/><path d="M467.3 555.6q0 1.7-1.7 1.5-.6 0-1.1-.7t-.5-1.3q0-.8.5-1.2t1.1-.4q1.7.3 1.7 2m-.4 0q0-1.4-1.3-1.6-1.2 0-1.3 1.2 0 .6.4 1t1 .6q1.2.2 1.2-1.2"/><path fill="#f1b517" d="M463.4 552q-.2 1.4-1.5 1.4-1.3-.4-1.4-1.9 0-1.4 1.4-1.4 1.3.5 1.5 1.9"/><path d="M463.5 552q0 .8-.4 1.2t-1.2.4q-1.6-.3-1.6-2 0-.9.4-1.3t1.2-.3q1.6.3 1.6 2m-.3 0q0-1.5-1.3-1.6-1.2-.2-1.3 1.2 0 1.4 1.3 1.6 1.3 0 1.3-1.2"/><path fill="#f1b517" d="M458.3 553.2q-.1 1.5-1.4 1.4-1.3-.4-1.5-1.9.2-1.4 1.5-1.3 1.3.3 1.4 1.8"/><path d="M458.5 553.2q0 .8-.5 1.2t-1.1.4a2 2 0 0 1-1.2-.7q-.4-.6-.5-1.4t.5-1.2 1.2-.3q1.6.2 1.6 2m-.3 0q0-.6-.4-1-.4-.6-1-.6-1.2-.2-1.2 1.2 0 .6.4 1 .3.4.9.6.5 0 .9-.3z"/><path fill="#f1b517" d="M450.6 554q0 1.4-1.5 1.3-1.3-.3-1.4-1.8.1-1.5 1.4-1.4 1.3.4 1.5 1.8"/><path d="M450.8 554q0 1.7-1.7 1.5t-1.6-2 1.6-1.6 1.7 2m-.4 0q0-.6-.4-1-.3-.5-.9-.6a1 1 0 0 0-.9.3q-.3.3-.3 1 0 .4.3 1 .4.5 1 .5t.8-.3.4-.9"/><path fill="#f1b517" d="M447.3 553.9q0 1.5-1.5 1.4-1.2-.4-1.4-1.8 0-1.5 1.5-1.4 1.2.3 1.4 1.8"/><path d="M447.5 554q0 .6-.5 1.1-.4.4-1.2.4-.6-.1-1.1-.7t-.5-1.4.5-1.2 1.2-.3q1.5.3 1.6 2m-.4 0q0-.6-.3-1-.4-.6-1-.6-1.2-.2-1.2 1.2 0 .6.3 1 .4.5 1 .6 1.2 0 1.2-1.2"/><path fill="#f1b517" d="M444 553.4q0 1.5-1.4 1.4-1.3-.4-1.4-1.8.1-1.5 1.4-1.4 1.3.4 1.5 1.8"/><path d="M444.3 553.4q0 1.8-1.7 1.6t-1.6-2q0-.9.5-1.2.5-.4 1.1-.4t1.2.7q.4.6.5 1.3m-.4 0q0-1.4-1.3-1.6-1.3 0-1.2 1.2 0 .6.3 1 .4.5 1 .6t.8-.3.4-1"/><path fill="#f1b517" d="M440.8 552.8q-.1 1.5-1.4 1.4-1.3-.4-1.5-1.8 0-1.5 1.5-1.4 1.2.4 1.4 1.8"/><path d="M441 552.9q0 1.7-1.6 1.5a2 2 0 0 1-1.2-.7q-.5-.6-.5-1.3t.5-1.2 1.2-.4q.6 0 1.1.7.5.5.5 1.4m-.4-.1q0-1.4-1.3-1.6a1 1 0 0 0-.9.3q-.3.3-.3 1 0 .4.3 1 .4.4 1 .5 1.2.1 1.2-1.2"/><path fill="#f1b517" d="M442.4 550.2q0 1.5-1.5 1.4-1.2-.4-1.4-1.8.1-1.5 1.4-1.4 1.3.4 1.5 1.8"/><path d="M442.6 550.3q0 1.7-1.7 1.5a2 2 0 0 1-1.1-.7q-.5-.6-.5-1.3 0-1.8 1.6-1.6 1.7.3 1.7 2m-.4 0q0-.6-.4-1-.3-.5-.9-.6-1.3 0-1.2 1.2 0 1.4 1.2 1.6 1.4.1 1.3-1.2"/><path fill="#f1b517" d="M445.6 550.9q-.2 1.4-1.5 1.3-1.3-.3-1.4-1.8.1-1.5 1.4-1.4 1.3.5 1.5 1.8"/><path d="M445.8 550.9q-.1 1.7-1.7 1.5-.7 0-1.1-.7-.6-.6-.5-1.3t.5-1.2 1.1-.4 1.2.7.4 1.4m-.3 0q0-1.5-1.3-1.7-1.2 0-1.3 1.2 0 1.5 1.3 1.6t1.3-1.2"/><path fill="#f1b517" d="M448.6 550.9q-.1 1.4-1.4 1.4-1.3-.4-1.5-1.9 0-1.4 1.5-1.4 1.2.4 1.4 1.9"/><path d="M448.8 550.9q0 1.8-1.7 1.6-1.5-.3-1.6-2.1 0-.7.5-1.2t1.2-.4 1.1.7q.5.7.5 1.4m-.4 0q0-1.5-1.2-1.6-1.4-.2-1.3 1.2 0 .6.3 1 .4.5 1 .5t.9-.2.3-1"/><path fill="#f1b517" d="M447 547.9q0 1.4-1.4 1.3-1.3-.3-1.5-1.8.2-1.5 1.5-1.4 1.3.5 1.5 1.8"/><path d="M447.2 547.9q0 .7-.4 1.2t-1.2.3q-1.6-.2-1.6-2t1.6-1.6q.7.1 1.2.7t.4 1.4m-.3 0q0-1.5-1.3-1.7a1 1 0 0 0-.9.3q-.3.4-.4 1 0 .6.4 1 .3.5 1 .5 1.1.2 1.2-1.2"/><path fill="#f1b517" d="M444 547.4q0 1.4-1.4 1.4-1.3-.4-1.4-1.9.1-1.4 1.4-1.4 1.3.4 1.5 1.9"/><path d="M444.3 547.4q0 1.8-1.7 1.6-1.6-.3-1.6-2 0-.9.5-1.3t1.1-.4q.7.1 1.2.7t.5 1.4m-.4 0q0-1.5-1.3-1.6a1 1 0 0 0-.9.2q-.3.4-.3 1t.3 1 1 .5.8-.2.4-1"/><path fill="#f1b517" d="M473.4 558.6c-.2-.7-1.4-.7-1.5-1.5.2-.8 2 .1 2.6 1 1-.8 1.5-.5 2.2 0l.4.5q1.8-2.4 4 .1c1-.8 2.5-.3 3.4 1q2-1.6 3.4.5.6-1 1.3.1c.8-1.2 2.2-.6 3.1.5q1-.7 2 .5l.2.2q1.3-.7 1.6.4c-.2.6-1.1.2-1.3.8.1.6.8.5 1 1.2-.2.6-1.3.6-1.6-.4-.6.9-2 .3-2.3-.6q-1 1.1-2.4-.5-1 .7-1.6-.2-2 1.4-3.3-1h-.6c-1.1 1.3-2.4.5-3-.5-1.7 1-2.6.6-3.6-.5-1.2 1.3-2.5 1-3-.4-1 .4-2.1.4-2.3-.3.1-.7 1.1-.3 1.3-1m10.1 1.8q0-1-1-1-.8-.1-.8.7t.9 1q.8 0 .9-.7m-3.3-.8q0-.6-1-.9-1 0-1 .6t1 .8q1 0 1-.5m7 1.5q0-.6-.9-.8-.8 0-1 .5.2.8 1 .9t1-.6m4.2.5a1 1 0 0 0-.8-1q-.8 0-.8.8 0 .7.8.9.6 0 .8-.7m-14.9-2q0-.6-.8-.8-.7 0-.9.5 0 .5.9.7.8 0 .8-.5m17.2 2.9q0-.7-.6-.9-.5 0-.6.7t.6.8q.6 0 .6-.6m-4.8-1-.5-.6q-.5 0-.5.5t.5.6q.5 0 .5-.5"/><path d="M473.2 558.6q0-.2-.6-.5-.9-.4-1-1t.6-.5l.9.2a3 3 0 0 1 1.4 1q1-.7 2.3.2l.3.3q.8-1.1 1.9-1.1t2 1.2q.7-.5 1.8-.2 1.1.4 1.7 1.2 1-.8 1.9-.6.8.1 1.4 1 .3-.3.7-.3t.6.5q.6-.7 1.7-.6a3 3 0 0 1 1.5 1q.8-.3 2 .7l.2.2q.4-.4 1-.3t.7.9q0 .5-.7.6-.5 0-.5.3l.3.2q.6.3.6 1 0 .5-.9.5-.6-.1-.8-.6-.5.4-1.3.2-.7-.3-1-.9-.5.4-1.1.3-.9 0-1.4-.9-.3.3-.8.2l-.7-.3q-.7.7-1.8.4-1.1-.4-1.6-1.4h-.4q-.7.9-1.8.5-.9-.3-1.3-1-2 1.2-3.6-.5-.7.9-1.8.7-1-.1-1.4-1.2-.4.3-1.3.2l-.6-.2q-.4-.1-.4-.6t.8-.6q.5 0 .5-.2m.4 0q0 .5-.8.6-.6 0-.5.3l.1.2.5.1q.9 0 1.3-.2l.2-.2.1.3q.3 1 1.1 1.1 1 .2 1.7-.7l.1-.2.1.2c1.2 1.1 2 1.2 3.4.4h.2v.2q.5.7 1.3 1 .8.2 1.5-.6h.8v.1q.5 1 1.4 1.3 1 .2 1.7-.5l.2-.2v.3l.6.3.8-.2.1-.1.1.1q.4.8 1.2.9.6.1 1-.4l.2-.3.1.5q.2.5.9.8.7.1 1-.3l.2-.4.2.5q0 .4.6.6.5 0 .6-.2t-.4-.5-.5-.7.7-.6q.5 0 .5-.3t-.4-.3q-.5-.1-.8.2h-.3l-.2-.3q-1.2-1-1.7-.5l-.2.2-.1-.2q-.5-.9-1.5-1-1-.3-1.4.5l-.1.3-.2-.3-.5-.5q-.3 0-.5.4v.2l-.3-.2q-.6-1-1.4-1.1t-1.7.7h-.1l-.1-.1q-.6-.9-1.6-1.2-1.1-.3-1.6.3l-.1.1-.2-.2q-1-1.1-1.9-1.2-1 0-1.7 1l-.1.2h-.1l-.5-.5q-1-.8-2 0l-.2.1v-.2q-.3-.6-1.4-1-.4-.3-.7-.2t-.3.2l.7.5q.8.4.9 1m10 1.6q0 .4-.2.7l-.8.2q-.4 0-.8-.4l-.3-.9q0-1 1-.9.5 0 .9.4zm-3.3-.8q0 .9-1.2.7-.5 0-.8-.3-.4-.4-.4-.7-.1-.4.4-.7h.8q.5 0 .8.3t.4.7m7 1.5q0 .4-.3.7h-.8q-.5 0-.7-.3l-.4-.7q0-.9 1.1-.7 1 .1 1.1 1m4.3.5q0 1-1 .9a1 1 0 0 1-1-1.2q0-1 1-.8t1 1.1m-14.9-2q0 .8-1 .6-.4 0-.7-.3l-.4-.7q0-.7 1-.6 1 .2 1.1 1m17.2 2.8q0 .5-.2.6l-.6.2-.5-.3-.3-.7q0-1 .8-.9.3 0 .6.4zm-10.7-2q0-.8-.7-.9t-.7.6.7.8.7-.6m6 1.1q0 .4-.3.5l-.5.2-.5-.3-.2-.6q0-.7.7-.6t.7.8m-9.2-1.8q0-.3-.2-.4l-.6-.3q-.8-.1-.9.4l.2.4.7.2h.6q.3-.2.2-.3m7 1.5q0-.5-.7-.6t-.7.4l.2.3q.2.3.5.3.7.1.8-.4m4.2.5-.2-.5-.4-.2q-.7-.1-.7.5l.2.4.5.3q.6 0 .6-.5m-14.9-2.1-.1-.3-.5-.2q-.7 0-.7.3 0 .4.7.5t.6-.3m17.2 2.8q0-.5-.4-.6t-.4.5.4.6l.3-.1zm-4.7-1q0-.2-.4-.3-.3 0-.3.3v.2l.3.2.3-.1z"/><path fill="#f1b517" d="m507.5 552.2 14-2.8 6-10.8 21.4 2-.7 8.7-18.3 1.3-1.7 3.3-21 3.4z"/><path d="m507.4 552-.4 5.5 21.3-3.5 1.7-3.2 18.3-1.2.8-9.2-21.7-2-6.1 10.9zm.3.4 13.8-2.8 6-10.8 21.2 2-.7 8.4-18.2 1.2-1.8 3.3-20.6 3.3z"/><path fill="#503200" d="m522 557.7 22-33.4 1 1.1-21.7 33.6z"/><path d="m522 557.4-.1.3h.1v.2l1.3 1.4 22-33.9-1.4-1.4zm.3.3 21.7-33 .8.7-21.6 33.3z"/><path fill="#fff" d="m542 525.5 2.3-4.1q.6-1.3 2-.2 1.4 1.3.5 2.5l-2.1 3.9z"/><path d="m541.7 525.5 3 2.3 2.3-4q.3-.6.3-1.4-.1-.8-.9-1.4-1.5-1.2-2.3.2l-2.3 4.1zm.5 0 2.2-4q.7-1 1.9-.2.6.5.6 1.1t-.2 1.2l-2.1 3.7z"/><path fill="#f1b517" d="m519.4 534.7 44.3 1.4 1 7.5-44-1.5z"/><path d="m519.2 534.4 1.4 7.9 44.4 1.6-1.1-8-44.5-1.5zm.4.5 44 1.4 1 7.1-43.7-1.5z"/><path fill="#f1b517" d="m564.5 534.4 1.1 10.3-1.8-.3-1.3-9.4z"/><path d="m564.6 534.1-2.3.7 1.3 9.8 2.2.3-1.1-10.5zm-.3.5 1.1 9.9-1.5-.2-1.2-9.2z"/><path fill="#f1b517" d="m557.1 535 .5 9.2h-1.1l-1-8.3z"/><path d="m557.3 534.6-2 1.2 1 8.6h1.5l-.5-9.4zm-.4.7.5 8.7h-.8l-.9-8z"/><path fill="#f1b517" d="m527.1 534.4 1 8.8-2-.5-1-8.6z"/><path d="m527.3 534.2-2.3-.3.9 9 2.5.5-1.1-9zm-.3.4 1 8.3-1.8-.3-.8-8.3z"/><path fill="#f1b517" d="m520.5 533.6 1.5 10.2h-2.4l-.7-5.3q-.5 1.6-2 1.5-2-.5-2.1-2.6.1-2 2-2 1.3.2 1.9 1.8l-.4-3.8z"/><path d="m520.7 533.4-2.7-.2.4 3q-.6-.9-1.5-1-2.3-.3-2.3 2.2 0 1 .6 1.8t1.6 1q1.5.2 2-.9l.7 4.7h2.8l-1.6-10.4zm-.3.4 1.4 9.8h-2l-.7-5.1h-.4q-.3 1.5-1.9 1.3-.7 0-1.3-.8-.5-.7-.6-1.6t.6-1.4q.5-.4 1.4-.4 1.2.3 1.6 1.7h.4l-.4-3.6z"/><path fill="#f1b517" d="m536.5 537.7 6 8.7-.6.8-7.8-7.2z"/><path d="m536.5 537.4-2.7 2.6 8.1 7.5 1-1-6.3-9zm0 .6 5.8 8.4-.5.6-7.5-7z"/><path fill="#f1b517" d="m550.7 559.2-6.1-8.7.7-.8 7.8 7.2z"/><path d="m550.6 559.5 2.8-2.6-8.2-7.5-.9 1.1 6.2 8.9zm0-.6-5.8-8.3.5-.6 7.5 7z"/><path fill="#f1b517" d="m534.7 555 7.4-5.5.8.7-5.8 7.6z"/><path d="m534.4 554.9 2.7 3.2 6-7.9-1-1-7.5 5.5zm.6 0 7.1-5.1.5.4-5.6 7.3z"/><path fill="#f1b517" d="m553 542.6-7.5 5.2-1-1 6-7.5z"/><path d="m553.3 542.7-2.9-3.7-6.1 7.9 1.2 1.1 7.6-5.2zm-.6-.2-7.2 5-.7-.6 5.7-7.3z"/><path fill="#f1b517" d="m544.8 536.2-.7 10.1-1-.2-2.4-10.3z"/><path d="m545 536-4.5-.4 2.4 10.7 1.4.3.7-10.4zm-.4.4-.7 9.7-.7-.1-2.3-10z"/><path fill="#f1b517" d="m542.4 560.7.7-10.2h1l1.4 10.6z"/><path d="m542.2 560.9 3.5.5-1.4-11H543l-.7 10.2zm.3-.4.7-9.7h.8l1.3 10.1z"/><path fill="#f1b517" d="m532.4 545.4 9.4 2.5.2 1h-9.6z"/><path d="M532.2 545.1v4h10l-.2-1.3-9.6-2.6zm.4.5 9 2.5.2.7h-9.2z"/><path fill="#f1b517" d="m554.8 552.3-9.2-3-.2-.9 9.6.2z"/><path d="m555 552.5.1-4.1-9.9-.2.3 1.2 9.3 3zm-.3-.5-9-3v-.4l9 .2z"/><path fill="#f1b517" d="M541.1 547.9q.2 2.5 2.5 3 2.3.2 2.5-2.3-.2-2.5-2.5-3.1-2.3 0-2.5 2.4"/><path d="M541 547.8q0 2.9 2.6 3.4 1 0 2-.6.7-.7.7-2 0-3-2.7-3.3-1.1-.2-1.9.6-.7.6-.8 2m.4 0q0-1 .7-1.7a2 2 0 0 1 1.6-.5q2.3.3 2.3 2.9 0 1-.6 1.7a2 2 0 0 1-1.7.5c-1.6-.4-2.2-1.1-2.3-3"/><path fill="#f1b517" d="M530.4 546.2c.2-8.2 5.7-13.4 13.2-12.6a17 17 0 0 1 13.3 16.6c-.3 8.2-5.7 13.4-13.3 12.6a17 17 0 0 1-13.3-16.6m2.7.4c.3 6.7 4.6 12 10.6 13.3 6.1.6 10.4-3.5 10.6-10.1-.2-6.7-4.5-12-10.6-13.2-6-.7-10.3 3.4-10.6 10"/><path d="M530.2 546.2a18 18 0 0 0 4 11q3.9 5 9.4 5.8a11 11 0 0 0 9.5-3q4-3.7 4-9.8a18 18 0 0 0-4-11q-4-4.8-9.5-5.8c-3.9-.4-6.7.5-9.5 3a13 13 0 0 0-4 9.8m.4 0a13 13 0 0 1 3.9-9.5 11 11 0 0 1 9.2-2.9 15 15 0 0 1 9.3 5.6 18 18 0 0 1 3.8 10.8q-.1 5.9-3.8 9.6a11 11 0 0 1-9.3 2.8 15 15 0 0 1-9.2-5.6 18 18 0 0 1-3.9-10.7m2.3.3c.1 3.4 1 6 3.2 8.9 2.3 2.6 4.5 4 7.6 4.6a9 9 0 0 0 7.7-2.3 11 11 0 0 0 3.1-8c0-3.4-1-6-3.1-8.8q-3.2-3.9-7.7-4.6a9 9 0 0 0-7.6 2.3c-2.1 2.2-3 4.5-3.2 7.9m.4 0q0-4.6 3-7.6c2.2-2 4.4-2.6 7.4-2.2q4.3.7 7.4 4.4c2 2.7 3 5.3 3 8.6s-1 5.5-3 7.6a9 9 0 0 1-7.4 2.3 12 12 0 0 1-7.4-4.5c-2-2.7-3-5.3-3-8.6"/><path d="m552 542.3 2.1-1.5-.2-.3-2 1.4zm-14.8-4.3-1.8-2.3-.3.2 1.8 2.4zm-3.9 18.1 2.2-1.6-.2-.3-2.2 1.6zM552 561l-1.8-2.6-.3.3 1.9 2.5z"/><path fill="#f1b517" d="M507.2 528.3 505 541l1.9 1.4 2-13.8z"/><path d="m507 528.2-2.3 13 2.2 1.6 2-14.2-1.8-.6zm.3.3 1.3.4-2 13.3-1.5-1.2z"/><path fill="#fff" d="M508.4 526.8c1.2-.3 2.3.6 4.7-2.2 3.3 4.5.5 4.4-.4 8.2-1 0-1.7-3-4.5-4l-4.5-1.2 1-1.4z"/><path d="m508.4 526.6-3.7-.7-1.4 1.8 2.6.7 2.3.6q1.5.4 3 2.7 1 1.4 1.6 1.3v-.2q.4-1.2 1.3-2.8 1.6-2.5-1-5.6v-.1l-.2.1q-1.6 2-3.6 2zm.2.4h.8q2.1 0 3.8-2 2 2.7.7 4.9-1 1.5-1.2 2.8-.4 0-1-1.1-1.7-2.4-3.4-3l-2.2-.5-2-.5.8-1.1z"/><path fill="#fff" d="m506.9 529.1.4-3.9c.6-1.2 1.8 0 2 1l-.4 3.5z"/><path d="m506.7 529.3 2.3.7.5-3.8q0-.8-1-1.5l-.7-.2q-.4 0-.7.6l-.4 4zm.4-.3.4-3.7q0-.3.4-.4l.5.2q.7.4.7 1l-.4 3.4z"/><path fill="#f1b517" d="M517.9 541.7v3.6c.9.6.9 1.2.8 2.4v11.1c.4.7 1.5 1 2 1.6s.6 1.6-2 2l-1.9-.2q-4.4-2-2-2.8 1.3-.2 2.2-.9l-.1-2.5-1.9-.2c-.5-.3-1.4-1.6-1.5-3v-5.5c.3-3.1 2-3.1 2.7-3v-2.9zm-3.2 5.6v4.6c0 .8.6 1.8 1.2 1.9 1.2-.3 1.7-2.6 1.8-3.6V548c-.1-1-1-2-1.5-2.2-.5 0-1.4.5-1.5 1.5"/><path d="M518 541.4h-.1l-2-.2.1 2.9q-.7 0-1.5.3-1.1.8-1.2 2.9v5.5q.1 2.9 1.7 3.2l1.7.1v2.3q-.3.4-1.8.8h-.2l-.8.5q-.2.4.1 1 .6.7 2.8 1.7l2 .2q1.8-.3 2.2-1 .5-.5-.1-1.4l-1-.7q-.9-.4-1-.8v-11q0-1.9-.9-2.5v-3.5zm-.3.4v3.7h.1q.9.5.8 2.1v.5l-.1 10.7q.3.6 1.3 1.1l.8.6q.4.5.1.9-.4.6-2 .8l-1.8-.2q-2-.8-2.6-1.6-.1-.3 0-.4 0-.3.5-.4h.3q1.5-.4 2-1v-2.8l-2.1-.3q-1.2-.2-1.3-2.6v-5.5q0-2 1-2.6a2 2 0 0 1 1.5-.3h.2v-2.9zm-3.2 5.5v4.5q0 .8.4 1.4.6.7 1 .8 1.7-.1 2-3.7V548q0-.7-.6-1.5t-1-.9q-1.9-.1-1.8 1.7m.4 0q0-1.4 1.3-1.3.3 0 .8.7t.5 1.3v2.2q-.3 3.3-1.6 3.4-.3 0-.7-.6t-.4-1.1z"/><path fill="#fff" d="M530.7 554.7c1.2 0 1.2 2.6 1.2 2.8l-2-.2c-.9.4-1.4 1.5-1 2.4.7.5 4 0 4.6.6-1.2 4.3-5.3 5-7.6 3-1.8-2.5-2.2-6.7 3.6-7.6z"/><path d="m530.6 554.6-1.2.9q-4 .3-4.7 3.3-.5 2.5 1 4.6c1.3 1.3 2.5 1.5 4.5 1q2.9-1 3.5-4v-.1q-.3-.7-2.7-.6l-2-.1v-1.2q.4-.7 1-1l2 .4V556l-.5-1.1q-.3-.6-.9-.4zm.2.3q.3 0 .5.2l.3 1 .1 1.2-1.8-.2a2 2 0 0 0-1.2 1.1q-.3 1 0 1.6.4.4 2.3.3 2.1 0 2.3.2-.5 2.8-3.2 3.7-2.7.8-4-.8a5 5 0 0 1-1.1-4.3q.8-2.7 4.5-3z"/><path d="m529.3 555.8.6 1.5.3-.1-.5-1.5zm39.6 6.3 1.9-8.8-.4-.2-1.9 8.8zm-2.3-.9 2.9-6.6-.3-.2-3 6.6zm-5.1-2.5 6.6-3-.2-.4-6.6 3z"/><path d="m558.6 557.5 12.2-4.2-.1-.4-12.2 4.2z"/><path fill="#d20014" d="M578 547.5s4.4.6 5.2 1c.2.3-1 1.6-.8 2.4 1.8 2.5 8.1 3.1 9.3 2.8.1-.9-6.4-2.6-7.1-3.3 0-.7 1-2.4 1-3.5-.6-1.5-3.3-2.5-3.5-2.5z"/><path fill="#d20014" d="M578 547.7q4.4.6 5.2 1h-.1l-.3.5q-.7 1.3-.5 1.8c.6 1.2 2 2 5 2.6q3.8.8 4.5.3.2-.1.1-.4l-.2-.3-1-.6-6-2.2.5-1.2q.6-1.5.6-2.3-.3-1.7-3.7-2.7l-4.6 3.5zm.5-.3 3.6-2.8q3 1 3.3 2.3 0 .5-.6 2.1l-.4 1.4q0 .4 3.2 1.5l4 1.6q-.6.5-4.3-.3-4-.8-4.7-2.4-.1-.3.5-1.3l.3-.6v-.6q-.9-.4-4.9-1"/><path fill="#503200" d="m572 551.3 10.1-8.1s.4-.4.8 0q.3 1-.1 1l-10.4 8.3z"/><path d="m571.9 551.2.5 1.6 10.5-8.5.3-.3q.1-.4-.1-.9-.4-.5-.8-.3l-.3.2-10 8zm.4.1 10-8h.5v.5l-.1.2-10.2 8.1z"/><path fill="#f1b517" d="m562.4 559.2 8.2-6.9.5-2.2 1.7 1.7 1.2 2-2.3-.2-7 6.3z"/><path d="m562 559.3 2.7.9 7.1-6.4 2.5.2-.2-.3q-.7-1.5-1.2-2-.4-.7-1.7-1.8l-.2-.2-.6 2.5-4 3.4-4.1 3.4zm.8-.2 3.8-3.2 4.1-3.5.5-2 1.5 1.5 1 1.6-2-.2-7.1 6.4z"/><path fill="#f1b517" d="M532.6 565.6q.1 1.5 1.5 1.8 1.4.1 1.5-1.3-.2-1.5-1.5-1.8-1.4-.1-1.5 1.3"/><path d="M532.5 565.6q0 1.8 1.6 2 .7.1 1.2-.3t.4-1.2-.5-1.4a2 2 0 0 0-1.1-.7q-1.6-.2-1.6 1.6m.3 0q0-1.4 1.3-1.2 1.3.3 1.3 1.6 0 .6-.4 1a1 1 0 0 1-.9.2q-1.3-.1-1.3-1.6"/><path fill="#f1b517" d="M536.4 563.2q.1 1.5 1.4 1.8 1.4 0 1.5-1.4 0-1.5-1.5-1.8-1.3 0-1.4 1.4"/><path d="M536.2 563.2q0 .7.5 1.3t1.1.7q1.7.2 1.7-1.5 0-.8-.5-1.4t-1.2-.7q-1.6-.2-1.6 1.6m.3 0q0-1.4 1.3-1.2t1.3 1.6-1.3 1.2-1.3-1.6"/><path fill="#f1b517" d="M541.4 566q.1 1.3 1.4 1.7 1.4 0 1.5-1.4 0-1.4-1.5-1.8-1.2 0-1.4 1.4"/><path d="M541.2 565.9q0 .8.5 1.3t1.1.7q.7 0 1.2-.3.5-.5.5-1.2 0-.8-.5-1.4a2 2 0 0 0-1.2-.7q-1.6-.2-1.6 1.6m.4 0q0-.5.3-.9a1 1 0 0 1 1-.3q1.2.2 1.2 1.6 0 .6-.4 1a1 1 0 0 1-.9.2q-.4 0-.9-.5z"/><path fill="#f1b517" d="M549.1 569q.1 1.5 1.5 1.8 1.4 0 1.5-1.4-.2-1.5-1.5-1.8-1.4 0-1.5 1.4"/><path d="M549 569q0 1.8 1.6 2 1.6.3 1.6-1.6 0-1.7-1.6-2T549 569m.3 0q0-.6.4-1 .4-.3.9-.2t.9.5.4 1q0 .7-.4 1a1 1 0 0 1-1 .3q-.4 0-.8-.6-.4-.4-.4-1"/><path fill="#f1b517" d="M552.4 569.9q0 1.5 1.5 1.8 1.3 0 1.4-1.4-.1-1.5-1.4-1.8-1.4 0-1.5 1.4"/><path d="M552.2 569.9q0 .7.5 1.3t1.2.7 1.1-.3.5-1.2q0-.9-.5-1.4-.5-.6-1.1-.7-1.7-.2-1.7 1.6m.4 0q0-.6.4-1l.9-.2q1.3.2 1.2 1.6 0 .6-.3 1a1 1 0 0 1-1 .2q-1.2-.2-1.2-1.6"/><path fill="#f1b517" d="M555.6 570.4q.1 1.5 1.5 1.8 1.4 0 1.5-1.4-.2-1.5-1.5-1.8-1.4 0-1.5 1.4"/><path d="M555.5 570.4q0 1.8 1.6 2t1.6-1.6q0-.7-.5-1.3t-1.1-.7-1.2.3-.4 1.2m.3.1q0-1.4 1.3-1.2t1.3 1.6q0 .5-.4.9a1 1 0 0 1-.9.3q-.5 0-1-.6z"/><path fill="#f1b517" d="M559 570.7q0 1.6 1.4 1.8t1.4-1.3-1.4-1.9q-1.4 0-1.5 1.4"/><path d="M558.7 570.7q0 1.8 1.7 2 .7.1 1.1-.3t.5-1.2-.5-1.4-1.1-.7-1.2.4q-.4.4-.5 1.2m.4 0q0-1.3 1.3-1.1.4 0 .9.5l.4 1q0 .6-.4 1a1 1 0 0 1-1 .2q-1.1-.1-1.2-1.5"/><path fill="#f1b517" d="M557.3 567.7q.1 1.5 1.5 1.8 1.3 0 1.4-1.4-.1-1.5-1.4-1.8-1.4 0-1.5 1.4"/><path d="M557.2 567.7q0 1.8 1.6 2 .7.1 1.1-.4t.5-1.2q0-1.7-1.6-2-1.6-.2-1.6 1.5m.3.1q0-.6.4-1a1 1 0 0 1 .9-.2q1.3.2 1.3 1.6t-1.3 1.2-1.3-1.6"/><path fill="#f1b517" d="M554.2 567.4q.1 1.5 1.4 1.8 1.4 0 1.5-1.4-.1-1.5-1.5-1.8-1.4 0-1.5 1.4"/><path d="M554 567.4q0 1.8 1.6 2 .7.1 1.2-.4t.4-1.2-.4-1.3-1.2-.7q-.7 0-1.2.3-.4.5-.4 1.2m.3.1q0-1.4 1.3-1.2t1.3 1.6-1.3 1.2-1.3-1.6"/><path fill="#f1b517" d="M551.1 566.5q0 1.5 1.5 1.8 1.3 0 1.4-1.4-.1-1.5-1.4-1.8-1.4 0-1.5 1.4"/><path d="M551 566.5q0 1.8 1.6 2 1.6.3 1.6-1.6 0-.7-.5-1.3t-1.1-.7-1.2.3q-.4.5-.5 1.3m.4 0q0-1.4 1.3-1.2t1.3 1.6q0 .6-.4 1a1 1 0 0 1-1 .2q-.5 0-.8-.5t-.4-1"/><path fill="#f1b517" d="M552.7 564q.1 1.4 1.4 1.7 1.4.1 1.5-1.3-.1-1.5-1.5-1.8-1.3-.1-1.4 1.3"/><path d="M552.5 564q0 .6.5 1.3.5.6 1.1.7 1.6.1 1.6-1.6t-1.6-2q-.7-.2-1.1.3t-.5 1.2m.3 0q0-1.4 1.3-1.1.5 0 1 .5.3.4.3 1t-.4 1a1 1 0 0 1-.9.3q-1.3-.3-1.3-1.6"/><path fill="#f1b517" d="M555.6 564.3q.1 1.5 1.5 1.8 1.4 0 1.5-1.4-.2-1.4-1.5-1.8-1.4 0-1.5 1.4"/><path d="M555.5 564.3q0 1.8 1.6 2t1.6-1.5q0-.9-.5-1.4-.4-.6-1.1-.7t-1.2.4-.4 1.2m.3 0q0-1.4 1.3-1.2.5.1.9.6t.4 1-.4 1a1 1 0 0 1-.9.2q-.5 0-1-.5z"/><path fill="#f1b517" d="M526.4 566.8c0 .6 1.1.6 1.2 1.2-.1.7-1.4.3-2.2-.4q-1.1 2-3.1-.5c-1 .8-1.8 1-3.6-.6-.6.9-1.9 1.3-3-.4l-.6-.1q-1.3 2-3.3-.1-.6.6-1.6-.3c-.8 1-1.8.6-2.4-.3-.3 1-1.6 1-2.3 0-.3.8-1.4.5-1.5-.1 0-.7.8-.3.9-1-.1-.5-1.1-.5-1.2-1.2s.8-.5 1.5.2l.3-.2c.7-.4 1.2-.7 1.9 0 .9-.7 2.3-.9 3.2.6q.6-.9 1.2.3 1.4-1.7 3.4.5c.9-1 2.5-1 3.5.1q2.1-1.8 3.9 1l.5-.2c.6-.3 1-.5 2.1.6.6-.7 2.4-1 2.7-.1-.2.8-1.4.3-1.6 1m-10-1.5q0 .9.8 1t1-.7q-.1-.9-1-1-.7 0-.9.7m3.3.3q0 .6 1 .8 1 0 1-.5t-1-.9q-1 0-1 .6m-7-.7q0 .7 1 .9.8 0 .8-.6t-.9-.8q-.8-.1-1 .5m-4.2-.8q.1.7.8 1 .8 0 .9-.7a1 1 0 0 0-.9-1q-.6 0-.8.7m14.9 2.5q0 .5.8.7.8 0 .9-.4 0-.6-.8-.7-.9-.2-1 .4m-17-2.5q0 .8.5.9t.6-.7-.6-.8q-.5 0-.6.6m4.8.6q0 .5.5.6t.5-.5l-.5-.6q-.5 0-.5.5"/><path d="m526.5 566.8.6-.3q1-.1 1-.7t-.6-.7h-.9q-1 0-1.4.5-1.1-1-2.2-.5l-.4.2q-.8-1.5-1.9-1.7t-2 .6q-.7-.7-1.8-.7t-1.7.6q-.9-1-1.8-1.1-.8 0-1.5.5-.3-.4-.7-.5l-.6.3a2 2 0 0 0-1.6-1 2 2 0 0 0-1.6.5q-.6-.8-2 0l-.2.1q-.4-.5-1-.5t-.7.6q0 .4.7.9.5.1.5.4l-.3.2q-.6 0-.6.6t.9.9q.6 0 .9-.3.4.5 1.2.5t1-.5q.5.4 1.2.6t1.3-.5l.8.5.7-.1q.8.9 1.8 1 1.1 0 1.6-1l.4.1q.7 1.1 1.8 1.2.9 0 1.3-.6 2 1.7 3.6.5.8 1.2 1.8 1.3t1.4-.8q.6.5 1.3.7h.7q.3-.1.3-.6t-.8-.8zm-.3 0q0 .4.7.8.5.2.5.4v.2h-.6q-.8-.3-1.3-.7l-.2-.2v.2q-.4.9-1.2.8t-1.7-1.3v-.1h-.2q-1.5 1.3-3.4-.5l-.2-.1v.1q-.5.6-1.2.7-1 0-1.6-1v-.2l-.8-.1q-.5 1-1.4 1-1-.1-1.7-1l-.1-.3-.2.2q0 .3-.5.2-.3 0-.7-.5l-.2-.1-.1.1q-.4.6-1.1.5t-1-.7l-.3-.4v.5q-.2.5-1 .5-.7 0-1-.6l-.2-.5-.1.5q-.1.4-.7.4-.5-.1-.5-.4t.3-.3q.6-.1.6-.6t-.8-.8l-.5-.4q0-.3.4-.3t.9.5v.1h.2l.3-.2q1.2-.6 1.7 0v.2l.2-.2q.6-.5 1.5-.5t1.4 1l.1.3.2-.2q.3-.4.5-.3.2 0 .5.4l.1.3.2-.2q.7-.6 1.4-.6.8 0 1.7 1.2l.2.2v-.2q.6-.7 1.6-.7 1.1 0 1.7.7v.2l.2-.1q1-.9 2-.7.8.3 1.6 1.7l.1.1h.2l.5-.3q1-.5 2 .6l.1.2.1-.3q.3-.4 1.3-.6h.8l.2.3q0 .3-.7.4-.9.1-.8.6m-10.2-1.4q0 .5.4.8.3.4.7.5.5 0 .8-.2t.3-.8q0-1-1-1.2l-.8.1a1 1 0 0 0-.4.8m3.3.2q0 1 1.2 1.1h.9l.4-.7q0-.4-.4-.7l-.9-.4-.8.1zm-7-.6q0 .4.4.7l.7.4.8-.1q.3-.3.3-.7 0-.9-1-1-1.3-.2-1.2.7m-4.2-.8q0 1 1 1.1l.6-.1q.3-.3.3-.7 0-1-1-1.2-1 0-1 .9m15 2.5q-.1.7 1 1l.7-.2q.4-.2.3-.5 0-.8-1-1-1.1-.1-1 .7m-17.3-2.5q0 .4.3.7l.5.4.6-.2.2-.6q0-1-.8-1.1l-.5.2zm10.7 1.2q0-.6.7-.5t.8.8-.8.5q-.7 0-.7-.8m-5.9-.7q0 .4.2.6l.5.3q.3 0 .5-.2l.2-.4q0-.7-.7-.9-.7 0-.7.6m9.2 1q0-.2.2-.3h.6q.9 0 .9.6l-.2.2q-.3.2-.7.1-.4 0-.6-.3zm-7-.6q0-.6.7-.4.7 0 .8.6l-.2.3h-.6q-.7 0-.7-.5m-4.3-.9.2-.4h.5q.6 0 .6.6 0 .3-.2.4l-.4.1q-.7 0-.7-.7m14.9 2.5.1-.2h.6q.6 0 .6.4t-.6.3q-.7 0-.7-.5m-17.2-2.4q0-.5.4-.5t.4.6-.4.5l-.3-.2zm4.8.5q0-.3.3-.3t.4.4l-.1.2h-.5z"/><path fill="#0a328c" d="M499.7 535.2c-5.3-.7-8.6.6-9 3.3q0 .6.4 1.3 2 2.5 8.6 3.8 6.1.7 8.4-.9.5-.6.5-1.5c-.3-2.7-3.7-5-9-6"/><path fill="#0a328c" d="M499.7 534.9c6.3 1.1 8.9 3 9.2 6.4q0 .8-.6 1.6c-1.7 1.2-4.2 1.5-8.6 1-4.7-.9-7.3-2-8.8-4q-.4-.8-.4-1.5c.3-3.3 2.8-4.3 9.2-3.5m0 .5q-3.7-.5-6.3.4t-2.4 2.7l.2 1.2q2 2.5 8.5 3.6c4.2.6 6.7.3 8.3-.8q.4-.6.4-1.3c-.3-3-2.7-4.7-8.7-5.8"/><path fill="#f1b517" d="M508.7 541.6v15.8c-.4 2-3.7 2.7-9 2-5.2-1-8.6-2.8-9-4.7v-15.9c.4 2 3.8 3.8 9 4.8 5.3.7 8.6 0 9-2"/><path d="M508.9 541.7v15.8q0 1.4-2.8 2.1-2.7.6-6.4 0c-6.3-1-8.9-2.5-9.2-5v-15.8h.4q0 1.4 2.5 2.6a22 22 0 0 0 12.6 2q2.4-.6 2.5-1.8zm-18-1.6v14.6c.3 2.2 2.7 3.4 8.8 4.5 6.1.8 8.5.3 8.8-1.8V543c-1.2 1.3-3.7 1.6-8.8.9-5-.9-7.6-2-8.8-3.6"/><path fill="#d20014" d="M490.7 538.8v2.5l4.4 16 3.5-11.3 3.8 12.9 2.8-11.2 3.5 8.3v-4.3l-3.2-8-1.2.1-2 8.3-2.9-8.6-1.4-.2-2.9 7.7-3.2-10.3q-1.1-1-1.2-1.9"/><path fill="#d20014" d="M490.9 538.9q0 .7 1 1.6h.1l3.2 9.9 2.7-7.4h.1l1.4.3h.1l2.7 8.1 2-7.8h1.2l.2-.1 3.3 8.2v4.4h-.3l-3.4-7.8-2.8 11.2-3.8-12.9L495 558l-4.6-16.6v-2.5h.2zm0 2.4 4.2 15.3 3.5-11.2 3.8 12.8 2.8-11 3.3 8v-3.4l-3.1-7.9-1 .1-2.1 8.7-3-9-1.2-.2-3 8-3.4-10.7-.8-1z"/><path fill="#0a328c" d="M508.7 554.5v3c-.4 1.8-3.7 2.6-9 1.9-5.2-1-8.6-2.8-9-4.7v-3c.4 2 3.8 3.8 9 4.8 5.3.6 8.6-.1 9-2"/><path fill="#0a328c" d="M508.9 554.5v3q0 1.4-2.8 2.1-2.7.6-6.4 0c-6.3-1-8.9-2.5-9.2-5v-3l.4.1q0 1.2 2.5 2.6a22 22 0 0 0 12.6 2q2.4-.6 2.5-1.9zm-18-1.5v1.7c.3 2.2 2.7 3.4 8.8 4.5 6.1.8 8.5.3 8.8-1.8v-1.7c-1.2 1.4-3.7 1.7-8.8 1-5-.9-7.6-2-8.8-3.7"/><path fill="#f1b517" d="M503.4 556.7h-2.3v2.9h2.3z"/><path d="M503.6 556.5v3.4h-.1l-2.4-.1h-.2v-3.4h.2l2.3.1zm-.4.4h-2v2.5h2z"/><path fill="#f1b517" d="M493.8 554.7v3l2.3.9v-3z"/><path d="m493.7 554.4.2.1 2.3 1h.1v3.3h-.2l-2.3-1h-.2v-3.1zm.3.6v2.5l2 .8v-2.5z"/><path fill="#f1b517" d="M490.7 551.7v3q0 .7 1 1.6v-2.9q-1-.9-1-1.7"/><path d="M490.9 551.7q0 .7 1 1.6v3.4l-.3-.2q-1-1-1-1.9v-3zm0 3q0 .5.6 1.2v-2.4l-.6-.7z"/><path fill="#f1b517" d="M508.7 554.8q-.3.9-1.7 1.4v3q1.6-.7 1.7-1.8z"/><path d="m508.8 554.6.1.2v2.7q0 1.1-1.8 1.8l-.2.1V556q1.4-.5 1.6-1.3zm-.3.9q-.4.5-1.3.8v2.5q1.4-.6 1.3-1.4z"/><path d="M508.9 541.8v15.7q0 1.4-2.8 2.1-2.7.6-6.4 0c-6.3-1-8.9-2.5-9.2-5V539h.4v15.8c.3 2.2 2.7 3.4 8.8 4.5 6.1.8 8.5.3 8.8-1.8v-15.7z"/><path fill="#fff" d="M506.7 540.3q-.7 1.7-7 1-6.2-1.3-7-3.2.8-1.7 7-1c4 .8 6.7 2 7 3.2"/><path fill="#fff" d="M506.9 540.3q0 1-2.2 1.3-2 .3-5-.2t-5-1.3q-2.1-1-2.1-2c.2-1.5 2.1-1.8 7.1-1.2 5 .9 7 1.8 7.2 3.4m-.4 0q0-.7-2-1.6a21 21 0 0 0-9.7-1.5q-1.9.3-1.9 1c.3 1.2 2.1 2 6.8 2.8q2.9.4 4.9.2 1.9-.3 1.9-1"/><path fill="#f1b517" d="m497.4 540.4.4 2.8 1.8.4.5-2.8z"/><path d="m497.2 540 3.2.5-.6 3.4h-.2l-1.9-.4h-.2l-.3-3.1zm.5.6.3 2.4 1.4.3.4-2.3z"/><path fill="#f1b517" d="m505.5 541-1.8.2.1 2.6 1.7-.1z"/><path d="M505.7 540.6v3.3h-.1l-1.7.2h-.3l-.1-3.1 2-.3zm-.4.6-1.3.2v2.2l1.3-.1z"/><path fill="#f1b517" d="m494.9 535-1.4.4.2 2.1 1.1-.2z"/><path d="M495.1 534.7v2.8l-1.6.3-.3-2.6h.2l1.4-.5zm-.5.6-.9.3.2 1.6.7-.1z"/><path fill="#f1b517" d="m499.7 535-.7-.2.4 2.7 1.2.2.4-2.5z"/><path d="m499.7 534.7 1.3.2h.3l-.6 3-1.5-.1-.5-3.3h.5zm0 .6h-.5l.3 2.1.9.1.3-2z"/><path fill="#f1b517" d="m505 536.7-.3 2.2 1.4.8.1-2.3z"/><path d="m504.8 536.3.2.1 1.3.8.1.1-.1 2.8-1.9-1 .3-2.5zm.3.7-.2 1.8 1 .5v-1.7z"/><path fill="#f1b517" d="m492.1 540.9.4-2.8-1.9-1.5v3.3z"/><path d="m492.3 541.2-1.8-1.2v-3.7l2.2 1.7-.4 3zm-.3-.6.3-2.5-1.5-1v2.7z"/><path fill="#f1b517" d="M508.7 542.8V540l-1.7.3z"/><path d="m508.8 543.4-2.1-3.3 2.2-.4v3.2zm-.3-1.2v-2l-1.2.2z"/><path fill="#f1b517" d="M527 526.6c1.7.3 3.7 2.7 4.1 6.1-.2 2.5-3 2-3.3 1.9-.4 1-2 1.6-3.6 1.5-1.4-.5.3-3 .4-3.2-.8-3 .2-6 .3-6z"/><path d="M527 526.4q1.3 0 2.7 2t1.6 4.3q0 1.8-1.7 2-.8.3-1.7.1-.4 1.8-3.7 1.5-.7-.1-.8-.8 0-.5.3-1.2l.7-1.4q-.9-3 .3-6.2l2.2-.3m0 .4-2 .2a9 9 0 0 0-.2 5.9v.2l-.8 1.4-.2 1q0 .3.4.4 3.1.3 3.4-1.4v-.2h.2q.9.3 1.7 0 1.4-.2 1.5-1.6a8 8 0 0 0-1.5-4.1q-1.4-1.7-2.5-1.8"/><path fill="#f1b517" d="m524.6 532.8 1.6.2s.1.8.4 1c.3 0 .6-.7.6-.8l2.4.3z"/><path d="m524.6 532.6 1.7.2v.2l.3.8q.2 0 .5-.7v-.1l2.5.3v.4l-2.3-.3q-.3 1-.7.8t-.6-1l-1.4-.2z"/><path fill="#d20014" d="M527.8 528.6c1.2-1.1.2-3-.8-3.4l-2.1-.3c-1.2 0-2.6.8-2.5 2q.3 1.4 1.6 1.5c.4-.1 1.3-1 1.6-1 .6.1 1.7 1.3 2.2 1.2"/><path fill="#f1b517" d="M528 528.8q-.5.3-1.5-.7l-.8-.6q-.2 0-.8.5t-.9.6q-1.4 0-1.8-1.7-.1-1 .9-1.7t1.8-.5l2.2.3q.9.1 1.3 1.6.6 1.5-.5 2.2m-.2-.4q.8-.5.4-1.7t-1-1.3l-2.2-.3q-.7 0-1.6.5t-.7 1.3q.3 1.3 1.4 1.2l.7-.4q.6-.6 1-.6l1 .7q.9.8 1 .6m-98 16.7c.9.2 1.3 2 1.5 3.1q.4-1 1.4-1 1.5.5 1.5 2t-1.5 1.4q-.6 0-1-.6c.3 1.4.5 2.8-.2 3.1-1.2 0-2-1.5-2.2-2.6l-14.5 2.4c.6.8 4.4 2.7 4.5 2.8.3-.8-.2-2.2-.2-2.3 2.8 2.7 6 3.6 6 3.6a11 11 0 0 1-8.5 1.9s2-1.4 2.1-1.8c-.3-.1-6.7-2.4-7.9-4 .5-1.6 4.3-6 4.4-6.2-.4-.2-2.4-.3-2.4-.3 1-1 5.8-2.4 8-2-.2 0-2.8 1.8-3.3 5.4 0-.1-.5-1.7-1.1-2.3-.1.2-2.3 2.7-2.3 3.9 4.6-1 9.4-2.4 14.6-3.4q-.7-2.7 1-3.1m3.7 4q0-.7-.7-1-.6 0-.7.7t.7 1q.7 0 .7-.7"/><path d="M429.6 544.9q1 0 1.7 2.7.4-.6 1.3-.5.7 0 1.2.7t.5 1.4q0 1.8-1.7 1.6l-.7-.3q.5 2.6-.4 2.8-.8.3-1.7-1-.6-.7-.8-1.6l-9.9 1.7-3.1.5-1 .2a19 19 0 0 0 4.1 2.3q.1-.5-.3-2l.3-.1q2.7 2.6 6 3.5l.4.1-.3.3c-2.9 2.4-5.3 3-8.7 1.8l-.4-.1.3-.2 2-1.5c-5-1.6-7.2-2.8-7.8-4v-.2q.2-1.5 4.2-6-.5-.2-2.1-.2h-.4l.2-.3q.7-.7 3.7-1.7t4.5-.5l.5.2-.4.2q-3 2-3.2 5.3h-.3q-.4-1.5-1-2-2 2.3-2.2 3.3l6.7-1.5q5-1.3 7.6-1.8-.3-1.1 0-2 .2-1 1.2-1.1m0 .4q-.6 0-1 .9l.2 2v.2h-.1q-2.7.5-7.8 1.8l-6.9 1.6h-.2v-.2q-.1-1.2 2.3-4l.1-.1h.2l1 1.6c.3-2 1.1-3.2 2.7-4.5q-1.3 0-3.8.6-2.2.6-3.1 1.2 1.8 0 2 .4l.2.1-.1.2q-4 4.5-4.4 6c.7 1 3 2.2 7.8 3.8h.2v.2q-.2.5-2 1.7c3 .9 5.2.4 7.7-1.7a13 13 0 0 1-5.2-3q.3 1 0 1.7v.1h-.2a14 14 0 0 1-4.7-2.9v-.1l4.5-1 10.1-1.7h.2v.2q.2 1 .8 1.7.6 1 1.3.8t0-2.8v-.7l.4.5q.3.4.8.5 1.4.1 1.4-1.3 0-.6-.4-1t-1-.6q-.9 0-1.2.8l-.2.7-.2-.8q-.5-2.9-1.3-2.9m3.8 3.8q0 1-.9.8t-.8-1q0-.6.2-.7l.6-.2q.4 0 .7.3zm-.3 0q0-.7-.6-.7-.5-.1-.5.5l.2.4.3.2q.6.1.6-.5"/><path fill="#f1b517" d="M584.8 575c.2-.8-.3-4.9-.4-5-.7.1-1.6 1.3-1.7 1.3a22 22 0 0 0-1.7-9.3 45 45 0 0 1 8 9.3s-2.5-1.3-3-1.3c.7 3.4 2.4 5.3 3.3 7.1-.3 0-3 .4-3 3.7l-2.3-.3c-.6-1.3.3-2.7.3-2.8l-15.2-9.4c-1.1-.7-3-2-2.9-3.3.8-1 3.7 1 5 1.6z"/><path d="M584.7 574.8q.1-1-.4-4.5-.6 0-1.5 1.2l-.3-.3q.8-3.2-1.7-9l-.1-.5.3.1a20 20 0 0 1 4.7 4.6q3.3 3.9 3.5 4.9l.1.4-.3-.2q-2.1-1.2-2.7-1.3.4 2.1 2 5l1.2 1.9v.2h-.2c-2.2.4-3 1.3-2.9 3.5v.2l-2.5-.3c-.5-1-.5-1.7.2-3l-15-9.2q-3.5-2.1-3-3.6.2-.9 1.9-.2l2.5 1.3.7.4zm.1.5-13.7-8.5-.7-.4q-1.7-1-2.5-1.3-1.3-.6-1.5 0-.2 1.2 2.8 3l15.4 9.6-.1.2q-.9 1.4-.4 2.5l2 .2c0-2.2.7-3.2 3-3.6l-1-1.6q-2-3-2.2-5.4v-.2h.1q.5 0 2.7 1.1-.6-1.2-3.2-4.3a27 27 0 0 0-4.1-4.1q2 5 1.7 8.1.7-.7 1.3-.8h.2v.2q.7 4.3.3 5.2z"/><path fill="#f1b517" d="m570.1 570 1.8-3.5c.5-1-.5-2-1.6-1l-2 3.1c-.7 1.9.8 2.4 1.8 1.4"/><path d="M570.3 570.1q-.7 1-1.8.5-.5-.3-.6-.9l.2-1.2 2-3.2q.8-1 1.7-.2.3.3.4.7.1.5-.1.8zm-.3-.2 1.8-3.5.1-.6-.3-.4q-.5-.4-1.2.2l-2 3.1q-.2.6-.1 1 0 .3.3.5.9.4 1.4-.3"/><path fill="#fff" d="M463.3 562.4v-4.1l-4.4-.4-.3 4.4z"/><path d="M463.5 562.6h-5l.2-5 4.7.5.1 4.3zm-.4-.4v-3.7l-4-.4-.3 4z"/><path fill="#fff" d="m431.6 563.5-5.8-4.6c24 5.6 28.8-2.6 34.6-2.4 3.4.6 4.2 4.6-2.8 1.7l1.8 5.3c-.3.1-16.7 8-33.7 1.5z"/><path d="m431.2 563.3-5.5-4.2.1-.4a47 47 0 0 0 29.2-1q3.7-1.5 5.4-1.5 1.3.1 2.2 1 .8.7.5 1.6c-.6 1.2-2 1.2-5.2-.2l1.7 5-.1.1a46 46 0 0 1-33.9 1.5l-.5-.3zm.5 0v.4l-5.4 1.4a47 47 0 0 0 32.8-1.6l-1.8-5.6.4.1c3.2 1.5 4.5 1.6 5 .6q.3-.5-.4-1.2a3 3 0 0 0-1.9-.7q-1.6 0-5.3 1.4a47 47 0 0 1-28.5 1.2z"/><path fill="#fff" d="M536 573.5v-4l5.3 1 .3 4.4z"/><path d="m535.7 573.5.2-4.3 5.6 1 .3 5-6-1.5zm.4-.1 5.3 1.3-.2-4.1-5-.9z"/><path fill="#fff" d="m568.8 583.1 5.4-2.6c-27.4-3.1-21.2-8-34.9-12-3.6-.4-6.2 3.5 2.8 2.7l-1.8 4.7 4.3.7a41 41 0 0 0 30.3 9.8z"/><path d="m569.2 583.1 6.4 3.4h-.6a37 37 0 0 1-30.4-9.7l-4.6-.7 1.8-4.7q-3 .3-4.4 0-1.5-.5-1.6-1.5 0-.8 1.1-1.4t2.4-.1q5.2 1.5 10 4.6 7.8 5.4 25 7.3v.4zm-.7.3.1-.6h.1l4.8-2.2a57 57 0 0 1-24.4-7.2 35 35 0 0 0-9.8-4.6q-1.2-.3-2.2.1-.9.4-1 1 .1.7 1.3 1 1.5.4 4.7 0h.3l-1.8 4.9 4 .6h.1c8.9 7.8 18.4 11 29.6 9.8l-5.5-2.9z"/><path fill="#fff" d="M457.5 558.3v7s15.2 8.6 42.4 13c27.3 4 42.2 0 42.3 0v-7s-11.4 4.1-42.3-.5c-30.8-5-42.3-12.5-42.4-12.6"/><path d="m457.4 557.9.2.2q11.6 7.5 42.3 12.5 30.8 4.6 42.3.4h.2v7.5h-.1a108 108 0 0 1-42.4 0 128 128 0 0 1-42.4-13h-.2zm.3.7v6.6Q473 573.8 500 578t42.1.1v-6.6q-11.6 4.1-42.1-.5-30.5-4.8-42.2-12.4"/><path d="m459.8 565.7 1.3-5 .7.3-1.2 4.4 2.3 1-.2.7zm4.4-1.6v-1l.3-.9.6.3-.2.9-.3.8zm6.6.6.6.3-.6 3q0 .7-.4 1-.3.5-.7.6l-1.2-.1-1-.7q-.5-.4-.5-1v-1.3l.6-3 .6.3-.5 3-.1 1 .3.6.7.4q.7.3 1 0t.6-1.1zm.7 5.8.7-5.2.7.2 2 5 .6-4.2.6.2-.8 5.2-.7-.2-2-5-.5 4.2zm5 1.6.6-5.2.7.2-.7 5.2zm1.8-2q.1-1.4.9-2 .7-.5 1.7-.2a3 3 0 0 1 2 1.9v1.5q0 .8-.4 1.3t-1 .7h-1.2q-.6-.1-1.1-.7l-.8-1.2zm.7.1q0 1 .3 1.6.4.7 1.1 1 .7 0 1.3-.3.4-.4.6-1.4v-1.2l-.6-1-.8-.4q-.7-.1-1.3.2-.4.3-.6 1.5m4.5 3.9.4-5.3.7.2 2.2 4.7.3-4.1.7.1-.4 5.3-.7-.1-2.3-4.8-.3 4.1zm6.9 1.6.2-5.3 3.3.6v.7l-2.7-.6v1.7l2.2.4v.7l-2.3-.5v2.4zm3.6.7 2-5 .7.1 1.9 5.7-.8-.1-.5-1.7-2-.4-.6 1.5zm1.4-2 1.7.4-.5-1.6-.3-1.2-.3 1zm3.8 3v-5.5l.7.1v5.4zm3 .4V573l-1.6-.2v-.6l3.8.5v.6l-1.6-.2v4.8zm4.9.6-.3-5.4h.7l.2 4.8 2.4.3v.6zm3.2.3 1.6-5.2h.7l2.3 5.6h-.7l-.7-1.8-2-.1-.5 1.6zm1.3-2h1.7l-.6-1.5-.5-1.1-.2 1zm5.8 2.5-.6-5.4h3.3v.7h-2.6l.2 1.6h2.3v.7h-2.2l.2 2.4zm3.6-2.5q-.1-1.4.3-2.1.6-.8 1.6-.8.7 0 1.3.4.6.3 1 1l.4 1.4-.1 1.5-.7 1q-.5.3-1.2.3l-1.2-.3-1-1zm.6 0q.1 1 .7 1.5t1.2.6q.8 0 1.2-.6t.2-1.6l-.3-1.2-.7-.7q-.4-.3-1-.3t-1 .5q-.4.6-.3 1.8m5.2 2.6-1-5.4 2.2-.1h1q.5.2.6.6l.4.8q0 .6-.2 1-.3.3-1 .5.3 0 .5.3l.6.7 1.1 1.4h-.8l-.8-1-1-1.1-.3-.2H527l.4 2.5zm.1-3 1.4-.1.6-.2q.3 0 .4-.3v-.5l-.3-.6q-.3-.2-.9-.2h-1.5zm7.7.5.7.1q0 .9-.4 1.5t-1.2.5-1.3-.2l-1-1-.5-1.4v-1.5q.1-.6.6-1a2 2 0 0 1 2.4-.2q.5.4.9 1.1l-.6.3q-.3-.6-.7-.9a1.4 1.4 0 0 0-1.7.2q-.3.4-.3.9a4 4 0 0 0 .4 2.2q.3.6.8.8l.8.1q.5 0 .8-.4t.3-1m1.8 1.8-1.3-5.4 3.4-.6.2.7-2.8.4.4 1.7 2.6-.4.2.6-2.6.4.4 1.8 3-.4v.6z"/><path fill="#1a1a1a" d="M8 195.3c170.8-85.3 341-54.5 513.3-28C676.5 191 833.4 211.8 992 132.7v672c-170.8 85.3-341 54.5-513.3 28C323.5 809 166.6 788.1 8 867.2zm31.3 19.3v604.5c306.5-128.2 611.1 96 921.5-33.7V180.9C654.2 309 349.5 84.9 39.3 214.6" opacity=".2"/></svg>