<svg xmlns="http://www.w3.org/2000/svg" viewBox="0 0 1000 1000"><path fill="#cf142b" d="M8 195.3c170.8-85.3 341-54.5 513.3-28C676.5 191 833.4 211.8 992 132.7v672c-170.8 85.3-341 54.5-513.3 28C323.5 809 166.6 788.1 8 867.2z"/><path fill="#f9dd16" d="m378.6 429.8 4.7 4.5 11.3-2.2c-.2.3-6 9.5-6 9.8l6.6 11.2c-4-.5-7.8-1.8-11.7-2.7l-8 7.8-1.7-11.5-10-6c2.6-1.5 5.6-2.1 8.4-3l2.6-9s3.3 1.1 3.8 1.1"/><path d="m379.2 429.1 3.8 3.7.5.4q1.4-.5 5.3-1.3l4-.7 1.2-.2h.8l.4.4q.4.6.1 1.3l-1 1.7-3.3 5-1.3 2.2-.1.2 3.8 6.5 1.7 3 .5.8v.1l.3.4q.3.7 0 1.3l-.5.4h-.3l-.4-.1-1.3-.3-4-1-5.7-1.3-8.6 8.5-2-12.6-4.6-2.8-5-3h-.1q-.4-.4-.5-1 0-.4.2-.7l.2-.3h.2l.3-.2 1-.4 2.9-1 4-1.4 2.6-9.3.7.2 3.3 1.1.5-.1zm-.9 1.8q-.9 0-3-.8l-2.4 8.5-.4.1-4.3 1.5-2 .8 2.8 1.7 5.5 3.2 1.6 10.3 7.1-7h.3l6 1.5 3.8 1-1.1-2.1-4-6.8q-.6-.5-.4-1.5l.2-.4.4-.8 1.3-2.2 2.8-4.4-3.3.6-3.9.8-1.2.3v-.3q-.4 1-1.3.2l-.6-.4zm5.2 2.3q-.5-.3-.9.5zm5.9 8.3-.4-.6zm5.1 12.1v.2q.3 0 .4.3z"/><path fill="#fff" d="M523.7 472.8c-.2-9.6-13.6-54.5-15.9-61.6a120 120 0 0 1-10.5-30c-1.4-10.2-5.1-18.1-10.6-21.9-6.5-5.4-12.3-4.7-18.4-4.9a9 9 0 0 0-6.8 5.2c-3.3 5.6-4.8 5-7.2 7.4-18.2 1.3-35.3 11.5-48.5 18.6a47 47 0 0 1-15.6 9.2 27 27 0 0 1-15.4-9l-25.1-34c-7.7-7.6-8.7 2.2-7.7 4.3 2.3 7.5-2.7 11 17.1 38.7l7.6 22c0 .2-.2 5.6 0 6 4 12.2 9 10 12 7l6-6.7 12-4c12.8 3.9 44.7 0 50.3-2.5 5-2.7 5 0 9.3-3.8 3.6-2.6 1.6-.5 8-7.5 2.3-1.7 3.5 1.7 4 4.7.4 25 2.6 41.4 4.3 66.6L500 500z"/><path d="m524.8 473.6-24.6 28.2-28.7-24.5v-.8l-1.8-23q-2.2-26.8-2.5-43.5a9 9 0 0 0-1-3.3q-.5-.8-1.1-.2a59 59 0 0 1-8.1 7.5 9 9 0 0 1-5.2 2.6q-2.2 0-4.3 1.3a80 80 0 0 1-22.8 3.9q-19.4 1.4-28-1.3-2.6 1.1-11.4 4l-2.9 3.2-3 3.2c-2.2 2.3-4 3-6.5 2.6-3.1-1-5.3-4-7.3-10.2h.1q-.4-1.7-.1-6.3l-3.7-10.6-3.6-10.8q-15.2-21.1-16.5-34.3-.2-3-.7-4.4c-1.4-2.3-1.2-4.4.7-7.6 2.3-3 4.6-2.7 8.5 1.5l13 17.5 12.2 16.4a25 25 0 0 0 14.6 8.7q5.2-1.1 15-9l.1-.1h.1l4.8-2.7q27.7-14.9 43.8-16 .8-.9 2-1.7 2.7-1.7 4.7-5.3c1.8-3.3 4-5 7.5-5.6h2.6a26 26 0 0 1 16.4 5c6 4.2 9.7 11.5 11.2 23.1q3 15.5 10.3 29.3l.1.2v.2q3.8 11.5 9 29.9 7 26 7 32.2zm-2.2-1.6q-.3-6.4-7-30.6A794 794 0 0 0 507 412q-7.5-14.3-10.7-30.4v-.1c-1.4-10.6-4.5-17.1-9.9-20.7l-.1-.2c-3.6-3-8.4-4.4-15.3-4.5h-2.4a8 8 0 0 0-6 4.5h-.1a18 18 0 0 1-5.4 6.1q-1.3.8-2 1.6l-.2.2h-.3q-15.9 1.1-43.4 16l-4.8 2.5c-7 5.6-12 8.6-15.9 9.4h-.2a27 27 0 0 1-16-9.5L362 370.4 349.1 353c-2.8-2.8-4.2-3.3-5.6-1.6q-1.5 2.6-.7 3.8l.2.2v.3q.7 2 1 5.5 1.2 12.1 16 32.8l.1.2 3.9 11.2 3.9 11.4v.4l-.2 2.8v2.5c1.6 5 3.2 7.4 5.6 8.2q2.4.6 4.9-2l2.9-3.2 3.2-3.6.2-.1 5.9-2 4-1.3 1.4-.5v.3l.3-.9.8.3a82 82 0 0 0 27.6 1.2 80 80 0 0 0 22.1-3.6q2.4-1.4 5-1.6a7 7 0 0 0 4.2-2v-.1l2-1.4q1.2-.8 6-6 2-2.2 4 .9 1.2 2 1.6 4.8v.2q.3 16.8 2.5 43.6l1.8 22.2 26.2 22.4z"/><path fill="#f9dd16" d="m365.3 374.5-4.6 21-4.4-6.5 3.1-22z"/><path d="m366.3 374-.1.9-1.5 8.7-.9 5.6v.1l-.5 2.4-.6 3-.8 5.6-1.8-.8q.6-3.2.7-5.3v-.2q.4-1.2.7-3.2l.5-2.3q.3-2.7 1-5.8l1.4-8.5v-.9zm-7.5-11.3q.4 1.5.6 4v.3l-.2 2-.7 5.5-.7 5.1v.2l-.4 2-.5 3q0 2-.6 5l-1.8-.8.6-4.8v-.2l.5-2.8.4-2.2.7-5.2v-.1q.3-1 .6-5l.2-2.2-.4-2.9zm79.9 7.7a54 54 0 0 1 6 17.5q1.6 9.1.8 16l-1.6-.6q.8-6.4-.7-15.1-1.9-9.9-5.8-16.4zm-22.6 51q-.4.6-.9.6-.6-.1-.8-1.3l-.3-1.4q-.7-1.3-.9-4.3 0-3.3.7-5.3l2-5.4.2-.2 1.5 1.2-.5.8-.2.2-1.5 4.4v.1q-.6 1.5-.5 4.3 0 2.5.5 3v.2l.1.2.5 1.9v.1q-.1-.6-.7-.7h-.6l.8.7.7.6v.1zM374 386v.2l-.3.6-.2.5-1 2.3-1.8 3.6-.9 1.8-1 2-2 4.1-1 2.3-.5 1-1.1 2.3-1.5-1.2 1-2 .2-.4.4-1 2-4.2h.1l2-4.2 1-2 .8-1.7 1.8-3.9.2-.5.3-.5v-.3q.5-.6 1-.1.7.4.5 1.3m-21.3-30.4q.5 1.3.7 3.7v.3l-.2 2-.4 5-.6 4.8v.1l-.3 2-.5 2.6q0 2-.4 4.6l-1.6-.6q.4-2.6.4-4.4v-.2l.5-2.6.3-2 .6-4.9.4-4.8.1-2q0-1.7-.5-2.7zm24.3 55.1q-.9-1.1-1.9-1.2h-.6q-1.9.4-4 3l-2 2.5-1.1 1.5-.2.2-1-1.9.1-.1.8-1.2.2-.2 2-2.4q2.7-3.3 5-3.7h.7q1.9 0 3.1 2.1zm104.6-52.2-.7-.6-.7-.6v-.3q.4-.7 1-.5.7.3.7 1.4a20 20 0 0 0 1 5.4l-1.5.7-.9-4v-.2l-.2-2v-.1q0 .7.7 1zm-21.3 4.3v10q0 10.6.4 12.2v.1l.7 5.3v.1a18 18 0 0 0 .8 5l.5 1.6v.2l.1.2q0 .4.5 1l1 1.6.4.8 1.7 2.6-1 1.6-1.9-2.9-.5-.9-.1-.1v-.2l-.6-1a15 15 0 0 1-1.6-4.1l-.5-1.7-.1-.2v-.2l-.1-1.4-.2-2-.7-5q-.3-2.1-.4-12.8 0-10.5.2-11zM449.1 417l-1.1-1-1.5-1.5a15 15 0 0 1-4.5-10.2l1.7.2c.2 3.5 1.3 5.9 3.5 8.1l2.6 2.5z"/><path d="m461.2 389.6-1.3 1.7-2.8 3.5a37 37 0 0 1-13.1 9.7l-1.1.7q-1.5 1-2.2 1.2l-2.6.6h-.7l-.2.1-3.3.3q-2.2.7-10.8-.3-7.7-1.1-9.2-1.6l-2.6-.6h-1.8l-1-.1q-.8-.3-2-.1h-.7l-1 .5-2 1v.1l-1.7 1-1.1.8q-3 3-14 9.6-2 1-4 .8-3.3-.4-4.3-4.2l-1-5.2q-.2-1.5-.1-4.2v-1q1-6.5 3.2-11.2l.3-.7.5-1.3 1.5 1.2-.5 1.3-.4.8q-2 4.4-3 10.4v.8l.1 3.6v.3l.5 2.6.5 2.1q.5 2.2 2.7 2.4 1.7.2 3.3-.5A100 100 0 0 0 399 406h.2l1-.7q1-.9 1.9-1.2.5-.5 2-1.1l1-.5h.2l.1-.1h3.1l1 .1h1.7l2.8.6h.2a73 73 0 0 0 19.2 2h.3l3.2-.3.9-.2 2.4-.5h.1q.5-.1 1.7-1l1.3-.8q6.4-2.6 12.6-9.4l2.8-3.5.9-1 .1-.2zm36-9.5v.3h-.1l-.7 1v.1l-1.7 1.8-.9 1q0 .3-.6.9l-1.5 1.6a6 6 0 0 1-2 1.7l-.5.2h-.1l-3 1.6-1.9 1.3-1.4 1-.8 1-1.2 2v.1l-.7 1.3-1.2 2.7-.7 1.8-.8 1.8-1.4-1.2.7-1.9.7-1.8 1.3-2.8.7-1.3 1.4-2.4.8-1 .1-.2.2-.1 1.4-1a21 21 0 0 1 5.2-3l.5-.3q1.1-.6 1.6-1.2v-.2l.3-.1 1-1.3.8-1 .9-1 1.6-1.8.6-.9q.5-1 1.2-.3t.3 1.6m-.2.2-.7-.5-.7-.7q-.1.7.4 1.1.6.7 1 .1m-10.2 105.3q-.4.8-1 .3t-.5-1.7l.3-1 .4-6.3v-.2q.4-3.7.4-5.7v-1.7q0-3.2-.3-4.9v-.1l-.1-3.4-.1-2.8q0-3-.5-5.5v-.2q0-3.2-.3-5v-.5l-.3-3v-.4l-.5-2.8-.5-3-.4-1.8-.5-2.8v-.2l-.7-3.5-.4-1.7-.9-4-.1-.6-1-3.5-1-3.2-.2-1-1.1-4.2-.4-1.5-.8-3-.6-1.5 1.3-1 .3.6.3.8.2.3v.3l.8 2.8.4 1.6 1 4.1.4 1 1 3.2v.4l.8 3.1.3.7v.3l.8 3.6v.2l.5 1.8.7 3.8.5 2.8.3 1.8.6 3 .4 2.8v.3q.6 2.4.4 3.8l.4 5.2q.3 2.6.4 5.8l.1 2.7.1 3.4q.3 1.8.3 5v1.8a67 67 0 0 1-.6 9l-.2 3.4v.3l-.3 1 .1.1v.1l-.1.2zm0-.7q.1-.5-.4-1-.4-.2-.7 0l.6.5z"/><path fill="#f9dd16" d="M483.4 367c-1.5 4-5 9.8-5 10l-3.4 8.7c-1.3 5-.6 7 .1 8.6 1.3 3.5 1.7 5.2 2.6 7.9 0 3.2-3.3 3.6-3.7 3.7-8.6 2-12.4-8.4-12.7-9.5-1-6-1-6.7 1.6-7.7 3-.4 4-.4 5.6-1.5a33 33 0 0 0 4.8-10.8l.4-4.8c.1-2.2-.4-4.4.3-7.9 1.1-3.3 1.7-4 4.4-4 3.6.5 5.7 3.5 5 7.2"/><path d="M484.2 367.5a62 62 0 0 1-5 9.9v.2l-1.8 4.3-1.6 4.4c-.9 3-.8 5.2 0 7.5l1.6 4.8 1 3.2.1.1v.2c.2 2.6-1 3.9-4 4.8l-.2.1c-4 1-7 0-10.3-3.8a15 15 0 0 1-3.5-6.7c-.9-5.4-.3-7.8 2.2-8.9l1.8-.2q2.5-.4 3.5-1.2 2.3-2 4.4-10l.1-.4v-.5l.2-1.6.2-2.3V369q-.2-3.4.3-5.8v-.1q1.6-4.8 5-4.6 3 .2 4.9 2.7 2 2.9 1 6.1zm-1.5-1.1q.4-1.9-.7-3.6-1.4-1.9-3.6-2-2.4-.1-3.7 3.4-.3 2-.2 5v2.7l-.5 5.1c-1.6 6-3.2 9.4-5 11.1q-1.3 1-4.2 1.5l-1.7.2q-1.4.5-1.6 1.3 0 1 .6 5.1v.2q.2 1.7 3 5.2c2.8 3.2 5.2 4.1 8.6 3.2h.4q2.8-.9 2.8-2.4l-1-3.2-1.5-4.4q-1.7-4.4-.1-9.6l1.7-4.5 1.7-4.4.3-.5q3.4-6 4.7-9.4"/><path fill="#f9dd16" d="m594.3 396.7-4.8 3a59 59 0 0 1-3.4 14.7l-3.7-12.9-10 1.3q3.2-6.3 6.8-12.3l-1.6-14 8 4.7 8.2-8.3c0 3.8-1.1 7.9-1.7 11.8l4.5 8.2z"/><path d="M594.5 397.8a23 23 0 0 0-4.4 2.8l-1.5 7-1.2 5-.4 1.7-.1.5v.2l-.2.2q-.1.3-.4.3-.6.1-1-.6l-.5-2.3-1.9-6.8-.8-2.8v-.3l-5.8.8-2.6.2-.8.1-.3.1q-.7 0-.9-.8v-1l.1-.1.2-.4.8-1.4 2.3-4.3 3.2-5.8-1.7-15.3 8.9 5.1 3.7-3.8 4.1-4.2q.4-.3.9 0l.3.6.1.4v.7l-.2 1.4-.6 4-.8 5.5 4.7 8.6-.5.6q-2 3-2.1 3.4l-.1.6zm-.8-2 1.8-3-4.3-8v-.5l1-6 .4-2.8-2.3 2.5-4.5 4.5-7.1-4.1 1.4 12.5-.2.3-3.5 6.2-2.2 4 1.8-.2 6-.7q.6-.4 1.1.5l.2.4.3.9.9 2.9 1.5 5.9 1-4.3 1.2-5 .3-1.7.3.2q-.4-1 .3-1.7.2 0 .6-.4zm-3.6 4.8q.4-.6 0-1.3zm-7.8 2h.6zm-9.8-1-.4.2z"/><path fill="#fff" d="M507.7 544.7c6.4 5.6 40 16.1 45.5 17.6 6.7-.3 15.9 1.5 23.2 5q11 6.8 18.1.1c6-4.6 8-12.2 10.5-19.3q1.5-6-.5-11.2c-2.2-7.3-1.2-8.9-1.7-13 6.5-22.7 7.1-49.3 8-69.1-.6-11.7 0-20.4.8-24a26 26 0 0 1 12.3-13l32.4-10.9c8-4.7 2.6-11.6.7-11.5-5.8-1.4-5.8-9.1-32.1-1.5l-17.2-3.7c-.2-.2-3.4-3.5-3.8-3.6-9.5-2.3-10.3 5-9.7 10.4l1.8 10.9-2.5 16.6c-7.8 12.8-18.6 53.5-19.2 61.6-.3 7.6-2.1 6-1.4 13.5.2 5.7-.4 2 1.5 14 .2 3.6-2.4 3.1-4.6 2-16-14.4-27.2-21.4-43.9-34.5L500 500z"/><path d="m506.8 545.5-8-46.4 27-19.6.6.4 15.2 11.5q18 13.4 28.7 22.9 1.4.8 2.5.6.7 0 .6-1.2-1.4-9-1.5-11.3v-2.8q-.5-4.4.4-7.8.8-2.7.9-5.8v-.1q.4-7.5 6.9-29.5a154 154 0 0 1 12.5-32.8q.3-3.7 2.3-15.8l-.9-5.3-.8-5.4q-.7-5.6 1.2-9.2c2-3.2 4.8-4 9.6-2.7v.1q1.2.6 4 3.5l8.3 1.8 8.5 1.8c13.6-4 22.8-4 29 0l3 1.6c2.2-.5 3.4.9 4.6 5 1 4.3-.4 7-4.7 9.3l-16.8 5.7-15.6 5.2q-8 4-11.8 12.3-1.5 6.9-.6 23.3v.2l-.3 7.3a294 294 0 0 1-7.7 62l.1 3.3q0 4.3 1.5 8.7c1.4 4 1.6 7.8.6 12.3v.1l-1.1 3.1c-3 8.7-6.2 14-9.8 16.9-5.2 5-11 5-19.1 0a45 45 0 0 0-22.8-5h-.2q-8.9-2.3-22.6-7.1a87 87 0 0 1-23.3-10.7zm1.9-1.6a97 97 0 0 0 22.2 9.8q13.5 4.8 22.2 7.1c8.2-.3 15.8 1.3 23.6 5.2 7.4 4.6 12.6 4.6 17.1.2h.1q5-3.7 9.1-15.8l1-3q1.3-5.4-.4-10-1.5-5.2-1.7-10 0-2.1-.2-3.3v-.8a288 288 0 0 0 7.8-61.5l.3-7.2q-1-17 .7-24.3v-.2l.1-.1q4.3-9.3 12.8-13.6l15.8-5.2 16.7-5.7c3-1.7 4-3.2 3.5-5.7-.7-2.4-1.2-3.1-2-3l-.3.1h-.2q-1.5-.4-4-2c-5.7-3.6-14.5-3.4-27.7.4h-.2l-8.8-1.8-9-2-.2-.2-3-3-.2-.2c-4-1-6-.6-7.7 1.8q-1.5 2.6-.8 7l.8 5.3 1 5.8-.1.4-1.3 8-.8 5.7-.3 1.9-.2-.2.4 1-.4.7q-5.2 8.4-12.3 32.2a176 176 0 0 0-7.8 35.5q-.7 2.6-.3 6.3v3.1q.1 2.1 1.4 10.8.5 4-2.1 4.4-1.8.4-3.8-.9l-.2-.1q-10.6-9.6-28.5-22.8L526 482.8l-24.8 18z"/><path fill="#f9dd16" d="M635.2 412.8c-.3-.2-11.4-17.3-11.5-17.4l6-1.5 12.7 16.2z"/><path d="m635 414.2-.5-.6-4.9-6.7-3.2-4.2v-.1l-1.3-2-1.7-2.5q-1.5-1.6-3.1-4l1.3-1.7 3 3.9v.2l1.8 2.5 1.3 1.9 3.2 4.4 4.8 6.6.5.6zm10.4-2.5a8 8 0 0 1-2.8-1.6l-.1-.1-1.3-1.5q-2.6-2.8-3.2-3.8l-2.9-3.7-1.3-1.7-1.5-2.3-3-3.5 1.3-1.8q1.5 2.2 2.8 3.4v.1l.1.1 1.6 2.2 1.2 1.7 3 3.8v.1l3 3.5 1.3 1.4a6 6 0 0 0 2 1.2zM607 503q-6.2 1-13.5-2.7-6.5-3.5-10.5-8.6l1-1.5q3.9 4.7 10 8 6.9 3.5 12.7 2.6zm-23-56.7q-.3-.9 0-1.4.3-.6 1.1-.3l1 .4q1.2 0 3.1 1.6 2.1 1.8 3.1 4l2.7 5.9-1.4 1-.4-1.4-2.2-4.4v-.1q-.7-1.5-2.5-3-1.6-1.4-2.1-1.3h-.3l-1.4-.6h-.1q.5.2.8-.4.2-.4.1-.7l-.7.5-.7.5v-.2zm40.1-29.6v-.2h-.1l-.3-.6-.2-.6-1.7-4.3-.8-2.3-.8-2.1v-.1l-.9-2.3-.9-2.4-.8-2.3-1-2.5-.4-1.2-1-2.7 1.4-1 .9 2.4.1.4.4 1.1 1.8 4.8v.1l1.8 4.7 1.6 4.4 1.7 4.3.2.5.3.6v.3q.4.9-.3 1.3t-1-.3m28.5-8.2a7 7 0 0 1-2.6-1.2l-.1-.1-1.3-1.4-3-3.4-2.8-3.3-1.1-1.6-1.5-2-2.8-3.1 1.1-1.6 2.6 3h.1v.2l1.5 2 1.2 1.4 2.8 3.5 2.8 3.2 1.2 1.3 2 1zm-45.4-2.5q1-.2 1.5-1.4l.3-.8a17 17 0 0 0-.2-6.5l-1.2-6v-.3l1.6-.2v.3l.4 1.6v.3l.8 3.8q.9 5.1.1 8.1v.2l-.3.6q-.8 2.1-2.7 2.5zm-10 155.9.6-.5.7-.5v.1l.1.1q.4.9 0 1.5t-1.2 0l-1-.7-1.4-.6-1.4-.6.2-2.2 1.7.7 1.2.5.1.1 1.3 1h.1q-.5-.4-.8.2-.3.5-.2.9m5.9-28.2-6.4-5.8q-6.9-6-8-6.6v-.1l-1.4-.9-2.2-1.3-.1-.1-1.2-1q-.6-.2-.9-.5l-1.3-.5-1.3-.3h-.1l-.2-.1q-.2-.1-.8 0-.9.3-1.4.1l-.7.1-2.3.5-.6-2.2 2.5-.5.8-.1h.2l1-.1q.8-.3 1.7 0 .6 0 1.5.5l1.3.4h.1l.2.1.9.7 1.4 1 3.4 2.1q1.5.8 8.3 7 6.7 6 7 6.6zM573 488.4l1.3-.8 1.5-1c3-1.7 5.3-1.6 8.3.6l-.8 2c-2.4-1.8-4.2-2-6.6-.5l-1.7 1-.9.5z"/><path d="m585.6 519-.5-2.5-1-5.5q-2-11.9-1-21.4v-1.7q0-2.4.2-3.4.1-1.2.7-3.4l.2-1v-.1l1.2-4.2q.4-3 4.7-12.8a121 121 0 0 1 6.2-12.9l.8-2 .4-1.1.1-.1.9-2.3.2-1 .3-4.3v-4.5q-.5-5.4-.2-22.2v-.1q.3-3 1.2-5.1c1.3-2.6 2.5-3.3 4.5-2.7l1.5.7 2.2 1.1q1.1.6 2.8 2.3l.5.6h.1a44 44 0 0 1 6 11l.7 1.4-1.4 1-.6-1.3-.4-1q-1.9-4.8-5.3-9.4l-.6-.5a9 9 0 0 0-2.2-2h-.2q-.5-.5-2-1l-1.5-.8q-1.5-.6-2.6 1.9-.9 1.9-1 4.2-.4 16.9.2 21.9v4.8l-.3 4.6v.2l-.1.2-.3 1-1 2.7-.5 1-.6 1.8v.2l-.1.2q-.8 1.3-1.5 2.9l-.1.1a119 119 0 0 0-9.2 22v.4l-1.2 4-.2 1.1-.7 3.2v.2l-.1 2.6v2.1q-1 9.1.8 20.5l1 5.5.4 1.6v.3zm-8.5 49v-.1l-.1-.2-.4-1.4v-.2l-.5-3-.3-1.7-.3-1.2-.4-2.8q-.3-1.3-.2-3.4v-.9l.3-4.5-.1-3v-2.3l-.4-1.6-.8-2.7-.6-1.5-1.2-3.1-.9-2-.8-2 1.4-1 .8 2 .9 2 1.3 3.2.5 1.5 1 3.2q0 1 .3 1.6v.4l.1 2.4v3.1q.1 2.4-.2 4.8v.8q0 1.8.2 2.6v.6l.4 2 .3 1.5.3 1.6.5 3 .3 1.3q.5 1.3-.3 1.7-.6.3-1-.7m-.2-.3.7-.5.6-.5q-.2-.4-.8-.2-.6.4-.5 1.2m-62.6-74.8q-.4-1 .2-1.5t1.3.6l.5 1 3.8 4.1h.1v.1q2.3 2.8 3.5 4l1 1 3.3 2.5v.1l2.3 1.9 1.8 1.5q2 1.8 3.7 2.8h.1q2 1.9 3.4 2.7h.1l.1.2q.6.8 2.1 1.5l.2.1 2 1.1 2 1.2 1.4.7 2 1v.1l2.6 1.3 1.3.6q1.5.4 2.8 1.3h.4q1.7.5 2.7 1.1l2.4.7.8.3 1.4.5 1.6.6 1.2.4 2.1.8 1 .1.3.1v2.2h-.5l-.6-.1h-.5l-2-1-2.9-1-1.4-.4-.8-.3-2.3-.7h-.2v-.1l-2.4-1h-.6l-.1-.2a9 9 0 0 0-2.7-1.1h-.1l-1.3-.7q-1.8-.8-2.7-1.4l-2-1-1.2-.7-2.2-1.2-2-1-.1-.2q-1.7-.9-2.6-1.8-1.4-.9-3.4-2.7-1.8-1-3.9-3l-1.8-1.4-2.2-2q-1.2-.8-3.3-2.6l-1-1h-.1q-1.4-1.2-3.6-4.1l-1.8-2-2-2.3h-.2v-.2l-.7-1v.1-.1l-.2-.2zm.4.5q.4.3.8 0l.4-.8-.6.4z"/><path fill="#f9dd16" d="M591 559c-2-4-4.2-11.7-4.3-11.8l-4.2-9.3c-2.6-4.6-4.1-4.7-5.5-4.9-2.7-.4-4-1.1-6-1.5-2-1.8-1-6.2-.9-6.6 2.2-11.6 10.4-10 11.1-9.7 4.3 2.2 4.7 2.8 4.3 6.4-1 3.8-1.4 5.2-1.3 7.6.7 4.8 4.8 11.8 5 12l2.8 3.4c1.4 1.5 3 2 4.9 5 1.6 3.2 1.8 4.4.8 7.5-1.8 4.1-4.5 5-6.7 2"/><path d="M590.4 559.6A89 89 0 0 1 586 548v-.2l-2.2-4.6-2-4.6q-2.2-4-4.8-4.4-1.6-.1-3.7-.9l-2.4-.6h-.2l-.1-.1c-1.6-1.3-2-3.4-1.5-7.6l.1-.4c1-5.4 2.9-8.4 6.6-10 2.7-1 4.3-1.1 5.6-.3 3.8 2 5 4.2 4.8 7.7v.1l-.6 2.3q-.7 3.3-.7 5 .5 3.8 4.6 11.1l.2.4.3.2 1 1.1 1.4 1.6q.4.6 1.4 1.3 2.3 1.8 3.6 3.8v.1q2.3 4.8.9 8.8-1.3 3.5-3.7 4.2c-1.9.4-3-.2-4.3-2.2zm1.3-1.2q1 1.8 2.5 1.3 1.7-.5 2.7-3.1 1-3-.7-6.4a13 13 0 0 0-3-3.2l-1.7-1.6q-3-3.3-3-3.6h-.1q-4.5-8-5-12.6 0-2 .8-5.8l.5-2.2q.3-2-.1-2.6a12 12 0 0 0-3.6-2.3v-.1c-1-.5-2.2-.4-4.5.4q-4.5 1.9-5.6 8.6v.4q-.7 3.9.3 4.8.9.1 2.4.7l3.4.8q3.4.4 6.2 5.4l2.1 4.7 2.1 4.7.2.5q2.5 7.8 4 11.3"/><path fill="#f9dd16" d="M527.1 674.3v-7.6l-7.8-12.7 9.7 3.3c0-.4 3.3-12.4 3.3-12.6q2.8 7.6 5 15.4l9.5 6.4-6.3 6.8 2 14.6c-2.6-2.6-4.6-6-6.8-9l-7.1.4s-1.2-4.5-1.5-5"/><path d="m526.3 673.9.1-3.8V667l-3.9-6-2.6-4.4-1-1.4-.2-.5v-.2l-.2-.3v-.6q.3-.9.8-.7l1.7.6 5 1.9 2.2.7h.2l1.9-7.2.9-3.2.2-1 .2-.5q.2-.7.8-.6a1 1 0 0 1 .6.7v.2l.3.4.5 1.8 1.8 5.3 2.4 7.3 10.3 7-6.9 7.5 1 6.7.9 7.4q0 .7-.4 1-.2.2-.6.1l-.2-.2-.2-.1-.2-.3-.8-1-2.4-3.2-3-4.2-7.5.5-.2-1-1.2-4.5-.4-.5zm1.7.3 1.1 4 6.8-.5.3.4 3.4 4.6 1.6 2.2-.5-4.2-1-8 5.6-6-8.6-5.8-.1-.5-2.5-7.7-1.7-5-.6 2.2-2 7.5q0 1-.7 1h-.4l-.7-.1-2.2-.7-4.4-1.7 2.3 3.8 2.8 4.3.9 1.5-.2.1q.8.1.8 1.4zm-1.6-7.2q.3.8.8.9zm1.9-10.5-.1.7zm4.7-11v-.2l.1-.5z"/><path fill="#fff" d="M468.5 482.6c-6 4-26.3 38.2-29.4 44a82 82 0 0 1-12.8 24.7 26 26 0 0 0-7.5 21.7c.4 9.8 4.4 16.7 7.9 23.9q3 5 7.3 6c5.5 1.6 6.1 3.6 8.9 5.5 11.7 21.2 28.3 37.8 40.4 50.8a81 81 0 0 1 15 15c3.5 9.5 3.3 18 3 22.4l-7.2 44.2c-.6 12.2 6.1 10 7 7.7 3.4-5.8 8.4-1 14.9-36.5l9.7-18c.1-.1 3.5-1.8 3.8-2.4 5.4-9.6 1.1-15.2-2.5-17.5l-7.7-4.5-9.4-12.8a286 286 0 0 0-31.2-59.7c-4.6-4.8-3-6.1-8-9.7-3.6-3.1-1.1-1.7-9.5-6.6-2.2-1.9-1-4.7.7-6.6 15.6-10.6 24.7-19.7 39.6-31.9L500 500z"/><path d="m468.4 481 32.6 18 1.6 44.2-.4.4-13.5 11.3a305 305 0 0 1-26.2 20.6q-1 1.1-1.4 2.6-.2 1 .5 1.4a68 68 0 0 1 9.6 6.7q3 2 4.7 5.2 1.4 2.6 3.4 4.5 4.5 5 15.9 25.9a194 194 0 0 1 15.6 34.4q2.2 2.6 9 12.2l3.8 2.1 3.7 2.2q3.9 2.5 5.4 7c1.1 4.2.4 8.2-2.3 13l-.1-.1q-.8 1.1-4 2.6l-4.6 8.8-4.7 8.8c-3.3 18.2-7.5 29.2-12.6 33.9q-1.6 1.5-2.4 2.6c-.7 2.7-2 3.3-5.2 2.2-3.1-1.4-4.2-4.6-3.8-11l3.7-23 3.5-21.3q.9-11.7-2.8-21.2-3.7-5.9-14.5-14.6l-.1-.1-4.5-4.7a247 247 0 0 1-36-46l-2.3-2a16 16 0 0 0-6.1-3.3q-4.4-.9-8-6.6l-.1-.1-1.5-3a57 57 0 0 1-6.6-21.6c-1-9 1.5-16.2 8-22.8a71 71 0 0 0 12.4-24.3v-.3a484 484 0 0 1 13.7-22.8 99 99 0 0 1 16.2-21.6zm.3 3.1a112 112 0 0 0-15.2 20.8q-8.4 13.4-13.5 22.5-4.5 14.9-12.9 25v.1q-8.8 8.8-7.3 20.3v.2q.4 8 6.2 20l1.5 3c2 3.3 4 4.8 6.5 5.4q4 1.1 7 4l2.2 1.6.3.2.2.4a243 243 0 0 0 35.8 45.7l4.4 4.7a69 69 0 0 1 15.1 15.4l.1.2v.1q4.1 10.4 3.3 23.2l-3.6 21.6-3.7 22.7c-.3 4.5.3 6.6 2 7.5q2.7 1 2.9-.6v-.3l.1-.2q1-1.6 3-3.5 7-6.2 11.8-32.6v-.2l5-9.2 5-9.4.3-.1 3.2-1.7.2-.2c2.3-4 3-7 2.1-10.1q-1.1-3.3-4-5.2l-3.8-2.2-4.1-2.4-.2-.3-4.6-6.3-3.2-4.4-1-1.4v-.1l-.7-.1-.2-1q-3.2-11.3-15.4-33.8a174 174 0 0 0-23.1-34.7h-.1l-2-1.8q-1.3-1-7.4-4.7c-1.8-1.3-2.3-2.7-1.9-5.2q.5-2.3 2.2-4h.1q10.4-7.1 26-20.6l13.2-11L499 501z"/><path fill="#f9dd16" d="M499.6 712.8c.4-.2 15.8-3 16-3l-1.7 8-15.7 5z"/><path d="m498.7 711.7.6-.2q5.1-1.5 6.4-1.7l4-1.2h.1q.7 0 1.8-.4l2.4-.5 3.9-1.2.5 2.5q-2.3.6-3.8 1.2h-.2l-2.3.5-1.8.4-4.1 1.2h-.1l-6.2 1.7-.6.2zm-2.9 13.7q.7-1.1 2.2-2.3l.2-.1 1.4-.6q3-1.3 3.9-1.5l3.6-1.2 1.6-.4 2.1-.5q1.4-.7 3.5-1.3l.6 2.5-3.4 1.2-.1.1-3.7.9-3.7 1.2h-.1l-3.5 1.4-1.5.6q-1.2.8-1.6 1.7zm-41.4-99.7q2-7.9 7.4-14.4 5-5.5 9.8-7.3l.5 2.2q-4.5 1.6-9.1 7a34 34 0 0 0-7 13.5zm45.6 6.7q.7 0 .9.7.2.8-.3 1.5l-.7 1q-.4 1.4-2.3 2.7a6 6 0 0 1-3.7 1.4H490l-.7-.3-.3-.2V637l.7.3.3.1h3.7q1.4.1 3-1 1.5-1.2 1.7-1.9v-.1l.1-.2 1-1.4q-.3.4 0 1.2 0 .5.3.6v-2.3zm1.9 65h1.1l2 .4 1.5.3 1.8.4 1.7.4 1.8.3 2 .4 1.8.4 2 .4 1 .2 2 .4v2.2l-1.8-.3-.3-.1-.9-.2-2.2-.4-1.6-.4h-.1l-1.9-.3-1.8-.4-1.8-.4-1.6-.4-1.7-.3-1.8-.3h-.9l-.2-.1q-.7-.2-.7-1.2t.6-1m-7.2 38.1q.5-1 2-2.3h.1l1.3-.7 3.5-1.5 3.3-1.2h.1l1.5-.4 1.9-.6 3.2-1.3.5 2.3-3 1.2h-.2l-3.3 1-3.5 1.2-3.2 1.4-1.4.6a6 6 0 0 0-1.4 1.7zm21.2-51.7q-.3 1.5.2 2.7l.4.8q1.3 2 4.2 3.7 1.2.4 2.8 1.5.7 0 1.5.7l.2.1-.5 2-.2-.1-1.2-.5h-.1l-.2-.1q-1.5-1-2.7-1.5-3.5-1.9-5.1-4.7h-.1v-.2l-.3-.6q-1-2.2-.5-4.6zm-94.6-104.6v2.2h-.2q-.7-.1-1-.8-.2-.9.6-1.5l.9-.9 1-1.2.9-1.3 1.3 1.5-1.1 1.6-.9 1.1-.1.1-1.1 1-.1.1q.4-.4.2-1.2zm15.3 23.6 6.4-4.1q6.7-4.5 7.5-5.4v-.1l1.2-1.2 1.8-1.8 1.1-1 .8-.6.8-1.3.8-1.3v-.2l.1-.1q.3-.3.4-1 .2-1.1.5-1.8l.2-.9.7-3 1.6.7-.7 3.3-.3 1v.1l-.1.2-.3 1a5 5 0 0 1-.7 2l-1 1.7-.7 1.2-.1.2h-.2l-.7.8-1.3 1-2.7 2.8a55 55 0 0 1-7.9 5.7q-6.7 4.4-7 4.4zm41.1-8.5v4.4c0 4.6-1.2 7.4-3.8 9.5l-.9-2c2-1.8 3-4 3-7.7l.1-4z"/><path d="m453.2 591 1.8.9 4 2a51 51 0 0 1 15 12.7q1.5 1.3 2 2.2l1.9 2.8.5.9.1.1 2.1 3.9q1.8 2.4 6.2 13.2a171 171 0 0 1 5.6 15l1 2.2.5 1.2v.1l1.1 2.4.5.9.9 1 1.7 1.9h.1l1.7 1.7 1 1q3.7 2.5 14.3 13v.1a17 17 0 0 1 2.7 4.5c1.1 3 1 5-.1 6.9l-1.1 1.4-1.7 1.9q-.7.9-2.6 1.9l-.5.2h-.1a19 19 0 0 1-9.5.7l-1.2-.1v-2.3l1 .1.8.1q4 .8 8.3-.6l.5-.3q1.6-.7 2.2-1.5v-.1l.2-.1 1.4-1.6 1-1.4q1-1.6 0-4.3-.9-2-2.2-3.7-10.5-10.5-14-12.8l-.2-.2-1-1-1.8-1.7-2.8-3.1-.1-.2-.1-.1-.5-1q-.9-1.5-1.3-2.8l-.5-1.2-.9-1.8v-.2l-.1-.2-1.3-3.5v-.2a167 167 0 0 0-10.2-24l-.2-.3-2-3.7-.6-1-1.8-2.6v-.1l-.1-.1q-.3-.6-1.6-1.6l-1.3-1.3q-5.4-6.6-13.4-11.3l-3.9-2-1.2-.6h-.2zm-27.6-39.2h.3v.1l1 .4h.2l2.1 1.3 1.1.6 1 .4 1.9 1q1 .5 2.3 1.8l.4.5.1.1 2.7 3a32 32 0 0 0 4.6 3.4l2 .7 1.3.2 2.4.4 1.6.2 1.6.1.1 2.3-1.6-.2-1.6-.1-2.6-.4-1.1-.3q-1 0-2.5-.7l-1.1-.5h-.2l-.1-.2-1.6-1.3a35 35 0 0 1-4.9-5l-.5-.5a5 5 0 0 0-1.7-1.3h-.2l-.2-.3-1.5-.8-1-.5-1.1-.6-2.2-1.2-1-.3q-.8-.3-.8-1.3t.8-1m.3.1v2.2q.5-.2.5-1t-.5-1.2m72.8-30.4q.8.3.9 1.1.1 1-1 1.2l-.7.1-2.3 1.2-2 .9q-2.6 1-4 1.8l-1 .7-2.9 2.3-2.2 1.6-1.7 1.3q-1.9 1.2-3.2 2.7l-.1.1q-2 1.4-3 2.4l-.1.2h-.2a6 6 0 0 0-1.8 1.6l-.1.2-1.5 1.7-1.6 1.8-1 1.1-1.4 1.8-.1.1q-.6.5-1.9 2.2l-.9 1.2q-1 1.6-2 2.7l-.2.4-1.7 2.5-1.4 2.4-.5.8-1 1.4-1 1.6-.7 1.1-1.4 2.1-.5 1.1q0 .3-.2.3L453 566l.3-.6.3-.7v-.3l.2-.2 1.4-2 .7-1.1 2-3 .5-.8 1.4-2.4v-.2h.1q.6-.6 1.6-2.3l.3-.6.1-.1q1-1 1.8-2.5l.1-.1 1-1.2q1.1-1.8 2-2.4l1.4-1.7 1-1.2 1.6-1.8 1.4-1.7.2-.1q1.2-1.5 2.2-2 1-1.2 3-2.5 1.5-1.5 3.5-2.9l3.7-2.7q1-1 3-2.4l1-.7h.1q1.4-.9 4.1-2l2-.9 2.3-1.1h.2l.8-.2v-.1h.5zm-.5.1q-.3.3-.3 1t.4 1v-1z"/><path fill="#f9dd16" d="M425.5 573.7a44 44 0 0 1 9.4 1.9l7.6.4c4-.4 4.7-2 5.3-3.6 1.5-3 2.4-4 3.5-6.3 2-1.2 4.3 2.5 4.6 3 6.4 9.3 2 18.3 1.5 19-3.2 3.7-3.7 3.9-5.8 1.2-2-3.4-2.7-4.8-4.3-6-3.5-2.1-9.3-1.4-9.7-1.4l-3.3 1.5c-1.5.8-2.5 2.3-5.1 2.9-2.9 0-3.6-.4-5.2-3.6-1.9-4.4-1.3-8.3 1.5-9"/><path d="M425.5 572.6q3 0 9.1 1.8h.2l3.8.3 3.8.2q3.4-.2 4.7-3v-.1a44 44 0 0 1 3.5-6.4v-.1l.2-.1c1.5-1.2 3-.5 5.4 2.7l.2.4c3 4.2 4.2 8.5 3.7 13.8q-.7 5.4-2.2 6.9c-2.9 3.2-4.7 3.5-6.8 1l-1.3-2q-1.7-3-2.9-3.8c-1.9-1.2-4.6-1.6-9-1.2h-.2l-.3.2-1.1.5-1.6.8q-.5.1-1.5 1a9 9 0 0 1-3.9 1.9c-2.8-.1-4.5-1.3-6-4.1a12 12 0 0 1-1.1-6.9q.6-3.5 3.2-3.8m.3 2.2q-1.5.3-1.9 2.3-.4 2.4.9 5 1.4 3 4.3 3 1.4-.3 3.3-1.6l1.7-1.2 3.6-1.5c4.7-.5 7.7 0 10 1.4q1.4 1.1 3.4 4.5l1.2 1.8q1.2 1.6 1.7 1.5.7-.2 3-2.8v-.1q1-1 1.6-5.6c.4-4.5-.6-8-3.2-11.7l-.2-.4c-1.6-2.1-2.4-2.8-3.2-2.4l-1.4 2.5-2 3.6q-1.7 3.8-6 4l-3.8-.2-3.8-.2-.4-.1q-6-1.7-8.8-1.8"/><path fill="#f9dd16" d="M507.6 544.6c-3.1-2.6-5-3.1-6.2-2.4-1.7-13.2-3.2-26.3-5.3-39.5l-27.6-20.2q4.1-3 4-6c9 5.9 18 12 27.2 17.2l23.9-20.8q.4 6.8 2.1 8.3c-7.3 7.3-14.7 14.4-21.8 22.3z"/><path d="M507 545.8c-2.6-2.2-4-2.9-5-2.3l-1.4 1-.3-2.3-1.1-9-4-29.5-24.9-18.2-2.2-1.7-1.8-1.3 1.7-1.3q3.5-2.6 3.5-4.7l-.1-2.3 1.5 1 6.2 4q13.3 8.8 20.4 12.9l21.5-18.9 2-1.6 1.5-1.4.1 2.7q.3 6 1.6 7.1l1.5 1.2-1.3 1.3-5 5a450 450 0 0 0-16.3 16.7l3.3 37 .2 3.4h-1zm-.7-3.8v-.7l-3.4-37.8v-.7l.3-.5q5.6-6 16.8-17.3l4.1-4a17 17 0 0 1-1.4-5.6l-.4.4-22 19.2-.4.4-.5-.3q-7.2-4.2-21-13.2l-5-3.3a10 10 0 0 1-2.7 4l.5.3 25.3 18.6.5.3v.8q1.8 10.2 4.3 30.5l1 7.3q1.5-.1 4 1.6"/><path fill="#1a1a1a" d="M8 195.3c170.8-85.3 341-54.5 513.3-28C676.5 191 833.4 211.8 992 132.7v672c-170.8 85.3-341 54.5-513.3 28C323.5 809 166.6 788.1 8 867.2zm31.3 19.3v604.5c306.5-128.2 611.1 96 921.5-33.7V180.9C654.2 309 349.5 84.9 39.3 214.6" opacity=".2"/></svg>