<svg xmlns="http://www.w3.org/2000/svg" viewBox="0 0 1000 1000"><path fill="#cf142b" d="M8 195c171-85 341-54 513-28 155 24 312 45 471-34v672c-171 85-341 54-513 28-155-24-312-45-471 34z"/><path fill="#f9dd16" d="m379 430 4 4 12-2-6 10 6 11-12-3-7 8-2-11-10-6 8-3 3-9z"/><path d="m379 429 4 4 6-1 4-1h2v2l-1 1-3 5-1 3 3 6 2 3 1 1v2h-3l-4-1-5-1-9 8-2-13-4-2-6-3v-2l1-1h1l3-1 4-1 2-10 1 1zm-1 2-3-1-2 9-5 1-2 1 3 2 6 3 1 10 7-7h1l5 2 4 1-1-2-4-7v-3l2-2 3-4h-4l-4 1h-3zm17 23"/><path fill="#fff" d="M524 473a508 508 0 0 0-37-114c-7-5-13-4-19-5q-4 1-6 6-5 6-8 7c-18 1-35 11-48 19l-16 9q-11-3-15-9l-25-34c-8-8-9 2-8 4 2 8-3 11 17 39l8 22v6c4 12 9 10 12 7l6-7 12-4c12 4 44 0 50-2 5-3 5 0 9-4l8-8q4 0 4 5l5 67 27 23z"/><path d="m525 474-25 28-28-25h-1l-1-23-5-48-8 8-5 3-4 1h-1q-4 3-22 4-19 1-28-2l-12 4-3 4-3 3q-3 3-6 2-4-1-7-10v-6l-4-11-4-10a79 79 0 0 1-17-39q-2-3 1-8 3-4 8 2l13 17 13 17q6 8 14 8 5 0 15-9l5-2q28-15 44-16l2-2 5-5q2-5 7-6h3q10 0 16 5 9 6 11 23 3 16 11 29v1l16 62zm-2-2-7-31-20-60q-1-15-10-20-5-5-15-5h-3q-3 0-6 4v1l-5 6-2 1q-17 1-44 16l-5 3q-10 9-16 9-7-1-16-9l-12-17-13-17q-4-4-6-2v5l1 5q1 12 16 33l4 11 4 12v5q2 7 5 9l5-2 3-4 3-3 6-2 4-2h2v-1l1 1q8 2 27 1a80 80 0 0 0 32-7v-1l2-1 6-6q1-2 4 1l1 5 3 44 2 22 26 22z"/><path fill="#f9dd16" d="m365 374-4 22-5-7 3-22z"/><path d="m366 374-2 14-1 3v3l-1 5-2-1 1-5 1-3v-3l1-5 1-9v-1zm-7-11v12l-1 5-1 2v3l-1 5-1-1v-5l1-3v-2l1-5v-5l1-2-1-3zm80 7 6 18v16l-1-1-1-15q-2-10-6-16zm-23 51-1-1v-2l-1-4 1-5 2-6 2 1-1 1-2 5v7h1zl-1-1zm-42-35-2 4-1 2-1 2-1 2-2 4-1 2-1 1-1 3-1-2 1-2v-1l2-4h1l1-4 1-2 1-2 2-4 1-1h1zm-21-30v11l-1 4v5l-1 5-2-1 1-4v-3l1-2v-5l1-5v-2l-1-2zm24 55-2-1v-1l-4 4-2 2-2 1v1l-1-2 1-1v-1l2-2 5-4h1l3 2zm105-52-1-1-1-1 1-1 1 2 1 5-1 1-1-4-1-2zm-22 4v10l1 12 1 5v5l1 2v2l1 1 1 1 1 3-1 1-1-3-1-1-1-1-1-2v-2l-1-2v-4l-1-5v-23zm-11 54-1-1-2-2q-4-3-4-10h2q0 5 3 9l3 2zm12-27-1 1-3 4q-6 7-13 10h-1l-2 1-3 1h-15l-12-2h-6l-2 1-2 1-1 1-14 10h-4q-3 0-4-4l-1-5v-5q0-6 3-11v-1l1-1 1 1v1l-1 1-3 10v5l1 3v2l3 2h3l14-10 1-1 2-1 2-1h1l1-1 3 1h5l19 2h5l2-1 2-1 1-1q7-1 13-9l3-3 1-2zm36-10-1 1v1l-1 1-1 1-1 1-1 2-2 1-1 1-3 1-2 2-1 1-1 1-1 2-1 1-1 3-1 2-1 1-1-1 1-2v-2l2-2v-2l2-2 1-1 1-1 5-3 1-1 2-1 1-1 1-1 1-1 1-2 1-1h1zm0 0v-1zm-10 106h-1l-1-2 1-1v-6l1-6-1-2v-17l-1-5v-3l-1-3v-5l-1-3-1-4v-1l-1-4v-1l-1-3-1-4v-1l-1-4-1-1-1-3v-2l1-1v1l1 1 1 3v2l1 4 1 1v3h1v3l1 1v4l1 2 1 4v4l1 3v3l1 4v5l1 6v22l-1 4zm0-1-1-1z"/><path fill="#f9dd16" d="m483 367-5 10-3 9v8l3 8c0 3-4 4-4 4-9 2-12-8-13-10q-2-7 2-7l6-2 4-11 1-4v-8q1-5 4-4 6 0 5 7"/><path d="m484 367-5 10v1l-2 4-1 4v8l2 8h1q0 4-4 5h-1q-6 2-10-4l-3-6q-2-8 2-9l1-1 4-1q3-1 4-10h1v-13q2-4 5-4l5 2q2 3 1 6m-1-1-1-3-4-2-3 3-1 5v8l-5 11-4 2h-2l-1 1v5l3 6q4 5 9 3 3-1 3-3l-1-3-2-4v-10l2-4 2-5z"/><path fill="#f9dd16" d="m594 397-5 3q0 7-3 14l-4-12-10 1 7-13-1-13 8 4 8-8-2 12 5 8z"/><path d="m595 398-5 3-1 7-2 5v2l-1 1-1-1v-2l-2-7-1-3h-6l-2 1h-1l-1-1v-1l1-2 2-4 3-6-1-15 8 5 4-4 4-4h1l1 1v1l-1 1v4l-1 5 5 9-1 1zm-1-2 2-3-5-8v-1l1-6 1-2-3 2-4 5-7-5 1 13-4 6-2 4h9l1 1v3l2 6 1-4 1-5 1-2v-1l1-1zm-4 5v-2zm-18 1"/><path fill="#fff" d="M508 545c6 5 40 16 45 17q11 0 23 5 12 7 19 0 8-7 10-19v-11q-3-9-2-13c6-23 7-49 8-69q-1-19 1-24 6-12 12-13l32-11c8-5 3-12 1-12-6-1-6-9-32-1l-17-4-4-3c-10-3-10 5-10 10l2 11-2 16c-8 13-19 54-20 62 0 8-2 6-1 14l1 14q0 4-4 2c-16-15-27-22-44-35l-26 19z"/><path d="m507 546-8-47 27-20v1l16 11 31 24v-1l-1-12v-10l1-6 7-30q7-24 13-32l2-16-1-5-1-6 1-9q3-5 10-3l4 4 8 2 9 1q20-6 29 0l3 2q3-1 4 5 2 6-4 9l-17 6-16 5q-8 4-11 13-2 6-1 23v7a294 294 0 0 1-8 66l2 8v13l-1 3q-4 12-10 17-7 8-19 0-11-6-23-5zm2-2 22 10 22 7q12-1 24 5 10 8 17 0 5-3 9-16l1-3v-10l-2-10v-4q6-19 7-61l1-7q-2-18 1-25 5-9 12-14l16-5 17-5q4-3 3-6 0-4-2-3l-4-2q-9-6-28 0l-9-1-9-2v-1l-3-3q-5-1-8 2l-1 7 1 5 1 6-1 8-1 6v2h-1l1 1h-1l-12 33a176 176 0 0 0-8 41v4l1 10q1 4-2 5l-3-1h-1l-28-23-15-11-25 18z"/><path fill="#f9dd16" d="m635 413-11-18 6-1 12 16z"/><path d="m635 414-8-11-1-2-2-3-3-4 2-2 3 4 1 3 2 2 3 4 5 7zm10-2-2-2h-1l-1-1-3-4-3-4-1-2-2-2-3-4 2-1 2 3h1l1 3 1 1 3 4 3 4 2 1 2 1zm-38 91q-6 2-14-3l-10-8 1-2 10 8q7 4 13 3zm-23-57v-1h2l3 2q3 1 3 4l3 5-2 2v-2l-2-4-3-3-2-2zv-1zm40-29-1-1-1-4-1-2-1-2v-1l-2-4-1-5-1-1-1-3 2-1v2l1 1v1l2 5 2 5 1 4 2 4v3zm29-8-3-2-1-1-3-4-3-3-1-1-2-2-3-4 1-1 3 3 2 2 1 1 3 4 2 3 2 1 2 1zm-46-3 2-1v-8l-1-6h1l1 2v13q0 2-3 2zm-10 156h1v2zl-1-1h-1v-3l1 1 2 1 1 1zm6-28-6-6-8-7-2-1-2-1-1-1-1-1h-3v-1h-1l-1 1h-3l-1-2h3v-1h3l2 1h1l1 1 2 1 3 2 8 7 7 7zm-30-46h1l2-1q4-3 8 0l-1 2q-3-3-6 0l-2 1h-1zm13 31-1-3-1-5-1-23v-3l1-4v-1l1-4 5-13 7-15 1-1v-2l1-1v-32l1-5q2-3 4-2h2l2 2 3 2h1l6 11v2l-1 1-1-2-5-10h-1l-2-2-2-1-2-1q-2 0-3 2l-1 4 1 22v5l-1 4v2l-1 2v1l-1 2-2 3v1l-9 22-1 4v1l-1 3v5q-2 9 1 21l1 5v2zm-9 49v-2l-1-3v-3l-1-3v-15l-1-3-1-2-1-3-1-2-1-2 2-1 1 2v2l2 4v1l1 3 1 2v11h-1l1 3v4l1 2v3l1 1-1 2zm0 0q0-1 0 0m-63-75 1-2 1 1v1l4 4 4 4 1 1 3 3 2 2 2 1 4 3 3 3h1l2 1v1l2 1 2 1h1l2 2 3 1h1l3 2 3 1 2 1h3l1 1h1l3 1h1v3h-1v-1 1l-1-1h-2l-3-1-1-1h-1l-2-1-3-1-3-1-1-1-3-1-2-1-1-1-3-1-2-1-2-2-4-3-4-3-1-1-6-5-1-1-4-4-1-2-2-2h-1v-3zm1 0"/><path fill="#f9dd16" d="m591 559-4-12-4-9q-4-6-6-5l-6-2c-2-1-1-6-1-6 2-12 10-10 11-10q7 2 4 7l-1 7 5 12 3 4 5 5q3 4 1 7-3 6-7 2"/><path d="m590 560-4-12-2-5-2-4q-3-5-5-5l-4-1h-2q-2-2-2-8 1-8 7-11h6q5 2 4 8v2l-1 5 5 12 1 1 1 2 2 1 3 4h1v9l-3 4zm2-2q0 3 2 2l3-3q1-3-1-7l-3-3-1-2h-1l-3-3-5-13 1-6 1-2v-2l-4-3-5 1q-4 2-5 8v5l3 1 3 1q3 0 6 5l2 5 2 5h1z"/><path fill="#f9dd16" d="M527 674v-7l-8-13 10 3 3-12 5 15 10 6-6 7 1 15-6-9h-7z"/><path d="M526 674v-7l-3-6-3-4-1-2v-1q-1 0 0 0v-1h2l5 2 2 1 2-7 1-3v-1l1-1h1v1l1 2 2 5 2 7 10 7-7 8 1 7 1 7v1h-1v-1l-1-1-2-3-4-4h-7l-1-5zm2 0 1 4h7l4 5 1 2v-4l-1-8 5-6-8-6v-1l-3-7-2-5v2l-2 7-1 1h-3l-5-2 3 4 2 4 1 1v1l1 1zm-2-7 1 1zm7-22"/><path fill="#fff" d="M469 483a292 292 0 0 0-43 68q-8 10-7 22 1 14 8 24 3 5 7 6 6 2 9 5c12 22 28 38 40 51q12 10 15 15 5 15 3 23l-7 44c-1 12 6 10 7 8 3-6 9-2 15-37l10-18 4-2c5-10 1-16-3-18l-8-4-9-13c-5-17-26-54-31-60-5-5-3-6-8-10l-10-6q-2-4 1-7c16-10 25-20 40-32l-2-42z"/><path d="m468 481 33 18 2 44-1 1-13 11-28 23 1 2 9 6 5 5 3 5q5 5 16 26 12 22 16 34l9 12 4 3 3 2q5 2 6 7 1 6-3 13l-4 2-4 9-5 9q-4 27-13 34l-2 2q-1 5-5 3t-4-11v-1l4-22 3-22q2-12-3-21-3-6-14-15l-5-4a247 247 0 0 1-38-48l-6-4q-5 0-8-6l-2-3q-6-13-6-22-2-13 8-23 8-10 12-24zm1 3q-5 3-15 21l-27 47v1q-9 8-7 20 0 8 6 20l1 3q4 5 7 5l7 4 2 2h1v1q10 18 35 45l5 5 15 15v1q4 10 3 23l-3 21-4 23q-1 7 2 8l3-1 3-4q7-6 12-32v-1l5-9 5-9 4-2q3-6 2-10l-4-6-4-2-4-2-5-7-3-4-1-2h-1v-1q-3-11-15-34a174 174 0 0 0-24-34l-2-2-7-5q-3-2-2-5l2-4 26-21 13-11-1-40z"/><path fill="#f9dd16" d="m500 713 16-3-2 8-16 5z"/><path d="m499 712 7-1 4-1 2-1h2l4-1v2l-3 1h-1l-2 1h-2l-4 1-6 2h-1zm-3 13 2-2 2-1 3-1 4-1 2-1h2l3-1 1 2-3 1h-1l-3 1-4 1-4 2h-1l-2 2zm-42-99q2-8 8-15 4-5 10-7v2l-9 7q-5 6-7 14zm46 6 1 1v2l-1 1-2 2-4 2h-4l-1-1v-2h5l3-1 1-1v-1h1zl-1 1 1 1v-3m2 66 2 1h2l1 1h4l2 1h4l1 1h2v2h-3l-3-1h-1l-2-1h-4l-1-1h-5l-1-2zm-7 39 2-3 1-1 4-1 3-1 1-1h2l4-1v2l-3 1-3 1-4 1-3 2h-1l-2 2zm21-52v3l5 4 2 1 2 1v2h-2l-3-2-5-5-1-5zm-95-105v2h-1zl1-1v-1l2 1-1 2-1 1-1 1h-1zm16 24 6-4 7-6h1l1-1 1-2h1l1-1 1-2 1-1v-1l1-2v-1l1-3 1 1v4h-1v1l-1 2-1 2v1h-1v1l-2 1-2 3-8 6-7 4zm41-9v5q-1 6-4 9l-1-2q3-3 3-7v-4zm-25-3 2 1 4 2 15 13 2 2 2 3v1h1l2 3 6 14 6 17 1 1 1 3 1 2 2 1 2 2 1 1 14 13 3 5v7l-1 1-2 2-3 2-10 1h-1v-3h1l1 1 8-1h1l2-2 1-2 2-1v-4l-3-4-14-13-1-1-2-2-3-3v-1l-2-3v-1l-1-2-1-4-10-24h-1l-2-4v-1l-2-3-2-2-1-1q-5-6-14-11l-3-2-2-1zm-27-39 2 2h1l1 1 2 1 2 1 1 1 3 3 4 3 2 1h2l2 1h3v2h-5l-2-1h-2l-1-1h-1l-1-1-5-5v-1l-2-1h-1l-1-1-1-1h-1l-2-2h-1l-1-1zm0 0v1-2m73-29-1 1h-1l-2 1-2 1-4 2-1 1q-3 0-3 2l-2 1-2 2-3 2-1 1-3 2-2 2-1 2-2 1-1 2-1 1-2 3-1 1-2 2v1l-2 2-1 3-1 1-1 1-1 2-1 1-1 2v1h-1l-1-1v-1l1-1 1-2 1-1 2-3v-1l2-2 1-3h1l2-3 1-1 2-2 1-2 1-1 2-2 1-2 2-2 4-2 3-3 4-3q0-2 3-2l1-1 4-2 2-1 2-1zm-1 0v1z"/><path fill="#f9dd16" d="m426 574 9 2h7q5 0 6-4l3-6c2-1 5 3 5 3 6 9 2 18 1 19q-3 6-5 1l-5-6c-3-2-9-1-9-1l-4 1q-1 2-5 3-3 1-5-3-3-8 2-9"/><path d="m425 573 10 1 4 1h3q4 0 5-3l4-7q2-1 5 3 5 6 4 14 0 6-2 7-4 5-7 1l-1-2-3-4-9-1h-1l-1 1h-1l-2 1q-1 3-4 2-4 0-6-4l-1-7zm1 2-2 2 1 5q1 3 4 3l3-2 2-1 4-1q6-1 10 1l3 5 1 2 2 1 3-3 1-6q2-6-3-11v-1q-1-2-3-2l-1 2-2 4q-2 4-6 4h-9z"/><path fill="#f9dd16" d="M508 545q-5-4-7-3l-5-39-27-20 4-6 27 17 24-21 2 8-22 22z"/><path d="m507 546-5-3-1 2-1-3-1-9-4-29-25-19-2-1-2-2 2-1 3-4v-3l2 1 6 4 20 13 22-19 2-1 2-2v3l1 7 2 1-2 1-5 5-16 17 3 37 1 4h-1zm-1-4-3-37v-2l17-17 4-4-1-6-1 1-22 19h-1l-21-13-5-3-2 4 25 18 1 1v1l4 30 1 7z"/></svg>