<svg xmlns="http://www.w3.org/2000/svg" viewBox="0 0 1000 1000"><path fill="#fff" d="M8 195.3c170.8-85.3 341-54.5 513.3-28C676.5 191 833.4 211.8 992 132.7v672c-170.8 85.3-341 54.5-513.3 28C323.5 809 166.6 788.1 8 867.2z"/><path fill="#002b7f" d="M992 717.1c-10.8 14.5-20.6 40.7-49.8 52-56.6 20.8-73.6-21.1-117.1-15.7-29.2 4.3-44 48.8-73.2 49.8-58.3.6-73.6-45.6-117.2-50.5-29.3-2.6-43.9 39-73.2 35.2-58.5-8.8-73.3-55.5-117.1-62.3-29.4-3.8-44 37.7-73.3 35-58.3-6.7-73.4-51.2-117.1-51.2-29.2.8-44 45.1-73.2 49.1-58 6.8-74.2-32.2-117.2-17-29 11-38.4 46.5-55.6 55.5v57.4c17.2-9 26.5-44.6 55.6-55.6 43-15 59.1 23.9 117.2 17.1 29.1-4 44-48.4 73.2-49.1 43.7 0 58.8 44.5 117.1 51.2 29.4 2.7 44-38.8 73.3-35 43.8 6.7 58.6 53.5 117.1 62.3 29.3 3.8 43.9-37.8 73.2-35.2 43.6 5 58.9 51 117.2 50.5 29.1-1 44-45.5 73.2-49.8 43.6-5.4 60.5 36.4 117.1 15.7 29.2-11.2 39-29 49.8-43.4z"/><path fill="#002b7f" d="M992 605.7c-10.8 14.5-20.6 40.6-49.8 52-56.6 20.7-73.6-21.2-117.1-15.8-29.2 4.3-44 48.8-73.2 49.8-58.3.6-73.6-45.5-117.2-50.5-29.3-2.6-43.9 39-73.2 35.3-58.5-8.8-73.3-55.6-117.1-62.4-29.4-3.8-44 37.8-73.3 35-58.3-6.7-73.4-51.2-117.1-51.2-29.2.8-44 45.2-73.2 49.2-58 6.7-74.2-32.2-117.2-17.1-29 11-38.4 46.5-55.6 55.6V743c17.2-9 26.5-44.6 55.6-55.6 43-15.1 59.1 23.8 117.2 17 29.1-4 44-48.3 73.2-49 43.7-.1 58.8 44.4 117.1 51.1 29.4 2.8 44-38.8 73.3-35 43.8 6.8 58.6 53.5 117.1 62.4 29.3 3.7 43.9-37.9 73.2-35.3 43.6 5 58.9 51.1 117.2 50.5 29.1-1 44-45.5 73.2-49.8 43.6-5.4 60.5 36.5 117.1 15.7 29.2-11.2 39-29 49.8-43.4z"/><path fill="#002b7f" d="M992 494.2c-10.8 14.5-20.6 40.7-49.8 52-56.6 20.8-73.6-21.1-117.1-15.7-29.2 4.3-44 48.8-73.2 49.8-58.3.6-73.6-45.6-117.2-50.5-29.3-2.6-43.9 39-73.2 35.2-58.5-8.8-73.3-55.5-117.1-62.3-29.4-3.8-44 37.7-73.3 35-58.3-6.7-73.4-51.2-117.1-51.2-29.2.8-44 45.1-73.2 49.1-58 6.8-74.2-32.2-117.2-17-29 11-38.4 46.5-55.6 55.5v57.4c17.2-9 26.5-44.6 55.6-55.6 43-15 59.1 23.9 117.2 17.1 29.1-4 44-48.4 73.2-49.1 43.7 0 58.8 44.5 117.1 51.2 29.4 2.7 44-38.8 73.3-35 43.8 6.8 58.6 53.5 117.1 62.3 29.3 3.8 43.9-37.8 73.2-35.2 43.6 5 58.9 51 117.2 50.5 29.1-1 44-45.5 73.2-49.8 43.6-5.4 60.5 36.4 117.1 15.7 29.2-11.2 39-29 49.8-43.4z"/><path fill="#002b7f" d="M992 382.8c-10.8 14.5-20.6 40.6-49.8 52-56.6 20.7-73.6-21.2-117.1-15.8-29.2 4.3-44 48.8-73.2 49.8-58.3.6-73.6-45.5-117.2-50.5-29.3-2.6-43.9 39-73.2 35.3-58.5-8.9-73.3-55.6-117.1-62.4-29.4-3.8-44 37.8-73.3 35-58.3-6.7-73.4-51.2-117.1-51.2-29.2.8-44 45.2-73.2 49.2-58 6.7-74.2-32.2-117.2-17.1-29 11-38.4 46.5-55.6 55.6v57.4c17.2-9 26.5-44.6 55.6-55.6 43-15.1 59.1 23.8 117.2 17 29.1-4 44-48.3 73.2-49 43.7-.1 58.8 44.4 117.1 51.1 29.4 2.8 44-38.8 73.3-35 43.8 6.8 58.6 53.5 117.1 62.4 29.3 3.7 43.9-37.9 73.2-35.3 43.6 5 58.9 51.1 117.2 50.5 29.1-1 44-45.5 73.2-49.8 43.6-5.4 60.5 36.5 117.1 15.7 29.2-11.2 39-29 49.8-43.4z"/><path fill="#002b7f" d="M992 271.3c-10.8 14.5-20.6 40.7-49.8 52-56.6 20.8-73.6-21.1-117.1-15.7-29.2 4.3-44 48.8-73.2 49.8-58.3.6-73.6-45.6-117.2-50.5-29.3-2.6-43.9 39-73.2 35.2-58.5-8.8-73.3-55.5-117.1-62.3-29.4-3.8-44 37.7-73.3 35-58.3-6.7-73.4-51.2-117.1-51.2-29.2.8-44 45.1-73.2 49.1-58 6.8-74.2-32.2-117.2-17-29 11-38.4 46.5-55.6 55.6v57.3c17.2-9 26.5-44.6 55.6-55.6 43-15 59.1 23.9 117.2 17.1 29.1-4 44-48.4 73.2-49.1 43.7 0 58.8 44.5 117.1 51.2 29.4 2.7 44-38.8 73.3-35 43.8 6.8 58.6 53.5 117.1 62.3 29.3 3.8 43.9-37.8 73.2-35.2 43.6 5 58.9 51 117.2 50.5 29.1-1 44-45.5 73.2-49.8 43.6-5.4 60.5 36.5 117.1 15.7 29.2-11.2 39-29 49.8-43.4z"/><path fill="#002b7f" d="M992 159.9c-10.8 14.5-20.6 40.6-49.8 52-56.6 20.7-73.6-21.2-117.1-15.8-29.2 4.3-44 48.8-73.2 49.9-58.3.5-73.6-45.6-117.2-50.6-29.3-2.6-43.9 39-73.2 35.3-58.5-8.8-73.3-55.6-117.1-62.4-29.4-3.8-44 37.8-73.3 35-58.3-6.7-73.4-51.2-117.1-51.2-29.2.8-44 45.2-73.2 49.2-58 6.7-74.2-32.2-117.2-17.1-29 11-38.4 46.6-55.6 55.6v57.4c17.2-9 26.5-44.6 55.6-55.6 43-15.1 59.1 23.8 117.2 17 29.1-4 44-48.3 73.2-49 43.7 0 58.8 44.4 117.1 51.1 29.4 2.8 44-38.8 73.3-35 43.8 6.8 58.6 53.6 117.1 62.4 29.3 3.7 43.9-37.9 73.2-35.3 43.6 5 58.9 51.1 117.2 50.5 29.1-1 44-45.5 73.2-49.8 43.6-5.4 60.5 36.5 117.1 15.7 29.2-11.2 39-29 49.8-43.4z"/><path fill="#fff" d="M8 195.3C170.7 114 332.5 138 500 164v340.5c-161.8-25-325.3-51.9-492 31.2z"/><path fill="#00247d" d="M8 195.3C170.7 114 332.5 138 500 164v336c-161.8-25-325.3-51.9-492 31.3z"/><path fill="#fff" d="M8 195.3a522 522 0 0 1 55-23.7c63 20.3 126 54.4 191 98.2a1945 1945 0 0 1 191-114.2l55 8.4v37.6c-63 33.3-126 66.4-191 107.1a4122 4122 0 0 1 191 153.7V500l-55-8.4C382 439.4 319 388.7 254 345c-63 43.7-126 95-191 162.7a518 518 0 0 0-55 23.6v-37.5C71 419.2 134 360.3 199 310c-63-37.3-126-65.2-191-77.2z"/><path fill="#cf142b" d="M254 307.3q18 0 36.7.6c69 49.7 138.1 107.4 209.3 167V500c-81.1-68-162.3-136.2-246-192.7v25A1225 1225 0 0 0 44.7 514.8 530 530 0 0 0 8 531.2a1240 1240 0 0 1 246-223.9 716 716 0 0 0-36.7 1.3c-69-42.9-138.1-75.2-209.3-88.3v-25c81.2 14.9 162.3 55.7 246 112v-25c69.1-47.8 138.2-86 209.3-124L500 164c-81.2 42.9-162.4 85.5-246 143.3"/><path fill="#fff" d="M295 140v112c67.7 2.9 135.3 13.2 205 24v112c-67.6-10.5-135.3-21-205-24v112a755 755 0 0 0-82 .9v-112A530 530 0 0 0 8 419.3v-112a531 531 0 0 1 205-54.4v-112q40.3-2.6 82-.9"/><path fill="#cf142b" d="M278.6 139.5V274c73 1.7 146.1 12.8 221.4 24.5v67.2c-73-11.3-146.1-22.8-221.4-24.5v134.4q-24.2-.5-49.2.5V341.6A535 535 0 0 0 8 396.9v-67.2c73.1-36.5 146-52 221.4-55.3V140q24.2-1 49.2-.5"/><path fill="#a24300" d="m740.1 366.8-3.5 456c.4 24 15.5 24 17.6-.1l-3.5-456z"/><path fill="#fff" d="m739.4 364.6 12-.1 3.5 458.4v.3a37 37 0 0 1-3.9 15q-2.8 4.8-6.2 4.8c-2.5-.1-4.2-1.5-6-4.8a36 36 0 0 1-2.9-15.4l3.5-456zm1.4 4.5-3.5 453.8q0 7.2 2.2 11.5c1.5 2.9 3 4 5.3 4.2 2.2-.2 3.8-1.4 5.6-4.3q2.5-4.5 3-11.8L750 369z"/><path fill="#006d00" d="m776.5 535.3-11.1-16-2.7 16.8-4.8-24.1-4.5 12.3-.8-25.8-4.5 12.3-.8-25.8-4.5 12.2-2.6-30.3-4.4 12.2-2.6-30.4-4.5 12.2-2.6-30.4-1.2-15.2 2.2-6 5.8 3 9.3 12 18.6 23.8-11.6-5.7 18.6 23.6-11.5-5.6 18.6 23.4-11.6-5.5 16.9 18.8-11.6-5.3 16.8 18.6-11.5-5.3 12.8 20.4-13.3-9.7z"/><path fill="#fff" d="m775.7 536-9.7-14-2.3 14.3h-2l-4.1-20.5-3.3 9-2-.5-.6-20.4-2.7 7.3-2-.5-.6-20.3-2.7 7.3-2-.5-2-25.6-3 8-2-.5-2.1-25.7-3 8-2-.5-2.5-30.4-1.3-15.5 2.7-7.3 7 3.7 9.4 12.2 18.6 23.8-1.1 1.7-7.5-3.7 15.7 19.9-1.2 1.7-7.5-3.6 15.7 19.7-1.1 1.7-7-3.2 13.4 14.8-1.1 1.7-7-3.1 13.4 14.6-1.1 1.8-8.4-3.8 10.9 17.3-1.4 1.5-11.4-8.3 2.7 17zm-1-5-2.7-17.6 11 8-11.9-18.8 10 4.7-13.2-14.8 1-1.8 7 3.3-13.3-14.9 1-1.8 7.6 3.6-15.7-19.8 1.1-1.7 7.6 3.6-15.7-20 1-1.6 7.6 3.7-15.7-20.1-9.1-11.9-4.6-2.4-1.8 4.9 1.3 14.9 2.1 25.6 3-7.9 2 .5 2 25.6 3-8 2 .5 2.1 25.7 3-8 2 .5.5 20.4 2.7-7.4 2 .5.6 20.4 4-10.7 4.3 22.1 2.3-13.8z"/><path d="M776.3 535.4 727 409.3l.2-.1 49.4 126z"/><path d="m760.7 448.2-26.4-20.5-5.5 33.2h-.2l5.5-33.7 26.7 20.8z"/><path d="m767.8 466-26.5-20.2-5.4 33.3h-.3l5.5-33.7 26.8 20.5z"/><path d="m774.8 484-26.4-20-5.5 33.2h-.2l5.5-33.7 26.7 20.2z"/><path d="M780 497.2 755.5 482l-7.2 29-.2-.2 7.2-29.2 25 15.5z"/><path d="m785.4 510.5-24.7-15.1-7.2 29-.2-.1 7.2-29.3 25 15.3z"/><path d="m786.6 525.6-22.4-21.2-1.4 31.7h-.3l1.5-32.2 22.8 21.5z"/><path fill="#006d00" d="m647 315 18 11-5.3-19 15.8 22.5L674 314l12.8 26.3-1.5-15.3 12.8 26.2-1.5-15.4 16.5 29.6-1.5-15.3 16.5 29.2-1.5-15.2 16.6 29 8.2 14.3.8 7.6-6.8.9-14.3-6-28.6-12.8 13.6-1.2-28.6-13.2 13.5-1-28.5-13.7 13.5-.7-24.8-10.3 13.5-.6-24.8-10.7 13.6-.4-21.8-14.8L659 334z"/><path fill="#fff" d="m647.4 314 15.8 9.6-4.5-16.3 1.9-1 13.4 19-1-11.1 2-.6 10 20.7-.8-9.1 2-.7 10.2 20.7-1-9.2 2.1-.7 14 25-1-10 2-.8 14 24.7-1-10 2.1-.7 16.5 29 8.4 14.5 1 9.2-8.2 1-14.6-6-28.6-12.9.3-2.4 8.8-.7-24-11.3.2-2.4 8.8-.6-24.1-11.6.2-2.4 8.2-.4-19.6-8.3.2-2.4 8-.3-19.5-8.5.2-2.4 9.9-.3-18.6-12.6.7-2.4 14.7 3-10.4-16.6zm3.1 4.7 10.9 17-14.2-2.7 20 13.5-11.7.4 19.6 8.4-.2 2.5-8.1.3 19.6 8.2-.3 2.4-8.8.5 24.1 11.5-.2 2.4-8.8.6 24 11.2-.2 2.4-8.8.8 24.1 10.7 14 5.9 5.4-.7-.5-6-8.2-14.2-14-24.4 1 10-2 .7-14-24.7 1 10-2 .7-14-24.9 1 10-2.1.6-10-20.6.8 9.2-2 .6-10.2-20.8 1.3 13.4-14.5-20.7 4.3 15.7z"/><path d="M647 315c34.8 34.7 69.5 68.1 105.3 100l-.2.2a2445 2445 0 0 1-105.2-100z"/><path d="M702.6 397a870 870 0 0 0 34.4 4.4l-10.5-37.2h.3l10.5 37.5q-17.2-1.8-34.8-4.4z"/><path d="M687.5 382.6q17 2.8 34.4 5l-10.4-37.4h.3l10.5 37.7a944 944 0 0 1-34.8-5z"/><path d="m672.5 368 34.4 5.5-10.4-37.5.2-.1 10.6 38-34.8-5.6z"/><path d="m661.2 356.9 30.7 2.3-6.7-34 .2-.1 6.8 34.4-31-2.3z"/><path d="m650 345.7 30.6 2.6-6.7-34.2h.3l6.7 34.5-31-2.6z"/><path d="m641.7 330.5 31.3 10.4-13.4-33.9h.3l13.6 34.4-31.9-10.7z"/><path fill="#006d00" d="m856.7 341.3-15 17.7 16.6-.5L835 370l12.4 3a616 616 0 0 1-25 6.2l12.3 3.4q-12.4 3-25.1 5.6l12.3 3.6q-14.4 4.3-29.3 8l12.4 4a725 725 0 0 1-29.3 7l12.3 4.3q-14.4 3.5-29.3 6.4l-14.7 2.8-6.1-2.5 2.3-7.6 10.8-12.6 21.6-25.7-4.7 15.3 21.6-26.3-4.6 15.4 21.6-26.8-4.6 15.4 17.3-24.4-4.6 15.6 17.3-24.7-4.6 15.6 19.3-20.4-8.9 19z"/><path fill="#fff" d="m857.4 342.2-13.1 15.4 14.2-.4v2.6l-19.6 9.8 9 2.1-.4 2.6-19.8 5 7.4 2-.3 2.6-19.8 4.5 7.4 2.1-.2 2.6a678 678 0 0 1-24.8 6.8l8 2.5-.2 2.6q-12.2 3.3-24.8 6.1l8 2.8-.2 2.5q-14.4 3.4-29.3 6.4l-15 2.8-7.3-3 2.7-9 11-12.9L772 375l1.8 1.3-3 10 18.2-22.2 1.7 1.2-3 10 18.2-22.7 1.8 1.2-2.8 9.2 13.7-19.2 1.8 1-2.7 9.4 13.7-19.6 1.8 1-3.4 11.4 16.4-17.4 1.5 1.4-7.6 16.3 16.5-7.2zm-4.7 2.3-17 7.3 7.2-15.5L825 355l4-13.6-13.6 19.5-1.8-1 2.7-9.4-13.7 19.2-1.8-1 3-10.2-18.2 22.6-1.7-1.2 3-10-18.2 22.2-1.8-1.3 3-10-18.2 21.7-10.6 12.5-1.9 6 5 2 14.4-2.8 24.7-5.3-8-2.8.2-2.5q12.3-2.7 24.8-6l-8-2.6.2-2.5q12.2-3 24.7-6.6l-8-2.4.3-2.6 19.8-4.3-7.4-2 .4-2.6 19.8-4.9-10.8-2.7 21.3-10.3-13.6.2z"/><path d="M856.8 341.4A1100 1100 0 0 1 738 422l-.1-.3c39.2-23 78.4-49 118.8-80.4z"/><path d="M772.8 376 755 411.5q16.4 2 33 3.5v.3a721 721 0 0 1-33.4-3.6l17.8-35.9z"/><path d="m789.7 365-17.6 35.9a670 670 0 0 0 33 2.7v.3a679 679 0 0 1-33.4-2.7l17.8-36.4z"/><path d="M806.7 353.5 789 390q16.3 1.4 33 1.8v.3q-16.4-.5-33.5-1.8l17.9-36.8z"/><path d="M819.4 344.6 806 378.5q14.2 2.2 28.8 4v.2a616 616 0 0 1-29.2-4l13.6-34.2z"/><path d="m832.2 335.4-13.5 34.2q14.2 2 28.8 3.3v.3q-14.3-1.3-29.1-3.4l13.5-34.5z"/><path d="m846.8 330.6-19.5 32.8q15.2-2 31-5v.3a583 583 0 0 1-31.5 5.1l19.8-33.3z"/><path fill="#006d00" d="m854.3 493.5-18.7-4.3 6.7 17-17.4-17 2.7 14.7-14.7-22.2 2.6 14.8-14.7-22.5 2.7 14.8-18.7-25.5 2.7 14.8-18.8-25.9 2.7 15-18.7-26.5-9.4-13.3-1.3-7.5 6.7-1.6 14.7 4q14.5 4 29.4 7.3l-13.4 4q14.5 3.6 29.4 6.5l-13.3 4.3q14.5 3.2 29.4 5.8l-13.4 4.6a612 612 0 0 0 25.4 2.6l-13.4 5q12.5 1.2 25.4 2l-13.3 5.2q11.2 3.5 22.7 6.5l-17.4 3.2z"/><path fill="#fff" d="m854 494.7-16.4-3.7 5.7 14.5-1.8 1.7-14.8-14.4 2 10.7-2 1.2-11.7-17.4 1.6 8.8-2 1.2-11.6-17.7 1.6 8.8-2 1.2-15.8-21.5 1.8 9.7-2 1.2-15.8-21.9 1.7 9.7-2 1.1-18.7-26.3-9.5-13.7-1.6-9 8-1.9 15 4.2q14.5 3.9 29.4 7.2v2.5l-8.8 2.6a678 678 0 0 0 24.8 5.4v2.4l-8.8 2.9a665 665 0 0 0 24.9 4.7l-.1 2.5-8 2.8 20 2v2.4l-8 3q9.9.9 20 1.5v2.5l-9.7 3.9 19.3 5.4-.4 2.5-14.9 2.8 11.7 12.3zm-3.6-3.4-12-12.8 14.2-2.5-20.9-6.2 11.6-4.5-20-1.7v-2.4l8-3-20-2v-2.6l8.7-3a660 660 0 0 1-24.8-5v-2.4l8.8-2.8q-12.2-2.4-24.9-5.6l.1-2.4 8.7-2.6-24.8-6.2-14.4-4-5.4 1.3 1 6 9.3 13 15.8 22.3-1.7-9.7 2-1.1 15.7 21.9-1.7-9.7 2-1.1 15.8 21.5-1.8-9.6 2-1.2 11.7 17.7-1.6-8.8 2-1.2 11.6 17.5-2.3-12.7 16 15.6-5.5-14z"/><path d="M854.2 493.6A1065 1065 0 0 1 741.9 420l.2-.2c37 27.4 74 52.2 112.3 73.5z"/><path d="M792.8 429.8q-17 1.4-34.5 2l13.3 35.2-.3.2-13.5-35.8q17.3-.5 35-2z"/><path d="M808.8 440.3a650 650 0 0 1-34.5 2.8l13.3 35-.3.1-13.4-35.4q17.1-1 35-2.8z"/><path d="M824.9 450.3a636 636 0 0 1-34.6 3.7l13.3 34.7-.2.1-13.5-35q17.1-1.4 35-3.8z"/><path d="M837 457.6a636 636 0 0 1-30.7 7l9.4 31.8-.3.1-9.4-32.2a637 637 0 0 0 30.9-7z"/><path d="M849 464.6a626 626 0 0 1-30.6 7.6l9.3 31.6-.3.2-9.4-32a631 631 0 0 0 31-7.8z"/><path d="M858.3 476.3q-15.7.9-31.8.9l15.9 28.8-.2.2L826 477q15.9 0 32.3-.9z"/><path fill="#006d00" d="m659.3 508.6 9.4-17.2-14.3 1.7 17.7-12.3-11.3-1.6L681 471l-11.3-1.5 20.4-8.5-11.4-1.4 23.4-12-11.3-1.3 23.3-12.4-11.3-1 23.4-12.8 11.7-6.5 5.6.3-.4 7.4-6.3 14.4-12.8 28.7.7-14.8-12.7 28.5.7-14.7-12.8 28.3.7-14.7-9.7 24.8.7-14.7-9.7 24.7.7-14.7-12.4 20.6 3.7-18z"/><path fill="#fff" d="m658.6 507.9 8.2-15-12.3 1.4-.6-2.3 15-10.4-8.2-1.2-.2-2.3 16-6.6-6.8-.9-.2-2.4 16-6.6-6.7-.9-.3-2.3 19.7-10.2-7.4-.8-.3-2.3 19.7-10.4-7.3-.8-.3-2.3 23.3-12.7 11.9-6.7 6.8.4-.4 9-6.5 14.6-12.8 28.7-1.7-.7.4-9.6-10.7 24-1.8-.6.5-9.6-10.8 23.9-1.7-.8.4-8.8-7.7 19.6-1.7-.7.4-8.8-7.7 19.5-1.8-.7.6-10.7-10.6 17.5-1.6-1.2 3.2-15.4-12.8 8zm3.6-2.4 13.3-8.2-3 14.8 11.3-19-.6 12.8 7.7-19.5 1.8.7-.5 8.8 7.7-19.6 1.8.7-.5 9.6 10.8-24 1.7.8-.5 9.6 10.8-24 1.7.6-.4 9.6L736 435l6.2-14.2.3-5.8-4.5-.3-11.5 6.5-19.7 10.7 7.4.7.3 2.4-19.7 10.4 7.3.8.4 2.4-19.8 10.2 7.4.9.3 2.4-16 6.7 6.7.9.2 2.4-16 6.6 9.8 1.3-16.2 11.4 11.7-1.4z"/><path d="M659.3 508.5c27.8-30.1 55.6-61.2 84.2-94.8l.2.2a3136 3136 0 0 1-84.3 94.8z"/><path d="m724 464.3 7.4-36.3-28.4 5v-.3l28.8-5-7.5 36.7z"/><path d="m712 478 7.4-36.1-28.5 4.4v-.3l28.8-4.5-7.5 36.6z"/><path d="m700 491.6 7.3-36-28.4 4v-.3l28.7-4-7.5 36.4z"/><path d="m690.9 501.7 4.4-32.6-25.5.4v-.3l25.8-.4-4.5 33z"/><path d="m681.9 511.7 4.4-32.6-25.5.3v-.3l25.8-.3-4.5 33z"/><path d="m670.2 517.5 10-31.7-25.8 7.4v-.3l26.2-7.5-10.2 32.2z"/><path fill="#006d00" d="m829.6 270-18.1 18.8-3-17.5-10.7 25.6-2-11.7-8.7 26-1.2-11.6L779 326l-3.9-12.3-6.8 31.8-3.9-12.3-6.8 31.7-3.9-12.4L747 384l-3.4 15.7 2 6.3 7.2-3.4 12.7-13.1 25.2-27-14.5 7.5 25.2-27.3-14.5 7.7 25.2-27.8-14.5 8 25.2-22.6-17.2 7.6 27.2-22.6-16.5 8 19.9-24.3-17.3 13.7z"/><path fill="#fff" d="m828.9 269.3-16.5 17.1-3.3-19.4-10.7 25.6-1.3-7.9-2.4.5-6.9 20.4-.7-6.4-2.4.5-5.6 21.7-2.7-8.4-2.4.7-5.8 26.8-2.5-8-2.4.6-5.7 26.8-2.6-8-2.4.5-6.8 31.6-3.5 16 2.4 7.5 8.7-4 12.9-13.3 25.3-27-1.2-1.6-9.5 4.9 21.4-23.2-1.2-1.6-9.5 5 21.4-23.5-1.2-1.6-6.9 3.8 18.6-16.7-.9-1.8-10.6 4.8 21.4-18-.8-1.8-12.6 6.2 17-20.9-1.4-1.3-13.5 10.8 8.6-16.5zm-3.5 6.6-9.6 18.1 13.8-10.8-17 20.7 13.3-6.3-21 17.2.8 1.8 11.7-5-20.5 18.2 1 1.8 9.5-5.2-21.4 23.4 1.2 1.6 9.5-5-21.4 23 1.2 1.6 9.5-4.8-21.4 22.6-12.4 13-5.8 2.6-1.5-5 3.3-15.5 5.8-26.6 2.5 8 2.4-.6 5.8-26.7 2.5 8 2.4-.7 5.8-26.8 3.7 11.9 6.2-24 .6 5.2 2.4-.4 7-21 1.9 11 10.7-25.6 2.7 15.6z"/><path d="m822.5 279.8-26.3 33.6-50.8 92.5.3.1 50.8-92.5 26.2-33.6z"/><path d="m785.1 366.7-28.7 19.9-2.4-28.7-.3.1 2.4 29 29.2-20.1z"/><path d="M796.3 347 767 367.2l-2.5-28.5h-.3l2.5 29 29.6-20.5z"/><path d="m806.7 327-29 20.7-2.1-28.4h-.3l2.2 29 29.4-21.1z"/><path d="m815.4 312-27 16-3-23-.4.1 3.2 23.4 27.3-16.3z"/><path d="M825.5 297.1a900 900 0 0 1-29 16.1l-1.1-22.5h-.3l1.1 23a925 925 0 0 0 29.3-16.3z"/><path d="m829.3 283.8-26.7 21.7 5.2-28.8h-.3l-5.3 29.4 27.2-22.1z"/><path fill="#006d00" d="m731.2 244.8 8.1 25.3 10.5-13.4-1.8 27.5 7-9-3.8 27 6.2-9.3-5.7 26.3 8.8-8.4-8.2 31.2 8.9-8.5-8.2 31.2 8.9-8.5-8.2 31.3-4.1 15.6-4.4 4.1-4.8-7.2-5.1-18.6L725 344l9.5 14.6-10.2-37.4 9.5 14.7-10.2-37.4 9.6 14.6-12.7-32.7 12.2 15.6-14.7-33.4 11.5 15.4-7.4-30.8 9.7 20.3z"/><path fill="#fff" d="m732.2 244.6 7.4 23 11.6-15-1.8 27.6 4.6-6 2 1.6-3 21.2 3.5-5.2 2 1.8-4.8 21.8 6-5.8 1.8 1.9-6.9 26.4 5.8-5.6 1.8 2-6.9 26.3 5.8-5.5 1.8 1.9-8.2 31.2-4.2 15.9-5.3 5-5.7-8.7-5.2-19-10.2-37.3 1.7-.8 6.2 9.6-8.6-31.6 1.7-.7 6.2 9.5-8.6-31.6 1.8-.7 4.5 7-9.4-24.1 1.6-1 7.5 9.6-11.5-26.3 1.6-1.1 8.7 11.7-6.3-26.4 1.9-.4 7.6 16-.5-18.4zm.3 7.4.6 20.3-7.8-16.3 6.4 26.4-9.3-12.3 11.3 25.5-1.6 1.2-8.2-10.5 10.3 26.5-1.7 1-6.2-9.6 8.6 31.6-1.7.7-6.2-9.5 8.6 31.5-1.7.8-6.2-9.5 8.6 31.5 5 18.3 3.8 5.8 3.5-3.4 4-15.3 7-26.3-5.8 5.5-1.8-2 6.9-26.3-5.8 5.6-1.8-2 7-26.3-8.7 8.2 5.2-24-2.8 4.1-2-1.6 3.1-21.8-6.5 8.4 1.8-27.6-9.3 12z"/><path d="m733.4 256.8 8.7 42.4 3.2 108h-.3l-3.2-108-8.6-42.4z"/><path d="m728.2 350.7 16.3 33.5 14.8-23.2.2.2-15 23.6-16.5-34z"/><path d="m727 327.7 16.8 33.8 14.8-23.3.2.3-15 23.5-17-34.2z"/><path d="m726.6 305 16.5 33.7 14.6-23.3.2.3-14.8 23.6-16.7-34.2z"/><path d="m725.5 287.7 17 28.3 13-18.2.2.3-13.2 18.4-17.2-28.7z"/><path d="m723 270 19 28.9 11-18.8.2.3-11.2 19-19.2-29.3z"/><path d="m725.4 256.6 14.5 32.4 8.2-27.3.2.2-8.3 27.9-14.8-33z"/><path fill="#006d00" d="m622.4 423.5 23.7-20-11.8-9.5 20.7 6.9-7-13.5 20 12-7-13.4 20.1 11.8-7-13.3 24.2 12.7-7-13.2 23.7 17.8-7.2-13.1 24.4 11.8L744 409l3.6 6.4-4.7 4.5-13 2.5-21.1 11.3 3.8-10.1-26 3.9 9.4-8.5-26.7 8.9 9.5-8.3-22.5 9.7 10-13.5-23.1 14.8 10-13.4-18.9 16 10.7-18.7z"/><path fill="#fff" d="m621.8 422.4 22.5-18.9-10.5-8.4.6-2.4 18.4 6.2-7.6-14.5 20.2 12-7.2-13.4 20.2 11.9-7-13.2 24.3 12.8-5.3-9.8 1.3-1.8 20 15-6.5-11.9 27.3 13.3 12.2 8.6 4.3 7.7-5.7 5.4-13.2 2.6-23.4 12.6 4.2-11.1-24.2 3.6-.8-2.4 4.7-4.2-21 7-.9-2.4 3.2-2.8-15.3 6.6-1-2.2 5.8-8-17.7 11.4-1.2-2.1 3.5-4.7-11.1 9.4-1.4-2 8.8-15.4-19.5 7.8zm7.6-3 18.3-7.6-9.2 16.2 14.2-12 1.3 2-5.9 8 17.7-11.5 1.3 2.1-7.2 9.7 18.5-8 1 2.3-4.7 4 21-7 .9 2.4-6.2 5.5 24-3.6-3.6 9.2 18.7-10 13-2.5 3.7-3.6-2.8-5.1-11.6-8.2-21.4-10.4 5.4 9.7-1.3 1.9-20-15 6.5 12-24.4-12.7 7.3 13.5-20.2-11.7 7.1 13.4-20.2-12 6.6 12.5-17.1-5.6 7.9 6.3z"/><path d="m629.9 418.1 24.5-12 13-1.4 11 .5 18.8 2.7 16.9 1.7q16.5 3 33.5 5.5v.3a839 839 0 0 1-33.5-5.5l-17-1.7-18.7-2.7-10.9-.5-13 1.4-24.5 12z"/><path d="m712 428.8 18.6-15.2-19-20.8.1-.2 19.3 21-19 15.5z"/><path d="m691 425.5 22.9-15.8-19-21 .2-.3 19.2 21.4-23.3 16z"/><path d="m676 424 21-16-19.1-20v-.2l19.5 20.3-21.3 16.3zm-28.1 2.4 19.4-21.6-15.6-13 .1-.3 15.9 13.3-19.7 21.8z"/><path d="m639.2 427.1 15-20.8-11.9-7.2v-.3l12.4 7.4-15.4 21.2zm21.7-2 19.2-19.6-15.4-15.3.2-.3 15.6 15.6-19.4 19.8z"/><path fill="#9d9d9d" d="M705.5 686.3q20.1-4.1 41-9.4 20.8 4.8 42.6 8.4l-19.8 12.3q-18 1.1-36.5 1.4z"/><path d="M705.5 686q20.1-4.1 41-9.4 21.3 4.9 43.3 8.5l-20.5 12.8q-18 1.1-36.5 1.4l-27.4-12.7zm.9.4 26.4 12.3q17.9-.3 36.5-1.4l19-11.9q-20.6-3.4-41.9-8.2a901 901 0 0 1-40 9.2"/><path fill="#c00" d="M746.7 596.6c-7.3 3.2-14.8-4.4-28 8.3-.3-.2-21.9-13.6-24.2 16.3a29 29 0 0 0 4.1 8.3c2.8-2.5-1 2.7-1.3 3.7q.2 1.1.5 1.7c.2.4.5 1 .6 2.6-.2 1.8-2.2 5.7-1.5 7.5 1 1.9 1.2 6.2 1.2 7.6s.8 5 1.2 5.8c.5.9 1.2 2.7 1.3 4.4 0 1.6.4 6 .3 7.1 0 1.3 1.1 2.5 2.5 3.3 1.4.5 18.2 1.9 42 1.1 23.8-.6 31.8 3.5 41.6-1.8 1.5-1 1.8-2.5 1.7-3.5s0-3.9.4-4.8a32 32 0 0 0 2.6-8.1c.8-.3 4 2.5 2-.4-.4-1 .3-9.6.6-11.7.4-2 1-5.4 1.5-6.2s-.9-3-1-3.5c.2-.5.7-1.8 1.3-2.6 0 0 1-7.6.5-11.4-.9-4.2-3.4-19.8-20.3-16-.3-.1-22.3-10.5-29.6-7.7"/><path d="M746.6 596.2c3.2-1.4 8.7-.5 17.6 2.6q6.4 2.4 12.1 5c11.3-2.6 17.7 2.3 20.5 16v.3a40 40 0 0 1-.4 11.7v.2l-.1.1q-.6.7-1.1 2.3l.4.7q1 2.3.4 3-.3.6-1.2 5l-.1 1a81 81 0 0 0-.8 11.2l.7 1 .2.4q0 .6-.3.7t-1.2-.3l-1.2-.6q0 1.1-1 4-1 2.6-1.8 4l-.3 2v2.3q.4 2.8-1.9 4.1a23 23 0 0 1-8.6 2.7q-3 .1-10.2-.2a248 248 0 0 0-22.8-.6q-16.8.4-29.5 0-11.5-.7-12.7-1.2-1-.6-2-1.5-1-1.2-.8-2.3v-4.3l-.2-2.8a8 8 0 0 0-1.3-4q-.3-.6-.8-2.9l-.4-3.2a17 17 0 0 0-1.1-7.3q-.8-1.3.6-5.3.7-2 .7-2.5 0-1.2-.4-2.2v-.2l-.2-.3-.5-1.6q0-.5 1.4-2.8l.2-.4q-.3 0-1-1a32 32 0 0 1-3.3-7.8c1-13.1 5-19.2 13-19.9a21 21 0 0 1 11.5 3.1 27 27 0 0 1 11.2-7q3.4-.9 9-.5 5.3.4 7.7-.7m.2.8q-2.4 1.1-8 .8t-8.7.5a26 26 0 0 0-11.1 7l-.2.2-.2-.1q-1.4-.8-3.5-1.7a21 21 0 0 0-7.8-1.4c-7.7.6-11.6 6.4-12.4 19q0 .8 1.7 4.5l1.9 3.2.8-.6h.5q.3.3 0 .7 0 .4-1 2l-1.2 2.1.3 1.1.2.4.1.2q.5 1.1.5 2.6 0 .7-.8 3-1.2 3.4-.7 4.2c.8 1.4 1.2 3.8 1.2 8a19 19 0 0 0 1.1 5.5q1.4 2.2 1.4 4.6l.2 2.7q.2 3.7.1 4.6 0 .4.6 1.3t1.7 1.3 12.5 1q12.7.6 29.5.2 10-.3 22.9.6 7.2.4 10 .1 4.7-.5 8.5-2.6 1.8-.9 1.4-3a14 14 0 0 1 .5-5 41 41 0 0 0 2.6-7.6l-.2-.3.3-.3q.3-.5 2 .3h-.1q-.5-.8-.1-5.9.3-4.2.7-6.3l.2-1q.8-4.8 1.4-5.5.2-.1-.6-1.7-.6-1.1-.4-1.5.5-1.7 1.2-2.7 1-7.5.4-11v-.5c-2.8-13.1-9-17.8-19.9-15.3h-.2a144 144 0 0 0-12-5c-8.9-3-14.2-4-17.3-2.7"/><path fill="#f7d917" d="M717.9 616c-1 1-2.1 13-1.3 17.6q1.1 4.4 2 6.1c-1.2-2.3-3-5.5-5.6-5.7-3 1.1-2.3 13.1-2.1 14.6.2-.7.9-5.4 3.9-6.2 2 .1 3.7 2.6 4.5 4l.1 1.3c-.3 1.4-.4 4.4-1.4 8.3a9 9 0 0 1-7.2 5.8l11.1-1h.1l11.1-1.2a9 9 0 0 1-8.2-4.3c-1.7-3.7-2.3-6.6-2.8-7.8v-1.3c.5-1.6 1.6-4.4 3.6-4.9 3.1.2 4.7 4.7 5 5.4-.1-1.5-1.6-13.5-4.7-14-2.5.7-3.7 4.2-4.4 6.7.2-1.3.6-4 .7-6.3 0-5-3.2-16.6-4.4-17.2zm.7 23.8.2.6.3 1.3 1 4.5zm3-.3-.4 6.6.2-6v1.4z"/><path d="M717.8 615.7h.1c.7.1 1.5 2 2.8 7q1.9 7.1 1.7 10.4 0 2-.3 4 1.6-4.3 3.9-4.6c1.4 0 2.5 1.9 3.6 6.7l1.2 7.5v.4l-.1-.1-.1-.1-.1-.3c-1.6-3.7-2.9-5-4.7-5q-2.1.3-3.6 4.7v1.1l.7 1.9q1 3.6 2 5.9 1.4 2.6 4.6 3.6 1.8.5 3.6.5v.5l-11 1.2h-.1l-11.2 1v-.5a11 11 0 0 0 3.4-1.1q2.8-1.6 3.7-4.5a48 48 0 0 0 1.4-8.2v-.4l-.1-.7q-2.3-4.1-4.4-4c-1.8.4-2.9 2-3.7 6v.2l-.1.1-.1.1-.1-.2v-.1q-.2-.6-.2-2.7v-5c.3-4.9 1-6.9 2.4-7.3q2.2-.2 4.6 3.8-.7-2-1.1-3.8-.6-3.1-.2-10.4c.4-5 1-7.1 1.5-7.6m12.7 30-.3-1.6-.8-4.8c-1.1-4.5-2-6.2-3.4-6.3-1.8.4-3 2.2-4.3 6.6l-.3-.3q.6-3.2.8-6.3 0-3.1-1.7-10c-1.3-4.7-2-6.6-2.5-6.8-.6.4-1 2.5-1.4 7.3a42 42 0 0 0 .1 10q.6 2.7 1.8 5.7l.1.4-.2.3c-2-4-3.5-5.6-5.4-5.6-1.2.3-1.9 2.2-2.1 6.9v6.5c1-3.7 2-5.2 3.9-5.6q2.2-.1 4.6 4.2v.2l.1.8v.5l-.2 2q-.5 3.9-1.1 6.4a8 8 0 0 1-4.6 5l8.3-.7 8.3-.9-.8-.2q-3.2-1.1-4.6-3.9a44 44 0 0 1-2.8-7.9v-.6l-.1-.8v-.1q1.5-4.7 3.8-5c1.9 0 3.2 1.2 4.8 4.7m-8.8-6.2-.2 3.4-.2 3.2-.2-.1.2-6v-.3l.1-.4zm-3 0v.2l.2.4.2.8v.6l.6 2.3.5 2.2-.2.3v-.1l-.8-3-.7-3.3z"/><path fill="#f7d917" d="M718.9 646.4s.8-.8 1.7-1c1 0 1.8.6 1.9.6l.2 2.2c-.1 0-1-.6-2-.6-.8.2-1.6 1-1.6 1z"/><path d="M718.8 646.1q.8-1 1.8-1t1.9.7l.3 2.9-.2-.2q-1-.7-1.8-.6t-1.7 1l-.1.2-.3-2.9zm.2.4.2 1.7q.8-.8 1.5-.9.8 0 1.8.5l-.2-1.6q-.9-.6-1.7-.6-.8.1-1.6 1"/><path fill="#f7d917" d="M773.9 616.2c-1.2.8-4 12.3-4 17.1q.5 4.5 1 6.4c-.7-2.5-2.1-6-4.6-6.8-3 .5-4.2 12.4-4.3 14 .3-.7 1.7-5.2 4.8-5.4 2 .6 3.2 3.4 3.8 5v1.3c-.5 1.3-1.1 4.2-2.7 7.9a8 8 0 0 1-8 4l11.1 1.5h.1l11 1.2a10 10 0 0 1-7.4-6c-1-3.9-1.2-6.9-1.5-8.3l.1-1.2c.8-1.5 2.4-4 4.4-4 3 .8 3.9 5.6 4 6.3.2-1.5.5-13.6-2.4-14.7-2.5.1-4.3 3.3-5.4 5.6l1.7-6.1c.7-4.8-.6-17-1.7-17.8m-3 23.6.2.6v1.4l.3 4.7zm3 .4-1.4 6.4 1.2-5.9-.2 1.4z"/><path d="M773.9 616c.7.3 1.2 2.4 1.7 7.5q.7 7.4.1 10.6l-1 4.2c1.6-3 3-4 4.6-4 1.4.3 2.1 2.3 2.5 7.3a71 71 0 0 1 0 7.6v.3h-.1v-.1l-.1-.4c-1-3.9-2-5.5-3.9-6q-2-.2-4.3 4v1.1l.3 2a44 44 0 0 0 1.2 6.3 8 8 0 0 0 3.8 4.6q1.7.9 3.5 1.2v.5l-11.1-1.3h-.1l-11-1.4v-.4q1.8.1 3.5-.4a7 7 0 0 0 4.3-3.7 48 48 0 0 0 2.6-7.7v-.4l.1-.7c-1.2-3.2-2.2-4.6-3.7-5-1.9 0-3.1 1.4-4.6 5v.3h-.1l-.1.2v-.4l.1-2.6.8-4.9c1-4.7 2-6.5 3.4-6.6 1.7.4 2.8 1.8 4 5l-.5-4.3q0-3.3 1.4-10.3c1.2-4.8 2-6.8 2.7-7.2m7.8 32.6v-6.8c-.5-4.7-1.2-6.6-2.4-7-2 0-3.4 1.5-5.3 5.5l-.2-.2q1-3 1.7-6 .6-3.3-.1-10.4c-.5-4.9-1-7-1.5-7.2-.6.3-1.3 2.3-2.4 6.9q-1.6 6.9-1.5 10 .3 2.7 1 6v.3l-.2.3c-1.3-4.4-2.6-6.3-4.5-6.7-1.3 0-2.2 1.7-3.2 6.3l-.7 4.8-.2 1.9q2-5.2 4.6-4.9c1.6.4 2.7 1.8 4 5.1v.1l-.1.9v.5l-.7 2q-1 3.5-2 6a7 7 0 0 1-4.5 3.7l-1 .3 8.5 1h.1l8.6 1q-.6-.1-1-.5a8 8 0 0 1-4-4.8 45 45 0 0 1-1.5-8.3v-1.5q2.4-4.4 4.5-4.2c1.9.4 3 2 4 5.9m-7.7-8.2-.7 3.3-.7 3v.1l-.2-.2.6-2.9.6-3 .2-.6zm-3-.6.2.5v1.4l.2 2.4.1 2.3-.2.2v-.1l-.2-3.1-.3-3.5z"/><path fill="#f7d917" d="M770.2 646.4s1-.7 1.8-.6c1 .1 1.7 1 1.8 1l-.2 2.2s-.8-.8-1.7-1c-1 0-1.8.6-1.8.6z"/><path d="M770.2 646.2q.9-.7 1.8-.7a3 3 0 0 1 1.8 1.1h.1l-.2 2.8-.1-.2a3 3 0 0 0-1.7-1q-.9 0-1.8.6l-.2.2.2-2.8zm.1.3-.1 1.8q.9-.6 1.7-.5t1.6.9l.1-1.8q-.7-.7-1.6-1-.8 0-1.7.6"/><path fill="#f7d917" d="m697.5 637.4 4.4-7s.4.7 0 0c-9-16.4-9.4-25.3-8.4-30s3-9.2 8.4-15.2c5.6-5.7 9-2.6 14.1-2.2 5 .2 6.4 1.6 10.8 2.5s16.1 1.6 16.1 1.6V583s.5.1 0 0c-5.2-1.1-11.7-.2-16.1-1.6-4.4-1.6-8-2-12.8-2.2s-7.9-2-11.1.4a73 73 0 0 0-9.4 10.6 31 31 0 0 0 0 29.5c1.9 4 1.8 7 2.3 9.7.6 2.5.7 6 1.7 8.1"/><path d="M697.7 637.6h-.3v-.2l-.1-.4-.4-1.5-1.7-8.9q-.6-4.1-1.9-6.9a36 36 0 0 1-3.7-13.3 35 35 0 0 1 .7-8.7 22 22 0 0 1 3-7.8q5.3-7 9.5-10.6 1.4-1.2 3.4-1.3 1.1-.1 3.8.4l4 .5q7.4.2 12.8 2.2 2.4.7 8 .9 5.5 0 8 .6h.2l.2.1v.3l-.1.2v4.1h-.2a157 157 0 0 1-16.1-1.6q-1.8-.3-4.2-1.2-3.5-1.2-6.6-1.3-1.4 0-3.9-.6-3.2-.8-4.8-.5a10 10 0 0 0-5.3 3.2c-4.4 5-7 9.8-8.4 15.2q-2.2 10.4 8.4 29.7l.1.2.1.2v.3h-.3v-.2zm4-7.3q-10.6-19.3-8.4-30 1.8-8 8.5-15.3 2.7-2.9 5.4-3.4 1.8-.2 5 .5 2.6.6 3.8.6 3.1.2 6.7 1.4 2.4.9 4.1 1.2 4.3.8 16 1.6V583q-2.5-.6-8-.7-5.7 0-8-1-5.5-1.9-12.8-2.1-1.5 0-4-.5c-3.5-.5-5.5-.3-7 .8q-4.2 3.7-9.4 10.7a22 22 0 0 0-3 7.5q-.9 4.7-.7 8.6.6 6.8 3.7 13 1.4 2.9 2 7.2l.4 2.6 1.3 6.2.3 1.5v.1z"/><path fill="#f7d917" d="m794.5 636.4-4.4-7s-.4.8 0 0c9-16.6 9.4-25.5 8.4-30.1s-3-9.2-8.4-15c-5.6-5.6-9-2.4-14.1-2-5 .5-6.4 1.8-10.8 2.8s-16.1 2-16.1 2v-4.3s-.5.2 0 0c5.2-1.2 11.7-.4 16.1-1.9a41 41 0 0 1 12.8-2.5c4.9-.4 7.9-2 11.1.1 3 2.6 6.7 6.8 9.4 10.4a30 30 0 0 1 3.7 16.1q-.7 7.5-3.7 13.4c-1.9 4-1.8 7-2.3 9.8-.6 2.5-.7 6-1.7 8.2"/><path d="m794.3 636.5-4.2-6.7q-.2.3-.3.1v-.4l.2-.2q10.6-19.6 8.4-30-1.9-7.8-8.4-15a10 10 0 0 0-5.3-3q-1.7-.2-4.8.6-2.5.6-4 .7-3 .1-6.5 1.5-2.4.9-4.2 1.3-4.4 1-16.1 1.9h-.2V583q-.2 0-.2-.2l.1-.2h.3l.1-.1q2.5-.6 8-.8a31 31 0 0 0 8-1q5.5-2.2 12.8-2.6 1.5 0 4-.6 2.7-.5 3.8-.5 2 .1 3.4 1.3a63 63 0 0 1 9.4 10.4q2 2.6 3 7.6 1 4.7.8 8.7-.6 7-3.7 13.4-1.4 2.8-2 7l-.4 2.7-1.2 6.2-.3 1.5-.1.5-.1.2zm-4-7.1 4 6.5.3-1.6 1.8-8.9q.6-4.4 1.9-7.1 3-6.4 3.7-13.2.1-4-.7-8.6a21 21 0 0 0-3-7.4 63 63 0 0 0-9.4-10.4c-1.5-1-3.5-1.2-7-.6q-2.5.5-4 .5-7.3.6-12.7 2.5-2.3 1-8.2 1.1-5.4.3-7.9.8v3.8q11.7-1 16-1.9 1.7-.4 4.1-1.3 3.6-1.2 6.7-1.5 1.4 0 3.8-.7 3.3-.7 5-.6 2.7.5 5.4 3.2 6.7 7.1 8.5 15.2 2.2 10.4-8.4 30.2"/><path fill="#f7d917" d="m738.7 579.4 15.6-.1V623l-15.6.1z"/><path d="m738.5 579.2 16-.2v44.2l-16 .2zm.4.5v43.2l15.2-.2v-43.2z"/><path fill="#f7d917" d="M740.5 541s1.7 1.8 3 4.2c1.2 2.4 2.2 5.3 2.2 5.3s-2.1-1.3-4-3c-1.6-1.8-3-4-3-4v16.2s1.4-2.3 3-4c1.9-1.8 4-3 4-3s-.7 2.3-1.1 5.3c-.7 2.6-3.7 8.6-3.7 8.7l9.6.7-2.3-9.5-1-5.3s2.1 1.2 4 3c1.7 1.7 3 4 3 4v-16.3s-1.3 2.3-3 4.1a25 25 0 0 1-4 3s1-2.8 2.2-5.3c1.4-2.4 3-4.3 3-4.3z"/><path d="m740.2 540.8 12.5-.1-.2.2a25 25 0 0 0-5 9.3 20 20 0 0 0 6.7-7l.2-.3v17l-.2-.3q-1.5-2.2-3.1-4a20 20 0 0 0-3.7-2.7l1 5 2.2 9.5v.2l-10-.8.2-.2a37 37 0 0 0 4.7-13.7 21 21 0 0 0-6.7 6.9l-.2.3v-17l.2.3q1.4 2.2 3 4 1.8 1.5 3.7 2.8l-2-5a24 24 0 0 0-3-4.2zm.7.3a24 24 0 0 1 2.7 4q1.3 2.4 2.2 5.3l.1.4-.2-.2a20 20 0 0 1-4-3 23 23 0 0 1-3-3.7v15.4q1.5-2.1 3-3.8 1.8-1.8 4-3l.2-.2-.1.4-1.1 5.3q-.5 2.6-3.6 8.5l9.2.8-2.2-9.3-1-5.4v-.2h.2a21 21 0 0 1 6.9 6.7v-15.3a24 24 0 0 1-3 3.8 21 21 0 0 1-3.9 3l-.2.2v-.4q1-3 2.3-5.4 1.2-2.2 2.7-4z"/><path fill="#f7d917" d="M754.2 569.7c-.2 6-3.3 10.3-7.7 10.6-4.5-.3-7.5-4.4-7.8-10.5.3-6 3.3-10.2 7.8-10.6 4.4.3 7.5 4.4 7.7 10.5"/><path d="M754.3 569.7q0 4.3-2.3 7.6-2.3 3-5.5 3.2-3.2 0-5.6-3.1a13 13 0 0 1-2.3-7.6q.1-4.4 2.3-7.6c1.7-2.1 3.3-3 5.6-3.1q3.2 0 5.5 3a13 13 0 0 1 2.3 7.6m-.2 0q0-4.3-2.2-7.4c-1.7-2-3.2-2.9-5.4-3q-3.1.1-5.4 3.1a13 13 0 0 0-2.2 7.4q0 4.3 2.2 7.4 2.3 3 5.4 3c2.2-.2 3.7-1 5.4-3.1a13 13 0 0 0 2.2-7.4"/><path fill="#f7d917" d="m739 571.3 15.3-.1c0-.2 0-3.9-.9-5.6h-4.8v-6H744v6.1l-4.8.3c-.6 2.5-.5 2.7-.5 2.7z"/><path d="m738.8 571.5-.2-2.8.5-2.8h.1l4.6-.3.1-6.1h4.8v6h4.8q1 1.5 1 5.7l-.1.1zm.2-.3 15.2-.2q0-3.8-.8-5.2h-4.9v-6H744v6h-.2l-4.6.3q-.6 2.4-.5 2.5z"/><path fill="#f7d917" d="M736.6 621.7s2.7 3.1 5 7c2 4.1 3.6 9 3.6 9s-3.5-2.1-6.5-5c-3-3-5.2-6.8-5.3-6.8v27s2.4-3.7 5.3-6.7c3-2.9 6.4-5 6.5-5s-1.6 4.9-3.7 9a48 48 0 0 1-5 7l19.9-.1s-2.7-3.1-5-7a68 68 0 0 1-3.6-9c0 .1 3.5 2.1 6.5 5 2.9 3 5.2 6.6 5.2 6.6v-27s-2.3 3.8-5.2 6.8-6.5 5.1-6.5 5.1 1.6-4.8 3.6-9c2.3-4 5-7.1 5-7.1z"/><path d="m736 621.4 20.9-.2-.4.4a41 41 0 0 0-8.4 15.6 34 34 0 0 0 11.3-11.7l.3-.5v28.3l-.3-.4a34 34 0 0 0-11.3-11.2q1.5 4.5 3.5 8.2 2 4 4.9 7l.4.4-20.8.2.4-.4a40 40 0 0 0 8.4-15.5 35 35 0 0 0-6.1 4.8q-3 3-5.2 6.7l-.3.5v-28.3l.3.5q2.2 3.7 5.2 6.7 2.7 2.7 6 4.7a40 40 0 0 0-8.4-15.4zm1 .5a41 41 0 0 1 8.3 15.7l.2.5-.4-.2a33 33 0 0 1-6.5-5q-2.8-2.8-5-6.4v25.8q2.2-3.4 5-6.3 3-3 6.5-5l.4-.2-.2.5q-1.5 4.9-3.6 9a40 40 0 0 1-4.7 6.7l19-.2a39 39 0 0 1-8.4-15.5l-.1-.5.3.2a34 34 0 0 1 6.6 4.9q2.7 2.7 5 6.2v-25.8a40 40 0 0 1-5 6.4 34 34 0 0 1-6.6 5.1l-.3.3.1-.6a42 42 0 0 1 8.3-15.8z"/><path fill="#f7d917" d="m698.8 666.6 9.8-2s-3-2.5-5.8-6c-2.5-3.6-4.7-8.1-4.7-8.1s3.7 1.4 7 3.6c3.3 2.5 6 5.7 6 5.7l-3.4-26.8s-1.8 4.2-4.3 7.8c-2.6 3.4-5.7 6.1-5.8 6.1s1-5 2.5-9.5c1.7-4.3 4-8 4-8l-9.8 2z"/><path d="m698.7 666.9-4.6-35.8 10.4-2-.3.5a43 43 0 0 0-6.3 16.9 37 37 0 0 0 5.4-6q2.5-3.4 4.3-7.6l.2-.5 3.6 28-.4-.4q-2.7-3.2-6-5.6-3-2.2-6.5-3.5a35 35 0 0 0 10.2 13.6l.4.3-10.2 2zm.3-.6 9.1-1.8q-3-2.4-5.4-5.7-2.5-3.6-4.8-8.2l-.2-.5.4.2a31 31 0 0 1 7.1 3.7 35 35 0 0 1 5.7 5.2l-3.3-25.5a42 42 0 0 1-4 7.2 37 37 0 0 1-5.9 6.2l-.3.3v-.5q1-5.2 2.6-9.6a44 44 0 0 1 3.6-7.6l-9 1.8z"/><path fill="#f7d917" d="M788.9 628.5s2.3 3.6 4 7.9c1.5 4.3 2.4 9.4 2.4 9.4s-3.2-2.6-5.8-6a51 51 0 0 1-4.2-7.6l-3.5 26.8s2.8-3.2 6-5.8c3.4-2.3 7-3.8 7-3.9 0 0-2.1 4.6-4.7 8.3a45 45 0 0 1-5.8 6.2l9.8 1.7 4.5-35.5z"/><path d="m788.4 628.2 10.4 1.6-4.5 36-10.4-1.8.4-.4a36 36 0 0 0 10.2-13.9 33 33 0 0 0-12.6 9.5l-.3.5 3.6-28.2.2.6a35 35 0 0 0 9.7 13.3q-.9-4.9-2.4-9a42 42 0 0 0-4-7.8zm1 .6a43 43 0 0 1 6 17l.2.5-.4-.3a35 35 0 0 1-5.8-6 40 40 0 0 1-4-7.1l-3.3 25.5q2.6-3 5.6-5.4 3.4-2.3 7.1-3.9l.4-.1-.2.5q-2.1 4.5-4.7 8.3a37 37 0 0 1-5.4 5.9l9 1.5 4.5-35z"/><path fill="#f7d917" d="M699 665.2v19.4s23.7-9.6 47.5-10c23.8 0 47.5 9 47.5 9V664s-23.7-9-47.5-9c-23.8.4-47.5 10-47.6 10.1"/><path d="M698.8 665.2v-.2q6-2.4 15-5 17.8-4.9 32.7-5.1 15 0 32.7 4.5 9 2.3 14.9 4.5v20l-.1-.1q-6-2.2-14.9-4.6-17.8-4.5-32.6-4.4t-32.6 5.1q-9 2.5-14.8 5h-.3zm.3.2v19q6-2.5 14.7-5 18-4.9 32.7-5 15-.1 32.7 4.4 8.7 2.3 14.6 4.4v-18.9q-6-2.2-14.7-4.5a132 132 0 0 0-32.6-4.4q-15 .1-32.7 5.1-8.7 2.5-14.7 4.9"/><path fill="#fff" d="M696.7 627q0 2.9-1.8 4.3-1.7 1.2-3.6-.2a6 6 0 0 1-1.8-4.4q0-2.8 1.8-4.2 1.9-1.2 3.6.2a6 6 0 0 1 1.8 4.4"/><path d="M697 627q0 3.1-2 4.6-1.8 1.3-3.8-.2-1.9-1.7-2-4.7c.1-2.2.7-3.4 2-4.5q2-1.5 3.9.2t1.9 4.7m-.5 0c0-2-.5-3.1-1.7-4.2q-1.7-1.5-3.4-.2t-1.7 4q0 2.6 1.7 4.1t3.4.2c1.2-1 1.7-2 1.7-4"/><path fill="#fff" d="M692.1 615.6q0 2.7-1.8 4.2-1.8 1.2-3.6-.2a6 6 0 0 1-1.8-4.5q0-2.7 1.8-4.2 1.8-1.2 3.6.2 1.7 1.6 1.8 4.5"/><path d="M692.3 615.6q0 3-1.9 4.4t-3.8-.2-2-4.7 2-4.4c1.4-1 2.4-.9 3.8.2q1.9 1.7 2 4.7m-.5 0c0-2-.6-3.1-1.7-4.2q-1.7-1.5-3.4-.2c-1.2 1-1.7 2-1.7 4q0 2.6 1.7 4.1t3.4.2c1.1-1 1.6-2 1.7-4"/><path fill="#fff" d="M691.1 602.3q0 2.8-1.8 4.2-1.8 1.2-3.6-.2a6 6 0 0 1-1.8-4.4q0-2.9 1.8-4.2 1.8-1.2 3.6.2 1.8 1.5 1.8 4.4"/><path d="M691.4 602.3q-.1 3-2 4.5-1.8 1.3-3.8-.2a7 7 0 0 1-2-4.8q.1-2.9 2-4.4 2-1.5 3.9.2t1.9 4.7m-.5 0c0-1.9-.5-3-1.7-4.2q-1.7-1.5-3.4-.2t-1.7 4 1.7 4.1 3.4.2 1.7-4"/><path fill="#fff" d="M694 590.1q0 2.8-1.8 4.2-1.8 1.3-3.6-.1a6 6 0 0 1-1.8-4.5q0-2.7 1.8-4.2 1.8-1.2 3.6.2 1.8 1.7 1.8 4.4"/><path d="M694.3 590.2q-.1 3-2 4.4t-3.8-.2q-1.9-1.7-2-4.7.1-3 2-4.5 2-1.3 3.9.3t1.9 4.6m-.5 0q0-2.6-1.7-4.1t-3.4-.2c-1.1 1-1.6 2-1.7 4q0 2.6 1.7 4 1.7 1.5 3.4.3 1.8-1.3 1.7-4"/><path fill="#fff" d="M700.2 580.3q-.2 2.8-1.8 4.3-1.8 1.2-3.7-.2a6 6 0 0 1-1.8-4.4q0-2.9 1.8-4.3 1.8-1.2 3.7.2a6 6 0 0 1 1.8 4.4"/><path d="M700.4 580.3c0 2.2-.6 3.4-2 4.5q-1.8 1.5-3.8-.2-1.8-1.7-1.9-4.7t2-4.4q1.8-1.5 3.8.2 1.8 1.6 1.9 4.6m-.5 0q0-2.7-1.7-4.1-1.6-1.5-3.4-.2-1.6 1.3-1.6 4 0 2.6 1.6 4.1 1.8 1.5 3.5.2t1.6-4"/><path fill="#fff" d="M708.5 573.6q0 2.8-1.8 4.3-1.8 1.2-3.6-.2a6 6 0 0 1-1.8-4.4q0-2.7 1.8-4.2 1.8-1.2 3.6.2a6 6 0 0 1 1.8 4.3"/><path d="M708.8 573.6q-.1 3-2 4.5t-3.8-.1q-1.9-1.7-2-4.7.1-3 2-4.5 2-1.5 3.9.2t1.9 4.6m-.5 0c0-1.9-.5-3-1.7-4.1q-1.7-1.5-3.4-.1c-1.1 1-1.6 2-1.7 4q0 2.6 1.7 4 1.7 1.5 3.4.2 1.8-1.3 1.7-4"/><path fill="#fff" d="M717.9 574.8q0 2.8-1.8 4.3-1.9 1.2-3.6-.1a6 6 0 0 1-1.8-4.4q0-2.8 1.8-4.3 1.7-1.2 3.6.1a6 6 0 0 1 1.8 4.4"/><path d="M718.1 574.8q0 3-2 4.5-1.8 1.5-3.8 0-1.9-1.7-1.9-4.7t2-4.5q1.8-1.5 3.8 0 2 1.7 1.9 4.7m-.4 0q0-2.7-1.7-4.1-1.8-1.5-3.4-.1-1.7 1.3-1.7 4t1.7 4.1 3.4.1 1.7-4"/><path fill="#fff" d="M727.2 577.1q0 2.8-1.8 4.3-1.8 1.2-3.6 0a6 6 0 0 1-1.8-4.4q0-2.8 1.8-4.3 1.8-1.2 3.6 0 1.8 1.6 1.8 4.4"/><path d="M727.5 577.1q-.1 3-2 4.6t-3.8-.1q-1.9-1.6-2-4.6.1-3.1 2-4.6t3.8.1 2 4.6m-.5 0q0-2.7-1.7-4-1.7-1.5-3.4-.1t-1.7 4 1.7 4 3.4.1 1.7-4"/><path fill="#fff" d="M736.6 578.5q0 2.8-1.8 4.3-1.8 1.4-3.7 0a6 6 0 0 1-1.8-4.3q.1-2.8 1.8-4.3 1.8-1.4 3.7 0 1.7 1.6 1.8 4.3"/><path d="M736.8 578.5q0 3-2 4.6-1.8 1.5-3.8 0-1.9-1.6-1.9-4.6 0-3.1 2-4.6 1.8-1.5 3.8 0 1.9 1.6 1.9 4.6m-.5 0q0-2.6-1.6-4-1.7-1.5-3.5 0c-1.1 1-1.6 2-1.6 4q0 2.6 1.6 4 1.8 1.5 3.5 0 1.6-1.3 1.6-4"/><path fill="#fff" d="M795.3 626q0 2.7 1.8 4.1 1.7 1.2 3.6-.3a6 6 0 0 0 1.8-4.5q0-2.7-1.8-4.1-1.9-1.2-3.6.3a6 6 0 0 0-1.8 4.5"/><path d="M795 626q0 3 2 4.4 1.8 1.3 3.8-.3a6 6 0 0 0 2-4.8q-.1-3-2-4.4-2-1.3-3.9.3a6 6 0 0 0-1.9 4.8m.5 0c0-2 .5-3.1 1.7-4.2q1.7-1.5 3.4-.3t1.7 3.9q0 2.5-1.7 4.2-1.8 1.4-3.4.3c-1.2-1-1.7-2-1.7-4"/><path fill="#fff" d="M799.9 614.3q0 2.8 1.8 4.2 1.8 1 3.6-.4a6 6 0 0 0 1.8-4.5q0-2.7-1.8-4.1-1.8-1.2-3.6.3a6 6 0 0 0-1.8 4.5"/><path d="M799.7 614.3q0 3.1 1.9 4.4t3.8-.3a6 6 0 0 0 2-4.8q-.1-3-2-4.4c-1.4-.8-2.4-.7-3.8.4a6 6 0 0 0-2 4.7m.5 0q0-2.7 1.7-4.2 1.7-1.4 3.4-.3 1.8 1.2 1.7 3.9 0 2.5-1.7 4.2-1.7 1.4-3.4.3c-1.1-1-1.6-2-1.7-3.9"/><path fill="#fff" d="M800.9 601q0 2.8 1.8 4.2 1.8 1 3.6-.4a7 7 0 0 0 1.8-4.5q0-2.7-1.8-4.1-1.8-1.1-3.6.3a6 6 0 0 0-1.8 4.5"/><path d="M800.6 601q0 3.1 2 4.4 1.8 1.4 3.8-.3a6 6 0 0 0 2-4.8q-.1-3-2-4.4-2-1.2-3.9.4a6 6 0 0 0-1.9 4.7m.5 0q0-2.7 1.7-4.2 1.7-1.4 3.4-.3 1.6 1.2 1.7 3.9 0 2.5-1.7 4.2-1.7 1.4-3.4.3-1.7-1.2-1.7-3.9"/><path fill="#fff" d="M798 589q0 2.7 1.8 4.1 1.8 1.2 3.6-.3a6 6 0 0 0 1.8-4.5q0-2.8-1.8-4.1t-3.6.3a6 6 0 0 0-1.8 4.5"/><path d="M797.7 589q0 3 2 4.4 1.8 1.4 3.8-.4a6 6 0 0 0 2-4.7q-.1-3-2-4.4-2-1.3-3.9.3a6 6 0 0 0-1.9 4.8m.5 0q0-2.8 1.7-4.3 1.7-1.4 3.4-.3c1.1 1 1.6 2 1.7 4q0 2.6-1.7 4.1t-3.4.3q-1.8-1.2-1.7-3.9"/><path fill="#fff" d="M791.8 579.3q.2 2.8 1.8 4.2 1.8 1.2 3.7-.3a6 6 0 0 0 1.8-4.5q0-2.7-1.8-4.1-1.8-1.2-3.7.3a6 6 0 0 0-1.8 4.4"/><path d="M791.6 579.3c0 2.2.6 3.4 2 4.5q1.8 1.3 3.8-.3a6 6 0 0 0 1.9-4.8q0-3-2-4.4-1.8-1.3-3.8.3a6 6 0 0 0-1.9 4.7m.5 0c0-1.9.5-3 1.7-4.2q1.6-1.4 3.4-.2 1.6 1.2 1.6 3.9 0 2.5-1.6 4.2-1.7 1.5-3.5.2-1.6-1.2-1.6-3.9"/><path fill="#fff" d="M783.5 572.9q0 2.7 1.8 4.2 1.8 1.2 3.6-.3 1.7-1.6 1.8-4.4 0-2.9-1.8-4.2-1.8-1.2-3.6.2a6 6 0 0 0-1.8 4.5"/><path d="M783.2 572.9q.1 3 2 4.4t3.8-.2q1.9-1.7 2-4.7c-.1-2.2-.7-3.4-2-4.5q-2-1.4-3.9.3t-1.9 4.7m.5 0c0-2 .5-3.1 1.7-4.2q1.7-1.5 3.4-.2 1.6 1.2 1.7 3.9c0 1.9-.6 3-1.7 4.2q-1.7 1.5-3.4.2c-1.2-1-1.7-2-1.7-4"/><path fill="#fff" d="M774.1 574.3q0 2.7 1.8 4.2 1.9 1.2 3.6-.2 1.8-1.6 1.8-4.4t-1.8-4.2q-1.7-1.2-3.6.2a6 6 0 0 0-1.8 4.4"/><path d="M773.9 574.3q0 3 2 4.5 1.8 1.3 3.8-.2 1.9-1.7 1.9-4.7c0-2.2-.6-3.4-2-4.5q-1.8-1.5-3.8.2t-1.9 4.7m.4 0c0-2 .6-3.1 1.7-4.2q1.8-1.5 3.4-.2 1.8 1.3 1.7 4 0 2.6-1.7 4.1t-3.4.2c-1.1-1-1.6-2-1.7-4"/><path fill="#fff" d="M764.8 576.8q0 2.7 1.8 4.2 1.8 1.2 3.6-.1a6 6 0 0 0 1.8-4.4q0-2.8-1.8-4.3-1.8-1.2-3.6.2a6 6 0 0 0-1.8 4.4"/><path d="M764.6 576.8q0 3 1.9 4.5t3.8-.2 2-4.6-2-4.5-3.8.1-2 4.7m.5 0q0-2.8 1.7-4.1 1.7-1.5 3.4-.2t1.7 4-1.7 4.1-3.4.1c-1.2-1-1.6-2-1.7-4"/><path fill="#fff" d="M755.4 578.4q0 2.7 1.8 4.2 1.8 1.3 3.7 0a6 6 0 0 0 1.8-4.5q-.2-2.7-1.8-4.2-1.8-1.2-3.7 0a6 6 0 0 0-1.8 4.5"/><path d="M755.2 578.4q0 3 2 4.5 1.8 1.5 3.8-.1c1.3-1.2 1.8-2.5 1.9-4.7q0-3-2-4.5-1.8-1.5-3.8.1t-1.9 4.6m.5 0q0-2.6 1.6-4 1.8-1.5 3.5-.1c1.1 1 1.6 2 1.6 4q0 2.6-1.6 4-1.7 1.5-3.5.2-1.6-1.4-1.6-4"/><path fill="#fff" d="M750 617q0 2.8-1.7 4.3-1.8 1.5-3.6 0a6 6 0 0 1-1.8-4.2q0-2.8 1.8-4.4 1.8-1.3 3.6 0 1.6 1.5 1.8 4.3"/><path d="M750.3 617q0 3-1.9 4.6-2 1.5-3.9 0-1.8-1.4-1.9-4.5t2-4.6q1.8-1.5 3.8 0 1.9 1.4 2 4.5m-.5 0q0-2.7-1.7-4-1.8-1.4-3.4 0-1.7 1.4-1.7 4 0 2.8 1.7 4.1t3.4 0 1.7-4.1"/><path fill="#fff" d="M750 608.2q0 2.8-1.7 4.3-1.8 1.5-3.6 0a6 6 0 0 1-1.8-4.2q0-2.8 1.8-4.4 1.8-1.2 3.6 0 1.6 1.5 1.8 4.3"/><path d="M750.3 608.2q0 3-1.9 4.6-2 1.5-3.9 0-1.8-1.4-1.9-4.5 0-3 2-4.6 1.8-1.5 3.8 0 1.9 1.4 2 4.5m-.5 0q0-2.7-1.7-4-1.8-1.4-3.4 0-1.7 1.4-1.7 4 0 2.8 1.7 4.1 1.6 1.4 3.4 0 1.6-1.4 1.7-4.1"/><path fill="#fff" d="M750 601.2q0 2.8-1.7 4.3-1.8 1.4-3.6 0a6 6 0 0 1-1.8-4.3q0-2.7 1.8-4.3 1.8-1.4 3.6 0 1.6 1.5 1.8 4.3"/><path d="M750.3 601.2q0 3-1.9 4.5-2 1.5-3.9 0-1.8-1.4-1.9-4.5 0-2.9 2-4.6 1.8-1.5 3.8 0t2 4.5m-.5 0q0-2.6-1.7-4-1.8-1.2-3.4 0-1.7 1.4-1.7 4.1t1.7 4q1.6 1.5 3.4 0 1.6-1.4 1.7-4"/><path fill="#fff" d="M750 594.7q0 2.8-1.7 4.4-1.8 1.4-3.6 0a6 6 0 0 1-1.8-4.3q0-2.8 1.8-4.3 1.8-1.4 3.6 0 1.6 1.5 1.8 4.2"/><path d="M750.3 594.7q0 3-1.9 4.6-2 1.5-3.9 0-1.8-1.4-1.9-4.5 0-3 2-4.6 1.8-1.5 3.8 0 1.9 1.4 2 4.5m-.5 0q0-2.6-1.7-4-1.8-1.4-3.4 0-1.7 1.4-1.7 4.1t1.7 4 3.4 0q1.6-1.4 1.7-4"/><path fill="#fff" d="M750 574.1q0 2.8-1.7 4.4-1.8 1.4-3.6 0a6 6 0 0 1-1.8-4.3q0-2.8 1.8-4.3 1.8-1.4 3.6 0 1.6 1.5 1.8 4.2"/><path d="M750.3 574.1q0 3-1.9 4.6-2 1.5-3.9 0-1.8-1.4-1.9-4.5 0-3 2-4.6 1.8-1.5 3.8 0 1.9 1.4 2 4.5m-.5 0q0-2.6-1.7-4-1.8-1.4-3.4 0-1.7 1.4-1.7 4.1t1.7 4 3.4 0q1.6-1.4 1.7-4"/><path fill="#fff" d="M750 575q0 2.8-1.7 4.3-1.8 1.5-3.6 0a6 6 0 0 1-1.8-4.2q0-2.8 1.8-4.3t3.6 0q1.6 1.5 1.8 4.2"/><path d="M750.3 575q0 3-1.9 4.6-2 1.5-3.9 0-1.8-1.4-1.9-4.5 0-3 2-4.6 1.8-1.5 3.8 0 1.9 1.4 2 4.5m-.5 0q0-2.7-1.7-4-1.8-1.4-3.4 0-1.7 1.4-1.7 4 0 2.8 1.7 4.1 1.6 1.4 3.4 0 1.6-1.4 1.7-4"/><path fill="#fff" d="M750 579.6q0 2.8-1.7 4.3-1.8 1.5-3.6 0a6 6 0 0 1-1.8-4.2q0-2.8 1.8-4.4 1.8-1.2 3.6 0 1.6 1.5 1.8 4.3"/><path d="M750.3 579.6q0 3-1.9 4.6-2 1.5-3.9 0t-1.9-4.5 2-4.6q1.8-1.5 3.8 0 1.9 1.4 2 4.5m-.5 0q0-2.7-1.7-4-1.8-1.3-3.4 0-1.7 1.4-1.7 4 0 2.8 1.7 4.1t3.4 0 1.7-4.1"/><path fill="#fff" d="M750 585.8q0 2.9-1.7 4.4-1.8 1.4-3.6 0a6 6 0 0 1-1.8-4.3q0-2.7 1.8-4.3 1.8-1.4 3.6 0 1.6 1.5 1.8 4.2"/><path d="M750.3 585.8q0 3.1-1.9 4.6-2 1.5-3.9 0-1.8-1.4-1.9-4.5 0-3 2-4.6 1.8-1.5 3.8 0t2 4.5m-.5 0q0-2.6-1.7-4-1.8-1.3-3.4 0-1.7 1.4-1.7 4.1t1.7 4q1.6 1.5 3.4 0 1.6-1.4 1.7-4"/><path fill="#fff" d="M751.1 638.2q-.5 5.8-4.7 6.5-4.2-.6-4.6-6.4.5-5.7 4.6-6.4 4.3.6 4.7 6.3"/><path d="M751.3 638.2q0 2.9-1.4 4.8-1.4 2-3.5 2-2 0-3.4-2a8 8 0 0 1-1.5-4.7q0-2.7 1.5-4.7 1.4-2 3.4-2 2.1 0 3.5 2 1.4 1.9 1.4 4.6m-.4 0q0-2.5-1.3-4.2t-3.2-1.8-3.1 1.8a8 8 0 0 0-1.3 4.3q0 2.5 1.3 4.3t3.1 1.8 3.2-1.8a8 8 0 0 0 1.3-4.4"/><path fill="#fff" d="M702.3 649q-.5 5.8-4.7 6.2-4.2-.7-4.7-6.6.5-5.8 4.7-6.1 4.2.8 4.7 6.6"/><path d="M702.5 649a8 8 0 0 1-1.4 4.8q-1.4 1.8-3.5 1.7-2-.1-3.5-2-1.3-2.1-1.4-4.9a8 8 0 0 1 1.4-4.6q1.4-1.9 3.5-1.8 2 .1 3.5 2 1.4 2.2 1.4 4.9m-.4 0q0-2.6-1.4-4.4-1.3-1.7-3-2-2 0-3.2 1.7a7 7 0 0 0-1.3 4.2q0 2.5 1.3 4.4 1.3 1.8 3.1 2 1.9 0 3.1-1.7a7 7 0 0 0 1.3-4.2"/><path fill="#fff" d="M799.7 647.3q-.5 5.9-4.7 6.8c-2.7 0-4.4-2.3-4.6-6q.5-5.8 4.6-6.7 4.3.2 4.7 6"/><path d="M800 647.3q0 2.8-1.5 4.9-1.4 2-3.5 2.2-2 .1-3.4-1.7a8 8 0 0 1-1.4-4.6q0-2.8 1.4-4.8t3.4-2.3q2.1 0 3.5 1.7 1.4 1.9 1.4 4.6m-.4 0q0-2.5-1.3-4.1-1.4-1.7-3.2-1.5t-3.1 2a8 8 0 0 0-1.3 4.4q0 2.5 1.3 4.2 1.4 1.6 3.1 1.5t3.2-2a8 8 0 0 0 1.3-4.4"/><path fill="#002b7f" d="m739.7 660 14.4-.1v8.6h-14.4z"/><path d="m739.5 659.8 14.8-.2v9l-14.8.2zm.4.4v8.2l14-.2v-8.1z"/><path fill="#3e8225" d="M762.7 666c.3 2.7 2.8 4.7 6.5 5.3 3.8.2 6.2-1.3 6.4-4q-.6-4.3-6.5-5.3c-3.8-.2-6.2 1.3-6.4 4"/><path d="M762.5 666q0 2.2 2 3.9 2.1 1.5 4.8 1.8 2.6.2 4.6-1t2-3.4-2.1-3.9a9 9 0 0 0-4.7-1.8q-2.8-.2-4.7 1t-2 3.4m.5 0q0-1.6 1.7-2.7 1.9-1 4.5-.9 2.6.3 4.5 1.8 1.7 1.4 1.8 3 0 1.7-1.7 2.8-1.8 1-4.5.9a9 9 0 0 1-4.5-1.8q-1.7-1.5-1.8-3"/><path fill="#c00" d="m699 669.9-3.6 4.8 4.2 3.5 9.8-3.2-1.8-7.6z"/><path d="m699 669.6 8.8-2.6 1.9 8.2-10.1 3.3-4.6-3.8 3.9-5zm.1.6-3.3 4.4 3.8 3.2 9.5-3-1.6-7z"/><path fill="#c00" d="m794.8 668.7 3.6 4.7-4.2 3.6-9.8-2.8 1.8-7.7z"/><path d="m795 668.5 3.8 5-4.6 3.8-10-3 1.8-8.2 8.9 2.3zm-.3.5-8.4-2.2-1.6 7.1 9.5 2.8 3.8-3.4z"/><path fill="#3e8225" d="M731.1 666.3c-.3 2.8-2.8 4.8-6.5 5.5-3.8.2-6.2-1.2-6.4-4q.6-4 6.5-5.3 5.9-.3 6.4 3.8"/><path d="M731.3 666.3q0 2.2-2 4a9 9 0 0 1-4.7 1.9q-2.8.3-4.7-.9t-2-3.4q.2-2.2 2.2-3.9 2-1.5 4.6-2c2-.1 3.3.1 4.7.9q1.9 1.2 2 3.4m-.5 0q0-1.6-1.7-2.6-1.9-1.1-4.5-.8t-4.5 1.8q-1.7 1.5-1.8 3.2 0 1.6 1.7 2.7 1.8 1 4.5.8 2.6-.4 4.5-2 1.7-1.5 1.8-3"/><path fill="#fff" d="M736.6 660.6q-.2 2.2-1.8 2.4-1.6-.1-1.8-2.4 0-2.2 1.8-2.4 1.6.2 1.8 2.4"/><path d="M736.7 660.6q0 1.1-.6 1.9t-1.3.8-1.4-.8-.5-1.9.5-1.8 1.4-.8 1.3.8.6 1.8m-.3 0q0-.8-.5-1.6-.4-.6-1.1-.6t-1.2.6-.4 1.6q0 2.3 1.6 2.2 1.6.1 1.6-2.2"/><path fill="#fff" d="M737.1 668.4q0 2.2-1.8 2.4-1.6-.2-1.7-2.4.1-2.2 1.7-2.5 1.6.3 1.8 2.5"/><path d="M737.3 668.4q0 1-.6 1.8t-1.4.8-1.3-.8q-.6-.7-.6-1.9 0-1 .6-1.8.6-.7 1.3-.8.8 0 1.4.8t.6 1.9m-.3 0q0-1-.5-1.6t-1.2-.7-1.1.7-.5 1.6q0 2.1 1.6 2.2 1.7 0 1.7-2.2"/><path fill="#fff" d="M714.3 665.7q-.1 2.2-1.7 2.4-1.6-.3-1.8-2.5 0-2.2 1.8-2.4 1.6.3 1.7 2.5"/><path d="M714.5 665.7q0 1.1-.6 1.9t-1.3.7q-.9 0-1.4-.8a3 3 0 0 1 0-3.7q.5-.8 1.4-.8t1.3.8q.6.9.6 2m-.3 0q0-1-.5-1.7t-1.1-.7q-.7 0-1.2.6t-.5 1.6q0 2.2 1.7 2.3 1.5 0 1.6-2.2"/><path fill="#fff" d="M716.6 673q-.2 2.3-1.8 2.4-1.6-.2-1.8-2.4 0-2.2 1.8-2.4 1.6.2 1.8 2.5"/><path d="M716.7 673q0 1.1-.6 2-.6.6-1.3.6t-1.4-.8q-.5-.7-.5-1.8t.5-1.9 1.4-.7 1.3.8.6 1.9m-.3 0q0-1-.5-1.6t-1.1-.7q-.7 0-1.2.6t-.4 1.6q0 2.1 1.6 2.2 1.6 0 1.6-2.1"/><path fill="#fff" d="M757.2 660.4q.1 2.2 1.7 2.4 1.6-.2 1.8-2.5 0-2.2-1.8-2.4-1.6.4-1.7 2.5"/><path d="M757 660.4q0 1.1.6 1.9t1.3.7 1.4-.8.6-1.9-.6-1.8-1.4-.7-1.3.8-.6 1.8m.3 0q0-.9.5-1.6.5-.6 1.1-.7t1.2.7.5 1.5q0 2.3-1.7 2.3-1.5.1-1.6-2.2"/><path fill="#fff" d="M756.6 668.2q0 2.2 1.8 2.4 1.6-.3 1.8-2.5-.2-2.2-1.8-2.4-1.6.2-1.8 2.5"/><path d="M756.5 668.2q0 1 .5 1.8.5.7 1.4.8.8 0 1.4-.8t.5-2-.5-1.8q-.7-.7-1.4-.7-.9 0-1.4.8t-.5 1.9m.3 0q0-1 .4-1.6t1.2-.7 1.1.6.5 1.6q0 2.1-1.6 2.3-1.6 0-1.6-2.2"/><path fill="#fff" d="M779.4 665q0 2.2 1.8 2.3 1.5-.2 1.7-2.5-.1-2.2-1.7-2.3-1.6.2-1.8 2.5"/><path d="M779.2 665q0 1.1.6 1.8t1.4.7 1.3-.8.6-2-.6-1.7-1.3-.7-1.4.8q-.5.9-.6 1.9m.3 0q0-.9.5-1.6t1.2-.7 1.1.6.5 1.5q0 2.2-1.6 2.3t-1.7-2.1"/><path fill="#fff" d="M777.2 672.4q.1 2.2 1.7 2.3 1.6-.2 1.8-2.5 0-2.2-1.8-2.3-1.6.3-1.7 2.5"/><path d="M777 672.4q0 1.1.6 1.8t1.3.7q.9 0 1.4-.8t.6-1.9-.6-1.8q-.5-.7-1.4-.7t-1.3.8q-.6.9-.6 2m.3-.1q0-.9.5-1.6t1.1-.7 1.2.6.5 1.5q0 2.3-1.7 2.3-1.5 0-1.6-2.1"/><path fill="#fff" d="M782.8 698.7c1.4-.5 9.3-3.7 11.3-5.2-1.3-2.7-3-4.5-1.6-3.9 1 0 1.4-3-1-6a106 106 0 0 1-45.1 10.7 109 109 0 0 1-46-10c-2.2 2.9-1.7 5.8-1.8 7.2 0 0 0 1.5.5 2.8 2.7 3.6 9.8 5.7 11.5 6.1 6.3 1.7 12.8 4.4 35.7 4.3 21.3-.3 30.1-4 36.5-6"/><path d="m782.9 699.2-3 .9q-6.9 2.1-12.2 3.2-9.3 1.7-21.4 1.9-13.5 0-22.4-1.2-5.1-.9-11.3-2.5l-2.1-.6h-.1c-6.2-1.8-9.8-3.8-11.6-6.3a7 7 0 0 1-.5-3.2v-.9q0-4.3 1.9-6.7l.1-.1h.2a108 108 0 0 0 45.8 10 108 108 0 0 0 45.2-10.6l.1-.1.2.1a7 7 0 0 1 1.8 4.6q0 1-.3 1.8-.2.6-.6.7l.1.2 1.6 2.8.1.4-.3.3q-1.2 1-5.8 3.1zm0-1a65 65 0 0 0 10.8-4.9l-2-3.5v-.6q.3-.3.5-.2l.5.2.1-.2q.3-.5.2-1.2 0-2-1.4-3.7-7.4 3.8-17.1 6.6a108 108 0 0 1-28 4.1 109 109 0 0 1-45.9-10 9 9 0 0 0-1.5 5.7v1.1q-.2 1 .4 2.4c1.7 2.3 5 4.2 11 5.9h.2l2 .6q6.3 1.8 11.4 2.5a157 157 0 0 0 43.6-.7q5.3-1 12.2-3.2z"/><path fill="#fff" d="M709.8 679.5a91 91 0 0 0-11.7 5.4c0 1.5-1.2 6.6 1 10 7-3 26.8-11.3 48-11.7 21.8 0 39.8 7.9 46.9 10.5 2-3.4.9-8.4.9-9.9a91 91 0 0 0-11.7-5.1c-6.5-1.2-13-6-36-5.9-21.4.4-31 5.3-37.4 6.7"/><path d="m709.8 679 5.1-1.4q7.3-2.4 12.4-3.4a114 114 0 0 1 39.8-.5q4.9 1 11.1 3 3.5 1.2 5 1.5 1.2.3 5.8 2.2 4.8 2.1 6 3l.3.1v1.8q.8 6.3-1.1 8.8l-.2.1h-.1l-2.4-.9q-10.2-4-17.9-6-13.8-3.8-26.4-3.6c-13.6.2-29 4-47 11.1l-1 .5h-.2l-.2-.1c-1.2-1.8-1.6-4.4-1.2-8.7l.2-1.5v-.3l.1-.2q1.3-1 6.1-3.1 4.6-2.1 5.8-2.4m.1 1-5.7 2.3a50 50 0 0 0-5.7 3l-.2 1.4q-.6 5.4.9 7.6l.8-.4q26.9-10.9 47.2-11.2 12.7 0 26.6 3.6a189 189 0 0 1 18 6l2 .9q1.5-2.3.9-7.7l-.2-1.4q-1.3-.9-5.7-2.8a46 46 0 0 0-10.8-3.6 85 85 0 0 0-11-3q-8.5-1.5-19.8-1.4-10.7.1-19.8 1.9-5.1 1-12.3 3.3z"/><path d="M703.6 686.3q0 .4-.2.7t-.6 0l-.3-.6q0-.4.2-.6.3-.3.6-.1t.3.6"/><path d="M703.6 687.3q-.5.3-.9 0t-.5-.8q0-.7.3-1 .5-.3.9 0t.5.8q0 .6-.3 1m-.2-1-.2-.3h-.4q-.1 0 0 .4l.1.4h.4v-.4m-.3 1.9q0 .4-.3.7h-.6l-.3-.6q0-.4.2-.7h.6q.3.1.4.6"/><path d="M702.9 689.2q-.4.4-.8.1-.5-.2-.6-.9t.4-1 .8 0 .5.9-.3 1m-.2-1q0-.3-.2-.3h-.3l-.2.4q0 .3.2.3.3.1.4 0zm1.5 1.1q0 .4-.2.7t-.6 0q-.3 0-.3-.6 0-.4.2-.6.3-.3.6 0 .3 0 .3.5"/><path d="M704.2 690.4q-.4.3-.9 0t-.5-.8.4-1 .8 0 .5.8-.3 1m-.2-1q0-.2-.2-.3h-.3l-.2.4.2.4h.4zm-.9-1.5 5.1-3-2.4 2.2 1.7-.3-1.5 1.1h2.5z"/><path d="m703 687.7 5-3 .4.6-1.4 1.3h.4l.2.7-.4.3h1.3v.8h-5.4zm2.7-.7-1.1.6h1.4-.2zm16.7-7.4q0 .4-.2.7t-.6 0q-.3 0-.4-.6 0-.4.3-.7h.5q.4.1.4.6"/><path d="M722.3 680.5q-.4.4-.8.1-.5-.2-.5-.8t.3-1 .9-.1q.4.2.5.9t-.4 1m-.1-1q0-.3-.2-.3-.3-.1-.4 0l-.1.4q0 .3.2.4h.3zm-.5 2q0 .4-.2.7h-.6l-.3-.6q0-.4.2-.7h.6q.3 0 .3.6"/><path d="M721.7 682.5q-.4.3-.9.1t-.5-.9.3-1 .9 0q.4.3.5.8 0 .7-.3 1m-.2-.9q0-.3-.2-.4h-.3q-.3.3-.2.5t.2.3.4 0v-.4m1.6 1q0 .5-.2.8-.3.2-.6 0l-.4-.6q0-.4.3-.7h.6q.3.1.3.6"/><path d="M723 683.6q-.4.4-1 .1l-.4-.8q0-.7.3-1 .5-.4.9-.1.4.2.5.9t-.4 1m-.1-1q0-.3-.2-.3-.2-.1-.4 0l-.1.4q0 .3.2.4h.3zm-1-1.4 5.2-3.1-2.4 2.2 1.6-.3-1.5 1.1h2.6z"/><path d="m721.8 681 5-3.2.4.7-1.4 1.3h.4l.2.6-.5.4h1.4v.7l-5.4.2zm2.6-.8-1 .7h1.2l.2-.2h-.2zm21.3-3.9q0 .5-.4.6l-.5-.1-.3-.7q0-.5.4-.6.3-.1.6.1z"/><path d="M745.5 677.2q-.5.1-.9-.2t-.3-1q0-.6.5-.8t.8.2q.4.3.3 1 0 .6-.4.8m0-1-.2-.3q-.2-.2-.3-.1l-.2.3.1.4q.2.3.3.1.3 0 .2-.3m-.7 1.7q0 .5-.3.6h-.6l-.3-.8q0-.5.4-.6l.6.1z"/><path d="M744.5 679q-.5 0-.9-.2-.4-.4-.3-1 0-.6.5-.9.4-.1.8.2t.3 1q0 .5-.4.8m0-1-.2-.3h-.3q-.2 0-.2.3l.1.4h.3q.3 0 .2-.3m1.4 1.5q0 .5-.4.6l-.6-.1-.2-.7q0-.5.3-.6t.6.1.2.7"/><path d="M745.5 680.4q-.4.1-.8-.2t-.4-1q0-.5.5-.8.5-.2.9.2.3.3.3 1 0 .5-.5.8m0-1-.1-.3q-.1-.3-.4-.1l-.2.3q0 .3.2.4 0 .2.3.1zm-.6-1.7 5.5-1.5-2.8 1.4 1.7.2-1.6.7 2.5.6z"/><path d="m744.8 677.4 5.5-1.5.2.8-1.6.8h.4l.1.8-.5.2 1.3.4-.1.7-5.3-1.4zm2.7.1-1.1.3 1.3.4zm19.8 4.4q0-.4-.3-.7t-.6 0q-.3.1-.3.6t.2.7h.6q.3-.1.4-.6"/><path d="M767.2 681q-.4-.4-.8-.1-.5.2-.5.9t.3 1 .8 0 .5-.9-.3-1m-.2 1q0 .3-.2.3h-.3q-.2-.1-.1-.4l.2-.4h.3zm-.4-2q0-.4-.2-.7h-.6q-.3.1-.4.6 0 .4.3.7t.6 0q.3 0 .3-.6"/><path d="M766.5 679q-.4-.4-.8 0-.5.2-.5.8t.3 1 .9 0q.4-.2.5-.8t-.4-1m-.1.9-.2.4h-.4l-.1-.5q0-.2.2-.3h.3zm1.5-1.1q0-.4-.2-.7t-.6 0q-.4 0-.4.6 0 .4.2.7h.6q.3-.1.4-.6"/><path d="M767.8 677.9q-.4-.4-.8-.1-.5.2-.5.9 0 .5.3 1 .4.2.8 0t.5-.9q0-.6-.3-1m-.2 1q0 .2-.2.3h-.3l-.1-.4.2-.4h.3zm-.8 1.4 5 3-2.4-2.1 1.7.2-1.5-1h2.5z"/><path d="m766.6 680.5 5.1 3 .3-.6-1.4-1.3h.4l.3-.7-.5-.3h1.3v-.7l-5.3-.1zm2.7.7-1-.6h1.2l.1.1h-.1zm17 6.5q0-.4-.3-.7t-.6 0q-.3 0-.4.6 0 .4.3.6.3.3.6 0 .3-.1.3-.5"/><path d="M786.1 686.7q-.4-.3-.8 0t-.5.8.3 1 .9 0 .5-.8-.4-1m-.1 1-.2.3h-.4l-.1-.4q0-.3.2-.4h.3zm-.5-1.9q0-.4-.2-.7h-.6q-.3.1-.3.6t.2.7.6 0 .3-.6"/><path d="M785.5 684.8q-.4-.4-.9 0-.4.2-.5.8t.3 1 .9 0 .5-.9-.3-1m-.2 1-.2.4h-.3l-.2-.4.2-.4h.4v.4m1.6-1.2q0-.4-.2-.6-.3-.3-.6 0-.3 0-.3.6 0 .4.2.6.3.3.6 0 .3 0 .3-.6"/><path d="M786.7 683.6q-.3-.3-.8 0t-.5.8.3 1q.5.3.9 0t.5-.8-.4-1m-.1 1-.2.3h-.4l-.1-.4q0-.3.2-.4h.3q.3.1.2.4m-.9 1.5 5.1 2.8-2.4-2 1.6.1-1.5-1h2.6z"/><path d="m785.6 686.3 5 2.9.4-.7-1.4-1.2h.4l.2-.7-.4-.3h1.3v-.8h-5.4zm2.6.6-1-.6h1.3-.1z"/><path fill="#1a1a1a" d="M8 195.3c170.8-85.3 341-54.5 513.3-28C676.5 191 833.4 211.8 992 132.7v672c-170.8 85.3-341 54.5-513.3 28C323.5 809 166.6 788.1 8 867.2zm31.3 19.3v604.5c306.5-128.2 611.1 96 921.5-33.7V180.9C654.2 309 349.5 84.9 39.3 214.6" opacity=".2"/></svg>