<svg xmlns="http://www.w3.org/2000/svg" viewBox="0 0 1000 1000"><path fill="#fff" d="M8 195c171-85 341-54 513-28 155 24 312 45 471-34v672c-171 85-341 54-513 28-155-24-312-45-471 34z"/><path fill="#002b7f" d="M992 717c-11 15-21 41-50 52-56 21-73-21-117-16-29 5-44 49-73 50-58 1-74-45-117-50-30-3-44 39-73 35-59-9-74-56-118-62-29-4-44 37-73 35-58-7-73-52-117-52-29 1-44 46-73 50-58 6-74-33-117-18-29 11-39 47-56 56v57c17-9 27-44 56-55 43-15 59 24 117 17 29-4 44-48 73-49 44 0 59 44 117 51 29 3 44-39 73-35 44 7 59 53 118 62 29 4 43-38 73-35 43 5 59 51 117 51 29-1 44-46 73-50 44-6 61 36 117 15 29-11 39-29 50-43zm0-111c-11 14-21 40-50 52-56 20-73-21-117-16-29 4-44 49-73 50-58 0-74-46-117-51-30-2-44 39-73 35-59-8-74-55-118-62-29-4-44 38-73 35-58-7-73-51-117-51-29 1-44 45-73 49-58 7-74-32-117-17-29 11-39 47-56 56v57c17-9 27-45 56-56 43-15 59 24 117 17 29-4 44-48 73-49 44 0 59 45 117 52 29 2 44-39 73-35 44 6 59 53 118 62 29 4 43-38 73-35 43 5 59 51 117 50 29-1 44-45 73-50 44-5 61 37 117 16 29-11 39-29 50-43zm0-112c-11 15-21 41-50 52-56 21-73-21-117-16-29 5-44 49-73 50-58 1-74-45-117-50-30-3-44 39-73 35-59-9-74-56-118-62-29-4-44 37-73 35-58-7-73-52-117-52-29 1-44 46-73 50-58 6-74-33-117-17-29 11-39 46-56 55v58c17-10 27-45 56-56 43-15 59 24 117 17 29-4 44-48 73-49 44 0 59 44 117 51 29 3 44-39 73-35 44 7 59 54 118 62 29 4 43-37 73-35 43 5 59 51 117 51 29-1 44-46 73-50 44-6 61 36 117 16 29-12 39-29 50-44zm0-111c-11 14-21 40-50 52-56 21-73-21-117-16-29 4-44 49-73 50-58 0-74-46-117-51-30-2-44 39-73 36-59-9-74-56-118-63-29-4-44 38-73 35-58-6-73-51-117-51-29 1-44 45-73 49-58 7-74-32-117-17-29 11-39 47-56 56v57c17-9 27-45 56-56 43-15 59 24 117 18 29-4 44-49 73-50 44 0 59 45 117 52 29 2 44-39 73-35 44 6 59 53 118 62 29 4 43-38 73-35 43 5 59 51 117 50 29-1 44-45 73-50 44-5 61 37 117 16 29-11 39-29 50-43zm0-112c-11 15-21 41-50 52-56 21-73-21-117-15-29 4-44 48-73 49-58 1-74-45-117-50-30-3-44 39-73 35-59-9-74-55-118-62-29-4-44 38-73 35-58-7-73-51-117-51-29 0-44 45-73 49-58 6-74-32-117-17-29 11-39 46-56 55v58c17-9 27-45 56-56 43-15 59 24 117 17 29-4 44-48 73-49 44 0 59 44 117 51 29 3 44-39 73-35 44 7 59 54 118 63 29 3 43-38 73-36 43 5 59 51 117 51 29-1 44-46 73-50 44-5 61 36 117 16 29-12 39-29 50-44zm0-111c-11 14-21 41-50 52-56 21-73-21-117-16-29 4-44 49-73 50-58 1-74-46-117-51-30-2-44 39-73 36-59-9-74-56-118-63-29-3-44 38-73 35-58-6-73-51-117-51-29 1-44 45-73 49-58 7-74-32-117-17-29 11-39 47-56 56v57c17-9 27-44 56-55 43-16 59 23 117 17 29-4 44-49 73-49 44 0 59 44 117 51 29 2 44-39 73-35 44 7 59 53 118 62 29 4 43-38 73-35 43 5 59 51 117 50 29-1 44-45 73-49 44-6 61 36 117 15 29-11 39-29 50-43z"/><path fill="#fff" d="M8 195c163-81 324-57 492-31v340c-162-25-325-51-492 32z"/><path fill="#00247d" d="M8 195c163-81 324-57 492-31v336c-162-25-325-52-492 31z"/><path fill="#fff" d="M8 195q27-14 55-23 94 31 191 98 94-64 191-114l55 8v38c-63 33-126 66-191 107q94 70 191 153v38l-55-8q-94-80-191-147c-63 44-126 95-191 163q-27 9-55 23v-37q94-111 191-184-94-57-191-77z"/><path fill="#cf142b" d="m254 307 37 1q103 76 209 167v25c-81-68-162-136-246-193v25c-69 48-138 105-209 183L8 531c81-96 162-166 246-224l-37 2c-69-43-138-76-209-89v-25c81 15 162 56 246 112v-25q103-69 209-124l37 6c-81 43-162 86-246 143"/><path fill="#fff" d="M295 140v112q101 6 205 24v112c-68-10-135-21-205-24v112q-40-2-82 1V365c-68 5-135 19-205 54V307c68-34 135-49 205-54V141q40-3 82-1"/><path fill="#cf142b" d="M279 140v134c73 2 146 13 221 24v68c-73-12-146-23-221-25v135h-50V342c-73 3-146 17-221 55v-67c73-37 146-52 221-56V140z"/><path fill="#a24300" d="m740 367-3 456c0 24 15 24 17 0l-3-456z"/><path fill="#fff" d="M739 365h12l4 458-4 15q-3 5-6 5-4 1-6-5-3-6-3-15l3-456zm2 4-4 454 2 11q3 4 6 5 3-1 5-5 3-4 3-12l-3-453z"/><path fill="#006d00" d="m776 535-11-16-2 17-5-24-5 12v-26l-5 13-1-26-4 12-3-30-4 12-3-30-4 12-3-31-1-15 2-6 6 3 9 12 19 24-12-6 19 24-12-6 19 24-12-6 17 19-11-5 16 18-11-5 13 20-14-9z"/><path fill="#fff" d="m776 536-10-14-2 14h-2l-4-20-4 9-2-1v-20l-3 7h-2l-1-21-2 8-2-1-2-25-3 8-2-1-2-26-3 8h-2l-3-31-1-15 3-7 6 3 10 13 19 23-2 2-7-4 16 20-2 2-7-4 16 20-2 2-6-3 13 14-1 2-7-3 13 15-1 1-8-3 11 17-2 1-11-8 2 17zm-1-5-3-18 11 8-12-18 10 4-13-14 1-2 7 3-13-15 1-2 7 4-15-20 1-2 7 4-16-20 2-2 7 4-16-20-9-12-4-2-2 5 1 14 2 26 3-8 2 1 2 25 3-8 2 1 2 25 3-8 2 1 1 20 3-7 2 1v20l4-11 5 22 2-13z"/><path d="m776 535-49-126zm-15-87-27-20-5 33 5-34zm7 18-27-20-5 33 5-34zm7 18-27-20-5 33 5-34zm5 13-25-15-7 29 7-29zm5 14-24-16-8 29 8-29zm2 15-23-22-1 32 1-32z"/><path fill="#006d00" d="m647 315 18 11-5-19 16 22-2-15 13 26-2-15 13 26-1-15 16 29-1-15 16 29-1-15 16 29 8 14 1 8-7 1-14-6-28-13 13-1-28-13 13-1-29-14 14-1-25-10 14-1-25-10 13-1-21-14 17 3z"/><path fill="#fff" d="m647 314 16 10-4-17 2-1 13 19-1-11h2l10 20-1-9h2l10 20-1-9 3-1 13 25v-10h2l14 24-1-10h2l16 28 9 15v9l-8 1-14-6-29-13v-2l9-1-24-11v-2l9-1-24-12v-2l8-1-19-8v-2l8-1-19-8v-2l10-1-19-12 1-3 15 3-11-16zm4 5 10 17-14-3 20 14h-12l20 8v3h-8l19 8v3h-9l24 12v2l-9 1 24 11v2l-9 1 25 11 14 6 5-1-1-6-8-14-14-25 1 10-2 1-14-25 1 10-2 1-14-25 1 10-2 1-10-21 1 9-2 1-10-21 1 14-14-21 4 16z"/><path d="M647 315q52 52 105 100-52-46-105-100m56 82 34 4-10-37 10 38zm-15-14 34 5-11-38h1l10 38zm-16-15 35 6-11-38h1l10 38zm-11-11 31 2-7-34 7 35zm-11-11 31 2-7-34 7 35zm-8-16 31 11-13-34 13 34z"/><path fill="#006d00" d="m857 341-15 18h16l-23 11 12 3-25 6 13 4-25 5 12 4-29 8 12 4-29 7 12 4-29 7-15 2-6-2 2-8 11-12 22-26-5 15 22-26-5 15 22-27-5 16 17-24-4 15 17-25-5 16 20-20-9 19z"/><path fill="#fff" d="m857 342-13 16 14-1 1 3-20 10 9 2v2l-20 5 7 2v3l-20 4 7 3v2l-25 7 8 2v3l-25 6 8 3v2l-29 7-15 3-7-3 2-9 11-13 22-26 2 1-3 10 18-22 2 1-3 10 18-22 2 1-3 9 14-19 1 1-2 9 13-19 2 1-3 11 16-17 2 1-8 16 17-7zm-4 2-17 8 7-16-18 19 4-14-14 20-1-1 2-9-13 19-2-1 3-10-18 22-2-1 3-10-18 22-2-1 3-10-18 22-11 12-2 6 5 2 15-3 24-5-8-3 1-2 24-6-8-3 1-3 24-6-8-2 1-3 19-4-7-2v-3l20-5-11-3 22-10h-14z"/><path d="M857 341q-59 46-119 81 58-34 119-81m-84 35-18 35 33 4-33-3zm17-11-18 36 33 3-33-3zm17-11-18 36 33 2-33-2zm12-9-13 33 29 4v1l-29-4zm13-10-13 35 29 3h-1l-29-3zm15-4-20 32 31-5v1l-31 5z"/><path fill="#006d00" d="m854 493-18-4 6 17-17-17 3 15-15-22 3 14-15-22 3 15-19-26 2 15-18-26 2 15-18-26-10-14-1-7 7-2 14 4 30 8-14 4 30 6-14 4 30 6-13 5 25 2-13 5 25 2-13 6 22 6-17 3z"/><path fill="#fff" d="m854 495-16-4 5 14-2 2-14-14 2 10-2 2-12-18 2 9-2 1-12-17 2 8-2 2-16-22 2 10-2 1-16-22 2 10-2 1-19-26-10-14-1-9 8-2 15 4 29 7v3l-9 2 25 6v2l-9 3 25 5v2l-8 3 20 2v3l-8 3 20 1v3l-10 3 20 6-1 2-15 3 12 12zm-4-4-12-13 15-2-21-6 11-5-20-1v-3l8-3-20-2v-2l9-3-25-5v-3l9-3-25-5v-3l9-2-25-6-14-4-6 1 1 6 10 13 15 22-1-9 2-2 15 22-1-9 2-2 15 22-1-10 2-1 11 18-1-9 2-1 11 17-2-12 16 15-5-14z"/><path d="M854 494q-55-32-112-74 55 41 112 73zm-61-64-35 2 14 35h-1l-13-36zm16 10-35 3 14 35h-1l-13-35zm16 10-35 4 14 35h-1l-13-35zm12 8-31 7 10 31-1 1-9-33zm12 7-31 7 10 32h-1l-9-32zm9 11-32 1 16 29-16-29z"/><path fill="#006d00" d="m659 509 10-18-15 2 18-12-11-2 20-8-11-2 20-8-11-1 23-13-11-1 23-12-11-1 23-13 12-7 6 1-1 7-6 15-13 28 1-14-13 28 1-15-13 29 1-15-10 25 1-15-10 25 1-15-13 21 4-18z"/><path fill="#fff" d="m659 508 8-15-12 1-1-2 15-10-8-2-1-2 17-6-7-1v-3l16-6-7-1-1-3 20-10-7-1v-2l19-10-7-1v-2l23-13 12-7 7 1-1 9-6 14-13 29-2-1 1-9-11 24-2-1 1-10-11 24h-2l1-9-8 19h-2v-9l-7 19h-2l1-11-11 17-2-1 4-15-13 8zm3-3 13-8-3 15 12-19-1 13 8-20 2 1-1 9 8-20 2 1-1 10 11-24h2l-1 10 11-24 2 1-1 9 11-24 6-14 1-6h-5l-11 6-20 11 7 1 1 2-20 10 7 1 1 3-20 10 7 1v2l-16 7 7 1v2l-16 7 10 1-16 11 12-1z"/><path d="m659 509 85-95q-42 49-85 95m65-45 7-36-28 5 29-5zm-12 14 7-36-28 4 29-4zm-12 14 7-36-28 4v-1l29-4zm-9 10 4-33-25 1v-1h26zm-9 10 4-33h-25 26zm-12 6 10-32-26 7 27-8z"/><path fill="#006d00" d="m830 270-19 19-2-18-11 26-2-12-9 26-1-11-7 26-4-12-7 31-3-12-7 32-4-13-7 32-3 16 2 6 7-3 12-13 26-27-15 7 25-27-14 7 25-27-14 8 25-23-17 8 27-23-17 8 20-24-17 13z"/><path fill="#fff" d="m829 269-17 17-3-19-11 26-1-8h-2l-7 21-1-7-2 1-6 21-3-8-2 1-6 27-2-8h-3l-5 27-3-8h-2l-7 32-4 16 3 8 8-4 13-14 26-27-2-1-9 4 21-23-1-1-9 5 21-24-1-1-7 3 18-16v-2l-11 5 21-18v-2l-13 6 17-21-1-1-14 11 9-17zm-4 7-9 18 14-11-17 21 13-6-21 17 1 2 11-5-20 18 1 2 9-6-21 24 1 1 10-5-22 23 1 2 10-5-21 23-13 13-6 2-1-5 3-15 6-27 3 8h2l6-27 2 8 3-1 5-26 4 11 6-24 1 6 2-1 7-21 2 11 11-25 3 15z"/><path d="m822 280-26 33-51 93h1l50-93zm-37 87-29 20-2-29 2 29zm11-20-29 20-2-28h-1l3 29zm11-20-29 21-2-29h-1l2 29zm8-15-27 16-3-23 3 24zm10-15-29 16-1-22 1 23zm4-13-26 22 5-29h-1l-5 29z"/><path fill="#006d00" d="m731 245 8 25 11-13-2 27 7-9-4 27 6-9-5 26 9-8-9 31 9-8-8 31 9-9-8 31-4 16-5 4-5-7-5-19-10-37 10 15-11-38 10 15-10-38 9 15-12-33 12 16-15-33 12 15-8-31 10 21z"/><path fill="#fff" d="m732 245 8 23 11-15-2 27 5-6 2 2-3 21 3-5 2 2-4 21 6-5 2 1-7 27 5-6 2 2-7 27 6-6 2 2-8 31-4 16-6 5-6-9-5-19-10-37 2-1 6 10-9-32h2l6 9-8-31 1-1 5 7-9-24 1-1 8 9-12-26 2-1 9 12-7-27h2l8 16-1-19zm1 7v20l-8-16 7 26-10-12 12 26-2 1-8-11 10 27-1 1-7-10 9 32-2 1-6-10 9 32h-2l-6-9 8 31 5 19 4 5 4-3 4-15 7-27-6 6-2-2 7-26-6 5-2-2 7-26-8 8 5-24-3 4-2-1 3-22-6 8 1-27-9 12z"/><path d="m733 257 9 42 3 108-3-108zm-5 94 16 33 15-23h1l-16 24zm-1-23 17 33 15-23-15 24zm0-23 16 34 15-24v1l-15 23zm-2-17 17 28 13-18h1l-14 18zm-2-18 19 29 11-19-11 19zm2-13 15 32 8-27-8 28z"/><path fill="#006d00" d="m622 423 24-19-12-10 21 7-7-14 20 12-7-13 20 12-7-14 24 13-7-13 24 18-7-13 24 12 12 8 4 6-5 5-13 2-21 12 4-10-26 3 9-8-27 9 10-9-23 10 10-13-23 15 10-14-19 16 11-19z"/><path fill="#fff" d="m622 422 22-18-10-9v-2l19 6-8-15 20 12-7-13 20 12-7-13 25 13-6-10 2-2 20 15-7-12 28 13 12 9 4 8-6 5-13 3-23 12 4-11-24 4-1-3 5-4-21 7-1-2 3-3-15 6-1-2 5-8-17 12-2-2 4-5-11 9-1-2 8-15-19 8zm7-3 19-7-9 16 14-12 1 2-6 8 18-12 1 3-7 9 18-8 1 3-4 4 21-7 1 2-7 6 24-4-3 9 19-10 12-2 4-4-3-5-11-8-22-11 6 10-1 2-21-15 7 12-24-13 7 14-20-12 7 13-20-12 6 13-17-6 8 7z"/><path d="m630 418 24-12 13-1h11l19 3 17 2 34 5-34-5-17-2-19-2-10-1-14 1zm82 11 19-15-19-21 19 21zm-21-3 23-16-19-21v-1l19 22zm-15-2 21-16-19-20 19 20zm-28 2 19-21-15-13 16 13zm-9 1 15-21-12-7 13 7zm22-2 19-19-15-16 16 16z"/><path fill="#9d9d9d" d="m705 686 41-9 43 8-20 13-36 1z"/><path d="m705 686 41-9 44 8-21 13-36 1zm1 0 27 13 36-2 19-12-42-8q-19 6-40 9"/><path fill="#c00" d="M747 597c-8 3-15-5-28 8-1 0-22-14-24 16l4 9-2 3 1 2v3l-1 7 1 8 1 5 2 5v7l2 3c2 1 19 2 42 1 24 0 32 4 42-2q3-1 2-3v-5l3-8c1 0 4 3 2 0l2-18-1-4 1-2 1-12c-1-4-4-19-21-16 0 0-22-10-29-7"/><path d="M747 596q4-1 17 3l12 5q17-5 21 16l-1 12-1 2 1 1v3l-1 5v1l-1 11 1 1v1h-2l-1-1-1 4-2 4v5q1 3-2 4l-8 3-11-1h-23l-44-3v-2l-1-4v-3l-1-4-1-3v-3l-1-8v-5l1-2v-3h-1v-2l1-3h1l-1-1-4-8q1-19 13-20l12 3 11-7h9zm0 1-8 1h-9l-11 7-4-1-8-2q-11 1-12 19l2 5 2 3v-1h1v1l-1 2-1 2v2l1 2-1 3-1 5 1 8 2 5 1 5v7l1 1 2 2 12 1h52l10 1 9-3 1-3 1-5 2-8h2v-6l1-6v-1l2-6-1-1v-2l1-2v-12q-4-19-20-15l-12-5q-13-4-17-3"/><path fill="#f7d917" d="M718 616c-1 1-2 13-1 18l2 6q-2-5-6-6c-3 1-2 13-2 15 0-1 1-6 4-7l4 4v2l-1 8q-4 7-7 6l11-1 11-1q-3 1-8-5l-3-8v-1l4-5q4 3 5 6c0-2-2-14-5-14q-3 2-4 6v-6c0-5-3-17-4-17m1 24v2l1 4zm3 0-1 6zv1z"/><path d="m718 616 3 7 1 10v4q1-4 4-5l4 7 1 8h-1q-1-5-4-5t-4 4v1l1 2 2 6 4 4h4v1l-11 1-11 1 3-2 4-4 1-8v-1q-2-4-4-4-3 0-4 6v-8q0-7 2-7 3 0 5 4l-2-4v-11zm12 30v-2l-1-5-3-6q-3 0-4 7l-1-1 1-6-2-10-2-7-1 7v11l2 5v1h-1q-2-6-5-6-2 1-2 7v7q1-6 4-6 2 0 4 4l1 1v1l-1 2-1 6-4 5 8-1h8l-1-1-4-3-3-8v-2q1-5 4-5t4 5m-8-6v3l-1 3zm-3 0v1l1 2v2l-1-3z"/><path fill="#f7d917" d="m719 646 2-1 1 1 1 2h-2l-2 1z"/><path d="m719 646 2-1 1 1h1v3l-2-1-2 1zm0 1v1l2-1 1 1v-2h-1z"/><path fill="#f7d917" d="m774 616-4 17 1 7q-1-5-5-7c-3 0-4 12-4 14q0-3 5-5 3 1 4 5v1l-3 8q-6 5-8 4l11 1 11 1q-3 1-7-6l-2-8v-1q2-4 5-4 4 3 4 6c0-1 0-13-3-15l-5 6 2-6zm-3 24v6zm3 0-1 7zl-1 1z"/><path d="m774 616 2 7v11l-1 4q2-4 4-4 2 1 3 8v8-1q-1-6-4-6-2 0-5 4v1l1 2 1 6 4 5 3 1v1l-11-2-11-1 4-1 4-3 2-8v-1h1l-4-5q-2 0-5 5v-3l1-5 3-6q3 0 4 5v-5l1-10zm8 32v-6q-1-7-3-7t-5 5l2-6-1-10-1-8-3 7-1 10 1 6v1q-2-7-5-7l-3 6-1 5v2q2-5 5-5l4 5v2l-1 2-2 6-4 4h-2l9 1 9 1-1-1q-3-1-4-4l-2-9v-1q2-4 5-4t4 5m-8-8-1 4v3h-1l1-3zm-3 0v4l1 2-1 1z"/><path fill="#f7d917" d="M770 646h2l2 1v2l-2-1-2 1z"/><path d="M770 646h2l2 1v2l-2-1-2 1zm0 1v1h2l2 1v-2l-2-1z"/><path fill="#f7d917" d="m698 637 4-7q0 1 0 0c-9-16-9-25-9-30q2-6 9-15c5-5 9-2 14-2l11 2 16 2v-4q-9 0-16-2l-13-2h-11l-10 11a31 31 0 0 0 0 30l3 9q-1 5 2 8"/><path d="M698 638v-2l-4-15q-3-7-3-14v-8l3-8 10-11 3-1h4l4 1 13 2 8 1 8 1v4a157 157 0 0 1-36-5q-2 0-5 3-6 7-8 16-3 10 8 29v1zm4-8q-10-19-9-30 2-8 9-15 3-3 5-3h5l4 1 7 1 4 1 16 2v-4l-8-1-8-1-13-2h-4q-4-1-7 1l-9 10q-3 3-3 8l-1 8q1 7 4 13l2 8v2l1 6 1 2z"/><path fill="#f7d917" d="m794 636-4-7q0 1 0 0c9-16 9-25 9-30q-2-6-9-15c-5-5-9-2-14-2l-11 3-16 2v-4l16-2 13-3q7-2 11 1l10 10q3 7 3 16 0 7-3 13l-3 10q1 5-2 8"/><path d="m794 636-4-6v-1q11-19 8-30-2-7-8-15l-5-3-5 1-4 1-7 1-4 1-16 2v-4l8-1 8-1 13-3h4l4-1 3 1 10 11 3 7v9q0 7-3 14l-2 6-1 3-1 6zm-4-7 4 7 1-2 7-29-1-8q0-5-3-8l-9-10q-2-2-7-1l-4 1-13 2-8 1-8 1v4a153 153 0 0 0 36-6q3 0 5 3 7 8 9 15 1 11-9 30"/><path fill="#f7d917" d="M739 579h15v44h-15z"/><path d="M738 579h16v44h-16zm1 1v43h15v-43z"/><path fill="#f7d917" d="m741 541 3 4 2 5-4-2-3-5v17l3-4 4-3-1 5-4 9h9l-2-9-1-5 4 3 3 4v-17l-3 4-4 3 2-5 3-4z"/><path d="M740 541h13-1l-5 9 7-7v17l-3-4-4-3 1 5 3 9v1l-10-1 4-14-6 7v-17l3 4 3 3-2-5zm1 0 5 9v1l-7-7v15l3-3 4-4v1l-1 5-4 9h9l-2-9-1-5v-1l7 7v-15l-3 4-4 3v-1l2-5 3-4z"/><path fill="#f7d917" d="M754 570q0 10-8 10-6-1-7-10 1-9 7-11 8 1 8 11"/><path d="M754 570q0 4-2 7t-6 3q-2 1-5-3-2-3-2-7-1-5 2-8t5-3q4 0 6 3 3 3 2 8m0 0-2-8q-2-3-6-3-2 0-5 3l-2 8 2 7q2 3 5 3 4 0 6-3z"/><path fill="#f7d917" d="M739 571h15l-1-5h-4v-6h-5v6h-5z"/><path d="M739 571v-5h5v-7h5v7l4-1v1q2 1 1 5zm0 0h15l-1-5h-4l-1-6h-4v6h-5z"/><path fill="#f7d917" d="m737 622 5 7 3 9-6-5-6-7v27l6-7 6-5-3 9-5 7h19l-5-7-3-9 6 5 6 7v-27l-6 7-6 5 3-9 5-8z"/><path d="M736 621h21l-1 1-8 15 11-11 1-1v28h-1l-5-7-6-4 4 8 4 7h1-21l9-15-11 11-1 1v-29l1 1 5 7 6 4-4-8zm1 1 8 16-11-11v25l5-6 6-5-3 9-5 7h19a39 39 0 0 1-8-16h-1 1l11 11v-26l-5 7-6 5h-1 1l3-9 5-7z"/><path fill="#f7d917" d="m699 667 10-2-6-6-5-9 7 4 6 6-3-27-5 8-5 6 2-10 4-8-10 2z"/><path d="m699 667-5-36 11-2-1 1-6 16 10-13v-1l3 28-6-6-7-3 5 7 6 6v1zm0-1 9-1-5-6-5-8v-1a31 31 0 0 1 13 9l-3-25-4 7-6 6h-1l3-10 4-7-9 2z"/><path fill="#f7d917" d="m789 628 4 8 2 10-5-6-5-8-3 27 6-6 7-4-5 9-6 6 10 1 5-35z"/><path d="m788 628 11 2-5 36-10-2a36 36 0 0 0 10-14l-12 9v1l3-28 5 8 5 5-2-9zm1 1 6 17h1-1l-10-13-3 25 6-5 7-4-5 9-5 6 9 1 4-35z"/><path fill="#f7d917" d="M699 665v20s24-10 48-10c23 0 47 9 47 9v-20s-24-9-48-9c-23 1-47 10-47 10"/><path d="M699 665a137 137 0 0 1 47-10 132 132 0 0 1 48 9v20a145 145 0 0 0-47-9 130 130 0 0 0-48 10zm0 0v19a141 141 0 0 1 48-10 132 132 0 0 1 47 9v-19a142 142 0 0 0-48-9 131 131 0 0 0-47 10"/><path fill="#fff" d="m697 627-2 4h-4l-1-4 1-5 4 1z"/><path d="m697 627-2 5-4-1-2-4 2-5h4zm0 0-2-4h-4l-1 4 1 4h4z"/><path fill="#fff" d="m692 616-2 4h-3l-2-5 2-4h3z"/><path d="M692 616q1 3-2 4h-3q-2-2-2-5-1-3 2-4h3q2 1 2 5m0 0-2-5h-3l-2 4 2 4 3 1z"/><path fill="#fff" d="m691 602-2 5-3-1-2-4 2-4h3z"/><path d="M691 602q0 3-2 5h-3q-3-2-2-5 0-3 2-5 1-1 3 1 3 1 2 4m0 0-2-4h-3l-2 4 2 4h3z"/><path fill="#fff" d="m694 590-2 4h-3q-2-1-2-4-1-3 2-4h3z"/><path d="M694 590q0 3-2 5-1 1-4-1l-1-4 1-5h4q3 3 2 5m0 0-2-4h-3l-2 4 2 4h3z"/><path fill="#fff" d="m700 580-2 5-3-1-2-4 2-4h3z"/><path d="M700 580q0 3-2 5h-3q-3-2-2-5l2-5 3 1q2 1 2 4m0 0-2-4h-3l-2 4 2 4h3z"/><path fill="#fff" d="m709 574-2 4h-4l-2-5 2-4h4z"/><path d="m709 574-2 4h-4l-2-5 2-4h4zm-1 0-1-4-4-1-1 4 1 4 4 1z"/><path fill="#fff" d="m718 575-2 4h-4l-1-4 1-5h4z"/><path d="m718 575-2 4h-4l-2-4q0-4 2-5h4zm0 0-2-4h-3q-2 1-2 4l2 4h3z"/><path fill="#fff" d="M727 577q0 3-2 4h-3l-2-4 2-4h3q2 1 2 4"/><path d="m727 577-1 5h-4l-2-5 2-5q2-3 4 1zm0 0-2-4h-3l-2 4 2 4h3z"/><path fill="#fff" d="m737 579-2 4h-4l-2-5 2-4h4z"/><path d="m737 579-2 4h-4q-2-1-2-5l2-4h4q2 1 2 5m-1 0-1-5h-4l-1 4 1 5h4z"/><path fill="#fff" d="m795 626 2 4h4l1-5-1-4q-3-1-4 1z"/><path d="m795 626 2 4h4l2-5-2-4h-4zm0 0 2-4 4-1 1 4-1 5h-4z"/><path fill="#fff" d="m800 614 2 4h3l2-4-2-5-3 1z"/><path d="M800 614q-1 3 2 5 2 2 3-1 3-1 2-4 1-4-2-5-1-2-3 1-2 1-2 4m0 0 2-4h3l2 4-2 4h-3z"/><path fill="#fff" d="m801 601 2 4h3l2-5-2-4q-2-1-3 1z"/><path d="M801 601q0 3 2 4h3q3-2 2-5 0-3-2-4h-3q-3 3-2 5m0 0 2-4 3-1 2 4-2 5h-3z"/><path fill="#fff" d="m798 589 2 4h3q2-2 2-5 1-3-2-4h-3z"/><path d="M798 589q0 3 2 4h4l1-5-1-4h-4q-3 2-2 5m0 0 2-4 3-1 2 4-2 5h-3z"/><path fill="#fff" d="m792 579 2 5 3-1 2-4-2-4h-3z"/><path d="M792 579q0 3 2 5t3-1q3-1 2-4 0-3-2-5-1-1-3 1-2 1-2 4m0 0 2-4h3l2 4-2 4h-3z"/><path fill="#fff" d="m783 573 2 4h4l2-5-2-4h-4z"/><path d="m783 573 2 4h4l2-5-2-4h-4zm1 0 1-4 4-1 1 4-1 5h-4z"/><path fill="#fff" d="m774 574 2 4h4l1-4-1-4h-4z"/><path d="m774 574 2 5h4l2-5-2-5q-3-1-4 1zm0 0 2-4h3q3 1 2 4 0 3-2 4h-3z"/><path fill="#fff" d="M765 577q0 3 2 4h3l2-5-2-4h-3q-2 2-2 5"/><path d="m765 577 1 4h4q2-1 2-5 1-3-2-4h-4zm0 0 2-4h3l2 3-2 5h-3z"/><path fill="#fff" d="m755 578 2 5h4l2-5-2-4h-4z"/><path d="m755 578 2 5h4l2-5-2-4h-4zm1 0 1-4h4l1 4-1 4h-4z"/><path fill="#fff" d="m750 617-2 4h-3l-2-4 2-4h3z"/><path d="M750 617q1 3-2 5h-3q-3-2-2-5l2-5h3q3 3 2 5m0 0-2-4h-3l-2 4 2 4h3z"/><path fill="#fff" d="m750 608-2 5h-3l-2-5 2-4h3z"/><path d="M750 608q1 3-2 5h-3q-3-2-2-5 0-3 2-4h3q3 1 2 4m0 0-2-4h-3l-2 4 2 4h3z"/><path fill="#fff" d="m750 601-2 4-3 1-2-5 2-4h3z"/><path d="M750 601q1 3-2 5h-3q-3-2-2-5 0-3 2-4h3q3 1 2 4m0 0-2-4h-3l-2 4 2 4h3z"/><path fill="#fff" d="m750 595-2 4h-3l-2-4 2-5h3z"/><path d="M750 595q1 3-2 4h-3q-3-1-2-4 0-3 2-5h3q3 2 2 5m0 0-2-4h-3l-2 4 2 4h3z"/><path fill="#fff" d="m750 574-2 4-3 1-2-5 2-4h3z"/><path d="M750 574q1 3-2 5h-3q-3-2-2-5 0-3 2-4h3q3 1 2 4m0 0-2-4h-3l-2 4 2 4h3z"/><path fill="#fff" d="m750 575-2 4h-3l-2-4 2-4h3z"/><path d="M750 575q1 3-2 5h-3q-3-2-2-5l2-5h3q3 3 2 5m0 0-2-4h-3l-2 4 2 4h3z"/><path fill="#fff" d="m750 580-2 4h-3l-2-4 2-5h3z"/><path d="M750 580q1 3-2 4h-3q-3-1-2-4 0-3 2-5h3q3 1 2 5m0 0-2-4h-3l-2 4 2 4h3z"/><path fill="#fff" d="m750 586-2 4h-3l-2-4 2-4h3z"/><path d="M750 586q1 3-2 4h-3q-3-1-2-4 0-3 2-5h3q3 2 2 5m0 0-2-4h-3l-2 4 2 4h3z"/><path fill="#fff" d="M751 638q0 6-5 7-3-1-4-7 1-5 4-6 5 1 5 6"/><path d="m751 638-1 5-4 2-3-2-1-5 1-4q2-3 3-2 3-1 4 2zm0 0-1-4-4-2-3 2-1 4 1 5 3 1 4-1z"/><path fill="#fff" d="M702 649q0 6-4 6-5-1-5-6 0-6 5-7 3 1 4 7"/><path d="m703 649-2 5-3 2-4-3-1-4 1-5 4-2 3 2zm-1 0-1-4q-1-2-3-2l-4 1-1 5 1 4 4 2 3-2z"/><path fill="#fff" d="M800 647q-1 6-5 7-4 0-5-6 1-6 5-7 4 1 5 6"/><path d="m800 647-1 5-4 2-3-1-2-5 2-5 3-2 4 2zm-1 0-1-4-3-1-3 2-1 4 1 4 3 2 3-2z"/><path fill="#002b7f" d="M740 660h14v8l-14 1z"/><path d="M740 660h14v9h-14zm0 0v8h14v-8z"/><path fill="#3e8225" d="M763 666q0 5 6 5t7-4q-1-3-7-5-6 0-6 4"/><path d="m762 666 3 4 4 2 5-1 2-4-2-4-5-1q-3-1-5 1zm1 0 2-3 4-1 5 2 1 3-1 3-5 1-4-2z"/><path fill="#c00" d="m699 670-4 5 5 3 9-3-1-8z"/><path d="m699 670 9-3 2 8-10 4-5-4zm0 0-3 5 4 3 9-3-2-7z"/><path fill="#c00" d="m795 669 3 4-4 4-10-3 2-8z"/><path d="m795 669 4 4-5 4-10-3 2-8zm0 0-9-2-1 7 9 3 4-4z"/><path fill="#3e8225" d="M731 666q-1 4-6 6-6 0-7-4 1-5 7-6 6 1 6 4"/><path d="M731 666q1 3-2 4l-4 2-5-1-2-3 2-4 5-2 4 1q3 1 2 3m0 0-2-2-4-1-5 2-2 3 2 3h5q2 1 4-2z"/><path fill="#fff" d="m737 661-2 2-2-2q0-3 2-3z"/><path d="m737 661-1 1-1 1-2-1v-3l2-1 1 1zm-1 0v-2l-1-1-1 1-1 2 2 2z"/><path fill="#fff" d="M737 668q0 3-2 3l-1-3 1-2z"/><path d="M737 668v2l-2 1-1-1-1-2 1-1 1-1 2 1zm0 0-1-1-1-1-1 1v1l1 3q2 0 2-3"/><path fill="#fff" d="m714 666-1 2-2-2q0-3 2-3z"/><path d="M714 666v2h-1l-2-1v-3l2-1 1 1zm0 0v-2l-1-1-2 1v2q0 2 2 2z"/><path fill="#fff" d="m717 673-2 2-2-2 2-2z"/><path d="m717 673-1 2-1 1-2-1v-4l2-1 1 1zm-1 0v-2h-2l-1 2q0 3 2 2z"/><path fill="#fff" d="M757 660q0 3 2 3t2-3l-2-2z"/><path d="m757 660 1 2 1 1 1-1 1-2-1-2h-1l-1 1zm0 0 1-1 1-1 1 1 1 1q0 3-2 3t-2-3"/><path fill="#fff" d="m757 668 1 3q2-1 2-3l-2-2z"/><path d="m756 668 1 2 1 1 2-1v-4h-3zm1 0v-1l1-1 2 1v1q1 2-2 2z"/><path fill="#fff" d="m779 665 2 2 2-2q0-2-2-3z"/><path d="m779 665 1 2 1 1 2-1v-4l-2-1-1 1zm1 0v-2h2l1 2-2 2z"/><path fill="#fff" d="M777 672q0 3 2 3t2-3l-2-2z"/><path d="m777 672 1 2 1 1 1-1 1-2-1-2h-1l-1 1zm0 0 1-1 1-1 1 1 1 1q0 2-2 3-2 0-2-3"/><path fill="#fff" d="m783 699 11-5q-3-5-1-4 1-1-1-6a106 106 0 0 1-92 0q-2 5-1 8v2c3 4 10 6 12 6 6 2 12 5 35 5 22-1 30-4 37-6"/><path d="m783 699-3 1a113 113 0 0 1-56 4l-11-3h-3q-8-3-11-6l-1-4 2-7h1a100 100 0 0 0 45 10 108 108 0 0 0 45-11h1l2 5-1 1v1l1 3 1 1h-1l-6 3zm0-1 11-5-2-3v-1h1v-1l-2-4q-6 4-17 7a108 108 0 0 1-73-6q-2 2-2 6v3q3 3 11 6h1l2 1a96 96 0 0 0 33 3 128 128 0 0 0 34-5z"/><path fill="#fff" d="m710 679-12 6c0 1-1 7 1 10 7-3 27-11 48-12 22 0 40 8 47 11q2-7 1-10l-12-5c-6-2-13-6-36-6-21 0-31 5-37 6"/><path d="m710 679 5-1 12-4a114 114 0 0 1 62 6l6 3v2q1 7-1 9l-2-1-18-6-27-3q-20 0-47 11h-1q-2-2-1-9v-2l6-3zm0 1-6 2-6 3v2l1 7h1q27-11 47-11l27 3 18 6 2 1 1-7v-2l-6-3-11-3a85 85 0 0 0-31-5 114 114 0 0 0-37 7m-6 6-1 1-1-1zm0 1h-1l-1-1h1v-1zm-1 1h-1v-1zm0 1v-2h1zm1 0v1h-1zm0 1v-1h2zm-1-2 5-3-2 2h1l-1 1h3zm0 0 5-3-1 2h1l-1 1h2zm3-1-1 1zm16-7h1zm0 1v-2h1l1 1zm0 1h-1v-1zm0 1h-1l-1-1 1-1 1 1zm-1-1q1 0 0 0m2 2v-2h1v2m-2-3 5-3-2 2h1l-1 1h2zm0 0 5-3v1l-1 1v1h1v1zm24-5v-1q0-1 0 0zm-1 1 1-1h1zm0 1v-2zm-1 1-1-1 1-1h1zm0-1q0-1 0 0m2 2v-1h1zm0 0h-1l-1-1 1-1 1 1zm0-1v1zm-1-1 5-2-2 2h1l-1 1h2zm0-1 5-1 1 1-2 1v1h1v1l-5-2zm3 1h-2zm19 3v2h1zm0-1-1 1h1zm0-1h-1l-1 1 1 1zm1 0v1zm0-1h-1l-1 1 1 1h1zm-1 2 5 3-3-2h2l-1-1h2zm0 1 5 3v-1l-1-1v-1h1v-1h-5zm19 7v-1h-1zm0-1v2h1zm0-1-1 1h2m-2-2v1h1zm2 0v-1h-1v1zm0-1h-2l1 1h1zm0 1v-1zm-1 1 5 3-3-2h2l-1-1h2zm0 0 5 3v-1l-1-1v-1h1v-1zm2 1"/></svg>