<svg xmlns="http://www.w3.org/2000/svg" viewBox="0 0 1000 1000"><path fill="#da0000" d="M8 195c171-85 341-54 513-28 155 24 312 45 471-34v672c-171 85-341 54-513 28-155-24-312-45-471 34z"/><path fill="#fff" d="M8 195c171-85 341-54 513-28 155 24 312 45 471-34v448c-171 85-341 54-513 28-155-24-312-45-471 34z"/><path fill="#239f40" d="M8 195c171-85 341-54 513-28 155 24 312 45 471-34v224c-171 85-341 54-513 28-155-24-312-45-471 34z"/><path fill="#fff" d="m78 380-13 5v-16l17-6v-11l5-1v21l4-1v-21l4-2v21l5-1v-21l4-1v26l-22 7v-11l-13 5v5l9-3zm-57 22v-15l22-10v11l13-6v-5l-9 4v-6l13-5v16l-21 9v-11l-14 6v10zm0-26 57-22v5q-28 9-57 23zm9 17 4-2v6l-4 1zm-9 15 39-17v11l-39 16zm44-18 39-13v11l-39 12zM21 632l39-17v11l-39 16zm44-18 39-13v11l-39 12zm13 37-13 5v-16l17-6v-10l5-2v21l4-1v-21l4-1v20l5-1v-21l4-1v26l-22 7v-11l-13 5v5l9-3zm-57 23v-16l22-10v11l13-5v-6l-9 4v-6l13-5v16l-21 9v-11l-14 6v10zm0-27 57-22v5q-28 9-57 23zm9 17 4-2v6l-4 2zm135-304-13 2v-16l18-3v-10l4-1v21h5v-21l4-1v21l4-1v-20l5-1v26l-22 3v-11l-13 2v6l8-2zm-56 11v-16l21-5v11l14-3v-5l-9 1v-5l13-2v15l-22 5v-11l-13 3v11zm0-26q27-7 56-12v6q-27 3-56 11zm8 19 5-1v5l-5 1zm-8 12 39-8v10l-39 9zm43-9 40-6v11l-40 5zm-43 233 39-8v10l-39 9zm43-9 40-6v11l-40 5zm13 40-13 2v-16l18-3v-10l4-1v21h5v-21l4-1v21h4v-21l5-1v26l-22 3v-11l-13 2v6l8-2zm-56 11v-16l21-5v11l14-3v-5l-9 2v-6l13-2v15l-22 5v-11l-13 4v10zm0-26q27-7 56-12v6q-27 3-56 11zm8 19 5-1v5l-5 1zm136-282h-13v-16h17v-10h5v21h4v-21h4v21h5v-21h4v26h-22v-11l-13 1v5h9zm-57 3v-16l22-2v11l13-1v-5h-9v-5h13v15l-21 1v-10l-14 1v10zm0-26 57-3v5l-57 3zm9 20 4-1v6h-4zm-9 11 39-2v10l-39 3zm44-3h39v11h-39zm-44 227 39-2v10l-39 3zm44-3h39v11h-39zm13 42h-13v-15l17-1v-10h5v21h4v-21h4v21h5v-21h4v26h-22v-11l-13 1v5h9zm-57 3v-16l22-2v11l13-1v-5h-9v-5h13v15l-21 1v-10l-14 1v10zm0-26 57-3v5l-57 3zm9 20h4v5h-4zm135-264-13-2v-15l18 1v-10h4v21h4v-20h5v21h4v-21l5 1v26l-22-2v-11l-13-1v6h8zm-56-4v-15h21v11l14 1v-6h-9v-5h13v16l-22-1v-11h-13v10zm0-26 56 3v6l-56-4zm8 21h5v6l-5-1zm-8 10 39 2v11l-39-2zm43 3 40 3v11l-40-4zm-43 221 39 2v11l-39-2zm43 3 40 3v11l-40-4zm13 43-13-2v-15l18 1v-10h4v21l4 1v-21h5v21h4v-21l5 1v26l-22-2v-11l-13-1v6h8zm-56-4v-15h21v11l14 1v-6h-9v-5l13 1v15l-22-1v-11h-13v10zm0-26 56 3v6l-56-4zm8 21h5v6h-5zm136-252-13-2v-16l17 3v-11l5 1v21h4v-21l4 1v21l5 1v-21h4v27l-22-4v-10l-13-2v5l9 1zm-57-7v-16l22 2v11l13 2v-6l-9-1v-5l13 2v15l-22-2v-11l-13-1v10zm0-27 57 8v5l-57-7zm9 22 4 1v5h-4zm-9 10 39 5v10l-39-5zm44 5 39 6v10l-39-5zm-44 219 39 5v10l-39-5zm44 5 39 6v10l-39-5zm13 44-13-2v-16l17 3v-11l5 1v21h4v-20h4v21l5 1v-21h4v27l-22-4v-10l-13-2v5l9 2zm-57-7v-16l22 2v11l13 2v-6l-9-1v-5l13 2v15l-22-2v-11l-13-1v10zm0-27 57 8v5l-57-7zm9 22 4 1v5h-4zm135-246-13-2v-16l18 3v-11l4 1v21l4 1v-21h5v21l4 1v-21l5 1v26l-22-3v-11l-13-2v5l8 2zm-57-9v-15l22 3v10l13 2v-5l-8-1v-5l13 2v15l-22-3v-11l-13-2v11zm0-26 57 9v5l-57-9zm9 22 5 1v5h-5zm-9 9 40 6v11l-40-6zm44 7 40 6v11l-40-6zm-44 217 40 6v11l-40-6zm44 7 40 6v11l-40-6zm13 44-13-2v-16l18 3v-11l4 1v21l4 1v-21l5 1v20l4 1v-21l5 1v26l-22-3v-11l-13-2v5l8 2zm-57-9v-15l22 3v10l13 2v-5l-8-1v-5l13 2v15l-22-3v-11l-13-2v11zm0-26 57 9v5l-57-9zm9 22 5 1v5h-5zm136-246-13-1v-16l17 2v-10h5v21l4 1v-21h4v21l5 1v-21h4v27l-22-3v-10l-13-2v5l9 1zm-57-7v-16l22 3v11l13 1v-5l-9-1v-5l13 2v15l-22-3v-10l-13-2v10zm0-27 57 8v6l-57-8zm9 23h4v6l-4-1zm-9 9 39 5v11l-39-6zm44 6 39 5v10l-39-5zm-44 218 39 5v11l-39-6zm44 6 39 5v10l-39-5zm13 44-13-2v-16l17 2v-10h5v21l4 1v-21l4 1v20l5 1v-21h4v27l-22-3v-10l-13-2v5l9 1zm-57-8v-16l22 3v11l13 1v-5l-9-1v-5l13 2v15l-22-3v-10l-13-2v10zm0-27 57 8v6l-57-8zm9 23h4v6l-4-1zm135-251-13-1v-16l18 1v-10h4v21h4v-21h5v21l4 1v-21h4v26l-21-1v-10l-14-1v5l9 1zm-57-5v-16l22 3v10l13 1v-5l-8-1v-5l13 1v16l-22-2v-11l-13-1v11zm0-26 57 5v5l-57-5zm9 22h5v5h-5zm-9 9 40 4v10l-40-3zm44 4 39 2v11l-39-2zm-44 220 40 4v10l-40-3zm44 4 39 2v11l-39-2zm13 43-13-1v-16l18 1v-10h4v21h4v-21l5 1v20l4 1v-21h4v26l-21-1v-10l-14-1v5l9 1zm-57-5v-16l22 3v10l13 1v-5l-8-1v-5l13 1v16l-22-2v-11l-13-1v11zm0-26 57 5v5l-57-5zm9 22h5v5h-5zm136-262-13 1v-16l17-1v-10h4v20h5v-21h4v21l5-1v-20l4-1v26l-22 2v-10h-13v5h9zm-57 1v-16l22 1v10h13v-5h-9v-5l13-1v16h-22v-10h-13v10zm0-26 57-1v5q-28 2-57 1zm9 21h4v5h-4zm-9 10h39v11h-39zm44 0 39-2v10l-39 2zm-44 224h39v11h-39zm44 0 39-2v10l-39 2zm13 41-13 1v-16l17-1v-10h4v21l5-1v-21h4v21l5-1v-20l4-1v26l-22 2v-10h-13v5h9zm-57 1v-16l22 1v10h13v-5h-9v-5l13-1v16h-22v-10h-13v10zm0-26 57-1v5q-28 2-57 1zm9 21h4v5h-4zm135-278-13 3v-16l18-3v-11l4-1v21l4-1v-21l5-1v21l4-1v-21l4-1v26l-21 5v-10l-14 2v6l9-2zm-57 9v-16l22-2v10l13-2v-5l-8 1v-5l13-2v15l-22 4v-11l-13 2v10zm0-26 57-9v5q-28 6-57 9zm9 20 4-1v5l-4 1zm-9 11 40-5v10l-40 6zm44-6 39-9v11l-39 8zm-44 230 40-5v10l-40 6zm44-6 39-9v11l-39 8zm13 39-13 3v-16l18-3v-11l4-1v21l4-1v-21l5-1v21l4-1v-21l4-1v26l-21 5v-10l-14 2v6l9-2zm-57 9v-16l22-2v10l13-2v-5l-8 1v-5l13-2v16l-22 3v-11l-13 2v10zm0-26 57-9v5q-28 6-57 9zm9 20 4-1v5l-4 1zm136-300-13 5v-16l17-6v-11l4-2v21l5-2v-21l4-2v21l5-2v-20l4-2v26l-22 9v-10l-13 5v5l9-3zm-57 19v-16l22-6v10l13-4v-5l-9 3v-6l13-4v16l-22 7v-11l-13 4v11zm0-26q28-7 57-19v5q-28 12-57 19zm9 18 4-1v5l-4 1zm-9 13 39-12v10l-39 13zm44-14 39-16v10l-39 17zm-44 238 39-12v10l-39 13zm44-14 39-16v10l-39 17zm13 37-13 5v-16l17-6v-11l4-2v21l5-2v-21l4-1v20l5-2v-20l4-2v26l-22 9v-10l-13 5v5l9-3zm-57 19v-16l22-6v10l13-4v-5l-9 3v-6l13-4v16l-22 7v-11l-13 4v11zm0-26q28-7 57-19v5q-28 12-57 19zm9 18 4-1v5l-4 2z"/><path fill="#da0000" d="M461 564c30 16 61 6 76-23 15-30 9-70-14-98 15 29 16 63 3 89a58 58 0 0 1-65 32m82-2c19-10 30-34 27-60-3-27-19-50-40-60q23 25 27 60t-14 60m-43 22-4-85 4-65q3 6 8 9v50l-3 83zm-1-156 1 2q5 9 13 6 7-4 5-15-2 8-8 8-7 0-10-7zm40 148c-30 7-61-13-76-47s-9-73 14-93a97 97 0 0 0-3 88c13 29 38 49 65 52m-82-27a80 80 0 0 1-27-68c3-26 19-44 40-48a75 75 0 0 0-27 52q-3 33 14 64m43 35 4-83-4-67-8 7v49l3 84zm1-155-1 1q-5 7-13 2-7-6-5-16 2 8 8 10 7 3 10-4z"/></svg>