<svg xmlns="http://www.w3.org/2000/svg" viewBox="0 0 1000 1000"><path fill="#da0000" d="M8 195.3c170.8-85.3 341-54.5 513.3-28C676.5 191 833.4 211.8 992 132.7v672c-170.8 85.3-341 54.5-513.3 28C323.5 809 166.6 788.1 8 867.2z"/><path fill="#fff" d="M8 195.3c170.8-85.3 341-54.5 513.3-28C676.5 191 833.4 211.8 992 132.7v448c-170.8 85.3-341 54.5-513.3 28C323.5 585 166.6 564.1 8 643.2z"/><path fill="#239f40" d="M8 195.3c170.8-85.3 341-54.5 513.3-28C676.5 191 833.4 211.8 992 132.7v224c-170.8 85.3-341 54.5-513.3 28C323.5 361 166.6 340.1 8 419.3z"/><path fill="#fff" d="m78 380-13.1 4.5v-15.7l17.4-5.9v-10.4l4.4-1.4v21l4.4-1.4v-21l4.4-1.2v20.9l4.3-1.2v-21l4.4-1.1v26q-10.7 3-21.8 6.5v-10.5l-13.2 4.4v5.2l8.8-3zm-57 22.5v-15.7q10.7-5 21.9-9.6v10.5l13.1-5.2v-5.2l-8.7 3.4v-5.3l13-5v15.7a537 537 0 0 0-21.8 8.6v-10.5l-13 5.8v10.5zm0-26.2A517 517 0 0 1 78 354v5.2a517 517 0 0 0-57 22.4zm8.8 17 4.3-2v5.3l-4.3 1.9zM21 407.7q19.4-9 39.4-16.4v10.5A524 524 0 0 0 21 418zm43.8-18q19.4-6.9 39.3-12.3V388a524 524 0 0 0-39.4 12.3zM21 631.7q19.4-9 39.4-16.4v10.5A524 524 0 0 0 21 642zm43.8-18q19.4-6.9 39.3-12.3V612a524 524 0 0 0-39.4 12.3zm13 37.3-13 4.5V640l17.4-6v-10.4l4.4-1.4v21l4.4-1.4v-20.9l4.4-1.3v21l4.3-1.3v-20.9l4.4-1.2v26.1q-10.7 2.9-21.8 6.4v-10.4l-13.2 4.3v5.3l8.8-3zM21 673.5v-15.7q10.8-5 21.9-9.5v10.4l13.1-5.2v-5.2l-8.7 3.4v-5.2l13-5V657a537 537 0 0 0-21.8 8.6v-10.4l-13 5.8v10.5zm0-26.1a517 517 0 0 1 57-22.5v5.2a517 517 0 0 0-57 22.5zm8.8 16.9 4.3-2v5.3l-4.3 2zm135.5-304.8-13 2.1V346l17.4-2.7v-10.4l4.4-.6V353l4.4-.6v-20.9l4.3-.5v21l4.4-.5v-21l4.4-.4v26.1l-21.9 2.7v-10.5l-13.1 2v5.3l8.7-1.4zM108.6 371v-15.6q10.7-2.9 21.9-5.2v10.4l13-2.6v-5.3l-8.7 1.8v-5.3l13.1-2.5v15.7q-10.7 2-21.8 4.4v-10.4l-13.1 3V370zm0-26.1q28-7.2 56.8-11.5v5.2a547 547 0 0 0-56.8 11.5zm8.7 18.7 4.4-1v5.2l-4.4 1zm-8.7 12.7q19.4-5.1 39.4-8.7v10.5q-19.4 3.4-39.4 8.6zm43.7-9.5q19.4-3.3 39.4-5.3v10.4q-19.4 2-39.4 5.4zm-43.7 233.5q19.4-5 39.4-8.7v10.5q-19.4 3.5-39.4 8.6zm43.7-9.4q19.4-3.4 39.4-5.4v10.4q-19.4 2-39.4 5.4zm13.1 39.7-13 2V617l17.4-2.7v-10.5l4.4-.6v21l4.4-.7v-20.9l4.3-.5v21l4.4-.6v-20.9l4.4-.4v26l-21.9 2.7v-10.4l-13.1 2v5.2l8.7-1.4zM108.6 642v-15.7q10.7-2.8 21.9-5.2v10.5l13-2.7v-5.2l-8.7 1.7v-5.2l13.1-2.5v15.6q-10.7 2-21.8 4.4v-10.4l-13.1 3.1V641zm0-26.2q28-7.2 56.8-11.5v5.3a547 547 0 0 0-56.8 11.5zm8.7 18.8 4.4-1v5.2l-4.4 1zM253 352.9l-13.1.3v-15.7l17.5-.3v-10.5h4.3v21h4.4v-21h4.4v21h4.4V327h4.3v26.2l-21.8-.2v-10.5l-13.1.2v5.2l8.7-.1zm-56.9 3V340l22-1.7V349l13-.7V343l-8.7.4v-5.2l13.1-.6v15.7l-21.9 1.1V344l-13 1v10.4zm0-26.2a681 681 0 0 1 57-3v5.3c-18.9.2-37.6 1-57 3zm8.8 20.1 4.4-.3v5.2l-4.4.4zm-8.7 11.2q19.4-1.8 39.3-2.5V369q-19.4.6-39.3 2.5zm43.7-2.6q19.4-.6 39.4-.1v10.5q-19.4-.5-39.4 0zM196 585q19.4-1.8 39.3-2.5V593q-19.4.6-39.3 2.5zm43.7-2.6q19.4-.6 39.4-.1v10.5q-19.4-.4-39.4 0zm13.1 41.5-13.1.3v-15.7l17.5-.3v-10.4h4.3v20.9h4.4v-21l4.4.1v21h4.4v-21l4.3.2v26l-21.8-.2v-10.4l-13.1.1v5.2h8.7zm-56.9 3v-15.7l22-1.7v10.4l13-.6V614l-8.7.5v-5.3l13.1-.6v15.7l-21.8 1.1V615l-13.2 1v10.5zm0-26.2a681 681 0 0 1 57-2.9v5.2a650 650 0 0 0-57 3zm8.8 20.2 4.4-.4v5.2l-4.4.4zm135.6-264.4-13.1-1v-15.7l17.4 1.4v-10.5l4.4.5V352l4.4.4v-21l4.4.5v20.9l4.3.5v-21l4.4.5V359l-21.9-2.1v-10.5l-13-1v5.2l8.7.7zm-56.9-3.3v-15.7l21.9.9v10.4l13.1.8v-5.2l-8.7-.6v-5.2l13 .9V355l-21.8-1.3v-10.4l-13.1-.5v10.4zm0-26.1a931 931 0 0 1 56.9 3.3v5.2a991 991 0 0 0-56.9-3.3zm8.8 21.1 4.3.2v5.3l-4.3-.2zm-8.8 10.2q19.4.5 39.4 2v10.4a944 944 0 0 0-39.4-2zm43.7 2.3 39.4 3.6v10.4l-39.4-3.6zm-43.7 221.7q19.4.6 39.4 2v10.4a944 944 0 0 0-39.4-2zm43.7 2.3 39.4 3.6v10.4l-39.4-3.6zm13.2 42.8-13.1-1v-15.7l17.4 1.5v-10.5l4.4.4V623l4.4.4v-20.9l4.4.4v21l4.3.4v-21l4.4.5V630l-21.9-2.2v-10.4l-13-1.1v5.2l8.7.7zm-56.9-3.3v-15.7l21.9 1v10.4l13.1.8v-5.3l-8.7-.5v-5.2l13 .8v15.7l-21.8-1.3v-10.5L288 614v10.5zm0-26.1q28 .8 56.9 3.3v5.2a1000 1000 0 0 0-56.9-3.3zm8.8 21.2 4.3.2v5.2l-4.3-.2zm135.5-252.6-13-1.8v-15.7l17.4 2.4v-10.4l4.4.6v21l4.4.6v-21l4.3.7V364l4.4.7v-21l4.4.7v26.1l-21.9-3.2V357l-13.1-1.9v5.3l8.7 1.2zm-56.8-7.2v-15.7l21.8 2.6v10.4l13.2 1.7v-5.2l-8.8-1.1v-5.3l13.1 1.7v15.7l-21.8-2.8v-10.4l-13.1-1.6V360zm0-26.1 56.8 7.2v5.2l-56.8-7.2zm8.7 21.9 4.4.5v5.2l-4.4-.5zm-8.7 9.4 39.4 4.8V380l-39.4-4.8zm43.7 5.4 39.4 5.6v10.5l-39.4-5.6zM371 588.7l39.4 4.8V604l-39.4-4.8zm43.7 5.4 39.4 5.6v10.5l-39.4-5.6zm13.1 43.6-13-1.8v-15.6l17.4 2.4v-10.5l4.4.7v20.9l4.4.6v-20.9l4.3.6v21l4.4.6v-21l4.4.7v26.2l-21.9-3.2v-10.5l-13.1-1.8v5.2l8.7 1.2zm-56.8-7.2V615l21.8 2.5V628l13.2 1.7v-5.3l-8.8-1.1V618l13.1 1.7v15.7l-21.8-2.8V622l-13.1-1.5V631zm0-26 56.8 7.1v5.2l-56.8-7.2zm8.7 21.8 4.4.5v5.2l-4.4-.5zM515.3 380l-13.1-2v-15.7l17.5 2.7v-10.4l4.3.6v21l4.4.6v-21l4.4.8v20.9l4.4.6v-20.9l4.3.7V384l-21.8-3.3V370l-13.1-2v5.2l8.7 1.4zm-56.9-8.7v-15.7l22 3.3v10.5l13 2v-5.2l-8.7-1.4v-5.2l13.1 2v15.7l-21.9-3.4v-10.4l-13-2v10.4zm0-26.1 57 8.7v5.2l-57-8.7zm8.8 22.2 4.4.6v5.3l-4.4-.7zm-8.7 9.1 39.3 6V393l-39.4-6zm43.7 6.7 39.4 6v10.5l-39.4-6zm-43.7 217.3 39.3 6V617l-39.4-6zm43.7 6.7 39.4 6v10.5l-39.4-6zm13.1 43.9-13.1-2v-15.7l17.5 2.7v-10.5l4.3.7V647l4.4.6v-20.9l4.4.7v21l4.4.6v-21l4.3.7V655l-21.8-3.3v-10.4l-13.1-2v5.2l8.7 1.3zm-56.9-8.8v-15.7l22 3.4v10.4l13 2v-5.2l-8.7-1.3v-5.3l13.1 2v15.8l-21.9-3.4v-10.5l-13-2V643zm0-26.1 57 8.7v5.3l-57-8.8zm8.8 22.2 4.4.7v5.2l-4.4-.7zm135.6-245.8-13.1-1.7V375l17.4 2.3v-10.5l4.4.5v21l4.4.5v-21l4.4.6v20.9l4.3.5v-21l4.4.6v26l-21.9-2.5v-10.4l-13-1.7v5.2l8.7 1.1zm-56.9-8V369l21.9 3.2v10.4l13.1 1.9V379l-8.7-1.2v-5.2l13 1.8v15.7l-21.8-3v-10.5l-13.1-2v10.5zm0-26 56.9 7.8v5.3l-56.9-8zm8.8 22.1 4.3.7v5.2l-4.3-.6zm-8.8 9.2 39.4 5.6V406l-39.4-5.6zm43.7 6.2 39.4 4.8v10.5l-39.4-4.8zM546 613.8l39.4 5.6V630l-39.4-5.6zm43.7 6.2 39.4 4.8v10.5l-39.4-4.8zm13.2 43.5-13.1-1.7v-15.7l17.4 2.3v-10.5l4.4.6v20.9l4.4.5v-21l4.4.6v21l4.3.4V640l4.4.5v26.1l-21.9-2.5v-10.5l-13-1.7v5.3l8.7 1zm-56.9-7.9V640l21.9 3.2v10.5l13.1 1.8v-5.2l-8.7-1.2v-5.3l13 1.9v15.6l-21.8-3v-10.5l-13.1-1.9v10.5zm0-26.1 56.9 7.9v5.2l-56.9-7.9zm8.8 22.2 4.3.6v5.2l-4.3-.6zm135.5-251-13-.7v-15.7l17.4 1V375l4.4.2v21l4.4.1v-20.9l4.3.2v20.9l4.4.2v-21l4.4.2V402l-21.9-.9v-10.4l-13.1-.8v5.2l8.7.6zm-56.8-4.6v-15.7l21.9 2.1V393l13 1v-5l-8.7-.8V383l13.1 1v15.7l-21.8-1.8v-10.5l-13.1-1.2v10.4zm0-26.2q28 3 56.8 4.8v5.2a1155 1155 0 0 1-56.8-4.7zm8.7 21.8 4.4.5v5.2l-4.4-.4zm-8.7 9.6 39.4 3.6v10.4l-39.4-3.6zm43.7 3.9q19.4 1.4 39.4 2v10.4q-19.4-.6-39.4-2zm-43.7 220 39.4 3.7v10.4l-39.4-3.6zm43.7 4q19.4 1.4 39.4 2v10.4q-19.4-.6-39.4-2zm13.1 42.6-13-.8v-15.7l17.4 1V646l4.4.3V667l4.4.2v-21l4.3.2v21h4.4v-20.8l4.4.1V673l-21.9-1v-10.4l-13.1-.8v5.3l8.7.5zm-56.8-4.7v-15.7l21.9 2.2V664l13 1.1V660l-8.7-.7V654l13.1 1v15.7l-21.8-1.9v-10.4l-13.1-1.3v10.5zm0-26.1q28 3 56.8 4.7v5.2a1155 1155 0 0 1-56.8-4.7zm8.7 21.8 4.4.4v5.2l-4.4-.4zm135.6-261.6-13.1.6v-15.7l17.5-.8v-10.5l4.4-.2v20.9l4.3-.3v-21l4.4-.3v21l4.4-.4v-21l4.4-.4v26.2l-22 1.7v-10.5l-13 .7v5.2l8.7-.4zm-56.9.8v-15.7l22 .3V397l13-.2v-5.2l-8.7.1v-5.2l13.1-.2v15.6l-21.9.3v-10.4l-13-.1V402zm0-26.1q28 .6 57-.8v5.2c-18.9 1-37.6 1.3-57 .8zm8.8 21h4.4v5.3h-4.4zm-8.7 10.4q19.4.3 39.3-.1v10.4q-19.4.6-39.4.1zm43.7-.3q19.4-.6 39.4-2.5V415a671 671 0 0 1-39.4 2.5zM721 631.3q19.4.3 39.3-.1v10.4q-19.4.6-39.4.1zm43.7-.3q19.4-.6 39.4-2.5V639a671 671 0 0 1-39.4 2.5zm13.1 41.3-13.1.5v-15.6l17.5-.9V646l4.4-.3v21l4.3-.4v-21l4.4-.2V666l4.4-.4v-21l4.4-.3v26.1l-22 1.7v-10.4l-13 .6v5.2l8.7-.4zm-56.9.8v-15.7l22 .2V668l13-.1v-5.3l-8.7.2v-5.2l13.1-.3V673l-21.9.3v-10.5l-13-.1v10.4zm0-26.2q28 .7 57-.8v5.3c-18.9 1-37.6 1.2-57 .8zm8.8 21 4.4.1v5.3h-4.4zm135.6-277.7-13.2 2.5V377l17.5-3.4V363l4.4-1v21l4.4-1v-21l4.4-1v21l4.3-1.2V359l4.4-1v26a558 558 0 0 1-21.9 5.2v-10.4l-13 2.6v5.3l8.7-1.8zm-56.9 8.6v-15.6q10.7-1.1 21.9-2.7V391l13.1-2v-5.2l-8.7 1.3V380l13-2.1v15.7q-10.7 1.8-21.8 3.3v-10.5l-13.1 1.6v10.5zm0-26q28-2.9 56.9-8.8v5.3a576 576 0 0 1-56.9 8.6zm8.8 19.9 4.3-.6v5.3l-4.3.5zm-8.8 11.4q19.4-2 39.4-5.4v10.5a595 595 0 0 1-39.4 5.3zm43.8-6.2q19.4-3.4 39.3-8.6v10.4a539 539 0 0 1-39.3 8.7zm-43.8 230.2q19.4-2 39.4-5.4v10.5a595 595 0 0 1-39.4 5.3zm43.8-6.2q19.4-3.4 39.3-8.6v10.4a539 539 0 0 1-39.3 8.7zm13 39.3-13 2.5V648l17.4-3.4v-10.4l4.4-1V654l4.4-1v-21l4.4-1v21l4.3-1.1v-21l4.4-1V655a558 558 0 0 1-21.9 5.2v-10.5l-13 2.7v5.2l8.7-1.7zm-56.8 8.7v-15.7q10.7-1 21.9-2.6V662l13.1-2v-5.2l-8.7 1.4v-5.3l13-2v15.6q-10.7 1.8-21.8 3.3v-10.4l-13.1 1.6v10.4zm0-26.1q28-3 56.9-8.7v5.2a576 576 0 0 1-56.9 8.7zm8.8 19.9 4.3-.5v5.2l-4.3.5zM952.6 364l-13 5v-15.7q8.5-3.1 17.4-6.8v-10.4l4.4-1.9v21l4.4-2v-20.8l4.3-2v21l4.4-2v-20.9l4.4-2v26.1q-10.7 5.1-21.9 9.6v-10.4l-13.1 5.1v5.3l8.7-3.4zm-56.8 18.9v-15.7q10.7-2.9 21.9-6.4v10.5l13-4.4v-5.2l-8.7 3v-5.3l13.1-4.5v15.7a533 533 0 0 1-21.8 7.3v-10.5l-13.1 3.8v10.5zm0-26.1a516 516 0 0 0 56.8-19v5.3a516 516 0 0 1-56.8 18.9zm8.7 18.4 4.4-1.2v5.2l-4.4 1.3zm-8.7 13q19.4-5.3 39.4-12.4v10.5q-19.4 6.9-39.4 12.3zm43.7-14Q959 367.1 979 358v10.4q-19.4 9-39.4 16.4zm-43.7 238q19.4-5.3 39.4-12.4v10.5q-19.4 6.9-39.4 12.3zm43.7-14Q959 591.1 979 582v10.4q-19.4 9-39.4 16.4zm13.1 36.8-13 5v-15.6l17.4-6.8V607l4.4-1.8v20.9l4.4-1.9v-20.9l4.3-1.9v21l4.4-2v-21l4.4-2v26.2q-10.7 5-21.9 9.5v-10.4l-13 5.3v5.2l8.7-3.4zm-56.8 19v-15.7q10.7-2.9 21.9-6.4v10.4l13-4.3v-5.3l-8.7 3v-5.2l13.1-4.5v15.6a533 533 0 0 1-21.8 7.3v-10.4l-13.1 3.8v10.4zm0-26.2a516 516 0 0 0 56.8-19v5.3a516 516 0 0 1-56.8 19zm8.7 18.5 4.4-1.3v5.2l-4.4 1.3z"/><path fill="#da0000" d="M461.5 564.3a53.2 53.2 0 0 0 75.7-23.6c14.8-30 9-70.2-14.1-97.8 14.8 28.9 16 62.7 3 88.7-13.3 25.8-37.8 38.1-64.6 32.7"/><path fill="#da0000" d="M543.5 562.2c19-10.5 29.2-34 26.3-60.6-3.3-26.5-18.8-49.4-40.2-59.3 15 15.9 24.7 37 27.4 59.6a89 89 0 0 1-13.5 60.3M500 584l-3.5-84.5 3.5-65.6q3.3 5.8 8.3 9.6v49.4l-2.8 83zm-1.4-155.6 1.4 1.8c3.3 5.6 8.3 7.7 13.1 5.7 4.6-2.6 6.4-8.2 4.6-14.4q-1.6 7.1-7.8 8-6.3-.2-9.9-7.2z"/><path fill="#da0000" d="M538.5 576.2c-29.3 6.6-60.4-12.8-75.7-47-14.8-34.3-9-72.9 14.1-93.4-14.8 24.3-16 57.8-3 87.7 13.3 29.8 37.9 50 64.6 52.7"/><path fill="#da0000" d="M456.5 548.9a80 80 0 0 1-26.3-68.3c3.3-25.7 18.8-44 40.2-47.4a75 75 0 0 0-27.4 51.4 106 106 0 0 0 13.5 64.3M500 584l3.5-83.5L500 434q-3.4 4.8-8.3 7v49.4l2.8 83.9zm1.4-155.2-1.4 1.4c-3.3 4.5-8.3 5.2-13.1 1.6-4.6-4-6.4-10.1-4.6-15.8q1.6 7.6 7.8 10.3 6.4 2 9.9-4z"/><path fill="#1a1a1a" d="M8 195.3c170.8-85.3 341-54.5 513.3-28C676.5 191 833.4 211.8 992 132.7v672c-170.8 85.3-341 54.5-513.3 28C323.5 809 166.6 788.1 8 867.2zm31.3 19.3v604.5c306.5-128.2 611.1 96 921.5-33.7V180.9C654.2 309 349.5 84.9 39.3 214.6" opacity=".2"/></svg>