<svg xmlns="http://www.w3.org/2000/svg" viewBox="0 0 1000 1000"><path fill="#fff" d="M8 195c171-85 341-54 513-28 155 24 312 45 471-34v672c-171 85-341 54-513 28-155-24-312-45-471 34z"/><path fill="#df112d" d="M8 195q31-15 64-26c141 48 282 165 428 287 141-74 283-148 428-297q31-10 64-26v43a1361 1361 0 0 1-428 334c141 116 283 225 428 251v44q-31 15-64 26c-141-48-282-165-428-287-141 74-283 148-428 297q-31 10-64 26v-43c141-167 283-255 428-334C295 374 153 266 8 239z"/><path fill="#e8112d" d="M552 272c12 61 5 131-52 163-57-49-64-122-51-178 14-12 74-11 103 15"/><path d="M552 272q25 121-52 163-76-66-52-178l1-1q10-10 46-6 37 4 57 22m-1 1a95 95 0 0 0-56-23q-34-3-46 7-26 113 51 177 77-42 51-161"/><path fill="#f9dd16" d="M500 253q33 6 52 22 4-30 20-52-14-2-15 10c-3-9-11-10-15-6 11 11 3 23-7 19q-7-3-8-11 5 0 5-5 0-6-4-7-5-2-6 3t3 8q-6 7-13 4-7-5-7-13c0-12 10-12 13-10 0-8-11-16-15-10q7-12-3-27-10 12-3 26c-4-7-15-2-15 6 3-2 13 2 13 14q0 8-7 10-6 1-13-8 5-1 3-7-2-5-6-5t-4 6 5 6q-1 8-8 9c-10 1-18-14-7-21-4-5-12-6-15 1q-1-10-15-14 16 27 20 58 19-10 52-6"/><path d="M500 253q-31-5-52 7v-1q-3-28-20-58 8 1 11 5 4 4 4 8 1-4 7-4t8 4q-7 6-4 14 4 9 11 7 6-1 8-9-5-1-5-6 0-6 4-6 6-1 7 5t-3 7q4 9 12 8 7-1 7-10 0-8-6-12-4-3-7-2h-1 1q0-7 6-9 4-2 7 1-5-15 5-24 10 12 5 25 3-2 7 2 6 4 7 11h-1q-3-3-7-1-6 3-6 10 0 10 7 13 8 3 12-4-3-3-3-8 1-6 7-4 4 2 4 8 1 5-5 5 2 8 8 11 7 3 11-4 3-7-4-15 3-3 8-2 6 2 7 6l4-7q3-3 11-2v1q-17 24-20 52v1-1q-21-17-52-22m0 0q31 4 52 22 3-28 19-52-6-1-10 2-3 2-3 8h-1q-1-6-7-7-6-2-7 1 8 8 3 15-3 8-11 4-7-3-8-11v-1q4 1 5-5 1-5-5-6-4-1-5 3-2 5 3 8-4 8-13 4-7-3-7-13 0-8 5-10 5-3 8 0 0-6-6-10t-8 0h-1q8-13-3-27-10 10-3 26h-1q-2-4-8-3-6 3-6 8l8 2q5 4 5 13 0 8-7 11-9 1-13-9 5-1 3-7-1-4-5-5-5 1-5 6 1 4 5 6-1 9-8 10-8 0-11-8-4-9 3-14-1-3-7-4-6 0-7 5h-1l-3-9q-4-4-10-4 16 29 19 57 21-12 52-6"/><path fill="#f9dd16" d="m543 317-1 2q4 0 5-3v3q4-2 3-5l2 2q0-3-3-7 2 0 3 3 0-4-3-7h2q-2-2-1-4 0-3-3-2h-7q-6 0-11-5 9 4 12-5-1-8-16-8c-11 1-23-2-23-6s8-3 14-2q5 4 16 0-5 1-14-2c-6-3-19-5-20 3 1 9 15 10 28 10q10 0 11 4-3 4-12 1-8-2-17-1l-14-1q-6 1-13-8c-2 1-8 4-9 7q-1 5 2 9 2 5-4 3-6 0-11-5-4-6-8-4-1 2 1 2l3 1h-4q0 2 2 3 1-2 4 1h-4l2 2 5 2-3 1 7 2-2 2c2-1 11 4 12-1v4l7-4-1 3q2 1 5-3l1-3q3 1 5-2c2-1 3 2 6 1l6-1h12q5 5 20 5 10 1 9 6 0 4-2 3l-7-2v5h3q-2 0-2 3h3q2-3 4-2"/><path d="M543 317q-3 0-4 2l-2 1-1-1v-3h-1l-1-2 1-1-1-1 1-2 3 1 4 1q2 1 2-2l-2-4-6-2q-11 1-20-4l-1-1-4 1h-20l-4 1-1 3q-4 5-6 3h-1 1l1-2-5 3h-2v-3q-1 3-7 1h-6v-1l2-2-2-1-4-1v1-1l1-1-1-1-2-1-2-1v-2h3-3l-2-1v-2l2-1h-1l-1-1v-2q4-2 8 5 3 4 11 5h4v-1l-1-2q-3-5-1-9 1-3 7-6l2-1v-1 1q4 8 13 8h7l7 1q8-2 17 1l8 1 4-2-3-3-8-1-19-1q-9-3-9-9t8-6l12 2a24 24 0 0 0 14 3l1 1h-1q-9 2-16-1l-9-1q-6 0-5 3 0 3 7 4 9 2 16 1l12 2q4 3 4 7t-4 6l-6 1 9 3h9l1 2 1 4h1-1l-1 1 3 6h-1l-2-2 1 3 2 3v1h-1l-2-2v2l-3 2h-1 1v-1l-5 1-1-1h1zm0 0-1 1 5-1v-1l1 1h-1v2l2-2 1-2v-1l2 2-1-3-2-4h-1 1l3 1-3-5h2l-2-4v-1h-2l-7-1q-8-1-11-4v-1q4 3 7 0 4-2 4-5 0-4-3-6-4-2-12-2l-16-1q-7-2-8-5 1-3 6-4l9 2 11 1-9-3q-6-3-12-2-7 0-7 5-1 6 8 8l19 2 8 1q3 0 3 3 0 2-4 2l-8-1-17-1h-7l-7-1q-9 1-13-8l-2 1-7 6q-1 4 2 9l1 2-1 2h-3l-1-1q-8 0-11-5-4-6-7-4l-1 1 1 1 3 1h1l-1 1-3-1-1 2h2l4 1 1 1h-4l-1 1h2l2 2 3 1-2 1 3 1 3 1v1l-2 1h5q7 2 7-1h1l-1 3h1q4 0 6-3v-1 4q2 0 4-4l1-2v-1q3 1 5-1h20l4-1 2 1q8 6 18 5 6-1 8 2l2 4q-1 3-3 3l-4-2h-3v2h1l-1 1v2l3-1v1l-2 1v2h3z"/><path fill="#f9dd16" d="M469 269q-4-3-3 1l2 4z"/><path d="m470 269-1 5v1h-1l-2-7 1-1zm-1 0-3-1v2l1 4q0-4 2-5"/><path fill="#f9dd16" d="M480 271q4-2 4 2l-2 4z"/><path d="M480 270h3l1 1v2l-2 4h-1zm0 1q2 1 2 5l2-5-1-1z"/><path fill="#f9dd16" d="M475 268q8 2 7 9l-4 8q-1 2-3 2-3 0-4-3l-4-10q-1-7 8-6"/><path d="m481 271 1 6-1 4-2 4q-1 3-4 2-4 0-4-3l-2-5-2-5 1-5q2-2 7-2zm-6-3-6 1-1 5 1 4 2 6q0 2 4 2 3 1 3-1l2-5 1-3-1-6z"/><path fill="#f9dd16" d="m458 282-3-1q1 3 7 7l-3-1q2 3 9 5 3 2-1 1c2 2 5 1 8 5 0-3-4-8-2-11-7-2-8-5-11-9q-4-4-5-12-2-4-4-3-2 0-1 2l3 3q-3-3-4-1-2 1 1 2l2 5q-3-4-4-2t1 2z"/><path d="m460 287-3-3-2-2-1-1h3l-3-3-3-4-2-1v-1l3-1 1 1v-1l-1-2-2-1 1-2h2l1 1-1-1-1-1v-2l1-1 2 1 2 3 1 3 4 8 3 4q3 5 8 6-2 1 1 7l1 4v1l-1-1-4-3-3-2h2-1l-9-6zm-2-5h-3l2 1 5 4v1h-2l8 4h1l1 1h-1v1h1l4 3-1-3-1-7-8-6-2-3-5-9v-3l-2-2-2-1-1 1v1h1l2 3v1l-2-2h-2v1l1 1 1 2 1 2 1 1h-1v-1l-2-1h-2v1l1 1 3 4z"/><path fill="#f9dd16" d="M511 311q-1 2-3 2 5 1 7-1l-1 2h8q2 1 3-2 1-1-1-4l-1-6c-6-9-16-7-16-3 3 6 4 5 7 6q5 2 3 4l-6-1c-6-1-8-5-9-3q-3 2 2 3-4-1-4 1c1 3 3 0 5 1l-3 1q1 4 5 1z"/><path d="m510 312-3 1h-3l-2-2h-1l-1-2 1-2h1-1v-2h4l6 3h6v-1l-2-1h-1l-1-1q-3-1-7-6 1-3 7-4 6 1 10 7l1 6v1q3 1 1 3v1q-1 2-3 1h-8v1-2l-6 1v-1zm1 0h-1l-1 1 6-1-1 2h8q2 1 3-2l-1-3q-2-3-1-7-4-6-10-6t-6 3l6 6h1l1 1 3 1v1l-1 1h-4l-2-1-6-2-3-1-1 1 1 1h1l1 1h-3v2h4l1 1h-3v1l1 1 3-1z"/><path fill="#f9dd16" d="m515 299-6-2z"/><path d="m515 299-6-2z"/><path fill="#f9dd16" d="M487 293q-2 6-1 8z"/><path d="m487 293-1 7 1 1h-1v-8z"/><path fill="#f9dd16" d="M470 273q1-1 3 1h-2z"/><path d="M470 273h1l3 1h-3 2l-2-1z"/><path fill="#f9dd16" d="M479 274h-3q-1 1 2 1z"/><path d="M479 274h-3l2 1h-2l-1-1z"/><path fill="#f9dd16" d="M476 274v2q1 4-1 4-3-1-1-5l-1-1z"/><path d="M476 275v3l-1 1-2-1v-4l1-1h-1 1v3l-1 2 2 1 1-1-1-2z"/><path fill="#ff0016" d="M475 286q2 1 2-3l1-3q-2 2-3 0-3 2-4-1l1 3q0 3 3 4"/><path d="m475 286-2-1-1-3v-1l-1-2h1v1l1 1h1v-1h1v1h2l1-1-1 2v4zm0-1h1l1-2v-1l1-1-2 1-1-1h-2l-1-1v2l1 3zm-2-5-4-2zm0 0-5-1zm0 0-4 1zm3 0 4-1v1zm0 0 5 1zm0 1 4 1v1z"/><path fill="#0051ba" d="M453 263q-3-2-4 1l4 1z"/><path d="M453 263v1l-2-1h-2q-1-2 2-2zm0 0-2-1-2 2h2l2 1z"/><path fill="#0051ba" d="M452 267q-3-2-5 1h4z"/><path d="m452 267-1 1-1-1h-3l2-2q2-1 3 1m0 0q-1-2-3-1l-2 2h5z"/><path fill="#0051ba" d="M451 272q-3-3-4 2h3z"/><path d="M451 272v1l-1 1h-3l1-3zm0 0-3-1-1 3h3l1-1z"/><path fill="#0051ba" d="M452 289q-3-2-3 2h3z"/><path d="m452 289-1 1h-3q-1-2 1-2zm0 0h-2q-2 0-1 2h3z"/><path fill="#0051ba" d="M452 292q-3 0-3 4l4-1z"/><path d="m452 292 1 1v2h-2l-2 1 1-3zm0 0-2 1-1 3 2-1h2v-1z"/><path fill="#0051ba" d="M455 296q-4-1-3 3l3-1z"/><path d="M455 295v3h-1l-2 1v-3zm0 1h-3v3l2-1h1z"/><path fill="#0051ba" d="M502 308q-4-1-3 4 1-2 3-2z"/><path d="M502 308v2l-1 1-2 1v-3zm0 0-3 1v3l2-1 1-1z"/><path fill="#0051ba" d="M504 311q-3 0-2 4 1-2 3-2z"/><path d="M504 311v1l-2 1-1 1v-3zm0 0-2 1v3l1-1 1-1z"/><path fill="#0051ba" d="M502 305q-3-1-3 3 1-2 3-1z"/><path d="m502 305-1 1h-1l-2 1 1-3zm0 0h-2l-1 2h3z"/><path fill="#0051ba" d="M536 314q-4 1-3 4l3-2z"/><path d="M536 314v2l-1 1-2 1v-3zm0 0-3 1v3l2-1 1-1z"/><path fill="#0051ba" d="M536 311q-4-1-3 3 1-2 3-1z"/><path d="M536 311v1h-1l-2 1v-3zm0 0h-3v3l2-1h1z"/><path fill="#0051ba" d="M537 317q-3 1-2 4l3-2z"/><path d="m537 317 1 1v1l-1 1-2 1v1-4zm0 0-2 1v3l2-1 1-1v-1z"/><path fill="#0051ba" d="m475 284 1 3-1 7q-2 0-2-6v-3z"/><path d="M475 284v8l-1 1-1-1-1-4v-5h2m0 0h-2v2l1 2v5l1 1 1-1v-7z"/><path fill="#f9dd16" d="m538 364-2 1q4 1 5-2v3q3-2 2-4l3 1-3-6 3 2-3-6h2q-3-1-2-4l-2-1h-6l-11-4q9 2 11-5 1-8-14-8c-10 1-20-2-21-5 1-4 8-3 12-2q6 4 16 1l-14-3c-5-2-16-4-17 3 0 8 13 9 24 9q10 0 11 4-2 3-11 1-7-3-15-1l-13-1q-6 1-11-7l-9 6q-1 4 2 8 2 5-4 3-5-1-9-5-4-5-7-4-1 2 1 2l2 2h-3l1 2q1-2 3 1h-2q-2 1 1 1l4 2-2 1 6 3-2 1c2-1 10 3 11 0v3l6-4v3q1 1 4-3l1-3 4-1h16q2 1 6-1 5 5 18 5 9 0 8 6 0 3-2 2l-6-2v5h3q-3 0-2 2 0 2 2 1 2-3 5-2"/><path d="M537 364q-1-1-3 2l-2 1-1-2v-2h-1l-1-1 1-1-1-2 1-1h2l4 2q2 0 2-2l-1-4-7-1a31 31 0 0 1-18-5h-12l-4 1-4-1h-1q-2 2-5 1v3q-3 5-5 3h-1l1-1v-1l-5 3h-1v-3q-1 2-6 1h-5v-1l1-1-2-1-3-1h-1l1-1 1-1h-1l-2-1-2-1v-2h3-3l-2-1 1-2h1l-2-1 1-2q3-2 7 4 3 4 9 5h4v-1l-1-2q-3-5-1-8 1-3 7-6l1-1h1q3 8 11 8h6l7 1q7-2 15 1h7l3-1q0-2-2-3l-7-1-17-1q-9-2-8-8 0-5 7-5 6 0 11 2l12 3 1-1v1h-16l-7-2q-5 1-5 3t7 4l14 1q6 0 11 2 3 2 3 6 0 3-3 5l-6 1 9 2 6 1h2v2l2 3-1 1 2 5h-1l-2-2 2 4 1 2v1-1h-2l-1 1-2 2h-1l1-1v-1l-5 2v-1zm1 0-1 1h-1l5-1v-1 2l2-1v-3l2 2-1-2-1-4-1-1 1 1 2 1-2-5h1l-1-4-1-1h-7q-8-1-11-4v-1q4 3 7 1 4-2 4-5 0-4-4-6l-10-2q-7 1-14-1-7-1-7-4t5-3l8 1 10 1-9-3-10-2q-6 1-7 5 1 6 8 7l16 2 8 1q3 0 3 3 0 2-4 2l-7-1q-7-2-15-1h-7l-6-1q-7 0-12-7l-1 1q-6 3-6 5-2 3 1 8l1 2-1 1h-4q-6-1-10-5-3-6-6-3v1h1l2 1v1h-3v1h1l4 1v1h-3v1h1l2 1 2 1v1h-1l2 1 3 1v1l-2 1h5q6 2 6-1h1l-1 3h1q4-1 5-3l1-1v1l-1 3q3 0 4-3l1-3 4-1h18l4-1 1 1q9 4 17 4 4 0 7 2l2 4q-1 3-3 2l-4-1-2-1v2l1 1h-1v2l2-1h1v1l-2 1v1l1 1 1-1q3-3 5-2z"/><path fill="#f9dd16" d="M471 321q-4-3-4 1l2 4z"/><path d="m471 321-2 5-2-6 1-1zm-1 0-2-1v2l1 3z"/><path fill="#f9dd16" d="M480 322q4-2 4 2l-2 3z"/><path d="m480 322 3-1 1 1v2l-2 4v-1zm1 0 1 5 2-5z"/><path fill="#f9dd16" d="M476 320q7 1 6 7c0 5-2 3-3 8q-2 3-3 2l-4-3c-1-5-3-4-3-9q-1-6 7-5"/><path d="m481 322 1 5-1 4-2 4q0 3-3 2-4 0-4-3l-2-5-1-4 1-4q2-2 6-2zm-5-2q-4-1-6 1l-1 4 1 4 2 5 4 2q2 1 3-1l2-4 1-4-1-4q-2-3-5-3"/><path fill="#f9dd16" d="M461 332h-3l6 5h-2q2 3 8 5h-1c2 2 4 1 7 5 0-3-4-7-2-10q-7-3-10-9-3-3-4-10l-4-3v2l2 3-4-2 1 3 2 4q-3-3-4-2l1 2z"/><path d="m463 337-4-3-1-2h-1 2l-2-3-3-3-1-1v-2h3v-1l-1-1-1-1v-2h2l1 1-1-1-1-1v-1l1-1h2l2 3 1 2 3 8 3 3q3 5 7 5v1q-1 1 1 6l1 4v1l-1-1-4-3-2-2h2-1q-5-1-8-5h-1zm-2-5h-2l2 2 4 3v1h-1v-1q3 4 7 4l1 1v1h-1 2l3 3-1-3-1-6-7-5-2-3q-3-3-4-9v-2l-2-2-2-1-1 1 1 1 2 3v1-1l-2-1h-2v1h1l1 2 1 2 1 1h-1l-2-2h-2v1l1 1 3 3z"/><path fill="#f9dd16" d="m508 359-2 2 6-2-1 2h7q2 1 3-1 1-3-1-4l-1-5c-6-9-14-7-15-3 4 5 4 4 7 5q5 1 3 3h-6l-8-3q-1 2 2 3-3-2-3 1c1 3 3 0 4 1l-2 1q0 2 4 1z"/><path d="m507 359-2 1h-3l-2-1 1-1h-1l-1-1q-1-2 1-2l-1-1 1-1h3l7 3h3l1-1-2-1h-1l-1-1q-3 0-6-5 0-3 6-4 6 1 9 7l1 5q3 3 1 4-1 3-3 1-4-2-7 1v-2l-5 1v-1zm1 0 4-1h1v1l-1 1h7l3-1v-1l-1-2v-1l-1-5q-4-6-9-6t-5 3l5 5h1l1 1 2 1 1 1h-7l-5-2-3-1v2h2v1h-2l-1 1 1 1h3v1-1h-1l-1 1 1 1 2-1z"/><path fill="#f9dd16" d="m512 347-5-1z"/><path d="m512 348-5-2z"/><path fill="#f9dd16" d="M486 342v7z"/><path d="m487 343-1 5v1-7z"/><path fill="#f9dd16" d="m472 324 3 1z"/><path d="m472 324 2 1h-3zh1z"/><path fill="#f9dd16" d="M479 325h-2l1 1z"/><path d="m480 326-2-1h-1l1 1h1-2l-1-1h3z"/><path fill="#f9dd16" d="m477 325-1 2v3q-3 0-1-4v-1z"/><path d="M477 326v3l-1 1-2-1v-4h1l-1-1h1v3l-1 2h3l-1-2z"/><path fill="#ff0016" d="M476 336q2 1 2-3v-2q0 2-2 0-2 2-3-1v3q0 2 3 3"/><path d="m476 336-2-1-1-2v-3 1h3l1 1 1-1h1l-1 1v1l-1 3zm0-1h1l1-2v-1h-2v-1l-1 1-1-1h-1v2l1 2zm-2-5-4-1zm0 1-4-1zm0 0-3 1v-1zm3 0 4-1zm0 0h4v1zm0 0 3 2z"/><path fill="#0051ba" d="M456 315q-2-2-3 1l3 1z"/><path d="M456 315v2l-1-1h-2l1-2zm0 0-2-1-1 2h2l1 1z"/><path fill="#0051ba" d="M455 318q-3-1-4 2h3z"/><path d="M455 318v2h-4l2-2zm0 0h-2l-2 1 2 1h2z"/><path fill="#0051ba" d="M454 323q-2-1-3 2h3z"/><path d="M454 323v2h-3l1-2zm0 0h-2l-1 2h3z"/><path fill="#0051ba" d="M456 338q-3-1-4 3l3-1z"/><path d="M456 338v2h-2l-2 1 1-3zm0 0h-3l-1 2h3l1-1z"/><path fill="#0051ba" d="M455 342q-3-1-2 3l3-1z"/><path d="m455 342 1 1v1h-1l-2 1v-3zm0 0h-2v3l2-1h1z"/><path fill="#0051ba" d="M458 345q-4-1-3 3 1-2 3-2z"/><path d="M458 345v2h-1l-2 1v-3zm0 0h-3v3l2-1 1-1z"/><path fill="#0051ba" d="M500 356q-3-1-3 3l3-1z"/><path d="M500 356v1h-1l-2 1 1-3zm0 0h-2l-1 3 2-1h1z"/><path fill="#0051ba" d="M502 358q-3 1-2 4 1-2 3-2z"/><path d="m502 358 1 1v1l-2 1-1 1v-3zm0 0-2 1v3l1-1 2-1v-1z"/><path fill="#0051ba" d="M501 353q-3-1-4 2h4z"/><path d="M501 353v1h-4l1-2zm0 0h-3l-1 2h4z"/><path fill="#0051ba" d="M531 361q-3 0-2 4 0-2 2-2z"/><path d="M531 361v2l-1 1-1 1h-1l1-3zm0 0-2 1-1 3 2-1 1-1z"/><path fill="#0051ba" d="M531 358q-4-1-3 3l3-1z"/><path d="M531 358v2h-1l-2 1v-3zm0 0h-3v3l2-1h1z"/><path fill="#0051ba" d="M532 364q-3 1-2 4l2-2z"/><path d="m532 364-1 1-1 1-1 1v-3zm0 0-2 1v3l1-1 1-1z"/><path fill="#0051ba" d="m476 334 1 3-1 6-1-5-1-3z"/><path d="M476 334v7l-1 1-1-1v-4l-1-3v-1h2m0 0h-2v1l1 1v6l1 1 1-1v-6z"/><path fill="#f9dd16" d="m528 403-2 1q4 1 4-1v2q3-1 2-4l2 2-2-6 2 2-2-5h1l-1-3-2-1h-5l-7-4q6 3 8-4 1-5-11-6c-7 1-15-1-15-4q2-4 9-1h11l-9-2c-5-2-13-4-13 3 0 6 9 7 18 7q7-1 7 3-1 2-8 1-5-2-11-1l-9-1q-4 1-9-6l-6 6q-1 3 1 7 1 3-3 2-3 0-7-4-2-4-5-3-1 2 1 2l2 1h-3l1 1 3 1h-3l1 2 4 1-2 1 5 2-2 2c2-1 8 2 8-1v2q3 1 5-3l-1 2q1 1 4-2v-2l4-1h8l3-1h5q4 4 13 4 7 0 6 4l-1 2-5-2v4h2q-2 1-1 3h2q1-3 3-2"/><path d="m527 403-2 2-1 1-1-1v-2h-1l-1-2h1l-1-2 1-1 2 1 3 1 1-2-1-3-5-1-12-3-1-1-3 1h-13l-3 1-1 2q-1 3-4 3v-1l1-1-4 2h-1v-2l-5 1h-3l1-2-2-1-2-1v1-1l1-1h-1l-2-1-1-1v-1h2-2l-1-1v-1l1-1-1-1v-1q3-1 5 3l7 4h3v-2q-3-4-1-7 0-3 5-5l1-1q3 6 9 6l4 1h16l6 1 2-2-2-2h-5l-13-1q-5-2-6-6 1-5 6-5 4-1 8 2l9 2v-1 1h-11l-6-1q-3 0-3 2l5 3 10 1 8 1q3 2 3 5t-3 5h-4l6 2 5 1h2v1l1 3-1 1 2 4-2-1 1 2 1 2v1l-2-1v1l-2 2v-1l-4 1v-1zm1 0-1 1 3-1h1-1v1l2-1v-2l1 1v-2l-2-3h1l1 1-2-4h2l-1-3-1-1h-6l-7-3v-1h5q3-1 3-4t-3-4l-8-2h-10q-6-1-5-4 0-3 3-2h6q4 2 8 1l-7-2-7-2q-5 1-5 5t6 5 12 1l5 1q3 1 2 3l-2 1h-6q-5-2-11-1h-9q-6 0-9-6h-1l-5 5q-1 3 1 7l1 1-1 1h-3q-4 0-7-4-2-4-5-3v1l1 1h2v1h-3v1h1l3 1v1-1h-2l-1 1 1 1h2l2 1v1h-2l2 1 3 1-2 1h9v2l4-3v-1 3q2 1 3-2v-3h8l2-1h11q6 4 12 4 4-1 5 1l1 3-1 2-3-1h-2v1l1 1h-1v1h2v1h-1v1l1 1h1q2-3 3-2"/><path fill="#f9dd16" d="M478 368q-3-3-2 1l1 3z"/><path d="m478 368-1 4v1-1l-2-5h1zm0 0-2-1v2l1 3z"/><path fill="#f9dd16" d="M485 369q3-2 3 2l-2 3z"/><path d="M485 369h3v2l-2 3zm1 0v4l2-4z"/><path fill="#f9dd16" d="M482 367q5 1 4 7l-2 6q0 3-2 1-2 1-3-2c-1-4-2-3-2-7q-1-5 5-5"/><path d="m486 369 1 5-1 3-2 3-2 2q-3-1-3-3l-1-4-1-3v-4l5-1zm-4-2-4 1-1 4 1 3 1 4q1 2 3 2l2-1 1-4 1-2-1-4q0-2-3-3"/><path fill="#f9dd16" d="M471 378h-3l5 4h-2l6 4q2 1 0 0l5 4q-2-4-2-9-4-1-7-6l-3-9q-2-3-3-2v1l1 3-2-2v2l2 4q-1-2-3-2l1 2z"/><path d="m472 382-2-3-2-1v-1h2l-2-2-2-3h-1v-2h2l-1-1-1-1v-2h2l1 1-1-1v-1l-1-1 1-1 2 1 1 2v2l3 6 2 3q3 4 5 4h1l-1 1 1 4 1 4-3-3-3-1h2-1zm-1-4h-1l1 1 3 3h-1q2 3 5 3l1 1v1h1l2 2v-2l-1-5q-3-1-5-5l-2-2-3-7v-2l-1-2h-3l1 1v1l2 2v1l-1-1-1-1h-1v1l1 2 1 1v1l-2-2-1 1 1 1 2 3z"/><path fill="#f9dd16" d="m506 399-2 2 5-1-1 1h5q2 1 3-1l-1-3-1-4c-4-8-10-6-11-3l5 5q3 1 2 2h-4q-5-3-6-2-1 2 1 2-2-1-2 1l3 1-2 1h3z"/><path d="M505 400h-2l-2 1-1-1v-1l-1-1v-2h1-1v-1l1-1 2 1 4 2h4v-1l-1-1h-2l-4-5q0-2 4-3 4 1 7 5v1l1 4 1 3q-1 3-3 1l-5 1v-1h-4zm1 0v1l3-1h1l-1 1h5l2-1v-3l-1-4q-3-5-7-5t-4 2l4 4 1 1h1l2 1v1h-5l-4-2h-2v1l1 1h-1l-1 1 1 1h2-1l-1 1h3z"/><path fill="#f9dd16" d="m509 390-4-1z"/><path d="m509 390-4-1v-1z"/><path fill="#f9dd16" d="m490 386-1 6z"/><path d="m490 386-1 5 1 1h-1v-1z"/><path fill="#f9dd16" d="m479 371 2 1z"/><path d="m479 371 2 1z"/><path fill="#f9dd16" d="M484 372h-2z"/><path d="M485 372h-2 1v1l-1-1h-1z"/><path fill="#f9dd16" d="M482 372v4q-2 0-1-3v-1z"/><path d="m482 372 1 1v2h-3l1-2v-2zv2l1 1v-4"/><path fill="#ff0016" d="M482 380q1 2 1-1l1-3q-1 2-2 1l-3-1 1 2q-1 2 2 2"/><path d="m482 381-2-1v-3l-1-1h1v1h3l1-1v2l-1 1zm0-1v-2l1-1h-4v3zm-1-4-3-1zm0 0h-4zm0 1h-3zm2-1h2zm0 1h3zm0 0 2 1z"/><path fill="#0051ba" d="M467 364q-1-3-3 1h3z"/><path d="M467 364v1h-3l2-2zm0 0-1-1-2 2h3z"/><path fill="#0051ba" d="M466 366q-1-1-3 1l3 1z"/><path d="M466 366v2h-1l-2-1 2-1zm0 0h-1l-2 1 2 1h1z"/><path fill="#0051ba" d="M466 370q-2-1-3 2h2z"/><path d="M466 370v1l-1 1h-2l1-2zm0 0h-2l-1 2h2l1-1z"/><path fill="#0051ba" d="M467 383q-2-1-3 2h3z"/><path d="M467 383v2h-3l1-2zm0 0h-2l-1 2h3z"/><path fill="#0051ba" d="M467 386q-3-1-2 3 0-2 2-1z"/><path d="M467 386v1h-1l-1 1v-3zm0 0h-2v3l1-1 1-1z"/><path fill="#0051ba" d="M468 388q-2 0-2 3l2-1z"/><path d="m468 388-1 1-2 1 1-2zm0 0-1 1-1 2 2-1z"/><path fill="#0051ba" d="M500 397q-3-1-2 3l2-1z"/><path d="M500 397v1h-1l-1 1v-2zm0 0-2 1v2l1-1h1z"/><path fill="#0051ba" d="M501 399q-2 1-1 3l2-1z"/><path d="M501 399v1h-1l-1 1v-2zm0 0-1 1v2l1-1h1z"/><path fill="#0051ba" d="M500 394q-2 0-2 3l2-1z"/><path d="M500 394v2h-1l-1 1v-2zm0 0-2 1v2l1-1h1z"/><path fill="#0051ba" d="M523 401q-3 1-2 3l2-1z"/><path d="M523 401v1h-1l-1 1v-2zm0 0-2 1v2l1-1h1z"/><path fill="#0051ba" d="M523 399q-3-1-3 2l3-1z"/><path d="M523 399v1h-1l-2 1 1-2zm0 0h-2l-1 2 2-1h1z"/><path fill="#0051ba" d="M524 404q-3-1-2 3 0-2 2-2z"/><path d="M524 403v2l-1 1-1 1v-3zm-1 1v3l1-1 1-1z"/><path fill="#0051ba" d="m482 379 1 3-1 5-1-5v-2z"/><path d="M482 379v6l-1 1-1-1v-7zm0 0v7l1 1 1-1v-6z"/></svg>