<svg xmlns="http://www.w3.org/2000/svg" viewBox="0 0 1000 1000"><path fill="#fff" d="M8 195.3c170.8-85.3 341-54.5 513.3-28C676.5 191 833.4 211.8 992 132.7v672c-170.8 85.3-341 54.5-513.3 28C323.5 809 166.6 788.1 8 867.2z"/><path fill="#df112d" d="M8 195.3q31.3-15.7 63.7-26.8C213.1 217 354.2 334.5 500 456.6c141.3-74.6 283-148.3 428.3-297q31.3-10.8 63.7-26.7v43.5C850.6 343.4 709.4 431 563.8 509.6 704.7 626.1 846.6 734.5 992 761.2v43.5q-31.3 15.7-63.7 26.7C786.9 783 645.8 665.7 500 543.6c-141.3 74.6-283 148.3-428.3 297Q40.4 851.4 8 867.3v-43.5C149.4 656.5 290.6 569 436.2 490.4 295.3 373.9 153.4 265.5 8 238.8z"/><path fill="#e8112d" d="M551.5 272.4c12.6 60.3 5.7 131-51.4 162.4-57-49.1-64-121.4-51.4-178 14-12 74.1-11 102.8 15.6"/><path d="M551.7 272.4Q577 393 500.2 435h-.3c-51.2-44-68.3-102.8-51.5-178.4l.1-.1c8-6.8 22.9-9 46-6.8q37.5 4 57 22.4h.2zm-.4.1c-13.2-12.2-31.8-19.5-56.7-22.2-23-2.3-37.9 0-45.7 6.6-16.7 75.2.3 133.7 51.2 177.5 51-28 67.8-81.7 51.2-161.9"/><path fill="#f9dd16" d="M500 252.9c21 3.3 40.3 12.5 52 22.4a122 122 0 0 1 19.6-52.6c-10-1.4-14 3.5-14.3 9.8-3-8.3-11.7-9.1-15.1-5.3 10.5 10.3 2.7 22.9-7.3 18.8-4.6-2.3-6.8-5.9-7.9-11.5q4.5 0 5-5-.1-5-4.4-7-4.5-.9-6 3.5-.7 5 3.2 7.8c-3.4 5.2-8.4 6-12.6 4.2a14 14 0 0 1-7.3-12.7c.5-12.2 9.9-12.3 13.4-9.8-.7-8.5-11-16.2-15-10.3a26 26 0 0 0-3.3-27.1c-7 6.7-7.1 17.2-3.3 26-4-7-14.3-2.6-15 5.7 3.5-1.4 12.9 1.7 13.4 14-.2 4.9-2.1 9.3-7.3 10.4-4.2.5-9.2-1.8-12.6-8q4-1.7 3.2-6.8-1.5-5-6-5.3-4.2.5-4.4 5.6.6 5 5 6.5c-1 5.3-3.2 8.2-7.9 9.1-10 1-17.8-13.8-7.3-21-3.4-4.8-12-6.6-15 .9-.4-6.4-4.5-12.6-14.4-14a160 160 0 0 1 19.7 58.2c11.6-6.4 30.8-9.7 51.9-6.5"/><path d="M500 253.1c-21.1-3.2-38-1-51.8 6.6l-.4.1v-.4a152 152 0 0 0-19.7-58l-.2-.5h.5c4.8.7 8.1 2.3 11 5.2q3 3.5 3.5 7.8c1.5-3 3.5-4.1 7.2-4.1 3.7.3 6 1.5 8 4.3v.3h-.1c-5.1 3.5-6.3 7.5-4 13.4 2.6 5.7 5.9 7.8 11 7.3 4.3-1 6.6-3.5 7.6-8.7-3.2-1-4.5-2.9-4.8-6.7 0-4 1.3-5.6 4.7-5.8 3.4 0 5 1.6 6.2 5.5.7 3.8-.2 5.7-3.1 7 3.3 6 6.9 8.2 12.1 7.6 4.9-1 7-4 7.1-10.2-.1-5.5-1.8-9-5.4-12-3.2-2.2-5.3-2.6-7.5-1.7l-.4.2v-.5c.3-4.4 2.1-7 6.4-8.8 3.4-1.3 5.5-1 7.6.9-3.7-10.1-2.4-17.7 4.3-24l.2-.2.2.2c6.7 8.5 8 16.5 4.3 25.4 2-1.3 4.2-.9 7.6 1.4 4.2 3.1 6.1 6.4 6.4 10.8v.5l-.4-.3c-2.2-1.6-4.3-1.8-7.5-.6-3.7 1.8-5.3 4.8-5.4 10.3.2 6.2 2.3 9.9 7.1 12.4 5.3 2.2 8.8 1 12.1-4-2.9-2-3.7-4.2-3-7.8 1-3.6 2.7-4.6 6.2-3.7 3.3 1.4 4.6 3.4 4.6 7.3-.3 3.8-1.6 5.2-4.8 5.2 1 5.6 3.3 8.9 7.6 11 5.2 2.2 8.4 1 11-4 2.3-5.2 1.1-9.5-4-14.4l-.2-.2.2-.2c2-2.2 4.2-2.8 8-2 3.5 1 5.6 2.9 7.1 6.3.4-3 1.5-5 3.6-6.8 2.8-2.1 6-2.8 11-2h.4l-.2.4a116 116 0 0 0-19.7 52.4v.4l-.4-.2A103 103 0 0 0 500 253m0-.5q31.3 4.9 51.7 22.1 3.4-28 19.5-51.8c-4.5-.5-7.6 0-10.2 2a10 10 0 0 0-3.5 7.7h-.5a10 10 0 0 0-7.1-7c-3.5-.8-5.6-.3-7.4 1.6 5.2 5 6.3 9.6 4 15-2.8 5.2-6.2 6.4-11.7 4.1-4.5-2.3-7-5.8-8-11.7v-.4h.2c3.2.1 4.4-1.2 4.7-4.7 0-3.6-1.2-5.4-4.2-6.6-3.1-.8-4.7 0-5.7 3.3-.6 3.4.2 5.4 3 7.3l.4.2-.2.2c-3.4 5.5-7.3 6.8-12.9 4.4-5-2.6-7.3-6.5-7.4-13 .1-5.7 1.8-8.8 5.6-10.7 3.2-1.2 5.4-1.1 7.7.3-.4-4-2.2-6.8-6-9.7-4.3-2.8-6.6-2.7-8.5.2l-.4-.3c4.8-9.4 3.8-17.8-3.1-26.6-6.9 6.7-7.8 14.7-3 25.6l-.5.2c-2-3.5-4.2-4.3-8.4-2.8-3.9 1.7-5.7 4-6 7.9 2.2-.8 4.4-.2 7.6 2 3.8 3 5.5 6.8 5.6 12.4-.1 6.5-2.3 9.7-7.4 10.7-5.6.7-9.5-1.8-12.9-8.3l-.2-.3h.3c2.9-1.1 3.7-2.8 3-6.4-.9-3.6-2.5-5-5.6-5-3 .2-4.2 1.6-4.3 5.2.4 3.6 1.7 5.3 4.8 6.2h.3l-.1.4c-1 5.6-3.5 8.4-8 9.3-5.5.7-9-1.6-11.7-7.6-2.4-6.2-1.2-10.3 4-13.9q-2.5-3.5-7.4-3.7c-3.8 0-5.8 1.4-7.1 4.9l-.5-.2c-.2-3.4-1.2-6-3.5-8.6a17 17 0 0 0-10.2-5Q445 230 448.3 259c13.7-7.5 30.6-9.6 51.7-6.5"/><path fill="#f9dd16" d="M543.4 316.7c-1.2.3-1.3 1.8-1.9 1.8 3.4.4 4.7-.3 5.9-2-.6.7-.2 2-.4 2.4 2.5-.8 3.5-2.6 2.8-4.5.6 1 2 1.7 2.6 1.9-1.5-2-.8-4.8-3.2-7.2 1 .2 2.5 1.4 3 2.9-.4-3.2-.8-5-3-7.2.4.3 1.4.7 2 .3a5 5 0 0 1-1.7-4.1q.1-2.3-2.4-1.8c-1.5.2-5 0-7-.3-4.4-.7-7.8-1.3-11.4-4.5 5.6 3 11.5-.7 12-5.3-.4-5-5-9.2-15.7-8.4-11 .8-22.8-2-23.3-6 .6-4 8.7-3.2 13.9-1.6 4.7 1.5 8 2.5 16.8.3-2.4.6-9-.2-14.7-2.8-6-2.6-18.6-4.7-19.2 3.6.3 8.4 14.1 9.8 27 9.7 7.6 0 11 1.2 11.3 4-.5 2.7-6.4 2.7-12 1.3a36 36 0 0 0-16.6-1.1c-5.1.7-8.6-1.2-14.3-1.1-3 0-9-1.5-12.7-8.2-2.2 1.4-7.7 4-9.1 7-1.3 3.2-.5 6 1.4 9.5 2.1 4.2-1 3.1-3.8 2.8-3.7-.5-8-1.8-10.8-5.3-2.4-3.4-4.8-5.6-7.4-4.1-1.1 1-.2 2.3.9 2.2 1-.1 2 .7 3 1.4-1.7-1-3.2-.7-4 0-.8 1 0 2.5 1.3 2.3 1-.4 2.6-.4 4 1q-2.1-.8-3.3 0-.9 1.5 1.2 2.1c2.3.4 2.9 2 5.1 2q-2 .4-2.5 1.3c2.2-.4 4.4 2.2 7.2 2.3-1.2.4-2.6 1.2-2.8 2.2 2.3-1.5 11.8 3.1 12.8-1q.4 1.5-.6 3.4c1.6-.6 5.5-.5 7.2-3.8q.3 2-.8 2.7c1.6.6 3.1-.1 5.2-3.2q1.1-1.6.9-3c2 .3 3.2 0 4.8-1.2 1.7-1 3.1 1.5 6 .3 2.7-1.3 4.7.2 6.3-.3s3.3.7 5 0 3.9 1 6.6-.7c4.1 2.4 8.8 6 20.5 5.5 6.8-.1 8.6 2.3 8.8 6-.1 2.4-1.2 2.4-2.2 2.3-3.7-.5-5.3-2.1-6.8-2-1 .4-1.5 1.8-.1 2.9-1.2.6-1 1.6-.5 2.3q1.3.7 3.3 0c-1.5.6-2.6 1.4-2 3 .6.9 1.6 1.6 2.8.2q2.2-2.5 4.6-2.2"/><path d="M542.6 316.8q-1.8 0-3.6 2.3-.8 1-1.9.8-.8-.2-1.3-1.1-.6-1.2.2-2.2l.2-.2q-1 0-1.6-.5t-.5-1.4q0-.8.6-1.2-.7-.7-.6-1.7.3-1.1 1.1-1.4.8-.1 2.5.7 2.4 1.2 4.4 1.3 1.9.1 2-2-.2-2.8-1.8-4.2-2.2-1.7-6.8-1.5a34 34 0 0 1-19.2-4.7l-1.3-.8q-1.5 1.1-4.3.6h-2.2q-.8.6-2.8.1-1.5-.3-2.2 0t-2.3 0q-2.6-.6-4 .2-1.7.9-3.8-.1-1.5-.6-2.1-.1a6 6 0 0 1-4.7 1.2q0 1.4-1 3c-2.1 3-3.6 4-5.5 3.1l-.7-.3.7-.2q.7-.2.7-1.5-1.4 2-5.2 2.7l-1.7.5-.3-.5q.7-1 .7-2.3c-1 1.1-3.1 1.3-7.5.5q-4.4-.9-5-.2l-.4.5v-.8q0-1.1 1.7-2l-2.6-1.1q-2.2-1.3-3.2-1l-.8.3.5-.8a3 3 0 0 1 1.3-1l-1.3-.8q-1.4-1-2.4-1-1.1-.1-1.6-1t.2-1.6q.8-.9 2.5-.4-1.4-.8-2.9-.2-1 .4-1.7-.8-.8-1.4.1-2t1.7-.8h-.4q-1 .4-1.6-.9-.5-1.1.4-1.9c2.4-1.4 4.5-.3 7.8 4.3 2.3 2.9 5.5 4.4 10.6 5a20 20 0 0 0 4 .2q.4-.2.4-.6 0-.6-.8-1.9c-2.2-4.1-2.6-6.9-1.4-9.7q.9-2.5 7.2-6l2-1.1.2-.2.1.3c3 5.6 6.7 8 12.4 8q2.7 0 6.8.7 4.8.9 7.5.4 8.1-1.3 16.8 1 4.1 1.2 7.8 1 3.8-.4 3.8-1.9 0-1.8-2.6-2.8-2.9-1-8.3-.9-11.7 0-18.4-1.6c-6.2-1.9-8.8-4.3-9-8.4.3-4 2.5-5.8 7.8-6.2q6.3 0 11.8 2.4a25 25 0 0 0 14.5 2.8l.2.5-1 .3a31 31 0 0 1-16-.7q-4.2-1.4-8.6-1.2c-3.4.1-4.7.9-5 2.6.3 1.8 2.4 3.1 7.5 4.5q7.6 1.8 15.5 1.2 7.4-.6 11.9 2c2.8 2 4 3.9 4 6.8 0 2.5-1.2 4.1-4 5.7q-3.2 1.5-6 .7 3.4 2 9.3 3 4.5.6 7 .3 1.4 0 2 .3.8.6.7 1.8-.2 2.3 1.6 3.8l.3.3-.3.2q-.4.3-1.2.2 1.8 2.4 2.3 6.5h-.5q-.6-1.9-2-2.5 1 1.4 1.5 3.8.4 2 1 2.8l.7.7-.9-.3a5 5 0 0 1-2-1q0 .9-.4 1.7-1 1.5-2.8 2l-.8.2.6-.7v-1.1q-2 1.6-5.4 1.2v-.5l.4-.6zm.9.2q-.5.1-1.1 1.1l-.2.3q3.3.1 4.7-1.7l.3-.4.4.4-.2.3v1.6q1.3-.4 2-1.6t.2-2.4l.3-.2q.6.9 1.8 1.4-.4-.8-.7-2.4-.5-2.8-2-4l-.7-.6h.8q1.7.3 2.7 1.6a11 11 0 0 0-2.8-5.4l.4-.4.2.2.5.2h.7a5 5 0 0 1-1.5-4q.1-.9-.4-1.2t-1.7-.2q-2.5.3-7.1-.3-7.9-1.4-11.6-4.6l.3-.5c2.6 1.5 4.8 1.6 7.7.2q3.8-2 3.8-5.2 0-3.7-3.7-6.1c-3-1.8-6.6-2.4-11.6-2q-8 .6-15.6-1.2c-5.5-1.5-7.7-3-8-5.2.2-2 1.7-3 5.4-3.1q4.4 0 8.8 1.3 5.6 1.8 11.8 1.2-4.1-.6-9.8-3a25 25 0 0 0-11.5-2.4c-5 .4-7.1 2-7.4 5.7.2 3.7 2.6 6 8.5 7.7a73 73 0 0 0 18.3 1.6q5.6 0 8.4 1 3 1.1 3.1 3.4c-.2 1.4-1.3 2.1-4.2 2.4q-3.9.1-8-1-8.6-2.4-16.5-1-2.9.5-7.7-.4-4.2-.9-6.7-.7c-5.9 0-9.7-2.4-12.8-8l-1.7 1q-6.3 3.4-7 5.7h-.1c-1 2.6-.7 5.2 1.4 9.1q.8 1.4.8 2.2.1.9-.5 1.2t-3.2 0l-1-.1c-5.4-.7-8.7-2.3-11-5.4-3.1-4.2-5-5.3-7.2-4q-.6.4-.3 1.1.4.7 1 .5.8-.1 2.7 1l.6.4-.2.5c-1.7-1-2.7-1-3.9 0q-.4.3 0 1.3.4.8 1.1.5 2.5-1 4.3 1l.6.8-.9-.3q-2.2-.8-3 0-.4.4-.1 1 .3.4 1.1.6 1.1.2 2.6 1.1a5 5 0 0 0 2.5 1v.6a3 3 0 0 0-1.8.6q1 0 2.8 1 2.3 1.4 3.6 1.3l.1.6q-1.9.6-2.4 1.3 1.4-.2 4.9.5c5 .9 6.9.6 7.2-1h.5q.5 1.6-.2 3l1-.2q4.4-1 5.4-3.3l.4-.9.1 1q.2 2-.5 2.7 2 .5 4.4-3.3 1-1.4.8-2.8v-.3h.3q2.6.5 4.6-1.1 1-.6 2.6 0 2 1 3.4.2 1.6-.9 4.3-.3 1.5.3 2 0 .9-.3 2.6 0 1.8.5 2.5 0 .7-.3 2.4 0 2.6.3 4.1-.7h.3l1.4.9c6 3.4 12 5 19 4.6q4.6-.2 7 1.6 2 1.7 2 4.7 0 2.9-2.4 2.6-2-.2-4.5-1.4-1.6-.7-2.2-.6-.7.2-.8 1t.7 1.3l.5.3-.5.2q-.7.3-.8 1 0 .5.4 1 .8.6 2.8-.1h.1l.2.5q-1.1.4-1.7 1-.6.8-.1 1.5t1 .9q.8.1 1.4-.7c1.7-2.1 3-2.8 4.9-2.3z"/><path fill="#f9dd16" d="M469.3 269c-3.5-2-4.4-2.2-3.8 1a16 16 0 0 0 2 4.4c0-1.5.5-4.5 1.8-5.3"/><path d="m469.9 269.2-.5.1c-1 .6-1.5 2-1.6 5.1v.7l-.5-.5a12 12 0 0 1-2.2-6.5q0-.7.7-.8.8 0 3.6 1.5zm-1.2-.1q-2.2-1.4-2.8-1.3-.3 0-.3.5t.2 1.7q.5 2.2 1.5 3.7.2-3.6 1.4-4.6"/><path fill="#f9dd16" d="M479.8 270.7c3.5-1 4.4-1 3.7 2-.3 1.4-1.1 3-1.9 3.9 0-1.6-.5-4.8-1.8-6"/><path d="M479.7 270.4q2.8-.9 3.6-.4.6.3.7 1t-.2 1.9q-.8 2.6-2 3.9l-.5.4v-.7c0-3.1-.6-4.7-1.6-5.6l-.5-.3zm.7.4q1.2 1.5 1.4 5a9 9 0 0 0 1.7-4.8q0-.4-.3-.5-.7-.3-2.8.3"/><path fill="#f9dd16" d="M474.6 267.8c6.4 1.2 7 4.3 7.1 8.7-.3 4.6-2 2.8-3.4 8.4-.7 2.2-2 2.1-3.8 1.9s-3-.7-3.7-3c-1.5-6-3.1-4.9-3.4-9.5 0-4.4.7-7.2 7.2-6.5"/><path d="M480.8 270.8q1 2 1.2 5.8-.1 2.3-1.4 4-1.4 1.6-2 4.4-.7 2.6-4 2-3.4-.5-4-3.2-.7-3-2-5.1a8 8 0 0 1-1.4-4.4q0-3.9 1.2-5.4c1.3-1.4 3-1.8 6.1-1.4q4.5.7 6.2 3.3m-6.2-2.8c-2.9-.3-4.5 0-5.7 1.3q-1.2 1.5-1.1 5 0 2.3 1.2 4 1.5 2.5 2.2 5.4.5 2.3 3.4 2.8 3.1.4 3.5-1.7.7-2.9 2.2-4.7 1.2-1.3 1.3-3.6 0-3.7-1.1-5.4-1.7-2.3-5.8-3"/><path fill="#f9dd16" d="M458.1 282.1c-1.7-1.3-2.6-.8-3.3-.6 2 1.2 2.3 3.8 7 6.2-1.1-.4-1.7 0-2.7-.7 2 2.2 4.1 4.3 8.9 5.2 2.5.6.9 1.6-1 .6 2.1 2.2 5 1.4 7.6 5.3 0-3-3.7-8-2-11.3-6.5-1.6-7.1-5.2-10.8-9.3-3-3.2-3.4-5.7-4.7-11-.8-2.6-2.8-4-4.3-3.9q-1.8.7-.5 2.4c1 1 2 1.3 2.5 3.5q-2.3-3.1-4.1-2c-.5.8-.4 2 .8 2.5 1.9.7.7 2.3 2.8 5-2.1-2.9-3.5-3.3-4.7-2.1-.6.8 0 2 1.3 2.3 1.9.5 4.3 5.7 7.2 8"/><path d="M460.2 287.2a15 15 0 0 1-3.6-3.6q-1.2-1.5-1.9-1.8l-1-.4 1-.2h.3l1.6-.1q-1.1-1.2-2.5-3.3-2.3-3.2-3.1-3.3-1.1 0-1.7-1.1-.5-1 0-1.8 1-1 2.3-.5l1.3.8-.3-1q-.3-1.4-1-1.6-1.1-.2-1.4-1.4-.2-1 .3-1.6.8-.8 2.1-.2l1.5 1.1-1.1-1.2-.8-.7q-.8-1-.6-1.8.3-.7 1.3-1t2.6.9q1.4 1.3 2 3l.5 2.2q1.5 6.2 4 8.8 1.2 1.2 2.8 3.5c2.5 3.3 4.8 5 7.9 5.8h.4l-.3.4c-.6 1.3-.4 3.2 1 6.6q1.3 3.4 1.1 4.6v.7l-.4-.6a8 8 0 0 0-4.4-3.5 7 7 0 0 1-3.1-1.8l.3-.4q1.1.7 1.8.2l-1-.3q-4.6-.8-9-5.2h-.1l.3-.5 1 .3m-2-5.2-.2.5-.4-.4q-1-.5-2.1-.4l1.4 1.7q2.1 2.8 4.9 4v.6h-.1l-1.1-.2h-.5q3.7 3.5 7.9 4.3 1 0 1.3.5.3.2.2.5t-.2.4l-.8.2 1.5.7q2.9 1 4.3 2.9-.2-1.2-1.1-3.5-2-4.6-1-6.7-4.3-1.1-7.9-5.8-1.6-2.4-2.7-3.5-2.5-2.9-4.2-9l-.5-2.2q-.5-1.6-1.8-2.8-1.2-1-2.2-.8-.7.2-1 .8 0 .5.5 1l.8.7q1.5 1.4 1.8 3l.1 1-.5-.8q-1-1.4-2-2-1.2-.4-1.7.2-.4.3-.2 1t.8 1q1.3.3 1.6 2 .2 1.2.8 2.2l.6.8-.4.3-.6-.8a6 6 0 0 0-2-1.6q-1-.5-1.7.4-.4.4 0 1 .3.7 1.1.8 1.1 0 3.6 3.6a24 24 0 0 0 3.7 4.4"/><path fill="#f9dd16" d="M510.5 311.3c-1 .3-.8 1.8-2.1 2 3.4.4 4.9-.1 6.6-1.4q-1 1-1.1 2.3c2-1.3 5.6-1 8-.1 2.2.7 2.5-.2 3.4-1.8.6-1.5-.3-2.4-1.4-4-1-1.4-1.3-3-1.1-5.9-6.3-9.5-15.7-7-16.3-3.2 3.8 5.5 4.2 5 7.4 6.2s4.9 1.4 3 3.1c-1 .5-3.7-.1-6.2-.4-5.4-1-7.4-4.8-9.2-3.3q-1.5 2.6 2.7 3c-2-.3-4-.7-3.8 1.3 1 3 3 .2 4.4 1.4-1-.3-2.1 0-2.3 1 .1 1 1.8 2.3 4.2.8a6 6 0 0 1 3.8-1"/><path d="M509.7 311.6a5 5 0 0 0-2.8 1q-1.6 1.2-3.2.6-1.5-.7-1.5-1.8l.2-.6h-1q-1-.2-1.3-1.7-.2-1.4 1.1-1.8h.3l-.3-.3q-.4-.4-.4-1 0-.8.5-1.4 1-1.2 3.5.6a14 14 0 0 0 6 2.6l2.2.3q3.2.6 3.7.2.6-.5.7-.8v-.3q-.4-.4-2.3-1l-1.3-.5-1-.4q-3.1-1-6.5-6v-.1c.3-2.7 2-3.7 6.2-3.7 4.5.2 7.6 2.3 10.5 6.8v.2q-.2 4 1 5.7l.4.5q1.8 2.3 1 3.8l-.1.3q-1.3 2.3-3.4 1.5c-3.7-1.2-6-1.2-7.9.1l-.5.4.1-.7.2-1.1q-2.2 1-5.4.6v-.6q.6 0 1-1zm.8 0q-.3 0-.6.8l-.5.7a8 8 0 0 0 5.4-1.4l.3.5-.3.2q-.4.4-.6 1.2c2-1 4.2-1 7.8.2q1.8.6 2.9-1.3l.1-.3q.6-1.2-1-3.1l-.3-.5q-1.5-2-1.2-6.2c-2.7-4.2-5.7-6-10-6.3-3.8 0-5.4.8-5.7 3q3.1 4.6 6 5.7l1.1.3 1.2.5q2.2.7 2.6 1.2t.2 1l-1 1q-.5.5-4-.1l-2.1-.3q-2.7-.4-6.1-2.7-2.2-1.5-3-.7l-.4 1q0 .4.2.6.6.6 2 .9h.7v.6h-.7l-2.1-.2q-1 .3-.8 1.1.2 1.1.8 1.3l1.4-.3q1.7-.4 2.2.3l.6.8-.8-.3q-.7-.3-1.4 0t-.7.7q0 .7 1.1 1.1 1.4.5 2.8-.5a5 5 0 0 1 3.9-1z"/><path fill="#f9dd16" d="M515 298.7c-2-1.1-3.6-1.8-5.8-1.7z"/><path d="M514.9 299a11 11 0 0 0-5.7-1.7v-.6q2.5 0 5.9 1.7z"/><path fill="#f9dd16" d="M486.7 293.3c-1.5 3.6-.7 5.4-.4 7.3z"/><path d="M486.9 293.4q-1.2 2.8-.6 6.1l.2 1.1h-.5l-.2-1q-.6-3.5.6-6.5z"/><path fill="#f9dd16" d="M470.2 272.8c1.1.6 1.5-.7 3.2 1.2-.5-.5-.8 1.1-2.2-.2z"/><path d="M470.3 272.5q.3.3 1 .2 1.1-.2 2.3 1.1l-.4.4-.2.1q-1 .8-2-.3l.4-.4q.6.8 1.3.2h.1q-.7-.7-1.4-.5-1 .2-1.4-.3z"/><path fill="#f9dd16" d="M478.8 274.1c-1 .3-1.5-1.2-3.2.2.6-.2.9 1.4 2.2.5z"/><path d="M479 274.4q-.6.1-1.3-.2t-1.5 0l.2.2q.7.7 1.2.2l.4.4q-1 .9-2-.2l-.2-.2-.4-.5q1.1-1 2.4-.4.6.3 1 .1z"/><path fill="#f9dd16" d="M475.6 274.3c-.4.3-.4-.3-.1 1.3.6 3.2 1 4.4-1 4.3-2-.5-1.6-1.5-1-4.5.3-1.6.3-1-.1-1.4z"/><path d="m475.8 274.6-.3.1.1.3.2.7.2 1.1q.3 2 .2 2.6-.2 1-1.7.8-1.4-.3-1.7-1.3l.2-2.4.4-1.8.2-.3-.4-.2.4-.4q.4.3.3 1l-.1.7-.3 1.2-.2 2.2q.1.6 1.2.7 1 .2 1.2-.4l-.2-2.3-.2-1.2-.2-.6q0-.9.2-1h.2z"/><path fill="#ff0016" d="M474.6 285.6c1.7.2 2.5.4 2.4-2.4 0-1.2 1-1.4.7-3.3.1 2.4-2.8 1.5-3.1.6-.4.9-3.3.7-3.2-1.5-.3 1.7.7 2.3.7 3.4-.2 2.8.7 2.9 2.5 3.2"/><path d="M474.6 285.7q-1.7-.3-2-.7-.8-.7-.6-2.6 0-.4-.4-1.1-.6-1.4-.3-2.4l.2.1q0 .7.3 1.2t1 .6h1.1q.5 0 .5-.3h.3q0 .3.4.5l1.2.3q.7 0 1-.3.5-.3.3-1h.2a3 3 0 0 1-.4 2.2l-.3 1q.2 2-.5 2.4-.5.3-2 .1m0-.3q1.4.3 1.8 0 .6-.4.4-2.2 0-.6.4-1.2l.4-.8h-.1q-.4.4-1.2.4t-1.2-.3l-.6-.5-.5.3h-1.2l-1.2-.7-.1-.2q0 .4.4 1l.3 1.3q-.1 1.7.4 2.3.6.4 2 .6"/><path d="m473 280-4.2-2 .1-.3 4.1 2z"/><path d="m473 280.2-4.6-.8v-.2l4.6.7zm0 .2-3.9.6v-.2l4-.6zm3-.3 4.2-.7v.3l-4 .7zm0 .3 4.7.6v.3l-4.6-.7zm0 .2 4 1.8v.3l-4-1.8z"/><path fill="#0051ba" d="M453.2 262.8c-1.5-1.8-3.9-1-4.3 1.2 1.2-1 2.6.8 3.6.7q1.2-.5.7-2"/><path d="M453.2 262.8q.5.4 0 1.2-.1.6-.7.7-.4.1-1.3-.5-1.7-.9-2.2-.2 0-1.6 1.6-2.1t2.6.9m0 0q-1-1.4-2.5-.9-1.6.5-1.7 2 .6-.6 2.2.3.9.5 1.3.5.5-.2.8-.8.2-.5-.1-1.1"/><path fill="#0051ba" d="M451.7 266.6c-1.6-1.8-4-1-4.3 1.2 1.2-1 2.5.7 3.6.7q1-.6.6-2"/><path d="M451.7 266.5q.3.6 0 1.2t-.7.8q-.4.1-1.4-.5-1.6-1-2.2-.2 0-1.6 1.7-2.1t2.6.8m0 0q-1-1.3-2.6-.8-1.5.6-1.7 2 .7-.7 2.2.3 1 .5 1.4.5.4-.2.7-.8t0-1.1"/><path fill="#0051ba" d="M450.9 271.9c-1.7-1.6-4-.5-4 1.7 1-1.1 2.5.5 3.5.3q1-.8.5-2"/><path d="M450.9 271.8q.4.5.2 1.2t-.7 1l-1.4-.4q-1.7-.7-2.2 0v.1q0-1.7 1.5-2.4 1.5-.8 2.6.5m0 0q-1-1.2-2.6-.5-1.5.7-1.5 2.2.6-.7 2.2 0 1 .4 1.4.3t.6-.8q.2-.6-.1-1.1"/><path fill="#0051ba" d="M452.3 288.8c-1.8-1.4-3.9 0-3.8 2.3 1-1.3 2.6.1 3.6-.2.5-.4.7-1.4.2-2.1"/><path d="M452.3 288.8q.4.4.3 1.2 0 .6-.6 1l-1.4-.2q-1.6-.4-2 .3l-.1.1q-.2-1.7 1.2-2.7 1.5-.9 2.6.3m0 0q-1-1.2-2.6-.2-1.4 1-1.2 2.4.5-.8 2.2-.2 1 .3 1.3 0t.6-.8q0-.8-.3-1.2"/><path fill="#0051ba" d="M452.2 292.4c-2-.7-3.5 1.5-2.8 3.7.5-1.6 2.3-.8 3.1-1.5.4-.6.4-1.6-.3-2.2"/><path d="M452.2 292.4q.6.4.6 1 0 .9-.2 1.3-.3.3-1.3.3-1.7.1-1.9 1.1-.6-1.5.4-3 1.1-1.5 2.4-.7m0 0q-1.4-.6-2.4.8t-.4 2.8q.2-1 1.9-1 1 0 1.2-.4.4-.4.3-1.1 0-.7-.6-1"/><path fill="#0051ba" d="M454.5 295.5c-2-.7-3.5 1.5-2.8 3.7.5-1.6 2.4-.8 3.2-1.5q.5-1.2-.4-2.2"/><path d="M454.5 295.5q.6.3.6 1 0 .9-.2 1.2-.3.4-1.3.4-1.7 0-1.9 1v.2-.1q-.6-1.5.4-3 1.1-1.5 2.4-.7m0 0q-1.4-.6-2.4.7-1 1.4-.4 2.9.2-1 1.9-1 1-.1 1.2-.4.4-.5.3-1.1 0-.7-.6-1"/><path fill="#0051ba" d="M501.6 308c-2-.7-3.6 1.4-2.9 3.6.5-1.6 2.4-.7 3.2-1.4q.7-1.2-.3-2.2"/><path d="M501.6 308q.5.3.6 1 0 .9-.3 1.2-.3.4-1.3.4-1.7 0-1.8 1v.2-.1q-.7-1.6.3-3 1.1-1.5 2.5-.7m0 0q-1.4-.6-2.5.7-.9 1.4-.4 2.9.2-1 1.9-1 1-.1 1.3-.4.3-.5.2-1.1t-.6-1"/><path fill="#0051ba" d="M504 310.9c-2-.5-3.3 1.9-2.4 4 .3-1.7 2.2-1 3-1.8.3-.8.2-1.8-.6-2.2"/><path d="M504 310.9q.6.1.7 1l-.1 1.2q-.3.3-1.3.5-1.6.3-1.7 1.3v.1q-.8-1.6 0-3.1 1-1.6 2.4-1m0 0q-1.4-.5-2.3 1-.9 1.6-.1 3 .1-1 1.7-1.4 1 0 1.2-.5t.2-1.1q-.3-.8-.7-1"/><path fill="#0051ba" d="M502.3 304.6c-2-1-3.8.7-3.4 3 .7-1.5 2.5-.3 3.4-.8q.8-1 0-2.2"/><path d="M502.3 304.6q.5.4.5 1.1t-.5 1.1q-.2.3-1.4.1-1.7-.2-2 .7-.4-1.7.8-2.8 1.4-1.2 2.6-.2m0 0c-1-.6-1.6-.6-2.6.2q-1.2 1.2-.8 2.7.4-.9 2-.7 1.2.2 1.4 0l.4-1q0-.8-.4-1.2"/><path fill="#0051ba" d="M535.8 314c-2-.4-3.3 2-2.4 4 .3-1.6 2.2-1 2.9-1.8.3-.7.2-1.7-.5-2.1"/><path d="M535.8 314q.5.3.6 1v1.2q-.4.4-1.3.6-1.7.3-1.7 1.3-.9-1.5 0-3 1-1.7 2.4-1m0 0q-1.5-.5-2.3 1t-.2 3q.2-1.1 1.7-1.4 1.1-.2 1.3-.5.3-.5.1-1.2t-.6-1"/><path fill="#0051ba" d="M535.8 310.7c-2-1-3.7.8-3.3 3 .7-1.4 2.5-.3 3.4-.8.4-.6.6-1.6-.1-2.2"/><path d="M535.8 310.7q.5.3.5 1.1 0 .7-.4 1.1-.2.3-1.4.1-1.7 0-2 .8v.1q-.4-1.6.8-3 1.3-1.2 2.5-.2m0 0q-1.3-.9-2.5.3t-.8 2.7q.3-.9 2-.7l1.4-.1q.3-.4.3-1 0-.9-.4-1.2"/><path fill="#0051ba" d="M537.1 317.2c-2-.3-3.2 2.1-2.2 4.3.2-1.7 2.1-1.3 2.8-2q.5-1.4-.6-2.3"/><path d="M537.1 317.2q.6.3.8 1l-.1 1.2q-.3.5-1.3.6-1.5.4-1.6 1.5-.9-1.5 0-3.1t2.2-1.2m0 0q-1.4-.4-2.2 1.2t0 3q0-1 1.6-1.4 1-.3 1.2-.6.2-.5 0-1.2 0-.7-.6-1"/><path fill="#0051ba" d="M474.7 284c1.2.2 1.6.6 1.6 3 0 5.3 0 7-1.5 7.1-1.4-.4-1.3-2.1-1.3-6q.1-3-.4-2.9c0-1.3.5-1.4 1.6-1.2"/><path d="m474.7 284 .7.2.5.4q.3.4.3 1l.2 1.4q0 4.5-.2 5.6-.3 1.7-1.4 1.5-.9 0-1.2-1.5l-.1-3.9v-.7l-.2-2.6q0-.2-.2-.1 0-.7.2-1l.2-.3zm0 0h-1l-.4.3-.1.9.2.1v.6l.1 2.1v.7q0 3 .2 3.9.3 1.4 1.1 1.5 1 0 1.3-1.5a47 47 0 0 0 .1-7q-.2-1-.8-1.4-.3-.2-.7-.2"/><path fill="#f9dd16" d="M537.6 363.6c-1.1.3-1.2 1.6-1.8 1.7 3.1.2 4.3-.3 5.3-2-.5.7-.2 2-.3 2.3q3.4-1.2 2.5-4c.5.8 1.8 1.5 2.3 1.6-1.3-1.7-.7-4.3-2.9-6.4 1 .1 2.3 1.2 2.8 2.6-.4-3-.8-4.6-2.7-6.5.3.3 1.2.7 1.8.3a5 5 0 0 1-1.6-3.7q.2-2-2.1-1.6a39 39 0 0 1-6.4-.4c-3.9-.6-7-1.1-10.2-4 5 2.7 10.3-.6 10.7-4.7-.2-4.5-4.4-8.3-14-7.6-10 .7-20.5-1.9-21-5.5.6-3.5 7.8-2.8 12.5-1.4 4.3 1.4 7.2 2.3 15.1.4-2.1.4-8-.2-13.2-2.6-5.4-2.4-16.6-4.2-17.3 3.3.4 7.5 12.7 8.8 24.4 8.7 6.8 0 9.7 1 10 3.6-.5 2.4-5.6 2.4-10.7 1.1a33 33 0 0 0-15-1c-4.6.7-7.7-1-12.9-1-2.7 0-8-1.3-11.4-7.3-2 1.3-6.9 3.6-8.2 6.4-1.1 2.7-.4 5.2 1.3 8.4 2 3.8-.8 2.8-3.4 2.5-3.4-.4-7.2-1.5-9.7-4.7-2.2-3-4.3-5-6.7-3.7-1 1-.1 2 .8 2 1-.1 1.8.6 2.8 1.2-1.6-.9-3-.6-3.7 0-.7.9.1 2.3 1.2 2s2.4-.3 3.6 1q-2-.8-3 0-.8 1.3 1.2 1.9c2 .4 2.5 1.7 4.5 1.8q-1.8.3-2.3 1.2c2-.4 4 2 6.5 2-1 .4-2.4 1.1-2.5 2 2.1-1.3 10.5 2.8 11.5-1a4 4 0 0 1-.6 3.2c1.6-.6 5-.5 6.6-3.5q.3 1.9-.8 2.5 2 1.1 4.8-2.9.9-1.4.7-2.7 2.5.5 4.4-1c1.9-1.5 2.8 1.2 5.3.2 2.5-1.1 4.3.2 5.7-.3s3 .6 4.5 0c1.6-.5 3.5.9 6-.6 3.7 2.2 7.8 5.4 18.4 5 6.2-.1 7.7 2 8 5.3-.2 2.2-1 2.2-2 2.2-3.4-.5-4.8-2-6.1-1.8-1 .3-1.4 1.6-.2 2.5q-1.3 1-.4 2.1 1.2.7 3 0c-1.4.5-2.4 1.3-1.8 2.7.5.8 1.4 1.5 2.5.2q2-2.4 4.2-2"/><path d="M536.8 363.7c-1.2 0-2 .6-3.2 2q-.8 1-1.7.8a2 2 0 0 1-1.2-1q-.6-1 .1-2l.2-.1q-.9 0-1.4-.5t-.5-1.3q0-.7.5-1-.6-.7-.4-1.6t1-1.2 2.2.6a12 12 0 0 0 4 1.2q1.7.1 1.7-1.9 0-2.4-1.6-3.7-2-1.5-6-1.4a31 31 0 0 1-18.5-5q-1.4 1-3.9.6h-2q-.7.6-2.5.1-1.5-.3-2 0t-2 0q-2.4-.6-3.7.2t-3.4-.1q-1.4-.6-1.9-.1a6 6 0 0 1-4.2 1.1q0 1.3-.8 2.6-2.8 4-5 2.9l-.7-.3.6-.2q.7-.1.7-1.3-1.2 1.8-4.7 2.5l-1.5.4-.3-.5q.7-1 .6-2c-.9 1-2.8 1.1-6.7.4-2.8-.5-4-.6-4.5-.2l-.4.4v-.6q0-1.1 1.6-1.9-1-.2-2.4-1-2-1.1-2.9-.9l-.7.3.4-.7 1.2-1-1.2-.6q-1.1-.9-2-1-1.1 0-1.5-.8t.1-1.5q.8-.7 2.2-.4-1-.6-2.5-.1-.8.4-1.6-.8-.7-1.1.2-1.8t1.5-.7h-.4q-.9.3-1.4-.7t.4-1.8c2.1-1.3 4-.2 7 3.8 2 2.7 4.8 4 9.5 4.7h1q2.1.4 2.6.1.4-.1.3-.6 0-.6-.7-1.7c-2-3.6-2.3-6.1-1.3-8.7.7-1.5 2.6-3.2 6.6-5.4l1.7-1 .2-.1.1.2c2.7 5 6 7.2 11.2 7.2q2.4 0 6.1.6 4.4.8 6.8.4 7.2-1.2 15 1 3.8 1 7 .8c2.5-.2 3.4-.7 3.5-1.7q0-1.7-2.3-2.5-2.6-1-7.5-.8-10.5 0-16.6-1.5c-5.6-1.7-7.9-3.8-8-7.5.2-3.7 2.2-5.2 7-5.6q5.6 0 10.6 2.1a22 22 0 0 0 12.3 2.7l.8-.2.1.5-.8.2q-7.6 1.6-14.5-.6-3.8-1.2-7.7-1.1c-3.1.2-4.3.8-4.5 2.4.3 1.6 2.1 2.8 6.7 4a43 43 0 0 0 14 1.1 18 18 0 0 1 10.7 1.9c2.5 1.7 3.5 3.4 3.7 6q-.1 3.3-3.8 5.2a8 8 0 0 1-5.4.6 25 25 0 0 0 8.4 2.7q4.2.6 6.3.3 1.2 0 1.9.3.7.4.6 1.6-.2 2 1.4 3.5l.3.1-.2.3q-.4.3-1 .2 1.5 2 2 5.8h-.5q-.6-1.8-1.9-2.2 1 1.2 1.4 3.4.3 1.8 1 2.4l.6.7-.8-.2q-1.2-.4-1.8-1 0 .8-.5 1.6-.7 1.3-2.4 1.8l-.8.2.5-.7v-1c-1.2 1-2.5 1.3-4.8 1.2v-.6l.4-.5zm.8.1q-.6.1-1 1l-.1.3q3 .1 4.2-1.6 0-.3.3-.4l.3.4-.2.3v1.4q1.2-.4 1.8-1.4.7-1.1.2-2.1l.4-.2q.4.8 1.5 1.2l-.7-2.1q-.4-2.6-1.7-3.6l-.7-.6.8.1a3 3 0 0 1 2.3 1.4 10 10 0 0 0-2.2-4.7l-.2-.2.3-.3.2.2.5.1h.6a5 5 0 0 1-1.4-3.6q0-.9-.3-1-.5-.4-1.6-.2-2.1.2-6.4-.4c-4.9-.8-8-2.1-10.3-4l.2-.5c2.3 1.3 4.3 1.4 7 .2q3.3-1.8 3.4-4.7 0-3.4-3.4-5.6-4-2.2-10.4-1.8-7.3.5-14-1c-5-1.4-7-2.7-7.2-4.7q0-2.6 4.8-2.8 4 0 7.9 1.2a28 28 0 0 0 10.6 1q-3.7-.4-8.7-2.7a23 23 0 0 0-10.4-2c-4.6.3-6.4 1.7-6.7 5 .2 3.4 2.4 5.4 7.7 7q6 1.5 16.5 1.4 5 0 7.5.9 2.8 1 2.8 3T528 340q-3.4.1-7.2-.8-7.7-2.2-14.9-1-2.5.5-6.9-.4-3.8-.6-6-.6c-5.3 0-8.7-2.1-11.5-7.2l-1.6.9c-3.9 2.1-5.7 3.7-6.3 5.2-1 2.3-.7 4.7 1.2 8.2q.7 1.2.8 2 0 .7-.6 1t-2.7 0l-1-.1c-4.9-.6-7.8-2-10-4.9-2.7-3.8-4.5-4.8-6.4-3.6q-.6.4-.2 1t.9.5q.7-.1 2.4 1l.5.3-.2.4q-2-1.2-3.4 0-.6.4-.1 1.1t1 .5q2.3-1 3.9 1l.6.7-.8-.3q-2.1-.7-2.8 0-.4.4-.1.8.3.6 1 .6 1.1.1 2.4 1t2.2 1v.4q-1 0-1.6.6 1 0 2.5 1 2.1 1.1 3.3 1v.5q-1.7.6-2.1 1.3 1.2-.2 4.3.4c4.5.8 6.3.6 6.6-1h.4q.4 1.6-.2 2.8l1-.2c2.7-.6 4-1.5 4.8-3l.3-.8.1 1q.2 1.9-.4 2.4 1.8.3 4-3 .9-1.2.7-2.5v-.3h.2a5 5 0 0 0 4.2-1q.8-.6 2.3.1 1.9.7 3 .1 1.6-.8 4-.3 1.4.3 1.8 0 .7-.2 2.3.1t2.2 0q.7-.3 2.2 0 2.4.3 3.7-.7h.2l1.4.8a30 30 0 0 0 17 4.2c3-.1 4.8.3 6.3 1.4q1.8 1.6 1.8 4.3 0 2.4-2.1 2.3-1.9-.1-4.1-1.3-1.5-.6-2-.5-.6.2-.7.9t.6 1.2l.5.2-.5.2q-.6.3-.7.9 0 .5.3.8.8.6 2.6 0h.1l.2.4q-1 .4-1.5 1t-.1 1.4q.3.6.8.7.8.1 1.4-.6 2-2.9 4.3-2z"/><path fill="#f9dd16" d="M470.8 320.7c-3-1.9-4-2-3.3.9.3 1.2 1 3 1.7 3.9 0-1.3.5-4 1.6-4.8"/><path d="m471.4 320.8-.5.2c-1 .5-1.4 1.7-1.5 4.5v.6l-.3-.4a11 11 0 0 1-2-5.8q0-.7.6-.8.7 0 3.2 1.4zm-1 0q-2-1.3-2.6-1.2-.3 0-.3.4t.2 1.5q.5 2 1.3 3.4.3-3.3 1.3-4.2"/><path fill="#f9dd16" d="M480.3 322.2c3.1-1 4-.9 3.4 1.9-.4 1.1-1.1 2.6-1.8 3.3 0-1.3-.5-4.2-1.6-5.2"/><path d="M480.2 322q2.5-.9 3.2-.5.6.3.7 1t-.2 1.7q-.7 2.4-1.8 3.5l-.4.3v-.6q-.2-4-1.5-5l-.5-.3zm.6.3q1 1.3 1.3 4.6a8 8 0 0 0 1.5-4.4q0-.4-.3-.5-.5-.2-2.5.3"/><path fill="#f9dd16" d="M475.6 319.6c5.7 1.1 6.3 3.8 6.4 7.8-.2 4.1-1.7 2.5-3 7.6-.7 2-1.8 1.9-3.4 1.7-1.6-.3-2.8-.6-3.4-2.7-1.3-5.5-2.8-4.4-3-8.5 0-4 .6-6.6 6.4-6"/><path d="M481.1 322.3q1.1 1.7 1.1 5.2 0 2.1-1.2 3.5-1.3 1.6-1.9 4t-3.5 2c-2.2-.5-3.1-1.3-3.6-3q-.6-2.7-1.9-4.6a8 8 0 0 1-1.2-4q0-3.4 1.1-4.9c1.2-1.2 2.8-1.6 5.6-1.2q4 .7 5.5 3m-5.5-2.5q-3.9-.5-5.2 1.1-1 1.3-1 4.6 0 2 1 3.6 1.5 2.1 2 4.8.5 2 3.2 2.5t3.1-1.5q.6-2.6 2-4.2 1-1.4 1.1-3.3 0-3.2-1-4.9-1.4-2-5.2-2.7"/><path fill="#f9dd16" d="M460.8 332.5c-1.6-1.2-2.4-.8-3-.6 1.7 1 2 3.4 6.3 5.6-1-.4-1.5 0-2.5-.6a14 14 0 0 0 8 4.7c2.4.5.9 1.4-.8.5 1.9 2 4.5 1.2 6.8 4.8 0-2.8-3.2-7.2-1.8-10.2-5.8-1.4-6.4-4.7-9.7-8.3-2.7-3-3-5.2-4.2-10-.8-2.3-2.5-3.6-3.9-3.5q-1.6.6-.5 2.1c1 1 2 1.2 2.3 3.1q-2-2.6-3.7-1.7c-.5.7-.3 1.8.8 2.3 1.6.6.6 2 2.5 4.4-2-2.6-3.2-2.9-4.3-1.9-.5.8 0 2 1.2 2.1 1.7.5 3.9 5.1 6.5 7.2"/><path d="M462.7 337q-1.8-1.2-3.3-3.2a6 6 0 0 0-1.7-1.7l-.8-.3.8-.2h.3q.8-.3 1.4 0l-2.2-3q-2-3-2.9-3-1 0-1.5-1t.1-1.6q.9-.9 2-.4.6.1 1.2.7l-.3-1q-.3-1.1-1-1.4-1-.2-1.1-1.2-.3-.9.2-1.5t2-.1q.7.3 1.3 1l-1-1.3-.8-.6q-.7-.8-.6-1.6.2-.7 1.2-1 1 0 2.3.9 1.4 1.2 1.8 2.8l.5 2q1.4 5.5 3.6 7.8l2.5 3.2q3.1 4.3 7 5.2h.5l-.2.4q-1 1.5.7 5.9 1.3 3 1.1 4.1v.7l-.4-.6q-1.1-2-4-3-2-.8-2.7-1.8l.2-.4q1 .8 1.7.3l-1-.3q-4.2-.8-8-4.7h-.1l.2-.5zm-1.8-4.7-.2.4-.4-.3q-.9-.6-1.9-.4.6.5 1.3 1.5 1.9 2.5 4.4 3.7v.5h-.1l-1-.2h-.4q3.4 3.2 7 3.8 1 .2 1.3.5l.2.5-.3.3-.7.2 1.4.6q2.6 1 3.9 2.7l-1-3.2q-1.8-4.2-1-6-3.9-1-7-5.3-1.5-2.1-2.5-3a19 19 0 0 1-3.7-8.3l-.5-2a5 5 0 0 0-1.6-2.4q-1.1-.9-2-.7-.7.1-.8.7-.2.4.4 1l.6.5q1.4 1.1 1.7 2.7v1l-.4-.8a5 5 0 0 0-1.9-1.7q-.8-.4-1.5 0-.3.4-.1 1t.8.8q1 .4 1.3 1.8.3 1.2.8 2l.5.8-.3.3-.6-.8a5 5 0 0 0-1.7-1.5q-1-.2-1.6.4-.4.4 0 1 .3.6 1 .6 1 .1 3.2 3.3a20 20 0 0 0 3.4 4"/><path fill="#f9dd16" d="M507.9 358.8c-.9.2-.6 1.6-1.9 1.7 3.1.4 4.4-.1 6-1.2-.7.4-1 1.4-1 2 1.8-1.1 5-.8 7.2 0 2 .5 2.3-.3 3-1.7.6-1.3-.2-2.2-1.3-3.5-.9-1.3-1.1-2.7-1-5.4-5.6-8.5-14-6.4-14.6-2.8 3.5 4.9 3.8 4.5 6.7 5.5s4.4 1.3 2.6 2.8c-.8.4-3.3 0-5.5-.4-4.9-.9-6.6-4.3-8.3-3q-1.4 2.4 2.4 2.8c-1.8-.3-3.5-.6-3.4 1.1 1 2.8 2.8.2 4 1.3-.9-.3-2 0-2.1.9.1 1 1.6 2.1 3.8.8a5 5 0 0 1 3.4-1"/><path d="M507.2 359q-1.4 0-2.5.9-1.4 1-2.9.5-1.4-.5-1.3-1.6l.2-.6-1 .1q-.8-.3-1.1-1.6-.2-1.3 1-1.5h.3l-.3-.3q-.4-.4-.4-1t.5-1.2q.8-1 3.2.6a13 13 0 0 0 7.3 2.6q3 .4 3.3.1.6-.4.6-.7v-.3l-2.1-1-1-.3-1-.4q-2.8-1-5.8-5.3l-.1-.1v-.1c.3-2.4 1.8-3.3 5.6-3.3q5.8.1 9.5 6.1v.2q-.3 3.6 1 5.2l.2.4q1.7 2 1 3.4l-.2.3q-1 2-3 1.4c-3.4-1.2-5.4-1.1-7.1 0l-.4.4v-.6l.2-1q-2 .9-4.9.5v-.5q.6 0 1-.9zm.8 0q-.4 0-.6.7l-.4.7q2.6 0 4.5-1 0-.2.3-.3l.3.5-.3.2-.5 1c1.8-1 3.8-1 7 .2q1.5.5 2.5-1.2l.2-.3q.4-1-.9-2.8l-.3-.4q-1.3-1.9-1-5.5c-2.6-3.9-5.2-5.5-9-5.8q-5-.1-5.2 2.8 2.9 4 5.4 5l1 .4 1.1.4 2.3 1q.3.5.2 1l-.9.9q-.5.3-3.5-.1l-2-.3q-2.4-.3-5.5-2.4-2.1-1.4-2.7-.6l-.4.9q0 .3.3.5.5.5 1.7.8h.6v.6l-.6-.1q-1.3-.2-1.9-.1-.9.1-.6 1 .1 1 .7 1.1l1.2-.2q1.4-.5 2 .3l.5.6-.7-.3h-1.2q-.6.3-.7.7 0 .6 1 1 1.3.5 2.5-.5 1.6-1.1 3.5-.9z"/><path fill="#f9dd16" d="M512 347.4a9 9 0 0 0-5.3-1.5z"/><path d="M511.9 347.6q-3-1.6-5.1-1.5l-.1-.5q2.4 0 5.3 1.5z"/><path fill="#f9dd16" d="M486.5 342.5c-1.3 3.3-.7 5-.4 6.6z"/><path d="M486.7 342.6a10 10 0 0 0-.5 5.5l.1 1h-.4l-.2-1q-.5-3 .6-5.8z"/><path fill="#f9dd16" d="M471.6 324c1 .7 1.4-.6 3 1.2-.6-.5-.8 1-2-.2z"/><path d="M471.7 323.9h.9q1.1 0 2 1.1l-.2.3-.2.1q-1 .7-1.7-.3l.2-.3q.5.6 1.2.2h.1q-.6-.7-1.3-.5-.7 0-1.2-.2z"/><path fill="#f9dd16" d="M479.4 325.3c-1 .2-1.4-1.1-2.8.2.4-.3.7 1.2 1.9.4z"/><path d="M479.5 325.5q-.4.1-1.2-.2-.6-.3-1.2.1h.1q.5.8 1.1.3l.3.4q-.8.7-1.7-.2l-.2-.2-.3-.4q1-1 2-.4.6.2 1 .1z"/><path fill="#f9dd16" d="M476.6 325.5c-.4.2-.4-.3-.2 1.1.5 3 1 4-.9 3.9-1.8-.5-1.4-1.4-.8-4.1.2-1.4.2-1-.2-1.2z"/><path d="m476.7 325.7-.3.1.2.3v.5l.2 1.1q.4 1.8.2 2.3 0 .9-1.5.7-1.3-.2-1.5-1.1l.2-2.2.2-1.1.1-.5.2-.2-.3-.3.3-.3q.4.2.2 1v.5l-.2 1q-.3 1.5-.2 2t1 .7q1 .1 1.1-.4l-.2-2-.2-1.1v-.6q-.2-.7 0-.8h.2z"/><path fill="#ff0016" d="M475.6 335.6c1.6.2 2.3.3 2.2-2.2 0-1 .9-1.2.6-2.9.1 2.1-2.5 1.3-2.8.5-.4.8-3 .6-2.9-1.3-.3 1.5.6 2 .7 3-.2 2.5.6 2.6 2.2 2.9"/><path d="M475.6 335.7q-1.5-.3-1.9-.6-.5-.7-.5-2.4l-.3-1a3 3 0 0 1-.3-2h.2q0 .6.2 1l1 .5h1q.4 0 .4-.2h.3q0 .3.4.4.4.3 1 .3t1-.2q.3-.4.2-1h.2q.2 1-.3 2l-.3.9q.1 1.9-.5 2.2-.4.3-1.8.1m0-.3q1.3.2 1.7 0 .4-.4.3-2 0-.4.4-1l.3-.8v.1q-.5.3-1.1.3l-1.2-.3-.4-.4-.5.3-1.1-.1-1-.6-.2-.1.3.8q.4.8.4 1.2-.2 1.5.4 2 .3.4 1.7.6"/><path d="m474.2 330.5-3.8-1.7v-.3l3.8 1.8z"/><path d="m474.2 330.7-4.2-.7v-.2l4.2.6zm0 .3-3.5.5v-.2l3.5-.6zm2.7-.3 3.7-.6v.2l-3.6.6zm.1.2 4 .6v.2l-4-.6zm0 .2 3.5 1.7v.2l-3.6-1.6z"/><path fill="#0051ba" d="M456.3 315c-1.3-1.5-3.5-.8-3.8 1.1 1-.9 2.3.7 3.2.7q1-.6.6-1.7"/><path d="M456.4 315q.3.5 0 1.1-.1.6-.6.7t-1.3-.4q-1.4-1-2-.2 0-1.5 1.5-2 1.6-.4 2.4.8m0 0q-1-1.2-2.3-.7-1.4.4-1.6 1.7.6-.5 2 .3.9.6 1.2.4.4 0 .7-.6z"/><path fill="#0051ba" d="M455 318.5c-1.4-1.6-3.5-1-3.9 1 1-.8 2.3.7 3.2.7q1-.6.7-1.7"/><path d="M455 318.4q.3.5 0 1.1-.1.6-.7.7-.3.1-1.2-.4-1.4-1-2-.2 0-1.5 1.6-2 1.4-.4 2.3.8m0 0q-1-1.2-2.3-.7-1.4.4-1.5 1.8.5-.6 2 .2.8.5 1.1.5.4-.1.7-.7z"/><path fill="#0051ba" d="M454.2 323.2c-1.4-1.4-3.5-.4-3.6 1.6 1-1 2.3.4 3.2.2q1-.5.4-1.8"/><path d="M454.3 323.2q.4.4.1 1 0 .7-.6.9l-1.2-.3q-1.4-.6-2 0-.1-1.4 1.3-2.1 1.4-.6 2.4.5m0 0q-1-1.1-2.4-.5t-1.3 2q.6-.6 2 0 .9.4 1.2.3.5-.2.6-.8t-.2-1"/><path fill="#0051ba" d="M455.6 338.5c-1.7-1.3-3.5 0-3.5 2 .8-1 2.3.2 3.2-.1q.8-.8.3-2"/><path d="M455.6 338.5q.3.3.2 1t-.5.9-1.2-.1q-1.5-.5-2 .3-.2-1.4 1-2.4 1.4-.8 2.5.2m0 0q-1-1-2.4-.1-1.2.8-1 2.2.4-.7 1.9-.3.9.4 1.2.1.4-.2.5-.8t-.3-1"/><path fill="#0051ba" d="M455.5 341.8c-1.8-.7-3.2 1.2-2.6 3.2.5-1.4 2.1-.7 2.9-1.3q.5-1-.3-2"/><path d="M455.5 341.7q.5.3.5 1t-.2 1-1.2.4q-1.5 0-1.6 1-.7-1.4.3-2.7t2.2-.7m0 0q-1.2-.5-2.2.7-.9 1.2-.4 2.6.2-.9 1.7-1 1 0 1.2-.3.3-.4.2-1t-.5-1"/><path fill="#0051ba" d="M457.6 344.5c-1.9-.7-3.2 1.3-2.6 3.3.4-1.5 2.1-.7 2.9-1.3q.5-1-.3-2"/><path d="M457.6 344.5q.4.3.5 1t-.3 1q-.1.3-1.1.3-1.5.1-1.7 1-.6-1.4.4-2.7t2.2-.6m0 0q-1.3-.6-2.2.7t-.4 2.5q.3-.8 1.7-1 1 0 1.1-.2.3-.4.3-1-.1-.7-.6-1"/><path fill="#0051ba" d="M499.9 355.8c-1.8-.7-3.2 1.2-2.6 3.3.5-1.5 2.2-.8 2.9-1.4q.5-1-.3-2"/><path d="M499.9 355.8q.5.2.5 1l-.2 1q-.2.3-1.2.3-1.5 0-1.6 1-.7-1.4.3-2.7t2.2-.6m0 0q-1.2-.6-2.2.6-.9 1.3-.4 2.6.3-.9 1.7-1 .9 0 1.2-.3t.2-1-.5-.9"/><path fill="#0051ba" d="M502 358.3c-1.8-.4-2.9 1.7-2.1 3.7.3-1.5 2-1 2.7-1.7.2-.6.1-1.6-.5-2"/><path d="M502 358.3q.6.2.7 1l-.1 1q-.2.3-1.2.5-1.4.2-1.5 1.2-.8-1.3 0-2.7 1-1.5 2.2-1m0 0q-1.4-.4-2.1 1t-.1 2.6q0-1 1.5-1.1 1-.2 1.1-.5.3-.4.2-1-.2-.7-.6-1"/><path fill="#0051ba" d="M500.5 352.7c-1.7-1-3.4.6-3 2.7.6-1.3 2.2-.3 3-.7q.8-1 0-2"/><path d="M500.5 352.7q.5.4.4 1t-.3 1-1.3 0q-1.5-.1-1.8.7-.4-1.4.7-2.5t2.3-.2m0 0q-1.1-.8-2.2.2t-.8 2.4q.4-.8 1.8-.6h1.2l.4-1q0-.6-.4-1"/><path fill="#0051ba" d="M530.6 361.2c-1.8-.4-3 1.7-2.1 3.6.3-1.5 2-1 2.6-1.7q.5-1.1-.5-1.9"/><path d="M530.6 361.2q.6.2.7.9l-.1 1q-.2.4-1.2.6-1.4.2-1.5 1.2-.7-1.3 0-2.8 1-1.4 2.1-1m0 .2q-1.1-.6-2 .8t-.1 2.7q0-.9 1.5-1.2 1-.1 1-.5.4-.4.2-1 0-.7-.6-.8"/><path fill="#0051ba" d="M530.7 358.2c-1.7-1-3.3.7-3 2.8.6-1.3 2.3-.4 3-.8q.8-1 0-2"/><path d="M530.7 358.2q.4.3.4 1t-.3 1-1.2.1q-1.5-.1-1.9.7-.4-1.4.7-2.6 1.1-1 2.3-.2m0 0q-1.1-.7-2.3.3-1 1.1-.7 2.4.4-.8 1.8-.6 1 0 1.2-.2.4-.3.4-1 0-.5-.4-.9"/><path fill="#0051ba" d="M531.9 364.1c-1.9-.4-2.9 1.9-2 3.8.2-1.5 2-1.1 2.5-1.9q.5-1.1-.5-1.9"/><path d="M531.9 364q.4.3.6 1v1q-.3.4-1.1.6-1.5.3-1.5 1.3-.9-1.3 0-2.8.6-1.5 2-1m0 0q-1.4-.4-2 1t0 2.7q0-.9 1.4-1.3 1-.2 1.1-.5.2-.4.1-1t-.6-.9"/><path fill="#0051ba" d="M475.7 334.1c1 .2 1.4.6 1.5 2.8 0 4.8 0 6.4-1.4 6.4-1.2-.4-1.2-2-1.2-5.5q0-2.7-.3-2.6 0-1.5 1.4-1"/><path d="m475.7 334 .6.3.5.5.3.8.1 1.3q0 3.9-.2 5-.2 1.5-1.2 1.4t-1-1.4q-.2-.9-.2-3.5v-2.6l-.2-.4-.1-.1.1-.8.2-.3h.3q.3-.3.8-.1m0 0h-.8l-.5.4v.8l.2.5v2.6q0 2.7.2 3.5.3 1.2 1 1.3.9.1 1.2-1.3v-6.3q-.1-1-.7-1.3z"/><path fill="#f9dd16" d="M527.8 403c-.9.3-1 1.4-1.3 1.4 2.2.2 3.1-.3 4-1.6-.5.5-.2 1.5-.3 1.8q2.4-1.1 1.8-3.4a3 3 0 0 0 1.7 1.4c-1-1.4-.5-3.6-2.1-5.4.6.2 1.7 1 2 2.2-.2-2.4-.5-3.8-2-5.4q.6.6 1.4.2a4 4 0 0 1-1.2-3q.1-1.7-1.6-1.3c-1 .1-3.3 0-4.7-.2-3-.5-5.1-.9-7.6-3.2 3.9 2 7.6-.7 8-4.1-.3-3.8-3.3-6.8-10.5-6.2-7.5.7-15.1-1.2-15.6-4.2.6-3 5.7-2.5 9.3-1.4 3.2 1.1 5.3 1.8 11.3 0-1.7.5-6 0-9.9-1.8-4.1-2-12.2-3.3-12.9 2.9.4 6.3 9.3 7.2 18.2 7 5.1-.1 7.2.7 7.5 2.8-.5 2-4.2 2-8 1-3.6-1-7-1.3-11.2-.5-3.4.5-5.8-.8-9.5-.7-2.2 0-6-1-8.5-6-1.6 1.1-5.2 3.1-6.2 5.5q-1 3.3 1 7c1.4 3.1-.6 2.3-2.5 2.1a10 10 0 0 1-7.3-3.8c-1.6-2.5-3.2-4.2-5-3-.7.8 0 1.7.6 1.6q1 .1 2.1 1-1.9-.9-2.7 0c-.6.8 0 2 .9 1.8.7-.3 1.7-.4 2.6.7q-1.5-.7-2.2 0-.6 1.2.9 1.6c1.4.3 1.9 1.4 3.4 1.5a2 2 0 0 0-1.7 1c1.4-.4 2.9 1.6 4.8 1.6-.8.3-1.8 1-1.9 1.6 1.7-.9 7.7 2.1 8.6-.9q.3 1.3-.4 2.7c1-.6 3.6-.5 4.8-3q.2 1.5-.6 2c1.1.5 2.2 0 3.6-2.4q.7-1.3.5-2.3c1.4.2 2.2 0 3.3-1 1.2-.7 2 1.1 4 .2 1.8-1 3.2.1 4.2-.3s2.3.5 3.4 0 2.5.6 4.4-.7c2.8 1.8 5.8 4.4 13.7 4 4.6-.2 5.8 1.5 6 4.3-.2 1.8-.8 1.8-1.5 1.8-2.5-.3-3.6-1.6-4.6-1.4-.7.3-1 1.3 0 2.1q-1.2.9-.4 1.8.9.4 2.2 0c-1 .4-1.8 1-1.3 2.2.4.7 1 1.2 1.9 0q1.4-1.8 3-1.6"/><path d="M527.2 403q-1.3 0-2.4 1.8-.6.9-1.3.7-.5-.2-.9-.8-.4-1 .1-1.7l.2-.1q-.7 0-1-.4-.5-.4-.4-1t.4-1q-.5-.4-.4-1.2.1-.9.8-1 .4-.2 1.6.4a8 8 0 0 0 3 1q1.3.1 1.2-1.6 0-2-1.1-3.1-1.5-1.3-4.5-1c-4.8.2-8.8-.8-12.9-3.4l-1-.6q-1 .9-2.8.6h-1.4q-.6.4-2 .1H501q-.4.3-1.6 0-1.7-.3-2.7.3t-2.5 0q-1-.6-1.4-.1-1.4 1.2-3.2 1 0 1-.6 2.1-2 3.4-3.7 2.5l-.5-.3h.5q.5-.2.5-1.2-1 1.4-3.5 2.1l-1.2.4-.2-.4q.5-.8.5-1.7c-.7.8-2 1-5 .4q-2.9-.6-3.4 0l-.3.3v-.6q0-.8 1.3-1.5-.8-.2-1.8-.8-1.5-1-2.2-.7l-.5.2.3-.6q.4-.6.9-.8l-.9-.6q-.8-.6-1.5-.7-.9 0-1.1-.7t.1-1.2q.5-.6 1.6-.4-.8-.5-1.8 0-.7.3-1.2-.6-.5-1 0-1.6a2 2 0 0 1 1.2-.5h-.3q-.6.1-1-.7-.4-.9.2-1.4c1.6-1.1 3-.3 5.3 3q2 3.3 7 3.8h.8q1.4.3 2 0l.2-.4q0-.5-.5-1.4-2.2-4.3-1-7.2.7-2 4.9-4.7l1.3-.8v-.1l.2.2c2 4.2 4.4 5.8 8.3 5.8q1.8-.1 4.6.4 3.1.6 5 .3a23 23 0 0 1 11.2.5q2.8.9 5.2.7 2.6-.4 2.6-1.5 0-1.4-1.8-2a16 16 0 0 0-5.5-.7q-7.8.3-12.3-1c-4.2-1.3-5.9-3-6-6.1.2-3 1.6-4.4 5.2-4.8q4.1-.1 7.9 1.7c3.9 1.9 6.6 2.5 9.1 2l.6-.1.1.4-.6.2c-3.9 1-7.2.8-10.8-.3q-3-1-5.7-.9-3.3.3-3.3 2c.1 1.5 1.5 2.4 5 3.4q5 1.2 10.3.7 5-.6 8 1.4a6 6 0 0 1 2.7 5q0 2.7-2.7 4.3a5 5 0 0 1-4 .6q2.2 1.5 6.2 2.2 3 .4 4.7.2.8-.1 1.4.1.4.4.4 1.4-.1 1.7 1.1 2.9l.2.1-.2.2q-.2.2-.8.2 1.2 1.7 1.6 4.8h-.4q-.4-1.4-1.4-1.8.7 1 1 2.8a5 5 0 0 0 .7 2l.5.6-.6-.2q-.9-.2-1.4-.8 0 .8-.2 1.4-.7 1-1.9 1.5l-.5.1.3-.5v-.8q-1.2 1.1-3.5 1v-.5l.2-.4zm.6 0q-.4.2-.8 1v.1q2.2.1 3-1.3l.3-.3.2.3-.1.3v1.1q.8-.3 1.4-1.2.4-.8 0-1.8l.3-.2q.4.7 1.2 1.1-.3-.6-.5-1.8-.4-2.2-1.3-3l-.5-.4h.6q1 0 1.7 1.2a8 8 0 0 0-1.6-3.9l-.2-.2.2-.3.2.2.3.2h.5a4 4 0 0 1-1-3q0-.8-.3-1-.3-.3-1.2-.1a18 18 0 0 1-4.7-.2 14 14 0 0 1-7.7-3.3l.1-.3c1.8 1 3.2 1 5.2 0q2.6-1.4 2.6-4c-.1-2-.8-3.2-2.5-4.5-2.1-1.3-4.4-1.7-7.8-1.4q-5.3.6-10.5-.7-5.2-1.4-5.3-3.8 0-2.2 3.6-2.4 3 0 5.9.9 3.7 1.3 7.9.8-2.9-.4-6.5-2.2-3.7-1.8-7.8-1.6c-3.4.4-4.7 1.6-5 4.3.3 2.8 1.8 4.4 5.8 5.7q4.4 1.2 12.2 1 3.8 0 5.7.6 2 .8 2 2.5.1 1.6-2.8 1.9-2.5.2-5.3-.6-5.9-1.7-11.1-.6-2 .4-5.1-.3-3-.4-4.5-.4c-4 0-6.5-1.6-8.6-5.9l-1.1.8c-3 1.9-4.3 3.2-4.8 4.5-.7 2-.5 3.9 1 6.8q.5 1 .5 1.6t-.4.9-2 0h-.8q-5.2-.7-7.4-4-2.8-4.6-4.7-3-.5.4-.3 1 .3.4.7.3.6-.1 1.8.8l.4.2-.2.4q-1.4-1-2.5 0-.4.4 0 1 .3.6.7.4 1.7-.8 2.9.7l.4.6-.6-.2q-1.5-.6-2 0-.3.3-.1.7t.8.5q.7 0 1.7.8.9.7 1.6.7v.4q-.7 0-1.2.5.7 0 2 .8 1.4 1 2.3.9l.1.4q-1.2.4-1.6 1l3.3.3c3.3.6 4.6.4 4.8-.8h.3q.3 1.1-.1 2.3l.7-.2q2.9-.8 3.6-2.5l.2-.7.1.7q.2 1.6-.3 2 1.4.4 3-2.4.6-1.2.5-2.2v-.2h.1q1.8.4 3.2-.9.5-.5 1.7 0 1.4.6 2.3.1 1-.7 2.8-.3h1.4q.6-.3 1.7 0t1.7 0q.4-.3 1.6-.1 1.7.2 2.8-.6h.1l1 .6q5.8 3.8 12.7 3.3 3.2-.2 4.7 1.1 1.4 1.4 1.4 3.6 0 2-1.6 2a8 8 0 0 1-3-1.1q-1.1-.6-1.5-.4t-.6.7q-.1.7.5 1l.3.2-.3.2q-.5.3-.5.7t.2.7q.6.5 2 0l.1.3-1.1.8q-.4.5-.1 1.1t.7.7q.4.2 1-.6 1.5-2.2 3.2-1.7z"/><path fill="#f9dd16" d="M478 368.2c-2.3-1.5-2.9-1.7-2.4.7.2 1 .7 2.5 1.3 3.3 0-1.1.3-3.4 1.2-4"/><path d="m478.5 368.2-.4.2q-1 .5-1 3.8v.5l-.4-.4a9 9 0 0 1-1.5-4.8q.1-.6.5-.6.6 0 2.4 1zm-.8 0q-1.4-1-2-1l-.1.4.1 1.3q.4 1.7 1 2.7.1-2.7 1-3.4"/><path fill="#f9dd16" d="M485.1 369.3c2.3-.9 3-.8 2.5 1.5q-.4 1.7-1.3 2.8c0-1-.4-3.5-1.2-4.3"/><path d="M485 369q1.9-.6 2.5-.3.4.1.4.7l-.1 1.4a7 7 0 0 1-1.4 3l-.2.3v-.5q-.2-3.4-1.2-4.2l-.3-.2zm.5.4q.9 1 1 3.7a8 8 0 0 0 1.1-3.6q0-.4-.2-.4-.5-.2-1.9.3"/><path fill="#f9dd16" d="M481.6 367.1c4.3 1 4.8 3.1 4.8 6.5-.2 3.4-1.3 2-2.3 6.3-.4 1.7-1.3 1.7-2.5 1.5s-2-.4-2.5-2.2c-1-4.5-2.1-3.6-2.3-7 0-3.4.5-5.5 4.8-5"/><path d="M485.7 369.3a9 9 0 0 1 .9 4.3q0 1.9-1 3-.9 1.4-1.3 3.4t-2.7 1.6-2.7-2.4q-.4-2.1-1.3-3.8-1-1.4-1-3.3 0-2.9.9-4 1-1.6 4.1-1.2t4.1 2.4m-4.1-2c-2-.2-3 .1-3.9 1q-.7 1.1-.7 3.9 0 1.6.8 3 1 1.6 1.5 4 .3 1.6 2.3 2t2.3-1.3a9 9 0 0 1 1.5-3.6q.8-1 .8-2.7a9 9 0 0 0-.7-4q-1.1-1.7-3.9-2.3"/><path fill="#f9dd16" d="M470.6 378c-1.2-.8-1.8-.5-2.3-.4 1.4.9 1.6 2.8 4.7 4.6-.7-.3-1 0-1.8-.5a10 10 0 0 0 6 3.9c1.7.4.6 1.1-.6.4 1.4 1.6 3.3 1 5 3.9 0-2.3-2.3-6-1.4-8.4-4.2-1.3-4.7-3.9-7.2-7-2-2.3-2.2-4.2-3-8.2-.7-1.8-2-3-3-2.8q-1.2.5-.3 1.8c.7.7 1.4 1 1.7 2.6q-1.5-2.3-2.8-1.4c-.3.5-.2 1.5.6 1.8 1.2.5.5 1.7 1.8 3.7q-2-3-3.1-1.5c-.4.6 0 1.6.9 1.7 1.2.4 2.9 4.2 4.8 5.9"/><path d="M472 381.8q-1.4-1-2.5-2.6l-1.2-1.3-.6-.4h.6l.2-.1q.6-.3 1-.1l-1.6-2.4q-1.5-2.4-2.1-2.5-.7 0-1.1-.8-.4-.7 0-1.3.7-.8 1.6-.4l.8.6-.2-.9q-.3-1-.7-1-.7-.3-.9-1-.1-.9.2-1.3.5-.6 1.4-.2.6.3 1 .9l-.8-1-.6-.6q-.4-.6-.4-1.3.2-.5.9-.8.7-.2 1.7.7 1 1 1.4 2.3l.3 1.6a16 16 0 0 0 2.7 6.6q.8.8 2 2.6 2.2 3.5 5.2 4.2h.3l-.2.3q-.8 1.3.6 4.9 1 2.5.8 3.5v.5l-.3-.5a6 6 0 0 0-3-2.5q-1.5-.6-2-1.4l.1-.3q.9.5 1.3.2l-.7-.2a11 11 0 0 1-6-3.8l-.1-.1.2-.3zm-1.4-3.9v.4q-.3 0-.4-.3-.7-.5-1.4-.2l1 1.1q1.4 2.2 3.2 3v.5l-.8-.1h-.3q2.6 2.5 5.3 3l.9.4.1.4-.1.3-.6.2 1 .5a6 6 0 0 1 3 2.1l-.8-2.5q-1.2-3.6-.7-5-2.9-1-5.2-4.4l-1.9-2.5q-1.6-2.1-2.8-6.8l-.3-1.6a5 5 0 0 0-1.2-2q-.8-.9-1.5-.7-.5.2-.6.6t.3.8l.5.5q1 1 1.2 2.3v.7l-.3-.6q-.6-1-1.4-1.4-.7-.5-1 0t-.2.8q.1.6.6.7.7.2 1 1.5.1 1 .6 1.7l.3.6-.2.2-.4-.6-1.3-1.2q-.7-.2-1.2.3-.3.4 0 .9t.8.5q.7 0 2.3 2.7a16 16 0 0 0 2.5 3.2"/><path fill="#f9dd16" d="M505.7 399.4c-.7.2-.5 1.4-1.4 1.5 2.3.3 3.2-.2 4.4-1.1q-.7.6-.8 1.7c1.4-1 3.8-.8 5.4-.2 1.5.5 1.7-.2 2.2-1.4s-.1-1.8-.9-2.9c-.7-1.1-.8-2.3-.7-4.5-4.4-7-10.3-5.1-10.9-2.2 2.5 4 2.8 3.8 5 4.6 2.1.9 3.2 1 2 2.3-.7.3-2.5 0-4.2-.3-3.6-.7-4.9-3.5-6.1-2.3q-1 2 1.7 2.2c-1.3-.2-2.6-.5-2.5 1 .7 2.3 2 .1 3 1q-1.2-.3-1.6.8c.1.8 1.2 1.7 2.9.5q1.4-.9 2.5-.7"/><path d="M505.2 399.6q-1 0-2 .7-1 1-2 .5-1.1-.4-1-1.3v-.4h-.6q-.7-.2-.9-1.3-.1-1.1.8-1.3h.2l-.2-.2-.3-.9.3-1q.7-.8 2.4.5a9 9 0 0 0 4 1.8l1.5.2q2.1.4 2.4.1.4-.3.5-.6v-.2q-.3-.3-1.6-.8l-.8-.3-.7-.3q-2-.8-4.3-4.3v-.1q0-3 4.1-3c3 .3 5 1.7 7 5v.2q0 2.9.8 4.3l.2.3q1.2 1.7.7 2.9l-.1.2q-.8 1.7-2.3 1.2c-2.5-1-4-.9-5.3.1l-.3.4v-.6l.2-.8a6 6 0 0 1-3.6.4v-.4q.3 0 .7-.7 0-.2.2-.3m.5 0q-.2 0-.4.6l-.3.5q2 0 3.3-.9l.3-.2.2.4-.3.2-.3.8q1.8-1.2 5.2 0 1.3.6 1.9-1l.1-.2q.3-.9-.6-2.3l-.3-.3q-1-1.6-.8-4.6c-1.9-3.2-3.8-4.5-6.7-4.7q-3.6 0-3.8 2.4 2.1 3.4 4 4.1l.8.3.8.3q1.5.6 1.7.9.3.3.1.7 0 .3-.6.8-.3.3-2.6 0l-1.6-.2a9 9 0 0 1-4-2q-1.5-1-2-.5l-.3.8q0 .3.2.4.3.4 1.3.7h.4v.4h-1.8q-.6 0-.5.8t.5.9l1-.2q1-.4 1.4.2l.4.5-.6-.2q-.4-.2-.8 0t-.5.6q0 .6.7.8.9.3 1.9-.4 1.2-1 2.6-.8z"/><path fill="#f9dd16" d="M508.7 389.8q-1.8-1.2-4-1.1z"/><path d="M508.6 390a6 6 0 0 0-3.8-1.1v-.5q1.7 0 4 1.2z"/><path fill="#f9dd16" d="M489.7 386.1c-1 2.7-.5 4.1-.3 5.5z"/><path d="M489.9 386.2a9 9 0 0 0-.4 4.6l.1.8h-.3l-.2-.8q-.3-2.6.4-4.8z"/><path fill="#f9dd16" d="M478.7 371c.7.4 1-.6 2.1.8-.4-.3-.5.9-1.4-.1z"/><path d="M478.8 370.8h.6q.8 0 1.5.9l-.2.3h-.1q-.8.6-1.3-.2l.2-.3q.4.5.8.2h.1q-.4-.6-1-.4-.5 0-.8-.2z"/><path fill="#f9dd16" d="M484.5 371.9c-.8.2-1-1-2.2.2.4-.3.6 1 1.5.2z"/><path d="M484.6 372q-.3.2-1 0-.4-.3-.9 0h.1q.5.6.8.2l.3.4q-.7.5-1.3-.2l-.1-.2-.3-.3q.7-.9 1.6-.4l.6.2z"/><path fill="#f9dd16" d="M482.3 372c-.3.2-.2-.1 0 1 .3 2.4.7 3.3-.7 3.2-1.4-.3-1-1-.7-3.4.2-1.1.2-.7 0-1z"/><path d="m482.4 372.2-.2.1.1.3v.4l.3 1v1.8q0 .8-1 .6-1-.1-1.2-.9l.2-1.8.2-1v-.4l.1-.2-.2-.1.2-.3h.1q.3.1.1.8v.4l-.2 1q-.2 1.2-.1 1.6 0 .4.8.5.7 0 .8-.3l-.2-1.8-.1-.8-.1-.5.1-.7h.1z"/><path fill="#ff0016" d="M481.6 380.5c1.2.2 1.7.2 1.6-1.8 0-.9.7-1 .5-2.5 0 1.7-1.9 1.2-2.1.4-.2.7-2.2.6-2.1-1-.2 1.3.4 1.7.5 2.6-.2 2 .4 2 1.6 2.3"/><path d="M481.6 380.6q-1-.2-1.4-.5-.5-.6-.3-2l-.3-.8q-.4-1-.2-1.7h.2l.1.9.7.4h.8q.3 0 .3-.3h.2q0 .3.3.4t.8.2q.4 0 .7-.2t.1-.8h.2q0 .9-.3 1.7l-.2.8q.1 1.4-.4 1.8-.3.3-1.3.1m0-.2h1.3q.3-.4.2-1.7l.3-1 .2-.6v.1l-.8.3-.9-.2-.3-.4-.4.2h-.8l-.8-.5.2.6q.3.6.2 1 0 1.4.3 1.7t1.3.5"/><path d="m480.5 376.3-2.7-1.4v-.2l2.8 1.4zm0 .1-3-.5v-.1zm.1.3-2.6.5v-.3l2.6-.4zm2-.3 2.8-.6v.2l-2.7.6zm0 .2 3.1.4v.2l-3-.4zm0 .2 2.6 1.3v.2l-2.6-1.3z"/><path fill="#0051ba" d="M467.3 363.6c-1-1.3-2.6-.7-2.9 1 .8-.8 1.7.5 2.4.4q.9-.2.5-1.4"/><path d="M467.3 363.6a1 1 0 0 1-.5 1.5q-.1.1-.9-.4-1-.6-1.5-.1 0-1.2 1.2-1.6t1.7.6m0 0q-.7-1-1.7-.6t-1.2 1.5q.5-.5 1.5.2.7.4 1 .3.3 0 .4-.5z"/><path fill="#0051ba" d="M466.3 366.5c-1-1.4-2.7-.7-2.9 1 .8-.8 1.7.5 2.4.4q.7-.4.4-1.4"/><path d="M466.3 366.5v.9q-.2.4-.5.6l-1-.4q-1-.7-1.4-.2 0-1.2 1.1-1.6 1.1-.3 1.8.7m0 0q-.7-1-1.8-.6-1 .3-1 1.5.4-.5 1.4.2l.9.3q.3-.1.5-.5z"/><path fill="#0051ba" d="M465.7 370.5c-1.1-1.2-2.6-.4-2.7 1.3.7-.9 1.7.3 2.4.2q.8-.6.3-1.6"/><path d="M465.7 370.5q.3.3.2.8t-.5.7l-1-.2q-1-.6-1.4 0 0-1.2 1-1.8 1-.5 1.7.4m0 0q-.7-.9-1.7-.3-1 .5-1 1.7.4-.6 1.5 0l.9.2.4-.7z"/><path fill="#0051ba" d="M466.7 383.1c-1.2-1-2.6.1-2.5 1.8.6-1 1.7 0 2.3-.2q.7-.6.2-1.6"/><path d="M466.7 383.1q.3.4.2 1t-.4.6h-1q-1-.4-1.3.2-.3-1.1.7-2 1.1-.6 1.8.2m0 0q-.8-.8-1.7 0-1 .6-.8 1.7.3-.5 1.4-.2.6.3 1 .1l.3-.7q0-.6-.2-.8"/><path fill="#0051ba" d="M466.6 385.9c-1.3-.5-2.3 1.1-1.9 2.8.4-1.3 1.6-.7 2.1-1.2q.5-.9-.2-1.6"/><path d="M466.6 385.9q.4.2.4.8l-.1.8q-.2.3-1 .3-1 0-1.1.9-.5-1.2.2-2.3t1.6-.5m0 0q-.8-.5-1.6.5-.6 1.1-.3 2.2.2-.7 1.3-.8.7 0 .8-.3t.2-.8-.4-.8"/><path fill="#0051ba" d="M468.2 388.2c-1.4-.6-2.4 1-2 2.8.4-1.3 1.6-.7 2.2-1.2q.5-.9-.2-1.6"/><path d="m468.2 388.1.4.8q0 .6-.2 1l-.9.2q-1 0-1.2.9-.4-1.2.2-2.3.8-1 1.7-.6m0 0q-.9-.5-1.6.6t-.3 2.2q0-.7 1.2-.8.7 0 .9-.3t.1-.9-.3-.7"/><path fill="#0051ba" d="M499.7 397c-1.3-.5-2.3 1.1-1.9 2.8.3-1.3 1.6-.7 2.1-1.2q.5-.9-.2-1.6"/><path d="M499.7 397q.4.3.4.8t-.2.9q-.1.2-.9.2-1 0-1.2.9-.4-1.2.3-2.3t1.6-.5m0 0q-.8-.5-1.6.6-.7 1-.3 2 .1-.6 1.2-.7.8 0 .9-.3.3-.3.2-.8t-.4-.8"/><path fill="#0051ba" d="M501.3 399.1c-1.4-.3-2.2 1.5-1.6 3 .2-1.2 1.5-.8 2-1.4.2-.5.1-1.3-.4-1.6"/><path d="M501.3 399q.4.3.5.8v1l-1 .4q-1 .2-1 1h-.1q-.5-1 0-2.3.7-1.2 1.6-.8m0 0q-.9-.3-1.5.8t-.1 2.2q0-.7 1.2-1 .6 0 .8-.4v-.9q0-.4-.4-.7"/><path fill="#0051ba" d="M500.2 394.5c-1.3-.9-2.5.5-2.3 2.2.5-1.1 1.7-.3 2.3-.6q.5-.8 0-1.7"/><path d="M500.2 394.4q.3.3.3.9 0 .5-.3.8-.2.2-1 0-1 0-1.3.6-.3-1.1.6-2.1t1.7-.2m0 0q-.8-.7-1.7.2a2 2 0 0 0-.6 2q.3-.7 1.4-.5h.9l.3-.8q0-.5-.3-.8"/><path fill="#0051ba" d="M522.6 401.1c-1.4-.4-2.2 1.5-1.6 3 .2-1.2 1.5-.8 2-1.4.2-.5 0-1.3-.4-1.6"/><path d="M522.6 401q.3.2.5.8l-.1 1q-.1.2-.9.4-1 .2-1.1 1-.5-1 0-2.3.7-1.2 1.6-.8m0 0q-.9-.4-1.5.8t-.1 2.2q0-.7 1.1-1 .7 0 .8-.4.2-.3.1-.9 0-.6-.4-.7"/><path fill="#0051ba" d="M522.6 398.6c-1.3-.8-2.5.7-2.2 2.3.5-1 1.7-.2 2.3-.7q.5-.7 0-1.6"/><path d="m522.6 398.6.4.8q0 .5-.3.8-.2.2-1 .2-1-.1-1.3.6-.3-1.2.5-2.2 1-1 1.7-.2m0 0q-.8-.6-1.6.2-.8 1-.6 2.1.3-.7 1.4-.6l.9-.1.2-.8q0-.5-.3-.8"/><path fill="#0051ba" d="M523.5 403.5c-1.4-.2-2.1 1.6-1.5 3.2.2-1.3 1.5-1 2-1.6q.2-1-.5-1.6"/><path d="M523.5 403.5q.4.1.5.7v1q-.2.2-.9.4-1 .3-1 1v.1q-.7-1-.1-2.3t1.5-1m0 .1q-.9-.4-1.5.9-.4 1.2 0 2.2 0-.7 1.1-1 .7-.2.8-.5v-.9q0-.6-.4-.7"/><path fill="#0051ba" d="M481.7 379.3c.8.1 1 .4 1 2.2 0 4 0 5.4-.9 5.4-1-.3-1-1.6-1-4.5q0-2.3-.2-2.2c0-1 .3-1 1-1"/><path d="m481.7 379.2.4.2.4.4.2.7.1 1-.1 4.2q-.2 1.3-.9 1.2t-.8-1.1l-.2-3v-2.5h-.1v-.7l.2-.2.2-.1zm0 0h-.6q-.3 0-.3.3l-.1.6v.1l.2.4v2.2l.1 2.9q.2 1 .8 1 .7.1.8-1l.1-5.3q-.1-.7-.6-1z"/><path fill="#1a1a1a" d="M8 195.3c170.8-85.3 341-54.5 513.3-28C676.5 191 833.4 211.8 992 132.7v672c-170.8 85.3-341 54.5-513.3 28C323.5 809 166.6 788.1 8 867.2zm31.3 19.3v604.5c306.5-128.2 611.1 96 921.5-33.7V180.9C654.2 309 349.5 84.9 39.3 214.6" opacity=".2"/></svg>