<svg xmlns="http://www.w3.org/2000/svg" viewBox="0 0 1000 1000"><path fill="#032ea1" d="M8 195c171-85 342-54 514-28 155 24 312 45 470-34v672c-171 85-342 54-514 28-155-24-312-45-470 34z"/><path fill="#e00025" d="M8 363c171-85 342-54 514-28 155 24 312 45 470-34v336c-171 85-342 54-514 28-155-24-312-45-470 34z"/><path fill="#fff" d="m411 468 179 26v74l-179-27z"/><path d="m411 467 179 26 1 1v74h-1l-179-26zm1 2v71l178 27v-72z"/><path fill="#fff" d="m581 533 6 1v28l-6-1zm-170-38 179 26v9l-179-27zm0-12 179 26v8l-179-26z"/><path d="m411 494 179 26 1 1v9h-1l-179-26zm0-12 179 27 1 1v7l-1 1-179-27zm1 13v7l178 27v-7zm0-11v6l178 26v-6zm169 49h6l1 1v28l-1 1-6-1-1-1zm1 1v26l4 1v-26z"/><path fill="#fff" d="m411 471 179 27v7l-179-26z"/><path d="m411 471 179 26 1 1v7l-1 1-179-27zm1 1v6l178 26v-5z"/><path fill="#fff" d="m458 515 6 1v28l-6-1zm78 12 5 1v27h-5zm-123-19 5 1v28l-5-1zm11 2 5 1v27h-5zm12 2h5v28l-5-1zm11 1 6 1v28l-6-1zm99 15 6 1v28l-6-1zm12 2 6 1v28l-6-1zm12 2 6 1v27h-6z"/><path d="M413 508h5l1 1v28l-1 1-5-1-1-1v-28zm11 1 5 1 1 1v28h-1l-5-1h-1zm12 2 5 1 1 1v27l-1 1-5-1-1-1v-27zm11 2h6l1 1v28l-1 1-6-1zm11 1 6 1 1 1v28h-7zm78 12 5 1 1 1v27l-1 1-5-1-1-1v-27zm10 2h6l1 1v28l-1 1-6-1zm12 1 6 1 1 1v28l-1 1-6-1-1-1v-28zm12 2 6 1v29l-6-1-1-1zm-157-22v26l5 1v-26zm12 2v26l4 1v-27zm11 2v26h4v-26zm12 1v26l4 1v-26zm11 2v26l4 1v-26zm77 12v26h4v-26zm11 1v26l4 1v-26zm12 2v26l4 1v-26zm12 2v26h4v-26z"/><path fill="#fff" d="M341 537q5-2 7-8c100 9 201 31 304 41q2 6 7 9c-105-9-210-32-318-42"/><path d="M341 536q4-2 6-7l1-1c100 9 201 31 305 41q2 6 6 9v2c-105-9-210-33-318-42zm3 1c103 9 206 32 312 41l-4-8c-100-9-200-31-303-40z"/><path fill="#fff" d="M496 368s0-6 4-6c3 1 3 7 3 7zm-19 89v-10l-5-9 1-7q3 9 5 4 0-3-6-12-1-4 1-10 1 8 4 9 2 0 2-4l-3-8q-1-6 2-9 0 8 2 8c4-2 1-8 0-10l1-6q1 6 3 5 3-1 0-6-3-2 0-5 3 4 3 2l-1-8 27 4-1 7q0 4 4 0 2 3 0 5-3 4-1 6t4-4l1 6c-1 2-5 7-1 10q2 0 3-7 3 5 2 9l-4 8 3 4q2 1 3-8 3 6 1 11l-5 9c0 3 3 5 5-2l1 8c-1 3-4 3-5 8v9zm11-76-1-5 25 4v5zm2-5-1-4 22 3-1 4zm3-4v-4l14 2v4zm52 193q-5-3-8-10v-40l4-5-83-13 4 6v41q-1 6-6 7z"/><path d="M545 564v2l-89-14v-1q5-3 6-7v-41l-5-7 86 13-5 6v40q0 5 7 9m-41-195h4l-1 5h4v5h2v5l1 1-1 7v1q2 1 2-2l1-1v1q4 4 1 7l-2 3 1 1 2-3v-1l1 1q3 3 2 6v1l-3 5 1 3 2-4v-4l1 2q5 4 2 10l-1 3-2 4q0 3 2 3t2-7l1-2 1 2 2 6-1 5-2 3-3 7v1h1l2-4 1-2v2q2 3 1 8l-2 4-2 4v10l-48-8v-10l-2-4-3-5 1-7 1-2 1 2q0 4 2 5h1v-2l-3-7-2-4-1-5q0-4 2-5l1-2v2l3 8 1-1v-2l-1-4-2-4q-1-6 2-9l1-1v1l1 3 1 4q2 0 1-3l-2-5v-1q-2-3 1-6l1-1 1 1 2 4 1-1-2-3q-3-3 0-7h1v1l2 2h1v-1l-2-8h2v-5h2l-1-4h4v-4h4v-3q1-3 4-3t4 5zm38 195q-5-4-6-9v-41l4-4-80-12 3 5v41q0 4-4 7zm-65-108 45 7v-9l3-5 2-2v-5l-3 3-2-1-1-3 4-7 2-3v-7q-1 6-4 5l-2-1-1-3 1-5 2-3q2-4-1-7v1q0 5-3 5v-1q-3-1-2-5l2-5v-4q-1 4-4 3-2-1-1-4l2-3v-4l-3 2-1-1-1-2 2-6-26-4 1 7v1h-2q-2 1-2-2v4l2 4q0 3-2 3l-3-4-1 4 3 6q1 4-2 5h-1l-3-6v-1 7l1 3 2 6q0 3-3 3t-4-6v7l2 3 3 9v2h-2l-3-3v4l2 4 2 6zm34-72v-4l-23-3 1 3zm-2-6 1-2-20-3v2zm-3-5v-2l-12-2v2zm-3-5-1-2q0-3-2-3-1-1-3 2v2z"/><path fill="#fff" d="m473 517 6 1v28l-6-1zm48 8h5v28l-5-1z"/><path d="m473 516 6 1v30l-6-1-1-1v-28zm48 8 5 1 1 1v27l-1 1-5-1-1-1zm-47-6v26l4 1v-26zm48 7v27h4v-26z"/><path fill="#fff" d="M457 450v47l85 13v-47l-4 4v20l-77-12v-19q0-2-4-6"/><path d="M456 449q4 3 5 6v20l75 11v-19q1-3 5-5h1v49l-87-14zm2 2v45l83 13v-45l-2 4v20l-79-12v-20z"/><path fill="#fff" d="M530 563q-6-4-9-10v-46q2-3 6-4l-56-9 7 7v45q-2 6-8 8z"/><path d="m531 562-1 2-60-10v-1q7-3 7-7v-45q-1-3-5-6h-1v-2l59 9-2 1-2 1-4 4v45q0 4 9 9m-4 0q-6-5-6-9v-46q0-2 4-4l-51-8 4 5v46q1 4-5 7z"/><path fill="#fff" d="M538 505v-33l-8-1v-4l-61-9v3l-8-1v33zm-20 56q-5-3-7-10v-39l3-3-28-4 2 4v39q-1 6-7 7z"/><path d="m539 506-78-12v-35l7 1v-3l63 10v3l8 1zm-2-2v-32l-8-1v-3l-59-9v3l-8-1v31zm-19 56v2l-37-6v-2q6-1 6-6v-39l-3-5 31 5-3 4v39q0 4 6 8m-3 0q-4-4-4-9v-39l1-2-25-4 2 3v39q0 4-5 7z"/><path fill="#fff" d="m493 506 14 2v51l-14-2z"/><path d="m492 505 16 2v53l-16-2zm1 2v49l13 2v-49z"/><path fill="#fff" d="M514 498c1-3 9-2 14-4l-56-9c5 4 13 5 13 9l2 6 24 5z"/><path d="m515 498-4 7h-1l-23-5h-1l-2-7v-1q1-1-6-3l-7-4 1-2 56 9v2l-7 1zm-2 0q1-3 8-4h3l-49-7 4 1q7 3 7 6l2 6 22 4z"/><path fill="#fff" d="M525 464q0-11 3-11v26c-6 2-10 9-10 9l-37-6s-4-8-9-11v-26q3 0 2 11zm3-3c0-9 7-9 8-9v8q-5 0-5 7 2 5 3 4v24l-6-1z"/><path d="M527 481q-5 1-8 8h-1l-37-6q-4-8-10-12v-27h1l3 4v8l50 7q0-11 3-11l1 1v2l2-3 5-1v10l-3 1-1 5q0 3 2 3v26l-7-1zm-1-16-52-8v-1q0-9-2-10v24q6 4 10 12l36 5q3-6 9-8v-25zm3-4v32l4 1v-22q-3-2-2-6l1-5q1-2 3-2v-6l-3 1q-3 2-3 7"/><path fill="#fff" d="M472 453c-1-10-8-12-8-12v8q4 1 4 8-1 5-2 4v23l6 1z"/><path d="M472 453v33l-7-1v-25h1l1-3v-5l-3-2h-1v-10h1l4 3q4 3 4 10m-1-1q0-5-4-8l-2-2v7l3 2 1 6q0 4-2 4v23h4zm5-16 48 7v2l-48-8zm1-15 46 7v1l-46-7zm3-13 39 6v2l-39-7zm3-10 33 5v1l-33-5zm4-9 27 4v2l-27-4zm-26 94 77 12v2l-23-4v11l-30-4v-12l-24-3zm25 6v9l27 4v-9z"/><path fill="#fff" d="M482 462q6 12 4 23l28 5q-2-12 4-22zm15-66-3-3v-6l3 4q1-4 3-4t3 5q1-4 3-3v6l-3 2z"/><path d="m480 461 39 6-1 2q-3 4-4 20v2l-29-5v-2q1-15-4-21zm3 2q4 8 4 21v1l26 4v-1q0-14 3-19zm14-67-4-3v-7h1v1l3 2 2-3h1v-1l1 1v1q2 1 2 3l3-2h1v8l-4 1zm1-1 5 1 3-2v-4l-2 2h-2l-1-4h-1l-2 3h-2q1-1-2-3v5z"/><path fill="#fff" d="m497 405-6-5v-6q3 1 5 5 1-6 4-7l4 8q2-4 5-3v6l-6 3z"/><path d="m497 406-7-6v-7l1 1h1l4 2q1-3 4-5l5 7 3-2h2v7l-7 4zm0-1h6l5-3v-4q-3 0-3 2h-1l-4-7q-3 1-3 6h-2q0-3-3-3v4z"/><path fill="#fff" d="m497 420-7-7v-8q4 0 5 6 2-9 5-11 4 4 5 12 1-5 6-4v8l-8 5zm13 11-7 9-7-1-6-11zm-24 13q4 3 5 13l18 3q0-10 5-12z"/><path d="m496 421-7-8v-10l1 1h1l4 4q1-6 5-9l1 1q3 3 4 9 1-2 5-2h1v9l-7 6zm-10 23v-1l28 4v2q-4 1-4 11v1l-20-3v-1q-1-10-4-13m2 1q3 3 3 11l17 3 3-11zm9-25h6l7-5v-6q-4 0-4 3h-2l-4-11q-3 3-4 10h-2q0-4-4-5v6zm13 12-6 9-8-2-8-12 23 4zm-2 0-17-3 5 9 7 1z"/><path fill="#fff" d="M514 432v-10q-5 1-6 5-1-7-8-16-8 7-8 13-1-4-6-6v9z"/><path d="m515 432-1 1-28-5-1-1v-9l1-1 5 4q2-5 8-10h1l8 13 6-3 1 1zm-2-1v-8l-4 4h-2l-2-7-5-8q-8 7-8 12h-1l-5-5v8z"/><path fill="#fff" d="M515 448v-10q-4 1-6 5c0-3-5-11-9-16q-8 7-9 13-1-5-7-6v9z"/><path d="m516 448-31-5-1-1v-9l1-1q4 2 6 5 2-6 9-11h1l9 14q2-3 6-3l1 1zm-2-1v-8l-5 4h-1l-3-7-5-8q-8 7-8 12h-2q-1-3-5-5v8z"/><path fill="#fff" d="M519 468v-11l-8 5c0-6-6-15-11-19-5 2-11 10-11 16q-2-4-9-8v11z"/><path d="m520 468-1 1-39-6v-12h1l7 6 4-8q3-6 7-7h1l8 9 3 9 8-4 1 1zm-2-1v-9q-3 1-6 5l-2-1-3-10-7-8q-4 2-7 6-4 5-4 9h-1q-3-4-7-6v9z"/><path fill="#fff" d="M517 492v-11q-5 3-6 7-2-20-11-29c-5 3-12 14-11 26q-2-5-6-9v11z"/><path d="M518 493h-1l-34-5-1-1v-11l1-1 5 6 3-13q4-7 8-9h1q5 3 8 12l4 14 4-5 2 1zm-2-1v-10q-3 2-4 6l-1 1-1-1a41 41 0 0 0-10-28q-4 3-7 9-4 8-4 16h-1l-1-1-4-7v10z"/><path fill="#fff" d="M514 509v-11q-5 0-5 4-1-12-9-19-9 5-9 16l-6-6v12z"/><path d="m515 510-30-4v-14 1l5 3q0-3 3-7 2-4 6-7h1a27 27 0 0 1 10 17l4-2h1zm-2-2v-9l-3 3v1l-2-1-2-10-6-8q-4 2-6 6l-3 9-1 1v-1l-4-4v9z"/><path fill="#fff" d="M348 529v-34q-2-8-7-10v-30l6 4 7 32v38z"/><path d="M347 495q-2-7-6-9l-1-1v-32l8 5 6 33v39h-7zm2 33 4 1v-38l-7-32-4-3v28q5 3 7 10z"/><path fill="#fff" d="M348 529v-34q-2-8-7-10v-32c4 0 6 5 6 6l7 32v38z"/><path d="M347 495q-2-7-6-9l-1-1v-33h1q4 0 7 6l6 33v39h-7zm2 33h4v-37l-7-32q-1-4-4-6v31q5 3 7 10z"/><path fill="#fff" d="M344 537q5-2 7-7v-43l-2-4 68 8-2 3v43q0 6 5 9z"/><path d="M344 537q6-2 6-8v-42l-2-5 71 8-4 4v43q1 5 5 9v1l-76-9zm3 0 70 8q-3-3-3-8v-43l2-3-66-7 1 2v44q0 4-4 7"/><path fill="#fff" d="M406 544q-5-3-6-9v-41l5-5-46-5 5 6v41q-1 6-6 8z"/><path d="m407 544-1 1-48-5-1-2q6-3 7-7v-41l-7-7 50 6-7 6v40q0 5 7 9m-4-1q-4-3-4-8v-41l4-4-42-5 4 5v41q0 4-4 7z"/><path fill="#fff" d="M400 544q-6-3-7-10v-37l4-5-30-3 4 6v37q-1 5-7 7z"/><path d="M400 543v1l-36-4v-1q6-3 6-7v-37l-4-7 32 3-4 7v36q0 5 6 9m-3-1q-5-3-5-8v-37l3-4-26-3 3 5v37q0 4-5 7z"/><path fill="#fff" d="m375 490 14 1v51l-14-1z"/><path d="m374 489 16 1v53l-16-2zm2 1v50l12 1v-49z"/><path fill="#fff" d="M356 502h5v28l-5-1zm48 5 6 1v28l-6-1zm-53-52h7v29l-7-1zm0-6 7 1v5l-7-1z"/><path d="m351 448 7 1v35h-7l-1-1v-34zm5 53h5l1 1v28l-1 1-5-1-1-1v-27zm48 5 6 1 1 1v28l-1 1-6-1-1-1v-28zm-52-51v27l5 1v-27zm53 53v26l4 1v-26zm-49-5v26h5v-26zm1-49v-3l-5-1v4z"/><path fill="#fff" d="m407 467 10 1v22l-10-1z"/><path d="m407 466 10 1v24l-10-1-1-1v-22zm1 2v20l8 1v-20z"/><path fill="#fff" d="M358 483v-48l6 8q4-1 1-6-2-3-1-10 4 7 5 3c-2-5-4-6-2-12q3 8 3 2-3-5 0-11 2 9 3 3-2-10 7-14s0-4 2-4c3 0 3 5 3 5q9 5 7 15 1 7 3-2c2 6 1 7 0 11q0 6 3-2c2 8 0 8-2 12q1 4 4-2 2 8 0 10-3 5 1 6c4 0 4-6 6-6v48zm-11-37v37h4v-37z"/><path d="m357 434 2 3 4 5 1-1-1-3q-2-6 0-12v-2l1 2 3 4v1-1l-1-3q-3-5-1-10l1-3v3l2 5v-13l1-2v2l2 4v-2l1-8q2-4 6-5 0-6 3-5 3 0 4 6 4 2 6 6l1 8v3l1-4 1-2 1 2v9l-1 2v2h1l1-4 1-3 1 3q2 6-1 9l-1 4 3-3v-3l1 3q2 5-1 11v3l1 1 4-4 2-2h1v50l-51-6zm1 49 48 5v-46 1q-2 5-5 5-3-1-3-3l1-4q2-4 1-8l-2 2h-2l-1-2 2-4 1-5-2 2-2-1v-2l1-3v-5q0 3-2 2-1 1-2-1v-3l-1-8q-1-3-5-5v-1q-1-4-3-5l-2 5q-4 1-6 5v8l-1 2-1 1q-2 0-2-3v5l1 3v2l-2 1-2-2 1 5 1 4v2h-2l-2-3q-2 4 1 8l1 4q0 3-3 2-3 0-5-5l-1-1zm-12-38h6v39l-6-1zm2 1v36h2v-36z"/><path fill="#fff" d="M347 470q9 3 11 14l-11-1zm68-4v25h3v-24z"/><path d="M347 469q10 6 12 15v1l-13-2zm67-3h4v26l-5-1zm-66 5v11l9 1q-1-7-9-12m68-4v23h1v-23z"/><path fill="#fff" d="M418 478q-8 2-11 11l11 2z"/><path d="M419 477v15l-13-2v-1q2-8 12-12zm-2 2q-8 3-9 10l9 1z"/><path fill="#fff" d="m386 417 3-2v-3l-3 1q0-3-4-6l-4 5-2-2v3l3 3z"/><path d="m386 418-8-1-3-3v-5h1l2 1 4-3h1l4 4h2v4zm0-2 2-2v-1h-1l-1 2v-2l-4-5-3 4-1 2v-2l-1-1v2l2 2z"/><path fill="#fff" d="m387 425 2-2v-5l-3 2q0-4-4-6-3 1-4 5l-2-2v4l1 3z"/><path d="m388 426-11-1-2-4v-5h1l2 1 4-4h1l4 5 2-1v6zm-1-1 1-3v-3l-1 1-1 1v-1l-4-5-3 4-1 1v-1l-1-1v3l1 2z"/><path fill="#fff" d="m388 437 4-5v-6l-4 2q-1-4-6-7-4 2-6 6l-3-3v5l4 6z"/><path d="m388 437-11-1-5-6v-7h1l3 2 5-4h1v-1l1 1h1q4 3 4 6l4-2h1v7zm-1-1 4-5v-4l-2 2-1 1v-1q-1-4-5-6l-1-1-1 1-4 4v2l-1-2-3-2v4l4 6z"/><path fill="#fff" d="m389 448 5-7v-6q-3 0-5 3-1-7-7-9-4 2-6 7l-6-3v5l6 8z"/><path d="m389 449-14-2-5-8v-7h1q3 0 4 3l7-7h1l6 8 5-1h1v6q-1 3-6 7zm0-2q4-4 4-6v-5l-3 2-1 2-1-2q-2-5-6-8-4 3-6 7v1l-1-1q-1-3-4-3v4l5 7z"/><path fill="#fff" d="m391 468 7-10v-9q-4 0-7 5-2-11-9-18-6 5-9 16-3-6-6-7v9c0 3 7 12 7 12z"/><path d="m391 469-18-2q-6-9-7-13v-10h1l6 6q3-10 9-14v-1l1 1q5 6 8 16 3-4 7-4h1v10zm0-2q6-6 6-9v-8q-3 0-5 4l-1 2-1-2q-2-11-8-17-5 4-8 15v2l-1-2q-2-5-6-6v8l7 11z"/><path fill="#fff" d="m391 480 7-8v-9q-4 0-7 5-2-11-9-17-6 4-9 15-3-6-6-7v9l7 10z"/><path d="m391 481-18-2-7-10v-11h1l6 6q3-9 9-13v-1l1 1q6 5 8 15 3-4 7-4h1v10zm0-2 6-7v-8q-3 1-5 4l-1 2-1-2q-2-10-8-16-5 5-8 14v2l-1-2q-2-5-6-6v8l7 9z"/><path fill="#fff" d="M393 487q0-11-11-21-11 8-11 19z"/><path d="m394 488-24-3v-1l3-10q3-5 9-8v-1 1q6 4 9 10zm-2-2-3-9q-2-6-7-10-5 4-7 8l-3 9z"/><path fill="#fff" d="M397 492v-11l-8 5q-2-8-7-14-6 4-7 13-3-5-8-8v12z"/><path d="m398 493-32-4v-13l1 1q5 2 8 6 1-6 6-11l1-1v1l1 1 6 11 8-4h1zm-1-2v-9q-6 2-7 5l-1 1-1-2-6-12q-4 5-6 11l-1 2-1-2q-1-3-7-6v9z"/><path fill="#fff" d="M652 570v-35q2-6 7-8v-30l-6 3-7 30v39z"/><path d="M653 535q2-6 6-7h1v-33l-8 4-6 31v40h7zm-2 34-4-1v-37l7-31 4-2v28q-5 2-7 9z"/><path fill="#fff" d="M652 570v-35q2-6 7-8v-32q-6 2-6 5l-7 30v39z"/><path d="M653 535q2-6 6-7h1v-34h-1q-4 0-7 5l-6 31v40l7 1zm-2 34-4-1v-37l7-31q1-4 4-5v31q-5 2-7 9z"/><path fill="#fff" d="M656 579q-5-3-7-9v-43l2-4q-33-2-68-8l2 4v43q0 6-5 8 37 6 76 9"/><path d="M656 578q-6-3-6-8v-43l3-4-72-9 4 6v42q-1 6-5 7v2l76 9zm-3 0-70-8q3-2 3-8v-43l-2-3 66 8-1 3v43q0 4 4 8"/><path fill="#fff" d="M594 572q5-2 6-8v-41l-5-6 46 6-5 5v40q1 6 6 10z"/><path d="m593 571 1 2 48 5 1-1q-6-4-7-9v-40l7-6-50-6 7 8v40q0 5-7 7m4 1q4-2 4-8v-41l-4-5 42 5-4 4v41q0 6 4 8z"/><path fill="#fff" d="M600 573q6-2 7-8v-37l-4-6 30 4-4 5v37q1 5 7 9z"/><path d="M600 572v2l36 4v-2q-6-3-6-8v-37l4-6-32-4 4 7v37q0 4-6 7m3 0q5-3 5-7v-37l-3-5 26 3-3 4v38l5 8z"/><path fill="#fff" d="m625 525-14-2v51l14 2z"/><path d="m626 524-16-2v53l16 2zm-2 1v50l-12-2v-49z"/><path fill="#fff" d="m644 541-5-1v28l5 1zm-48-6h-6v27l6 1zm53-40-7-1v28l7 1zm0-6h-7v5l7 1z"/><path d="m649 489-7-1v35l7 1 1-1v-34zm-5 51h-6v28l1 1 5 1 1-1v-28zm-48-5-6-1v29l6 1 1-1zm52-40v27h-5v-27zm-53 41v26h-4v-26zm49 6v26l-5-1v-26zm-1-49v-3h5v4z"/><path fill="#fff" d="m593 494-9-1v22l9 1z"/><path d="m593 494-9-2-1 1v22l1 1 9 1 1-1v-21zm-1 1v20l-8-1v-20z"/><path fill="#fff" d="M642 522v-48c-1 0-2 6-6 6q-3-1-1-5 2-3 1-11-4 6-5 3c2-5 5-5 2-12q-3 7-3 1 3-3 0-10-2 8-3 1 2-9-6-14l-3-6q-4 2-3 5-9 3-7 13 0 7-3-2-2 6 0 10 0 7-3-2c-2 7 1 8 2 12q-1 4-4-3-2 7 0 11 3 4 0 5c-5-1-5-7-7-8v48zm11-35v37l-4-1v-37q3-2 4 1"/><path d="m643 473-2 3-4 3-1-1 1-3q2-5 0-11v-2l-1 2q-1 3-3 3l2-3v-10l-1-3v3l-2 4v-13l-1-2v2l-2 4v-2l-1-9-6-6q0-5-3-6-3 0-4 5-5 2-6 5l-1 8v3l-1-4-1-3-1 2v9l1 3v1l-2-4-1-3-1 2q-2 6 1 10l1 3v1l-3-4v-2l-1 2q-2 6 1 11l1 3-1 1q-2 0-5-5l-2-3h-1v50l51 6zm-1 48-48-5v-46 1q2 5 6 6 2 0 2-3l-1-4q-2-4-1-8l2 3h2l1-2-2-4-1-5 2 2h2v-3l-1-2v-6l2 3h2v-3l1-8q1-3 5-4h1v-1q0-4 2-4l2 5q5 2 6 6v8l1 3 1 1q2 0 2-3v6l-1 2v3l2 1 2-2-1 5-1 3v2l2 1 3-3q1 5-2 8l-1 4q0 3 3 3 3 1 5-5l1-1zm12-35-5-1-1 1v38l6 1zm-2 1v36h-2v-36z"/><path fill="#fff" d="M653 511q-8 1-11 12l11 1zm-68-19v24l-3-1v-24z"/><path d="M653 510q-10 4-12 12v1l13 2zm-67-19-3-1h-1v26l5 1zm66 21v11l-9-1q2-6 9-10m-68-20v23h-1v-23z"/><path fill="#fff" d="M582 502q8 5 11 15l-11-2z"/><path d="M581 501v15l13 2v-1q-2-9-12-16zm2 3q8 5 9 12l-9-2z"/><path fill="#fff" d="m614 450-3-3v-3l3 1 4-4 4 5 2-1v3l-3 3z"/><path d="m614 450 8 1 3-2v-5h-1l-2 1-4-5h-1l-4 4-2-1v4zm1-1-3-2v-2l1 1 1 1v-1l4-4 3 4 1 2v-1l1-1v2l-2 2z"/><path fill="#fff" d="m613 458-2-3v-5l3 2 4-4 4 5 2-1v4l-1 3z"/><path d="m612 458 11 2 2-4v-5h-1l-2 1-4-5h-1l-4 4-2-2v6zm1-1-1-3v-3l1 2 1 1v-2l4-3 3 4 1 2v-1l1-1v3l-1 2z"/><path fill="#fff" d="m613 469-5-6v-6l4 3q2-4 6-5 5 2 6 7l3-2v5l-4 5z"/><path d="m612 470 11 1 5-6v-6h-1l-3 1-5-5-1-1h-1l-1 1-4 4-4-2v-1 7zm1-2-4-5v-5l2 3 1 1 1-1q0-3 4-5h2l4 6 1 2v-2l3-1v4l-4 4z"/><path fill="#fff" d="m611 480-5-8v-6q3 1 5 4 2-6 7-8 5 3 6 9l6-2v6l-6 6z"/><path d="m611 480 14 2q5-4 5-7v-7h-1l-4 2-7-9h-1q-4 3-6 7l-5-3h-1v7zm1-1-5-7v-5l4 3v2l1-2q2-4 6-7 5 4 6 9v1l1-1 4-2v4q-1 3-5 6z"/><path fill="#fff" d="m609 500-7-12v-9q4 0 7 6 2-10 9-15 6 6 9 17 3-5 6-5v9c0 3-6 10-7 11z"/><path d="m609 500 18 2q7-7 7-11v-10h-1l-6 4q-3-10-9-16h-1q-6 4-8 14-3-4-7-5l-1-1v11zm0-1-6-11v-8q3 1 5 6l1 2 1-2q2-11 8-15 6 6 8 16v3l1-2q2-4 6-5v8l-7 10z"/><path fill="#fff" d="m609 512-7-10v-9q4 0 7 6 2-10 9-14 6 6 9 16 3-5 6-5v9c-1 3-7 9-7 9z"/><path d="m609 512 18 2 7-8v-11h-1l-6 4q-3-9-9-15h-1q-6 4-8 13-3-4-7-5h-1v10h1zm0-1-6-9v-8q3 1 5 6l1 2 1-2q2-10 8-14 6 6 8 16v2l1-2q2-4 6-5v8l-7 8z"/><path fill="#fff" d="M607 518c2-8 3-13 11-18q11 10 11 21z"/><path d="m606 519 24 3v-1l-3-11-8-11h-1q-6 4-9 9l-3 10zm2-2 3-8q2-5 7-8 5 4 7 9l3 10z"/><path fill="#fff" d="M603 522v-11l8 7q2-7 7-12 6 5 7 14 3-4 8-6v12z"/><path d="m602 523 32 3v-13h-1l-8 5-6-12-1-1-1 1-6 10-8-6-1-1zm1-2v-9q6 3 7 6l1 2 1-2 6-11 6 13 1 2 1-2q1-2 7-5v10z"/><path fill="#fff" d="M333 536v10c110 9 220 35 334 44v-11c-110-8-220-34-334-43m-6 10v14c114 8 228 35 346 44v-14c-114-8-228-35-346-44m346 58c-114-9-228-36-346-44l-10-1v18c121 8 242 37 366 45v-17zm-366-28v21c127 7 255 40 386 47v-21c-127-7-255-40-386-47m386 68c-127-7-255-40-386-47h-10v21c134 6 268 42 406 48v-21z"/><path d="M332 535c111 9 222 35 336 44v10l6 1v13l10 1v18h10v21l10 1v22c-135-5-269-42-408-47v-23h10v-21l10 1v-18l10 1v-14l6 1zm-26 63h-9v19c134 6 268 42 406 48v-20h-9c-128-7-256-40-388-47m386 45v-19c-127-7-254-40-384-47v20c127 7 254 39 384 46m-19-38c-114-9-228-36-346-44l-9-1v16c120 8 240 37 364 45v-16zm-1-2v-12c-113-9-227-35-344-44v12c113 8 227 35 344 44m-6-14v-9c-110-9-219-34-332-43v9c110 9 219 34 332 43"/><path fill="#fff" d="m369 540 26 2v84l-26-3z"/><path d="m369 539 26 3v85l-26-3zm1 2v82l24 2v-82z"/><path fill="#fff" d="m375 540 14 2v84l-14-2z"/><path d="m374 539 16 2v86l-16-2zm2 2v82l12 2v-82z"/><path fill="#fff" d="m487 556 25 4v84l-25-4z"/><path d="m486 555 27 4v86l-27-5zm2 2v82l23 4v-83z"/><path fill="#fff" d="m493 557 14 2v84l-14-2z"/><path d="m492 556 16 2v86l-16-3zm2 2v82l12 2v-82z"/><path fill="#fff" d="m605 573 25 3v84l-25-3z"/><path d="m604 572 27 3v86l-27-3zm2 2v82l24 3v-82z"/><path fill="#fff" d="m611 574 14 1v84l-14-1z"/><path d="m610 573 16 2v85l-16-2zm2 2v82l12 1v-82zm-264-47c100 9 201 31 304 41v1c-100-9-200-31-304-40zm27 22 14 1v2l-14-2zm0 10 14 2v1l-14-1zm0 11 14 1v2l-14-2zm0 31 14 2v1l-14-1zm0 11 14 1v2l-14-2zm236 33 14 2v2l-14-2zm0-63 14 2v2l-14-2zm0 11 14 1v2l-14-2zm0 10 14 2v2l-14-2zm-236-23 14 2v1l-14-1zm236 34 14 1v2l-14-2zm-236-23 14 1v2l-14-2zm236 33 14 2v2l-14-2zm0 11 14 1v2l-14-2zm-118-49 13 2v2l-13-2zm0 32 13 2v1l-13-2zm0-53 13 2v2l-13-2zm0 11 13 2v1l-13-2zm0 21 13 2v1l-13-2zm0 10 13 2v2l-13-2zm0 21 13 2v2l-13-2z"/></svg>