<svg xmlns="http://www.w3.org/2000/svg" viewBox="0 0 1000 1000"><path fill="#032ea1" d="M8 195.3c171.2-85.4 341.7-54.4 514.3-27.9C677 191.2 833.8 211.7 992 132.7v672c-171.2 85.4-341.7 54.3-514.3 27.9C323 808.8 166.2 788.3 8 867.2z"/><path fill="#e00025" d="M8 363.3c171.2-85.4 341.7-54.4 514.3-27.9C677 359.2 833.8 379.7 992 300.8v336C820.8 722 650.3 691 477.7 664.6 323 640.8 166.2 620.3 8 699.2z"/><path fill="#fff" d="M411.3 467.6c59.1 8 118.3 18.4 179.2 26.5v73.5c-59.1-7.8-118.3-18.3-179.2-26.4z"/><path d="M411.3 466.8c59.1 8 118.3 18.4 179.2 26.5l.7.9v73.5l-.7.7c-59.1-7.8-118.3-18.3-179.2-26.4l-.7-1v-73.5zm.8 1.7v72c58.6 7.8 117.2 18.2 177.6 26.2v-72c-58.6-7.7-117.2-18-177.6-26.2"/><path fill="#fff" d="m581.2 533.4 5.7.8v27.7l-5.7-.7zm-169.9-38.8c59.1 7.9 118.3 18.3 179.2 26.4v8.5c-59.1-7.8-118.3-18.3-179.2-26.4zm0-11.6c59.1 7.9 118.3 18.3 179.2 26.4v7.5c-59.1-7.8-118.3-18.2-179.2-26.4z"/><path d="M411.3 493.7c59.1 8 118.3 18.4 179.2 26.5l.7.9v8.5l-.7.7c-59.1-7.8-118.3-18.2-179.2-26.4l-.7-.9v-8.5zm0-11.5c59.1 7.9 118.3 18.3 179.2 26.4l.7.9v7.5l-.7.8c-59.1-8-118.3-18.3-179.2-26.5l-.7-.9v-7.5zm.8 13.3v6.9c58.6 7.9 117.2 18.2 177.6 26.2v-6.9c-58.6-7.8-117.2-18.1-177.6-26.2m0-11.6v5.9c58.6 7.9 117.2 18.2 177.6 26.2v-5.9c-58.6-7.8-117.2-18.1-177.6-26.2m169.1 48.7 5.7.8.7 1V562l-.7.7-5.7-.7-.7-1v-27.7zm.8 1.7v26.2l4.1.5v-26z"/><path fill="#fff" d="M411.3 471.4c59.1 7.9 118.3 18.3 179.2 26.4v7.3c-59.1-7.8-118.3-18.3-179.2-26.4z"/><path d="M411.3 470.6c59.1 7.9 118.3 18.3 179.2 26.4l.7 1v7.2l-.7.7c-59.1-7.8-118.3-18.3-179.2-26.4l-.7-.9v-7.3zm.8 1.7v5.7c58.6 7.9 117.2 18.2 177.6 26.2v-5.7c-58.6-7.8-117.2-18.1-177.7-26.2"/><path fill="#fff" d="m458.5 515 5.6.8v27.7l-5.6-.8zm77.1 11.8 5.7.9v27.7l-5.7-.9zm-122.9-18.4 5.7.8v27.7l-5.7-.8zm11 1.6 5.7.7v27.8l-5.6-.8zm11.9 1.6 5.6.8v27.7l-5.6-.8zm11.8 1.7 5.7.9v27.7l-5.7-.8zm99 15.1 5.6.9V557l-5.7-.9zm11.7 1.8 5.7.8v27.7l-5.7-.8zm11.8 1.7 5.7.8v27.7l-5.7-.8z"/><path d="m412.7 507.6 5.7.8.7.9V537l-.7.7-5.7-.8-.7-.9v-27.7zm11 1.5 5.7.8.8 1v27.7l-.8.7-5.6-.8-.8-1v-27.7zm11.9 1.7 5.6.8.8 1v27.6l-.8.7-5.6-.8-.8-.9v-27.7zm11.8 1.7 5.7.9.7.9V542l-.8.7-5.6-.8-.7-1v-27.7zm11 1.7 5.7.8.8 1v27.7l-.8.6-5.6-.8-.8-1V515zm77.2 11.8 5.7.9.7.9v27.7l-.7.7-5.7-.9-.7-.9v-27.7zm10.7 1.6 5.7.9.7.9V557l-.8.7-5.6-.9-.7-.9v-27.7zm11.8 1.8 5.7.8.7.9v27.7l-.7.7-5.7-.8-.7-1v-27.6zM570 531l5.7.8.7.9v27.7l-.7.7-5.7-.8-.7-1v-27.6zm-156.4-21.8v26.1l4.1.6v-26.1zm11 1.6v26l4.2.6v-26zm11.8 1.6v26.1l4.2.6v-26zm11.9 1.7v26.1l4 .7v-26.1zm11 1.7V542l4.2.6v-26zm77.2 11.8v26.1l4 .7v-26.1zm10.7 1.6v26.1l4.1.7v-26zM559 531v26l4.1.7v-26.1zm11.8 1.7v26l4.1.7v-26.1z"/><path fill="#fff" d="M341.2 537.2c2.9-1.5 5.7-4.4 7-8.3 100.3 9.3 200.6 31.1 304 40.7a18 18 0 0 0 7 9.6c-105-9.1-209.9-32.6-318-42"/><path d="M340.9 536.4a12 12 0 0 0 6.6-7.8l.1-.6c100.7 9.3 201.4 31.3 305.1 40.8l.2.6q1.5 5.9 6.6 9l-.4 1.6c-104.9-9.1-209.8-32.6-317.9-42zm3 .2c103.1 9.2 206.3 32 312.6 41.5a17 17 0 0 1-4.9-7.8c-100-9.3-199.9-31-302.8-40.6q-1.5 4.3-5 7"/><path fill="#fff" d="M496.3 368.2c0-.6-.2-6.3 3.5-6.5 3.7 1.4 3.6 7 3.6 7.6zm-19.7 88.6v-9.4c-.5-4.6-4-5.6-4.4-9 0-.2-.4-5 .7-7.3 2 7 4.5 6.3 4.8 3.5-.2-2.5-1.7-5-5.4-11.5a13 13 0 0 1 1.2-9.7c.7 5.4 1.3 7.5 3.4 8.1 1.4.1 2.2-.5 2.3-3.1-.2-3.3-2-5.3-3.1-8.4q-1.4-5.9 1.6-8.8c.8 5.4.7 7 2.7 7.5 4-1.4.3-7.5-.9-9.8-.7-2.3 1.3-5.4 1.4-5.6 1.4 4.8 1.8 5 3.3 5 1.8-.6 1.6-3-.7-6q-2-2.9.3-5.4c1.7 3.4 3.3 3.5 3.7 1.7l-1.2-7.6 27.1 4.2-1.3 7c-.1 2 1.9 2.6 3.8-.4q2.3 3.4.2 5.6c-2.2 2.3-2.4 4.6-.6 5.7 1.5.6 1.8.4 3.3-4 0 .2 1.9 2.9 1.4 6-1.2 2-4.9 7-1 9.6 2.1.1 2-1.5 2.8-6.7a10 10 0 0 1 1.6 9.3c-1.2 2.8-3 4.2-3.1 7.5 0 2.6 1 3.5 2.3 3.8 2.1 0 2.7-1.9 3.4-7.1 1.5 2.7 2.1 8 1.2 10.1-3.7 5.4-5.3 7.3-5.4 9.8.3 2.9 2.7 4.5 4.8-2 1 2.7.7 7.4.7 7.5-.5 3.3-3.9 3.1-4.5 7.7v9.3zm11.4-75.6-.6-5.4 24.9 3.9-.6 5.2zm1.7-5.1-.6-4.4 21.4 3.3-.5 4.2zm3.4-4-.4-4.3L507 370l-.4 4.2zm52 193c-3.4-2-7.5-6-7.9-9.8v-40.8l4.2-5-83.1-12.7 4 6.2v40.8c-.3 3.8-3 6.5-6.4 7.6z"/><path d="m545.3 564.3-.2 1.6-89.2-13.7-.3-1.6c4-1.2 5.7-3.2 5.9-6.9v-40.5l-4.7-7.4 86.1 13.1-5 6v40.6c.3 3.3 2.4 5.9 7.4 8.8m-41.2-195.6 3.7.6-.4 4.4 4 .6-.5 4.4 2.3.3-.7 5.2 1.8.3-1.5 7.9v.5l.4.2q1 0 2-1.7l.5-1 .7 1c2 3 2.1 4.7.3 6.6q-1.5 1.4-1.7 2.9 0 1.1.7 1.5c.8.1 1.4-.8 2.3-3.6l.4-1.3 1 1.2q2.3 3.4 1.5 6.8v.2l-.4.5a20 20 0 0 0-2.2 4.4q-.5 2.4 1 3.3 1 0 1.5-3.4l.4-2.7.3-1.5 1 1.2c2.5 3.2 3 6.2 1.8 10.2q-.4 1.1-1.5 2.9-1.5 2.4-1.6 4.3 0 2.6 1.6 2.9c1.3 0 2-1.8 2.6-6.5l.3-1.9 1 1.7a14 14 0 0 1 1.9 5.7q.3 3.8-.6 5.3l-1.8 2.7a18 18 0 0 0-3.4 6.7q0 .9.3 1.3.3.3.5.3 1.4-.1 2.5-4l.5-1.8.9 1.8q1.2 2.8.8 8-.2 1.9-2.2 3.6-2.2 2-2.3 4v10.1l-48-7.4v-10q0-2.3-2.2-4.7-2-2.4-2.2-4.4-.4-5.3.8-7.7l1-1.6.4 2c.8 3 1.5 4.3 2.5 4.8q.3 0 .5-.2.3-.4.3-1.1 0-1.7-3.4-7.8l-1.8-3.2a10 10 0 0 1-.6-5.5q.6-3.7 1.8-5.2l1.1-1.3.2 1.9c.7 4.8 1.5 6.9 2.7 7.3q.7 0 1-.3.5-.5.6-2.1-.1-1.9-1.6-4.8l-1.5-3.4c-1.3-4.4-.8-7.1 1.8-9.6l1-.8.3 1.5.4 2.8q.5 3.6 1.4 3.9 1.7-.4 1-3-.5-2-2.1-5.1l-.3-.6c-.8-1.9-.4-3.7 1.4-6.5l.9-1.2.5 1.6q1.2 4.5 2.3 4.3.7 0 .7-1.2-.2-1.5-1.7-3.4c-1.8-2.5-1.8-4.3.2-6.6l.8-.7.5 1.1q.9 2 1.8 2.3h.2l.2-.4-1.3-8.5 1.7.3-.6-5.4 2.3.4-.5-4.6 4 .7-.4-4.6 3.6.6q0-1.5.4-3 1-3.9 4-3.5c2 .5 3 1.8 3.9 4.7zm37.5 195c-3.5-2.8-5-5.2-5.1-8.5v-41l3.3-4.1-80-12.3 3.2 5V544c-.1 3.4-1.3 5.4-4 7zm-64.2-107.6 44.9 6.9v-8.5q.1-2.9 2.7-5 1.7-1.5 1.8-2.7.3-3 0-4.8-1.2 2.6-3 2.7-1 0-1.9-1-.6-1.1-.7-2.4.2-2.1 3.7-7.6l1.8-2.6q.7-1.1.4-4.3l-.5-2.7c-1 4-2 5.4-3.8 5.3q-1.4-.2-2.2-1.4-.9-1.3-.9-3.3 0-2.3 1.8-5.1 1-1.7 1.4-2.7c.9-2.7.7-4.7-.4-7l-.2 1c-.6 3.5-1.4 4.7-3 4.6h-.2c-2.3-1.3-2.8-2.8-2.2-5.6a21 21 0 0 1 2.3-4.8l.3-.4q.3-1.9-.5-3.8-1.6 3.9-3.7 3-2-1-1.8-3.4.3-2 2.1-3.8 1.4-1.4.4-3.4-1.2 1.4-2.7 1.4-1 0-1.6-1-.6-.7-.4-1.8l1.2-6-25.3-4 1 6.8q0 1-.6 1.5t-1.6.3q-1.2-.4-2.3-2.2-1 1.8.4 3.6 1.8 2.2 2 4.4.3 2.4-1.7 2.8c-1.5 0-2.5-1-3.6-4q-1.3 2.3-.6 3.5l.3.5a30 30 0 0 1 2.3 5.5c.6 3 0 4.4-2.1 5h-.3c-1.6-.5-2.4-2-3-5.6l-.2-1q-1.7 2.5-.4 6.8.4 1.2 1.4 3a14 14 0 0 1 1.8 5.7q0 4.3-3 3.8c-2-.5-3-2.3-3.9-6.4l-.5 2.5q-.2 3.1.4 4.4l1.8 3.2q3.5 6.5 3.6 8.7 0 1.4-.6 2.1-.9 1-2 .5-1.6-.6-3-3.7l.1 4.8q.1 1.4 1.7 3.2a10 10 0 0 1 2.8 6zM511 384l.4-3.6-23.2-3.6.5 3.7zm-1.7-5.7.4-2.6-19.7-3 .3 2.7zm-3.4-5 .2-2.6-12.6-2 .3 2.8zm-3.3-5-.3-2.5q-.7-3-2.4-3.3-1.9-.1-2.5 2.6l-.4 2.4z"/><path fill="#fff" d="m473 517.2 5.7.9v27.7l-5.6-.9zm47.8 7.4 5.6.8v27.7l-5.6-.8z"/><path d="m473 516.4 5.7.9.8.9v27.7l-.8.7-5.6-.9-.8-1v-27.6zm47.8 7.4 5.6.8.8 1v27.6l-.8.7-5.6-.8-.8-1v-27.7zm-47-5.7v26.1l4.1.6v-26zm47.7 7.4v26l4.2.7v-26z"/><path fill="#fff" d="M456.8 450.1v46.5l85 13v-10l.2-36.5c-3.5 1.3-4 4-4.1 4.2v19.8L461 475.4v-19.8c0-.2-.9-3.3-4.3-5.5"/><path d="m456 449.2 1 .1a10 10 0 0 1 4.8 6.2v19.2l75.3 11.5v-19.1c.6-2.6 2-3.9 4.6-4.8l1-.2-.1 37.6v10.8L456 497.2zm1.5 2.3v44.4l83.6 12.8v-9.2l.1-35.2a5 5 0 0 0-2.6 3.3V488l-78.2-12v-20.5q-.7-2.5-2.9-4.1"/><path fill="#fff" d="M530.3 562.8c-3-2-8.4-6.1-8.8-9.8v-45.7c.8-2.4 3.6-3.5 5.9-4.8L471 494c2.8 2 5.4 3.6 6.7 6.6v45.7c-.4 3.7-4.5 6.3-7.5 7.4z"/><path d="m530.6 562.1-.3 1.5-60.1-9.2-.3-1.6c4.8-1.7 6.9-3.6 7-6.7v-45.5q-.8-2.3-5.1-5.3l-1.2-.8.4-1.5 58.7 9-1.9 1.3-1.6.8q-3.5 1.9-4 3.4v45.6c.3 2.7 2.7 5.4 8.4 9m-3.6-.6c-4.3-3.3-6.1-5.9-6.3-8.7V507q.6-2 4.1-4l-50.8-8q3.5 2.9 4.4 5.2v46c-.1 3.1-1.5 5-5.1 7z"/><path fill="#fff" d="M537.9 504.6v-32.9l-7.8-1.2v-3.2L469 458v3.2l-7.7-1.2v33zM518 561c-2.9-2-6.4-5.8-6.7-9.6v-39l2.3-3.2-27.9-4.3 2.2 3.9v39c-.3 3.8-3.7 6.4-6.7 7.5z"/><path d="m538.6 505.5-78.1-12V459l7.7 1.2V457l62.7 9.6v3.2l7.7 1.2zm-1.5-1.8v-31.3l-7.7-1.2V468l-59.7-9.2v3.2l-7.7-1v31.3zm-18.7 56.6-.3 1.5-36.8-5.7-.3-1.6c4.3-1.6 6-3.5 6.3-6.8v-38.8l-3-5 30.8 4.7-3 4.2v38.7c.3 3.3 2 6 6.3 8.8m-3.3-.6c-3-2.7-4.3-5.2-4.4-8.4V512l1.5-2.2-25-3.9 1.6 2.8v39.2c-.2 3.2-1.4 5.2-4.5 7z"/><path fill="#fff" d="m492.7 506 14.1 2.2v51l-14.1-2.2z"/><path d="m492 505 15.6 2.4v52.7l-15.7-2.4zm1.5 2v49.3l12.5 2v-49.4z"/><path fill="#fff" d="M514.2 498c.6-3.1 8.7-2.2 14-4.2l-56.7-8.7c5.1 3.6 13.1 5.3 13.7 8.5l1.9 6.8 23.4 4.6z"/><path d="m515 498.2-.1.4-3.7 7-.7.2-23.4-4.6-.7-.7-2-6.8v-.2c-.2-1-1.9-2.1-6.1-4a43 43 0 0 1-7.2-3.7l.4-1.5 56.6 8.7.4 1.6q-2 .8-7.3 1.5c-4.3.6-6 1.2-6.2 2.1m-1.5-.5c.4-1.6 2.5-2.6 7.4-3.2l3.2-.5-48.7-7.5 3.3 1.5c4.8 2.2 6.8 3.8 7.2 5.6l1.7 6.1 22.5 4.4z"/><path fill="#fff" d="M525.3 464.3c0-8.5.3-11.1 2.7-11v26.1c-5.9 1.8-9.8 8.4-10 8.7l-36.5-5.7c-.1-.2-4.2-8.1-10-11.6v-26.2c2.9.7 3 3.5 3 11.8zm2.7-3c.5-9.4 7.2-9.3 7.6-9.3v8.4c-3-.3-4.1 1.7-4.3 6.1.2 4.2 2.2 4.5 2.3 4.6v23.8l-5.6-.9z"/><path d="M527.2 480.5q-4.8 1.8-8.5 8l-.2.5-37.5-5.8-.2-.5a25 25 0 0 0-9.5-11.2l-.5-.3v-27.5h.7c1.8.5 2.8 1.5 3.3 3.9q.4 1.9.4 8.1l49.3 7.6c.2-7.8 1.2-10.9 3.5-10.8h.7v2.4q1-1.5 2.6-2.5a8 8 0 0 1 4.2-1.3h.9v10.2l-.8-.1q-1.7-.4-2.6 1t-1 4.4q.1 3.3 1.7 3.7h.7v25.5l-7.2-1zm-1.2-15.3-52.3-8v-.9q-.1-8.5-1.4-10.4v24.4q5.5 3.4 9.6 11.4l35.7 5.5q4-6.7 9.6-8.4v-24.3q-1 1.6-1.2 9.9zm2.7-3.8v32l4.2.6v-22.4c-1.6-.8-2.3-2.2-2.4-5.2q0-3.5 1.2-5.3 1.3-1.7 3.1-1.6v-6.7q-1.2.3-2.6 1c-2.3 1.6-3.4 3.8-3.5 7.6"/><path fill="#fff" d="M471.5 452.6c-.5-9.5-7.2-11.5-7.6-11.7v8.4q4.3 1 4.3 7.5c-.2 4.1-2.1 3.8-2.3 3.8v23.9l5.6.8z"/><path d="M472.3 452.7v33.6l-7.2-1.1v-25.5l.7.1q1.7.2 1.7-3.1 0-3-1-4.7t-2.6-1.8l-.7-.1v-10.2l.8.3q2 .6 4.2 2.4c2.7 2.8 4 5.8 4.1 10.1m-1.5-.2c-.1-3.8-1.2-6.4-3.5-8.7q-1.4-1.2-2.6-1.8v6.7q2 .6 3 2.6 1.3 2.2 1.3 5.6c-.1 3-.8 4.2-2.4 4.6v22.3l4.2.6zm5-16.6 47.9 7.4v1.4l-48-7.4zm1-15 46.6 7.2v1.3l-46.5-7.1zm3.4-12.8 39.2 6v1.4l-39.2-6zm3.2-10.4 33 5v1.4l-33-5zm3.2-8.5 27 4.2v1.3l-27-4.2z"/><path d="m461.3 483.1 76.6 11.8v1.6l-23.2-3.5v11l-29.9-4.6v-11.2l-23.5-3.5zm25 5.5v9.5l27 4.2v-9.5z"/><path fill="#fff" d="M482 462.5c4.6 7 4.3 16.7 4.2 22.9l27.3 4.2c0-6.2-.3-16 4.2-21.6zm15.4-66.8-3.8-2.6v-5.9c1.7.8 3 1.2 3.4 3.8.7-3.6 1.4-3.3 3-4.5 1.6 1.7 2.4 1.7 3 5.5.4-2.6 1.8-2.5 3.5-2.8v5.9l-3.8 1.5z"/><path d="m480.4 461.4 39 6-1 1.2q-4.2 4.8-4.1 20v1.9l-28.8-4.4v-2q0-15.1-4-21.2zm3 2a46 46 0 0 1 3.6 21v.3l25.8 4v-.3q-.1-14.2 3.5-19.8zm13.6-67-4.1-3V386l1 .5.4.2q1.8.7 2.6 2a5 5 0 0 1 1.8-2.3l.8-.6.5-.4.5.6.9.9q1.1 1 1.8 2.7.9-1 2.6-1.1l.4-.1 1-.2v7.5l-4.3 1.7-5.7-.9zm.5-1.4 5 .7 3.2-1.2v-4.3q-1.8.4-2 2l-1.4-.2a7 7 0 0 0-1.8-4l-.5-.4-.4.3q-1.4 1-1.8 3.4l-1.5-.3q-.2-1.6-2-2.6v4.3z"/><path fill="#fff" d="m497.1 405.3-6.2-5.5v-5.4c2.4 1 4.4 1.5 4.9 4.4.8-4 2-5.7 4.2-7.1a14 14 0 0 1 4.3 8.4c.5-2.8 2.5-2.7 4.9-2.9v5.4l-6.2 3.6z"/><path d="m496.7 406-6.7-6v-6.8l1 .3.7.3q2.5 1 3.7 2.5 1.4-3.7 4.1-5.5l.4-.2.5.4q2.7 2.4 4 6.7 1.2-1.2 3.8-1.3h.7l1-.2v6.9l-6.8 3.9zm.6-1.4 5.4.8 5.7-3.3v-4q-3.2.4-3.3 2.2l-1.5-.2q-1-4.7-3.6-7.4-2.6 1.8-3.5 6.3l-1.5-.3q-.2-1.8-3.3-3.2v4z"/><path fill="#fff" d="m496.7 420.3-7.2-7.8v-8c2.7 1.3 5 2 5.6 6.2 1-6 2.4-8.5 5-10.6 2.4 2.8 3.9 6 4.8 12.1.6-4 3-4 5.6-4.4v8l-7.1 5.5zm13.1 11-6.4 8.5-7.3-1.2-6.5-10.5zm-24 12.2c3.3 2.6 4.4 6.2 4.9 13.5l18.1 2.8c.5-7.2 1.6-10.4 4.8-12z"/><path d="m496.2 420.8-7.4-8v-9.5l1 .5.7.4q3.1 1.4 4.4 3.5c1-4 2.5-6.5 4.6-8.3l.5-.4.5.5q3.2 3.6 4.7 9.8 1.3-1.8 4.3-2.2l.8-.1 1-.2v9.4l-7.6 6-7.3-1.1zm-10.7 23.4.4-1.5 27.7 4.3.4 1.6c-2.6 1.3-4 4.7-4.4 11.3v.8l-19.7-3v-.8c-.4-6.7-1.8-10.6-4.4-12.7m2.5.5c1.9 2.6 3 6.2 3.4 11.6l16.7 2.6c.4-5.3 1.5-8.5 3.4-10.6zm9-25.2 6.1 1 6.7-5.2v-6.6q-3.8.7-4.1 3.7l-1.5-.2q-1.1-7-4.2-11-3 2.8-4.1 9.8l-1.5-.3q-.3-3.1-4.1-5v6.6zm13.5 12.3-6.7 8.8-8.1-1.2L488 427l23.2 3.6zm-2.1 0-17.3-2.7 5.4 8.8 6.5 1z"/><path fill="#fff" d="M513.9 431.9v-9.6c-3.2.6-4.9 2-6 4.5a34 34 0 0 0-8.2-15.4c-4.3 3.7-8 9.3-8.2 12.9a11 11 0 0 0-6-6.4v9.6z"/><path d="m514.6 432-.7.6-28.3-4.3-.8-1v-9.5l1-.7q3.5 1.7 5.3 4.4 1.4-5.3 8.1-10.8l1 .1a37 37 0 0 1 8 13.6 8 8 0 0 1 5.5-3l1 1zm-1.5-1v-7.7a6 6 0 0 0-4.5 4l-1.4-.6q0-2.2-2.4-6.9-2.4-4.5-5-7.3c-5.2 4.3-7.4 8-7.5 11.9h-1.5a9 9 0 0 0-4.5-5.3v7.7z"/><path fill="#fff" d="M515.2 448v-9.5c-3.5.5-5.3 1.9-6.5 4.5a33 33 0 0 0-9-15.6c-4.8 3.6-8.8 9.2-9 12.8q-1.4-4-6.5-6.5v9.6z"/><path d="m516 448.2-.8.7-31-4.8-.7-1v-9.5l1-.7q3.8 1.9 5.8 4.6 1.4-5.3 9-10.8l.9.1a38 38 0 0 1 8.9 13.9q2-2.5 6-3l.9 1zm-1.5-1v-7.8q-3.8.9-5 4l-1.5-.6q-.1-2.2-2.6-6.8-2.6-4.5-5.6-7.6-8.3 6.3-8.3 11.9H490q-1-3.4-5-5.4v7.7z"/><path fill="#fff" d="M519 468.3v-11c-4.2.7-6.6 3.2-8 5a35 35 0 0 0-11.3-19.7c-5 2.6-10.9 10.5-11.1 16.3a21 21 0 0 0-8.2-7.6v11z"/><path d="m519.8 468.4-.8.7-38.6-6-.7-.9v-11l1-.6q3.9 1.8 7.3 6.2.7-3.5 3.7-7.8 3.7-5.3 7.7-7.2l.7.1q4 3.2 7.7 9.4a31 31 0 0 1 3.7 9.1q3.3-3.4 7.3-4l1 1zm-1.5-1v-9.2q-3.8.9-6.8 4.8l-1.3-.7q-.2-4-3.7-10.3a34 34 0 0 0-6.8-8.5 21 21 0 0 0-6.8 6.6 18 18 0 0 0-3.6 9l-1.3.2a21 21 0 0 0-6.8-6.8v9.2z"/><path fill="#fff" d="M516.8 492.5V481c-3.7 1.3-4.8 4.4-6 7 .2-11.7-6-24.5-11-28.7-5.1 2.7-11.5 13.7-11.1 25.3-1.2-2.9-2.4-6.5-6-8.8v11.3z"/><path d="m517.5 492.6-.7.7-34-5.3-.8-.9v-11.4l1-.5q2.7 1.6 5 6 .4-6.5 3.4-13 3.7-7.4 8-9.6l.7.1q4.2 3.4 7.9 12 3 7.4 3.5 14.1 2.1-3.6 5-4.5l1 1zm-1.5-1v-9.3q-2.2 1.3-4 5.2l-.5 1-1.5-.5a41 41 0 0 0-10.3-27.7 20 20 0 0 0-6.9 8.8 34 34 0 0 0-3.4 15.7l-1.4.2-.6-1.4q-1.8-4.4-4-6.3v9.2z"/><path fill="#fff" d="M514.2 509.3v-11.4c-3.9.6-4.1 1.8-5.4 4.3.3-7-4-15.1-9-19.3a19 19 0 0 0-9.2 16.4c-1.2-2.8-1.4-4-5.3-5.8v11.3z"/><path d="m515 510.2-30.4-4.7v-13.2l.9.4q2.8 1.2 4.5 3.6.4-3.7 2.5-7.4a17 17 0 0 1 6.9-6.8l.3-.2.4.3a27 27 0 0 1 9.4 17.2q1.6-1.9 4.5-2.3h1zm-1.6-1.8v-9.5a5 5 0 0 0-3.5 3l-.4.7-1.4-.6q.2-4.7-2.4-10.3a26 26 0 0 0-6-7.9 18 18 0 0 0-8.3 15.6l-1.4.2-.5-1q-1.1-2.6-3.4-4v9.5z"/><path fill="#fff" d="M348.2 528.9v-34.4a16 16 0 0 0-7.1-9.6v-30.2l5.8 3.9 6.8 32.2v38.6z"/><path d="M347.4 494.6c-1.2-4.9-3.2-7.5-6.6-9l-.5-.2v-32.2l7.3 4.9 6.8 32.7v39.5l-7-.7zM349 528l3.9.4v-37.7l-6.6-31.8-4.5-3v28.3q5.3 2.5 7.1 10.1v.1z"/><path fill="#fff" d="M348.2 529v-34.5a16 16 0 0 0-7.1-9.6v-32.3c4 .8 5.7 5.6 5.8 6l6.8 32.2v38.5z"/><path d="M347.4 494.6c-1.2-4.9-3.2-7.5-6.6-9l-.5-.2v-33.7h.7c3.2.5 5 2.4 6.6 6.7l6.8 32.4V530l-7-.3zm1.6 33.6 3.9.2v-37.6l-6.7-32c-1.2-3.2-2.4-4.7-4.4-5.3v30.8c3.6 1.8 5.8 4.9 7.1 10.1v.1z"/><path fill="#fff" d="M344 537.4c3-1.3 6.4-4.1 6.7-7.9v-42.9l-1.9-3.7q33.7 3.2 68.5 8l-2.6 3.2V537c.2 3.8 2.6 7.3 5.4 9.3q-37.5-5.4-76-8.9"/><path d="M343.7 536.7c4.3-1.9 6-4 6.2-7.3v-42.7l-2.4-4.7q35.3 3.3 71.4 8.3l-3.5 4.2V537a10 10 0 0 0 5 8.4l-.3 1.5q-37.5-5.2-76-8.8zm3.3.2q34.6 3.3 70.4 8.2a11 11 0 0 1-3.5-8.2v-43.2l1.9-2.2q-32.4-4.5-65.7-7.7l1.3 2.7v43.1c-.1 3.2-1.4 5.3-4.4 7.3"/><path fill="#fff" d="M406.3 544.4c-2.9-2-6.4-5.6-6.7-9.4v-40.8l5.7-5-46.6-5.4 5.7 6.3v40.8c-.3 3.8-3.7 6.6-6.7 7.8z"/><path d="m406.6 543.7-.3 1.5-48.6-5.7-.3-1.5c4.3-1.8 6-3.9 6.3-7.2v-40.4l-6.9-7.5 50.4 5.8-6.8 6V535c.2 3.3 2 5.8 6.2 8.6m-3.3-.5c-3-2.7-4.3-5-4.5-8.3v-41.2l4.6-3.9-42.7-5 4.5 5V531c-.2 3.2-1.5 5.3-4.5 7.2z"/><path fill="#fff" d="M399.8 543.5c-3-1.9-6.4-5.5-6.7-9.3v-37l3.7-5-29.6-3.6 3.7 6v37c-.3 3.8-3.7 6.5-6.6 7.8z"/><path d="m400 542.9-.2 1.5-35.6-4.2-.3-1.6c4.3-1.7 6-3.8 6.3-7v-36.7l-4.4-7.2 32.5 3.8-4.5 6.1v36.7c.2 3.3 2 5.8 6.3 8.6m-3.3-.5c-3-2.7-4.3-5.1-4.5-8.3v-37.2l3-4.2-26.6-3 3 4.8v37.2c-.2 3.2-1.4 5.3-4.5 7.2z"/><path fill="#fff" d="m375 489.5 14 1.7v51l-14-1.6z"/><path d="m374.2 488.6 15.6 1.8v52.7l-15.6-1.8zm1.5 1.8v49.4l12.6 1.5V492z"/><path fill="#fff" d="m355.7 501.7 5.6.6V530l-5.6-.6zm48.4 5.6 5.6.7v27.8l-5.6-.8zM351 454.5l6.8.7v28.4l-6.8-.7zm0-5.3 6.7.6v5.3l-6.7-.6z"/><path d="m350.9 448.4 6.7.6.8.9v33.8l-.7.7-6.8-.7-.8-.8V449zm4.8 52.5 5.6.6.8.9V530l-.8.7-5.6-.6-.8-.9v-27.7zm48.4 5.6 5.6.7.8 1v27.7l-.8.7-5.6-.8-.8-.9v-27.7zm-52.5-51.1v26.8l5.3.5v-26.8zm53.3 52.8v26.1l4.1.5v-26zm-48.4-5.6v26l4 .5v-26zm.4-48.4v-3.6l-5.3-.6v3.7z"/><path fill="#fff" d="m406.8 467 9.7 1.3v22l-9.7-1.3z"/><path d="m406.8 466.2 9.7 1.3.8 1v21.9l-.8.7-9.7-1.3-.8-1V467zm.8 1.8v20.2l8.1 1v-20.1z"/><path fill="#fff" d="M357.6 483.4v-48.7c1.7.8 2.4 6.8 6.7 7.8 2.3 0 2-2.4.7-5.2-1.2-2.4-2.4-5.2-.6-10.6 1.6 4.2 4.5 6 4.2 3.3-1.3-4.7-4.1-5.7-2-12.5 1.3 5.9 4 6.1 3.6 2.6-1.1-4-2.8-5.6-.5-10.9 1.6 6.3 3 6.2 3.2 2.4 0-6-.1-11.4 6.6-13.2 0-.4.4-4.6 2.9-4.8 2.4.7 2.8 5 2.9 5.4 6.7 3.5 6.6 9 6.6 14.8.2 3.8 1.6 4.4 3.2-1.6 2.3 5.8.6 7-.5 10.8-.5 3.3 2.3 3.9 3.5-1.8 2.2 7.4-.6 7.7-2 12-.2 2.6 2.7 1.6 4.3-2.3 1.8 5.9.6 8.3-.6 10.4-1.3 2.5-1.6 4.9.7 5.5 4.4-.1 4.9-5.9 6.7-6.3v48.7zm-10.7-37.8v37.1l4 .4v-37.2q-2.2-1.5-4-.3"/><path d="M356.8 433.9h.8q1.2.2 2.5 3.2 2 4.3 4.2 4.6.9 0 1-.9 0-1.4-1-3.2a14 14 0 0 1-.6-11.3l.7-2 .7 2.2a7 7 0 0 0 2.5 3.8l.4.2-.1-.4q-.3-1.3-1.4-3.4a12 12 0 0 1-.5-9.5l1-2.8.4 3c.4 2.6 1 3.7 1.9 4.2h.2v-1.4l-.8-2.4c-1-3.4-1-6 .3-9l1-2 .4 2.3q1 4 1.6 4.3v-.1l.2-1.8v-.5q0-5.7.8-8.1a8 8 0 0 1 5.8-5.2c.5-3.7 1.5-5 3.6-5 2 .5 3 2 3.6 5.8 3 1.6 4.6 3.6 5.8 6.5q.8 2.8.8 8.4v.5q0 1.2.3 1.8l-.1.2q.7-.2 1.6-4l.5-2.1.9 2.2q2 4.6.3 9l-.8 2.3v1.3h.2q1.4-.1 1.9-3.6l.4-3 1 3c1.2 3.8 1 6.6-.5 9.4l-1.4 3.1-.1.4.4-.2q1.6-.6 2.5-3.2l.7-2 .7 2.2c1.4 4.3 1.1 7.7-.7 11.1q-.9 1.7-.9 3 .1 1 1 1.2 2.3.2 4.1-3.7 1.4-2.7 2.6-2.6l.8.1v50.3l-51.2-6zm1.5 48.7 48.2 5.6v-45.9l-.5 1c-1.7 3.2-3.2 4.4-5.5 4.3q-2.3-.3-2.5-2.8 0-1.9 1.1-4 1.9-3.4 1.1-7.7-1 1.5-2.3 2.2-1.1.4-2-.2t-.5-2.2q.4-1.4 1.6-3.4a9 9 0 0 0 1-5.1q-.7 1.6-2.1 1.9-1.2.1-1.9-1.1-.5-1-.1-2.5.2-1 .8-2.5 1-2.6.5-5.3-1 2.3-2 2.6-1.1.1-1.7-1.3-.4-.9-.4-2.5v-.5a30 30 0 0 0-.8-7.8 10 10 0 0 0-5.3-5.6l-.5-.2v-.6q-.4-4.3-2.1-4.6t-2.1 4.1v.6h-.5c-2.8.8-4.4 2-5.4 4.5q-.7 2.2-.7 7.6v.4q0 1.6-.4 2.5-.5 1.3-1.7.8-1-.5-2-3-.5 2.6.5 5.4l.8 2.7q.4 1.5-.1 2.5t-2 .6q-1.2-.5-2-2.4-.3 2.9 1 5.4 1.2 2.2 1.6 3.8.3 1.5-.6 2-.6.4-1.9-.2-1.4-1-2.4-2.8-.8 4.1 1.2 8a9 9 0 0 1 1 4.2q0 2.5-2.4 2.2-3.1-.4-5.5-5.6l-.5-1zm-12.1-37.5.3-.2q1.9-1.4 4.7.3l.4.3v38.4l-5.4-.5zm1.5 1V482l2.4.2v-35.9q-1.4-.7-2.4-.2"/><path fill="#fff" d="M347 469.6c5 3.3 9.5 6.7 11 14.2l-11-1zm68-3.2v24.2l3.2.4v-24.3q-1.7-1-3.2-.3"/><path d="M347.4 469c6.7 4.4 10.3 9 11.4 14.7l.1 1-12.6-1.2v-15.3zm66.9-3.2.3-.1q1.6-1 4 .4l.4.2V492l-4.7-.6zm-66.5 5.2v11l9.3.9c-1.2-4.5-4-8.2-9.3-11.9m68-4v22.9l1.6.2v-23q-.9-.3-1.6-.2"/><path fill="#fff" d="M418.2 477.7c-5 2.1-9.5 4.4-11 11.7l11 1.4z"/><path d="M419 476.5v15.2l-12.7-1.7.2-.9c1-5.5 4.6-9.2 11.4-12.1zm-1.5 2.5c-5.3 2.5-8.1 5.5-9.3 9.7l9.3 1.2z"/><path fill="#fff" d="m385.8 417 2.9-2.2v-3.3c-1.1 0-1.6.3-2.4 1.3q-1.1-3.4-4-5.4a7 7 0 0 0-4 4.4c-.9-1.2-1.4-1.5-2.5-1.8v3.3l2.9 2.9z"/><path d="m386 417.9-7.6-1-3.3-3.3v-4.5l.8.1q1.1.3 2 1.1a8 8 0 0 1 4-3.7l.4-.1.3.2q2.6 1.9 4 4.7.8-.7 2-.7h.8v4.6l-3.1 2.4zm-.5-1.7 2.4-1.9v-1.8q-.6.3-1 .9l-.9 1.1-.4-1.5a9 9 0 0 0-3.4-4.7c-1.7 1-2.6 2-3.3 3.8l-.4 1.4-.9-1.3q-.4-.6-1-1v1.8l2.4 2.4z"/><path fill="#fff" d="m387.3 425.4 1.4-2.9v-4.3c-1.1 0-1.6.4-2.4 1.4q-1.1-3.5-4-5.5a7 7 0 0 0-4 4.4c-.9-1.2-1.4-1.5-2.5-1.8v4.3l1.3 3.2z"/><path d="m387.8 426.3-11.1-1.3-1.6-3.9v-5.3l.8.2q1.1.3 2 1a8 8 0 0 1 4-3.7l.4-.1.3.2q2.6 1.9 4 4.7.9-.6 2-.7h.8v5.4l-1.4 3zm-1-1.7 1.1-2.4v-3q-.6.3-1 1l-.9 1-.4-1.5q-1-2.9-3.3-4.7c-1.8 1-2.7 2-3.4 3.9l-.4 1.4-.9-1.3-1-1.1v3l1 2.6z"/><path fill="#fff" d="m387.6 436.6 4.2-5V426c-1.6 0-2.3.6-3.6 2.3-1.1-3.8-3-4.9-6-7-3 1.4-4.8 1.9-6 5.5-1.1-2-1.9-2.6-3.5-3v5.5l4.3 6z"/><path d="m387.9 437.4-11.3-1.3-4.6-6.6V423l.8.2q1.9.4 3.2 2.1a10 10 0 0 1 4.6-4l1.3-.6.3-.2.4.3 1.1.8a15 15 0 0 1 4.8 5.3q1.4-1.4 3.2-1.5h.8v6.7l-4.4 5.2zm-.7-1.7 3.8-4.5v-4.1q-1.1.4-2.1 1.8l-1 1.4-.4-1.8q-.8-3-4.5-5.7l-.8-.5-.9.4q-3.5 1.8-4.3 4.5l-.5 1.6-.9-1.6a6 6 0 0 0-2.1-2.2v4.1l3.8 5.5z"/><path fill="#fff" d="M388.8 447.7c.2-.2 4.5-4 5.2-6.5v-5.8c-2 0-3.5.3-5.1 2.5-1.4-5-3-6.5-6.6-9.3-3.7 2-5.3 3-6.7 7.7a7 7 0 0 0-5.1-3.7v5.8c.9 2.6 5.1 7.6 5.2 7.7z"/><path d="m389 448.5-13.6-1.6-.2-.2a25 25 0 0 1-5.4-8.2v-6.9l.8.2q3 .8 4.8 2.8 1.7-4.1 6.5-6.7l.4-.3.3.4q4.8 3.8 6.6 8.3a7 7 0 0 1 4.7-1.8h.9v6.9c-.4 2-2 4-5.5 7zm-.5-1.7q4.3-3.6 4.8-5.8v-4.8a5 5 0 0 0-3.8 2.2l-.9 1.5-.5-1.9q-1-4.5-5.9-8.5-4.7 2.9-5.8 7.1l-.5 1.8-1-1.7q-1.2-2.2-3.7-3v4.7q.8 2.3 4.8 7z"/><path fill="#fff" d="M390.9 468.1c.2-.2 6.4-7 7-10.2v-9.1c-2.7.2-4.8 1.5-6.9 5.1-1.7-7.8-4-13-8.7-17.4-4.8 3.2-7.1 8-8.8 15.4q-3-5.8-6.8-6.7v9c.8 3.2 6.8 11.8 7 11.9z"/><path d="m391.2 469-18-2.1-.2-.3q-6.5-9-7-12.3V444l.8.3q3.7 1 6.4 5.3 2.6-9.8 8.6-14l.5-.2.4.4q6 5.4 8.6 16c2-2.6 3.8-3.7 6.4-4h.9V458q-.3 3.4-7.1 10.7zm-.6-1.7q6.2-6.8 6.5-9.5v-8.1q-3.1.6-5.4 4.7l-1 1.8-.4-2.2a32 32 0 0 0-8-16.5q-5.7 4.1-8 14.6l-.5 2-1-2q-2.2-4.5-5.4-5.9v8q.6 3 6.6 11.1z"/><path fill="#fff" d="M390.9 480s5.6-5.5 7-8v-9.2c-2.7.3-4.8 1.6-6.9 5.2a28 28 0 0 0-8.7-16.6c-4.8 3.3-7.1 7-8.8 14.5-2-4-4.2-5.9-6.8-6.7v9c1.6 3 6.9 9.8 7 9.8z"/><path d="m391.2 481-18-2.2-.1-.3q-5.5-7-7-9.9l-.2-.2v-10.2l.9.2q3.7 1 6.4 5.4 2.5-8.9 8.6-13l.5-.4.4.4q6.1 5.7 8.6 15.1c2-2.6 3.8-3.7 6.4-3.9h.9v10.3q-1.4 2.7-7.2 8.4zm-.6-1.8q5.3-5.2 6.5-7.5v-8q-3.1.6-5.4 4.7l-1 1.8-.4-2.2q-2.1-9.9-8-15.5c-4 3-6.6 7.2-8 13.7l-.5 2-1-2q-2.2-4.6-5.4-6v8q1.5 2.7 6.5 9z"/><path fill="#fff" d="M393.2 487.3a32 32 0 0 0-11.2-21c-8.2 5.2-9.6 10.6-11.3 18.4z"/><path d="m394.2 488.2-24.5-2.8.2-1q1.7-7 3.3-10.3 2.7-5 8.3-8.4l.5-.3.4.4q5.6 4.8 8.3 10.3a58 58 0 0 1 3.3 11.1zm-2-1.8q-1.4-6.5-2.9-9.7-2.4-4.9-7.4-9.3a22 22 0 0 0-7.3 7.6q-1.5 2.9-3 9z"/><path fill="#fff" d="M397.4 492.2v-11.4q-5.9 1.8-8.2 5.4c-1.5-6.5-4-9.5-7.4-13.8-3.3 3.5-5.4 6-6.9 12.1a20 20 0 0 0-8.2-7.3v11.4z"/><path d="m398.2 493-32.3-3.7V476l1 .5q5.4 3 7.8 6 1.7-5.6 6.6-10.7l.5-.6.6.7.5.7q4.8 6.2 6.5 11.7a17 17 0 0 1 7.7-4.3l1-.3zm-1.5-1.7v-9.4c-3.7 1.3-5.7 2.8-6.9 4.7l-1 1.9-.4-2.2c-1-4-3-8-6.6-12.7a26 26 0 0 0-6.1 11.2l-.5 2-1-2a17 17 0 0 0-6.8-6.3v9.4z"/><path fill="#fff" d="M651.9 569.6v-34.4c1.3-4.4 4.3-7.5 7.1-8.4v-30.2l-5.9 2.9-6.7 31V569z"/><path d="M652.6 535.4c1.3-4.6 3.2-6.9 6.6-7.7l.6-.2v-32.2l-7.3 3.6-6.9 31.4v39.5l7 .6zm-1.5 33.3-4-.4v-37.7l6.7-30.5 4.4-2.2v28.3c-3.6 1.2-5.7 3.7-7 8.8h-.1z"/><path fill="#fff" d="M651.9 569.7v-34.5c1.3-4.4 4.3-7.5 7.1-8.3v-32.4c-4 .2-5.7 4.6-5.9 5l-6.7 31v38.4z"/><path d="M652.6 535.4c1.3-4.6 3.2-6.9 6.6-7.7l.6-.2v-33.7h-.8c-3.1-.1-5 1.3-6.6 5.3v.1l-6.8 31.1v39.3l7 1zm-1.5 33.4-4-.6v-37.6l6.7-30.8q1.7-4.2 4.4-4.5v30.9c-3.6 1.2-5.7 3.7-7 8.8h-.1z"/><path fill="#fff" d="M656 578.9c-2.9-1.8-6.3-5.4-6.7-9.1v-43l2-3.3c-22.7-2.1-45.3-4.9-68.6-8l2.7 3.9v42.9a9 9 0 0 1-5.5 7.8q37.5 5.2 76.1 8.8"/><path d="M656.4 578.2c-4.3-2.6-6.1-5-6.3-8.4v-42.7l2.4-4.3c-23.6-2.2-47.1-5-71.4-8.4l3.5 5.2v42.6c-.2 3.7-1.6 5.7-5 7l.3 1.7q37.5 5.2 76.1 8.8zm-3.3-.4q-34.7-3.2-70.4-8.2c2.3-1.7 3.3-3.8 3.4-7.2v-43.2l-1.8-2.7q32.3 4.5 65.6 7.6l-1.3 2.4v43.2c.2 3.2 1.4 5.6 4.5 8.1"/><path fill="#fff" d="M593.7 572c3-1.3 6.4-4 6.7-7.7v-40.8l-5.7-6.4 46.6 5.4-5.7 5v40.9c.3 3.8 3.8 7.4 6.7 9.2z"/><path d="m593.4 571.2.3 1.5 48.6 5.7.3-1.5c-4.2-2.6-6-5.1-6.2-8.4V528l6.8-6.1-50.4-5.9 6.9 7.7v40.5c-.2 3.3-2 5.3-6.3 7m3.3.3q4.3-2.6 4.5-7.1v-41.2l-4.5-5 42.7 5-4.5 4v41.1c.1 3.2 1.4 5.6 4.4 8.2z"/><path fill="#fff" d="M600.3 572.8c3-1.2 6.3-4 6.7-7.7v-37l-3.8-6 29.6 3.4-3.7 5.3v36.9c.3 3.8 3.8 7.4 6.7 9.2z"/><path d="m600 572 .3 1.6 35.5 4.1.3-1.5c-4.3-2.6-6-5.1-6.2-8.4V531l4.4-6.2-32.5-3.8 4.4 7.3V565c-.2 3.3-2 5.3-6.2 7m3.3.3c3-1.9 4.3-3.9 4.4-7.1V528l-3-5 26.7 3.2-3 4.2v37.2c.1 3.2 1.4 5.6 4.4 8.2z"/><path fill="#fff" d="m625.1 524.7-14.1-1.6v51l14.1 1.7z"/><path d="m625.9 524-15.7-1.8v52.6l15.7 1.8zm-1.5 1.4V575l-12.7-1.5V524z"/><path fill="#fff" d="m644.4 541-5.7-.6v27.7l5.7.6zm-48.5-5.6-5.6-.7v27.7l5.6.7zm53.3-40.7-6.8-.7v28.5l6.8.6zm0-5.3-6.8-.7v5.3l6.8.6z"/><path d="m649.2 488.6-6.8-.7-.7.7v33.8l.7.9 6.8.6.7-.7v-33.8zm-4.9 51.6-5.6-.6-.8.7v27.8l.8.8 5.7.6.7-.7V541zm-48.4-5.6-5.6-.8-.8.8v27.7l.8.9 5.6.7.8-.7v-27.7zm52.5-39.2v26.8l-5.3-.5V495zm-53.2 40.7v26.1l-4.2-.5v-26.1zm48.4 5.6v26.1l-4.1-.4v-26.1zm-.4-48.5v-3.6l5.2.5v3.7z"/><path fill="#fff" d="m593.2 494.4-9.7-1.3v22l9.7 1.3z"/><path d="m593.2 493.6-9.7-1.3-.8.7v22l.8 1 9.7 1.2.8-.7v-22zm-.8 1.6v20.2l-8-1.1v-20.2z"/><path fill="#fff" d="M642.5 522.3v-48.7c-1.9.5-2.3 6.3-6.7 6.5-2.3-.6-2-3-.8-5.5 1.2-2.1 2.4-4.6.6-10.5-1.6 4-4.5 5.1-4.2 2.5 1.4-4.4 4.1-4.8 2-12-1.2 5.6-4 5.1-3.5 1.7 1-3.7 2.7-5 .5-10.7-1.6 6-3 5.4-3.3 1.6 0-5.9.1-11.3-6.6-14.7 0-.4-.4-4.7-2.8-5.5-2.5.3-2.9 4.5-3 4.9-6.7 1.7-6.5 7.2-6.5 13-.2 4-1.7 4-3.3-2.3-2.2 5.2-.6 6.9.5 10.9.5 3.5-2.3 3.2-3.5-2.7-2.1 6.8.6 7.9 2 12.6.3 2.7-2.6.8-4.3-3.5-1.7 5.4-.5 8.2.7 10.7 1.3 2.8 1.5 5.2-.8 5.2-4.2-1.2-5-7.2-6.7-8v48.6zm10.6-35.8v37.1l-4-.3V486q2.2-1 4 .4"/><path d="M643.2 472.9h-.7q-1.3-.1-2.6 2.6-1.9 4-4.1 3.8-1-.1-1-1.2 0-1.4.9-3c1.8-3.5 2-6.8.7-11.2l-.8-2.1-.7 2q-.8 2.6-2.5 3.3l-.4.1.1-.3q.4-1.3 1.4-3.1c1.5-3 1.7-5.7.6-9.5l-1-3-.5 3q-.6 3.5-1.8 3.7h-.2q-.3-.5 0-1.4l.7-2.3c1.1-3 1-5.7-.3-9l-.9-2.1-.5 2.1q-.9 3.8-1.6 4l.1-.1-.2-2v-.4a32 32 0 0 0-.9-8.3q-1.5-4.4-5.8-6.5c-.5-3.8-1.5-5.3-3.6-5.8-2 0-3 1.3-3.5 5a8 8 0 0 0-5.8 5q-.7 2.6-.9 8.2v.5q0 1.2-.2 1.8v.1q-.6-.3-1.5-4.3l-.5-2.2-1 1.9c-1.2 3-1.3 5.6-.3 9l.8 2.4q.2.9 0 1.3h-.2q-1.3-.5-1.8-4l-.5-3.2-1 2.8q-1.7 4.9.6 9.5 1 2.1 1.3 3.5l.2.4-.5-.3q-1.5-1.1-2.4-3.8l-.7-2.3-.8 2c-1.3 4-1.1 7.5.7 11.4a7 7 0 0 1 .9 3.2q0 1-1 1-2.1-.4-4.1-4.8-1.4-3-2.6-3.3h-.7v50.2l51.1 6zm-1.5 48.5-48.1-5.7v-45.9l.4 1q2.4 5.4 5.5 5.8 2.3.3 2.5-2.2a9 9 0 0 0-1-4.1 13 13 0 0 1-1.2-8q1 1.6 2.4 2.7 1.1.8 1.9.3.9-.5.5-2-.4-1.6-1.5-3.9-1.3-2.6-1.1-5.3.8 1.8 2.1 2.4c1 .3 1.4.1 2-.6q.4-1 0-2.5-.1-1-.8-2.7-.9-2.9-.4-5.5.9 2.6 2 3.1 1 .5 1.7-.8a7 7 0 0 0 .3-2.4v-.5q0-5.3.8-7.6 1.3-3.4 5.3-4.3l.5-.1v-.6c.3-3 1-4.1 2.1-4.2q1.8.3 2.1 4.7v.6l.6.2q4 1.8 5.3 5.6.7 2.3.8 7.8v.4q0 1.5.3 2.6.7 1.4 1.7 1.2 1.1-.3 2-2.7.5 2.9-.5 5.4l-.8 2.5q-.4 1.5.2 2.5.6 1.3 1.9 1 1.3-.2 2.1-1.9a9 9 0 0 1-1 5.1q-1.2 2-1.6 3.5t.5 2.2q.8.6 2 .1 1.3-.7 2.3-2.2c.5 3 .1 5.3-1.1 7.8a7 7 0 0 0-1.1 3.9q.2 2.5 2.5 2.8c2.2 0 3.7-1.2 5.4-4.6l.5-.9zm12.2-35.2-.3-.2c-1.5-1.3-2.8-1.4-4.8-.7l-.4.2V524l5.5.5zm-1.5.7v35.9l-2.5-.3v-35.8q1.4-.5 2.5.2"/><path fill="#fff" d="M653 510.5c-5 2.4-9.5 4.8-11 12l11 1.1zm-68-19v24.3l-3.2-.4V491q1.8-.5 3.2.5"/><path d="M652.7 509.8c-6.8 3.2-10.3 7-11.4 12.6l-.2.9 12.7 1.2v-15.2zm-67-18.5-.2-.3q-1.7-1.5-4-.7l-.4.2V516l4.7.6zm66.5 20.5v11l-9.2-1c1.2-4.2 4-7.2 9.2-10m-68-19.8v22.9l-1.6-.2v-23q1-.2 1.7.3"/><path fill="#fff" d="M581.8 502c5 3.5 9.5 7 11 14.6l-11-1.4z"/><path d="M581 500.7v15.2l12.7 1.7-.2-1q-1.4-8.4-11.3-15.2zm1.6 2.8c5.2 4 8 7.7 9.3 12.2l-9.3-1.2z"/><path fill="#fff" d="m614.2 449.7-2.8-2.9v-3.3q1.4.3 2.4 1.9 1-3.2 4-4.5 3 2 4 5.4c.8-1 1.3-1.3 2.4-1.3v3.3l-2.8 2.2z"/><path d="m614 450.5 7.6.9 3.4-2.6v-4.6h-.9q-1.1 0-2 .6-1.2-2.7-4-4.6l-.3-.2-.3.2q-2.8 1.2-4 3.7-1-.9-2-1.2l-.9-.2v4.6l3.1 3.2zm.5-1.6-2.4-2.4v-1.8l1 1 1 1.4.4-1.4q.8-2.6 3.3-3.9a9 9 0 0 1 3.3 4.6l.4 1.5 1-1.1q.4-.6 1-.8v1.8l-2.4 1.9z"/><path fill="#fff" d="m612.7 457.7-1.3-3.2v-4.3c1 .3 1.6.7 2.4 2q1-3.3 4-4.6 3 2 4 5.4c.8-1 1.3-1.2 2.4-1.2v4.2l-1.3 3z"/><path d="m612.2 458.5 11.2 1.3 1.6-3.5V451h-.9q-1.1 0-2 .6-1.2-2.8-4-4.7l-.3-.2-.3.2a8 8 0 0 0-4 3.7q-1-.9-2-1.2l-.9-.1v5.3l1.4 3.4zm1-1.5-1-2.6v-3l1 1.1.8 1.4.5-1.4q.8-2.7 3.3-4a9 9 0 0 1 3.3 4.7l.5 1.5.8-1.1 1-.9v3l-1 2.4z"/><path fill="#fff" d="m612.5 468.9-4.2-6v-5.5c1.5.4 2.3 1 3.5 3 1.2-3.5 3-4 6-5.5 3 2.1 4.8 3 6 6.9 1.2-1.8 2-2.1 3.5-2.2v5.5l-4.2 5z"/><path d="m612.1 469.6 11.3 1.3 4.7-5.5v-6.6h-.9q-1.8 0-3.2 1.4-1.3-2.7-4.6-5l-1.2-1-.4-.3-.4.2-1 .5a10 10 0 0 0-4.8 4.3q-1.4-1.9-3.3-2.3l-.8-.2v6.6l4.4 6.3zm.7-1.5-3.8-5.5v-4.1q1.2.7 2.2 2.4l.9 1.6.4-1.7q.9-2.8 4.6-4.7l.7-.3 1 .6q3.4 2.7 4.3 5.5l.4 1.8 1-1.4q.9-1.4 2-1.8v4.2l-3.8 4.5z"/><path fill="#fff" d="M611.3 479.6c-.2-.1-4.6-5.1-5.3-7.7V466a8 8 0 0 1 5.2 3.8c1.3-4.7 3-5.7 6.6-7.7 3.6 2.8 5.3 4.3 6.6 9.3 1.6-2.2 3.1-2.5 5.2-2.6v5.8a27 27 0 0 1-5.3 6.6z"/><path d="m611 480.4 13.6 1.6.2-.2c3.3-3 5-5 5.5-6.9v-7h-.8a7 7 0 0 0-4.8 1.9q-1.7-4.5-6.5-8.3l-.4-.3-.4.2q-4.8 2.8-6.5 6.7a9 9 0 0 0-4.8-2.8l-.8-.3v6.9q.3 2.8 5.5 8.3zm.5-1.5q-4.4-4.8-4.7-7v-4.8a7 7 0 0 1 3.7 3l1 1.8.4-1.8c.9-3 2.6-5 5.9-7a17 17 0 0 1 5.9 8.4l.4 1.8 1-1.4q1.3-2 3.7-2.2v4.7q-.7 2.2-4.8 6z"/><path fill="#fff" d="M609.1 499.6c-.1-.2-6.3-8.8-6.9-12v-9c2.6.8 4.8 2.7 6.8 6.7 1.7-7.4 4-12 8.8-15.3a31 31 0 0 1 8.8 17.4c2-3.6 4-5 6.8-5.2v9a48 48 0 0 1-7 10.4z"/><path d="m608.8 500.3 18 2.1.2-.2q6.5-7.5 7.1-10.7v-10.1h-.8c-2.7.2-4.5 1.3-6.4 4a32 32 0 0 0-8.7-16l-.4-.4-.5.3q-5.9 4-8.6 13.9-2.7-4.3-6.4-5.5l-.8-.2v10q.2 3.4 7 12.6zm.7-1.5a33 33 0 0 1-6.5-11.1v-8.1q3.1 1.4 5.3 6l1 2 .4-2q2.4-10.5 8-14.6a32 32 0 0 1 8.1 16.5l.5 2.1 1-1.8q2.1-4 5.3-4.7v8q-.5 2.8-6.5 9.6z"/><path fill="#fff" d="M609.1 511.5s-5.6-7-6.9-9.9v-9c2.6.8 4.8 2.7 6.8 6.8 1.7-7.4 4-11.2 8.8-14.4a28 28 0 0 1 8.8 16.4c2-3.6 4-5 6.8-5.2v9a92 92 0 0 1-7 8.3z"/><path d="m608.8 512.3 18 2 .2-.1q5.5-6 7-8.4l.1-.2v-10.2h-.8c-2.7.2-4.5 1.4-6.5 4a30 30 0 0 0-8.6-15l-.4-.4-.5.2c-4.1 3-6.8 7-8.6 13q-2.7-4.4-6.4-5.4l-.8-.3V502q1.3 3 7.1 10.1zm.7-1.5a53 53 0 0 1-6.5-9.2v-8q3 1.4 5.4 6l1 2 .4-2q2-9.4 8-13.6 5.9 5.7 8 15.5l.5 2.2 1-1.8c1.5-2.9 3.1-4.2 5.3-4.8v7.9q-1.5 2.4-6.5 7.7z"/><path fill="#fff" d="M606.8 518.2c1.7-7.8 3.2-13.1 11.3-18.2 8 7 9.5 12.7 11.3 20.8z"/><path d="m605.9 518.9 24.4 2.8-.2-1q-1.6-7.5-3.3-11-2.6-5.5-8.3-10.3l-.4-.4-.4.3q-5.6 3.5-8.3 8.3a46 46 0 0 0-3.3 10.3zm1.9-1.4q1.5-6 2.9-9 2.4-4.3 7.4-7.5 5 4.4 7.4 9.3 1.5 3.2 3 9.6z"/><path fill="#fff" d="M602.6 522v-11.4a21 21 0 0 1 8.3 7.4c1.5-6.1 4-8.5 7.3-12a30 30 0 0 1 6.9 13.7q2.4-3.6 8.3-5.5v11.4z"/><path d="m601.9 522.7 32.2 3.8v-13.3l-1 .3c-3.7 1.2-6 2.6-7.7 4.3q-1.9-6-6.6-12.3l-.6-.7-.5.6-.6.6a28 28 0 0 0-6.5 10.1q-2.3-3.1-7.7-6.2l-1-.5zm1.5-1.4V512q5.3 3 6.8 6.3l1 2.1.4-2q1.4-5.7 6.6-11.2 4.8 6.4 6.2 12.6l.4 2.2 1-1.8q1.5-3 6.8-4.8v9.3z"/><path fill="#fff" d="M333.2 536v10.4c110 8.8 220.2 34.2 333.6 43.3v-10.4c-110-8.8-220.2-34.2-333.6-43.2m-6 10v13.5c114 8.5 228.1 35.4 345.6 44.2v-13.5c-114-8.5-228.1-35.5-345.6-44.2m345.6 57.7c-114-8.5-228.1-35.4-345.6-44.1l-10.1-.8v17.8c120.7 7.8 241.4 37.6 365.8 45.6v-17.8zm-366-27.5v21c127.5 6.9 255 39.6 386.3 46.8v-21c-127.4-7-254.9-39.7-386.2-46.9m386.1 68c-127.4-7-254.9-39.7-386.2-46.8l-10.2-.5v21c134.2 5.8 268.3 41.8 406.6 47.8v-21z"/><path d="M332.4 535.2c110.6 8.8 221.2 34.4 335.2 43.4V589l6 .4V603l10.1.7v18l10.2.6v21l10.2.5v22.6c-134.7-5.7-269.4-42-408.2-47.8v-22.7l10.2.5v-21l10.2.6v-18l10.1.8v-13.6l6 .5zM306.1 598l-8.7-.4V617c133.7 6 267.4 41.6 405.2 47.7v-19.4l-8.7-.4c-128-6.8-256-39.8-387.8-46.8zm386.3 45.2v-19.4c-127-7-254-39.5-384.8-46.7v19.4c127 7 254 39.5 384.8 46.7m-19.6-38.6c-114-8.5-228.1-35.4-345.6-44.1l-9.4-.7V576c120.2 7.9 240.5 37.4 364.4 45.5v-16.2l-8.6-.6zm-.7-1.7V591c-113.6-8.5-227.2-35.3-344.2-44v11.8c113.6 8.6 227.2 35.3 344.2 44.1m-6-14V580c-109.6-8.8-219.2-34-332.1-43.2v8.8c109.5 8.8 219.1 34 332 43.1"/><path fill="#fff" d="m369.4 539.5 25.2 3v83.9l-25.2-3z"/><path d="m368.6 538.6 26.8 3.1v85.7l-26.8-3.2zm1.6 2v82l23.6 2.8v-82.1z"/><path fill="#fff" d="m375 540.2 14 1.6v83.9l-14-1.7z"/><path d="m374.2 539.2 15.6 1.8v85.7l-15.6-1.9zm1.6 2v82l12.4 1.5v-82.1z"/><path fill="#fff" d="m487 555.7 25.2 4v83.8l-25.2-3.9z"/><path d="M486.2 554.7 513 559v85.6l-26.8-4.1zm1.6 2V639l23.5 3.6v-82.1z"/><path fill="#fff" d="m492.7 556.6 14 2.2v83.9l-14-2.2z"/><path d="m491.9 555.6 15.7 2.4v85.7l-15.7-2.4zm1.6 2v82.2l12.4 1.9v-82.2z"/><path fill="#fff" d="m605.2 573 25.2 3v83.8l-25.2-3z"/><path d="m604.4 572 26.8 3.1v85.7l-26.8-3.1zm1.6 2v82l23.6 2.8v-82.2z"/><path fill="#fff" d="m610.8 573.7 14 1.6v84l-14-1.7z"/><path d="m610 572.7 15.7 1.8v85.7l-15.7-1.8zm1.6 2v82l12.4 1.6V576z"/><path d="M348.2 528c100.3 9.4 200.6 31.2 304 40.8v1.6c-100.3-9.3-200.6-31.1-304-40.7zm26.5 21.7 14.6 1.7v1.6l-14.6-1.7zm0 10.5 14.6 1.7v1.6l-14.6-1.7zm0 10.5 14.6 1.7v1.6l-14.6-1.7zm0 31.5 14.6 1.7v1.6l-14.6-1.7zm0 10.5 14.6 1.7v1.6l-14.6-1.7zm235.8 33.5 14.6 1.7v1.6l-14.6-1.7zm0-63 14.6 1.7v1.6l-14.6-1.7zm0 10.5 14.6 1.7v1.6l-14.6-1.7zm0 10.5 14.6 1.7v1.6l-14.6-1.7zm-235.8-23 14.6 1.7v1.6l-14.6-1.7zm235.8 33.5 14.6 1.7v1.6l-14.6-1.7zm-235.8-23 14.6 1.7v1.6l-14.6-1.7zm235.8 33.5 14.6 1.7v1.6l-14.6-1.7zm0 10.5 14.6 1.7v1.6l-14.6-1.7zm-117.7-48.5 13.5 2v1.7l-13.5-2.1zm0 31.5 13.5 2v1.7l-13.5-2.1zm0-52.5 13.5 2v1.7l-13.5-2.1zm0 10.5 13.5 2v1.7l-13.5-2.1zm0 21 13.5 2v1.7l-13.5-2.1zm0 10.5 13.5 2v1.7l-13.5-2.1zm0 21 13.5 2v1.7l-13.5-2z"/><path fill="#1a1a1a" d="M8 195.3c171.2-85.4 341.7-54.4 514.3-27.9C677 191.2 833.8 211.7 992 132.7v672c-171.2 85.4-341.7 54.3-514.3 27.9C323 808.8 166.2 788.3 8 867.2zm31.3 19.3v604.5c306.5-128.3 611.1 96 921.5-33.7V180.9c-306.5 128.3-611.2-96-921.5 33.7" opacity=".2"/></svg>