<svg xmlns="http://www.w3.org/2000/svg" viewBox="0 0 1000 1000"><path fill="#ce1126" d="M8 195c171-85 341-54 513-28 155 24 312 45 471-34v672c-171 85-341 54-513 28-155-24-312-45-471 34z"/><path fill="#fcd116" d="M581 493c15 7 36 8 46 25-15-6-32 22-46 14 12 13-177-26-162-25-15-7-36-8-46-25 15 6 32-22 46-14-12-13-33-25-38-44 12 12 36-5 48 9-9-18-26-38-26-59 9 18 37 13 44 32-4-20-15-47-10-66 4 20 32 30 35 50 1-20-4-50 6-64-1 20 24 42 22 62 6-18 10-47 22-55-6 17 14 49 6 66 11-13 21-38 35-39-10 13 1 50-10 62 13-7 29-24 44-19-13 7-12 46-26 52 15 0 35-9 48 3-15 0-23 36-38 35"/><path fill="#bd9c08" d="m587 493 8 3 18 7q10 5 15 14l2 4-3-2q-7-3-22 8l-12 7h-10l-1 1-5 1-18-1-60-10-59-11-18-4-4-1-1-1-12-4-18-7q-10-5-15-14l-2-4 3 2q7 3 22-8l12-7 7-1-8-7-16-15q-8-9-10-19l-2-5 3 4q6 5 24 3h13l6 2-5-10-12-21q-6-13-5-23v-5l2 5q4 8 21 14l14 6 5 5-3-12-6-24v-23l2-5 1 5q2 9 17 23l11 12 5 7v-37q1-14 6-20l3-4-1 5q-1 9 11 29l8 17q3 4 3 8l3-11 7-22q4-12 10-16l4-2-2 5q-3 7 4 31l4 18v9l5-8 13-17q7-9 14-9l4-1-3 4q-4 6-4 30l-1 18-2 9 8-5q10-8 16-10 9-4 16-2l4 2-3 1q-6 4-12 26l-6 16-4 7 9-1 18-2q10 0 17 6l3 3h-4q-6 1-17 17-6 10-10 13zm-6 1v-3q7 1 19-17 9-14 16-17l-13-4-17 2-15 1v-3q6-3 12-25 5-18 11-24-6-1-12 2l-16 10-13 8-1-3q6-6 5-30 0-20 3-29l-10 8-12 16-9 14-2-2q4-8-3-33-4-19-4-28-7 8-14 34l-5 18-2-2q1-9-11-30-9-17-11-27l-4 16v44h-2q-2-9-17-24-13-11-17-20-1 13 6 40l5 20-2 1q-3-9-21-16-15-5-21-12 1 7 5 16l11 21 10 16-2 2q-5-6-23-4-15 1-22-2l9 13 15 14 13 12-1 3q-7-5-23 6-12 9-19 9 7 9 28 15l14 6 3 1 18 3 59 12 81 11 1-3q7 5 23-6 12-9 19-9-7-9-28-15zm-162 15v-2z"/><path fill="#fcd116" d="m432 490-52-36 56 4-42-57 54 31-26-71 44 53-8-77 30 69 12-73 12 77 30-60-8 74 44-40-26 64 54-16-42 46 56 10-52 22 52 36c-79-9-158-25-240-34z"/><path fill="#bd9c08" d="m428 489-49-33v-3l1-1 53 4-39-53-1-3h2l50 29-24-68v-2h1l42 51-7-73 1-2 1 1 29 66 11-69v-1h1l1 1 11 73 29-57v-1l1 1 1 1-7 71 42-38h1v2l-24 61 50-16h1l1 2-1 1-39 44 53 9 1 2v2l-49 21 49 33v3l-1 1c-79-10-158-25-240-34l-1-2v-2zm4-1 1 1v2h-1l-46 20c75 9 150 23 228 33l-46-32-1-1 1-2 46-20-50-10h-1v-3l38-41-48 15-1-1-1-1v-1l24-57-40 36h-1l-1-2 7-67-27 54-1 1-1-1v-1l-11-69-11 66v1h-1l-1-1-27-62 7 69v1l-1 1-1-1-40-48 24 64v2l-2 1-48-28 38 51v2l-1 1-50-4z"/><path fill="#fcd116" d="M568 510c0 52-30 88-68 83-38-7-68-52-68-103 0-52 30-88 68-83 38 7 68 52 68 103"/><path fill="#bd9c08" d="M569 510q1 40-20 64-21 25-49 21t-49-36q-20-30-20-69-1-40 20-64 21-25 49-21 28 5 49 36 21 30 20 69m-3 0q0-37-19-67-20-30-47-34-27-3-47 20a94 94 0 0 0-19 61q0 37 19 67 20 30 47 34 28 3 47-20 19-24 19-61"/><path fill="#fcd116" d="m522 279 37 6q-1-4-6-8c-10-3-16 0-28-2z"/><path fill="#bd9c08" d="m520 280 5-6h13l15 2 4 4 3 5v1l-38-6zm5-2 32 5-1-1-3-4-15-1h-12z"/><path fill="#fcd116" d="M450 256q15 26 41 32c21 3 45-16 73-20l-93-17q-18-18-27-7l-18-1c-3 2 2 9 5 10z"/><path fill="#bd9c08" d="m449 258-18-3-6-6-1-4 1-4 18 2q12-11 28 7l93 17 1 3q-13 1-37 11-25 9-37 8-12-2-24-11-11-8-18-20m2-2q6 11 17 20 12 9 23 10 11 2 36-8l29-10-85-15-1-1q-15-17-26-6l-18-2v1l1 3 5 4z"/><path fill="#fcd116" d="M492 254c-4-22-16-32-31-38-17-5-57-15-84-28 12 17 36 28 52 34q27 8 49 30z"/><path fill="#bd9c08" d="m493 256-15-3h-1q-15-18-48-30-38-13-53-34l1-2a429 429 0 0 0 84 28q27 9 32 39zm-2-3q-5-27-30-35l-17-5q-42-12-63-22 15 18 49 29 32 12 48 31z"/><path fill="#fcd116" d="M481 267q9 15 23 4c10-7 20-29 24-29 35 2 75-11 95-24q-37 4-75 0c-42-6-47 19-65 36z"/><path fill="#bd9c08" d="M482 266q7 15 22 4 4-3 13-17 8-12 11-12 24 2 53-7 22-6 37-15l-3 1q-45 3-67-1-21-2-34 5-8 5-19 18l-12 13v-3l11-12q10-14 19-19 14-7 35-4 23 3 66 0l9-1v3q-16 10-42 18-29 9-53 6l-10 12q-9 14-13 17-16 12-25-4v-2l1-1zm5-11 15-13 10-10q9-7 23-9 8-1 25 1 15 2 56-6h2l1 1v1l-1 1h-1a207 207 0 0 1-82 4q-12 1-22 10l-10 9-16 14zm-10-4q-2-12-10-20l-21-12-15-4a319 319 0 0 1-49-21l-4-3 1-3 4 3 9 6 39 15 15 5q14 5 21 11 10 9 12 23zm7 28q18 4 43-8h1v2q-26 14-44 8l-1-1v-1zm-58-34 21 3 1 2-1 1-21-3-1-2zm30 3q0 3-2 3-3 0-3-4 0-3 3-3z"/><path fill="#003f87" d="M8 565c171-85 341-55 513-28 155 24 312 44 471-35v303c-171 85-341 54-513 28-155-24-312-45-471 34z"/><path fill="#fff" d="M8 771c33-16 66 0 98-8 33-9 66-43 99-46 33-2 65 26 98 28s66-23 99-19c32 4 65 37 98 43 33 5 66-19 98-15 33 5 66 36 99 38s65-27 98-30c33-2 66 21 99 13 32-9 65-50 98-66v-48c-33 16-66 57-98 66-33 8-66-15-99-13-33 3-65 32-98 30s-66-33-99-38c-32-4-65 20-98 15-33-6-66-39-98-43-33-4-66 21-99 19s-65-30-98-28c-33 3-66 37-99 46-32 8-65-8-98 8zm0-96c33-16 66 0 98-8 33-9 66-43 99-46 33-2 65 26 98 28s66-23 99-19c32 4 65 37 98 43 33 5 66-19 98-15 33 5 66 36 99 38s65-27 98-30c33-2 66 21 99 13 32-9 65-50 98-66v-48c-33 16-66 57-98 66-33 8-66-15-99-13-33 3-65 32-98 30s-66-33-99-38c-32-4-65 20-98 15-33-6-66-39-98-43-33-4-66 21-99 19s-65-30-98-28c-33 3-66 37-99 46-32 8-65-8-98 8zm0-96c33-16 66 0 98-8 33-9 66-43 99-46 33-2 65 26 98 28s66-23 99-19c32 4 65 37 98 43 33 5 66-19 98-15 33 5 66 36 99 38s65-27 98-30c33-2 66 21 99 13 32-9 65-50 98-66v-48c-33 16-66 57-98 66-33 8-66-15-99-13-33 3-65 32-98 30s-66-33-99-38c-32-4-65 20-98 15-33-6-66-39-98-43-33-4-66 21-99 19s-65-30-98-28c-33 3-66 37-99 46-32 8-65-8-98 8z"/></svg>