<svg xmlns="http://www.w3.org/2000/svg" viewBox="0 0 1000 1000"><path fill="#ce1126" d="M8 195.3c170.8-85.3 341-54.5 513.3-28C676.5 191 833.4 211.8 992 132.7v672c-170.8 85.3-341 54.5-513.3 28C323.5 809 166.6 788.1 8 867.2z"/><path fill="#fcd116" d="M581 492.6c14.6 7.1 35.8 8.7 45.9 25.2-14.7-6.3-31.8 22-45.9 13.8 11.5 13.6-176.8-26.1-162-24.2-14.6-7.1-35.8-8.7-45.8-25.2 14.6 6.3 31.7-22 45.8-13.8-12.4-13.3-33-25-38.2-44.6 12.6 12.6 36.5-4.9 48 9.3-8.7-17.9-26-38.4-26-58.7 9 17.5 36.8 13 44.3 31.5-4-20.3-15.2-47-10.5-65.5 4.3 20 32.3 29.4 35.3 49.7 1.2-20.2-3.7-49.9 6-64.1-.8 20 24.4 42 22.1 61.7 6.3-17.7 9.9-46.3 22-55-5.8 17.7 13.8 49.5 6.1 66 10.6-13 20.7-37.3 35.3-39.2-10.1 13.2.3 50.7-10.5 62.5 13.6-6.9 29.2-24.2 44.3-19.2-13.2 7.4-12.4 46.2-26 51.7 15 .2 34.5-8.2 48 3.2-14.8.6-23 36.3-38.2 34.8"/><path fill="#bd9c08" d="M586.7 493.3q3.6 1.5 8.6 3 12.3 4.1 18 7.1a37 37 0 0 1 14.5 13.4l2.6 4.4-3.9-1.8c-4.5-2-11.4.3-21.7 7.3q-8.2 5.5-12.2 7a14 14 0 0 1-10 .4l-1 1q-1.3.6-4.5 1-5.8.2-18.4-1a882 882 0 0 1-59.8-9.7l-59.3-11.7L422 510l-4.1-1-.7-.7a152 152 0 0 0-12.5-4.6q-12.3-4.2-18-7.1a37 37 0 0 1-14.5-13.4l-2.6-4.4 3.9 1.8c4.5 2 11.4-.3 21.7-7.3q8.2-5.5 12.2-7 3.4-1.3 6.3-1.2l-7.7-6.9a180 180 0 0 1-15.8-15 48 48 0 0 1-10.6-19l-1.2-5 3 3.3c4 4 11.3 5.1 23.1 3.7q9.4-1 13.6-.6 3.5.5 6.3 1.9l-5.8-9.9q-8.4-13.8-11.7-21a55 55 0 0 1-5.3-22.4v-5l2.2 4.4c2.8 5.4 9.6 10 21.4 14.3a82 82 0 0 1 13.4 6q3.3 2.1 5.6 4.8l-3-11.6q-4.5-16.5-5.9-24.6a57 57 0 0 1 .1-22.9l1.3-5 1 5.5q2 9.1 17.1 23.2 8.4 7.5 11.6 11.8 2.8 3.6 4.4 7.2l-.2-12.1a249 249 0 0 1 .3-25q1.3-13.6 6.2-20.5l2.4-3.4-.3 5q-.5 9.1 10.9 29 6.1 10.8 8.4 16.2 1.8 4.5 2.5 8.6l3-10.6q4.1-15.7 6.7-22.5 4.7-11.6 10.7-15.8l3.5-2.3-1.8 4.7c-1.7 5.4-.7 15.4 3.5 31q3.4 12.8 4.3 18.7.6 5 .3 8.8l5.3-8q7.8-12.3 12-17.2c5.2-5.6 9.8-8.4 14.7-9l3.9-.4-2.8 3.4c-3.1 4-4.7 13.7-4.6 30q0 12.8-.7 18.5-.6 4.8-1.8 8.2l7.5-5q10.5-7.5 16-10a23 23 0 0 1 16.7-1.4l3.9 1.4-3.6 1.8c-4.1 2.3-8 10.3-12 25.1q-3.3 11.8-5.3 16.5a29 29 0 0 1-4 6.6q3.8-.3 8.7-1.1 12.2-1.8 18-1.5c7 .5 12.2 2.4 16.7 6.3l3.5 3h-4c-4.6.3-10.2 5.6-17.7 17.1q-6 9.3-9.3 12.7-2.8 3-5.6 4.2m-6 .8.3-3.2c5 .4 10.9-4.8 18.7-16.9q9.2-14 15.9-17.2-5.2-3-12.3-3.4-5.7-.3-17.7 1.5-9.8 1.4-14.3 1.3l-.5-3.3c4.4-1.8 8.4-9.7 12.5-24.8a67 67 0 0 1 10.4-24.4q-5.4-.6-12 2.2-5.3 2.4-15.7 9.7-8.6 6-12.6 8l-1.3-3c3.4-3.8 5.2-13.4 5.1-30.1q0-20 3.3-28.5a28 28 0 0 0-10.3 7.6q-4.1 4.8-11.8 16.8-6.3 9.9-9.4 13.7l-2-2.4q3.9-7.7-2.7-32.3a95 95 0 0 1-4.4-28.6q-6.7 8.3-13.7 34.1-3.2 12.5-5 17.6l-2.4-1.3c.7-6.3-2.6-16-10.6-30q-9.5-16.7-11.2-26.8-2.7 5.8-3.7 15.6-.6 7.5-.2 24.4.4 14 0 20l-2.4-.2q-1.4-9.6-17-24.1a71 71 0 0 1-16.7-20.5q-1.1 13.1 6.5 40.6 3.6 13.5 4.8 19.4l-2.2 1c-2.5-6-9.2-10.9-21.3-15.4a50 50 0 0 1-20.5-12.2q.9 7.3 4.7 16 3.1 7 11.4 20.6 6.8 11.4 9.4 16.7l-1.8 2c-3.7-4.5-11-6.1-23-4.7-9.9 1.1-16.8.5-21.7-2q2.7 6.5 8.4 13.2 4.5 5.2 15.4 14.6 9 7.8 12.6 11.8l-1.1 2.8c-4.6-2.7-11.5-.7-22.1 6.4q-12.5 8.4-20 8.3 8 8.8 28.6 15.7 9.9 3.3 14.2 5.5v.1l2.9.7 17.5 3.6 59.2 11.7q38.5 7.3 59.8 9.6 12.4 1.5 18 1 2.9 0 3.7-.6v.5l-.1.4 1.1-2.8c4.6 2.6 11.5.6 22.1-6.5 8.5-5.7 14.9-8.3 20-8.3q-8.1-8.8-28.5-15.7-10-3.3-14.3-5.5M419 508.7q.6-.6.3-1.6v-.3z"/><path fill="#fcd116" d="M431.7 489.7 380 454l56 4.4-41.5-57 53.3 30.7-26-71.4L466 414l-7.6-76.9 29.8 69.2 11.9-72.9L512 410l29.8-60.1-7.6 74.6 44.3-40.4-26 64 53.2-16.1-41.4 45.8 55.9 10.3-51.8 22.2L620 546c-79.3-9.3-158.5-24.6-240.2-34.1z"/><path fill="#bd9c08" d="m428.5 489.3-49-33.8q-1.2-.7-.7-2.2.3-1 1-1l53 4.1-39.2-53.8q-1-1.4-.1-2.4.5-.8 1.3-.3l50.4 29-24.7-67.6q-.5-1.5.5-2.1.7-.4 1.4.3l41.8 50.4-7.1-72.7q-.1-1.7 1-1.8.9 0 1.2 1l28.3 65.5 11.2-69q.2-.8.5-1 .4-.3 1 0 .8.3.9 1.4l11.2 72.4 28.3-56.9q.3-.6.7-.7t1 .5.5 1.7l-7.1 70.6 41.8-38.2q1-.9 1.8.5.4 1 0 1.9l-24.6 60.4 50.4-15.1q.6-.2 1 0 .4.4.6 1.2.2 1.1-.4 1.7l-39.2 43.4 53 9.7q1.2.3 1.1 2 0 1-.7 1.3l-49 21 49 33.8q1 .7.6 2.2-.2 1-1.1 1c-79.3-9.3-158.5-24.7-240.2-34.1q-1.2-.2-1.2-1.9 0-1 .7-1.4zm3.7-1q.4.3.7 1v1.3q-.1.5-.7.7l-46 19.6c75 9 150.2 23.3 227.6 32.6l-46-31.7q-.4-.4-.6-1-.5-1.7.6-2.1l46.6-19.9-50.3-9.3q-.5-.1-.8-.7t-.4-1.3.5-1l37.2-41.2-48 14.4q-.4 0-.9-.3l-.6-1q-.1-.6.1-1.3l23.4-57.4-39.7 36.2q-.4.4-1 .2-1-.4-1-2l6.8-67-26.8 54q-.2.5-.8.6t-1-.3-.4-1.2L500 341.4l-10.7 65.5q0 .6-.5 1-.5.3-1 .1-.3-.1-.7-1l-26.8-62 6.8 69q0 .7-.3 1.3-.3.5-.8.6t-.9-.6l-39.8-47.9 23.5 64.2v1.3q-.4 1.5-1.5.8L399.4 406l37.2 51.3q.4.5.5 1.2 0 1.7-1.2 1.6l-50.3-4z"/><path fill="#fcd116" d="M567.8 510.2c-.2 51.5-30.1 88-67.8 82.4-37.6-6.1-67.6-51.5-67.8-102.8.2-51.5 30.1-88 67.8-82.4 37.6 6.1 67.6 51.5 67.8 102.8"/><path fill="#bd9c08" d="M569.3 510.4q0 39.3-20.3 64c-13.7 16.5-29.7 23-49 20.3-19.3-3.2-35.3-14.7-49-35.3a125 125 0 0 1-20.3-69.8q0-39.3 20.3-64c13.7-16.5 29.7-23 49-20.3 19.3 3.2 35.3 14.7 49 35.2a125 125 0 0 1 20.3 70m-3-.5c0-25.1-6.5-47.1-19.4-67q-19.5-29.2-46.9-33.6c-18.5-2.7-33.8 3.5-47 19.3-12.9 16-19.3 36.1-19.4 61.3.1 25.1 6.5 47.1 19.5 67q19.5 29.3 46.9 33.6c18.5 2.7 33.7-3.5 47-19.4 12.9-15.9 19.3-36 19.3-61.2"/><path fill="#fcd116" d="m522.3 279.1 36.4 5.8c-.1-2.3-3-6.3-6-7.7-9.3-3.2-16-.5-27.3-1.9z"/><path fill="#bd9c08" d="m520 280.1 5-6.2h.4q4.7.7 12.2.4 9.8-.3 15.2 1.6 2.4.9 4.7 3.8 2.3 3.3 2.2 5.6l-.2 1.1-37.2-6zm4.6-2 32.8 5.3-1.2-1.8a9 9 0 0 0-3.7-3.1A42 42 0 0 0 538 277q-7.5.2-12-.3z"/><path fill="#fcd116" d="M449.9 256.4a62 62 0 0 0 40.9 31.3c21.3 3.2 45-16.1 73.5-19.5L471 251.4c-12.3-13-21-13-27.5-7l-17.8-1.8c-2.2 2.2 1.8 9.5 5.8 10.9z"/><path fill="#bd9c08" d="m449.4 257.6-18-2.8q-3.2-.7-6-5.8-1-2.2-1.4-4-.3-2.7 1.2-3.6l.2-.1L443 243c8-7.2 16.9-5 28.2 7l93 16.8.2 2.7q-13 1.5-36.4 11-25.6 10.3-37.3 8.4-12-2-23.6-10.8a67 67 0 0 1-17.8-20.6m1.2-2Q457 267.3 468 276q11.3 8.4 22.8 10.4 11.3 1.9 36.6-8.4 17.4-7 29-9.7l-85.7-15.5-.3-.3c-10.7-11.4-19-13.6-26.3-6.8l-.2.2L426 244v.7q0 1.2 1 2.9 2.2 3.9 4.5 4.5l18.8 3z"/><path fill="#fcd116" d="M492 254.3c-3.6-22-15.7-32.8-31-38-17.3-5.7-57.4-14.8-84-28.2 11.8 16.7 35.5 27.5 52.4 33.5 17.8 6.2 34.8 14.2 48.7 30.4z"/><path fill="#bd9c08" d="m493.3 255.9-15.6-2.7-.2-.3q-15.8-18.5-48.2-30c-26-9.2-43.4-20.2-53-33.9l1-2.1a429 429 0 0 0 67 23.1l17 5c18.1 6.3 28.4 19 31.7 39.2zm-2.5-3.1a43 43 0 0 0-29.9-35.2l-16.7-5q-42.8-12-63.3-21.2 14.5 17 48.7 28.8 32.7 11.7 48.8 30.5z"/><path fill="#fcd116" d="M480.8 266.8c5.8 10.6 13.9 11.3 23.4 4.3 9.3-7.4 19.3-28.8 24.2-29a175 175 0 0 0 94.6-24.4c-24.9 2-49.4 4-74.5.4-42.8-5.8-47.7 19.2-65.2 35.5z"/><path fill="#bd9c08" d="M481.5 266.1c5.5 9.9 12.3 11 22.2 3.8a82 82 0 0 0 13.1-16.5c5.9-8.7 9.5-12.6 11.5-12.7q23.6 1.7 52.5-6.3a164 164 0 0 0 36.8-15l-3 .3a326 326 0 0 1-66.1-.2c-14.4-2-25.6-.6-34.6 4.3q-8 4.5-18.7 18.1-7 9-11.3 12.8-.4.4-.7.3-.4-.1-.7-.7-.6-1.1.2-1.9a119 119 0 0 0 11-12.6 75 75 0 0 1 19.3-18.5q13.6-7.5 35.5-4.5c14.7 2 36.7 2.4 65.9.2l8.4-.6.6 2.5q-16.5 10.8-42 18.2a156 156 0 0 1-53 6.3c-1.4.2-4.6 3.8-10 12a83 83 0 0 1-13.6 17c-10.9 8-18.6 6.4-24.8-4.9q-.6-1.1.2-1.8.3-.4.7-.3t.6.7"/><path fill="#bd9c08" d="M486.9 255.2q5.3-3.8 14.8-13.4a211 211 0 0 1 10.1-9.6 41 41 0 0 1 23.1-9.5q8.4-.7 25.4 1.5c10 1.2 28.6-.4 56-6l1.3-.2q1-.1 1.2 1.1l-.1 1q-.1.5-.7.6l-1.3.2c-27.5 5.6-46.2 7.2-56.3 6q-17-2.2-25.1-1.5-13 1.3-22.3 9.1-3.4 3-10 9.5-9.7 9.7-15 13.6-.6.3-.8.1-.4-.1-.6-.8-.6-1.2.3-1.7m-10-4a34 34 0 0 0-10.4-20.6 65 65 0 0 0-21-11.2l-14.3-4.8a319 319 0 0 1-40-15.2q-3-1.5-8.7-5.6l-4.3-3 .8-2.3 4.3 3q5.5 3.9 8.4 5.4 13.1 6.5 39.8 15l14.3 4.9a67 67 0 0 1 21.6 11.6 37 37 0 0 1 11.5 22.7zm6.8 27.6c12.6 3 26.7.4 43.3-8.2q.4-.2.7 0t.6.8q.4 1.3-.5 1.8c-16.9 8.8-31.3 11.4-44.2 8.3q-1-.3-1-1.6 0-.6.3-1 .3-.2.8 0m-58.1-33.7 21.2 3q1 .2 1 1.6 0 1.3-1 1.2l-21.2-3.1q-1 0-1-1.5 0-1.4 1-1.2m30.7 2.7q-.2 3.3-2.6 3.2-2.5-.7-2.7-4 .2-3.2 2.7-3.2 2.3.7 2.6 4"/><path fill="#003f87" d="M8 564.9c170.8-85.3 341-54.5 513.3-28 155.2 23.8 312.1 44.6 470.7-34.5v302.4c-170.8 85.2-341 54.4-513.3 28-155.2-24-312.1-44.6-470.7 34.5z"/><path fill="#fff" d="M8 771.2c33-16.1 65.5.1 98.4-8.3 32.8-9 65.6-42.4 98.4-45.4 32.8-2.4 65.6 25.8 98.4 27.7 32.8 1.4 65.6-23.5 98.4-19.6 32.8 4.5 65.6 37.8 98.4 43.2 32.8 4.8 65.6-18.4 98.4-14.4 32.8 4.5 65.6 36 98.4 38 32.8 1.3 65.6-27 98.4-30 32.8-2.3 65.5 20.7 98.4 12.3 32.7-9 65.6-49.3 98.4-66v-48c-32.8 16.6-65.7 57-98.4 66-32.9 8.4-65.6-14.6-98.4-12.2-32.8 2.9-65.6 31.2-98.4 29.9-32.8-2-65.6-33.5-98.4-38-32.8-4-65.6 19.2-98.4 14.4-32.8-5.3-65.6-38.7-98.4-43.2-32.8-4-65.6 21-98.4 19.6-32.8-1.9-65.6-30-98.4-27.7-32.8 3-65.6 36.5-98.4 45.4-32.9 8.4-65.5-7.8-98.4 8.3z"/><path fill="#fff" d="M8 675.2c33-16.1 65.5.1 98.4-8.3 32.8-9 65.6-42.4 98.4-45.4 32.8-2.4 65.6 25.8 98.4 27.7 32.8 1.4 65.6-23.5 98.4-19.6 32.8 4.5 65.6 37.8 98.4 43.2 32.8 4.8 65.6-18.4 98.4-14.4 32.8 4.5 65.6 36 98.4 38 32.8 1.3 65.6-27 98.4-30 32.8-2.3 65.5 20.7 98.4 12.3 32.7-9 65.6-49.3 98.4-66v-48c-32.8 16.6-65.7 57-98.4 66-32.9 8.4-65.6-14.6-98.4-12.2-32.8 2.9-65.6 31.2-98.4 29.9-32.8-2-65.6-33.5-98.4-38-32.8-4-65.6 19.2-98.4 14.4-32.8-5.3-65.6-38.7-98.4-43.2-32.8-4-65.6 21-98.4 19.6-32.8-1.9-65.6-30-98.4-27.7-32.8 3-65.6 36.5-98.4 45.4-32.9 8.4-65.5-7.8-98.4 8.3z"/><path fill="#fff" d="M8 579.2c33-16.1 65.5.1 98.4-8.3 32.8-9 65.6-42.4 98.4-45.4 32.8-2.4 65.6 25.8 98.4 27.7 32.8 1.4 65.6-23.5 98.4-19.6 32.8 4.5 65.6 37.8 98.4 43.2 32.8 4.8 65.6-18.4 98.4-14.4 32.8 4.5 65.6 36 98.4 38 32.8 1.3 65.6-27 98.4-30 32.8-2.3 65.5 20.7 98.4 12.3 32.7-9 65.6-49.3 98.4-66v-48c-32.8 16.7-65.7 57-98.4 66-32.9 8.4-65.6-14.6-98.4-12.2-32.8 2.9-65.6 31.2-98.4 29.9-32.8-2-65.6-33.5-98.4-38-32.8-4-65.6 19.2-98.4 14.4-32.8-5.3-65.6-38.7-98.4-43.2-32.8-4-65.6 21-98.4 19.6-32.8-1.9-65.6-30-98.4-27.7-32.8 3-65.6 36.4-98.4 45.4-32.9 8.4-65.5-7.8-98.4 8.3z"/><path fill="#1a1a1a" d="M8 195.3c170.8-85.3 341-54.5 513.3-28C676.5 191 833.4 211.8 992 132.7v672c-170.8 85.3-341 54.5-513.3 28C323.5 809 166.6 788.1 8 867.2zm31.3 19.3v604.5c306.5-128.2 611.1 96 921.5-33.7V180.9C654.2 309 349.5 84.9 39.3 214.6" opacity=".2"/></svg>