<svg xmlns="http://www.w3.org/2000/svg" viewBox="0 0 1000 1000"><path fill="#00247d" d="M8 195c171-85 341-54 513-28 155 24 312 45 471-34v672c-171 85-341 54-513 28-155-24-312-45-471 34z"/><path fill="#fff" d="M8 195q27-14 55-23 94 31 191 98 94-64 191-114l55 8 11 32c-67 35-133 70-202 113q100 75 202 163l-22 56c-78-65-155-129-235-183-78 54-155 119-235 211L8 531v-37q94-111 191-184-94-57-191-77z"/><path fill="#cf142b" d="m254 307 37 1q106 78 216 173l-7 19c-81-68-162-136-246-193v25C175 387 96 453 15 548l-7-17c81-96 162-166 246-224l-37 2c-69-43-138-76-209-89v-25c81 15 162 56 246 112v-25q103-69 209-124l37 6c-81 43-162 86-246 143"/><path fill="#fff" d="M295 140v112c95 4 189 23 287 36v112c-95-13-189-32-287-36v168q-40-2-82 1V365c-68 5-135 19-205 54V307c68-34 135-49 205-54V141q40-3 82-1"/><path fill="#cf142b" d="M279 140v134c100 2 200 22 303 37v67c-100-14-200-35-303-37v191h-50V342c-73 3-146 17-221 55v-67c73-37 146-52 221-56V140z"/><path fill="#00247d" d="M8 531c163-81 324-57 492-31V164c162 25 325 52 492-31v672c-171 85-341 54-513 28-155-24-312-45-471 34z"/><path fill="#fff" d="M820 445v105c-1 90-32 126-74 151-42-25-74-59-74-149V447q73 6 148-2m4-1v105q-1 65-22 104-10 17-25 31-11 10-29 22h-3q-18-10-30-22-15-14-25-30-22-38-22-103V447q0-6 4-5 73 6 148-2 3-1 4 4m-8 7q-68 7-140 2v99q0 60 20 96 9 15 23 27 11 10 27 20 16-10 27-20 14-13 23-28 20-36 20-97z"/><path fill="#fcea83" d="M627 685c2 9 19 22 39 9q18-12 30-48 4-11-2-19l-15-15-4-5 2 4c8 13 0 31-9 42-6 8-17 26-34 6-4-5-11 12-7 26"/><path fill="#fff" d="M623 687q-3-12 1-25l4-8q5-3 9 1 7 10 15 7 5-2 12-11l2-2 9-18q3-11-1-17v-1l-2-3q-3-4 0-7 3-5 6 0l1 2 3 4 8 8 6 5q5 6 6 14l-3 12q-6 20-13 32t-19 19q-14 10-28 4-6-2-10-7zm7-3 3 4 7 5q11 4 24-3 9-7 16-17l12-29v-1q3-8 0-12l-6-6-2-1-1 11q-4 12-12 22l-2 2q-8 10-14 13-12 4-22-8l-2 4q-3 8-1 15z"/><path fill="#fcea83" d="M866 680c-4 9-20 24-39 12-14-9-22-22-31-47q-4-11 2-20l15-14 4-6-2 4c-8 14 0 31 9 42 6 7 17 25 34 3 4-4 11 11 8 26"/><path fill="#fff" d="M869 681q-2 6-6 11l-10 7q-14 7-28-2-10-7-18-19-7-11-15-31-5-17 4-26l6-6 8-8 5-6q2-3 3-2l2 2q3 4 0 7l-2 4q-4 7-1 17 3 9 9 17l2 3q8 8 12 10 7 2 16-8 3-5 8-2l4 8q4 12 1 24m-7-2a27 27 0 0 0-3-20q-10 15-22 10-6-1-14-12l-2-2q-8-10-12-22l-1-10-2 1-6 6q-3 3 0 12 6 19 13 29 6 10 16 16 12 7 22 2 5-2 8-6z"/><path fill="#fcea83" d="M746 738c32 0 79-23 106-96q4-17-5-20-9-6-16-13c6 8 5 13 1 24q-29 73-86 75-56 0-86-73c-4-10-5-15 1-24q-6 9-16 14-9 5-5 21c26 71 74 92 106 92"/><path fill="#fff" d="M828 613q-3-4 0-8t6 0a41 41 0 0 0 15 12q13 7 6 27-18 51-52 78a93 93 0 0 1-57 22q-29 0-57-20-34-27-52-76-7-19 6-27l1-1 7-5 6-7 1-1 3-1 3 2v7l-1 1-2 7 3 10q15 34 34 52 21 18 48 17 27 0 48-18a146 146 0 0 0 37-64zm-82 120q28 0 53-20 33-25 49-73 3-5 1-9l-4-4-6-4-4 12q-31 77-89 78-58-1-89-75l-4-12-6 5q-4 1-4 4v9q18 46 50 70 25 19 53 19"/><path fill="#db161c" d="M673 645q-3-7-7 3l-6-13q-7-13 2-25c3-4 9-8 13-2 9 11 5 27-2 37"/><path fill="#fff" d="M670 648v2q-2 5-5 3l-2-2-6-13q-4-10-4-16 0-8 6-16 3-5 8-6 6-2 11 4 8 9 6 24-1 11-8 21-2 3-5 0zm3-11 3-12a18 18 0 0 0-3-14h-4q-2 0-5 3l-3 9 3 10 2 5 3-1z"/><path fill="#db161c" d="M818 643q4-7 8 2l6-12q7-15-2-25c-3-4-8-8-14-2-8 11-4 27 2 37"/><path fill="#fff" d="m822 646-1 1q-3 4-6 0-6-10-7-21-2-14 6-24 5-6 11-4 5 1 8 6 6 7 6 15 0 6-4 16l-6 13-1 2q-4 3-5-2zm-3-11h4l3 1 2-6q4-6 3-10 0-3-4-8l-4-4q-3-1-4 2-4 5-3 14 0 5 3 11"/><path fill="#db161c" d="M627 685c-4-8-7-29-8-35q-3-8 3-11c4-1 8 6 10 13l8 29c-9-8-15-4-13 4"/><path fill="#fff" d="M623 688q-4-10-8-37-3-14 5-17 6-2 10 5l5 11 3 9 6 20q1 6-2 7l-4-1q-4-4-7-3l-1 2q1 5-2 7-2 0-5-3m4-15 6-2-2-9-3-8-3-8-2-2-1 1 1 4z"/><path fill="#db161c" d="M866 680c3-9 6-30 7-36q3-8-2-11-7 2-11 14l-8 30c9-9 15-5 14 3"/><path fill="#fff" d="M869 682q-1 5-4 3-4 0-3-6l-1-2q-3 0-7 4l-4 1q-3-1-2-7l6-20 3-9 5-12q4-7 10-6 5 1 6 7l-1 9v1l-1 6zm-4-15 3-17 2-6v-5h-1l-2 2-3 8-3 9-2 9zM716 449c-5 1-9 2-14-5q-4-8 1-14 6-5 11-3c5 2 16 15 13 17q-5 1-11 5m1 5-9 1q-4-1-8-7-4-4-3-12 0-7 4-11 8-6 14-3 5 1 11 10l4 6 2 4-1 4-3 3h-1l-4 2zm-2-11 5-2 1-1v-1l-8-7q-3-1-8 3l-1 2 1 4q3 3 5 3zm13-20 9-3q7-1 9 4 2 10 6 16c-2 2-11 4-15 1-5-4-7-15-9-18m-2-4q3-3 10-4h8q5 1 6 8l1 3 3 10 2 3-1 5-1 1-9 3-10-2q-4-3-8-14l-1-4-2-3 1-5zm8 7 1 2 3 8h1l6 1-2-8-1-3-5-1zm28-3 8-1q8-1 9 6 0 9 2 17c-3 1-10 1-13-2-4-5-4-17-6-20m-3-4q4-3 12-2l7 1 4 8 1 8 1 7 1 5-3 4-8 1-8-4q-4-4-6-15l-1-5-1-3zm8 8 1 2 2 9 1 1 4 1h1l-1-5v-6l-1-1-4-1z"/><path fill="#073163" d="M785 426q-4-2-7 0c2 3 1 16 4 20 3 3 10 3 12-3s2-13-9-17"/><path fill="#fff" d="M786 420q8 4 11 11 2 6-1 14-2 6-8 8-5 1-9-2-4-4-5-17v-5q-3-4 1-7 3-3 10-2m-3 11v2l2 9h3l2-1v-5q0-3-6-5z"/><path fill="#073163" d="M745 422q1-2 8-3t10 6q1 9 4 16c-2 2-11 2-15-1-4-4-5-15-7-18"/><path fill="#fff" d="M742 418q3-4 11-4 10 0 14 8l1 8 2 7v7q-3 4-10 4t-10-3-7-15l-1-4q-3-4 0-8m8 7 1 2 3 9 6 1h1l-2-10q0-2-6-2z"/><path fill="#073163" d="M712 426q-1-4 9-3 9-3 10 6 1 7 6 13c-9 2-11 4-16 0q-6-6-8-12z"/><path fill="#fff" d="M708 426q-1-6 5-8l8-1 9 1 5 9v2l4 8q3 3 2 7l-3 3-3 1-8 2q-4 0-8-4-3-1-6-7zm8 2 3 4 4 5 4 2 3-1-2-5v-2l-2-3z"/><path fill="#059334" d="M712 378q-4 0-6-4-7-8-14-4l-4 2q-4 0-3 8 2-2 3 0v1q1 6 9 8 6 2 7 4l1 4q2 2-1 4-4 6 0 17c6 5 18 14 33-2 15-14 36-7 38-2l3 11q1 4 5 4 5 0 7 3 5 2 4-4c-1-15-8-17-9-24q6 0 9-2 1-4 4-7v-2l-7 2c-18-2-69-20-79-17"/><path fill="#fff" d="M712 373q5-1 20 2l29 8 30 6 4-1h2l2-1q3 1 4 5 0 4-3 7l-2 4-1 2h-1l-4 4q6 8 6 17 1 7-3 11-3 2-7-1l-5-2q-3 1-5-1l-4-6-3-10-2-2-9-2q-12-1-21 8-10 11-22 9a26 26 0 0 1-15-8q-5-7-4-15l3-9v-2l-4-1q-5 0-8-4l-4-6q-3 1-4-5t1-10l6-4h2q4-4 10-3 5 2 9 8zm0 11q-6-1-9-7l-5-3h-3l-1 1-3 2 1 1v3l1 1 3 2h1q6 0 9 5 3 3 2 5l2 5-3 6-1 4q-1 3 1 5 4 4 11 6 8 1 17-8 10-10 26-10l11 3q4 3 6 7l4 12h1q4-1 7 1l-4-10-5-10q0-5 3-6l-25-6a258 258 0 0 0-47-9"/><path d="m792 395-7 11q-7 13-30 16-21 0-29-11l-9-7q-6-6-4-14-1 5-4 5-4 0-4 2l-1-3-1-2 6-1q3 0 3-6l-1-7c3-1 45 9 53 9 9 1 31 4 28 8"/><path fill="#fff" d="m794 399-6 10q-4 8-13 12-9 6-20 6-22 0-32-12l-8-7-5-8h-2l-1 2h-3l-3-3v-3h-1v-7l4-2h1l3-2-1-6q0-4 2-6 4-2 39 6l35 6 9 2 3 3 2 4-2 5zm-78-12 1 5q-1 4 2 7l9 8q8 9 27 9 9-1 17-4 7-4 10-9l4-7-4-1-18-2h-1l-16-3-31-7z"/><path fill="#059334" d="M718 376q6-7 13-6h1q6-3 11-1h2q9-2 17 4l1 1q15 0 24 14l4 4q4 1 1 4l-8 10q-7 12-29 14-20 1-29-9l-8-8q-4-2-4-10l-3-15q3-2 6-1z"/><path fill="#fff" d="M716 371q7-9 15-6l6-3 7 2 11-1q6 1 9 6 8-1 14 3l12 12 1 1 1 2q4 1 5 4 2 5-3 9l-7 10q-5 6-12 11-10 5-20 5-21 0-31-11l-7-7h-1l-4-5q-3-5-2-11l-2-10-1-2q0-5 2-6l4-2zm5 9-2 2h-3l2 13v1l1 2 1 1h1l8 8q8 8 26 8 9 0 17-4l9-8 6-8-2-2v-1l-10-10q-5-3-12-3h-2l-1-1-1-1-6-3h-11l-4-1-3 1-3 2-1-1h-1q-4-1-9 5"/><path fill="#00493d" d="M787 388q-9-15-24-14v3c6 4 15 12 19 19z"/><path fill="#fff" d="M790 384q3 3 1 7l-5 7-2 2q-1 3-3 2l-2-2a54 54 0 0 0-18-18q-4-3-2-7v-1q0-5 4-5 8-1 15 3z"/><path fill="#00493d" d="M762 373q-8-6-17-4l-1 8q4 2 8 9l7-3z"/><path fill="#fff" d="m765 369 1 5-3 11-3 3-5 2-2 1q-3 1-4-2l-6-7-1-1q-3-1-1-7v-5q0-4 3-5 4-2 11-1 6 2 10 6m-8 6-4-1h-4l4 6 3-2z"/><path fill="#00493d" d="M743 369q-6-2-11 1l-1 9 5 2 7-4z"/><path fill="#fff" d="m745 364 2 4v9l-1 1-1 2q-2 4-8 7-3 1-4-2l-2-1q-4 0-4-5l2-11 1-2 7-4zm-6 9h-1l-2 1-1 1h2z"/><path fill="#00493d" d="M718 376q6-7 13-6l-1 8q-8 0-12 3z"/><path fill="#fff" d="M715 372q8-10 17-7l3 2-1 6v5q0 5-4 6h-6l-4 2-3 1q-2-1-2-3l-1-3v-5z"/><path fill="#00493d" d="M780 397c-3-6-12-14-18-18l-1 5 9 21z"/><path fill="#fff" d="M784 394q2 4-1 8l-11 8q-4 1-6-3l-8-20-1-5 1-2v-1l1-2 2-3 3 1a65 65 0 0 1 20 19m-10 2-4-4-1-1 3 7z"/><path fill="#00493d" d="m750 410 2-22 7-3 9 21q-9 4-18 4"/><path fill="#fff" d="m747 410 1-22q0-4 3-5l5-2 2-1q3-1 4 3l10 25-3 3q-13 6-19 5-3-1-4-6zm8-5 7-2-5-11h-2z"/><path fill="#00493d" d="m737 385 6-6 6 8-1 23q-6 0-11-3z"/><path fill="#fff" d="m735 380 6-5q2-3 5 0l6 8 1 4-1 23v1q-1 5-4 5-9 0-13-4-2-2-2-5v-21q-1-5 2-6m6 8v16l3 1 1-16-2-3z"/><path fill="#00493d" d="m717 391 1-7c3-2 10-5 17 0l-1 22q-9-10-17-15"/><path fill="#fff" d="m717 396-2-2-1-5 1-1v-4q-1-3 2-4 3-3 9-4t12 3l2 4-1 23-1 4-3 1-2-1zm5-8 9 7v-8h-5z"/><path d="m697 380-2-3h-2v3z"/><path fill="#fff" d="m697 384 3-3q2-5 5-5l1 11 1-1-1 2q-4 7-9 7zm5 1h-2l2-3q4-6 8-5l-1 10h1l-2 2-3 5q-3 3-6 1zm-9-15q4-3 8 2v11q-3 0-5-3h-2zm9 17-4 6h-7l4-10h-1l2-2zm-8-12-1 2v1l-7-6 1-1 3-5zm-2 3v3h-8v-3z"/><path d="M730 372q-13-15-27-19c6 5 23 23 27 29z"/><path fill="#fff" d="m729 374 4 4-6 8-26-29-2-5q1-5 5-5 12 3 29 20z"/><path d="M735 364c-10-10-21-20-32-21 8 6 20 20 27 31z"/><path fill="#fff" d="m733 368-4-4 4 7-6 7a130 130 0 0 0-26-31l-2-5 1-4 3-1q8 2 18 9l16 13z"/><path d="M748 349c5-17 11-26 19-37-4 12-8 35-10 44z"/><path fill="#fff" d="M744 346q7-20 20-38 3-3 6 0v6l-8 36-2 7-7-2 1-7 2-10-5 13z"/><path d="M756 346q5-18 20-29c-5 7-13 28-15 39z"/><path fill="#fff" d="M753 344q7-22 22-32l3-1 2 3q1 4-1 6l-8 17-6 21-7-3 1-7z"/><path d="M760 356c5-9 14-26 31-37-10 15-24 40-28 50z"/><path fill="#fff" d="M757 353q14-27 32-38 4-3 6 2l-1 6a366 366 0 0 0-27 48l-8-5 4-7z"/><path d="M765 368c8-6 21-15 32-13-7 4-25 17-34 28z"/><path fill="#fff" d="M763 363q8-6 16-9 10-6 19-4l2 1 1 5-3 4a167 167 0 0 0-32 26l-5-7 6-7z"/><path d="M764 364c7-10 19-24 32-31l-33 46z"/><path fill="#fff" d="M761 361q17-24 33-33 4-3 5 2 2 4-1 6l-18 27-14 19-6-7 6-8z"/><path d="M745 359c-5-20-12-38-22-45q9 17 17 55z"/><path fill="#fff" d="m742 360 2 8-8 2q-4-27-17-53v-5q1-4 5-3 15 9 25 48z"/><path d="M736 358q-12-21-31-29c9 7 22 26 27 44z"/><path fill="#fff" d="m733 362-1-1 4 10-7 4a94 94 0 0 0-26-41l-2-6q1-5 5-4 16 4 33 31z"/><path d="M740 358c-10-24-17-29-21-34 3 10 12 34 17 44z"/><path fill="#fff" d="m737 360 2 5-6 6-15-36-3-8q-2-4 1-6 2-4 5-1l2 3q6 4 9 10l12 22zm-14-9a60 60 0 0 1 15 21l-7 6-5-9-7-8z"/><path d="m721 367 10 11z"/><path fill="#fff" d="m723 363 3 3 8 8-5 8-11-11z"/><path d="m767 375 17-14z"/><path fill="#fff" d="m765 371 18-15 3 10-8 6-8 7z"/><path d="m765 371 14-20z"/><path fill="#fff" d="m761 368 16-21 5 8q-10 12-14 20z"/><path d="m776 338-15 25z"/><path fill="#fff" d="m778 341-14 25-7-5 16-27z"/><path d="m765 333-9 24z"/><path fill="#fff" d="m768 336-9 23-7-4 10-25z"/><path d="m734 335 9 29z"/><path fill="#fff" d="m738 333 4 15 4 14-7 4-4-14-4-15z"/><path d="m731 344 6 16z"/><path fill="#fff" d="m734 341 6 17-7 3-6-14z"/><path d="M744 341q0-9 5-10c3 0 4 6 5 10q-2 8-5 8-5 0-5-8"/><path fill="#fff" d="m740 341 2-10q3-6 7-5 4 0 7 6l1 9q1 4-2 9-3 4-6 5-5-1-6-4-3-4-3-10m8 0 1 2v1-1l1-2-1-4z"/><path d="M739 345q1-8 6-9 3 3 3 11-2 7-5 7-4 0-4-9"/><path fill="#fff" d="M735 345q0-6 3-10t7-4q5 1 6 8l1 9-4 8q-2 5-6 3-3 0-5-5-2-4-2-9m8 1v2zv-3z"/><path d="M750 347q-1-8 3-11 3 2 5 9 0 8-3 9-4 0-5-7"/><path fill="#fff" d="M746 348v-10q2-6 6-7t7 5l3 8-1 10q-2 5-6 5-3 1-6-2-3-4-3-9m7-2v2zl-1-3z"/><path d="M744 351q1-8 4-10 5 3 5 10 0 8-5 8-3 0-4-8"/><path fill="#fff" d="m740 351 2-10q3-5 6-5 4 0 7 6l2 9-2 9q-3 5-7 5-3 0-6-4zm8 0v3h1v-3l-1-4z"/><path d="M737 354q0-9 5-10c2 0 4 6 4 10q0 8-4 8-5 0-5-8"/><path fill="#fff" d="m733 354 2-10q3-5 7-6 4 1 6 7 3 5 2 9 1 5-2 9t-6 4q-4 0-7-3zm8 0v2l1 1v-1l1-2-1-4z"/><path d="M751 352q0-9 5-10 4 1 5 10-2 6-5 8-5 0-5-8"/><path fill="#fff" d="m747 352 2-10q3-6 7-6t7 6l2 9-3 10q-3 4-6 4-4 0-6-4-3-4-3-9m8 0 1 2 1-2-1-4z"/><path d="M750 356q0-10 5-10 4 1 4 10 0 7-4 8-5 0-5-8"/><path fill="#fff" d="m746 356 2-10q3-5 7-6 4 1 6 6 3 6 2 10 0 5-2 9-3 4-6 4-4 0-7-3zm8 0v2l1 1v-1l1-2-1-4z"/><path d="M743 361q2-9 5-10c3 0 5 6 5 10q0 7-5 8-3 0-5-8"/><path fill="#fff" d="M739 361q0-6 3-10 2-5 6-6 4 0 7 7l2 9-3 9q-2 4-6 4t-6-4q-3-3-3-9m8 0 1 2v1-1l1-2-1-4z"/><path d="M734 361q0-9 3-10c2 0 4 6 4 10q0 8-4 8-3 0-3-8"/><path fill="#fff" d="m730 361 1-10q3-5 6-6 4 1 7 7l1 9-2 9q-2 4-6 4-3 0-5-4t-2-9"/><path d="M756 360q0-9 3-10 4 2 4 10-1 7-4 8-3-1-3-8"/><path fill="#fff" d="m752 360 1-9q3-6 6-6 4-1 7 6l1 8q1 6-2 10-2 4-6 4-3 0-5-4t-2-9"/><path d="M758 369q2-9 5-9l1 10q-2 8-5 7-2-1-1-8"/><path fill="#fff" d="m754 368 3-9q3-6 7-5 3 2 4 9a32 32 0 0 1-3 16q-3 4-7 4-3-1-4-7z"/><path d="M750 367q2-8 5-9 5 3 3 10 0 8-4 8-3-1-4-9"/><path fill="#fff" d="m747 367 2-9q3-5 7-5 3 0 5 7l1 9-2 8q-3 5-6 4-4 1-6-5-2-4-1-9m7 1"/><path d="M739 369q-2-9-5-9-2 3-1 11 2 7 5 7 2-2 1-9"/><path fill="#fff" d="M743 368v8q-1 6-4 7t-7-3l-3-7v-9q1-8 4-9 4 0 7 4z"/><path d="M737 368q0-8 4-10 3 3 4 10-1 8-4 8t-4-8"/><path fill="#fff" d="m733 368 1-9q3-6 7-6 3 0 6 6l1 9q1 5-2 9-2 4-5 4-4 0-6-4-3-4-2-9"/><path d="M743 370q0-9 4-10 5 1 5 10 0 8-5 8-4 0-4-8"/><path fill="#fff" d="M739 370q-1-6 2-10 3-6 6-5 4-1 7 6l2 9-2 9q-3 4-7 5-3-1-6-5-2-3-2-9m7 0 1 2v1-1l1-2-1-4z"/><path d="M745 311q-3 6-2 14-5-3-9 2 5-1 8 5-5-1-6 4l7-2-4 7 7-4q-1 6 3 11l1-12q3 4 9 5c-2-1-3-6-5-6l6-1q-2-4-5-4l6-7q-5 0-8 4c4-5 3-12 7-13q-3-1-8 5l2-9q-5 4-8 10z"/><path fill="#fff" d="m741 310 1-3q4-3 6 1v1l5-4q4-1 5 3h3q3 1 3 4l-1 6 2 2v5l-2 3-1 1 2 3-1 7v2q0 6-4 6l-6-2v2l-1 5q-4 3-6-1l-1-1-2-6-1 1-4 1q-3-1-3-5-4-3-2-7v-1l-2-2-2-3 2-4q2-5 8-5l1-6zm8 14-2 1q1 3-2 4l1 1v1h1l1 1 2-1-1-3z"/><path d="M746 320v6z"/><path fill="#fff" d="M750 320v8l-7-5-1 1 1-1v-3z"/><path d="m752 319-3 8z"/><path fill="#fff" d="m754 323-1 4h-8q0-7 4-12zm2 7-1 2-8-3q1-5 5-8z"/><path fill="#fcea83" d="M627 685c2 9 19 22 39 9q18-12 30-48 4-11-2-19l-15-15-4-5 2 4c8 13 0 31-9 42-6 8-17 26-34 6-4-5-11 12-7 26"/><path d="M626 686q-3-11 1-22l3-6h4q10 12 19 8 6-2 13-11l2-3q7-9 10-20 4-12-1-21l-2-4v-1l5 6 8 8 6 6q8 7 2 20-6 19-13 31-7 10-17 18-13 9-27 4l-8-6zm1-1 4 7 9 5q12 5 25-3 10-7 17-18 7-12 13-30 5-13-1-19h-1l-5-5-9-8q4 8 1 19-4 11-11 20l-2 3-13 12q-10 4-20-9-1-1-3 1l-3 5q-3 10-1 20"/><path fill="#fcea83" d="M866 680c-4 9-20 24-39 12-14-9-22-22-31-47q-4-11 2-20l15-14 4-6-2 4c-8 14 0 31 9 42 6 7 17 25 34 3 4-4 11 11 8 26"/><path d="m866 680-5 8q-3 4-9 7-12 6-26-2-9-7-17-18-7-10-14-30-4-14 3-20l6-6 8-9 5-6 1 1-3 4q-5 9-1 22 3 9 10 19l2 2q7 9 13 11 9 3 19-9 1-3 4-1l3 6q4 11 1 21m-1 0q2-10-1-20l-3-5h-3q-10 13-20 10-5-2-13-12l-2-2q-7-9-10-20-3-10 0-19l-8 8-6 6q-6 6-2 18v1q6 18 13 29t17 17q13 8 25 2l9-6z"/><path fill="#fcea83" d="M746 738c32 0 79-23 106-96q4-17-5-20-9-6-16-13c6 8 5 13 1 24q-29 73-86 75-56 0-86-73c-4-10-5-15 1-24q-6 9-16 14-9 5-5 21c26 71 74 92 106 92"/><path d="M691 720q-34-26-52-74-4-14 6-21l8-7 7-7 1 1v1q-4 4-4 10l4 12q30 71 85 72 55-1 85-75 4-7 4-12t-4-11v-1q9 10 16 13 11 6 5 21-17 50-51 76a91 91 0 0 1-55 21q-28 0-55-19m55 18q28-1 55-21 33-26 50-75 5-14-5-19l-11-9 1 6q0 4-4 13-30 74-86 76-56 0-86-73l-4-13 1-6-3 3-9 6q-9 7-4 20 17 47 50 72 27 20 55 20"/><path fill="#db161c" d="M673 645q-3-7-7 3l-6-13q-7-13 2-25c3-4 9-8 13-2 9 11 5 27-2 37"/><path d="m673 645-1-2h-2q-3 1-4 5v2l-1-2-9-26q0-6 5-12 3-4 7-5 4-2 8 2 6 8 5 20-1 9-7 19l-1 1zm1-2q4-8 6-17 1-11-5-18-3-3-7-2l-6 5q-5 6-5 11 0 6 4 13l5 11q1-4 4-5l2 1z"/><path fill="#db161c" d="M818 643q4-7 8 2l6-12q7-15-2-25c-3-4-8-8-14-2-8 11-4 27 2 37"/><path d="m819 645-1-1q-6-9-7-19-1-12 5-20 4-4 8-3l7 5q5 6 5 12 0 5-4 14l-5 13-1 1v-1q-1-5-4-5h-2l-1 2zm-1-3 1-2 3-1q3 1 4 5l5-11v-1q4-8 4-12 0-6-5-12l-6-4q-4-1-7 2-5 7-5 19 2 9 6 17"/><path fill="#db161c" d="M627 685c-4-8-7-29-8-35q-3-8 3-11c4-1 8 6 10 13l8 29c-9-8-15-4-13 4"/><path d="M626 686q-4-9-8-36-1-10 3-12 4 0 7 4 3 3 4 10l3 8 6 21 1 2-2-1q-6-6-10-4-4 1-3 7zm0-5q0-3 3-5 4-1 10 3l-5-18-3-9q-1-6-4-9-3-4-5-3-3 1-3 4v6q3 22 7 31"/><path fill="#db161c" d="M866 680c3-9 6-30 7-36q3-8-2-11-7 2-11 14l-8 30c9-9 15-5 14 3"/><path d="M866 680h-1q2-6-3-7-4-2-10 4l-1 2v-2l6-21 3-9 4-10q4-6 7-4 3 0 4 4l-1 7-1 6q-4 24-7 30m0-4 6-26 1-6v-7l-3-3q-2 0-5 4l-4 9-3 9-5 19q6-4 10-4 3 1 3 5"/><path fill="#00493d" d="m649 639-3 2-1 2-1-5 1 1 7-4v-2h1l2 5h-1l-1-1zl1 4 3-2 1-2 1 5h-1l-7 4v1l-1 1-2-5 1-1 1 1 4-2zm7 8v-2h1l4 8-3 3v-1q3-3 1-4l-1-2-1 1-2 2q0 2 2 1h1l-5 4v-1q3-3 1-4l-3 3v2l4 2-3 2-4-9h2zm6 21-2 3v2h-1l-3-4 1-1 1 1 6-7v-2l3 4h-2zl2 3 2-2v-3l3 5h-2l-5 6v3l-3-5h2l2-3zm6 12 1 1 2-4-3 2zl-1-1-1 1v3l-2-3 2-1 6-4 1-1 1 1-4 11v2l-3-4h2v-2zm3 11h1l5-9q-1-2-3 1v-1l2-2 5 6-2 3v-5l-5 9v2zm11 2-2 4v3l-3-4 1-1 4-7v-3l4 3v1h-2zl2 2 2-3v-3l4 3v1h-2l-4 9v2l-4-4h2l2-4zm8 16h1l4-9-1-2 7 5-2 4v-6h-2v1l-2 3q0 2 3 0l-2 6-1-1v-4l-2 5v2zm11 8v-7q1-6 4-5v7q-2 6-4 5 3 2 5-4 2-5-1-9-5-1-6 4-2 7 2 9m12 2 2-7-1-2 2 1-1 1zq0 4-4 3l-2-6 2-7v-2l3 2-1 1-2 7 1 5zm4-7 3 1 2 10 2-6-1-3 2 1v1l-1 1-2 11-4-13-2 9 1 2v1l-2-1v-1l1-1 2-10zm13 11-3 6h-1v-1l1-11 1-1h1zh1q1-7-3-8l-4-1v1q2 0 1 2l-1 9-1 2 3 1q4 2 5-6zm4-5-2-1v-1l7 1v5q0-4-2-4l-1-1-1 2v4q2 1 2-2v7q0-5-2-4v6l1 1 3-4v4l-8-1 2-1zm12 7q0 7-2 6h-1v-12l1-1h1zh2q-1-8-4-7l-4-1v1l1 2v10l-1 1v1h4q3 1 4-7zm12 4 1 1v1h-4l1-2-1-10-1-1v-1h4l-1 2zm4 1 1-1-2-11q-2 0-2 3v-3l7-2v4q0-4-3-3l2 11 1 2zm17-11-2-7-1-1 2-2v3zq1 5-2 7t-4-4l-1-6-2-1v-1l4-2v3l1 7q0 3 3 3zm4-4q3-2 1-5 0-3-2-2v1zl1 4 2 1-4 3v-1l1-2-3-9q-1-2-2-1v-1l4-2q3-1 4 2 0 4-2 5zm10 0q-2 1-4-5v-7q2 0 4 5zq3-2 2-8-2-6-6-4-3 3-2 9 2 5 6 3m0-15 3-2 7 5-2-6-2-1 2-2v3l4 10-1 1-8-6 3 8h2v1l-2 1v-2l-4-9zm18 0v-2l-5-9v4l-1 1-1-4 6-6 1 3h-3l5 9h1v1zm4-13 3 3h1v1l-3 4v-3l-5-7-1-1 3-4v3l2 3 2-2-2-4h-1l3-4v2l5 8h1l-3 4v-2l-2-4zm4-12h-2l5-7 3 3h-1q-1-2-3 0l-1 1v2l3 2v-4l3 5q-2-2-3 0l2 3 1 1 1-2v-5h1l1 3-5 8v-3zm9-16 1 2h3q2-2 3 0 3 3 1 6l-1 1-1 1v1l-3-3h1q2 1 4-1l-1-3q-1-1-2 1h-4q-3-3-1-5l1-2v-1l3 2q-3-1-4 1m4-5-2 1 4-9 3 2-1 1h-3v3l3 2-1-3v-1l4 4q-2-1-3 1l3 2h1l1-1q1-3-1-5v-1l2 3-4 9v-3zm10-11-1 3-2-4zh3v2h1l1-5-1 1-10-1 7 9v2h1l1-3h-2l-1-1 1-4zm-2-11 1 2 3-2 3-2q3 3 2 5l-1 3v1l-3-2q3 1 4-2l-1-3-3 2q-1 3-4 2-2-2-1-4l1-3-1-1 4 1h-1q-3 0-3 3"/><path fill="#fff" d="M716 449c-5 1-9 2-14-5q-4-8 1-14 6-5 11-3c5 2 16 15 13 17q-5 1-11 5"/><path d="M716 450h-7q-4 0-7-5-3-3-2-9 0-4 3-7 6-4 11-3 4 2 10 9l3 6 1 2v1h-1l-5 3zm0-2 5-3 6-2-1-2-3-5-9-9q-4-2-10 4-3 1-3 6l2 7q3 4 6 5z"/><path fill="#fff" d="m728 423 9-3q7-1 9 4 2 10 6 16c-2 2-11 4-15 1-5-4-7-15-9-18"/><path d="M728 423q2-3 9-4h6l4 5v3l5 13h1l-1 1q-1 2-7 2l-9-1q-3-2-5-12zl-1-1zm1 0 3 7q3 9 5 10l8 2 6-2q-3-3-5-12v-3l-3-4h-6z"/><path fill="#fff" d="m762 423 8-1q8-1 9 6 0 9 2 17c-3 1-10 1-13-2-4-5-4-17-6-20"/><path d="m761 423 10-2 5 1q3 2 3 5l1 7 2 10v1h-1l-6 1q-6 0-7-3l-5-12q0-6-2-7zm2 1 1 6 4 12h1q1 2 6 3l5-1-1-9-1-7-2-4-6-1z"/><path fill="#073163" d="M785 426q-4-2-7 0c2 3 1 16 4 20 3 3 10 3 12-3s2-13-9-17"/><path d="M785 425q6 3 9 8 1 4-1 10-1 5-6 5-3 1-6-1-3-3-3-13l-2-7v-1l1-1zm0 1h-6l1 7q0 10 3 13l5 1q4-1 5-5l1-8q-2-5-9-8"/><path fill="#073163" d="M745 422q1-2 8-3t10 6q1 9 4 16c-2 2-11 2-15-1-4-4-5-15-7-18"/><path d="M744 421q2-2 9-2 9 0 11 5l1 7q0 7 2 9l1 1h-1q-1 3-7 3-6-1-8-3-3-2-5-12l-2-7zm2 1 2 6q2 10 4 12l8 2 6-1-2-10-2-6q-1-5-9-5-6 0-7 2"/><path fill="#073163" d="M712 426q-1-4 9-3 9-3 10 6 1 7 6 13c-9 2-11 4-16 0q-6-6-8-12z"/><path d="M711 426q0-3 3-3l7-1h7l4 7v1l5 11 2 1h-2l-3 1-7 2-6-2-6-7-3-6v-1zm1 0 1 2v2l3 5 5 6 6 2 7-1 2-1-5-10v-2l-3-5-7-1q-8 1-9 3"/><path fill="#f9d050" d="M730 372q-13-15-27-19c6 5 23 23 27 29z"/><path d="M730 372a65 65 0 0 0-26-19l26 29-27-29v-1q12 3 28 19z"/><path fill="#f9d050" d="M735 364c-10-10-21-20-32-21 8 6 20 20 27 31z"/><path d="m735 364-16-13q-7-6-15-8l13 13 13 18v1a135 135 0 0 0-27-32v-1q7 1 17 8z"/><path fill="#f9d050" d="M748 349c5-17 11-26 19-37-4 12-8 35-10 44z"/><path d="M747 348q7-18 20-36l-9 37-1 7h-1l2-7 8-35q-12 16-18 35z"/><path fill="#f9d050" d="M756 346q5-18 20-29c-5 7-13 28-15 39z"/><path d="M756 346q7-20 20-30l1 1q-4 5-9 18l-6 21h-1a131 131 0 0 1 14-38q-12 9-18 28z"/><path fill="#f9d050" d="M760 356c5-9 14-26 31-37-10 15-24 40-28 50z"/><path d="M760 356q13-25 31-37v1a368 368 0 0 0-28 49l11-23 16-25q-16 11-30 36z"/><path fill="#f9d050" d="M765 368c8-6 21-15 32-13-7 4-25 17-34 28z"/><path d="m765 368 15-10q10-5 17-3h1-1a173 173 0 0 0-33 28l-1-1 18-16 15-11q-7 0-16 4z"/><path fill="#f9d050" d="M764 364c7-10 19-24 32-31l-33 46z"/><path d="M764 364q15-23 32-32v1l-19 26-13 20h-1l14-20 18-26q-16 9-31 32z"/><path fill="#f9d050" d="M745 359c-5-20-12-38-22-45q9 17 17 55z"/><path d="M745 359q-9-35-22-44 13 26 17 54-4-28-18-55v-1l1 1q13 8 22 45"/><path fill="#f9d050" d="M736 358q-12-21-31-29c9 7 22 26 27 44z"/><path d="M736 359q-15-24-29-29l13 17q9 14 13 26h-1a100 100 0 0 0-27-44q16 4 31 29z"/><path fill="#f9d050" d="M740 358c-10-24-17-29-21-34 3 10 12 34 17 44z"/><path d="M740 358q-5-13-11-21l-8-10-2-1 3 7 14 35q-5-8-14-35l-4-9h1l2 3a75 75 0 0 1 19 31m-19-2a55 55 0 0 1 14 19h-1l-6-10z"/><path fill="#f9d050" d="m721 367 10 11z"/><path d="m721 367 3 4 7 7z"/><path fill="#f9d050" d="m767 375 17-14z"/><path d="m767 375 17-15v1l-8 6z"/><path fill="#f9d050" d="m765 371 14-20z"/><path d="m764 371 15-20z"/><path fill="#f9d050" d="m776 338-15 25z"/><path d="M776 338q-11 15-15 26l-1-1z"/><path fill="#f9d050" d="m765 333-9 24z"/><path d="m766 333-10 24h-1z"/><path fill="#f9d050" d="m734 335 9 29z"/><path d="m735 335 4 15 4 14h-1l-4-14z"/><path fill="#f9d050" d="m731 344 6 16z"/><path d="m731 344 6 16h-1z"/><path fill="#f9d050" d="M744 341q0-9 5-10c3 0 4 6 5 10q-2 8-5 8-5 0-5-8"/><path d="m744 341 1-7 4-3 3 3 2 7-2 6-3 3-4-3zm0 0 2 6 3 2 3-3 1-5-1-6-3-4-3 3z"/><path fill="#f9d050" d="M739 345q1-8 6-9 3 3 3 11-2 7-5 7-4 0-4-9"/><path d="m739 345 2-7q1-3 4-2l2 4 1 7-2 6q-2 2-3 1-2 0-3-2zm0 1 1 5 3 3 3-2 1-5v-6q-1-4-3-4-2-1-3 2z"/><path fill="#f9d050" d="M750 347q-1-8 3-11 3 2 5 9 0 8-3 9-4 0-5-7"/><path d="M750 340q1-4 3-4 1-1 3 3l2 6v6l-3 3q-1 1-4-1l-2-6zm0 7 2 5 3 2 2-3 1-6-2-6q-2-3-3-2l-3 3z"/><path fill="#f9d050" d="M744 351q1-8 4-10 5 3 5 10 0 8-5 8-3 0-4-8"/><path d="m743 351 2-7 3-3q3 0 4 3l1 7-1 6q-1 3-4 3l-3-3zm1 0 1 6 3 2q2 0 3-2l2-6-1-6q-1-3-4-4l-3 3z"/><path fill="#f9d050" d="M737 354q0-9 5-10c2 0 4 6 4 10q0 8-4 8-5 0-5-8"/><path d="m736 354 2-7 4-4 3 4 2 7-2 6q-1 2-3 2-3 0-4-2zm1 0q-1 3 2 6l3 2 3-3 1-5-1-6-3-4-3 3z"/><path fill="#f9d050" d="M751 352q0-9 5-10 4 1 5 10-2 6-5 8-5 0-5-8"/><path d="m751 352 1-7 4-4 4 4 1 7-2 6-3 2-4-2zm0 0 2 5 3 2q2 0 3-2l1-5-1-7-3-3-3 3z"/><path fill="#f9d050" d="M750 356q0-10 5-10 4 1 4 10 0 7-4 8-5 0-5-8"/><path d="m749 356 2-7 4-4 3 4 2 7-2 6q-1 3-3 2-3 0-4-2zm1 0 1 6 4 2 3-3 1-5-1-7-3-3-3 3q-3 3-2 7"/><path fill="#f9d050" d="M743 361q2-9 5-10c3 0 5 6 5 10q0 7-5 8-3 0-5-8"/><path d="m743 361 2-7 3-4 4 4 1 7-1 6-4 2q-2 1-3-2zm1 0 1 6 3 2 3-3 2-5-2-6-3-4-3 3z"/><path fill="#f9d050" d="M734 361q0-9 3-10c2 0 4 6 4 10q0 8-4 8-3 0-3-8"/><path d="m733 361 2-7q0-3 2-4l3 4 1 7-1 6q-1 2-3 2t-2-2zm1 0 1 6 2 2 3-3 1-5-1-6-3-4-2 3z"/><path fill="#f9d050" d="M756 360q0-9 3-10 4 2 4 10-1 7-4 8-3-1-3-8"/><path d="m755 360 2-7q0-3 2-3t3 3l2 7-2 6-3 2-2-2zm1 0 1 5 2 2q2 1 3-2l1-5-1-6-3-4-2 3z"/><path fill="#f9d050" d="M758 369q2-9 5-9l1 10q-2 8-5 7-2-1-1-8"/><path d="m760 362 3-3 1 5v6l-2 6q-1 3-3 2l-1-3v-6zm-2 7v5q0 3 2 3l2-1 2-6v-6l-1-4q-1-1-3 2z"/><path fill="#f9d050" d="M750 367q2-8 5-9 5 3 3 10 0 8-4 8-3-1-4-9"/><path d="m750 367 2-6q2-4 3-3l3 4 1 6-2 6q-2 3-3 2l-3-2zm1 0 1 6q0 2 2 3l2-2 2-6-1-6q0-3-2-3-2-1-3 2z"/><path fill="#f9d050" d="M739 369q-2-9-5-9-2 3-1 11 2 7 5 7 2-2 1-9"/><path d="M740 369v6l-2 3-3-1-2-6v-6l1-5 3 2zm-3-6q-1-2-3-2l-1 4v6l2 5q1 2 3 1l1-2v-6z"/><path fill="#f9d050" d="M737 368q0-8 4-10 3 3 4 10-1 8-4 8t-4-8"/><path d="m736 368 2-7q1-3 3-3l3 4 1 6-1 6q-1 3-3 2l-3-2zm1 0 1 6 3 2 2-2 1-6-1-6-2-3-3 3z"/><path fill="#f9d050" d="M743 370q0-9 4-10 5 1 5 10 0 8-5 8-4 0-4-8"/><path d="m742 370 2-7 3-3q3 0 4 3l1 7-1 6-4 3-3-3zm1 0 1 6 3 2 3-3 2-5-2-6q-1-4-3-4l-3 3z"/><path fill="#f9d050" d="M745 311q-3 6-2 14-5-3-9 2 5-1 8 5-5-1-6 4l7-2-4 7 7-4q-1 6 3 11l1-12q3 4 9 5c-2-1-3-6-5-6l6-1q-2-4-5-4l6-7q-5 0-8 4c4-5 3-12 7-13q-3-1-8 5l2-9q-5 4-8 10z"/><path d="m744 311 2 8 2-5 5-4v1l-1 4-1 3q5-5 8-5v1l-4 6-1 5 6-3 1 1-6 6v1l2 1 2 3v1l-3-1-2 1 2 3 2 3 1 1h-1l-6-3-3-2v4l-1 7 1 1-1-1-1-1q-3-6-2-9l-2 1-4 2-1 1v-1l3-7-6 2q2-6 5-5-3-4-7-3h-1v-1q4-5 9-3l1-9zm10 15 2-6 3-6q-3 0-7 5h-1l1-4 1-4-3 4q-3 3-3 5l-1 1v-1l-1-8-1 3q-2 6-1 10v1-1q-5-2-9 2 6 0 8 4v1q-4 0-5 3l6-1-3 6 3-2 3-1 1-1-1 1 3 10 1-6v-5h-1 1l4 2 4 3-1-3-3-3-1-1h7l-2-2-3-1h-1l1-1 1-1 4-6zl-1 1z"/><path fill="#f9d050" d="M746 320v6z"/><path d="m747 320-1 6v-6z"/><path fill="#f9d050" d="m752 319-3 8z"/><path d="m752 319-3 8zm2 7-3 4q0-2 3-5z"/><path fill="#059334" d="M712 378q-4 0-6-4-7-8-14-4l-4 2q-4 0-3 8 2-2 3 0v1q1 6 9 8 6 2 7 4l1 4q2 2-1 4-4 6 0 17c6 5 18 14 33-2 15-14 36-7 38-2l3 11q1 4 5 4 5 0 7 3 5 2 4-4c-1-15-8-17-9-24q6 0 9-2 1-4 4-7v-2l-7 2c-18-2-69-20-79-17"/><path d="M712 377q4-1 19 3l29 7q24 7 31 7l5-1 1-1h2v1l-1 2-3 6-1 1q-2 3-8 3l3 6q5 7 6 16l-1 6-4-1q-3-2-7-2l-4-1-2-3-3-11q0-3-4-4l-9-2q-14-2-24 8-9 10-20 9-7-1-13-8-3-4-3-10 0-4 3-8l1-1-1-2v-2l-1-1q-1-3-6-4l-6-3-3-6-1-1h-2l-1 1v-1l1-7 3-2h2l2-1q3-3 7-2l7 5q3 4 6 4m0 2q-4 0-7-5-2-3-6-5-4 0-6 2l-3 1-1 1h-1l-2 1-1 4 2 1h1l1 1v2l2 4 6 3q4 0 7 3l1 3v1l1 3-1 3-3 6q0 5 3 9 5 6 12 7 10 1 20-8 9-11 24-9 5 0 9 3 5 1 5 4l3 11q1 5 5 3 4 0 8 3h2l1-3q-2-9-6-16l-3-8v-1q7 1 8-2l1-1 4-6h-2q-2 2-5 1l-31-6q-41-11-48-10m80 16-7 11q-7 13-30 16-21 0-29-11l-9-7q-6-6-4-14-1 5-4 5-4 0-4 2l-1-3-1-2 6-1q3 0 3-6l-1-7c3-1 45 9 53 9 9 1 31 4 28 8m1 1q-3 2-8 11-2 6-11 10-9 5-19 5-20 0-30-10l-8-8q-3-2-5-6v-4l-3 2h-4l-1 1v-3l-1-1 1-1 2-1 3-1 2-1 1-4-1-7h-1 1q2-1 36 6l36 5 8 2 2 2zm-88-1h3l3-3 1-1h1v7q0 4 3 6l9 8q9 10 29 10 10-1 19-5 7-4 11-10l7-12-2-1-8-2-18-3-17-3-35-6 1 6-1 5q-2 2-3 1l-3 1-1 1z"/><path fill="#059334" d="M718 376q6-7 13-6h1q6-3 11-1h2q9-2 17 4l1 1q15 0 24 14l4 4q4 1 1 4l-8 10q-7 12-29 14-20 1-29-9l-8-8q-4-2-4-10l-3-15q3-2 6-1z"/><path d="M717 376q7-9 14-7h1l6-2 5 1h11l8 4 1 1q7 0 14 3l11 12 3 3q3 0 3 2l-2 3-8 11q-2 6-11 10-7 4-18 4-19 0-29-10l-8-7-4-4-1-7q1-3-2-12v-2l-1-1h1l3-2zm1 1h-3l-2 1v1q3 10 2 14l1 5 3 3 1 1 8 7q9 10 28 10 9-1 18-5 7-4 10-9l9-11 1-2h-2l-4-3v-1l-11-11q-6-4-13-3l-2-1q-1-3-7-5l-9 1h-2q-2-2-5-1-4 0-5 2h-2q-7-2-13 6"/><path fill="#00493d" d="M787 388q-9-15-24-14v3c6 4 15 12 19 19z"/><path d="m788 388-4 6-2 2v1l-1-1a57 57 0 0 0-19-19v-5h1q7 0 14 3zm-1 1-11-11q-6-4-12-3l-1 2q5 2 10 8l9 10 1-2z"/><path fill="#00493d" d="M762 373q-8-6-17-4l-1 8q4 2 8 9l7-3z"/><path d="m762 373-2 10h-1v1l-5 1-2 1-1 1v-1l-7-9h-1l1-1v-8h10zm-1 0-7-4-9 1v6l7 9 2-1 5-2z"/><path fill="#00493d" d="M743 369q-6-2-11 1l-1 9 5 2 7-4z"/><path d="m744 368-1 7v1l-7 5h-1q-1-2-4-2v-1l1-9q2-3 6-3zm-1 2q-2-2-5-1-4-1-5 2l-1 7 4 3 6-5v-1z"/><path fill="#00493d" d="M718 376q6-7 13-6l-1 8q-8 0-12 3z"/><path d="M717 376q7-9 14-7l1 1v1l-1 7v1h-1q-8-2-12 3l-1 1zm1 1v3q5-3 11-3l1-6q-6-2-12 6"/><path fill="#00493d" d="M780 397c-3-6-12-14-18-18l-1 5 9 21z"/><path d="m781 398-11 8v-1l-9-21h-1l2-5v-1 1q6 3 10 8l9 10zm-2-1-7-9-9-7-1 1v2l8 20z"/><path fill="#00493d" d="m750 410 2-22 7-3 9 21q-9 4-18 4"/><path d="m750 410 1-22 6-2 2-1h1l8 21 1 1h-1l-18 4zm1 0 16-4-8-20-2 1-5 2z"/><path fill="#00493d" d="m737 385 6-6 6 8-1 23q-6 0-11-3z"/><path d="m736 384 7-5v-1l1 1 6 7v1l-2 22v2q-7 0-12-3zm1 1v22l10 3v-1l2-22-6-7z"/><path fill="#00493d" d="m717 391 1-7c3-2 10-5 17 0l-1 22q-9-10-17-15"/><path d="m717 392-1-3 1 1v-6q4-3 8-3 6-1 10 2v24l-1-1q-11-12-17-14m1-2q6 3 16 14v-20q-4-2-9-2l-7 3zm-21-10-2-3h-2v3zm0 9q3 0 5-5l3-4v2l-2 3q-2 6-6 5zm3 0q3 2 5-4l4-4v2l-3 3q-4 7-6 5zm-7-14q2-2 3 1l3 2v1q-2 0-3-2l-3-1-1 1zm6 10-3 4h-3v-2h3l2-3zm-6-14-2 3-1 2-1-1 1-1 2-4zm-4 7v3h-1v-3z"/><path fill="#fff" d="M820 445v105c-1 90-32 126-74 151-42-25-74-59-74-149V447q73 6 148-2"/><path fill="#cf142b" d="M746 538q6 0 14-11 8-13 23-1c9 10 14 5 19-1 5-7 8-9 18-10v-70q-73 8-148 2v70q12 1 18 9c5 6 10 11 19 1 10-10 18-7 23 0q8 11 14 11"/><path fill="#0b50a0" d="M746 592c5-1 14-7 17-9 8-7 14-1 20 2 5 3 15 5 22-2 6-8 9-8 14-8l1-25v-7q-8-2-15 9-8 11-21 3c-8-5-16-12-25 1q-3 7-13 10-10-3-13-10c-9-13-17-5-25 0q-13 7-22-2-6-11-14-9v7l1 25q6-2 14 7c7 7 17 4 22 1 6-3 12-9 21-2 2 2 11 8 16 9m0 23q9-1 19-9c8-6 14-3 22 1q12 6 19-1 3-6 10-6-4 21-11 36c-8 3-12 4-20-1q-14-8-24-2-7 6-15 7-7-1-15-7-10-6-24 3c-8 5-12 5-20 1q-7-15-10-35 7 0 9 5 7 7 19 1 12-9 22-1t19 8m0 86q24-14 42-35l-8-3q-5-5-18 3-9 7-16 6-6 1-16-6-12-7-18-2l-8 3q18 21 42 34"/><path fill="#f9d050" d="M736 476v5l2 4h3c8 0 18-5 27-5 8-1 13 3 18 2q5 0 5-5 0-4-10-4l-22 4c-12 0-14-5-14-8q-1-5 9-7l4-1q0-3 4-5l11-3q0 4-5 6 7-4 10 2-4-1-7 1l-4 2c2-1 3 3 5 3q-4 4-10 1l-6-2q-7 0-7 3-1 5 10 4l21-3q1-3-1-5 7 0 10 5l1-10q4 1 5 6l1-4q4 3 4 9l3-5c0 2 0 8-3 10q4-3 9 1l-5 2q-9 7-19 7l-11-1c3 0 7 6 12 6l6-1 4 1q3 3 5 2l-2 4 3 5h-3l2 5h-2l1 6q1 5-3 3 0 3-2 3-2-1-1-3v-1q-1 3-3 1l-1-1q-4 0-3-4 1-2 3-1l2-1 2-2q1-4-7-6-11 1-20-3l-1-1-1 6q-1 4 3 6-3 3-4 0l-2 5-1-2q-2 5-6 5-3 3-5-1h-4l-1 3q0 2-2 1v-3h-4l1-4h1-3v-3q0-2 2-1l1 1v-2q1-2 4 1l3 1 8-6c-7-2-3-7-1-9h-5c-9 6-17 13-23 11l1 3q-2 1-4-2l-1 6-4-2v4q-2-2-4-1l-3 1-3 3-1-4q0 3-3 5v-4q-1 4-4 5l1-4-4 3v-3q0 3-5 3 0 2-3 1-2-2-1-4-3 0-3-4l1-1q-2-2-1-5l3-1q1-6 4 0 2 3 5 4l2-1q4-1 10-6v-4l-4 4v-2l-4-1 2-3-6-1 1-5h-4l2-4-6-1 4-3q-4-1-5-3l3-1q-3-2-3-5l-1 2-4-2q-1-4 1-5-3-2-1-5 1-2 3 0l1 2v-5q0-2 2-2t2 3l1 5v-2q1-3 3-1 3 3 0 5l1 4q5 10 11 12l2-6 1-4q0-4 3-3l-1-2q-2-3-1-6 2-3 4-1l2-7 1 5q1-3 5-6l1 6q2-4 6-4v4q2 1 3-2l-1 6 3-1-2 4q3-2 4 1 1 4-1 6z"/><path d="m737 476-1 2v2l1 2 1 2h3l13-2 14-3 12 2 6 1 3-2 2-3-2-3h-8l-12 2-10 2q-8 0-12-3l-2-6q0-3 2-5 1-2 7-2l3-2 5-5 5-1 5-2 1-1v2l-2 4h3q4 1 4 4v2l-1-1q-2-2-6 1h-2v1h1l2 2h2l-2 2q-4 4-10 1h-1l-5-2q-6 0-6 2-1 1 2 3l7 1 8-2 12-2v-3l-2-2h2q7 0 9 4l1-3 1-5-1-1h1l4 2 1 3v-1l1-1v-1l1 1q3 2 3 6h1l1-3 1-2v11h2l4 3 1 1h-2l-3 1-1 1a27 27 0 0 1-26 6l8 4 5-1 6 1q3 3 4 2h1v1l-2 4 1 2 1 2 2 1h-2l-1 1h-1l1 1 1 2 1 2h-3v2l1 2v3l-1 2h-2l-1 2-2 1-2-2v-1h-3v-1l-3-1-1-4 2-2h4l1-2-1-3q-1-2-5-2h-10l-10-3-1 2-1 2q0 4 3 5h1l-1 1-2 2h-2v1l-1 2-1 1-1-2-2 4h-4l-3 2-2-2h-3l-1 1v1l-1 2h-2l-1-2v-1q-1 1-3-1v-3h-1l-1-5q2-2 3-1l1-1q3-2 4 1l3 1 7-4-3-2v-4l2-4-4 1-3 2-11 7q-5 3-8 2l1 2v1h-1l-4-1v4l-1 1-3-2v3l-1 1q-2-3-3-2-1 3-4 2l-3 2-1 1v-2l-3 3v-2l-2 1-1 1h-1v-2l-3 2h-1v-1l-3 1-1 1-3-1-2-3-2-2v-4l-1-2 1-4h2l2-4 3 3 2 3 3 1h1l1-1q6-2 9-6v-2l-3 3-1 2v-3l-3-1h-1l1-1v-3h-4l-1-1 1-1v-2l1-1h-5v-1h1v-3l-4-2v-1l2-1-3-2-1-2 1-1h1v-1l-1-2-1 1-4-2v-1l-1-3 1-2-1-2 1-3 1-2 2 1v-2l2-3h1q3 0 3 4v2l1-1h3l1 3-1 4v3l5 7 6 4q-1-3 2-5v-4l2-4h1v-1q-3-3-2-7 1-2 3-2l1 1 2-4v-2l2-1v3l5-3 1-1-1 2 1 2v1l2-2 4-1h2l-1 2-1 2 3-1 1-2v2l-1 4h3l-1 2v2h1l2 2q1 3-2 7zm-2-1 1-1 2-5h-1l-1-2-2 1v-1l1-2v-1h-2l-1-1 2-3-3 1h-1v-4q-4 0-4 4l-2-1v-2l-1-2-4 4h-1v-3 1l-2 4 1 3-2-2-1-1-2 1 2 6v2l-2 1-1 3v4q-2 2-2 5v1h-1l-6-4-7-11 1-2 1-3-1-1-2-1v2l-1 1h-1v-2l-1-3-1-2-2 1 1 4-1 1-1-1v-1h-1l-1 1-1 2 1 1 1 2-2 1 1 3 2 1 1-1 1-1 1 1v2l2 2v2h-2q2 3 4 2v2l-1 1-1 1h4v2l-1 2 2 1h1l1-1v3l-1 2 5 1v1l-1 2v1h4v1l3-3h1v1l-1 4-10 7h-2q-1 1-4-1l-2-3-2-2-1 3h-2l-1 2 1 2v4l2 1 1 1-1 1v1l1 1h3v-1h3l2-2v-2l1 2v2l2-3 1-2v5h1l1-3h1l1 3 2-4v-1l1 1v3l2-3h1l3-1h2l2 1v-4q3 0 3 2l1-5 1-1v1l3 1v-3q4 1 9-1l11-8 2-2h7l-1 1-2 5v2l3 1 1 1-1 1q-4 6-8 5-3 2-4-1l-2-1h-1v4l-1-2h-2l1 2h1l1 1v1h-1v2h2l1 1v3h1l1-1 1-2v-3l1 2 3-1 1 1 1 1 3-1 3-1 2-4 1-1 1 1v1l1-1v-4l1 2 2 1 1-1q-3-1-3-6l1-3 1-3v-2l1 2 1 1a45 45 0 0 0 19 2l6 2 1 5-1 3h-5l-1 2 1 2h3v2l2-1h1l1 1h-1v1l1 1h1l1-2-1-2 2 1h2v-1l-1-3v-5h1v-1l-1-2v-1l2-1-1-2-1-1-1-1 1-1 2-2q-2 0-5-3h-4l-6 1q-3 0-8-4l-4-2v-2l5 1h6q10 0 19-6l1-1 2-1-3-1-3 1-1-1 2-5v-3l-1 1-1 2h-1q1-5-2-8l-1 2-1 1h-1l-1-4-2-1-1 4v5h-2q-1-4-8-4l1 2v3h-1l-13 2-8 1-8-1q-3-1-2-4l2-3 5-1 5 2h1q5 3 9 0l-2-1-2-2v-1l2-1 2-1 5-1-2-1-5 1-1-2 3-2 1-2-5 1-5 1-4 5-4 2-7 2-1 4 2 5q4 3 11 2l10-1 12-3 8 1q3 1 3 4l-2 4-4 2-6-1-12-2-14 3-13 3h-3l-2-3-1-2v-6m-22 8q-3 2-4 6h-1q1-6 4-8zm-1 3-4 5v6h-1v-7l5-5zm2 15q3-1 5-6h1q-1 5-6 8zm5-4v5l2-5h1q-1 6-4 8l-1-1 1-4zm0 5q3-2 5-7h1v3l1-4h2v1-3h2l-2 5-1 1v-1l-3 5-1-2 1-1-4 5zm11-8v-4h2l-3 7-1 1v-4zm0-2q3-1 3-9h1q0 8-3 11zm3-4 2-7h1zm-3-21v3l-1 3-1 2h-2l-2-3 1-3 1-2 1-1h-2l-3-4h2l1 2h5l-2 1v2h-1l-1 3-1 2 1 2h1l1-2 1-2v-2q0-3 2-3zm4 2-2-1h-3v-1h1l1-1 2 1zm-5 1v-1l1-3 1 1-1 2h1l1 2h-3l-2-1zm-4-4-2 1v1l1 1 1-1 1 1-2 1q-2 1-2-2v-3l3-1zm-3 25v-2h1l1-1h1q2 0 2-3h1l1-2v-3l1 1v-2l1-1v1h1l1-1h1l-1 2-2 1v1l-1 1-2 3q0 3-3 3l-2 1-1 2zm-4-17-2 2v5l-1 3v3h-1v-7h1v-5l2-1zm1-10v3l1 2v2l-2-4v-4zm1 8v4l-1 4v3l2 2h4l3-7 1 1q-1 6-4 7l-4 1q-3-1-3-4v-3l1-4v-4zm15 27-1 2-1 1v-2l1-1zm2-1-1 4-1-1zm3-1-1 4v-4zm-24-34 1 3 1 2-1-1-1-1v3h-1v-3l1-1zm-1 10-1 1-1 1-1-1 1-1zm-2 5h1zm-19-11v-2l1 2zm-3-1-1-1 1-1zm0 6h1v2h-1zm-2-2-2-1v-2l3 2zm23 21q-4 5-4 9h-2q1-6 5-10zm3 3-4 5v-2l3-4zm-16 15q-5 2-8-2h-1l-1-1 1-1h1v1q4 3 8 2zm12-7-1 2q4-3 5-8h1q-1 7-7 11v-2l1-4v-1zm-23 8h2l1 1-2 1h-1zm68-16h1l1 1 3-3 1 2q-2 0-3 2v1h-1l-1-1-1-1zm-28 12q-2-4 3-7v2q-3 1-2 5zm-16 8 1-1v-2h1v2l-1 2zm-16 2v1l-1 2h-1l1-3zm-7 0 1-1 2-2 1 1q0 2-3 2v1-1zm54-5-2-1 1-1 1 1zm0 2-1 1v-2zm2 3-1 1v-2zm11 0 1-3h1l-2 4zm-5-1 3-3 1 1-4 4zm10-3 1-4 1 1v3zm30 3-1-2 1-3h1l1-1 1 1-1 1-1 1-1 1zm-24-17-6-5q-2-3-5-3v-1l6 3 5 5zm28 14 1 3h-2l1-1zm4 0v4h-1zm-31-48h-3v-1h3zm-32 18 1 2 2 1v-1l1 1v1l-4-1-1-3zm1-6v-4h-1q0 3-2 3h-3l-1 3-3 1-2-3h-2l-3-2 1-8 1 1-1 6 2 1q1 1 2-1l1 1 1 3 2-1 2-2v-2l1 1 2 1 1-3v-1h3l1 1-1 2zm25 20-4 2 2 1q-2 3 1 2l1 5q3-3 1-6z"/><path fill="#073163" d="M725 479q-2-2-1-4l-2 1q-3 8-6 9-4 3-1 4 7 4 10-10m-39-14v-4q-2-1-5 2l3 1q0 2 2 1m2-10q4 0 4 2 1 3-1 3l-2-2zm8 9q3 1 2-3-1-3-4-2c2 2 0 4 2 5m-14 8q2 4 4 3l1-3q-1-3-3-1-1 3-2 1m6 33q-1-3-6 0l3 1 2 2zm3-3q-2-3-5-2l2 2 2 2zm-4 10q-4 1-4 6 2-3 3-2l2-2zm0 9q2 1 2-2h2v3q-2 2-4-1m55-15h-5q2 0 3 2l1 1zm-4 4q-3 0-4 4l3-2q2 1 2-1zm2 5-3 4 2-1 2-2zm4 4q-2-1-2 1l-1 4 3-2zm44-7q-2-1-2 1v6l1-3q3-1 1-4m2 2v7l1-3q2-1 1-3zm5 2-1 2q-1 2 1 5l1-3q2-3-1-4m4-1q-2 1-1 4h3l-1-2z"/><path fill="#f9d050" d="m690 617 19-82 20 83-52-53 64 2z"/><path fill="#024919" d="m693 609 41-39-50-2 40 42-15-65z"/><path fill="#f9d050" d="m763 618 20-84 20 81-52-48q31 0 64-4z"/><path fill="#024919" d="m767 610 41-44-50 4 40 38-15-64z"/><path fill="#f9d050" d="m726 677 20-83 20 82-52-51h64z"/><path fill="#024919" d="m730 669 41-41h-50l40 41-15-65z"/><path d="M820 550q0 62-21 100-9 17-23 30-12 10-30 21v1q-18-10-30-21-14-13-23-30-21-37-21-99V446q73 6 148-2zm-1-104q-71 8-146 2v104q0 61 21 99 9 16 23 28 12 11 29 21 17-11 29-21 14-13 23-30 21-38 21-99z"/></svg>