<svg xmlns="http://www.w3.org/2000/svg" viewBox="0 0 1000 1000"><path fill="#00247d" d="M8 195.3c170.8-85.3 341-54.5 513.3-28C676.5 191 833.4 211.8 992 132.7v672c-170.8 85.3-341 54.5-513.3 28C323.5 809 166.6 788.1 8 867.2z"/><path fill="#fff" d="M8 195.3a522 522 0 0 1 55-23.7c63 20.3 126 54.4 191 98.2a1945 1945 0 0 1 191-114.2l55 8.4 11 31.8c-66.7 35.2-133.3 69.9-202 113C375.6 358 442.3 414 511 471.5l-22 56.7C411.5 463.5 334 398.9 254 345A1230 1230 0 0 0 19 556L8 531.4v-37.6C71 419.2 134 360.3 199 310c-63-37.3-126-65.2-191-77.2z"/><path fill="#cf142b" d="M254 307.3q18 0 36.7.6c71.5 51.4 143 111.5 216.6 173.2L500 500c-81.1-68-162.3-136.2-246-192.7v25A1232 1232 0 0 0 15.3 547.8L8 531.2a1240 1240 0 0 1 246-223.9 716 716 0 0 0-36.7 1.3c-69-42.9-138.1-75.2-209.3-88.3v-25c81.2 14.9 162.3 55.7 246 112v-25c69.1-47.8 138.2-86 209.3-124L500 164c-81.2 42.9-162.4 85.5-246 143.3"/><path fill="#fff" d="M295 140v112c94.7 4 189.4 22.8 287 36.2v112c-94.7-13-189.4-32.1-287-36.2v168a755 755 0 0 0-82 .9v-168A530 530 0 0 0 8 419.3v-112a531 531 0 0 1 205-54.4v-112q40.3-2.6 82-.9"/><path fill="#cf142b" d="M278.6 139.5V274c100.1 2.3 200.2 22.6 303.4 36.7v67.2c-100-13.7-200.3-34.3-303.4-36.7v190.4q-24.2-.5-49.2.5V341.6A535 535 0 0 0 8 396.9v-67.2c73.1-36.5 146-52 221.4-55.3V140q24.2-1 49.2-.5"/><path fill="#00247d" d="M8 531.3C170.7 450 332.5 474 500 500V164c161.8 25 325.4 51.9 492-31.2v672c-170.8 85.2-341 54.4-513.3 28-155.2-24-312.1-44.6-470.7 34.5z"/><path fill="#fff" d="M819.6 445v104.6c-.2 90.8-31.4 126-73.5 151.2-42.2-24.5-73.7-58.5-73.9-149.2V447a758 758 0 0 0 147.4-2"/><path fill="#fff" d="M823.5 444.5V549q0 64.6-21.8 103.8a130 130 0 0 1-24.3 30.8q-11.8 11.1-29.8 22a3 3 0 0 1-3 0q-18-10.6-30-21.3-14.6-13.5-24.3-30.2-22-38.6-22-102.9V446.7c.1-3.8 1.2-5.1 4-5.1a757 757 0 0 0 147.3-2c2.7-.2 3.8 1.1 4 4.9m-8 6.3c-46 5.2-92 5.2-139.5 1.8V552q.2 60.5 20.3 95.9a117 117 0 0 0 22.5 27.7q10.9 9.7 27.2 19.4a171 171 0 0 0 27-20 119 119 0 0 0 22.4-28.2q20-36 20.1-96.6z"/><path fill="#fcea83" d="M626.6 685.3c2.7 9 19 21.7 39 9.1 13.3-9.3 21.8-23 30.2-48.4 2.4-6.6 3.4-14-2-19.5-4.4-4.4-11.3-9.8-14.5-14.3l-4.3-5.6 2.3 3.9c7.6 13.7-.3 31.4-9 42.3-6.5 7.9-17.4 26-34.2 6-4-4.4-11.5 11.8-7.5 26.5"/><path fill="#fff" d="M623 686.9a39 39 0 0 1 .9-24.8q2-5.2 4.5-7.7c3.3-2.8 5.5-2.7 8.2.5 5.6 6.7 10.3 8.8 15.4 7q4.5-1.8 11.5-10.7l2-2.5a53 53 0 0 0 9.8-18.2c1.9-6.9 1.5-12.1-1-16.8l-.3-.5-1.8-3c-1.8-3-1.8-5 0-7.6 2-2.4 3.5-2.3 5.5.4l1.7 2.1 2.7 3.5q1.5 2.2 7.8 8l6.1 5.6a19 19 0 0 1 5.7 13.6q0 5.9-2.4 12.6a150 150 0 0 1-13.7 31.5 66 66 0 0 1-18.2 19.4c-9.9 6.3-19 7.6-28.7 3.9q-5.6-2.4-10-6.7-4.3-4.6-5.7-9.6m7.3-3.1q.6 1.8 2.8 4.2 3 3 7.3 4.8c7.7 3 15 2 23.3-3.3a58 58 0 0 0 15.8-16.8 139 139 0 0 0 12.7-29v-.3c2.2-6.1 2-9.8-.5-12.5l-.2-.1q-1.6-1.7-5.7-5.3l-1.4-1.3q-.2 5-1.7 10.6a63 63 0 0 1-11.7 22l-2 2.5a42 42 0 0 1-14.3 13c-7.6 2.7-14.5.2-22-8.3q-.9 1.2-1.7 3.5a26 26 0 0 0-.8 16z"/><path fill="#fcea83" d="M865.6 680a26.4 26.4 0 0 1-39 12c-13.3-8.6-21.9-22-30.6-47.1-2-6.6-3-14 2.4-19.6 4.3-4.6 11.2-10.2 14.5-14.8l4.3-5.9-2.4 4c-7.6 14.1.4 31.4 8.7 42 6.5 7.5 17.8 25.1 34.6 3.6 4-4.7 11 10.8 7.5 25.8"/><path fill="#fff" d="M869.2 681.4q-1.7 5.3-6 10.1a35 35 0 0 1-10 7.6 28 28 0 0 1-28.5-2.1 62 62 0 0 1-18.2-18.6 150 150 0 0 1-14-31l-.1-.2c-3.6-11.7-2.3-20 3.7-26.1l6.1-6a71 71 0 0 0 12.6-14.5q1.7-1.7 3-1.7 1.4.2 2.6 2.1c1.3 2.5 1.2 4.5-.4 7.1l-1.9 3.2-.2.5c-2.6 4.7-3 10-1 16.8q2.6 9.2 9.3 17.7l1.9 2.2a33 33 0 0 0 11.8 10.2c5.3 1.5 10-1 15.6-8.1 2.8-3.5 5-3.8 8.2-1.3q2.6 2.4 4.5 7.4 4.3 11.9 1 24.5zm-7.3-2.7a27 27 0 0 0-2.5-19.4c-7.6 9.2-14.5 12.3-22.2 9.9q-6.3-2.2-14.6-12.3l-1.8-2v-.2a62 62 0 0 1-11.4-21.5q-1.4-5.6-1.7-10.5l-1.4 1.3-5.6 5.5-.2.2c-2.4 2.6-2.7 6.4-.9 12.7q6.4 18.2 13 28.5a54 54 0 0 0 16 16.2c8 4.7 15.2 5.3 22.9 1.8q4.2-2.1 7.4-5.5 2.3-2.6 3-4.7"/><path fill="#fcea83" d="M746 738.3c32-.4 79.3-23.2 105.8-96.4 4.1-12.2.1-17-5.1-20-5.5-2.5-12-8.7-15.7-13.1 6.2 7.8 5 13.5.8 24-20.3 48.6-47.5 74.4-85.7 75-38.2 0-65.5-25-85.7-72.3-4.3-10.2-5.4-15.9.4-24.1a53 53 0 0 1-15.7 14c-5.2 3.5-9.2 8.6-5.1 20.5 26.4 70.8 74.3 92.6 106 92.4"/><path fill="#fff" d="M828.2 613c-1.8-2.5-1.8-4.7 0-7.6 2-2.8 3.5-3 5.5-.8a41 41 0 0 0 14.8 12.2c9.2 5.4 11.3 13.8 6.8 27q-18.4 51.1-52.5 78.4a93 93 0 0 1-56.7 21.5 94 94 0 0 1-56.9-20.2q-34.4-26-52.7-75.4c-4.5-12.8-2.4-21.5 6.7-27.5l.3-.2q3.5-1.7 8-5.8 3.7-3.5 6-6.5l.4-.7q1.4-1.7 2.8-1.7t2.8 2c1.8 2.7 1.9 4.8.3 7.5l-.5.7a13 13 0 0 0-2.6 7q.2 3.1 3 10.1 14.9 34.5 34.8 51.9a71 71 0 0 0 47.6 17.5 71 71 0 0 0 47.6-18.6q19.9-18 34.7-53.3 3-7 3-10.2 0-3.3-3.2-7.3M746 733c18.6-.3 36-7 53.1-20q32-25.3 49.1-73 2-5.6 1-8.6-1-2.4-4.3-4.4-3-1.3-6.2-3.6-.9 5-3.7 11.7c-21 50.8-50.4 77.4-89 78-38.6.1-68-25.7-89-75.1q-3-6.7-3.8-11.8a40 40 0 0 1-6.5 4.3q-3.2 2.2-4.2 4.7c-.7 2.2-.5 4.8.9 8.6q17 46.3 49.2 70.3a88 88 0 0 0 53.4 18.8"/><path fill="#db161c" d="M673.4 645.1c-1.2-5.4-5.5-3.7-7.5 2.7q-3-5.8-5.5-12.3c-4.7-10.3-5.4-16.4 1.2-25.1 3.4-4.2 9-8.1 13.7-2.7 8.9 11.1 4.4 26.8-2 37.4"/><path fill="#fff" d="m670.2 648.1-.6 1.6c-1 3.5-2.3 4.3-5 3a5 5 0 0 1-1.9-2q-3.9-8-5.7-12.8a40 40 0 0 1-4.2-16c.2-5.5 2-10.4 6-15.6q3.6-4.5 8-6.1c4.6-1.4 7.8-.4 11.1 3.6a31 31 0 0 1 6.1 24 54 54 0 0 1-7.5 20.9c-1.9 2.7-3.3 2.8-5.6.4zm2.6-11.1q2.7-5.9 3.4-11.6c.6-5.8-.4-10-3.4-13.8l-.1-.1q-1.4-1.7-3.5-.9-2.6 1-4.8 3.8a16 16 0 0 0-3.7 8.4 28 28 0 0 0 3.2 10.6l2.1 5q1.3-1 2.8-1.6 2-.7 4 .2"/><path fill="#db161c" d="M818.4 643.1c1.2-5.4 6-4 7.9 2.3q3-5.8 5.5-12.6c4.7-10.5 5.4-16.7-1.6-25-3-4-8.7-7.7-13.8-2-8.4 11.5-4.4 27 2 37.3"/><path fill="#fff" d="m821.7 645.7-.8 1.3c-2.3 2.5-3.7 2.5-5.6-.1q-6-9.8-7.4-20.7c-1-9.8 1-17.5 6-24.2 3.5-4.1 6.8-5.3 11.3-4.2q4.5 1.4 7.8 5.9c4 4.8 6 9.5 6.3 15q0 6.6-4.1 16.3-1.8 5-5.7 13-.9 1.5-2 2.3c-2.7 1.4-4 .6-5-2.7a5 5 0 0 0-.8-1.9M819 635q2-1 4.1-.4 1.7.4 3 1.5l2.4-5.8q3-6.8 3-10c-.2-2.6-1.4-5-4-8.2l-.3-.4a9 9 0 0 0-4.3-3.3q-2.4-.6-4 1.2a19 19 0 0 0-3.2 14q.8 5.9 3.3 11.4"/><path fill="#db161c" d="M626.6 685.3c-3.8-8.6-7-29.7-7.8-35.3-1.2-5.2-1.5-9 2.7-11 4.5-1.1 8 6 10.2 13l8.7 28.8c-9-7.6-15.4-4-13.8 4.5"/><path fill="#fff" d="M623.4 687.9q-4.5-9.7-8.4-37c-2-9.4-.5-14.6 5.2-17 3.7-1.2 6.6.2 10 5q3 4.5 5.2 11.5l2.6 8.6 6 20.2c1 3.6.3 5.4-2.1 6.8q-1.8.8-3.5-.7c-3.3-2.9-5.4-3.7-7.5-3.1q-.9.4-.5 1.8c.7 3.7 0 5.4-2.5 6.5q-2.8 1-4.5-2.6m3.4-15.4a9 9 0 0 1 6.6-1.2l-2.7-8.8-2.6-8.8q-1.5-4.9-3.4-7.8-1.3-1.8-1.8-1.6l-1 .6q0 .8.6 3.9l.1.6a288 288 0 0 0 4.2 23.1"/><path fill="#db161c" d="M865.6 680c3.4-8.8 6.7-30.3 7.8-36 .8-5.3 1.5-9.1-2.7-10.7-4.6-.7-8.1 6.8-10.3 14l-8.6 29.5c9-8.4 15-5.3 13.8 3.3"/><path fill="#fff" d="M869 682.1q-1.7 3.7-4.5 3.4c-2.6-.7-3.3-2.3-2.8-6q.3-1.8-.6-2.1c-2-.4-4 .6-7.3 3.7q-1.7 1.5-3.5 1c-2.5-1.2-3-3-2.1-6.7l6-20.7 2.6-8.8q2-7.1 5-11.8c3.5-5.2 6.5-6.9 10.2-6.1 3.4 1.1 5 3.2 5.8 7.3q.3 3-.5 8.7v.3l-.1.4-1.1 6.1a198 198 0 0 1-7.2 31.3m-3.8-14.8q1.5-6.9 3.3-17.4l1.2-6.4.5-4.5-.8-.3q-.6-.1-1.8 1.8-2 3-3.4 8.1l-2.7 9-2.6 9.1q2.6-.6 5.1 0zM715.8 448.7c-5.2 1.5-8.4 1.8-13.3-4.2-3-4.9-2.4-11.5.8-14.5 3.7-3.2 6.5-4.9 11-3.3 4.6 2.2 15.3 15.7 13 16.9-2.8.2-7.1 3.5-11.5 5.1"/><path fill="#fff" d="M716.7 454q-5 1.4-8.3.7-4.4-1-8.6-6.4l-.1-.2a19 19 0 0 1-3.1-12.3c.4-4.9 1.8-8 4.5-10.4 5.3-4.4 9.6-5.5 14.2-3.9a34 34 0 0 1 10.8 10.2q2.8 3.6 4 6.3 1.1 2 1.4 4 .3 2.4-.7 4.4-1 2.2-3 2.5h-.6q-.7 0-4.4 2.1a44 44 0 0 1-6 3m-2-10.5q1.6-.6 5-2.4l1.5-.9-.6-.7q-5.2-6.7-7.5-7.7c-2.3-.7-4.5 0-7.8 2.8q-.9.7-1 2.6 0 2.1.8 3.5 2.4 2.9 4.3 3.4 1.7.3 5.4-.6m13.1-20.3c1.7-1.6 3.5-2.5 8.6-3.1 5-.5 8-.6 9.5 4.2 1.6 6 2.9 12.7 5.9 16-2.5 1.7-11.3 3.2-15.3.7-4.5-3.6-6.2-15.3-8.7-17.8"/><path fill="#fff" d="M725.7 418.9a18 18 0 0 1 10.6-4.2 20 20 0 0 1 7.3.3c3.2 1.2 5 3.4 6.2 7.5l.9 3.4q2.1 8.6 3.6 10.1a6 6 0 0 1 1.8 3.5q.2 1.8-1 4l-1 1.4a18 18 0 0 1-9 2.8c-4.7.3-7.8-.3-10.3-2-2.6-2-5-6.2-7.3-13.5l-1.4-4.3q-1.7-1.4-2.1-3.3-.3-1.7.6-4.1.4-1 1-1.6m8.4 7 .7 2q2.4 7.3 3.7 8.3l.2.1q1.4 1.1 6 .7l.8-.1-2.2-7.5-.8-3.2v-.1c-.4-.8-1.9-1-5.4-.7zm27.8-2.4c1.7-1.6 3.4-1.7 8.7-1.4s6.8.7 8.2 5.5c1 5.4.2 12.2 2.4 17-2.8 1.2-9.8 1.5-13-2-4-4.4-4.2-16.3-6.3-19.1"/><path fill="#fff" d="M759.4 419.3c2.2-2 5.6-2.8 11.4-2.6q4.8.5 6.9 1.5c2.3 1.5 3.7 3.7 4.7 7.5v.1q.7 2.8.9 8.2.3 5.9 1 7.5 1.1 2.1.9 4a6 6 0 0 1-2.9 4.2q-2.9 1.5-8 1.1-5.8-.5-8.8-4-3.4-3.7-5.5-14.8l-1-4.6a6 6 0 0 1-1.4-3.3 7 7 0 0 1 1.8-4.8m8 8 .3 2q1.5 7.6 2.7 8.8l.5.6q.8 1 4.2 1.4h.7l-.4-5q-.1-4.1-.5-5.7-.2-1.1-.5-1.3-.9-.4-4.2-.6z"/><path fill="#073163" d="M785.4 425.6c-3.7-.9-5.7-1.2-7.5.4 1.7 3.3.7 15.8 4.3 20.2 3.2 2.4 9.4 2.5 11.4-3.5s2-13.2-8.2-17.1"/><path fill="#fff" d="m785.6 420.1 1 .3c5.8 2.2 9.2 5.4 11 10.6 1.4 4.3 1.3 8.5-.4 13.5-1.5 5-4 7.5-8.5 8.5a10 10 0 0 1-8.8-2.3l-.1-.2c-2.4-2.7-3.9-7.8-4.5-16.3l-.4-4.6-.1-.2c-1.5-3-1.3-5 .8-7.6 2.2-2 5.1-2.6 10-1.7m-2.7 10.4.2 2.2q.7 7.8 1.5 9 1.2 1 3.5.6 1.6-.3 1.8-1.2l.2-.5q1-2.8.4-4.8-1.2-3-6.1-5z"/><path fill="#073163" d="M745 421.7c1.3-1.6 3.3-2.1 8.2-2.3 5.2 0 8 .9 9.8 5.1 1.5 5.4 1.4 12.2 4 16.5-1.9 2.2-11.3 2.5-15-.6-4-4-5-15.8-7-18.7"/><path fill="#fff" d="M742.1 417.9c2-2.5 5.4-3.7 11-3.9 7.1 0 11.1 2.4 13.4 8l.1.4q.8 2.5 1.5 7.6.9 5.9 1.8 7.4a6 6 0 0 1 .2 6.7c-1.7 2.7-4.6 4-10 4-4.9-.2-8-1.2-10.4-3.3q-3.6-3.3-6.2-14.5l-1.1-4.5c-2-2.5-2.1-4.6-.5-7.6zm8.4 7 .5 2.1a25 25 0 0 0 3.3 9q1.3 1.2 6 1.4h1q-.6-2.4-1-5.2-.4-3.7-.9-5.3c-.9-1.5-2.6-2.1-6.2-2.1z"/><path fill="#073163" d="M711.5 426c.3-2.7 2.6-3 9.8-3.5 7.1-.8 7.5-.4 9.9 6.6 1.2 4 2.8 10 5.9 12.4-8.8 2.8-11.3 4.1-16.2.4-3.5-3-7.3-9.2-8.2-12-.4-1.8-.5-3.2-1.2-3.9"/><path fill="#fff" d="M707.6 425.9c.1-4.2 1.6-6.4 5.2-7.7q2.2-.7 8.2-1 6.3-.7 8.8.9 2.5 1.8 5 8.8v.2l.5 1.6q2.1 7 3.5 8c2.4 1.9 2.9 3.8 1.8 7.2q-.9 2.3-2.7 2.9l-2.8.9a38 38 0 0 1-8.3 1.9c-2.8-.1-5.1-1-7.8-3.1q-3-2.5-6.1-7.1a33 33 0 0 1-5.3-13.5m8.9 2.4q.4 1.4 2.2 4a23 23 0 0 0 4.2 5q2 1.5 3.7 1.5.9 0 3.3-.6l-2-5.5-.3-1.4-1.4-3.6a16 16 0 0 0-4.7.2z"/><path fill="#059334" d="M712.3 378.3q-4.2-.4-6.7-4.5c-3.2-5-9.8-7.3-13.4-3.4-1.2 1-2.7 1-3.9 1.4-2.1.2-4 2.2-3.5 7.8 1.6-1.3 2 0 3.1.2.8-.4.5.5.4 1.7.4 3 4 7.8 8.3 8 4.4.4 6.1 2.3 7 3.5 1.2 1.7.5 1 1.2 3.8 1.2 1.7 1.6 2.1-.4 4.3a14 14 0 0 0 0 16.6c5.4 5.7 17.8 13.9 32.7-1.4 14.5-14.7 35.7-7.2 37.7-2 2 5.4 2.7 8.5 3.1 11.2.6 2.3 2.2 4 5.1 3.4q4.7.2 7.5 2.8c2.2 1.3 4.4.8 4-4-1.9-15-8-16.7-9.1-23.6 4 .2 6.4 0 8.2-2.2 1.2-2.3 2.9-6 4.4-7.3 1.1-1.3 1.2-2.2-.4-1.6-2 .8-3.2 1.7-6.7 1.6-17.7-1.5-69.2-19.2-78.6-16.3"/><path fill="#fff" d="M711.9 372.9q5.3-1.1 19.6 2.3l29.2 7.7q24 6 30.6 6.3 1.9.1 3.8-.7l1.6-.7a5 5 0 0 1 2.3-.4q3 .4 3.7 4.3.5 4-2.6 7.2l-.4.3-2 3.7-1 2-.3.6a9 9 0 0 1-4.1 3.2 44 44 0 0 1 6 17.6c.6 5-.3 8.1-3.1 10.4-2.4 1.5-4.2 1.4-6.7-.3l-.4-.3a7 7 0 0 0-4.9-1.8 7 7 0 0 1-5.7-1.3 10 10 0 0 1-3.4-6v-.3a57 57 0 0 0-2.8-9.6l-.2-.2q-.9-.8-2.3-1.4a27 27 0 0 0-8.5-2.3 24 24 0 0 0-20.8 7.3c-7.4 7.8-14.6 10.9-22.7 9.8a26 26 0 0 1-15-8.7 20 20 0 0 1-4-14.1q.4-5.7 3.2-9.5l-.3-1.6q-1.3-1.4-4-1.6c-2.9 0-5.3-1.1-8-4a18 18 0 0 1-3.7-5.7c-2.3 0-3.5-1.2-4-4.6q-.9-6.1 1.4-10.3 2-3.5 5.3-3.8l2.2-.5c2.7-2.8 5.5-3.5 9.8-2.5 4 1.3 6.8 3.4 9 7.1q1.2 2.1 3.2 2.4m.4 10.8c-4.2-.3-7.1-2.3-9.8-6.7a7 7 0 0 0-4-3q-2.6-.8-3.5.4l-.6.6q-1.1 1-3 1.5l.6 1.3q.5 1.4.3 3.3l1 1.3q1.7 1.7 2.9 1.7h.4c4.4.3 7.3 1.9 9.8 5.2q1.6 2.3 2 4.9a10 10 0 0 1 1.3 4.7q0 3.4-2.7 6.4-1.2 1.5-1.5 3.7 0 2.6 1.5 4.7a19 19 0 0 0 10.6 5.9c6 .8 11.3-1.6 17-7.5a31 31 0 0 1 26.4-9.6 33 33 0 0 1 10.6 2.8q5.4 2.7 6.7 6.6 2.5 6.8 3.4 11.7.3.1.8 0h.5q3.7-.2 7 1.4-1.4-5.3-4.5-10.1a25 25 0 0 1-4-9.7c-.3-3.3.5-5 2.5-6.1q-8.5-1.4-25-5.7c-25.4-6.7-40.2-10.5-44.9-10q-.7.3-1.8.3"/><path d="M792.5 395c-2 1.8-4 4.6-7.5 11.3-4.2 7.3-15.5 14.7-30.3 15.2-14.3.2-22.6-3-29-10.1a58 58 0 0 0-8.7-7.7c-4.3-3.2-5-8.5-4-13.6-1.2 2.9-1.8 5-4.2 4.7-1.9 0-4.4-.2-4 2-.3-1.1-.4-2.7-.8-3.2l-.7-1.2c1.3.8 3.7-1.6 5.9-1.9 1.7.3 3.3-1.8 3-5.2l-1-7c3-1.5 44.4 8.3 52.6 9.2 8.8.3 31 3.4 28.7 7.5"/><path fill="#fff" d="M794.5 399.5a46 46 0 0 0-6.4 9.8 32 32 0 0 1-13 12.2q-9.4 5.1-20.4 5.4c-14.3.2-24.5-3.7-31.5-11.4q-3.9-4.1-7.9-7a15 15 0 0 1-5.8-8.2l-1-.1h-.3l-1.6 1.5q-1.8 1-3.1.5-1.3-.8-2.2-3.1l-.5-1.8-.2-1-.1-.2c-1.8-2.8-1.8-5 0-7.6q1.6-2.2 3.5-1.4l.6-.4q2-1.2 3.7-1.5l-1-5.8c-.4-3 .2-4.6 2-6 2.4-1.3 14.9 1 38.6 5.8q13.4 2.6 16.2 2.9 8.2.3 19 2.5 5.8 1.2 8.8 2.5 2.2 1 3.4 2.4 1.3 1.9 1.4 4.4 0 2.9-1.7 5zm-78.2-12.8q1.3 2 .5 5.2c-.7 3.5-.2 5.4 1.8 7h.2q4.7 3.4 9.3 8.3c5.6 6.1 14.1 9 26.6 9q9.7-.4 17.8-4.7 6.9-3.8 9.3-8.3l4-7-4.2-1q-10.4-2-18-2.4h-.2q-2.9-.1-16.7-3c-15.6-3.1-25.9-5.5-30.7-6.3l.2.8v2.4"/><path fill="#059334" d="M717.8 376.3c4.2-5.3 8.4-7.7 13.4-6.2h1.1c2.8-2.6 7.5-3 11-1h1.6c5-2 13.4-.3 16.9 4l1.2 1c10.7-1.2 16.7 4.5 24.3 14.3.9 1.1 2 3 4 3.5q3.6.8.8 3.7a44 44 0 0 0-8.3 10.8c-3.8 6.7-14.7 13.6-29 14-14 .2-22-3-28.4-9.6-3.5-3.8-6.2-6-8.2-7.7a10 10 0 0 1-4.3-9.7c.6-4.4-1.2-9.6-2.8-15.1 1.4-1.2 4-2.4 6-1.5z"/><path fill="#fff" d="M716 371c5-5.8 9.7-7.7 15.3-6.4q2.4-1.8 6-2.2 3.8-.2 6.9 1.3h.1q4.3-1.6 10.3-.3 6.3 1.4 9.5 5.2 7.8-.5 14 3.6 5.3 3.6 12 12.2l.5.7q1 1.3 1.4 1.4c2.9.7 4.3 2 5 4.9.7 3.5-.2 6-3 8.6q0 .2-.2.3a51 51 0 0 0-7 9.3q-3.6 6.5-12.3 11.2a45 45 0 0 1-19.8 5c-13.6.2-23.4-3.4-30.6-10.7q-3-3.3-7.3-6.9l-.3-.2q-2.9-1.7-5-5.5-2.6-5.4-1.4-10.7.1-2.2-2-9.4l-.6-2.3c-.8-2.9-.3-4.7 1.4-6.4a12 12 0 0 1 4-2.2q1.8-.6 3.2-.4m4.5 9q-1 1.5-2 1.7-1.2.6-2.2.3a34 34 0 0 1 1.1 13.3l.4 1a4 4 0 0 0 1.5 1.7l.8.5.6.5q4.7 3.9 8 7.5c5.8 5.8 14 8.6 26 8.5a40 40 0 0 0 17.1-4.3 21 21 0 0 0 8.8-7.5l.2-.4q3.2-5 5.6-8l-1.6-2.1-.3-.4q-6-7.7-10-10.5c-3.6-2.2-7-3-11.3-2.5q-1.4.2-2.5-.8l-1.2-1-.6-.7q-1.4-1.9-5.8-3-4.4-.9-7 .2l-1.3.3h-1.6q-.9 0-1.7-.5a6 6 0 0 0-3.8-.7q-2.2.2-3 1-1 1.4-2.5 1.3h-1.2l-.9-.2c-3.4-1-6.2.4-9.6 4.9"/><path fill="#00493d" d="M787.4 388.4c-7.7-9.8-13.7-15.5-24.4-14.3 0 .5 0 2-.4 3.2a60 60 0 0 1 19.3 19c1.6-2.2 4.1-5.2 5.5-7.9"/><path fill="#fff" d="M790.1 384.4q2.1 2.8.6 6.5-1.1 2.6-4.5 7l-1.6 2q0 .2-.3.5-1.6 1.7-3 1.6-1.4-.2-2.6-2.3a54 54 0 0 0-17.9-17.5c-2.3-1.8-2.8-3.8-1.7-7.2v-.8c0-3.5 1-5 3.6-5.5q8.5-1 15.5 3.5 5.1 3.5 12 12.2"/><path fill="#00493d" d="M761.8 373c-3.5-4.2-11.8-6-16.9-4 0 2.2 0 5.4-.8 7.6 2.7 1.7 5 5.2 7.5 9 1.6-.6 5.5-2.2 7.5-2.8a76 76 0 0 0 2.7-9.8"/><path fill="#fff" d="M764.6 369.1q1.5 2 1 4.9-.6 4.2-3 11-1 2.5-2.8 3l-4.8 2-2.5 1q-2.3.7-3.9-1.7a30 30 0 0 0-6-7.7l-.2-.1c-2.4-1.8-2.9-3.8-1.8-7.2q.3-1 .4-5.1 0-3.9 2.7-5.1 4.5-2.1 11-.6 6.6 1.6 9.9 5.7m-7.4 6.3q-1.5-.9-4-1.4-2.6-.6-4.5-.5v.6l4.2 5.4 3.4-1.3z"/><path fill="#00493d" d="M743.3 369a10 10 0 0 0-11 1.1c-.7 2.2-1.1 6.4-1.1 8.6 1.6.2 3.7 1.6 4.7 2.7a23 23 0 0 0 6.7-4.8c.4-2.2 1-5.3.7-7.5"/><path fill="#fff" d="M745.1 364.3q1.5 1.1 2 3.4.6 3.2-.5 9.2l-.2 1q-.4 1.4-1 2.5a22 22 0 0 1-8.3 6.1q-2.3 1-4-1.3-.9-1-2-1.1c-2.7-.3-3.7-1.7-3.9-5.5q0-6.6 1.6-11l1-1.6c2-2.1 4.2-3.2 7.5-3.6q4.3-.3 7.8 1.9m-6 8.8h-1.3q-1.5.3-2.3.7l-.1.7 1.2.8 2.5-1.7z"/><path fill="#00493d" d="M717.8 376.3c4.2-5.3 8.4-7.7 13.4-6.2a24 24 0 0 0-1.2 8c-4.6-.4-9.6 1-12.2 3z"/><path fill="#fff" d="M715 372.4c5.6-7.2 10.8-9.5 17.1-7.5q1.8.7 2.6 2.3a8 8 0 0 1-.3 6q-.5 1-.5 5 0 5.3-4 5.3h-.3q-2.6-.2-5.7.4-2.7.7-4 1.8-1.5 1.4-3 1-1.3-.4-2.4-2.7-.6-1.4-.6-3v-4.8q0-2.2 1.1-3.8"/><path fill="#00493d" d="M780.3 397.5a58 58 0 0 0-18.1-18c0 .5-.8 2.7-1.2 4.3 2.4 4.8 7 15.3 9 21.1 2-1.2 7.4-4.7 10.3-7.5"/><path fill="#fff" d="M783.5 394.2c1.4 3 1.1 5-1 7.5a57 57 0 0 1-11 8.2c-2.5 1.2-3.8.5-5-2.6q-3-8.7-8.8-20.4-1-2.3-.4-4.7l.7-2.6.3-1 .3-1.3q.9-2.5 2.2-3.1t3 .3a65 65 0 0 1 19.7 19.7m-9.3 2.2-4.4-4.7-.6-.6 2.8 6.8z"/><path fill="#00493d" d="M750.4 410.3c.8-7.5 1.2-18.2 1.2-22 2-.6 5.9-2.2 7.4-2.8 2 4.2 6.7 15.3 8.7 20.6a52 52 0 0 1-17.3 4.2"/><path fill="#fff" d="M746.5 409.6a213 213 0 0 0 1.1-21.2c.2-3.1 1-4.6 3.2-5.4l4.9-1.8 2.4-1c2-.5 3.1 0 4.3 2.3q5 10.8 8.8 21 .9 2.5.5 4.2a6 6 0 0 1-3 3.6q-13.4 4.9-18.6 4.4-3.6-.4-3.6-5.3zm8.4-5q2.8-.6 7-2l-4.6-10.8-1.8.7z"/><path fill="#00493d" d="M736.7 384.6c2-1 4.6-3.2 6.6-5.3 1.6 1.6 4.7 5.3 6 7.4-.1 4.9-1.2 18.8-1.6 23.7a21 21 0 0 1-11-3.2c.3-8 .7-17.2 0-22.6"/><path fill="#fff" d="M735.2 379.6q3-1.6 5.7-4.5c1.7-1.7 3-1.8 4.8-.2q4.5 4.7 6.7 8.6.7 1.4.8 3.2 0 4.6-1.5 22.9l-.1 1.3c-.4 3.3-1.5 4.6-4 4.8q-7.8 0-12.9-3.9-2-1.7-2-5 .8-16.2 0-21.1c-.2-3.1.4-4.8 2.5-6m5.7 8.2q.3 5.8-.1 15.9 1.4.6 3.4 1l1-16.2-2-2.6z"/><path fill="#00493d" d="M717 390.8c.3-1.1.8-4.8.8-6.4 3.5-2.7 10.7-5 16.9-.8.3 5.4 0 18.7-.4 22a91 91 0 0 0-17.3-14.8"/><path fill="#fff" d="M717 396.4h-.8q-1.4-.5-2.5-2.7a7 7 0 0 1-.5-4.6l.4-1.3.3-3.6q0-2.9 1.8-4.5 3.8-2.9 9-3.7c4.7-.5 8.3.4 11.8 2.8q1.9 1.4 2.1 4.2a156 156 0 0 1-.4 23.5q-.4 2.7-1.5 3.7-1.1 1.1-3 .7-1-.2-1.8-1.1a82 82 0 0 0-15-13.4m5-8.6a80 80 0 0 1 9 7.6v-8.2q-2.3-.9-5.3-.5-2.1.3-3.8 1"/><path d="M697.4 380.4c-.7-.3-1.3-3-2.8-3.4-.5 0-1.5.4-2-.1q.1 1.7.8 2.7c.6 1.5 2.2.8 4 .8"/><path fill="#fff" d="M697.4 384.1q.7 0 2.1-2.8c1.8-3.4 3.2-4.9 5-5.4l1.4 10.7q.6-.1 1-.6l-.8 1.5c-2.7 5.2-5.3 7.3-8.7 7.4z"/><path fill="#fff" d="M701.7 385.3q-.9-.6-1.2-.2.5-.5 1.8-2.7c2.8-4.5 5-6 7.4-5.8l-1.1 10.6q.7.1 1.3-.1l-1.4 2.2a29 29 0 0 1-3.2 4.5c-2.4 2.3-4.3 2.6-6.8 1.2zm-8.7-14.8h-.7.1c3-1.4 5-.7 7.3 2.4v10.8a7 7 0 0 1-5-2.8q-.9.3-1.7.3z"/><path fill="#fff" d="M702.2 387.3q-1.8 3.5-4.3 5.3c-2.6 1.6-4.4 1.7-6.6.3l3.5-9.4q-.6-.4-1-.4l.3-.1q.8-.6 1.5-2zm-7.8-12.3-1 2-.6 1.3-6.6-6.4.5-1q1.8-3.6 3.4-5zm-2.1 3.5v2.7l-8-.5V378z"/><path d="M730.4 371.7c-8.4-8.7-18-16.8-27.1-19A366 366 0 0 1 730 382z"/><path fill="#fff" d="m729.2 373.7 3.6 4.4-5.6 7.6a218 218 0 0 0-12.4-14.5 210 210 0 0 0-13.6-14q-2.1-2-1.9-5.3c.6-3.7 1.7-4.9 4.5-4.5q12.5 3 29 20z"/><path d="M735 363.7c-9.8-9.3-21-19.4-32.1-21.2 8.2 6.4 20.3 20.5 27 31.9z"/><path fill="#fff" d="m732.9 368.1-4.2-3.9 4.3 6.8-6 6.7a130 130 0 0 0-26-30.5q-2.2-1.8-2-5.3 0-2.7 1.1-3.8t3-1q8.1 1.4 18.1 8.4 6 4.5 16.1 13.8z"/><path d="M747.7 348.6a115 115 0 0 1 19.2-36.4c-3.9 11.5-8.3 34.6-10.2 43.8z"/><path fill="#fff" d="M744 346.5q6.9-20.2 20.2-38c2-2.6 3.6-2.6 5.6-.1 1.2 1.9 1.4 3.6.7 6q-3 8.8-8.6 36l-1.4 7-7.6-2.8 1.4-6.8 2-9.9q-2.9 6.3-5 12.9z"/><path d="M756.3 345.8c4-12 9.8-22 20-29.2a144 144 0 0 0-14.9 39.8z"/><path fill="#fff" d="M752.7 343.7a60 60 0 0 1 22-31.9q1.9-1.2 3-.6 1.4.6 2.2 3c.7 2.3.5 4-.8 6a88 88 0 0 0-8 17.1q-4.4 12.3-5.9 20.2l-7.6-2.2q.6-3.6 1.7-7.7z"/><path d="M759.8 356.5a92 92 0 0 1 31-37 333 333 0 0 0-27.8 49.2z"/><path fill="#fff" d="M756.6 353.4a95 95 0 0 1 32.8-38.8c2.6-1.4 4-.7 5.1 2.6q1 3.3-.8 5.8a366 366 0 0 0-27.2 48l-7-4.6q1.1-3 3.1-7.3z"/><path d="M765.3 368c7.3-5.6 21-14.6 31.5-13a151 151 0 0 0-33.4 27.6z"/><path fill="#fff" d="M763.4 363.5a89 89 0 0 1 15.3-9.8q11-5.5 18.8-4 2 .2 2.7 1.8.8 1.5.4 4.1-.4 3-2.4 4.3-6.6 4-15.6 10.9a95 95 0 0 0-16.5 15.6l-5.4-7.6q2.5-3.3 6.2-7z"/><path d="M763.8 364.4a106 106 0 0 1 31.8-31.9c-9.5 13.2-29.5 42-32.2 46.4z"/><path fill="#fff" d="M761 360.8c11-16.2 22-27 33.4-33.3 2.6-1.2 4-.4 5 3q.6 3.1-1 5.7l-18.6 26.5-13.5 19.6-5.9-6.9 5.6-8.2z"/><path d="M745 358.9c-5-20-11.9-38.3-22.5-44.7 6 12 13.3 29.1 17.3 54.9z"/><path fill="#fff" d="m742.3 360 1.4 8-7.8 2.2a184 184 0 0 0-16.6-53 7 7 0 0 1-.4-5.2q1.5-4.8 5-2.8c10.3 6 18.4 21.7 24.7 48z"/><path d="M735.9 358.3c-8-13-18.4-25.7-30.7-29.1 8.3 7 21.8 25.8 27.1 44.1z"/><path fill="#fff" d="m732.8 361.8-.6-1q2.3 5.3 3.8 10.6l-7.4 3.8q-3.3-11.7-11.6-24.7-7.5-11.5-13.7-16.7c-1.6-1.5-2.2-3-2-5.6.6-3.7 1.8-4.8 4.5-4.3q16.8 4.5 33 31z"/><path d="M740.2 357.8c-10-24.1-17.2-28.6-21.6-33.5 3.5 9.2 12.2 33.5 17.3 43.7z"/><path fill="#fff" d="m737 360.3 2.1 4.7-6.5 6q-4-8-14.3-35.8l-3.2-8.5a7 7 0 0 1 .4-6c1.9-2.6 3.3-2.8 5.6-.5l2.2 2.3q5.3 5.4 8.8 10.3 6 8.6 11.5 22.4z"/><path fill="#fff" d="M722.5 351.4a60 60 0 0 1 15.6 21l-6.9 5.1q-1.5-3.5-5.4-9a52 52 0 0 0-7.2-8z"/><path d="M720.5 367.3c2.4 2.6 6.7 6 10.6 10.9z"/><path fill="#fff" d="m723 363.2 3.3 3.2q4.9 4.6 7.5 7.8l-5.3 8q-2.2-2.8-6.6-7l-3.9-3.9z"/><path d="M767.3 375c4-4.4 12.6-11.7 16.9-14.3z"/><path fill="#fff" d="M764.9 370.9a95 95 0 0 1 18-15.2l2.7 10q-3 1.5-8 6a87 87 0 0 0-7.8 7.4z"/><path d="M764.6 371.3c4-7 11.7-17 14.5-20.5z"/><path fill="#fff" d="M761.4 368.2q5-9 15.1-21.3l5.2 7.9a147 147 0 0 0-14 19.7z"/><path d="M775.6 337.6a379 379 0 0 0-15 25.8z"/><path fill="#fff" d="M778.5 341a270 270 0 0 0-14.6 25.3l-6.5-5.8a279 279 0 0 1 15.2-26.4z"/><path d="M765.3 333.2c-2.7 5-8.2 19-9.8 23.9z"/><path fill="#fff" d="M768.5 336.4q-1.7 3-5 11.3-3 7.5-4.4 11.5L752 355a211 211 0 0 1 10.3-25z"/><path d="m734.3 334.7 8.3 29z"/><path fill="#fff" d="m738 332.8 4.3 15.1 4 14-7.4 3.6-4-13.6-4.3-15.3z"/><path d="M730.8 343.8a98 98 0 0 1 5.9 16.1z"/><path fill="#fff" d="M734 340.9q4.6 9.4 6.4 17.5l-7.5 3a71 71 0 0 0-5.4-14.6z"/><path d="M744.1 341.2c.2-5.2 2.3-9.8 4.7-10.3 2.9.5 4.6 6 4.8 10.1-.3 4.6-2.3 7.8-4.8 8.2-2.5-.3-4.4-3-4.7-8"/><path fill="#fff" d="M740.2 341.2q0-5.3 2-9.8c2-4 3.9-5.6 6.6-5.9 3 .2 5 2 6.9 6.4q1.7 4.5 1.8 9 0 5.1-2.4 9.1c-1.9 3-3.7 4.4-6.3 4.5s-4.3-1.2-6.2-4a19 19 0 0 1-2.4-9.3m7.9 0q0 1.5.5 2.3l.2.2.2-.4q.6-1 .6-2.2 0-1.7-.8-3.8-.7 1.8-.7 3.8"/><path d="M739 345.5c.6-5.7 3-9.3 5.5-9.2 2.4 1 3.4 6.6 3.2 10.7-.7 4.6-3 7.2-5.2 7-2-.3-3.7-3.4-3.5-8.5"/><path fill="#fff" d="M735.1 345v-.1q.5-5.6 3-9.7c2.2-3.4 4.2-4.6 7-4.2 2.8.8 4.4 3 5.7 7.7q1.2 4.6.7 9-.4 5-3.1 8.5c-2.1 2.6-3.9 3.5-6.2 3.2-2.5-.3-4-1.8-5.7-5a21 21 0 0 1-1.4-9.5m7.8 1.1q0 1.4.2 2.3.6-.9.7-2l-.2-3.3q-.6 1.4-.7 3"/><path d="M749.6 347c-.6-5.2.8-9.8 3.2-10.8 2.5 0 4.5 4.4 5 9 .6 4.7-1 8.2-3 8.7-2.3.3-4.5-1.9-5.2-6.9"/><path fill="#fff" d="M745.7 348q-.6-5.2.7-10c1.3-4.2 3-6.2 5.7-7 3-.6 5 .8 7.2 4.7q1.9 3.8 2.5 8.4.6 5-1 9.5c-1.5 3.6-3.2 5.2-5.7 5.6-2.3.4-4-.3-6.2-2.7q-2.5-3.3-3.2-8.6m7.8-2.1v.5q.2 1.2.5 1.9.1-.7 0-1.6v-.6l-.6-2.7z"/><path d="M743.7 351.4c.2-5.7 2.3-9.9 4.7-10.3 2.9.5 4.6 5.5 4.8 10.1-.3 4.6-2.3 7.8-4.8 8.2-2.5-.3-4.4-3-4.7-8"/><path fill="#fff" d="M739.8 351.4q0-5.6 2-10c2-3.9 3.9-5.4 6.6-5.7 3 .2 5 2 6.9 6.1q1.7 4.4 1.8 9.4a19 19 0 0 1-2.4 9c-1.9 3-3.7 4.4-6.3 4.5q-3.5.1-6.2-4a19 19 0 0 1-2.4-9.3m7.9 0q0 1.4.5 2.3l.2.2.2-.4q.6-.9.6-2.2 0-2-.8-4-.7 1.8-.7 4"/><path d="M736.7 354c.2-5 2.6-9.7 5-10.1 2.5.5 4.6 6 4.8 10.1-.3 4.6-2.6 7.7-4.7 8.1-2.6-.3-4.9-3-5.1-8"/><path fill="#fff" d="M732.7 354q0-5.2 2.4-10c2-3.8 4-5.3 6.7-5.5 2.7.2 4.6 2 6.6 6.3q2 4.7 2 9.2a18 18 0 0 1-2.6 9.1c-2 3-3.7 4.2-6 4.4q-3.6-.1-6.3-4a17 17 0 0 1-2.8-9.5m7.9 0q0 1.4.6 2.2l.3.4.4-.4q.6-1.1.6-2.2 0-1.5-.9-3.8-1 1.9-1 3.8"/><path d="M751.2 351.8c.2-5.2 2.2-9.8 4.7-10.3 2.9.5 4.6 6 4.7 10.1-.2 4.6-2.2 7.8-4.7 8.2-2.5-.3-4.5-3-4.7-8"/><path fill="#fff" d="M747.3 351.9q0-5.3 2-9.8c2-4 3.8-5.7 6.6-6 3 .2 5 2 6.8 6.3q1.8 4.5 1.9 9a19 19 0 0 1-2.4 9.2c-2 3-3.7 4.3-6.3 4.6-2.6-.1-4.3-1.3-6.2-4a18 18 0 0 1-2.4-9.3m7.8-.2q0 1.5.6 2.4l.1.2.3-.4q.6-.9.6-2.2 0-1.7-.8-3.8a11 11 0 0 0-.8 3.8"/><path d="M749.6 356.1c.2-5.6 2.6-9.8 5.1-10.3 2.5.5 4.5 5.5 4.7 10.1-.2 4.6-2.2 7.8-4.7 8.2-2.5-.3-4.8-3-5-8"/><path fill="#fff" d="M745.7 356.2q0-5.7 2.4-10.3c2-3.7 4-5.2 6.6-5.4 2.8.1 4.7 1.8 6.6 5.9q2 4.6 2 9.4 0 5-2.3 9.1c-1.9 3-3.7 4.4-6.3 4.6-2.5-.1-4.3-1.2-6.3-3.8a17 17 0 0 1-2.7-9.5m7.9-.1q0 1.3.5 2l.5.6.3-.4q.6-1 .6-2.3 0-1.8-.9-3.9v-.1h-.1q-1 2-1 4"/><path d="M743.3 361c.2-5.6 2.3-9.8 4.8-10.2 2.8.5 4.5 6 4.7 10.1-.3 4.6-2.2 7.7-4.7 8.1-2.6-.3-4.5-3-4.8-8"/><path fill="#fff" d="M739.4 361q0-5.5 2.1-10c2-3.8 3.8-5.4 6.6-5.6 3 .2 4.9 2 6.8 6.4q1.7 4.5 1.8 9 0 5-2.4 9.1c-1.9 3-3.7 4.3-6.3 4.5-2.5-.1-4.3-1.3-6.2-4a18 18 0 0 1-2.4-9.4m7.9 0q0 1.4.5 2.3l.2.3.2-.4q.6-1 .6-2.2 0-1.8-.8-4-.7 1.8-.7 4"/><path d="M733.5 361c.2-5.7 1.9-9.8 4-10.2 2 .6 3.3 6 3.5 10.2-.2 4.6-1.9 7.7-3.6 8-2-.3-3.7-3-3.9-8"/><path fill="#fff" d="M729.6 361q0-5.3 1.7-9.7c1.7-4 3.4-5.6 6.1-5.8 2.8.2 4.6 2.1 6.2 7q1.2 4.3 1.3 8.5 0 4.7-1.8 8.5c-1.7 3.4-3.3 4.8-5.7 5-2.5-.2-4.1-1.5-5.9-4.5a21 21 0 0 1-2-9"/><path d="M755.5 359.8c.2-5.2 1.9-9.3 4-9.8 2 .5 3.7 5.4 3.9 9.6-.3 5-2.2 7.7-4 8.1-2-.2-3.7-2.8-3.9-8"/><path fill="#fff" d="M751.6 359.9q0-5 1.7-9.3c1.8-4 3.5-5.7 6.2-6 2.6.2 4.4 1.9 6.1 6.2q1.7 4.4 1.7 8.6c0 3.6-.7 6.4-2.2 9.2q-2.4 4.4-5.6 4.5c-2.6 0-4.2-1.3-6-4.3a21 21 0 0 1-2-9"/><path d="M757.9 368.9c1-5.7 3-9.4 4.7-9.3 1.5 1 1.9 6.5 1.2 10.7-.7 5-2.6 7.3-4.3 7.1-1.6-.9-2.3-4-1.6-8.5"/><path fill="#fff" d="M754 367.8q.9-5 2.7-8.8c2.3-4 4.1-5.3 6.8-4.7 2.6 1 3.9 3.5 4.5 8.6a32 32 0 0 1-3 16.5c-2.2 3-4 3.8-6.5 3.2-2.4-.9-3.7-2.8-4.5-6.6q-.7-3.8 0-8.2"/><path d="M750.4 367.4c.6-5.2 2.6-9.3 4.7-9.2 2.4.5 3.4 6 3.2 10.1q-1 7.8-4.3 7.6c-2.1-.3-3.8-3.4-3.6-8.5"/><path fill="#fff" d="M746.5 366.8q.4-5 2.4-9c2.1-3.9 4-5.2 6.6-5 2.9.4 4.6 2.4 6 7.1q1.1 4.5.7 9a22 22 0 0 1-2.4 8.5c-2 3-3.7 4.2-6.2 3.9s-4-1.7-5.7-5a21 21 0 0 1-1.4-9.5m7.8 1.1v.5-.8l.1-.5z"/><path d="M739.4 369c-1.4-5.6-3.4-8.7-5.1-8.5-1.5 1-1.9 6.5-1.2 10.7 1 4.5 3 6.7 4.7 6.5 1.2-.9 2.3-4 1.6-8.6"/><path fill="#fff" d="M743.2 367.5v.3q.8 4.4 0 8.5c-1 3.5-2.2 5.4-4.1 6.5h-.3c-2.4.7-4.1 0-6.3-2.7q-2.2-3-3.2-7.5-.7-4.1-.4-8.7c.6-5.1 1.9-7.6 4.4-8.6 2.6-.7 4.5.4 6.7 3.8q2 3.4 3.2 8.4"/><path d="M736.7 368c.1-5.1 1.8-9.2 3.9-9.7 2.4.5 3.8 5.6 4 9.7-.3 5-2 7.7-4 8-1.7-.3-3.7-3-4-8"/><path fill="#fff" d="M732.7 368q0-5 1.7-9.3c1.8-4 3.5-5.5 6.2-5.7 2.9.2 4.7 2 6.4 6.4a28 28 0 0 1 1.5 8.6q-.1 5.1-2 9c-1.7 3-3.4 4.3-6 4.4-2.2-.1-3.8-1.3-5.6-4.3a20 20 0 0 1-2.2-9.1"/><path d="M742.6 370.2c.1-5.7 2.2-9.9 4.7-10.3 2.8.5 4.5 5.5 4.7 10.1-.2 4.6-2.2 7.8-4.7 8.2-2.5-.3-4.5-3-4.7-8"/><path fill="#fff" d="M738.6 370.2q0-5.6 2.1-10c2-3.9 3.8-5.4 6.6-5.7 3 .2 4.9 2 6.8 6.2q1.8 4.4 1.8 9.3a19 19 0 0 1-2.3 9c-2 3-3.8 4.4-6.3 4.5-2.6 0-4.4-1.2-6.3-4a19 19 0 0 1-2.4-9.3m7.9 0q0 1.4.5 2.3l.2.2.3-.4q.5-.9.5-2.2 0-2-.7-4-.8 1.8-.8 4"/><path d="M744.5 311c-1 4.5-3.3 8-1.6 14-3.7-1.5-6.4-2-9.4 2.2q5.6-.6 8.3 4.3c-3.3-.3-4.6 1.5-5.5 4.3 2.8-1.1 5.3-2 6.6-1.6-1.2 1.7-3 4.3-3.5 6.4 2.5-2.5 5-2.3 6.7-3.8-1 4 1 7.4 3.1 11.3-.2-5.5 1.7-9 .8-11.8 3.5 1.3 4 4.9 9 5.1-1.9-1.9-3.2-6.3-5.5-6.8 1.5-.6 5.6-1 6.7-.2-1-2.2-3.3-4-5-4.1 1.5-2.3 4.3-6.4 6.2-7.7-3 .6-6.7 1.3-8.6 4.5 3.7-4.7 3.3-12 7.4-13.6q-4-.3-8.6 5.6c1-3.5 1.4-7.3 2.7-8.7a22 22 0 0 0-7.8 9.3 28 28 0 0 0-2-8.6"/><path fill="#fff" d="M740.7 309.8q.4-2 1.6-3.2c2.4-1.9 3.9-1.5 5.5 1.5l.4 1q2.7-3 5.2-3.9c2.2-.6 3.4.1 4.5 2.7v.3q1.5-.3 3 0 2.7.6 3.2 4.2.5 3.4-1 5.1 1.3.7 2 3 .6 2.5.2 4.2-.7 1.7-2.4 2.8l-1 1.1q1.2 1.5 1.9 3.3a7 7 0 0 1-1.2 6.9q.4 1 .4 2.5c-.1 3.8-1.2 5.2-4 5.5q-3 0-5.7-1.8-.2 1.5-.1 2.5.1 3-1.7 5c-2.3 2-3.8 1.7-5.5-1.3l-.5-1a44 44 0 0 1-2.8-6l-.8.6q-1.5 1.6-3.4 1-3.1-1-3.1-4.8l-.6-.2c-2.5-1.6-3-3.5-2.2-7l.4-1.3q-1.1-.1-2-1.3a7 7 0 0 1-1.6-3.7 7 7 0 0 1 1.2-3.9c2.3-3.3 4.6-4.8 8-5q.3-3 1.3-6zm8.6 13.7a4 4 0 0 1-1.8 1.7h-.5a5 5 0 0 1-1.6 4.1l.2.7q.6.5.9 1.2h.2q.6 0 1.2.6v-.1q1-.8 2-.8-1-1.2-1.2-2.6-.4-1.9.8-4.1l.1-.3z"/><path d="M746.5 319.7c0 1.6-.1 4.7-.4 5.9z"/><path fill="#fff" d="M750.4 319.6q0 6.1-.8 8.3l-7-4.7-.2.4.1-1v-3z"/><path d="M751.6 319c-.8 1.3-2.2 4.8-2.4 8.2z"/><path fill="#fff" d="M754.4 322.8a8 8 0 0 0-1.2 4.3h-8q.2-6.9 3.6-11.8z"/><path fill="#fff" d="M756.1 329.9q-1 .9-1 1.7l-7.7-2.5a15 15 0 0 1 4.4-8z"/><path fill="#fcea83" d="M626.6 685.3c2.7 9 19 21.7 39 9.1 13.3-9.3 21.8-23 30.2-48.4 2.4-6.6 3.4-14-2-19.5-4.4-4.4-11.3-9.8-14.5-14.3l-4.3-5.6 2.3 3.9c7.6 13.7-.3 31.4-9 42.3-6.5 7.9-17.4 26-34.2 6-4-4.4-11.5 11.8-7.5 26.5"/><path d="M626 685.5q-3-10.3.9-21 1.5-4.4 3.6-6.3c1.7-1.5 2.7-1.5 4 0 6.5 7.9 12.3 10.4 18.6 8.1a38 38 0 0 0 12.8-11.7l2-2.5a57 57 0 0 0 10.5-19.7c2.4-8.6 1.9-15.3-1.5-21.4q-.8-1.7-2.4-3.9l.9-1 1.8 2.3 2.5 3.3q1.8 2.6 8.5 8.6l6 5.6c4.8 4.8 5.5 11 2.1 20.4a146 146 0 0 1-13.3 30.5 63 63 0 0 1-17.2 18.4c-9.1 5.8-17.5 7-26.3 3.6a28 28 0 0 1-8.9-6 18 18 0 0 1-4.5-7.3zm1.2-.4q1 3.2 4 6.5 3.6 3.6 8.5 5.6c8.5 3.3 16.7 2.2 25.6-3.5a61 61 0 0 0 16.8-18q6.9-11.2 13.2-30v-.1c3-8.5 2.4-14.2-1.8-18.4q-1.6-1.8-6-5.5a85 85 0 0 1-8-8c2 5.7 2 11.8 0 19.3q-3.2 10.9-10.8 20.4l-2 2.4a39 39 0 0 1-13.2 12c-6.7 2.5-12.9-.1-19.8-8.5q-1-1.2-2.5.3-1.7 1.8-3.3 5.6c-2.3 6.8-2.6 13-.8 19.6z"/><path fill="#fcea83" d="M865.6 680a26.4 26.4 0 0 1-39 12c-13.3-8.6-21.9-22-30.6-47.1-2-6.6-3-14 2.4-19.6 4.3-4.6 11.2-10.2 14.5-14.8l4.3-5.9-2.4 4c-7.6 14.1.4 31.4 8.7 42 6.5 7.5 17.8 25.1 34.6 3.6 4-4.7 11 10.8 7.5 25.8"/><path d="M866 680.3q-1.1 3.8-4.7 7.8-3.9 4.1-8.9 6.6a26 26 0 0 1-26-2 58 58 0 0 1-17.3-17.5q-7-11-13.6-30c-2.9-9.5-2-15.8 2.5-20.5l6-5.8a71 71 0 0 0 12.9-14.9l.7 1.2-2.3 3.9c-3.4 6.2-3.9 13-1.6 21.5a56 56 0 0 0 10.2 19.3l1.8 2.2q7.7 9.2 13 11c6.5 2 12.4-1 19-9.5q1.6-2.2 4-.3 1.9 1.8 3.5 6a35 35 0 0 1 .9 21zm-1-.5a33 33 0 0 0-1-19.6q-1.5-3.9-3-5.5-1.6-1.3-2.5 0c-7 9-13.2 12.1-20.2 10q-5.4-2-13.4-11.3l-1.8-2.2q-7.4-9.3-10.5-20-3-10.8 0-19.3-2.2 3-8 8.3l-5.9 5.8c-4 4.2-4.7 9.8-2.2 18.5q6.6 18.8 13.5 29.6 7 11 17 17.2a25 25 0 0 0 25.2 1.9q4.8-2.5 8.5-6.3 3.2-3.7 4.3-7z"/><path fill="#fcea83" d="M746 738.3c32-.4 79.3-23.2 105.8-96.4 4.1-12.2.1-17-5.1-20-5.5-2.5-12-8.7-15.7-13.1 6.2 7.8 5 13.5.8 24-20.3 48.6-47.5 74.4-85.7 75-38.2 0-65.5-25-85.7-72.3-4.3-10.2-5.4-15.9.4-24.1a53 53 0 0 1-15.7 14c-5.2 3.5-9.2 8.6-5.1 20.5 26.4 70.8 74.3 92.6 106 92.4"/><path d="M690.7 719.5q-33.5-25.1-51.2-73.3c-3.5-10-1.9-16.6 5.3-21.4q3.9-2 8.7-6.3 4-3.8 6.4-7l.5-.7.9 1.1-.5.7a18 18 0 0 0-3.4 10.1q.2 4.4 3.5 12.4c20.2 47.3 48.3 72 85.2 71.8 37-.5 65-26 85.1-74.4q3.4-8.3 3.5-12.6 0-5.2-4.2-10.5l.9-1.3a44 44 0 0 0 15.5 13c7.2 4.3 9 10.8 5.4 21-11.9 33-28.8 58.7-51 76.2A91 91 0 0 1 746 739a91 91 0 0 1-55.4-19.6m55.4 18c19.1-.3 37-7 54.6-20.6q33-26.1 50.6-75.3c3.1-9.2 1.6-15-4.9-19a38 38 0 0 1-11.4-8.2q1 2.6 1 5.3-.3 4.8-3.7 13.4c-20.5 49.1-48.9 74.9-86.2 75.4-37.4.2-65.8-24.8-86.2-72.6q-3.5-8.5-3.7-13.2 0-3 .9-5.7l-3 2.8q-4.8 4.4-8.8 6.4c-6.4 4.4-8 10.4-4.8 19.4q17.6 47.7 50.7 72.5a90 90 0 0 0 54.9 19.4"/><path fill="#db161c" d="M673.4 645.1c-1.2-5.4-5.5-3.7-7.5 2.7q-3-5.8-5.5-12.3c-4.7-10.3-5.4-16.4 1.2-25.1 3.4-4.2 9-8.1 13.7-2.7 8.9 11.1 4.4 26.8-2 37.4"/><path d="M672.8 645.2q-.3-1.5-1-2.2-.7-.5-1.7-.2-2.5 1-3.6 5.2l-.4 1.5-.7-1.3a129 129 0 0 1-5.5-12.4q-3.7-8.2-3.8-13.5.3-6.2 5-12.5 3.2-3.9 6.7-5.2c3.4-1 5.6-.3 8 2.5a25 25 0 0 1 4.9 19.7 49 49 0 0 1-6.9 18.8l-.7 1.3zm.8-1.8a47 47 0 0 0 6-17c.7-7.5-.7-13.2-4.6-18.1-2-2.4-3.9-3-6.8-2.1q-3.3 1.2-6.2 4.8-4.5 5.9-4.7 11.4a33 33 0 0 0 3.6 12.7q1.5 4 4.9 11c1-2.7 2.1-4 4-4.9q1.4-.5 2.6.4.8.7 1.2 1.8"/><path fill="#db161c" d="M818.4 643.1c1.2-5.4 6-4 7.9 2.3q3-5.8 5.5-12.6c4.7-10.5 5.4-16.7-1.6-25-3-4-8.7-7.7-13.8-2-8.4 11.5-4.4 27 2 37.3"/><path d="m818.7 645-.8-1.3a46 46 0 0 1-6.7-18.6c-.8-8 .7-14.3 4.8-19.9 2.6-2.9 4.9-3.7 8.2-2.9q3.7 1.3 6.4 4.9a20 20 0 0 1 5.4 12.1q0 5.4-3.7 13.8-1.7 4.5-5.6 12.7l-.6 1.4-.4-1.5q-1.2-4.3-3.8-5-1.1-.3-1.9.3t-1 2.2zm-.5-3.5q.4-1.2 1.3-1.9a3 3 0 0 1 2.7-.5q2.8.9 4.2 4.6 3.5-7.1 4.8-11.2 3.7-8 3.6-13-.2-5.4-5-11v-.1a12 12 0 0 0-6-4.5c-2.8-.7-4.8 0-7 2.5a25 25 0 0 0-4.4 18.3 44 44 0 0 0 5.8 16.8"/><path fill="#db161c" d="M626.6 685.3c-3.8-8.6-7-29.7-7.8-35.3-1.2-5.2-1.5-9 2.7-11 4.5-1.1 8 6 10.2 13l8.7 28.8c-9-7.6-15.4-4-13.8 4.5"/><path d="M626.1 685.7q-4-8.9-8-35.5c-1.4-6.8-.4-10.2 3.2-11.9 2.4-.7 4.2.3 6.6 3.6q2.5 3.8 4.4 9.9l2.6 8.7 6 20 .7 2.4-1.5-1.4c-4.3-3.7-7.3-4.7-10.4-3.7-2.6 1.3-3.3 3.3-2.5 7.3zm-.4-4.5q.4-3.6 3.6-5c3-1 6-.2 9.9 2.7l-5.4-18-2.6-8.6a38 38 0 0 0-4.1-9.3c-2-2.8-3.5-3.7-5.4-3.1q-2.6 1-3 3.6-.3 2.2.6 6.3v.1a205 205 0 0 0 6.4 31.3"/><path fill="#db161c" d="M865.6 680c3.4-8.8 6.7-30.3 7.8-36 .8-5.3 1.5-9.1-2.7-10.7-4.6-.7-8.1 6.8-10.3 14l-8.6 29.5c9-8.4 15-5.3 13.8 3.3"/><path d="m866 680.4-1-.4c.6-4.1-.1-6-2.7-7.1-3-.8-6 .5-10.2 4.5l-1.5 1.5.6-2.3 6-20.6 2.7-9q1.9-6.1 4.3-10.2c2.4-3.5 4.3-4.7 6.7-4.3q3 1 3.6 4.4.3 2-.5 6.9v.3l-1.2 6.4q-4 23-6.8 29.9m.3-4.6a286 286 0 0 0 5.4-25.5l1.1-6.3v-.3q.8-4.5.6-6.3-.5-2.5-3-3.3-2.5-.6-5.3 3.7-2.4 3.7-4.1 9.7l-2.6 8.9-5.4 18.4c3.9-3.3 6.7-4.3 9.7-3.5 2.2.8 3.2 2 3.6 4.5"/><path fill="#00493d" d="m649.4 639.3-3.1 1.9q-1 1-.8 2h-.4l-1.6-5h.4c0 .6.4 1.1 1.2.7l6.7-4.2q1-.7.4-1.6l.4-.5 2 5.6h-.5q-.5-1.2-1.5-.7l-2.8 1.9 1.2 3.3 3.1-1.3c.8-.6.5-1.5.4-2.1h.4l1.6 5q-.5-1.1-1.6-.7l-6.7 4.2q-1 .7-.4 1.6l-.4.5-2-5 .5-.5q.5 1 1.5.7l3.2-1.9zm6.7 7.6q1.1-.6.4-2h.4l4 8.3-2.8 2.5v-.6c1.5-1.6 1.5-3.4 1.1-4.2q-.6-.7-.8-1.6c-.3-.1-.3-.5-1.1.4l-2.8 2.4c.4.7.7 2.1 2.8.8h.4l-4.4 4v-.6c2-2.1 1.3-3.5.8-4.2l-2.7 2.4q-1 .7-.8 1.6.4.1.8 1.1c.5 1.2 1.4 2.2 3.5 1.4l.4.6-3.1 1.3-4-9 .4.1q.6 1 1.6.7zm6.3 21-2.8 3q-.4 1 0 2h-.4l-2.7-4 .4-.4c.4.6.7 1 1.6 0l5-6.4c.8-.6.8-1 .5-2.2l2.7 4.6q-.8-1-1.6-.2l-2.3 3 2 2.9 2.3-2.5c.7-1 .4-1.5 0-2.1l.4-.5 2.7 4.5h-.4c-.4-.2-.7-.6-1.5.3l-5.1 6q-1.1 1.5-.4 2.2v.5l-2.8-4.5c.5 0 1.1.6 1.6.1l2.8-3.5zm5.9 11.7 1.2 1.7 1.5-4.7-3.1 1.9zl-.4.5-.8-1.1c-.4.5-.8.5-1.2 1-1.1 1-.8 1.5-.4 2v.6l-2-2.8h.5l1.5-.4 6.2-4.2 1.7-1.1.4.6s-.4.5-4 11c0 1-.3 1.5 0 2.6l-3-4 .3-.5q.7 1.7 1.6.1l.4-2-1.2-1.8zm3.1 11 .4-.5q.5.8 1.6 0l5-8.7-.3-.5c-.9-.6-1.8-.7-3.1.8v-.5l1.5-2.6 6 6.3-2 3.1h-.4c1-1.7.8-3.5 0-4.3v-.6L675 692c-.8.6-.5 1.5 0 2.2h-.4z"/><path fill="#00493d" d="m681.6 693.5-2 3.6q-.4 1.4.5 2.2l-.4.5-3.2-3.5v-.5q1.1 1 1.6-.4l4.3-7.8q.4-1.4-.4-2.2l.4-.5 3.2 3.4v.6q-1.2-1-1.6.4l-2 3.6 2.4 2.3 2-3.6q.3-1.4-.4-2.2l.4-.5 3.1 3.4v.6q-.8-1-1.6.4l-3.9 8.4c-.7.5-.4 1 0 1.6v.5l-3.5-3.4h.4q.6.1 1.1-.5l2-4.2zm7.9 15.5.4-.5q.7.9 1.6-.5l3.1-9q.3-1.4-.4-2.1l6.7 4.6-1.6 4.2-.4-.5a5 5 0 0 0-.4-4.9c-.4 0-.8-.5-1.1-.6s-.4 0-.8 1c-.4.6-1.6 3.7-1.6 3.7.5.7 1 1.6 2.8-.9h.3l-2.3 6.3-.4-.5c1-3.2-.3-3.7-.8-3.8l-1.6 4.2q-.3 1.6.4 1.6v.6zm11.4 8q-1.6-2.1 0-7.5c1-3.3 2.2-5.5 4-4.6 1 .9.7 3.5 0 7q-2 5.7-4 5.2h-.4c3 1.5 4.5-.2 5.9-4.1q1.7-5.4-1.6-8.6c-2.6-1.5-4.5.1-5.9 4q-1.7 6.2 1.6 8.7zm12.2 1.6 1.6-6.4q.3-1.4-.4-2.1l2 .6v.5c-.5 0-.8 0-1.3 1l-1.5 6.4c-1 2.8-1.9 4.6-4.3 3.6-1.7-.8-2.7-3-2-6l2-6.9q.3-1.3-.4-2.1v-.5l3.5 2.2v.6q-.9-1-1.2.5l-2 6.9q-.7 3.5.8 4.8 1.9.8 3.2-3"/><path fill="#00493d" d="M716.6 711.7q.1-.6-.4-.5l2.8.6 2.3 10.3 1.2-6.5q.3-1.4-.4-2.1l2.4.6-.4.5c-.4 0-.8 0-1.2 1l-2 11.8h-.4l-3.1-13-2 8.6c0 1.6.4 1.6.8 2.2v.5l-2.3-1.2v-.5q.8.6 1.1-1l2-9.6z"/><path fill="#00493d" d="M730 722.7c-1 5-2.3 5.8-3.2 5.9h-.8s-.3-.5 0-1l1.2-10.8q.4-1 .8-.5h.8c.8.2 1.5 2 1.2 6.4l1.1.6c.7-5.5-.6-7.3-2.7-8-1.6-.6-4-1.2-4-1.2v.5c.5.5 1.2.6.9 2.2l-1.2 9.6q-.7 1.6-1.2 1.6h-.4l4 1.1c2 .5 3.7.1 4.6-5.8zm3.5-4.2c0-1.1-.7-1.6-1.2-1.6v-.6l7.1 1.1-.4 4.3c-.1-2.8-1-3.6-2-3.7q-.6-.8-1.1-.6c-.4 0-.4 0-.4 1.6l-.4 4.3c.5 0 1.4.5 2.3-2.6l-.3 7h-.4c-.2-3.3-1.1-3.3-1.6-3.3l-.4 4.8c0 1.1 0 1 .4 1.1l.8.5c1.2 0 2.2-.5 3.1-3.7h.4l-.8 4.3-7.4-1.1q1 0 1.5-1.6zm13 6.4c-.1 5-1.1 6.3-2.4 6.5q-.4-.7-.8-.6l-.4-.5.4-11.3q-.1-.6.4-.5h.8c.9.2 1.9 1.5 2 6.4h1.6c-.3-5.5-1.9-6.8-4-7-1.6-.4-3.9-.5-4-.5v.6q1 0 1.3 1.6l-.4 10.2q-.1 1.5-.8 1.6v.5h3.5c2.1-.1 3.8-1 4.4-7zm11.4 4.1c0 1 .3 1 1.2 1v.6l-4.4.6q.9-.6 1.2-2.2l-.8-10.1c-.4-1-.7-1-1.6-1v-.6l4.4-.6c-.5.5-1.1 1-.8 2.1zm3.9 1v-.6q.7 0 .8-1.6l-1.6-11.2h-.4c-.8.6-1.5 1.6-1.2 3.8h-.4l-.3-3.8 7-1.8.4 3.7h-.4c0-2.1-1-2.5-2.3-2.5h-.4l1.6 11.2q0 1.5 1.1 1.6v.5zm16.9-11.5-1.6-6.4c0-1-.7-1-1.2-1v-.5l2-1.2v.6c-.4.5-.4.5-.4 1.6l1.6 6.9c.4 2.4.3 5-2 6.5-1.7.5-3.3-.3-3.9-3.5l-1.6-7c-.4-1-.7-1-1.1-1l-.4-.5 3.9-1.8v.6c-.4.6-.7 1-.4 2.1l1.2 7q.8 3.1 2.7 3 1.7-1.2 1.2-5.4m4.3-4c2-1.3 1.6-2.7 1.2-4.4q-.6-2.6-2-2-.7.1-.4 1.1zl.4.5.8 4.2c.5 1.1 1.1 1 1.6.5v.5l-3.6 2.4-.4-.5q1-.7.8-2.2l-2.7-9c-.5-1.5-.8-1-1.6-1v-.5l4-2.4c1.6-.5 3-.2 3.9 2 .3 2.7-.4 4.1-2 5.4-.4.1-.8.6-.8.6zm9.9 1q-2 .6-4-5.2c-1.1-3.3-1-6 0-7q2-.4 4 4.6 1.5 5.3 0 7.5c2.3-1.6 3-4.8 2-8.7-1.5-3.3-3.4-4.9-6-3.9-2.3 2.1-3 5.3-2 8.8 1.5 3.8 3.4 5.4 6 3.8m.3-15h-.7l2.3-2.3 7 4.7-2.3-5.6c-.4-1-1-1-1.5-1v-.5l2-1.3c-.5.7-.8 1.1 0 2.2l3.9 10.4-.4.5-8.7-5.7 3.2 7.8q.7 1.4 1.5.4v.6l-2 1.8v-.6c.5-.6.5-1 0-2.1l-3-8.4zm17.7 0v-.6c0-.5.4-1 0-2.1l-4.7-8.7h-.4c-.8.9-1 2.7 0 4.4l-.4.5-1.6-3.6 6-6 1.5 3.1c-1.3-1.4-2.2-1.3-3.1-.7l-.4.5 4.7 8.7q.8 1.4 1.6.3v.6zm4.4-13.4 2.3 3.5q.8.7 1.6-.2v.5L816 695v-.5c.4-.6.4-1 0-2.1l-4.7-7.6c-.4-1-.7-.5-1.5-.3l3-4.1v2.7l2 3 2.4-2.5-2-3.5c-.4-1-1-.5-1.5-.4l3.1-4v.5c-.4.6-.4 1 0 2.1l4.7 7.5q.7.7 1.2-.2l.4.5-3.1 4.2-.4-.5q.7-.7.4-2.2l-2.4-3.5zm3.5-11.7q-.8-.7-1.6.2v-.5l5.1-7.1 2.4 2.9h-.4c-1.4-1.8-2.6-.8-3.5 0q-.1.6-.8 1.1l.4 1.6 2.3 3c.5-.8 1.4-1.8 0-4.4h.4l3.1 4.4v.5c-2-2.2-2.6-.8-3 0l2.3 2.8c.4 1 .7 1 .8 1l1.1-1.8c.4-.7.8-2.1 0-5.3h.4l1.6 3.4-5.1 7.7-.4-.5c.4-.6.7-1.1 0-2.1zm9.4-16.2q-.7 1 .4 2c.9 1 1.5 1 3.1-.4 1-.7 2.2-1.3 3.6 0a6 6 0 0 1 .8 5.8l-1.6 1.9q-.5-.1-.4.6v.5l-2.7-2.8h.3c1.8.8 3 1 4-.7.7-1.2 0-2-.4-2.6-.9-1-1.5-.8-2.8.4q-2 1.2-3.9 0c-1.5-2-1.5-3.4-.8-5.2l1.6-1.9c.4 0 .4 0 0-1l2.7 2.3h-.4c-2-.7-3-.1-3.5 1m3.6-4.7q-1.2-.5-1.6.7h-.4l4.3-9.1 2.8 2.2-.4.6c-1.8-1.2-3-.1-3.6.6l-.4 1.6q-.5.3.4 1l2.8 2.3c.4-.7 1-1.6-.4-3.7v-.5l4 3.7c-2.5-1-2.8.3-3.2 1l2.7 2.3q1.2.5 1.2.3.1-.7.8-1.7c.4-1.3.7-2.7-.8-4.7l.4-.6 2 2.9-4 8.7h-.4c.4-1.2.4-1.6-.3-2.6zm10.6-11.3-1.2 2.9q-2.4-3.2-2.4-3.4zl.8-.1c.3 0 1.1.3 1.5.2 1.2.4.8 1 .4 2.1h.4l2-5.2c-.8 1.2-1.2.8-2 .9-8.2-.8-9-1.3-9-1.3v.6l6.3 8.6q.4 1 .4 2.1h.3l1.2-3-.4-.4c-.4 1.2-.7 1.7-1.5.3l-.8-1 1.1-4zm-2.4-11.4q-.8 1 .8 2c1.2.3 1.5-.2 2.7-1.5s2.3-2.4 4-1.8c2.2 1.5 2 3.8 1.5 5.1l-1.1 2.4v1l-3.2-1.6q3.1.3 4-2.2c.2-1.2-.4-2-.8-2.6-.9-.3-1.5.2-2.8 1.6-1.3 1.8-2.2 2.4-4 1.7q-2.4-1.4-1.5-4c0-1.2.7-1.8 1.2-2.4 0-.5 0-.5-.4-1v-.6l3.1 1.7h-.4q-3 .2-3.1 2.2"/><path fill="#fff" d="M715.8 448.7c-5.2 1.5-8.4 1.8-13.3-4.2-3-4.9-2.4-11.5.8-14.5 3.7-3.2 6.5-4.9 11-3.3 4.6 2.2 15.3 15.7 13 16.9-2.8.2-7.1 3.5-11.5 5.1"/><path d="M716 449.5q-4.5 1.2-7 .7c-2.5-.6-4.5-2.2-7-5.2a14 14 0 0 1-2-8.6q.4-5 3-7c4.4-3.8 7.8-4.8 11.4-3.5q3.3 1.5 9.4 9.1 2.5 3.3 3.7 5.5l.7 2.2-.1 1.1a1 1 0 0 1-.8.6q-1.5 0-5.8 2.4a41 41 0 0 1-5.5 2.7m-.3-1.6a40 40 0 0 0 5.4-2.6q4.1-2.4 6-2.5l-.6-1.3q-1.2-2.2-3.5-5.3-5.9-7.4-8.9-8.8c-3.3-1-6.4-.1-10.5 3.3-1.5 1.3-2.2 3-2.5 6-.1 3 .4 5.1 1.8 7.2q3.1 4 6.2 4.7 2.3.5 6.6-.7"/><path fill="#fff" d="M728 423.2c1.7-1.6 3.5-2.5 8.6-3.1 5-.5 8-.6 9.5 4.2 1.6 6 2.9 12.7 5.9 16-2.5 1.7-11.3 3.2-15.3.7-4.5-3.6-6.2-15.3-8.7-17.8"/><path d="M727.7 422.6c1.9-1.8 4.6-2.8 9-3.3a18 18 0 0 1 6.1.1q2.9 1 3.8 4.6l.9 3.4a32 32 0 0 0 4.8 12.3l.7.7-.7.6q-1.9 1.5-7.4 2.1-5.8.5-8.5-1.4-2.9-2-5.9-11.3a21 21 0 0 0-2.8-6.5l-.8-.6zm1.3.7a34 34 0 0 1 2.6 6.5c2 6 3.7 9.2 5.3 10.5 1.7 1.1 4 1.5 8 1.2q4.1-.4 6-1.3-2.3-3.3-4.5-12.2l-.9-3.4q-.7-2.9-3-3.6a17 17 0 0 0-5.8-.1q-5.3.6-7.7 2.4"/><path fill="#fff" d="M761.8 423.5c1.7-1.6 3.4-1.7 8.7-1.4s6.8.7 8.2 5.5c1 5.4.2 12.2 2.4 17-2.8 1.2-9.8 1.5-13-2-4-4.4-4.2-16.3-6.3-19.1"/><path d="M761.5 422.9c1.5-1.3 4-1.8 9-1.6q4.3.3 5.8 1.1 2 1.3 3 5 .4 2.1.7 7 .3 7.1 1.5 9.8l.5.8-.8.4q-2.3 1-6.5.9-5-.5-7-3c-1.7-2-3.2-5.8-4.4-12.5q-1.1-5.7-1.9-6.7l-.6-.6zm1.2.8q.9 2 1.8 6.7 1.6 9.3 4 11.5v.1c1.3 1.5 3.1 2.3 6.3 2.6q3.4.2 5.4-.4-1-3-1.4-9.6-.3-4.6-.7-6.7-.7-3-2.3-4-1.4-.7-5.4-1-5.7-.3-7.7.8"/><path fill="#073163" d="M785.4 425.6c-3.7-.9-5.7-1.2-7.5.4 1.7 3.3.7 15.8 4.3 20.2 3.2 2.4 9.4 2.5 11.4-3.5s2-13.2-8.2-17.1"/><path d="m784.8 424.6.8.2c4.8 1.9 7.6 4.3 9 8.2 1 3.2.8 6.2-.4 10-1 3.2-2.6 4.7-5.8 5.5q-4 .6-6.5-1.6c-1.7-2-2.7-6-3.3-13.3q-.5-5.9-1.1-7l-.4-.7.5-.5c1.4-1.3 3.4-1.5 7.2-.8m.4 1.8q-4.7-1.2-6.5-.1.6 2 1 7c.6 6.8 1.5 10.6 2.9 12.2q2.3 1.9 5.7 1.4c2.7-.7 4-2 4.8-4.4v-.1q1.6-4.8.4-8.6c-1.3-3.5-3.7-5.7-8.3-7.4"/><path fill="#073163" d="M745 421.7c1.3-1.6 3.3-2.1 8.2-2.3 5.2 0 8 .9 9.8 5.1 1.5 5.4 1.4 12.2 4 16.5-1.9 2.2-11.3 2.5-15-.6-4-4-5-15.8-7-18.7"/><path d="M744.5 421c1.4-1.5 3.9-2.2 8.7-2.4 5.6 0 8.6 1.6 10.3 5.5v.1q.7 2.1 1.3 6.8 1 7 2.6 9.5l.3.5-.3.5c-1 1.4-3 2-7.2 2-4.3-.1-6.8-.9-8.6-2.5q-2.5-2.4-5-12-1.3-5.8-2-6.7l-.6-.6zm1.3.8q.9 1.8 2 6.6 2.2 9.3 4.5 11.3t7.9 2.2q4.7 0 6-1a34 34 0 0 1-2.6-9.6q-.6-4.5-1.2-6.4c-1.4-3.3-4-4.6-9.2-4.7q-5.6.1-7.4 1.6"/><path fill="#073163" d="M711.5 426c.3-2.7 2.6-3 9.8-3.5 7.1-.8 7.5-.4 9.9 6.6 1.2 4 2.8 10 5.9 12.4-8.8 2.8-11.3 4.1-16.2.4-3.5-3-7.3-9.2-8.2-12-.4-1.8-.5-3.2-1.2-3.9"/><path d="M711 426q0-2.5 2.6-3.4 1.9-.5 7.7-.9 5.4-.6 7 .5 1.4 1 3.4 6.6l.5 1.6c1.8 5.9 3.4 9 5.1 10.4l1.5 1-1.6.5-3 1a37 37 0 0 1-7.5 1.7q-3 0-6-2.4a28 28 0 0 1-5.4-6.2 28 28 0 0 1-3.2-6.3l-.3-1.5-.4-1.7-.5.2zm1.1-.3q.6.9.9 2.6l.2 1.3q.7 2.1 3 5.7 2.6 4 5 5.9a9 9 0 0 0 5.5 2.2 36 36 0 0 0 7.3-1.7l1.6-.5q-2.2-2.9-4.5-10.2l-.5-1.5q-1.8-5.1-2.8-6-1.4-.8-6.4-.2c-6 .4-8.5 1.1-9.2 2.4"/><path fill="#f9d050" d="M730.4 371.7c-8.4-8.7-18-16.8-27.1-19A366 366 0 0 1 730 382z"/><path d="M730.2 372a65 65 0 0 0-25.7-18.6q4.4 4 12.9 13.4 9.4 10.3 12.8 14.8l-.4.6q-3.3-4.5-12.8-14.9T703.1 353l.2-.6q11.6 2.6 27.2 19z"/><path fill="#f9d050" d="M735 363.7c-9.8-9.3-21-19.4-32.1-21.2 8.2 6.4 20.3 20.5 27 31.9z"/><path d="M735 364a188 188 0 0 0-15.7-13.4q-8.4-6-15.2-7.5 5.8 4.7 13 13.2 8 9.4 13 17.9l-.3.4a135 135 0 0 0-27-31.8v-.7q7.4 1.1 16.7 7.8 6 4.4 15.7 13.5z"/><path fill="#f9d050" d="M747.7 348.6a115 115 0 0 1 19.2-36.4c-3.9 11.5-8.3 34.6-10.2 43.8z"/><path d="M747.4 348.5q6.4-19.4 19.3-36.5l.4.3q-3 9.2-8.7 37l-1.5 6.8-.5-.2 1.5-6.9a433 433 0 0 1 8.2-35.2q-12 16.5-18.2 35z"/><path fill="#f9d050" d="M756.3 345.8c4-12 9.8-22 20-29.2a144 144 0 0 0-14.9 39.8z"/><path d="M756 345.7a56 56 0 0 1 20.2-29.4l.3.6A93 93 0 0 0 768 335q-4.7 12.9-6.2 21.4l-.6-.2q1.6-8.6 6.4-21.5 4.2-11.4 7.7-17a56 56 0 0 0-18.7 28.1z"/><path fill="#f9d050" d="M759.8 356.5a92 92 0 0 1 31-37 333 333 0 0 0-27.8 49.2z"/><path d="M759.6 356.3a91 91 0 0 1 31.2-37.2l.3.6q-7.5 10.8-16.3 26.3-9 15.6-11.6 22.9l-.5-.4q2.7-7.2 11.7-23 8.3-14.5 15.4-25a92 92 0 0 0-29.7 36.1z"/><path fill="#f9d050" d="M765.3 368c7.3-5.6 21-14.6 31.5-13a151 151 0 0 0-33.4 27.6z"/><path d="M765.2 367.8q7.2-5.7 14.6-9.4c7-3.3 12.3-4.5 17-3.8l1 .2-1 .5q-6.7 4-15.9 11.2a98 98 0 0 0-17.3 16.4l-.4-.5a99 99 0 0 1 17.5-16.6q8.5-6.6 15-10.6A31 31 0 0 0 780 359a85 85 0 0 0-14.5 9.3z"/><path fill="#f9d050" d="M763.8 364.4a106 106 0 0 1 31.8-31.9c-9.5 13.2-29.5 42-32.2 46.4z"/><path d="M763.6 364.1a98 98 0 0 1 32-32l.2.6-18.6 26.6-13.6 19.8-.4-.5 13.6-19.8 17.8-25.3a100 100 0 0 0-30.6 31.1z"/><path fill="#f9d050" d="M745 358.9c-5-20-11.9-38.3-22.5-44.7 6 12 13.3 29.1 17.3 54.9z"/><path d="M744.7 359c-5.8-23.9-12.8-38.2-21.5-44q12.5 25.6 16.9 54l-.6.1a189 189 0 0 0-17.2-54.7l-.5-1 .8.4c9.2 5.5 16.6 20.1 22.6 45z"/><path fill="#f9d050" d="M735.9 358.3c-8-13-18.4-25.7-30.7-29.1 8.3 7 21.8 25.8 27.1 44.1z"/><path d="M735.7 358.6c-9.9-16-19.3-25.3-29-28.6q6.3 5.7 13.4 16.7a100 100 0 0 1 12.5 26.5l-.5.3a100 100 0 0 0-12.3-26.3 81 81 0 0 0-14.7-17.7l.2-.7c10.3 2.9 20.4 12.4 30.8 29.3z"/><path fill="#f9d050" d="M740.2 357.8c-10-24.1-17.2-28.6-21.6-33.5 3.5 9.2 12.2 33.5 17.3 43.7z"/><path d="M740 358q-5.4-13.1-11-21.3a73 73 0 0 0-8.1-9.6l-1.5-1.5 2.6 7.1a473 473 0 0 0 14 35.1l-.3.4q-4-8-14.1-35.2l-3.3-8.6.4-.4 2.5 2.6q5 5 8.2 9.6 5.6 8.2 11 21.4zm-19.3-2.3a55 55 0 0 1 14.2 19.1l-.4.3a56 56 0 0 0-14-18.9z"/><path fill="#f9d050" d="M720.5 367.3c2.4 2.6 6.7 6 10.6 10.9z"/><path d="m720.7 367 3.5 3.5q4.8 4.5 7.1 7.4l-.3.5q-2.5-3-7-7.3l-3.6-3.6z"/><path fill="#f9d050" d="M767.3 375c4-4.4 12.6-11.7 16.9-14.3z"/><path d="M767.1 374.7a90 90 0 0 1 17-14.3l.2.6q-3.2 2-8.6 6.4-5.2 4.5-8.2 7.9z"/><path fill="#f9d050" d="M764.6 371.3c4-7 11.7-17 14.5-20.5z"/><path d="M764.4 371.1q4.7-8.5 14.5-20.6l.4.6q-9.9 12-14.5 20.4z"/><path fill="#f9d050" d="M775.6 337.6a379 379 0 0 0-15 25.8z"/><path d="M775.8 337.8a271 271 0 0 0-15 25.8l-.4-.4q4.9-10 15-25.8z"/><path fill="#f9d050" d="M765.3 333.2c-2.7 5-8.2 19-9.8 23.9z"/><path d="M765.6 333.4q-1.9 3.4-5.4 12-3 7.6-4.4 11.8l-.5-.2a212 212 0 0 1 9.8-24z"/><path fill="#f9d050" d="m734.3 334.7 8.3 29z"/><path d="m734.5 334.6 4.4 15.2 3.9 13.8-.5.2-4-13.7-4.2-15.3z"/><path fill="#f9d050" d="M730.8 343.8a98 98 0 0 1 5.9 16.1z"/><path d="M731 343.6q4.2 9 6 16.2l-.6.3q-1.6-7.4-5.9-16z"/><path fill="#f9d050" d="M744.1 341.2c.2-5.2 2.3-9.8 4.7-10.3 2.9.5 4.6 6 4.8 10.1-.3 4.6-2.3 7.8-4.8 8.2-2.5-.3-4.4-3-4.7-8"/><path d="M743.9 341.2q0-3.8 1.5-7.2 1.5-3.3 3.4-3.5c1.5.2 2.5 1.2 3.7 3.9q1.2 3.4 1.3 6.6 0 3.3-1.5 6-1.5 2.4-3.5 2.5-1.8 0-3.4-2.3a12 12 0 0 1-1.5-6m.5 0q0 3.3 1.4 5.5 1.3 2.1 3 2.1 1.6-.1 3-2.3 1.4-2.4 1.5-5.5 0-3-1.3-6.3-1.4-3.4-3.2-3.4-1.5 0-3 3.1-1.5 3.2-1.4 6.7"/><path fill="#f9d050" d="M739 345.5c.6-5.7 3-9.3 5.5-9.2 2.4 1 3.4 6.6 3.2 10.7-.7 4.6-3 7.2-5.2 7-2-.3-3.7-3.4-3.5-8.5"/><path d="M738.8 345.4q.3-4 2-7 1.8-2.9 3.8-2.4 1.7.4 2.8 4.3.8 3.6.5 6.8t-2 5.5q-1.7 2.2-3.4 1.8-1.7 0-2.8-2.6-1.2-2.9-1-6.4m.6.1q-.3 3.3.8 5.9 1.1 2.3 2.4 2.3h.1q1.4.3 3-1.6 1.5-2.1 1.8-5.1t-.5-6.4q-1-3.6-2.4-4-1.7-.2-3.3 2.3-1.5 2.9-2 6.6"/><path fill="#f9d050" d="M749.6 347c-.6-5.2.8-9.8 3.2-10.8 2.5 0 4.5 4.4 5 9 .6 4.7-1 8.2-3 8.7-2.3.3-4.5-1.9-5.2-6.9"/><path d="M749.8 339.9q1-3.6 3-4 1.7-.5 3.5 2.8 1.5 2.9 1.8 6.5a12 12 0 0 1-.5 6.1q-1.2 2.8-2.8 3-1.8.4-3.4-1.5a11 11 0 0 1-2-5.7q-.6-3.7.4-7.2m0 7q.5 3.4 2 5.3 1.4 1.8 2.9 1.3 1.4 0 2.4-2.5 1-2.7.5-5.7a18 18 0 0 0-1.8-6.2q-1.5-2.9-3-2.5-1.6.4-2.5 3.6-1 3.2-.4 6.7"/><path fill="#f9d050" d="M743.7 351.4c.2-5.7 2.3-9.9 4.7-10.3 2.9.5 4.6 5.5 4.8 10.1-.3 4.6-2.3 7.8-4.8 8.2-2.5-.3-4.4-3-4.7-8"/><path d="M743.5 351.4q0-4 1.5-7.4 1.5-3.2 3.4-3.2 2-.1 3.7 3.6a19 19 0 0 1 1.3 6.8q0 3.3-1.5 6-1.5 2.4-3.5 2.5-1.9 0-3.4-2.3a12 12 0 0 1-1.5-6m.5 0q0 3.3 1.4 5.5 1.3 2.1 3 2.1 1.6-.1 3-2.3 1.4-2.4 1.5-5.5a18 18 0 0 0-1.3-6.5q-1.4-3.2-3.2-3.2-1.6 0-3 3t-1.4 6.8"/><path fill="#f9d050" d="M736.7 354c.2-5 2.6-9.7 5-10.1 2.5.5 4.6 6 4.8 10.1-.3 4.6-2.6 7.7-4.7 8.1-2.6-.3-4.9-3-5.1-8"/><path d="M736.4 354q0-3.6 1.7-7 1.8-3.5 3.7-3.5 1.8 0 3.4 3.8 1.5 3.6 1.5 6.7 0 3.2-1.6 5.9-1.7 2.5-3.3 2.6-2 0-3.7-2.4a11 11 0 0 1-1.7-6m.5 0q0 3.3 1.6 5.5 1.4 2.1 3.3 2.1 1.4 0 2.9-2.3 1.5-2.5 1.5-5.4t-1.4-6.3q-1.6-3.5-3-3.5-1.6 0-3.3 3.2a16 16 0 0 0-1.6 6.7"/><path fill="#f9d050" d="M751.2 351.8c.2-5.2 2.2-9.8 4.7-10.3 2.9.5 4.6 6 4.7 10.1-.2 4.6-2.2 7.8-4.7 8.2-2.5-.3-4.5-3-4.7-8"/><path d="M751 351.8q0-3.8 1.4-7.1 1.7-3.5 3.5-3.5 2.1-.1 3.6 3.8a19 19 0 0 1 1.4 6.6q0 3.3-1.5 5.9t-3.5 2.6-3.4-2.2q-1.5-2.5-1.6-6m.6-.1q0 3.3 1.4 5.6 1.3 2 3 2 1.7-.1 3-2.3 1.4-2.4 1.5-5.5a18 18 0 0 0-1.3-6.3q-1.4-3.4-3.2-3.4-1.6 0-3 3.2-1.4 3.1-1.4 6.7"/><path fill="#f9d050" d="M749.6 356.1c.2-5.6 2.6-9.8 5.1-10.3 2.5.5 4.5 5.5 4.7 10.1-.2 4.6-2.2 7.8-4.7 8.2-2.5-.3-4.8-3-5-8"/><path d="M749.4 356.1q0-4 1.7-7.3t3.6-3.3q1.8-.2 3.5 3.6 1.5 3.4 1.5 6.8 0 3.3-1.5 6-1.5 2.4-3.5 2.5-2 0-3.6-2.2a11 11 0 0 1-1.7-6m.5 0q0 3.2 1.6 5.5 1.5 2 3.2 2 1.6 0 3-2.3 1.4-2.4 1.5-5.5 0-3.2-1.5-6.5-1.4-3.2-3-3.2t-3.2 3a16 16 0 0 0-1.6 7"/><path fill="#f9d050" d="M743.3 361c.2-5.6 2.3-9.8 4.8-10.2 2.8.5 4.5 6 4.7 10.1-.3 4.6-2.2 7.7-4.7 8.1-2.6-.3-4.5-3-4.8-8"/><path d="M743 361q.1-4 1.6-7.3c1.1-2.2 2-3.1 3.5-3.3q2 0 3.6 3.8 1.3 3.4 1.3 6.7t-1.5 5.9-3.4 2.6q-2 0-3.5-2.3-1.5-2.5-1.5-6m.5 0q0 3.3 1.4 5.5 1.3 2 3 2t3-2.3q1.4-2.3 1.5-5.4a18 18 0 0 0-1.3-6.3q-1.5-3.4-3.2-3.5-1.6.1-3 3-1.4 3-1.4 7"/><path fill="#f9d050" d="M733.5 361c.2-5.7 1.9-9.8 4-10.2 2 .6 3.3 6 3.5 10.2-.2 4.6-1.9 7.7-3.6 8-2-.3-3.7-3-3.9-8"/><path d="M733.3 361q0-4 1.2-7.3 1.3-3.2 3-3.2 1.4 0 2.7 3.9 1 3.4 1 6.6t-1.2 6-2.6 2.5q-1.6 0-2.9-2.3a14 14 0 0 1-1.3-6m.6 0q0 3.3 1.1 5.5 1.1 2.1 2.5 2.1 1.1 0 2.2-2.2 1-2.4 1.1-5.5 0-3-1-6.3-1-3.5-2.3-3.5T735 354q-1.2 3-1.2 7"/><path fill="#f9d050" d="M755.5 359.8c.2-5.2 1.9-9.3 4-9.8 2 .5 3.7 5.4 3.9 9.6-.3 5-2.2 7.7-4 8.1-2-.2-3.7-2.8-3.9-8"/><path d="M755.3 359.8q0-3.7 1.2-6.9 1.3-3.2 3-3.2 1.5-.1 2.9 3.5 1.2 3.3 1.2 6.4 0 3.4-1.4 6-1.3 2.4-2.8 2.5-1.6 0-2.9-2.3-1.2-2.5-1.2-6m.5 0q0 3.3 1.2 5.6 1.1 2 2.5 2 1.2 0 2.3-2.2 1.3-2.4 1.3-5.6 0-3-1.2-6-1.3-3.2-2.4-3.2-1.4.1-2.5 2.9-1.2 2.9-1.2 6.5"/><path fill="#f9d050" d="M757.9 368.9c1-5.7 3-9.4 4.7-9.3 1.5 1 1.9 6.5 1.2 10.7-.7 5-2.6 7.3-4.3 7.1-1.6-.9-2.3-4-1.6-8.5"/><path d="M759.7 361.8q1.6-3 3-2.6c.8.5 1.3 1.7 1.6 4.5q.3 3.6-.3 6.7-.3 3.5-1.8 5.7-1.4 2-2.8 1.7-1.4-.5-1.9-3.1t.1-6q.6-4 2.1-6.9m-1.6 7.1q-.4 3.1 0 5.6.4 2.1 1.4 2.5 1.1.3 2.4-1.4a12 12 0 0 0 1.6-5.3v-.1q.6-2.9.3-6.4c-.3-2.5-.6-3.5-1.3-3.9q-1-.2-2.4 2.3-1.4 2.8-2 6.7"/><path fill="#f9d050" d="M750.4 367.4c.6-5.2 2.6-9.3 4.7-9.2 2.4.5 3.4 6 3.2 10.1q-1 7.8-4.3 7.6c-2.1-.3-3.8-3.4-3.6-8.5"/><path d="M750.2 367.4q.3-3.9 1.8-6.8 1.5-3.2 3.1-2.8c1.3.2 2.1 1.2 2.9 3.9q.8 3.4.5 6.6-.3 3.7-1.6 6-1.4 2.4-3 2-1.7 0-2.8-2.6-1.2-2.8-1-6.3m.6 0q-.3 3.4.8 5.9 1.1 2.3 2.4 2.3h.1q1.3.3 2.5-1.7 1.2-2.2 1.5-5.6.3-3.1-.5-6.4-1-3.4-2.4-3.4-1.3-.2-2.7 2.5-1.4 2.9-1.7 6.4"/><path fill="#f9d050" d="M739.4 369c-1.4-5.6-3.4-8.7-5.1-8.5-1.5 1-1.9 6.5-1.2 10.7 1 4.5 3 6.7 4.7 6.5 1.2-.9 2.3-4 1.6-8.6"/><path d="M739.7 369q.4 3.1 0 5.9-.7 2.6-1.8 3.1-1.4.5-2.9-1.5t-2.1-5.2q-.6-3-.3-6.7c.3-2.8.8-4 1.6-4.5q1.4-.4 3 2.2 1.5 2.7 2.5 6.7m-3-6.2q-1.4-2.3-2.3-2c-.7.4-1 1.4-1.3 3.9a24 24 0 0 0 .3 6.4q.5 3 2 4.9 1.3 1.6 2.4 1.3.8-.3 1.3-2.6a15 15 0 0 0 0-5.5 23 23 0 0 0-2.3-6.4"/><path fill="#f9d050" d="M736.7 368c.1-5.1 1.8-9.2 3.9-9.7 2.4.5 3.8 5.6 4 9.7-.3 5-2 7.7-4 8-1.7-.3-3.7-3-4-8"/><path d="M736.4 368q0-3.7 1.3-6.8 1.3-3.2 2.9-3.2 1.7 0 3 3.6 1.1 3.1 1.2 6.4 0 3.5-1.3 6c-1 1.7-1.7 2.3-3 2.4q-1.4 0-2.7-2.3-1.5-2.6-1.4-6.1m.5 0q0 3.3 1.3 5.6 1.3 2 2.4 2 1.4 0 2.5-2a13 13 0 0 0 1.2-5.6q0-3-1.1-6-1.1-3.3-2.6-3.3-1.3 0-2.5 2.8-1 3-1.2 6.5"/><path fill="#f9d050" d="M742.6 370.2c.1-5.7 2.2-9.9 4.7-10.3 2.8.5 4.5 5.5 4.7 10.1-.2 4.6-2.2 7.8-4.7 8.2-2.5-.3-4.5-3-4.7-8"/><path d="M742.3 370.2q0-4.1 1.5-7.4 1.5-3.2 3.5-3.3 2 .1 3.6 3.7 1.3 3.2 1.4 6.8-.1 3.3-1.6 6-1.5 2.4-3.4 2.5-2 0-3.5-2.3a12 12 0 0 1-1.5-6m.5 0q0 3.3 1.4 5.5 1.4 2.1 3 2.1t3.1-2.3q1.5-2.5 1.4-5.4a18 18 0 0 0-1.3-6.6q-1.4-3.2-3.1-3.2-1.6 0-3 3t-1.5 6.8"/><path fill="#f9d050" d="M744.5 311c-1 4.5-3.3 8-1.6 14-3.7-1.5-6.4-2-9.4 2.2q5.6-.6 8.3 4.3c-3.3-.3-4.6 1.5-5.5 4.3 2.8-1.1 5.3-2 6.6-1.6-1.2 1.7-3 4.3-3.5 6.4 2.5-2.5 5-2.3 6.7-3.8-1 4 1 7.4 3.1 11.3-.2-5.5 1.7-9 .8-11.8 3.5 1.3 4 4.9 9 5.1-1.9-1.9-3.2-6.3-5.5-6.8 1.5-.6 5.6-1 6.7-.2-1-2.2-3.3-4-5-4.1 1.5-2.3 4.3-6.4 6.2-7.7-3 .6-6.7 1.3-8.6 4.5 3.7-4.7 3.3-12 7.4-13.6q-4-.3-8.6 5.6c1-3.5 1.4-7.3 2.7-8.7a22 22 0 0 0-7.8 9.3 28 28 0 0 0-2-8.6"/><path d="m744.3 311 .1-.8.3.7q1.8 3.6 2 7.6 1-2 2.8-4.3 2.6-3.2 4.8-4.1l.2.6q-.9.7-1.7 4.5l-.5 2.4c3-3.5 5.3-4.8 8-4.5v.7c-1.6.7-2.7 2.4-4 6.3q-.7 2.7-1.6 4.5 2-1.3 6-2.2l.7-.2.1.7a28 28 0 0 0-5.2 6.2l-.6.9q1 .2 2.4 1.2 1.8 1.5 2.4 3l-.4.5q-.5-.6-3-.4-1.6 0-2.5.3 1.2.9 2.5 3.4l2 3.1 1 .7h-1q-3.2 0-6-2.9a10 10 0 0 0-2.6-2.1q.2 1.5-.4 4.7-.8 4-.6 6.5v1.4l-.5-1.1-.6-1.1q-3.1-6.1-2.8-9.6l-2 1q-2.7.9-4 2.3l-.6.7.2-1q.4-2.1 3.2-6.2-1.5 0-6 1.7l-.6.2.2-.6c1.1-3.4 2.6-4.6 5.2-4.6-1.9-3-4-4-7.7-3.6l-.6.1.4-.7c2.4-3.3 5-4 9.2-2.4a19 19 0 0 1 .8-10zm9.2 14.5q1.2-2 2.3-5.7c1-3 2-5 3.2-6-2.4.3-4.5 1.9-7.2 5.5l-.4-.4 1-4q.4-2.4 1-3.6a16 16 0 0 0-3.5 3.4 27 27 0 0 0-3.2 5.1l-.5 1.2v-1.3q0-4.2-1.6-7.7l-.8 2.8a17 17 0 0 0-.6 10.1l.2.8-.5-.3c-4-1.6-6.4-1.2-8.7 1.3 3.7 0 6 1.2 7.8 4.6l.3.7-.6-.1c-2.5-.3-3.8.6-5 3.3q5.1-1.8 6.3-1.4l.4.2-.3.4a29 29 0 0 0-3.1 5.2q1.3-1 3.5-1.8 1.8-.6 2.4-1.2l.8-.9-.4 1.3c-.5 2.3.2 5.2 2.6 9.7v.2q0-2.4.7-5.6.7-3.6.2-4.9l-.3-.7.6.2a9 9 0 0 1 3.4 2.5q2.3 2.3 4.8 2.6-.7-.8-1.6-2.5c-1.3-2.5-2.3-3.4-3.1-3.6l-.1-.7q1-.4 3.5-.7 1.7 0 2.5.2-.6-1-1.7-1.8-1.5-1.2-2.7-1.3h-.6l.4-.6 1-1.4q2.7-3.7 4.2-5.4-4.4 1.1-6.2 2.9-.4.8-1 1.3l-.3-.5q.3-.8 1-1.4"/><path fill="#f9d050" d="M746.5 319.7c0 1.6-.1 4.7-.4 5.9z"/><path d="M746.7 319.7q0 4.9-.4 6l-.4-.3q.3-1 .3-5.7z"/><path fill="#f9d050" d="M751.6 319c-.8 1.3-2.2 4.8-2.4 8.2z"/><path d="M751.8 319.3a14 14 0 0 0-2.3 7.8h-.5q0-5 2.4-8.3zm2.3 6.5a9 9 0 0 0-2.6 4.6l-.6-.1q.6-3 2.9-5.1z"/><path fill="#059334" d="M712.3 378.3q-4.2-.4-6.7-4.5c-3.2-5-9.8-7.3-13.4-3.4-1.2 1-2.7 1-3.9 1.4-2.1.2-4 2.2-3.5 7.8 1.6-1.3 2 0 3.1.2.8-.4.5.5.4 1.7.4 3 4 7.8 8.3 8 4.4.4 6.1 2.3 7 3.5 1.2 1.7.5 1 1.2 3.8 1.2 1.7 1.6 2.1-.4 4.3a14 14 0 0 0 0 16.6c5.4 5.7 17.8 13.9 32.7-1.4 14.5-14.7 35.7-7.2 37.7-2 2 5.4 2.7 8.5 3.1 11.2.6 2.3 2.2 4 5.1 3.4q4.7.2 7.5 2.8c2.2 1.3 4.4.8 4-4-1.9-15-8-16.7-9.1-23.6 4 .2 6.4 0 8.2-2.2 1.2-2.3 2.9-6 4.4-7.3 1.1-1.3 1.2-2.2-.4-1.6-2 .8-3.2 1.7-6.7 1.6-17.7-1.5-69.2-19.2-78.6-16.3"/><path d="M712.2 377.5q4.3-1.2 18.8 2.2l29 7.7q24 6 31 6.4 2.5.1 5-1l1.4-.6 1.1-.2q.8 0 .9.9t-1.1 2.3q-1.1 1-3.3 5.3l-.9 1.8v.1c-1.5 1.9-3.8 2.6-8 2.6q.7 2.2 2.8 5.6a39 39 0 0 1 6.1 16.8q.6 3.8-1.3 5.3-1.5 1-3.5-.3a10 10 0 0 0-7.1-2.7q-2.1.5-3.8-.7-1.5-1.3-2-3.3-.6-4.4-3-11-.6-1.7-4.3-3.6a30 30 0 0 0-9.4-2.5 27 27 0 0 0-23.2 8.3c-6.7 7-13 9.8-20.2 8.8a23 23 0 0 1-13.1-7.4 15 15 0 0 1-3-10.1q.4-4.8 3-7.7l1.1-1.7q0-.3-.8-1.4v-.2l-.1-.1q-.4-1.2-.5-2.3 0-.4-.6-1.3c-1.6-2-3.5-3-6.6-3.2q-2.9 0-6-3-2.9-3.2-2.9-5.9v-.8l-1-.5q-.8-.5-1.6.2l-.7.7-.2-1.2a11 11 0 0 1 .9-6.6q1.3-2.2 3.1-2.2l1.4-.3q1.5-.4 2.3-1c1.9-2 3.9-2.6 7.3-1.8q4.5 1.4 6.9 5.4c1.7 2.7 3.4 4 6.1 4.2m0 1.6c-3-.3-5-1.7-7-4.9a10 10 0 0 0-6.2-4.7c-3-.7-4.8-.3-6.3 1.5l-.1.1q-.9.8-2.8 1.2-.9 0-1.3.3h-.2q-1.4 0-2.3 1.6a8 8 0 0 0-.8 4.2q1-.3 2 .3l.6.3h.4q.6 0 .7.5v2q0 1.9 2.4 4.5c2 2 3.4 2.7 5.2 2.6 3.5.3 5.7 1.4 7.6 3.8a5 5 0 0 1 .9 2.2l.3 1.8q1 1.5 1 2.4 0 1.2-1.5 2.9a12 12 0 0 0-2.6 6.7q-.3 4.8 2.6 8.7a22 22 0 0 0 12.5 7q10 1.6 19.4-8.4a28 28 0 0 1 24-8.7 31 31 0 0 1 9.7 2.6q4.1 2.1 5 4.4 2.4 6.8 3 11.3.9 3.8 4.5 2.9h.1a10 10 0 0 1 7.8 2.8q1.4 1 2.4.3 1.1-.8.6-3.5a37 37 0 0 0-5.8-16.1q-2.8-4.5-3.2-7.4l-.1-1h.7c4.3.2 6.5-.4 7.8-1.9l.8-1.7q2.4-4.7 3.7-5.8l.1-.2h-.1l-1.4.6q-2.7 1.3-5.5 1.1-7-.4-31-6.4c-27.8-7.3-43.2-11.2-47.4-10l-.1-.7z"/><path d="M792.5 395c-2 1.8-4 4.6-7.5 11.3-4.2 7.3-15.5 14.7-30.3 15.2-14.3.2-22.6-3-29-10.1a58 58 0 0 0-8.7-7.7c-4.3-3.2-5-8.5-4-13.6-1.2 2.9-1.8 5-4.2 4.7-1.9 0-4.4-.2-4 2-.3-1.1-.4-2.7-.8-3.2l-.7-1.2c1.3.8 3.7-1.6 5.9-1.9 1.7.3 3.3-1.8 3-5.2l-1-7c3-1.5 44.4 8.3 52.6 9.2 8.8.3 31 3.4 28.7 7.5"/><path d="M792.8 395.7a49 49 0 0 0-7.3 11q-3.4 6-11.5 10.6a43 43 0 0 1-19.3 5c-13.5.2-23-3.3-29.4-10.3q-4.2-4.5-8.5-7.6a11 11 0 0 1-4.4-6.5q-.4-2-.4-4.1-1.5 2.2-3.3 1.8l-2.7.2q-.5 0-.7.3v.4l-1 .6v-.2l-.4-1.6-.3-1.2-.8-1.1.8-1.2q.4.4 2.4-.9a8 8 0 0 1 3.2-1.2q1 .4 1.8-1t.7-3.3l-1.2-7v-.6l.4-.3c1.7-.9 13.5 1.6 36.5 6.2a244 244 0 0 0 16.4 3q8 .3 18.7 2.4 5.5 1.2 8.2 2.4 1.5.8 2.2 1.5.4.6.4 1.2 0 .8-.5 1.4zm-87.8-1.2.8-.3q.9-.2 3-.2 1.8.5 3.4-3.4l.4-1 1 .8q-.8 3.7 0 7a9 9 0 0 0 3.6 5.5q4.5 3.3 8.8 7.8c6.2 6.8 15.5 10.2 28.7 10 7-.2 13-1.8 19-5 5.2-3 8.6-6 10.8-9.9q4.8-8.6 7.6-11.4v-.2q-.6-.6-1.9-1.2-2.5-1.1-8-2.3-10.5-2.1-18.5-2.4-2.7-.2-16.5-3c-21-4.2-32.7-6.7-35.4-6.5l1 6.3a7 7 0 0 1-.9 4.8q-1.3 1.9-2.8 1.4-.9 0-2.6 1.1l-1.9.9z"/><path fill="#059334" d="M717.8 376.3c4.2-5.3 8.4-7.7 13.4-6.2h1.1c2.8-2.6 7.5-3 11-1h1.6c5-2 13.4-.3 16.9 4l1.2 1c10.7-1.2 16.7 4.5 24.3 14.3.9 1.1 2 3 4 3.5q3.6.8.8 3.7a44 44 0 0 0-8.3 10.8c-3.8 6.7-14.7 13.6-29 14-14 .2-22-3-28.4-9.6-3.5-3.8-6.2-6-8.2-7.7a10 10 0 0 1-4.3-9.7c.6-4.4-1.2-9.6-2.8-15.1 1.4-1.2 4-2.4 6-1.5z"/><path d="M717.4 375.6c4.7-5.9 8.8-7.8 13.8-6.3h1q1.9-1.9 5.3-2.3 3.5-.3 6 1.3h1.3c2.6-1 5.4-1.2 9.3-.4q5.6 1.4 8 4.5l1 .8c5.1-.5 9.3.5 13.5 3.1q4.7 3.3 11.2 11.5l.4.6q1.8 2.3 3.2 2.7 2.1.4 2.5 1.8.2 1.7-1.5 3.4a53 53 0 0 0-8.1 10.5 26 26 0 0 1-10.9 9.8 43 43 0 0 1-18.7 4.6c-12.8.2-22-3-28.6-9.7a92 92 0 0 0-7.6-7.2l-.6-.4q-2-1.1-3.7-4a10 10 0 0 1-.9-6.8q.5-3.4-2-12.3l-.7-2.3-.2-.6.4-.3q1.2-1 3-1.6 2-.7 3.2 0zm.8 1.3-.4-.5.3.6-1 .7-.4-.2q-.9-.6-2.6 0-1.4.5-2.2 1.1l.4 1.6a35 35 0 0 1 2.1 13.4q-.6 2.6.8 5.4a8 8 0 0 0 3.2 3.4l.7.6q4.5 3.8 7.7 7.2c6.4 6.4 15.3 9.6 28 9.4q9.9-.3 18.3-4.6 7.4-4 10.2-9.1 5.8-8.9 8.5-11 1-1 1-1.4-.2-.6-1.6-.8-1.9-.4-3.9-3.2l-.4-.5a54 54 0 0 0-10.8-11.2 19 19 0 0 0-13-3l-.3.1-1.4-1.2q-2.2-3-7.6-4.2-5.2-1.2-8.7.3h-2a9 9 0 0 0-5.5-1.2q-3.2.4-4.9 2.1l-.1.2H731c-4.7-1.4-8.5.4-12.9 6"/><path fill="#00493d" d="M787.4 388.4c-7.7-9.8-13.7-15.5-24.4-14.3 0 .5 0 2-.4 3.2a60 60 0 0 1 19.3 19c1.6-2.2 4.1-5.2 5.5-7.9"/><path d="m788 388.2-.1.6q-1 2-4 5.8l-1.6 2.2-.5.7-.4-.7a57 57 0 0 0-19-18.7l-.6-.3.3-.8q.3-1 .3-3v-.7h.5a20 20 0 0 1 13.7 3q4.7 3.3 11.2 11.5zm-1.4.4a53 53 0 0 0-10.5-10.8 19 19 0 0 0-12.5-3q0 1.2-.2 2 4.5 2.4 10 8 5.5 5.4 8.5 10.3l1.3-1.7q2.5-3 3.4-4.8"/><path fill="#00493d" d="M761.8 373c-3.5-4.2-11.8-6-16.9-4 0 2.2 0 5.4-.8 7.6 2.7 1.7 5 5.2 7.5 9 1.6-.6 5.5-2.2 7.5-2.8a76 76 0 0 0 2.7-9.8"/><path d="M762.4 372.8v.4q-.6 3.6-2.8 10l-.1.3h-.3l-5.1 2-2.4.9-.3.1-.3-.3c-3.1-5-5.5-7.7-7.2-8.9l-.6-.3.3-.8q.7-1.9.7-7.1v-.6l.4-.2q3.8-1.6 9.3-.4c4 1 6.4 2.4 8.2 4.6zm-1.2.5q-2.4-2.6-7.4-3.8a15 15 0 0 0-8.3.1q0 4.3-.6 6.6a36 36 0 0 1 6.9 8.5l2-.8 4.9-1.8q1.8-5.5 2.5-8.8"/><path fill="#00493d" d="M743.3 369a10 10 0 0 0-11 1.1c-.7 2.2-1.1 6.4-1.1 8.6 1.6.2 3.7 1.6 4.7 2.7a23 23 0 0 0 6.7-4.8c.4-2.2 1-5.3.7-7.5"/><path d="m743.6 368.4.2.1.1.4q.3 2-.6 6.8l-.2 1v.3l-.1.2a18 18 0 0 1-7 5l-.3.1-.3-.3q-1.7-2.4-4.2-2.5h-.6v-.8q0-5.5 1.2-9l.2-.2q2-2 5.5-2.5 3.6-.4 6.1 1.4m-.8 1.2a9 9 0 0 0-5.2-1q-3.2.4-4.8 2-1 2.9-1 7.3 2.3.3 4.2 2.6 4.1-2 6-4.3l.2-1q.8-3.9.6-5.6"/><path fill="#00493d" d="M717.8 376.3c4.2-5.3 8.4-7.7 13.4-6.2a24 24 0 0 0-1.2 8c-4.6-.4-9.6 1-12.2 3z"/><path d="M717.4 375.7c4.7-6 8.9-8 13.9-6.4l.8.3-.5 1q-1 2.2-1 7.6v.8h-.7c-5-.6-8.6.2-11.8 2.8l-.9.8V376zm1 1v3q4.3-3 11-2.4 0-4.3.9-6.6c-4.3-1-7.8.8-12 6"/><path fill="#00493d" d="M780.3 397.5a58 58 0 0 0-18.1-18c0 .5-.8 2.7-1.2 4.3 2.4 4.8 7 15.3 9 21.1 2-1.2 7.4-4.7 10.3-7.5"/><path d="m781 397.6-.4.5a54 54 0 0 1-10.3 7.6l-.5.3-.3-.7q-3-9-9-21l-.1-.4v-.4l1.2-4v-1.3l.8.5q5 3 10 7.9 5.8 5.5 8.4 10.4zm-1.5-.3q-2.6-4.4-7.7-9.4-4.8-4.5-9.2-7.3l-.4 1.2-.5 1.9q5.6 11.4 8.7 20.2 6-3.6 9-6.6"/><path fill="#00493d" d="M750.4 410.3c.8-7.5 1.2-18.2 1.2-22 2-.6 5.9-2.2 7.4-2.8 2 4.2 6.7 15.3 8.7 20.6a52 52 0 0 1-17.3 4.2"/><path d="M749.8 410.2a220 220 0 0 0 1.2-21.9v-.7h.5l5-2 2.4-1h.4l.3.4q4.8 10.7 8.6 20.7l.3 1-.7.2a49 49 0 0 1-17.4 4.2h-.6zm1.3-.6q4.6 0 15.7-4-3.5-9.3-8-19.2l-2 .8-4.6 1.7q0 10.1-1.1 20.7"/><path fill="#00493d" d="M736.7 384.6c2-1 4.6-3.2 6.6-5.3 1.6 1.6 4.7 5.3 6 7.4-.1 4.9-1.2 18.8-1.6 23.7a21 21 0 0 1-11-3.2c.3-8 .7-17.2 0-22.6"/><path d="M736.4 383.9q3.5-1.9 6.6-5.3l.3-.4.4.4q4 4.3 6 7.6l.1.3v.2q0 4.5-1.4 22.4l-.2 1.3v.8h-.5c-4.9 0-8.3-1.1-11.3-3.3l-.4-.3v-.5q.9-16.8 0-22.3v-.7zm1 1.2q.6 6-.1 21.6 3.8 2.7 9.8 2.9v-.7q1.5-17.2 1.5-21.9-1.7-3-5.3-6.7-2.8 3-6 4.8"/><path fill="#00493d" d="M717 390.8c.3-1.1.8-4.8.8-6.4 3.5-2.7 10.7-5 16.9-.8.3 5.4 0 18.7-.4 22a91 91 0 0 0-17.3-14.8"/><path d="m717 392.4-1.4-3 1 .4q.6-2 .6-5.5v-.4l.3-.2q3-2.4 7.6-3.1c4-.5 7 .2 9.9 2.2l.2.2v.5a156 156 0 0 1-.3 22.2l-.2 1.3-.8-.8a77 77 0 0 0-16.6-14.4zm.8-2.1q5.5 3 16 13.8a206 206 0 0 0 .3-20 13 13 0 0 0-8.8-2 15 15 0 0 0-7 2.7q0 3.4-.5 5.5m-20.4-10c-.7-.2-1.3-3-2.8-3.3-.5 0-1.5.4-2-.1q.1 1.7.8 2.7c.6 1.5 2.2.8 4 .8m0 8.3c1.7-.1 3.1-1.4 4.9-4.8q1.7-3.2 2.8-3.4l.2 1.5q-.6.2-2 2.9c-2 3.8-3.7 5.3-6 5.4z"/><path d="M700.4 389.4q1.5 1 4.6-4c1.9-3.2 3.1-4.3 4.2-4.3l-.1 1.6q-1-.2-3.2 3.7c-2.6 4.1-4.3 5.3-6 4.5zM693 375q.3 0 .8-.3 2-1 3.6 1.3 1 1.4 2.3 1.5v1.6q-1.8-.1-3.2-2-1-1.5-2.2-.9-.8.5-1.3.5zm6.4 9.7q-1.3 2.5-3.1 3.8-2.1 1.4-3.5.4l.5-1.4q.9.6 2.4-.4 1.6-1.2 2.7-3.4zm-6.8-13.6q-.9.7-2 3.4l-.6 1-1-.9.5-1q1.4-3 2.4-3.9zm-3.7 7.2v2.7h-1.2v-2.8z"/><path fill="#fff" d="M819.6 445v104.6c-.2 90.8-31.4 126-73.5 151.2-42.2-24.5-73.7-58.5-73.9-149.2V447a758 758 0 0 0 147.4-2"/><path fill="#cf142b" d="M746 538.1c3.8-.3 9-4.3 13.8-11 5.4-7.7 13.5-10.5 22.8-1s14.4 5 19.3-1.5c4.9-6.3 8.5-8.7 17.7-9.9V445a756 756 0 0 1-147.4 2v69.8c9.1.8 12.8 3 17.7 9.2 4.9 6.4 10 10.6 19.2 1 9.8-9.8 17.5-7.1 23.2.5 4.6 6.6 9.7 10.5 13.8 10.7"/><path fill="#0b50a0" d="M746 591.8c5-.4 14-7 16.6-9 8.9-6.9 14.7-1.3 20 1.8 5.9 3 15.3 5.7 22-1.7 6.5-7.5 9.7-7.5 14.2-8 .7-8.1.8-16.2.8-25.3v-6.4c-5.6-.8-8.2 1.4-14.2 9s-12.3 6.6-21.2 2.8c-8.5-4.5-16.2-12.3-24.8 1.1-2.6 4-7.7 9-13.3 9.4-6-.3-10.8-5.2-13.4-9.1-8.9-13.3-16.3-5.4-24.7-.6-8.9 4-15.5 5-21.7-2.1-5.6-7.4-8-9.5-14-8.5v6.4c0 9.1.3 17.2 1 25.3 4.5.3 7.4.1 13.8 7.4 6.7 7.2 16.6 4.2 22 1 5.7-3.2 11.6-8.9 20.5-2.1 2.5 1.8 11.3 8.3 16.5 8.6m0 23a35 35 0 0 0 19.2-8.4c8.1-6 13.2-3.8 21.3 1 8.5 4.7 14.7 2.7 19.6-1.6 2.5-2.6 4.2-6.4 9.4-5.8q-3.7 20.6-10.2 36c-8 3.4-12 3.7-20.4-.5-8.5-4.9-18.2-7.5-24-2.7a26 26 0 0 1-15 6.8 25 25 0 0 1-14.9-6.5c-5.8-4.7-15.4-2-24 3.2-8.3 4.4-12.4 4.2-20.4 1.1a161 161 0 0 1-10.2-35.6c5.2-.8 7 3 9.5 5.5 4.6 4 11 5.9 19.2 1 8.4-5.1 13.6-7.4 21.6-1.5 6.5 5 13.3 8 19.3 8m0 86a151 151 0 0 0 42-35c-3.2-1.2-5-.3-7.8-2.7-3.1-2.4-10.7-3-18.1 2.4-7.5 5-10.6 6.1-16.1 6.3-5.6 0-8.6-1-16.1-6-7.4-5.3-15-4.5-18.1-2-2.9 2.4-4.6 1.6-7.9 3a143 143 0 0 0 42 34"/><path fill="#f9d050" d="M735.9 475.9c.2 1-.3 3.7 0 4.8.7 2.2.8 3.2 2 4.3h2.7c8.6-.2 18.9-4.9 27.5-5.4 8.3-.1 13.4 3 18 2.8a6 6 0 0 0 5.2-5.7c-.3-2.8-3-4-9.8-3.6-9.5.6-14.6 3.8-22.4 4.1-12 0-13.7-5.4-13.8-8.3.2-3 1.8-6.1 8.3-6.6q3 0 4.3-1.7a13 13 0 0 1 3.9-5c3-1.8 8-.5 11-3-.2 2.3-2.3 5.2-4.3 6.6 4.2-1.7 7.9-2 9 2.3-2.2-1.4-4.9-.4-6.3.3l-3.9 1.7c1.6-.1 2.4 3.3 4.7 3.6q-3.9 4.1-10.2 1a18 18 0 0 0-6.3-2c-4.1.2-6 1-6.3 3.3.3 2.8 2.2 4.1 9.5 4 7-.2 11-2.8 21.6-3.5-.7-1.7.2-3.1-1.2-4.8 4.2 0 8 1.1 9.8 4.8-.1-3.8 1.7-7.1 1.2-10.3 2.5.7 4.1 3.2 4.7 6 .2-1.5 1.4-1.7 1.6-3.3 2.4 1.8 3.4 4.9 3.1 8.3 1.4-2.7 2.3-1.8 3.2-5 .7 2.4.3 8-2.4 10.9 2.7-2.4 5.6-2.6 8.3.8-2.4-.1-3.5 1.3-4.7 2-5 4.3-12.4 7-18.5 7-6.3-.3-7-1.7-11-1.6 2.3.8 7 6.2 11.4 6.3q4-.2 5.9-1 2-.7 4.7.8c1.4 1.6 3.3 2.7 5 2.2-.4 2.3-1 3.3-2.3 4 1.9 1.6 1 2.5 2.8 4.6-.8.1-1.5 1-2.8.8 1.1 1.6 1.3 3.5 2.4 4.6-.4 0-1.5.6-2.4.2 1 2.2.3 4.7 1.2 5.8 1 2.3-.9 4.7-3.1 3 .2 1.7-.7 3-2 2.8-1.2-.6-1.9-1.9-1.6-2.6 0-.5 0-.5.4-1-1 1.6-2.2 1.7-3.1 1.2q-.7-.7-.8-1.5c-2.9 1-3.8-1.6-3.5-3.5.6-1.7 2.5-2.3 3.5-1.9.9.5 1.5 1 2.4-.1q1-1.1 1.1-2.8c-.1-2-1-5.9-6.3-5.5-6 .9-15.1-.7-20-2.7-.4-.5-.8-.5-1.2-1-.1 2.2-1.4 3.3-1.5 5.4 0 2.9.7 4.6 3.1 5.8-1.4 2.7-3 2.3-4 .7 0 1.6-1.3 2.8-1.5 4.9l-1.2-2.7c-1.5 4-4 5.8-5.9 5q-3.4 3-5-.4-2.2 1.5-3.6 0c-.1 1.6-.7 1.1-1.2 3.2-.2 1.2-1.4 1.6-2.4 1.1-.7-.7-1-2.5-.3-3.7q-1.9 1.5-3.2 0c0-1.2 0-2.6.8-3.2h.8c-.9-.5-2-.1-2.8-.6q-1-1.5-.4-3.2c.5-.6 1.5-1.5 2.4-.5l.4.5q.1-1.8.8-2.1c.9-.6 1.8-.6 3.1 1 .9 1.6 1.5 1.6 4 1 2-.2 4.9-2.6 7.4-5.4-6.5-2-3-7.1-.8-9.7a7 7 0 0 0-5.5.6c-8.4 6.2-16.6 12.7-22.4 10.8q.1 1.5.8 3.2c-1.3 0-3.3-.1-4.3-1.7-.4 1.2-1 3.6-.4 5.9-1-1-3-2.2-4.3-2.8.6 1.2 0 3.2.4 4.9-1.4-1.7-3-2.7-4-1.7q-1.5 1.5-3.5 1-1.4 2.3-3.1 3c0-1.1-.1-2.6-.4-3.2a9 9 0 0 1-3.2 4.7c0-1.1 0-2.7-.4-3.8-.3 2.1-2.9 3.2-3.5 4.7q.5-2.5.4-4.3-1.2 2.6-4 3.6.9-1.5.4-3.2c-.6 2.2-2.5 3-4.7 2.4-.1 1.2-1.4 2.5-3.5 1-1.2-.8-1.9-2.2-1.2-3.4-1.7-.3-3-2.1-2.3-3.9l.4-1.6a4 4 0 0 1-.4-4.8c.4-.5 1.5-.5 2.3-.4.3-4.3 2.5-4.1 4-.9 1 1.9 3 4.2 5 4l2-.4c2.4-1 7-3.5 9.8-6.5.4-1.7.4-2.7.4-3.8q-2.5 1.3-3.9 3.6V500c-1.2 0-3.1-.6-4-.7.4-.6 1-3 1.6-3.7q-3 .4-5.5-.8c.8-1 .9-2.6 1.2-4.2-.8.3-2.7-.5-4.3-.2.4-1.7.8-3.6 2-4.2q-2.5.4-5.5-1.4c1.5-.2 2.4-2.3 3.5-2.5-3.1-.4-4-2.2-5.5-3.5 1.2.4 2-.8 3.1-.9-1.3-.8-2.9-3.2-2.3-5-.4.6-.8 1.6-1.6 2.1q-1.5.7-3.5-1.8c-.7-2.4-.4-4.6 1.2-5.3-2-1-2-3.1-1.2-4.4.5-1.1 1.8-2.4 2.7-.9.4.6.8 1.7 1.2 2.2-.3-1.1-.4-3.2-.4-4.8.5-1.6 1.1-1.6 2.4-2 1.2.2 1.9 1.6 2 3.3 0 1.6.3 2.7.7 4.9 0-.6.4-1.6.4-2.2.2-2 1.8-1.5 3.2-.9 1.1 1 1.5 3.6 0 5.4q-1 1.8.4 3.8c3 6.2 7.3 10.8 11.4 11.7q0-3.3 2-5.8c0-1.1.3-2.7.7-3.7q.6-5.2 3.1-3.7-.7-.8-.7-1.6c-1.3-1.9-2.2-4.2-1.6-6.5 1-2 3-1.6 4-.4-.2-3.3 2-5.9 2.3-7.5.4 1.7 1 3.7.8 5.4.6-2.2 3-4.6 5-5.8-.4 1.7 1.4 4.3 1.2 6a7 7 0 0 1 6.3-4.3 9 9 0 0 0-.7 4.3c1.3 0 3-.5 3.9-2.1q-.3 3.5-1.6 5.3c.5-.4 1.9-.5 3.2-.5-1.1 1.7-1 3.1-2 4.3 1.7-1 3.3-1 4 1 .5 1.9-.4 4.2-1.3 6-.8.6-1.6 1.5-2 1.6"/><path d="M736.5 476.4v2l-.1 2 .5 1.6q.6 1.5 1.1 2.2h2.6a63 63 0 0 0 13.6-2.5q9.6-2.7 13.9-2.9 4.7 0 11.7 1.8 4.4 1 6.4 1 1.8-.1 3.2-1.7a5 5 0 0 0 1.3-3.2q0-1.4-2-2.2a20 20 0 0 0-7.3-.6 66 66 0 0 0-12.1 2.3A50 50 0 0 1 759 478c-5.5 0-9-1-11.7-3.3a8 8 0 0 1-2.7-6 7 7 0 0 1 2-4.8 10 10 0 0 1 6.8-2.5q2.8 0 3.9-1.3a12 12 0 0 1 4.1-5.2q1.4-1 5.4-1.4 4.3-.4 5.6-1.7l.9-1v1.7a9 9 0 0 1-2 4.8q1.5-.3 2.9-.1 3.1.4 3.8 4l.3 1.8-1.2-1c-1.5-.9-3.1-.8-5.8.4l-2 1-.3.1.6.8q1.4 1.9 2.3 2l1.7-.2-1.3 1.5c-2.9 3-6 3.4-10.8 1.1l-.5-.2a18 18 0 0 0-5.6-1.7c-4 .1-5.5.8-5.7 2.5q0 1.4 1.7 2.4 2.2 1 7.2.9a45 45 0 0 0 8.4-1.4q6.8-1.7 12.3-2.1v-1.3q0-1.5-.7-2l-1.4-1.5h1.8c4.5-.2 7.2.8 9.3 3.3q.2-1.5.7-3.2.7-3.2.4-4.6l-.3-1.2 1 .1q1.9.4 3.4 2.4.9 1.2 1.4 2.5l.3-.3q.5-.6.5-1V461l.9.5q3.3 2 3.5 6.7l.6-.5a5 5 0 0 0 1.3-2.5l.5-1.9.6 1.7q.8 2.1.2 6l-.8 3 1.9-.2q2.7.2 4.5 2.8l1 1.6-1.5-.2q-1.5-.1-3.4 1.3l-1 .7a27 27 0 0 1-26.5 5.7l.7.6c3.5 2.7 5.7 3.8 7.5 3.8q4.6-.3 5.7-.9 2-1 5.2.7l.1.2q2.4 3 4.6 2l.9-.4-.2 1.4q-.6 2.5-1.8 3.9.5.7.8 1.7a5 5 0 0 0 1.2 2.1l1.3 1.3-1.7.2-.7.3-.9.4.5 1.2a5 5 0 0 0 1 2l1.6 1.3-2 .2h-.3q-.5.3-1 .3l.2 2.3q0 1.6.3 1.9h.1v.2q.7 1 .5 2.2-.2 1.1-1 1.9-1.1 1.3-2.4.7l-.6 1.4q-1 1.3-2.2.9-1-.4-1.6-1.5l-.4-.7q-1 .6-2.4-.2l-.1-.2-.8-1.1q-1.8.5-3-1.1t-.7-3.6q.4-1.6 2-2.3 1.4-.6 2.4-.1 1.2.7 1.6 0h.1v-.1q1-.7 1-2 0-1.7-1.1-3.2-1.6-2-4.6-1.6-4.2.7-10.6-.2-5.8-.9-9.7-2.5h-.1l-.1-.2-.4-.3q-.1.9-.7 1.9l-.7 2.2q.1 3.9 2.8 5l.7.3-.4 1q-1 2.2-2.6 2.3-.9 0-1.6-.6l-.5 1q-.7 1.5-.7 2.4l-1.1.4-.6-1.3v-.1a10 10 0 0 1-2.6 3.3q-1.9 1.5-3.3 1-1.5 1.4-3.1 1.2a3 3 0 0 1-2.3-1.5q-1.6 1.2-3 .3l-.3.6q-.4.6-.6 1.4 0 1.3-1.3 1.8-1 .4-2-.1-.7-.7-1-2.3v-.7q-1.5.5-2.6-1l-.2-.2v-.3q0-1.7.3-2.7-.7 0-1.1-.4h-.1v-.1q-1.4-1.8-.6-4.2l.1-.2q1.5-2 2.7-1 .4-1.2 1.1-1.3 2-1.2 3.7 1.2v.1h.1q.7 1.4 3.4.8 2.3-.1 6.2-4.3a5 5 0 0 1-2.3-1.7q-1-1.4-.6-3.5.5-2.2 2.1-4.4-2.1-.4-4 .9l-2.5 1.8q-7.5 5.4-10.9 7.3-5.1 2.6-8.4 2l.5 1.7.5 1.2h-1q-2.9 0-4.1-1.2-.7 2.5 0 4.2l-1 1q-.6-.9-3-2v3.3l-1 .7q-2.1-3-3-1.7-1.6 2-3.8 1.3a7 7 0 0 1-3.2 3l-.7.3v-2a8 8 0 0 1-2.7 3.1l-.9.6v-3q-.5.8-1.4 1.4-1.2 1-1.3 1.5l-1.2-.6.3-1.7a6 6 0 0 1-3.1 2l-1.2.3.5-1.4.1-.2-.7.4q-1.4.6-2.7.4-.4.9-1.3 1.3-1.4.6-3-.7a4 4 0 0 1-1.8-3.4 4 4 0 0 1-1.6-1.5q-1-1.7-.4-3.3l.2-.9a5 5 0 0 1-1-2.6q-.1-1.8 1-3.2.4-.6 2.1-.6c.2-2.2.8-3 2-3.3q2-.1 3 2.9a9 9 0 0 0 2 2.5q1.4 1.3 2.5 1h.1l.8-.1 1.1-.3q5.9-2.5 9.4-6.2l.3-2q-2.2 1.6-2.8 2.8l-1 2.1v-3.5l-3.4-.6h-1.5l1-1.4.4-1 .4-1.1q-1.9 0-4.4-1l-1-.4.7-1q.4-.5.8-2.4v-.3l-1-.2a6 6 0 0 0-2.4-.1l-1 .3.3-1.4.1-.5.9-2.5a11 11 0 0 1-4.2-1.6l.3-1.5q.6 0 1.6-1.2h.1q-1.5-.7-2.8-2.2l-1.2-1.1.5-1.5q.4.2 1.3-.3l.2-.1a10 10 0 0 1-1.5-2.6l-.7.7c-1.5.7-2.6.2-4.2-2h-.1v-.2a8 8 0 0 1-.4-3.9q.3-1 .7-1.7a4 4 0 0 1-.8-2 4 4 0 0 1 .5-2.9q.4-1.1 1.5-1.7t2 .4v-2q.5-1.7 2.1-2.3l.6-.2h.2q2.5.1 2.5 4.1l.2 1.6q.4-1 1.5-1.2a5 5 0 0 1 2.2.7q1.3.7 1.5 3a5 5 0 0 1-1.3 3.7q-.2.4-.2 1.1.1.8.7 1.5v.1q2.2 4.4 5.1 7.7 2.9 2.8 5.3 3.6.3-2.9 2-5.3 0-1.6.7-3.6.4-2.6 1.3-3.8.6-.6 1.1-.8c-1.8-2.9-2.3-5-1.5-7.3q.7-1.8 2.4-1.9.8 0 1.5.4.3-1.8 1.5-4.2l.8-1.8 1.1-.2.3 1 .4 1.8q1.4-2.1 4.4-3.8l1.8-.9-1 2.1q-.3.5.5 2.4l.4 1.1q.8-1 2-1.8a8 8 0 0 1 4-1.2h1.4l-1 1.4q-.4.7-.6 2.9 2.1-.2 2.9-1.8l1-2.2v2.7q0 2.2-.7 4h3.2l-1 1.4q-.4.6-.9 2v.2h1q1.4.4 2 2.2.9 2.2-1.3 6.7v.2l-.2.1-1 .8zM735 475h1l.6-.6 1-.8q1.5-3.7 1-4.9v-.2q-.3-1-1-1.2-1.1 0-2.2.6l-.5-1.4q.3-.4.7-1.6l.4-1.2q-1.4 0-1.6.3l-.8-1.1q.9-1.2 1.2-2.8-1.2.9-3.2.9h-.5v-.8q0-2.1.3-3.5-3.8.4-4.7 3.7l-1.1-.6-.6-2q-.6-1.4-.7-2.4-3.2 2-3.8 4.6v.3l-1.2-.5v-.2q.2-1-.3-2.9l-.4.7a9 9 0 0 0-1.3 4.5l.3 2.5-1.3-1.8q-.5-.7-1.6-.7-1-.1-1.4 1-.8 2.2 1.5 5.5l.1.2v.4q0 .2.7 1l-.7 1.3q-.9-.5-1.4.1-.6.8-1 3v.2q-.7 2-.7 3.4v.3l-.2.3a9 9 0 0 0-1.8 5.2v1l-.6-.2q-3-.7-6.4-4a32 32 0 0 1-6.3-10.3q-.2-1.6.5-2.6h.1q.9-1 .8-2.4t-.6-1.6q-1.1-.6-1.8-.6-.6.1-.6.8l-.2 1.3-.2.8-1.2.1-.3-1.7-.5-3.4q0-2.3-1.2-2.4l-.6.1q-1 .5-1.3 1.2 0 3.5.3 4.4l-1 .9q0-.4-.6-1.3l-.5-1q-.4-.6-.9-.3-.6.4-.9 1.1v.1l-.1.1q-.4.6-.3 1.6t1.2 1.4v1.6q-.9.3-1 1.4-.3 1.3.2 2.6 1.6 2.3 2.7 1.6.4-.3 1-1.3l.5-.7.9 1.1q-.3.6.4 2t1.6 1.7l-.2 1.6q-.4 0-1 .5l-.5.2q1.9 2 3.9 2.1v1.6q-.3 0-1.1 1l-.8.7q2.2 1 3.7.6l.3 1.5q-.6.3-1.3 2.6l1.8.2q1.3.3 1.5.1l1.2-.8-.4 1.9-.3 1.4-.5 2a9 9 0 0 0 4.4.5l.4 1.5q-.2.2-.8 2l-.1.3.7.2 2.3.4h.6v.5q1-1.2 3-2.4l1-.6v1.3q0 2.3-.5 4v.2l-.2.2a28 28 0 0 1-10 6.7h-.2l-.8.2-1 .3q-1.7.2-3.5-1.4-1.5-1.5-2.3-3v-.1q-.7-2.1-1.8-2-1 .2-1 2.5v.8h-.6q-1.7 0-2 .2-.5.8-.5 1.9.1 1 .9 1.7l.2.2v.5l-.2 1.1-.2.5v.4q-.4.7.2 1.5.7 1 1.6 1.1l1.4.1-1 1.3q-.2.4 0 .9.3.7 1 1v.1q1.2 1 2 .6.7-.4.7-.8v-1l.7.2q1.4.5 2.7-.1 1.1-.6 1.4-1.7l.4-2.1.7 2q.3.9 0 2.3 1.5-.8 2.5-2.9l1-2.1v4.6l.4-.3q1.6-1.4 1.6-2.1l1.1-.3q.4.9.5 2.7 1.5-1.3 2-3.6l.3-1.2.7 1q.4.5.5 2.6 1.3-.9 2.1-2.5l.3-.5.4.2q1.6 1 3-.7.7-1.2 2.3-.4l1.3.9v-.6q0-1.5-.2-2l.7-1.2 3.1 1.7q0-2 .9-4.5l.4-1.2.6 1.2q.5 1 2.9 1.2-.5-1.4-.5-2.4v-1l.8.3c2.2.7 4.7.3 8.6-1.6q3.3-1.8 10.8-7.2l2.6-1.9q2.5-1.6 5.9-.7l1.1.4-1 1a11 11 0 0 0-2.6 4.7q-.2 1.1.3 2 .7 1 3 1.6l1.2.2-1 1.2c-3.4 3.8-5.7 5.4-7.8 5.6q-3.4.8-4.4-1.3-1.3-1.5-2.5-.8h-.2q-.2.1-.2 1.4v2l-1.4-2q-.3-.3-.8-.1l-.7.6q-.3 1.1.3 2l1 .2q1.2 0 1.6.3l-.2 1.6h-.6q-.4.4-.4 2 .9.9 2.2-.3l.8 1.2q-.4.5-.3 1.4.2 1 .5 1.1.4.3 1 0 .5-.1.5-.4v-.2q.3-1.2 1-2.1l.2-.9v-2l1 1.4q1 1.5 2.8 0l.5-.6.3.8q.5 1.3 1.7 1.4 1.4 0 2.6-1.2l.2-.3.4.2q1 .6 2.5-.7 1.8-1.4 2.6-3.9l.5-1.6.5 1.6.5 1 .6-1.3q.6-1 .6-1.6v-2.6l1 2.1q.5 1 1.4 1 .6 0 1.2-.8c-2-1.3-2.7-3-2.8-6.1q0-1.5.8-3.2.7-1.4.7-2.3v-2l1 1.4.5.4.6.5a45 45 0 0 0 19.7 2.6c2.5-.3 4 .3 5.5 2q1.5 1.9 1.4 4.2 0 2.3-1.4 3.5-1 1.4-3 .3-.4-.3-1.5.1-1 .5-1.2 1.2-.2 1 .5 2 .8 1.2 2.3.5l.8-.3v1l.5 1q1.4.6 2-.6l.4-.6 1 1-.4.5v.5l.1.4q.4.7 1 1 .7.2 1-.4t.3-1.4l-.6-2.5 1.5 1.6q1.1 1 2 0 .5-.3.5-.8l-.1-.9q-.7-.8-.8-3 0-2-.4-2.9l.7-1.3q.3.2.9 0l-.6-1.3q-.5-1.5-1-2.1l.6-1.4q.6.1 1.4-.4l-.7-1.7q-.4-1.2-1.2-1.8l-1-.8 1.1-.7a4 4 0 0 0 1.7-2.1q-2.3.1-4.6-2.6-2.6-1.5-4.1-.7-1.4.6-6.1 1-2.9.1-8-4a14 14 0 0 0-3.5-2.3V484q2 0 4.7.6 3.2.9 6.4 1 10.3 0 18.2-6.8l1-.7q1.2-1 2.5-1.4-1.3-1-2.7-1a5 5 0 0 0-3.8 1.6l-.6-1.4.3-.3q1.4-1.4 2-4.7l.2-3-1.1 1.3a6 6 0 0 0-1.4 2l-1-.5c.2-3.5-.4-5.5-2.3-7.1l-.8 1.1q-.5.6-.5 1l-1.2.3a9 9 0 0 0-1.4-3.5 6 6 0 0 0-2-1.8q0 1.8-.6 4.4-.9 3.1-.7 4.7l-1 .6c-1.6-3-3.9-4.2-8.2-4.4q.3.8.3 2 0 1 .2 1.5l.6 1.2-1.1.1q-5.8.4-13 2.2-5.4 1.3-8.6 1.4-5.3 0-7.6-1c-1.7-1-2.4-2-2.5-4q0-2 2.1-3.1 1.7-.9 4.8-1 1.9 0 6 1.8l.5.3c3.8 1.8 6.3 1.8 8.6.2q-.7-.6-1.8-2-1-1.3-1.4-1.2l-.2-1.5 1.9-.9 2-.9q3-1.5 5.1-1-.7-1-2.1-1.1-2.3-.3-5.5 1l-.3-1.4q1.4-.9 2.6-2.8l1-1.6q-1.7 1-5 1-3.7.4-4.8 1.3-2.7 2-3.7 4.6v.1h-.1q-1.4 2-4.8 2-4 .2-6 2.2a5 5 0 0 0-1.6 3.6q0 2.6 2.2 4.6c2.4 2 5.8 3 11 3q3.6-.3 10-1.9 7.4-2 12.3-2.4 5-.2 7.7.7 2.8 1.3 2.8 3.7a7 7 0 0 1-1.8 4.5 6 6 0 0 1-4 2.1q-2 0-6.6-1a42 42 0 0 0-11.4-1.8q-4.3.3-13.7 2.8-9.4 2.7-13.8 2.6h-3v-.1a7 7 0 0 1-1.8-3.1l-.5-1.5q-.2-.8 0-3v-1.9z"/><path d="M711.7 482.6c-1.7 1.1-2.8 3.1-3.6 6.9l-1.1-.5c.9-4.2 2.2-6.5 4.3-7.9z"/><path d="M711.4 486.3q-2.9 2.3-4 4.5-.9 2.3-.4 6.3l-1.2.2q-.5-4.4.7-7.4a15 15 0 0 1 4.3-5zM713 501c2.4-1.2 4-3 5.6-6.4l1 .8c-1.7 3.7-3.5 5.8-6.2 7.1z"/><path d="m718.3 497.5-.3 3-.2 1.9q1.8-2.2 2.2-5.4l1.1.3c-.5 3.5-1.7 5.8-4.2 8l-.7-1.3q.4-.7.6-3.5 0-2.7.5-3.8z"/><path d="M718.3 502.3q3-2 4.8-7.6l1.1.6-.2 2.1v.6q1.1-2.2 1.5-4.1l1.1.1.1.5q.7-1.3.7-2.6h1.2q0 2.5-1.7 4.9l-1 1.3v-1q-1 2.1-2.6 4.4l-.9-1q.3-.5.4-1.4a13 13 0 0 1-4 4.6z"/><path d="M728.6 493.5v.7q.8-1.7.8-4.4h1.2q-.1 4.8-2.2 7l-1 1v-4.3z"/><path d="M729.3 492.3c1.6-1.7 2.4-4.5 2.4-9.5h1.2c0 5.6-1 8.9-3 10.9z"/><path d="M732 487.6c1.1-1.4 1.7-3.4 1.7-6.9h1.2q0 5.8-2.2 8.1zm-2.8-20.6-.7.3q-.3.3-.3 1l-.6 2.1q-.6 1.5-.6 2.2v.2q-.4 1.9-1.1 2.5-.9.7-2 .1h-.2q-1.4-1.4-1.4-3.4 0-1.5 1.2-3 .7-1.1.8-1.8v-.4l.3-.8q-.9.2-1.9-.3-2-1-2.4-3.9l1.2-.2q.3 1.8 1.6 2.6 1.4.6 2.6-.3l.3-.2h2.2l-1.9 1.5-.2.2-.4 1.2-.3.8q0 1.2-1.1 2.8-.8 1-.8 1.8 0 1.1.8 2h1q.3-.4.5-1.5 0-1.1.8-2.9l.4-1.3q0-2.9 2.2-3z"/><path d="M733 468.5q-.7.4-1.7-.2-.7-.4-1.1-.3h-.2l-.4.1q-1.4.3-2-.3l.8-1.1 1-.2h.5q.8-.3 2 .3.4.4.6.3z"/><path d="M727.6 469.9q.4.4 1.3.6l.5.1-.1-.3q-.8-2.2.7-3.7l.7 1.3q-.7.8-.4 1.7.4.9 1.1.6l.4 1.6q-1.5.8-3.1.3-1.4-.3-1.9-1.1zm-4-4q-.9-.1-1.4.7-.5.6-.3 1.3.1.7.8.8.8 0 1.5-.6l.6 1.4q-1.1 1-2.2.8-1.4-.2-1.8-1.9t.6-3q.8-1.2 2.3-1.2zm-3 25.3q.5-.8.5-1.6v-.8h.6q1 0 1.6-.8l.1-.2h.3q1.8 0 2.6-2.6l.1-.6h.4l.7-2q.2-1 .4-1.3l.3-1 .6.9v-.2l.6-1.6.2-1 .6.5h.9q.4-.4.7-1.2l1 .6q-.3 1.4-1.3 2-.6.4-1.1.3-.3 1.2-.8 1.7t-.9.5v.4q-.8 2.4-1.4 2.9-1 3.1-3.4 3.3a3 3 0 0 1-1.7 1q-.2 1-.9 2zm-3.8-17.2q0 1.4-1.4 2.5l-.1 2.1q-.3 1.5-.7 2 .2 1.5-.5 3.6l.1 1 .2 1.6h-1.1l-.2-1.2-.2-1.5v-.4q.7-2 .4-3l-.2-.8.5-.3q.3-.2.5-1.4a4 4 0 0 0 0-1.8l-.2-.7.5-.4q1.2-.9 1.2-1.4zm1.5-10.4a9 9 0 0 0-.2 3.5q.3 1.5 1 1.8l-.3 1.6q-1.4-.6-1.9-3a11 11 0 0 1 .4-4.6z"/><path d="M719.2 472q-.3 1.3-.4 4-.2 3.2-.4 4.2-.6 1.3-.4 2.5.3 1.7 1.9 2.4 2.7.8 3.9-.2c1-1 2-3 2.9-6.7l1 .6q-1.4 5.9-3.3 7.5-1.7 1.3-4.8.3-2.3-.9-2.7-3.6-.1-1.8.3-3.4.2-.9.4-3.7l.4-4.2zm14.5 27.5q0 .8-.4 1.5-.5.9-1.4.9v-1.6q.7 0 .6-.8zm2.8-1q0 1.8-1.4 3.7l-.8-1.1q1-1.4 1-2.7zm2.7-1.1q0 3.1-1.1 3.9l-.5-1.4q.4-.4.4-2.5zm-24.6-34.5q.8 0 1.7 2.6l1 2.8-1.8-1.8h-.3q-.3 0-.4.4-.4 1 0 1.7l-1 .9a4 4 0 0 1 0-3.5q.4-.9 1-1 0-.5-.2-.5zm-.7 10.5-.9.9-.7.6-.8-1.1.9-1 .6-.6zm-1.6 5-.3.2-.9.3v-1.6l.3-.2.9-.3zM692.8 467q0-.9.6-1.6l.8 1.1-.2.5zm-3-1q-.5 0-1.1-.8l.8-1.1.4.3zm.5 6h.8v1.6h-.8zm-2-2q-1-1.4-2-1.5V467q1.5.1 2.8 2zm22.4 21a17 17 0 0 0-4.1 9l-1.2-.3q.8-5.5 4.5-10zm2.9 2.5a13 13 0 0 1-3.3 5l-.7-1.4q1.9-1.7 3-4.4zm-15.7 15.8c-3.3.9-5.7.2-8.3-2.1l-.1-.1-.5-.4-.7-.8.8-1 .5.3.7.7c2.3 2 4.4 2.6 7.3 1.9zM710 502l-.1.7-.5 2.3a12 12 0 0 0 4.2-8l1.1.2c-.5 4.6-2.5 7.8-6.6 10.6l-.5-1.5q.5-.3 1.1-4l.2-.8zm-23.5 8h1.7q.9.3 1.2-.1l.8 1.2q-.6.8-2.1.5h-1.3zm68.8-16.1.8.5 1 .6a7 7 0 0 1 3.2-2.9l.4 1.5a6 6 0 0 0-2.8 3l-.4 1-.5-.9-1.3-.8-1-.6zM726.7 506c-.5-3.5.3-5.4 3-6.8l.5 1.6q-3 1.3-2.4 4.9zm-15.3 8.2.3-1.6.5-2.1 1 .8-.3 1.6q-.2 1.5-.5 2zM695 516l-.5 1.1-.6 1.7-1.2-.1q0-1 .8-2.6l.5-1zm-7 .3q0-1.2.8-1.3a5 5 0 0 0 2-2.1l1 .8q-.6 1.5-2.5 2.9h-.3q.2 0 .2-.2zm54.3-5.2q-1.1.8-2.2-.7l.8-1.2q.5.7.9.4zm-.2 2.5q-.6.7-1.2.8v-1.6l.3-.3zm2 2.7q-1 1.3-1.7 1.3V516l.8-.9zm10.7-.4q.7-.5 1.2-3.3l1.2.4q-.6 3.4-2 4.3zm-5-.5q1-.5 2.8-3l.9 1a12 12 0 0 1-3.4 3.5zm10.5-3.7q0-2.4.5-3.6l1 .7q-.3.9-.3 2.8zm29.3 3.9q-.9-1.1-.7-2.5a4 4 0 0 1 1.2-2.5v-.1l1-.8 1-1 .5 1.4-.9.9-1 .9q-.6.6-.7 1.3 0 .6.4 1.2z"/><path d="M765.9 498.2a22 22 0 0 1-5.6-5q-2.5-3-5.1-2.7l-.1-1.6q3.2-.4 6 3.1 2.7 3.1 5.3 4.7zm28.5 13.6q.5.7.3 2.8v.5h-1.3l.1-.7.1-1.4zm3.7.6q-.3 1.4-.3 3.5h-1.2q0-2.1.4-4zm-30.8-48h-3.1V463l3.1-.1zm-32.4 18q0 .6.7 1.3a4 4 0 0 0 2.4 1l.2-.2.4.3v1.6q-2.3 0-3.7-1.4a4 4 0 0 1-1.2-2.7zm1.4-6q-.5.7-1.2.5l-.4-.5q-.9-1.1 0-3l.1-.5h-.5a6 6 0 0 1-2.2 3.3q-1.4.9-2.6-.1a8 8 0 0 1-1.4 2.4q-1.6 1.8-3 1.3l-.1-.1a5 5 0 0 1-2-3.1q-1.1.7-2.4.4a5 5 0 0 1-2.4-1.9h-.1v-.2q-.6-1.8.7-7.6l1.1.6q-1.1 4.9-.8 6.2.7 1 1.7 1.3 1.4.6 2.4-1.3l1 .8q-.4 2.1 1.3 3.3.7.3 1.8-1 1-1.1 1.3-2.6l.3-1.4.7 1q1 1.2 2 .5 1.2-.7 1.7-2.8l.2-.6h.4q1.4 0 2.6-.5l.5 1.5a6 6 0 0 0-1.4 1.8q-.3.9-.1 1.2zM761 496c-1.3 1-2.2.2-3.5 1.7-.7 1.1.3 1.5 1.2 1.6-.4 1.6-.4 2 1.5 2-.5 1.8 1.4 2.1 1.2 4.3a7 7 0 0 0 .8-5.4c-.6-1.6-2.1-2.5-1.2-4.2"/><path fill="#073163" d="M725.3 479q-2.3-1.8-1.6-4.3-.7 1.5-2 1.5c-1.7 5-3.4 8.7-5.9 9-2.7.9-2.3 3.9-.4 4.3 4.5 1 6.2-.8 9.9-10.5m-39-14.4c1.1-1.7.5-3-.3-3.8-1.4-.6-3.3-.3-4.7 2.4q1.9-.8 2.7.7c.5 1.1 1 2.1 2.4.7m2-9.6c2.7.2 3.4.7 3.9 2.4.3 1.2-.4 2.5-1.2 2.6-1.3-.2-2.3-1-2-1.7q.8-2-.8-3.3m7.9 9q3 .6 1.5-3.1-.5-2.6-3.5-2.3c1.7 2 .2 4 2 5.4m-14.6 8.3c1.4 2.8 3 2.8 4 2.4 1.2-.6 1.5-2 1.1-3.1-.8-1.7-1.8-2.3-2.3-.2-1 2-1.9 1.5-2.8 1m6 33q-1.8-3.3-5.2-.3c1-.4 2.2.1 2.8 1.3.4 1 1.1 1 1.5 1.1.5-.5 1.1-1 .8-2m3.2-3.1c-.3-2.8-2.5-3.3-4.4-2.4q1.7.3 2 2.3.8 1.6 1.6 1.6 1.2-.8.8-1.5m-4 9.4c-2.4-.3-3.4 2.7-3.5 5.7q.8-2.7 2.8-2 1.7 0 1.5-1.5.5-1.4-.7-2.2m.3 9.2q1.4.5 2-2c.2-1.1 1.4-1 2-.5.7.8.7 2.5-.4 3.7-1 .6-2.6 1-3.6-1.2m54.7-14.5c-1-.6-2.6-1.5-4.4 0q1.9-.4 2.4 1.6c.1 1.1 1 1.6 1.6.5q.7-1 .4-2.1m-3.6 3.7c-1.8-.7-3.3 1.4-3.9 3.8.5-.6 1.9-1.5 2.8-1.6q1.3.6 1.5-1 .7-1-.4-1.2m2 4.3c-1.3.3-2.6 2-2.8 4.3q.7-1.6 2-1c.9-.1 1.9-.6 2-1.7q0-1.5-1.2-1.6m3.5 4.3q-1.5-.7-2 1.6 0 2.7-.3 3.8 1.1-1.4 2.3-2.2c.4-.6.7-2 0-3.2m44.4-6.5c-.9-1-1.8-.4-2.3.7a11 11 0 0 0 0 6c0-1.2.7-2.6 1.6-2.8a3 3 0 0 0 .7-3.9m2.4 2c-1.5 1.5-1.5 4.7-.4 7 0-1.1.4-2.6 1.2-3.3 1.2-.3 1.5-2 1.2-3.3-.9-1-1.6-.5-2-.4m4.7 1.8c-.9-.4-1.5.6-1.6 1.7q-.3 2.9 1.6 4.8.1-1.9.8-2.8c1.1-1.4.8-3-.8-3.7m3.5-.8c-.8.2-1.4 1.6-.7 3.3.4 1 1 1.4 2.7.8-.4-.1-1-1.4-.8-2q.6-2-1.2-2.1"/><path fill="#f9d050" d="m689.5 616.6 19.7-81.7 19.6 83.2-51.5-53.2q31.3 2.2 63.7 2.2z"/><path fill="#024919" d="m693.4 609.4 40.9-39.6q-24.8-.2-50.3-1.8l40.5 42.5-15.3-66z"/><path fill="#f9d050" d="m763.4 617.7 19.6-83.6 19.7 81.2q-25.4-22.8-51.5-48.3 31.3-.3 63.7-4-25.4 28-51.5 54.7"/><path fill="#024919" d="m767.3 610 40.9-43.5a668 668 0 0 1-50.3 3l40.5 38.7-15.4-64.4z"/><path fill="#f9d050" d="m726.4 676.5 19.7-82.6 19.6 82.3-51.5-51q31.3 1.1 63.7-.6z"/><path fill="#024919" d="m730.4 669 40.8-41.4q-24.8 1.1-50.3.5l40.5 40.7-15.3-65.2z"/><path d="M820.2 549.5q-.1 63-21.1 100.8-9.4 16.4-23.5 29.7a178 178 0 0 1-29.3 21.5l-.2.1-.2-.1q-17.8-10.4-29.4-21a123 123 0 0 1-23.6-29q-21.2-37.1-21.3-100V446.2c49 3.7 98 4.1 148.6-2zM819 445.8a757 757 0 0 1-146.2 2v103.9q0 62.2 21 98.8a121 121 0 0 0 23.3 28.7q11.5 10.5 29 20.7 17.4-10.5 28.9-21.2 14-13.2 23.1-29.4 20.8-37.2 20.9-99.6z"/><path fill="#1a1a1a" d="M8 195.3c170.8-85.3 341-54.5 513.3-28C676.5 191 833.4 211.8 992 132.7v672c-170.8 85.3-341 54.5-513.3 28C323.5 809 166.6 788.1 8 867.2zm31.3 19.3v604.5c306.5-128.2 611.1 96 921.5-33.7V180.9C654.2 309 349.5 84.9 39.3 214.6" opacity=".2"/></svg>