<svg xmlns="http://www.w3.org/2000/svg" viewBox="0 0 1000 1000"><path fill="#00afca" d="M8 195c171-85 341-54 513-28 155 24 312 45 471-34v672c-171 85-341 54-513 28-155-24-312-45-471 34z"/><path fill="#fec50c" d="M606 462c0 50-30 86-66 81-37-6-66-51-67-101 1-50 30-85 67-80 36 6 66 49 66 100m-66-112q5 0 5-7l-5-32-6 30q0 8 6 9m75 113q0 7 5 8l23-5-23-10q-5-1-5 7m-75 92q-6 0-6 7l6 32 5-31q1-6-5-8m-76-114q0-8-5-8c-4-1-23 4-23 4l23 10q5 2 5-6m104-79q6 2 7-3c2-5 4-31 4-31l-14 23q-1 6 3 11m41 139q-2 7 3 10c4 3 23 8 23 8l-19-21q-4-4-7 3m-98 42q-6-3-7 3c-2 5-4 31-4 31l14-24q2-6-3-10m-41-141q2-7-3-10l-23-8 19 21q4 4 7-3m123-15q4 6 7 1c3-3 13-25 13-25s-17 10-20 14q-4 4 0 10m0 146q-4 5 0 10l20 19s-10-24-13-28q-3-6-7-1m-107-16q-4-6-7-1c-3 3-12 25-12 25s16-10 19-14q4-3 0-10m0-146q4-5 0-10l-19-20s9 25 12 29q3 7 7 1m123 52q3 7 7 4c4-1 19-16 19-16l-23 2q-5 2-3 10m-41 128q-5 4-3 10l14 27s-2-26-4-31q-1-7-7-6m-98-70q-3-7-7-5c-4 2-19 16-19 16l23-2q5-2 3-9m41-128q4-3 3-9l-14-28s2 27 4 32q1 6 7 5m43 1q6 1 7-5l-1-32-10 27q-1 7 4 10m59 129q0 7 5 9l23 1-21-16q-5-2-7 6m-88 68q-6-1-6 5v32l10-28q2-6-4-9m-59-130q0-8-4-9c-5-2-24-3-24-3l21 17q6 2 7-5m115-48q6 4 8-1l8-29s-15 15-17 19q-3 5 1 11m21 145q-3 7 2 11c3 3 21 13 22 13l-16-25q-4-4-8 1m-104 13q-5-4-8 1l-8 29s15-15 17-19q3-5-1-11m-21-145q3-7-1-11l-22-14s12 22 16 25q4 5 7 0m125 18q4 7 8 3l16-22-22 9q-5 3-2 10m-21 140q-4 4-1 10c2 5 17 24 17 24l-8-31q-3-7-8-3m-104-44q-3-7-7-3c-4 2-16 21-16 21l22-8q4-3 1-10m21-140q4-3 1-10l-17-24 8 31q3 7 8 3m115 82q2 8 7 7l21-11-23-4q-5 1-5 8m-59 113q-5 2-4 8l10 31 1-32q-1-6-7-7m-88-94q-2-7-7-7l-21 10 24 5q4 1 4-8m59-112q6-1 4-8l-10-30v31q0 7 6 7m3 297-5 1-7 1h-3v5l-1 1h-2l-1-1-1-1h-3l-1-1-2-1-4 4-1 4 1 5 1-2 3-2v3l11-1 16 1 15 3 7 1h1l-3-2-10-1-7-3-2-1-3 1-5-2 4-6-3-1zm76 34q-5 1-9-5l-4 9q-5 3-5-5c-3 3-4 9-9 8-2-3-4-7-6-2q-2 6-6 2c-1-4-2-9-4-3q-2 7-7 4c-2-3 1-8-1-9-4 3-6 10-10 9l-1-11q-4 8-9 9c-2-2-1-8-1-9-5 3-9 8-14 5q5-13 18-12c12 0 25 5 37 1q5-2 5-7c-1-3 3-1 4-5q0-5 5-3l36 8q-1 13-11 10c-3-1-6-8-5-3zm-102-31c3 4 5 1 8-1q12-4 23-14 7-9 15-12c12-3 25 0 36-3 10-16 25-20 38-28q4-3 5-8 8-16 19-24 7-5 13-2 0 10-7 17l9-2q-2 10-8 15c2 1 7 1 4 4l-13 10q6 3 0 4-4 2-6 6 2 4-3 5-6 1-2 6-3 4-8 3 2 6-1 9-12 11-27 12 20 4 35-7c2-2 8-3 5-6l-7-5c6-4 13-2 19-4q-1-2-6-3-6-2 0-2 8-2 15-6l-12-3c7-3 14-3 20-8 2-4-3-3-5-3q-7-1-1-4 12-7 20-19c1-3 3-9-1-7-5 2-9 8-14 6q16-15 28-38-2-6-6-2-9 15-22 24 12-16 21-36 5-7 3-13-5-5-8 3-8 15-17 27c6-15 13-31 13-49q0-7-4-9-3 3-4 9-3 20-9 36 3-15 1-30-3-7-5 1c-7 44-28 80-57 99q-19 13-42 14h-12c-9 9-15 24-26 27-6 3-12 3-16 9zm35-39-5 12c-7-9-16-10-24-12q-12-1-20-12-8-12-17-22-10-3-16-13c-10-12-16-29-26-42l-6-8c-2 1-1 6-3 3q-4-2-5 0 5 9 6 19h-6q4 9 10 16h-7q6 8 13 12l1 7q5 1 3 4-3 4 1 6 4 1 5 4c-1 2-5 3-2 6l12 6-7 5a177 177 0 0 0 42 27q-19-4-35-17-8-7-17-12l8-3q-9-2-16-8 2-3 5-2 5-1 0-3-6-1-12-6 2-2 5-1l6-2c-6-5-14-3-20-12 0-3 4 0 5 0q6 2 11 1-15-9-27-25-3-4-1-7c6 3 10 10 16 10l-5-6q-14-16-23-37 2-7 6-1 10 15 21 27c3 2-2-2-2-4q-12-20-21-41-3-6 1-9 4-1 7 5 7 16 16 31c-5-16-12-34-12-52q-1-7 4-8c3 0 2 5 3 7q3 22 10 41l-2-30q2-5 5-2l3 16q13 56 46 93 28 29 60 37zm-26 40-1 2-1-2 1-2zm-1 0"/><path fill="#00afca" d="M510 650q0 1 0 0l1-1zm0 0"/><path fill="#fec50c" d="M67 219s-4-3-6 0c-2 5 7 23 8 31-1 13-6 18-14 23-5 3-13 4-14 4l6-6q-5-1-6-11c0-11 3-16 3-29 0-7-4-13-4-13 7-2 11 5 9 13l3-2-2 7 3-2q0 4-3 8 10-4 11 6-2 9-5 11h-3v4q-3 0-2-4l-3-1 3-3q-1-4 2-7c0 1-1 6 1 5q3 0 3-3 1-5-5-4-5 2-5 12t8 6q8-2 8-12c0-8-9-23-9-30q2-9 7-12c5-1 8 3 9 4zm1 147c0 14-9 24-16 27q-14 4-14-12-1-8 2-16l22-70 1-9q-1-9-8-7-7 3-8 13 0 10 5 8 6-1 5-7 0-2-2-2-3 5-2 6-2 0-2-4l-3-1 3-3q-1-4 2-6v3q6-4 7 5 0 12-10 15 3 1 3 5h-3l2 6q-1-1-4 1 4 10-8 21 4-9 4-16c0-16-3-17-3-28q0-7 5-15-3 0-5-3 10-6 17-6 8 0 9 5 3 4 0 19l-22 73-2 9q3 11 9 8 7-4 7-12 0-5-3-3-5 4-3 9-4-2-3-6l-5-2 5-5q-1-6 3-9-1 8 3 6 6-2 7 1l1-15v-3q-2-6-9 0 1-10 10-13-2 0-3-5 1-10 5-15zm0 41c0-14-9-17-16-15q-14 8-14 24-1 8 2 14l4 9 18 44 1 8q-1 9-8 13-7 1-8-7 1-10 5-12 6-2 5 3l-2 4q-3-2-2-5l-2 6-3 3 3 1q-1 4 2 4v-3q6 0 7-10 0-13-10-8l3-6-3 1 2-7-4 2q4-14-8-14 4 5 4 12c0 16-3 20-3 31q0 8 5 11l-5 6q10 0 17-7 8-6 9-11 3-6 0-20l-22-55-2-8q3-13 9-15 7-2 7 6 0 5-3 6-5 0-3-7-4 5-3 9l-5 5q3 2 5 1-1 7 3 7-1-6 3-9 6-2 7-6l1 18q-2 8-9 7 1 9 10 5-2 2-3 8 1 8 5 10zm-1-188s4-6 6-5c2 4-7 29-8 37 1 13 6 14 14 13l14-5q-2-3-6-2 5-4 6-15c0-11-3-15-3-27 0-7 4-16 4-17q-10 8-9 20h-3l2 6-3 1q0 3 3 5-10 2-10 14 0 7 5 7l2-2v4q3-2 2-6l3-3-3-1q1-4-2-5 1 3-1 6-3 2-3-2 1-4 5-6 5-2 5 8 0 9-8 12t-8-7c0-8 9-29 9-36q0-9-7-7c-5 3-8 9-9 10zm-1 148c0 14 9 17 16 15q14-6 15-22 0-8-3-14l-22-55-1-8q1-9 8-13 7-1 8 8 0 11-5 12t-5-4l2-4c3 0 2 5 2 5q3-2 2-5l3-3-3-2q1-4-2-4v3q-6 0-7 10 0 13 10 8-3 3-3 7l3-2-2 8 4-3c-2 8 0 16 8 16q-4-6-4-13c0-16 3-20 3-31q1-6-5-11 3-2 5-6-10 0-17 6-7 5-9 11c-1 3-3 12 0 19l22 57 2 9q-3 12-9 13-7 1-7-6 0-4 3-6 5 0 3 7 4-4 3-9 3-1 5-4-3-3-5-2 1-7-3-6 2 5-3 8-6 1-7 6l-1-16v-2q2-8 9-7-1-9-10-5 2-2 3-8-1-8-5-11zm0 41c0-14 9-24 16-26q14-3 15 13 0 8-3 16l-4 11-18 57-1 9q1 8 8 7 7-3 8-13 0-9-5-8-5 2-5 7 0 2 2 2 3-3 2-6 3 1 2 5l3 1-3 3q1 4-2 5v-3q-6 4-7-5 0-12 10-15-3 0-3-4h3q-2-2-2-7h4c-2-6 0-16 8-20q-4 8-4 15c0 16 3 18 3 29q0 6-5 14 3 0 5 3-10 5-17 5-7-1-9-5-3-4 0-20l22-71 2-9q-2-11-9-8t-7 11q0 5 3 3 5-3 3-8 4 2 3 6 3 0 5 2l-5 4q1 7-3 9 2-7-3-6-6 2-7-1l-1 18q2 6 9 1-1 9-10 12 3 0 3 5-1 10-5 14zm1 385c0 1-4 7-6 5-2-4 7-29 8-37-1-12-6-13-14-12l-14 5q2 4 6 2-5 6-6 16c0 11 3 14 3 27 0 6-4 17-4 17q11-9 9-21h3l-2-6 3-1q0-3-3-5 10-3 11-14-2-8-5-7l-3 2v-4q-3 2-2 6l-3 3 3 1q-1 4 2 5-1-3 1-7 3 0 3 2 0 4-5 7-5 2-5-8 0-9 8-12t8 6c0 8-9 30-9 37q2 8 7 6c5-2 9-9 9-9zm1-147c0-14-9-18-16-15q-14 7-14 24-1 7 2 13l4 9 18 44 1 8q-1 10-8 13-7 2-8-7 1-10 5-12 6-1 5 3 0 4-2 4c-3 1-2-4-2-4l-2 5-3 4 3 1q-1 4 2 4v-3q6-1 7-11 0-12-10-7 3-3 3-7l-3 2 2-8-4 3q4-14-8-15 4 6 4 13c0 16-3 20-3 31q0 7 5 10l-5 6q10-1 17-6 8-6 9-12c1-3 3-12 0-19l-22-56-2-8q3-12 9-14 7-1 7 6 0 5-3 5-5 2-3-6-4 5-3 9l-5 4q3 3 5 2-1 7 3 6-1-5 3-8 6-2 7-6l1 18q-2 7-9 7 1 9 10 5-2 1-3 7 1 9 5 11zm0-41c0 13-9 23-16 26q-14 5-14-12-1-7 2-16l22-70 1-8q-1-9-8-8-7 4-8 14 0 9 5 8 6-3 5-7 0-3-2-2-3 3-2 5-2 0-2-4l-3-1 3-3q-1-4 2-6v4q6-5 7 4 0 13-10 16 3 1 3 4h-3q2 2 2 7h-4c2 6 0 16-8 22q4-9 4-17c0-15-3-17-3-28q0-7 5-15v1q-3 0-5-3 10-7 17-6 8 0 9 4 3 6 0 20l-22 72-2 10q3 10 9 7 7-3 7-11 0-4-3-4-5 4-3 9-4-1-3-6l-5-1 5-5q-1-7 3-9-1 7 3 6 6-2 7 1l1-16v-2q-2-7-9-1 1-11 10-12-2-1-3-6 1-9 5-14zm-1 188s4 4 6 1c3-6-7-24-8-31 1-13 6-18 14-23l14-4q-2 5-6 6 5 2 6 12c0 11-3 16-3 28 0 7 4 14 4 15q-10-2-9-15l-3 2 2-7-3 1 3-7q-10 5-10-7 0-8 5-10h2v-4q3 0 2 4l3 1-3 3q1 4-2 7c0-1 1-6-1-6q-3 1-3 4 1 4 5 3 5-1 5-11 0-9-8-7-8 3-8 12c0 8 9 24 9 31q-1 8-7 11c-5 1-8-3-9-3zm-1-147c0-14 9-23 16-26q14-3 15 14l-3 15-4 12-18 57-1 8q1 9 8 8 7-3 8-13 0-10-5-8t-5 6q0 3 2 3 3-4 2-6 3 0 2 4l3 1-3 3q1 4-2 6v-3q-6 4-7-5 0-13 10-15-3-1-3-5h3q-2-2-2-7 1 2 4 1-4-12 8-21-4 9-4 16c0 15 3 17 3 28q0 8-5 15v-1l5 3q-10 6-17 5-7 1-9-5-3-4 0-19l22-71 2-10q-2-11-9-8t-7 11q0 4 3 4 5-4 3-9 4 1 3 6l5 2-5 5q1 6-3 9 2-7-3-7-6 2-7-1l-1 18q2 7 9 1-1 11-10 12 3 1 3 6-1 9-5 14zm0-41c0 14 9 18 16 16q14-6 15-23 0-7-3-14l-22-54-1-8q1-9 8-13 7-1 8 8 0 10-5 11-5 2-5-3 0-4 2-4c3 0 2 4 2 4q3-1 2-5l3-3-3-1q1-4-2-4v3q-6 0-7 10 0 12 10 8l-3 6 3-1-2 7 4-2q-4 14 8 15-4-6-4-13c0-16 3-19 3-30q1-8-5-11l5-6q-10 0-17 5t-9 11c-1 3-3 13 0 20l22 57 2 8q-3 12-9 14-7 1-7-7 0-5 3-5 5 0 3 7 4-4 3-9l5-5q-3-2-5-1 1-7-3-7 2 6-3 8-6 2-7 6l-1-15v-3q2-7 9-6-1-10-10-6 2-2 3-7-1-9-5-11z"/></svg>