<svg xmlns="http://www.w3.org/2000/svg" viewBox="0 0 1000 1000"><path fill="#00afca" d="M8 195.3c170.8-85.3 341-54.5 513.3-28C676.5 191 833.4 211.8 992 132.7v672c-170.8 85.3-341 54.5-513.3 28C323.5 809 166.6 788.1 8 867.2z"/><path fill="#fec50c" d="M605.8 461.6c-.2 50.2-29.4 86.3-66.2 81.1-36.7-5.8-66-50.4-66.2-100.6.2-50.2 29.4-85.4 66.2-80.2 36.7 5.9 66 49.5 66.2 99.7m-66.2-112c4 .2 5.3-2.4 5.4-6.7-.1-5.4-5.4-31.7-5.4-31.8 0 0-5.3 24.8-5.4 30.2.1 4.3 1.4 7.3 5.4 8.3m75.2 113c.3 5.6 2.4 7.5 5.5 8 4 .3 22.5-4.8 22.7-4.9-.1 0-18.8-9-22.7-9.8-3.2-.2-5.2 1.2-5.5 6.8M539.6 555c-4-.3-5.3 2.3-5.4 6.6a448 448 0 0 0 5.4 31.8s5.3-24.8 5.4-30.2c-.1-4.3-1.4-7.3-5.4-8.2m-75.2-114.3c-.3-5.6-2.4-7.6-5.5-8.3-4-.3-22.5 4-22.7 4.1.1 0 18.7 9.9 22.7 10.7 3.2.3 5.2-1 5.5-6.5m104-79.2c3.9 2.3 5.7.7 7-3 1.4-4.9 3.8-31 3.8-31s-12 19.1-13.7 23.9c-1 3.8-.7 7.2 2.9 10.1M609 501.3c-1.3 5 .2 8 3 10a188 188 0 0 0 23 7.7s-15.3-18.1-18.9-20.8c-3-1.8-5.3-1.7-7.1 3m-98.3 41.6c-3.9-2.3-5.7-.7-7 3-1.4 4.8-3.8 30.8-3.8 30.9s12-19 13.7-23.7c1-3.8.7-7.2-2.9-10.2M470 402.3c1.3-5-.2-8-3-10.1-3.8-2.5-23-8.5-23-8.5s15.3 18.7 18.9 21.5c3 2 5.3 1.8 7-2.9m122.8-15c3 4 5.3 3.5 7.7.9 2.6-3.6 12.1-25.6 12.2-25.6s-17 10.8-19.9 14.1c-2 2.9-2.7 6.1 0 10.5m0 145.3c-2.6 3.8-2 7.2 0 10.5 3 4.2 19.8 19.2 19.9 19.2s-9.6-24.3-12.2-28.6c-2.4-3.2-4.6-4.3-7.7-1m-106.4-15.8c-3.1-4.1-5.3-3.7-7.7-1.1a301 301 0 0 0-12.2 25.2s16.9-10.3 19.9-13.6c2-2.8 2.7-6 0-10.5m0-145.3c2.6-3.7 2-7 0-10.5-3-4.2-19.9-19.7-19.9-19.7s9.5 24.6 12.2 29c2.4 3.2 4.6 4.4 7.7 1.2M609 422.6c1.8 5.2 4.1 6 7.1 4.9a211 211 0 0 0 18.9-16.6c-.1 0-19.3 1-23 2.4-2.8 1.5-4.3 4-3 9.3m-40.7 128.9c-3.6 1.9-4 5.1-3 9.3 1.7 5.2 13.7 27.7 13.8 27.7 0 0-2.4-26.7-3.7-32-1.4-4-3.3-6.3-7.1-5M470 480.9c-1.9-5.2-4.2-6-7.1-5-3.6 1.8-18.8 15.8-19 15.9.2 0 19.3-.3 23.1-1.6 2.8-1.4 4.3-3.8 3-9.2m40.7-128c3.6-1.9 4-5.1 3-9.3a396 396 0 0 0-13.8-27.9s2.3 26.8 3.7 32c1.4 4.1 3.3 6.4 7.1 5.2m43.5.7c4 1.3 5.6-.9 6.3-5 .7-5.1-.8-31.8-.8-31.9s-8.8 22.4-9.8 27.5c-.4 4.2.4 7.5 4.3 9.4m59 128.8c-.4 5.4 1.4 7.9 4.4 9.2 4 1.3 23.1 1.4 23.3 1.4 0 0-17.4-13.9-21.2-15.6-3.1-1-5.4-.2-6.4 5M524.9 551c-4-1.4-5.6.8-6.4 4.9-.6 5.2 1 31.9 1 32 0-.1 8.7-22.4 9.7-27.5.4-4.2-.4-7.5-4.3-9.4m-59-130c.4-5.3-1.4-7.8-4.4-9.3-4-1.5-23.2-2.3-23.3-2.3 0 0 17.4 14.6 21.2 16.5 3.1 1 5.4.4 6.4-4.9m115.6-48c3.6 3.3 5.6 2.2 7.5-1 2-4.3 8.1-28.8 8.1-28.9 0 .1-14.7 15.3-17 19.4a9 9 0 0 0 1.4 10.5M602 518.2c-2 4.4-1 7.7 1.6 10.5a225 225 0 0 0 21.8 13.6s-12.6-21.6-15.8-25.2c-2.7-2.5-5-3-7.6 1m-104.3 13.2c-3.6-3.3-5.6-2.2-7.5 1-2 4.2-8.1 28.5-8.1 28.6 0 0 14.7-15 17-19 1.7-3.4 1.8-6.8-1.4-10.6M477 385.6a9 9 0 0 0-1.5-10.5 241 241 0 0 0-21.9-14.4s12.7 22.1 15.9 25.8c2.7 2.6 5 3.2 7.5-.9M602.1 404c2.6 4.7 4.9 4.8 7.6 3 3.2-2.8 15.8-21.5 15.8-21.6 0 0-18.4 6.1-21.8 8.5-2.5 2.2-3.6 5.1-1.6 10.1m-20.7 139.8c-3.2 2.9-3 6.3-1.5 10 2.4 4.8 17 24 17.1 24 0 0-6-26-8-30.9-2-3.7-4-5.4-7.6-3.1m-104.4-44c-2.5-4.8-4.8-5-7.5-3.2-3.2 2.7-15.8 21-15.9 21 .1 0 18.4-5.4 22-7.8 2.4-2 3.5-5 1.4-10m20.8-139.3c3.2-2.9 3-6.2 1.5-10.1-2.4-4.8-17.1-24.3-17.1-24.3s6 26.2 8 31.1c2 3.8 4 5.5 7.6 3.3m115.6 82c1 5.4 3.3 6.8 6.4 6.5a179 179 0 0 0 21.2-11c-.1 0-19.4-4.1-23.3-3.8-3 .7-4.9 2.7-4.3 8.2m-59.1 112.9c-4 .9-4.7 3.8-4.3 8.1a427 427 0 0 0 9.8 30.4s1.5-26.3.8-31.7c-.7-4.3-2.3-7-6.3-6.8M465.8 461c-1-5.5-3.3-6.9-6.4-6.7-4 .7-21 10-21.2 10.1.1 0 19.4 4.9 23.3 4.7 3-.6 4.9-2.5 4.3-8M525 349.2c4-.9 4.7-3.8 4.3-8.1-1-5.4-9.8-30.4-9.8-30.4s-1.5 26.2-.9 31.7c.8 4.2 2.4 7 6.4 6.8m2.9 297a16 16 0 0 0-5.2.5c-2.3.1-4.5.8-6.8 1h-2.5l.2 1.8q0 .9-.2 1.6t-.6 1.3q-.5.7-1.1 1t-1.3.3l-1.3-.5q-.7-.4-1.3-1.2l-1.3.1q-.8 0-1.3-.2l-1.4-.8-1.3-1.1c-1.7 1.1-3.4 2-4.5 4.3q-.7 1.5-.9 3.4 0 2.4.7 4.8c.3.3.4-1.3 1-1.7a7 7 0 0 1 3.2-1.7q1.3-.6.5 1.2c-.2.6-.7 2.5 0 1.6 3.5-1.4 7-1.3 10.7-1.1q7.8.2 15.7 1.4l14.7 2.6c2.4.5 4.7 1.4 7 1.3q1 .1 1.8-.4c-1.1-1-2.3-1.2-3.5-1.5l-9.3-1.5c-2.7-.7-5.3-1.2-7.8-2.9-.7-.5-1.2-1.3-2-.6q-1.3.5-2.8.4-2.6-.2-5-1.9 1.7-2.9 3.7-5.5l-3-1.3z"/><path fill="#fec50c" d="M604.4 680.5c-3.8 2-6.1-2.7-9.3-5-1.9 1.5-2.5 6.3-4.3 8.8-2.8 3-5-1.5-5-5.4-3 3.3-4.3 9.6-9 8.5-2.2-3.1-3.5-7.7-5.4-2.5-1.7 2.9-4.5 5.9-6.9 1.6-.6-4-1.7-8.4-3.4-2.7-1.4 4.3-4 6.5-7.6 4.4-1.4-2.8 1-8.3-.8-8.8-3.4 2.9-5.3 9.2-10 8.4-1.4-3.2.7-7.1-.9-10.7-2.4 4-4.9 9-9 9.2-1.5-2.7-.3-8.1-1.2-9.5-4.3 3-8.3 7.8-13.8 5.5 2.4-10.4 10.4-12.7 17.8-12.5 12.4 0 25.2 5.3 37.2 1 2.3-1.4 6-2.7 5-6.8-1-3 3.2-1.3 4.2-4.6 0-4.3 2.2-3.5 5.1-3.4 12 1 23.9 5.8 35.8 7.8.6 8.3-5.2 12.6-10.7 9.8-2.7-.6-5.9-8-5.5-2.4-.5 3.3-.4 7.1-2.3 9.3m-102-31.1c3 3.5 4.5.4 7.3-1a79 79 0 0 0 23.8-14.8c4.6-4.6 8.4-10.2 14.5-11.2 12-3 24.5-.9 36.5-3.7 9.3-15.6 24.4-19.8 37.4-28 3-1.3 4-4 5-7.6a66 66 0 0 1 19.6-24.5c4-2.4 8-3.5 12.5-2-.5 7-3.2 12.7-6.8 17.3 3 0 5.4-1.8 8.3-1.7.7 7.3-4.4 10.4-7.6 14.6 2 .7 7.5 1.6 4.5 3.9-4.4 3.7-9.4 6.3-13.5 10.6 3.8 1.5 4.1 2.4.3 4-2.3 1.7-5.6 2-6.4 5.7 2.4 3-1 4.4-3 5.2-3.2.8-6 2-2.2 5.8-1.8 3-4.6 3.2-7.5 2.7.9 4 1.9 7.5-1.4 9a41 41 0 0 1-26.4 11.9A41 41 0 0 0 632 639c2-2.1 7.9-3.4 4.5-6-2-1.3-5.5-2.9-6.2-4.9 5.8-3.8 12.5-1.9 18.7-3.9-.4-2.6-4.2-2.4-6.4-3.1-4.2-1-4-2.2.1-2.5 5.3-1.3 10.8-1.3 15.3-5.4-3.7-2.2-7.8-1.2-11.7-3.1 6.5-3 13.7-3 19.6-8.1 2-3.9-3-3.1-5.1-3-3.6.2-5-1.7-1.1-3.6 6.9-6.3 15.2-10.2 20.2-19.8 1.2-2.5 2.8-8.2-1-6.6-4.8 2.2-8.7 8.4-14.3 6.2a137 137 0 0 0 28.2-38c-.2-4.6-4.3-5.1-6.2-1.8-6.9 8.7-13.1 18.7-21.9 23.8 8.4-10.5 15.4-23 21.5-36.3 1.5-4.1 4.5-8.5 2.9-13.3-3.4-3.4-6.6-.9-8.5 3.3-5.3 9.3-9.5 20-16.3 27.2 6-15.2 12.2-31.4 12.4-49.5 0-4.1-.5-8.7-4.2-8.8-2.8 1-2.4 6.2-3.5 9.5-2.6 12.2-4 25.3-9.4 35.8 1.3-10 3.3-20.2 1.8-30.5-1.4-4.5-5.6-3.2-5.5 1.4-6.5 43.9-28 80.2-56.5 99.2a87 87 0 0 1-42.4 13.6c-4 .5-8.2-.5-12.1.6-9.2 8.4-14.9 23.2-26.5 26.8-5.4 2.7-11.8 2.6-15.8 8.5a8 8 0 0 0-.3 2.7"/><path fill="#fec50c" d="M537.3 609.9c-1.7 4-2.8 8.7-5 12.2-6.9-9.2-16.1-10.5-24.7-12.4-7.2-1.6-14.4-3.7-20-11.2-5.6-7.3-10.4-16.1-16.6-22.3a48 48 0 0 1-16.3-12.8c-9.9-12.6-15.8-29.7-25.4-42.6q-2.9-4-6.1-7.4c-1.9 1-1 5.8-3.5 3-1.6-1.4-4.3-2-4.9-.2a52 52 0 0 1 6.4 19.1c-2.2 0-5.5-1-6.7-.4a68 68 0 0 0 10 15.6c-2 .1-5.3-.4-6.2.4 4 5 8 9.7 13.1 11.7.8 2.2-1.1 5 .7 7.2 1.5 1 5 2.4 2.5 4.2-1.8 1.9-1.3 5.3 1.3 6 1.8 1.4 4.8 2.2 5.4 4.1-1.8 1.9-5.4 3.2-2 5.8a26 26 0 0 0 11.3 6.2c-2 1.9-4.4 3-6.5 4.7a177 177 0 0 0 41.4 27.6 96 96 0 0 1-34.5-17.7q-8.5-6.4-17.1-12c2.6-1.4 5.4-1.6 8-2.7-5.5-2.3-11.2-3.7-16.2-8.4 1-1.6 3.4-1.5 5-2 3-.7 4.7-1.4.7-2.5-4.3-2-8.7-2.2-12.5-6 .6-1.8 3.7-.9 5.6-1.4 2-.2 4-.3 5.7-1.8-6.6-4.4-14.5-3.3-19.8-11.5-.7-3 3.2-.4 5-.4 3.5.6 7 2.2 10.3 1-9.3-7-19.1-13.5-26.4-24.7-1-2.1-2.9-6-1.2-6.9 5.5 2.1 9.5 10 15.4 10 .3-1.5-3-4.2-4.5-6.5a181 181 0 0 1-23-37.2c.1-4.6 4.2-4.5 6-1 6.6 9.6 12.6 20.3 20.8 27.4 2.8 2.2-1.5-2.4-2.3-4a257 257 0 0 1-20.1-41.6c-1-3-2.3-7 .3-8.5 3.1-1.3 5.4 1.2 7.1 5 5.5 10.3 9.8 22.1 16.6 31.2-5.9-16.6-12-33.8-12.4-52 .2-3.8.3-8.2 3.8-8.1 2.9.3 2.5 4.4 3.4 7.4 2.9 13.6 4.3 28 10 40.6-1.4-10-3.1-20.3-2-30.2.6-3.3 2.8-3.8 4.8-1.6 1.3 5 1.8 10.8 3 16.2 7.5 35.7 24 68.3 45.7 92.2 18 19.5 39 32.6 60.7 37.8zM511 650q0 1.5-1.2 1.4-1-.2-1.1-1.7 0-1.5 1.1-1.4 1 .3 1.2 1.7"/><path fill="#fec50c" d="M510.2 649.8q0 .5-.5.5t-.4-.7q0-.6.4-.6.5.2.5.8"/><path fill="#00afca" d="M510.3 649.8q0 .7-.6.7-.5-.1-.5-.9 0-.7.5-.7t.6.9m-.2 0v-.4l-.4-.2q-.3-.1-.3.4t.3.6.4-.5"/><path fill="#fec50c" d="M67 219.2c-.3-.3-4.2-3.4-6.3-.4-2.1 5.4 7.7 23.1 8 31-.3 12.7-6 18-13.8 22.8-5.2 3-13.3 4.8-13.4 4.9 1.6-3.6 2.5-4.7 5.2-6.1-3-1.1-5.7-4-6-11.2.2-10.9 3.2-16.7 3.3-29-.2-6.8-4-13.5-4-13.7 7.3-1.6 10.5 5.5 8.7 13.9q1.7-.3 3-2.5.5 3-1.3 6.9c.9.2 1.5-.3 3-1.3a16 16 0 0 1-3.3 7.6c6.7-4.6 10.2-.3 10.4 6.4-.2 5.1-2.4 8.9-5 10.2q-1.3.3-2.5-.1-.5 2.4.2 4.3c-1.9 0-2.8-.8-2-4.3q-2.2.6-3.3-.7a6 6 0 0 1 3.2-3.3c-.8-2.6 0-4.3 1.8-6.4-.1.5-1 5.5 1.6 5.1 1.2-.5 2.1-1.3 2.2-3.8-.1-2.2-1.2-4.2-4.4-3-3.2 1.6-5.4 4.8-5.6 11.7.3 6.3 3.5 7.7 8.5 6.2 4.5-1.8 7.4-5.6 7.6-12-.2-8.2-8.3-23.5-8.6-30.8.3-5.6 3.5-9.5 7.1-11.1 4.8-1.2 8.2 2.9 8.4 3.2z"/><path fill="#fec50c" d="M68 366.1a30 30 0 0 1-16 26.6c-9.6 3.4-14.3-1.7-14.5-12 0-5.8.8-9.7 2.7-16l21.7-70c.8-2.5 1-5 1-8.6-.2-5.7-3.6-8.4-8-7.2-3.9 1.7-7.5 7.6-7.8 13.4.2 7 2.4 8.6 5.2 7.8 3.3-1.5 4.4-3.4 4.6-6.7-.1-2.2-.7-2.7-2-2.4-2.6 1.5-2 5.5-2 5.9-1.4 0-2.3-1.2-1.8-4q-1.5 0-2.7-1.2a9 9 0 0 1 2.7-3c-.5-2.9.2-4.4 2.1-5.9a8 8 0 0 0-.3 3.3c3.3-2.3 7.2-2.2 7.6 4.8-.2 7.3-3.5 13.8-10.2 15.3q2.3.8 2.6 4.5c-1.3-.1-2.6.2-2.6.2.8 1.6 1.8 2.8 1.8 6.5-1.3-.4-2.3-1.2-4 .3 2.4 6-.5 15.5-8.2 21.3q4-8.6 4.2-16c-.1-15.8-3.1-17.2-3.2-28.1 0-4.8 1.7-10.1 5.1-15v.1q-3.3 0-4.5-2.5c5.4-4.2 12.4-6.9 16.7-6.4a8 8 0 0 1 8.8 4.8c1 2.4 2.7 10.2 0 19.5l-22 72.3q-1.5 4.8-1.6 9.6c.4 8.1 5.2 8.6 8.5 7.5a14 14 0 0 0 7.4-11.4q0-4.7-2.9-3.8c-4 2-3.9 6-3 9.1q-4.1-1.1-3.8-6-2.1.6-4.1-1.5 1.4-3.4 4.1-4.8c-.5-4.5 1.4-7 3.7-9.2-.7 4-1.2 7.4 3.1 6.2 3.3-1.2 5.3-1.3 7 1l.3-15.8V346c-.3-5.4-5-3.4-8.8-.3 1.4-7 4-11 10.3-12.6-1.7-.5-3-1.6-3.2-5.5.2-5.3 3-11.6 5-14.2z"/><path fill="#fec50c" d="M68 407c-.3-13.8-8.6-17.3-16-14.7-9.5 4-14.3 13.4-14.5 23.7 0 5.8.8 9 2.7 13.8l3.6 8.7L62 483c.7 1.9 1 4.1 1 7.7a16 16 0 0 1-8 13.2c-4 1.3-7.6-1.5-8-7.3.3-7 2.6-10.5 5.3-11.9 3.4-1 4.4 0 4.6 3.3q-.2 3.1-2 3.8c-2.7.5-2-4-2-4.4a5 5 0 0 0-1.8 5.5q-1.6 1.1-2.7 3.3 1.1 1 2.7 1c-.6 3.2.1 4.1 2.1 4.1q-.5-1.5-.3-3c3.3-.3 7.2-3.4 7.6-10.6-.2-7.1-3.3-11.3-10.2-7.5q2.3-2.7 2.6-6.5c-1.3 1.1-2.6 1.7-2.6 1.7.8-2.2 1.8-4.1 1.8-7.8-1.3 1.4-2.3 2.9-4 2.8 2.4-7.9-.4-15.3-8.2-14.5q4 5.1 4.2 12.5c-.1 15.8-3.1 19.8-3.2 30.7q0 7.3 5.1 10.9v-.2a14 14 0 0 0-4.5 6.3c5.3-.3 12.5-3.2 16.7-6.8 4.7-2.8 7.7-8.3 8.8-11.3 1-3 2.7-12.1 0-19.4L45 423q-1.5-3.6-1.6-8.4c.4-8.3 5.2-12.8 8.5-14.3 4-1.2 7.1.9 7.4 5.8q-.1 4.7-2.9 6c-4.2 1-3.9-3-3-6.7q-4 4.3-3.8 8.8c-1.4 1-2.7 2.3-4.1 4.9 1.1 1.4 2.1 2 4.1 1.4-.5 5.1 1.3 6 3.7 6.3-.7-3.4-1-6.5 3.1-8.5 3.2-1.3 5.3-2.8 7-6l.3 18c-.3 5.5-5 7-8.8 7 1.5 5.8 3.8 7.8 10.3 5-1.6 1.5-3 3.8-3.2 7.6.2 5.3 3 9.4 5 10.7zm-1-187.8c.4-.6 4.3-6.4 6.4-5 2 4-7.7 28.7-8 36.7.3 12.7 6 13.8 13.8 13.2a60 60 0 0 0 13.4-4.7c-1.6-2.4-2.5-2.9-5.2-2.4a23 23 0 0 0 6-15.4c-.2-10.8-3.2-14.3-3.4-26.5.3-7 4-16.6 4.1-16.7-7.3 3.6-10.5 13-8.7 20q-1.7 1-3.1-.3a8 8 0 0 0 1.4 6c-1 .8-1.5.7-3 .7a7 7 0 0 0 3.3 5.4c-6.6.1-10.2 7-10.4 13.7.2 5 2.3 7.2 4.9 6.7a7 7 0 0 0 2.6-2q.5 2-.2 4.6c1.8-1.4 2.7-2.9 2-5.8a7 7 0 0 0 3.3-3q-1.2-1.6-3.2-1c.8-3.3 0-4.3-1.8-5.2.1.4.9 4.9-1.6 6.2-1.2.4-2.1.3-2.2-2.1.1-2.3 1.2-5.1 4.4-6.2 3.2-.7 5.3 1 5.5 7.8a13 13 0 0 1-8.4 12.2c-4.6 1.4-7.4-.4-7.7-6.6.3-8.2 8.4-29.7 8.7-36.9-.3-5.6-3.4-7.2-7.1-6.1-4.6 2-8.3 8.7-8.4 9z"/><path fill="#fec50c" d="M66 366.8c.4 13.7 8.7 17.4 16 15.3 9.6-3.4 14.4-11.9 14.6-22.3 0-5.7-.8-9-2.8-14L72.1 291c-.7-1.9-1-4.2-1-7.8.3-5.8 3.8-11 8-12.8 4-1.1 7.6 2 7.9 7.9-.2 7-2.5 10.3-5.2 11.4-3.4.9-4.4-.2-4.6-3.5q.1-3.1 1.9-3.7c2.8-.4 2 4 2 4.5 1.4-1 2.4-3 1.9-5.4q1.5-1 2.7-3-1.1-1.2-2.7-1.2c.5-3.3-.2-4.2-2.1-4.3q.5 1.5.2 3c-3.2.1-7.1 3-7.5 10.2.2 7.2 3.3 11.4 10.2 8a10 10 0 0 0-2.6 6.4c1.3-1 2.6-1.6 2.6-1.6-.8 2.2-1.8 4-1.8 7.8 1.3-1.3 2.3-2.8 4-2.6-2.4 7.8.4 15.2 8.2 15.5a22 22 0 0 1-4.2-13c.1-15.8 3.1-19.4 3.2-30.4q0-7.4-5.1-11.4v.2q3.2-2.3 4.5-5.8c-5.4-.3-12.4 2-16.7 5.4a23 23 0 0 0-8.9 11.1 35 35 0 0 0 0 19.5L89.1 352q1.5 3.8 1.6 8.5c-.4 8.3-5.2 12.3-8.5 13.6-4 1-7.2-1.3-7.5-6.2q.3-4.7 3-5.9c4.2-.8 3.9 3.2 3 7q4.1-4 3.7-8.7c1.5-.8 2.8-2 4.2-4.5-1.1-1.5-2.2-2.2-4.2-1.8.6-5-1.2-6-3.6-6.5.7 3.5 1 6.5-3.1 8.3a11 11 0 0 0-7 5.8l-.3-15.5v-2.5c.3-5.5 5-7 8.8-6.6-1.5-6-3.9-8.2-10.3-5.4 1.6-1.5 3-3.8 3.2-7.6-.3-5.3-3-9.5-5-10.7z"/><path fill="#fec50c" d="M66 407.7c.4-13.9 8.8-23.4 16-26 9.7-2.7 14.4 3.2 14.6 13.5a44 44 0 0 1-2.8 15.6l-3.6 11.3-18 57.2a26 26 0 0 0-1 8.5c.2 5.7 3.6 8.4 8 7.5 3.8-1.5 7.5-7 7.8-12.9-.2-6.9-2.4-8.8-5.2-8.1-3.4 1.2-4.4 3.1-4.6 6.4q.1 3.1 1.9 2.5c2.6-1.4 2-5.4 2-5.8 1.5.2 2.4 1.4 1.9 4.2q1.5 0 2.7 1.3a8 8 0 0 1-2.7 2.9c.5 2.9-.2 4.3-2.1 5.7a8 8 0 0 0 .2-3.3c-3.2 2-7.1 1.9-7.5-5.2.2-7.3 3.4-13.7 10.2-14.7q-2.3-1-2.6-4.7c1.3.2 2.6 0 2.6 0-.8-1.7-1.8-3-1.8-6.6 1.3.4 2.2 1.3 4 0-2.4-6.2.4-15.6 8.2-20.4A35 35 0 0 0 90 452c.1 15.8 3.1 17.5 3.2 28.5-.1 4.7-1.7 9.8-5.1 14.4v-.1a5 5 0 0 1 4.5 3 28 28 0 0 1-16.7 5 9 9 0 0 1-8.9-5c-1-2.3-2.6-10.2 0-19.4l22.1-71.2a35 35 0 0 0 1.6-9.5c-.4-8.1-5.2-9.1-8.5-8.3a13 13 0 0 0-7.5 11q.2 4.7 3 4c4-1.9 3.9-5.7 3-9q4.1 1.4 3.7 6.3 2.2-.2 4.2 2c-1.1 2.1-2.2 3.6-4.2 4.4.6 4.5-1.3 6.8-3.6 8.8.7-3.9 1.2-7.3-3.1-6.3-3.3 1-5.3 1-7-1.1l-.3 18.2c.3 5.4 5 3.6 8.8.7-1.5 7-4 10.7-10.3 12.3 1.6.5 3 1.6 3.2 5.5-.3 5.3-3 11.6-5 14.2zm1 385.5c-.3.5-4.2 6.3-6.3 5-2-3.9 7.7-28.8 8-36.8-.3-12.6-6-13.8-13.8-12.8-5.2 1-13.3 5.8-13.4 5.9 1.6 2.2 2.5 2.6 5.2 1.8-3 3.5-5.7 8.9-6 16 .2 10.9 3.2 14 3.3 26.2-.2 6.9-4 17-4 17.1a20 20 0 0 0 8.7-20.9q1.6-1 3 0 .5-3.2-1.3-5.7c1-1 1.5-1 3-1-.3-2.2-1-3.8-3.3-5.1 6.6-.7 10.2-7.5 10.4-14.3-.2-5-2.3-7.2-5-6.5q-1.2.5-2.5 2-.5-2 .2-4.5c-1.8 1.5-2.8 3-2 6a8 8 0 0 0-3.3 3.2q1.2 1.5 3.2.8c-.9 3.3 0 4.2 1.8 5-.1-.4-1-4.8 1.6-6.3 1.2-.4 2.1-.4 2.2 2a7 7 0 0 1-4.4 6.5c-3.2.9-5.4-.6-5.6-7.4a14 14 0 0 1 8.5-12.8c4.6-1.7 7.4 0 7.6 6.3-.2 8.2-8.3 30-8.6 37.2.3 5.6 3.4 7 7.1 5.9a25 25 0 0 0 8.4-9.2z"/><path fill="#fec50c" d="M68 645.5c-.3-13.8-8.6-17.3-16-14.7-9.5 4-14.3 13.4-14.5 23.8 0 5.7.8 9 2.7 13.7l3.6 8.7L62 721.4a22 22 0 0 1 1 7.8 16 16 0 0 1-8 13.1c-4 1.3-7.6-1.5-8-7.3.3-7 2.6-10.5 5.3-11.8 3.4-1.2 4.4 0 4.6 3.2q-.2 3.2-2 3.8c-2.7.5-2-4-2-4.4a6 6 0 0 0-1.8 5.5q-1.6 1.1-2.7 3.3 1.1 1 2.7 1c-.6 3.3.1 4.1 2.1 4.1q-.5-1.5-.3-3c3.3-.3 7.2-3.4 7.6-10.6-.2-7.1-3.3-11.3-10.2-7.5q2.3-2.7 2.6-6.5l-2.6 1.8c.8-2.2 1.8-4.2 1.8-7.9-1.3 1.4-2.3 3-4 2.8 2.4-7.8-.4-15.2-8.2-14.5q4 5.1 4.2 12.5c-.1 15.8-3.1 19.8-3.2 30.8 0 4.7 1.7 8.6 5.1 10.8v-.2a14 14 0 0 0-4.5 6.3c5.3-.3 12.5-3.2 16.7-6.8 4.7-2.8 7.7-8.3 8.8-11.3a35 35 0 0 0 0-19.4l-22-55.6q-1.5-3.6-1.6-8.4c.4-8.3 5.2-12.8 8.5-14.3 4-1.2 7.1.9 7.4 5.8q-.1 4.7-2.9 6c-4.2 1-3.9-3-3-6.7q-4 4.2-3.8 8.8-2 1.3-4.1 4.9c1.1 1.4 2.1 2 4.1 1.5-.5 5 1.3 5.9 3.7 6.2-.7-3.4-1-6.5 3.1-8.5 3.2-1.3 5.3-2.7 7-6l.3 18c-.3 5.5-5 7-8.8 7 1.5 5.8 3.8 7.9 10.3 5-1.6 1.5-3 3.8-3.2 7.7.2 5.2 3 9.3 5 10.6z"/><path fill="#fec50c" d="M68 604.7a30 30 0 0 1-16 26.5c-9.6 3.4-14.3-1.7-14.5-12 0-5.8.8-9.7 2.7-16l21.7-70c.8-2.5 1-5 1-8.6-.2-5.7-3.6-8.4-8-7.2-3.9 1.7-7.5 7.6-7.8 13.4.2 7 2.4 8.6 5.2 7.8 3.3-1.5 4.4-3.4 4.6-6.7q-.1-3.1-2-2.4c-2.6 1.5-2 5.5-2 5.9-1.4 0-2.3-1.2-1.8-4q-1.5 0-2.7-1.2a9 9 0 0 1 2.7-3c-.5-2.9.2-4.4 2.1-5.9a8 8 0 0 0-.3 3.3c3.3-2.2 7.2-2.2 7.6 4.9-.2 7.2-3.5 13.7-10.2 15.2q2.3.8 2.6 4.5c-1.3-.1-2.6.2-2.6.2.8 1.6 1.8 2.8 1.8 6.5-1.3-.4-2.3-1.1-4 .3 2.4 6-.5 15.5-8.2 21.3q4-8.6 4.2-16c-.1-15.8-3.1-17.2-3.2-28.1a27 27 0 0 1 5.1-15v.1q-3.3 0-4.5-2.5c5.4-4.2 12.4-6.9 16.7-6.4a8 8 0 0 1 8.8 4.8c1 2.4 2.7 10.3 0 19.5l-22 72.3a37 37 0 0 0-1.6 9.6c.4 8.1 5.2 8.7 8.5 7.5a14 14 0 0 0 7.4-11.4q0-4.6-2.9-3.8c-4 2.1-3.9 6-3 9.1q-4.1-1.1-3.8-6-2.1.6-4.1-1.5 1.4-3.4 4.1-4.8c-.5-4.5 1.4-7 3.7-9.1-.7 4-1.2 7.3 3.1 6.1 3.3-1.1 5.3-1.3 7 1l.3-15.8v-2.5c-.3-5.5-5-3.5-8.8-.4 1.4-7 4-11 10.3-12.6-1.7-.5-3-1.6-3.2-5.5.2-5.3 3-11.6 5-14.2zm-1 188.5c.4.2 4.3 3.4 6.4.5 2.1-5.5-7.7-23.3-8-31.1.3-12.8 6-18.1 13.8-22.5a46 46 0 0 1 13.4-3.7c-1.6 3.4-2.5 4.4-5.2 5.5 3 1.4 5.7 4.7 6 11.9-.2 10.8-3.2 16.3-3.4 28.5.3 6.9 4 14 4.1 14.2-7.3.7-10.6-6.5-8.7-14.7q-1.7.2-3.1 2.2-.4-3 1.4-6.8c-1-.3-1.5.2-3 1.1.3-2.2 1.1-4.5 3.3-7.4-6.7 4-10.2-.3-10.4-7 .2-5 2.4-8.8 4.9-10q1.5-.2 2.6.4.5-2.5-.2-4.4c1.8.2 2.7 1 2 4.4q2.1-.4 3.3 1-1.3 2.4-3.2 3c.8 2.7 0 4.3-1.8 6.3.1-.5 1-5.4-1.6-5.2-1.2.5-2.1 1.2-2.2 3.7.1 2.2 1.1 4.2 4.4 3.3 3.1-1.4 5.3-4.4 5.5-11.3-.2-6.3-3.4-8-8.4-6.8-4.5 1.5-7.4 5.3-7.7 11.7.3 8 8.4 23.8 8.7 31-.3 5.8-3.5 9.5-7.1 11-4.8 1-8.2-3-8.4-3.3z"/><path fill="#fec50c" d="M66 646.2c.4-13.9 8.8-23.5 16-26 9.7-2.7 14.4 3.2 14.6 13.5a44 44 0 0 1-2.8 15.6l-3.6 11.3-18 57.2a26 26 0 0 0-1 8.5c.2 5.7 3.6 8.4 8 7.5 3.8-1.5 7.5-7 7.8-12.8-.2-7-2.4-8.9-5.2-8.2-3.4 1.2-4.4 3.1-4.6 6.4q.1 3.1 1.9 2.5c2.6-1.4 2-5.4 2-5.8 1.5.2 2.4 1.4 1.9 4.2q1.5 0 2.7 1.3a8 8 0 0 1-2.7 2.9c.5 2.9-.2 4.3-2.1 5.7a8 8 0 0 0 .2-3.3c-3.2 2-7.1 1.9-7.5-5.2.2-7.3 3.4-13.7 10.2-14.7q-2.3-1-2.6-4.7c1.3.2 2.6 0 2.6 0-.8-1.7-1.8-3-1.8-6.6 1.3.4 2.2 1.3 4 0-2.4-6.2.4-15.6 8.2-20.4a35 35 0 0 0-4.2 15.5c.1 15.8 3.1 17.5 3.2 28.5-.1 4.7-1.7 9.8-5.1 14.4v-.1a5 5 0 0 1 4.5 3 28 28 0 0 1-16.7 5 9 9 0 0 1-8.9-5c-1-2.3-2.6-10.2 0-19.4l22.1-71.2q1.5-4.7 1.6-9.5c-.4-8.1-5.2-9.1-8.5-8.3a13 13 0 0 0-7.5 11q.2 4.7 3 4c4-1.9 3.9-5.7 3-9q4.1 1.4 3.7 6.3 2.2-.2 4.2 2c-1.1 2.1-2.2 3.6-4.2 4.4.6 4.5-1.3 6.8-3.6 8.8.7-3.9 1.2-7.3-3.1-6.3-3.3 1-5.3 1-7-1.1l-.3 18.2c.3 5.4 5 3.5 8.8.7-1.5 7-4 10.7-10.3 12.3 1.6.5 3 1.6 3.2 5.5-.3 5.3-3 11.6-5 14.2z"/><path fill="#fec50c" d="M66 605.4c.4 13.7 8.7 17.3 16 15.2 9.6-3.3 14.4-11.9 14.6-22.3 0-5.7-.8-9-2.8-14l-21.7-54.7c-.7-2-1-4.2-1-7.9.3-5.8 3.8-11 8-12.8 4-1.1 7.6 2 7.9 7.9-.2 7-2.5 10.3-5.2 11.4-3.4.9-4.4-.2-4.6-3.5q.1-3.1 1.9-3.7c2.8-.4 2 4 2 4.5 1.4-1 2.4-3 1.9-5.4q1.5-1 2.7-3-1.1-1.2-2.7-1.2c.5-3.3-.2-4.2-2.1-4.3q.5 1.5.2 3c-3.2.1-7.1 3-7.5 10.2.2 7.2 3.3 11.4 10.2 8a10 10 0 0 0-2.6 6.4c1.3-1 2.6-1.5 2.6-1.6-.8 2.2-1.8 4-1.8 7.8 1.3-1.3 2.3-2.8 4-2.6-2.4 7.8.4 15.2 8.2 15.5a22 22 0 0 1-4.2-13c.1-15.8 3.1-19.4 3.2-30.4q0-7.4-5.1-11.4v.2q3.2-2.3 4.5-5.8c-5.4-.3-12.4 2-16.7 5.5-4.7 2.6-7.7 8-8.9 11a35 35 0 0 0 0 19.5l22.1 56.7q1.5 3.8 1.6 8.5c-.4 8.3-5.2 12.3-8.5 13.6-4 1-7.2-1.3-7.5-6.2q.3-4.7 3-5.9c4.2-.8 3.9 3.2 3 7q4.1-4 3.7-8.7c1.5-.8 2.8-2 4.2-4.5-1.1-1.4-2.2-2.2-4.2-1.8.6-5-1.2-6-3.6-6.5.7 3.5 1 6.5-3.1 8.3a11 11 0 0 0-7 5.8l-.3-15.5v-2.5c.3-5.5 5-7 8.8-6.6-1.5-6-3.9-8.2-10.3-5.4 1.6-1.5 3-3.8 3.2-7.6-.3-5.3-3-9.5-5-10.7z"/><path fill="#1a1a1a" d="M8 195.3c170.8-85.3 341-54.5 513.3-28C676.5 191 833.4 211.8 992 132.7v672c-170.8 85.3-341 54.5-513.3 28C323.5 809 166.6 788.1 8 867.2zm31.3 19.3v604.5c306.5-128.2 611.1 96 921.5-33.7V180.9C654.2 309 349.5 84.9 39.3 214.6" opacity=".2"/></svg>