<svg xmlns="http://www.w3.org/2000/svg" viewBox="0 0 1000 1000"><path fill="#002b7f" d="M8 195.3c170.8-85.3 341-54.5 513.3-28C676.5 191 833.4 211.8 992 132.7v672c-170.8 85.3-341 54.5-513.3 28C323.5 809 166.6 788.1 8 867.2z"/><path fill="#ce1126" d="M8 531.3c170.8-85.3 341-54.5 513.3-28C676.5 527 833.4 547.8 992 468.7v336c-170.8 85.3-341 54.5-513.3 28C323.5 809 166.6 788.1 8 867.2z"/><path fill="#ffd83d" d="m221 277.4-1.9 70a606 606 0 0 0-62.4 7c-7.7-15.9-13.9-29-14-48.6a34 34 0 0 1 27.6-33.8c17.3-2.3 36 2.5 50.6 5.4"/><path d="M150.9 288.5V329q0 .9-.8 1-.7.1-.7-.7v-40.4q0-.9.7-1 .8-.1.8.7m5-5v53.8q0 .9-.7 1-.8.1-.8-.7v-53.8q0-.9.8-1 .7-.1.7.7m5-3.6v64q0 1-.7 1-.7.1-.8-.7v-64q0-1 .8-1 .7-.1.7.7m5-2v50q0 .8-.7 1-.7 0-.8-.8V278q0-.8.8-1 .7 0 .7.8m5-1v50.8q0 .9-.7 1t-.7-.8V277q0-.7.7-.9.7 0 .7.7m5-2.4v52.5q0 .8-.7 1-.7 0-.7-.8v-52.5q0-.8.7-1 .7 0 .7.8m5-.6v52.5q0 .8-.7 1-.7 0-.7-.8V274q0-.9.7-1t.8.8m5 0v52.4q0 .9-.8 1-.7 0-.7-.8v-52.5q0-.9.7-1t.8.8m5 0v52.5q0 .8-.8 1-.7 0-.7-.8v-52.6q0-.7.7-.9.7 0 .8.8m5 2.8V329q0 .9-.7 1-.9 0-.8-.8v-52.5q0-.9.7-1 .9 0 .8.8m5 0v59.3q0 .8-.7.9-.9 0-.8-.8v-59.2q0-.8.8-.9.7 0 .7.8m5-.4v52.5q0 .8-.7.9t-.8-.8v-52.5q0-.8.8-1 .7 0 .7.9m5-.4v52.5q0 .8-.7.9t-.8-.8V276q0-.8.8-.9.7 0 .7.8"/><path d="M181.6 275.9c11 1 33.4 11 31.2 28.2-4 23.9-15.8 15.5-32.1 13.8l-12.2 6.3c-4.7 5.9-10.5 11-15.2 6l-7.2 1.3v32.1q39.4-7.1 80-9v-77.8q-22-1.2-44.5-.9"/><path d="M181.5 276.7q-.7 0-.7-.8 0-.4.3-.6t.5-.2q22-.4 44.6.9.6 0 .6.8v77.7q0 .8-.7.9c-26.4 1.3-52.8 4-80 9q-.7.2-.8-.6v-32.2q0-.9.8-1l7.2-1.3q.4 0 .6.2c2 2.2 3.8 2.5 6.7 1a27 27 0 0 0 7.6-7l12.2-6.3h.4q3 .1 8.9 1.3 10.6 2 14.5.5c4-1.8 6.4-6.4 7.8-15 1-7.3-2.2-13.5-10.3-19.5a41 41 0 0 0-20.3-7.8m8.7 0q6.3 2 12.5 6.4c8.5 6.3 12 13 10.9 21.1-1.6 9.3-4.3 14.3-9 16.4q-4 1.6-15.2-.5-5.5-1-8.6-1.3l-11.8 6a28 28 0 0 1-7.8 7.3c-3.5 1.7-5.7 1.4-8.1-1l-6.2 1v30.5c26-4.7 51.9-7.5 78.6-8.8v-76.2q-17.4-1-35.3-1"/><path fill="#ffd83d" d="M222.3 266.9q-.5 5-4.9 5.8-4.3-.3-4.9-5.2.5-5.1 5-5.9 4.3.3 4.8 5.3"/><path d="M223.3 266.8q0 2.8-1.8 4.8a6 6 0 0 1-4 2.2q-2.6 0-4.2-1.7a7 7 0 0 1-1.7-4.6q0-2.7 1.7-4.8a6 6 0 0 1 4.1-2.2q2.5 0 4.1 1.7a7 7 0 0 1 1.8 4.6m-2 .1c-.2-3-1.2-4.2-3.9-4.2a4 4 0 0 0-2.7 1.5q-1.1 1.4-1.2 3.2c.2 3 1.2 4.2 4 4.2 2.6-.4 3.6-1.6 3.8-4.7"/><path fill="#ffd83d" d="M211.4 264.6q-.5 5-5 5.8-4.3-.1-4.8-5 .4-5.1 4.9-6 4.4.2 4.8 5.2"/><path d="M212.3 264.5q0 2.7-1.7 4.8a6 6 0 0 1-4.1 2.3q-2.5.1-4.1-1.6a7 7 0 0 1-1.8-4.6q0-2.8 1.8-4.8a6 6 0 0 1 4-2.3q2.6-.2 4.2 1.6a7 7 0 0 1 1.7 4.6m-2 .1q.1-4.4-3.8-4.1a4 4 0 0 0-2.8 1.5q-1 1.4-1 3.2t1 3 2.8 1.1q1.6-.2 2.7-1.5 1.1-1.5 1.2-3.2"/><path fill="#ffd83d" d="M200.3 262.3q-.5 5-4.9 6-4.4-.1-4.9-5.1.5-5.1 4.9-6 4.4.1 4.9 5"/><path d="M201.3 262.2a8 8 0 0 1-1.8 4.8 6 6 0 0 1-4.1 2.4 5 5 0 0 1-4.1-1.6 7 7 0 0 1-1.7-4.5 8 8 0 0 1 1.7-4.9 6 6 0 0 1 4.1-2.3 5 5 0 0 1 4.1 1.5 7 7 0 0 1 1.7 4.6m-2 .2q0-1.9-1-3-1.2-1.3-2.8-1.1t-2.7 1.6-1.2 3.2 1.2 3 2.7 1a4 4 0 0 0 2.7-1.5q1.1-1.5 1.2-3.2"/><path fill="#ffd83d" d="M189.1 261.2q-.4 5-4.8 6.1-4.5 0-4.9-5c.2-3.2 2-5.5 4.9-6q4.4 0 4.8 5"/><path d="M190.1 261.1a8 8 0 0 1-1.7 5 6 6 0 0 1-4.1 2.3 5 5 0 0 1-4.2-1.4 7 7 0 0 1-1.7-4.5q0-2.8 1.7-5a6 6 0 0 1 4.2-2.4 5 5 0 0 1 4.1 1.5 7 7 0 0 1 1.7 4.5m-2 .2c0-3-1.1-4-3.8-4q-1.6.3-2.8 1.7-1 1.4-1.1 3.2 0 4.3 3.9 4c2.6-.5 3.7-1.8 3.8-4.9"/><path fill="#ffd83d" d="M178 261.3q-.4 5-4.9 6.1-4.3.2-4.8-4.8.4-5.1 4.8-6.2 4.5 0 5 4.9"/><path d="M179 261.2q0 2.7-1.7 4.9a7 7 0 0 1-4.2 2.5q-2.3.2-4-1.4a6 6 0 0 1-1.8-4.5q0-2.7 1.7-5a7 7 0 0 1 4.2-2.4q2.3-.3 4 1.4a6 6 0 0 1 1.8 4.5m-2 .2q0-1.8-1.1-3-1.1-1-2.7-.9c-2.7.5-3.8 1.9-4 5q.1 4.3 4 3.8c2.6-.5 3.7-1.8 3.8-4.9"/><path fill="#ffd83d" d="M167.1 263.5q-.4 5-4.9 6.2-4.3.2-4.8-4.7c.2-3.3 2-5.7 4.8-6.3q4.5-.2 4.9 4.8"/><path d="M168 263.3a8 8 0 0 1-1.6 5 7 7 0 0 1-4.2 2.5q-2.3.4-4-1.3a6 6 0 0 1-1.8-4.4q0-2.7 1.7-5a7 7 0 0 1 4.1-2.6q2.5-.4 4.2 1.4a6 6 0 0 1 1.7 4.4m-2 .3q0-1.8-1.1-3-1.1-1-2.8-.8-3.8.6-3.8 5 0 1.8 1.1 3 1.1 1 2.7.8t2.8-1.7q1-1.4 1.1-3.3"/><path fill="#ffd83d" d="M156.7 269.1q-.4 5-4.9 6.4-4.4.2-4.8-4.7.4-5 4.8-6.4 4.5-.2 4.9 4.7"/><path d="M157.7 269q0 2.7-1.7 5a7 7 0 0 1-4.2 2.6q-2.4.4-4-1.2a6 6 0 0 1-1.8-4.4q0-2.8 1.7-5a7 7 0 0 1 4.1-2.7q2.5-.4 4.2 1.2a6 6 0 0 1 1.7 4.5m-2 .3q0-4.3-3.9-3.8-1.5.4-2.7 1.8-1 1.4-1.1 3.3c.1 3 1.1 4 3.8 3.8 2.7-.7 3.8-2 4-5.1"/><path fill="#ffd83d" d="M148 278c-.3 3.2-2.1 5.6-5 6.4q-4.4.3-4.8-4.6c.2-3.2 2-5.7 4.9-6.5q4.4-.3 4.8 4.7"/><path d="M149 277.8q-.2 2.7-1.8 5a7 7 0 0 1-4.1 2.7q-2.5.5-4.2-1.1a6 6 0 0 1-1.7-4.4q0-2.7 1.8-5a7 7 0 0 1 4-2.8q2.6-.4 4.2 1.2a6 6 0 0 1 1.7 4.4m-2 .4a4 4 0 0 0-1-3 3 3 0 0 0-2.8-.7q-1.6.3-2.8 1.8-1 1.4-1.1 3.3a4 4 0 0 0 1.1 3 3 3 0 0 0 2.8.7c2.6-.7 3.7-2 3.9-5.1"/><path fill="#ffd83d" d="M141.7 289.4q-.4 5-4.8 6.5-4.5.3-4.9-4.6c.2-3.2 2-5.7 4.9-6.5q4.3-.4 4.8 4.6"/><path d="M142.7 289.2q0 2.7-1.7 5a7 7 0 0 1-4.1 2.8q-2.5.4-4.2-1.1a6 6 0 0 1-1.7-4.4q0-2.7 1.7-5a7 7 0 0 1 4.2-2.8q2.4-.5 4 1a6 6 0 0 1 1.8 4.5m-2 .3a4 4 0 0 0-1.1-2.9 3 3 0 0 0-2.7-.7c-2.7.7-3.8 2.1-4 5.2a4 4 0 0 0 1.2 2.9 3 3 0 0 0 2.8.7q1.5-.3 2.7-1.8 1.1-1.4 1.1-3.3"/><path fill="#ffd83d" d="M138.7 302c-.2 3.2-2 5.7-4.8 6.5q-4.5.4-4.9-4.5.4-5.1 4.9-6.6 4.3-.3 4.8 4.6"/><path d="M139.7 301.8q0 2.7-1.7 5a7 7 0 0 1-4.1 2.8q-2.5.5-4.2-1a6 6 0 0 1-1.7-4.4 9 9 0 0 1 1.7-5 7 7 0 0 1 4.2-2.9q2.4-.5 4.1 1.1a6 6 0 0 1 1.7 4.4m-2 .4a4 4 0 0 0-1-3 3 3 0 0 0-2.8-.6c-2.7.7-3.8 2.1-4 5.2a4 4 0 0 0 1.2 2.9 3 3 0 0 0 2.8.7q1.5-.4 2.7-1.9 1.1-1.4 1.1-3.3"/><path fill="#ffd83d" d="M138.8 314.4q-.4 5.1-4.8 6.6-4.5.4-4.9-4.6c.2-3.2 2-5.7 4.9-6.5q4.3-.4 4.8 4.5"/><path d="M139.8 314.2q0 2.9-1.7 5a7 7 0 0 1-4.1 2.9q-2.5.5-4.2-1.1a6 6 0 0 1-1.7-4.3 9 9 0 0 1 1.7-5.1 7 7 0 0 1 4.2-2.8q2.4-.5 4.1 1a6 6 0 0 1 1.7 4.4m-2 .4a4 4 0 0 0-1-2.9 3 3 0 0 0-2.8-.7q-1.6.4-2.8 1.9a6 6 0 0 0-1.1 3.3q0 4.4 3.9 3.6 1.6-.3 2.7-1.8t1.2-3.4"/><path fill="#ffd83d" d="M141 326.3q-.6 5-5 6.4-4.4.4-4.8-4.5c.2-3.2 2-5.7 4.9-6.5q4.4-.4 4.8 4.6"/><path d="M142 326q-.2 2.9-1.8 5a7 7 0 0 1-4.1 2.9q-2.5.4-4.2-1.1a6 6 0 0 1-1.7-4.4q0-2.7 1.7-5a7 7 0 0 1 4.2-2.8q2.4-.5 4.1 1a6 6 0 0 1 1.7 4.5m-2 .3a4 4 0 0 0-1-2.9 3 3 0 0 0-2.8-.7q-1.6.4-2.8 1.9-1 1.4-1.1 3.3 0 4.4 3.9 3.6 1.5-.3 2.7-1.8t1.1-3.4"/><path fill="#ffd83d" d="m219.6 274.4-.5 7.2C207 280 190 274 174 276c-15 2.2-26 10.7-26.2 27.8a89 89 0 0 0 14.4 45l-8.6 6c-7.7-15.8-13.9-28.9-14-48.4.3-16.6 11.2-34.6 30.8-37.6 17.3-2.3 34.7 2.6 49.3 5.5"/><path d="m220.5 274.4-.4 7.2q0 .5-.3.8t-.8.3q-4.5-.6-14.8-2.8a99 99 0 0 0-30.3-2.7 32 32 0 0 0-18.1 8q-7 7-7.2 18.5a91 91 0 0 0 14.4 44.4q.5.8-.4 1.6l-8.6 6q-1 .7-1.3-.2-7.3-14.9-10-22.9-4-12.6-4.2-26 0-13.3 8.4-24.7c6.2-8 13.7-12.7 23.4-14.2 8.9-1.1 21.7-.3 38.7 3.3l10.8 2.2q.7.2.7 1.2m-2 .9-10-2.1a120 120 0 0 0-38.2-3.2 33 33 0 0 0-22 13.2q-7.7 10.5-7.8 23 0 13 4 25.3a198 198 0 0 0 9.5 21.8l6.7-4.8a92 92 0 0 1-14-44.4 28 28 0 0 1 8-20.6q7-6.7 19.2-8.5 10.4-1.5 30.8 2.7l13.5 2.6z"/><path fill="#ffd83d" d="m232 276.8 1.7 70q30.8-1.1 62.4.2c7.7-16.7 14-30.6 14-50.2-.2-16.6-11-29.8-27.5-30.5-17.3-.4-36.1 6.2-50.7 10.5"/><path d="M302 280.5V321q0 .8.7 1 .7 0 .7-.9v-40.4q0-.8-.7-.9t-.7.8m-5-4.3V330q0 .9.7.8t.7-.8v-53.8q0-.8-.7-.8t-.8.8m-5-3v64q0 .9.8.9.7 0 .7-.8v-64.1q0-.8-.7-.9t-.8.8m-5-1.5V322q0 .8.8.9.7 0 .7-.8v-50.3q0-.8-.7-.9-.9 0-.8.8m-5-.4V322q0 .8.7.9t.8-.8v-50.8q0-.8-.8-.9-.7 0-.7.9m-5-2V322q0 .9.7.8t.8-.8v-52.5q0-.8-.8-.9-.7 0-.7.9m-5-.1v52.5q0 .9.7.8t.8-.8v-52.5q0-.8-.8-.9-.7 0-.7.9m-5 .4v52.5q0 .9.7.9t.7-.8v-52.6q0-.8-.7-.8t-.7.8m-5 .5v52.5q0 .8.7.9t.7-.9v-52.5q0-.9-.7-.8t-.7.8m-5 3.4V326q0 .9.7.8t.7-.8v-52.5q0-.8-.7-.9t-.8.9m-5 .5v59.2q0 .8.8.9.7 0 .7-.9V274q0-.9-.7-.8t-.8.8m-5 .1v52.5q0 .9.8.8.7 0 .7-.8v-52.5q0-.9-.7-.8t-.8.8m-5 .1v52.5q0 .9.7.8.9 0 .8-.8v-52.5q0-.9-.8-.8-.7 0-.7.8"/><path d="M271.3 271.5c-11 2-33.4 14.3-31.2 31.3 4 23.5 15.7 14 32 10.6l12.3 5c4.6 5.3 10.4 9.8 15.1 4l7.3.5V355a796 796 0 0 0-80-.5v-77.7q21.8-3.3 44.5-5.3"/><path d="M271.4 272.3q.7-.1.6-1l-.2-.5-.6-.2q-22 2-44.5 5.4-.7 0-.7.8v77.8q0 .8.7.8 39.4-1.9 80 .5.9 0 .8-.8v-32.2q0-.8-.7-.9l-7.3-.3q-.3 0-.5.2c-2 2.4-3.9 3-6.8 1.9q-3.4-1.5-7.3-6l-.3-.3-12.2-4.9h-.4q-3 .6-8.8 2.3-10.8 3-14.5 2c-4-1.5-6.5-5.8-8-14.3-.9-7.2 2.4-13.7 10.4-20.4a46 46 0 0 1 20.3-10m-8.6 1a56 56 0 0 0-12.5 7.6c-8.6 7.2-12 14.2-11 22.2 1.6 9.1 4.4 13.8 9 15.5 2.9.8 7.7.2 15.2-2q5.6-1.6 8.6-2.2L284 319q4 4.7 7.7 6.4c3.5 1.2 5.8.7 8.2-2l6.1.3V354c-26-1.3-51.8-1.7-78.5-.4v-76.2q17.4-2.6 35.3-4.4"/><path fill="#ffd83d" d="M230.6 266.5q.4 5 4.8 5.3 4.5-.6 4.9-5.7-.4-5-4.9-5.3-4.4.6-4.8 5.7"/><path d="M229.6 266.5a7 7 0 0 0 1.7 4.6 5 5 0 0 0 4.1 1.8q2.5 0 4.2-2a8 8 0 0 0 1.7-4.8q0-2.7-1.7-4.7a5 5 0 0 0-4.2-1.8q-2.4.2-4.1 2.1a8 8 0 0 0-1.7 4.8m2 0q-.1-4.5 3.8-4.6 1.6 0 2.8 1.2 1 1.3 1.1 3c-.1 3.1-1.2 4.3-3.9 4.6q-3.8.2-3.8-4.3"/><path fill="#ffd83d" d="M241.5 263.1q.4 5 4.9 5.4 4.3-.6 4.8-5.6-.4-5-4.8-5.4-4.5.6-5 5.6"/><path d="M240.5 263.1a7 7 0 0 0 1.7 4.7 5 5 0 0 0 4.2 1.9q2.3-.1 4-2a7.3 7.3 0 0 0 0-9.5 5 5 0 0 0-4-1.9q-2.5.2-4.2 2a7 7 0 0 0-1.7 4.8m2 0q0-4.4 3.8-4.5 1.7 0 2.8 1.2 1 1.4 1.1 3.1 0 1.8-1.1 3.2-1.1 1.3-2.7 1.3t-2.8-1.2-1.1-3.1"/><path fill="#ffd83d" d="M252.6 259.7q.4 5 4.8 5.5 4.5-.5 4.9-5.5c-.2-3.2-2-5.3-4.9-5.5q-4.4.5-4.8 5.5"/><path d="M251.6 259.8q0 2.6 1.7 4.6a6 6 0 0 0 4.1 2q2.5-.1 4.2-2a7 7 0 0 0 0-9.4 6 6 0 0 0-4.2-2q-2.4.1-4.1 2a7 7 0 0 0-1.7 4.8m2 0q0-1.9 1-3.2 1.3-1.3 2.8-1.3 1.7 0 2.8 1.3t1.1 3q0 2-1.1 3.2t-2.8 1.3q-1.5 0-2.7-1.3t-1.1-3"/><path fill="#ffd83d" d="M263.7 257.6q.4 5 4.9 5.5 4.3-.5 4.8-5.4-.4-5-4.8-5.6-4.5.4-4.9 5.5"/><path d="M262.7 257.6q0 2.7 1.7 4.7a6 6 0 0 0 4.2 2q2.3 0 4-2a7 7 0 0 0 0-9.4 6 6 0 0 0-4-2q-2.5.1-4.2 2a7 7 0 0 0-1.7 4.7m2 0q0-4.4 3.9-4.4 1.5 0 2.7 1.3 1.1 1.4 1.1 3.2c-.1 3-1.1 4.2-3.8 4.3-2.7-.2-3.8-1.3-4-4.4"/><path fill="#ffd83d" d="M274.8 256.5q.4 5 4.9 5.6 4.3-.4 4.9-5.4-.5-5.1-5-5.7-4.3.4-4.8 5.5"/><path d="M273.8 256.4q.1 2.8 1.7 4.8 1.8 1.9 4.2 2 2.4 0 4.1-1.8a7 7 0 0 0 1.7-4.7q0-2.7-1.7-4.7a6 6 0 0 0-4.1-2.1q-2.5 0-4.2 1.9a7 7 0 0 0-1.7 4.6m2 0q0-1.7 1.1-3 1.2-1.2 2.8-1.3c2.7.3 3.7 1.5 3.9 4.6-.2 3-1.2 4.2-4 4.3q-3.8-.1-3.8-4.5"/><path fill="#ffd83d" d="M285.7 257.4q.5 5.1 4.9 5.7 4.3-.2 4.9-5.3-.5-5.1-5-5.7-4.3.2-4.8 5.3"/><path d="M284.8 257.4q0 2.7 1.7 4.8t4 2q2.6 0 4.2-1.8a7 7 0 0 0 1.7-4.6q0-2.7-1.7-4.8a6 6 0 0 0-4.1-2q-2.4 0-4.1 1.7a7 7 0 0 0-1.8 4.7m2 0q0-1.7 1.2-3t2.7-1.2c2.7.2 3.7 1.5 3.9 4.5q0 1.8-1.2 3.1-1.1 1.2-2.7 1.2t-2.7-1.4a5 5 0 0 1-1.2-3.1"/><path fill="#ffd83d" d="M296.1 261.9q.5 5 4.9 5.7 4.4-.2 4.9-5.3-.5-5-5-5.8-4.3.4-4.8 5.4"/><path d="M295.2 261.8q0 2.8 1.7 4.8t4 2.1q2.6 0 4.2-1.7a7 7 0 0 0 1.7-4.6q0-2.8-1.7-4.8a6 6 0 0 0-4.1-2.2q-2.4 0-4.1 1.8a7 7 0 0 0-1.8 4.6m2 .1c.2-3 1.2-4.2 3.9-4.2q1.6 0 2.7 1.4t1.2 3.2c-.2 3-1.2 4.2-4 4.2-2.6-.3-3.6-1.5-3.8-4.6"/><path fill="#ffd83d" d="M304.9 269.6q.4 5 4.9 5.8 4.4-.2 4.8-5.2-.5-5-4.8-5.9-4.4.3-5 5.3"/><path d="M304 269.6q0 2.7 1.6 4.7a6 6 0 0 0 4.2 2.2q2.3.1 4-1.7a7 7 0 0 0 1.8-4.6q0-2.7-1.7-4.8a6 6 0 0 0-4.1-2.2q-2.5 0-4.2 1.7a7 7 0 0 0-1.7 4.7m2 0q0-1.7 1.1-3 1.1-1.2 2.8-1.1a4 4 0 0 1 2.7 1.4q1 1.4 1.1 3.2 0 1.9-1.1 3-1.1 1.3-2.7 1.2-3.9-.3-4-4.6"/><path fill="#ffd83d" d="M311.1 280.2q.4 5 4.9 5.8 4.4-.2 4.8-5.2-.5-5-4.8-5.9-4.5.3-4.9 5.3"/><path d="M310.1 280.1q0 2.8 1.7 4.8a6 6 0 0 0 4.2 2.2q2.4.1 4.1-1.7a7 7 0 0 0 1.7-4.5q0-2.8-1.7-4.9a6 6 0 0 0-4.1-2.2q-2.5 0-4.2 1.7a7 7 0 0 0-1.7 4.6m2 .1q0-1.7 1.1-3 1.3-1.2 2.8-1.1c2.7.3 3.7 1.6 3.9 4.6q0 1.9-1.2 3-1.1 1.3-2.7 1.2a4 4 0 0 1-2.8-1.5q-1-1.4-1.1-3.2"/><path fill="#ffd83d" d="M314.1 292.4q.4 5 4.9 5.8 4.4-.2 4.8-5.2-.5-5-4.8-5.8-4.5.2-4.9 5.2"/><path d="M313.1 292.3q0 2.8 1.7 4.8a6 6 0 0 0 4.2 2.2q2.4.2 4.1-1.6a7 7 0 0 0 1.7-4.6q0-2.8-1.7-4.8a6 6 0 0 0-4.1-2.3q-2.5 0-4.2 1.7a7 7 0 0 0-1.7 4.6m2 .1q0-1.7 1.1-3 1.3-1.1 2.8-1.1c2.7.3 3.7 1.6 3.9 4.7q0 1.7-1.2 3-1.1 1.2-2.7 1.1a4 4 0 0 1-2.8-1.5 5 5 0 0 1-1.1-3.2"/><path fill="#ffd83d" d="M314 304.9q.4 5 4.9 5.8 4.4-.2 4.8-5.2-.4-5-4.8-5.9-4.4.3-5 5.3"/><path d="M313 304.8q0 2.8 1.7 4.8a6 6 0 0 0 4.2 2.2q2.3.1 4-1.6a7 7 0 0 0 1.8-4.6q0-2.8-1.7-4.8a6 6 0 0 0-4.1-2.3q-2.5 0-4.2 1.7a7 7 0 0 0-1.7 4.6m2 .1q0-1.7 1.1-3 1.1-1.2 2.8-1.1a4 4 0 0 1 2.7 1.4q1 1.5 1.1 3.2c-.1 3-1.1 4.2-3.8 4.2a4 4 0 0 1-2.8-1.5q-1-1.4-1.1-3.2"/><path fill="#ffd83d" d="M311.9 317q.4 5 4.9 5.8 4.4-.2 4.8-5.2-.5-5-4.8-5.9-4.5.3-4.9 5.3"/><path d="M311 316.9q0 2.8 1.6 4.8a6 6 0 0 0 4.2 2.2q2.4.1 4.1-1.7a7 7 0 0 0 1.7-4.6q0-2.7-1.7-4.8a6 6 0 0 0-4.1-2.2q-2.5 0-4.2 1.7a7 7 0 0 0-1.7 4.6m2 .1q0-1.8 1.1-3 1.1-1.3 2.8-1.2a4 4 0 0 1 2.7 1.5q1.1 1.5 1.1 3.2c-.1 3-1.1 4.2-3.8 4.2a4 4 0 0 1-2.8-1.5q-1-1.5-1.1-3.2"/><path fill="#ffd83d" d="m233.3 273.7.4 7.2c12.2-2.7 29.2-10.3 45.3-10 15 .4 25.9 7.5 26.2 24.6-.1 16.8-6.2 31.5-14.5 46.7l8.6 5c7.7-16.7 13.9-30.6 14-50.2-.2-16.6-11.1-33-30.7-33.8-17.3-.3-34.8 6.2-49.3 10.5"/><path d="m232.3 273.8.4 7.2q0 .5.3.8t.8.2q4.5-.9 14.8-4.2 20.2-6.2 30.4-5.9c7.8.3 13.5 2.2 18 6 4.8 4.2 7 9.7 7.2 17.5-.1 13.4-4.8 28.5-14.3 46.2q-.6.9.3 1.5l8.7 5q.9.6 1.3-.4a235 235 0 0 0 10-24.1 90 90 0 0 0 4.1-26.6 37 37 0 0 0-8.4-23.6 31 31 0 0 0-23.3-11.3q-13.3-.5-38.8 7.2l-10.7 3.3q-.9.2-.8 1.2m2 .7 10-3q25.2-7.7 38.3-7.2c9.1.4 16.1 3.8 22 10.6a34 34 0 0 1 7.7 22q0 13-4 25.8-2.7 8-9.4 23l-6.8-4a99 99 0 0 0 14-46.2c0-8.6-2.6-14.7-8-19.5q-7-6-19.2-6.3c-7 0-17.1 1.7-30.8 6l-13.5 3.8z"/><path fill="#ffd83d" d="m226.4 199.6-5 11 5 10.6 5-11zm0 27.3-5 11 5 10.6 5-11z"/><path d="M225.6 199.1q0-.3.4-.4.4-.3.7-.2.4 0 .6.6l5 10.5q.3.6 0 1.1l-5 11-.4.5q-.8.5-1.4-.4l-5-10.5q-.3-.6 0-1zm0 27.3q0-.3.4-.4.9-.6 1.3.3l5 10.6q.3.6 0 1l-5 11q-.1.5-.4.6-.4.3-.8.2-.3-.2-.5-.6l-5.1-10.6q-.3-.4 0-1zm.8-24.4-4 8.6 4 8.2 4-8.6zm0 27.3-4 8.6 4 8.2 4-8.6z"/><path fill="#ffd83d" d="m208.3 225.2 8 5.2 8-6.2-8-5.4zm20.2-1.2 8 5.4 8-6-8-5.5z"/><path d="m207.8 226.2-.3-.4q-.4-.8.3-1.5l8-6.4q.6-.4 1 0l8 5.3q.2 0 .3.3.3.5.2.9 0 .3-.5.7l-8 6.2q-.4.5-1 0zm20.2-1.3-.3-.3-.2-.8q0-.3.5-.8l8-6q.5-.5 1 0l8 5.5q.3 0 .3.3.6 1-.3 1.6l-8 6q-.4.3-1 0zm-17.8.1 6.1 4 6.2-4.7-6.2-4.1zm20.2-1.1 6.1 4.2 6.2-4.6-6.2-4.3z"/><path fill="#ffd83d" d="M230.3 224q-.4 4-3.9 4.6-3.4-.2-3.8-4.2.3-4 3.8-4.6 3.5.3 3.9 4.2"/><path d="M231.3 224q0 2.1-1.5 4-1.4 1.5-3.4 1.7-2 0-3.4-1.4a6 6 0 0 1-1.4-3.9q0-2.2 1.4-4 1.4-1.5 3.4-1.7 2 0 3.4 1.5 1.4 1.4 1.5 3.8m-2 0q0-3.1-2.9-3-2.8 0-2.8 3.3 0 1.4.8 2.3t2 .8 2-1 .9-2.3"/><path fill="#ffd83d" d="M236.7 251.7c-.3 6.7-4.4 11.6-10.3 12.1-5.9 0-10-4.4-10.3-11.1.3-6.7 4.5-11.7 10.3-12.3 5.9 0 10 4.6 10.3 11.3"/><path d="M237.7 251.7q0 5.2-3.3 9.1a11 11 0 0 1-8 4.1c-3.2 0-5.6-.9-8-3.3a13 13 0 0 1-3.3-8.9c.2-3.6 1.2-6.4 3.3-9.2q3.4-4 8-4.2c3.3 0 5.6 1 8 3.4 2.2 2.6 3.2 5.3 3.3 9m-2 0c0-3-.9-5.2-2.7-7.4-2-2-3.9-2.8-6.6-2.8a9 9 0 0 0-6.6 3.5 12 12 0 0 0-2.7 7.6q.1 4.3 2.7 7.3 2.9 2.9 6.6 2.8a9 9 0 0 0 6.6-3.4 12 12 0 0 0 2.7-7.6"/><path d="M216.3 254.7a56 56 0 0 1 20.2-1q.8.2.6 1 0 .5-.3.6-.2.2-.5.1a53 53 0 0 0-20.3.9l-.3-.6q0-.8.6-1m8.3-13.8v7.4q0 .8-.8.9-3.6.4-7.2 1.2-.7.2-.8-.6v-.7l.6-.3q3.3-.8 6.7-1.2v-6.7l.2-.6.5-.2q.8 0 .8.8m11.6 8.6q-3.6-.5-7.2-.6-.7 0-.7-.8v-7.4q0-.8.7-.9t.8.8v6.6a58 58 0 0 1 7.2 1v.6q0 .9-.8.7"/><path fill="#ffd83d" d="M216.4 272.5c-1 19.3-3 38.7-9.5 53.4l10.6-5.6c3.6-16.3 4.5-37 5.6-47zm20-1-6.7 1.6c1.1 9.7 2 30.4 5.6 46.3l10.7 4.7c-6.5-14.2-8.5-33.4-9.5-52.6"/><path d="M215.4 272.5v-.1q.1-1.1 1.1-1l6.8.9q.9 0 .8 1.2l-.9 10q-2.1 25.1-4.8 37 0 .6-.5.8l-10.7 5.6q-.4.3-.8 0-.9-.4-.4-1.4 7.5-17 9.4-53m21-2v-.1q1 0 1 1 2 35.9 9.4 52.1.3.4 0 1 0 .4-.4.6t-.8 0l-10.6-4.6a1 1 0 0 1-.6-.7q-2.7-11.8-4.8-36.5l-.9-10q0-1.1.8-1.3zm-19.1 3.2q-1.9 32.9-8.4 50l7.8-4.2q2.6-11.8 4.5-36l.8-9.1zm18.3-.8-4.8 1 .8 9q2 24.1 4.6 35.7l7.8 3.4q-6.6-16.4-8.4-49.1"/><path fill="#ffd83d" d="M226.4 313.4c-12.9.8-21.8 8-22.6 25.6-3.4-6.3-16-23.9-28.5-20.1-7.4 2.8-13.5 14.7-12.6 28-6.5-18.9-23.4-19-36.7-4.4 11.3 8.4 16.8 38.7 26.2 51q36.6-6.3 74.2-8 36.6-1.6 74.2 0c9.5-13.3 15-44.3 26.2-54.4-13.3-12.6-30.2-10.3-36.6 9.3.9-13.4-5.3-24.6-12.7-26.6-12.5-2.4-25 16.4-28.5 23-.8-17.4-9.7-23.9-22.6-23.4"/><path d="M226.4 312.2c14.3-.4 21.7 6.5 23.4 21q3.7-6.2 9.4-12.2c6.9-7 12.7-9.5 18.5-8.3 4.2 1.1 7.3 4 10.1 9.5q2.9 6 3.4 12.6 5-10 14.5-12.3c7.8-1.5 14.6 1 21.7 7.8l.2.1q.6 1-.2 1.6a38 38 0 0 0-8 12.1 251 251 0 0 0-6.9 17.2q-6.9 19-11.2 25-.3.4-.7.4c-49-2.3-98-.8-148.4 7.8q-.4 0-.7-.3-4.3-5.4-11.2-23.5a210 210 0 0 0-6.8-16.3 31 31 0 0 0-8.2-11q-.3-.4-.3-.8t.4-.9c7.1-7.8 14-11.2 21.7-10.7 6.6.7 11.1 4 14.5 10.5q.6-6.7 3.4-13 4-8.5 10.1-10.7c5.8-1.8 11.6.1 18.5 6.4q5.8 5.4 9.4 11.3c1.7-14.7 9.2-22.4 23.4-23.3m0 2.3q-20.8 1.2-21.6 24.5 0 1-1 1.1-.6 0-.9-.5-3.8-7.2-10.6-13.6c-6.4-5.8-11.6-7.6-16.8-6q-5.2 1.8-8.8 9.4-3.7 8-3 17.3 0 1-1 1.3-.7.2-1-.6c-3-8.9-7.7-13.3-15-14.1-6.8-.5-12.8 2.3-19.1 8.9q3.8 3.4 7.6 10.8 2.5 5 6.9 16.5 6.6 17.2 10.6 22.7c48.7-8.3 97.3-10 147.4-7.8q4-6 10.6-24 4.4-12.1 6.9-17.4 3.7-8 7.6-12c-6.3-5.6-12.3-7.6-19-6.3-7.4 1.8-12.1 6.8-15 16q-.5 1.2-1.4.7-.6-.3-.6-1.2.7-9.2-3-16.9c-2.6-5-5.3-7.4-8.9-8.5-5.1-1-10.4 1.4-16.8 7.9q-6.7 7-10.6 14.7-.5 1-1.4.4-.4-.3-.5-1c-.6-15.4-7.5-22.8-21.6-22.3"/><path d="M300.4 385.6c-.5 6.4-32.8 11-74 13-41.1 1.9-73.5 1-74-5.2.5-6.4 32.9-15.4 74-17.5 41.2-1.9 73.5 3.5 74 9.7"/><path d="M301 385.6c-.2 3.8-7.1 6.4-22.2 9a477 477 0 0 1-52.4 4.8q-29.7 1.6-52.4.4c-15-.9-22-2.5-22.3-6.3.3-3.6 7.3-7.5 22.4-11.4 13.5-3.3 31-6 52.3-7 21.4-1 38.8-.1 52.4 1.8 15 2.2 22 5.2 22.3 8.7m-1.5 0c-.3-2.6-6.8-5-21-7a287 287 0 0 0-52.2-1.9c-21.3 1-38.7 3.7-52.2 7-14.2 3.8-20.7 7-21 9.5.3 2.9 6.8 4.1 21 5q22.6 1 52.2-.5a475 475 0 0 0 52.2-4.8c14.2-2.4 20.7-4.5 21-7.4"/><path fill="#ffd83d" d="M229.9 268.1q-.4 3.5-3.5 4.1-3.1-.1-3.4-3.7.3-3.6 3.4-4.1 3.1.1 3.5 3.7"/><path d="M230.6 268.1q0 2-1.2 3.4-1.3 1.5-3 1.6-1.6 0-3-1.3a5 5 0 0 1-1.2-3.3q0-2 1.3-3.4 1.1-1.5 3-1.6 1.6 0 2.9 1.3a5 5 0 0 1 1.2 3.3m-1.5 0q0-1.2-.8-2-.7-1-1.9-.9t-1.9 1q-.8 1-.8 2.2 0 1.4.8 2.2t2 .8q1 0 1.8-1t.8-2.2"/><path fill="#ffd83d" d="M230 276.6q-.2 3.8-3.6 4.4-3.3-.3-3.7-4 .4-3.9 3.7-4.4 3.3.3 3.7 4"/><path d="M230.8 276.6q0 2-1.3 3.6-1.3 1.5-3 1.6a4 4 0 0 1-3.2-1.3q-1.2-1.4-1.3-3.5 0-2 1.3-3.6 1.4-1.5 3.1-1.6a4 4 0 0 1 3.1 1.3q1.3 1.4 1.3 3.5m-1.4 0q0-1.4-1-2.3-.7-.9-2-.9-2.9.3-3 3.5.1 3.4 3 3.2a3 3 0 0 0 2-1q1-1.1 1-2.5"/><path fill="#ffd83d" d="M230.4 285.7q0 2.7-2 4.1t-4 .2-2-3.9q0-2.5 2-4.1 2-1.4 4-.2 2 1.4 2 4"/><path d="M231.2 285.7q0 2.3-1.4 3.9t-3.4 1.7q-2 0-3.3-1.4-1.4-1.5-1.4-3.7t1.4-4q1.4-1.5 3.3-1.7 2 0 3.4 1.4 1.3 1.6 1.4 3.8m-1.5 0q0-3.6-3.3-3.5-1.4 0-2.3 1.2-1 1.1-1 2.7 0 1.5 1 2.6a3 3 0 0 0 2.3 1q1.4-.1 2.3-1.3 1-1.1 1-2.6"/><path fill="#ffd83d" d="M231 295.9c-.2 3-2 5-4.6 5.4q-4.1-.3-4.6-5 .6-4.6 4.6-5.4c2.7 0 4.4 2 4.6 5"/><path d="M231.7 295.9q0 2.5-1.5 4.3a5 5 0 0 1-3.8 2q-2.1 0-3.7-1.6a6 6 0 0 1-1.6-4.2q0-2.5 1.6-4.4a5 5 0 0 1 3.7-2q2.1 0 3.8 1.6 1.5 1.8 1.5 4.3m-1.4 0c-.2-3-1.2-4.1-3.9-4.2q-3.8.3-3.8 4.6 0 1.7 1.1 3 1.1 1.2 2.7 1.2 1.7-.2 2.7-1.5a5 5 0 0 0 1.2-3"/><path fill="#ffd83d" d="M231.5 307.2q-.2 3.3-2.6 5.1a5 5 0 0 1-5 .3 6 6 0 0 1-2.5-5q0-3.2 2.5-5t5-.3a6 6 0 0 1 2.5 4.9"/><path d="M232.2 307.2q0 2.7-1.7 4.7a6 6 0 0 1-4 2q-2.6.1-4.2-1.6a7 7 0 0 1-1.7-4.6q.1-2.7 1.7-4.7 1.8-2 4.1-2.2 2.4 0 4.1 1.8a7 7 0 0 1 1.7 4.6m-1.5 0a5 5 0 0 0-1.2-3.4q-1.4-1.4-3-1.3-1.9.1-3.1 1.6t-1.3 3.5q0 2 1.3 3.4a4 4 0 0 0 3 1.3q1.9-.1 3-1.6 1.3-1.4 1.3-3.5m-6.3 11.3q-1 0-.9 1.6l.6 4.8c.3 1.6 1 1.2 1.2-.1s.2-2.2.2-4.6q-.1-1.7-1-1.7m4-.2q-1.1 0-1.2 1.8c0 2.4 0 3.3.2 4.6s1 1.6 1.3 0l.5-4.9q0-1.4-.9-1.5m-7.5 1q-1 .3-1 1.4l.4 4c.2 1.8 1 1 1.3 0l.1-4.3q0-1.1-.6-1zm10.9-.6q-.6.1-.7 1.1 0 3 .2 4.4c.2 1 1 1.6 1.2-.1l.5-4.2q-.1-.9-1-1.2zm-15.2 2.8q-.8.3-.8 1.5.5 2.2.6 4.4c0 1.2.8.7 1-.1l.1-4.4q0-1.8-1-1.4m19.5-1q-.6.1-.7 1.5l.2 4.4c.1.9.9 1.3 1 0q0-2.2.5-4.4 0-1.2-.7-1.5zm-58.2 4.8q-1 .2-.5 1.8l1.8 3.8c.7 1.3 1.3.4 1.1-.6l-1.4-4q-.4-1.1-1-1m97.2-4.9q-.4 0-1 1.1l-1.4 4.2c-.1 1 .5 1.9 1.1.5.7-1.6 1.3-2.5 1.9-4q.4-1.6-.6-1.8m-93.3 4.5q-.6.3-.4 1.4l1.7 4c.6 1.3 1.3.9 1.1-.3l-1-4q-.7-1.5-1.4-1.1m89-4.5q-.5.2-.9 1.3l-1 4.1c-.3 1.2.5 1.5 1 .3l1.7-4.2q.3-1.2-.4-1.5zm-84.1 5q-1 .4-.6 2.1l1.6 4c.7 1.5 1.4 1.1 1.2.1l-1.1-5q-.5-1.4-1.1-1.2m79.5-4q-.6 0-1.2 1.5l-1.1 5c-.1 1 .6 1.4 1.2-.2l1.6-4.1q.4-1.9-.5-2.1m-91.7 6.1q-1 .6-.7 2c.5 1.1.9 1.5 1.4 2.8.6 1.2 1 .2 1-.7l-.9-3q-.3-1.3-.8-1m103.9-5.3q-.6-.1-1 1.2l-.7 3c-.1 1 .3 2 1 .6l1.4-3q.2-1.3-.7-1.8m-66 4.6q-1 .3-1 1.7l1.2 4c.5 1.5 1.2.8 1.2-.2q0-1.4-.6-4.5-.2-1.1-.8-1m28-1.4q-.5 0-.8 1.2l-.6 4.4c0 1 .8 1.7 1.2.3l1.2-4.2q.2-1.5-1-1.7m-14 1.9q-1 .3-.8 2-.5 4.7-2 7.2c-1 1.4-2.1 1.1-3.5.4q-1.6-.7-3.2-2.2c-1.4-1-2.2-.4-.8 2.1 4.6 7.2 9.3 13.1 9.5 25.2q0 2.2.8 2c.6-.1.9-.5.9-2.1.2-12 4.8-18.5 9.4-26 1.5-2.7.7-3.2-.7-2.1s-2 1.7-3.3 2.5-2.4 1.2-3.4-.1a16 16 0 0 1-2-7q0-1.6-.9-2m-34.7.9h-.2q-.5.2-.3 1.2l1.1 4.2c.4 1 1.3.7 1.2-.7l-.6-3.4q-.5-1.3-1.2-1.3m69.4-3.4q-.7 0-1.1 1.4l-.6 3.5c-.2 1.4.7 1.6 1.1.6l1.2-4.4q0-1-.4-1zm-90 6.3c-.6.2-1 1-.4 2.1l2.2 3.6c.5.9 1.2.2.7-1l-1.5-4q-.5-.8-1-.7m110.7-5.6q-.6 0-1 .8l-1.5 4.2c-.6 1.2.1 1.8.7.9l2.2-3.8q.6-2-.4-2m-142 14.4c-.6.3-.7 1.4-.2 2.3q1.3 1.5 2.6 2.5c.9.6 1-.3.6-1.2l-1.8-2.7q-.7-1-1.1-.9m173-9.4q-.4 0-1 1l-1.9 3c-.4.9-.2 1.8.6 1.1 1-1 1.7-1.6 2.6-2.9q.8-1.7-.2-2.2m-168.2 9.6q-.9.2-.4 1.6l1.8 3.9c.6 1 1.9 1.1 1.4-.5s-.7-2.5-1.3-4q-.5-1.1-1.5-1m163.2-8.8q-1 0-1.5 1.2l-1.3 4.1c-.4 1.8.8 1.4 1.4.4l1.9-4.2q.4-1.4-.5-1.5m-172.8 11q-1.1.6-.1 1.5l3 2c1.3.7 1.6-.2 1-1.1a6 6 0 0 0-2.9-2.2zm182.4-10.1-1 .2a8 8 0 0 0-3 2.7c-.5 1-.2 1.8 1.1.9l3-2.4q1-1-.1-1.4m-108 .7q-.7.2-.5 1.4l.9 4c.4 1.2 1.4 1.1 1.3 0l-.7-4.4q-.3-1-.7-1zm33.3-1.6q-.5 0-.8 1l-.7 4.5c0 1.2 1 1.1 1.3-.2l1-4q.1-1.2-.7-1.3zm-63 2.2q-.5.4-.2 2a34 34 0 0 1 1.6 9.8q-.5 2-1.9 1.3-1.4-.5-2.7-1.4c-.9-.5-1.6.2-.5 1.3 6 5 10 10.6 11.7 18.3q.8 2.4 1-.1a52 52 0 0 1 .4-22.8c.6-2 0-3.7-1.3-.5-1 2.2-2 3-3.2 1.4-1-1.7-3.2-6-3.9-8.1q-.3-1.1-.8-1.2zm92.5-4.6q-.4 0-.8 1.3c-.7 2.1-2.9 6.7-3.9 8.5-1.2 1.7-2.3 1-3.2-1-1.4-3.1-1.9-1.4-1.2.5 2 5.2 1.7 13 .4 22.8-.2 1.8.6 1.6 1 0a37 37 0 0 1 11.6-19.5c1.1-1.2.4-1.8-.5-1.3q-1.3 1-2.7 1.8t-1.8-1.2a35 35 0 0 1 1.5-10q.4-1.5-.2-1.9zm-122.5 11.8q-1 .2-.7 1.5c.4 1.4 1.2 3 1.5 3.8s1 .3 1-1l-.5-3.4q-.3-1-1.3-.9m152.6-8q-.9-.1-1.3 1l-.4 3.4q.2 2.2 1 .9l1.4-4q.3-1.4-.7-1.4m-134 3.2c-.7.2-.8 1.7-.3 2.5l2.7 3.2c.9.9 1.2 0 .8-1l-2.5-3.9q-.5-.7-.8-.8m115.6-5.8q-.2 0-.8.9l-2.5 4.2c-.4 1 0 1.8.8.8l2.7-3.5c.5-.9.5-2.3-.2-2.4M154 342.7q-.6 0-.5 1.3l.8 3.3c.4 1.1 1 .8 1-.3l-.3-3.5q-.3-.8-1-.8m144.2-7.6q-.6 0-1 1l-.3 3.5q.4 1.8 1 .2l.9-3.4q0-1.3-.6-1.3m-131.3 7.2c-.6.2-1 .8-.4 1.8 1.2 1.5 2.4 2.6 2.8 3.1.6.5 1.5.2.9-1l-2.3-3.6q-.4-.6-1-.3m118.2-6q-.4-.1-.7.4l-2.3 3.8c-.6 1.4.3 1.5.8 1s1.7-1.8 2.8-3.4q.9-1.6-.4-1.9zm-138.5 14q-.8 0 0 1.5c1.5 2 3 5.1 3.2 6.6 0 1.5-.5 1.6-1.1 1.7-1.8.2-2.7-.9-4.3-1.1q-2.5.1-.7 1.6c6 3.9 11.8 8.4 14.3 13 1.1 1.8 2.2 2.5 1.6.6a30 30 0 0 1-2.3-13.8q.9-4.6 1-7c-.1-1.8-.8-1.5-1.2.2l-1 3.3c-.5.6-1.6 1-3-.6a50 50 0 0 0-5.4-5.5zm159-8.5q-.4 0-1 .5c-1 1-4.2 4.4-5.5 6.3-1.4 1.8-2.4 1.5-2.9.9-.3-.6-.8-2-1-3.2q-1-2.6-1.3 0 .1 2.4 1 6.9 1 4.9-2.3 14c-.6 2 .5 1.2 1.6-.8 2.6-4.9 8.4-10 14.4-14.8 1.1-1 1-1.8-.7-1.5s-2.5 1.6-4.3 1.7c-.7 0-1.2 0-1.2-1.6.3-1.5 1.8-4.7 3.2-7q.9-1.4 0-1.4m-78.7 28.3v8q0 .8-.8.9-.7 0-.7-.8v-8q0-.8.7-.9t.8.8m48 3.9-1 7.1q-.1.4-.4.6h-.5q-.7 0-.6-.9l1-7.1.3-.6.6-.1q.8.1.6 1m-118.8 11.1 2 6.6q.1.9-.5 1.1-.7.5-1-.4L155 386q-.2-.7.5-1 .7-.5 1 .3m47.6-12.1.4 7.2q0 .8-.7.9-.8.1-.8-.7l-.4-7.2q0-.9.7-1t.8.8m46.1-2.1-.3 7.2q-.1.9-.8.8t-.7-.9l.4-7.2q0-.9.7-.8.8 0 .7.9m-9.8-.6-.2 7.3q0 .9-.8.8-.7 0-.7-.8l.3-7.3q0-.9.7-.8t.7.8m-5.9 0-.3 7.3q0 .8-.7.8t-.7-.8l.2-7.3q0-.9.8-.8.7 0 .7.8m-14.7.7.3 7.2q0 .8-.7.9-.8 0-.8-.8l-.3-7.2q0-.8.7-1 .8 0 .8.9m-6 .5.4 7.2q0 .9-.7 1-.8 0-.8-.8l-.3-7.2q0-.9.7-1t.8.8M164.7 382l1.1 7q.2.7-.6 1-.7.3-.8-.5l-1.2-7q0-.7.6-1t.9.5m129.2-5-1.7 7q-.2.8-1 .5l-.4-.3v-.7l1.7-7q.1-.7.9-.5.4.1.4.4zm-133.4 6.3 1.7 6.7q.1.9-.5 1.1t-1-.4L159 384q-.2-.8.5-1.2t.9.5m18.7-4.8 1 7q.2.8-.5 1-.7.3-.9-.5l-1-7q-.2-1 .5-1.1.8-.2.9.6m81-7-.7 7.2q0 .9-.8.7-.7 0-.7-.9l.8-7.2q0-.9.9-.7.7 0 .6 1m4.8.7-.8 7.2q-.1.7-.8.7-.7-.1-.7-1l.8-7.1q.1-.8.8-.8.8.1.7 1m-70.9 2.2.8 7q0 1-.6 1-.8.3-.9-.6l-.7-7q-.2-1 .6-1 .7-.3.8.6M270 372l-.7 7.2q-.1.9-.9.8-.7-.2-.6-1l.8-7.2q0-.8.8-.7t.6 1m-85.5 3.9.8 7q0 1-.7 1-.7.3-.8-.6l-.8-7q0-1 .6-1 .8-.3.9.6m5-.2.7 7q0 1-.6 1.1t-.9-.6l-.7-7.2q-.2-.7.6-1 .7-.1.8.7m-15.6 3.5 1 7q0 .9-.6 1-.7.3-.8-.5l-1-7q-.2-1 .6-1.1.7-.2.8.6m106.9-5-1 7.1q0 .9-.9.7-.7-.1-.6-1l1-7.1q.2-.9.9-.7.8.1.6 1m17.2 4.3-2 6.8q0 .8-.8.5-.4 0-.5-.4v-.7l2-6.8q0-.8.8-.5.4.1.5.4zm-12.1-3.6-1.3 7.1q0 .5-.3.6h-.5q-.7-.1-.6-1l1.2-7q0-.4.3-.6h.6q.7 0 .6 1m-117 5.4 1.2 7q0 .7-.6 1t-.9-.5l-1.2-7q-.2-.7.6-1 .7-.3.8.5m30.3-7 .5 7.3q0 .8-.7 1-.7 0-.8-.8l-.4-7.2q0-.7.6-1 .9 0 .8.8m56.5-2.6-.5 7.3q0 .8-.7.7-.7 0-.7-.8l.4-7.3q0-.9.8-.8.7 0 .7 1m-9.8-.3-.3 7.2q-.1.9-.8.8t-.7-.8l.3-7.3q0-.9.8-.8.7 0 .7.9m-36.9 1.6.4 7.2q0 .9-.7 1-.8 0-.8-.8l-.3-7.2q0-.8.7-1 .7 0 .7.8m81 3.6-1.2 7.1q-.2.9-.9.7l-.5-.4v-.6l1-7.1q.2-.9 1-.7l.5.4z"/><path fill="#1a1a1a" d="M8 195.3c170.8-85.3 341-54.5 513.3-28C676.5 191 833.4 211.8 992 132.7v672c-170.8 85.3-341 54.5-513.3 28C323.5 809 166.6 788.1 8 867.2zm31.3 19.3v604.5c306.5-128.2 611.1 96 921.5-33.7V180.9C654.2 309 349.5 84.9 39.3 214.6" opacity=".2"/></svg>