<svg xmlns="http://www.w3.org/2000/svg" viewBox="0 0 1000 1000"><path fill="#002b7f" d="M8 195c171-85 341-54 513-28 155 24 312 45 471-34v672c-171 85-341 54-513 28-155-24-312-45-471 34z"/><path fill="#ce1126" d="M8 531c171-85 341-54 513-28 155 24 312 45 471-34v336c-171 85-341 54-513 28-155-24-312-45-471 34z"/><path fill="#ffd83d" d="m221 277-2 70-62 7q-13-21-14-48c0-17 11-31 27-34q28-1 51 5"/><path d="M151 289v40l-1 1-1-1v-40l1-1zm5-5v53l-1 1h-1v-54l1-1zm5-4v64l-1 1-1-1v-64zm5-2v50l-1 1-1-1v-50zm5-1v51l-1 1-1-1v-51zm5-3v53l-1 1-1-1v-52zm5 0v52l-1 1-1-1v-52zm5 0v52l-1 1-1-1v-52l1-1zm5 0v52l-1 1v-54zm5 3v52l-1 1v-54zm5 0v59l-1 1v-61zm5-1v53l-1 1v-55zm5 0v52l-1 1v-54zm-29 0c11 1 33 11 31 28-4 24-16 16-32 14l-13 6c-4 6-10 11-15 6l-7 1v33q40-7 80-9v-78zm-1 1v-2h1l45 2v78h-1a606 606 0 0 0-81 9v-32l1-1 7-2 1 1q3 3 7 1l7-8 12-6h1l9 1q11 3 14 1 6-2 8-15 2-11-10-19-11-8-21-8m9 0 13 6q12 9 11 21-3 14-9 17-4 2-16-1l-8-1-12 6q-4 5-8 7-5 3-8-1l-6 1v31q39-7 78-9v-76z"/><path fill="#ffd83d" d="M222 267q0 5-5 6-3 0-4-6 1-5 4-5 5 0 5 5"/><path d="m223 267-1 5-5 2-4-2-1-4 1-5 4-3 5 2zm-2 0q0-4-4-4l-2 1-1 3q0 5 3 5 4-1 4-5"/><path fill="#ffd83d" d="M211 265q0 5-5 5-3 0-4-5 1-4 4-6 5 0 5 6"/><path d="m212 264-1 5-5 3-4-2-1-5 1-4 4-3 5 2zm-2 1q0-5-4-4l-2 1-1 3 1 3 2 1 3-1z"/><path fill="#ffd83d" d="M200 262q0 6-5 6-3 0-4-5 1-5 4-6 5 0 5 5"/><path d="m201 262-1 5-5 2-4-1-1-5 1-5 4-2q3 0 5 2zm-2 0-1-3-3-1-2 2-1 3 1 3 2 1 3-1z"/><path fill="#ffd83d" d="M189 261q0 5-5 6-4 1-5-5 1-4 5-6 5 0 5 5"/><path d="M190 261q1 3-2 5l-4 2q-2 1-4-1l-2-5 2-4 4-3q3 0 4 2 3 1 2 4m-2 0q0-4-4-4l-2 2-2 3q1 4 4 4 4 0 4-5"/><path fill="#ffd83d" d="M178 261q0 6-5 6-4 1-5-4 1-6 5-7 5 0 5 5"/><path d="m179 261-2 5-4 3-4-2-2-4 2-5 4-3 4 2zm-2 0-1-3h-3q-4 0-4 4 0 5 4 4 4 0 4-5"/><path fill="#ffd83d" d="M167 263q0 6-5 7-4 0-5-5 1-5 5-6 5-1 5 4"/><path d="M168 263q0 3-2 5-1 3-4 3l-4-1-2-5 2-5 4-2q3-1 4 1 3 1 2 4m-2 1-1-3-3-1q-3 0-4 5l2 3 2 1 3-2z"/><path fill="#ffd83d" d="M157 269q-1 5-5 6-5 1-5-4t5-7 5 5"/><path d="m158 269-2 5-4 3-4-2-2-4 2-5 4-3q3 0 4 2zm-2 0q0-4-4-3l-3 1-1 4q0 5 4 3 4 0 4-5"/><path fill="#ffd83d" d="M148 278q0 5-5 6t-5-4 5-7q5 0 5 5"/><path d="m149 278-2 5-4 3-4-2-2-4 2-5 4-3 4 1zm-2 0-1-3-3-1-3 2-1 4 1 3h3q4 0 4-5"/><path fill="#ffd83d" d="M142 289q-1 6-5 7-5 1-5-5 0-4 5-6 4-1 5 4"/><path d="m143 289-2 5q-1 3-4 3l-4-1-2-4 2-6 4-2q3-1 4 1zm-2 1-1-3-3-1q-4 1-4 5l1 3 3 1 3-2z"/><path fill="#ffd83d" d="M139 302q0 5-5 6t-5-4 5-7q4 0 5 5"/><path d="m140 302-2 5-4 3-4-1-2-5 2-5 4-3 4 1zm-2 0-1-3h-3q-4 0-4 5l1 3h3l3-1z"/><path fill="#ffd83d" d="M139 314q0 6-5 7-5 0-5-5t5-6q5 0 5 4"/><path d="m140 314-2 5q-1 3-4 3l-4-1-2-4 2-5q1-3 4-3 3-1 4 1zm-2 1-1-3-3-1-3 2-1 3q0 4 4 4l3-2z"/><path fill="#ffd83d" d="M141 326q0 6-5 7-5 0-5-5 0-4 5-6 5-1 5 4"/><path d="m142 326-2 5-4 3-4-1-2-5 2-5 4-2q3-1 4 1zm-2 0-1-2-3-1-3 2-1 3q0 4 4 4l3-2z"/><path fill="#ffd83d" d="m220 274-1 8c-12-2-29-8-45-6q-24 3-26 28 1 25 14 45l-8 6c-8-16-14-29-14-49 0-16 11-34 30-37q27-1 50 5"/><path d="m221 274-1 8-1 1-15-3q-19-5-30-3-12 2-18 8-7 7-7 19 0 20 14 44v2l-9 6h-1l-10-23q-4-13-4-26t8-25 23-14 39 3l11 2zm-2 1-10-2q-25-5-39-3-13 2-22 13-7 11-7 23 0 13 4 26 1 8 9 21l7-4q-15-25-14-45 0-13 8-20 7-7 19-9 10-1 31 3l13 2z"/><path fill="#ffd83d" d="m232 277 2 70h62c8-17 14-31 14-50 0-17-11-30-27-31-18 0-37 7-51 11"/><path d="M302 281v40l1 1v-42zm-5-5v54l1 1v-56zm-5-3v64l1 1v-66zm-5-1v50l1 1v-52zm-5-1v51l1 1v-53zm-5-2v53l1 1v-54zm-5 0v53l1 1v-55zm-5 1v52l1 1v-54zm-5 0v53l1 1v-55zm-5 4v52l1 1v-54zm-5 0v59l1 1v-61zm-5 0v53l1 1v-55zm-5 0v53l1 1v-55zm29-3c-11 3-33 15-31 32 4 23 16 14 32 10l12 5c5 6 11 10 16 4l7 1v32q-40-2-80 0v-78zm0 1 1-1h-1l-45 6v78h1a799 799 0 0 1 81 0v-32l-1-1h-8q-3 3-7 2l-7-6-13-5-9 2q-11 3-14 2-6-3-8-14t10-21q10-7 20-10m-8 1-13 8q-12 10-11 22 3 13 9 16l16-2 8-3 12 5 8 6q4 3 8-2l6 1v30q-39-2-79 0v-76z"/><path fill="#ffd83d" d="M231 266q1 6 4 6 5-1 5-6t-5-5q-3 0-4 5"/><path d="m230 267 1 4 4 2 5-2 1-5-1-5-5-1-4 2zm2-1q0-4 3-4l3 1 1 3q0 4-4 5-3 0-3-5"/><path fill="#ffd83d" d="M241 263q2 5 5 6 5-1 5-6t-5-6q-3 1-5 6"/><path d="m241 263 1 5 4 2 4-2a7 7 0 0 0 0-10l-4-2-4 2zm1 0q1-4 4-4l3 1 1 3-1 3-3 1-2-1z"/><path fill="#ffd83d" d="M253 260q1 5 4 5 5 0 5-5 0-6-5-6-4 0-4 6"/><path d="m252 260 1 4 4 2q2 1 5-2a7 7 0 0 0 0-9l-5-2-4 2zm2 0 1-3 2-2q2 0 3 2l1 3-1 3-3 1-2-1z"/><path fill="#ffd83d" d="M264 258q0 5 5 5 4 0 4-5-1-6-4-6-5 0-5 6"/><path d="m263 258 1 4q2 3 5 2l4-2 1-4-1-5-4-2-5 2zm2 0q0-5 4-5l2 2 1 3q0 4-3 4-4 0-4-4"/><path fill="#ffd83d" d="M275 256q0 6 5 6 4 0 5-5-1-6-5-6-5 0-5 5"/><path d="M274 256q0 3 2 5 1 2 4 2l4-2 2-4-2-5-4-2q-3 0-4 2zm2 0 1-3 3-1q3 0 4 5-1 4-4 4-4 1-4-5"/><path fill="#ffd83d" d="M286 257q0 6 5 6 4 0 4-5-1-5-4-6-5 0-5 5"/><path d="m285 257 1 5q2 3 5 2l4-2 1-4-1-5-4-2q-2-1-5 2zm2 0 1-3 3-1q3 0 3 5l-1 3-2 1-3-1z"/><path fill="#ffd83d" d="M296 262q0 5 5 6 5-1 5-6t-5-5-5 5"/><path d="m295 262 2 5 4 2 4-2 2-5-2-4-4-3-4 2zm2 0q0-4 4-4l3 1 1 3q0 4-4 4t-4-4"/><path fill="#ffd83d" d="M305 270q0 5 5 5 4 0 5-5-1-5-5-6-5 0-5 6"/><path d="M304 270q-1 2 2 4l4 3 4-2 2-5-2-5-4-2-4 2q-2 2-2 5m2 0 1-3 3-2 3 2 1 3-1 3-3 1q-4 0-4-4"/><path fill="#ffd83d" d="M311 280q0 5 5 6 5 0 5-5t-5-6-5 5"/><path d="m310 280 2 5 4 2q3 1 4-2l2-4-2-5-4-2q-3 0-4 2zm2 0 1-3 3-1q4 0 4 5l-1 3-3 1-3-2z"/><path fill="#ffd83d" d="M314 292q0 6 5 6t5-5q0-4-5-6-5 0-5 5"/><path d="m313 292 2 5q1 3 4 2l4-1 2-5-2-5-4-2q-3 0-4 2zm2 0 1-3 3-1q4 1 4 5l-1 3-3 1-3-1z"/><path fill="#ffd83d" d="M314 305q0 5 5 6 4 0 5-5-1-6-5-6-5 0-5 5"/><path d="m313 305 2 5 4 2 4-2 2-4-2-5q-1-2-4-2-3-1-4 1zm2 0 1-3 3-1 3 1 1 3q0 5-4 5l-3-2z"/><path fill="#ffd83d" d="M312 317q0 4 5 6 4 0 5-5-1-6-5-6-5 0-5 5"/><path d="m311 317 2 5 4 2 4-2 2-4-2-5-4-2-4 1zm2 0 1-3 3-1 3 1 1 4q0 4-4 4l-3-2z"/><path fill="#ffd83d" d="m233 274 1 7c12-3 29-10 45-10q24-1 26 24-1 25-14 47l8 5c8-17 14-30 14-50 0-17-11-33-30-34q-27 2-50 11"/><path d="m232 274 1 7v1h1l15-4q20-6 30-6 12 0 18 6 7 6 7 17 0 20-14 47v1l9 5h1l10-24q4-13 4-27 1-13-8-24t-23-11q-13 0-39 7l-11 4zm2 1 10-4q26-7 39-7 13 1 22 11 7 9 7 22t-4 26l-9 23-7-4q14-27 14-46 0-13-8-20-7-6-19-6-10-1-31 6l-13 4z"/><path fill="#ffd83d" d="m226 200-5 11 5 10 5-11zm0 27-5 11 5 11 5-12z"/><path d="M226 199v1l5 11v1l-5 11h-1l-6-11v-1zm0 27h1l5 11v1l-5 11-1 1v-1l-6-10v-2zm0-24-4 9 4 8 4-9zm0 27-4 9 4 8 4-8z"/><path fill="#ffd83d" d="m208 225 8 5 8-6-8-5zm21-1 8 5 8-6-8-5z"/><path d="M208 226v-2l8-6h1l8 5v2l-8 6h-1zm20-1v-2l8-6h1l8 5v2l-8 6h-1zm-18 0 6 4 6-5-6-4zm20-1 7 4 6-5-6-4z"/><path fill="#ffd83d" d="M230 224q0 4-4 5-3-1-3-5 0-3 3-4 4 0 4 4"/><path d="m231 224-1 4-4 2-3-2-1-4 1-4 3-1 4 1zm-2 0q0-3-3-3-2 0-2 3v3h2l2-1z"/><path fill="#ffd83d" d="M237 252q-2 10-11 12-9-1-10-11 1-11 10-13 9 1 11 12"/><path d="M238 252q0 4-4 9-2 4-8 4-4 0-8-3l-3-9q0-6 3-10l8-4q6 0 8 4 4 3 4 9m-2 0q0-5-3-8t-7-2l-6 3q-3 3-3 8 0 4 3 7l6 3 7-4q3-3 3-7m-20 3 21-1v1h-1l-20 1zm9-14v7l-1 1-7 1h-1v-1l7-1v-8h1zm11 9-7-1-1-1v-7l1-1 1 1v6l7 1v1z"/><path fill="#ffd83d" d="M216 272q-1 31-9 54l11-6c3-16 4-37 5-47zm20 0-6 1c1 10 2 31 5 46l11 5q-9-22-10-52"/><path d="m215 272 2-1 6 1 1 1-1 11-5 37-11 6h-1v-2q8-16 9-53m21-2 1 1a152 152 0 0 0 10 53l-1 1-11-5h-1l-4-37-1-10 1-1zm-19 4q-2 33-8 50l8-4 4-37 1-9zm19-1-5 1 1 9q1 24 4 36l8 3q-6-16-8-49"/><path fill="#ffd83d" d="M226 313q-19 0-22 26c-4-6-16-24-29-20-7 3-13 15-12 28-7-19-24-19-37-5 11 9 17 39 26 51a611 611 0 0 1 149-7c9-14 15-45 26-55-13-12-30-10-37 9q0-21-12-26c-13-3-26 16-29 23q-2-25-23-24"/><path d="M226 312q22 0 24 21l9-12q10-11 19-8 6 1 10 9 3 6 3 13 5-10 15-12 10-3 21 7h1l-1 2-8 12-6 17-12 26a681 681 0 0 0-150 7l-11-23-6-17-9-11v-1q11-11 22-11 10 1 15 11 0-7 3-13 4-9 10-11 9-3 19 6l9 12q3-22 23-24m0 2q-21 1-21 25l-1 1h-1q-4-8-11-14-8-9-17-6-5 1-8 9-4 8-3 18l-1 1-1-1q-5-12-15-14-10 0-19 9l7 11 7 17q6 17 11 22 72-12 147-8 4-6 11-24l7-17 7-12q-9-9-19-6-10 2-15 16h-1l-1-1q1-8-3-17-3-7-9-8-7-2-16 8-7 6-11 14l-1 1-1-1q-1-23-22-23m74 72c0 6-32 11-74 13-41 1-73 1-74-6 1-6 33-15 74-17 42-2 74 3 74 10m1 0q0 4-22 9a477 477 0 0 1-105 5q-22-1-22-7 0-5 22-11a275 275 0 0 1 105-5q22 3 22 9m-1 0q-1-4-21-7a287 287 0 0 0-105 5q-20 5-21 9 1 4 21 5a534 534 0 0 0 105-5q20-4 21-7"/><path fill="#ffd83d" d="M230 268q0 4-4 4-3 0-3-4 0-3 3-4 4 1 4 4"/><path d="m231 268-2 4-3 1-3-1-1-3 1-4 3-1 3 1zm-2 0-1-2-2-1-1 1-1 2 1 3h1l2-1z"/><path fill="#ffd83d" d="M230 277q0 4-4 4-3 0-3-4 0-3 3-4 4 0 4 4"/><path d="m231 277-1 3-4 2-3-2-1-3 1-4 3-1 4 1zm-2 0-1-3-2-1-3 4q1 3 3 3l2-1z"/><path fill="#ffd83d" d="m230 286-2 4h-4l-2-4 2-4h4q2 1 2 4"/><path d="m231 286-1 4-4 1-3-1-1-4 1-4 3-1 4 1zm-1 0q0-4-4-4l-2 1-1 3 1 3 2 1 3-2z"/><path fill="#ffd83d" d="M231 296q0 5-5 5-3 0-4-5 0-5 4-5 5 0 5 5"/><path d="m232 296-2 4-4 2-3-1-2-5 2-4 3-2q3 0 4 2zm-2 0q0-4-4-4-3 0-3 4l1 3 2 1 3-1z"/><path fill="#ffd83d" d="M231 307q0 3-2 5l-5 1q-3-2-3-5t3-5q3-3 5-1t2 5"/><path d="m232 307-1 5-5 2-4-2-1-4 1-5 4-2q3 0 5 2zm-1 0-2-3-3-1-3 1-1 4 1 3 3 1 3-1zm-7 12v6q1 2 1 0l1-5zm4-1-1 2v5h2v-5zm-7 1-1 2v4h2v-5zm11 0v4q0 2 2 0v-4zm-15 3-1 1v4q1 2 1 0zm19-1-1 1v4l1 1 1-5zm-58 4-1 2 2 4q1 1 1-1l-1-4zm97-4-1 4q-1 2 1 0l2-4zm-93 4-1 1 2 4q1 2 1 0l-1-4zm89-4-1 1-1 4h1zm-84 4-1 3 2 4h1l-1-5zm79-3-1 5h1l2-4zm-92 6v2l1 2q1 2 1 0l-1-3zm104-5v3q0 2 1 0l1-3zm-66 4-1 2 2 4h1l-1-5zm28-1-1 4 1 1 1-5zm-14 2v2l-2 7h-4l-3-2q-3-1-1 2 8 9 10 25v2l1-2c0-12 5-18 10-26q1-4-1-2l-3 3q-3 1-4-1l-2-6zm-34 0-1 2 1 4q2 2 1-1v-3zm69-3-1 1-1 4q0 2 2 0l1-4zm-90 6v2l2 4 1-1-2-4zm111-5-1 1-2 4 1 1 2-4zm-142 14v2l2 3q1 1 1-1l-2-3zm173-9-1 1-2 3q0 2 1 1l2-3zm-168 9-1 2 2 4q2 2 2-1l-2-4zm163-8-2 1-1 4q0 2 2 0l1-4zm-173 11v1l3 2q2 1 1-1t-3-2zm183-10h-1l-3 2q-2 2 1 1l3-2zm-108 0-1 2 1 4h1v-5zm33-1v4h1l1-4zm-63 2v2q2 7 1 10l-1 1-3-1q-2-1-1 1 9 8 12 18 0 3 1 0-2-14 0-23 1-4-1 0-1 4-3 1l-4-8zm93-5-1 2-4 8q-1 3-3-1-3-3-2 1 3 8 1 22 0 3 1 0 3-11 12-19 1-2-1-1l-3 1q-1 2-2-1l2-10zm-123 12-1 2 2 3q1 2 1-1l-1-3zm153-8-2 1v4h1l1-4zm-134 3-1 3 3 3q1 1 1-1l-3-4zm115-6-1 1-2 4q-1 2 1 1l2-3zm-130 13v1l1 4 1-1-1-3zm145-8-1 1-1 4h1l1-3zm-132 7v2l3 3v-1l-2-3zm118-6-3 4 1 1 3-4zm-138 14v2l3 7-1 1-4-1q-3 0-1 2 10 6 14 13 2 3 2 0-3-8-2-13l1-8q0-2-2 1l-1 3q0 2-3-1zm159-8-1 1-6 6-2 1-2-3q0-3-1-1l1 7q1 6-2 14-1 3 2 0 4-7 14-15 2-2-1-2l-4 2-1-2 3-7zm-79 28v8l-1 1v-9zm48 4-1 7v1h-1v-1l1-7zm-119 11 2 7v1h-1l-2-7zm48-12v8h-1v-9zm46-2v7l-1 1-1-1 1-7zm-10 0v7l-1 1v-8l1-1zm-5 0-1 7-1 1v-8l1-1zm-15 0v7l-1 1-1-8zm-6 1v7l-1 1v-1l-1-7 1-1zm-49 10 1 7-1 1-1-1-1-6 1-2zm129-5-2 7-1 1v-2l1-6zm-134 6 2 7v1h-1l-2-7zm19-4 1 7v1l-1-1-1-7v-1zm81-7-1 7v1l-1-1 1-8h1zm5 0-1 8h-1v-1l1-7zm-71 3 1 7-1 1-1-1v-8zm76-3-1 7-1 1v-8zm-86 4 1 7v1l-1-1-1-7zm5 0 1 7-1 1v-1l-1-7zm-15 3 1 7-1 1h-1l-1-7 1-1zm107-5-1 7-1 1-1-1 1-7 1-1zm17 5-2 6-1 1-1-1 2-7h2zm-12-4-2 7v1l-1-1 1-7 1-1zm-117 6 1 6-1 2-1-1-1-7 1-1zm30-7v8l-1-1-1-7 1-1zm56-3v7l-1 1-1-1 1-7zm-9 0-1 7-1 1v-8l1-1zm-37 1v8l-1 1v-1l-1-7 1-1zm81 4-2 7v1l-1-1 1-7z"/></svg>