<svg xmlns="http://www.w3.org/2000/svg" viewBox="0 0 1000 1000"><path fill="#ffbe29" d="M8 195.3c170.8-85.3 341-54.5 513.3-28C676.5 191 833.4 211.8 992 132.7v672c-170.8 85.3-341 54.5-513.3 28C323.5 809 166.6 788.1 8 867.2z"/><path fill="#eb7400" d="M49 513a7742 7742 0 0 1 135.3-313.5c44.7-5 89.3-5.2 135.3-2.1v560c-44.6-3-89.3-3.1-135.3 2.1A4313 4313 0 0 0 49 512.9"/><path fill="#00534e" d="M49 233a527 527 0 0 1 135.3-33.5v560A529 529 0 0 0 49 792.9z"/><path fill="#8d153a" d="M360.6 200.9c195.4 20 393.3 85.9 594.5 4.5v560C758.3 845 563.2 781.7 360.6 761z"/><path fill="#ffbe29" d="M898.6 690.6a58 58 0 0 0 11.7 18.4c9.4 6.4 27.7 0 35.8 7.4 9 9.7-.4 29.8-.6 31.6l.5 8.8s-6.4 2.6-9.1 4c-4 2.6-5.8 7.2-13.2 9.3-19 4.2-18.3-19.2-19.4-39-1-7.4-3.1-16.7-4.4-24-1-6.2-1.3-16.5-1.3-16.5"/><path d="m897.1 689.6 2.3-.4v.8a42 42 0 0 0 11.5 18q4 2.8 16.6 3.1 7.3 0 10.6.5 5.6.9 8.6 3.7c5.5 5.6 5.6 15.3.3 30.6l-.6 1.5v.2l.5 10-1 .4q-6.2 2.5-8.9 4-1.3.8-3.6 3.1a22 22 0 0 1-9.8 6.2c-8.2 1.8-13.3-1-16.5-9q-2.4-6.8-3.4-25.7l-.2-5.2q-.6-4.4-2.7-14.6l-1.7-9.2q-1-6.2-1.4-16.5zm2.6 6q.4 6.6 1 11l1.8 9q2.1 10.5 2.7 15v.1l.2 5.3q1 18.4 3.3 24.9c2.9 7.1 7.5 9.7 15 8a20 20 0 0 0 8.9-5.6q2.5-2.7 4.1-3.6 2.6-1.5 8.3-3.7l-.4-7.6q0-.6.9-3.1c4.9-14 4.8-22.8 0-27.8-3-2.7-8.7-3.8-18.5-4q-12.7-.1-17.2-3.4a38 38 0 0 1-10.1-14.5"/><path fill="#ffbe29" d="M417.1 673.7c0 .1-5.7 14.4-11.7 20.2-9.4 8-27.6 5.5-35.8 15.3-9 12.2.5 29.7.6 31.4l-.5 9s6.4.9 9.1 1.7c4 1.6 5.7 5.7 13.3 6.3 19 .2 18.2-22.4 19.3-42.6 1-7.5 3.1-17.2 4.4-24.6 1-6.4 1.3-16.7 1.3-16.7"/><path d="M418.6 672.5h-2.4v.8q-5.5 14.3-11.4 19.6a42 42 0 0 1-16.6 6.4 86 86 0 0 0-10.6 3 21 21 0 0 0-8.6 6c-5.5 7.1-5.6 16.9-.3 30.6l.6 1.4v.2l-.5 10.1 1 .2q6.3.7 8.9 1.6 1.4.5 3.6 2.3 4.8 3.8 9.8 4c8.2.2 13.3-3.6 16.5-12q2.5-7.4 3.4-26.3l.2-5.2q.6-4.5 2.7-15l1.7-9.4A128 128 0 0 0 418 674zm-2.6 6.4q-.4 6.6-1 11.1l-1.8 9.3a295 295 0 0 0-2.7 15.4l-.2 5.4q-1 18.4-3.3 25.4c-2.9 7.6-7.5 11-15 10.9q-4.6-.4-8.9-3.7-2.5-2-4.1-2.6-2.7-.7-8.3-1.6l.4-7.7q0-.5-.9-2.9c-4.8-12.6-4.8-21.5 0-27.8q4.1-5.1 18.5-8.4 12.7-3 17.2-6.8 5.2-4.7 10.1-16"/><path fill="#ffbe29" d="M898.6 318.6c0-.1 5.7-16.8 11.7-25.2 9.4-11.9 27.5-18 35.8-31.8 9.1-16.8-.4-29.4-.6-31.1l.5-9.2s-6.4 2.2-9.1 2.7c-4.2.3-5.6-3-13.2-.1-19 8.3-18.3 30.2-19.4 51-1 8-3.1 18.5-4.4 26.4a190 190 0 0 0-1.3 17.3"/><path d="m897.1 320.4 2.3-1v-.7Q905 302 911 294.2q4.1-5.2 16.6-13.9 7.3-5 10.6-8 5.6-4.9 8.6-10.1a31 31 0 0 0-.3-31.9l.5-10.5-1 .3a60 60 0 0 1-8.9 2.7q-1.4.2-3.6-.6a14 14 0 0 0-9.8.5 29 29 0 0 0-16.5 19.3q-2.4 8.4-3.4 27.7l-.2 5.3-2.7 16.2-1.7 10.1q-1 6.9-1.4 17.2zm2.6-7.4q.4-6.8 1-11.7l1.8-10q2.1-11.6 2.7-16.4v-.1l.2-5.5q.9-18.8 3.3-26.8a26 26 0 0 1 15-17.5q4.6-1.8 8.9-.4 2.5.8 4.1.6 2.6-.4 8.3-2.4l-.4 8q0 .4.9 2.4c4.8 10.2 4.8 19 0 27.8a64 64 0 0 1-18.5 17.2 82 82 0 0 0-17.2 14.4 83 83 0 0 0-10.1 20.3"/><path fill="#ffbe29" d="M417.1 301.7c0-.1-5.7-16-11.7-23.4-9.4-10.4-27.6-12.4-35.8-23.9-9.1-14.2.4-29.6.6-31.3l-.5-9s6.4.5 9.1.3c4.1-.6 5.7-4.4 13.3-3.1 19 4.5 18.2 27.1 19.3 47.6 1 7.7 3.1 18 4.4 25.7 1 6.7 1.3 17 1.3 17"/><path d="m418.6 303.3-2.4-.6v-.8a74 74 0 0 0-11.4-22.7 55 55 0 0 0-16.6-10.6 119 119 0 0 1-10.6-5.5q-5.6-3.6-8.6-8c-5.5-8.2-5.6-18-.3-30.6l.6-1.3-.5-10.4h1q6.3.7 8.9.4 1.4-.1 3.6-1.4a14 14 0 0 1 9.8-1.7c8.2 2 13.3 7 16.5 16.3q2.5 8 3.4 27.1l.2 5.3q.6 4.7 2.7 15.8l1.7 9.8q1 6.7 1.4 17.1zm-2.6-7.1q-.4-6.7-1-11.5l-1.8-9.7q-2.1-11.3-2.7-16v-.1l-.2-5.4q-1-18.9-3.3-26.3c-2.9-8.4-7.5-13-15-14.7-3.2-.6-5.8-.1-8.9 1.5q-2.5 1.5-4.1 1.6a58 58 0 0 1-8.3-.2l.4 7.7q0 .7-.9 2.8c-4.8 11.5-4.8 20.4 0 27.7q4.1 6 18.5 12.7 12.8 6 17.2 11.1a68 68 0 0 1 10.1 18.8"/><path fill="#ffbe29" d="m566.9 711.2 3.5-2.3 1.6 3c2.4 4 7.3 4.7 11.4 1.5l2.8-2.5 2.4 3.2c3.5 4.3 8.7 5 12.8 1.7 2.7-2.3 3-2.3 4.8-.1 1.1 1.3 4 3 6.7 3.9 4.9 1.4 4.9 1.4 7.7-4a16 16 0 0 0 2.2-11.3c-.4-3.2-.8-8.2-.9-11.3-.2-5.5-.2-5.4 5.6-7.6 3.2-1.2 7-2.8 8.3-3.6a42 42 0 0 0 8.7-13.2q-.5-.9-5.5-2.4c-12.2-3.3-14.2-12-6.4-28 13-25.7 20.6-51.2 20.8-68 0-7.6.2-9.9 1-8.3 2.7 7.2-2.3 34.2-10 53.7l-3.2 7.7 3-.6c1.6-.4 11.3-5 21.5-10.5 28.2-15.1 37.5-18.1 55.7-16.7 15.3 1.3 21.5 5 32.4 20.3 5.7 8 11.1 13.7 21.1 21.8 21.3 17 22.2 18.1 23.2 39.6 1 21.6.5 22.9-11.5 27.4q-15.6 5.9-18.4 19.7c-.7 5 .8 5 6.2.2l3.8-3.6 1.7 3.3c2.5 4.2 6.6 4 10.8-.7l3-3.5 3 3c5 4.6 10.6 3 12.7-3.7q.5-1.9 3 1c4 3.7 11.7 4.3 13.3 1 .2-1.4-.4-4-1.6-6.5a45 45 0 0 1-6.8-20.3c0-8 1.7-11.8 8.3-19.3 8-9.2 10.5-19 4.4-18.5q-6 .4-10-10.7c-4.9-14.6-4-31.4 3.4-60.5 7.5-29.5 8.4-35 8.4-54 0-15.5-.3-18.1-2.8-26.2-1.7-5-4.8-12.2-7.1-16.2l-4.3-7.2 5.5-6.9c16.6-21.4 13-50.6-6.8-60.5-6.2-2.9-7.6-3-18.3-2-6.5.7-16.2 2.5-21.8 4-5.7 1.7-15.2 3.2-21.8 3.4-10.5.2-12.2-.2-16.2-3-4.2-3.2-4.9-4.5-5.8-11.6q-.4-2.5-1.6-3.3c-1.7 0-7.6 6.8-9 10.5-.5 1.7-.8 1.6-2.3-.7a39 39 0 0 1-2.9-7.8c-1.5-7.1.4-11.8 6.3-15.7l4.6-3-2.7-2.3c-6-4.6-14.7-2-18.5 5.8q-1.6 3.5-2.4 4a40 40 0 0 1-4-5c-7.2-10.3-4.8-23.6 4.8-28 5.5-1.9 9.4-.2 10.7 4.6 1.8 7 5.6-2 5.1-10.6-.5-5.7-.5-5.8 2.4-5.8 4.2.4 12.1 7.1 15 12.8 3 6.7 2.8 16.4-.5 24.2l-2.6 6 3.4-1c5.2-1.6 9.8-5.6 12.5-11 2.5-5.7 2.8-15.9.5-21.8-2.2-5.6-2-6.4 1.4-4.6a22 22 0 0 1 11 12.5c2 5.4 2 6.7 1 12.5a51 51 0 0 1-3.4 10.3c-1.8 3.4-2 3.9-.4 4 2.9-.4 8-3.8 10.3-6.9 1-1.6 2.5-5.2 3.3-8.2l1.5-5.5 1.6 4a28 28 0 0 0 12.5 13.5c6 3 8.3 3.2 5.3 0a46 46 0 0 1-4.8-18.9c1-.6 8.6 6.8 18.1 17.4 8.9 9.9 14.2 12.6 22.3 11.6 10.5-1.9 16-14.5 11.7-25.6-3-6.3-8.4-6.3-12.2 0-1.6 3-2 5-1.6 7.7.5 3.4.4 3.8-2 4.2-3 .2-8.7-4-19.3-15-16-16.5-35.3-30.7-49.4-36.1-9-3.3-28-4.7-37.3-2.7a57 57 0 0 0-28 17.4c-11.2 14.3-11.4 33.2-.4 51.9l3.1 5.2-2.1 4.5a27 27 0 0 0 4.1 27.3q.5-.3.9-4c.4-5.9 2-9.2 5.1-10.8 3-1.2 4.5-.5 17.3 6.7 13.6 7.6 35.1 8.2 58.7.5 11.6-3.8 24.8-4.7 30.9-2 10.9 5.4 13.3 20.4 5.4 34-3.6 5.8-6.8 8.3-18 13.6-8.5 3.8-10.6 4.4-30 5a115 115 0 0 0-29.3 2.7c-7.3 2-12 2.4-33.5.8l-25-2.2 2.9 3.3c1.5 1.8 3.6 4 4.7 5 1.9 1.6 1.9 1.8-1 3a21 21 0 0 1-8 1l-5.2-.3-.7 5.8a34 34 0 0 0 .1 8.5c.6 2.2.4 2.4-1.2 1.5-1.1-.6-4-1.9-6.7-2.8-2.6-1-6-2.9-7.7-4-2.9-2.2-3-2.2-4.2.2a44 44 0 0 1-10.8 10q-.4-.3-.6-3.8a87 87 0 0 0-2.8-12.3l-3.3-11.4c-.6-2.3-.8-2.4-1.5-.8-.5 1.1-1.2 4-1.6 6.7a42 42 0 0 1-2.9 9.2l-2.2 4.5-1.4-4.2c-1.7-4.7-4-9-5-9.4q-.5.2-1.2 3c-1 3.8-6.5 12-8.2 12.4-.5-.4-1-2.8-1-6.3s-.5-6-1-6.4q-1 0-1 1.9c-.5 3-5 9.2-7 9.5q-1.3.1-2.6 1.7c-2 2.7-3.3 2.2-2.7-1 .3-1.6.1-5-.5-8l-1.6-6.9c-.5-1-2-1-6 .2q-9.7 2.7-5.2-2c1.2-1.2 3-5 4-9.1 1.1-4.2 2.5-7.2 3.4-7.7 1.1-.2 1 .2-.3 2.6-1 1.7-1.7 3.9-1.8 5.1 0 1.2-.7 3.7-1.6 5.9-.9 2.1-1.3 3.9-1.2 4.3q.8.1 5.3-2l5-2.7v3c0 1.5.6 5.8 1.3 9.4l1.3 6.7 3.4-1.7c3.5-2 6.5-8.8 6.7-15 .2-3 1.1-2.4 1.8.8.1 1 .9 4.5 1.7 8l1.5 6.1 2.3-3.5c1.2-2 2.8-5.8 3.5-8.7 1.3-5 2.8-6.9 3-3.2.4 3.2 5 12 6.3 12 .5-.5 1.5-3.7 2.2-7.7 1.7-8.3 3.7-13 5.4-12q.9.9.5 2c-.2.7.9 6 2.7 12.2l4 13.6c.7 2.3 1.2 2 5-2.2 2.5-2.7 4.5-5.7 4.9-6.7.4-1.6.9-1.5 3.1.6 3.7 3.1 13.2 7.6 14.5 7 .2-.4.6-4 .7-8.2V491l3.1 1c1.8.6 5 .8 7.8.6l4.7-.7-4.2-4.2a35 35 0 0 1-5.2-6.6q-1.3-2.2-5-3.1c-6.7-1.6-17-10.5-17.6-14.9q.4-.9 3.5 3.2c4.4 5.7 9.9 9.2 15.2 9.8l3.8.3-2.4-4.5a37 37 0 0 1-2.8-11.2c-.5-6.2-1-7.1-5.7-12a79 79 0 0 1-7.7-9.5l-2.7-4.3-1.3 4.7q-1.3 4.2-2 4.6-.8-.5-3.2-3.7a16 16 0 0 0-3-3.7c-.4.1-1.6 2.2-2.8 5.3l-2 5.5-1.7-3.4c-1-2-3-5.3-4.6-7.6q-2.7-3.6-2-4c.6.3 2.6 2.4 4.6 5.4l3.5 5.1 1.4-3.4c.8-2 1.1-5 .8-7.8-.5-3.8-.5-4 .6-1.6.7 1.6 2.7 4.7 4.6 7l3.3 4 2.3-5.6c2.3-5.5 2.3-5.5 3.3-2a86 86 0 0 0 20 24c1.5.8.8-2.3-1.6-10.7-.6-2.2-1.1-6-1.2-8.6 0-3.8-.8-5.4-4.3-9.5a28 28 0 0 1-7.8-18.3c-.4-3.6-1.4-7.4-2-8.8-1.1-1.9-1.2-1-1 5.6.2 4.4-.2 9.7-.9 12l-1.2 4-1-3.6c-.7-2-3-5.3-5.3-7.7-2.5-2.5-3.8-4.5-3.7-5 .5-.2 2.6 1.6 5.4 4.8 4.1 4.6 4.8 5 5.5 3.3a77 77 0 0 0-1.3-18.7c-.6-3.4-.6-3.3 2.5 1 2.2 3.4 3.4 7 4.4 13.5 1.3 8.2 1.8 9.5 7.3 16.5 3.5 4.4 6 7 6.4 7.1 0-.3.6-10.3.9-22.5.5-23.4-.1-28.9-4.2-36.4l-2.1-3.9 3.3-4.6a37 37 0 0 0 7.2-18l.7-5.7-3.8 4.6c-3.2 3.8-4.4 4.5-8 4.3-3.7-.4-4.8-1.1-7.3-4.8-3-4.4-7.9-8.7-12.8-11.2-1.8-.9-2.3-.7-2.4 1 0 1.3-1 4.6-2.2 7.6l-2.2 5.4-4.6-6.7q-4.6-6.5-8.7-8.6c-6.4-3-6.6-2.8-6.7 3.7q-.2 14.8-8.6 4.1c-4.4-5.5-7.6-6.9-15.7-6.8l-6.2.1 1 4c1 3.4.8 4.5-1.2 8-3.4 5.5-7.3 7.3-13.9 6.5-3-.3-6.6 0-8.3.8-1.7.7-5.4 1.3-8.7 1.3a39 39 0 0 0-7.6.6c-1.5.5-1.7 0-1.2-4.8.5-7.3-2.8-12.6-8.7-13.8-7.6-.8-10.8 7.2-8 20 .6 2.4 1.3 6.2 1.6 8.4.5 2.3 3.7 8.6 7.9 15 4 6 7.7 12.2 8.3 13.7a23 23 0 0 0 4.6 6l3.4 3-.5-5q-.7-8.4 2.5-2.1c.9 1.5 2.7 4 4.3 5.5 2.6 2.5 3 2.6 3 .8 0-1.2.5-3.8 1.1-5.9l1.2-3.7 2 5.6c1.1 3 4.6 10 7.9 15.7 6.3 11.1 9.9 22.1 8.1 24.8-1 .8-2.8.5-7.5-1.3a35 35 0 0 0-9.6-2.5c-3.7.1-3.9-.4-1.7-4 2.3-3.8 2-4.3-2.6-5-5.5-1-18.6-6.3-24-9.9-5-3.3-6-3-7.6 3.4l-2.7 11.3-1.5 6.2h5.4c3 .1 6.8-.2 8.5-.6q2.9-.7 3.5-.3c0 .3-.6 2.5-1.7 5.3l-2 4.8 3.3-.4a26 26 0 0 0 6.2-1.9c2.8-1.4 3-1.3 5.1 3.8q4.2 9.1 5.2.1c.6-6.2 1.9-5 4.8 3.7 3 8.5 5.4 11.6 6.2 7a10 10 0 0 1 3.3-5.3c3.5-2.6 5.5-1.6 7.2 3.7 1.3 5.5-1.7 10-11.4 16.8-19.1 13.4-30 33-33.4 60.3a98 98 0 0 0 24 72.6c8.9 10.2 21.8 21.2 21.4 17.6-3.6-16-3.4-44.1.2-48.9.6-.4.3 2.2-.5 6.7-2.9 16-1.6 29.2 6 61 7 28.8 6 40.1-3.8 47-3.2 2-5.1 2.2-13.7.9-9.2-1.4-10-1.3-13.1 1.4-2.9 3-6.4 12.2-6.6 17.2.3 2.6 2 2.5 6.3-.1"/><path d="m568.5 713.8-.5.3a13 13 0 0 1-5.5 2.2q-1.7 0-2.9-1.3a7 7 0 0 1-1.3-4q.1-4.4 2.5-10.7 2.5-6.3 5-8.8a10 10 0 0 1 5.2-2.8q2.2-.1 9.4.9 6.2.9 8.4.7 2 0 4-1.4c4.3-3 6.5-7 7.1-13q.8-9.6-4.2-30.4l-3.6-15.7a5 5 0 0 1-2.4-.7q-2-1.1-5.8-4.1-8-6.6-14.5-14.3-13.9-16.4-20.5-36.3a92 92 0 0 1-4.4-39.4c3.4-28.2 14.7-48.5 34.5-62.3 8-5.6 11-9.7 10.4-13.2q-.8-2.3-1.4-2.7-.8-.4-2.4.9-2.1 1.9-2.3 3.3-.5 3.3-2 4.2c-1.4.7-2.4.4-3.9-1.2q-2.2-2.7-4.6-9.7l-.7-2.2c-.7 3.6-1.7 5-3.7 5.1-2-.2-3.6-2-5.5-6.4l-1.2-2.6-1 .5q-3 1.5-6.7 2l-8.1 1 4.3-10.2a42 42 0 0 1-8 .5l-8.9-.1 2.6-10.6 1.1-5 1.6-6.3q1.4-6 3.7-7c1.7-.6 3.7 0 6.9 2.2q3.7 2.4 11.4 5.7 7.9 3.1 11.7 3.7c3.2.5 4.8 1.4 5.7 2.9q1.3 2.5-.5 6.2 3.4.3 9.2 2.6 4.5 1.8 5.3 1.8v-.7q-.3-2-1.3-5a84 84 0 0 0-6.9-14.8q-5.5-9.7-7.8-15.5l-.3 2.3q0 1.4-.4 2.3-.8 2.2-2.6 1.7-1-.2-3.4-2.6l-3.2-3.5.8 8.7-7.3-6.6a22 22 0 0 1-5.4-7.2q-1-2.4-8-13.1a55 55 0 0 1-8.5-16.6q-.6-3.9-1.6-8a30 30 0 0 1 .3-17.5c2.1-5 5-6.9 9.9-6.3 3.7.7 6.2 2.4 8.5 5.8a19 19 0 0 1 2.5 12v.5q2.2-.3 6.3-.3 5.4 0 8-1.2a17 17 0 0 1 9.2-.9c5.6.6 9.2-1 12-5.5q1.3-2 1.4-2.9l-.3-2.1-2.3-8 9.2-.1q6.3 0 10 1.4 3.8 1.7 7.5 6.3c2.1 2.8 3.3 3.7 4 3.6.5-.5.8-2.1.8-5.8.1-4.7.8-7 2.3-8 1.3-.6 3.4-.1 7.3 1.6q4.6 2.3 9.7 9.5l2.5 3.6.7-1.9q1.9-4.6 2-6.1 0-3.3 2-4.2 1.1-.5 3.3.5 8.6 4.4 13.7 12c1.7 2.4 3.3 3.5 5.6 3.8q2.2.1 3.4-.4 1.1-.7 3.2-3.1l8.7-10.7-1.9 14.7q-1.4 10.4-7.7 19.6l-2 2.8.9 1.7q3.4 6.3 4.3 13.7.7 7 .4 24.7-.6 23.4-1.7 24.7-.8 1-2.2.4v1.2q0 4 1 7.4 1.9 6.4 2.4 9.3.3 2.4-.1 3.7-.6 1.9-2.1 2-.8 0-1.8-.7l-2.6-2.3.2 2.6q.6 5.9 2.4 9.6l4.7 8.8 23.4 2q16.1 1.3 22 1 5.6-.3 11-1.7 8.7-2.3 29.7-2.7 14.6-.5 18.9-1.3t10.5-3.6a74 74 0 0 0 11.5-6.3q3-2.4 5.4-6.1a26 26 0 0 0 3.8-17.4 15 15 0 0 0-8.4-12 28 28 0 0 0-12.5-1.2q-8.7.7-17 3.4-17.9 5.8-33.6 5.7a56 56 0 0 1-26.4-6.3q-9.4-5.3-12.1-6.4-2.2-.8-3.6-.3c-2.2 1.3-3.3 3.6-3.7 8.2-.3 4.9-1.2 6.7-3.1 6.9-1.3-.3-2.8-2.2-5.3-6.8q-3-5.9-3.2-12.9t2.5-12.6l1.2-2.6-2-3.4a58 58 0 0 1-8.7-29.7 42 42 0 0 1 9.3-26.5 55 55 0 0 1 29.1-18.1q7.1-1.5 19.3-.7 12 1 19 3.5 10.9 4 24.5 14.1t25.8 22.5c9.3 9.7 15 14.1 17.6 14.4q-.9-5.4 2-10.6c2.5-4.1 5-5.9 8.5-6 3.4.1 5.6 1.9 7.5 6a24 24 0 0 1-.3 19.5c-3.2 6.5-7.3 10-13.4 11q-6.4.8-11.8-1.8a48 48 0 0 1-12-10.4q-7-7.8-12.1-12.9l-1.8-1.6.7 2.8q1.9 7.1 2.8 8.2 1.7 1.5 2 3 .8 2.6-.9 4.2-.6.7-1.9.7a29 29 0 0 1-19.6-15.6q-1.5 5.4-3.5 8.5a21 21 0 0 1-12 7.8q-1.1 0-1.8-.3-1.8-1.2-1.5-3.9.1-1.5 1.9-4.6a36 36 0 0 0 3.6-14.5q-.2-1.5-1.5-5a21 21 0 0 0-8-10q1.7 4.8 1.6 11.7-.3 7.5-2.5 12.5a22 22 0 0 1-14 12.3l-8.4 2.2 5.3-12q2.1-4.9 2.3-10.9 0-5.9-1.8-9.9a26 26 0 0 0-6.3-7.5q-4.5-3.7-6.8-3.9h-.3l.2 2.3q.6 7.5-2.1 13.3-1.7 3.4-3.8 3.4-2.8-.1-3.7-5-.4-1.7-2.2-2.6-2.4-.9-5.5.3c-4.1 2-6.3 4.7-7.3 9.6-.7 4.9.2 9 3.2 13.3l2.2 2.9.7-1.5a16 16 0 0 1 9.9-9c4.7-1.2 8.2-.6 11.8 2.3l6.2 5.4-8.3 5.3c-4.7 3.2-6.2 6.7-5.1 12q.9 3.5 2 5.7 1.2-2.4 3.8-5.4c3.3-3.7 5.2-4.8 6.9-4.3 1.8 1 2.7 2.5 3.2 5.7q.6 4.5 1.2 6 .8 1.3 3.3 3.3 2.7 1.9 5 2.3 2.5.5 10.2.4 11.5-.5 21.4-3.3a121 121 0 0 1 22.1-4q8.3-.9 11.3-.6a32 32 0 0 1 20.7 13.9c3 5 5 10.3 5.8 16.8a52 52 0 0 1-11.2 37.6l-3.7 4.8 2.9 5a86 86 0 0 1 10 27.8q.4 4.5.4 16.3 0 14.7-1.5 23.8-1.4 9-7 31.4a198 198 0 0 0-6.2 34.9q-.7 13.1 2.7 23.3c2.4 6.6 4.7 9.3 7.9 9 2.4-.2 3.8.5 5 2.5q1.2 2.7.2 7-1.7 7.1-8.3 14.6-4.5 5.2-6 8.4-1.3 3.2-1.3 8.2.2 6.5 6.4 18.7c1.9 3.8 2.4 6.6 1.8 9.3-1.2 3.4-3.4 4.6-8.1 4.4-3.9-.4-6.5-1.6-8.7-3.8l-.3-.2a10 10 0 0 1-6.2 5.9c-3.5.8-6.1 0-9.2-3l-1.6-1.5-1.6 1.8c-2.5 2.9-4.7 4.2-7.5 4.5-3 0-4.9-1.2-6.6-4.3l-.4-.8-2 1.8q-4.5 4-6.7 4.1-2.4-.1-3-3.1-.4-1.7 0-4.4c2.3-10.8 8.7-17.6 20.2-22 5.5-2.1 8.2-4 9.2-5.7q1.2-3 .5-18.3a52 52 0 0 0-3.5-19.8 99 99 0 0 0-18.6-17.5 117 117 0 0 1-21.6-22.3 57 57 0 0 0-13.8-14.8q-6-3.7-17-4.6-13.1-1-23.4 2-10.4 3.2-31.2 14.5a163 163 0 0 1-22 10.7l-3.8.8-6.3 13.5q-5.4 10.8-4.1 16.1c1 3.4 3.5 5.5 8.7 7 5.3 1.4 7.3 3 7.6 5.7q0 2.5-4 8.7a29 29 0 0 1-6 7q-2.5 1.5-8.5 3.8-3.8 1.5-4.2 1.9v2.8q.3 5.4 1 11a24 24 0 0 1-6.6 19q-1.7.8-5.9-.5a16 16 0 0 1-8.4-5.3l-1.4 1.2a10 10 0 0 1-8 2.4c-3.2-.5-5.5-2-7.7-4.7l-1-1.3-1.4 1.2a10 10 0 0 1-7.6 2.4 9 9 0 0 1-7-5l-.3-.6zm-2.8-5.5 5.4-3.4 2.7 5.4q1 1.7 3.2 2c2 .2 3.4-.3 5-1.6l4.4-3.8 3.8 5.1a7 7 0 0 0 4.6 2.7q3 .3 5.3-1.6 2.4-2 3.8-2.2 1.7 0 3.7 2.6 1.4 1.8 5.6 3 2.9.9 3.4.7t2.1-3.6q1.6-3 1.9-4.6t0-4.5q-.7-6-1-11.6 0-5.4 1.2-7.2 1.1-1.4 6-3.3 5.6-2.1 8-3.5 1.2-.8 4.5-5.7l2-3.1-2.6-.8c-7.2-2-11-5.6-12.6-11.7-1.1-5.7.3-12.5 4.6-21.3q9.6-19 15-36.8 5.3-17.5 5.4-29.5 0-6 .3-8.1.3-2.3 1.2-3.1 1.4-1.2 2.9.2l.9 1.5c1.6 4.4 1.4 12.3-.8 24.6a172 172 0 0 1-9.3 32.1l-.6 1.7q4.8-2 19.1-9.6a207 207 0 0 1 32-14.8 69 69 0 0 1 24.7-2.1q11.8 1 18.7 5.2 6.9 4.4 15.2 16 7.5 10.5 20.7 21.3 16.4 13 19.8 18.8 2.4 4.1 3.4 9.8.6 4 1 13.3.9 17.2-1 22-1.6 3.3-4.8 5.5-2.2 1.4-7.4 3.3c-9.4 3.6-14.6 8.7-16.5 16.5l2.5-2.2 5.7-5.2 3 5.6q1 1.9 2.9 1.8 2.3-.1 4.6-3l4.4-5.1 4.4 4.5c2 1.8 3.6 2.4 5.7 1.9q2.6-.9 3.5-4c.8-2.6 1.8-3.3 3.8-2.8q1.1.4 2.9 2.2 2.1 2.2 6.3 2.6 1.9 0 3-.3v-.4l-1-2.9q-7-13.5-7.2-22 0-6.8 1.9-11.6 2-4.4 7.3-10.3t6.6-11.3q.3-1.4.2-1.7t-1.1-.1c-5.2.5-8.9-3.3-12-12.2a71 71 0 0 1-3.2-26.4 205 205 0 0 1 6.5-36.5q5.6-22 6.9-30.5t1.3-22.4q0-11.4-.4-15.4-.4-3.9-2.2-9.7a80 80 0 0 0-6.8-15.5l-5.6-9.5 7.1-8.9c7.7-9.8 10.7-20 9.5-31.6-1.4-11.7-6.4-19.1-15.7-23.7q-4.4-2-6.9-2.4-2.7-.2-10.5.5-11.5 1.2-21.4 4a90 90 0 0 1-33 3q-3.1-.7-6.5-3-3.6-2.8-5-5.3a32 32 0 0 1-2-8.8l-2.5 2.6a20 20 0 0 0-3.7 5.6q-1 3.8-3.4 3-1.1-.4-2.7-3-2-3.2-3.3-8.8c-2-8.8.3-14.8 7.4-19.5l.8-.5q-3.1-2-7.4-.6-5 1.6-7 6.2-2.5 5.3-4.3 5.3-1.6-.1-5.8-5.8a25 25 0 0 1-4.5-19.3c1.4-7 4.6-11.3 10.3-13.8a11 11 0 0 1 8.3-.3 9 9 0 0 1 5 5.7q1.3-3.5 1-8.2-.5-5.2.1-7c.8-1.5 2-2.2 4.5-2.2q3.6.1 9.2 4.8a31 31 0 0 1 7.8 9.4c1.7 4 2.5 8.2 2.5 13.5q-.2 7.4-3 13.8c4.2-1.7 7-4.5 9.3-9q1.6-3.4 1.8-9.3 0-5.9-1.3-9.4-2.1-5.3-1.5-7.7.8-2.9 3.3-2.3.9.1 2.4 1a26 26 0 0 1 12.1 14 32 32 0 0 1 2 7q.1 2.8-.7 7.6-1.1 5.2-2.7 9.1l1.2-.7q3-2 4.2-3.8 1.5-2.2 2.8-7.1l3.1-12 4.1 10q3.4 7.9 11.4 12.1l.3.2-1.7-5.7c-1.6-6.8-1.7-10.7-.5-12.6 2-2.4 8.7 3.2 21.1 17q6.4 7 10.9 9.5 4.3 2.2 10 1.5c4.4-.8 7.2-3.1 9.5-7.6a16 16 0 0 0 0-13q-1.3-3.5-4-3.5-2.5 0-4.4 3.3a8 8 0 0 0-1 5q.5 3.8-.3 5.7-1.1 2.1-4 2.6c-3.5.2-10.1-4.5-20.7-15.5q-12-12.3-25.2-22T757.5 337a71 71 0 0 0-18.1-3.3 69 69 0 0 0-18.2.6 51 51 0 0 0-26.8 16.7 36 36 0 0 0-7.9 22.1q0 12.7 7.6 25.6l4.2 7-3 6.3a21 21 0 0 0-1.8 9.1q.3 5.1 2.4 9.4l.4.7c.8-6.1 2.8-9.5 6.5-11.4q2.8-1.2 6.2.2 3 1.2 12.7 6.7a53 53 0 0 0 24.7 5.7q15.3.2 32.6-5.4a77 77 0 0 1 18-3.6q9.4-.6 14.3 1.6c6.2 3 9.7 8 11.1 16a34 34 0 0 1-11.7 30.7 77 77 0 0 1-23.7 10.7q-4.5.8-19.2 1.3-20.6.3-28.8 2.6a53 53 0 0 1-11.8 1.8q-6 .3-22.2-.9l-18.2-1.5 2 1.9q2.5 2.2 2.4 4.5l2 2-3.1.5a10 10 0 0 1-2.6 1.6q-3.5 1.5-9 1.1l-3.1-.2-.4 3.3q-.6 5 0 6.8 1 3.5-.4 5.3c-1 1-2 1-3.8 0a54 54 0 0 0-6.3-2.6 35 35 0 0 1-9.4-5.2v.1q-1.1 2.2-6 6.8-5.2 4.8-7 4.6c-1.6-.4-2.4-2.3-2.8-7q-.2-3.2-2.6-11.2l-2-6.5v.8q-.9 5.4-3.2 10.3l-4.5 9-3.2-9.5-2.2-5.3q-1 3-4 7.5c-2.7 4.1-4.5 5.7-6 5.8-1.6-.4-2.5-1.6-3-4.7l-.3-2.6-1 1.5q-3.5 4.8-5.7 4.5-.4 0-1 1-2.4 3.1-4.5 2.3-1.9-.8-2.3-3.6-.1-1.5.3-3.4.3-1.6-.6-6l-.2-.7-1-4.5-3.5.8q-5.2 1.5-7.3.9-1.2-.6-1.9-1.9a5 5 0 0 1-.2-3.6q.5-1.4 2.1-3 1.5-1.5 3.3-7.8l1.4-4.8-4.9 3.7c-18.5 13-29.1 32-32.3 58.3a84 84 0 0 0 4 35.8 102 102 0 0 0 36 49.6q-2-10.8-1.9-25c.1-12.3 1.3-19.4 3.6-22.3q1.1-1.3 2.5-.5 1.2.7 1.6 2.6v2.4l-.7 5.6a86 86 0 0 0-1 23.5q1.2 12.2 6.9 35.7a119 119 0 0 1 4.5 33.1c-.8 8-3.8 13.5-9.4 17.5a12 12 0 0 1-5.6 2q-2.6 0-9.2-.8a52 52 0 0 0-8.5-.9q-1.4.3-3.2 1.9a35 35 0 0 0-5.5 13l2.3-1.2zM673 473a36 36 0 0 1-3-12q-.2-3.9-.8-5.1-.7-1.4-3.8-4.6-5.2-5.5-8.1-10.1l-.2-.2c-1.4 4.6-2.5 6.3-4.1 6.4q-1.6-.2-4.8-4.8l-1-1.4-1.1 2.6-3.9 10-3.8-8q-1.5-3-4.3-6.9-1.4-2-2.1-3.4-.6-1.2-.7-2.1-.2-1.7.5-2.7t1.9-1c1.4.3 3.3 2.1 6.2 6.3l1.4 2q1-2.3.5-5.6-.5-4-.2-5.1.6-1.4 1.6-1.6t1.7.6l.9 1 .7 1.7q1.1 2.4 4 6l1.3 1.5 1-2.4q2.1-4.8 3-5.6l1.2-.4-2-7.2q-.8-2.6-4.4-6.3a35 35 0 0 1-4.3-5.2q-1.2-2.8.2-4.7c1.7-1.4 4 0 8.4 5l2.1 2.3a86 86 0 0 0-1.5-14.8l-.3-2.3q-.1-1 .1-2 .8-2.5 2.8-1.7 1 .5 3.7 4.4 3.5 5.3 5 15 .9 5.7 1.8 7.7 1 2.2 4.8 7l3 3.7v-1.4l.5-15.7q.4-17.2-.3-23.5-.7-6-3.4-10.8l-3.3-6 4.6-6.6q4.4-6.1 6-12.9-3.9 3.8-8.3 3.5c-3.7-.4-6.3-2.2-8.9-6a30 30 0 0 0-11.4-10q-.4 2.7-2.3 7.2l-3.6 8.9-6.8-9.9q-4.2-5.9-7.7-7.7l-3.8-1.6v2.6c-.1 6.5-1.2 9.8-3.6 11.2-2.6 1-5-.5-8.8-5.1a16 16 0 0 0-5.5-4.7q-2.9-1.2-8.5-1.2l-3.2.1c1 4 .5 7.3-1.6 11-3.7 6-8.6 8.4-15.7 7.5q-4.8-.6-7.3.6-3.2 1.6-9.5 1.6-5.5 0-7 .4-1 .5-1.9.2-1.8-.5-2.4-2.9-.3-1.5 0-5.8.5-3.9-1.3-6.6-1.8-2.9-5.1-3.4c-3-.3-4.6.7-5.9 3.5a23 23 0 0 0 0 12.7q1.1 4.6 1.8 8.7.5 3.1 7.2 13.4 7.4 11.2 8.7 14.5.9 1.8 3.2 4.1c-.1-3.5.3-5.3 1.3-6.3 1.8-1.3 3.2-.3 5.4 3.7q1 2 3.4 4.4l1-3.8 3-9.7 4.3 11.8q2 5.3 7.6 15a91 91 0 0 1 7.5 16.4c2.1 6.6 2.2 10.4.5 12.7-1.6 1.5-4.3 1.3-9.5-.7q-6-2.3-8.9-2.3-4.2 0-5.3-2.4c-.6-2-.3-3.9 1.4-6.7h-.7a63 63 0 0 1-12.5-4 73 73 0 0 1-12.3-6.2q-2.9-1.9-3.4-1.7-.3.2-1.2 3.5l-1.5 6.4-1.2 5-.4 1.8h2a34 34 0 0 0 8-.6c3-.7 4.6-.5 5.7.7.9 1.7.6 4.1-1 8.4q2.3-.5 4.3-1.4 2.9-1.5 4.6-.3 1.4 1 3.3 5.6l1 1.8v-1q.3-2.8.8-4.3 1.3-3.4 4-1.5 1.8 1.6 4.4 9.1 1.2 3.7 2.2 5.6 1-3 3.9-5.6c2.4-1.8 4.1-2.2 6.2-1.2 2 1.1 3.3 3.1 4.4 6.8q1.5 5.8-2 11l-.6 1 .2.1q2.5.9 2.1 4.1-.2 1.4-1.5 3.7a9 9 0 0 0-1.3 3.3q0 2-1 5l.2-.1 8.2-4.3v7.8q.1 2.5 1.3 8.7l.6 3 1-.5q1.9-1 3.6-4.7 1.7-4 1.7-7.6 0-1.9.5-3 1-2.5 3-1.6 2.1 1 2.8 5.3l1.7 7.6.1.7q1.8-3 2.8-7.2 1.1-4.4 2.7-6.2 2-2.1 3.7.3 1 1.4 1.1 4.1 0 1 2.3 5.4l.9 1.6.8-3.8q1.2-6.5 3-10.4a11 11 0 0 1 2-3.2q1.8-1.8 3.7-.1 1.2 1 1.6 2.7a6 6 0 0 1 0 2.8l.5 2.4q.8 3.5 2.1 7.9v.1l3.5 12a70 70 0 0 0 6.1-7.6q.9-3.4 3.3-3a9 9 0 0 1 3.2 2.3 36 36 0 0 0 11.4 6.2l.3-5.2.2-11.4 5.7 2q2.3.9 5.9.6a28 28 0 0 1-5.3-7q-.4-1-3.2-1.5-5.2-1.1-12-6.8c-5.2-4.5-7.5-8-7.6-11.4q0-2 1.2-2.8a2 2 0 0 1 1.8-.2l1.5 1 2.7 3.3c4.1 5.3 8.1 8 13 8.7m-11-55-.7 2.8-2.6 8.4.6 1.1.8 2.4q1 2.9 6.7 9.8 4.2 5 8.5 9.1l-1-3.4q-1.3-4.5-1.4-9.8a8 8 0 0 0-.4-3q-.8-1.4-3-4a36 36 0 0 1-6-9q-.8-2-1.5-4.5m-27.5 62.9v-.2z"/><path fill="#ffbe29" d="m716 724.9 3.9-3.3 2.6 3.5q5.5 6.6 10.7-.1 2.4-3.3 3-3.1l1.3 3.3c1 2 2.4 2.8 5.5 3.1 3.8.3 4.6-.1 6.1-3l1.7-3.4 3.8 3.2c10.6 8.7 15.8-.8 11.3-19.8-2.3-9.7-1-15 6.6-27.7 3.2-5.5 5.6-11 5.8-12.7 0-2.5-.5-2.7-4.9-2.5-4.1.3-5.1-.2-7.4-3.4-3.4-5.3-3.2-10.9.6-18l3.1-5.4-5.5-5a110 110 0 0 1-12.2-14.5c-8.4-12-16.3-17.4-27-19l-7.2-1v7.4c0 9.6 3.3 18.7 12.2 34.5 10.2 17.8 10.9 20.4 11.3 43.5l.4 19.6-3 3.8c-2.7 3.4-3.8 3.9-12.4 4.5-8.3.5-9.8 1-12.3 3.8-3.2 3.8-4 5.7-5.1 11-.6 3.2-.4 3.8 1.3 3.9 1.2-.1 3.6-1.4 5.8-3.2"/><path d="M717 727.8q-4.3 3.5-6.8 3.4-2.7-.2-3.6-2.6-.4-1.8 0-5.2c1-5 3-9 5.9-12.6q2.2-2.6 5-3.5 2.3-.6 8.7-1 6.1-.5 8-1.1a8 8 0 0 0 3-2.6l2.2-2.8-.4-18.2q-.3-16.8-1.8-22.8a97 97 0 0 0-9-19 136 136 0 0 1-9.7-20q-3-8.4-3-16.4v-10.8l9.7 1.4c10.8 1.7 20 8 28.4 20a86 86 0 0 0 11.9 14l7.6 6.8-4.7 8.1c-3 5.7-3.3 9.9-.7 14a7 7 0 0 0 2 2.2q1.1.5 3.7.2 3.6-.2 5 .4c1.5 1 2.1 2.4 2.2 5.1a40 40 0 0 1-6.4 14.7 59 59 0 0 0-6.6 14q-1 4.4.5 10.7c2.5 10.7 2.4 18.1-.4 23.3-3.4 5.6-7.7 5.7-14.3.3l-2-1.7-.4 1q-1.5 3-3.3 3.8-1.6.8-4.8.6c-3.9-.5-6-1.9-7.3-4.7l-.2-.4-.5.7c-2.3 3-4.3 4.2-7 4.4-2.6-.1-4.6-1.3-7-4.2l-1.3-1.7-2.3 2zm-2-5.8 5.1-4.3 4 5.1c2.8 3.4 4.8 3.3 7.5 0l3.1-3.6c1.6-1 2.4-.7 3.3 1l1.5 3.4q.6 1.4 3.7 1.6 2.2.3 3-.1.4-.3 1-1.6l3-5.9 5.7 4.9c4.2 3.4 6.5 3.8 8.2 1.3 1.7-3.4 1.7-8.9-.4-17.4a33 33 0 0 1-.4-14.7q1.5-6 7.4-16 4.8-8.1 5.3-10.2h-2.5q-3.5.3-5.3-.5-1.9-1-3.9-3.8c-4.3-6.7-4.1-13.6.5-22l1.6-2.8-3.5-3.1q-5.7-5.2-12.6-15c-7.6-10.8-15.8-16.6-25.6-18.1l-4.6-.7v4q0 12 11.7 32.6 7.8 13.8 9.7 20.6 1.7 7 2.1 24.8l.4 20.9-3.7 4.8a12 12 0 0 1-5 4q-2.2.8-8.9 1.3-5.9.4-7.9 1a7 7 0 0 0-3 2 22 22 0 0 0-4.3 9.3q1.2-.7 3.6-2.6z"/><path fill="#ffbe29" d="M497.4 649.7a16 16 0 0 0 1.7-5.8c0-2.5.7-3 4.7-3.2l4.8-.2-3.2-4q-5.7-7.6-.8-7.4c3.6.2 8.6-3.2 9.8-6.7q.5-2.7-.5-5c-2.2-3.1-5-3.3-6-.2-.9 3.4-1.8 3.2-4.6-.6-3.9-6.2-4-16.2-.2-22.2 1.9-2.6 1.9-2.8-.5-6.2-2.5-4-4-10-3.1-11.7q1-.5 4.4 1.5c3 1.8 4 2 5.3 1 3.4-3.9-.1-8.7-6.2-8.9-2.4 0-3.2-.4-3.6-2.2q-1-2.3-4.7-4.4c-4.1-2.1-4.1-2.1-4.1 1.8q-.1 6.4-5.2 1.5c-3-2.5-5.2-1.4-5.5 2.7.3 4 2.6 5.8 7.7 6.4q5.8 1 .4 9l-2.6 3.6 2 4.4c3 6.7 2.7 16-.5 20.7l-2.6 3.4-1.7-3.3c-2.7-4.7-5.3-4.9-6.5-.5-.5 3-.1 4.3 2.6 8 2 2.5 4.5 4.4 6 4.8 3.6 1 3.4 4-.3 7.7l-2.9 2.6 4.5 1.7q4.1 1.6 4.6 2.9c.2 3 3 10.7 4 11.4q1.2 0 2.8-2.7"/><path d="m496 657.3-.3-2-1 .1c-1.5-.4-2.8-2.3-4.5-6.8q-1.3-3.7-1.8-6.3-1-.7-2.7-1.3l-9.8-3.6 7.2-6.4q1.2-1 1.7-1.9c-2.5-.5-4.7-2.2-7.6-5.7-3-4.1-4-7.5-3.3-11.3q1.1-5.4 4.7-5.2 3.3.3 5.8 5.2v.1l.8-1q1.9-2.6 2-7.7 0-5.1-1.7-9.1l-3-6.5 3.8-5.3q1.5-2.3 2-3.6h-.5c-3-.3-5-1-6.9-2.4a10 10 0 0 1-3.3-7.4c.2-3.5 1-5.3 3-6.5 2-.8 3.7-.4 6 1.6l1.6 1.5v-.9c.1-3.4.7-5 2-5.8q1.2-.4 5 1.4c3.6 2 5.4 3.8 6.2 6.4l1.3.1c3.8 0 6.3 1.2 8.5 4.2a9 9 0 0 1 1.7 5.5q-.2 2.9-2.3 4.9c-1.9 1.5-4 1.3-7.4-.8l-1.6-.8.2.7q.9 3.3 2.4 5.5 2.2 3.4 2.5 5.4 0 2.2-1.8 5.1a16 16 0 0 0-2.4 9 17 17 0 0 0 3.2 10c.8-2.7 2-3.8 4.5-3.9q3.2.2 5.4 3.8c1.4 2.6 1.7 5 1 8.1q-1 3.6-5 6.3a11 11 0 0 1-6.3 2.3l1.5 2 7.4 9.2-10 .4q-2.2 0-2.9.3 0 4-2 7.6zm-.4-10q1.1-1.9 1.2-3.8 0-3.5 2-5a10 10 0 0 1 4.3-.9 16 16 0 0 1-3-6.6q-.3-2.9 1.4-4.4 1.1-.9 3.1-.6 1.8.2 4.7-1.6 2.5-1.9 3-3.3.3-1.2-.1-1.9-.7-1-1.6-1.1-.4 0-.6.3c-.7 3.3-1.8 4.4-3.7 4.3q-1.9-.3-4.6-4.1-3.6-5.4-3.7-13.5 0-8 3.4-13l.5-.7-.9-1.2a28 28 0 0 1-3.5-8c-1-4.1-.9-6.5.4-8.2 1.3-1.2 3.2-1 6.7 1.2q2.6 1.5 3.2 1 .5-.4.5-.7l-.2-.3q-1.3-2-4.8-2c-3.4 0-5.1-1.2-6-4.4l-.6-.7q-1.2-1-2.5-1.7l-1.4-.7c0 3.8-.9 5.5-2.8 6.3q-2.4.6-5.8-2.7-1-.9-1.6-.7-.4.2-.4 1.3 0 .9.7 1.4 1.5 1.2 4.6 1.4 2 .2 3.5 1.5a7 7 0 0 1 1.8 4.6q0 3.9-3.1 8.5l-1.4 2 1 2.1q2.7 5.8 2.5 13-.2 7.5-3.2 11.5l-4.5 6-3.3-6.6q-1.1-2-1.9-2.1-.4 0-.6 1.2-.3 1 0 1.5.2 1 1.9 3.2 2.8 3.5 4.5 3.8 2 .4 3.4 1.8a7 7 0 0 1 1.5 4.6q-.2 3.2-2.5 6c4 1.6 5.5 3.3 5.7 6q0 1 1.5 5l.7 2 .6-.8z"/><path fill="#ffbe29" d="M556.2 623.8c4.3-2 12.5-10.4 13-13.1a50 50 0 0 0-5.5-9c-6.3-8.8-13-22.7-15-30.7-1-4.2-5.3-11.6-18-30.3L514 516l-4.8 1c-2.7.5-6 .7-7.2.6-2.3-.3-2.3-.2.7 3.5l3.2 3.8 4.4-2.7c4.3-2.5 4.4-2.6 5 .1.2 1.7-.4 4-1.6 6-1.1 1.8-1.7 3.6-1.4 4.5q.3 1.4-2.5 3c-3.2 2.2-5.1 7.6-2.8 8.6 2.5-.2 6.8-6.8 6.6-10q-.4-2.7.3-3.3c2-.6 1.7 4.8-.2 8.1q-1.7 3-1.4 4.6.3 1.4-2.5 3c-3.2 2.1-5.1 7.6-2.8 8.6 2.6-.2 6.8-6.4 6.6-9.9q-.4-2.7.3-3.4c1.4-.3 1.9 4 .9 6.7q-.8 2.1 0 4.7c1 3.2 0 7.3-2 9-.8.7-.3 1.8 1.8 4.4 3 3.6 3 3.9 3 17.4 0 11.4.4 14.2 1.9 16.5 1.7 2.5 1.8 2.5 1.8.4.3-2.5 2.8-4.4 5.5-4.3.7.3 5 5.9 10 13a69 69 0 0 0 11.2 14l3.4 1.2c.5.1 2.5-.3 4.7-1.2"/><path d="M557 626.8q-4.6 1.7-6 1.3l-3-1.2-.4-.2q-3.2-1.3-12.5-14.8-8-11.8-8.3-12-1.1 0-2.4.8l-.7.8-.2 1.8q-.4 2.8-2.5 2.5-1.2-.4-3-3a16 16 0 0 1-2.3-6.8q-.3-3.4-.4-12.1 0-9.8-.3-11.7a8 8 0 0 0-1.8-3.1 17 17 0 0 1-2.6-4q-.6-1.5-.4-3 .2-1.8 1.5-2.6.7-.4 1-2.2.4-1.7.1-2.7v-.1c-2.3 3-4 4-5.8 3.9q-2.8-.5-3.3-4.2-.3-2 .5-4.3.6-1.6 1.4-3-1.5-1-1.9-3.6-.3-2 .5-4.4 1.6-4.5 4.6-6.1l1-.7q0-2.8 2.2-6.2l1-1.8-1.6 1-5.7 3.4-4.4-5.3a17 17 0 0 1-3.1-4.8q-.4-2.1.7-3.4.5-.6 1.4-.7h1.6q2 .3 6.7-.5l6-1.2 17.7 26.1q17.2 25.4 18.6 31.7 1.3 5.4 5.5 14.1 4.3 9 8.8 15.1c4.2 5.8 6 9.4 6.2 11.4q-.1 3.3-5.8 9.2a34 34 0 0 1-8 6.3zm-1.7-6q2.7-1.1 7.4-5.8 3.3-3.3 4-4.3l-.9-1.4-3.6-5.5a113 113 0 0 1-15.6-32.2q-1.1-4.7-17.4-28.9l-11.7-17.2q-.3 1.8-1.2 3.5l.5.8q.8 1.6.8 4.1a16 16 0 0 1-1.4 6.3l.3.4q.7 1.4 1 3.3.4 4-.7 6.7-.3.7 0 1.6a14 14 0 0 1-1.4 11.7l.6.6q2.8 3.4 3.4 6.9.5 2.6.5 13.2 0 8.6.5 12l1.4-1.4a7 7 0 0 1 5-1.5c1.5.4 5.2 4.8 11.5 14.2a60 60 0 0 0 10 12.8l.5.2 3 1.1q.1.1 2.8-1zm-48-100.4-1.6.2.4.5z"/><path fill="#ffbe29" d="M504.9 561.2c-.4-3.8-5.3-8.1-12.1-10.4-5.4-1.6-5.4-1.6-5.4 2 0 3.1.8 4.2 4.5 7.1 6.2 4.4 12.5 5.2 13 1.3"/><path d="M507.2 564.3h-.5c-1 2-2.7 2.7-6 2.5a21 21 0 0 1-9.7-4.2q-3.2-2.4-4.4-4.2-1.5-2.4-1.5-6 0-4.7 2.1-5.6 1.3-.4 5.8 1 5.3 1.7 9.3 5c3.3 3 4.7 5.6 4.9 8.8zm-4.7-3.9q-.4-.8-2.2-2.4a23 23 0 0 0-7.8-4.1l-2.8-.9v.2q0 1 .2 1.4.6.8 2.9 2.6 4 3 7.7 3.3a5 5 0 0 0 2 0"/><path fill="#ffbe29" d="M511 561.8c2.7-3.2 3.8-6.2 2.3-6.9-2.2.2-6.4 4.7-6.8 7.3 0 3.5.8 3.5 4.4-.4"/><path d="M512.5 564.4q-3.2 3.3-4.7 3.5-2.3.1-3.2-2.7-.3-1.3-.4-3.4 0-3 3.5-6.8 3.3-3.5 5.6-3.2 2.4.4 2.9 3.6.2 1.6-.4 3.5-1 2.9-3.3 5.5"/><path fill="#ffbe29" d="M505.2 550.2c.1-2.2-.7-3.5-3.5-5.8-6.4-4.7-12.9-7.2-15-5.9-3 3.4-1.2 7.6 4.1 9.6 2.1.7 4.9 2 6.3 2.9 4.3 2.6 7.3 2.3 8.1-.9"/><path d="M507.5 551q-.6 4.4-4.6 4.9-3 .3-6.6-2.2-2.2-1.4-5.7-2.6c-3.5-1.2-5.5-3-6.9-6-1.5-3.9-1-6.5 1.6-9.2 1.6-1.2 3.8-1.2 7.7.3q4.8 1.9 9.6 5.6c3.7 3 5 5.6 4.8 9.2m-4.5-1.7q0-.4-2.1-2.2a39 39 0 0 0-8.6-5q-3.6-1.3-4-.9-.9.8-.6 1.2.7 1.8 3.5 2.6 4 1.5 6.8 3.2 2.5 1.5 4.2 1.4.8 0 .8-.3"/><path fill="#ffbe29" d="M505.2 539.1c.2-3-1-4-12.3-11.3q-13-7.7-9.4 3.4c1 2.6 2.4 3.8 6 5.2a79 79 0 0 1 8 3.5c4.9 2.7 7 2.5 7.7-.8"/><path d="M507.5 540c-.5 3.1-1.7 4.4-4.1 4.9q-2.5.2-6.6-2.1-3-1.7-7.6-3.4-5.8-2.2-7.7-7-1.3-3.7-1.1-6.3.3-3.4 2.9-4.4c2.4-.6 5.5.3 10.4 3.3q8.6 5.6 10.8 7.5c2 2 2.9 3.8 3 6.3v.2zm-4.6-1.7c-.1-.5-3.4-3-10.7-7.7q-5.5-3.3-7.3-2.8 0 .7.6 2.3.8 1.9 4.4 3.2 4.9 1.9 8.2 3.7 3 1.8 4.4 1.6.4 0 .4-.3"/><path fill="#ffbe29" d="M510.8 529.7c1.7-2.2 3-4.6 3.1-5.7-.6-3.3-6.2 1.4-7.5 5.5q-1.5 7.2 4.4.1"/><path d="M512.5 532c-2.5 3-4 4.2-5.5 4.3q-2.6-.1-3.2-4-.1-1.5.4-4 1-4 5-7.1a7 7 0 0 1 3.3-1.5q1.3 0 2.3.9 1.4 1.3 1.4 3.7 0 1.2-.5 2.4h1z"/><path fill="#ffbe29" d="M505.2 528c.1-3.3-3.5-6.7-11.7-10.4-6.1-2.6-8.2-2.1-8 1.7.4 2.2 2 3.8 7.7 7.1 9 5.2 11.4 5.6 12 1.7"/><path d="m507.1 531.7-.3-.1q-1.3 2.6-4.4 2.2-2.9-.5-9.9-4.5c-6-3.6-8.7-6.6-9.3-9.8-.3-4 .6-5.7 3.3-6.5 1.8-.3 4 .2 7.5 1.6 9.7 4.5 13.8 8.9 13.4 14.3zm-4.2-4.4q-.4-.8-1.5-1.8a36 36 0 0 0-8.4-5q-3.9-1.5-5.3-1.4.1.9 6.2 4.5 6.4 3.5 8.4 4 .6 0 .6-.3"/><path fill="#ffbe29" d="M513 513.7a15 15 0 0 0 1.5-25.9c-4.3-2.2-6.3-1.8-8.1 1.7-1 3.1-.4 7.4 1.2 8.2q1 .3 1 2.3c-.6 5.5-15.2 5.4-22.1 0-2.3-2.2-3.2-5.6-1.4-5.8 1.5-.2 2.3-3.4 1.7-6.8-1.3-4.2-3.7-5.7-8.2-5-9.6 2.4-9.3 17 .4 25.4 8.4 6.6 25.4 9.6 34 6"/><path d="M514 516.7q-6.7 3-18.1 1a39 39 0 0 1-17.9-7.2c-5.7-5-8.5-10.6-8.7-18q0-5.1 2.1-8.7c1.8-2.5 3.7-3.9 6.6-4.6 6-1 9.2 1.2 11 7.6a15 15 0 0 1 0 6.5q-.8 2.8-2 3.6l.5.6a19 19 0 0 0 12.2 3.5q3.4 0 5.4-1l.6-.2q-1.5-1.4-2-5-.5-4.1.7-7.1c2.4-4.8 5.5-5.6 10.8-2.7a17 17 0 0 1 6.5 7q2.1 4.6 1.8 9.7c-.5 7.2-3.3 11.8-9 14.7zm-1.9-6c4.4-2.1 6.4-5.2 6.9-10.2 0-4.6-1.4-7.4-5.2-9.8-2.9-1.6-4.3-1.4-5.4.6q-.5 1.1-.2 3v.5q1.3.5 2 2.3.7 1.4.7 3.2c-.3 4.7-3.4 6.8-10.7 7q-9.3-.1-14.7-4.6a11 11 0 0 1-3.4-5.7 7 7 0 0 1 0-3.9q.8-1.9 2.4-2v-.3q.4-1.4.1-2.7c-.7-2.5-2.2-3.2-5.4-2.7-3.8 1-5.3 3.1-5.4 7.7a16 16 0 0 0 6.2 12.1q5.7 4.4 16 6.4c7 1.1 12 .8 16-.8z"/><path fill="#ffbe29" d="M506.7 500.6q.8-1.2-.7-3.1c-2.1-3-2-5.9.3-9.8 1.8-2.7 2-7.1 2.7-52.3 1-77.9 5.4-135.7 10.9-149 2.2-5.2 2-5.3-3.9-.8a61 61 0 0 0-18 25.9c-9.4 22.8-12.7 54.8-12.8 124.5 0 39.6.3 44.7 1.9 48.7 1.5 3.9 1.6 5 .5 8.7a12 12 0 0 0-.7 5.1c2.8 3 16.8 4.5 19.7 2.1"/><path d="M509 502v.3l-.8.8c-1.7 1.8-5.2 2.3-11.4 1.7-6.3-.8-9.7-2-11.4-4.3-1.1-1.8-1-4.3.1-8.5q.6-2.1.6-3t-1-3a43 43 0 0 1-1.8-12.5l-.3-37.8q0-52.4 2.8-80.3 3-28.2 10.2-45.7a66 66 0 0 1 18.7-27c3.5-2.5 5.3-3.5 6.4-3.4q2.1.5 2.3 3.5l-.2 2-1.3 3.4q-4 9.4-7 49.2-2.8 40.2-3.7 98.4l-.8 42.3q-.6 9.2-2.3 11.9a8 8 0 0 0-1.4 3.5q0 .9.7 1.8a9 9 0 0 1 1.7 3.4q.4 1.9-.2 3.3m-5-3.3q-1.8-2.8-1.7-6.2.1-3.6 2.4-7 .8-1.4 1.2-8.6l.9-41.9q.8-58.5 3.8-99 2.4-34 5.9-47a62 62 0 0 0-16.4 24.3 161 161 0 0 0-9.7 43.7 851 851 0 0 0-2.8 79.4l.3 37.5q.4 7.3 1.2 9.5 2.4 5.8.8 11.5l-.6 2.2q1.9.7 7.4 1.5 5.2.4 7.2 0"/><path fill="#ffbe29" d="M593 439c.1-.8-.4-4-1.6-7.8-2-5.8-2.6-6.6-5.3-7-8.4-1.3-21.5-8.1-35.3-18.5-8.1-6-10.5-7.4-11.6-6.4-2.2 3.1 1.4 10.4 7.8 15.6a90 90 0 0 0 28.1 11.8c4.1.7 4.2.8 1.9 5.2l-1.7 3 4.6.9c2.6.5 6 1.5 7.8 2.3 4.6 2 4.6 2 5.2.8"/><path d="m595.1 437 1.4.7-1.6 3.2q-1.3 2.1-3.2 2-.8-.2-4.5-1.9-3-1.4-7.4-2.1l-8.8-1.5 4-7.6q-5.4-.7-15-4.7a69 69 0 0 1-14-7.5 30 30 0 0 1-8-9.7c-2.4-5.2-2.5-8.4-.4-11.1 1.3-1.3 2.8-1.2 5.4.1q2.5 1.5 8.7 6 21.6 16.3 34.4 18.1 2.9.4 4.4 2.5 1.3 1.7 3 6.6a43 43 0 0 1 1.6 6.8m-21.3-13.5q-10.3-4.7-24-15a96 96 0 0 0-9.1-6.2q0 .7 1 2.5 2.2 4.3 6.3 7.5 3.9 3 13 6.9 8 3.3 12.9 4.3m16.5 12.7-1.1-3.9q-1.2-3.6-1.8-4.4-.2-.4-1.4-.6-3-.3-6.2-1.4.4.4.6 1 .6 2-1 5.8h.4q4.9 1 8.3 2.5zm51 43.6c-.3-2.1-4.3-7.7-8.8-11.9-3.5-3.1-4-3.3-4-1a31 31 0 0 1-3.1 11.7q-.9-.5-1.7-4c-.4-2-2-6.2-3.7-9.4l-3-5.6-2.3 4.6c-2.4 4.5-5.8 8-7.6 8q-.5-.5-.2-5.3.4-5-.6-6.3-1-.9-1.2.3c-.4 2-5 8.5-6.3 9q-.7-.6-1.4-5.4l-1.2-10c-.3-2.8.3-.9 1.6 4.1l2.3 9 2.5-5c1.4-2.8 2.4-5.7 2.5-6.8q0-1.5 1-.8c.5.7 1.4 4 1.8 8l.7 7.2 2.8-3.8c1.5-2.1 3.2-5 4-6.3 1.1-2.4 1.2-2.4 3.5.5 1.3 1.8 3.2 5.5 4.5 8.6q1.9 4.9 2.4 5c.1-.2.6-3 1-6.5l.6-6.4c.5-.2 7.9 7 11.3 11.3 2 2.7 3.6 4.1 4 4 .3-.5.6-3.8.6-7.7 0-6-.4-7.5-3-11.1-3.2-4-3.2-4.1-4.4-1.5-1.6 3.4-3 3.3-3.2-.2-.3-3-5.6-12.5-7.3-13.3q-.7.5-2.7 4.6a14 14 0 0 1-2.6 4.4 57 57 0 0 1-9.7-15.8q0-2.8 2 1.9a72 72 0 0 0 4.8 8.1c3.3 4 4.3 3.4 5.6-3.8q.7-3.3 1.4-3.6c1.4.7 8.1 11 9.4 14.8l1 3.5.8-3.7c1-4.5 1.8-4.6 3.4-.2.8 1.8 3.7 5.7 6.8 8.8l5.7 5.5 1.2-4.9q1-4.2 1.8-3.3c.4 1.6-1 9-2 11q-.6 0-4.1-3.6l-3.8-4.1v6.7c0 3.7-.3 8-.7 9.7-.8 3.2-2.3 4-2.5 1"/><path d="m640.1 483.4-1 .4v-4a13 13 0 0 0-2-3.2 46 46 0 0 0-5.6-6.2l-.8-.7q-.4 2.4-1.2 5.5c-1.3 4.6-2.4 6.3-4 6.4-1.9-.4-3-2.2-3.9-6.5a34 34 0 0 0-3.3-8.3l-1-1.9-.6 1.1a30 30 0 0 1-4.4 6.4 10 10 0 0 1-4 2.8l-1.1 1.7-.2-1.6q-2.2-.6-2.4-4.9v-2.8l-.4.6q-2 2.8-3.4 3.9l-1.2 2.5-.4-1.7h-.3c-2-.5-3-2.8-3.7-8.3l-1.2-10a8 8 0 0 1 .1-3q.6-1.8 2-1.6 1 0 1.7 1 .4.5.7 1.3l1.6 5.4.7 3q2-4.5 2.1-5.3 0-2.3 1.3-3.4 1.5-1.2 3.2.3c1.3 1.4 2.2 4.6 2.9 10.5v.5q2.2-3.1 3.2-5.2 1.4-2.9 3-3l.5-1 .7 1.4q1.2.7 2.8 2.9 2.2 2.8 4.2 7.5l.5-5.5v-.2q.6-2.5 2.6-2.1.5 0 .9.4l1.3 1q1.4 1.1 3.3 3.1l1 1-.5-1.8q-1.7-.3-2.6-2.5-.6-1.4-.6-3.6-.1-.8-2.6-5.5l-2.1-3.4-1.1 2.2c-2 4.2-3.2 5.8-4.6 5.9-1.5-.4-3.7-2.9-7-8.4a30 30 0 0 1-5-10.9q0-1.5.5-2.5 1.4-2.7 3.5-.6.9.9 2.2 3.8a42 42 0 0 0 5.5 8.7l.8-3.8c.8-4.2 1.8-5.8 3.6-5.8 1.4.4 3.3 2.5 6.5 7.3l3.5 6q1-2 2.4-2.1 2.5-.2 4.3 5.2.9 2.4 6 7.4l3.1 3 .3-1q.6-2.6 1.3-3.8t1.5-1.6q2-.8 3.1 1.7.9 2.2 0 7.8-1 5.1-2.2 7c-1.4 1.4-3.3.5-7.1-3.5l-.2-.2v.6q0 7.2-.8 10.6-.9 3.9-2.9 4.7-1.7.8-3-1m-3.8-22.8-.8 4.1q3 3.2 4.8 5.5l.8 1v-2.7q0-4-.3-5.3-.5-1.4-2-3.5l-1-1.3q-.7 1.5-1.5 2.2M613 423.3c-6.8-8.6-7.7-10.4-7.6-14l.2-4 .4 3.9a21 21 0 0 0 4.3 8.4l3.9 4.6 2.4-3.5a16 16 0 0 0 2.4-5.2c.1-2.4.3-2.2 5 3.7 4 5.3 4 5.3 4.7 2.3.3-1.8.2-5-.3-7.3-1.3-6.4-1.1-7.2 1-3.3 1 2 2.6 4.8 3.5 6.2 1.7 2.6 1.8 2.6 2.4-.4.4-1.7.7-4.8.7-7v-3.9l3.7 6c3.4 5.7 3.7 5.9 4.8 3.5.5-1.5 1-4.9 1.1-7.8q-.1-5.5 1-3.2c1 2.7.3 8.7-1.8 14.2l-1.5 3.8-2-4.5c-2.7-5.8-3.4-5.8-5.1 0-1.7 5.4-2.5 5.7-4.1 1.2-1-2.8-1.2-2.5-2 3.2l-.7 6.4-4.6-5.4-4.7-5.5-2 3a14 14 0 0 0-2.2 4.7q-.2 3.1-2.9-.1"/><path d="M611.6 425.5a89 89 0 0 1-6.8-9.4 15 15 0 0 1-1.7-7.3l.2-3.9 4.5.2.4 3.8q.4 2.6 3.5 6.4l2.2 2.6 1-1.4a13 13 0 0 0 1.8-3.4q0-1.7.5-2.7 1.3-2.6 3.5-.9 1 .9 4.7 5.6l1.2 1.5q0-1.7-.4-3.8-1.2-5.8-.7-7.5.8-2.5 2.7-1.8.8.2 1.5 1.1l1.5 2.6 2.3 4.2.2-4v-12l7.7 12.6 1.5 2.3q.4-1.8.4-5 0-3.5.4-4.8 1-2.8 3.1-1.8 1 .5 1.7 2 1.2 3 .7 8.4-.7 4.5-2.4 9l-3.4 8.3-4-9.2-.7-1.4-.4 1.3q-1.6 5.4-3.5 6-1.4.4-2.5-.7l-1.2 10-7.7-9-3-3.4-.7 1a10 10 0 0 0-1.5 2.8q-.1 4.4-3 4.2-1.4 0-3.3-2.1zm61.4-25c-2.5-3.4-3.9-6-3.7-6.7q.6-.7 1-.2l4.4 6.7c5.3 7.8 4.3 7.9-1.7.2"/><path d="m671.5 402.7-3.2-4.7q-2.3-4.4-.6-6.6.7-.9 1.6-1 2-.5 3 1.7 0 .3 4 6.2l3.8 6.2q.3.9.3 1.7 0 2.8-2 3.1-1.6.2-6.9-6.6m-78.4-21.9c-2.2-4.6-2-7 .6-11.3 2-3 2.8-3.2 6.3-2.2 2.2.8 6.8 3.9 10.5 7.2q6.6 5.8 11.8 7.5 4.7 1.2 5.2 1c0-.3-1.2-3-2.6-6.2-3.5-7.6-3.4-8.2.5-3.6 4.2 4.8 8.7 6.6 19.6 7.3l5.2.3-3-4.4c-4.2-6.3-3-6.5 1.7-.6 4.4 5.7 4.2 6-5.1 6.4q-6 0-11.7-2.3c-5.3-2.4-5.4-2.4-4.5.1q1.2 2.5 2 2.8 1 .2 1.1 1.7c-.6 2.5-10.9-.9-16.8-5.4-12.5-10.1-14-11-17-10.2a7 7 0 0 0-3.8 4.4c-1.4 6.9 4.8 12.7 8.3 7.2.8-1.7.6-2.8-.9-5.2-2-3.3-1.9-3.6 1-1.9 1.8 1.8 2 7.3.3 10-2.5 2.2-6.5 1-8.7-2.6"/><path d="m591.2 382.4-2.4-4.9h.8c-.5-3.6.2-6.7 2.4-10.2q1.9-2.8 3.6-3.4 1.6-.6 4.7.3 4.4 1.4 11.4 7.8 6.2 5.5 10.9 7l.8.1-.4-.8q-3.1-6.8-2.8-8.8.5-3.2 2.9-2.2.6.2 1.3.9l2.5 2.7c3.3 3.7 9 5.8 18 6.4l-1.8-2.8-.7-1.9v-2q.4-1.7 1.7-2.1c1.4-.2 3.2 1.2 6.3 5.1q2 2.6 2.7 3.8 1.1 2.4.8 4.3l1.7 2.4-3.3-.1q-2.1 1-8.3 1.3-5.9.1-11.1-1.9v1.3q.2 3.8-4 3.8-1.9 0-4.9-1a36 36 0 0 1-11.1-5.7l-7.8-6.2.2 2.5c.1 3.6-.5 5.9-1.9 7.7-1.8 1.8-3.5 2.3-6.3 1.6a10 10 0 0 1-5.9-5m5.7-10.1a4 4 0 0 0-1.7 2.3c-.4 1.9 0 3 1.3 4.4q1.8 1.6 3-.4h.1l-.7-1.4q-1.9-2.9-2-4.9"/><path d="M642 369.4c-1.4-2.2-.4-2.5 6.6-2a26 26 0 0 0 20-5.8c5.1-3.8 6.2-3 1.7 1.1a31 31 0 0 1-17.4 6.6l-8 .7q-2 .3-2.9-.6"/><path d="m640.5 371.5-3.4-4.6 2.2-.3a3 3 0 0 1 2.2-2.3q1.5-.4 7.1 0c7.5.4 13.5-1.4 18.9-5.4 3.3-2.5 5.1-3.2 6.5-2.5q2.2 1.6 1.2 4.6l-.9 1.6q-.9 1.2-2.7 2.8-7.5 6.3-18.5 7l-7.7.7q-3.4.5-5-1.6"/><path fill="#ffbe29" d="m566.9 711.2 3.5-2.3 1.6 3c2.4 4 7.3 4.7 11.4 1.5l2.8-2.5 2.4 3.2c3.5 4.3 8.7 5 12.8 1.7 2.7-2.3 3-2.3 4.8-.1 1.1 1.3 4 3 6.7 3.9 4.9 1.4 4.9 1.4 7.7-4a16 16 0 0 0 2.2-11.3c-.4-3.2-.8-8.2-.9-11.3-.2-5.5-.2-5.4 5.6-7.6 3.2-1.2 7-2.8 8.3-3.6a42 42 0 0 0 8.7-13.2q-.5-.9-5.5-2.4c-12.2-3.3-14.2-12-6.4-28 13-25.7 20.6-51.2 20.8-68 0-7.6.2-9.9 1-8.3 2.7 7.2-2.3 34.2-10 53.7l-3.2 7.7 3-.6c1.6-.4 11.3-5 21.5-10.5 28.2-15.1 37.5-18.1 55.7-16.7 15.3 1.3 21.5 5 32.4 20.3 5.7 8 11.1 13.7 21.1 21.8 21.3 17 22.2 18.1 23.2 39.6 1 21.6.5 22.9-11.5 27.4q-15.6 5.9-18.4 19.7c-.7 5 .8 5 6.2.2l3.8-3.6 1.7 3.3c2.5 4.2 6.6 4 10.8-.7l3-3.5 3 3c5 4.6 10.6 3 12.7-3.7q.5-1.9 3 1c4 3.7 11.7 4.3 13.3 1 .2-1.4-.4-4-1.6-6.5a45 45 0 0 1-6.8-20.3c0-8 1.7-11.8 8.3-19.3 8-9.2 10.5-19 4.4-18.5q-6 .4-10-10.7c-4.9-14.6-4-31.4 3.4-60.5 7.5-29.5 8.4-35 8.4-54 0-15.5-.3-18.1-2.8-26.2-1.7-5-4.8-12.2-7.1-16.2l-4.3-7.2 5.5-6.9c16.6-21.4 13-50.6-6.8-60.5-6.2-2.9-7.6-3-18.3-2-6.5.7-16.2 2.5-21.8 4-5.7 1.7-15.2 3.2-21.8 3.4-10.5.2-12.2-.2-16.2-3-4.2-3.2-4.9-4.5-5.8-11.6q-.4-2.5-1.6-3.3c-1.7 0-7.6 6.8-9 10.5-.5 1.7-.8 1.6-2.3-.7a39 39 0 0 1-2.9-7.8c-1.5-7.1.4-11.8 6.3-15.7l4.6-3-2.7-2.3c-6-4.6-14.7-2-18.5 5.8q-1.6 3.5-2.4 4a40 40 0 0 1-4-5c-7.2-10.3-4.8-23.6 4.8-28 5.5-1.9 9.4-.2 10.7 4.6 1.8 7 5.6-2 5.1-10.6-.5-5.7-.5-5.8 2.4-5.8 4.2.4 12.1 7.1 15 12.8 3 6.7 2.8 16.4-.5 24.2l-2.6 6 3.4-1c5.2-1.6 9.8-5.6 12.5-11 2.5-5.7 2.8-15.9.5-21.8-2.2-5.6-2-6.4 1.4-4.6a22 22 0 0 1 11 12.5c2 5.4 2 6.7 1 12.5a51 51 0 0 1-3.4 10.3c-1.8 3.4-2 3.9-.4 4 2.9-.4 8-3.8 10.3-6.9 1-1.6 2.5-5.2 3.3-8.2l1.5-5.5 1.6 4a28 28 0 0 0 12.5 13.5c6 3 8.3 3.2 5.3 0a46 46 0 0 1-4.8-18.9c1-.6 8.6 6.8 18.1 17.4 8.9 9.9 14.2 12.6 22.3 11.6 10.5-1.9 16-14.5 11.7-25.6-3-6.3-8.4-6.3-12.2 0-1.6 3-2 5-1.6 7.7.5 3.4.4 3.8-2 4.2-3 .2-8.7-4-19.3-15-16-16.5-35.3-30.7-49.4-36.1-9-3.3-28-4.7-37.3-2.7a57 57 0 0 0-28 17.4c-11.2 14.3-11.4 33.2-.4 51.9l3.1 5.2-2.1 4.5a27 27 0 0 0 4.1 27.3q.5-.3.9-4c.4-5.9 2-9.2 5.1-10.8 3-1.2 4.5-.5 17.3 6.7 13.6 7.6 35.1 8.2 58.7.5 11.6-3.8 24.8-4.7 30.9-2 10.9 5.4 13.3 20.4 5.4 34-3.6 5.8-6.8 8.3-18 13.6-8.5 3.8-10.6 4.4-30 5a115 115 0 0 0-29.3 2.7c-7.3 2-12 2.4-33.5.8l-25-2.2 2.9 3.3c1.5 1.8 3.6 4 4.7 5 1.9 1.6 1.9 1.8-1 3a21 21 0 0 1-8 1l-5.2-.3-.7 5.8a34 34 0 0 0 .1 8.5c.6 2.2.4 2.4-1.2 1.5-1.1-.6-4-1.9-6.7-2.8-2.6-1-6-2.9-7.7-4-2.9-2.2-3-2.2-4.2.2a44 44 0 0 1-10.8 10q-.4-.3-.6-3.8a87 87 0 0 0-2.8-12.3l-3.3-11.4c-.6-2.3-.8-2.4-1.5-.8-.5 1.1-1.2 4-1.6 6.7a42 42 0 0 1-2.9 9.2l-2.2 4.5-1.4-4.2c-1.7-4.7-4-9-5-9.4q-.5.2-1.2 3c-1 3.8-6.5 12-8.2 12.4-.5-.4-1-2.8-1-6.3s-.5-6-1-6.4q-1 0-1 1.9c-.5 3-5 9.2-7 9.5q-1.3.1-2.6 1.7c-2 2.7-3.3 2.2-2.7-1 .3-1.6.1-5-.5-8l-1.6-6.9c-.5-1-2-1-6 .2q-9.7 2.7-5.2-2c1.2-1.2 3-5 4-9.1 1.1-4.2 2.5-7.2 3.4-7.7 1.1-.2 1 .2-.3 2.6-1 1.7-1.7 3.9-1.8 5.1 0 1.2-.7 3.7-1.6 5.9-.9 2.1-1.3 3.9-1.2 4.3q.8.1 5.3-2l5-2.7v3c0 1.5.6 5.8 1.3 9.4l1.3 6.7 3.4-1.7c3.5-2 6.5-8.8 6.7-15 .2-3 1.1-2.4 1.8.8.1 1 .9 4.5 1.7 8l1.5 6.1 2.3-3.5c1.2-2 2.8-5.8 3.5-8.7 1.3-5 2.8-6.9 3-3.2.4 3.2 5 12 6.3 12 .5-.5 1.5-3.7 2.2-7.7 1.7-8.3 3.7-13 5.4-12q.9.9.5 2c-.2.7.9 6 2.7 12.2l4 13.6c.7 2.3 1.2 2 5-2.2 2.5-2.7 4.5-5.7 4.9-6.7.4-1.6.9-1.5 3.1.6 3.7 3.1 13.2 7.6 14.5 7 .2-.4.6-4 .7-8.2V491l3.1 1c1.8.6 5 .8 7.8.6l4.7-.7-4.2-4.2a35 35 0 0 1-5.2-6.6q-1.3-2.2-5-3.1c-6.7-1.6-17-10.5-17.6-14.9q.4-.9 3.5 3.2c4.4 5.7 9.9 9.2 15.2 9.8l3.8.3-2.4-4.5a37 37 0 0 1-2.8-11.2c-.5-6.2-1-7.1-5.7-12a79 79 0 0 1-7.7-9.5l-2.7-4.3-1.3 4.7q-1.3 4.2-2 4.6-.8-.5-3.2-3.7a16 16 0 0 0-3-3.7c-.4.1-1.6 2.2-2.8 5.3l-2 5.5-1.7-3.4c-1-2-3-5.3-4.6-7.6q-2.7-3.6-2-4c.6.3 2.6 2.4 4.6 5.4l3.5 5.1 1.4-3.4c.8-2 1.1-5 .8-7.8-.5-3.8-.5-4 .6-1.6.7 1.6 2.7 4.7 4.6 7l3.3 4 2.3-5.6c2.3-5.5 2.3-5.5 3.3-2a86 86 0 0 0 20 24c1.5.8.8-2.3-1.6-10.7-.6-2.2-1.1-6-1.2-8.6 0-3.8-.8-5.4-4.3-9.5a28 28 0 0 1-7.8-18.3c-.4-3.6-1.4-7.4-2-8.8-1.1-1.9-1.2-1-1 5.6.2 4.4-.2 9.7-.9 12l-1.2 4-1-3.6c-.7-2-3-5.3-5.3-7.7-2.5-2.5-3.8-4.5-3.7-5 .5-.2 2.6 1.6 5.4 4.8 4.1 4.6 4.8 5 5.5 3.3a77 77 0 0 0-1.3-18.7c-.6-3.4-.6-3.3 2.5 1 2.2 3.4 3.4 7 4.4 13.5 1.3 8.2 1.8 9.5 7.3 16.5 3.5 4.4 6 7 6.4 7.1 0-.3.6-10.3.9-22.5.5-23.4-.1-28.9-4.2-36.4l-2.1-3.9 3.3-4.6a37 37 0 0 0 7.2-18l.7-5.7-3.8 4.6c-3.2 3.8-4.4 4.5-8 4.3-3.7-.4-4.8-1.1-7.3-4.8-3-4.4-7.9-8.7-12.8-11.2-1.8-.9-2.3-.7-2.4 1 0 1.3-1 4.6-2.2 7.6l-2.2 5.4-4.6-6.7q-4.6-6.5-8.7-8.6c-6.4-3-6.6-2.8-6.7 3.7q-.2 14.8-8.6 4.1c-4.4-5.5-7.6-6.9-15.7-6.8l-6.2.1 1 4c1 3.4.8 4.5-1.2 8-3.4 5.5-7.3 7.3-13.9 6.5-3-.3-6.6 0-8.3.8-1.7.7-5.4 1.3-8.7 1.3a39 39 0 0 0-7.6.6c-1.5.5-1.7 0-1.2-4.8.5-7.3-2.8-12.6-8.7-13.8-7.6-.8-10.8 7.2-8 20 .6 2.4 1.3 6.2 1.6 8.4.5 2.3 3.7 8.6 7.9 15 4 6 7.7 12.2 8.3 13.7a23 23 0 0 0 4.6 6l3.4 3-.5-5q-.7-8.4 2.5-2.1c.9 1.5 2.7 4 4.3 5.5 2.6 2.5 3 2.6 3 .8 0-1.2.5-3.8 1.1-5.9l1.2-3.7 2 5.6c1.1 3 4.6 10 7.9 15.7 6.3 11.1 9.9 22.1 8.1 24.8-1 .8-2.8.5-7.5-1.3a35 35 0 0 0-9.6-2.5c-3.7.1-3.9-.4-1.7-4 2.3-3.8 2-4.3-2.6-5-5.5-1-18.6-6.3-24-9.9-5-3.3-6-3-7.6 3.4l-2.7 11.3-1.5 6.2h5.4c3 .1 6.8-.2 8.5-.6q2.9-.7 3.5-.3c0 .3-.6 2.5-1.7 5.3l-2 4.8 3.3-.4a26 26 0 0 0 6.2-1.9c2.8-1.4 3-1.3 5.1 3.8q4.2 9.1 5.2.1c.6-6.2 1.9-5 4.8 3.7 3 8.5 5.4 11.6 6.2 7a10 10 0 0 1 3.3-5.3c3.5-2.6 5.5-1.6 7.2 3.7 1.3 5.5-1.7 10-11.4 16.8-19.1 13.4-30 33-33.4 60.3a98 98 0 0 0 24 72.6c8.9 10.2 21.8 21.2 21.4 17.6-3.6-16-3.4-44.1.2-48.9.6-.4.3 2.2-.5 6.7-2.9 16-1.6 29.2 6 61 7 28.8 6 40.1-3.8 47-3.2 2-5.1 2.2-13.7.9-9.2-1.4-10-1.3-13.1 1.4-2.9 3-6.4 12.2-6.6 17.2.3 2.6 2 2.5 6.3-.1"/><path fill="#ffbe29" d="m716 724.9 3.9-3.3 2.6 3.5q5.5 6.6 10.7-.1 2.4-3.3 3-3.1l1.3 3.3c1 2 2.4 2.8 5.5 3.1 3.8.3 4.6-.1 6.1-3l1.7-3.4 3.8 3.2c10.6 8.7 15.8-.8 11.3-19.8-2.3-9.7-1-15 6.6-27.7 3.2-5.5 5.6-11 5.8-12.7 0-2.5-.5-2.7-4.9-2.5-4.1.3-5.1-.2-7.4-3.4-3.4-5.3-3.2-10.9.6-18l3.1-5.4-5.5-5a110 110 0 0 1-12.2-14.5c-8.4-12-16.3-17.4-27-19l-7.2-1v7.4c0 9.6 3.3 18.7 12.2 34.5 10.2 17.8 10.9 20.4 11.3 43.5l.4 19.6-3 3.8c-2.7 3.4-3.8 3.9-12.4 4.5-8.3.5-9.8 1-12.3 3.8-3.2 3.8-4 5.7-5.1 11-.6 3.2-.4 3.8 1.3 3.9 1.2-.1 3.6-1.4 5.8-3.2m-218.6-75.2a16 16 0 0 0 1.7-5.8c0-2.5.7-3 4.7-3.2l4.8-.2-3.2-4q-5.7-7.6-.8-7.4c3.6.2 8.6-3.2 9.8-6.7q.5-2.7-.5-5c-2.2-3.1-5-3.3-6-.2-.9 3.4-1.8 3.2-4.6-.6-3.9-6.2-4-16.2-.2-22.2 1.9-2.6 1.9-2.8-.5-6.2-2.5-4-4-10-3.1-11.7q1-.5 4.4 1.5c3 1.8 4 2 5.3 1 3.4-3.9-.1-8.7-6.2-8.9-2.4 0-3.2-.4-3.6-2.2q-1-2.3-4.7-4.4c-4.1-2.1-4.1-2.1-4.1 1.8q-.1 6.4-5.2 1.5c-3-2.5-5.2-1.4-5.5 2.7.3 4 2.6 5.8 7.7 6.4q5.8 1 .4 9l-2.6 3.6 2 4.4c3 6.7 2.7 16-.5 20.7l-2.6 3.4-1.7-3.3c-2.7-4.7-5.3-4.9-6.5-.5-.5 3-.1 4.3 2.6 8 2 2.5 4.5 4.4 6 4.8 3.6 1 3.4 4-.3 7.7l-2.9 2.6 4.5 1.7q4.1 1.6 4.6 2.9c.2 3 3 10.7 4 11.4q1.2 0 2.8-2.7m58.8-25.8c4.3-2 12.5-10.4 13-13.1a50 50 0 0 0-5.5-9c-6.3-8.8-13-22.7-15-30.7-1-4.2-5.3-11.6-18-30.3L514 516l-4.8 1c-2.7.5-6 .7-7.2.6-2.3-.3-2.3-.2.7 3.5l3.2 3.8 4.4-2.7c4.3-2.5 4.4-2.6 5 .1.2 1.7-.4 4-1.6 6-1.1 1.8-1.7 3.6-1.4 4.5q.3 1.4-2.5 3c-3.2 2.2-5.1 7.6-2.8 8.6 2.5-.2 6.8-6.8 6.6-10q-.4-2.7.3-3.3c2-.6 1.7 4.8-.2 8.1q-1.7 3-1.4 4.6.3 1.4-2.5 3c-3.2 2.1-5.1 7.6-2.8 8.6 2.6-.2 6.8-6.4 6.6-9.9q-.4-2.7.3-3.4c1.4-.3 1.9 4 .9 6.7q-.8 2.1 0 4.7c1 3.2 0 7.3-2 9-.8.7-.3 1.8 1.8 4.4 3 3.6 3 3.9 3 17.4 0 11.4.4 14.2 1.9 16.5 1.7 2.5 1.8 2.5 1.8.4.3-2.5 2.8-4.4 5.5-4.3.7.3 5 5.9 10 13a69 69 0 0 0 11.2 14l3.4 1.2c.5.1 2.5-.3 4.7-1.2m-51.3-62.6c-.4-3.8-5.3-8.1-12.1-10.4-5.4-1.6-5.4-1.6-5.4 2 0 3.1.8 4.2 4.5 7.1 6.2 4.4 12.5 5.2 13 1.3"/><path fill="#ffbe29" d="M511 561.8c2.7-3.2 3.8-6.2 2.3-6.9-2.2.2-6.4 4.7-6.8 7.3 0 3.5.8 3.5 4.4-.4m-5.7-11.6c.1-2.2-.7-3.5-3.5-5.8-6.4-4.7-12.9-7.2-15-5.9-3 3.4-1.2 7.6 4.1 9.6 2.1.7 4.9 2 6.3 2.9 4.3 2.6 7.3 2.3 8.1-.9m0-11c.2-3-1-4-12.3-11.3q-13-7.7-9.4 3.4c1 2.6 2.4 3.8 6 5.2a79 79 0 0 1 8 3.5c4.9 2.7 7 2.5 7.7-.8m5.6-9.5c1.7-2.1 3-4.5 3.1-5.6-.6-3.3-6.2 1.4-7.5 5.5q-1.5 7.2 4.4.1m-5.6-1.5c.1-3.4-3.5-6.8-11.7-10.5-6.1-2.6-8.2-2.1-8 1.7.4 2.2 2 3.8 7.7 7.1 9 5.2 11.4 5.6 12 1.7m7.8-14.4a15 15 0 0 0 1.5-25.9c-4.3-2.2-6.3-1.8-8.1 1.7-1 3.1-.4 7.4 1.2 8.2q1 .3 1 2.3c-.6 5.5-15.2 5.4-22.1 0-2.3-2.2-3.2-5.6-1.4-5.8 1.5-.2 2.3-3.4 1.7-6.8-1.3-4.2-3.7-5.7-8.2-5-9.6 2.4-9.3 17 .4 25.4 8.4 6.6 25.4 9.6 34 6"/><path fill="#ffbe29" d="M506.7 500.6q.8-1.2-.7-3.1c-2.1-3-2-5.9.3-9.8 1.8-2.7 2-7.1 2.7-52.3 1-77.9 5.4-135.7 10.9-149 2.2-5.2 2-5.3-3.9-.8a61 61 0 0 0-18 25.9c-9.4 22.8-12.7 54.8-12.8 124.5 0 39.6.3 44.7 1.9 48.7 1.5 3.9 1.6 5 .5 8.7a12 12 0 0 0-.7 5.1c2.8 3 16.8 4.5 19.7 2.1M593 439c.2-.7-.3-4-1.5-7.7-2-5.8-2.6-6.6-5.3-7-8.4-1.3-21.5-8.1-35.3-18.5-8.1-6-10.5-7.4-11.6-6.4-2.2 3.1 1.4 10.4 7.8 15.6a90 90 0 0 0 28.1 11.8c4.1.7 4.2.8 1.9 5.2l-1.7 3 4.6.9c2.6.5 6 1.5 7.8 2.3 4.6 2 4.6 2 5.2.8"/><path d="M641.3 479.7c-.2-2.1-4.2-7.7-8.7-11.9-3.5-3.1-4-3.3-4-1a31 31 0 0 1-3.1 11.7q-.9-.5-1.7-4c-.4-2-2-6.2-3.7-9.4l-3-5.6-2.3 4.6c-2.4 4.5-5.8 8-7.6 8q-.5-.5-.2-5.3.4-5-.6-6.3-1-.9-1.2.3c-.4 2-5 8.5-6.3 9q-.7-.6-1.4-5.4l-1.2-10c-.3-2.8.3-.9 1.6 4.1l2.3 9 2.5-5c1.4-2.8 2.4-5.7 2.5-6.8q0-1.5 1-.8c.5.7 1.4 4 1.8 8l.7 7.2 2.8-3.8c1.5-2.1 3.2-5 4-6.3 1.1-2.4 1.2-2.4 3.5.5 1.3 1.8 3.2 5.5 4.5 8.6q1.9 4.9 2.4 5c.1-.2.6-3 1-6.5l.6-6.4c.5-.2 7.9 7 11.3 11.3 2 2.7 3.6 4.1 4 4 .3-.5.6-3.8.6-7.7 0-6-.4-7.5-3-11.1-3.2-4-3.2-4.1-4.4-1.5-1.6 3.4-3 3.3-3.2-.2-.3-3-5.6-12.5-7.3-13.3q-.7.5-2.7 4.6a14 14 0 0 1-2.6 4.4 57 57 0 0 1-9.7-15.8c.1-1.8.5-1.3 2 1.9a72 72 0 0 0 4.8 8.1c3.3 4 4.3 3.4 5.6-3.8q.7-3.3 1.4-3.6c1.4.7 8.1 11 9.4 14.8l1 3.5.8-3.7c1-4.5 1.8-4.6 3.4-.2.8 1.8 3.7 5.7 6.8 8.8l5.7 5.5 1.2-4.9q1-4.2 1.8-3.3c.4 1.6-1 9-2 11q-.6 0-4.1-3.6l-3.8-4.1v6.7c0 3.7-.3 8-.7 9.7-.8 3.2-2.3 4-2.5 1M613 423.3c-6.8-8.6-7.7-10.4-7.6-14l.2-4 .4 3.9a21 21 0 0 0 4.3 8.4l3.9 4.6 2.4-3.5a16 16 0 0 0 2.4-5.2c.1-2.4.3-2.2 5 3.7 4 5.3 4 5.3 4.7 2.3.3-1.8.2-5-.3-7.3-1.3-6.4-1.1-7.2 1-3.3 1 2 2.6 4.8 3.5 6.2 1.7 2.6 1.8 2.6 2.4-.4.4-1.7.7-4.8.7-7v-3.9l3.7 6c3.4 5.7 3.7 5.9 4.8 3.5.5-1.5 1-4.9 1.1-7.8q-.1-5.5 1-3.2c1 2.7.3 8.7-1.8 14.2l-1.5 3.8-2-4.5c-2.7-5.8-3.4-5.8-5.1 0-1.7 5.4-2.5 5.7-4.1 1.2-1-2.8-1.2-2.5-2 3.2l-.7 6.4-4.6-5.4-4.7-5.5-2 3a14 14 0 0 0-2.2 4.7q-.2 3.1-2.9-.1m60-22.8c-2.5-3.4-3.9-6-3.7-6.7q.6-.7 1-.2l4.4 6.7c5.3 7.8 4.3 7.9-1.7.2m-80-19.7c-2.1-4.6-2-7 .7-11.3 2-3 2.8-3.2 6.3-2.2 2.2.8 6.8 3.9 10.5 7.2q6.6 5.8 11.8 7.5 4.7 1.2 5.2 1c0-.3-1.2-3-2.6-6.2-3.5-7.6-3.4-8.2.5-3.6 4.2 4.8 8.7 6.6 19.6 7.3l5.2.3-3-4.4c-4.2-6.3-3-6.5 1.7-.6 4.4 5.7 4.2 6-5.1 6.4q-6 0-11.7-2.3c-5.3-2.4-5.4-2.4-4.5.1q1.2 2.5 2 2.8 1 .2 1.1 1.7c-.6 2.5-10.9-.9-16.8-5.4-12.5-10.1-14-11-17-10.2a7 7 0 0 0-3.8 4.4c-1.4 6.9 4.8 12.7 8.3 7.2.8-1.7.6-2.8-.9-5.2-2-3.3-1.9-3.6 1-1.9 1.8 1.8 2 7.3.3 10-2.5 2.2-6.5 1-8.7-2.6"/><path d="M642 369.4c-1.4-2.2-.4-2.5 6.6-2a26 26 0 0 0 20-5.8c5.1-3.8 6.2-3 1.7 1.1a31 31 0 0 1-17.4 6.6l-8 .7q-2 .3-2.9-.6"/><path fill="#1a1a1a" d="M8 195.3c170.8-85.3 341-54.5 513.3-28C676.5 191 833.4 211.8 992 132.7v672c-170.8 85.3-341 54.5-513.3 28C323.5 809 166.6 788.1 8 867.2zm31.3 19.3v604.5c306.5-128.2 611.1 96 921.5-33.7V180.9C654.2 309 349.5 84.9 39.3 214.6" opacity=".2"/></svg>