<svg xmlns="http://www.w3.org/2000/svg" viewBox="0 0 1000 1000"><path fill="#ffbe29" d="M8 195c171-85 341-54 513-28 155 24 312 45 471-34v672c-171 85-341 54-513 28-155-24-312-45-471 34z"/><path fill="#eb7400" d="M49 513q67-164 135-313 67-8 136-3v560q-67-5-136 3-66-132-135-247"/><path fill="#00534e" d="M49 233q67-26 135-33v560q-66 7-135 33z"/><path fill="#8d153a" d="M361 201c195 20 393 86 594 4v560c-197 80-392 17-594-4z"/><path fill="#ffbe29" d="M899 691s5 13 11 18c10 6 28 0 36 7 9 10 0 30-1 32l1 9-9 4q-4 4-13 9c-19 4-19-19-20-39l-4-24z"/><path d="m897 690 2-1v1q6 14 12 18 4 3 16 3l11 1q6 0 9 3 8 9 0 31l-1 1v1l1 10h-1l-9 4-4 3-9 6q-13 3-17-9-3-7-3-25l-1-6-2-14-2-9-1-17zm3 6 1 11 2 9 2 15v5q1 18 4 25 4 11 15 8l9-6 4-3 8-4v-11q7-21 0-28-3-3-18-3-13-1-17-4-6-4-10-14"/><path fill="#ffbe29" d="M417 674s-6 14-12 20c-9 8-27 5-35 15-9 12 0 30 0 32v9l9 1q4 4 13 7c19 0 18-23 19-43l5-25z"/><path d="m419 673-3-1v1q-5 15-11 20-4 3-17 6l-10 3-9 6q-8 10 0 31v12h1l9 1 3 3 10 4q12 0 17-12l3-27v-5l3-15 2-9 1-17zm-3 6-1 11-2 9-2 16-1 5q0 19-3 25-4 12-15 11l-9-3-4-3-8-1v-8l-1-3q-7-19 0-28 4-5 19-8 12-3 17-7 5-5 10-16"/><path fill="#ffbe29" d="M899 319s5-17 11-26c10-11 28-18 36-31 9-17 0-30-1-32l1-9-9 3c-4 0-6-3-13 0-19 8-19 30-20 51l-4 26z"/><path d="m897 320 2-1q6-16 12-25l16-14 11-8q6-4 9-10a31 31 0 0 0-1-32l1-10h-1l-9 3-4-1q-4-2-9 1-13 4-17 19-3 9-3 28l-1 5-2 16-2 10-1 18zm3-7 1-12 2-10 2-16v-6q1-18 4-26 4-13 15-18h13l8-2v10q7 15 0 28-3 8-18 17-13 9-17 15-6 6-10 20"/><path fill="#ffbe29" d="M417 302s-6-16-12-24c-9-10-27-12-35-24-9-14 0-29 0-31v-9h9c4 0 5-4 13-3 19 5 18 27 19 48l5 26z"/><path d="M419 303h-3v-1q-5-16-11-23-4-4-17-10l-10-6q-6-3-9-8-8-12 0-30v-12h10l3-1q6-3 10-2 12 3 17 16l3 28v5l3 16 2 9 1 18zm-3-7-1-11-2-10-2-16-1-6q0-18-3-26-4-12-15-15-4-1-9 2l-4 2-8-1v8l-1 3q-7 16 0 28 4 6 19 12l17 11q5 7 10 19"/><path fill="#ffbe29" d="m567 711 3-2 2 3q4 6 11 1l3-2 3 3q5 6 12 2 3-5 5 0l7 4c5 1 5 1 8-4l2-12-1-11c0-5 0-5 6-8l8-3 9-13-6-3q-18-4-6-28a175 175 0 0 0 21-76c3 7-2 34-10 54l-3 7h3l22-11c28-15 37-18 55-17 16 2 22 6 33 21q7 10 21 22c21 17 22 18 23 39 1 22 1 23-11 28q-16 6-19 19-1 8 6 0l4-3 2 3q3 6 11 0l3-4 3 3q8 7 12-4 2-2 3 1c4 4 12 5 14 1l-2-6q-7-14-7-21c0-8 2-11 9-19 8-9 10-19 4-18q-6 0-10-11c-5-15-4-31 3-60a170 170 0 0 0 6-81l-7-16-4-7 5-7c17-21 13-51-7-60-6-3-7-3-18-2-6 0-16 2-22 4l-22 3c-10 0-12 0-16-3q-5-3-6-12l-1-3c-2 0-8 7-9 11q-1 2-2-1l-3-8q-3-10 6-16l4-3-2-2c-6-5-15-2-19 6l-2 4-4-5c-7-11-5-24 5-28q8-2 10 4c2 7 6-2 6-10q-2-7 2-6c4 0 12 7 15 13q5 11-1 24l-2 6 3-1q8-3 13-11c2-6 2-16 0-22q-3-7 2-4 7 4 11 12c2 6 2 7 1 13l-4 10q-3 4 0 4 6-2 10-7l3-8 2-6 2 4q3 9 12 14t5 0c-2-3-5-17-4-19l18 17q12 14 22 12c10-2 16-15 12-26q-6-9-13 0-2 4-1 8t-2 4q-4 1-19-15c-17-16-36-31-50-36-9-3-28-5-37-3-10 3-22 10-28 18q-17 22-1 52l4 5-3 4q-4 11 1 22l3 6 1-4q1-9 6-11c2-1 4-1 17 7 13 7 35 8 58 0 12-4 25-5 31-2 11 5 14 21 6 34-4 6-7 8-18 14-9 4-11 4-30 5-17 0-23 0-30 2s-11 3-33 1l-25-2 3 3 5 5q2 2-1 3l-8 1h-6v14q0 3-1 2l-7-3-8-4q-3-3-4 0c-1 3-9 10-11 10v-4l-3-12-3-11q-1-4-2-1l-2 7-2 9-3 4-1-4-5-9-1 3-8 12-1-6-2-7-1 2c0 3-4 10-6 10l-3 2q-3 4-3-2v-7l-2-7h-6q-9 3-5-2l4-9 3-8v3l-2 5-1 6-2 4 6-2 5-3v3l1 10 1 6 4-1q5-4 6-15 2-4 2 0l2 8 1 7 3-4 3-9q3-8 3-3c1 3 5 12 7 12l2-8q2-13 5-12l1 2q-1 2 2 13l4 13q0 4 5-2l5-7q1-2 3 1c4 3 13 8 15 7v-8l1-8 3 1 7 1 5-1-4-4-5-7-5-3c-7-2-17-10-18-15l4 3q7 10 15 10h4l-3-4-3-11c0-6-1-7-5-12l-8-10-3-4-1 5-2 4-3-4-3-3-3 5-2 6-2-4-4-7-2-4 4 5 4 5 1-3 1-8q-1-6 1-2l4 7 3 4 3-5q2-9 3-2c2 4 12 16 20 24q3 1-2-11l-1-9q1-4-4-9-7-8-8-18l-2-9q-1-3-1 5l-1 12-1 4-1-3-5-8q-4-3-4-5l6 5q5 7 5 3c1-2 0-11-1-18q-2-6 2 1 3 4 5 13c1 8 1 10 7 17l6 7 1-23c1-23 0-29-4-36l-2-4 3-5q7-8 7-18l1-5-4 4q-3 6-8 4-4 0-7-4-5-7-13-12l-2 1-2 8-3 5-4-6q-4-7-9-9-8-5-7 4 0 15-8 4-6-8-16-7h-6l1 4q2 5-1 8-5 9-14 7h-8l-9 2h-8q-1 2-1-4 1-12-9-14-11 0-8 20l2 8 8 15 8 14 5 6 3 3v-5q-1-8 2-2l4 5q4 4 3 1l2-6 1-3 2 5 8 16c6 11 9 22 8 25l-8-2-9-2q-6 0-2-4 4-5-3-5l-24-10q-6-5-7 3l-3 12-1 6h5l8-1h4l-2 5-2 5h4l6-2q3-4 5 3 4 10 5 1 1-10 5 3 5 14 6 7l3-5q6-5 7 4 4 7-11 17a81 81 0 0 0-33 60c-3 24 6 51 24 72 9 11 21 22 21 18-4-16-3-44 0-49v7c-3 16-2 29 6 61 7 29 6 40-4 47-3 2-5 2-14 1-9-2-10-2-13 1s-6 12-6 17q0 5 6 0"/><path d="m568 714-6 2-2-1-2-4 3-11q2-6 5-8 3-3 5-3l9 1h9l4-1q6-4 7-13 0-10-4-31l-4-15-2-1-6-4-15-14q-14-16-20-37-7-19-5-39 6-42 35-62 12-9 10-13l-1-3-2 1-3 3-2 4q-1 2-4-1l-4-10-1-2q-1 5-4 5-2 0-5-6l-1-3-1 1-7 2-8 1 4-11-8 1h-9l3-11 1-5 2-6 3-7q3-1 7 2l12 6 11 4 6 2q2 3-1 7l10 2 5 2v-1l-1-5-7-14-8-16v2l-1 3q0 2-2 1l-4-2-3-4 1 9-7-7q-4-3-6-7l-8-13q-8-11-8-17l-2-8v-17q4-8 10-6 5 0 9 5 3 6 2 12v1h7l8-1q3-3 9-1 8 1 12-6l1-3v-2l-2-8h9l10 1 7 7 4 3 1-5q0-7 2-9l8 2q5 3 9 10l3 3 1-2 2-6q0-3 2-4h3q8 4 14 13 2 3 5 3h4l3-3 8-11-1 15q-2 10-8 19l-2 3 1 2 4 14a219 219 0 0 1-1 49h-2v2l1 7 2 9v4l-2 2-2-1-3-2 1 3 2 9 5 9 23 2 22 1 11-2 30-2 19-2 10-3 12-7 5-6q6-8 4-17t-8-12q-4-2-13-1-8 0-17 3-18 6-34 6-15-1-26-6l-12-7h-4q-3 1-3 8-1 7-3 7t-6-7-3-13l2-12 2-3-2-3q-9-15-9-30t9-27l14-11 15-7h20q12 0 19 3l24 14q14 10 26 23 13 14 18 14-1-6 2-10 3-6 8-7 5 1 8 6 3 10-1 20t-13 11q-7 1-12-2l-12-10-12-13-2-2 4 11 2 3-1 4-2 1-7-2q-9-5-13-13l-3 8a21 21 0 0 1-12 8h-2l-2-4 2-5 4-14-2-5q-2-7-7-10l1 11-2 13q-5 9-14 12l-9 2 5-12q3-5 3-11l-2-9-6-8q-4-4-7-4v2q0 8-2 14l-4 3q-3 1-4-5l-2-2h-6q-6 3-7 9-1 7 3 14l3 3v-2q4-7 10-9 7-1 12 2l6 6-8 5q-7 5-5 12l2 6 4-6 6-4q3 2 4 6l1 6 3 3 5 2 10 1 22-3a121 121 0 0 1 33-5l8 3q8 3 13 11 5 7 6 17a52 52 0 0 1-11 37l-4 5 3 5a86 86 0 0 1 10 28 191 191 0 0 1-8 71l-7 35q0 14 3 24 3 9 8 9 3-1 5 2v7q-2 8-8 15l-6 8-1 8q0 7 6 19l2 9q-2 6-8 5t-9-4q-3 4-7 5-5 1-9-2l-1-2-2 2q-3 4-7 4t-7-4v-1l-2 2-7 4q-3 0-3-3v-4q3-16 20-22 8-4 9-6l1-18q-1-16-4-20-3-5-18-18-14-11-22-22l-14-15q-5-3-17-4-13-1-23 2t-31 14l-22 11-4 1-6 13q-5 10-5 16 2 6 9 7 8 2 8 6l-4 9-6 7-9 3-4 2v3l1 11a24 24 0 0 1-7 19h-5l-9-6-1 1q-4 4-8 3-5-1-8-5l-1-1-1 1q-4 3-8 3-4-1-7-5v-1zm-2-6 5-3 3 5q0 2 3 2l5-1 4-4 4 5 5 3 5-2 4-2 4 3 5 3h4l2-3 2-5v-4l-1-12 1-7 6-4 8-3 4-6 2-3-2-1q-10-3-13-11-2-9 5-22l15-36a109 109 0 0 0 5-38l2-3h2l1 2q3 6 0 24l-10 32v2l19-10 32-14q10-4 25-3 11 2 18 6 8 4 15 16 8 10 21 21 17 13 20 19 3 4 3 10a144 144 0 0 1 0 35q-1 3-5 5l-7 4q-13 4-16 16l2-2 6-5 3 5q0 3 3 2l4-3 5-5 4 4q3 3 6 2 3 0 3-4 1-3 4-2l3 2 6 2h3l-1-3q-7-14-7-22l2-12 7-10q6-6 7-11v-2h-1q-7 1-12-12-4-12-3-27 1-13 6-36l7-31a163 163 0 0 0-1-47l-7-16-5-9 7-9q11-14 9-32-1-17-16-24l-6-2-11 1q-12 1-21 4a90 90 0 0 1-33 3l-7-3-5-6-2-8-2 2q-4 4-4 6l-3 3-3-3q-3-3-4-9-2-13 8-20h1q-4-2-8-1-4 2-7 6-2 6-4 6l-6-6q-6-9-4-19 1-11 10-14h8q4 1 5 5l1-8v-7q1-2 5-2l9 5 8 9q3 5 2 14 0 7-3 13 6-2 10-9l2-9-2-9q-2-6-1-8 0-3 3-2l2 1q9 4 13 14l1 7v7l-3 9h1l4-4 3-7 3-12 5 10q3 7 11 12l-1-6q-3-9-1-12 3-4 21 17 6 7 11 9 4 3 10 2t9-8 1-13l-4-3q-3 0-5 3l-1 5v6l-4 2q-5 2-21-15-12-12-25-22t-24-14l-18-3h-18a51 51 0 0 0-27 17q-7 10-7 22 0 13 7 26l4 7-3 6q-2 5-1 9-1 6 2 10 1-8 7-11h6l13 7q9 5 24 6 16 0 33-6l18-3q9-1 14 1 10 4 11 16a34 34 0 0 1-11 31 77 77 0 0 1-24 10q-4 2-19 2l-29 2-12 2-22-1-18-1 2 2q3 2 2 4l2 2-3 1-3 1q-3 2-8 1h-4v16h-4l-7-3-9-5-6 7-7 4q-2 0-3-7l-2-11-2-6-4 11-4 9-3-10-2-5-4 7q-4 7-6 6-3 0-3-4l-1-3-1 1q-3 5-5 5l-1 1q-3 3-5 2-2 0-2-3v-10h-1l-1-5-3 1-7 1-2-2-1-4 3-3 3-8 1-4-5 3a78 78 0 0 0-32 59q-2 17 4 35a102 102 0 0 0 36 50l-2-25q0-18 4-22l2-1 2 3v2l-1 6q-2 11-1 23l7 36q6 23 4 33 0 12-9 18l-5 2-10-1-8-1-3 2q-3 1-4 7l-2 6zm107-235q-3-5-3-12l-1-5q0-2-4-5l-8-10q-1 6-4 6-2 0-5-4l-1-2-1 3-4 10-4-8-4-7-2-4-1-2 1-2 2-1 6 6 1 2 1-6v-5l1-1h2l1 1 1 2 4 6 1 1 1-2 3-6h1l-2-7-4-6-5-6q-1-3 1-4 1-3 8 5l2 2-2-17v-2l3-2 4 5q3 5 5 15l2 7 4 7 3 4v-2l1-15v-24l-4-11-3-6 5-6 6-13q-4 4-9 4l-9-6q-4-7-11-11l-2 8-4 9-7-10-7-8-4-2v3q0 10-4 11-3 2-9-5l-5-5-9-1h-3q2 6-1 11-6 9-16 8h-7l-10 2h-7l-2 1-2-3v-6q1-4-2-7-1-3-5-3t-6 3v13l2 9 7 13 9 15 3 4q0-5 2-7t5 4l3 5 1-4 3-10 5 12 7 15 8 16q3 10 0 13-1 2-9-1l-9-2q-4 0-5-2-2-3 1-7h-1l-12-4-12-6-4-2-1 4-2 6-1 5v2h2l8-1q4-1 5 1v8l4-1 4-1 4 6 1 2v-1l1-4q2-4 3-2 3 2 5 9l2 6 4-6q3-3 6-1 3 1 5 7a13 13 0 0 1-3 12q3 1 2 4l-1 4-1 3-1 5 8-4v7l1 9 1 3h1l3-5 2-8 1-3q0-2 3-1 2 1 2 5l2 8 3-7 3-6h3l2 4 2 6 1 1 1-4 2-10 2-3h4q2 1 2 3v5l2 8 4 12 6-8 3-3 4 2 11 7v-17l6 2 6 1-5-7-4-2-12-7q-7-6-7-11l1-3h2l1 1 3 3q6 7 13 9m-11-55-1 3-2 8v1l1 3 7 9 8 10-1-4-1-10v-3l-3-4-6-9zm-27 63"/><path fill="#ffbe29" d="m716 725 4-3 3 3q5 7 10 0l3-3 2 3q1 3 5 3 5 1 6-3l2-3 4 3c10 9 15-1 11-20-2-9-1-15 6-27q6-9 6-13 1-4-5-3-5 2-7-3-5-7 1-18l3-5-6-5-12-15q-11-17-27-19l-7-1v7c0 10 3 19 12 35 10 18 11 20 11 44l1 19-3 4c-3 3-4 4-13 4-8 1-9 1-12 4q-4 5-5 11-1 4 1 4z"/><path d="m717 728-7 3q-3 0-3-2v-6l5-12 5-4 9-1 8-1 3-2 2-3v-18q0-17-2-23l-9-19q-7-12-9-20-3-8-3-17l-1-10 10 1q16 3 29 20l11 14 8 7-5 8q-5 8 0 14l2 2h3l5 1q3 1 3 5l-7 15-6 13v11q4 16 0 23-5 9-15 1l-2-2v1l-3 4h-5q-6 0-7-4l-1-1v1q-3 4-7 5-4-1-7-5l-1-1zm-2-6 5-4 4 5q4 5 8 0l3-4q2-2 3 1l2 4 3 1h3l1-1 3-6 6 4q5 6 8 2 3-5 0-18-3-8-1-14l8-16 5-11-3 1-5-1-4-4q-6-9 1-22l1-3-3-3q-6-4-13-15-11-16-25-18h-5v4q0 12 12 32 7 13 9 21 2 7 3 24v21l-4 5q-2 3-5 4l-9 1-7 1q-3 1-3 3-4 3-5 9z"/><path fill="#ffbe29" d="m497 650 2-6q0-4 5-3h5l-4-4q-5-8 0-8 6 0 9-7v-5q-4-5-6 0-1 5-5 0-6-12 0-23 3-1 0-6-4-7-4-12l5 2q4 3 5 1 5-7-6-9-3 1-4-2l-4-5q-5-3-4 2-1 7-6 2t-5 3q0 5 8 6 5 1 0 9l-3 4 2 4q4 12 0 21l-3 3-1-3q-5-7-7-1-1 4 3 8 3 5 6 5 5 2-1 8l-2 2 4 2 5 3c0 3 3 11 4 11z"/><path d="M496 657v-2h-1q-3 0-5-6l-2-7-2-1-10-4 7-6 2-2q-4 0-8-6t-3-11 5-5q3 0 5 5l1-1 2-7-1-10-4-6 4-5 2-4-7-2q-3-3-3-8t3-6q2-2 6 1l1 2v-1l2-6q2-1 5 2 6 2 6 6h2q5 0 8 4l2 6-2 5q-2 2-8-1l-1-1v1l2 5 3 6-2 5q-2 3-2 9l3 10q1-4 4-4t6 4l1 8-5 6q-4 3-7 2l2 2 7 9-10 1h-3q1 4-2 8zm0-10 1-3q0-4 2-5l4-1-3-7 1-4 4-1 4-2 3-3v-2l-1-1h-1q-1 6-4 5l-4-4q-4-6-4-14 0-7 3-13l1-1-1-1-3-8v-8q1-2 7 1 2 2 3 1v-1q-1-2-5-2t-6-4v-1l-3-2h-1q0 5-3 6-2 1-6-3h-1l-1 1 1 1 4 2 4 1 2 5q0 4-3 8l-2 2 1 2q3 6 3 13 0 8-3 12l-5 6-3-7-2-2-1 1v2l2 3q2 4 5 4l3 2 2 4-3 6q6 3 6 6l1 5 1 2z"/><path fill="#ffbe29" d="M556 624c4-2 13-11 13-13l-5-9c-7-9-13-23-15-31q-1-4-18-30l-17-25-5 1h-7q-3-1 1 4l3 4 4-3q6-3 5 0 1 3-1 6l-2 5q1 2-2 3-5 5-3 8c2 0 7-6 7-10v-3c2-1 2 5 0 8l-2 5q1 2-2 3-5 5-3 8c3 0 7-6 7-10v-3q2 1 1 7v4q1 7-2 9-1 1 2 5c3 3 3 4 3 17l1 17q3 3 2 0 1-3 6-4l10 13 11 14 3 1z"/><path d="m557 627-6 1-3-1q-4-1-13-15l-8-12-3 1v1-1 2l-3 3-3-3-2-7-1-12v-12l-2-3-2-4-1-3 2-2 1-3v-3q-3 5-6 4-3 0-3-4v-4l2-3-2-4v-4q2-4 5-6l1-1q-1-3 2-6l1-2-2 1-5 4-5-6-3-5 1-3 1-1h9l6-1 17 26a159 159 0 0 1 24 46l9 15q6 8 6 11 1 3-5 9zm-2-6 8-6 4-4-1-2-4-5a113 113 0 0 1-15-32q-1-6-18-29l-11-17-2 3 1 1 1 4-2 6v1l1 3v8a14 14 0 0 1-2 12l1 1 3 6 1 14v12l2-2q2-2 5-1l11 14 10 13h1l3 1zm-48-101-1 1z"/><path fill="#ffbe29" d="M505 561q-1-6-12-10-7-3-6 2 0 4 5 7 10 6 13 1"/><path d="M507 564q-2 3-6 3l-10-4q-3-2-4-5l-2-6q0-4 2-5l6 1q6 2 9 5 6 4 5 9zm-5-4-2-2-7-4-3-1v2l3 2 8 4z"/><path fill="#ffbe29" d="M511 562q5-5 2-7c-2 0-6 5-7 7q0 6 5 0"/><path d="m512 564-4 4q-3 0-3-3l-1-3q0-3 4-7l5-3q3 0 3 3v4z"/><path fill="#ffbe29" d="M505 550q1-2-3-6-11-7-15-5-4 5 4 9l6 3q6 4 8-1"/><path d="M507 551q0 4-4 5l-7-2-5-3q-6-2-7-6-3-5 1-9h8l10 6q5 4 4 9m-4-2-2-2-9-5-4-1v1q0 2 3 3l7 3z"/><path fill="#ffbe29" d="M505 539c0-3-1-4-12-11q-14-7-9 3 1 4 6 5l7 4q8 4 8-1"/><path d="M507 540q0 4-4 5l-6-2-8-4q-6-1-8-7l-1-6 3-4q4-1 11 3l11 8 3 6zm-4-2-11-7q-6-4-7-3l1 2 4 3 8 4z"/><path fill="#ffbe29" d="m511 530 3-6q-3-3-8 6-1 6 5 0"/><path d="M512 532q-3 4-5 4-3 0-3-4v-4q1-4 5-7l3-1 3 1 1 3v3h1z"/><path fill="#ffbe29" d="M505 528q1-5-12-10-8-5-8 1 1 3 8 7 13 9 12 2"/><path d="M507 532q-1 2-5 2l-9-5q-9-4-10-10 0-4 3-6l8 2q15 5 13 14zm-4-5-2-1q-2-3-8-5l-5-2 6 5z"/><path fill="#ffbe29" d="M513 514c10-5 11-20 2-26q-7-3-9 2-1 6 2 8l1 2c-1 6-16 5-23 0q-3-4-1-6 3 0 2-7-2-6-8-5c-10 3-10 17 0 26 8 6 25 9 34 6"/><path d="M514 517q-7 3-18 1-12-2-18-8-8-6-9-17l2-9q3-4 7-5 9-2 11 8v6l-2 4h1q4 4 12 4l6-1-2-5v-7q4-8 11-3l7 7 2 10q-1 10-9 14zm-2-6q6-3 7-10t-5-10q-4-3-6 0v4l2 2 1 3q0 7-11 7-9 0-15-4l-3-6v-4l2-2h1v-3q-1-3-6-3-6 2-5 8 0 8 6 12t16 7q10 1 16-1"/><path fill="#ffbe29" d="m507 501-1-3q-3-4 0-10c2-3 2-7 3-53 1-77 5-135 11-149q4-8-4 0-10 7-18 25c-9 23-13 55-13 125 0 40 0 45 2 49q3 5 1 8l-1 6c3 3 17 4 20 2"/><path d="m509 502-1 1q-2 3-11 2t-12-4 1-9v-3l-1-3-2-12v-38q0-53 3-81t10-45 19-27l6-4q3 1 2 4v2l-1 3q-4 10-7 49l-4 99-1 42-2 12-1 3v2l2 4zm-5-3-2-7 3-7 1-8 1-42a1721 1721 0 0 1 9-146q-9 8-16 24-7 17-10 44-2 27-2 79v38l1 9q3 6 1 12l-1 2 8 2z"/><path fill="#ffbe29" d="m593 439-2-8q-2-7-5-7-13-2-35-18-11-9-12-7c-2 3 2 11 8 16 6 4 21 11 28 12q6 0 2 5l-2 3 5 1 8 2q5 3 5 1"/><path d="m595 437 1 1-1 3-3 2-5-2-7-2-9-2 4-7-15-5-14-7-8-10q-4-7 0-11h5l9 6q22 17 34 18 2 0 5 3l2 6zm-21-14q-10-5-24-15l-9-6 1 3q1 4 6 7 4 4 13 7zm16 13-2-8-2-1-6-1v1q2 2-1 6h1l8 2zm51 44q-1-4-8-12-5-4-4-1l-4 11-1-3-4-10-3-5-2 4q-5 8-8 8v-5l-1-6h-1c0 2-5 8-6 9l-2-6-1-10 2 5 2 9 3-5 2-7 1-1 2 8 1 7 2-4 4-6q2-3 4 1l4 8 3 5 1-6v-7l12 12q3 4 4 3v-7q1-8-3-11-4-6-4-2-3 6-3 0l-7-13-3 4-3 5c-1-1-9-13-9-16q0-3 2 2l4 8q5 6 6-4l1-4c2 1 8 11 10 15l1 4v-4q2-6 4 0l7 9 5 5 2-5 1-3c1 2-1 9-2 11l-4-4-3-4v7l-1 10q-2 5-3 1m-1 3v-4l-2-3-6-7-2 5q-1 7-4 7l-3-7-4-8-1-2v1l-5 6q-1 3-4 3l-1 2v-2q-2 0-2-5v-2h-1l-3 4-1 3-1-2q-3-1-4-8l-1-10v-3l2-2 2 1v1l2 6 1 3 2-6 1-3h3q3 3 3 11l4-5 2-3 1-1 1 2 2 2 5 8v-6q1-3 3-2h1l1 1 3 4 1 1v-2l-3-3v-3l-3-6-2-3-1 2q-2 6-5 6l-7-9-5-10 1-3q2-3 3-1l2 4 6 9 1-4q1-6 3-6 3 1 7 8l3 6q1-3 3-2 2 0 4 5l6 7 3 3v-1l2-4 1-1q2-1 3 1v8q0 6-2 7-1 3-7-3l-1 11-3 5q-2 1-3-2m-4-22-1 4 5 5 1 1v-8l-2-3-1-1zm-24-37c-7-8-8-10-8-14l1-4v4l4 9 4 4 3-3 2-5q-1-5 5 3 5 9 5 2l-1-7q-2-9 1-3l4 6q3 5 2 0l1-7v-4l4 6q4 8 4 3l2-8q0-4 1-3 1 6-2 14l-2 4-2-4q-2-9-5 0-1 7-4 1-1-5-2 3l-1 7-4-6-5-5-2 3-2 4q0 4-3 0m-1 2-7-9-2-7v-4h5v4l4 6 2 3 1-2 2-3v-3q1-2 4 0l4 5 2 2-1-4-1-8 3-2 2 2 1 2 3 4v-16l7 13 2 2v-5l1-4q0-3 3-2l1 2q2 3 1 8l-2 9-4 8-4-9v-1l-1 1-3 6-3-1-1 10-8-9-3-3v1l-2 3q0 4-3 4zm61-24-4-7h1l5 6q7 12-2 1m-1 2-4-5v-7l1-1q2 0 3 2l8 13v1q1 3-2 3zm-79-22q-3-6 1-11 2-4 6-3l11 8 11 7 6 1-3-6q-6-11 0-4c5 5 9 7 20 7l5 1-3-5q-6-9 2 0 7 8-5 6l-12-2q-7-4-4 0 0 3 2 3l1 1c-1 3-11 0-17-5-13-10-14-11-17-10l-4 4c-1 7 5 13 8 8v-6q-4-4 0-2c2 2 3 8 1 10q-5 4-9-2m-2 1-2-4h1q-1-5 2-11 1-3 4-3h4l12 8q6 6 11 7v-1l-3-8q1-4 3-3l1 1 3 3q4 6 18 6l-2-3-1-1v-2l2-3 6 6 3 3 1 5 2 2h-4l-8 1q-5 1-11-2v2q0 3-4 3l-5-1q-7-2-11-5l-8-6v2q0 5-2 8t-6 1q-4 0-6-5m6-10-2 3 2 4h3l-1-2zm45-3q-2-3 7-2 11 1 20-5 8-5 1 1-7 5-17 6l-8 1zm-2 3-3-5h2l2-3h8q11 1 18-5 6-4 7-3 3 2 1 5l-1 2-2 2q-8 7-19 7l-8 1z"/><path fill="#ffbe29" d="m567 711 3-2 2 3q4 6 11 1l3-2 3 3q5 6 12 2 3-5 5 0l7 4c5 1 5 1 8-4l2-12-1-11c0-5 0-5 6-8l8-3 9-13-6-3q-18-4-6-28a175 175 0 0 0 21-76c3 7-2 34-10 54l-3 7h3l22-11c28-15 37-18 55-17 16 2 22 6 33 21q7 10 21 22c21 17 22 18 23 39 1 22 1 23-11 28q-16 6-19 19-1 8 6 0l4-3 2 3q3 6 11 0l3-4 3 3q8 7 12-4 2-2 3 1c4 4 12 5 14 1l-2-6q-7-14-7-21c0-8 2-11 9-19 8-9 10-19 4-18q-6 0-10-11c-5-15-4-31 3-60a170 170 0 0 0 6-81l-7-16-4-7 5-7c17-21 13-51-7-60-6-3-7-3-18-2-6 0-16 2-22 4l-22 3c-10 0-12 0-16-3q-5-3-6-12l-1-3c-2 0-8 7-9 11q-1 2-2-1l-3-8q-3-10 6-16l4-3-2-2c-6-5-15-2-19 6l-2 4-4-5c-7-11-5-24 5-28q8-2 10 4c2 7 6-2 6-10q-2-7 2-6c4 0 12 7 15 13q5 11-1 24l-2 6 3-1q8-3 13-11c2-6 2-16 0-22q-3-7 2-4 7 4 11 12c2 6 2 7 1 13l-4 10q-3 4 0 4 6-2 10-7l3-8 2-6 2 4q3 9 12 14t5 0c-2-3-5-17-4-19l18 17q12 14 22 12c10-2 16-15 12-26q-6-9-13 0-2 4-1 8t-2 4q-4 1-19-15c-17-16-36-31-50-36-9-3-28-5-37-3-10 3-22 10-28 18q-17 22-1 52l4 5-3 4q-4 11 1 22l3 6 1-4q1-9 6-11c2-1 4-1 17 7 13 7 35 8 58 0 12-4 25-5 31-2 11 5 14 21 6 34-4 6-7 8-18 14-9 4-11 4-30 5-17 0-23 0-30 2s-11 3-33 1l-25-2 3 3 5 5q2 2-1 3l-8 1h-6v14q0 3-1 2l-7-3-8-4q-3-3-4 0c-1 3-9 10-11 10v-4l-3-12-3-11q-1-4-2-1l-2 7-2 9-3 4-1-4-5-9-1 3-8 12-1-6-2-7-1 2c0 3-4 10-6 10l-3 2q-3 4-3-2v-7l-2-7h-6q-9 3-5-2l4-9 3-8v3l-2 5-1 6-2 4 6-2 5-3v3l1 10 1 6 4-1q5-4 6-15 2-4 2 0l2 8 1 7 3-4 3-9q3-8 3-3c1 3 5 12 7 12l2-8q2-13 5-12l1 2q-1 2 2 13l4 13q0 4 5-2l5-7q1-2 3 1c4 3 13 8 15 7v-8l1-8 3 1 7 1 5-1-4-4-5-7-5-3c-7-2-17-10-18-15l4 3q7 10 15 10h4l-3-4-3-11c0-6-1-7-5-12l-8-10-3-4-1 5-2 4-3-4-3-3-3 5-2 6-2-4-4-7-2-4 4 5 4 5 1-3 1-8q-1-6 1-2l4 7 3 4 3-5q2-9 3-2c2 4 12 16 20 24q3 1-2-11l-1-9q1-4-4-9-7-8-8-18l-2-9q-1-3-1 5l-1 12-1 4-1-3-5-8q-4-3-4-5l6 5q5 7 5 3c1-2 0-11-1-18q-2-6 2 1 3 4 5 13c1 8 1 10 7 17l6 7 1-23c1-23 0-29-4-36l-2-4 3-5q7-8 7-18l1-5-4 4q-3 6-8 4-4 0-7-4-5-7-13-12l-2 1-2 8-3 5-4-6q-4-7-9-9-8-5-7 4 0 15-8 4-6-8-16-7h-6l1 4q2 5-1 8-5 9-14 7h-8l-9 2h-8q-1 2-1-4 1-12-9-14-11 0-8 20l2 8 8 15 8 14 5 6 3 3v-5q-1-8 2-2l4 5q4 4 3 1l2-6 1-3 2 5 8 16c6 11 9 22 8 25l-8-2-9-2q-6 0-2-4 4-5-3-5l-24-10q-6-5-7 3l-3 12-1 6h5l8-1h4l-2 5-2 5h4l6-2q3-4 5 3 4 10 5 1 1-10 5 3 5 14 6 7l3-5q6-5 7 4 4 7-11 17a81 81 0 0 0-33 60c-3 24 6 51 24 72 9 11 21 22 21 18-4-16-3-44 0-49v7c-3 16-2 29 6 61 7 29 6 40-4 47-3 2-5 2-14 1-9-2-10-2-13 1s-6 12-6 17q0 5 6 0m149 14 4-3 3 3q5 7 10 0l3-3 2 3q1 3 5 3 5 1 6-3l2-3 4 3c10 9 15-1 11-20-2-9-1-15 6-27q6-9 6-13 1-4-5-3-5 2-7-3-5-7 1-18l3-5-6-5-12-15q-11-17-27-19l-7-1v7c0 10 3 19 12 35 10 18 11 20 11 44l1 19-3 4c-3 3-4 4-13 4-8 1-9 1-12 4q-4 5-5 11-1 4 1 4zm-219-75 2-6q0-4 5-3h5l-4-4q-5-8 0-8 6 0 9-7v-5q-4-5-6 0-1 5-5 0-6-12 0-23 3-1 0-6-4-7-4-12l5 2q4 3 5 1 5-7-6-9-3 1-4-2l-4-5q-5-3-4 2-1 7-6 2t-5 3q0 5 8 6 5 1 0 9l-3 4 2 4q4 12 0 21l-3 3-1-3q-5-7-7-1-1 4 3 8 3 5 6 5 5 2-1 8l-2 2 4 2 5 3c0 3 3 11 4 11zm59-26c4-2 13-11 13-13l-5-9c-7-9-13-23-15-31q-1-4-18-30l-17-25-5 1h-7q-3-1 1 4l3 4 4-3q6-3 5 0 1 3-1 6l-2 5q1 2-2 3-5 5-3 8c2 0 7-6 7-10v-3c2-1 2 5 0 8l-2 5q1 2-2 3-5 5-3 8c3 0 7-6 7-10v-3q2 1 1 7v4q1 7-2 9-1 1 2 5c3 3 3 4 3 17l1 17q3 3 2 0 1-3 6-4l10 13 11 14 3 1zm-51-63q-1-6-12-10-7-3-6 2 0 4 5 7 10 6 13 1m6 1q5-5 2-7c-2 0-6 5-7 7q0 6 5 0m-6-12q1-2-3-6-11-7-15-5-4 5 4 9l6 3q6 4 8-1m0-11c0-3-1-4-12-11q-14-7-9 3 1 4 6 5l7 4q8 4 8-1m6-9 3-6q-3-3-8 6-1 6 5 0m-6-2q1-5-12-10-8-5-8 1 1 3 8 7 13 9 12 2m8-14c10-5 11-20 2-26q-7-3-9 2-1 6 2 8l1 2c-1 6-16 5-23 0q-3-4-1-6 3 0 2-7-2-6-8-5c-10 3-10 17 0 26 8 6 25 9 34 6m-6-13-1-3q-3-4 0-10c2-3 2-7 3-53 1-77 5-135 11-149q4-8-4 0-10 7-18 25c-9 23-13 55-13 125 0 40 0 45 2 49q3 5 1 8l-1 6c3 3 17 4 20 2m86-62-2-8q-2-7-5-7-13-2-35-18-11-9-12-7c-2 3 2 11 8 16 6 4 21 11 28 12q6 0 2 5l-2 3 5 1 8 2q5 3 5 1"/><path d="M641 480q-1-4-8-12-5-4-4-1l-4 11-1-3-4-10-3-5-2 4q-5 8-8 8v-5l-1-6h-1c0 2-5 8-6 9l-2-6-1-10 2 5 2 9 3-5 2-7 1-1 2 8 1 7 2-4 4-6q2-3 4 1l4 8 3 5 1-6v-7l12 12q3 4 4 3v-7q1-8-3-11-4-6-4-2-3 6-3 0l-7-13-3 4-3 5c-1-1-9-13-9-16q0-3 2 2l4 8q5 6 6-4l1-4c2 1 8 11 10 15l1 4v-4q2-6 4 0l7 9 5 5 2-5 1-3c1 2-1 9-2 11l-4-4-3-4v7l-1 10q-2 5-3 1m-28-57c-7-8-8-10-8-14l1-4v4l4 9 4 4 3-3 2-5q-1-5 5 3 5 9 5 2l-1-7q-2-9 1-3l4 6q3 5 2 0l1-7v-4l4 6q4 8 4 3l2-8q0-4 1-3 1 6-2 14l-2 4-2-4q-2-9-5 0-1 7-4 1-1-5-2 3l-1 7-4-6-5-5-2 3-2 4q0 4-3 0m60-22-4-7h1l5 6q7 12-2 1m-80-20q-3-6 1-11 2-4 6-3l11 8 11 7 6 1-3-6q-6-11 0-4c5 5 9 7 20 7l5 1-3-5q-6-9 2 0 7 8-5 6l-12-2q-7-4-4 0 0 3 2 3l1 1c-1 3-11 0-17-5-13-10-14-11-17-10l-4 4c-1 7 5 13 8 8v-6q-4-4 0-2c2 2 3 8 1 10q-5 4-9-2m49-12q-2-3 7-2 11 1 20-5 8-5 1 1-7 5-17 6l-8 1z"/></svg>