<svg xmlns="http://www.w3.org/2000/svg" viewBox="0 0 1000 1000"><path fill="#cc092f" d="M8 195.3c170.8-85.3 341-54.5 513.3-28C676.5 191 833.4 211.8 992 132.7v672c-170.8 85.3-341 54.5-513.3 28C323.5 809 166.6 788.1 8 867.2z"/><path fill="#ffd200" d="M8 195.3c217.3-108.5 432.3-28.3 656-9.9v672c-215.4-17.8-434.3-100.8-656 9.8z"/><path fill="#0046ae" d="M8 195.3c108.3-54 216.4-61.8 328-52.7v672c-108-8.8-216.7-2.9-328 52.7z"/><path d="M471.4 296.4q-2.7-.3-4.2 1 2.3 1.4 2.5 4.9v5.5l-4-.6q-2.7-.6-3.4-3.8-1 1.8-1.2 5.5 0 3.8 1.2 6 .8-3 3.3-3l4 .7v26.6q0 3.3-2.2 4.2c2 1 3.4 4.2 4 6.4.6-2 2-4.8 4-5.2q-2-1.5-2.2-4.8V313l4 .6q2.5.7 3.4 3.9 1-1.8 1.1-5.6-.1-3.7-1.1-5.9-.9 3-3.4 2.9l-4-.7v-5.5q.1-3.5 2.4-4.2a7 7 0 0 0-4.2-2.2"/><path fill="#f5d402" d="M471.4 297.6a6 6 0 0 0-2.4.1 9 9 0 0 1 1.5 4.7v6.6h-.8l-4-.7q-2-.4-3.3-2.5a14 14 0 0 0 0 6.6q1.2-1.7 3.2-1.6l5 .8-.1.3v27.5a6 6 0 0 1-1.5 3.9q.9.9 1.6 2.2.6 1 .8 2l.9-1.8q.7-1 1.5-1.6a8 8 0 0 1-1.5-4.5V312h.9l4 .7q2 .4 3.2 2.5.4-1.4.5-3.2l-.4-3.3q-1.3 1.7-3.3 1.5l-4-.6h-.2l-.7-.2v-6.6q0-2.8 1.5-4.2-1-.6-2.4-1"/><path d="M522.2 401.9a37 37 0 0 1-6-9.2 73 73 0 0 1-5-27.3c.3-4 3.2-8.1 3.4-11.3 0-5-.3-8-.3-8 1.1.6 3.1 3.5 3.2 3.6 0-.3-.4-7.7-2-9.9 0 0 .7-.9 3.5-.6-1-2.8-4.5-6.6-4.6-6.7q.4-.7 1-1 1.6-1 3.4-1l-3.8-2c-3.2-2-7-4.7-10.5-7.5a29 29 0 0 0-14-6.6c-2-.3-4.6-.6-6.5.6-1.4 1.3-1.5 2.9-2 3.5-1.4 1.3-3.3 1-4.4.8-6.9-.3-7 8.3-7 8.9 0-.3 1.5-3 4.7-2.9 5.3 1.1 8.7 5 9 6.6 0 .6-.5.6-.6.6-3.2-.7-8.4-3.7-11-4.4v1.8c6 3.8 11.8 8.6 12 26.4a74 74 0 0 1-5 30.7q-2.3 4.4-6 7.4l24.2 9.7z"/><path d="m498 390.7-24.3 3.7a74 74 0 0 1-10-7c-6.4-6-9.7-11-17.3-12.7v-8c0-4.2 1-7.8 1.1-11.9-3-1.9-12.2-17.7-20.3-25.6-12.2 9.3-21.3 25.2-21.5 33.5v234c-.1 3.6-1.5 8.2-1.5 8.3 4.4-2.4 12.3-15.8 14.2-21.6v2.8c6.6-3.6 11.4-13.3 13.7-18.8l.1 2.9c5.8-6.7 13.5-47.1 13.6-47.4l12.6 18.9s-4.7 11.8-6.3 14l2.5.5c-.8 1.5-7.1 13.1-9.2 17.5-2 4-3 2.2-6 1.6-2.6 0-7.4 3.8-8.6 6q-1.5 3.3-1.7 6.8c.2 2.5 1.9 6 2 6q.3-1.4.5-1.4l5.6 10.2c.8 1 2.9 1.8 4 1 2.3-2.5 4.3-4.2 6.4-7.8.9-2 1.1-4.2 2.2-6.3l13.5-22.7.3 2.6a71 71 0 0 1 11.8-14.4l10.1 8c-.1.3-19 56-35.8 63.2 0 0 7.3 5.3 16.4 13l4 3.6 3.5-5.5c5.3-9 10.6-19.6 10.6-19.6.2 3.1-2.5 11.6-7.3 22.2l-3 6.4 3.7 3.5c8.9 8.8 17 18.4 20.3 26.6l2.2-7.1-2.2-7.8V400.6l1.1-3.6z"/><path fill="#b07f55" d="M498 661.9a96 96 0 0 0-17.2-18.3c8.9-20.7 13.2-54.2 11.3-61.6 0 0-3.8 17.3-8.1 27-4.2 8.7-9.3 18.6-14.2 25.7q-6.2-4.5-11.4-7.4c14.7-13.7 29.9-62.2 30-62.4l-15.7-12.3s-6 8.2-7.8 9.8c0 0-.8-4.7-1.3-6.4 0 0-2.1 1.7-3.4 1.8l-.7-5.3c-1.7 1-4 .5-4 .5 2-1.6 4.8-9.4 4.8-9.6L445.4 514c0 .3-5.4 33.2-11.2 39.9V405.6l4.7 6.7 7.2-8.1v-7l-6.4 7.2v-21l2.1-4.3c1 2.6 4.4 10.5 8.3 15.8 1-3.5 4.6-6.1 4.8-6.3 0 .3 1.7 5.5 3.9 7.6 1-1.8 5.5-5.4 5.6-5.4-.2 0-3.9.3-5.8 2.1-1.2-1.2-1.8-8.1-1.8-8.5a23 23 0 0 0-7.2 5.9c-1-1-3-7-3.7-9.8q1.6 0 4.5.3 2.8.7 6.4 3.6l7.6 6.4a30 30 0 0 0 9.1 3.7 35 35 0 0 1-5 3.4c.1 0 7 .8 12.4-1.7q2.8-2 5.4-4.3-1.1 4-3.6 8a14 14 0 0 0 12.4-6.8c.6 1.8 1.5 4.8 2.8 7.5l2.8.4v253.9zm-55.8-307 .1 4.7v14c-2.7-2-6-8.3-7.8-12v-1.8q.2-2.7 1.3-3.7l-1.6-1q-1.2 1.4-1.4 4.1v1.1L428 367l-4.8-10.7v-2.5c0-1.7.9-3.3 1.7-4.5l-1.6-1q-1.4 2.1-1.7 5v2l-5.6 7-2.8-8.6c3.5-6 8.9-12.3 14-16.8.1 0 11.4 15.4 15 18m-28.4 9.5v11.5l-4 4.5v-17.1q.2-2.5 1.4-5.6z"/><path fill="#b07f55" d="M425.9 370.4v7.2l-4.5 5.1v-22.2zm-6.1 12-4.5-6.3v-8.3l4.5-5.9zm20.6-5.7a29 29 0 0 1-6.8 8.2v-19.6c.8 1.8 4 8.7 6.8 11.4m-8.4-10.6v18l-4.5-6.3v-6.4zm-18.3 16.7v18l-4-5.5v-8zm6 6.6v6.5l-4.4 5V383zm6.2-4.9v18l-4.5-6.5v-6.3zm6.1 6.6v6.4l-4.5 5.2v-18zm6.1 13.1-4.5-6.4v-6q2.3-1.9 4.5-5.6zm-11.4 6.3 4.8-5.3v148.3l.5 12.2-10 12.5V403.8zm-7.5 161.8c-.2 5-6.2 14.7-9.4 17.2V402.1l4.7 6.7 4.7-5.4z"/><path fill="#d10429" d="m458.8 562 3.4-2.8.6 3.8-14.3 24.3a39 39 0 0 0-2 6.6c0-.1-1.3-1.2-1.5-3l.2-3.9c0 .1-1 1.5-3.1 1.3.2-2 2.7-4 3.2-7.1-2.5 1.8-4.3.7-7.1 1.3-3 1-3.8 2.2-4.7 2.2-.5-.3-1-1.4-.8-2.2.7-1.4 3.8-4.2 6.5-4.8 1 .2 5 2 6.4.3l11.1-21.7q.6 0 1-.3s.2 4.1 1 6"/><path fill="#d10429" d="M436.4 584.8q.3.6 0 1l-1.6 1.6q-.4.4-.7-.2-.3-.5 0-1l1.6-1.6q.1-.2.4-.1zm2.4 2.6q.7 1.4 0 2.4l-3.9 4q-.9.7-1.7-.5-.7-1.5 0-2.4l3.9-4q.2-.3.6-.3.6 0 1.1.8m2.2 3.8q.6 1.5 0 2.4l-3.9 4q-1 .7-1.7-.5-.7-1.5 0-2.4l3.8-4q.3-.3.7-.3.6 0 1 .8m1.4 3q.6 0 1.1.8.7 1.4 0 2.4l-3.9 4q-.8.7-1.7-.6-.7-1.4 0-2.3l3.9-4z"/><path d="m498 390.7 24.2 11.2c1.1-.3 6.2-1.8 10-4 6.4-4 9.6-8 17.3-7.5v-8c-.1-4.2-1-8.2-1.2-12.2 3.2-1 12.2-14 20.4-19.7 12.1 12.7 21.2 31 21.5 39.3l-.1 39v195c.2 3.6 1.6 8.7 1.6 8.7a81 81 0 0 1-14.2-25.4v2.8a58 58 0 0 1-13.8-22.7l-.1 2.9c-5.7-8.3-13.5-51.1-13.5-51.3l-12.7 15c0 .1 4.7 13.3 6.4 16l-2.6-.2c.9 1.8 7.2 15.2 9.2 20.2 2 4.5 3 3 6 3.3 2.6.8 7.5 6.1 8.7 8.6a24 24 0 0 1 1.6 7.3c-.2 2.4-1.8 5.3-1.9 5.4l-.5-1.6-5.7 8.6c-.8.8-2.8 1-4-.2-2.2-3.1-4.2-5.4-6.3-9.7-1-2.2-1.2-4.5-2.3-7l-13.5-26.7-.3 2.5c-2.2-5.8-11.7-17.9-11.7-18l-10.2 4.9c.1.3 19.1 62 35.8 74.1 0 0-7.3 3.2-16.3 8.2l-4 2.3-3.5-6.6a513 513 0 0 1-10.7-22.9 91 91 0 0 0 7.3 24.5l3 7.4-3.6 2.3c-9 6-17.1 13-20.4 20.3l-2.2-7.8 2.2-7.1V400.6l-1-4z"/><path fill="#b07f55" d="M498 661.9c3.2-4.2 9.6-8.8 17-13-8.9-23.5-13.2-58.3-11.3-65.1 0 0 3.8 18.4 8.2 29.4 4.2 10.1 9.3 21.5 14.2 30.2q6.2-2.5 11.3-4c-14.6-18-29.8-71.4-29.9-71.6l15.7-7.5s6 10.1 7.7 12.3l1.3-6.1s2.2 2.5 3.5 2.9l.6-5.1c1.7 1.6 4 1.7 4.1 1.7a46 46 0 0 1-4.9-11.1l15-25c0 .3 5.4 35 11.2 43.2V425l-4.8 5.3-7.1-10.2v-7l6.3 9v-21q-1.5-3-2-4.8a63 63 0 0 1-8.3 13.3c-1-3.7-4.7-7.5-4.9-7.7 0 .3-1.6 5-3.8 6.4-1-2-5.6-7-5.7-7.1.2 0 4 1.5 5.9 3.9 1.2-.9 1.8-7.5 1.8-8 .1.1 5.8 5 7.2 8 1-.6 2.9-6 3.7-8.7q-1.6-.5-4.6-1-2.7-.2-6.3 1.7c-2.6 1.3-5.3 3-7.7 4a23 23 0 0 1-9 1q2.3 2.6 5 5c-.1 0-7-1.4-12.4-5.5q-3-3-5.4-6 1 4.3 3.5 9.1a21 21 0 0 1-12.4-10.7c-.5 1.8-1.4 4.4-2.8 6.7l-2.7-.5v254zm55.7-290.1-.2 4.7v14c2.8-1.3 6-6.4 7.9-9.6v-2a8 8 0 0 0-1.4-4l1.7-.5a10 10 0 0 1 1.3 4.5v1l5 8 4.8-9.3v-2.4c-.1-1.7-1-3.6-1.7-5l1.6-.6q1.4 2.5 1.7 5.5v2l5.5 8.6 2.9-8c-3.5-6.8-9-14.7-14.1-20.7-.2.2-11.3 12.2-15 13.8m28.4 17.5v11.5l4 5.5v-17a20 20 0 0 0-1.4-6z"/><path fill="#b07f55" d="M570 392v7.2l4.5 6.4v-22.3zm6 13.8 4.6-5.1v-8.4l-4.6-7zm-20.5-11.6a39 39 0 0 0 6.7 10.1v-19.5a29 29 0 0 1-6.7 9.4m8.3-8.2v18l4.5-5v-6.4zm18.4 21.8v18l3.9-4.5v-8zm-6.2 5v6.4l4.6 6.3v-17.9zm-6-6.7v18l4.5-5.2v-6.4zm-6.2 5v6.3l4.5 6.4V406zm-6 11.2 4.4-5v-6q-2.2-2.7-4.5-7zM569 432l-4.7-6.7v148.3l-.6 12.1 8.6 13 1.5 2.4V426.5zm7.5 163.9c.3 5 6.3 16.4 9.5 19.7V428.3l-4.7 5.3-4.8-6.7z"/><path fill="#d10429" d="m537.1 574-3.5-3.8-.5 3.6 14.2 28.6c1 2.2 2 7 2 7.1s1.4-.7 1.5-2.6l-.1-3.8s1 1.8 3 2.2c-.2-2.1-2.7-5-3.1-8 2.5 2.5 4.2 1.9 7 3.3 3 1.8 3.9 3.3 4.7 3.5.6 0 1-1 .9-2-.7-1.5-4-5.2-6.6-6.6-.9-.1-5 .4-6.4-1.5l-11-25-1.1-.7c0 .1-.2 4-1 5.6"/><path fill="#d10429" d="M559.4 603.4a1 1 0 0 0 0 1l1.6 2.1q.4.4.7 0a1 1 0 0 0 0-1l-1.6-2-.3-.3q-.3 0-.4.2m-2.4 2q-.6 1.2 0 2.3l3.9 5.1q.9 1 1.8 0 .6-1.2-.1-2.4l-3.8-5q-.3-.5-.7-.6-.6 0-1 .5m-2.2 3.2q-.7 1.3 0 2.4l3.8 5.1q.9 1 1.8 0 .6-1.2 0-2.4l-3.9-5-.6-.6q-.6 0-1.1.5m-1.4 2.6q-.6-.1-1 .5-.7 1.2 0 2.4l3.8 5q1 1 1.7 0 .8-1.2 0-2.3l-3.8-5.1q-.3-.4-.7-.5"/><path fill="#b07f55" d="M492.3 317.1c6.3 1.2 10.6 5.5 16.6 10l4.3 3q-1.2 1.3-1.6 2.5c.1 0 2.4 1.1 3.8 4.3-.2 0-2.2 0-3 2 1.6.6 2.8 2.8 3 5.3l-3.7-2s.8 5.6.9 11.6c-.2 3-3 6.1-3.2 11.3 0 16.2 3 22.9 5.1 28.3.8 2 1.6 4.4 3 6.3-6.3-5.6-10.6-11.5-10.8-16.8v-19.6l-1.6-.3v19.6c0 3.8.7 5.6.7 5.6 1 4.3 3 11 4.1 13.8-5.7-5.3-8.3-10.5-8.5-12.6v-27l-1.6-.2v27.3l.3 2c-.7 1.3-1.6 2.7-2.2 3.2-.5-.7-1.4-2.4-2.1-4l.3-1.8v-27.3l-1.6-.2v26.9c-.2 2.1-2.8 6.5-8.5 10a90 90 0 0 0 4.1-12.5s.6-1.6.7-5.4v-19.6l-1.6-.3v19.6c-.3 5.4-4.4 10-10.7 13.6 1.3-1.5 2-3.6 2.9-5.5 2.3-5.1 5.1-11.6 5.2-31.5a50 50 0 0 0-2.2-16.4c-.5-1.4-1-4 2.3-3.9 1.7.6 5.4 4.8 5.5 5 0-.2-.2-3.1-2.1-5.5q-.6-.8-.9-2.3c.1-.8.8-2 1.5-2.5 0-.1-6-3.1-6.6-7.4q-.2-1.5 1.9-1.3c1.8.6 5.1 3.7 7.9 4.4 2 .3 2.9-.2 5 .1 2.4.8 8.1 7.5 9.8 8-2-2.4-5.4-8.9-10.4-10.1-1.8-.2-3.4 0-5-.3-2-.5-4.2-3-6.5-3.6q-2.6-.2-3.4-1c-.4-1 0-1.4.3-2.1q1.6-1.8 5.1-1.2l1.9.2z"/><path fill="#cc092f" d="M472 324.5c0-.3 1.2-3 4.6-2.7l6 .7c.8 2.3 3.2 6.4 3.5 10.2-.2-.3-2.8-7-10.8-8.7-2-.2-3.3.4-3.3.5"/><path fill="#d10429" d="M484.9 333.8s-1.6 2.2-2 3.5c-1.7-1.3-4.6-5.7-4.7-5.7.2 0 2.4 2 6.7 2.2"/><path d="M482.2 327c-.1 0-1.8-1.1-2-2 .2-1.2 1-1 1.6 0 .3.6.4 2 .4 2m11.2 1.8q-.3 2.6-2.8 2.6-2.5-.7-2.8-3.5.2-2.6 2.8-2.6 2.5.7 2.8 3.5"/><path fill="#f5d402" d="M492.5 328.7q-.1 2.3-1.9 2.3-1.7-.5-2-3 .3-2.3 2-2.3 1.8.5 2 3"/><path d="M491.4 328.5q0 1-.8 1-.8-.2-.8-1.3 0-1 .8-1 .8.3.8 1.3m-45.3 269.3 8.8 7.9-2.1 13.1-8.9-7.9z"/><path d="m404.8 462.7-3.2 1.6 36 112.7 4 .6zm42.5 133.1-2.6 3.3 1.7 5.1 3.1-1.5z"/><path d="M416 549.2a41 41 0 0 0 5.4 10.5c-1.4-.4-5 .7-5.1.8.2.2 6.8 8.8 12.6 10.6 5.1.8 7.2-1.6 7.3-1.8l-1-7.3c0-.1-3-5.1-7.8-8.3-5-3-11.3-4.5-11.4-4.5m23-12.1c-.2.1-4 4.2-5.4 9.8-1 5.6.7 12.1.7 12.2l3.6 9.5c.1 0 4.5-2.8 7-7.8 1.8-5.2 1.2-12.2 1.2-12.3 0 0-3.7 1.5-4.3 2.2a33 33 0 0 0-2.9-13.6zm-13.6-4.2c-.1 0-4.6 1.3-9.4.5a19 19 0 0 1-8-6.5c.2-.2 3.4-2.6 5.4-2.2a38 38 0 0 1-4.8-8.4c.2-.1 3.8-1 7.7 1.2 3.5 2.6 6.7 8 6.8 8.2zm1.7-31.6c0 .2 2 7 1.8 9.3a19 19 0 0 1 3.5-3.5c0 .2 1.5 11 .1 17.7-2 6.5-6.3 8.3-6.5 8.4l-5.5-15.2c0-.2-.6-5.3 1-9.5 1.8-4 5.5-7.1 5.6-7.2m-31-22c.1 0 4.9 0 9.8 3.2 3.9 3 5.1 6.8 5.2 7l2 7.3c-.4.1-5.4 1.9-10.1-.6a31 31 0 0 1-7.7-10.5c.1 0 2.9-1 4.3-.4a23 23 0 0 1-3.5-6m16.2-11s2 4.1 2.3 8.7c.8-2.3 3.3-4.5 3.4-4.6 0 .1 2.7 10 2.3 16.7-1 6.8-4.7 10-4.8 10.2l-5.2-14.2s-1.5-5.7-1.2-10c.7-4.3 3-6.8 3.2-6.9m-17.9-28.1c0 .1-.7 7 .7 11.6 1.4 4 2.3 5 2.3 5a16 16 0 0 0-6.8-3.5c0 .1 1.6 7.9 5 12.2 3.8 4 8.5 4 8.8 4 0-.2 3.3-6 3.3-13-.5-7-4.2-14.7-4.3-14.8 0 0-1.4 4.2-1.7 7.6-1.4-3.6-7.1-9-7.3-9.1M436.5 569l.1 2.7c3.3.4 3.7.1 4.6 1.6.6 1 1.7 1.9 3.1 1.4q2-1.5 1.3-4.6c-.7-2-1.7-2.4-3-2.3q-1 .5-1.8 1.2c-1.3.5-4.2 0-4.3 0"/><path d="m436.2 567 1.6 1.7c-1.7 3.5-2.1 3.8-1.8 5.5.3 1.3 0 3-1.1 4q-2.1 1.2-3.6-1.5-1-2.7.4-4.4.8-.7 1.8-1c1-1 2.7-4.3 2.7-4.3m-10.8-33 .1 2.7c3.3.5 3.6.2 4.5 1.6.7 1 1.7 1.9 3.2 1.4 1.3-.8 1.8-2.6 1.3-4.6q-1-2.7-3-2.3-1 .5-1.8 1.2c-1.3.5-4.2 0-4.3 0"/><path d="m426 535 1.4 2.1c-2.2 3.1-2.6 3.2-2.4 5 0 1.3-.3 2.9-1.6 3.7q-2.3.7-3.5-2.3-.6-2.9 1-4.2c.6-.5 1.2-.4 1.9-.7 1.2-.6 3.1-3.4 3.2-3.5m-11.5-33.8.2 2.7c3.2.4 3.6.1 4.5 1.6.7 1 1.7 1.8 3.2 1.3q2-1.3 1.3-4.6c-.8-1.9-1.8-2.3-3-2.2q-1 .3-1.8 1.1c-1.3.6-4.2.1-4.4.1"/><path d="m415.4 500.9 1.4 2c-2.1 3.1-2.6 3.2-2.4 5 0 1.3-.3 2.9-1.6 3.7q-2.2.7-3.5-2.3-.6-2.8 1-4.2c.6-.5 1.3-.4 2-.6 1.1-.7 3-3.5 3.1-3.6M403 466.8l.2 2.7c3.2.4 3.6 0 4.5 1.5.6 1 1.7 1.9 3.1 1.4q2.1-1.5 1.3-4.6c-.7-2-1.7-2.4-3-2.3q-1 .5-1.8 1.2c-1.3.5-4.2.1-4.3.1"/><path d="m404 466.4 1.3 2c-2.1 3.1-2.6 3.2-2.4 5 0 1.3-.3 2.9-1.6 3.7q-2.3.7-3.5-2.2-.6-2.9 1-4.2.8-.6 2-.7a17 17 0 0 0 3.1-3.6"/><path fill="#f5d402" d="m447.4 601.8 5.5 4.9-1.4 8.1-5.5-4.9zm-24-75.9c-1.3 0-2.8-6.1-4.2-10.5-1.4-4.3-3.5-10-3.2-10.7 1 0 1.8 2.7 3.2 7 1.5 4.5 4.8 13.3 4.1 14.2m-11.8-37.6c-1.2 0-2.3-3.8-3.7-8.1s-2.3-6.6-1.8-7.3c1 0 2 2.9 3.1 6.5 1.2 3.5 3.1 8 2.4 8.9m27.3 85.5c-.9-.2-4.7-11.3-8-21.6a81 81 0 0 1-4.8-18.4c.9 0 3.3 8.6 6.6 19s6.6 20.5 6.2 21"/><path fill="#097754" d="M396 444.7c0 .1 0 5.3 1.2 8.6 1.5 3.2 4 4.7 4.2 4.8 0 0 0-5.2-1.2-8.6-1.5-3.2-4-4.7-4.2-4.8m-2.7 11.9c.1 0 3.2.7 5.4 3 1.8 2.5 2.7 6.6 2.7 6.7-.1 0-2 0-4.2-2.3-1.9-2.5-3.9-7.4-4-7.4M404 447s-1 3.3-1 7.2c.3 4 1.8 8.4 1.8 8.4s1.3-4.3 1.3-8.2c-.3-4-1.6-6.3-2-7.4m-5.9 33.8c0 .1 1.8 3.3 4.3 5.5a18 18 0 0 0 6.4 2.7s-2-3.5-4.4-5.8c-2.8-2-6.1-2.3-6.3-2.4m.9 7.6c0 .1 1.3 3.3 3.5 5.2 2.4 1.5 6.7 2.1 6.8 2.2 0-.1-1.8-3.2-4-5a20 20 0 0 0-6.3-2.4m13-16c0 .1-1.2 3-1.3 6.4.3 3.4 1.8 7.3 1.8 7.3s1-4 1-7.5a19 19 0 0 0-1.5-6.1m5 5c0 .1-2.1 4-2.7 8.3-.1 4.5 1.3 9 1.4 9.1 0-.1 2.5-3.4 3.1-7.8.1-4.5-1.7-9.5-1.8-9.6m-6.4 39.8s.3 1.5 1.2 3.4c1 1.8 2.7 3.8 2.7 3.8s1.5-.4 3.6.4c2 1 4.6 3.6 4.7 3.6 0 0-3-6-5.9-8.9-3.2-2.5-6.1-2.4-6.3-2.3m-.3 10c.1-.1 3.5-1.5 6.8-.7 3 1.2 5.7 4.5 5.8 4.6-.2 0-4 1.2-7.2.4-3-1.2-5.3-4.2-5.4-4.3m15.7-21.5c-.1.2-3 4.3-3.6 8.4 0 4.2 2.6 8.2 2.7 8.4 0 0-.1-2.7.3-4.4.6-1.6 1.6-3.3 1.6-3.4 0 0 .4-2 .3-3.7-.3-2.5-1.3-5.2-1.3-5.3m4.7 6.2c-.1.1-2.9 3.8-4 8.3-.5 4.6.7 9.4.7 9.6.1-.1 2.6-2.6 3.6-7.1.7-4.6-.3-10.7-.3-10.8m7.7 28.7s1.3 4.2 1.8 7.6c.3 3.4 0 4.5 0 4.5l-2 2.8c-.8 1.5-1 4-1 4-.1-.1-2.7-6.2-2.5-10.6.7-4.3 3.6-8.1 3.7-8.3m6.2 10.2a23 23 0 0 0-5.2 6 14 14 0 0 0-.7 6.9c.1 0 2.4 0 4-3.2 1.4-3.3 1.9-9.6 1.9-9.7m-24.5 10.7s5.2.7 8.6 2c3.3 1.8 4.4 4.1 4.5 4.2-.2.1-3.5 1.6-7 .3-3.2-1.9-6-6.4-6.1-6.5m-1-8.9c.1.2 2.6 5.2 5.6 7.8a15 15 0 0 0 9.3 2.6s-2.7-4.6-6.4-7.4c-4-2.4-8.3-3-8.4-3"/><path d="m603.2 479.1.7 2.1s-1 .4-1.7 1.7c-.4 1.4.3 3.3.4 3.4-.3 0-5.7-1.2-6.9-.8-.5.9.3 6.2-.2 11-1 6.5-2.4 5.8-2.7 7 0 1.3.7 3.2.7 3.3s-1 .3-1.3.9c-.3 1 .1 2.9-.2 4l-8.9 22.7c-.4.8-1.2 1.1-1.8 2.3a8 8 0 0 0 0 2.9c-.2 0-1.5-.1-2.3 1.3-.5 1.7-.2 3.8-.2 3.9-.1 0-1 0-1.6 1.3-.4 1.4.3 2.3.1 3l-9.7 24.7c-1.2 2.2-3.8 2.5-5.8 7-1.5 4.6.6 8 .7 8.2-.2 0-2.4 0-3.3 1.7-.6 2-.1 4.5 1.7 6.3q3.2 2.1 4.7-1c.5-1.8-.7-4.8-.7-5 .3.1 3.2 1.1 5.3-3.2 1.6-4.7.5-8.5 1.2-10.8l9.7-24.8c.4-.6 1.2 0 1.8-1.3.5-1.4 0-2.6 0-2.7 0 0 1.4-.7 2.2-2.2.4-1.6-.3-3.5-.3-3.6 0 0 1-.4 1.6-1.5.4-1.2.2-2.5.5-3.4l8.9-22.6c.5-1 1.8-1.4 2.3-2.3a6 6 0 0 0-.2-2.2c.1 0 1.6 0 2.4-.7.5-1-.6-2.6 2.7-7 2.7-3 6-4.7 6.4-6-.3-1.5-3.9-8-4-8 .2 0 1.5 0 2.2-1.4.4-1.3.2-2.9.2-3l1.6-.1v-10.5zm-53.7 139q-.3 1 0 2.3s-1.8-1-2.6-.8c-.3.7 0 12.8 0 13 .3-.1 7.3-5.5 7.7-6.5-.3-1-1.7-2.9-1.8-3q1 0 1.4-1c.2-.9.3-2.5-1.5-4.2a3 3 0 0 0-1.7-.8q-1.2.1-1.5 1"/><path fill="#f5d402" d="m604.6 479.7 3.7 3v-6zm-1.4 3.5q-.6 2.1 1 3.8 1.8 1.1 2.7-.7.6-2-1-3.8-.6-.4-1.2-.4-1 0-1.5 1m-6.4 4c-.2.3.1 4.7 0 8.7-.1 3.6-.9 4.5-1.4 5.7-.5 1.1-2 2.2-2 2.3l1.3 1.9 2.2-5c1.4-4 1.7-11.4 2-12l3.6-.9z"/><path fill="#f5d402" d="M597.2 508s.4-1.5 1.9-5.4c2-4.5 5.4-7.7 5.7-8.5 0-1-1.3-5.3-1.3-5.3-.1 0-3.2.5-3.9 1-.2.6-.4 6.8-2 11.5l-2.3 5.2z"/><path fill="#f5d402" d="M605.9 494.6c-.3.6-4.3 4.6-6 8.5l-2 5.3 1.9.6s0-2.5.3-3.7c.4-1.2.6-2.6 2.7-4.7 2.3-2 5-3.8 5.2-4.4l-3.4-6.7zm-13.2 25.6c2.8-6.8 3.5-7.2 3.9-8q.6-1.6-1-3.3-.6-.6-1.1-.5-.9 0-1.2 1c-.3.9-.2 2-2.9 9l-6.1 15.6s-.6 1.3.5 2.5c1.3.8 1.7-.5 1.8-.6zM582 537.6q-.4 1.6 1.3 3.1 1.7 1.4 2.5 0 .3-1.4-1.3-3-.8-.7-1.5-.7t-1 .6m-2.3 4.4q-.4 2 1.5 3.9 2.1 1.5 3.1-.1.4-2-1.5-4l-1.4-.7q-1.1-.1-1.7.8m-1.4 5q-.4 1.6 1.3 3.2 1.7 1.3 2.5 0 .3-1.5-1.3-3.1-.8-.6-1.5-.7t-1 .6m-1 4.9-9.2 23.4c-1 1.9-3.7 3-5.2 6-1.1 3.5-.4 6.3 1.3 8 1.9 1.3 3.8.9 5.3-2.4 1-3.3.4-7.6 1-9.6l9.2-23.5s.5-1.4-.6-2.5q-.4-.3-.8-.3c-.6.1-1 .8-1 .9m-17.2 40q-.6 2.2 1.4 4.3 2 1.5 3.1-.5.7-2.2-1.3-4.2-.8-.6-1.4-.7-1.2 0-1.8 1.1m-9 26.6q-.6 0-.9.4-.2 1.3 1.2 2.7 1.5 1 2.2.2.2-1.3-1.2-2.6-.8-.6-1.3-.7m-3.2 3v9l5.4-4.5s-.8-1.7-2.4-3.2a6 6 0 0 0-3-1.3m3.4-200.4c.4-5 4.5-9 4.8-9.1l-116-17.6c0 .1 4.3 5.4 4.7 10.5v118c0 3 .7 5.1 1.8 7.3s3.5 5.5 6 8.2c7.6 7.8 20.3 17 30 24.4a45 45 0 0 1 15.4 16.4c4.3-6.4 7.5-7.9 15.5-11.6 9.7-4.5 22.4-9.8 30-15.3a26 26 0 0 0 6-6.4 13 13 0 0 0 1.8-6.8z"/><path fill="#d10429" d="M447.4 471.8v-66.7a14 14 0 0 0-1.4-6.3l104 15.8c-.1 0-1.3 2-1.4 5.9v66.7L498 500.4z"/><path fill="#0b45bb" d="m548.5 487.2-31.3-5.5-38.5-6-31.3-3.9V523c.1 2.8 2 8.7 13.3 18.3 18.7 15.5 32.8 23.7 37.2 31.6 4.5-6.5 18.5-10.3 37.3-20.2 11.3-6.2 13.1-11.5 13.2-14.3z"/><path d="M516.4 479.7c.4 0 17.6-3.4 18-29.8-.3-20.6-17.6-33.6-18.5-38.6-1.5 8.3 5.8 21.2 6 35.1-.4 18-9.4 17.4-9.7 17.4-2.3-.2-3.2 1.5-4 1.5-1.9-.8-3-3.7-4.8-4.3-1.8.1-3.1 3-5.5 3-2.2-.8-3.8-4-5.4-4.7-1.9 0-2.8 2.6-4.7 2.9-.9-.3-1.9-2.3-4.1-2.9-.3 0-9.3-2.3-9.7-20.3.2-14 7.5-24.4 6-33.2-.9 4.8-18.2 12.3-18.6 32.9.5 26.4 17.8 35.1 18 35.3l-5 12c.2 0 7 1.8 11.3 6.9 4.7 6.5 4.4 17.8 4.3 26.6 0 6.9-.7 13.5-3.1 16.3-3.6 3.4-5.5 3.4-5.7 8 .2 3.9 2 4.9 5.7 8 4.4 4.2 4.4 8 11 9.4 6.8.7 6.6-3.1 11.1-6 3.7-2 5.5-2.4 5.7-6.2-.2-4.7-2.1-5.3-5.7-9.8-2.4-3.5-3.1-10.4-3.1-17.3 0-8.8-.3-20.1 4.3-25.2 4.3-3.8 11-3.4 11.4-3.4z"/><path d="m498 410.4-3.2 11.7-8.5-6.9 4 12.3-8.9 3 9 5.6-4.1 11 8.5-4.2 3.1 12.6 3.2-11.6 8.5 6.8-4-12.2 8.9-3-9-5.7 4.1-11-8.5 4.2zm-19.3 65.3c-.2 0-10.8-5.4-15.3-13.5a35 35 0 0 1-16 9.6s9 7 16 15.1c3.6-5.6 15-11 15.3-11.2m38.5 6a70 70 0 0 1 15.3 15.9c7-6 16-10.4 16-10.4-.1 0-8.5-4.4-16-14.4-4.6 6.8-15 8.8-15.3 8.9m-34 11-4.3 5.2 4.4 6.6 4.3-5.3zm29.4 4.5-4.3 5.2 4.3 6.6 4.4-5.2zM482.2 527c0 7.5-.5 11.3-.5 11.3.3 0 5.6-1.5 7.3-9.8.5-4.2 1-18-1.7-21.3l-8-3.4c.8 3 2.8 12.3 2.9 23.2m26.4-16.5c-2.7 2.5-2.3 16.3-1.7 20.8 1.6 8.7 7.1 12 7.3 12q-.2-.1-.5-11.5a88 88 0 0 1 3-22.2zm-45.2-6.6c-2.9.9-4.3 3.9-3.7 8q0 .8.4 1.7l-1.2-.6h-.6q-4.2 0-5 5.7c.1 4.1 2 7.2 4.9 8.2l1.2.1-.6 1.4c-1 3.7.2 7.4 2.8 9.6q4.6 2.5 6.7-2.9.3-.7.3-1.6l1 1.4q3.8 4.2 7.2.2c1.7-3 1.4-6.8-.7-10l-1-1q.5-.1 1-.6c2.5-2 3.1-5.6 1.7-9.4q-1.7-3.6-4.7-4-1.2 0-2.4.7l-1 1V510q-1.4-5.4-5.3-6.1zm54.5 28.8c.8 7.5 4.8 13.6 10.1 16.4q-1.3-3.2-1.7-6.8c-.4-8.8 4-14.5 10.8-13.8q1.5.3 3 1c-2.6-5.7-6.6-9.6-11.4-10.5-6.8-.7-11.2 5-10.8 13.7"/><path fill="#ffd200" d="M471.4 438.6c.1 13.8 5.1 22 12.3 23.4 1.3.4 2.9 2.7 4 3.1 2.1 0 3.5-2.3 4.8-2.4 1.5.6 2.7 3.6 5.4 4.3 2.8.1 4-2.5 5.5-2.6 1.2.5 2.7 3.3 4.7 3.9 1.3 0 2.8-1.8 4.1-1.9 7.2.9 12.2-5.9 12.3-19.6-.2-11-6.4-25.5-6-27.6.2.2 12.8 14.8 13.2 30.3-.4 24.6-17.9 27.8-18.2 27.9l4 13.3c-.1 0-5.3.4-9 3.5-4.5 4.7-4.7 17.9-4.7 27.4 0 11 .4 15.5 3.2 19 3.2 3.6 5 4.6 5.3 7.8-.2 2.9-2.2 3.5-5.4 5-3.5 1.8-3.9 4.8-9 4.4-5-1.2-5.4-4.3-8.9-7.2-3.2-2.4-5.2-3.8-5.4-6.6.2-3.2 2.1-3.5 5.3-6.2 2.9-2.7 3.2-7 3.2-18 0-9.5-.2-22.8-4.7-28.8a26 26 0 0 0-9-6.4l4-12c-.3-.2-17.8-8.8-18.2-33.5.4-15.4 13-26 13.2-26.2.4 2.3-5.8 14.6-6 25.7M491 543.3q-5.6-.8-5.8 1.6.2 2.4 5.8 3.4c1 0 2-.4 2-2.2s-1-2.6-2-2.8m13.9 2.1c-1 0-2 .4-2 2.2s1 2.6 2 2.8q5.6.8 5.9-1.6-.4-2.3-6-3.4"/><path fill="#ffd200" d="m498 418.6 2 8 5.4-2.7-2.6 7.1 5.7 3.6-5.7 1.9 2.6 7.8-5.4-4.3-2 7.4-2-8-5.5 2.6 2.6-7-5.7-3.6 5.7-2-2.6-7.8 5.4 4.4zm-25.2 56.7-9.4 8-.1.2-.2-.2-10.4-10.5c.2 0 6.4-2.2 10.5-7 4 6.4 9.4 9.4 9.5 9.5m70.5 11.4c-.1 0-6.8 3.7-10.4 7.3l-.2.2-.1-.2a60 60 0 0 0-9.4-11c.3 0 5.6-1.3 9.6-6.4a43 43 0 0 0 10.5 10m-60 8.9 2.3 3.4-2.2 2.8-2.3-3.5zm29.4 4.5 2.3 3.5-2.3 2.7-2.2-3.4zm-26.2 9.5c1.4 3.3 1.3 8 1.3 14.7-.4 6.9-3.5 8.7-3.8 8.8 0-16.3-1.2-20.4-1.8-25.4zm27.4 3c-.6 4.8-1.8 8.6-1.8 24.8-.2-.1-3.4-3-3.8-10 0-6.7-.1-11.4 1.4-14.2zm-45-.8a8 8 0 0 1-.2 3.2q-1-.6-2-.8-2.7-.3-4.3 2a7 7 0 0 1-1.3-3q-.5-4.9 3-6.1h.7q3 .6 4 4.7m6 11.1-1.2.5h-1q0-1.5-.3-2.8-1-3.6-3.3-5.3l.6-1.2q.4-.6 1-1 3.1-1.7 5.5 2.5l.3 1q.9 4.2-1.6 6.3m-5.2 10.1a7 7 0 0 1-1.3-2.9q1-.2 1.8-1a8 8 0 0 0 2.4-5.2 4 4 0 0 1 2.2 1.5 7 7 0 0 1 .5 7.8l-.6.7q-2.6 2-5-.9m-9.3-4.8q.3-.8.8-1.5l.7-.7q.6 1.2 1.5 2.1 2.2 2.4 4.6 2a8 8 0 0 1-.1 3.3q-1.8 4.1-5.2 2.2l-.8-.6a8 8 0 0 1-1.5-6.8m-.4-13.1q.7 0 1.3.6l.9.9q-.6 1-1 2.3-.6 3.3.5 6.5l-1 .5h-1.3q-3.5-1.5-3.7-6.4l.2-1.1q1-3.7 4.1-3.3m10.7 7.7q-.4 4.7-4 4.7-3.4-1-3.8-5.9.4-4.7 3.9-4.7 3.4 1 3.9 5.9m63.9 2.7c-6.5 1-10.8 7.5-10.4 16.9q-3.1-4.1-3.8-9.5c-.3-7 2.9-11 8.5-10.6q3 .6 5.7 3.2"/><path fill="#1a1a1a" d="M8 195.3c170.8-85.3 341-54.5 513.3-28C676.5 191 833.4 211.8 992 132.7v672c-170.8 85.3-341 54.5-513.3 28C323.5 809 166.6 788.1 8 867.2zm31.3 19.3v604.5c306.5-128.2 611.1 96 921.5-33.7V180.9C654.2 309 349.5 84.9 39.3 214.6" opacity=".2"/></svg>