<svg xmlns="http://www.w3.org/2000/svg" viewBox="0 0 1000 1000"><path fill="#cc092f" d="M8 195c171-85 341-54 513-28 155 24 312 45 471-34v672c-171 85-341 54-513 28-155-24-312-45-471 34z"/><path fill="#ffd200" d="M8 195c217-108 432-28 656-10v672C449 840 230 757 8 867z"/><path fill="#0046ae" d="M8 195c108-54 216-62 328-52v672c-108-9-217-3-328 52z"/><path d="m471 296-4 1q3 2 3 5v6l-4-1q-3-1-4-4l-1 6 1 6q1-3 4-3l4 1v26q0 4-3 4 4 3 4 7 1-4 4-5l-2-5v-27l4 1q3 0 4 4l1-6-1-6q-1 3-4 3l-4-1v-5q0-3 3-4z"/><path fill="#f5d402" d="M471 298h-2l2 4v6h-1v1l-4-1-4-2v6l4-1 5 1h-1l1 1v26l-2 4 2 2v3l1-2 2-2-2-4v-28h1l4 1q3 0 3 2v-6l-3 1-4-1h-1v-6l2-4z"/><path d="m522 402-6-9q-5-13-5-28l4-11-1-8 3 4-1-10 3-1-5-7 1-1 4-1-4-2-10-7-14-7-7 1-2 4h-4c-7 0-7 9-7 9q0-2 4-3 9 3 9 7v1l-11-5v2c6 4 12 8 12 26q1 19-5 31l-6 7 24 10zm-24-11-24 3c-1 0-7-3-10-7-7-6-10-11-18-12v-8l2-12c-4-2-13-18-21-26-12 9-21 25-21 34v234l-2 8c5-2 12-16 14-22v3c7-3 12-13 14-19v3c6-6 14-47 14-47l12 19s-4 12-6 14h3l-10 18q-2 4-6 1-5 1-8 6l-2 7 2 6 1-1 5 10q2 2 4 1l7-8 2-6 13-23 1 3c2-5 11-15 11-15l11 8c-1 1-19 56-36 64l16 13 4 3 4-5 10-20q0 6-7 22l-3 7 4 3q15 14 20 27l2-7-2-8V401l1-4z"/><path fill="#b07f55" d="M498 662q-6-8-17-18c9-21 13-55 11-62l-8 27q-6 15-14 26l-12-8c15-13 30-62 30-62l-15-12-8 9-1-6-4 2v-5h-5c3-2 5-9 5-10l-15-29s-5 33-11 40V406l5 6 7-8v-7l-6 7v-21l2-4c1 3 4 11 8 16q3-6 5-6l4 7 5-5-5 2c-2-1-2-8-2-9l-7 6-4-10 4 1 7 3 7 7 10 4-6 3c1 0 8 1 13-2l5-4-3 8c7 0 11-5 12-7l3 8h3v254zm-56-307v19l-8-12v-2l2-4-2-1-1 4v1l-5 7-5-11v-2l2-5-2-1-2 5v2l-5 7-3-8q6-10 14-17s11 15 15 18m-28 9v12l-4 4v-17l1-5zm12 6v8l-5 5v-23zm-6 12-5-6v-8l5-6zm20-5q-1 4-6 8v-20zm-8-11v18l-4-6v-7zm-18 17v18l-4-6v-8zm6 6v7l-5 5v-18zm6-4v17l-5-6v-6zm6 6v7l-4 5v-18zm6 13-4-6v-6l4-6zm-11 7 4-6v148l1 13-10 12V404zm-8 161c0 5-6 15-9 17V402l4 7 5-6z"/><path fill="#d10429" d="m459 562 3-3 1 4-14 24-2 7q-2 0-2-3v-4l-3 1 3-7q-3 2-7 1l-4 3-1-3q1-3 6-4 3 2 7 0l11-22h1zm-23 23-1 1h-1v-1zm3 2v3l-4 4-2-1v-2l4-4zm2 4v3l-4 4-2-1v-2l4-4 1-1zm1 3 1 1v2l-3 4h-2v-3z"/><path d="m498 391 24 11 10-4c7-4 10-8 17-8v-8l-1-12c3-1 13-14 21-20 12 13 21 32 21 40v234l2 9c-5-4-13-20-15-26v3c-6-5-11-17-13-23v3c-6-8-14-51-14-51l-13 15 7 16h-3l9 20q2 5 6 3 6 3 9 9l2 7-2 5-1-1-5 8h-4l-7-9-2-7-13-27-1 2c-2-6-11-18-12-18l-10 5s19 62 36 74l-16 8-4 3-4-7-10-23q-1 6 7 25l3 7-4 3q-14 9-20 20l-2-8 2-7V401l-1-4z"/><path fill="#b07f55" d="M498 662q5-6 17-13c-9-24-13-58-11-65l8 29q6 17 14 30l11-4c-14-18-29-71-29-71l15-8 8 13 1-6 4 2v-5l4 2c-2-2-4-11-4-11l14-25s6 35 12 43V425l-5 5-7-10v-7l6 9v-21l-2-5-8 14q-3-7-5-8s-2 5-4 6l-6-7 6 4c2-1 2-8 2-8s6 5 7 8l4-9-5-1-6 2-8 4-9 1 5 5s-7-1-12-6q-3-2-5-6 0 5 3 10-11-6-12-11l-3 7-3-1v254zm56-290v18q4-3 7-9v-2l-1-4 2-1 1 5v1l5 8 5-9v-3l-2-5h2l1 5v2l6 9 3-8-14-21zm28 17v12l4 5v-17l-1-6zm-12 3v7l4 7v-23zm6 14 5-5v-9l-5-7zm-21-12c2 2 4 8 7 10v-19c-1 1-4 7-7 9m9-8v18l4-5v-6zm18 22v18l4-5v-8zm-6 5v6l5 7v-18zm-6-7v18l4-5v-6zm-6 5v6l4 7v-18zm-6 11 4-5v-6l-4-7zm11 10-5-7v161l8 13 2 2V427zm8 164c0 5 6 16 9 20V428l-5 6-4-7z"/><path fill="#d10429" d="m537 574-3-4-1 4 14 28 2 8 2-3v-4l3 2-3-8q3 3 7 4l4 3 1-2-6-6-7-2-11-25-1-1zm22 29v1l2 3h1v-1l-2-3zm-2 2v3l4 5h2v-3l-4-5zm-2 4v2l4 5h1v-2l-3-5zm-1 2-2 1 1 2 3 5h2v-2z"/><path fill="#b07f55" d="M492 317q9 3 17 10l4 3-1 3 3 4q-1-1-3 2 3 1 3 5l-3-2 1 12-4 11q1 22 6 28l2 7q-9-9-10-17v-20h-2v20l1 5 4 14q-8-9-9-13v-27h-1v29l-2 4-2-4v-29l-2-1v27q1 4-8 10l4-12 1-6v-19h-2v19q-1 8-10 14l2-6c3-5 6-11 6-31q0-11-3-17-1-3 3-4l5 5q1-1-2-5l-1-2 2-3s-6-3-7-7q0-2 2-2l8 5h5l10 8c-2-2-6-9-11-10h-5l-6-4-4-1 1-2q2-3 5-1z"/><path fill="#cc092f" d="m472 324 5-2 6 1 3 10c0-1-3-7-11-9z"/><path fill="#d10429" d="m485 334-2 3-5-5z"/><path d="m482 327-2-2h2zm11 2q0 3-2 2-3 0-3-3t3-3z"/><path fill="#f5d402" d="m493 329-2 2q-2 0-2-3-1-2 2-2z"/><path d="M491 328v1l-1-1zm-45 270 9 8-2 13-9-8zm-41-135-3 1 36 113 4 1zm42 133-2 3 1 5 4-1zm-31-47 5 11h-5c0 1 7 9 13 11q7 0 7-2l-1-7q0-2-8-8zm23-12q-2 1-5 10v12l4 10 7-8c2-5 1-12 1-13l-4 3c0-6-3-14-3-14m-14-4h-9c-4-1-8-6-8-6q1-2 5-2l-4-9q1-1 7 1c4 3 7 9 7 9zm2-32 2 10 3-4s2 11 1 18c-2 6-7 8-7 8l-5-15v-9zm-31-22q1-1 10 3l5 7 2 8q-1 2-10-1c-4-3-8-10-8-10l5-1c-2-1-4-6-4-6m16-11 3 9 3-5c0 1 3 10 2 17q-2 10-5 10l-5-14-1-10zm-18-28 1 12 2 5-6-4s1 8 5 12q6 5 8 4s4-6 4-13q-3-12-5-14l-1 7zm43 129v3l4 1 3 2q3-2 2-5l-3-2-2 1zm-1-2 2 2-2 5-1 4q-2 1-4-1l1-5 2-1zm-11-33 1 3 4 1 3 2q3-2 1-5 0-3-3-2l-1 1zm1 1 1 2-2 5-2 4-3-3q-1-2 1-4h2zm-11-34v3q3 0 4 2l3 1q2-2 2-5l-3-2-2 1zm0 0 2 2q-3 3-3 5l-1 4q-3 0-4-3l1-4 2-1zm-12-34v2l5 2q0 2 3 1 2-1 1-4t-3-2l-2 1zm1-1 1 2-2 5q1 3-2 4-1 1-3-2-1-3 1-4l2-1z"/><path fill="#f5d402" d="m447 602 6 5-1 8-6-5zm-24-76-4-11-3-10q2 0 3 7c2 4 5 13 4 14m-12-38-3-8q-3-6-2-7l3 6q3 7 2 9m28 86-8-22-5-18 7 19z"/><path fill="#097754" d="m396 445 1 8 4 5-1-8zm-3 12q1-1 6 3l2 6-4-2zm11-10-1 7 2 9 1-9zm-6 34 5 5 6 3-5-6zm1 7q0 2 4 6l6 2-4-5zm13-15-1 6 2 7 1-7zm5 5-3 8 2 9 3-8zm-6 39 1 4 3 4h3l5 4-6-9q-5-4-6-3m-1 10h7l6 4-7 1q-5-2-6-5m16-21-3 8 2 9 1-5 1-3v-4zm5 6-4 8q-1 9 1 10l3-7zm8 29 1 7v5l-2 3-1 4-2-11zm6 10-6 6v7q1 1 4-3zm-25 11 9 2 4 4q0 2-7 0zm-1-9 6 8q8 3 9 2l-6-7q-8-4-9-3"/><path d="m603 479 1 2-2 2 1 3h-7v11c-1 6-3 5-3 6l1 4-2 1v4l-9 22-2 3v3l-2 1v4l-2 1v3l-9 25q-3 1-6 7-2 7 1 8l-4 2 2 6q3 3 5-1l-1-5q1 2 5-3 2-8 1-11l10-25 2-1v-3l2-2v-4l1-1 1-3 9-23 2-2v-3h2l3-7 6-6-4-8q2 1 3-2v-3h1v-10zm-53 139v2h-3v13l8-7-2-3 1-1-1-4z"/><path fill="#f5d402" d="m605 480 3 3v-6zm-2 3 1 4q2 2 3-1l-1-3-1-1zm-6 4v9l-2 6-2 2 2 2 2-5 2-12 3-1zm0 21 2-5q4-8 6-9l-1-5-4 1-2 11-3 6zm9-13-6 8-2 5 2 1v-4l3-4 5-5-3-6zm-13 25q3-9 4-8l-1-3-2-1-1 1-3 9-6 16 1 2h2zm-11 18 1 3h3l-2-3-1-1zm-2 4q-1 2 1 4h3q1-3-1-4l-2-1zm-2 5 1 3h3l-1-3-2-1zm-1 5-9 23-5 6q-2 5 1 8 3 2 5-2l1-10 10-23-1-3h-1zm-17 40 1 4h4l-2-5h-1zm-9 26 1 2 3 1-2-3zm-3 3v9l5-4-2-3zm3-200q3-8 5-9l-116-18 5 11v118q-1 4 2 7l5 8c8 8 21 17 30 25 9 6 12 8 16 16q4-7 15-12c10-4 23-9 30-15l6-6q2-3 2-7z"/><path fill="#d10429" d="M447 472v-67l-1-6 104 16-2 5v67l-50 13z"/><path fill="#0b45bb" d="m548 487-31-5-38-6-32-4v51c1 3 2 9 14 18 18 16 32 24 37 32 4-7 18-10 37-20 12-6 13-12 13-15z"/><path d="M516 480c1 0 18-4 18-30 0-21-17-34-18-39-2 9 6 21 6 35-1 18-9 18-10 18l-4 1-5-4-5 3-6-5-4 3-4-3c-1 0-10-2-10-20 0-14 8-24 6-33-1 5-18 12-19 33 1 26 18 35 18 35l-5 12q3 0 12 7c4 6 4 18 4 26q0 12-3 17c-4 3-6 3-6 8q0 5 6 8c4 4 4 8 11 9s7-3 11-6q5-1 6-6c0-5-2-5-6-10q-3-5-3-17c0-9 0-20 4-25q9-5 12-4zm-18-70-3 12-9-7 4 12-9 3 9 6-4 11 9-4 3 13 3-12 9 7-4-13 8-2-8-6 4-11-9 4zm-19 66c-1 0-11-6-16-14-7 8-15 10-16 10 0 0 9 7 16 15 4-6 15-11 16-11m38 6s12 9 16 16l15-11s-8-4-15-14c-5 7-16 9-16 9m-34 11-4 5 4 6 5-5zm30 4-5 5 5 7 4-5zm-31 30v11s5-1 7-9c1-5 1-18-2-22l-8-3q2 5 3 23m27-16c-3 2-3 16-2 20 2 9 7 12 7 12v-11q1-18 3-22zm-46-7q-4 2-3 8v2l-1-1h-1q-3 0-5 6 0 6 5 8h1v2q-1 5 3 9 5 3 6-3l1-1 1 1q4 5 7 0 2-5-1-10l-1-1h1q4-4 2-10-2-4-5-4l-2 1-1 1v-2q-1-5-6-6zm55 29q2 11 10 16l-2-7q0-13 11-13l3 1q-3-9-11-11-11-1-11 14"/><path fill="#ffd200" d="M471 439q2 21 13 23l4 3 4-2 6 4q4-1 5-3 2 3 5 4l4-2q11 2 13-19c-1-11-7-26-6-28 0 0 12 15 13 30-1 25-18 28-19 28l5 14q-3-1-10 3c-4 5-4 18-4 28q-1 15 3 19 5 3 5 7t-5 5c-4 2-4 5-9 5q-6-2-9-7-5-3-5-7t5-6q4-3 3-18c0-10 0-23-5-29-3-4-9-6-9-6l4-12c0-1-17-9-18-34 1-15 13-26 13-26 1 2-5 15-6 26m20 104q-6 0-6 2t6 3q2 1 2-2 0-2-2-3m14 2q-2 0-2 3l2 2q6 1 6-1 0-3-6-4m-7-126 2 8 5-3-2 7 5 4-5 2 2 7-5-4-2 7-2-8-6 3 3-7-6-4 6-2-3-7 6 4zm-25 56-10 8v1-1l-10-10s6-2 10-7c4 6 10 9 10 9m70 12s-7 3-10 7c-4-6-10-11-10-11s6-1 10-6c4 6 10 10 10 10m-60 8 3 4-3 3-2-4zm30 5 2 3-2 3-3-3zm-27 9q3 5 2 15-3 10-4 9c0-16-1-20-2-25zm28 4c-1 4-2 8-2 24l-4-10q0-9 2-14zm-45-1v3l-2-1-5 2-1-3q0-4 3-6h1q3 0 4 5m6 11h-3v-3l-3-5 1-1v-1q5-2 6 3v1q1 3-1 6m-6 10-1-3 2-1 2-5 3 1v8l-1 1q-2 2-5-1m-9-5 1-1 1-1 1 2q2 3 5 2v3q-2 5-6 3v-1q-2-3-2-7m0-13 1 1h1l-1 3 1 6-1 1h-2q-3-1-3-7v-1q0-3 4-3m10 8q0 4-3 4-4 0-4-5t4-5 3 6m64 2q-10 3-10 17-3-4-4-9 0-11 9-11z"/></svg>