<svg xmlns="http://www.w3.org/2000/svg" viewBox="0 0 1000 1000"><path fill="#d3ae3b" d="M8 195c171-85 341-54 513-28 155 24 312 45 471-34v672c-171 85-341 54-513 28-155-24-312-45-471 34z"/><path fill="#c40308" d="M33 217c311-135 620 98 934-39v605c-311 135-620-98-934 39z"/><path fill="#b96b29" d="M607 510c3-1 13-4 20-11q9-11 9-16 2-7-1-4l-11 9-9 4h-2q4-1 13-9 8-12 9-22 0-8-2-5l-9 13-10 8c-2 2-6 4-1 0q9-6 17-26 4-19 3-22c0-1-1-4-2-1l-11 24-5 6q-3 3 0-1l9-21 3-22-2-15q-2-4-2-1l-13 42a136 136 0 0 0 7-38q0-23-3-30l-3-6-2 26-6 23v-1l2-17q2-16-1-31-4-17-6-17c-1 15-1 34-5 49q-2-2-2 1-1 8-8 26c-5 12-6 13-7 13l-1-5q-1-3-2 0l-10 19c-6 8-9 12-9 20q1 10 7 15 4 4 4 9-2 6-7 5l-8-1-3 5-3 3h-1c0-19 5-27 6-27l-15-26-3 1v-1q-3-5-3-11l4 1v-4l-1-11 1-3 3 4 2-4q0-5 3-8l5 3q5 1 9-4l3-4 9 4q8 3 11-5 2-10-1-12l-2-1q1 4-2 8-4 3-7 1-4-3-10-3h-4l7-5q5 0 6 3c1 2 1 5 2 1q2-6-1-11-2-5-7-6l-4 1q0-3-6-8-7-3-14 2l-6-1-6-5 1-5h2l1-2-2-4q-1-1 3-5l3-1h3l1-1 2-2v-4l-1-3 1-3 1-1 1-3-2-4h-1l-1-3-1-3v-2q0-3-2-3l-1-1-4-3-2-1v-3l-2-1h-1l-6-3-2-1-6-4h-2l2-6q0-5-3-7l-1-2v-2l2 1 1-6h-3v-4l-6-1 1 4-3-1v7h3v2l-2 1q-3 2-3 6l1 6h-1l-6 2-2 1-6 1-1-1-2 1v2l-2 1-4 2h-1l-2 2v3l-1 2-1 3h-1l-2 4 1 3v1l2 3-1 3v4l2 2 1 2h3l3 3q4 5 3 6l-2 3 1 2 2 1 1 5-6 3q-5 1-6-1-8-5-14-6c-4 1-6 6-6 6l-4-1q-5-2-7 3-3 5-1 11 0 5 2 0 2-4 6-1l7 6-4-1h-10q-3 1-7-2l-2-9q0-2-2 0-3 2-1 12 3 9 11 8l9-1 3 5q4 6 9 6l5-1q3 4 3 9l2 4 3-2 1 3-1 10v4h4l-3 11-2-1-15 21s5 10 5 29v-1h-1q-2 0-3-3l-3-6-8-2q-5-1-7-6 0-5 4-9 6-3 7-13 0-9-9-22l-10-22q-1-4-2 0l-1 4-7-15q-7-20-8-28 0-4-2-1-5-25-5-51l-6 15a115 115 0 0 0 1 49v1l-6-24-2-27-3 5q-3 6-3 29c1 16 5 34 7 40 3 6 1 2 0 0l-15-44-2 14 3 23q5 15 10 23 2 4-1 1l-5-7-11-27q-2-2-2 2-1 1 3 22 8 22 17 30c5 4 1 2-1 0l-10-11-9-15q-2-3-2 4 1 12 9 24l13 13-2-1-9-6-11-12q-3-2-1 4 0 6 9 19c7 8 17 14 20 15l1 1-7-3c-6-2-15-9-17-12q-4-4-3 2c1 4 4 13 9 18 6 5 15 9 18 9q4 1 1 1l-9-1-11-6v-3l-2-1-2 2-1-1v-5l-2-1-4 3v3l2 4-4 1-1 2 2 6 2 1 2-2 1 5-2 2q-2 2 0 4 3 0 6 8 3 7 4 31c2 15 9 24 10 25v7l3 6 1 1v10l5 14 1 3-2 1-4 5v6l4 6-1 2 2 7 4 2 1 4 3 3 4 1q2-1 2 1l1 9-1 4h3q2-1 3 1l4 3v-4l1-5 4-1 2-1-4-3-4-5-1-2 1-2v-3l2-2 2-3 3-6 4-4 5-6 6-3 1 5q2 3 8-5 8-6 9-5l2 5q2 4 9-10 9-14 14-19l1 1v1l-3 7-5 8-3 12q1 7 2 6l-4 7-1 9-2 3-6 7-8 6q-2 1-1 4l5 5 5 2q2 0 0 2l-2 8q1 5 5 3l6-1-1 1v4l1 6 3-1 5-2 3-1-1 3v7l3 6q2 4 3 0l4-5 1 7c2 8 7 14 7 14s5-5 7-11l1-8 4 6q1 5 3 2l3-6v-7l-1-3 3 3 5 3 3 1 1-5v-5l-1-1 6 3q4 4 5-1l-2-8q-2-3 0-3h5l5-4q1-3-1-4l-8-8-6-9-2-4-1-9-4-8q1 1 2-6l-3-12-5-10-3-8v-1l2-1c2 4 9 13 13 23q9 18 9 13l3-4 9 8q7 9 7 7l1-3 12 7 8 9q6 5 13 3c5-1 18-5 23-8l9-5 1-7-2-4v-2l-1-5v-5q-1-12-9-20l-1-1-1-1v-5h1l2 1q1 1 1-1l2-5-1-2-2-1-1-1 1-2v-2l-5-3-1 1v4h-1l-2-1h-1l-2 6 1 3h3v1l-1 3-2 1-2-1q-2-1-10 4-5 5-5 8l-2 2-3 4q1 3-1 4-3 5-1 12l4 9v2l-3-3-9-10-1-2 2-1q3 0 0-2l-4-4v-3q4-2 2-4l-7-4-3-2 2-3q1-1-1-2l-8-4q-9-8-11-20 2 7 8 11 8 0 5-4l-3-6q-2-2 1 0c1 2 4 9 12 9 9 1 9-1 9-2l-3-4q-1-2 1-1l12 2q5-1 8-7l-6-3-2-2q6 3 13 1 6-1 7-9l-7-3-3-2c1 0 7 4 14 0q9-8 7-11v-2h-10l-6-1s12 1 19-4c6-5 7-14 7-15l-12 3h-9q-2-1 1-1c3 0 12-1 18-5q7-8 9-17 1-5-3-1c-2 2-11 7-17 8l-7 1q-2 0 1-1m-231-13-2 2-2-4 1-1h2zm79 74q-4 6-9 8-5 3-8 2v3l1 3-2 1-8 1q-1 3 2 5 2 2 1 3l-5 3v3l5 2-2 2-9 3-18-3v-6l-4-11-3-7v-3l-1-4-3-6v-5l-3-15-8-20a81 81 0 0 1-4-28l1-2 3 5c7 6 19 8 19 8h-6l-10-4v2q-2 4 7 14c7 5 13 3 14 3l-3 1-7 2q1 8 7 11 8 3 13 1 3 0-2 2l-6 1q3 7 8 10 9 3 12 1 2-1 1 1l-3 4s0 2 9 4c8 2 11-3 12-5q3-2 1 0l-3 5q-3 3 5 5 6-2 8-8v1zm68-239-1-3 5 5 2 7v11l1 1-3 1h-4l-1-3q2 1 3-6zm-17 11v-10l-1-12 6 5q4 8 4 12l-1 6v4l-2 2-4 1-3-3-2-1zm-17-20 6-4-1 13v10l3 4-2 1-3 1-4-2-2-2v-4l-1-7q0-3 4-10m-12 24q-1 1-4-1l-3-2 1-1v-11l2-6 5-4-1 3q-3 4-2 12 1 6 3 7zm45 51-5 3 3 4-5 5-5 3-1 2 2 5h2l-6 8-5 2v6l2 4v3l-4 7-4-8v-3l2-4v-5l-5-5-6-8 2-1 2-4-1-2-5-4-5-7q2 0 3-3 0-2-5-5l-5-6q2 1 6-6l1-5q9 6 20 7 11 2 20-1l1 5q4 9 5 8z"/><path fill="#d4af3a" d="M542 503c0-14 5-22 5-22l-13-23q-19 8-34-5-15 7-34-5l-13 18c0 1 5 10 5 24q-1 22-3 32c-2 6-2 19 0 29 3 9 6 18 17 26q17 12 22 18l6 9 6-7q5-5 22-11c11-5 14-13 17-22 2-9 2-21 0-28z"/><path fill="#b96b29" d="M538 509c-1-14 4-25 4-25l-11-20q-14 8-31-6-17 7-31-3l-11 16s5 12 4 26c-2 13-5 34-4 43q2 15 10 26 8 10 16 15a64 64 0 0 1 16 16l4-4q4-4 12-7 9-3 16-10 8-8 10-23c1-9-2-31-4-44"/><path fill="#1d5e91" d="M537 510c-1-15 3-26 3-26l-10-17q-13 7-30-5-16 6-30-4l-10 14s4 12 3 27l-4 40 1 2 9 2 1-2h2l1-3h2l1-1 3-5 1-5v-4l-1-1q-1 1-1-2v-5l1-1v-2q-3 1-7-6l-1-10-1-1q-2 1-4-5l-1-6h1q1 3 3 3l-1-3-1-5v-3l1-1 2 2q0 1 0 0l1-3h1l1 2v2l1-2q0-2 1-1l1 4-1 4v5l1 6 2 6h2l3-4 4-1 1-1-1-1q-3 0-3-2l-1-3-4-4v-4q0-3 2-1l1 3h1v-4l1-2h5l1-2h9l2 1v2l1 1 2 1 2 2-2 2v2l1 2q2 1 1 4l-3 2v1l2 4 1 1 1 2-2 1h-2q-2 0-1 1l1 3v2l3 1h4l6 1 4 1 1 1h6q3-1 2-3 1-2-4-3l-8-3q-5-1-7-8-1-7 3-7l6-3h7l5 2q2-1 2 1 0 3-5 5l-8-1-5-2q-2 1-1 5c1 3 7 4 10 5 2 1 8 1 10 6q2 8-2 10l-6 2h-2l1 3 1 4 3 1 4 4v16l-2 6 10 2v-2z"/><path fill="#6d8c3e" d="M461 548q3 13 12 22c8 8 12 8 19 16l8 9 8-7c8-5 11-4 19-10q9-7 12-18z"/><path fill="#d4af3a" d="M468 491q0 3 2 2 2 0 2 3l2 8q3 5 4 4l1-5-1-2-2-2-2-9 1-8v-2l-1-1-1 2v-2l-1-1-1 2 1 1-2-1-1 1 1 4 1 4h-4zm-1-3-1-1v-2 3zm2-9v-1l-1-2zm2-2v-2l-1-1zm4 1v-2zq-1 0 0 0 0 2 0 0m6 34q1 2 4-4 1-2 1 2l1 6q1 2 2 0l1-4 1 1 1 4q2 2 2-1l1-5h1l1 2q1 2 1-1l1-4 2 2q3 0 1-2l-2-5-1-4h5l1-1-2-2-2-3h-3v-1h-1l-1 2h-1v-1l1-2 1-3h-3l-1-1h2l1-2 1-1 1 1 1-3 1-3q-1-2-3-1l-1 3h-1v-4l-1-1-4-1-1 2h-4l-1 1v2h1v1l-1 1 1 1 2 1 1 3-2 2h-1l1 1 3 1 2 2v1l-1 1-2 1-4 1-4 5 2-1 4-2v2q1 3 1 1l2-1q2-1 1 1v3q0 2 2-1 2-1 1 2l-3 3-1-2v-3h-4v-2h-1l-3 2q-2 1-1 3zm16-35h1l1-1-2-1h-2l-1 1v1zm4 6 2-1 1-1-2-2-1 1zm-1 1-3 3 1 2v3h1l1-1 2-1 2-1-1-3zm-14 3 1-1-1-1q-4-1-6-6l1 5q3 4 5 3m-9 56 4 1 1-2 1-6 2-8-1-3-1-3-1-1-1 2-1 7q-1 5-3 7l-2 1h-2l-1 2 1 1 1-1h2v1zm-6-1-1 1h3l-1-1zm3 0-1 1 3 1v-1zm25 3-1 2h2zm2 2v-1l-1 1h-1zm12-17v-3l-3-2-4 1-1 5v2l1-1 2 4v3l-3 4-2-1-3 1 1 2 1 1v2l5 1 2-3 2-3 1-3-1-3-1-4zm-9-19-1 2-2-1-2 1v4h-4l-1 3-1 1-1-1-2-3-1 1-2 2-2-4-1-2-3 2-1-1-1 2 1 3 2-1h2l1 4 2 4 1-2 2-4 2 3 2 2 1-4q1-1 1 1v2l8-3h5l4 1 1-1-2-1-5-1h-1l2-1 6 1 1 2v5l1 4 5 4v-1h2l3 2 1 1v6l-2 3h-3l-2 2v3h1v-1l3-1 1 2 3 1 2-5 1-4v-12q1-3-2-3-4-2-4-4l-2-7q-1-4-5-5l-7-2h-6q-3-1-1 1m14 39 3 1-1-1zm4 0h3zm-62-7v3l80 12v-3zm53-44 15 5q4 4 2 8l-7 1 1 2h2q3 1 6-2t0-8l-7-4-8-2q-5-2-5-6 1-4 3-4h5q3 3 7 2 5-1 5-3h-3l-6-2q-4-1-6 1l-6 4q-1 4 2 8"/><path fill="#b96b29" d="M494 479q0 2-2 2l-1-2 1-2zm31 9-5-1 1 1zh3z"/><path fill="#1d5e91" d="M506 535h-1l-2-3 1-6-4 1h-10l-2 1-2 5-1 8-1 4 12 2 1-2 1-1 2-1 1-2 3 1 2-1 1-2v-2zm20 4-1-1-2-1v1h-3l-5-4-1-2-1 1-1 3 1 5-1 5-2 3 6 1 1-1 2-1v-1l2-2 4-1 1-1z"/><path fill="#d4af3a" d="M476 622q2 1 4-2l2-6 1-2-1 6-1 9q1 6 4 5l3-5 1-2 1-5v4l-1 9q0 5 2 8 2 1 4-7l1-6 1 5 1 11 2 1 2-1 1-10 1-5 1 7q2 9 4 8 3-1 2-7l-1-10q-1-5 1 1l2 4 2 4q3 2 4-3l-2-15 1 2 2 6 4 3q2 0 1-8-2-7-7-13l-4-12-8 6-6 8-6-10-8-9q0 3-5 11l-3 4-3 7q-1 8 1 9m-1 17 3-2v10q0 3 2 2l4-3q1-2 1 1v9q0 6 3 1l4-7q1-4 1 0 1 12 7 20c5-2 7-11 7-18q1-4 1 0l4 9q3 6 4-1l-1-9q0-2 2 0 0 2 3 5 2 1 2-2v-10l3 3 3 2s1-7-1-11l-3-6-2-1-2-2v4l3 5q2 3 0 1l-3-4-1 4-2 1-1-1v2l2 6q0 2-1-1l-3-7q-1-3-1-1l-1 7-1 1 1 6q0 2-1 1l-2-6-3-2-1-4-2 5-2 3v8l-1 2-1-2v-9l-2-3-2-5-1 3-3 1-2 6q-1 1-1-1l1-6-1-2v-7q0-2-2 1l-3 6q-1 3-1 0l2-5v-2 1l-3-2-1-4-3 3q-2 1 0-1l3-4v-4l-2 1h-2l-3 5c-2 4-1 11-1 11q1 1 4-1m26 51-2-4-2 3-4 5 1 10 5 7 5-6 2-9z"/><path fill="#b96b29" d="m499 697 1 5 1-5v-5h-2z"/><path fill="#d4af3a" d="M500 376q-9-1-16-6l-4 1q8 6 20 8 12 1 20-2l-4-2q-6 3-16 1m21-4-4-4v-2l5-1 1-1-7-4-16-3-16-2q-8 0-7 2l1 1 5 3v2l-4 3v1h3a73 73 0 0 1 36 6l3 1zm-7 3-14-4-14-1q3 3 14 5zm-15-79h3v-4l3 1v-3h-3v-4l-4-1 1 4-3-1v4h3zm7 7-5-1v-5h-2v5l-4-1v3l11 2z"/><path fill="#1d5e91" d="M500 311q5 0 5-4l-10-2q2 5 5 6m2-13v3l3 1q0-3-3-4m-4-1-3 3 3 1z"/><path fill="#b96b29" d="m503 360-3-2-3 2-2 1 1 2 4 4 5-2v-2z"/><path fill="#d4af3a" d="m496 361 4 3 4-2-4-3zm4-19-1 2v2l1 2 1-1v-3zm1 8-1 1-1-1 1-1zm-3-5 1-3 1-2 1 2 1 3q1 1 3-5 1-6-1-14v-14l-4 1-4-2v14q-2 7-1 14z"/><path fill="#b96b29" d="M503 336q0 3-3 3t-3-4 3-4 3 5m0-9q0 3-3 3-3-1-3-4t3-4q3 1 3 5m0-9q0 3-3 3t-3-4q0-3 3-3 3 1 3 4"/><path fill="#d4af3a" d="m502 335-2 2-2-3 2-2zm-1-9-1 1-2-2 2-1zm0-9-1 2-1-2 1-2z"/><path fill="#b96b29" d="M500 634v-1l1-6-1-1-1 2z"/><path fill="#d4af3a" d="m470 662 5-4 4-5h-1l-1-3v-10l-3 3h-3v-3l-2 5-7 7-7 5v2l6 4q7 2 9-1m16 0-3-4v-8l-1 2-2 1-1 2-3 4-5 4-4 3q-3 2-4 6 0 5 2 5l5-1q6-2 11-6zm9 5-2-5-1-8-2 5q-1 4-3 3l-1 4-6 5q-4 3-6 7-3 4-1 7l3-1 11-4c6-4 8-12 8-13m2 18c2-3 2-10 2-11l-1-1-2-5-2 5-4 6-6 7v11q1 3 3 0l4-4z"/><path fill="#b96b29" d="m478 616 3-6 1-3-3 4zq-1 3 0 0m9 3v-4l-1 4-2 6zm6 9v-2l1-3h-1v4l-1 3zm-20 23-1 2-2 2-3 3-2 2 2-1 2-1 3-3zm7 13 1-2h-1l-3 3-2 2-3 2v1l1-1 2-1 2-1zm8 9q1-2-1-1l-4 4-3 1-1 2h1l2-1h1l2-2zm4 10-5 5-1 3q1 1 2-1l1-1 3-4 3-4v-2z"/><path fill="#c52126" d="m454 395-9-5h-15q-4-3-6-9v9l5 4c5 2 10-1 15-1l7 4 2 1q3-1 1-3"/><path fill="#d4af3a" d="M439 599h-1l-3-2h-2l-4 4h6zm17 1-1-3-1 2-4 5q-2 3-1 0l3-6 2-2-4-2-5-3-4-3-6 2q-3 0-1 2l4 2 5 3q2-1 3 2l-4 8-1 9v4l7-6 8-5 1-2zm19-17-5 5q-2 4-1 0l4-6-7-7-2 3-3 2 2-4 1-3-5-7-4 9c-4 6-11 7-12 7q-2 0 0 2l8 2 5-1q2 0 0 1l-9 1q-4-2-2 1l6 3 4 1h3l2 1-2 7 1 8 1 5q1 2 1 0l2-8 1-4q0-2 1 0l-1 7c-1 2-2 6 0 3l7-11 2-4 4-4 4-5zm-71-191c0 4 3 13 5 18l3 6-3-4-5-11-4-13h-2c-1 1-2 9 0 16l6 14 3 6-3-3-10-19q-2 1-1 7 1 10 5 15l5 8-5-6-6-9q-1-4-3 4 3 10 7 16l5 7-4-3-7-7v6q2 10 7 13l5 6-4-2-6-4-1 1q-1 1 2 9 3 6 8 7l3 2h-6q-4 0-4 2-1 1 3 7l9 5 2 2h-4q-4 0-4 2-1 2 2 6 3 3 9 4l5 1-3 1-5 1q-1 3 2 6 5 4 9 3l5 1-3 2-4 3q-1 1 3 4 5 2 8 1l3-1v2l-4 2q-3 1-3 3-1 3 5 5 6 1 10-2h3l-1 1-5 3-1 3q-1 2 3 5 6 3 11-1l3-3v-11l-4-2-3-5-2-2-3 1-5-5-2-7q0-2-2-1l-6-3-2-7-2-2-3-3q-2-3-2-7l-4-3q-4-5-3-9l2-4-2-2q-3-1-4-8 1-6 2-5l-1-2q-3-2-4-7 0-4 2-5l3-1q-2 0-2-4v-7q3-3 5-2l2 1 1-2-1-5q0-3 4-4 5 0 7 3v-3l-4-9a137 137 0 0 1-10-35l-1-1-3 5zm51 103q-2 0-5-6-3-5-9-5-7-1-8-9-2-7 5-11 6-4 7-11-1-9-10-22c-5-8-9-19-9-19l-1 5v6l-4-4q-4-3-7 0-1 5 2 10l2 5-3-2q-1-3-6-4-3 0-4 4 1 5 5 8l2 3-2-1h-4q-4 0-2 6 4 5 7 6l2 1h-4q-4 1-3 6l6 6 4 1-2 2q-2-1-4 3-1 3 1 6 4 4 6 3 2-2 3 0 1 1-2 3t1 6q4 3 6 2 2-2 3-1l-3 3q-3 5 1 8 5 3 8 1h2l-1 4q-2 4 2 9 6 1 8-2l2-1-1 2q-1 2 2 8l4 2 2-10-1 1q1 0 0 0l-1 1h-1l2-1 1-2v-1l1-1 2-18zm-75-85q7 17 9 18l-1-5v-4l-4-8-4-14 5 13 4 8 1-4 1 1 1 1-1-4-2-3-6-16-8-25-1 14q1 11 6 28m5 30 4 4-1-3v-4l-3-4-6-9q-3-6 2 2l7 10v-1l1-3-3-4-12-21-6-15s-1 12 5 26q9 21 12 22m29 82q4-3 3-5l-4 1q-4 2-8 1h-1 3l8-4-1-1-2-1h-5l-12 1-10-3 1 6q5 8 15 9 8-1 13-4m-13-12 7-1-1-2v-4h-12q-3-2 1-1h8v-2l-4-3-12-2-11-4h-1l1 5q5 7 10 10 6 4 14 4m-2-17v-4l-5-2-7-3-4-3 3 2 10 3 4 1 2-1-2-1q-3 0-3-2l-5-2q-4-1-11-6l-12-9q-1-1-1 1l4 9c3 5 4 7 11 12 8 4 16 5 16 5m-22-27q12 10 16 11v-4q1-2 3-2 1 0 0 0l-3-2-9-4-5-4 5 3 10 4-1-1-2-4-17-10-3-4-5-5q-2-2-1 0l3 9zm-1-18q11 11 13 11 1 1 1-1v-3l-5-4-8-8q-2-3 0-1l6 6 7 6v-2h2l-1-2-5-4-10-11-10-14v6q1 8 10 21m23-63 2 5 2 3v-10l-1-2-1-13 2 13 1-2 2-6v-3l-3-22-1-25q-6 8-7 27l1 19zm-7 22q-1-5 2-6l-3-9-1-13q2 19 3 18l3 6v-7l1-9a159 159 0 0 1-8-44l-1-7s-3 3-4 19a138 138 0 0 0 8 52m34 129-2-2q-2-4-1-6l-2 2-4 2-3 1q-1 1 0 0l3-2 6-5-2-1-4-1-8 4-12 4q0 2 4 6 3 4 13 2zm8 10-1-7-1 2-5 4q-5 3-1 0l6-7h-1q0-2-10 5-10 6-12 5c1 0 4 5 13 6q13 0 12-8m17-2-2 3-5 1-1 2-3 5q-3 2-5 1l3-2 4-4v-2h-6l-2 4-5 7v2l4 2q4 2 8-1l6-6q5-10 4-12m2 15-1 2 2-5-1-7-4 11q-4 5-3 7h6q4-2 4-6l-1-3zm2-180-2 2-2-2q0-2 2-2zm-6-5h4q4 1 9 6 4 3 10 2l3-1c4-3 4-9 3-10q-5 4-10 3v2l2 2-3-3-7-6q-6-3-10-1-3 3-2 5zm47 56-3-4-7-10 1-3 2-3-4-3-7-9 1-2 1-1-4-4-4-6q-5 1-9-1l-7-4v2q-2 3-5 1l-1-6-4-3q-5-3-8-2-4 4-4 9t2 2q-1-1 4-3 4 0 9 7l6 7q2 4-3 5-5 0-7-2 0 2 4 6 4 2 9 0l2 1q4 7 4 14 3-1 3-4 0-2 1-1l2 11-1 8h1l2-2q3 0 2 2l2 12 4 8 1-3 1-11-1-12 7 8q6 3 9 0 1-4-1-4m-24 11-1 5-1 1 2 2 4 2-3-6zm22 2-1-3-8-4 3 7 2 2-4-4-3-7v13l-1 6 10 1 5-2v-2z"/><path fill="#b96b29" d="m485 423-2-3v2l4 6 3 2v-1zm-7 16v-11l-1-2-1 1 2 15 1 1zm-10-45q-2-2-1 0l4 7v4l-2-2-4-3q-2-2-1 1l4 6 4 4 2 2-2-12zm-33 134-3 1h2l2-1 1-2zm11 9-2 2-2 1-1 1h1l4-3zm-43-110 1 1zv-2l-1-2q-2-1-1 1zm-3 9 1 2 1 2-1-3zl-2-1zm1 16 2 1-1-1-4-5 1 3zm2 13h-2l-1-1 1 2zq0 1 0 0m1 14-3-1 2 2 3 1 1-1zm12 16h-2l-3 1-2-1h-1l3 1h4zm4 12h-4l-1 1h6q2-1 1-2zm9 9-3 3-1 1 1-1 3-1 1-2zm-15-107 2 4c2 3 1 0 0-1l-3-7q-1-1-1 1zm-3 14-1-3-3-5-1-1 2 4 2 4zm4 26-2-1-3-1h-1l1 1 3 1zm-4-14 2 2 2 1-1-2-2-1zm10-8-1-2-1-1zl2 2zm-7 35h-1zh3l1-1-1-1zm2 13h2l2-1 1-1h-2l-2 1zm12 10 1-2-1 1-2 1-1 1-1 1h2zm6 11 2-1v-2l-1 1-3 3h-1v1l2-1zm9 11 2-2 1-2-1 1z"/><path fill="#d4af3a" d="m478 363 3-2-4-2-2 2z"/><path fill="#b96b29" d="M492 362q0 3-3 4-3-2-3-5 0-4 3-4t3 5"/><path fill="#d4af3a" d="m491 361-2 2-2-3q0-3 2-2 2 0 2 3m-9-16 2 1-1-3-2-3v-1 3zm2 3 1-1zm-5-2-1 1 2 1 2 1v-1l-1-2zm3 6-5-4-3 4 3 2h3l3-1 1-3q1 1-2 2m-9-4-2-2-1 1 2 2zm-6-6-2-2v4l2 2 2-1zm2 6-1 1-1-1 1-1zm1-10q-2-6 2-13 6-7 7-6l2-2 4-4-5 1q0 3-3 3l-1-1-5 3v2q0 3-2 3l-1-1-1 1-1 5 1 3-2 3v2l1 2q3 3 3 5zm8-23v-2h-1l-1 2zm-9 7 1-3h-2v3zm-3 9-2 2-1-2 1-2zm27-21-4 2q3 0 3 3 0 2-3 2-2 0-2-3v-1l-2 1q-5 4-7 10-3 8-2 15l4 5v-7l1 1 2 2 1 3 1-3-1-6 3-11q3-5 7-6l1-3v-2q0-2-2-2m-4 6 1-2-1-2-1 2zm6 35h3v-3h-2l-2 1zm4 2-2 1-3-2-2-2-1-1-1 3h-3l-2-2 1 2q1 2 3 2l8 1 2-1v-2zm-13-4h2l1-1-2-1-1-1h-1z"/><path fill="#b96b29" d="M483 332q0 3-3 3l-3-4 3-3q3 1 3 4m2-13q-2-2-4 1l1 4q1 2 3 0z"/><path fill="#d4af3a" d="M482 331q0 3-2 2l-2-2 2-2zm2-11h-2l1 3q3-1 1-3m-42 282-5 2-2 1-5 4-7 3-17-3q-6 0-8 3-3 4 0 10 3 4 5 0v-5l2-1 5 1 6 3q2 2 0 1l-4-2-4-2v1l1 3-1 2 1 2 1-2v-3l2 1 1 5v5l1 1v3h1l1-5q0-3 2-1l1 3v2l3-4 4-5 6-6 6-4q2 0 2-4l2-7zm-67-112-1-3-1-1-2 1q-1 1-2-1v-4q0-3-1-1l-2 1-1 1 2 5v2h-3l-1 2 2 3q0 1 0 0l2-1h2l1 7 1 1 2-1v-1l-2-7v-1l3-1zm23 138-1-4-2-4v-3h-2l-1 4q-1 5 3 7t3 0m2-1 1 3 2 2v-4zm4 13 2-2 4-1q2 0 2-4 0-3-2-3h-2l-2 2-2 1-1 1-2-1h-2l-3-1h-1l-1 1 1 4 4 2 3 2zm12 3v-3q0-2-2-2h-2l-2 2-3 1-3 3-2-1h-1v2l3 2h3l1-2 4-1zm0-6h2v-3l-1-3-1 4zm-4-10-1-5-1 3-1 2 2 1zm-8 2 3-1 1-4-2-2h-1l-1 3-1 2zm3-8v-3l-1-1v2l-1 1zm-18-52 1-9q-2-12-6-22l-6-19-2-14 1-5v-2l-2 1-2 5h-6l2 2 3 3a78 78 0 0 1 5 28q1 11 5 21c1 3 4 11 7 11m4 15-1 13 5 11 1 1h1l2-2 1-5-4-13q-2-7-5-5m2-6q0-5-4-5h-2q-3 6 2 9l3-1zm27 77-2-2-4-5h-5l1 3 1 7v3l1-1 2-4h2l4 1zm-5 4v3l1 1v1l1-1v-3z"/><path fill="#1d5e91" d="m618 635-2-2-1 1-2 2-3 3q0 3 2 3l5-2 2-4zm3-17q-1-8-7-15l-2 10q-2 4 1 3l7 3q2 3 1-1m-21-7 2-2 2-12-9 2-6 6 4 2zm-10 11-3-1 3 9q3 5 7 6 6 0 7-4l1-4-9-3z"/><path fill="#d4af3a" d="m588 619 16 6 3 1 1-1 1-2 1-3q-1-3 2 0l2 7q1 4 4 4l2-1 2-7q1-2-2-2l-9-4-1-3 3-13-8-4-2 14q-2 2-3 1l-12-5v2l-2 7zm35 15q-1-2-3 0l-2 8q-3 3-7 4-4-1-3-6l5-6q2-3-1-6l-3-2-3 5-3 7q-4 2-9 1-5-2-6-7l-3-13q-1-2-3-1l-2 5 2 6 3 7q2 5 0 7l-5-3-10-12-3-3-9-6 2 9v4l10 7 10 10q4 6 10 5l16-4 15-5c3-3 3-2 4-5q0-4-2-6m-17-45 2-1 1 3-2 4 1 2 2 1 1-1 1-6h1l2 1h1v-3q1-1-1-1h-2l-1-2 2-3v-1l-3-2-1 1v4l-1 1-2-2h-1l-1 4zm5 31-1 3v2l2 1v-2zm10 11 1 1 1-1v-3q-1-2-1 0zm-37-15 1 1v-4l1-3-1 1-2 3z"/><path fill="#b96b29" d="M594 613q-1 3-3 3t-2-3 2-3 3 3m6 4-2 3-3-4q1-3 3-3zm20 8q0 3-2 3-3-1-3-4t3-3zm-13-5q0 3-2 3-3-1-3-4t3-3zm2-8q0 3-3 3l-2-4q0-3 2-3 3 0 3 4m2-8q-1 3-3 3l-2-4q0-3 2-3z"/><path fill="#d4af3a" d="m592 613-1 1-1-1 1-2zm7 3-1 2-1-2 1-2zm20 8-1 2-2-2 2-2zm-13-5-1 2-1-2 1-2zm2-8-1 2-2-2 2-2zm2-8-2 2-1-2 1-1zm-80 68-5-5-4-7 1 1 1-2v-11l3 4 3 1v-3l2 6 7 9 7 6v3l-6 2q-7 0-9-4m-16-5q2 1 3-3v-8l1 2 2 2 4 7 5 5 4 5 4 7q1 6-2 4l-5-1-11-11c-3-3-5-9-5-9m-9 3 2-5 1-7 2 5 2 4 2 4 6 8 6 8q3 5 1 7 0 2-3-1l-11-8c-6-6-8-15-8-15m-2 17c-2-4-2-11-2-11l1-2 2-3 2 5 4 7 6 9v11q-2 2-3-1l-4-5q-4-4-6-10"/><path fill="#b96b29" d="m522 623-3-7-1-4 2 5zq1 3 0 0m-9 1v-5l1 4 2 7zm-6 6-1-2v-3h1v4l1 3zm20 30 1 2 2 3 3 4 1 1h-1l-2-2-3-4zm-7 10-1-2h1l3 4 2 3 3 3q1 0 0 0h-1l-2-2-2-2zm-8 6 4 5 3 2 1 2h-1l-2-2h-1l-2-3q-3-1-3-4m-3 10 5 6v3l-1-1-1-2-3-4-3-5v-2z"/><path fill="#c52126" d="m546 409 9-2 9 3 6 1q4-2 6-8 2 1 0 9l-5 4c-5 0-10-5-15-6l-7 2h-2q-3-1-1-3"/><path fill="#d4af3a" d="M561 618h1l3-1 2 1 4 4-6-1zm-17-4v-3l2 2 3 6q3 5 2 0l-3-6-2-3h4l5-2 4-2 6 4q3 0 1 2l-4 1-5 1-3 1 4 9 1 10v4l-7-8-8-8-1-2zm-19-23 5 7q2 5 1 0l-3-6-1-2 7-4 2 3 3 4-2-5-1-4 5-6q0 3 4 11c4 7 11 11 12 11q2 1 0 1-2 2-8 0l-5-2q-2-1 0 1l9 3q4 0 2 2-4 2-6 1l-4 1-3-2-2 1 2 7-1 8-1 4q-1 4-1 0l-2-9-1-4q-1-2-1 0l1 8c1 2 2 6 0 3l-7-14-2-4-4-5q-1-4-4-6zm71-171c0 4-3 12-5 16l-3 7 3-4 5-10 4-11h2c1 1 2 10 0 16l-6 12-3 5 2-2 6-8 4-8h1q2 0 1 7-1 9-5 14l-5 6 5-4 6-8q1-3 3 5-3 9-7 15l-5 5 4-2 7-5v6q-2 9-7 11l-5 5 4-1 6-3 1 2q1 1-2 8-4 6-8 5l-3 1 1 1 5 1q4 0 4 3 1 2-3 6l-9 3-2 1 4 1 4 3q1 3-2 6-3 2-9 1h-5l3 2 5 2q1 3-2 6l-9 1-5-2 3 4 4 3q1 1-3 3-5 2-8-1l-3-1v1l4 4q3 1 3 4 1 4-5 3-7-1-10-4l-3-2 1 2 4 4q3 1 2 4 1 2-3 4-5 0-11-5l-3-3v-11l4-1 3-5h2l3 1 5-3 2-7q0-2 2 0l6-2q3-3 2-6l2-2q1 1 3-2 3-2 2-6l4-2q4-5 3-8l-2-5 2-1q4 0 4-7-1-7-2-6l1-1q3-1 4-6l-2-6-3-2q1 1 2-3v-8l-5-2h-3v-2l1-6q0-2-4-4-5-2-7 1v-3l4-8a104 104 0 0 0 10-32l1-1 3 6zm-51 89q2 0 5-4 3-5 9-3 7 0 8-6 2-7-5-14-6-5-7-13 1-7 10-18c5-7 9-17 9-17l1 5v6q1 1 4-2 4-3 7 2 1 5-2 9-3 3-2 5l3-2q2-3 6-2 3 1 4 5-1 4-5 6l-2 3h6q4 3 2 7-4 4-7 4l-2 1 4 1q4 2 3 6-2 5-6 5h-4l2 2 4 4-1 6q-4 3-6 1h-3q-1 2 2 3 3 4-1 6t-6 0c-1 0-2-3-3-1l3 4q2 4-1 7-5 2-8-1l-2-1 1 5q2 4-2 8c-4 1-7-3-8-4q0-2-2-1l1 2q1 2-2 7h-4l-2-10v1h1l1 1 1 1-2-2-1-2v-2h-1l-2-18zm75-65q-7 15-10 16l2-5v-4l4-7 4-13-5 12-4 7-1-4q-1-1-1 1h-1l1-3 2-3 6-15 6-25q1-5 2 2l1 15q-1 10-6 26m-5 28-4 4 1-3v-4l3-3 6-8q3-5-2 2l-7 8v-1l-1-3 3-3a93 93 0 0 0 18-33c0 1 1 13-5 26q-9 18-12 18m-29 76q-4-5-3-7l4 3 8 3h1l-3-1-8-5 1-1 2-1q1-1 4 1 6 4 13 4h9q2-1 0 5-5 7-15 6-8-3-13-7m13-9q-7-1-7-3l1-1v-4l4 1 8 1q3 0-1-1l-8-2v-2l4-2 12 2 11-2h1l-2 5q-4 6-9 8zm2-17v-4l5-1 7-1 4-1h-3l-10 1h-4l-2-1h2l3-2 5-1 11-3 12-6q1-2 1 1l-4 8c-3 4-4 6-11 9-8 3-16 1-16 1m22-22q-12 8-16 7v-4l-3-2q-1 0 0 0l3-1 9-2 5-3-5 2q-6 3-10 2-2 0 1-1l2-4 17-6 3-2 5-5q2-1 1 1l-3 8q-1 4-9 10m1-17q-11 9-13 8l-1-1v-3l5-3 8-6v-1l-6 4-7 5v-2l-2-1 1-2 5-2 10-9 10-12v6q-1 7-10 19m-23-69-2 5-2 3v-10l1-3 1-12-2 13-1-3-2-6v-3l3-22 1-25q6 9 6 29v20zm7 24q1-4-2-7l3-7 2-11c0-8 1-16-1-3q-2 20-3 18l-3 5v-7l-1-9 5-18 3-24 1-7s3 4 4 20a128 128 0 0 1-8 50m-34 120 2-2 1-5 5 5 4 3v-1l-3-3-6-6h2l4-1 8 7 12 7q0 2-4 5-3 3-13-1zm-8 8 1-6 1 1q1 3 5 6 5 5 1 0l-6-8 1-1 10 8q11 9 12 8c-1 0-4 5-13 4q-13-5-12-12m-17-7 2 3q3 3 5 3l1 2 3 6 5 3-3-3-4-6v-1h4l2 2 2 4 5 8v2l-5 1q-3 0-7-3l-6-7q-5-13-4-14m-2 14 1 3-2-6 1-7 4 12q4 7 3 8-3 2-6-1-4-4-4-8l1-3zm-2-180 2 3 2-2q0-3-2-3zm6-3-4-2-9 3q-4 3-10 0l-3-2q-5-9-3-11 5 6 10 6l-1 1-1 2q2 0 3-2l7-4q6-1 10 2l2 6zm-47 41q1 1 3-2l7-9-1-3-2-3 4-3 7-7-1-2-1-1 4-3 4-4 9 1 7-2v3q1 4 5 1l1-5 4-2q5-2 8 1 4 4 4 10c0 4-1 2-2 2q1-2-4-5-4-1-9 4l-6 6q-2 4 3 6h7l-4 4q-4 1-9-2-2-1-2 1-4 4-4 12-3-2-3-5 0-2-1-1l-2 11 1 7h-1l-3-2q-1-1-1 2l-2 10-4 7-1-3v-24l-7 7q-6 0-9-4-1-3 1-3m24 19 1 5 1 1-3 2h-3l3-5zm-22-6 1-2 8-1-3 5-2 2 4-2 3-6 1 19q-1 1-10-3l-5-3v-2z"/><path fill="#b96b29" d="m515 428 2-3v2l-4 5-3 1v-1zm7 18v-12l1-1 1 1-2 15-1 1zm10-42q2-2 1 0l-4 6v4l2-1 4-2q2-1 1 1l-4 4-4 4-2 1 2-11zm33 143 3 3-2-1-2-2-1-2zm-11 7 2 2 2 1 1 1h-1zm43-99-1 1zv-1l1-2h1zm3 10-1 2-1 1 1-2 3-3zm-1 16-2 1 1-1 3-3 1-1-1 2zm-2 12h3-1zm-1 14h2l-1 1h-3l-1-1zm-12 13 2 1 3 1h3l-3 1-4-1zm-4 11h2l2 1 1 1-1-1h-3l-2-1-1-1zm-9 6 3 4 1 1h-1l-3-3-1-2zm15-102-2 3q-2 2 0-1l3-6h1zm3 14 1-2 3-4 1-2-2 4-2 3zm-4 25h2l3-1h1l-1 1-3 1zm4-13-3 2h-1l1-1 2-1zm-10-11 1-1h1zl-2 2q-1-1 1-3m8 38 1 1v1l-3-2q-2 0-1-1h1zm-2 13-2-1-2-1-1-1h2l2 2zm-13 6v-2zl2 2 1 1 1 2-2-1zm-5 10-2-2-1-2 2 2 3 4h1v1l-2-2zm-9 9-2-3-1-2 1 1z"/><path fill="#d4af3a" d="m522 370-3-4h4l2 3z"/><path fill="#b96b29" d="M508 364q0 4 3 5 3 0 3-4 0-3-3-5-3 1-3 4"/><path fill="#d4af3a" d="M509 363q0 3 2 3 2 1 2-2t-2-3zm9-12h-2v-3l2-2 1-1v3zm-2 2-1-1zm5 0h-2l-2 1v-2l1-1q1-1 2 1m-2 5q5 0 5-2l3 5-3 1-3-1-3-1-1-4q-1 1 2 2m8-1 3-1 1 1q0 3-2 2zm7-4 2-1v4l-2 1-2-2zm-2 6 1 1 1-1-1-1zm-1-11a22 22 0 0 0-9-22l-2-2-4-6 5 3q0 3 3 4l1-1 5 5v2l2 4 1-1 1 1 1 6-1 2 2 4v2l-1 2-3 3zm-8-25v-2h1v2zm9 9-1-2h2v3zm3 11 2 2 1-2-1-2zm-27-30 4 3q-3 0-3 2 0 3 3 4 2 0 2-3v-1l2 2q5 5 7 12 3 10 2 15l-4 4v-7l-1 1-2 2-1 2-1-3 1-6-3-12-7-9-1-2v-3q0-2 2-1m4 7-1-2 1-1 1 1zm-6 33q-2 1-3-1v-2h2l2 2zm-4 1 2 2 3-1 2-2h1l1 3q1 2 3 1l2-2-1 2q-1 2-3 1l-8-1-2-1zm13 0h-2l-1-2h2l1-1h1z"/><path fill="#b96b29" d="M517 337q0 4 3 4l3-3-3-4q-3 0-3 3m-2-13q2-1 4 2l-1 4q-1 1-3-1z"/><path fill="#d4af3a" d="m518 337 2 2 1-2-1-2zm-2-12 2 1-1 2q-3-2-1-3"/></svg>