<svg xmlns="http://www.w3.org/2000/svg" viewBox="0 0 1000 1000"><path fill="#d3ae3b" d="M8 195.3c170.8-85.3 341-54.5 513.3-28C676.5 191 833.4 211.8 992 132.7v672c-170.8 85.3-341 54.5-513.3 28C323.5 809 166.6 788.1 8 867.2z"/><path fill="#c40308" d="M32.6 217.3C343.6 82 652.7 314.8 967.4 178v604.8C656.4 918 347.3 685.2 32.6 822z"/><path fill="#b96b29" d="M607 510a47 47 0 0 0 20-10.6c7-7.2 8.4-13 9-16.5.6-3.4 1-5.7-1-4.2a98 98 0 0 1-11 9.5 33 33 0 0 1-9.2 3.8c-2 .6-3.6.9-1.7 0s8-3.1 13.2-9.2a44 44 0 0 0 8.9-22c0-6.2-.2-5.8-1.7-4.4-1.4 1.5-6.7 9.5-9.6 12.5a90 90 0 0 1-9.9 8.4c-2.4 1.6-5.6 3.4-1-.4a55 55 0 0 0 16.8-25.6 67 67 0 0 0 2.9-22c-.2-1.3-.8-3.9-1.7-1.6-.9 2.4-6.7 17.4-11.3 23.8-4.7 6.3-3.6 5.2-4.6 6.1-1.1 1-2.8 2.8-.6-.8 2.3-3.7 6.8-12 9.4-20.5 2.3-8.7 3-17.3 3.1-22.4 0-5.1-1.5-12.2-2.2-14.5-.8-2.2-1.4-3.8-1.7-1.4s-4 17.6-6 25c-2.1 7.4-6 15.5-6.9 17-.8 1.6-2.8 4.8-.6-.7s6.5-21.8 7.2-37.7A88 88 0 0 0 614 372c-1.7-4.6-3-6.3-3-6.3s.2 11-2.1 26.3c-2.5 15.4-5.9 23.2-5.9 23.3 0 0-1.4 2-.5-1.6a119 119 0 0 0 1.4-48.2 54 54 0 0 0-6.3-16.6c-1.1 15-1 34.2-5 49.4-.7-1.1-1.6-2.8-2 .5-.8 5.1-2.3 14.5-7.2 26.2s-7 13-7 13l-1.6-4.9c-.6-1.8-1-2.6-1.8-.5-.8 2.2-3.7 10.3-9.6 19-6.2 8.8-9.3 12.8-9.3 20a21 21 0 0 0 6.6 15c3.7 4 4.2 5.6 3.8 9.5-1 4-3.6 4.6-6.7 4.5-3-.4-6.3-1-7.7-.4-1.2 1-1.5 3.2-2.7 4.9-1.3 1.6-1.8 2.4-3 2.5h-1c-.1-19 5-26.4 5-26.5l-15-26.2-2.2 1-.5-.9c-2-3.9-2.6-6.7-2.6-11.3.7.3 2.2 1.1 3.6 1 1.2-.3.4-2-.1-4-.4-1.9-.7-8-.5-10.3l.4-3.1c0 .1 2.1 3.2 3.5 3.7 1.3 0 1.2-1.5 1.4-3.6.4-3.2 1.4-6.6 3.1-8.7.1.1 2.4 2.4 5.1 3 3 .4 6.1-.1 9.3-3.4 2.9-3.5 2.9-4.3 2.9-4.4 0 0 5.4 3.3 9.5 4.3 4.4.8 8.2.5 10.7-5 1.8-6-.6-11.4-1.1-12.6-.6-1-1.7-1.9-1.9-.3 0 2 0 5.9-2.4 8-2.7 1.9-4.3 1.6-6.8.2a19 19 0 0 0-9.5-3c-3.5.3-3.9.5-4 .6.3-.4 3.3-3.8 6.3-5 3.3-.6 4.8 1.1 6 3 1 2 1.8 4.6 2.7 1 .7-4 .3-8.2-1-11.5q-2.5-4.8-7.3-5.3c-3.1 0-4.1.5-4.2.5 0-.3-1.6-5.7-5.5-8-5-1.9-9.8-.4-14.2 2.2-.1 0-3 .4-6.6-1.3a28 28 0 0 1-5.6-4.7l1.2-4.7 1.9-.6c1-.4.8-.8 1-2-.2-1.2-1.9-3.3-2-3.4 0-.2-.1-3.1 3-5.2 3.3-1.8 3-1.5 3-1.5s1.7.6 2.6 0q1-1 .8-1c.1 0 1.4-.5 2-1.6q.8-1.9.2-4.3c-.4-1.4-.8-1.7-.3-2.3q.9-1.2 1-3.2l.1-1.4c.1 0 1-.4 1-2.7s-.8-3.3-1.4-3.7l-.9-.3q.2-.2-1-3.4l-1.4-2.9s.5-.5.3-2.1q-.6-2.4-2-3.1c-.7-.4-1.5-.2-1.5-.2l-3.8-3.6-1.5-1.3s0-1.4-.5-2.3a3 3 0 0 0-2-1.4l-1 .2s-4.4-2.2-6.2-2.9-1.9-.9-1.9-.9-3.9-3-5.3-3.7l-2-1s1.4-2.2 1.7-5.2c0-3.1-1.4-5.8-3-7.5l-1.5-1.3v-2.1l2.8.9.3-6.4h-2.9l.5-3.7-6-1 .5 3.9-2.9-.7.3 6.3h3l-.3 2.3s-1 0-2 .8q-2.6 1.7-2.8 6.3c.2 3 1.4 5.8 1.4 5.9l-1.9.2a38 38 0 0 0-5.4 2s0 .2-1.9.4l-6 1c-.1 0-.7-.5-1.2-.6q-1-.1-2 .8c-.4.8-.5 2.2-.5 2.2l-1.5.8-3.7 2.4s-.8-.4-1.6-.2q-1.3.4-2 2.5c-.2 1.5.3 2.2.4 2.2l-1.5 2.4q-1.1 2.9-1 3.1l-.8.1c-.6.2-1.4.9-1.5 3.2 0 2.4 1 3 1 3v1.4a9 9 0 0 0 1.2 3.6c.4.7 0 .9-.4 2.2q-.4 2.3.3 4.4c.6 1.3 1.9 2 2 2.1q-.2 0 .7 1.4c1 .8 2.6.7 2.7.7 0 0-.3-.4 3 2.4 3 3 3 6 3 6.2-.2 0-1.9 1.6-2 2.8.2 1.2 0 1.5 1 2.2l2 1.2 1 5.1c-1.3 1-3.4 2.4-5.6 3-3.4.6-6.4-.7-6.5-.7-4.4-4-9.3-6.9-14.3-6.4-4 1-5.4 5.9-5.5 6.3 0 0-1-.8-4.1-1.7q-5-1.1-7.3 3.2c-1.3 2.8-1.8 7-1 11s1.6 1.7 2.7 0 2.6-2.8 6-1.3c3 2 6 6.4 6.2 6.8 0 0-.5-.5-3.9-1.7-4-1.1-7-.5-9.5.2s-4.2.5-6.8-2a14 14 0 0 1-2.5-8.8c-.1-1.6-1.2-1.1-1.8-.2s-3 5.7-1 12.2c2.3 6.2 6.2 7.6 10.5 8 4.3.2 9.5-1.4 9.6-1.4s0 .8 2.9 5.1a14 14 0 0 0 9.2 6.2 8 8 0 0 0 5.1-1.4c1.7 2.5 2.8 6.3 3.1 9.5.2 2.3.2 3.8 1.5 4.2 1.4-.1 3.4-2.6 3.5-2.8l.4 3.4a61 61 0 0 1-.5 10c-.5 2-1.3 3.3-.1 4 1.4.6 2.8.2 3.6.2a18 18 0 0 1-3 11.2l-2.3-1.7-15 21.7c.1.1 5.2 9.2 5.1 28.2v-.1l-1-.4c-1.2-.5-1.8-1.4-3-3.4-1.3-2-1.6-4.4-2.7-5.7-1.5-1-4.8-1.4-7.8-1.9-3-.7-5.8-2.3-6.7-6.4-.4-4 .1-5.5 3.8-8.3 3.8-2.9 6.3-5.9 6.6-13.1 0-7.2-3.1-12.2-9.3-22.7-6-10.5-8.8-19.4-9.6-21.8-.9-2.4-1.2-1.6-1.8 0l-1.6 4.4s-2-2-7-14.9a129 129 0 0 1-7.1-28c-.5-3.5-1.4-2.1-2.2-1.2-3.9-16.2-3.8-35.5-4.9-50.6 0 0-3.8 4.8-6.3 15-2 9.4-2 20.6-1.3 30.6.6 9.5 2 15.2 2.7 17.9.9 3.9-.5 1.5-.5 1.4 0 0-3.4-8.7-5.9-24.7-2.3-16-2-26.8-2-26.8s-1.4 1.4-3 5.6a82 82 0 0 0-2.7 28.9c.6 16.1 5 33.4 7.1 39.5 2.2 6 .2 2.3-.6.5s-4.8-10.8-6.9-18.6c-2-8-5.6-24-6-26.4-.3-2.5-.9-1-1.6 1a57 57 0 0 0-2.3 14c.1 5 .8 13.9 3.1 23 2.6 9.1 7.1 18.6 9.4 22.7 2.2 4.2.5 2-.6.8-1-1.3.1.2-4.6-7.2a178 178 0 0 1-11.3-26.4c-1-2.4-1.5 0-1.7 1.3 0 1.4-.6 9 2.9 22.5a75 75 0 0 0 16.8 29.5c4.6 5 1.4 2.4-1 .2a160 160 0 0 1-10-10.7c-2.8-3.7-8-12.9-9.5-14.6-1.4-1.8-1.7-2.2-1.7 4a55 55 0 0 0 9 23.9c5 7.2 11.1 11 13.1 12.3s.4.6-1.7-.4c-2-1-5.4-2.8-9.2-6s-9.2-9.7-11-11.9c-2-2-1.6.5-1 4 .6 3.6 2 9.7 9 18.5 7.2 8.5 17 13.8 20 15.3 2.8 1.5.8 1.2.8 1.2l-7-2.9a86 86 0 0 1-17-12c-2.5-2.4-2.8-3.2-2.5 1.2a36 36 0 0 0 9 18.9c5.7 4.8 15 8.2 17.7 8.8 2.5.5 2 .8.8.9q-1.7 0-8.6-1.7a70 70 0 0 1-11.2-5.3l-.5-2.8c-.3-1.7-.8-1.5-1.2-1.2s-.7.6-2 1.3-1.4-.2-1.4-.8l-.4-4.2q-.1-1.8-1.1-1l-4.8 2.2c-1 .7-.2 1.8.5 3.4l1.5 3.7-3.7 1c-.9.3-.7 1-.4 2l2 6.5c.4 1.3 1 .7 1.1.7l2.8-2 1 5.2s-1.3.3-2.7 1.5q-2 2.2.6 3.9c1.8 1 3.5 2.2 6 8 2 5.7 2.7 15.5 4 31.1a47 47 0 0 0 9.6 25.5c1 1.1.5 1.7.4 1.8 0 0-.8 1.8-.5 4.9a9 9 0 0 0 3.3 5.6c1 .8.7 1.9.7 2 0 0-.4 3.2 0 9.3.7 6.2 4.1 13.2 5.1 14.7q1.3 1.8 1 2.3c-.2.4-.8 0-2 1.1a15 15 0 0 0-3.4 4.8c-.8 2-.6 3.3-.3 6.3.5 3 3.3 5.8 3.4 6 0 0-.5 0-.7 2.2q.2 3.4 2.4 6.4c1.5 1.7 4 2.8 4.1 2.9l.4 3.1c.3 1.3 1.8 2.7 3 3.8 1.3 1 3.2.8 4.3.4q1.4-.5 2.1 1.6c.5 1.5.4 6.1.4 8.1-.1 2-.7 3.9-.4 5 .7 1 1.8.5 3.2-.4s1.7-.1 3 1.2a11 11 0 0 0 3.6 2.4c.4-.2.3-1.7.3-3.2s.2-4.6.6-5.2c.3-.1 2.3-.2 4-.8q1.4-.4 1.7-1.6c0-1-.9-1.1-3.3-3.1-2.3-2-2.8-3-4.3-4.6-1.4-1.6-.8-2-.7-2.5q.2-.9 1-2c.2-.7.1-2.4 0-2.5l1.9-2.2 2-2.9c.7-.8 2-4.7 2.8-6 .9-1.2 2.5-2.5 3.6-4.2s4-4.2 5.6-5.5c1.7-1.2 6-3.4 6-3.4s0 3.4 1 5.5c1.4 1.7 2.6-.8 7.7-5.1a33 33 0 0 1 9-5.3l2.3 5c1.5 2.3 2.5.3 8.8-10.5 5-8.5 11.3-16 13.8-18.7l1.3 1-.3 1.5c-.7 2.3-1.5 3.8-2.7 7-1.4 3-3 3.7-5.2 7.9a27 27 0 0 0-2.6 11.8c0 4.7 1.6 5.8 1.7 5.9 0 0-3 3.7-4 6.6-.9 3-1.5 9.2-1.5 9.2s-.4.2-1.6 3.2-3 3.3-6.2 6.8c-3 3.6-6.2 5-7.8 6s-1.2 2.2-.7 4q1 2.6 5 5.3c2.5 1.5 3.3 1.3 5 1.4 1.6.3.5 1.7-.3 2.6-.7 1-1.6 4-1.5 8 .3 3.7 2 3.2 4.7 3 2.6-.3 5.5-1.5 5.5-1.5l-.2 1c-.3 1-.4 1.8-.5 4.8s.4 4.4 1 5.4c.8.7 1.9-.5 2.9-.9q1.4-.6 4.7-1.6c2.3-.4 3-1.4 3.1-1.5 0 0-.5.9-.7 3s0 5.3.3 7.2q.6 3 3 6.4c1.5 2.1 1.8 1.4 3-.9s3.4-5 3.4-5l1.7 8A44 44 0 0 0 500 718c0-.1 4.8-5 6.6-11.6l1.7-7.4s2.3 3.5 3.5 6.1c1.2 2.7 1.4 3.4 3 1.8a13 13 0 0 0 3-5.5c.3-1.8.3-5 .2-7.1q-.5-3.3-.7-3.2s.9 1.3 3.1 2.5c2.3 1 3.9 2.4 4.8 3 1 .7 2 2.2 2.8 1.7.6-.8 1-2 1-5s-.1-3.8-.4-5l-.3-1s3 2 5.5 3c2.7 1.1 4.4 2.2 4.8-1.5 0-3.9-.9-7.1-1.5-8.4-.8-1.2-2-2.9-.4-2.7 1.7.4 2.5.9 5 0q4-1.4 5-3.7c.5-1.7.8-2.7-.6-4.3-1.7-1.5-4.8-3.8-7.9-8.2-3-4.5-4.9-5.4-6.2-8.7-1.1-3.4-1.6-3.7-1.6-3.7s-.6-6.3-1.4-9.6c-1-3.3-4-7.8-4-7.9.1 0 1.7-.6 1.7-5.3a32 32 0 0 0-2.7-12.7c-2.2-4.8-3.8-6-5.1-9.5-1.3-3.6-2.1-5.3-2.7-7.8l-.4-1.5 1.9-.8c2.4 3.5 8.8 13 13.8 23 6.2 12.7 7.3 15 8.7 13l2.4-4.2s3.8 2.4 8.9 8c5.1 5.8 6.4 8.6 7.7 7.3q.7-1.5.8-3.5a184 184 0 0 0 12 7.6c4.4 3.2 4.9 4.4 8.4 8.7 3.7 4.2 8.2 4.5 13 3.2 4.8-1.4 17.2-5.4 22.2-7.8q7.9-3.7 9.2-5.8c.4-1.4 1-5 1-6.5 0-1.4-1-3.4-1.4-3.9q-.3-.9-.1-2.3c0-1-.3-3.4-1-4.7-.8-1.3-.7-1.7-.6-5 0-7.3-3.4-16-8.7-19.8 0 0-.1-.8-.5-1.3l-1.1-1v-5c0-.9.3-.7.6-.4.4.3 1 1.2 1.8 1.7q1.3.3 1.5-1.7c.2-1.3.9-3.8 1.2-5s0-1.5-.4-1.7l-2.3-.8q-.8-.2-.4-.8c.4-.6.3-1 1-2.6.8-1.6.2-1.6-.6-2-.7-.5-4-2.3-5-2.6-1-.2-1 .6-1.1 1.2v3.8c0 .8-.4.5-.8.2l-1.8-1.8q-1-.9-1.4.8l-1.2 5.9q-.4 1.8.1 2.3c.4.2 2 .2 3 .3 1 .2.5.8.4.9l-1.4 3c-.4 1-.9 1-1.7 1l-2.2-.4c-.2 0-5-.2-9.4 3.1-3.9 3.7-5 6.7-5.7 8.6s-1.2 1.4-2 2c-.6.7-2 2.8-2.3 4.4 0 1.6.4 2.3-1.3 3.7-1.7 1.7-3 7.4-.8 11.6 2.3 3.9 3.3 7.4 4 9.2.6 1.8 0 2.3-.6 2.2-.6-.2-1.9-1.6-3-2.9l-8.8-10.4c-2.2-2.7-.6-2.2-.6-2.1l2-.5q2-1 .2-2.3c-1.4-.8-3.9-3.2-4.7-4.2-.7-1.2-1-2.1.3-3 1.5-1 4-2.7 2-4.2l-7.4-3.5c-2.3-1.3-2.5-2-2.5-2.1l1.5-2.7c0-.2 1-2-.2-2.7-1.5-.5-4.8-1.6-8-3.9a31 31 0 0 1-11.6-19.3l.1-.2c1.3 3.7 3.9 9.2 8 10.5 5.7.8 6.1-1 5-4l-3.2-6c-.3-.8-.5-1.7 1 .3 1.6 2.4 4.3 8.5 12.7 9.4 8.5.2 8.4-1.6 8.4-2.4-.1-2.3-1.6-2.9-2.7-4.4-.5-.8-.9-1.8.9-.8a18 18 0 0 0 11.5 2c2.6-.6 7.8-3 8.8-7.2 0 0-3.7-1-6.4-2.7-2.7-2-4.3-3.3-1.4-2.3 3 1.3 8 3.2 13 1.9 3-1.1 6.1-3.5 6.4-9.3 0 0-5.2-2.2-7.1-3.3-2-1.2-2.5-2-2.5-2 .3.2 7 3.8 14.1.4 6.7-4.3 7-10 7-11.7l-.1-2c-.1 0-6 1.1-10.7.7-4.6-.7-6-1.4-6-1.4.3 0 12.4.9 19.2-3.5 6.3-5.1 6.8-14.9 6.9-15.2-.1 0-7.3 2.5-12 2.9a42 42 0 0 1-8.4-.4c-1.2-.3-1.8-.8.7-.7 2.7 0 12-1 17.6-4.6 5.4-4 8.7-12.5 9.1-17 .3-4.2 0-3.6-2.4-1.7a60 60 0 0 1-17.1 8.2l-7 1.1s-2.1-.3.7-1.1zm-230.7-12.8-2.6 1.7-1.3-3.8q-.3-1.3.2-1.2c.4 0 1.5-.3 2.3-.3h.3zm78.7 73.5a20 20 0 0 1-9 8.7 25 25 0 0 1-8 1.6c-1.2.3-.2 2.4-.1 2.6l1.5 3.1s-.3.8-2.5 1.4l-7.4 1.4c-2.1.9.4 3.3 2 4.7 1.3 1.3 1 2.1.3 3.1a20 20 0 0 1-4.7 3q-2 .6.2 2.3c1.4 1 5 2.5 5 2.5l-2.3 2.2c-2.5 2-6.1 2.9-8.9 2.8a100 100 0 0 1-18-2.8l-.5-6c-.4-3.7-2-8.8-3.1-11.3l-3.8-7.5s0-1 .3-2c.1-1.2 0-2.4-.6-4.7-.8-2.3-3.6-5.8-3.7-5.9l-.1-4.5c0-2.2-1.2-10.9-2.1-15.1s-5.8-15.3-8-20.6a81 81 0 0 1-4.4-28.1l.5-1.8q1.4 2.7 3.6 4.8a47 47 0 0 0 19.2 8.3s-1.4.3-6-.2a55 55 0 0 1-10.7-3.3l-.1 2c0 1.7.4 7.5 7 13.3a17 17 0 0 0 14.1 3.3q.2.1-2.5 1.3c-2 .6-7 1.5-7 1.5a13 13 0 0 0 6.3 10.9c5 2.7 10 2 13 1.6 2.9-.3 1.3.6-1.4 1.9a19 19 0 0 1-6.4 1c1 4.3 6.3 8.2 8.8 9.4 5.9 2.4 9.7 2 11.6 1.4 1.7-.6 1.3.3.8 1-1.1 1.2-2.5 1.3-2.7 3.5 0 .8 0 2.7 8.4 4.9 8.5 1.5 11.1-3.8 12.7-5.7 1.5-1.6 1.3-.7 1 0l-3.1 5c-1.2 2.6-.7 4.6 5 5.4 4.2 0 6.6-4.8 8-8l.2.5c-.5 1.8-1.4 4.7-2.4 7.1m68-239-1.1-3s3 2.5 5 5.7c1.9 3.3 2 4.7 2.2 6.2s0 4-.3 6.5q-.3 3.6.1 5l.7 1.3s-1.4.3-2.7.8c-1.5.6-3 .9-4-.3q-1.5-1.8-.7-2.7c.8-.6 2.7-1.2 3.2-6.4a40 40 0 0 0-2.3-13zm-17.3 11.8c.7-2.5 1-4.7.5-10-.5-4.4-1-8.2-1.2-12.9 0 0 2.2 1.1 5.7 5.8 3.3 5 4 9 4.1 11.3 0 2.1-.7 4.6-1 6.6 0 2 .5 3.9.5 4 0 0-1.2.4-2.3 1.3-1.2 1-1.9 1.3-3.6 1q-2.4-.9-3.7-2.4-1.6-1.2-1.7-1c.1-.1 1.8-1.3 2.7-3.7M489.3 323c3.5-3.6 5.6-4 5.7-4-.2 4.6-.8 8.2-1.2 12.5-.5 5-.3 7.4.4 10.1.9 2.7 2.7 4.4 2.7 4.5l-1.6.5c-1 .6-2 1.4-3.7 1.3-1.8-.2-2.5-.8-3.6-2.1l-2.4-2.1s.5-1.7.5-3.8c-.2-2-.9-4.8-1-6.9.1-2.3.9-6.1 4.2-10M477 346.8c-1.1.9-2.5.1-4-.9l-2.8-1.6.7-1.2q.6-1.2.1-4.8c-.3-2.6-.5-5.2-.3-6.6.3-1.5.3-3 2.2-5.6s5-4.2 5-4.2l-1.1 2.7c-.8 2-2.5 7-2.3 12.4.5 5.3 2.4 6.5 3.1 7.3.6 1 .4 1.5-.6 2.5m45 51.2c-3.5 2-5 1.3-5.1 3 .4 2 3 3.7 3 3.8s-3 3.9-5.3 5.7a25 25 0 0 1-5.2 2.5s-.8 0-.4 2.2q1 3.2 2.3 4.3l1.1 1s-4.2 5.3-6 7a13 13 0 0 1-4.3 2.8c-1.4.9-.8 3.8-.4 5.6a9 9 0 0 0 2.4 4.2c.7.4 1 1 0 3-.7 1.4-3 5.1-4.2 7.2l-4.3-8.5c-.9-2.2-.7-2.8 0-3 .9-.4 2-2 2.5-3.5.3-1.6.9-4.4-.4-5.7a22 22 0 0 1-4.4-4.1c-1.8-2.3-6-9-6-9l1.2-.5q1.3-.7 2.2-3.6c.5-2-.3-2.3-.4-2.3 0 0-2.7-1.8-5.1-4.2s-5.4-7.3-5.4-7.3c.2 0 2.7-1 3-2.8 0-1.8-1.5-1.6-5-4.6a19 19 0 0 1-4.4-6.3c.2-.1 3.5-1.2 5.7-6.2q1-2.7.8-4.9h.2a59 59 0 0 0 19.8 7c6.5 1 13.5 1 19.8-.8h.1q0 2 .8 5.1a17 17 0 0 0 5.8 8s-1.1 2.7-4.4 5z"/><path fill="#d4af3a" d="M542.2 503.3a50 50 0 0 1 4.8-22.5l-13-22.4a32 32 0 0 1-34-5.3c-10.4 5.3-21.3 3.3-34-5.2l-13 18.5c0 .1 4.6 9.7 4.8 24 0 14.2-2 24.5-3.2 31.2a75 75 0 0 0 .5 29 43 43 0 0 0 17.1 26.5 110 110 0 0 1 21.7 18.1c4 5.3 6 9.2 6.1 9.2s2-3.3 6-7.3c4.2-4 10.1-6.5 21.8-11.4 11.6-5.1 14.4-12.4 17.1-21.3a76 76 0 0 0 .5-28.9c-1.2-7-3-17.9-3.2-32.2"/><path fill="#b96b29" d="M538.1 508.6c-1.4-14 4-24.8 4.1-25l-11.1-19.5c-9 5.1-20.4 2.5-31-5.6a28 28 0 0 1-31-4l-11.3 16.2c.1.1 5.5 12.7 4.2 26.2-1.7 13.4-5.1 34.3-4.3 43.3a59 59 0 0 0 10 25.8 75 75 0 0 0 16.6 14.8 64 64 0 0 1 15.7 16.4s1.6-1.9 3.8-4c2.4-2 7-5.8 12-7.6a48 48 0 0 0 16.5-9.7 43 43 0 0 0 10.1-22.7c.8-8.8-2.6-30.7-4.3-44.6"/><path fill="#1d5e91" d="M537 510a57 57 0 0 1 3.3-26l-10.1-17c-8.8 4.5-18.7 1.6-30.2-5.5-11.5 3.5-21.4 3.4-30.2-3.8l-10 13.8a67 67 0 0 1 3.2 27c-1.7 14.5-4 30.8-3.7 40.6l.2 2 9.2 1.5s.5-.8 1.5-1.2l1.4-.8c0-.2.2-2.3 1.3-3q1.5-.3 2-.1t1.3-.7c.6-.7 2-2.2 2.7-4.7.6-2.4 1-3.3 1-5s.4-4.3.4-4.3-.2-.7-1.1-.5-1-.8-1.2-2.2c0-1.4 0-3.8.5-5l.7-1.5-.4-2c-.4 0-5.2.5-6.8-5.7-1-6.4-1.3-9.4-1.4-10.1q-.1-1-1-1.1c-1-.2-2.4-1-3.7-4.4-1.1-3.4-1.2-4.7-.9-6 .4-1.1 1-.6 1.2-.2.3.7 1.5 3.4 2.3 3 .6-.8.4-.8-.5-3.4s-.6-3.2-.5-4.5l-.3-3.5q.1-1.1 1-.7.9.8 1.3 1.5c.3.5.3 1 .8.7.4-.5.3-2.4.2-3.3q.2-1.3 1.5-.4 1 1.3 1.1 2.7-.1 1.3.4 1.6.5-.3.6-2c.1-.8.4-1.8 1-.8a8 8 0 0 1 .5 4c-.2 1.6.2.8-.2 3.5-.4 2.6-.5 3.7-.5 5.7s.1 3.2.8 5.8c.8 2.7 1.3 5.2 2.7 5.8l1.7.3s1.6-3.6 2.7-4.5q2-.9 4-.7 1.7 0 1.7-.8.2-.4-1.8-1c-1.5-.6-2.5-1.1-2.7-2.7 0-1.5.2-2.5-.7-2.9-1-.3-3-1.5-4-3.7-.8-2.2-.6-2.6-.5-3.8.2-1.2 1-3.1 1.8-1 .7 2.3 1.1 2.6 1.7 3.2.7.5 1.3.8 1-.7-.4-1.6-.6-2.5-.5-3.6q.2-1.4 1.2-1.5l3.5-.8c1 0 1-.2 1-.2s.2-.8 1.4-1.2a7 7 0 0 1 3-.2c1 .2 1.6.4 2.9-.1q1.7-.8 3-.5 1 .4 1.9 1.3.6 1 .4 2.1c0 .8 0 1.1.9 1.3q1.2 0 2.3.7c.9.6 1.8 1.3 1.2 2.4s-.7 2.1-1.2 2.1q-.4.1-.6 1-.4.4.2 1c.5.6.5 1 1.2 2 .8 1 1.6 2 .7 3.2a10 10 0 0 1-2.8 2.1c-.1 0-1 .5.1 1.7s1.8 3 2.2 3.5l1.1 1.2c.3.4.3 1.6.3 1.6l-1.5.9q-1.4.6-2.7.5c-.8 0-1.2-.2-.9 1 .4 1 1 2.3 1 3l.4 1.7 2.6.8c1.2.1 1.7.3 4.4.3s3.5 0 6 .8c2.7.8 3 .8 3.7 1.2l1.4 1s3.6.4 5.6.2c2-.5 2.4-1.8 2.2-3-.3-1-.3-2.2-3.7-3.5-3.6-1.2-5-1.2-7.7-2.3-3-1.4-6.8-3.7-7.9-8.7-.5-5 1.8-6.2 3.4-7s4.5-1.8 6-2.4 3.8-.9 6.7 0c2.8 1 4.1 2 5.3 1.5q1.9-.9 1.8 1.4a6 6 0 0 1-4.4 4.6c-3.2.7-6.6.3-8.7-.6-2.1-1.2-3.5-2.2-4.8-2-1.3.6-2.4 2.1-1.2 5 1.7 2.5 7.7 4.3 9.8 5 2.2.5 8 1 10.4 5.7 1.7 5.1.4 9.2-1.9 10.4q-3.2 1.2-5.8 1.3l-1.7.1s.7 2.5.8 3.5c0 1.1 0 2.8.7 3.7q1.3 1.5 3.4 1.6c1.5.2 3 1.5 3.2 3.4l.7 7.7v6.3l-.5 2.5-2 6 9.7 1.4.2-2c.3-9.9-2-26.8-3.7-41.8z"/><path fill="#6d8c3e" d="M460.7 548a48 48 0 0 0 11.9 21.8c8.4 8.1 11.9 8 19.9 16.1 7.8 8.3 7.5 9.3 7.5 9.4s-.3-1.2 7.5-7c8-5.7 11.5-4.5 20-10 6-4.2 9.8-11 11.8-18.2z"/><path fill="#d4af3a" d="M467.5 491c1 1.5 1.5 2 3 2 1.4.2 1.6 1.3 2 3 .1 1.5.2 5 1.1 8.4 1.3 3.3 4.1 4 4.3 4l1-5.2c.2-.4.5-1.5-.6-1.8s-1.2-.8-1.9-2.5-2-6-2.4-8.7a32 32 0 0 1 .6-8q.6-2 0-2.6-.8-.3-1.1-.2c0 .1.2 1.2 0 1.4q-.5 0-.9-1.6c-.3-1-.5-.9-1-.9q-.7 0-.1 1.3c.2.7.1 1.8.1 1.8s-1-1.2-1.5-1.5-1.3 0-1.5.8a8 8 0 0 0 1.3 4 6 6 0 0 1 .6 4.2c-.4 1-1.5.6-1.9.1q-.5-.8-1.2-.1c-.4.5-.7.7.1 2.2zm-.5-3.4-.7-1-.6-1.2v1.1c0 .8.5 1.7.5 1.7zm2-8.7q.7-.1.4-1-.4-1.2-1-1.6l-.5-.2.4 2q.1 1 .7.8m2.5-2.4q-.1 1 .4.7.6-.5.3-1.5l-.6-1-.3-.3.1 2.1zm3.5 1.4-.1-1.4s0 .7-.3 1.2-.2.3 0 .7q.4.5.4-.5m5.6 33.7c.9 2 2.3-.7 4-3.4 1.7-2.5 1.6-.5 1.4 1.8q-.1 3.6 1 6.4c.8 1.6 1.2.9 1.5-.2.2-1 .5-3.3 1-4.3s1 0 1.1 1 1 3.1 1.8 4.5 1.1-.1 1.4-1.7l.8-4.7c.3-.9 1 0 1 0l1.6 2.3c1.1 1.5 1.1-.5 1.3-1.7l.1-3.8q.5-.1 2.6 1.8c1.5 1 1.4-.5 1.2-1.7-.2-1-1-3.4-2-5q-1.6-2.5-1-3.7c.5-.5 1.7.1 2.6.2l2-.1c.6-.2.6-.9.6-1s-.5-1.1-1.4-2.4c-1-1.3-1.5-2.1-2.6-2.7-1.2-.5-2.6-.4-2.7-.4l-.1-.5q-.4-.7-.7-.1-.5.8-1.2 1.3-.6.8-1 .5c-.2-.3.2-.7.2-.7q.2.1 1.2-1.9.8-2.3.2-3.5c-.5-.6-1.5-.3-2.2-.3q-1 0-1-.5t1.4-.1q1.1-.5 1.5-2.4.4-1.4 1-.1.7 1 1 .2l1-2.5q1-1.6.3-3.6c-.7-1.1-1.9-1.2-2.6-.6-.6.6-1 1.1-1.1 2.7s-.5.7-.5.2-.4-1.4-.3-2v-1.4c0-.1 0-1.3-1.2-2a7 7 0 0 0-3.5 0c-1.1.3-1 1.4-1 1.5h-1.7q-1.5.1-2.9.5-1.2.1-1.1.8l.1 1.6s.7.1 1.1.5q.4.6-.3 1c-.4.1-.5.1-.6.9q0 1 .7 1 .7-.1 2.4 1 1.4 1.6 1.2 3c-.2.7-1.5 1.3-2.3 1.2q-1.1-.2-1 .8c.1.6.8.7 1 .7l2.6.8c1.8.6 2 1 2.8 2.2.8 1 .3 1.2-.1 1.4q-.6.6-1.6 1l-1.5.8c-.5 0-1.8-.1-4.3.7-2.4 1.4-3.3 5-3.3 5.3l1.4-.8q1.8-.9 3.8-2.2c1.3-.7 1.3.7.6 2.2-.5 1.5.6 1.3 1 1q.4-.5 2.1-1.5c1.2-.6.8.6.8.6q-.1-.1-.5 3.4c.1 2.4 1.7.5 2.7-1 1-1.3 1.1.2.5 1.9s-1.8 2.7-2.5 2.8q-1.2-.6-1.3-1.9c0-.6.1-2.2-.2-2.8q-1-.5-2.6.4c-1 .6-1.1 0-1.3-.7s.2-.8 0-1.3-.6-.1-1 0l-3 1.7c-1.6 1-1.6 1.5-1.6 3.2s.3 2.2 1 4.5z"/><path fill="#d4af3a" d="m496.7 477.3 1-.5 1.5-.2q.9-.1.4-1-.1-.7-1.4-1c-1 0-1.5.5-2 .7l-1.3.3.5 1q.6 1.2 1.2.7zm3.8 5.8.8-.1 1.3-.6c.7-.2 1-.3 1.3-1.3s-.3-1-1.5-1.6-1.6-.2-1.8.4q0 .7-.5 2.2c-.4 1 0 1 .4 1m-.3 1.3c-1.1 0-2.3 1.8-2.7 2.2q-.6.6-.2.7l.4 1.9.2 2.4.8.2q.8 0 1.6-.8a3 3 0 0 1 1.9-.8c.9 0 1.3-.2 2.2-.8.8-.6-.4-1.8-1.5-3.2-1-1.2-1.6-1.5-2.7-1.7zm-14.3 2.9q1.1 0 1.2-1.2t-1.5-1.4c-2.9-.3-5-1.7-5.8-5.5 0 .1-.7 2 .8 4.9a7 7 0 0 0 5.3 3.2m-9.1 56 .4.7 4.1.6q.8-.5.8-1.6 0-1 1-6.3 1-5.5 2-7.6c.2-1.5-.4-2-.8-3l-.8-3.6q-.6-1-1.6-1-.7.4-.7 2.3l-.9 7a20 20 0 0 1-3.4 7q-1 1-1.6.9-1-.2-1.9 0-.9.8-1 2.2c0 .8.9 1.4 1 1.4s.7-.5 1-1q.5-.5 1.6-.5.9 0 .4.7c-.2.4-.1.5.4 1.8m-6.3-1.3q-.4.3-.7.8l2.7.4-.3-1q-.6-.6-1.7-.2"/><path fill="#d4af3a" d="m474.1 542.5-.9.9 2.9.4q.1-.6-.2-1.3c-.7-.8-1.3-.3-1.8 0m25 2.2q-.5 0-1 .6t-.7 1.6v.2l1.2.2v-.2q0-.7.8-1.5c.5-.6 0-.8-.3-1zm2.4 2.2q0-1-.4-1-.5.1-1.2.9l-.4.6 1.8.3z"/><path fill="#d4af3a" d="M512.6 530.5c.8-.8.7-1 .7-2 0-.8 0-1-.3-1.5a7 7 0 0 0-2.8-1.5 8 8 0 0 0-4.4.5c-.8.9-1.2 3.4-1.3 5 0 1.6.2 1.8.5 1.9s.8-1 .8-1l1.9 3.8c.6 1.5.4 2 0 3-.3 1.2-1.4 3.6-2.3 4.3-1 .4-1.6-.1-2.7-.6s-1.6 0-2.3.7c-.5.8 0 1.4.4 1.6q.6-.2 1.3.8v2.3l5.3.8c.9-.5 1.4-2 1.7-2.9a10 10 0 0 1 2-2.8c.6-.7.6-1 .6-2.7 0-1.6-.3-2.5-.7-3.7s-.7-2.7-.6-3.6c.2-1 1.2-1.7 2.1-2.5z"/><path fill="#d4af3a" d="M503.8 511c.5 1.3.3 1.4-.5 1.5q-1 .3-2.8-.1c-1.1-.3-1.1-.1-1.1.7a8 8 0 0 1-.9 3.7c-.8 1-1.5.6-2 0q-.9-1-1 .3l-1.2 2.7c-.6 1.3-1 1.3-1.3 1.1s-.8-1-1.2-1.2q-.6-.4-1.6-2.7c-.7-1.3-1 0-1.3 1q-.6 1.8-1.6 1.7c-.7-.4-1.5-2.3-2-3.6q-.5-2-1.4-2.5c-.6.1-1.7 1.6-2.5 2q-.9.6-1.2-.4-.6-.9-1.2 1.5-.5 2.3.6 3.3c.7.3 1.7-.5 2.6-1.1.8-.6 1.1-.4 2-.3.8.3.7 1.9 1.1 4.8.5 2.8 1.5 3.3 1.5 3.3s.4.5 1.3-1.4c.9-2.1 1-3.8 1.9-3.9.8.2.9.4 1.8 2.2s1.5 3 2 2c.5-1.2 1-2.9 1.5-3.5.6-.5 1.1-.6.5.5s-.8 2.2.4 2c1.2-.4 6-2 7.8-2.4h4.8l4.2.3c1 .1 1 0 1-.9s-.4-.8-2.3-1q-2.6-.3-4.4-.2-2 .2-1.7-.4c.3-.5.6-.7 2.1-.8l6.1.4c1.6.2 1.2.7 1 2.2l.2 5c.1 1.3.2 1.7 1 3.8 1 2 3.8 3.6 4.7 4.4 1 .7.8.2.7-1q0-1.5 1.5-.3 1.4 1.1 2.9 1.9 1.2.5 1 1.3l.2 3.4c0 1.3 0 1.7-.3 2.5l-2.1 2.8-2.4.2c-1.7.4-2 1.2-2.3 2.1q0 1.3.4 1.6v1.1h.4l.5-1q1.2-1.4 3-.2.7 1 .5 1.9l3.7.6 2-5.2c.4-1.1.6-1.8.7-3.5v-8.6c-.3-.4 0-1.4 0-3.2-.2-2-.1-3-2.5-3.9-2.5-.8-3.2-2.1-4-3.4-.8-1.4-.8-3.8-1.4-7.2-.8-3.3-2.2-4-5.2-5.2q-4-1.7-7-1.7c-2.2 0-4.8-.1-6.3-.5s-1.3.1-.7 1.4z"/><path fill="#d4af3a" d="m517.8 549.5-.6.6 2.5.4-.2-1q-.7-.7-1.7 0m4.5.5q-.7.3-.9.8l2.6.4v-.4c-.2-.6-.8-1.2-1.8-.8m-62.6-7.5.6 3.3 79.6 12.3.6-3.2zm53.7-43.7c2.8 2.5 10.4 4 14.3 5.6 3.6 2 3.4 5.2 2.3 7.4-1.6 1.6-6.1 1.3-7.4 1.3.5.6 1.3 2.2 1.3 2.2h2.2c1.7.1 4.1 0 6.2-1.8 1.8-2.2 1.7-5.2.1-8-1.9-2.6-4.3-3.3-7.3-4.2-2.8-.8-5-1.5-8.2-2.7-3.2-1.4-4.5-3-4.7-5.7.2-2.6 1.6-3.5 3-3.9s3-.6 5 .5c1.8 1.1 3.7 1.5 7.3 1.5 3.5-.4 4.2-3 4.3-3.2h-2.3c-1.7-.3-3-1.4-6.2-2-3.3-.5-4.4.7-5.9 1.3-1.8.4-5.1.5-6.7 3.7-1 3.6.1 5.2 2.7 8"/><path fill="#b96b29" d="M493.9 479.4q-.2 1.8-1.5 1.8-1.4-.4-1.5-2.3 0-1.8 1.5-1.8 1.3.5 1.5 2.3m30.7 8.2c-2-.5-4.5-.2-4.6-.2s.5.5 1.2.6q1-.1 3.8 1c2 .6 3.2-.2 3.3-.3z"/><path fill="#1d5e91" d="M505.8 535.3c-.6-1.1-.7-1-1.2-.5-.7.4-1-1.6-1.2-3.2 0-1.5.4-5.7.4-5.7s-2.7.3-4.2.7-2.8.5-4 .7q-1.6.4-2.4.1l-3-.7c-1-.1-1 .1-2 1.4s-1.4 2-2.2 4.5a39 39 0 0 0-1.4 8.1q-.4 3.1-.7 4.3l12.5 2 .5-1.8q.7-1.3 1.5-1.6c.5-.3.9-.2 1.2-1q.4-1 1.5-1.5 1.1-.2 2.8.7c1 .4 1.4-.3 1.7-.9l1-2c.5-1 .1-1.9.1-2zm20 3.5c-.2-1-.1-1-.6-1.3l-1.7-1c-.7-.2-.6 1.7-.6 1.9 0 0-1.4 0-3.1-.5a13 13 0 0 1-5.8-6.1l-1 1q-.7.8-1 3c.1 1.5 1.2 3.4 1.4 4.8 0 1.5-1.1 4-1.8 5.2l-1.3 3.3 6 1 .7-1.4c.7-.7 1.6-.7 1.7-.7l.2-1.1c.3-.8.8-1.5 2.4-2.1 1.5-.5 3.2-.4 3.2-.4q.2 0 1.3-1.8c.4-1 .1-2.7 0-3.8"/><path fill="#d4af3a" d="M475.6 621.8q2.1.7 4.3-1.7c1-1.7 1.5-4.2 2.2-5.6l1.2-2.5s-.2 2.5-1.1 5.7-1 7.4-.9 9.4c.7 4 2.1 4.6 3.3 4.4q1.3-.6 3.1-4l1-2.7c.7-2 1.3-4.4 1.6-4.5.6.4.3 2.2 0 3.7-.6 2.8-1.5 6.8-1.7 9.4 0 2.8.3 6.7 2 7.6 2 .3 2.8-1.4 4-6.6 1-5.2 1.2-6.5 1.7-6.6.3.3.4 3.4.4 5.2a42 42 0 0 0 1.7 10.5c1 1.3 1.6 1.2 1.6 1.2s.7.3 1.7-.7a51 51 0 0 0 1.6-10c0-1.8 0-4.8.5-5 .4.2.6 1.6 1.7 7 1.1 5.6 2 7.6 3.9 8 1.8-.5 2-4.2 2-7.1a98 98 0 0 0-1.7-9.9q-.6-4.5 1.7 1.3l1.3 3.7q1.6 3.5 2.7 4.3c1.2.6 2.7.3 3.3-3.4.3-3.8-1.6-14.8-1.6-14.9l.9 2c.6 1.7 1.2 4.3 2.1 6.3 1.2 2 3 3.2 4.3 3 1-.6 1.2-3 .4-8.4-1-5.2-4-8.6-6.5-13.1a70 70 0 0 1-4.2-12c-3 1.6-5.6 3.4-8 6.5-5 6.3-6 7.9-6 7.9l-6-9.8a40 40 0 0 0-8.2-9c-.3.8-2.4 6.7-4.5 10.3l-3.7 4.5q-1.9 3-2.5 7c-.8 5.2-.6 7.6.5 8.5z"/><path fill="#d4af3a" d="m475.5 639 2.2-2.3s1-1 .8 1.2a53 53 0 0 0-.5 8.9c.4 2.2.5 3.7 2.4 2.6s2.3-2 3.1-3.1c1-1.2 1.7-1.5 1.6.4-.2 2-.8 4.8-.6 8.9q.7 6.3 3.7 1.7c1.8-3.1 3-6 3.6-7.6s1.6-2.8 1.7.3c0 7 1.2 16.2 6.5 20 5.4-2.2 6.5-11 6.6-18 0-3.1 1-1.5 1.7.3.6 1.7 1.7 5 3.6 8.7q3 5.5 3.6-.6c.2-4-.3-7-.6-9.1 0-2 .7-1.3 1.6 0 .9 1.5 1.4 2.4 3.2 4.2 1.9 1.6 2 .2 2.3-2 .3-2-.2-6.6-.4-9-.2-2.3.7-1 .8-1l2.1 3.1a7 7 0 0 0 3.5 2.4c0-.2.7-6.7-1.2-11.5l-3-6s-1.2-.3-2.1-.9-1.8-1.7-1.8-1.7v4l3.2 4.8c.6 1.2 1.9 3 0 1.1L520 635s-.5 3.3-1.1 4.2q-1.5 1-2.3.5l-.4-.3-.2 1.3s1.6 4.4 1.9 6.1q.3 2.6-.9-.8l-2.8-6.8c-.8-1.6-1.6-2.8-1.6-.9 0 2-.5 5.3-1 6.5q-.6 1.7-.7 1.6l1.1 6c.1.9 0 1.8-.5.6l-2.2-6.2c-.1 0-2-.5-2.8-1.4-.5-1-1.5-4.3-1.6-4.3 0 0-1 3.9-1.6 5.2a8 8 0 0 1-2.4 2.2l-.2 8.4q-.1 1.9-.6 1.8t-.5-2l-.3-8.4s-1.6-1.6-2.4-3c-.6-1.5-1.6-5.7-1.6-5.7s-1 3-1.6 3.8c-.8.7-2.6.5-2.7.5l-2.2 5.6c-.7 1-.7 0-.6-.9l1.2-5.5-.8-1.8c-.5-1.4-1-4.9-1-6.8 0-2-.8-1-1.5.3l-2.9 6q-1 3-.8.5c.3-1.6 1.8-5.5 1.8-5.5l-.1-1.4-.5.2q-.9.3-2.2-1.1c-.7-1.2-1.1-4.6-1.1-4.6l-3.3 2.8c-1.8 1.4-.6-.1 0-1l3.3-4v-3.9l-1.8 1.1c-1 .3-2.2.3-2.2.3l-3 5.1a25 25 0 0 0-1.1 11s1.8.2 3.4-1.2zm26.4 51-1.9-3.6q.2 0-1.8 3c-1.5 2-4.6 5-4.6 5s.4 5.7 1.8 9.3c1.4 2.9 2.6 5.4 4.6 7.6q2.8-2.4 4.7-6.2c1.4-3.1 1.8-8.6 1.8-8.7s-3.2-4-4.6-6.4"/><path fill="#b96b29" d="M499.3 696.7c.1 1.6.2 4.5.7 5 .5-.3.5-3.2.6-4.8l.2-4.6-1.6-.2z"/><path fill="#d4af3a" d="M500 375.8c-5.9-.8-12.5-3-16.3-5.4l-4 .6a47 47 0 0 0 20.3 7.7c9 1.2 14 .8 20.3-1.4l-4-1.8a40 40 0 0 1-16.3.3m21-3.3c-.5-.6-3-3.5-3.8-4.2-.6-.6-.1-1.6 0-2.2.3-.5 3-1.2 4.7-1.5s1.4-.8 1.4-.9-1-1.5-6.9-3.4S500 357 500 357s-10.5-1.7-16.4-1.8c-6 0-6.9 1.2-7 1.3 0 0-.2.4 1.4 1.3 1.8.9 4.5 2.4 4.8 3 .1.6.5 1.7 0 2.2-.7.4-3.4 2.5-3.8 3q-.8 1 .2 1.4c.7.2.7.2 2.8 0a73 73 0 0 1 36 5.5c2 .9 2 .9 2.8 1s.7-.8.2-1.4"/><path fill="#d4af3a" d="M514.3 374.9c-4.1-1.3-6.7-2.4-14.3-3.5-7.6-1-10.1-1-14.2-1 2.6 1.8 6.6 3.2 14.2 4.4 7.6 1.1 11.6 1 14.3 0m-15.6-79 3.2.2-.3-3.8 3.3 1.2.2-3.7h-3.6l.7-4-4-.6.8 4.1-3.5-1v3.7h3.4zm6.9 7.2-4.2-.7v-4.9a6 6 0 0 0-2.4-.4v5l-4.3-.7a8 8 0 0 0-.2 2.7l11.2 1.8v-.8l-.2-2z"/><path fill="#1d5e91" d="M500.1 311q4 .4 5.4-3.9l-10.7-1.6q1.4 4.6 5.3 5.6m2.3-13v3.4l2.8.4a9 9 0 0 0-2.8-3.8m-4.6-.7a6 6 0 0 0-2.8 3l2.8.4z"/><path fill="#b96b29" d="m503.3 360.5-3.3-2.6-3.4 1.8c-1.2.6-1 .4-1.4 1.5q-.3 1.6.5 2l4.3 3.7 4.7-2.3q1-.6.4-2c-.2-.9-.7-1.3-1.8-2.1"/><path fill="#d4af3a" d="m496.4 360.9 3.7 3.1 3.6-2-3.7-3zm3.6-19.1s-.4 1.6-.8 2.4q-.6 1-.6 2.2.5 1.5 1.4 1.8.9 0 1.3-1.3 0-1.3-.6-2.5c-.4-.8-.7-2.6-.7-2.6m.7 8.3q0 .8-.7.8-.6-.1-.7-1t.7-.9q.6.2.7 1"/><path fill="#d4af3a" d="M497.5 344.7s1.2-1.6 1.7-2.7l.8-2 .8 2.2c.5 1.3 1.6 3.3 1.6 3.3.1 0 1.5-1 2.7-5.2.8-4.4-.2-9.1-.7-14.3-.4-5-.8-13.8-.8-13.8q-1.9 1.1-3.6.9a8 8 0 0 1-3.7-2s-.4 8.6-.8 13.5-1.5 9.4-.6 14c1 4.7 2.6 6 2.6 6.1"/><path fill="#b96b29" d="M502.9 335.6q-.3 3.4-3 3.4-2.5-.7-2.8-4.3.2-3.4 2.9-3.4 2.6.8 2.9 4.3m-.1-9q-.3 3.3-2.8 3.2-2.6-.7-2.8-4 .2-3.4 2.8-3.3 2.5.8 2.8 4m-.2-8.5q-.1 3-2.6 3-2.5-.6-2.7-3.9.1-3.1 2.7-3 2.3.6 2.6 3.9"/><path fill="#d4af3a" d="M501.5 334.7q0 1.8-1.5 1.8-1.5-.3-1.6-2.3.2-1.8 1.6-1.8 1.3.5 1.5 2.3m0-9q-.2 1.8-1.5 1.8-1.4-.4-1.5-2.2 0-1.8 1.5-1.8 1.3.4 1.4 2.2m-.1-8.6q-.1 1.6-1.3 1.5-1.3-.4-1.3-1.9t1.3-1.5q1.1.4 1.3 2"/><path fill="#b96b29" d="M499.9 634.5q.3 0 .2-1.7l.4-5.6c.2-1.7-.3-1.6-.6-1.6-.3.2-.5 1.2-.5 2l.1 5.8c0 1 .2 1 .4 1"/><path fill="#d4af3a" d="M469.7 662c1.3-.8 2.4-1.9 5.3-4.1 3-2.4 4-5 4-5l-1-.2q-1-.4-1-2.3c-.1-1 0-3.2.1-5.7a19 19 0 0 0-.3-4.7s-1.2 1.4-3.1 2.5c-2 1-2.6.4-2.7.3l-.5-2.7-2 4.9a29 29 0 0 1-6.5 7.1c-2.3 2-4.7 4-6.6 4.7-1.7.7-.8 1.8-.7 1.9 0 .1 1.8 2.6 6.6 4.7 5 1.7 7-.2 8.4-1.3"/><path fill="#d4af3a" d="M486.4 662.1c-1.7-.6-2.6-1.5-3-4.1-.2-1.7 0-8 0-8l-1.2 1.5c-.7 1-2 1-2 1l-1 2.2q-.7 2.1-3 4l-4.8 3.8a29 29 0 0 1-4.4 3.7c-1.7 1.1-3 2.7-3.7 6-.5 3.3-.1 4.2 1.8 4.4s2.1.4 5.2-.2c3-.8 7.4-4.5 10.6-6.9s5.5-7.3 5.5-7.4"/><path fill="#d4af3a" d="M495 667.3c-.1 0-1.3-2.5-1.9-5.1l-1.3-7.8-1.5 4.4c-1.2 2.8-2.7 3.3-2.8 3.3s-.1 1.2-1.6 3.6a22 22 0 0 1-5.8 5.8 21 21 0 0 0-6.6 6.2q-2 4.7-1 7.3c1 1.4 1.8.2 3.3-.7 1.5-.6 5.6-1.1 11.4-4.3 5.7-3.8 7.7-12.5 7.7-12.7"/><path fill="#d4af3a" d="M497.4 685.3a45 45 0 0 0 1.9-10.8l-1.4-1.7c-.7-1-2.2-4.3-2.2-4.3l-2 4.9c-1 2.4-1.6 3.2-3.7 5.6-2.3 2.4-5 4.6-6.4 7.3-1 3-.5 8.3.3 10.6 1 2 1.9 1.7 3.2.2l3.7-3.9c2.1-2.2 5-4.9 6.6-7.9"/><path fill="#b96b29" d="M478.4 616.1c.9-2.2 1.9-4.9 2.6-6.3l1.3-2.9s-2 2.3-2.8 4q-1.1 2.5-1.7 5.2c-.4 2-.2 2.3.6 0m8.2 3.3.6-2.5s.2-1.4.1-1.6c-.3 0-1 .7-1.6 3.3l-1.3 6.2a26 26 0 0 0 2.2-5.4m6.5 8.1.4-1s.6-2.9.6-3.5-.1-1.3-.7 0c-.6 1.5-.6 3-.7 3.6-.2.7-.7 2.7-.6 3 .2.1.6-1 1-2m-20 23.7-1-.8-1.2 1.8c-.7 1-1.5 1.3-2 2.1q-1 1.5-2.8 2.8-2 1-1.6 1.3c.3.3 1-.2 1.1-.2 0 0 .4 0 2-1 1.6-1.2 2-1.8 3-2.9l2.5-3m7 12.3q1-1.2.8-1.8-.4-.9-1.3 0l-2.9 3.2-2 1.8-3.1 2c-.8.6-.1.7 0 .7l1.2-.5 2.5-1 1.7-1.2a22 22 0 0 0 3-3.2m8.1 8.8c.5-1.3 0-1-1-.6-.7.4-2.7 2.8-3.8 3.8q-1.6 1.2-3 1.7c-1 .5-1 .8-1 1.1q.1.5.9.2l1.7-1 1-.2q.8 0 2.5-1.8c1.2-1.2 2.1-1.8 2.7-3.2m3.8 10.7c-1.5 1-3.8 3.2-4.6 5q-1 2.5-.8 3.1.5.3 1.2-.8c.3-.7 1-1.6 1-1.6s2.4-2.9 3.3-3.6c1-.7 2.3-2.5 2.7-3.8a4 4 0 0 0 0-2s-1.5 2.6-2.8 3.7"/><path fill="#c52126" d="M453.9 394.8a25 25 0 0 0-8.6-4.8 21 21 0 0 0-9.7.1q-3.3.7-5.8-.5-4.1-2.6-5.4-9c-.2.2-2.2 3.6 0 9q2 3.5 4.4 4.6c5.3 1.9 10.3-1.2 14.7-1.1 4.3.6 7.3 4 7.5 4.3a2 2 0 0 0 2.4.4c1.4-1 1.7-1.6.5-3"/><path fill="#d4af3a" d="m438.8 599.2-1.2-.4c-.8-.2-2.3-1.1-2.8-1.5q-.7-.6-1.6.1c-.5.6-4.2 3.1-4.2 3.2l6.2.9c2.3 0 3.5-2.1 3.6-2.3"/><path fill="#d4af3a" d="M456.3 600.4v-.9l-.8-2.6s-1 .7-2 2c-1.1 1.5-2.4 3.7-3 4.6-1.1 1.7-2.4 3.2-1.3.5 1.3-2.8 1.7-4 2.7-5.7q1.6-2.5 1.6-2.7l-3.5-1.2q-3.7-1.6-5.4-3.6l-3.4-3s-4.4 1.8-6 2.2c-1.8.3-2.7.5-1.1 1.8s3 1.9 3.7 2.7a13 13 0 0 0 4.8 2.4c1.6.3 3.7.6 3 2q-1.4 1.8-3.2 7.7a40 40 0 0 0-1.1 9.5l.1 3.7s1.9-2.4 6.8-6c4.9-3.5 6.7-4.6 7.6-5 1-.5 1.3-.4 1.2-2z"/><path fill="#d4af3a" d="m475 582.9-1-.7h-.1c-.7.5-3.4 2.6-4.8 5.1s-2.3 2.6-1.1-.1a23 23 0 0 1 4.4-6.4q-3.7-2.9-7.5-7c-.4.9-1 2.3-1.7 3.2a11 11 0 0 1-3.3 2.3s1.7-2.3 2.4-4.2q.6-2 .8-3.3a56 56 0 0 1-5-7.1 24 24 0 0 1-4.1 9.6c-4.2 5.2-11.3 7.1-11.6 7.2 0 0-2.5-.1-.5 1 2.3 1.3 3.7 2.6 8 2.3s4.5-.5 5-.7c.7 0 2.2.2 0 1-2.2.7-6.8 1-8.8.6-2-.6-4.4-1.5-1.8.9s3.8 3.2 5.5 3.6c1.6.3 2.3 1 4 1.3 1.5.2 2-.1 3.1-.3q1.9 0 2 1.2c-.2.6-1.5 2-1.6 6.4q.2 6.5.6 8.5c.3 1.3 1 3.4 1.5 4.6.4 1.3.5 2.4 1 0l2-8.2.7-3.6c.3-1.3 1-2 .7.1l-1.3 7c-.4 2-1.2 5.6.2 2.9 1.5-2.7 6.6-9.9 7.4-11.2l2.2-3.5c.7-1 2.3-2.5 3.3-4 .8-1.4 3-4 4-5zm-71.3-191c.3 4.4 3.6 13 5.6 17.7 2 4.8 2.5 6.4 2.2 6.8-.4 0-1-2-2.2-4.3-1.1-2.1-3.3-7-5-10.7s-4.5-12.2-4.8-13-.4-1.3-1.4-.5c-.8 1.2-2.4 9.4-.5 16.2 2.2 6.4 5.1 11.3 6.4 13.6 1.4 2.5 2.8 5.8 2.8 6.2-.3.1-.7-.6-2.3-3.1l-6-9.7c-1.3-2.5-3.2-7.3-3.9-9q-.4-.9-.8-.3c-.6.8-1.4 2.3-1 7.4.6 7 3 11 5.4 15 2.5 3.8 4.4 6.8 4.3 7.3-.5 0-2.5-2.6-4.3-5.1s-5.7-8.3-6.6-9.9c-1-1.5-2-1-2.2 5 .4 5.9 4.8 12.3 6.9 16s4.2 5.8 4.3 6.4c-.5.4-2-1.1-3.5-2.7l-7.2-7.3c-1-1-1.3.5-.2 6.4a32 32 0 0 0 7 13c2.2 2.5 5.2 5.3 5.3 6q-.5.7-3.6-2a46 46 0 0 0-6.1-4c-1.8-.6-1.8.8-1.8.9 0 .2-.1 4.5 2.2 8.9 2.7 4.2 5.4 6 8.2 7s3.1 1.3 3 1.8q0 .8-.9.6c-.6 0-3.1-.1-5.5-.4q-3.5-.4-3.5 1.7c0 1.6 0 3.2 3.4 7 3.7 3.5 7.3 4.6 9 5.2 1.7.8 1.8 1 1.4 1.5s-1 .5-3.7.5c-2.7.2-4 1.2-4.5 2.1-.3 1.1.2 3.6 2.3 6 2.3 2.3 4.8 3.2 9 3.5s5 .2 5.3 1.2c0 1-1.1 1-3.3 1.2s-3.5 0-4.8 1.2q-1.4 2.3 1.7 6.2c2.3 2.1 6.7 2.8 9 3 2.3 0 5-.4 5.4.3q-.1 1.1-3.6 2.4c-2.2.8-2.7 1.2-3.2 2.4-.3 1.3 0 2.3 2.5 4a10 10 0 0 0 8.2 1.3c2-1 2.8-1.3 3.3-.8q.4.8-.5 1.5c-.5.7-2 2-4.1 2.6-2.2.5-2.3.5-3.1 2.7q-1 3.7 5 5.1c4 .6 8.7-.6 10.6-1.6 1.7-1.1 2.2-1.3 2.5-.8q.6.6-.6 1.5c-.9.8-3.4 2.7-4.7 3.2s-1.4 1.4-1.4 2.8-.3 3.3 3 5.2c3.7 1.5 7.3 1.3 11.2-1.7a9 9 0 0 0 2.3-2.5 54 54 0 0 1 .3-11.1q-1.3-.2-3.5-1.7c-2-1.6-2.9-4-3.4-5.7-.6-1.4-1.1-1.5-2-1.3q-1.1.6-2.8.4a10 10 0 0 1-5.4-4.7c-1.7-3.2-1.5-5.8-1.5-7.3-.3-1.4-1.6-.7-2.6-.7-.9-.2-3-1-5.4-3.3-2-2.6-2.2-5.1-2.4-6.4q-.5-1.8-1.8-2.5c-.7-.5-1.7-1-3.3-2.9a15 15 0 0 1-2-6.4c-.3-1-1-1.3-4.1-3.9-3-2.9-2.9-6.7-2.7-8.8.3-1.7 1.4-3 1.6-3.7-.1-.7-1-1-2.1-2s-3.4-2.6-3.7-8c.2-5.2 2.3-5.4 2.5-5.5l-1.5-1.3a12 12 0 0 1-3.9-7c.1-3.2 1-4.3 1.8-5s2.8-1.2 2.8-1.2a9 9 0 0 1-1.8-3.8q-1.1-4.2.5-7.5c1.5-2 3.4-1.8 4.7-1.6 1.2.3 2 1 2.6.7.4-.4.5-.7 0-2-.3-1.4-.4-4.2 0-5.3.3-1.1.4-2.8 3.3-4 3.1-.5 5.8 2.1 7 3.2 1 .7.6-.9.5-2.3s-2-4.8-4.2-9.9a137 137 0 0 1-10.4-34.3c-.4-2.3-1-1.4-1-1.3s-.6.2-2.3 5.5a48 48 0 0 0-1.7 14.5"/><path fill="#d4af3a" d="M455.4 495.1c-1.8-.5-3.8-2-5.8-5.8s-4.3-4.9-9-5.6c-4.7-.8-6.5-3.6-7.9-8.3-1-4.8.2-9 4.9-11.8 4.7-2.6 6.7-5.5 7-11 0-5.6-4.6-12.8-9.6-21.3-4.7-8.3-8.6-19.5-8.6-19.6 0 .1-1.3 2.3-1.4 5 0 2.6.5 5 0 5.8-.8.5-1-1-3.8-3.3-3-2-5-2.5-7 0-1.5 2.8 0 7.2 1.7 10s2.7 4.3 2.4 5.2c-.6.6-2.6-1.5-3.6-2.5s-2.6-3.6-5.4-3.9c-2.8.1-3.6 1-4 4 0 3.4 2.4 6.1 4.3 7.8q2.7 2.3 2 3-.6.5-1.7-.6c-.9-.4-2.8-1-4.4-.5-1.6.7-3.4 2.6-1.6 6.4a17 17 0 0 0 7.5 5.7c.9.3 1.2 0 1.4 1-.2 1-1.7.8-4.3.6-2.4 0-3 2.6-2.7 5.3.7 2.6 4.1 5.4 6.5 6.4 2.3.7 3 .4 3.2 1.3.1.9-.2 1.1-1.5 1.5s-3.4.4-4 3c-.5 2.6-.5 3.6 1.3 6.3a7 7 0 0 0 5.7 2.4c1-.2 1.8-1.2 2.8 0 .7 1.5-.6 2-2.3 3.4-1.4 1.5-1.3 3.7 1.2 6.3 2.7 2.2 5 1.9 6.2 1.6 1.1-.6 2.3-2.3 3.1-1 .4 1.6-1.9 1.7-3.4 3.6-1.1 2.1-.8 5 1.7 7.7a7 7 0 0 0 7.2.8q1.2-1.3 2.1-.2c.5 1-.2 2.5-.7 4.2-.6 2-1.4 6 2.2 9 4 2 6.8-1.2 7.6-2.2q1-1 1.8-.3.6.7-.2 1.9a7 7 0 0 0 1.3 7.1c2 2 3.6 2.2 4.8 2.1.6-2.7 1.3-5.6 2-9.8h-.5c-.4 0-.4.6-.4.9q0 .5-.3.5c-.3 0-.3.2-.8.6q-.7.7-1.1.5c-.1-.3.8-1 1.3-1.4l1-1.8q0-.7.8-1.5l.5-.7a180 180 0 0 0 1.7-17.5zM380 409.6a69 69 0 0 0 9.6 18.1s-.8-2.7-1.1-4.6c-.3-2 0-4 0-4l-4-8.4c-2.5-5.8-4-13.9-4-14s2.5 8.4 4.3 12.9c1.9 4.4 4 8.2 4 8.2 0-.2.8-3.4 1.3-3.8q.7 0 1.4 1.4c.5.9.8.8.8.8l-1.6-4.1-1.5-3.2c-1.5-3.4-4.6-9.8-6.3-16-1.6-6.3-5.1-21.8-5.8-26.3s-1.2-2.2-1.9 1a54 54 0 0 0-.9 14.9c.6 7 1.8 15.7 5.7 27m5.1 30.1 3.7 4-.6-2.5-.3-4-3-4a70 70 0 0 1-5.7-9c-2.9-5.4-.6-2 2 1.8 2.4 4 7 9.8 7 9.8v-1.2q.1-1.5.8-2.6c.4-.7.2-.8-2.5-3.9-2.6-3.1-9.3-14.3-12.2-20.9s-5.8-15.3-5.8-15.3c0 .1-1.3 12.1 4.1 26.7 5.7 14.3 11 19.4 12.5 21.1m29.3 82.6c2.9-1.7 2.3-5.2 2.2-5.5l-3.6 1.2c-1.8.6-5.9 1.6-7.6 1.6-1.7-.2-1.7-.5-1.7-.9 0-.2 1.1.2 3.6 0 2.5-.6 6.6-2.8 7.4-3.4q1.2-.7-.4-1a5 5 0 0 1-2.4-1.6c-.5-.5-1.5 0-4.3.5s-8.4 1-12.9.6c-4.4-.7-8.4-2-9.1-2.4-.8-.2-1.4.1.7 5.3 2.4 5.2 9.3 8.5 14.7 9.2 5.2.4 10.2-2.3 13.4-3.6m-13.8-11.9c5.5.6 7.2-1 7.4-1.1 0 0 0-.4-.8-2-.6-1.6-.6-4-.6-4l-3.4.2q-3.4.5-7.7-.8c-2.8-1-1.6-1.2.7-.6 2.4.5 6.4 0 8-.4 1.3-.6.8-1.2-.2-1.8l-3.5-3s-6.4 0-12.5-1.5c-6-1.7-9.8-4-11-4.5-1.2-.3-1.2.2-1.2.3s-.3.6 1.8 5.4c2.3 4.7 6 7.9 9.6 9.8q5.3 2.8 13.4 4m-1.3-17.2-.6-2c-.2-1.6.6-2.5.6-2.5s-1.2-.7-5.2-1.9-4.2-1.6-6.6-2.6q-4-1.9-4-2.6 0-.4 2.2 1.2c1.5.8 7.5 2.5 10.1 3.3q3.9 1.4 4.5 1l2-.6-2.4-1a10 10 0 0 1-3.3-2.2c-.7-.8-1-1-4.2-2s-5.9-2.6-11.7-6.2a62 62 0 0 1-11.4-8.9c-1.2-1.4-1-.5-.8 1.2.3 1.8.4 3.7 3.2 8.8a27 27 0 0 0 11.8 11.8 42 42 0 0 0 15.8 5.2m-22-27.3a45 45 0 0 0 16 10.7c.1-.5-.4-2.6-.1-4 .5-1.4 1-1.3 2.7-1.2 1.6 0 .5-.5.2-.6-.4 0-.5 0-3.1-1.3s-5.3-2.2-9-4.5c-3.6-2.4-4.5-3.6-4.5-4.1.2-.1 1.5 1.2 5 3.5 3.4 2 7.2 3.3 9.3 4.2 2.2.8.4-.6-.7-1.5-1-1-2.4-4-2.4-4.1a58 58 0 0 1-16.4-10l-3.4-3.4-5.2-5.8c-1.3-1.4-1-.4-.8.5s1.1 4.5 3.1 8.9c2.1 4.3 2.8 5.6 9.4 12.7m-1.1-18c6.6 7.7 12 10.7 13 11.3s.8 0 .6-.8l-.3-3.2-4.9-4.4c-2.5-2.4-5.4-5.5-7.3-7.5s-.8-1.7-.2-1l5.9 5.7 6.6 6.2s0-1.1.6-1.8 1.8-.4 1.9-.4-.7-1-1.1-1.9-2.5-2-5-4a83 83 0 0 1-9.8-10.6c-3.1-4-9.3-13.8-9.7-14.6q-.6-1.2-.7.2c-.1 1.4-.3 1.5.4 5.8.7 4.4 3.6 13.2 10 21m22.9-63.2 2 5.2 1.4 3.6q.2 0 0-2v-5l.3-3q-.1-1.7-.4-2.8c-.2-1.2-1.2-6.4-1.6-10.1s-1-9-1-13.6c.2-4.6.5-2.2.6 0q0 3.3.7 11c.6 5.3 2.1 13.5 2.1 13.5l.6-2.9 2-5.7c.5-2 .3-2.4.3-2.4s-2.2-15.2-2.9-22.3l-1.5-25.6c-3.3 4.3-5.7 15.7-6.2 27.1-.3 8.6.6 16.6 1 19.8q.8 9.7 2.5 15.2m-7.3 22.4q.1-5.2 2.2-6.3s-1.3-3.6-2.6-8.5c-.8-3.4-1.5-7.7-1.9-11-.8-8-1.6-16.3.2-2.6a88 88 0 0 0 3.8 18.6l2.5 5.9a65 65 0 0 1 .6-16 159 159 0 0 1-8-43.7l-.2-7.3c0 .1-3 2.8-4.2 19a138 138 0 0 0 7.6 52m34 128.5-2-2c-1.2-1.8-1-5.1-1-5.3l-1.4 1.2q-1.7 1.4-3.8 2.4l-3.2 1.4q-1.3.2.1-.8c.8-.5 1-.7 3-1.6s5.9-4.9 6-5l-2.6-.5c-1.7-.4-3.7-1.7-3.7-1.7s-1.6 1.7-8.2 4.7a40 40 0 0 1-12.1 3.3c0 .3.8 4.3 3.8 6.6 2.8 2 6.1 3.2 13.3 2 7-1.5 11.8-4.7 11.9-4.7m8.6 10.4c.3-3.8-1-6.5-1-6.6l-1.4 1.3c-1 1.1-2.4 3-5.2 4.7-2.8 1.4-3.7 1.3-1-.4 2.6-1.8 6.5-6.5 6.5-6.5l-1-.7c-1.2-.6-2.7 0-10.2 5-7.6 5-11.6 4.7-11.7 4.7.1.3 3.2 5.5 12.2 6.7 9.1.5 12-4.3 12.8-8.2m17-2c-.1 0-1 1.7-2.4 2.8a15 15 0 0 1-4.9 1.2l-.8 1.7c-.7 1.1-2.3 3.7-3.8 5-1.8 1.4-3.8 2-4.2 1.6 0-.4 1.3-1 3-2 1.5-1.2 2.9-3.2 4-4.7.8-1.5-.4-1.4-.5-1.4l-3.6-.7c-1.7-.4-1.4-.2-1.9.9q-.6 1.3-2.5 3.8l-4.5 6.5c-.9 1.5-.3 2-.2 2 0 .1.4 1 4.4 2.3q3.7 1.3 8-1.1 2.5-1.8 5.3-5.5a23 23 0 0 0 4.5-12.3m2.1 15-1.5 2.3a41 41 0 0 1 2.2-5.8 55 55 0 0 1-1.6-6.8c-.5 2-1.9 7.3-3.5 10.8-2.2 4.3-3.7 5.4-2.7 7 1.4 1.4 3.3 1.9 6.1.6 2.5-1.6 3.2-4 3.6-6.5l-1.2-3.1q-.5.3-1.4 1.5m1.3-180q-.2 2.1-1.8 2-1.7-.4-1.9-2.5.2-2 1.9-2 1.6.4 1.8 2.5M449 374c1.7 0 2.6-.7 4.4-.3q3.2 1.2 8.7 6c3 2.2 6.4 3.4 10.1 2.7q1.5-.5 3-1.4c4.1-3.2 3.3-9.1 3.3-9.5q-5.1 4-11 2.8l1 1.3c.7 1 1.6 2 1.4 2.6-.5 0-1.9-1.8-3.3-3.5a25 25 0 0 0-6.7-5.6q-5.5-2.9-9.7-1c-2.5 1.8-2.7 3.8-2.4 5q.3.8 1.2.9"/><path fill="#d4af3a" d="M496.4 429.7c-.8-.4-2-1-3.9-3.4a195 195 0 0 1-6.5-10.7q-.8-1.9 1-2.7c1.1-.7 2-2.4 2-2.5 0 0-2.5-1.8-4.4-3.8-1.7-2-5.7-7.6-6.4-9-.5-1.3-.3-1.4.6-1.7s1-1 1-1l-3.6-4.1-4.1-5.8c-2.9.9-6.6-.1-9-1-4-1.7-6.8-4.2-6.9-4.3l-.6 2.5c-.7 1.6-2.1 2.1-4.1.3a8 8 0 0 1-1.5-5.4q0-.2-4.5-3.5c-3.2-2-5.3-2.4-7.9-1.3-2.4 1.5-3.5 5.4-3.7 9.1.2 3.4 1.3 2.3 1.7 1.8.3-.6.8-2.7 3.9-3.1 3.2 0 5.7 2 9.4 6.6 3.6 4.5 4.3 5 6 7.7 1.7 2.9.5 3.8-2.6 4.8-3.2.5-6.7-2.2-7-2.3-.4.7 1.2 4 3.9 6 2.8 1.7 5.7 1.4 8.5.4 1.8-.6 2 .2 2.6 1.1a28 28 0 0 1 4 13.3q2.4-1 2.8-3.8c0-1 .2-2.4 1.2-1.1a44 44 0 0 1 1.8 11.6c0 3.2-.7 7.3-.7 7.3h.7q.6 0 2.4-1.2c1.1-.6 1.2.2 1.2 2 0 1.7.4 5 2 11.2a21 21 0 0 0 4.2 8.4l1-3.3c.5-2.3.8-6.7.9-10.7-.1-3.9-.8-12.5-.8-12.5 0 .2 3.6 6 7.2 8.4q6 2.9 8.8-.4c1.4-2.3.3-3.4-.6-3.9"/><path fill="#d4af3a" d="M472.3 441.2s-1.1 3.2-1.7 4.3q-.9 1.5-.9 1.3s1.2 1.3 2.8 2.3 3 1.6 3 1.6a51 51 0 0 1-3.2-9.5m22 1.4-.9-3c-2.4 0-6.2-1.8-8.3-3.7 0 .1 1.7 4.8 3.3 6.8 1.7 1.9 2 2 2 2-.2 0-1.6 0-4-3.2-2.2-3.5-3.3-7-3.3-7s.4 8-.4 13l-1 5.4s4.6 1.6 10 .6c5.3-1.2 5.7-1.7 5.7-1.7s.6-.2-.2-1.8-2.3-5.4-3-7.4"/><path fill="#b96b29" d="m484.6 423.4-1.8-3.5s-.5.7 0 1.9 2.8 4.2 4.4 5.8a12 12 0 0 0 3.2 2.1l-.1-.4c-.1 0-3.9-3.2-5.7-6m-6.5 16-.4-11.8c0-1.5-.6-1.2-.7-1.2l-.8.3 1.6 15.2c.2 1.6.7 1.5 1 1.5-.4-.7-.6-3.5-.7-4m-10-45.6c-.7-.9-1.9-1.8-.7.5 1.4 2.2 3 5 3.6 7 .5 2.4.8 4.6 0 4.1-1-.6-1.5-.8-2.4-2-1-1.1-2.7-3-3.4-3.5-.8-.3-1.8-.3-1 1.4q1.4 2.4 4.1 5.5l4 4.4 2 2s-1-8.2-2.5-12.3q-2.7-5.8-3.7-7.1m-32.8 134a8 8 0 0 1-2.9 1.4s-.6-.1-.7.3.8.1 1.8 0c1-.2 2.2-1.1 2.7-1.6q.9-.5 1-1.7c-.4-.8-.7.4-2 1.6M446 537l-2.3 2.2s-.7.5-1.3.7q-1 .6-.9.8h.9a15 15 0 0 0 3.5-2.6q1.1-.9.7-1.3t-.6.2m-43-110.1c.5.7.8 1.5 1.1 1.3q.3-.3-.5-1.5l-.9-1.3-1.1-2.3c-.4-.6-1-1-.2.5zm-3.2 9.3 1.4 2q.7 1.6 1.2 1.3c.1-.4-.7-1.3-1.3-2.2a12 12 0 0 0-2.7-3.5zm1.2 16q1.6 1.8 2.2 1.3.2-.7-.8-1.5a36 36 0 0 1-4.8-5 9 9 0 0 0 1.5 2.6q.6.5 1.9 2.5m2.3 13c0-.5.1-.7-.6-.9l-1.6-.4s-1.2-.8-1.4-.6c0 .4 1 1.2 1.6 1.4q.9.3 1.5.8.5.3.5-.3m1 13.8c-1.5-.2-2.5-.7-2.7-.5q.1.5 1.4 1.2c.7.5 2 .8 3 1s1-.1 1-.8q-.2-.7-2.7-1m11.4 16.6q-.4-.4-1.6 0-1.4.2-2.9.1l-2.4-.4-1 .1q.3.3 3.1 1 2.7.4 3.8 0 1.3-.1 1-.8m4.6 11.3q-1.2.5-2.2.3l-2.3.1s-.7 0-.6.4c.2.4.4.1 1 0l2.4.3q1.7 0 2.6-.2c.8-.2 1.5-.5 1.2-1.2-.5-.6-1.1 0-2 .3m9 9.4-3.6 3q-.9.4-.6.9c.2.2.6-.3 1-.5l2.6-2c.8-.7 1.6-1.2 1.5-1.8q-.2-.8-.9.4m-15.1-106.8 1.7 3.5c1.7 2.8.7.2.4-.5l-3.5-6.9c-.8-1.3-.9-.7-.5.1zm-3.3 13.3c.2-.3-.2-.6-1.2-2.3l-2.7-5s-.5-1.4-.7-1.4c0 .3.6 2.4 1.4 3.7.7 1 1.7 3 2.2 4q.6 1.5 1 1m4.3 26.5c-.1-.8-1.6-1-2.5-1.3l-2.3-.9c-.1 0-1.5-.5-1.7-.3q-.1.4 1.3 1l3.3 1.4c1.2.4 1.8.8 2 0m-4.4-14.5q1.8 2.1 2.6 2.7c.6.7 1 1.3 1.4.9q.4-.7-1.3-1.8l-1.5-1.3-1-1c-.6-.4-1.4-1-.2.5m10.1-7.8-1.3-1.5s-.8-1.1-1-.9c-.1.4.9 1.6 1.5 2.4.6 1 1.5 2.7 2 2.6.4-.4-.4-1.5-1.2-2.6m-6.6 35.1-1.6.4q-1.1.3.5.7c1.1 0 1.6-.2 2.7-.4q1.7 0 1.4-.8-.4-.6-1.2-.3zm1.8 13.3q.2.3 1.4-.1l2.5-1.1c.8-.2.8-.4.8-1-.1-.5-.7-.2-1.7 0-1 .4-2.1 1.5-2.2 1.5 0 0-.7.4-.8.7m12.3 9.6q1.2-.8.7-1.5-.3-.7-1.2.3l-2 1.8-1.2.5q-1 .5-1 1.1.6.5 1.8-.4c.6-.5 2-1.3 2.9-1.8m5.8 11.3c.3-.3 1.3-.7 1.8-1 .5-.6.7-1.7.4-2q-.4-.1-1.4 1.1l-3.6 2.8-.7.3q-1 .6.2.6c.7 0 1 0 1.8-.6zm8.6 11.1c.7-.3 1.7-1.4 2.3-2s1-1.2.7-1.7q-.6-.5-1.4.7l-2.2 2.7-1 .8c-.8.9 0 .7.3.4z"/><path fill="#d4af3a" d="m477.8 363.4 3.5-2.8-4-2-2.7 2.4z"/><path fill="#b96b29" d="M492.2 361.7q-.4 4-3.3 3.8-3-.9-3.3-4.8.4-4 3.3-3.9 3 .9 3.3 4.9"/><path fill="#d4af3a" d="M490.9 360.6q-.2 2.3-2 2.3-1.8-.5-2-3 .2-2.3 2-2.2 1.8.6 2 2.9m-8.9-15.4c1 .5 2 .5 2 .5s.2-1.8-.5-3l-2-2.6-.6-1v2.8c0 1.2.3 2.6 1.1 3.3m2.4 2.6q0 .7-.6.6t-.6-.8.6-.7q.5 0 .6.9m-5.1-1.7-.9 1.2q.2-.1 1.3.7.9 1.1 1.9 1.2 1-.2.8-1.4-.2-1-1.5-2c-1.1-.6-1.4-.2-1.6.3"/><path fill="#d4af3a" d="M481.6 351.7c-2.2-.3-4.7-3.4-4.9-3.6-.3 2.6-1.3 3.5-3 3.8v.2c.1 0 1.7 1.3 3.6 2q1.2.4 2.6.2 1.8-.3 3-.9c1.2-1 1-3.5 1-3.6-.1.1-.2 1.8-2.3 2m-8.1-4.1c-.9-.6-2.1-1.6-2.7-1.8-.6 0-1.2-.4-1.1 1q.4 2 2 2.4 1.5 0 2.2-.6.8-.4-.4-1m-6.5-5.8q-1.6-1.5-1.8-1.5s-.5 2-.2 3.5q.5 2 2 2c.9 0 2-.3 1.7-1.3a9 9 0 0 0-1.7-2.7m1.6 6.4q0 .6-.8.5a1 1 0 0 1-.7-.8q0-.6.7-.6.7.2.8.8m1.2-10.6c-.5-4-.4-7.7 2.1-12.7 3-4.7 7-6 7.1-6.1l1.6-2.3c1.5-1.8 4.3-4 4.4-4 0 0-3.4.6-5.4 1.2v.1q-.2 3-2.3 2.9-.7-.2-1.3-.8c-1.1.3-4.4 2.4-5.4 3.3q.3.8.3 1.8-.2 3-2.3 2.8l-1-.5-.4.7q-1 2.6-1.6 5 1 1 1 2.9-.2 3-2 3v2c.1 1.1.3 1.7 1.7 2.5 1.3 1 3.1 4 3.1 4.2.2-.2 1-2 .4-6"/><path fill="#d4af3a" d="M478 315q.8-.9.3-1.8-.7-.9-1.6-.2-.8 1-.2 1.9t1.6 0m-8.7 6.8a2 2 0 0 0 .2-2.3q-.8-1-1.8-.1a2 2 0 0 0-.2 2.2q.8 1 1.8.1m-3.8 9.5q-.1 1.6-1.4 1.6-1.1-.4-1.3-2 .1-1.6 1.3-1.6 1.2.4 1.4 2M493 310q-1 0-3.9 1.5 2.3.7 2.4 3-.1 2.8-2.5 2.8c-1.4-.3-2.2-1.8-2.3-3.4l.2-1-1.8 1.3a20 20 0 0 0-7.4 10c-2 5.3-2.7 10.7-2 14.5a8 8 0 0 0 4.4 4.8l-.5-1.2.3-2.3v-2.8s.7 0 1.2.8l1.5 2.5 1.6 2.3s.6-1.2.7-2.8l-1-6.1c0-3 1-7.4 3-10.8 2-3.3 5.5-6 6.7-6.6q1.3-1 1.3-2.3l.2-2.7c0-1.6-.9-1.7-2-1.5"/><path fill="#d4af3a" d="M489 315.5q1.1 0 1.4-1.5-.2-1.5-1.4-1.7-1.2 0-1.3 1.3 0 1.5 1.2 2m6.4 35q1.6 1 2.7.3.9-1 0-2.5-1.1-1.2-2.1-.6l-2 1.4q-.1.1 1.4 1.5"/><path fill="#d4af3a" d="M498.5 352.8c-.4.7-.6 1-1.7 1q-1.9 0-3.2-1.5c-.7-1.2-1.2-2.6-1.2-2.7l-1.3-.2s-.5 2.3-1 3c-.8.5-2.4.4-3.4-.6l-1.8-2.2q-.3.4.8 2.2c1 1.3 1.5 1.9 3 2.2l8.2 1.3c.1 0 1.5.3 2.1-1q.7-1.9.3-2.4t-.8.9"/><path fill="#d4af3a" d="M486.1 349c1.3 1 1.8.6 2.4 0l.5-1s-1.2-.8-1.7-1.4q-.8-.9-1.6-1l-.6.1c0 .1-.1 2 1 3.3"/><path fill="#b96b29" d="M483 332q-.3 3.3-2.8 3.2-2.5-.7-2.7-4 0-3.4 2.7-3.4 2.5.8 2.7 4.2m2-12.5q-1.9-1.7-3.6.3a4 4 0 0 0 .4 4.6q2 1.7 3.6-.3a4 4 0 0 0-.4-4.6"/><path fill="#d4af3a" d="M481.7 331.3q-.2 1.9-1.6 1.8-1.5-.3-1.6-2.3 0-1.9 1.6-1.8 1.4.3 1.6 2.3m2-11.6q-1.1-.4-1.9.8-.5 1.3 1 2.1c1.8.5 2.4-1.8 1-2.9M442 601.8l-5.5 2.5-1.7.2c.2-.1-3 3.1-5 4.6a15 15 0 0 1-7.3 2.4 152 152 0 0 1-16.4-2c-4.2-.7-6.3.2-8.3 2.7-1.7 2.7-2 6 0 9.5 2.5 3.1 4.5 2.1 5.5.3.8-1.8.5-4 0-5.2q-.1-1.5 2-1.2c1 .1 3 .5 4.7 1.1s4.8 2.4 6.2 3.6c1.3 1.2.6 1.2-.4.9l-3.6-2q-2.4-1.6-4-2c-1 0-.7.6-.5 1.2l1 2.4-.4 2.6.5 1.4.9-2 .1-2.6q.5-1 1.8.7c.6 1.2 1.3 2.5 1.8 5.2.2 2.8-.3 4.5-.3 4.5l1 1.7-.3 3.2s.5.5 1.1-.9c.5-1.4 1.1-3.9 1.3-4.8.2-1 .5-2.4 1.4-1.1.8 1.4 1.4 3 1.6 3.8l.1 1.4s1.8-2.2 2.5-3.5a21 21 0 0 1 3.6-5c1.8-1.8 4.9-5.2 6.3-6.4l6.5-4.2c1.2-.8 1.4-.9 1.6-3.6s1.1-5 1.6-6.9zm-67.4-112-1-3c-.1-1-.6-.5-.7-.5s-1.3.8-2.3 1.1c-1 .2-1.1-.2-1.3-1l-.5-4.5c-.2-1.5-.4-1.5-.8-1.3l-2.5 1.1c-.8.5-.6 1-.3 1.7l1.7 4.6c.4 1.1 0 1.4-.5 1.7l-2.3.7q-1.3.5-.8 1.2c0 .5.8 2.5 1.1 3.4s.7.4.7.4l2-1.8c1-.5 1-.3 1.3.6l1.5 7q.4 1.3 1 .7l1.7-.5c.5-.3.8-1.5.8-1.6l-2.6-6.6c-.5-1.3 0-1.5.4-1.6l2.7-.3c1-.4.7-1 .7-1.6zm22.8 137.9c-.1-1.3 0-2.3-.6-3.4-.7-1-1.5-3-1.8-4.4-.3-1.6.1-2.2.1-3q-.3-1.5-1.7-.2c-1 .9-1.8 1.5-2 4.2.1 2.9.8 5.6 3.5 7.4 2.7 1.4 2.7.7 2.5-.6m2.8-1s-.5-.5-.8.2-.2 1 .5 2.7c.7 1.6 1.2 2 2 2.8s.3-.6.1-1.1l-.2-1.4q-.3-.4-.3-1.9c-.1-1.1-1.2-1.2-1.3-1.2"/><path fill="#d4af3a" d="M403.6 639.9c.6-1 1-1.2 2.2-1.8s3.5-.8 4.3-.8c.9-.1 2.3-1.6 2.3-3.9-.4-2.2-1.4-3-2.4-3.5q-1.6-.7-2.2 0-.3 1-2 1.7c-1 .4-1.2.8-1.8 1-.6.3-.2.8-.7 1.5-.7.4-1.3-.2-2.2-.7s-1-.6-2-.9l-3.5-.7-.7-.1q-.6-.3-.8.8c-.2 1 0 2.9.6 4.1.8 1.1 2.6 1.9 4 2.6l3.1 1.5c1.1.5 1.3.2 1.9-.8zm12.5 3.3c1-1 .5-2.5.2-3.7-.4-1-1.6-1.5-2.5-1.6q-1-.2-1.6.3-.6.7-2 1.4c-1.2.3-2 .8-3.6 1.4-1.5.8-2 2-2.7 2.5s-1.9-.2-2-.3c0 0-.8-.4-1.2-.1q-.4.5.6 2c.7 1 1.8 1.1 3.2 1.8 1.3.7 1.5.4 2 0q.6-.9 2-2.1c1-.6 2.8-.5 3.8-.5s2.7-.3 3.8-1zm0-6.4c.5.7 1 1.4 1.4.6.4-1 1-2.5.6-3.8s-1-2.3-1-2.3l-1.1 4c-.3.8-.3.9.1 1.5m-4.1-10.3c-.1-1.8-1-4.1-1-4.2 0 0-.3 1.6-.8 3q-1 2.2-1.2 2.2l1.9.7c.5 0 1 .2 1-1.6zm-7.7 2.9q2-.5 2.8-1.5c.6-.8.9-2.4.5-3.5s-1.4-2.2-1.8-2.3l-.8-.1s-.4 1.7-1 2.6-1.1 1.4-1.1 2.6 0 2.3 1.4 2.2m2.9-8.6a5 5 0 0 0-.7-2.6l-.8-1.1-.2 2.1-.1 1 .8.8c.3.3.8.7 1-.2m-17.8-52.2 1-8.2a77 77 0 0 0-6.4-22.3c-2.5-5.8-5.1-14.5-6.3-19.2a80 80 0 0 1-1.8-14.2c0-3.3 1-4.8 1-4.8s.4-.8 0-1.5q-.7-.7-1.7.7c-.6.8-1.3 2.3-1.6 3.5l-.3 1.5s-1.2-.5-3.3-.5q-3.1-.2-3.1.7c0 .6.2 1 1.7 2.1 1.5 1 2.4 1.6 3.2 2.8.7 1.4 2.6 7.6 3.3 10.6.5 3 1.7 11 2.3 17.4s2 14 4.2 20.6c1 2.7 4.3 11.7 7.8 10.8m3.8 15.1c-1.3 1.3-1.3 8.4-.8 13a43 43 0 0 0 4.5 11c.9 1.4 1 1.4 1.5 1.1l.7-.2s1.2-.4 2.2-1.3c.8-1 .6-3.3.4-5.7-.2-2.2-1.4-6.7-3.7-12.2s-3.3-6.5-4.8-5.7m1.5-6.2q-.3-4.2-3.5-4.9-1.4 0-2.1.6c-1.7 2.7-.8 7.5 2 8.4q1.5.4 2.8-.8 1-1.3.8-3.3M422 655q-.8-.2-2.3-2a21 21 0 0 1-3.2-4.5c-.3-1-.3-1.1-1.3-.8-1.1.3-2.6 0-3.7 0-1 0 0 1.7.9 3.5.6 2 .5 7.1.5 7.2l-.2 1.3q-.1 1.1.3 1.5.3.5 1.3-1.3l2.2-4.2q-.2-.2 1.5.6a8 8 0 0 0 4.2.4c1-.4.6-1.3-.2-1.7"/><path fill="#d4af3a" d="M417.2 658.5q-.7-.4-1 .2c-.3.4-.5 1.3-.6 1.7q-.3.8.2 1.3l.7 1 1 1c.4.3.4-.5.4-1.2l.3-2.6q0-1.2-1-1.4"/><path fill="#1d5e91" d="M617.8 634.6a5 5 0 0 1-1.8-1.3s-.5-.1-1 .9-2 2.2-2.1 2.2-2.1.6-2.6 2.7c-.2 2.3.7 3 1.9 3 1.2-.2 3.6-.6 5-2.4q1.3-2.5 1.5-3.6c.2-.7.4-.9-1-1.5zm3.6-17c-1-5-3.1-10.9-7.5-14.6l-2.2 10.2c-.5 2.4-.5 2.3 1 3l6.8 3c1 .5 2.3 1.6 2-1.6zm-21-7c1 .3 1-.2 1.3-2.1l2.2-11.2c-.2 0-4.5-.6-8.7 1.3a16 16 0 0 0-5.9 6.9l3.8 1.9zm-10.8 11.7-2.3-1c0 .1 1.2 5.5 2.8 8.9 1.9 3.3 3.5 4.8 7.2 5.5 3.7.3 6-1.6 6.6-3.8.5-2 1.2-3.5 1.2-3.5s-6.4-2-9-3.2z"/><path fill="#d4af3a" d="m588.5 618.8 15.8 6.3q1.8.8 2.3.5c.4-.4.5-.6 1.7-1 1.1-.6 1.1-2 1.1-2l.4-3c.2-1.6.7-2 2 0a18 18 0 0 1 1.8 7.4c.6 2.6 3 3.5 4.4 4 1.2.3 1.7 0 2.4-1.5a28 28 0 0 0 1.3-6.3c.1-1.9 0-1.7-1.5-2.4l-9.5-4.1c-1.1-.7-1-1.6-.8-2.8l3-12.7q-3-2.6-8-4l-2.2 13.6c-.5 1.8-1.2 1.7-2.7 1.2l-11.6-5.1-.8 2.4c-.7 2.6-1.1 5.5-1.1 7.2 0 1.6.3 1.6 2 2.3"/><path fill="#d4af3a" d="M623.3 634c-1.4-1.4-2.2-1.8-3 .3-.7 2.3-1 5.4-2.6 7.6-2 2.3-4 4-6.7 3.7-2.5-.6-3.7-1.4-3.3-5.3 1-3.7 4.1-4.6 5.3-6.4q1.2-3-.7-6c-1.4-1.7-3-2.1-3.7-1.8-.5.5-2 2-2.8 4.8-.8 2.9-1.3 5-2.9 6.7a10 10 0 0 1-9.1 1.5c-3.3-1.6-4.4-3-5.7-7.6s-2.9-12-3.4-13c-.7-.9-1.3-1.5-2.8-.4-1.4 1.3-1.6 3-1.7 4.7a10 10 0 0 0 1.4 6q2.2 3.8 3.4 7.5c.6 2.8 2 6-.2 6.3-2.2-.2-3-.2-4.9-2.7-1.7-2.4-8.3-9.6-10.1-11.9l-2.6-3a18 18 0 0 1-9.2-6s1.7 6.5 2 8.8l.4 3.7 9.3 7.8c2.6 2.1 8 7 10.6 9.6 2.7 2.7 4.6 5.8 9.3 5.5 4.6-.8 13.8-3.4 16.9-4.2s11-2.8 14.3-5.2c3-2.5 3.3-2.3 3.8-5.2s0-4.3-1.3-5.8m-17.7-45.4 2.3-.2c1.5.2 1 1.8.7 2.7-.2.7-.7 2.3-1.4 3.7-.5 1.4.2 1.7.7 2l2.3 1c1.3.6 1-.5 1-1.2l.3-5.3c.2-1.1.9-.7 1.3-.5l1.7 1.6c.7.5 1 0 1-.5l.8-2.7c.2-1.3-.3-1.1-1-1.2l-2.5-.3c-1-.3-.4-1.3-.3-1.4l1.3-2.8c.5-1.2.4-1.4-.2-1.7l-2.9-1.3q-.7-.4-.7.2l-.1 3.8c0 1 0 1.5-1 1.5q-1.2-.2-2.1-2c-.8-1.2-1-.8-1-.4l-.9 4.2q-.1 1 .7.8m5 31s-.1 2.5-.3 3.3c-.2.9-.5 1.9.1 2.4q1.2.8 1.9.9.5-.6 0-2.4t-1.2-3.2zm10.8 11q.4 1 1 1.3.8.5 1-.7.1-1.5-.5-3.1c-.6-1.2-.8-1.8-1.2-.4-.3 1.5-.5 2.2-.3 3zm-37.6-14.5 1.4.8s0-2.3.3-3.9.7-2.5.3-2.6q-.7 0-1 1c-.4.6-1 .7-1.5 2.6-.2 1.8.1 2 .5 2.1"/><path fill="#b96b29" d="M593.5 613.4q-.1 3-2.4 3-2.2-.7-2.4-3.6.2-3 2.4-3 2.2.6 2.4 3.6m6.8 3.1q-.2 3-2.4 3-2.3-.5-2.5-3.6.2-3 2.5-3 2.2.6 2.4 3.6m19.7 8.1q-.3 3-2.5 3-2.1-.5-2.5-3.6.3-3 2.5-3 2.1.6 2.5 3.6m-13-5q-.2 3-2.4 3-2.2-.6-2.4-3.7.2-3 2.4-3 2.1.6 2.5 3.7m1.8-7.9q-.3 3-2.5 3-2.1-.5-2.5-3.6.3-3 2.5-3 2.1.6 2.5 3.6m1.7-7.8q-.2 3-2.5 3-2.2-.5-2.4-3.6.2-3 2.4-3 2.2.5 2.5 3.6"/><path fill="#d4af3a" d="M592.5 613q0 1.4-1.2 1.4-1-.3-1.2-1.8 0-1.5 1.2-1.4 1 .3 1.2 1.7m6.8 3.2q0 1.5-1.2 1.5-1.2-.3-1.3-1.9 0-1.5 1.2-1.5 1.2.4 1.3 1.9m19.6 8q0 1.6-1.2 1.6-1.1-.3-1.3-1.8.2-1.6 1.3-1.6 1 .4 1.2 1.9M606 619q0 1.5-1.2 1.5-1.1-.3-1.2-1.8t1.2-1.5q1.1.2 1.2 1.8m1.8-7.8q0 1.5-1.2 1.5-1.1-.3-1.3-1.8.2-1.5 1.3-1.6 1 .4 1.2 1.9m1.7-7.8q0 1.5-1.2 1.5-1.1-.4-1.2-1.8 0-1.6 1.2-1.6 1.1.4 1.2 1.8m-79.2 68-5.4-5.8a22 22 0 0 1-4-6.3l1 .2q1-.1 1.1-2c0-1 0-3.2-.2-5.8-.1-2.6.3-4.5.3-4.5s1.3 1.7 3.2 3.4 2.6 1.1 2.6 1.1l.5-2.5s.8 2.5 2 5.4a45 45 0 0 0 6.5 9.2c2.3 2.6 4.8 5.3 6.6 6.6s.8 2 .8 2.2c-.1 0-1.8 2-6.7 2.7-4.9.1-6.9-2.4-8.3-3.9"/><path fill="#d4af3a" d="M513.5 666.3c1.8 0 2.6-.6 3-3.2.2-1.6 0-8 0-8q.2.1 1.2 2a5 5 0 0 0 2.1 1.5 19 19 0 0 0 4 7.5c1.6 1.7 3.5 3.6 4.8 5.2q1.9 2.7 4.3 5 2.6 2.2 3.7 7.1c.5 3.5.2 4.3-1.8 4-1.9-.5-2-.3-5.1-1.8-3-1.8-7.4-6.8-10.6-10.2a39 39 0 0 1-5.6-9"/><path fill="#d4af3a" d="M505 668.8s1.2-2 1.8-4.5l1.4-7.3 1.5 4.8c1.1 3.2 2.7 4.1 2.8 4.2 0 0 0 1.2 1.5 4q2.4 4.2 5.8 7.6c2.3 2.2 5 5 6.6 8.2q2 5.3 1 7.7c-.9 1-1.7-.3-3.3-1.7-1.5-1.2-5.5-2.8-11.4-8a34 34 0 0 1-7.7-15"/><path fill="#d4af3a" d="M502.5 686.1a50 50 0 0 1-1.8-11.4l1.3-1.3c.7-.8 2.3-3.6 2.3-3.6l2 5.6c1 2.7 1.5 3.6 3.7 6.7 2.2 3 5 6.2 6.3 9.2 1.1 3.4.5 8.5-.2 10.6-1 1.8-2 1-3.2-.8s-1.6-2.2-3.7-5c-2.2-2.9-5-6.5-6.7-10"/><path fill="#b96b29" d="M521.5 622.8c-.8-2.5-1.8-5.5-2.6-7.1l-1.3-3.3s2 2.9 2.9 4.8a30 30 0 0 1 1.7 5.8c.3 2 .2 2.3-.7-.2m-8.2.7-.5-2.6c0-.1-.3-1.5-.2-1.7q.5-.2 1.7 3.8l1.3 6.6c-.2 0-1.9-4.3-2.3-6m-6.4 6-.4-1.2-.7-3.6c0-.6.2-1.2.8.3q.7 2.5.7 3.8c.1.7.6 3 .5 3.2-.2 0-.5-1.2-1-2.5m20.1 30 .9-.6 1.2 2.2c.8 1.2 1.5 1.8 2.1 2.8a13 13 0 0 0 2.8 3.6c1.4 1.2 1.8 1.5 1.6 1.8-.3.2-1.1-.5-1.2-.6s-.3 0-2-1.6c-1.5-1.6-2-2.3-3-3.7zm-7 10.2c-.6-1-1.2-1.6-.9-2q.5-.8 1.3.4l3 4 2 2.5 3.1 3c.7.8 0 .7 0 .7l-1.2-.9-2.5-1.8-1.7-1.7c-1-1.1-2.5-3.2-3.1-4.2m-8 6.4c-.5-1.5 0-1 .9-.4.7.7 2.8 3.8 3.9 5s2 1.9 3 2.7 1 1 .9 1.4q-.1.4-.8 0l-1.7-1.6-1.1-.5q-.7-.2-2.4-2.6c-1.2-1.5-2.2-2.5-2.8-4m-3.7 9.5a26 26 0 0 1 4.5 6.3q1 3 .9 3.5-.5.2-1.2-1.2l-1-2-3.3-4.5a16 16 0 0 1-2.8-4.7c-.3-1.4 0-2 0-2s1.5 3.1 2.9 4.6"/><path fill="#c52126" d="M546 409c1.5-1 4.8-2.3 8.6-2.3 3.8.2 6.6 1.3 9.7 2.9 2.4 1 4 1.4 5.8 1q4.2-1.2 5.5-7.5c.1.3 2.1 4.4 0 9q-2 3.2-4.5 3.5c-5.2.4-10.3-4.1-14.7-5.4-4.3-.6-7.2 2-7.4 2.2-.1 0-1 .8-2.4-.4-1.4-1.4-1.8-2.1-.5-3"/><path fill="#d4af3a" d="M561.1 617.8h1.3l2.7-.8q.8-.5 1.6.6l4.3 4.3-6.3-.9c-2.2-.6-3.5-3-3.6-3.2"/><path fill="#d4af3a" d="M543.6 613.7v-.8l.9-2.3 1.9 2.4c1.2 2 2.5 4.5 3 5.6 1.1 2 2.5 4 1.3.8l-2.6-6.4c-1-2.2-1.7-3-1.7-3.2l3.6-.2a10 10 0 0 0 5.4-2l3.3-2 6.1 4c1.8.8 2.6 1.2 1 2.1-1.6.8-2.9 1-3.7 1.6-1 .5-3.1 1.2-4.7 1s-3.8-.5-3 1q1.4 2.5 3.2 8.8c1 4.4 1 8 1 9.8l-.1 3.6s-1.9-3-6.7-8a120 120 0 0 0-7.6-7.3c-1-.7-1.3-.7-1.2-2.3z"/><path fill="#d4af3a" d="m525 590.6.9-.4.2.1c.6.6 3.4 3.7 4.8 6.6 1.2 2.8 2.3 3.3 1 .1a34 34 0 0 0-3.3-6.3l-1-1.4q3.7-1.8 7.5-4.7c.3 1 1 2.6 1.7 3.7 1 1.7 3.3 3.3 3.3 3.3s-1.8-2.9-2.5-5q-.6-2-.8-3.4 2.6-2.5 5-5.7c.3 1.8 1.3 5.9 4.2 10.9 4.1 6.4 11.4 10.5 11.5 10.6s2.6.6.5 1.2c-2.2.6-3.6 1.4-8 0-4.2-1.7-4.5-2-5-2.3-.7-.3-2.1-.5 0 1 2.2 1.4 6.9 3 8.9 3.2 2 0 4.4-.2 1.8 1.4-2.8 1.6-3.8 2.1-5.5 2s-2.4.3-4 0-2-.6-3.2-1.1q-1.8-.5-1.9.6c.1.6 1.4 2.6 1.5 6.9q0 6.4-.6 8.3l-1.4 4.2c-.5 1.2-.6 2.2-1-.3l-2-8.8-.8-4c-.2-1.2-1-2.3-.7 0l1.3 7.5c.4 2 1.3 5.9-.2 2.7-1.4-3.1-6.5-11.8-7.4-13.4l-2.2-4.2c-.7-1.3-2.3-3.2-3.2-5s-3-5-4-6.3zm71.2-170.5a60 60 0 0 1-5.6 16.2c-2 4.3-2.4 5.7-2.2 6.2.4.1 1.1-1.6 2.3-3.6l5-9.4c1.7-3.3 4.4-11.1 4.7-11.9.4-.7.5-1.1 1.4 0 .9 1.3 2.4 10 .5 16.2-2.1 6-5 10-6.4 12-1.4 2.2-2.8 5-2.7 5.5.3.2.7-.4 2.3-2.5 1.6-2 4.1-5.6 5.9-8.2 1.3-2.1 3.3-6.5 4-8q.4-.8.7 0c.6.9 1.4 2.6 1.1 7.5a25 25 0 0 1-5.5 13.6c-2.4 3.3-4.4 5.7-4.3 6.3.5.2 2.6-1.9 4.4-4l6.6-8.2c1-1.3 2-.6 2.1 5.4-.3 6-4.7 11.2-6.9 14.4-2.1 3-4.2 4.6-4.2 5.3.4.6 2-.6 3.5-1.8l7.1-5.6c1-.6 1.4 1 .2 6.5a23 23 0 0 1-6.9 11.4c-2.3 1.9-5.2 3.8-5.3 4.5q.4.9 3.6-1c2-1 4.4-2 6-2.4 1.8-.3 1.8 1 1.8 1.2s.2 4.6-2.2 8.4a11 11 0 0 1-8.2 5c-2.7.3-3 .4-3 1q0 .8 1 .8c.5 0 3 .7 5.4 1q3.4.5 3.6 2.6c0 1.6 0 3.2-3.4 6-3.7 2.7-7.3 2.8-9.1 3s-1.7.5-1.4 1.2 1 .7 3.7 1.4c2.7.8 4 2.2 4.6 3.3.2 1.2-.3 3.5-2.4 5.4-2.3 1.7-4.7 2-9 1-4.2-.8-5-1-5.2-.1 0 .9 1 1.3 3.3 2 2 .8 3.5 1 4.8 2.5q1.4 2.7-1.8 5.8c-2.3 1.5-6.6 1-9 .5-2.2-.5-4.9-1.7-5.4-1.2q.1 1.3 3.7 3.4c2.1 1.4 2.7 2 3.1 3.4s.1 2.2-2.5 3.3c-2.7.9-6 .4-8.1-1q-2.8-2.3-3.3-1.7-.3.6.4 1.6c.5.8 2 2.6 4.2 3.8 2.1 1 2.3 1 3 3.5q1 4-5 3.8c-3.9-.6-8.7-3.2-10.5-4.8s-2.2-1.8-2.6-1.5c-.2.5-.2.7.6 1.7s3.5 3.8 4.8 4.6 1.4 1.9 1.4 3.2.3 3.4-3 4.3c-3.7.5-7.3-.8-11.3-4.9a14 14 0 0 1-2.2-3.3c.2-4.7 0-8-.3-11.1q1.1.1 3.5-.7c2-1 2.8-3.2 3.4-4.6q.6-1.7 2-.8 1.1.8 2.8 1.2c1.3 0 3.4-.4 5.4-3 1.6-2.9 1.5-5.5 1.5-7 .2-1.3 1.6-.2 2.5 0 1 0 3 0 5.4-1.8 2.1-2 2.3-4.4 2.4-5.6a3 3 0 0 1 1.8-2c.7-.3 1.8-.6 3.3-2 1.5-1.7 2-4.6 2.1-5.8.2-1.1 1-1.1 4-2.9 3-2.1 3-6 2.8-8-.3-1.8-1.5-3.6-1.6-4.2 0-.6 1-.7 2-1.4 1.2-.8 3.4-1.8 3.7-7-.2-5.3-2.2-6.1-2.4-6.2l1.5-1a8 8 0 0 0 3.8-6c0-3.1-1-4.5-1.8-5.5-.8-.8-2.7-1.8-2.8-1.8s1.2-1 1.9-3.4c.5-2.5.6-5.1-.6-7.6a6 6 0 0 0-4.6-2.8c-1.3 0-2.1.5-2.6 0s-.5-.8-.1-2c.4-1.3.4-4.1.1-5.3s-.4-3-3.3-4.8c-3.2-1.5-5.8.4-7 1.2-1 .4-.6-1-.6-2.5.2-1.3 2-4.2 4.3-8.7a104 104 0 0 0 10.3-31.5c.5-2.2 1-1.1 1-1 0 0 .7.4 2.3 6a52 52 0 0 1 1.7 15"/><path fill="#d4af3a" d="M544.5 508.7c2 0 3.9-.8 5.8-4 2-3.3 4.3-3.7 9-3 4.8.6 6.6-1.7 8-6 1-4.5-.3-9.1-5-13.2s-6.6-7.5-7-13.1c.1-5.5 4.7-11.4 9.6-18.4s8.6-17.1 8.7-17.2 1.2 2.7 1.4 5.3c0 2.6-.6 5 0 5.9.7.7 1-.8 3.8-2.2 3-1.3 4.9-1.2 6.9 1.7 1.5 3.4 0 7.3-1.6 9.7q-2.7 3.2-2.5 4.5c.7.7 2.6-.8 3.6-1.5 1-.8 2.6-2.9 5.4-2.4 2.8.8 3.6 1.8 4 5 0 3.4-2.3 5.5-4.3 6.6q-2.6 1.6-2 2.5.6.6 1.7-.1c1-.2 2.9-.3 4.4.6 1.6 1.2 3.5 3.6 1.6 6.8a12 12 0 0 1-7.4 3.8c-1 0-1.3-.3-1.4.6 0 1 1.7 1.2 4.2 1.7 2.4.8 3 3.4 2.7 6-.7 2.5-4 4.3-6.5 4.7-2.3.1-2.9-.3-3.2.4 0 .9.3 1.2 1.5 2 1.4.6 3.4 1.3 4.1 4 .4 2.8.5 3.8-1.3 6-2.1 1.9-4.7 1.3-5.8.9s-1.8-1.7-2.8-.8c-.7 1.2.7 2.2 2.3 4q2.5 3-1.1 6c-2.8 1.4-5 .5-6.2-.1-1.2-.9-2.3-3-3.2-1.8-.4 1.4 2 2.2 3.4 4.5 1.2 2.5.8 5.2-1.6 7.2-2.9 1.5-6.2-.2-7.3-1.3q-1.2-1.5-2.1-.7c-.4.7.2 2.5.8 4.4.6 2.2 1.3 6.4-2.2 8.3-4 .9-6.8-3.1-7.7-4.4q-1-1.4-1.8-.9-.6.5.2 2c.5 1.2 1.3 4.3-1.2 6.8a5 5 0 0 1-4.9.7l-2-10.4h.6q.4.5.4 1.1-.1.4.2.6.3 0 .8.8.8.9 1.1.9c.2-.3-.8-1.2-1.2-1.8s-1-1.5-1-2.1q0-.7-.9-1.8l-.5-.8a211 211 0 0 1-1.7-18zm75.5-65a50 50 0 0 1-9.5 15.8s.7-2.6 1-4.4.1-4 .1-4l4-7.4c2.5-5.2 4-13 4-13s-2.5 7.7-4.3 11.8c-2 4-4 7.3-4 7.3 0-.2-.9-3.7-1.3-4.2q-.9-.2-1.4 1c-.5.8-.9.7-.9.7l1.6-3.7 1.6-2.9c1.5-3 4.5-8.6 6.3-14.4a376 376 0 0 0 5.8-25c.7-4.3 1.2-2 1.8 1.5.6 3.4 1.4 8 1 15a93 93 0 0 1-5.8 25.8m-5 28.9-3.7 3 .5-2.3c.2-1.3.3-4 .3-4l3-3.1c1.2-1.4 2.7-3 5.7-7.8s.6-1.9-1.9 1.4c-2.5 3.4-7 8.1-7 8.1l-.1-1.2q0-1.5-.7-2.7c-.4-.8-.2-.9 2.4-3.3a93 93 0 0 0 18-32.2c0 .2 1.3 12.5-4 25.8-5.8 13.2-11 17-12.6 18.3m-29.2 75c-3-2.3-2.3-5.7-2.3-6l3.6 2.1a49 49 0 0 0 7.7 3.7c1.6.2 1.6 0 1.7-.4 0-.3-1.2-.2-3.7-1.1a39 39 0 0 1-7.4-5.3q-1.1-1 .5-.9 1.6-.1 2.4-1c.5-.3 1.4.4 4.3 1.7a63 63 0 0 0 12.8 3.9c4.4.4 8.4 0 9.2-.1.7 0 1.3.4-.7 5.1-2.5 4.6-9.3 6.2-14.7 5.6-5.2-1-10.3-5.1-13.4-7.2m13.7-8.2c-5.4-.9-7.2-3-7.3-3.1q-.2.2.7-1.8c.6-1.4.6-3.8.6-4l3.5 1.3c2.3.7 4.7 1.4 7.6 1.2 2.9-.5 1.6-.9-.6-.9-2.4 0-6.5-1.6-8-2.4-1.4-1-.9-1.4.1-1.7s3.5-2.2 3.5-2.2c.1 0 6.5 1.7 12.5 1.7 6-.3 9.8-1.8 11-2 1.3 0 1.2.5 1.2.6s.3.7-1.7 5a16 16 0 0 1-9.6 7.6 39 39 0 0 1-13.5.6m1.4-16.8.5-1.9a4 4 0 0 0-.6-2.7s1.2-.3 5.2-.5 4.2-.5 6.7-1q3.8-.9 4-1.7-.1-.4-2.3.7c-1.5.4-7.5.7-10 .9q-3.9.4-4.6-.1l-2-1.2 2.4-.4q2.3-.3 3.3-1.4c.8-.6 1-.7 4.2-.8s5.9-1.2 11.8-3.5a43 43 0 0 0 11.4-6.3c1.2-1.2 1-.3.7 1.3s-.3 3.7-3.2 8.2-4.4 6.1-11.8 9a36 36 0 0 1-15.7 1.3m21.9-22c-6.8 5.5-14 6.9-15.9 7-.2-.6.3-2.6 0-4-.4-1.5-1-1.6-2.6-2s-.6-.5-.2-.5l3-.6c2.7-.6 5.3-1 9-2.3 3.6-1.5 4.5-2.6 4.6-3-.3-.2-1.6.9-5 2.3-3.4 1.2-7.2 1.6-9.4 1.9-2 .3-.3-.6.7-1.3a17 17 0 0 0 2.4-3.5 46 46 0 0 0 16.5-6.1l3.3-2.7 5.3-4.7c1.3-1 .9-.2.7.7a37 37 0 0 1-3 8.2 31 31 0 0 1-9.4 10.6m1-17.6c-6.5 6.2-11.9 7.8-12.9 8.2s-.9-.2-.7-1 .3-3.1.3-3.1l5-3.3c2.5-1.8 5.4-4.2 7.3-5.8s.8-1.5.1-1c-.6.7-3.2 2.5-5.8 4.4l-6.6 4.7s-.1-1.2-.6-2c-.7-.8-1.8-.8-2-.8l1.2-1.7q1-1 4.9-2.7c2.4-1.4 6.6-5 9.8-8.4a172 172 0 0 0 9.8-12.5q.6-1 .7.4c0 1 .2 1.6-.4 5.7a38 38 0 0 1-10 18.9M600.9 414l-2.1 4.7-1.4 3.2v-2q.2-1.8 0-5l-.2-3.1q.1-1.6.4-2.6l1.6-9.8c.4-3.6.9-8.7.9-13.3-.1-4.6-.5-2.3-.5-.1q0 3.2-.7 10.8c-.6 5.2-2.2 13-2.2 13l-.6-3.1-1.9-6.2c-.6-2.3-.4-2.5-.4-2.6 0 0 2.3-14.5 2.9-21.4l1.6-25.3a71 71 0 0 1 6.2 28.7c.2 8.6-.7 16.4-1 19.6A66 66 0 0 1 601 414m7.4 24.3q-.1-5.2-2.3-7s1.4-3.1 2.6-7.8c.8-3.2 1.5-7.3 2-10.4.8-7.9 1.5-16-.3-2.8a75 75 0 0 1-3.8 17.7l-2.5 5.3a71 71 0 0 0-.6-16.1s3-8 5-17.7c1.8-9.8 3-18.7 3-24.1l.3-7.2s3 3.5 4.1 20a128 128 0 0 1-7.5 50m-34.1 119.6 2-1.4c1.3-1.4 1-4.8 1-5a51 51 0 0 0 5.3 5l3.1 2.3c1 .4.7 0 0-.8l-3-2.4c-2-1.5-6-6.6-6-6.6l2.6.1c1.6 0 3.6-.7 3.7-.7 0 0 1.6 2.2 8.1 7 6.7 4.6 12.1 6.4 12.1 6.4 0 .3-.7 4-3.8 5.6-2.8 1.2-6 1.6-13.2-1.5-7-3.4-11.9-8-12-8m-8.5 8c-.4-4 1-6.2 1-6.3l1.3 1.7c1 1.4 2.5 3.8 5.2 6.1s3.7 2.3 1 0a69 69 0 0 1-6.5-8.4l1-.4c1.2-.3 2.8.7 10.3 7.9 7.5 7 11.6 7.8 11.7 7.8-.2.3-3.2 4.7-12.3 3.4-9-2-12-7.7-12.7-11.8m-17-6.9s1 2 2.3 3.5c1.5 1.3 4.8 2.6 5 2.6q-.2 0 .8 1.9c.7 1.3 2.2 4.4 3.8 6.2 1.7 1.9 3.8 3 4.1 2.8 0-.4-1.3-1.4-3-3-1.4-1.5-2.8-4-3.9-5.8-.9-1.8.4-1.3.5-1.3s1.8.4 3.6.4c1.7.1 1.4.2 1.9 1.4.5 1.3 1.1 2.4 2.4 4.6l4.5 7.8c1 1.8.3 2 .3 2 0 .1-.4 1-4.4 1-2.6 0-5-.7-8-3.3q-2.5-2.6-5.4-7.1c-4.6-8-4.5-13.5-4.5-13.7m-2.1 14.4 1.5 2.8a53 53 0 0 0-2.2-6.5q1-3 1.6-6.3c.5 2 2 7.9 3.5 11.9 2.3 5 3.7 6.5 2.8 7.7-1.4 1-3.3 1-6.2-1.2-2.4-2.3-3.2-5-3.6-7.5l1.3-2.8q.5.5 1.3 2M545.3 393q0 2.1 1.8 2.6 1.6 0 1.8-2 0-2.2-1.8-2.6-1.6 0-1.8 2m5.7-3.5c-1.7-.4-2.6-1.4-4.5-1.5q-3.2 0-8.7 3.3c-3 1.3-6.3 1.5-10-.3q-1.5-1-3-2.4a14 14 0 0 1-3.3-10.5q5 5.6 10.9 6.2l-1 1c-.6.8-1.6 1.5-1.3 2.1.5.3 1.8-1.2 3.3-2.5 1.4-1.1 3.3-2.5 6.7-3.5q5.4-1.2 9.7 2c2.5 2.5 2.7 4.5 2.4 5.6q-.4.7-1.3.5"/><path fill="#d4af3a" d="M503.6 430.8c.8-.1 2-.3 3.8-2.2s6-7.6 6.5-8.7q.8-1.6-.9-3c-1.2-1-2-3-2-3.1 0 0 2.5-1 4.3-2.4 1.8-1.6 5.7-5.9 6.4-7 .5-1.2.3-1.4-.6-2-.8-.5-1-1.3-1-1.3s1.9-1.4 3.7-3c1.7-1.7 4-4.5 4.1-4.5 2.9 1.8 6.6 1.9 9 1.7 4-.5 6.8-2.1 6.8-2.2l.6 2.6c.7 1.9 2.2 2.9 4.2 1.6 1.7-1.6 1.4-4.7 1.4-5 0 0 1.5-1 4.5-2 3.2-1.1 5.3-1 8 .9 2.4 2.2 3.5 6.4 3.6 10.1-.1 3.4-1.3 2-1.6 1.3s-.9-2.9-4-4.2c-3.2-1-5.7.4-9.4 4-3.5 3.3-4.2 3.6-6 5.8-1.6 2.4-.5 3.6 2.7 5.6 3.2 1.5 6.7-.2 7-.2.3.7-1.2 3.5-4 4.8-2.7.9-5.7-.3-8.5-2.2-1.8-1.1-2-.3-2.6.4a22 22 0 0 0-4 12 7 7 0 0 1-2.7-4.6c-.1-1-.2-2.4-1.3-1.5-.8 1.4-1.7 7.8-1.7 11.1s.7 7.5.7 7.6l-.7-.2q-.7-.4-2.4-2c-1.2-1-1.2-.2-1.2 1.6s-.5 4.9-2.1 10.6c-2 5.6-4 7-4.2 7.1l-1-3.6a78 78 0 0 1-.8-11c0-3.9.8-12.2.8-12.2-.2.2-3.5 5-7.2 6.2q-6 1-8.9-3.2c-1.4-2.7-.2-3.4.7-3.7m24 19 1.7 4.7 1 1.6c-.1 0-1.2 1-2.8 1.5l-3 .7s1.7-3.2 2.4-5.5z"/><path fill="#d4af3a" d="m505.7 444.4.8-2.8c2.5.8 6.3.1 8.4-1 0 0-1.8 4.1-3.4 5.7l-1.9 1.4c.1 0 1.5.5 4-2 2.1-2.9 3.2-6 3.2-6s-.4 7.9.4 13l1.1 5.8c-.1 0-4.6.3-10-2.4a24 24 0 0 1-5.8-3.6s-.6-.3.2-1.7 2.4-4.6 3-6.4"/><path fill="#b96b29" d="M515.3 428.1c1.7-2.3 1.8-2.9 1.8-2.9s.5.8.1 2c-.6 1-2.8 3.3-4.4 4.4a9 9 0 0 1-3.2 1.1v-.4c.2 0 3.9-2 5.7-4.2m6.5 17.9.4-11.6c0-1.5.7-1 .7-1l.8.6-1.6 14.6c-.2 1.6-.7 1.4-1 1.2.5-.5.7-3.2.7-3.8m10-42.5c.7-.7 2-1.2.7.7s-3 4-3.5 6c-.5 2.2-.9 4.2 0 4s1.4-.3 2.4-1.2 2.6-2.2 3.3-2.5c.8 0 1.9.2 1 1.7q-1.3 2-4 4.3c-2 1.6-3 2.3-4.1 3l-2 1.6c0-.1 1-8 2.6-11.6a34 34 0 0 1 3.7-6m32.8 143.8c1.3 1.4 2.8 2.2 2.8 2.2s.7 0 .8.5q-.2.3-1.8-.5c-1-.5-2.2-1.8-2.7-2.4s-1.1-1.2-1-2c.3-.7.6.6 1.9 2.2m-10.6 6.2 2.3 2.8s.6.7 1.3 1.2q1 .9.8 1s0 .2-.8-.2c-.7-.5-2.8-2.7-3.5-3.7s-1-1.1-.8-1.5q.3-.3.7.4m43-98.2c-.5.6-.9 1.3-1.2 1q-.2-.3.6-1.3l.8-1.1 1.1-2c.5-.5 1-.7.3.5zm3.3 10.1q-.8.8-1.4 1.7-.8 1.4-1.2 1c-.2-.5.7-1.1 1.2-2a8 8 0 0 1 2.8-2.7zm-1.2 15.7q-1.7 1.5-2.2.7-.3-.7.8-1.2a24 24 0 0 0 3.8-3q.6-1 1-.8a7 7 0 0 1-1.6 2.2zm-2.4 12.4q-.1-.7.6-.7h1.6c.1 0 1.2-.5 1.4-.2 0 .4-1 .9-1.6 1q-.9 0-1.4.3t-.6-.4m-1 13.6 2.8.1q-.2.6-1.4 1c-.8.2-2.1.1-3 0q-1.3 0-1.1-1 .4-.6 2.7-.2m-11.3 13.6q.4-.3 1.5.3c.8.4 2.1.9 3 1l2.3.2 1 .4-3 .1q-2.7-.2-3.9-1-1.2-.5-1-1m-4.6 10q1.3.8 2.2.9c.7.1 2.3.7 2.3.7s.7.2.7.6c-.2.4-.4 0-1.1-.2l-2.4-.4q-1.7-.5-2.6-1-1.4-.5-1.1-1.5c.4-.5 1 .2 2 1m-9 6.7 3.5 4c.8.6.7.8.6 1.1-.2.2-.5-.4-1-.8l-2.5-2.7c-.8-1-1.6-1.6-1.5-2.2q.2-.7.8.6m15.2-102.6-1.8 3c-1.6 2.5-.7 0-.3-.6l3.5-5.9c.8-1 .8-.5.5.3zM589 449c-.2-.4.2-.6 1.1-2l2.7-4.4s.5-1.2.7-1.2c0 .3-.6 2.3-1.3 3.3l-2.2 3.5q-.8 1.2-1 .7m-4.4 25.3c.2-.7 1.6-.4 2.6-.5l2.2-.4c.1 0 1.6 0 1.8.2q.1.5-1.3.6l-3.4.6c-1.1 0-1.8.2-1.9-.5m4.4-13.4-2.6 2c-.7.5-1 1-1.5.5q-.4-.8 1.3-1.4l1.5-1 1-.5c.6-.4 1.4-.7.3.4m-10.2-10.5 1.4-1.2s.8-.9 1-.6c0 .5-1 1.4-1.5 2-.7.8-1.5 2.3-2.1 2-.4-.5.4-1.4 1.2-2.2m6.6 36.9 1.7.8q1 .6-.5.5c-1.2-.1-1.6-.6-2.8-1q-1.7-.6-1.3-1.2t1.2 0zm-1.7 12.8c0 .2-.8-.1-1.4-.5l-2.6-1.8q-.9-.5-.7-1.2c0-.5.7 0 1.7.6s2 2 2.1 2zm-12.3 6.2q-1.2-1.4-.7-1.7.3-.5 1.2.6l2 2.3 1.2.9q.9.8 1 1.4c-.3.3-1.2-.1-1.8-.9-.6-.7-2-1.8-3-2.6m-5.7 9.6c-.4-.4-1.4-1-1.9-1.6s-.7-1.8-.3-2 .5.5 1.4 1.5l3.5 3.8.8.5q.9.9-.3.6c-.6-.2-1-.3-1.8-1.2zm-8.6 8.7c-.7-.6-1.8-2-2.3-2.7q-1-1.1-.8-2 .6-.2 1.4 1.2l2.2 3.3s.2 0 1 1.1 0 .8-.3.3q-.3-.5-1.2-1.2"/><path fill="#d4af3a" d="m522.1 370.3-3.4-4 4-.7 2.6 3.2z"/><path fill="#b96b29" d="M507.8 364.1q.3 4 3.2 4.9 3 0 3.4-3.9-.4-3.9-3.3-4.8-3 0-3.4 3.8"/><path fill="#d4af3a" d="M509 363.4q.3 2.4 2 2.9 1.9 0 2-2.3-.1-2.4-2-2.9-1.7 0-2 2.3m9-12.6c-1 .2-2-.1-2-.1 0-.1-.3-2 .5-3l2-2 .6-.7v2.8c0 1.2-.3 2.5-1.2 3m-2.3 1.8q0 .7.6.8.5 0 .6-.6t-.6-1q-.6 0-.6.8m5 0c.4.4.9 1.3.9 1.3q-.2-.1-1.2.4-.9.8-2 .6-.9-.5-.7-1.7 0-.8 1.5-1.5 1.3-.3 1.6.8"/><path fill="#d4af3a" d="M518.4 357.4c2.2.3 4.6-2 4.8-2.1.4 2.6 1.3 3.9 3.1 4.8h-.1s-1.6.9-3.6 1q-1.2 0-2.5-.6a12 12 0 0 1-3.1-1.8c-1.1-1.5-.9-3.8-.9-4 0 .2.2 2 2.3 2.7m8-1.6c1-.3 2.2-.9 2.7-.9s1.2 0 1.2 1.3q-.4 2-2.1 1.7-1.3-.2-2.1-1.2-.9-.6.3-.9m6.5-3.8q1.6-1 1.8-.9s.5 2.2.3 3.6q-.6 1.8-2 1.4c-1-.3-2-1-1.8-1.9q.5-1.1 1.7-2.2m-1.5 6q0 .5.7.7.6 0 .7-.6t-.7-.8q-.7 0-.7.6m-1.3-11a22 22 0 0 0-9.2-21.6s-.1-.5-1.6-2.8a54 54 0 0 0-4.3-5.3s3.4 1.6 5.3 2.8q.3 3 2.3 3.7.8.1 1.3-.4c1 .6 4.5 3.8 5.5 5q-.4.6-.4 1.6.3 3 2.3 3.6.6 0 1.1-.2l.3.7 1.7 5.5q-1 .8-1 2.6.1 3 2 3.6v2c-.2 1.2-.4 1.7-1.7 2-1.4.6-3.1 3.2-3.2 3.3-.2-.2-1-2.4-.4-6.2"/><path fill="#d4af3a" d="M521.9 321.7q-.8-1-.2-1.8.6-.6 1.6.3.7 1 .2 2-.7.5-1.6-.5m8.6 9.4q-.8-1.4-.2-2.4.8-.7 1.8.4.9 1.4.2 2.4-.7.7-1.8-.4m3.9 10.6q0 1.6 1.3 2 1.3 0 1.3-1.6t-1.3-2q-1.2 0-1.3 1.6m-27.6-29.6q1 .3 4 2.7h-.1q-2.2 0-2.4 2.3c.1 1.7 1.1 3.2 2.6 3.6q2-.1 2.2-2.8l-.2-1 1.9 2a29 29 0 0 1 7.3 12.2 30 30 0 0 1 2 15 5 5 0 0 1-4.3 3.5l.4-1-.2-2.4v-2.9c-.1 0-.8-.2-1.3.4l-1.5 2.1-1.5 1.8s-.6-1.4-.7-3c0-1.5.7-3 .9-5.8 0-2.8-1-7.7-2.9-11.7a38 38 0 0 0-6.7-8.6q-1.5-1.6-1.4-2.7l-.2-2.8c0-1.6 1-1.4 2.1-1"/><path fill="#d4af3a" d="M511 319q-1.2-.6-1.4-2 0-1.4 1.3-1.4 1.2.4 1.4 1.8 0 1.6-1.3 1.6m-6.3 33.1q-1.7.4-2.7-.6-1-1.2-.1-2.5 1.1-.8 2.2 0l2 2.1q0 .2-1.4 1"/><path fill="#d4af3a" d="M501.4 353.2c.4.9.6 1.3 1.8 1.6q1.9.6 3.1-.5c.7-1 1.3-2.3 1.3-2.3l1.3.2s.5 2.4 1 3.2c.7.8 2.3 1.2 3.4.5q1.4-1.5 1.8-1.6.3.4-.9 2c-1 .9-1.5 1.4-3 1.2l-8.1-1.3c-.1 0-1.5-.1-2.2-1.5q-.5-2.2-.2-2.6t.7 1.1"/><path fill="#d4af3a" d="M513.9 353.3c-1.3.6-1.9 0-2.4-.8l-.5-1.2 1.7-.7q.8-.7 1.5-.6l.6.3c0 .2.2 2-1 3"/><path fill="#b96b29" d="M517 337.2q.4 3.4 2.8 4.2 2.5 0 2.7-3.3-.2-3.4-2.7-4.1-2.5-.1-2.8 3.2m-2-13q2-1.2 3.6 1.4 1.3 2.8-.4 4.4-1.9 1.2-3.6-1.4-1.1-2.8.4-4.5"/><path fill="#d4af3a" d="M518.3 337q.1 1.8 1.6 2.3 1.5 0 1.6-1.9-.2-1.8-1.6-2.3-1.5 0-1.6 1.8m-2.1-12.2q1.1 0 2 1.4.4 1.5-1 1.8c-1.8 0-2.5-2.5-1-3.2"/><path fill="#1a1a1a" d="M8 195.3c170.8-85.3 341-54.5 513.3-28C676.5 191 833.4 211.8 992 132.7v672c-170.8 85.3-341 54.5-513.3 28C323.5 809 166.6 788.1 8 867.2zm31.3 19.3v604.5c306.5-128.2 611.1 96 921.5-33.7V180.9C654.2 309 349.5 84.9 39.3 214.6" opacity=".2"/></svg>