<svg xmlns="http://www.w3.org/2000/svg" viewBox="0 0 1000 1000"><path fill="#0071bc" d="M8 195c171-85 341-54 513-28 155 24 312 45 471-34v672c-171 85-341 54-513 28-155-24-312-45-471 34z"/><path fill="#fff" d="M557 704s17-22 34-15c5-26 23-26 24-26 0 0-2-28 22-33 1-20 15-34 15-35 0 0-2-30 13-36-9-26 3-42 3-43-1-1-16-39-2-49a46 46 0 0 1-10-38s-16-7-10-33c-14-5-16-33-16-34-1 0-20 3-23-21-14 0-15-17-16-17 0 0-26 6-32-23-10 5-14-7-15-8 0 1-14 8-23-13-18 12-28-4-28-4s-22 16-31 0c-14 16-25 7-26 6 0 1-10 23-27 15-4 23-22 21-23 21 0 1 2 20-21 24-3 24-14 26-15 27 0 0 1 22-9 30 3 13-6 28-6 29 0 0 10 18-4 38 13 7 4 38 4 38 0 1 18 14 7 35 13 7 9 21 9 31 9 6 17 4 13 28 27 8 15 26 15 26s12 2 7 15c23 3 27 27 27 28 0-1 20-5 24 7 3 12-9 86-9 86s-18-2-32-24c-31-5-25-32-25-32-1 0-10 4-16-20-21 3-20-20-20-21-1 0-10-6-6-18-22 0-21-27-21-28q-6-5-6-15c-3-2-21-3-12-37-18-17-7-33-7-33 0-1-25-19-6-39-14-30 1-44 2-45-1 0-20-28 0-48-3-43 15-53 15-53s-9-35 17-48c2-36 20-35 21-35 0 0 0-28 29-23 7-24 26-17 26-17s6-29 33-11c15-35 34-14 35-13 0-1 12-9 19-5 9-18 26 3 38 8 4-1 18-14 30 7 15-11 27 14 28 15 0-1 20-12 30 22 44 1 38 38 37 38 1 0 34-7 27 39 32 6 29 32 29 33s19 21 11 40c17 2 11 24 11 24 0 1 13 8 2 36 26 30 6 56 5 56 0 0 14 23 1 50 4 42-11 52-11 52s4 27-14 34c0 32-22 35-22 35s6 14-16 27c-1 21-23 21-24 21 0 0-2 38-31 25-8 30-40 17-42 16z"/><path d="m556 703 11-10q13-10 23-6 4-15 14-22l10-3 2-14q6-16 20-19 1-12 8-24l7-10 1-16q2-16 12-21-9-22 3-42-4-10-6-22-4-21 3-28a49 49 0 0 1-9-36q-4-1-7-7-7-10-4-26-7-3-12-19l-3-14-10-2q-12-5-13-20-12 1-15-17-7 1-15-1-14-4-17-21-7 3-12-3l-3-5-8 1q-10-1-16-14-10 7-20 2l-7-7-12 6q-13 4-19-5-8 9-18 9l-7-3-7 10q-10 10-20 5-3 13-13 19l-10 2-2 10q-4 10-19 13-2 15-9 22l-6 5v12q-3 12-9 17 2 9-2 20l-4 9 3 11q2 14-7 27 9 4 7 22l-3 16q4 3 7 9 7 12 0 25 7 5 9 12l1 14-1 5 5 2 8 8q2 6 0 18 17 5 18 17l-3 9 5 3q5 4 3 12 13 2 21 15l4 12 11-1q12 2 14 9 2 8-4 49l-5 39v1h-1l-11-4q-13-7-21-20-19-4-24-17-3-6-2-16l-6-2q-6-4-9-18-13 2-18-8-3-6-3-13-9-7-7-18-13 0-18-14l-2-14q-6-5-6-15-8-3-11-8-6-11-1-30-11-10-10-23 0-6 3-10l-10-11q-8-16 4-29-9-18-4-33 2-7 5-11l-7-16q-5-20 8-33-2-27 7-42 3-7 8-10-2-9-1-19 2-22 18-30 2-22 11-31 5-4 10-4 0-7 4-13 7-13 26-10 3-15 15-18l10 1 7-12q10-10 27 0 9-21 23-19l12 6 7-4q8-3 12-1 4-9 13-6l15 9 9 6 2-1q9-4 13-4 10 0 16 11 10-6 20 4l8 11q5-3 11-1 13 3 20 24 27 0 35 20l3 18q8-1 15 2 16 8 12 37 19 4 25 19l3 15q5 4 8 12 7 15 3 27 11 1 12 14l-1 11q3 2 5 7 4 12-2 29a45 45 0 0 1 5 56l-1 1a57 57 0 0 1 1 49q3 27-4 42l-7 11-1 14q-1 15-13 20 0 20-11 30-5 4-11 5v8q-3 10-16 19-1 13-13 19l-11 2q0 9-5 17-9 16-26 9-5 18-24 19a47 47 0 0 1-19-4l-4-36-3-34zm2 2 3 33 2 24 1 8v2l5 2 13 1q18 0 22-19v-1l1 1q18 8 26-7 4-9 4-17v-2h1q6 1 11-2 12-5 12-17v-1h1q13-8 15-18v-8l-1-1 2-1q5 0 11-5 10-9 10-28v-1h1q10-4 13-19v-15q4-3 7-10 7-15 4-41v-1h1a52 52 0 0 0-1-48h-1v-1l1-1v-1l2-3 5-12q3-20-12-38h-1l1-1q6-18 3-28l-5-6-1-1v-1l1-11q-1-11-11-12h-2l1-2q5-10-2-25l-9-13v-1l-2-14q-7-14-26-18h-1l1-1q3-28-10-35-9-5-16-2h-2l1-2q1-9-3-18-7-19-34-19h-1q-6-21-18-24-6-1-11 2h-1v-1l-8-11q-10-9-19-3v1l-1-1q-6-11-15-12l-12 4-2 2h-1l-10-7-14-9q-8-1-12 6v1h-1q-4-3-11 1l-8 4h-1q-5-6-11-7-13-2-22 19v1h-1q-16-11-26-1-5 4-6 12v1l-1-1h-10q-11 2-15 17v1h-1q-18-4-25 8l-4 13v1q-4 0-9 4-10 9-11 30v1q-16 8-18 28-1 10 1 19l1 1-1 1q-5 2-9 9-7 16-6 42v1q-13 12-8 30 3 10 7 16l1 2h-1l-6 11q-4 14 5 32l1 1-1 1q-12 12-4 25 4 7 10 11l1 1-1 1q-3 4-3 10-2 12 10 22v1q-5 19 0 28 3 4 10 7l2 1h1l-1 1q-1 10 6 14v1l2 14q5 14 17 12h2l-1 2q-2 10 6 17l1 2 2 12q6 9 17 6h1v1q5 22 14 20l1-1 1 2v1q-1 9 2 15 4 12 22 15h1v1q8 13 20 19l10 4 6-38q5-40 3-47-2-6-12-7l-11 1h-1v-1q-1-6-5-12-7-13-21-14h-1v-2q3-7-1-11l-5-3h-2l1-2 3-9q-1-10-17-15h-1v-1q2-13 0-18-1-3-7-6l-5-3-1-1 1-6-1-13q-2-7-9-11l-1-1 1-1q7-13 1-24l-8-9h-1l1-1 3-17q2-16-7-20h-1l1-2a35 35 0 0 0 4-37l-1-1h1l4-9q4-12 2-19l-1-1 1-1q7-4 9-16v-14h1q3 0 6-4 6-7 8-22h1v-1q14-1 19-12 2-4 1-10v-1h1q6 1 10-2 11-4 12-18l1-1h1q9 5 19-4l7-10v-1h1q3 3 7 3 9 0 18-9v-1l1 1q5 10 17 6l13-7 1 1q3 4 7 6 9 6 19-2h1l1 1q5 12 14 13 4 1 8-1h1v1l3 6q6 4 11 1l1-1v2q3 17 16 21h15l1 2q3 17 14 15h1l1 2q1 14 11 18 6 3 10 2h1l1 1 3 15q5 16 12 18h1v2q-4 15 2 25l7 6 1 1v1l-1 11q2 13 11 25l1 1-2 1q-7 5-4 26l7 22-1 2q-11 19-2 40v2h-1q-9 4-11 20l-1 15 1 1-1 1a59 59 0 0 0-15 33v1l-1 1q-15 2-19 17l-2 14v2h-1l-10 3q-10 6-13 21v1h-1q-10-4-23 5zm40 39v3q1 4 8 8l-1 3q-7-6-8-11v-5zm20-16q12-2 20 2l-1 3q-7-5-19-2zm35-34q0 7 7 16l-1 2q-8-10-8-19zm6-18 5 3q6 4 13 4v3a29 29 0 0 1-19-8zm-67 13-1 10q-1 12-6 16l-1-2q4-4 5-15l1-9zm22-26 6 2q7 1 13-2l1 2q-6 3-14 2l-7-2zm71-19 3 2 11 2v2q-12 1-15-5zm-48-15 8 3q9 2 15 0v2q-5 3-15 1l-9-4zm27-71h2v3l5 18h-2l-3-19zm13-57-2 7q-2 6-6 10l-1-3q4-2 6-9l1-5zm41-42-4 5q-4 5-3 8l-2 1q-2-6 8-16zm-47-12 2 7q0 9-6 14l-1-3q5-4 5-11l-2-6zm-25-52 5 2q6 3 8 10l-1 1q-3-6-7-9l-5-1zm19-70q1 4-2 9l-1-2q2-3 1-5v-1zm-61-6q4 11 4 23l-2-1q0-10-4-21zm25-31 9-3 1 2-9 4zm-29-39 1-1-1 6q0 6 3 9l-2 2q-3-3-3-11l2-8zm-10 53 3 9 1 6-1 8-2-2 2-6-2-4-3-12zm-19-13-6 6-5 6h-2q0-2 6-8l7-6zm-30-13 3 5q2 7 1 13l-2-1a24 24 0 0 0-3-15zm-41-13q-4 12-7 14l-1-2 7-13zm-36-7 2 8q1 7-3 13l-1-2q3-4 2-11l-1-5v-1h1zm-64 37 1 1 4 1 5 2-1 2-10-4zm-26 27 12-4 1 3-12 3zm-19 18 1 1 9 1 1 2q-1 2-10-1h-1zm-5 10q4 3 1 22l-2-1v-19zm-38-50 5 10-2 1-5-10zm-18 50v-1h2v1q6 9 10 11v2q-6-1-11-12zh2v-1zm38 52 9-3 1 3-5 1-5 1zm-3 36-1 1q1-7 7-12v3q-4 3-5 9l-1 2zm-7 18 3 4q4 6 6 6l-1 3-6-7-4-6zm-5 17q7-6 14-5l-1 2q-5-1-12 6h-1zm0 26 1 3q5 5 16 3v3q-12 0-16-4-3-2-3-5zm-1 30 5-10q5-10 12-13l1 2q-6 3-12 13l-4 8zm15 21 2-4q4-5 9-7l1 2q-5 3-8 7l-2 3zm11 29q6-8 9-8v2l-8 8zm9 22 3 2q3 0 10-5l1 2q-7 6-12 5l-3-2zm-49 1q16-4 21 7l-2 1q-4-9-19-6zm6 16q16-2 18 1l-1 2h-17zm56 11 15-4 1 3q-12 5-16 3-2 1-2-2v-1zm23 13-1 9q0 7-3 9l-1-3 2-6 1-11zm-59 3q6-4 5-14h2q0 12-6 16l-1 1zm6 19h1q12-5 14-1l-2 1q-1-2-11 2l-1 1zm20 21q2-13 5-14l1 2q-3 1-4 13zm17 20q8 1 12-2l1 2q-4 3-13 3zm18-41 5 3q9 3 19 0v3h-19l-7-4zm6 54 2 20h-2q1-3-2-20zm235-355h7v3l-7-1zm-103-91q-3 11-7 12v-2q3-2 5-11zm-71-71v6q0 6-3 11l-2-2 3-9 1-4zm-35 14-1 6q-2 6-9 6l-1-2q10-1 9-10z"/><path fill="#f7df73" d="M561 743s98-25 129-190c-18 171-126 210-126 210z"/><path d="m561 741 15-6q19-10 37-26a278 278 0 0 0 77-158l1 2q-12 107-70 171a186 186 0 0 1-57 41l-1-1v-1l-3-20v-2m1 3 3 17 16-8q20-12 38-32 49-53 65-136-21 81-69 126a158 158 0 0 1-53 33"/><path fill="#f7df73" d="m431 719-3 21c0-1-107-69-125-241 30 168 128 220 128 220"/><path d="m431 718 1 2-3 20-1 1h-1l-17-14q-21-18-39-43a361 361 0 0 1-68-187h1l1 1q18 106 74 173a247 247 0 0 0 52 47m-1 2-15-10q-20-15-37-37-48-56-69-141a347 347 0 0 0 102 193l16 12z"/><path fill="#8c1800" d="M571 754c3 0 11-9 15-10q7-3 0-8c-5 0-9 6-10 7 0 0-4 4-8 4-5 1-2 8 3 7m21-18s-3-1 5-5c8-3 7-8 10-10s7-6 9-3c0 4-5 9-7 9l-12 10q-4 1-5-1m-171-7c-3-1-11-13-15-15q-7-6 0-8c5 1 9 9 10 9 0 0 4 5 8 7 5 2 2 8-3 7m-21-25s3-1-5-6c-7-6-7-10-10-12-2-3-7-8-9-6 0 4 6 10 8 11l11 13zm228 0c-1 0-10 6-9 9 2 1 10-6 11-7 0 0 4-6-2-2m0-2 3-1 1 1v2l-1 3-5 5q-7 4-8 2t1-5l3-3zm0 3-7 6zm-263-42s9 8 8 11c-2 1-10-9-10-9-1-1-4-7 2-2m5 3 3 4q3 3 1 5-1 2-7-4l-5-5-2-4v-2l2-1 3 2 3 2h-1zm-7-2 7 8-2-3zm281 22-6 8v2h-2l-1-2 1-2v-1l6-8h2l1 2zm10-16-6 10h-2v-3l6-10h2zm11-21-8 15h-2v-2l7-16h2zm8-22-6 15q0 2-2 1v-2l6-16 1-1zm4-12-2 6h-2v-2l2-6h1zm4-16-2 7-1 1v-2l1-6 1-1zm-330 40 5 9 1 1 1 2-1 2h-2v-1l-1-1-6-10v-3zm-10-18 6 11v3h-2l-7-12v-3zm-11-23 8 17-1 2q-1 1-2-1l-7-16 1-3zm-8-23 6 17-1 2-1-1-6-17v-2q2-1 2 1m-4-13 2 6-1 2q-1 2-1-1l-2-5 1-3zm-5-15 2 7v1l-1-1zl1-1z"/><path fill="#217900" d="M346 299s7 9 6 22-7 31-6 44l1 15s-7-13-7-27 7-26 7-36v-13q-2-3-1-5"/><path d="M346 298q2 1 4 7 4 8 3 16l-3 16-3 28 1 15-1 1v1l-1-1a76 76 0 0 1-7-28q0-7 4-21l3-15-1-16v-2zm1 5 1 14-3 16q-4 13-4 20a63 63 0 0 0 5 23l-1-11q0-9 4-29l2-15a31 31 0 0 0-4-18m-1-3"/><path fill="#217900" d="M342 303s-9 11-10 23l-2 48-1 25c0 6 6-9 7-21l1-45 2-16z"/><path d="m343 304-1 5-2 9-2 9v7l-1 44a55 55 0 0 1-7 23l-1 1-1-3 1-16v-9l2-48q0-8 6-17l5-7h1zm-3 4-2 3q-5 9-5 15v1l-2 47v9l-1 15 1-3q4-9 4-17a336 336 0 0 1 3-61z"/><path fill="#6b18b5" d="m281 381 8 20v1q3 21 6 25v1q19 39 19 51 0 9-4 16-6 8-13 8-8 0-14-6-10-8-10-20-1-12 3-22l2-10zm0 5-4 71q-3 9-3 19 2 12 9 19 7 5 14 6 6 0 11-8 5-7 5-14-1-12-19-49l-1-1q-3-6-6-26v-1zm110-161q-15 23-21 45l-2 10q0 10-5 19-6 11-16 9-8-2-14-6-6-6-7-17-1-10 2-17 3-5 17-13 14-7 18-13 5-8 14-14l2-1 12-4v1zm-11 3-2 1q-10 6-14 14-6 6-19 13-13 8-17 13-2 6-1 16t7 16q6 5 13 6 11 1 15-8 5-9 5-19l2-11q6-21 21-44-6 0-10 3m174-4h-1l-13-1q-15 1-26 7l-7 4-15 4q-10 1-16-9-5-8-7-17-2-10 4-18 4-8 10-8 5 0 19 10l21 12 10 2 10 3q6 3 11 10m-2 0-9-9-10-2-10-3q-7-1-21-12-15-10-19-10-5 1-9 8-6 8-4 17 1 9 6 16 7 9 16 9 8-1 14-5l7-3a53 53 0 0 1 39-6m163 232q0 1 0 0-4-2-12-15a129 129 0 0 0-19-27l-7-6q-7-3-13-12-6-11-3-24 1-10 7-17 5-6 13-5t11 7h1q3 6 6 27 2 20 5 29l9 24v1l1 5q2 10 1 13m-1-1q1-3-1-11l-1-6-9-24q-3-9-5-30-3-20-6-26-4-5-11-6-7-2-13 4-4 7-6 16-3 13 3 23 6 9 12 12 5 2 8 6 8 8 18 27 8 14 11 15m-4 167q-3-3-4-9l-1-14q-2-24-6-34l-4-10q-4-9-6-20a28 28 0 0 1 16-31q7-3 14 4 6 6 7 14v15l-3 16q-5 15-5 24l-2 27q1 8-5 18m-1-1q5-11 5-17l1-16 1-11q0-9 5-25l3-15v-15q-1-7-7-13t-12-4a27 27 0 0 0-16 30q1 11 6 19l4 10q5 12 6 34l1 14zM492 199q0-4-5-6-6 0-6 4 0 5 6 6 5 1 5-4m2 13q0-5-5-6-6-1-6 4 0 4 6 6 5 0 5-4m7-14c0 1-6 5-4 9 4 2 10-4 10-4zm186 172-1-5h-4l-1 4 1 5h4zm-2-13q0-4-4-6-3 0-3 6 0 5 3 5t4-5m2 25-2-3-1 3 1 3zm5-22-1-3q-2 0-2 3t2 3zm-15 1-2-2-1 2 1 3q2 0 2-3m2 18q0-3-3-4-2 0-2 4t2 5q3-1 3-5m-7-8q0-3-3-4-2 0-2 4l2 4q3-1 3-4m-1-11-2-2-2-1-1 3 1 3h2zm34 56q-5-9-11-6-4 5 0 15 5 9 11 6 5-5 0-15m9 104q0-11-6-14-7 0-7 11-1 12 5 14 6 1 8-11m2 60q1-11-5-14-6-1-8 10-1 11 4 15 6 0 9-11m8-56q0-5-3-5t-3 5 3 5 3-5m-7 11-6 10c-1 0-6 0-6 2 1 3 8 11 8 14 1 3 5 0 5-1l4-17c0-1 0-11-2-12zm-408-51-2-4q-3 0-3 4 0 3 3 4zm3-12q0-4-3-5l-3 4 3 5q3 0 3-4m-24-60q-2-5-5-4-3 2-1 8 2 5 5 4 3-2 1-8m7 37q-2-7-7-6-3 3-1 10 3 8 7 6t1-10m8 27q1-9-4-12-3 0-5 9 0 9 4 11 3 1 5-8m-12 3q2-8-2-12-3-1-7 6-2 8 2 12 4 2 7-6m-6-11q0-5-3-5-3 1-4 4 1 5 4 5 3-1 3-4m-3-12q0-4-3-4l-3 4 3 4q3 0 3-4m3-22q0-7-3-8-2 1-3 7 1 7 3 8 3-1 3-7m9-2q0-7-2-7-3-1-4 6l2 8q3 0 4-7m63-167q2-8-3-12-4-2-7 7-2 9 3 12 4 2 7-7m-12 24q5-7 3-12-3-5-9 1-6 7-4 12 3 5 10-1m-7-14q5-6 3-11-3-3-9 1-6 6-3 11 3 3 9-1m27-22q3-4 2-7-2-3-6 1-5 4-3 7 3 2 7-1m-14 22v-8q-3-2-6 4v8q3 1 6-4m20-12q3-4 2-9-3-2-7 2-3 5-2 8 3 2 7-1m-37 30q4 0 4-3t-4-4q-4 1-4 4 1 3 4 3m45-47v-8q-3-1-6 3v8q3 1 6-3"/><path fill="#ffd200" d="M552 291c1 0 12-6 16-20 3-14-10-16-12-12s1 16 0 19-5 9-4 13"/><path fill="#ef8a10" d="m553 292-1-1v1q-2-4 2-11l2-3-1-7v-13l4-2a10 10 0 0 1 10 6v9a33 33 0 0 1-16 21m0-3a33 33 0 0 0 14-19v-7l-3-4-5-1-2 2v19l-1 3z"/><path fill="#ffd200" d="M443 279s7-13 6-29c-3-15-14-8-15-2 0 5 7 14 8 17 0 4-2 12 1 14"/><path fill="#ef8a10" d="M444 280h-1l-1 1q-2-2-2-12v-4l-2-5q-5-9-5-13l2-5 5-2q4-1 6 1 3 3 4 9a49 49 0 0 1-6 30m-1-3 2-7q4-11 3-20l-3-6-4-1-4 2-2 3 4 10 4 7z"/><path fill="#ffd200" d="M421 285s8-14 6-29c-3-15-14-8-15-2 1 5 7 14 8 17 0 4-1 12 1 14"/><path fill="#ef8a10" d="M420 290v-4q-2-3-1-11v-4l-3-6q-5-8-5-12l3-5 5-3 5 2q3 3 4 9a49 49 0 0 1-6 30zm1-7 3-7q3-11 2-20l-3-6q-1-2-4-1l-4 2-1 3 4 10 3 7z"/><path fill="#ffd200" d="M397 292s8-14 6-29c-3-15-14-8-15-2 1 5 7 14 8 17 0 4-1 12 1 14"/><path fill="#ef8a10" d="m398 293-1-1v2q-3-2-3-12l1-4-3-6-5-11 3-6 5-3 5 2q3 3 4 9 1 10-2 21zm-1-3 3-7q3-11 2-20l-3-6q-1-2-4-1l-4 2-2 3 5 10 3 7z"/><path fill="#ffd200" d="M380 313s8-14 6-29c-3-15-14-7-15-2 1 5 7 14 8 17 0 4-1 12 1 14"/><path fill="#ef8a10" d="M379 318v-4q-2-2-2-11l1-4-3-5-5-12 3-6 5-2q3-1 5 1 3 3 4 9 1 11-2 21l-4 9zm1-7 3-7q3-11 2-20l-3-6q-1-2-4-1l-4 2-1 3 4 10 3 7z"/><path fill="#ffd200" d="M362 334s8-14 6-30c-3-15-14-7-15-2 1 6 7 14 8 17 0 4-1 13 1 15"/><path fill="#ef8a10" d="M361 339v-5q-2-2-1-11v-4l-3-5q-5-7-5-12 0-2 3-5 2-3 5-3l6 1 3 9q1 11-2 21l-4 10zm1-8 3-7q3-10 2-20-1-5-3-6l-4-1-4 3-1 2 4 10 3 7z"/><path fill="#ffd200" d="M403 208s-10 10-12 26c0 15 13 12 14 7s-4-16-4-19c1-3 4-11 2-14"/><path fill="#ef8a10" d="M403 207q2 3-1 12l-1 4 2 6q3 9 2 13l-3 3-5 1q-4 0-6-3-2-4-1-10a41 41 0 0 1 12-26m0 3-5 6-6 18 2 7 4 3 4-1 3-2-3-11-1-8 1-4z"/><path fill="#ffd200" d="M439 198s-11 10-12 25c0 15 13 13 14 8s-4-16-4-19c1-3 4-11 2-14"/><path fill="#ef8a10" d="M439 197q3 2 0 12l-1 3 2 7q3 9 2 13l-3 3-6 1-5-4-2-9a41 41 0 0 1 12-26zm0 3-5 6q-4 8-6 18 0 4 2 7l3 2h5l2-2q1-3-2-11l-2-8 1-4z"/><path fill="#ffd200" d="M306 316s2 18 11 27c10 9 13-9 11-13-3-4-12-3-14-5-2-3-5-10-8-9"/><path fill="#ef8a10" d="M305 316h-1l1-2q3-1 8 7l2 3 4 1q8 1 9 4l2 6-2 7-4 5q-4 1-7-3-6-6-10-18zm2 1 2 9q3 10 9 16 2 3 5 2l3-3 2-6-1-4-8-3-5-2-3-4z"/><path fill="#ffd200" d="M288 377s0 18 8 29c9 11 14-6 12-10-2-5-11-6-13-8-2-3-4-11-7-11"/><path fill="#ef8a10" d="M287 377h1q2-1 6 8l2 3 4 2q8 3 9 6v6l-2 7q-3 3-5 3-3 0-6-4-6-7-8-19zm2 2 1 9q2 11 7 18 3 3 5 3l3-3 3-6-1-4q-1-2-7-4l-6-3-1-4z"/><path fill="#ffd200" d="M329 449s-5-17-15-24c-11-6-11 12-8 16 3 2 11 0 14 1 2 2 7 9 9 7"/><path fill="#ef8a10" d="M330 449v1q-3 2-8-4l-3-3h-4q-7 1-10-1l-2-6 1-7 3-6q3-2 7 1 8 4 12 15zm-2-1-3-8q-5-10-11-14l-6-1-2 5-1 6 1 4 8 1h6l3 3z"/><path fill="#ffd200" d="M321 418s8-14 6-29-14-7-15-2c1 5 7 14 8 17 0 4-2 12 1 14"/><path fill="#ef8a10" d="M321 419q-2-2-2-12l1-4-3-5-5-12 3-5 5-3 5 1q3 3 4 9 2 9-3 21-1 6-4 9m-1-3 4-7q3-11 2-20 0-4-3-6-1-2-4-1l-4 2-2 3 4 10 4 7-1 4z"/><path fill="#ffd200" d="M578 309s12-6 16-20c3-14-11-16-13-11-2 4 1 16 1 19-1 3-6 9-4 12"/><path fill="#ef8a10" d="M578 311v-1h-1q-1-3 2-11l2-3-1-6v-13l4-3a10 10 0 0 1 10 6v10a33 33 0 0 1-16 21m0-3 6-4 9-15v-8l-4-3-5-1-2 1v11l1 8-2 4z"/><path fill="#ffd200" d="M615 340s7-15 5-30c-4-15-15-6-15-1 1 5 7 13 8 16 1 4 0 13 2 15"/><path fill="#ef8a10" d="M616 340v2l-1-1q-3-1-3-11v-4l-3-6-5-11 2-5 5-4 5 1q4 3 4 9 3 9-1 21zm-1-2 2-8q3-11 2-20l-3-6q-2-2-5-1l-4 3-1 3 5 10 3 6v5z"/><path fill="#ffd200" d="M717 492s-5-17-15-23c-11-6-11 12-8 16 3 2 11 0 14 1 2 2 7 8 9 6"/><path fill="#ef8a10" d="M718 492v2q-3 2-8-5l-3-2h-4q-7 1-10-1l-2-6 1-7 3-6q4-2 7 1 8 3 12 14zm-2 0-3-8q-5-10-11-14l-6-1-2 5-1 6 1 4h8l6 1 3 2z"/><path fill="#ffd200" d="M667 501c0-1 1-19 9-29 9-9 14 8 12 13-3 4-11 4-13 6-2 3-5 10-8 10"/><path fill="#ef8a10" d="m666 500 2-10q2-12 7-19 4-3 7-3l5 5 2 7-1 6q-1 3-8 4l-5 2-1 3-6 7h-1v-1zm2-1 4-6 2-3q1-2 5-2l8-4v-4l-2-6q-1-3-4-3l-4 2q-5 6-8 17z"/><path fill="#ffd200" d="M659 303c0-1-12-8-23-2-9 6 0 20 4 19s7-12 10-13c2-1 8-1 9-4"/><path fill="#ef8a10" d="m660 301-1 1h1l1 3-1-1q-1 3-7 4h-3l-3 5q-4 8-7 8-1 1-4-2-3-1-4-6l-1-7q1-4 5-7 7-3 16-1zm-2 2-7-2q-8-2-14 1-3 1-4 5l1 5 3 5q2 3 3 2l5-8 4-5 3-1z"/><path fill="#ffd200" d="M630 266s-12-7-23-2c-9 6 0 20 4 20 3-2 7-12 9-13 3-1 9-1 10-5"/><path fill="#ef8a10" d="M629 265v-4l3 8-1-1q-2 3-7 3l-3 1-3 5q-4 7-7 8l-4-2-4-6-1-8q1-5 5-6 6-4 16-1zm0 2-7-3q-9-2-14 1l-4 5 1 6 3 5 3 1q2 0 5-7l4-6h3z"/><path fill="#ffd200" d="M587 229c-1 0-11 10-12 25s12 13 14 8c0-5-4-16-4-19s4-11 2-14"/><path fill="#ef8a10" d="m586 228 1 1zl2 1-1 1-1 10-1 4 1 6 3 13-4 3-5 1-5-4q-3-3-2-9a41 41 0 0 1 12-26m0 3-4 6q-6 8-6 18l1 7 4 2h4l3-2-2-11-2-8 1-4z"/><path fill="#ffd200" d="M558 216s-4 16 0 31c6 14 15 3 14-3-1-5-9-11-10-14-1-4-1-13-4-14"/><path fill="#ef8a10" d="m557 217 2-2v1-1q3 0 4 11l1 4 4 4q6 7 6 10 1 3-1 6l-4 4q-3 3-6 1t-5-7q-3-10-1-22zm2 1-2 8q0 12 2 21 1 4 4 5h4l4-4v-3l-5-9-5-6v-4z"/><path fill="#ffd200" d="M478 271c0-1 9-13 8-29-2-15-14-9-15-4 0 6 6 15 7 18 0 4-2 12 0 15"/><path fill="#ef8a10" d="M479 271v2l-1-1q-3-2-2-12l1-4-3-6-4-12q0-2 3-5l5-2q3 0 5 3 3 3 3 8a47 47 0 0 1-7 29m2-9q4-10 4-20l-3-6q-1-2-4-2l-4 2-2 3 4 10 3 7-1 5v8z"/><path fill="#de2010" d="M698 501q0-9-5-13-4-3-7 1-3 5-3 14l5 13q4 3 8-1 3-5 2-14"/><path d="M700 503q0 7-3 13-4 6-10 1-4-5-5-14-1-10 3-15 4-6 9-1 5 4 6 14zm-3-2q-1-8-4-12-4-2-6 1-3 4-3 13 1 8 5 11 3 3 6 0 3-4 2-13"/><path fill="#de2010" d="M697 473q-2-8-5-12-5-4-8 0-3 6-3 14 2 9 5 13 5 3 8-1 3-5 3-14"/><path d="M698 475q0 9-3 13-4 6-9 1-4-4-6-14 0-9 3-15 5-6 9-1 5 5 6 14zm-2-2q-1-8-5-11-3-3-6 1t-2 12 4 12 6-1 3-12z"/><path fill="#de2010" d="M693 444q-2-9-6-12-5-3-8 1-3 6-1 14 2 9 5 13 5 3 8-2 3-6 2-14"/><path d="M694 444q1 9-2 15-4 6-9 2-4-4-7-13 0-10 2-16 5-5 9-2l7 12zm-2 0q-1-8-6-11-3-2-6 1-3 6-1 13 1 9 5 11 4 3 6-1 3-4 2-13"/><path fill="#de2010" d="M685 413q-3-8-8-10-4-2-7 4-1 6 1 14 3 9 8 10 6 2 7-4 2-6-1-14"/><path d="M686 412q3 9 1 16t-8 5q-5-3-9-11-3-9-1-16 3-7 9-5 5 2 8 11m-2 1q-3-7-7-9t-5 4 1 13 7 9q3 2 5-4 2-5-1-13"/><path fill="#de2010" d="M677 388q-2-9-8-10-4-2-6 4t0 14 8 10 7-4q2-6-1-14"/><path d="M678 387q4 9 1 16-2 7-8 5-5-2-9-11-3-9-1-16 3-7 9-5 5 3 8 11m-2 1q-3-7-7-9t-5 4 1 12 7 10q3 2 5-4t-1-13"/><path fill="#de2010" d="M666 362q-3-7-8-9-6-1-7 5t2 14 8 9 7-5-2-14"/><path d="M669 377q-2 8-8 6-6-1-9-10-4-9-2-16t8-6q5 2 9 10 3 9 2 16m-4-14q-3-7-8-9-3 0-5 4-1 6 2 13 3 8 7 9 5 0 6-4 1-6-2-13"/><path fill="#de2010" d="M653 337q-3-7-9-8-5-1-6 6l3 14q5 6 9 8 5 0 6-6 2-6-3-14"/><path d="M657 352q-1 7-7 7-6-1-10-9-5-9-3-16 1-7 7-7 6 2 10 9 5 9 3 16m-5-14q-3-7-8-8-4-1-5 5l3 13q4 7 8 7 4 1 5-4 2-6-3-13"/><path fill="#de2010" d="M638 313q-5-6-9-6-5 0-6 7 0 7 5 13 5 7 9 7 5 0 6-7 0-6-5-14"/><path d="m641 315 3 12q-1 9-7 8-6 0-10-7-5-7-5-14 0-8 7-9 5 0 10 7zm-4-1q-4-5-8-6-4 1-5 6l4 12q5 6 9 6t4-5-3-13z"/><path fill="#de2010" d="M621 291q-4-6-10-5-4 1-4 7 0 7 5 13 4 6 10 6 4-1 5-8-1-6-6-13"/><path d="M628 304q0 9-6 9-6 2-11-6-5-6-6-14 1-8 6-9 6-1 11 6 6 7 6 14m-7-12q-5-5-9-5-4 1-4 6 0 7 4 12 5 5 9 5t4-6-4-12"/><path fill="#de2010" d="M604 273q-6-6-11-4-4 3-4 9 1 7 7 12t10 3 4-8-6-12"/><path d="M611 284q2 9-4 11-5 2-12-4-6-6-7-13 0-9 5-10t11 3q6 6 7 13m-8-10q-5-5-9-3-4 1-3 7 0 6 6 11 5 4 9 3 3-1 3-7-1-6-6-11"/><path fill="#de2010" d="M583 255q-5-3-10-2-4 3-3 10 1 6 7 11 6 4 11 2 3-3 3-9-2-7-8-12"/><path d="M592 266q2 8-4 11-5 3-11-2-7-4-8-12-2-8 4-11 4-3 11 2 6 5 8 12m-9-9q-6-4-9-2-4 1-3 7 1 7 7 10 5 5 9 2 4-1 3-7t-7-10"/><path fill="#de2010" d="M564 242q-6-4-11-1-3 3-2 9 2 6 7 11 6 4 11 1 4-3 3-9-2-7-8-11"/><path d="M564 240q7 5 9 12 2 8-4 12-4 3-11-2-6-4-8-11-3-8 3-12 5-3 11 1m-1 3q-5-3-9-1-3 3-2 8 1 6 7 9 5 4 9 2t3-8q-2-6-8-10"/><path fill="#de2010" d="M544 230q-6-3-11 0-3 4-2 10 3 7 9 10t10 0 2-10q-2-6-8-10"/><path d="M553 240q3 8-2 12-5 3-12 0-6-4-9-11-2-8 3-12 4-3 11 0 7 4 9 11m-9-8q-6-3-10 0-3 3-2 8 2 5 8 9 6 3 9 0 4-2 2-8t-7-9"/><path fill="#de2010" d="M522 222q-6-2-10 2t-1 10 9 9 10-2q3-5 1-11-3-6-9-8"/><path d="M532 230q3 7-1 12t-11 2q-7-2-10-9t1-12q4-4 11-3 7 3 10 10m-10-6q-6-2-9 1-3 4-1 9 3 5 8 7 6 2 9-2 3-2 1-8t-8-7"/><path fill="#de2010" d="M500 217q-6-2-10 3-3 5 0 11 3 5 10 7 6 2 9-3 4-5 1-11t-10-7"/><path d="M500 215q7 2 11 8 3 7-1 13-3 4-11 4-6-2-10-9-3-6 0-12 4-5 11-4m0 4q-6-1-9 2-3 4 0 9 2 5 9 6 5 1 9-2v-9q-3-5-9-6"/><path fill="#de2010" d="M480 215q-6-2-10 3-3 5 0 11 3 5 10 7 6 1 10-3 3-5 0-11t-10-7"/><path d="M480 213q7 2 11 8 3 7-1 13-3 5-10 3-7-1-11-8-3-7 1-12 3-6 10-4m0 3q-5 0-9 3-3 4 0 9 3 4 9 6 5 1 9-3 2-3 0-8-3-6-9-7"/><path fill="#de2010" d="M457 215q-6 1-9 7-1 6 2 10 4 5 10 4t9-7-2-10q-3-4-10-4"/><path d="M468 218q5 5 2 12t-9 8-12-4q-4-6-2-13 3-6 10-8 6-1 11 5m-11-1q-6 0-8 6-1 4 2 8t9 4q5-1 8-7 2-4-1-8-4-5-10-3"/><path fill="#de2010" d="M436 219q-6 2-8 8t2 10 10 3 9-8-3-10-10-3"/><path d="M435 218q7-3 12 2 5 6 3 13-3 6-9 9-7 2-12-3-5-6-2-13 2-6 8-8m1 3q-6 1-7 7-2 5 2 8 3 4 9 2 6-1 7-7 2-4-1-8-4-4-10-2"/><path fill="#de2010" d="M416 228q-5 3-7 9-1 7 3 10 5 4 11 1t7-9q2-7-3-10-5-4-11-1"/><path d="M416 226q6-2 11 1 6 5 4 12-1 7-8 10-6 3-11 0-6-5-4-12t8-11m1 3q-6 3-7 9-1 5 3 8t9 0 7-8-3-8-9-1"/><path fill="#de2010" d="M397 239q-5 4-6 10-1 7 3 10 5 3 11-1 5-3 6-10 1-6-4-10-4-3-10 1"/><path d="M408 237q6 3 4 11-1 8-7 12-5 3-11 0t-5-11q1-7 8-12 6-3 11 0m-10 3q-6 4-6 10-2 4 3 7 4 3 9 0 5-4 6-10 1-4-3-7t-9 0"/><path fill="#de2010" d="m379 253-6 12q0 6 5 9 4 2 10-2 5-5 6-12 0-6-5-9-5-1-10 2"/><path d="M378 252q5-5 11-2 6 2 6 11-2 8-6 12-7 5-12 2-6-3-5-10 0-8 6-13m2 3q-5 4-6 10 0 6 4 7 4 3 9-2 5-4 5-10t-3-7-9 2"/><path fill="#de2010" d="M362 269q-5 6-5 12 0 8 5 9 5 2 10-4 5-4 5-12 0-6-5-8-5-1-10 3"/><path d="M361 268q5-6 11-4 6 3 6 10 0 9-5 14t-11 3-6-10q0-7 5-13m2 2q-5 5-5 11 1 6 4 7 5 2 9-3 5-5 5-11-1-6-4-7-5-1-9 3"/><path fill="#de2010" d="M347 289q-4 6-4 13 0 6 5 8 6 0 10-5 4-6 4-13 0-6-5-8-6 0-10 5"/><path d="M357 283q6 2 6 9 0 9-4 14-6 6-11 5-6-1-6-9-1-9 4-14 6-7 11-5m-9 7q-4 5-4 12 1 5 4 6 5 1 9-4t4-12q-1-4-4-6-5-1-9 4"/><path fill="#de2010" d="M334 312q-4 6-3 13t6 7 9-6 3-13q0-6-6-7-4-1-9 6"/><path d="M343 304q7 1 7 9 2 8-3 14-4 7-10 7-7-1-7-9-1-8 3-15 6-6 10-6m-8 9q-3 5-3 12 1 5 5 6 4 0 8-6 5-6 3-12 0-5-5-6-4 0-8 6"/><path fill="#de2010" d="M322 335q-3 6-2 14 2 6 6 6 6 0 9-7l3-14q-3-6-7-6-5 0-9 7"/><path d="M322 334q3-8 9-8 6-1 8 8 1 7-3 15-4 7-9 8-7 0-8-8-1-7 3-15m1 2q-3 6-2 12 2 6 5 5 5 0 8-6 3-7 2-13 0-5-5-5-4 0-8 7"/><path fill="#de2010" d="M313 362q-3 8-1 14 3 5 7 5 5-2 8-10 2-8 0-14t-7-5q-4 2-7 10"/><path d="M312 361q3-9 8-10 5-2 8 6 3 6 0 15t-9 10q-5 2-8-5-2-7 1-16m2 1q-3 7-1 13t6 4q4-1 7-8v-13q-2-6-5-4-4 1-7 8"/><path fill="#de2010" d="M305 390v14q3 6 8 4 4-2 7-10 2-8-1-15-3-5-7-3-5 2-7 10"/><path d="M304 389q3-8 7-11 6-3 9 5 3 6 1 15t-8 12-9-5q-2-7 0-16m2 2v12q3 6 6 4 4-3 6-10 3-7 0-13-1-4-6-3-4 2-6 10"/><path fill="#de2010" d="M298 444q0 6 3 11 4 4 8 1 3-3 5-10 0-6-3-11-4-3-8-1-4 3-5 10"/><path d="M297 444q1-8 5-11 5-4 9 1 4 4 4 13-1 7-6 11-5 3-8-2-4-5-4-12m2 0q0 6 3 10t6 1 5-9-3-10-7-1-4 9"/><path fill="#de2010" d="M300 419q-1 8 2 14 3 4 7 3 5-3 6-12 1-8-2-14t-7-3-6 12"/><path d="M299 418q2-9 6-12 6-4 9 3 4 6 2 16-2 9-6 12-6 3-9-3-4-6-2-16m2 1q-1 7 2 13 2 5 6 2 3-3 5-10 1-9-1-13-3-5-7-2-3 3-5 10"/><path fill="#ffe300" d="M682 452q4-5 8-3-2-13-6-12-5 2-2 15m4 29q4-5 8-2-2-14-5-13-5 2-3 15m-9-55q3-6 7-6-4-13-8-9-3 3 1 15m-9-27q3-5 7-5-5-13-8-10-4 3 1 15m-22-49q2-7 6-7-6-12-9-8-4 4 3 15m-15-22q2-7 6-7-6-12-9-8-4 4 3 15m-30-39q0-7 3-9-7-10-10-4-2 4 7 13m16 18q0-7 4-8-6-11-9-6-4 4 5 14m-35-34q0-7 4-10-9-8-11-3-2 6 7 13m-18-14q-1-7 2-10-10-7-10-1-2 6 8 11m-20-11q-2-7 1-11-9-6-10 1-1 5 9 10m-20-9q-2-6 1-10-9-5-10 1t9 9m-20-5q-3-7-1-11-10-3-9 3 0 6 10 8m-41-2q-4-5-2-11-10 0-9 6t11 5m20-1q-3-6-1-10-10-2-9 4 0 6 10 6m-40 4q-5-5-3-11-10 3-8 8 3 7 11 3m-37 18q-5-3-5-9-9 4-6 10 2 6 11-1m18-10q-4-4-4-10-9 3-7 9 1 5 11 1m-52 38q-5-2-6-8-8 8-5 12 4 5 11-4m16-16q-6-2-5-9-8 7-6 12 3 5 11-3m-31 34q-5-1-6-7-7 8-4 12 4 5 10-5m-12 22q-6-1-7-7-7 10-3 13 4 4 10-6m-11 22q-6 0-7-5-6 12-2 14 5 2 9-9m-10 24q-4 2-7-4-4 13 0 14 4 3 7-10m-7 25q-6 2-8-2-3 13 2 14t6-12m-5 28q-5 3-8-1-3 13 2 14 4 1 6-13m-2 24q-4 3-8 0-1 11 3 10 5 0 5-10m350-69q2-6 6-6-6-12-9-8-4 3 3 14m28 135q4-5 8-2 0-14-5-13-4 1-3 15"/><path fill="#ffd200" d="M645 385s7-15 4-30-14-6-15-1c1 5 8 13 9 17 0 3-1 12 2 14"/><path fill="#ef8a10" d="M645 385q-2-1-2-10v-4l-3-6-5-11 2-5 4-3 6 1q3 2 3 8 3 9-1 21zm-1-1 3-9q3-11 2-20-1-6-4-7l-4-1-4 3-2 4 5 10 3 6v5z"/><path fill="#217900" d="M661 353s-8 10-6 23c1 13 7 30 6 43l-3 22s9-13 9-27-6-32-6-42z"/><path d="M661 352v20l3 17 3 25q0 8-5 20l-4 8h-2v-1l3-22-3-27-3-16a35 35 0 0 1 7-24m-1 4-2 4-3 16 3 16q4 20 4 27l-2 17 2-4q4-10 4-18l-3-24-3-18zm2-2"/><path fill="#217900" d="M676 398c-1 0-6 5-6 20 1 14 11 40 11 41 0 0 8 22 8 28l1-18c-1-13-13-41-13-41l-2-15z"/><path d="m675 397 1 2h-1v15q-1 8 2 14 12 28 13 42l-1 19-1 1h-1v-2q1-6-8-28l-11-41q0-10 3-16zm-1 4-1 2-2 15q0 8 6 25l5 15 7 21v-10q-1-12-13-41-2-6-2-16z"/><path fill="#217900" d="M506 235s25 6 26 29l-1 18q9-8 8-20c0-24-23-43-33-27"/><path d="m506 237-1-1-1-1 1-1q3-6 10-7 5 0 12 5 6 4 9 13a41 41 0 0 1 2 29q-3 8-6 9h-2v-2l1-16v-1q0-13-13-22-6-4-12-5m2-3 11 5q14 10 14 25v15l3-7q3-6 2-10 0-9-4-16-3-7-8-11t-11-4-7 3"/><path fill="#217900" d="M489 232c0-1 20-3 21 20 0 23-6 26-6 26s15-2 16-26c0-24-21-37-31-20"/><path d="M489 233v-3q4-6 10-7 5-1 11 2 5 4 8 11 4 7 4 16 0 16-9 23-4 4-8 4-1 1-2-1l1-2 3-3q3-7 3-21 0-13-10-17-4-2-10-2m3-3 8 1q12 5 11 21 0 15-3 22l3-2q7-6 8-20 0-7-4-15-3-6-7-9-5-3-10-2z"/><path fill="#217900" d="M694 522c1 11 8 21 5 39-4 21-16 69-14 77q-5-10-4-24c0-10 11-47 12-60z"/><path d="m694 521 1 1 3 11 3 13-1 16-5 26a244 244 0 0 0-10 52l-1-1q-4-6-4-20v-5l6-32 6-28zm1 10-1 23-6 29-6 31v5l2 13a470 470 0 0 1 14-71q1-11-2-27z"/><path fill="#217900" d="M694 523s12 21 12 38c-1 16-7 35-5 44q-5-9-6-22c0-10 6-21 5-32-1-12-6-28-6-28"/><path d="m695 522 6 13q6 15 6 26l-3 23q-3 17-2 21l-1 2-1-1q-5-9-6-23l3-15 2-17-5-25-1-2v-2l1-1zm3 12 3 16q1 7-2 19-3 9-2 14l2 16 2-16 4-22q0-10-6-25z"/><path fill="#217900" d="M296 480c0 10-6 19-3 38 4 20 17 47 15 77q6-10 5-26c0-10-14-45-16-58z"/><path d="m297 480 2 31q0 6 8 29 7 24 7 30 0 17-5 26h-1l-1-1-3-29-6-26-6-22q-2-13 1-28l2-11 1-1zm-1 11q-4 14-2 26l6 22 7 26 2 23q3-7 3-19 0-4-8-28l-8-30v-21z"/><path fill="#217900" d="M296 480s-11 20-11 37c0 11 15 57 13 66 4-7 5-6 5-17-5-29-12-47-11-58z"/><path d="m295 479 1-1 1 2v5l-4 23 4 25 7 33-1 9-2 6-2 3-2 1v-3l-7-36-6-29q0-12 5-26zm-4 14q-5 13-5 24l6 28 7 33 2-4v-8l-6-32q-6-19-4-27z"/><path fill="#8c8a8c" d="M526 309s20 5 22 21c1 17-5 26-5 26 0 1 3 36-18 44-22 0-57-8-57-8s-10 1-14-28-5-50-5-50 2-15 17-15z"/><path d="m526 307 11 5q11 7 12 18t-2 20l-3 7-1 19q-4 19-18 25-22 0-57-8l-6-3q-6-7-9-26-5-29-5-50l3-9q5-7 15-7l45 7 11 2zm0 3-15-1-45-7q-9-1-14 6l-2 7q0 21 5 50 3 18 8 24 3 3 5 2 35 9 57 8 12-4 16-23 2-10 1-19v-1l3-6q3-9 2-19 0-9-11-16zm18 47-6 10q-5 10-4 14v1l-1 1-1-1q-1-6 5-17l5-10h2z"/><path fill="#8c8a8c" d="M528 399c3 4 5 8 6 20l1 18v6l15 183 13 134 1 20s-3 14-12 14c-7 18-40 18-44 17-3-1-14-8-21-9-7 0-18 4-23 2-6-2-17-9-19-20-15-9-17-24-17-24l16-150 15-190s2-24 9-28c8 1 48 9 60 7"/><path d="M528 398q6 8 7 21l1 24 15 183 13 134 1 20-3 8q-4 7-10 8-4 11-23 15-15 3-21 1l-6-3-15-6-10 2-13 1-11-7q-7-7-9-15a37 37 0 0 1-17-24l16-150 15-190 2-13q2-14 8-16l17 2 42 5v-1zm-1 2q-7 2-42-4l-17-2q-4 1-6 14l-2 13-15 189-16 150 3 8q4 9 13 14l1 1q1 7 8 14 4 4 10 6 3 1 13-1l10-1q5 0 15 6l6 3q6 1 20-2 19-4 23-14v-1h1q5 0 8-7l3-6-1-21-13-133-15-183-1-24-2-13zm-78 250-3 134-2-1 3-134zm95 32 9 112h-2l-8-112z"/><path fill="#fff" d="m498 318 30 128 95 13-77 66 29 128-77-88-77 65 30-119-77-87q46 5 95 13z"/><path d="m499 317 29 128 96 15-77 66 29 127v1h-1l-77-87-76 64h-2v-1l29-119-76-86v-2l1-1 94 13 29-118zm-1 5-28 115-1 1-92-12 74 84 1 1-29 116 75-63h1l74 85-28-124v-1l75-64-93-14z"/></svg>