<svg xmlns="http://www.w3.org/2000/svg" viewBox="0 0 1000 1000"><path fill="#0071bc" d="M8 195.3c170.8-85.3 341-54.5 513.3-28C676.5 191 833.4 211.8 992 132.7v672c-170.8 85.3-341 54.5-513.3 28C323.5 809 166.6 788.1 8 867.2z"/><path fill="#fff" d="M556.9 704.3c.3-.4 17-22 34-15.6 5.5-25.6 23.5-25.4 23.9-25.4 0-.6-1.8-28.6 22.3-33 1-20 15.2-34.6 15.4-34.8 0-.6-2.8-30.3 12.3-36.8-9-25.3 3-41.8 3-42.3-.4-1-15.4-39.1-1.8-49.6a46 46 0 0 1-10-37.3c-.3-.2-15.7-7-10.4-33.1-13.2-5.2-16-33.8-16-34.3-.4.1-19.9 3.3-23-21.4-13.5.6-15-16.6-15.2-17.2-.6.1-26.2 6-32.2-22.2-10.6 5.1-14.6-7.4-14.8-7.9-.4.2-14.4 7.6-23.7-13a18 18 0 0 1-27.5-4.9c-.5.4-22.6 17-30.9 0-14 16.6-25.6 7.2-25.9 7-.2.5-10 22.9-27 15-4.3 22.5-22.6 20.7-23 20.7 0 .5 2 20-21 23.6-3.4 23.8-14.8 26.7-15 26.7 0 .5 1 23-9.7 30.2 3.4 13.8-6 28.6-6.2 28.8.2.4 10.3 18.7-3.8 38.5 13.7 6.8 4 37.8 3.8 38.3.4.3 18.9 13.2 7.2 34.4 13.7 7.7 9.6 21.8 9.7 31 9 6.2 16.4 4.4 12.8 28.3 27 7.6 14.6 25.9 14.4 26.2.4 0 12 2 7.6 15.3 23.2 2.7 26.5 26.6 26.6 27 .6-.1 20.7-4.6 24.3 7 2.6 12-9.3 86.8-9.3 87-.3-.1-17.8-2.7-31.7-24.1-31.6-5.7-24.9-32-25.2-32.6-.8 0-10.2 4-15.7-20.1-21.2 3.1-20.5-19.7-20.7-20.6-.5-.4-9-6.4-6-18.4-21.8.3-20.2-27.1-20.2-27.8-4.8-3.2-6.4-8.8-5.8-15.1-3.2-1.5-21.8-2.7-12.2-37.2-18.1-16.3-7.3-32.6-7-33-.4-.3-25-18.1-5.8-39-14.3-30 .9-44.1 1.1-44.3-.2-.4-20-28.2.4-48.3-3-43.1 15.1-52.5 15.3-52.6 0-.3-9.7-35 16.9-48.6 2-35.3 20-34.9 20.3-34.9 0-.3.5-27.7 29.9-22.6 6.2-24.3 25.2-17.3 25.7-17.1 0-.4 6-29.1 33.3-11.4 14.4-34.7 34-13.4 34.4-13 .4-.4 12.5-9.3 19.5-5.1 8.7-17.7 25.6 2.8 37.2 8.7 4.4-1.8 18.5-14 30.2 6.4 15.4-10.5 27.6 14.3 27.9 14.8.3-.2 20.2-11.2 30.3 22.6 43.8.7 37.7 37.3 37.6 38 .4 0 33.9-7.3 27 38.8 31.2 6 28.3 32.5 28.2 33.2.3.3 19.3 21 11.2 39.5 17.5 2.6 11.3 24.1 11.1 24.7.3.2 13.2 7.3 2.4 35.9a43.6 43.6 0 0 1 4.8 56.2s13.5 22.7 1.2 49.2c3.5 42.2-11.5 52.2-11.7 52.3 0 .4 3.9 26.8-13.3 34.3-.9 32-22 34.4-22.4 34.5 0 .2 5.7 14-16 27.2-1.5 21.3-23.2 20.8-23.7 20.8 0 .4-2 38.4-31.2 25-7.7 30.6-40.5 16.8-41.7 16-.4-.8-6.5-68.1-6.5-68.5"/><path d="M556.2 703.3q4.5-5.7 11-10.6c8.6-6.2 15.9-8 23-5.6 2.4-10.6 7-17.6 14-22q5.1-2.8 9.6-3.1-.2-7.1 2.2-14.5c3.7-10.6 10.1-16.5 20.2-18.5q.8-12.2 8.1-24.4 3.7-6 7.2-9.8-.6-7.5.5-15.9c1.6-11.3 5.3-17.9 11.5-21-5-15-4-28.4 3.1-41.5l.1-.2q-4.1-11-6.2-21.8c-2.5-14.2-1.3-23 4-28a49 49 0 0 1-9.7-36.2 21 21 0 0 1-6.9-6.7q-6.6-10.3-3.4-26.3c-5.5-2.6-9.5-8.6-12.7-19.2q-2.2-7.5-3-14.4-4.8.4-10-1.6c-7.4-3.3-11.5-9.6-13-19.9-8.1 0-12.8-5.2-15-17.1-5.2.8-9.8.5-14.6-1-9.3-3-15-9.7-17.6-21-4.4 1.9-7.7 1.1-11.2-2.5a20 20 0 0 1-3.4-5.5 16 16 0 0 1-8.1 1c-6.6-1-11.5-5.4-15.5-13.8-7.5 4.8-13.9 5.3-20.4 1.6q-4.4-2.7-7-6.6a46 46 0 0 1-12 6.1c-9.2 2.8-15 1-18.8-5.8-5.8 6.7-11.5 9.5-18 9.1q-4.3-.4-7.4-2.4a40 40 0 0 1-7 10c-6.4 6.4-12.5 8-19.7 4.9-2 9.3-6.2 15.1-13.3 18.4q-4.9 2.2-9.4 2 0 5-2 10.1c-3.5 7.6-9.5 11.8-19.2 13.4q-2 14.6-8.8 22.1a17 17 0 0 1-6 4.5q0 5.6-.9 11.9c-1.5 9-4.3 14.6-8.6 17.9a35 35 0 0 1-2 19.4 55 55 0 0 1-4.2 8.9q2.4 4.8 3.3 11.7c1 9.6-1.1 18-6.6 26.1 5.3 3.5 7.3 10.5 6.4 22.2q-.7 8.4-3 16 4.4 3.5 7.6 9.2a25 25 0 0 1-.2 25.2c4.6 3 7.3 6.7 8.8 12q1.1 4.7.6 14.2l-.3 4.6 4.3 2.5q6.3 3.5 8 7.4 2.6 5.6.8 18.2c11.3 3.3 16.6 8.6 17.1 16.8q0 5.1-2.1 9.5 2.4.9 4.3 2.5c3.6 3.3 4.5 7 3 12.5 9.4 1.4 16 6.1 21.2 14.8q3.4 6 4.6 12 5-1 10.3-.8c8.3.6 12.6 3.3 14.2 9q1.8 7.7-3.6 48.5l-5.7 39-.2 1h-.7q-4.7-.8-11-4.1a58 58 0 0 1-21.1-20.1c-12.3-2.2-19.8-7.3-23.8-16.2a35 35 0 0 1-2-16.1 9 9 0 0 1-6.2-1.9c-4-3.2-7-9-9.2-18.3-8.4 1.1-13.8-1.4-17.6-8q-2.9-5.5-3.3-13.2c-5.8-5.2-7.8-10.7-6.5-17.9-8.9-.2-14.4-4.6-17.7-14.2a43 43 0 0 1-2-14.1c-4.6-3.3-6.4-7.9-6-15l-.6-.2a20 20 0 0 1-11.2-8c-3.9-6.6-4-16-.5-29.4-7.6-7-10.8-14.3-10.2-23.1q.6-5.9 3-10a39 39 0 0 1-9.7-11.5c-5.3-10.1-4-19 4-28.1a48 48 0 0 1-4.5-33.6q2-6.8 5.5-10.7-4.5-7-7-16.2c-3.4-13.3-.9-23.8 7.8-32.6-1.3-18 1-31.9 6.6-42.6q4.1-7.3 8.5-10-2-8.7-1.3-18.8 1.8-21.4 18.5-30c.9-14.9 4.5-24.9 11.1-31 3.3-2.7 6-4 9.2-4.3q.6-6.8 4-12.9c5.5-8.7 13.7-11.8 26.1-9.8 2.7-10.2 7.6-15.8 15.4-17.7q5.4-1 10.3.4 1.8-7 6.5-12c7-7 15.5-6.8 27 .5 6.2-14.5 13.4-20.6 23-19.3q6.6 1.2 11.9 6.4 3.1-2.2 7-4c5.3-2.3 9-2.6 12.1-1.1 3.1-5.9 7-7.8 12.8-6.4q4.9 1.4 15.5 9.2a88 88 0 0 0 9.3 6.2l2-1.1q7.7-4.3 12.8-4.2c6.2.3 11 3.8 15.6 11.3 6.6-4.2 12.8-3 19.9 3.9a48 48 0 0 1 8 11c3.6-1.6 7.1-2 11.4-1.1 8.8 2 15 9.7 19.4 24 18.4.3 29.8 6.5 35.4 19.6a38 38 0 0 1 2.7 18.2q8-1.1 15.4 2.4c10.6 5.6 14.3 17.3 11.6 36.8 12.9 2.7 21 8.7 25.5 19a33 33 0 0 1 2.5 14.7q4.8 5.5 8.6 12.8c5 10 6 18.4 3.2 26.2 7 1.5 10.5 5.7 11.5 14a36 36 0 0 1-.8 11.2 16 16 0 0 1 5 7.3q4.1 11.2-2.6 28.9a45.4 45.4 0 0 1 5.2 56.2l-.3.4a57 57 0 0 1 .9 49.4q2.3 26.4-4.6 42.3-3.3 7.4-7 10.4.8 6.7-.3 14.1c-1.8 10.6-6 17.1-13.2 20.5q-.5 20-11.7 29.4a24 24 0 0 1-10.2 5.2q.8 3.5-.3 8.1c-2 7.2-7 13.3-16.2 18.9-.7 9.1-4.7 15-12.7 18.7a29 29 0 0 1-11 2.5q-.8 9.4-4.8 17.2c-6 11-14.4 13.6-26.7 8.2-3.4 12.7-11 18.9-23.7 19.4a47 47 0 0 1-19-4c-.5-.6-2-12.1-4-35.4l-3-34.4v-.5zm1.7 1.6 3 33.5L563 762l.9 7.8.3 2.2q1 .6 5.1 1.7a46 46 0 0 0 12.5 1.7q18.1-.6 22.4-19l.3-1 .9.3c11.8 5.6 19.8 3.4 25.4-6.9a44 44 0 0 0 4.6-17.2v-1h.9q5.4 0 11.2-2.4c7.4-3.4 11-8.8 11.5-17.3v-.8l.6-.3q13.3-7.8 15.7-17.6 1-4.7-.1-7.7l-.7-1.8 1.4-.1q5.3-.6 10.6-5c7.2-6.2 10.7-15.3 11-28.2v-1l.6-.2c7-3 10.9-9 12.5-18.9q1-7.5.2-14l-.2-1 .7-.4q3.5-2.4 6.9-9.8a87 87 0 0 0 4.2-41.2v-.4l.2-.4q7.4-15.4 4.2-32.5a53 53 0 0 0-5.3-15.3h-.1v-.3q-.3-.4 0-1 0-.6.5-.7l.5-.8 2-3.3q3-6 4.2-12.2c2.5-13.6-1.4-25.7-11.8-37.6l-.6-.7.3-1c4.5-11.6 5.4-20.4 3-27.3q-1.9-5-4.8-6.7l-.9-.5.3-1.2q1.6-5.4 1-11c-.9-7.5-4.3-11-11.3-12l-1.6-.1.9-1.9c3.3-7.2 2.5-15.2-2.4-25a60 60 0 0 0-8.6-12.7l-.4-.5v-.8q.8-6.6-2.2-13.8c-4.2-9.8-12.2-15.4-25-17.8l-1.2-.2.3-1.5c2.9-18.7-.4-29.8-10-35a24 24 0 0 0-16-2l-1.4.3.3-2q1.5-9.1-2.2-18.2c-5.2-12.3-16.2-18-34.3-18.2h-.7l-.3-1c-4-13.8-9.7-21-18-23-4.2-.9-7.5-.4-11 1.3l-.7.4-.5-1a45 45 0 0 0-8-11.1c-6.7-6.5-12.4-7.4-18.6-3.1l-.7.5-.5-1c-4.2-7.4-8.7-10.8-14.5-11.1q-4.9 0-12.1 4l-2.5 1.3-.3.1-.3-.1a82 82 0 0 1-9.9-6.6q-10.2-7.5-14.9-8.8c-5.3-1.3-8.6.6-11.4 6.2l-.4.9-.8-.6c-2.6-1.6-6-1.4-11.4.9q-4 1.8-7.2 4.2l-.5.4-.5-.6c-3.5-3.5-7-5.5-11.5-6.3-9-1.2-15.7 4.8-21.5 19l-.4 1-.8-.5c-11.2-7.3-19.4-7.7-26-1.2a25 25 0 0 0-6.1 12l-.3 1-.8-.3a19 19 0 0 0-10.3-.6c-7.4 1.8-11.9 7.2-14.3 17l-.2 1-.8-.2c-12-2.2-20 .7-25.1 8.8a27 27 0 0 0-3.7 12.6v1.3h-1c-3 0-5.7 1.2-9 3.9-6.2 5.7-9.6 15.3-10.4 29.7v.8l-.6.3c-10.8 5.5-16.6 14.6-17.8 28.2q-.7 10.3 1.5 18.7l.3 1.3-.8.4q-4.4 2.3-8.6 9.7-8.1 15.3-6.2 41.6v.7l-.4.4c-8.2 8-10.6 17.7-7.6 30a52 52 0 0 0 7.4 16.4l.8 1.1-1 .9a23 23 0 0 0-5.7 10.4q-3.9 14 4.8 32.2l.5 1-.7.7c-7.7 8.2-9 16.2-4.2 25.3q3.8 6.8 10 11.4l1 .8-.8 1.2a22 22 0 0 0-3.2 10c-.6 8 2.6 14.6 10 21.1l.7.6-.3 1c-3.7 12.9-3.7 21.8-.2 27.9a18 18 0 0 0 10.1 7l1.7.6.7.4v1c-.7 6.8.9 10.9 5.2 13.7l.6.4v1c-.2 4.7.3 9 1.8 13.7 3.1 9 8.5 12.8 17.3 12.6l1.6-.1-.6 2c-1.8 6.7-.2 11.8 5.4 16.6l.4.4q.3.4.3 1.3a29 29 0 0 0 2.9 12c3.4 6 8.5 8 16.6 6.8l.9-.2.2 1.2c3.2 14.3 7.6 20.2 14.3 19.1h.5q.9 0 1 1.3v.4l-.1.8q-.9 8.9 1.7 15.2c3.7 8.2 10.8 12.8 22.6 14.9h.4l.3.5a56 56 0 0 0 20.5 19.6q5.5 3 9.7 3.8l5.6-38q5.3-40.1 3.6-47.1c-1.3-4.4-5-6.5-12.3-7q-5.6-.2-10.9 1l-1 .1-.2-1.4q-.9-5.8-4.3-12a26 26 0 0 0-21.3-13.8l-1.5-.2.7-1.8c1.7-5 1.2-8-1.6-10.8a12 12 0 0 0-5.3-2.5l-2-.3 1.3-2q2.9-4.4 2.8-9.5c-.4-7-5.6-11.4-16.5-14.4l-1-.3.2-1.4a36 36 0 0 0-.3-17.6q-1.3-3-7-6.2l-5-3-.6-.4v-.8l.2-5.8q.5-8.9-.4-13a17 17 0 0 0-8.8-11l-1.3-.6.8-1.4c4.8-8.4 5-15.7 1-23.4a28 28 0 0 0-7.8-9l-.8-.5.3-1.1a82 82 0 0 0 3.3-16.6c.9-11.2-1.1-17.4-6.5-20l-1.5-.7 1-1.5a35 35 0 0 0 3.9-36.7l-.5-.9.5-.8q2.4-3.8 4.4-9 3.7-10.6 1.6-18.5l-.3-1.2.8-.4c4.2-2.8 6.9-8 8.4-16.7q1-6.5.7-12.3v-1l.7-.2q2.8-.8 6-4.2c4.3-5 7-11.9 8.3-21.6l.1-1h.7c9.4-1.4 15.3-5.2 18.5-12.3q2.1-5.2 1.7-10v-1.4h1q4.6.4 9.7-1.7c6.8-3.3 10.7-9 12.4-18.1l.2-1.3 1 .5c6.8 3.3 12.7 2 18.9-4.1q4.5-4.7 7-10.4l.5-1 .8.7q2.8 2.2 7.3 2.6c6.2.4 11.7-2.6 17.4-9.4l.9-1 .6 1.4c3.2 6.7 8.4 8.4 17.2 5.8q6.6-2.2 12.3-6.4l.7-.6.6 1q2.3 4 6.7 6.6c6.2 3.5 12.2 2.8 19.6-2.1l.8-.6.5 1.2c3.7 8.3 8.1 12.5 14.3 13.5q4.6.6 8.2-1.2l.8-.5.4 1.3a17 17 0 0 0 3.3 5.5c3.1 3.3 6 3.7 10.3 1.6l1-.6.3 1.6c2.3 11 7.4 17.4 16.4 20.4q7 2.1 14.6.8h.3q.8 0 1 1.6c2 11.2 6.4 16 14 15.6l1-.1.1 1.3c1.2 9.8 4.9 15.7 11.8 18.8q5.2 2 10.1 1.3l1-.1.2 1.4q.6 7.2 3 15c3 10.4 7 16 12.2 18l1 .4-.3 1.3c-2.2 10.5-1.3 18.5 2.8 25a18 18 0 0 0 7 6.4l1 .5-.4 1.3a36 36 0 0 0-.5 11.2 46 46 0 0 0 10.2 24.6l1 1.3-1.1.8c-5.3 4-6.6 12.2-4.2 26a129 129 0 0 0 6.3 21.8v.1q.3.9-.4 2.2a46 46 0 0 0-2.5 40.2l.5 1.4-1 .4c-6.2 2.5-9.7 8.6-11.4 19.6q-1 8.2-.4 15.8l.1.7-.4.4a59 59 0 0 0-7.3 9.8q-7.3 12.1-7.7 24v1l-.8.2c-9.9 1.8-16 7.2-19.5 17.2q-2.5 7.5-2 14.6v1.3h-1a20 20 0 0 0-9.6 3c-7 4.2-11.2 11-13.4 21.6l-.2 1.2-.9-.4c-6.9-2.7-14-1.1-22.5 5q-6.1 4.6-10.3 9.9m165-190.6q-.4.5-.7.5.4 0 .7-.5m-.8-2.2a1 1 0 0 1 .8.5q-.4-.6-.8-.5"/><path d="M598.3 743.5q-.4 1.2 0 3.1c1 3 3.1 5.8 7.2 8.8l-.7 2.3a20 20 0 0 1-8.3-10.4 9 9 0 0 1 0-5.2zm19.5-15.4c8-1.6 14.3-.9 19.8 2.2l-.7 2.4a26 26 0 0 0-18.7-2zm35.4-34.5v.4c-.5 4.5 1.7 9.5 7.2 16l-1.2 2c-6-7.2-8.5-13.1-7.9-18.7v.1zm6.2-18q1.6 1.5 4.5 3.5a28 28 0 0 0 13 4v2.6a29 29 0 0 1-18.7-8.2zm-67.6 13.2q0 4.5-.6 10.1-1.6 11.3-6 16.2l-1.3-2a29 29 0 0 0 5.4-14.9q.8-5.3.6-9.6zm21.9-26q2.7 1 6.5 1.8c5.2.7 9.2 0 13-2l.9 2.4q-6 3.4-14 2.1-4-.5-6.9-2zm71.6-19.1q.5.8 2.3 1.8 4 2.3 11.6 2.1v2.7c-8.7 0-13.4-1.7-15.4-5.2zm-48.2-15q2 1.4 8.2 3.3 9 2.4 14.3-.4l.8 2.4q-5.8 3.2-15.4.5a31 31 0 0 1-8.8-3.6zM664 558q.4-.7 1-.4.4.1.7.6l.8 2.3q1.4 4.8 4.1 18.1l-1.8.6a307 307 0 0 0-4.3-19.2q.6.3 1-.4zm12.6-56.9q-.1 3-1.2 6.5a18 18 0 0 1-6.4 10l-1-2.4c2.6-1.9 4.3-4.5 5.6-8.7q1-3.1 1-5.7zm41.4-42.5a55 55 0 0 0-4.4 5.6q-3.7 5.5-3 7.4l-1.7 1.2c-1.3-3.8 1.1-8.7 8-16.2zM671 447q1.2 3.3 1.5 7.3a16 16 0 0 1-5 13.4l-1.1-2.2c3-3 4.4-6.3 4.2-11q-.3-3.7-1.3-6.3zm-25-51.6q2.4.1 5 1.6 5.5 2.8 8.2 9.8l-1.7 1q-2.3-5.9-7-8.4-2.4-1.2-4.4-1.4zm18.8-70.5v-.5c1 2.7.4 5-1.9 8.3l-1.3-2c1.6-2.2 2-3.6 1.5-5.1l-.2-1zm-61-6a49 49 0 0 1 4 22.9l-2-.5a46 46 0 0 0-3.5-21.3zm25.5-30.7q1.9 0 8.4-3.3l.8 2.5a33 33 0 0 1-9 3.4zm-29.2-39.5q.6 0 .8-.6v.3a29 29 0 0 0-.7 5.6c0 4.5.7 7.2 2.2 9.1l-1 2c-2.2-2.6-3-6-3-11.4s.6-7.5 1.7-7.6zm-10 52.8q.1 5.2 2.5 10 1.5 3 1.7 5.1.1 3.2-1.9 8l-1.6-1.5q1.7-4.1 1.6-6.5 0-1.4-1.3-3.8a26 26 0 0 1-2.9-11.5zM571 289.3l-5.4 5.5a34 34 0 0 0-5.5 6.3l-2-.3c.2-1.4 2-4 6.3-8.2q5.8-5.8 6.6-5.9zM541 276q1.3 2 2.4 5.2 2.3 6.5 1.6 12.5l-1.9-.7a25 25 0 0 0-3.5-15.4zm-40.7-12.8v.1q-4.5 11.8-7.3 13.6l-1-2.4c1.6-1.1 3.7-5 6.6-12.6v-.2zm-36.8-7.3c1 .4 1.8 2.6 2.3 7.9s-.4 9.4-2.6 12.8l-1.5-1.9q2.8-4 2.2-10.9-.2-2.3-.7-4.4l-.4-1.3v-.2q0 .4.7.6zm-63.4 36.7q0-.4-.3-.6l.2.1 1.1.5 3.5 1.4 5 1.8-.4 2.5c-7-2.5-10.3-4-10.8-4.8zM374 320.4q.4-.4 12.4-4l.6 2.6-11.7 3.4zm-18.6 18 1 .2c5.1 1.5 7.8 1.9 8.9 1.5l.8 2.4c-1.4.6-4.4.3-10-1.3l-.7-.2zm-5 9.7c2 2 2.3 8.7.8 21.4l-1.9-.6q1.3-11 .6-16.3l-.5-2.2v-.1zM312 297.9l4.7 10-1.6 1.4-4.7-10zm-18 49.9q-.1-.7.4-1 .4-.5.9-.2l.3.3.1.2.3.4c3.5 6.4 6.8 9.8 10.2 11.2l-.4 2.5q-5.7-2-11.3-12.1l-.3-.4.3.3q.6.3 1-.1l.4-1zm38.3 51.8a54 54 0 0 0 8.4-2.3l1 2.3q-.9.6-5 1.7-3.9 1-4.4 1zm-3.3 36.6q-.8 0-1 .8l.1-.2a15 15 0 0 1 6.4-11.4l.9 2.4a13 13 0 0 0-5.4 9.5q-.1 1.5-1 1.5zm-7.2 17.5 3.1 4.6q3.7 5.1 5.9 6.2l-.5 2.5c-1.8-1-4-3-6.8-7a23 23 0 0 1-3.6-6.4z"/><path d="M317.3 470.9v-.1l.5-.4c5.2-4.4 9.4-6.1 13.7-5.6v2.6c-4-.5-7.8 1-12.6 5.2l-1 .8zm-.7 26.2q0 1.4 1.9 3 4.3 3.6 15.4 3.3l.2 2.6c-8 .2-13.1-1-16.6-3.7q-2.7-2.4-2.8-5.2z"/><path d="M316.5 526.7q0-2.4 4.2-9.8a32 32 0 0 1 12.6-13.2l.7 2.4a30 30 0 0 0-11.8 12.5 33 33 0 0 0-3.8 8.2zm14.6 21.7q.5-2 2.2-4.4 3.2-4.7 9.1-7.4l.7 2.5a21 21 0 0 0-8.4 6.7q-1.5 2-1.7 3.5zm10.4 28.1q6.8-6.7 9.3-7.8l.6 2.6q-2.2.9-8.6 7.3zm9.5 22.6q.7 1.1 2.6 1.5 4 .6 10-4.4l1 2.2c-4.4 3.8-7.8 5.2-11.2 4.8a6 6 0 0 1-3.8-2.4zm-48.6.7h.3c11-2.3 17.6 0 21.2 7.3l-1.6 1.3c-3.1-6.2-9-8.2-19.2-6.1h-.4zm5.8 16.5c10.6-1.2 16.2-.8 18 .9l-1.3 2c-1.3-1.3-6.4-1.5-16.5-.3zm55.4 10.7v-.3l.6.2q3.4.6 15-3.7l.7 2.5q-12 4.5-15.9 3.7-1.7-.4-2.2-2a3 3 0 0 1 0-1.7zm23.3 13q-1.3 3.2-1.3 9c0 4.6-.7 7-2.6 8.6l-1-2.4c1.2-1 1.8-2.8 1.7-6.3q0-6.6 1.6-10.4zm-58.5 3.3.4-.3c4-2.6 5.5-6.9 5-14l2-.2c.5 8.4-1.4 13.5-6.2 16.6l-.2.1zm6 19 .9-.4c7.7-3.3 11.7-3.6 13.5-1.3l-1.4 1.6c-1.2-1.4-4.5-.8-11.5 2.1l-1 .5zm19.9 20.9c1-9.1 2.6-13.5 5-14.6l.6 2.5c-1.6.8-2.8 4.6-3.7 12.6zM371 703c5.8.4 9.4-.4 12-2.4l1.1 2.2c-2.9 2.3-6.9 3.2-13 2.8zm17.6-40.6q.8 1.2 5.7 2.7a39 39 0 0 0 18.3.3l.5 2.6a40 40 0 0 1-19-.3c-3.9-1.2-5.9-2.4-6.9-3.6zm6.6 53.2q2.4 16.9 2.2 20.9l-2-.5q.2-3.5-2.1-20.2zM630 360.8l6.5.7v2.6l-6.5-.7zm-103.3-91q-2.8 10.3-6.3 12.7l-1-2.4c2-1.5 3.8-5 5.5-11.5zM456 199c.5 1 .6 2.8.3 6.3q-.7 6-3.2 10.4l-1.5-1.8q2-3.9 2.8-9.2.3-3.9.2-4zm-35.4 14.2q.3 3.2-.7 6c-1.7 3.5-4.3 5.3-9 6.2l-.3-2.6c6.2-1.1 8.6-4 8.2-9.5v-.3z"/><path fill="#f7df73" d="M560.7 742.6c.4 0 98.3-24.3 128.8-190C671.5 724 564.2 763.2 564 763.3z"/><path d="M560.5 741q6-1.4 15.6-6.2 19.4-9.6 37.1-26.2c37.7-35.8 62.7-88.3 75.2-156.4q0-.9.5-1 .3-.4 1-.1 1 .4.8 1.8c-7.4 71-30.5 128.5-69.7 170.8a186 186 0 0 1-39.3 32.4q-10.5 6.2-17.4 8.8-1 .4-1.5-1.2v-.3l-3.2-20.6v-1.3q.3-.4.9-.5m1.6 3 2.7 17.2q6.4-2.5 15.8-8.1 20.7-12.5 38.8-32 48.9-52.9 64.3-136.3-21 80.6-69 126.5-18 16.8-37.5 26.6-9 4.5-15 6"/><path fill="#f7df73" d="m431 719.5-3.1 20c-.3-.2-107-68.7-124.4-240.9C333 667.3 430.9 719.4 431 719.5"/><path d="M431.3 717.9q1.1.6 1 2l-3.2 20.2v.2q-.3.7-.7.9-.4.1-1-.2-6.7-4.4-17.1-13.7a299 299 0 0 1-39-42.8c-38.8-51.9-61.7-112.7-69-185.7q0-1.4.9-1.8.6-.1 1 .2.3.3.4 1C317 569 341.7 625.7 379.1 671q17.6 21.2 36.7 36.3a125 125 0 0 0 15.5 10.7m-1.6 2.5q-6-3.5-15-10.4a251 251 0 0 1-37-36.7c-31.8-38.4-54.5-84.8-68.4-141a347 347 0 0 0 63.6 150q18 24 38.6 42.3 9.2 8.3 15.5 12.6z"/><path fill="#8c1800" d="M570.9 754.4c3 0 10.6-9.5 15-10.7 4.3-1.2 4.7-6-.2-7.5-5.2-.3-9.1 6-9.3 6.4a17 17 0 0 1-8.9 4.5c-4.4.8-1.7 7.4 3.4 7.3m21-18.2c-.1-.1-2.8-1.7 4.9-5 7.7-3.5 7.5-8 10-9.8 2.9-2 7.5-6 9.1-3 .6 3.4-5.4 8.1-7.4 9-1.5.6-9.6 9-11.7 9.9q-3.4.6-4.8-1.1m-171-7.6c-2.9-1-10.6-12.7-14.8-15s-4.8-7.5.2-7.6c5 1 9 8.7 9.2 9s4.3 5.4 8.8 7.1c4.2 2 1.8 8-3.4 6.5m-20.9-24.3c.2 0 2.8-1-4.8-6.4s-7.4-9.9-9.8-12.4c-3-2.7-7.5-7.9-9.1-5.3-.6 3.3 5.4 9.7 7.3 11 1.5 1 9.6 11.6 11.7 13q3.3 1.4 4.7.1m227.7-.7c-.5.4-9.5 6.6-8.8 9.1 2 1.5 10.1-6 10.8-6.7.2-.3 3.9-5.5-2-2.4"/><path fill="#8c1800" d="M627.5 702q2.1-1.2 3.1-1.1t1.5 1.2q.3.9 0 2a8 8 0 0 1-1.5 3.2 41 41 0 0 1-5 4.4c-4.2 3-6.1 3.6-7.5 2-.8-1.4-.6-2.6.8-4.5q1.1-1.5 3.3-3.2 2.4-2 5-3.8zm.9 3.1-4.8 3.7q-1.7 1.4-2.6 2.4a56 56 0 0 0 8-6.4zm-263.8-42.5c.5.4 9.4 8.9 8.7 11.2-2 1-10-8.4-10.6-9.2-.3-.4-4-6.6 1.9-2"/><path fill="#8c1800" d="m370.2 666.2 3.2 4q2 3.2.8 4.8c-1.3 1.3-3.3.2-7.3-3.7a57 57 0 0 1-5.1-5.6q-1.2-1.8-1.5-3.7-.3-1 0-1.8.5-1.1 1.5-1 1.1.1 3.3 2l2.5 2.1h-.2zm-6.7-2.8a53 53 0 0 0 7.9 8.3l-2.6-3-4.8-4.9zM644.3 686l-6 8.4-.7 1-.3.3-.3.2q-.6.3-1.2 0-1-.7-1-2.2 0-1.4.8-1.8l.5-.7 5.9-8.2q1-1.5 2.2 0l.6 1.5q0 .8-.5 1.5m-8 5.8h.2zm18.2-22L648 680q-.9 1.5-2 .1-1-1.4-.2-2.7l6.5-10.2q.9-1.5 2-.1 1 1.3.2 2.8m10.1-21.4-7.2 15.2q-.7 1.4-1.8.4-1.2-1.1-.4-2.5l7.2-15.2q.7-1.5 1.8-.4 1.1 1 .4 2.5m8.5-22-6 15.8q-.5 1.4-1.5.6-1.1-.8-.6-2.2l6-15.8q.5-1.4 1.6-.6 1 .8.5 2.2M677 615l-2 5.5q-.4 1.5-1.5.7t-.6-2.2l2-5.6q.4-1.4 1.5-.7 1 .8.6 2.2m4-15.7-1.7 6.7q-.2 1-.9.6t-.4-1.2l1.6-6.8q.2-.9.9-.5t.4 1.2m-330.2 39.5 5.8 9.7.5.7q.8.6.8 2 0 1.5-1 2l-1.2-.2-.4-.4-.2-.3-.8-1.2-5.8-9.7q-1-1.6.1-3 1.2-1.2 2.2.4m5.7 10.2h-.3zm-15.8-28.1 6.4 11.5q.9 1.7-.2 2.7-1.2 1.2-2-.5l-6.4-11.5q-1-1.6.2-2.7 1-1.1 2 .5m-10-23 7.1 16.8q.7 1.4-.4 2.4-1.1.8-1.8-.8l-7.2-16.6q-.6-1.6.4-2.5 1.2-.8 1.9.8m-8.5-23.3 5.9 17q.4 1.5-.6 2.2-1.1.6-1.6-1l-5.9-16.9q-.5-1.4.6-2.1 1-.7 1.6.8m-3.9-12.2 2 5.9q.4 1.5-.6 2.1-1.1.6-1.6-1l-2-5.8q-.3-1.5.7-2.2 1-.5 1.5 1m-4.7-15.9 1.6 7q.3 1-.4 1.3t-1-.7l-1.5-7q-.2-1 .4-1.3.7-.2 1 .7"/><path fill="#217900" d="M346 299c.3.3 7 9.1 6 22.2-1.4 12.8-6.6 30.3-5.7 44 .6 5.4.4 15 .4 15 0-.1-6.3-13.3-6.6-27 0-13.8 7-26.1 7.1-36.2q-.1-8.1-.7-13.4c-.1-1.5-1.1-3.2-.4-4.6"/><path d="M346.5 297.9a35 35 0 0 1 6.6 23.6 209 209 0 0 1-2.7 15.2 125 125 0 0 0-3.1 28.3q.6 5.6.4 15.3 0 .7-.3 1-.3.2-.7.2t-.7-.6a76 76 0 0 1-7-27.9q0-7.7 4-21.4 3-10.4 3.2-14.8 0-7.3-1-16.3l-.2-1.2v-.9q.3-.6.7-.8.4 0 .7.2m.9 5q.7 7.8.8 14.2 0 5-3.3 15.7a79 79 0 0 0-3.9 20.4q.2 8.3 3.3 18.1l1.6 4.4q0-6.4-.5-10.5-.7-9 3.2-29.3 2-10.5 2.5-15a31 31 0 0 0-3.7-18m-1.8-2.8"/><path fill="#217900" d="M342.5 302.6c-.2.1-9.3 11.5-10.8 23.6a828 828 0 0 0-1.4 48l-1.7 25.2c0 5.6 6.8-9.2 7.5-21.6-.2-13-.1-40.3.7-44.3.8-5.3.8-11 2-16.3z"/><path d="M343.1 303.6q-.2 1.7-1.1 5.1l-2.3 9q-.7 3-1.2 9.3l-.8 7q-1.2 5.6-.7 43.8a56 56 0 0 1-6.7 23.3q-1 1.2-1.8.7t-.8-2.6l1-16.2.7-8.9a638 638 0 0 1 1.4-48.2q.8-7.7 6-16.9 2.6-4.4 5-7.4.7-.9 1.3.1.3.3 0 1.9m-2.9 4-1.9 3.1q-4.9 8.7-5.7 15.8-.9 6.9-1.3 47.9l-.6 9-1 14.7 1.6-3.4q3.5-8.9 3.8-17a336 336 0 0 1 2.8-61l2.3-9z"/><path fill="#6b18b5" d="M280.8 381.1a76 76 0 0 1 7.7 20l.3 1.3q3.1 19.7 5.7 25l.6 1q18.4 38 19.3 51 0 7.8-4.7 15.5c-3.9 5.8-7.8 8.4-13 8.5-5-.5-9.4-2.5-14.2-6.1a27 27 0 0 1-10-20.8q-.1-11.6 3.3-21 2.1-5.7 2.4-10.1.8-14.4.8-63.5 0-1.4 1-1.3.4 0 .8.5m.1 5q0 45.6-.8 59.5-.2 5-2.6 11-3.3 8.8-3 19.8a25 25 0 0 0 22.3 24.4c4.5-.1 8-2.4 11.4-7.7q4.4-6.9 4.3-13.7-.8-12.3-19-49.5l-.5-1.1q-2.7-5.6-6.1-26l-.2-1.2a64 64 0 0 0-5.8-15.6m110.5-161.3a160 160 0 0 0-21.3 44.9 37 37 0 0 0-1.9 10.4 48 48 0 0 1-5.2 19.5c-3.7 6.8-8.6 9.4-16 8.7q-7.6-1.1-14-6.5-6-5.8-7.3-17-1-10.2 1.8-16.3a49 49 0 0 1 17.5-13.8q12.9-7.4 18.4-12.5 4.4-7.5 14-14.5l1.6-1v-.1a22 22 0 0 1 12-3.2l.4.2q.2.3.2.7t-.2.5m-11.9 3-1.5 1.1a47 47 0 0 0-14 14.3q-5.5 5.3-18.6 12.7a49 49 0 0 0-17 13.4c-1.9 4-2.4 8.8-1.8 15.3a26 26 0 0 0 7 16.1q6 5.1 13.5 6.2c7 .8 11.6-1.7 15.1-8.1 3-6 4.7-12 5-18.9q.5-6.7 2-10.8 5.9-21.4 20.8-44.3-5.9.2-10.5 3m174.4-3.4.1.4q.2.6-.3.8h-.4q-6.4-1.6-13.7-1.5a52 52 0 0 0-25.9 7.5q-3 .9-6.9 3-6.3 3.8-15 4.5c-6.3.4-11.3-2.5-16-9.2q-4.9-7.4-6.6-16.7-1.5-9.8 3.5-18.2c3.2-5 6.2-7.5 10-8q5.2-.2 19.6 10 13.7 9.7 20.8 12.2 3.3.9 9.4 2.1 7.9 1.5 10.6 2.9 5.6 3.4 10.8 10.2m-1.8-.5q-4.4-5.6-9.3-8.5-2.5-1.2-10.3-2.8-6.2-1.2-9.5-2.1-7.2-2.5-21-12.3c-9.6-6.8-15.7-9.9-19.2-10q-5 .8-9.3 7.7a26 26 0 0 0-3.4 17.1q1.7 8.9 6.4 16c4.5 6.4 9.1 9 15.2 8.7q8.4-.8 14.7-4.4 3.8-2.1 6.9-3a53 53 0 0 1 38.8-6.4m163 231.3q-.1.6-.6.4c-2.5-1.2-6.3-6.2-11.8-16a129 129 0 0 0-18.7-26.9q-2.6-3-7-5.4-7.2-3.6-12.9-12.5a32 32 0 0 1-3.4-23.9 44 44 0 0 1 7-16.7c3.7-4.4 7.8-5.8 13.6-5 5 1.2 8.5 3.3 11.2 7.2a89 89 0 0 1 6 26.9q2.5 20 5.4 29a88 88 0 0 1 8.7 24l.1.5 1.2 5.6a35 35 0 0 1 1.2 12.8m-.7-1.1q.4-2.9-1.4-11.3l-1.2-5.6-.1-.5A86 86 0 0 0 703 413v-.2q-3-9.1-5.6-29.5a89 89 0 0 0-5.7-26.1 16 16 0 0 0-10.6-6.7c-5.4-.8-9.3.5-12.8 4.5a43 43 0 0 0-6.8 16.2 30 30 0 0 0 3.2 22.7q5.6 8.6 12.4 12 4.7 2.5 7.4 5.7 8 7.9 18.9 27.2 7.5 13.1 10.9 15.2m-4.8 167.2q-.1.3-.4.3l-.3-.1c-1.8-2.1-3-5-3.9-9.6q-.7-4.1-1.3-14.3-1.5-22.5-5.6-33.8-1.1-4.4-4-9.6-4.4-8.9-6.4-20.3a28 28 0 0 1 16.7-31.1c4.9-1.3 9 0 13.7 4.5q5.8 5.9 7.2 13.4.9 7.2-.3 15.7-.8 5.1-3.4 15.6a153 153 0 0 0-4.6 24.3q0 2.9-1 11.3-1 12.6-1 15.5a37 37 0 0 1-5.4 18.2m-.5-1.4c3.6-7 5.2-12.3 5-16.7q-.2-3 1-15.7l1-11.3q.5-8.9 4.5-24.7 2.7-10.3 3.4-15.4 1.3-8.3.3-15.1c-1-4.8-3.1-8.7-6.8-12.6-4.4-4.3-8.3-5.5-12.8-4.3a26.5 26.5 0 0 0-16 29.6q1.8 11.2 6.3 19.7 2.8 5.5 4 9.9a134 134 0 0 1 5.6 34.2q.8 10.1 1.3 14a20 20 0 0 0 3.2 8.4"/><path fill="#6b18b5" d="M492 199a7 7 0 0 0-5.4-6.1q-5-.3-5.4 4.4a6.6 6.6 0 0 0 5.4 6.2q4.8.2 5.3-4.5m2.3 12.7c-.2-3-2.3-5.2-5.5-6q-5-.2-5.5 4.3.5 4.7 5.5 5.9 5 .3 5.5-4.2m7-13.6c-.5.4-5.8 5-3.8 8.5 3.2 2.5 9.4-3.7 9.8-4zm186 171.5a7 7 0 0 0-1.6-4.6q-1.7-1.4-3.3-.2-1.5 1.4-1.7 4.4a7 7 0 0 0 1.7 4.6q1.7 1.4 3.3.2 1.5-1.5 1.7-4.4m-2.4-12.5q-.4-5-3.5-5.8-3.1.3-3.5 5.3.4 5 3.5 5.8 3.1-.2 3.5-5.3m1.6 25.2q-.1-2.6-1.3-3-1.2.3-1.4 2.9.1 2.6 1.4 3 1.1-.3 1.3-2.9m5.6-22.1q-.1-3-1.4-3.4-1.2.3-1.3 3.2.1 3 1.4 3.4 1.1-.2 1.3-3.2m-15.3 1.3q0-2.4-1.3-2.8-1.2.1-1.4 2.6.1 2.4 1.4 2.8 1.3-.2 1.3-2.6m2.5 17.9q-.3-3.9-2.9-4.5c-1.7 0-2.7 1.6-2.9 4q.3 4 2.9 4.6 2.6-.2 2.9-4.1m-7.6-8.4q-.2-3.4-2.4-3.9-2.2.2-2.4 3.5.1 3.4 2.4 4 2.2-.2 2.4-3.6m-1.2-10.6a4 4 0 0 0-1-2.8q-1.1-.9-2.2-.1-1 .8-1 2.6a4 4 0 0 0 1 2.7q1.1 1 2.2.2 1-.9 1-2.6m34.4 55.5c-3.4-5.8-7.8-8.1-11.1-5.8-3 2.9-3 9 .1 15.1 3.5 5.9 7.8 8.2 11.2 5.8 3-3 3-9-.2-15m8.9 104c.4-7.2-1.8-12.6-5.5-13.8-3.8-.4-6.9 4-7.7 11.1-.4 7.2 1.8 12.7 5.5 13.8 3.8.4 6.9-4 7.7-11.1m1.9 60.5c.9-7.1-1-12.8-4.7-14.4-3.8-.8-7 3.2-8.3 10.2-1 7 1 12.8 4.6 14.3 3.8.9 7-3.1 8.4-10.1m8.5-56.4q-.3-4.5-3-5-2.8.4-3 4.9.2 4.5 3 5 2.7-.4 3-4.9m-7.4 11.2-6.2 9.4c-.5 0-5.2 0-5.5 2.6.6 2.5 7.6 10.7 8 13.7.4 2.8 4.7-.3 5-.6q2.3-8.6 4.2-17.2c0-.8-.3-11.1-2.5-11.8-2.2.5-2.8 3.4-3 3.9m-407.3-51.4q-.3-3.7-3-4.2-2.6.1-3 3.9.4 3.6 3 4.1 2.7-.2 3-3.8m2.8-12.2q-.4-3.7-3-4.4-2.6.3-3 4.1.4 3.9 3 4.4c1.7 0 2.8-1.6 3-4M288 412q-2.1-5.4-5.2-4.4c-1.7 1.4-2.1 4.4-1.1 8q2.1 5.5 5.1 4.4c1.7-1.3 2.2-4.3 1.2-8m7.3 36.7q-2.9-7-7.1-5.7c-2.4 1.6-3 5.6-1.6 10.4 1.8 4.6 4.5 6.7 7.1 5.7 2.4-1.6 3-5.6 1.6-10.4m7.8 27.1c.3-5.7-1.1-10.2-3.7-11.4-2.7-.5-4.8 2.7-5.5 8.4-.4 5.7 1.1 10.1 3.7 11.4 2.7.4 4.8-2.7 5.5-8.4m-12.6 3.4c1.5-5.4 1-10.2-1.3-12.3q-4-2-7 6c-1.5 5.4-1 10.2 1.3 12.3q4.1 2 7-6"/><path fill="#6b18b5" d="M285 467.6q-.3-4.3-3.4-4.8-2.9.4-3.2 4.6.3 4.3 3.2 4.8 3-.4 3.3-4.6m-2.6-11.7q-.2-3.8-3-4.3-2.6.3-2.9 4.2.3 3.8 3 4.3 2.6-.4 2.9-4.2m2.8-22.3c-.2-4.2-1.2-6.9-2.9-7.2q-2.6.6-2.9 7 .4 6.6 3 7.3 2.5-.6 2.8-7m8.8-1.5q.3-6.5-2.2-7.7-2.6.1-3.5 6.5c-.3 4.1.6 7 2.2 7.6q2.6-.1 3.5-6.4m62.8-166.7c1-5.7 0-10.8-2.7-12.7-2.9-1.3-5.5 1.3-6.9 7-1 5.7 0 10.7 2.7 12.7q4.6 1.6 7-7m-12 23.6c3.5-4.1 4.8-9 3.3-12.3-2-3-5.5-2.4-9.3 1.3-3.5 4.1-4.8 9-3.3 12.3 2 3 5.5 2.4 9.3-1.3m-7-14.4c3.5-3.5 4.8-7.6 3.3-10.5-2-2.5-5.4-2-9.2 1.1-3.5 3.6-4.8 7.7-3.3 10.6 2 2.5 5.4 2 9.2-1.2m26.9-21.5q3.5-4 2.2-7.3-2.2-2.6-6.2.6c-2.4 2.5-3.2 5.3-2.3 7.3q2.3 2.7 6.3-.6"/><path fill="#6b18b5" d="M350.7 275.1c1.5-3.5 1.6-6.5.2-8q-2.7-1.6-5.5 3.5c-1.6 3.5-1.6 6.6-.3 8.1q2.6 1.5 5.6-3.6m20.2-12.3q3.8-4.7 2.1-8.3-2.5-2.9-6.9 1.1-3.8 4.7-2.1 8.3 2.5 2.9 6.9-1.1m-36.5 30.1q3.9-.2 4-3.2-.7-3-4.6-3.3-3.9.2-4 3.2.6 3 4.6 3.3m44.1-47.2c1.6-3.4 1.7-6.5.3-8q-2.6-1.6-5.6 3.4c-1.5 3.5-1.6 6.5-.2 8.1q2.7 1.5 5.5-3.5"/><path fill="#ffd200" d="M552.4 290.8c.2-.2 12-6 15.9-20 3-14.3-10.2-16-12.6-12-1.5 4.5 1.3 16.3.7 19.3-1.1 3.2-5.5 9.3-4 12.7"/><path fill="#ef8a10" d="m552.8 292-.5-1.1-.6.6c-1.1-2.2-.5-5.4 2.3-10.8q1.4-2.4 1.5-3.2.3-.9-.5-6.5-1.3-9.9-.1-12.9.9-2 3.9-2.5a10 10 0 0 1 10.1 6.2c1 2.9 1.1 5.7.3 9.5a33 33 0 0 1-16.4 20.7m.1-3a33 33 0 0 0 14.5-18.8q1-4.3-.1-7.3a8 8 0 0 0-3.5-3.7q-2.3-1.2-4.6-1-2.2.4-2.7 1.4c-.5 1.6-.4 5 .4 11.2q.9 6.3.4 8l-1.7 3.6a23 23 0 0 0-2.7 6.6"/><path fill="#ffd200" d="M442.7 279.4c.1-.2 7.8-13.7 6-29.2-2.7-15.3-14-7.9-14.6-2.5.4 5.2 6.9 14 7.4 17.3.2 3.7-1.1 12.3 1.2 14.4"/><path fill="#ef8a10" d="m443.7 280.5-1-1-.3 1.4c-1.8-1.4-2.5-5-2.2-12l.2-3.9q-.2-.9-2.7-5.5a32 32 0 0 1-4.8-12q0-2.8 2.4-5.2a10 10 0 0 1 5-2.7c2.4-.4 4 .1 5.8 1.7 2 2 3.1 4.6 3.8 8.8a49 49 0 0 1-6.2 30.4m-1-3.8q1.4-3 2.7-7a45 45 0 0 0 2.1-19.4q-.7-4.5-2.6-6.4a5 5 0 0 0-4-1.1q-2.2.4-4 2.2-1.6 1.6-1.6 2.8 0 2.5 4.2 9.9 3 5.4 3.2 7.3v4.5q-.4 5.3 0 7.2"/><path fill="#ffd200" d="M421 285.2c.1-.2 7.8-13.7 6-29.2-2.7-15.3-14.1-7.8-14.6-2.4.3 5.2 6.8 14 7.4 17.2.2 3.7-1.2 12.3 1.2 14.4"/><path fill="#ef8a10" d="M419.8 290v-4c-1.1-2-1.6-5.4-1.3-11.2q.2-3 .1-4a29 29 0 0 0-2.6-5.4 32 32 0 0 1-4.8-12q0-2.7 2.4-5.2a10 10 0 0 1 5-2.8q3.3-.6 5.8 1.7c2 2 3 4.6 3.7 8.7a49 49 0 0 1-6.1 30.5zm1.1-7.4q1.5-3 2.8-7 3.3-10.3 2-19.5-.6-4.5-2.5-6.4a5 5 0 0 0-4-1q-2.3.4-4 2.2-1.6 1.6-1.6 2.8 0 2.6 4.2 9.9 3 5.4 3.2 7.2l-.1 4.6q-.3 5.2 0 7.2"/><path fill="#ffd200" d="M397 292.2c0-.2 7.7-13.8 5.9-29.3-2.7-15.2-14.1-7.6-14.6-2.2.3 5.2 6.8 13.9 7.4 17.1.2 3.7-1.2 12.3 1.2 14.4"/><path fill="#ef8a10" d="m397.9 293.3-1-.9-.4 1.3c-1.8-1.3-2.4-4.8-2-12V278a29 29 0 0 0-2.6-5.4 31 31 0 0 1-4.8-12q0-2.7 2.4-5.2 2.3-2.2 5-2.9c2.4-.4 4 .1 5.8 1.6 2 2 3 4.6 3.7 8.7q1.4 10.1-2.2 21.4a53 53 0 0 1-4 9.2m-1-3.8q1.5-3 2.8-7 3.3-10.4 2.1-19.4-.7-4.6-2.6-6.4a5 5 0 0 0-4-1q-2.3.4-4 2.3-1.6 1.6-1.6 2.8 0 2.4 4.2 9.8 3 5.4 3.2 7.2l-.1 4.6q-.3 5.1 0 7.1"/><path fill="#ffd200" d="M380 313.3c0-.2 7.7-14 6-29.4-2.8-15.2-14.2-7.4-14.7-2 .4 5.2 6.9 13.8 7.5 17 .1 3.7-1.2 12.4 1.2 14.4"/><path fill="#ef8a10" d="M378.8 318.2V314c-1.2-1.9-1.6-5.3-1.3-11.2V299q0-.8-2.6-5.4a31 31 0 0 1-4.8-11.9 8 8 0 0 1 2.4-5.2q2.4-2.3 5-3a7 7 0 0 1 5.9 1.6c1.9 2 3 4.5 3.7 8.7q1.2 10-2.3 21.3a54 54 0 0 1-3.9 9.3zm1-7.6q1.6-3 2.8-7 3.3-10.4 2.1-19.5-.7-4.5-2.5-6.3-1.7-1.5-4-1a8 8 0 0 0-4.1 2.3q-1.5 1.7-1.6 2.9 0 2.4 4.2 9.7 3 5.4 3.2 7.2v4.6q-.4 5.2 0 7.1"/><path fill="#ffd200" d="M362.1 333.7c.1-.2 7.8-14 6-29.4-2.7-15.3-14.1-7.3-14.6-2 .3 5.3 6.8 13.8 7.4 17 .2 3.7-1.2 12.4 1.2 14.4"/><path fill="#ef8a10" d="M361 338.6v-4.1c-1.2-1.9-1.7-5.3-1.4-11.2q.2-3 .1-3.9 0-.9-2.6-5.3a31 31 0 0 1-4.8-11.9q0-2.7 2.4-5.2 2.3-2.3 5-3c2.4-.5 4 0 5.8 1.4 2 2 3 4.5 3.7 8.7q1.4 10-2.2 21.3a55 55 0 0 1-4 9.4zm1-7.6q1.5-3 2.8-7 3.3-10.5 2-19.6-.6-4.4-2.5-6.3-1.6-1.4-4-.9a9 9 0 0 0-4 2.4q-1.6 1.7-1.6 2.9 0 2.4 4.2 9.7 3 5.2 3.2 7l-.1 4.7q-.3 5.2 0 7.1"/><path fill="#ffd200" d="M403.1 208.3c-.1.2-10.3 10-11.6 25.3-.4 15.2 12.4 12.4 14 7.5.6-5-4-15.6-4-18.9.6-3.5 3.6-11 1.6-13.9"/><path fill="#ef8a10" d="m403 206.8.6.4v.1c1.5 1.8 1.4 5.2-.3 11.6l-.9 3.6q0 1 1.6 6.3 3 9.5 2.4 12.8-.6 2.4-3.3 3.8a9 9 0 0 1-5.4.8 8 8 0 0 1-5.2-3.5 16 16 0 0 1-2-9.3 42 42 0 0 1 12-26.2zm0 3.4q-2.2 2.4-4.6 6a39 39 0 0 0-6 17.7q-.2 4.5 1.4 7.1a6 6 0 0 0 4 2.6q2.3.3 4.5-.7 2-1 2.2-2.2.5-2.4-2.2-11-1.9-6-1.7-7.8 0-1 1-4.2a28 28 0 0 0 1.3-7.5"/><path fill="#ffd200" d="M438.8 198.2c-.1.2-10.3 9.9-11.6 25.1-.4 15.2 12.4 12.6 14 7.7.6-5-4-15.7-4-19 .6-3.4 3.6-11 1.6-13.8"/><path fill="#ef8a10" d="m438.7 196.7.6.4c1.5 2 1.4 5.4-.3 11.7l-.9 3.6q0 1 1.6 6.3c2 6.5 2.7 10.5 2.4 12.8q-.6 2.4-3.3 3.8a9 9 0 0 1-5.4.7 8 8 0 0 1-5.2-3.6 16 16 0 0 1-2-9.3 41 41 0 0 1 12-26zm0 3.4q-2.2 2.3-4.6 5.9a38 38 0 0 0-6 17.5q-.2 4.6 1.4 7.3a6 6 0 0 0 4 2.6q2.3.3 4.5-.6 2-1 2.2-2.2.5-2.4-2.2-11a30 30 0 0 1-1.7-7.8q0-1.2 1-4.2 1.5-5.5 1.3-7.5"/><path fill="#ffd200" d="M305.8 315.6c0 .3 2.4 18 11.6 27.5 9.8 8.6 12.8-9 10.4-13.2-3.1-3.6-11.5-3.2-13.7-5-2.1-2.7-5.5-10.2-8.3-9.3"/><path fill="#ef8a10" d="m305 316.5-1.3-1 1.7-1c1.8-.9 3.8.9 7.3 6.3q1.5 2.6 2 3 .6.7 4.7 1.4c5 .9 7.6 2 9 3.8q1.4 2 1.2 6-.3 4-1.6 7.1-1.8 3.8-4.4 4.6c-2.2.6-4.1-.2-6.7-2.5q-6-5.9-9.7-17.8-1.6-5.5-2.2-10m2 .5a75 75 0 0 0 2 8.6 40 40 0 0 0 9 16.6q2.9 2.8 5.1 2 1.9-.5 3.2-3.4 1.2-2.8 1.4-6 0-2.9-.6-4-1.3-1.7-7.9-3-4.7-.7-5.7-1.8l-2.3-3.4q-3-4.8-4.2-5.6"/><path fill="#ffd200" d="M288 377.2c0 .2.3 18.2 8.3 29.3 8.8 10.3 13.8-6.3 12-11-2.8-4.1-11.2-5.4-13.2-7.6-1.7-3-4.3-11.1-7.1-10.7"/><path fill="#ef8a10" d="m287 376.6.5-.6h.2c1.9-.5 3.7 1.6 6.5 7.7l1.6 3.3a14 14 0 0 0 4.5 2.2c4.9 1.9 7.5 3.6 8.7 5.6q1 2.1.4 6.1-.7 3.8-2.5 6.6-2.2 3.3-4.8 3.7c-2.3 0-4.1-1-6.4-3.8q-5.3-7-7.5-19.3a72 72 0 0 1-1.2-11zm2 2q.1 4 1 9a43 43 0 0 0 7 18q2.5 3.2 4.9 3 1.9-.2 3.6-2.8 1.4-2.4 2-5.6.5-2.7 0-4c-1-1.4-3.2-2.8-7.6-4.5q-4.4-1.6-5.4-3l-2-3.7a24 24 0 0 0-3.5-6.4"/><path fill="#ffd200" d="M329.1 449c0-.2-5-17.3-15.2-24.2-10.7-5.8-11.1 12.5-8.2 16 3.5 2.6 11.6 0 14 1.2 2.5 2 6.8 8.7 9.4 7"/><path fill="#ef8a10" d="m330.2 449.4-.4.7c-1.8 1.3-4 0-8.1-4.5q-1.8-2.1-2.4-2.4-.7-.4-4.7 0c-5 .4-7.8 0-9.4-1.3q-1.5-1.4-2-5.6-.3-3.8.6-7.5 1.1-4.2 3.5-5.8c2.1-1.1 4.1-1 7 .7q6.6 4.2 11.9 15 2.6 5.4 3.8 10zm-2.4-1.3a66 66 0 0 0-3.2-8q-5-10.2-11-14c-2.3-1.4-3.8-1.5-5.4-.7q-1.7 1.2-2.6 4.4-.8 3-.5 6.3.3 2.8 1.1 3.7c1.3 1 3.6 1.2 8.1.7q4.7-.4 5.8.4l2.8 2.8q3.5 4 5 4.4"/><path fill="#ffd200" d="M320.6 418.4c0-.2 8-14.1 6.3-29.5-2.4-15.2-14-7-14.5-1.8.3 5.3 6.6 13.7 7.2 17 .1 3.6-1.4 12.3 1 14.3"/><path fill="#ef8a10" d="m321.3 419.2-.6-.7-.4 1c-1.7-1.2-2.3-4.5-1.8-11.4q.2-3.1.1-4 0-1-2.6-5.5-4.5-8-4.6-11.5a8 8 0 0 1 2.4-5.1q2.3-2.3 5-3c2.3-.4 3.9 0 5.6 1.4 1.8 1.8 3 4.3 3.5 8.4q1.2 9.8-2.6 21.1a56 56 0 0 1-4 9.3m-.9-2.8q1.7-3.1 3.2-7.6Q327 398 326 389c-.4-3.3-1.3-5.2-2.6-6.6q-1.7-1.4-4.2-.9a9 9 0 0 0-4.2 2.5q-1.6 1.8-1.7 3.1 0 2.6 4.2 9.9 3 5.1 3 6.9l-.1 4.5a31 31 0 0 0 0 7.9"/><path fill="#ffd200" d="M577.7 309.4c.2-.1 12-6 15.9-20.1 3-14.3-10.2-16-12.6-11.8-1.5 4.5 1.3 16.2.7 19.2-1.2 3.2-5.5 9.3-4 12.7"/><path fill="#ef8a10" d="m578 310.7-.4-1.2-.6.7c-1.1-2.2-.5-5.4 2.3-10.9q1.4-2.4 1.5-3.2t-.5-6.5q-1.3-10-.1-12.8.9-2.1 3.9-2.6a10 10 0 0 1 10 6.1q1.6 4 .4 9.5a33 33 0 0 1-16.4 20.8m.1-3q2.5-1.4 5.5-4.1 6.8-6.4 9-14.8 1-4.3-.1-7.3a8 8 0 0 0-3.5-3.7q-2.3-1.1-4.7-.9-2 .4-2.6 1.5-.8 2.1.4 11.1.8 6.4.4 8l-1.7 3.6a23 23 0 0 0-2.7 6.7"/><path fill="#ffd200" d="M615.1 339.8c0-.2 7-14.8 4.5-30-3.4-15.1-14.4-6.3-14.6-.9.6 5.3 7.5 13.3 8.2 16.5.4 3.7-.6 12.5 1.9 14.4"/><path fill="#ef8a10" d="m616 340.2.2 1.4-1.3-.6c-1.8-1.1-2.6-4.4-2.5-11.4l-.1-4q-.2-1-3-5.4A30 30 0 0 1 604 309a8 8 0 0 1 2-5.2q2.1-2.5 4.7-3.3a6 6 0 0 1 5.7 1c2 1.7 3.1 4.1 4 8.1q1.7 9.8-1.2 21.4a59 59 0 0 1-3.2 9.3m-1.3-2.4q1.5-3.2 2.7-8a47 47 0 0 0 1.1-19.8q-.8-4.6-3-6.4-1.8-1.4-4.2-.7a9 9 0 0 0-4 2.8q-1.4 1.9-1.5 3.2.3 2.6 4.7 9.7 3.3 5 3.5 6.7l.2 4.6q0 6 .5 7.9"/><path fill="#ffd200" d="M717.2 492.5c0-.3-5-17-15.3-23.7-10.7-5.6-11 12.5-8.1 16 3.6 2.7 11.6 0 14 1 2.5 2 6.8 8.4 9.4 6.7"/><path fill="#ef8a10" d="M718.2 492.3v.8l-.4.4c-1.7 1.4-3.8.3-8-4.1q-1.8-2-2.4-2.4-.7-.5-4.7 0c-5 .6-7.8.2-9.4-1q-1.5-1.6-2-5.7-.3-3.9.6-7.4c.8-3 1.9-4.6 3.5-5.8 2.1-1.2 4-1 7 .5a36 36 0 0 1 11.9 14.7q2.6 5.2 3.8 9.8zm-2.3-.7a64 64 0 0 0-3.2-8q-5-9.8-11.1-13.6-3.2-1.9-5.3-.6-1.7 1.2-2.6 4.4-.8 3-.5 6.3.3 2.9 1.1 3.7c1.2 1 3.6 1.2 8.1.7q4.7-.6 5.8.2.7.5 2.8 2.7 3.5 3.8 5 4.2"/><path fill="#ffd200" d="M667.3 500.6c0-.3.5-18.2 8.6-28.2 8.8-9.2 13.7 8 11.8 12.5-2.8 3.8-11.2 4-13.2 5.9-1.8 2.7-4.4 10.6-7.2 9.8"/><path fill="#ef8a10" d="M666.3 500.5q.1-4.8 1.2-10.8a40 40 0 0 1 7.8-18.3c2.3-2.5 4.1-3.4 6.4-3q2.7.7 4.8 4.3 1.8 3.1 2.4 7 .6 4-.5 6c-1.2 1.9-3.8 3.2-8.7 4.5q-3.9.9-4.5 1.6l-1.7 3.1c-2.1 4.4-3.7 6.4-5.3 7q-.7.1-1.2-.1l.1-1.2zm2-1.2q1.2-.9 3.6-6l2-3.5q.9-1.1 5.4-2.2 6.4-1.6 7.6-3.5.6-1.1.2-4-.5-3.2-2-5.8-1.7-3-3.6-3.3-2.4-.5-5 2.4-4.9 5.9-7.1 17a71 71 0 0 0-1.1 8.9"/><path fill="#ffd200" d="M659.2 302.6c-.3-.2-12.3-7.3-22.8-2-9.7 6.2-.4 20 3.6 19.6 3.5-1.5 7.5-11.7 9.5-13.2 2.7-1 9-.7 9.7-4.4"/><path fill="#ef8a10" d="m659.6 301.4-.3.8.8-.1 1 3-1.3-.8q-1.5 2.3-7 3.3l-3 .7q-.5.3-3 4.7c-2.8 5.3-4.8 7.8-6.5 8.5q-1.9.4-4.4-2.1a19 19 0 0 1-3.7-6q-1.5-4.1-.9-7.7a9 9 0 0 1 4.7-6.4c4.6-2.4 9.5-2.8 15.7-1.1q4.5 1.2 7.9 3.2m-1.7 1.8q-2.8-1.5-6.4-2.5a19 19 0 0 0-14.6 1 7 7 0 0 0-3.8 4.9q-.4 2.5.8 5.7 1.2 3 3.1 5 1.7 1.8 2.8 1.6c1.2-.5 3-2.7 5.5-7.5q2.6-5 3.9-5.6.7-.3 3.2-.8 4.4-.7 5.5-1.8"/><path fill="#ffd200" d="M630 266.4c-.2-.2-12.3-7.6-22.7-2.5-9.8 6.1-.4 20 3.6 19.7 3.5-1.4 7.4-11.6 9.5-13 2.7-.8 9-.5 9.7-4.2"/><path fill="#ef8a10" d="m629.2 264.5.1-3.3 2.7 7.8-1.4-.9q-1.3 2.4-7 3.2-2.3.3-2.9.6t-3 4.7c-2.8 5.2-4.9 7.7-6.6 8.3q-1.9.4-4.3-2.2a20 20 0 0 1-3.7-6 15 15 0 0 1-1-7.8q.9-4 4.8-6.3c4.5-2.3 9.4-2.5 15.7-.8a37 37 0 0 1 6.6 2.7m-.4 2.5q-2.8-1.5-6.5-2.6-8.5-2.5-14.6.7a7 7 0 0 0-3.7 4.7q-.4 2.6.7 5.8 1.2 3 3.1 5 1.8 2 2.8 1.7c1.3-.5 3-2.7 5.6-7.4q2.6-5 3.8-5.5l3.2-.7q4.4-.6 5.6-1.7"/><path fill="#ffd200" d="M586.6 229.3c-.2.2-10.5 9.8-11.9 25-.5 15.1 12.3 12.7 14 7.8.6-5-4-15.7-3.9-19 .6-3.4 3.8-11 1.8-13.8"/><path fill="#ef8a10" d="m586 228.2.5 1 .4-1 1.6 1-.6.6q.8 2.9-1.2 10l-1 3.7q0 1 1.6 6.3a32 32 0 0 1 2.2 12.8q-.5 2.5-3.3 3.7a8 8 0 0 1-10.6-3q-2.2-3.4-1.8-9.3a41 41 0 0 1 12.2-25.8m.4 3a38 38 0 0 0-10.7 23.3q-.3 4.6 1.3 7.2 1.4 2.2 3.9 2.7 2.3.4 4.6-.5 2-1 2.2-2.2a32 32 0 0 0-2.1-11 30 30 0 0 1-1.7-7.9q0-1 1-4.1 1.6-5.5 1.5-7.5"/><path fill="#ffd200" d="M558.3 216c0 .2-4.6 16.5 0 31.2 5.4 14.3 14.6 2.7 14.1-2.7-1.4-5.2-9-11.5-10.3-14.6-.8-3.6-1.1-12.6-3.8-13.9"/><path fill="#ef8a10" d="m557 217-1-.2 1.7-1.8.6.7v-1c2 .8 3.1 3.9 4.1 10.9l.6 4q.3.9 3.7 4.6 5.9 6.6 6.6 10 .5 2.7-1.2 5.8-1.8 3-4.1 4.4-3 1.8-5.6.4-3-1.7-5-7.2-3-9.5-1.9-21.8.6-5 1.5-8.8m1.8 1q-.9 3.6-1.4 8.5-1.1 11.6 1.7 20.2 1.5 4.4 3.8 5.7 2 1 4.2-.4 2-1.2 3.4-3.7 1.2-2.3 1-3.6a26 26 0 0 0-6-8.5q-3.7-4.3-4.2-6-.3-1-.8-4.5-.8-6-1.7-7.8"/><path fill="#ffd200" d="M478 270.7c.1-.2 8.5-12.7 7.5-28.3-1.8-15.3-13.7-9.3-14.5-4 .1 5.2 6.2 14.6 6.6 17.9 0 3.6-1.9 12 .4 14.4"/><path fill="#ef8a10" d="m478.9 271.4-.3 1.1-1-.7c-1.6-1.5-2-4.9-1.3-11.7l.3-3.9q0-1-2.4-5.9a33 33 0 0 1-4.1-12.2q.3-2.6 2.6-4.6t5-2.2q3.3-.1 5.6 2.3 2.7 2.8 3.2 8.8a47 47 0 0 1-7.6 29m2.5-9.8q3.9-10 3.2-19.2a12 12 0 0 0-2.4-6.8 5 5 0 0 0-4.1-1.6 8 8 0 0 0-4.3 1.8q-1.7 1.4-1.8 2.8-.1 2.5 3.7 10.4 2.7 5.7 2.8 7.4l-.3 4.4q-.7 6-.3 7.9 1.8-3 3.5-7.1"/><path fill="#de2010" d="M698.4 501a22 22 0 0 0-5-12.8c-3-2.4-5.3-2.1-7.7.8-2 3.2-3 8.1-2.6 13.7a22 22 0 0 0 5 12.9q4.3 3.6 7.7-1c2-3.1 3-8 2.6-13.6"/><path d="M699.7 502.9q.2 8-3 13c-3 3.8-5.6 4.1-9.2 1q-4.7-4.5-5.6-14c-.5-6.6.4-11.2 3-15 3-3.8 5.5-4.1 9.1-1q4.6 4.3 5.6 14zm-2.5-2c-.6-5.4-2-8.9-4.5-11.4-2.5-2.1-4.1-2-6.2.7q-3 4.3-2.3 12.4c.6 5.5 2 9.1 4.6 11.7 2.4 2 4 1.9 6.1-.7 2-3.1 2.8-7 2.3-12.5z"/><path fill="#de2010" d="M696.8 473.4a22 22 0 0 0-5-12.8c-3-2.4-5.3-2.1-7.7.9-2.1 3.1-3 8-2.7 13.6a22 22 0 0 0 5 12.9q4.3 3.6 7.7-.9 3.2-5 2.6-13.7"/><path d="M698 475c.2 5.7-.8 9.8-3 13.2-3 4-5.5 4.2-9.2 1.1-3-3.1-4.8-7.5-5.5-14-.5-6.6.4-11.3 2.9-15 3-3.8 5.5-4.1 9.2-1q4.5 4.5 5.5 14zm-2.4-1.6q-.8-8-4.5-11.5c-2.5-2-4.1-1.9-6.2.7q-3 4.3-2.3 12.4c.6 5.5 2 9.1 4.5 11.7 2.5 2 4.1 1.9 6.2-.7q3-4.4 2.3-12.4z"/><path fill="#de2010" d="M692.7 443.8q-1.5-8.4-5.9-12.2-4.4-3-7.5 1.8a24 24 0 0 0-1.7 14q1.5 8.4 5.8 12.2 4.4 3 7.6-1.8c1.8-3.4 2.4-8.4 1.7-14"/><path d="M693.8 443.6c1 6.4.3 11.2-2 15.3-2.6 4.2-5.2 4.8-9 2.1q-4.8-4-6.4-13.4c-.9-6.5-.3-11.3 2-15.3 2.7-4.2 5.2-4.8 9-2 3 2.5 5 6.2 6.2 12zm-2.3.5c-1-5.4-2.6-8.8-5.2-11.1-2.6-1.8-4.2-1.4-6 1.4a20 20 0 0 0-1.6 12.7c1 5.5 2.6 8.9 5.2 11.1 2.6 1.9 4.3 1.5 6.1-1.4a19 19 0 0 0 1.5-12.5z"/><path fill="#de2010" d="M685.2 412.7q-3-7.6-7.8-10-4.8-1.5-7 4.3c-1 4-.7 9.2 1 14.3q3.1 8 7.9 10 4.8 1.6 6.9-4.3c1.1-4 .8-9.1-1-14.3"/><path d="M686.3 412q3 8.8 1 15.7c-1.8 5-4.1 6.6-8.3 5.2-3.7-1.6-6.3-5-8.6-11-2-6-2.4-10.9-1-15.6 1.8-5 4.1-6.4 8.2-5 3.7 1.5 6.4 4.8 8.7 10.8m-2.1 1.3c-2-5-4.1-7.8-7.1-9.1-2.8-.9-4.3 0-5.5 3.4q-1.7 5.5.9 13c2 5 4 7.8 7 9.1 2.9 1 4.4 0 5.6-3.5 1.1-3.8.8-7.8-1-12.9"/><path fill="#de2010" d="M677.3 387.6q-3.1-7.8-7.9-10-4.8-1.6-6.9 4.2c-1.1 4-.8 9.1 1 14.3q3 7.9 7.8 10.1 4.8 1.6 7-4.3c1-4 .7-9.1-1-14.3"/><path d="M678.3 387c2 6 2.4 10.9 1 15.6-1.8 5-4.1 6.5-8.2 5.1q-5.4-2.2-8.7-11-3-8.9-1-15.6c1.8-5 4.1-6.5 8.3-5 3.7 1.6 6.3 4.9 8.6 10.8m-2 1.4c-2-5.1-4.2-7.8-7.2-9.2-2.8-1-4.3 0-5.5 3.4q-1.6 5.5 1 13 2.7 7.3 7 9.2c2.8.9 4.3 0 5.5-3.5q1.7-5.5-.9-13z"/><path fill="#de2010" d="M666 362q-3.6-7.5-8.5-9.2-4.8-1.2-6.5 5a25 25 0 0 0 1.8 14.2q3.6 7.6 8.4 9.3 4.9 1 6.6-5c.9-4.2.2-9.3-1.9-14.3"/><path d="M669 376.8c-1.6 5.3-3.8 7-8 6-3.7-1.2-6.5-4.3-9.2-10-2.4-5.9-3-10.8-2-15.7 1.5-5.2 3.7-6.8 7.9-5.9 3.8 1.3 6.6 4.3 9.2 10a25 25 0 0 1 2 15.6m-4-14c-2.2-4.9-4.5-7.4-7.5-8.5-2.9-.6-4.3.5-5.3 4-.9 4-.3 8 1.7 13 2.3 4.8 4.5 7.3 7.6 8.4q4 1 5.3-4c.8-4 .3-8-1.8-13"/><path fill="#de2010" d="M653.4 337q-4.1-7-9-8.1-4.8-.5-6.2 5.7c-.5 4.3.5 9.3 2.9 14.1q4 7.1 9 8.2 4.9.6 6.1-5.8c.6-4.2-.4-9.3-2.8-14"/><path d="M657.3 351.6c-1 5.4-3.1 7.4-7.3 7-3.8-.9-6.8-3.5-9.8-9a25 25 0 0 1-3.1-15.4c1-5.4 3.2-7.4 7.3-7 3.9.9 6.9 3.6 9.9 9a25 25 0 0 1 3 15.4m-4.9-13.6c-2.6-4.6-5-6.8-8-7.5-3-.3-4.2 1-5 4.6q-1 5.8 2.6 12.7c2.6 4.7 5 6.9 8.1 7.6 2.8.2 4.2-1 5-4.7.5-4.1-.3-8-2.7-12.7"/><path fill="#de2010" d="M638.3 313.4q-4.6-6.3-9.6-6.6-4.9.5-5.4 7c-.1 4.3 1.4 9.2 4.3 13.5q4.6 6.4 9.6 6.6 4.8-.5 5.4-7a24 24 0 0 0-4.3-13.5"/><path d="M641.2 315.3h-.2q3 5.8 2.8 11.8c-.5 5.6-2.3 8-6.5 8.4-3.8 0-7-2.2-10.6-7.1q-5-7.3-4.6-14.9c.5-5.6 2.3-8 6.5-8.3 3.8.1 7 2.2 10.6 7.1zm-3.8-1c-3-4-5.5-5.7-8.6-5.8-2.8.2-4 1.7-4.3 5.5-.2 4.2 1 8 3.9 12.3 3 4.2 5.6 5.9 8.7 6 2.8-.3 4-1.8 4.3-5.6q.4-6.1-3.9-12.2z"/><path fill="#de2010" d="M621.4 291q-5-5.7-10-5.4-4.7 1-4.8 7.6c.2 4.4 2 9.1 5.1 13.1q5 5.9 10 5.5 4.7-1 4.9-7.7c-.2-4.4-2-9-5.2-13"/><path d="M627.7 304.2c0 5.7-1.7 8.4-5.8 9.2-3.8.4-7-1.4-11-6a24 24 0 0 1-5.5-14.3c.1-5.7 1.8-8.3 5.8-9 3.9-.4 7.1 1.3 11 5.8q5.4 6.7 5.5 14.3m-7-12c-3.3-3.8-6-5.2-9-5-2.8.6-3.8 2.3-4 6.1q.2 6.3 4.8 11.9c3.2 3.8 5.9 5.3 9 5 2.7-.6 3.8-2.3 3.9-6.2-.2-4.2-1.6-7.8-4.7-11.7"/><path fill="#de2010" d="M603.5 272.6q-5.6-4.7-10.4-3.3-4.5 2-3.8 8.7c.8 4.4 3.1 8.7 6.6 12q5.7 4.8 10.4 3.3 4.5-2.2 3.8-8.8a21 21 0 0 0-6.6-11.9"/><path d="M611.3 284.4c.6 5.7-.8 8.7-4.6 10.4-3.7 1.2-7 .2-11.4-3.5q-6-5.6-7.1-13.2c-.6-5.7.7-8.7 4.5-10.3 3.7-1.2 7.1-.2 11.4 3.5a22 22 0 0 1 7.2 13.1m-8.3-10.5c-3.7-3.1-6.4-4-9.4-3-2.6 1.1-3.5 3-3.1 7 .7 4.2 2.5 7.5 6 10.8 3.7 3.1 6.4 4 9.4 3 2.6-1.2 3.4-3.1 3-7a18 18 0 0 0-6-10.8"/><path fill="#de2010" d="M583.5 255.5q-6-4.1-10.5-2.1-4.2 2.5-3.2 9.1 1.6 6.8 7.3 11.3 6 4.2 10.5 2.1 4.2-2.5 3.2-9.2-1.6-6.7-7.3-11.2"/><path d="M591.9 266.5c1 5.6-.1 8.8-3.8 11-3.6 1.6-7 1-11.4-2.3a21 21 0 0 1-8-12.4c-1-5.6.2-8.8 3.8-11 3.6-1.6 7-1 11.5 2.3 4.3 3.4 6.7 7.2 7.9 12.3M583 257c-3.8-2.7-6.6-3.3-9.5-2-2.4 1.5-3.2 3.5-2.5 7.4 1 4.1 3 7.2 6.6 10.1 3.8 2.8 6.6 3.3 9.5 2 2.4-1.5 3.2-3.5 2.5-7.4-1-4.1-3-7.2-6.6-10.1"/><path fill="#de2010" d="M563.8 242q-6-3.8-10.4-1.3-4.2 2.9-2.7 9.5 2 6.6 7.7 10.7 6 3.6 10.5 1.2 4-2.9 2.7-9.5-2-6.6-7.8-10.7"/><path d="M564.2 240.5c4.5 3 7 6.6 8.5 11.7 1.3 5.6.3 9-3.2 11.4-3.5 2-6.9 1.6-11.5-1.3a20 20 0 0 1-8.5-11.7c-1.2-5.6-.2-9 3.3-11.4 3.5-2 6.8-1.6 11.4 1.3m-.8 2.9c-4-2.5-6.6-2.8-9.5-1.2-2.3 1.7-3 3.8-2.1 7.6 1.1 4.1 3.3 7 7 9.7 4 2.4 6.7 2.7 9.5 1.1 2.4-1.7 3-3.8 2.2-7.6-1.2-4.1-3.3-7-7-9.6"/><path fill="#de2010" d="M543.9 230.4q-6.2-3-10.5-.2-3.9 3.4-2.1 9.9 2.4 6.4 8.3 10 6.1 3 10.4.1 3.9-3.4 2.1-9.8a19 19 0 0 0-8.3-10"/><path d="M553.2 239.9c1.5 5.5.8 9-2.5 11.8-3.4 2.3-6.7 2.3-11.4-.2-4.6-2.6-7.4-6-9-11-1.6-5.4-.9-8.9 2.5-11.7 3.3-2.3 6.6-2.3 11.4.1 4.5 2.7 7.3 6 9 11m-9.7-8c-4-2-6.7-2-9.4-.2-2.3 2-2.8 4.1-1.7 7.9 1.3 4 3.6 6.7 7.5 9 4 2 6.7 2 9.4.2 2.3-2 2.8-4.2 1.8-8-1.4-4-3.7-6.6-7.6-8.9"/><path fill="#de2010" d="M521.9 222q-6.4-1.8-10.2 2-3.4 4.2-1 10.3 3 6 9.2 8.3 6.3 1.8 10.2-2 3.4-4.2 1-10.3-3-6-9.2-8.3"/><path d="M532 229.5c2.1 5.2 1.8 8.9-1.1 12.4-3 3-6.3 3.7-11.1 2.3a16 16 0 0 1-10-9.2c-2.2-5.2-1.8-8.8 1.1-12.3 3-3 6.2-3.7 11.1-2.3 4.8 1.7 7.8 4.5 10 9.1m-10.3-6c-4.1-1.2-6.8-.7-9.2 1.8-2 2.4-2.2 4.7-.8 8.3 1.9 3.7 4.3 6 8.4 7.4 4.1 1.2 6.7.7 9.2-1.7 2-2.5 2.2-4.8.8-8.3-1.9-3.8-4.4-6-8.4-7.5"/><path fill="#de2010" d="M500.2 217q-6.4-1.1-10 3.1-3 4.6-.2 10.5a15 15 0 0 0 9.5 7.3q6.4 1.1 10-3.2 3-4.6.2-10.5a15 15 0 0 0-9.6-7.3"/><path d="M500.2 215.4a15 15 0 0 1 10.5 8c2.3 5 2.2 8.7-.4 12.5-2.8 3.4-6 4.5-10.8 3.6-4.8-1.2-8-3.6-10.5-8-2.4-5-2.3-8.7.4-12.6 2.7-3.4 6-4.4 10.8-3.6m-.1 3.2c-4.1-.7-6.7.1-9 2.9-1.7 2.6-1.8 5-.2 8.4 2 3.6 4.6 5.5 8.7 6.5 4.1.7 6.7 0 9-2.8 1.7-2.7 1.8-5 .2-8.4-2-3.6-4.6-5.6-8.7-6.6"/><path fill="#de2010" d="M480.3 214.8q-6.4-1-10 3.3-3 4.5-.2 10.4a15 15 0 0 0 9.5 7.3q6.4 1 10-3.2 3-4.6.2-10.5a15 15 0 0 0-9.5-7.3"/><path d="M480.3 213.2a15 15 0 0 1 10.5 8c2.4 5 2.2 8.7-.4 12.6-2.7 3.4-6 4.5-10.8 3.6-4.8-1.1-8-3.6-10.5-8-2.4-5-2.2-8.7.4-12.6 2.8-3.4 6-4.4 10.8-3.6m0 3.2c-4.2-.7-6.8.1-9 2.9-1.8 2.6-1.9 5-.3 8.4 2 3.6 4.6 5.5 8.7 6.5 4.1.7 6.7 0 9-2.8 1.7-2.7 1.8-5 .2-8.5-2-3.5-4.6-5.5-8.7-6.5"/><path fill="#de2010" d="M457 215q-6.2 1.3-8.7 6.9-2 5.7 1.7 10.5 4.2 4.5 10.4 3.7 6.1-1.1 8.6-6.8 2-5.7-1.7-10.5-4.1-4.5-10.3-3.7"/><path d="M468 217.6c3.2 4 3.8 7.8 2 12.6a12 12 0 0 1-9.3 7.5c-4.8.7-8.2-.6-11.4-4.1-3.2-4-3.8-7.8-2-12.6 1.9-4.4 4.7-6.6 9.4-7.5 4.8-.7 8.1.6 11.3 4.1m-10.8-1c-4 .8-6.3 2.6-7.8 6.2a8 8 0 0 0 1.3 8.4 10 10 0 0 0 9.4 3.3c4-.7 6.3-2.5 7.9-6a8 8 0 0 0-1.4-8.5c-2.6-2.9-5.3-3.9-9.4-3.3"/><path fill="#de2010" d="M435.7 219.2q-6 2-8 7.9-1.7 6 2.3 10.4 4.4 4 10.4 2.5 6-2 8.1-7.9 1.6-6-2.3-10.4a11 11 0 0 0-10.5-2.5"/><path d="M435.4 217.6a11 11 0 0 1 11.4 2.9c3.4 3.6 4.2 7.3 2.8 12.4a13 13 0 0 1-8.8 8.7c-4.7 1.1-8 .3-11.5-2.9-3.3-3.6-4.2-7.3-2.7-12.4 1.6-4.6 4.2-7.2 8.8-8.7m.7 3.2c-3.9 1.2-6 3.3-7.4 7-1 3.5-.4 5.9 1.9 8.4 2.8 2.6 5.5 3.2 9.5 2.2 3.8-1.3 6-3.3 7.3-7 1-3.5.4-5.9-1.8-8.4-2.8-2.6-5.5-3.2-9.5-2.2"/><path fill="#de2010" d="M416.4 227.8q-5.6 3-7.3 9.3-1 6.4 3.2 10 4.7 3.3 10.5.8a14 14 0 0 0 7.3-9.3q1-6.3-3.2-10-4.7-3.3-10.5-.8"/><path d="M416 226.3c4.4-2 7.8-1.8 11.4.9 3.6 3.1 4.7 6.6 3.8 12-1.2 4.9-3.6 8-8 10.2-4.4 2-7.8 1.7-11.4-.9-3.6-3-4.8-6.6-3.8-12q1.6-7 8-10.2m.9 3a12 12 0 0 0-6.6 8.4c-.6 3.7 0 6 2.5 8 3 2.2 5.7 2.3 9.5.7 3.7-2 5.7-4.4 6.6-8.4q1-5.2-2.5-8c-3-2.2-5.7-2.4-9.5-.7"/><path fill="#de2010" d="M397.1 238.8q-5.3 3.7-6.6 10.3-.6 6.5 3.8 9.6 4.8 2.7 10.4-.6 5.3-3.7 6.6-10.2.6-6.4-3.8-9.7-4.7-2.7-10.4.6"/><path d="M407.9 236.8c3.8 2.6 5.1 6 4.5 11.5q-1 7.3-7.2 11.3c-4.3 2.6-7.6 2.7-11.3.6-3.8-2.7-5.2-6-4.6-11.6.9-5 3-8.5 7.2-11.3 4.3-2.6 7.7-2.7 11.4-.5m-10.2 3.4a13 13 0 0 0-6 9.3c-.4 3.8.4 6 3 7.8 3 1.7 5.7 1.5 9.4-.6a13 13 0 0 0 6-9.3c.4-3.7-.5-5.9-3-7.8-3-1.7-5.8-1.5-9.4.6"/><path fill="#de2010" d="M378.9 253.5q-5 4.6-5.7 11.4-.2 6.6 4.5 9 4.8 2 10.1-2.2 5-4.7 5.7-11.3 0-6.6-4.5-9.2-4.8-2-10.1 2.3"/><path d="M378.2 252.1c4-3.3 7.3-4 11.1-2.4 4 2.1 5.5 5.3 5.4 11q-.5 7.5-6.2 12.4c-4 3.3-7.3 4-11.1 2.4-4-2-5.5-5.2-5.4-10.9.4-5.2 2.3-9 6.2-12.5m1.3 2.8c-3.2 3-4.8 6-5.1 10.2-.1 3.9.9 5.9 3.6 7.3 3 1.3 5.7.7 9.2-2 3.2-3 4.8-6.1 5.1-10.3.1-3.8-1-5.9-3.6-7.3-3-1.3-5.7-.7-9.2 2"/><path fill="#de2010" d="M362 269.1a19 19 0 0 0-5 12.2q.4 6.6 5 8.5 5 1.3 10-3.6 4.6-5.2 4.9-12-.3-6.7-5-8.6-5-1.5-10 3.5"/><path d="M361.2 267.8c3.8-3.8 7-4.9 10.9-3.8 4 1.6 5.8 4.6 6 10.3a19 19 0 0 1-5.4 13.2c-3.8 3.8-7 5-10.8 3.9-4-1.6-5.8-4.6-6-10.2 0-5.3 1.7-9.4 5.3-13.4m1.5 2.6a16 16 0 0 0-4.5 11c.2 3.8 1.3 5.7 4 6.9 3.2.8 5.8-.1 9-3.4 3-3.3 4.4-6.6 4.5-10.9-.2-3.8-1.3-5.7-4-6.9-3.2-.8-5.8.1-9 3.3"/><path fill="#de2010" d="M347 289a20 20 0 0 0-4.2 12.7q.6 6.5 5.4 8 5 .8 9.7-4.7a20 20 0 0 0 4.2-12.6q-.6-6.7-5.4-8.1-5-.8-9.6 4.7"/><path d="M356.8 282.7c4.1 1.2 6 4 6.5 9.7.2 5.2-1.3 9.5-4.6 13.9-3.6 4.2-6.7 5.6-10.6 5-4-1.2-6-4-6.4-9.6q-.4-7.6 4.5-14c3.6-4.2 6.7-5.7 10.6-5m-9 7.5a17 17 0 0 0-3.8 11.4c.4 3.9 1.6 5.7 4.3 6.5 3.2.5 5.7-.7 8.8-4.3a17 17 0 0 0 3.8-11.4c-.3-3.9-1.5-5.7-4.3-6.5-3.2-.5-5.7.7-8.7 4.3"/><path fill="#de2010" d="M334.2 311.5a22 22 0 0 0-3.4 13.3q1 6.5 5.8 7.3 5 .1 9.3-5.9c2.6-4 3.8-8.8 3.4-13.2q-1-6.6-5.8-7.4-5 0-9.3 5.9"/><path d="M343.5 304c4.1.7 6.1 3.2 7 8.9.5 5.2-.6 9.7-3.7 14.5-3.2 4.6-6.3 6.5-10.2 6.3-4.1-.6-6.1-3.1-7-8.8a22 22 0 0 1 3.7-14.5c3.3-4.7 6.3-6.6 10.2-6.4m-8.4 8.6q-3.8 5.9-3.1 12c.6 3.8 1.9 5.4 4.7 5.9 3.1.1 5.5-1.4 8.3-5.4a18 18 0 0 0 3.2-12q-.8-5.3-4.7-5.9c-3.2 0-5.6 1.4-8.4 5.4"/><path fill="#de2010" d="M322.5 334.8a23 23 0 0 0-2.4 13.8q1.6 6.5 6.4 6.4 4.9-.5 8.7-7.2c2.2-4.5 3-9.5 2.3-13.8q-1.4-6.5-6.3-6.5-5 .6-8.7 7.3"/><path d="M321.5 333.9c2.8-5.2 5.7-7.6 9.6-8 4.1 0 6.3 2.2 7.6 7.8a23 23 0 0 1-2.5 15c-2.9 5.2-5.8 7.6-9.6 8-4.2 0-6.3-2.2-7.6-7.7q-1.5-7.5 2.5-15.1m2 2a19 19 0 0 0-2.2 12.4c.8 3.7 2.2 5.1 5 5.1 3.2-.3 5.5-2.3 8-6.6 2.1-4.5 2.8-8.3 2.1-12.5-.9-3.7-2.3-5.1-5.1-5.2-3.1.4-5.5 2.3-7.9 6.7"/><path fill="#de2010" d="M312.7 361.7c-1.6 5-1.8 10.1-.6 14.2q2.3 6 7 4.9 4.8-1.9 7.6-9.4c1.6-5 1.8-10.1.6-14.2q-2.3-6.1-7-5-4.8 1.8-7.6 9.5"/><path d="M311.6 361c2.1-5.9 4.7-9 8.3-10.3 4.1-1 6.5.6 8.4 5.9q2.3 7-.5 15.5-3 8.6-8.3 10.2c-4.1 1-6.5-.6-8.4-5.8a24 24 0 0 1 .5-15.6m2.1 1.5c-1.6 5-1.7 9-.5 12.9 1.3 3.5 2.9 4.5 5.6 3.9 3-1.1 5-3.6 6.8-8.6q2.5-7.2.6-12.8c-1.3-3.6-2.9-4.6-5.6-4-3 1.1-5 3.7-6.9 8.6"/><path fill="#de2010" d="M305 390a25 25 0 0 0 .3 14.2q2.7 5.8 7.3 4 4.6-2.5 6.9-10.4a25 25 0 0 0-.4-14.3q-2.7-5.7-7.3-4-4.6 2.5-6.9 10.4"/><path d="M303.8 389.3q2.4-8.8 7.6-11.3c4-1.5 6.4-.2 8.7 4.8 1.8 4.6 2 9.5.5 15.6q-2.4 8.8-7.6 11.3c-4 1.5-6.4.2-8.7-4.7q-2.7-6.7-.5-15.7m2.2 1.2c-1.2 5.2-1.1 9.2.3 13 1.6 3.3 3.2 4.2 6 3.1 2.8-1.5 4.6-4.3 6.1-9.4q2-7.5-.3-13c-1.6-3.3-3.2-4.2-5.9-3.2-2.8 1.5-4.7 4.3-6.2 9.5"/><path fill="#de2010" d="M298.2 444q-.3 6.8 3 11 3.5 3.9 7.7 1.2 3.9-3 4.7-9.9.4-6.9-3-11.2-3.5-3.7-7.6-1.2-4 3.1-4.8 10"/><path d="M297.2 443.7c.5-5.3 2.2-8.7 5.3-11 3.4-2.2 5.8-1.8 8.8 1.4 2.7 3.2 3.7 7 3.3 12.4s-2.1 8.7-5.2 11c-3.4 2.2-6 1.8-8.9-1.3a17 17 0 0 1-3.3-12.5m2 .4c-.2 4.4.6 7.3 2.6 9.9 2.2 2.3 4 2.6 6.5 1 2.5-2 3.8-4.6 4.2-9 .3-4.2-.5-7.2-2.5-9.8-2.2-2.3-4-2.6-6.5-1-2.5 2-3.8 4.6-4.2 9"/><path fill="#de2010" d="M300 418.7a25 25 0 0 0 1.6 14.2q3.1 5.2 7.5 2.7 4.4-3.1 6-11.4c.8-5.5.2-10.6-1.6-14.3q-3.1-5.3-7.6-2.8-4.3 3.2-5.9 11.5"/><path d="M298.9 418.2c1.1-6.3 3.2-10.1 6.5-12.5 3.8-2.2 6.3-1.3 9 3.3 2.2 4.4 2.8 9.3 1.8 15.6-1.2 6.3-3.2 10.1-6.5 12.4-3.8 2.2-6.4 1.3-9-3.2a25 25 0 0 1-1.8-15.6m2.3.9c-.9 5.3-.4 9.3 1.3 12.8 1.9 3.1 3.5 3.7 6.1 2.3 2.7-2 4.3-5.1 5.3-10.5.8-5.3.4-9.3-1.4-12.9-1.8-3-3.4-3.7-6-2.2-2.7 2-4.4 5.1-5.3 10.5"/><path fill="#ffe300" d="M682.4 452.2c2.6-3.5 4.5-4.2 7.6-2.9-1.2-9.6-3.1-12.5-5.9-11.8-2.7 1.3-3.8 5.5-1.7 14.7m3.7 28.7c2.9-3.2 4.8-3.7 7.8-2-.7-9.8-2.4-12.9-5.2-12.4-2.8 1-4.1 5-2.6 14.4m-8.8-55c1.9-4.4 3.5-5.7 6.7-5.4-3-9.1-5.2-11.3-7.8-9.6-2.3 2.1-2.6 6.7 1 15m-9.2-26.7c1.9-4.2 3.5-5.6 6.7-5.3-3-9-5.2-11.3-7.8-9.6-2.3 2-2.6 6.6 1 15m-22.2-49.5c1.4-4.6 2.9-6.3 6-6.6-4-8.5-6.5-10.3-8.8-8.1-2 2.5-1.7 7.1 2.8 14.7m-14.5-22.2c1.2-4.7 2.7-6.4 5.8-6.9-4.2-8.4-6.8-10-9-7.7-2 2.6-1.5 7.2 3.2 14.6m-30.6-38.8c0-5 1-7.4 3.8-9.1-5.8-6.6-8.5-7.1-10-4-1.2 3.4.2 7.7 6.2 13m16 18.3c.6-4.9 1.9-7 4.9-8-5-7.6-7.6-8.8-9.6-6.1-1.6 3-.7 7.6 4.6 14.1m-34-34.3c-.4-5 .4-7.6 3-9.6-6.2-5.8-8.9-6-10.2-2.7-1 3.6.8 7.7 7.2 12.3M563.9 259c-.8-5-.3-7.7 2-10.2-6.6-4.7-9.3-4.4-10.3-.8-.5 3.8 1.6 7.7 8.3 11m-20-11.3c-1.1-5-.8-7.8 1.3-10.6-6.8-4-9.4-3.3-10.1.4-.3 3.9 2 7.5 8.8 10.1m-19.6-8.1c-1.4-4.9-1.2-7.8.7-10.8-7-3.3-9.5-2.4-10 1.4 0 4 2.4 7.4 9.3 9.4m-20.8-5.4c-1.7-4.7-1.8-7.6 0-10.9-7.2-2.3-9.6-1-9.8 2.8.2 4 2.9 7 9.8 8.1m-40.7-2c-2.5-4.1-3-7-2-10.9-7.1 0-9.2 2.2-8.7 6.1 1 4 4 6 10.7 4.7m20-.5c-2-4.4-2.3-7.4-1-11-7-1.3-9.4.4-9.3 4.3.6 4 3.5 6.7 10.4 6.7m-39.7 3.4a12 12 0 0 1-3.2-10.5c-6.9 1.5-8.7 4.1-7.8 8 1.4 3.7 4.5 5.2 11 2.5m-37.7 18.4a11 11 0 0 1-4.4-9.6c-6.4 3.4-7.9 6.5-6.5 10.1 1.9 3.4 5 4 11-.5m18-10.2c-3-3.3-3.9-6-3.5-10.2-6.8 2.2-8.5 5-7.4 8.8 1.5 3.6 4.7 4.7 11 1.4m-52 38.2c-3.5-1.8-5-3.9-5.7-8.2-5.6 5.4-6.5 9-4.6 12 2.3 2.9 5.4 2.5 10.4-3.8m16-16.1c-3.4-2.2-4.8-4.5-5.2-8.8-6 4.6-7 8-5.3 11.4 2 3 5.3 3 10.6-2.6M357.5 299c-3.7-1.4-5.3-3.3-6.3-7.5-5.2 6.2-5.8 9.9-3.7 12.7 2.4 2.5 5.5 1.7 10-5.2m-12.9 21.5c-3.7-.9-5.4-2.5-6.6-6.6-4.8 6.8-5.1 10.6-3 13.2 2.7 2.2 5.7 1 9.6-6.6M334 342.9c-3.7 0-5.5-1.3-7.2-5-4 7.8-3.9 11.7-1.4 13.7 2.7 1.6 5.6-.3 8.6-8.7m-9.4 24.2c-3.7.6-5.6-.3-7.6-3.8-3.1 8.5-2.7 12.4 0 14 2.8 1.1 5.4-1.4 7.6-10.2m-7.6 25c-3.5 1.4-5.5.9-7.9-2.1-2 9.2-1.1 13 1.7 13.9 2.9.5 5.2-2.6 6.2-11.9m-5 28.1c-3.5 1.8-5.4 1.5-8-1.3-1.5 9.4-.5 13 2.3 13.8 3 .2 5-3.1 5.7-12.5m-2 23.5c-3.3 2-5.3 2.1-8 .4-.8 7.7.4 10.3 3.3 10.4 2.9-.4 4.7-3.3 4.6-10.8m349.9-68.1c1.4-4.7 3-6.3 6-6.6-3.8-8.5-6.3-10.3-8.6-8.2-2 2.6-1.9 7.2 2.6 14.8m28.7 134.4c2.8-3.2 4.7-3.7 7.8-2.1-.7-9.7-2.4-12.8-5.3-12.4-2.7 1-4 5.1-2.5 14.5"/><path fill="#ffd200" d="M644.6 384.8c0-.2 7-14.9 4.4-30.1-3.4-15-14.3-6-14.6-.5.7 5.2 7.5 13.1 8.3 16.3.3 3.7-.6 12.5 1.9 14.3"/><path fill="#ef8a10" d="M645 385v.7l-.6-.3c-1.5-1-2.2-4-2.1-10.7l-.1-4a25 25 0 0 0-3.1-5.7 29 29 0 0 1-5.2-10.9q0-2.3 2-4.7 2-2.3 4.5-3.3 3-.9 5.3.8c1.8 1.6 3 3.9 3.8 7.7A58 58 0 0 1 645 385m-.7-1.2q1.5-3.6 3-8.8 2.7-11 1.1-20.3-1-5-3.2-6.7-2-1.5-4.6-.6a10 10 0 0 0-4.1 3q-1.7 2-1.7 3.7.3 2.7 4.9 9.9 3 4.8 3.3 6.4.2 1 .1 4.4 0 7.6 1.2 9"/><path fill="#217900" d="M661 353c-.2.3-7.5 9.8-6.5 23.1 1.5 13.2 7.2 29.6 6.3 43-1.1 13.4-2.9 22.1-2.9 22.1a59 59 0 0 0 9.3-27.1c-.1-13.7-6.2-32.2-6.3-42.3l.2-14.8z"/><path d="M660.6 352q.3-.4.6-.2.4.1.7.7l.1.5v5.4l-.2 13.5q0 4.5 2.8 17.5 3.5 17.2 3.5 24.8-.1 8.9-4.8 19.3a65 65 0 0 1-4.7 8.7q-.4.5-1 .3l-.6-.6v-1q1.8-8.8 2.9-22a107 107 0 0 0-3.4-26.5 181 181 0 0 1-3-16.2 35 35 0 0 1 7-24.3m-.4 4.5-2 4q-3.4 8-2.6 15.6.5 4.9 2.8 15.8 4.2 19 3.4 27.5a249 249 0 0 1-1.8 16.5l1.8-3.7q4.4-10 4.5-18.1 0-7.2-3.5-24-2.7-13.4-2.8-18.3l.2-13.5zm1.5-2.2.1-.2z"/><path fill="#217900" d="M675.6 397.8c-.2.1-5.9 5.6-5.5 19.9.8 14.2 11.2 40.8 11.2 40.9s7.6 22.3 7.6 28c-.2 5.7 1.3-5.3.7-17.9-1-12.6-12.6-40.8-12.6-41 0 0-2.4-5.7-2.3-15.1.3-9.4.9-14.7.9-14.8"/><path d="m675 396.7.5-.2q1 0 1 1.3v1.6l-.8 13.3q-.1 8.9 2.1 14.5 11.9 28.6 12.7 41.5a119 119 0 0 1-.6 19.8q-.2.8-.8 1t-1-1l-.2-.4v-1.6q.2-5.3-7.4-27.4-2.7-6.7-5.4-15.2a111 111 0 0 1-6-26.2q-.3-9.3 2.7-16 1.4-3.5 3.2-5m-.7 4.6-.9 1.8a33 33 0 0 0-2.4 14.6 109 109 0 0 0 5.8 25.3q2.7 8.4 5.4 15a244 244 0 0 1 6.6 21.4l-.2-10.6q-.8-12.3-12.4-40.4a39 39 0 0 1-2.4-16q.1-5.5.5-11.1"/><path fill="#217900" d="M505.6 235.1c.4.1 25.5 5.4 26.4 28.7-.1 3.6 0 7.9-1 18 5.2-3.4 8.5-12.9 8-20-.3-23.8-23-43-33.4-26.7"/><path d="m505.5 236.8-.7-.5q-.4-.6-.5-1.1t.3-1.2c2.8-4.4 5.9-6.4 10.3-6.7 4 0 7.5 1.5 11.7 4.7q5.9 4.8 9.6 12.5a41 41 0 0 1 2 29.6 18 18 0 0 1-6.6 9.2q-.4.3-.7.1-.6-.1-.9-.7l-.2-1.2q.7-8.5 1-16.1v-1.8c-.3-9-4.2-15.8-12.5-21.4a40 40 0 0 0-12.8-5.4m2.5-2.7q5.6 1.7 11.1 5.2c9.3 6.2 13.8 14 14 24.6v1.9q0 6.1-.6 12.9 2.1-2.3 3.6-6.3 2.1-5.8 1.7-10.6v-.3q0-8-3.6-15.4a34 34 0 0 0-8.7-11.3 17 17 0 0 0-10.3-4.2c-3 .2-5 1.3-7.2 3.5"/><path fill="#217900" d="M489 231.5c.4 0 20.4-2.7 21.2 20.5 0 23.2-6.5 25.8-6.7 25.8.4 0 15.8-2.2 16.3-25.7-.3-23.7-20.4-37-30.9-20.6"/><path d="M489.2 233.2h-.3q-.4-.1-.7-.5-1-1-.2-2.3 3.9-6.3 9.7-7.6c3.8-.7 7 0 10.9 2.5a27 27 0 0 1 8.8 10.5q3.6 7.4 3.6 16.5c-.1 10.4-3 17.7-8.6 22.9a18 18 0 0 1-8.6 4.3q-1 0-1.4-1.2-.3-1.7.7-2 1.4-.7 2.8-3.7 3.2-6.8 3.1-20.8c-.2-9-3.2-14.3-9.7-17.2a21 21 0 0 0-10.1-1.4m2.8-3.5q3.9.2 7.7 1.8c7.8 3.5 11.5 10 11.7 20.7q.1 14.8-3.4 22.3l3-2.1c5-4.6 7.5-11.1 7.6-20.5q0-8-3.1-14.5-3-6-7.7-9.2c-3.4-2-6.2-2.7-9.5-2.2q-3.5.8-6.3 3.7"/><path fill="#217900" d="M694.2 522.4c.7 10.4 7.7 20.7 5 38.7-3.8 20.6-16.5 68.4-14.5 77.3-3.8-7.6-3.3-14.2-3.6-24.5-.1-10.2 10.7-47.4 11.8-60.2 0-11.5.9-27.1 1.3-31.3"/><path d="M694 520.8q1.2-.2 1.4 1.3v.3q.3 3.5 2.3 11a56 56 0 0 1 2.7 28.2 776 776 0 0 1-5.7 26.2q-10.2 44.8-9 50.2.3.7.1 1.3-.1.4-.7.7-.9.3-1.4-.6a51 51 0 0 1-3.7-20.7V614q-.3-5.8 6-32.3 5.3-22.2 5.7-28 0-20.3 1.3-31.4 0-1.3 1-1.4m.7 10.5q-.6 9.3-.6 22.5v.2q-.5 6-5.8 28.7-6 26-6 31.2v4.9q.3 7.6 1.3 12.8 1.5-12.7 8.8-45 4.5-19.3 5.7-25.9a63 63 0 0 0-2.6-26.3z"/><path fill="#217900" d="M694.2 522.6c.1.2 11.9 21.5 11.5 38.2-.8 16.6-7.2 35.6-5.2 44.4a44 44 0 0 1-5.1-22.3c-.2-10.2 5.7-21.2 4.7-32.3-1.4-11.2-5.9-28-5.9-28"/><path d="M695.2 521.8q3 5.5 6 13 6 15.3 5.7 26-.3 7.6-3.2 22.9a69 69 0 0 0-2 21q.4 1.6-.8 2-.9.4-1.3-.6-4.9-9.5-5.4-23.2 0-5 2.4-15 2.9-11.5 2.3-17.2-1-8.1-5.2-24.9l-.5-2-.1-.6v-.7q0-1.6 1.1-1.5.7 0 1 .8m2.9 11.7q2.4 10.7 3.1 16.8.8 6.5-2.4 18.7a60 60 0 0 0-2.2 13.8q.3 9 2.5 15.8.4-6 2.3-15.8 2.9-15 3.1-22.2.4-9.8-5.3-24.4z"/><path fill="#217900" d="M296.1 479.9c-.6 10.4-6 19.4-3.2 37.7 3.8 20.7 16.8 47.4 14.9 77.2 3.8-7.1 5-15 5.4-25.3 0-10.2-14.6-45.3-15.8-58.2 0-11.5-.8-27.2-1.3-31.4"/><path d="M297.3 479.8q1.3 11.3 1.3 31.5.5 6 8 28.5a140 140 0 0 1 7.7 29.8 61 61 0 0 1-5.5 26.2q-.4.8-1.1.7-1.2-.3-1-1.9.8-13-2.2-28.5-2-9.1-7-26.1-4.6-15.3-5.8-22v-.1a76 76 0 0 1 1.6-28 73 73 0 0 0 1.8-11.1q.2-.4.9-.6h.1q1.2 0 1.2 1.6m-1.8 11.1a72 72 0 0 0-1.4 26.4q1.1 6.5 5.6 21.5 5.2 17.2 7 26.6 2.5 12 2.5 22.8 2.4-7.5 2.8-18.9 0-4.8-7.6-28.3-7.6-23-8.2-29.5v-.2q0-12.4-.5-21.4z"/><path fill="#217900" d="M296.1 480c0 .2-11.5 19.9-11.2 36.6.4 11.1 14.8 57.8 12.9 66.5 4-7.1 5-6.2 4.8-17.3-4.5-28.6-12-47-10.8-58 1.3-11 4.3-27.7 4.3-27.7"/><path d="m295.2 479 .1-.1q.4-.4.8-.4 1.2 0 1.2 1.6v.7l-.2 1-.6 3.5q-2.7 15.6-3.6 22.8-.5 5.7 4 24.7 4.9 19.8 6.9 32.7v.3q0 6.5-.6 9.4-.6 2-2.5 5.5l-2 3.4q-.6.9-1.4.5-1-.6-.7-2.1 1.1-4.4-6.8-36.9a217 217 0 0 1-6-29 64 64 0 0 1 5.5-25.3q3-7.2 5.9-12.3m-3.9 14q-5.4 13.8-5.2 23.6 0 4.5 6 28 5.8 24.3 6.8 33.8 1.7-2.8 2-4.3.6-2.4.5-8.2-2-12.6-6.7-32.1a98 98 0 0 1-4.1-26.3q.7-6.6 3-19.8z"/><path fill="#8c8a8c" d="M526 308.5c.4.1 20.4 5 22.1 21.7.8 16.8-5 25.8-5 25.9 0 .5 2.5 35.5-18 43.4a319 319 0 0 1-56.9-7.9c-.2 0-9.8 1.8-14.3-27.6a693 693 0 0 1-5.3-50c0-.4 2-15.2 17-14.6 15 1.4 60 9.2 60.4 9.1"/><path d="M526 307.2q5.4 1.4 11 4.8c7.6 4.8 11.4 10.6 12 18.3q.6 10.7-2.1 19.7-1.5 4.3-2.8 6.6.5 9-1.4 19c-2.7 13.8-8.3 21.8-17.3 25.2h-.2q-22.1.3-56.9-7.9c-2 .2-3.8-.7-6.2-3-4.3-4.7-7.3-13-9.1-25.8a646 646 0 0 1-5.4-50.1v-.3q.7-4.4 3.1-8.3a15 15 0 0 1 14.8-7.3q9.5.9 45.6 6.8l10.6 1.8 1.8.2-.3-.3zm-.1 2.6v-.4q-2.9 0-14.8-1.9-36-6-45.5-6.8-8.8-.6-13.4 6.5a20 20 0 0 0-2.6 7q1.1 20.5 5.2 49.7c1.8 12 4.5 19.7 8.3 24q2.8 2.8 4.9 2.4h.3q34.5 8 56.6 8c8.3-3.2 13.4-10.8 16-23.7a74 74 0 0 0 1.2-18.5v-.6l.3-.3q1.3-2.2 2.7-6.4a53 53 0 0 0 2-18.6c-.5-6.5-3.9-11.5-10.8-15.9q-5.3-3.2-10.4-4.5"/><path d="M543.7 356.8q-2.8 4.5-5.5 9.7-5.2 10.4-4.5 15l-.1 1q-.2.3-.7.4-1 0-1-1.2-.8-5.6 4.7-16.8 2.7-5.5 5.6-10 .6-.9 1.3 0 .4.6.4 1t-.2.9"/><path fill="#8c8a8c" d="M527.7 399c2.9 3.7 5.4 7.6 6 19.6l1 18.6.3 5.4 14.7 183.7 13 133.2 1 20.5c-.2.5-3.1 13.8-11.9 14.4-7 17.2-40.3 17.2-44.1 16.5-3.2-.9-14.1-8.3-20.7-8.8-6.7 0-18 3.7-23.4 2.2-5.4-2-16.4-8.8-18.9-20.7a37 37 0 0 1-16.8-23.8l15.7-149.6 15.2-189.8c0-.5 1.9-24.6 9.3-28 7.8.3 48.2 8.2 59.6 6.5"/><path d="M528.3 398a37 37 0 0 1 6.4 20.7l1.2 23.9 14.8 183.7 13 133.2.9 20.8v.2a33 33 0 0 1-2.8 7.6c-2.7 5-5.6 7.2-9.4 7.6-3.2 7.4-10.7 12.2-23.5 15q-14.3 3-21.3 1.5-1.2-.2-6-2.9a44 44 0 0 0-14.5-6q-2.8 0-10 1.4-10.4 1.9-13.6.9a34 34 0 0 1-11-6.8q-6.8-6.5-8.5-14.3a37 37 0 0 1-17-24.6v-.2l15.6-149.8L457.8 420q.6-6.4 1.9-13.2c2-9.4 4.6-14.3 8-15.8h.2q2.9 0 17.5 2.3 33.8 5.3 41.7 4.3l.3-.8zm-.8 2.3q-8.1 1-42.1-4.3-14.2-2.2-17.1-2.3c-2.8 1.3-5 5.7-6.8 14.2q-1.3 6.5-1.8 12.8l-15.2 189.8L429 759.9a34 34 0 0 0 16.2 22.5l.5.3v.7c1 5 3.5 9 7.9 13.2q5.2 4.6 10.3 6.5c2 .5 6 .3 12.8-1q7.4-1.5 10.3-1.4 4.4.3 15.3 6.2 4.5 2.5 5.5 2.7a57 57 0 0 0 20.7-1.5c12.6-2.7 19.8-7.4 22.5-14.4l.3-.6h.5c3.5-.2 6-2.1 8.5-6.7q1.7-3.4 2.5-6.7l-1-20.2-13-133.2L534 442.6l-1.2-24q-.5-7.8-2-12.5-1.1-2.7-3.3-5.8"/><path d="m449 649.7-3.2 133.9-1.9-.4 3.1-133.9zm95.5 32.2 8.7 112h-2l-8.6-112z"/><path fill="#fff" d="m498.2 317.6 29.5 128.3a2324 2324 0 0 0 95.2 13l-77 66.2 29.4 128-77-88-77.2 65 29.5-119.5-77-86.8q46.8 5.4 95.2 13z"/><path d="m499.2 317.3 29.2 127.3c31.2 4.8 62.4 9.3 94.5 13q.6 0 .8.4l.2 1q0 .9-.4 1.1L547 525.8l29.2 127q.3 1.4-.6 1.7-.4 0-.9-.3l-76.5-87.4-76.5 64.5q-.9.6-1.4-.5-.2-.6-.1-1.2l29.2-118.7-76.5-86q-.8-1-.2-2 .3-.4.8-.4c31.2 3.5 62.4 8 94.6 12.8L497.3 317q.3-1.2 1.2-.7.4.3.7 1m-1 4.6-28.5 115.5q-.2.9-1 .7a2461 2461 0 0 0-92.1-12.6l74.6 84q.4.7.3 1.6L423 626.8l74.6-62.9q.7-.4 1.2.2l74.6 85.2-28.5-124q-.2-.9.4-1.4l74.6-64q-45.4-5.4-92.2-12.7-.7-.1-1-1z"/><path fill="#1a1a1a" d="M8 195.3c170.8-85.3 341-54.5 513.3-28C676.5 191 833.4 211.8 992 132.7v672c-170.8 85.3-341 54.5-513.3 28C323.5 809 166.6 788.1 8 867.2zm31.3 19.3v604.5c306.5-128.2 611.1 96 921.5-33.7V180.9C654.2 309 349.5 84.9 39.3 214.6" opacity=".2"/></svg>