<svg xmlns="http://www.w3.org/2000/svg" viewBox="0 0 1000 1000"><path fill="#00247d" d="M8 195c171-85 341-54 513-28 155 24 312 45 471-34v672c-171 85-341 54-513 28-155-24-312-45-471 34z"/><path fill="#fff" d="M8 195q27-14 55-23 94 31 191 98 94-64 191-114l55 8 11 32c-67 35-133 70-202 113q100 75 202 163l-22 56c-78-65-155-129-235-183-78 54-155 119-235 211L8 531v-37q94-111 191-184-94-57-191-77z"/><path fill="#cf142b" d="m254 307 37 1q106 78 216 173l-7 19c-81-68-162-136-246-193v25C175 387 96 453 15 548l-7-17c81-96 162-166 246-224l-37 2c-69-43-138-76-209-89v-25c81 15 162 56 246 112v-25q103-69 209-124l37 6c-81 43-162 86-246 143"/><path fill="#fff" d="M295 140v112c95 4 189 23 287 36v112c-95-13-189-32-287-36v168q-40-2-82 1V365c-68 5-135 19-205 54V307c68-34 135-49 205-54V141q40-3 82-1"/><path fill="#cf142b" d="M279 140v134c100 2 200 22 303 37v67c-100-14-200-35-303-37v191h-50V342c-73 3-146 17-221 55v-67c73-37 146-52 221-56V140z"/><path fill="#00247d" d="M8 531c163-81 324-57 492-31V164c162 25 325 52 492-31v672c-171 85-341 54-513 28-155-24-312-45-471 34z"/><path fill="#fff" d="M639 348c69 7 139 9 211-3l-1 205c2 81-35 141-105 165-49-16-105-56-105-160z"/><path fill="#00a2bd" d="M644 355q99 12 201-3v196c1 78-34 135-101 158-47-16-100-54-101-153z"/><path d="M644 354q99 12 202-3l-1 197c2 77-31 135-100 159h-1q-44-16-68-45-33-42-33-109V355zm0 2v197q0 67 33 107 24 30 67 45c69-23 101-81 100-157V353q-98 15-200 3"/><path fill="#a53d08" d="M843 571c-7 77-49 116-99 134-43-16-90-45-99-130 65 6 131 8 198-4"/><path d="M736 397v-25h14l1 25 39-2v19l-39 2-1 226h-14V416l-39-1v-20z"/><path fill="#ff9a08" d="M698 591s-6-1-8-10c0-9 10-16 11-17s14-5 17-22c3-14 5-14 6-14 19 3 30 46 31 78 0 31-9 51-11 53-2 0-43-67-43-68l1-1zm7-3 36 52c12-20 3-88-13-101q-3 14-9 21l-9 6c-8 6-15 10-11 14q4-6 7 1 1 6-1 7m-3 2 3-2z"/><path d="m700 591-2 1-4-2-4-9q0-6 5-12l6-6q15-6 17-21 1-15 6-15 13 3 23 29 8 24 8 50 1 20-4 38-4 14-7 15-2 2-43-68zm5-3 36 51q3-7 5-21a162 162 0 0 0-8-61q-4-12-10-18-3 17-8 21l-10 7-10 7-2 3 1 2 3-2q3 0 4 4 2 4-1 7m-3 1 2-1q3-3 2-7-1-3-4-3l-3 2v1l-2-4 3-4 10-7 9-7q4-4 9-21 6 5 11 19a157 157 0 0 1 8 61q-1 15-6 22l-36-51-3 1-1 1q42 69 43 67l6-15q5-18 5-37-2-27-9-50-9-25-22-28-3 1-6 14-2 16-17 22l-6 5q-4 7-4 12 1 5 4 8l3 1zm29-47 1 91h-1z"/><path fill="#ff9a08" d="M727 543v83z"/><path d="M727 543v83-41zm-4 12v66h-1zm-4 5 1 55-1-1zm-3 2v46h-1v-46zm-5 4v36zm-3 2v28h-1z"/><path fill="#ffdf00" d="m705 594 36 58v1l-37-59v-1zm39-36a165 165 0 0 1 1 92h-2l1-1q9-25 5-61l-6-31zm-45 25 1-2 1-2 2 1v2l-1-1-1 1v2h-1zm-2-12-2 4q-3 6-1 8v1h-1v-10l3-5h1l1 1z"/><path fill="#008021" d="M751 444q3-5 5-4l5-1c2-1 9-2 13-1l4 3q4 3 4 19l-1 24c-1 12-2 22-6 21 5 12 5 21 8 29 3 7 5 23 4 40s-4 56 6 81q-3 3-10-4-4-7-8-2c-9 10-17 21-30 10q-3-2-1-13c5-20 7-47 7-60z"/><path d="M751 444v-1l5-4h5l6-2 7 1 4 3q6 6 5 19l-2 24-2 16q-1 5-4 6 3 5 5 17l3 11 4 16v27l-1 37q1 26 7 41l-4 1-6-5-4-4-4 2-2 3-13 11q-7 3-15-3l-2-5q-1-4 1-9a229 229 0 0 0 7-60zm0 0v142l-1 27-6 33-1 9 3 4q7 7 14 4l13-11 2-3 4-2 4 3q3 4 6 5h3q-6-15-6-41-1-15 1-37v-27l-4-16-3-11-5-17v-1q3 1 4-6l2-23 1-16q2-13-4-19-3-3-5-3h-6l-6 1-5 1z"/><path fill="#ffe1cf" d="M759 432v9q-2 5 1 12c3-5 6-5 9-8l5-7q-4-2-4-10c0-7 6-12 1-21-4-6-9-4-12-2l-2 4-1 5-2 3v2l1 1-1 2v5q-1 1 1 4z"/><path d="m759 432-4-1-2-2 1-2v-5l1-2-1-1v-2l2-3 1-3v-2l2-4 6-2q3 0 6 4t2 8q1 3-2 7l-1 6 3 9 1 1-3 3-2 4-4 3-5 5q-3-6-1-12zm0 0v9q-2 6 1 12l5-5 4-3 2-4 2-3q-4-5-4-10l2-6 2-7-2-8-6-4-5 3-3 3v2l-1 3-2 3v2h1v1l-1 2v1h1l-1 2v4l1 2z"/><path fill="#ffe1cf" d="M736 464h-12q-3 0-3-4v-9q-1-9 4-21l4-16 1-7q3-2 2-3 2-3 2-1v2l3-3h4v6l-3 3q-1 3-4 5l-1 4c0 25-2 23-2 29q-1 2 1 2l4-1z"/><path d="M736 464h-12l-3-1-1-3 1-9q-2-7 4-21l3-16q0-6 2-7l2-2v-1l2-2 1 1-1 1 2-1 1-1 1-1h3v2l1 1-1 2h1l-1 2-1 2-1 2-2 2-3 2-1 4-2 29v2h1l4-1zm0 0v-14l-4 1h-1l-1-2 1-5 2-24 1-4 2-2 2-3 2-2 1-1 1-2h-1l1-2-1-1-1 1 1-1v-1h-1l-1-1-2 1-1 1-2 2v-2q0-1 0 0l-2 1v1l-1 2q-2 2-2 7l-4 16q-4 14-4 21v12l3 1z"/><path fill="#ffe1cf" d="M737 518q8-5 15-6l10-7 6-5q3-1 4-5 7-18 7-31c0-6-1-11-5-7q-7 9-9 19l-3 13q-1 3-4 2-7 3-13 9l-15 13q-5 3-5 6l-3 5v3l-1 8 1 2 1-2q1 2 2 0 1 2 2-1 2 1 2-1l1-4 3-6z"/><path d="m737 518-3 3-1 2-2 5-1 1-1 3v1l-1 2v-1h-1l-1 2h-1v-1l-1 1h-1l-1 1-1-2v-8l1-3 3-5q0-2 4-5l1-1 15-13 6-6 8-3 3-2v-2l3-11a44 44 0 0 1 9-19l3-2 1 2 1 7q0 13-7 31-1 4-4 5l-2 2-4 3-13 8zm0-1 12-5 3-1 13-9 3-2 4-5q7-19 7-31l-1-7-1-1-3 1a45 45 0 0 0-9 19l-3 13q0 2-3 2l-8 4-6 5-15 13-1 1q-4 3-4 5l-3 5v9l-1 2 1 2 1-2h1v1l1-1h1q0 2 0 0l1-1h1l1-1v-1l1-3v-1l3-5 1-2z"/><path fill="#ffe1cf" d="m775 649 2 5-1 2-3 13-1 4q-1 2 1 3l2-1q2 1 2-1 1 1 2-1l2-1 1-3 1-1v-3l1-4q2-2 1-5l-1-5q-2-4-5-4z"/><path d="m775 649 3-1q2 0 5 4l1 3v2q1 2-1 5l-1 4v4l-1 3h-1l-1 1h-1l-1 2h-1l-1 1-1-1-1 2h-1q-2-1-1-4l1-4 3-13v-2zm0 0 2 5-1 2-3 13-1 4 1 3h1l1-1h1l1-1h1l1-1h1l1-1h1v-3l1-1v-3l1-4 1-5v-2l-1-3-5-4z"/><path fill="#ffe1cf" d="M742 664q3 3 8-2l-4-3z"/><path d="m742 664 4-5 4 3v1l-5 3zm0 0 3 1q3 0 4-3l-3-2z"/><path fill="#870f00" d="M758 407q2-8 6-5l4-1q6-2 6 5l2 5 1 3q4 1 3 5l2 8q-3 4-5 1-3 2-5-1-2 3-4 0l-1-2v-7l-1-2v-7q-4 1-5-2z"/><path d="M758 407q1-4 3-5l3-1h9l1 5q3 3 2 5l1 3 3 2v3l2 4v4l-3 3-2-2h-5l-2 1-2-1q0-2-2-3v-2l1-2v-4l-1-1-1-3v-3l-2-1-3-2-1-1zm1-1 2 1 2 2h3v4l1 2v6l-1 2 1 2 2 2 1 1 2-1q2 3 5 1l2 1 3-2v-4l-3-3v-4l-2-2-1-3-2-5-1-4h-12zm0 26 3-2 2-1v1l-2 1zm-5-9 1 1zm1-3h1zm5-13v-2l1-1q3-1 6 2l3 1h-4q-2-4-4-3l-2 1zm6 2q4-1 5 2l2 2 2 2 2 4h2l1 1h-3l-3-4q0-2-2-3l-1-2q-1-3-5-1zm6 18-1-4v-5h1zm-5-6 2 3q-2 0-2-3m10 7-1-5zm-9-16 2 4q1 3 4 3-3 1-4-3-2-1-2-4m6-6-5-3q3 0 5 3m-14 47q-4 7-3 16l1 1 1 12q-1 7-3 10l2-10-1-12v-1q-2-9 3-16m15 53q-5-2-9 1-3 4-8 1 5 3 8-1 3-3 9-2zm-6 0q-3 1-3 8v24-24q0-8 3-9zm-4 2-2 2-1 4v1l1-6zm-8 7 1-5 2-2v1l-2 1zm17 0-1-8-1-2h-1 1l2 2q2 3 2 11l3 15 1 5q3 11 3 38l1 20-1-20-3-38-2-5-2-15-2-11-1-1v1zm-3 2a133 133 0 0 1-1 69l6 20 5 20-5-20-6-20q5-21 5-40zm-15 43v-4l1-15 1-12-1 12v19zm2-22 1 10v16l-1-16zm-5 28 1 8v10l2 10 1 3 9 25a90 90 0 0 1 2 27q0 8-2 10v-1q3-1 2-9v-2q0-13-3-25l-8-25-1-3-2-10zm0 97q2 1 3-3l2-13v-19h1a103 103 0 0 1-3 32zm7-22q1 11-1 18h-1q2-8 2-17zm4-11 1 20h-1zm-2 20v3q1 9-1 9l1-9zm9-38 6 19q3 16 5 18l-6-17zm3 34-1-8zm-47-112v-1l1-6 1 1-1 5zm-2 1v-7l2-2-1 3-1 5zm-2 0v-3l1-6v9zm17-133-5 5v-1zm1 1-4 4-1 1 1-1zm0 3-2 2-2 2 2-2zm-7-1-2 3v-1l1-1zm41 270v-3zm2-1v-4l1 1zm2-1v-2zm2-1 1-2zm-24-260 2 2 1 2h-2l-1-1v-1h1v-1zm1-1 3 2v1l-1-1zq-1 0 0 0"/></svg>