<svg xmlns="http://www.w3.org/2000/svg" viewBox="0 0 1000 1000"><path fill="#00247d" d="M8 195.3c170.8-85.3 341-54.5 513.3-28C676.5 191 833.4 211.8 992 132.7v672c-170.8 85.3-341 54.5-513.3 28C323.5 809 166.6 788.1 8 867.2z"/><path fill="#fff" d="M8 195.3a522 522 0 0 1 55-23.7c63 20.3 126 54.4 191 98.2a1945 1945 0 0 1 191-114.2l55 8.4 11 31.8c-66.7 35.2-133.3 69.9-202 113C375.6 358 442.3 414 511 471.5l-22 56.7C411.5 463.5 334 398.9 254 345A1230 1230 0 0 0 19 556L8 531.4v-37.6C71 419.2 134 360.3 199 310c-63-37.3-126-65.2-191-77.2z"/><path fill="#cf142b" d="M254 307.3q18 0 36.7.6c71.5 51.4 143 111.5 216.6 173.2L500 500c-81.1-68-162.3-136.2-246-192.7v25A1232 1232 0 0 0 15.3 547.8L8 531.2a1240 1240 0 0 1 246-223.9 716 716 0 0 0-36.7 1.3c-69-42.9-138.1-75.2-209.3-88.3v-25c81.2 14.9 162.3 55.7 246 112v-25c69.1-47.8 138.2-86 209.3-124L500 164c-81.2 42.9-162.4 85.5-246 143.3"/><path fill="#fff" d="M295 140v112c94.7 4 189.4 22.8 287 36.2v112c-94.7-13-189.4-32.1-287-36.2v168a755 755 0 0 0-82 .9v-168A530 530 0 0 0 8 419.3v-112a531 531 0 0 1 205-54.4v-112q40.3-2.6 82-.9"/><path fill="#cf142b" d="M278.6 139.5V274c100.1 2.3 200.2 22.6 303.4 36.7v67.2c-100-13.7-200.3-34.3-303.4-36.7v190.4q-24.2-.5-49.2.5V341.6A535 535 0 0 0 8 396.9v-67.2c73.1-36.5 146-52 221.4-55.3V140q24.2-1 49.2-.5"/><path fill="#00247d" d="M8 531.3C170.7 450 332.5 474 500 500V164c161.8 25 325.4 51.9 492-31.2v672c-170.8 85.2-341 54.4-513.3 28-155.2-24-312.1-44.6-470.7 34.5z"/><path fill="#fff" d="M639 348.3c69.5 7.1 139 9 210.6-3.5l-.2 204.8c1.5 81.6-35.7 141.6-105 165.4-49.2-16.4-105.3-56.3-105.7-159.6z"/><path fill="#00a2bd" d="M643.6 355c66.4 6.5 132.9 8.2 201.3-3.2l-.2 196.2c1.5 78.2-34 135.3-100.3 158.1-47-15.8-100.6-53.7-101-152.7z"/><path d="M643.6 354c66.7 6.5 133.4 8.2 202-3.4l-.2 197.3c1.5 76.7-31.8 135.4-100.8 159.2h-.3a146 146 0 0 1-68.4-45.4q-33-41.3-33.3-108.4l.3-198.4h.7zm.8 2-.3 197.4q.2 66.2 32.7 106.9a145 145 0 0 0 67.6 44.8c68.2-23.6 101-81.4 99.6-157l.2-195.2c-66 10.9-131.9 9.8-199.8 3.2"/><path fill="#a53d08" d="M843.4 571.5c-7.6 76.9-49.7 115.6-99 133.6-43.6-15.8-90-45.2-99.4-130.2 65.5 6.3 131 7.7 198.4-3.4"/><path d="m736.5 396.6-.3-24.7 14.3.1.1 24.5q19.4-.3 39.2-1.6l.1 19.1q-19.4 1.5-39.3 1.9l-.3 226-14 .2-.1-226.3q-19.3 0-39-.9v-19.5q19.3 1 39.3 1.2"/><path fill="#ff9a08" d="M698 591c-.4 0-6-1.4-7.5-10.3-.6-9 9.1-16.2 10.4-17 1.2-.5 14.2-4.9 17-21.7 2.7-14.3 5.1-14.2 6.2-14.1h.3c18.2 3.2 29.8 46.2 30.6 77.7.5 31.3-9.2 51.6-11 53.2-2.4.6-42.5-66.8-43.1-67.8l1.4-1c-2.2.9-4.3 1-4.3 1m6.8-2.9 35.8 51.5c12.3-19.2 3.7-87.4-12.5-101-2 8.3-5.3 17.8-8.8 21.1a85 85 0 0 1-9.4 6.7c-8 5.1-15 9.5-11 13.7 1.7-2.8 4.8-5 7 1 .6 3.6 0 5.5-1.3 7.2zm-2.5 1.8a8 8 0 0 0 2.3-1.6z"/><path d="M700.5 591.2q-1.2.3-2.5.3a9 9 0 0 1-3.6-1.9 14 14 0 0 1-4.3-8.8c-.4-4.1 1-7.8 4.5-12.1q3-3.6 6-5.5h.1l.3-.2a25 25 0 0 0 16.5-21v-.1c2-10 4-14.4 6.6-14.6h.3c8.7 1.6 15.8 10.7 22.2 28.6q8.1 23.6 8.8 49.7a131 131 0 0 1-4.6 38c-2.7 9.1-4.8 14-6.7 15.7-1.5.7-15.8-20.8-43.6-68zm4.8-3.1 35.3 50.7a50 50 0 0 0 5.2-21.1q1-14-1-30.7-2.2-16.7-6.5-29.5-4.5-13.3-10-18.1-4 16.5-8.8 20.8a89 89 0 0 1-9.5 6.7 80 80 0 0 0-10 7.2 7 7 0 0 0-2 3q-.2 1.2.8 2.2 1.4-2.3 3.4-2.6c2 0 3 1.1 4 4.2.6 3.2.3 5.3-.9 7.2m-3.2 1.4 2.2-1.7q2-2.4 1.2-6.5-1-3.7-3.2-3.5-1.9.3-3.1 2.6l-.3.4-.3-.3q-1.7-1.6-1.4-3.7.4-1.7 2.4-3.6 2.5-2.4 10-7.3 7-4.5 9.5-6.7 4.5-4 8.6-20.8l.2-.6.4.3A42 42 0 0 1 739 557q4.4 13 6.5 29.8 2 17 1 31A49 49 0 0 1 741 640l-.3.4-35.9-51.6a9 9 0 0 1-2.3 1.6l-1 .8c27.4 46.3 41.2 67.6 42.4 67.1q2.4-2 6.2-15.1 5-17.7 4.6-37.6-.6-25.9-8.7-49.3c-6.2-17.5-13.1-26.4-21.5-28l-.3.1c-2.3.2-4 4.3-5.8 13.8a26 26 0 0 1-17 21.9h-.3q-2.8 2-5.8 5.4c-3.4 4-4.7 7.4-4.3 11.1s1.7 6 4 8.1q1.5 1.4 3 1.8 2.2-.1 4.2-1"/><path d="m731.3 541.5.2 91.7h-.8l-.2-91.7z"/><path fill="#ff9a08" d="m726.9 543.1.2 73.5v9.8z"/><path d="M727.3 543.1v41.7l.2 41.6h-.8l-.1-41.6-.1-41.7zm-4.4 12 .2 66.2h-.8l-.2-66.2zm-3.6 4.7.3 54.7h-.8l-.2-54.8zm-3.7 2.3v46.2h-.9V562zm-4.2 3.5v36.6h-.8v-36.6zm-3.6 2.8v28h-.7v-28z"/><path fill="#ffdf00" d="m704.5 593.5 37 58.5q.2.5 0 .8-.4.3-.6 0l-37-58.6q-.2-.4 0-.8.4-.3.6.1m39.1-35.8a165 165 0 0 1 6.5 30.4q4.5 35.6-5.3 61.7-.3.9-1 .5l-.4-.6.1-.8q9.5-25.5 5.2-60.4a163 163 0 0 0-6.4-30q-.3-.9.3-1.2.4-.3.6-.1.3 0 .4.5m-44.4 25q.3-1.2.9-2.1t1.2-1.3q1-.3 1.8.6.6.7.1 1.5l-.5.4q-.2 0-.5-.4l-.4-.2q-.2.1-.5.7-.5.7-.7 1.6-.4 1-1 .6t-.4-1.3m-1.8-11.8q-1.6 2-2.7 4.3c-1.4 3.2-1.4 5.3-.2 7.3q.4.8 0 1.5l-.6.3q-.2 0-.5-.4c-1.7-2.9-1.7-5.7 0-9.8q1.4-2.7 3-4.8l.6-.3q.3 0 .5.5.4.8 0 1.4"/><path fill="#008021" d="M750.7 444c2.6-3 3.7-4.5 5.3-4.5q2.6.4 5.2-.6c1.8-.6 8.9-2 12.3-1 1.1.3 2.4 1 4.7 3.3 2.2 2.5 5.2 6.5 4.3 18.7s-.8 17.4-1.2 24.2c-.9 12.3-2.7 21.5-6.3 21.3 4.7 11.1 5.3 20.7 8.3 28.3s5 23.1 3.8 40.4-4.3 55.8 5.4 81c-2 1.6-5.3.5-9.2-4.5-3.7-5-5-4.7-8-1.5-9.2 10-17.2 21.1-29.8 10.2-2.9-2.7-3.7-5.5-1.7-13.5 5.2-19.8 7.7-46.8 7-59.5z"/><path d="m750.6 443.8.8-.9q3.3-3.7 4.7-3.6 2.6.4 5-.6 1.7-.7 5.7-1.2 4.6-.6 6.7.2 2 .4 4.8 3.3c3.6 4.2 5 10.1 4.4 19a289 289 0 0 0-1.2 24 94 94 0 0 1-2.2 15.5c-1.2 4.3-2.3 6-4 6.1q2.6 6.3 5 17 1.9 7.5 3.2 11 2.3 6 3.5 16.6 1 11.5.3 24l-.2 2.6a409 409 0 0 0-1.2 37q.8 25.7 6.8 41.2v.3q-1.5 1.4-4.1.3-2.8-1.4-5.4-4.8-2.6-3.5-4.1-3.8-1.4-.1-3.7 2.3l-2.3 2.5q-8.2 9-12.6 11.1c-5.2 2.2-9.8 1.2-15.1-3.4a9 9 0 0 1-2.7-4.9q-.5-3.2 1-8.9a229 229 0 0 0 6.9-59.4zm.3.3v142.2q.6 10.2-1.2 27.1A229 229 0 0 1 744 646q-1.5 5.6-1 8.6a8 8 0 0 0 2.6 4.6c5.2 4.6 9.7 5.6 14.8 3.4q4.4-2.1 12.5-11l2.3-2.6q2.3-2.5 3.9-2.3t4.3 3.8 5.3 4.8q2.4 1 3.6-.1a127 127 0 0 1-6.8-41.3q-.3-14.2 1.2-37l.2-2.7q.9-12.4-.3-23.8-1.1-10.6-3.4-16.5-1.4-3.4-3.2-11.1-2.5-11-5.1-17.2l-.2-.4h.4c1.6.1 2.7-1.4 4-5.7a93 93 0 0 0 2.4-23q.2-9 .8-16.5c.7-8.6-.7-14.4-4.2-18.5q-2.8-3-4.6-3.2-2.2-.8-6.7-.3a24 24 0 0 0-5.5 1.2q-2.6 1.2-5.3.7-1.3-.1-4.4 3.5z"/><path fill="#ffe1cf" d="M759.3 431.7c.6 2.9.9 6.2-.1 9.6s-1.2 7 .5 11.7c3-5.4 6.6-4.7 9.2-7.9 2.3-3.5 3-6.2 4.6-7.1-2-2.1-4.2-4.1-3.9-10.3.9-6.3 6.5-11.3 1.2-20.6-4-5.7-8.7-4.1-11.3-1.6q-1.6 2-2.4 3.7c-.2 1.2 0 3.4-.7 5q-.9 1.4-2.2 2.7-.9.8-.3 2.2.5.4 1.1.6l-.8 2q-.4.8.2 1.4c-.4 2 .3 2-.2 3.6-.6 1.4-1.1 2.6.7 4.2.6.3 3 1 4.4.8"/><path d="M759.2 432q-2.5.4-4.4-1-1.3-.9-1.4-2.2 0-.7.6-2.1v-.1q.3-.7.1-1.5v-2q-.5-.7 0-1.5l.7-1.8h-.2l-.8-.6a2 2 0 0 1-.3-1.4q.1-.6.6-1 1.2-1.3 2.1-2.8.4-.9.6-3 0-1.4.2-1.9.7-2 2.4-3.8a8 8 0 0 1 5.2-2.4c2.7.2 4.5 1.3 6.3 4q2.6 4.3 2.4 8.5-.3 2.4-1.9 6.8-1.5 3.6-1.6 5.5c-.3 3.7.7 6.5 3.2 9.4l.6.7.2.3h-.3q-.8.6-2.3 3.2-1.2 2.5-2.2 4-1 1.4-3.7 2.7-3.8 2-5.5 5.1l-.1.3-.2-.3q-2.2-6.2-.4-12 1.2-4 0-9.1m.3-.4a19 19 0 0 1 0 9.7q-1.7 5.5.3 11.3 1.9-3 5.5-5 2.6-1.3 3.6-2.6 1-1.5 2.2-4a9 9 0 0 1 2.2-3l-.4-.5a13 13 0 0 1-3.4-9.9q.3-1.9 1.7-5.7 1.6-4.2 1.9-6.6.1-4-2.3-8c-1.8-2.7-3.5-3.8-6-3.9q-3 .1-5.1 2.2a11 11 0 0 0-2.3 3.7l-.2 1.6a8 8 0 0 1-.6 3.3q-1 1.6-2.2 2.9l-.5.8q0 .6.3 1 0 .3.6.5l.4.1h.2l-.1.3-.9 2q-.3.6.2 1v2.2l-.2 1.8v.1q-.6 1.2-.5 1.9 0 1 1.2 1.9 1.8 1.2 4.2.8h.2z"/><path fill="#ffe1cf" d="M736.3 464.1c-3.4.9-8.6-.7-12.7-.3q-3 .2-3-3.5c.3-2.4.5-6 .2-9.5a59 59 0 0 1 3.9-20.6c2.6-8 3.8-12.5 3.9-16.3 0-2.6.2-5.1 1.8-6.7 1.2-1.2 1.5-2.1 1.9-3q1.6-3 2-1.3.2 1-.5 2.3c1-1.1 2.8-2.6 3.3-3 .5-.5 2.2-2.3 2.6-.5q1.2-.7 1.6 0c.2.8 0 1-.3 1.5.6 0 1.2 1.1 0 2.5.7-.1 1.2 1 .2 2.4-1.2 1.4-2.4 2.3-2.8 3.3a21 21 0 0 1-4.4 4.7c-1 .7-1.2 1.4-1.2 3.8 0 24.8-2 22.8-2.2 28.8 0 1.7-.2 2.9 1 2.6a14 14 0 0 1 4.7-1.2z"/><path d="M736.3 464.3q-1.9.6-6.6 0-4.3-.4-6-.3-1.5.3-2.4-.8-1-1-.8-2.9.5-5.5.1-9.4-.6-6.6 4-20.8a71 71 0 0 0 3.8-16.2c0-3.7.7-5.7 2-7q.8-.7 1.5-2.2l.3-.7a5 5 0 0 1 1.4-1.9h.6q.3.2.3.8t-.2 1.5l2-1.8.7-.6 1.4-1.1 1-.2q.3.1.4.7l1-.3q.5 0 .6.6.2.7 0 1.3.3.1.4.9t-.4 1.6h.2l.3.8q.2 1-.6 2l-1.3 1.3-1.5 2a11 11 0 0 1-2 2.5q-1.5 1.6-2.4 2.2-1 .6-1.1 3.5a135 135 0 0 1-2.2 28.9v2.1q.3.5.7.2h.2q2.8-1.1 4.6-1.2h.1v14.5zm-.2-.4v-13.6a15 15 0 0 0-4.3 1.1h-.2q-.7.4-1-.4l-.1-1.6v-.7q0-2 .5-4.6 1.5-7.6 1.7-24.3 0-3.1 1.2-4 .9-.5 2.4-2 1.6-1.8 2-2.5a8 8 0 0 1 1.6-2l1.2-1.3q.6-.8.5-1.6l-.2-.4h-.3l-.2-.5q.8-.7.6-1.5 0-.7-.5-.6l-.6.2.4-.6q.6-.5.3-1.1 0-.3-.4-.4l-1 .4-.2.2v-.4q0-.5-.3-.5l-.7.1-1.4 1.1-.6.6q-1.9 1.6-2.6 2.4l-.3-.3q.7-1.3.6-2.2l-.1-.4h-.4q-.6.4-1.3 1.8l-.2.6q-.7 1.5-1.7 2.4c-1.2 1.2-1.7 3.1-1.8 6.6q0 4.4-3.9 16.4-4.4 14.2-3.9 20.5.4 4 0 9.6-.3 1.6.6 2.5t2 .7q2-.2 6.2.3 4.6.6 6.4 0"/><path fill="#ffe1cf" d="M737 517.7c5.4-3.5 11.4-5 14.6-6.2s8.3-4.7 10.8-6.6c2.4-1.9 4.5-4.2 5.9-5s2.9-2 3.9-4.5c4.6-12.6 7-22.5 7.1-31 0-6-.8-11.6-5-7.2a50 50 0 0 0-9 18.7c-1.8 9.1-3 11.1-3.5 13-.5 1.7-1.6 1.7-3.3 2.3-7 2.3-8.6 3.7-13.8 9a141 141 0 0 1-14.7 13c-3.8 2.8-4.4 3.1-5.3 5.5q-1.3 3.5-2.3 5a5 5 0 0 0-.8 3.6l-.3 7.5c0 1.7.2 2 .7 2.1.5 0 1-.2 1.4-2.1 0 2 1.5 1.3 1.8-.1.2 2 1.8.9 2.1-1 .2 1.3 1.5.4 1.8-.3q.4-2.5 1-4.6c.8-2 1.6-4.2 2.9-5.7 1.4-1.6.9-3 4-5.4"/><path d="M737 518q-1.8 1.3-2.8 3.4-.5 1.3-1.2 1.9-1 1.1-2.4 4.8l-.3.7-.8 3.5-.3 1.2q-.1.7-1 1h-.7l-.1-.1q-.2 1-1.1 1.5h-.9l-.2-.4q-.3.6-1 .7-.5 0-.8-.3-.5 1.4-1.4 1.2t-.9-2.3l.2-2.2q.2-4.5.1-5.3 0-2.1.8-3.7 1-1.5 2.3-5 .9-2.2 4.3-4.8l1.1-.8q8.2-6.3 14.7-12.9 4-4.3 6.2-5.8a34 34 0 0 1 8.5-3.6q2-.6 2.3-2l.6-1.8q1.6-4.7 2.9-11a44 44 0 0 1 9-19q1.4-1.6 2.6-1.6 1 0 1.7 1.4 1 2.3 1 7.6a98 98 0 0 1-7 31.1 9 9 0 0 1-4 4.7l-2.8 2.2-3.1 2.8a52 52 0 0 1-13.2 7.4A53 53 0 0 0 737 518m.1-.6q4.3-2.8 12.1-5.3l2.4-.8a52 52 0 0 0 13.9-9.3q2-1.9 2.8-2.3a8 8 0 0 0 3.8-4.4q7-19.2 7-31a21 21 0 0 0-1-7.3q-.6-1.2-1.4-1.3-1 0-2.4 1.6a45 45 0 0 0-9 18.7 75 75 0 0 1-3.3 12.9q-.3 1.4-2.7 2.3l-.8.2a34 34 0 0 0-7.5 3.4q-2.1 1.4-6.2 5.7-6.6 6.6-14.7 12.9l-1.2.8a12 12 0 0 0-4 4.5 27 27 0 0 1-2.4 5.2 5 5 0 0 0-.7 3.4l-.2 5.3-.1 2.2q0 1.8.5 2 1 0 1.2-2h.3q0 .6.2.8l.4.2q.9-.2 1-1.2h.3q0 .7.2.9h.5q1-.6 1-1.9h.4q0 .4.2.5h.4q.7-.2.8-.8l.3-1.2.8-3.5.3-.7q1.4-3.7 2.6-5 .5-.6 1-1.8a9 9 0 0 1 3-3.6z"/><path fill="#ffe1cf" d="m775.3 649.1 1.2 5c.2 1.2-.1 1.5-.4 2.2a69 69 0 0 0-2.8 12.4c-.2 1.8-1 3.5-1.4 4.6-.4 1.3-.3 2 .8 3.2.6.4 2-.3 2.3-1.5q1.1 1.2 2.1-.8 1 .9 2-1c.6.3 1.2-.6 1.6-1.3q1.5.7 1.8-2.4 0-.9.4-1.8.3-1 .3-2.4c0-1 .4-2.7 1-4a11 11 0 0 0 1-5.7c-.4-1.9-.9-1.7-1.5-4.5-1.4-1.9-3-4-4.9-4.3-1.8.1-2.8 1.6-3.5 2.3"/><path d="M775.1 649.2v-.2l.5-.6q1.8-1.8 3.2-1.8c1.4.2 2.8 1.4 5 4.3v.1q.4 1.6 1 2.7l.6 1.9a11 11 0 0 1-1.1 5.8q-1 2.2-1 3.8 0 1.8-.3 2.6l-.4 1.6q0 1.8-.6 2.5t-1.2.3l-.7 1q-.5.3-1 .2-.4.9-1 1.2t-1 0a2 2 0 0 1-1 1q-.6.1-1-.2-.3.7-1 1.2-1.1.4-1.5 0-1.5-1.4-.8-3.4l.3-.7q1-2.4 1-3.8a53 53 0 0 1 3-13q.5-.7.3-1.6zm.4 0 1.2 4.9q0 1-.3 2l-.1.4a53 53 0 0 0-2.8 12.4q-.1 1.5-1.2 4l-.2.6q-.6 1.6.7 2.9.3.3 1-.2 1-.4 1-1.1v-.4l.3.3q.3.4 1 .3.5-.3.9-1v-.4l.2.2q.4.5.8.2.6-.3 1-1.2v-.2l.2.1q.3.3.7-.1l.7-1v-.2l.2.1q.6.4 1-.2.5-.5.5-2 0-.9.5-2 .3-.7.2-2.2 0-1.7 1-4.1 1.4-3.4 1.1-5.5-.1-.9-.6-1.7l-1-2.7c-2-2.9-3.5-4-4.7-4.3q-1.3 0-3 1.8z"/><path fill="#ffe1cf" d="M741.6 663.9c2 2.2 5 2.3 8-1.5-1-.6-3-1.9-4-3a17 17 0 0 1-4 4.5"/><path d="m741.5 664-.2-.2.3-.1q1.1-.6 4-4.4v-.1l.2.1q1 1.2 3.9 2.8l.2.2-.2.2q-1.8 2.8-4.4 3.1-2.4.3-3.8-1.6m.4 0q1.4 1.4 3.4 1.2 2.3-.4 4-2.8-2.6-1.5-3.6-2.6a20 20 0 0 1-3.8 4.2"/><path fill="#870f00" d="M758.4 406.9c1-5.8 3.4-5.7 5.5-5.2.8.2 2.6.3 4.4-.3 3.8-1.2 5.9 0 5.8 4.7 1 1 1.8 3 1.8 5.1-.2 2 0 2.7 1.4 3 1.5.3 3.8 1.9 2.2 5.3 1.8 1.6 3 4.7 2.2 7.5-1.2 2.6-3.5 3-5 1-1.4.8-3.2 1-4.7-.7-1 1.5-2.9 1.4-3.5.2q-.7-2-2-2.3c-.9-.7-1-3.6.4-4.4a6 6 0 0 1 .3-2.8q.4-1-.8-2.5a8 8 0 0 1-.7-6.1c-1.7.5-4.3-1-5.2-2.3q-1-2-2.1-.2"/><path d="M758.2 406.8q.4-4 2.4-5 1.4-.9 3.3-.3a7 7 0 0 0 4.4-.3q2.8-1.1 4.4 0c1.2 1.1 1.7 2.4 1.6 4.8q2 2 1.7 5.2-.1 2.5 1.3 2.7t2.4 1.6q1.2 1.8 0 4 1.4 1 2.1 3.2.8 2.4 0 4.4-.7 2-2.5 2.4-1.7.3-2.6-1.3-2.8 1.8-4.7-.6-.6 1-2 1t-1.7-1q-.6-1.7-1.8-2.2-.9-.4-.8-2.4 0-1.9 1-2.3-.2-1.9.4-2.9v-.9q-.2-.6-.8-1.2-.7-.8-1-2.8t.1-3.2q-1 .3-2.7-.5-1.8-1-2.3-2t-1-1-.9.8zm.4-.6q.4-.4.8-.4.7.1 1.2 1.1t2.3 1.9 2.8.4l.4-.2-.3.5q-.5 1.3-.2 3.3t1 2.5l.8 1.4q.2.9-.1 1.4-.5.8-.2 2.7v.2h-.1q-.9.3-1 2t.6 2q1.4.5 2 2.4.4.8 1.5.8a2 2 0 0 0 1.8-1l.1-.2.1.1c1.4 1.7 2.6 1.9 4.6.7l.1-.1v.1q1 1.5 2.5 1.3 1.6-.4 2.3-2.2.6-1.7-.1-4a7 7 0 0 0-2-3.2l-.2-.1.1-.2q1-2 0-3.6a3 3 0 0 0-2.1-1.5q-1.8-.1-1.6-3.1a6 6 0 0 0-1.7-4.9v-.2q0-3.2-1.4-4.4-1.6-1.2-4.3-.1-2.3.9-4.5.3-1.9-.4-3 .2-1.7 1.1-2.2 4m.6 25.4a7 7 0 0 0 2.5-1.3q1.4-1 2.4-1v.4q-1 0-2.2 1-1.4 1-2.6 1.3zm-4.7-8.6.5.5 1.2.3h.2v.5h-.2q-.9-.2-1.4-.5l-.6-.5zm.6-3.4 1 .8-.2.3q-.3-.4-1-.7z"/><path d="M760.3 407q-.6-.8-.2-1.8t1.4-1.3c1.8-.7 3.2 0 5.2 2.3q1 1.4 2.9.6v.4q-1.9 1-3.2-.7c-1.8-2.2-3.1-2.8-4.8-2.2q-.9.4-1.2 1.1t0 1.3zm5.4 2.2c3-1 4.5-.4 5.3 2q.4 1.3 1.5 1.8 1.4.6 2.1 2.3 1.1 3 2.3 4.1 1.4 1.5 2.5 0l.3.2q-1.4 1.9-3 .2-1.2-1.2-2.4-4.3-.6-1.5-1.9-2.1a3 3 0 0 1-1.6-2q-1-3.2-5-1.8zm6.2 18.2a7 7 0 0 1-.5-4.5q-.9-1.8 0-4.8l.4.2c-.7 2-.7 3.2 0 4.4v.2a6 6 0 0 0 .4 4.3zm-4.8-6.6q.2 2.3 2.3 2.8v.4q-2.4-.5-2.6-3.2zm9.5 7.3q-.8-1.4-.5-4.7h.3q-.3 3 .5 4.4z"/><path d="M768.3 412.3c0 2 .4 3 1.6 3.8q1 2.9 3.7 2.5v.4q-2.9.6-3.9-2.6-1.9-1-1.7-4.1zm5.7-6q-2.9-2.9-5.3-3.2v-.4q2.6.4 5.5 3.3zm-14.2 46.8q-3.4 6.7-2.3 16v.8q1 8 1 12 0 7-2.5 10.3l-.2-.3q2.3-3.1 2.4-10 0-4-1-12v-.6a28 28 0 0 1 2.3-16.4zm15.2 52.5c-4-.8-6.4-.4-8.6 1.6-2.8 2.6-5 2.9-8.2 1l.1-.4c3.1 1.8 5.3 1.5 7.9-1 2.3-2 4.8-2.5 8.9-1.6z"/><path d="M769.3 505.6c-2.2 1-3.2 3.3-3.3 8.7l-.2 6.5q-.4 11 0 16.8h-.3q-.5-5.8 0-16.8l.2-6.4c0-5.7 1.1-8.2 3.6-9.2zm-4.3 2.7-.3.1q-1.4.6-1.8 1.3-.7 1.4-.6 4.8h-.3q-.1-3.5.6-5 .5-1 2-1.5l.3-.1zm-8.1 6.5q0-3 .7-4.7.8-2.2 2-1.7v.4q-1-.4-1.7 1.5-.6 1.7-.7 4.5zm17 0q0-5.3-.7-7.6-.6-1.6-1.5-1.8h-.4v-.4h.4a3 3 0 0 1 2.5 1.7q1.2 2.8 2 11.2.5 6.8 2.5 14.7l1.2 5q2.6 11.2 3 38.2.4 16.2 1.3 20.4l-.3.2q-.9-4.3-1.2-20.5-.7-27-3-38l-1.3-5.2a91 91 0 0 1-2.6-14.7q-.6-8.5-1.8-11-.4-.9-1.1-1.2l.6 1.2q.7 2.3.7 7.8zm-3 2.3a133 133 0 0 1 4.3 29.3q.3 17.9-4.7 40l5.7 19.7q4.5 15 5.2 19.7l-.4.1q-.5-4.6-5.1-19.6l-5.7-19.9v-.1q5-22 4.6-40-.3-13.7-4.2-29zm-14.5 42.5q.3-1.4 0-3.6-1.2-5.9.5-15.1 1.5-8.9.6-11.7l.3-.2q1 3-.6 12a45 45 0 0 0-.6 15q.4 2.2.2 3.7z"/><path d="M757.8 537.6q-.4 2.6.8 10.4 1.6 11.3.4 16.2l-.3-.1q1.3-4.8-.5-16a45 45 0 0 1-.7-10.6zm-4.3 28.3.3 7.9q.4 7 .4 10.2 0 4.3 2.1 10.1l1.2 3q6 16.7 8.2 25a91 91 0 0 1 2.7 26.9c0 5.5-.6 8.4-2 9.7v-.4c1.1-1.2 1.7-4 1.6-9.3v-2.5q.4-12-2.6-24.3-2-8.2-8.2-25l-1.2-2.9q-2.2-5.9-2.2-10.3.1-3.1-.3-10.2l-.4-8zm0 97.5q1.1.1 2.2-3.2 1-3.4 2-12.7 1.2-11.8.5-19.5h.3q.8 7.6-.5 19.5a91 91 0 0 1-2 12.9q-1.1 3.6-2.5 3.5zm6.5-22q.8 9.5-1.5 17.5l-.3-.2q2.3-7.8 1.4-17.2z"/><path d="M764.5 630.2q1.5 11.4 0 20h-.3q1.5-8.6 0-20zm-2.4 20 .1 2.5c.4 6.3.1 9.1-.8 9.8l-.1-.4c.8-.7 1-3.3.6-9.3l-.2-2.5zm8.8-37.8q2 4.5 5.8 19a76 76 0 0 0 5.7 17.6l-.3.4a75 75 0 0 1-5.7-17.8q-3.7-14.5-5.8-19zm3.5 33.5v-.3q-.3-5.9-1.2-7.2l.2-.3q1 1.5 1.3 7.5v.3zm-47.2-112.3v-.8q0-3 1.2-5.5l.3.3q-1.1 2.2-1.2 5.2v.9zm-2.2 1v-1l.4-5.1a6 6 0 0 1 1.1-2.5l.2.4q-.8 1-1 2.2l-.3 5v1zm-1.8.2v-2.6q0-4.1 1-6.3l.3.2q-1 2.2-1 6v2.7zm16.6-133-4.7 4.9-.2-.4 4.7-4.8zm1.2 1.6-3.8 3.6-1.2 1.4-.2-.4 1.2-1.3a27 27 0 0 1 4-3.7zm.1 2.5-2.1 2.2-2.1 2.2-.2-.4 2-2.2 2.3-2.2zm-7.2-.5-1.7 2.2-.2-.4.7-1 1-1.1zm41 269.8q-.6-1 .1-3.6l.3.1q-.6 2.4-.2 3.2zm2-.8q-.4-.7.4-4l.3.2q-.7 2.9-.4 3.4zm2.1-1q-.3-.3-.4-1.2 0-1 .4-2l.3.1-.3 1.9q0 .6.2.7zm1.7-1.3q-.4 0-.4-.8l.3-2 .4.2q-.4 1.2-.4 1.8 0 .3.2.4zM757.5 412c.9 1.5 1.6 1.3 1.9 2.3.1 1 .2 1 .4 1.3q0 .4-.7.1h-1.4c-.4-.1-.9-.6-.6-.8q.4-.1.2-.5l.3-.9q.2.1 0-.5c-.2-.4-.4-1.3-.1-1m.5-1.4c1 .1 2.5.8 3.5 2 .7 1.1.2.9-.2 1q-.7 0-1.4-1a5 5 0 0 0-2-1.5c-.3-.1-.7-.6 0-.5"/><path fill="#1a1a1a" d="M8 195.3c170.8-85.3 341-54.5 513.3-28C676.5 191 833.4 211.8 992 132.7v672c-170.8 85.3-341 54.5-513.3 28C323.5 809 166.6 788.1 8 867.2zm31.3 19.3v604.5c306.5-128.2 611.1 96 921.5-33.7V180.9C654.2 309 349.5 84.9 39.3 214.6" opacity=".2"/></svg>