<svg xmlns="http://www.w3.org/2000/svg" viewBox="0 0 1000 1000"><path fill="#cf142b" d="M8 195.3c170.8-85.3 341-54.5 513.3-28C676.5 191 833.4 211.8 992 132.7v672c-170.8 85.3-341 54.5-513.3 28C323.5 809 166.6 788.1 8 867.2z"/><path fill="#fff" d="M8 195.3C170.7 114 332.5 138 500 164v672c-161.8-25-325.3-51.9-492 31.3z"/><path fill="#e60d2e" d="M32.3 276.6v51A518 518 0 0 1 82 308.7c.3 8.7 8 14.1 16.6 12v51a539 539 0 0 1 49.7-11.5v-50.9c8.4-1.8 16.2-11 16.5-19.7q24.5-3.6 49.7-5.2v-51q-24.5 1.6-49.7 5.3c-.3-8.7-8-15.4-16.6-14.2v-51Q123.8 178 98.6 185v51A27 27 0 0 0 82 258a515 515 0 0 0-49.7 18.6"/><path fill="#96877d" d="M35.6 278.6v44.1a514 514 0 0 1 49.7-18.3c.3 8.7 8 14.2 16.6 12.1v51q21.2-5.9 43-10v-50.8a23 23 0 0 0 16.6-19.8q24.5-3.8 49.7-5.6v-44.1q-24.5 1.8-49.7 5.5c-.3-8.7-8-15.4-16.6-14.1v-51a539 539 0 0 0-43 10v50.9a26 26 0 0 0-16.6 21.8 516 516 0 0 0-49.7 18.3"/><path fill="#ccc" d="M37.3 279.6v40.7Q61.8 310 87 302.2c.3 8.6 8 14.2 16.5 12.2v50.9a537 537 0 0 1 39.8-9.1v-51a23 23 0 0 0 16.5-19.8q24.5-3.8 49.7-5.7V239a607 607 0 0 0-49.6 5.7c-.4-8.7-8-15.4-16.6-14.1v-50.9a538 538 0 0 0-39.8 9.1v51A26 26 0 0 0 87 261.4a515 515 0 0 0-49.7 18"/><path fill="#96877d" d="M100.4 240c2.8 2.5 2.1 7.6-1.7 13-4.3 5.2-9 7.3-12.3 5.5-2.8-2.5-2.2-7.6 1.7-13.2 4.3-5.2 9-7.3 12.3-5.3"/><path fill="#d0d0d0" d="m85.8 253.3 1.2-1.6 4.6 1-2.3-4.1 1.2-1.6 4.6 8.3zm7-9.4 1.2-1.5 7 5.2-1.2 1.5z"/><path fill="#96877d" d="M160.4 241.4c-3.2 3.4-8 3.5-12.3.3-3.8-3.6-4.5-8.4-1.7-12.3 3.3-3.5 8-3.6 12.3-.3 3.9 3.7 4.5 8.5 1.7 12.3"/><path fill="#d0d0d0" d="m151.7 227.9 1.1 1-2.3 5.2 4.7-3.2 1.1 1-9.3 6.4zm7 6 1.2 1-7 8.4-1.2-1z"/><path fill="#96877d" d="M146.4 305.3c-2.8-2.8-2.1-7.9 1.7-13 4.3-4.7 9-6.2 12.3-3.8 2.8 3 2.2 8-1.7 12.9-4.2 4.6-9 6.2-12.3 3.9"/><path fill="#d0d0d0" d="m161 293.8-1.1 1.4-4.7-1.6 2.3 4.4-1.1 1.4-4.7-8.8zm-7 8.4-1.2 1.4-7-6 1.2-1.4z"/><path fill="#96877d" d="M86.4 305.6c3.2-4 8-4.7 12.3-1.9 3.8 3.3 4.5 8 1.7 12.1a9 9 0 0 1-12.3 1.8c-3.8-3.1-4.5-7.8-1.7-12"/><path fill="#d0d0d0" d="m95.2 318-1.2-1 2.3-5.4-4.7 3.8-1.1-.9 9.3-7.5zm-7-5.2L87 312l7-9.3 1.2.8z"/><path fill="#96877d" d="M158.5 265.3c-.1 10-3.5 18.7-10.3 27.1-7 8.3-15 13.3-24.8 15.6s-17.8.9-24.8-4.2c-6.9-5.3-10.2-12.3-10.3-22.4A47 47 0 0 1 98.6 253q10.3-13.4 24.8-16.8c9.9-2.2 17.8-.3 24.8 5.4 6.9 6 10.2 13.6 10.3 23.7m-.6 0a29 29 0 0 0-10-23.2 27 27 0 0 0-24.5-5.4A43 43 0 0 0 99 253.3c-6.7 9-10 18-10.1 28 .1 9.9 3.3 16.8 10.1 22 7 5 14.7 6.2 24.4 4.1a45 45 0 0 0 24.4-15.3c6.7-8.3 10-16.8 10.1-26.7"/><path fill="#96877d" d="M150.2 266.7a33 33 0 0 1-7.8 20.8 35 35 0 0 1-19 12c-7.6 1.7-13.5.6-19-3.3-5.2-4.1-7.7-9.5-7.8-17.2q0-11.4 7.9-21.6a34 34 0 0 1 19-12.7 21 21 0 0 1 18.8 4 23 23 0 0 1 7.9 18m-.6 0a22 22 0 0 0-7.6-17.5 21 21 0 0 0-18.6-4 33 33 0 0 0-18.5 12.5 35 35 0 0 0-7.7 21.1c.1 7.6 2.5 12.8 7.7 16.9a22 22 0 0 0 18.5 3.3 34 34 0 0 0 18.6-11.8 32 32 0 0 0 7.6-20.4"/><path d="M111.8 303.7q-.1 1.6-1.6 2.2-1.5.2-1.7-1.3.1-1.6 1.7-2.1 1.5-.2 1.6 1.2m26.5-6q-.1 1.6-1.6 2-1.5.2-1.7-1.3.1-1.5 1.7-2 1.5-.1 1.6 1.3m-16 3.5v1.8l-2.2.5c-2.2.7-2.2 2 0 1.7l2.2-.5v1.8c.2 1.8 1.7 1.6 2-.3l.2-2 2.2-.5c2.2-.6 2.3-2 0-1.7l-2.2.5v-1.8c-.2-1.8-2-1.3-2.2.5M91 289.4l2.3-1.2-.2-1-.3-.5-.7.1v-.1l2-1v.1l-.5.3-.2.4v.5l.3 1 1.8-1 .6-.4.1-.2v-.7h.1l.6 2.3-.1.1v-.2l-.4-.4-.7.3-3.8 2-.5.3-.2.3v.7l-1.1-4 1.3-.8v.1l-.5.6-.2.5v.7zm-1.4-10.1a4 4 0 0 1 1-2.3q.9-1 2.2-1.4t2.2.3.8 2a4 4 0 0 1-1 2.3q-1 1.1-2.3 1.4-1.4.3-2.3-.4-.6-.6-.6-2m.3.1q0 .9.5 1.2.8.4 2.1.1 1.5-.4 2.3-1.2.6-.6.7-1.4 0-.9-.6-1.3t-2-.1a5 5 0 0 0-2.3 1.2q-.6.6-.7 1.5m8.6-13.7-.5 1.7-3.4 1.9v.4l-.1.1v.2l1.5.1h.7l.4-.6v-.2h.2l-.9 2.7h-.1v-.8q0-.2-.6-.2l-3.6-.3h-.7l-.3.5-.1.3h-.2l.8-2.3.6-1.5.8-.8q.4-.3 1-.2.4 0 .7.4t.1 1.3l2-1.2q.8-.3 1-.7zm-4.4 4.2.1-.1v-.1q.3-1 .2-1.4a1 1 0 0 0-.8-.6q-.4 0-1 .3l-.6 1-.2.7zm12.7-23.7 1.2 1.2-.1.1q-.6-.3-1.1-.2-.7 0-1.5.7-.9.8-1 2 .2.9.6 1.6.5.6 1.2.9.6.2 1.3 0a3 3 0 0 0 1.5-1.1q.3-.3.4-.7l-1-1.2q0-.3-.3-.4h-.3l-.5.4v-.1l1.9-1.8v.1l-.3.6.3.6 1 1.3-.6 1-.9 1q-1.4 1.3-2.8 1.2-1 0-1.6-.8-.4-.6-.5-1.4 0-1 .3-2a5 5 0 0 1 2.4-2.2l.3-.2.1-.2-.1-.3zm9.7-1.8-2.2 1.2-.1 1v.6l.1.2.6-.2v.2l-1.8 1v-.2l.4-.4.3-1 .7-5.7h.2l3.3 3.5q.3.4.6.5l.6-.1v.1l-2.2 1.2v-.1l.4-.4v-.3l-.3-.5zm-.2-.2-1.6-1.7-.4 2.7zm10.5-2.5h.2l-.6 1.8-4.6.8v-.1h.2q.5-.1.6-.4l.1-.7.2-4-.1-.7h-.8v-.2l2.7-.5v.2q-.5 0-.6.2l-.3.3-.1.7-.1 3.8v.5l.2.1h.6l.5-.1 1-.3.5-.5q.3-.3.4-.9m8 .5h.1l-1 1.7-4.4-.6v-.2h.3l.6-.1.3-.7 1.2-4 .1-.7q0-.3-.4-.3h-.2v-.2l2.6.3v.2h-.7l-.4.2-.2.7-1.2 3.9-.1.5.1.2.7.1h1.3l.6-.2zm6.4 2.2-1.9-1-.9.7-.4.4v.3l.3.4v.1l-1.6-.8.1-.1h.5q.3 0 1-.6l4.5-3.7-1 5.6-.2 1q0 .3.4.4l-.1.2-2-1 .2-.2h.4l.3-.1.2-.6zm0-.4.6-2.7-2.2 1.8zm7.1 0 1 1.2-1.4 6 2.7-2.6.5-.6-.1-.5-.2-.2.2-.1 1.2 1.5-.1.1-.2-.1q-.2-.3-.5-.2l-.5.4-4 3.7h-.2l1.6-6.5-3 2.8-.5.6q0 .3.2.5l.1.1-.1.2-1.3-1.5.2-.1.1.1q.3.3.5.2l.6-.4 3.3-3.1v-1l-.2-.3zm7.5 13-1.3.7v-.2l.4-.4.3-.5-.1-.6-.3-.7-4.3 2.3-.6.4v.8l-1-2.3h.2l.1.1q.1.4.4.4l.6-.2 4.3-2.3-.2-.7-.3-.5-.4-.2-.7.2v-.2l1.3-.6zm-4.7 11.6v-1.7l2.6-2.6v-.7l-1.7.4-.7.3q-.2.2-.2.5v.3h-.1l-.2-2.6h.2v.2q0 .4.3.5h.6l3.9-.9q.5 0 .7-.3l.1-.5v-.3h.2v3.7q0 .5-.4.8-.4.5-1 .6t-.9-.2-.6-1l-1.7 1.6-.7 1-.2.8zm2.9-5v.2q0 .9.4 1.2.4.4 1 .3t.9-.6.3-1l-.2-.7zm1.6 12.2-.5 2.2h-.2v-.5q0-.3-.2-.4t-.4-.6l-1.9-1.7h-2.1l-.3.5v.2h-.2l.6-2.6h.2v.8l.6.1 1.4.2 2.8-1.5.6-.3.4-.5.1-.2h.2l-.7 2.6h-.1v-.5q0-.2-.2-.2l-.7.2-2.1 1.1 1.4 1.4.6.3h.2l.2-.2.1-.4z"/><path fill="#96877d" d="m142.3 273.3 1.6-.3-.2.6 1.3-.2-.6.6q.7.1.8.4s-.8.2-1.2.1l.2.8s-1.3 0-1.9-.9z"/><path d="M142.3 273.2q.7-.3 1.6-.3v.6l1-.2h.4l-.3.2-.3.4q.3 0 .6.4h.1l-.2.1-1 .3.1.6v.2h-.1q-1.5-.1-2-1l.2-.1q.6.7 1.7.8l-.2-.6-.2-.3.4.1h.9l-.6-.3h-.3l.2-.2.3-.3h-1.1l.1-.1.2-.4q-.8 0-1.5.3z"/><path fill="#96877d" d="M140 273c-.5.7-2.5-.1-2.7-.2 0 0 1 1.4 2.7 1.4z"/><path d="M140.1 273q0 .4-.6.4h-1l-.8-.3q1 1 2.3 1v.2q-1.7 0-2.8-1.4l.2-.2 1.2.4.9.1.4-.2z"/><path fill="#96877d" d="M109.9 295.7q13.8-3.6 28.3-6.5l2.1-2.2-3.6-1.3-5.6-.8-2.2-.7-4.2 1.1-3.5 2.7-4.7 1.7-1.1 1.6-3.6 1.2-5.5 1.3 9.2-.9-7.6 1.5z"/><path d="m110 295.8-2.3-1.4 5.8-1.2-7.1.7v-.2l5.5-1.4 3.5-1.1 1.1-1.6 4.8-1.7 3.5-2.7 4.2-1.2 2.3.8 5.6.8 3.8 1.3-2.4 2.4q-13.8 2.8-28.3 6.5m0-.3q13.9-3.6 28.2-6.4l2-2-3.4-1.3-5.6-.8-2.3-.7-4 1.1-3.5 2.7-4.8 1.7-1 1.6-3.7 1.2-3.9.9 7.7-.7v.2l-7.4 1.5z"/><path fill="#96877d" d="M125.1 283.7c-3.6-.7-4.5 3.5-6 5.4 2-.4 3.5-2.3 5.3-3.8 1.6 3.2 3.3.7 3.4.5.2.2 2 2.7 5.2.8.8.4 1.6-.2 1.6-.3.1 0 1 0 1.3-.5.6 0 1.2-.7 1.2-.8 0 0 1.1-.2 1.5-1 1.8-.4 4-4.3 4.2-4.5l.7-1.6 1-.4s.1-.7-.4-.6q-.1-.7-1-.4 0-.4-.2-.4c-1 .6-1 2.9-1 3l-2.5 2.2c-.2-1.5-2.2-3-2-4 .7-.9 2 .8 3.5.3 1.4-.9 2-2.6 2.2-4.1l-1.4-2.4-.9.1-.8-1.8c0 .1-1.5 1.4-1.6 2.4.2 1 1.6 1.4 1.7 1.5 0 0-1 .7-1.9.7 0 1 1 .6 1.6.5.3.6.9.9.9.9s.4.9-.7 1.1c-1.2-.1-2.2-2-3.9-.7-1.4 1.8.6 3.3.7 3.4 0 0-1.3 1-2.3 3.2-3.6-2-5.4-.5-9.4 1.3"/><path d="m125.1 283.5 2-.9c3.2-1.4 5.3-1.5 7.4-.3a8 8 0 0 1 2.1-3l-.8-1.1q-.9-1.4.2-2.5 1.1-1 2.8.2l1.2.5q.6 0 .7-.5l-.1-.4q-.6-.3-.9-.9h-.1q-.7.2-1 .1-.5 0-.5-.7v-.1h.2q.7 0 1.6-.6-1.5-.5-1.6-1.4 0-1.1 1.7-2.5v-.1l.9 1.8.9-.1 1.3 2.4q0 1.7-.6 2.8l.3-.2h.1q.4 0 .4.3h.5q.3.1.3.5.4 0 .5.3v.4l-1 .5-.7 1.5c-1.7 3.1-3 4.4-4.3 4.7q-.2.6-1.4 1-.7.7-1.2.7-.4.5-1.3.5-1 .8-1.8.3-2.9 2.1-5-.8-.6.7-1.3 1-1.4.7-2.3-1.5l-1.4 1.3q-2.5 2.4-4 2.5h-.2l.2-.2 1.3-2c1.7-2.9 3-3.9 5-3.5m-.1.3c-1.8-.4-3 .5-4.7 3.3l-1.1 1.8q1.3-.2 3.5-2.3l1.5-1.4.1-.1v.1q1 2 2.2 1.5l1.1-1 .1-.1h.1q2.2 3 5 1v-.1h.1q.8.4 1.6-.3 1 0 1.2-.5h.2q.4 0 1-.8h.1q1.2-.2 1.4-.8v-.1q1.8-.1 4.2-4.6l.7-1.6 1-.4v-.2q0-.2-.3-.2h-.2v-.1q0-.3-.2-.3h-.7v-.1l-.1-.3q-1 .4-1 3l-2.4 2.2-.2.1v-.1q0-.7-1.1-2.1t-.9-2q.3-.5.7-.5l.9.4q1.4.6 2 .3 1.9-1.1 2-4-.3-.9-1.3-2.2h-.9l-.7-1.7q-1.5 1.4-1.5 2.2t1.7 1.4h.2l-.2.2q-1 .7-1.9.7 0 .4.4.4h.9l.2-.1h.1q.2.6.9.9v.6q0 .6-.8.7-.4 0-1.3-.5-1.7-1.2-2.5-.2-1 .8-.2 2.1.3.6.9 1.1h.1l-.1.2q-1.4 1-2.3 3.1v.2h-.1q-2.8-1.9-7.4.2zm17-7-1.2.9q-.7.3-2.1-.3l-.8-.3q-.4 0-.5.2-.2.4.9 1.8 1 1.3 1.1 2l2.2-2q0-1.5.4-2.4"/><path fill="#96877d" d="M120 279.7c1.3 1.3.6 3.5 1 4 .7.2 1.4-.5 1.5-.6 1.6 0 4.2-1.4 4.2-1.4 1.2.3.8-.4 1.5-.6.9 1.4 2.6.8 2.8.7 0 0-2-1.5-3.2-1.9a14 14 0 0 1-4.1 1.5c-.5 0-.3-.6-.5-1 .9-1.5.3-3.4-.3-4.4-2.5-.6-4.7 1.9-2.9 3.7"/><path d="M120 279.8q-.8-.6-.8-1.4t.6-1.5q1.4-1.8 3.1-1 1.8 2.6.4 4.4l.1.5q0 .6.3.5a7 7 0 0 0 4-1.5h.1q1.4.3 3.3 2h.1l-.2.2q-2.1.6-2.9-.8l-.3.3q-.3.6-1 .3-2.8 1.4-4.3 1.4-.8.9-1.5.6-.3-.2-.3-1.3 0-2-.7-2.7m.1-.2q.9.8.9 3l.1 1q.6.2 1.3-.6h.1q1.5 0 4.2-1.4h.1q.6.1.8-.2t.6-.4h.1q.6 1.4 2.5.8a10 10 0 0 0-3-1.8 7 7 0 0 1-4.1 1.5q-.4 0-.5-.6v-.5h-.1v-.1q1.3-1.6-.3-4.2-1.6-.7-2.9.9-.5.7-.5 1.4 0 .8.7 1.2"/><path fill="#96877d" d="M110.3 278c-2 .6-4.8-.9-6.5.3-1.3 1.8-.8 4 .2 5.2.8 1.2-1.2 2.2-2 3.2-.5 1 .1 1.6.2 1.6l.6.3v1l.3 1.1q.1.2.4-.2c.3.4 0 1.2.8 1.2-.2-.6.2-2.2.2-2.3s1.2-.3 1.7-1c.2-.7-.3-1.6-.3-1.7l.4-.1c-.5-.3-.6-1-.6-1.1 0 0 1.6-1 1.8-2.5-.3-1.5-2.7-2-2-3.2 1.5-.9 3.2 1 5.2-.6 1.8-1.7.6-.2.6-.2s.9-1.9-1-1"/><path d="M110.5 277.7q.5-.2.8-.1.3 0 .3.5v.2h.1q.1 0 0 .2l-.3.6h-.2l.1-.3-.5.5q-1 1-3.2.5-1.5-.3-2 0-.3.4 0 .7 0 .3.7.8 1.3 1 1.3 1.7 0 1.4-1.8 2.5.2.8.5 1l.3.1-.6.2q.6 1 .3 1.7-.4.7-1.7 1-.4 1.6-.2 2l.1.3h-.2q-.6 0-.7-.7v-.3l-.4.1h-.2l-.4-1.2.1-1-.6-.3q-.8-.7-.2-1.7l1-1 1-1q.5-.7 0-1-.8-1-1-2.6t.9-2.9q.8-.8 3.5-.4 2.2.4 3 0zm-.3.4q-.9.3-3 0-2.5-.5-3.3.3-1 1-.8 2.6.3 1.5 1 2.5.5.5 0 1.2-.2.4-1 1.1l-1 1q-.6.9.2 1.4l.7.3-.2 1 .4 1.2q.3 0 .2-.2v-.2l.2.1.2.6q0 .4.3.5l.3-2v-.2h.1q1.3-.2 1.6-.8.2-.7-.3-1.7l-.1-.2h.3q-.3-.4-.4-1v-.2q1.7-1 1.8-2.4 0-.6-1.2-1.5l-.9-.8q-.2-.5.2-1 .6-.5 2.2-.1 2 .5 3-.4l.7-.7v-.3q0-.3-.2-.4l-.8.2z"/><path fill="#96877d" d="M119.8 255.5c-2.5-.3-7.4.5-10.3 0a3 3 0 0 0-1.8 2c-1.3.4-2 2.3-2 2.9-2.4 0-3.2 3.3-2.6 4.3-2 .8-1.8 3-2 3.9q-.7 2.5 1.5 1.2.3.9-.7 1.3c3.7 2.5 5.3-3.3 8.5-4.7 3.7-2.2 5.2-4.3 5.2-4.3l1.5-.2z"/><path d="m120 255.4-2.7 6.5-1.5.2a16 16 0 0 1-5.3 4.3q-1.2.3-3.2 2.8-1.5 1.9-2.4 2.4-1.5.8-3-.5l.1-.2q.4-.2.5-.5v-.6q-.9.7-1.3.4-.5-.4 0-1.7v-.6q.4-2.7 1.8-3.4-.5-.6.3-2.5.9-2 2.4-1.9 0-.4.5-1.4.7-1.2 1.5-1.5.3-1.4 2-2 1.5.4 5.8.1 3.3-.3 4.4 0zm-4.7.2q-4.2.3-5.8 0-1.4.6-1.7 1.8v.1q-.8.3-1.5 1.4t-.4 1.4v.2h-.2q-1.5-.2-2.3 1.7t-.2 2.4h.2l-.3.2q-1.5.5-1.7 3.1l-.1.7q-.5 1.1 0 1.5.3.2 1.2-.4l.1-.1v.1q.3.5 0 1 0 .2-.5.4 1.4 1.2 2.6.4.8-.4 2.4-2.4 2-2.4 3.2-2.8 3.8-2 5.2-4.3l1.5-.2 2.6-6.2z"/><path fill="#96877d" d="M126.6 251a5 5 0 0 1-3.6 4.5q-3.3.5-3.7-2.8a5 5 0 0 1 3.7-4.6q3.2-.4 3.6 3"/><path d="M126.7 251q0 1.5-1.1 3a5 5 0 0 1-2.6 1.7q-3.7.8-3.8-3 .1-3.8 3.8-4.7 3.7-.7 3.7 3m-.2 0a3 3 0 0 0-1-2.3q-1.1-.7-2.5-.4-3.5.8-3.5 4.4-.1 3.5 3.5 2.7 1.4-.3 2.4-1.6t1-2.7"/><path fill="#96877d" d="M116.6 282.5c-2.5 0-5.6-1.2-6.3-4.3 2.6-8.8 12.3-7.3 13.7-13.7q-.3-6.3 2.8-12.4a8 8 0 0 1 2.4-2.2s.2.8-.1 1.5c1.8-.5 4.2-.2 5.9-.3.4.9.4 1.2.3 1.9q-.5.8-.8.6-.5 1-2.1 1c-1 1-2.7 1.5-2.7 1.5.2.3 3.4 3.2 3.2 4.9a6 6 0 0 1 2 1.8s2.6-2 3.6-3.5c1.5-.2 4 .8 5.3.8l3 2c0 .1-1.6 1.4-2.6.1-1 0-3-1.5-6-.4-.3 2.7-2.7 5-2.8 5s2.5-.7 4-.2l3.8 2.3 2 3c-.2.1-1.7.7-2.5-1.5-.8 1.8-.8-.8-3.4-2-.8.2-1.2.4-2 0-1.9 1-4.1 2.3-6.8 2.8-1.9 1-3.4 2.9-5.3 4.3-2 1.3-2.4 1-2.5 1l-1.6.4c-.2 1.1-.1 2.4-1 3 .5.7-.3 3-1.3 3.9.6 1.5 1.7 1.7 3.2 2.2 0 0 1.1-.7 2-.2.8.6 1.6 2.4 1.6 2.4s-1.6.5-2.2.4c-.5-.1-.5-.6-1.1-.3-4-2.4-5.7-1-6.2-1.4-.2-.8.7-3.1.5-4.4"/><path d="M116.5 282.6q-1.9 0-3.8-1-2.3-1.4-2.5-3.4c1-3.3 3.3-5.8 8-8.2q5.3-2.5 5.7-5.5-.2-6.8 2.8-12.4a7 7 0 0 1 2.5-2.3h.1v1.4q1-.2 3.4-.2h2.3q.6 1 .4 2 0 .4-.5.7h-.3a3 3 0 0 1-2.2 1.1q-.9.8-2.5 1.4 3.6 3.2 3.1 4.7.8.3 2 1.7 2.4-2 3.4-3.3v-.1q1-.2 3.3.4l2 .4h.1l3.1 2 .1.1v.1q-.6.5-1.1.6-1.2.5-1.7-.5l-1.4-.3q-2.6-.9-4.4-.1-.2 2.4-2.6 4.7 2.4-.6 3.7-.1l3.7 2.3 2 3.2q-1.8.7-2.6-1.3-.1.5-.4.5l-.6-.6q-1-1.6-2.3-2.1-1.2.4-2 0l-1.3.7q-3.4 1.8-5.5 2l-2.8 2.3q-1.5 1.5-2.4 2-2 1.4-2.6 1.1l-1.5.4v.8q-.3 1.6-.8 2 .2.5-.2 2-.6 1.5-1.2 2 .4 1.2 2.4 2l.6.1q1.3-.9 2-.2.8.6 1.7 2.5v.1q-1.8.6-2.3.4l-.5-.2q-.3-.2-.6-.1h-.1a7 7 0 0 0-5.2-1.3q-.9 0-1-.2t.2-1.9q.5-1.8.3-2.4m.1-.1a6 6 0 0 1-.3 2.5q-.3 1.5-.2 1.8 0 .2.8 0 2.8-.3 5.3 1.3l.8.2.4.2 2-.3q-.8-1.8-1.6-2.3-.7-.6-1.9.2l-.7-.2q-2.1-.7-2.6-2v-.1l.1-.1q.6-.5 1.2-2 .4-1.4.1-1.7l-.1-.1.2-.1q.5-.3.7-2l.1-.9 1.7-.5q.7.3 2.5-1l2.3-2q1.9-1.8 3-2.3 2-.3 5.4-2.1l1.5-.7q.6.3 1.9 0 1.4.4 2.5 2.1l.4.5.4-.5v-.4l.2.3q.5 2 2.1 1.6l-1.8-3-3.7-2.2q-1.4-.6-4 .3v-.2q2.6-2.4 2.8-5v-.1q2-.8 4.7.1 1 .4 1.3.3h.1q.5 1 1.5.5l.9-.5-3-1.9-2-.4a10 10 0 0 0-3.2-.4 15 15 0 0 1-3.5 3.5h-.1q-1.3-1.6-2-1.8h-.1v-.2q.6-1.3-3.2-4.7l-.2-.1h.2a7 7 0 0 0 2.7-1.5h.1q1.2 0 2-1l.1-.1h.4q.3-.2.3-.5a3 3 0 0 0-.3-1.8h-2.3q-2.4 0-3.5.3h-.2l.1-.2q.3-.6.1-1.3-1.2.7-2.2 2.2-3 5.6-2.7 12.3c-.5 2.2-2.2 3.8-6 5.7-4.6 2.4-6.9 4.7-7.8 8q.3 1.9 2.4 3.2 1.9 1 3.6 1h.3z"/><path fill="#96877d" d="M107.5 269.4c.3-.3 1.5-.1 1.6-.1l2.5 1 5.2 2 1.8 2.3-3.3-.3-4.6-2.8-2.4-1s-1-.8-.8-1.1"/><path d="M107.5 269.2q.4-.2 1.6 0l2.6 1 5.1 2 2 2.6-3.6-.3-4.5-3-2.5-1q-1-.7-.8-1.2zm0 .2q0 .3.8 1l2.5 1 4.5 2.8 3 .3-1.6-2-5.2-2.1-2.5-1z"/><path fill="#96877d" d="M138 271c-2 .5-6 6-6.2 6.3l3.3 3c0-.3.3-6 2.8-9.3"/><path d="M138 270.9h.2l-.2.2c-1.8 2.1-2.6 4.8-2.8 9.1v.3l-3.6-3.2c3.2-4.5 5-6.3 6.4-6.4m-.3.2q-1.7.4-5.8 6.1l3 2.8q.3-5.8 2.8-8.9"/><path fill="#96877d" d="M116.3 260.6c-1 1.7-1 3.9.2 4.8.2 1.8 1.3 4.1 2.4 4.4 1.2 0 5.5 0 7.3-.5-.1 3 1.7 4.6 3.9 5.8q0 .5.2.9c.3.2 1.2 0 1.4-.1.6.5 2.6.3 3 0-.2-.3-3.3-2-4.3-2.7-.6-1.2-1.8-3.7-2.2-6-2-1.6-4.6-1-4.8-1l.1-4.2.2-4.7-1.6-.5.5-.5c.4 0 1-.8 1.2-1.1q.6 0 .8-.2l.3-1.5c1-1.6 0-3.2-2-3-2 .6-2.3 2.6-2.3 3v1.2l-.8.8s-1-.3-2.3.5-2.6 1.8-2.8 2.7a4 4 0 0 0-1.6 1.9c-.6 0-1.1.6-2.3 2.7-1.8 1.7-2 5.4-2 5.6l-.6 1.3q0 .8.5.7.1.4.5.2.2.4.7.3c0 .1.7 0 .8-.3V270c.1 0 .7.2.9 0q.1-.2-.1-.6c-.2-.1-.6-.1-.8-.8 0-.6.3-1.6.3-1.7.1 0 2-2.2 2.4-3.7 1.6-.4 2.4-1.8 2.9-2.5"/><path d="M115.7 261.6q-1.2 1.4-2.2 1.6a9 9 0 0 1-2.4 3.7 3 3 0 0 0-.3 1.6q.2.4.6.6l.2.1q.3.5 0 .9h-.6l-.2-.1v1.1q0 .3-.5.4h-.5q-.6.1-.7-.2h-.3l-.2-.3q-.2 0-.3-.2l-.2-.5q0-.5.6-1.4c.1-3 .7-4.6 2-5.7q1.5-2.5 2.3-2.7.4-1.4 1.6-1.9.3-1 2.9-2.7 1.1-.7 2.3-.6l.7-.7v-1.1q-.1-.5.4-1.5.6-1.4 2-1.7 1.4-.2 2.2 1t-.1 2.2l-.2 1v.5l-.5.3h-.4q-.5 1.3-1.3 1.2l-.3.2 1.5.5-.1 4.8-.1 4q2.9-.5 4.7 1.2.4 2.8 2.2 5.9l1.7 1q2.6 1.5 2.5 1.9t-1.5.3q-1.1 0-1.5-.3l-.7.2q-.6 0-.8-.2l-.2-.8c-2.9-1.7-4-3.3-4-5.8q-2.2.8-7.1.5-.8 0-1.7-1.6-.7-1.5-.8-2.8-1-.5-1-2.2 0-.9.3-1.7m.6-1a5 5 0 0 0-.7 2.7q0 1.5 1 2 0 1.4.8 2.8.8 1.5 1.5 1.6 5 .3 7.3-.6h.1v.1c-.1 2.5 1 4.1 3.9 5.8q0 .6.2.9h1.2v-.3l.2.2q.2.3 1.5.3 1.1 0 1.2-.2l-2.4-1.6-1.7-1q-1.9-3.1-2.3-6-1.8-1.5-4.6-1h-.2l.1-4.2.2-4.7-1.8-.5.3-.2.4-.4h.1q.7 0 1.1-1.1v-.1h.6l.2-.2v-.4l.3-1q.9-1 .1-2.1-.7-1-2-.8-1.2.2-1.8 1.5-.4.9-.4 1.3v1.3l-.8.8h-.1q-1-.1-2.3.6-2.5 1.8-2.6 2.6h-.1q-1.3.6-1.6 1.9v.1h-.1q-.8 0-2.2 2.6-1.9 1.4-2 5.6-.5.9-.5 1.3v.5h.4v.1q0 .2.2.2h.3q0 .5.6.2v.1h.4l.3-.2v-1.3h.5l.4.1-.1-.5h-.2a1 1 0 0 1-.6-.8q-.1-.7.4-1.8 2-2.3 2.3-3.7v-.1h.1q1.4-.2 2.6-2.2l.2-.3h.3z"/><path fill="#96877d" d="M112.6 255.4c.6-1.3 2.1-1.6 2.2-1.6 0-.1.6-1.6 3-1.4 1-.8 3-.5 3.2-.5 0 0 .8-1.2 2-1.5 2.1 0 2.4 1.6 2.3 2-1.2.5-3.1 0-4.7.5-.9.8-2.2 1.7-2.8 2.5-1.5.4-2.9-.5-5.2 0"/><path d="M112.5 255.4q.5-1.4 2.3-1.7 0-.5.6-.8.8-.9 2.4-.6 1-.8 3.1-.5 1-1.4 2-1.5 1.5 0 2.2.8.5.8.3 1.4-.7.4-2.2.3-1.8 0-2.5.2l-.8.7q-1.7 1.2-2 1.8h-.1a5 5 0 0 1-2.1 0 8 8 0 0 0-3 0l-.3.1zm.3-.1q1.2-.3 3 0a5 5 0 0 0 2 0q.3-.6 2-1.8l.8-.6q.8-.4 2.7-.4l2-.1q0-.4-.4-1-.6-1-2-.9-1 .2-1.8 1.5h-.2q-2.2-.3-3 .5h-.1q-1.5-.2-2.3.5l-.6.8v.1q-1.6.3-2.1 1.4"/><path fill="#96877d" d="M117 256.4c.6-.6 1.7-1.3 2.7-.9l2.3 1.4 1.6.3.7.3-.4 7.6c-1.6-1.1-2.8-1.2-4-2.7-.4-.7-.2-2.5-1-3.6q-1.9-1.3-2-2.5"/><path d="M117 256.3q1.7-1.5 2.7-.9 1 .8 2.4 1.4l1.6.3.8.3-.5 8-.2-.2-1.7-1a6 6 0 0 1-2.3-1.7l-.3-1.5q-.2-1.6-.8-2.2l-.7-.7q-1.3-1.1-1.1-1.8zm0 .1q0 .5 1.1 1.6.5.3.8.7.6.5.8 2.3 0 1 .3 1.3.7.9 2.2 1.7l1.6.9.4-7.3-.7-.3-1.6-.3-2.3-1.4q-1-.5-2.5.8"/><path fill="#96877d" d="M120.8 257.6s.8-.3 1.1-.2q.4 0 .7.3.5 0 .5.4c.3 0 .4.5.4.5l-.3.5-.3-.6q-.5 0-.8-.3-.5.1-.6-.4-.6 0-.7-.2"/><path d="M120.8 257.5q.9-.3 1.2-.2.5 0 .6.3.5 0 .6.4.3 0 .4.6l-.3.7-.1-.1-.4-.5h-.1q-.5-.1-.6-.4-.6 0-.7-.3-.3 0-.7-.3zm.2.1q.2.3.5.1.2.4.6.4h.1q0 .2.5.3h.2v.1l.3.4.2-.3q0-.4-.3-.4h-.1v-.1q0-.3-.5-.3-.1-.3-.6-.3z"/><path fill="#96877d" d="M128 251.1c-.6-.4-1.3.1-1.4.2l-2.2 4.4-1 1-.1 3.2.8 2.7-.3 2.3s1-1.3 1.3-2l-.4-2.4s-.6-1 .1-3.3c1-2.4 2.6-4.7 3.1-6.1"/><path d="M128 251q-.1.7-1.3 2.5-1.4 2.3-1.8 3.6-.7 2.3-.1 3.3.5 1.8.4 2.4-.1.7-1.3 2l-.2.3.3-2.6-.8-2.7v-3.2l1-1 2.3-4.5q1-.7 1.5-.2m-1.3.3-2.2 4.5-1 1v3l.7 2.8-.2 2q.9-1.2 1-1.7t-.4-2.3q-.7-1 .1-3.5.5-1.2 1.9-3.6l1.2-2.3q-.4-.3-1.1.1"/><path fill="#96877d" d="M133.5 253.4a31 31 0 0 1-9.3 9c-1.6.3-1-3.2-1-3.6l-.4.2c0 .4-.8 3.9 1.2 3.9a29 29 0 0 0 10.1-9.6z"/><path d="m133.4 253.4.3-.2v.1l.6-.1v.2q-4.5 7-10.2 9.6-1.5.2-1.6-1.8l.2-2.2.6-.3v2.1q0 .9.2 1.3t.7.2q5.6-3.2 9.2-8.9m-9.2 9.1q-.6.3-.9-.3-.3-.4-.3-1.3V259v.1q-.3 1-.2 2 0 1.9 1.2 1.7 5.6-2.6 10-9.3h-.5q-3.6 5.9-9.3 9"/><path fill="#96877d" d="M135.8 282.4s-.5.5-1.2.3c-.5-.8-1.3-.7-1.4-.7 0-.1-.5-1.5-1.6-1-.2-.8-1.1-.2-1.2-.2s0-1.2-1.3-.9c.2-1.7-1.6-1.1-1.7-1.1 0-.1 0-1.6-3.3-.7 7.2-4.2 12 2 12.3 2.3z"/><path d="M135.9 282.5q-.6.5-1.4.3-.3-.8-1.3-.7l-.5-.8q-.5-.5-1-.2l-.2.1v-.1q0-.4-.6-.4l-.5.2-.1.1v-.1l-.2-.6q-.3-.5-1-.3h-.2q.3-1-.6-1.2l-1 .1q0-.4-.5-.7-.7-.6-2.7 0v-.2c3-2 5.6-2.1 8.8-.6q2.2 1.1 3.6 3h-.2c-1-1-2-2-3.6-2.8a8 8 0 0 0-7.9.2q1.5-.3 2.2.2.4.3.5.7h1q.9 0 .7 1 .9-.1 1.1.4l.2.6.4-.2q.7-.2.8.4.7-.4 1.2.3l.4.7q1-.1 1.4.7.6 0 1-.3z"/><path fill="#96877d" d="M139 282.4c.1.1 1.6 1.4 2.5 1.4.8-.3.9-1.8.9-2 0 .1.2.7.6.5 0 .6.5.6.5.6 0 .3-1.2 3.3-5.4 1.2z"/><path d="M139.2 282.3q1.4 1.4 2.3 1.4.7-.2.8-1.8l.2-.1.2.3q0 .2.3.1l.2-.1v.2q-.1.4.4.5h.1v.1q-.4 1-1.3 1.6-1.8 1.2-4.4-.3l.1-.2q2.6 1.4 4.2.3.7-.6 1.1-1.3-.4 0-.5-.5l-.4-.2q-.3 1.5-1 1.6-1 .1-2.5-1.4z"/><path fill="#96877d" d="m126.7 285.7-.6 2.5s-.6.8-.5 1c.3 0 1.3-.6 1.4-.6s1.6-.6 2.3-1.3c.4.8 1 .7 1.1.7v-.5q.7-.1.7-.3s.2-.6-.3-.8c.1-.6.3-1-.5-.8-.8 1-2.1 1.9-2.6 1.8-.2-.3 1.3-1.4 1-2.5z"/><path d="m126.8 285.7-.6 2.5-.5.8 1.2-.5q1.8-.6 2.3-1.2l.1-.2v.2q.4.6 1 .6v-.4l-.1-.2h.2l.6-.1q.1-.6-.2-.7v-.8h-.5q-1.7 2.3-2.7 1.8v-.4l.3-.4q1-1.2.7-1.7l.2-.2q.3.7-.7 2l-.3.4q.8.5 2.4-1.6.6-.3.8 0v.7q.5.2.2 1l-.7.2v.6q-.9 0-1.3-.6-.6.6-2.2 1.2-1.2.6-1.4.5-.3 0 0-.3l.1-.3.3-.4.6-2.5z"/><path fill="#1a1a1a" d="M8 195.3c170.8-85.3 341-54.5 513.3-28C676.5 191 833.4 211.8 992 132.7v672c-170.8 85.3-341 54.5-513.3 28C323.5 809 166.6 788.1 8 867.2zm31.3 19.3v604.5c306.5-128.2 611.1 96 921.5-33.7V180.9C654.2 309 349.5 84.9 39.3 214.6" opacity=".2"/></svg>