<svg xmlns="http://www.w3.org/2000/svg" viewBox="0 0 1000 1000"><path fill="#cf142b" d="M8 195c171-85 341-54 513-28 155 24 312 45 471-34v672c-171 85-341 54-513 28-155-24-312-45-471 34z"/><path fill="#fff" d="M8 195c163-81 324-57 492-31v672c-162-25-325-52-492 31z"/><path fill="#e60d2e" d="M32 277v51q25-12 50-19 2 14 17 12v51q24-7 49-12v-51c9-1 17-11 17-19q24-4 50-6v-50q-25 1-50 5-2-15-17-14v-51q-24 4-49 11v51c-9 3-17 13-17 22q-24 7-50 19"/><path fill="#96877d" d="M36 279v44l49-19q3 15 17 13v50l43-9v-51q14-5 17-20 24-4 49-6v-44q-25 2-49 6-3-15-17-14v-51q-21 3-43 10v50c-9 3-16 14-17 22q-24 7-49 19"/><path fill="#ccc" d="M37 280v40l50-18q2 14 17 12v51l39-9v-51q15-5 17-20l50-5v-41l-50 6q-2-15-17-14v-51l-39 9v51c-9 2-17 13-17 21q-24 8-50 19"/><path fill="#96877d" d="M100 240q5 5-1 13-7 8-13 5-3-3 2-13 7-8 12-5"/><path fill="#d0d0d0" d="m86 253 1-1 5 1-3-4 1-2 5 8zm7-9 1-2 7 6-1 1z"/><path fill="#96877d" d="M160 241q-5 6-12 1-5-7-2-13 6-4 13 0 6 7 1 12"/><path fill="#d0d0d0" d="m152 228-3 5 5-3 1 1-9 6zm7 6-7 8-1-1z"/><path fill="#96877d" d="M146 305q-3-5 2-13 7-7 12-3t-1 12q-7 8-13 4"/><path fill="#d0d0d0" d="m161 294-1 1-5-1 3 4-2 1-4-8zm-7 8-1 2-7-6 1-2z"/><path fill="#96877d" d="M86 306q6-6 13-2 6 5 1 12-5 6-12 2-5-6-2-12"/><path fill="#d0d0d0" d="m95 318-1-1 2-5-4 3h-2l10-8zm-7-5-1-1 7-9 1 1z"/><path fill="#96877d" d="M158 265q0 15-10 27-10 13-25 16-13 3-24-4-11-8-11-23t11-28q10-13 24-17 15-3 25 6t10 23m0 0q0-14-10-23t-25-5q-13 3-24 16-10 13-10 28t10 22 24 4 25-15 10-27m-8 2q1 10-8 21-7 9-19 12-10 2-19-4-7-6-7-17 0-12 7-22 9-9 19-12 12-3 19 4 8 6 8 18m0 0q0-11-8-18-7-6-19-4-10 3-18 13-8 9-8 21 0 11 8 17 7 6 18 3 12-3 19-12 8-9 8-20"/><path d="m112 304-2 2-1-1 1-3zm26-6-1 2-2-2 2-2zm-16 3v2h-2q-3 3 0 2h2v2q2 2 2-1l1-2h2q3-2 0-2h-2v-1q-1-3-3 0m-31-12 2-1v-1h-1l2-1-1 1 1 1 2-1v-1l1 2h-1zh-1v1l-1-4 1-1v3m-1-10 1-2 2-1h2l1 2-1 2-2 2-3-1zm0 0v1l3 1 2-2v-2h-2l-2 1zm9-13-1 1-3 2v1h-1 3v-1l-1 3v-1h-5l1-2v-1l1-1h2v1l2-1 1-1zm-5 4v-2h-1l-1 1v1zm13-24 1 1h-1l-2 1-1 2 1 2h2l2-1-1-2h-1l2-2v2l1 1-1 2-3 1-2-1v-3zm10-2-3 1v2h1l-2 1h1v-1l1-6zh1l-2 1v-2m-1 0-1-2-1 3zm11-2-1 1-4 1h1v-6h-1 3-1v5h2zm8 0-1 2-4-1 1-1 1-4v-1h-1 3v1h-1l-2 4v1h3zm6 2-2-1-1 1v1l-1-1h1l5-4-1 6v1l-2-1h1zm0 0 1-3-2 2zm7 0 1 1-1 6 3-3v-1l1 2-1-1v1l-4 4v-1l1-6-3 3v1l-1-1h1l3-4zm8 13-1 1-1-1h1v-2l-4 2-1 1v1l-1-3v1h1l5-3h-1v-1h-1l1-1zm-5 11v-1l3-3h-3v1-3 1h1l4-1 1-1v4l-1 1h-1l-1-1-2 2zm3-5v1h2l1-1-1-1zm2 13-1 2v-1l-1-1-2-1h-2v-2h1v1h2l2-2h1l1-1-1 3v-1h-1l-2 2 1 1z"/><path fill="#96877d" d="M142 273h2v1l1-1-1 1h1l-1 1-2-1z"/><path d="M142 273h3v1l-1 1h-2v-1l2 1v-1h1-1 1-2l1-1z"/><path fill="#96877d" d="M140 273h-3l3 1z"/><path d="M140 273h-1l2 1-3-1h3"/><path fill="#96877d" d="m110 296 28-7 2-2-3-1-6-1-2-1-4 1-4 3-5 2-1 1-3 1-6 2 10-1-8 1z"/><path d="m110 296-2-2 5-1-7 1 6-2 3-1 1-1 5-2 4-3 4-1 2 1 6 1 4 1-3 2zm0 0 28-7 2-2-3-1-6-1-2-1-4 1-4 3-4 2-2 1-3 2-4 1 8-1-8 1z"/><path fill="#96877d" d="M125 284q-4 0-6 5 3 0 5-4 4 3 4 1s2 3 5 1l2-1h1l1-1 2-1 4-5v-1l2-1h-1l-1-1-1 3-3 2-2-4 4 1 2-5-1-2h-1l-1-2-2 3 2 1-2 1h2l1 1-1 2q-1-2-4-1l1 3-2 3q-5-2-10 2"/><path d="m125 284 2-1q4-3 7-1l3-3-1-1v-2h5v-1h-2l-1-1 2-1-2-1 2-3 1 2h1l1 2-1 3h2v1h1v1h-1l-1 2-4 4-2 1-1 1h-1l-2 1q-3 2-5-1l-1 1q-1 1-3-2l-1 2-4 2 1-2q3-4 5-3m0 0q-2-1-5 3l-1 2 4-2 1-2q1 2 3 2l1-1q3 3 5 1v-1 1l2-1h1l1-1 1-1h1l4-5v-1l1-1h-1v-1l-1 3-3 2v1-1l-1-2-1-2h4q2 0 2-4l-1-2h-1l-1-1-1 2 1 1-2 1 1 1 1-1 1 1v1l-1 1-1-1h-3v2l1 1-2 3v1h-1q-3-3-7 0zm17-7-1 1-2-1h-1v2l2 2 2-2z"/><path fill="#96877d" d="m120 280 1 4 1-1 5-1 1-1q2 2 3 1l-3-2-4 1-1-1v-4q-5 0-3 4"/><path d="m120 280-1-2 1-1q2-2 3-1v5h1l4-1 3 2-3-1v1h-1l-4 1-2 1v-1zm0 0 1 3v1l1-1h1l4-1 1-1 3 1-3-2-4 2-1-1v-5l-3 1-1 1z"/><path fill="#96877d" d="M110 278h-6q-2 3 0 6 0 2-2 3v1l1 1v2h1v1l1-3 1-1v-2l1-3-1-3 5-1q1-1 0 0 1-1-1-1"/><path d="M110 278h2l-1 1-3 1h-2v1l2 2-2 3 1 1h-1v2l-1 1-1 2h1-1v-1h-1v-2l-1-1v-1l1-1 1-1v-1l-1-3 1-3zm0 0h-6l-1 3 1 2v2l-1 1-1 1v1h1v3-1h1v2-3h1l1-1v-3l1-2-1-2h-1l1-1h2l3-1v-1z"/><path fill="#96877d" d="M120 255h-10l-2 2q-3 2-2 3-4 2-3 5-3 2-2 4-1 2 2 1l-1 1c4 3 5-3 8-5l6-4h1z"/><path d="m120 255-3 6h-1l-6 5-3 2-2 3-3-1v-1h-1v-2q0-3 2-3v-3l3-2v-1l2-2 2-2h10m-5 1h-5l-2 1v1l-2 1v2-1l-3 2v3l-2 3v2h2v1h-1l3 1 2-3 3-3 6-4h1l3-6z"/><path fill="#96877d" d="m127 251-4 5q-3 0-4-3l4-5q3 0 4 3"/><path d="m127 251-1 3-3 2q-4 0-4-3 0-4 4-5t4 3m-1 0-1-2-2-1q-3 1-4 5 1 3 4 2l2-1z"/><path fill="#96877d" d="M117 282q-5 0-7-4c3-9 13-7 14-13q0-7 3-13l2-2v1h6v3l-3 1-2 1q2 1 3 5l2 2 3-4 6 1 3 2q-1 2-3 0h-6q-1 5-3 5h4l4 2 2 3-2-2q0 2-4-2h-2l-7 3-5 4-2 2h-2l-1 3q1 2-1 4l3 2h2l2 2-3 1-1-1q-5-2-6-1z"/><path d="m117 283-4-1q-3-1-3-4 1-5 8-8 5-2 6-5 0-7 3-13l2-2v1h6v3l-3 1-2 1 3 5 2 2 3-4 4 1h2l3 2-1 1-2-1h-6l-2 5 4-1 3 3 2 3-2-1h-1q-1-2-3-2l-2-1-1 1-5 2-3 3-3 2-2 1h-2v1l-1 2v2l-1 2 2 2h3l2 2-3 1v-1h-1l-5-1h-1v-2zm0-1-1 3v2h1l5 1h1v1l2-1-1-2h-3l-2-2 1-2v-2l1-2v-1l2-1 2-1 3-2 2-2h1l5-2 1-1h2l3 2v1l1-1q0 3 2 2l-2-3-4-2h-4q3-2 3-5h6l2 1 1-1-3-2h-2l-3-1-4 4-2-2-3-5h-1 1l2-1 2-1h1v-3h-6v1-2l-2 2-3 12v1q0 3-6 5-6 4-8 8l3 3z"/><path fill="#96877d" d="M107 269h2l3 1 5 2 2 3-4-1-4-3-3-1z"/><path d="M108 269h1l3 1 5 2 2 3-4-1-4-2-3-1zm0 0v1l3 1 4 3 3 1-1-3-5-2-3-1z"/><path fill="#96877d" d="M138 271c-2 0-6 6-6 6l3 3s0-6 3-9"/><path d="M138 271q-3 3-3 9v1l-3-4zm0 0-6 6 3 3q0-6 3-9"/><path fill="#96877d" d="M116 261v4l3 5 7-1q1 5 4 6v1h5l-5-3-2-6-5-1 1-4v-5h-2l1-1 1-1h1v-2q1-2-2-3l-2 3v2h-1l-2 1-3 3-2 2-2 2-2 6-1 1 1 1h2v-1h1l-1-1v-2l2-4z"/><path d="m116 262-3 1-2 4v2h1v1h-1v1h-1q0 2 0 0h-2v-1l1-1q0-4 2-6l2-3 2-1 2-3 3-1v-2l1-1 2-2 2 1v4h-1l-1 1-1 1h2v9l4 1 3 6 1 1 3 2h-5v-1q-4-2-4-6l-7 1-2-2-1-2-1-3zm0-1v2l1 2v3l2 2 7-1q0 4 4 6v1h5l-3-2-2-1-2-6-5-1v-4l1-5h-2l1-1 1-1h1v-4h-2l-2 1v3l-1 1h-2l-3 3-2 2-2 2-2 6-1 1v1h3v-1h1l-1-1v-2l2-4z"/><path fill="#96877d" d="m113 255 2-1q-1-1 3-2h3l2-2 2 2-4 1-3 2z"/><path d="m113 255 2-1v-1l3-1h3l2-2 2 1v2h-4l-1 1-2 1v1h-6zm0 0h5l2-2h3l2-1v-1h-2l-2 1h-3v1h-3v1z"/><path fill="#96877d" d="M117 256h3l2 1h2v8l-4-3-1-3z"/><path d="m117 256 3-1 2 2h2v8l-2-1-2-2-1-1v-2l-1-1zm0 0 1 2 1 1 1 2v1l2 2 2 1v-8h-2l-2-1z"/><path fill="#96877d" d="m121 258 1 1 1 1h-1l-1-1z"/><path d="m121 257 1 1 1 1h-1l-1-1zm0 1h1v1-1z"/><path fill="#96877d" d="M128 251h-1l-3 5-1 1v3l1 3v2l1-2v-6z"/><path d="m128 251-1 3-2 3v6l-1 2v-2l-1-3v-3l1-1 3-5zm-1 0-3 5-1 1v3l1 3v2l1-2v-6l2-3z"/><path fill="#96877d" d="M133 253q0 3-9 9c-1 1-1-3-1-3s-1 4 1 4c6-3 10-9 10-10z"/><path d="M133 253q-4 7-10 10l-1-2v-2 2l1 1q6-3 9-9m-9 10v-3 2zq6-3 10-10v1z"/><path fill="#96877d" d="m136 282-1 1-2-1-1-1h-2l-1-1q0-2-2-1 1-1-3-1c7-4 12 2 12 2z"/><path d="m136 282-1 1h-1l-1-1v-1h-3v-1h-1l-1-1h-1v-1h-3q5-3 9-1l3 3-3-2q-4-3-8 0h2v1h1l1 1h1v1l1-1 1 1h1v1l2 1z"/><path fill="#96877d" d="m139 282 2 2 1-2h1l1 1c-1 0-2 3-6 1z"/><path d="m139 282 2 2 1-2h1l1 1-2 2-4-1h4l1-1v-1h-1l-1 2z"/><path fill="#96877d" d="m127 286-1 2v1h1l2-2 1 1v-1h1v-1h-1l-2 1 1-2z"/><path d="m127 286-1 2v1l1-1 2-1 1 1v-1h1v-1h-1l-2 2v-1l1-2-1 2 2-1h1v2h-2l-2 1h-1q-1 0 0 0v-1z"/></svg>