<svg xmlns="http://www.w3.org/2000/svg" viewBox="0 0 1000 1000"><defs><radialGradient id="a" cx="2375" cy="462" r="26" gradientTransform="matrix(.20677 .1356 -.08538 .23551 8 89.878)" gradientUnits="userSpaceOnUse"><stop offset="0" stop-color="#fff"/><stop offset="1" stop-color="#f15770"/></radialGradient><radialGradient id="b" cx="-1447" cy="1858" r="26" gradientTransform="matrix(-.02042 -.26775 .2057 .00495 8 95.475)" gradientUnits="userSpaceOnUse"><stop offset="0" stop-color="#fff"/><stop offset="1" stop-color="#f15770"/></radialGradient><radialGradient id="c" cx="5213" cy="-986" r="26" gradientTransform="matrix(.07454 .11679 -.1723 .15324 8 94.23)" gradientUnits="userSpaceOnUse"><stop offset="0" stop-color="#fff"/><stop offset="1" stop-color="#f15770"/></radialGradient></defs><path fill="#ce1126" d="M8 195c171-85 341-54 513-28 155 24 312 45 471-34v672c-171 85-341 54-513 28-155-24-312-45-471 34z"/><path fill="#fff" d="M8 195c217-108 432-28 656-10v672C449 840 230 757 8 867z"/><path fill="#006847" d="M8 195c108-54 216-62 328-52v672c-108-9-217-3-328 52z"/><path fill="#fcca3e" d="M555 599v8l3-1z"/><path fill="#aa8c30" d="m555 599 1-1 2 8-3 2zm0 0 1 8 2-1z"/><path fill="#fcca3e" d="M557 597q0 3-2 3l-3-3q1-3 3-3z"/><path fill="#aa8c30" d="M557 597q0 3-2 3l-2-1-1-2 1-2 2-1q2 0 2 3m0 0-2-3-2 1v3l2 1h1z"/><path fill="#fcca3e" d="m563 613-5-6-2 2 7 5z"/><path fill="#aa8c30" d="m564 613-1 2-7-6 2-3zm-1 0-5-6-2 2z"/><path fill="#fcca3e" d="M563 616v-3q2-2 3 1v3q-2 2-3-1"/><path fill="#aa8c30" d="M563 617v-4l2-1 2 2-1 3-2 1zm0-1 1 1h2v-3l-1-1h-2z"/><path fill="#fcca3e" d="m602 532 5 7 1-3-5-4z"/><path fill="#aa8c30" d="M602 532h1l5 4-1 4zm0 1 5 6v-3l-4-4z"/><path fill="#fcca3e" d="M603 531q1 3-2 2-2 0-2-3l2-2q3 1 2 3"/><path fill="#aa8c30" d="m604 531-1 2-2 1-2-4 1-1 1-1 2 1zm-1 0q1-2-2-3l-1 1-1 2 1 1 1 1q3 1 2-2"/><path fill="#fcca3e" d="m616 538-8 1v-3h7z"/><path fill="#aa8c30" d="m616 538-9 2 1-4h7zm-1 0v-1h-7v2z"/><path fill="#fcca3e" d="m619 537-2 2q-2 0-2-3l2-2q2 0 2 3"/><path fill="#aa8c30" d="m619 537-1 2h-1q-3 0-2-3 0-3 2-2l1 1zm0 0-1-2-1-1-2 1v3l2 1 1-1z"/><path fill="#fcca3e" d="m589 581-5-10h1l5 8z"/><path fill="#aa8c30" d="m589 581-5-10h1l6 8zm0-1 1-1-5-8z"/><path fill="#fcca3e" d="M586 569q0 3-2 3-2-1-2-3 0-3 2-3z"/><path fill="#aa8c30" d="m586 569-1 2-1 1-2-1-1-2 1-2 2-1 1 1zm0 0-1-1-1-1q-2-1-2 2 0 2 2 3l1-1z"/><path fill="#fcca3e" d="m589 581 6 2 1-1-5-3z"/><path fill="#aa8c30" d="m589 581 2-2 5 3v2zm1 0 5 2v-1l-4-2z"/><path fill="#fcca3e" d="M600 584q-1 2-3 2t-2-3l2-2q2 0 3 3"/><path fill="#aa8c30" d="m600 584-1 2h-2l-1-1-1-2q0-2 2-2l2 1zm-1 0q0-3-2-3l-1 1-1 1 1 2 1 1 2-1z"/><path fill="#fcca3e" d="m446 580-2 2-1-3 1-2z"/><path fill="#aa8c30" d="M446 580q0 3-2 2-2 0-2-3l2-2 1 1zm-1 0v-2h-1l-1 1 1 3z"/><path fill="#fcca3e" d="m446 584 1 10-2-2-1-8z"/><path fill="#aa8c30" d="m446 584 1 10-2-1-1-9zm-1 0v7l2 1z"/><path fill="#fcca3e" d="M447 581q1 3-2 4-3 0-4-3h3q1-2 3-1"/><path fill="#aa8c30" d="M447 581v3l-2 1h-2l-2-3 1-1zm0 0h-2l-1 1-2-1v1l1 2 2 1 2-2z"/><path fill="#fcca3e" d="M436 594q0 2-2 1-2 0-3-2 1-2 3-2z"/><path fill="#aa8c30" d="M436 594v1l-2 1q-3-1-3-3l1-1 2-1q3 0 2 3m0 0q0-2-2-2h-2v2l2 1z"/><path fill="#fcca3e" d="M438 594h7l-1-2h-6z"/><path fill="#aa8c30" d="M438 594v-2h6l2 2zm0-1 7 1-1-2z"/><path fill="#fcca3e" d="M439 593q1 4-2 4l-2-3v-5q2-1 4 4"/><path fill="#aa8c30" d="m439 596-2 2-2-4v-5h2l2 4zm-1-3-1-3-2-1v5h1l1 3 2-1z"/><path fill="#fcca3e" d="M416 541q0 3-2 3l-1-3 1-3z"/><path fill="#aa8c30" d="M416 541q1 3-2 3l-1-1v-2l1-3 2 1zm0 0q0-3-2-2l-1 2 1 2q2 0 2-2"/><path fill="#fcca3e" d="M415 547v8l-2-2v-7z"/><path fill="#aa8c30" d="M415 547v9l-2-3v-7zm-1 0v6l1 2z"/><path fill="#fcca3e" d="M417 545q-1 3-3 2-3-1-3-4 1-2 3 0 2-1 3 2"/><path fill="#aa8c30" d="M417 545q1 1-1 2h-2q-4-1-3-4l1-1 2 1h1q2 0 2 2m0 0q0-3-2-2h-1l-2-1-1 1q0 3 3 4l2-1z"/><path fill="#fcca3e" d="m404 553-2 1q-3 0-3-2l3-1z"/><path fill="#aa8c30" d="m405 553-1 1h-2q-3 0-3-2l1-1h2l2 1zm-1 0-2-1h-2q0 2 2 2z"/><path fill="#fcca3e" d="m406 553 6 1 2 2-8-1z"/><path fill="#aa8c30" d="M406 553h6l3 3-9-1zm1 0-1 1 8 2-2-2z"/><path fill="#fcca3e" d="M404 549q3 2 3 5l-3 3-2-2 1-2v-3z"/><path fill="#aa8c30" d="m404 549 2 2 1 3-1 3h-2l-2-2 1-1v-4zm0 1v5l1 2 1-1 1-2v-3z"/><path fill="#fcca3e" d="M400 497q-1 2-3 1l1-3q0-2 2-1z"/><path fill="#aa8c30" d="m400 497-1 1h-2v-3l2-2 1 1zm0 0v-3h-1l-1 1-1 3h1z"/><path fill="#fcca3e" d="m393 509 4-8-1-1-3 6z"/><path fill="#aa8c30" d="m393 510-1-4 4-6 1 1zm1-1 2-8-3 5z"/><path fill="#fcca3e" d="M396 501q-2-3-1-4 0-2 1-1l2 2 2 1v3z"/><path fill="#aa8c30" d="M396 501q-3-2-1-5h1l2 2 2 1v3zm0 0h4v-2l-2-1-2-2-1 1q-1 1 1 4"/><path fill="#fcca3e" d="M383 498q2 2 1 3h-2q-3-1-2-3z"/><path fill="#aa8c30" d="M383 498q2 1 2 3l-2 1-1-1-2-3 1-1zm0 0h-3q-1 2 2 3h2q1-1-1-3"/><path fill="#fcca3e" d="m386 502 6 5v4l-6-8z"/><path fill="#aa8c30" d="m386 502 6 5v4l-7-8zm0 1 6 7v-3z"/><path fill="#fcca3e" d="M386 503q-1 3-3 1l-1-2 2-1 1-3 2 1z"/><path fill="#aa8c30" d="m383 504-1-1v-1l2-2 1-2h1l1 1-1 4q-1 3-3 1m3-1 1-4-1-1h-1l-1 2v1l-1 1-1 1 1 1q2 1 3-1m170 97-1 1zm1-2-2 1-2-2v-2 4h1l1 1 1-1zm6 15h-1l-5-4 5 5zm4 2-1 2-3-1v-2l-1 1 1 2 1 1h1l1-1zm37-82v1l-1-2zm-1-2-2 2q-2-1-1-4l-1 1v2l1 1h3zm16 5q0-1 0 0 0 3-2 2-3 0-2-2 0-1 0 0v2h1v1h2v-1l1-1zm-6 1-2 1 4-1v-2zm-26 37v3l-2-5v-1zm-1-4q-1 2-3 1-2-2-1-4v1l-1 1 1 1 1 1v1h2zm8 12h-3l4 1v-1zm5 1q1 3-2 3-3-2-1-4l-1 1v2l1 1h2l1-1zm-152-2q1 2-2 4-2 0-3-2v-1h-1l1 1 1 1 1 1h1l1-1h1v-1zm-1 5v2-3zm-6 6v1l2 1h-3v-2zm-1 2-2 2-1-2-1-2v2l1 1 1 1h2v-3m-7 0 1 2h2-3zm-15-49q0 2-3 2l-2-2-1-2v1l1 2 1 1h3l1-1zm-3 4-1 1v-2h1zm-7 5 1 1 5 2-6-1zm0 0-1 1-2 3-1-2v-1l-1 1 1 1v1h2l1-1v-1l1-1zm-4 0h-2l1 1h2zm-3-53h-3l-2-3v2l1 1 2 1h1zm-5 2v2l1-4zm-8 1v1l4 5-5-5zm-2 1-2-1 1-1-1 1v1h3m-3-3-2-2 1 2z"/><path fill="#9ca168" d="M623 518q-3 9-10 12l-4 5-1 4-1 3v1l1 4v7l4-3 3-1h1l-5 8c-1 4-4 12-8 15l-9 2-2 2-1 3-2 2-1 1-1 1-1 3-1 4 2-1h2l-1 3c0 1 0 8-5 12-7 3-21 1-21 1l-3 1-2 2-3 2v1l-3 3-4 3 3 1 6 3-6 1c-2 0-13 5-18 5-5-2-12-11-12-11l-3-3-5-2-7-2v-2l6 1 7 3h5l9-7 9-2 4 1 1 1h2l-2 2-2 2 1 1h8v1l1-2 5-5 2-1 3-6v-3l6-7 4-4 2-6v-2l1 6-1 5 7-3 4-1 3-3 1-3 1-5-1-13 4-10 5-5h1v5l4-5 1-1 1-3v-11l-1-4-2-9v-10l-2-4 4 5 3 9 5-18 2 6 2 6 2-4v1q2 2 3 12M519 623l-6-7-8-5v2l8 6 3 4z"/><path fill="#717732" d="m554 610 7-5 5-1 10-3q10-7 10-9l3-2-5 7q-3 4-9 7c-4 2-11 2-11 2q-5 0-7 3l-3 3zm19-20-8 12 8-8 9-6 3-4 2-2s-3-3-14 8m-13 14 3-4 2-5 9-9c4-6 2-10 2-10l-1 4c-2 3-10 8-11 12l-1 6q-2 7-3 6m-4 18-7-3c-8 0-14 4-19 3q-6 0-11-7c-4-4-14-5-14-5v1l10 2c5 3 9 10 15 11 8 0 15-4 18-4zm-37-10q1 2 10-1 7-6 13-7l6 1-7-3-9 1-7 7zm-1 9-2 1-5-5-6-3q-1 0 0 0l6 4 4 4 2 2 2-1zm4-6 6 3c8 0 13-5 18-7l8 1-6-3c-9-1-17 4-21 5zm86-61-9 16-5 5-5 7-1 1q-1 0 0 0l2-2q0-2 4-5l8-6 7-16 7-4q-1-2-8 4m-14 19 2-5 4-6 4-12 3-8-4 3q-4 5-7 15c-2 6-2 13-2 13m-3 4 1-6 1-17 8-11-7 3q-6 6-5 12l2 12zm16-35 3-9 4-7q3-2 5-8l1-13-2 2-2 12-5 11v-11l3-10v-12l-4 6-2 13 1 11v7l-1 3zm-5-41 2 7q-2 6-1 12l4 7v6l1-10-2-4-1-12z"/><path fill="#9ca168" d="m480 616 4-4 11-3v3l-4 1-3 1-4 3zm10-12-9 1h-2l-2-3-1-1-1 4-7-9-1 5-1 2-8-9v6h-2l-5-5h-2l2 5-7-1-2 1-1 2v1h3l1-1 1 3q2-3 7-1c2 2-3 3-3 5q2 2 6 2c1-1 4-5 6-3 1 3-4 3-3 6q2 4 6 2c1-1 4-6 5-5 1 3-2 4-1 6q2 2 5 0l4-6h3l2-2 6-2 2 1 1 1 3 1v-3zm-42-6 1-2-1-1-3-4-3-4-4-3-1-5v-2l-2 1-3-11-1-3h-1l-2 7-2-5-1-9-1 2-2 2-4-9-1 5-4-5-5-6-1-4 1-4 1-5-3 1-1-10v-4l-5 7-1-3v-7h-1l-2 3-2-5-1-8q-2-5-1-9l1-5-1-1 5-7c-2-2-6 2-6-1 2-4 6-3 7-8 0-3-4 1-5 0l3-7-1-3c-1-1-3 3-3 3l-4-1-1 5-1 4-4-3 1 6 1 6-4-2 2 5 3 4 2 3 1 1 2 2v3l1 4 1 3v5h-1v2h-2l2 4h-5q-1 3 3 5c2 1 7 3 7 5-2 0-7-5-7-1q1 5 4 6c2 1 7 1 7 3l-5 1q1 4 4 4l4 1 7 9 7 7h-4c0 1 8 6 6 7-3 1-5-3-6-1q-1 5 3 7c2 1 10 2 9 4-3 1-8-2-8 0q1 5 6 8c2 0 4-3 6-1q-2 3 0 4l6-2 9 6z"/><path fill="#717732" d="m482 615 2 1 5-3 6-2v1l-6 2-5 3-2 1q-3 0-2-2zm13-6-2-1-4-2-6 3-2 2 3-2 6-2 3 2 2 1zm-77-49v-1l-4-3-8-8 5 6 6 6zm54 54 3-3 3-4-1-3-1-2 2 3 1 2 3-1-1-1h-2l-3-6q-2 3-1 4c-2-1-4-8-8-9h-4q3 4 3 7c-1 0-6-8-9-9q-4 0-3 2l3 4c-1 2-4-4-7-4l-3 1 1 3h-4l-3 4 4-3 9 2-2-2-2-3 3 3 3 3 3 1-2 2-2 3 3-3 2-2 2 1-1-3-2-5 3 4 2 4 2 1-1 3-1 4 2-3 2-3h3l-2-3-1-5 2 5 2 4h3l-1 3zm-33-28 3 1-3-4-2-9-2 3-1-11q-3-5-5-5c0 2 0 7-2 6l-1-10-2-4-2 6-2-4-1-1-1-3v4l1 3 1 2-1 1h-3l3 1 2 1 3 4v-9l1 5-1 5 1 2h-4l-5-1 5 2 5 1 3 4 2-5v-5 5l-1 7-2 1h-6l6 1 3-1 1 2 3 2-2 1-2 1 3-1h3l-1-2v-3l1 3v3zm-48-72 1-6-3-11 1-3-1 2-2-1-2-2 2 1 1 1v-4l-3-2-4-4 4 3 3 1h2l3-2-3 1h-3v-4l-2-3-2-5 2 3 3 3 2-1 4-3-4 1-2 1v-2l1-3-1-1 1-5v4l6-5q1-2-1-3l-3 3-2-2-3 4v5c-1 1-2-3-4-3l-2 5c1 1 4 6 3 7-1 0-4-4-6-2-1 4 5 8 6 9l2 3 3 4 4 11zm18 34-1-6 2-11c-1-1-2 3-3 2v-10q-1-5-3-5c-2 1-3 7-4 6v-7l-2-2-2 3-3-4c-1 1 3 8 3 9l1-2 1-3v7h-3l-4-2 3 2 4 2 2 2 2 3 1-4 2-6-2 13-4-1-6-3 6 3 4 2 2 4 2-3 1-3-1 4-1 3h-3l-4-1 4 2 3 1 1 2z"/><path fill="#fff" d="m491 629-2-3h-2v-1l1-3 9-9 1-9 5 1v13l2 1 9 8v3l-1 1h-5l-6-6-3-4-5 7z"/><path fill="#016848" d="M498 604v12l-8 5-3 5h-2l-2 1 5-8 7-5v-10l1-1zm11 30 1-1 2-2-3-1-5-3-3-5-2 2 2 4 6 4z"/><path fill="#cd202a" d="m502 604 3 1 1 1-1 10-2 5-6 6-4 5-1-2-1-2q0-2 5-6 5-3 6-8zm17 28-3-2h-2l-3-3-5-4-3-4 1-4 4 5 7 6z"/><path fill="#30c2dc" d="M538 591s-5-3-5-6c1-2 12-4 13-4v-4l-5 1h-13l-6-1-47-11c-6-2-9-12-9-12h-3q1 3-1 6c-3 0-21-14-21-14l-1 4s11 9 11 12q-2 3-4 2l2 3c1 0 18 4 19 11q-2 3-5 3l2 3v1s10 1 13 4l7 8c4 2 27 5 31 5 4-1 6-6 13-7l9-2z"/><path fill="#0872a7" d="m539 591-1 3-9 1-8 4-5 3q-3 1-15-1-13-2-16-4l-4-4-3-4q-3-2-13-4v-1l-2-3 4-3q0-6-18-10l-2-5q3 1 4-1 0-2-11-11v-1l1-5q20 15 21 14l1-5h3q4 10 9 12h2l23 5 22 5 6 2q6 1 13-1h6l-1 5q-12 1-12 4zm-1 0q-6-3-5-6 0-2 13-4v-3h-5q-7 2-13 1l-6-2-22-5-23-5h-2q-6-1-9-12h-2l-1 5q-3 0-22-14v4q11 9 11 12-1 3-4 2l1 3q19 4 19 11 0 3-4 3l1 2v1q10 2 13 4l4 4 4 4q1 2 15 4 12 2 15 1l5-2 8-5 9-1z"/><path fill="#fff" d="M449 567q-1 3-4 3-2 0-3-4 1-3 3-3 3 1 4 4"/><path fill="#0872a7" d="m449 567-1 3-3 1q-2 1-2-2l-2-3 2-3 2-1q4 0 4 5m-1 0-1-2-2-1h-1l-1 2 1 2 1 1q3 1 3-2"/><path fill="#fff" d="M467 552q0 3-3 3t-3-4q0-3 3-4 3 2 3 5"/><path fill="#0872a7" d="m468 552-1 3-3 1q-4 0-4-5t4-5l3 2zm-2 0-2-4-2 1-1 2q0 3 3 3h2z"/><path fill="#fff" d="M544 592q0 4-3 4-3-1-4-5 1-3 4-3t3 4"/><path fill="#0872a7" d="m545 592-1 4-3 1-3-2-1-4q0-4 4-4t4 5m-2 0v-2l-2-1h-2l-1 2q0 3 3 4l2-1z"/><path fill="#f8c83c" d="M431 541q0 6 6 10 4 1 5-2l-1-4c-2-4-8-7-10-4"/><path fill="#fff" d="m440 546-4-4-3 1 5 3-1 2h2z"/><path fill="#f8c83c" d="M466 583q0 4-3 5-5 1-8-3-1-4 4-5t7 3"/><path fill="#fff" d="m461 584 2 2 1-2q0-3-3-3l-4 4 2 1z"/><path fill="#f8c83c" d="M545 582q4 4 6 0 3-1 3-5-2-2-5-2l-4 3z"/><path fill="#fff" d="M546 580q0-2 2-3 2 0 3 2l2-1-2 2-3-1z"/><path fill="#f9aa51" d="m503 567-1-1-5-1h-5l5 19 6 11 3 2h5v-3l-1-17z"/><path fill="#953220" d="m503 567 7 9v1l2 17v1l-1 2v1l-5-1-3-1-6-12-5-19v-1l5 1 5 1zm0 1-2-1-4-1-4-1 5 18 6 12 2 1 4 1 1-3-2-17z"/><path fill="#f9aa51" d="M486 566v-2h3l3 1 5 9 4 13 5 10-3-1h-3l-3-2-9-17z"/><path fill="#953220" d="M485 566v-2l1-1h3l3 1 2 4 3 6 2 5 7 18h-3l-3-1h-1l-2-1-1-1-8-17zm1 0 2 10 9 18 3 2h5l-7-17-2-5-4-9-3-1h-3z"/><path fill="#f9aa51" d="m482 563 4 1 6 10 3 12 5 10-10-2-5-2-3-3-3-1 1-5-1-13v-7z"/><path fill="#953220" d="m482 562 4 1 3 4 4 13 7 16-10-1-2-1-4-2-2-3h-3l-1-1 1-5-1-13v-7h1zm0 1-3 1v6l1 13-1 5h3l3 3 3 2 2 1 9 1-6-15-2-6-5-10z"/><path fill="#f9aa51" d="m518 572-6-4-11-2 1 7 4 14 5 10c1 1 6-1 7-1h4l-1-5v-2l1-15-1-2z"/><path fill="#953220" d="m518 571 3 1 1 2v1l-1 14 1 2v6h-12l-2-5-2-4-4-15-1-7 1-1 10 3zm0 1-6-3-10-3 1 7q0 8 4 14l1 4 3 6 7-1h3v-5l-1-2 1-14-1-2z"/><path fill="#f9aa51" d="m480 566 2 2 2-3q0-3-4-4-3 0-4 5l2 4-2 6 3 7-3 4q1 5 4 5t5-3l-3-3-2 1z"/><path fill="#953220" d="M481 566v1l1 1 1-3q0-3-3-4l-2 2-1 3 1 3 1 1-1 1-1 5 2 6v1l-2 4q0 4 3 5l3-1 1-2-1-2-1-1-1 1-1 1v-2l2-1 2 2 1 3-2 2-3 1q-4-1-4-6l2-4-2-7 2-6-1-1-1-3 1-4 3-2q4 2 4 6 0 2-2 3l-1-1-1-2z"/><path fill="#f9aa51" d="M520 573q0 3-2 2t-2-3q1-3 4-3l4 6-2 4 1 5-2 5 3 6q-1 4-4 4-3-1-4-4 0-4 2-3 2 0 2 3z"/><path fill="#953220" d="m520 573-1 2h-1q-2 0-2-3l1-3h3l3 2 1 4-1 4v5l-1 5 2 6-1 4h-3l-3-1-1-3 1-3 1-1 2 2 1 2h-1l-1-2-1-1-1 3 1 2 2 1q3 2 3-3 1-4-2-5v-1l2-5-1-4v-1l1-4-1-3-2-2q-3 0-3 2v2h1zm-36 14 1 1 1 3 14 4c3 0 12 2 14 1l2-4h2l-2 1v3l1 1-1 1-3 1-24-4-4-2-1-2zm31-17 1 1-2 4-1 5-9-2-2-4z"/><path fill="#231f20" d="m541 573-2-3-1-3 1 2zm16-3 1 2 2 2-3-2-2-3zm4 2h-2l-2-2q1-1 2 1zm9-7-2 1-3-1zm-13-21-2 1v3l1-2zm-8 4-1 2v3l1-2z"/><path fill="#8cbebf" d="m535 558-4 4c0 1 10 8 18 10 8 0 16-5 17-7l-1-10q-3-6-9-8-3 0-9 6-3 6-7 6z"/><path fill="#04534e" d="m535 557 4 1q2 1 5-2l2-4q6-6 9-6t5 4q4 3 4 5l1 5v5q0 2-6 5l-11 2q-9-1-19-9v-1zm0 1-4 4q10 8 18 9l11-2 5-4 1-5-1-5-4-5-4-3q-3 0-9 6l-3 3q-2 4-5 3z"/><path fill="#0c8489" d="M534 560s10 3 14 0l9-10 3-1 2 3 3 3 1 6v4l-4 2-6 3-6 1-5-1-10-5-3-2v-1z"/><path fill="#04534e" d="M550 555q0-2 2-1l2 1-2 3zm5 3 1-1 2 3-1 1q-2 0-2-3m-2 8 2-1 2 2-2 2zm-5-3q0-2 2-2l1 3-1 2zm-9 0q0-3 2-3l2 3q0 3-2 3-2-1-2-3"/><path fill="#8cbebf" d="m555 558 1-1 2 2-2 1zm-2 8q0-2 2-1l2 1-2 2zm-5-3q0-3 2-2v2l-1 2zm2-9h2v1l-1 2zm-12 8q1-2 3-2l2 2q0 2-3 3z"/><path fill="#231f20" d="m543 560-3 1v3l1-1zm7 0-2 2 1 2v-2zm1 2h-2v2l1-1zm2-10-2 1v2l1-1zm5 5-2 1v1l1-1zm-1 7-1 2h-1v-1z"/><path fill="#04534e" d="M566 560q1 2-2 6c-3 1-10 6-17 4s-15-7-15-7h-1l2 1 5 4 6 3 4 1h4l6-2 5-2 2-2 1-1z"/><path fill="#231f20" d="m431 494 1 3q0 2-1 1zm11 14-1 3-1-1 1-1zm-25-1 1 2 2-1-1-1zm4 11 3 2 2-1h-2zm8 9h3v-3l-1 2z"/><path fill="#8cbebf" d="M443 523s1-11-7-20c-7-9-12-8-15-5-2 2-4 11 3 21 9 9 18 8 18 8z"/><path fill="#04534e" d="M443 523v5h-1l-6-1q-6-2-12-8-5-7-6-13 0-6 3-9 6-6 16 5a28 28 0 0 1 6 21m-1-1v-6q-1-7-6-13-8-11-14-5-3 3-3 8 1 6 6 12t11 8l6 1z"/><path fill="#0c8489" d="M419 508q-1-3 3-8c3-2 10-2 14 8q5 13 3 18h-4l-7-4-5-6z"/><path fill="#04534e" d="m442 524-5 1c-3 0-15-6-18-20v4l1 3 3 5 3 4 4 3 3 1 4 2h3zm-7-5 1-1 2 1q0 3-2 3zm0-7 2-1 1 2-1 1zm-5 7 1-1 2 2-3 1zm-1-8 1-1 2 2-2 2zm-5 0 1-1 2 2-1 1zm1-7 1-1 2 2-2 2zm6 0h1l2 2-2 1z"/><path fill="#8cbebf" d="m425 504 1-1 1 1-1 2zm-1 7q0-2 1-1l1 1-1 1zm7-7 1 1-1 1zm-2 7 2 2 1-1-1-3zm7 0 1 2 2-2-2-1zm-7 8 2-1 1 1-2 2zm6 0 1-1 2 1-2 2z"/><path fill="#231f20" d="m436 508 1 2v2l-1-1zm-4-7v4l-1-2zm-6 0v4zm-2 1 1 1 1 2-1-1zm4 8 2 1 1 1q-1 1-2-1zm-5-1 1 1 1 1-1-1zm13 6v5l-1-2zm-2 2 2 2v1l-1-1zm-5 0v2l-1-1z"/><path fill="#04534e" d="M426 496q-2 0-6 4v8l-1-5 1-3 1-2 2-2zm16 25-1-6-4-12 2 4 2 4 1 3z"/><path fill="#231f20" d="m447 514 2 3v1l-1-2zm-7 23 2-2h2l-2 1zm12 7 2-1 1-2-2 1zm-1-1 1-3h1v2z"/><path fill="#8cbebf" d="M472 535c-1-1-8-14-20-17-10-2-13 7-12 11 0 3 3 10 16 13 13 2 15-5 16-5z"/><path fill="#04534e" d="M472 534v3q-4 9-16 5-8-1-13-6l-4-7q0-4 3-8 3-6 10-4 8 1 14 10zm-1 1-5-8q-7-8-14-9-6-2-10 4l-2 7q0 3 4 6 5 4 12 6 11 3 15-4z"/><path fill="#0c8489" d="m462 524 5 6 1 4c-1 0-8-8-14-11q-9-3-11 2-2 6 2 10l14 7h6l4-2v-2l1-3 1-1-3-5z"/><path fill="#04534e" d="m453 525-2 1-1-2 1-1zm-7 1h1l2 2-2 1zm7 7q0-2 2-2l2 2-3 2z"/><path fill="#8cbebf" d="m447 534 2-1 2 2-2 1z"/><path fill="#04534e" d="m458 539 1-2 1 2-1 1zm4-4 2-1 1 2-2 1z"/><path fill="#8cbebf" d="m452 524-1-2 1-1zm-3 3-2 1-1-2 1-1zm1 7-1 1-1-1q0-2 1-1zm6-1-2 1-1-2 2-2zm9 3-2 1-1-2q0-2 2-1zm-5 3-1 1-1-2 1-1z"/><path fill="#231f20" d="M461 534h2l1 1h-1zm-5 5 1-1 2 1zm-4-10 3 3v1l-1-1zm0 3h2l1 1h-1zm-6 0 3 1v1h-1zm0 3 1-2 2 1-1 1zm-1-10 2 1v1h-1zm4-5 2 2v2l-1-1z"/><path fill="#04534e" d="M469 539s-3 3-12 1q-13-2-17-11v2l2 3 6 5 7 2 5 2 5-1 3-1zm1-5-3-4-9-10 6 4 4 5z"/><path fill="#231f20" d="m471 526 2 2 1 1-1 1-1-2zm6-3 3 2v2l-2-2zm2-1 2 3v2l-1-2zm11 5 1 2v3l-1-2zm2 2 2 2-1 2-1-2zm-19 24h2l2-1-2-1v2zm11 5 2-1 1-2h-2zm8 2 2-2 1-2h-1l-1 2zm3 0 1-2v-2l-1 1z"/><path fill="#8cbebf" d="M469 540c0-5 5-14 12-13q4 0 11 5l7 6 6 1h7l-6 10-2 1q0 2-7 6c-6 2-15-1-19-3q-8-4-9-13"/><path fill="#04534e" d="m469 539 3-8q4-5 9-5a34 34 0 0 1 15 9l3 2 6 1h8l-6 11-3 2zm0 1 1-4 4-6 6-3h1l5 2 6 4 4 3 3 2 3 1h9l-5 9-2 2q0 2-7 6h-7l-12-4-6-4zq0 5 3 8 3 4 6 5l12 4h7q7-4 7-6v-1 1l3-2 6-11h-11l-3-1-3-2-4-3-6-4-5-2h-1l-4 1a17 17 0 0 0-7 12z"/><path fill="#0c8489" d="M506 547h-2c-1 0-18-15-23-15q-9-2-11 8c0 6 1 6 3 8 1 2 11 7 11 7l6 1h6l4-3 3-2 1-2z"/><path fill="#04534e" d="m479 539-1 2-2-2q0-2 2-1zm2-5q0-2 2-1l2 1-2 2zm10 5 2-2 1 2-1 2zm2 7 2-1 2 2-2 2q-2-1-2-3m-5 5q0-2 2-2l2 2q0 2-2 1zm-9-4 1-1 2 2-2 1z"/><path fill="#8cbebf" d="m479 539-1 2q-2-1-2-3l2-1zm5-5-1 1-2-2 2-1zm10 5-1 1-2-2 2-1z"/><path fill="#04534e" d="m489 543-2 2-2-2 2-2z"/><path fill="#8cbebf" d="m482 547-2 2-2-2 2-2zm6-4-1 1-2-2 2-2zm9 3-2 2-2-2 1-2zm-6 5-1 1-2-2 2-1z"/><path fill="#231f20" d="M492 545h3v2h-1zm-3-11 3 2 1 3-2-1zm-5 4 2 3 1 2-2-1zm-1 2 3 2 1 1h-1l-2-1zm-3-9 3 1v3l-2-2zm-6 4 3 3v1l-1-1zm0 3h2l2 1h-2zm13 12h2l1 1h-1zm-9-3 1 1-1 1z"/><path fill="#04534e" d="m504 550-6 4h-11q-7-1-11-5-5-4-6-7v2l3 6 4 2 5 2 5 2h12l2-2 1-1zm-5-12-4-2q-4-5-14-8-10 2-9 5l3-5 3-1h5l3 2 3 1 3 2 3 2 3 3zm10 4-6-1-1 1-2-3h6l3 2z"/><path fill="#0c8489" d="m501 574 2 2 2 1h6l2-2 1-6 1-2 5-2 5-1h3l4-1 2-1 2-3 1-3-1-4-3-6-6-3-4-1-5 2-8 1-7 5c-2 5-2 6-2 11z"/><path fill="#04534e" d="M501 574v-14l2-10q2-4 7-6l8-1 5-1h5l5 4 3 5 1 5-1 4-1 2-3 1-4 1h-3l-4 1-3 1-2 1v1-1l-2 2-1 6-2 3-6-1h-2zm0 0 2 2h2l6 1 1-2 1-6h1v-1l1-1 5-3 5-1h3l3-1 3-1 1-2 1-3-1-4-3-5-5-4h-4l-5 1-8 1q-4 2-6 6l-2 10z"/><path fill="#8cbebf" d="M503 573q2-1 3-7l4-8 2 1 1-2 2-3 4-3h2v2l2-1v-2h3l3 2-1 1v1q-1 2 2 2h1l1-1v-2l3 3v-4l-3-6-5-2-6-1-6 4-5 2q0 3-2 5l-2-4-2 7-2 10zm6-8h-1l-1 2 1 2h1l2-1v-2zm9-8v1l1 2 2 1v-2l-1-2zm8 3-1-1-1 2q0 3 2 2zm-22-1 2 1 2-1-2 1z"/><path fill="#04534e" d="M511 567v2h-2l-1-1-1-1 2 1zm21-12-1 1-2 1-1-1v-3l2 3zm-19 2q1 1-2 2l-1-1 2 1zm4 0v3l2 1 1-1v-1 1h-1l-1-1zm6-7v3h-2 2zm-20 26h8c1-2 0-6 5-10q7-4 11-3 6 1 9-7l-5-8q-4-4-6-3-1-1-6 2l-2 3h-7v4l-2-2 1-5 7-3 7-4 6 1 5 4 3 4v8q-2 8-10 7-8 1-11 3c-2 2-3 9-3 11z"/><path fill="#231f20" d="m506 558-1-1v-4 3zm5-1v-2l3-2-1 2zm-2 10v-2l1-3v4zm4-2-2 1-2 1 1-2zm7-11-2 2v2l1-2zm2 4-1-1h-2l-1 1zm-1-8 2-1 1-2-2 1zm10 1-1 2-1 1h1zm-3 8-1 2h-2l1-1h1z"/><path fill="url(#a)" d="M464 522q-2 8-5 6-4-1-4-9 2-6 6-6 3 2 3 9"/><path fill="#fcca3e" d="m462 507-3 7h3z"/><path fill="#aa8c30" d="m462 507 1 1-1 7h-3zm0 0-2 7h1z"/><path fill="#fcca3e" d="m463 504-2 1q0 3 2 3 2 1 2-2z"/><path fill="#aa8c30" d="m464 504 1 2q0 3-2 2-2 0-2-3l1-1zm-1 0v1l1 3 2-2z"/><path fill="#fcca3e" d="m576 540-6 7 3 1 4-6z"/><path fill="#aa8c30" d="m576 540 1 2-4 6-3-1zm0 1-6 6 3 1z"/><path fill="#fcca3e" d="M579 538h-3l1 4q2 2 3-1 1-2-1-3"/><path fill="#aa8c30" d="m579 538 1 4h-3l-1-2v-2zm0 0q-1-2-3 1l1 3q2 2 3-1v-1z"/><path fill="#fcca3e" d="m412 474 3 10 2-3-4-7z"/><path fill="#aa8c30" d="M412 474h1l4 7-2 3zm0 0 3 9 2-2z"/><path fill="#fcca3e" d="m411 470-1 3q1 3 3 1l1-3q-1-2-3-1"/><path fill="#aa8c30" d="m411 470 1-1 2 2q2 1-1 3l-1 1-2-1q-2-3 1-4m0 0v3l1 1h1v-3l-1-1zm53 34q1 1 0 0l-2 2 1 2q1 0 0 0h-1v-1l-1-1 1-1v-1zm-1 5-1 1-1 1 1-4 1 1zm117 30h-3q-1 2 1 3h-1l-1-1v-2l1-1 1-1 1 1zm-4 4h-1l-2 1 3-3 1 1zm-165-73q1-1 0 0v3l3 1h-1l-1 1v-1h-1l-1-1v-3zm3 6v4l-2-5 1-1z"/><path fill="url(#b)" d="M423 500q-4 1-8-6-2-7 1-10 5-1 8 6 3 8-1 10"/><path fill="#e92736" d="M412 489h2l1-1v-2l-1-2-2-1v-1l-2 3 1 1v2zm2-5 1 2h2l1-2v-3l-1-1v-1l-4 2h1zm8 0v-3l-1-1v-1h-4l1 1v4h1zm34 28 1 2h2l1-3-1-1v-1h-3l1 1-1 1zm4-1v2l1 2h1l1-1 1-1-1-1 1-1-3-2zm5 7 2-2-1-2h1l-2-2v1h-1l-1 1v2zm102 25v2l1 1h2l1-1v-2l-2-2v1h-2zm4 2-1 1v1l1 2 1-1h1l1-1-2-3zm0 7h3v-1h1l-1-3v1l-1-1h-2z"/><path fill="#f7e204" d="M414 486v2l-2-1v-1l1-1zm1-3v2h2v-3h-1zm4-2v2l1 1 1-2v-1zm40 31-1 1-1-2zm2-1-1 1 1 2 2-1-1-1zm3 3v1h2v-1zm106 31h-2v-2h1l1 1zm1 0v1l2 1 1-1zm2 4-1 1 2 1z"/><path fill="url(#c)" d="M569 555q-5 4-8 2-2-4 3-8 5-5 8-2 2 3-3 8"/><path fill="#a8ac71" d="m447 417-10-1c-3-3-3-14-3-15l-2-6c1-3 8-9 9-9h2l3-1 1 2-3 3-1 4-2 4v3l5-1 3-2q1 2-3 4l-5 2q-2 1 3 4h6zm-23 26q2 0 4 6-3 5-4 15c0 7 1 7 9 16l3 5c0 3 2 16 9 18 8 0 9-5 9-5l-3-6h-4q-3-1-4-5l-2-10c-4-6-9-8-9-14s3-6 2-14c-1-7-8-12-8-12l-3-2-1 8z"/><path fill="#f1a720" d="M446 395c2-1 1-8 1-8l-2 1 1 4z"/><path fill="#a8ac71" d="m450 477-1-2c-1-1-5-5-4-17 1-13 16-17 18-22 1-6 4-8-8-22l-3 4 5 5 1 2-2 4-9 7-4 4-4 7q-2 9-1 11c0 1 0 14 12 19"/><path fill="#78732e" d="m443 483 1 5-3 1h-2l-2 2-1-2v-2l2 1h2l1-2zm-8 0-1-2-1-2 1-1h2v3zm4-7 2 1 1 3-3-1-2-1zm-1 21-1-1v-4h2l2 2h1l-1 1zm8-6-2-2v-1l-1 3-1 2 1 1 1-1zm-7 8 2 1 2 1 1-1 1-2h-5zm7-2 4-2v-2l-1-1h-1l-1-1-1 4zm-3 5h7l3-2-2-1-2 2zm-4-38-1-3v-2l2 1 2 2-2 1zm3 7-2-4h2l1 2z"/><path fill="#c6c7a6" d="m433 393 1 4q1 1 7-4l2-4v-3h-3z"/><path fill="#1c242f" d="M443 388v-1z"/><path fill="#a8ac71" d="m438 388-3 2 4-2h4l1-1-3-1z"/><path fill="#78732e" d="M445 463v-4l-2 1-1 2zm-7-6v-4l1-5 1 2 2 5 1 1-2 1zm7 0v-2l1-2-2 2-1 1zm-6-11 2-3 2-3 1 5v4h-1l-2-1zm8 6 1-1 1-2h-5l1 2zm-3-13 1-1 2-1 1 6-3-1zm6 10 3-4-5-2 1 4zm2-10v-6l-2 2-2 1 1 1 1 2zm4-5v-5l-1 2-2 1 2 2zm2 7 2-2 3-3-7-1 1 3zm-15-28v4h5l-1-2-2-1-1-2zm10 32 3-2 2-2-5-1zm10-10 1-4-1-4-4 3 1 2 1 2zm-6-6 1-3q0-1 0 0h3l2 1-1 2-2 1zm6-3-2-4-1-2-2 5z"/><path fill="#fff" d="m426 456-1 2 4-1 3 3v-2l-3-3zm1-10 2-2h3l-1-2-3 1zm7 9-3-4-4 1v1h4l2 3zm-8-11v1l1-4 2-1-1-1-2 2zm-1-4 2-2h-1q0-1 0 0zv4l1 1zm12-34h2l-1 5-1 4h1l1-3 2 4 2 1 1-5 3 3-3-3v-1l3-2 1 1v-2h-1l-3 3-1-3-1-1q-1-1-3 3l2-4v-1zq-3 0-3 2v1zm2 5 3-3 1 4-1 4zm-11 37v1l3-1 3 2v-2l-3-2zm33-16-1-2h1l2-3v-1h-3l-2-1 1-3 1-2-1-2-1 1-5-2v1l4 2h2l-1 2v4l5 1-3 2-2-3v1l1 2h-3v5l-3-2v1h-1v6l-4-3-1 1 1 6-4-4-1 1 1 8v1h-1l-4-3v2l3 7v1l-4 1v2l3 3-2 2v1l3-2 3 1v-1l-2-1 2-3v-2l-2-1 3-3 1-1-2-2 4-1h1l-2-5 5 1v-5l5 1-1-6h1l5 1v-1zm-17 26q1 1-2 3v1l-1-1-2-2 4-3zm2-6-3 4-1-1-3-8 4 3h1zm3-4-4 1-1-1v-7l4 2zm-1-5v-6l4 3v4zm9-3h-4v-7l3 2zm0-6v-5l2 1 1 2 2 3zm-12 33v-1l-2 2-3-2v1l3 1v1l-1 2 1 1v-3h2v2l-1 2 1 1h3l-1-1h-2v-2l1-2-1-1h-1zm-17-5 3 2v-1l-3-3-4 1v3zm20 38-4 1 1-3q6-2 5-4v-1l-4 4 1-6h-1l-3 2 1-4-1-2-2 2-1-1 3-5-1-1-3 6-3-2v1l3 2-2 2v1l4 2q-2 4-3 3l1 2 6-1-2 3h6l3-2-1-1zm-10-9 2-2h3l-1 4zm2 6 2-2v-1l4-2-1 5zm-3-18 5 2v-1l-5-2 3-3h-1l-2 2v1h-5l1 1zl-1 4 1 1zm-5-12v-2h-4l-3 3v2l3-3zm5 5-2-1-3 1q-2 3-1 5l1 1 1-4zm-6-2 3-1-1-1-3 1-3 3 1 2zm8-81q2-3 3-1h1l-1 4-2 3-2 5 1 3 1-1h-1v-1l2-5 1-4 1-4-2-1zl-2 1q1 1 3-1"/><path fill="#78732e" d="M447 408h-4l1 3zm-5-1-2 1v4zm-1 9-2-5-2 4h1l2 1zm12 84-7 2-6-2-2-4-2-7-1-8-6-6q-3-4-5-11v-1l2-8 2-6v-1l-2-4-2-2h-2l2 1h-1 1l2 2 1 3v1l-1 6-2 9q1 8 5 11l5 7 2 9 1 5 3 4 6 3 7-2zm-3-9h-1l-3-2-2-4-1-6-6-8-4-7v-1l1-6 1-8q0-6-5-9l-4-3 5 4 4 8-1 8-2 6v1l5 7 5 8 2 6 2 5 3 2z"/><path fill="#a8ac71" d="m464 479 2 4-1 6-4-5 2-2 1-1z"/><path fill="#f8c83c" d="M418 441q-2 1-4-1v-3l-1-2q0-2 2-1l2-3 2 2z"/><path fill="#977c2e" d="M418 441q-3 1-4-1v-3l-2-2q1-2 3-2l2-2 2 2zm-1 0 2-8-2-2-1 2-1 1-2 1 1 2v1l1 2z"/><path fill="#f8c83c" d="M420 442h-2l-1-3-1-3q0-2 2-1l2-2 2 2z"/><path fill="#977c2e" d="M421 442h-4v-4l-1-2 1-1h1v-1l2-1 2 2zm-1 0 2-7-2-2-1 1-1 1-2 1 1 2 1 1v3z"/><path fill="#f8c83c" d="M424 443q1 1-2 1l-1-3q-2-1-2-3l3-2 2-2 2 3-3 2z"/><path fill="#977c2e" d="M424 443q0 3-2 2l-1-4-1-1-1-2 2-2h1v-1l2-1q2 1 2 3l-3 2zm0 0-1-4q0-2 3-2l-2-3-1 2-1 1h-1l-1 1v2h1v1l1 3z"/><path fill="#af7029" d="m460 478-4-6-3-5-4-3-2-4v-6l1-2 1-2s-7 2-3 18q3 10 5 9l7 1z"/><path fill="#816c2a" d="m456 423 2 1v2q-4 8-12 11l-6 6-2 12q1 14 6 18t8 4l1 1 9 1 2 1-1 3-1 1 1-1 1-2v-2l-2-1-3-1h-7l-8-4q-5-4-6-17v-1l2-11q4-6 10-9 5-2 8-9v-3z"/><path fill="#fff" d="m466 481-2 4 2 1-1 1-3-2v-1l2-1 1-3z"/><path fill="#fcca3d" d="M472 485h-4l-2-1-1-4-2-2-4-1-7-11 2 1h9l2 1 3 1 1 2 1 1 1 3 1 3z"/><path fill="#af7029" d="M473 484h-7v1l-1 2v6l4 2 2-1 1-6z"/><path fill="#fcca3d" d="M472 482v2zm-4-56-1-4-1-3-2-3-1-2-1-2h-1l-4-1-3 3q3 2 9 12l4 4v-1z"/><path fill="#af7029" d="m464 430-2 7 3-3 2-4-4-4z"/><path fill="#816c2a" d="m470 491-2-3-3-2v1l2 2 2 2z"/><path fill="#6f5b24" d="m472 487-2 4-3 2 4 2 3-2z"/><path fill="#404118" d="m473 492-1 1-1 1 1-5 1 1z"/><path fill="#78732e" d="m447 417-10-1q-3-1-3-14v-1l-2-6 4-6 5-4 2 1 3-2 1 1v2l-1 1-2 2v1l-1 3-1 1-1 3v2h5l3-2h1v1l-1 1-3 2-2 1-3 1v1q0 2 3 3h6v-1zm0 0 3-9h-6q-3 0-3-3v-2h3l2-1 3-3v-1 1l-3 1-5 1-1-2 1-1 1-3 1-1 1-3v-1q-1-1 2-3l1-1h-1v-1l-3 2-2-1-5 4-4 5 2 6v1q0 12 3 13z"/><path fill="#ab6d29" d="M498 372c-1 0-10-4-11 7q0 4 3 6 5 1 11 6 5 7 4 11l-1 4 3 15 2 11 7-4 5-15-6-29z"/><path fill="#4d2a15" d="m498 372 17 12 6 29-4 15-8 4-3-11-2-15 1-4q0-6-4-10-3-5-9-6l-2-1q-3-2-3-6 0-7 6-8zm0 0h-5q-6 0-5 7 0 4 2 5l2 1 9 6q4 5 4 11v4l2 15 2 10 7-3 4-15-5-29zm11 56q1 1 4-5l-4-6 4 3 2 2 1-6-3-5-4-2q1-1 4 1l2 1-1-6-3-4-3-1h4l2 2-1-6-4-4h-2l-1-1h3l2 1-1-1-7-5-5-1 2-2h1l-4-2h-8l1-2 2-1q2-1-1-2l2-2 6 2 12 10 6 7 4 12-1 20-8 7h-4z"/><path fill="#d2a567" d="m498 377-1-3v-2l-7 1q-2 6-1 8l3-2h5l-2-2-3-1h3z"/><path fill="#8f4620" d="M510 430h-2l1 14 11 24h6l2-4 1 1c1 1 3 6 5 7l4 3 8 13v-4l-2-7-2-4-1-2 3 1 2 2 3 3 2 2v3l1 1v4l2 4 2 4 1-1-1-5-3-12-2-4 3 3 3 4 1 5 1 3 1 4 1 3 1-1v-2l-1-8-1-8 2 1 2 5v7l1 7 2 8 2 4 2 3v-4l-3-29v-2l2 2 1 4 1 4v4l1 6v6l3 7 1 4 1-4-1-32 2 2 2 2v7l1 20 1 5 5-51h3v-1l-2-2-5-10-3-10-6-13-10-16-8-9-3-3v-2l2-3h-5l-3-2-7-7-7-5-5-2-10-5-10-3-4-1-5 1-2 2-1 5q0 3 4 5l10 8 3 5 1 2v1l3 21-5 10z"/><path fill="#ab6d29" d="M521 463q0 3 5 2c2-3-1-11-1-12h1l2 4v6q-1 6-3 6l-3-1z"/><path fill="#4d2a15" d="m585 520-2-8-1-7-1-17v-6l-3-4-1-2h1l1 1-1-9-6-16 1 1 1 2 3 3 6 3 4 1 2 6 1 14-1 12c-2 5-2 19-2 21z"/><path fill="#8f4620" d="m585 496 2-4-1-25-7-5 4 13 2 11z"/><path fill="#4d2a15" d="M576 508v-17l-1-9-4-12-3-12-3-3-1 2-2-1-1-2 1-3v-4l3 4 6 6 3 16 3 10 1 17-1 14zm4-45 2 3 3 2-4-2-1-1zm-13 40 1-8-2-16-6-9-3-10-3-5v-6l6 4 2 2 3 16 2 5 2 7 1 15 1 12-1 1zm-6-8-1-9-3-9-6-10-6-10v-6l3 3 3 3 2 7 2 5 3 5 1 2 2 8v4l2 6-1 3zm-5-1-1-1v-4l-2-7-1-5-7-8-6-7-3-2-1-7 4 4 3 2 4 10 2 2 4 5 1 4 2 5 1 6zm-8-3-3-6-1-5q-2-5-6-9l-5-8 1-2 1 2 7 10 2 5 2 6 1 2 1 4zm24-39c1 0 4 7 6 1l-1-8-6-12-9-15-5-4 1 4 9 17zm-27-46s9 11 15 22q9 17 7 20-2 0-6-5l-9-17-8-10-4-9zm-5 22 9 11 5 9 3 3-1-4h2l-18-25zm-1 0 5 9 6 8 1 5s-7-7-8-6l2 5-3-1-3-7-2-5-2-8zm-24 19c0 1 3 5 6 2q2-8 1-10c0 1 5 11 7 2l-3-9 1-1 3 6 3-5c0-4-3-10-3-10l3 4s5 1 5-3-4-9-4-9q1 1 3-2-2-4-5-6 0-4 4-3 3 4 7 1v-4l-4-1-5-4-4-2-4-2 1 4 1 11v5l1 10-2 9-1 1-1 1-2 5-2 3-3 4z"/><path fill="#ab6d29" d="m544 472-3-6-6-3 6 9zm9 3-4-9-5-7h-1l1 6 4 6zm7 0-3-11-5-8v6l2 5 3 6zm6-2v-14l-4-5-1 2 1 8 2 7zm5-18 4 5 4 16-1 1-6-12z"/><path fill="#d2a567" d="m531 462 3-1-3-7h3l-2-8c2-1 4 6 4 7l1 6c-2 6-5 3-6 3m7-7 5 1-4-6-1-2h4l-4-7h1l4 6q3 4 3 10c-2 4-7 0-8-2m21-5v-4l2-1-4-2-2-1 3 5zm-14 1 8 2-6-8v-1h3v3l3 4v-6l3 4c1 1 5 5 5 3l1-3s1 5-1 6l-4-1-1-2-1-2v5h-6zm17-4 8 6-2-15c1 0 6 14 4 17h-3l-4-3zm21 26 2 1v1h-2zm-8-31 2 1 1 1h-2zm-2-5h2l1-2-2-1-1-1h-2zm7 28 3 2 2 1h-3l-1-1zm-13-43h2v3h-2l-2-4zm-10-14h2l2 2 1 7c-1 1-5-4-5-5l-3-4zm-5-3q2 1 3-2l-2-4-4 3zm-10-7 2 1 6-5 3 1v3l-7 3h-2l-2-1zm-1-8-4-4 3 7v6h1l1-1v-4l-1-1zm-9-5q-6-8-9-8l8 8 2 8h1l1-1-1-2-1-2v-1zm-9-6q-7-6-15-8t-8 3 8 6l8 2 6 4-4-5-4-4h3q5 2 8 7l1 6h1v-4l-2-4zm-15 50q5 1 9-11c0-7-4-22-4-24l2 2c1 2 4 12 4 20q1 9-5 13-5 3-6 2zm8 23 3 2q4-1 6-7l-3-6v-2l2 1 1 5 2 1 3-5q-1-5-3-7v-3l2 1 1 4 2 1q2 0 3-4l-2-5v-2l1 1h2q4 0 4-3l-2-4v-1h1l2 3v4l-2 3-3 1 1 2v4l-2 2-3 1v4l-1 3-4 2h-1v2l-2 3-4 3h-2zm20-36s5 3 6-1l-6-11-1-2 3 4q3 1 5-1v-4l1-1 2 1v4l-2 10s0 4-2 4q-5-1-6-3m6 55-2-3-4-4 4 7zm8 2-3-7-4-5 1 6zm9 1-4-8-3-8v2l2 6 3 6zm6-3-1-9-3-6v6zm12 5-3-9-3-8 1 5 2 9zm11-14-6-5q-7-4-8-3l2 2 4 4 6 2z"/><path fill="#202020" d="m543 459 2 7 7 9 3 11 2 10 1 3-2-3v-4l-4-15-10-13-2-6zm10 29-2-8c0-2-5-7-6-8l-4-2-6-8v1l7 10 4 11 1 5q0 3 2 3l1-1-4-6-3-12-1-1h2l7 8zl3 7h1zm-8-37 5 4h2l3 13 5 7s0 9 2 15q3 12 2 15-2 0-3-8l-3-12-4-9h1l3 9 3 10 1-2-2-8-1-9-4-6-4-11v-2l-3-2zm10-1 3 4 3 1s0 7 3 13l5 8 1 13 1 15v19c-2-2-1-10-2-13l-4-14-2-16q-2-5-3-4 1-1 3 4l2 15 5 14-1-18-2-14-4-9-3-11-2-2q-4-3-3-5m7-3 4 6 5 2 2 14 5 8v25c1 7 1 27-1 27-2-1 0-15-1-19l-2-6-3-21-2-7 3 6 2 21 3 8-1-29c0-2-5-13-5-18l-1-7-4-4zm11 5q-1 1 6 6l9 4q2 1 3 19c0 10-1 9-3 18l-2 29-1 4-1 5q-2-2-2-5l1-11-1-11-1-27-4-6q2 0 4 5l2 28v-3l2-19-4-19 2 4 1 1 1 1-1-1-1-1 2 16v30l2-20c2-10 3-11 3-18q-1-13-4-18l-8-4q-5-5-5-7m-55 3h2l6-5v-3l1 1q3 0 4-4v-6h2q2 0 3-5l-1-5 2 1q3-1 4-4 0-5-4-6h4q3-1 2-4-1-6-4-8h5l1-5-1-1 4-1 6-2-4 4 3 4 1 1 5 1h-3l8 12 2 1 2 1-3-1 7 11 2 1h-2l5 12s-5-11-11-19l-7-9 7 13 4 11s-6-15-14-25l-9-11-2 8 12 15 11 21q0-2-12-20l-11-13-2 3-2 1 7 10 3 1 2 3-2-2h-2l6 9 3 2 3 2-3-2h-2l4 7-12-15-7-8q1 2-2 2l-2 1 8 11 6 10-7-9-6-7v3l7 11-8-12-2 2-2 1 10 15-9-10 3 11-5-11-2 3-3 1 7 11-8-10v2l2 7-3-6-2 2-2 1 2 3 1 5-1-5-3-3-2 1zm70 7 2-1-3-3c-2-3-8-23-14-34-10-17-19-26-19-26s11 9 20 25l13 33 5 5-2 1zm-74-15 4-4-3-2-1-4 2 3 2 1q3-1 5-5l-3-2-1-3 2 3h3l3-6-3-2-2-4 3 3q3 1 3-1v-9h-4l-2-4 3 3 3-1v-6l-2-4h-3l-3-4q0 2 3 3 3-1 3-3l-2-4-1-3h-3l-3-3 3 2 3-1-4-7-5-6 6 6 4 6h3l-1-4-3-6 4 6 1 5 6 3q1-2-1-5l-1-3 2 3 1 5-1 1 3 3 4 2 1-4-1-5 1 5v4l2 2-4-1-12-8 7 8 3 6-3-4-7-5 2 2-2 3 7 9-2 1-4-3 2 3-1 3 4 6-2 3 3 4-3-3-2-2-2 4 2 4v5l-3-4h-1l-2 5 2 3-1 5-3-5-4 4 2 3h-3zm40-49 1-2 1-3-5-1-7-5s-14-14-36-19q-10-1-10 3l1-2h8c3 0 25 6 36 18 1 1 5 6 8 6h5l-2 3zm-39-2-4-6c-3-4-12-9-12-10l2 2 10 9z"/><path fill="#d2a567" d="M515 415q1-1-2-3l-4-3 4 2zm-1-10q1-1-3-3l-3-2 4 1zm-1-9-3-3-4-2 4 1q4 3 3 4m-3-5q1-1-6-4l-6-2 8 2zm-9-7-5-2-7-1h10q3 2 2 3"/><path fill="#f8c83c" d="M476 493q0 2 4 4 5 3 5 5l-3 3h-7l-2-5z"/><path fill="#977c2e" d="m476 493 4 4q3 0 5 5v1l-3 3-7-1-3-5zm0 1-3 6 2 5h7l3-3-5-5q-3 0-4-3"/><path fill="#f8c83c" d="m476 490-3-7v3l-1 3 1 3z"/><path fill="#977c2e" d="m476 491-3 2v-1l-1-3 1-3-1-2v-2l1 1 2 4q2 3 1 4m0-1-1-3-3-4v1l1 2-1 2q2 3 1 4l1-1z"/><path fill="#f8c83c" d="M475 499h2l2-1z"/><path fill="#977c2e" d="m475 498 2 1 2-1-2 2z"/><path fill="#f8c83c" d="M474 496q2 0 3-4l-1-2-3 2z"/><path fill="#977c2e" d="m474 497-2-4 2-1 2-2 1 1 1 2zm0-1 3-4v-2h-1l-2 1-1 1z"/><path fill="#f8c83c" d="m471 498 2 3 3-2-2-3h-3z"/><path fill="#977c2e" d="M471 498v-2h3q3 2 2 3l-1 2h-2q-2 0-2-3m0 0 2 3 2-1 1-1-2-3h-3z"/><path fill="#f8c83c" d="m475 496-4 1-2-3h2l2-1 1 1z"/><path fill="#977c2e" d="m475 496-1 1-2 1-2-2v-2h2l1-1v-1l2 2h1zm-1 0v-2l-1-1h-1l-1 1h-1l-1 1 1 1 1 1h2z"/><path fill="#f8c83c" d="M472 497q-2 3-6 5c-1-1 1-8 1-8l2 1z"/><path fill="#977c2e" d="M472 498q-4 6-6 5v-5l1-5 2 2zm0-1-3-2-2-1-1 7v1q2 1 6-5"/><path fill="#f8c83c" d="m465 492 5 3-4 1z"/><path fill="#977c2e" d="M465 492q6 2 5 3l-1 1h-3zm0 0 1 4h3l1-1z"/><path fill="#202220" d="m452 499 3 4q4-1 5-3l-6-3z"/><path fill="#4b4139" d="m452 499 1 2 2 2 5-2v-1l-6-3zl2-2 5 4 1-1h-1v1l-4 1-2-1z"/><path fill="#202220" d="M454 498q0 2 4 3l5-2-5-5z"/><path fill="#4b4139" d="M454 498q0 2 4 3 5 1 5-2l-5-5zl4-5 5 5-5 2-3-1zm0 1 3 2h3-4l-1-1z"/><path fill="#202220" d="M458 496q0 3 3 4l3-1-3-6z"/><path fill="#4b4139" d="m458 496 1 1 3 2 1 1 2-1v-2l-3-5zl3-4 3 6v-1 1l-3 1-2-2zm0 1 3 3h2-3l-1-1zm-5 3 2 2 3-1v1h-1l-2 1-1-1-1-1z"/><path fill="#f8c83c" d="m465 491 3 7q1 4-2 4l-4-5-1-3z"/><path fill="#977c2e" d="m465 491 2 3 2 4-1 3-2 2-2-2-2-4-1-1v-2zm0 1-4 2 1 2v1l4 5 2-1v-3l-1-4z"/><path fill="#f8c83c" d="m452 490-3-1v4l3-1z"/><path fill="#977c2e" d="m452 490 1 2v1l-4 1v-6q2-1 3 2m0 0-2-1-1 2 1 2 2-1z"/><path fill="#f8c83c" d="m452 492-3 1 2 4 3-1z"/><path fill="#977c2e" d="m453 492 2 4-3 1-2-4zm-1 0q-3 0-2 2l1 3 2-1z"/><path fill="#f8c83c" d="M453 495q-1-1-3 2l2 3 2-2z"/><path fill="#977c2e" d="m453 495 1 3v1l-2 1-1-1-1-2q0-2 3-2m0 0-2 2v2l1 1 2-2z"/><path fill="#f8c83c" d="m454 486-1-1q-2 1-2 4v4l5-1z"/><path fill="#977c2e" d="m454 485 2 7-5 1-1-4q0-3 3-4zm0 1-1-1q-2 1-2 4v3l4-1z"/><path fill="#f8c83c" d="m455 490-4 2 2 4 4-3z"/><path fill="#977c2e" d="m455 489 2 4q-3 4-4 3-2-1-2-4zm0 1q-4 0-4 2l2 4 3-3z"/><path fill="#f8c83c" d="m458 497-4 2-2-4 4-2z"/><path fill="#977c2e" d="m458 497-4 2-1-2-1-2 4-3 1 2zm0 0-1-2-1-2-3 2v2l1 2z"/><path fill="#f8c83c" d="m461 482-3-1q-4 1-4 4v6l6-3z"/><path fill="#977c2e" d="m461 482-1 6-6 3v-6l1-3 3-2zm0 0-3-1q-3 0-4 4l1 5q1 2 4-3z"/><path fill="#f8c83c" d="M457 494q-3-2-3-5l5-3 1 5z"/><path fill="#977c2e" d="m457 494-1-2-1-3 2-2 3-1 1 5q-1 4-3 3m0 0 3-3-1-5-3 1-2 2 1 3z"/><path fill="#f8c83c" d="m461 494-2 3q-2 1-3-2-1-2 1-3l2-1z"/><path fill="#977c2e" d="M461 494q0 2-2 3-1 1-3-2v-3h1l2-1h1zm0 0-2-2-2 1-1 2q1 3 3 2z"/><path fill="#f8c83c" d="m459 489-1 3 3 3 3-1 2-4-2-3q-2-2-5 2"/><path fill="#977c2e" d="M459 488q3-3 6-1l1 3-1 3-1 1-3 1-3-3q-1-3 1-4m0 1-1 3 3 3 3-1 1-1 1-3-2-3q-2-1-5 2"/><path fill="#202220" d="M463 481h-3l-2 4 1 4 2-1 2-2-1-2z"/><path fill="#4b4139" d="M463 481h-2l-3 3v2-2l3-3z"/><path fill="#f8c83c" d="m514 533 2-1 3-2 1 5-3 2-2-1-2-1z"/><path fill="#977c2e" d="m513 533 6-3 1 5-3 2h-2l-2-2zm1 0-1 2 2 1 2 1 2-2v-4z"/><path fill="#f8c83c" d="M510 533h4v4l-3 1-2-2z"/><path fill="#977c2e" d="M510 533h4l1 3-1 1-3 1-2-1v-4zm0 0 1 3 1 2 3-1v-1l-1-3v1h-2z"/><path fill="#f8c83c" d="m528 535-1-3-3-3v9h3z"/><path fill="#977c2e" d="m529 535-2 3h-3v-10l2 3 1 1zm-1 0-1-2-2-2-1-2v8l3 1z"/><path fill="#f8c83c" d="m510 533-2-1q-3 0-3 2v6l4 1 10-5h-5l-2 1-2-2z"/><path fill="#977c2e" d="M510 533v2l2 2 2-2 2 1h3l-10 5-4-1-1-6 4-2zm0 0-2-1q-3 0-3 2-1 5 1 6l3 1 8-5h-3l-2 1q-2 1-2-2z"/><path fill="#f8c83c" d="m515 537-1 1h-2v4l4 1 2-2v-3z"/><path fill="#977c2e" d="m515 537 3 1v3l-2 2-4-1-1-4h2zm0 0-1 1-2 1v2l4 2 2-2v-3z"/><path fill="#f8c83c" d="m531 537-1-1-2-1-1 2v2l1 1 2 1 2-1z"/><path fill="#977c2e" d="M531 537v3l-2 1h-2l-2-2v-2l2-3q2-1 2 2zm0 1-1-2-1-1-2 2v2l1 1 2 1 1-1z"/><path fill="#f8c83c" d="m519 534-2 1-2 2 2 3h2l4-2-1-3z"/><path fill="#977c2e" d="M520 534h3v4l-4 3-2-1-2-3 1-1 1-1zm0 0-3 2h-1l-1 1 2 3h2l3-3v-2z"/><path fill="#f8c83c" d="m534 540-1-1-2-2-2 3v1l2 2 2 1 2-2z"/><path fill="#977c2e" d="m534 540 1 2-2 2-2-1-2-2v-1l2-3 2 2zm-1-1-2-1-1 2-1 1 2 2 2 1 2-2-1-2z"/><path fill="#f8c83c" d="m528 542 1 1 1 1q0 1 0 0l3 4 3 1h1l3-4-1-1-1-4h-4l-2 3-1-1-2-2-1-1-1-2-2-1-1-2-3 2-1 3-3 1q1 1-2 2l-3-4-3 1-1 3 1 4q2 3 5 2 3-2 2-3l1-1 4-2z"/><path fill="#977c2e" d="m528 542 2 1v1h1q-1 3 2 4l3 1h1l3-4-1-1-1-3-4-1-2 3-2-1-1-2-1-1-2-2-1-1-1-1-2 2-2 2-3 1v1l-2 1q-3 0-4-3h-1l-1 1-1 2 2 4q1 3 4 2 2-1 1-3h1l2-2 3-2v1l-3 1-2 2q1 3-2 3-2 2-5-1l-1-5 1-3 3-1 3 4 1-1 1-1 3-1 1-3 3-2 1 2 2 1 1 2 1 1h1l1 2 1 1 2-3h4q2 1 1 4l1 1-3 5v-1h-5l-2-4v-1l-1-1z"/><path fill="#f8c83c" d="M524 524v12q-2 3-5-1v-6z"/><path fill="#977c2e" d="M525 524v6l-1 6-3 1-2-2v-6zm-1 0-5 6v5l2 2 3-1z"/><path fill="#f8c83c" d="m520 541 2 2 1-1 1-1 2 3q2-1 2-3z"/><path fill="#977c2e" d="m521 541 1 1 1-1 1-1v1l2 1 1-1v-1h1v2l-2 1-2-2-1 1h-1z"/><path fill="#202220" d="M502 543v-4l3 1 1-3-1-3q-3-1-6 4 2 6 3 5m8 10q-2 0-1-4h2v-3l-2-3q-3 0-3 5 2 6 4 5m27 1c1 1 5 4 6-2q-1-6-3-7l-2 2-1 2 2 2q1 5-2 3"/><path fill="#4b4139" d="M510 553q-2 1-5-6 2-5 3-4l-2 4q1 7 4 6m-8-10q-1 1-3-5 3-6 6-4-3-1-6 4 2 6 3 5m35 11 3 1q2 0 3-2 1-4-1-6l-2-2 2 2 1 6-4 2z"/><path fill="#904720" d="m473 408 1-2 3-1 3 1h3l1 1 2 5-6 3h-1v-2l-1-3z"/><path fill="#202020" d="M526 514v-10l-23 5 9 11z"/><path fill="#d2a567" d="m484 490-2-2-2-2h-2v1l2 3 4 3 1 2h1zm-1 4 2 1 1 2 1 2 1 2v2l-2-1-8-4 1-2 1-1 1-1zm5 8h2v-14l-6-10-1 5 2 9 1 5z"/><path fill="#ab6d29" d="M484 482v4l3 14-2-4s-3-9-2-16c0-6 1 2 1 2m4 6-1 3v5l1-3 1 5 1-8zm1 18-7-3q-5-3-5-5l7 2 3 2h2l3-1v4zm-11-3v2h-3l6 3 2-2z"/><path fill="#d2a567" d="m476 500 2 2h4l1 1 1 1-1 2-4-3-3-1z"/><path fill="#ab6d29" d="m491 499 1 2 1-4v-5l-3-2z"/><path fill="#4d2a15" d="m484 490-2-4-2-6 1-3 2 4v4z"/><path fill="#d2a567" d="m470 503 3-2 4 1 4 4 1 1-8-2z"/><path fill="#8f4620" d="M491 490v7l1 4-2 2-3-1h3l-1-5-1-4-1 1 1-8z"/><path fill="#ab6d29" d="m477 502-1-2 5 4h4l2 1-1 2-3 2h-1l-1-4z"/><path fill="#8f4620" d="M484 490s-5-6-6-11q-2-7-1-9l5 8-1 3z"/><path fill="#ab6d29" d="m481 512 1-3c3-4 10-6 10-6v6l-10 4z"/><path fill="#8f4620" d="m482 508 2-2-4-2-4-2 4 3 1 2zm12 3-2-4v-4l-2 1-3 1q2-1 4 2l-5 1 3 1-3 1-4 1-1 1 2 1h5z"/><path fill="#ab6d29" d="m494 511-3-9v-10l2 2 3 6z"/><path fill="#8f4620" d="m495 498-1 7v6l3 5 1-1 1-4v-6z"/><path fill="#202020" d="M499 505c0 1 1 11-2 11l-3-5 3 5c2-1 1-12 1-12zm-5 6-1-1-5 2h-7l7 1z"/><path fill="#ab6d29" d="m485 495 1 4 2 4v-1l-1-4-4-6z"/><path fill="#8f4620" d="M482 509v-2l-5-2-7-2 10 5z"/><path fill="#202020" d="m482 509-5-2-6-3 6 3z"/><path fill="#ab6d29" d="m483 494-4 1-2 3 2 1 1-4z"/><path fill="#8f4620" d="m477 486 3 3 3 3 2 3-6-4zm5 2-2-2-2-1-1 1 2 3h1l-2-3z"/><path fill="#202020" d="m494 483 26-12 13 22-23 4-12-1-5-6z"/><path fill="#4d2a15" d="m529 497 33 38-4 3-8-4-15-21-6-8zm42 33-19-20-23-24v10l27 33 9 7 4-1 3-3z"/><path fill="#803f1d" d="m529 500 17 22c7 7 13 15 15 14l1-2-33-36z"/><path fill="#4d2a15" d="m552 536-3 2-4-2-20-27 1-5 3 1z"/><path fill="#202020" d="M571 530c-1 0-3 6-8 4-5-3-34-39-34-39v3c0 1 29 36 35 39 6 1 10-3 9-4z"/><path fill="#803f1d" d="m526 505 14 21q8 10 11 11c2-1-1-3-1-4l-14-18-7-10z"/><path fill="#202020" d="m528 505 26 33c4 2 9-2 9-2l-2-2v1s-1 3-6 1c-5-3-26-32-26-32z"/><path fill="#4d2a15" d="m537 534-8-13-2-4-1-5 17 23-2 1-2-1z"/><path fill="#202020" d="M552 536q0 2-4 3l-5-4-16-22-1-3c1 0 18 25 22 27q3 0 4-2zm-9-2q1 3-3 2l-3-2-10-15v-4s10 18 13 20q3 1 3-2z"/><path fill="#b07229" d="m533 496 10 12 5 1-3 1 6 6 5 2h-3l5 6 6 1-4 1 7 8-9-8-1 3v-4l-6-6-1 3v-5l-5-6-1 3-1-4z"/><path fill="#4d2a15" d="m516 525-1 5c-2-1-5-8-5-9l-1-8 5 6zm13 0v-5l-1-5-1-3v-2h-1l-3 2-1 3 2 5 1 6 2 1zm-3 7-1-6-3-10-1-3-2-1-2 2 1 3 3 9z"/><path fill="#202020" d="m523 513 2 5 2 7-2 1 4 3v-4l-1-1-2-8v-5l3 9 1 1-1-6-1-4v-5l1 1 2-3-1-11-10 15zm0-2 1 10 2 5v6l-4-13-1-6h-2z"/><path fill="#4d2a15" d="M522 535v-6l-4-10-4-5-2-4v7l5 11z"/><path fill="#202020" d="m507 512 1 4v2l3 7 3 6 2-3-2 2-4-13-1-2zm11 12-3-6-2-4-1-3 3 3 3 2z"/><path fill="#5c3a1d" d="m511 517 6 11-4-6z"/><path fill="#202020" d="m519 515 1-2h2l-2-2-2-3zm-1 1 3 12-3-10z"/><path fill="#4d2a15" d="m522 511 1-11-1-4-4-11-2 1-4-4v5l-1 4 9 19z"/><path fill="#8b441f" d="m506 516 2 2-1-6-12-20zm7-5-1 6c-3-1-13-19-15-22l-7-8 7 3 15 19z"/><path fill="#5c3a1d" d="M513 511v3l-1 3q-2 0-14-19l-1-3q-7-6-7-8h1l3 1 3 2 15 19zm0 0v-2l-15-19-7-3q0 2 7 8l1 2q11 21 14 20l1-3z"/><path fill="#202020" d="m506 516-1-4-1-4-9-16-3-3v4l6 12z"/><path fill="#4d2a15" d="M518 516v-7l-7-18h-2l-3-4-2-3v9l5 12zm7-9 2-2-1-8-4-18-3-1-2-3 1 11 5 15v5z"/><path fill="#202020" d="m512 509-6-9-2-6h-3l-4-4s-1 2 5 11c8 9 10 8 10 8"/><path fill="#8b441f" d="M522 513c2-1 2-10 0-16l-4-12 4 14q1 7-1 7l-2-7-2-5 4 16c-2-1-9-19-9-20l-1 1c1 0 6 22 11 22"/><path fill="#4d2a15" d="m526 470 3 8 1 8v7l-1 14-2-2-3-16-2-16 1-1v-2z"/><path fill="#8b441f" d="M518 516v-4h-2l-2-6-1-3-2 3-7-13v1c0 1 8 21 14 22"/><path fill="#202020" d="m514 506 1-5-4-10-2-1-3-3zm5-3-3-13-4-8v6l4 5zm6-10-3-20 1-1h1l1 5-1-7-1-1-1 3-1-1v1l1 4-1 3 2 6zm5 0v-16q-3-9-4-8l-1 1a55 55 0 0 1 5 23m-8 4-2-13-1-7-2-2 1 7v2l2 5z"/><path fill="#904720" d="M526 509c2 0 1-10 0-13l-4-17 4 20c-1 1-3-5-3-6l2 13-2-3v3zm2-5-1-15-3-14 4 14 1 17-2-2v-1z"/><path fill="#312317" d="M513 514q2 3-1 4l-5-6 5 5 1-6z"/><path fill="#d2a567" d="m522 466 3 1q3-2 3-5l-1-5 2 5q1 5-4 8c-4 0-2 0-2-1z"/><path fill="#8f4620" d="m519 456 3 10v6l-1-2z"/><path fill="#1e2121" d="m476 456 16 30 20-24-13-18z"/><path fill="#4d2a15" d="m496 442-1 4 2 8 4 4 4 4v-3l1-4 1-1 3 2 1-3 3-5v-2l-1-2-4-9-2 3-1 1-2-2-3 4-4-3z"/><path fill="#5c3818" d="m505 462 1-3-1-11-2-8 2 12-1 10zm0-11c1 0 3 4 4 3 2-1 1-7 0-9l-1-6v-1l2 6v11c-2 1-4-3-4-3z"/><path fill="#8f4620" d="m497 453 2-2 1 1 1 4 2 4 2 2-1 1h-1l-5-5z"/><path fill="#d2a567" d="m503 494-6-4-10-14-1-6 3 2 6-2 1-3 7-3 4-2 9 1 2-4 3 8v11l-4-3s2 10 0 11l-6-5v9q-4-1-8-5s2 7 0 9"/><path fill="#8f4620" d="m501 481 2 4v6l-4-6-3-8zm17-21c0 1 3 15 2 16l-6-7-7-12-1-2 1-1 2 2zm-21 25-3-3-4-6-5-8 1-1h1l9 10zm12 2-8-9-5-10-1-4 1 1zm2-6-4-5-1-5zm3-1-6-10-3-5-2-1 1-1 1-1 2-2 6 16z"/><path fill="#ab6d29" d="m497 490-1 1c-2-1-11-8-16-17l-4-10 1-2 15 22z"/><path fill="#8f4620" d="m497 490-1 1q-2 0-11-12-9-13-8-14v-4h1l11 20z"/><path fill="#4d2a15" d="M507 484a53 53 0 0 1-11-18l2-1v-3l1-1 2 2 4 6 1 2 2 7-4-3zm-6-3 1 3q0 3-2-1l-4-6v4l-5-6-4-8v-9l1 2v1l6 9 1-1 3 8zm-20-14 8 15 8 8-12-20zm32 10-4-7q-3-6-3-10v-6l6 9 2 7-4-3zm5-5-3-5-1-6-2-6v-6h2l3 5 1 7zm-34 10-7-13-1-5 1 1q-1 1 7 14l7 9 1 5z"/><path fill="#202020" d="m490 491-9-13-7-13 2-2s3 10 6 14zm7-1-9-12-5-9 3 1 3 7zm-1-13-5-8-3-8 6 8h1v4zm2-19v5l-2 2 3 5 4 3-3-5-2-5q2-1 4 2l4 6-2-7zm13 12-3-8-2-10v5l-2 6h-2l1 1 2-1 1-2 2 4zm-5-18s2 4 4 3l1-7 2 1 1-3 5 10 2 11-4-11-4-7v6l2 6 2 7-3-5-2-3-3-3-3-2z"/><path fill="#171717" d="m495 468 3 7 3 6-4-6z"/><path fill="#8f4620" d="M516 473h-2l1 4 2 2v-6z"/><path fill="#d2a567" d="m478 440-1 2-3 5 1 9 3 6 7 9 2-6v-6l7 10 3-7-6-19-2-2z"/><path fill="#ab6d29" d="m492 457 2 7v5l4-7-1-12v-9l-2-2-3 7zm-11-5 4 15 2-8-1-10-1-8z"/><path fill="#45392d" d="m473 436-5 12 2 8 2 11h1z"/><path fill="#ab6d29" d="M473 437s-4 7-4 12l2 8 2 10 2-1 3-4-1-4-1-3-2-3 1-7 1-5v-2z"/><path fill="#dbad6c" d="m496 454-3-2-1-2v-1z"/><path fill="#d2a567" d="M474 438s-3 7-3 13l3 13 1-2-1-16 2-5v-3z"/><path fill="#8f4620" d="M481 441v3l-2 4-2 5 2-4 2-1v5l-2 3v4l1-3 1-2 2 5v-4l2-3v-10l3-1-3-4z"/><path fill="#dbad6c" d="m495 459-2-1-1-1v-1l2 1z"/><path fill="#8f4620" d="m476 457-1 3v2l-1-6-1-4v1-8l-1 1-1 2 1-3 3-5v-2h2l1 3-1 2s-1-1-2 5zm14-14v5l-1 3-1 4 1-2 1-2 1 3 1 5 1-2h1l1 2-1-2-1-3-1-4q1-1 2 1l2 3-1-2v-9l1-3z"/><path fill="#1e2121" d="m507 439 1 6 1 7-2-7-2-7-2 3 2 8-2-5-1-4v4l1 5-1-2-1-2v4l2 4-2-3v-1l1 6 2 6-3-6-2-15 2-3 2-8 2 8zm-13-4 1 3 1 1-4 4-4 2-1-2 4-3 2-4zm-17 4s0 4 2 4l6-5v-3s-4 5-6 5zm0-6v5h-4v-3h2zm32-1 2 7 2 5-3-4-2-2 1-2z"/><path fill="#dbad6c" d="m473 435 2 1 1-1 1-2v5q0 3 2 2l3-1 3-3 1 5q0 3 3 1l4-5 1-1 2-2 1-10-1-1-2 1-2-2-1-1-2 3-1 1h-3l-1-2v-2h-1l-4 4-2-1-2 4-1 2z"/><path fill="#8f4620" d="m491 428-1 6-3 7q2 0 6-7c2-4 1-10 1-10zm4-4v4l-1 8 1 2 3 3 3-3 2-5h1l1 4 3 2 1-2-2-8-3-8-1-3h-5z"/><path fill="#ab6d29" d="m503 418 1 7-1 7v-7l-1-5z"/><path fill="#4d2a15" d="M509 433v4q-1 2-3-6l-2-8-1-5h2zm-11 6q2 1 5-10l-2-11s0 7-2 11l-3 7 2-1 1-2v3zm-4-15q1 1-2 3-3 3-5 3l4-4v-4l-1 2-3 1 1-2v-2l2-4 2 4z"/><path fill="#1e2121" d="m507 416 2 17-3-6-1-6-2-2-1-1 1-1v-2l2 1zm-9 16 3-8v-6l-2-1-2-4v6l-3 5h3q3-3 2-4v4z"/><path fill="#8f4620" d="m471 435 3-6 3-6 1 1 4-3 2-4 1 6 2 2-1 5-1 6v-6q-1-2-2 1l-1 3 1-4v-2h-1l-1 1 1-2 1-3 1-1v-2l-2 2-2 2-2 5-1 5h-1l1-4 2-6h-2l-3 5-1 5z"/><path fill="#874f20" d="m509 413-2 3-3-1-1-3z"/><path fill="#b27129" d="m478 415-1 3-2 4 2 2 2-9z"/><path fill="#dbad6c" d="M498 413s-1 11-4 11c-2-1-4-6-4-7 0 1 0 7-4 8q-2-3-2-8 0 2-3 5-5 3-5 1l3-8 1-1q1-3 2-2l5-2 2-3 2 1 2-3 4 5z"/><path fill="#b27129" d="m487 400 4 7h1l1 2q-2 3-1 7v-4l1-2 2 11 1-8q1-3 1 0c1 1 3 6 5 6q3-3 2-6l-2-7-9-9-1 3q-3 2-5 0"/><path fill="#8f4620" d="m500 401 2 3-1 12-4-3v-7l-2-6v-3l2-1z"/><path fill="#4d2a15" d="m499 398 4 8 4 6 2 1q-1 3-5 1l-3-9-4-8 1-1z"/><path fill="#1e2121" d="m497 394 5 6 4 9 3 4h-2l-2-3-4-9-4-4 3 5 2 6-2-4-5-7 3 6 2 6-3-5-3-4-2-4h3z"/><path fill="#8f4620" d="m488 400 5 1 1 3-1 4-1-3z"/><path fill="#b27129" d="m489 408 1 7-4 8v-8l-1 2 1-4v-2z"/><path fill="#8f4620" d="m485 410-3 1-1 2 1-1v2l-3 5 4-4 1-3 2-1 1 2v5l2-5v-5l-1-1-2-2z"/><path fill="#dbad6c" d="M497 391q1 1-1 4l-2 1-3-1-5-4-4-2-1-1v-2l5 1 4 3 2 1 2 1h2z"/><path fill="#ab6d29" d="M497 391v2h-4l-5-4-5-2q-2 0-1-1l7 2 6 4z"/><path fill="#4d2a15" d="M481 386h2v1h-2z"/><path fill="#dbad6c" d="m493 397 1 4-4-2-6-5-4-1v-1l1-2v-1l4 1 5 3zm-5 2c0 1 4 7 3 9l-9-8-3 5-7-5 7-5v-2l4 2 5 2z"/><path fill="#ab6d29" d="m486 391 5 2 5 3-3 1-3-3z"/><path fill="#4d2a15" d="m481 388 3 2h3l-1 1-3-1h-2z"/><path fill="#ab6d29" d="m493 400 1 1-2 1-3-1-4-4-4-3-2-1h1l5 2 4 2 3 2zm-8 2 1 5-1 3-1 1-2-1v-3l-3-3 2-2 1-3z"/><path fill="#4d2a15" d="m480 392 2 1 3 1h2l-1 1 4 2 3 3-3-2-5-3-6-1z"/><path fill="#ab6d29" d="M491 406v2q-2 1-5-2l-1-2-4-4 1-1 5 4z"/><path fill="#4d2a15" d="m491 406-8-7h2-3l-1-1-4-2q0-1 0 0l-2 2h4q3 2 2 3l-2 3 3-2 2 2-1-2-1-2 5 3z"/><path fill="#dbad6c" d="M482 400s4 2 4 7c-1 6-3 4-4 2 0-2 0 1 2 1l1-4-1-4z"/><path fill="#6c3f18" d="m463 384-1 4q-1 5-3 7-6 5-5 6l2 2 7-10 1-7z"/><path fill="#dbad6c" d="m479 378 1 10c-1 6-7 10-7 10l-10 7-4-1h-2l-1-2-1-2 2-1 3-4 2-4 2-4-1-3 1 2 1 3-1 3 3-1 3-2 2-2 1-7v-3l1 4 1 5 1-2 2-2z"/><path fill="#904720" d="M480 409v3q0 3-2 3v-3l-2-2-3-2h1l2-1z"/><path fill="#ab6d29" d="m478 409 2 1 1-4-1 3-3-3-2 1h1l1 1h1z"/><path fill="#904720" d="m464 398 3 1 4-1 3-2q3-2 5-9v-9c0 1 5 8 0 16l-5 5 5 1v4q2 0 3 3l-6-1-4 2-3-1h-5l-6-3 3-4q2-3 3-2"/><path fill="#ab6d29" d="m475 385 3-3 1-4-1 4z"/><path fill="#904720" d="M474 380c1 0 2 8 0 11s-9 6-9 6 5-3 7-7l2-8z"/><path fill="#1e2121" d="m467 399 4-1 3-2-2 1-1-2-2 3zm5-9q2 1 3-8c-1-6-2-5-2-5l1 6zm3 1 3-2 1-5-1 4zm-1 17 2-2 2 3-2-2zm-5-6 6-1 4-1-4 4-5 1 5-3z"/><path fill="#fff" d="M463 395q3 3 1 6t-5 1z"/><path fill="#f16e16" d="M463 395q3 3 1 6-3 3-5 1z"/><path d="m462 397 1 2-1 2-2-1z"/><path fill="#d5d3ca" d="M462 400v-1z"/><path fill="#ab6d29" d="m464 392 3-6v-6l2 2v3l-1 4 3-1 2-11v7q-1 7-5 7-3 1-6 7l-4 5 3-4 2-5z"/><path fill="#904720" d="m463 394 1-6-1-4q1-1 2 4 0 6-2 6"/><path fill="#4d2a15" d="m468 390 1-5-2-5q2 0 2 5 1 5-1 5"/><path fill="#ab6d29" d="m457 403-1-2 3-4 3-5q2-2 1-8 1 1-1 8l-5 6q-3 1-2 3l1 2z"/><path fill="#6c4119" d="M478 415v-3l-3-3-3-1 2 3 3 1zm0 0q1 1 2-3v-3l1 2h1s-1 4-4 4"/><path fill="#bf802d" d="m461 412 2 2 1 1h6l1-2-1-3-4-1z"/><path fill="#f9c83a" d="m475 412-1-2-1-2-4-1-3 1h-2l-4-3-3-1-2-2-2 2v2h-1q-2 0-5 7c0 6 6 13 10 10 0 0-4-4-3-7q1-4 6-4 3 0 5-2t6 2c1 3-7 4-8 4l1 2c1-1 11-3 11-6"/><path fill="#8f4620" d="M475 412q1 1-1 2l-4 2-6 2-1-3 5-1 2-1h1v-1q-3-4-6-1h-1l-4 1q-5 0-6 4-1 3 3 7v1q-2 2-7-2-4-5-3-9 0-5 5-7v-2l3-2 2 1 3 2 4 2h5l4 1 1 2zm0 0-1-2-1-1-4-1h-5l-4-2-3-2-2-1-2 2v1h-1q-4 3-5 7 0 4 4 8 3 5 5 2l-3-7q1-5 7-5l4-1q4-2 7 2v2l-3 1-4 1v1l10-3z"/><path fill="#fcf3d8" d="M453 421c0-1-4-2-4-8q2-7 5-6l1-3q2-1 3 1l2 2s-8 3-8 9z"/><path fill="#fdeaaf" d="m475 411-4-3h-5l-3-1-7-4-1 2h-1l2-2c4 0 8 4 9 4h6q4 1 5 4"/><path fill="#513625" d="m462 413 3-1 4-1-3 2z"/><path fill="#f9c83a" d="m455 424-5-3-3-6 2-7q3-3 4-2l-1 1-2 2-1 2-1 2v3l1 2 4 4z"/><path fill="#8b5122" d="m454 404-1 1v1l1 1v1h2v-1h-2v-2zh-1z"/><path fill="#f9c83a" d="m462 410-6 1h3l3 1h1q5-2 7 0c0 2-6 3-6 3v1l5-1 3-1 1-2-3-2-4-1h-2z"/><path fill="#8f4620" d="m453 418 3 5h-3q-3 0-6-9v2l1 2 2 3 3 2 2 1h1l1-1-2-2-2-4z"/><path fill="#fcca3d" d="M472 482v2h-1zm-7-64-2-3h-1z"/><path fill="#816c2a" d="m472 487-2-2-4-1zm0-5-2-1h-2l-2 1v1l2-1zm0-5-4 2-3 1 1 1v-1l2-1 2-1zm-3-6v2l-1 2-3 3-1 1v1l2-3 2-2 1-1zm-3-2v4l-2 3-1 2v1l3-6zm-3-1-1 5-1 3v2l2-5zm-3-1v6l-1 4v1l1-2v-3zm-3 0 1 3-1 3v4l1-4v-6zm-2 0v4l-1 3v2l1-5zm-2 0v1l-1 4-2 3h-1v1l4-4 1-4zm-1-1-1 3-3 2v1l3-3zm-3-1v1l-1 1-3 2h2l1-1zm-1-2-2 3h-1 1zm0-1-1 1h-1v1h1zm-1-2h-2l1 1zm0-2h-1l-2 1h2zm0-4h-1l-1 2v1-1zm16-21h3v-1 1h-1 1-1 1-1 1-1v-1h1v1-1 1-1 1-1 1-1h-3zm0-2h1l1-1 1-1h-1l-1 1zm0-3h1l2-1 2-1v-1l-1 1-2 1zm-1-3 3-1 2-2v-1l-3 2zm-1-3 5-3-1-1zm-2-3 2-2 3-1-1-1-2 2zm-2-2 2-2 2-1h1v-1l-1 1z"/><path fill="#78732e" d="m461 412 4 5 3 9-4 9-11 10-5 5-2 6v1l2 6q2 4 5 4h1l9 1q3 0 7 4l2 11v8l-1 2v1l2-11q0-6-3-11l-7-5h-10l-4-4-2-6v-1q0-4 3-7l11-10q5-5 7-13l-3-10z"/><path fill="#a8ac71" d="M459 419v1z"/><path fill="#78732e" d="M463 433v-1zm-18 24v-1h-1z"/><path fill="#fff" d="M442 388v-1z"/><path fill="#f9c83a" d="m461 411 1 1z"/><path fill="#8f4620" d="M461 412q-1 0 0 0"/></svg>