<svg xmlns="http://www.w3.org/2000/svg" viewBox="0 0 1000 1000"><path fill="#007934" d="M8 195c171-85 342-54 514-28 155 24 312 45 470-34v672c-171 85-342 54-514 28-155-24-312-45-470 34z"/><path fill="#fff" d="M307 141c128 7 255 39 386 46v672c-128-7-255-39-386-46z"/><path fill="#007934" d="m504 209-3 38h-9c0 1 6 6 7 12v2q-5 2-8 0l8 13v1c-2 2-10 1-10 1s9 10 10 16v7c-1-1-15-19-25-16l-1 1c1 3 14 8 23 21-1 2-25-13-27-6 1 2 28 12 30 17-10-1-30-8-30-3-2 5 19 5 29 11q4 8-2 8c-10-8-29-15-29-7 2 2 20 4 28 11-11 1-43-12-44-8 1 2 6 12 15 13 10 1 30 10 32 14-1 3-27-12-38-7-10 6 30 8 38 17 6 10-14-3-14-3s-28-9-33-7l-9 7c0 1 3 8 6 7h1v1l-2 4s39 19 49 32c8 13-51-26-51-26-1 0-24 8 1 13q-1 9 2 10s41 18 46 28c4 10-28-13-36-19s-27-2-28 0v1c1 2 9 6 10 9v1c-2 2-11 3-12 5 0 3 53 27 68 45 14 19-42-26-42-26v8c-4 0-14-24-33-13-3 6 15 13 21 15-2 5-3 7 4 14l1 1v1l-15-12 2 11q-10-13-22-5s0 6 8 12c-4 11 4 8 18 21-21-10-22 2-8 8 15 5 55 13 65 31l2 7c-2 1-16-15-18-16h-1l-1 8q-8-8-19-14l-1 5q-8-11-22-14l-1 6c0-1-8-15-24-4-8 8 33 8 41 19 6 12 1 12 1 12l-17-11c-1 0-20-7-26-2-5 5 82 33 86 50 1 10-21-12-41-23l-2 8c-1-1-8-11-17-15v1l2 10s-22-16-33-11c-10 6 38 16 43 24l1 2c-2 2-15-7-18-4-2 4-25-12-25-6q1 9 3 10c1 0 50 14 53 23 0 8-28-9-29-9v9c-1-2-16-17-16-6-6-5-22-17-20-9 3 8 44 26 46 26-2 0-18 0-18 6-24-23-24-11-24-10-1-1-30-14-7 6q18 15 16 16v1h-3l2 9c-1 0-16-13-22-15-5-1-31 6-3 26 27 19 44 2 59 6q23 7 21 16c-2 6-15-24-30-2-17-7-28-11-20 7-27-17-44-2-9 10 34 6 54-3 55-3 0 0 5 14 14 6 8-8 8 4 8 5l8-3h3v94l27 4s-8-82-4-93c5-9 9-8 10-7 0 0 17 9 20 9 1-2 0-9 9-7 3-1 2-7 4-8v-1h1c3 1 57 29 70 10-4-11-14-3-17-2-3-1-13-8-20-3-6-6-31-14-32-14-2-4 61 11 66 8 7-10-14-11-18-8q-10-9-18-4c-3-7-23-7-35-11q-6-5-1-7c25 5 49 13 74 14 6-11-8-17-18-8-5-12-16-3-24-5-7-2-4-13 6-11 10 4 26 3 29-3 3-5-1-11-17-8-6-7-17-2-22 0-8-7-24-5-30-4-5-5 29-8 29-8q20 2 26-2c20-12 0-16-11-7-7-7-13-1-19 1s-16 2-18 1l16-12h25c2 0 10-4 11-6q0-3-15 0l-19-1-9-4v-1l11-1s28 0 31-2c0-16-24-12-25-12-1-11-22-3-24-3l-2-3 4-4c7-1 16-1 19-3 0 0 17 2 20-4-6-16-38-2-43 0l-1-1c-1-3 5-11 6-12 1 0 27 2 40-20 0-14-15 6-15 6-2-18-17-1-27-1-9 0-10-7-3-7s14 1 18-12 14 3 17-2c1-5-4-9-4-10 0 0 8-10-6-12-13-1-30-6-31-6 1-1 15-5 28-3 13 1 6-12-7-14s-19-9-19-9l21-8-1-8s12-11-5-11h-20l-36 2-4-4 4-3a171 171 0 0 1 47-2c2-3-4-17-19-22-17-4-27 2-28 2 0 0-10-7 0-10s26 5 26 5c1 0 18-4 3-10-15-5-20 0-27-1-1-5 23-2 26-6-3-7-19-3-29-4q-6-5 0-9l29 5v-23c-13-5-27-2-34-4 2-7 28-5 32-7 5-9-26-4-27-4q-8-4-2-9c9 0 27 6 26-2-2-7-13-5-18-5-5 1-12-1-12-1-2-6 27 1 28-4-1-5-19-4-27-5-4-5 24-4 26-4 0-13-20-4-24-4l-2-1v-8l8-4h-1l-6-5v-9l6-7v-1c-2-1-8 0-8 1v-8s5 0 6-4v-1q-4-3-7-3zm-6 133v5l-7-3v-1zm10 8c0 1 12 3 13 5h1c-2 3-14 3-14 3zm-1 11c1 0 6 1 7 3h-1l-6 2zm-39 8q7 0 28 11v7l-30-15v-1h-1v-1zm15 18 15 6v7c-1 0-16-9-17-12zm43 22q8 0 6 3c-3 4-23 5-24 5v-9zm-59 17q3 0 30 18v6s-31-17-32-20q-3-3 2-4m60 19 2 1v1c-3 3-18 6-18 6v-6zm-67-10c4 1 14 6 38 24v6l-37-23-5-3q-2-3 4-4m77 37h2v1c-4 4-27 6-28 6v-6c2 0 20-2 26-1m-69 3c7 1 28 17 29 18v6c-1-1-29-21-31-20q-1-4 2-4m62 13 3 1c-2 2-22 5-22 5v-6zm-1 17 2 1h1-1v1c-2 2-19 4-19 4v-6zm-72-9c4 0 14 4 39 20l1 7-43-26h1zm55 23c1 0 7 1 9 3v1c-2 2-8 2-8 2zm17 15 3 2-1 1c-6 6-19 5-19 5v-7zm17 10 3 1v1l-1 2c-3 2-35 11-35 11v-10q27-7 33-5m-21 23 4 1v1c-4 3-16 2-16 2v-5zm13 9 1 1v1c-6 4-26 6-26 6v-4zm12 8 5 2q0 4-7 7c-7-1-35 5-36 5l1-4c10-7 27-11 37-10m-73 11c13 4 17 11 18 13-3 5-21-10-19-13zm70 12h2v2q-5 2-8 0zm-26 14 2 1v2c-2 4-9 1-10 1v-3zm-49 5 7 5c5 0 16 4 16 4v7c-1-1-13-3-17-6-2-1-8-6-9-9zm55 12q3 0 1 4c-5 7-15 3-15 2l-1-5c4 1 12-1 15-1m-42 10 10 4q2 3 0 9c-3 1-14-4-15-10q2-3 5-3m-46-3c4 0 8 4 9 4v7s-8-5-11-11zm78 12q9 2 11 6v1c-3 3-14-2-15-2v-4z"/></svg>