<svg xmlns="http://www.w3.org/2000/svg" viewBox="0 0 1000 1000"><path fill="#007934" d="M8 195.3c171.2-85.4 341.7-54.4 514.3-27.9C677 191.2 833.8 211.7 992 132.7v672c-171.2 85.4-341.7 54.3-514.3 27.9C323 808.8 166.2 788.3 8 867.2z"/><path fill="#fff" d="M307.5 140.6c127 7 254.1 39.6 385 46.8v672c-127-7-254.1-39.6-385-46.8z"/><path fill="#007934" d="M503.6 209.2 501 247l-9.5.4c.2.2 6.2 6 7.7 11.3q.3 1.4-.1 2l-.4.4c-2.3 1.4-7.2 0-7.5-.1.1.1 7.1 9.7 8 13v.5l-.2.5c-2.3 1.6-9.7 1.3-10 1.2.1.2 8.7 10.3 9.7 15.5.4 4.7 0 7.3 0 7.8-1-1.3-15-19.4-25-16.6q-.7.3-.8.8v.5c1 2.8 13.8 8 23.5 20.4-1.2 2.4-25.9-12.6-27.8-5.8 1.3 2 28 12.2 30.6 17.2-10.7-1.3-30.6-7.8-30.6-3.2-1.4 5 19.4 5.4 29.2 11.1 2.6 5 2.5 7.8-2.3 7.8-9.4-7.3-28.3-14.4-29-7.1l.1.2.2.1c2.4 1.7 20.6 4.3 27.9 11.4-10.6 1.2-42.9-12.6-43.9-8.4 1.2 2.6 6.2 11.9 15.5 13.4 9.5 1.2 29.8 9.6 31.8 13.8v.4c-1.2 2-27.4-12.2-38.4-7.5-10.1 5.6 30.4 7.6 38.1 17.2 6.3 9.7-13.5-2.8-13.7-3-.4 0-28.3-9.3-33-7.6a45 45 0 0 0-9.2 7.6c.3.6 2.7 7.3 5.8 7h.9l.1.1v.2c0 1.3-1.9 4.2-2 4.3.3.1 39.8 19.3 49.1 32.3 8.3 13.1-50.8-25.9-51-26-.3.1-23.8 8.1 1.4 13-2.4 5.6 1 9 1.4 9.6.4.2 41.8 18.5 46.8 28.5 3.7 10-28.7-13.3-36.4-19.6-7.8-5.7-26.6-1.4-28.4.7v.4l.1.2c1.7 2 9.7 6.1 10.5 9.4v.5c-1.7 2.6-11.2 2.9-12.3 5.3v.2c.6 2.8 53.1 26.2 68 44.8 13.9 18.7-42.1-25.8-42.2-26 .2.6 2.8 5.8 0 7.5-3.4.4-14.1-23.3-32.7-12.1-2.6 5.7 15.4 12.6 21 14.2-1.8 5.7-3.1 7.3 3.7 14.2l1.3 1.4v.2c-1-.5-13.5-10.6-14.7-11.3h-.1l1.4 10.3c-6.6-8-13.7-11-21.2-4.9 0 .7 0 6.7 7.2 12.3-3.8 10.7 4.3 8.5 18.3 20.9-20.6-9.9-22 2.7-7.4 8.2 14.9 5.2 54.2 13.3 64.2 31.5 2 4 2.4 5.5 2.1 6.2-2 .8-15.7-14.3-18.2-15.7l-.1.2c-.4 1.6-1 8.1-1 8.2a69 69 0 0 0-19-14c-.6 1.4-.6 3.6-1.1 5-6.7-7.5-12.4-12.7-22-14.8l-1.2 6c-.2-.3-7.7-14.3-23.8-3.3-8 7.5 32.3 7.8 40.1 19 6.5 11.2 1.7 11.8 1.4 11.8l-17.1-11c-.6-.2-19.8-7.6-26.1-2.5-4.7 5.6 82.7 33.1 86.2 50.8 1.3 9.2-20.7-12.4-40.7-23.7l-2.3 8.6c-.6-.9-8-11.5-16.6-14.9v.2c.1 1.3 1.7 10.6 1.7 10.6-.4-.3-21.5-16.6-33.2-11.2-10.3 6.2 38 16.5 43.6 24.4q.7 1.2.7 1.8l-.1.2c-1.8 1.4-15.3-7.7-17.5-4.5-2.7 4-25.2-11.7-25.8-5.8.5 6.4 3.3 10 3.4 10.2.6.1 49.8 13.6 52.5 22.2.8 8.2-27.6-8.4-28.1-8.7-.2.3-2.5 5-.6 8.4l.2.3c-1.5-1-16.5-17-15.7-6-6.6-4.5-22-16.8-20.3-8.4 2.9 8.1 44.4 25.4 46 26.1-1.7 0-18.2-.6-18.2 6-24.3-23.1-24-11.3-23.6-10.2-1.5-.6-30.7-14.3-7.4 6 12.7 11 15.6 15 15.8 16.4v.4h-.1v.1h-.1c-.6.4-1.6.1-2 0h-.1v.1a86 86 0 0 1 2 9.1v.1c-1.1-.7-16.8-13.5-22-15.3-5.8-1.1-31 5.8-3.8 25.7 27.8 19.2 44.2 2.1 59.6 6.3 15.4 4.7 22.1 9.1 21 15.6-2 6.1-15-23.6-30.4-1.7-17-7-28-11-19.6 7-27.6-17.2-44.2-1.8-9.7 10.4 34.3 5.6 54.8-3.4 55-3.5.3.5 5.4 14.6 14.1 6.4 8.2-7.8 8.5 3.5 8.8 5.2.7-.1 8-3.4 8-3.4l2.1.3v93.4l27.8 4.7c0-.3-8.6-82.3-4-92.8 5-9.7 9-8.1 9.4-8 .4.3 17.8 9.7 20.1 9.3h.2v-.1h.1c1.3-2.1 0-8.5 9.2-6.6 2.5-1.5 2-6.9 3.5-8.5l.2-.1.2-.1h.4c3.5.4 57.3 28.6 70.2 9.9-3.7-11.3-13.7-2.8-17-2.4-2.8-.6-13-8.2-19.7-2.5-6.1-6.4-31.6-14-31.8-14.1-2.4-4.7 61.2 10.3 66 7.4 7-10-14-10.7-17.8-8-6.5-5.7-13.5-6.3-18.5-3.5-2.8-7.4-23.2-7.4-35.4-11.2-3.7-3.7-3.2-5-.6-6.7 24.7 5.1 49.3 12.7 74.2 14 6.3-11.4-8-17-17.8-8.3-5.8-12.4-16.3-2.8-24-4.6-7.3-2.8-4.2-13.6 5.4-11 9.9 3.2 25.9 2.5 29.5-3 3-5.7-1.7-11.6-17.5-8.2-5.7-7.4-16.5-2.4-22.3-.7-7.6-6.2-23.8-4.2-29.8-3-4.8-5.8 28.8-8.2 29.5-8.3 13.6 1.4 21.2-.7 25.5-1.7 20.3-12.7 0-16.2-11-7-7-7.7-12.8-1.5-19 .7a45 45 0 0 1-17.4 1.2h-.1v-.3c1.1-1.6 16.2-12.3 16.3-12.3 0 0 20 .6 24 .4 3-.4 10.5-4.4 11-6.6-.2-1.3-3.4-1.6-14.4.7-9.7-.1-15.5-1.5-19.2-1.7-6-1.8-8.3-3-9-3.8v-.6a44 44 0 0 1 11-1.2c.4 0 28.4 0 30.9-1.7v-.1c-.1-15.9-23.9-12-25.1-11.8-.8-11-22.1-3.6-23.8-3.3q-1.4-1.4-1.5-2.6v-1c.9-2.2 3.8-3.4 4-3.5 6.5-1 15.5-.7 18.2-2.9.6.1 17 2 20-4-5.1-16.5-37.2-2.4-42.2.1q-1.3-.3-1.7-1c-.9-3.5 5.5-11.3 6-12 1.5-.2 27.2 1.5 40.4-20.2.3-14-14.9 5.8-15.2 6.2-1.6-18.5-17.1-1.7-26.9-1-9.5-.3-9.7-6.8-3.1-7.5 6.8-.1 13.7 1.5 17.7-11.5 4.4-12.8 14.2 2.4 17-2 1.3-5-3.4-9.2-4-9.8.3-.4 8-10-5.2-12a220 220 0 0 1-31-6.8c1-.3 14.3-5 27.2-3.1 13.3 1.7 6-11.5-6.6-13.8-12.6-2-19-8.4-19.1-8.5l21.4-7.9-1.4-8.3c.3-.3 12.4-11.3-5.1-11.3l-19.8.7-35.8 2c-.6-.3-3.6-2.2-4.5-4.1v-.2l-.1-.3v-.3c.2-1 1.1-1.7 4-2.3 9.4-1.7 41.2-5.4 46.4-2.7q1 .6 1.4.1c1.6-2.4-4.1-16.6-19.2-21.4-17.4-4.6-27.6 1.5-27.8 1.6-.4-.3-10.7-6.6-.8-10.3 10.6-2.7 26.3 5.5 26.6 5.7.4-.1 18-4.3 3.2-10-15.3-5.3-20-.5-27-1-1.8-5.2 23-2.4 25.5-5.9-3.3-7.2-18.9-3-28.9-4.4-4-3.3-4.3-6.6.3-8.5 9.8 1 19 3.1 29 4.1-.3-7.2-.1-15.6-.4-22.7-12.5-4.8-27-2-34-3.5 2.5-7.2 28.2-5.5 31.7-7 5.4-9.7-25.2-4.2-26.6-4-5.6-2.5-5.3-6.6-1.7-9.3 8.8.2 26.3 5.7 25.5-2-1.6-7.3-12.5-5.4-17.8-4.6-5 .6-11.9-1.4-12-1.4-2.2-6.2 27 .9 27.8-3.6-1.1-5-19.3-4.6-26.4-5.2-4.2-5.7 23.2-4.3 25.2-4.7.4-12.5-19.5-3.4-24-3.7q-1.1-.1-1.6-.9l-.3-.3c-1.1-2.7-.2-7-.1-7.3.1 0 7.2-3.5 8-4.4v-.1l-.1-.2c-1.1-1-6-4-6.8-4.4v-.1h-.1c-.2-1.3 0-8.8 0-8.9.3-.1 5.6-5 6.4-7.5v-.5l-.1-.2-.1-.1c-2-1-7.5.6-7.8.7v-7.8c.4 0 4.9 0 6-3.4v-.8l-.2-.5v-.1c-1.7-2.3-6.1-3.4-6.4-3.5zM498.4 342v5.3a28 28 0 0 1-7.6-3v-.1h-.1v-.7h.1v-.2h.2c2.4-1.6 6.3-1.2 7.3-1.3zm9.2 8.5c.6.1 12.1 2.3 13.9 4.5v.6c-1.7 2.4-13.1 2.3-13.7 2.3zm-.8 10.5c1 .4 5.6 1.6 6.6 2.7v.6c-1.5 1.5-5.6 1.4-6.1 1.3h-.1c-.2-.7-.4-4.6-.4-4.6m-38.4 8.2c4.2.4 12.2 3 27.6 11 0 .4.2 5.9.1 6.7v.1c-.4-.2-27.8-14.9-30.4-15.4h-.4l-.2-.2-.1-.1-.2-.4-.1-.1v-.5l.2-.4q.5-.8 3.5-.7m14.3 18.1c4.4.7 15 5.4 15.5 5.5 0 1.2.3 6.4 0 7.6h-.1v.1h-.2c-1.3-.6-15.9-9.5-17-12.4v-.5q.6-.4 1.8-.3m43.3 21.5c4.4.6 6.9 1.3 6 3-3.5 4-23.2 5-23.7 5l-.3-8.7c.4 0 11-.1 18 .7m-59.3 17.7c3.5.4 11.6 4.2 30 17.5v6.3c-.1-.2-30.4-17.7-32-19.8-.5-1.4-1.4-4 2-4m60.6 18.6q1.5.1 1.9.7v.2q0 .4-.2.7c-3.4 3.8-18 6-18.4 6V447c.8 0 12-2.1 16.7-1.9m-67.9-9.7c4.7.5 15 5.3 38.5 24l.1 5.8-37.4-23.5-4.7-3c0-.4-.7-3.2 3.5-3.3m77.5 36.2q1.9.3 2.2.8v.2l-.3.5c-4.2 3.8-26.9 5.8-28 5.8h-.1v-.1l-.1-.1c-.1-1.1.3-4.7.4-5.2 1.5 0 19.6-2.3 26-1.9m-69.3 3.5c7.1 1 28.1 17 29.3 17.7l-.2 6v.2c-1-.9-29.2-20.7-31-20.3-.7-2.8 0-3.6 2-3.6m62.5 13.1q2.3.3 2.9.7v.5c-2.6 2-22 4.5-22.2 4.6l-.2-5.6c.7 0 13.5-.6 19.5-.2m-1.6 17.2q2.2.3 2.6.8v.2h.1v.1l-.1.2-.1.1c-2.6 2-18.9 4.4-19.2 4.5l-.4-5.8c.4 0 11.8-.5 17.1 0m-71.7-9.7c4.1.4 14.1 4.1 39.3 20.4l.9 6.8-43-25.5v-.2l.2-.7q.4-.7 2.6-.8m55 23c.7.2 7.2 1.8 8.8 3.3l.1.1v.1l.1.2v.3c-1.7 2-8 2-8.5 2zm17 15.6q2.6.3 3 1.3.2.7-.9 1.8c-6.4 5.6-18.8 5-19 5v-7.3c.7 0 11.4-1.3 16.9-.8m16.6 9.3c2.1.3 2.9.8 3.2 1.5l.1.6a5 5 0 0 1-1.2 2.3c-2.5 2.2-34.3 11.3-34.6 11.4 0 0-.2-9.3-.1-10.1 19-4.9 28.3-6 32.6-5.7m-21 23.1q3.2.4 4.1 1.4l.1.2v.8c-3.4 3-16 1.8-16.4 1.8v-4.6c2.5.2 8.2 0 12.2.4m13.5 9.7q1 0 1 .5.1 0 0 0 0 .4-.5 1c-5.8 4.1-25.5 6.5-25.7 6.6l.3-4.5c.6 0 20-4 24.9-3.6m11.4 7.4q3.7.5 5.2 2.3v.2c-.2 1.2-1.5 5.1-6.9 6.8-6.8-1.5-34.8 5.1-35.5 5.3v-.1l.3-4.6a69 69 0 0 1 36.9-9.9M477 595.1h.2c12.3 4 16.7 10.4 18.1 13.3-3.3 5-21-10.2-19.7-13q.3-.4 1.4-.3m70.2 11.8q.7 0 1.2.6l.4.5.2 1c-1.9 2.2-7.4.5-8.3.2.4-.2 4-2.3 6.5-2.3M521 621q1.4.2 2 .8l.2.2.1.2v.1q.2.6-.1 1.3c-2.6 4.2-9.8 1.6-10.3 1.5v-3.5c.5 0 5.1-.7 8-.6m-49.5 5.3c2.7.4 4.8 2.7 7.3 5a55 55 0 0 1 16 3.7v6.5a52 52 0 0 1-16.5-5.5c-2.6-.7-8.4-5.8-9.4-8.5v-.5q1.5-.9 2.6-.7M527 638c2 .3 2.7 1 1.2 4-4.9 7.2-15 2.6-15.5 2.4l-.4-5.2c4 .6 11.1-1.3 14.7-1.2m-41.8 10.4c4.6.7 9.3 3.6 9.4 3.7.3.7 2.1 6.3.4 8.6l-.2.2c-3 1-14-3.5-15.3-10.4q2.3-2.5 5.7-2m-46.6-3.8c4.3.6 8.6 4.2 9.3 4.8l-.1 6.2a28 28 0 0 1-10.8-10.9q.9-.2 1.6-.1m78.7 12.8c4.9.8 9.8 3 11 5.2q.2.7-.2 1.4c-3 3-14.6-1.8-15.2-2v-4.6q1.8-.4 4.4 0"/><path fill="#1a1a1a" d="M8 195.3c171.2-85.4 341.7-54.4 514.3-27.9C677 191.2 833.8 211.7 992 132.7v672c-171.2 85.4-341.7 54.3-514.3 27.9C323 808.8 166.2 788.3 8 867.2zm31.3 19.3v604.5c306.5-128.3 611.1 96 921.5-33.7V180.9c-306.5 128.3-611.2-96-921.5 33.7" opacity=".2"/></svg>