<svg xmlns="http://www.w3.org/2000/svg" viewBox="0 0 1000 1000"><defs><linearGradient id="a" x1="498.738" x2="500.626" y1="289.055" y2="283.42" gradientTransform="matrix(.984 .15234 0 1.12 8 87.828)" gradientUnits="userSpaceOnUse"><stop offset="0" stop-color="#510000"/><stop offset=".3" stop-color="#8a0000"/><stop offset="1" stop-color="#a00"/></linearGradient><linearGradient id="b" x1="501.444" x2="502.927" y1="291.373" y2="287.449" gradientTransform="matrix(.984 .15233 0 1.12 8 87.834)" gradientUnits="userSpaceOnUse"><stop offset="0" stop-color="#ff2a2a"/><stop offset="1" stop-color="red"/></linearGradient><linearGradient id="l" x1="484.764" x2="484.764" y1="311.709" y2="317.647" gradientTransform="matrix(.984 .15175 0 1.12 8 88.121)" gradientUnits="userSpaceOnUse"><stop offset="0" stop-color="#f5f549"/><stop offset="1" stop-color="#97c924"/></linearGradient><linearGradient id="n" x1="469.334" x2="469.334" y1="311.709" y2="317.647" gradientTransform="matrix(.984 .14992 0 1.12 8 88.99)" gradientUnits="userSpaceOnUse"><stop offset="0" stop-color="#f5f549"/><stop offset="1" stop-color="#97c924"/></linearGradient><linearGradient id="m" x1="469.423" x2="469.423" y1="311.709" y2="317.647" gradientTransform="matrix(.984 .14993 0 1.12 8 88.984)" gradientUnits="userSpaceOnUse"><stop offset="0" stop-color="#f5f549"/><stop offset="1" stop-color="#97c924"/></linearGradient><linearGradient id="c" x1="444.509" x2="634.411" y1="317.486" y2="317.486" gradientTransform="matrix(.984 .14833 0 1.12 8 89.94)" gradientUnits="userSpaceOnUse"><stop offset="0" stop-color="#025"/><stop offset=".5" stop-color="#04a"/><stop offset="1" stop-color="#025"/></linearGradient><linearGradient id="k" x1="444.509" x2="634.411" y1="308.564" y2="308.564" gradientTransform="matrix(.984 .14833 0 1.12 8 89.94)" gradientUnits="userSpaceOnUse"><stop offset="0" stop-color="#025"/><stop offset=".5" stop-color="#04a"/><stop offset="1" stop-color="#025"/></linearGradient><linearGradient id="j" x1="444.509" x2="634.411" y1="309.681" y2="309.681" gradientTransform="matrix(.984 .14833 0 1.12 8 89.94)" gradientUnits="userSpaceOnUse"><stop offset="0" stop-color="#025"/><stop offset=".5" stop-color="#04a"/><stop offset="1" stop-color="#025"/></linearGradient><linearGradient id="i" x1="444.509" x2="634.411" y1="310.795" y2="310.795" gradientTransform="matrix(.984 .14833 0 1.12 8 89.94)" gradientUnits="userSpaceOnUse"><stop offset="0" stop-color="#025"/><stop offset=".5" stop-color="#04a"/><stop offset="1" stop-color="#025"/></linearGradient><linearGradient id="h" x1="444.509" x2="634.411" y1="311.912" y2="311.912" gradientTransform="matrix(.984 .14833 0 1.12 8 89.94)" gradientUnits="userSpaceOnUse"><stop offset="0" stop-color="#025"/><stop offset=".5" stop-color="#04a"/><stop offset="1" stop-color="#025"/></linearGradient><linearGradient id="g" x1="444.509" x2="634.411" y1="313.029" y2="313.029" gradientTransform="matrix(.984 .14833 0 1.12 8 89.94)" gradientUnits="userSpaceOnUse"><stop offset="0" stop-color="#025"/><stop offset=".5" stop-color="#04a"/><stop offset="1" stop-color="#025"/></linearGradient><linearGradient id="f" x1="444.509" x2="634.411" y1="314.142" y2="314.142" gradientTransform="matrix(.984 .14833 0 1.12 8 89.94)" gradientUnits="userSpaceOnUse"><stop offset="0" stop-color="#025"/><stop offset=".5" stop-color="#04a"/><stop offset="1" stop-color="#025"/></linearGradient><linearGradient id="e" x1="444.509" x2="634.411" y1="315.256" y2="315.256" gradientTransform="matrix(.984 .14833 0 1.12 8 89.94)" gradientUnits="userSpaceOnUse"><stop offset="0" stop-color="#025"/><stop offset=".5" stop-color="#04a"/><stop offset="1" stop-color="#025"/></linearGradient><linearGradient id="d" x1="444.509" x2="634.411" y1="316.373" y2="316.373" gradientTransform="matrix(.984 .14833 0 1.12 8 89.94)" gradientUnits="userSpaceOnUse"><stop offset="0" stop-color="#025"/><stop offset=".5" stop-color="#04a"/><stop offset="1" stop-color="#025"/></linearGradient><linearGradient id="o" x1="0" x2="1" y1="0" y2="0" gradientTransform="matrix(.984 -.4909 0 1.12 8 195.25)"><stop offset="0" stop-color="#025"/><stop offset=".5" stop-color="#04a"/><stop offset="1" stop-color="#025"/></linearGradient><linearGradient id="p" x1="3.446" x2="4.446" y1="219.049" y2="219.049" gradientTransform="matrix(124.69825 19.3059 0 1.70495 8 87.828)" gradientUnits="userSpaceOnUse"><stop offset="0" stop-color="#025"/><stop offset=".5" stop-color="#04a"/><stop offset="1" stop-color="#025"/></linearGradient><linearGradient id="q" x1="3.446" x2="4.446" y1="218.205" y2="218.205" gradientTransform="matrix(124.69825 19.3059 0 1.70495 8 87.828)" gradientUnits="userSpaceOnUse"><stop offset="0" stop-color="#025"/><stop offset=".5" stop-color="#04a"/><stop offset="1" stop-color="#025"/></linearGradient><linearGradient id="r" x1="3.446" x2="4.446" y1="217.356" y2="217.356" gradientTransform="matrix(124.69825 19.3059 0 1.70495 8 87.828)" gradientUnits="userSpaceOnUse"><stop offset="0" stop-color="#025"/><stop offset=".5" stop-color="#04a"/><stop offset="1" stop-color="#025"/></linearGradient><linearGradient id="s" x1="3.446" x2="4.446" y1="216.509" y2="216.509" gradientTransform="matrix(124.69825 19.3059 0 1.70495 8 87.828)" gradientUnits="userSpaceOnUse"><stop offset="0" stop-color="#025"/><stop offset=".5" stop-color="#04a"/><stop offset="1" stop-color="#025"/></linearGradient><linearGradient id="t" x1="3.446" x2="4.446" y1="215.664" y2="215.664" gradientTransform="matrix(124.69825 19.3059 0 1.70495 8 87.828)" gradientUnits="userSpaceOnUse"><stop offset="0" stop-color="#025"/><stop offset=".5" stop-color="#04a"/><stop offset="1" stop-color="#025"/></linearGradient><linearGradient id="u" x1="3.446" x2="4.446" y1="214.819" y2="214.819" gradientTransform="matrix(124.69825 19.3059 0 1.70495 8 87.828)" gradientUnits="userSpaceOnUse"><stop offset="0" stop-color="#025"/><stop offset=".5" stop-color="#04a"/><stop offset="1" stop-color="#025"/></linearGradient><linearGradient id="v" x1="3.446" x2="4.446" y1="213.972" y2="213.972" gradientTransform="matrix(124.69825 19.3059 0 1.70495 8 87.828)" gradientUnits="userSpaceOnUse"><stop offset="0" stop-color="#025"/><stop offset=".5" stop-color="#04a"/><stop offset="1" stop-color="#025"/></linearGradient><linearGradient id="w" x1="3.446" x2="4.446" y1="213.128" y2="213.128" gradientTransform="matrix(124.69825 19.3059 0 1.70495 8 87.828)" gradientUnits="userSpaceOnUse"><stop offset="0" stop-color="#025"/><stop offset=".5" stop-color="#04a"/><stop offset="1" stop-color="#025"/></linearGradient></defs><path fill="#0067c6" d="M8 195.3c170.8-85.3 341-54.5 513.3-28C676.5 191 833.4 211.8 992 132.7v672c-170.8 85.3-341 54.5-513.3 28C323.5 809 166.6 788.1 8 867.2z"/><path fill="#fff" d="M8 419.3c170.8-85.3 341-54.5 513.3-28C676.5 415 833.4 435.8 992 356.7v224c-170.8 85.3-341 54.5-513.3 28C323.5 585 166.6 564.1 8 643.2z"/><path fill="#c8a400" d="m411.4 486.2 9.9 2v-1.6l-3.8-.8.3-5.3 4-2.9.2-2-4.3 3q-.2-2-1.7-3-1.6-.9-2.8-.1-1.3 1.3-1.3 3.4zm1.5-1.4.4-5.4q0-1.6 1-2.4 1.1-.5 1.8 1 .5 2.1.2 4.4l-.2 3.1zm-.2-15.6 9.6 3.8 2.2-10.3-1.4-.5-1.8 8.7-3-1.1 1.7-8-1.3-.5-1.7 8-2.6-1.1 1.8-8.5-1.4-.5zm3.5-14.2 9.3 5 .4-1.5-3.6-2 1.4-4.6q.6-2-.1-4-1-1.5-2.5-1.9-1.6 0-2.4 1.7-1 2.2-1.6 4.5zm1.8-.8 1.5-4.5q.4-1.4 1.5-2 1.3.2 1.5 1.5 0 2.3-.8 4.2l-.7 2.4zm3.3-12 5.3 4.2q1.5 1.3 3.2.7a8 8 0 0 0 3-3.7c.6-1.4 1-2.8.3-4.4-.8-1.5-2-2.3-3.3-3.3l-3.4-2.8-.7 1.3 5 4q1.3 1.2 1.3 3a8 8 0 0 1-1.5 3.2q-.9 1.4-2.4 1-1.4-.7-2.7-1.9l-3.4-2.7zm7-12.2 8 7.9 3.5-4.9q1.3-1.6 1-4a4 4 0 0 0-2.6-2.3q-.9 0-1.4.3.2-2-1.5-2.8c-1.3-.6-2.3 0-3.2.8l-2.5 3.3zm2-.1 2.8-3.6q.7-1 1.9-.5.9.7.5 1.9l-2 2.9-1 1.4zm3.3 3.2 2.8-3.7q.8-1 2-1 1.1.7 1 2-.9 2-2.2 3.5l-1.2 1.7zm3.6-13.8 6.8 9.2 5.8-5.4-1-1.3-4.6 4.3-.1.1-.1-.1-5.7-7.7zm8.7-7.3 6 9.7 1.2-.8-6-9.8zm8.8-5.5q-1.4.8-2.3 2-1 1.4-1 2.8 0 1.5.7 3.1a7 7 0 0 0 2 2.4q1.1.9 2.6 1a7 7 0 0 0 5.7-3.5q.6-1.4.4-3.2l-1.4.4c.2 2.3-.8 3-2.3 4-2.4 1-4.2.7-5.7-1.8-1.2-3 0-4.6 2-5.8 1.4-.8 2.5-1.2 4-.2l1-.9q-1.2-1-2.5-1.1-1.4 0-3.2.8m11.7-4.9-1 12.4 1.5-.5.3-3.8 5-1.5 2.5 3 1.6-.5-8.4-9.6zm1.3 1.5 3.3 3.7-3.7 1.2zm20.2-5.1.6 11.3 5.4.4q2.1.2 3.8-1.3 1.7-2.4.9-5.6a6 6 0 0 0-3.3-3.9q-2.3-.6-4.6-.7zm1.5 1.7 4.3.4q1.2.2 2.2 1.2 1.5 1.6 1.5 3.7-.3 2.5-2.4 3h-2.4l-2.7-.2zm12.2-.2-.5 11 9.5 2.2.1-1.6-8.1-1.8.1-3.4 7.4 1.6V406l-7.3-1.7.2-3 7.8 1.8v-1.6zm25.7 8.6-3.5 9.9 1.2.7 2.9-7.8.1-.4.2.5 3.4 11.6 1.6 1 3.6-10-1.3-.7-2.8 7.9-.2.4-.1-.5L529 409zm13.3 8.4L536 426l-1.3-1 4.4-9.3zm7.4 6.1q-1.5-1.3-3-1.9-1.4-.5-2.7-.1a4 4 0 0 0-2 1.6 6 6 0 0 0-.3 5.8q.9 1.5 2.5 3.1 1.7 1.5 3.3 1.9t2.8-.5l-1-1.4c-1.8 1-3 .1-4.5-1.2q-3.3-3.1-1.7-6.6c1.8-2.1 3.7-1.3 5.8.4q2.2 1.8 2.2 4.1l1.3.9q.2-1.5-.4-3-.7-1.6-2.3-3m9.3 9.3-10.2 3.2 1.2 1.4 3.2-1 4 4.6-.8 3.7 1.3 1.4 2.6-11.9zm-.3 2-1 4.6-3-3.4zm7.8 6.9-7.6 6 .9 1.4 3-2.4 3 4.6-1 5.5 1.2 1.8 1-5.8q1.5 1.6 3.1 1 1.5-.5 1.7-2.3-.2-2.3-1.6-4.2zm-.2 2.2 3.2 5c.5 1 1 2 .5 2.9q-.8 1-2-.1-1.6-1.8-3-4l-1.1-1.8zm11.7 17.2-11-1 .7 1.8 3.5.3 2.7 5.7-2 3 1 1.7 6-9.7zm-1 1.6-2.3 3.8-2-4.2zm7.3 14.1q-1-3.1-3.2-5.2-3.1-2-5.6.5-1.4 2.3-.9 5.4.6 3.4 2.6 6.2l-.8.2.5 1.5 4.6-1.2-1.8-5.9-1 .3 1.3 4.3-1.6.5a13 13 0 0 1-2.5-5.7q-.6-2.5.6-4.4 2.1-1.7 4.6 0 1.9 2.3 2.4 5.1.5 2-.5 3.5-.2.3.2.7l.3.7q1.3-1 1.4-2.9a13 13 0 0 0-.6-3.6m2.8 9.2-5.5.4q-1.5.2-2.3.8t-1 2a11 11 0 0 0 .1 3.4 12 12 0 0 0 1 3.3q.7 1.2 1.7 1.7a5 5 0 0 0 2.5.4l5.5-.5-.3-1.6-5.4.4c-2.5 0-3.1-1.2-3.6-3.8-.4-2.7-.2-4 2.2-4.4l5.4-.5zm3 19.4-10.1-6.3v1.9l3.2 2 .4 6.1-3 1.6.2 2 9.5-5.4zm-1.4.9-3.7 2-.3-4.5zm-168 3-1.4.2 1.6 7 1.4-.2zm162 24 1.4.7-1.6 6.6-1.4-.6zm-146.7 6.9-11-.2.9 1.7h3.4l3 5.6-1.7 3.1 1 1.7 5.3-10.3zm-.8 1.6-2.1 4-2.2-4zm5 5.8-7 6.5 1 1.2 5.8-5.4-3 9.2 1 1.5 8.5-1.7-5.8 5.3 1 1.3 7-6.4-1.5-2-8.6 1.7 3.2-9zm10.2 13.4-6 8 7.7 7.7.9-1.1-6.5-6.6 1.8-2.4 5.8 5.9.9-1.2-5.9-5.9 1.6-2.2 6.3 6.4.8-1.2zm9.6 9.4-4.6 9.2 1.3 1 1.8-3.7 4.2 3.2 1 5.8 1.6 1.2-1-6.1q1.6.9 3-.4 1-1 .7-2.8-.8-2.1-2.6-3.3zm.6 2.3 4.5 3.4q1.2 1 1.4 2.5-.3 1.4-1.6 1-2.2-1-4-2.6l-1.7-1.4zm10.6 6-3.8 9.8 1.4.8 3.7-9.8zm8.8 4.9a9 9 0 0 0-3.1-1 4 4 0 0 0-2.6.6q-1.1.7-1.6 2.3-.4 1.4-.1 3t1.3 2.8 3 2.4q1.9 1 3.5.9 1.5-.2 2.5-1.4l-1.3-1c-1.4 1.5-2.7 1-4.4 0q-3.9-2.1-3-6c1-2.7 3-2.4 5.4-1.3 1.5.9 2.6 1.7 3 3.4l1.4.5a6 6 0 0 0-1.1-2.9q-1-1.4-2.9-2.4m10 4-6.5 9.4 1.6.5 2-2.9 5.3 1.7 1.1 3.9 1.7.5-3.6-12.5zm.5 2 1.4 5-3.9-1.3zm22.5 1.7q-1.6.1-3 .9t-1.8 2q-.5 1.5-.3 3 .3 1.7 1.2 3t2.3 2q1.4.5 3.4.4t3.2-1.1q1.1-1 1.4-2.7l-1.4-.2c-.5 2.2-1.8 2.4-3.6 2.5-2.7 0-4.3-1-5-4-.3-3 1.4-4 3.8-4.3 1.7 0 2.9.1 3.9 1.6l1.3-.4q-.8-1.3-2-2-1.5-.7-3.4-.7m6.6-.3 2.8 11.2 9.1-1.7-.4-1.6-7.8 1.5-.8-3.4 7-1.3-.4-1.6-7 1.3-.8-3 7.5-1.4-.4-1.6zm10.6-2.1 4.1 10.8 1.3-.5-3.5-9 9.5 6.4q.4.4.7 0l1.2-.4-4.1-10.8-1.2.5 3.4 9-9.8-6.6zm10.8-4.2.8 1.5 3.5-2.1.1-.1v.1l4.7 8.6 1.2-.7-4.6-8.6v-.2l3.6-2.1-.8-1.5zm10-6.2 6.6 9.2 1-1-2.6-3.6 3.5-3.1 5 1.5 1.3-1.3-5.3-1.5q1.2-1.5.4-3.5-.8-1.8-2.3-2.2-2 .2-3.4 1.6zm2 .3 3.7-3.3c.7-.5 1.5-1 2.4-.4q1 1.2.3 2.3-1.3 1.8-3 3.2l-1.3 1.2zm9.4-11.7 4.4 12.2 1-1.3-1.4-3.8 3.4-4.2 3.4 1.3 1-1.3-10.8-4.2zm1.7.7 4.2 1.6-2.5 3.1zm2.5-6.4 8.3 7.3 4.3-7-1.1-1-3.5 5.5-.1.2-.1-.1-7-6.2z"/><path fill="#fff" d="m500 417.6 31.7 67.3 14.4 30.7-92.3-14 15.2-27.7z"/><path fill="#17c0eb" d="m500 417.6 2.3 5-2.3 61.1-2.3-62z" opacity=".62"/><path fill="#17c0eb" d="m500 417.5 2.4 5.1-2.3 61.1h-.2l-2.3-61.8zm0 64.5 2.3-59.5-2.3-4.8-2.2 4.1z" opacity=".62"/><path fill="#fff" d="M500 474.8h.1l-.1 3.5-.1-3.5z"/><path fill="#17c0eb" d="m527.6 476.3 1.3 2.7-28.9 4.7z" opacity=".62"/><path fill="#17c0eb" d="M501.4 483.4 529 479l-28.9 4.8v-.2l27.6-7.4v.1z" opacity=".62"/><path fill="#fff" d="M507.5 482.1v.2l-3 .4 3-.7z"/><path fill="#17c0eb" d="m534.2 542.5-4.3-2.8-29.9-56 33.7 53.5z" opacity=".62"/><path fill="#17c0eb" d="m534.2 542.6-4.3-2.9-30-56h.2l33.6 53.5.5 5.3zM501 485.2l29 54.5 4.2 2.7-.5-5.2z" opacity=".62"/><path fill="#fff" d="m504.6 491.7-1.8-3.1 2 3z"/><path fill="#17c0eb" d="m465.8 532 .5-5.2 33.7-43-30 46.7z" opacity=".62"/><path fill="#17c0eb" d="m465.8 532 .5-5.2 33.6-43.1h.2l-30 46.8zm33.3-47-32.7 41.8-.5 5 4.1-1.4z" opacity=".62"/><path fill="#fff" d="m495.4 490.3-.1-.2 1.9-2.4z"/><path fill="#17c0eb" d="m472.4 467.7 27.6 16-29-13.6z" opacity=".62"/><path fill="#17c0eb" d="m498.6 483-26.3-15.2.1-.1 27.6 16-29-13.5.1-.1z" opacity=".62"/><path fill="#fff" d="M492.5 479.8v-.1l3 1.6-3-1.4z"/><path fill="#17c0eb" d="m504.8 427.8 3.3 7-8.1 49z" opacity=".62"/><path fill="#17c0eb" d="m500.2 482 7.9-47.3v.2l-8 48.8h-.2l4.9-56v.2z" opacity=".62"/><path fill="#fff" d="M501.1 475h.1l-.5 3.4z"/><path fill="#17c0eb" d="m529.8 480.8 1.4 3H500z" opacity=".62"/><path fill="#17c0eb" d="M501.5 483.7H531l.1.2-31.2-.1v-.1l29.7-3 .1.2z" opacity=".62"/><path fill="#fff" d="M507.8 483.4v.1h-3l3-.3z"/><path fill="#17c0eb" d="m527.3 545.3-1.4-.2-2.6-2.2-23.3-59.2 27.5 57.4z" opacity=".62"/><path fill="#17c0eb" d="m500.7 485.3 22.7 57.6 2.6 2.2h-.3l-2.4-2.1-23.3-59.2v-.1l27.5 57.4-.1 4.2h-.1v-4.2z" opacity=".62"/><path fill="#fff" d="M503.7 492.2h-.1l-1.4-3.3 1.6 3.2z"/><path fill="#17c0eb" d="m459.6 525.1 1.1-5 39.3-36.4-36 40.6z" opacity=".62"/><path fill="#17c0eb" d="m459.5 525.2 1.2-5 39.3-36.5-35.9 40.7-4.5.8zm39.5-40.4-38.2 35.4-1 4.8 4.3-.7z" opacity=".62"/><path fill="#fff" d="M494.5 489.3v-.1l2.2-2-2 2.2z"/><path fill="#17c0eb" d="m474.4 464 25.6 19.7-26.8-17.4z" opacity=".62"/><path fill="#17c0eb" d="M498.7 482.8 474.4 464v-.2l25.6 19.8-26.8-17.4z" opacity=".62"/><path fill="#fff" d="M493 478.7v-.1l2.7 2-2.8-1.8z"/><path fill="#17c0eb" d="m509.9 438.6 2.4 5-12.3 40.1z" opacity=".62"/><path fill="#17c0eb" d="m500.4 482.2 11.9-38.6v.2l-12.2 40-.2-.1 10-45.2v.1z" opacity=".62"/><path fill="#fff" d="m502.2 475.5-.9 3.2.7-3.3z"/><path fill="#17c0eb" d="m532.1 485.8 1.6 3.4-33.7-5.5z" opacity=".62"/><path fill="#17c0eb" d="m501.5 483.9 32.2 5.2v.2l-33.7-5.5v-.2l32 2.1.2.2z" opacity=".62"/><path fill="#fff" d="M507.9 484.6v.2l-3.1-.5 3 .2z"/><path fill="#17c0eb" d="m520.6 544.3-4.7-.7-15.9-59.9 20.7 60.2z" opacity=".62"/><path fill="#17c0eb" d="m500.5 485.4 15.5 58.2h-.1l-16-59.9h.2l20.6 60.2v.4h-.2l.1-.4z" opacity=".62"/><path fill="#fff" d="M502.7 492.6h-.1l-1-3.5 1.2 3.4z"/><path fill="#17c0eb" d="m454.2 517.4 1.7-4.6 44.1-29-41.2 33.6z" opacity=".62"/><path fill="#17c0eb" d="m454.1 517.5 1.8-4.8 44-29h.1l-41.2 33.8h-4.6zm44.7-33L456 513l-1.7 4.5h4.5z" opacity=".62"/><path fill="#fff" d="M493.8 488.3v-.2l2.4-1.6z"/><path fill="#17c0eb" d="m476.5 460.3 23.5 23.4-24.8-21.1z" opacity=".62"/><path fill="#17c0eb" d="m498.8 482.6-22.4-22.2.1-.2 23.5 23.5-24.8-21v-.2z" opacity=".62"/><path fill="#fff" d="M493.5 477.7v-.1l2.5 2.4-2.6-2.2"/><path fill="#17c0eb" d="m513.6 446.5 2 4-15.6 33.2z" opacity=".62"/><path fill="#17c0eb" d="m500.6 482.3 14.9-31.8v.2l-15.4 33h-.2l13.7-37.3v.2z" opacity=".62"/><path fill="#fff" d="m503.2 476 .1.1-1.4 3z"/><path fill="#17c0eb" d="m534.8 491.5 2 4-36.8-11.8z" opacity=".62"/><path fill="#17c0eb" d="m501.5 484.1 35.2 11.4v.2l-36.7-12 34.8 7.8v.1z" opacity=".62"/><path fill="#fff" d="M507.8 485.9v.1l-3-1 3 .7z"/><path fill="#17c0eb" d="m513 543.1-4.5-.7-8.5-58.7z" opacity=".62"/><path fill="#17c0eb" d="m500.3 485.4 8.2 57-8.6-58.7h.2l13 59.4h-.2z" opacity=".62"/><path fill="#fff" d="m501.6 492.7-.6-3.5.8 3.5z"/><path fill="#17c0eb" d="m449.7 509.1 2.3-4.2 48-21.2-45.7 26.1z" opacity=".62"/><path fill="#17c0eb" d="m449.6 509.2 2.4-4.4 48-21.1-45.7 26.2zm49.1-24.8L452 505l-2.2 4 4.5.7z" opacity=".62"/><path fill="#fff" d="M493.2 487.1v-.1l2.6-1.2-2.5 1.5z"/><path fill="#17c0eb" d="m478.6 456.5 21.4 27.2-22.7-24.8z" opacity=".62"/><path fill="#17c0eb" d="m498.9 482.4-20.4-25.9h.1l21.4 27.2-22.8-24.8.1-.1z" opacity=".62"/><path fill="#fff" d="m494.2 476.8 2.2 2.7-2.3-2.6z"/><path fill="#17c0eb" d="m516.6 452.9 1.6 3.4-18.2 27.4z" opacity=".62"/><path fill="#17c0eb" d="m500.8 482.4 17.4-26.2v.2l-18.1 27.4-.2-.1 16.7-30.9v.2z" opacity=".62"/><path fill="#fff" d="m504.2 476.8-1.7 2.7 1.6-2.8"/><path fill="#17c0eb" d="m538 498.4 2.5 5.1-40.5-19.8z" opacity=".62"/><path fill="#17c0eb" d="m501.4 484.4 39 19 .1.2-40.5-19.8v-.1l38 14.6.1.2z" opacity=".62"/><path fill="#fff" d="M507.6 487v.2l-3-1.4z"/><path fill="#17c0eb" d="m505.7 542-4.3-.7-1.4-57.6z" opacity=".62"/><path fill="#17c0eb" d="m500.1 485.4 1.3 56h-.1l-1.4-57.7h.2l5.7 58.3h-.2z" opacity=".62"/><path fill="#fff" d="M500.6 492.7h-.2v-3.5z"/><path fill="#17c0eb" d="m454.5 500.3 3.3-6 42.2-10.6z" opacity=".62"/><path fill="#17c0eb" d="m498.6 484.1-40.9 10.3.1-.2 42.2-10.6v.2l-45.6 16.6.1-.2z" opacity=".62"/><path fill="#fff" d="M492.7 486v-.2l2.8-.7z"/><path fill="#17c0eb" d="m480.8 452.4 19.2 31.3-20.6-28.8z" opacity=".62"/><path fill="#17c0eb" d="m499 482.3-18.2-29.9 19.3 31.3h-.2L479.5 455v-.1z" opacity=".62"/><path fill="#fff" d="m495 476 2 3-2.1-2.8z"/><path fill="#17c0eb" d="m519.2 458.3 1.4 3-20.6 22.4z" opacity=".62"/><path fill="#17c0eb" d="m501 482.6 19.5-21.4.1.2-20.6 22.4v-.1l19.1-25.5.1.2z" opacity=".62"/><path fill="#fff" d="M505 477.7h.2L503 480l1.8-2.5z"/><path fill="#17c0eb" d="m542.2 507.3 3.3 7-45.5-30.6z" opacity=".62"/><path fill="#17c0eb" d="m501.4 484.6 44 29.5.2.3-45.6-30.6v-.1l42.2 23.5v.2z" opacity=".62"/><path fill="#fff" d="M507.3 488.2v.1l-2.9-1.8 3 1.6z"/><path fill="#17c0eb" d="m498.6 540.9-4.3-.7 5.7-56.5z" opacity=".62"/><path fill="#17c0eb" d="m499.9 485.4-5.5 54.8h-.2l5.7-56.5h.2l-1.4 57.2h-.1z" opacity=".62"/><path fill="#fff" d="M499.5 492.6h-.2l.4-3.5z"/><path fill="#17c0eb" d="m459.5 491.1 2.4-4.4 38.1-3z" opacity=".62"/><path fill="#17c0eb" d="m498.6 484-36.7 2.8v-.2l38-3 .1.2-40.5 7.4v-.2z" opacity=".62"/><path fill="#fff" d="M492.4 484.7v-.1l3-.3-3 .6z"/><path fill="#17c0eb" d="m483.4 447.8 16.6 36-18.2-33.1z" opacity=".62"/><path fill="#17c0eb" d="m499.2 482.2-15.9-34.4.1-.1 16.7 36h-.2l-18.2-33 .1-.1z" opacity=".62"/><path fill="#fff" d="M495.8 475.5h.1l1.6 3.2z"/><path fill="#17c0eb" d="m521.4 463.1 1.3 2.8-22.7 17.8z" opacity=".62"/><path fill="#17c0eb" d="m501.1 482.8 21.6-17v.1l-22.6 17.9-.1-.1 21.4-20.7v.2z" opacity=".62"/><path fill="#fff" d="m505.8 478.6.1.2-2.3 1.8z"/><path fill="#17c0eb" d="m550.3 524.5-4.6-.7-45.7-40 48 35.8z" opacity=".62"/><path fill="#17c0eb" d="m548 519.5 2.4 5-4.7-.6-45.7-40.1v-.1zm-46.7-34.7 44.4 39 4.5.6-2.2-4.8z" opacity=".62"/><path fill="#fff" d="m506.8 489.3-2.6-2.2 2.7 2z"/><path fill="#17c0eb" d="m491.5 539.8-4.5-.7 13-55.4z" opacity=".62"/><path fill="#17c0eb" d="M499.7 485.3 487 539.1h-.2l13-55.4h.2l-8.5 56.1h-.1z" opacity=".62"/><path fill="#fff" d="M498.4 492.2h-.2l.8-3.3-.5 3.4z"/><path fill="#17c0eb" d="m463.3 484.3 1.9-3.5 34.8 3z" opacity=".62"/><path fill="#17c0eb" d="m498.5 483.7-33.4-2.8.1-.1 34.8 2.9v.1l-36.8.6.1-.2z" opacity=".62"/><path fill="#fff" d="M492.2 483.5v-.2l3 .3h-3z"/><path fill="#17c0eb" d="m486.4 442.3 13.6 41.4-15.5-38z" opacity=".62"/><path fill="#17c0eb" d="m499.4 482-13-39.6v-.2l13.7 41.5h-.2l-15.5-37.9.1-.1z" opacity=".62"/><path fill="#fff" d="M496.8 475h.1l1.2 3.4z"/><path fill="#17c0eb" d="m523.5 467.6 1.3 2.6-24.8 13.5z" opacity=".62"/><path fill="#17c0eb" d="m501.2 483 23.6-12.8v.1L500 483.8v-.1l23.5-16.2v.1z" opacity=".62"/><path fill="#fff" d="M506.5 479.7v.2l-2.5 1.4 2.4-1.7z"/><path fill="#17c0eb" d="m545.8 531.5-4.6-1.5-41.2-46.3 44 42.6z" opacity=".62"/><path fill="#17c0eb" d="m545.9 531.6-4.7-1.5-41.2-46.3v-.1l44.1 42.6 1.7 5.1zm-44.7-46.7 40 45 4.5 1.4-1.7-5z" opacity=".62"/><path fill="#fff" d="M506.2 490.2v.1l-2.4-2.6 2.5 2.4z"/><path fill="#17c0eb" d="m484 538.7-4.6-.8v-.4l20.6-53.8z" opacity=".62"/><path fill="#17c0eb" d="m499.5 485.2-20.1 52.3v.4l-.1-.4 20.6-53.8h.2l-16 55h-.1z" opacity=".62"/><path fill="#fff" d="M497.3 491.7h-.1l1.2-3.1z"/><path fill="#17c0eb" d="m466.3 478.8 1.6-2.9 32.1 7.8z" opacity=".62"/><path fill="#17c0eb" d="m498.5 483.4-30.7-7.4.1-.1 32.1 7.8v.1l-33.8-4.9.1-.1z" opacity=".62"/><path fill="#fff" d="M492.1 482.2v-.1l3.1.7-3-.5z"/><path fill="#17c0eb" d="m490.1 435.5 9.9 48.2-12.3-43.8z" opacity=".62"/><path fill="#17c0eb" d="m499.6 482-9.5-46.4v-.2l10 48.3h-.2L487.7 440v-.2z" opacity=".62"/><path fill="#fff" d="M497.8 474.8h.2l.7 3.5z"/><path fill="#17c0eb" d="m525.6 471.9 1.2 2.7-26.8 9.1z" opacity=".62"/><path fill="#17c0eb" d="m501.3 483.2 25.5-8.7v.1l-26.8 9.2v-.1l25.5-11.9.1.2z" opacity=".62"/><path fill="#fff" d="m507 480.9.1.1-2.8 1 2.7-1.3z"/><path fill="#17c0eb" d="m540.4 537.5-4.5-2.1-35.9-51.7 39.3 48.5z" opacity=".62"/><path fill="#17c0eb" d="m540.5 537.6-4.6-2.2-36-51.6.1-.1 39.3 48.5 1.1 5.3zM501 485.1l35 50.2 4.3 2-1.1-5z" opacity=".62"/><path fill="#fff" d="M505.5 491h-.1l-2-2.8z"/><path fill="#17c0eb" d="m474.1 537.1-1.4-.2-.1-4.3 27.4-48.9-23.3 52z" opacity=".62"/><path fill="#17c0eb" d="m499.3 485.1-26.7 47.6.1 4.2-.2-4.3 27.4-49 .2.2-23.4 52-2.4 1.3h-.3l2.6-1.4z" opacity=".62"/><path fill="#fff" d="M496.3 491h-.1l1.6-2.8-1.4 3z"/><path fill="#17c0eb" d="m470.2 471.7 29.8 12-31.2-9.5z" opacity=".62"/><path fill="#17c0eb" d="m498.5 483.2-28.3-11.5v-.1l29.8 12v.2l-31.2-9.5v-.1z" opacity=".62"/><path fill="#fff" d="M492.3 481v-.2l3 1.2-3-.9z"/><path fill="#17c0eb" d="m495.2 426.3 4.8 57.4-8.1-51.4z" opacity=".62"/><path fill="#17c0eb" d="m499.8 482-4.7-55.6.1-.2 4.9 57.5h-.2l-8-51.3v-.2z" opacity=".62"/><path fill="#fff" d="m499 474.7.3 3.5-.5-3.5z"/><path fill="red" d="M500 461.8a49 49 0 0 1 28.5 16.4l14.4 30.6q.7 4.6.8 9.4l-5-.8c-.3-24.5-17.2-46.4-38.7-50-21.6-3-38.5 13.6-38.7 38.1l-5-.7q0-4.8.8-9.1l14.4-26.3a36 36 0 0 1 28.5-7.6"/><path fill="#f60" d="M500 462.7c11.7 2 21.9 8.6 29.8 18.3l11.8 25q1.2 6 1.3 12l-4.2-.6c-.3-24.5-17.2-46.4-38.7-50-21.6-3-38.5 13.6-38.7 38.1l-4.2-.6q0-6 1.3-11.6l11.8-21.5c8-7.3 18-10.8 29.8-9.2"/><path fill="#ff0" d="M500 463.6a49 49 0 0 1 31.4 20.8l8.6 18.2a61 61 0 0 1 2.1 15.3l-3.4-.5c-.3-24.5-17.2-46.4-38.7-50-21.6-3-38.4 13.6-38.7 38.1l-3.4-.5q.1-7.7 2-14.6l8.7-15.6c8-8.7 18.7-13 31.4-11.2"/><path fill="#0f0" d="M500 464.4a50 50 0 0 1 34.3 26.2l2.8 6a59 59 0 0 1 4.2 21.2l-2.6-.4c-.3-24.5-17.2-46.4-38.7-50-21.6-3-38.4 13.6-38.7 38.1l-2.6-.4q0-11 4.2-20l2.8-5a34 34 0 0 1 34.3-15.7"/><path fill="#0cf" d="M500 465.4c22.6 3.7 40.3 26.6 40.5 52.3l-1.8-.3c-.3-24.5-17.2-46.3-38.7-50-21.6-3-38.5 13.6-38.7 38.1l-1.8-.2c.2-25.7 17.9-43.1 40.5-40"/><path fill="#00f" d="M500 466.2c22.1 3.8 39.5 26.2 39.8 51.4l-1.4-.2c-.3-24.4-17-46-38.4-49.6-21.4-3-38.1 13.4-38.4 37.8l-1.3-.2c.2-25.2 17.5-42.3 39.7-39.2"/><path fill="purple" d="M500 467.1c21.7 3.7 38.7 25.6 39 50.3v.9l-.8-.1v-.9c-.3-24.2-17-45.7-38.2-49.3-21.3-3-37.9 13.4-38.2 37.6v.8h-.7v-.9c.2-24.7 17.2-41.4 38.9-38.4"/><path fill="#510000" d="M500.4 486.8c1 .9 1.4 1.6 1.2 3.6q-.5.8-.7 1.8-.3 1.4-1 1.2c-.6-.3-.7-1.3-.7-2v-.3c0-1.1 0-1.4-.4-2-.6-.6-.6-.9-.9-1q-.2-1.2.7-2.3z"/><path fill="red" d="m497.2 481.1-.8.2q-.6.5-1.1 0a2 2 0 0 1 0-1.5 4 4 0 0 1 2.1-2.3c2.5-1.1 3.7-.5 5 2 1 2.2 2 4.4 2.2 6.3v.4q.3 1-.2 1.7c-.8.6-2 0-3.4-.9q-1.5-1.1-3-1.2h-.5q-.8.4-1.4 0-.4-.9.3-1.5a6 6 0 0 0 1.3-3.3v-.1z"/><path fill="url(#a)" d="M497 480h.3c.7 0 1.1.1 1.7-.6a3 3 0 0 0-.3 2.1l.2 1.5v1.3c0 .4-.1.8.1 3.7 1.4 0 3.9.1 5.3.8 1 .8.5 1.6-.6 1.3q-.9-.2-1.2.2t-1.4.3c-2-.5-2.5-2-4.4-3.4a4 4 0 0 1-1.6-1.6l.4-2q.7-1.3 1.3-1.8l.7-.7-.7.3q-.9.6-1.3.1c.5-.5.4-1.1 1.5-1.5"/><path fill="#ff2a2a" d="m501 477.5.1.2.3.2 1 1.6.4 1v.7l-.4 1.4-.1-.5q0-.5-.2-.8-.5-.4-.7-.9l-.3-1-.2-1.2z"/><path fill="url(#b)" d="m501.2 486 2.7 1.2.4.2q.5 0 .4.5l.1 1.1.1.6c0 .5-.3.3-.7.2l-.6-.2q-.9 0-1.3.8-.6.6-.8 2-.4 1.5-1.3 1.2c-.5-.4-.7-1.6-.7-2.3v-2.6q-.5-.9-1-1.3c-.8-.6-2.3-1.9-3.1-1.7q-.4 0 0-.5l.1-.7q0-.7.4-1 1 0 2.3.9l1 .5z"/><path fill="#910000" d="m498.4 487.3-.2-.1c-.7-.6-2-1.7-2.8-1.5q-.3.1-.3-.4l.1-.8v-.1q.1-.5.6-1.1.9-.3 2.2.9l.8.5-.2 1.2z"/><path fill="#ff3a3a" d="m501.7 490.6-.2.8c-.3 1-.6 2-1.2 1.5.6-.4.7-3.4 2-4.2q.6-.1 1.2.1.9.4 1.2 0 .1.7-.4.6h-.3c-1-.2-1.4-.3-2.3 1.2"/><path fill="#fff" d="m453.9 501.5 92.3 14.1 9.7 20.8-111.8-17z"/><path fill="url(#c)" d="m450.5 516.4 2.4.3 2 .3c3.5.6 6.5 1.8 9.7 2.4 3.3.3 6.2.1 9.6.5l2.4.4 2 .3c3.5.6 6.5 1.8 9.7 2.4 3.2.4 6.2.1 9.6.6l2.4.4 2 .3c3.5.6 6.5 1.8 9.7 2.4 3.3.4 6.2.1 9.6.6l2.4.3 2.1.3c3.4.7 6.4 1.8 9.6 2.4 3.3.4 6.2.1 9.6.6l2.4.3 2.1.3 4.3 1 .5 1.1-7.4-1.9c-3.2-.3-6.1 0-9.6-.5l-2.4-.4-2-.3c-3.5-.6-6.4-1.7-9.6-2.4-3.3-.3-6.2 0-9.7-.5l-2.5-.4-2-.3c-3.4-.6-6.3-1.8-9.6-2.4-3.2-.4-6.1-.1-9.6-.6l-2.6-.4-1.8-.3c-3.5-.6-6.4-1.7-9.7-2.4-3.2-.3-6.1-.1-9.6-.5l-2.5-.4-2-.3c-3.4-.6-6.4-1.7-9.6-2.4l-7-.2.5-1z"/><path fill="url(#d)" d="m450.5 515.1 2.4.4 2 .3c3.5.6 6.5 1.7 9.7 2.4 3.3.3 6.2 0 9.6.5l2.4.4 2 .3c3.5.6 6.5 1.7 9.7 2.4 3.2.3 6.2.1 9.6.6l2.4.3 2 .3 9.7 2.5c3.3.3 6.2 0 9.6.5l2.4.4 2.1.3c3.4.6 6.4 1.7 9.6 2.4 3.3.3 6.2 0 9.6.5l2.4.4 2.1.3 3.7.8.5 1-6.7-1.7c-3.3-.3-6.2 0-9.7-.5l-2.4-.3-2-.3c-3.5-.6-6.4-1.8-9.6-2.4-3.3-.4-6.2-.1-9.7-.6l-2.5-.4-2-.3c-3.4-.6-6.3-1.7-9.6-2.4-3.2-.3-6.1-.1-9.6-.5l-2.6-.5-1.8-.2c-3.5-.6-6.4-1.8-9.7-2.4-3.2-.4-6.1-.1-9.6-.6l-2.5-.4-2-.3c-3.4-.6-6.4-1.7-9.6-2.3q-3.2-.3-6.4-.3l.5-.8z"/><path fill="url(#e)" d="m450.5 513.9 2.4.3 2 .3c3.5.6 6.5 1.8 9.7 2.4 3.3.3 6.2.1 9.6.6l2.4.3 2 .3c3.5.6 6.5 1.8 9.7 2.4 3.2.4 6.2.1 9.6.6l2.4.4 2 .3c3.5.6 6.5 1.8 9.7 2.4 3.3.4 6.2.1 9.6.6l2.4.3 2.1.3c3.4.7 6.4 1.8 9.6 2.4 3.3.4 6.2.1 9.6.6l2.4.3 2.1.3 3 .7.5 1-6-1.5c-3.3-.3-6.2 0-9.7-.5l-2.4-.4-2-.3c-3.4-.6-6.4-1.7-9.6-2.4-3.3-.3-6.2 0-9.7-.5l-2.4-.4-2-.3c-3.5-.6-6.4-1.8-9.7-2.4-3.2-.4-6.1-.1-9.6-.6l-2.6-.4-1.8-.3c-3.5-.6-6.4-1.7-9.7-2.4-3.2-.3-6.1-.1-9.6-.5l-2.5-.4-2-.3c-3.4-.6-6.4-1.7-9.6-2.4l-5.7-.2.5-.9z"/><path fill="url(#f)" d="m450.5 512.6 2.4.4 2 .3c3.5.6 6.5 1.7 9.7 2.4 3.3.3 6.2 0 9.6.5l2.4.4 2 .3c3.5.6 6.5 1.7 9.7 2.4 3.2.3 6.2.1 9.6.6l2.4.3 2 .3 9.7 2.5c3.3.3 6.2 0 9.6.5l2.4.4 2.1.3c3.4.6 6.4 1.7 9.6 2.4 3.3.3 6.2 0 9.6.5l2.4.4 2.1.3 2.3.4.5 1.1-5.3-1.4c-3.3-.3-6.2 0-9.7-.5l-2.4-.3-2-.3c-3.4-.6-6.4-1.8-9.6-2.4-3.3-.4-6.2-.1-9.7-.6l-2.4-.4-2-.3c-3.5-.6-6.4-1.7-9.7-2.4-3.2-.3-6.1-.1-9.6-.5l-2.6-.5-1.8-.2c-3.5-.6-6.4-1.8-9.7-2.4-3.2-.4-6.1-.1-9.6-.6l-2.5-.4-2-.3c-3.4-.6-6.4-1.7-9.6-2.3l-5-.2.5-1z"/><path fill="url(#g)" d="m450.5 511.4 2.4.3 2 .4c3.5.5 6.5 1.7 9.7 2.3 3.3.4 6.2.1 9.6.6l2.4.3 2 .3c3.5.6 6.5 1.8 9.7 2.5 3.2.3 6.2 0 9.6.5l2.4.4 2 .3c3.5.6 6.5 1.8 9.7 2.4 3.3.4 6.2.1 9.6.6l2.4.3 2.1.4c3.4.6 6.4 1.7 9.6 2.3 3.3.4 6.2.1 9.6.6l2.4.3 2.1.3 1.7.3.5 1-4.7-1.1c-3.3-.3-6.2 0-9.7-.5l-2.4-.4-2-.3c-3.5-.6-6.4-1.7-9.6-2.4-3.3-.3-6.2 0-9.7-.5l-2.5-.4-2-.3c-3.4-.6-6.3-1.8-9.6-2.4-3.2-.4-6.1-.1-9.6-.6l-2.6-.4-1.8-.3c-3.5-.6-6.4-1.7-9.7-2.4-3.2-.3-6.1 0-9.6-.5l-2.5-.4-2-.3c-3.4-.6-6.4-1.7-9.6-2.4l-4.3-.2.4-.8z"/><path fill="url(#h)" d="m450.5 510.1 2.4.4 2 .3c3.5.6 6.5 1.7 9.7 2.4 3.3.3 6.2 0 9.6.5l2.4.4 2 .3c3.5.6 6.5 1.7 9.7 2.4 3.2.3 6.2.1 9.6.6l2.4.3 2 .3 9.7 2.5c3.3.3 6.2 0 9.6.5l2.4.4 2.1.3c3.4.6 6.4 1.7 9.6 2.4 3.3.3 6.2 0 9.6.5l2.4.4 2.1.3q.6 0 1 .2l.5 1-4-1c-3.3-.4-6.2-.1-9.7-.6l-2.4-.3-2-.3c-3.4-.6-6.4-1.8-9.6-2.4-3.3-.4-6.2-.1-9.7-.6l-2.4-.4-2-.3c-3.5-.6-6.4-1.7-9.7-2.4-3.2-.3-6.1 0-9.6-.6l-2.6-.4-1.8-.2c-3.5-.6-6.4-1.8-9.7-2.4-3.2-.4-6.1-.1-9.6-.6l-2.5-.4-2-.3c-3.4-.6-6.4-1.7-9.6-2.3q-1.8-.2-3.7-.2l.5-.8z"/><path fill="url(#i)" d="m450.5 508.9 2.4.3 2 .4c3.5.5 6.5 1.7 9.7 2.3 3.3.4 6.2.1 9.6.6l2.4.3 2 .3 9.7 2.5c3.2.3 6.2 0 9.6.5l2.4.4 2 .3c3.5.6 6.5 1.8 9.7 2.4 3.3.4 6.2.1 9.6.6l2.4.3 2.1.4c3.4.6 6.4 1.7 9.6 2.4 3.3.3 6.2 0 9.6.5l2.4.3 2.1.3h.4l.4 1-3.3-.8c-3.3-.3-6.2 0-9.7-.5l-2.4-.4-2-.3c-3.5-.6-6.4-1.7-9.6-2.4-3.3-.3-6.2 0-9.7-.5l-2.5-.4-2-.3c-3.4-.6-6.3-1.8-9.6-2.4-3.2-.4-6.1-.1-9.6-.6l-2.6-.4-1.8-.3c-3.5-.6-6.4-1.7-9.7-2.4-3.2-.3-6.1-.1-9.6-.5l-2.5-.4-2-.3c-3.4-.6-6.4-1.7-9.6-2.4l-3-.2.4-.7z"/><path fill="url(#j)" d="m450.5 507.6 2.4.4 2 .3c3.5.6 6.5 1.7 9.7 2.4 3.3.3 6.2 0 9.6.5l2.4.4 2 .3c3.5.6 6.5 1.8 9.7 2.4 3.2.3 6.2.1 9.6.6l2.4.3 2 .4c3.5.6 6.5 1.7 9.7 2.4 3.3.3 6.2 0 9.6.5l2.4.4 2.1.3c3.4.6 6.4 1.8 9.6 2.4 3.3.3 6.2 0 9.6.5l2.4.4 1.8.2.4.9q-1.3-.5-2.7-.6c-3.2-.4-6.1-.1-9.6-.6l-2.4-.3-2-.3c-3.5-.6-6.4-1.8-9.6-2.4-3.3-.4-6.2-.1-9.7-.6l-2.5-.4-2-.3c-3.4-.6-6.3-1.7-9.6-2.4-3.2-.3-6.1 0-9.6-.5l-2.6-.5-1.8-.2c-3.5-.6-6.4-1.8-9.7-2.4-3.2-.4-6.1-.1-9.6-.6l-2.5-.4-2-.3c-3.4-.6-6.4-1.7-9.6-2.3l-2.3-.2z"/><path fill="url(#k)" d="m450.8 507 .3-.5 1.8.2 2 .3c3.5.6 6.5 1.8 9.7 2.4 3.3.4 6.2.1 9.6.6l2.4.3 2 .3c3.5.6 6.5 1.8 9.7 2.4 3.2.4 6.2.2 9.6.6l2.4.4 2 .3c3.5.6 6.5 1.8 9.7 2.4 3.3.4 6.2.1 9.6.6l2.4.3 2.1.4c3.4.6 6.4 1.7 9.6 2.3 3.3.4 6.2.1 9.6.6l2.4.3 1.2.2.3.7-2-.4c-3.2-.3-6.1 0-9.6-.5l-2.4-.4-2-.3c-3.5-.6-6.4-1.7-9.6-2.4-3.3-.3-6.2 0-9.7-.5l-2.5-.4-2-.3c-3.4-.6-6.3-1.8-9.6-2.4-3.2-.4-6.1-.1-9.6-.6l-2.6-.4-1.8-.3c-3.5-.6-6.4-1.7-9.7-2.4-3.2-.3-6.1 0-9.6-.5l-2.5-.4-2-.3c-3.4-.6-6.4-1.7-9.6-2.4z"/><path fill="url(#c)" d="m451.7 505.6 96.6 14.7.4.7-97.4-14.9zm.4-.8 95.8 14.6.3.5-96.4-14.7zm.4-.7 95 14.5.3.5-95.6-14.6zm.4-.7 94.2 14.4.3.5-94.8-14.5zm.3-.8 93.5 14.3.3.5-94-14.3zm.4-.5 92.8 14.2.2.4-93.2-14.3zm.2-.4 92.4 14.1.2.3-92.8-14.2zm.2-.4 92 14 .1.4-92.2-14.2z"/><path fill="url(#c)" d="m458 507.3 3.8.6s-.3.6-3.8-.6m80.2 12.3 3.8.6c-3.5.1-3.7-.5-3.8-.6"/><path fill="url(#l)" d="M530.1 501.3c1.7.4 2.2 1.3 2.2 1.3 2.7 11.6 10.3 23.3 19.9 26.7l6 13.2-60.4-9.2v-12.1l8 1.2c10.7 1.4 19.2-8.8 22.1-20.4 0-.1.5-.8 2.2-.7"/><path fill="#97c924" d="M530.1 501.8q1.2.2 1.5.7l.4.3a49 49 0 0 0 8.2 17.7q5.3 7 12.3 9.4l5.6 12-60-9v-11.2l7.6 1.2c5.6.7 10.2-1.4 14.4-5.4 4-4 6.7-9.4 8.2-15.2l.3-.3q.4-.3 1.5-.2"/><path fill="#ede71f" d="m530.1 501.8.4.1V514c0 2.7-.8 4.6-2 7-.5 1.5-.8.9-2.3 2.8a40 40 0 0 1-15.7-.9q5.3-1.2 9.6-5.4l2-2.4a34 34 0 0 0 4-6.5l1.3-3.1.3-1.1.6-2.1.3-.3.6-.2z"/><path fill="#c6cb24" d="M529.5 503.3a32 32 0 0 1-6.6 19q-2.5 2.1-5.5 1.6a38 38 0 0 0 12-20.6"/><path fill="#9ecb34" d="M524.1 514.1c-1.1 3-4.6 6.7-8.7 10l-.8-.2q-1 0-2-.3c2.6-.1 7.9-4.3 11.5-9.5"/><path fill="url(#m)" d="M515 499c1.7.4 2.2 1.3 2.3 1.3C520 512 527.5 523.6 537 527l6 13.2-60.4-9.3v-12l8 1.2c10.7 1.3 19.2-8.8 22.2-20.5 0 0 .4-.7 2.2-.6"/><path fill="#97c924" d="M515 499.5a3 3 0 0 1 1.6.6l.3.4a49 49 0 0 0 8.2 17.7q5.3 7 12.3 9.4l5.6 12.1-60-9.2v-11.1l7.6 1.2q8.3.7 14.4-5.5t8.2-15.2l.3-.2q.4-.3 1.5-.2"/><path fill="#ede71f" d="M515 499.5h.4v12.2c0 2.6-.8 4.5-2 6.9-.5 1.6-.8 1-2.3 2.8-1.8.5-3 .6-5 .6-2.6 0-7.9-.5-10.7-1.5q5.3-1.2 9.6-5.4l2-2.3a40 40 0 0 0 5.2-9.6l.4-1.1.6-2.2.3-.2.6-.2z"/><path fill="#c6cb24" d="M514.4 501a32 32 0 0 1-6.6 19q-2.4 2-5.5 1.6a38 38 0 0 0 12-20.6"/><path fill="#9ecb34" d="M509 511.8a29 29 0 0 1-8.7 9.9l-.8-.1q-1 0-2-.3c2.7-.1 7.9-4.3 11.5-9.5"/><path fill="url(#l)" d="M502.2 498c2.9 12.5 11.5 25.3 22.2 27.3l8 1.2v12l-64.8-9.9v-12l8 1.2c10.8 1.3 19.2-8.8 22.2-20.5 0 0 .5-.8 2.2-.6 1.7.4 2.2 1.2 2.2 1.3"/><path fill="#97c924" d="M500 497.2a3 3 0 0 1 1.5.6q.4.3.3.4a49 49 0 0 0 8.2 17.7q6.2 8.1 14.4 9.9l7.5 1.1V538l-63.9-9.8v-11.1l7.6 1.2c5.6.6 10.2-1.5 14.3-5.5 4-4 6.7-9.4 8.2-15.2l.4-.3q.4-.2 1.5-.1"/><path fill="#ede71f" d="M499.3 497.1c0 2-.5 7.9-1.9 11.2-.5 2.6-2 4.6-3.3 7-.5 1.6 0 1-1.4 3q-2.9.3-6 .4h-1.6c-1.6.2-2.7.3-4.8-.5q5.4-1.2 9.6-5.4 1.1-1.1 2.1-2.4a35 35 0 0 0 5.2-9.6l.3-1 .6-2.2.4-.3.5-.2z"/><path fill="#c6cb24" d="M499.3 498.7a32 32 0 0 1-6.5 18.9c-1.8 1.3-3.5 2.2-5.6 1.7a38 38 0 0 0 12-20.6"/><path fill="#9ecb34" d="M494 509.5a30 30 0 0 1-8.8 9.9l-.8-.1-2-.3c2.7-.2 8-4.3 11.5-9.5"/><path fill="#ede71f" d="m501 497.4.5.4q.4.3.3.4l.6 2.3.4 1.2 1.2 3.5 1 2.2 3 5.5 2 3c2.9 3.7 6 7 9.7 8.8-7.3-1.1-10-2.3-12.9-6.5-2.5-4.2-3.4-6-4-8.4l-.3-1.2c-.7-2.8-1.6-7.1-1.6-11.2"/><path fill="#c6cb24" d="M501.5 499c1.4 7.2 4.8 16 12 23-2-.1-3.9-1.6-5.6-3.4-4.2-6-6-12.7-6.4-19.6"/><path fill="url(#l)" d="M485 494.4c1.7.3 2.2 1.2 2.2 1.3 2.5 10.7 9.2 21.7 18 26v12.7l-48.3-7.4 4.7-8.6c9.7-.6 18.5-12.6 21.2-23.4 0 0 .5-.8 2.2-.6"/><path fill="#97c924" d="M485 494.8q1.1.3 1.5.7l.3.3a49 49 0 0 0 8.2 17.8q4.3 5.5 9.4 8.2v12l-47.3-7.2 4.3-7.7c4.4 0 10.2-3.7 13.8-8a48 48 0 0 0 8-15.6l.3-.3q.4-.3 1.5-.2"/><path fill="#93bc30" d="M483.7 496.3c-.8 10.3-5.5 21.6-11.2 23.3-1.8.4-5 .3-6 .2 9.8-4 15.3-15.1 17.2-23.5"/><path fill="#ede71f" d="m485 494.8 1 .3.5.4.3.3.6 2.4.4 1.2a46 46 0 0 0 2.2 5.7q1.4 2.9 3 5.5l.7 1 1.3 2a30 30 0 0 0 9.6 8.3h-4.4l3.4 3.2c-3.8-.3-9.4-1.8-14.6-6.8-1.5-1.6-1.8-2-2.2-3.3l-.2-.6a20 20 0 0 1-2-7.5v-12z"/><path fill="#ccd11e" d="M485.7 496.6c1.5 7.1 5.4 17 12 24.3-2-.1-3.8-1.6-5.5-3.4-4.2-6-6-14-6.5-21"/><path fill="#9ecb34" d="M489.8 506.5c5.6 11 12.4 16 16.8 19.3h-.3c-.8 0-1.2-.1-2.2-.3a48 48 0 0 1-14.3-19"/><path fill="url(#n)" d="M469.8 492c1.7.4 2.2 1.3 2.2 1.3 2.5 10.8 9.2 21.8 18 26v12.8l-48.3-7.3 4.7-8.6c9.7-.7 18.5-12.8 21.2-23.5 0 0 .5-.8 2.2-.7"/><path fill="#97c924" d="M469.8 492.5q1.1.2 1.5.6l.3.4a49 49 0 0 0 8.3 17.8q4.1 5.3 9.4 8.2v12l-47.3-7.2 4.2-7.6c4.4-.1 10.2-3.8 13.8-8.1 3.3-4.4 6.5-9.8 8-15.6l.3-.3q.4-.3 1.5-.2"/><path fill="#93bc30" d="M468.5 494c-.8 10.3-5.5 21.6-11.1 23.4-1.9.3-5 .2-6.2.2 9.9-4.2 15.5-15.2 17.3-23.7"/><path fill="#ede71f" d="M469.8 492.5q.6 0 1 .3l.5.3.3.4.6 2.3.4 1.2a52 52 0 0 0 5.3 11.3l.6 1 1.3 2a30 30 0 0 0 9.7 8.3l-4.5-.1q1.6 1.4 3.4 3.3c-3.7-.3-9.4-1.9-14.6-6.8-1.5-1.6-1.8-2-2.2-3.3l-.2-.6a20 20 0 0 1-2-7.5v-12.1z"/><path fill="#c6cb24" d="M470.5 494.2a55 55 0 0 0 12 24.4q-3-.5-5.5-3.4c-4.2-6-6-14-6.5-21"/><path fill="#9ecb34" d="M474.6 504.2c5.6 11 12.4 15.9 16.8 19.3h-.3l-2.2-.3a48 48 0 0 1-14.3-19"/><path fill="#fff" d="m555.6 536.1 7 14.5-63.3-9.6-62-9.4 6.2-11.3c2.7.1 6 0 8.8.4l.8.1h.5l.1.1h.5l.1.1h.5l.8.2c3.5.6 6.6 2 10 2.5q2.4.4 4.7.3l5.1.2.8.1h.5l.1.1h.6l.5.2h.8c3.5.7 6.5 2 10 2.7 3.3.4 6.2 0 9.8.4l2 .3 1.3.3c3.5.6 6.5 2 10 2.6 3.3.4 6.3 0 9.8.4l2 .3 1.3.2c3.5.7 6.6 2 10 2.6 3.3.4 6.3 0 9.8.4l2 .3 1.3.2 1.3-.2 3.7.6z"/><path fill="url(#o)" d="M547.2 533.1a49 49 0 0 1 8 1.9l.9 1.8c-2.4-.8-5.9-1.5-8.1-1.8l-4.5-.5c-3.4-.3-6.5-.1-9.7-.3l-4.3-1q-2.5-.8-5.2-1.2l-4.4-.5q-2.1-.2-3.9-.1-2.2.1-4.9-.4l-2.5-.6c-3.3-.7-6.9-1.5-9.3-1.5l-2.8-.3c-3.6-.4-5.8.3-8.2.1-3.8-.6-6.6-1.4-10.4-2-5.3-.8-5.9 0-10.4-.3a176 176 0 0 1-15.1-2.7c-2.2-.2-8.4 0-10.6-.1l.8-1.5c2.8-.2 6.5-.6 10-.2l5.7 1.3 6.8 1.4c3 .4 4.9.3 6.8.1l4-.1q3.8.3 7.4 1.2l4.4 1c3 .4 7.8.2 11.7.3 2.7.2 6 .9 8.7 1.5q2 .5 3.7.7 2 .3 4.2.2a44 44 0 0 1 14 1.8c1.5.4 3 .9 5.6 1.3 5.6.8 7.8.1 11 .4z"/><path fill="url(#o)" d="m451.1 531.5 2.3.3 2.1.3c3.4.6 6.3 1.8 9.5 2.5 3.2.3 6.1 0 9.5.4l2.4.4 2 .3c3.4.6 6.4 1.8 9.5 2.5 3.3.3 6.1 0 9.5.4l2.4.4 2 .3c3.4.6 6.4 1.8 9.6 2.5 3.2.3 6 0 9.5.4l2.3.4 2 .3c3.5.6 6.4 1.8 9.6 2.5 3.2.3 6 0 9.5.4l2.3.3 2.1.3c3.4.6 6.3 1.8 9.5 2.5l3.2.1.5 1-1.8-.2-2.4-.4-2-.3c-3.4-.5-6.3-1.8-9.5-2.4-3.2-.3-6.1 0-9.5-.4l-2.5-.4-2-.2c-3.3-.7-6.2-1.9-9.4-2.6-3.2-.3-6.1 0-9.5-.4l-2.5-.3-2-.3c-3.3-.7-6.3-1.9-9.5-2.6-3.2-.3-6 0-9.5-.4l-2.4-.4-2-.3c-3.3-.6-6.3-1.8-9.5-2.5-3.2-.3-6 0-9.5-.4l-2.4-.3-2-.3c-3.4-.6-6.3-1.9-9.5-2.5-3.2-.3-6 0-9.5-.4l-2.4-.3-2-.3-1.5-.3.5-.9 3.5 1c3.2.2 6.1-.2 9.5.3"/><path fill="url(#p)" d="m451.1 530 2.3.4 2.1.3c3.4.6 6.3 1.8 9.5 2.5 3.2.3 6.1 0 9.5.3l2.4.4 2 .3c3.4.6 6.4 1.9 9.5 2.5 3.3.4 6.1 0 9.5.5l2.4.3 2 .3c3.4.6 6.4 1.9 9.6 2.6 3.2.3 6 0 9.5.4l2.3.3 2 .3c3.5.7 6.4 1.9 9.6 2.6 3.2.3 6 0 9.5.3l2.3.4 2.1.3c3.4.6 6.3 1.8 9.5 2.4l2.5.2.5.9q-.6 0-1.1-.2l-2.4-.3-2-.3c-3.4-.6-6.3-1.8-9.5-2.5-3.2-.3-6.1.1-9.5-.3l-2.5-.4-2-.3c-3.3-.6-6.2-1.8-9.4-2.5-3.2-.3-6.1 0-9.5-.4l-2.5-.4-2-.3c-3.3-.6-6.3-1.8-9.5-2.5-3.2-.3-6 0-9.5-.4l-2.4-.4-2-.3c-3.3-.6-6.3-1.9-9.5-2.5-3.2-.3-6 0-9.5-.4l-2.4-.4-2-.3c-3.4-.6-6.3-1.8-9.5-2.5-3.2-.3-6 0-9.5-.3l-2.4-.4-2-.3h-.8l.5-1 2.8.8c3.2.3 6.1-.1 9.5.3"/><path fill="url(#q)" d="m451.1 528.6 2.3.3 2.1.3c3.4.6 6.3 1.8 9.5 2.5 3.2.3 6.1 0 9.5.4l2.4.4 2 .3c3.4.6 6.4 1.8 9.5 2.5 3.3.3 6.1 0 9.5.4l2.4.4 2 .3c3.4.6 6.4 1.9 9.6 2.5 3.2.3 6 0 9.5.4l2.3.4 2 .3c3.5.6 6.4 1.8 9.6 2.5 3.2.3 6 0 9.5.4l2.3.3 2.1.3c3.4.6 6.3 1.8 9.5 2.5l1.9.1.4.9h-.4l-2.4-.5-2-.2c-3.4-.6-6.3-1.8-9.5-2.5-3.2-.3-6.1 0-9.5-.4l-2.5-.3-2-.3c-3.3-.6-6.2-1.9-9.4-2.5-3.2-.3-6.1 0-9.5-.4l-2.5-.4-2-.3c-3.3-.6-6.3-1.9-9.5-2.5-3.2-.4-6 0-9.5-.5l-2.4-.3-2-.3c-3.3-.7-6.3-1.9-9.5-2.6-3.2-.3-6 0-9.5-.4l-2.4-.3-2-.3c-3.4-.6-6.3-1.8-9.5-2.5-3.2-.3-6 0-9.5-.3l-2.4-.4-2-.3.3-.8 2.2.5c3.2.3 6.1 0 9.5.4"/><path fill="url(#r)" d="m451.1 527.1 2.3.4 2.1.3c3.4.6 6.3 1.8 9.5 2.5 3.2.3 6.1 0 9.5.4l2.4.3 2 .3c3.4.7 6.4 1.9 9.5 2.6 3.3.3 6.1 0 9.5.4l2.4.3 2 .3c3.4.7 6.4 2 9.6 2.6 3.2.3 6 0 9.5.4l2.3.4 2 .3c3.5.6 6.4 1.8 9.6 2.5 3.2.3 6 0 9.5.3l2.3.4 2.1.3c3.4.6 6.3 1.8 9.5 2.4l1.2.1.3.8-2-.3-2-.3c-3.4-.6-6.3-1.8-9.5-2.4-3.2-.3-6.1 0-9.5-.4l-2.5-.4-2-.3c-3.3-.6-6.2-1.8-9.4-2.5-3.2-.3-6.1 0-9.5-.4l-2.5-.4-2-.3c-3.3-.6-6.3-1.8-9.5-2.5-3.2-.3-6 0-9.5-.4l-2.4-.4-2-.3c-3.3-.6-6.3-1.8-9.5-2.5-3.2-.3-6 0-9.5-.4l-2.4-.4-2-.3c-3.4-.6-6.3-1.8-9.5-2.5-3.2-.2-6 .1-9.5-.3l-2.4-.4-1.3-.1.3-.7 1.5.3c3.2.3 6.1 0 9.5.3"/><path fill="url(#s)" d="m451.1 525.7 2.3.3 2.1.3c3.4.6 6.3 1.9 9.5 2.5 3.2.3 6.1 0 9.5.4l2.4.4 2 .3c3.4.6 6.4 1.8 9.5 2.5 3.3.3 6.1 0 9.5.4l2.4.4 2 .3c3.4.6 6.4 1.9 9.6 2.5 3.2.3 6 0 9.5.4l2.3.4 2 .3c3.5.6 6.4 1.9 9.6 2.5 3.2.3 6 0 9.5.4l2.3.3 2.1.3c3.4.6 6.3 1.9 9.5 2.5h.5l.3.7-1.3-.1-2-.3c-3.4-.6-6.3-1.8-9.5-2.5-3.2-.3-6.1 0-9.5-.4l-2.4-.3-2-.3c-3.4-.6-6.3-1.9-9.5-2.5-3.2-.3-6.1 0-9.5-.4l-2.5-.4-2-.3c-3.3-.6-6.3-1.9-9.5-2.5-3.2-.4-6 0-9.5-.5l-2.4-.3-2-.3c-3.3-.6-6.3-1.9-9.5-2.6-3.2-.3-6 0-9.5-.3l-2.4-.4-2-.3c-3.4-.6-6.3-1.8-9.5-2.5-3.2-.3-6 0-9.5-.3l-2.4-.4h-.6l.3-.7.8.1c3.2.3 6.1 0 9.5.4"/><path fill="url(#t)" d="m451.1 524.2 2.3.4 2.1.3c3.4.6 6.3 1.8 9.5 2.5 3.2.3 6.1 0 9.5.4l2.4.3 2 .3c3.4.7 6.4 1.9 9.5 2.6 3.3.3 6.1 0 9.5.4l2.4.3 2 .4c3.4.6 6.4 1.8 9.6 2.5 3.2.3 6 0 9.5.4l2.3.4 2 .3c3.5.6 6.4 1.8 9.6 2.5 3.2.3 6 0 9.5.4l2.3.3 2.1.3c3.3.6 6.2 1.7 9.2 2.4l.4.7h-.6l-2-.4c-3.4-.6-6.3-1.8-9.5-2.4-3.2-.3-6.1 0-9.5-.4l-2.4-.4-2-.3c-3.4-.6-6.3-1.8-9.5-2.5-3.2-.3-6.1 0-9.5-.4l-2.5-.4-2-.3c-3.3-.6-6.3-1.8-9.5-2.5-3.2-.3-6 0-9.5-.4l-2.4-.4-2-.3c-3.3-.6-6.3-1.8-9.5-2.5-3.2-.3-6 0-9.5-.4l-2.4-.4-2-.3c-3.4-.6-6.3-1.8-9.5-2.4-3.2-.3-6 0-9.5-.4l-2.3-.3.3-.6h.1c3.2.3 6.1 0 9.5.3"/><path fill="url(#u)" d="m451.1 522.8 2.3.4 2.1.3c3.4.5 6.3 1.8 9.5 2.4 3.2.3 6.1 0 9.5.4l2.4.4 2 .3c3.4.6 6.4 1.9 9.5 2.5 3.3.3 6.1 0 9.5.4l2.4.4 2 .3c3.4.6 6.4 1.9 9.6 2.6 3.2.3 6 0 9.5.4l2.3.3 2 .3c3.5.6 6.4 1.9 9.6 2.5 3.2.3 6 0 9.5.4l2.3.4 2.1.3q4.4 1 8.5 2.2l.3.8-1.8-.3c-3.4-.6-6.3-1.8-9.5-2.5-3.2-.3-6.1 0-9.5-.3l-2.4-.4-2-.3c-3.4-.6-6.3-1.8-9.5-2.5-3.2-.3-6.1 0-9.5-.4l-2.5-.4-2-.3c-3.3-.6-6.3-1.9-9.5-2.5-3.2-.3-6 0-9.5-.4l-2.4-.4-2-.3c-3.3-.6-6.3-1.9-9.5-2.5-3.2-.3-6 0-9.5-.4l-2.4-.4-2-.3c-3.4-.6-6.3-1.8-9.5-2.5-3.2-.3-6 0-9.5-.3l-1.5-.3.3-.6c3 .2 5.6 0 8.8.3"/><path fill="url(#v)" d="m451.1 521.4 2.3.3 2.1.3c3.4.6 6.3 1.8 9.5 2.5 3.2.3 6.1 0 9.5.4l2.4.4 2 .3c3.4.6 6.4 1.8 9.5 2.5 3.3.3 6.1 0 9.5.4l2.4.4 2 .3c3.4.6 6.4 1.8 9.6 2.5 3.2.3 6 0 9.5.4l2.3.4 2 .3c3.5.6 6.4 1.8 9.6 2.5 3.2.3 6 0 9.5.4l2.3.3 2.1.3 7.7 2 .4 1-1.1-.3c-3.4-.5-6.3-1.8-9.5-2.4-3.2-.3-6.1 0-9.5-.4l-2.4-.4-2-.2c-3.4-.7-6.3-1.9-9.5-2.6-3.2-.3-6.1 0-9.5-.4l-2.5-.3-2-.3c-3.3-.7-6.3-1.9-9.5-2.6-3.2-.3-6 0-9.5-.4l-2.4-.4-2-.3c-3.3-.6-6.3-1.8-9.5-2.5-3.2-.3-6 0-9.5-.4l-2.4-.3-2-.3c-3.4-.6-6.3-1.9-9.5-2.5-3.2-.3-6 0-9.5-.4l-.8-.1.4-.7c2.6.1 5.1-.1 8 .3"/><path fill="url(#w)" d="m451.1 520 2.3.3 2.1.3c3.4.6 6.3 1.8 9.5 2.5 3.2.3 6.1 0 9.5.3l2.4.4 2 .3c3.4.6 6.4 1.9 9.5 2.5 3.3.4 6.1 0 9.5.5l2.4.3 2 .3c3.4.7 6.4 1.9 9.6 2.6 3.2.3 6 0 9.5.4l2.3.3 2 .4c3.5.6 6.4 1.8 9.6 2.5 3.2.3 6 0 9.5.3l2.3.4 2.1.3q3.7.8 7 1.8l.4 1h-.4c-3.4-.7-6.3-1.9-9.5-2.6-3.2-.2-6.1.1-9.5-.3l-2.4-.4-2-.3c-3.4-.6-6.3-1.8-9.5-2.5-3.2-.3-6.1 0-9.5-.4l-2.5-.4-2-.3c-3.3-.6-6.3-1.8-9.5-2.5-3.2-.3-6 0-9.5-.4l-2.4-.4-2-.3c-3.3-.6-6.3-1.8-9.5-2.5-3.2-.3-6 0-9.5-.4l-2.4-.4-2-.3c-3.4-.6-6.3-1.8-9.5-2.5-3.2-.3-6 .1-9.5-.3l.4-.8q3.4-.1 7.2.2"/><path fill="#97c924" d="M444.7 519.3h9l99.7 12.7 1.9 4-2.3-.5a40 40 0 0 0-10-1 33 33 0 0 1-13-1.7 36 36 0 0 0-12.9-1.7 20 20 0 0 1-5.3-.1l-5-1.1q-3.8-1-7.4-1.3c-4 0-8.6.3-11.7 0l-4.7-1.2q-3.4-1-7-1.3l-4.1.1c-2 .2-3.8.3-6.8 0l-6.6-1.6q-3-.9-5.7-1.4c-3.5-.4-7.6.2-10.4.4z"/><path fill="#fff" d="m549.3 535.1 3.7.6 2.6.4.4.6-3-.7z"/><path fill="#c8a400" d="m500 415.9-31.6 57.5-32.4 58.9 63.3 9.5 64.7 9.8-31.7-67zm0 3.3 31 66 30.4 64.4-62-9.4-60.8-9.2 31-56.6z"/><path fill="#1a1a1a" d="M8 195.3c170.8-85.3 341-54.5 513.3-28C676.5 191 833.4 211.8 992 132.7v672c-170.8 85.3-341 54.5-513.3 28C323.5 809 166.6 788.1 8 867.2zm31.3 19.3v604.5c306.5-128.2 611.1 96 921.5-33.7V180.9C654.2 309 349.5 84.9 39.3 214.6" opacity=".2"/></svg>