<svg xmlns="http://www.w3.org/2000/svg" viewBox="0 0 1000 1000"><defs><linearGradient id="a" x1="499" x2="501" y1="289" y2="283" gradientTransform="matrix(.984 .15234 0 1.12 8 87.828)" gradientUnits="userSpaceOnUse"><stop offset="0" stop-color="#510000"/><stop offset="0" stop-color="#8a0000"/><stop offset="1" stop-color="#a00"/></linearGradient><linearGradient id="b" x1="501" x2="503" y1="291" y2="287" gradientTransform="matrix(.984 .15233 0 1.12 8 87.834)" gradientUnits="userSpaceOnUse"><stop offset="0" stop-color="#ff2a2a"/><stop offset="1" stop-color="red"/></linearGradient><linearGradient id="l" x1="485" x2="485" y1="312" y2="318" gradientTransform="matrix(.984 .15175 0 1.12 8 88.121)" gradientUnits="userSpaceOnUse"><stop offset="0" stop-color="#f5f549"/><stop offset="1" stop-color="#97c924"/></linearGradient><linearGradient id="n" x1="469" x2="469" y1="312" y2="318" gradientTransform="matrix(.984 .14992 0 1.12 8 88.99)" gradientUnits="userSpaceOnUse"><stop offset="0" stop-color="#f5f549"/><stop offset="1" stop-color="#97c924"/></linearGradient><linearGradient id="m" x1="469" x2="469" y1="312" y2="318" gradientTransform="matrix(.984 .14993 0 1.12 8 88.984)" gradientUnits="userSpaceOnUse"><stop offset="0" stop-color="#f5f549"/><stop offset="1" stop-color="#97c924"/></linearGradient><linearGradient id="c" x1="445" x2="634" y1="317" y2="317" gradientTransform="matrix(.984 .14833 0 1.12 8 89.94)" gradientUnits="userSpaceOnUse"><stop offset="0" stop-color="#025"/><stop offset="1" stop-color="#04a"/><stop offset="1" stop-color="#025"/></linearGradient><linearGradient id="k" x1="445" x2="634" y1="309" y2="309" gradientTransform="matrix(.984 .14833 0 1.12 8 89.94)" gradientUnits="userSpaceOnUse"><stop offset="0" stop-color="#025"/><stop offset="1" stop-color="#04a"/><stop offset="1" stop-color="#025"/></linearGradient><linearGradient id="j" x1="445" x2="634" y1="310" y2="310" gradientTransform="matrix(.984 .14833 0 1.12 8 89.94)" gradientUnits="userSpaceOnUse"><stop offset="0" stop-color="#025"/><stop offset="1" stop-color="#04a"/><stop offset="1" stop-color="#025"/></linearGradient><linearGradient id="i" x1="445" x2="634" y1="311" y2="311" gradientTransform="matrix(.984 .14833 0 1.12 8 89.94)" gradientUnits="userSpaceOnUse"><stop offset="0" stop-color="#025"/><stop offset="1" stop-color="#04a"/><stop offset="1" stop-color="#025"/></linearGradient><linearGradient id="h" x1="445" x2="634" y1="312" y2="312" gradientTransform="matrix(.984 .14833 0 1.12 8 89.94)" gradientUnits="userSpaceOnUse"><stop offset="0" stop-color="#025"/><stop offset="1" stop-color="#04a"/><stop offset="1" stop-color="#025"/></linearGradient><linearGradient id="g" x1="445" x2="634" y1="313" y2="313" gradientTransform="matrix(.984 .14833 0 1.12 8 89.94)" gradientUnits="userSpaceOnUse"><stop offset="0" stop-color="#025"/><stop offset="1" stop-color="#04a"/><stop offset="1" stop-color="#025"/></linearGradient><linearGradient id="f" x1="445" x2="634" y1="314" y2="314" gradientTransform="matrix(.984 .14833 0 1.12 8 89.94)" gradientUnits="userSpaceOnUse"><stop offset="0" stop-color="#025"/><stop offset="1" stop-color="#04a"/><stop offset="1" stop-color="#025"/></linearGradient><linearGradient id="e" x1="445" x2="634" y1="315" y2="315" gradientTransform="matrix(.984 .14833 0 1.12 8 89.94)" gradientUnits="userSpaceOnUse"><stop offset="0" stop-color="#025"/><stop offset="1" stop-color="#04a"/><stop offset="1" stop-color="#025"/></linearGradient><linearGradient id="d" x1="445" x2="634" y1="316" y2="316" gradientTransform="matrix(.984 .14833 0 1.12 8 89.94)" gradientUnits="userSpaceOnUse"><stop offset="0" stop-color="#025"/><stop offset="1" stop-color="#04a"/><stop offset="1" stop-color="#025"/></linearGradient><linearGradient id="o" x1="0" x2="1" y1="0" y2="0" gradientTransform="matrix(.984 -.4909 0 1.12 8 195.25)"><stop offset="0" stop-color="#025"/><stop offset="1" stop-color="#04a"/><stop offset="1" stop-color="#025"/></linearGradient><linearGradient id="p" x1="3" x2="4" y1="219" y2="219" gradientTransform="matrix(124.69825 19.3059 0 1.70495 8 87.828)" gradientUnits="userSpaceOnUse"><stop offset="0" stop-color="#025"/><stop offset="1" stop-color="#04a"/><stop offset="1" stop-color="#025"/></linearGradient><linearGradient id="q" x1="3" x2="4" y1="218" y2="218" gradientTransform="matrix(124.69825 19.3059 0 1.70495 8 87.828)" gradientUnits="userSpaceOnUse"><stop offset="0" stop-color="#025"/><stop offset="1" stop-color="#04a"/><stop offset="1" stop-color="#025"/></linearGradient><linearGradient id="r" x1="3" x2="4" y1="217" y2="217" gradientTransform="matrix(124.69825 19.3059 0 1.70495 8 87.828)" gradientUnits="userSpaceOnUse"><stop offset="0" stop-color="#025"/><stop offset="1" stop-color="#04a"/><stop offset="1" stop-color="#025"/></linearGradient><linearGradient id="s" x1="3" x2="4" y1="217" y2="217" gradientTransform="matrix(124.69825 19.3059 0 1.70495 8 87.828)" gradientUnits="userSpaceOnUse"><stop offset="0" stop-color="#025"/><stop offset="1" stop-color="#04a"/><stop offset="1" stop-color="#025"/></linearGradient><linearGradient id="t" x1="3" x2="4" y1="216" y2="216" gradientTransform="matrix(124.69825 19.3059 0 1.70495 8 87.828)" gradientUnits="userSpaceOnUse"><stop offset="0" stop-color="#025"/><stop offset="1" stop-color="#04a"/><stop offset="1" stop-color="#025"/></linearGradient><linearGradient id="u" x1="3" x2="4" y1="215" y2="215" gradientTransform="matrix(124.69825 19.3059 0 1.70495 8 87.828)" gradientUnits="userSpaceOnUse"><stop offset="0" stop-color="#025"/><stop offset="1" stop-color="#04a"/><stop offset="1" stop-color="#025"/></linearGradient><linearGradient id="v" x1="3" x2="4" y1="214" y2="214" gradientTransform="matrix(124.69825 19.3059 0 1.70495 8 87.828)" gradientUnits="userSpaceOnUse"><stop offset="0" stop-color="#025"/><stop offset="1" stop-color="#04a"/><stop offset="1" stop-color="#025"/></linearGradient><linearGradient id="w" x1="3" x2="4" y1="213" y2="213" gradientTransform="matrix(124.69825 19.3059 0 1.70495 8 87.828)" gradientUnits="userSpaceOnUse"><stop offset="0" stop-color="#025"/><stop offset="1" stop-color="#04a"/><stop offset="1" stop-color="#025"/></linearGradient></defs><path fill="#0067c6" d="M8 195c171-85 341-54 513-28 155 24 312 45 471-34v672c-171 85-341 54-513 28-155-24-312-45-471 34z"/><path fill="#fff" d="M8 419c171-85 341-54 513-28 155 24 312 45 471-34v224c-171 85-341 54-513 28-155-24-312-45-471 34z"/><path fill="#c8a400" d="m411 486 10 2v-1l-4-1 1-6 4-2v-2l-4 3-2-3-3-1-1 4zm2-1v-6l1-2 2 1v8zm0-16 9 4 2-10-1-1-2 9-3-1 2-8-1-1-2 8-3-1 2-8-1-1zm3-14 9 5 1-2-4-1 2-5v-4l-3-2-2 2-2 4zm2-1 1-4 2-2 2 1-1 4-1 3zm3-12 6 4q2 2 3 1l3-4v-4l-3-3-4-3v1l5 4 1 3-1 3q-1 2-3 1l-3-1-3-3zm7-12 8 8 4-5 1-4-3-2h-1l-2-3-3 1-2 3zm2 0 3-4h2v2l-1 3-2 1zm4 3 2-4 2-1 1 2-2 4-1 2zm3-14 7 9 6-5-1-1-5 4-6-8zm9-7 6 10 1-1-6-10zm9-6-3 3-1 2 3 6 3 1 5-4 1-3h-2q1 4-2 4-3 2-6-1-1-4 2-6h4l1-1-2-1zm11-4-1 12h2v-4l5-2 3 3h1l-8-10zm2 1 3 4-4 1zm20-5 1 11 5 1 4-2 1-5-4-4-4-1zm1 2h5l2 1 1 4q0 3-2 3h-5zm13-1-1 12 10 2v-2l-8-2v-3l7 2v-2l-7-2v-3l8 2v-2zm25 9-3 10 1 1 3-8v-1 1l4 12 1 1 4-10-1-1-3 8h-1l-3-12zm14 9-5 9-1-1 4-9zm7 6-3-2h-3l-2 1v6l3 3 3 2 3-1-1-1q-3 1-5-1-3-3-2-7 3-2 6 1 3 1 2 4l2 1-1-3zm9 9-10 3 1 2 3-1 5 4-1 4 1 1 3-12zm0 2-1 5-3-4zm8 7-8 6 1 1 3-2 3 5-1 5 1 2 1-6 3 1 2-2-2-4zm0 2 3 5v3h-2l-3-4-1-2zm11 17-11-1 1 2h3l3 6-2 3 1 2 6-10zm-1 2-2 4-2-4zm8 14-4-5h-5l-1 6 2 6v2l5-2-2-5h-1l1 4-1 1-3-6 1-4q2-3 4 0l3 5-1 3v1l1 1 1-3zm2 9-5 1h-2l-1 2v4l1 3 1 2h8v-2l-5 1q-3 0-4-4t2-5h6zm3 20-10-7v2l4 2v6l-3 2v2l10-5zm-1 1-4 2v-5zm-168 2-1 1 1 7h2zm162 25h1l-1 7-2-1zm-147 6h-11l1 2h4l3 5-2 4 1 1 5-10zm-1 2-2 4-2-4zm6 6-8 6 1 2 6-6-3 9 1 2 9-2-6 5 1 2 7-7-1-2-9 2 3-9zm10 13-6 8 7 8 1-1-6-7 2-2 5 6 1-1-6-6 2-3 6 7 1-1zm9 10-4 9 1 1 2-4 4 3 1 6 2 1-1-6h3v-3q0-2-2-3zm1 2 4 3 2 3-2 1-4-3-2-1zm10 6-3 10 1 1 4-10zm9 5-3-1h-2l-2 3v3l1 3 3 2 4 1 2-2-1-1q-3 2-5 0-3-1-3-6 3-3 6-1l3 4h1l-1-3q-1-2-3-2m10 4-6 9 1 1 2-3 6 1 1 4 1 1-3-13zm1 2 1 5-4-2zm22 1-3 1-2 2v3l1 3 3 2 3 1 3-1 2-3h-2q0 2-3 2-5 0-5-4-1-4 4-4 2 0 3 2l2-1-2-2zm7 0 3 11 9-1-1-2-7 1-1-3 7-1-1-2-7 1v-3l7-1v-2zm11-2 4 11 1-1-4-9 10 7h1l1-1-4-10h-2l4 9-10-7zm10-4 1 1 4-2 4 9 2-1-5-9 4-2-1-1zm10-6 7 9 1-1-3-4 4-3 5 2 1-2-5-1v-4l-2-2q-2 0-3 2zm2 0 4-3 2-1 1 3-3 3-2 1zm10-12 4 12 1-1-1-4 3-4 3 1 2-1-11-4zm1 1 5 2-3 3zm3-7 8 8 5-7-2-1-3 5z"/><path fill="#fff" d="m500 418 32 67 14 31-92-14 15-28z"/><path fill="#17c0eb" d="m500 418 2 5-2 61-2-62zm0 0 2 5-2 61-2-62zm0 64 2-59-2-5-2 4z"/><path fill="#fff" d="M500 475v3z"/><path fill="#17c0eb" d="m528 476 1 3-29 5zm-27 7 28-4zl28-8z"/><path fill="#fff" d="m507 482-3 1z"/><path fill="#17c0eb" d="m534 542-4-2-30-56 34 53zm0 1-4-3-30-56 34 53zm-33-58 29 55 4 2v-5z"/><path fill="#fff" d="m505 492-2-3z"/><path fill="#17c0eb" d="M466 532v-5l34-43-30 46zm0 0v-5l34-43-30 47zm33-47-33 42v5l4-2z"/><path fill="#fff" d="m495 490 2-2z"/><path fill="#17c0eb" d="m472 468 28 16-29-14zm27 15-27-15 28 16-29-14z"/><path fill="#fff" d="m493 480 2 1z"/><path fill="#17c0eb" d="m505 428 3 7-8 49zm-5 54 8-47-8 49 5-56z"/><path fill="#fff" d="M501 475v3z"/><path fill="#17c0eb" d="m530 481 1 3h-31zm-29 3h30zl30-3z"/><path fill="#fff" d="M508 483h-3z"/><path fill="#17c0eb" d="M527 545h-1l-3-2-23-59 27 57zm-26-60 22 58 3 2-3-2-23-59 28 57-1 4v-4z"/><path fill="#fff" d="m504 492-2-3z"/><path fill="#17c0eb" d="m460 525 1-5 39-36-36 40zm0 0 1-5 39-36-36 40zm39-40-38 35-1 5 4-1z"/><path fill="#fff" d="m495 489 3-2z"/><path fill="#17c0eb" d="m474 464 26 20-27-18zm25 19-25-19 26 20-27-18z"/><path fill="#fff" d="m493 479 3 2z"/><path fill="#17c0eb" d="m510 439 2 5-12 40zm-10 43 12-38-12 40 10-46v1z"/><path fill="#fff" d="m502 475-1 3z"/><path fill="#17c0eb" d="m532 486 2 3-34-5zm-31-2 33 5zl32 2z"/><path fill="#fff" d="m508 485-3-1z"/><path fill="#17c0eb" d="M521 544h-5l-16-60zm-20-59 15 59-16-60 21 60z"/><path fill="#fff" d="m503 493-1-4z"/><path fill="#17c0eb" d="m454 517 2-4 44-29-41 33zm0 1 2-5 44-29-41 33zm45-33-43 28-2 4h5z"/><path fill="#fff" d="m494 488 2-1z"/><path fill="#17c0eb" d="m476 460 24 24-25-21zm23 23-23-23h1l23 24-25-21z"/><path fill="#fff" d="m493 478 2 2z"/><path fill="#17c0eb" d="m514 447 2 4-16 33zm-13 35 15-31-16 33 14-38v1z"/><path fill="#fff" d="m503 476-1 3z"/><path fill="#17c0eb" d="m535 492 2 4-37-12zm-34-8 36 11v1l-37-12 35 7v1z"/><path fill="#fff" d="m508 486-3-1z"/><path fill="#17c0eb" d="m513 543-5-1-8-58zm-13-58 9 57h-1l-8-58 13 59z"/><path fill="#fff" d="m502 493-1-4z"/><path fill="#17c0eb" d="m450 509 2-4 48-21-46 26zm0 0 2-4 48-21-46 26zm49-25-47 21-2 4 4 1z"/><path fill="#fff" d="m493 487 3-1z"/><path fill="#17c0eb" d="m479 456 21 28-23-25zm20 26-20-25v-1l21 28-23-25z"/><path fill="#fff" d="m494 477 2 3z"/><path fill="#17c0eb" d="m517 453 1 3-18 28zm-16 29 17-26-18 28 17-31z"/><path fill="#fff" d="m504 477-1 2z"/><path fill="#17c0eb" d="m538 498 2 6-40-20zm-37-14 39 19 1 1-41-20 38 14v1z"/><path fill="#fff" d="m508 487-3-1z"/><path fill="#17c0eb" d="m506 542-5-1-1-57zm-6-57 1 56-1-57 6 58z"/><path fill="#fff" d="M501 493v-4z"/><path fill="#17c0eb" d="m454 500 4-6 42-10zm45-16-41 10zl-46 16h1z"/><path fill="#fff" d="m493 486 3-1z"/><path fill="#17c0eb" d="m481 452 19 32-21-29zm18 30-18-30 19 32-21-29z"/><path fill="#fff" d="m495 476 2 3z"/><path fill="#17c0eb" d="m519 458 2 3-21 23zm-18 25 20-22zl19-26z"/><path fill="#fff" d="m505 478-2 2z"/><path fill="#17c0eb" d="m542 507 4 7-46-30zm-41-22 44 29h1l-46-30 42 23z"/><path fill="#fff" d="m507 488-3-2z"/><path fill="#17c0eb" d="m499 541-5-1 6-56zm1-56-6 55 6-56-1 57z"/><path fill="#fff" d="m499 493 1-4z"/><path fill="#17c0eb" d="m460 491 2-4 38-3zm39-7-37 3zl-41 7h1z"/><path fill="#fff" d="m492 485 3-1z"/><path fill="#17c0eb" d="m483 448 17 36-18-33zm16 34-16-34 17 36-18-33z"/><path fill="#fff" d="m496 475 1 4z"/><path fill="#17c0eb" d="m521 463 2 3-23 18zm-20 20 22-17zl21-21z"/><path fill="#fff" d="m506 479-2 2z"/><path fill="#17c0eb" d="M550 524h-4l-46-40 48 36zm-2-5 2 6-4-1-46-40zm-47-34 45 39h4l-2-4z"/><path fill="#fff" d="m507 489-3-2z"/><path fill="#17c0eb" d="m492 540-5-1 13-55zm8-55-13 54 13-55-8 56h-1z"/><path fill="#fff" d="m498 492 1-3z"/><path fill="#17c0eb" d="m463 484 2-3 35 3zm36 0-34-3zh-37z"/><path fill="#fff" d="m492 483 3 1z"/><path fill="#17c0eb" d="m486 442 14 42-16-38zm13 40-13-40 14 42-16-38h1z"/><path fill="#fff" d="m497 475 1 3z"/><path fill="#17c0eb" d="m524 468 1 2-25 14zm-23 15 24-13zl24-16z"/><path fill="#fff" d="m507 480-3 1z"/><path fill="#17c0eb" d="m546 531-5-1-41-46 44 42zm0 1-5-2-41-46 44 42zm-45-47 40 45 5 1-2-5z"/><path fill="#fff" d="m506 490-2-2z"/><path fill="#17c0eb" d="m484 539-5-1v-1l21-53zm16-54-21 53v-1l21-53-16 55z"/><path fill="#fff" d="m497 492 1-3z"/><path fill="#17c0eb" d="m466 479 2-3 32 8zm33 4-31-7 32 8-34-5z"/><path fill="#fff" d="m492 482 3 1z"/><path fill="#17c0eb" d="m490 436 10 48-12-44zm10 46-10-46v-1l10 49-12-44z"/><path fill="#fff" d="m498 475 1 3z"/><path fill="#17c0eb" d="m526 472 1 3-27 9zm-25 11 26-9v1zl26-12z"/><path fill="#fff" d="m507 481-3 1z"/><path fill="#17c0eb" d="m540 537-4-2-36-51 39 48zm0 1-4-3-36-51 39 48zm-39-53 35 50 4 2-1-5z"/><path fill="#fff" d="m505 491-2-3z"/><path fill="#17c0eb" d="M474 537h-1v-4l27-49-23 52zm25-52-26 48v4l-1-4 28-49-23 52-3 1 3-1z"/><path fill="#fff" d="m496 491 2-3z"/><path fill="#17c0eb" d="m470 472 30 12-31-10zm29 11-29-11 30 12-31-10z"/><path fill="#fff" d="m492 481 3 1z"/><path fill="#17c0eb" d="m495 426 5 58-8-52zm5 56-5-56 5 58-8-52z"/><path fill="#fff" d="M499 475v3z"/><path fill="red" d="M500 462q17 3 29 16l14 31 1 9-5-1c-1-24-17-46-39-50-22-3-38 14-39 39l-5-1 1-9 14-27q12-9 29-7"/><path fill="#f60" d="M500 463q18 3 30 18l12 25 1 12-4-1c-1-24-17-46-39-50-22-3-38 14-39 39l-4-1 1-12 12-21q12-12 30-9"/><path fill="#ff0" d="M500 464q20 3 31 20l9 19 2 15-3-1c-1-24-17-46-39-50-22-3-38 14-39 39l-3-1 2-15 9-15q12-14 31-11"/><path fill="#0f0" d="M500 464q22 5 34 27l3 6q4 9 4 21l-2-1c-1-24-17-46-39-50-22-3-38 14-39 39l-2-1q0-11 4-20l3-5q11-18 34-16"/><path fill="#0cf" d="M500 465c23 4 40 27 41 53l-2-1c-1-24-17-46-39-50-22-3-38 14-39 39l-2-1c1-25 18-43 41-40"/><path fill="#00f" d="M500 466c22 4 39 26 40 52l-2-1c0-24-17-46-38-49s-38 13-38 38l-2-1c1-25 18-42 40-39"/><path fill="purple" d="M500 467c22 4 39 26 39 50v1h-1v-1c0-24-17-45-38-49-21-3-38 13-38 38h-1c0-25 17-42 39-39"/><path fill="#510000" d="M500 487q2 1 2 3l-1 2-1 1-1-2v-2l-1-1 1-2z"/><path fill="red" d="M497 481h-1v-1l2-2q4-2 5 1l3 7-1 2-3-1-3-1h-2v-2z"/><path fill="url(#a)" d="m497 480 2-1v9l5 1v1h-1l-2 1-4-4-2-1 1-2 1-2 1-1h-1l-1 1h-1z"/><path fill="#ff2a2a" d="m501 478 1 1 1 2-1 2v-2l-1-1z"/><path fill="url(#b)" d="m501 486 3 1 1 1v2h-3v2l-2 2v-5l-2-2-3-1v-1l1-1h2l1 1z"/><path fill="#910000" d="m498 487-3-1v-2l1-1 2 1 1 1v1z"/><path fill="#ff3a3a" d="m502 491-1 2 2-4h3-1z"/><path fill="#fff" d="m454 502 92 14 10 20-112-17z"/><path fill="url(#c)" d="m451 516 2 1h2l10 2 9 1h3l2 1 9 2 10 1h4l10 3h10l2 1h2l10 2 9 1h3l2 1 4 1 1 1-8-2-9-1h-5l-9-3h-10l-3-1h-2l-9-3h-10l-2-1h-2l-10-2-9-1h-5l-10-3h-7l1-1z"/><path fill="url(#d)" d="M451 515h2l2 1 10 2 9 1h5l9 3h10l2 1h2l10 2 10 1h2l2 1 10 2 9 1h5l3 1 1 1-7-2h-12l-2-1-9-2-10-1h-5l-9-3h-10l-2-1h-2l-10-2-9-1h-3l-2-1-10-2h-6l1-1z"/><path fill="url(#e)" d="M451 514h2l2 1 10 2h9l3 1h2l9 3h12l2 1 10 2 10 1h4l10 3h9l3 1h2l3 1v1l-6-2h-9l-3-1h-2l-9-2-10-1h-3l-2-1-9-2-10-1h-4l-10-3h-9l-3-1h-2l-10-2h-5v-1z"/><path fill="url(#f)" d="M451 513h4l10 3h9l3 1h2l9 2 10 1h2l2 1 10 2 10 1h4l10 3h12l2 1h2l1 1-6-1-9-1h-5l-9-3h-10l-3-1h-2l-9-2-10-1h-2l-2-1-10-2h-9l-3-1h-2l-10-3h-5l1-1z"/><path fill="url(#g)" d="m451 511 2 1h2l10 2 9 1h3l2 1 9 2 10 1h4l10 3h10l2 1h2l10 2 9 1h3l2 1h1l1 1-5-1-9-1h-5l-9-3h-10l-3-1h-2l-9-3h-10l-2-1h-2l-10-2-9-1h-5l-10-3h-4l1-1z"/><path fill="url(#h)" d="M451 510h2l2 1 10 2 9 1h5l9 3h10l2 1h2l10 2 10 1h2l2 1 10 2 9 1h6v1l-4-1h-12l-2-1-9-2-10-1h-5l-9-3h-10l-2-1h-2l-10-2-9-1h-3l-2-1-10-2h-3v-1z"/><path fill="url(#i)" d="M451 509h2l2 1 10 2h9l3 1h2l9 3h12l2 1 10 2 10 1h4l10 3h9l3 1h2l1 1-4-1h-9l-3-1h-2l-9-2-10-1h-3l-2-1-9-2-10-1h-4l-10-3h-9l-3-1h-2l-10-2h-3l1-1z"/><path fill="url(#j)" d="M451 508h4l10 3h9l3 1h2l9 2 10 1h2l2 1 10 2 10 1h4l10 3h12l2 1v1l-3-1-9-1h-5l-9-3h-10l-3-1h-2l-9-2-10-1h-2l-2-1-10-2h-9l-3-1h-2l-10-3z"/><path fill="url(#k)" d="m451 507 2 1h2l10 2 9 1h3l2 1 9 2 10 1h4l10 3h10l2 1h2l10 2 9 1h4v1h-2l-9-1h-5l-9-3h-10l-3-1h-2l-9-3h-10l-2-1h-2l-10-2-9-1h-5l-10-3z"/><path fill="url(#c)" d="m452 506 96 14 1 1zm0-1 96 14v1zm0-1 96 15zm1-1 94 15zm0 0 94 14zm1-1 92 14 1 1zm0 0 92 14zm0-1 92 14v1z"/><path fill="url(#c)" d="m458 507 4 1zm80 13h4z"/><path fill="url(#l)" d="m530 501 2 2c3 11 11 23 20 26l6 13-60-9v-12l8 1c11 2 19-8 22-20z"/><path fill="#97c924" d="M530 502h2v1q2 9 8 18l12 9 6 12-60-9v-11l8 1q8 1 14-6 6-6 8-15z"/><path fill="#ede71f" d="M530 502v12l-2 7-3 3h-5l-11-1q6-1 10-6l6-8 1-4 1-1v-2h2"/><path fill="#c6cb24" d="M529 503q0 12-6 19-3 3-6 2 11-9 12-21"/><path fill="#9ecb34" d="M524 514q-2 5-9 10h-2q4-1 11-10"/><path fill="url(#m)" d="m515 499 2 1c3 12 10 24 20 27l6 13-60-9v-12l8 1c10 1 19-9 22-20z"/><path fill="#97c924" d="m515 499 2 1v1q2 9 8 17 6 7 12 10l6 12-60-9v-12l8 2q8 0 14-6t8-15h1z"/><path fill="#ede71f" d="M515 499v12q1 3-2 7l-2 2-5 1-11-1q6-1 10-6l6-9 1-3 1-1v-2h1z"/><path fill="#c6cb24" d="M514 501q0 11-6 19l-6 2q11-10 12-21"/><path fill="#9ecb34" d="M509 512q-2 5-9 10h-1l-1-1q4-1 11-9"/><path fill="url(#l)" d="M502 498c3 13 12 25 22 27l8 2v12l-64-10v-12l8 1c10 1 19-9 22-21h2z"/><path fill="#97c924" d="m500 497 1 1h1q2 10 8 18t14 10l8 1v11l-64-10v-11l8 1q8 1 14-5 6-7 8-15v-1z"/><path fill="#ede71f" d="M499 497q1 5-2 11l-3 7-1 3-6 1h-2l-5-1q6-1 10-5l7-12 1-1z"/><path fill="#c6cb24" d="M499 499q0 11-6 19-3 2-6 1 10-9 12-20"/><path fill="#9ecb34" d="M494 509q-2 5-9 10h-3q5 0 12-10"/><path fill="#ede71f" d="M501 497v3l1 1 5 11 2 3q4 6 10 9-10-1-13-7l-4-8-1-1z"/><path fill="#c6cb24" d="M501 499q2 12 12 23l-5-3q-6-9-7-20"/><path fill="url(#l)" d="m485 494 2 2q4 17 18 26v12l-48-7 5-9c9 0 18-12 21-23z"/><path fill="#97c924" d="M485 495h2v1q2 9 8 18l9 8v12l-47-7 4-8q8-1 14-8t8-16z"/><path fill="#93bc30" d="M484 496c-1 11-6 22-11 24h-7c10-4 16-15 18-24"/><path fill="#ede71f" d="M485 495h1v3l1 1 5 12 1 1 1 2 10 8h-5l4 3q-7 0-15-7-2-1-2-3v-1q-2-3-2-7v-12"/><path fill="#ccd11e" d="M486 497q1 12 12 24l-6-3q-6-10-6-21"/><path fill="#9ecb34" d="M490 507q9 15 17 19h-3q-10-9-14-19"/><path fill="url(#n)" d="m470 492 2 1q5 18 18 26v13l-48-7 4-9c10 0 19-13 22-23z"/><path fill="#97c924" d="M470 493h1l1 1q2 9 8 17 4 6 9 8v12l-47-7 4-7q8-1 14-8l8-16z"/><path fill="#93bc30" d="M469 494c-1 10-6 22-12 23l-6 1c10-5 16-16 18-24"/><path fill="#ede71f" d="m470 493 1 1v2l1 1 5 11v1l2 2 9 9-4-1 3 4q-6 0-14-7l-2-3-1-1-2-7v-13z"/><path fill="#c6cb24" d="M471 494q2 12 12 25l-6-4q-6-10-6-21"/><path fill="#9ecb34" d="M475 504q9 16 16 19h-2q-10-8-14-19"/><path fill="#fff" d="m556 536 7 15-64-10-62-9 7-12 8 1h4l10 3h11l1 1h1l10 2 10 1h3l10 3h10l2 1h1l10 2 10 1h4l4 1z"/><path fill="url(#o)" d="m547 533 8 2 1 2-8-2-4-1h-10l-5-1-5-1h-4l-4-1h-5l-2-1-10-1h-11l-10-2-11-1-15-2h-10l1-2h10l5 1 7 2h11l7 1 5 1h11l9 2h8l14 2 6 2z"/><path fill="url(#o)" d="m451 531 2 1h3l9 3h12l2 1 9 2 10 1h4l10 3h9l3 1h2l9 2 10 1h4l10 3h3v1h-1l-3-1h-2l-9-2-10-1h-4l-10-3h-9l-3-1h-2l-9-2-10-1h-2l-2-1-10-2h-9l-3-1h-1l-10-3h-12l-2-1h-1v-1l4 1z"/><path fill="url(#p)" d="M451 530h2l3 1 9 2 10 1h4l9 3h10l2 1h2l10 2 9 1h5l9 3h10l2 1h2l10 2 2 1h1-6l-9-3h-12l-2-1-10-2-9-1h-5l-9-3h-10l-2-1h-2l-10-3h-12l-1-1-10-2h-9l-3-1h-3l1-1 3 1z"/><path fill="url(#q)" d="M451 529h5l9 3h12l2 1 9 2 10 1h4l10 3h9l3 1h2l9 3h12l2 1 10 2h2v1h-3l-2-1-9-2-10-1h-4l-10-3h-9l-3-1h-2l-9-2-10-1h-4l-10-3h-9l-3-1h-1l-10-3h-14v-1h3z"/><path fill="url(#r)" d="M451 527h2l3 1 9 2 10 1h4l9 3h10l2 1h2l10 2 9 1h3l2 1 9 2h10l2 1h2l10 3h1-4l-9-3h-12l-2-1-10-2-9-1h-5l-9-3h-10l-2-1h-2l-10-2-9-1h-4l-10-3h-9l-3-1h-1v-1l2 1z"/><path fill="url(#s)" d="M451 526h5l9 3h10l2 1h2l9 2 10 1h2l2 1 10 2h9l3 1h2l9 3h12l2 1 10 2v1h-1l-2-1-9-2h-10l-2-1h-2l-10-3h-12l-2-1-9-2-10-1h-4l-10-3h-9l-3-1h-1l-10-2-9-1h-3v-1h1z"/><path fill="url(#t)" d="m451 524 2 1h3l9 2 10 1h4l9 3h10l2 1h2l10 3h12l2 1 9 2 10 1h4l9 3h1-3l-9-3h-12l-2-1-10-2h-9l-3-1h-2l-9-3h-12l-2-1-10-2-9-1h-4l-10-3h-9l-3-1z"/><path fill="url(#u)" d="M451 523h5l9 3h10l2 1h2l9 3h12l2 1 10 2 9 1h5l9 3h12l2 1 9 2v1h-2l-9-3h-10l-2-1h-2l-10-3h-12l-2-1-9-2-10-1h-4l-10-3h-9l-3-1h-1l-10-2-9-1h-2z"/><path fill="url(#v)" d="m451 521 2 1h3l9 3h12l2 1 9 2 10 1h4l10 3h12l2 1 9 2 10 1h4l8 2v1h-1l-9-2-10-1h-4l-10-3h-9l-3-1h-2l-9-3h-12l-2-1-10-2-9-1h-4l-10-3h-10v-1z"/><path fill="url(#w)" d="M451 520h2l3 1 9 2h10l2 1h2l9 3h12l2 1 10 2 9 1h5l9 3h10l2 1h2l7 2 1 1h-1l-9-3h-10l-2-1h-2l-10-2-9-1h-5l-9-3h-10l-2-1h-2l-10-3h-12l-1-1-10-2-9-1h-1z"/><path fill="#97c924" d="M445 519h9l99 13 2 4-2-1h-10l-13-2-13-2h-5l-5-1-8-1h-11l-5-2-7-1h-11l-7-1-5-2-11 1z"/><path fill="#fff" d="m549 535 4 1h3v1l-3-1z"/><path fill="#c8a400" d="m500 416-32 57-32 59 63 10 65 10-32-67zm0 3 31 66 30 65-62-10-60-9 31-57z"/></svg>