<svg xmlns="http://www.w3.org/2000/svg" viewBox="0 0 1000 1000"><path fill="#db161b" d="M8 195.3c170.8-85.3 341-54.5 513.3-28C676.5 191 833.4 211.8 992 132.7v672c-170.8 85.3-341 54.5-513.3 28C323.5 809 166.6 788.1 8 867.2z"/><path fill="#fff" d="M254 139.3c242.3-2 488.8 117.8 738-6.6v224c-244.8 122.2-486.2 4.6-738 6.6z"/><path fill="green" d="M254 587.3c242.3-2 488.8 117.8 738-6.5v224c-244.8 122-486.2 4.5-738 6.5z"/><path fill="#fff" d="M64.6 286a527 527 0 0 1 26.5-8.7q2.3-.4 2.6 2.6v17q-.2 3.2-2.6 4.2-13.1 3.8-26.5 8.7-2.4.6-2.6-2.5v-17q.3-3.1 2.6-4.3"/><path fill="#db161b" d="M64.6 285.8a517 517 0 0 1 26.5-8.7q1-.3 2 .5.7.9.7 2.3v17q0 3.6-2.7 4.4-13.1 3.9-26.5 8.6-1 .4-2-.3-.7-.7-.7-2.2v-17q0-1.5.8-2.9t2-1.7m0 .4q-2.6 1-2.6 4v17q0 1.5.8 2 .7.7 1.7.4 13.1-4.7 26.5-8.7 2.5-.7 2.5-4v-17q0-3-2.5-2.4-13.1 3.9-26.5 8.7"/><path fill="#fff" d="M65.3 286.7q12.4-4.4 25-8.2 2.4-.4 2.6 2.4v15.6q-.2 2.8-2.5 3.8-12.4 3.7-25 8.2-2.4.6-2.6-2.2v-15.6q.2-2.8 2.5-4"/><path fill="#db161b" d="M65.3 286.5q12.4-4.3 25-8.2c2-.4 2.6.3 2.7 2.5v15.6q0 3.3-2.6 4-12.4 3.9-25 8.3-1.2.4-2-.3-.7-.6-.7-2v-15.6q0-3.3 2.6-4.3m0 .4q-2.3 1-2.3 3.8v15.6q0 2.9 2.3 2 12.4-4.4 25-8.2 1.1-.3 1.8-1.4t.7-2.2v-15.6q0-1.2-.7-1.8t-1.7-.4q-12.4 3.7-25 8.2"/><path fill="#fff" d="m76.8 288.7 1.5-.4v1l1.3.4 1-1.4 1.2.5-1.1 1.3.2 1.2 1.4-.5v1.7l-1 .3-.6 1.3 1.2.8-1 1.3-1-.7-1.5.9v1.6l-1.6.6-.2-1.4-1.4-.4-.8 1.4-1.1-.4.7-1.5-.9-.5-1.1.4-.1-2.2 1.2-.3.8-1.5-1-.7 1.3-1.6.9.6 1.5-.8z"/><path fill="#db161b" d="m76.8 288.6 1.6-.4v1l1.2.3 1-1.3 1.3.5-1.1 1.4.2 1 1.4-.5v2l-1.1.3-.5 1 1.3 1-1.2 1.5-1-.8-1.4.8v1.6l-1.8.8-.2-1.5-1.3-.3-.7 1.3-1.4-.4.7-1.5-.7-.5-1.2.5v-2.5l1.1-.3.8-1.4-1-.7 1.4-1.8.9.7 1.4-.7zm0 .2-.1 1-1.7.9-.8-.7-1.1 1.4 1 .7-1 1.7-1.1.3v2l1.2-.4.9.6-.7 1.4 1 .4.8-1.4 1.5.4.2 1.4 1.5-.6-.1-1.6 1.6-1 1 .8.9-1.2-1.3-.8.7-1.4 1-.3V291l-1.3.5-.3-1.3 1-1.3-1-.4-1 1.4-1.3-.5v-.9z"/><path fill="#fff" d="M79 292.7q-.2 1.9-1.7 2.5-1.5.4-1.7-1.4.1-1.7 1.7-2.5 1.5-.3 1.6 1.4"/><path fill="#db161b" d="M79 292.7a3 3 0 0 1-.5 1.6q-.5.9-1.2 1-.8.3-1.3-.1t-.5-1.3.5-1.7q.6-.7 1.3-1 .7-.1 1.2.2t.5 1.3m-.2 0q0-.7-.4-1-.6-.5-1.1-.2-.7.2-1.2.9t-.4 1.4.4 1.1 1.2.2 1-.9q.6-.8.5-1.4M67 287.3l-2.5 3.8-.1-.2 2.4-3.8zm1.6-.6-2.4 3.8-.2-.2 2.4-3.8zm1.6-.6-2.4 3.9-.2-.3L70 286zm1.6-.5-2.4 3.8-.2-.2 2.5-3.8zm1.7-.6-2.5 3.8-.1-.2 2.4-3.8zm1.6-.5-2.4 3.8-.2-.2 2.4-3.8zm1.6-.6-2.4 3.8-.2-.2 2.5-3.8zm1.6-.5-2.4 3.8-.2-.2 2.5-3.8zm1.7-.5-2.5 3.8-.1-.3 2.4-3.7zm1.6-.5-2.4 3.7-.2-.2 2.4-3.7zm1.6-.5-2.4 3.7-.2-.2 2.5-3.8zm1.7-.6-2.5 3.8-.2-.2 2.5-3.8z"/><path fill="#db161b" d="m78.4 283.4-2.5 3.8-.2-.2 2.5-3.8zm8-2.6-2.4 3.8-.1-.3 2.4-3.7zm1.7-.5-2.4 3.7-.2-.2 2.4-3.7zm1.6-.4-2.4 3.7-.2-.3 2.5-3.7zm1.7-.5-2.5 3.7-.2-.3 2.5-3.7z"/><path fill="#db161b" d="m89 279.8 2.4 2.2-.2.4-2.5-2.2zm-1.7.5 2.4 2.2-.1.4-2.5-2.3zm-1.6.5L88 283l-.2.4-2.4-2.3zm-1.7.5 2.5 2.2-.2.4-2.4-2.3zm-1.6.5L85 284l-.2.4-2.5-2.2zm-1.6.6 2.4 2.1-.1.4-2.5-2.2zm-1.6.5 2.4 2.2-.2.3-2.4-2.2zm-1.7.5 2.5 2.2-.2.3-2.4-2.2zm-1.6.5 2.4 2.2-.1.3-2.5-2.1zm-1.6.6 2.4 2.1-.1.4-2.5-2.2zm-1.6.5 2.4 2.2-.2.3-2.4-2.1zm-1.7.6 2.5 2.1-.2.4-2.5-2.2z"/><path fill="#db161b" d="m77.5 283.4 2.5 2.2-.2.3-2.4-2.2zm-8 2.8 2.3 2-.1.4-2.5-2.1zm-1.7.5 2.4 2.1-.2.4-2.4-2.2zm-1.6.6 2.4 2.1-.2.3-2.4-2zm-1.7.6 2.5 2-.2.4-2.5-2zM67 304l-2.5 3.8-.1-.2 2.4-3.8zm1.6-.6-2.4 3.9-.2-.3 2.4-3.8zm1.6-.5-2.4 3.8-.2-.2 2.4-3.9zm1.6-.6-2.4 3.8-.2-.2 2.5-3.8zm1.7-.5-2.5 3.8-.1-.2 2.4-3.9zm1.6-.6-2.4 3.8-.2-.2 2.4-3.8zm1.6-.5-2.4 3.8-.2-.3 2.5-3.8zm1.6-.6L76 304l-.2-.2 2.5-3.8zm1.7-.5-2.5 3.8-.1-.2 2.4-3.8zm1.6-.5-2.4 3.8-.2-.3 2.4-3.7zm1.6-.5-2.4 3.7-.2-.2 2.5-3.8zm1.7-.5-2.5 3.7-.2-.2 2.5-3.8z"/><path fill="#db161b" d="m78.4 300.2-2.5 3.8-.2-.2 2.5-3.8zm8-2.5-2.4 3.7-.1-.2 2.4-3.8zm1.7-.5-2.4 3.7-.2-.2 2.4-3.8zm1.6-.5-2.4 3.7-.2-.2 2.5-3.7zm1.7-.5-2.5 3.7-.2-.2 2.5-3.7z"/><path fill="#db161b" d="m89 296.6 2.4 2.3-.2.3-2.5-2.2zm-1.7.5 2.4 2.3-.1.3-2.5-2.2zm-1.6.5L88 300l-.2.3-2.4-2.2zm-1.7.5 2.5 2.3-.2.3-2.4-2.2zm-1.6.5L85 301l-.2.3-2.5-2.2zm-1.6.6 2.4 2.2-.1.3-2.5-2.2zm-1.6.5 2.4 2.2-.2.3L79 300zm-1.7.5 2.5 2.2-.2.4-2.4-2.2zm-1.6.6 2.4 2.1-.1.4-2.5-2.2zm-1.6.5 2.4 2.2-.1.3-2.5-2.2zm-1.6.6L75 304l-.2.4-2.4-2.2zm-1.7.5 2.5 2.2-.2.3-2.5-2.1z"/><path fill="#db161b" d="m77.5 300.2 2.5 2.2-.2.4-2.4-2.2zm-8 2.8 2.3 2.1-.1.3-2.5-2zm-1.7.5 2.4 2.2-.2.3-2.4-2.1zm-1.6.6 2.4 2.1-.2.4-2.4-2.2zm-1.7.6 2.5 2.1-.2.3-2.5-2z"/><path fill="#fff" d="M197.4 257.1q2.3.1 2.6 3.1v17q-.2 3.1-2.6 3.7-13.1 1.2-26.5 3-2.3 0-2.6-3v-17q.3-3.1 2.6-3.7 13.1-2 26.5-3.1"/><path fill="#db161b" d="M197.4 257q-13.1 1-26.5 3a3 3 0 0 0-2 1.3q-.7 1.1-.8 2.6v17q.1 3.6 2.8 3.2 13.1-1.8 26.5-3 1-.2 2-1.3.7-1 .7-2.6v-17a4 4 0 0 0-.8-2.4q-.8-1-2-.9m0 .4c1.8 0 2.5.7 2.6 3v17a4 4 0 0 1-.8 2.3q-.7 1-1.7 1-13.1 1.3-26.5 3.1-2.4.3-2.5-2.8v-17q0-3.2 2.5-3.5 13.1-1.9 26.5-3.1"/><path fill="#fff" d="M196.7 258.2q2.3 0 2.5 2.8v15.6q-.2 2.8-2.5 3.3-12.4 1.2-25.1 3-2.3 0-2.5-2.8v-15.6q.2-2.8 2.5-3.5z"/><path fill="#db161b" d="M196.7 258q-12.4 1.1-25.1 2.9-2.6.3-2.6 3.6v15.6c0 2.3.8 3 2.6 3q12.4-1.8 25-3 1.2 0 2-1.1a4 4 0 0 0 .7-2.4V261c0-2.3-.8-3-2.6-3m0 .3q2.3-.1 2.4 2.7v15.6q0 2.9-2.4 3.1-12.4 1.2-25.1 3-1 0-1.7-.7a3 3 0 0 1-.7-2v-15.5q0-1.2.7-2.2t1.7-1q12.4-1.7 25-3"/><path fill="#fff" d="m185.2 265.3.2 1h1.5l1-1 1.2 1-1 1.1.8 1.2 1.2-.2v2.2l-1.2.1-.9 1 .7 1-1.1 1-.8-1-1.4 1-.2 1.5h-1.7l.1-1.6-1.5-.2-1 1.2-1-.9 1.2-1.4-.5-1-1.1.2v-1.7l1.3-.1.3-1.4-1-.8 1.1-1 1 1 1.2-1v-1z"/><path fill="#db161b" d="m185.2 265.2-1.6.2v1l-1.2 1-1-1-1.4 1.2 1.2.8-.2 1.2h-1.4v2l1.1-.2.5.9-1.3 1.4 1.1 1 1.1-1.2 1.4.2v1.7h1.8l.2-1.7 1.3-.9.7 1 1.3-1-.7-1.2.8-.7 1.2-.2v-2.5l-1.1.3-.8-1 1-1.2-1.4-1.2-.9 1.1-1.4-.1zm0 .2.1 1h1.6l1-1 1 1-1 1 1 1.4 1.1-.3v2l-1.2.1-.9 1 .7 1.1-1 .9-.8-1-1.5 1-.2 1.5h-1.5l.1-1.6-1.6-.2-1 1.1-.9-.7 1.3-1.4-.7-1.1-1 .2v-1.5l1.3-.1.3-1.5-1-.8 1-.8 1 1 1.3-1.1v-1z"/><path fill="#fff" d="M183 270.2q.3-1.8 1.7-2.1 1.5 0 1.7 1.8-.1 1.8-1.7 2t-1.6-1.7"/><path fill="#db161b" d="M183 270.2q0 .8.5 1.5.5.5 1.2.4a2 2 0 0 0 1.3-.7q.5-.7.5-1.6t-.5-1.4-1.3-.4q-.7 0-1.2.7-.5.8-.5 1.5m.2 0q0-.8.4-1.3.6-.6 1.1-.7.7-.1 1.2.4t.4 1.3-.4 1.3-1.2.7-1-.4q-.6-.6-.5-1.3m11.8-10.7 2.5 2.7.1-.3-2.4-2.7zm-1.6.1 2.4 2.7.2-.3-2.4-2.7zm-1.6.2 2.4 2.7.2-.3-2.4-2.7zm-1.7.1 2.5 2.8.2-.3-2.5-2.8zm-1.6.2 2.5 2.7.1-.3-2.4-2.7zm-1.6.2 2.4 2.7.2-.3-2.4-2.7zm-1.6.2 2.4 2.7.2-.3-2.4-2.7zm-1.7.2 2.5 2.7.2-.3-2.5-2.7zm-1.6.2 2.5 2.6.1-.3-2.4-2.6zm-1.6.1 2.4 2.7.2-.3-2.4-2.7zm-1.6.2 2.4 2.7.2-.3-2.4-2.7zm-1.7.3 2.5 2.6.2-.3-2.5-2.7z"/><path fill="#db161b" d="m183.7 260.7 2.4 2.7.2-.3-2.5-2.7zm-8.2 1 2.5 2.6.1-.3-2.4-2.6zm-1.6.2 2.4 2.6.2-.3-2.4-2.6zm-1.6.2 2.4 2.6.2-.3-2.4-2.6zm-1.7.2 2.5 2.6.2-.2-2.5-2.7z"/><path fill="#db161b" d="m173 261.7-2.4 3.3.2.3 2.5-3.4zm1.7-.2-2.4 3.3.1.2 2.5-3.3zm1.6-.2-2.4 3.3.2.2 2.4-3.3zm1.7-.2-2.5 3.2.2.3 2.4-3.3zm1.6-.2L177 264l.2.3 2.5-3.3zm1.6-.2-2.4 3.2.1.3 2.5-3.3zm1.6-.2-2.4 3.2.2.3 2.4-3.3zm1.7-.2-2.5 3.2.2.3 2.4-3.3zm1.6-.2-2.4 3.3.1.2 2.5-3.2zm1.6-.2-2.4 3.3.1.2 2.5-3.2zm1.6-.1L187 263l.2.2 2.4-3.2zm1.7-.2-2.5 3.2.2.3 2.5-3.3z"/><path fill="#db161b" d="m184.5 260.3-2.5 3.2.2.3 2.4-3.3zm8-.9-2.3 3.2.1.3 2.5-3.2zm1.7-.1-2.4 3.2.2.2 2.4-3.2zm1.6-.2-2.4 3.2.2.2 2.4-3.2zm1.7-.2-2.5 3.2.2.3 2.5-3.2zm-2.5 17.4 2.5 2.7.1-.3-2.4-2.7zm-1.6.1 2.4 2.8.2-.3-2.4-2.8zm-1.6.2 2.4 2.7.2-.3-2.4-2.7zm-1.7.2 2.5 2.7.2-.3-2.5-2.7zm-1.6.1 2.5 2.8.1-.3-2.4-2.8zm-1.6.2 2.4 2.7.2-.3-2.4-2.7zm-1.6.2 2.4 2.7.2-.3-2.4-2.7zm-1.7.2 2.5 2.7.2-.3-2.5-2.7zm-1.6.2 2.5 2.7.1-.3-2.4-2.7zm-1.6.2 2.4 2.7.2-.3-2.4-2.7zm-1.6.2 2.4 2.6.2-.2-2.4-2.7zm-1.7.2 2.5 2.6.2-.2-2.5-2.7z"/><path fill="#db161b" d="m183.7 277.5 2.4 2.7.2-.3-2.5-2.7zm-8.2 1 2.5 2.7.1-.3-2.4-2.7zm-1.6.2 2.4 2.7.2-.3-2.4-2.7zm-1.6.2 2.4 2.7.2-.3-2.4-2.7zm-1.7.2 2.5 2.7.2-.3-2.5-2.7z"/><path fill="#db161b" d="m173 278.5-2.4 3.3.2.3 2.5-3.3zm1.7-.2-2.4 3.3.1.3 2.5-3.3zm1.6-.2-2.4 3.3.2.3 2.4-3.3zm1.7-.2-2.5 3.3.2.2 2.4-3.3zm1.6-.2L177 281l.2.2 2.5-3.3zm1.6-.2-2.4 3.3.1.2 2.5-3.3zm1.6-.2-2.4 3.3.2.2 2.4-3.3zm1.7-.2-2.5 3.3.2.2 2.4-3.2zm1.6-.2-2.4 3.3.1.2 2.5-3.2zm1.6-.1-2.4 3.2.1.3 2.5-3.3zm1.6-.2-2.4 3.2.2.3 2.4-3.3zm1.7-.2-2.5 3.2.2.3 2.5-3.2z"/><path fill="#db161b" d="m184.5 277.1-2.5 3.3.2.2 2.4-3.2zm8-.9-2.3 3.3.1.2 2.5-3.2zm1.7-.1-2.4 3.2.2.3 2.4-3.3zm1.6-.2-2.4 3.2.2.3 2.4-3.2zm1.7-.1L195 279l.2.2 2.5-3.2z"/><path fill="#fff" d="M111.7 321.5c22.7-36.1 32-56 37.1-67.1 4.3-9.4 5.3-11.6 9-10.5 7.8 3.5-8.2 37-34.7 79.3-26.5 42.4-51.7 77.6-59.7 76.7-4-1-1.6-4.5 7.8-17.9 8.3-11.8 21.9-30.9 40.5-60.5"/><path fill="#db161b" d="M111.6 321.3a592 592 0 0 0 37-67 70 70 0 0 1 4.8-9.3c1.4-1.6 2.6-2 4.5-1.4 2 1.1 2.6 3.3 1.8 8.2q-1.4 6.4-6.2 17.3a478 478 0 0 1-30.2 54.3A789 789 0 0 1 86.4 378c-11.7 15.4-19 22.6-23.1 22.2q-1.7-.3-2-1.4t.8-3.3q1.3-2.7 9-13.7 21.8-31 40.5-60.5m.3.3a1416 1416 0 0 1-40.6 60.6q-7.5 10.9-9 13.5-.7 2-.6 2.8.3.8 1.7 1c4 .4 11.1-6.6 22.7-21.9a790 790 0 0 0 36.8-54.5 477 477 0 0 0 30.2-54.2q5-11 6.1-17.2c.8-4.5.3-6.5-1.5-7.5q-2.4-.8-4 1.2-1.2 1.5-4.7 9.1-14.4 31.2-37.1 67.1"/><path fill="#fff" d="m78.5 369.4 13.9.6c-13.3 20.8-27.5 32.4-31.8 31.3-2-1.2.3-4.6 5.1-11.7 3.6-5.2 8.2-12 12.8-20.2"/><path fill="#db161b" d="m78.6 369.2 14 .6-.2.3a125 125 0 0 1-19.2 24c-6.3 5.8-10.1 8-12.6 7.4q-1-.4-1-1.4t.8-2.5q1-2 5.3-8.1 8.2-12 12.7-20.3zm0 .3a264 264 0 0 1-12.8 20.2q-4.2 6.1-5.1 8-.7 1.5-.8 2.3 0 .8.8 1.1c2.4.6 6.1-1.6 12.4-7.3q10-9.4 19-23.6z"/><path fill="#fff" d="m78.5 371.3 11.4.4c-13 20.1-25 28.8-28.4 28.3-1.6-.7 0-3 3.9-8.3 3.4-4.8 8.2-11.5 13.1-20.4"/><path fill="#db161b" d="m78.6 371.1 11.6.4-.2.3q-8.7 13.6-17.8 22c-5.4 4.8-8.6 6.7-10.8 6.4q-.7-.1-.7-.9 0-.6.6-1.8t4-6q8.2-11.4 13.1-20.3zm0 .4q-5 8.9-13.1 20.3l-4 6q-.5.9-.5 1.4t.5.6c2.1.3 5.3-1.6 10.6-6.3q9-8.3 17.5-21.6zM121 317v.5l-.3 3v.3l-.5 1-.9 1-1 1q-.6.4-1.3.4l-.5-.4-.2-.1q0 .6-.4 1.2v.2h-.3l.1-.3.3-1.1v-.9l-.2-.6.3-.2.2 1.2.8.6 1.1-.4 1-.9.8-1 .4-.7v-.3l.2-1.6.1-1.4v-.5zm-3.9 8.9v.3h-.2l-.4-.2-1.3-.2-1.4.4-1.2.5-.6.6-.4.5-.6 1v.1l-.4.6-.3.7-.3.6h.3v.1l.3.2h.2v.1l.2.1v.3h-.3l-.3-.2h-.9v-.2h-.1q-.4 0-.8.3l-.4.3-.8.4v-.4q.4 0 .7-.3l.5-.3q.5-.4.8-.3h.3l.1-.3.2-.5.1-.1.3-.6.4-.7.6-1.1.5-.6.5-.5 1.4-.7 1.4-.3q.8 0 1.4.2zm-5.4 7.8-.2.1q-1 .4-1.4.3-.4 0-.7-.4v.5q0 .7-.3 1.2l-.2.3-.4.4-.6.6-.9 1h-.1l-.8.7-.3.7-.1.4q0 .7.3 1l.6 1 .2.2.2.5q0 .3-.5.6l-.7.2h-.3v-.4h.3q.4 0 .6-.2.3 0 .3-.2l-.1-.3-.2-.2q-.4-.4-.6-1-.4-.2-.4-1.1v-.1l.2-.5q0-.6.4-.8l.8-.8.1-.1.9-.8.5-.6.4-.4.2-.4.2-.8V333h.3q.3.6.8.6l1.3-.3h.2zm-6.4 10.2-1.5-.2-1.4.4q-.3 0-.7.5l-.3.2-1 1.2-.1.3-.6 1.1-.2 1.6.1.7.1.7q.2.8.6 1.2l.1.1v.4q-.3 0-.3-.2l-.7-1.4v-.6l-.2-.8q0-1 .3-1.7 0-.4.6-1.3l.2-.4.9-1.1.4-.3q.4-.5.8-.6l1.4-.3 1.6.2zm-4.8 9.8q0 .4-.2.5-.4.7-1 .8H99l-.2-.1-.2-.4v.2l-.2 1.4-.2.3-.3.6-.5.9-.5.6-.2.2-.8.7H95l-.2-.2-.4-.2-.3-.2-.5-.6q-.4 0-.7.3l-.5.8-.2.3-.3.3v-.3l.1-.2.2-.3.5-.8q.4-.6 1-.5l.5.6.4.2.4.3h.1l.6.1.7-.5.2-.2.5-.6.5-.9.3-.5.2-.3v-2.1l-.1-.2-.2-.5-.3-.3-.1-.3H97v-.4q.4 0 .6.2l.2.1v.1l.1.1.3.7v.3l.4.5.2.3.2.1q.1.2.4 0 .4 0 .7-.5l.2-.4.2-.4z"/><path fill="#db161b" d="m92.8 359.4.4.3.3.1v.1l.2.5.2.8.1 1.5v.2l-.3 1.3-.1.4v.1l-.3.3-.6.7-1.2.5q-.7.4-1.1.3l-1-.1-.4-.3-.5-.2-.4-.5-.2-.2.3 1.2.1 1.3v.7l-.2 1.2v.3l-.2.1v-.4l.1-1.1v-2l-.3-1v-.2h-.1l-.2-.6-.3-.7.3-.2.4.7.1.2.3.3.4.5q.3 0 .5.3l.4.2q.6.2 1 .1.3.1 1-.2l1-.5.6-.6.2-.3.1-.3.3-1.3v-1.6l-.2-.7-.2-.4-.3-.2-.3-.2zm-13.4 15.2.1-.3q.2 0 .2.3l.1.6q.4.5 1.3-.1l.2-.4q.5-.7 1-1h.1v-.1q.8-.1 1.5.2h.1q.9.3 1.2 1l.2.7q0 .6-.5.8-.7.8-1.6 1.2l-.3.1q-.9.3-1 .7-.5.6-.5 1.7v.2l-.1 1q0 .6-.2.7v.1q-.7.6-1.4.8h-.1l-.4-2-.1-.5-.3-1.2-1-1h-.1l.2.8v.1h-.1l-.3.3q-.5.5-1.2.8-.7.1-1.2-.2l-.2.9-.2.8-.4 1.1-.3.8.2.6.2 1.1.1.6q.2.8.4.9.3.2.7 0v.5q-1.2.3-2 0l-.6-.3-.5-.3q-.8-.4-1.7-.5l-.3.1q-.7.3-1 .7a5 5 0 0 0-.8 2v1.8h.1q.3 1 0 2a4 4 0 0 1-1.4 1.3l-.3.2q-.7.3-1.5.2l.1-.4 1.4-.1.3-.2q.9-.6 1.2-1.1.1-.8 0-1.6-.4-.5-.2-2.1.3-1.5 1-2.2.2-.6 1.2-.8l.2-.1q1 0 1.8.4l.5.3.7.4h.9q-.3-.1-.4-1l-.1-.5q0-.6-.3-1l-.2-.8v-.1l.3-.9.4-1 .2-.9.3-1.2v-.5l.2.3q.4.6 1.2.4.6-.1 1.1-.7l.2-.1q-.1-1-.7-1.1l.1-.4q.7 0 1 .4.6.4 1 1l.4 1.3v.5l.4 1.8q.6-.1 1.1-.6v-.6l.3-1v-.1q0-1.3.4-2 .3-.6 1.3-.8l.3-.1 1.5-1.2.3-.4v-.6q-.4-.6-1.2-.8h-.1q-.7-.4-1.4-.2l-.9.9-.3.5q-1.1.7-1.6.1z"/><path fill="#fff" d="m156.8 264.6-11.6-5.3c17.7-44.9 34-78 37.5-76.8 3 2-8.4 37.6-26 82"/><path fill="#db161b" d="m156.8 264.9-11.8-5.4v-.3a780 780 0 0 1 24.2-55.7c7.5-15.3 11.7-21.8 13.6-21.2 1.5 1.2 0 9-5.2 25.4q-7.6 24-20.7 57zm-.1-.6a897 897 0 0 0 20.6-56.8c5-16 6.7-23.7 5.3-24.8-1.6-.4-5.7 6-13.1 21a774 774 0 0 0-24 55.5z"/><path fill="#fff" d="M155.6 264c17-42.9 28.3-77 26-78.7-2.8-1-18.2 31.2-35.2 74.5z"/><path fill="#db161b" d="M155.5 264a1071 1071 0 0 0 20.2-54.9q3.6-10.8 5.1-17c1-4.3 1.2-6.2.7-6.6-1.3-.3-5 6-12 20.5a895 895 0 0 0-23 53.9l-.3-.2a897 897 0 0 1 23-53.9c7-14.8 11-21.1 12.4-20.7.7.6.6 2.5-.5 7q-1.5 6.3-5 17.1a1066 1066 0 0 1-20.4 54.9z"/><path fill="#fff" d="m152.7 243.7 9.2 4.3-6.3 16-9.2-4.2z"/><path fill="#db161b" d="m152.6 243.4 9.6 4.5-.1.2-4.1 10.4-2.2 5.6-.1.2-9.6-4.3.1-.3 2.2-5.6 4.1-10.5zm.2.6-4 10.3-2.2 5.4 9 4 2.1-5.4 4-10.1z"/><path fill="#fff" d="m153.5 245.2 7 3.2-5.7 14.1-7-3.1z"/><path fill="#db161b" d="m153.4 245 7.2 3.3v.2l-3.7 9.2-2 5v.1l-7.3-3.3.1-.2 2-5 3.6-9.2zm.1.5-3.5 9-1.9 4.7 6.6 3 2-4.7 3.5-9z"/><path fill="#fff" d="m158.5 249.8-4.6-2.2-4.1 10.4 4.6 2.1z"/><path fill="#db161b" d="m158.8 249.6-5-2.3-4.3 10.9 5 2.2zm-.5.3-4 10-4.3-2 4-10z"/><path fill="#db161b" d="m158.6 250-8.7 8.2-.2-.4 8.7-8.2z"/><path fill="#db161b" d="m154.2 260.2-.5-12.5.4-.1.5 12.5zm25.1-62.4-4.6-2.4.2-.4 4.6 2.3zm-1.5-5.7q.4 1.3 1.6.9a2 2 0 0 0 1-2.2q-.3-1.3-1.6-.9a2 2 0 0 0-1 2.2"/><path fill="#db161b" d="M177.6 192.2q.1.7.7 1t1.2 0 1-1 .2-1.5q-.3-.7-.7-1-.6-.3-1.2 0t-1 1-.2 1.5m.4-.2q-.1-1.4.9-1.8t1.3.8l-.1 1q-.3.5-.7.7-1 .5-1.4-.7"/><path fill="#fff" d="M150.3 313.2a649 649 0 0 0 40.5 42.9c9.4 9.1 11.9 11.5 7.8 14.3-8 4.6-33-19.5-59.7-50.5-26.5-31-42.5-57.7-34.7-64.5 3.7-2.7 4.7-1 9 6.6a300 300 0 0 0 37 51.2"/><path fill="#db161b" d="M150.4 313a332 332 0 0 1-37-51.2q-3.6-6-4.8-7.2c-1.4-1-2.6-.8-4.5.6-2 1.9-2.5 4.4-1.7 8.9q1.2 5.9 6 14.7c6.8 12 16.9 25.5 30.3 41.3q21 24.5 36.9 38.7c11.8 10.3 19 14.1 23.1 11.9q1.7-1 2-2.3t-.7-3q-1.5-2.1-9-9.6a681 681 0 0 1-40.6-42.8m-.3.5q18.7 21.5 40.6 42.8 7.5 7.5 9 9.6.7 1.4.6 2.4-.2.9-1.7 1.8c-4 2.2-11.1-1.6-22.7-11.8a406 406 0 0 1-36.8-38.7 269 269 0 0 1-30.3-41.2 58 58 0 0 1-6-14.6c-.8-4.1-.3-6.4 1.5-8.1q2.4-2 4-.6 1.2 1 4.7 7.1a340 340 0 0 0 37.1 51.3"/><path fill="#fff" d="M183.5 346.7c4.6 6.2 9.2 11 12.7 14.5 5 5 7.3 7.3 5.2 9.4-4.4 3.1-18.5-2.2-31.7-17.2z"/><path fill="#db161b" d="m183.4 346.5-14 6.8.2.2a64 64 0 0 0 19.2 15.5c6.3 3 10 3.5 12.6 1.8q1-.8 1-1.8t-.9-2.2q-1-1.5-5.2-5.8a134 134 0 0 1-12.7-14.5zm0 .4q4.5 6.2 12.8 14.4 4.2 4.3 5.1 5.8.7 1.1.8 2 0 .7-.8 1.3c-2.5 1.8-6.1 1.2-12.4-1.7q-10-5-19-15.3z"/><path fill="#fff" d="M183.5 348.7c5 6.6 9.7 11.2 13.1 14.4 3.9 3.7 5.4 5.2 4 6.6-3.6 2.1-15.6-1.2-28.5-15.6z"/><path fill="#db161b" d="m183.4 348.5-11.6 5.5.2.2a57 57 0 0 0 17.8 14.1c5.4 2.4 8.6 2.9 10.8 1.6q.7-.5.7-1.2a3 3 0 0 0-.6-1.5q-.7-1-4-4.2-8.2-7.9-13.1-14.5zm0 .4q5 6.6 13.1 14.4l4 4.1q.6.8.5 1.3t-.5.8c-2.2 1.3-5.3.8-10.6-1.5q-9-4.4-17.5-13.9zM141 312.7v.4l.3 2.9v.3q.3.6.5.7.4.6.9.7l1 .6q.6.1 1.3-.1l.5-.6.2-.3q0 .5.4 1.1v.2l.3-.2-.1-.2-.3-1v-.9l.2-.7h-.3l-.2 1.3-.3.4-.5.5q-.6.3-1.1.1l-1-.5-.8-.7q-.3 0-.4-.5v-.3l-.2-1.5-.1-1.4v-.4zm3.9 7.2q-.2.3 0 .4l.2-.1.4-.4q.4-.4 1.3-.7l1.4-.3h1.2l.6.4.4.3.6.8.3.5.4.5q0 .3.3.5l-.3.2-.3.3-.2.2-.2.3v.2h.1l.2-.1v-.1l.3-.2.7-.3.2-.1v-.2h.1q.3-.2.8 0h.4q.4.2.7.1v-.3l-.6-.2h-.5q-.5-.2-.8 0h-.4l-.3-.5-.3-.5-.4-.5a2 2 0 0 0-1.1-1.2l-.5-.4H148l-1.4.2-1.4.8zm5.4 5.5h.2q1 0 1.4-.3l.7-.7v.5q0 .7.3 1l.2.3.4.2.6.4.9.5h.1l.8.4.3.5.1.4q0 .8-.3 1.1v.1l-.6 1.1-.2.4-.2.6q0 .3.5.3h.7l.3-.2v-.3h-.3q-.4.3-.6.1h-.3l.1-.4.2-.2.6-1.2q.3-.6.4-1.4v-.1l-.2-.4q0-.6-.4-.7l-.8-.4h-.1l-.9-.5-.5-.4-.4-.2-.2-.3-.2-.7v-1.2q-.2 0-.3.2-.3.6-.8.9-.3.2-1.3.2h-.2zm6.4 7.5 1.5-.9 1.4-.2.7.1.3.2 1 .7.1.2.6 1a6 6 0 0 1 .1 2.2l-.1.7-.6 1.4v.1l-.1.2v.3q.3 0 .3-.4l.7-1.6v-.6l.2-1-.2-1.5-.7-1-.2-.3-.9-.7-.4-.2-.8-.2-1.4.2q-1 .7-1.6.9zm4.8 7.6v.2q0 .2.2.3.3.6 1 .4l.5-.3.2-.2.2-.4v.1l.2 1.4.2.2.3.5.5.6.5.4.2.1q.5.4.8.3.4 0 .8-.3l.2-.2.4-.4.3-.4.5-.8h.7l.5.6.2.2.3.2v-.4l-.1-.1-.2-.2-.5-.6q-.4-.3-1 0l-.5.8-.8.8-.1.1-.6.4q-.3 0-.7-.3l-.2-.1-.5-.4-.5-.6-.3-.4-.2-.2v-2.1l.1-.3.2-.5q0-.2.3-.5l.1-.3h.1l.2-.2v-.4q-.5.2-.6.5l-.2.2v.1l-.1.2-.3.7v.4l-.4.7-.1.3-.3.2-.4.3q-.4 0-.7-.3l-.2-.4q0-.2-.2-.2z"/><path fill="#db161b" d="m169.2 343-.4.4-.3.3v.1l-.2.6-.2.8-.1 1.6v.2l.3 1.2.1.3v.1l.3.2.6.4h1.2q.7.1 1.1-.2.4 0 1-.5l.4-.4.5-.5v-.1l.5-.6.1-.3v.1l-.3 1.2-.1 1.5v.6q0 1 .2 1.1v.4h.2v-.5l-.1-1v-2q0-.6.3-1.1v-.2h.1l.2-.8.3-.8h-.3l-.4.7-.1.3-.3.5-.4.7-.9.8-1 .6q-.3.3-1 .1h-1l-.6-.3-.2-.2-.1-.3-.3-1v-1.7l.2-.8.2-.5.3-.3.3-.4zm13.4 9.3-.1-.3-.2.4-.1.7q-.4.6-1.3.4l-.2-.3q-.4-.5-1-.6h-.1l-1.5.8-.1.2a4 4 0 0 0-1.2 1.4l-.2.9q0 .4.5.5.7.5 1.6.6h.3q.9-.2 1 0 .5.5.5 1.7v.2l.1.8q0 .6.2.7v.1q.7.3 1.4.2l.1-.1.4-2.1.1-.6.3-1.4q.4-.8 1-1.3l.1-.1-.1.8v.2l.3.1q.5.3 1.2.3a2 2 0 0 0 1.2-.8l.2.8.2.7.4 1 .3.7-.2.7-.2 1.2-.1.6-.4 1q-.3.4-.7.4v.4a4 4 0 0 0 2.6-1.4l.5-.5q.8-.9 1.7-1.2h.3q.7-.1 1 .1.5.5.8 1.6.2 1.4 0 2h-.1q-.3 1 0 2 .4.4 1.4.7h.3l1.5-.5-.1-.3-1.4.5-.3-.1q-.9-.2-1.2-.6V364a4 4 0 0 0 .2-2.3q-.3-1.3-1-1.7-.2-.4-1.1-.3h-.3q-.9.4-1.8 1.3l-.5.5-.7.6q-.3.4-.9.6.3-.4.4-1.3l.2-.6.2-1.1.2-.9-.3-.8-.4-1-.2-.6-.3-1.1v-.5l-.2.4q-.4.7-1.2 1-.6 0-1.1-.3h-.2q.1-1.2.7-1.4l-.1-.4q-.7.3-1 .8l-1 1.4-.3 1.5-.1.6-.4 2-1.1-.2v-.5l-.3-1q0-1.4-.4-1.9t-1.3-.3h-.3q-.8 0-1.5-.4-.3 0-.3-.3v-.6q.4-.8 1.2-1.3l.1-.1q.8-.6 1.4-.8.5 0 .9.5l.3.4q1.1.2 1.6-.6l.2-.8z"/><path fill="#fff" d="M105.2 275.6c-17.5-36.9-29-67.4-25.9-70.8 3.5-2.7 19.8 23.2 37.5 60.6z"/><path fill="#db161b" d="m105.2 276 11.9-10.6-.1-.2A464 464 0 0 0 92.8 220c-7.5-12-11.7-16.6-13.6-15.3-1.5 1.9 0 9.1 5.2 23.2q7.6 20.5 20.7 48zm.1-.7q-13-27.4-20.6-47.8c-5-13.8-6.7-20.8-5.3-22.5 1.7-1.2 5.7 3.4 13.1 15.2a461 461 0 0 1 24 45.1z"/><path fill="#fff" d="M106.4 274.6c-17-35.6-28.3-64.7-26-67.5 2.8-2.1 18.2 23.3 35.3 59.3z"/><path fill="#db161b" d="M106.5 274.4Q94 248 86.3 228.4q-3.6-9.3-5.1-14.8c-1-3.8-1.2-5.6-.7-6.3 1.4-1 5 3.7 12 15.3a533 533 0 0 1 23 44l.3-.4a532 532 0 0 0-23-44c-7-11.7-11-16.3-12.4-15.3-.7.9-.6 2.9.5 7q1.5 5.4 5 14.7 7.8 19.6 20.4 46z"/><path fill="#fff" d="m109.3 253 6.4 13.4-9.3 8.2-6.3-13.3z"/><path fill="#db161b" d="m109.4 252.7-9.6 8.6.1.2 4.1 8.5 2.3 4.7v.2l9.6-8.5-.1-.2-2.2-4.7-4.1-8.6zm-.2.6 4 8.5 2.2 4.5-9 8-2.1-4.6-4-8.4z"/><path fill="#fff" d="m108.5 254.8 5.6 11.8-7 6.1-5.5-11.7z"/><path fill="#db161b" d="m108.6 254.5-7.2 6.5v.2l3.7 7.6 2 4v.3l7.3-6.5-.1-.2-2-4.1-3.6-7.6zm-.1.6 3.5 7.5 1.9 4-6.6 5.8-2-3.9-3.5-7.4z"/><path fill="#fff" d="m103.5 261.6 4.6-4.2 4.1 8.6-4.6 4.1z"/><path fill="#db161b" d="m103.3 261.5 4.9-4.4 4.3 9-5 4.4zm.4 0 4 8.3 4.3-3.8-4-8.3z"/><path fill="#db161b" d="m103.4 261.8 8.7 4.5.2-.5-8.7-4.5z"/><path fill="#db161b" d="m107.8 270.1.5-12.7h-.4l-.5 12.8zm-25.1-51.5 4.6-4.3-.1-.4-4.7 4.3zm1.5-6.3q-.3 1.5-1.6 1.6-1.2-.2-1-1.7.3-1.6 1.6-1.6 1.1.1 1 1.7"/><path fill="#db161b" d="M84.4 212.3q0 .8-.7 1.3-.5.6-1.2.6t-1-.6-.1-1.4.6-1.4 1.2-.5q.7 0 1 .6t.2 1.4m-.4 0q.2-1.4-.9-1.5-1 0-1.3 1.4 0 .6.2 1 .2.3.6.4 1.2 0 1.4-1.4"/><path fill="#fff" d="M119 250q12-2.8 24.3-5.1v49.5c-.2 20-8 30.8-24.4 34.9-12.6 2.8-52.2 4.8-52.8-4.2 1-11 48.8-23 51-25.1 1.7-2.2 1.8-13.4 1.8-42.8z"/><path fill="#db161b" d="M118.8 249.9q12.1-3 24.7-5.3v49.7c-.2 20.2-8.1 31-24.6 35.2q-11.5 2.6-31 2.2c-14.9-.2-21.7-1.9-22-6.6.3-3.2 4.5-7 14.1-11.7q8-3.9 25.3-9.5a97 97 0 0 0 11.8-4q1-1.5 1.5-11l.2-31.7zm.3.4v6.8l-.2 31.7c-.3 6.7-.8 10.2-1.6 11.3q-.7.7-12 4.2Q88 310 80 313.8c-9.3 4.6-13.5 8.2-13.8 11.2.3 4.5 7 6 21.8 6.3q19.4.3 31-2.2c16.2-4.1 24-14.8 24.2-34.7v-49.3q-12 2.2-24.1 5.2"/><path fill="#fff" d="M119 260q12-.5 24.3-5.2v5a76 76 0 0 1-24.4 5.1z"/><path fill="#db161b" d="M118.8 259.8q12.2-.5 24.4-5.2h.1v5.3a76 76 0 0 1-24.5 5.2h-.1zm.3.4v4.5q12-.5 24-5.1V255q-12 4.6-24 5.2"/><path fill="#fff" d="M119 250q12-.4 24.3-5.1v5A76 76 0 0 1 119 255z"/><path fill="#db161b" d="M118.8 249.9q12.2-.5 24.4-5.2h.1v5.3a76 76 0 0 1-24.5 5.2h-.1zm.3.3v4.6q12-.5 24-5.1V245a76 76 0 0 1-24 5.2"/><path fill="#fff" d="M119 255q12-.4 24.3-5.2v5A76 76 0 0 1 119 260z"/><path fill="#db161b" d="M118.8 254.8q12.2-.4 24.4-5.2h.1v5.3a76 76 0 0 1-24.5 5.3h-.1zm.3.4v4.6q12-.5 24-5.2v-4.5a76 76 0 0 1-24 5.1"/><path fill="#fff" d="M119 265q12-.6 24.3-5.3v5a76 76 0 0 1-24.4 5.2z"/><path fill="#db161b" d="M118.8 264.7a76 76 0 0 0 24.4-5.2h.1v5.3a77 77 0 0 1-24.5 5.3h-.1zm.3.4v4.6q12-.5 24-5.2V260a76 76 0 0 1-24 5.1"/><path fill="#fff" d="M121.1 257.3q0 1-1 1.3-1 .2-1.2-.8.1-.9 1.1-1.3 1-.1 1.1.8"/><path fill="#db161b" d="M121.4 257.3q0 .4-.3.8l-1 .6H119q-.4-.4-.4-.8t.4-.9l1-.6 1 .1q.4.2.4.8m-.6 0q0-.3-.3-.6l-.5-.1q-.2 0-.5.4-.3.3-.3.8t.3.6q.3.3.5.2l.5-.4q.3-.4.3-.8"/><path fill="#fff" d="M125.6 256.8q-.1 1-1.1 1.3-1 .1-1.2-.8.1-.9 1.2-1.3 1 0 1 .8"/><path fill="#db161b" d="M125.8 256.8q0 .4-.3.8l-1 .6q-.7.1-1-.1l-.4-.7q0-.4.3-.9l1-.6q.7 0 1.1.2.3.1.3.7m-.5.1q0-.4-.3-.7l-.5-.1-.6.4q-.3.3-.3.8t.3.6q.3.3.6.2l.5-.4q.3-.4.3-.8"/><path fill="#fff" d="M130 256.4q-.1 1-1.1 1.3-1 0-1.1-.8 0-1 1-1.3 1-.1 1.2.8"/><path fill="#db161b" d="M130.3 256.3q0 .4-.4.9l-1 .6q-.7 0-1-.2-.4-.1-.4-.7 0-.4.3-.8l1-.6q.8-.1 1.1.1t.4.7m-.6.2q0-.4-.3-.7l-.5-.1q-.2 0-.5.3-.3.4-.3.8t.3.7l.5.1q.3 0 .5-.4.3-.3.3-.7"/><path fill="#fff" d="M134.4 255.5q0 .9-1 1.2-1 .1-1.2-.8.1-1 1.1-1.3 1 0 1.1.8"/><path fill="#db161b" d="m134.7 255.4-.3.9-1 .5q-.7.1-1.1-.1l-.4-.7q0-.5.4-.9t1-.6q.7 0 1 .2t.4.7m-.5.1q0-.4-.3-.7h-.6q-.2 0-.5.3t-.3.8.3.6.5.2.5-.4z"/><path fill="#fff" d="M138.9 254q-.1 1-1.1 1.3-1 0-1.2-.8.1-1.1 1.2-1.3t1 .8"/><path fill="#db161b" d="M139.2 254q0 .4-.4.8l-1 .6q-.7 0-1-.2t-.4-.7.3-.8l1-.6q.7 0 1.1.2.3.1.3.7m-.5 0-.3-.6-.5-.1-.6.3q-.3.4-.3.8t.3.7.6.1l.5-.3q.3-.4.3-.8"/><path fill="#fff" d="M143.3 252.6q-.1 1-1.1 1.3-1 0-1.1-.9 0-.9 1.1-1.2 1-.1 1.1.8"/><path fill="#db161b" d="M143.6 252.6q0 .5-.3.8a2 2 0 0 1-1.1.6q-.7 0-1-.2l-.4-.7q0-.5.3-.8.4-.4 1.1-.6.7 0 1 .2t.4.7m-.6 0-.3-.6q-.2-.2-.5-.1l-.5.3q-.3.4-.3.8t.3.7l.5.1q.3 0 .5-.3.3-.4.3-.8m-24 22 24.4 21.5-.2.3-24.4-21.5zm2.4-.6 22 19.1-.2.3-22-19zm3.3.2 18.7 16-.2.3-18.7-16zm2.4-.5 16.3 13.5-.2.3-16.2-13.5zm2.5-.6 13.8 11.1-.2.3-13.8-11zm2.4-.5 11.4 8.6-.2.4-11.4-8.6zm2.4-.5 9 6.1-.2.4-9-6.2zm2.5-.5 6.5 4.7-.2.3-6.5-4.7zm2.4-.5 4 3.2v.3l-4.1-3.1zm2.5-.4 1.6 1.6-.2.3-1.6-1.6zm-22.8 6.8 24.4 21.6-.2.3-24.4-21.5z"/><path fill="#db161b" d="m143.4 269.7-26.8 35.5-.2-.2 26.8-35.5zm-2.5.5-23.5 30.9-.2-.3 23.6-30.8zm-3.2 1.6-18.7 24-.2-.3 18.7-24zm-2.4.5L119 292.8l-.2-.3 16.3-20.4zm-2.5.6-13.8 17-.2-.3 13.9-17zm-2.4.5L119 286.8l-.2-.2 11.4-13.5zm-2.5.5-9 10v-.3l8.9-10zm-2.4.5L119 282l-.2-.3 6.5-7.4zm-2.4.6-4.1 5-.2-.3 4.1-5zm-2.5.5L119 278l-.2-.2 1.6-2.4zm22.8-2.8-26.8 35.5-.2-.2 26.8-35.5zm0 3-26.8 35.5-.2-.3 26.8-35.5zm0 3L116.6 314l-.2-.2 26.8-35.5zm0 3L116.6 317l-.2-.2 26.8-35.5zm0 2.9-26.8 35.5-.2-.3 26.8-35.5zm0 3L116.6 323l-.2-.3 26.8-35.5zm0 3L116.6 326l-.2-.2 26.8-35.5zm0 3L116.6 329l-.2-.2 26.8-35.5zm0 2.9-25.2 33.1-.2-.2 25.2-33.2zm0 3L120.6 329l-.2-.2 22.8-29.6zm-.8 4-18 23.6v-.2l17.8-23.6zm-.8 4.2L127 326.6l-.1-.3 14.6-18.9zm-1.7 5.2-7.3 9.5-.2-.3 7.4-9.4z"/><path fill="#db161b" d="m119 280.6 23.6 20.7-.2.3-23.6-20.7zm0 3 23.6 20.7-.2.3-23.6-20.7zm0 3 22.8 19.8-.2.3-22.8-19.8zm0 3 22.8 19.8-.2.3-22.8-19.9zm0 2.9 22 19-.2.3-22-19zm-.8 2.2 22 19-.2.3-22-19zm0 3 20.3 17.3-.2.3L118 298zm-.8 2.1 20.3 17.3-.2.3-20.3-17.3zm-.8 2.2 19.5 16.4-.2.3-19.5-16.4zm0 3 18.7 15.6-.2.3-18.7-15.6zm0 3 16.2 14-.2.4-16.2-14.1z"/><path fill="#fff" d="M119 269.9q12-.5 24.3-5.2v5a76 76 0 0 1-24.4 5.1z"/><path fill="#db161b" d="M118.8 269.7q12.2-.5 24.4-5.2h.1v5.3a77 77 0 0 1-24.5 5.2h-.1zm.3.4v4.5q12-.4 24-5.1v-4.6q-12 4.6-24 5.2m-2.5 40.8 14.6 12.5-.2.3-14.6-12.5zm0 3 13 10.8-.2.4-13-10.9zm0 3 11.3 9.2-.1.3-11.4-9.2zm0 2.9 8 7v.3l-8.2-7zm0 3 6.5 5.4-.2.3-6.5-5.4zm0 3 4 3-.1.3-4.1-3z"/><path fill="#fff" d="M121.1 272.2q0 .9-1 1.3-1 .1-1.2-.8.1-1 1.1-1.3 1-.1 1.1.8"/><path fill="#db161b" d="m121.4 272.1-.3.9-1 .6-1.1-.1q-.4-.3-.4-.7 0-.5.4-1l1-.5q.7-.1 1 .1t.4.7m-.6.1q0-.5-.3-.6-.2-.2-.5-.1-.2 0-.5.3-.3.4-.3.8t.3.7l.5.1q.3 0 .5-.4.3-.3.3-.8"/><path fill="#fff" d="M125.6 271.7q-.1 1-1.1 1.3-1 .1-1.2-.8.1-1 1.2-1.3 1-.1 1 .8"/><path fill="#db161b" d="M125.8 271.6q0 .5-.3.9l-1 .6-1-.1-.4-.7q0-.5.3-1l1-.5q.7-.1 1.1.1.3.3.3.7m-.5.1-.3-.6q-.3-.2-.5-.1l-.6.3q-.3.4-.3.8t.3.7.6.1q.2 0 .5-.4.3-.3.3-.7"/><path fill="#fff" d="M130 271.2q-.1 1-1.1 1.4-1 0-1.1-.9 0-1 1-1.3 1 0 1.2.8"/><path fill="#db161b" d="M130.3 271.2q0 .5-.4.8l-1 .6q-.7.1-1-.1l-.4-.7.3-.9 1-.6q.8 0 1.1.2t.4.7m-.6.1q0-.4-.3-.7l-.5-.1q-.2 0-.5.4-.3.3-.3.8t.3.6q.3.3.5.2t.5-.4q.3-.4.3-.8"/><path fill="#fff" d="M134.4 270.3q0 1-1 1.3-1 0-1.2-.8.1-1 1.1-1.3 1-.1 1.1.8"/><path fill="#db161b" d="M134.7 270.3q0 .4-.3.8-.4.4-1 .6-.7 0-1.1-.2l-.4-.7q0-.4.4-.8l1-.6q.7-.1 1 .1t.4.8m-.5 0-.3-.6q-.3-.2-.6-.1-.2 0-.5.3-.3.4-.3.8t.3.7l.5.1q.3 0 .5-.3z"/><path fill="#fff" d="M138.9 268.9q-.1.9-1.1 1.3-1 0-1.2-.9.1-1 1.2-1.3 1 0 1 .9"/><path fill="#db161b" d="M139.2 268.8q0 .4-.4.9l-1 .6q-.7 0-1-.2t-.4-.7.3-.9l1-.6q.7 0 1.1.2.3.3.3.7m-.5.1q0-.4-.3-.6l-.5-.2q-.3 0-.6.4-.3.3-.3.8t.3.6.6.2l.5-.4q.3-.3.3-.8"/><path fill="#fff" d="M143.3 267.5q-.1.9-1.1 1.3-1 0-1.1-.9 0-1 1.1-1.3 1 0 1.1.9"/><path fill="#db161b" d="m143.6 267.4-.3.9-1.1.5q-.7.1-1-.1l-.4-.7q0-.5.3-.9.4-.5 1.1-.6t1 .2.4.7m-.6.1-.3-.6-.5-.2-.5.4q-.3.3-.3.7 0 .5.3.7.3.3.5.2t.5-.4.3-.8m-59 63.3 29.3-29v.3l-29.2 29zm-1.6-.4 27.6-27.8.1.3-27.6 27.8zm-.8-1.7 25.2-25.2v.3l-25.1 25.1zm-.9-1.8 22-22.3.1.3-22 22.3zm-1.6-1.4 20.3-20 .2.3-20.4 20zm.8-3.3 13.8-14.1.2.3L80 322.5zm-.8-1.7 10.6-11.2.1.3-10.6 11.2zm0-3 7.3-7.2.2.3-7.4 7.2zm7.3 13.6 27.7-27.5.1.3-27.6 27.5zm2.5.2 26-26 .1.4-26 26zm2.4.3 24.4-24.5.1.3L91.3 332zm2.4.3 20.4-20.4.1.3-20.3 20.3zm3.3-1 17.9-17.6.1.3-18 17.6zm2.4.3 15.5-15 .1.4-15.4 15zm2.5.3 12.2-12 .1.2-12.2 12.1zm3.2-.9 9.8-9.4.1.3-9.8 9.4zm3.3.2 6.5-6.6.1.3-6.5 6.6zm3.2-.9 4-4 .2.4-4 4z"/><path fill="#fff" d="M117.3 300q-2 15.2 0 29.7l-4 1q-2.1-14.4 0-29.7z"/><path fill="#db161b" d="M117.5 299.7v.3q-2.1 15.3 0 29.6v.2l-4.4 1q-2-14.4 0-29.8v-.2zm-.4.5-3.8 1a113 113 0 0 0 0 29.3l3.8-1q-2-14.2 0-29.3m-47.9 27.6 9.8-13.2.1.2-9.7 13.2z"/><path fill="#db161b" d="m69.4 320.8 9.8 8.6-.2.3-9.8-8.6z"/><path fill="#fff" d="M84 311.2c-1 6.7-1 14.8 0 20.8l-5-.4c-1-6-1-11.2 0-17.9z"/><path fill="#db161b" d="M84 311v.2a63 63 0 0 0 0 20.7v.2l-5-.4q-1.5-8.6 0-18zm-.2.4-4.7 2.4q-1.4 9.3 0 17.6l4.7.4a63 63 0 0 1 0-20.4"/><path fill="#fff" d="M143.3 246.9a562 562 0 0 0-24.4 5.1v-4.9a8 8 0 0 0 6.1-7.3l12.2-2.7c.2 3.2 2.2 5.2 6 4.8z"/><path fill="#db161b" d="M143.4 247a548 548 0 0 0-24.7 5.3V247h.2q2.5-.7 4.3-2.8 1.6-2.1 1.6-4.3v-.2l12.5-2.7v.2q.1 2.2 1.7 3.6 1.7 1.4 4.3 1l.1-.1zm-.3-.3V242q-2.5.5-4.3-1a5 5 0 0 1-1.8-3.7l-11.8 2.5a9 9 0 0 1-6 7.3v4.6q11.6-2.8 24-5.1"/><path fill="#fff" d="m125.9 233.6 10.4-2.2v6l-10.4 2.2z"/><path fill="#db161b" d="m125.7 233.5 10.8-2.3v6.3l-10.8 2.3zm.3.3v5.5l10.2-2.1v-5.6z"/><path fill="#fff" d="m126.7 227.5 8.7-1.9v6l-8.7 1.8z"/><path fill="#db161b" d="m126.6 227.3 9-1.9v6.3l-9 2zm.3.3v5.6l8.4-1.8v-5.6z"/><path fill="#fff" d="m126.7 221.5 8.7-1.8v6l-8.7 1.8z"/><path fill="#db161b" d="m126.6 221.4 9-2v6.4l-9 1.9zm.3.3v5.6l8.4-1.8v-5.6z"/><path fill="#fff" d="m127.6 213.4 7-1.5v8l-7 1.4z"/><path fill="#db161b" d="m127.5 213.3 7.2-1.6v8.3l-7.2 1.6zm.2.3v7.5l6.7-1.4v-7.5z"/><path fill="#fff" d="m127.3 206.6 7.6-1.7v7l-7.6 1.6z"/><path fill="#db161b" d="m127.2 206.4 7.8-1.7v7.3l-7.8 1.7zm.3.3v6.6l7.2-1.6v-6.5z"/><path fill="#fff" d="M141.6 197.2c-.3 5.4-4.3 10-10 11.4-5.9 1-9.9-1.8-10.2-7.1a13 13 0 0 1 10.1-11.7c5.8-1 9.8 2 10.1 7.4"/><path fill="#db161b" d="M141.8 197.1q-.1 4-3 7.4a14 14 0 0 1-7.3 4.3c-3 .5-5 .2-7.2-1.2a7 7 0 0 1-3-6.1c0-2.8 1-5 3-7.5q3-3.3 7.2-4.4c3-.5 5-.1 7.2 1.3q3 2.3 3 6.2m-.2.1q-.1-3.7-3-6a9 9 0 0 0-7-1.2q-4.1 1-7 4.2-2.8 3.4-3 7.2a7 7 0 0 0 3 5.9 9 9 0 0 0 7 1.1q4.1-1 7-4.1a11 11 0 0 0 3-7.1"/><path fill="#fff" d="M136.6 197.7c.2 2.6 2.4 6.3 2.5 6.4-2 2-4.7 3.8-7.6 4.5-3 .6-6 .6-7.5-1.3 0 0 2.3-4.8 2.5-7.5-.3-2.7-2.4-5.2-2.5-5.4a16 16 0 0 1 7.5-4.6q4.6-.6 7.6 1.4a18 18 0 0 0-2.5 6.5"/><path fill="#db161b" d="M136.7 197.6q0 2.5 2.5 6.4v.2a15 15 0 0 1-7.7 4.6c-4.1.8-6.2.4-7.6-1.3l-.1-.2a20 20 0 0 0 2.5-7.5q0-2.5-2.4-5.2l-.2-.1.2-.2q3.3-3.7 7.6-4.7c3.1-.5 5.3-.1 7.7 1.4l.1.2-.1.1a13 13 0 0 0-2.5 6.3m-.3.1q0-2.6 2.5-6.4a9 9 0 0 0-7.4-1.3q-4.2 1-7.3 4.4 2.3 2.8 2.4 5.4a20 20 0 0 1-2.5 7.5c1.4 1.5 3.5 1.9 7.4 1.1q4.3-1 7.4-4.3a13 13 0 0 1-2.5-6.4"/><path fill="#fff" d="M134.9 198a29 29 0 0 0 2.5 7.4c-2 2-3 2.6-5.9 3.2l-.8.2c-2.4.5-3.7.8-5-.9 0 0 2.2-5.8 2.4-8.5-.2-2.6-2.4-6.2-2.5-6.3a9 9 0 0 1 6-3.3c2.8-.6 3.9-.5 5.8.8 0 0-2.3 4.7-2.5 7.4"/><path fill="#db161b" d="M135 198q.1 2.4 2.5 7.3v.3a11 11 0 0 1-6 3.2l-.8.2c-2.8.5-4.2.3-5.2-1v-.2a28 28 0 0 0 2.5-8.3 13 13 0 0 0-2.5-6.3v-.3q2.2-2.4 6-3.3c2.7-.5 4.4-.2 6 .8h.1v.3a20 20 0 0 0-2.6 7.3m-.3 0q.1-2.4 2.5-7.3-2.1-1.5-5.7-.7a11 11 0 0 0-5.7 3q2.4 3.8 2.5 6.4a28 28 0 0 1-2.5 8.5c1 1 2.3 1.2 4.9.7l.8-.2a11 11 0 0 0 5.7-3 20 20 0 0 1-2.5-7.4"/><path fill="#fff" d="M124 201.4q-.3 2.7-2.6 3.5-2.3.3-2.5-2.3.2-2.8 2.5-3.6 2.3-.2 2.6 2.4"/><path fill="#db161b" d="M124.1 201.3q0 1.4-.8 2.4-.7 1.2-1.9 1.4a2 2 0 0 1-1.9-.5q-.7-.7-.7-2t.7-2.4 2-1.4a2 2 0 0 1 1.8.5q.8.7.8 2m-.3.1q0-1.1-.7-1.8t-1.7-.4a3 3 0 0 0-1.6 1.2 4 4 0 0 0-.7 2.1q0 1.2.7 1.8t1.6.5a3 3 0 0 0 1.7-1.3q.7-1 .7-2"/><path fill="#fff" d="M144.1 197.2q-.2 2.7-2.5 3.4-2.3.2-2.5-2.4.1-2.7 2.5-3.5 2.3-.1 2.5 2.5"/><path fill="#db161b" d="M144.3 197.2q0 1.3-.8 2.3-.8 1.1-1.9 1.3a2 2 0 0 1-1.9-.5 3 3 0 0 1-.8-2.1q0-1.4.8-2.4t1.9-1.3a2 2 0 0 1 1.9.6q.7.8.8 2m-.3.1q0-1.1-.7-1.8t-1.7-.5-1.7 1.1q-.6 1-.7 2.1t.7 1.9q.7.6 1.7.5 1-.2 1.7-1.2t.7-2"/><path fill="#fff" d="M134 199.2q-.1 2.6-2.5 3.5-2.3.2-2.5-2.4.2-2.8 2.5-3.6 2.3-.1 2.5 2.5"/><path fill="#db161b" d="M134.2 199.2q0 1.2-.8 2.3-.8 1.2-1.9 1.4a2 2 0 0 1-1.9-.6q-.7-.7-.7-2t.7-2.4 2-1.3a2 2 0 0 1 1.8.5q.8.8.8 2m-.3.1q0-1.1-.7-1.8t-1.7-.5a3 3 0 0 0-1.7 1.2 4 4 0 0 0-.7 2.1q0 1.2.7 1.9t1.7.4a3 3 0 0 0 1.7-1.2q.7-1 .7-2"/><path fill="#fff" d="M134 189.3q-.1 2.7-2.5 3.5-2.3.2-2.5-2.5.2-2.7 2.5-3.5 2.3-.2 2.5 2.5"/><path fill="#db161b" d="M134.2 189.3q0 1.2-.8 2.3-.8 1.2-1.9 1.4a2 2 0 0 1-1.9-.6q-.7-.7-.7-2t.7-2.4 2-1.3a2 2 0 0 1 1.8.5q.8.8.8 2m-.3.1q0-1.1-.7-1.8t-1.7-.5-1.7 1.2a4 4 0 0 0-.7 2.1q0 1.2.7 1.8t1.7.5a3 3 0 0 0 1.7-1.2q.7-1 .7-2"/><path fill="#fff" d="M126.7 247.3q-.1 2.7-2.6 3.5-2.3.3-2.6-2.3.2-2.8 2.6-3.6 2.4-.2 2.6 2.4"/><path fill="#db161b" d="M126.9 247.3q0 1.2-.8 2.3-.8 1.2-2 1.4-1 .3-2-.5-.7-.6-.7-2t.8-2.4q.9-1.2 2-1.4 1-.2 1.9.5t.8 2m-.3.1q0-1.1-.7-1.8t-1.8-.4-1.7 1.2-.7 2.1.7 1.8 1.7.5a3 3 0 0 0 1.8-1.2q.7-1 .7-2.2"/><path fill="#fff" d="M140.7 244.4q-.3 2.7-2.6 3.5-2.4.1-2.7-2.5.3-2.7 2.7-3.5 2.3-.1 2.6 2.5"/><path fill="#db161b" d="M140.8 244.4a4 4 0 0 1-.8 2.3q-.8 1.2-2 1.3-1 .3-1.9-.5-.8-.7-.8-2t.8-2.4 2-1.4q1-.2 2 .6.7.7.7 2m-.3.1q0-1.1-.7-1.8a2 2 0 0 0-1.7-.5 3 3 0 0 0-1.8 1.2q-.7 1-.7 2 0 1.2.7 2 .7.6 1.8.4a3 3 0 0 0 1.7-1.2q.7-1 .7-2"/><path fill="#fff" d="m125 239.8 12.2-2.7-6.1 10.2z"/><path fill="#db161b" d="m137.5 236.9-6.4 10.7-6.4-8zm-12.2 3 5.8 7.1 5.8-9.6z"/><path fill="#fff" d="M134.6 244.6q-.4 3.6-3.5 4.7-3.1.4-3.5-3.2.4-3.6 3.5-4.7 3.1-.3 3.5 3.2"/><path fill="#db161b" d="M134.8 244.6q0 1.7-1.1 3.2-1.2 1.4-2.6 1.7t-2.6-.6q-1-1.1-1-2.8t1-3.2 2.6-1.7 2.6.6q1 1.1 1 2.8m-.3 0q0-1.4-1-2.4-1-.8-2.3-.6a4 4 0 0 0-2.3 1.6q-1 1.4-1 2.9 0 1.4 1 2.4 1 .8 2.3.6 1.4-.3 2.3-1.6 1-1.4 1-2.8"/><path fill="#fff" d="m118.7 277.9 16.7-3.7q1-.1 1 .8v3.8q0 1-1 1.3l-16.7 3.7q-1 0-1-.8v-4q0-.9 1-1.3"/><path fill="#db161b" d="m118.7 277.7 16.7-3.7q1-.2 1.1 1v3.8q0 1.3-1.1 1.5l-16.7 3.7-.8-.2q-.3-.2-.3-.8v-3.8q0-1.3 1.1-1.5m0 .3q-.3.1-.6.5l-.3.6v3.9q0 .8 1 .6l16.6-3.7q.8-.1.9-1V275q0-.3-.3-.5l-.6-.1z"/><path fill="#fff" d="M142 267.9q3.8-.2 4.2 4.4v4.5q-.4 4.7-4.1 6-3.7.2-4-4.4v-4.5q.3-4.8 4-6m0 2q-2.2.7-2.5 4.6v2.6q.3 3.6 2.5 3.7 2.2-.9 2.4-4.6v-2.7q-.1-3.7-2.4-3.6"/><path fill="#db161b" d="M142 267.7q1.9-.3 3 1 1.3 1.3 1.3 3.6v4.5q0 2.1-1.2 4a5 5 0 0 1-3 2.1q-1.7.4-3-1-1.2-1.4-1.2-3.5v-4.5q0-2.3 1.2-4a5 5 0 0 1 3-2.2m0 .4q-1.6.3-2.8 2a7 7 0 0 0-1.1 3.7v4.5q0 2 1.1 3.3a3 3 0 0 0 2.8 1q1.6-.5 2.8-2a7 7 0 0 0 1.1-3.8v-4.5a5 5 0 0 0-1.1-3.3 3 3 0 0 0-2.8-1m0 1.7q2.6-.5 2.6 3.8v2.6q0 1.8-.8 3.2-.7 1.4-1.8 1.6-2.6.5-2.6-3.8v-2.6c.1-3 .8-4.3 2.6-4.8m0 .3c-1.6.5-2.2 1.7-2.3 4.4v2.7q0 3.9 2.3 3.5 2.3-.5 2.3-4.4v-2.6q0-1.7-.7-2.7t-1.6-.9"/><path fill="#fff" d="M121 271.4q3.7-.4 4 4.2v6.5q-.4 4.7-4 6.1-3.8.4-4.1-4.2v-6.5c.2-3 1.7-5.3 4-6.1m0 2q-2.2.8-2.4 4.7v4.6q.2 3.7 2.4 3.5 2.2-.8 2.5-4.7V277q-.2-3.7-2.5-3.5"/><path fill="#db161b" d="M121 271.2a3 3 0 0 1 3 .9q1 1.4 1.2 3.5v6.5q0 2.2-1.3 4-1.3 1.9-3 2.3a3 3 0 0 1-3-.9 5 5 0 0 1-1.2-3.5v-6.4q0-2.3 1.3-4.1 1.3-1.9 3-2.3m0 .4q-1.7.5-2.8 2.1a7 7 0 0 0-1.2 3.8v6.5q0 2 1.2 3.2 1.1 1.1 2.7.8t2.8-2a7 7 0 0 0 1.2-3.9v-6.4q0-2.1-1.2-3.3t-2.7-.8m0 1.6q2.5-.6 2.5 3.7v4.6q0 1.8-.7 3.2-.8 1.4-1.8 1.7-2.6.6-2.6-3.7v-4.6c0-3 .8-4.3 2.6-5m0 .5q-1 .2-1.7 1.5t-.6 3v4.5q0 1.7.6 2.7t1.7.8q.8-.3 1.6-1.6a7 7 0 0 0 .7-3V277q0-4-2.3-3.4"/><path fill="#fff" d="M114.4 275q3.8-.5 4.1 4.1v3q-.4 4.7-4 6.2-3.8.4-4.1-4.2v-3q.4-4.7 4-6.2m0 2q-2.2 1-2.4 4.8v1q.2 3.8 2.4 3.6 2.2-1 2.5-4.8v-1q-.2-3.7-2.5-3.6"/><path fill="#db161b" d="M114.4 274.8a3 3 0 0 1 3 .8 5 5 0 0 1 1.2 3.5v3q0 2.2-1.2 4-1.3 1.9-3 2.3a3 3 0 0 1-3-.8 5 5 0 0 1-1.2-3.5v-3q0-2.1 1.3-4 1.2-1.9 3-2.4m0 .4a5 5 0 0 0-2.8 2.2 7 7 0 0 0-1.2 3.8v3q0 2 1.2 3.2t2.7.8a5 5 0 0 0 2.8-2.2 7 7 0 0 0 1.2-3.8v-3q0-2-1.2-3.2-1.1-1.1-2.8-.8m0 1.6q1.1-.2 1.9.9.7 1 .7 2.8v1.1c0 3-.8 4.4-2.6 5q-1 .2-1.8-.9-.7-1-.7-2.8v-1.1c0-3 .8-4.4 2.5-5m0 .4q-.8.2-1.6 1.5a7 7 0 0 0-.7 3v1.1q0 3.9 2.3 3.4 1-.3 1.7-1.6a7 7 0 0 0 .6-3v-1q.1-4-2.3-3.4"/><path fill="#fff" d="M104.7 274.5c4.3-1 7 .5 7.3 3.9v7.2c-.3 3.4-3 6.3-7.3 7.7-4.3.9-7-.4-7.3-3.8v-7.2c.3-3.4 3-6.4 7.3-7.8m0 2.2q-4 1.5-4.4 5.8v5.1q.4 4.1 4.4 3.5 4-1.6 4.4-5.8v-5.1q-.4-4.1-4.4-3.5"/><path fill="#db161b" d="M104.7 274.3q3-.7 5.2.3a4 4 0 0 1 2.2 3.7v7.3q0 2.4-2.2 4.8a12 12 0 0 1-5.2 3q-3.1.9-5.3-.2-2-1.2-2.2-3.6v-7.3q.1-2.4 2.2-4.9 2.3-2.2 5.3-3.1m0 .4q-3 .8-5.1 3a7 7 0 0 0-2 4.5v7.3q0 2.3 2 3.3 2.1 1 5 .3 3-.8 5.2-3 2-2.2 2-4.5v-7.2q0-2.3-2-3.4-2.1-1-5.1-.3m0 1.8q1.8-.5 3.2.6 1.3 1 1.3 3v5.2a6.5 6.5 0 0 1-4.5 6q-1.9.4-3.2-.6t-1.3-3v-5.1a7 7 0 0 1 4.5-6m0 .3a6 6 0 0 0-4.3 5.6v5.1q0 1.8 1.3 2.8 1.2 1 3 .5a6 6 0 0 0 3-2.1 6 6 0 0 0 1.2-3.5v-5.1q0-1.9-1.2-2.8-1.3-1-3-.5"/><path fill="#fff" d="M157.5 264.2c4.3-.5 7 1.3 7.3 4.6v7.2c-.3 3.4-3 6-7.3 7q-6.7.6-7.3-4.6v-7.2c.3-3.4 3-6.1 7.3-7m0 2.2a6 6 0 0 0-4.4 5.3v5.2q.4 4 4.4 3.9a5.6 5.6 0 0 0 4.4-5.4v-5q-.4-4.2-4.4-4"/><path fill="#db161b" d="M157.5 264c2.2-.3 3.7 0 5.3.9q2.2 1.4 2.2 3.9v7.2q0 2.5-2.2 4.6a10 10 0 0 1-5.3 2.5q-3 .4-5.2-.8a4 4 0 0 1-2.2-3.8v-7.3q0-2.4 2.2-4.6 2.2-2 5.2-2.6m0 .3a10 10 0 0 0-5 2.6 6 6 0 0 0-2.2 4.3v7.2q0 2.3 2.1 3.6 2.1 1.2 5.1.8a10 10 0 0 0 5.1-2.5 6 6 0 0 0 2.1-4.2v-7.3q0-2.3-2-3.6a8 8 0 0 0-5.2-.9m0 1.9q1.9-.4 3.2.9 1.4 1.2 1.4 3.2v5.1q0 2-1.4 3.6t-3.2 2-3.2-1a4 4 0 0 1-1.3-3.1v-5.1a6 6 0 0 1 1.3-3.7q1.4-1.5 3.2-2m0 .4a5.4 5.4 0 0 0-4.3 5.2v5.1q.1 1.9 1.3 3 1.4 1 3 .8 1.9-.4 3-1.8 1.3-1.4 1.3-3.3v-5.2a4 4 0 0 0-1.2-3q-1.4-1-3-.8"/><path fill="#fff" d="m144.2 272.4 8.7-1.5q.4 0 .6 1v3.8q0 1-.6 1.1l-8.7 1.6q-.5 0-.5-1v-3.8q0-1 .5-1.2"/><path fill="#db161b" d="m144.2 272.2 8.7-1.5q.3 0 .5.3l.2.8v3.8q0 1.3-.7 1.4l-8.7 1.6q-.3 0-.4-.4-.2-.2-.2-.8v-3.8l.1-.9zm0 .4-.2.3-.1.7v3.8q0 .9.3.8l8.7-1.6q.4 0 .4-1v-3.8q.1-.9-.4-.7z"/><path fill="#fff" d="m135 273.2 5.2-1q.2 0 .3 1.4v5q0 1.3-.3 1.5l-5.1 1q-.3 0-.3-1.3v-5.1q0-1.3.3-1.5"/><path fill="#db161b" d="m135 273 5.2-1q.4 0 .4 1.5v5.2q0 1.5-.4 1.6l-5.1 1q-.3.1-.4-.4v-7.2q.1-.6.4-.6m0 .3-.1.3v7.3l5.2-1v-.3l.1-1v-5.1l-.1-1.2z"/><path fill="#fff" d="m108.3 279.5 5-1.3q.3 0 .3 1.3v5.1q0 1.3-.3 1.5l-5 1.3q-.3 0-.4-1.3V281q0-1.3.3-1.5"/><path fill="#db161b" d="m108.3 279.3 5-1.3q.4 0 .5 1.5v5q0 1.7-.5 1.8l-5 1.3q-.6 0-.5-1.5V281l.1-1q0-.7.4-.7m0 .4-.1.3-.1 1v6l.2.2 5-1.3.1-.3.1-1v-5q0-1.3-.2-1.2z"/><path fill="#fff" d="m90.7 283.4 10.1-3q.6 0 .6 1.7v6.4q0 1.6-.6 1.9l-10.1 2.9q-.6 0-.7-1.6v-6.4q0-1.5.7-2"/><path fill="#db161b" d="m90.7 283.2 10.1-3q.4 0 .6.6l.2 1.2v6.4q0 2-.8 2.2l-10.1 2.9q-.4.1-.6-.5l-.2-1.2v-6.4q0-2 .8-2.2m0 .4q-.2 0-.4.5l-.1 1.2v6.4q0 1.4.5 1.4l10.1-3q.2.1.3-.4l.2-1.2V282l-.2-1.1q0-.4-.3-.3z"/><path fill="#fff" d="m161.4 268.5 9.4-1.4q.5.1.5 1.7v6.4q0 1.6-.5 1.8l-9.4 1.4q-.6 0-.6-1.7v-6.4q0-1.6.6-1.8"/><path fill="#db161b" d="m161.4 268.3 9.4-1.4q.3 0 .5.6l.2 1.3v6.4q0 .8-.2 1.3t-.5.7l-9.4 1.4q-.4 0-.6-.6l-.1-1.2v-6.4q0-2 .7-2m0 .3-.3.4-.2 1.2v6.4q0 .7.2 1.2 0 .3.3.3l9.4-1.4.3-.4.1-1.2v-6.4l-.1-1.1-.3-.4z"/><path fill="#1a1a1a" d="M8 195.3c170.8-85.3 341-54.5 513.3-28C676.5 191 833.4 211.8 992 132.7v672c-170.8 85.3-341 54.5-513.3 28C323.5 809 166.6 788.1 8 867.2zm31.3 19.3v604.5c306.5-128.2 611.1 96 921.5-33.7V180.9C654.2 309 349.5 84.9 39.3 214.6" opacity=".2"/></svg>