<svg xmlns="http://www.w3.org/2000/svg" viewBox="0 0 1000 1000"><path fill="#db161b" d="M8 195c171-85 341-54 513-28 155 24 312 45 471-34v672c-171 85-341 54-513 28-155-24-312-45-471 34z"/><path fill="#fff" d="M254 139c242-2 489 118 738-6v224c-245 122-486 4-738 6z"/><path fill="green" d="M254 587c242-2 489 118 738-6v224c-245 122-486 4-738 6z"/><path fill="#fff" d="m65 286 26-9q3 0 3 3v17q0 3-3 4l-26 9q-3 0-3-3v-17q0-3 3-4"/><path fill="#db161b" d="m65 286 28-8 1 2v17q0 4-3 4l-28 9-1-3v-17l1-2zm0 0q-3 1-3 4v17l1 2 2 1 26-9 3-4v-17q-1-3-3-2z"/><path fill="#fff" d="m65 287 25-8q3-1 3 2v15q0 3-3 4l-25 9q-2 0-2-3v-15z"/><path fill="#db161b" d="m65 287 25-9q3 0 3 3v15q0 4-3 4l-27 8v-17q0-4 2-4m0 0-2 4v15q0 3 2 2l27-9 1-2v-16l-1-2h-2z"/><path fill="#fff" d="m77 289 1-1v1l2 1 1-2 1 1-1 1v1h1v2h-1v1l1 1-1 1-1-1-2 1v2l-1 1v-2h-2l-1 1h-1l1-2h-2v-2h1l1-2-1-1 1-1 1 1z"/><path fill="#db161b" d="m77 289 1-1v1l2 1 1-2 1 1-1 1v1h1v2h-1v1l1 1-1 1h-3l1 2-2 1v-2h-2l-1 1h-1l1-2h-2v-2h1l1-2h-1l1-2h3zm0 0-2 1-1-1-1 1 1 1-1 2h-1v2h2l-1 2h1l1-1h2v1h1v-2l2-1 1 1 1-1-1-1v-1l1-1v-1h-1v-1l1-1-1-1-1 2-2-1v-1z"/><path fill="#fff" d="m79 293-2 2-1-1 1-3z"/><path fill="#db161b" d="M79 293v1l-2 1h-1v-3l1-1h2zm0 0-1-1-1-1-1 1v3h1l1-1zm-12-6-2 4h-1zm2 0-3 4v-1zm1-1-2 4zm2 0-3 3zm1-1-2 4zm2-1-2 4h-1zm2 0-3 4zm1-1-2 4zm2 0-2 4-1-1zm2-1-3 4zm1 0-2 4v-1zm2-1-3 4zm-7 2-2 4zm8-2-2 4v-1zm2-1-2 4h-1zm2 0-3 4v-1zm1-1-2 4zm-2 1 2 2zm-2 0 3 3zm-1 1 2 2zm-2 0 2 3zm-2 1 3 2zm-1 0 2 3zm-2 1 3 2h-1zm-1 0 2 3zm-2 1 2 2zm-2 0 3 3zm-1 1 2 2v1zm-2 1 2 2zm7-3 2 3zm-9 3 3 2v1zm-1 1 2 2zm-2 0 3 2-1 1zm-1 1 2 2zm2 16-2 4h-1zm2 0-3 3zm1-1-2 4zm2-1-3 4zm1 0-2 4v-1zm2-1-2 4h-1zm2 0-3 4v-1zm1-1-2 4zm2 0-2 3h-1zm2-1-3 4zm1 0-2 3zm2-1-3 4zm-7 2-2 4zm8-2-2 3zm2-1-2 4h-1zm2 0-3 3zm1-1-2 4zm-2 1 2 2zm-2 0 3 2v1zm-1 1 2 2zm-2 0 2 2v1zm-2 1 3 2zm-1 0 2 2v1zm-2 1 3 2h-1zm-1 0 2 2v1zm-2 1 2 2zm-2 0 3 2v1zm-1 1 2 2zm-2 0 2 3zm7-2 2 2v1zm-9 3 3 2zm-1 1 2 2zm-2 0 3 2-1 1zm-1 1 2 2z"/><path fill="#fff" d="M197 257q3 0 3 3v17q0 4-3 4l-26 3q-3 0-3-3v-17q0-3 3-4z"/><path fill="#db161b" d="m197 257-28 4-1 3v17q0 3 3 3l28-4 1-3v-17l-1-2zm0 0q3 0 3 3v17l-1 3-2 1-26 3q-2 0-3-3v-17l3-4z"/><path fill="#fff" d="M197 258q2 0 2 3v16l-2 3-25 3q-3 0-3-3v-16q0-2 3-3z"/><path fill="#db161b" d="m197 258-25 3q-3 0-3 4v15q0 3 3 3l27-4v-18q1-3-2-3m0 0q2 0 2 3v16q0 2-2 3l-27 2-1-2v-16l1-2 2-1z"/><path fill="#fff" d="M185 265v1h2l1-1 1 1-1 1 1 2 1-1v3h-1l-1 1 1 1-1 1-1-1-2 1v1h-1v-1l-2-1-1 2-1-1 1-2v-1l-1 1v-2h1v-2h-1l1-1h1l2-1z"/><path fill="#db161b" d="M185 265h-1v1l-2 1-1-1-1 2h1v2h-1v2l1-1v1l-1 2 1 1 1-1h2l-1 1h2v-1l2-1 1 1 1-1-1-1 1-1h1v-3l-1 1-1-2 1-1-1-1-1 1h-2zm0 0v1h2l1-1 1 1-1 1 1 2h1v2h-1l-1 1 1 1-1 1-1-1-2 1v1h-1v-1l-2-1-1 1h-1l1-2v-1h-1v-1h1v-2h-1l1-1 1 1 2-1v-1z"/><path fill="#fff" d="m183 270 2-2 1 2-1 2z"/><path fill="#db161b" d="m183 270 1 2h1l1-1 1-1-1-2h-1l-1 1zm0 0 1-1 1-1 1 1v2l-1 1-1-1zm12-11 2 3h1zm-2 1 3 2zm-1 0 2 2zm-2 0 3 3v-1zm-1 0 2 3zm-2 0 2 3h1zm-2 0 3 3zm-1 1 2 2zm-2 0 2 3 1-1zm-2 0 3 3v-1zm-1 0 2 3zm-2 0 3 3zm7 0 2 2zm-8 1 2 2zm-2 0 2 3 1-1zm-2 0 3 3v-1zm-1 0 2 3zm2 0-2 3zm2-1-3 4zm1 0-2 4zm2 0-2 3v1zm2 0-3 3zm1 0-2 3zm2-1-3 4h1zm1 0-2 4zm2 0-2 3v1zm2 0-3 3zm1 0-2 3zm2 0-2 3zm-7 0-2 4zm9-1-3 4zm1 0-2 3v1zm2 0-3 3 1 1zm1 0-2 3zm-2 17 2 3h1zm-2 0 3 3zm-1 1 2 2zm-2 0 3 2zm-1 0 2 3v-1zm-2 0 2 3h1zm-2 0 3 3zm-1 0 2 3zm-2 1 2 2h1zm-2 0 3 3v-1zm-1 0 2 3v-1zm-2 0 3 3zm7-1 2 3zm-8 1 2 3zm-2 1 2 2h1zm-2 0 3 3v-1zm-1 0 2 3v-1zm2 0-2 3zm2-1-3 4zm1 0-2 3v1zm2 0-2 3zm2 0-3 3zm1-1-2 4zm2 0-3 4h1zm1 0-2 3v1zm2 0-2 3zm2 0-3 3zm1 0-2 3zm2-1-2 4zm-7 1-2 3v1zm9-1-3 3v1zm1 0-2 3v1zm2 0-3 3h1zm1 0-2 3z"/><path fill="#fff" d="M112 321q31-52 37-67 5-12 9-10c8 3-8 37-35 79-26 43-52 78-60 77q-6 0 8-18z"/><path fill="#db161b" d="M112 321a592 592 0 0 0 41-76q3-3 5-1 3 1 2 8l-6 17q-10 23-31 54-21 34-37 55-17 23-23 22l-2-1 1-3 9-14zm0 1-50 76 1 2q6 0 23-22a790 790 0 0 0 73-126q2-7-1-8l-4 1-5 10q-15 31-37 67"/><path fill="#fff" d="m79 369 13 1c-13 21-27 32-31 31q-3-1 5-11z"/><path fill="#db161b" d="m79 369 14 1h-1q-9 15-19 24-9 9-12 7l-1-1v-2l6-9zm0 1-18 28-1 2 1 1q3 2 12-7 10-10 19-24z"/><path fill="#fff" d="m79 371 11 1q-21 30-29 28-1-1 4-8z"/><path fill="#db161b" d="m79 371 11 1q-9 13-18 22-7 7-11 6v-2l4-6zm0 1-18 27 1 1q3 0 10-7 9-7 18-21zm42-55v4l-1 1-1 1-1 1h-2v1-3 1l1 1 1-1 1-1 1-1 1-1zm-4 9h-3l-1 1h-1v1l-1 1v1l-1 1h1v1-1h-2l-1 1v-1h2v-1l1-1 1-2 1-1h1l1-1zm-5 8h-3 1l-1 1v1l-1 1-1 1h-1v2l1 1v2h-1v-1h1l-1-1v-3l1-1 1-1 1-1v-2l1 1zm-7 10h-3l-1 1v1h-1v6h1-1v-2h-1v-1l1-2v-1l1-1v-1h2l1-1zm-4 10-1 1-1-1v3l-1 1v1h-3v-1h-1l-1 1v1-1l1-1h1l1 1h1v-1h1l1-1v-4h-1v-1h1v2h1v1zm-8 5v5h-1v1h-1l-2 1-1-1h-1v-1 5-5h-1v-1h1v1l1 1h2l2-1v-1l1-1v-2h-1v-2m-13 17h1l1-1h2l1 1v1l-2 2h-1v2l-1 1v1l-1 1-1-2v-2l-1-1v1l-2 1h-1v2l-1 1v1l1 1v2h1-3l-2-1-1 1-1 2v4l-1 1h-2 1l2-1v-6l2-1h2v1h2l-1-1v-3l1-1v-3l1 1 2-1-1-1v-1l1 1 1 1v1l1 1v1h1v-2l1-2 1-1 2-1v-1l-1-1h-2v1h-1z"/><path fill="#fff" d="m157 265-12-6c18-45 34-78 38-77 3 3-9 38-26 83"/><path fill="#db161b" d="m157 265-12-6 24-56q12-22 14-21t-5 26zm0-1a897 897 0 0 0 26-81q-2-2-14 21l-24 55z"/><path fill="#fff" d="M156 264c17-43 28-77 26-79-3-1-19 32-36 75z"/><path fill="#db161b" d="m155 264 27-79q-3-1-13 21l-23 54 36-75-1 7-5 17z"/><path fill="#fff" d="m153 244 9 4-6 16-10-4z"/><path fill="#db161b" d="m153 243 9 5-4 10-2 6-10-4 2-6zm0 1-4 10-2 6 9 4 2-6 4-10z"/><path fill="#fff" d="m153 245 7 3-5 15-7-4z"/><path fill="#db161b" d="m153 245 8 3v1l-4 9-2 5-7-3v-1l2-5zm1 0-4 9-2 5 7 3 2-4 3-9z"/><path fill="#fff" d="m159 250-5-2-4 10 4 2z"/><path fill="#db161b" d="m159 250-5-3-4 11 4 2zm-1 0-4 10-4-2 4-10zm1 0-9 8zm-5 10v-12zm25-62-4-3zm-1-6 1 1q2 0 1-2l-1-1zm0 0v1h1l1-1 1-1-1-1h-1l-1 1zm0 0 1-2 1 1v1l-1 1z"/><path fill="#fff" d="M150 313q29 32 41 43 14 12 8 14c-8 5-33-19-60-50s-43-58-35-65q5-4 9 7 6 13 37 51"/><path fill="#db161b" d="M150 313a332 332 0 0 1-41-58h-5q-3 3-2 9l6 15q10 18 31 41 21 24 37 39 17 15 23 12l2-3-1-3-9-9q-22-21-41-43m0 0a679 679 0 0 0 50 55l-1 2q-5 3-23-12a406 406 0 0 1-67-80l-6-14q-2-6 1-8 3-3 4-1l5 7q15 25 37 51"/><path fill="#fff" d="m183 347 13 14q8 6 5 10c-4 3-18-3-31-18z"/><path fill="#db161b" d="m183 346-14 7 1 1q9 11 19 15 9 5 12 2l1-2v-2l-6-6zm0 1 13 14 5 6 1 2-1 1q-3 3-12-1-10-6-19-16z"/><path fill="#fff" d="m183 349 14 14q5 5 4 7-8 5-29-16z"/><path fill="#db161b" d="m183 348-11 6q9 10 18 14 7 4 11 2v-3l-4-4zm0 1 18 18v2l-1 1q-3 1-10-2-9-4-18-14zm-42-36v3l1 1 1 1h2l1-1v2-3 1h-1v1h-1l-1-1h-1v-1h-1zm4 7 2-1h3v1h1v1h1v1h-1v1l1-1h2-2v-1h-1v-1l-1-1h-1v-1h-1l-1 1zm5 5h2l1-1v2l1 1h1l1 1v2l-1 1v1h1-1v-1l1-1 1-1v-1h-1v-1h-1l-1-1h-1v-2l-1 1zm7 8 1-1h3v1h1v5l-1 1h1v-2l1-1v-1l-1-1v-2h-2v-1l-2 1zm4 8h1l1-1v3h1v1h2l1-1v-1h1l1 1v-1h-2v1h-1l-1 1-1-1-1-1v-4h1-1v2h-1v1zm8 2v5h4l1-1h1v-1 4-4l1-1v-1l-1 1v1h-1v1h-1v1h-3v-1l-1-1v-2l1-1zm14 9v1l-1 1v-1h-3v1l-1 1v1l2 1h1v2l1 1v1h1l1-2v-2l1-2v1h3v1l1 1v2l-1 1v1l-1 1 3-1v-1l2-1h1l1 2v4h1l1 1 1-1h-3v-6h-2l-2 1v1h-1l-1 1 1-2v-3l-1-1v-2l-1 1h-2l1-2-1 1-1 1v2h-1v2h-1v-1l-1-2h-1l-2-1v-1l1-1 2-1v1h1l1-1z"/><path fill="#fff" d="M105 276c-17-37-29-68-26-71 4-3 20 23 38 60z"/><path fill="#db161b" d="m105 276 12-11-24-45q-11-18-14-15-2 3 5 23t21 48m0-1-20-47q-8-20-6-23 3-2 14 15l24 45z"/><path fill="#fff" d="M106 275c-17-36-28-65-26-68 3-2 19 23 36 59z"/><path fill="#db161b" d="m107 274-27-67q3-2 13 16l23 44v-1l-23-44q-10-16-13-15l1 7 5 15z"/><path fill="#fff" d="m109 253 7 13-10 9-6-14z"/><path fill="#db161b" d="m109 253-9 8 4 9 2 5 10-9-2-4zm0 0 4 9 2 4-9 8-2-4-4-9z"/><path fill="#fff" d="m109 255 5 12-7 6-5-12z"/><path fill="#db161b" d="m109 255-8 6 4 8 2 4 7-6v-1l-2-4zm-1 0 4 8 2 4-7 5-2-3-3-8z"/><path fill="#fff" d="m103 262 5-5 4 9-4 4z"/><path fill="#db161b" d="m103 262 5-5 4 9-4 4zm1 0 4 8 4-4-4-8zm-1 0 9 4zm5 8v-13zm-25-51 4-5zm1-7-1 2q-2 0-1-2l1-1zm0 0v2h-2l-1-2 1-1 1-1 1 1zm0 0-1-1-1 1v1l1 1z"/><path fill="#fff" d="m119 250 24-5v49q0 30-24 35c-13 3-52 5-53-4 1-11 49-23 51-25s2-13 2-43z"/><path fill="#db161b" d="m119 250 24-5v49q0 30-24 35-12 3-31 3-22-1-22-7 0-4 14-12l37-13 2-11zm0 0v39q0 9-2 11l-12 4-25 10q-13 6-14 11 1 6 22 6 19 1 31-2 24-5 24-35v-49z"/><path fill="#fff" d="M119 260q12 0 24-5v5q-12 5-24 5z"/><path fill="#db161b" d="M119 260q12-1 24-5v5q-12 5-24 5zm0 0v5q12-1 24-5v-5q-12 5-24 5"/><path fill="#fff" d="M119 250q12 0 24-5v5q-12 5-24 5z"/><path fill="#db161b" d="M119 250q12 0 24-5v5q-12 5-24 5zm0 0v5q12-1 24-5v-5q-12 5-24 5"/><path fill="#fff" d="M119 255q12 0 24-5v5q-12 5-24 5z"/><path fill="#db161b" d="M119 255q12-1 24-5v5q-12 5-24 5zm0 0v5q12-1 24-5v-5q-12 5-24 5"/><path fill="#fff" d="M119 265q12 0 24-5v5q-12 5-24 5z"/><path fill="#db161b" d="M119 265q12-1 24-5v-1 6q-12 5-24 5zm0 0v5q12-1 24-5v-5q-12 5-24 5"/><path fill="#fff" d="m121 257-1 2-1-1z"/><path fill="#db161b" d="M121 257v1l-1 1h-1v-2zm0 0-1 1h1v1l1-1z"/><path fill="#fff" d="m126 257-2 1-1-1 1-1z"/><path fill="#db161b" d="M126 257h-3v-1l1-1zm-1 0v2z"/><path fill="#fff" d="m130 256-1 2-1-1 1-1z"/><path fill="#db161b" d="M130 256v1l-1 1h-1v-2l1-1zm0 0h-1v1l1 1v-1z"/><path fill="#fff" d="m134 255-1 2-1-1z"/><path fill="#db161b" d="m135 255-1 1-1 1h-1v-2zm-1 1v-1h-1v2z"/><path fill="#fff" d="m139 254-1 1-1-1 1-1z"/><path fill="#db161b" d="M139 254h-3l1-1 1-1zm0 0-1 1v1h1z"/><path fill="#fff" d="m143 253-1-1 1-1z"/><path fill="#db161b" d="m144 253-1 1h-1v-2h2zm-1 0h-1l-1 1 1 1zm-24 22 24 21v1zm2-1 22 19v1zm4 0 18 16v1zm2 0 16 13v1zm3-1 13 11v1zm2 0 11 8v1zm2-1 9 6v1zm3 0 6 4v1zm2-1 4 3v1zm3 0 1 1v1zm-23 7 24 21zm24-8-26 35h-1zm-2 0-24 31zm-3 2-19 24v-1zm-3 0-16 21zm-2 1-14 17zm-3 0-11 14zm-2 1-9 10zm-3 0-6 8zm-2 1-4 5zm-2 1-2 2zm22-3-26 35h-1zm0 3-26 35h-1zm0 3-26 35h-1zm0 3-26 35h-1zm0 3-26 35h-1zm0 3-26 35h-1zm0 3-26 35h-1zm0 3-26 35h-1zm0 2-25 34v-1zm0 3-22 30h-1zm0 5-18 23zm-1 4-15 19v-1zm-2 5-7 9zm-21-32 24 20-1 1zm0 3 24 20-1 1zm0 3 23 19v1zm0 3 23 19v1zm0 2 22 20zm-1 3 22 19zm0 3 21 17h-1zm-1 2 21 17zm0 2 19 16v1zm0 3 18 16zm0 3 16 14z"/><path fill="#fff" d="M119 270q12 0 24-5v5q-12 4-24 5z"/><path fill="#db161b" d="M119 270q12-1 24-6v6q-12 5-24 5zm0 0v5q12-1 24-6v-4q-12 5-24 5m-2 41 14 12v1zm0 3 13 11h-1zm0 3 11 9zm0 3 8 7zm0 3 6 5zm0 3 4 3h-1z"/><path fill="#fff" d="m121 272-1 1h-1z"/><path fill="#db161b" d="m121 272-1 1-1-1v-1zm0 0v1l-1 1h2z"/><path fill="#fff" d="m126 272-2 1-1-1 1-1z"/><path fill="#db161b" d="m126 272-2 1h-1v-2h3zm-1 0h-1v2z"/><path fill="#fff" d="m130 271-1 2-1-1 1-2z"/><path fill="#db161b" d="M130 271v1l-1 1h-1v-2l1-1zm0 0q0-1 0 0h-1v1h1z"/><path fill="#fff" d="m134 270-1 2-1-1z"/><path fill="#db161b" d="m135 270-1 1-1 1h-1v-2l1-1zm-1 0v2l1-1z"/><path fill="#fff" d="m139 269-1 1-1-1 1-1z"/><path fill="#db161b" d="M139 269h-2l-1-1h1l1-1zm0 0h-1v2h1z"/><path fill="#fff" d="m143 267-1 2-1-1z"/><path fill="#db161b" d="m144 267-1 1-1 1h-1v-2zm-1 1v-1h-1l-1 1 1 1zm-59 63 29-29zm-2-1 28-27zm-1-1 26-26v1zm0-2 22-22zm-2-2 20-20v1zm1-3 14-14zm-1-1 11-12v1zm0-3 7-8v1zm7 13 28-27zm3 0 26-26v1zm2 1 25-25zm3 0 20-20zm3-1 18-18v1zm2 0 16-15v1zm3 1 12-13v1zm3-1 10-10v1zm3 0 7-7zm4-1 4-4z"/><path fill="#fff" d="M117 300v30l-4 1v-30z"/><path fill="#db161b" d="M117 300v30l-4 1v-30zm0 0-4 1v29h4zm-48 28 10-13zm0-7 10 8v1z"/><path fill="#fff" d="M84 311v21h-5v-18z"/><path fill="#db161b" d="M84 311v21h-5v-18zm0 0-5 3v17l5 1z"/><path fill="#fff" d="m143 247-24 5v-5q6-2 6-7l12-3q0 5 6 5z"/><path fill="#db161b" d="m143 247-24 5v-5l4-3 2-4 12-3 2 4 4 1zm0 0v-5l-4-1-2-4-12 3q0 3-2 4-1 3-4 3v5z"/><path fill="#fff" d="m126 234 10-3v6l-10 3z"/><path fill="#db161b" d="m126 233 10-2v6l-10 3zm0 1v5l10-2v-5z"/><path fill="#fff" d="m127 227 8-1v6l-8 1z"/><path fill="#db161b" d="m127 227 9-2v7l-9 2zm0 1v5l8-2v-5z"/><path fill="#fff" d="m127 222 8-2v6l-8 1z"/><path fill="#db161b" d="m127 221 9-2v7l-9 2zm0 1v5l8-2v-5z"/><path fill="#fff" d="m128 213 7-1v8l-7 1z"/><path fill="#db161b" d="m127 213 8-1v8l-8 2zm1 1v7l6-1v-8z"/><path fill="#fff" d="m127 207 8-2v7l-8 1z"/><path fill="#db161b" d="m127 206 8-1v7l-8 2zm0 1v6l8-1v-7z"/><path fill="#fff" d="M142 197q-2 9-10 12-9 1-11-8 2-9 11-11 8-1 10 7"/><path fill="#db161b" d="M142 197q0 4-3 8l-7 4-8-1q-3-3-3-7 0-3 3-7 3-3 8-4 4-1 7 1t3 6m-1 0q1-3-2-6-4-2-7-1l-8 4-2 7 2 6q4 3 8 1l7-4z"/><path fill="#fff" d="m137 198 2 6-7 5q-5 1-8-2l2-7-2-6 8-4q4-1 7 1z"/><path fill="#db161b" d="m137 198 2 6q-3 4-7 5-7 1-8-2l2-7q1-3-2-5v-1q3-3 8-4 4-1 7 1zm-1 0 3-7q-3-2-7-1l-8 4 3 6-3 7q3 3 8 1l7-4z"/><path fill="#fff" d="m135 198 2 7-5 4h-1q-4 1-5-1l2-9-2-6q2-3 6-3 3-2 5 1z"/><path fill="#db161b" d="m135 198 3 7-1 1-5 3h-1q-5 1-5-1h-1 1l2-9-2-6h-1 1q2-3 6-3h6v1zm0 0 2-7-5-1-6 3 2 6-2 9 5 1 1-1q3 0 5-3z"/><path fill="#fff" d="M124 201q0 3-3 4l-2-2 2-4q3 0 3 2"/><path fill="#db161b" d="m124 201-1 3-2 1h-1l-1-2 1-3 1-1h2zm0 0-1-1-2-1-1 1-1 3 1 1 1 1 2-1z"/><path fill="#fff" d="m144 197-2 4q-3 0-3-3t3-3 2 2"/><path fill="#db161b" d="m144 197-1 3-1 1-2-1-1-2 1-2 2-1h1zm0 0-1-2h-1l-2 1-1 2 1 2h2l1-1z"/><path fill="#fff" d="m134 199-2 4q-3 0-3-3 0-2 3-3 2 0 2 2"/><path fill="#db161b" d="m134 199-1 3-1 1-2-1-1-2 1-2 2-1h1zm0 0-1-2h-1l-2 1-1 2 1 2 2 1 1-2z"/><path fill="#fff" d="m134 189-2 4q-3 0-3-3 0-2 3-3z"/><path fill="#db161b" d="m134 189-1 3-1 1-2-1-1-2 1-2 2-1h1zm0 0-1-2h-1l-2 1-1 2 1 2 2 1 1-2z"/><path fill="#fff" d="M127 247q0 3-3 4-2 0-2-3l2-3q3 0 3 2"/><path fill="#db161b" d="m127 247-1 3-2 1h-2l-1-2 1-3 2-1h2zm0 0-1-1-2-1-2 1v4l2 1 2-2z"/><path fill="#fff" d="M141 244q0 3-3 4l-3-3 3-3q3 0 3 2"/><path fill="#db161b" d="m141 244-1 3-2 1h-2l-1-3 1-2 2-1h2zm0 0-1-1-2-1-2 1v4l2 1 2-1z"/><path fill="#fff" d="m125 240 12-3-6 10z"/><path fill="#db161b" d="m138 237-7 11-6-8zm-13 3 6 7 6-10z"/><path fill="#fff" d="M135 245q-1 4-4 4-3 1-3-3 0-3 3-5 3 0 4 4"/><path fill="#db161b" d="m135 245-1 3-3 2-3-1-1-3 1-3 3-2 3 1zm-1 0-1-3h-2l-2 1-1 3 1 2 2 1 2-2z"/><path fill="#fff" d="m119 278 16-4 1 1v4l-1 1-16 4-1-1v-4z"/><path fill="#db161b" d="m119 278 16-4 2 1v4l-2 1-16 4h-1v-5zm0 0v5l1 1 16-4 1-1v-5h-1z"/><path fill="#fff" d="M142 268q3 0 4 4v5q0 5-4 6-4 0-4-5v-4q1-4 4-6m0 2-2 4v3q0 4 2 4 2-1 3-5v-2q-1-4-3-4"/><path fill="#db161b" d="m142 268 3 1 1 3v5l-1 4-3 2-3-1-1-4v-4l1-4zm0 0-3 2-1 4v4l1 4 3 1 3-2 1-4v-5l-1-3zm0 2q3-1 3 4v2l-1 3-2 2q-3 0-2-4v-2q0-5 2-5m0 0-2 4v3q0 4 2 4 2-1 2-5v-5z"/><path fill="#fff" d="M121 271q4 0 4 5v6q0 5-4 6-3 1-4-4v-6q1-6 4-7m0 2-2 5v5q0 3 2 3l2-4v-5z"/><path fill="#db161b" d="m121 271 3 1 1 4v6l-1 4-3 2h-3l-1-4v-6l1-5zm0 1-3 2-1 4v6l1 3 3 1 3-2 1-4v-6l-1-4zm0 1q2 0 3 4v5l-1 3-2 1q-3 1-3-3v-5q0-4 3-5m0 1-2 1v10l2 1 2-1v-8q1-4-2-3"/><path fill="#fff" d="M114 275q4 0 5 4v3q-1 5-5 6-3 1-4-4v-3q1-4 4-6m0 2q-2 0-2 5v1q0 3 2 3 3 0 3-4v-2q0-3-3-3"/><path fill="#db161b" d="m114 275 3 1 2 3v3l-2 4q0 2-3 2h-3l-1-4v-3l1-4zm0 0-2 2-1 4v3l1 3 2 1q2 0 3-2l1-4v-3l-1-3zm0 2 2 1 1 2v2q0 4-3 4h-1l-1-3v-1q0-5 2-5m0 0-1 2-1 3v1q0 3 2 3l2-1 1-3v-2q0-3-3-3"/><path fill="#fff" d="M105 274q7 0 7 4v8q0 5-7 7t-8-3v-8q1-5 8-8m0 3q-4 1-5 6v5q1 4 5 3t4-6v-5q0-5-4-3"/><path fill="#db161b" d="m105 274 5 1 2 3v8l-2 4q-2 3-5 3h-6l-2-3v-8l2-5zm0 1q-3 0-5 3l-2 4v7q0 3 2 4h5q3 0 5-3l2-4v-8l-2-3zm0 2h3l1 3v5a7 7 0 0 1-4 6h-3l-2-3v-5a7 7 0 0 1 5-6m0 0q-2 0-3 2l-2 3v6l2 2 3 1 3-2 1-4v-5l-1-3z"/><path fill="#fff" d="M158 264q7-1 7 5v7q-1 5-7 7-7 0-8-5v-7q1-5 8-7m0 2q-5 2-5 6v5q0 4 5 4 4-1 4-6v-5q0-3-4-4"/><path fill="#db161b" d="m158 264 5 1 2 4v7l-2 5-5 2-6-1-2-4v-7l2-4q2-3 6-3m0 0-6 3-2 4v7l2 4 6 1 5-3 2-4v-7l-2-4zm0 2 3 1 1 3v5l-1 4-3 2-4-1-1-3v-5l1-4zm0 1-3 1-2 4v5l2 3 3 1 3-2 1-4v-5l-1-3z"/><path fill="#fff" d="m144 272 9-1v6l-9 1z"/><path fill="#db161b" d="m144 272 9-1 1 1v4l-1 1-9 2zm0 1v4l9-1v-6z"/><path fill="#fff" d="m135 273 5-1v8l-5 1z"/><path fill="#db161b" d="m135 273 5-1 1 2v5l-1 1-5 1zm0 0v7l5-1v-8z"/><path fill="#fff" d="m108 279 5-1 1 2v5l-1 1-5 1z"/><path fill="#db161b" d="m108 279 5-1 1 1v6l-1 1-5 2zm0 1v6l5-1 1-1v-5l-1-2z"/><path fill="#fff" d="m91 283 10-3v10l-10 3-1-1v-7z"/><path fill="#db161b" d="m91 283 10-3v1l1 1v6l-1 3-10 2h-1v-8zm0 1v8l1 1 10-3v-9z"/><path fill="#fff" d="m161 269 10-2v10l-10 1z"/><path fill="#db161b" d="m161 268 10-1v10l-10 2zm0 1v9l10-1v-10z"/></svg>