<svg xmlns="http://www.w3.org/2000/svg" viewBox="0 0 1000 1000"><path fill="#ce1126" d="M8 195.3c170.8-85.3 341-54.5 513.3-28C676.5 191 833.4 211.8 992 132.7v672c-170.8 85.3-341 54.5-513.3 28C323.5 809 166.6 788.1 8 867.2z"/><path fill="#fff" d="M8 363.3c170.8-85.3 341-54.5 513.3-28C676.5 359 833.4 379.8 992 300.7v336c-170.8 85.3-341 54.5-513.3 28C323.5 641 166.6 620.1 8 699.2z"/><path fill="#ff9c10" d="m462.8 479.2-24-4.2v-9.7zm-24-18.8v-16.1c-.2 0-2.4 0-2.3-3.2.5-4.2 7.5 3.3 15.5 11.6 3.9 4.1 7.9 8.2 10.9 10.8l-.2 12.9zm-78 44.6a167 167 0 0 1-1.2-34l50.2 8.4v31.8zm-.2-43.6q2.6-17.6 8.7-33.2l40.9 21.4.4 22.6zm12.4-41.7q7.5-15.3 18.3-27.8L414 415c-.2.2-3.2 2.3-3.3 5.1q.4 1.8 2.2 2.9t2.1 2.9c-.4 2.6-3.4 2.6-3.9 5 .2 2.4 3.4 5.3 3.6 5.5l-5.8 5.4zm267.3 88.7.5 9.3-3.6 25.8-53-6.4-.4-31.2zm-1.8-9.7-53.8.1-.4-23 45.3-13.9.6 1.5a182 182 0 0 1 5.8 20q1.6 7.7 2.5 15.3M607 421a182 182 0 0 1 18.5 31.2l-40.4 16.5a14 14 0 0 0-4.4-7.9c2.2-1.2 3.6-3.6 1.9-6.2l-1-1c-1.2-1-2.1-1.8-1.4-3l.6-.7c1.6-1.7 3-3.3 2.2-6-.7-2-2.3-3.8-2.5-5.8zm-75 69.7 23.2-6.9-.4 9.3zm0-5V475l3.6-2.7a843 843 0 0 1 22.5-16.7c-.3 4.1-2.4 6.7-2.5 6.8v15.3zM398.7 384q11.3-10.8 24.9-18.3l39.3 68.1-.1 23.7-22.7-25.5c-.2 0-2.8-.6-3.2-3 .4-2.7 2.8-1.6 3.1-5.2-.4-3.6-3.8-4-4.2-6.8.3-2.8 2.5-1.9 2.8-5.9-.3-3.3-2.7-3.7-7-4.5l-3-.6c-5.9-1.2-10.6-1.5-11.7 1zm64.6-31.1 4 8c-5.1 3.2-5.7 62.1-5.7 62.7L433.2 361q14.3-6 30-8.1m94 22q4 2.4 8 5.2L532 435.4v-25.7q0-1 .4-2c.5-1.6 1-2.8-1.3-3.5a69 69 0 0 1-11-2l11.7-40 1.3.6 8.2 3.8q8.1 3.8 15.9 8.3M573 386a184 184 0 0 1 27 26.2l-14.3 13a10 10 0 0 0-2.7 2.4c-1.7 2-3 3.4-4.7 1.8q-4.5-1.6-9.1-1.7-2.7-.2-5.2-.6c-3.8-.8-8.4.3-6 5.2 3.3 2 2.9 6.3-.4 7.4-1.9 1.6-.8 2.7.6 4 1.1 1.2 2 2 1.3 3.1L532 469.5v-25z"/><path fill="#083d9c" d="m467 621.6.9.1.4.1c14.3 2.5 18.4 14 28.3 16.7 5.1 1 9.4-.8 14.4-3.2 5-2.3 10-4.5 16.3-4 12.4 1.8 27.7 14.2 27.9 14.3l-29.5 5.7q-7.8.3-15.7-.3a324 324 0 0 1-31.2-6q-18.8-6.1-35.7-16.4a43 43 0 0 1 23.9-7"/><path fill="#083d9c" d="m467 619.9 1 .1h.3a38 38 0 0 1 18.3 10.2q6.3 5.5 10.2 6.6 4.3 1 13.3-3 10.5-4.9 17.1-4.2a60 60 0 0 1 29 14.7l1.5 1.3c-17.7 5.7-37 7.4-57.7 4.2a157 157 0 0 1-58.7-22.3 41 41 0 0 1 25.6-7.6m.2 3.5a37 37 0 0 0-21.7 6 164 164 0 0 0 24.2 11 320 320 0 0 0 45.5 9.7h7.3l29-5.6a52 52 0 0 0-24-11.5q-5.9-.5-15.5 4c-6.8 3-11.6 4-15.4 3.2q-4.8-1.3-12-7.6a34 34 0 0 0-16.2-9l-.4-.1zm-54.1-18-7-7.1c7.4-2.1 25.5-6.8 31.7-6.4 3.6.4 8.1 3.1 13.2 6.3a50 50 0 0 0 17 7.8c10 1 17.5-5.5 30.7-4.1a32 32 0 0 1 14.5 6.5c4.6 3.1 9 6 16.6 6.7 6.5.3 8.8-1.1 11.4-2.8 3.2-2 6-3.9 16.5-2.3 14 2.6 26.2 13.7 31.8 19.4l-3.3 2.4c-57.1-8-114.3-18.3-173.1-26.4"/><path fill="#083d9c" d="m590.6 628.4-2.4 1.8q-3-3.1-7.2-6.6a52 52 0 0 0-23.5-12c-6.6-1-11.4-.4-15.4 2a20 20 0 0 1-12.3 3q-8-.6-17.4-7a34 34 0 0 0-13.7-6.2q-6.8-.7-17 2.1a40 40 0 0 1-13.7 2q-5.6-.6-17.7-8a43 43 0 0 0-12.5-6.1q-6.9-.7-30.5 6.2l-2.6-2.8q25.4-7.3 32.9-6.7 4 .4 14 6.6 11.4 7 16.3 7.6 4.3.4 12.5-2 10.8-3 18.2-2.2 6.6 1 15.3 6.8 8.7 5.9 15.7 6.5 5.8.3 10.6-2.6c4.5-2.9 10-3.6 17.4-2.5a56 56 0 0 1 25.2 12.9 98 98 0 0 1 7.8 7.2m-6.5 4.6c-55.8-7.8-111.6-17.8-169.1-25.8l-4-3.8c58.4 8 116.9 18.6 177 27zm-192.7-52.7-5.4-8 3.2-1.7c6.3-3.3 14-7.2 19.8-6.6 9.5 1.6 18.4 14.2 28.3 16.8 4.8.9 8.5-1 12.7-3.5 4.7-2.6 9.4-5.1 16.3-4.3 13.1 2.3 20.8 14.6 31.1 16.5 10.4 1.3 21.1-7.3 31.5-6.5a39 39 0 0 1 15.8 8.3c5 3.7 9.6 6.9 14 7.5 9.2.6 17.2-8.9 28.3-8.1a43 43 0 0 1 24.5 17.4q-1.7 2.2-3.5 4.2c-71.5-9-143-22.7-216.6-32"/><path fill="#083d9c" d="m612.7 606.7-2.1 2.6q-1-2.6-5.7-7a41 41 0 0 0-17.9-10 31 31 0 0 0-14.7 4.2c-6 3-10.2 4.1-13.5 4q-4.8-.6-14.9-7.9-10-7.3-15-8-4.7-.4-14.7 3.3a39 39 0 0 1-16.8 3.2q-5.2-.9-14.4-7.8-10.1-7.6-16.7-8.7-6.3-.8-15.3 4.2c-5.9 3.2-10.2 4.3-13.9 3.6q-5.2-1.3-14.7-9-9-7.1-13.4-7.8-5.2-.6-19 6.5l-3.2 1.5-1.8-2.8 3.3-1.7q14.6-7.5 20.7-6.8 5.3.9 15.1 8.7 8.9 7.1 13.3 8.2c3 .5 6.6-.5 11.7-3.3a28 28 0 0 1 17.2-4.5q7.4 1.3 18.3 9.4 8.4 6.3 12.8 7 5 .7 15.3-3a41 41 0 0 1 16.1-3.4q5.8.8 16.7 8.6a37 37 0 0 0 13.2 7.2q4 .3 11.9-3.7A33 33 0 0 1 587 589h.2a44 44 0 0 1 25.5 17.7m-6 7c-70.6-9-141.3-22.3-214-31.6l-2.6-3.6c72.3 9.1 144.7 23 219.2 32.3zm-134.2-44.3c-.5-.5 9.5-14.1 25.3-12.6 14.3 1.6 25.4 19.6 25.3 20.4z"/><path fill="#083d9c" d="m474 571.3-1.5-.2q-1.5-.2-1.6-1.8v-1.7h.5l1.2-1.6q2.3-2.7 5.3-5a27 27 0 0 1 19.8-5.8c6.5.6 12.6 4 19.2 11q3.1 3.4 5.7 7c2 3 2.4 4.5 1.7 5.3l-.5.4zm1.2-3 45.1 6.9-.2-.4a60 60 0 0 0-5.3-6.5c-6-6.2-11.3-9.3-16.8-9.8h-.1c-6.4-.7-12 1-17.9 5.2q-2.7 2.2-4.8 4.5m152 14.7q-1.5 3.6-3.5 7l-59-7.7c.3 0 8.6-4.1 11.5-8.7 4.4 3.3 3.3 5.2 12.2 7 4.6.7 8.9-1.2 13.3-3.3s8.5-3.8 12.8-3.3c4.3 1 8.9 4.9 12.8 9"/><path fill="#083d9c" d="m628 581.5-1.4 3c-5-5.5-8.9-8.2-12.1-9-2.7-.3-6.4.7-12 3.2q-9.1 4.4-14.2 3.5a19 19 0 0 1-11.6-6.4q-2.2 2.9-6.6 5.6l54.4 7-1.6 3-64-8.4 5-2.3q8.6-4 10.8-8.1l.8-1.4 1.4 1q1.6 1 3.4 3 2.7 2.7 8.2 3.7 4 .7 12.5-3.2 8.8-4 13.6-3.4 5.5 1 13.4 9.2M376.3 555q-2.7-5.5-5-11.2 4.5-3.2 9-3.2c4.3.5 8.4 3.3 12.8 6.4s8.8 6.2 13.4 6.7c9 .6 7.8-1.6 12.2-3.7a52 52 0 0 0 11.4 12z"/><path fill="#083d9c" d="m377.1 556.7-1.7-3.4 49.3 6.3q-4.4-4-6.5-7.4l-1.5 1c-2.5 1.8-5.6 2.5-10.2 2.2a35 35 0 0 1-14.2-7.1q-8.1-5.8-11.9-6-3.4-.3-8.4 3.1l-1.3-3.2a17 17 0 0 1 9.6-3.2 33 33 0 0 1 13.6 6.7q8.4 5.9 12.5 6.4 5.5.5 8.2-1.6 1.8-1.4 3.4-2l1.4-.6.7 1.6q2.3 4.7 10.8 11.1l5 3.8zM367 532q-2-6.3-3.5-12.7c3.6 3.6 9.7 8.5 16 9.2A26 26 0 0 0 391 525c6.4-3 12.8-6 20.8-2.5.5 8.6 3.5 15.7 3.5 15.8z"/><path fill="#083d9c" d="M367.5 533.6q-2.7-8.4-4.6-17.2c5.8 6.6 11 9.9 16.5 10.4q3.2.1 10.7-3.4c9.4-4.3 16.4-5 22.2-2.5l1 .5v1.1a45 45 0 0 0 3.5 15.2l1 2.5zm-.4-3.3 45.8 6q-2.1-6-2.6-12.9c-4.8-1.5-10.7-.7-18.6 3a30 30 0 0 1-12.1 3.7 26 26 0 0 1-15.2-7.6zm262.6 38.2-49.4-5.8s3-6.3 3.6-14.8c7.8-1.4 14.4 3.3 20.8 8 4.1 3 7.8 5.4 11.4 6.2 9.4 1 18.5-7.7 18.7-8z"/><path fill="#083d9c" d="m629.7 570.1-52-6 1.1-2.3q3-6.1 3.5-14.2v-1.1l1-.2c5.8-1 12.9 1.5 22.2 8.2q7.4 5.4 10.7 6c5.8.7 11.3-1.6 17.5-7.6l2.7 2-5.5 15.1-1 .1zm-1.1-3.4 2.6-7.2c-5.3 3.6-10 5-15.1 4.2a37 37 0 0 1-12.2-6.6c-8-5.6-13.8-8-18.5-7.8q-.6 6.7-2.7 12.1zM485 548.5v-.4c.4-2 1.2-7.5 12.3-6.2 13.1 2.5 12.8 9.3 12.8 9.6z"/><path fill="#083d9c" d="M485.6 550.2q-.8.1-1.7-.8l-3-3.5 3 .7c1.4-5.5 5.5-7.4 13.5-6.3 6.1 1 10 3 12.5 6.3a9 9 0 0 1 1.8 5.3v1.4zm1.5-3.1 21.2 2.6-.8-1.4c-2-2.4-5-3.9-10-4.8-6-.7-9 .3-10.4 3.6m-2.3-.3h.7z"/><path fill="#ce1126" d="m524.1 486-52.2-22.2-.4-94c4.9-11.2 9.5-21 51-8.8-42.3-2.6-22.3 46.4 1.6 49.5z"/><path fill="#630810" d="M471.5 465.3q-1.1-.6-1.2-1.8l-.4-94 .2-.6q4.9-11.2 12.5-13.9 11.9-3.9 40.1 4.5 1.3.4 1.4 1.7 0 1.6-1.5 1.5c-9.5-.6-15.7 1.1-19.8 5.5-3.2 4-4 8.7-2.8 15.3a37 37 0 0 0 8.9 16.7 25 25 0 0 0 15.2 8.7q1.5.2 1.6 1.8v75.9q-.2.7-.8 1l-1.2-.2zm2-2.6 49 20.9v-71.7a29 29 0 0 1-15.8-9.6 41 41 0 0 1-9.7-18.6c-1.6-7.6-.5-13.2 3.3-17.9q4.1-4.6 11.6-6-19.2-4.5-28-1.6-6.3 2.3-10.8 12z"/><path fill="#ce1126" d="M483.5 533.7c-13.2 51.8-57.4 34.8-65.6-7.1l-.7-83.8c.4-1.6 4.4-2 5-4q-.2-1.4-1.6-2.7c-1-1.1-2.1-2.3-2.4-4.3 0-1 1-1.4 2-1.9 1.3-.5 2.2-.9 2.3-2q-.4-2-2.4-3.6-1.8-1.6-2-3.1c.5-2 3-3.2 3.3-5.5 0-1.7-1-2.9-2-3.8-1-1.2-1.4-1.6 2-1.2l8.7 1 3.9.6-1.3.8c-1.8 1-3.7 2.1-3.8 4 .7 2.9 5.2 3.5 6 6.6 0 1.5-1 1.9-2.3 2.4-1.4.5-2.5.9-2.7 2.5.6 3.1 4.5 2.7 5 5.9-.1 1.7-1.2 2.3-2.5 3-1.2.6-2 1-2.1 2.3.5 2.6 3.3 4.5 3.5 4.6 0 .5-1 80.5 1 82.1 7.5 14.4 36.8 24.3 48.7 7.2"/><path fill="#630810" d="M482 532.8q.5-1.2 1.9-.6.7.3 1 .8t.1 1.3a50 50 0 0 1-15 27.4c-6.5 5.2-13.2 6.8-21.3 5.2q-11.2-2.5-20.2-13.3a60 60 0 0 1-12.2-27v-.3l-.3-41.9-.4-41.9q0-1.7 3-3 2-.7 2-1l-1-1.3a10 10 0 0 1-3-5.5q0-2.1 3-3.3l1.3-.7q0-.6-1.8-2.3-2.6-2.9-2.6-4.5v-.2q.3-1.4 2-3.2 1.3-1.4 1.4-2.1 0-.9-1.5-2.5-2-2.2-.9-3.5.8-.7 3.9-.4l6 .8 2.7.3q.4 0 .8.3l3 .3q.7 0 1.2.7t.6 1.2-.7 1q-.3.4-1.4 1-3.1 1.8-3.1 2.6 0 .5 2 1.7c2.5 1.6 3.7 3 4 5q.1 2.4-3.2 3.7-1.7.6-1.8 1.2 0 .4 1.5 1.3 3.5 2 3.5 4.6t-3.3 4.3q-1.4.7-1.3 1 .1 1.5 2.6 3 .9.6 1 1.6a1433 1433 0 0 0-.4 80.4q.7.3 1 1c3.8 7.2 10.6 11.8 21.5 14.3 11.5 2.4 19.2 0 24.4-7.5m-2.1 7.4c-5.8 4.3-13 5.3-22.5 3.3-12-2.8-19.7-8-24-16.4l.3-.2q-2.5-8.5-1.5-81.7-3.2-2.5-3.5-5.5-.1-2.2 2.8-3.7 1.9-1 1.8-1.7T432 433q-3.5-2-3.5-4.6-.1-2.7 3.5-4 1.5-.5 1.4-.8 0-.6-2.2-2-3.5-2.1-3.8-4.6 0-1.8 2-3.8l-2-.2-5.5-.7a7 7 0 0 1 1.2 3.6q0 1.9-2.2 4l-1.2 1.6 1.5 1.6q2.9 2.9 3 5 0 2.1-3 3.3l-1.2.6v-.1q0 1.3 1.8 3.2 2 2.3 2 4 0 2-3.5 3.5l-1.4.6v-.2l.4 41.8.3 41.8c2 10 5.6 18 11.3 25a34 34 0 0 0 18.1 12c7.2 1.5 13.1 0 19-4.6q7.5-6.3 12-18.8"/><path fill="#ce1126" d="M513.2 538.3c11.9 20.8 41.2 19.7 48.8 7.4 1.9-1.1.9-81.2.9-81.8.2-.1 3-1 3.5-3.6q-.1-1.7-2-2.9c-1.1-1-2.2-2-2.3-3.7.5-3.1 4-1.4 4.7-4.5-.2-1.6-1.2-2.4-2.4-3.4-1.3-.9-2.2-1.6-2.2-3 .7-3.2 3.6-2.4 4.2-5.3 0-2.2-1.4-3.7-2.8-5l-.7-.7 3.7.5 8.7 1.4c3.4.5 3 .8 2 1.7-1 .7-2 1.6-2 3.3.3 2.3 2.8 4.4 3.4 6.4 0 1-1 1.7-2.1 2.5s-2.2 1.6-2.4 3q.3 1.6 2.2 2.6t2 2.5c-.2 2-1.2 2.8-2.3 3.7q-1.4.9-1.5 2.2c.5 2 4.5 3.8 5 5.4l-.8 83.5c-8.2 40-52.4 43.7-65.6-12.2"/><path fill="#630810" d="M511.7 538.4q-.4-1.6 1.1-1.7 1.4-.1 1.9 1.2a29 29 0 0 0 24.4 14.9c11 .8 17.7-1.8 21.5-8q.3-.6 1-.7c.5-.4.5-26.7-.3-80.4q0-1 1-1.4 2.5-.8 2.5-2.3 0-.2-1.2-1.4-3-2.5-3-5.1 0-2.8 3.2-3.6 1.4-.4 1.4-1-.1-.6-1.6-1.8-3.2-2.3-3-4.7t3-3.9q1.2-.7 1.2-1.3.1-1.3-2.2-3.6l-.7-.7q-1.2-1.4-.1-2.3.4-.6 1.2-.4l2.9.5h.7l4.2.6 4.5.8q3 .4 3.9 1.4 1.1 1.6-.9 3.2-1.4 1.3-1.5 2.1.1.7 1.4 2.5a10 10 0 0 1 2 4q.1 1.7-2.6 3.7-1.7 1.3-1.8 1.8 0 .2 1.3 1c2.1 1.6 3 2.7 3 4.2q-.3 2.6-3 4.7l-1 1q0 .3 2 1.6 3 2.1 3 3.9l-.4 41.7-.3 41.9v.3q-3 14.9-12.2 23.5A26 26 0 0 1 548 582c-8-.7-14.8-4.4-21.3-11.6a73 73 0 0 1-15-32m5.1 7.5q4.5 14 12 22.5a29 29 0 0 0 19 10.3q10 .7 18.1-6.6a40 40 0 0 0 11.3-22l.3-41.7.4-41.7v.2l-1.4-1q-3.5-2.4-3.5-4.5 0-1.7 2-3.4 1.8-1.4 1.9-2.7v.1l-1.2-.8q-3-2.1-3-4.3 0-2 2.9-4l1.5-1.3q-.2-.6-1.2-1.9-2.2-2.8-2.2-4.6a5 5 0 0 1 1.2-3.2l-4.2-.7-4-.7q1.4 2.1 1.3 4-.2 2.2-2.7 3.6-1.4.7-1.5 1.6 0 .4 1.3 1.5 3.2 2.3 3.2 4.8 0 2.7-3.3 3.6-1.4.4-1.3 1t1.7 2.2q2.6 2.4 2.6 4.5-.3 2.9-3.5 4.4 1 73.7-1.5 81.4l.4.2c-4.4 7.2-12 10.2-24.1 9.4a34 34 0 0 1-22.5-10.2M470 535.2l-17.9-2.7a47 47 0 0 1 12-8.3l17 2.2c-2.9 5.3-6.6 7-11 8.8"/><path fill="#630810" d="m471 537.5-1-2 .1 2.1-.2-.6v.6l-22.6-3.4 2.9-3.4q4.3-4.9 12.6-8.7l.5-.3 21.5 2.8-1.7 3.2a23 23 0 0 1-12 9.7m-1.8-4.7q4.6-2 7.3-4.6l-12-1.5a45 45 0 0 0-7.3 4.3zm56 11a30 30 0 0 1-11.2-12.2l17.2 3s7.8 6.1 12 11.9z"/><path fill="#630810" d="M524.2 545.7q-8.8-6.3-12.1-13.4l-1.7-3.8 21.5 3.9.5.3q8.3 6.4 12.6 12.6l2.9 4.2-22.6-3.4v-.4l-.1.4v-2.2zm1.7-4.2 12 1.8q-3-3-7.3-6.5l-12-2.1q2.7 3.4 7.3 6.8m-87-30.2 117.9 18.3q2.3.3 2.3 2.7 0 1.1-.6 1.7t-1.7.3l-118-18.3q-2.2-.3-2.3-2.7 0-1.2.6-1.6.7-.6 1.7-.4m7.4-26.6 14 21q1.4 2.1-.5 3.3-1.7 1-3.2-1l-14-21q-1.2-2 .5-3.2 1.9-1.1 3.2 1"/><path fill="#630810" d="m442.7 503 15.1-16.3c1-1 2-1 3.2.2q1.8 1.8.3 3.4l-15.1 16.3q-1.5 1.5-3.2-.2-1.8-1.8-.3-3.4"/><path fill="#630810" d="m454.7 486.2-.4 11.7q0 1.2-.6 1.6t-1.8.3q-2.3-.5-2.2-2.8l.4-11.6q0-1.1.6-1.7.7-.4 1.8-.2 2.3.4 2.2 2.7m13.9 1.9 13.9 21q1.4 2.1-.4 3.3c-1.4.7-2.2.4-3.3-1l-13.9-21c-.9-1.6-.8-2.4.5-3.3q1.8-1 3.2 1"/><path fill="#630810" d="m465 506.4 15-16.4q1.5-1.6 3.2.2t.3 3.4l-15.1 16.2q-1.5 1.5-3.2-.2-1.8-1.8-.3-3.3"/><path fill="#630810" d="m477 489.6-.4 11.6q0 1.2-.6 1.7t-1.8.2q-2.2-.4-2.2-2.7l.4-11.7q0-1.1.6-1.6t1.8-.3q2.3.5 2.2 2.8m14.3 2 14 21q1.3 2.1-.5 3.3c-1.4.7-2.2.4-3.3-1l-13.9-21.1q-1.4-2.1.5-3.2t3.2 1"/><path fill="#630810" d="m487.7 509.9 15.1-16.3q1.5-1.6 3.2.2t.3 3.4l-15.1 16.2c-1 1-2 1-3.2-.2q-1.8-1.8-.3-3.3"/><path fill="#630810" d="m499.7 493.1-.4 11.6q0 1.2-.6 1.7t-1.8.2q-2.2-.4-2.2-2.7l.4-11.7q0-1.1.6-1.6t1.8-.2q2.3.3 2.2 2.7m15 2 14 21.2q1.4 2-.4 3.2-1.8 1-3.2-1l-14-21c-.9-1.6-.8-2.4.5-3.3q1.8-1 3.2 1"/><path fill="#630810" d="m511.2 513.5 15.1-16.2q1.5-1.6 3.3.2 1.7 1.7.2 3.3L514.7 517c-1 1-2 1-3.2-.2q-1.8-1.8-.3-3.3"/><path fill="#630810" d="m523.2 496.7-.4 11.7q0 1.2-.6 1.6t-1.8.3q-2.1-.5-2.2-2.8l.4-11.6q0-1.1.7-1.7.5-.4 1.7-.2 2.3.4 2.2 2.7m14.3 2 14 21q1.3 2-.5 3.2t-3.2-1l-14-21q-1.4-2 .5-3.2 1.8-1.1 3.2 1"/><path fill="#630810" d="m533.9 517 15.1-16.3q1.5-1.6 3.3.2 1.7 1.7.3 3.3l-15.2 16.3c-1 1-2 1-3.2-.2q-1.8-1.8-.3-3.3"/><path fill="#630810" d="m546 500.2-.5 11.6q0 1.2-.6 1.7t-1.8.2q-2.1-.5-2.2-2.7l.4-11.7q0-1.1.7-1.6t1.7-.3q2.3.5 2.2 2.8"/><path fill="#1a1a1a" d="M8 195.3c170.8-85.3 341-54.5 513.3-28C676.5 191 833.4 211.8 992 132.7v672c-170.8 85.3-341 54.5-513.3 28C323.5 809 166.6 788.1 8 867.2zm31.3 19.3v604.5c306.5-128.2 611.1 96 921.5-33.7V180.9C654.2 309 349.5 84.9 39.3 214.6" opacity=".2"/></svg>