<svg xmlns="http://www.w3.org/2000/svg" viewBox="0 0 1000 1000"><path fill="#ce1126" d="M8 195c171-85 341-54 513-28 155 24 312 45 471-34v672c-171 85-341 54-513 28-155-24-312-45-471 34z"/><path fill="#fff" d="M8 363c171-85 341-54 513-28 155 24 312 45 471-34v336c-171 85-341 54-513 28-155-24-312-45-471 34z"/><path fill="#ff9c10" d="m463 479-24-4v-10zm-24-19v-16q-1 1-3-3c1-4 8 3 16 12l11 10v13zm-78 45-1-34 50 8v32zm0-44q2-17 8-33l41 22 1 22zm12-41q8-16 18-28l23 23-3 5 2 3 2 3-4 5c0 2 4 5 4 5l-6 6zm267 88 1 10-4 25-53-6v-31zm-1-9h-54l-1-23 46-14v1zm-32-78 19 31-41 17-4-8q3-2 2-7l-1-1q-3-1-2-3h1q3-2 2-6l-3-6zm-75 70 23-7v9zm0-5v-11l4-3 22-16-2 6v16zM399 384q11-11 24-18l40 68v24l-23-26q-1 1-3-3c0-3 3-1 3-5s-4-4-4-7 2-2 3-6q-1-4-8-4l-2-1q-10-2-12 1zm64-31 4 8c-5 3-5 62-5 63l-29-63q15-6 30-8m94 22 8 5-33 55v-27q2-3-1-4l-11-2 12-40 1 1 8 4zm16 11q15 12 27 26l-14 13-3 3q-2 4-5 1l-9-1-5-1q-7-2-6 5 4 5 0 8-2 1 0 4l2 3-28 23v-25z"/><path fill="#083d9c" d="M467 622c15 2 19 14 29 17q7 1 14-4 7-4 16-4c13 2 28 14 28 15l-29 5a138 138 0 0 1-47-6q-19-6-36-16 8-7 24-7m1-2q9 1 19 10l10 7 13-3q11-6 17-4 13 1 29 14l2 2q-27 8-58 4-32-5-59-22 15-9 26-8m0 3q-10 0-22 6a164 164 0 0 0 70 21h7l29-5q-13-10-24-12-6 0-15 4-10 5-16 3-5-1-11-7-9-9-17-9zm-53-18-7-7c7-2 26-7 32-6q5 1 13 6 9 6 17 8c10 1 17-6 31-4q8 2 14 6 6 5 17 7 9 0 11-3c3-2 6-4 17-2 14 3 26 14 31 19l-3 3zm178 23-3 2-7-6q-12-10-23-12-10-2-16 2-5 3-12 3-8-1-18-7-7-6-13-7l-17 3-14 2-18-9-12-6q-7 0-31 7l-2-3q26-7 33-7l14 7q11 7 16 7 4 1 12-2 12-3 19-2 6 1 15 7t16 6 10-2q7-4 18-3 12 3 25 13zm-7 5-169-26-4-4 177 27zm-193-53-5-8 3-1q10-7 20-7c9 2 18 14 28 17q7 1 13-4 7-4 16-4c13 2 21 15 31 16 11 2 22-7 32-6q7 2 16 8 7 6 14 8c9 0 17-9 28-8 11 2 21 11 25 17l-4 4zm222 27-2 2-6-7q-9-7-18-10-5 0-15 5-9 4-13 3-5 0-15-7-10-8-15-8-4-2-15 3-11 4-17 3-5-1-14-8-10-8-17-8-6-2-15 4-9 5-14 3-4-1-15-9-9-6-13-7-6-2-19 6l-3 2-2-3 3-2q15-7 21-7 5 1 15 9 9 7 13 8 5 2 12-3 10-5 17-5 7 1 19 10l12 7 16-3q10-4 16-4 6 2 16 9t14 7l12-3q10-5 16-5a44 44 0 0 1 26 18m-6 7c-71-9-142-23-214-32l-3-3 219 32zm-135-45s10-14 26-12c14 1 25 19 25 20zm2 2h-2l-1-2v-1l2-2 5-5q9-7 20-6 9 1 19 11l6 7q3 5 1 6zm1-3 45 7-5-7q-8-9-17-10t-18 6zm152 15-3 7-59-8s8-4 11-8c5 3 4 5 12 7q7 0 14-4 6-4 13-3 6 2 12 9m1-2-1 3q-7-8-13-8-3-1-11 3-10 5-15 3a19 19 0 0 1-11-6l-7 5 55 7-2 3-64-8 5-2q9-5 11-8v-2l2 1 3 3 8 4 13-3q9-4 14-4 5 1 13 9m-252-26-5-11 9-3q7 1 13 6 7 5 13 7c9 0 8-2 13-4 2 5 11 12 11 12zm1 2-2-4 50 7-7-8-1 1q-4 3-10 2-5 0-15-7-7-5-12-6l-8 3-1-3 9-3q5 0 14 7l12 6 9-1 3-3h1l1 1q3 5 11 12l5 3zm-10-25-4-13q7 8 16 9 6 1 12-3 9-6 21-3l3 16zm1 2-5-18q9 10 16 11 4 0 11-4 13-6 22-2h1v2l4 15 1 2zm-1-4 46 6-3-13q-7-1-18 3l-12 4q-8 0-16-8zm263 38-50-5 4-15q11-1 21 8 5 5 11 6c10 1 19-8 19-8zm0 2-52-6 1-2q3-6 3-14v-1l1-1q9-1 22 9l11 5q8 2 18-7l2 2zm-1-3 2-8q-8 6-15 5l-12-7q-12-9-19-8l-2 12zm-144-19c0-2 1-7 12-6 14 2 13 9 13 10zm1 2-2-1-3-3 3 1q1-9 13-7 9 1 13 7l2 5v1zm1-3 21 3-1-2q-1-3-10-4-7-1-10 3m-2 0"/><path fill="#ce1126" d="m524 486-52-22v-94c4-11 9-21 51-9-43-3-23 46 1 49z"/><path fill="#630810" d="m472 465-2-1v-95q4-11 13-14 12-4 40 4l1 2-1 2q-14-1-20 5-4 6-3 15 2 10 9 17a25 25 0 0 0 15 9l2 2v76l-1 1-1-1zm1-2 50 21v-72q-9-1-16-10-7-7-10-18-2-11 3-18 5-4 12-6-19-5-28-2-6 3-11 12z"/><path fill="#ce1126" d="M484 534c-14 51-58 34-66-7l-1-84 5-4-1-3-3-4 2-2 2-2-2-4-2-3 3-5-2-4q-2-2 2-1l9 1h4l-1 1q-4 1-4 4l6 7-2 2q-3 1-3 3c1 3 4 2 5 5q0 3-3 4l-2 2 4 4c0 1-1 81 1 83 7 14 37 24 49 7"/><path fill="#630810" d="m482 533 2-1 1 1v1q-4 19-15 28-9 7-21 5-11-3-21-13a59 59 0 0 1-12-28v-83q0-3 3-3l2-1-1-2q-3-3-3-5-1-3 3-4h1l-2-3-3-4 2-4 2-2-2-2v-4h3l6 1h4l3 1h1l1 2-1 1-1 1-4 2 2 2q4 3 4 5 2 3-3 4l-1 1 1 1q3 2 3 5t-3 4l-1 1 2 3 1 2 1 81q6 11 22 14 17 4 24-7m-2 7q-9 7-23 4-17-4-24-17h1q-3-9-2-82-3-3-3-5 0-3 3-4l1-2-1-1-4-5q0-2 4-4h1l-2-2-4-5 2-4h-2l-5-1 1 4-2 4-1 2 1 1 3 5q0 3-3 3l-1 1 2 3 2 4q0 2-4 4h-1v84q3 15 12 25 8 9 18 12 10 2 19-5 8-6 12-19"/><path fill="#ce1126" d="M513 538c12 21 41 20 49 8 2-1 1-81 1-82l3-4q1-1-2-3l-2-3c1-3 4-2 5-5l-3-3-2-3 4-5-2-6h-1 4l8 2q5 0 2 1l-2 4 4 6-2 3q-3 0-3 3l2 2 2 3q0 2-2 3l-1 3 5 5-1 84c-8 39-53 43-66-13"/><path fill="#630810" d="M512 538q-1-1 1-1l2 1q8 14 24 15t22-8l1-1v-82q3 0 3-2l-1-1-3-6 3-3 1-1-1-2q-4-3-3-5l3-3 1-2-2-3-1-1v-2l1-1 3 1h5l4 1 4 2q2 2-1 3l-1 2 1 2 2 4-2 4-2 2 1 1 3 4q0 3-3 5l-1 1 2 1 3 4v42l-1 42q-3 15-12 24-8 7-20 7-12-1-21-12-10-11-15-32m5 8q4 14 12 22 9 10 19 11 10 0 18-7 9-7 11-22l1-42v-41l-1-1q-4-3-4-5l2-3 2-3h-1q-3-2-3-5l3-4 1-1-1-2-2-5 1-3h-4l-4-1 1 4-3 3-1 2 1 2 3 4q0 3-3 4l-1 1 1 2q3 3 3 5 0 3-4 4 2 74-1 81v1q-6 11-24 9-13-1-22-10m-47-11-18-2c4-5 12-9 12-9l17 2q-5 8-11 9m1 2-1-2zv-1zl-23-4 3-3 13-9 22 3-2 3q-3 6-12 9m-2-4 8-5-12-1-8 4zm55 12q-6-4-11-12l17 3 12 11zm-1 2q-9-7-12-14l-2-3 22 3v1q9 6 13 12l3 5-23-4v-2zm2-4 12 1-7-6-12-2zm-87-31 118 19 2 2-1 2h-1l-118-18q-2 0-2-3v-1zm7-26 14 21v3q-2 1-3-1l-14-21v-3q2-2 3 1m-3 18 15-16h3v3l-15 17q-2 2-3-1zm12-17-1 12v2h-2q-3-1-2-3v-12l1-1 1-1zm14 2 14 21-1 3q-1 2-3-1l-14-21v-3q3-1 4 1m-4 18 15-16h3q3 3 1 4l-16 16h-3zm12-16v11l-1 2h-2q-2 0-2-3v-11l1-2h2q2 0 2 3m14 2 14 21v3q-2 1-3-1l-14-21v-3q2-2 3 1m-3 18 15-16h3v3l-15 16h-3zm12-17-1 12v1l-2 1q-3-1-2-3v-12l1-1 1-1q3 1 3 3m15 2 14 21q1 3-1 3h-3l-14-22q-2-2 1-3zm-4 18 15-16h4v4l-15 16h-4zm12-16v11l-1 2h-2l-2-2 1-12v-2h2q3 0 2 3m14 2 14 21v3q-1 1-3-1l-14-21v-3q2-2 3 1m-3 18 15-16h3q2 2 1 3l-16 17q-1 1-3-1zm12-17v12l-1 1-2 1q-2-1-2-3v-12l1-1 2-1z"/></svg>