<svg xmlns="http://www.w3.org/2000/svg" viewBox="0 0 1000 1000"><defs><linearGradient id="q" x1="89" x2="89" y1="773" y2="750" gradientTransform="matrix(.99609 -.28426 0 .8062 8 186.04)" gradientUnits="userSpaceOnUse"><stop offset="0" stop-color="#4a0000"/><stop offset="1" stop-color="#ffcf00"/></linearGradient><linearGradient id="r" x1="121" x2="120" y1="556" y2="563" gradientTransform="matrix(.7395 -.21079 0 1.08595 8 186.011)" gradientUnits="userSpaceOnUse"><stop offset="0"/><stop offset="1" stop-color="#00f"/></linearGradient><linearGradient id="m" x1="32" x2="42" y1="690" y2="690" gradientTransform="matrix(.9646 -.39394 0 .83251 8 193.629)" gradientUnits="userSpaceOnUse"><stop offset="0"/><stop offset="1" stop-color="#00f"/></linearGradient><linearGradient id="n" x1="38" x2="48" y1="548" y2="548" gradientTransform="matrix(.74962 -.31318 0 1.07126 8 193.947)" gradientUnits="userSpaceOnUse"><stop offset="0"/><stop offset="1" stop-color="#00f"/></linearGradient><linearGradient id="o" x1="51" x2="61" y1="632" y2="632" gradientTransform="matrix(.88635 -.33125 0 .90605 8 192.142)" gradientUnits="userSpaceOnUse"><stop offset="0"/><stop offset="1" stop-color="#00f"/></linearGradient><linearGradient id="p" x1="83" x2="91" y1="483" y2="483" gradientTransform="matrix(.6724 -.23786 0 1.19434 8 191.058)" gradientUnits="userSpaceOnUse"><stop offset="0"/><stop offset="1" stop-color="#00f"/></linearGradient><linearGradient id="i" x1="77" x2="71" y1="656" y2="652" gradientTransform="matrix(.83827 -.2895 0 .95808 8 190.553)" gradientUnits="userSpaceOnUse"><stop offset="0"/><stop offset="1" stop-color="#00f"/></linearGradient><linearGradient id="k" x1="54" x2="48" y1="771" y2="767" gradientTransform="matrix(.97913 -.36612 0 .82022 8 192.152)" gradientUnits="userSpaceOnUse"><stop offset="0"/><stop offset="1" stop-color="#00f"/></linearGradient><linearGradient id="l" x1="86" x2="81" y1="578" y2="574" gradientTransform="matrix(.7128 -.2503 0 1.12675 8 190.905)" gradientUnits="userSpaceOnUse"><stop offset="0"/><stop offset="1" stop-color="#00f"/></linearGradient><linearGradient id="d" x1="159" x2="141" y1="754" y2="748" gradientTransform="matrix(.96141 -.16591 0 .8353 8 172.986)" gradientUnits="userSpaceOnUse"><stop offset="0"/><stop offset="1" stop-color="#00f"/></linearGradient><linearGradient id="a" x1="206" x2="202" y1="574" y2="573" gradientTransform="matrix(.71645 -.12108 0 1.1209 8 172.467)" gradientUnits="userSpaceOnUse"><stop offset="0"/><stop offset="1" stop-color="#00f"/></linearGradient><linearGradient id="g" x1="268" x2="266" y1="635" y2="630" gradientTransform="matrix(.78251 -.04823 0 1.02624 8 153.51)" gradientUnits="userSpaceOnUse"><stop offset="0"/><stop offset="1" stop-color="#00f"/></linearGradient><linearGradient id="h" x1="222" x2="220" y1="765" y2="760" gradientTransform="matrix(.9572 -.05534 0 .83904 8 152.706)" gradientUnits="userSpaceOnUse"><stop offset="0"/><stop offset="1" stop-color="#00f"/></linearGradient><linearGradient id="f" x1="353" x2="347" y1="501" y2="499" gradientTransform="matrix(.62198 -.0306 0 1.2911 8 150.859)" gradientUnits="userSpaceOnUse"><stop offset="0"/><stop offset="1" stop-color="#00f"/></linearGradient><linearGradient id="b" x1="218" x2="213" y1="498" y2="497" gradientTransform="matrix(.62507 -.11926 0 1.28477 8 175.526)" gradientUnits="userSpaceOnUse"><stop offset="0"/><stop offset="1" stop-color="#00f"/></linearGradient><linearGradient id="c" x1="168" x2="162" y1="645" y2="642" gradientTransform="matrix(.81222 -.15611 0 .9887 8 175.715)" gradientUnits="userSpaceOnUse"><stop offset="0"/><stop offset="1" stop-color="#00f"/></linearGradient><linearGradient id="e" x1="342" x2="338" y1="551" y2="550" gradientTransform="matrix(.68608 -.01786 0 1.17053 8 145.637)" gradientUnits="userSpaceOnUse"><stop offset="0"/><stop offset="1" stop-color="#00f"/></linearGradient><linearGradient id="j" x1="69" x2="62" y1="602" y2="598" gradientTransform="matrix(.74962 -.28228 0 1.07126 8 192.283)" gradientUnits="userSpaceOnUse"><stop offset="0"/><stop offset="1" stop-color="#00f"/></linearGradient><linearGradient id="D" x1="77" x2="71" y1="557" y2="554" gradientTransform="matrix(.83827 -.2895 0 .95808 8 190.553)" gradientUnits="userSpaceOnUse"><stop offset="0"/><stop offset="1" stop-color="#00f"/></linearGradient><linearGradient id="w" x1="159" x2="141" y1="641" y2="635" gradientTransform="matrix(.96141 -.16591 0 .8353 8 172.986)" gradientUnits="userSpaceOnUse"><stop offset="0"/><stop offset="1" stop-color="#00f"/></linearGradient><linearGradient id="s" x1="206" x2="202" y1="490" y2="489" gradientTransform="matrix(.71645 -.12108 0 1.1209 8 172.467)" gradientUnits="userSpaceOnUse"><stop offset="0"/><stop offset="1" stop-color="#00f"/></linearGradient><linearGradient id="B" x1="268" x2="266" y1="542" y2="537" gradientTransform="matrix(.78251 -.04823 0 1.02624 8 153.51)" gradientUnits="userSpaceOnUse"><stop offset="0"/><stop offset="1" stop-color="#00f"/></linearGradient><linearGradient id="C" x1="222" x2="220" y1="652" y2="647" gradientTransform="matrix(.9572 -.05534 0 .83904 8 152.706)" gradientUnits="userSpaceOnUse"><stop offset="0"/><stop offset="1" stop-color="#00f"/></linearGradient><linearGradient id="A" x1="353" x2="347" y1="428" y2="425" gradientTransform="matrix(.62198 -.0306 0 1.2911 8 150.859)" gradientUnits="userSpaceOnUse"><stop offset="0"/><stop offset="1" stop-color="#00f"/></linearGradient><linearGradient id="u" x1="218" x2="213" y1="424" y2="423" gradientTransform="matrix(.62507 -.11926 0 1.28477 8 175.526)" gradientUnits="userSpaceOnUse"><stop offset="0"/><stop offset="1" stop-color="#00f"/></linearGradient><linearGradient id="v" x1="168" x2="162" y1="549" y2="546" gradientTransform="matrix(.81222 -.15611 0 .9887 8 175.715)" gradientUnits="userSpaceOnUse"><stop offset="0"/><stop offset="1" stop-color="#00f"/></linearGradient><linearGradient id="z" x1="342" x2="338" y1="470" y2="469" gradientTransform="matrix(.68608 -.01786 0 1.17053 8 145.637)" gradientUnits="userSpaceOnUse"><stop offset="0"/><stop offset="1" stop-color="#00f"/></linearGradient><linearGradient id="E" x1="69" x2="62" y1="514" y2="510" gradientTransform="matrix(.74962 -.28228 0 1.07126 8 192.283)" gradientUnits="userSpaceOnUse"><stop offset="0"/><stop offset="1" stop-color="#00f"/></linearGradient><linearGradient id="F" x1="54" x2="48" y1="656" y2="652" gradientTransform="matrix(.97913 -.36612 0 .82022 8 192.152)" gradientUnits="userSpaceOnUse"><stop offset="0"/><stop offset="1" stop-color="#00f"/></linearGradient><linearGradient id="G" x1="86" x2="81" y1="494" y2="490" gradientTransform="matrix(.7128 -.2503 0 1.12675 8 190.905)" gradientUnits="userSpaceOnUse"><stop offset="0"/><stop offset="1" stop-color="#00f"/></linearGradient><linearGradient id="H" x1="32" x2="42" y1="577" y2="577" gradientTransform="matrix(.9646 -.39394 0 .83251 8 193.629)" gradientUnits="userSpaceOnUse"><stop offset="0"/><stop offset="1" stop-color="#00f"/></linearGradient><linearGradient id="I" x1="38" x2="48" y1="459" y2="459" gradientTransform="matrix(.74962 -.31318 0 1.07126 8 193.947)" gradientUnits="userSpaceOnUse"><stop offset="0"/><stop offset="1" stop-color="#00f"/></linearGradient><linearGradient id="J" x1="51" x2="61" y1="527" y2="527" gradientTransform="matrix(.88635 -.33125 0 .90605 8 192.142)" gradientUnits="userSpaceOnUse"><stop offset="0"/><stop offset="1" stop-color="#00f"/></linearGradient><linearGradient id="K" x1="83" x2="91" y1="404" y2="404" gradientTransform="matrix(.6724 -.23786 0 1.19434 8 191.058)" gradientUnits="userSpaceOnUse"><stop offset="0"/><stop offset="1" stop-color="#00f"/></linearGradient><linearGradient id="L" x1="121" x2="120" y1="469" y2="475" gradientTransform="matrix(.7395 -.21079 0 1.08595 8 186.011)" gradientUnits="userSpaceOnUse"><stop offset="0"/><stop offset="1" stop-color="#00f"/></linearGradient></defs><path fill="#fff" d="M8 419c89-44 177-57 268-56v224c-88-1-177 11-268 56z"/><path d="m269 477-2 3-1 4v8q4 3 6 0 2-4 0-9-3-4-1-7 0-3-2 1m6 16-2 2c-3 4 3 7 8 5 5-3 5-3 8-2h1l-7-4c-5-2-5-2-8-1m-19 1q-4 3-7 1v1l3 2 5 2h7q6-6-4-7zm12 6v3q-1 15-11 26l-3 3h9q1-2 1 1 1 5 4 6l2 1q4-2 4-6 0-3 1-2h5l4 1-2-3-7-10-4-14v-6q-1-2-3 0m-171-2-2 4-1 4q-3 6 0 8 3 3 6-2 2-5-1-8-2-3-1-7zm6 15-3 2c-2 5 4 7 9 3l7-4h2q0-2-7-2c-6-1-6-1-8 1m-19 7-7 3q-2 0 0 1l3 1h4q5 1 8-2 6-7-4-6-3 0-4 3m12 2-1 3q0 15-10 29l-3 4 9-3 1 1 3 5h3l4-7 1-2 5-1 4-1-2-2-7-8q-4-6-4-13l-1-6q0-2-2 1m86-41-2 4-1 4v8q4 3 6-1 3-4-1-9v-7q0-2-2 1m6 16-2 2c-3 4 3 7 8 4l7-3h2q-1-2-7-3-6-3-8 0m-19 3q-4 3-7 2v2l3 1 5 1q4 1 7-1 6-7-4-7zm12 4v4q-1 14-11 27l-3 4 9-2 1 1q1 5 4 6h2q3-2 4-6 0-3 1-2h5l4-1-2-2-7-10-4-13-1-6zM13 530l-2 4-1 5v7q4 3 6-3 2-5 0-8-3-3-1-7zm6 13-2 3c-3 5 3 6 8 2l8-6q3 0 1-1l-7-1zm249-211-2 3-1 4v8q3 3 6 0 2-4-1-9v-7q0-2-2 1m6 16-2 2c-3 4 3 7 8 5q6-4 7-2h2l-7-4q-6-3-8-1m-19 1q-4 3-7 1v1l3 2 4 2h8q5-6-4-7zm12 6-1 3q0 15-10 26l-3 3h9q1-2 1 1 1 5 4 6l2 1 4-6q0-3 1-2h5l4 1-2-3-7-10-4-14-1-6q0-2-2 0m-172-1-1 3-1 5q-3 5 0 8t6-2q2-5-1-9-3-3-1-7zm7 14-3 3q-1 7 8 3 6-5 8-4l2-1q-1-2-7-2zm-20 7q-3 4-6 3-3 0-1 2l4 1h4q5 0 8-3 6-7-4-6zm13 2-1 4q0 14-10 28l-3 5 8-3q1-2 2 1t3 5l3-1q3-3 3-7l2-2 5-1 4-1-2-2-8-8q-3-5-3-13l-1-5q-2-2-2 0m86-41-2 4-1 4v8q3 3 6-1 2-4-1-9v-7q0-2-2 1m6 16-2 2c-3 4 3 7 8 4q6-4 7-2l2-1-7-3zm-19 4q-4 3-7 2v1l3 1 4 1q6 2 8-1 6-6-4-7zm12 4-1 3q0 14-10 27l-3 4 9-2 1 2 4 5h2q3-1 4-6 0-3 1-2h9l-2-3q-6-6-7-10-4-5-4-13l-1-6q0-2-2 1M12 386q2-5 2-2v6q3 4 1 9l-3 3H9l-1-3 1-5 1-4zm6 13-2 3c-3 5 3 6 8 1q6-6 7-5 3 0 2-1l-7-1q-6 1-8 3m-6 10-1 4-3 15v16q1 4 4 4 1 2 2-1l4-7 1-3 5-1 4-2-2-2q-6-3-7-7-3-4-4-12l-1-5q0-2-2 1m214 143-2 4-1 4v7q4 5 6 0t0-9-1-6q0-2-2 0m6 16-2 2c-3 4 3 7 8 5 5-3 5-3 8-2h1q0-2-7-4c-5-2-5-2-8-1m-19 3q-4 2-7 1v1l3 2 5 1h7q5-6-4-7zm12 5v3q-1 14-11 26l-3 4 9-1q1-2 1 1 1 5 4 6h2q3-1 4-6l1-2 5 1h4l-2-3-7-10-4-14v-5q-2-3-3 0M54 588l-2 4-1 4q-2 5 0 8 3 3 6-3 2-5-1-8l-1-7zm6 14-3 2c-2 5 4 6 9 3q6-6 7-5l2-1-7-1c-6 0-6 0-8 2m-19 8q-4 4-7 4-2 0 0 2h7q5 0 8-3 6-8-4-6zm12 1-1 4q0 13-10 30l-3 4 9-4q1-1 1 1l3 5 3-1 4-7 1-3 5-1 4-1-2-2q-6-5-7-8-4-5-4-12l-1-6zm86-48-2 3-1 5v7q4 4 6-1t0-8-1-7q0-2-2 1m6 15-2 2c-3 5 3 7 8 4 5-4 5-4 8-3q3 0 1-1l-7-3q-6-1-8 1m-19 5-7 3v1l3 1 5 1q4 1 7-2 5-7-4-6zm12 3v4q-1 13-11 28l-3 3c1 1 8-1 9-2l1 2 4 5h2q3-3 4-7l1-2 5-1h4l-2-2-7-9-4-13v-6z"/><path fill="#ca0000" d="M8 643c89-44 177-57 268-56v224c-88-1-177 11-268 56z"/><path fill="#0092c8" d="M276 139c235 5 474 114 716-6v672c-237 118-472 11-716 6z"/><path fill="url(#a)" d="M149 788c0 2 2 7 5 6q-3-6-2-7z"/><path fill="#650000" d="m149 788 4-2v1l1 7 1 1h-1q-3 0-4-2-2-3-1-5m1 1 1 3 2 2-1-6z"/><path fill="url(#b)" d="M141 784c-1 1-4 7 1 10l2-8z"/><path fill="#650000" d="m141 783 1 1 3 2h-1l-2 8v1l-1-1q-3-1-2-6 0-4 2-5m0 1-1 4q-1 4 1 5l2-7z"/><path fill="url(#c)" d="M141 779q-4 1-6 9 5-5 6-4z"/><path fill="#650000" d="m141 779 1 5h-1q-3 0-6 5l-1 1v-2a11 11 0 0 1 5-9zm-1 1-2 2-2 5 6-4z"/><path fill="url(#d)" d="M146 774q-1-4-6 1l5 2z"/><path fill="#650000" d="m147 774-2 4h-1q-1-3-4-3h-1q2-3 5-3t3 2m-1 0-2-1-4 1 5 2z"/><path fill="url(#e)" d="m235 780 1 3 1 4 2-8z"/><path fill="#650000" d="m234 780 5-2-2 9-1 1v-1l-2-3zm1 1 1 2 1 2 2-6z"/><path fill="url(#f)" d="M222 778q-3 2-1 9l3-6z"/><path fill="#650000" d="m222 778 3 3h-1l-3 6v2l-1-1v-7q0-4 2-4zm0 0-1 3-1 5 3-5z"/><path fill="url(#g)" d="M216 777q-2-1-5 7 5-5 6-4z"/><path fill="#650000" d="M217 776v5q-2 0-5 3l-1 1v-1l2-6 2-2zm-1 1-1 1-2 4 4-2z"/><path fill="url(#h)" d="M219 769q-2-2-6 5l6-1z"/><path fill="#650000" d="m220 769-1 5h-6v1-1q0-4 3-5l2-1zm-1 0-1 1q-2 0-3 3l5-1z"/><path fill="url(#i)" d="M69 795q0-5-6-2 4 3 4 5z"/><path fill="#650000" d="m69 795-3 4v-1q0-3-3-5h-1l1-1h5zm0 0-2-2h-3l3 4z"/><path fill="url(#j)" d="M56 810q-3-1-5 11 5-8 6-7z"/><path fill="#650000" d="M57 809v6q-3 1-6 6l-1 1v-1a16 16 0 0 1 5-11zm-1 1h-1l-2 3-2 6 5-5z"/><path fill="url(#k)" d="M57 801q-4-3-8 7l6-2z"/><path fill="#650000" d="m57 800-1 7h-1q-3-2-6 1l-1 1v-1q2-6 5-7l2-1zm-1 1h-2l-4 5 6-1z"/><path fill="url(#l)" d="m62 815 1 3 1 4 3-9z"/><path fill="#650000" d="m62 815 5-2q1 2-3 9v1l-1-1-1-4zm1 0v3l1 2 2-6z"/><path fill="url(#m)" d="M48 751q-1-4-8 3 6 0 6 2z"/><path fill="#650000" d="m49 751-3 6q-2-3-6-2h-1l1-1q2-4 5-5 4 0 4 2m-1 0-3-1-4 4q3-1 5 1z"/><path fill="url(#n)" d="M43 762q-5 0-6 11 6-7 7-6z"/><path fill="#650000" d="m43 761 1 6q-4 1-6 6l-1 2v-2a16 16 0 0 1 4-11zm-1 1-2 2-2 6 5-5z"/><path fill="url(#o)" d="M62 745c0-2-3-5-8-1q5 3 5 5z"/><path fill="#650000" d="m63 745-4 5v-1q-1-4-5-4l-1-1h1q3-3 6-2 3 0 3 3m-1 0-2-2q-3-2-5 1 3 1 4 4z"/><path fill="url(#p)" d="M68 750q2-4-4-6 3 6 2 8z"/><path fill="#650000" d="m69 751-4 1q1-4-1-8 3-1 4 2zm-1-1v-3l-3-3 1 7z"/><path fill="#ffcd00" d="M86 752c-3-4 0-11 3-10q0-4 2-4 1-4 3-3 1-5 5-2 1-6 4-2 3-6 5-1 3-4 4 0 4-2 4 3 5 1 2 7c5-3 6 3 3 8h3l5 1 10-2 6-3 9-3 74-7q4-1 5-5-2-3-5-4l-16 1-7 4-3 3-4 1h-1l-4 1-1-1q-4 2-8 1h-1l-5 1h-1q-7 2-5 0l1-4-12 3-24 4q-4 1-6-5 1-7 7-9l13-5 13-2 10-5q6-1 15 4l-1 1 12-4q9-1 2 1c-1 4-11 10-14 11l-12 1h-11q-9-4-16-3c-4 1-12 4-13 7 1 6 9 5 13 4 3-1 13-3 15-5l12-3h9l6-2q2-3 8-3l32-3q8 1 8 10l-2 6h7q5 2 7 6l-8-3-59 4c12 0 20 8 23 14q4 3 8 1l6-5q3-2 5-1 3 0 2 3-1 1 2 1l7 2-1 1q5 1 3 5v1q4 0 4 4-2 1 0 1 3 4-1 6-3 0-1 1 0 4-3 5-5 1-6-3c0-1 0 4-5 5q-5 1-6-2h-2q-2 1-4-3-1-2 3-4l1-2q-2-1 2-3l7 2q2 0 0-2c-2-2-12-5-15-4-6 4-17 5-19 4-2 0-7 2-10-6-2-8-9-11-13-11-17 1-16 2-5 1q-1 4 1 5 7-3 11-2 3 1 3 5l-1 4q-2 3 1 5l5 2q1 4-2 4-1-2-2 1 0 3-4 5v-1q0-2-2 3l-6 2q2-2 0 0c-2 0-7 2-5-1l-1 2h-5l-4 1-2 1-4-1q1-2-2-1c-4 4-6 1-6-1v-4c1-1-2 0-1-2q1-3 4-4l1-2 3-1 4 5 7-1q3-1 1-4l-6-6q-1-3 1-7c7-6 3-7 1-6l-12 8-20 19q-3 3-5 2-1-3-1 2c0 8-6 12-8 12h-3q-2 6-8 6v-1q-3 3-8 4l1-2q-2 3-6 3l1-1-6 3c-1 0 1-3-1-1q-1 3-6 3l1-2h-3l-1 2-2 3q-4 3-6 1-2-1-1-3c0-2-3 3-5 4-4 2-4-4-3-6q3-2 1-3-2-2 0-5 2-4 6-3t4 0q-1-2 1-4t4-1q3 6 5 4l12-6 13-7c-7 4-9 2-10 3l-3-1q1-2 0 0l-5-1 3-7q-4 2-6 7l-4 2-5 2c-2-1-6-2-4-4h-2l-3-1v-1q-3 0-2-2h-3l-2-3q-2 0-2-2-3-1-2-3l-1-1v-3l-1-3q-3 3-5 2-3-2-2-7l5-6q2 1 1-1 0-3 3-5 3-3 5-2 2 2 2-1l2-3h4v4q-1 2 2-1h4q1 3-1 6l-2 6 5 5 3 1 4-2q7-3 1-1 2-3 5-4 0-4 2-6"/><path fill="#650000" d="M86 752q-3-3-1-7l2-3h1l1-3 1-2h1l1-2 2-1 2-2 2-1 2-2h3l3-2q2-1 2 2l3-2 2 2h2l2 4q2-1 3 1v5l1-1 2 3-1 7h2l6 1 9-3 5-2 1-1 4-1 5-2 17-3 1-2 1-2v-1l-3 1-9 3-12 2-12 2-4-1-2-5q0-6 7-10l17-5 9-1 10-5h7q6 0 8 4l1-1 10-3h4l2 1-3 1-7 7 3-1 10-1 22-2q4 0 6 4 3 3 3 7l-2 5 6 1 4 2q3 1 3 4v1l-1-1-7-3-55 4 11 4 8 9q2 3 8 1l6-4q2-3 5-2l3 1-1 3v1l1-1h1q4 0 7 3v1l3 2v3q3 1 3 5v1l2 3q0 4-3 4h-1v-1 4l-3 3-4-1-2-2q-1 4-4 5l-5-1-2-2h-2q-3 0-4-3 0-4 3-4l1-1-1-1v-2q2-2 3-1l3 1 5 1-1-2-7-3h-8l-11 3-9 1q-7 0-9-7-2-5-6-8l-7-2h-5v1l1 4 2-1q8-3 10-1 3 2 2 5v4h-1v2l1 2 4 2 1 1v3l-2 1h-1v1l-1 3-4 3-1 1-3 2h-4l-4 1h-2l-3 1h-6l-2 1-3 1-2-2h-1q-2 3-5 1l-1-3v-4h-2v-2l5-5h1-1v-1l1-1h3q3 1 4 5l5-1h2l2-2-1-2-6-5-1-4 2-4 4-5-1-1h-2l-12 8-15 15-5 5-3 1h-2l-1-1v2q1 6-3 10l-5 4-2-1q-2 6-9 7h-1l-7 2-4 2h-2l-3 1h-1l-1 1v-1l-6 3v-2h-2v1l-1 1-2 3-4 1h-3l-1-3-3 3q-4 2-5-1-1-4 1-6l1-1-2-3 1-4 4-2 4-1 1 1h1q-1-2 2-4l2-2 3 1q1 4 4 4l16-9 3-1h-6l-1-1h-1l-4-1 1-3 1-3-2 2-3 5h-2l-2 2q-3 2-6 1l-3-1-1-1v-1h-1l-2-1h-1v-1l-2-1-1-1h-2l-3-3-1-1-1-1-2-2v-2h-1v-2l1-2v-1l-1-1h-1q-3 3-5 2l-1-3v-5q3-6 5-6v-1q0-3 4-6l3-1h3v-1l3-3 4-1 1 4h1l2-1 2 1v6l-2 4-1 2 3 2 3 3 2 1 1-1 3-1 1-1-1 1v-1l5-5zm1-1-1 2-2 4v1h-1l-3 3 2-1v1l-4 3-2 1h-4l-1-1-3-2-2-2v-4l2-3v-6h-3l-2 2h-1l1-1-1-4-3 1-2 2v2h-4l-3 1q-3 3-3 5v1q2 0 0 0v1h-1l-4 5v4l1 3 3-1 2-1q1-1 2 1v2l-1 1v1l-1 1h1l1 1v2l2 1v1h2v1l2 3h3v1h2l1 1v1l2 1h3l-1 1 1 1 3 1q3 1 4-1l3-1 1-1 3-4 4-3-1 4-1 3h4l1-1v2h3l9-2 1-1v1l-1 1-9 4-4 2-12 7q-3 0-5-5h-2l-2 1-1 4v1h-3l-1-1-3 1-3 2-1 3 1 2 1 1-2 2v4q1 3 3 1l3-3 1-1h1v1l1 3h2l4-1 1-2 1-1v-2h3l1-1h1v1l-1 1 5-2 1-1v1h1l4-2v-1h1v2l4-3 1-1v2l7-3h1l-1 1q7-1 8-6v-1h1l2 1 5-4q3-3 2-8l1-3 1-1v1l2 1 2-2 6-5 21-19 6-4h2l13-1 8 2q4 4 6 9 2 6 8 6h1l8-1q7 0 11-3h8l7 3 2 3-1 1-1-1h-4l-4-1-1 1v1h1v1l-2 2q-2 0-2 3 0 2 3 2h2v1l2 2h4q3-1 4-5h1q0-2 0 0l2 2 4 1 2-2v-5l2 1q2 0 2-3l-1-3h-2v-1h1q0-4-3-4h-1v-1l1-1v-2l-3-2-1 1v-1l1-1-6-2h-3v-1l1-2-2-1-5 2-6 4q-7 2-9-1-2-5-8-9t-14-5v-1l59-4 7 3-2-2-4-2-7-1h-1l1-1 1-2 1-3-2-7-6-3-22 2-10 1-5 2-3 1-4 2-11 1-12 3-14 4h-1l-8 1q-5-1-5-5 0-2 5-5l8-2h8l8 2 11 1 8-1h4l5-3 2-2q6-3 7-6l2-1h-3l-10 3-3 1-1 1h-1v-1l2-1q-3-3-7-3h-7l-10 5-10 1-3 1q-6 0-12 4-7 5-7 9 0 3 2 4l3 1 12-2 12-2 8-3 4-1 1 1v1l-2 3h4l1-1h1v1h2l3-1 2-1v1h3l3-1 2-1v2-1h4l1-1 1 1h1l2-1 3-4 7-3 8-1 8-1 3 2 2 3-2 4-3 1-33 2-50 8-1 1-4 2-11 3-5-1h-3v-1q2-3 1-7l-1-2-2 1-1-1 1-4q-1-2-3-1v-1l-1-3h-1l-1 1-1 1v-1q0-3-2-3l-2 2v2-2l-2-2-3 3-1-1h-1q-2 1-2 3h-1l-1-1h-1l-1 3-1 1-1-1h-1v3h-2v4l-1 1h-2l-1 2q-2 4 1 6m72 3q2 2-4 7l-1 3 1 3 6 5v3q0 2-2 3h-8q0-3-3-4h-3l1 1-1 1h-1l-4 4v1h1l1 2v3l1 2q1 2 4-1l1-1h1v2l2 1 2-1h1l1-1h2l2-1h1v1h1l2-1 2-2h1v1l-1 1h1l3-1 1-1h1v1h3l2-2 1-2v-1h1v2l3-2 1-3v-2h2l1-1v-2l-4-2-2-2v-3l1-1v-1l1-2q0-3-3-4-2-2-9 1l-2 1q-2-1-2-5zm36-19 33-2 3-1 1-3q0-3-4-4l-16 1-7 4-2 2-1 2-2 1-2-1-1 1zm-25-7-6-1-8-2h-7l-7 2-5 4q0 3 4 4l8-1h1zm19 8 4-1h-1zm-15 1h4l-1-1v1zm8-1h3zm-96 34q-2 0-5 5-4 5-2 11h-1q-2-5 2-11 3-6 6-6z"/><path fill="url(#q)" d="M87 762q-1 9 2 12 1 3 6 1l8-5q4-4 4-7h1l-4 7-9 6q-4 2-7-1-3-4-2-13z"/><path fill="#650000" d="M106 767v8q0 6-3 8-5 5-11 5v-1q5 0 11-4l2-8zm-7 7-3 8q-3 6-8 6v-1q4 0 7-5 3-4 3-8zm-52-18q5-1 6 3l1 3-1 1-1-3q-1-4-5-3zm3 18 4-2v1zm1 3 6-3 1 1zm15 9 5-5 1 1zm-3-37-2 7h-1l2-7zm39-13-1 6-2 2-1 2v2l-1 1v-4l2-2 1-1zm5-1q-3 4-2 9v4l-1-1v-3q-1-4 2-10zm-26 32-3 6v6l-1 1v-7zm35-20-2 1q-2 4-5 4h-2v-1h2q3 0 4-4zm-14 0h2l1 1-1 2-1 1-1 2-2 1h-2v-1q-3 0-3-2l1-2 2-1v1l-2 1v1h3v2h2l1-2v-1l2-1v-1zm96-14q1-3 5-6v1zm-6 0 5-5 1 1-5 5zm-8 1 4-3 3-3 1 1-3 3-4 3zm-7 1 2-1 3-2 2-3 1 1-3 3-3 2zm2-7q-6-1-9-6h1q2 3 8 5zm10-10-12 2v-1l12-2zm-72 64 6-8h1l5-4h1v1h-1l-8 8-2 2v2l-1-1zm5-6 2-1zm-9-9 1 7q-1 4-4 6v1-1q-2 0 0 0l3-6-1-6v-1zm8-17q3 1 5 7v2l-1-1h-3v-1h3q-1-5-5-6zm-2 3q4 4 4 7v5q-2 4-6 5h-1q2-5 1-8v-1 8q4-1 5-4l1-5zm-1 13q0 4-4 7v-1q3-2 3-6zm-10-15q0 5-4 6l-3 1-2-4h1l1 3h3q3-2 3-6zm-8 3q0 3-3 5l-4-1-2-2-1-3v-1l-1-2v-1l1 3 1 1v2l3 2 3 1q3-1 2-3z"/><path fill="url(#r)" d="M93 757c3 3 7 0 9 1l-2 10q-5 5-8 3l1-12z"/><path fill="#650000" d="m94 757 5 1h3l-1 7-1 3-4 4-4-1 1-12v-3zm0 2v1l-1 9 3 1 3-3 1-3q2-6 1-7l-2 1zm-37-11v4l-1 1 1 5h-1v-10zm-1 60q1-2 5-2v1q-4 0-5 2zm5 3 4-5 1 1-4 5zm19-4 1-5h1l-1 6zm6-2q2-1 2-5h1l-2 6zm5-1 1-6h1l-1 6zm8-2 1-5h1zm54-19q-2 0-4 4h-1q2-5 6-5zm5-2-3 7-1-1zm5-1-3 7-1-1 3-6zm6-2-3 7-1-1 3-6zm4-2-3 10v-1l1-3zm5 1v4h-1zm-33-2q3 0 4 3h-1l-3-2zm-4 7q1-3 4-3l3 1h-3q-3 0-3 2zm86-27-4 1v-1zm8 3-5 2v-1zm3 6h-3v-1h3zm4 5h-5v-1h5zm-2 6-2-2v-1l3 3zm-20 5 3-4 4-2h1v1h-1l-3 2-3 3zm-2-6 5-1zM88 786l3-6h1zm25-48-2 3-1-1zm1 3-3 1 1-1zm-9 0 4-1q3-1 3 2l-2 2h-6v-2zm0 1v1h5l1-1-2-1zm-7 2q1-2-2-2h-3l1 2 3 1zh-1v1-1 1l-4-1-1-3h1q0-3 3-1 3 0 3 3zm14 6v9l-1 1zm-22 7q-1 2-3 2l1-1zm20-16v2l-1 1-1-1v-2zm-13 0-1 3-1 1v-1zq2 0 0 0m-14 20q-5 3-5 6l-1 7-1 1 1-8z"/><path fill="#600" d="m121 742-1 4-1 1q-1-5 1-6zm-34 3 1 5h-1z"/><path fill="#390000" d="M75 809q-1 4-5 4l1-3h2z"/><path fill="#650000" d="m94 756-3 9-1-1 3-8zm-3-1v9h-1v-9zm13 2q-1 4 2 7l-1 1q-2-3-2-8zm3-2q1 4-2 9h-1q2-5 1-9z"/><path fill="#390000" d="m84 780-1 5h-1q0-2-2-2l1-1 1-1z"/><path fill="#650000" d="M121 748h5l-3 3-2 1v-1l2-1 2-1zm6 31q-4 2-5 1h-1v-1h1q1 1 5-1zm3-4-5 2v-1zm5-4-4 2v-1zm3-3-5 2v-1zm-81-20-1 4v6l-1 1 1-7v-3zm6 1-2 7q-1-4 1-8zm-16 6q5-2 6 3l2 4h-1l-1-3q-2-4-6-3z"/><path fill="url(#s)" d="M149 694q0 5 5 6l-2-8z"/><path fill="#650000" d="m149 693 4-1 1 7 1 1h-1q-3 1-4-2-2-3-1-4zm1 1 1 3q0 3 2 2l-1-6z"/><path fill="url(#u)" d="M141 689c-1 1-4 8 1 10l2-8z"/><path fill="#650000" d="m141 688 1 1 3 2-1 1-2 7v1h-1q-3-2-2-6 0-5 2-5zm0 2-1 4q-1 3 1 5l2-7z"/><path fill="url(#v)" d="M141 685q-4-1-6 9 5-6 6-5z"/><path fill="#650000" d="m141 684 1 5h-1q-3 1-6 5l-1 1v-1a11 11 0 0 1 5-10zm-1 1-2 2-2 5 6-3z"/><path fill="url(#w)" d="M146 679q-1-4-6 1 5 1 5 3z"/><path fill="#650000" d="m147 679-2 5-1-1q-1-2-4-2h-1v-1q2-3 5-3t3 2m-1 0-2-1q-3 0-4 2 3-1 5 2z"/><path fill="url(#z)" d="m235 686 1 3 1 3 2-8q-3-1-4 2"/><path fill="#650000" d="M234 686q4-3 5-1l-2 8-1 1v-1l-2-3zm1 0 1 2 1 3 2-7z"/><path fill="url(#A)" d="M222 683q-3 2-1 10l3-7z"/><path fill="#650000" d="m222 683 3 3h-1l-3 7v1l-1-1v-7q0-3 2-3m0 1-1 3-1 4 3-5z"/><path fill="url(#B)" d="M216 682q-2-1-5 7 5-4 6-3z"/><path fill="#650000" d="M217 682v4q-2 0-5 3l-1 1v-1l2-6 2-1zm-1 0-1 2-2 4 4-3z"/><path fill="url(#C)" d="M219 674q-2-2-6 5l6-1z"/><path fill="#650000" d="m220 674-1 5q-2-2-6 1v-1q0-3 3-5l2-1zm-1 1-1 1-3 3h5z"/><path fill="url(#D)" d="M69 700q0-4-6-2l4 5z"/><path fill="#650000" d="m69 700-3 4v-1q0-3-3-4l-1-1h1q2-3 5-1zm0 0-2-2h-3l3 4z"/><path fill="url(#E)" d="M56 715q-3 0-5 11 5-7 6-6z"/><path fill="#650000" d="M57 715v5l-6 6-1 1v-1a16 16 0 0 1 5-11zm-1 0-1 1-2 2-2 6 5-5z"/><path fill="url(#F)" d="M57 706q-4-3-8 7l6-2z"/><path fill="#650000" d="m57 706-1 6h-1q-3-2-6 1l-1 1v-1l5-7 2-1zm-1 0-2 1-4 5q4-3 6-1z"/><path fill="url(#G)" d="m62 720 1 3 1 4 3-8z"/><path fill="#650000" d="m62 721 5-2q1 1-3 9v1l-1-1-1-3zm1 0v2l1 2 2-6z"/><path fill="url(#H)" d="M48 656q-1-4-8 4l6 1z"/><path fill="#650000" d="m49 656-3 7v-1q-2-2-6-2l-1 1 1-1q2-5 5-5 4-1 4 1m-1 0h-3l-4 3q3 0 5 2z"/><path fill="url(#I)" d="M43 667q-5 1-6 11 6-7 7-6z"/><path fill="#650000" d="m43 667 1 5q-4 2-6 6l-1 2v-1a16 16 0 0 1 4-12zm-1 1-2 2-2 7 5-5z"/><path fill="url(#J)" d="M62 650c0-2-3-5-8-1l5 5z"/><path fill="#650000" d="m63 650-4 6v-1q-1-4-5-5h-1l1-1q3-3 6-2zm-1 0-2-2-5 1q3 1 4 4z"/><path fill="url(#K)" d="M68 656c1-2 0-7-4-7l2 8z"/><path fill="#650000" d="m69 656-4 2v-1q1-4-1-7v-1q3 0 4 2zm-1-1v-3l-3-2 1 6z"/><path fill="#ffcd00" d="M86 657c-3-4 0-11 3-9q0-5 2-5 1-4 3-2 1-5 5-3 1-5 4-2 3-6 5 0 3-5 4 0 4-3 4 3 5-1 2 6c5-3 6 4 3 8l3 1h5l10-2 6-3 9-3 74-7q4 0 5-5l-5-4-16 1-7 4-3 4h-5l-4 1h-1l-8 1h-7q-7 2-5 0l1-4-12 4-24 4q-4 0-6-5 1-8 7-10l13-4 13-2 10-5q6-2 15 3l-1 1 12-4q9-1 2 1c-1 4-11 10-14 11l-12 2-11-1q-9-3-16-2c-4 1-12 3-13 6 1 6 9 5 13 4l15-4q5-3 12-3l9-1 6-2q2-2 8-3l32-3q8 1 8 10l-2 6 7 1q5 1 7 5l-8-3-59 4c12 1 20 9 23 14q4 4 8 1l6-4 5-2q3 1 2 3t2 1q4 0 7 3h-1q5 3 3 5v1q4 0 4 5-2-1 0 0 3 4-1 7h-1q0 4-3 6-5 0-6-3c0-2 0 3-5 5q-5 0-6-3h-2q-2 1-4-2-1-3 3-4 2-1 1-3-2-2 2-2l7 1q2 1 0-2c-2-2-12-4-15-3-6 3-17 4-19 4s-7 1-10-6c-2-8-9-11-13-11-17 1-16 2-5 1q-1 3 1 4l11-2q3 2 3 6l-1 3q-2 3 1 5l5 3q1 2-2 3-1-2-2 1 0 4-4 6v-2l-2 3-6 2q2-2 0 0c-2 1-7 2-5-1l-1 2h-5q-2 2-4 1l-2 1q-3 2-4-1 1-2-2 0c-4 3-6 0-6-1v-4c1-1-2-1-1-3q1-4 4-4l1-1q-1-2 3-1 3 1 4 4 3 2 7-1 3-1 1-4l-6-5q-1-4 1-7c7-7 3-7 1-7l-12 8-20 20q-3 2-5 1-1-1-1 2c0 8-6 12-8 13l-3-1q-2 7-8 7v-1l-8 3 1-2q-2 4-6 4l1-2-6 3-1-1q-1 3-6 3l1-2-1 1h-2l-1 2-2 3q-4 2-6 1-2-2-1-4l-5 4c-4 2-4-4-3-6q3-1 1-3-2-1 0-5 2-3 6-3 4 2 4 0-1-2 1-4t4-1q3 6 5 4l12-6 13-7q-10 5-10 3l-3-1q1-1 0 0-2 1-5-1l3-6q-4 1-6 7-1-1-4 2l-5 1c-2 0-6-2-4-3h-2l-3-2v-1q-3 0-2-1l-3-1-2-3q-2 1-2-1-3-2-2-3l-1-2v-2l-1-3-5 2q-3-3-2-7l5-6q2 0 1-2 0-3 3-5l5-2q2 2 2-1l2-2 4-1v4q-1 3 2-1 2-1 4 1 1 2-1 5l-2 7 5 4q2 2 3 1l4-2q7-3 1-1l5-4q0-4 2-6"/><path fill="#650000" d="M86 657q-3-3-1-7l2-2 1-1 1-3 1-1h1l1-3 2-1v1l2-3h2l2-3h2l1 1q1-2 3-2 2-1 2 1l3-1 2 2 1-1 1 1q2 1 2 3 2-1 3 2v4h1l2 2-1 7h2l6 1 9-2 5-3h1l4-2 5-1 17-4 1-1 1-2v-2l-3 1-9 3-12 2-12 2-4-1-2-4q0-6 7-10l17-5 9-2 10-5h7l8 4h1l10-4h4l2 1-3 2-7 6h3l10-2 22-1q4 0 6 3 3 3 3 7l-2 6h6l4 2 3 4v1h-1l-7-3-55 3q6 1 11 5l8 9q2 3 8 1v-1q2 0 6-4 2-2 5-2l3 2-1 3h2q4-1 7 3l3 2v3q3 1 3 6l2 4q0 3-3 3h-1v4l-3 2h-4l-2-2-4 4h-5l-2-2v-1l-2 1-4-3q0-4 3-5l1-1-1-1v-1l3-2 3 1 5 1-1-2-7-2-8-1-11 4h-9q-7 0-9-6a14 14 0 0 0-13-11h-5v1l1 4 2-1 10-1q3 2 2 6v3l-1 1v2l1 1 4 3h1v3q-1 2-2 1h-1v1l-1 4-4 2-1 1-3 2-4 1v-1l-4 1h-2l-3 1h-2l-2 1-2-1-2 2h-3l-2-2h-1q-2 3-5 1l-1-2v-4h-1l-1-1v-2q2-4 5-4h1l-1-1v-1l1-1h3q3 1 4 5h5l2-1 2-1-1-3-6-5-1-4 2-4 4-5h-1l-1-1-1 1-12 7-15 15-5 5-3 2-2-1h-1v2q1 5-3 9-3 4-5 4h-2q-2 5-9 6h-1l-7 3v-1l-4 2h-2l-4 2h-1v-1q-1 2-6 3v-2l-2 1v1h-1l-2 3-4 2-3-1-1-3-3 3q-4 2-5-1-1-4 1-5l1-1v-1l-2-3 1-3 4-3h5l1 1q-1-2 2-5l2-2 3 1q1 4 4 4l16-8 3-2h-4l-2 1-1-1v-1h-5l1-4 1-3-2 2-3 5v1l-1-1-1 1-2 1q-3 3-6 2l-3-2-1-1v-1h-1l-2-1h-1v-1l-2-1h-1v-1h-2l-3-3-1-1h-1v-1l-2-1v-2l-1-1v-2l1-2v-1l-1-1-1 1-5 1-1-3v-5l5-6v-1q0-2 4-5l3-2h3q0-3 3-4h4l1 3h1l2-1 2 1v6l-2 4-1 2 3 3 3 2 2 1 1-1 3-1 1-1v1h-1v-1l5-4zm1 0-1 1-2 4v1h-1l-3 3h2v1l-4 2-2 1-2 1-2-1h-1l-3-3-2-2v-3l2-4v-5l-1-1-2 1-2 1-1 1v-1l1-1-1-4-3 1-2 2v2h-4l-3 1q-3 3-3 5v2h-1l-4 6v4l1 2 3-1 2-1 2 2v1l-1 1v2l-1 1 1-1 1 1v2l2 1v2h2l2 3h3v1h1l1 1h1v2h5l-1 1 1 1 3 2q3 0 4-2l3-1 1-1 3-4 4-3v1l-1 4-1 2h5v2l2-1h1q4 1 9-2h1v1h-1l-9 5-4 2-12 6q-3 0-5-4l-2-1-2 1-1 4v1l-1 1-2-1h-4l-3 2-1 3 1 2 1 1q1 2-2 3v3q1 3 3 2l3-3 1-1 1-1v1l1 3 2 1 4-2 1-2 1-1v-2h4l1-1v1l-1 1v1l5-3 1-1v2l1-1 4-1v-1h1v1l4-2v-1h1v1q6-1 7-3h1v1h-1q7-1 8-6v-1h1l2 1q3 0 5-3 3-4 2-9l1-3h1v1h2l2-2 6-5 21-19 6-3 2-1 13-1q4 0 8 3t6 8 8 6h9l11-4 8 1 7 3 2 2-1 1h-1l-4-1-4-1-1 1v1l1 1v1l-2 1q-2 0-2 3 0 2 3 3h2l2 2h4q3-1 4-4l1-1v1l2 2h4l2-2v-4h2l2-2-1-3-1-1h-1v-1h1q0-3-3-4h-1v-1h1v-2q-1-2-3-2h-1v-1h1q-2-2-6-2h-3v-2l1-2-2-1-5 2q-3 4-6 4-7 2-9-1-2-5-8-8-6-5-14-5v-1l59-4 7 2-2-2-4-2-7-1h-1 1l1-3 1-3-2-6-6-3-22 1-10 2-5 1-3 1-4 2-11 1-12 3-14 4h-1l-8 1q-5 0-5-4 0-3 5-5l8-3h8l8 3h19l2-1h2l3-2 2-1 2-1 7-7 2-1h-3l-10 4h-3l-1 1h-1v-1l2-1-7-3h-7l-10 5-10 2h-3q-6 1-12 5-7 3-7 9 0 2 2 3l3 1 12-2 12-2 8-3 4-1v1h1v2l-2 3 4-1h4l3-1h5l3-1h2v1h2l2-1h1v-1l1 1h1l2-1 3-3q1-3 7-4l8-1h8l3 1 2 3q0 3-2 4l-3 2-33 2-50 8h-1l-4 2-11 3-5-1h-3v-1q2-3 1-6l-1-2h-3l1-5-3-1-1-3-1-1-1 1-1 1v-1q0-2-2-2l-2 2v1-1q-1-3-2-2-2 0-3 2l-1-1h-1l-2 3h-3l-1 2-1 1-1-1-1 1v2l-1 1h-1v3l-1 1h-2l-1 2q-2 5 1 6zm72 3q2 1-4 6l-1 3 1 3 6 6v3q0 2-2 2l-2 1-6-1q0-3-3-4h-3l1 2-1 1h-1l-4 3v1l1 1 1 1v4l1 2 4-2h2v1l2 1h2l1-1 1-1 1 1h1l2-1 1-1v1h3l2-2v-1l1 1-1 1h4l1-1h1v1l3-1 2-1 1-3v-1h1v2l3-2 1-3v-2h3v-2l-4-3-2-2v-3l1-1v-1l1-1q0-3-3-5-2-1-9 1l-2 1q-2 0-2-5zm36-19 33-2 3-2 1-3q0-3-4-3l-16 1-7 3-2 3-1 1-2 1h-3zm-25-8-6-1-8-2h-7l-7 3-5 3q0 4 4 4h8l1-1zm19 8h4-1v-1zm-15 2 4-1h-1zm8-1 3-1h-1zm-96 33-5 6q-4 6-2 10l-1 1q-2-5 2-12 3-5 6-6z"/><path fill="url(#q)" d="M87 667q-1 9 2 12 1 3 6 1 5-1 8-5 4-3 4-7h1l-4 8q-5 4-9 5-4 3-7-1-3-3-2-13z"/><path fill="#650000" d="M106 672v8q0 7-3 9-5 5-11 5v-1q5 0 11-5l2-8zm-7 8-3 8q-3 5-8 6v-1q4-1 7-6 3-3 3-7zm-52-19q5-1 6 3l1 4h-1l-1-3q-1-4-5-3zm3 18 4-1-4 2zm1 3 6-3 1 1-7 3zm15 9 5-4h1l-6 5zm-3-37-2 7-1 1 2-8zm39-12-1 5q0 2-2 3l-1 1v3h-1v-3l2-2 1-2zm5-2q-3 5-2 9v4h-1v-3q-1-6 2-10zm-26 33-3 5v7l-1 1v-8q1-5 4-6zm35-20h-2q-2 4-5 4h-2l1-1h1q3 0 4-3v-1h3zm-14-1h2l1 2-1 1-1 1-1 2-2 2-2-1v-1q-3 0-3-2l1-2 2-1v1l-2 1v1l2 1h1v2h1l1-1 1-2v-1h2v-2h-2zm96-14 5-5v1q-3 2-4 5zm-6 1 5-6 1 1-5 5zm-8 1 4-4 3-2h1l-3 3zm-7 1 2-1 3-2 2-3h1l-3 3-3 2zm2-8q-6-2-9-5l1-1q2 4 8 5zm10-10-12 2zm-72 65q1-5 6-8l1-1 5-4h1v1l-9 8-2 2v2l-1-1v1zm5-6 2-2zm-9-9 1 7-4 6v-1l3-5-1-7zm8-17q3 0 5 6v2h-4v-1h3v-1q-1-5-5-5zm-2 3 4 6v6q-2 3-6 5h-1v-1q2-5 1-8v8q4-1 5-4l1-5zm-1 12q0 4-4 7v-1q3-2 3-6zm-10-15q0 4-4 7h-3q-2 0-2-3h1l1 2h3q3-2 3-5zm-8 4q0 3-3 4-3 2-4-1l-2-2-1-3-1-2v-1l1 2 1 1v2l3 2q2 3 3 1 3-1 2-3z"/><path fill="url(#L)" d="M93 663q5 2 9 0l-2 10q-5 4-8 3l1-12z"/><path fill="#650000" d="M94 662q1 2 5 1h3q1 1-1 7l-1 3v1l-4 3-4-1 1-11zm0 2v2l-1 9h3l3-3 1-3 1-6h-7m-37-10v4l-1 1 1 5-1 1v-10zm-1 60 5-2v1zm5 4 4-5h1l-4 5zm19-4 1-5 1-1-1 6zm6-2 2-5 1-1-2 6zm5-2 1-5 1-1-1 6zm8-2 1-4 1-1zm54-19q-2 0-4 4h-1q2-5 6-5zm5-2q0 4-3 7h-1q3-4 3-7zm5-1-3 7h-1l3-7zm6-1-3 6h-1l3-6zm4-2-3 9 1-4zm5 0v4h-1zm-33-2 4 3-1 1-3-3zm-4 8q1-3 4-4l3 1-1 1-2-1q-3 0-3 3zm86-27-4 1v-1l5-1zm8 3-5 1v-1l5-1zm3 5h-3v-1zm4 5h-5v-1zm-2 7-2-2v-1q2 0 3 2zm-20 5 3-4q1-3 4-2h1v1h-1l-3 1-3 4zm-2-7 5-1v1l-5 1zM88 691l3-6h1q-1 4-4 6m25-48-2 3h-1zm1 4-3 1 1-1 2-1zm-9 0 4-2q3 0 3 2l-2 3h-6zm0 0v2h5l1-2zm-7 2q1-2-2-2h-3l1 3h4l-1 1v-1 1l-4-1-1-3h1l3-1 3 3zm14 6v10h-1zm-22 8-3 2 1-1zm20-16v2l-1 1-1-1v-2l1-1zm-13-1-1 4-1 1v-1zq2 0 0 0m-14 20q-5 4-5 7l-1 7h-1l1-8q1-3 5-6z"/><path fill="#600" d="m121 647-1 5h-1q-1-4 1-6zm-34 3 1 5h-1l-1-4z"/><path fill="#390000" d="M75 714q-1 5-5 4l1-2 2-1z"/><path fill="#650000" d="m94 662-3 8-1-1 3-7zm-3-2v9l-1 1v-10zm13 3q-1 5 2 6l-1 1q-2-3-2-7zm3-3q1 6-2 10l-1-1q2-3 1-9z"/><path fill="#390000" d="m84 685-1 6-1-1-2-2 1-1h1v-1z"/><path fill="#650000" d="M121 653h5v1l-3 2-2 1v-1l2-1 2-1zm6 31q-4 3-5 1h-1l1-1q1 1 5-1zm3-3q-3 2-5 1-2 0 0 0 0-1 0 0l5-2zm5-4q-3 2-4 1v-1q2 1 3-1h1zm3-3q-4 2-5 1v-1q1 1 4-1h1zm-81-21-1 4v6l-1 1 1-7v-3zm6 1-2 7v1q-1-5 1-8zm-16 6q5 0 6 4l2 3-1 1-1-4q-2-3-6-3z"/><path fill="#ffcf00" d="M659 240q-3 3-3 7 3 5-5 2c-10-3-29-4-41-2-16 2-24 1-43-8q-3-2 1 7c5 8 6 10 16 15l6 3-11 1-13 1q-7 0 4 6c9 4 19 5 39 3a98 98 0 0 1 41 2q0 2-7 8-9 7-13 6h-9q-5-1-4 8v9l-32 26-42 32q-1 5 3 9c2 2 1 3-5 11q-14 18-21 38l-4 10-2-8c-4-13-6-31-6-43 0-11 0-11 7-20 8-11 28-29 40-37l17-8q15-4 13-9 0-7-8-7l-36-11-32-11 10-29q7-6 1-14c-8-7-17-3-16 7l1 4h-9l-26 2q-29 3-43-4l-6-3v4q0 9 9 15l6 4h-4q-4 1-14-1l-10-2c1 4 7 12 11 15 10 6 30 7 52 3 11-3 25-2 24 1q-2 4-53 33c-16 10-19 13-16 19 1 3 1 4-3 11-9 14-17 39-17 53 0 6-1 7-10 15-18 18-54 60-62 74l-2 4-3-4c-6-7-16-4-16 5q0 9 10 10 5-1 23 11l18 11-4 3q-9 10-4 17c2 3 3 3 11 4s11 2 20 8c10 6 13 9 27 25a446 446 0 0 0 132 118c42 22 89 31 133 24 21-4 35-8 55-18q16-9 17-7l2 9c3 8 9 19 12 20a415 415 0 0 0 97-25c2-1 6-16 6-29 0-12-1-12-6-23q-13-21-30-26l-7-3 3-5c15-22 33-55 40-72l4-10 7-2 8-3-2-12-2-12 6-2 5-1v-32l24-52 26-59q7-10-1-14-3-2-8 2-7 6-6 12 1 3-2 8-3 7-7 6l-34 4-31 2-15 30-15 31 35-3 36-6-11 22-10 22-32 6c-27 4-31 4-32 6-2 2-2 1-5-11-4-20-8-46-8-53q0-11 17-42c16-30 39-61 48-65q12-5 14-13 0-7-8-6c-5 0-51-11-54-13-1-2 5-25 8-29 7-10-6-19-14-11q-5 7-1 13 3 1-8 1-19 0-39 4-19 6-36 1l-9-2c0 4 6 12 10 15l10 5 5 1-8 2-14 4-6 1 5 3q13 6 40-1 14-4 27-5 17-2 14 1c-19 17-81 66-88 71-11 7-13 9-13 15q0 5 4 7l4 1-5 8-9 17-5 11-2-5q-5-9-6-25c-1-5 0-7 5-17a205 205 0 0 1 35-45q0-4-5-7c-3 0-50-36-51-39 0-4 7-23 9-25q3-2 3-6c0-9-10-14-16-8m28 64 18 15c-1 2-35 12-36 12l4-11 5-11c-1-2-13-10-17-11q-5 0-2-8l2-6 3 3zm171-3-56 26 10-37q1-1 23 5zm-212-10-2 2v-2q3-3 2 0m146 23-7 19a363 363 0 0 1-58 19l36-29 33-27zm-258-21c28 10 29 10 23 11l-30 4-26 4 1-4 7-24zm-42 0-3 11-3 10-11 1-20 3-8 1zm129 25h2c0 2-25 31-27 32l-18 5-15 3 12-9 26-22q15-12 16-11zm12 12-4 13-11 2-10 2 11-15q12-15 14-14h4zm30-1 4 3-12 3-11 2 3-9 2-7 5 3zm18 86 4 8-4 11q-6 20-9 45c-1 11-2 14-7 22l-6 12q-4 11-5-17a246 246 0 0 1 18-103l2-4 2 9zm-178-22c1 8 4 25 8 38q4 12 2 16l-3 21q-3 39 13 77 7 12 7 17l1 4-4-4c-11-10-23-28-29-45-4-11-5-12-2-12 2 0 2-2 2-17v-17l-4-1q-4 1-6-7l-1-25c0-20 2-29 10-47q7-15 6 2m292 48 10 51c2 7 2 8-1 16l-2 10q0 2-6 9c-6 8-6 8-8 5-6-12-9-44-5-66l10-36zm-387-10 2 8-12 41-11 41-5-1c-6-2-45-24-46-26 1-6 39-53 61-74l8-8v5zm43 4-4 14-4 13-9-1-11-3c-2-2 0-11 3-16q8-8 20-8zm29 24 5 8h-13l-12-2 1-4 3-11 2-7 4 5zm-64-1c3 6 3 10 3 22v14l5 1h4v12l3 24q5 18-2 17l-16-10q-12-10-18-12l-4-2 10-37 11-37zm259 82q4 24 17 48l8 15-17 2c-2-2-9-19-15-34-6-17-11-40-10-44l7-15 5-11 1 13zm102-3q7 2 6 6-1 3 4 3 11 0-5 14l-12 10c-3 0-16-15-21-25l-4-10 3-1c8-1 21-1 29 3m-19 29 8 8-3 3c-6 4-36 19-37 18l7-27 8-28 5 9q5 9 12 17m-46 9-8 24c-2 1-3-8-2-16q1-16 10-26l6-5zm-150-36-7 19-6 19-7-3q-5-3-7-11c-2-7-2-8 2-13q6-10 18-12 9-2 7 1m23 5q2 1 5 13 3 13 10 27l7 16-7-2-21-7-14-4 3-11 7-22c4-11 4-12 10-10m30 16 14 9-6 6q-6 6-9 13l-3 7c-3 2-17-35-18-44 1-3 5-1 22 9m29 19c15 11 34 27 32 27h-17l-30-2-14-3 1-4q3-9 12-20l6-5z"/><path d="M658 239q6-4 11-1 7 3 7 10 0 4-3 6l-6 12-4 13a317 317 0 0 0 51 39l4 3q3 3 2 5l-7 7q-5 4-14 16l-19 31-1 7 6 25 2 3 4-9 10-18 4-7-3-1-3-2-1-5 2-8 11-8a773 773 0 0 0 88-70l-2-1-12 1q-14 0-27 5-27 7-40 1l-7-4 8-2 14-3 6-2-3-1-10-4-7-8-4-8h4l6 1q17 6 36 0a128 128 0 0 1 46-5l-2-6 3-7 7-4 7 2 3 6q1 4-2 7l-5 15-3 13 27 8 27 5q8 0 8 7 0 4-4 7l-10 7q-6 3-21 22-15 20-27 42-17 32-17 42l3 21 9 43 7-3 26-4q16-2 31-6l11-21 7-15 2-5 1-1-35 5-35 3q-1-1 15-31l15-31a510 510 0 0 0 69-6l3-5 2-7q-2-3 1-7l5-7 4-2 4 1q4 1 5 5l-3 9-27 59-23 52v32l-6 2-4 1h-1l1 6 1 5q2 12 1 13-1 2-8 4l-7 1-4 10a354 354 0 0 1-40 73l-2 4 7 2q7 3 16 10a69 69 0 0 1 18 28l1 12q1 10-2 19-1 10-4 10a637 637 0 0 1-97 26l-6-8-6-13-1-3-3-6-2 1-13 6a192 192 0 0 1-122 17 240 240 0 0 1-93-39 439 439 0 0 1-60-49l-60-69a78 78 0 0 0-22-14l-10-2-8-2-4-2q-5-9 5-18l3-3-17-11q-18-10-23-11-10-1-11-10 1-7 7-9t10 4l3 3 2-4 27-35 43-46 1-7q0-11 5-27a126 126 0 0 1 16-33l-1-4q-2-4 2-9l15-11 51-33-5-1-17 1-31 3q-14-1-21-6l-7-7-4-8h3l7 1 14 2h2l-4-3q-10-7-10-16v-3l1-1 4 2 2 1q15 7 43 3l26-2 8 1-1-4q0-9 5-11 7-2 12 4l3 7q0 4-3 7t-7 16l-3 12 31 11q31 11 36 11l6 2q3 2 3 6 0 3-3 5l-11 5-17 8q-9 5-21 17a169 169 0 0 0-25 29l-1 10q0 21 6 43l2 6 3-8q9-22 21-38l6-8 1-2h-1q-2-1-3-5v-5l6-5q5-1 36-28l31-26v-8l1-7 4-2 9 1 5-1a48 48 0 0 0 15-13l-12-2h-29q-15 2-24 1-7 0-15-4l-7-4v-2h3l13-1 9-2-4-2-10-6-6-9-3-6 1-2 1 1 22 7h21a121 121 0 0 1 42 3h4v-2q-1-4 2-8m1 1q-2 3-2 7l-1 3h-5q-7-3-20-3h-21l-21 1-23-9 8 15 10 6 8 4-13 2-15 1 6 4q7 4 15 4 9 1 24-1h29l12 3v1l-1 2-13 11-6 1h-9l-3 1-1 7v8l-32 26-41 32v5q0 3 3 4l1 1-1 3-6 8q-12 16-21 37l-4 12-3-10a165 165 0 0 1-5-54l6-9a170 170 0 0 1 57-45l11-5q3-1 3-4 0-4-2-5l-6-2q-4 0-36-11l-32-11v-1l3-13 7-16q3-2 3-6l-3-6q-4-6-10-3-6 2-4 9v5h-9q-10-1-26 1-28 4-43-3l-2-1-4-2v3q0 9 9 15l7 4-5 1-14-2-9-1 4 6q3 6 7 7 6 5 20 6l31-3 16-1 6 1 2 1 1 2-53 32-16 11q-2 4-1 8l1 5-4 6a124 124 0 0 0-17 53l-1 7-8 9a513 513 0 0 0-62 73l-3 5-3-4q-4-6-10-4-5 3-5 8 0 8 9 9 5 0 23 11l19 11-4 4q-10 10-5 17l3 2 8 2 10 2a75 75 0 0 1 22 14l15 17 45 53a307 307 0 0 0 60 48q17 12 27 16 32 17 66 23a199 199 0 0 0 122-17l15-7 2 1 2 6 1 3 6 12q3 7 6 8 1 1 48-11l48-15 3-9a98 98 0 0 0 1-31l-5-10q-6-10-13-17t-16-10l-8-2 4-6a508 508 0 0 0 39-72l5-10 7-2q7-1 7-3 1-2-1-12l-1-6-1-6 6-2 5-1v-32l23-53 27-58q3-4 3-8-1-4-4-5l-4-1-3 2-5 6q-3 4-1 6l-3 8-3 5-4 2a478 478 0 0 1-65 5l-15 30-14 30q3 1 34-3l36-5-1 2-2 5-7 15-11 22q-15 4-32 6l-26 4-6 3-2 1-1-2-3-11-8-53q0-10 17-42 12-23 27-42 15-20 22-23l10-6 3-7q0-6-7-6-3 1-28-5l-26-8q-1-1 2-14 4-14 6-15 2-3 1-7 0-2-3-5l-6-2-6 4-2 6q-1 3 1 5l1 2h-9q-20 0-39 5-19 6-36 0l-8-1 3 7 6 7 10 4 5 1v1l-8 3-14 3-5 2 4 2q13 6 40-2a151 151 0 0 1 39-5l2 1 1 1-1 1a1047 1047 0 0 1-98 78l-2 7v4l3 2 5 2-5 8-10 18-5 11-3-6-6-25 1-7 5-10a230 230 0 0 1 35-45l-1-3-4-3-27-19-25-21 4-13 6-12 3-6q-1-6-6-9-6-2-10 1M408 431l2 8-11 41-12 42-5-1-25-14-21-13q0-5 22-32t38-42l9-9 1 6zm-1 0-2-14-1-4-7 7a494 494 0 0 0-60 74l20 13 25 13h4l12-40 11-41zm105 0 2 10v6l-3 21q-4 39 13 77l7 17 1 5-5-5q-8-7-17-20a137 137 0 0 1-16-35v-2h2l1-3 1-14v-17h-4l-4-2-2-6q-2-6-2-25l2-24q2-9 9-24 3-7 5-7 2 1 2 10 0 15 8 38m-9-38-1-9-4 7q-7 14-9 23l-2 24q0 19 2 25l2 5 3 2h5v18l-1 14q0 4-2 4h-1v1l3 10a135 135 0 0 0 30 45l2 2v-2l-7-17a154 154 0 0 1-10-98v-6l-2-10q-8-23-8-38m-86 65q3 7 3 22v13l9 2v13q0 12 3 23 2 9 1 14 0 4-4 4l-16-11-18-12-4-2 10-38 11-37q2 1 5 9m265-43 3 8-3 11a297 297 0 0 0-12 57q0 4-4 10l-7 12-2 4-1-1-1-2-2-18a243 243 0 0 1 19-103l2-5 2 10zm-266 43-4-8-10 37-10 36 3 2 18 12 16 11q3 0 3-4 1-3-1-13-3-11-3-24v-11l-9-2v-14q0-15-3-22m265-43-6-16-1-8-1 3-7 18-7 22a243 243 0 0 0-2 82l1-3 7-13q4-4 4-9l3-12q3-24 9-45l3-11zm114 26a450 450 0 0 0 12 59l-2 8-2 9q0 3-6 10l-6 7q-2 1-3-2-5-9-7-29a149 149 0 0 1 7-59l5-15zm-120 99q5 24 18 48l7 15-9 2h-8l-7-12a316 316 0 0 1-16-49q-3-14-2-17l6-15 7-13 1 15zm119-99-1-8v-2l-4 13-5 22q-3 16-2 36 2 21 7 30l1 1 6-6 6-9q-1-3 2-10l2-8-2-8zm-120 99-3-26-1-11-5 9-6 15q-1 3 2 17a264 264 0 0 0 22 60h8l8-2-7-14q-14-24-18-48m-30 38 33 28-1 1h-17q-17 0-30-3l-14-2 1-5q2-11 11-20l7-6zm-59-34 3 4 3 9q2 12 9 27l8 17-8-2-21-7-15-5 4-11 4-12 3-10 4-10zm207-230-6 19a327 327 0 0 1-61 20l2-1 36-29 33-28 1 1v1l-1 4zm-15 222q7 4 7 7v2h3l4 1 1 3q-1 4-10 12l-12 10q-3 0-10-9-8-10-11-17l-5-10 4-1 15-1zm-134 43-9-7-6 6q-9 9-11 19l-1 4 13 2q13 3 30 3h16l-1-2-8-7zm-58-34h-5l-4 10-3 9-4 13-3 9 13 5 21 6 6 2-7-14q-7-16-9-28l-3-9q0-3-2-3m273-244q0 2-28 15l-28 11 4-16 5-21h7l17 4zm-99 265 8 8-4 3a201 201 0 0 1-38 19l8-28 8-29 5 10q4 9 13 17m32-253 5-16-33 27-36 29 8-2q49-16 50-18zm-15 224-13-3-15 1-3 1 5 9q3 7 10 16t10 9l12-10 9-11v-2h-4l-4-1v-3q0-3-7-6M534 293l26 11-2 1-31 4-27 4 1-5q6-25 8-24zm323 8-22-5-17-5-6-1-5 21-3 11-1 3v1a366 366 0 0 0 54-25m-99 266-13-17-4-8-7 26-8 27 36-19 3-2zm-71-263 19 15-19 7-19 5 4-11q6-9 5-11 0-2-6-5l-10-5q-3 0-3-3v-6l2-6 5 3 16 13zm-72 256 15 9-7 7q-6 6-8 12l-3 7h-2l-1-1-2-4a153 153 0 0 1-14-39l1-2 4 1zm5-243h3l1 1q0 2-13 17l-15 16-7 2-11 2-15 3v-1l11-9 26-21 15-11h2zm-87-23-24-9-7 24-1 2 26-3 30-4 2-1h-1zm29 246-4 11-2 8-7 18q-1 1-7-3l-5-4-2-7q-2-6-1-7l2-6q7-11 19-12l6-1 2 1zm53 20-20-10-1 1q0 6 8 26l9 17 3-6q2-7 8-13l6-6zm71-255-5-4-17-13-3-3-2 5v6l2 2 10 5 7 6-5 12-4 9 35-11zM451 435l-4 14-4 13-9-1q-10 0-12-2v-8l4-10 9-6q6-3 11-2l3 1zm170-117-5-1-3 2-12 9-26 21-10 8 13-3 10-2 8-2 14-16 13-16zm-60 221-6 1q-11 1-18 11l-2 6q-1 1 1 7l2 7 4 4q5 3 6 2l7-18 2-7zM450 435l-3-1q-4-1-11 2l-8 6q-3 3-4 9v7q1 2 11 2l8 1 4-12zm43-142-4 11-3 10-11 2-19 2-7 1h-3v-1l23-14zm140 38-4 12-10 2-11 2-1-1 1-1 2-3 8-10 10-12 5-2h5zm-141-38-22 13-21 13 6-1 20-2 10-2 3-9zm-12 166q6 8 5 9 0 2-13-1l-13-2 1-4 2-8 1-3 2-7 6 5q4 3 9 11m232 116-8 24h-1l-1-1-1-4v-11a50 50 0 0 1 15-30q1-2 3-2zm-80-245 4-11h-3q-2 0-14 13l-8 11-2 3h2l7-2 10-2zM479 460l-9-12-4-4-2 7-1 3-2 7-1 3 12 2 9 1h3zm232 115 7-23-1 2-4 4a49 49 0 0 0-11 36l1 4q2 0 8-23m-47-246 4 3-12 4-11 2h-1v-2l3-8 2-8 6 3zm-1 1-9-6-4-2-2 6-3 8v1l2-1 8-1 11-3zm-17-38-2 1h-1l-1-1 1-2 3-1 1 1zm-1-1 1-1zv1zm14-51q-3 3-3 7l1 4-7-2c-12-3-28-4-39-2q-19 3-36-4l-9-3q1 6 7 13l10 7 7 4-8 1-13 1q-9 1 1 6c10 4 17 5 39 3 14-2 21-2 29-1l12 3q0 2-7 8-8 8-12 6h-9l-5 1v16l-31 25-37 29q-7 3-6 7 0 4 3 6c2 2 2 2-5 11-9 12-13 19-20 35l-5 13-3-10q-5-20-5-41c0-11 0-12 6-19 18-23 44-43 61-47q10-3 10-8-1-6-8-7l-68-22 4-13q3-13 6-16 6-6 1-14c-8-7-17-3-16 7l1 4h-11l-26 2q-27 4-41-4c-7-3-6-4-6 1q0 9 11 16l5 3-3 1-15-2-11-1c1 3 9 12 13 15 10 5 30 5 52 1 9-2 22 0 22 2a776 776 0 0 0-67 42q-6 6-1 11 2 2-1 5c-9 12-20 44-20 58 0 6-1 7-12 18-23 23-50 56-58 69l-4 6-3-4q-7-6-13-1c-6 6-2 15 7 16q5-1 23 11l17 10-4 5c-9 11-5 21 8 20q20 0 50 37a410 410 0 0 0 129 114 197 197 0 0 0 188 6q16-9 17-7l2 9c3 8 9 19 12 20a415 415 0 0 0 97-25c2-1 6-16 6-28 0-13-1-13-6-24q-12-19-29-26-10-3-6-6l10-16c10-16 26-46 31-60l5-10 7-1q9-2 7-5l-4-20 6-3 6-1-1-15-1-14 24-54 27-60q9-14-4-14c-5 0-10 7-10 13l-3 10q-3 5-7 6l-64 6-30 59h5l31-3 31-5c4-1 4-1-7 22l-11 22-32 6c-31 5-31 4-32 7l-2 3-11-57-2-15 8-18c17-36 47-80 59-85q12-5 14-13 0-7-7-6c-4 1-52-11-55-13-1-2 5-24 8-29q4-7-1-12-7-5-13 2-5 7-2 11 4 3-4 2c-9-1-30 1-41 5q-21 5-38 0l-8-2 2 5q4 10 16 14l7 2-10 3-14 3-4 1 4 3q12 6 42-1 27-8 38-6c3 1-2 7-38 36l-49 38q-12 7-12 13 2 7 7 9 2 0-1 4l-16 31c-3-1-7-13-9-24l-1-11 7-12c7-13 21-31 29-38q9-8 1-12c-5-2-50-37-52-39 0-3 6-22 9-26q6-7 0-13-7-6-13-1m11 4q3 7-4 7-8-2-5-7 4-4 9 0m149 2q3 5-2 9-6 1-7-4c0-5 6-8 9-5m-165 9 10 3-3 10q-3 9-5 7l-10-4c-10-3-19-3-42 0h-26l4-1q19-4 18-8 1-2-6-3-13-3-20-10-3-4 1-2c6 4 24 6 33 5 17-3 28-2 46 3m-136-14q2 6-4 8-4-2-6-7 1-4 6-4zm286 22 9 2c1 1-3 17-4 18l-8-1q-13-3-42 4l-24 5h-6l8-4c13-5 13-5 13-7q-1-3-8-3-13-2-17-7-1-1 5-1 15 3 32-2c12-3 30-5 42-4m-294-7-2 12-3 11-12-3c-11-2-13-2-25 0q-37 8-48-3l-4-3h29l7-2-11-5q-16-9-15-11l10 2c11 3 14 3 41 0 12-2 33 0 33 2m147 26-2 7-4 6c-2 0-1-2 3-14l2-1zm26 20 22 17c-1 2-34 12-36 12l4-11 6-11-4-2-9-6-8-4 3-12zm124-12-2 10-6 20q-2 11-6 11-2 1-2-1l13-41q2-3 3 1m51 11-56 26 10-37 23 5zm-212-9-2 1v-3q3-3 2 2m146 21-7 20a284 284 0 0 1-60 21l63-51 9-8zm-156-9q-3 15-3 1 0-8-2-8-2-1-2 7l-1 9-1-5-1-11q-2-2 4-2l6 1zm7-6-1 9-2 8v-9q-2-10 1-9zm-20 6-1 9-1-9 1-8zm28-3-2 8-3 6v-4l1-8q0-5 2-4 4 0 2 2m16 5 5 5-3 8q-4 7-5 5-1-1 1-7l3-7q0-7-5 4-5 9-5 6l1-6q4-11 1-10l-5 7q-5 13-2-2l1-7q0-2 13 4m-165-20c0 5-6 25-8 27q-4 3-1-8l5-15q4-11 4-4m32 7 27 10-60 9 2-9 3-13 3-6zm339 10q0 4-12 10l-49 25c-23 11-54 23-69 29-22 8-30 10-34 9q-7 0-6-3-2-6 20-13c29-9 61-20 87-31 33-14 57-27 59-27q3-1 4 1m-383-1-4 11-39 5 45-27zm91 7a939 939 0 0 1-150 24q-3 0-1-4c2-4 3-4 33-8l62-8c55-7 54-7 55-6zm41 8q4-2-10 16l-13 17-17 4-18 4 53-42zm11 13-4 12-11 3-10 2 10-15c10-12 12-14 15-14h4zm11-9c-5 17-6 20-8 20q-2-1-1-2l3-11q3-9 5-9t1 2m70 4-37 14a1777 1777 0 0 1-120 33q-9 2-10-3c0-3 5-3 48-14l73-19q52-16 46-11m-51 4 4 3-11 3-12 3 2-7 3-8q3-2 14 6m179 3c-41 51-71 127-65 174l7 28-7-2-6-3-6-21-7-20 8 38q1 3-4 3c-6 0-4 3-13-28l-4-13 3 21 4 20-4 1c-3 1-3 1-9-20l-6-21 7 40q1 2-2 5c-4 2-4 1-10-18l-5-16 3 19 4 18-3 2c-4 3-4 3-8-12l-4-12 2 13c2 16 2 17-1 19q-3 3-5-7-5-16-2 1v12q-2 7-5-2-1-8-1 3 1 14-4 9v3l-1 13-2 8-5-10a213 213 0 0 1-12-113c8-44 28-85 41-86l1 4q-2 3 2-1 3-5 5-5 4-2 1 3l-2 5 3-4c5-9 10-11 6-2q-5 12 4-2l7-7c3-1 3-1-2 8l-4 10 7-11 10-12q4-2-3 10-5 10-4 12l7-12q10-15 14-16l-6 13q-19 34 2 1l13-17q3-1-1 5l-16 29 13-19q13-18 16-20l3-1-11 19q-28 45 3 0 18-28 20-24l-10 18c-13 22-15 24-13 23l15-23q15-23 19-24l4-2a419 419 0 0 1-33 56l21-30 21-31 8-4 9-5-1 2zm-145 11q-33 42-45 100c-3 19-3 65 1 84a338 338 0 0 0 20 69l-14-12-24-84 17 79-4-2c-3-3-5-7-14-39l-10-35 7 33 7 33-4-2c-4-3-4-2-16-44l-5-18 11 54-5-2c-4-2-5-3-11-28l-7-25 4 24c5 24 5 25-2 20q-2-1-8-19-9-27-3 1l2 13-5-1c-4-2-5-3-8-13l-3-6 1 10q2 5-2 4-6 0-9-10-4-10-1 3 2 5-4 4-5-1-5-4-1-3-1 1c-1 3-7 4-9 1q0-2-1 1l-4 4-8 8-5 5-12-31c-4-16-5-45-1-63q7-42 30-70c7-8 9-9 17-11l11-2 2-1q3-2 7-2l-1 4-2 4 3-3q10-13 7-3-3 9 2 0 3-5 6-6 3-3 0 5-6 12 2 0l7-8c4-2 4-2-1 9l-3 10 7-11 9-12c3 0 3-1-3 12l-5 12 7-12 10-13q9-7-2 12l-7 14 11-16q13-20 13-15l-9 16-7 15 12-17q14-21 17-18l-21 36c-6 9 2-1 14-19q18-24 19-21l-9 17-16 27 17-23c12-19 16-24 20-25l4-1-10 17c-20 31-23 35-22 36l20-28c16-23 20-28 24-30q12-6 0 8m-148-19q-34 26-54 62c-10 18-14 33-14 53q0 18-1 13l-2-8-2-14q-1-10-1 4l-1 11c-4-1-4-3-5-16q0-16-1-7l-1 12q0 6-2 4l-3-15-1-14-1 12-1 13q-4 0-5-11c0-12-2-18-2-7q0 14-4 14-2 0-2-7l-1-11q-1-8-1 6 0 12-2 11-4-1-4-15 0-11-1 3c-2 12-2 13-4 13q-2 0-2-7 0-8-1-6l-1 9q0 8-2 8-1 1-1-4t-1-2l-2 5q0 10-3 6-1-2-1 4l-1 6c-3-1-7-21-8-38 0-15 0-18 3-30 4-14 13-35 19-40q2-3 6-4t2 2q-1 3 3-1 9-6 6-1-1 3 1 0 9-5 11-3l-1 2-3 3q-1 3 5-2 16-13 5 2-5 6 5-2 11-10 13-7l-6 7q-14 15 3 0l12-9c2 0 1 1-8 12l-7 9 12-11q16-15 18-11l-11 12-11 12 11-10c18-16 18-16 22-17q4-1-6 9-24 28-9 13c20-19 25-23 29-24q6 0 2 2l-12 17c19-18 24-22 31-22zm394 27c1 6-6 12-9 7q-1-5 4-8 4-1 5 1m-262 64 4 8-3 12q-7 21-10 45c-1 10-2 13-5 18l-7 13-4 6a223 223 0 0 1 14-119l4-10 2 9zm213-34 37-4-20 45c-3 2-63 12-76 12-3 0-2-1 9-23l14-28zm42-17q0 5-4 8-4 2-1-4 2-4 5-4m-432 26c0 10 3 29 7 41 4 10 4 10 1 21-2 14-2 43 0 58 3 14 6 22 13 38l6 16c-2 1-11-8-18-18-6-8-13-22-17-33-3-8-3-8-1-8 3 1 3 0 3-17v-17l-4-1q-4 1-6-6a144 144 0 0 1 0-49c4-13 12-33 14-33zm293 62 7 35 3 14-3 8q-2 8-1 9l-7 9-6 8-3-6a145 145 0 0 1 6-99zm-389-22 2 10-12 41-11 40-5-1c-6-1-45-24-46-26 0-6 34-47 61-74q9-11 8-5zm500 0-9 21c-9 20-10 20-14 21h-4l24-43zm-458 8-4 14-3 10-11-1c-10-1-10-2-10-5 0-14 10-24 23-22q8-1 5 4m10 6c-4 19-5 20-9 19q-4 1-3-2c7-26 7-25 10-23q4 2 2 6m21 16 4 8-13-1-12-3 5-19c1-2 10 7 16 15m-65-4c3 7 3 10 3 23v15l5 1h4v11l3 24q6 20-2 18-3 0-15-10l-18-12-5-3 10-37 11-38zm473 24 1 12 1 7a543 543 0 0 1-84 14l4-10 4-12c0-2 9-2 37-8l37-8zm-395 7v12l-35-5-36-5v-25l36 5 35 5zm179 38q3 35 20 63c8 15 8 15 0 16l-9 2c-4-1-21-47-25-68-2-10-1-13 6-28l5-9 1 5zm208-10 1 10a373 373 0 0 1-90 14l9-11 8-10a600 600 0 0 0 70-12zm-399 0c12 38 42 70 85 87q40 18 90 18c68 1 101-14 140-58l18-20 26-4 26-3c0 4-18 39-31 61-10 16-12 18-36 30-29 15-70 25-114 26a426 426 0 0 1-244-75c-24-18-38-27-51-33q-20-9-29-5-7 4-2-5 6-10 19-9c9 1 15 4 32 16 16 12 20 13 24 9s4-6 1-21c-2-6-3-16-3-22v-11l23 3 23 4zm10-1c8 23 24 45 40 58q34 26 98 37c66 10 127-12 164-55q9-11 12-11l3 1c-1 3-28 32-39 41-34 27-74 37-138 30-27-3-40-6-61-14q-69-29-87-90l-2-8 3 1q3-1 7 10m286 23q8 4 6 5-2 2 2 3l5 2q3 4-13 18c-9 7-10 7-19-4-5-6-14-22-14-25q1-2 16-2 11 0 17 3m-453-47q3 5-1 7-6 0-7-5 1-3 5-4 2 0 3 2m403 79-8 29-6 2h-5l9-28c8-27 8-28 13-30l5-2zm17-21 13 17 8 9-9 7c-12 7-30 15-31 14l14-54q1-3 5 7m-374-30q3 1-1 3c-3 1-5 0-22-10q-19-12-18-14 0-2 19 9zm341 57-9 25c-1-1-2-10-1-17q1-16 11-26l6-7zm-150-36-7 19-6 19-7-3q-6-3-7-11c-1-6-1-7 1-12q6-10 17-13 11-2 9 1m12 2-6 22-7 22-4-2-4-4 7-19c7-21 7-22 11-20zm14 6 1 6c1 5 8 26 13 36l4 10c-1 1-19-4-31-9q-10-3-10-5l7-22 7-20 4 1zm23 10c20 12 19 10 13 17q-10 12-12 20 0 7-7-8c-5-10-11-29-12-34l2-3zm34 23 21 16 11 10-4 1c-5 1-55-4-57-5q-1-2 1-9t9-14l8-7zm-256-32c13 6 27 15 51 33a394 394 0 0 0 195 74c71 7 129-3 183-34l-3 6-12 11c-11 7-35 16-56 21q-23 5-9 3 28-1 62-18 2 0-4 6c-5 6-7 8-19 12-7 3-25 7-40 10l-24 4a347 347 0 0 0 71-12l-7 7c-8 7-15 10-37 14q-10 1-6 2l17-3 12-2a214 214 0 0 1-91 38c-21 2-68-3-89-10-43-16-95-51-124-81l-6-8 8 6c10 6 29 15 38 17l-7-4c-21-10-45-26-55-37l-8-10 15 9q27 18 60 32a383 383 0 0 1-97-67q-19-20-36-23l-7-1c2-3 16 0 25 5m432 80-6 9-6 8 9-9q15-16 5-1l-4 6 6-6q12-12 7-2-3 6 0 1l4-3 9 6c8 7 16 20 18 31 1 8 1 11-2 23l-1 6a647 647 0 0 1-92 24q-7-5-12-20l-2-7 13-10c7-6 21-19 33-33 20-23 24-28 21-23m-2-126v6l6-1 6-1v-12l-6 1h-6zm25-4v6l6-1 6-1v-12l-6 1-6 1zm24-4v6l6-2 6-1v-12l-6 1-6 1zm-53 35v6l6-1 6-1v-12l-6 1h-6zm40-6v6l6-1 6-1v-13l-6 1-6 1zm-45 37q-2 7 6 4 8 0 6-6 2-5-6-4-7 0-6 6m28-4q-1 6 6 4c7-1 6-1 7-6-1-5 0-5-7-4q-7 0-6 6m-314 46v9l6 1 6 1v-18l-6-1-6-1zm207 27v9h12v-18h-12zm-102 6v9l6 1h6v-18l-6-1h-6zM431 478v6l6 1 6 1v-12l-6-1-6-1zm25 4v6l6 1 6 1v-13l-6-1-6-1zm24 3v7l6 1 6 1v-13l-6-1-6-1zm260 206h4q1-1-2-1t-2 1M226 405l-2 4-1 4v8q3 3 6-1 2-4-1-9v-6q0-2-2 0m6 16-2 2c-3 4 3 8 8 5q6-4 7-2h2q0-2-7-4c-6-2-6-2-8-1m-19 3q-4 3-7 1v1l3 2 4 1h8q6-6-4-7zm12 5-1 3q0 14-10 26l-3 4 9-1 1 1q1 4 4 6h2q3-1 4-6l1-2 5 1h4l-2-3-7-10q-4-6-4-13l-1-6q0-3-2 0M53 441l-1 4-2 4q-2 6 1 8 3 3 6-2 2-6-1-9t-1-7zm7 14-3 2q-1 8 8 3 6-6 8-5l2-1-7-1c-6 0-6 0-8 2m-20 9-6 3q-3 0-1 2h8q5 0 8-3 6-8-4-6zm12 0v4q-1 14-10 30l-3 4s7-2 8-4l2 1q0 4 3 5l3-1q3-3 3-7l1-2 6-2 4-1-2-2q-6-4-8-8-3-4-3-12l-1-5q-1-2-3 0m87-48-2 4-1 4q-2 5 0 8 3 3 6-2 2-5-1-8l-1-7zm6 15-2 2c-3 5 3 7 8 4q6-5 7-3l2-1-7-2zm-19 5q-4 4-7 3-2-1 0 1l3 1 4 1q5 1 8-2 5-7-4-6zm12 3-1 4q0 14-10 28l-3 4 9-2q1-2 1 1l3 5h3l4-7 1-2h5l4-1-2-2q-6-6-7-9-4-6-4-13l-1-6zM12 554v4l-4 15v16q1 4 4 5l2-1q3-3 4-8l1-2 5-2 4-2-2-2-7-7-4-12-1-5q0-2-2 1"/><path fill="#0091c8" d="M992 635v170c-237 118-472 11-716 6V631c1 3 11 7 20 10 14 6 15 6 28-3 19-11 31-9 52 7 32 24 40 26 50 9q9-20 50 8c11 8 23 14 27 15q6-1 17-10c13-14 21-12 56 14 28 20 37 22 40 9 4-17 7-20 23-18q16 2 40 15c13 8 26 13 29 13q5 0 7-11 3-10 10-16c10-6 19-3 50 12 31 14 40 11 40-10q1-9 17-13c3 0 16 4 29 10 29 11 36 9 39-10 2-19 14-21 44-16 23 4 48-3 48-11"/><path fill="#fff" d="m287 640 3 3a66 66 0 0 0 23 9l12-6q15-9 27-8 12 2 29 14 23 18 31 20 4 0 7-2l6-7q7-12 21-10 13 2 35 16l25 15 5-3 9-6 10-8q6-3 13-1 11 3 38 22 19 15 27 17h4l3-5q3-15 8-19 6-3 19-2 17 2 42 15l26 13 2-1 2-7a33 33 0 0 1 11-18h1q8-6 20-3l34 14q22 10 29 8 5-2 5-14 0-7 6-12 6-4 15-6 7 0 31 10 21 7 27 6 2 0 3-2l3-9q1-18 15-22 11-4 35 0 17 3 29-1l8-3h1q0-4 4-6h1v10l-4 4-11 4q-15 4-32 1-21-3-30-1-7 3-8 13-2 17-14 20-9 3-31-6l-27-9-10 3q-3 3-3 5 0 19-12 23-9 3-34-8l-32-14q-8-2-14 2l-5 5-3 8q-1 6-4 9-3 6-7 5l-12-4-19-9q-23-12-38-15-10-1-14 1l-5 14q-3 14-15 11-10-2-31-18-26-18-35-21l-8 1-8 6-10 8-10 3q-8-1-29-16-19-13-31-15-9-2-14 7-4 7-8 10-5 3-12 2-11-2-35-21-15-12-25-12-9-1-22 6-12 7-16 7-6 0-17-4-16-7-18-14l-1-1 1-2 3-2 3 1z"/><path d="m284 631 3 3a67 67 0 0 0 23 9l12-6q15-10 27-8t29 14q24 18 31 19 4 1 7-1l6-8q7-12 21-9 13 1 35 16l25 14 5-2 9-7 10-8h13q11 3 38 22 19 15 28 17l3-1 3-5q3-13 8-18 6-4 19-2 17 2 42 15l27 13 1-2 2-6a33 33 0 0 1 11-18h1q9-6 20-3l34 14q22 10 29 8 5-1 5-14 0-7 7-12 5-4 14-5 7-1 31 10 21 8 27 6l3-2 3-9q1-18 15-22 12-4 35 0 17 3 29 0 6-1 8-4h1q0-3 4-5t4 2q0 6-7 11l-11 5q-14 3-32 0-21-3-30-1-7 3-8 13-2 18-14 20-9 3-31-6l-27-10q-6 1-10 4l-3 4q0 21-12 23-9 3-34-8l-32-14q-8-2-14 2l-5 5-3 8-3 9q-4 5-8 5l-12-4-19-9q-23-13-38-15-10-1-13 1-4 3-6 14-3 14-15 11-10-2-31-18-26-19-35-21h-8q-3 1-8 7l-10 8-10 3q-8-1-29-16-19-13-31-15-9-1-14 6-4 7-8 10-5 4-12 3-11-3-35-21-15-12-25-13-9 0-22 7-12 7-16 7-5 0-17-4-17-7-18-14-1-4 3-5 3 0 5 3"/><path fill="#fff" d="M345 695q-10 4 5 3c9 0 15 2 27 10 23 16 33 19 48 11 19-9 26-10 41-4q16 5 7-1c-9-10-27-13-44-7-19 8-28 7-49-6-19-11-26-12-35-6m346 53c-13 7-27 11-32 11-4 0-19-7-31-16-22-14-24-15-34-13q-40 11-60 2-23-9-3 6c13 9 24 10 50 6 21-4 21-4 32 3 42 28 54 29 76 15 25-17 35-18 71-8 22 6 23 5 34 0l11-6-14 1c-8 0-24-2-36-6l-32-8c-5 0-19 6-32 13m197-18-9 8c-4 5-20 9-30 6q-9-2 2 5c12 7 20 6 35-6 10-9 11-9 23-8q30 1 8-7c-16-5-18-4-29 2m-105 56q-17 12-26 13c-4 0-17-4-27-9l-21-10-12 6-22 9-10 5q3 7 26-4c17-8 26-7 42 3 22 15 29 14 54-5 15-12 26-13 52-7 19 4 22 4 32-2l11-7-12 3c-6 1-21-1-33-4-11-3-24-6-29-5-4 0-15 7-25 14m-275-21c-16 11-26 10-42-5-15-13-25-15-46-8q-16 6-9 8 6 2 16 0c15-5 22-3 41 11q15 13 20 14l16-7c24-11 28-11 51 1 21 11 27 11 37 1q7-6-3-2c-11 4-18 2-38-9-24-13-27-14-43-4m-183-3q-7 3-11 8-7 8 2 4c9-4 22-3 26 1l15 14c18 13 32 15 50 7 14-6 22-6 42 3q8 3-3-6-18-18-46-7c-18 7-23 6-46-13-18-15-19-15-29-11m240 46-17 8q-4 1-3 3 3 2 18-3t21-4q7 2 23 15c18 16 24 17 45 6 15-8 18-8 37 5 19 12 27 13 50 1 20-11 27-11 48 0q12 6 18 6c8-1 22-10 30-19l7-7-12 8c-16 10-25 11-45 2-22-10-27-10-46 1s-28 11-47-1c-19-13-28-14-45-4s-21 9-35-3a83 83 0 0 0-31-20q-6 0-16 6"/><path fill="#dc241f" d="M8 195c89-44 177-57 268-55v223c-88-1-177 11-268 56z"/><path fill="#009543" d="M276 168v-29l-32 1C166 206 88 284 8 390v29l33-15c78-97 155-171 235-236M8 223l1-28 32-15q116 51 235 155v28h-32A781 781 0 0 0 8 223"/><path fill="#fff" d="M8 330v-45c89-44 177-58 268-56v45c-88-2-177 10-268 56m112-175 43-9h2v224q-22 3-44 9z"/></svg>