<svg xmlns="http://www.w3.org/2000/svg" viewBox="0 0 1000 1000"><path fill="#00247d" d="M8 195.3c170.8-85.3 341-54.5 513.3-28C676.5 191 833.4 211.8 992 132.7v672c-170.8 85.3-341 54.5-513.3 28C323.5 809 166.6 788.1 8 867.2z"/><path fill="#fff" d="M8 195.3q27.1-13.6 55-23.7c63 20.3 126 54.4 191 98.2a1945 1945 0 0 1 191-114.2l55 8.4 11 31.8c-66.7 35.2-133.3 70-202 113C375.6 358 442.3 414 511 471.5l-22 56.8c-77.5-65-155-129.6-235-183.5A1231 1231 0 0 0 19 556L8 531.4v-37.6C71 419.2 134 360.3 199 310c-63-37.3-126-65.2-191-77.2z"/><path fill="#cf142b" d="M254 307.3q18 0 36.7.6c71.5 51.4 143 111.5 216.7 173.2L500 500c-81.1-68-162.3-136.2-246-192.7v25A1232 1232 0 0 0 15.4 547.8L8 531.2a1240 1240 0 0 1 246-223.9 716 716 0 0 0-36.7 1.3c-69-42.9-138.1-75.2-209.3-88.3v-25c81.2 14.9 162.3 55.7 246 112v-25c69.1-47.8 138.2-86 209.3-124L500 164c-81.2 42.9-162.4 85.5-246 143.3"/><path fill="#fff" d="M295 140v112c94.7 4 189.4 22.8 287 36.2v112c-94.7-13-189.4-32.1-287-36.2v224a755 755 0 0 0-82 .9v-224A530 530 0 0 0 8 419.3v-112a531 531 0 0 1 205-54.4v-112q40.3-2.6 82-.9"/><path fill="#cf142b" d="M278.6 139.5V274c100.1 2.3 200.2 22.6 303.4 36.7v67.2c-100-13.7-200.3-34.3-303.4-36.7v246.4q-24.2-.5-49.2.5V341.6A535 535 0 0 0 8 396.9v-67.2c73.1-36.5 146-52 221.4-55.3V140q24.2-1 49.2-.5"/><path fill="#00247d" d="M500 164v336c-161.8-25-325.3-51.9-492 31.3v336c170.8-85.3 341-54.5 513.3-28C676.5 863 833.4 883.9 992 804.8v-672c-162.7 81.1-324.5 57.1-492 31.2"/><path fill="#f7e017" d="M664.6 541.8a92 92 0 0 0-23 43.8c-7 44.5-16 53.4-30.2 42.1.3 24.4 15.1 27.8 22.3 14.5.1 22.8 6 43 19.7 61.2 5.9 7.4 6.7 3 4-5.3-2.5-8.1-2.8-33.3-8-48.4 9 9.3 21.1 5.7 20.4-18-11.5 8-22 6.7-23.5-14.7-1.3-25.3 5.8-60.3 18.3-75.2"/><path d="m664.4 541.5.3.6c-14 16.5-20 41-18.2 74.9.7 10 3.2 15.7 7.9 18 4.3 1.9 9 .8 15.2-3.6l.4-.2v.5c.4 11.4-1.7 18.2-6.7 21.7-4.5 2.7-8.5 2-13.4-2.6q3 9.1 5.3 30.6 1.5 13.3 2.5 16.6c1.5 4.6 1.7 7.2 1 8.8q-.5 1.3-2 .4-1.4-.8-3.5-3.6a100 100 0 0 1-19.7-60.4c-4 6.8-8 8.7-13.6 6.2-5.9-3-8.7-9.9-8.8-21.7v-.5l.3.2c7.5 5.8 12.9 5.8 17.6 0q7.3-9.6 12.4-41.9 3.6-23.2 23-44m-4.9 6.6a80 80 0 0 0-17.6 37.6q-5.2 32.5-12.5 42.1c-4.9 6-10.3 6.1-17.8.5.2 11.2 2.9 17.6 8.5 20.5 5.5 2.4 9.6.4 13.4-6.8l.5-.9v1.1a100 100 0 0 0 19.5 61q2 2.5 3.4 3.4 1.1.6 1.5-.2c.5-1.4.3-3.8-1.2-8.1q-1-3.4-2.5-16.9a159 159 0 0 0-5.6-31.6l.3-.3c5 5 9.1 6 13.7 3.3 4.7-3.3 6.8-9.8 6.4-20.5-6.2 4.3-10.9 5.3-15.3 3.5-4.9-2.6-7.4-8.4-8.1-18.8-1.6-29.9 2.8-52.5 13.4-69"/><path fill="#f7e017" d="M651.3 361.2c.7-9-.7-18-5.4-24.4-9.6-12-18-9.4-25.1-1.2-10.5-8-15 16.5-26.9 11.2 2 9 4.8 12.7 10.6 10.7-5.7 7-.3 16.2-7 24.4 13 7 19.4-1.5 19-18.5 5.3 6.5 12.2 7 16.7.8-6.8-4.1-6.9-11.6-4.1-19.1 4.5-10.6 22.8-8.4 22.2 16.1"/><path d="m651.5 361.3-.4-.2c.3-11.2-2.5-17.7-9-20.8-6.5-2.7-10.2-1.2-12.8 5q-2.2 5.9-1.5 10.6c.7 3.7 2.3 6 5.4 8l.4.1-.2.4c-2.3 3.2-4.7 4.5-8.2 4.5a12 12 0 0 1-8.4-4.7c0 8.5-1.4 14.1-4.6 17.8-3.8 3.7-8.3 3.8-14.8.2l-.4-.2.3-.4c2.4-2.9 3.6-6.9 3.9-13 .2-4.8 1-8 2.5-10.5-2.6.7-4.3.2-6-1.5a23 23 0 0 1-4-9.7l-.1-.6.4.2c3.9 1.7 8-.1 13.5-6.3s9.5-7.7 13.3-5c8.6-10 16.5-9.6 25.2 1.3 4.6 6.2 6.3 14 5.5 24.7zm-.3-8.4a30 30 0 0 0-5.5-15.9c-8.5-10.7-16.2-11-24.7-1.1l-.2.1h-.1c-3.6-2.8-7.4-1.4-12.9 4.7s-9.6 8-13.5 6.7q1.5 6.3 3.6 8.6c1.9 1.8 3.7 2.1 6.5 1.2l.3.6q-2.7 3.1-3 11c-.3 6-1.5 10-3.8 13 6.2 3.2 10.4 3.1 14-.4 3.2-3.6 4.6-9.3 4.4-18v-.8l.4.5c2.6 3.3 5.1 4.8 8.5 5.1 3.2 0 5.4-1 7.5-4-3-2-4.7-4.4-5.4-8.2q-.7-5 1.5-11c2.7-6.5 6.7-8.1 13.4-5.4 5 2.4 7.7 6.5 9 13.3"/><path fill="#337321" d="M680.9 493.2a28.8 28.8 0 0 1-43.4-23.5c-2-26 15.6-35.6 20.8-38.6 7.9-4.2 13.3 4.9 11.1 15.8 8.5-3.8 10.3-16.4 6.3-24.8 11.4 1.6 21.3-9 26-25.3-4.4 4.7-14.4 1-23.5-.5 2.6-4.1 2.6-11.6 1.9-16-9.5 12.2-22.5 5.5-40.4 41.2l11-55.2.6-5c.6-24.6-17.7-26.8-22.2-16.2 4.3 7.6 2.2 15 .5 27.3-1.9 14.3-6 47.3-9.5 58.1-1.4-17.6-9.3-19.8-11.2-28.5-2.4 2.2-3.7 7.5-3.3 11.9-3.5-4.6-12.9-1-17.2-7.9-3.8 11 2.4 22.4 9.3 28.4-4 .4-5 5.8-9.3 5.7 6 10.2 11.8 14.5 18.9 16.3 7 1.7 12 5.6 16.3 17.7a38.6 38.6 0 0 0 57.3 19"/><path d="m681 493.5-2.7 1.5a37 37 0 0 1-32.7 2 38 38 0 0 1-22.2-22.8c-3.7-10.1-8.8-15.6-16.2-17.5s-13.4-7-19-16.4l-.3-.6.5.1q2.3.3 4.8-2.8 2-2.4 3.8-2.8c-9.9-8.8-12.7-17.8-8.8-28.3l.2-.5.2.4c1.6 2.6 4.4 4 9.8 4.9q5.1.6 6.9 2.3c-.4-5.5.6-8.8 3.5-11.3l.3-.2v.4q.7 3.4 4 8.3 6.1 8.8 7.1 19 3.1-11 8.5-52l.7-4.9.8-5.9q2.2-15.2-1.3-21v-.4c2.7-6.5 6.6-8 13.3-5.3 6.8 3.2 9.7 10 9.4 21.5l-.7 5.2-10.5 53.2a71 71 0 0 1 28.5-31.2 35 35 0 0 0 11-8.3l.3-.5.1.6c1.3 7 .7 12-1.6 15.9l6.1 1.2c9.4 2 14.5 1.6 16.7-.8l.3.4c-5.2 19-13.4 27.2-25.6 25.6a22 22 0 0 1 1.3 13.9c-1.3 5.7-3.8 9-8 10.9l-.5.1.2-.6c1.2-5.5.6-9.5-1.7-13.3-2.7-3.6-5.2-4.2-9.1-2l-.4.2c-15.1 9-21.7 21-20.2 38 1.3 12.1 6.7 20.1 17 24.8a26 26 0 0 0 26-1.6zm-10 4a29 29 0 0 1-16.4-2.4q-15.5-7-17.3-25.4c-1.5-17.2 5.2-29.6 20.5-38.7l.4-.2c4-2.2 6.8-1.6 9.6 2.3 2.4 3.8 3 7.9 2 13.3 3.8-1.9 6-5 7.2-10.2 1-5.3.6-9.6-1.5-14l-.3-.6.5.2c12 1.8 20.1-6 25.4-24.1-2.7 1.8-7.7 2-16.3.3l-6.6-1.4h-.5l.3-.5c2.5-3.7 3-8.4 2-15.2a37 37 0 0 1-10.8 8.1 71 71 0 0 0-29.3 32.7l-.4-.3 11-55.2.6-5c.3-11.3-2.5-17.8-9-20.9-6.3-2.6-10.1-1.2-12.7 4.8 2.4 4.4 2.8 11.2 1.3 21.5l-.8 5.8-.7 5a439 439 0 0 1-8.9 53.3l-.4-.2a40 40 0 0 0-7-19.8 28 28 0 0 1-4.1-8.2c-2.6 2.5-3.5 5.9-3 11.3l.2 1.2-.6-1c-1-1.3-3-2.1-7-2.7-5.2-.7-8.1-2.1-10-4.6-3.5 10.2-.5 19 9.4 27.4l.8.7h-.9q-1.8 0-4.2 2.7-2.4 3-4.5 3 7.8 13 18.3 15.5c7.5 2 12.7 7.6 16.6 18a37 37 0 0 0 21.8 22.4 36 36 0 0 0 25.2 1.1"/><path fill="#f7e017" d="M717 472.1c-8.6 31-30.5 51.4-40.7 54.3-17.3 4.6-52.1 24.2-61.6 35q-2.2-1-3.9-2.7a28 28 0 0 1-.3-31.3c26-29.4 53-13.2 70.4-34.2a28.8 28.8 0 0 1-43.3-23.5c15.8 7.2 43.2 10 66-22a207 207 0 0 1 13.3 24.4"/><path d="M717.1 472.3q-12.4 46.7-40.8 54.4c-26.6 7-46.8 18.1-61.5 34.9h-.2q-2.4-1-4-2.6a23 23 0 0 1-5-13.6c-.5-7.1 1-12.9 4.7-18.3 9.6-10.9 23.3-17.6 42-21a50 50 0 0 0 27-11.6 27 27 0 0 1-24.6.6c-10.5-4.8-16-13-17.4-25.4v-.5l.3.2c25.7 11.7 47.1 4.4 65.8-21.8l.2-.3.1.3a133 133 0 0 1 13.4 24.4v.1zm-.5-.2q-2.2-6.9-13-23.8c-18.7 26-40.1 33.3-65.7 21.8 1.4 12 6.8 19.7 17 24.4a26 26 0 0 0 25.9-1.7l.3.6q-7.9 9.7-28.7 13.5c-18.6 3.3-32.2 10-41.7 20.7a26 26 0 0 0-4.6 17.8q.8 8.7 4.8 13 1.5 1.5 3.7 2.6c14.7-16.8 35-28 61.6-35q28-7.4 40.4-53.9"/><path fill="#337321" d="M664.6 541.8C651.7 556 645 591.7 646.3 617q.7 10.3 4 14.9c1-14.4 8.2-49.5 26.5-64.9a163 163 0 0 0 48.9-78 30 30 0 0 0-9.6-15.4c-9.2 33.2-32.7 48-51.5 68.2"/><path d="M664.4 541.5q4.7-5 14.8-14.5 29.9-28.6 36.7-53.5v-.4l.4.2q7.1 6.6 9.6 15.7v.2a146 146 0 0 1-49 78c-15.5 13-24.2 34-26.4 64.8v.6l-.4-.5a30 30 0 0 1-4-15c-2-35.4 4.2-60.1 18.3-75.6m.4.6c-14 15.3-20.1 39.8-18.3 74.9a32 32 0 0 0 3.6 14.1c2.2-30.5 11-51.5 26.6-64.4a145 145 0 0 0 48.7-77.6c-1.6-6-4.6-10.7-9.1-15q-7 25-36.8 53.5a339 339 0 0 0-14.7 14.5"/><path fill="#316d3a" d="M708.6 457.5a65 65 0 0 1-25.2 26.5 23 23 0 0 0 3-11c-13.3 6-38.1 3-48.9-3.3 15.9 7.3 43.3 10 66-21.8q3.4 5 5 9.6"/><path d="M708.8 457.7a55 55 0 0 1-25.3 26.7l-.3-.6a21 21 0 0 0 2.9-10.3 50 50 0 0 1-48.7-3.4l.2-.7c25.6 11.7 47 4.5 65.7-21.7l.2-.3.2.3q4 6.3 5.1 9.7v.2zm-.5-.2q-1.1-3.3-4.8-9.1c-17.4 24.4-37.2 32.3-60.7 24 14.6 6.9 28.7 7 43.4.3l.4-.1v.5q-.3 6.2-2.5 10.2a55 55 0 0 0 24.2-25.8"/><path fill="#337321" d="M610.5 527.4c-20.5 24.4-7.2 48.7 1.1 55.2C609.8 601 622 600.3 622 616c5.1-3.8 6.5-14 5.7-22.8 7 10.1 22.7 1.5 26.8 19.4 2-19.9-8.9-39.8-23-39.9 5.6-6.9 2.6-18-3-22-1.5 14.5-12.6 13-17.7 8.1a28 28 0 0 1-.3-31.3"/><path d="m610.4 527.1.3.5a26 26 0 0 0-4.6 17.8q.8 8.7 4.9 13c3 3 6 4 10 3.3 4.5-1.3 6.7-4.5 7.4-11v-.5l.3.2c3 2.2 4.8 5.2 5.8 10.1.8 5 0 8.5-2.3 11.8 6.8.3 12.1 4.2 17 12.6a45 45 0 0 1 5.5 27.7h-.5c-1.6-7-6-11-14.7-13-5.7-1.2-9.2-3-11.4-5.6.8 11.7-1 18.6-6 22.2l-.4.2v-.5a25 25 0 0 0-5.1-14.5c-4.2-6-5.9-11.9-5.2-18.6a34 34 0 0 1-11.5-21 40 40 0 0 1 10.5-34.7M608 531a39 39 0 0 0-7.7 30.7 33 33 0 0 0 11.3 20.7l.2.2v.2a26 26 0 0 0 5 18.3 26 26 0 0 1 5.3 14.3c4.6-3.6 6.3-10.6 5.3-22.2l-.1-1 .5.8c2 2.8 5.5 4.7 11.6 6 8.3 2 12.9 5.6 14.9 12.1q1.1-13.9-5.6-25.7c-4.9-8.5-10.3-12.3-17.2-12.4h-.8l.6-.6c2.6-3.2 3.4-6.7 2.6-11.7-1-4.5-2.5-7.3-5.2-9.4-.8 6.5-3 9.9-7.7 11.1-4.2.8-7.3-.2-10.4-3.3a23 23 0 0 1-5-13.6c-.5-5.5.3-10 2.4-14.5"/><path fill="#f7e017" d="M655.7 701.7c-2.2 2-2 5.3-.7 8.3 2.6 5.8-1.8 16.4 7.2 20.2 3 .8 4.6-1 5.9-5.3 2.4-11.5-5.9-13.5-7.1-19.2s-3.2-5.3-5.3-4"/><path d="M655.5 701.4q2-1.3 3.3-.6c1.3.7 2 2 2.4 4.9q.4 1.9 3.1 5.1c4 4.7 5.1 9 4 14.2-1.4 4.9-3 6.4-6.1 5.5-4.2-1.7-6.1-5.7-6.4-13.1q0-5.4-1-7.2-1.1-2.2-1.1-4.8.1-2.8 1.8-4m.3.6q-1.5 1-1.6 3.5 0 2.2 1 4.3t1.1 7.6c.2 7.1 2 10.8 6 12.5 2.7.7 4.2-.6 5.5-5.1 1.1-5 0-9-3.8-13.5q-3-3.4-3.3-5.6-.5-3.6-2-4.3-1.2-.6-2.9.6"/><path fill="#f7e017" d="M663.4 724.4c-3 1.7-5.5 4-4.4 17.6.4 6.1.2 18.4-3.3 19 2.5 1.7 6.3 3.4 8.7.3 2.2 4.3 5.7 3.5 7.6-1.6 2.6 2.2 5-1 5.2-4.9 2.2 1.6 5.4-.2 4.8-8.4 2.6 1 5-.6 6.4-2.8a34 34 0 0 1-14-13.2c-2.5-5.3-7-7.8-11-6"/><path d="M663.3 724c5-2.5 8.4-.6 11.3 6.3a22 22 0 0 0 13.8 13l.4.1-.2.4c-2 3.3-3.7 4.1-6.3 3.1q.4 5.3-1.4 7.7-1.8 2-3.4.8a7 7 0 0 1-1.9 4.4q-1.8 2-3.5.4-1.3 3.6-3.8 4.1c-1.8.3-2.8-.4-4-2.4-2 2.6-4.4 2.4-8.7-.7v-.6c1.6-.2 2.4-2.1 3-7q.6-5.9.1-11.6c-.8-10 .6-15.5 4.6-18m.2.7c-3.7 2.3-5.1 7.6-4.3 17.3q.5 6-.1 11.7c-.6 4.5-1.4 6.6-2.7 7.4 4 2.6 6 2.6 7.8 0l.2-.4.2.4q1.4 3 3.6 2.6 2.4-.6 3.6-4.2l.1-.4.3.3q1.4 1.6 3-.1a7 7 0 0 0 1.8-4.5v-.6l.4.4q1.5 1.5 3.1-.5c1.2-1.7 1.6-4 1.2-7.7v-.5l.3.2c2.5 1.2 4.1.5 6-2.3a23 23 0 0 1-13.9-13.2c-2.7-6.5-5.8-8.3-10.6-6m-47.5-382a46 46 0 0 1 4.6-7.2l.4.5a48 48 0 0 0-4.6 7zm52 54.3c2.2-1.4 5.3-1.7 10.2-1v.7q-7-1-10 1z"/><path d="M664.2 761.5c-1.4-3.2-1.6-7.8-.7-14.7h.5q-1.4 10.2.6 14.3zm7.7-1.6c-2.8-3.2-4.3-7-5-12.3h.5q.9 7.3 4.8 11.8zm5.2-4.7c-3.7-2.9-6.1-7.7-7.7-15.5l.5-.2c1.5 7.7 3.9 12.3 7.4 15zm4.8-8.5c-4.9-2-8.7-6.4-12.1-14.3l.4-.3c3.4 7.7 7.1 12 11.8 14z"/><path fill="#f7e017" d="M807.7 533.2c33.4 35 35.8 63.7 30.6 83-3-16.6-16.6-40-31.1-45.6z"/><path d="M807.9 533c28 29.2 38 55.5 30.6 83.3l-.3 1-.2-1c-4.2-24.8-14.3-39.2-30.9-45.4h-.2l.6-38.4zm0 1-.5 36.3c16.5 6.2 26.5 20.4 31 44.7 6.7-27-3.3-52.5-30.4-81"/><path fill="#337321" d="M747.7 514.9a670 670 0 0 0 62.2-3.5v100.5c-.2 86.1-34.9 139.8-70.4 166.8-35.5-27-70.2-80.2-70.3-166V512q21.5 1.6 43.6 2.4c0 5.3.5 13 5 21 10.3-1.4 21.7-11.5 30-20.6"/><path d="M810.2 511v101c-.2 73.3-23.5 131.2-70.5 167h-.2c-47.2-36-70.5-93.2-70.6-166.4v-101q21.8 1.8 44.1 2.5v.4q.3 12.3 4.8 20.7c8.6-1.2 18.2-7.8 29.8-20.6a704 704 0 0 0 62.6-3.6m-62.4 4.2c-11.6 13-21.4 19.5-30 20.6h-.2a45 45 0 0 1-5-21q-21.3-.7-43.2-2.4v100.3c.1 72.8 23.3 129.9 70.1 165.6 46.8-35.7 70-93.3 70.2-166.3V511.8a672 672 0 0 1-61.9 3.4"/><path fill="#006ec7" d="M810 511.4v100.5c-.1 26-3.3 49-8.7 69.2l-61.7-152-61.8 152.5q-8.3-30.2-8.6-69V512.1c46.4 3.5 92.9 4.2 140.7-.7"/><path d="M810.2 612q-.1 37-8.6 69.2l-.2.7-61.8-152.1-61.8 152.6-.2-.7a268 268 0 0 1-8.6-69v-101a775 775 0 0 0 141.2-.7zm-.5-100.3a776 776 0 0 1-140.2.7v100.3q0 36.5 8.3 68l61.8-152.4 61.7 152q8.3-31.8 8.4-68.3z"/><path fill="#f7e017" d="M803.2 673.5c-1 4.7-3.1 12.3-4.6 17l-59-147.4-59 147.8c-1.6-4.7-3.6-12.2-4.7-16.8l63.7-158.9z"/><path fill="#f7e017" d="m767.6 731 6 3.7a84 84 0 0 0 2.7-33c-3.9 12.5-15.2 12.8-18.8 20.1q3 2.2 5.5 4.7a69 69 0 0 1-19.1 17.5v-80c-.1-5.5-1.3-10.2-1.4-14.8v-16.5c0-4.1-.6-8.7-3-9.2-2.5.5-3 5-3 9.2v16.5c0 4.6-1.3 10-1.4 14.9v80c-3.3-11.8-14.3-8.2-20.2-20.2q3.2-1 6.6-.2c-4.4-19-15-21-17.5-26.6 0 8-2.2 25.8 1.4 34a17 17 0 0 1 3.7-4c5 13.9 25.1 14.6 30.4 37 4.1-8.2 18-18.2 28.1-33"/><path d="M767.7 731.4q-5.1 7.5-16.4 19.1a73 73 0 0 0-11.6 13.9l-.3.6v-.7c-2.1-8.7-8-16.2-18.1-23.6a34 34 0 0 1-12.3-13.1 16 16 0 0 0-3.4 3.7l-.2.3-.2-.4q-2.9-6.2-1.7-26.8l.3-7.3.5-.2q.7 1.8 4.4 5 10.2 8.8 13 21.7l.2.6-.4-.2q-3-.8-6.2.1a23 23 0 0 0 10.4 9.4q7 3.7 9.2 8.9v-78.3q0-2.5.7-7.7.7-5 .7-7.2v-16.6q0-3.6.6-6 .8-3.3 2.6-3.4 1.8 0 2.6 3.4.6 2.4.6 6v16.6q0 2.2.7 6.7.7 5.2.7 8.2v79.5q8.9-4 18.5-17.1-3.2-3-5.2-4.3l-.2-.2.1-.3q1.5-3.1 7.7-7.2 9-5.8 11.1-12.8l.4-1.3v1.3q2 20-2.6 33.1l-.1.4-.3-.2zm0-.7 5.8 3.6a77 77 0 0 0 2.7-31.3 26 26 0 0 1-11 12.1 22 22 0 0 0-7.3 6.6l5.2 4.5.3.2-.2.3a50 50 0 0 1-19.3 17.6l-.3.2V664q0-3-.7-8-.7-4.7-.7-7v-16.5c0-6-.8-8.4-2.7-8.7q-1.4-.1-2.2 2.9-.5 2.4-.5 5.8v16.6q0 2.3-.7 7.4t-.7 7.5v80h-.5c-1.2-4-4-7-9.4-10a23 23 0 0 1-10.8-10l-.2-.4.4-.1q3.3-1 6.2-.3-2.8-12.3-12.7-20.8-3-2.6-4.1-4.4l-.3 6.4a73 73 0 0 0 1.5 26q1.4-2 3.5-3.7l.2-.2.2.3q2 5.9 12.1 13.2c10 7.3 15.9 14.7 18.1 23.3q2.4-4.1 11.4-13.4 11.4-11.7 16.4-19.2l.1-.2z"/><path fill="#f7e017" d="M739.5 665c4.7 0 19.4-2.1 24.7-2.4 1.5-.3 2.4-2.7 2.6-6.4q-.2-5.7-2.6-6.2c-5.3 0-20-1.6-24.7-1.7-4.6.1-19.3 1.8-24.7 1.7q-2.2.6-2.5 6.3.2 5.7 2.5 6.4c5.4.2 20.1 2.3 24.7 2.4"/><path d="M739.5 665.4q-2.2 0-11.5-1l-13.2-1.4q-1.1 0-2-2.1-.7-2-.8-4.6c.1-4.6 1-6.4 2.8-6.6q2.8 0 13.2-.8l11.5-.9q2.3 0 11.7.9 10.3.8 13 .8 1.2-.1 2 2 .8 1.7.8 4.5c0 4.6-.9 6.4-2.8 6.7q-2.7.2-13 1.5-9.5 1-11.7 1m0-.6q2.3 0 11.5-1.1l13.2-1.4c1.6-.3 2.2-2 2.3-6q0-2.7-.7-4.4-.7-1.6-1.6-1.6-2.7 0-13-.8-9.5-.8-11.7-.8t-11.5.9q-10.4.9-13.2.7c-1.5.2-2.2 1.8-2.3 6q0 2.5.8 4.3.6 1.7 1.5 1.8 2.8 0 13.2 1.3 9.3 1 11.5 1"/><path fill="#f7e017" d="M736.6 632.3q-1.6-1.5-3.8-1.7-5 .6-5.6 6.9c.3 4 2.3 6.7 5.6 7q5.1-.6 5.6-7c.3-3 2.9-3 3.2 0-.3 6.4-3.8 10.7-8.8 11-5-.4-8.5-4.8-8.7-11 .2-6.3 3.7-10.6 8.7-10.9q2.2 0 4 1.3z"/><path d="M736.4 632.6a5 5 0 0 0-3.5-1.7q-2.3 0-3.9 2a8 8 0 0 0 0 9.4q1.6 1.9 3.9 1.9c3.7-.2 5-2 5.3-6.6h.4c-.1 5-1.7 7-5.8 7.3q-2.3 0-4-2.2a9 9 0 0 1 0-10.4q1.7-2 4-2a5 5 0 0 1 3.5 1.4q0-1.3.3-3.4v-.2q-1.8-1.1-3.8-1.2c-5.7.3-8.3 3.3-8.4 10.5q0 4.4 2.4 7.6 2.6 3 6 3.2c3 0 4.7-.8 6.3-2.5l.1-.1.2-.3q1.9-2.7 2-7.7h.4q0 4.4-2.4 7.7l-.3.4a8 8 0 0 1-6.2 3.1c-6.2-.3-8.8-3.7-9-11.4.2-7.6 2.8-11 9-11q2 0 4 1.2h.2v.8l-.3 4v.7z"/><path fill="#f7e017" d="M714.9 662.7q2.2-.6 2.5-6.3-.2-5.7-2.5-6.4z"/><path d="M714.9 662.4q.8 0 1.5-1.7.6-1.8.7-4.3c0-4.2-.7-5.8-2.2-6v-.7q1.1 0 2 2 .7 2.1.7 4.7c0 4.6-.9 6.4-2.7 6.6z"/><path fill="#f7e017" d="M717 662.7q2.1-.5 2.4-6.2-.2-5.7-2.5-6.4z"/><path d="M717 662.4c1.5-.2 2-1.8 2.1-6q0-2.5-.7-4.3-.6-1.6-1.5-1.7v-.6q1.1 0 2 2 .7 2 .7 4.7c0 4.6-.8 6.3-2.7 6.5z"/><path fill="#f7e017" d="M730.4 664.3q2.7-.7 3-7.6-.3-7-3-7.7z"/><path d="M730.4 664q1-.1 2-2 .7-2.2.7-5.3c0-5-.8-7-2.7-7.3v-.7c2.2.3 3.1 2.5 3.2 8q0 3.3-.9 5.5-1 2.4-2.3 2.4z"/><path fill="#f7e017" d="M733.5 664.6c1.8-.3 3-3.3 3.2-8q-.4-7-3.2-8z"/><path d="M733.5 664.3q1.1 0 2-2.2t1-5.4c-.2-5.4-1-7.4-3-7.7v-.7c2.3.4 3.3 2.6 3.4 8.4a16 16 0 0 1-1 5.7q-1 2.6-2.4 2.5z"/><path fill="#f7e017" d="M744 664.7c1.9-.4 3-3.4 3.2-8q-.4-7.4-3.2-8.1z"/><path d="M744 664.4q1.1 0 2-2.2 1-2.4 1-5.6 0-3.3-1-5.5-.9-2.1-2-2.2v-.6q1.4-.1 2.5 2.5.9 2.5 1 5.8c-.2 5.8-1.1 8.1-3.5 8.5z"/><path fill="#f7e017" d="M747.3 664.5q2.8-.8 3.1-7.9c-.1-4.5-1.3-7.4-3.1-7.7z"/><path d="M747.3 664.2q1.1-.2 2-2.2a15 15 0 0 0 .9-5.4c-.1-5.1-1-7.1-3-7.4v-.6c2.4.2 3.3 2.4 3.5 8q0 3.3-1 5.7t-2.4 2.5z"/><path fill="#f7e017" d="M762 662.8q2.2-.7 2.5-6.6-.2-5.8-2.6-6.3z"/><path d="M762 662.5c1.5-.3 2.2-2 2.2-6.2q0-2.7-.7-4.4t-1.6-1.7v-.6q1.3-.1 2 2 .9 1.8.8 4.6c0 4.7-.8 6.6-2.8 6.9z"/><path fill="#f7e017" d="M709.1 727a19 19 0 0 1 5.9-3z"/><path d="M709 726.8q3-2.2 6-3.2v.7q-3 .9-5.7 3z"/><path fill="#f7e017" d="m764.6 728-1.6-1.5z"/><path d="m764.5 728.2-.7-.6-1-.9.4-.5 1 .9.6.6z"/><path fill="#f7e017" d="M767.6 731a64 64 0 0 0 8.8-19.5z"/><path d="M767.5 730.8q6.2-9.5 8.6-19.4l.5.1a64 64 0 0 1-8.8 19.7z"/><path fill="#fff" d="M727 586c.1-1.9 1-2.6 2.4-3.9 1.6-1.6 2.1-2.2 3.6-2.3h17.8c1.4 0 1.7.3 1.7 2v33.3c0 1.7-.3 2-1.7 2.2H727v-31.7z"/><path d="M726.8 586v-.4q.3-1.4 2-3.3l.5-.5.3-.3q2-2 3.4-2h17.9q1-.1 1.4.4t.4 2V615q0 2.4-1.9 2.5h-24zm.5 0v31h23.6q1.4-.2 1.4-2v-33q0-1.9-1.5-1.8H733q-1.1 0-3 2l-.4.3-.5.5q-1.6 1.7-1.7 3"/><path fill="#e5e5e5" d="M746.4 620.2c2.4 0 2 0 3.6-2.4 1.7-2.3 1.6-2.1 1.6-4.3v-30.4q.2-2.2-1.5-2h-16.6c-1.3.1-1.8.7-3.3 2.2-1.2 1.3-2 2-2.1 3.7v33.2z"/><path d="M746.4 620.6h-18.6V587q0-1.7 1.9-3.5l.4-.4.3-.4q1.9-1.8 3.1-1.9h16.6q1 0 1.3.5t.4 1.8V614q0 1.8-1.6 4l-.7 1q-1 1.5-3 1.6m0-.7q1.7 0 2.7-1.3l.6-1a7 7 0 0 0 1.6-3.6v-30.9q0-1-.3-1.3t-1-.4h-16.6q-1.1 0-2.8 1.8l-.3.4-.4.4q-1.7 1.6-1.7 3v32.9z"/><path fill="#fff" d="M748.2 619.5c0 1.7-.3 2-1.6 2.2h-18c-1.3-.2-1.5-.5-1.6-2.3v-33.2c0-1.7.3-2 1.7-2.1h17.9c1.3 0 1.6.4 1.6 2.1z"/><path d="M748.4 619.5q0 2.5-1.8 2.5h-18q-1.7 0-1.8-2.6v-33.2q0-2.5 1.8-2.5h18q1.8 0 1.8 2.5zm-.5 0v-33.3q0-1.2-.2-1.4-.3-.3-1.1-.4h-18q-.8 0-1 .3-.3.4-.3 1.5v33.2q0 1.8 1.4 1.9h17.9q.9 0 1.1-.3.3-.4.2-1.5"/><path fill="#96877d" d="M782.9 494.1a24 24 0 0 1 2.7 19.3l-5.2.3c2.1-9.4.9-17-8.4-18.1-13.9-.5-30 35.6-54.3 39.9-7-12.2-6.6-33.4 2.3-44a161 161 0 0 0-21.3-48c-4.5-1-9.6-1.8-13-1.8a51 51 0 0 1 22-24.8l4-7.4c1.5-13.5 50.3-7.2 61.4 1 0 16.2 4.7 69.3 9.8 83.6"/><path d="M783.1 494a23 23 0 0 1 2.8 19.5l-.1.2-5.7.4.1-.5q1.6-7.3 0-12c-1.4-3.6-3.8-5.2-8.3-5.7q-6.2-.4-21.2 16.1c-13.4 14.7-24.2 22.3-33 23.8h-.1l-.1-.1c-10-16.8-9.2-31 2.2-44.3a134 134 0 0 0-21.1-47.5q-7.5-2-12.8-2l-.4.1.2-.5a43 43 0 0 1 21.9-25l4-7.1c.7-6.9 9.3-9 27.2-7.8q25.3 1.8 34.5 8.6v.1l.1.2q.2 57 9.8 83.4m-.4.5v-.1q-9.6-26.8-9.9-83.6-9-6.7-34.1-8.5c-17.7-1.1-26.1.8-26.8 7.4v.2l-4 7.2-.1.1a43 43 0 0 0-21.6 24.2q5.4 0 12.5 2h.1q13.8 18.3 21.4 48.1v.4c-11.2 13-12 26.9-2.4 43.3 8.6-1.6 19.3-9.1 32.6-23.6 10.2-11.2 17-16.4 21.6-16.3 4.6.5 7.1 2.3 8.7 6.1q1.7 4.6 0 12l4.8-.3c1.7-7.2.8-13-2.8-18.6"/><path d="M722.4 505a113 113 0 0 0-18.8-59.8 22 22 0 0 0 21.8-4.1c9.2-8.2 32.1-22.2 41-16.8.7 2.2 1 6.6.6 9.6-2.7-6.9-24.3 4.5-31.1 8.2-6.2 4-8.7 8.9-6.7 20.8-3.4-4.3-2.5-7.8-6-11 1.4 4.8 2.7 13.5 3.1 20.6-1.4-5.1-3.9-15.7-9.1-22.4a169 169 0 0 1 6.7 57.7c3.9-.2 11.5-4.7 15-8.3-3 5.6-10.8 9.3-16.4 10.8-2.3 4-3.9 13.7-3.9 19.4-.2-7.3 1.4-23 3.8-24.6m60.5-11c-4.8-6.6-12.7-9.6-23.7-5.5 1.7-1.2 5.1-3 8.3-4-.4-3.9-3-20.6-3.4-24.7l3-1.7a373 373 0 0 0 4.6 26c1 .3 3.1.9 5.1 2a627 627 0 0 1-5.3-34.7l4-3.2A293 293 0 0 0 783 494"/><path fill="#96877d" d="M780.5 513.8c2-9.4.8-17.1-8.5-18.2-7.3-.2-14.8 9-24.2 19.3q16.1-.2 32.7-1.1"/><path d="M780.6 514.1q-16.4 1-33.5 1.1l.5-.6 3-3.2c10.1-11.1 17-16.2 21.4-16.1 4.6.5 7.1 2.2 8.8 6a23 23 0 0 1-.1 12.5zm-.3-.7c1-5 1-8.6 0-11.7-1.5-3.6-3.9-5.3-8.3-5.8-4.4 0-11 5-21.1 16l-2.4 2.6q15.7-.2 31.8-1"/><path fill="#96877d" d="M720.2 434.4c-4.3.6-13-.8-17.9-3q.5-2.5 1.4-5.2a67 67 0 0 0-10.4 10.7c6.9 2.2 19.7 3.6 26.9-2.5"/><path d="m720.2 434.1.1.6c-6.4 5.6-15 6.5-27 2.5l-.4-.1.2-.4q2.3-3.7 10.4-10.8l.7-.6-.3 1-1.3 4.9a30 30 0 0 0 17.5 2.9m-1 .8q-8.2.9-16.9-3.2l-.2-.1v-.3l1.1-4.3a61 61 0 0 0-9.4 9.7c11.2 3.6 19.2 3 25.4-1.8m1.1 56.6a82 82 0 0 1 2.7 17h-.5q-.3-7.1-2.6-16.8z"/><path d="M707.9 417.1a56 56 0 0 0-5.3 14q8.9 4.3 17.5 3l.1.6c-6 1-11.7 0-18-3l-.2-.1v-.3q1.1-5.9 5.5-14.6z"/><path d="m698.8 443.3 4.8 1.6c8.3 3.4 15 2 21.6-4.1l2.3-2.3q25.2-25 44.2-28.1v.6q-18.8 3-44 28l-2.2 2.3a19 19 0 0 1-22 4.3q-1.9-.9-4.8-1.7z"/><path d="M693.4 436.6c11.9 3.9 20.3 3 26.7-2.5q24.6-22.2 46.5-24.7v.6q-21.7 2.6-46.3 24.7c-6.4 5.6-15 6.5-27 2.5z"/><path fill="#337321" d="M807.7 533.2c23 19.4 39.7 37 44.8 69.7s14 39.7 25.6 28.2c-3 20.2-16.6 25.3-28.9 12.6 1 22.4-5.4 50-22.4 62.4-.8-13.3 5.2-24.8 3.6-35.6-.8-5-1-15.5 3.5-21.7-9.3 5.2-22.8-.6-24.5-19 10.7 5.7 23.4 5 28.9-13.7 5.2-19.2 2.8-47.9-30.6-82.9"/><path d="M807.9 533c26 22 40.8 44.1 44.8 69.8 2.5 15.9 5.9 25.8 10.3 30.5 4.4 4.2 9 3.5 15-2.4l.5-.5-.1.7c-1.6 10.2-5 16.2-11.2 19-6 2.3-11.5.6-17.7-5.6q1.9 44.2-22.6 61.9l-.2.2v-.5q-.6-6.6 2-18.5 2.3-11.6 1.5-17c-1.5-9-.6-15.6 2.7-20.9-4.8 2.3-9.2 2-14.2-1.2-5.8-4-8.8-9.8-9.5-18.6v-.5l.3.2q8.8 4.6 16.3 2.2c5.9-2.2 9.7-7.2 12.3-15.8 7.3-27.4-2.8-53.4-30.5-82.5zm4 4.2c24.9 27.5 33.7 52.6 26.6 79q-3.7 13-12.7 16.3c-5 1.6-10 1-16.1-2.1q1.1 12.1 9.2 17.5c5.3 3.3 9.9 3.5 15 .6l.2.5c-3.9 5.2-5 12-3.5 21.4a52 52 0 0 1-1.5 17.3 75 75 0 0 0-2 17.8q24-17.6 21.9-61.7v-.8l.4.4c6.2 6.5 11.7 8.3 17.7 6 5.8-2.6 9-8 10.7-17.5-6.1 5.7-10.6 6.2-15.1 2-4.6-4.8-8-14.8-10.5-30.9-3.7-24-17-45-40.3-65.8"/><path fill="#337321" d="M836.7 355.2c7.4-26.3 25.3-27 31.9-17.7 18.7-17.7 20.3 12.7 36.2 2.5-.5 6.3-5.2 12.7-11.1 14.2 5.6 6.3-2.2 19 10.3 22.5-11.2 10.5-25.8 6.6-30.2-13.2-4 10.6-16 13-21.6 6.2 11.2-6.6 10.3-19.7 4.1-24.5-6.7-4.3-17-.5-19.6 10"/><path d="m836.9 355.3-.5-.1.8-2.9c3.6-10.7 8.5-16.8 15.7-19.6 7-2.4 11.8-1.1 15.7 4.3 7-6.4 13.3-6.5 20.6-.2 6 5.1 10.7 6 15.6 2.9l.3-.2v.4c-.5 8.2-3.8 12.7-10.8 14.5 1.3 2 2 4.8 2.2 9.4.2 7.3 2.6 11.1 7.6 12.5l.5.2-.5.5c-6 5.5-11.5 7-17.9 4.8-6.3-2.6-10.3-8.1-12.5-17.4-2 4.9-5.1 7.6-10 9.1-5.3 1.2-8.7.1-11.7-3.5l-.3-.4.4-.2c5.2-3 7.8-6.9 8.5-12.6.3-5.4-1-8.8-4.4-11.4-3.5-2.2-6.8-2.3-11.2-.4a14 14 0 0 0-7.3 7.6zm2-6a15 15 0 0 1 6-5c4.5-2 8-1.8 11.5.6 3.6 2.6 5 6.2 4.6 11.9a16 16 0 0 1-8.3 13c2.8 3.2 6 4.1 10.9 3 5-1.4 8-4.3 10-9.4l.2-.8.2.8c2.1 9.5 6 15.1 12.5 17.7 6 2.2 11.2.9 17-4.2-5-1.6-7.3-5.6-7.5-13-.2-4.8-1-7.6-2.5-9.4l-.5-.5h.7c6.9-1.7 10.2-5.8 10.9-13.5-5 3-9.7 2-15.7-3.1-7.1-6.2-13.4-6-20.2.4l-.2.2-.1-.2c-3.8-5.5-8.5-6.8-15.4-4.5-6.3 2.5-10.7 7.5-14.1 16"/><path fill="#337321" d="M781.3 416.8a134 134 0 0 0 27 55.3c13.5 15 32.5 8.2 44-9.6-.2 31.5-23 37.4-36.6 29.2-6-3.4-10.3-1.2-5 5.4 8.7 9.5 26.9 15 48.9 17.3 37.7 4.3 25 46.6 13.3 49.4 3.4-1.2 5.7-5.6 1.3-10.6-33.2-32.8-100.1-10.3-99.5-102.5-7.6 24.2-35.7 15.7-22.6-13 4.7 4.7 11.6 4.9 14.2-2.7 1.6-6 .5-15.5-7-24.3 1.4-.2 3.6-.1 3.6-4.4.5 2.8 1.9 5.8 6.3 4.7 1.4 2.8 2.4 4.1 4.3 3.3.4-.3 1.3-.9 1-3.6.7 5.1 4.3 6.4 6.8 6"/><path d="M781.6 416.7q7.5 32.7 26.8 55c14.9 16.8 28.9 13.8 43.6-9.4l.4-.6v.8c0 14.6-4.3 24.2-13.4 29.8a21 21 0 0 1-23.5-.2c-3-2-4.9-2.2-6.5-1.1q-.7.6-.4 2 .4 1.6 2.3 3.8c7.4 8.1 23.4 14.7 48.7 17.3 17.1 1.8 25.2 9.4 25.4 25.1a39 39 0 0 1-3.9 16.5c-2.7 5.2-5.1 7.7-8.2 8.4v-.7q2.6-.6 3.3-3.5c.5-2.4-.1-4.2-2.2-6.4-7.7-7.7-21.5-14-42-20.8-38.4-12.9-57.3-41.4-57.5-80.3-4 11.8-10 15.5-19 12-3.7-1.8-5.8-4.5-6.8-9.1a29 29 0 0 1 3.2-17.8l.1-.3.3.2q3.4 3.6 7.7 3.2c3.2-.5 4.9-2.1 6-5.7 2.3-8.4.1-15.9-7-24l-.4-.4h.6l.3-.1q1.5-.2 2.2-.8 1.1-1 1-3.2l.4-.1a7 7 0 0 0 1.6 3.6c1.3 1.2 2.5 1.4 4.5.8h.1l.1.2q2 4.3 4 3.1 1-.6 1-2.4-.3-.3-.2-.8l.5-.2v1q.6 2.4 2.6 4 2 1.1 4 .9l.2-.1zM875.9 562q2.5-2 4.8-6.7a37 37 0 0 0 3.8-16c-.1-15.3-8.2-22.8-25-24.6-25.4-2.6-41.5-9.1-49-17.3q-1.9-2.4-2.4-4.2t.7-2.8c1.7-1.2 3.7-1 7 1a21 21 0 0 0 23 .3c8.8-5.4 13-14.5 13.2-28.3-14.8 22.9-29 25.7-43.9 9q-19.3-22.6-27-55.3a6 6 0 0 1-4-1 6 6 0 0 1-2.4-3q-.3 1-1.1 1.5c-1.7.8-2.9 0-4.5-3.2q-2.8 1-4.7-1a7 7 0 0 1-1.3-2.3q-.3 1.5-1.1 2a4 4 0 0 1-2.1.9c6.8 8 9 15.7 6.6 24.2-1.3 3.8-3 5.5-6.5 6.1-3 .2-5.3-.7-7.8-3.1q-4.5 9.7-3 16.9 1.4 6.4 6.5 8.6 13.3 5.6 18.8-13.1l.5.1c-.3 39.4 18.4 68.4 57.1 81.3 20.6 6.8 34.5 13.2 42.2 20.8 2.2 2.4 3 4.5 2.4 7.2z"/><path fill="#f7e017" d="M815.6 491.7c16.1 12.3 33.5 9.6 50.2-19.9 5.4-9.4 13.3-18 19.1-20.4 5.5-2.5 5.7-9.2 9.8-12.1-2.7-.9-3.7-4.2-7.9-3 10-7.7 7.5-17.7 12.3-24.7-4.5 2.9-10.2-3.1-16.4 8.6a16 16 0 0 0-2-12.4c.2 5.5-7.7 8.6-9.7 23-1.1 8.2-4 8.4-4.6-3.8a251 251 0 0 0-7.4-45c-3.8-12.4-4.5-28.8.5-32.8q-1.2-2.5-3.2-4c-6.7-4.2-17-.4-19.6 10.1-6.8 26.5 12.5 37.8 11.1 65.6-3.4-19.7-26.8-21.6-27-41.8-7.8 6.1-6.8 14.3-3.8 21.3-5.4-9.5-15.5 8.1-25.6-5-.8 19 10.7 24.8 20.7 24.6-4.7 12.7 1.5 21.5 8.2 24.3.8-20.6 31-16.8 32 18.7-.3 30.7-23.4 36.8-36.7 28.7"/><path d="m815.5 492 .3-.6a21 21 0 0 0 23 .3c9-5.5 13.1-14.7 13.2-28.7-.3-16.7-5.4-26.1-15.9-30-4.2-1.4-7.4-1.2-10.7.8-3.2 2.4-4.7 5.4-4.9 10.5v.5l-.3-.2a16 16 0 0 1-8.5-8.6c-2-5-2-9.9 0-15.7a20 20 0 0 1-14.2-5.2q-7-6.7-6.3-19.7v-.8l.4.6c3.6 4.8 8.3 5.8 15.5 3.3 4.3-1.5 6.8-1.5 8.9 0a23 23 0 0 1-1.4-9.1 15 15 0 0 1 6.1-10.6l.4-.3v.5q-.1 10.4 12.9 21.5a40 40 0 0 1 13.7 18.3q0-12-6.8-28.7a56 56 0 0 1-4.5-34.9 15 15 0 0 1 8.5-10.8c4.5-2 8-1.8 11.5.5q2 1.5 3.3 4l.2.4-.3.2c-2.3 1.9-3.4 5.7-3.5 12.9q.2 9.9 3.2 19.4 6 19.4 7.3 45.2c.3 5.8 1 8.5 2 9.2q.5.4 1.1-1 .7-1.5 1-4.3a36 36 0 0 1 7-16.7q3-4.2 2.7-6.3v-1l.5.6c2.4 3.4 3.2 6.6 2.5 11 2.8-4.5 6-6.3 10.9-6.2q3.3 0 4.7-1l.2.6a28 28 0 0 0-3.4 9 28 28 0 0 1-7.7 14.7q2 0 4.1 1.7a6 6 0 0 0 2.6 1.6l.8.1-.8.5q-1.9 1.2-4 5.4-2.7 5.6-5.9 6.8c-6.5 2.7-12.6 9.1-18.9 20.3-15.6 27.6-32 34.2-50.5 20m1.3-91.4c-1.7-2.9-4.4-3.3-9.6-1.5-7.1 2.6-11.8 1.6-15.6-3-.2 8.3 1.8 14 6.2 18.5 4 3.5 8.4 5.1 14.3 5h.4l-.2.5a20 20 0 0 0-.2 15.6q2.8 5.9 8 8.2c.3-5.2 1.8-8.3 5.1-10.7 3.4-2 6.7-2.3 11.1-.9 10.7 4 15.9 13.6 16.2 30.6 0 14.3-4.4 23.8-13.6 29.4a21 21 0 0 1-19 2c16.7 10 31.4 2.6 45.7-22.7 6.4-11.3 12.6-17.8 19.3-20.5 2-1 3.7-2.9 5.6-6.5q1.8-3.7 3.5-5.2a8 8 0 0 1-2.1-1.4q-2.6-2.4-5-1.4l-.2-.6q6-4.6 8.6-15.2a36 36 0 0 1 3-8.4q-1.5.6-4.1.5c-5.2 0-8.5 2.2-11.3 7.4l-.4-.2c1.2-4.6.7-8-1.6-11.5q-.4 2.3-3 6-5.7 8-6.7 16.3-.4 3-1 4.7t-1.8 1.3c-1.2-.9-2-3.7-2.3-9.8q-1.2-25.6-7.3-45-3-9.6-3.2-19.6c.1-7.2 1.2-11.3 3.6-13.4q-1.3-2.3-3-3.6c-3.5-2.2-6.8-2.3-11.2-.4a14 14 0 0 0-8.1 10.3q-3.6 14 4.4 34.3 7.5 18.3 6.8 31.2l-.5.1c-1.1-6.4-5.5-12.7-13.9-19.9q-12.9-11-13-21.5c-3.4 2.8-5 5.7-5.6 9.8q-.4 5 2.1 10.8z"/><path fill="#f7e017" d="M859.6 514.4c37.7 4.3 25 46.6 13.3 49.4-7.3 1-13.6-5.3-14.3-12.5-8 7.9-6 18.4.3 22.3-17.3.9-24.3 16.5-24.9 33.8a16 16 0 0 1 16.3-9.3c3.9 1 12.2.2 16.3-6.2-2.6 4.4 1.6 11.2-2.3 18.5 14.5-4.2 20.4-23.2 18.1-31 19-28.6 14.7-62.7-22.9-65"/><path d="m859.5 514.7.1-.6c18.2 1 28.7 7.8 32.8 22.6q5.2 20.2-9.7 42.7c1.3 4.6.4 10-2.8 17-4 8-8.8 12.5-15.6 14.4l-.6.1.4-.6q2.2-3.9 1.5-11-.3-3.3 0-5.3c-3.9 4.9-8.5 6.2-15.4 4.4-7.7-2-12.5.7-16 9.2l-.4-.1A46 46 0 0 1 840 584c4.5-6.8 10-10.1 17.8-10.8-2.9-2.2-4.3-5-4.7-9.3-.2-5.2 1.4-9.1 5.4-13l.3-.3v.5c.8 9.8 5.2 13.7 14.1 12.3 3-.8 5.2-3.2 7.8-8.1a37 37 0 0 0 3.8-16c-.1-15.4-8.1-22.8-25-24.7zm10 1.3c10.5 3.7 15.5 11 15.5 23.2a39 39 0 0 1-3.9 16.5c-2.7 5.2-5.1 7.6-8.2 8.4q-13.3 2.4-14.5-12.2a15 15 0 0 0-4.9 12c.5 4.5 2.1 7.3 5.5 9.3l-.2.7a22 22 0 0 0-18.5 10.6 44 44 0 0 0-6 21.5c3.6-7.8 8.5-10.2 16-8.3 7.3 2 12 .2 15.9-5.5q0-.2.3-.5l.3.4-.3.5q-.9 2-.4 6.5.6 6.9-1.2 10.9 9.2-2.8 14.6-13.9c3.2-6.9 4-12 2.7-16.5v-.4c10-15 13.1-28.8 9.8-42.2-3.3-11.6-10.4-18-22.5-21"/><path fill="#f7e017" d="M830.5 696.3c2.4 2.1 2.1 6 .5 9.3-3.1 6.5 1.4 18.5-8.7 22.6-3.3.8-5.1-1.2-6.4-6-2.3-13 7-15 8.5-21.5 1.4-6.3 3.7-5.9 6-4.4"/><path d="M830.6 696q1.9 1.4 2 4.4 0 2.9-1.4 5.4-1 2.1-1.4 8.1c-.5 8.3-2.8 12.8-7.5 14.6-3.4 1-5.3-.8-6.6-6.2-1.1-5.9.4-10.7 4.9-15.8q3-3.6 3.6-5.8.9-4.5 2.9-5.5 1.4-.7 3.5.8m-.2.6q-1.9-1.2-3.2-.7c-1.2.7-2 2-2.5 4.9q-.5 2.4-3.8 6.2c-4.3 4.9-5.8 9.5-4.7 15 1.2 5 2.9 6.7 6 5.9 4.5-1.8 6.6-6 7-14q.4-6.2 1.6-8.5t1.3-4.9q-.1-2.7-1.7-4"/><path fill="#f7e017" d="M821.1 721.6c3.4 2 6.1 4.6 4.5 19.8-.8 6.8-1 20.7 3 21.2-2.9 2-7.2 3.8-9.7.3-2.6 4.8-6.4 3.8-8.5-2-2.9 2.5-5.4-1.3-5.6-5.5-2.5 1.7-6-.4-5-9.6-3 1-5.6-1-7-3.3 4-1.4 13.2-8.5 16-14.4 2.8-5.8 8-8.5 12.3-6.5"/><path d="M821.2 721.3c4.3 2.7 5.8 9 4.6 20.2q-.7 6.3-.2 12.9c.5 5.5 1.4 7.7 3 8l.1.5c-4.9 3.5-7.6 3.6-9.8.6-1.3 2.3-2.5 3-4.5 2.7q-2.8-.7-4-4.8c-1.5 1.2-2.5 1-4-.5a8 8 0 0 1-1.9-5q-2 1.4-3.7-1c-1.3-2-1.8-4.5-1.4-8.6-3 1-4.8 0-6.9-3.6l-.2-.4.4-.1a25 25 0 0 0 15.9-14.2c3.4-7.6 7.1-9.5 12.6-6.7m-.2.6c-5.2-2.6-8.8-.8-12 6.4a25 25 0 0 1-15.9 14.4c2 3.2 3.8 4 6.6 2.8l.4-.2-.1.5c-.5 4.2-.1 6.7 1.1 8.7q1.8 2.2 3.6.6l.4-.3v.5q0 3 1.7 5.1 1.8 2.1 3.5.3l.2-.3.1.4c1 2.8 2 4.2 4 4.7q2.5.7 4-2.7l.3-.4.2.3c1.9 3 4.3 3 8.7.1-1.4-.9-2.2-3.2-2.7-8.3q-.5-6.6.2-13c1.2-11-.2-17-4.3-19.6"/><path d="M818.7 762.8c1.5-3.3 1.9-8.3 1-16l.5-.1c.9 7.8.5 13-1.2 16.5zm-8.4-2a24 24 0 0 0 5.7-13.3h.4a25 25 0 0 1-5.9 13.7zm-5.6-5.7c4-3 6.8-8.2 8.8-16.7l.4.2c-2 8.7-4.9 14.1-9 17.1zm-5-9.6c5.3-1.9 9.6-6.7 13.6-15.3l.4.3c-4 8.8-8.5 13.7-14 15.7z"/><path fill="#f7e017" d="M774.7 450.8c-.3 38.3 11.1 56.9 27.3 68.1-5.7-4.7-3.7-20.9-11.5-26.1 2 0 4.9 2.8 9.7 1.3-2.4-7.2-6-17-15-18.2 2.5-.4 7.2 0 10.7-1.8-5-9.1-16.6-4-21.2-23.3"/><path d="m774.5 450.8.5-.1q2.6 11.7 13 16.6 6.2 2.9 8 6.7l.2.3-.3.2a18 18 0 0 1-8.4 1.5c5.2 2 9.3 7.6 13 18v.3h-.2c-2.2.9-4.4.7-7.4-.5l-1.1-.5c2.4 2.5 4.3 6.8 5.8 14 1.3 6.4 2.8 9.8 4.5 11.3l-.1.3-.1.3q-28-19.6-27.4-68.4m25.7 66.4q-1.7-3-3.1-9.7c-1.7-8-3.8-12.5-6.7-14.4l-.8-.5 1-.1q.6-.1 2.5.7a10 10 0 0 0 6.8.7c-4-11.3-8.7-16.8-14.7-17.7v-.6l3-.3q5-.2 7.3-1.3a17 17 0 0 0-7.8-6q-9.7-4.8-12.7-15.2 0 45.1 25.2 64.4"/><path fill="#f7e017" d="M771.9 414.6q-1.4-.8-2.7-3.5c-4.4 1-5.8-2-6.3-4.7 0 4.3-2.2 4.2-3.7 4.4a27 27 0 0 1 7.1 24.3c-2.6 7.5-9.4 7.3-14.2 2.6-.1 16 14 20.7 20 .5.2 3.3 2.7 3 3.9 7.3 3.7-9 1-20.7-4.1-31"/><path d="M772 414.3c6.4 12.9 7.7 22.9 4.2 31.3l-.3.7-.1-.7q-.5-2.1-2.3-4a6 6 0 0 1-1.6-2.2c-2.8 9.2-6.5 13-12.1 12.4-5.7-1-8-5.4-8-14v-.8l.5.4q3.4 3.8 7.7 3.3c3.2-.6 4.9-2.2 6-5.7 2.3-8.4.1-16-7-24l-.4-.5h.6l.4-.1q1.4-.2 2.1-.7 1-.9 1-3.3h.5a7 7 0 0 0 1.5 3.6c1.3 1.1 2.5 1.4 4.5.8h.2v.1q1.5 2.9 2.5 3.4m-.2.5q-1.1-.5-2.6-3.3c-2 .6-3.3.3-4.7-1a7 7 0 0 1-1.3-2.3q-.3 1.5-1.1 2-.7.7-2.2.8c7 8 9 15.7 6.7 24.2-1.3 3.9-3 5.6-6.5 6.1-3 .2-5.2-.6-7.7-3 0 8 2.3 11.8 7.5 12.9 5.6.6 9.2-3.4 12-13.1l.4.1q0 1.4 1.6 3a9 9 0 0 1 2.2 3.5c3.1-8.1 1.7-17.6-4.3-29.9"/><path fill="#337321" d="M747.9 339.6a55 55 0 0 1-9.7-31c.4-8.6 2.6-16.7 11.4-13.5-2.4.8-1 6.8-3.6 8.2 2.6.9 5.1-1.3 5.8-3.2 1 2.5 3.8 1.9 4.4 4.7 1.2-2-.1-8.1-2.2-10.2 1.5-1.5 2.2-6.6 1.7-9.7-1.5.7-3.2 3-3.8 6.8.6-3.4-.2-9.9-4-11.5a14 14 0 0 0 .1 9.9c-3.8-.8-8.3 2-10 6.2.3-5 1-11.9 3-16.4.6-1.6-.7-4-2.4-.6-3-7.2-9.4-10.6-13-7.4s-6.9-1.4-9.9 3.7c-3 5.5-10.8 5.9-10.9 11.7.2 3.7-.4 8.8-1.6 11-2.8 4.8 1.2 8.2 2.3 12.7-.2-14.5 15.6-40.5 32.5-30.2a69 69 0 0 0-3.3 19.2c-.7 12.8.8 30.3 9.7 41z"/><path d="m748.4 339.8-4.2 1.4c-7.5-8.9-10.7-22.4-9.7-41.3q.7-12.8 3.1-19c-7.6-4.5-14.5-2.7-22.1 6-6.8 8-10 15.7-9.8 24.1h-.4q-.3-1.3-1.7-4c-1.9-4-2-6.5-.6-9 1.3-2.3 1.9-5.5 1.6-10.6 0-2.6 1.4-4.5 5.3-6.9a15 15 0 0 0 5.6-5c1.2-2.2 2.7-3 5.5-2.8q3.2.5 4.5-1c1.9-1.9 3.8-2 6.9-.3q4 2.4 6.2 7.2 1-2 2.1-1.2.6.4.7 1.2.3.8-.1 1.4-2.1 4.4-2.9 14.5c2-4.5 4.7-5.8 9-5-1.4-3.3-1.3-6.1.3-9.5l.1-.1h.2c1.8.7 3 2.1 3.8 5.2q.5 1.6.5 3.1 1.1-2.9 3.3-3.6h.2l.1.2c1 4.9.7 7.7-1.4 9.8q1.4 1.4 2.1 5c.6 3 .5 4.5-.2 5.5l-.4.4v-.6q-.2-1.4-2.1-2.3-1.5-.8-2-1.7-.7 1.2-2.2 2.2-2.1 1.3-3.8.6l-.8-.4.8-.3q1.3-.3 1.7-4.1.5-2.9 1.2-3.8c-3.7-1-5.8-.4-7.9 2.5q-2 3.6-2.5 11a46 46 0 0 0 9.6 30.7zm3.5-49.7q0-2.2-.5-4.7-1.1-4-3.4-4.8a10 10 0 0 0 .2 9.3l.4.7-.6-.2c-5-1.3-7.8.4-9.7 6l-.5-.2q.8-11.7 3-16.5.3-.4.2-1l-.5-.7q-.8-.7-1.7 1.5l-.2.5-.3-.5a15 15 0 0 0-6.1-7.5c-3-1.5-4.7-1.4-6.4.2q-1.5 1.6-4.8 1.2c-2.6-.2-4 .5-5 2.4q-1.4 2.5-6 5.3c-3.5 2.3-5 4-5 6.2.4 5.3-.2 8.7-1.6 11.2-1.3 2.1-1.1 4.5.6 8.2q.8 1.4 1.2 2.6a37 37 0 0 1 10-23c7.8-9 15-10.7 22.9-5.8l.2.2-.1.3a64 64 0 0 0-3.3 19c-.9 18.6 2.2 31.8 9.5 40.6l3-1.2a46 46 0 0 1-9.4-30.8q.3-7.6 2.6-11.4c2.3-3.3 4.8-4 9.1-2.4v.7q-1.2-.1-1.6 3.5-.4 3.2-1.4 4.3 1.3 0 2.8-.8 1.7-1.2 2.1-2.5l.3-1 .2 1q.3 1 2 2 1.8.9 2.2 2.2c.3-1 .3-2.2-.1-4.4q-.8-3.8-2.3-4.8l-.4-.4.4-.3c2.1-1.8 2.6-4.4 1.6-9-1.6.7-2.5 2-3.1 4.9q0 .8-.3 1.6l-.5-.1q0-.9.3-1.6"/><path fill="#cf142b" d="M752.8 295.2c.2-3.6 3.9-7.5 9.8-7.9 7 .3 12.2 7.7 17.7 7s3 3 1.7 4.5a6 6 0 0 0-1.5 4.9c.3 2.1-.2 3.3-2.5 1.6-5.1-3.5-9.6 1.8-16.3-.9-5.7-2.7-8.5-4.1-9-9.2"/><path d="M752.5 295.2q0-2.9 2.9-5.4 3.2-2.7 7.2-2.8a20 20 0 0 1 9.5 4c3.9 2.4 6.3 3.3 8.2 3q2-.3 2.9 0 .9.5.7 1.7a6 6 0 0 1-1.8 3.3 5 5 0 0 0-1.3 4.6q.3 1.8-.4 2.6-.8.8-2.5-.6c-1.8-1.3-4-1.5-7.7-.7a14 14 0 0 1-8.6-.2l-.4-.1c-5.8-3-8.4-5.9-8.7-9.4m.5 0c.3 3.2 2.8 5.9 8.5 8.7l.3.2q3.1 1.4 8.3.1c3.8-.8 6.1-.5 8 .8q1.4 1.2 2 .7.5-.5.2-2-.5-2.9 1.6-5.2 1.4-1.5 1.5-2.9.1-.6-.4-.9-.8-.4-2.6 0-2.8.6-8.5-3.2-6-3.8-9.3-3.9-3.9.2-7 2.7-2.6 2.4-2.6 4.9"/><path fill="#96877d" d="M724.7 383.1a58 58 0 0 0-18.2-28l-.2-6.4c2.7-1.5 9.2-8.2 12.3-12 20.9 13.6 47.8-5.5 61-26.2l5 3.7-2.5 4.7-2.6-1.8a215 215 0 0 1-18.4 24.3 52 52 0 0 0 13.1 2c11.5-11.8 20.4-22.2 24.8-23.6l3.7 6.4-3.3 3.5-2.6-1.9c-12.2 15-26 45.6-31.6 66-8.1-1.9-34.3-.4-40.5-10.7"/><path d="M724.5 383.2c-3.2-13.1-9-22-18-27.9h-.2l-.3-6.8.2-.1q4.6-2.4 12.2-12l.1-.2.1.1c21 14 40.9 5.5 60.9-26l.1-.3 5.3 4.1-2.7 5.2-2.6-1.8q-9 15.2-17.9 23.7 8.1 2.4 12.4 2l7.1-7.5q14.3-15.1 17.8-16.2h.1l4 6.8-3.7 3.8-2.6-1.8a174 174 0 0 0-31.4 65.6v.3l-.3-.1a92 92 0 0 0-10.4-1c-17.6-1.3-27.3-4.8-30.2-9.8zm.4-.2c2.9 4.7 12.4 8.1 29.9 9.4q7.8.5 10.2 1a174 174 0 0 1 31.6-65.8l.2-.2 2.6 1.9 3-3.2-3.5-6a88 88 0 0 0-17.4 16.1l-7.2 7.5v.1q-4.7.5-13.2-2.1l-.6-.2.5-.4q9.2-8.6 18.3-24.2l.2-.2 2.6 1.7 2.1-4-4.5-3.5c-20.1 31.6-40 40-61.1 26.1a47 47 0 0 1-12 12l.2 5.8c9 6 15 15 18.1 28.2"/><path d="M761 341.7q-2.7-.9-4-1.8c-3 3.3-7.5 5.2-14.7 5.7v-.7c7.2-.5 11.6-2.4 14.4-5.7l.2-.1h.1q1.3 1 4.2 2z"/><path d="M725.5 379c-2.2-17.2 0-28 6.4-34l.1-.2.2.1c14.4 13 27.8 12.4 41.8-1.7l.3.5c-14.1 14.2-27.7 14.8-42.3 1.9-6.2 5.9-8.1 16.5-6 33.4z"/><path d="M725.8 371.5q16.2-.5 32.3 2.4 4.5.9 7.8 2.3 2 .9 3 1.9 1.2 1.2.7 2.6l-.4-.2q.2-1-.6-1.9t-2.8-1.8q-3.2-1.4-7.8-2.3a171 171 0 0 0-32.2-2.4zm4-1.2-2.9-4 2.9-3.8 2.9 4-2.7 3.6zm0-1 2.2-2.8-2.2-3-2.1 2.9z"/><path fill="#337321" d="M735.7 300.6c-3.5-6-11.3-8-13.6 0-.9 3.6-2 7-4.1 8.8-1.9 2-1.6 6.4-.7 9 2 5.6.5 10.4 4.5 14.2.3-4.5 4.4-8.3 8.6-9.7s9.6-5.7 10.8-11.3c.9-5.8 2-9.6-5.5-11"/><path d="M735.9 300.2q4.8.8 5.8 3.6.6 1.9-.1 6.6l-.2 1.3c-1.1 6-4.4 9.6-11 11.5-5.7 1.7-8.1 4.5-8.4 9.4v.6l-.3-.3c-1.8-1.7-2.8-4.2-3.3-8.3a26 26 0 0 0-1.3-6c-1.7-4.8-1.5-7.4.8-9.5 1.6-1.4 2.8-4 4-8.7 1.1-4 2.9-5.5 6.6-5.4 3.3.5 5.4 2 7.4 5.2m-.4.5c-1.8-3.2-3.8-4.6-7-5-3.4-.2-5.1 1.2-6.2 5q-1.7 6.9-4.2 9c-2 1.9-2.2 4.2-.6 8.5q.9 2.2 1.3 6.3.6 5.3 2.8 7.5c.4-5 3-7.7 8.7-9.4 6.3-2 9.5-5.3 10.6-11.1l.2-1.2q.7-4.5.2-6.2-1-2.5-5.6-3.2h-.1z"/><path fill="#96877d" d="M716 353.9h1.2V364l.7.4 6.4-5 .5 1.4-6.4 5v1l6.4 5.2-.5 1.2-6.5-5.1-.6.5v10.1H716v-10.2l-.7-.4-6.4 4.8-.6-1.3 6.5-4.9v-1l-6.5-5.3.6-1.2 6.5 5.2.6-.5z"/><path d="M717.4 353.6v10.2q.3 0 .5.3l6.5-5 .8 2-6.6 5v.6l6.6 5.2-.8 1.9-6.6-5.2-.4.3v10.3h-1.6v-10.4l-.4-.2-6.5 4.9-.8-2 6.5-4.9v-.6l-6.5-5.3.8-1.9 6.5 5.3.4-.3v-10.3zm-1 .6v10l-.3.1-.5.5-.1.1-6.4-5.2-.3.7 6.3 5.2v1.4l-6.3 4.8.3.8 6.3-4.8.2.1.6.4h.1v10.2h.6v-10l.2-.1q.3 0 .5-.4l.2-.2 6.4 5.1.3-.7-6.4-5.2v-1.3l6.4-5-.3-.7-6.3 5-.2-.2-.6-.4h-.1v-10.2z"/><path fill="#96877d" d="M725.8 379q-3.7 4.8-9.2 5c-7.3-.6-12.7-8.1-13-18.1.3-10 5.7-17.1 13-17.2q6.5.6 10.3 7.1c-.6 2.3-1.4 7.2-1.5 9.5-.7-6.4-4-10.6-8.8-11-5 .1-8.6 4.8-8.8 11.7.2 6.9 3.8 11.9 8.8 12.3 4.2-.2 7.3-3.5 8.6-8.8 0 2.3.2 7.6.6 9.5"/><path d="M726 379.2c-2.8 3.5-5.5 5-9.4 5.1-8.9-.5-13-6.3-13.1-18.5.1-12.1 4.2-17.5 13.1-17.4 4.5.3 7.6 2.4 10.5 7.2v.4q-1.3 4.5-1.5 9.3h-.5c-.7-7.2-3.2-10.4-8.5-10.8q-3.6 0-5.8 2l-1.3 1.8q-1.4 2.7-1.5 7.7 0 5 1.6 7.9l.6 1 .7.8a8 8 0 0 0 5.7 2.3c4.6-.1 7-2.6 8.4-8.6h.4v.2q.3 7.5.6 9.2v.3zm-15.2-22.7a8 8 0 0 1 5.8-2.6c5 .3 7.5 2.9 8.7 8.7q.4-3.4 1.3-6.7c-2.8-4.6-5.7-6.6-10-6.9-8.6 0-12.5 5.1-12.7 16.9.2 11.7 4.2 17.2 12.7 17.8 3.7-.1 6.3-1.5 8.9-4.8q-.3-1.8-.5-7.5c-1.6 5-4 7.2-8.4 7.2q-3.3-.1-5.7-2.9-.8-.8-1.3-1.8a16 16 0 0 1 0-15.7q.5-1 1.2-1.7"/><path fill="#337321" d="M711.2 395.4a17 17 0 0 1-2.2-7.5c1.4 0 3.4 1 4.6 2.6-.1-2-.6-6-.4-7.9 1.6 1 4.4 3.3 5.8 6.1-.3-2-.7-6.7-.3-9.7 1.7 1.6 4.2 5 5 7.4.1-3.8 1.1-9.7 1.8-11.3 1.3 1.6 3.1 3.2 4.4 5.5.4-3.2 1.4-6.3 3-7.5 1.2 2 3 6.1 3.5 11a14 14 0 0 0 3.6-4.8c.6 1.6 1.2 4 1 7.3 1.4-2 3-4.5 3.6-6.8a17 17 0 0 1 3.7 6.9c-.3-2.4-.3-6.7-.7-9.1q3.1 2.4 4 6.8a35 35 0 0 1 3-8.4c1 3 2 6.4 2 9.4.7-2 1.8-5 2.8-6 .8 2.2.8 6.4.6 9 1-2 2.7-4.1 3.8-5 .1 1.1.2 3.3 0 5a32 32 0 0 0 4-8.7c1.8 1.5 3.6 5.4 4 7.9 1.3-1 3.9-4.3 4.8-6.2 0 1.3.4 4.8-.1 7.6.8-1.2 1.6-3.4 2-4.4.5 2 .1 6.2-.4 8.7 1.3-1.5 3-2.5 4.1-2.6 0 3.2-1.5 8.7-3 13-13-4.1-40.5-5.3-68-8.3"/><path d="M711 395.6a14 14 0 0 1-2.2-7.8v-.2h.2q2.4-.3 4.3 2v-.9q-.5-4.7-.3-6.2v-.3l.3.1q3.5 2 5.2 4.9-.6-5.4 0-8.3v-.4l.3.3q3.3 2.8 4.6 6.1.5-7.2 2-10l.1-.3.2.2 1.6 2q1.6 1.7 2.4 3c.5-4 1.4-5.9 3-7h.2l.2.1q2.9 4.7 3.5 10.7 1.4-.8 3.2-4.5l.2-.4.2.4q1.3 2.9 1 6.6a16 16 0 0 0 3.2-6v-.5l.3.4q2.2 2.2 3.2 4.7v-1q-.3-4.2-.6-5.6l-.1-.8.5.3q3 2.3 4 6 1.4-6 2.7-7.5l.2-.2.2.3q1.7 5 2 8.2 1.5-4 2.5-5h.2l.1.2q1.1 2.5.7 7.9 1.6-2.6 3.4-4l.3-.2v.4q.3 2.4.1 4.4a23 23 0 0 0 3.4-8.1l.1-.3h.2c2.4 1.8 3.6 4 4.1 7.8a13 13 0 0 0 4.5-6l.5-1v7.6l1.2-2.7.2-.6.3-.6.2.6q.7 2.9-.2 8 1.7-2 3.6-2h.2v.3q.1 4-3 13.1v.3h-.3c-8.4-2.7-29.9-4.4-64.7-8l-3.2-.4h-.2zm.3-.5 3.1.3c34.6 3.6 56 5.3 64.7 8Q782 395 782 391q-1.8.3-3.7 2.5l-.7.8.3-1.1q1-5.1.6-7.9l-1.8 3.8-.7 1 .3-1.3q.4-2 .1-6.2v-.3a14 14 0 0 1-4.6 5.5l-.3.2v-.5q-.5-5.2-3.6-7.4-2 6.7-4 8.5l-.5.4.2-.8V384q-1.9 1.5-3.4 4.6l-.5-.2q.6-5.9-.4-8.4-.8 1-2.2 5l-.3.7-.5-.2q0-3.2-1.8-8.9-1.2 1.7-2.6 8h-.5a10 10 0 0 0-3.5-6.3 58 58 0 0 1 .6 8.4l-.5.2q-.7-3.5-3.3-6.4-.7 2.7-3.6 6.4l-.5.7v-1q.5-3.7-.6-6.6-1.9 3.8-3.5 4.6h-.3v-.3q-.6-6-3.4-10.7c-1.4 1.1-2.2 3.2-2.7 7.1v.8l-.4-.7q-.7-1.3-2.7-3.5l-1.4-1.6q-1.5 3-1.7 10.8l-.5.1q-.9-3.7-4.5-7-.5 3.2.3 9.2l-.5.2q-1.5-3.6-5.3-5.8l.3 5.6.2 1.7v1l-.4-.7q-2-2.6-4.3-2.5 0 3.3 2.1 6.9"/><path fill="#f7e017" d="M756.8 297c.2-1.6 2-4.2 6.2-4.6 4.9.2 9.3 4.2 13.1 4 3.9-.4 2 1.2 1.2 1.8q-1.3.7-1 2 .4 1.5-1.8.7c-3.5-1.2-6.8.7-11.4-.2-4-1-6-1.6-6.3-3.7m-41.4 109.7c-4.4 6.5-7.8 5.4-9 1-.5-4.4 1.9-6.1 1-10-.7-4 1.6-5.2 3.2-3.6 2 1.2 5.3-3.1 7.7 2.1 2 5.8 3.2 9.4 2.3 11.8-1.5 2-4 1-5.2-1.3"/><path d="M715.4 407.3c-2 3-3.7 4.2-5.7 4.4q-2.9-.1-3.5-3.9-.4-2.2.6-5.4 1-2.9.5-4.6-.8-2.8.7-4.3 1.5-1.3 2.8.3.4.5 2.3 0c2.9-1 4.4-.3 5.4 2.3l.5 1.4c2 5.8 2.4 9 1.8 10.7q-.9 1.7-3 1.2a4 4 0 0 1-2.4-2m-.2-.9.4.1q.7 1.5 2.4 2.1 1.7.4 2.4-.9c.5-1.4 0-4.4-1.8-10l-.5-1.5c-1-2.2-2.3-2.8-4.9-2q-2.1.7-2.7 0-1-1.2-2.2-.2t-.6 3.5q.5 2-.4 5t-.7 5q.8 3.3 3 3.4c2-.1 3.6-1.4 5.6-4.5"/><path fill="#f7e017" d="M733 397c-.3-2.8 3-6.8 5.7-3.8 2.7 2.9 5-3.2 7.5 1.6 1.8 5.4 2.5 8.1 3.4 11 .4 3.3-4.6 4.4-7 2-.4 2-4.8 3.1-6.9-1.8z"/><path d="M732.8 397.1q-.7-2.4 1.8-4.5c1.9-1.4 3-1.3 4.3.4q.9 1.4 3.2.2 3.1-1.6 4.3 1.5l3.5 11q.3 1.4-.6 2.4-.8.8-2 1.2c-2.2.5-3.4.3-4.6-.8l-.8.9q-.9.4-2.1.4-3.1-.1-4.3-3.7l-1-3.2zm.4-.3 1.8 5.8 1 3.3c.7 2.2 1.8 3 3.8 3.3q1.2 0 1.9-.5.7-.3.6-.7l-.1-1.1.5.8q1.4 1.8 4.4 1 1.3-.5 2-1.1.6-.8.3-1.6l-1-3q-1.2-4.5-2.5-8-.9-2.6-3.6-1.2-2.8 1.2-3.8-.4-1.3-2.1-3.6-.2t-1.7 3.6"/><path fill="#f7e017" d="M761.4 399.8c-.6-2.8 3.4-6.2 6.5-1.8 1.2-2 5.1-2.6 6 3l.6 11.3c-.2 2.4-2.6 4.3-5.3-1.1-4.2 1-5.7-1.5-6.3-5-.5-3.3-1-4.9-1.5-6.4"/><path d="M761.1 400q-.4-1.3.3-2.4.6-1.2 1.8-1.7 2.8-1.4 4.7 1.5c.7-1 1.5-1.4 3.2-1q2.7.6 3 4.6l.6 11.3a3 3 0 0 1-.5 1.8q-.5.8-1.4 1-2.1.1-3.7-3.6-2.9.8-4.5-.9-1.5-1.4-2-4.3-.4-3.6-1.5-6.3m.5-.4q.9 2.9 1.5 6.6.4 2.6 1.8 3.9 1.6 1.5 4.3.8h.2v.1q1.5 3.6 3.3 3.3.7 0 1.1-.6t.4-1.3l-.6-11.3c-.2-2.5-1-3.6-2.6-4.1q-2.3-.5-2.9 1.1l-.2.5-.2-.4c-1.2-2-2.4-2.5-4.4-1.7q-1 .5-1.5 1.5-.6.8-.2 1.6"/><path fill="#337321" d="M718 396.1c-.1-2.2 3-5.1 6.3-2.6 3.3 2.3 6.2-2 8.3 2.7 3.4 10.2 3.6 10.8 2.6 12.9-1.5 1.8-5 1.1-6.5-1.6-.6 1.8-3.7 1.5-6 0-2-2-3.7-7.8-4.7-11.4"/><path d="M719.8 392.7q2.7-1.6 4.7.5 1.1 1.2 3.8.6c2.5-.5 3.7.2 4.6 2.2 2.4 7.6 3 11.6 2.5 13.2q-1 1.7-3.5 1.2-2.1-.5-3.2-2.2-.5 1-2.3 1-2.2-.2-3.8-1.4c-1.4-1.4-3-4.8-4.7-11.3v-.3q-.7-2 1.9-3.5m-1.5 3.3v.3c1.8 6.3 3.2 9.6 4.6 10.9a6 6 0 0 0 3.5 1.3q1.9 0 2-1l.1-1 .4.8q.8 1.9 3 2.4 2.4.4 3-.8c.6-1.4-.1-5.3-2.5-12.6q-.9-2.5-4-1.9-2.9.6-4.2-.7-1.8-1.8-4.2-.4-2.2 1.4-1.7 2.7"/><path fill="#337321" d="M746.8 396.8c-.4-3 4.9-5.3 8.2-.5 1.8-1.8 4.2-2 6.3 3.5 1.8 5.6 2 8.2.8 9.9-1.2 1-3.9 1.8-5.3-.6-2 1.2-5.7.3-7.2-3.3q-1.5-5.2-2.8-9"/><path d="M746.5 397q-.3-1.4.6-2.4t2.3-1.3c2.6-.4 4.1.3 5.6 2.5q1.4-1.4 3.1-.8 2.1.8 3.5 4.6c1.7 5.7 1.9 8.7.7 10.4a4 4 0 0 1-2.8 1q-2 0-2.8-1.5-1.3 1-3.7.1-2.9-1-3.6-3.6l-.1-.5q-1.9-6.3-2.8-8.5"/><path fill="#337321" d="M774 401.5c.1-2.6 2.9-3.9 4.5-.2 1.9 3.5 5 .2 5.8 6.4 0 1.3-.6 5.7-1.7 8.2-1.8 2.1-7.1.5-8-4.3-.5-4.8-.6-7.5-.7-10"/><path d="M773.7 401.6c0-1.8.5-2.5 2-2.9q2.1-.4 3 2.4.6 1.5 2.6 2 3 .6 3.3 4.5 0 4.6-1.8 8.5c-1 1.4-2.2 1.6-4.7.6q-3.5-1.6-3.8-5-.5-5.8-.6-10.1m.4-.1q.1 4.3.7 10 .3 3.2 3.5 4.5 3.1 1.4 4-.3 2-3.6 1.8-8-.2-3.3-3-4-2.2-.5-2.8-2.3-.8-2.4-2.6-2-1.5.3-1.6 2m-58.9 5.5-.3-.5a14 14 0 0 0-2.5-3.7q-1.4-1-3 1.6l-.3-.4q1.7-3 3.5-1.8a14 14 0 0 1 3 4.5zm13.3.8q-1.8-3.4-2.5-6.4l.5-.2q.6 3 2.4 6.1zm14 .5q-2.2-2.2-3.3-4.9l.4-.2a14 14 0 0 0 3 4.6zm-1.2-10.4q2.5.4 5 5 2 3.6 3.3 4v.6q-1.6-.4-3.7-4.3-2.4-4.3-4.6-4.7zm15.3 11.5-.4-.9q-1.3-2.7-1.5-3.8l.5-.2a20 20 0 0 0 1.8 4.5zm-1.4-13.2q1.4 2.6 2 4.4l-.5.3q-.6-1.8-1.9-4.3zm13.8 15.2q-2-4.8-4.1-6l.2-.7q2.2 1.4 4.3 6.3z"/><path d="M768.9 400.9q.1 2.9 3.1 5.4 2.5 2.2 2.6 4l-.4.2q-.2-1.6-2.5-3.6-3-2.9-3.3-6zm9.9.2q.6 2 .8 5.2h-.5q0-3.1-.8-4.8z"/><path fill="#1a1a1a" d="M8 195.3c170.8-85.3 341-54.5 513.3-28C676.5 191 833.4 211.8 992 132.7v672c-170.8 85.3-341 54.5-513.3 28C323.5 809 166.6 788.1 8 867.2zm31.3 19.3v604.5c306.5-128.2 611.1 96 921.5-33.7V180.9C654.2 309 349.5 84.9 39.3 214.6" opacity=".2"/></svg>