<svg xmlns="http://www.w3.org/2000/svg" viewBox="0 0 1000 1000"><path fill="#00247d" d="M8 195c171-85 341-54 513-28 155 24 312 45 471-34v672c-171 85-341 54-513 28-155-24-312-45-471 34z"/><path fill="#fff" d="M8 195q27-14 55-23 94 31 191 98 94-64 191-114l55 8 11 32c-67 35-133 70-202 113q100 75 202 163l-22 56c-78-65-155-129-235-183-78 54-155 119-235 211L8 531v-37q94-111 191-184-94-57-191-77z"/><path fill="#cf142b" d="m254 307 37 1q106 78 216 173l-7 19c-81-68-162-136-246-193v25C175 387 96 453 15 548l-7-17c81-96 162-166 246-224l-37 2c-69-43-138-76-209-89v-25c81 15 162 56 246 112v-25q103-69 209-124l37 6c-81 43-162 86-246 143"/><path fill="#fff" d="M295 140v112c95 4 189 23 287 36v112c-95-13-189-32-287-36v224q-40-2-82 1V365c-68 5-135 19-205 54V307c68-34 135-49 205-54V141q40-3 82-1"/><path fill="#cf142b" d="M279 140v134c100 2 200 22 303 37v67c-100-14-200-35-303-37v247h-50V342c-73 3-146 17-221 55v-67c73-37 146-52 221-56V140z"/><path fill="#00247d" d="M500 164v336c-162-25-325-52-492 31v336c171-85 341-54 513-28 155 24 312 45 471-34V133c-163 81-324 57-492 31"/><path fill="#f7e017" d="M665 542a92 92 0 0 0-23 44c-7 44-16 53-31 42 1 24 16 28 23 14q0 34 19 61c6 8 7 3 4-5-2-8-2-33-8-48 9 9 22 5 21-18-12 8-22 6-24-15-1-25 6-60 19-75"/><path d="M664 542q-21 25-18 75 1 15 7 18t16-4v1q0 17-7 21-6 4-13-2 3 9 5 30l3 17 1 9h-2l-4-3q-19-27-19-61-5 11-14 6-9-4-9-21v-1q11 9 18 0 8-9 12-41 4-23 23-44m-4 6a80 80 0 0 0-18 38q-6 32-13 42-6 9-17 0 0 17 8 21 9 3 14-7v-1 1q0 36 20 61l3 4 1-1q2-1-1-8l-2-17-6-31v-1q8 9 14 4 7-5 7-21-9 7-16 4-7-4-8-19-3-44 14-69"/><path fill="#f7e017" d="M651 361q2-14-5-24-15-16-25-1c-11-8-15 16-27 11q3 14 11 11c-6 6-1 16-8 24 13 7 20-2 20-19q9 10 16 1-10-7-4-19c5-10 23-8 22 16"/><path d="M652 361q1-17-9-21-9-3-13 5-2 6-1 11 0 5 5 8h1-1q-3 5-8 5t-8-5q0 13-5 18-5 6-15 0 4-4 4-13 0-7 3-11-5 1-6-1-3-3-4-10v-1 1q6 2 13-7 9-9 14-5 12-15 25 2 7 9 6 24m-1-8q0-10-5-16-13-16-25-1-6-4-13 5-8 9-14 6 1 7 4 9 3 3 6 1l1 1q-3 3-3 11-1 9-4 13 9 5 14-1 4-5 4-18h1q3 5 8 5t8-4q-4-2-6-8l2-11q4-10 13-5 8 3 9 13"/><path fill="#337321" d="M681 493c-15 10-41 3-43-23-3-26 15-36 20-39 8-4 14 5 11 16 9-4 11-16 7-25 11 2 21-9 26-25-5 4-15 1-24-1q4-7 2-16c-9 13-22 6-40 42l11-56v-5c1-24-17-26-22-16q4 11 1 27c-2 15-6 48-10 59-1-18-9-20-11-29q-5 4-3 12c-4-5-13-1-18-8-3 11 3 22 10 28-4 1-5 6-10 6q9 15 19 16t17 18c7 20 32 34 57 19"/><path d="m681 494-3 1q-16 9-32 2-17-7-23-23-4-14-16-17-10-3-19-17 3 0 5-3l4-3q-15-13-9-28v-1l1 1q1 3 9 5 6 0 7 2 0-8 4-11v-1 1l4 8q6 9 7 19l9-52v-5l1-6q3-15-1-21 4-10 13-5 10 4 10 21l-1 5-11 54q12-22 29-32 8-3 11-8 3 10-1 16l6 1q13 3 16 0h1q-8 28-26 25 3 7 2 14-2 8-8 11h-1q2-9-2-13-3-6-9-3v1q-23 13-20 38 1 18 17 25a26 26 0 0 0 26-2zm-10 4q-8 1-16-3-16-7-18-25-2-26 21-39 6-3 10 2 3 6 2 13 6-2 7-10 2-7-1-14h-1 1q18 3 25-24-4 3-16 0l-7-1v-1q3-5 2-15-3 4-11 8-18 9-29 33v-1l10-55 1-5q1-17-9-21-9-3-13 5 4 6 2 22l-1 5-1 5-9 54q-1-11-7-20l-4-8q-4 3-3 11v1l-1-1-7-3q-7 0-10-4-5 15 10 27l1 1h-1q-3 0-4 3l-5 3q8 12 18 15 12 3 17 18 6 16 22 22 12 5 25 2"/><path fill="#f7e017" d="M717 472c-9 31-30 51-41 54-17 5-52 25-61 35l-4-2c-5-6-8-20 0-32 25-29 52-13 70-34-15 9-41 3-43-23 15 7 43 10 66-22z"/><path d="M717 472q-12 48-41 55-39 10-61 35l-4-3q-5-5-5-14-1-10 4-18 15-16 42-21 20-3 27-11-11 6-24 0-16-7-18-25v-1h1q38 18 65-21l1-1v1q11 17 13 24m0 0-13-24q-28 40-66 22 2 18 17 24 14 6 26-1-8 10-29 14-27 5-41 21-5 7-5 17 1 9 5 13l4 3q22-25 61-35 28-7 41-54"/><path fill="#337321" d="M665 542c-13 14-20 50-19 75q1 11 4 15c1-14 9-50 27-65 15-13 39-42 49-78q-3-9-10-15c-9 33-33 48-51 68"/><path d="m664 542 15-15q30-28 37-54 7 7 10 16-12 48-49 78-23 19-27 65v1-1q-3-4-4-15-3-52 18-75m1 0q-21 23-18 75 0 9 3 14 3-45 27-64 36-30 48-78-2-9-9-15-6 26-37 54z"/><path fill="#316d3a" d="M709 458c-5 9-16 21-26 26q3-5 3-11c-13 6-38 3-48-3 15 7 43 10 65-22q5 4 6 10"/><path d="M709 458q-10 19-26 26 3-4 3-10-24 11-49-4l1-1q38 18 65-21v-1l1 1zm-1-1-5-9q-25 38-60 24 21 10 43 1h1q-1 7-3 10 15-7 24-26"/><path fill="#337321" d="M611 527c-21 25-8 49 1 56-2 18 10 17 10 33q7-8 6-23c7 10 22 2 26 20 2-20-8-40-22-40 5-7 2-18-3-22-2 14-13 13-18 8-5-6-8-20 0-32"/><path d="M610 527q-5 7-5 17 1 9 5 13t10 4q7-3 7-11v-1h1q4 4 6 11 1 6-3 11 10 1 17 13 8 13 6 28h-1q-2-10-14-13-9-2-12-6 2 18-6 22 0-7-5-15-7-8-6-18-8-7-11-21-3-19 10-35m-2 4q-10 15-8 31 3 14 12 20v1q-1 9 5 18 5 8 5 14 7-4 5-22v-1l1 1q2 5 12 6 12 3 14 12 1-14-5-26-7-12-17-12h-1v-1q4-4 3-11-2-7-5-10-1 10-8 11-6 2-10-3-5-5-5-14-1-8 2-14"/><path fill="#f7e017" d="M656 702q-4 3-1 8c3 6-2 16 7 20q5 1 6-5c2-12-6-14-7-19q-2-8-5-4"/><path d="M656 701h3q2 0 2 5l3 5q6 6 4 14-1 7-6 6-6-2-6-14l-1-7-1-5q0-3 2-4m0 1-2 3 1 5 1 7q1 11 6 13 5 1 6-5 2-7-4-14l-3-5-2-5z"/><path fill="#f7e017" d="M663 724c-3 2-5 4-4 18 0 6 0 18-3 19q4 4 8 0 5 7 8-1 5 2 5-5 5 3 5-9 4 1 6-2c-3-2-11-8-14-14q-4-7-11-6"/><path d="M663 724q7-4 12 6 4 10 13 13h1v1q-3 5-7 3 1 6-1 8h-4l-1 5h-4q-1 4-4 4-2 1-4-2-3 4-8-1l3-7v-12q-2-14 4-18m1 1q-6 3-5 17v12q0 6-3 7 5 5 8 0h1l3 3 4-4v-1q2 2 3 0l2-4v-1 1q2 1 4-1l1-8q4 2 6-2-10-4-14-13-4-10-10-6m-48-382 5-8v1zm52 54q3-2 10-1v1q-7-2-10 1zm-4 364v-14q-2 10 1 14zm8-1q-4-5-5-12 2 7 5 11zm5-5q-5-5-8-15h1q2 11 7 15m5-8q-7-3-12-15 5 12 12 14z"/><path fill="#f7e017" d="M808 533c33 35 35 64 30 83-3-16-16-40-31-45z"/><path d="M808 533q42 43 31 83l-1 1v-1q-6-36-31-45zm0 1-1 36q25 10 31 45 11-40-30-81"/><path fill="#337321" d="M748 515q30 0 62-4v101c0 86-35 140-70 167-36-27-71-81-71-166V512l44 2q-1 9 5 22c10-2 21-12 30-21"/><path d="M810 511v101q0 111-70 167h-1q-70-55-70-166V512l44 2v1q0 12 5 20 12-2 30-20zm-62 4q-18 20-30 21-5-9-5-21l-44-3v101q1 111 71 165c46-35 70-93 70-166V512q-31 3-62 3"/><path fill="#006ec7" d="M810 511v101q0 39-9 69l-61-152-62 153q-9-31-9-69V512q70 6 141-1"/><path d="M810 612q0 37-8 69l-1 1-61-152-62 152q-9-33-9-69V512q70 6 141-1zm0-100q-70 7-141 0v101q1 36 9 68l62-153 61 152q9-32 9-68z"/><path fill="#f7e017" d="m803 674-4 16-59-147-59 148-5-17 64-159zm-35 57 6 4q4-16 2-33c-4 12-15 13-18 20l5 4c-4 6-14 16-19 18v-80l-2-15v-16q1-8-2-9-4 2-3 9v16l-2 15v80c-3-12-14-8-20-20h7c-5-19-15-21-18-27 0 8-2 26 1 34l4-4c5 14 25 15 31 37 4-8 18-18 28-33"/><path d="m768 731-17 20-11 13-1 1v-1q-3-12-18-23-9-7-12-13l-3 3-1 1v-1q-2-6-2-27l1-7 5 5q10 9 13 22h-7q3 6 11 10 7 3 9 8v-78l1-8v-23l1-6q0-4 3-4 2 0 2 4l1 6v23l1 8v80q9-5 19-17l-6-5q2-4 8-7 9-7 11-13v-2l1 2q1 20-3 33zm0 0 5 3q5-12 3-31-2 7-11 12l-7 7 5 4v1q-10 14-19 17v-80l-1-8-1-7v-16q0-9-2-9t-3 3v22l-1 8-1 7v80q-1-6-9-10t-11-10l6-1q-3-12-13-20l-4-5v6q-1 20 1 26l4-3q3 6 13 13 14 11 18 23l11-13z"/><path fill="#f7e017" d="m740 665 24-2q3-1 3-7t-3-6l-24-2-25 2q-3 1-3 6 0 6 3 7z"/><path d="m740 665-25-2-2-2-1-5q0-6 3-6l25-2 26 4 1 4q0 7-3 7zm0 0 11-1 13-2q2 0 3-6l-1-4-2-2-24-1-25 1q-3 1-2 6v5l2 1z"/><path fill="#f7e017" d="m737 632-4-1q-4 0-6 6 2 7 6 8 5-1 5-7 2-4 4 0-1 10-9 10t-9-11q1-9 9-10l4 1z"/><path d="M736 633q-1-3-3-2l-4 2-1 5 1 4q1 3 4 2 6 0 5-6h1q-1 7-6 7l-4-2a9 9 0 0 1 0-11l4-2 3 2 1-4-4-1q-8 0-9 10 0 5 3 8 2 3 6 3l6-2v-1q3-3 2-7h1l-3 8-6 3q-9 0-9-12 0-11 9-11l4 2z"/><path fill="#f7e017" d="M715 663q2-1 2-7l-2-6z"/><path d="m715 662 1-1 1-5q0-5-2-6l2 2 1 4q0 7-3 7z"/><path fill="#f7e017" d="M717 663q2-1 2-7l-2-6z"/><path d="M717 662q2 1 2-6l-1-4-1-2 2 2 1 4q0 7-3 7z"/><path fill="#f7e017" d="M730 664q3 0 3-7 0-8-3-8z"/><path d="m730 664 2-2 1-5q0-7-3-8 4 0 4 8l-1 5z"/><path fill="#f7e017" d="M734 665q2-2 3-8-1-8-3-8z"/><path d="m734 664 2-2v-5q0-8-2-8v-1q3 1 3 9l-1 5z"/><path fill="#f7e017" d="M744 665q3-2 3-8 0-8-3-8z"/><path d="m744 664 2-2 1-5-1-6-2-2v-1q2 0 2 3l1 6q0 8-3 8z"/><path fill="#f7e017" d="M747 664q3 0 3-7 0-8-3-8z"/><path d="m747 664 2-2 1-5q0-9-3-8 4 0 4 8l-1 5z"/><path fill="#f7e017" d="m762 663 3-7-3-6z"/><path d="M762 662q3 0 2-6v-4l-2-2 2 2 1 4q0 7-3 7z"/><path fill="#f7e017" d="m709 727 6-3z"/><path d="m709 727 6-3z"/><path fill="#f7e017" d="m765 728-2-2z"/><path d="M765 728h-1l-1-1v-1z"/><path fill="#f7e017" d="M768 731q6-8 8-20z"/><path d="M767 731q7-10 9-20l1 1q-3 10-9 19z"/><path fill="#fff" d="m727 586 2-4 4-2h18l1 2v33l-1 2h-24z"/><path d="m727 586 2-4 1-1 3-1 18-1 1 1 1 2v33q0 2-2 3h-24zm0 0v31h24l1-2v-33l-1-2h-18l-3 2-1 1z"/><path fill="#e5e5e5" d="M746 620q3 1 4-2l2-4v-31q0-2-2-2h-16l-4 2-2 4v33z"/><path d="M746 621h-18v-34l2-4 4-2h17l1 2v31l-2 4v1zm0-1 3-1 1-1 1-4v-32l-1-1h-16l-3 2-1 1-2 3v33z"/><path fill="#fff" d="m748 619-1 3h-18q-3 0-2-3v-33q0-2 2-2h18l1 2z"/><path d="m748 619-1 3h-18q-3 0-2-3v-33q0-2 2-2h18l1 2zm0 0v-34l-1-1h-18l-1 1-1 1v33q0 3 2 2h19z"/><path fill="#96877d" d="M783 494q4 8 3 19l-6 1q5-16-8-18c-14-1-30 35-54 39-7-12-7-33 2-43-5-19-14-39-21-48l-13-2q7-18 22-25l4-7c1-14 50-8 61 1 0 16 5 69 10 83"/><path d="M783 494q6 8 3 20h-6v-12q-2-6-8-6t-21 16q-21 22-33 24-15-25 2-45-7-29-21-47l-13-2h-1 1q6-18 21-25l4-8q1-9 28-7 25 2 34 8v1q0 56 10 83m0 0q-10-26-10-83-9-7-34-9-26-2-27 8l-4 7q-16 8-22 24l13 2q14 19 21 48v1q-17 19-2 43 12-2 32-24 15-16 22-16 7 1 9 6v12h4q3-10-2-19m-61 11q-2-37-18-60 9 5 21-4c10-8 33-22 41-17l1 10c-3-7-24 4-31 8q-10 5-7 21c-3-4-2-8-6-11q3 8 3 21-2-11-9-23c5 13 9 42 7 58q8-1 15-9c-3 6-11 10-16 11-3 4-4 14-4 20-1-8 1-23 3-25m61-11q-8-11-24-5 3-3 9-4l-4-25 3-2 5 26 5 2-6-35 5-3c1 15 4 37 7 46"/><path fill="#96877d" d="M780 514q5-16-8-18c-7-1-15 9-24 19z"/><path d="m781 514-34 1h1l3-4q15-16 21-16 7 2 9 6zm-1-1v-11q-2-6-8-6t-21 16l-2 3z"/><path fill="#96877d" d="M720 434c-4 1-13 0-18-3l2-5-11 11c7 2 20 3 27-3"/><path d="M720 434q-9 8-27 2l11-11v-1 1l-1 5q8 4 17 3m-1 1-17-3v-1l1-4q-7 6-9 10 16 5 25-2m1 57 3 17h-1zm-12-74q-5 9-5 14 8 4 17 3v1q-9 2-18-3v-1zm-9 26 5 2q12 5 21-4l2-2q25-26 45-29v1q-19 3-44 28l-2 2q-10 10-23 5zm-6-6q18 6 27-3 25-22 47-25v1q-22 3-47 25-9 8-27 2"/><path fill="#337321" d="M808 533c23 20 39 37 44 70q8 48 26 28c-3 20-16 25-29 13 1 22-5 50-22 62-1-13 5-25 3-35 0-5-1-16 4-22-9 5-23-1-25-19 11 5 24 5 29-14s3-48-30-83"/><path d="M808 533q39 32 45 70 4 24 10 30 6 7 15-2v-1 1q-2 15-11 19-8 4-17-6 1 45-23 62v1-1q-1-6 2-18 2-12 1-17-1-13 3-21-7 3-14-1-9-6-10-19v-1l1 1q9 4 16 2 9-3 12-16 10-39-30-82zm4 4q37 41 27 79-4 13-13 16-7 3-16-2 1 13 9 18t15 0v1q-6 8-3 21 1 6-2 18l-2 18q24-18 22-62v-1q10 11 18 6 9-3 11-17-9 8-15 2-7-7-11-31-6-35-40-66"/><path fill="#337321" d="M837 355c7-26 25-27 32-18 18-17 20 13 36 3q-2 11-11 14c5 6-2 19 10 23-11 10-26 6-30-13-4 10-16 13-22 6 11-7 10-20 4-25-6-4-17 0-19 10"/><path d="m837 355 1-3q6-15 16-19t16 4q10-9 20 0 9 8 16 3v-1 1q0 12-11 14 3 3 2 10 1 11 8 12h1l-1 1q-8 9-18 5-9-4-12-18-3 7-10 10-8 2-12-4v-1q8-4 9-12 0-8-5-12-5-3-11 0t-7 8zm2-6 6-5q6-2 11 1 6 4 5 12-1 9-8 13 4 5 11 3t10-10q3 15 12 18 10 3 17-4-6-3-7-13 0-8-2-9l-1-1h1q10-3 11-13-7 4-16-4-10-9-20 1h-1q-5-8-15-5-9 4-14 16"/><path fill="#337321" d="M781 417q10 34 27 55c14 15 33 8 44-9 0 31-23 37-36 29-6-4-11-1-5 5 8 10 27 15 49 17 37 5 25 47 13 50 3-1 6-6 1-11-33-33-100-10-99-102-8 24-36 15-23-13q9 7 14-3 4-10-7-24 4 1 4-5 0 6 6 5 3 5 4 3 2 0 1-3 3 7 7 6"/><path d="M782 417q8 32 26 55 22 24 44-10 0 23-13 30-12 8-23 0-5-3-7-1v2l2 4q10 13 49 17 25 2 25 25 0 9-4 17-4 7-8 8v-1q3 0 3-3 1-3-2-7-12-11-42-20a79 79 0 0 1-58-81q-5 18-18 12-6-1-7-9-1-7 3-18 4 4 8 4 4-1 6-6 3-12-7-24v-1h3l1-4 2 4 4 1q3 4 4 3l1-2v-1h1v1l2 4zm94 145q2-1 5-7l4-16q-1-22-26-24-37-4-48-18l-3-4 1-3q2-2 7 1 11 7 23 1 13-8 13-29-22 35-44 9-19-22-27-55l-4-1-2-3-1 2q-2 1-5-4-3 2-5-1l-1-2-1 2-2 1q10 12 7 24-3 6-7 6-4 2-8-3-5 10-3 17 1 6 7 9 13 5 19-13-1 60 57 81 32 10 42 21 4 3 3 7z"/><path fill="#f7e017" d="M816 492c16 12 33 9 50-20q9-16 19-21c5-2 6-9 10-12q-3-3-8-3c10-7 7-17 12-24-4 2-10-4-16 8q1-8-2-12c0 5-8 8-10 23q-2 13-5-4c0-9-3-33-7-45s-5-29 1-33l-4-4c-6-4-17 0-19 10-7 27 12 38 11 66-4-20-27-22-27-42q-10 10-4 21c-5-9-15 9-26-5 0 19 11 25 21 25-5 13 2 22 8 24 1-20 31-17 32 19 0 31-23 37-36 29"/><path d="M816 492q11 7 23 1 13-9 13-29 0-25-16-30-6-2-11 1-4 3-4 10v1h-1q-5-3-8-9-3-7 0-16-9 1-14-5-7-7-7-20h1q4 7 15 3 6-2 9 1-2-6-1-10 0-6 6-10 0 10 13 22 12 9 14 18 0-12-7-29-9-20-5-35 2-7 9-11 6-3 11 1l4 4q-4 3-4 13t3 20q6 20 8 45 0 8 2 9l1-1 1-4q1-9 7-17l2-6v-1l1 1q3 4 2 10 4-6 11-6l5-1v1l-3 9q-3 10-8 15l4 1 3 2h1l-1 1q-2 0-4 5-3 6-6 7-10 3-19 20-23 42-50 20m1-91q-3-5-10-2-10 4-15-3-2 12 6 19 5 5 14 5h1-1q-3 9 0 16 3 5 8 8 0-7 5-11 6-3 11-1 16 6 16 31 0 21-13 29-10 6-19 2 25 15 46-22 9-17 19-21 3-2 5-6l4-6-2-1q-2-3-5-1v-1q6-4 8-15l3-9-4 1q-7 0-11 7h-1q3-6-1-11l-3 6q-6 7-7 16l-1 5-2 1q-2-1-2-10-1-25-7-45-3-9-3-20 0-10 3-13l-3-3q-5-4-11-1t-8 10q-4 14 4 35 8 18 7 31-2-9-14-20-13-11-13-21-5 3-6 9z"/><path fill="#f7e017" d="M860 514c37 5 25 47 13 50q-12 0-14-13c-8 8-6 19 0 23-17 1-24 16-25 33 4-8 12-10 16-9q8 2 17-6c-3 4 1 11-3 18 15-4 21-23 18-31 19-28 15-62-22-65"/><path d="M859 515q27 1 32 23 6 19-9 42 2 7-3 17-6 12-16 15v-1q2-3 2-11v-5q-6 7-16 4t-16 10v-1q0-14 6-23 7-10 18-11-4-3-5-9-1-7 5-13h1q1 15 14 12 4 0 8-8l4-16q-1-22-25-24m11 1q15 6 15 23 0 9-4 17-4 7-8 8-13 3-15-12-5 5-4 12 0 6 5 9v1q-12 0-19 11-4 8-6 21 6-11 16-8 11 3 16-6h1v1l-1 6q1 7-1 11 9-2 14-14 6-10 3-16v-1q15-22 10-42-4-17-22-21"/><path fill="#f7e017" d="M830 696q4 4 1 10c-3 6 1 18-9 22q-4 2-6-6c-2-13 7-15 8-21 2-7 4-6 6-5"/><path d="m831 696 2 4-2 6-1 8q-1 12-8 15-4 1-6-7t5-16l3-5 3-6zm-1 1-3-1q-2 1-2 5l-4 6q-6 7-5 15 2 8 6 6 7-2 7-14l2-9 1-4z"/><path fill="#f7e017" d="M821 722c4 2 6 4 5 19-1 7-1 21 3 22q-6 4-10 0-5 7-9-2-4 2-5-6-5 4-5-9-5 1-7-4c4-1 13-8 16-14q5-9 12-6"/><path d="M821 721q7 4 5 20v13q0 9 3 8v1q-7 5-10 1-2 3-5 2-3 0-4-5-1 2-4 0l-1-5q-3 2-4-1-2-3-2-9-4 1-6-3l-1-1h1q10-3 16-14 5-12 12-7m0 1q-8-4-12 6-4 11-16 15 3 5 7 2v1q-1 6 1 8 1 3 4 1l2 5q2 3 3 1l1-1v1q1 4 4 5l4-3v-1 1q2 5 9 0-2-1-3-8v-14q2-15-4-19m-2 41q2-5 1-16 2 11-1 16m-9-2q5-6 6-13 0 8-5 13zm-5-6q6-4 8-17l1 1q-3 12-9 17zm-5-9q7-3 13-16h1q-6 13-14 16"/><path fill="#f7e017" d="M775 451c-1 38 11 57 27 68-6-5-4-21-11-26 2 0 4 3 9 1-2-7-6-17-15-18l11-2c-5-9-17-4-21-23"/><path d="M774 451q3 12 13 16 6 3 8 7l-9 2q9 3 13 18h1-8l-1-1 6 14q1 10 4 12-28-20-28-68m26 66-3-10q-3-11-7-14l1-1 2 1 7 1q-6-17-15-18l3-1 7-1q-1-3-7-6-10-5-13-15 0 45 25 64"/><path fill="#f7e017" d="m772 415-3-4q-6 1-6-5-1 6-4 5 11 14 7 24-5 11-14 3c0 16 14 20 20 0 0 4 3 3 4 7q5-14-4-30"/><path d="M772 414q10 19 4 32l-3-4-1-3q-4 14-12 13-8-2-8-14v-1q4 4 8 4 4-1 6-6 3-12-7-24v-1h3l1-4 2 4 4 1zm0 1-3-3-5-1-1-3-1 2-2 1q10 12 7 24-3 6-7 6-4 2-8-3 0 12 8 13 7 2 12-13l2 3 2 4q5-12-4-30"/><path fill="#337321" d="M748 340c-7-9-10-23-10-31 1-9 3-17 12-14-3 1-1 7-4 8q4 1 6-3c1 3 4 2 4 5 1-2 0-8-2-10l2-10q-3 1-4 7 1-8-4-12v10q-6-1-10 6 0-9 3-16 1-4-2-1c-3-7-10-10-13-7-4 3-7-2-10 4-3 5-11 5-11 11l-2 11c-3 5 1 9 2 13 0-15 16-41 33-30q-2 5-3 19c-1 13 0 30 9 41z"/><path d="m748 340-4 1q-10-13-10-41 1-13 4-19-12-8-22 6-10 12-10 24h-1l-1-4q-3-6-1-9l2-11q-1-3 5-6l6-6q1-3 5-2l5-1q2-3 6-1 4 3 7 8 0-2 2-2v3l-3 15q3-7 9-5-2-6 1-10 3 1 4 5v3q1-3 4-3 2 7-1 10l2 5-1 5-2-2-2-2-2 2-4 1-1-1h1l2-4 1-4q-6-1-8 3-2 3-3 11 0 18 10 30zm4-50-1-5q0-3-3-4v9l1 1-1-1q-7-1-10 6 0-12 3-16v-2q-2 0-2 2l-1-1q-2-4-6-7h-6q-2 2-5 1-4 0-5 3l-6 5q-6 3-5 6 1 9-2 11-2 4 1 9l1 2q1-11 10-23 11-13 23-6v1q-2 6-3 19-1 28 9 41l3-2q-9-12-9-30 0-8 3-12 2-5 9-2l-2 4-1 4 3-1 2-2v-1 1l2 2 2 2v-4q0-4-2-5v-1q2-2 2-9-3 1-4 5v2z"/><path fill="#cf142b" d="M753 295q0-6 10-8c7 1 12 8 17 7 6 0 3 3 2 5q-2 2-1 5 0 3-3 1c-5-3-10 2-16-1q-9-2-9-9"/><path d="M753 295q0-3 2-5 4-3 8-3 3 0 9 4l8 3h3l1 2-2 3-1 5-1 2h-2q-3-3-8-1h-9q-8-4-8-10m0 0q0 4 8 9h9q6-1 8 1l2 1v-2q0-3 2-5l1-3v-1h-3l-8-3q-6-4-9-4l-7 2q-3 3-3 5"/><path fill="#96877d" d="M725 383c-3-12-13-25-18-28l-1-6 13-12c20 13 47-6 61-27l5 4-3 5-2-2c-4 6-15 21-19 24q9 3 13 2c12-11 21-22 25-23l4 6-4 4-2-2c-12 15-26 45-32 66-8-2-34-1-40-11"/><path d="M724 383q-4-19-18-28v-7q5-2 12-12h1q31 22 60-26h1l5 4-3 5-2-1q-9 15-18 23l12 2 7-7q15-15 18-16v-1l4 7-4 4-2-2q-21 25-32 66l-10-1q-27-2-31-10m1 0q4 8 30 9l10 1q12-41 32-65v-1l2 2 3-3-3-6q-3 1-17 16l-8 8-13-2v-1q9-9 18-24l3 1 2-4-4-3q-30 47-61 26l-12 12v6q14 9 18 28m36-41-4-2q-4 4-15 6v-1q11-1 15-6zm-35 37q-4-25 6-34 22 19 42-2v1q-20 21-42 2-9 8-6 33m0-8a166 166 0 0 1 40 5l3 2 1 3-1-1v-1l-3-2-8-2q-16-3-32-3zm4-1-3-4 3-3 3 3zm0-1 2-3-2-2-2 2z"/><path fill="#337321" d="M736 301c-4-6-12-8-14 0q-1 6-4 8-3 4-1 9c2 6 1 11 5 15q1-8 8-10 9-2 11-11c1-6 2-10-5-11"/><path d="M736 300q4 1 6 4v6l-1 2q-1 8-11 11-8 3-8 10l-4-8-1-6q-3-7 1-10 2-1 4-9 1-6 6-5 6 0 8 5m0 1q-2-5-8-5-5 0-6 5-1 6-4 9-3 2 0 8l1 6q0 6 3 8 0-7 8-9 10-3 11-12v-7q-1-3-5-3"/><path fill="#96877d" d="M716 354h1v10l1 1 6-5 1 1-7 5v1l7 5-1 1-6-5-1 1v10h-1v-10l-1-1-6 5-1-1 7-5v-1l-7-5 1-2 6 6 1-1z"/><path d="M717 354v10h1l6-5 1 2-6 5v1l6 5-1 2-6-5h-1v10h-1v-10h-1l-6 4-1-1 7-5v-1l-7-5 1-2 6 5h1v-10zm-1 0v11l-7-5 6 6v1l-6 5v1l6-5h1v10h1v-10h1l6 5 1-1-7-5v-1l7-5-1-1-6 5-1-1z"/><path fill="#96877d" d="M726 379q-5 5-9 5-13-2-13-18 1-16 13-17 6 0 10 7l-2 9q-1-9-8-11-8 1-9 12 1 11 9 12 6 0 8-9z"/><path d="M726 379q-4 5-9 5-13 0-14-18 1-18 14-18 6 1 10 8l-1 9h-1q-1-10-8-10-4 0-6 2l-1 1-2 8 2 8v1l1 1 6 2q6 0 8-9v1zm-15-22q2-3 6-3 7 0 8 9l2-7q-4-7-10-7-13 0-13 17t13 18q4 0 9-5l-1-8q-3 8-8 8-4 0-6-3l-1-2a16 16 0 0 1 0-16z"/><path fill="#337321" d="m711 395-2-7 5 2-1-7q4 1 6 6v-10l5 7 2-11 4 6q0-6 3-8 2 3 3 11l4-5 1 8 4-7q2 2 3 7v-9q3 2 4 6l3-8 2 9 2-6 1 9 4-5v5l4-8q3 2 4 8l5-7v8l2-4-1 8 4-2-3 13c-13-4-40-6-68-9"/><path d="M711 396q-3-5-2-8 3-1 4 2v-8l6 5-1-8h1l4 6 2-10h1l1 2 3 3q0-6 3-7l4 11 3-5 1 7 3-6v-1l1 1 3 4v-1l-1-5v-1h1l4 6 2-7 1-1v1l2 8 2-5h1v8l4-4v5l4-8v-1l4 8q3-1 4-6l1-1v8l1-3v-1h1v8l3-2v1q1 4-3 13-12-3-65-8zm0-1h3l65 8 3-12-4 3v-9l-1 4-1 1v-8q-1 4-4 6h-1q0-6-3-8-2 7-4 9h-1l1-1v-4q-3 1-4 5v-1l-1-8-2 5v1l-1-1q1-3-2-8l-2 7-1 1q0-4-3-7v9q0-4-3-7l-4 7v1-1l-1-7q-1 4-4 4v1-1q0-6-3-10-2 1-3 7l-3-4-1-1-2 10-1 1q-1-4-4-7v9q-1-4-6-6l1 6v2h-1q-1-3-4-3z"/><path fill="#f7e017" d="M757 297q0-3 6-5c5 1 9 5 13 4q4 1 1 2l-1 2q1 2-1 1h-12q-6-1-6-4m-42 110q-6 8-9 1l1-10q1-6 4-4c2 1 5-3 7 2q4 9 3 12-3 3-6-1"/><path d="M715 407q-3 5-5 5l-4-4 1-6v-4l1-4h5q4-2 6 2v1l2 11q-1 2-3 1zm0 0 2 2 2-1q1-3-1-10l-1-2q-1-2-5-2h-5v4l-1 5v5q0 3 3 3t5-4"/><path fill="#f7e017" d="M733 397c0-3 3-7 6-4 2 3 5-3 7 2l4 11c0 3-5 4-7 2q-3 4-7-2z"/><path d="M733 397q-1-3 2-4 2-3 4 0h3q3-1 4 2l4 11-1 2-2 1h-5l-2 1q-4 0-4-4l-1-3zm0 0 2 6 1 3q1 3 4 3h2v-2l1 1 4 1 2-1v-2l-1-3-2-8q-1-3-4-1t-4-1h-3z"/><path fill="#f7e017" d="M761 400q1-6 7-2 3-4 6 3v11q0 6-5-1-5 1-6-5z"/><path d="M761 400v-2l2-2q3-2 5 1l3-1q3 1 3 5l1 11-1 2-1 1q-3 0-4-3l-4-1-2-5zm1 0 1 6 2 4 4 1q2 3 4 3h1v-13l-3-4-3 1v1-1q-2-3-5-2l-1 2z"/><path fill="#337321" d="M718 396q1-4 6-3c4 3 7-1 9 3 3 10 3 11 2 13q-3 3-6-1h-6z"/><path d="M720 393h4l4 1q4-1 5 2 3 12 2 13 0 2-3 1-3 0-3-2l-3 1-3-1-5-11v-1q-1-1 2-3m-2 3q3 10 5 11l3 1 2-1 1-1v1l3 3 3-1q1-2-3-13 0-2-4-2h-4q-1-3-4-1z"/><path fill="#337321" d="M747 397c-1-3 5-5 8-1q3-3 6 4t1 10q-2 2-5-1-4 2-7-3z"/><path d="M747 397v-2l2-2q5 0 6 3l3-1q3 1 4 5v10l-2 1-3-1h-4l-4-4v-1z"/><path fill="#337321" d="M774 402q1-5 5-1c1 4 5 0 5 7l-1 8c-2 2-8 0-8-4z"/><path d="M774 402q0-3 2-3 1-1 3 2l2 2q3 1 4 5l-2 8q-1 2-5 1l-4-5zm0-1 1 10q0 3 3 4h4l2-8q0-4-3-4l-3-3-2-2zm-59 6-3-3q-1-2-3 1 1-3 4-2zm14 1-3-7zm13 0-3-5h1q0 3 3 5zm-1-10q3 0 5 5l4 4q-3 0-4-4zm16 11-1-3v-1zm-2-13 2 5zm14 15-4-6q3 2 4 6m0-10q0 3 3 5l3 4h-1l-2-3zm10 0 1 5h-1z"/></svg>