<svg xmlns="http://www.w3.org/2000/svg" viewBox="0 0 1000 1000"><path fill="red" d="M8 195c171-85 341-54 513-28 155 24 312 45 471-34v672c-171 85-341 54-513 28-155-24-312-45-471 34z"/><path fill="#060" d="M8 195c130-65 260-63 394-45v672A651 651 0 0 0 8 867z"/><path fill="#ff0" d="M530 609c-40-8-216-139-264-182q-14-12-14-17l12-22c18 27 259 202 278 201z"/><path d="M530 609q-18-3-64-34a2173 2173 0 0 1-215-166l13-21h1q7 12 49 43l89 67 89 63a162 162 0 0 0 50 28zm0-1 11-18q-10-1-49-28-38-25-89-64l-89-66q-41-31-50-43l-12 21q1 8 37 36a3056 3056 0 0 0 177 129q46 30 64 33"/><path fill="#ff0" d="M397 495c-77-57-139-98-135-110l2-4 1 5c9 16 67 56 134 106s121 85 142 94q5 3 6 0l-2 4c-5 4-70-37-148-95m129 115c-19-5-75-42-142-91-78-57-140-99-134-110l2-4c-4 15 102 87 129 107l5 3c78 59 141 98 147 91l-2 4z"/><path d="m261 385 2-3h1l1 5c8 13 52 44 134 106a1830 1830 0 0 0 142 94h7v1l-1 1-1 2v1h-1q-4 3-47-24-47-30-101-71l-98-73q-41-30-38-38m270 225-5 1q-14-5-53-30l-89-62-99-72q-41-31-35-39l1-3h2c-4 12 39 42 128 106l5 4q56 42 100 70 43 26 47 21l1 1zM262 385q-3 8 37 38l99 72q54 41 100 71 43 26 47 24l1-2-5-1q-18-8-54-32-42-27-88-62c-83-62-127-93-134-107l-2-3zm269 224 1-1q-9 0-46-22-45-29-100-70l-5-4c-87-62-129-92-129-105l-2 2q-4 6 36 37l99 72q49 38 88 63t53 29z"/><path fill="#ff0" d="M402 434c-57-8-102-15-145-33l7-14c23 16 71 24 137 34 57 6 118 8 139 0l8 13c-35 9-96 6-146 0"/><path d="m402 434-78-12q-37-8-67-21h-1v-1l7-13h1q33 20 137 33l83 6a164 164 0 0 0 57-6l7 14v1q-25 6-68 5-37 0-78-6m0-1q40 6 78 6 43 1 67-5l-7-13q-15 6-56 6l-83-6q-104-12-137-33l-7 12q31 14 67 21z"/><path fill="#ff0" d="M550 435c-2 2-24 6-58 7q-35 0-90-6l-87-14q-51-13-60-19l1-3q29 11 60 18a1201 1201 0 0 0 175 20q53-2 56-8zm-7-14q-6 6-55 7a721 721 0 0 1-169-20q-49-12-57-17l2-4q6 6 56 17a1064 1064 0 0 0 167 20c33 0 51-6 54-7z"/><path d="M550 435q-1 2-17 4l-41 4q-42 0-90-7l-87-14q-34-7-60-18l-1-1 1-1 1-2 1-1q27 12 59 18a1213 1213 0 0 0 175 21l40-3q13-3 16-5h1zm-7-13q-9 6-55 6a730 730 0 0 1-169-20q-30-6-55-16l-3-1 2-4h1q17 9 56 17a1040 1040 0 0 0 167 19q21 1 38-2l16-5 3 5zm6 13-2-4q-3 3-16 5l-40 3a731 731 0 0 1-175-21q-32-6-59-18l-1 2-1 1h1q26 10 59 18a1239 1239 0 0 0 177 21 344 344 0 0 0 57-7m-6-14-2-4-15 5q-17 3-39 2a722 722 0 0 1-167-19q-38-9-56-17l-2 3h2q26 10 55 16a1000 1000 0 0 0 169 20 300 300 0 0 0 55-6"/><path fill="#ff0" d="M239 485v-15c22 14 90 27 162 37 73 10 153 10 162-4l1 17c-29 12-104 9-163 1-63-9-132-20-162-36"/><path d="m239 485-1-15h1q0-1 0 0 17 10 62 19 46 10 100 17 54 8 105 8 50-2 57-11h1v1l1 16-1 1q-20 8-70 7a804 804 0 0 1-186-22 290 290 0 0 1-69-21m1 0q21 10 68 20 42 8 93 15 46 7 93 7 49 1 70-7l-1-15q-9 9-57 9-51 1-105-7t-100-17q-44-9-62-19z"/><path fill="#ff0" d="M566 503v4c-5 4-31 8-65 9q-38 0-100-8-59-8-96-16c-38-7-63-16-68-19v-5c15 9 55 18 69 21a1222 1222 0 0 0 195 23c24 0 58-4 65-9m0 18c-5 5-31 9-65 9q-38 1-100-8-59-7-96-15-59-14-68-20v-5c15 10 55 18 69 21a1227 1227 0 0 0 195 23c24 0 58-4 65-9z"/><path d="M566 517v4q-3 4-21 7l-44 2q-45 1-100-7a1245 1245 0 0 1-143-28l-21-8v-5q17 10 69 21a1223 1223 0 0 0 195 23l39-3a72 72 0 0 0 26-6m0-14v4q-3 4-21 6-19 3-44 3-45 0-100-7a1242 1242 0 0 1-143-28l-21-8v-5q17 10 69 20a1222 1222 0 0 0 195 23q18 1 39-2a71 71 0 0 0 26-7zm-1 15q-6 3-25 6l-39 3q-45 0-100-8-53-6-95-16-52-10-68-20v4l21 8 46 11a1246 1246 0 0 0 196 24l43-3q18-3 21-6zm0-14q-6 3-25 6-21 3-39 2-45 0-100-7-53-7-95-16-52-10-68-20v3q5 4 21 8 22 8 46 12a1241 1241 0 0 0 196 23q25 0 43-3 18-2 21-5z"/><path fill="#ff0" d="M258 554c13 3 73 23 143 33 45 5 121 5 143-2l-9 14a543 543 0 0 1-267-30z"/><path d="M401 586a623 623 0 0 0 144-1l-10 14q-23 9-59 8-29 0-74-5a526 526 0 0 1-135-33l-9-15v-1l7 2q75 22 136 31m0 1q-62-9-136-31l-6-1 9 13q20 9 55 18a522 522 0 0 0 211 13l9-13q-18 5-62 5-46 1-80-4"/><path fill="#ff0" d="m547 584-4 5c-8 1-30 5-63 4-22 0-35 1-78-4-80-13-132-29-145-33l-2-3q70 19 147 32c39 4 56 4 77 4q57-1 64-4l-1-1zm-13 18a511 511 0 0 1-133 1c-62-9-113-24-137-34l-2-4h1l3 1q66 24 136 34 43 4 81 4c35-2 50-6 54-7l1-1z"/><path d="m547 583-3 5h-1q-24 5-63 5h-9q-33 0-69-5a991 991 0 0 1-145-32l-2-4v-1h1q78 22 146 33 35 4 71 4h6q37 0 63-5zm-8 13-5 6q-24 6-50 6-37 2-83-4a764 764 0 0 1-137-35l-2-3v-1h1l3 1q57 21 136 33a508 508 0 0 0 135-3zm4-11q-25 5-63 5h-6q-36-1-71-4-68-11-146-33l2 3q62 20 144 32 36 5 69 5h9q39 0 63-5l3-4zm-6 12q-12 5-54 7-43 1-81-4-79-12-136-33l-3-1 2 3q19 9 54 17 39 11 82 17 46 6 83 4 25 0 50-6z"/><path fill="#ff0" d="M401 320c90 12 163 99 163 190 0 92-73 153-163 142-90-12-162-86-162-176 0-93 72-167 162-156m146 183a177 177 0 0 0-141-166c-32-5-70 3-99 26-28 24-48 59-51 111 1 46 19 79 42 107 12 14 56 48 103 53q63 7 104-29c19-16 42-54 42-102"/><path d="M401 319q33 5 63 23a205 205 0 0 1 100 168q0 33-13 63a135 135 0 0 1-87 75q-30 9-63 4a192 192 0 0 1-150-112 167 167 0 0 1 35-182 139 139 0 0 1 115-39m0 1a137 137 0 0 0-114 39q-23 22-35 52a169 169 0 0 0 35 182 194 194 0 0 0 114 58q33 5 63-4a135 135 0 0 0 87-75q12-29 12-62 0-34-12-66a206 206 0 0 0-87-102q-30-17-63-22m147 184q0 32-14 63-12 26-29 39-44 36-104 29-31-3-65-23-26-16-38-30-42-50-42-108 3-72 51-111a126 126 0 0 1 99-26q29 4 57 22 31 21 52 50 15 19 22 42 7 22 11 52m-1-1q-3-30-11-51-7-22-21-43-22-29-52-49-28-18-57-22a127 127 0 0 0-98 26q-48 38-51 110 0 58 42 107 12 14 38 30 33 20 64 23 59 7 104-29 15-13 28-39 14-30 14-63"/><path fill="#ff0" d="M401 319c90 12 163 100 163 191 0 93-73 153-163 142-89-12-162-85-162-176 0-93 73-168 162-157M243 476c0 88 71 161 158 172 88 11 159-48 159-139 0-88-71-174-159-186-87-11-158 62-158 153"/><path d="M401 319q33 4 64 22a204 204 0 0 1 99 169q0 34-13 63a136 136 0 0 1-86 75q-30 9-64 5a191 191 0 0 1-150-113 168 168 0 0 1 35-182q24-22 52-33 30-10 63-6m0 1a137 137 0 0 0-114 39q-22 22-35 52a170 170 0 0 0 35 182 194 194 0 0 0 114 59q33 3 63-4a134 134 0 0 0 87-76q12-29 12-62 0-34-12-67a206 206 0 0 0-87-101q-30-18-63-22M242 476a167 167 0 0 1 47-115q23-22 51-32 30-10 61-6 32 4 62 21a200 200 0 0 1 98 165q0 33-13 62a133 133 0 0 1-85 74q-30 8-62 4a186 186 0 0 1-146-110q-13-30-13-63m1 0a163 163 0 0 0 47 115 191 191 0 0 0 111 57q32 4 62-4a132 132 0 0 0 84-74q13-28 13-61 0-32-13-65a203 203 0 0 0-84-99q-29-17-62-21a134 134 0 0 0-111 37q-22 22-34 52-13 30-13 63"/><path fill="#ff0" d="M402 333c81 11 148 91 148 175 0 85-67 140-148 130-82-11-149-79-149-163s67-152 149-142M256 475c1 82 66 149 146 159 79 10 144-44 145-127-1-81-66-159-145-170-80-10-145 56-146 138"/><path d="M402 333q30 3 57 20a187 187 0 0 1 92 155q0 31-12 57a125 125 0 0 1-80 70q-27 7-57 4a173 173 0 0 1-106-55q-20-22-32-49a155 155 0 0 1 32-167q21-20 48-30 27-9 58-5m0 1a126 126 0 0 0-105 35q-21 20-32 47a154 154 0 0 0 32 167 179 179 0 0 0 105 55q30 3 57-4a123 123 0 0 0 79-69q12-27 12-57 0-31-12-61a190 190 0 0 0-79-93q-27-17-57-20M256 475a151 151 0 0 1 43-104 125 125 0 0 1 103-35q29 5 56 20a182 182 0 0 1 89 151q0 30-11 56a122 122 0 0 1-78 68q-27 7-56 4a168 168 0 0 1-103-53q-20-22-32-49-11-27-11-58m1 0a151 151 0 0 0 42 106 175 175 0 0 0 103 53q29 3 56-4a121 121 0 0 0 77-67q11-26 11-56t-11-59a185 185 0 0 0-77-91q-27-15-56-20a123 123 0 0 0-103 35q-19 19-31 46-11 27-11 57"/><path fill="#ff0" d="M408 320v334l-14-2V318z"/><path d="M408 319v334h-1l-14-1V317zm0 1-13-2v334l13 1z"/><path fill="#ff0" d="m396 316 1 338h-4V316zm14 2v338h-3V318z"/><path d="m393 315 3 1h1v339l-4-1h-1zm14 2 3 1h1v338l-1 1-3-1h-1zm-14-1v337l3 1V317zm14 2v337l3 1V318z"/><path fill="#ff0" d="m564 516-26-17-41-16-59-16-81-10-83 8-36 17v-13l14-10 69-15q48 0 97 5l80 21 56 23 10 11z"/><path d="m564 516-26-17-41-17-59-15-81-11-83 9-36 16v-13l14-11 69-15 97 6 80 20 56 24 10 11zm-1-1v-11l-9-10-56-24-80-20q-48-4-97-6l-68 15-14 11v11l34-16h1q41-6 83-8l81 10 59 15 41 17z"/><path fill="#ff0" d="M402 446q59 8 105 25t59 31v5c-9-12-38-25-60-33q-45-16-104-24-62-8-107 0c-23 3-54 13-58 23v-5c3-6 25-17 57-22q46-8 108 0m0 14q59 9 105 25 46 17 59 32v4c-9-12-38-24-60-32q-45-17-104-25-62-7-107 0c-24 4-54 13-58 23v-5c2-6 25-16 57-22q46-7 108 0"/><path d="M402 445q56 8 105 25 48 18 59 32v5h-1q-10-14-59-32a504 504 0 0 0-211-25q-19 3-36 9-19 8-21 14h-1v-5q2-5 17-12 18-6 40-11 48-8 108 0m0 15q56 7 105 25 48 17 59 31v6l-1-1q-11-14-59-32a505 505 0 0 0-211-25q-21 4-36 10-19 6-22 13v-5q1-4 17-12 16-7 40-10 49-8 108 0m0-14q-59-7-107 0-24 4-40 11-16 6-17 11v3q3-6 21-13 16-6 36-9 48-8 107 0 56 7 104 25 48 17 59 31v-2q-10-14-58-32-49-17-105-25m0 15q-59-7-107 0-24 4-40 10-16 7-17 11v3q3-6 21-12 15-6 36-10 48-7 107 0 56 8 104 25t59 32v-3q-10-15-59-31-48-18-104-25"/><path fill="#ff0" d="M401 373c60 7 113 25 137 42l9 16c-21-14-78-36-146-43-56-7-114-4-145 12l11-18c25-13 81-16 134-9"/><path d="M401 372q44 6 82 18a222 222 0 0 1 55 24l9 17v1q-17-12-56-24-42-14-90-20-105-11-145 13v-1l10-18h1q17-10 56-12 36-3 78 2m0 1q-42-4-78-3-38 3-56 13l-10 16q41-23 144-11a447 447 0 0 1 145 42l-8-15q-19-12-55-24-38-12-82-18"/><path fill="#ff0" d="M496 406c25 9 48 20 51 24l3 5c-8-7-29-16-55-25a486 486 0 0 0-189-23c-27 4-46 12-51 15l3-5q12-7 48-13 39-6 96 2 52 6 94 20m-94-34q51 6 90 19c21 7 40 17 48 23l3 7c-6-8-30-19-52-26a523 523 0 0 0-181-22q-36 7-45 13l3-5q14-8 42-11 39-6 92 2"/><path d="M402 385a489 489 0 0 1 128 34l18 11 2 5q-13-10-55-25a475 475 0 0 0-223-15l-16 8h-1v-1l2-5h1q18-10 48-14 34-5 96 2m91 6a155 155 0 0 1 47 23l4 7v1l-1-1q-9-11-52-26a515 515 0 0 0-181-21 122 122 0 0 0-46 12l4-5q14-8 41-12 37-5 93 2 55 8 91 20m54 39-18-10a400 400 0 0 0-127-34zm-145-58q-56-7-92-2-28 5-42 11l-2 4q13-7 44-12 36-5 92 2 54 8 89 19 39 14 50 24l-2-3q-11-11-47-23t-90-20"/><path fill="#ff0" d="M482 567c-30-11-60-16-81-18-100-12-133 11-137 17l-7-13c26-19 80-28 145-18q51 8 87 20z"/><path d="M482 567a388 388 0 0 0-185-16q-27 7-32 15h-1l-8-13q20-15 59-21 38-4 87 2a473 473 0 0 1 88 21zm0-1 6-11a474 474 0 0 0-173-22q-39 6-58 20l7 12q6-7 32-15 41-9 105-2 45 6 81 18"/><path fill="#ff0" d="M402 533q44 6 88 20l-2 3c-26-9-51-15-86-20q-57-8-112 4c-12 3-32 10-33 16l-2-3c1-6 18-12 34-17q56-12 113-3m-1 14q42 5 82 18l-2 3a397 397 0 0 0-187-14c-11 3-27 9-30 15l-2-4q1-6 31-15 55-12 108-3"/><path d="m490 553-2 4h-1q-33-12-86-20-67-8-112 3-31 10-32 16l-1 1-2-4q1-8 34-17 45-12 113-4 55 8 88 21m-89-7a461 461 0 0 1 82 19v1l-2 3a401 401 0 0 0-187-15l-18 7q-10 4-11 8h-1l-2-3v-1q1-3 8-7 9-5 23-8 42-11 108-4m1-13q-68-8-113 4-32 8-33 16l1 2q3-7 32-16 46-11 113-3 53 8 86 20l2-3q-34-12-88-20m-1 14q-65-8-108 4-13 3-22 8l-8 6 1 3q2-4 12-8 8-4 17-6 47-12 108-4 45 6 80 18l1-2q-30-11-81-19"/><path fill="#ff0" d="m545 587-12 17-35-37-90-75q-50-36-102-67-25-11-52-20l11-22 4-2 33 10q53 30 108 67l62 49 53 47 21 29z"/><path d="m546 587-12 17h-1l-35-37-90-75q-50-35-102-67l-53-20 12-22 4-2 33 9q53 31 108 68l62 49 53 47 21 28zm-1-1v-3l-21-28-52-47-62-49q-54-36-109-68l-32-9-4 2-11 20 53 20 101 67 91 76 34 36z"/><path fill="#ff0" d="m548 587-3 3 1-2c-1-20-102-102-135-126-73-53-124-78-142-79h-1l-6 2 2-4c11-8 68 20 148 77 79 59 141 118 136 129M252 405c10-6 76 25 148 79s139 115 133 123l-2 3h-1v-4c-3-11-51-59-131-119-79-58-142-86-149-78zm293 185"/><path d="m548 587-2 3-1 1v-3q0-13-55-61-41-37-79-65-114-80-142-78h-1l-6 1v1h-1v-1l2-4h1c10-8 59 13 148 77q61 46 100 82 41 39 36 47M251 405q8-5 51 16 45 23 98 63 56 43 95 78 42 39 37 45l-2 3v1h-1v-5q-3-9-37-41-38-35-94-77-58-43-102-64-41-20-47-14h-1v-1zm295 183 1-2q4-7-36-45-39-38-99-82c-89-64-137-85-148-78l-1 2h6q28-2 143 79 37 27 79 64 55 49 55 62M252 406l-1 2q9-4 47 15 44 22 101 64t95 78q34 31 36 40l1 4 2-2q3-6-38-44-38-36-95-79-53-39-97-62-44-21-51-16"/><path fill="#fff" d="M304 495q1 41 29 72 28 30 68 37 41 4 69-20 28-23 29-66V385q-96-17-195-23z"/><path d="M304 495V361q96 7 195 24v134a84 84 0 0 1-98 85q-39-4-69-37-28-31-28-72m1 0q0 41 28 72 29 31 68 36 40 6 69-19 28-25 28-65V386q-95-16-193-24z"/><path fill="red" d="M308 495q1 41 27 70 27 28 66 35 40 4 66-19t28-63V389q-93-16-187-23zm149-73v98q-3 20-16 30-16 14-40 12-23-3-39-22a64 64 0 0 1-16-42v-90q54 5 111 14"/><path d="M458 422v82l-1 9v7q-3 19-16 31a49 49 0 0 1-40 11q-22-3-39-22a62 62 0 0 1-17-42v-91zm-1 91v-91l-111-14v90q0 24 16 42 17 18 39 21a48 48 0 0 0 55-41zm-149-18q0 40 28 69 27 30 65 35 39 5 66-18 27-24 27-63V389c-61-9-122-19-186-22zl1-129q91 6 187 23v129a80 80 0 0 1-94 82q-38-5-66-35-27-30-28-70"/><path fill="#ff0" d="M320 401c1-9 6-11 7-11 0 0 6 3 7 12zm-6-12-1 11h7c1-9 6-10 7-10 0 1 6 3 6 11l7 1-1-11z"/><path d="m314 388 24 2 2 11h-8v-1q0-5-3-8l-3-2-3 1-4 8v1l-7-1 1-11zm14 2 2 2q4 4 4 9h6l-1-10zm-13 0-1 9 6 1q0-5 3-8l2-2z"/><path fill="#ff0" d="m313 400 28 2 1 1-1 1-28-2-1-1z"/><path d="m313 399 28 2 1 1v2l-1 1-28-2-1-1-1-1 1-1zm0 1-1 1v1h1l28 2v-2z"/><path fill="#ff0" d="M323 400q1-7 4-7l4 8z"/><path d="m322 400 2-5q1-2 3-2l2 2 2 6zm1 0h7l-2-5-1-1-2 1z"/><path fill="#ff0" d="m313 385 27 2 1 1-1 1-27-2z"/><path d="m313 384 27 2 1 2-1 1-27-2-1-1zm0 1v1l27 2 1-1-1-1z"/><path fill="#ff0" d="m314 387 25 2 1 1-1 1-25-2-1-1z"/><path d="m314 387 25 2 2 1-1 1-1 1-25-2-1-1v-1zm0 0h-1l1 1 25 2h1v-1l-1-1z"/><path fill="#ff0" d="M322 370h2v1l2 1v-2h2v2h1v-2h2v4l-1 1-7-1-1-1z"/><path d="m322 369 3 1v1-1h3v1h1v-1h3v4l-1 1h-8l-1-2zm1 1v4h8v-3h-1v1h-3v-1l-1-1v2h-2z"/><path fill="#ff0" d="M330 375v11l-7-1 1-11z"/><path d="m330 375 1 11h-8v-12zm-1 0h-5v10h6z"/><path fill="#ff0" d="M321 379v6h-6v-6z"/><path d="M322 379v7l-8-1v-7zm-1 1-6-1v5l6 1z"/><path fill="#ff0" d="M339 381v5h-7v-6z"/><path d="M339 381v6l-7-1v-6zm-1 0h-5l-1 5h6z"/><path fill="#ff0" d="M314 375h2v1h1v-1h2v1h1v-1h2v4h-8z"/><path d="M314 374h2v2h1v-2l2 1v1h1v-1h3v4h-1v1l-8-1-1-1zm0 1v3l8 1v-3l-1-1v2h-2v-2h-2v2h-2v-2z"/><path fill="#ff0" d="M331 376h2v1l1 1v-2h2v2h2v-2h2v4l-1 1-7-1-1-1z"/><path d="m331 375 2 1v1h1v-1h3v1-1h3v4l-1 1-7-1-1-1zm0 1v3l1 1h7v-3h-1v1h-2v-1l-1-1v2h-3v-2zm-5 2h1v3h-1zm-9 3h2v2h-2zm18 1 1 1v2l-1-1z"/><path fill="#ff0" d="M320 479c1-10 6-11 7-11 0 0 6 2 7 12zm-6-12-1 11h7c1-9 6-10 7-10 0 0 6 3 6 11l7 1-1-11z"/><path d="m314 466 24 1 2 12-8-1q0-5-3-8l-3-2-3 1-4 8h-7zm14 2 2 2q4 4 4 9h6l-1-10zm-13 0-1 9 6 1q0-6 3-9l2-1z"/><path fill="#ff0" d="m313 478 28 2 1 1-1 1-28-2-1-1z"/><path d="m313 477 28 2 1 1v2l-1 1-28-2-1-1-1-1 1-1zm0 1v1h1l28 2v-2z"/><path fill="#ff0" d="M323 478q1-7 4-7l4 8z"/><path d="m322 478 2-6 3-1 2 2 2 6zm1 0h7l-2-5-1-1-2 1z"/><path fill="#ff0" d="m313 462 27 2 1 2-1 1-27-2-1-1z"/><path d="m313 462 27 2 1 2-1 1-27-2-1-1zm0 1 27 2h1l-1-1z"/><path fill="#ff0" d="m314 465 25 2 1 1-1 1-25-2-1-1z"/><path d="m314 464 25 2 2 2-1 1-1 1-25-2-1-1v-1zm0 1-1 1 1 1 25 2h1v-1l-1-1z"/><path fill="#ff0" d="M322 448h2v1h2v-1h2v2h1v-2h2v4h-8l-1-1z"/><path d="M322 447h3v2-2l3 1v1h1v-1h3v4l-1 1h-1l-7-1-1-1zm1 1v4h8v-3h-1v1h-3v-2h-1v2h-2z"/><path fill="#ff0" d="M330 453v11l-7-1 1-11z"/><path d="m330 453 1 11-8-1v-11zm-1 0h-5v10h6z"/><path fill="#ff0" d="M321 457v6h-6v-6z"/><path d="M322 457v6h-8v-7zm-1 0h-6v5l6 1z"/><path fill="#ff0" d="M339 458v6h-7v-6z"/><path d="M339 458v7l-7-1v-7zm-1 1-5-1-1 5 6 1z"/><path fill="#ff0" d="m314 452 2 1v1h1v-1h2v1h1v-1h2v4h-8z"/><path d="M314 452h2v2h1v-2h2v2h1v-2l3 1v3l-1 1v1l-8-1-1-1zm0 1v3l8 1v-4h-1v2h-2v-2h-2v2l-2-1v-1z"/><path fill="#ff0" d="M331 454h2v1h1v-1h2v1l2 1v-2h2v4h-8l-1-1z"/><path d="M331 453h2v2h1v-2l3 1v1-1h3v5h-1l-7-1-1-1zm0 1v3h1l7 1v-3h-1v1h-2v-2h-1v2h-3v-2zm-5 2h1v3l-1-1zm-9 3h2v2h-2zm18 1h1v2h-1z"/><path fill="#ff0" d="M350 562c-6-8-4-13-4-13 1 0 6-3 13 4zm-12-5 6 9 5-5c-6-7-3-11-2-12 0 0 5-2 12 4l4-5-8-7z"/><path d="m337 557 17-17 9 8-5 5h-1q-3-4-7-4h-4v1l-1 3q0 4 3 8l1 1-6 5zm11-9h3l8 4 4-4-8-7zm-9 10 5 7 5-4q-4-4-4-8l1-3z"/><path fill="#ff0" d="m344 566 20-18h1v2l-19 18h-2z"/><path d="m344 566 19-18 2-1 1 1v2l-20 19h-1l-1-1-1-1zm0 1h1l19-18v-1l-1-1z"/><path fill="#ff0" d="m351 560-2-8s3-2 8 3z"/><path d="m351 560-3-6 1-3h2l6 3v1zm0-1 5-5-5-2h-2v2z"/><path fill="#ff0" d="m334 554 19-17h1v1l-18 18h-2z"/><path d="m334 554 19-18 2 1v2l-19 17h-2l-1-1zm0 1h1l19-18v-1h-1z"/><path fill="#ff0" d="m336 556 18-17h2v2l-18 17-2-1z"/><path d="m336 555 18-16h2v2l-18 17h-2zm0 1v1h1l18-17q1 0 0 0v-1h-1z"/><path fill="#ff0" d="m330 537 1-2 1 1h1l-1-2 1-1 1 1 2-1-2-1 2-1 2 2v1l-5 5h-1z"/><path d="m329 536 2-1 1 1v-1l-1-1 2-2 1 2 1-1-1-1 2-2 3 3v2l-6 5h-1zm1 1 2 2h1l5-5v-1l-2-2-1 1 1 1-2 2-1-1 1 2-2 1-1-1z"/><path fill="#ff0" d="m338 535 8 8-5 5-7-9z"/><path d="m338 535 8 8-5 5-8-9zm0 1-4 3 7 8 4-4z"/><path fill="#ff0" d="m335 545 5 4-5 5-4-5z"/><path d="m336 544 4 5-5 5-5-5zm-1 1-3 4 3 4 4-4z"/><path fill="#ff0" d="m348 533 4 4-5 5-4-5z"/><path d="m348 533 4 4-5 6-4-6zm0 1-4 3 3 4 4-4z"/><path fill="#ff0" d="m327 547 2-2 1 1 1-1-1-1 1-1 1 1 1-1-1-1 1-1 3 2v1l-5 5h-2z"/><path d="m327 546 2-1 1 1v-1l-1-1 2-2 1 1-1-1 2-2 3 3v2l-5 4h-2zm1 1 2 2 5-5v-1l-2-2v1l1 1-2 2-1-1h-1l1 1-1 2-1-1z"/><path fill="#ff0" d="m339 535 2-1 1 1 1-1-1-1 1-2 1 1 1-1-1-1 2-1 2 3v1l-5 5-1-1z"/><path d="m339 535 2-2 1 1-1-1 2-2 1 1 1-1-1-1 2-2 2 3 1 1-1 1-5 5h-2zm1 0 2 2h1l5-4v-1l-2-2h-1l1 2-2 1-1-1-1 1 1 1-1 1zm-2 5q-1-1 1-1l2 2-1 1zm-4 9q0-2 1-1l2 2h-1zm12-12 1-1 2 2-1 1z"/><path fill="#ff0" d="M395 408c1-9 6-10 7-10 0 0 6 3 6 12zm-6-12-1 11 7 1c1-9 6-10 7-10 0 0 6 3 6 11l7 1-1-11z"/><path d="m389 395 24 3 2 12-8-1v-1q0-5-3-8l-3-2q-1-1-3 1-3 2-4 8l-7-1 1-11zm14 3 2 2q4 4 4 9l6 1-1-10zm-13-1-1 9 6 1q0-6 3-8l2-1z"/><path fill="#ff0" d="m388 407 28 3 1 2-1 1-28-4-1-1z"/><path d="m388 406 28 4 1 1v2h-1l-28-3-1-1-1-1 1-1zm0 1v1h1l28 4v-2z"/><path fill="#ff0" d="M398 408q1-8 4-7 2 0 3 8z"/><path d="m397 408 2-6 3-1 2 2 2 6zm1 0h7l-2-5-1-1-2 1q-2 1-2 5"/><path fill="#ff0" d="m388 392 27 3 1 1-1 1-27-3z"/><path d="m388 391 27 4 1 1-1 2-27-4-1-1zm0 1v1l27 3 1-1h-1z"/><path fill="#ff0" d="m389 394 25 3 1 2-1 1-25-4-1-1z"/><path d="m389 394 25 3 2 2-1 1h-1l-25-3-1-1v-1zm0 1 1 1 25 3h1l-1-1z"/><path fill="#ff0" d="m397 377 2 1v1h2v-1h2v2h1v-2h2v4l-1 1-7-1-1-1z"/><path d="M397 377h3v2-2l3 1v1h1v-1h3v4l-1 1h-1l-7-1-1-1zm1 1v3l7 1h1v-3h-1v1h-3v-2h-1v2l-2-1z"/><path fill="#ff0" d="M405 383v11l-7-1 1-11z"/><path d="m405 383 1 11-8-1v-11zm-1 0-5-1v10l6 1z"/><path fill="#ff0" d="M396 387v6l-6-1v-6z"/><path d="M397 387v6l-8-1v-7zm-1 0-6-1v5l6 1z"/><path fill="#ff0" d="M414 389v6l-7-1v-6z"/><path d="M414 389v6l-7-1v-6zm-1 0h-5l-1 5h6z"/><path fill="#ff0" d="M389 382h1v1h2v-1h2v2h1v-2l2 1v4l-8-1z"/><path d="M389 381h2v2h1v-2l2 1v1h1v-1h3v4l-1 1-8-1-1-1zm0 1v3l8 1v-3h-1v1h-2v-1l-2-1v2h-2v-2z"/><path fill="#ff0" d="M406 384h2v2h1v-2h2v2h2v-1h2v3l-1 1-7-1-1-1z"/><path d="m406 383 2 1v1h1v-1h3v2-2l3 1v4h-8l-2-2zm0 1v3l1 1 7 1v-4h-1v2l-2-1v-1h-1v1h-3v-2zm-5 2h1v3l-1-1zm-9 2 2 1v2l-2-1zm18 3h1v2h-1z"/><path fill="#ff0" d="M483 421c-1-10-6-13-7-13 0 0-6 2-7 11zm5-11 2 11-7-1c-1-9-6-11-7-11 0 0-6 1-7 9l-6-1 1-10z"/><path d="m489 409-25-4-1 11 8 2v-1q0-4 3-7l3-2 3 2q3 4 3 9v1l8 1-1-12zm-14 0-2 1q-4 3-4 8l-6-1 1-10zm13 2 1 10-6-1a14 14 0 0 0-5-11z"/><path fill="#ff0" d="m490 421-28-4-1 1 1 2 28 4 1-1z"/><path d="m490 421-28-4h-1v2l1 1 28 4h1l1-1-1-1zm0 1h-1l-28-4v-2z"/><path fill="#ff0" d="M480 420c0-6-4-8-4-8q-1-1-4 7z"/><path d="M480 420q1-4-2-6l-2-2-2 1-2 5v1zm0-1-7-1q0-3 2-4l1-2 2 2z"/><path fill="#ff0" d="m489 406-26-4-1 1 1 1 26 4 2-1z"/><path d="m489 406-26-4q-2-1-2 1l2 2 26 4q2 1 2-2v-1zm0 0-1 1-26-4-1-1 1-1z"/><path fill="#ff0" d="m489 408-26-4-1 1 1 2 26 4 1-1z"/><path d="m489 408-26-4-1 1v2h1l26 4h1v-1zm0 1-26-4v-1z"/><path fill="#ff0" d="M481 389h-2v1h-2v-1l-2-1v2h-1v-2h-2v3l1 1 7 1h1z"/><path d="M481 389h-3v1-2h-3v1h-1v-1l-3-1v4l1 1 1 1 7 1 1-1zm-1 1v3l-7-1-1-1v-3l1 1v1h3v-1h1v2z"/><path fill="#ff0" d="M473 393v10l7 1-1-10z"/><path d="m473 393-1 11 8 1v-12zm1 0 5 1v10l-6-1z"/><path fill="#ff0" d="M482 399v6l6 1v-6z"/><path d="M481 399v6l8 1-1-6zm1 1h6v5l-6-1z"/><path fill="#ff0" d="M464 396v6l7 1v-6z"/><path d="M464 396v7l7 1v-7zm1 1 5 1v5l-5-1z"/><path fill="#ff0" d="M489 396h-2v1h-1v-2h-2v2l-2-1v-1h-2v3l1 1 7 1 1-1z"/><path d="m489 396-2-1v2h-1v-2h-2v1h-1v-2h-3v4l1 1 7 1q2 1 2-1zm0 0v3l-1 1-7-1v-4h1v2h2v-1h2v1l2 1v-2z"/><path fill="#ff0" d="M472 393h-2v1h-1v-1l-2-1v2h-2v-2h-2v3l1 1 7 1h1z"/><path d="m472 393-2-1v2h-1v-2h-3v1h-1v-1l-2-1v5l1 1 7 1 1-1zm0 1v3h-1l-7-1-1-1v-3l2 1v1h2v-1h1v2h2v-2zm5 3q0-2-2-1v3h2zm9 5h-2v2h2zm-18-3h-1v2h1z"/><path fill="#ff0" d="M483 499c-1-10-6-13-7-13 0 0-6 1-7 11zm5-11 2 11-7-1c-1-9-6-11-7-11 0 0-6 1-7 9l-6-1 1-11z"/><path d="m489 487-25-4-1 11 8 1q0-5 3-7l3-2 3 2q3 4 3 9l8 1-1-11zm-14-1-2 2q-4 3-4 7h-6l1-10zm13 3 1 10-6-1a14 14 0 0 0-5-11z"/><path fill="#ff0" d="m490 499-28-4-1 1 1 1 28 5 1-1z"/><path d="m490 499-28-5-1 1v2l1 1 28 4h1l1-1-1-2zm0 1h-1l-28-4v-2z"/><path fill="#ff0" d="M480 497c0-5-4-7-4-7q-1-1-4 6z"/><path d="M480 498q1-4-2-7l-2-2-2 2-2 5v1zm0-1-7-1 2-5 1-1 2 2z"/><path fill="#ff0" d="m489 484-26-4-1 1 1 1 26 4 2-1z"/><path d="m489 483-26-4-2 2 2 2 26 4 2-2v-1zm0 1-1 1-26-4-1-1v-1h1z"/><path fill="#ff0" d="m489 486-26-4-1 1 1 2 26 4 1-1z"/><path d="m489 486-26-4-1 1v1l1 1 26 4h1v-1zm0 1v1l-26-4v-1z"/><path fill="#ff0" d="M481 467h-2v1h-2v-1l-2-1v2h-1v-2h-2v3l1 1 7 1 1-1z"/><path d="m481 467-3-1v2-2h-3v1h-1v-1l-3-1v4l2 2 7 1 1-1zm-1 0v4l-7-1-1-1v-3h1v2h3v-1h1v1l2 1z"/><path fill="#ff0" d="M473 470v11l7 1-1-11z"/><path d="m473 470-1 12 8 1v-12zm1 1 5 1v10l-6-1z"/><path fill="#ff0" d="M482 477v6l6 1v-6z"/><path d="M481 477v6l8 1-1-7zm1 0 6 1v5l-6-1z"/><path fill="#ff0" d="M464 474v6l7 1v-6z"/><path d="M464 474v6l7 1v-6zm1 1h5v6l-5-1z"/><path fill="#ff0" d="m489 474-2-1v2h-1v-2h-2v1h-2v-1l-2-1v4l1 1 7 1 1-1z"/><path d="M489 473h-2v1h-1v-1l-2-1v2h-1v-2h-3v4l1 1 7 1 2-1zm0 1v3h-1l-7-1v-3h1v2h2v-2l2 1v1h2v-1z"/><path fill="#ff0" d="M472 471h-2v1h-1v-1l-2-1v2h-2v-2h-2v3l1 1 7 1 1-1z"/><path d="m472 471-2-1v2h-1v-2h-3v1h-1v-1l-2-1v5l1 1 7 1 1-2zm0 0v3l-1 1-7-1-1-1v-3h2v2h2v-1h1v1l2 1v-2zm5 3h-2v3h2zm9 6-2-1v2l2 1zm-18-3h-1v2h1z"/><path fill="#ff0" d="M453 575c6-6 4-12 4-12-1-1-7-4-13 1zm12-2-7 7-4-5c5-6 2-12 2-12s-5-4-12 1l-5-6 9-6z"/><path d="m466 573-17-21-9 6 5 6h1q3-3 7-2l4 1 1 4q0 4-4 7v1l6 6zm-11-11-3-1q-4-1-8 2l-4-5 8-5zm9 11-6 7-4-5q4-4 4-8l-1-3z"/><path fill="#ff0" d="m459 581-20-23h-1l-1 1 20 23h2z"/><path d="m459 580-20-23h-1l-1 1v1l20 24h2zm-1 1v1h-1l-19-23v-1h1z"/><path fill="#ff0" d="M452 572q3-6 2-7 0-2-8 1z"/><path d="m452 573 3-6-1-2-2-1q-4 0-6 2zm0-1-5-6q2-2 5-1h2v2z"/><path fill="#ff0" d="m469 571-19-22h-1l-1 1 19 23h2z"/><path d="m469 571-19-22-2-1v3l19 22h2l1-1zm0 0h-2l-18-22v-1h1z"/><path fill="#ff0" d="m467 572-18-21h-2v1l18 21 2 1z"/><path d="m467 572-18-21-2-1v3l18 21h2zm0 0h-2l-18-21 1-1h1z"/><path fill="#ff0" d="m473 555-1-2-1 1-1-1 1-1-2-2-1 1-1-1 1-1-1-2-2 2v1l5 6 1 1z"/><path d="m474 554-2-2-1 1h-1l1-1-2-3-1 1 1-1-2-3-3 3v2l5 6h2zm-1 0-2 2h-1l-5-6v-1l2-1 1 1h-1l1 2h1l1 1h-1l2 2 1-1z"/><path fill="#ff0" d="m465 551-8 6 5 6 7-7z"/><path d="m465 551-9 6 6 7 8-8zm0 1 4 4-7 6-4-5z"/><path fill="#ff0" d="m467 561-4 3 5 6 4-4z"/><path d="m467 561-4 3 5 7 4-4zm1 1 3 4-3 3-4-4z"/><path fill="#ff0" d="m455 547-4 3 5 6 4-4z"/><path d="m455 546-5 4 6 6 4-4zm0 1 4 5-3 3-4-5z"/><path fill="#ff0" d="m476 565-2-2-1 1-1-1 1-1-1-2-1 1-1-1 1-1-2-1-2 2v1l5 6h1z"/><path d="m476 565-2-2-1 1v-1l1-1-2-2-1 1-1-1 2-1-3-2-2 2-1 1 1 1 5 6h2zm-1 0-2 2-1-1-5-5v-1l2-2 1 1-1 1 2 2 1-1 1 1-1 1 1 2 1-1z"/><path fill="#ff0" d="m463 550-1-1-1 1-1-2h1l-1-2-1 1-1-1 1-1-2-2-2 2v1l5 6h1z"/><path d="m464 550-2-2-1 1 1-1-2-3-1 1h-1l1-1-2-3-2 3-1 1 1 1 5 5 1 1zm-1 0-2 2h-1l-5-6v-1l2-1 1 1-1 1 2 1 1-1 1 1-2 1 2 2zm2 6q1-2-1-1l-2 1 1 2zm4 10q0-2-1-1l-2 1 1 1zm-13-15q1-2-1-1l-1 1 1 1z"/><path fill="#039" d="M390 488q0 6 3 10 4 5 9 5 5 2 9-3 3-3 3-9v-18l-24-3z"/><path fill="#fff" d="M398 478q-1 2-3 2t-2-3l2-2q2 0 3 3m13 2-2 2q-3 0-3-3 0-2 3-2 2 0 2 3m-7 6-2 2-2-3q0-3 2-2 2 0 2 3m-6 6q-1 2-3 2t-2-3l2-2q2 0 3 3m13 1q0 3-2 3l-3-3q0-2 3-2z"/><path fill="#039" d="M390 444q0 6 3 10 4 4 9 6l9-3q3-4 3-9v-18l-24-4z"/><path fill="#fff" d="M398 434q-1 3-3 2l-2-2q0-3 2-3zm13 2-2 2q-3 0-3-3 0-2 3-2zm-7 6-2 2q-2 0-2-3l2-2q2 0 2 3m-6 6q-1 2-3 2t-2-3l2-2zm13 2-2 2q-3 0-3-3 0-2 3-2 2 0 2 3"/><path fill="#039" d="m355 484 4 10q3 5 9 5 5 0 8-3 4-3 4-9v-18l-25-3z"/><path fill="#fff" d="m363 474-2 2q-2 0-2-3l2-2zm14 2-2 2-3-3q0-3 3-2 2 0 2 3m-7 5q0 3-2 3l-3-3q1-3 3-2zm-7 7-2 2q-2 0-2-3l2-2q2 0 2 3m14 1q0 2-2 2-3 0-3-2 0-3 3-3z"/><path fill="#039" d="M424 493q0 5 3 10 4 4 9 5l9-3q3-3 3-9v-18l-24-3z"/><path fill="#fff" d="M432 483q0 2-3 2l-2-3q0-2 2-2 3 0 3 3m13 2-2 2-3-3q1-2 3-2t2 3m-7 5q0 3-2 2l-2-2q0-3 2-3zm-6 6q0 3-3 2l-2-2q0-3 2-3zm13 2q0 3-2 2-3 0-3-2 0-3 3-3z"/><path fill="#039" d="M390 531q0 7 3 10 4 5 9 6l9-3q3-4 3-9v-18l-24-4z"/><path fill="#fff" d="M398 521q-1 3-3 2l-2-2q0-3 2-3zm13 2q0 3-2 2-3 0-3-3 0-2 3-2zm-7 6-2 2q-2 0-2-3l2-2q2 0 2 3m-6 6q-1 2-3 2t-2-3l2-2zm13 2-2 2q-3 0-3-3 0-2 3-2 2 0 2 3"/></svg>