<svg xmlns="http://www.w3.org/2000/svg" viewBox="0 0 1000 1000"><path fill="red" d="M8 195.3c170.8-85.3 341-54.5 513.3-28C676.5 191 833.4 211.8 992 132.7v672c-170.8 85.3-341 54.5-513.3 28C323.5 809 166.6 788.1 8 867.2z"/><path fill="#060" d="M8 195.3c130-65 259.7-62.9 393.6-45.7v672C272 805 141.5 800.6 8 867.2z"/><path fill="#ff0" d="M530 608.8c-40.4-7.7-216.5-138.6-264.2-181.7-8.8-8-13.9-14-14.2-17.4l12.6-21.5c18 26.3 259 201.7 277.6 200.9z"/><path d="M530.1 609.3h-.3q-17.5-3.4-64.3-33.9a2173 2173 0 0 1-93-65.5 3072 3072 0 0 1-84-63.3c-24.6-19.6-36.7-31-37.3-36.9v-.3l12.6-21.5q.2-.4.6-.1l.2.1c5.4 8 21.8 21.6 49.5 43l89 66.7a2503 2503 0 0 0 89 63.7c27.9 18.7 44.1 27.5 49.6 27.3h.3l.2.5v.3L530.4 609q0 .2-.3.2m-.5-1 11.3-18.7q-9.5-1-49.2-27.5c-25.4-17-55.1-38.6-89-63.7l-89.1-66.8c-27.2-20.8-43.5-34.4-49.4-42.5l-12.1 20.7c.8 5.6 12.8 16.8 37 36q34.2 27 84 63.3 51.3 38.1 92.9 65.5 46.2 30.2 63.6 33.7"/><path fill="#ff0" d="M397.5 495.4c-77.2-57.8-139.9-98.2-136-110.1l.3-.6 2-3.4h.1c0 1.6.4 3.6 1 4.8 9 15.8 67.1 56 134.2 106.1 67.2 50.3 120.9 84.7 141.7 94 3.6 1.6 5.5 1.4 6.6.2l-2 3.5-.2.4c-5.7 3.5-70.3-36.9-147.7-94.9m128.2 114.7c-18.7-5-74.4-42.4-141.3-91.4-78-57-140.8-98.9-134.4-110l1.8-3.5h.4C248 420.5 353.6 491.9 381 511.6l5.2 3.8c77.3 58.3 140.5 97.7 147 91l-2.1 3.4c-1 1.4-2.3 1.2-5.4.4"/><path d="m261 385.1.1-.1.3-.5 2-3.5q0-.2.3-.2h.3l.3.2.1.3q-.1 2.6 1 4.5c7.4 13.1 51.7 44.4 134 106q46.3 35 88 62.6a440 440 0 0 0 53.5 31.4c3.3 1.4 5 1.5 6.1.3l.3-.2q.4 0 .5.4v.4l-.1.4-.6 1-1.3 2-.2.5-.1.1c-3.1 1.9-18.5-5.9-47.4-24.2-31.5-20-65-43.9-100.9-70.7l-98.4-72.4c-27.3-20.6-39.6-32.3-37.7-38.3m270.4 225c-1 1.1-2.6 1.3-5.9.5q-14-3.8-52.8-29.1c-26-17-55.6-38.2-88.6-62.4l-99-72.4c-27.2-20.8-38.8-32.5-35.6-38.3l1.8-3.5q.2-.3.6-.2l.4.1.3.2v.4c-3.6 12 39 41.3 128.6 105.8l5.2 3.7c36.8 27.8 70.1 51.5 100 70 28.2 17.4 43.1 24.2 46.3 21q.3-.2.7.1t0 .7zM262 385.5c-1.7 5.5 10.4 17 37.3 37.2l98.4 72.4a1641 1641 0 0 0 100.7 70.6c28.4 18 43.4 25.7 46.4 24.2l.2-.3 1-1.8q-1.9.4-5.4-1.1a441 441 0 0 1-53.6-31.5 1827 1827 0 0 1-88.1-62.6c-82.4-61.7-126.9-93-134.4-106.3q-.9-1.6-1-3.6l-1.3 2.3zm268.7 223.9 1.1-1.9c-5.6.8-20.5-6.3-45.7-21.8a1368 1368 0 0 1-100.1-70l-5.2-3.8c-86.3-62-129-91.7-129.3-105.2l-1.1 2.1c-3 5.4 8.6 16.7 35.4 37.2l98.8 72.4q49.6 36.5 88.6 62.3 38.6 25.1 52.5 29c3 .7 4.3.6 5-.3"/><path fill="#ff0" d="M401.9 434c-57.3-7.6-101.7-14.8-145.2-33.4l7.2-13.4c23.6 16.1 70.8 24.3 137.6 33.5 56.7 6 117.6 8.5 138.8-.2l7.6 13.8c-35.4 9-96.3 5.6-146-.3"/><path d="M402 434.5h-.1q-47.2-6.1-77.8-12.6-37-7.8-67.6-20.8l-.3-.3v-.4l7.3-13.5.3-.2h.3c21.6 14.8 67.3 23.8 137.4 33.5q44.4 5 82.7 5.6 40.9.4 55.9-5.7.3-.2.6.3l7.6 13.7v.5l-.2.2q-25 6.4-67.8 5.5-37.8-.9-78.4-5.8m0-1q40.4 5 78.3 5.9 42.2.7 67-5.4l-7-12.8q-15.3 6-55.9 5.6-38.4-.7-82.8-5.6c-69.8-9.7-115.6-18.7-137.5-33.3l-6.6 12.5a369 369 0 0 0 66.8 20.6 1057 1057 0 0 0 77.6 12.5z"/><path fill="#ff0" d="M550 434.9c-1.6 1.8-24 6.4-58 7.2-23 0-53-1.7-90.3-6.4a1256 1256 0 0 1-86.4-14.2 360 360 0 0 1-60.6-18.2l1.7-3.5a361 361 0 0 0 59.5 18c21.8 4.4 50.4 9.6 85.7 14.1 37.2 4.7 66.7 6.2 89.6 6.2 34.8-.4 53.4-4.9 56.3-8zm-6.7-13.8c-4 2.5-22.4 6.4-55.5 6.8-22-.2-50-1.7-85.7-6.3a1045 1045 0 0 1-82.8-13.8c-33.5-6.8-51.3-14.5-57.7-17l2-3.3c5 2.6 22 9.4 56 16.7 21 4.4 48.7 9.2 82.5 13.6 35.6 4.5 63.2 6 85 6 33.3.4 50.9-5.4 53.8-7.2z"/><path d="M550.3 435.3a49 49 0 0 1-17 4.1 346 346 0 0 1-41.3 3.2q-42.5-.2-90.3-6.4a1236 1236 0 0 1-86.5-14.2 383 383 0 0 1-60-18l-.7-.2q-.4-.2-.3-.6l.8-1.6 1-2q.2-.3.5-.2 27 10.7 59.4 18 40.8 8.2 85.7 14a729 729 0 0 0 89.5 6.2q23.7-.2 40.1-3c9.2-1.5 14.2-3 16-4.8l.2-.1.4.2v.1l2.5 4.7q.2.4 0 .6m-6.8-13.7c-6.7 4.1-24.9 6.4-55.6 6.8q-41.7-.6-85.8-6.3-46-6-82.9-13.8-29.5-6-55-16l-2.8-1q-.4-.1-.3-.6l2-3.5q.3-.3.6-.2c11.8 6 30.3 11.2 56 16.7q36.5 7.6 82.4 13.6a720 720 0 0 0 85 6.1q21.4.2 38.2-2.8a54 54 0 0 0 15.6-4.5l.3.3 2.5 4.5v.3q0 .3-.2.4m5.9 13.2-2-3.8a43 43 0 0 1-16 4.6q-16.4 2.7-40.2 3-44.4-.3-89.6-6.2-45-6-85.8-14.1a386 386 0 0 1-59.2-17.9l-.8 1.7-.5 1h.3q25.6 10.4 59.8 18 40.5 8.2 86.3 14.1a716 716 0 0 0 90.1 6.4q22.8-.5 41.2-3.2 14.5-2.2 16.4-3.6m-6.8-14-1.9-3.5a59 59 0 0 1-15.1 4.3q-16.9 3-38.4 2.8-41.9-.6-85.1-6.2-46-5.8-82.5-13.5c-25.5-5.5-44-10.6-55.9-16.6l-1.4 2.5 2.1.9q25.5 10 55 15.8 36.8 8 82.7 13.8 44 5.8 85.6 6.3 22.4-.3 38.6-2.5a58 58 0 0 0 16.3-4"/><path fill="#ff0" d="M239 485.1v-15c21.7 13.5 89.8 26.8 161.8 36.6 73 9.9 153 10.2 162.7-3.2l.7 16.9c-28.8 11.3-104.1 8.2-162.8.6-63.8-8.8-132.4-20.4-162.4-36"/><path d="m238.6 485-.2-15 .1-.2q.3-.4.7-.2c11.3 7 31.8 12.9 62 19.4q45.8 9.8 99.6 17.3c36.1 4.8 71.1 7.6 105 7.2 34-.5 52.6-4 57.3-10.4l.3-.1.4.1.1.4.8 17q0 .2-.2.3-20.5 8.1-70.4 7.6c-30.9-.4-61.8-3-92.7-7q-51-7-93.9-15.8c-31.1-6.4-54-12.4-68.6-20l-.3-.2zm1-.3c14.5 7.5 37.1 13.5 68 19.9q42.9 8.7 93.8 15.8 46.3 6.1 92.6 7 49.3.4 69.8-7.5l-.8-15.2c-5.9 5.9-24.5 9.2-57 9.7-34 .4-69-2.4-105.2-7.3q-54-7.4-99.8-17.3c-29.6-6.4-50-12.1-61.6-19z"/><path fill="#ff0" d="M565.8 502.8v4c-4.6 4.5-30.8 8.5-64.7 9q-38.3.1-100.4-7.7c-39.5-5-71-10.6-95.4-15.7-38.6-7.8-63.2-16.8-68.2-19.7V468c14.7 9.3 55.3 17.7 68.7 20.7 24.3 5.1 55.6 10.6 94.9 15.7 41.4 5.2 74.4 7.6 99.9 7.5 24.3.1 58.1-4 65.2-9.1m0 18.2c-4.6 4.6-30.8 8.6-64.7 9a809 809 0 0 1-100.5-7.6 1259 1259 0 0 1-95.3-15.7c-38.7-7.9-63.2-16.9-68.2-19.7v-4.7c14.7 9.3 55.3 17.7 68.7 20.7 24.3 5 55.6 10.6 94.8 15.6q62 7.8 100 7.6c24.3.1 58.1-4 65.2-9.2z"/><path d="M566.3 517v4.1l-.1.3c-2.4 2.4-9.3 4.4-21.6 6.2a349 349 0 0 1-43.4 2.9c-30 0-63.4-3-100.6-7.6Q348 516 305.2 507a494 494 0 0 1-46.8-11.6 130 130 0 0 1-21.6-8l-.2-.5v-4.7q0-.5.5-.5l.2.1c10.9 7 33.5 12.9 68.6 20.6q42.5 9 94.7 15.6c37 4.7 70.2 7.6 100 7.6q18.8.1 39-2.5 20.9-3 25.8-6.5l.4-.2q.4.1.5.6m0-14.3v4l-.1.3c-2.4 2.4-9.3 4.5-21.6 6.3a347 347 0 0 1-43.4 2.8 814 814 0 0 1-100.5-7.6q-52.8-6.8-95.5-15.7a496 496 0 0 1-46.8-11.7 130 130 0 0 1-21.6-8l-.2-.5V468q0-.4.5-.4h.3c10.8 7 33.5 13 68.5 20.6q42.4 9 94.8 15.7c36.9 4.7 70.1 7.6 99.8 7.5q19 .2 39-2.5 21-2.9 26-6.5l.2-.1.4.1zm-1 15.2a81 81 0 0 1-25.5 6.2 288 288 0 0 1-39.2 2.5c-29.7 0-63-2.9-100-7.6q-52.3-6.7-94.8-15.6c-34.5-7.6-57-13.5-68.3-20.3v3.5q6 3.1 21.2 7.9 21.4 6.5 46.7 11.6 42.6 9 95.2 15.7a802 802 0 0 0 100.4 7.6q25-.3 43.3-2.8c12-1.8 18.6-3.7 21-6zm0-14.3a81 81 0 0 1-25.5 6.2 288 288 0 0 1-39.1 2.5 794 794 0 0 1-100-7.6q-52.4-6.7-95-15.6c-34.3-7.6-56.9-13.5-68.1-20.3v3.5q5.7 3.2 21.1 7.9 21.5 6.6 46.7 11.6 42.6 9 95.3 15.7c37 4.8 70.5 7.7 100.4 7.6q24.9-.3 43.2-2.8c12-1.7 18.7-3.7 21-5.9z"/><path fill="#ff0" d="M258.3 553.9c12.5 3.1 72.9 23.5 143 33 44.5 5.5 120.3 5.5 142.8-1.8l-9.5 14c-33 11.2-79.2 7.7-132.7 2.5a543 543 0 0 1-134.3-32.8z"/><path d="M401.3 586.4q33.4 4.3 79.6 4 46.4-.3 63-5.8l.5.1q.4.3.1.7l-9.4 14h-.2a182 182 0 0 1-58.9 7.7q-28.4-.3-74-5a526 526 0 0 1-79-15.1 402 402 0 0 1-55.6-17.8l-.2-.2-9.3-14.8v-.4q0-.3.2-.3h.3l6.5 1.7c49.7 14 95.1 25.7 136.3 31.2m0 1c-41.3-5.6-86.8-17.3-136.7-31.3l-5.3-1.4 8.6 13.7a401 401 0 0 0 55.4 17.6 522 522 0 0 0 78.6 15c30.4 3 55 5 74 5.1q35.8.2 58.4-7.5L543 586q-17.2 5.1-61.9 5.4-46.2.3-79.7-4"/><path fill="#ff0" d="m546.6 583.6-3.3 5c-8.3 1.8-30.6 5-63.4 4.7-21.6-.3-34.9.2-77.8-4.4a996 996 0 0 1-144.8-32.6l-1.9-3.6c46.6 12.2 94.2 24.7 146.7 32.4 39.2 4.2 55.9 4 77.3 4.3 38.2-.2 57.4-3.6 63.2-4.6l-.3-.4 4.1-1zm-12.7 18.3a343 343 0 0 1-50.1 5.5c-21 1.1-53.6-.5-82.5-4.2-62-9-113.1-23.7-137-34.3l-1.8-3.4.3-.5 3.2 1.3a704 704 0 0 0 135.7 33.2 516 516 0 0 0 80.8 4c35.8-1.8 50-5 54.6-7l1.1-.4q-2 3-4.3 5.8"/><path d="M546.8 583.3h.1v.6l-3.2 5-.2.2q-24 5-63.5 4.6h-9.1q-32.2-.3-68.8-4.4a992 992 0 0 1-145-32.5l-.2-.3-1.9-3.6q0-.4.2-.6h.3c52.1 13.5 100.9 25.7 146.6 32.4a737 737 0 0 0 70.4 4.2h6.8q36.9 0 62.5-4.5l.2-.4h.1l4-1h.5zm-8.2 12.7v.5l-4.5 5.9a265 265 0 0 1-50.2 5.4q-36.6 2-82.6-4.1a764 764 0 0 1-82.9-16.7 364 364 0 0 1-54.2-17.7l-.2-.2-2-3.4v-.5l.4-.5q.2-.3.5-.2l3.3 1.4A694 694 0 0 0 401.7 599q38.2 5 80.7 4 43-2.2 54.5-7l1-.4h.1q.4-.1.6.3m4.4-11.3q0 .5-.3.5l-.6.2q-25.7 4.4-62.6 4.5h-6.8a739 739 0 0 1-70.6-4.3 1406 1406 0 0 1-145.8-32.2l1.3 2.5q62.1 19.7 144.5 32.5 36.5 4 68.6 4.3l9.2.1a302 302 0 0 0 63.1-4.6l2.6-4zm-6.2 12.5q-12 4.6-54.2 6.8-42.5 1.1-81-4A696 696 0 0 1 266 566.7l-2.9-1.1 1.7 3q20.5 8.9 54 17.5a764 764 0 0 0 82.6 16.6q45.9 6 82.4 4.2 25.3-.3 50-5.4z"/><path fill="#ff0" d="M401 320c89.6 11.7 162.6 99.4 162.9 189.9-.3 92.6-73.3 153-162.9 141.7-89.6-11.8-162-85.2-162.2-175.8.3-92.5 72.6-167 162.2-155.9m146.3 183.6c-4.5-40.2-12.8-67.2-32.2-94.3C485.3 368 442.8 343 406 337.1c-32-5-69.6 3-98.6 26.2-28.7 23.3-48.3 59.1-51.3 110.9.8 45.7 19.3 79.2 42.4 107 11.7 14.1 55.6 47.9 102.1 53.2 41.9 4.5 77.1-6.6 104.3-29 19-16 42.4-54.4 42.4-102"/><path d="M401 319.5a169 169 0 0 1 63.3 22q29.3 17.2 52 43.7a207 207 0 0 1 35.1 58.2 182 182 0 0 1 13 66.5 154 154 0 0 1-13 62.8q-12.5 28-35.1 47.5a135 135 0 0 1-52 27.7q-30.3 8.4-63.3 4.2-33-4.5-63.2-20a195 195 0 0 1-51.7-38.7 176 176 0 0 1-35-53.2 171 171 0 0 1 0-129.3q12.6-30 35-52.5a139 139 0 0 1 51.7-32.7q30.2-10.4 63.2-6.3m0 1c-22-2.7-42.7-.7-62.9 6.3a138 138 0 0 0-51.4 32.4 159 159 0 0 0-34.7 52.2 169 169 0 0 0 0 128.5 175 175 0 0 0 34.7 53A194 194 0 0 0 401 651q32.9 4.2 63-4.1a135 135 0 0 0 51.6-27.6q22.5-19.5 35-47.2 12.7-28.9 12.8-62.4 0-33.5-12.8-66.1A206 206 0 0 0 464 342.4q-30.1-17.6-63-22m146.8 183.1q0 32.9-14 63-12.1 25.5-28.6 39.3c-29.6 24.3-64 33.4-104.6 29.1a163 163 0 0 1-64.3-23.4 151 151 0 0 1-38.2-30c-27.8-33.6-41.8-68.3-42.4-107.3 2.7-48 19.7-85.6 51.4-111.3q21-16.8 48.3-23.8 25.8-6.3 50.6-2.5a152 152 0 0 1 57.4 22.9 193 193 0 0 1 52 49.4 161 161 0 0 1 21.9 42.4q7 21.3 10.5 52.2m-1 0a259 259 0 0 0-10.4-52q-7.5-22.4-21.7-42a191 191 0 0 0-51.7-49.2q-28.4-18-57-22.8a127 127 0 0 0-98.3 26.2c-31.5 25.5-48.4 62.9-51.1 110.5.6 38.7 14.6 73.3 42.2 106.8q12.1 14.3 38 29.7 33 19.8 63.8 23.2c40.3 4.3 74.6-4.7 104-28.9q16.3-13.7 28.3-39 14-30 14-62.6"/><path fill="#ff0" d="M401.5 319.4c89.6 11.9 162 99.6 162.3 190.4-.3 92.9-72.7 153.6-162.4 142.3-89.6-11.8-162-85.5-162.3-176.3.3-92.9 72.6-167.6 162.3-156.4M242.7 475.7c.2 88.7 71.4 161.3 158.8 172.8 87.3 11 158.5-48.5 158.8-139.2-.3-88.7-71.5-174.7-158.8-186.2-87.4-11-158.6 62-158.9 152.6"/><path d="M401.5 319q33 4.3 63.2 22 29.2 17.3 51.8 43.8 22.5 26.7 35 58.4 12.7 32.8 12.8 66.7a156 156 0 0 1-12.8 63q-12.5 28-35 47.7a134 134 0 0 1-51.8 27.8q-30.2 8.5-63.2 4.2t-63.3-20a196 196 0 0 1-51.8-38.8c-15-16-26.6-33.5-35-53.4a172 172 0 0 1 0-129.7q12.5-30.1 35-52.7a139 139 0 0 1 51.8-32.8q30.2-10.4 63.2-6.3m0 1a137 137 0 0 0-62.9 6.3 138 138 0 0 0-51.4 32.5q-22.4 22.4-34.8 52.4a170 170 0 0 0 0 128.9 176 176 0 0 0 34.8 53.1 194 194 0 0 0 114.3 58.5q32.8 4.2 63-4.1a134 134 0 0 0 86.2-75.1 155 155 0 0 0 12.8-62.6 183 183 0 0 0-12.8-66.4A206 206 0 0 0 464.4 342q-30.1-17.6-63-22M242.3 475.7q0-33 12.6-63.6a157 157 0 0 1 34.3-51.4 136 136 0 0 1 50.6-32q29.6-10.2 61.8-6.1 32.1 4.2 61.7 21.6 28.5 16.9 50.6 42.9a204 204 0 0 1 34.3 57 180 180 0 0 1 12.6 65.3q0 33-12.6 61.5a132 132 0 0 1-85 74 154 154 0 0 1-61.6 4q-32.2-4.2-61.8-19.5-28.5-14.9-50.6-38.2a174 174 0 0 1-34.3-52.3 164 164 0 0 1-12.6-63.2m1 0q0 32.8 12.5 62.8a173 173 0 0 0 34 52A191 191 0 0 0 401.5 648q31.9 4.1 61.3-4.1a132 132 0 0 0 84.5-73.5 151 151 0 0 0 12.5-61.2q0-32.9-12.5-64.8a203 203 0 0 0-84.5-99.3 163 163 0 0 0-61.3-21.5q-32-4-61.4 6-28.4 10.2-50.4 31.8a156 156 0 0 0-34 51.1 166 166 0 0 0-12.6 63.2"/><path fill="#ff0" d="M401.6 333.3C483.4 344 550 424.5 550.3 507.7c-.3 84.8-66.9 140.6-148.7 130.3-81.8-10.8-148.5-79.4-148.8-162.6.3-84.9 67-152.3 148.8-142.1m-145.2 142c.3 81.3 65.4 148.5 145.2 159 79.8 10 144.9-44.4 145.2-127.1-.3-81.3-65.4-159.7-145.2-170.3-79.9-10-144.9 55.7-145.2 138.5"/><path d="M401.6 332.8a154 154 0 0 1 57.8 20.2 191 191 0 0 1 79.6 93.6 169 169 0 0 1 11.8 61.2q0 30.9-11.8 57.6a124 124 0 0 1-79.6 69.2 144 144 0 0 1-57.8 4 173 173 0 0 1-57.9-18.5 180 180 0 0 1-47.4-36 165 165 0 0 1-32.1-49.4 155 155 0 0 1 0-118.7 146 146 0 0 1 32.1-47.9 128 128 0 0 1 47.4-29.6 127 127 0 0 1 57.9-5.7m0 1q-29.9-3.9-57.5 5.6a127 127 0 0 0-47.1 29.5 145 145 0 0 0-32 47.5 154 154 0 0 0 0 118 164 164 0 0 0 32 49 179 179 0 0 0 47.1 35.8 172 172 0 0 0 57.5 18.3q29.9 3.9 57.4-3.8a124 124 0 0 0 79.1-68.9 141 141 0 0 0 11.7-57.2q0-30.6-11.7-60.7a190 190 0 0 0-79-93 153 153 0 0 0-57.5-20.2M255.9 475.4a151 151 0 0 1 11.6-58 142 142 0 0 1 31.3-46.5 125 125 0 0 1 46.3-29q27-9.2 56.5-5.5 29.3 3.9 56.4 19.8a186 186 0 0 1 77.7 91.4 165 165 0 0 1 11.5 59.6q0 30.2-11.5 56.2A121 121 0 0 1 458 631a141 141 0 0 1-56.4 3.9 168 168 0 0 1-56.5-18 176 176 0 0 1-46.3-35.3 162 162 0 0 1-31.3-48.3 152 152 0 0 1-11.5-58m.9 0q0 30 11.4 57.6a161 161 0 0 0 31.2 48 175 175 0 0 0 46 35 167 167 0 0 0 56 18q29.3 3.6 56.2-3.8a121 121 0 0 0 77.1-67.2 138 138 0 0 0 11.5-55.8q0-30-11.5-59.3a185 185 0 0 0-77.1-90.8q-27-15.7-56.1-19.6c-19.6-2.4-38-.6-56 5.5a124 124 0 0 0-46.1 28.7 141 141 0 0 0-31.2 46.2 150 150 0 0 0-11.4 57.5"/><path fill="#ff0" d="M408.1 319.6V654l-13.9-1.8V317.8z"/><path d="M408.1 319.1q.5 0 .5.6v334.2q.1.5-.4.5l-14-1.8q-.4 0-.4-.6V317.8q-.1-.6.4-.4zm-.4 1-13-1.7v333.3l13 1.6z"/><path fill="#ff0" d="M396.5 316.2v338.1l-3.6-.4V315.8zm13.8 1.8v338.1l-3.5-.5v-338z"/><path d="m393 315.3 3.5.4q.4 0 .5.6v338q0 .5-.5.5l-3.6-.4q-.4 0-.4-.6v-338q0-.6.4-.5m13.8 1.7 3.6.5q.4 0 .4.6v338q.1.5-.4.5l-3.5-.5q-.5 0-.5-.5V317.5q0-.6.4-.4m-13.3-.8v337.2l2.6.3V316.6zm13.8 1.8v337.1l2.6.4V318.4z"/><path fill="#ff0" d="M564 516.3 537.6 499l-41-16.4-59-15.6c-26.5-3.9-53-7.4-80.4-10a1022 1022 0 0 0-83.6 8.2q-17.4 7.7-35.2 16.5v-12.4l13.9-10.8a932 932 0 0 1 68.8-14.7c32 .5 63.9 2.5 96.8 5.3l80.4 20.3L554 493l10 11z"/><path d="M564.4 516.3v.3q-.3.4-.7 0l-26.1-17.1-41-16.3-59-15.7a1864 1864 0 0 0-80.2-10c-27.6 1.7-55.2 4.2-83.6 8.3a1049 1049 0 0 0-35.4 16.4q-.4 0-.4-.4v-12.4q0-.3.2-.4l13.9-10.8.1-.1a937 937 0 0 1 69-14.7 1434 1434 0 0 1 96.8 5.3l80.4 20.3 55.8 23.7.2.1 9.9 10.8.1.4zm-1-.9v-11.3l-9.5-10.6-55.6-23.5-80.3-20.4c-32-2.6-63.8-4.7-96.7-5.2q-33.9 5.9-68.7 14.6l-13.7 10.6V481a1032 1032 0 0 1 34.6-16.1h.1c27.6-4 55.2-6.6 83.6-8.4h.1a1851 1851 0 0 1 80.4 10l59 15.7h.1l41 16.4h.1z"/><path fill="#ff0" d="M401.5 445.8a525 525 0 0 1 105.1 25c30.5 11 51.7 22 59.2 31.7v4.3c-9-12-37.5-24.4-59.9-32.5a521 521 0 0 0-104.4-24.8c-40.3-5-77.4-4.4-106.4.2-22.7 3.5-53.9 13.3-58 23V468c2.4-6.4 25.3-17 57.3-22.2 29.2-4.6 66.6-5.2 107.1-.1m0 14.2a524 524 0 0 1 105 25c30.6 11 51.8 22 59.3 31.7v4.4c-9-12-37.5-24.4-59.9-32.5a522 522 0 0 0-104.4-24.8c-40.3-5-77.6-4.4-106.6.1-23.5 4-53.5 13.4-57.8 23v-4.5c2.4-6.5 24.8-16.8 57.3-22.3a393 393 0 0 1 107.1 0"/><path d="M401.5 445.3a509 509 0 0 1 105.2 25c32.5 11.8 52 22.2 59.5 32v4.6q.1.4-.4.4l-.4-.2q-10.7-14.7-59.6-32.3c-32.2-11.4-67-20-104.3-24.8a380 380 0 0 0-106.3.2q-19.6 3-36 9c-13 4.9-19.9 9.4-21.7 13.6l-.2.3h-.4q-.3-.1-.3-.5V468c1.4-3.4 7-7.3 17.8-11.9q16.6-6.7 40-10.6 48-7.5 107.1-.1zm0 14.2a509 509 0 0 1 105.2 25c32.5 11.8 52 22.3 59.4 32l.2.3v4.4q0 .4-.5.4l-.4-.3q-10.8-14.6-59.6-32.2c-32.2-11.4-67-20-104.3-24.8q-58.4-7.5-106.5.1a198 198 0 0 0-36 9.2c-12.8 4.8-19.6 9.3-21.5 13.5q-.2.4-.6.2-.3 0-.3-.4v-4.7c1.3-3.5 6.9-7.4 17.7-11.8q16.3-6.6 40-10.7 48.2-7.6 107.2-.2m0-13.3q-58.9-7.4-107 .1a185 185 0 0 0-39.7 10.6c-10.5 4.4-16 8.1-17.3 11.3v2.6c3-4 9.8-8.1 21.4-12.5q16.5-6 36.1-9 48.4-7.7 106.5-.3A506 506 0 0 1 506 474q47.4 17.1 59.3 31.6v-2.9q-10.8-14-58.8-31.4a509 509 0 0 0-105-25m0 14.3q-58.9-7.5-107 .1-23.6 4-39.9 10.7-15.4 6.5-17 11.1v2.7c2.9-4 9.6-8.1 21-12.4q15.8-5.9 36.3-9.2 48.2-7.6 106.6-.2A505 505 0 0 1 506 488.2q47.4 17 59.3 31.6v-3q-10.8-14-58.8-31.3a508 508 0 0 0-105-25"/><path fill="#ff0" d="M400.8 372.9C461 380.4 514 398.4 538 414.5l8.8 17c-20.8-14.5-78-36.5-146-43.5-56.1-6.8-114-4.3-144.6 12.3l10.5-18c25.2-13 81.4-16 134-9.4"/><path d="M400.8 372.4q44.4 5.7 82.3 17.7a222 222 0 0 1 55.3 24.2l8.8 17q.3.4-.2.6h-.4a219 219 0 0 0-55.2-24.4 446 446 0 0 0-90.5-19c-70-8.5-117.5-2.5-144.4 12.3q-.4 0-.7-.2v-.5l10.5-18 .2-.2c11.8-6 30.6-10.6 56.8-12.4q36-2.4 77.4 2.9m.1 1a408 408 0 0 0-77.3-3c-26 1.8-44.7 6.3-56.4 12.3l-9.6 16.4c27.3-14.2 74.6-19.9 143.3-11.6a447 447 0 0 1 90.8 19 230 230 0 0 1 54 23.6l-8-15.3A222 222 0 0 0 483 391c-25.1-7.8-52.5-14-82-17.6"/><path fill="#ff0" d="M495.8 406.4c24.8 8.6 48 19.2 51.6 23.4l2.6 5.1c-8.3-6.6-28.5-15.8-54.7-25a486 486 0 0 0-93.8-20.2 375 375 0 0 0-95-2.5c-27.6 4-46.4 11.5-51.2 15.1l2.5-5c9.2-4.8 23.6-10.5 48-13.8 26.8-3.5 57.3-2.3 95.8 2.4a502 502 0 0 1 94.2 20.5m-94.3-34.8c33 4.2 65.6 11.1 91 19.7 20 7.2 39.7 16.4 47 23l3.9 6.8c-6.7-8.3-30.8-19-52.5-26.4a519 519 0 0 0-89.4-19.4 382 382 0 0 0-91.4-2c-23.7 3.4-38.9 8.7-45.4 13l3.3-5.2a136 136 0 0 1 41.5-11.5 381 381 0 0 1 92 2"/><path d="M401.6 385.4c37.8 4.8 69.2 12 94.3 20.5a400 400 0 0 1 33.8 13.4 65 65 0 0 1 18 10.3l2.7 5.2v.3l-.2.3-.5-.1q-12.6-10.2-54.5-24.9a475 475 0 0 0-93.7-20.3c-38-5-69.6-5.5-95-2.4a204 204 0 0 0-34 7.6 67 67 0 0 0-17 7.4q-.3.3-.6-.1-.2-.3 0-.5l2.5-5 .2-.2a147 147 0 0 1 48-13.9c23-3 54.8-2.6 96 2.4m91 5.4q35.8 12.8 47.2 23.2l.2.1 3.8 6.8q.1.5-.2.6t-.6-.2c-6.2-7.7-23.3-16.3-52.2-26.1a515 515 0 0 0-89.3-19.5q-55.2-6.7-91.3-1.9c-22.4 3.1-37.4 7.7-45.3 12.8q-.4.3-.6-.1v-.6l3.3-5.1.2-.2a135 135 0 0 1 41.6-11.5c24.1-3 54.7-2.6 92.1 2 36.7 4.7 67 11.6 91 19.7m54.5 39.3q-2.6-3-17.6-10-15-6.8-33.7-13.3a494 494 0 0 0-94.1-20.5c48 13.5 96 28.9 145.4 43.8m-145.5-58a377 377 0 0 0-91.9-2 135 135 0 0 0-41.3 11.3l-2 3.3c8.3-4.7 22.8-9 43.7-11.9 24.2-3 54.6-2.6 91.5 2 37 5 66.8 12 89.5 19.5q38.5 13 50.1 23.7l-1.9-3.4q-11.2-10.2-46.8-22.9c-24-8-54.2-15-90.9-19.6"/><path fill="#ff0" d="M482.2 566.6a398 398 0 0 0-80.7-18c-100.4-11.5-133.6 11.7-137.2 17l-7.6-12.6c26.3-19.4 80-27.7 145.3-18.2q50.5 7.4 87.1 20.3z"/><path d="M482.4 567h-.4a388 388 0 0 0-80.5-17.9c-43.6-5-78.3-3.9-104.8 2.3q-26.9 6.6-32 14.4-.3.4-.7.2l-.1-.2-7.5-12.5q-.3-.4 0-.7 19.4-14.6 58.2-20.2 38.7-5.1 87.4 1.9a473 473 0 0 1 87.2 20.3q.6.2.4.6v.2l-7 11.4zm-.4-1.1 6.4-10.7c-22.8-8-51.6-15-86.4-20a319 319 0 0 0-87.2-2c-25.6 3.6-44.6 10.5-57.4 19.8l7 11.6q5.8-7.7 32-14.2c26.6-6.2 61.4-7.4 105-2.4q45 5.5 80.6 17.9"/><path fill="#ff0" d="M402.2 532.5c29 4.3 59 10.3 88.1 20.7l-2 3.3a425 425 0 0 0-86-20.2c-37.3-4.7-76.7-5.8-112.7 3.6-12 3.2-31.2 10.3-32.4 16.4l-1.9-3.5c1-5.5 17.5-12.3 33.4-16.6 36.4-9.5 75.8-8.4 113.5-3.7m-1.3 14.3c28 4 55.5 9.4 82 18.5l-1.9 3.2a396 396 0 0 0-80-17.8c-37.3-5-74.6-5-107.5 3.3-10.6 2.6-27 9-29.2 14.7l-1.9-3.3c.9-3.3 10.7-10.1 30.2-15.1 37.6-9.5 72.6-7.8 108.3-3.5"/><path d="M490.4 552.7q.4.1.4.6v.1l-2 3.4q-.3.2-.6.1c-22.4-8-51-15-85.9-20.1-45.3-5.7-82.6-4.2-112.6 3.6-21 5.6-31.2 11.1-32 16q0 .4-.5.4l-.4-.3-1.9-3.4v-.3c.7-5 11.4-11 33.7-17q45.4-12.2 113.6-3.7a478 478 0 0 1 88.2 20.6m-89.4-6.4a463 463 0 0 1 82 18.6q.6 0 .4.6l-2 3.3q0 .2-.4.1c-23-7.8-49.7-14-80-17.8q-62-8.3-107.4 3.3-9.5 2.4-17.7 6.1c-6.8 3.2-10.2 5.9-11.1 8.3q-.2.4-.6.3l-.2-.2-2-3.2v-.3q.5-3 8.3-7.4a98 98 0 0 1 22.2-8.2q43.2-11.1 108.4-3.5m1.3-13.3c-45.5-5.8-83-4.2-113.4 3.7-21.6 5.8-32.2 11.4-33 16l1.3 2.4c2.2-5 12.6-10.3 32.3-15.6q45-12 113-3.7A463 463 0 0 1 488 556l1.5-2.5c-22.2-7.9-51.4-15-87.4-20.4m-1.4 14.2c-43.4-5.2-79.3-3.7-108 3.5a97 97 0 0 0-22 8.2c-5 2.7-7.3 4.7-7.9 6.5l1.4 2.3q2-3.6 11.2-8 8.4-3.8 17.9-6.2Q339 542 401 550.2a413 413 0 0 1 79.8 17.7l1.5-2.4c-20.5-7-47.6-13.4-81.4-18.3"/><path fill="#ff0" d="m545.2 586.5-12 17.4-34.8-37-90.2-75.4a2224 2224 0 0 0-101.7-67q-26-10.5-52.8-19.7l11.2-21.4 3.9-2.1 32.8 9.3a2120 2120 0 0 1 108.2 67.5l62.3 49.4 52.5 46.7 21.3 28.4z"/><path d="m545.6 586.8-12 17.5q-.3.3-.7 0l-34.8-37-90.2-75.4a2219 2219 0 0 0-101.6-67q-26-10.5-52.8-19.7-.4-.2-.3-.6l11.3-21.5.2-.2 3.8-2q.3-.2.4 0l32.8 9.3c35.8 20.6 71.5 43.2 108.3 67.5l62.4 49.4 52.5 46.7v.1l21.4 28.5v.4l-.6 3.9zm-1-.5.7-3.6-21.1-28.2-52.4-46.7-62.3-49.3a2098 2098 0 0 0-108.2-67.4l-32.6-9.3-3.5 2-11 20.7q25.8 8.8 52.3 19.5h.1a2242 2242 0 0 1 101.7 67.1l90.2 75.5 34.4 36.6z"/><path fill="#ff0" d="m547.7 586.6-2.3 3.3q.3-.5.2-1.7v-.6c-.2-19.1-102.1-102-134.2-125.6-73.2-52.6-124.3-78.3-142.7-79h-.4c-1.7 0-4.2.2-6.2 1.7l-.5.6 2.3-4.3c11.2-8.2 67.6 19.8 148.3 77.4 78.8 58.3 140.7 117.5 135.5 128.2m-296-181.3c10.3-6.8 76.4 25 148.6 78.7 71.5 53.7 138.2 114.5 132.7 122.9l-2 3-.9.5c.3-.2 1-1.2-.1-4.9-3-10-51-58.5-131-118.2-78.6-58-142-86.6-149.3-78zm293.4 185 .3-.4z"/><path d="m548.1 587-2.5 3.4-.1.2q-.3.4-.7 0-.3-.3-.1-.6l.1-.2q.3-.5.3-1.7v-.6c0-8.1-18-28-54.8-60.7a1107 1107 0 0 0-79.2-64.4C335 407.6 288 384.2 268.7 383.6h-.4q-4.2 0-5.8 1.4-.3.2-.5.6l-.2.2q-.4.3-.7-.2v-.5l2.4-4.3.1-.2c10.5-7.7 59.6 13.7 148.8 77.4 40.2 29.7 73.3 57.5 99.4 82.1 27.3 25.9 39 41 36.3 46.8M251.3 405.2q0-.3.3-.4c5.2-3 22 1.5 51.4 16.5a700 700 0 0 1 97.5 62.3c37.9 28.4 69.6 55 95.4 78.6 28.2 26 40.4 40.5 37.5 45l-2 3-.9.6h-.1q-.4.3-.7-.1t.1-.7h.1q.9-.9-.3-4.4-2.5-8.5-36.6-40.1a1168 1168 0 0 0-94.3-77.9 705 705 0 0 0-101.3-64c-28.6-14-43.9-17.8-47.3-14q-.1.3-.3.2h-.3q-.3-.4-.2-.7zM546 588l1.2-1.7.2-.2c2.2-5.5-9.5-20.2-36.2-45.4-26-24.6-59.1-52.3-99.2-82-88.7-63.3-137.4-84.8-147.7-77.5l-1.2 2.2q2-.9 5.2-1h.4c19.4.7 66.5 24.1 142.9 79.2q38 27.8 79.2 64.4c37.1 32.8 55.1 53 55.2 61.5zM252.2 405.6 251 408c5.7-2.1 21 2.2 46.8 14.9a704 704 0 0 1 101.4 64c37.6 28.1 69 54.5 94.4 78 23 21.3 35 34.7 36.8 40.6q.7 2 .8 3.2l1.4-2c2.5-4-9.5-18.1-37.3-43.7a1256 1256 0 0 0-95.3-78.5 699 699 0 0 0-97.4-62.3c-29.1-14.7-45.6-19.4-50.5-16.5"/><path fill="#fff" d="M304.2 495c.1 27.4 10.9 52.3 28.6 72a114 114 0 0 0 68.6 36.8c27 3.3 51-4 68.9-19.4a86 86 0 0 0 28.6-66v-133c-64.3-10-128.5-20.1-194.7-23.6z"/><path d="M303.6 495.5V361.2c64.6 3.4 129.3 13.3 195.8 23.7v133.6a84 84 0 0 1-98 85.8 111 111 0 0 1-69-37 105 105 0 0 1-28.8-71.8m1.1-.5c.2 27.3 9.5 50.5 28.5 71.6a110 110 0 0 0 68.2 36.6 82.8 82.8 0 0 0 97-84.3v-133c-64-10-127.9-20-193.7-23.5z"/><path fill="red" d="M307.8 495.3v.1c.2 26.3 10.6 50.3 27.5 69.1a110 110 0 0 0 66 35.1 84 84 0 0 0 66-18.5 83 83 0 0 0 27.3-63V388.8c-61.6-9.5-123.2-19-186.7-22.5zm149.3-73.5v90.8a48 48 0 0 1-16.4 37.8 50 50 0 0 1-39.5 11.3 65 65 0 0 1-39-21.5 65 65 0 0 1-16.5-41.8v-90.8a1974 1974 0 0 1 111.4 14.2"/><path d="M457.5 422.2v90.5q0 3.8-.4 7.1a48 48 0 0 1-16.1 31 49 49 0 0 1-39.8 11.3 63 63 0 0 1-39.4-21.6 62 62 0 0 1-16.5-42.2v-91.2c37 3.5 73.9 8.5 112 14.3l.6.8zm-.9 90.8v-90.8c-36.4-5.5-73-10.6-110.5-14.1v90.3a61 61 0 0 0 16.3 41.5 62 62 0 0 0 38.8 21.4 48 48 0 0 0 55-41.7q.4-3.1.4-6.6m-148.4-17.7a100 100 0 0 0 27.4 68.8c18.5 20.2 40 31.6 65.7 35a80 80 0 0 0 65.7-18.5c18-15.9 27-36.3 27.2-62.3v-129c-61.3-9.6-122.7-19-185.9-22.5zh-.8l.1-129.4c62 3.5 123.8 12.8 187.6 22.7V518a80 80 0 0 1-93.8 82c-25.8-3.5-47.6-15-66.3-35.3a100 100 0 0 1-27.6-69.4z"/><path fill="#ff0" d="M320 400.8c.6-9.3 6.3-10.9 6.6-11 .4.1 6.5 2.8 7 12.1z"/><path fill="#ff0" d="m314.4 389.2-1.1 10.5 6.7.5c.6-8.9 6.2-9.8 6.7-9.8.5.1 6 2.3 6.7 10.8l6.8.5L339 391z"/><path d="m314 388.2.6.5 24.8 1.8 1.3 11.7-7.7-.6v-.5a12 12 0 0 0-3.2-8.1q-2.2-2-3-2.2h-.1q-1-.1-3 1.5c-2.2 2-3.1 4.2-3.3 8v.3l-7.6-.5 1.2-11v-.4zm14 2.3q1 .6 2.3 1.9 3.3 3.3 3.5 8.4l6 .5-1.2-10zm-13.3-.4-1 9.3 6 .3c.2-3.7 1.2-6 3.4-8q1.1-1 2-1.4l-10.3-.7v.7z"/><path fill="#ff0" d="m312.8 399.8 27.8 2q1 .2 1 1.4t-1 1.2l-27.8-2q-1-.2-1-1.4t1-1.2"/><path d="m312.8 399.3 27.8 2q.6.1 1 .7t.5 1.2-.4 1.2-1.1.4l-27.8-2q-.6 0-1-.6a2 2 0 0 1-.5-1.2q0-.7.4-1.2t1-.5m0 .9q-.5 0-.6.8 0 .4.3.7 0 .2.4.3l27.8 2q.6 0 .6-.8 0-1-.6-1z"/><path fill="#ff0" d="M322.9 400.4c.4-5.7 3.5-6.8 3.7-7 .3.2 3.5 2 3.9 7.5z"/><path d="M322.5 400.3q0-3.6 2-5.8 1.4-1.5 2.2-1.4.7 0 2.2 1.8 2 2.5 2 6v.5l-8-.6v-.4zm.8-.3 6.8.5q-.2-3-1.9-5.1-1.2-1.4-1.6-1.5-.4 0-1.5 1.2a8 8 0 0 0-1.8 4.9"/><path fill="#ff0" d="m313.4 384.7 26.6 2q1 0 1 1.2 0 1-1 1l-26.6-1.9q-1 0-1-1.2 0-1 1-1.2"/><path d="m313.4 384.2 26.6 2q1.4.1 1.5 1.7 0 1.6-1.5 1.5l-26.6-2q-1.4 0-1.4-1.6-.1-.7.4-1.1t1-.5m0 .9q-.3 0-.4.2t-.2.5q0 .8.6.8l26.6 2q.6 0 .6-.7l-.2-.6-.4-.3z"/><path fill="#ff0" d="m314 387 25.4 2q1 0 1 1.2 0 1-1 1.1l-25.5-1.9q-.8 0-1-1.2.2-1 1-1.1"/><path d="m314 386.7 25.4 1.8q1.4.2 1.4 1.7 0 .7-.4 1.1t-1 .4L314 390q-.6 0-1-.6-.3-.5-.3-1.1 0-1.6 1.3-1.5m0 .8q-.2 0-.3.2-.2.2-.2.5 0 .9.5.8l25.5 1.9q.3 0 .4-.2l.2-.5q0-.8-.6-.8z"/><path fill="#ff0" d="m322.2 369.8 2 .2v1.4l1.5.1V370l2 .2v1.5l1.5.1v-1.5l2 .2v3.3q0 1-.8.8l-7.3-.5q-.8 0-1-1z"/><path d="m322.2 369.4 2.4.2v1.4h.6v-1.4l3 .2v1.5h.6V370l2.9.2v3.8q0 .5-.5.9-.3.3-.9.3l-7.2-.6q-1.4 0-1.3-1.4v-3.7h.2zm.4.9v2.9q0 .5.5.5l7.2.5q.5.1.5-.4v-3h-1.2v1.4l-2.3-.1v-1.5l-1.2-.1v1.5l-2.3-.2v-1.5z"/><path fill="#ff0" d="m329.8 374.9.4 10.9-7-.6.4-10.8z"/><path d="m330.2 374.9.4 11.3-7.9-.6.5-11.6 6.6.5v.4zm-.8.4-5.4-.4-.4 10 6.2.4z"/><path fill="#ff0" d="m321.1 379.3.3 5.9-6.8-.5.2-5.8z"/><path d="m321.6 379.3.2 6.3-7.6-.5.2-6.7 6.7.5v.3zm-1 .4-5.4-.4-.2 5 6 .4-.2-5z"/><path fill="#ff0" d="m338.5 380.6.3 5.9-6.8-.6.2-5.8z"/><path d="m339 380.6.2 6.3-7.6-.6.2-6.7 6.7.6v.3zm-1 .4-5.4-.4-.2 5 6 .4-.2-5z"/><path fill="#ff0" d="M313.5 374.6h2v1.6h1.4v-1.4h2v1.6h1.5V375l2 .1v3.4q0 .9-.9.8l-7-.5q-1 0-1-.9z"/><path d="m313.5 374.2 2.4.1v1.5h.6v-1.5l2.9.2v1.5h.6v-1.5l2.8.2v3.8q0 .6-.4 1-.3.3-.9.2l-7-.4q-1.4-.1-1.4-1.4V374h.2zm.4.8v3q0 .4.6.4l7 .5q.5 0 .5-.4v-3h-1.2v1.4l-2.3-.1v-1.5l-1.1-.1v1.5l-2.3-.1V375z"/><path fill="#ff0" d="m331 375.8 1.9.1v1.5l1.4.1V376l2 .2v1.5l1.5.1v-1.5l2 .2v3.4q0 .8-.9.7l-7-.5a1 1 0 0 1-1-1z"/><path d="m331 375.4 2.3.1v1.5h.6v-1.4l2.9.2v1.5h.6v-1.5l2.8.3v3.8a1 1 0 0 1-1.3 1.2l-7-.6q-1.4-.1-1.4-1.4v-3.8h.2zm.3.8v3q0 .4.6.5l7 .5q.5.1.5-.4v-3h-1.2v1.4l-2.3-.1v-1.5l-1.1-.1v1.5l-2.3-.2v-1.5zM326 378c.1-1 1.3-1 1.4.1v2.6H326zm-8.7 3.2c0-1 1.2-1 1.3 0v2h-1.4zm17.4 1.3c.1-1 1.2-1 1.4 0v2h-1.4z"/><path fill="#ff0" d="M320 478.7c.6-9.4 6.3-11 6.6-11 .4 0 6.5 2.7 7 12z"/><path fill="#ff0" d="m314.4 467-1.1 10.6 6.7.4c.6-8.9 6.2-9.7 6.7-9.8.5.2 6 2.4 6.7 10.8l6.8.5-1.2-10.8z"/><path d="m314 466 .6.6 24.8 1.7 1.3 11.7-7.7-.6v-.4q-.2-5-3.2-8.2-2.2-2-3-2.2h-.1q-1-.2-3 1.5c-2.2 2-3.1 4.2-3.3 8v.3l-7.6-.4 1.2-11v-.5zm14 2.3q1 .6 2.3 1.9c2.2 2.4 3.3 4.9 3.5 8.4l6 .5-1.2-10zm-13.3-.3-1 9.2 6 .4c.2-3.8 1.2-6.2 3.4-8.1q1.1-1 2-1.4l-10.3-.7z"/><path fill="#ff0" d="m312.8 477.6 27.8 2q1 .2 1 1.4t-1 1.2l-27.8-2q-1-.2-1-1.4t1-1.2"/><path d="m312.8 477.2 27.8 2q.6 0 1 .6t.5 1.3-.4 1.1q-.5.6-1.1.5l-27.8-2q-.6-.1-1-.7a2 2 0 0 1-.5-1.2q0-.7.4-1.2t1-.5m0 .9q-.5 0-.6.8 0 .4.3.7 0 .3.4.3l27.8 2q.6 0 .6-.8t-.6-1z"/><path fill="#ff0" d="M322.9 478.2c.4-5.7 3.5-6.8 3.7-6.9.3.1 3.5 1.8 3.9 7.4z"/><path d="M322.5 478.2q0-3.7 2-5.8 1.4-1.6 2.2-1.5.7 0 2.2 1.8 2 2.5 2 6v.5l-8-.6v-.4zm.8-.4 6.8.5q-.2-3-1.9-5-1.2-1.5-1.6-1.6-.4 0-1.5 1.2a8 8 0 0 0-1.8 4.9"/><path fill="#ff0" d="m313.4 462.5 26.6 2q1 0 1 1.2 0 1-1 1l-26.6-1.9q-1 0-1-1.2 0-1 1-1.1"/><path d="m313.4 462 26.6 2q1.4.1 1.5 1.7 0 1.6-1.5 1.5l-26.6-2q-1.4 0-1.4-1.6-.1-.7.4-1.1t1-.4m0 .8q-.3 0-.4.2l-.2.5q0 .9.6.8l26.6 2q.6 0 .6-.7l-.2-.6-.4-.2z"/><path fill="#ff0" d="m314 464.9 25.4 1.9q1 0 1 1.2 0 1-1 1.1l-25.5-1.8q-.8-.2-1-1.3.2-1 1-1.1"/><path d="m314 464.5 25.4 1.8q1.4.2 1.4 1.8 0 .6-.4 1t-1 .5l-25.5-2q-.6 0-1-.5-.3-.5-.3-1.1 0-1.6 1.3-1.5m0 .8q-.2 0-.3.2-.2.2-.2.5 0 .9.5.8l25.5 2q.3 0 .4-.3l.2-.5q0-.8-.6-.8z"/><path fill="#ff0" d="m322.2 447.6 2 .2v1.4l1.5.1v-1.5l2 .2v1.5l1.5.1v-1.5l2 .2v3.4q0 .8-.8.8l-7.3-.6q-.8 0-1-1z"/><path d="m322.2 447.2 2.4.2v1.5h.6v-1.5l3 .2v1.5h.6v-1.4l2.9.2v3.8q0 .6-.5.9-.3.3-.9.3l-7.2-.5q-1.4-.2-1.3-1.4v-3.8h.2zm.4.9v3q0 .3.5.4l7.2.5q.5.1.5-.4v-3h-1.2v1.5l-2.3-.2v-1.5l-1.2-.1v1.5l-2.3-.2v-1.4z"/><path fill="#ff0" d="m329.8 452.7.4 10.9-7-.6.4-10.8z"/><path d="m330.2 452.7.4 11.3-7.9-.6.5-11.6 6.6.5v.4zm-.8.4-5.4-.4-.4 10 6.2.4z"/><path fill="#ff0" d="m321.1 457.1.3 5.9-6.8-.5.2-5.8z"/><path d="m321.6 457.1.2 6.3-7.6-.5.2-6.6 6.7.4v.3zm-1 .4-5.4-.4-.2 5 6 .4-.2-5z"/><path fill="#ff0" d="m338.5 458.4.3 5.9-6.8-.5.2-5.9z"/><path d="m339 458.5.2 6.2-7.6-.6.2-6.6 6.7.5v.3zm-1 .3-5.4-.4-.2 5 6 .4-.2-5z"/><path fill="#ff0" d="m313.5 452.4 2 .1v1.5h1.4v-1.4l2 .1v1.5l1.5.1v-1.5l2 .1v3.4q0 .9-.9.8l-7-.4q-1-.2-1-1z"/><path d="m313.5 452 2.4.1v1.5h.6v-1.5l2.9.2v1.5h.6v-1.4l2.8.2v3.7q0 .6-.4 1-.3.3-.9.3l-7-.5q-1.4-.1-1.4-1.4v-3.8h.2zm.4.8v3q0 .4.6.4l7 .5q.5 0 .5-.4v-3h-1.2v1.4l-2.3-.1V453h-1.1v1.4l-2.3-.1v-1.5z"/><path fill="#ff0" d="m331 453.6 1.9.1v1.5l1.4.1v-1.5l2 .2v1.5l1.5.1v-1.5l2 .2v3.4q0 .8-.9.8l-7-.6q-1-.1-1-1z"/><path d="m331 453.2 2.3.2v1.4h.6v-1.4l2.9.2v1.5h.6v-1.4l2.8.2v3.8q0 .6-.4 1l-.9.2-7-.6q-1.4-.1-1.4-1.4v-3.8h.2zm.3.8v3q0 .4.6.5l7 .5q.5.1.5-.4v-3h-1.2v1.5l-2.3-.2v-1.5l-1.1-.1v1.5l-2.3-.2v-1.5zm-5.3 2c.1-1.1 1.3-1 1.4 0v2.6H326zm-8.7 3.1c0-1 1.2-1 1.3 0v2h-1.4zm17.4 1.3c.1-1 1.2-1 1.4 0v2h-1.4z"/><path fill="#ff0" d="M349.5 562c-6-7.6-3.4-12.9-3.2-13.2.3-.2 6.1-2.6 12.9 4.4z"/><path fill="#ff0" d="m337.8 557 6.6 9 4.8-4.6c-5.8-7.1-2.7-11.9-2.4-12.3.4-.2 5.5-2.5 11.8 3.5l4.8-4.4-8.3-7.5z"/><path d="m336.9 556.5.7.1 17.5-16.5 9 8.1-5.5 5-.3-.3a12 12 0 0 0-7.8-4q-2.9 0-3.4.6h-.1q-.7.5-1 3.3c0 3 1 5.4 3.5 8.4l.2.3-5.4 5-6.8-9.2-.3-.3zm10.8-8.3 2.8-.1q4.4.2 8 4l4.3-4-7.7-6.9zm-9 9.4 5.7 7.7 4.2-4a13 13 0 0 1-3.4-8.6q.1-1.5.4-2.5l-7.2 6.9z"/><path fill="#ff0" d="m344 566.3 19.7-18.3q.6-.6 1.6.3.8 1 .2 1.7l-19.6 18.3q-.7.6-1.6-.3-.9-1-.2-1.7"/><path d="m343.8 566 19.6-18.3q.4-.4 1.1-.3.6 0 1.1.6l.6 1.2q0 .7-.4 1.1l-19.6 18.3q-.4.4-1.1.3a2 2 0 0 1-1.1-.6 2 2 0 0 1-.6-1.2q0-.7.4-1.1m.6.6q-.5.4.1 1.1l.7.4.4-.1 19.6-18.3q.5-.4-.2-1.1t-1-.3z"/><path fill="#ff0" d="M351.2 559.6c-3.6-4.7-2.4-7.7-2.3-8 .2 0 3.5-1.1 7.6 3z"/><path d="M350.9 559.8q-2.5-2.8-2.7-5.8-.2-2.3.4-2.7.5-.5 2.7-.2 2.9.4 5.5 3.2l.3.3-5.6 5.3-.3-.3zm.3-.8 4.7-4.5a9 9 0 0 0-4.7-2.6q-1.7-.2-2 0h-.1q-.2.3-.1 2 .2 2.6 2.2 5"/><path fill="#ff0" d="m334 554.3 18.8-17.7q.7-.5 1.5.3.7.8.1 1.6L335.7 556q-.7.6-1.6-.2-.7-.8 0-1.6"/><path d="m333.7 554 18.8-17.7q1-.9 2.1.3 1.1 1.3.1 2.2L336 556.4q-1.1 1-2.2-.2-.4-.5-.5-1.1t.4-1m.6.5q-.2.3-.1.5 0 .3.2.5.6.6 1 .2l18.7-17.7q.4-.4 0-1l-.6-.3-.4.1z"/><path fill="#ff0" d="m336 555.8 18-17q.8-.4 1.5.3.7 1 .2 1.6l-18 16.9q-.7.5-1.5-.3-.6-.8-.1-1.5"/><path d="m335.8 555.5 18-17q.9-.9 2 .4.5.5.5 1 .1.7-.4 1.1L338 558q-.3.4-1 .3l-1-.6q-1.1-1.3-.1-2.1m.5.6v.4l.2.6q.5.5 1 .1l17.9-16.8v-.4l-.2-.6q-.5-.6-.9-.2z"/><path fill="#ff0" d="m329.5 536.7 1.5-1.3 1 1 1-.9-1-1.1 1.4-1.4 1 1.1 1.1-1-1-1.1 1.4-1.4 2.3 2.6q.6.7 0 1.3l-5 4.8a1 1 0 0 1-1.3 0z"/><path d="m329.3 536.4 1.7-1.6 1 1.1.4-.4-1-1.2 2-1.9 1 1.1.5-.4-1-1.1 2-2 2.6 3q.4.3.4 1 0 .4-.4.8l-5 4.8q-1 .9-2 0l-2.5-3h.1zm.8.4 2 2.2q.4.3.7 0l5.1-4.9q.4-.3 0-.6l-2-2.3-.9.8 1 1.2-1.5 1.5-1-1.1-1 .8 1 1.2-1.5 1.5-1-1.1z"/><path fill="#ff0" d="m338 535 7.8 8-5 4.7-7.1-8.5z"/><path d="m338.3 534.8 8.1 8.3-5.6 5.2-7.7-9.2 4.6-4.3.3.3zm-.3.9-3.8 3.5 6.7 8 4.3-4.2z"/><path fill="#ff0" d="m335.4 544.7 4.2 4.3-4.7 4.5-4-4.6z"/><path d="m335.7 544.4 4.5 4.6-5.4 5.1-4.4-5.2 4.7-4.5.3.2zm-.4 1-3.8 3.6 3.4 3.9 4.1-4-3.6-3.7z"/><path fill="#ff0" d="m347.7 533 4.2 4.4-4.8 4.5-3.9-4.6z"/><path d="m348 532.8 4.5 4.7-5.4 5-4.5-5.3 4.8-4.4.2.2zm-.5 1-3.7 3.6 3.3 4 4.2-4-3.6-3.7z"/><path fill="#ff0" d="m327.1 546.6 1.4-1.3 1 1 1-1-1-1 1.4-1.4 1 1.1 1-1-1-1 1.5-1.4 2.3 2.5q.5.8 0 1.3l-5 4.8q-.6.5-1.3-.1z"/><path d="m326.8 546.3 1.7-1.6 1 1 .5-.4-1-1 2-2 1 1.1.4-.4-1-1.1 2-2 2.6 3q.4.4.4 1t-.4.8l-5 4.8q-1 .9-1.8-.1l-2.7-2.9h.2zm1 .3 2 2.2q.2.4.6 0l5-4.7q.3-.3 0-.7l-2-2.2-.9.8 1 1.1-1.5 1.5-1-1.1-1 .8 1.1 1.1-1.6 1.5-1-1z"/><path fill="#ff0" d="m339.4 534.9 1.4-1.3 1 1.1 1-1-1-1 1.4-1.4 1 1.1 1-1-1-1 1.4-1.4 2.4 2.6q.4.7 0 1.2l-5 4.7q-.6.4-1.3 0z"/><path d="m339.1 534.6 1.7-1.6 1 1.1.4-.4-1-1.1 2-2 1 1.2.5-.4-1-1.1 2-2 2.5 3q.4.4.4 1 0 .4-.4.9l-5 4.6q-.8.9-1.8 0l-2.6-3h.1zm.9.4 2 2.2q.3.3.7 0l5-4.7q.3-.3 0-.7l-2-2.2-1 .8 1.1 1.1-1.6 1.5-1-1.1-.8.8 1 1.1-1.6 1.5-1-1.1zm-2.3 5.2c-.6-.9.2-1.7 1-1l1.8 2-1 1zm-3.5 8.7c-.6-.9.1-1.6 1-.9l1.3 1.5-1 1zm12.3-11.6c-.6-.9.1-1.6 1-1l1.3 1.6-1 1z"/><path fill="#ff0" d="M394.9 408.2c.6-9.3 6.3-10.5 6.7-10.6.3.1 6.4 3.1 6.9 12.4z"/><path fill="#ff0" d="m389.3 396.2-1 10.5 6.7.9c.5-8.9 6.2-9.4 6.7-9.4.5.2 6 2.7 6.7 11.1l6.8 1-1.2-11z"/><path d="m389 395.2.5.6 24.8 3.1 1.4 11.8-7.7-1v-.4c-.2-3.5-1.2-6-3.2-8.4q-2.2-2.2-3-2.3h-.2q-.9-.3-3 1.3c-2.1 1.8-3 4-3.2 7.7v.4l-7.6-.9 1.1-11v-.4zm14 3.1q1 .6 2.3 2c2.2 2.5 3.2 5.1 3.5 8.6l6 .8-1.2-10zm-13.4-1-1 9 6 .8c.2-3.7 1.2-6 3.4-7.9l2.1-1.3-10.4-1.2v.6z"/><path fill="#ff0" d="m387.8 406.7 27.8 3.6q1 .2 1 1.5 0 1-1 1.1l-27.8-3.5q-1-.3-1.1-1.5 0-1.2 1-1.2"/><path d="m387.8 406.3 27.8 3.6q.6 0 1 .7.4.5.4 1.2t-.4 1.1q-.4.6-1 .4l-27.8-3.5q-.7-.1-1.1-.7t-.4-1.2.4-1.2 1-.4m0 .8q-.6 0-.6.9l.2.6q.2.3.5.3l27.8 3.6q.6 0 .6-.8t-.6-1z"/><path fill="#ff0" d="M397.9 408c.4-5.7 3.4-6.6 3.7-6.7.2.1 3.5 2 3.9 7.6z"/><path d="M397.5 407.9q0-3.6 2-5.7 1.4-1.4 2.1-1.4.8.2 2.2 2 2 2.6 2 6.1v.5l-8-1v-.5zm.8-.3 6.7.8q-.1-3-1.8-5.1-1.2-1.5-1.6-1.6-.4 0-1.6 1.1a7 7 0 0 0-1.7 4.7"/><path fill="#ff0" d="M388.4 391.7 415 395q1 .2 1 1.3 0 1-1 1l-26.6-3.4q-1-.2-1-1.3 0-1 1-1"/><path d="m388.4 391.2 26.6 3.5q1.4.1 1.4 1.8 0 1.4-1.4 1.4l-26.6-3.5q-1.4-.1-1.5-1.7 0-.7.4-1.1t1-.4m0 .9-.4.1-.2.6q0 .7.7.8L415 397q.6.1.6-.7 0-.3-.2-.5l-.4-.3z"/><path fill="#ff0" d="m389 394.1 25.4 3.3q1 .2 1 1.3 0 1-1 1l-25.5-3.2q-.9-.2-1-1.3t1-1"/><path d="m389 393.7 25.4 3.3q1.4.1 1.4 1.7 0 .7-.4 1.1t-1 .4l-25.5-3.3q-.6 0-1-.6a2 2 0 0 1-.4-1.2q0-1.5 1.4-1.4m0 .8-.4.2-.1.5q0 .8.5.8l25.5 3.3.4-.1.2-.6q0-.7-.6-.8z"/><path fill="#ff0" d="m397.2 377.3 2 .3v1.5l1.4.1v-1.4l2 .2v1.5l1.6.2v-1.5l2 .3v3.3q0 .8-.9.8l-7.2-1q-.8 0-1-1z"/><path d="m397.2 377 2.4.2v1.5h.6v-1.4l2.9.3v1.5l.6.1v-1.5l3 .4v3.8q0 .6-.5.9-.3.3-.9.2l-7.2-.9q-1.4-.2-1.4-1.5V377h.3zm.3.8v3q0 .4.6.5l7.2.9q.6.1.5-.4v-3l-1.2-.1v1.5l-2.3-.3v-1.5l-1.3-.2v1.5l-2.3-.3V378z"/><path fill="#ff0" d="m404.7 382.8.5 11-7-1 .4-10.8z"/><path d="m405.1 382.9.5 11.3-8-1 .6-11.7 6.5 1v.3zm-.8.3-5.3-.7-.5 10 6.2.8z"/><path fill="#ff0" d="m396.1 386.8.2 5.8-6.7-.8.2-5.8z"/><path d="m396.5 386.8.2 6.3-7.6-1 .3-6.6 6.7.8v.4zm-1 .3-5.4-.7-.1 5 5.9.7-.2-5z"/><path fill="#ff0" d="m413.5 389 .2 5.9-6.7-1 .2-5.7z"/><path d="m414 389 .2 6.4-7.7-1 .3-6.7 6.7.9v.3zm-1 .4-5.4-.8-.2 5 5.9.8-.2-5z"/><path fill="#ff0" d="m388.5 381.6 2 .2v1.5l1.4.2V382l2 .2v1.5l1.5.2v-1.5l2 .3v3.3q0 .9-.9.8l-7-.9q-1-.1-1-1z"/><path d="m388.5 381.2 2.4.3v1.4h.6v-1.4l2.8.4v1.4l.7.1V382l2.8.4v3.8q0 .5-.4.9-.4.2-.9.2l-7-.9q-1.4-.1-1.4-1.4v-4h.2zm.4.9v2.9q0 .4.5.5l7.1.9q.5 0 .5-.4v-3l-1.2-.1v1.5l-2.3-.3v-1.5l-1.2-.2v1.5l-2.2-.2v-1.5z"/><path fill="#ff0" d="m405.9 383.8 2 .2v1.5l1.4.2v-1.5l2 .3v1.5l1.5.1v-1.5l2 .3v3.4q0 .9-.9.8l-7-1q-1-.1-1-1z"/><path d="m405.9 383.4 2.4.3v1.4l.6.1v-1.5l2.8.4v1.5h.7v-1.4l2.8.4v3.8q0 .6-.4.8t-.9.3l-7-1q-1.4-.1-1.4-1.4v-3.8h.2zm.4.9v2.9q0 .4.5.5l7.1 1q.5 0 .5-.5v-3h-1.2v1.4l-2.3-.3v-1.5l-1.2-.1v1.5l-2.2-.3v-1.5zm-5.3 1.5c0-1 1.3-1 1.4.1v2.6l-1.4-.2zm-8.8 2.6c.2-1 1.3-.8 1.4.2v2l-1.4-.2zm17.5 2.3c.1-1 1.2-.9 1.3.1v2l-1.3-.2z"/><path fill="#ff0" d="M483 420.8c-.7-9.4-6.4-12.3-6.8-12.5-.3 0-6.4 1.2-6.9 10.5z"/><path fill="#ff0" d="m488.5 410.3 1.1 10.9-6.8-1c-.5-9-6.2-11.2-6.7-11.3-.5 0-6 .9-6.7 9.2l-6.8-1 1.2-10.6z"/><path d="m488.8 409.4-.5.5-24.8-3.9-1.3 11.4 7.6 1.2v-.4c.2-3.5 1.2-5.7 3.3-7.5q2-1.5 3-1.4h.1q1 0 3 2.2c2.1 2.3 3 4.9 3.2 8.6v.4l7.7 1.2-1.2-11.3v-.4zm-14-.8q-1 .4-2.3 1.4c-2.2 1.9-3.2 4.1-3.5 7.6l-6-.9 1.2-9.7zm13.4 2.6 1 9.5-6-1a14 14 0 0 0-5.5-10.6l10.4 1.6v.7z"/><path fill="#ff0" d="m490 421.3-27.7-4.3q-1 0-1 1.2t1 1.5l27.8 4.2q1 0 1-1.1 0-1.3-1-1.5"/><path d="m490 420.9-27.7-4.3q-.7-.1-1 .4-.6.4-.5 1.1t.4 1.3q.4.6 1 .7l27.9 4.2q.6 0 1-.3.4-.5.4-1.2t-.4-1.2-1-.7m0 .8q.6.1.6 1 0 .4-.2.6-.2.3-.4.2l-27.8-4.3q-.7 0-.7-1t.7-.7z"/><path fill="#ff0" d="M480 419.7c-.4-5.7-3.5-7.6-3.8-7.7-.3 0-3.4 1-3.8 6.5z"/><path d="M480.4 419.7q-.1-3.6-2-6.2-1.5-1.9-2.2-2-.8 0-2.2 1.3a8 8 0 0 0-2 5.7v.4l8 1.2v-.4zm-.9-.5-6.7-1a7 7 0 0 1 1.8-4.7q1.2-1.2 1.6-1.1h.1q.3 0 1.5 1.6 1.5 2.2 1.7 5.2"/><path fill="#ff0" d="m489.5 406-26.7-4q-1 0-1 1 0 1.1 1 1.3l26.7 4.1q1 0 1-1 0-1.1-1-1.3"/><path d="m489.5 405.6-26.7-4q-1.4-.3-1.4 1.3t1.4 1.9l26.7 4q1.5.3 1.4-1.3a2 2 0 0 0-.4-1.2q-.4-.6-1-.7m0 .9.4.2.2.6q0 .8-.6.7l-26.7-4q-.6-.2-.6-1l.2-.5.4-.1z"/><path fill="#ff0" d="m489 408.4-25.6-4q-.8 0-1 1 .2 1.2 1 1.4l25.5 4q1 0 1-1.1t-1-1.3"/><path d="m489 408-25.6-4q-1.4-.1-1.3 1.4 0 .7.3 1.2.4.6 1 .6l25.5 4q.6 0 1-.4t.4-1q0-1.7-1.4-1.9m0 .9q.3 0 .4.2l.2.6q0 .7-.6.7l-25.5-3.9-.3-.3-.2-.5q0-.9.5-.7z"/><path fill="#ff0" d="m480.7 389.3-2-.3v1.5l-1.5-.3v-1.5l-2-.3v1.5l-1.5-.2v-1.5l-2-.3v3.4q0 .7.8 1l7.2 1q1 .1 1-.7z"/><path d="m480.7 388.9-2.4-.4v1.5l-.7-.1v-1.5l-2.9-.5v1.5h-.6v-1.6l-2.9-.4v3.8q0 .6.4 1t1 .5l7.2 1.1q1.2.1 1.3-1.1v-3.8h-.2zm-.4.8v2.9q0 .4-.5.4l-7.3-1.2q-.5 0-.5-.5v-3l1.3.3v1.4l2.3.4v-1.5l1.2.2v1.5l2.3.3v-1.4z"/><path fill="#ff0" d="m473.1 392.7-.5 10.7 7.1 1-.5-10.8z"/><path d="m472.7 392.6-.5 11.2 8 1.2-.6-11.8-6.5-1v.4zm.8.5 5.4.8.4 10-6.2-.8z"/><path fill="#ff0" d="m481.7 399-.2 5.8 6.8 1-.2-5.8z"/><path d="m481.3 399-.2 6.2 7.6 1.1-.2-6.7-6.8-1v.3zm1 .5 5.4.8.1 5-5.9-.9.2-5z"/><path fill="#ff0" d="m464.3 396.3-.2 5.8 6.8 1-.2-5.8z"/><path d="m464 396.3-.3 6.2 7.6 1.2-.2-6.8-6.8-1v.4zm1 .5 5.3.9.2 5-6-1 .2-4.9z"/><path fill="#ff0" d="m489.3 396-2-.4v1.5l-1.4-.2v-1.5l-2-.3v1.5l-1.4-.3v-1.5l-2-.3v3.4q0 1 .8 1l7.1 1.1q.8 0 1-.7z"/><path d="m489.3 395.5-2.4-.3v1.4h-.6V395l-2.8-.4v1.5l-.6-.1v-1.5l-2.9-.4v3.8a1.5 1.5 0 0 0 1.3 1.4l7.1 1.1q1.4.2 1.3-1v-3.8h-.1zm-.4.8v3q0 .3-.5.3l-7-1q-.5-.2-.5-.6v-3l1.1.2v1.5l2.3.4v-1.5l1.2.1v1.5l2.3.4V396z"/><path fill="#ff0" d="m472 393.3-2-.3v1.4l-1.5-.2v-1.5l-2-.3v1.5l-1.4-.2v-1.5l-2-.3v3.4q0 .8.8 1l7.1 1q.8 0 1-.7z"/><path d="m472 392.8-2.4-.3v1.4h-.7v-1.6l-2.8-.4v1.5h-.6v-1.6l-2.9-.4v3.8q0 .6.4 1t1 .5l7 1q1.4.3 1.3-1v-3.8h-.1zm-.5.8v3q0 .4-.5.3l-7-1q-.6-.2-.5-.6v-3l1.1.2v1.6l2.3.3v-1.5l1.2.2v1.5l2.3.3v-1.5zm5.4 3c-.1-1-1.3-1.2-1.5-.2v2.6l1.5.2zm8.7 5.1c-.1-1-1.2-1.2-1.3-.2v2l1.3.2zm-17.5-2.6c0-1-1.2-1.3-1.3-.2v2l1.3.2z"/><path fill="#ff0" d="M483 498.6c-.7-9.4-6.4-12.3-6.8-12.5-.3 0-6.4 1.2-6.9 10.5z"/><path fill="#ff0" d="m488.5 488.2 1.1 10.8-6.8-1c-.5-9-6.2-11.2-6.7-11.3-.5 0-6 .9-6.7 9.2l-6.8-1 1.2-10.6z"/><path d="m488.8 487.2-.5.5-24.8-3.9-1.3 11.4 7.6 1.2v-.4c.2-3.5 1.2-5.7 3.3-7.5q2-1.5 3-1.4h.1q1 0 3 2.2c2.1 2.3 3 4.9 3.2 8.6v.4l7.7 1.2-1.2-11.3v-.4zm-14-.8q-1 .4-2.3 1.4c-2.2 1.9-3.2 4.1-3.5 7.6l-6-.9 1.2-9.7zm13.4 2.7 1 9.4-6-.9a14 14 0 0 0-5.5-10.7l10.4 1.6v.7z"/><path fill="#ff0" d="m490 499.1-27.7-4.2q-1 0-1 1.1t1 1.5l27.8 4.2q1 0 1-1.1t-1-1.5"/><path d="m490 498.7-27.7-4.3q-.7-.1-1 .4-.6.5-.5 1.1t.4 1.3q.4.6 1 .7l27.9 4.3q.6 0 1-.4t.4-1.2q0-.6-.4-1.2t-1-.7m0 .8q.6.1.6 1 0 .5-.2.6-.2.3-.4.2l-27.8-4.2q-.7-.2-.7-1 0-1 .7-.8z"/><path fill="#ff0" d="M480 497.5c-.4-5.7-3.5-7.6-3.8-7.7-.3 0-3.4 1-3.8 6.5z"/><path d="M480.4 497.6q-.1-3.7-2-6.3-1.5-1.9-2.2-2-.8 0-2.2 1.4a8 8 0 0 0-2 5.6v.4l8 1.2v-.4zm-.9-.6-6.7-1a7 7 0 0 1 1.8-4.7q1.2-1.2 1.6-1.1h.1q.3 0 1.5 1.6 1.5 2.1 1.7 5.2"/><path fill="#ff0" d="m489.5 483.9-26.7-4.1q-1 0-1 1t1 1.4l26.7 4q1 0 1-1 0-1.1-1-1.3"/><path d="m489.5 483.5-26.7-4.1q-1.4-.2-1.4 1.4t1.4 1.8l26.7 4q1.5.3 1.4-1.3a2 2 0 0 0-.4-1.2q-.4-.6-1-.7m0 .9.4.3.2.5q0 .9-.6.7l-26.7-4q-.6-.2-.6-1l.2-.4.4-.2z"/><path fill="#ff0" d="m489 486.2-25.6-4q-.8 0-1 1.1.2 1.1 1 1.3l25.5 4q1 0 1-1 0-1.2-1-1.4"/><path d="m489 485.8-25.6-4q-1.4-.1-1.3 1.4 0 .7.3 1.2.4.6 1 .7L489 489q.6.1 1-.4t.4-1q0-1.6-1.4-1.9m0 .9.4.2.2.6q0 .8-.6.7l-25.5-3.9q-.2 0-.3-.2l-.2-.6q0-.8.5-.7z"/><path fill="#ff0" d="m480.7 467.1-2-.3v1.5l-1.5-.3v-1.5l-2-.3v1.5l-1.5-.2V466l-2-.3v3.4q0 .8.8 1l7.2 1q1 .2 1-.7z"/><path d="m480.7 466.7-2.4-.4v1.5l-.7-.1v-1.5l-2.9-.4v1.4h-.6v-1.6l-2.9-.4v3.8a1.5 1.5 0 0 0 1.3 1.5l7.3 1.1q1.2.2 1.3-1v-3.8h-.2zm-.4.8v2.9q0 .4-.5.4l-7.3-1.1q-.5-.1-.5-.6v-3l1.3.3v1.5l2.3.3v-1.5l1.2.2v1.5l2.3.4v-1.5z"/><path fill="#ff0" d="m473.1 470.5-.5 10.7 7.1 1-.5-10.8z"/><path d="m472.7 470.4-.5 11.2 8 1.2-.6-11.8-6.5-1v.5zm.8.6 5.4.7.4 10.1-6.2-1z"/><path fill="#ff0" d="m481.7 476.8-.2 5.8 6.8 1-.2-5.8z"/><path d="m481.3 476.7-.2 6.3 7.6 1.2-.2-6.8-6.8-1v.3zm1 .6 5.4.9.1 5-5.9-1 .2-5z"/><path fill="#ff0" d="m464.3 474.2-.2 5.8 6.8 1-.2-5.9z"/><path d="m464 474-.3 6.3 7.6 1.2-.2-6.7-6.8-1v.3zm1 .7 5.3.8.2 5-6-.9.2-5z"/><path fill="#ff0" d="m489.3 473.8-2-.4v1.5l-1.4-.2v-1.5l-2-.3v1.5l-1.4-.2v-1.5l-2-.3v3.3q0 1 .8 1l7.1 1.1q.8 0 1-.7z"/><path d="m489.3 473.3-2.4-.3v1.4h-.6v-1.6l-2.8-.4v1.5h-.6v-1.6l-2.9-.4v3.8a1.5 1.5 0 0 0 1.3 1.5l7.1 1q1.4.3 1.3-1v-3.8h-.1zm-.4.8v3q0 .3-.5.3l-7-1q-.5-.1-.5-.6v-3l1.1.2v1.5l2.3.4v-1.5l1.2.2v1.4l2.3.4v-1.5z"/><path fill="#ff0" d="m472 471-2-.2v1.4l-1.5-.2v-1.5l-2-.3v1.5l-1.4-.2V470l-2-.3v3.4q0 .8.8 1l7.1 1q.8.1 1-.7z"/><path d="m472 470.7-2.4-.4v1.5l-.7-.1v-1.5l-2.8-.4v1.4h-.6v-1.5l-2.9-.5v3.8q0 .6.4 1t1 .5l7 1q1.4.3 1.3-1v-3.8h-.1zm-.5.7v3q0 .4-.5.3l-7-1q-.6 0-.5-.6v-3l1.1.3v1.5l2.3.3v-1.5l1.2.2v1.5l2.3.3v-1.4zm5.4 3c-.1-1-1.3-1.2-1.5-.1v2.5l1.5.2zm8.7 5.2c-.1-1-1.2-1.3-1.3-.3v2l1.3.3zm-17.5-2.7c0-1-1.2-1.3-1.3-.2v2l1.3.2z"/><path fill="#ff0" d="M453.3 575.1c6-6.1 3.4-12 3.3-12.5-.4-.2-6.2-4-13 1.3z"/><path fill="#ff0" d="m465 573-6.5 7.3-4.8-5.7c5.8-5.7 2.7-11.2 2.4-11.7-.5-.3-5.6-3.9-11.9.6l-4.7-5.6 8.3-5.5z"/><path d="M466 572.6h-.8l-17.4-20.8-9 6 5.5 6.3.2-.3c2.6-2 4.9-2.5 7.8-2q2.9.6 3.5 1.3v.1q.9.7 1 3.6c0 3-1 5.1-3.4 7.5l-.3.2 5.4 6.4 6.9-7.6.3-.3zm-10.8-10.8-2.8-.9a10 10 0 0 0-8.1 2l-4.2-5 7.6-5zm9 11.5-5.8 6.3-4.1-4.9a10 10 0 0 0 3.3-7.9q0-1.5-.4-2.6l7.3 8.7-.5.3z"/><path fill="#ff0" d="m458.8 580.7-19.6-23.1q-.8-.7-1.7-.1-.7.8-.1 1.7l19.5 23q.8.8 1.7.1t.2-1.6"/><path d="m459 580.4-19.5-23q-.5-.6-1.1-.6a1.6 1.6 0 0 0-1.7 1.4q-.1.7.4 1.2l19.6 23.1a1.6 1.6 0 0 0 2.2.2 1.6 1.6 0 0 0 .2-2.3m-.6.5q.4.6-.2 1.1-.3.3-.6.2l-.5-.2-19.5-23q-.5-.7.1-1.2t1.1 0z"/><path fill="#ff0" d="M451.7 572.2c3.6-3.7 2.4-7 2.3-7.4-.3-.1-3.5-1.9-7.7 1.1z"/><path d="M452 572.6a8 8 0 0 0 2.7-5.2q.1-2.3-.4-2.8-.7-.6-2.7-.9-3-.2-5.5 1.9l-.4.2 5.7 6.7.3-.3zm-.3-1-4.8-5.6q2.3-1.6 4.7-1.4 1.8.2 2.1.5t.2 2a7 7 0 0 1-2.2 4.5"/><path fill="#ff0" d="m468.8 571.1-18.7-22.2q-.7-.6-1.6-.1-.7.7 0 1.5l18.7 22.2q.8.7 1.5.2.7-.7.1-1.6"/><path d="m469.1 570.9-18.7-22.2q-1-1.2-2.2-.3-1 1 0 2.2l18.7 22.2q1 1.1 2.1.2.5-.4.5-1 .1-.6-.4-1.2m-.6.6q.3.1.2.4l-.2.5q-.6.4-1 0L448.7 550q-.4-.5.1-1l.6-.2.4.3z"/><path fill="#ff0" d="m466.8 572-18-21.1q-.7-.7-1.5-.1-.6.7-.1 1.5l18 21.2q.7.7 1.5 0 .6-.7.1-1.4"/><path d="m467 571.8-17.9-21.2q-1-1.1-2-.2a1.5 1.5 0 0 0-.2 2.1l18 21.2q.4.5 1 .6t1-.4q1.2-1 .2-2m-.6.4.1.4q0 .4-.2.5-.6.4-1 0l-18-21.2v-.4q0-.3.2-.5.5-.4 1 0z"/><path fill="#ff0" d="M473.3 554.5 472 553l-1 .8-1-1.2 1-.9-1.5-1.7-1 .9-1-1.2 1-1-1.5-1.7-2.3 2q-.4.7 0 1.4l5.1 6q.7.6 1.3.2z"/><path d="m473.6 554.3-1.7-2-1 .9-.5-.6 1-.9-2-2.4-1 .9-.5-.5 1-1-2-2.3-2.6 2.2q-.3.4-.4 1 0 .4.4 1l5.1 6q1 1 1.9.3l2.6-2.3-.2-.2zm-.9.2-2 1.7q-.3.3-.7-.2l-5-6q-.4-.4-.1-.7l2-1.7 1 1-1.1.9 1.6 1.9 1-.9 1 1-1.1 1 1.6 1.8 1-.8z"/><path fill="#ff0" d="m464.9 551-7.9 6 5 6 7.2-7z"/><path d="m464.6 550.6-8.2 6.4 5.6 6.5 7.8-7.4-4.7-5.4-.2.2zm.2 1 3.8 4.3-6.6 6.4-4.4-5.1z"/><path fill="#ff0" d="m467.4 561.1-4.2 3.3 4.8 5.7 4-3.7z"/><path d="m467.2 560.8-4.5 3.5 5.3 6.4 4.5-4.2-4.8-5.6-.2.2zm.4 1 3.8 4.6-3.4 3-4.2-4.8 3.6-2.9z"/><path fill="#ff0" d="M455.2 546.6 451 550l4.7 5.6 4-3.7z"/><path d="m454.9 546.3-4.5 3.6 5.4 6.3 4.4-4.2-4.7-5.6-.3.2zm.4 1 3.8 4.5-3.4 3.2-4.1-5 3.6-2.8z"/><path fill="#ff0" d="m475.7 565-1.4-1.7-1 .9-1-1.2 1-1-1.4-1.6-1 .9-1-1.2 1-1-1.4-1.6-2.3 2q-.6.6 0 1.3l5 5.9q.5.6 1.2.2z"/><path d="m476 564.7-1.7-2-1 .9-.4-.5 1-1-2-2.3-1 .9-.4-.5 1-1-2-2.3-2.6 2.3q-.4.3-.4.9 0 .4.4 1l5 5.8q.9 1.2 1.8.4l2.6-2.3-.1-.1zm-.9.1-2 1.8q-.3.3-.7-.2l-5-5.9q-.3-.3 0-.6l2-1.8 1 1-1.1.9 1.6 1.9 1-1 .9 1-1 1 1.5 1.9 1-1z"/><path fill="#ff0" d="m463.5 550.4-1.4-1.6-1 .9-1-1.2 1-1-1.4-1.6-1 .9-1-1.2 1-1-1.5-1.6-2.3 2q-.5.6 0 1.3l5 5.9q.6.6 1.3.2z"/><path d="m463.8 550.2-1.7-2-1 .9-.5-.6 1-.9-2-2.3-1 .9-.4-.5 1-1-2-2.3-2.6 2.3q-.4.3-.4.9 0 .4.4 1l5 5.8q1 1.2 1.8.4l2.7-2.3-.2-.1zm-1 .1-2 1.8q-.3.3-.6-.2l-5-5.9q-.3-.3 0-.6l2-1.8.9 1-1 .9 1.5 1.9 1-1 1 1-1.1 1 1.6 1.9 1-1zm2.3 5.8a.8.8 0 0 0-1-1.2l-1.8 1.6 1 1.2zm3.6 9.5c.6-.7-.2-1.6-1-1l-1.3 1.1.9 1.1zm-12.3-14.5c.6-.7-.2-1.6-1-1.1l-1.3 1.2 1 1.1z"/><path fill="#039" d="M389.5 488.2a17 17 0 0 0 3.6 10q3.6 4 8.7 5 5.3.6 8.7-2.8a13 13 0 0 0 3.6-9v-18.1l-24.5-3.2z"/><path fill="#fff" d="M397.6 478q-.2 2.2-2.4 2.1a3 3 0 0 1-2.5-2.8q.2-2.1 2.5-2.2a3 3 0 0 1 2.4 2.8m13.6 1.8q-.1 2.3-2.4 2.2a3 3 0 0 1-2.4-2.8q.2-2.3 2.4-2.2a3 3 0 0 1 2.4 2.8m-6.8 5.8q-.2 2.3-2.4 2.2a3 3 0 0 1-2.5-2.8q.3-2.1 2.5-2.2a3 3 0 0 1 2.4 2.8m-6.8 6.2q-.2 2.2-2.4 2.2a3 3 0 0 1-2.5-2.8q.2-2.3 2.5-2.2a3 3 0 0 1 2.4 2.8m13.6 1.8q-.1 2.2-2.4 2.1a3 3 0 0 1-2.4-2.8q.2-2.1 2.4-2.2a3 3 0 0 1 2.4 2.8"/><path fill="#039" d="M389.5 444.5q.2 5.6 3.6 10 3.6 4 8.7 5 5.3.5 8.7-2.8a13 13 0 0 0 3.6-9v-18.2l-24.5-3.1z"/><path fill="#fff" d="M397.6 434.2q-.2 2.3-2.4 2.2a3 3 0 0 1-2.5-2.8q.2-2.1 2.5-2.2a3 3 0 0 1 2.4 2.8m13.6 1.8q-.1 2.3-2.4 2.2a3 3 0 0 1-2.4-2.8q.2-2.3 2.4-2.2a3 3 0 0 1 2.4 2.8m-6.8 5.8q-.2 2.3-2.4 2.2a3 3 0 0 1-2.5-2.8q.3-2.2 2.5-2.2a3 3 0 0 1 2.4 2.8m-6.8 6.2q-.2 2.1-2.4 2.2a3 3 0 0 1-2.5-2.8q.2-2.3 2.5-2.2a3 3 0 0 1 2.4 2.8m13.6 1.7q-.1 2.3-2.4 2.2a3 3 0 0 1-2.4-2.8q.2-2.2 2.4-2.2a3 3 0 0 1 2.4 2.8"/><path fill="#039" d="M355.4 484.4q.2 5.6 3.6 10a14 14 0 0 0 8.7 4.8 11 11 0 0 0 8.7-3q3.4-3.5 3.6-9.1V469l-24.5-2.7z"/><path fill="#fff" d="M363.5 474q-.2 2.3-2.4 2.2a3 3 0 0 1-2.5-2.7q.2-2.3 2.4-2.2 2.3.4 2.5 2.7m13.6 1.5q-.2 2.3-2.4 2.2a3 3 0 0 1-2.4-2.7q.1-2.3 2.4-2.3a3 3 0 0 1 2.4 2.8m-6.8 6q-.2 2.2-2.4 2.2a3 3 0 0 1-2.5-2.8q.2-2.1 2.5-2.2 2.2.5 2.4 2.7m-6.8 6.3q-.2 2.3-2.4 2.3a3 3 0 0 1-2.5-2.8q.2-2.1 2.4-2.2 2.3.5 2.5 2.7m13.6 1.5q-.2 2.3-2.4 2.2a3 3 0 0 1-2.5-2.7q.3-2.3 2.5-2.3 2.2.5 2.4 2.8"/><path fill="#039" d="M423.5 492.6q.3 5.8 3.7 10t8.7 5.3q5.1.5 8.7-2.7 3.3-3.4 3.6-9V478l-24.6-3.6z"/><path fill="#fff" d="M431.6 482.5q-.2 2.3-2.4 2.2a3 3 0 0 1-2.4-2.8q.1-2.3 2.4-2.2a3 3 0 0 1 2.4 2.8m13.7 2q-.3 2.2-2.5 2.2a3 3 0 0 1-2.4-2.9q.2-2.2 2.4-2.1a3 3 0 0 1 2.5 2.8m-6.9 5.7q-.2 2.3-2.4 2.2a3 3 0 0 1-2.4-2.9q.2-2.2 2.4-2.1a3 3 0 0 1 2.4 2.8m-6.8 6q-.2 2.3-2.4 2.2a3 3 0 0 1-2.4-2.8q.1-2.3 2.4-2.2a3 3 0 0 1 2.4 2.9m13.6 2q-.1 2.2-2.4 2a3 3 0 0 1-2.4-2.8q.2-2.2 2.4-2.1a3 3 0 0 1 2.4 2.8"/><path fill="#039" d="M389.5 531.5q.2 5.6 3.6 10 3.6 4.2 8.7 5 5.3.5 8.7-2.8a13 13 0 0 0 3.6-9v-18.1l-24.5-3.2z"/><path fill="#fff" d="M397.6 521.3q-.2 2.1-2.4 2.2a3 3 0 0 1-2.5-2.8q.2-2.3 2.5-2.2a3 3 0 0 1 2.4 2.8m13.6 1.8q-.1 2.2-2.4 2.1a3 3 0 0 1-2.4-2.8q.2-2.2 2.4-2.2a3 3 0 0 1 2.4 2.8m-6.8 5.9q-.2 2.2-2.4 2.1a3 3 0 0 1-2.5-2.8q.3-2.1 2.5-2.2a3 3 0 0 1 2.4 2.9m-6.8 6.1q-.2 2.3-2.4 2.2a3 3 0 0 1-2.5-2.8q.2-2.2 2.5-2.2a3 3 0 0 1 2.4 2.8m13.6 1.8q-.1 2.2-2.4 2.1a3 3 0 0 1-2.4-2.8q.2-2.1 2.4-2.2a3 3 0 0 1 2.4 2.9"/><path fill="#1a1a1a" d="M8 195.3c170.8-85.3 341-54.5 513.3-28C676.5 191 833.4 211.8 992 132.7v672c-170.8 85.3-341 54.5-513.3 28C323.5 809 166.6 788.1 8 867.2zm31.3 19.3v604.5c306.5-128.2 611.1 96 921.5-33.7V180.9C654.2 309 349.5 84.9 39.3 214.6" opacity=".2"/></svg>