<svg xmlns="http://www.w3.org/2000/svg" viewBox="0 0 1000 1000"><path fill="#0038a8" d="M8 195.3c170.8-85.3 341-54.5 513.3-28C676.5 191 833.4 211.8 992 132.7v672c-170.8 85.3-341 54.5-513.3 28C323.5 809 166.6 788.1 8 867.2z"/><path fill="#fff" d="M8 195.3c170.8-85.3 341-54.5 513.3-28C676.5 191 833.4 211.8 992 132.7v448c-170.8 85.3-341 54.5-513.3 28C323.5 585 166.6 564.1 8 643.2z"/><path fill="#d52b1e" d="M8 195.3c170.8-85.3 341-54.5 513.3-28C676.5 191 833.4 211.8 992 132.7v224c-170.8 85.3-341 54.5-513.3 28C323.5 361 166.6 340.1 8 419.3z"/><path fill="#fff" d="M568.6 510.3c-.3 47.3-30.5 80.4-68.6 74.9-38-6.3-68.3-48.3-68.6-95.6.3-47.3 30.5-80.3 68.6-74.8 38 6.2 68.3 48.3 68.6 95.5"/><path d="M570 510.5a84 84 0 0 1-20.4 58.6 53 53 0 0 1-49.6 18c-19.5-3.2-35.7-14-49.6-33.1a109 109 0 0 1-20.5-64.6q.1-36 20.5-58.5a53 53 0 0 1 49.6-18c19.5 3.2 35.7 14 49.6 33.1a109 109 0 0 1 20.5 64.5m-3-.4a104 104 0 0 0-19.7-61.7q-19.7-27.2-47.4-31.7a51 51 0 0 0-47.4 17.2 80 80 0 0 0-19.7 56 104 104 0 0 0 19.7 61.7c13.3 18.3 28.8 28.6 47.4 31.7a51 51 0 0 0 47.4-17.2 80 80 0 0 0 19.7-56"/><path fill="#009b3a" d="M533.2 491.9c-1.7-.1-1.7 1.7-1.7 2 0 0 0-.8 0 0s.3 2.5 1.5 3c1.4.1 1.7-1.4 1.8-2.4 0-.5-.1-2.2-1.6-2.6"/><path d="M531.1 493.8q0-.8.3-1.4.5-1.3 1.8-1 2 .3 2 3.2 0 1-.5 1.9-.6 1.1-1.7.9-2-.6-1.9-3.6m2-1.4q-.7-.2-1 .6l-.2.5v.5q0 2 1.2 2.4.6.1 1-.5l.3-1.5q0-1.8-1.2-2v-.5zm-1.9 1.4.2.2h.4l-.3-.1h.3zM457 527.5l-.6-1.3q0-.2-.5-.8l-.4-.3h-.5q-.4.3-.4.6l.3 1.3.6 1.4zm5.8.4-7.5 4.4-2.2-5q-.7-1.5-.8-2.4t.1-1.6 1-1.2l1.2-.2q.7 0 1.2.5l.8.9-.1-1 .2-.7.2-.7 1.5-2.7 1.6 3.4-1.6 3-.3.9q0 .5.2.8v.3l3.1-1.8zm-13.2-9.5-2.2-8.8 1.7-.5 1.5 5.6 1.3-.4-1.4-5.1 1.7-.4 1.4 5 1.6-.4-1.5-5.6 1.9-.5 2.3 9zm.3-17.2-.1-.8q0-.9-.4-1.3-.3-.4-.7-.4l-.7.3q-.2.4-.1 1.3v1zm-3.4 3.4-.5-5.6q-.1-1.7.4-2.7.6-.9 2-.9 1.2 0 2 1t1 3l.2 1.9h3.2l.3 3.3zm-.3-21 .3-3.3 5.2 1.4q.8.3 1.3.7l1.2 1.3.6 1.5v2.4l-.2 1.6q-.2 1-.5 1.4l-.8 1-1 .4q-1 0-1.6-.2l-5-1.4.2-3.3 5.3 1.5q.7.2 1.1-.1t.5-1.2-.3-1.5-1-.8zm8.7-7.8.4-1.6q.2-.7 0-1.2 0-.4-.4-.7h-.7q-.3.2-.6 1l-.4 1.5zm-3.3-2 .4-1.2q.2-.7 0-1.1l-.4-.6q-.3-.3-.7 0-.2 0-.4.8l-.4 1.3zm-4 1.3 1.6-5.7q.5-1.4 1.2-1.8.8-.4 1.7 0 .7.6 1 1.4.3.5.3 1.3.5-1 1.2-1 .7-.3 1.4.2t1 1q.5.6.6 1.4v1.3l-.4 1.4-1.5 5.2zm4.3-13.2 1.5-2.6 5.5 5 2.2-4 1.8 1.6-3.5 6.7zm5.8-9.7 1.7-2.3 6.6 8-1.7 2.2zm12-4 2.3-.8q.4 1.2.4 2.2t-.3 2a5 5 0 0 1-3.3 2.7q-1 .1-2.1-.5a7 7 0 0 1-2.2-2.3 8 8 0 0 1-1.2-4.3 5 5 0 0 1 1.7-3.4q1.4-1 2.4-1 1.1 0 2.4 1.2l-1.5 2.1-.6-.4q-.3-.2-.7-.1l-.7.3q-.6.6-.6 1.7.2.9.8 2 1 1.5 1.6 1.8.8.3 1.3-.3t.7-1.2q0-.7-.4-1.7m8.8-5.1-2.3-3.3.6 4.1zm1.3 2-2.7 1.2.3 2-2.4 1-1-11.5 2.5-1.3 6.9 8.9-2.5 1.2zm10.6-9.6.6 5.9h.7q.9 0 1.2-.3l.4-.8v-2a5 5 0 0 0-.7-2.3q-.5-.5-1.6-.5zm-3-2.4 4-.1q1.1 0 2 .3l1.2 1.1 1 1.8.4 2a9 9 0 0 1 0 2.8l-.7 1.6-1.1.9-1.6.3-4 .1zm11.9-.3 7.1 1.8-.1 2.2-4.5-1-.1 1.6 4.2 1-.2 2.2-4.1-1-.2 2 4.7 1.2-.2 2.4-7.3-1.8zm11 3 2.6 1.2-1.8 7.6 4 2-.6 2.5-6.6-3.4zm14.6 14.2.6.5q.6.6 1 .6t.7-.4l.1-.9q0-.4-.7-1l-.6-.7zm-.2-5.8 3.7 3.7q1.2 1.2 1.4 2.4.3 1.3-.4 2.5t-1.8 1.3q-1.1 0-2.4-1.3l-1.3-1.2-1.7 3-2.3-2.1zm9.4 17.9 1.5-3.4-2.9 1.5zm-1 2-2-3-1.4.7-2-2.7 4-1.7 4.5-1.8 2 2.8-3.7 10-2-2.8zm8.1 5.9.7 1.3.4.7q.3.3.5.3h.5q.4-.3.4-.7 0-.5-.3-1.2l-.7-1.3zm-5.8-.2 7.4-4.7 2.4 5 .8 2.2v1.7l-1 1.2a2 2 0 0 1-1.3.3q-.6 0-1.2-.5l-.8-.9.2 1-.2.7-.2.7-1.5 2.9-1.6-3.4 1.5-3 .3-1-.2-.9-.1-.2-3 1.9zm10.3 16 2.6-2-3.3-.3zM544 487l-1-3.7-1.5-.1-1-3.3 9.3 1.5 1 3.5-7 6.5-1-3.5zm4.2 12h1.8l.5 5.3h-3.7q-.9-1.5-1.3-2.7l-.6-2.7q-.1-2 .2-3.1a4 4 0 0 1 1.4-2q1-.6 2.3-.6 1.4 0 2.5.7 1 .7 1.8 2.1.5 1.1.7 3v2.7q-.1.8-.7 1.5t-1.2.9l-.8-3.3q.4-.1.7-.6l.1-1.3a3 3 0 0 0-.8-1.7q-.6-.6-2-.7t-1.9.7-.4 1.9a5 5 0 0 0 .8 2.2h.8zm5.5 17-.3 3.3-5.2-1.5-1.4-.7-1.1-1.3-.6-1.5V512l.2-1.6q.2-.9.5-1.4l.8-1 1-.3 1.6.1 5.1 1.5-.3 3.2-5.3-1.5q-.7-.1-1.1.2t-.5 1.2.3 1.4q.3.6 1 .8zm-8 11.1 3.2.6-2.6-2.8zm-2-.4 1-3.4-1.2-1.3 1-3 7 8.3-1 3.3-9.2-1 1-3.2zm4.8 10.6-1.5 3-3.4-.5 1.6 4-1.5 2.9-2.6-7.2-3.1-2.8 1.4-2.6 3 2.7z"/><path d="M558 508.8q0 29.8-17 48.4a44 44 0 0 1-41 14.8 62 62 0 0 1-41-27.3 90 90 0 0 1-17-53.5q0-29.9 17-48.4a44 44 0 0 1 41-14.9 62 62 0 0 1 41 27.4 90 90 0 0 1 17 53.5m-1.2-.2a88 88 0 0 0-16.6-52.3 61 61 0 0 0-40.2-26.9 43 43 0 0 0-40.2 14.5 68 68 0 0 0-16.6 47.5 88 88 0 0 0 16.6 52.3 61 61 0 0 0 40.2 26.8 43 43 0 0 0 40.2-14.5 68 68 0 0 0 16.6-47.4"/><path d="M543.3 506.4a52 52 0 0 1-12.6 36.1 33 33 0 0 1-30.7 11q-17.9-2.9-30.6-20.4c-8.5-12-12.6-25-12.7-40s4.2-26.7 12.7-36.1a33 33 0 0 1 30.6-11q17.9 2.9 30.6 20.4c8.5 12 12.6 25 12.7 40m-1.2-.2a66 66 0 0 0-12.3-38.9 46 46 0 0 0-29.8-19.9 32 32 0 0 0-29.8 10.8 51 51 0 0 0-12.3 35 66 66 0 0 0 12.3 39A45 45 0 0 0 500 552a32 32 0 0 0 29.8-10.7 51 51 0 0 0 12.3-35.1"/><path fill="#fedf00" d="m500 480.6 3.6 13.4 10.9 2-8.7 6.8 3.1 13.4-8.9-9-9 6.2 3.2-12.4-8.7-9.5 11 1.3z"/><path d="m500.3 480.6 3.5 13 11.4 2.2-9.1 7.1 3.3 14.1-9.4-9.5-9.4 6.6 3.3-13-9-10 11.3 1.4 3.8-12.8zm-.3 1-3.4 11.6-10.4-1.3 8.3 9-3 11.8 8.5-6 8.5 8.7-3-12.8 8.2-6.5-10.3-1.9z"/><path fill="#009b3a" d="M519.7 539.4c-.4.3-1.7.3-2.2.3l-2.5-.3h-1.4c-3-1 4.8.2 6.1 0m-8.2-4.3 1.6-3.8 1.8-3.6c.3-.5 1.1-1.5 1.5-1a21 21 0 0 0-4 7c0 .2-.6 1.3-.9 1.6q0 .7-.4 1h-.1zm11.8 4-2.3-1q-1.5-.8-3.6-1.2-1.8 0-3.3.5a5 5 0 0 1-2.4.1h-.4l1.5-1.2.8-1.1a21 21 0 0 0 3.5-7.3c.6-1.2 1.2-3 1-3.6-.3 0-2.7.7-3.5 1.3s-1.2 2-1.4 3c-.3.9-1.3 1.4-1.3 1.5-.9.8-1.5 3-1.8 5-.7 2-4 2.4-4.3 2.4 0 0-1 .3-.1 1 .1 0 .6 1 1 1l3.2-.6c.5.2 1.6.7 2.5 1.3q1.4.8 2.4.6 1.2-.2 2.3.4 1.2.4 2 .2c.5-.1 1.7-.8 1.7-.8l2.2-.9c.8-.3.4-.6.3-.6"/><path d="M512.3 537.2q1 0 1.7-.2 2-.6 3.4-.4 2 .2 3.8 1.2l2.2 1v.3-.3q.3 0 .4.5 0 .5-.6.8l-2.2.9-1.8.8q-1 .1-2.1-.3-1.4-.4-2.2-.3-.8.3-2.6-.7l-2.4-1.2-1.4.3q-1.5.5-1.9.3-.3 0-.9-.9l-.1-.2-.6-.6q0-.4.2-.7.1-.3.5-.3 3.7-.5 4-2.2.7-4.3 2-5.2 1-.6 1.2-1.3a7 7 0 0 1 1.5-3.2q.5-.5 2-1 1.7-.5 2-.2.5 1-1 4 .1 1.2-1.6 4.3-1.5 2.7-2 3l-.7 1.2zm10.9 2.2-2.2-1q-1.6-.8-3.5-1-1.4-.3-3.3.4-1 .3-2.4.1h-.4l-.3-.1-.1-.4v-.2l.2-.2q.3 0 1.4-1l.8-1.2q.3 0 2-2.9 1.5-3 1.4-4v-.2q1.4-2.6 1.1-3.2l-.2.2a10 10 0 0 0-3 1.2q-.7.7-1.2 2.9-.3 1-1.5 1.6-1 .9-1.6 4.8c-.4 1.5-1.6 2.3-4.5 2.7l-.3.2h.2l.4.5.4.6 1.7-.4q1.4-.3 1.7-.2l2.5 1.2q1.5.9 2.2.6 1-.2 2.5.4a3 3 0 0 0 1.8.2q.5 0 1.7-.8l2.2-.8zm-12-4.5.6-1.4q1-2 1-2.5l.6-1 1.2-2.5.8-1 .6-.3q.4-.1.7.4v.3l-.1.2a18 18 0 0 0-3.9 6.7q-.4 1.2-1 1.8v.3q-.1.6-.4.7l-.1.2-.3-.1-.2-.2v-.4l.1-.2zm8.6 4.8q-.3.4-2 .4h-.3l-1.8-.2h-1.3l-1-.1-.8-.4q-.3-.2-.1-.6l.2-.1h.3l2.3.1q3.8.4 4.2.2l.1.4z"/><path fill="#009b3a" d="m512.6 543.4-5.8-4.5c-.1-.1-2.5-2-3.5-2.6q-1.4-.6-2.2-.7l-2.4.2 1.4 1 1.9 1.4q1 1.3.9 1.4l5 3.5 1 1s.8-1.2 3.7-.7"/><path d="M512.6 543.4v.3c-2-.4-2.9-.2-3.6.7l-.1.2-1.2-1.2-5-3.6v-.2q0-.6-.9-1.1L500 537l-2-1.3.6-.2 2.5-.2a6 6 0 0 1 2.2.7l2.8 2 .7.6q.4.1 5.9 4.6zm-1-.5-8.4-6.3q-1-.6-2.1-.7l-1.6.1.7.5 1.9 1.5q.9.8 1 1.5l4.9 3.4.8.9q.8-1 2.7-.9"/><path fill="#009b3a" d="M518 530.2c1.7-1.8 2.7-4.2 4-5.5q.4.3 0 1.1l-.8 1-1.4 1.7q-.2.8-1.2 1.5c-.7.5-.5 1.3-.6 1.7s-1.1 1.3-1.7 2.5c-.2 1.2-.2.7-.8 1zm-3.9 5.4c-.3.3-3.3 2-2.4 2l5-1.5q1.5-.9 2.6-2.5a36 36 0 0 0 3.9-4.6c.4-1.3.7-2.7-1-6.9q0 .2-.9 1.3l-1.6 1.3-1.1 1.1z"/><path d="m518.4 525.6 1.2-1.2 1.6-1.3q.6-.6.8-1.2l.3-.7.3.8q1.8 4.5 1 7.2-.5 1-3.6 4.4l-.4.4-.6.7q-1.2 1.4-2 1.8a29 29 0 0 1-5.2 1.4h-.2l-.3-.2v-.4l.3-.4 1.3-.8 1-.7zm-4 10.2q0 .2-1.2 1 1.7-.4 3.5-1.1.7-.3 1.8-1.6l.7-.8.3-.4q3-3.2 3.5-4.2.7-2-.7-5.8l-.7.9q-.6.6-1.6 1.2l-1 1.1zl-.3-.2zm3.4-6q.9-.8 2.2-2.9l1.8-2.6.2-.1.2.2q.6.6 0 1.6l-.5.8-.2.2-.6.8-.8.9q-.6 1.3-1.3 1.7-.4.3-.4 1v.5l-.7 1q-.9.8-1.1 1.4-.1 1.1-.6 1.2l-.4.1-.4-.6 2.6-5 .2.1z"/><path fill="#009b3a" d="m528 534.5-2.4-.6-3.1-.7c-1.8-.2-2.3.4-2.8 1l-1.8 1.8h.7c1.8-1.2 3-.6 3.6-.5s1.2.2 3-.2 1.6.1 1.4.2a8 8 0 0 1-2.6.3h-3l-4.3.6 4.6 1.1q.7.4 1.7 0a10 10 0 0 1 3-.7c.6-.1 1.4-.5 1.4-.5l.8-1c.3-1-.2-.8-.2-.8"/><path d="m517.6 535.8 1.9-2q1-1.2 3-1l2.8.7h.3l2.7.7q.3.2.3.6l-.1.6a3 3 0 0 1-1 1.2l-1.5.6q-1.5.1-2.9.8-1 .4-2-.1l-4.4-1.2v-.7zm10.3-.9-2.3-.6h-.4l-2.7-.7q-1.7-.2-2.6.8l-.7.9a4 4 0 0 1 2.6-.2h.6q1.2.1 2.7-.2 1.1-.3 1.7 0 .3.1.3.6 0 .3-.3.4-1.3.4-2.8.3h-2.9q-.4-.1-2.3.2l2.6.8q.6.4 1.5 0 1.5-.6 2.9-.8h.1q.6 0 1.3-.5.4-.1.7-1h.2l-.1-.4z"/><path fill="#009b3a" d="M530 520.8c.3-.8 1-2.5 1.6-3.2q.8-.5 1.5-.7c.2 0 1.4 0-.1.4q-1 .1-1.8 1.1a11 11 0 0 1-2 4.2l-1.1 2-.8.2c1.4-1 2-2.7 2.7-4m6.7 0-1 .4c-1.8.5-2.5 1.6-3.3 2.7-.4.5-1 .9-2.8 1.6s-3 1.8-3.1 1.8c0 0-.5 0-.4.4q.2.2.5.1s3.4-.1 5-1c.9-.5 1.4-1 2.3-2.5.4-.8.8-2 .9-1.2-.3 2.6-2.8 4.2-4.3 4.9q-1 .3-2.9.3-1.9.1-1.8-.4c0-.5.2-.5.5-1 .7-.7 2-.9 3-1.3a8 8 0 0 0 3-2c.6-.8.8-1.1 1-1.8q.5-2.7.9-3.5c1.4-2.1 1.6-2.7 1.7-3.8l-1.2.7c-.8.4-1 .4-2.7.7-1.6.4-1.6 1.5-1.9 2.2 0 .2-.7 1-1 1.3-.4.2-1.1 1.4-1.5 2.2q-.3 1-.9.9c-.1-.3.6-4.2.9-5 .2-.8.2-2.2.2-2.6 0-.6 0-1.6-.6-2s-.7-1.2-.7-1.3c-1.3 1.7-.7 4.3-.5 6.3.1 1.7-.3 4.8-.3 4.8 1.4 1.2.4 2.9-.1 3.7-.6.6-1.4.7-1.9 1.3l-3.5 5.5 3.9-.8s.3.1-.3-.5c-.4-.8.2-2.4.7-3 1-.6 2.2.1 2.3.2 0 0 1.7.5 4-.2 1.8-.7 2.6-1.9 3.5-2.9l1.9-3.5c.3-.7.8-1.7.5-1.7"/><path d="M533.5 522q1-1 2-1.1l1.1-.5q.3 0 .4.2l.1.4-.1.6-.6 1.2-.3.5q-1.2 2.6-1.6 3l-.5.6q-1.5 1.9-3.1 2.4-2.3.7-4.2.1-1.1-.7-2-.1l-.6 1.2q-.3 1 0 1.1.4.7.4 1-.1.3-.4.2l-4.7 1 .5-.9 3.6-5.5q.3-.4 1-.7l.8-.6q.6-.7.8-1.6t-.5-1.5l-.2-.1v-.3a22 22 0 0 0 .2-5.8c-.4-3-.2-4.5.7-5.5l.5-.4v.8q0 .8.5.9.8.4.8 2.3 0 1.7-.2 2.7l-.9 4.2-.2.3q.3.1.6-.7.8-1.9 1.5-2.4.7-.2 1-1.1v-.4q.5-1.7 2-2l1-.1q1-.2 1.7-.6l1-.6.2-.1h.3l.1.5a9 9 0 0 1-1.8 4l-.5 1.6zm-8 6.3v-.5q0-.4.4-.8l.2-.3q.5-.5 2-1l.6-.1.7-.4.7-.2q1.2-.7 2-1.6.7-1 .9-1.7l.3-1.7.6-1.9q1.2-1.6 1.6-2.8l-.6.3q-.6.5-2 .6l-.8.2q-1.2.2-1.5 1.5l-.2.5q-.4 1-1.2 1.5-.6.3-1.3 2-.5 1.4-1.2 1-.4 0-.3-1.1a24 24 0 0 1 .9-4.5l.2-2.4q0-1.3-.3-1.5-.6-.2-.8-.8-.6 1.3-.2 4.2l.1 1.2q.1 1.6-.2 4.6.9.8.6 2.3-.3 1-.9 1.9-.3.4-1 .7l-.8.5-3 4.7 2.6-.5q-.5-.6-.1-2 .3-1 .8-1.5t1.2-.4m4-5.3q-.7.9-1.1 1.9v.1l-1 .3-.2-.8q1-.6 2.1-3l.4-.8a10 10 0 0 1 1.7-3.3l1.3-.6.3-.1h.8l.3.5q.1.3-.3.4l-.7.2q-1.2.1-1.6 1-1 3.1-2 4.2m6.9-1.6q-.4 0-.6.3-1.5.4-2.9 2.2l-.3.4a15 15 0 0 1-3.1 1.8l-.6.2-2 1.2q3.2 0 4.5-.9a7 7 0 0 0 2.6-3.2l.4-.7.1-.1.4.1.2.6v.8l.5-1.1.3-.6zm-4 6.1q-.7.6-1.8 1l-2.4.3h-1.3q1.7.5 3.8-.1zm.6-1.4q.9-.7 1.2-1.8l-.1.3zm-6.8 1.6"/><path fill="#009b3a" d="M525.7 532q.3.1 1-.8c.4-.8 0-1.8-.9-2-.4 0-.7-.2-1.6 1-.6 1.3.3 1.8.8 2z"/><path d="m525.9 532.5-.9.1-1-.7q-.7-1 0-2 .8-1.3 1.7-1.1h.1q.9 0 1.3 1 .3 1.1-.2 1.8zm-.3-.9.7-.7q.3-.2.1-.8-.2-.4-.5-.5h-.1q-.6 0-1.3.9-.3.5 0 .8.1.3.5.5zl.1.4z"/><path fill="#009b3a" d="M523.7 523.4q-.8 1.6-.4 2.6c.2 0 .5.5.8.5q.6 0 1.6-1.1c.5-1 .8-1.7 0-2.5q-1.4-.9-2 .5"/><path d="M523.4 523q.9-1.5 2.4-.5.8.7.8 1.7 0 .6-.6 1.4-.9 1.5-1.9 1.4-.3 0-.9-.6v-.1q-.9-1 .2-3.2m.6.5q-.7 1.6-.4 2v.1l.5.4q.7 0 1.3-1l.5-1.1q0-.4-.4-.8-.9-.6-1.5.4l-.3-.2z"/><path fill="#009b3a" d="m526.7 510.8-.3-.6-1.2-2.1c-1 .7-1.4 1.9-1.4 2.5v3.3l-.6 2.5c-.5 1.6 0 3.1.1 3.7l.6 2.2.5-.2h.8s.6-1.3.6-2.1l-.3-3.2c-.3-2.3-.2-2.9 0-4.1s1.1-1.9 1.2-2"/><path d="m526.7 510.8.1.3q-.9.7-1 1.7a15 15 0 0 0 0 4q.4 2.3.3 3.3 0 .8-.7 2.3v.2h-.2l-.7-.2-.5.3-.3.2-.1-.5-.6-2.5a7 7 0 0 1-.1-3.7l.6-2.4v-3.2q0-2 1.5-2.9l.3-.1.2.3 1.1 2q.5.7.3 1.1zm-.3-.3-.2-.1-1-1.8q-1 .6-1.1 2v3.4q0 1-.7 2.6-.4 1.2.2 3.1v.3l.5 1.8.3-.1h.6q.5-1 .5-1.8t-.3-3q-.3-2.7 0-4.3.1-1.4 1.2-2"/><path fill="#009b3a" d="M528.3 513.3q.1.1.9-.8c.3-.8.2-1.6.2-1.6-1-2.3-2-.9-2.2-.8-.9 2.8.9 3.1 1 3.2"/><path d="M528.3 513.3v.4q-.7-.1-1.2-.7-1-1.2-.2-3.1v-.1l1-.6q1.1-.2 1.8 1.5v.1q.1 1.2-.2 2-.4.7-1.2.9zm0-.5q.3 0 .6-.5t.2-1.3q-.4-1.1-1-1-.3 0-.6.4-.4 1.4 0 2 .3.3.7.4"/><path fill="#009b3a" d="M531.4 509.6c-1.4.2-2 2.7-2 3q0 .2-1 1.1c-.7.6-.4 1.4-.3 3-.1 1.6-.9 4.1-1 4.2l-.2.9s0 .6.5-.5c1-2 1.7-1.4 2.2-3.6.4-1.7 2.3-1.9 2.5-1.9l-.7-.2c-2-2 0-4.6.6-5.4.4-.5.8-.5-.6-.6"/><path d="M526.8 520.6q.8-2.5.9-4l-.1-1.1q-.2-1.8.6-2.2.5-.4.8-1 .8-3.3 2.4-3.2v.5-.5h.2q.8 0 .8.2.3 0 .4.3v.5l-.3.2-.2.3v.1q-1 1.2-1.3 2.1-.4 1.5.6 2.3l.5.2v1q-2 .2-2.1 1.5a4 4 0 0 1-1.2 2.3l-1 1.4q-.5 1.1-1 1-.3-.2-.3-.8v-.1zm3-7.9q-.4.8-1.2 1.5-.3.2-.2 1.3v1.3q.1 1-.4 2.7l.3-.2q.7-.7.9-1.8.2-1.4 1.6-2-1.2-1.1-.6-3.1l1.3-2.3q-1.1-.1-1.8 2.6"/><path fill="#009b3a" d="M531 513.3c-.4 1.6 1 1.9 1.6 1.7l.6-.6c.6-1.3.1-2.1-.3-2.4s-1.1-.4-1.9 1.3"/><path d="M530.7 513q1-2.2 2.3-1.4.5.2.8 1.1.2 1-.3 2l-.7.7q-.6.3-1.5-.2-.4-.3-.6-.8a2 2 0 0 1 0-1.4m.7.5-.1.6.3.3q.5.4.9.2l.4-.5q.4-.7.2-1.2 0-.4-.3-.5-.9-.5-1.4 1l-.4-.2z"/><path fill="#009b3a" d="M527.6 506.1a23 23 0 0 0 2.1 4.3c.2-.1 0-.7 0-.7l-.2-1.9q-.2-1.7-.6-3.2c-.4-1-1.3-2-1.8-3.4-.3-1.4 0-3.8 0-4.1v-.5l-2-1.7v3.7c0 .6.2 1.3.9 3.1z"/><path d="m527.3 506.3-.7-1.9-1-2.5q-.9-2.7-.9-3.4l.2-1.3v-2.3l-.2-.7.6.4 2 1.8q.2.6 0 .8-.2 2.6.1 3.9l1.1 2.2.7 1.1q.3.7.4 2.2l.2 1.1.2 2q.3 1-.2 1-.5.3-2.5-4.4m.5-.3 1.8 4-.2-.2v-.1l-.2-1.8-.2-1.3-.4-1.9q0-.3-.6-1l-1.2-2.4q-.4-1.5 0-4.3v-.1l-1.3-1.2v1.6l-.2 1.4q0 .4 1 3l.9 2.5zl-.2.1zm-1-9.2"/><path fill="#009b3a" d="m537.7 493-.7 1.2-3 2.8c-.3 0-1.5.4-3 4.6-1 4.3-.7 8.3-.7 8.3h.7v-.4l.5-2.5c.2-1 1.1-2.4 1.8-3.4s1-2.5 1-2.5q1-2.6 2-4.5c-.3 1.5-4.6 10.3-5.2 13.4h1.3c1.1-1.2 2.6-3.6 3.6-5.2s1.4-4 1.6-5.3z"/><path d="M530.7 510.3h-.6v-.3q-.6-4.4.7-8.6 1.3-3.7 3-4.8 1.2-.7 3-2.7l.6-1.1.3.2h.3l-.1 6.6q-.7 3.9-1.7 5.5l-.4.6a33 33 0 0 1-3.2 4.5zm6.7-16-.1.1a20 20 0 0 1-3.2 3q-1.7.8-2.7 4.4-1.1 3.9-.8 7.8h.1v-.2l.3-1.8.1-.7q.3-.9 1.6-3.1l.3-.5q.6-.9 1.1-2.4l.7-2 1.2-2.5.5-1v1.2q0 .9-2.2 5.9a67 67 0 0 0-2.8 7h.8q.9-.9 3-4.3l.4-.6a16 16 0 0 0 1.6-5.2z"/><path fill="#009b3a" d="M528.4 492.6q-1.2-1.4-1.3-1.3l.2 2.6v3.5c0 .9-.3 2.2.1 3.7l1.5 3.2c.3 1 1 5.5 1 5.5v-7.7c.2-1.7.2-4.2 0-5.6a13 13 0 0 0-1.5-4"/><path d="m528.4 492.6.2-.3q.9 1.4 1.6 4.1a20 20 0 0 1 0 5.8v7.7h-.6q-.6-4.5-1-5.4l-.5-1-1-2.2q-.3-1.4-.2-3.3v-4l-.1-2.6v-.6l.4.3q.6.4 1.4 1.3zm-.2.2-.7-.7v1.9l.1 1.2v3q-.3 1.8.1 2.8l1.5 3.2.3 1.3.1-3.5q.4-3.4 0-5.4-.7-2.6-1.4-3.8"/><path fill="#009b3a" d="M531.6 487.2q.4-.8 1-3V480l.1 1-.1 2q0 1-.3 2.4l-.2 2.3-.6 1.2-.2 1.7v1.8s.4-.6 1-.7l.2-1.8.7-4q.6-2 0-6.1l-.2-3s-.6.6-1 3v5c-.1 1.2-1 5.8-1.1 6.1z"/><path d="M531.3 487v-.2l.3-.4v-6.6q.5-2.6 1.2-3.2l.5-.4v.8l.2 2.8q.6 3.5 0 6.3-.6 2.4-.7 4l-.1 1.8v.3h-.3q-.6 0-.8.5l-.5 1.1v-1.4l-.1-1.3-.4-.3.5-1.3.1-.6.3-1.8zm.4 2.8-.1 1v.8l.5-.2.1-1.5q0-1.5.7-4.1t.1-5.4v2.8l-.4 2.5-.1 1.4-.1.9-.6 1.2zm1.2-9.9-.2-2-.5 2.1v3.1-2q0-1.4.3-1.4t.4.2"/><path d="m531.6 487.2.3.1-.1.3-.5-.5v-.1l.1.1zm-.2-.2"/><path fill="#009b3a" d="M529 474.2q.4.2.3 1v1.2c0 .2 0 1.2.2 1.7.1.6.3.8.2 2 0 .6-.5 1.3-.4 2.5l.6 2 .1 2q.2 1.1.4 1.2s-.4.9-.5-.3l-.4-2.6a7 7 0 0 1-.2-4l.2-1.4-.4-2.3v-1.9zm-1.7 6.4c0 .7.2 1.2 1 3l.8 3.5.1 1.2v.4l-2.7-2.5-2.3-2.7c-.8-1-2.2-3.3-2.3-5.3l-.8-1c0 .3-.4 3.9 2.1 7.3.8 1 1.6 1.9 3.4 3.2s1.6 2.1 2.3 4.2q1.1 3 1.3 4l-.2 9v.7c0-.2 1.9-7.3 2.5-8.3-.1 0-1.4-.5-1.5-3.6l-.2-2c0-.1-.3-2.4.2-4 0 0 .7-2.5.5-5l-.3-3.2-1-5.7-.6-2.2c0-.3-.3-1.2-.5-1.3l-.4 1.2-.3 1.7c-.3 1-.7 2-1 4.4l-.1 1.8z"/><path d="M527 480.6v-2.3l.1-.8a20 20 0 0 1 1-4.4l.4-1.8q.2-1.4.6-1.4.4.1.7 1.4l.1.3.1.4.5 1.8v.1l1 5.6.1 1.5.2 1.7q.2 2.5-.5 5.2-.5 1.5-.2 3.7l.3 2.1q0 2.8 1.1 3.2l.7.2-.5.5c-.4.6-1.2 3-2.3 8.1l-.7-.1v-.8l.2-9-.8-2.5-.5-1.2-.4-1.4a5 5 0 0 0-1.7-2.7q-1.7-1.4-3.5-3.2a10 10 0 0 1-2.2-7.7l.1-.6 1.3 1.6v.1q0 2.4 2.2 5l.4.6 4 4.2v-1l-.1-1q-.1-.6-.8-2.3v-.3zm2-6.7q.6 0 .7.6v1.9l.2 1.7v.3q.3.8.2 1.7l-.2.8q-.3 1-.2 1.7l.4 1.1.2.7.1 1.4v.8q0 .6.3 1l.1.2v-.2q.7-2.5.5-4.9l-.2-1.7-.1-1.5-1-5.5v-.1l-.4-1.7-.2-.5v-.3l-.1-.3-.1.5-.4 1.7-.3 1q-.5 1.8-.7 3.4v.8l-.1 1v1h-.3.3q0 .7.8 2.6l.1.3.8 2.5.1 1.2.1 1.2v1.1l-.4-.4a51 51 0 0 1-4.7-4.7l-.4-.5a10 10 0 0 1-2.5-5.5l-.2-.2q0 3.4 2.1 6.1 1.7 2 3.3 3.1a6 6 0 0 1 2 3.2l.5 1.3.4 1.2.9 2.8-.1 7a34 34 0 0 1 1.6-5.4q-1.4-.9-1.3-3.7l-.2-2q-.3-2 0-3.5l-.2.3q-.3 0-.5-.2l-.3-.8v-.4l-.3-2a7 7 0 0 1-.2-4.5l.2-1.1-.2-1.2-.2-1v-2h.1v-.7z"/><path fill="#009b3a" d="m528.7 491.4-.6-1.2a13 13 0 0 0-3.4-3.3c-2-1.8-2.8-3.8-3.8-5-.5-.5-1.4-.8-1.5-.8 0 0 1 1.7 1.2 2.3.3.8.4 1.3 1.5 2.8q2 2.1 3.5 2.7c1.3.8 3 2.5 3 2.5"/><path d="m528.7 491.4-.2.3q-1.7-1.8-3-2.4-2.5-1.4-3.6-2.8-1-1.5-1.5-2.6v-.3l-1.2-2.3-.5-.9.8.3q1 .4 1.6 1 .5.3 1.2 1.7 1.3 2.2 2.5 3.2 2.7 2 3.6 3.4l.5 1.3zm-1.3-1.6q-1-1.1-2.9-2.6-1.3-1-2.7-3.4l-1-1.6-.6-.4.7 1.5.1.3q.4 1.1 1.3 2.4a10 10 0 0 0 3.3 2.5h.1z"/><path fill="#009b3a" d="M522 477.9c0 .2.6 2.6 1.7 4.6 2 3 5.1 5.5 5.2 5.5l-1.3-4.7a16 16 0 0 0-5.7-5.5q0-.1 0 0"/><path d="M521.7 478v-.2l-.1-.1v-.2q.1-.2.3-.1h.2q4 2.3 5.7 5.7.8 1.6 1.4 5l.1.7-.6-.4q-3.4-2.6-5.2-5.7-1.2-1.9-1.8-4.7m.7.4a18 18 0 0 0 1.6 4 19 19 0 0 0 4.4 4.9q-.5-2.5-1.1-3.9a12 12 0 0 0-4.9-5m-.4-.5h.2v-.1z"/><path fill="#009b3a" d="M526.8 480c.6-2.5-1.6-5-2.6-7q.5-.1 1 1l1.7 3.2.4-2.2-3.3-4.2c-.1.5-1 .8-1 .8 0 3.5 3.6 8 3.8 8.3"/><path d="m526.8 480-.2.2c-3-3.6-4.1-6.2-4-8.7l.1-.2h.2q.8-.3.8-.6v-.7l4 4.9-.6 3q.3 1.3 0 2.2zm-.1-.8q0-1.4-1.7-4.2l-1-1.9-.2-.3.2-.2q.4-.3.8.2l.5.7.1.3.8 1.5.5 1 .2-1.3-2.8-3.6-.8.5q-.2 2.9 3.4 7.3"/><path fill="#009b3a" d="m521.2 473.3-1.1.3.4 1.5.3.4s1 2 1.6 2.3q.6.2 2.1 1.2c1.2.8 3 3.1 3.1 3.1 0 0-3-5-4.4-8.4l-.4-2-1.2-.1c0 .1.3 1.3-.4 1.7"/><path d="M521 473q.6-.3.3-1.3v-.5l1.7.1.5 2.3q1.2 3.4 4.3 8.3l-.4.5a18 18 0 0 0-3-3q-.6-.6-1.7-1l-.4-.2a7 7 0 0 1-1.8-2.5l-.2-.5-.6-2h.4zm.2.8-.8.2.3 1 .2.4q1 2 1.5 2.2l.4.2q1 .4 1.7 1l1 .7q-1.7-3.2-2.7-5.6l-.3-1.8h-.6q.1 1.4-.7 1.7l-.1-.4z"/><path fill="#009b3a" d="M509.2 468.6a19 19 0 0 0 6 5l2.3.6c.2-1 .9-1 1-1l-2.7-.7a9 9 0 0 1-5.1-4c1.8 1.7 4.1 3.8 6.2 4.2 8 .1-2.1-1.8-3.4-2.5-1-1-1.9-2.3-1.9-2.3l-2.4-.5s-1.1-.3 0 1.2"/><path d="M518.5 473.2v.4q-.7 0-.7.7v.4l-.4-.1-2.2-.7a18 18 0 0 1-6.2-5l-.6-1q0-.5.2-.8h.6l2.6.5v.1q.9 1.3 1.8 2.2.3.3 3.3 1.1 2.7.8 3.1 1.1l.3.3q0 .4-.2.5l-.5.2zm-9-4.7q.7 1 1.6 1.8 2.6 2.3 4.2 3l2 .6.1-.5-1.7-.5a9 9 0 0 1-5.3-4l.4-.6.5.5 1.4 1.2-1.2-1.6-2.3-.5h-.2zl-.2.2zm7.3 4h2l-2-.6-3-1q2 1.4 3 1.6"/><path fill="#009b3a" d="M519 476q.7.2 1-.8.2-1.2-1-1.7c-.4-.2-1-.4-1.4.5-.2 1 .8 1.7.9 1.8z"/><path d="m519 476.4-.7-.3-.6-.6q-.7-.8-.4-1.7.5-1.2 1.8-.7t1.2 2.2q-.2 1.1-1.3 1m0-.7q.6 0 .7-.5.1-.9-.7-1.3-.9-.3-1.2.4 0 .4.3.8l.5.5zv.5z"/><path fill="#009b3a" d="M519.9 470.2q-1-.1-.8 2c.4 1.4 1.8 1.1 2 1h.2q.1.2.1-1.4c-.2-1.2-.7-1.4-1.5-1.6"/><path d="M521.7 471.8q.1 1.4-.2 1.7l-.4.1h-1q-1.1-.2-1.3-1.4l.1-1.8q.3-.6 1-.5 1.7.2 1.8 1.9m-1.8-1.2q-.3 0-.4.2v1.4q0 .6.6.7h.8l.3-.1v-1q-.2-1-1.3-1.2m2.8 1.1v.3q-.4 0-.3-.5l.1-.2h.2zm0 0v-.4q.3 0 .3.4l-.1.3z"/><path fill="#009b3a" d="M522.7 471.6h.2c.4-.2.7-1.1.7-1.2.1-1.4-.6-1.8-.6-1.8-1.4-.5-1.4.8-1.4 1-.3 1.9.8 2 1 2"/><path d="M522.7 471.6v.4q-.6 0-1-.4-.7-.8-.4-2.2 0-.5.2-.8.5-.9 1.6-.4 1 .6.8 2.4-.4 1.1-.9 1.4h-.2zm0-.4h.1q.2 0 .6-.9 0-1-.5-1.4-.6-.2-.9.2l-.1.5q-.1 1 .2 1.4z"/><path fill="#009b3a" d="M516.5 463.9c0 .6.8 1.7.9 1.9l1.4 2.2 1.4 3.3.3-.2c0-.5-.7-3.5-.8-3.8q-.6-1.4-1.4-2.6c-.2-.1-.6-1-1.1-1.8 1 1.8 3.4 6.6 4.2 8.6 0 0 0-2-.2-3.2-.3-3.3-1-4.4-1.2-5q-.8-1.6-2-2.3l-2.5-1.5c-1-.4-.3.6.1 1.6q.7 1.6.8 2.8"/><path d="m520.9 471-.1.3-.5.4h-.2l-.1-.3-1.4-3.2-1.4-2.2a6 6 0 0 1-1-2.1h.2-.3l-1-3.4-.4-1q0-.5.3-.5l.6.1 1.6 1 .8.5q1.5 1 2.3 2.6v.2q.9 1.9 1.2 4.9l.2 3.3h-.6zm-4.1-7.1q0 .4.8 1.6a17 17 0 0 1 2.7 5.1q.1-.6-.4-1.8-1-2.4-3-5.7l.3-.2.2-.2.2.3.8 1.4.2.2a13 13 0 0 1 1.9 3.9l.5 1.2v-1.4a15 15 0 0 0-1.2-4.6v-.2q-.6-1.4-2-2.2l-.8-.5-1.6-1 .2.4.3.7z"/><path fill="#009b3a" d="M513 468.7c1 1.2 1.3 1.8 3.2 2.5l2 .5c.2 0 1-.4.6-1q-4.5-3-6.8-6.5s.2-.2 1.2 1.2l1.3 1.5 2.4 2.3 2 1q0-.2.3-.5c.1-.1 0-.8-1.3-2.2l-1.7-2.6-3-1.2c-1.2-.6-3-2.5-3.1-2.2a15 15 0 0 0 2.9 7.2"/><path d="M519 470.5q.3.4.2.7t-.3.5l-.5.4-2.2-.5a7 7 0 0 1-3.1-2.2l-.3-.4.2-.3-.2.3-2-3.4v-.3q-.9-1.7-1-3.8v-.3l.4-.1.3.2.9.6q1.4 1.3 2 1.5l2.9 1.1.2.2q.6 1.3 1.6 2.5.9 1 1.2 1.7l.2.6v.3q0 .2-.2.3l-.2.3zm-5.5-1.7q1.2 1.5 2.8 2l1.8.6.4-.3.1-.1a26 26 0 0 1-6.9-6.6l-.1-.3.1-.2q.5-.4 1.7 1.2l1.2 1.5 2 1.8.5.4 1.6 1q.2-.5.4-.5h-.3l-1-1.6q-1-1.2-1.8-2.5l-2.8-1-2.1-1.6-.7-.6q.3 1.6.8 3l.2.3 1.8 3.2z"/><path fill="#009b3a" d="m497.2 537.1-7 2.1-1.7.6c2.5 0 4.1 1.4 4.2 1.5l7-2.9-.3-.3c-.2-.2-1.3-1-2.2-1"/><path d="M497.2 536.8q1.1-.1 2.4 1l.2.6v.2l-7.1 3h-.1a5 5 0 0 0-4-1.5l-.2-.6 1.7-.6q6.3-2 7-2m.2.5-7 2.1h-.1q1.4.4 2.5 1.5l6.5-2.8q-1-1-1.9-.8v-.3z"/><path fill="#009b3a" d="M488.2 540v.4c.4.3.3.3 1.9.8q2.4.5 2.8 0c0-.6-3.5-1.7-4.7-1.2"/><path d="M488 539.8q.8-.6 3 0l1.5.6.5.3.2.2v.5q-.8.8-3.2.1-1.4-.4-1.8-.8-.3-.2-.3-.6zm2 1.1q2.3.6 2.7 0l-.3.1-1.4-.5q-1.9-.5-2.5-.3.3.3 1.6.7m-1.7-.6-.2-.3z"/><path fill="#009b3a" d="m478.3 510.8-.3-2.4s-.5-6.5-1-8q.1-.7-.4-1c-.7 0-.7 1.7-.8 3.8-.8 9.7 4.9 17.6 5 17.8z"/><path d="m478.6 510.8 2.6 10.2-.6.3a25 25 0 0 1-5.1-18.2v-.6l.2-2.4q.2-1.3 1-1.2.5.2.6 1.1v.3q.7 1.4 1 8zm-.6 0-.3-2.4q-.4-6.6-1-7.8v-.5l-.1-.3-.3.6-.1 2.3v.6c-.7 5.8.6 10.8 3.9 16z"/><path fill="#009b3a" d="M509 544.2s-.5-.2-.2-.8c.5-.5 1.5-.7 1.8-.7q.5 0 1.4.5t1 1.2q-.5.7-1.8.6l-1.6-.4z"/><path d="m509 544.6-.5-.3q-.3-.6 0-1.2.9-1 2-.7h.1q.8 0 1.5.4l.8.7q.6.7.3 1.2-.5.9-2 .7l-1.7-.4zm0-.4.1-.3.6.3q.5.3 1.5.4 1.1.1 1.5-.4l-.2-.2-.6-.4-1.3-.5q-1 0-1.6.6l.1.2z"/><path fill="#009b3a" d="m502.3 538.6-4.1-3.1a28 28 0 0 1-8.1-9.2 54 54 0 0 0-5.9-9.3c-.6-.7-.6-.8-.9-.5q-.2.4.1 1l2.5 4.9c1 2.2 2.6 4.8 2.7 6.1 0 .2-.5-.2-.5-.2-.2-.1-4-2.4-6-9-1.1-4.9-.7-6.1-1-8.5a33 33 0 0 0-2.2-9.3c-.1-.3-.9-2-1.1-1.8-.1.6.1 2.6.1 2.6l.2 2.4-.1 5.5c0 .5-1 3.3 3.4 9.7 0 0 .1.9-.5 0-.5-.7-3.4-4.2-4.7-9.5a32 32 0 0 1-.3-12.3 24 24 0 0 0 1.4-10.4c0-.5 0-1.6-.3-1.4l-.8 2.8-1 2.5c-.4 1-1.7 2.6-1.6 5.9.4 3.8.6 4.4 1 5.8 0 .6.3 1.7.1 1.9l-.8-1.6c0-.3-2.5-7.2-1-12.9 2-5.3 6.1-9.9 6.2-10l4.4-4q.3-.4 0-.5c-1.1.2-7.4 1-10.3 10.9 0 0 0 .4-.3.3v-.6a19 19 0 0 1 5.9-9.8c4.7-3 4.1-2.5 5.7-3.4 1-.7 1.8-1.5 3-3.6l.5-1.7q-.2-.2-.4.4c0 .1-1.3 2.2-3.3 3-2.2.3-3.5-.8-5.7 1.5-2 2.5-3.6 6-3.6 6l-.6.9c-.2-.2 0-1 0-1 .2-.3 2.9-6.3 5-7.8q3.2-1.8 5.2-3.2c1.5-1.3 4.1-4.4 5-5.5l2-2.3.5-.7c-.3-.2-1.4.3-1.5.3-.3 0-6.8 1.4-11.6 9l-1 1.4c-.4.5-.6 1.5-.7 1.5 0-.5 2.4-4.1 2.6-4.3l.4-2.7s1-4 2.6-6.8l1.4-1.6c.3-.5-.6.3-.5.1-.2.2-6.2 4.8-6.6 12.4-.1 1.4-.7 2.4-1.6 4a14 14 0 0 0-2 5.7l-.6 3.5c0 .1 0 1-.2 1-.2-.2-.2-1-.2-1s.8-5.4 1.2-7.1l.8-2.7s-.2-4.1.4-6.4c.7-1.9 2.2-4.3 2.5-4.9.1-.3.8-2 1-4.1q.1-.5-.4.7c-.7 1.9-1.3 2.4-2.5 4-.1.2-2.8 2.3-4.2 10.5 0 0 0 3-.4 7.8-.2 3.5 0 6.8.3 8.9.2 1.2.5 1.3.3 1.4l-.2-1q-.7-1.6-.8-5.2c0-4.3.3-7.7.3-7.7 0-.2 0-6.7-2-10.4-.2 0 .3 1.3.6 3 .2 2-.3 4.6-.4 5.7-.2 1-1.6 5.3-1.2 9.8 0 0 1.4 7.4 3 11.3l-2.9-8a27 27 0 0 0-2.7-5.8c-.7-.9-2.5-2.5-2.5-2.5s-1-1.1-.2.2l1.7 3.8a64 64 0 0 1 4.1 12l1 3.3s1.4 1.3 2.3 2.5q1.2 1.5 3.2 7.3c.6 1.8 1.6 3.4 1.6 3.4s-.2.5-1.2-1.6c-.8-2.2-1.9-6-4-9.4-1.8-2.4-6.1-5.4-6.2-5.5l3.6 8 3.5 5.5 3.6 6 1.4 2.2c.7 1 2.8 3.1 3 3.4q0 .2-.1-.1l-3.3-3.3c-1.2-1.1-5.4-4.2-8.6-9.8q-1-2.4-1.3-2.2c-.2.7 2 10 7 14.3l6.6 5c.7.6 2 1.5 2.6 2.2.3.5-.3.3-.3.3-3-.7-7-2-9.6-4 0 0-1.1-1.2-.2.3.7 1.2 2 3.8 4.7 5.8 2.7 1.7 6.3 3.2 7.8 3.5 1.4.3 6.2 1.2 7.2 1.6l3.3 2.5 3.3 2 1.1.9c.6.3 2.1.5 2.4.1 0-.4-.5-1-.5-1"/><path d="m476.3 516.3-.7-1.2q-1.5-2.8-3.6-6l-.8-1.4-2.6-4.2q-.7-1.1-3.7-8l-.3-.8.6.5q2.1 1.4 3.7 2.7l-.7-2.4-2-6.8-2-5.2-.4-.8-1.7-3.6q0-.4.2-.4h.2l.4.4 2.6 2.6q1.5 2.2 2.8 6l-.6-3.3a27 27 0 0 1 1.1-10l.1-.4q.5-3.5.3-5l-.5-2.6-.1-.4v-.2q0-.3.2-.2l.2.1q1.8 2.9 2.1 7.5V472c.9-5.6 2.2-8.8 4.3-10.6l.9-1.1q1-1.5 1.6-2.9l.4-.8q.1-.3.3-.1.3 0 .2.4-.2 2.1-1 4.2l-.7 1.2q-1.4 2.6-1.8 3.8-.8 2-.5 6.2v.1l-.8 2.7-.8 4.6.2-1.2q.6-3.6 2-5.8 1.4-2.6 1.5-3.8c.1-5.3 2.2-9.1 6.8-12.6l.1.2.1-.2h-.2l.1-.1.5-.2q.2 0 .3.2l-.1.4-.7.8-.7.8q-1.7 2.7-2.5 6.7l-.3 1.5c3-3.8 6-5.9 10.2-6.8q1.4-.6 1.7-.2t0 .5l-.2.3-.3.3q-.2.5-1.7 2l-.2.3-.5.7a52 52 0 0 1-4.5 4.8q-1.6 1.3-5.4 3.3-2 1-4.7 7.6v-.2q1.8-3.6 3.7-6 1.4-1.7 3.9-1.6h1.9a6 6 0 0 0 3.4-3.3l.3-.2q.2 0 .3.4.1.6-.5 2-1.5 2.5-3 3.6l-1 .6q-1.5.7-4.8 2.8-3 2-4.7 6a12 12 0 0 1 9.2-7.3h.1l.3.1.1.4q0 .3-.3.5l-4.4 4q-4.3 4.6-6.1 9.9a20 20 0 0 0 1.4 13.4v.1l-.2-1v-.3q-.6-2-1-5.6 0-2.5 1.2-5.1l.4-1 .6-1.3.5-1.1.8-3h.2l.2.1.2.4.1.9v.3q.7 4.9-1.4 10.6a27 27 0 0 0 4.3 20.5c-2.2-3.5-3-6-2.7-8.5v-2.9l.2-2.7-.2-2.4a9 9 0 0 1-.2-2.7q.1-.4.4-.2l.3.2.4.6.5 1.2q1.8 5.2 2.3 9.4v2.1q.1 3 1 6.3c1.2 4.4 3 7 5.7 8.8l.2.5q0-.7-1.3-3.3l-1.3-2.7-2.5-4.9q-.4-.9 0-1.3.1-.4.4-.2.2 0 .5.4l.3.3q2.5 2.8 5.9 9.3 2.4 4.9 8 9.1l4.1 3.1-.1.3.1-.2q.9.9.7 1.4t-1.4.3q-.9 0-1.4-.3l-1.1-.9-3.2-2q-.5-.2-1.8-1.3l-1.6-1.2q-.7-.3-5.4-1.2l-1.7-.4q-4-.9-8-3.6-2.3-1.6-4.4-5.2l-.3-.6-.4-.8.1-.5.3.1.5.4a26 26 0 0 0 9.4 4l-1.4-1.2-1-.8q-1.1-1-6.6-4.9-3.1-2.5-5.6-8.7c-1.5-4-1.8-5.7-1.4-6.1q.6-.3 1.7 2.3 2.4 4.4 7.6 8.9zm1.5-46.2 1.8-2.7.5-2.7q1-4.1 2.6-7a15 15 0 0 0-5.3 11.2q0 1.4-1.6 4.2a17 17 0 0 0-2 5.6l-.5 3.5v.5l-.1.5q-.1.3-.4.2-.6-.2-.4-1.4.7-5.4 1.2-7.1l.7-2.7q-.2-4.2.5-6.4a27 27 0 0 1 2.5-5l.8-2.4-1.4 2.3-1 1.2c-2 1.8-3.2 4.8-4 10.2l-.5 7.9a41 41 0 0 0 .6 9.8l.1.3q0 .3-.2.4h-.3v-.4l-.2-.4v-.3q-.9-2.2-.8-5.4 0-4.4.3-7.8 0-5.4-1.3-8.6l.3 1.3q.2 1.8-.3 5.3l-.1.5-.2 1q-1.3 5.2-1 8.6a62 62 0 0 0 3.1 11.3l.4.7v.4h-.3l-.2-.2-.4-.7-.4-1-2.4-6.9q-1.2-3.8-2.8-5.8-.5-.8-2.1-2.2l1.2 2.6.4.8a56 56 0 0 1 4 12l1 3.2q1.5 1.3 2.3 2.6 2 3 3.3 7.3l.8 2.3v-.2q-1.6-9-.4-12.5 2.1-5.5 1.5-10.3v-.6l-.2.4-1 3-.5 1.2-.5 1a9 9 0 0 0-1 4.8q.3 3.6.8 5.5v.2c.4 1.5.4 2 .2 2.3q-.4.1-.9-1 0-.4-.3-.8a20 20 0 0 1-1.1-13q1.9-5.5 6.3-10.2l4.3-3.9q-7.3 1.3-9.7 10.6l-.2.3q-.2.4-.5.1-.3-.2-.2-.7v-.3c1.3-4.9 3-7.9 6-9.9l4.8-2.8 1-.6q1.6-1 2.8-3.4l.1-.2a6 6 0 0 1-3 2.2q-.6.3-2 .1-2.3 0-3.5 1.4a29 29 0 0 0-3.6 6q-.6 1.1-.9 1t-.2-1l.1-.5c2-4.6 3.5-7 5-8q3.7-1.9 5.3-3.1a50 50 0 0 0 4.4-4.8l.6-.6.2-.3q1.5-1.5 1.6-2l.2-.2-.8.3c-4.9 1-8.4 3.8-11.5 9q-.4.8-1 1.3t-.6 1.4l-.1.4-.3-.3v-.3h-.1q.3-1 .7-1.6m24.4 68.7-4.2-3q-5.6-4.4-8.1-9.4a48 48 0 0 0-5.8-9.2l-.3-.3-.3-.3v.1l.2.7 1 2a43 43 0 0 1 2.7 5.5q1.4 2.8 1.4 3.7l-.1.3h-.2l-.2-.1-.3-.2c-3-2-4.8-4.7-6.1-9.3a30 30 0 0 1-1-8.5 52 52 0 0 0-2.7-10.3l-.2-.3.2 2.1.2 2.4-.1 2.8v2.8l-.1.2c-.3 2.6.7 5.3 3.4 9.2v.7q-.1.3-.4.2l-.5-.5-.3-.4a25 25 0 0 1-4-7.4l-.3-.1q-.4-.4-1-1.8l-.8-2.3a34 34 0 0 0-3.2-7q-.6-1-1.7-2l-.2-.2q-1.5-1.4-3.5-2.7l3.2 7 2.7 4.2.8 1.3 4.7 8 .2.2 3 3.3v.2h.1v.4l-.1.2-.3-.1v-.2l-1.8-1.8-1.5-1.5-1-.8q-5.2-4.5-7.7-9.1l-1-2q-.4.1 1.6 5.3 2.4 5.9 5.3 8.4 5.5 3.9 6.7 5 .3 0 1 .7l1.7 1.5.2.6-.3.3h-.5a28 28 0 0 1-9.4-4l.2.3q2 3.5 4.3 5.1 3.8 2.6 7.7 3.5l1.8.4q4.8.9 5.4 1.3.6.2 1.8 1.2l1.6 1.3 3.3 2 1.1.8q.3.3 1.2.3h.9zm-21-19v.3-.1zm-8.2-32.7"/><path fill="#009b3a" d="M534 492c.5.5.8 2.4.8 2.5v-1.8l-.3-2.8-.5.4c-.6.5-.9 1.4-.9 1.4z"/><path d="m533.9 492.4-.7-.3h-.6l.2-.5q.4-1.2 1-1.7l1-.6v.6l.2 2.8v1.8h-.5q-.3-1.9-.6-2.1m.2-.7.3.3-.1-1.4h-.1l-.6.8zl-.1.3z"/><path fill="#1a1a1a" d="M8 195.3c170.8-85.3 341-54.5 513.3-28C676.5 191 833.4 211.8 992 132.7v672c-170.8 85.3-341 54.5-513.3 28C323.5 809 166.6 788.1 8 867.2zm31.3 19.3v604.5c306.5-128.2 611.1 96 921.5-33.7V180.9C654.2 309 349.5 84.9 39.3 214.6" opacity=".2"/></svg>