<svg xmlns="http://www.w3.org/2000/svg" viewBox="0 0 1000 1000"><path fill="#0038a8" d="M8 195c171-85 341-54 513-28 155 24 312 45 471-34v672c-171 85-341 54-513 28-155-24-312-45-471 34z"/><path fill="#fff" d="M8 195c171-85 341-54 513-28 155 24 312 45 471-34v448c-171 85-341 54-513 28-155-24-312-45-471 34z"/><path fill="#d52b1e" d="M8 195c171-85 341-54 513-28 155 24 312 45 471-34v224c-171 85-341 54-513 28-155-24-312-45-471 34z"/><path fill="#fff" d="M569 510c-1 48-31 81-69 75s-68-48-69-95c1-48 31-81 69-75s68 48 69 95"/><path d="M570 511q0 36-20 58a53 53 0 0 1-50 18q-29-4-50-33-20-28-20-65 0-36 20-58t50-18 50 33 20 65m-3-1q0-34-20-62a72 72 0 0 0-47-31q-28-4-47 17a80 80 0 0 0-20 56q0 34 20 62 19 27 47 31t47-17q21-21 20-56"/><path fill="#009b3a" d="m533 492-1 2q0-1 0 0l1 3q2 0 2-3 1-1-2-2"/><path d="M531 494v-2l2-1q3 1 2 4v1q-1 2-2 1-2 0-2-3m2-2v1l1 2h1v-2zm-76 35v-1h-1v3zm6 1-8 4-2-5-1-2v-2l1-1h3l1 1-1-1h1v-1l1-3 2 4-2 3v2l3-2zm-13-10-3-8 2-1 2 6 1-1-1-5h1l2 5 1-1-1-5 2-1 2 9zm0-17-1-1h-1v2zm-3 4-1-6v-3l2-1 2 1 1 3 1 2h3v4zm-1-21 1-4 5 2h1l1 2 1 1v4l-1 2-1 1h-2l-5-2v-3l5 2 1-1 1-1v-1l-2-1zm9-8v-4h-1v1l-1 2zm-3-2v-3h-1l-1 1v1zm-4 1 1-6 1-1h2l1 1v1l2-1h1l1 1 1 2v1l-1 2-1 5zm4-13 1-3 6 5 2-4 2 2-4 7zm6-10 1-2 7 8-2 2zm12-4 2-1v5l-3 2h-2q-2-1-2-3l-2-4 2-3 2-1 3 1-2 2h-2v2l1 2 1 1h1l1-1zm8-5-2-3 1 4zm2 2-3 1v2l-2 1-1-11 3-1 6 8-2 2zm10-10 1 6h2v-5l-2-1zm-3-2h6l2 1 1 2v5l-1 2h-1l-1 1h-4zm12 0 7 2v2l-4-1v1l4 1v3l-4-1-1 2 5 1v2l-7-2zm11 3 3 1-2 8 4 2v2l-7-3zm15 14 2 1v-2l-1-1zm0-6 3 4 2 2-1 3-1 1-3-1-1-1-2 3-2-2zm9 18 2-3-3 1zm-1 2-2-3-1 1-2-3 4-2 4-1 2 2-4 10-2-2zm8 6 1 1v1h2l-1-2v-1zm-6 0 8-5 2 5 1 2v2l-1 1-1 1-1-1-1-1v1l-1 2-1 2-2-3 2-3v-2l-3 2zm11 16 2-2-3-1zm-2 1-1-4h-1l-1-3 9 1 1 4-7 6-1-3zm4 12h2l1 5h-4l-1-2-1-3v-3l2-2 2-1 2 1 2 2 1 3v3l-1 1-1 1-1-3 1-1v-1l-1-2h-4v2l1 2zm6 17-1 3-5-1-1-1-1-1-1-2v-4l1-1 1-1h2l5 1v3l-5-1h-1l-1 1v2l1 1zm-8 11 3 1-3-3zm-2 0 1-4-1-1 1-3 7 8-1 4-10-1 1-4zm5 10-2 3h-3l1 4-1 3-3-8-3-2 1-3 4 3zm9-28q0 30-17 48a44 44 0 0 1-41 15q-24-4-41-27a90 90 0 0 1-17-54q0-30 17-48 18-19 41-15 24 4 41 27 17 24 17 54m-1 0q0-30-17-53a61 61 0 0 0-40-27q-24-3-40 15a68 68 0 0 0-17 47q0 30 17 53 16 23 40 27 24 3 40-15 17-18 17-47m-14-3q0 22-12 37-13 13-31 11-18-3-31-21-12-18-12-40t12-36 31-11 31 20q12 18 12 40m-1 0q0-21-12-39-13-17-30-20-17-2-30 11-12 14-12 35 0 23 12 39 13 18 30 20 17 3 30-11 12-13 12-35"/><path fill="#fedf00" d="m500 481 4 13 10 2-8 7 3 13-9-9-9 6 3-12-8-10 10 2z"/><path d="m500 481 4 13 11 2-9 7 3 14-9-10-9 7 3-13-9-10 11 2 4-13zm0 1-3 11-11-1 8 9-2 12 8-6 9 8-3-12 8-7-11-2z"/><path fill="#009b3a" d="m520 539-2 1-3-1h-1zm-8-4 1-4 2-3 1-1-4 7zl-1 1zm11 4-2-1-4-1h-3l-2 1-1-1 2-1 1-1 3-7 1-4-3 2-2 3-1 1-2 5-4 3q-1 0 0 0l1 2 3-1 2 1 3 1h6z"/><path d="M512 537h5l4 1 2 1h1l-1 1-2 1-2 1h-2l-2-1h-3l-2-2-2 1h-1l-1-1-1-1v-1h1l4-2q0-4 2-5l1-2 1-3 2-1h2q1 1-1 4l-1 4-2 3-1 2zm11 2-2-1-4-1-3 1h-3v-1l2-1v-1l2-3 2-4 1-3-3 1-2 3-1 1-2 5q0 2-4 3v1h4l3 1h2l2 1h2l2-1zm-12-4 1-1 1-3v-1l2-3 1-1 1 1-4 7zl-1 1v-2m9 5h-6l-1-1q-1 0 0 0h7z"/><path fill="#009b3a" d="m513 543-6-4-4-3h-4l1 1 2 1 1 2 5 3 1 1z"/><path d="M513 543h-4v1l-1-2-5-3-1-2-2-1-2-1h1l2-1 2 1 3 2 1 1zm-1 0-5-4h-1q-1-2-3-2l-2-1h-1l2 2 1 1 5 4 1 1z"/><path fill="#009b3a" d="m518 530 4-5v1l-1 1-1 1zl-1 2-2 2-1 1zm-4 6-2 2 5-2 2-2 4-5q2-1-1-7l-1 1-1 2-1 1z"/><path d="m518 526 2-2 1-1 1-1v-1l1 1 1 7-4 5-1 1-2 1-5 2h-1v-1h1l1-1 1-1zm-4 10 4-1 2-2v-1h1l3-4-1-6v1l-2 1-1 1zm4-6 2-3 2-3v3h-1v1l-1 1zl-1 1v2l-1 1-1 2-1-1z"/><path fill="#009b3a" d="m528 535-2-1-4-1-2 1-2 2h4l3-1 2 1h-10l4 2h2l3-1 1-1zq1-1 0 0"/><path d="m518 536 1-2 3-1h3l1 1h2l1 1h-1v2h-2l-3 1h-2l-4-1v-1zm10-1-2-1h-6l-1 1h8zh-8l2 1h2l3-1z"/><path fill="#009b3a" d="m530 521 2-3 1-1q1 0 0 0l-2 1-2 5-1 2h-1zm7 0h-1l-4 3-2 1-3 2-1 1h1l5-1 2-3 1-1q-1 4-5 5h-4v-1l3-1 3-2 1-2 1-4 2-3h-1l-3 1q-2 0-2 2l-1 1-1 3-1 1 1-6v-2l-1-2v-1q-2 2-1 6v8l-2 2-4 5 4-1q0 1 0 0-1-2 1-3h6l3-3 2-3z"/><path d="m534 522 2-1 1-1v2l-1 1-2 3v1l-3 2h-6l-1 2v2l-5 1 1-1 4-6 1-1 1-1v-2h-1l1-6v-6h1v2l1 2v3l-1 4v-1l2-2 1-1v-1l2-1 1-1h2l1-1v1l-2 4zm-8 6 1-1 2-1 1-1h1l2-2 1-1v-2l1-2 1-3v1h-3l-1 2h-1l-1 2-1 2-1 1-1-1 1-5 1-2-1-2-1-1v15h-1l-1 1-3 5 3-1-1-2 1-1zm3-5-1 2h-1v-1q2 0 2-3h1l1-4h3l-1 1-2 1zm7-2-3 2-3 2h-1l-2 1h4l3-4 1-1v2l1-1v-2m-4 6-1 1-3 1h-1 4zm1-1 1-2v1zm-7 2"/><path fill="#009b3a" d="m526 532-1-2-2 1z"/><path d="m526 532-1-1v-2l2-1 1 1zm0 0v-2h-1l-1 1z"/><path fill="#009b3a" d="m524 523-1 3 1 1 2-2v-2z"/><path d="m523 523 3-1 1 2-1 2-2 1-1-1zm1 1v2l1-1 1-1-1-1z"/><path fill="#009b3a" d="m527 511-1-2-1 3v3l-1 2v4l1 2h1l1-2v-3l-1-4z"/><path d="m527 511-1 2v7l-1 2v1-1l-1 1v-1l-1-2v-6l1-3h-1l2-3 2 2zm-1 0-1-1-1 2v3l-1 3 1 3v2h1l1-2-1-3v-4z"/><path fill="#009b3a" d="M528 513h1v-2l-2-1q0 4 1 3"/><path d="M528 513v-3l1-1 2 2-1 2zm0 0v-1l-1-1z"/><path fill="#009b3a" d="m531 510-2 3-1 1v3l-1 4v1-1l3-3 2-2h-1q-2-4 1-6z"/><path d="m527 521 1-4v-4l1-1 2-3v1-1h1l1 1-1 1-1 2 1 2v1l-2 2-1 2zh-2zm3-8-1 1-1 1v4l1-1 2-2zl1-2z"/><path fill="#009b3a" d="M531 513q0 3 2 2v-3z"/><path d="M531 513q0-2 2-1l1 1-1 2h-2zm0 0v1h1v1l1-1v-2z"/><path fill="#009b3a" d="m528 506 2 4-1-2v-3l-2-4v-4l-2-2v4l1 3z"/><path d="M527 506v-2l-1-2-1-3v-5 1l2 1v5l2 2v1l1 3v4zm1 0 2 4h-1v-5l-1-1-1-3v-4l-2-1v3l1 3 1 2zm-1-9"/><path fill="#009b3a" d="m538 493-1 1-3 3-3 5-1 8h1v-3l2-3 1-3 2-4-5 13h1l4-5 2-5z"/><path d="m531 510 1-9 3-4 3-3v-1h1v7l-2 5v1l-3 4zm6-16-3 3-3 5v8-3l2-3v-1l1-2 1-2 1-3v-1l1 2-3 5-3 8h1l3-5h1l1-6z"/><path fill="#009b3a" d="m528 493-1-2zv7l2 3 1 6v-14z"/><path d="m528 493 1 4v14l-1-5v-1h-1l-1-3v-10zm0 0v7l1 3 1 1v-8z"/><path fill="#009b3a" d="m532 487 1-3v-4 3l-1 3zv1l-1 2v1h1l1-2v-13l-1 3v5l-1 6z"/><path d="M531 487v-6l1-3v-1 1l1 3-1 6v6h-1v1l-1 1v-5zm1 3v1-2l1-4v-6 6l-1 1v3m1-10v-2zv3-2z"/><path fill="#009b3a" d="M529 474v4l1 2-1 3 1 2v3q0 1 0 0l-1-3zm-2 7 1 3 1 3v2l-2-3-3-3-2-5-1-1 2 8 4 3 2 4 1 4v10l2-9-1-3v-6l1-5-1-4-1-5v-2l-1-2v1l-1 2-1 5z"/><path d="M527 481v-3l1-5v-2l1-1 1 1v3h1v5l1 2v2l-1 5v6q0 3 2 3v1l-3 8v-1l-1-12v-1l-1-1q0-2-2-3l-3-3-2-8v-1l1 2 2 5 1 1 4 4v-2l-1-2v-1zm2-7v12l1 1v-9zl-1-2v-1 2zv7h-1 1v2h1v4l1 1v1h-1l-5-5-2-6h-1l2 6 4 3 2 3v2l1 1 1 3-1 7 2-6-1-3-1-2 1-4h-1q0 2 0 0v-1l-1-2v-11"/><path fill="#009b3a" d="m529 491-3-3-4-5-2-1 2 2 1 3 4 3z"/><path d="m529 491-2-3h-1l-3-3-2-2-1-3v-1 1l2 1 1 1 3 4 3 3zm-2-1-2-3-3-3-1-2h-1l1 1v1l1 2 4 3z"/><path fill="#009b3a" d="m522 478 2 5 5 5-1-5q-4-5-6-5"/><path d="m522 478 6 6 1 5v1-1q-4-2-6-5zm0 0 2 4 4 5-1-4zm0 0"/><path fill="#009b3a" d="m527 480-3-7 1 1 2 3v-2l-3-4-1 1c0 3 4 8 4 8"/><path d="M527 480q-5-5-4-8v-1h1v-1l4 5-1 3zm0-1-2-4-1-2h1v1l1 1 1 1v-1l-3-4-1 1q0 3 4 7"/><path fill="#009b3a" d="m521 473 1 1v1l1 2 3 1 3 3-5-8v-2h-1z"/><path d="M521 473v-2h2v3l5 8h-1l-3-3-1-1h-1l-1-2-1-1v-2zm0 1 2 2v1l2 1h1l-3-5v-2h-1z"/><path fill="#009b3a" d="m509 469 6 5h2l1-1-2-1q-3 0-5-3l6 4c8 0-2-2-4-3l-1-2-3-1z"/><path d="M518 473v1h-1l-2-1-6-5-1-1 1-1 3 1 2 2 3 1 3 1v1zm-9-5 2 2 4 3 2 1v-1h-1l-6-4 1-1v1l2 1-2-2zm8 4h2zl-3-1z"/><path fill="#009b3a" d="m519 476 1-1-1-2-1 1z"/><path d="m519 476-1-2 2-1 1 2zm0 0-1-1h-1z"/><path fill="#009b3a" d="m520 470-1 2q1 2 2 1v-1z"/><path d="M522 472v1l-1 1h-1l-1-2v-2h1zm-2-1v1l1 1h1v-1z"/><path fill="#009b3a" d="m523 472 1-2-1-1q-1-1-1 1-1 2 1 2"/><path d="M523 472h-1l-1-3h1l1-1 1 3zm0-1v-1h-1v2z"/><path fill="#009b3a" d="m516 464 1 2 2 2 1 3h1l-1-4-2-2-1-2q3 4 4 9v-4l-1-5-2-2-3-2 1 2z"/><path d="M521 471v-1l-1-3-2-2-1-2-1-3v-2h1l1 1 1 1 2 2 2 5zm-4-7 1 1v1l2 5v-2zv1l1 1 1 3 1 2v-2l-1-4v-1l-2-2h-1l-2-1h1v1z"/><path fill="#009b3a" d="m513 469 3 2 2 1 1-1-7-7 1 1 1 2 3 2 2 1-1-3-2-2-3-1-3-2z"/><path d="M519 471h-3l-3-3-2-3v-1l-1-3v-1h1v1l2 1 3 2 2 2 1 2h1v1zm-5-2 2 2h3q-6-3-7-7l1 1 2 2 2 1v1l2 1v-1l-1-1-2-3-3-1-2-1-1-1 1 3z"/><path fill="#009b3a" d="m497 537-7 2-2 1 5 1 7-3h-1z"/><path d="m497 537 3 1v1l-7 3-4-2h-1l2-1zm0 0-7 3 3 1 6-3z"/><path fill="#009b3a" d="m488 540 2 1h3z"/><path d="M488 540h5v1l-3 1zm2 1h3-1zh-2zm-2-1"/><path fill="#009b3a" d="M478 511v-3l-1-8v-1l-1 4c-1 10 5 18 5 18z"/><path d="m479 511 2 10q-7-8-6-18l1-3 1-1v1l1 8zm-1 0v-3l-1-7v-1h-1v3q0 9 4 16z"/><path fill="#009b3a" d="M509 544h3l1 1-2 1z"/><path d="M509 545v-1l2-1 1 1h1v2h-4m0-1 1 1 2-1h-1l-1-1z"/><path fill="#009b3a" d="m502 539-4-3q-5-3-8-10l-6-9-1-1v2l3 4 3 7-1-1q-1 1-6-9l-1-8-2-10-1-1v10q-1 1 3 10 1 1 0 0-2-1-5-10v-12q2-3 1-10v-2l-1 3-1 3-1 6 1 5v2l-1-1c0-1-3-8-1-13l6-10 4-4 1-1c-2 0-8 1-11 11 0-1 2-7 6-10l6-3 2-4 1-2v1l-4 3q-2-1-5 1l-4 6-1 1v-1l5-8 6-3 5-5 2-3h-1q-3-2-12 9l-1 1-1 2 3-4v-3l3-7 1-2v1s-6 4-7 12l-1 4q-2 2-2 6l-1 3v1-1l1-7 1-3v-6l3-5 1-4-1 1-2 4q-2-1-5 10v17l1 1-1-1v-13s0-6-2-10v9l-1 9 3 12q1 1 0 0l-3-8-3-6-2-3v1l1 3 4 12 1 4 3 2 3 8 1 3-1-2-4-9-6-6 4 8 3 6 4 6 1 2 3 4v-1l-3-3q-3-1-9-10l-1-2c0 1 2 10 7 14l7 5 2 3-10-4q-1-1 0 0l5 6 7 4 8 1 3 3 3 2h1z"/><path d="m476 516-4-6-1-1-2-4-4-8v-1l4 3-1-2-4-12v-1l-2-4h1l2 3q2 1 3 6v-4l1-10v-8l2 7v-1q1-8 4-11l1-1 2-3 1-1v1l-1 4-1 1-2 4v6l-1 3-1 5v-1l2-6 2-4q0-7 7-13v1-1h1l-1 1-1 1-2 7-1 1q4-4 10-6l2-1v2l-2 2h-1l-4 5-6 4-4 7 3-6 4-2h2l4-3v2l-3 4h-1l-5 3q-3 2-5 6 3-6 9-7h1v1l-5 4q-4 4-6 10a19 19 0 0 0 1 13h1l-1-1-1-6 2-5v-2l1-1 1-3v1h1v1q1 4-2 10a27 27 0 0 0 4 21q-3-5-2-9v-11 1h1v1l2 12 1 6q2 7 6 9l-1-3-1-2-3-5v-2h1v1l6 9 8 9 4 3v1-1l1 2h-3l-1-1-5-3-1-2-6-1h-2l-7-4-5-5v-1h-1l1-1v1l10 4-2-2h-1l-6-5-6-9-1-6 1 2zm2-46 2-3v-2l3-7q-5 4-6 11l-1 4-2 6-1 3v1l-1-1 2-7v-3l1-6 2-5 1-3-1 3-1 1q-3 3-4 10l-1 8 1 9v2l-1-1v-1l-1-5 1-8-2-8 1 1-1 5v2l-1 8 3 12h1v1h-1v-1l-1-1-2-7-3-6-2-2 1 2 1 1 4 12 1 4 2 2 3 7 1 3v-13l1-10v-1l-1 4-1 1v1l-1 5 1 5v2h-1v-1q-4-9-1-13 2-6 6-11l4-3q-7 1-10 10v1-1q1-7 6-10l4-3 1-1 3-3q-1 2-3 2h-2l-3 1-4 6-1 1v-1l5-8 5-3 5-5v-1h1l1-2q-7 2-12 9zv1h-1zm24 69-4-3q-5-4-8-10l-6-9q-1 0 0 0l1 2 2 6 2 4h-1q-4-3-6-10l-1-8-2-9-1-1v-1 11q0 3 4 9l-1 1v-1h-1l-4-8-1-2-1-2-3-7-2-2-3-3 3 7 3 4v2l5 8 3 3v1l-2-2-1-2h-1q-5-4-8-10l-1-2 2 6 5 8 7 5 1 1 1 1v1q-7-1-10-4v1l5 5 7 3 2 1 6 1 1 1 2 1 3 2 2 1zm-29-52"/><path fill="#009b3a" d="m534 492 1 2zv-3h-1z"/><path d="m534 492 1-2 1-1v5h-1zm0 0v-1z"/></svg>