<svg xmlns="http://www.w3.org/2000/svg" viewBox="0 0 1000 1000"><path fill="#fff" d="M8 195c171-85 341-54 513-28 155 24 312 45 471-34v672c-171 85-341 54-513 28-155-24-312-45-471 34z"/><path fill="#0c4076" d="M8 195c171-85 341-54 513-28 155 24 312 45 471-34v448c-171 85-341 54-513 28-155-24-312-45-471 34z"/><path fill="#c6363c" d="M8 195c171-85 341-54 513-28 155 24 312 45 471-34v224c-171 85-341 54-513 28-155-24-312-45-471 34z"/><path fill="#21231e" d="m286 338 3-1 64 1-4 1zm4 23-5-23q2 1 2 5zm69 3h-4l-65-2q2-2 5-1 32 0 64 3m69 11h-4l-65-11h5zm6-23-5 23v-5l4-18zm-69-12h4q33 5 64 12h-4q-31-8-64-12m-6-1h4q2-1 3 1-2-1 0 0zm-6 0v-1h6q-1 2-3 1zm89 0-2 3q-4 4-6 10-2-1 1-4zm-14-5c1-1 0 3 1 4q2 5 7 3l5-2q0 2-3 2-5 4-9-2zm-2 0h2zm-19-7 2 4q3 7 10 8 4-2 7-6 0 3-2 4-5 5-11 1-5-5-6-11m-21-4 2 4q3 8 9 8 6-3 10-9 0 2-3 5-3 6-11 4-5-4-8-12zm-25-2 3 4q5 7 12 5 6-2 9-7 1 2-2 4-6 6-15 3-5-4-7-9m-1-2h1q0 1 0 0zm-1 0 1-1q1 1-1 1m0 0c-2-1 1-1 0 0q-1 0 0 0m-1 0q-1 1 0 0 2-1 0 0-1-1 0 0m-24-1 2 3q6 7 14 7 6-3 8-8l-2 4q-6 6-13 4zm-22-1 3 4q3 6 11 6 4-2 7-9l-1 5q-4 6-11 5-6-3-9-11m-19 4 3 3q4 5 9 2 4-3 7-9l-2 5q-3 7-11 6-4-3-6-7m-2 0q-1-1 2-1zm-13 2 3 2q5 4 9 1l1-5v4q-3 6-8 2zm8 14c-1 2-2-2-2-3l-7-10q2 0 3 2zm73 2h-4l-69-1q1-2 5-1 35 0 68 2m74 12h-5l-69-12h6zm1 1"/><path fill="#edb92e" d="m433 352 9-13q-13 8-14-5h-2q-10 14-19-7-13 18-21-4-15 18-25-2v-2h-3v1q-10 18-25-2-8 21-21-1-9 19-19 4h-2q-1 12-14 2l9 15q37-1 73 1zm-57 1-17 7-16-10 16-7zm-23-15h-67l4 23 69 3 70 11 4-23q-48-10-68-12v-1h-6zm90-5-2-1q-9 18-11-1l2-1 1-1q-3-3-4-1-1-3-4-2v1q2 1 2 3-15 17-13-7l-7-3q-12 24-19 0 0-2 2-2 1 1 1-2-3-2-5 1-3-4-5-2v2l3 3c-4 14-22 13-20-9h-5l-4-1c2 23-16 20-20 5l2-3q2 0 1-2-3-2-5 2-2-4-5-2l1 2 2 2q-6 24-19-3l-7 1q2 23-13 5 0-2 2-2v-2q-3-1-4 2-3-3-4-1t1 2l2 2q-2 18-11-2l-3 1 3 9q12 15 14-4 15 19 19-1c9 17 22 10 23 0 4 15 24 17 25 0 2 17 22 19 26 5 1 11 14 20 23 5q3 20 19 5 1 18 14 5z"/><path fill="#21231e" d="M441 331q5 3 0 1zm-11 0 1 5q0 4 4 4 4-3 5-8 2 2-1 4-1 5-6 5-4-4-3-10m2-1h-1q1-2 2-1m1-1v1q-2 0 0-1m-4-1 2-1q2 0 2 2zm-4-2q1-2 3 0 2 3 0 2 0-2-3-2m0 1q0 2-1-1 1-1 1 1m2 3-1-2-1-1q2 1 2 3m-13-7v4q0 5 2 9 5 0 8-4c1-1 4-4 2-1q-4 5-9 6-4-4-4-9zm-7-3 3 1 4 2-4-1zm-20 0 2 5q3 6 7 7 6-4 10-11v2q-3 7-10 10-6-2-7-9zm3-2-1 2q-2 1-1-1 0-2 2-1m0-1q3 0 0 2zm-5 0 3-2 3 1h-3zm-4-2 3-1q3 2 1 3-1-3-4-2m3 5-2-2-1-2zm-20-8v4q0 9 8 13 9 0 11-10 2 3-1 5-5 8-14 3-6-7-4-16zm-5-1h3q3 0 2 1zm-4-1h2l2 1zm-20 4 2 5q6 9 14 6 5-6 3-15 2 2 1 6 1 9-8 11-10-2-12-12zm3-2-2 1q-1 3-1 1 1-2 3-2m0-1v2zm-5 1q0-2 2-3l3 1h-3zm-5-2 3-1q2 1 2 3-2-3-5-2m1 2-2-1h1zm3 3-2-2-1-1q2-1 3 3m-20-4 2 4q4 6 9 10 5-2 7-7l1-2q-1 7-7 9-7-2-9-8zm-7 1 3-1h4l-4 1zm-13 5 3 3q3 4 7 5 4-4 3-9v-3q2 7-1 12-5 2-8-4zm2-3-1 2h-1zm0-1v2zm-4 2 1-2h3q-3-1-4 2m-4 0q0-2 2-2 3 1 1 2zm1 1-2-1zm2 2-1-1q-2-1-1-2zm-11-1c0-2 2 2 2 3l5 6q4-2 3-8c2-2 1 2 1 3q-1 5-5 6-5-5-6-11zm-3-1q6 1 1 1zm4 9q-3 0-3-4-2-3 0-4 0 5 3 8m13-3v4q-1 7-6 6-5-2-8-6l4 3q3 4 8 1zm19-1v4q-2 7-8 7-7-4-11-9l4 3q5 6 11 4 4-3 4-9m23 0-1 4c-2 6-10 9-15 5q-4-3-7-9l3 4q6 9 14 5 5-3 5-9zm26 0-1 4q-5 12-17 7-6-3-9-11l3 5c5 7 15 9 21 2zm26 6-2 3c-4 7-15 8-21 1q-4-4-4-10l2 5c3 8 12 11 18 8q5-2 6-8zm22 4-2 3q-7 8-15 3-6-4-6-11l2 5q6 10 14 6 4-3 6-7zm19 5-2 2q-6 6-13 4-4-5-5-11 2 1 2 4 2 6 8 7 6-2 10-7zm13 5q1 2-2 3-4 5-9 0-3-3-2-9l1 6q1 5 6 5zm3-8v4l-2 4 1-4zm0 0"/><path fill="#edb92e" d="M359 342q-36-4-74-2c-5 0-1-5 3-4q73-4 146 15c6 3 0 5-4 3q-35-9-71-12"/><path fill="#0c4076" d="M359 223q12 2 13 15-1 11-13 11-11-2-12-14 1-11 12-12"/><path fill="#edb92e" d="M362 208q2 1 2-2l-2-2q0-3-3-3l-2 2-2 2q0 3 2 3v5l-4-1-2-2-2 2q-3 0-3 2l3 3 2 2 2-2h4v16l5 1v-16h4q0 3 2 3l2-2q3 0 2-2 1-3-2-3l-2-2q-2 0-2 2l-4-1z"/><path fill="#21231e" d="m364 206-2 2v-1zm-3-2 2 3h-1zm-2-2 1-1q2 0 2 3l-1-1zm-2 2 2-2v1zm-2 1q-1 0 0 0 0-2 2-2v1zm3 3q-2 0-2-3v1zm-1 5v-5l1 1zm-4-1h4l-1 1zm-2-2 2 2h-1zm-2 2q0-3 3-3l-1 1zm-2 2q0-2 3-1h-1zm2 3q-1-1 0 0-3 0-3-3l1 1zm2 2-2-2h1zm2-2q-1 3-3 2zm4 1-4-1h4zm0 15v-16l1 1zm5 1h-5l1-1zm0-16v16l-1-1zm4 1-4-1h4zm2 1-1 1q-2 0-2-3l1 1zm2-2-3 2v-1zm2-1q-1 3-3 2l1-1zm-2-3q2 0 0 0 3 0 3 3l-1-1zm-2-2 2 3h-1zm-2 2q0-3 3-3v1zm-4-1h4l-1 1zm0-5v5l-1-1zm10 30v-1q-1-8-7-11l-6-2 1-1a15 15 0 0 1 12 15m-13 12 1-1a11 11 0 0 0 12-11q0 8-7 11zm-12-15q1 6 7 11l5 2v1a15 15 0 0 1-12-15m12-12a11 11 0 0 0-12 11v-1q0-7 7-10z"/><path fill="#edb92e" d="M372 235v4l-25-2v-5z"/><path fill="#21231e" d="m372 238-1-2h1zm0 2q-2 0 0 0v-1zm-13-2 12 2v1zm-12-1q1 0 0 0h11v1zm0-2v2zm0-3q1-1 0 0v2zm12 1-12-1v-1zm13 2q1 0 0 0l-12-1 1-1zm0 0"/><path fill="#edb92e" d="M350 243q-4-1-3 4 2 14-1 31-2 7-1 9 6 5 5 6 3 3 9 2 7 2 9 0-1-3 6-5 1-2-1-9-3-18-1-32 1-5-3-4c-5 3-14 2-19-2"/><path fill="#21231e" d="m347 247-1-1 2-4 2 1h-2l-1 2zm0 31-1-1q2-12 1-24l-1-6 1 1zm-2 8 1-5 1-3v2zm6 7-1-1-5-5h1l5 5zm8 2h-7l-1-2q1-1 2 1l5 1zm9 0h-6l-3-1h9m6-6-1 1-4 4h-1l2-3zm-2-8 1 1 2 7-1 1v-2zm0-32 1 2q-2 12-1 25l1 5-1-2-1-23zm-3-3 1-1q2-1 2 2l1 2-1-1q1-1-2-3zm-19-2h1q7 3 15 2l3-1q1 1-1 1a22 22 0 0 1-18-2"/><path fill="#edb92e" d="M273 298q-2-5 0-8l-1-2c-9-14-10-15-3-20 6-5 19-9 28-12l6-5c-19 1-38 8-48 17-5 5 1 14 9 28q7 7 9 2"/><path fill="#21231e" d="m272 290 1 1v7q-1 1-1-1zm0-2v2l-1-1zm-3-21-1 2q-3 2-3 6l5 9 2 4-1-1-7-12q-1-3 2-5zm28-11q1 1-1 1l-27 11q-1-1 1-2l20-8zm6-4h-1l-4 5v-2l4-4zm-48 16q-1-1 1-2 12-8 25-12l21-3q1 1-1 1-20 1-36 9zm9 28q-1 1-1-1l-10-18q-2-4 1-9v9zm9 2-1 1q-2 3-4 1l-5-3h2l5 3q2 0 3-2m0 0"/><path fill="#edb92e" d="m270 299-1-3v-6l-6-10-2-8q2-4 6-7l10-6q12-4 19-4l-3 3q-15 4-24 10c-7 5-6 6 3 20l1 2v8q-1 2-3 1"/><path fill="#21231e" d="M268 296q1-1 1 1l1 2h-1zm1-6v5l-1-1zm-6-10 6 9h-2zm-2-8q-1 3 1 6h-1zm6-7-4 6-1-2zm10-6-1 1-9 5 1-1zm19-4q1-1 0 0-10 0-19 5-1-1 1-1 9-4 18-5zm-3 2 3-3q1 1-1 2zm-24 11q-1-1 1-1 8-5 17-8l6-2q1 1-1 1zm3 20-1-1-6-11v-5l4-4q1 1-1 2-3 2-3 5l3 8zm1 2v-1h1zm0 9-1-1v-8l1 1zm-3 0q-1 1 0 0l3-1v1zm0 1q0-2 0 0m0-1"/><path fill="#edb92e" d="m349 243-1-1-1 4v2q-37-4-42 7-3 10 10 28v2q-3 3-2 7-7 4-15 0l-4-4-2-1-7-24c-7-25 54-22 64-21"/><path fill="#21231e" d="M349 244v-3 1h1zm0 0q0 1 0 0m-2 3-1-2 2-2-1 1zm0 2 1-1zm-42 7 1-2q6-5 14-6h27q-1 2-3 1-14-2-29 1-6 1-10 6m10 28-2-2q-7-9-9-19v-7 2q1 8 4 14zm0 3v-3zm-2 6-1-1 2-6v2zm-16 0 3 1q7 2 13-1l-2 1q-7 3-14-1m-4-4q2-1 2 1l3 3q-1 1-1-1zm-1-1h1v1zm-7-24 1 2 7 22q-2-1-2-3zm64-21h-1q-20-2-41 2-10 1-18 7-5 4-4 9 1 2-1 3-1-6 3-11 6-5 14-8a133 133 0 0 1 48-3zm1 0"/><path fill="#fff" d="M303 283q5 0 5 5 0 4-5 4-4 0-4-5 0-3 4-4"/><path fill="#21231e" d="M308 288q1-3-2-4l-2-1v-1a6 6 0 0 1 5 6m-5 5v-1l4-2v-2h1l-2 4zm-5-6 2 4 2 1v1q-3 0-4-3zm5-5v1a4 4 0 0 0-4 4h-1q0-3 3-4z"/><path fill="#fff" d="M264 292q3 1 4 4 0 5-4 5-4-1-5-5 1-3 5-4"/><path fill="#21231e" d="m268 296-2-3-2-1v-1l4 3zm-4 5a4 4 0 0 0 4-4q1 3-2 4zm-5-5 2 4h2v1l-4-2zm5-5v1l-4 2v2h-1l2-4z"/><path fill="#fff" d="M260 284q4 0 4 4t-4 5-5-5 5-4"/><path fill="#21231e" d="M264 288q1-3-2-4h-1v-1l4 2zm-4 5 3-2v-2h1l-2 4zm-5-5q-1 3 2 4h2v1l-4-2zm5-5a4 4 0 0 0-4 4h-1l2-4z"/><path fill="#fff" d="M256 275q3 1 4 5 0 4-4 4t-5-4 5-5"/><path fill="#21231e" d="M260 280q0-3-3-4h-1v-1l4 2zm-4 5v-1l3-2 1-2q1 3-2 4zm-5-5 2 3 2 1v1q-3 0-4-3zm5-5a4 4 0 0 0-4 4h-1l2-4z"/><path fill="#edb92e" d="M332 294q3 2 1 5h-2q-3-3 1-5"/><path fill="#21231e" d="M334 299h-1v-4l-1-1v-1l1 1 1 2zm-3 0 1 1 1-1h1l-1 1h-2zm1-6h-1v5l-1-4z"/><path fill="#fff" d="M332 296c6 1 4 10 3 13q-2 5-5 0c-1-3-4-12 2-13"/><path fill="#21231e" d="M336 309h-1l1-4-1-6-2-2-1-1 3 1 2 4-1 7zm-6 0 2 2 1-1 1-1h1l-2 3-2-1zm2-13-2 2-1 3 2 8h-1l-1-4-1-6 2-3zm0 0"/><path fill="#edb92e" d="M285 298q3 0 2 5h-2q-2-2 0-5"/><path fill="#21231e" d="m288 303-1-3-1-1v-1h1l1 2 1 3zm-3 0h1v-1l1 1-1 1zm0-6-1 1v1l1 3h1-1l-1-1-1-3 1-1z"/><path fill="#fff" d="M286 300c5-1 6 9 6 12q-1 4-5 1c-2-2-7-11-1-13"/><path fill="#21231e" d="m292 312-2-10-2-2h-2 3l3 3zm-5 1 2 1 2-1v-1h1l-1 3h-2zm-2-13-2 2v4l3 7-4-9 1-4zm1 0"/><path fill="#edb92e" d="M346 247q-18-4-38 2-15 7 4 35-2 4-2 9h3q-1-4 2-7v-2q-13-18-10-28 5-11 42-7z"/><path fill="#21231e" d="m308 249 2-1q17-6 36-2l-1 1q-19-3-37 2m4 36-1-1q-7-10-10-20-1-7 3-12 1-3 4-3 1 1-1 1-4 3-6 9 0 8 5 16zm-2 7q0 2-1 0l2-8v2zm3 1h-2q-1-1 1-1zm1-7v7l-1-2q-1-3 1-5m0-2q1-1 1 1v1-1zm-10-28v2l3 12 8 14-2-1-9-18zm42-7q2 0 0 0h-29q-6 1-11 6-1 2-2 1 5-6 11-7 14-3 28-1zm0-2q1-1 1 1v1zm0-1-1 1zm0 0"/><path fill="#fff" d="M285 246q5 1 5 5 0 5-5 5-4-1-4-5t4-5"/><path fill="#21231e" d="m290 251-3-4h-2v-1q3 0 5 3zm-5 5a4 4 0 0 0 5-4l-2 4zm-4-5q0 3 3 4h1v1l-4-2zm4-5a4 4 0 0 0-4 4q0-3 2-4z"/><path fill="#fff" d="M294 244q4 0 5 5-1 3-5 4-4 0-4-5 0-3 4-4"/><path fill="#21231e" d="m299 249-2-4-2-1v-1l4 3zm-5 4a4 4 0 0 0 4-4h1l-2 4zm-5-5h1l2 4 2 1-4-2zm5-5v1a4 4 0 0 0-4 4h-1q0-3 3-4z"/><path fill="#edb92e" d="m295 248 2 2q-10 5-10 12l7 24 8 6v1q0 3-4 2l-4-6-2-1-7-24q-2-12 10-16"/><path fill="#21231e" d="m297 250-1-2h1zm-9 12-1-1q0-5 4-8l6-4-1 2q-5 1-8 7zm7 23h-1l-7-23h1zm7 8-7-6h2zm0 0q0 1 0 0m-4 2 1-1h3v-1 2zm-5-6h2l4 5h-1zm-1-1h1zm-7-24 7 23-1-1zm11-16h-1q-6 3-9 8-2 3-1 8l-1-1q0-6 2-9zm-1-1"/><path fill="#edb92e" d="M267 302v1l-5 1q4-4 5-2"/><path fill="#21231e" d="M267 303v-1h1zm-5 0h5v1h-5zm6-1h-3l-2 2v-1l2-2h4zm0-1"/><path fill="#edb92e" d="m267 298 2 1 3-1q4 0 1 4l1 5v3l-1 1h-2q-4-3-4-7c-2-3-6-4 0-6"/><path fill="#21231e" d="M269 299h-2v-1h1zm2-1h-3zm3 4 1-3-1-1-1 1-1-1h3v4m0 5v-5l1 1zm0 4v-2l-1-2h1l1 3zm-1 0 2-1v1zm-2 0h1zm0-1q2 1 0 0m-5-6 3 5 1 1v1l-3-3zm1-6-3 1h1l2 3v1h-1l-2-3v-2l2-1zm0 1v-1zm0-1"/><path fill="#edb92e" d="M268 298h5q-1 7-6 4-3-1-5 2l-2-2c-1-4 5-5 8-4"/><path fill="#21231e" d="m273 298-3 1h-2v-1zm-6 4 2 1 2-1v-3h1l-1 4-2 1zm-5 2 2-1 4-1-1 1h-3zm-2-2 1 1v1h-1zm8-4-5-1-2 1-1 2 1 1h-1v-2l2-2zm0 0q1 0 0 0"/><path fill="#fff" d="M342 236q5 2 5 5 0 5-5 4-4 0-4-5 1-3 4-4"/><path fill="#21231e" d="m347 241-3-4h-2v-1a6 6 0 0 1 5 5m-5 5 4-2 1-2-2 4zm-4-6 3 4h1v1l-4-3zm4-4a4 4 0 0 0-4 4v-1l2-4z"/><path fill="#fff" d="M333 235q5 2 5 5 0 5-5 5-3-2-4-5 1-4 4-5"/><path fill="#21231e" d="M338 240q1-2-2-4h-2v-1a6 6 0 0 1 5 5m-5 5q3 0 4-2v-2h1l-2 5zm-5-5h1l3 4h1v1l-4-3zm5-5a4 4 0 0 0-4 4h-1l3-4z"/><path fill="#fff" d="M324 236q4 1 5 4-1 5-5 5-4-1-4-5 1-4 4-4"/><path fill="#21231e" d="m329 241-2-4h-2v-1q3 0 4 3zm-5 4a4 4 0 0 0 4-4l1 1-2 4zm-5-5h1l2 4h2v1l-4-2zm5-5a4 4 0 0 0-4 4h-1q0-3 3-4z"/><path fill="#fff" d="M316 237q4 0 4 5 0 4-4 4t-5-5q1-4 5-4"/><path fill="#21231e" d="M321 242h-1l-2-4-2-1v-1q3 0 4 3zm-5 4a4 4 0 0 0 4-4h1l-3 4zm-5-5q-1 3 2 4l2 1a5 5 0 0 1-5-5m5-5v1a4 4 0 0 0-4 4h-1l2-4z"/><path fill="#fff" d="M260 259q5 1 5 4 0 5-5 5-4 0-4-5 0-3 4-4"/><path fill="#21231e" d="m265 263-3-4h-2v-1a5 5 0 0 1 5 5m-5 5 4-3 1-2-2 5zm-4-5q0 3 3 4l1 1-4-2zm4-5v1a4 4 0 0 0-4 4q0-3 2-4z"/><path fill="#fff" d="M268 254q4 1 5 4-1 5-5 5t-4-5q0-3 4-4"/><path fill="#21231e" d="m273 258-2-3-2-1v-1a5 5 0 0 1 5 5m-5 5 4-3v-2h1l-2 5zm-5-5 2 4 2 1-4-2zm5-5v1a4 4 0 0 0-4 4h-1q0-3 3-4z"/><path fill="#fff" d="M277 250q4 1 4 4 0 5-4 5t-5-5q1-4 5-4"/><path fill="#21231e" d="M282 254h-1l-2-4h-2v-1q3 0 4 3zm-5 5a4 4 0 0 0 4-4h1q0 3-3 5zm-5-5 2 4h2v1l-4-2zm5-5-4 2v2h-1l2-4z"/><path fill="#fff" d="M254 266q5 0 5 5 0 4-5 4-4 0-4-4 1-5 4-5"/><path fill="#21231e" d="M259 271q0-3-3-4h-2v-1l5 2zm-5 5 4-2 1-2-2 4zm-4-5q0 3 3 4h1v1l-4-2zm4-5a4 4 0 0 0-4 4q0-3 2-4z"/><path fill="#edb92e" d="m306 350 16-9 17 9-16 8z"/><path fill="#21231e" d="m322 341-16 9v-1zm17 9-17-9zm0-1h-1zm-16 9 16-9v1zm-17-9 17 9v1zm0 1"/><path fill="#c6363c" d="M322 344q7 2 8 6 0 4-7 5-7-1-8-6 1-5 7-5"/><path fill="#21231e" d="m330 350-3-4-5-1v-1l7 2zm-7 5q3 1 5-2l2-2q1 2-2 3zm-8-6 3 4 5 1v1l-7-2zm7-5q-3-1-5 2l-2 2 2-3q2-2 5-2"/><path fill="#edb92e" d="m287 342 17 7-14 10c-4-2-7-14-3-17"/><path fill="#21231e" d="m304 350-17-8q0-1 0 0zm-14 8 14-9v1l-14 9zm-3-16q-1 0 0 0l-1 4 3 9 2 2-1 1-2-3-2-9 1-5zm0 0q0-1 0 0m0 0q0-1 0 0"/><path fill="#0c4076" d="M287 345q6 0 8 5-1 5-7 5-4-1-5-4 0-5 4-6"/><path fill="#21231e" d="M295 350q-1-3-3-3-2-2-5-1v-1l6 1zm-7 6 5-2 2-3-1 4zm-5-5 2 4h2v1l-3-2zm4-6-3 1v4h-1l1-5z"/><path fill="#fff" d="M341 353q3 0 3 3 0 2-3 2-2 0-2-3z"/><path fill="#21231e" d="m344 356-1-2-1-1 3 1zm-3 2 2-2h1l-1 2zm-2-3 2 2v1l-2-1zm2-2-1 2h-1l1-2z"/><path fill="#fff" d="m306 353 2 2q0 2-2 2l-2-2z"/><path fill="#21231e" d="M309 355h-1l-1-2h-1v-1l2 2zm-3 3 2-2h1l-2 2zm-3-3 1 2h1v1l-2-1zm3-3v1l-2 2h-1l1-2z"/><path fill="#fff" d="m305 341 2 3-2 2q-3 0-3-2 0-3 3-3"/><path fill="#21231e" d="m307 344-2-2v-1l2 1zm-2 3v-1l2-2-1 2zm-3-3 1 2h1v1l-3-2zm3-3-2 1v1h-1l1-3z"/><path fill="#fff" d="m341 342 3 3q0 2-3 2l-2-2q0-3 2-3"/><path fill="#21231e" d="m344 345-1-2h-1v-1l3 1zm-3 3v-1l2-2h1l-1 2zm-2-3 2 2v1l-2-2zm2-3-2 2 1-3z"/><path fill="#edb92e" d="M278 317c2 0 5 4 6 4q0-5-4-12-4-1-3-6-2-1-2 1v5l-1 1q5 2 4 7"/><path fill="#21231e" d="m283 321-2-2-2-1-1-1h1l2 1zm1 0q-1 0 0 0m-5-12 1 1 3 8v4h-1v-4zm-3-6h1l1 4 2 1-1 1-2-2zm-1 1 2-2 1 1h-1zm0 5-1-5h1zm0 1 1-1zm3 7-1-4-3-2 1-1 3 3zm1 0h-1zm-1 0"/><path fill="#edb92e" d="m277 303-1 3 1 2 2 2 2 2 1 3q0 5 2 6h1v-2l-1-3v-4q0-3-3-5-2 1-3-2z"/><path fill="#21231e" d="M277 306h-1v-3h1zm0 2-1-2h1zm3 2-2-2zm1 2-2-2h1zm1 3v-3zm2 5-1 1-1-2-1-4h1l1 5zm1 1h-2l1-1zm-1-2h1l1 2h-1zm-1-3h1l1 3h-1zm0-2v2h-1zm1-2-1 2h-1zm-3-4v-1l3 2 1 3h-1l-2-4zm-4-3h1l2 2h1v1l-3-1zm0-2 1 2h-1zm-1 0"/><path fill="#edb92e" d="M270 309h5c4 1 5 8 1 10l-2-2-3-6z"/><path fill="#21231e" d="m272 308-1 1-1-1zm3 0h-3v-1zm1 11 2-3q1-2-1-5l-2-2v-1l3 3 1 6q-1 2-3 2m-3-2 1 2 1 1-2-1zm-3-5 3 5-1 1zm0-3v1h-1zm1 1"/><path fill="#edb92e" d="M272 310c5-1 7 6 4 8q-3 0-3-4c-1-2-4-2-1-4"/><path fill="#21231e" d="m276 318 2-1v-3l-2-2-2-1h-1l2-1 3 2 1 4zm-3-3 1 3h1l1 1h-2zm-1-5-2 1v1l2 2v1l-2-2-1-2z"/><path fill="#0c4076" d="M273 311q4 2 2 5-3 1-3-2-2-1 1-3"/><path fill="#21231e" d="m275 316 1-1-1-2-1-1-1-1h1l2 1v4zm-4-1 1 2h2-2zm2-4-1 2v1l-1 1v-3zm0 0"/><path fill="#fff" d="M300 275q4 0 4 5 0 4-4 4-5 0-5-5 0-3 5-4"/><path fill="#21231e" d="M305 280h-1l-2-4-2-1v-1l4 3zm-5 5v-1l3-2 1-2h1q0 3-3 4zm-5-6q0 4 3 4l2 1v1q-3 0-5-3zm5-5v1l-4 2-1 2q0-3 2-4z"/><path fill="#fff" d="M296 267q5 0 5 5 0 4-5 4-3 0-4-5 1-4 4-4"/><path fill="#21231e" d="m301 272-3-4-2-1v-1a5 5 0 0 1 5 6m-5 5v-1l4-2 1-2-2 4zm-5-6 2 4 2 1v1l-4-3zm5-5-4 2v2h-1q0-3 3-4z"/><path fill="#fff" d="M307 239q5 0 5 5 0 4-5 4-3 0-4-5 1-3 4-4"/><path fill="#21231e" d="M312 244q0-3-2-4l-2-1 4 2zm-5 5v-1l4-2v-2h1l-2 4zm-5-6h1q0 3 3 4l1 1v1l-4-3zm5-4a4 4 0 0 0-4 4h-1l3-4z"/><path fill="#fff" d="M300 242q4 0 4 5t-4 5-5-5 5-5"/><path fill="#21231e" d="m305 247-2-4h-2v-1l4 2zm-5 5a4 4 0 0 0 4-4h1q0 3-3 4zm-5-5 2 4h2v1l-4-2zm5-5a4 4 0 0 0-4 4h-1l2-5z"/><path fill="#fff" d="M294 249q5 0 5 5 0 4-5 4-3 0-4-5 1-3 4-4"/><path fill="#21231e" d="m299 254-3-4-2-1v-1q3 0 5 3zm-5 5v-1l4-2 1-2-2 4zm-5-6h1l2 4 2 1v1q-3 0-4-3zm5-5v1l-4 2v2h-1q0-3 3-4z"/><path fill="#fff" d="M293 257q5 1 5 5 0 5-5 5-3 0-4-5 1-5 4-5"/><path fill="#21231e" d="M298 262q0-3-3-4h-2v-1l5 2zm-5 5q3 0 4-2l1-2-2 5zm-5-5h1q0 3 3 4h1v1l-4-2zm5-5a4 4 0 0 0-4 4h-1q0-3 3-4z"/><path fill="#edb92e" d="M354 292q-3-6-6-7 4-15 2-39l-2-3-1 4v22q0 9-3 16l3 3 4 4z"/><path fill="#21231e" d="m347 284 1 1q4 3 6 7h-1zm2-38 1 2a107 107 0 0 1-2 37l-1-2q4-14 3-31zm-1-3q0-1 0 0 3 2 2 3t-1-1zm-1 4-1-1 1-3h1l-1 2zm1 23-1-2-1-21 1 1zm-3 15-1-1 3-15 1 2zm2 3q-2-1-2-3h1q0 2 2 3m3 4q1 2 0 0l-3-4h1zm2 0v-1q-1 0 0 0zm2 0q-1 1 0 0l-1 1h-1l1-1zq-1 2 0 0m-1 0q1 1 0 0"/><path fill="#edb92e" d="m342 304 2-1v-3q0-5 4-1l4 4 2 2 1 4-1 3-2 1-4 4q-3 3-4-2v-3l-2-1-2-2v-4z"/><path fill="#21231e" d="m344 303-1-1zm0-3 1 2-1 1zm5-1-3-1q-2-1-2 1v1l1-3zm3 4-1-1-3-3 2 1zm3 2-2-1h2zm0 4-1-3 1-1zm-1 0q2 0 0 0m1 3v-3l1 2zm-3 2 1-2h2zm-3 3q-1-1 1-2l2-2q1 1-1 2zm-5-2 1 2h3q1 1-1 1h-3zm0-3 1 2-1 1zm-2-1 2 1h-1zm-2-2 2 2h-1zm0-2 1 2q-1 1-1-1zm0-2 1 2zm2-2q1 1-1 2h-1zm13 6-7 2q2-2 7-3m0 0q-4 0-7-4 2 4 7 5"/><path fill="#edb92e" d="m344 298 3 2q1 2-1 5l-1 3 1 2q2 4 1 5l-3 2v-5l-2-1-2-2v-4l2-1 2-1z"/><path fill="#21231e" d="m347 300-2-1v-1zm-1 5 2-3-1-2h1v3zm-1 3 1-3h1zm1 2-1-3h1zm1 6 1-2-2-2 1-1 2 4zm-3 1 2-1 1 1zm0-2v2h-1zm0-3 1 3h-1zm-2-1 2 1h-2zm-2-2 1 2zm0-2v2h-1zm0-2v1h-1zm2-2v1l-1 2-1-1zm2 0-1 1h-1v-1zm0-3-1 3zm0-1 1 1h-1zm-73 10q-2-2-1-5z"/><path fill="#edb92e" d="m307 290 2 2h2q5 0 3 5l-3 5-1 3h-5l-2-2-5-4q-4-5 0-5l3-1v-2l1-2 2-1h1z"/><path fill="#21231e" d="m309 292-1-2 1-1v1zm2 0h-2v-1zm3 6 1-4h-3v-1h3l1 4zm-3 4 2-5 1 1zm-1 3 1-2zm-3 0h3v1zm0 0q0-1 0 0 0-1 0 0m-3 0 2-1v1zm-2-2 2 2h-1zm-4-4 4 3-1 1zm0-5q1 0 0 0l-1 1v2l2 2h-1l-2-3 1-2zm2-1h-3 1zm1-2v2h-1zm1-2-1 2zm0 0q1 0 0 0m2-1h-2zm2 0h-1v-1zm2 2-2-1 1-1zm-1 15-4-8zm1 0 2-8q-2 2-2 8"/><path fill="#edb92e" d="m313 292-1 3q-1 2-5 0l-2-1-2 1q-3 3-4 2l-2-3h1l3-1v-2l1-2 2-1h1l2 2 2 2z"/><path fill="#21231e" d="m312 296 1-3zm-5-1q1 2 3 2l1-1v1l-2 1zm-2-1h3l-1 1zm-2 1 3-1zm-4 2h2l1-2h1l-2 3zm-2-3 2 3zm0 0q-1 0 0 0m1 0v-1zm2-1h-3zm1-2v3l-1-1zm1-2-1 2zm0 0q0-1 0 0m2-1h-2zm2 0h-1v-1zm2 2-2-2 1-1zm1 2-2-2v-1h1zm2 0h-2v-1zm2 0h-2v-1zm0 0"/><path fill="#edb92e" d="M294 306v-4q-2-4 2-1l2 1 2 2 3 2 1 3 1 3-1 1-2 4-2 2-1-4-2-2-1-1-2-1-1-2v-2z"/><path fill="#21231e" d="M293 302h1l1 3-1-1zm4-2-2-1v2h-1v-2l1-1zm2 2-2-2 1-1zm2 2-2-1 1-1zm2 1-2-2h1zm1 4-2-3 1-1zm0 0q-1 0 0 0-1-1 0 0 0-1 0 0 0 2 0 0m1 3-1-2zm-1 2 1-1zm-1 3 1-4 1 1zm-3 2 1-1h1q1 0 0 0zm-2-4 1 3v1h-1l-1-3zm-1-2 1 2h-1zm-1-1 2 1h-1zm-2-1 1 2zm-1-2v2zm0-2 1 2h-1zm1-1-1 1zm0 0h-1zm10 4-2 1-2 2 1-3zm0-1v-1l-4-1-3-2z"/><path fill="#edb92e" d="m293 300 2 1 1 3v3l1 2 1 3 3 5-2 1v-1l-2-3-1-2-2-1q-2-2-1-5 2-1 1-4z"/><path fill="#21231e" d="m296 301-2-2zm1 3-1-2 1-1zm0 3h-1v-3h1zm0 2v-2h1zm1 3-2-3h1zm3 5v-2l-2-3 3 4zm-2 2 1-1h1zm-1-2 1 1-1 1zm-1-3 1 3h-1zm-1-1 2 2h-1zm-2-1 2 1h-2m-1-6v3l1 2v1l-2-4zm0-4h1v3l-1 1 1-2zm0-2v2h-1zm0 0q1 0 0 0m0 0"/><path fill="#edb92e" d="m324 311-1 1v3q1 4-3 1l-4-3-3-2v-3l-1-3 2-2 2-4q4-4 5 1v3l2 1 2 1 1 2v2z"/><path fill="#21231e" d="m323 312 1-1h1zm0 3v-3zm-4 2 3 1v-2q0-1 0 0v2h-4m-4-4 4 3-1 1zm-2-2 1 1 1 1h-1zm0-2v-1zl1 2h-1zm-1-1h1q0 1 0 0zm0-3 1 3h-1zm1-2-2 2zm3-5 1 1-3 4q-1 0 0 0zm5 2v-2h-2l-1 1-1-1 3-1 2 1zm1 3-1-3h1zm1 0-2-1h2m2 2-2-2h1zm1 2v-1l1-1zm0 3v-2h1zm-1 1 1-2 1 1zm-11-3v-1l5-4zm0 1 7 3q-3-3-7-3"/><path fill="#edb92e" d="m323 316-2-1v-7l-1-3-2-5 2-2 1 2v3l2 1 2 1 1 2v2l-2 2-1 1z"/><path fill="#21231e" d="m321 315 2 1v1zm0-5v5l-1-3zm0-2-1 2zm-1-3 2 3h-1zm-2-5v3l1 2-2-4zm3-2-2 1h-1zm0 2v-2h1zm1 3-1-3h1zm1 0v1l-1-1h-1zm2 2-2-2v-1zm1 2v-2zm0 3v-2h1zm-1 1 1-2 1 1zm-2 1 1-1h1l-1 1zm0 3v-3zm0 2v-2zm0-1q0 2 0 0m1 0"/><path fill="#edb92e" d="M307 303q5 0 6 6 1 5-4 5-4 0-6-5 0-6 4-6"/><path fill="#21231e" d="M314 309q0-4-5-6h-1v-1l5 3zm-5 6v-1l3-2 1-3h1q1 3-2 5zm-6-6q2 5 5 6h1v1l-5-4zm4-7v1l-3 2-1 3v1q-1-3 1-5z"/><path fill="#edb92e" d="M307 304q4 1 5 5 0 4-3 4t-5-4q0-5 3-5"/><path fill="#21231e" d="M312 309q-1-3-4-4l-1-1 4 2zm-3 4 2-1 1-2q1 1-1 3zm-5-4q0 2 3 3h1v1l-4-2zm3-5-3 1v3h-1l1-4z"/><path fill="#0c4076" d="m308 306 3 3-2 2q-3 0-3-2 0-3 2-3"/><path fill="#21231e" d="m311 309-2-3 2 1zm-2 3v-1l1-1v-1h1l-1 2zm-4-3h1l2 2h1v1q-2 0-3-2zm2-3h1l-2 1v2h-1zm0 0"/><path fill="#fff" d="M359 282q5 0 5 5t-5 5q-3-1-5-6 2-4 5-4"/><path fill="#21231e" d="m365 287-2-4-3-1v-1l5 3zm-6 5q3 0 5-3v-2h1q0 3-3 5zm-5-6 2 5 2 1-4-3zm5-5v1a4 4 0 0 0-4 4h-1q0-3 3-4z"/><path fill="#fff" d="M359 273q5 0 5 5t-5 5q-3-1-5-6 2-4 5-4"/><path fill="#21231e" d="m365 278-3-4-2-1v-1l5 3zm-6 5 5-2v-3h1q0 4-3 5zm-5-6 2 5 2 1-4-3zm5-5v1a4 4 0 0 0-4 4h-1q0-3 3-4z"/><path fill="#fff" d="M359 264q5 1 5 6t-5 5q-3-1-5-6 2-5 5-5"/><path fill="#21231e" d="M365 270q0-3-3-5h-2v-1q3 0 5 3zm-6 5 5-2v-2h1q0 3-3 4zm-5-6 2 4 2 1v1l-4-3zm5-5a4 4 0 0 0-4 4h-1q0-3 3-5z"/><path fill="#fff" d="M359 240q5 0 5 5t-5 5q-3-1-5-6 2-4 5-4"/><path fill="#21231e" d="m365 246-3-4-2-1v-1l5 3zm-6 4 5-2v-3l1 1q0 3-3 4zm-5-6 2 5 2 1-4-3zm5-5v1a4 4 0 0 0-4 4h-1q0-3 3-4z"/><path fill="#fff" d="M359 247q5 2 5 6 0 5-5 5-3-2-5-6 2-5 5-5"/><path fill="#21231e" d="M365 253q0-3-3-5h-2v-1q3 0 5 3zm-6 5q3 1 5-2v-2h1q0 3-3 5zm-5-6 2 5h2v1l-4-3zm5-5a4 4 0 0 0-4 4h-1q0-3 3-4z"/><path fill="#fff" d="M359 256q5 0 5 5t-5 5q-3-2-5-6 2-4 5-4"/><path fill="#21231e" d="M365 261q0-3-3-4l-2-1v-1l5 3zm-6 5q3 0 5-3v-2h1q0 3-3 5zm-5-6 2 5 2 1-4-3zm5-5-4 2v2h-1q0-3 3-4z"/><path fill="#edb92e" d="m363 291 1 2 2 1q6 0 2 5l-4 3-1 2h-7l-1-3-4-4q-3-5 1-4l3-1 1-1 2-2h1l2 1z"/><path fill="#21231e" d="m364 293-1-2v-1zm2 1q1 0 0 0h-2v-1zm2 5 1-3-1-1h-1q-1 0 0 0h2v3zm-3 3 4-4v1zm-2 3v-1l1-2v1zm-4-1h3v1zm-3 0 3 1q1 0 0 0zm-2-3h1l1 2v1zm-4-4h1l4 4h-1zm2-5h-2v2l1 2h-1l-1-4 2-1zm3 0h-3l1-1zm1-1-1 2v-1zm1-2-2 1v-1zm2 0h-1l-1-1zm3 0h-2l1-1zm1 3-1-1 1-1zm-4 12q0-4-3-8z"/><path fill="#edb92e" d="m368 294-1 3q-2 1-5-2l-3-1h-2q-3 3-5 1l-1-3 1 1 3-1 1-1 2-2h1l2 1 2 1 1 2 2 1z"/><path fill="#21231e" d="m367 297 1-2h1zm-5-2 3 2 2-1v1h-3zm-3-1 3 1zm-2 1h2zm-5 0h3l2-1v1l-3 1zm-1-3 1 3zm-1 0q1 0 0 0m2 0h-1v-1zm3 0h-3v-1zm1-1-1 2v-2zm1-2-2 1zm2 0h-1l-1-1zm3 0h-2v-1zm1 2-2-2 1-1zm1 2-1-2v-1 1zm0 1q-1-2 0 0m2 0h-3v-1zm3 0h-1q0 1 0 0h-2zm-1 0q2 0 0 0m0 0"/><path fill="#edb92e" d="M359 303q6 1 6 7 0 5-6 5-5-1-5-6 0-6 5-6"/><path fill="#21231e" d="M360 304q0-4 3-7z"/><path fill="#edb92e" d="M446 315v-9l1-2c9-12 9-13 3-19s-19-12-29-17l-5-6c19 4 38 15 48 25 5 6-1 14-9 27q-7 5-9 1"/><path fill="#21231e" d="M446 306v8h1zm1-1v1zm3-21q-1 2 1 2l3 6-5 9-2 3 1-1q4-4 6-10 1-3-1-6zm-28-16q-1 1 1 1l27 16-1-2q-9-7-20-11zm-6-5h1l4 6q1-1-1-2zm0-1q-1 0 0 0m48 25-1-2q-12-10-25-16l-22-7 2 1a112 112 0 0 1 46 24m-9 27q1 1 1-1l9-16q2-4 0-9-1-2-1 0 3 5 1 8zm-9 0 1 2q1 3 4 1l4-2q-1-2-1 0l-6 2zm0 0"/><path fill="#edb92e" d="m449 316 1-3v-6l6-9q2-4 1-8l-5-8-10-7-19-8 3 3q15 7 24 15c6 6 6 7-3 19l-1 2v9z"/><path fill="#21231e" d="m450 313-1 1v2h1zm0-6q-1-1-1 1l1 5 1-1zm6-9-6 8h2zm2-8-1 6h1zm-6-8 1 1 4 7v-1zm-10-7 1 1 9 7-1-2zm-20-8 1 1q10 2 19 8l-1-2q-9-5-18-7zm4 3-3-3v1zm24 15-1-1q-8-7-17-11l-6-3q-1 1 1 1zm-3 19 6-10v-6l-4-4q-1 1 1 2l3 6-4 7zm-1 2 1-1h-1zm0 9-1-8v9m3 1q0 1 0 0l-3-1v1zm0 1q0-1 0 0m0-1"/><path fill="#edb92e" d="m370 245 1 4v2q36 4 42 16 3 10-10 26v2q3 3 2 7 8 5 15 3l4-3 2-1 7-23c6-23-54-32-64-33"/><path fill="#21231e" d="M370 246v-1l-1-2 1 2-1-1zm0 0q0 2 0 0m2 3q1 1 1-1l-2-3v1zm0 3 1-1-1-2zm42 15-1-2q-6-7-14-9-13-4-27-5l3 1q14 1 29 7 7 3 10 8m-10 26q1 1 2-2 6-7 9-17v-7 2q0 7-4 13zm0 2v-2zm2 7q1 1 1-1l-2-6v2zm16 4-3-1q-6 2-13-3l2 2q6 3 13 2m3-4h-1l-3 3q1 1 1-1zm2-1h-1l-1 1zm7-23q-1-1-1 2l-7 21 2-2zm-64-33h1q20 3 41 10 10 4 18 11 4 4 4 10v2q2-5-2-11l-14-10a157 157 0 0 0-48-13zm-1 0"/><path fill="#fff" d="M416 294q-5 0-5 4 0 5 5 5 3 1 4-4 0-5-4-5"/><path fill="#21231e" d="M411 298q0-3 3-4h2v-1l-5 2zm5 6q-3 0-4-3l-1-2 2 5zm5-5h-1l-2 4h-2v1l4-2zm-5-6v1l3 3 1 2h1q0-3-3-4z"/><path fill="#fff" d="M455 310q-4-1-4 3 1 4 4 6 4 0 5-4-1-5-5-5"/><path fill="#21231e" d="m451 313 2-3h2v-1l-4 2zm4 6q-2 0-3-3l-1-2q0 3 2 5zm5-4-2 3h-2v1q3 1 4-2zm-5-6q3 0 4 3v2h1l-2-5z"/><path fill="#fff" d="M459 302q-3 0-4 4 1 4 4 5 4 0 5-4-1-3-5-5"/><path fill="#21231e" d="M455 306q0-3 3-3l1-1q-2-1-4 1zm4 5-3-3-1-2q0 3 2 4zm5-4q0 3-2 3l-2 1q3 1 4-1zm-5-5 4 3v2h1l-2-4z"/><path fill="#fff" d="M463 294q-4 1-4 4 0 5 4 5t5-4q-1-3-5-5"/><path fill="#21231e" d="m459 298 2-3h2v-1l-4 2zm4 6v-1l-3-3-1-2q0 3 2 5zm5-4-2 4h-2v1l4-2zm-5-6 4 2v2l1 1-2-5z"/><path fill="#edb92e" d="M387 299q-3 2-1 5 0 3 2 1 1-3-1-6"/><path fill="#21231e" d="M385 305v-4h1v-1h-1l-1 2zm3 0h-1v-1l-1 1 1 1zm-1-6h1v2l-1 3h1l1-2v-2z"/><path fill="#fff" d="M387 302c-6-1-5 9-3 12q1 5 4 1c2-3 5-12-1-13"/><path fill="#21231e" d="m383 314-1-10q1-2 3-2h1v-1l-3 1-2 3zm6 1-2 1h-1l-1-2h-1l2 3h2zm-2-13 2 2 1 3-1 7-1 1h1l1-4 1-6-2-3zm0-1v1z"/><path fill="#edb92e" d="M434 312c-2-1-3 3-3 4q1 3 2 1 3-2 1-5"/><path fill="#21231e" d="M431 317v-1l1-2 1-1-1-1-1 2zm3 1h-1v-1l-1 1 1 1h2m0-6 1 1v2l-2 2 1 1 1-2 1-2z"/><path fill="#fff" d="M433 314c-5-2-6 8-6 11q1 5 5 2c2-2 7-10 1-13"/><path fill="#21231e" d="m427 325 1-9 3-2 1 1v-1h-2q-2 0-3 3zm5 2-3 1-1-1v-2h-1l1 3h2zm1-13 2 2v4l-3 6 3-3 1-5-1-4zm0 0"/><path fill="#edb92e" d="M373 249q18 0 38 10 15 10-4 35l2 9-3-1-2-7v-2q13-16 10-26-6-12-42-16z"/><path fill="#21231e" d="M410 260q1-1-1-2-18-9-37-9l2 1q20 0 36 10m-3 34 1-1q7-7 10-18 1-7-3-12l-4-4q-1 1 1 2 5 3 6 9-1 9-5 15zm2 8-2-8q-2 0 0 2zm-3 0h3l-1-1zm-1-7v7q1 1 1-1zm0-2q-1-1-2 1l1 1v-1zm10-26q-2 0-1 2 1 6-2 11l-8 13 2-1q5-7 9-17zm-42-15q-2-1 0 0 15 1 29 6 6 3 11 8l1 1q-3-7-11-9-13-5-27-7zm0-2h-1v1zm-1-1"/><path fill="#fff" d="M433 261q-4 0-4 4 1 3 4 5 5 0 5-4 0-5-5-5"/><path fill="#21231e" d="M429 265q0-3 3-4h1v-1l-4 2zm4 5-3-3-1-2 2 4zm5-4q-1 3-3 3l-2 1q3 1 5-1zm-5-6v1q3 0 4 3l1 2-2-5z"/><path fill="#fff" d="M425 256q-5 0-5 5 0 3 5 5 3 0 4-4-1-4-4-6"/><path fill="#21231e" d="M420 260q0-3 2-4h2v-1l-4 2zm5 6-4-2v-2l-1-1 2 5zm5-4h-1l-2 3h-2v1q2 1 4-2zm-5-6q2 0 3 3l1 2h1l-3-5z"/><path fill="#edb92e" d="m424 260-2 2q10 7 9 14l-7 22-7 6v1q1 3 3 2l5-5 2-1 7-23q3-10-10-18"/><path fill="#21231e" d="m422 262 1-1h-1zm9 14-4-9-6-4 1 1q5 3 8 9zm-7 22h1l7-22h-1zm-7 6 7-5h-2zm-1 1h1v-1zm5 2-1-1h-3v-1 1l3 1zm4-5-4 4h1zm2-1h-1l1 1zm7-23-7 22 1-1zm-11-18q6 3 9 9l1 8 1-1q1-4-3-9-3-5-8-8zm1 0"/><path fill="#edb92e" d="m451 319 1 2 5 1q-4-5-6-3"/><path fill="#21231e" d="M452 320v-1h-1zm5 1-5-1v1l5 1zm-6-2h1l2 1 2 2v-1l-2-2-3-1zm0 0"/><path fill="#edb92e" d="M452 316h-2l-3-1q-4-2-2 4v8h1q2 2 2 0 3-2 4-5c2-4 6-4 0-6"/><path fill="#21231e" d="M450 316h2l-1-1zm-3-1h3zm-2 4-1-3h2l-2-1-1 2zm0 4q2-3 1-5h-1zm0 4v-3l-1 3zm1 1-2-1v1zm2 0v-1zv-1l-1 1zm5-6-1-1-3 5-1 1v1l3-3zm-1-7 2 1v1l-2 3 1 1q0-2 2-3v-2l-2-1zm0 0"/><path fill="#edb92e" d="m451 316-5-1q0 6 5 4 5-1 6 3l2-2c1-4-5-5-8-4"/><path fill="#21231e" d="m446 315 3 1h2l-1-1h-2zm0-1q0 2 0 0m6 5h-2l-2-1v-4l-1 1 1 3 2 2zm4 3h1l-2-3h-4 1l3 1zm3-1-1 1v1h-1 1zm-9-6h4l3 2 1 2h-1l1 1v-3l-2-2zm1 1"/><path fill="#fff" d="M376 240q-4 0-4 4t4 5 5-4-5-5"/><path fill="#21231e" d="M372 244q0-3 3-4h1v-1l-4 2zm4 5-3-3-1-2q0 3 2 4zm5-4-3 3-2 1q3 1 5-2zm-5-6v1q3 0 4 3l1 2-2-5z"/><path fill="#fff" d="M386 241q-5 0-5 4t5 5q4 0 4-4 0-5-4-5"/><path fill="#21231e" d="m381 245 3-4h2v-1l-5 2zm5 5-4-3-1-2 2 4zm4-4q0 3-3 3l-1 1q2 1 4-2zm-4-6v1l3 3 1 2q1-3-2-5z"/><path fill="#fff" d="M395 243q-5 0-5 4 0 3 5 5 3-1 4-4-1-5-4-5"/><path fill="#21231e" d="M390 247q0-3 2-4h2v-1l-4 2zm5 5-4-2v-2h-1l2 4zm4-4q0 2-3 3h-1v1l4-2zm-4-6q2 0 3 3l1 2q1-3-2-5z"/><path fill="#fff" d="M403 245q-4 0-4 4 0 5 4 6 4-1 5-4-1-4-5-6"/><path fill="#21231e" d="M398 249h1l2-3h2v-1q-3-1-4 2zm5 6q-3 0-4-3v-2h-1q0 3 3 5zm5-4-2 4h-2v1l4-2zm-5-6q3 0 4 3v1l1 1-2-5z"/><path fill="#fff" d="M458 277q-4 0-4 4 1 5 4 5 5 0 5-4 0-3-5-5"/><path fill="#21231e" d="M454 281q0-3 3-3l1-1q-2-1-4 1zm4 6v-1l-3-3-1-2q0 3 2 4zm5-5-3 4h-2v1l5-2zm-5-5 4 3 1 2-2-4z"/><path fill="#fff" d="M451 271q-4 0-5 4 1 4 5 5 4 0 4-4 0-5-4-5"/><path fill="#21231e" d="m446 275 2-4h2v-1l-4 2zm5 5-4-3v-2h-1l2 4zm5-4h-1l-2 4h-2q3 1 4-1zm-5-6v1l3 3 1 2h1q0-3-3-4z"/><path fill="#fff" d="M442 265q-4 1-4 4 0 5 4 6 4 0 5-4-1-4-5-6"/><path fill="#21231e" d="m437 269 2-3h2v-1q-3 0-4 2zm5 6q-3 0-4-3v-2h-1q0 3 3 5zm5-4-2 3h-2v1q3 0 4-2zm-5-6 4 2v3h1l-2-5z"/><path fill="#fff" d="M464 285q-4 1-4 4 0 5 4 6 5-1 5-4 0-5-5-6"/><path fill="#21231e" d="m460 289 3-3h1v-1l-4 2zm4 6-3-3-1-2q0 3 2 5zm5-4q1 2-2 3h-2v1q3 1 5-2zm-5-6q3 0 4 3v2h1l-2-5z"/><path fill="#edb92e" d="m413 360-16-12-17 6 16 11z"/><path fill="#21231e" d="m397 349 16 11zm-17 5 17-5v-1zm0 0h-1zm16 11-16-11zm17-5-17 5v1zm0 1h-1z"/><path fill="#c6363c" d="M397 352q-8-2-8 3t7 7 8-4-7-6"/><path fill="#21231e" d="M389 355q0-3 3-3l5-1v-1l-7 1zm7 7-6-4-1-2v-1l1 5zm8-4q0 2-2 3l-5 1q3 1 6-1 2 0 2-3m-7-7v1l5 3 1 3h1l-2-4z"/><path fill="#edb92e" d="m432 356-17 4 14 12c4-1 7-13 3-16"/><path fill="#21231e" d="m415 361 17-5q0-1 0 0l-17 4zm14 11-14-12v1zq0 1 0 0m3-16v4l-2 9-2 2v1l3-3 2-9-1-5zm0 0q0-1 0 0m0 0q0-1 0 0"/><path fill="#0c4076" d="M432 359q-7-1-8 3 1 5 7 7 4 1 4-4 1-4-3-6"/><path fill="#21231e" d="m424 362 2-2h6v-1h-6zm7 8v-1l-6-3-1-4q-1 3 1 4zm5-5-2 4h-2v1l3-1zm-4-6 2 2 1 3h1q1-2-2-5z"/><path fill="#fff" d="M377 357q-2 0-2 2l2 3q3 0 3-3 0-2-3-2"/><path fill="#21231e" d="m375 359 2-2v-1l-2 1zm2 3-1-1-1-1 1 2zm3-3-1 2h-1v1l3-1zm-3-3v1l2 2h1l-1-2z"/><path fill="#fff" d="m413 363-2 2q0 3 2 3l2-2z"/><path fill="#21231e" d="m410 365 1-1h1v-1l-2 1zm3 3-2-2v-1h-1l1 3zm3-2h-1l-1 2h-1q2 1 2-1zm-3-3 2 1v1h1l-2-3z"/><path fill="#fff" d="m414 352-2 2q0 3 2 3t3-2z"/><path fill="#21231e" d="m412 354 1-1h1v-1l-2 1zm2 3-2-2v-1l1 3zm3-2-1 2h-1 2zm-3-3 2 1v1h1l-1-2z"/><path fill="#fff" d="M378 346q-3 0-3 2 0 3 3 3l2-2q0-3-2-3"/><path fill="#21231e" d="m375 348 1-1 1-1-3 1zm3 3-2-2v-1h-1l1 3zm2-2-1 1v1l2-1zm-2-3 1 2v1h1z"/><path fill="#edb92e" d="m440 333-5 2q0-4 4-11 3-1 3-5l2 1v7q-4 1-4 6"/><path fill="#21231e" d="m436 335-1 1zl2-2 2-1v-1l-2 1zm3-11-3 8v4l1-1v-3zm3-5-1 3-2 1 1 1 2-2zm2 1q0 1 0 0l-1-2-1 1h1zm0 5v-5zm0 1-1-1zm1 1q0-1 0 0m-4 6 1-5 3-1-1-1-3 3zm0 0q-1-1 0 0"/><path fill="#edb92e" d="m442 319 1 2-1 3-2 1-2 2-1 3q0 5-2 5h-1v-2l1-2v-5q0-3 3-4 2 1 3-2z"/><path fill="#21231e" d="m442 321-1-2zm-1 2 1 1 1-3h-1zm-2 2 2-2-1-1zm-1 2 2-1-1-1zm-1 3 1-2v-1zm-2 5 2-2v-4zm-1 0h1v-1zm0-1-1 2h1zm2-3h-1l-1 2v1zm0-3-1 1v2h1zm-1-2 1 2h1zm3-3v-1l-3 2-1 2h1l2-3zm3-3-2 2h-1v1l2-1zm1-1q0-1 0 0l-1 1zm0 0"/><path fill="#edb92e" d="m448 326-1-1h-3c-4 1-6 7-1 10l2-2 3-5z"/><path fill="#21231e" d="m447 325 1 1h1zm-3-1h3zm-1 11-1-2q-1-3 1-5l2-2v-1l-3 3-1 5zm3-2h-1l-1 1-1 1 2-1zm3-5h-1l-3 5h1zm-1-2q0-1 0 0v1h1zm1 0q-1 0 0 0m-1 1v-1zm0-1"/><path fill="#edb92e" d="M446 326c-4-1-6 5-3 8l3-3c1-2 4-2 0-5"/><path fill="#21231e" d="m443 334-1-1v-3l2-2h2v-1h1-2l-3 1-1 4zm3-3v2h-2v1h2l1-2zm1-5 2 1h-1l-1 2v1l1-1 1-2z"/><path fill="#0c4076" d="M446 327q-4 1-2 5 3 1 3-1 1-2-1-4"/><path fill="#21231e" d="m444 332-1-1 1-2 1-1h1v-1h-1l-2 1v2zm4-1h-1l-2 1h-1l2 1zm-2-4 1 1v2h1v-2zm0 0"/><path fill="#fff" d="M419 286q-3 0-4 5 1 3 4 5 5 0 5-4 0-5-5-6"/><path fill="#21231e" d="m414 291 2-4h2v-1l-4 2zm5 5-4-3v-2h-1l3 4zm5-4-3 4h-2q3 1 4-1zm-5-6q3 0 4 3l1 2-2-5z"/><path fill="#fff" d="M423 279q-5 0-5 4 0 5 5 6 3 0 4-5 0-3-4-5"/><path fill="#21231e" d="M418 283q0-3 3-3l2-1q-3-1-5 1zm5 6q-3 0-4-3l-1-2 2 5zm5-5h-1l-2 4h-2v1l4-2zm-5-5 3 3 1 2h1l-3-4z"/><path fill="#fff" d="M412 249q-5 1-5 4 0 5 5 6 4 0 4-4t-4-6"/><path fill="#21231e" d="m407 253 3-3h2v-1q-3 0-5 2zm5 6q-3 0-4-3l-1-2 2 5zm4-4q0 3-3 4h-1v1l4-2zm-4-6 3 2 1 2v1q1-3-2-5z"/><path fill="#fff" d="M419 254q-4 0-5 4 1 5 5 5 4 1 5-4-1-5-5-5"/><path fill="#21231e" d="m414 258 2-4h2v-1l-4 2zm5 6q-3 0-4-3v-2h-1l2 5zm5-5-2 4h-2v1l4-2zm-5-6v1l4 3v2h1l-2-4z"/><path fill="#fff" d="M425 261q-5 0-5 5 0 3 5 5 4 0 4-4-1-4-4-6"/><path fill="#21231e" d="M420 266q0-3 3-4h2v-1q-3 0-5 2zm5 5-4-3-1-2 2 4zm5-4h-1q0 3-3 3l-1 1q2 1 4-1zm-5-6q2 0 3 3l1 2h1q0-3-3-5z"/><path fill="#fff" d="M425 270q-3 0-4 4 1 5 4 6 5-1 5-4 0-4-5-6"/><path fill="#21231e" d="M420 274h1q0-2 3-3l1-1q-2-1-4 2zm5 6q-2 0-3-3l-1-2h-1l3 5zm5-4q0 3-3 4h-2v1q3 1 5-2zm-5-6 4 3 1 2v1q1-3-2-5z"/><path fill="#edb92e" d="M365 294q3-6 6-7-4-15-2-39l2-3 1 4-1 23 4 16-3 3-4 3z"/><path fill="#21231e" d="M372 287h-1q-4 2-6 6h1zm-2-38h-1a108 108 0 0 0 2 38v-1q-3-16-2-32zm1-3-1 3h1zm1 3-2-4v1l1 2zm-1 23 1-1 1-22-1 1zm3 16-3-15-1 1zm-2 2q2-1 2-3h-1zm-4 4 3-3h-1q-3 0-3 3m-1-1 1 1q0 1 0 0zm-2 1q-1 1 1 1h1-2q1 0 0 0m0 0q-1-1 0 0"/><path fill="#edb92e" d="m377 307-2-1v-3q0-5-5-2l-3 4-3 1v7l3 2 3 4q5 4 5-1v-3h2l1-2 1-2-1-2z"/><path fill="#21231e" d="M375 306h1zm0-3-1 2 1 1zm-5-2h3q2-1 1 1 0 2 1 1l-1-3zm-4 4 2-1 3-2h-2zm-2 1 2-1h-2zm0 4 1-3-1-1zm1 0q-2 0 0 0m-1 3v-3q-2 0-1 2zm2 2q1-1-1-2h-1zm4 4-1-2-2-2 1 2zm5-1-1 2h-2l-1-1q-1 1 1 1l2 1zm0-2q-1-1-1 1l1 1zm2-1h-2zm2-2-2 1v1zm0-2-1 2q1 1 1-1zm0-2-1 2zm-2-2q-1 1 1 2h1zm-13 3 7 4q-2-3-7-5m0 0 7-2q-2 3-7 3"/><path fill="#edb92e" d="m375 302-3 1q-1 2 1 5l1 3-1 2q-2 3-1 5l3 2v-5h2l1-2 1-2-1-2-1-2-2-1z"/><path fill="#21231e" d="M372 302v1l3-1v-1zm1 6-2-4v-2l-1 3zm1 3v-3h-1zm-1 2v-2zm-1 5v-2l2-3h-1l-2 3zm3 2-3-1zm0 0q0 1 0 0m0-2v2h1zm0-2-1 3h1zm2-1-2 1v1zm2-2-1 1v1zm0 0q-1 2 0 0m0-2v2h1zm0-2v2h1zm-2-2 1 1h1zm-2-1 1 1h1zm0-3 1 3zm0-1v1h1zm73 23q2-2 1-4z"/><path fill="#edb92e" d="m411 301-1 1h-2q-5-2-3 4l3 6 1 2 2 1h1l2 1 2-2 5-3q4-3-1-5l-2-1v-2l-1-3-2-1h-2z"/><path fill="#21231e" d="m410 302 2-2-1-1v1zm-2 0q-1 0 0 0l2 1v-1zm-3 5v-4h3l-3-1-1 4zm2 5 1-1-3-5v1zm2 3-1-3v3zm2 1v-1l-2-1v1zm0 0 1-1h-1q0 1 0 0zm4 0-1-1h-1v1zm1-2-2 2h1zm5-3-4 3h1zm-1-5 1 1v2l-2 2h1l2-3-1-2zm-1-1 2 1q1 0 0 0zm-1-2v2l1-1zm-1-3 1 2v-1zm-2-1h2zm0 1q1 0 0 0m-2-1 1 1v-1zm-2 2v-1l2-1h-1zm1 14 4-6q-3 2-5 6m0 0q1-4-1-9 3 4 2 9"/><path fill="#edb92e" d="m406 301 1 4h7l2 1q2 5 4 3l2-3h-2l-2-1v-2l-1-3-2-1h-2l-2 2-1 1h-2z"/><path fill="#21231e" d="M406 305h1l-1-4zm6 0h-5l2 1zm2 0-3 1h3m2 1-2-2v1zm4 3h-2l-2-2q0 3 2 3zm2-3-2 2v1zm-2 0 2 1v-1zm-1-1 2 1q1 0 0 0zm-1-2v2h1zm-1-3 1 3zm-2-1h2zm-2 0 1 1v-1zm-2 1 2-2h-1zm-1 2 2-2-1-1zm-2 0 3 1v-1zm-2-1h2zm0 0q-1 0 0 0 0 1 0 0"/><path fill="#edb92e" d="m425 318 1-2q2-4-3-2l-2 1-2 2-2 1-1 3-1 3 1 1 2 4 2 2 1-3 1-2 2-1 2-1v-1l1-2z"/><path fill="#21231e" d="m425 317 1 2 1-1zm0-2-1 2h1zm-3-2h2v2l1-2-2-1zm-2 1 2-2h-1zm-2 1 2-1-1-1zm-2 1 2-1-1-1zm-1 3 1-3q0-1 0 0zm-2 4h1v-1l1-2q0-1 0 0zm2 1-1-1h-1zm1 4-2-4v1zm3 3v-1l-2-1v-1h-1zm2-4h-1l-1 3v1l2-3zm1-2-1 2h1zm1 0-2 1h2m2-1-1 1v1zm1-2-1 1 1 1zm0-2-1 2h1zm-1-1 1 1zm0 0h1zm-10 1 3 2 2 3-2-3zm0-2 7-2-3 2z"/><path fill="#edb92e" d="m426 313-2 1-2 2 1 3-1 3-1 2q-3 3-3 5l1 1 1-1 1-3 2-1 2-1q2-2 1-5-2-2-1-4z"/><path fill="#21231e" d="m423 314 2-1h-1zm-1 2 1-2h-1zm0 3h1v-3h-1zm0 2v-3h-1zm-1 3 2-2h-1zm-3 5v-2l2-3-3 3zm2 1q1 0 0 0v-1h-1zm1-1h-1l-1 1h1zm1-2-1-1-1 3h1zm1-2-2 2h1zm2-1h-2v1h1zm1-5v3l-1 2 2-3zm0-4-1-1-1 4 2 1-1-3zm0-2v1l1 1zm0 0q-1 0 0 0m0 0q-1 0 0 0m0 0"/><path fill="#edb92e" d="m394 318 2 1v3q-1 4 3 2l4-2 2-1 1-4 1-3-2-2-3-5q-3-4-4 1l-1 2-1 1-2 1-1 2v2z"/><path fill="#21231e" d="m396 320-1-1h-1zm-1 2h1v-3 1zm4 3v-1h-3v-2h-1v3zm4-3-4 3 1 1zm3-1-2 1 1 1zm0-3-1 2 1 1zm0-1q0 1 0 0m1 1-1-1zm0-4v3h1zm-2-2 1 1h1zm-2-5 3 4zm-5 1v-3l2 1 1 1h1l-3-2q-2-1-2 1zm-1 2 1-3h-1zm-2 1h2l-1-1zm-2 1h1l2-1h-1zm0 2v-1l-1-1zm0 2q1 0 0 0l1-2h-1zm1 2-1-2h-1zm12-1q-3-1-5-5 2 4 5 6m0 0q-4-1-7 1z"/><path fill="#edb92e" d="m395 324 3-1v-8l1-2 2-5-3-2v2l-1 2-1 1-2 1-1 2v2l1 2 2 1v3z"/><path fill="#21231e" d="m398 323-3 1 1 1zm0-5 1 3v2l1-3zm0-3v3h1zm1-2-1 2h1zm2-5v3l-2 2h1l2-3zm-3-2 2 2h1zm0 2v-2h-1zm-1 2 1-3h-1zm-2 1h2l-1-1zm-2 1 1 1 2-2h-1zm0 2v-1l-1-1zm0 2v-2h-1zm1 2-1-2h-1zm2 2-1-1h-1l1 1zm-1 2h1v-3 1zm1 2v-1h-1zm-1 0q1 0 0 0m0 0q2 0 0 0m0 0q1 0 0 0"/><path fill="#edb92e" d="M412 313q-6 0-7 5 0 5 5 6 4 0 6-4 0-6-4-7"/><path fill="#21231e" d="M405 318q1-4 4-5h2q-4-1-6 2zm5 7v-1q-3 0-4-3v-3h-1q0 3 2 5zm6-5q0 4-4 4h-1v1q3 0 5-3zm-4-7 3 3v4h1l-1-6z"/><path fill="#edb92e" d="M411 315q-4-1-4 3t3 5 4-4q2-4-3-4"/><path fill="#21231e" d="M406 318h1q1-3 4-3v-1l-4 2zm4 5-2-1-1-3h-1l2 4zm5-3q0 3-3 4l-1-1v1a4 4 0 0 0 5-3m-4-6 3 2v2l1 1-1-4z"/><path fill="#0c4076" d="m411 316-3 2q0 3 2 3 3 1 3-2 0-2-2-3"/><path fill="#21231e" d="m408 318 2-1v-1l-2 1zm2 4v-1l-1-1v-2h-1l1 3zm3-3-2 2h-1v1l3-1zm-1-3h-1zl2 1v1zm0 0"/><path fill="#edb92e" d="m429 373 2 3-2 1-2 1a1935 1935 0 0 1-139-16l2-2h1a507 507 0 0 1 138 13"/><path fill="#21231e" d="M429 373q2 0 2 3l-2 2h-2a1883 1883 0 0 1-139-16q0-2 2-3h1a497 497 0 0 1 138 14m-1 1a497 497 0 0 0-137-13l-1 2 1 2h1a1878 1878 0 0 0 137 13l2-1q1-2-2-2m-121-11h17q1 2-2 1h-8l10 1q0 2-2 1zm34 0q0 2-2 1l-15-1 3-1zm17 2h-2l-15-1 3-1zm17 2h-2l-15-1q1-2 3-1zm17 2q0 2-2 1l-15-2q1-2 3-1zm17 3 1 1h-6l-12-1q1-2 3-1l7 1-10-2h3zm-85-8v1zm35-22-17 7zm16 11-17-11h1zm-17 6 17-7v1zm-16-10 17 10-1 1zm0 0"/><path fill="#0c4076" d="M359 346q8 2 8 6 0 5-8 5-7-2-7-6 1-5 7-5"/><path fill="#21231e" d="M367 352q-1 0 0 0l-4-4-4-1 1-1q4 0 6 4zm-8 5q3 1 6-2l1-2v1q0 3-3 4zm-7-6 3 4 4 1v1q-4 0-6-3zm7-5q-3-1-6 2l-1 2v-1q0-3 3-4z"/><path fill="#edb92e" d="M359 303q6 1 6 7 0 5-6 5-5-1-5-6 0-6 5-6"/><path fill="#21231e" d="M365 310q0-4-3-6h-3v-1a7 7 0 0 1 6 7m-6 5q4 0 5-3l1-2q0 3-3 5zm-6-7 1 1q0 3 3 5l2 1q-3 0-5-3zm6-5a5 5 0 0 0-5 5l-1-1 3-5z"/><path fill="#edb92e" d="M359 305q4 1 5 4-1 4-5 4t-4-4q1-4 4-4"/><path fill="#21231e" d="m364 310-2-3-2-1v-1l4 3zm-5 4v-1a3 3 0 0 0 4-4l1 1-2 3zm-4-5q-1 2 2 3l1 1v1l-3-3zm4-5v1l-3 2v2h-1l2-4z"/><path fill="#0c4076" d="m359 306 3 3q0 3-3 3l-2-3q0-3 2-3"/><path fill="#21231e" d="m362 309-2-2h-1v-1l3 2zm-3 3 2-1 1-1-1 3zm-3-3h1l2 2v1zm3-3-2 2h-1l2-3zm0 31a401 401 0 0 0-76-1l-1 3q0 2 4 2a446 446 0 0 1 147 14l4-1q1-1-2-3l-6-2c-22-5-49-10-70-12m1 1a553 553 0 0 1 76 16h-3a545 545 0 0 0-147-18c22-1 42-1 74 2"/><path fill="#c6363c" d="M237 365v202a137 137 0 0 0 122 137q52 4 87-28 34-32 36-87V386c-82-12-163-24-245-21"/><path fill="#fff" d="m236 364 1 211q2 49 36 85c1-3-5-6-7-10q-30-41-28-92V365c80-2 160 9 243 22v209a110 110 0 0 1-122 107c2 4 9 2 13 2 47 1 87-28 102-71 9-20 9-43 8-66V385c-82-12-164-24-246-21m125 330 4-1 1-11-3-96h-4l-3-1-3 96 1 11 4 1z"/><path fill="#21231e" d="M361 694h-3l-1-1-3-1q-2-2-1-9v-2l2-96h4l4 1h1l2 96v2l-1 9zm0-1h4v-11l-2-96h-7l-2 95-1 2 1 9 3 1z"/><path fill="#fff" d="m372 694-4-1q-2-4-2-11l-6-96h4q9 68 15 96 1 6-1 11l-4 1z"/><path fill="#21231e" d="m372 695-3-1q-2-1-3-11l-5-96h5l6 48 8 48v12l-4 1h-3m0-1h3l3-1q3-3 0-11l-7-48-7-48h-4l6 96q0 10 2 11z"/><path fill="#fff" d="m386 694-5-1-2-11q-6-28-15-96h4c11 44 14 75 23 94 1 3 3 10 1 12l-4 2z"/><path fill="#21231e" d="M386 694h-1l-4-1q-2-1-2-7l-1-4-7-48-7-48 4-1v1l17 73 6 21q3 10 1 13l-3 1zm-18-108h-3l6 48 11 59h7l3-1q2-3-1-11v-1q-4-8-7-21z"/><path fill="#fff" d="M399 691h-4q-3-3-4-11c-9-20-12-50-23-95l3-1h3c13 44 17 74 29 94q3 7 2 11-1 2-3 2z"/><path fill="#21231e" d="M399 692h-3l-3-7-1-5q-4-8-7-21l-16-74h-1 1l3-1h1l2-1v1l11 39 19 55 2 6v6l-3 1h-1zm0-1h3l3-2v-5l-2-6q-6-9-10-23l-9-32-10-39-2 1h-4l17 74 8 26 2 6z"/><path fill="#fff" d="m347 692 4-1q3-3 2-10l6-95-4-1q-9 66-15 93v11q2 3 5 2z"/><path fill="#21231e" d="M348 692h-4v-1l-4-1q-2-3 0-12l8-46 6-47h1l4 1-5 95q-1 10-3 11zm-1-1h3q2-1 2-10l5-95h-3l-7 46-7 57 3 2h3"/><path fill="#fff" d="m333 688 4 1 3-11q6-27 15-93l-4-1c-11 42-15 72-23 90q-3 6-1 12l4 2z"/><path fill="#21231e" d="m333 689-2-1h-1l-3-2q-2-3 1-12l6-20 16-70 1-1v1l4 1-7 47-10 57zm0-1h4q2 0 2-6l1-4 7-46 7-47-3-1-16 71q-3 12-7 19-3 9-1 12l3 1 1 1z"/><path fill="#fff" d="M319 684h5c2-1 2-7 4-10 8-18 12-48 23-91l-4-1-2-1c-13 42-17 71-29 89q-4 6-2 10l3 3z"/><path fill="#21231e" d="m319 684-2-1h-1l-3-2v-6l2-6q6-7 11-21a567 567 0 0 0 19-67v-1 1h2l1 1 3 1v1l-16 71q-3 12-7 19l-1 5-3 6-4-1zm1-1h3l2-6 2-4 6-20 6-26 11-44-4-2-2-1-19 67q-4 13-10 22l-2 5v5l3 2z"/><path fill="#fff" d="M392 658h-4q-3-4-4-11-12-28-30-96h3l4-1c14 45 20 77 34 95q3 8 2 12l-3 1z"/><path fill="#21231e" d="m392 659-3-1-4-9-1-2-9-27-12-38-8-30v-1h3l3-1h1l10 33 11 36q6 17 13 26l3 6v6l-3 1h-1zm0-1h2l1-1 2-1v-4l-3-6q-6-10-13-27l-11-36-10-32h-3l-2 1 8 30 11 38 10 27 1 2 3 8z"/><path fill="#fff" d="m381 659-4-1q-2-3-3-11l-19-96h6c11 45 14 78 24 96q3 6 2 11l-4 1z"/><path fill="#21231e" d="m381 660-3-1-3-10-1-2-19-96h4l3-1h1v1l15 74 8 22 2 6v5l-3 1h-1zm0-1h3l2-1 1-5-2-6q-5-8-8-22l-7-30-9-44h-6l19 96 1 2q0 8 2 9z"/><path fill="#fff" d="m370 659-4-1q-3-4-2-11l-9-96h7q8 68 13 96 2 8 0 11l-3 1z"/><path fill="#21231e" d="m370 660-1-1-3-1q-2-2-2-9l-1-2-8-96v-1l4 1h3l5 38 9 70-3 1zm0-1h3l2-1v-11q-3-12-8-58l-5-38h-6l8 96v2l2 9 3 1z"/><path fill="#fff" d="M327 652h4q3-3 4-10 12-26 30-89l-3-2-4-1c-14 42-20 72-34 88q-3 6-3 11l4 2z"/><path fill="#21231e" d="m326 652-1-1h-1l-3-2v-5l3-6q7-8 13-23l11-34 10-31 4 1 3 1v1l-9 28-11 36q-5 16-10 25v2l-4 8zm1-1h3l3-8 1-2 10-25 11-36 8-28-2-1h-1l-2-1-10 30-11 34-13 24-3 5v5l2 1 1 1z"/><path fill="#fff" d="M338 655h4l3-11 19-92-3-1-3-1c-11 43-14 75-24 92q-3 6-2 10 2 3 4 2z"/><path fill="#21231e" d="M338 655h-2l-1-1-3-1v-6l2-6q4-6 8-20l6-29 9-42h1l3 1 3 1h1l-20 92v2l-3 9zm0-1 3-1 2-8 1-2 19-92h-3l-3-1-16 71q-3 12-8 20l-2 6 1 4 2 2h3"/><path fill="#fff" d="M349 657h4q2-4 2-11l8-94-3-1-3-1q-8 66-13 94-2 7-1 11l4 2z"/><path fill="#21231e" d="M349 658h-3l-3-2v-11l9-57 4-37h1l3 1h4v1l-9 94v2q0 8-2 9zm0-1 3-1 2-8v-2l8-94-3-1h-3l-5 37-8 67 2 1h1z"/><path fill="#fff" d="m360 659 4-1q2-4 1-11l-2-96h-7l-2 95q-1 7 1 11l3 1z"/><path fill="#21231e" d="M361 659h-2l-4-2-1-9v-2l3-95v-1l3 1h4l2 96 1 2q0 8-2 9zm-1-1h4l1-9v-2l-3-95-3-1h-3l-2 95v2l1 9 3 1z"/><path fill="#fff" d="M385 631h-4l-3-11q-9-27-23-94l3-1 2-1c11 45 16 76 26 94q3 7 2 11 0 2-2 2z"/><path fill="#21231e" d="M385 632h-1l-3-1-3-9v-2q-6-13-16-64l-7-30v-1h3l2-1h1l7 33 9 36q4 16 10 25l2 6v6l-2 1h-1zm-1-1h2v-1l2-1v-5l-2-5q-5-10-10-26l-9-36-7-32h-2l-2 1 6 30 16 64 1 2 3 9z"/><path fill="#fff" d="m376 633-3-1-3-11-14-96h5c8 44 10 77 18 95q2 7 1 11l-2 1z"/><path fill="#21231e" d="m376 633-2-1-3-9v-2l-15-96h3l3-1v1l12 73 6 22 2 6v5l-3 2zm0-1h2l2-1v-5l-1-6q-4-7-7-21l-4-31-7-43h-5l15 96v2l2 9z"/><path fill="#fff" d="m367 633-3-1-1-11-7-96h5l10 96q2 7 1 11l-3 1z"/><path fill="#21231e" d="m367 633-3-1-1-9-1-2-6-96h3l2-1 1 1 3 38 7 69-2 1zm0 0h2v-1h2v-11l-6-58-4-38h-4l6 96v2l2 9z"/><path fill="#fff" d="M334 626h3q3-3 4-10 9-26 23-90l-3-1-2-1c-11 42-16 73-26 89q-3 6-3 11l3 2z"/><path fill="#21231e" d="M334 627h-2l-2-2v-6l2-5q6-8 10-24l9-34 7-31h1l2 1 3 1-7 29q-10 49-16 62v1l-3 9zm0-1h3l3-8v-2q6-12 16-61l7-28-2-1-2-1-7 30-9 34q-5 17-10 24l-2 10 1 2z"/><path fill="#fff" d="M343 629h3l2-10 15-93-2-1-3-1c-8 43-10 76-18 92q-2 6-1 11l2 2z"/><path fill="#21231e" d="m343 630-2-1-3-2v-5l2-6 6-20 12-72 3 1 2 1-14 93v2l-3 8zm0-1h2l2-9v-1l15-93h-3v-1h-2l-12 71q-2 14-6 20l-1 6v5l2 1z"/><path fill="#fff" d="M351 631h3q3-4 2-11l7-94-3-1-3-1q-6 67-10 94v11q1 3 3 2z"/><path fill="#21231e" d="m352 632-1-1h-1l-2-1v-12l6-56 4-38 3 1h3l-7 95v2l-1 9zm-1-1h3l2-9v-2l6-94-2-1h-2l-4 37-7 67 2 1z"/><path fill="#fff" d="m360 633 3-1 1-11-2-96h-5l-2 95 1 11 3 1z"/><path fill="#21231e" d="M360 633h-2l-3-2v-11l2-96 2 1h3l2 96v2l-1 9zm0-1h2v-11l-1-96h-5l-2 95v2l1 9 2 1h2"/><path fill="#fff" d="M354 562v10l-8 1c0 4 9 41 13 43 5-1 13-36 14-40l-8-3v-10l-6 5z"/><path fill="#21231e" d="m354 562 3 4 1 2 2-2 4-4v11l8 2v1l-5 21q-5 19-9 19-3 0-8-20l-5-23 8-1zm0 1v9l-7 1a149 149 0 0 0 12 42q3 1 8-18 6-16 5-21l-7-2-1-1v-9l-3 3-1 1-1 1v-1l-1-2z"/><path fill="#edb92e" d="M308 577q-2-1-13 8l-13 22-4 2h-12q-7-3-7 2c-1 2 1 6 4 4l12-1q-3 4-12 4-6 2-3 8l2 1q4 3 6-1c0-2 9-6 11-8l-8 12c-2 3-3 3-1 8h6q6 1 4-5l3-12 3-5q5-4 11-4 5 3 6-3l-2-6-5 2-6 3c-2-1 4-4 10-11q11-15 8-20"/><path fill="#21231e" d="M308 577q1 9-9 20l-10 10v1l5-3 6-2q2 0 2 4l1 2-3 4-5-1-5 1-5 3-1 3-1 2q-4 8-4 12v4l-4 2-4-1h-2l-2-5 2-2 1-1 4-6 3-5-3 2-7 5q0 3-3 3l-4-2-1-1-1-5q0-3 4-3l7-1 4-2h-11l-2 1-2-1v-6l1-2q4 0 6 2h12l4-2 13-22q10-9 13-8m0 1q-3 0-13 8l-12 21-5 3h-7l-5-1h-1q-1-2-4-1l-2 1v2h1-1l1 3 1 1h2l7-1h6-1q0 2-5 3l-7 2q-3 0-3 2l1 5h1q2 3 3 2 3 1 2-2l7-5 5-4 1 1-5 7-4 5v1l-2 2 2 4h1l4 1 4-1v-4q-1-4 3-12l1-3 1-2 6-4 6-1q3 2 4 1 2 0 2-3l-1-2-1-4-5 2h-1q-3 5-5 3h-1l1-1 2-2 8-8q9-12 8-19"/><path fill="#edb92e" d="M310 664c-6 4-11-6-6-21 4-10 22-5 12 9q-1 1-1-1 0-4-4-4c-8 2-9 15 0 13q2 2-1 4"/><path fill="#21231e" d="m310 665 2-3v-1l-1-1-4-1-2-4 2-5 4-3 3 1v3l1 2 1-1q4-4 3-9 0-3-4-5h-6q-4 2-6 5-3 11-1 18l3 4zm-1-1-3 1-3-4q-3-8 1-17 1-4 5-5h6q3 1 3 4 1 4-3 9l-1-4-3-1q-3 0-5 3l-2 5 2 5 5 1v1z"/><path fill="#edb92e" d="M260 613q-4-3-6 0l-1-1q3-7 8-3l2 2z"/><path fill="#21231e" d="M259 613h-6v-1l3-5q3 0 5 2l2 2-2 1zm1 0 1-1 1-1-1-2-4-1-4 4v1h1q2-3 6 0"/><path fill="#edb92e" d="M301 610q6-3 8-1 2 1 1-1-5-7-10-3l-2 3z"/><path fill="#21231e" d="m302 610-1-1-2-1v-1l2-2q3-2 5-1 3 0 5 4v2l-1-1q-3-2-7 1m-1-1q5-3 8 0h1v-1l-5-4q-3 0-5 2l-1 2z"/><path fill="#edb92e" d="m277 636-2-6-3 3q-5 6 2 12 1 2 1-1-1-2 2-8"/><path fill="#21231e" d="m277 636-2 8v2h-2l-4-7q0-4 3-6l2-2 1-1 2 3zm-1-2-1-3h-1l-2 2-2 6 4 6 1 1v-2q-1-2 2-8z"/><path fill="#edb92e" d="M265 625q-4 3-4 5t-1 0q-3-11 5-9z"/><path fill="#21231e" d="M265 626q-3 1-3 4l-1 2-1-1q-3-7-1-9 1-2 7-2v4zm0-1v-4q-4-1-5 2v7l1 1v-1q0-3 4-5m23-21v1l1 2v1l-2-2zm5 0-1 1-2-1-1-1v1h-1l1-1h2zm-3-3h1v2l1 1v1l-2-2zm5 1-2-1h-3l2-1h1zm-2-4v2l1 2-2-2zm5 1-2-2h-1l-1 1h-1l1-2h2l1 2zm-2-5v3l1 2q-2-1-2-3zm5 1-2-3h-1l-1 1h-1l1-2h2zm-2-5-1 2 2 2v1l-2-3zm5 1v1l-2-2h-1l-1 1-1-1 1-1h2z"/><path fill="#fff" d="m345 577-7-5q-6 6 0 17 9 13 10 21 7-7 4-18z"/><path fill="#21231e" d="m345 577 3 10 3 5q4 10-3 19h-1v-1q-3-10-10-21-3-5-3-10 0-6 3-7zm0 0-7-4-2 6q-1 4 2 10 9 11 11 20 6-8 2-17l-2-5z"/><path fill="#fff" d="m351 572-7-5c-3 2-9 9-4 16q10 13 14 22 7-8 4-18z"/><path fill="#21231e" d="m351 572 3 7 4 8q4 9-4 18v1-1q-1-4-10-15l-4-7q-4-4-1-10 2-4 5-6zm0 0-7-4-5 5q-2 6 1 10l5 6 9 15q8-8 3-17l-3-7z"/><path fill="#fff" d="m336 568-7-5q-6 4 0 17 8 11 10 21 7-9 3-18z"/><path fill="#21231e" d="m336 567 4 9 2 6q5 9-3 18v1l-1-1q-2-10-10-21-3-5-3-11l3-6h1zm-1 1-6-5q-3 2-3 6 0 6 3 10 7 10 10 21 6-8 3-17l-3-5z"/><path fill="#fff" d="m304 491-2 55q-1 9-6 13-4-6-4-15l1-52q6-19 11-1"/><path fill="#21231e" d="M303 546q-2 0-1-2l1-52q0-2 1-1l-1 48zm-7 13 1-1q5-5 5-12v2q0 7-5 11zm-4-15v2q1 8 5 12-1 1-2-1-3-6-3-13m0-52 1 2-1 50zm12-1-1-2-3-6q-3 0-4 2l-3 7v-2q1-5 5-8 2-1 3 2zm0 0"/><path fill="#fff" d="m276 479-2 59c0 6 7 37 10 44 9-5 11-25 9-46-1-21 1-39 2-42l-1-15z"/><path fill="#21231e" d="m274 538 2-59v3zm10 43c0 2-1-1-1-1l-7-28-2-14 1 3 6 32zm9-45 1 3q2 17-2 32-2 8-8 11l2-2q6-7 7-16zm2-42v2l-2 36 1 4q-2-1-1-3a176 176 0 0 1 2-39m-1-15q1-1 1 2v13-3zm-18 0h18zm0 0"/><path fill="#fff" d="m265 489 2 59c0 6 8 36 12 42 9-7 7-36 6-46-3-18-3-38-2-42v-15z"/><path fill="#21231e" d="m266 548-1-59 1 3zm12 42-1-1q-6-13-8-28l-3-13q2 1 1 3l8 31zm6-46q2 1 1 3 3 17-1 32-1 7-5 12l1-3q5-8 5-18 1-13-1-26m-1-42v3q-1 17 1 35l1 4q-1 1-1-3zm0-15v2l1 13q-2 0-1-2zm-18 2 3-1 15-1-3 1zm0 0"/><path fill="#fff" d="m257 503 16-1c-2 7-1 27 2 42s6 52-9 61c-9-20-2-39-6-56q-6-27-3-46"/><path fill="#21231e" d="M273 503h-16l4-1zm2 41-1-2-2-40q2 2 1 3-1 17 1 33zm-9 61 2-2q7-7 8-18 2-19-1-39 0-2 1 0 3 20 1 40-2 11-9 18zm-7-56q2 1 2 3c2 13-1 27 2 41l4 12q-2-1-2-3-5-16-4-34 1-9-2-19m-2-47v3q-2 23 3 44l-1-3q-5-21-2-43zm0 1"/><path fill="#fff" d="m316 480-3 56q-2 9-6 12-4-6-4-15c-1-3 1-43 2-52q7-18 11-1"/><path fill="#21231e" d="M313 536v-2l2-52 1-1-2 48zm-7 12 1-1q5-5 5-11 2 0 1 2-1 7-6 10zm-4-15 1 2q0 7 4 13-1 1-2-2-3-6-3-13m2-52 1 2-2 50-1-1zm12-1-1-2-3-6-4 2-3 7v-2l5-7q3-1 4 1zm0 0"/><path fill="#fff" d="m289 444-1 47q1 9 5 17 4-3 6-13l1-41-9-8z"/><path fill="#21231e" d="M288 491v-47l1 2zm5 16q-4-7-4-15v-1q1 8 5 15zm6-12v2q0 6-6 11-1-1 1-2 4-4 5-11m1-41v40q0 2-1 1v-41zm-9-8 8 7h-2zm0 0q-2-1 0 0m-2-2q-1-1 0 0l2 2zm-1 0q1-2 1 0z"/><path fill="#fff" d="m300 453-1 41q1 9 5 14 4-3 6-12l1-32c-3-1-8-8-11-11"/><path fill="#21231e" d="m300 494-1-1v-40l1 2zm3 14q1 1 0 0-4-6-4-14l1 1q0 7 4 13zm7-12v2q-1 6-6 11v-2q5-4 6-11m1-31h1l-2 31v-1zm-11-12q-1 0 0 0l10 10 1 1h-1zm-1 0q1-1 0 0"/><path fill="#fff" d="m290 443-10-16c-2 8-5 61-2 66q0 9 5 15 6-3 6-13c-1-6 0-46 1-52"/><path fill="#21231e" d="m280 427 10 15q-1 1-1-1zm-2 66-1-1-1-19 3-46q2 0 1 2l-3 31 1 29zm5 14q0 2-1 0-4-6-4-14l1 2q1 7 4 13zm5-12q2 1 1 2-1 7-6 11-1-1 1-2 5-3 4-11m2-52v1l-1 32v19q-1 1-1-1v-29zq0-1 0 0m0 0"/><path fill="#fff" d="m269 476-1 17q1 9 4 15 5-4 6-12-1-36 4-67l-9-6q-7 42-4 53"/><path fill="#21231e" d="M269 493q-2 1-1-2v-15q2 1 1 3zm3 15-1-1q-3-6-3-14l1 2q0 7 3 13m6-12 1 2q-1 6-7 10l1-2q5-4 5-10m4-67v2q-5 32-3 64-2 1-1-2-1-33 4-64m-8-6 8 5h-3zm-5 53-1-1v-21l5-31v2zm0 0"/><path fill="#fff" d="m258 492 3 11q2 8 6 14 5-4 5-12c-4-35-2-58 5-86q-25 16-19 73"/><path fill="#21231e" d="m261 503-3-11q1-1 2 2zm6 14-1-1q-4-6-5-13l1 2zm5-12 1 3q-1 5-5 9l1-2q3-4 3-10m5-86-1 2a203 203 0 0 0-3 84q-2-1-2-3a226 226 0 0 1 5-83zm-18 73q-2-1-1-3-4-24 2-46 4-16 16-24l-1 2q-14 12-16 30-4 20 0 41m-1 0"/><path fill="#fff" d="m259 502-14-4q-2 22 5 59 3 32-1 49 24-4 14-62-3-16-4-42"/><path fill="#21231e" d="m245 497 14 5h-3zm5 59q-1 1-1-3-5-23-5-47v-9l1 4q-1 23 3 45zm-1 50v-3q5-23 0-46 2-1 1 3 3 23-1 46m14-62 1 3q4 19 1 40-1 11-11 18l-5 1q-1-1 2-1 10-5 13-15 4-18 1-36zm-4-41q1-1 1 2l3 39-1-3zm-1 72q2 0 1 1zm-3-30 1 2q4 14 3 28-1 1-1-1 1-14-3-29m-4-37q2 0 1 2 0 18 4 35-1 1-1-1-4-18-4-36m1 0"/><path fill="#fff" d="m259 414 9 1-3 18q-7 27-3 62l5 22q-17-3-16-31-3-31 2-51c1-4 4-18 6-21"/><path fill="#21231e" d="m268 416-9-2h3l6 1zm-3 17v-3l3-15v3zm-3 62-1-2q-2-31 4-60v3q-6 29-3 59m5 22-1-2q-4-9-5-19 2 0 1 2 2 10 6 19zm-17-30q2 0 1 2-1 13 6 22 4 5 10 5-1 2-3 1-9-4-12-15-2-7-2-15m3-52v3q-5 24-2 48-1 1-1-3-2-24 3-48m6-22-1 3-5 19v-3zm-1 0"/><path fill="#fff" d="m253 416 5 5-1 14-4 16c-2 20-2 45 4 61q-15-2-14-30-2-23 3-54 1-7 7-12"/><path fill="#21231e" d="m257 422-4-6q1-1 2 2zm1 13q-2-1-1-3v-10h1zm-4 16q-2-1-1-3l4-13v2zm3 61-1-2q-5-18-4-38l1-21v3a188 188 0 0 0 5 58zm-15-30q2 1 1 3 0 11 4 20 4 6 10 6 0 2-2 1-8-3-10-11-3-9-3-19m4-54v3q-4 25-3 51l-1-2q0-27 4-52m7-12-1 1q-4 5-6 11v-2q2-6 7-10m0 0"/><path fill="#fff" d="m279 431-9-2-4 20q0 10 4 17 5-3 6-14z"/><path fill="#21231e" d="m270 429 9 1v1zm-4 20 3-16v-3l1 1-3 18zm3 17q1 1 0 0-4-8-3-17v1q0 8 4 16zm7-14 1 1-4 11-3 2v-1q4-3 5-8zm3-21-3 21h-1zm0-1q2 1 0 0m0 1"/><path fill="#fff" d="M305 453h-9v16q0 9 4 15 4-4 5-12z"/><path fill="#21231e" d="m296 452 9 1h-9zm0 1q0-2 0 0m0 16 1-14v-2q1 0 0 0zm3 14-4-14 1 1q1 7 4 13zm1 1q-1 0 0 0m5-12q-1 8-6 12v-1q5-5 5-11m0-19q0-1 0 0v3l1 16-1-1zm0 0"/><path fill="#fff" d="M314 458h-9l1 16q1 9 4 14 5-3 5-12z"/><path fill="#21231e" d="M305 457h9v1h-9zm0 1q1-2 0 0m1 16v-16h1zm4 14-4-14 1 1zm5-12q-1 7-6 12v-1q5-4 5-12m-1-19 1 1 1 17h-1zm0 1q0-1 0 0m0 0q0-1 0 0"/><path fill="#fff" d="m296 448-9-1-1 17q-1 8 2 14 5-3 7-11z"/><path fill="#21231e" d="m287 447 9 1h-1zm0 0q1-1 0 0m-1 17 2-14v-2l1 1-2 15zm2 14q2 0 0 0v-1q-3-6-3-13h1q0 7 3 14zm7-12v1q-2 8-6 11v-1q5-3 6-11m1-18q0-1 0 0v3l-1 16v-1zm0 0q1 0 0 0"/><path fill="#fff" d="m288 438-10-4c-1 7-3 28 0 37q6-3 8-12z"/><path fill="#21231e" d="m278 433 10 5h-1l-9-4zm0 1q1-1 0 0m0 37q1 1 0 0l-2-12 2-25v1a113 113 0 0 0 0 33zm1 1q-1-1 0 0m6-13h1q-1 8-7 13v-1q5-5 6-12m3-21-2 21v-1zm0 0"/><path fill="#edb92e" d="M291 663c6 5 11-5 6-20-5-11-22-7-12 7h1q-1-4 4-4c7 3 8 16-1 13q-1 1 2 4"/><path fill="#21231e" d="m290 664-2-3v-2h6l1-4-1-5-4-4-3 1-1 3-1 1h-1l-3-9q1-4 4-5h7q3 2 5 6 3 11 1 18l-3 4zm1-1 4 1 2-4q3-6-1-17l-4-5h-7q-3 1-3 4-1 3 3 8 0 1 0 0l1-4h4q3 0 4 3l2 6-2 4-5 1v1z"/><path fill="#edb92e" d="m300 617-6 7q-4 7 0 12l4 10v12q-1 4-3 5-1 2 3 5l1 2h2l1-2 4-4q-3-2-4-6l1-12q0-4 4-9t-1-12z"/><path fill="#21231e" d="m299 617 1-1 1 2 6 8 2 6-2 6-4 9-1 12 4 6v2l-3 2-2 2-1 1-1-1-1-2-3-3v-2q3-2 3-5l-1-12q-1-6-4-9l-2-6q0-4 3-7 5-5 5-8m1 1-6 8-2 6 2 5 4 10 1 12-4 6v1l3 3 2 2h1l1-2 3-3v-1l-3-6v-12q1-6 4-9a9 9 0 0 0 0-12z"/><path fill="#edb92e" d="M296 652h8q3 1 3 3 0 3-3 3l-8-1q-3 0-3-3 0-2 3-2"/><path fill="#21231e" d="m304 653-8-1h8zm3 2-2-2-1-1h1q2 0 2 3m-3 3q2 0 3-2 0 3-2 3zm-8-1h8v1zm-3-3q0 3 2 3v1zm1 0h-1zm2-2-2 2h-1q0-2 3-2"/><path fill="#fff" d="M312 573v-8q-6-3-14 7-6 13-13 18 11 3 17-4z"/><path fill="#21231e" d="m313 565-1 8v-8zm-15 7q4-6 12-7l2 1q0 1 0 0-5-1-8 1zm-13 18q0 2 0 0a45 45 0 0 0 13-18v1a52 52 0 0 1-13 18zm17-5v1q-4 5-10 5h-7l1-1q6 2 12-1zm10-12-4 4-6 8v-1l8-10zm0 0"/><path fill="#fff" d="m318 575-9-4-7 14q-3 8-1 15 5-1 10-8z"/><path fill="#21231e" d="m309 570 9 4-1 1zm-6 15 7-14v-1 1zm-2 14q-1-7 2-15l1 1q-3 6-2 14zm0 1q-1 0 0 0m10-9v1q-3 6-10 8v-1q7-2 10-8m7-16q0-1 0 0l-7 17v-1zm0-1q1 2 0 0"/><path fill="#fff" d="m320 575-9-2-3 16q-1 9 2 15 5-2 8-11z"/><path fill="#21231e" d="m311 573 9 2zm0 0q0-1 0 0m-3 16 2-15 1-1v1zm2 14q-3-7-2-15v1zm0 1q-1 0 0 0m7-11 1 1q-2 6-8 10v-1q6-4 7-10m3-18-3 18q-1 0 0 0zm0 0q0-1 0 0"/><path fill="#fff" d="m322 562 5 1q8 4 3 16-7 12-7 22-8-9-6-18z"/><path fill="#21231e" d="M327 563h-5l1-1zm3 16q3-6-1-14l-2-1h1q4 3 4 8t-2 8m-7 22a47 47 0 0 1 7-21v1a50 50 0 0 0-7 21m-6-18q-1 5 2 11l4 5h-1q-4-4-6-12zm5-21q0 1 0 0l-1 6v-6zm-1 0"/><path fill="#fff" d="m324 558-9-3-6 15q-2 8 0 14 5-1 10-8z"/><path fill="#21231e" d="m316 554 8 4v1l-9-4zm-6 16 6-14q0-1 0 0v1zm-2 14q1 1 0 0-1-8 1-14h1q-3 7-1 14zm1 1q-2-1 0 0m9-9a15 15 0 0 1-10 8v-1a15 15 0 0 0 9-8m6-17-6 17v-1zm0-1q1 1 0 0m0 0q1 1 0 0"/><path fill="#fff" d="m318 552-2-13q-3 1-7 7l-2 2-2 6q-4 14-10 20 12 1 16-8z"/><path fill="#21231e" d="m317 539 2 13-1-1-2-12zm-8 7 5-6h2l-1 1-3 3zm-2 2 2-1v1zm-2 6-1-1 3-5v1zm-10 20q0 1 0 0a47 47 0 0 0 9-20l1 1a48 48 0 0 1-9 19zm0 0q-1 1 0 0m16-8q-3 5-9 7h-7 1q8 1 12-5zm7-14q2 0 0 0l-3 6-4 8v-1l6-12zm1 0"/><path fill="#edb92e" d="M410 587c3 1 6 2 14 11l12 24 5 3 12 1q7-2 7 4c1 1-1 5-4 3-2-2-9-2-12-3q3 5 12 6 5 2 2 8l-1 1q-4 3-6-1c0-3-9-9-11-11l8 14q4 3 0 7h-5q-6-1-4-6l-4-13-2-5q-5-4-11-6-6 2-7-4l3-5q3-1 5 2l6 5c2-1-4-5-10-14q-10-16-9-21"/><path fill="#21231e" d="M410 587q-1 8 8 22l11 12-5-4-6-3q-2 0-2 4l-1 2q0 3 3 4h4l6 2 5 5 1 2 1 3q5 8 3 12l1 4 4 3 3-1 2 1h1q2-2 1-5l-1-2-1-1-4-7-3-5 3 2q7 5 7 7l3 3 4-2h1l1-6q-1-3-4-3l-7-3-4-2 4 1 7 1 2 1 1-1q3-1 1-3v-3l-2-1h-11l-6-2-4-3q-6-6-13-23-9-11-14-11m1 1 13 10 12 24 5 3 6 1 6 1q2-3 5-1l2 2-1 1v1h1l-1 2-1 1h-2q-1-2-7-2l-5-1h-1 1q0 3 5 4l7 3q3 0 3 2l-1 5h-1v1l-3 1-2-2-7-7-5-4h-1l5 8 3 6h1v1l2 2-2 4h-5l-4-2v-4q2-4-3-13l-1-2-1-3-6-4q-4-3-6-2h-4l-2-3 1-3 1-3q3 0 5 3l6 4 1-1-1-1-2-2-8-10q-8-13-8-20"/><path fill="#edb92e" d="M409 674c6 5 11-4 6-20-4-11-22-9-12 7l1-1q0-5 4-3c8 3 8 17 0 13q-2 1 1 4"/><path fill="#21231e" d="M409 674q-2 0-2-3v-1l1-1 4 1 2-4-2-5-4-4h-3v3l-1 1h-1q-4-6-3-10 0-3 4-4l6 1 6 6q3 11 1 18l-4 4zm0 0q3 2 4 1l3-3q2-7-1-18l-5-5q-3-2-6-1t-4 4l3 8 1 1v-1l1-3 3-1 5 4 1 6-1 4h-5v1z"/><path fill="#edb92e" d="M459 632q5-2 6 0t1-1q-3-7-8-4l-2 2z"/><path fill="#21231e" d="M459 632h6l1 1v-2l-4-5-4 1-2 1v1l2 2zm0-1-1-1 1-2h4l4 4v1h-1q-1-3-6-1"/><path fill="#edb92e" d="M417 621q-4-3-7-2-2 0-1-1 5-6 10-1l2 3z"/><path fill="#21231e" d="m417 622 2-1 2-1v-1l-2-2q-2-3-5-3t-5 4l-1 1h2q3-1 7 3m0-1q-4-5-7-2h-1v-1q3-3 5-3l4 2 2 2z"/><path fill="#edb92e" d="m442 651 2-5 3 3q5 7-2 13l-1-2q1-2-2-9"/><path fill="#21231e" d="m442 651 2 9v2h1q4-3 4-6 1-4-2-7l-2-2-1-1-2 3zm1-2 1-2 3 3 2 6-4 5-1 1v-2q1-1-2-9z"/><path fill="#edb92e" d="M454 643q4 3 4 5 0 3 1 1 4-11-6-11z"/><path fill="#21231e" d="M454 643q3 3 3 5l1 2h1v-1q3-5 1-8t-7-3v5zm0 0v-3q4 0 5 2 2 3-1 8v-1q0-3-4-5m-23-27v1l-1 1v1l2-1zm-5 0 1 1 2-1h1v1l1-1-1-1h-2zm3-3-1 1v1l-2 1 1 1 2-1zm-5 0v1l2-1h1l1 1 1-1-2-1h-1zm2-4v2l-1 1v1l2-2zm-5 1 2-1h1l1 1 1-1-1-1h-2zm2-5v2l-1 2 2-2zm-5 0v1l2-2h1l1 1v1l1-1-1-1-2-1zm2-4v2l-1 2v1l2-2zm-6 0 1 1 2-2h1l1 1h1l-1-2h-2z"/><path fill="#fff" d="m374 580 7-3c3 2 4 10 0 16q-9 11-11 20-6-10-3-19z"/><path fill="#21231e" d="m373 579-4 9-2 5q-5 8 3 19h1q2-10 10-20 3-4 3-9 0-6-3-8zm1 1 7-3q2 2 2 7 1 5-3 9-7 9-10 19-6-10-2-18l2-5z"/><path fill="#fff" d="m368 573 7-3c3 3 9 11 4 17q-10 10-14 19-7-9-4-18 7-11 7-15"/><path fill="#21231e" d="m368 573-3 6-4 7q-5 9 4 19v1-1l9-13 5-6q4-4 1-10l-5-7zm0 1 7-3 5 6q2 6-1 10l-5 5-9 13q-8-10-3-17l3-7z"/><path fill="#fff" d="m383 572 7-3q6 5 0 17-8 10-10 19-7-10-3-19z"/><path fill="#21231e" d="m383 572-4 9-2 5q-4 9 3 19v1-1q2-9 11-19 3-4 3-10l-4-7zm1 1 6-3q2 1 3 6 0 6-3 9-7 10-10 19-6-10-3-17l3-5z"/><path fill="#fff" d="m415 502 2 56q1 9 5 13 4-5 5-14l-1-52q-7-19-11-3"/><path fill="#21231e" d="M416 558q2-1 1-2l-1-53-1-1 1 48zm7 13-1-1q-5-6-5-12v2q0 6 5 11zm4-14-1 2q0 6-4 12l2-1q3-6 3-13m0-52-1 2 1 50zm-12-3 1-2 3-6 4 3 3 8v-2q-1-4-5-9-2-1-4 1zm0-1"/><path fill="#fff" d="m443 495 2 60c0 5-7 35-10 41-9-6-11-26-10-47 2-21 0-39-1-43v-14z"/><path fill="#21231e" d="m445 555-2-60-1 3zm-10 41 1-2 7-26 2-13-1 2q-2 16-6 31zm-9-47q-2 1-1 3-2 15 2 32 1 8 8 12l-2-2q-6-8-7-17zm-2-43v3q3 18 1 35v5l1-3a178 178 0 0 0-2-40m0-14v1l-1 13q2 0 1-2zm18 3c2 0-1-1-1-1l-16-3q0 2 2 2zm1 0"/><path fill="#fff" d="m453 506-1 59c0 6-8 35-12 41-9-9-7-38-6-47 3-18 3-39 2-42v-15z"/><path fill="#21231e" d="m453 566 1-60q-2 1-1 3l-1 56zm-12 40 1-2 8-26 3-12q-2 0-1 2l-8 30-4 8zm-6-47q-2 1-1 3-2 15 0 32 2 7 6 12l-1-3q-5-9-5-19-1-13 1-25m1-42v2q1 18-1 35l-1 5 1-3zm0-15v1l-1 14q2-1 1-2zm17 5q1-2-2-2l-15-4q1 2 3 2zm1-1"/><path fill="#fff" d="m461 521-15-2c1 7 0 26-2 41-3 15-6 51 9 62 8-18 2-38 6-55q6-25 2-46"/><path fill="#21231e" d="m446 519 15 3q0-2-3-1zm-3 41q2 0 2-2l2-39q-2 1-1 3zm10 63-2-3q-7-8-8-19-3-21 1-39 0-3-1 0-4 19-1 40 2 11 9 20zm7-55q-2-1-2 2c-2 13 1 28-2 41l-4 11q1 1 2-2 5-15 4-34zm1-47v3q3 22-2 43 1 1 1-2 5-21 2-44zm1 0"/><path fill="#fff" d="m403 489 3 56q1 10 6 13 4-5 4-13l-2-53q-7-19-11-3"/><path fill="#21231e" d="M406 545v-2l-2-52q0-3-1-1l2 48zm7 14-1-2q-5-4-5-12-2 0-1 2 2 8 6 12zm4-14q-1-1-1 1l-4 12q1 1 2-1zm-2-53q-2 0-1 2l2 50q1 2 1-1zm-12-3 1-2 3-5q3 0 3 3l4 7v-2l-5-8q-3-2-4 1zm0 0"/><path fill="#fff" d="m430 458 1 46q-1 10-5 17-5-4-6-14l-1-42 9-6z"/><path fill="#21231e" d="M430 504q2 1 1-1v-45q-1-1-1 1zm-4 16q3-6 4-15h-1q0 8-4 14zm-6-13v2q0 6 6 12 1-1-1-2-4-5-5-12m-1-41v39l1 1v-3zm9-7-8 5h2zm0 1q1-1 0 0m2-2q1-1 0 0l-2 1v1zm1 0q0-2-1-1z"/><path fill="#fff" d="M419 465v41q0 8-4 13-5-3-6-13l-2-32c4-1 9-7 12-9"/><path fill="#21231e" d="m419 506 1-1v-40l-1 1zm-3 13q-1 2 0 0 4-6 4-13-1-1-1 1 0 7-4 12zm-7-13v1q2 7 6 13v-2q-5-5-6-12m-1-32q-1-1-1 1l2 31v-1zm11-9q1-1 0 0l-10 8q-2 0-1 1h1zm1 0q-1-1 0 0"/><path fill="#fff" d="m429 456 10-14c2 9 5 62 2 67q-1 9-5 13-6-3-6-13c1-6 0-46-1-53"/><path fill="#21231e" d="m439 442-11 14 2-1zm1 67 2-2v-18l-3-47v2l2 31v29zm-4 13h1q4-6 4-13l-1 2q0 6-4 11m-6-13v2q0 8 6 12l-1-2q-5-5-5-12m-1-53v2l1 32v19l1-1v-29zm0 0"/><path fill="#fff" d="m450 493 1 17q-1 9-4 14-6-4-6-13 0-35-4-67l9-5q7 44 4 54"/><path fill="#21231e" d="M450 510q2 0 1-1l-1-16zm-3 14q3-5 3-12-1-1-1 1 0 8-4 12zm-6-13-1 2 6 12v-2q-5-6-5-12m-4-67c-1-2-1 1-1 1q5 33 4 66l1-2q1-33-4-65m8-5-8 4h3zm5 54q1-10-1-21l-4-32v3l5 40zm0 0"/><path fill="#fff" d="m460 510-2 11q-2 9-7 13-5-4-4-13c4-34 2-57-5-86q26 20 18 75"/><path fill="#21231e" d="m458 521 3-11q-2 1-2 3zm-6 13q4-5 5-12l-1 2q-2 6-6 11zm-5-13-1 3q0 6 5 10l-1-2q-4-5-3-11m-5-86v2a214 214 0 0 1 4 84q2 1 1-3a227 227 0 0 0-4-83zm18 75q1 1 1-2 3-23-2-47-4-15-17-27l2 3q13 14 16 33 4 21 0 40m1 0"/><path fill="#fff" d="m460 521 14-3q2 22-5 58-3 32 1 50-24-7-14-64 4-15 4-41"/><path fill="#21231e" d="m474 518-15 2q2 2 4 1zq1 0 0 0m-5 58 1-3q5-23 5-47v-8q-2 1-1 3 1 23-3 45zm1 50v-3q-4-23 0-47-2 1-1 3-5 23 1 47m-14-64-1 3q-4 20-2 39 2 12 12 20l5 2-3-2q-9-5-12-17-3-18-1-35zm4-41-1 3q0 19-4 38 2-1 2-3 3-18 3-38m0 73q-1 0 0 0 0 1 0 0m4-30q-2 0-2 2-3 13-2 28v-2q0-13 4-28m4-36q-2-1-1 1l-4 35q1 1 1-1zm-1-1q1 2 0 0"/><path fill="#fff" d="M460 432h-10l4 18q6 29 3 64l-5 20q16 0 16-28 3-31-2-52c-1-4-4-19-6-22"/><path fill="#21231e" d="m451 433 9-1h-10zm3 17v-2l-3-16v3zm3 64 1-3q3-30-4-61v3q6 31 3 61m-5 20 1-2q4-8 4-18l-1 2q-1 11-5 18zm17-28q-2 1-1 3 1 13-7 21-4 4-9 4h3q9-2 12-12zm-3-52v3q5 25 2 49l1-3q2-24-3-49m-6-22 1 2 4 20q2-1 1-3zm0 0"/><path fill="#fff" d="m466 435-5 5 1 14 4 17c1 20 1 44-4 60q14 0 14-28 2-22-3-55-1-7-7-13"/><path fill="#21231e" d="m462 440 4-4q-1-1-2 1zm-1 14q2-1 1-3v-10q0-2-1 0zm4 17q2-1 1-3l-4-14v2zm-3 60 1-2q4-18 4-37l-1-21v2q2 24-2 47 0 6-3 10zm15-28q-2 1-1 3 0 11-4 19-4 6-10 5 0 2 2 1 8-2 10-9zm-4-55v3q4 27 3 52l1-3q0-25-4-52m-7-13 1 2q5 5 6 11v-2q-2-6-7-11m0 0"/><path fill="#fff" d="M440 446h9l4 20q0 11-4 17-4-4-7-15z"/><path fill="#21231e" d="M449 446h-10 1zm3 20h1l-3-17v-3l-1 1zm-3 17q4-7 3-17v1q0 9-4 16m-6-15 4 11 3 3v-1q-4-3-5-9zm-3-22 3 22 1-1zm0 0q-1-1 0 0m0 0q-1 1 0 0m0 0"/><path fill="#fff" d="m414 464 9 1v17q-1 8-4 13-5-4-5-13z"/><path fill="#21231e" d="m423 465-9-2 1 1zm0 17-1-14v-2l-1 1zm-4 13q0 1 0 0h1l4-13h-1zm0 0q1 1 0 0m-5-13q1 7 6 12 1 0 0 0-5-6-5-13m0-18q0-1 0 0v2l-1 16h1zm0-1q0 1 0 0"/><path fill="#fff" d="m405 467 8 1v17q0 9-4 13-5-4-5-13z"/><path fill="#21231e" d="m413 468-8-2v1zm1 0q-1 0 0 0m-1 17v-17l-1 1zm-4 13q-1 1 0 0l4-13h-1q-1 7-5 13zm0 0q0 1 0 0m-5-13q1 7 6 12-5-6-5-13m1-19v1l-1 17h1zm0 1q-1-2 0 0m0 0q0-1 0 0"/><path fill="#fff" d="m423 460 9 1 1 17q0 9-3 14-4-4-6-13z"/><path fill="#21231e" d="m432 461-9-1v1zm0 0q-1-1 0 0m1 17-2-14v-2l-1 1 2 15zm-2 13q3-7 3-13h-1q0 8-3 13zm-1 1q1 1 0 0m-6-13q1 7 6 12v-1q-4-4-6-12m-1-18v3l1 16zm0-1q-1 1 0 0"/><path fill="#fff" d="m431 452 10-3c1 7 3 29 0 38q-6-4-8-14z"/><path fill="#21231e" d="m440 449-9 3h1zm1 0q-1 0 0 0m0 37 2-12-2-26-1 1q3 9 2 18zm-1 1q2 1 0 0m-7-14q1 7 7 13v-1q-6-6-7-13m-2-21q0-1 0 0l2 21v-1zm0 0"/><path fill="#edb92e" d="M428 677c-6 3-11-8-6-22 5-9 22-3 12 10l-1-1q1-4-4-4c-7 1-8 14 1 13z"/><path fill="#21231e" d="m428 677 2-2 1-2-1-1h-1q-2 2-4-1l-1-4 1-5 4-2 3 1 1 3v1h2l3-8-4-6-7-1-5 5q-4 11-1 18l3 4zm0-1-4 1-3-4q-2-8 2-17 1-4 4-5l6 1q4 1 4 5l-3 8v-1l-1-3-4-2q-3 0-4 3l-2 5 2 5q1 2 5 1v1z"/><path fill="#edb92e" d="m419 629 6 9q5 7 0 12l-4 9-1 12 4 6q1 1-3 4l-1 2h-2l-2-3-3-4q4-2 4-6l-1-11q0-5-4-11-4-5 0-12 5-3 6-7z"/><path fill="#21231e" d="m420 629-1-1-1 1-6 7q-3 3-2 6l2 7 4 10 1 11-4 5v2l3 4 2 2 1 1 1-1 1-2 3-2v-2l-3-6v-12q1-4 5-9l2-5q0-4-3-7zm-1 0 6 9 2 7-2 5q-3 3-4 9l-1 12q0 3 4 6v1l-3 3-2 2h-1l-1-3-3-3v-1q3-2 3-6v-11q-1-6-5-11l-2-6q0-3 3-5 5-5 5-8"/><path fill="#edb92e" d="m423 664-8-1q-3 0-3 2 0 3 3 3l8 2 3-3z"/><path fill="#21231e" d="m415 664 8 1v-1l-8-1zm-3 1 2-1 1-1h-1q-2 0-2 2m3 4q-3 0-3-2v-1 1zm8 0-8-1v1zm3-2-2 2v1q3 0 3-2zm-3-3 2 2h1q0-2-3-3"/><path fill="#fff" d="M407 583v-8q6-2 14 9 6 14 13 21-11 1-17-8z"/><path fill="#21231e" d="M406 575v8l1-1zm15 9q-4-7-12-9h-3l1 1 8 2zm13 20q0 1 0 0a58 58 0 0 1-13-20v1a66 66 0 0 0 13 20zm-17-7q4 5 10 6l7 1-1-1q-6 1-12-3zm-10-14q-1 0 0 0l4 6 5 8 1-1-8-12zm-1 0"/><path fill="#fff" d="m401 583 9-2 6 15q3 9 2 15-6-1-10-10z"/><path fill="#21231e" d="m409 580-8 3h1zm7 17 1-1-7-15v-1 1l6 15zm2 14q0 1 0 0 2-8-1-15l-1 1q3 8 2 14m0 1q2-1 0 0m-10-11q4 6 10 10v-1q-7-3-10-10m-7-18q0-1 0 0l7 18zm0 0q-1 0 0 0"/><path fill="#fff" d="M399 583h9l3 16q1 9-2 15-5-3-8-13z"/><path fill="#21231e" d="M408 582h-10l1 1zm0 0q-1 0 0 0m2 17h1l-3-15v-2l-1 1zm-1 14q3-7 2-15v1q1 7-2 13m-8-12v1q2 7 8 12v-1q-6-5-8-12m-2-19 3 19v-1zm0 1"/><path fill="#fff" d="m397 570-5-1q-8 4-3 16 6 14 7 23 8-7 6-17z"/><path fill="#21231e" d="m392 569 5 1-1-1zm-3 16q-3-8 1-13l2-2h-1q-4 3-4 8-1 4 2 8m7 23q-1-1 0 0a54 54 0 0 0-7-23v1a60 60 0 0 1 6 22zm-1 0h1zm7-17q1 6-2 11l-4 5h1q5-5 6-12zm-5-22 1 6v-4zm0 1"/><path fill="#fff" d="m395 566 8-3 7 17v14q-5-1-10-10z"/><path fill="#21231e" d="m403 563-8 2v1zm6 17-6-15v-1l-1 1zm1 14q1-7-1-15h-1q3 8 1 14m0 1q1-1 0 0m-10-11a21 21 0 0 0 10 10v-1a20 20 0 0 1-10-10m-5-18 6 18q1 0 0 0zm0-1q-1 1 0 0m0 0q-1 1 0 0"/><path fill="#fff" d="m401 560 2-12 7 8 2 2 2 7q4 14 10 22-12-2-16-12z"/><path fill="#21231e" d="m402 548-2 12 1-1zm8 8-6-7h-2l1 1 4 4zm1 3 1-1-2-2v1zm3 6v-1l-2-6v1zm10 21q-1 1 0 0a58 58 0 0 1-9-21q-1-1-1 1a58 58 0 0 0 9 21zm-16-11v1q3 6 9 9l7 2-1-1q-7-1-12-6zm-7-15 3 6 4 9v-2l-6-12zm-1 0"/><path fill="#fff" d="M399 459h4q-9-6-16-19c-5-10 2-24 6-32q11-7 15-21c0-6-13-6-24-2-12 4-14 3-18 3q-2 11 4 9-8 14-11 37-1-22-11-39c4 0 7 0 5-8-4-1-6 0-18-7-11-6-25-9-24-3q4 15 15 24c4 9 11 25 6 34q-8 11-16 15l4 1c-1 1-8 3-9 2-5-4-11-13-16-19q-20-23-17-38c4-10 15-21-1-20-16 2-28 24-33 51l-3 25q11-4 14-10l-2 10q11-1 14-11l3-7h8l16 23c6 10 15 17 18 18q2 0 2-8l45 4 46 5q0 8 2 8 6 0 18-14l16-20q5 2 8 1l3 7q3 10 14 14l-3-11q4 6 15 12l-3-25c-5-28-18-51-33-56-16-4-5 9-1 20q3 15-18 34c-4 5-10 14-15 17z"/><path fill="#21231e" d="m400 459 4 2 4 2 10-11 5-6q21-21 18-34l-4-9-4-10 2-2 7 1q11 3 21 19 9 16 12 37l2 15 2 10v1h-1l-14-11 2 9q-12-4-15-14l-2-6q-3 1-8-2l-7 9-9 11-10 11-8 4q-2 0-2-3v-5l-46-6-45-3v5l-2 2q-3 0-8-5l-10-12-16-23h-8l-3 6q-3 10-14 12v-1l2-8-14 9h-1v-1l2-10 2-15q3-21 12-35 10-15 21-16h6l3 3-4 9-4 8q-3 13 18 38l5 7 10 12h4l4-2-3-1q9-6 16-16 3-4 1-14l-6-15-1-4q-13-10-16-24 0-2 3-3h6l16 6 18 7h1l-1 7-4 1q8 15 10 35 2-19 11-33l-4-1-1-8h4l15-3q8-3 16-3l6 1q3 1 3 4h-1q-1 13-15 21l-2 3-5 15q-2 9 1 14 7 12 16 18v1zm-1 0 3-1q-9-6-15-18-4-6-2-14l6-15 1-3v-1q13-8 16-21l-2-2-6-1-16 2-18 4q-1 5 1 6l3 1h1v1q-9 14-11 37h-1q-2-24-11-39v-1h4q2-1 1-7h-3q-6-1-15-7-9-5-16-5h-6q-2 0-2 2 3 13 15 24h1l1 4 5 15q3 10-1 15-6 9-15 15l3 1h1-1l-4 2-5 1-11-13-5-7q-20-25-18-38l5-8 3-9-2-2h-6q-11 1-20 15-9 15-12 35l-3 15-1 10q11-4 14-10h1l-2 10q10-3 13-11l2-7h9l7 10 10 13q4 7 10 12l7 6 1-2v-6h1l45 3 46 6h1v6l1 2q3 0 7-4l10-10 10-12 6-8h1l8 1 3 7q3 10 13 13l-2-10h1q3 6 14 12l-2-10-2-15q-3-21-12-37-9-15-20-19h-6l-2 1 3 9 4 10q3 13-17 35l-5 6q-7 8-11 10-1 1-5-1z"/><path fill="#edb92e" d="M329 408q-3 2-13 1-16 1-18-11 6 8 14 7l13-2z"/><path fill="#21231e" d="m316 410 1-1h10l2-1v1l-5 1zm-18-12q-1 1 0 0v1l5 7 12 3h1l-1 1-12-3a13 13 0 0 1-6-9zm14 7q0 1 0 0-6 1-10-2l-5-4h1l9 6zm13-2q0 1 0 0l-6 1-7 1 11-2zm4 6-3-4-1-1h1q3 2 3 5m-4-25v2l-8-4h-3v-1l8 2zm6 3 1 1-3-1-4-1v-2zm1 1-1-1zm9 5 7 2v1zm-18-4-1 1-5-5-1-3h1l4 6zm5-3 1 1-3 3-4 1v-1l1-1 2 1zm-7 3-1-2q-2-1 1-4l3 1zm13 59q-4 3-8 3-5 1-11-2h1q5 2 10 1 4 0 7-3m2-2-2 2-1-1zm3-3h-1zm-4 12 4-11v-1h1zm-1 0 1 1zm11-6 1 1-7 5-4 1v-1l9-4zm1 1-1-1zm2 5-4-12v-1h1zm0 1 1-1zm6-9q-1 6-6 9v-1q-1 0 0 0zm1 0h-1z"/><path fill="#edb92e" d="M304 378q-18 1 0 21 2 3 3 0 3-7 7-3 1 3 7 3c6 6 11 10 3 9l-11 1 2 4h14c10 2-16-30-16-32 0-3-6-8-9-3"/><path fill="#21231e" d="M304 398h-1l-8-11q-2-4 1-7l8-3-1 1-7 3q-1 4 1 8zm3 1h-2l-2-1h2zm8-3-2-1q-4-1-6 4v-2q2-3 6-3zm6 2-1 1-5-1-1-2h1l3 2zm3 10h1l3-1-1-2-6-6h1l6 7v2zm-11 1q-1 1 0 0l10-1h1-1zm2 3-2-4 1 1zm15 0-2 1h-13 1zm-17-31 1 1 16 23 2 7-2 1v-1h1l-2-7-15-22zm-9-3v-1q2-3 5-1 3 1 5 5h-1l-3-4q-2-2-5 0zm1-1-1 1zm5 9-6-8 1-1zm-7-4 1 2h-2v-1zm-50 70q1-12 6-22 3-10 9-18l1-1-7 12-8 27zm4 60q-5-18-5-38l1-22v3a183 183 0 0 0 5 57zm1 0h-1z"/><path fill="#edb92e" d="m390 415 13 3q17 3 18-8-5 7-14 4l-13-4q-3 0-4 5"/><path fill="#21231e" d="m403 418-10-3-2-1v1l5 2zm18-8q1 2 0 0v1q-2 5-6 6l-11 1h-1 13a10 10 0 0 0 6-7zm-14 4v1q6 2 10-1l5-3-1-1q-4 5-10 5zm-14-4 6 2 7 3-1-1-10-4zm-4 5h1l3-5q2 0 0 0h-1zm16-25v1zm-11 1v2l8-2h3v-1q-4-1-8 1zm-7 2 3-1h4v-2l-6 2zm0 1v-1q0-1 0 0zm-9 3-1-1h-7v1zm18 0 4-5 2-2-1-1-4 6zm-5-5-1 1 3 4 3 1h1l-1-1-2-1-3-3zm7 4 1-1q2-1-1-4l-3 1zm-13 57 8 5h11l-1-1h-10zm-2-2 2 3 1-1zm-2-4h1zm4 12-4-11v-1h-1zm1 0-1 1zm-12-8q3 5 7 7l4 2v-1l-9-6zm1-6q1 0 0 0m-4 12q3-5 3-11v-1zm1 0h-1zm-6-10q2 6 6 10v-1q-3-3-5-9m-1 0"/><path fill="#edb92e" d="M415 389q18 4 0 21-3 2-3-1-2-7-8-4 0 4-6 1c-7 5-11 8-3 9l11 4-2 3-15-3c-9 0 16-27 17-28-1-4 6-8 9-2"/><path fill="#21231e" d="M415 409h1l8-10q1-3-1-7l-8-4 1 1q4 1 7 5 1 4-1 7zm-3 0v1q0 2 2 1l1-1h-2zm-8-5h2q4 0 5 5l1-1q-2-5-6-5zm-6 2 1 1q3 1 5-1l1-1h-1l-3 2zm-3 10-1-1-3-1 1-2 6-5h-1l-6 5v3zm11 2q2 1 0 0l-10-3h-1l1 1zq2 0 1-1m-2 3 2-3h-1zm-15-3 2 1 13 3-1-1zm17-27-1 1-16 19-2 6 2 2v-1l-2-1 3-6 15-19zm9-2v-1q-2-3-5-2-3 0-5 4l1 1q0-3 3-4 2-2 5 1zm-2 0 1 1zm-5 7v1l6-7-1-1zm7-1 1 1 1-1zm50 77-6-22-9-20q-1-3-2-1 5 7 7 13 6 14 9 29 0 2 1 1m-4 60q6-18 5-37l-1-23v3a180 180 0 0 1-5 56zm-1-1 1 1zm-108-88q-1 0 0 0l1 8 5 9h1l1-1 2-2 2-6 1-7-1 1v4l-4 8-2 2-4-8-1-5z"/><path fill="#c6363c" d="M408 466v81q0 21-14 35-14 13-35 12-20-3-34-19-14-15-14-38v-81q48 3 97 10"/><path fill="#fff" d="M376 503v-29c7-2 21-6 22 8 0 6-7 9-9 4q-1-5 1-5 3-1 3 3c6-3-5-11-11-3q0 5 2 8-2 3-2 8c6 9 17 4 11 0q0 3-3 2-2-2-1-5c2-5 9-1 9 6-1 13-15 6-22 3"/><path fill="#21231e" d="m376 503 2 1 13 4q7 1 8-8 0-6-4-8l-4-1-3 3v3l2 2h3l1-2v3l-2 2-5-1q-3-1-5-5l1-4 2-3-2-3-1-5q2-3 5-3h5l2 3v2l-1-2-3-1-2 2v4l3 3h4q4-3 4-7-1-9-8-10l-13 1h-2zm1-29 1-1h13q7 2 7 9 0 5-4 6h-3l-2-3v-3l1-1 2 1 1 2q3-1 2-3l-3-3-5-1-6 4q-1 2 2 5l1 3-1 3-2 5q2 3 6 5h5q3 0 3-2l-2-4v1l-1 2h-2l-1-2v-3l2-2 3 1q4 3 4 7 0 7-7 7-4 0-13-4h-1z"/><path fill="#fff" d="M408 515v21l-38-4v61l-11 1-10-3v-62l-38-2v-21l38 3v-50l21 2v50z"/><path fill="#21231e" d="m409 537-39-5v62h-11l-10-2v-62l-39-3v-22l39 3v-50l21 3v49l39 5zm-1-21-39-5v-50l-19-2v50l-39-3v20l39 3v62l9 2h10v-62l39 5z"/><path fill="#fff" d="M343 499v-29c-7-2-21-9-23 4 1 6 7 11 10 6q1-5-1-6-3 0-3 3c-6-4 5-10 11 0q0 4-3 7 3 3 3 8c-6 9-17 1-11-2q0 3 3 3 2-1 1-5c-2-6-9-2-10 4 2 14 16 9 23 7"/><path fill="#21231e" d="M343 500h-2q-9 3-13 2-7-1-8-10 0-4 4-7h4l3 3v3l-2 2h-3l-1-2-1 2 3 2 5 1 5-4-2-5-1-3 1-3 2-4-5-5h-5l-3 2 1 2 1-2h3l2 2v4l-3 2h-4q-4-2-4-8 1-8 8-8l13 3 2 1zm-1-30h-2l-12-4q-7 1-7 8 0 4 4 7l3 1 2-2v-4l-2-1h-1l-1 2v1-1q-3-1-2-3 0-2 3-3h5l5 5q2 2-1 6l-1 2 1 3q3 4 1 5-2 4-5 4h-5l-3-3q-1-2 2-3v-1 1l1 2 1 1 2-2v-3l-2-2h-3q-4 2-4 6 0 8 7 9l12-1 2-1z"/><path fill="#fff" d="M343 567v-30c-7-2-21-9-23 4 1 7 7 11 10 6q1-4-1-5-3-1-3 2c-6-4 5-10 11 0q0 4-3 7 3 5 3 8c-6 9-17 2-11-2q0 4 3 3 2-1 1-5c-2-5-9-2-10 4 2 14 16 9 23 8"/><path fill="#21231e" d="m343 567-2 1-13 1q-7-1-8-10 0-4 4-7h4l3 3v4l-2 1h-3l-1-2-1 2 3 2 5 1 5-4-2-4-1-4 1-2 2-5-5-5h-5l-3 2 1 2 1-1 3-1 2 3v3l-3 3-4-1q-4-3-4-8 1-8 8-8l13 3 2 1zm-1-29-2-1-12-3q-7 0-7 7 0 5 4 7l3 1 2-2v-3l-2-2h-1l-1 2v1q-3-3-2-4l3-3 5 1q3 1 5 5 2 2-1 5l-1 2 1 3q3 4 1 6l-5 4-5-1-3-3q-1-1 2-3l1 2 1 1 2-2v-3l-2-2h-3q-4 1-4 6 0 8 7 9l12-1 2-1z"/><path fill="#fff" d="M376 570v-29c7-1 21-5 22 8 0 7-7 9-9 4q-1-4 1-5 3 0 3 3c6-3-5-11-11-3q0 5 2 8l-2 8c6 10 17 5 11 0q0 3-3 2-2-1-1-5c2-5 9 0 9 6-1 13-15 6-22 3"/><path fill="#21231e" d="m376 570 2 1q9 4 13 4 7 1 8-8 0-4-4-8h-4l-3 2v3l2 3h3l1-2v2l-2 2-5-1-5-4 1-5 2-3-2-3-1-4q2-4 5-4l5 1 2 2v2l-1-2h-3l-2 1v4l3 3h4q4-1 4-7-1-8-8-10l-13 1h-2zm1-29h1l13-1q7 2 7 9 0 4-4 6h-3l-2-2v-3l1-2 2 1 1 2v1-1q3-1 2-3l-3-3-5-1-6 4 2 6 1 2-1 3-2 5q2 3 6 5l5 1q3-1 3-3 1-2-2-3v-1 1l-1 2h-2l-1-2v-3l2-2 3 1q4 3 4 7 0 7-7 7l-13-3-1-1zm-67-86v85c1 21 14 41 34 50 16 8 35 6 48-5q18-16 17-41v-79q-49-7-99-10m1 2 96 9v84q-2 32-32 41-26 6-47-13a58 58 0 0 1-17-44z"/></svg>