<svg xmlns="http://www.w3.org/2000/svg" viewBox="0 0 1000 1000"><path fill="#006c35" d="M8 195c171-85 341-54 513-28 155 24 312 45 471-34v672c-171 85-341 54-513 28-155-24-312-45-471 34z"/><path fill="#fff" d="m441 381 4 4q10 21 12 43 0 5 2 5h1c1-8 19-15 37-15q3 0 1-5l1-3q0-16 14-17 17 6 16 21c-1 20-20 20-32 20h-1l-1 1h1l1 1 47 8 2 1v1l-2 2q-4 6-5 15-21 3-43 2-8 2-7 9c2 4 12 10 13 11q6 2 0 11-36-8-47-32-3-2-5 1-12 16-33 23-15 0-23-10l-4-9c-5 2-46 15-42 7q18-13 44-25c1-4 4-16 10-20l-1 4v10c2-1 20-14 22-18v-10c-3-10-8-11-10-16q-3-11 2-15t11 2q6 7 8 17-1 1-4-1l-3-1q4 6 5 11c3 11 2 15-1 22-8 17-19 21-28 27q-1 2 3 7 2 3 12 2 18-8 28-27 2-14-3-29l-8-23q0-7 3-10zm180 262 1 4h1l2 1q3 6 0 9l30 5h12c14 0 14 20 14 21 0 12-5 13-11 14q-4-1-7-6c-3 1-31-2-37-3q-1 3-5 2h-1c-3-3-6-12-3-18-48-6-217-32-254-35-19-3-34-7-44-23l64 8c27 3 153 25 235 35q-8-9 2-14m49-294 2 1 12 25q1 4-1 4l-3-1h-1v1l2 17v3l14 21-8-50q-3-11 1-16 4-6 7-2c4 7 12 28 11 30l-3 1-2 1 2 12 3 21 4 26 18 29c2 3 3 21 0 24l-17-30v16c0 6-11 19-12 16q1-26-1-54l-12-17v4c1 22 2 54-1 61q-3 8-9 11-9 5-17-3-6-3-8-7-5-5-9 1c-2 3-3 17-8 23q-4 5-12 0t-12-15c-2-5-6-22 3-32v-1c0 3-2 18 6 32q7 5 9 1c5-9 9-23 16-30q3-4 10 1s7 13 9 14q5 2 6 1c3-2 6-13 6-22l-4-61-22-31-4-10v-14q2-6 3-2l2 2c5 4 7 6 13 14q4 5 0 4c-2 0-4 0 2 7l2 2-1-3-2-17q1-6 4-7 0-2 2-1m-319-39h1v1c3 2 9 20 12 28q-3 3-6 1h-2l6 48q11-5 9 6 2 6 9 2c4-12 10-10 12-2q2 3 4 2h1v-1l1-6v-1l8-2-3 21c-2 7-11 7-16 3q-3-3-5 0c-3 2-12 7-19-1h-1v6q2 11-1 30c-12 35-81 50-84 6v-14q2-12 6-10 2 1 2 6c1 6 1 15 4 19 9 18 62 18 65-38l-1-3q-3 0-4 3c-8 61-79 50-58-6 4-3 5 4 5 12l2 11c5 10 13 9 25 5 18-9 19-21 18-23q-1-1-4 1l-5 3q-7 3-14-5-2-8 0-16 3-12 14-13 9 1 11 7l5 5q5-1 4-6l-10-69q0-9 5-10zm-55-4q2 0 3 2c4 4 5 16 6 22 0 5 0 16 2 23q3 6 5 2v-3l-3-6c-2-6-4-19-1-25q3-3 6 0l5 11 1 1c1 4 2 6 0 18l8 8q3 3 8 2l-2-12q-9-13-8-24 4-10 10-3 6 4 8 14 0 3-5-1l1 3 1 3q4 12 4 23 0 10-15 13-6 1-10-3l-3-3q-5-2-6 2v12l1 20c-1 26-10 23-10 23l-2-43q-2-5-9-4-7-2-8-12v-25q-1-4-4 0-2 3-2 13c0 9-1 20-10 19-13-3-12-30-11-46 3-3 4 5 6 14l2 9c3 12 6 7 7 1l2-11q5-18 11-19 4 0 6 4c1 4 2 17 0 26 0 6 7 14 7 1l-4-28-1-18q1-3 4-3m219 21 7 4 11 12 4 5q-2-5 1-12 4-6 5-1l1 1q11 15 15 30 0 3-2 1-2-3-2 4l3 22 10 17 21 42c1 4 2 22-1 24q-14-30-29-57l1 11v47q-4 14-11 14a596 596 0 0 0-4-97l-26-42c-2-2-6-8-6-10l-1-12q1-3 3-3m-38-8 3 5v1q4 8 3 21l1 12c2 14 5 16 8 17 5 1 8-3 8-3q1-13-5-21l-1-3q-4-7-3-12 0-4 3-8 6-3 11 2c4 5 8 13 7 16q-2 2-5 1-3 1 0 7l4 16q4 5 9 4h1l4-3q2-1 3 4s-3 10-9 12v1l-4-2v-4l1-1q-1-3-6-1l-4 8c-3 4-11 4-16 1q-6-5-7-10-4-3-7 0l-7 7c-1 0-9 6-19-4-5-6-6-10-6-28q-1-3-4 2c-3 13-7 24-13 21-9 1-21-25-13-48 3-2 4 6 5 15q1 12 4 16c2 3 4 6 7-1q3-18 14-29 4-4 8 3c2 3 2 16 1 25v2q2 7 6 10 4 4 10 0l5-6q2-15-3-26-2-10 1-13l1-2zm248 33 2 2v1l4 6c5 7 11 15 10 17l-4 1-2 1 1 7v2c6 28 7 65 6 103 0 6-3 17-5 21-10 14-22 14-33 15q-11-2 1-10l14-7 11-13 2-9q-2-55-11-116-1-11 2-18zm-136-10 2 2v1c4 7 10 24 9 26l-3 1h-1l-1 7q9 40 8 96-3 11-7 18-13 21-30 20c-7-1-11-8-10-10q21-8 35-21 3-5 2-11c-3-38-5-71-10-109q0-11 4-17zm20 2 2 1v2l14 26q0 4-3 2c-2 0-4-1-3 5l10 97q-3 15-10 17c1-37-6-73-13-112l-2-11q-1-10 3-25zm-209-30 6 2q5 7-1 13v3l3 3s-20 21-25 22c-2 1-13-1-15-1v-1c1-2 21-14 29-22q1-2-4-6-3-7 2-12zm253 78 4 3 3 11h-2l-3-1-2 4-1 16c-5-1-15-11-18-17q-1-6 1-8 3-3 6-1l2 4h4v-6q2-5 6-5m-187 51q-5 0-5 4c1 12 9 19 13 22l4 2h1v-7q1-9 10-9 6-3-3-7zm-176-55c8 1 7 3 9 7l-41 19c1-10 19-26 32-26m-29 44v4q-2 9-1 20c0 4 1 9 5 2q3-3 5 1c1 4-1 13-6 16l-9-3c-4-6-3-24 4-37zm406-6v10c0 2-24 17-27 16-1 0-2-6 0-9zm-143 51 3 2-1 3v5q0 3 3 3 5-3 12-2 4 3 1 6l-16 3-5-1v-5q0-4-3-4-3 1-4-1l1-3 7-6zm168 26 3 1q4 1 3 4l-2 3q-1 4 2 3h1l3 1q2 1-1 4s-10 6-15 5q-3-2-1-4l5-4v-5q-4-2-4-5t2-2zm-65 171q-3 2 0 6l4 1 11 1v-1c2-2 8-1 9 1v1l11 1q2-2 0-6zm35-229h1c5 3 6 15 6 19q-1 12-6 12l-1-7v-5l-2-6-2-8q-1-5 4-5m-176-50 2 2v4c3 9-9 9-15 5q-5-6-3-8-1-4 3-5l1 1v2l1 2h1l1-1 1-2 1-1 1 1 1 2q0 4 2 3v-3zm92-15 2 2 1 5c0 9-10 8-16 5q-4-6-3-9-1-3 3-4l1 1v2l1 1 1 1 1-1 1-2 1-1h1l1 3q1 3 2 2l1-1v-1q0-2 2-3m-251-73q2-1 3 1v5c0 9-9 9-15 6q-5-6-4-8-1-4 3-5l2 1v2l1 1v1h1l1-2v-2l2-1 1 1 1 2q0 4 2 2v-2zm240 33c5 4 8 13 7 18q-2 11-5 12l-1-4v-8l-4-7-3-6q0-5 5-5m143 29h1c5 3 7 14 7 18-1 7-3 14-5 13v-12l-4-7-3-7q0-6 4-5m-313-13 1 2q-2 4-1 8 1 2 3 2c6-4 6-2 6-2-1 1-3 9-8 8q-3 1-8-3-3-10 4-15zm-127-54 1 1c6 2 7 11 6 14q-2 9-4 9l-1-5v-4l-3-5-3-5q0-4 4-5m193 16 3 5-4 15q-5 5-5-1l2-14q1-5 4-5m-81 101 2 1c4 3 6 11 6 14q-2 8-5 9v-9q-1-4-4-7l-2-4q-1-3 3-4m50-107 1 4-2 2q-3 2-3 6 2 3 3 2l2 1-3 4q-4 3-6-1l-2-4 1-1q1-9 7-12zm-100 84-3 1v1l-2 4 4 2h1l3-1v-4q0-2-3-3m177 13h-1v1h-1l3 5 5 1v-1h1l-3-5zm-110-88q-3 1-1 4l3 3q3 0 1-3zm139 34h-2q-4-2 0 4l4 6-1-7zm-11 124"/></svg>