<svg xmlns="http://www.w3.org/2000/svg" viewBox="0 0 1000 1000"><path fill="#006c35" d="M8 195.3c170.8-85.3 341-54.5 513.3-28C676.5 191 833.4 211.8 992 132.7v672c-170.8 85.3-341 54.5-513.3 28C323.5 809 166.6 788.1 8 867.2z"/><path fill="#fff" d="M440.7 381h.2c.7.3 1.7 1.4 4.2 4.2 6.8 13 11 29 11.8 42.9 0 2.7 1.2 4.5 2.3 5.2h.3l.1.1h.4c1-8 19.1-15.9 36.7-15 1.8-.4 1.7-2.6 1.7-5.3v-2.9c-.7-10.1 5.2-17.5 14.4-17.1 12.3 4 16.1 10.8 16.5 21.2-1.8 19.4-20.9 19.7-32.4 19.5q-1 .3-1.5.7v.7h.1l.1.1 1.3 1 46.8 7.3 2.4 1.8v.6c-.4.2-1.1.4-2.5 2.3-1.8 3-4.4 9.5-4.7 14.4-14 2.5-28.4 2.3-43.1 1.9-5.2 2-7.5 4.7-6.6 9 2 4.5 12.1 10.4 13 11 2.3 2 4.5 5.1-.6 11.2-23-4.8-40.3-17.2-46.7-32.3-2-1.6-3.7-.6-5.1 1.2-9 10.6-17.7 19.6-33 23.4-9.2.8-18-3.8-22.7-10.6-2.7-3.7-3-7.2-3.9-8.4v-.2c-5.5 1.8-46.4 15.5-41.9 7.6 10.4-10.3 28-16.8 43.9-26 1.1-3.8 3.3-15.4 9.4-19.2v.1l-.3 3.4-.6 7v3h.2v-.1h.2c1.6-1 19.7-13.5 21.6-18 1.4-2.4.8-7.7.6-9.3v-.2c-3.8-10-8.4-11.6-10.5-16.4-1.6-6.8-1-13.1 2.5-15 3.4-2.3 6.5-1.6 10.2 2a40 40 0 0 1 8.2 16.7c-.5 1-1.7.5-3.3-.3q-2-1-3.1-1v.1a26 26 0 0 1 4.8 10.9c2.4 11.1 1.7 15-.8 21.8-8.7 17-19.2 21-28.7 26.5h-.1c-.1 1 0 4.4 3.2 7.5 1.6 1.4 6 2.6 12 1.7a59 59 0 0 0 28.6-26.6c1.6-9.6-.6-20-3-29.5a469 469 0 0 1-8.2-22.7c-.1-5.6.3-7.3 2.6-9.8q1.9-1.3 2.6-2zm180.8 262h.2v.1c.4.6.8 2.8 1.4 3.8l.3.3.1.1h.1q2 .2 2.8 1c2.1 2.9.5 7.4-.6 9.2 11.7 1.7 19.4 2.6 29.9 4.8 0 0 9-.1 12.2-.4 13.6.5 14.2 20.4 14.2 21-.3 12.4-4.7 12.8-10.8 13.7-3.5-.1-5-2.4-7-5.4-3 .6-31.6-2.5-37-3.5-1.2 1.8-2.4 3.5-5.6 2.6h-.2l-.3-.1-.2-.2c-2.7-2.6-6.1-12.1-3-18.4-48-5.6-217.2-31.2-253.6-35-19.6-2.5-34-6.7-44.5-22.7l63.9 7.8c26.8 3.2 153 25.3 235.1 35-5-4.7-5.2-12.1 2.6-13.7m48.2-294.4q1 .3 1.8 1.3l12.9 25.2c.7 2.5-.3 4.4-1.8 4.3-.9-.5-1-.5-2.4-1.8-1-.2-1 0-1 .8v.6c.6 3.2 1.3 16.3 1.3 16.6l.6 3.3 13.7 21.3a954 954 0 0 0-8-50c-1.1-6.8-2-13 .9-16.1 3.5-4.4 5.7-5 7.5-2.3 4.2 6.9 11.9 27.8 10.4 30.3-.7 1.1-1.5 1.1-2.5 1-.8 0-1.4 0-1.8 1-.2.9.9 9.2 1.3 12 1.6 6.9 2.7 15.5 3.7 21.3a602 602 0 0 1 3.3 26c5.6 8.3 12.8 18.9 18.4 28.6 2 3.3 3.1 21.3 0 23.7q-8.2-14.9-17-29.6v15.6c-.4 6.5-11.4 19.7-11.6 16.3q.7-26-1.9-53.6L686 426.5l.1 4.8c.6 21.4 1.4 54-.9 60.6-2.5 6-5 8.7-9.2 11-6.4 3.6-12 2.4-17.4-2.7a26 26 0 0 1-7.9-7.7c-2.6-2.7-6.4-3.9-8.6 1.3-2.3 3-3 17.4-8.2 23-2.6 2.7-6.3 4.6-12.1 0a31 31 0 0 1-11.7-15c-2.2-4.5-6-22.1 3.1-32.3l.1-.4c-.5 3-2.7 18.2 5.6 31.5 4.5 4.5 7.6 3.3 9.3 1.2 5-9.2 8.7-22.6 16.1-29.5 3-2.4 5.1-3 9.2.9.1.1 7.6 12.4 9.4 13.7a6 6 0 0 0 6.5.7c2.5-1.3 5.1-12.2 5.5-21.5-1.6-21-2-40.1-3.6-61.1l-22.4-31.1c-2-3-4-7.2-4.3-9.6-.2-4.2 0-9.8.4-14.7.8-4.1 1.7-3.2 3.4-1.5l1.6 1.4c5.2 4.6 7 6.9 13 14.2 3.2 4.6 1.7 4.5 0 4.5-2 0-3.7-.1 2 6.7l1.5 1.9-.4-2.4c-.4-5.8-1.4-11.8-1.8-17.6a9 9 0 0 1 3.2-7q1.3-1.6 2.2-1.2m-318.6-38.7q.5 0 .9.2l.6.3.7.7c3.1 2.4 8.7 19.4 11.4 28.3-1.9 2-3.3 1.5-5.3 1q-1.1-.5-2.2-.5l6.1 48c6.6-3 9.4-1.7 9 6.4 1 3.5 5.2 3.6 8.4 1.7 4.5-11.6 10.8-9.8 12.8-1.8.3 2 2 2.5 3.5 2l.6-.5.2-.5.9-6q.1-.5.5-.9a20 20 0 0 1 7.5-2.2 158 158 0 0 1-2.3 21c-2.4 6.7-11 7.3-16.9 2.7-1.8-1.8-3.6-1.3-4.7 0-2.5 2.5-11.5 7.6-18.8-.5h-.3l-.1.1h-.1q-.7.9 0 6c.7 6.3 1.8 16.9-1.8 29.2-11.7 35.2-80.5 50-84 6v-3c0-3.8 0-5.8.7-10.8.8-7.8 3.3-11.6 5.7-10.2 1 1 1.8 2.7 2.3 6.2a61 61 0 0 0 3.2 19.3c9.5 17.8 62.9 17.8 65-38.4q-.2-2-1-2.2c-1.3-.4-2.6 1-3.3 2.8-8.5 61-79.6 49.8-58.7-6.4 4.7-2.6 5 4.3 5.5 12.2a41 41 0 0 0 1.6 11.1c5 9.5 13.5 8.8 24.9 4.4 18.2-9 19-20.8 18.3-22.7-1-.6-2 .1-3.9 1.3q-2 1.5-4.6 2.5c-5 .9-9.8 1-14.6-4.7-1.4-5-1-10.7 0-16.2 1.2-7 8-13 14.6-13 6 .5 8.3 3.5 11 7.1q1.9 2.6 4.3 4.8c3.2.3 5.1-2.6 4.8-5.9l-10.5-69c-.7-6 2-8.3 5.5-9.3zm-55.3-4q1.8-.1 3.5 2c3.7 3.8 4.6 16.2 5.3 22.5 0 5 .6 15.6 2.8 23q2.8 5.7 4.8 1.5 1 0-.7-2.8-1.2-2.3-2.5-6c-2.5-6.4-4-18.9-.7-25.1q2.5-3 5.9.3c2 3.7 4.1 5.5 5 10.7l.6 1.5c1 3 1.9 5.7.2 17.3.5 1.3 7.5 7.6 7.7 7.8 2.6 2.8 5 3.5 8 2.2.6-4.2-.8-8.8-2-11.9a39 39 0 0 1-8-24.1c2.3-6.4 6.6-6.6 10.4-3.3 4.2 3 6.6 8.1 8.4 14-.9 2.5-3 2.5-5-.4q-.2 1.1.7 3c1 2 .9 2.5.7 3.2a74 74 0 0 1 4.5 22.2c-.4 7.8-5.8 11.8-15.7 14-5.1.5-7-1.2-9.9-3.8q-1.1-1.2-2.5-2.3c-2.9-1.6-6-1.7-6.4 1.3-1 1.7-.6 5.7 0 11.8a161 161 0 0 1 1 20c-.8 26.6-9.8 23.4-10 23.3l-2-42.4c-1.8-4.2-4.1-4.4-8.5-4.3-4.1-1.9-8.7-4.2-8.9-12.3v-24.4c-.4-3.3-2-3.3-3.2-.7-2 2.1-2.3 6.9-2.4 12.8-.3 10-.5 20-10.4 19.5-13-3.5-11.7-30-10.5-46.2 3-2.9 4.2 5.1 5.8 13.8a98 98 0 0 0 2 9.8c3 11.1 6.4 7 7.5.9.7-5.4 2.1-11.4 2.1-11.4 2-12 8-18.4 10.7-18.5 3.2-.4 4.4.3 5.8 3.9 1.5 3.6 2 16.7.3 25.4 0 6.6 7 14.4 7.1 1.1-1.2-10-2.1-18.5-4.7-28.3q-1-8.4-.4-17.5 1.2-2.7 3.6-3M515 327.4a16 16 0 0 1 6.9 3.7l11.3 11.6 3.7 5.5c-.6-4-.6-7.7 1.4-12.3 3.3-3.9 3.4-3.6 5.2-.7l.5.7c7 11.1 12.7 19.3 14.7 30.6.3 2.7-.5 2-1.5 1-1.5-1.4-2.8-2.7-2 3.6.6 2.7 1.5 11.6 2.4 22 4.8 8 8.8 14.9 10 17.3 3.3 6.7 13.6 24.4 21 41.8 2 3.7 2.7 22-.6 24a884 884 0 0 0-28.6-56.8l.5 11 .4 8.7a327 327 0 0 1 .2 38.1c-2.3 9.2-7.9 14.2-11.9 13.8 1.3-21.4.9-47-.5-67.8q-1-14.2-2.9-28.8-12.6-21.2-26.2-42a53 53 0 0 1-6.3-10.8c-.8-4.2-1-6.8-.5-11.7.5-2 1.4-2.5 2.8-2.5m-38-8c1.3.2 2 2.2 3 5l.2.5c2.8 5.2 3.1 13 3.4 21.2q0 6.4.7 12c2 14.4 5.2 15.7 7.5 16.6 5.3 1 7.8-2.6 8-3 1.3-8.5-2-15.3-4.8-21l-1.3-2.8c-3-4.9-3.2-8.5-2.6-11.8.5-2.8.3-5.4 3-7.8q6.2-3.9 11 2c3.6 4.8 8 12.6 6.8 15.4-.8 2.4-3.1 1.6-5 1l-.3-.2c-2.3.5-.8 4.7 0 7l.3.7c1.7 5 2 11.1 4.3 16.1 2.4 3.5 5.6 3.4 8.4 3.3h1.2c2-1 2.1-1.4 4-2.3 1.8-.6 3.7-.6 3.7 3.6-.2.3-3.9 10.2-9 12.4l-.8.2c-1 .3-1.6.5-3.6-1.1-.8-2.3-.2-3.3.4-4.5q.5-.6.6-1.3c-.3-1-3.1-2.4-5.5-.2-1.3 1.8-2 3.3-4.9 8-2.6 3.3-10.8 3.3-15.6.9-4.9-3.7-4.9-7-7.1-9.8q-3.9-3-6.5-.7l-7.8 6.8c-1 .8-8.6 6-19-3.2-4.4-6.1-5.9-10.2-5.7-28.1-1-2-2.1-1.9-4 1.7-2.7 13.4-6.4 24.4-12.9 21.2-9 .8-21-25.7-13.3-48.5 3-2 4 6 5.5 15.2a44 44 0 0 0 4 16c1.8 3.5 3.8 5.7 6.3-1.3 2.6-10.1 6.6-22.2 14.7-28.9 2-1.3 5.3-2.3 8.2 3 1.3 3.2 1.2 16 1 25.2l-.1 2.3c1.3 6 3.1 7.2 5.9 9.4 3 2 6.2 3.2 9.8.1 2.4-2.5 2.9-3.4 4.7-6 1.2-10 0-19.1-2.5-25.3-2.4-7.6-.4-11 1.3-13.8l1-1.8c1.5-2.5 2.4-3.3 3.3-3.4m248.5 32.3c.7 0 1 .8 1.7 2.1l.3.8 4.2 6.2c4.9 7.2 10.1 15 9 16.9-.7 1-1.8 1-3 1s-2 0-2.5 1c-.2.7.2 4 .7 7l.3 2.6c5.5 27.5 6.9 64.5 6 102.5-.2 6.6-3 16.9-5.3 21-9.3 13.8-21.9 14.5-33.1 15.3-6.5-.8-6.3-5.5 1.5-10.2 2.6-1.8 10-4.4 13.8-7 3.5-2.7 7.4-8.1 10.8-12.7 1.6-4.3 1.7-6 2.2-9.5-.9-36-5.2-75.3-11-116-1-6.7-.1-13.6 2.2-17.9q1.5-3.1 2.2-3m-136.4-10q.8.3 1.7 2.3l.3.7c4 7.3 10.5 23.6 9 25.9-1 1.2-2 1.2-3 1.2q-1 0-1.5.3a18 18 0 0 0-.3 6.6c5.5 28.2 8.2 58 7.4 96a41 41 0 0 1-6.7 17.8c-9.2 15.6-18.6 20.4-29.8 20.3-6.8-1.4-11.4-8.4-10.2-10.4a85 85 0 0 0 34.8-21c2.2-2.2 2.8-6.8 2.5-10.7-3.4-37.8-5-70.8-10.3-108.9a34 34 0 0 1 4-17.3q1.3-2.8 2.1-2.8m20.5 1.7q.6 0 1 1.5l.8 1.9c2.6 6.7 10.3 18.5 13.5 26.3.3 2.5-1 2.2-2.7 1.8-2.3-.6-4.4-1.2-3.6 4.7a1364 1364 0 0 1 9.9 77.5c.5 5.4 1 11.6.4 20-2 8.8-6 16.5-10 16.4 1.2-36.8-5.4-73-12.7-112.1l-2-11q-1.5-9.9 3-24.9 1.8-2.1 2.4-2.1M399.8 314q2.8.2 6.1 2c2.7 3.8 4.2 9.8-.8 12.7q-1.6 1.3 0 3l3.1 3c-.1.1-20.6 21-25 22.6a67 67 0 0 1-15-1.7h-.2v-.4c1.3-2.4 21-14.4 28.9-21.9 1.5-1.6-.7-4.2-3.7-6.1-2.7-4.2-2-9 1.6-12.5q2.1-.8 5-.7m253 78.2a6 6 0 0 1 4 2.6c1.7 2.7 2.4 7.3 2.7 10.8 0 1-.8.6-2 .2q-1.1-.5-2.1-.5c-1.6.5-1.9 2-2 3.7-.3 4.2-.8 11.1-1 16.3-5-1-15-11.2-18.4-17.5-1-3.6-.4-6.4.6-8.4 2-1 4.5-2 6.8-.6.1.2 2 3.2 1.8 3.7 2.8 1.6 3.7 1 4.1-.1q0-1.5-.3-2.8l-.5-2.7c1-3.7 3.4-4.9 6.2-4.7m-187.1 50.4q-4.9 0-5 4.5c1.6 12.1 9.8 18.7 13.1 21.6l.7.5q2 1.7 3.5 1.8h.6v-.1h.1v-.1l.2-.2c.6-1 .7-2.6 0-6.5.4-7.5 4.7-8 10-9 5-1.6 2.4-5.5-3-7-6.8-1.8-14.4-3.2-19.7-5.4h-.5M290.2 388c8.3.8 6.5 3.3 8.6 7q-20.8 9.4-41 19.4c.9-10 19.1-26.3 32.4-26.4M261 432.4c.3.1.3 1 0 3.8a98 98 0 0 0-1 20c.3 4 1.4 8.5 5 1.7 1.8-2.2 2.8-1.8 4.6.8 1 4.1-1 13.2-5.9 15.8q-4.7 1-8.7-3c-4.1-5.9-3.5-24 4.2-37q1.3-1.8 1.8-2m405.6-6c1.9 1.3 1.4 8.7.4 9.3-.3 2.6-24.1 16.8-26.5 16.4-1.4 0-2.3-6.6 0-9.2l25.6-16.6zm-143 50.9c1.6.4 2.8 1.5 3 1.7q0 1.7-.5 3.4-.8 2-.5 4.7v.3c.6 1.5 1 2.6 3.4 2.6 4.1-2.5 7.5-2.3 11.6-1.9 3 1.2 3.1 5.4 1.2 5.7-7.3.6-10.6 2-15.8 3.3a4 4 0 0 1-4.6-1.3l-.1-.2c-.4-.7-1-2-.4-4.7q.2-4.1-3-4.4c-1.8.7-3 1-4-1-.3-1.5-.4-2.1.6-2.9 2-2.3 7-5.1 7.3-5.2q.9-.3 1.8-.1m168.2 26.1q1.3 0 3.2.5c2.7 1.1 3.2 2 2.5 3.8a12 12 0 0 1-2 3.7c-.8 2.2 1.2 2.6 2 2.7h1.7c1.3 0 2.5 0 3.3.9.1.2.6 2.3-1 3.8-.5.4-10.5 6.4-15.6 5.2-2.4-1-2-2.8-1.2-4.4l4.8-4c1.8-2.2 1.2-3.3 0-4.9-2-1.3-3.4-1.3-3.7-4.3.4-2 .8-2.6 2.5-2.9zM627 674c-1.8 1-2 3.8-.5 6.3l4.7.8a55 55 0 0 0 10.6 1v-.4l.2-.2v-.2l.1-.1c2.1-2 7.7-1.6 9.2 1.3v.6l10.1 1.2h.6c1.2-1 2-4 .2-6.2-12-1.6-23.2-2.2-35.2-4.1m34.6-229.4 1.6.2c4.3 3.2 6 15.6 5.6 19.6 0 7.2-4 11.8-5.9 11.1-1-.8-.8-3-.6-6q.2-3.4 0-5.5l-2-5.6a24 24 0 0 1-2.2-8c-.8-3.9 1-5.5 3.5-5.8M485.5 395q1.6 0 2.6 2l.3 4.2c2.5 9.1-9.4 8.5-15.2 5.1a10 10 0 0 1-3.6-8.7c-.1-1.6 0-4.4 3-4.3q.8.3 1.3 1c.2.4.3 1.5.3 2.1q.1 1 .8 1.3l.5.4.6.1q1 0 1-1.1.1-1.2.4-2c.5-.6.5-.8 1.2-.7.7 0 .8.2 1.2.4q.6 1 .9 2.3c.1 2.5 1.5 3 2.1 2.6q.6-.4.4-1.6V397q.6-2 2.2-2m92.3-14.6q1.5 0 2.5 2l.3 4.2c0 9-9.3 8.7-15.1 5.3-4-2.8-3.8-8-3.7-8.7-.1-1.6 0-4.3 3-4.3q.8.3 1.3 1c.2.4.3 1.5.4 2.2q0 .8.7 1.2l.5.4.6.1q1 0 1-1.2l.5-2c.4-.6.4-.7 1.1-.7q.9.1 1.2.5.7 1 1 2.3c0 2.5 1.4 2.8 2 2.5q.7-.4.4-1.6v-1.1q.7-2 2.3-2m-250.4-74q1.5-.2 2.5 1.8l.2 4.2c0 9-9.3 9.2-15 6.4-4-2.6-4-7.7-3.7-8.4-.2-1.6 0-4.4 3-4.6q.8.2 1.3.9l.3 2.2q.1.8.8 1.2.3.3.5.3h.6q1 0 1-1.2.1-1 .5-2c.4-.6.4-.8 1.1-.8q.8 0 1.2.4.7.8.9 2.1c.1 2.5 1.5 2.8 2 2.5s.5-1 .5-1.7v-1.1q.6-2 2.3-2.2m239.3 33.7 1.2.3c4.9 3.2 8 12.9 7.1 18-1.1 6.3-3.3 11.7-5.3 11-1-.6-.8-1.7-.4-3.6a17 17 0 0 0-.2-8q-1-2.9-3.8-6.7c-1.9-3-3.4-5.3-3.2-6.4-.9-3.9 1.6-5 4.6-4.6m143.7 28.4 1 .2c4.4 3 6.9 14.7 6.6 18.6-1 7-3.1 13.1-5 12.6-.9-.7-.8-3.3-.5-6.6q.5-3.8 0-5.9c-.5-1.8-2-4.3-3.4-6.8-1.7-2.9-3-5.3-3-6.5-.7-4 1.5-5.6 4.3-5.6m-313.8-13q1.7.5 1 2.7-1.4 3.6-.7 7.5c.7 1.5 1 2.2 3.3 2.1 5.6-4.1 5.4-1.8 5.4-1.7-.2.6-2.6 8.5-7.5 8h-.4c-1.5.1-4.6.2-7.3-3.5-2.9-5.3-1.2-12.1 3.6-14.6q1.5-.7 2.6-.5m-126.4-53.1 1 .1c6.1 2.6 6.5 11 6 14.2-1 5.3-2.8 9.8-4.5 9.6-1-.6-.9-2.6-.7-5.2q0-2.8-.2-4.4-.9-2.1-3-5-2.6-3.4-2.6-5c-.7-3 1.4-4.3 4-4.3m192.5 15.9q2.1.2 3 4.4c-.2 3.6-.3 7.2-3.3 15.4-2.6 4.2-6.2 2.3-5.8-1.4 0-.3 1.2-11.8 2-14.3 1.4-3 2.7-4 4-4.1m-80.8 101 2 .5c4.3 2.7 6.6 11.3 6.3 14.3-1 5-3 9.2-4.7 8.7-1-.6-.8-2.5-.5-4.9q.4-2.7 0-4.3c-.4-3-2.2-5.1-4-7.1q-1.9-2-2.1-3.3c-.6-3 .9-3.8 3-3.8m50.3-107c1.1.3 1.1 1.5 1 3.4l-2 2.2c-2 2-3.2 3.2-2.6 6.3.5 2.2 1.6 2 2.9 1.7 1.1-.2 1.8-.4 1.5 1.3-.6 2.2-1.2 2.9-3 4-3.1 1.2-4.4 1.2-6-1.2-1.7-2-1.7-2.2-1.5-4l.1-1.6c.5-6 4.7-10 7.3-11.5q1.6-.7 2.3-.6m-100 83.9h-.5q-1.4.1-2.2.8l-.3.3-.6.8q-1.2 1.4-1 3.3c1 1.4 1.7 1.7 3.4 2h1q2 .4 2.8-.2c.8-1 1.4-2.4.8-4.3q-1.3-2.7-3.3-2.7m177 12.5q-.7 0-1.2.3l-.2.2-.1.2-.2.4q0 2.2 2.8 4.5 3.3 2.2 5 1.2l.2-.3v-.1l.1-.1.1-.2q0-2.2-2.9-4.5a8 8 0 0 0-3.6-1.6m-110.4-87.5h-.3q-2 .7-.9 3.8 1.6 3 3.8 3.1 2-.6.9-3.7-1.4-2.8-3.5-3.2M538 354.7l-2-.2c-2-.3-3.5-.6-.3 4l4.4 6.6-1.5-7.2zm75.3 114v.4zM526.6 479"/><path fill="#1a1a1a" d="M8 195.3c170.8-85.3 341-54.5 513.3-28C676.5 191 833.4 211.8 992 132.7v672c-170.8 85.3-341 54.5-513.3 28C323.5 809 166.6 788.1 8 867.2zm31.3 19.3v604.5c306.5-128.2 611.1 96 921.5-33.7V180.9C654.2 309 349.5 84.9 39.3 214.6" opacity=".2"/></svg>