<svg xmlns="http://www.w3.org/2000/svg" viewBox="0 0 1000 1000"><path fill="#00247d" d="M992 804.8v-672c-170.8 85.2-341 54.4-513.3 28C323.5 136.7 166.6 116 8 195.1v672c170.8-85.2 341-54.4 513.3-28 155.2 24 312.1 44.6 470.7-34.5"/><path fill="#fff" d="M8 307.2c34.3-17 68.5-29.6 103.8-38.6A487 487 0 0 0 8 236.1v-40.8q29.3-14.6 59.4-25.2a700 700 0 0 1 145.1 69.7v-98.9c27-1.8 54-2 81.8-.9v98.8c47.9-30.6 95.8-57.5 145.1-84l60 9v41l-104.4 56 104.3 15v112l-104.3-15L499.3 459v41l-59.9-9.1c-47.9-39.6-95.8-78-145.1-113.7V476c-27-1.1-54-1-81.8.9V378c-47.9 36-95.8 77.1-145.1 128A530 530 0 0 0 8 531.2v-40.8c34.3-40.6 68.5-76.6 103.8-109.7-34.3 8.7-68.5 21-103.8 38.6z"/><path fill="#cf142b" d="M460.7 158a2328 2328 0 0 0-164 94.1q19.4.9 39.3 2.5A3375 3375 0 0 1 499.3 164zm38.6 341.9c-54-45.3-108-90.7-163.5-133.3l39.4 3.8 124.1 102.8zM172.3 257C118.1 227.5 63.9 205.5 8 195.3V222a507 507 0 0 1 124.7 42q19.4-4.1 39.6-6.9m-.3 112A1252 1252 0 0 0 8 531.2a526 526 0 0 1 39.2-17.6 1228 1228 0 0 1 164-148.6q-19.4 1.4-39.2 4"/><path fill="#cf142b" d="M8 330.5A537 537 0 0 1 230 275V140q23.6-.9 48-.4v135.2c73 1.6 146 12.7 221.3 24.4v65.6c-73-11.3-146-22.7-221.3-24.4v135.2a765 765 0 0 0-48 .4V340.8C156.6 343.9 83.3 358.4 8 396z"/><path fill="#8fc5ff" d="M827.2 470.8c-.2 74.8-8.8 162.7-81.2 203-72.4-39-81-125.6-81.2-200.6 53.6 4.3 107.2 5 162.4-2.4"/><path fill="#fff" d="M829 470.5q-.3 71.5-13.8 115.3c-12.9 41-35.5 71.8-68.6 90.2l-.6.3-.6-.3c-33-17.8-55.8-48-68.6-88.3q-13.5-43.2-13.7-114.7v-2.3a754 754 0 0 0 165.8-2.5zm-3.5 2.8a756 756 0 0 1-159 2.4Q667 544.5 680 586c12.3 38.9 34.2 68 66 85.3 31.8-18 53.6-47.5 66-87q13-42 13.5-111"/><path fill="#366cc9" d="M746 673.8c32.8-18.2 52.4-46.6 64.2-78.7-1.8.2-5.4.5-7 .5-2.8 0-67.8-6.1-77.3-10.7-7.1-3.3-33.3 2-45.8 7 11.6 33.6 31.5 63.4 65.9 81.9"/><path fill="#5d3100" d="M695.5 625.4a9 9 0 0 1 4 0c1 .3 1.2.5 1.6-1 .4-1.4 1-1 1.7-.3.8.7 2.1.5 2.9-.7.6-1.2.8-1 1.4-.2.7.9.9.7 1.5.4a5 5 0 0 0 2.2-2.4q1-2.1 1.8-1 .7 1 1.5 1 1 0 .7 1.8c0 1.1.3 1.3 1.8-.3 1.4 1.8 1.7 1.2 1.8-.8a69 69 0 0 0-2.1-16c-.1-4.2-.1-4.4-3.8-7.1 0-1.5-.2-2-2.8-2 0-.5-.4-1.8-.9-2.5s-.6-.8-.4-2.5c1.2 0 2.2-.1 2.9-1.3.8-1.1 2.5-.9 3.9-.1q1.8 1 5.2.5 1.5-1.5 4-3.2c1.6-1.2 2-1.6 2.2-3.4 0-4.4-1-9.2-1.8-11.6s-1.2-5.2-2.4-9c-1.3-4-1.4-4.9-2.9-7.4-.4-.7-.8-1.2-1-2.6a9 9 0 0 0-1.4-4.5c-2.6-3.6-3.8-14.2-4.8-22.3-.6-4.8-.5-15.2-1.6-17.2-2.5-2.7-3.5-2.4-5.2-3.2-1-2.3-1.7-6.6-2.7-10.6-1.7.5-2.9 2.6-4 3.5s-1.3.8-1.4 3q0 3.3-2.5 8.4c-1.8 3.2-4 2.4-6.4 7.2-4.9-8.5-5-10.7-5.4-13s-1-2.9-3.9-6.4c0-1-.3-4.8 0-7-2.3-2.4-3.5-2.2-4.6-.6-1 1.8-1.7 4-3.2 5-1 1.5-3.6 5.3-5.9 9.8 2.1 42.4 9.1 84.9 30 119.6"/><path fill="#ff0" d="M827.2 470.8c0-28.8-1-56.5-.6-81-26.9-12.6-62.6-14.5-80.6-14.4-18 .2-53.7 2.7-80.6 16.8.5 24.5-.6 52.3-.6 81 53.6 4.3 107.2 5 162.4-2.4"/><path fill="#fff" d="M828.9 472.8a756 756 0 0 1-165.8 2.5V473l.4-36.3.2-44.6v-1.5l1-.5c22-11.6 48.9-16.6 81.3-17 32.4-.2 59.3 4.2 81.3 14.5l1 .5v1.6l.2 44.4.4 36.4zm-3.4-4.1-.4-34-.2-43.2c-21.4-9.9-47.5-14-78.9-13.8-31.4.4-57.5 5.1-79 16.1V437l-.4 34c52.5 4.2 105 4.8 159-2.3"/><path fill="#cf6200" d="M669.2 506.8c1 2 2.4 5.4 2.7 7.2.6-1.7 1-2.4 1.2-3.5s1-3 .7-4.3-.6-2 .4-1.2c.9 1 .8 2.3.6 4.5-.8 6-2.3 7-2.7 11 2.5 8.7.8 11.5 3.5 20 .5.3 1.6-.1 2 0 1.6-1.3 2.5-.8 4.7 0s3.2 2.7 3.3 4.6 0 2.3.5 3.5a10 10 0 0 1 1.1 4q0 1.8.5 2.6.2 1.3-.4 2.8c-.2.9-.1 1.8.9 3.8s3.4 9.5 3.6 14.1c0 4.7.2 6.4 1.5 7.5s1.7 1.6 1.6 3.6.6 12 .8 13.6.5 1.3 1.1 2.2.9 1.7 2.7 2h4.6c1.6 3.2 2.6 7.3 3 9.9s.4 5.7.9 6c.7 0 1.2.2 1-3-.1-3.1-.3-3.6-1-5.2-1-1.7-1.3-2.3-.9-3.3q.6-1.7.4-3.8c-.2-1.3-.5-3 1-.6l2.4 4q.6 1.5.6 4-.2 2.2.7 1.3c.7-.6 1.3.4 1 2q-.4 2.4 1.2 3.1 1.4.7 1.8 2c.3 1.1 1 1.6 1.1-.5a54 54 0 0 0-1-8.3c-.4-1.5-.8-4.6-1-6.5 0-1.8-.3-2.2-1-2.7q-.9-.6-1.1-1.8c-.2-1.2-.6-1.2-1-1.2q-.7 0-1-1t-1-.8c-.4 0-1 .2-1.3-.8q-.4-1.7-1-3.1c-.5-.9-.8-1.1-.9-3.8 0-2.8 0-3.1-.7-4.1s-1.7-3.6-2.1-4.7-.8-2.2-.9 0c0 2.4 0 3.5 1 4.5 1.2.9 1.4.9 1 2-.4 1.3 0 2.1.1 3 .2.9.5 1.7 0 2.5q-1 1.2-1-.7 0-2.3-.7-4-.5-2-1.3-1.3c-.6.5-1-.1-.6-.7q.4-.7 0-1.2t0-1.4c.5-.8.5-1 .2-2.8s-2.3-10.2-3-12.3c-.9-2-1-3.4.3-1.4q1.9 3 2.2 5.3a8 8 0 0 0 .7 3.2q.5 1 .8-1c.3-1.3.9-.8-.3-3.4-1.3-2.6-3.5-7-4.5-14.6q-1-11.6-2.1-15c-.9-2-1.1-2.5-1.2-4.5q0-3-.7-5.3c-.6-1.5-1-1.8-1.1.4 0 2.3.2 7 .5 7.9.4 1 .2 3 .1 4.3-.2 1.2-1.3 2.2 1.4 4.9 1.1 1.1 1 2.3.8 3.2q-.1 1.3-1-.7c-.9-2-1.2-2.4-1.8-3.2s-.7-1.3-.6-3 .3-2.8 0-3.5q-.5-.8-.8.8c-.1 1-.4 3.6-.7 4.3q-.5 1-.8-1.3-.2-2.6.7-6.8c.6-2.8 1-5.6.5-9.3s-.3-4.7-2.3-7.9-4.2-6.2-5.3-10c-1-3.9-1.3-7-2.3-8.9-1-1.8-2.6-4-3.5-4.7v-5.6q.1-2.1-1.6-2c-1.2.2-1.8 1.3-2.6 3.2-.8 1.7-1.2.9-2.2 4-1 3-2.3 4.5-2.4 7.9"/><path fill="#cf6200" d="M675.6 542.8c.8.7 1.3 1 2.5.4 1.1-.8 2.1-2.5 3.7-.5a18 18 0 0 1 2.2 8.3c0 2.8.2 7.4 2.3 10.5 2.2 3.1 3.2 5.8 3.4 9.6.2 3.6 1 9.2 1.3 10.7s1 3.2 1.6 4.2c.7 1.2 1.2 3.8 1.4 6.8q-.2 4.4 0 6.4c.2 1.6 0 2.6-.8 2a5 5 0 0 1-1.4-2.5c-.5-1.2-1-1-.6.8q1 3.2 3 3.7c1.1.1 1.4.3 2.2 1.3.7 1.1.8 1.5 2 1.6a5 5 0 0 1 2.6.6c1.2.5 1.1.3 1.8.1q.8-.2 1.7 2.1a67 67 0 0 1 2 11c.7 1.2.6 2.3-.2 1.6-.7-.7-.7-.5-1.2-.4q-.7 0-1.6-1c-.7-.6-.3-.4-1-2q-1-2.3-1.2-.8c0 1.2 0 2.3-.6 1.8q-.6-1-1.2 0c-.5.5-.6 1-1.2-.3-.6-1.2-1-1.2-1.7-1.5-.5-.3-.5-.3-.8-1.4q-.5-1.4-1.7-1.4-1 0-1.2-1.3-.2-1-.9-1.6-.3-.7-.2-2c-.2-.9-.6-.6-1-.9-.4-.2-.6-.1-.6-1.3s-.4-1.6-.7-2.5q-.2-1.3.2-2.6.3-1.3-.4-2.5c-.5-1-.2-1.6-1.5-3.5-1.6-1.7-2-.4-2.6-4.4-.5-4-1.5-12.2-2.1-13.7q-1.2-2-2.2-2.8c-.8-.4-1.2-.2-1.4-2.5a16 16 0 0 0-1.7-6.8l-2-2.7q-.9-.9 0-3.8c.9-2.9.4-4.7.3-6.1q-.2-2.2-.1-4.5c.1-1.5 0-3.3-.2-4.3s-.6-1.2-.2-2m21.4-33.1q-1.7 3-4.1 5.3c-1.9 1.6-3.6 2.6-2.7 5.5 1.3 2.8 2 3.2 2.4 5.3.3 2.2.6 3.7 1.8 4.4 1.2.6 1.6.3 1.6 3.7s0 4.6 1.1 6c1 1.4 1 2.6 1.4 5.8.4 3 .6 9.6 2 14.3s4.3 13.2 4.2 15c-.4 1.9-.8 3 .6 5.2s2.3 5.2 2.5 7c.1 2 .3 2.5 1.7 2q2-1 2.6-2 .8-1.2 2.8.3c1.4 1.1 3.1 2 4.5 1.1 1.2-1 1.7-2.2 2.8-2.3 1.6-1.8 2.3-5 2.6-6s.2-1-.6-2c-.6-1-.4-2.5-.5-4.1-.1-1.7-.6-4-2-7.7-1.3-3.6-2.4-7.8-3.2-9.1s-1.4-3.8-1.5-5.2q-.5-2-1.9-3.5c-.7-1-1.4-2.4-2.2-8.1l-1.5-10.8c0-1 0-1-.8-1.4-.7-.5-1-1.9-.8-2.8q.1-1.2-.5-2.6c-.2-1 0-2.7.5-3.7s.3-3.6-.1-6c-.6-2.4-1-4-2.9-4.6s-2.2-1-3-3.2l-1.6-6.7c-.3-.9-.6-1-2 .5-1.5 1.6-1.9 2-2 5.1a9 9 0 0 0 .8 3.8 13 13 0 0 1 1 4.5c.5 3.4 2 7.8-.3 10.7-2.5 2.7-2.3 3.2-2.1 5.2 0 2-.6 3.2-1.2.5-.4-3 0-4.3 1.4-5.6 1.5-1.4 2.6-2.7 1.8-4.6-.8-2-1.3-6-1.4-8-.2-2-.3-2.6-1.2-1.2"/><path fill="#00b800" d="m675.9 549.5.2 4c.1 1.4.3 4-.3 6.1s-.5 3 0 3.8v.1c1.5-.8 1.7-2.6 1.3-3.8q-.6-2 .2-3.7c.4-1.1.4-1.7 0-2.6-.4-.8-.4-.8.1-3 .3-2-.5-2-1.5-.9m15.1 32.3a105 105 0 0 1-1.3-10.7c-.2-3.7-1.2-6.5-3.5-9.6-1.6-2.4-2-5.6-2.1-8.5q-2-1.7-1.8 1.3c.3 2.2 1.6 3.4 1.5 6.5s-.3 2.4.9 4q1.6 2.6 1 3.7-1 1.2.1 2.2c1.1 1 .9 1.5.8 2.8 0 1 .6 1.4 1.1 2.2a6 6 0 0 1 0 3.9c-.4 1.2-.6 2.8.3 2 1-.9 1.2-.1 1.9 1.5.6 1.3 1 1 1.6.6zm11.6 28.9c-.6 1.4-1.1 1-1.7.1-.6-.7-1-.7-.9-2 .3-1.4.2-1.6-.5-2.4l-.3-.2h-.8c-1.2-.2-1.3-.6-2-1.7l-.5-.5v.9c0 1.3 0 1.1-1 1.4-1 .1-.8-1.2-1-2.5v-.6q-1.9-.9-2.7-3.7-.4-2.6.5-.8a5 5 0 0 0 1.5 2.4c.8.7 1-.3.8-1.9l-.1-1.6q-.3-.8-.8-1.1c-1.4-1-1-1.1-.9-2.7q.1-2.2-1-.8c-1 .7-1-.1-1-2.6-.2-2.4-1-2.5-1.5-.8-.3 1.6-.7.6-1.2-2-.6-2.4-1.2-3-1.3-.7q-.2 3-1.4 1.2l.4 3.8c.5 4 1 2.7 2.6 4.4 1.3 1.8 1 2.6 1.5 3.5.5 1 .6 1.5.4 2.5q-.4 1.4-.2 2.6c.3.9.6 1.3.6 2.5s.3 1 .7 1.3l.7.3.7-1.3c1.2-1.2 2.5.2 3.2 2.1.6 2 1 2.4 2 1 .7-1.4.5-1.2 1.4.2s1.2 1.1 1.2 1.1.8-.4 1.5.3c.7.8 1 .7 2.1-1.6 1-2.3-.4-1.5-1-.1m3.1-66.4c.4-3.7.3-7 1.2-8.4 1.1-1.4 2.3-3.7 2.3 1.7-.1 5.5-.2 5.2-1 6.4-1 1.3-1.5 1.6-.8 3.7.8 2.2 1 2.3.8 5.5 0 3.3 0 4.5.9 6.2s1.1 1.8 1.4 3.6a14 14 0 0 0 2.1 5.6c1 1.5 2.2 5 2.4 7.7.3 2.6 1.7 3.3 3.3 5 1.4 2-.2 3-1.5 2.3-1.2-.8-.8 0-1.5 1.1s-.9 1.3-1.5-.7a8 8 0 0 0-3.5-3.8c-1-.7-1.8-2.6-2.6-4.8q-1.4-3-3.5-3.4.6 2.1.5 3c-.4 1.8-.8 2.9.6 5.1 1.4 2.3 2.3 5.2 2.5 7 .1 2 .3 2.5 1.7 2a7 7 0 0 0 2.7-2q.7-1.2 2.7.3c1.4 1.1 3.1 2 4.5 1.1 1.2-1 1.7-2.2 2.8-2.3 1.6-1.8 2.3-5 2.6-6s.2-1-.6-2c-.6-1-.4-2.5-.5-4.1-.1-1.7-.6-4-2-7.7-1.3-3.6-2.3-7.8-3.2-9.1-.8-1.3-1.3-3.8-1.5-5.2-.2-1.3-1.1-2.5-1.9-3.5s-1.4-2.4-2.2-8.1l-1.4-9.7q-1.2 2.8-1.7 1c-.4-1.5-.8-2.2-1.3-1.3-.6.8-.6-.8-.6-1.7q.1-1.1-.7-1c-.6-.1-.2-1.2-.4-3.7s-.5-2.8-.8.1c-.3 3-1.3 4.6-1 5.3q.6 1-.2 3.9c-.4 2-.2 3 .1 4.4.3 1.3-.2 3.6-.4 5.8-.1 2 .8 4.2 1.3.7M684 514c-.9.1-1.4 1-1 4.7.2 2.3-.8 1.7-1.4.6-.4-1.2-.9-3.6-1.8-5.8-1-2-.5 1.3-.5 3.4 0 1.9.7 2 1.6 3.6.8 1.8.2 2.2-.8 2.2-1 .2-.5 2.4-.3 4.4q.3 2.7-.9.6c-.6-1.6-.3-3.7-.1-6.5s.2-2.1-1-2.8c-1.4-.8-1.2-1-.7-2.7.5-1.6.9-2.3.4-3.2q-1-1.3.4-1.4c1-.2.7-1 1.5-1.4.8-.2 1.1.2 1.3-1.8q0-2.8 1.5-2.2c.5 2.7 1.4 7 1.8 8.3m12 19.7c0 3.5 0 4.6 1 6s1 2.6 1.4 5.8c.4 3 .6 9.6 2 14.3l1.5 4.9a10 10 0 0 0 1.7-3c.2-1.2-.6-3.3-1.5-5.4-.7-2 0-2.5 1-5 .7-2.4 0-2.5-1.5-3.3-1.2-.8-1.3-2.2-2-5-.7-2.6-.6-3.6-.1-5q.6-2.4-.8-3c-1-.5-.8-1.3-.4-3s.6-1.9-.8-1.5c-1.1.4-1.3.6-1.7 1.1z"/><path fill="#5d3100" d="M709.7 541.2c-.2 2-.2 2.8-.5 3.5q-.4 1 .2 2.6.7 1.4.3 4-.3 3 .9 3.8c.8.5 1 0 .8 2.3a9 9 0 0 0 1.6 5.7 7 7 0 0 1 1.3 3.6q0 1.5 1.4 2.5c.8.5.7.6.7 1.3q-.1.7 1.3 1c1 .4 1.6 1.2 2.7 3s2.5 2.8 2.4.8 0-3-1.4-4.2-2.4-5.5-3.1-9a24 24 0 0 0-3.5-8.5c-.1-2.3 0-3.3-1-4.5a6 6 0 0 1-1.4-3.8c0-1.2-.6-2.5-1-3q-.9-.5-.8-2c0-1-.7-.9-1 .9"/><path fill="#00d860" d="M703.4 627.7a34 34 0 0 0 8.5-3 13 13 0 0 0 5 3.3q-3 .6-4-.3c.4.9 1 2 1.5 2.3-2-.2-4-.9-4.9-1.8-1.9.8-4.3 1-6.1-.5m3.8 3.8 5 1.3q-1.5 2.5 2 2.7c-1.1.2-2.2.5-1.5.8 2.1.4 6.5-1 7.8-1.8-2.1 3-9.4 5.3-13.3-3m3.4 7.5c1.2-.6 3.3-.3 4.7.5-1.5.5-3.7.5-4.7-.5"/><path d="M714.4 639c2-.1 6.7 1.1 8.8 0-1 2.2-3.6 2.4-5 2q-1.7-1-3-1.2.4-.2-.8-.8"/><path fill="#00d860" d="M716.3 642.5c1.5.2 6-.4 7.8-1.1a28 28 0 0 0 5.4 1.8c-1.7 1.1-4.2.5-5.3 0-2.8 1-4.7 1.3-8-.7"/><path fill="#00d860" d="M718.6 643.7q2.8.8 5.6-.6 1.2.7 3.4.8c.9.7 2 1.6 3.2 1.8a12 12 0 0 1-6.5-.8c-2.3.1-5.8.7-7 1.7q0-1.5 1.3-2.9"/><path d="M716.3 630c1.8.6 6.7.4 9.9-1.3 1.2-.5 1.8.4.5 1.1-4.8 2.2-8 2.8-10.9.9-1-.9-1.2-1.4.5-.7"/><path fill="#00d860" d="M743.5 620c-7 4.4-11.2 5.6-20.9 1.5-.9-.3-1.4 0-.5.8 1.2.9 6.1 2.8 7.5 3 1.2.3.8 1 0 1.3-.7.3-1 1 0 .5 1.4-.5 6.4-.6 9.1 1q1.4 1 1.2 0 0-.9 1.2-1 1.4-.3.6-.8t-.2-.8q.8-.5-.2-.8-1.2-.2-.4-.8 1-.7 2.2-.9c.1-.7 0-2.3.4-3"/><path d="M732.2 621c4.1.3 10.7-2 14.9-7.1 1.3 1 3.1 2.2 4.1 2.5s1.9 1.3.4 1.4c-1.6 0-3.6-.8-4.6-1.4a21 21 0 0 1-14.8 5.3c-1-.2-1.3-.7 0-.7"/><path fill="#00d860" d="M720.6 591.8c1.5 1.4 3.6 3.2 6.8 3.2 1.6 1.6 3.8 3 4.9 3.4-2.1 1.1-4.2 2-4.9 3-1-1.2-2-1.2-2.4-1.7q-1.2 1.4-.2 2c.8.5 4.9 1.4 6.2 1.2 1.1-.3 1.4.7.5 1.3-2.8 1-6.7 0-8.7-3.6-1.7-3.7-2.8-4.8-7.3-1.8-.5-1.8-.5-2.1-1.3-2.2s-2.4-1.4-1.2-1.5a12 12 0 0 0 7.6-3.4"/><path fill="#00d860" d="M721.7 599.6c-.8.3-2.9 1.7-3.6 1.9s-2 1.3-.7 1.6c1.3-.1 3.1-1.8 4.1-2.1s1-1.5.2-1.4m4.3 6.2c-.6.1-2.8.7-3.4.7q-1.1 0-1.2.8c0 .6.2 1-.7.8q-1.5 0-2 .7c-.2.4-.4.7.5.9 1 .1 1.4.2 2.5-.4s2.1-1.6 3.3-1.7c1-.2 2.3-1.9 1-1.8"/><path d="M722.8 609.5c1.2 1 5.6 3 7.5 3 1.7 0 1.4.9 0 1.4q-4.3.5-8.2-3.4c-1-1.3-.1-1.6.7-1"/><path fill="#00d860" d="M745.5 612.9c-3.9 1.5-7.2 1-9 .5-1.5-.6-2.7-.8-1.8.6a7 7 0 0 0 6.2 1.6c-6.7 2-8.3 1.8-10 1.5s-4.7-.3-6-.2c-1 0-2.3-.1-3-.6-.5-.6-.7-1.3 1-1.2q2.7.3.5-.5c-1.6-.2-3.4.3-1.5 2.3 2.2 1.4 6.3.3 9.3 1.1 3.1 1.1 8.6 1.8 14.6-4.4.3-.4.8-1.2-.3-.7m-18-7.5v1.7c-.1.5-.2 1 .4.4q.8-1.2 1.5-1c.7.5 2 .5 2.8.4q1-.1-.1-.9-1.6-.7-2.5-.7c-1 0-1.2-.1-1.7-.4q-.6-.4-.4.5"/><path fill="#00d860" d="M737 607.9c-.8 0-2-.6-2.8-1s-1.7-.6-1 .8c1 1.4 3.8 2.1 5.2 1.5 1-.7.7-1.3 1.8-.4q1.8 1.5 3.2 1.7t.2-.8c-1-.7-1.3-.9-1.5-1.5 0-.6-.2-1 .7-.6s1.7 1 2.5.5c.7-.5 1.8-1.5 3-1.6l.2-.9q-2.3.2-3 .8-.8.3-2.1.2c-.9-.2-2-.4-2.2-.6q-.5-.5.4-.8c.7-.2 1-.8 0-.6-1.1.2-3.5.1-5-.5q-2-.8-2.5-.3-.9.8.3 1.2c1 0 2.6.4 3.4 1.2q1 1.2-.1.4c-.9-.3-2-.2-.7 1.2"/><path fill="#00d860" d="m748.5 605.6-.2 1c1.8-.1 5.4.4 6.9 1.4 1.2-1.4 1-1.7 1.9-1.6q1.6.6 2.5.3.6-.5 1.4-.2c.5 0 1.6-.3 2.3-.9a7 7 0 0 1 2.9-1.3c.8 0 1.7-.3.3-.6-1.6-.1-3.6.5-4.5.8s-3 .7-4.3.8c-1.4 0-3.1.8-4.7.4-1.5-.4-3.6-.1-4.5 0"/><path d="M769 604c-2.8 2.7-5.6 3.4-9.6 4q-1.4.3.2.6c4.2.2 8.3-1.7 10.1-4 .4-.7.4-1.6-.6-.6"/><path fill="#00d860" d="M751 610.7c1.1.1 5 1.3 6.4 2q1.4-.3 1-1c-.2-.6-.3-1 1.5-1l6.6-.1c.6-.5 2-1.8 2.6-2l-9 .8c-1 0-1.3 0-1.9.5s-.8.6-1.5.2c-.8-.3-1.8-.7-2.5-.2-.8.4-2 .2-3.3.8"/><path fill="#00d860" d="M766.5 610.6c.6-.5 2-1.8 2.6-2 1.2-.1 2.5.4 3.1.5s1.3 0 .9-.8c-.4-.7-.1-1.6 1.8-1.5 1.8.2 2.7.5 4.5.2s2.5 1.2 6-.6c-.3 1.8.2 1.9 1 1.5q.8-.7 2.3.7c1.5.8 7.2.6 9 .1 1.6-.4 2.3.4 1.2 1.1q-1.7 1-1.1 1.8c.2.5.5 1-1 1-1.4 0-1.6.4-2.3 1.2s-.9 1-2.9.7c-2-.2-2.3 0-3.3.4-1.1.3-1.3.3-2.4 0a8 8 0 0 0-4.8-.1q-2 1.2-3.8 1c-1.2-.5-1.3-.3-.5-1.4s1-1 2.5-1.3c1.6-.4 2.6-1 1.6-1.8-1.1-.8-1.4-.7-2.8.4-1.5 1-2.1 1.6-3.8.5-1.6-1-2.3-.8-3.4-.4-1.2.3-2.8-.4-4.4-1.2m5.3 3.4c-2 .3-2.5-1.1-4.7-.8-.7.2-1.9 1.2-.2 1.1s3.4.8 5 .6.9-1 0-1m-2.4 2.3c1.1-.4 3.2.2 4.2 0 1-.1 1.8.4.9 1-1 .3-3.3-.5-4.4-.2-1.2.4-2.1 0-.7-.8m-21.2 8.4c1.8 0 6.3-.4 8.8-6.5q.1-.8 1 0c.8.6 3 2.3 7.7 2.9 1.2.1 2.6.8 0 .7-2.7-.2-6.4-1-8-2-2.6 5-6.2 5.6-9.5 5.6-1.9-.2-1.5-.7 0-.7"/><path fill="#00d860" d="M759.7 616.1c-.9 1.5-3 3.5-4.3 3.9-1.2 0-4.3-.3-5.3-.6-.9-.4-1.8-.4-.6.8 1.4 1.1 4 1.8 5.3 1.5s2.5-.9 3.5-.2c1 .9 2.6 2 3.7 1.9a8 8 0 0 1 3.8 0c.7.4 1.8 1.5 0 1-1.7-.6-3-.2-3.9-.5 1 1.8 2.9 4 4.7 4.3.4 0 .6.8-.2 1.5 1 .5 2.6.8 3.8-.5q-.3.7.3 1.1c.5.3 1 .6.2.8s-2.6.5-3.2.3c2 1.5 6 3.4 10.8 2.2.9-.3 1.3-.7 0-.7-3 .3-3.2.3-3.7-.1q-.9-.6.4-1.2c.9-.4 3-.9 3.8-1 1 0 1.8-.5 0-.5-1.9.1-4 .2-5-.1-.9-.5-1.4-.9-.5-1.8 1-.9 1.8-.8 2.3-1.5-3.2-.2-6.2-1.7-4.5-4q.6-.5-.5-.5c-.8-.2-2.9-1-3.9-1.6-.8-.7-.3-1.2.5-1.5-2 .3-5-.7-7.5-3m26-1.3a11 11 0 0 1-5.9 2.7q-2 .3-.4.8 1.6.2 2.6 0 .5-.4 1.3.1 1.3.7 3.4 0c1.3-.7 3.2-1 4-1.1 1 0 1.9 0 .2-.6a11 11 0 0 0-5.1.4c-.7.3-2.4.4-1.5-.2a9 9 0 0 0 2.3-1.8zm-.8 4.8a10 10 0 0 1-5.4 3.2c1.9 1 3.4 3 4.6 3q-1 1-2 1.5 2 .4 4.7-1.5c2.9.7 5.8-.1 7.2-1.5q-2.9 0-4.7-1.6 1.4-.4 2-1.6c-2.2.5-5.1-.4-6.4-1.5"/><path fill="#00d860" d="M782 627.3q1.2-.5 2-1.4c-1.8.6-7.3-.3-9.7-2.5-2-2.1-1.8-.5-.6 1.1 1.6 1.7 3.6 3.7 8.3 2.8m4.8 5.3c-1 .6-4.5 1.2-6 1q-1.8-.4-1.4.6c.3.7.5 1.1-.6 1a9 9 0 0 0-3.5.8c-.8.4-1.7 1.2-.1.9q2.4-.9 4.2-.6c1.4.3 5.3.1 6.3-.3.8-.6.3-.6-.1-.5q-.8 0 0-.8c.6-.4 1-1.4 1.1-2m-36.9-5.6a38 38 0 0 1-8.3 3 10 10 0 0 1-4.1 1.8c.8.7 2.9 1.3 4 1-.6.8-1.8 1.6-2.2 2 1.4-.2 3 .2 3.8.4a9 9 0 0 1-5.8 1.7q.6 1.5 1.9 1.7c-1.8.5-3.7.5-4.8 0q.7 2 1.5 2.1c-1.5.3-3 .5-4.7-.6 1.4 2 3.5 2.7 7.5 2.2a17 17 0 0 0 8-3.9c-1.7.3-3.8.4-4.9.2 2.3-1 6.6-3.5 7.6-4.6q-1.4 0-2.4-1c1.4.2 5.4-.5 7-1.2a6 6 0 0 1-3.1-2.7 23 23 0 0 0 14.8.3c.7-.4.8-1.4-.6-1.3-2.7.2-7-.6-8.5-1.4a8 8 0 0 0 3.5 2.1c-2.5 1-5.3 1.5-10.2-1.8"/><path fill="#00d860" d="M739.2 634.9c.4-.4 1.6-1.2 2.2-2-1.1.3-3.2-.3-4-1q1.4 0 4-1.7-4.7 0-6.5-1c-1.3-.8-3.2-.6-4-.4-.8.4-.7 1.9 2.8 1.6a10 10 0 0 1-6.7 1.2 9 9 0 0 1 .3 4c2 1.5 6.5 3.2 9.1 3.2-2.2-1.2-3.2-2.2-1.5-2.6s2.8-.7 4.3-1.3"/><path d="M733.7 642.8c4.4-.5 9.7-.7 14.4-5.9 1.2-1.3 1.9-1 .8.5-2.6 3-8.2 6.7-14 7-2.3 0-3.3-1.2-1.2-1.6"/><path fill="#00d860" d="M765.5 632.7a14 14 0 0 1-5 1.2q-1.5-.3-2.8.5-1.2 1 .2 1 1.7.3 2.8.2-1.1 1-1.5 1.8c1.6-.4 4 .3 4.8.9q-1 .3-1.7-.4c3 3.3 9 3 10.7 2.4q-.8 1-1.6 1.4a8 8 0 0 0 6.6-1.8c-.8.2-3 0-3.6 0a5 5 0 0 1 1.7-1.4c-1-.2-3.5 0-4.3.5q.4-1.2 1.2-2c-3.6.2-7.5.2-9.3-.8 2.5 0 5.2-1.7 6.4-1.9-2 0-3.9-.5-4.6-1.6m-9 3c-1.7.5-4.2 1.5-5 2s-1.4 1 0 1l.6-.3c-.6 0-1.3 0-.1-.5s2.6-1.6 4.6-2.2m-3.5 5.7c.7 0 3.1-.2 4.3-1.4 1.3 1.2 3.2 2.6 4.7 2.7q1.9.1 0 .6c-1.3.1-3.4-.6-4.7-1.8-1.7.7-2.9.2-4.3-.1m-20.6 16.4c3 1.5 6.2 2.4 9 1.4 1.8 1.7 4.5 1.8 6.4 1.4a7 7 0 0 1 5 0c2 .7 5.5 1 6.8 2l-3.6.2q-.6.4.7 1.3c-3.3 0-8 1.7-9.8 3.6.7-2 2.2-4.2 5.1-4.5-1.9-.7-6.3-.7-8.3.6l-1.1-2.4c-3.1 1.8-7.7-.7-10.2-3.6m-7-6.9q4.8-1.2 6.4-3.3c.8.8 2.8 1.4 5.6.4q-.7 1-.3 2.1c-1.8.2-5 1.2-6.2 2-1.3.7-4 1.2-5.4.5q-1.5-1.4-.1-1.7"/><path fill="#00d860" d="M737.2 650.1c-1.8.2-5 1.2-6.2 2 .2.6.4 1.6.4 2.2a33 33 0 0 1 13.4-1.9c-1.3.3-4 2-5.3 2.3a23 23 0 0 1 7.7.8q1.3.7.4 2c-.7 1-1 1 .4 1.1 1.6 0 4.2-.3 5.7-2-.6-.7-1.8-.5-2.3-1q1.7-1 2.4-2c-2.4 0-3.3-.1-4-.3q-1.7-.3-.5-1.3 1.4-1.1 1.8-1.8c-2 .7-4.2 1.1-6.7-1.2.9.3 2.7 0 3.5-.3q-1-1-2-1c2-1.2 5.2-2.2 9.9 0q3.5-.5 6.3.3c.7-1 2.2-3.3 3-4-5.7.7-14-.3-14.5-4-2 3-5.3 4.5-7.3 4.2q.1 1.9 1.2 3.2a17 17 0 0 1-6.2.5q1.5 1.8 3.2 2c-1.9 0-2.9.3-4.3.2"/><path fill="#00d860" d="M748 658.6c1.6 0 4.2-.3 5.7-2-.6-.7-1.8-.5-2.3-1q1.6-1 2.4-2c3.8-.5 7-.5 8.7-1.1s5.6-.6 6.5-.8c-3.6 1-4.2 1.3-4.5 2.1 0 .9 1 1.4 2 1.4-1.7.2-3.4 2.2-3.8 3.2-2.2-1.4-3 .3-3.3 1a6 6 0 0 0-5.4 1.6c-2-.7-3.2-1-5.2-.7 1.2-.5 1-1.4-.8-1.7m17-14.6c1.3 0 3.9 0 4.8-.2l-1.6 1.6a46 46 0 0 1 8.4-.9c-1.5 0-2.9 1-3.7 1.8q-1 1 .7 1.3c1 .2 2.4 1 .5.9-2-.3-5.5-.1-6.4 0-1 .2-1.4-.3-.1-.6q1.8-.7 2.8-1.5c-1.2.4-3 .5-3.8.3-.6-.3-1-.6-.3-1q.9-.5-.5-.4c-.8.2-2.5 1.3-3.7 2.7q1.7-2.6 3-4"/><path d="M751.6 647.1c1.5 2.3 3 3.3 5.9 3.5.6.1 1.6 1 .3 1.2-3.9.1-5.4-.9-7.3-4.2-.2-.7.2-1.5 1-.5m22.3-43a18 18 0 0 0 9 1.6c.5 0 1.5.6.2.9-3.6.6-6.4.1-9.4-2-.8-.5-.6-1 .2-.6"/><path fill="#00d860" d="M775.8 603.9c3.2-.3 5-.3 6.2.8 1.8-.8 4.8-1.4 5.6-1.4.7.1 1.4-.3-.2-.8-1.7-.3-5.3-.3-6.6 0-1.3.4-5 .7-6.2.7q.8 0 1.2.6m11.7 1c1.6-.9 5.4-.7 6.8-1.3-.6 1.6 2.5 1.3 6 0-1.3 1-3.8 1.6-5 2.3s-1.7.3-2.7-.2-3-1.3-5-.8"/><path fill="#00d860" d="M800.3 603.4c-3.5 1.4-6.6 1.7-6 .1-1.4.6-5.2.4-6.8 1.3 1.6-1.2 2.5-.5 3.6-3 .8.1 2.1.1 2.8-.9a8 8 0 0 1 3 1.3c.7.5 1.2-.2.7-1.3 1.5-.7.5.7 4-.6l3-1a28 28 0 0 1-4.3 4.1"/><path fill="#ff0" d="m737.3 585.7-.7-103.7c-.2-4.3-1.5-3.4-1.6 0v103.2z"/><path d="M737.5 585.7v.3h-.2l-.6-.1-1.8-.4h-.1V482q0-3 1-3.2.4 0 .7.8t.3 2.4l.3 50.4zm-.4-.3-.4-53-.3-50.4q0-1.5-.3-2.2 0-.4-.3-.4-.6.2-.6 2.6v103l1.5.3z"/><path fill="#ff0" d="m762 476 2.8 109.4-.5 1h-1.6l-1.8-110.3z"/><path d="m762.2 476 2.8 109.5-.6 1.1-2 .1-1.7-111h1.5zm-.4.3h-.6l1.7 109.8h1.3l.4-.8z"/><path fill="#ff0" d="m785.4 567.4-1.7-88.1c-.2-3.4-1.4-2.7-1.5.2l1.2 88z"/><path d="M785.6 567.3v.4h-.2l-2 .1h-.2l-.7-47.1-.5-41.2q0-2.4 1-2.8.3 0 .7.6l.2 2 .7 38zm-.4-.2-1-49.8-.7-38q0-1.1-.2-1.7l-.3-.3q-.5.2-.6 2.2l.6 41.2.7 46.5h.7z"/><path fill="#fff" d="m748.4 494.5-23.6-.5c-.8 6.6 4.2 6.4 6.8 4.8 2.8 2.6 4.3 2.4 6 .3 2.3 2.2 4.3 1.7 5.7.2 3.1 2.6 5.4.2 5.1-4.8"/><path d="M748.4 494.2h.2v.3q.5 3.7-1.4 5.5t-4-.3c-1.8 2.1-3.3 2-5.6-.2-1.8 2.2-3.4 2-6-.4a5 5 0 0 1-4.8.6q-1.5-.6-2-1.8a7 7 0 0 1-.2-4v-.2zm-.2.6-23.3-.5q-.3 2 .3 3.2t1.7 1.7q2.5 1 4.6-.7h.3c2.5 2.5 4 2.6 5.6.4l.1-.2.2.1c2.2 2.3 3.7 2.4 5.4.3l.1-.2.2.2q2 2 3.6.4 1.5-1.5 1.2-4.7"/><path fill="#fff" d="m750.2 510.8-24.2-.2c-3.8 5.7 1 7.9 5.9 4.4.9 2 3.2 2.8 5.7 1.5 2.3 2 4.3.7 6-1.2 2.6 1.6 5 2 6.6-4.5"/><path d="M750.2 510.5h.2v.3q-1 4.6-3 5.5-1.7.8-3.8-.6c-2.3 2.7-4 3-6 1.2q-1.7.9-3.5.4-1.7-.6-2.3-1.9c-2.5 1.9-4.3 2.2-6.2 1q-1.3-.7-1.3-2.3 0-1.7 1.6-3.7v-.1zm-.3.5-23.8-.1a6 6 0 0 0-1.4 3.2q0 1.3 1 1.9c1.9 1 3.6.7 6-1.2l.3-.2v.3q.5 1.3 2.2 1.8t3.3-.4v-.1l.2.1c2 1.8 3.5 1.5 5.7-1.2v-.2l.2.1q2.2 1.5 3.7.8c1.2-.7 2-2 2.6-4.8"/><path fill="#fff" d="m749.5 531.4-23.3-.3c0 5.7 3.9 5 6.1 3.6 2.2 3.7 5.3 3 7.2.8 2.4 2 4 1.5 5.4-.4 3 2.6 4.5-.7 4.6-3.7"/><path d="M749.5 531h.2v.4a6 6 0 0 1-1.3 4.2q-1.6 1.8-3.4-.1c-1.6 2.2-3 2.3-5.4.3q-1.4 1.7-3.6 1.8-2.5 0-3.7-2.5a5 5 0 0 1-4 .8c-1.8-.7-2.4-2-2.3-4.8v-.3zm-.2.7-22.9-.3q-.1 3.3 2 3.9 2 .4 3.8-.9l.2-.1.1.2q1.2 2.5 3.5 2.5a4 4 0 0 0 3.4-1.7v-.2l.2.1c2.3 2 3.7 1.9 5.2-.3l.1-.3.2.2q1.6 2 3 .4 1.2-1.4 1.2-3.5"/><path fill="#fff" d="m750.6 552-26-.7c-1 6.2 2.2 7 4.4 5.8 1 3.5 3.8 2.4 5-.2 1.5 1.7 2.9 1 3.8-.3.7 3.2 3.1 3.3 5.7.5 5.1 4.2 8.8-.5 7.1-5.1"/><path d="M750.6 551.7h.1l.1.1c1.1 2.7.8 4.4-1 6.3-2.1 1.6-3.8 1.5-6.3-.6q-1.7 2-3.6 2-1.7-.3-2.2-2.4a3 3 0 0 1-1.5 1q-1.3.3-2.1-.7-.8 1.8-2.6 2.2-2 .2-2.6-2-1.7 1-3.4-.3c-1.4-1.4-1.7-3-1.1-6v-.3zm-.1.6-25.7-.7c-.5 2.6-.2 4 .9 5.2q1.6 1.3 3.2 0l.3-.1v.3q.5 2.3 2.2 2 1.7-.4 2.4-2.2l.2-.4.2.3q.8 1.1 1.9.9.9-.3 1.6-1.2l.3-.5v.6q.3 2.2 2 2.3t3.4-1.9l.1-.1.1.1c2.4 2 4 2.2 5.9.7 1.6-1.6 1.9-3 1-5.3"/><path fill="#fff" d="m773.7 542.8-21.7.4c1.2 6.2 3 7.5 6.6 4 3 3.4 6.4 2.2 8 .2 5 4.7 7-.8 7.1-4.6"/><path d="M773.7 542.5h.2v.3q0 3.5-1.9 5.7c-1.7 1.7-3.2 1.5-5.5-.7q-1 1.6-3.4 1.8-2.7.4-4.5-2-2.5 2.5-4.3 1.5-1.6-1.2-2.5-5.8v-.4zm-.2.6-21.2.4q.8 4.1 2.2 5t4-1.5l.1-.2.2.2q1.7 2.4 4.3 2 2.3-.2 3.2-1.7l.2-.3.2.2c2.1 2.2 3.5 2.4 5 .9a8 8 0 0 0 1.8-5"/><path fill="#fff" d="m771.5 522.6-21-.2c.8 7.3 5.1 6.9 8 3.7 2.3 3.2 5.1 2.3 6.7-.2 3 3.3 6.6 1.4 6.3-3.3"/><path d="M771.5 522.3h.2v.3q.5 3.5-2 5c-1.8.7-3 .4-4.5-1.3a4 4 0 0 1-3 2.2q-2.3.1-3.7-2-2.2 2.6-4.9 2c-2-.8-3-2.4-3.3-6v-.4zm-.2.6-20.5-.2q.3 4.5 3 5.2 2.4.6 4.6-2l.2-.2v.2q1.4 2.3 3.5 2 2-.3 2.9-2.2l.2-.2.1.2q2 2.5 4.2 1.3t1.8-4"/><path fill="#fff" d="m774.2 499.7-22.5.7c.6 5.3 4.8 7.7 9 3 1.6 5.6 4.8 3.9 7 1.4 3 4 8-.7 6.5-5.1"/><path d="M774.4 499.4v.1q.8 1.6.2 3.5-.6 1.6-1.8 2.7c-2.3 1.7-3.7 1.6-5.2-.5q-1.7 2.1-3.7 2.3c-1.7-.1-2.6-1-3.3-3.6-2 2.2-3.6 2.8-5.8 2-2.1-1-3-2.5-3.3-5.5v-.3zm-.3.6-22.2.7q.4 3.6 3 4.7c2.2.7 3.7 0 5.7-2.2l.3-.4v.5q.8 3.6 3 3.6 2-.2 3.6-2.3l.2-.2.1.2c1.4 2 2.6 2.2 4.7.6q1.1-1 1.7-2.5.4-1.4 0-2.7"/><path fill="#fff" d="m772.9 484.2-20.1 1c0 4.7 4 6.2 6.2 2.7 1.3 2.2 4 2 5.3-.3 1.8 3.2 3.4 1.1 4.2-.2 2.5 2.1 4.5 1.2 4.4-3.2"/><path d="M772.9 484h.2v.2q.2 3.3-1.3 4.3t-3.3-.7a4 4 0 0 1-1.7 1.7q-1.4.6-2.5-1.4-.8 1.5-2.7 1.6-1.8.1-2.6-1.3-1.5 2.5-4 1.5-2.7-1.1-2.5-4.7v-.2zm-.2.5-19.8 1q-.1 2.9 2.2 3.9t3.7-1.7l.2-.4.1.4q.7 1.5 2.5 1.4t2.5-1.6l.2-.4.2.3q1 2 2.2 1.5.8-.4 1.6-1.6l.1-.3.2.2q1.7 1.6 3 .8 1.2-.9 1.1-3.5"/><path fill="#fff" d="M796.5 492.8q-12.1.8-24.7 1.2c.2 3.6 2.4 4.7 4.2 3.3.4 3.5 3.1 4.2 5.7 1.5 2 2.8 5.5 3.3 7.7-.8 4 3.7 7.2.9 7.1-5.2"/><path d="M796.5 492.5h.2v.2c.2 3.3-.5 5.2-2.1 6.6-1.8 1.2-3.2 1-5.1-.8q-1.4 2.8-4 2.8t-3.8-2q-1.8 1.9-3.7 1.4t-2.2-2.9q-1.2.9-2.6 0-1.6-1.1-1.6-3.8v-.3q12.3-.4 25-1.2m-.3.6q-12 .8-24.3 1.2.1 2 1.4 3 1.3.8 2.5-.2l.3-.4v.6q0 2.3 1.9 2.8t3.5-1.5l.1-.2.2.2q1.1 2.1 3.6 2.1t3.7-2.8l.2-.3.2.2q2.5 2.7 4.8 1c1.4-1.3 2-2.9 2-5.7"/><path fill="#fff" d="M796.2 520.5q-12 .8-24.2 1.4c.6 4.7 3.7 5.8 6.3 3.4.9 3.9 3.3 3.9 5.3 1.9 2.5 3 5.4 3 7.7-.7 3.1.9 4.9-2 4.9-6"/><path d="M796.2 520.2h.2v.2a8 8 0 0 1-1.3 5.2q-1.6 2-3.7 1.3-1.5 2.6-3.9 2.9-2.2 0-3.9-2.2-1.5 1.5-3.1 1.2-1.9-.5-2.3-3-1.8 1.8-3.9.8-2.3-1.3-2.5-4.7v-.3q11.9-.5 24.4-1.4m-.2.6q-11.7.8-23.8 1.4.3 2.8 2.3 3.8t3.7-1l.3-.2v.4q.4 2.5 2 3 1.7.3 3-1.2l.2-.2.1.2q1.6 2.3 3.7 2.2 2.3-.2 3.6-2.8l.1-.2h.2q2 1 3.4-1a7 7 0 0 0 1.2-4.4"/><path fill="#fff" d="m795 545.4-19.2.9c.4 4.7 3.6 5 5.8 2.5q3.4 4.1 6.3.2c3 2.7 6.1 1.8 7-3.6"/><path d="M795 545.1h.2v.3q-.5 4-3 5.1-2.2 1-4.3-1.1-1.3 1.8-3 1.8-2 0-3.3-2-1.5 2-3.6 1.3-2.3-.7-2.4-4.2v-.3zm-.3.6-18.7.9c.2 2 .8 2.8 2.1 3.3q2 .6 3.3-1.3l.2-.3.2.3q1.3 2 3 2 1.8 0 3-1.8v-.2l.2.1q2 2.1 4.1 1.3 2.1-1 2.6-4.3m-30.4 40.6c-10.3.6-20.7.7-27.9-.8a26 26 0 0 1-14.2-7l-19.4-16.2c-1.7-1.2-3 0-1 2.3l19.3 17.8a69 69 0 0 1 11.6 13.8c4.3 6.3 6.9 6.4 9 5.5s4.6-2.2 7.7-1.4c3 .8 6.7.9 8.9.4 2.2 2.1 5.8 1.7 8.5.8 2.4-.8 4-1.2 5.8-.8s4.2-.1 6-.6 6-1.2 9.2-1a17 17 0 0 0 8.4-1.1c2.2-1 5.6-1.1 7-.8q2.5-3 3-6.8c2.2-.6 2.8-1 3.3-2.7l2-7.6h.8l.2-2.8-1.7-2.6.6-5.3 1.9-.8c0-1.6-.5-3.9-.8-4.8a471 471 0 0 1-30 3.8 13 13 0 0 0-2 5.3l-9 2.4c-1.2.4-1.8.5-2.9 2.4-1.5 3-3 6.4-4.3 8.6"/><path d="m764.2 586 2-3.9 2.3-4.6q1-1.8 2.9-2.5h.1l3.3-1 5.5-1.4q.5-3.2 2-5.2h.1q15-1.6 30.2-4v.2q1 2.5 1 5l-.1.2-1.9.9-.6 5 1.8 2.5-.3 3.1-.9.1-1.9 7.3q-.6 2.1-3.2 3a15 15 0 0 1-3.2 6.7v.1h-.2a10 10 0 0 0-6.9.7 15 15 0 0 1-8.4 1.3q-4-.5-9.2 1a14 14 0 0 1-6 .5q-2-.4-5.8.8c-4.3 1.3-6.7 1-8.6-.8a17 17 0 0 1-8.9-.5c-2.2-.5-4.4-.1-7.6 1.4-3 1.3-5.6-.2-9.2-5.5q-4.9-7.5-11.6-13.7l-2-1.9-17.2-16a4 4 0 0 1-1.1-1.6q-.3-.7.1-1.3.8-1 2.3.1l12.4 10.5 7 5.8q6.3 5.2 14 7 8.2 1.7 27.8.7m0 .6q-19.5 1-27.8-.8-8-1.7-14.3-7l-6.9-5.8-12.5-10.5q-1-1-1.7-.2v.7q.1.6.9 1.3l17.3 16 2 1.9q6.7 6.2 11.6 13.8c3.5 5 6 6.6 8.8 5.4 3.2-1.6 5.5-2 7.8-1.4q4.8 1.4 8.8.4h.2c1.8 1.9 4.1 2.1 8.3.8q4-1.1 6-.8t5.8-.6q5.3-1.4 9.3-.9 4.7.5 8.3-1.2a10 10 0 0 1 7-.8q2.2-2.5 3-6.6v-.2h.2q2.5-.8 3-2.5l2-7.5v-.3h.8l.2-2.4-1.7-2.6.6-5.6 1.9-.8q0-2-.7-4.3-14.7 2.2-29.8 3.8a10 10 0 0 0-2 5v.2h-.1l-5.7 1.6-3.2.8h-.1q-1.7.7-2.7 2.3l-2.3 4.6-2 4.1-.1.1z"/><path d="m800.2 565.6 4.7-23c.2-2.3-1-3-1.7 0l-4.7 23.2z"/><path d="M800.4 565.7v.2h-.2l-1.7.2h-.3l4.8-23.7q.4-2.3 1.5-2 .4 0 .6.7v1.5zm-.3-.4 4.6-22.8v-1.2l-.3-.4q-.6-.1-1 1.7l-4.6 23 .6-.2z"/><path fill="#fff" d="M817.6 538.2c-4 3.2-5.5 4.2-7.4 3.6q-2.7-1.1-5.3.2v.6l-3.6 18c3.1 1 7.2.6 8.7-1 1.4-1.8 4.1-1.9 6-2q1.5-3.2 1-5.2a12 12 0 0 1 .3-4.6c.4-1.7.8-6.4.3-9.6"/><path d="m817.5 538 .2-.2v.3q1 4.7-.2 9.8a10 10 0 0 0-.2 4.4q.5 2.2-1.2 5.5v.2h-.5q-4.4.2-5.4 1.7c-1.9 2.4-4.3 2.7-9 1h-.2l3.7-18.2v-.7l.1-.1c1.6-1 3.1-1 5.5-.2 1.4.4 3.5-.6 7.2-3.6m0 .7c-3.8 3-5.9 3.9-7.3 3.5q-3.2-1.3-5 0l-.1.5-3.6 17.7c4.4 1.5 6.7 1.2 8.4-1 .9-1.2 2.5-1.7 5.7-2h.2q1.5-3 1-4.8-.4-2 .3-4.8 1-4.7.3-9m-85.6-39.8q-3.4 13.4-12 34.2-9.3 22.4-15.4 30.6l-.3-.4q6-8.2 15.4-30.4 8.5-21 12-34.2zm-21 70q8.8-9 21.7-27.5 14.5-21 17.5-30.8l.4.3q-3 9.8-17.6 31a230 230 0 0 1-21.7 27.4z"/><path d="m726.4 531.1-5.2 46.5-.4-.1L726 531z"/><path d="m730.2 559.2-4.7 6.7a142 142 0 0 1-7 9.7l-.3-.5q2-2.4 7-9.6l4.7-6.7zM762 534l-.3.4a32 32 0 0 1-8.7 9.1l-.1-.6q2.6-1 8.5-9l.3-.3zm1.6.1q5.1 7 9 8.4l-.2.6q-3.9-1.4-9-8.6zm-2-19.6a29 29 0 0 1-9.9 8.2v-.6q4.4-1.9 9.7-8zm1.5.2 1.9 2.2q3.6 4.3 5.5 5.5l-.2.5q-2-1.2-5.6-5.5l-1.8-2.2zm-11-14.6a21 21 0 0 0 9-7.1l.2.4a21 21 0 0 1-9 7.3zm10.5-7.8a18 18 0 0 0 9.2 7.2l-.1.6q-5.9-2-9.4-7.4zm-9.9-7.3c3.9-1.4 6.3-3.4 8.1-6.7l.4.4a14 14 0 0 1-8.4 6.8zm9.5-7.7c4 4.3 6.8 6.3 9.2 6.7v.6c-2.6-.4-5.5-2.4-9.5-6.9zm20.3 10.3c-3.1 4.4-5.5 6.3-8 6.6l.1-.6c2.3-.3 4.5-2 7.6-6.4zm1.5-.6c2 3.8 3.5 5.5 5.4 6v.5q-2.9-.4-5.7-6.2zm-11 34.5q5.9-3.2 9.5-8.9l.3.4q-3.5 5.8-9.7 9zm11.5-8.7c1.8 4.2 3.7 6.5 6.2 7.8l-.1.5q-3.8-1.7-6.4-8zm-7.9 33.2a10 10 0 0 0 6.2-6.3l.4.2a11 11 0 0 1-6.5 6.7zm8.4-8.2q3.8 6 7.2 7.5l-.2.6q-3.5-1.7-7.4-7.8zm-57.3 13.4q10-4.3 17.4-16l.3.4q-7.4 11.8-17.5 16.1z"/><path d="M737.1 544q7 6.7 11 7.7v.5q-4.1-.9-11.2-7.8zm-10.2-13.1a26 26 0 0 0 8-7.1l.2.4q-3.1 4.4-8 7.2zm10.1-7.6c2.9 5.2 6.2 7.6 11 7.8v.6c-5-.3-8.4-2.7-11.4-8zm-1.9-19q-4.8 5.2-8.6 6.6v-.6q3.7-1.4 8.4-6.4zm1.7-.3q6.8 6.4 10.7 6.5v.6c-2.8-.2-6.1-2.1-11-6.6zm-1.6-18.6q-5.1 7.6-8.3 9l-.1-.6q3-1.3 8-8.8zm1.6.3q3.4 7.3 8.3 8.5l-.1.6c-3.5-1-6-3.6-8.6-8.8zm36 19.7q11.7 29 29.3 42.8l-.2.5a102 102 0 0 1-29.5-43zM754 488.6l4.4 8.6c17.4 34.7 31.1 55.3 41.2 63.2l-.2.5c-10.2-7.9-23.9-28.6-41.4-63.3l-4.3-8.6z"/><path d="M803 544.6q-6.8 13.4-16.5 23l-.2-.5a87 87 0 0 0 16.3-22.8z"/><path d="M801.5 549.9q-5.4-11.5-12.4-45l-1-5 .4-.2 1 5q7 33.4 12.4 44.8zm-61.3 9.2 7.3 27.4-.4.2-7.3-27.4zm-1.4-.7 6.5 28-.4.3-6.5-28.1zm-1.3-1.3 6 29.2-.4.2-6-29.2zm-.6.5 4.6 28.6-.4.1-4.7-28.6z"/><path d="m741.1 585 5.8-.1v.6h-5.8zm5-2.5h-5.4v-.6h5.4zm-.6-2.3h-5.2v-.6h5.2zm-.6-2.3h-5v-.6h5zm-.6-2.6h-4.8v-.5h4.8zm-5.2-2.7h4.6v.5H739zm-.3-2 4.3-.1v.6h-4.3zm-.4-2.3h4.1v.5h-4zm-.3-2h3.9v.5h-4zm-.4-2.1h3.7v.6h-3.7zm-.3-2h3.5v.7h-3.5zm-.3-1.7h3.4v.6H737zm-.2-1.5h3.2v.6h-3.2zm-5.5.4-4.1 23-.4-.2 4-23zm1.2-.4-3.5 24.3-.4-.2 3.5-24.2zm1-1-2.9 26-.4-.1L733 558zm1.2-.5-2.1 27.1h-.4l2-27.1z"/><path d="M735 583.3h-6.6v-.6h6.6zm0-2.4-7.6-.1v-.6h7.6zm0-2.6h-7.2v-.7l7.2.1zm0-2.4h-6.7v-.7h6.7zm0-2.5h-6.3v-.6h6.3zm0-2.7h-5.8v-.7h5.8zm0-2.4h-5.4v-.6h5.4zm0-2.4h-5v-.7h5zm0-2.4h-4.5v-.6h4.5zm0-2h-4.1v-.7h4zm0-1.7h-3.8v-.6h3.8z"/><path d="M734.8 585.2v-27.4h.4v27.4zm22.5-36.6-13.8 38-.4-.3 13.8-38zm.9-.6-11.8 38.7-.4-.2 11.7-38.7zm.8-.5-9.3 39.3-.4-.1 9.3-39.3zm.6.7-7.2 38.6-.4-.2 7.2-38.6z"/><path d="m752.5 585.2-8.7.1v-.5l8.7-.2zm.6-3.4h-8v-.5l8-.1zm.4-2.8h-7.4v-.5l7.4-.1zm.8-3h-7v-.6h7zm.3-2.5h-6.5v-.5l6.5-.1zm.6-2.8h-6v-.5l6-.1zm.6-3.3-5.5.1v-.6h5.5zm.5-2.5-5 .1v-.6h5zm.5-2.8h-4.6v-.5l4.6-.1zm.4-2-4.3.1v-.6h4.3zm.3-1.8h-3.9v-.5h4zm.4-1.9-3.6.1v-.6h3.6zm.3-1.6h-3.3v-.5l3.3-.1zm.3-1.7-3 .1v-.6h3zm.3-1.6h-2.7v-.6h2.7zm.3-1.6h-2.5v-.5h2.5zm9.2-1.2 6 25.8-.4.1-6-25.7zm1.1.4 7.3 24.7-.4.2-7.3-24.6zm1 0 8.6 24-.4.3-8.5-24zm10.3 22.1-9.5-22.3.4-.3 9.4 22.3z"/><path d="m780.9 571.4-7.5.4v-.6l7.5-.4zm-1.3-3-7 .3v-.6l7-.4zm-1.3-3-6.3.2v-.6l6.3-.3zm-1.3-3.1-5.8.3v-.6l5.8-.3zm-1.3-3-5.2.2v-.6l5.2-.2zm-1.2-3-4.7.1v-.5l4.7-.2zm-1.3-3.1-4.1.2v-.6l4-.2zm-1.3-3-3.5.1v-.6l3.5-.1z"/><path d="m779.8 550.3-5.9 24.5-.4-.2 6-24.5zm1.8-1.2-5.5 25-.4-.1 5.5-25zm-3.4 24.2 4-23.5.5.1-4 23.6zm5.5-22.7-3.4 22.4h-.4l3.4-22.5z"/><path d="m774.4 571.6 6-.4v.6l-6 .3zm.8-3 5.6-.4v.6l-5.6.3zm.7-3.1 5.4-.3v.6l-5.4.3zm.7-3 5.1-.4v.6l-5 .3zm.8-3.1 4.8-.3v.6l-4.8.3zm.7-3 4.5-.3v.6l-4.5.2zm.7-3 4.3-.3v.5l-4.3.3zm.8-3.1 3.5-.2v.5l-3.5.2zm6.8.3 2.9 16.3-.4.2-3-16.4zm1-.9 4 17-.3.2-4-17zm1.4-.2 4.4 17-.4.2-4.4-17zm1.8.9 4.4 15.8-.4.3-4.4-16z"/><path d="m794.4 565.2-5.6.5v-.6l5.6-.4zm-.7-2.3-5.3.4v-.6l5.3-.4zm-.6-2.4-5.1.4v-.6l5-.4zm-.7-2.4-4.9.4v-.6l4.9-.4zm-.6-2.4-4.7.4v-.6l4.6-.3zm-.7-2.3-4.4.3v-.6l4.4-.3zm-.7-2.4-4.1.3v-.6l4.1-.3z"/><path fill="#00b800" d="M734 595.3a8 8 0 0 1 9.8.5c3.2-2 7.6-1.6 10.4 1.2 3.8-3.4 6.5-4 10.3-.8q4.7-4.4 10.3-.2c3.4-2.4 6.4-4 9.8.1-2.1-1.7-5.5-2.9-9.8 1.4-3.6-3.9-8.2-2.3-10.3.7-2.7-3.7-6.9-4-10.2.5-3.5-3.5-7.6-3.6-10.5-.8-2.3-2.3-4.9-3.8-9.9-2.6"/><path fill="#cf6200" d="M782.5 588.9a136 136 0 0 1-51.7-.1c-2.3-1-1.7-1.9.3-1.4 8 2.4 24.2 2.4 33.5 1.5l5.4-10.4c.9-1.6 1.2-1.7 3-2.2l7.7-2.2v1.5l-.6.8c0 2.5.4 8.5.7 10.7l1-.4c.7 0 1.2 1.7.6 2.2"/><path fill="#cf6200" d="m805.6 588 1.8-.3q1.1-.1 1.8-2l1.8-7.7-1.4-2.8.8-6.4 1.8-1.1c0-.6-.1-2-.4-2.5-6.2 1-24.3 3.3-27.7 3.6-.8 0-1 0-1.4 1.6-1.6 9 .7 20.4 7 27.2.5.4 1 0 .3-.9a30 30 0 0 1-3.9-6.5l4.5-.4c.4 2 1.6 6.2 1.8 7 .2.6.7.7.5-.4l-1.2-6.7 4.6-.5.3 6.2q.3 1.3.6 0V589l4.2-.5-.4 6.3c0 1 .2 1.4.5 0l.6-6.4 2.8-.4c0 1.3-1 5.3-1.2 6.4q-.1 1.5.5 0c.3-1 1.2-5 1.4-6.4"/><path d="M785.4 588.6c-.5-1.4-1.9-5.9-2.1-9.4l6-.6 1.2 9.5zm5-10 1 9.5 5-.6-.3-9.6zm-6.9-8c-.2 1.7-.2 5.4-.2 7 1.6 0 5.4-.4 6-.5l-.6-7.1zm6.4-.7.4 7 5.7-.5-.2-7.2zm7-.8.2 7.1 5-.6.2-7.3zm6.3-1-.1 7.4 5.4-.8.8-7.4zm5.5 8.1-5.7.8-.6 9.7 5.6-.8c.5-1.5 1.6-6.1 2-7.6zm-11.6 1.5.2 9.6 4.1-.6.6-9.6zm-23.5-.3-2.3.6-5.5 10.7c2.7-.2 7-.5 8-.7zm1-.4.3 11 4.9-.8-.8-11.5zm-23.9-25.4q.6.1 0 .4l-26.2-.5q-.5-.2 0-.4z"/><path d="M750.8 551.4q.4 0 .4.5l-.2.4h-.2l-26.3-.4-.3-.1-.1-.5q0-.4.4-.4zm20.6-29q.4.1 0 .4l-20.8-.2q-.5-.1 0-.4z"/><path d="M771.4 522.1q.4 0 .4.5l-.1.4h-.3l-20.8-.1-.3-.1-.2-.4q0-.4.5-.4zm-22 9.1q.6.1 0 .4l-23.2-.3q-.5-.1 0-.4z"/><path d="M749.4 531q.5-.1.5.4 0 .3-.2.4h-.3l-23.2-.2v-1zm.7-20.4q.5.2 0 .3l-24.3-.2q-.4-.2 0-.3z"/><path d="M750.1 510.3v1l-24.3-.3h-.3l-.2-.5q0-.4.5-.4zm-1.6-16q.4.2 0 .4l-23.7-.6q-.4-.1 0-.3z"/><path d="M748.5 494q.4 0 .4.5 0 .3-.2.4l-.3.1-23.6-.6h-.3l-.2-.5q0-.4.5-.4z"/><path fill="#fff" d="M773 484q.4.3 0 .4l-20.4 1q-.4-.1 0-.4z"/><path d="M773 483.8q.3 0 .4.4 0 .3-.2.4l-.3.1-20.3 1-.3-.1-.1-.4q0-.5.4-.5zm1.2 15.7q.4.1 0 .4l-22.5.7q-.4-.2 0-.3z"/><path d="M774.2 499.2v1l-22.5.7v-1zm22 21q.4.1 0 .3-12 1-24.2 1.6-.5-.1 0-.4z"/><path d="M796.2 519.9v1l-24.2 1.5v-1q12-.4 24.2-1.5m.3-27.3q.5.2 0 .3-12.1.9-24.7 1.3-.4-.2 0-.4z"/><path d="M796.5 492.3q.4-.1.5.4l-.5.5a675 675 0 0 1-25 1.2l-.1-.4q0-.5.4-.5zm-22.8 50.2q.5.2 0 .4l-21.7.5q-.5-.1 0-.4z"/><path d="M773.7 542.3q.4-.1.5.4l-.2.4-.3.1-21.7.5h-.3l-.2-.5q0-.4.5-.4zm21.2 3q.5 0 0 .3l-19 .9q-.6-.1 0-.4z"/><path d="M795 545q.3 0 .4.3l-.2.4-.3.2-19 .9-.4-.1-.1-.4q0-.5.4-.5z"/><path fill="#ef072d" d="M812.1 548.6c.5-1.8.6-5.4.3-6.8q-1.1.4-2.2 0l-1.1-.4c-.1 2-.7 6.7-1.2 8.6-1.2.5-3.2.3-4.5-.1l-.9 4.5q2.5.3 5-.5-.2 4.3-1.5 7.2 2.9-.2 4-1.6l.2-.2c.8-2 .9-4.5 1-6.2q1.1 0 1.8-.9a2 2 0 0 1 1.5-.8q.8 0 2.4-1 0-1.3.4-2.6l.3-2.1c-1.4 1-4.2 2.6-5.5 2.9"/><path d="M812.5 548.2q1.8-.2 5-2.8l.4-.2v.5l-.4 2.2-.4 2.5v.3q-1.5 1-2.6 1-.9 0-1.3.7-.7.9-1.8 1v1q-.4 3.5-1 5v.1l-.2.2q-1 1.4-4.2 1.7h-.5l.3-.4q1.2-2.1 1.4-6.8-2.3 1-4.7.5h-.2l1-5.2.2.1q2.7.9 4.2.2.9-3 1.2-8.4v-.3h.2l1.2.4q1 .4 2.1 0l.2-.1v.3q.7 3.3-.1 6.5m-.5.3q.9-3.2.3-6.4a3 3 0 0 1-2.1 0l-1-.3q-.2 5.4-1.1 8.4l-.2.1q-1.5.8-4.3 0l-.8 3.8q2.3.4 4.6-.5l.3-.1v.4q-.3 4.6-1.3 6.9 2.7-.3 3.5-1.4l.1-.3q.6-1.5 1-4.8v-1.5h.3q1 0 1.6-.8t1.7-.9q.9 0 2.1-.8 0-1.4.4-2.6l.3-1.5q-3.4 2.5-5.3 2.7h-.3zm-84.6-154.2c-2.9 0-8.4.2-9.8.9-1.3 1-1.8 1.3.4 1.9 2.2.7 5.7 2.1 7.8 3.8 2 2 3.5 4.5 3.1 9-1.5 13 3.2 24.8 10.4 29.8.7.5.8.8.7 2.5-.2 1.8-.7 4.6-1 5.4s-.6 1.8.6 1.4l-3.3 7.6c-5.9-1-10 0-10.7 8 0 1 0 2.1 1 .2 1-2.2 1.9-3.7 4.3-4.4a15 15 0 0 0-1.6 7.4c.2 1.8.5 2.8 1.2.6q1-3.4 3-5.5c.4-.5.7-.6.4.8-.3 1.5.2 4.2.8 5.3q1.1 1.5.9-1c-.2-1.9.2-4.8 1.6-6.1 2.3-1.5 3.7-.8 4.7 1.2s1.5.2.7-2.2c-1-2.3-1.8-3.6-3.4-4l3.2-8q.6-1.2 1.4-.7c.5.5.7.5 1.2-.9s1.4-5.1 2.5-6.8q1-.4 1.8-1c1.5 3 2.9 6.3 3.2 7s.7 1 .4 2.6l-1.7 7.5c-4.4.3-6 .4-7.5 3.6-.5 1.5.2 1.9 1.3 1.2q1.8-1.3 3.2-1.2 1.3.3.3 1.1c-2.6 2-4 3.9-4 7 0 1.2.3 1.7 1 .2q1.5-3.4 4.4-4.8c0 2.8.4 6 1.5 7.1q1.6.9.8-1.5c-.6-2.6 0-4.7.9-6.2 2.2-2.4 5.6.7 6.7 1.9.8.9 1.4 1.3 1-1.2-.9-3.3-3.7-4.9-6.8-5.5.8-5.4 3-16.1 4.1-19.9 1.8.9 2.9-1.8 5.9-.8 4.8 2.4 11.9 8 13.2 9.3s1.6 1 2.3.2c.7-.6 1.6-.1 2.5 0 1 .3 1.6.5.6-2.4-1.2-3-3.8-7.7-8.1-11.6 2.9.1 5.8-.1 6.2-1-.4-1-3.9-2.4-5.8-2.7 1.7-.6 3.9-2 5.2-3.8.6-1.2 0-1.3-2.5-1.3-7.5.2-11 .3-15-2.5-6.1-4.7-9.8-9.6-12.7-11.8a12 12 0 0 1-3.3-6.1c-2-7.5-2-10.5-6.6-13.1-5-2.2-9.8.3-12.6 3.5"/><path fill="#fff" d="M727.7 396c-1.2-.2-3.5-.5-5.5-.3-.5 0-1 .3.1.5l5 1.7c1 .6.6 1.2-.3 1q-1.5-.4-.5.8c3.7 3.8 4.1 5 3.2 17.6l1.9 1.6q.8 1-.2.8c-.7-.2-1.3.2-.3.6 1.1.3 1.6.9.6.9s-2.3 1-.3.8 2.8.9.5 1c-2.4.2-1.5 1-.2 1.1 2.2.2 1.5.8 1 .9s-1 1 .6.9l2.5-.2q1 .5 0 .8c-.8.2-.8.8.4.9q2 .1.7.8c-.5.1-1 .4.2.6 2.2.5 2.3 1.1 1.6 1.3q-1.2.4.2.8c1 .2 1.9.5 1 .9-.8.3-1.2.9-.2 1 1.2.2 2 .6 1.2 1q-1.3.9 0 1 1.6.2.8 1.3c-.8.6-1.2.9-1.7 0q-.7-1.6-.8-.6-.3 1-.8-.8c-.4-1.1-1-1.4-.8-.6q-.1 1.3-1.4.6c3 4 6.7 7.1 13.5 3.7.6-.3.6 0 1.1 1.2l2.1 5c.5 1 .8.2 1-.9l1.9-8c.3-1.1 1.4-2.3 1 1.5 1.4-.9 5-1.7 8.7-.3 3.7 1.9 7.4 4.5 9.3 6.4q.5.6 1.7.6c.9-.2 1-.4-.6-2.4-1.6-2.2-1-3 .1-2.2 1.1 1 1.6.4.9-.9l-3.4-4.2c-.6-.6-.7-.8-2.1-.8H766c-1 .1-1.2.2.8 1.1 1.9 1 5.9 4.2 6.8 5 .8 1 1.6 2.7-.4 1.2-2-1.7-8.1-6.5-12.2-8.4-9.5 1.2-16.4 2.7-22.2-5.4-2.6-4.3-2.7-12.5 1.7-16.7q-1.2-1.5-.4-2 .6-.2.1-1-.4-1 0-1.4-1.4-1.1-1.4-2.5c-1.2-.5-1.7-2-3.3-1.7-1.6.6-2.3.1-2.9-.4q-.5-.9-1.7-.7-1.5 0-1.7-1 0-1 2-.2c2.7 1.6 4.3 2.2 6-.5 1.4-3.1-.2-5.3-3.3-6.4-3.1-.4-5 2-6.3 3.6"/><path d="m727.6 395.7.1-.2c2.4-2.8 4.2-3.7 6.3-3.3a6 6 0 0 1 3.5 2.5q1.2 2 0 4.2c-1.4 2.3-3.1 2.5-6.3.7q-.9-.4-1.4-.4-.3 0-.3.3.1.9 1.4.7 1.1-.1 2 .7.9 1 2.7.4 1-.4 2.3.9l1 .8h.3v.3q0 1.2 1.2 2.2l.3.3-.3.3-.1.3.2.6q.3.6.2 1 0 .3-.4.5l-.2.4q0 .4.6 1l.2.3-.2.2c-2 2-3 4.3-3.4 8q-.2 5.2 1.8 8.3c3.5 4.9 9.5 6.8 19.3 5.6l2.7-.3a65 65 0 0 1 13.2 9q0-.5-.7-1.2a33 33 0 0 0-8.4-6v-.5h.3l.6-.1q3.9-.2 5.3-.1 1.4 0 2 .7l.3.2q1.4 1.5 3.3 4.2l.4 1-.1.7q-.5.5-1.4-.3l-.6-.3h-.2q-.1.6 1 2 1.2 1.5 1.3 2 0 .4-.3.7l-.6.1q-1 .2-1.8-.6a37 37 0 0 0-9.2-6.3c-3.9-1.7-6.3-1.6-8.5.3l-.4.4v-.7q.3-2.2 0-2.3-.4 0-.6.8l-1.9 8.1-.4 1.4q-.2.3-.5.2l-.5-.6-.3-.7-1.8-4.4q-.5-1.3-.8-1c-5.5 2.8-9.6 1.7-13.8-3.8l.3-.5q.4.3.9.2l.2-.1v-1q.1-.3.4-.1t.8 1.2l.4 1v-.2l.1-.5h.5l.6 1q.3.7 1.3 0l.3-.3v-.2q-.2-.3-.9-.3h-.6q-.3-.2-.3-.6 0-.5.8-.9h.2q-.5-.4-1.3-.5-.4 0-.6-.2-.3-.3-.2-.7.3-.4 1-.7h.1l-1.1-.3q-.9-.2-1-.6t.3-.6l.4-.2h.2q-.3-.4-1.8-.7l-.6-.2-.2-.2v-.4q0-.3.6-.4h.5l-1-.2q-1 0-1.2-.6-.1-.4.1-.7l.6-.2h.3l-.3-.2-2.5.1q-1.2.2-1.3-.5a1 1 0 0 1 .6-.9h.3q0-.2-1.2-.3-1.3 0-1.5-.7v-.5l.4-.2q.4-.2 1.3-.2l1.1-.2h.1q-.3-.5-1.6-.3h-1l-.3-.4v-.4q.5-.7 1.5-.6l.3.1-1-.5q-.3 0-.5-.3l-.2-.3.1-.4q.3-.3 1-.1h.3l-.2-.3-2-1.6v-.3c.6-9-.4-14.3-3.2-17.3l-.4-.5v-.7q.3-.4 1.1-.1h.6q0-.3-.4-.4-2.5-1.2-5-1.7l-.5-.2-.2-.2v-.4q.1-.3.7-.3 1.5-.1 4.4.2zm.1.5h-1.1q-2.8-.4-4.2-.2 2.4.4 5 1.7l.5.5q.3.3.1.7-.3.5-1.1.2h-.6l.3.4c2.8 3 3.9 8.5 3.3 17.6l1.8 1.5q.5.4.5 1-.2.6-.9.3h-.6.5q1 .4 1.1.8l.1.3-.1.3-.6.2q-.9-.1-1.1.4l.8-.2q1.7-.2 2 .5.3.3 0 .6 0 .2-.2.3l-1.3.2-1.1.2h-.2q.1.3 1 .4 1.7 0 1.8.6 0 .4-.3.6l-.5.2h-.2v.1q0 .2.8.2l2.7-.1q.6 0 .6.6 0 .3-.2.5l-.5.2-.3.1q0 .2.7.2 1 0 1.3.3l.2.4-.2.4-.6.3-.4.1h.6q1.5.3 2 .8.3.3.1.7t-.5.3h-.3q0 .2.5.2.9 0 1.3.4.4.2.3.6 0 .3-.5.4l-.6.5h.4q.9.2 1.3.5l.3.6q0 .4-.4.6-.5 0-.5.3h.4q.9 0 1.2.6v.7q0 .3-.4.6-1.3 1-1.9-.2l-.4-.8v.2q0 .4-.3.5l-.4-.1-.5-1.2-.5-.9v.1q.2.5 0 .8 0 .3-.4.4h-.4c4 4.6 7.7 5.5 12.7 2.9q.9-.4 1.4 1.4l1.8 4.3.3.7.2.3q.3-.3.4-1.1l1.9-8.1q.3-1.4 1-1.3t.5 2.4c2.4-1.7 4.8-1.7 8.5 0q5.4 2.6 9.3 6.3.8.7 1.6.6l.4-.2q0-.3-1.1-1.7-1.3-1.6-1-2.5 0-.5.5-.5t.8.4q.7.6.9.4v-.2l-.3-.7a25 25 0 0 0-3.3-4.1l-.2-.2q-.6-.6-1.8-.6H766l-.5-.2 1.3.7q2.6 1.3 7 5.1.8.8.9 1.7 0 .3-.2.5h-.4q-.4 0-1-.6-7.8-6.3-12.1-8.3l-2.6.3c-10 1.2-16.2-.8-19.8-5.8q-2.1-3.3-1.8-8.7.4-5.5 3.3-8.3-.4-.6-.5-1.1t.4-1l.2-.2-.1-.4-.3-1v-.5a3 3 0 0 1-1.2-2.4l-1-.8q-1.1-1.2-2-.8-2 .7-3.1-.5-.7-.7-1.6-.6-1.9.1-1.9-1.3 0-.7.7-.9.7 0 1.6.5c3 1.6 4.5 1.5 5.8-.5q1-1.9 0-3.6a5 5 0 0 0-3.3-2.3c-2-.3-3.6.6-5.9 3.3zm-5.5-.2h-.3zm18.3 38.5"/><path fill="#fff" d="M742.6 395a11 11 0 0 0-3.3-3c-.8-.2-.8.7-.4 1.4-.3.8-.4 2.3.1 3q.9.8 0 1.5c-.7.8-.7 3.5.8 3q.8-.6.7.2 0 .9.5 1.2c.4.2.4.9.3 1.2q-.1.6.5.5c.4.2.5 1.4-.3 2 1 0 1.2-.2 1.5.9.3 1 1.2 1.3 1.3 2.6 0 1.4-.1 1.6-1.3 1.4q-1.6-.2-2 .8c-.3.7-.4 1.2.5 1.3q1.4.2.2 1.2c-1 .5-2.3.2-2.6 1.3q-.3 1.8.6 1.3l2.6-1.7q.8-.8 1.5.5c.4 1 .2 2-.7 1.2-.8-.7-1-.1-1.5.4q-.7.8-1.9.9c-.7 0-1.1 0-1 2.2.4 6.8 3.8 11.2 10.8 11.3 6.8-.3 10.2-.4 11.2-.3q-3.3-2.5-4.5-2.4c-.8.1-1.4.3-1.1-.5s0-.9-.4-1.2c-.4-.4-.7-.8-1.5.2a9 9 0 0 1-3.2 2.5c-1 .2-1.8.2-1.1-1 .9-1 2.5-1.5 3-2q.8-.6.6-1c0-.5-.1-1.4 1-.7 2 1.6 5 3.6 6 3.7q1.5-.1.7-1.2-1.1-1.1-.8-2c.3-.4.3-.7 1.7.3s3.5 2.2 4.3 2.7c.9.4 1.8.3.2-1.4l-8.1-7.4c-1.5-1.3-.9.3-.7.9 0 .6-.9 1.1-1.6.5q-1.1-1-.1-2c.8-.6 1-.6-.3-2q-1.7-2.1-1.2-.2c.2 1.3.3 2.4-1 2q-2-1.1-1-2.2c.9-.7 1.7-1 .5-2.5-1.3-1.4-1-.1-1.3.8q-.7 1.3-1.9.2-1-1-.4-1.8c.4-.6.3-.9 1-.5s1.3.2.3-1c-1.1-1.3-1.4-.8-1.2 0 .1.7-.5 1.9-2 .3q-.9-1.6 0-2t.3-1.7c-2.5-5.4-1.8-9.6-4.3-13.7"/><path d="M742.8 394.8q1.5 2.2 2.2 6.7.9 4.5 2.1 7 .4.9.3 1.4 0 .5-.7.7-.3 0-.3.5t.4 1q.7 1 1.3.8l.3-.7v-.7q0-.4.3-.5.4-.1 1.3.8l.5.9-.1.7q-.4.4-1 0h-.5l-.3.4v.6q0 .3.5.8.3.4.9.4.4 0 .6-.5l.2-.7q0-.7.3-1 .4 0 1.1.7.9 1 .7 1.8-.2.4-.9 1l-.3.3-.2.3v.3q.3.4 1.2 1h.6l.2-.1-.2-1.5v-.8q0-.5.3-.5.4 0 1.4 1.1.9 1 1 1.5-.1.4-.8 1-.4.4-.4.7t.6 1q.3.2.8 0 .4-.1.4-.4v-.2l-.3-1.2q.2-.4.5-.3.3 0 .8.5l4.3 4 3.8 3.5.9 1v.9q-.4.4-1.3 0-3-1.7-4.3-2.8-1.1-.7-1.4-.3v.6q.2.6.7 1l.4.5-.1.7q-.4.4-1 .5a20 20 0 0 1-6.3-3.8l-.5-.2v.6q0 .9-.7 1.4l-1 .6q-1.5.8-2 1.4l-.3.4h1.1a6 6 0 0 0 3.1-2.4q.8-1.2 1.8-.3l.2.2q.4.3.4.5l-.1 1v.1h.7l.2-.1q1 0 4.6 2.4l-.1.5-7.4.2-3.8.1c-7.2 0-10.6-3.5-11-11.4q-.1-1.6.2-2.2.3-.4 1-.4 1 0 1.7-.8l.2-.2q.8-1 1.6-.2l.4.2h.1q.1-.4-.1-1-.5-1-1.2-.4l-1.8 1.2-.8.4q-.6.5-.9-.1-.2-.4 0-1.5.1-.9 1.6-1.2.7 0 1-.3l.5-.4q0-.2-.5-.2-.8 0-1-.7 0-.4.4-1 .7-1.3 2.1-1h1l.1-1q0-.7-.6-1.4l-.7-1.2q-.2-.7-.9-.7h-.4l-.1-.5q.4-.3.5-1v-.4h-.1l-.6-.3q-.3-.3-.1-.7v-.5l-.1-.3q-.4 0-.6-.6v-1h-.5q-.6.4-1 0l-.5-1q-.3-1.7.6-2.4.3-.1.3-.4t-.4-.6q-.5-.4-.5-1.7 0-.8.2-1.5-.2-.5-.2-1.1.1-.4.4-.5h.6q2 1 3.4 3m-.3.4q-1.5-2-3.2-2.8h-.4l.1.7.2.2-.1.2q-.3.5-.3 1.4 0 1 .3 1.2.6.4.6 1t-.5 1l.5 2.5q.4-.3.7-.2.4.2.3.8v.5l.4.4q.3 0 .5.7l-.1.9h.3q.3 0 .4.5l.1.7q0 .5-.2.8.9.1 1 1 .2.6.7 1 .7 1 .7 1.8 0 1.2-.3 1.5t-1.3.2q-1.1-.3-1.7.7l-.2.6q0 .2.5.2.8 0 1 .6 0 .6-.8 1.1-.3.3-1.1.4-1.3.2-1.3.8v1h.3l.8-.5 1.8-1.2q1.1-.9 1.8.5.4 1 0 1.6 0 .4-.4.4-.3 0-.6-.4-.6-.5-1 .2l-.3.3q-.8.8-2 .8-.4 0-.7.3-.2.4-.2 1.7c.6 7.6 3.7 11 10.7 11l3.8-.2 6.5-.2q-2.9-1.7-3.6-1.7h-1.1q-.3 0-.3-.3l.1-.7.1-.4-.2-.2-.2-.2q-.6-.6-1.3.2-1.4 1.9-3.3 2.5-.9.3-1.3 0-.3 0-.3-.5t.3-.8q.6-.7 2.2-1.6l1-.5q.4-.4.4-.9 0-.7.2-1t1 .1a21 21 0 0 0 6 3.7q.5 0 .8-.3l-.3-.4-.8-1.2v-1.2q.6-.9 2 .2l4.3 2.7q.5.3.8.2v-.2l-.8-.8-3.9-3.5-4.9-4.4.2.7v1l-.6.4q-.7.3-1.2-.2l-.7-1.2q-.1-.8.5-1.3h.1l.5-.5q0-.2-.8-1.2l-1-1v.6q.3 1.2.2 1.9-.2.4-.5.6l-.8-.2q-1-.5-1.4-1.1l-.2-.8q.1-.4.5-.7l.3-.3.7-.7q0-.4-.6-1.1l-.6-.6-.1.5-.2.9q-.3.7-1 .8-.7 0-1.2-.5l-.7-1.1q0-.7.2-1.2-.8.4-1.8-.8-.5-.7-.6-1.5 0-1 .7-1 .4-.2.4-.4l-.2-.8q-1.3-2.7-2.2-7.3-.9-4.4-2.1-6.4m6.2 17.6q.4-.3.8 0 .4.4.6.2 0-.4-.4-.7-.7-.9-1-.7z"/><path fill="#cf6200" d="M743 395.7c-.2.5-.2.5-.7.9-.5.6-.6 1.7.3 1.7q.9-.4 1.2-1zm-2.8-3q-1 1.4-.4 1.3.4-.2-.1.7c-.2.7.5 1 1 .5q.3-.8.5 0c.2.5.7 0 1.1-.5q-1-1.2-2.1-2m-1.2 5.2c-.8.9-.7 3.6.7 3q.8-.6.7.2l.1.8q.8-.5 1.5-1.4c.8-1.4.1-1.3-1.2-1.2q-2 .1-.4-1.3 1.3-1.5-1.1-1.2.3.6-.3 1.1m5 7.2q-.7-1.4.5-2l.4-.4-.6-3.1c-.3.2-.7 1.2-.9 1.8q-.1 1.4-1 1-.9 0-1 1.5l.3.1q.3.2.3 1c1.6 0 1.8 1.3 2.1 2.5q.5 1.5 1 .3 0-1.1-1-2.7"/><path fill="#ff0" d="M744.6 417.8c-.3.8-.3.8-1.2.8q-1.6.1-2.7 1.1c-.4.4-1.7.5-1.9 1.5q-.2 1.5.7 1.9 1-.1.6.9c-.3.8-.5 1.8.8 2s2-.3 2.4.6c.2 1 0 2.5.2 3q.4.8 2.4 1.5c1 .4 4 .5 5.2.4q1.3-.6-.4-1c-1-.2-1.7-.4-2-1.4-.2-1-.4-1.5.1-2.4s1-1.5.8-2.9c-.4-1.5-.9-3-2-3.5s-1-2.4-2-2.8q-.7-.2-1 .2"/><path fill="#cf6200" d="M738.9 430.9c1 .2 1.9.5 1 .9-.8.3-1.2.8-.2 1 1.1.2 2 .6 1.2 1q-1.3.9 0 1 1.6.2.7 1.3c-.7.6-1 .9-1.6 0q-.7-1.6-.8-.6-.3 1-.8-.8c-.4-1.1-1-1.4-.8-.6q-.1 1.3-1.4.6 1.2 1.6 2.5 2.8c1.2-.4 2.3 0 2.7 0s1.8.5 2.6 1 1.2-.3 1-1.5c-.4-1-.4-.7-.8-.1q-.6.6-.5-1.5-.1-1.3-.6-.1c-.3.6-.5-.4-.4-1.1q.3-1-.4-.8-.5.4-.5-1.2c-.1-1.2-.4-1-.6-.5q-.3.5-1-1.2c-.5-.8-1-.4-2 .2z"/><path fill="#ff0" d="M749.7 438.4c-5.1 2.6-8.1 1.6-11-.9 1.1-.4 2.3 0 2.7 0s1.8.5 2.6 1 1.2-.3 1-1.5q.7 1.8 1.9 1.9zm-10.4-30.5q-.4-2-1.1-1.6-.7.1-1.4-.4-1-.6-1.5 1.5c-.1 1.5-.7 2.1-1.6 3-1 1-1.4 1.6-1.4 3.1s-.3 1.9-.9 3l-1 1.5 1.2.9q.8 1-.3.8c-.6-.2-1.2.2-.2.6 1.1.3 1.6.9.6.9s-2.3 1-.3.8 2.8.9.5 1c-2.4.2-1.5 1-.2 1.1 2.2.2 1.5.8 1 .9s-1 1 .6.9l.5-1.2c.2-1 .6-3.7 1.3-4.6q1.2-1.4 1.2-2.7a18 18 0 0 1 2.1-5.3c.8-1 1.1-2.7 1-4.2"/><path fill="#cf6200" d="M737.6 408q-1.5-1.1-1.7 1.1c0 1.5-.5 1.8-1.2 2.3q-1.1 1-1.5 2.9.1 1.5-.5 2.7-.8 1.4-.2 2.1c.4.5.4.6.6 1.3.3.7 1 0 1.2-.9 0-.8.2-.8.9-1.3s1.6-2.6 1.4-3.4-.7-1.2 0-2.1c.8-1 1.5-1 1.6-1.9q0-1.2.5-1.5 0-.6-1.1-1.3"/><path d="M737.6 406.8c-.6-.2-.8 1.1-.1 1.5.8.1.8-1 0-1.5m0 2c-.6.2-1.3 1-.3 1 1-.3 1.4-1 .2-1m-1.1 2c-.6.5-.6 1.5.4.8.8-.9 1.1-1.7-.4-.8m-1 1.7c-.5.5-.5 1.4.4.7.9-.8 1.2-1.7-.4-.7"/><path d="M734 413.3c-.4.5-.2 1.4.8.7.8-.8.9-1.7-.7-.7m.8 1c-.6.5-.3 1.4.6.7.9-.8 1-1.7-.6-.7"/><path d="M733.8 414.7c-.5.5-.3 1.4.7.7.8-.8.8-1.6-.7-.7m.7 1.2c-.6.5-.3 1.4.6.7.9-.8 1-1.7-.6-.7"/><path d="M733.4 416.6c-.5.5-.3 1.4.7.7.9-.8.9-1.7-.7-.7"/><path d="M733.5 417.7c-.5.5-.3 1.4.7.7.8-.8.9-1.7-.7-.7"/><path fill="#cf6200" d="M733 427.9c-.6.2-1 1.1-.2 1.5.8.2 1 .3 1 1.1q-.1 1.6 1 2c.9 0 1.5-1 .8-1.6q-1.1-.4-1.4-1.6-.2-1.5-1.2-1.5"/><path fill="#ff0" d="m754.8 420.8.4.5c.7.6 1.6 0 1.6-.6-.2-.5-.8-2.1.7-.8l8.1 7.4c1.6 1.7.6 1.8-.2 1.4l-4.3-2.7c-1.4-1-1.5-.7-1.7-.3q-.3.6.5 1.7c-1 .1-2 0-2.5-1.2q-1-2.2-2.3-4.4z"/><path fill="#00d860" d="M798.9 617.1c-1.2 1.3-2.4 3-1.6 5.5l.3-.2a180 180 0 0 0 11.2-23.7l.2-.7a20 20 0 0 1-4 3.6c.2 2.1-1.8 4.5-3.3 5.6.5 1.3.3 2.8-.8 3.4.1 1.1-.6 1.2-1.7 1.9q-1.5 1-2 2 1.1-.9 1.8-.8c.5.2.6 1-.2 1.4q-1.2.6-1.6 1.4c1.2-.6 2.7-.6 1.7.6"/><path d="M746.2 418.7c-1.4-1.5-1.6-.7-1 .4q.6 1.4-1.1 1.7l-3.6.5c-.7.1-1.6 1.2.1 1.2 1.8-.2 4.5-1 5.3-1.3.8-.5 1.3-1.2.3-2.5"/><path d="M746.4 418.5q.8 1 .6 1.8a2 2 0 0 1-1 1.1 14 14 0 0 1-5.4 1.4q-.6 0-.9-.2t-.2-.7q.1-.8 1-.9l3.6-.5 1-.5-.2-.8-.2-.8q0-.4.2-.7.4-.4 1.5.8m-.3.4q-.8-.9-1-.7v.1l.2.6q.4.8.1 1.5-.3.4-1.3.7l-3.6.5q-.5 0-.6.5.2.2.7.1 3.3-.2 5.2-1.3.6-.3.8-.8 0-.4-.5-1.2"/><path d="M748.8 421.4c-1.1-1.3-1.4-1-1.2 0s-.2 1.1-1 1.5l-4.6 1.7c-1.2.3-1.5 1.3.3 1.3 1.8-.2 5-2 5.6-2.4.4-.4.5-1 1-.7s.7-.3-.1-1.4"/><path d="M749 421.2q.6.8.5 1.5 0 .3-.3.5l-.5-.2-.4.3q0 .3-.3.5a9 9 0 0 1-5.7 2.4l-1-.1q-.5-.3-.5-.7 0-.9 1.1-1l4.3-1.6.4-.2.8-.5v-1.3q0-.5.3-.6.4 0 1.2 1m-.3.4q-.6-.9-.9-.8l.1.5q.1.9-.1 1.3l-1 .5-.3.2-4.4 1.7q-.8 0-.8.4l.2.1q.3.2.9.1a9 9 0 0 0 5.5-2.3l.2-.4q.5-.7 1-.4h.1q0-.3-.5-.9"/><path d="M749.6 425.3c-.8.6-2.7 1.8-3.5 2.1s-1.5 1.4.2 1.3c1.7-.3 3.6-2.2 4.2-2.7q.7-.7 1.2-.7c.5 0 1.2-.7-.2-1.9-1.5-1-2.3-.6-1.6.3.6 1 .2 1.2-.3 1.6"/><path d="m749.5 425 .5-.5q0-.2-.3-.5l-.3-.8q0-.5.4-.6.7-.3 1.8.5t1 1.7-.9.8q-.3-.1-.9.4l-.2.2-.4.4q-2.5 2.3-4 2.4h-.9q-.3-.2-.3-.8.1-.7 1-1 1.8-.8 3.5-2.2m.2.5q-1.8 1.5-3.6 2.2-.6.2-.7.6v.1h.8q1.4-.1 3.7-2.3l.5-.4.2-.2q.7-.6 1.1-.5t.4-.3q.1-.4-.7-1-1-.7-1.5-.6l.1.4q.6.7.4 1.2l-.6.7zm-14-30.7c-2.4-1.6-4.3 1.7-2.2 4.4 2.4 1.5 4-2.2 2.3-4.4"/><path fill="#fff" d="M733 396.6h.7c0 1 .5 2.2 1.6 2-1 .7-2.3 0-2.2-2m8.4 44.1c.7.3 2.9.6 3.7.7l-1 2.6q-.3 1.3-.4-.4c0-1.2-.4-2-1-.7l-.9 2.3c-.3.5-.5.7-.5-.6z"/><path d="M827.6 470.7q-.2 71.1-13.6 114.6c-12.7 40.5-35.1 70.9-67.8 89l-.2.1h-.2C713.1 656.6 690.7 627 678 587q-13.5-42.7-13.6-113.9v-.5c53.9 4.3 107.7 5 163.2-2.5zm-.8.7a756 756 0 0 1-161.6 2.4q.3 70.5 13.6 112.8c12.5 39.6 34.8 69 67.2 86.6 32.4-18 54.6-48.2 67.2-88.3q13.3-43 13.6-113.5"/><path d="M827.6 471.3c-53.9 7.2-107.7 7-163.2 2.4v-.6l.4-36.3.2-44.6v-.4l.2-.1c22-11.5 48.6-16.5 80.8-16.8s59 4 80.8 14.4h.3v.5l.1 44.5.4 36.4zm-.8-1-.4-35.8-.2-44.3c-21.7-10.1-48.3-14.4-80.2-14.2-32 .4-58.4 5.3-80.2 16.6l-.2 44.3-.4 35.7a753 753 0 0 0 161.6-2.4"/><path fill="#1a1a1a" d="M8 195.3c170.8-85.3 341-54.5 513.3-28C676.5 191 833.4 211.8 992 132.7v672c-170.8 85.3-341 54.5-513.3 28C323.5 809 166.6 788.1 8 867.2zm31.3 19.3v604.5c306.5-128.2 611.1 96 921.5-33.7V180.9C654.2 309 349.5 84.9 39.3 214.6" opacity=".2"/></svg>