<svg xmlns="http://www.w3.org/2000/svg" viewBox="0 0 1000 1000"><path fill="#00247d" d="M992 805V133c-171 85-341 54-513 28-155-24-312-45-471 34v672c171-85 341-54 513-28 155 24 312 45 471-34"/><path fill="#fff" d="M8 307q51-25 104-38-51-22-104-33v-41q30-15 59-25 72 25 146 70v-99q40-3 81-1v99q72-46 145-84l60 9v41l-104 56 104 15v112l-104-15 104 86v41l-60-9q-70-60-145-114v99q-40-2-81 1v-99q-71 53-146 128-29 10-59 25v-41q51-60 104-109-51 12-104 38z"/><path fill="#cf142b" d="M461 158q-81 42-164 94l39 3q81-48 163-91zm38 342q-81-69-163-133l39 3 124 103zM172 257Q92 211 8 195v27q61 12 125 42zm0 112Q92 434 8 531l39-17q80-87 164-149zM8 330q109-52 222-55V140h48v135c73 1 146 12 221 24v66c-73-12-146-23-221-25v135l-48 1V341c-73 3-147 17-222 55z"/><path fill="#8fc5ff" d="M827 471c0 75-9 163-81 203-72-39-81-126-81-201q80 8 162-2"/><path fill="#fff" d="M829 471q0 71-14 115-19 62-68 90h-2q-49-27-68-88-14-43-14-115v-2q82 7 166-3zm-4 2q-77 10-158 3 0 69 13 110 18 59 66 85 48-27 66-87 13-42 13-111"/><path fill="#366cc9" d="M746 674c33-18 52-47 64-79l-7 1c-3 0-68-7-77-11-7-3-33 2-46 7q17 52 66 82"/><path fill="#5d3100" d="M696 625h4q1 2 1-1h2q2 2 3-1h1l2 1 2-3q0-2 2-1l1 1 1 2h2q1 3 1-1l-2-16q1-4-3-7-1-2-3-2l-1-3-1-2 3-1q2-2 4-1l5 1 4-3 3-4-2-11-3-9-2-8-1-2-2-5c-2-3-4-14-5-22l-1-17-5-4q-2-3-3-10l-4 3q-2 1-2 3 1 4-2 9c-2 3-4 2-7 7l-5-13q0-2-4-6v-7q-3-4-4-1l-4 5-5 10c2 42 9 85 30 119"/><path fill="#ff0" d="M827 471v-81c-27-13-63-15-81-15-18 1-54 3-81 17v81q80 8 162-2"/><path fill="#fff" d="M829 473q-82 10-166 2v-2l1-36v-46l1-1q33-17 81-17 48-1 81 15h1v46l1 37zm-3-4-1-34v-43q-32-14-79-14-46 0-79 16v43l-1 34q79 7 160-2"/><path fill="#cf6200" d="m669 507 3 7 1-3 1-5v-1l1 5-3 11c3 8 1 11 4 19h6q4 2 4 5v4l1 4 1 2-1 3 1 4q3 5 4 14l1 7q2 1 2 4l1 14 1 2 2 2h5q3 5 3 10l1 6 1-3-1-6-1-3v-4q-1-3 2 0l2 4v4l1 1q2-1 1 2l1 3 2 2q1 2 1 0l-1-9-1-6-1-3-1-2-1-1-1-1-1-1h-1l-1-4-1-3-1-4-2-5q0-2-1 0l1 4q2 1 1 2v6q-1 2-1-1v-4q-1-2-2-1v-6l-3-12v-2l3 5v4l1-1v-4q-3-3-5-14l-2-15-1-5-1-5q0-3-1 0l1 8v4q-2 3 1 5l1 3h-1l-2-3-1-3v-4 1l-1 4-1-1 1-7v-9q0-5-2-8l-5-10-2-9-4-5v-5q1-3-2-2l-2 3-2 4zm7 36h2q1-2 4 0l2 8 2 11q4 4 4 9l1 11 2 4 1 7v6q0 3-1 2l-1-2q-1-2-1 1l3 3 2 2 2 1 3 1h2l1 2 3 11-1 2-1-1-2-1v-2l-2-1v2h-3l-1-2-1-1-2-1-1-2-1-1v-2l-1-1-1-2v-5l-1-2-1-4q-2 0-3-4l-2-14-2-3-1-2-2-7-2-3zm21-33-4 5q-4 1-3 5l3 6 1 4q3 0 2 4l1 6 2 6 1 14 5 15v5q3 4 3 7t2 2l2-2h3q2 3 4 2l3-3 3-6-1-2v-4l-2-8-3-9-2-5-2-3-2-9-2-12-1-3-1-2 1-4v-6l-3-4-3-4-2-6h-2q-2 2-2 5l1 4 1 5q2 5 0 10-4 4-2 6 0 3-2 0-1-4 2-6l2-4-2-8q0-3-1-1"/><path fill="#00b800" d="M676 550v14l1-4v-10q1-3-1 0m15 32-1-11q0-5-4-9l-2-9q-2-2-2 1l2 7 1 4 1 3v3l1 2 1 3v6q1-2 2 1l2 1zm12 29h-2l-1-2-1-3h-1l-2-1v-1 1l-1 1-1-2v-1l-3-3q0-3 1-1l1 2q1 1 1-2v-1l-1-1-1-3q0-3-1-1t-1-3q-1-3-1 0-1 1-2-2 0-4-1-1 0 3-1 1v4q1 4 3 4l1 4 1 2v5l1 2 1-1q2-2 3 2 1 3 2 1t2 0l1 1h2zq0-3-1 0m4-67 1-8c1-1 2-4 2 2l-1 6-1 4 1 5 1 6 1 4 3 6 2 7q1 4 3 5 2 3-1 3-1-1-2 1t-1-1l-4-4-2-5q-1-3-4-3l1 3v5q3 4 3 7t2 2l2-2h3q2 3 4 2l3-3 3-6-1-2v-4l-2-8-3-9-2-5-2-3-2-9-1-9q-2 3-2 1l-2-2v-1l-1-1v-4q-1-4-1 0l-1 6v8l-1 6q0 5 2 0m-22-30-1 5q0 3-1 0l-2-5q-1-2-1 3l2 4q1 2-1 2v4q0 3-1 1v-7l-1-3-1-2 1-3v-2l1-1q2 1 2-2t1-2zm12 20 1 6 2 6 1 14 2 5 2-3-2-6q-1-2 1-5 1-2-1-3t-2-5v-5l-1-3-1-3v-1l-2 1z"/><path fill="#5d3100" d="m710 541-1 4v2l1 4q-1 3 1 4v2l2 6 1 4 2 2v2l2 1 2 2q3 4 3 1t-2-4l-3-9-3-8-1-5-2-4-1-3zq0-2-1 1"/><path fill="#00d860" d="m703 628 9-3 5 3h-4l1 2-4-2zm4 3 5 2q-1 3 2 2l-1 1 7-1c-2 2-9 5-13-4m4 8h4z"/><path d="M714 639h9q-2 3-5 2l-3-1z"/><path fill="#00d860" d="m716 643 8-2 6 2h-6q-3 2-8 0m3 1 5-1 4 1 3 2-7-1-7 2z"/><path d="M716 630q4 1 10-1 2-1 1 1-7 4-11 1z"/><path fill="#00d860" d="M744 620q-9 7-21 2h-1l8 3v2q-1 1 0 0l9 1h1l1-1 1-1q-1 0 0 0l-1-1v-1l2-1z"/><path d="M732 621q7 0 15-7l4 2 1 2-5-2q-8 7-15 6z"/><path fill="#00d860" d="M721 592q1 2 6 3l5 3-5 3-2-1v2l6 1v1q-4 2-8-3-2-6-7-2l-2-2-1-2q2 1 8-3m1 8-4 1-1 2zm4 6-3 1h-2v1l-2 1v1l3-1 3-1z"/><path d="m723 610 7 3q3-1 0 1-4 0-8-4z"/><path fill="#00d860" d="M746 613h-9q-3 0-2 1l6 2q-9 2-10 1h-6l-3-1q-2 0 1-1 3 0 0 0-3-1-1 2l9 1q5 3 15-4zm-19-8v2h5v-1l-2-1zm10 3-3-1q-1-2-1 1 2 2 5 1h2l3 1h1l-2-2h3l3-1 1-1h-4l-2 1-2-1 1-1q1-1 0 0l-5-1h-3v1l4 1v1q-2-2-1 1m12-2 7 1 2-2 3 1 1-1h2l3-2q2 0 0 0l-4 1h-4l-5 1z"/><path d="M769 604q-4 4-10 4l1 1q6-1 10-4 0-2-1-1"/><path fill="#00d860" d="m751 611 6 2 1-1 2-1h7l2-2-15 1zm16 0 2-2h3l1-1 2-1h4q2 1 6-1l1 2 3 1h9q2-1 1 1l-1 2-1 1-3 1-2 1h-11l-4 1v-2l2-1q3 0 2-2l-3 1h-7zm5 3-5-1q-2 0 0 1zm-3 2h5l1 1h-5q-2 0-1-1m-21 9q4 1 9-7h1l8 3q2 1 0 1l-8-2q-4 6-10 5-2 0 0 0m12-9q-2 4-5 4l-5-1q-2 0-1 1l6 2h3l4 1h4v1h-4q2 3 5 4l-1 2 4-1 1 1v1h-3q4 4 10 3 2-1 0-1h-3v-1l4-1q2-1 0-1h-5q-2 0-1-2l3-1q-7 0-5-4v-1l-4-1v-2q-3 0-7-3m26-1q-4 3-6 2l-1 1h8l4-1q2 0 0 0h-7zm-1 5-6 3 5 3-2 1q2 1 5-1 5 1 7-2l-5-1 2-2q-4 1-6-1m-3 7 2-1q-4 1-10-3-2-2 0 2 1 3 8 2m5 6-6 1h-2v1l-4 1v1l4-1h7v-1q-1 0 0 0zm-37-6-9 3-4 2 4 1-2 2h4q-3 3-6 2l2 2h-5l2 2-5-1q2 3 8 2l8-3h-5l7-5-2-1 7-1-3-3q9 3 15 0l-1-1-9-1 4 2q-3 2-10-2m-11 8 2-2-4-1 4-2-6-1h-4q-2 1 3 1-3 3-7 2v4l9 3q-3-1-1-3z"/><path d="M734 643q6 0 14-6h1q-5 6-14 7-4 0-1-1"/><path fill="#00d860" d="m765 633-4 1h-3v1l3 1-2 1 5 1h-2q6 4 11 2l-2 2q4 1 7-2h-4l2-2-4 1 1-2-9-1 6-2zm-8 3-5 2q-2 1 0 1v-1q-2 0 0 0zm-4 5 4-1 5 3q1 0 0 0l-5-2zm-20 17q4 2 9 1 2 2 6 2h5l7 2h-4l1 1q-6 1-10 4 1-4 5-5-4-1-8 1l-1-3q-6 2-10-3m-8-7 7-3h6l-1 2-6 2-5 1zm12-1-6 2v2l14-2-6 3q6-1 8 1l1 2v1l6-2-3-1 3-2-4-1q-2 0-1-1l2-2q-3 2-7-1h4l-2-1q3-3 10 0h6l3-4c-6 1-14 0-14-4q-4 4-8 4l1 3-6 1 3 2zm11 9 6-2-3-1 3-2 8-2h7l-4 2q-1 1 2 1-4 1-4 3l-4 1-5 2-5-1q2 0-1-1m17-15h5l-2 1h9l-4 1q-1 1 1 2l-6 1q-2 0 0-1l2-2-3 1-1-1v-1l-4 3z"/><path d="M752 647q1 3 6 4v1q-6 0-7-4-1-2 1-1m22-43 9 2v1q-5 1-9-2z"/><path fill="#00d860" d="m776 604 6 1 6-2h-13zm12 1 6-1q1 2 6-1l-5 3h-2q-2-2-5-1m12-2q-5 3-6 1l-6 1 3-3 3-1 3 1q1 1 1-1l4-1 3-1z"/><path fill="#ff0" d="M737 586V482q-2-5-2 0v103z"/><path d="m738 586-2-1V482l1-3 1 1v52zm-1-1v-53l-1-50v-3l-1 3v103z"/><path fill="#ff0" d="m762 476 3 109-1 1h-1l-2-110z"/><path d="m762 476 3 110-1 1h-2l-1-111zm0 0 2 110h1l1-1z"/><path fill="#ff0" d="m785 567-1-88q-1-4-2 0l1 89z"/><path d="M786 567h-2v-47l-1-41 1-3h1v2l1 38zm-1 0-1-50v-38l-1-1v-1l-1 2 1 42 1 46z"/><path fill="#fff" d="m748 495-23-1c-1 7 4 6 7 5q3 3 6 0 3 3 5 0 6 3 5-4"/><path d="m748 494-2 6h-4q-2 3-5-1-3 4-6 0l-5 1-2-2v-4zm0 1-23-1v4l2 1h5v-1 1q3 3 5 0h1q3 3 5 0 3 2 4 1z"/><path fill="#fff" d="M750 511h-24c-4 5 1 7 6 4q2 3 6 2 3 2 6-2 4 4 6-4"/><path d="M750 510q0 5-3 5h-3q-4 3-6 1h-4l-2-2q-4 4-6 1l-2-2 2-4zm0 1h-24l-1 3 1 2q2 2 6-1l2 2 3-1h1q3 3 5-1h1l3 1z"/><path fill="#fff" d="M749 531h-23q2 7 6 4 5 5 8 0 3 3 5 0c3 3 4-1 4-4"/><path d="m749 531-2 5q-1 2-3-1-2 4-5 1l-4 2q-3 0-4-3l-4 1q-2-1-2-5zm0 1-23-1q0 4 2 4 3 1 4-1l1 1q0 2 3 2 2 0 3-2h1q3 3 5 0h3z"/><path fill="#fff" d="m751 552-26-1q0 9 4 6 3 4 5 0 3 2 4 0 2 5 6 0 8 4 7-5"/><path d="M751 552q2 3-1 6t-6 0l-4 1q-2 0-2-2l-2 1-2-1-3 3-2-2-4-1-1-6zm0 0h-26q-1 3 1 5h3l2 2q2 0 3-2v-1 1l2 1 2-2v1l2 2 3-2h1q3 3 5 1 3-2 2-6"/><path fill="#fff" d="M774 543h-22q1 10 7 4 5 5 8 0c5 5 7 0 7-4"/><path d="m774 542-2 6q-2 2-5-1l-4 2-4-2q-3 2-5 1t-2-6zm-1 1-21 1 2 5q3 0 4-2h1q1 3 4 2 3 0 3-2h1q2 4 5 1z"/><path fill="#fff" d="m771 523-20-1q2 10 8 4 4 4 6 0 6 4 6-3"/><path d="m771 522-2 5q-3 1-5-2-1 2-3 2-1 1-4-1-1 2-4 1-3 0-4-6zm0 1h-20q0 4 3 5 3 0 4-2h1l3 2 3-2v-1 1q3 2 5 1z"/><path fill="#fff" d="M774 500h-22q2 10 9 3c1 6 5 4 7 2 3 4 8-1 6-5"/><path d="m774 499 1 3-2 3q-3 2-5-1l-4 2q-3 0-3-3-3 3-6 2-3-2-4-6zm0 1-22 1q0 3 3 4t6-2q1 4 3 4l4-2v-1 1q1 3 5 0l1-2z"/><path fill="#fff" d="m773 484-20 1q2 8 6 3 3 3 5 0 4 3 4-1 5 4 5-3"/><path d="m773 484-1 5-3-1-2 1q-2 1-3-1l-2 2q-2 0-3-2-1 3-4 2t-2-5zm0 1-20 1q0 3 2 3 3 2 4-1v-1 1l3 1q2 1 2-2 1 2 3 2l1-2h1q1 2 3 1z"/><path fill="#fff" d="m797 493-25 1q0 6 4 3 1 6 6 2 4 5 7-1 7 5 8-5"/><path d="m797 492-2 6q-3 3-6-1-1 3-4 3-1 1-3-2l-4 2-2-3h-3l-1-4zm-1 1-24 1 1 3h3q0 3 2 3l4-1v-1 1l3 2q3 0 4-3h1q2 3 4 1 2-1 2-6"/><path fill="#fff" d="m796 520-24 2q2 8 6 3 2 6 6 2 4 5 7 0 5 0 5-7"/><path d="m796 520-1 6-4 1-3 3-4-2-4 1-2-3-4 1-2-5zm0 1-24 1 2 4q3 1 4-1h1q0 3 2 3l3-1q1 3 4 2l3-3q3 1 4-1z"/><path fill="#fff" d="m795 545-19 1q1 7 6 3 3 4 6 0 5 5 7-4"/><path d="M795 545q0 5-3 6-2 1-4-2-1 3-3 2-1 1-3-2l-4 2q-2-1-2-5zm0 1-19 1q0 2 2 3l3-1 1-1v1l3 2 3-2q2 2 4 1zm-31 40h-28c-7-2-9-3-14-7l-19-17q-3-1-1 3l19 17 12 14q6 9 9 6l7-2 9 1q4 2 9 1 3-2 6-1l6-1 9-1 8-1 7-1q3-3 3-7l4-2 1-8h1l1-3-2-2v-6h2v-5l-31 4-2 5-8 2-3 3zm0 0 2-4 2-4 3-3h1l3-1 5-1 2-6 31-4v1l1 5-2 1-1 5 2 2-1 3-2 8-4 3q0 4-3 6v1-1l-7 1q-3 2-8 1l-9 1-6 1-6 1q-6 2-9-1h-9q-3-2-7 1-4 2-9-6l-12-13-2-2-17-16-1-2v-1h2l12 11 7 5q7 6 14 7 9 2 28 1m0 1-28-1q-8-2-14-7l-7-6-12-10-2-1v1l1 1 17 16 2 2q7 6 12 14 4 8 9 5 4-2 7-1h9q3 4 9 1l6-1h6l9-1 8-1q4-2 7-1 3-3 3-7 3 0 3-2l2-8h1v-3l-1-2v-6l2-1-1-4-29 4-2 5h-1l-5 2-3 1h-1l-2 2-2 4zm36-21 5-23q0-5-2 0l-5 23zm0 0h-2l5-24 1-2 1 1v2zm0-1 5-22v-2h-1l-1 2-4 23z"/><path fill="#fff" d="m818 538-8 4h-5v1l-4 18q5 1 9-1 2-2 6-2l1-6v-4z"/><path d="M817 538v10l-1 4q1 3-1 6l-6 2q-2 3-9 1l4-18v-1h5q3 0 7-4m0 1q-4 4-7 3h-5v1l-3 17q6 3 8-1l6-2 1-4zm-84-40a271 271 0 0 1-28 65v-1q6-7 15-30 9-21 12-34zm-21 70a229 229 0 0 0 39-58q-2 9-17 31zm15-38-5 47v-1zm4 28-11 17-1-1zm32-25q-6 9-9 10v-1zm2 0q5 8 9 9h-1zm-2-20q-6 7-10 9v-1q4-2 9-8zm1 1 2 2q3 5 6 5l-1 1-5-6zm-11-15q6-3 9-7-3 5-9 8zm11-8q3 6 9 8-6-2-10-7zm-10-7q6-1 8-7v1q-3 4-8 7zm9-8q6 7 9 7v1zm20 11q-4 6-7 6 3 0 7-7zm2-1q3 6 5 6v1q-3-1-5-7m-11 35 9-9h1q-4 6-10 9m12-9q2 6 6 8-4-2-7-8zm-8 33q4-1 6-6-2 4-6 7zm8-8 7 7v1q-4-2-7-8m-57 13q10-4 17-16v1q-7 12-17 16zm9-7q7 7 11 8-4-1-11-8m-10-13 8-7zm10-8q4 9 11 8v1q-7-1-11-8zm-2-19q-5 6-8 7l-1-1zm2 0q7 6 10 6v1q-3 0-10-6zm-2-19q-5 8-8 9zm2 1q3 7 8 8v1q-4-1-9-9zm36 19q12 30 29 43v1q-18-15-30-43zm-19-16 4 8q27 53 42 63l-1 1q-14-12-41-63zm49 56q-7 13-16 23l-1-1q10-9 17-23zm-1 5q-6-12-13-45l-1-5 2 5q6 33 12 45m-62 9 8 28h-1zm-1-1 6 28v1zm-2-1 6 29v1zm0 1 5 28h-1zm4 27h6zm5-2h-5v-1h5zm0-3h-6zm-1-2h-5v-1zm-1-3h-5zm-5-2h5zm0-2h4zm-1-3h5v1zm0-2h4v1zm0-2h3v1zm-1-2h4v1zm0-1h3zm0-2h3v1zm-6 0-4 23zm2 0-4 24zm1-1-3 26h-1zm1 0-2 27h-1zm0 25h-7zm0-2h-8v-1zm0-3h-7zm0-2h-7v-1zm0-3h-6zm0-2h-6v-1zm0-3h-5zm0-2h-5v-1zm0-2-5-1h5zm0-3h-4zm0-1h-4v-1zm0 25v-27zm22-36-13 38-1-1zm1-1-12 39v-1zm1 0-9 39h-1zm1 0-8 39zm-8 37h-8zm1-3h-8v-1zm1-3h-8v-1zm0-3h-7v-1zm1-3-7 1v-1zm0-2h-6v-1zm1-4-6 1v-1zm0-2h-5v-1zm1-3h-5zm0-2h-4zm1-2h-4zm0-2-4 1v-1zm0-1h-3v-1zm1-2h-4zm0-2-3 1v-1zm0-1h-2v-1zm9-1 6 25v1zm1 0 8 25h-1zm1 0 9 24zm11 22-10-22h1zm0 0-8 1v-1zm-1-3-7 1v-1zm-2-3-6 1v-1zm-1-3-6 1v-1zm-1-3-5 1v-1zm-2-3h-4zm-1-3h-4zm-1-3h-4zm8 0-6 25zm2-1-6 25zm-4 24 4-23h1zm6-22-4 22zm-10 21 6-1v1zm1-3 6-1v1zm1-4h5v1h-5zm1-3h5v1h-5zm0-3h5v1zm1-3h5v1zm1-3h4v1zm1-3h3v1zm6 1 3 16zm1-1 4 17zm2 0 4 16v1zm2 0 4 16zm3 15-5 1v-1zm0-2h-6zm-1-3-5 1v-1zm-1-2h-4zm0-2h-5zm-1-3-4 1v-1zm-1-2h-4z"/><path fill="#00b800" d="M734 595q5-3 10 1 5-3 10 1 6-5 10-1 5-5 11 0 4-4 10 0-4-4-10 2-6-5-11 0-4-5-10 1-5-6-10-1-3-4-10-3"/><path fill="#cf6200" d="M782 589c-14 4-44 2-51 0q-3-2 0-2c8 3 24 3 34 2l5-11 3-2 8-2v2h-1l1 11h1zm24-1h1l2-2 2-8-1-3v-6l2-1v-3l-28 4-1 1c-2 9 0 21 7 28v-1l-4-7h5l2 6-1-6 4-1 1 6q0 1 0 0v-6h4v6q0 2 0 0l1-7h3l-1 6q0 1 0 0z"/><path d="m785 589-2-10h6l1 9zm5-10 1 9h5v-10zm-6-8-1 7 6-1v-7zm6-1v7l6-1v-7zm7-1v7h5v-8zm6-1v8l6-1v-8zm6 8-6 1-1 10 6-1 2-8zm-12 2v9h4l1-10zm-23-1-3 1-5 11 8-1zm1 0v11l5-1-1-11zm-24-25h-26v-1zm0-1h-27v-1h27m20-28h-20v-1zm0 0h-22v-1h21m-21 10-23-1zm0 0h-23v-1zm1-20h-24v-1zm0-1v1h-25l1-1zm-2-16-23-1q-2 0 0 0zm0 0h-1l-23-1h-1l1-1z"/><path fill="#fff" d="m773 484-20 1q-1 0 0 0z"/><path d="m773 484-20 1h-1v-1h1zm1 16q1 0 0 0l-22 1v-1zm0-1v1l-22 1v-1zm22 21-24 1v-1zm-22 23h-22zm0-1-22 1v-1zm21 3h-19q-1 0 0 0zm0 0-19 1-1-1h1z"/><path fill="#ef072d" d="M812 549v-7h-2l-1-1-1 9h-5v4h4l-1 7 4-1v-1l1-6 2-1 2-1 2-1v-2l1-2z"/><path d="m812 548 6-3v3l-1 2v1l-2 1h-2l-2 1v1l-1 5v1l-4 1 1-7-5 1 1-5h5l1-9 1 1 2-1h1v1zm0 0v-6h-3l-1 8h-4l-1 4h4l1-1v1l-2 7 4-2 1-5v-1l2-1 2-1 2-1v-4zm-85-154-9 1q-3 1 0 2l8 4q3 2 3 9-2 21 10 30l1 2-1 6 1 1-4 8q-9-3-10 8 0 2 1 0 1-3 4-5l-2 8q1 4 1 0l3-5q1-2 1 1l1 5q0 2 1-1-1-4 1-6 3-2 5 1 1 2 1-2-1-4-4-4l3-8 2-1q1 2 1-1l2-6 2-1 4 7v2l-2 8q-6-1-7 3-1 3 1 1l3-1 1 1q-4 3-5 7l1 1q2-5 5-5l1 7q3 1 1-2l1-6q4-1 7 2 1 2 1-1-2-5-7-6l4-20h6c5 2 12 8 13 9h5q2 1 1-2-2-5-9-12l7-1-6-3 5-3q1-2-2-2-10 2-15-2l-13-12q-3-2-3-6-1-11-7-13-8-2-13 3"/><path fill="#fff" d="M728 396h-6q-1 0 0 0l5 2v1l-1 1c4 3 5 5 4 17l2 2-1 1q-1-1 0 0l1 1q-3 0-1 1 4 1 1 1-3 1 0 1l1 1v1h3v1q-1 0 0 0l1 1v1l2 1v1q2 0 1 1v1q2 0 1 1v1l1 1h-3l-1-1v-1l-2 1q4 7 14 3l1 2 2 5 1-1 2-8q1-3 1 1h9l9 6 2 1-1-3q-2-3 0-2 2 2 1-1l-3-4-3-1h-5q-2 1 1 2l7 5q2 1-1 1l-12-9c-9 1-16 3-22-5-3-4-3-13 2-17l-1-2v-2l-1-3-3-1-3-1-2-1q-2 1-2-1h2q4 4 6 0t-3-7q-5 0-6 4"/><path d="M728 396q3-4 6-4l4 3v4q-3 3-7 1l-1-1 1 1 2 1h3l2 1 1 1 1 3h1-1v1l1 1-1 1 1 1-4 8 2 9q6 7 19 5h3l13 9v-1l-9-6v-1h6l2 1h1l3 4v2h-1l-1-1 1 2 1 2v1h-2l-10-7h-8v1-3l-1 1-2 8v1h-1l-1-1-1-4-1-1q-8 3-14-4v-1l1 1v-1l1-1 1 2v1-1h1v1h2v-1h-2v-1h1l-1-1h-1v-1l1-1v1l-1-1h-1v-1h1l-2-1h-1v-1h1-1l-1-1v-1h1-4l1-1-1-1h-2v-1h3l-2-1h-1v-1h2-1l-1-1 1-1h1-1l-1-1-1-1q2-13-3-17v-1h2l-1-1-5-2q-1 0 0 0v-1l5 1zm0 0h-6l5 2h1v1h-2 1q4 5 3 18l2 2v1h-1l1 1-1 1h2v1h-1l-1 1v-1l1 1 1 1h-1l1 1 3-1 1 1-1 1h-1 3v1h-1v1h2v1h-1l1 1h1l1 1h-2l1 1h1v1l-1 1h2v1h-2l-1-1v1l-1-1v-1 1h-1q6 7 13 3l1 1 2 5v1l1-1 2-8 1-2v3q3-3 9 0l9 6 1 1 1-1-1-1-1-3h2l-4-5h-7 1l7 5 1 2-1 1-1-1-12-8h-3q-15 1-19-6-2-3-2-9 0-5 3-8v-4l-1-2-1-1-2-1-3-1h-2l-2-1 1-1h1q5 3 6 0v-4l-3-2q-3-1-6 3m12 39"/><path fill="#fff" d="m743 395-4-3v6q-2 2 1 3h1v3h1l-1 2 2 1 1 3-1 1-2 1v1l1 1q-2 0-3 2l1 1 2-2 2 1q0 2-1 1h-1l-2 1-1 2q0 11 10 12l12-1-5-2-1-1v-1h-2l-3 3q-2 0-1-1l3-2 1-1v-1l7 4v-1l-1-2h2l4 3q2 0 1-2l-9-7v1h-2v-4h-1q0 3-1 2-3-1-1-2v-3q-1-1-1 1h-2l-1-1 1-1q2 1 1-1h-1q0 2-2 0v-3z"/><path d="m743 395 2 7 2 7v2h-1l1 1 1 1v-1l1-1 1 1v1q2 0 0 0h-1v1q-1 0 0 0v1l1 1 1-1v-2l1 1 1 2-1 1-1 1h1l1 1v-3h1l1 1 1 2-1 1v1h2l-1-2h1l1 1 4 4 4 3 1 1v1h-2l-4-3h-1v1l1 1v1h-1l-7-4v1l-1 1-1 1-2 1v1h1l3-3h2v2h1l5 2v1h-12q-10 0-11-12l1-2h1l1-1h3v-1l-2-1-1 2h-2v-2l2-1h1v-1h-1v-1q0-2 2-1h1v-1l-1-2v-1l-1-1h-1l1-1v-1h-1v-1l-1-1v-1h-1l-1-1 1-2v-1l-1-2 1-2-1-1h1q3 0 4 3m-1 0-3-3v4l1 1-1 1 1 3v-1l1 1v1l1 1-1 1h1v2l1 1 1 1 1 2-1 1h-1l-2 1v1h1v1l-1 1-2 1v1h1v-1l2-1h2v2h-2l-2 1-1 1v1q1 12 10 11h11l-4-2h-1v-2l-2 1-3 2h-2l1-1 2-2h1v-2h2l5 4 1-1-1-1v-1h2l4 2 1 1v-1l-4-4-5-4v1l-1 1h-1l-1-2 1-1v-2l-1-1v3h-1q0 1 0 0l-2-1v-1l1-1h1l-1-1-1-1v1l-1 1h-1l-1-1v-2h-2v-2l1-1v-1l-2-7zm7 18h-1z"/><path fill="#cf6200" d="m743 396 1 1 1-1zm-3-3v1h2zm-1 5q-2 2 1 3h1v1l1-2q1-1-1-1t-1-1q3-1-1-1zm5 7 1-2-1-3v1l-1 1-2 2h1v1q3 0 2 2l1 1z"/><path fill="#ff0" d="m745 418-2 1-2 1-2 1 1 2v1l1 2 2 1 1 3 2 1 5 1v-2l-2-1v-2l1-3-2-4q-2-1-2-3z"/><path fill="#cf6200" d="M739 431q2 0 1 1v1q2 0 1 1v1l1 1h-3l-1-1v-1l-2 1 3 3h2l3 1 1-2h-1v-2h-1v-1l-1-1v-1h-1l-1-1z"/><path fill="#ff0" d="M750 438q-7 4-11 0h2l3 1 1-2 2 2zm-11-30-1-2h-1l-2 1-1 3-2 4-1 2-1 2 2 1-1 1q-1-1 0 0l1 1q-3 0-1 1 4 1 1 1-3 1 0 1l1 1v1l1-1 1-5 1-3 2-5q2-2 1-4"/><path fill="#cf6200" d="M738 408q-2-1-2 1l-1 2-2 3v6h1l1-2 2-3v-2l1-2 1-2z"/><path d="m738 407-1 1zm-1 2q2 0 0-1m-1 3q2-2-1-1m-1 3q0 2 1 1 2-2-1-1m1 1q-1 2 1 1 0-2-1-1m-1 1q-1 1 0 0 2-1 0 0m0 1 1 1q2-2-1-1m-1 1h1zm1 1q-1 1 0 0 2-1 0 0"/><path fill="#cf6200" d="M733 428v1l1 2 1 2 1-2-2-2z"/><path fill="#ff0" d="M755 421h2v-1l9 7q1 3-1 2l-4-3h-2l1 1q-2 1-3-1z"/><path fill="#00d860" d="M799 617q-2 2-2 6l1-1 11-23v-1l-4 4-3 5-1 4-2 1-2 2h2v1l-2 2z"/><path d="M746 419q-1-2-1 0 1 1-1 2h-4q-1 1 1 2l5-2zm0-1 1 2-1 1-5 2h-1l-1-1 1-1 4-1h1v-2zm0 1v1l-1 1-4 1h1l5-1 1-1zm3 2h-1l-1 2-5 2q-2 0 0 1l6-2q0-2 1-1zm0 0 1 2h-2v1l-6 2h-1v-1l1-1 4-1h1v-2l1-1zm0 1-1-1v2h-2l-4 2h-1v1h1l6-3zm1 3-4 2v2zl2-1v-2q-3-1-2 1zm-1 0v-1l-1-1h3l1 2-1 1h-1l-1 1-4 2h-1v-1l1-1zm1 1-4 2h-1 1zl1-1-1-1-1-1v3m-13-31c-3-2-5 2-2 4 2 2 4-2 2-4"/><path fill="#fff" d="m733 397 1 2q-2 1-2-2m9 44h4l-1 3q0 2 0 0 0-3-1-1l-1 2h-1z"/><path d="M828 471q-1 71-14 114-19 62-68 89-49-26-68-87-13-43-14-114 80 8 164-3zm-1 0q-80 10-162 3 0 70 14 113 19 60 67 86 49-28 67-88 14-43 14-114m1 0q-80 11-164 3v-1l1-36v-45q33-18 81-17 48 0 81 14v45zm-1-1-1-36v-44q-32-14-80-14-47 0-80 17v44l-1 36q80 8 162-3"/></svg>