<svg xmlns="http://www.w3.org/2000/svg" viewBox="0 0 1000 1000"><path fill="#5eb6e4" d="M60 195c293-162 583 102 880-62v672c-149 83-298 56-449 30-142-25-286-49-431 32z"/><path fill="#fff" d="M60 195c293-162 583 102 880-62v336c-149 83-298 56-449 30-142-25-286-49-431 32zm510 173q0 4-5 3-3 0-4-5 1-3 4-4 5 2 5 6"/><path d="m570 368-1 3-4 1-3-2-2-4 2-3 3-1a6 6 0 0 1 5 6m-1-1q0-4-4-4-3-1-4 3l2 3 2 2 3-1z"/><path fill="#fff" d="M573 352q0 5-5 5-4-1-6-7 2-5 6-4 5 1 5 6"/><path d="m574 352-2 4-4 2-4-3q-2-2-2-5l2-4 4-1a7 7 0 0 1 6 7m-1 0-2-4-3-2-4 1-1 4 1 3q1 2 4 2h3z"/><path fill="#fff" d="M478 319q0 4-4 4-3-2-4-5 0-4 4-4 4 2 4 5"/><path d="M479 319q0 3-2 3l-3 1-3-2-2-3 2-4 3-1 3 3zm-1 0-4-4q-4-1-4 3t4 4q4 2 4-3"/><path fill="#fff" d="M438 330q0 5-6 4-5-1-5-6t5-5 6 7"/><path d="m438 330-1 4-5 1a7 7 0 0 1-6-7l2-4 4-2 5 3zm-1-1a6 6 0 0 0-5-5h-3l-2 4 2 4 3 2 4-1z"/><path fill="#fff" d="M462 318q0 4-4 4-5 0-5-5 0-4 5-4 4 0 4 5"/><path d="m463 318-2 4-3 1-4-2-1-4 1-4 4-1 3 2zm-1 0q0-4-4-5-4 0-4 4t4 5l3-1z"/><path fill="#fff" d="M439 346q0 3-4 4-4-1-5-6 1-3 5-4 4 1 4 6"/><path d="m440 346-2 3-3 1-4-2-1-4 1-3 4-1 3 2zm-1 0q0-4-4-5-4 0-4 3l1 3 3 2 3-1z"/><path fill="#fff" d="M447 320q0 5-5 5-6-2-6-7t6-4q5 1 5 6"/><path d="m447 320-1 4-4 1-5-2-1-5 1-4 5-1 4 2zm-1 0a6 6 0 0 0-4-6l-4 1-1 3a6 6 0 0 0 5 6l3-1z"/><path fill="#fff" d="M530 328q0 4-4 4-4-2-4-5 1-4 4-4 4 1 4 5"/><path d="m531 328-1 3-4 1-3-2-2-3 2-4 3-1 4 2zm-1 0q0-4-4-5l-3 1-1 3 1 3 3 1q4 1 4-3"/><path fill="#fff" d="M547 333q0 3-5 4-3-1-4-6 1-4 4-4 5 1 5 6"/><path d="m548 333-2 3-4 1-3-2-2-4 2-3q2-2 3-1l4 2zm-2 0q0-5-4-5-4-2-4 3 1 4 4 5l3-1z"/><path fill="#fff" d="M564 340q0 4-5 4-4-1-6-6 1-5 6-5 5 1 5 7"/><path d="m565 340-2 4-4 1-5-3-1-4 1-4 5-1a7 7 0 0 1 6 7m-2 0-1-4-3-2-4 1-1 3a6 6 0 0 0 5 6l3-1zm8 28-2 3q-1 2-4 1l-3-2q-2-1-2-4t2-4l3-1 4 2zm-1 0a5 5 0 0 0-5-6l-3 1-1 3q0 5 4 5l3-1zm5-16-2 5-5 1q-2 0-5-3l-2-5 2-4 5-2 5 3zm-2 0a7 7 0 0 0-5-6q-3-1-4 1l-2 3a7 7 0 0 0 6 7l4-1zm-94-33-1 4-4 1-4-2-1-5 1-3 4-1 4 2zm-1 0a5 5 0 0 0-4-5q-4 0-4 4l1 3 3 2 3-1zm-39 11-2 4-5 2-4-3q-2-2-2-5t2-5l4-1q3 0 5 3zm-1 0a7 7 0 0 0-6-7l-4 1-1 4a7 7 0 0 0 5 6q3 1 4-1zm26-12-2 4q-2 2-4 1l-4-2-2-4 2-4q1-2 4-1a7 7 0 0 1 6 6m-2 0q0-4-4-5-5 0-5 4t5 5q4 0 4-4m-22 28-1 4-4 1-4-3-2-4 2-4 4-1 4 3zm-1 0q0-5-4-5-4-1-5 3l2 4 3 1q4 2 4-3m9-26-2 4q-2 3-4 2l-5-3-2-5 2-4 5-2 4 3zm-1 0a7 7 0 0 0-5-6q-3-1-4 1l-2 3a7 7 0 0 0 6 6q2 1 3-1zm84 8-1 4-4 1-4-2-1-5 1-3 4-1 4 2zm-1 0a5 5 0 0 0-4-5l-3 1-1 3q0 4 4 5 4 0 4-4m18 5q1 3-2 4l-4 1-4-3-1-4 1-4 4-1a7 7 0 0 1 6 7m-1 0q0-5-5-6-4 0-4 4a6 6 0 0 0 4 6q5 0 5-4m18 7q0 3-2 4-1 2-4 1l-5-2-2-5 2-5 5-1 4 3q3 2 2 5m-1 0-2-4-3-3-4 1-2 4 2 4 4 2 3-1zm-72-29c-15 14-41 2-53 6-20 10 1 40 6 46l23-2c-9-8-25-22-20-31 5-8 32 6 44-12q2-7 0-7m-1-1h1l1 1 1 1-2 6q-4 8-14 9l-16 1q-12 0-14 3-3 4 4 13 3 5 13 14l3 3v1l-23 2h-1q-8-13-12-23-6-19 7-24l18-1q12 2 18 1 10-1 16-7m1 1q-6 6-16 7h-37q-12 6-6 23 3 9 12 22l21-2-2-2q-10-10-13-15-7-8-4-14 2-3 6-3h9l16-1q9-1 13-9l2-5z"/><path fill="#f1bf31" d="M492 311c-15 15-40 3-52 7-20 9 2 39 7 46l19-3c-8-8-23-22-19-31 6-8 33 5 45-13q2-6 0-6"/><path d="M491 311h2l1 1q1 3-2 6-4 6-14 9l-16 1q-12-1-14 2-3 6 3 14 4 6 14 15l2 2h-1l-19 3h-1v-1q-10-13-13-22-6-17 7-23 5-2 18-1l17 1q10-1 16-7m-15 8-18-1q-14-1-18 1-12 4-6 21 3 10 12 23h1l18-2-1-1-13-15q-7-10-4-15 2-3 6-3l9-1h16q9-2 13-9l2-5h-1v-1q-6 7-16 8m17-6c-16 19-40 4-50 11-12 8 5 29 13 38h1c-7-8-26-29-13-38 9-6 34 8 49-11m0-1q-6 9-16 10h-18q-12-1-15 1-8 6 0 19l14 19-2 1-14-20q-7-14 0-20 4-2 17-1h17q10-1 17-10m-50 12q-7 5-1 19 5 9 14 19h1q-10-11-14-19-8-13 0-19"/><path fill="#d99f31" d="m454 348-2 4c-7-10-12-19-6-26 5-5 16-1 29-3q9-1 16-8l-1 5c-13 14-38 2-43 10q-3 7 7 18"/><path d="m447 346 3-2 1 1-2 2h-3l-2-2zm-3-7 3-1 1 1zl-4-1v-1zm2-6q-3 0-6-4v-1zm2-4-4-5 1-1zm4-6 3 4h-2zm8 0 2 4h1-2zm8 1 3 3h-2l-2-3zm7-1 3 3h-1l-4-2zm6-1 4 2h-2zm5-2 3 1h-1zm7-6-1 3q-5 8-14 9l-16 1q-13 0-15 3-3 6 4 14l13 15 2 1v1l-5 1h-4l-14-19q-7-13 0-19 4-3 16-1h17a27 27 0 0 0 17-10zm0 1q-7 6-16 8h-18l-15 1q-7 6 0 19 3 7 14 19l2-1h1l4-1-1-1q-10-9-14-15-6-9-3-14 1-3 5-3h10l16-1q8-2 14-9zm15-2c15 20 41 16 53 25 20 15-1 39-6 44l-23-10c9-5 25-14 20-24s-32-5-44-28q-2-6 0-7m1 0q6 9 16 13l18 5 18 6q13 11 7 27-4 9-12 18h-1v1l-23-10v-1l3-2q10-6 13-10 7-6 4-12-2-3-14-7l-16-6q-10-5-14-14l-2-6 1-2zm-1 1-1 1 2 5q4 9 13 14l16 6 9 3q5 2 6 5 3 6-4 13-3 4-13 10l-2 1 21 9q9-9 12-18 6-15-6-25l-18-6-19-5q-9-6-16-13"/><path fill="#f1bf31" d="M508 314c16 20 40 16 52 24 21 16-2 39-7 44l-19-9c9-6 24-15 19-25-6-10-32-6-45-28q-2-7 0-6"/><path d="M509 314q6 7 16 12l18 6 18 6q12 10 6 25-3 9-12 18l-1 1h-1l-19-9v-1l1-1 14-10q6-7 4-13-2-4-15-8l-16-6q-9-5-14-14-2-3-1-5v-2zm-1 0v1q-1 2 1 5 4 9 13 13l16 6 10 4q4 2 5 5 3 6-3 14l-14 10-1 1 18 8h1q9-11 12-18 6-15-6-24l-18-6-18-6q-9-4-16-13m35 63c7-6 26-21 14-34-10-9-34-4-50-27v-1c17 25 40 18 51 28 11 12-6 28-14 34zm0-1 14-14q8-11-1-19-3-3-15-6l-17-6a44 44 0 0 1-17-16q7 11 17 15l17 6q13 3 17 7 7 7 1 19a58 58 0 0 1-15 16zm0 1q9-8 14-15 6-11 0-18 6 7-1 19z"/><path fill="#d99f31" d="m547 364 1 4c7-8 12-15 7-23-6-7-17-7-30-13q-9-4-16-14l1 5c13 19 38 15 43 25q3 9-6 16"/><path d="m553 364-4-3-1 1 3 3 3 1 1-1zm3-7-3-1v1l2 2h4v-1zm-2-5 6-2v-2q-1 2-6 3zm-2-6 4-3-1-1-4 3zm-4-7-2 3 1 1zm-8-2-2 2v1h1l2-3zm-8-2-2 2 1 1 3-3zm-6-3-4 2 2 1zm-7-4-3 1 1 1 3-1zm-5-4-3 1 1 1 3-1zm-7-8q7 9 17 15l17 6 16 6q8 8 0 20l-14 14-3-1-1-1-5-3 2-1 13-10q7-7 4-13-2-4-15-8l-16-6q-9-5-14-14zm1 1 1 3q4 9 13 13l16 7 10 3q5 2 6 5 2 6-4 13l-14 11h-1l4 2 2 1 2 1 14-14q7-10-1-19-3-3-15-6-11-2-17-5-10-6-16-15m-8 34-7-1-1-13-4-12 4-13 8 2 8 1 4 14-4 11v12zm-8-1v-12l-2-5-2-7q0-4 4-13l16 3h1l3 14-2 6-2 5v13zm15 2v-12l2-5 2-6-3-13-16-3-3 12 2 6 2 6v12z"/><path fill="#f1bf31" d="m500 351-7-1v-13l-4-12c0-6 4-12 4-12l7 1 7 1s4 8 4 14l-4 11 1 12z"/><path fill="#d99f31" d="M489 324h1l3 1 7 1 7 2 3-1 1 1v1l-4 11v8l-7 2-7-5v-8l-4-12z"/><path d="m508 330-2 9q-1 7 1 13-3-7-3-14l2-8v-8l-3-8 2 1 3 7zm-15 20 2-13-1-5-2-5 1-9 2-5h2c-1 1-5 8-3 14l2 10zm-1 0v-12l-2-5-2-7q0-6 5-13l14 2v1q5 9 5 14l-2 6-2 5v13zm15 2v-12l2-5 2-6q0-5-5-14l-12-2q-5 8-4 12l1 7 2 5v12z"/><path fill="#fff" d="M504 322q0 3-4 2-3 0-4-3 1-2 4-2 4 1 4 3"/><path d="m504 322-1 3h-3q-4-1-4-4t4-3l3 2zm-1 0-1-2-2-1-2 1-1 1q0 2 3 3h2zm2 0-2 3h-3l-3-1-2-3q0-4 5-3t5 4m-1 0-1-2-3-1h-3l-1 2 1 2 3 1q4 0 4-2"/><path fill="#fff" d="M504 331q0 3-4 3-3 0-4-5 0-3 4-3 4 1 4 5"/><path d="m505 331-2 3-3 1-3-2-2-4 2-3h3l3 1zm-1 0q-1-4-4-4-3-1-4 3a4 4 0 0 0 4 4q3 0 4-3m1 0-1 3q-2 2-4 1l-4-2-1-4 1-3 4-1 4 2zm-1 0q0-4-4-5l-3 1-1 2q0 5 4 5h3zm-48 55-2-3v-2l-4-8 10-8 18-2 22 2v1l23 5 18 8 9 11-4 7v2l-2 2-21-11-23-5-23-3zm1-1 20-4 23 3 23 5 21 11 1-2v-2l4-6-9-10-18-8-22-5-22-3-18 2-9 8 4 7v2z"/><path fill="#f1bf31" d="m457 385-1-2-1-3-5-7 10-7 18-2 22 2 23 6 17 8 10 10-5 5-1 3-1 2-20-10-23-5-23-3z"/><path d="m457 385-2-2v-3l-5-7 10-8 18-2 22 2 23 6 18 8 9 11-5 5v3l-1 2h-1l-20-10-23-5-23-3zm0-1 20-3 23 3 23 5 20 10 1-1v-4l5-4-9-10-18-8-22-5-22-3-18 2-9 8 5 5v4zm-2 5c0-8 20-11 45-7s45 14 45 22c0 7-20 9-45 4-25-4-45-13-45-19m-1-1q0-5 14-8 13-2 32 1 19 4 32 10 14 7 14 13t-14 7-32-2-32-9-14-12m1 1q0 4 13 10a144 144 0 0 0 64 11q13-1 13-6 0-6-13-12a123 123 0 0 0-64-11q-13 2-13 8"/><path fill="#f1bf31" d="M456 389c1-8 20-11 44-6 24 4 43 13 44 21-1 6-19 8-44 4-24-4-43-13-44-19"/><path d="M456 389q0-6 13-8t31 1 31 9 13 13q0 5-13 6-13 2-31-1-18-4-31-9-13-6-13-11m1 0q0 4 12 10a138 138 0 0 0 62 10q12-1 12-5 0-5-12-12a120 120 0 0 0-62-10q-12 1-12 7"/><path fill="#d99f31" d="M540 404c0 6-17 8-40 4s-40-11-40-17 17-8 40-4 40 12 40 17"/><path d="M541 405q0 5-12 5-12 2-29-1l-29-8q-12-6-12-10 0-5 12-6t29 2 29 8q12 4 12 10m-1-1q0-3-12-8a132 132 0 0 0-56-10q-12 1-12 5 0 3 12 9a132 132 0 0 0 56 9q12 0 12-5m0 2q-12 3-40-1-28-6-40-12v-1q12 6 40 11t40 2zm0-4q-12 3-40-2t-40-11l1-1q12 6 39 11 28 5 39 2zm-4-3q-13 1-36-2-22-4-36-10l1-1q12 6 35 10 22 3 36 2zm-6-3-30-3q-18-3-30-7v-1a178 178 0 0 0 60 10zm-9-3a198 198 0 0 1-42-8v-1a215 215 0 0 0 42 8zm20 11q-1 5-12 6-12 1-29-2-17-2-28-8-12-5-13-9 0-5 13-6 11-1 28 2t29 8 12 9m-1 0q-1-3-12-8a134 134 0 0 0-56-10q-11 1-12 5 1 3 12 8 12 5 28 8t28 2q11-1 12-5m-90-32q-4-10-16-15l5-2q6 0 9 3 0-11 2-13 1-1 10 6l3-11 11 8q3-11 5-11s7 4 11 12c3-11 10-13 10-13s7 5 10 16c4-6 11-7 11-8q2 1 5 13 10-5 11-4l3 12q9-3 11-1l1 11q3-2 9 1l5 3q-11 3-16 9c-4-8-24-19-50-24s-46 0-50 8m0 0a43 43 0 0 0-16-15v-1l5-1 8 1q-1-6 2-11h1q4 0 10 5l2-10h1q5 1 11 7 1-6 5-10 7 3 11 10 2-6 6-9l4-3 5 4 5 12q4-6 11-7 5 4 6 12 5-4 10-3h1l2 11q6-3 11-1v1q3 4 2 10l8 1 5 4h1-1q-9 3-16 10h-1q-3-7-16-14a115 115 0 0 0-66-11q-13 3-16 8zm0-1q4-6 17-8 15-3 33 0 19 3 33 11 13 7 17 14 6-7 15-9l-4-3h-9v-1q1-5-1-11-5-2-11 1h-1l-2-11q-5 0-10 4h-1v-1l-5-12q-7 1-10 8h-1v-1a32 32 0 0 0-10-16l-4 3-5 10h-1q-4-8-11-11-3 3-4 11h-1q-6-7-11-8l-2 10v1h-1q-5-6-10-6-3 5-1 11v1h-1q-4-3-8-2l-5 1q9 5 15 14"/><path fill="#f1bf31" d="M450 371q-5-9-13-14h5q4 0 7 2c-2-7 1-13 1-13q1-1 11 6l2-10q1-1 11 8l5-11q3 0 11 11c3-10 10-13 10-13s7 5 10 16c4-6 11-7 11-7q2 0 5 13 10-6 11-5l2 12q11-3 12-1 2 1 0 11h7l5 2q-7 3-13 10c-4-9-24-20-50-24-26-5-46 0-50 7"/><path d="M450 371a35 35 0 0 0-14-14h1l5-1 6 2q-1-7 1-12h1q5 0 10 5l3-10q6 2 11 8 1-7 5-11h1q6 3 10 11 2-6 6-10l4-2 4 4q4 5 6 11 4-6 11-7 4 4 5 13 6-4 11-4 3 4 3 11 5-3 11-1 3 6 1 11h6l6 3v1q-8 1-14 9h-1q-3-7-16-13a122 122 0 0 0-66-12q-13 3-16 8zm0-1q4-6 17-8t33 1q19 3 34 11 12 6 16 13 5-7 12-9l-4-1h-7v-12q-6-2-11 1h-1l-2-11q-5 0-11 4h-1q0-9-4-13-7 1-11 8l-1-1-5-12-4-3-4 2-5 10h-1q-4-7-10-11-4 4-5 11h-1l-10-8q-3 3-3 11h-1q-4-5-10-6-2 5-1 12l-7-2h-4q8 4 12 13m-2 3c1-10 23-14 52-10 29 6 51 18 51 26q0 3-4 5v-2q-2-14-47-23-45-7-47 7v2zm0 0q0-8 15-11t37 1 36 12 15 14q0 4-4 5l-1 1v-1l1-2q-1-6-13-13-13-6-34-10-21-3-34-1-12 2-13 8l1 2v2l-1-1-2-2zm1 0 3 3 1 1-1-1q1-7 14-9 13-3 34 1t35 10q12 7 13 14v1q2-1 2-4 1-6-14-13a126 126 0 0 0-72-13q-15 3-15 10"/><path fill="#f1bf31" d="M450 372c0-7 21-13 50-8s50 18 50 25q-1 3-2 1c-3-7-19-17-48-22q-43-6-48 6-1 1-2-2"/><path d="M449 372q0-6 15-9t36 0q21 5 36 12 15 9 15 14l-1 2h-2q-2-7-14-12-13-7-34-10-21-4-34-2-12 2-13 7l-1 1h-1zm1 0 1 2h1q2-6 14-8 13-2 34 2 21 3 34 10 12 6 14 12h1l1-1q0-6-14-13a123 123 0 0 0-72-12q-14 2-14 8m50-15v-9zv7h-2v-1zm42 22 1-3 3-4-3 4-2 2zm-14-7 2-5 3-4q0-1 0 0l-2 4-2 5zm-13-5 1-5 2-6-1 6-1 6zm-43-5-2-5-2-6 3 6zm12 0-1-6-1-6q0-1 0 0l2 6 1 6zm-26 3-1-3-3-6h1l2 5 2 4zm41-8 1-4v-6 1l1 5v11h-2zm16 10 1-5 3-6-1 6-1 2v4h-1zm-32-5v-6l-2-6 1-1 2 7 1 6zm45 9 5-9v1l-4 9h-1q-1 0 0 0m-56-9-1-1-1-4-2-6zm-14 3-1-3-3-5v-1h1l3 5 2 3v1zm84 14h-1l-1-1 2-2 4-4zm-42-22-1 6 2 1zv-5zm15 10h1l1-3v-2l1-3-1 3zm-31-5-1-6-2-3 1 3v2zm-12 0-4-8 1 3 2 4zm56 9 2-5 1-2zm-72-12 1 3 1 3 1-1-2-3zm88 15-1 2-2 2 1 1 1-3zm2-2"/><path fill="#d99f31" d="M458 378q-1-3-4-4l-3 4q2 4 5 4z"/><path d="M458 378v3l-2 1-3-1-2-3 1-3 2-2 3 2zm-1 0q0-4-3-4l-2 1v3l1 2 2 2q3-1 2-4"/><path fill="#f1bf31" d="m455 375 1 2q0 2-3 2h-1v-1q0-3 2-3z"/><path d="M457 378v3l-2 1-2-1-1-3v-3l2-1q3 0 3 4m0 0q-1-3-3-3t-2 3l2 2 1 1 1-1z"/><path fill="#d99f31" d="m473 375-1-4-2-1h-5l-5 1v1l1 5 1 2 10-2z"/><path d="m473 375-1 2-10 1-2-2-1-5 1-1 10-2 2 2h1zm-1 0v-3l-2-2-9 2-1 1 1 4 1 1 10-1z"/><path fill="#f1bf31" d="m462 377 8-2v-5h-1l-8 2v4z"/><path d="m462 376 8-1v-1l-1-3 1-1 1 1v3l2 1v1l-2-1-1 1-8 1z"/><path fill="#f1bf31" d="m484 373 2-1 2 1-2 2zm-4 3 2-1 2 1-2 2zm-3-3 1-2 2 2-2 1zm3-4 1-1 2 2-1 1z"/><path fill="#d99f31" d="m484 374 2-1 1 1-1 1zm-4-4 2 1 1-1-2-1zm-3 3 1 1h2l-2-2zm4 4 1 1 2-1-2-1z"/><path d="M480 376q-1-2 2-2l2 2q1 3-2 3-2-1-2-3m-1-7 2-2 2 1 1 2-1 1-1 1q-2 0-3-3m5 4v-1l2-1 1 1 1 1v2h-2q-2 0-2-2m-8-1 1-1 1-1 2 1v2q0 2-2 2t-2-3m5 4 1 1 1-1-1-1zm-1-7 2 2v-1h1l-1-1-1-1zm5 4 1 1h1v-2zm-8 0 1 1 1-1v-1l-1-1-1 1z"/><path fill="#d99f31" d="M492 376v-4l3-2 11 2 2 2v5l-2 2-11-2z"/><path fill="#f1bf31" d="m506 372-1 1v4l-1 1-8-2-1-1v-5z"/><path d="M492 376v-5l2-2h1l11 2 2 3v5l-2 2-11-2h-1zm1 0 2 2 10 2 3-2v-3l-3-3-10-2-2 2zm0-1h2v-4h1v5l8 1v-4l1-1v5l3 1v1h-1l-2-1 1 2v1h-1v-1l-1-2-8-1-1 2h-1v-1l1-2-2 1-1-1z"/><path fill="#f1bf31" d="m516 379-2-3-1 2 1 2zm4 4-2-2-2 1 2 2zm4-2-2-2q-1-1-2 1l2 2zm-4-5-1-2-2 1 1 3z"/><path fill="#d99f31" d="m516 379-2-1h-1l1 2zm1-3 1 2 2-1-1-2zm4 5 1-1-1-1zm-5 2 2 1 2-1-2-1z"/><path d="M520 383q0 3-2 2l-2-3 1-1 1-1q3 2 2 3m1-7q0 2-3 2l-1-1-1-2 1-1h2zm-5 3v1h-2l-2-2 1-2h1zm8 2q0 2-2 1-2 0-2-2 0-3 2-2l2 1zm-6 0v1l1 2 1-1zm1-6h-1l-1 1h1v1l2-1zm-4 3-1-1h-1v1l1 1h1zm8 2-1 1 1 1z"/><path fill="#d99f31" d="m527 385 1-4 2-1 5 2 5 3v6l-2 1-10-5z"/><path d="M527 385v-4l1-1h3l9 5 1 1-1 5-2 1-10-5zm1 0v2l10 4 1-1 1-4-1-1-8-5-3 1z"/><path fill="#f1bf31" d="m538 390-8-4v-5l1-1 8 5v4z"/><path d="m538 390-8-4-2 1v-1l1-1 1-4h1v1l-1 3h1l7 4z"/><path fill="#d99f31" d="M542 392q1-3 4-3l3 5q-2 4-5 3-2-1-2-5"/><path d="m542 392 1-2 3-1 2 2 1 4-2 2-3 1-2-2zm1 1q-1 3 2 4l2-1 1-2v-2l-2-2q-3-1-3 3"/><path fill="#f1bf31" d="m544 392 1-2h1l2 4v1h-1q-3-1-3-3"/><path d="M543 392q0-3 3-2l2 1v3l-1 3h-2l-2-2zm0 1 1 2 1 1h1l2-2-1-2-1-1q-2-1-3 2m-52-22 3-2 12 2 3 3v5l-3 2-12-2-3-3zm1 1v4l2 2 12 2 2-1v-5l-2-2-12-2zm34 13 1-5 3-1 11 6v1l-1 5-1 2h-1l-10-6h-1zm-52-9-1 2h-1l-10 1h-1l-1-1v-1l-1-5 1-1 10-2 3 2zm53 9 1 2 10 5 2-1v-6l-10-5-2 1zm-54-10-1-4-2-1-10 2 1 5 1 1 10-1z"/><path fill="#d99f31" d="M509 273q3 1 3 4 0 4-3 4-5-3-6-2v1l1 12c3 1-11-1-8-2l1-11v-1h-6q-3-2-3-5t3-3l6 2c2-1-1-4-1-7q0-3 4-3 4 2 4 5-2 3 0 6z"/><path d="m509 272 3 2 1 3-1 3-3 1-4-1-2-1v1l2 12v1h-1l-9-2v-1l2-11v-1h-6l-3-2-1-3 1-3 3-1 3 2h2v-6l1-2 3-1 3 2 1 3v6h2zm0 2h-2l-4-1v-6q0-4-3-4h-2l-1 2v7q-2 1-3-1l-3-1-2 1-1 2 1 3 2 1h3l3-1 1 1v2l-2 12 8 1-2-12v-1l1-1h1l2 1 3 1q3 1 3-3l-1-2z"/><path fill="#f1bf31" d="M497 266q0-2 3-2l2 1-2 1q-2 2-3 1m1 6-5 1-4-2q1-2 3-1l5 1zm3 1 1-2 1 2h5q3 1 3 3l-4 1q-4-1-6-4"/><path d="m508 273 3 1 1 3q0 4-4 4l-2-2-3-1v12h1v1l-1 1-6-1-1-1 1-1v-10l1-2h-3l-3 1q-4-1-4-5l1-2 3-1 2 1 3 1v-3l-1-3 1-3h3l3 1 1 3-1 3v3zm0 1h-5q-3-2-1-5l1-2q0-3-3-3-3-1-3 2l1 2v5l-4-1-2-1-2 1-1 1q0 3 3 4l2-1h4l1 2-1 1v11h-1l6 1h-1v-14h1l3 1 2 2 2-1 1-2q0-3-3-3"/><path fill="#f1f1f2" d="M509 296q-2 8-9 7-7-2-9-10 2-8 9-7 8 2 9 10"/><path d="M510 296q0 5-3 6-3 3-7 2t-7-4-3-7 3-7 7-1 7 4 3 7m-2 0q0-4-3-6l-5-4-5 2q-3 2-3 5l3 6q2 3 5 3 3 1 5-1 3-2 3-5m-6 4 1-2h1zm-10-7v-1zm0 2 2-2v-1zm1 2 3-3h-1zm12 3 1-1v-1 1zm-7 0 3-3v-1 1l-1 3zm-3-2 3-2v1l-2 2z"/><path fill="#d99f31" d="m507 315-7-1-7-1q-2 2-7 0l-3-4q3 2 6-4 0-7 7-7l4 3 4-1q7 1 7 9 3 7 6 6l-3 3q-5 1-7-3"/><path d="m506 315-6-1-6-1-4 2q-2 1-4-2-3-1-3-4v-1 1l3-1q2 0 2-3l3-6q2-2 5-1l4 3 4-2 6 3 2 7 2 4 3 1v1q0 3-2 3h-5zm1-1 3 2h4l2-2-2-1q-3-2-3-5l-2-6-5-3-4 2-4-3q-3-1-5 1l-2 5q0 4-3 4l-2 1 2 3 4 1q2 0 3-2l7 1z"/><path fill="#d99f31" d="m507 315-6 2-6-4h-1q-1 2-7-1l-2-2s5 0 6-5q0-7 6-6l4 3q2-2 4-1 6 0 7 8c0 5 5 6 5 6l-1 2c-4 2-8-2-8-2"/><path fill="#f1bf31" d="M491 303v3l-2 4-4 1-1-1h1l4-1 1-3v-4zm19 3v3l2 4 3 2h1v1h-1l-4-2-2-5zm-10 10q-9-6-8-7zl8-3s-1 4-8 4m-9-14q1-2 7-2l2 2 2-1q6 2 7 4-2 6-9 5t-9-8"/><path d="m506 315-6 2q-4-1-6-4-5 3-9-1l-1-2v-1q6 0 5-4l2-5q2-2 5-1l4 2 4-1 5 3 2 6q0 4 5 6h1l-2 3q-4 2-8-3m1-1q4 3 7 2l1-1-2-2q-3-2-3-5 0-7-6-8l-4 1-4-2q-6-1-6 5 0 4-3 5h-2l1 2q3 3 7 0h1l6 4q4 1 6-2zm0-2s0 5-8 6q-9-7-8-9-1 1 8 8c8-1 8-5 8-5m1 0-2 3q-1 3-7 3-5-2-7-5l-2-4 1-1v1l2 3q2 3 6 4l7-2 1-2z"/><path fill="#a0cfeb" d="M499 419c15 2 78 2 79 92-1 87-78 108-78 108s-77-46-78-140c1-84 76-60 77-60"/><path fill="#94bb79" d="M524 558q8-2 15-1 14 3 23 14c-23 38-62 48-62 48s-38-23-61-69q9-8 23-6 9 2 17 8 9-9 23-7 13 4 22 13"/><path fill="#658d5c" d="M537 557q8 2 14 12l-10 13c-6-10-18-24-18-23l1-1 4-1zm-26 52-11 4-11-7c-9-10-29-32-43-61q8-2 15-1l4 2c9 6 19 19 16 21-4 1-11-3-12 0l24 22zm19-4c-10-12-33-36-51-53q8-8 20-7h1c11 4 20 17 16 19-3 1-10-3-12 0l18 17 16 18z"/><path d="m524 558 3 4v1zq-5-7-13-11h-1l1-1q2 0 14 11m-38 0-8-7h2zm-49-8q10-9 24-7 8 2 16 9 11-9 24-7 12 3 22 14 8-3 15-2 14 2 24 14v1h-1q-10-12-23-14a29 29 0 0 0-15 2h-1q-9-11-21-14-13-2-23 7h-1q-9-7-16-8-13-3-23 6h-1z"/><path fill="#4c819a" d="m425 455 150 25v1l-150-25zm1-4 148 25v1l-148-25zm1-4q72 13 145 24l1 1h-1l-145-24zm2-4q70 13 142 24v1l-142-24zm2-4 138 24h1-1l-138-23zm2-3 134 22 1 1h-1zm3-4 129 21v1zm3-4 123 21v1l-123-21zm4-3 115 19 1 1h-1zm5-4 106 18v1l-106-18zm7-3 92 16 1 1h-1l-92-16zm10-2 73 12 1 1h-1zm-41 43 57 9v1l-57-9zm95 16 57 9v1zm-96-12 39 6 1 1h-1l-39-6zm115 19 38 7h1-1l-38-6zm-115-15 32 5 1 1h-1l-32-5zm122 21 32 5v1zm7 5 25 4h1l-1 1zm-129-22 25 4v1l-25-4zm136 27 18 3 1 1h-1l-18-3zm-137-22 19 3h1-1zm0 4 15 2v1zm142 23 14 2v1l-14-2zm4 5 10 2zm-145-24 9 1v1z"/><path d="M452 492v-8l9-2 8 4v9z"/><path fill="#fff" d="m471 532 3 17q-6-4-12-5l-1-65 3 2v6l4 2v-6l6 2v11l-3 5z"/><path fill="#bdbfc1" d="M461 529v-50l-4 1v7l-4 1v-7l-6 2v10l5 6v31l-5 15q7-3 14-1z"/><path d="m470 511-3-1v3l3 1 1 1h-1l-9-3-9 1-1-1 6-1v-3h-6v-1h2v-3h-2v-1l6-1v-4l1-1 1 1v4l2-1 5 2v-3l1-1v5l3 1 1 1h-1l-6-2v3l6 2zm-19 5 10-1 9 3 1 1h-1l-9-3h-2v4h2l9 3 1 1h-1l-9-3h-6v4l6-1 9 3 1 1h-1l-9-3-7 1h-2l-1-1h2v-4l-1 1-1-1v-1h6v-3h-6zm10-26 13 6h1l-1 1-13-6-13 3-1-1zm-11 49 11-1 12 3v2l-12-4zm13-36h-2l-6 1v3l6-1 2 1zm3 6-5-2h-2v4l2-1 5 2zm-6 26h-9l-1-1 10-1 1 1zm1-5h-10v-1h10zm-1 13v-64l1-1 1 1v65h-1zm8-10-4-1v-13l1-2q3 1 3 3zm8 16h-1l-12-5-15 1h-1v-1l5-15v-30l-4-5v-12l6-2h1v7l3-1v-7l3-1h1l3 2 1 1v6l3 1v-6h1l6 2v13l-4 5v30zm-24-50v31l-3 13h13l11 4-3-15v-31l-9-3zm9-2 9 3 3-4v-10l-4-2v6h-1l-4-2-1-1v-6l-2-1-3 1v7l-5 1v-1h-1v-6l-4 1v10l4 5zm30-4v-8l8-2 9 4v9z"/><path fill="#fff" d="m509 533 4 16-14-4v-65l4 1v7l4 2v-7l6 3v11l-4 5z"/><path fill="#bdbfc1" d="M499 545v-65h-3v7l-4 1v-7l-6 2v10l4 6v31l-4 17q6-2 13-2"/><path d="m490 512 6-1v-3l-6 1-1-1 1-1h2v-3h-3l1-1 6-1v-3l-6 1-1-1h1l6-1 3-1 10 4v1l-1 1-2-2v4l3 1v1h-1l-6-3v4l7 2v1h-1l-2-1v4l3 1v1h-1l-9-4-9 1zm0 4h9l10 3v1h-1l-9-3h-6v3h6l10 4-1 1-9-4-9 1-1-1h3v-4h-3zm0 9h9l10 3v1h-1l-9-3h-2v3h2l1 1h-1l-9 1-1-1h1l6-1v-3h-7zm22-27-13-6-13 2-1-1h1l13-3 14 7v1zm-1 45-12-3h-11l-1-1h12zm-10-39-2-1-6 1v3l6-1 2 1zm4 6-6-2h-2v3h2l6 2zm0-9-6-2h-2v3h2l6 2zm-6 34h-10v-1h10zm0 10v-66l1 1zm7-11-4-1v-13q0-3 2-3l2 3zm8 15h-1l-10-4q-9-2-16 2v-1l-1 1v-1h-1l5-17v-31l-4-5v-12l6-2 1 1v6l3-1v-7h4l4 2v7l3 1v-6h1l6 3h1v11l-1 1-3 5v30zm-27-56 4 6v32l-4 14 15-1 10 4-4-15v-32l4-4v-10l-4-2v5l-1 1-5-2v-7l-3-1h-2v6l-1 1-4 1h-1v-7l-4 1zm42 13v-9l9-1 8 4v9z"/><path fill="#fff" d="m547 546 4 15-14-4 1-65 3 2v7l4 2v-7l6 3v11l-4 5z"/><path fill="#bdbfc1" d="M538 543v-51l-4 1v6l-4 1v-7l-6 1v11l4 6v31l-4 16q6-2 14-1z"/><path d="M528 524h6v-4l-3 1h-3v-1l2-1v-3h-2v-1h6v-4l-6 1v-1l6-1h4l9 4v1l-3-1v3l3 2v1l-6-3v3l6 3v1l-3-1v3l3 1v2l-9-4h-10zm0 13h2v-3h-2v-1h6v-3h-6v-2h10l9 4v1l-9-4h-3v4h3l9 3v1q0 1 0 0l-9-3h-7v3h7l9 4h1l-1 1-9-3h-10zm-4-32 13-2h1l13 7h1l-1 1-13-7zq-1 0 0 0m2 46h12l11 4h1l-1 1-11-4h-13zm14-34-2-1h-7v3h7l2 1zm3 6-5-3h-3v4h3l5 2zm0-9-5-3h-3v4l2-1h1l5 3zm-6 34h-10v-2h10zm1-5h-10v-1h10zm-1 14v-65h1v65zm7-10-4-2v-13l2-2q3 1 2 3zm-20 12v-1l4-15v-30l-4-6v-12l1-1 6-1v1l1 1v5h2v-6l1-1 3-1h1l3 2 1 1v6l2 2v-6l1-1 6 3 1 1v12l-4 4v31l5 15v1h-2l-12-5-15 2m1-54 4 6v32l-4 14q7-2 14-1l11 4-4-14v-31l1-1 3-4v-10l-4-2v6h-1l-4-2-1-1v-7l-2-1-3 1v6h-1l-4 1h-1v-7l-4 1zm-60-47q0-5-5-8c1 6 6 25-1 26v-1c0-8-8-19-6-26q2-7 9-6c9 2 10 12 4 16zm0 0-1-5-3-2 1 5 1 13q0 7-3 7h-1v-1q0-4-4-13l-3-13q1-8 10-7 7 2 8 8 2 7-4 9zm1 0q5-3 3-8-1-6-7-7-8-1-9 6l3 13 4 13q3-1 2-6l-1-12-1-7q3 0 5 3z"/><path fill="#fff" d="M467 458q-1-6-7-8v1c1 6 7 22 1 24-1-9-8-16-7-25q2-4 6-5l3-1c8 2 10 10 4 14"/><path d="M466 458q-1-7-5-7l1 6 2 12q0 6-3 7l-1-1-3-11q-5-10-3-14 1-4 5-6h4q6 2 8 6 2 6-4 8zm1-1q4-2 3-6-1-5-7-6h-3q-4 1-5 5t3 13l3 11q3-1 0-16l-1-8q6 0 7 7m-11-4q1-3 4-3l1 1h-1l1 1-5 2zm0 4 5-2 1 1zm0-4 4-1h1v1l-5 1zm0 2 5-1h1l-1 1-4 1zm1 4 4-2 1 1zm2 1 3-1h1v1l-4 2-1-1zm2 2 1-1 1 1v1h-2zm5-13q-6-5-10-1h-1l2-2q5-3 10 3zm39 11q1-6-5-8c0 6 6 24-1 25 0-9-8-19-7-27q3-7 10-6c9 2 10 13 4 16zm0 0-2-5-2-2 1 5 1 13q0 6-4 7v-1l-4-13q-4-10-3-14 1-7 10-6 7 1 8 8 2 6-4 9zm1-1q4-1 3-7t-7-7-9 5q-1 4 3 14l4 13q2-1 2-7l-1-12-1-6q3 0 4 3z"/><path fill="#fff" d="M506 459q-1-7-7-8c0 6 7 22 1 25-1-10-9-17-7-25q2-4 5-6h4c8 2 10 10 4 14"/><path d="M505 459q-2-7-5-8l1 7 2 11q0 7-3 7h-1l-3-12q-4-9-3-14t5-5l4-1q6 1 8 7 0 5-4 8zm1-1q4-3 3-7-1-5-7-5h-3q-4 0-5 5-1 4 2 13 4 7 4 11 3-2 0-17l-1-7v-1q6 1 7 8m-12-4q2-3 5-4l1 1h-1v1l-4 2zm1 3 5-1h1l-1 1-4 1h-1zm0-3 4-2 1 1v1zm0 1 5-1v1q1 0 0 0l-5 2zm1 4 4-1h1v1l-4 1zm2 2 3-1h1l-1 1-3 1zm2 2 1-1h1v1zm5-13q-6-5-10-1l-1-1 1-2q6-2 11 3zm39 23q0-7-5-8c0 5 6 24-1 25 0-9-8-20-7-27q3-7 10-6c9 2 10 12 3 16m0 0-2-5q0-2-3-3l1 6 2 12q0 7-4 7l-1-1-3-12q-4-10-3-14 1-7 10-6 7 1 8 7 1 7-4 9zm1-1q4-3 3-8t-7-6q-8-1-9 5-1 4 3 13l3 13q3 0 3-6l-2-12-1-6 1-1q3 0 4 3z"/><path fill="#fff" d="M545 471q-1-6-7-7c0 6 6 22 0 25 0-10-8-17-6-26l5-5h4c8 2 10 9 4 13"/><path d="M544 471q-2-7-6-7l2 7 2 11q0 6-3 7h-1q0-4-4-12-3-9-2-14 1-4 5-6h4q5 1 8 7 0 5-4 8zm1 0q3-3 3-7-1-5-7-6h-3q-5 2-5 6-1 4 2 13 4 6 4 11 3-2 0-17l-2-7 1-1q5 0 7 8m-12-5q2-3 5-3l1 1h-1v1l-4 2q-1 1-1-1m1 4 5-1h1l-1 1-4 1zm0-4 4-1 1 1-5 2-1-1zm0 2 4-1h1v1l-5 1zm1 4 4-2 1 1v1l-4 1zm1 2 4-2 1 1-1 1-3 1zm3 1h2v1h-2q0 1 0 0zm5-13q-6-5-10-1h-1l1-2q6-2 11 3zm7-20c4 3 16 12 18 54 3 82-63 117-64 117 1 0 85-22 86-114-1-38-15-81-45-86l-16-3-24 7q-2-3-6-4l-6 2-23-15-17-3c-30-4-44 34-45 73 1 90 85 141 86 142 0-1-67-59-64-139 2-41 14-46 18-48l20 10 25-11q3 4 6 4 4 1 6-2l25 20zm0 1-20 3-25-19q-2 3-6 2l-6-4-25 10q0 2 0 0l-20-10v1q-15 8-17 47-3 50 30 99a236 236 0 0 0 33 40l-14-9-29-28q-43-49-43-105 0-32 11-53 13-24 34-21l17 3 23 15q3-2 6-1 5 0 6 4l24-8 16 3q21 4 34 31 11 25 11 56 0 57-43 92a134 134 0 0 1-43 23v-1l10-7q13-9 23-21 33-38 31-89-3-40-18-53m0-1q16 14 19 54 2 51-31 90a140 140 0 0 1-29 25 137 137 0 0 0 38-21q42-34 42-91 0-31-11-55-12-27-33-31l-16-2-24 7v-1q-2-3-6-3-3-1-5 2h-1l-23-16-17-2q-20-4-33 20-11 21-11 52 0 57 43 104a226 226 0 0 0 37 34 220 220 0 0 1-29-35q-33-50-30-100 2-40 18-48v-1l20 10 25-10h1l5 4 6-2h1l24 19z"/><path fill="#d99f31" d="m535 410-35 9-34-21-12-1c-30-4-44 34-45 73 1 90 85 141 86 142 0-1-68-59-65-139 2-41 15-47 19-49l22 10 29-13 30 23 21-3c4 3 17 14 19 55 3 82-64 117-65 117 1 0 85-22 86-114-1-38-15-81-45-86z"/><path d="m534 409 11 3q21 4 34 31 11 25 11 56 0 57-43 92a134 134 0 0 1-43 23v-1l11-7q12-9 23-21 33-38 30-89-1-41-18-54l-21 2-30-22-29 12-22-10q-16 9-18 49-3 50 31 99a237 237 0 0 0 33 40l-14-9-29-28q-43-49-43-105 0-32 11-53 13-24 34-21l12 2 34 21zm1 1-34 10h-1l-34-21-12-1q-20-4-33 20-11 21-11 52 0 57 43 104a226 226 0 0 0 37 34 236 236 0 0 1-29-36q-33-49-31-99 1-41 18-50h1l22 10 29-13 1 1 29 22 21-2h1q17 13 18 55 3 51-31 90a140 140 0 0 1-29 25 140 140 0 0 0 38-21q42-34 42-91 0-31-11-55-12-27-33-31zm6 18q-6-1-7 6 0 4 3 7l-1 1q-3-4-3-8 0-8 8-8zm-82-16q8 3 8 10 0 5-3 8v-1l2-7q0-6-7-9zm-10 7q-8 5-14 17h-1v-1q5-11 15-18zm8-13q-21-3-32 24l-1 1v-1q11-29 33-25 10 2 18 8v2q-8-7-18-9m0 4q-19-2-28 22l-1 1v-1q9-25 29-23 10 1 18 10v1q-7-9-18-10m15 17q-4-12-15-14-16-1-25 21h-1v-1q9-22 26-21 13 1 16 13zm56 9q3-10 16-9c14 3 24 20 29 41v1h-1c-5-22-15-38-28-40q-11-2-15 8m48 32v1l-1-1c-6-23-17-40-32-43q-10-2-18 4v-2q8-5 18-3c16 3 28 21 33 44m4 2h-1c-5-26-17-46-37-49q-9-1-17 3v-2q8-4 17-3c21 4 33 25 38 51m-35-37q17 6 24 34h-1q-8-29-23-33zm-67-4q3-4 3-11l1-1v1q0 8-3 11zm42 7q-3-5-3-12h1q0 7 3 12zm-4-2-2-10v-1l1 1 2 9v1zm-35-7q3-3 3-9l1 1q0 6-3 9zm32 4-2-8h1q-1 4 2 8zm-28-5 2-7v-1l1 1zm3-2 2-5 1 1-2 5zm21 4-1-5 1-1v1l1 5v1z"/><path fill="#d99f31" d="M507 422q-1 6-7 6-6-2-7-8 1-6 7-6 7 2 7 8"/><path d="M508 424q-2 6-8 5-4-1-7-7h1q2 5 6 6 6 0 7-4v-1zm-15-6q1-6 7-5 6 2 7 6v1l-1-1q-1-4-6-5-4 0-6 4zm9 8h-2l-3-2-2-4h1q0 5 4 5zl2-1v-1l1 1zm-1-2q-2-1-2-3v-1l1 1 1 2h1zm-6-5 1-1h1l-1 1v1zm-2-1 2-4q2-2 5-1l5 2 2 4v1l-1-1q1-2-2-3l-4-2-4 1-2 3zm15 6q0 3-3 4l-5 1-4-2q-3-2-3-5h1l2 4 4 2 5-1 2-3zm18 16q5 8 15 10 13 2 14-11 0-8-10-11-6 0-8 7l2 7q-9-5-10-14 1-12 13-11c25 2 41 33 44 74 4 58-26 99-72 117l-14 5v7c18-3 38-13 51-23 24-19 47-53 43-105q-4-50-24-68c-21-22-48-20-49 2q0 8 5 14m-52-9q-5 6-15 5-13-2-14-15 0-8 10-9 7 3 8 11l-2 5q9 0 10-10-1-12-12-15c-26-7-42 20-45 60-4 56 26 106 72 140l14 10v7c-18-10-38-26-51-40-24-27-47-68-43-119q5-48 24-61c21-15 49-3 49 19q0 8-5 12m1 0q-6 7-16 6-6-2-10-6-5-4-5-10v-1l3-6q3-2 8-2 3 0 6 4 3 3 2 7l-1 4q8-1 8-9 0-6-3-10l-8-5q-19-5-31 13-11 16-13 47-3 41 17 78 19 36 55 62l2 2 11 8 11-4 3-1q35-14 54-44 20-31 17-73-2-31-13-52-12-20-30-22-6 0-9 3-3 2-3 8 0 8 8 12l-1-5 2-6 6-2a12 12 0 0 1 11 12q0 7-4 10-5 3-11 2-10-2-16-11-4-7-4-14t4-13q6-4 13-5l16 3q9 4 17 12 9 11 16 27a151 151 0 0 1-4 107 111 111 0 0 1-56 55l-27 9a209 209 0 0 1-83-91 150 150 0 0 1-3-108q6-15 16-22 7-6 16-7t16 2q8 3 13 10 4 6 5 14-1 7-5 12m51 9q6 8 15 10 6 1 10-2t4-9l-2-6q-2-4-8-5l-5 2-2 6q0 3 2 5v1h-1q-10-6-10-14 0-6 3-9 4-3 9-3 19 2 32 23 11 21 13 52 4 42-17 74-19 30-55 44l-3 1-10 4v6a135 135 0 0 0 49-23q21-16 33-40 14-29 11-65-2-23-8-42-7-16-16-26-7-8-16-12l-16-3q-7 1-12 5-4 5-4 12t4 14m-52-9q4-5 5-12-1-8-5-14-5-6-12-9a33 33 0 0 0-32 5q-9 6-15 21-7 16-9 40-2 34 12 68a175 175 0 0 0 55 71q13 12 27 19v-6l-11-8-3-2q-36-27-55-62-21-39-17-79 2-31 13-48 13-18 32-13 6 2 9 6l4 10q-1 9-11 11l-1-1q3-3 2-5 1-4-2-7-2-3-5-3-5 0-7 2-3 1-3 6 1 6 4 10l10 5q9 1 15-5"/><path fill="#f1bf31" d="M500 620c-18-10-38-28-51-41-24-27-45-67-42-118q4-47 24-60c21-15 47-2 48 18q-2 17-20 17-12-4-13-16 2-7 8-7 8 2 8 10 0 4-3 6 11 0 13-11-2-12-13-16c-26-6-43 20-46 61-3 56 27 107 73 141l14 9 14-4c46-18 76-60 73-118-3-41-20-73-45-75q-12-1-14 12 2 11 13 15-3-3-3-7 0-7 8-7 7 2 8 9-1 13-13 12-18-5-19-24c0-20 26-23 47-2q20 18 24 67c3 52-18 86-42 105-13 10-33 20-51 24"/><path d="M500 620a194 194 0 0 1-51-41q-20-23-32-50-13-32-10-68 3-45 24-60a31 31 0 0 1 43 4q5 7 5 14 0 9-6 14a17 17 0 0 1-24-2q-4-6-3-11l2-6 6-1q4 0 6 3l3 7q0 3-3 5 4 0 7-2 4-3 4-8 0-6-3-10l-9-6q-19-5-31 13-12 17-14 48-3 40 18 79a189 189 0 0 0 68 71l14-5q35-14 55-44 20-31 17-73-2-31-14-52-12-20-30-23-6 0-10 3-3 3-3 9 0 5 4 9 3 4 7 5l-3-6 3-6q3-2 6-1l6 3 3 6q0 7-4 10t-10 2q-8-2-14-8-6-7-6-16 0-7 5-12 4-4 11-5 17-2 33 15 20 21 23 67 3 36-10 65-11 25-32 40a144 144 0 0 1-51 24m27-10 23-15q20-15 32-39 13-29 10-65-2-45-23-67-15-14-31-14-8 1-11 5-5 5-5 11 0 9 6 15 6 7 13 8 5 1 9-2t4-9a9 9 0 0 0-8-8q-3-1-5 1t-3 5 4 7h-1q-4 0-9-5-4-5-4-11 0-5 4-9 3-3 9-3 20 2 32 24 12 20 14 52 3 42-18 74a114 114 0 0 1-69 49l-14-9q-36-27-55-63-21-38-18-80 2-30 14-48 13-18 32-13 6 1 9 6 4 5 4 11 0 5-4 9-4 3-9 2h-1l1-1q3-2 3-5a9 9 0 0 0-8-9l-5 1q-3 3-2 5-1 6 3 10t9 5q7 2 13-3 6-6 6-13t-4-13q-5-6-12-9-16-6-31 5-20 15-23 59a152 152 0 0 0 42 117 241 241 0 0 0 50 41q12-2 27-9m-134-62-6-3c-2-2-9-10-16-15-10-8-21-7-30-12q3 15 20 26c9 4 23 3 25 3l7 3zm0-1v3l-7-3h-2q-16 0-23-4a38 38 0 0 1-21-26l1-1 13 5q11 3 18 7l11 11 5 4zm-1 1-5-3-5-5q-6-7-11-10-6-4-18-7l-11-4q3 16 19 24 7 4 23 4h2l6 2zm-38 8 17-2c13-2 19 1 29 10l2 2h5l2 3-7-1c-4 0-10 6-20 5q-17-2-28-17m-1 0 17-2q9 0 16 2 5 2 13 9h1l1 1 3 1h2l2 2 1 1-1 1-7-1-5 1q-9 4-15 4a44 44 0 0 1-29-18m2 0q12 15 27 17 5 0 14-4l6-1 6 1-2-2h-1l-3-1-2-1v-1l-14-8q-6-2-15-2z"/><path fill="#658d5c" d="M408 568h-6c-6 0-11 5-20 5q-15-2-26-16c11-1 20-6 32-1 6 3 13 11 18 11z"/><path d="M408 569h-6l-7 2q-7 3-13 2-7 0-15-5l-12-11h1l10-2 11-2 11 2 7 6q8 6 11 5l1 1zm-2-1q-3 0-11-6l-7-5-11-2-10 2-10 2 11 9q6 5 14 5 6 1 13-2l7-3zm-5-2-16-1c-10-1-26-7-26-7s15 7 26 8zm0 0-16-1q-11-1-26-7v-1q15 6 26 7zm-24-2a73 73 0 0 0 24 3v-1zm-4-125-1-1v-2l-1-2-1-2v-1h2v1l3 4v1zm0 0 1-2v-1l-1-1-1-3h-1v2l1 2 1 2zm59 149q-1-2 2 0v1l-3 2q-2-1 1-3m-1 0 1-1h1l2 2-1 1-1 1h-2l-1-1zm1 0-1 1v1l1-1 2-1zm-54-157c-6 16-9 46-7 60 8 44 42 87 73 99q40 17 55 41c7 10 11 14 21 33 4 7-2 7-5 2-7-16-11-23-21-36q-15-21-52-37c-30-11-66-55-73-98-2-14 0-47 7-63zm1 0q-4 12-6 31v29q6 33 27 61 22 29 45 38 36 12 55 41l3 3 20 34q0 3-2 2-3 0-6-4-9-20-20-35-19-25-52-37-24-8-45-38-24-30-28-61-3-12-1-31a118 118 0 0 1 8-33l2-1zm-2 1q-4 12-7 32-2 19 1 31 5 31 27 61 23 28 45 37 34 12 52 37 12 15 21 36 2 3 5 3l1-1-1-3q-9-18-19-31l-2-3q-21-27-55-40-24-9-46-38-21-29-27-62v-29q1-19 6-30m45 153c-4 0-8 6-12 10-9 7-23 6-32 0v-1c11-2 12-16 36-12l6 2zm0 1q-3 0-7 5l-5 5q-7 5-16 4-9 0-16-5l-1-1 1-1 9-5 10-6a32 32 0 0 1 20 0l3 1 2 2h1zm-1-1-1-1-4-1h-3q-9-3-16 0l-9 6q-6 5-10 5 7 5 16 5 9 1 15-4l5-5zm-16-74c0 7 5 17 6 25q2 10-3 17l-2 6 2 4 1 3c-6-6-2-2-5-7l-4-8q-12-24 5-40m0-1 4 14 3 11q2 8-3 18l-1 1-1 4 1 4h1l1 4h-1l-2-2-2-3-1-3-4-8q-5-12-5-22 2-12 9-19zm-1 2q-7 7-8 17a44 44 0 0 0 7 26l5 9-1-1-1-4 2-5v-1q5-9 3-17l-3-11zm45 80q-5-2-8-6l-5-16c-5-11-15-14-21-24-1 9-2 21 11 33q9 6 14 7l3 4zm0 0-6-2v-1l-3-3-4-2-10-6q-9-7-11-18v-16l1 1q2 5 10 11 8 7 11 13l2 8 3 8q1 3 7 6m-8-5v-1l-3-8-2-8q-3-6-11-12l-9-11v14q2 10 11 17l9 6zm3 3-1-1z"/><path fill="#658d5c" d="m444 590-3-4q-6-2-13-7-10-8-12-19v-12c6 9 16 11 21 22 3 7 3 16 9 21z"/><path d="m444 590-3-3-5-3-9-5q-9-9-11-19v-13l1 1 9 9q9 7 12 13l2 8q3 9 7 12v1h-1zm-1-2-4-10-2-8q-3-6-11-12l-9-9v11q2 10 11 18l8 5 5 3zm-53-52-1 2 2 2v-3zm0 0v1h1l-1 3v1l-1-1-1-2zm0 1v1z"/><path fill="#658d5c" d="m393 548-6-2c-2-2-9-11-16-16-10-7-19-7-29-11q4 17 19 24c9 5 23 3 25 4l7 3z"/><path d="M393 547v2l-7-3h-2q-16 0-23-3a37 37 0 0 1-19-25l11 3q12 3 19 7l11 11 5 5zm-1 1-5-2-5-5-11-11q-6-4-18-7l-10-3q5 15 18 23 7 3 23 3h2z"/><path fill="#466343" d="m407 562-6-11-4-15c-1-11 1-16 8-24l1 6q6 13 6 27l-5 14 2 5z"/><path d="m407 562-4-8-2-3-4-15q-2-8 1-14l7-10h1v1l1 4v1l2 6q5 13 3 21l-2 9-2 5 1 5v1l-1-1zm0-2 2-6 2-8q1-7-3-21l-2-6-1-4-6 9q-3 4-1 13l6 18zm-26-30c-8-13-24-10-36-21q-8-10-9-21l-1-13h1l12 10c10 9 14 16 20 27 7 16 13 8 13 18m0 0-8-7q-3-3-10-4-14-4-18-10-7-8-10-21v-13h1l10 9 2 1a61 61 0 0 1 20 27q4 9 10 11l2 2zm-6-7-8-10q-4-11-8-15l-12-12-1-1-10-9v12q3 14 9 20t18 10zm5 5v-2l-3-2-1-1zm24-12-2 20 4 22h-1s-3-13-3-22c-1-8 2-20 2-20m0 0-2 20 4 22h-1l-4-22zm-2 13v7q0 9 4 21z"/><path fill="#658d5c" d="m370 521-13-5q-7-2-12-8-7-8-8-19l-1-12 2 2 11 8 8 7 8 13 5 11z"/><path d="m370 521-8-3-5-1q-6-2-12-8-7-7-9-20v-13l1 1 1 2 11 8h1a55 55 0 0 1 15 20l2 3 4 8zm0-1v-2l-4-7-2-4-8-12-7-7-1-1-5-4-6-5v11q3 13 8 19l12 8 5 1z"/><path fill="#a48253" d="M370 518q4 4 8 5l2 5q-4-6-10-7z"/><path d="m371 518 3 3 4 2h1l1 5h-1q-3-4-9-7v-3zm0 2 7 5v-1z"/><path fill="#d99f31" d="M364 485q0 5-5 5-4-1-5-6 1-4 5-4 5 0 5 5"/><path d="m365 485-2 4-4 1-4-2-1-4 1-4 4-1 4 2zm-2 0a5 5 0 0 0-4-5l-3 1-1 3q0 5 4 5l3-1z"/><path fill="#f1bf31" d="m360 480-1 2q0 4 3 4h1v-1q0-3-3-5"/><path d="m365 485-2 4-4 2a7 7 0 0 1-6-7l2-4 4-1q3-1 4 2zm-1 0a5 5 0 0 0-5-5l-3 1-1 3 1 4 3 1 3-1zm10-1 4-13c5-12 13-12 18-21q6 11 0 25c-5 10-18 15-18 15zm-1 0 4-14q3-6 11-12l8-9 1 1q4 15 0 25-4 7-11 12l-8 4zm1 0 4 6 7-4q8-5 11-11 5-10 0-24l-8 8q-7 6-10 12z"/><path fill="#466343" d="M396 452c7 19-2 31-18 38l-4-6c3-12 5-17 13-24q6-3 9-8"/><path d="M397 452q9 26-19 39l-5-7 5-14a37 37 0 0 1 12-13l6-5q0-2 0 0zm-1 1-5 5-3 2-9 10-5 14 4 6q25-12 18-37"/><path fill="#a48253" d="M378 432c-7 17-9 45-7 59 8 44 41 88 73 99q39 18 55 41l13 19 8 16-3 1-9-17-14-20q-15-23-52-37c-30-12-65-55-72-98-2-14-1-46 5-62z"/><path d="M378 431q-4 12-6 31v28q5 33 27 61 21 30 45 38 34 13 55 40l18 29 3 7v1h-4l-8-16-10-14-5-7q-18-24-51-37-23-9-45-37-22-30-28-61v-30a124 124 0 0 1 6-32zm-2 2q-4 12-6 32v30q6 32 28 60 21 29 44 37 34 13 52 38l5 6a134 134 0 0 1 18 31l1-1h2l-4-7-17-28q-21-27-55-40-24-9-46-38-23-29-27-62v-28zm-2 81-4-4c-12-15-9-36 4-46l1 1 3 14c4 12 5 18 1 27q-2 10 0 11zm0 1-2-2-3-3q-9-10-7-25 2-14 12-21h1v1l3 14 4 15-3 13v11zm1-1 3 2v-10l3-12q0-6-4-15l-3-14q-9 7-11 20a31 31 0 0 0 12 29m42 61c-8-4-16-4-22-12-8-9-9-21-7-28l5 6c8 7 17 11 21 20l1 6q3 8 11 13zm-7-2q-10-4-15-9-5-7-8-15v-14h2l1 1 3 5 7 5q11 9 14 15l1 3v3q3 6 10 12l1 1h-1l-8-4zm7 2 6 3q-6-5-8-11l-1-3-1-3q-2-6-13-14l-7-6-4-4-1-2v14q2 8 7 14 5 5 15 9z"/><path fill="#658d5c" d="M423 579c-7-7-20-7-28-16q-9-12-7-26c7 7 15 10 22 18 7 10 1 14 15 24z"/><path d="m423 580-12-7q-12-4-16-10a34 34 0 0 1-7-26h1l9 8 12 10 4 10 3 6 8 8v1zm-3-3-4-5-3-7q-1-6-4-9-3-5-11-10l-9-8a33 33 0 0 0 6 25q4 5 16 9zm-36-48q2-6 0-12v-13q2-7 7-13l6-10 3 12q2 8-1 17-1 7-7 12-3 2-5 6l-1 5zm0 0v-11l-1-13 7-14h1l5-9 1-1v1l4 12q1 10-1 17t-8 12v1l-5 5v5h-1zm1 0 1 2v-3l5-6 1-1 7-11q2-7 1-17l-3-11-6 8v1q-6 8-7 13l1 13zm-13-73 2-1q2 0 2-3c1-1 4-12 9-19 5-8 11-11 18-17q2 12-4 27c-6 7-19 11-20 12l-6 2-1 3zm0-1h1l3-3v-1l8-19 14-13 5-3q3 17-4 27-3 5-11 9l-10 3-4 2-2 3v1l-1-1zm3 0 4-1 8-3q8-4 11-9 6-9 5-25l-4 3-14 13-8 19v1zm-4 2-2-2-1-4c0-4 3-14 2-22-4-16-8-22-9-28-1-2-12 14-9 31 2 8 11 18 13 20l4 5v6zm0-1-1 6h-1v-1l-1-5-4-5-6-7-6-13q-3-11 3-23l4-7 1-2h1v1l3 8 6 20q1 6-1 17l-1 5 2 4zm-1 1-1-1-2-5 1-5q2-11 1-17l-6-20-2-8-2 2-3 6q-6 12-3 23 1 5 6 12l6 7zl1 2zm8-26 4-5c3-3 12-9 15-13 7-11 6-25 5-28l-18 16c-5 7-6 22-7 25l-2 7zm0 0-2 1h-1v-1l2-6v-1q2-18 7-24 5-7 14-13l4-3h1v11q0 10-5 17-2 4-14 11l-2 2zm-1 0 4-6 3-1 13-12q5-6 5-16v-10l-3 3q-9 6-14 12-5 7-7 24v1z"/><path fill="#658d5c" d="m372 458 1-2 3-4 9-20q9-9 17-14 3 12-4 25c-4 5-13 9-19 11z"/><path d="M372 458v-3q3 0 4-3l3-6 6-14q4-6 14-12l3-2q0-1 0 0h1v14q-1 6-5 11-4 8-19 12-4 1-6 4zm4-3 2-1q15-5 19-11t5-12v-12l-3 2q-9 6-13 12l-6 13zm-29-14c10 8 12 12 15 25l2 9 4 4 1 4-4-5-9-4q-8-4-13-13-5-11-4-23l2-6v1zm1-1 10 12 4 14 3 8 2 3 2 2v5h-1l-2-3-2-3-5-2-3-1q-8-4-13-13-6-10-4-24v-1l1-5h1zm-1 1-6-8-1 4v1q-2 15 4 23a33 33 0 0 0 16 14l5 3 2 3 1 1v-3l-2-1-2-3-3-9q-1-9-4-14t-10-11"/><path fill="#658d5c" d="M368 479v3c-4-7-6-5-12-8q-7-5-13-13-5-13-2-27c2 5 12 12 16 18l5 14 2 9z"/><path d="m368 479 1 3h-1l-7-6-5-2q-7-4-13-13-6-10-3-27h1l7 8q7 6 9 10l6 17 1 6zm-1 1-3-5-2-6-1-3q-2-9-5-14l-8-9-7-7q-3 15 3 25a33 33 0 0 0 17 14z"/><path fill="#658d5c" d="M385 529v-12l-1-13q3-10 10-18l3-3c5 15 6 28-5 39q-3 2-5 6l-1 3z"/><path d="M385 530v-25q1-6 8-15l2-3 3-4v1q9 26-4 39l-2 1-4 5v3l-1 1zm0-1v-2l5-6 1-1q12-12 5-37l-2 3-3 3-7 14v25"/><path fill="#a48253" d="m424 583-3 1 1 1h1l5 1z"/><path d="M425 584h-3l1 1 6 1-1 1-5-1h-1l-1-2v-1h4z"/><path fill="#466343" d="M421 584q-6-2-18-2c-11 1-15 10-23 13q17 9 31 0 5-6 11-10z"/><path d="m421 583 2 2v1q-4 0-8 5l-4 4q-7 6-15 5a35 35 0 0 1-16-5v-1l9-6q8-6 14-7zm0 1h-3q-10-3-15-2-6 1-13 7l-8 6q8 4 14 4 7 1 14-5l4-4zm84 64q1-2 3-2 2-1 3 1l-1 1v-1h-2l-2 1z"/><path fill="#a48253" d="M435 589h-2l-1 2-1-1 1-1v-2z"/><path d="m435 589-1 1h-1l-1 1h-1l-1-1 2-1v-2zm-1 0-1-1v1h-1v1-1z"/><path fill="#658d5c" d="m376 431 3-16c2-12 6-15 14-22l8-6 1 10c-2 17-9 19-21 28z"/><path fill="#a48253" d="m377 430-2 1z"/><path d="m376 431 2-10 1-6q1-9 4-13a53 53 0 0 1 16-14l2-1h1v10q-1 10-5 16l-11 10-4 3-3 3zm1-2 1-1 3-3 4-3 11-10q4-5 5-15v-9l-2 1-6 4-9 9q-3 4-4 13l-1 6zm0 3 1-3 1 1-1 1z"/><path fill="#658d5c" d="m370 457-1 3q0-5-4-9-17-16-11-37 2-7 6-11l5 10c4 11 5 17 4 29q-2 7 0 14z"/><path d="m371 457-1 3h-1l-5-8q-17-19-11-39l7-11h1v1a82 82 0 0 1 8 25v17q-2 7 1 10zm-3-2v-27l-8-24q-5 4-6 10-6 19 11 37zm2 2-1-1z"/><path fill="#a48253" d="M370 463v-4l-1-3 2 1zm5-27-3-4q-1-3-1 0l3 8z"/><path d="m375 437-2-2-2-3v-1 1l2 4 1 3h-1l-1-3-2-4 1-2h1v2l1 3z"/><path fill="#d99f31" d="M374 429q-1 4-4 4-5 0-5-5t5-5 4 6"/><path fill="#f1bf31" d="M370 428q-2-2-1-4l3 1q2 1 1 3z"/><path d="m375 429-1 4-4 1-5-2-1-4 1-4 5-2 4 3zm-1 0q0-5-4-5-5 0-5 4t5 5 4-4"/><path fill="#d99f31" d="M399 534q0 4-5 4-4-1-5-6 1-4 5-4 5 2 5 6"/><path fill="#f1bf31" d="M394 532v-4l3 2q3 4 1 4-3 1-4-2"/><path d="m400 534-1 4-5 1-4-2-2-5 2-4 4-1 5 2zm-1 0q0-5-5-6-4 0-4 4a5 5 0 0 0 4 6l4-1zm121 135q-2 0-5-3v-3q1-2 5 1l1 3zm-1-1 1-1-1-3h-3v2zm-12-18q0-2 2-2l3 1v1h-1l-2-1z"/><path fill="#a48253" d="M520 668q-5-1-5-4h4q3 3 1 4"/><path d="m520 669-4-2-1-3h4l2 3zm-1-1 1-1-1-2-3-1 1 2zM376 432l11-26 12-15-11 15c-5 9-7 13-11 25zm0 0 1-5 10-21 12-15-11 15-9 22-2 3zm15-31a78 78 0 0 0-13 27l-1 3 1-3zm-31 6s-1 16 1 27c1 9 7 22 8 22l-2-4-6-18c-2-11-1-27-1-27m0 0q0 16 2 27 0 6 4 15l1 3 2 5h-1v-1l-8-22zm0 13 1 14 6 19v-1l-1-3-5-15zm-15 28 4 9q6 13 17 22l1-1q-11-9-17-21zm0 0 5 9a78 78 0 0 0 17 21v1h-1a70 70 0 0 1-21-31m4 9q6 12 17 21-9-7-17-21l-1-2zm26-2 15-15h1c-5 7-14 15-15 15zm0-1q10-8 15-15l11-16-10 17-15 15zm19-19a71 71 0 0 1-18 19v1zm-9 95 7-18c3-9 4-13 5-24l-4 23-6 18zm0 0 1-2 6-16v-2q4-12 4-22h1l-3 21-1 2-6 18zm9-25-1 5-1 2-6 16v1l7-18v-2zm-15-23s8-6 11-11q6-13 5-14 1 1-4 14l-11 12zm11-11q5-8 5-14h1q0 6-5 14l-12 12v-1zm-10 11 11-12h-1q-3 6-10 11m-9 39-11-9c-13-13-22-30-22-30s8 17 22 31zm0-1v1h-1l-10-9a103 103 0 0 1-22-31 119 119 0 0 0 33 38m-1 1-10-9q-8-8-16-20h-1 1a102 102 0 0 0 26 29m1 3-1-2h1zh1zm50 55-22-21-7-9 6 9q12 13 23 21m1 0h-1q-14-10-23-21l-6-9h1l6 8q9 10 23 22m21 11s-12-11-17-19l-6-12 7 12c5 8 16 17 16 18zm0 0q-12-10-17-19l-6-12a89 89 0 0 0 23 30zm-57 6c17 0 23-9 38-9l-3-1c-13 1-21 10-35 10m0 0q7 0 19-5 10-5 16-5h1l2 1q-8 0-18 5zm13-2 7-3q10-4 16-4h-1q-6 0-16 4z"/><path fill="#d99f31" d="M411 578q0 4-5 4-5-1-5-6 0-4 5-4 5 1 5 6"/><path fill="#f1bf31" d="M411 577h-4q-3-2-2-4l1-1q5 0 5 5"/><path d="m412 578-1 4-5 1a7 7 0 0 1-6-7l2-4 4-1 5 2zm-1 0a5 5 0 0 0-5-6q-4 0-4 4a5 5 0 0 0 4 6q5 0 5-4"/><path fill="#a48253" d="M424 582v1l2 1 2 1 2 1-4-3z"/><path d="m388 547-22-10c-12-6-20-14-20-14s8 8 20 14l22 9zm-1 0-21-9a74 74 0 0 1-20-15l20 13 22 10zm0 0"/><path fill="#d99f31" d="M434 595q-1 5-6 5-5-1-5-6t5-5q4 2 6 6"/><path d="M434 595q0 3-2 5l-4 1a7 7 0 0 1-6-7l2-4q1-2 4-2l4 3zm-1 0a6 6 0 0 0-5-5l-3 1-2 3a6 6 0 0 0 5 5l3-1q2 0 2-3"/><path fill="#f1bf31" d="M432 598q-3 2-5-3-2-4 1-6 5 1 5 6z"/><path d="m434 595-2 4-4 1a7 7 0 0 1-5-6l1-4 4-1 4 2zm-1 0a6 6 0 0 0-5-5l-3 1-1 3q0 4 4 5l3-1q2-1 2-3"/><path fill="#a48253" d="m379 518 1 5h-1z"/><path fill="#658d5c" d="m378 519-8-9q-6-7-7-15-3-18 11-29c1 9 6 17 7 26 1 13-7 15-1 28z"/><path fill="#a48253" d="M377 516v1l1 2 2 1-1-3z"/><path d="m377 519-5-6-2-3q-6-8-7-15-3-18 11-30l1 1 3 13 3 13q1 6-1 13l-2 6 2 9v1l-1-1-2-9 2-7q2-6 1-12l-3-12-3-13q-7 6-9 11-3 7-1 17a30 30 0 0 0 9 17l5 7q1 0 0 0zm1-3q-5-7-6-15c-3-11-3-24 0-29-3 5-4 18-1 29zm0 0-1 1a65 65 0 0 1-8-33q0-9 3-12l-2 12 2 17zm-8-27 1 12 6 15h1q-4-6-6-15zm7 29v-2h1l1 1h-1zm249-46 1-2 1-3 1 1-1 7h-1zm0 0v-1l1-3h1l1 1h1l-2 7v1l-1-1zm1 0v3l2-7h-1zm4 20 2-5-2-8 1-3-3-9 4-4q-2-4 1-8 4 1 4-1 0-6 4-7c4 1 5 9 6 10h3c3 2 0 7-1 9 7 2 1 6-1 8l3 3-1 2-7 3q2 2-1 4-7 0-10 7l-1 6zm0 0 2-5-2-4-1-4 1-2 1-1-1-2q-3-6-2-8l2-1 1-2v-3q0-4 2-5h2l2-1v-2q1-5 4-6 3 1 6 9v1h1l2 1q3 1 1 5l-2 4 3 1 1 2-3 4-1 1v1q3 0 2 2 1 1-1 2l-4 2-2 1v3l-2 1-6 3-4 4-1 5v1h-1zm1 1v1zq1-4 4-5l7-3h1v-2l-1-1h1v-1l3-1 4-2v-1l-1-1-1-2 1-2 3-3-1-1-2-1h-1v-1l2-5v-4h-4v-2q-2-7-5-8-2 1-3 5v2q-1 2-3 2h-2l-1 4v4l-2 2-1 1q-1 1 2 6l1 3-1 1-1 2 1 4 2 4z"/><path fill="#658d5c" d="m632 497-1-5h1l1-5-2-8 2-3c0-2-4-6-3-9l3-3 1-8q3 0 5-2-1-4 3-6c4 1 5 8 5 9l4 1v4l-1 4v1q2 0 2 2l-3 5 2 3c-1 2-6 4-7 5q1 2-1 3-10 2-11 12"/><path d="m631 497-1-5h1v-1l2-4-1-5-1-3 1-2v-1l-1-3-2-6 2-2 2-2v-3l1-5h2l2-1 1-2q0-4 3-4t5 7l1 2h3q2 1 1 5l-1 3-1 1 1 1 2 2-2 3-1 2v1l1 2-5 4-2 1v1l1 2-2 1q-10 2-11 11zm2-7q3-3 10-5l1-1-1-1v-1l3-2 4-3-1-1v-3l1-1 2-3-2-1v-1h-1v-1l1-1 1-3-1-4h-3l-1-3q-1-6-4-6-2 0-2 3l-1 2q0 2-3 2h-1l-1 4v4l-2 2-2 1 2 6 1 3-1 2v1l1 3 1 5zm-2 3s7-12 10-21c-2 9-9 22-9 22zm0 0q8-12 9-21l2-17h1l-2 17-9 22zm1 0q8-13 9-22zm0 12 2-2 1-2 3 1-3 2-2 4h-1zm-1 0 3-4 1-1 3 1v2l-3 2-2 4h-1v-1zm1 0v3l3-4 2-2-2-1-1 2z"/><path fill="#a48253" d="m632 508 3-4 2-2-2-1-1 2-2 2z"/><path d="M633 508v-4q-1 0 0 0l2-2 1-2 3 1v1l-3 1zm0-1 2-3 2-2h-2l-1 1-2 2zm-10-47 5 16c6 20 6 45 4 59-7 42-44 76-75 78-26 1-40 9-51 19-9 9-12 14-19 28-3 4-10 5-7-2q9-14 20-27c12-11 28-21 55-22 32-2 67-36 75-78 2-14 1-44-6-64zm0 0 6 16a159 159 0 0 1 4 59q-5 30-29 54a72 72 0 0 1-47 24q-31 2-51 20a85 85 0 0 0-19 28q-2 3-6 3l-2-2 1-4q11-18 20-28 21-21 55-22 24-1 46-24a101 101 0 0 0 29-83 125 125 0 0 0-7-34zm1 3v4q6 13 7 34 1 18-1 30-5 30-28 54a71 71 0 0 1-47 24q-33 1-54 22-9 9-20 27l-1 4 1 1q4 0 5-3l10-16 9-12q20-18 52-20 24-1 46-23a100 100 0 0 0 30-81 159 159 0 0 0-9-45m-17-13c-1 0-8-1-5-8-4-2-8-6-3-9q-2-1-3-5l2-2-4-8q5-1 9 3l2-2q3 0 4 6h5q2 3 2 8l3-1c4 1 2 8 1 11 7 0 2 7 3 14q0 4-2 4c-5-6-16-6-14-11m-1 1-3-2-2-3 1-3-5-5-1-3 2-2-1-1-2-4 2-2v-1q-4-7-3-8 2-2 9 3l2-1q2-1 3 1l1 3 1 1h4l2 6v2h2q3 0 4 4l-1 5v2q3-1 4 2l-1 5-1 7v3l-1 1h-2q-1-3-8-5l-5-2zm1-1 1 3 5 2 8 6 1-1v-3l1-7 1-5-4-1v-3l1-5q0-3-2-3h-3l-1-3-1-5h-5l-1-2-1-3h-2l-1 1h-1q-6-4-8-3-1 1 2 7l1 1-1 1-1 1 2 4 1 1v1l-2 1v3l6 4v1l-1 3 1 2zm-1 27q-4 0-6-3 0-3 2-3l-6-5 2-3-2-6c1-2 4 1 6 1l3-1 3 4 3-1q3 0 3 4c2 4 2 0 4 1 5 3 3 11 5 13l2 2 1 10 5 6v4q-1-5-6-8l-10-4v-3l-5-1q-5-1-4-7m-1 1q-5-1-5-4-1-2 1-3l-2-1-3-4 1-2 1-1-1-2-2-4q1-2 5 0l2 1v-1h3l3 3v1l1-1h1q3-1 5 4v1h4q3 2 3 9l1 4h1l2 2v9l5 7 1 2v2h-1l-6-8-6-2-4-1-1-3v-1h-4l-4-3zm1-1 1 4 3 3h5v2l1 2 3 1 7 2 5 6-1-1-5-6v-10l-1-1-2-1-1-4q0-7-3-8h-3l-1-2-3-3h-1l-1 1-2-2-2-2h-2l-1 1-3-1-3-1 1 4 2 2-1 2-1 1 3 3 2 2v1q-2 0-1 2z"/><path fill="#658d5c" d="m630 495 1 3c-8-11-13-8-15-10l-1-3c-1-1-7 0-9-5v-3l-5-2v-3l1-1-5-5 1-3q-2-3-1-5 2-2 5 1l3-1 3 3q3-1 5 1l3 4 2-1q4 5 4 12l3 3 1 2v8z"/><path d="M631 495v4l-1-1q-4-8-12-9l-3-1v-3l-2-1q-6 0-8-4l1-2v-1h-1l-4-2v-3l1-1h-1l-1-1-4-4 1-2 1-1-1-1-1-5q1-2 4 1h2l3-1 2 3 1 1h5l1 2 1 2h3q4 2 4 9l1 3 1 1 1 2 1 2v8l2 3zm-6-5v-10l-1-1q-2 0-2-2l-1-3q0-7-3-8h-4l-1-2-1-2h-3l-3-2-1-2-2 1h-3l-3-1 1 3 1 2-1 2v1l2 3 2 1v3h-1l1 1q0 2 3 2h1l1 1v1l-1 2q1 3 7 3l2 1 1 2v2h2l9 4zm7 39 3-4c2-5-1-11 4-11l2-8 4 1q0-4 3-6l3 2q0-3 3-4h3l2-1q5-5 5 1l-1 4 2 2-3 5 2 1c1 3-4 6-6 8l2 3c-2 5-9 3-11 3l-1 4c-2 2-10-1-12 0q-3 2-4 6zm0-1 3-3v-6l1-4 2-2 3-7h3l1-1 3-4 2 1h1v-1l3-3 2 1h1l1-2q3-2 5-1 2 0 2 3l-1 4v1l1 1q1 1-1 4l-1 1 1 1q2 3-3 7l-2 1v1l1 2q-1 4-8 4h-2l-1 1-1 2-7 1-5-1-2 4-1 2-1 1-1-1zm1 1-1 5 1-1 2-5 6 1 7-1v-1l1-2h3q6 0 7-3l-1-1v-3l2-1q5-4 3-6l-2-1h1l1-2q2-1 1-3l-1-2v-1l1-3-1-2q-3-1-4 1l-2 2h-1l-2-1-2 3-1 1h-1l-2-1q-2 0-2 3l-1 2h-4l-2 6v1l-2 1-1 5v5z"/><path fill="#658d5c" d="m633 529 3-4 1-5q-3-5 2-6l2-7h4q0-2 3-5l3 1 3-4 3 1 5-3q2 2 1 6-1 1 1 2l-2 5 1 2q0 3-4 6l-1 1 1 3q-4 5-10 3l-1 3c-3 2-10 0-13 1l-3 5z"/><path d="m633 529 2-4 1-5v-5q0-2 2-1l3-7 3-1 1-1q1-3 3-3h3v-1l3-2h2l1 1 1-2q3-2 4-1 2 0 2 3l-1 3 1 1v1q1 1-1 4l-1 1 1 1v4l-3 3h-1l-1 1 1 1v2q-1 4-7 4h-3v1l-1 1q-1 2-7 1l-5 1-3 4h-1zm0 1v1l2-2 6-1h6l1-1 1-2h3q5 0 6-3v-2l-1-1 2-2 3-3 1-2h-1l-1-2 1-2 1-2v-1l-1-2 1-3-1-2-3 1-2 2-2-1h-1l-2 2-1 1h-3l-2 2-1 2h-1l-2 1-3 6v1h-2v5l-1 5v1zm1-2 15-12 11-13-11 13-15 14zm0 0 5-4q7-4 10-9l10-12h1l-20 22-6 5-1-1zm13-9-13 9v1zm-11-16q-3-4 1-12c4-2 11 6 9 10q-4 3-10 2m0 0q-3-1-2-5 1-6 3-7 3-2 7 3 4 4 2 7l-5 3zm0 0h5l4-3q2-2-2-6-3-4-5-2-2 1-3 6zm10-3q-3 0-7-3-2-3-1-5 4-5 9-3 2 6-1 11m0 0h-3l-4-3q-3-4-2-6l5-3 5 1q3 1 1 6 0 4-2 5m-1-1 2-4v-5l-5-1-4 3q-1 1 2 5l3 2z"/><path fill="#a48253" d="M645 500q-3 4-9 2c-1-1-1-7 2-10 2-2 9 5 7 8"/><path d="m646 501-5 2h-5q-2-2-1-5l2-7q3-1 7 3 3 4 2 7m-1-1q1-2-2-5-4-5-5-3l-2 6 1 4h4z"/><path fill="#d99f31" d="M647 490c1 2 0 8-2 9q-2 1-5-2l-2-5q4-4 9-2"/><path d="m647 489 1 6-2 5-3-1-4-2q-3-4-1-6l4-2zm-1 1h-4l-3 2q-2 1 1 4l3 2 2 1 2-4z"/><path fill="#f1bf31" d="m645 490-1 3q0 3 2 3l1-1v-3l-1-2z"/><path d="m603 502-4-7 1-3-2-6q4-2 7 1l1-1c4 0 7 5 8 6 3 1 4-3 6 7q2 0 3 2c3 5 2 15 7 19l-1 3q-1-4-5-6c-3 0-13 2-14-3v-2c-1-1-7-2-8-6zm0 0-2-3-2-4v-2l1-1-1-1q-3-4-1-6t5 1l2 1 1-1q3-1 7 4l1 2h2l2 1 2 6 4 1 2 8q1 9 4 11v1h1v1l-1 1v1h-1l-1-2-4-3h-11q-3-1-4-4l1-1v-1l-3-1q-5-3-5-5zm1 0-1 1-1 3q1 2 6 4l3 2-1 1v1l3 3h11q3 1 5 4l1 1h-1l1-2q-4-2-5-12l-2-7-3-1h-1l-1-7h-2l-2-1-2-1q-3-5-6-4l-1 1-2-1q-4-3-4-1v4l2 2-1 1v2l2 4z"/><path fill="#658d5c" d="M629 522c-4-7-6-5-12-5q-4 0-6-3v-2q-5-2-8-6v-5q-3-3-3-7v-1l-1-7q3-1 6 1h1l5 2 2 3 4 1 2 7h1l3 1c2 5 1 15 7 19z"/><path d="m629 522-4-4-4-1h-8l-3-3v-2l-2-1q-5-2-5-5v-4l-2-3q-2-3-1-5v-1l-1-2v-5q1-2 5 1h1l1-1q3 0 5 3l3 3h1l3 1 2 6 3 2 2 7q2 9 5 12zm-1-3q-3-3-4-11l-2-7-2-1h-1l-2-6-2-1h-2l-2-2-1-1-3-3-1 1h-2v-1h-4v3l1 3v1q-1 1 1 5l2 2v5l4 4 3 2v2l2 2h8l4 1zm1 2-1-1zm0 1-14-22-12-11 12 12c6 7 12 20 12 20zm-26-33 12 11 14 22h-2v-1l-12-20zm26 32h-1zm-8 19 1 1c3 2-1 10-1 12v3l-1 4v-5l-7-2c-3-1-1-3-2-4q-6 0-8-4l1-4q-4-2-5-6l1-3q-2-2-2-6l1-1v-7l7 3 4-1 2 5 3-1q4 3 4 8h1l1 2zm0 0h1l1 5-2 6-1 3v6l-1 1v-2l-1-4-4-1-2-1q-2 0-2-3v-1l-3-1q-5 0-5-3v-4l-2-1-3-5 1-2 1-1-1-1-2-5 1-1 1-1h-1q-2-5 1-6 2-1 5 2l2 1 1-1h3q2 0 2 3l1 1h2q3 0 4 5v3-1h1l2 3v3zm0 1 1-3v-3l-1-2-1 1-1-1v-2l-3-5h-3l-1-2-1-2h-2l-2 1-2-2-5-1v4l1 2-1 1h-1l2 4 1 2-1 1-1 2 3 4 2 2v4q0 2 4 2l3 1 1 2 1 2 2 1q4 0 5 2v1-3l1-3 2-6-1-3zm22 10c0 7-8 0-13 2l-5 2 1-3h3l3-4 1-7q3-3 5-1c1-1 1-6 5-6h2l3-3 3 1q1-3 6-4 2 3 0 7l2 1q0 4-2 7l1 2c0 3-5 3-6 3v2c-1 3-8 2-9 1m1 1q0 2-2 3l-5-1-7-1-4 2-1 1v-1l1-3 2-1q3 0 4-3l1-4v-4l4-1v1l1-2q3-6 5-5l2 1v-1l2-2h3v1l1-1q4-4 6-4 2 1 1 7v1l1 1q2 2-1 6l-1 1 1 2-4 3-1 1v1q0 3-5 3zm-1-1 5 1 4-2v-2l2-1q3 0 3-2v-1l-1-1 1-2q3-3 1-4v-1h-1v-2q2-5-1-6l-4 4-1 1-2-1h-1l-2 2-1 1-1-1h-1l-4 4-1 3-2-1-2 1v3l-1 4-4 4h-2l-1 2h1l3-2 7 1 5 1zm-58 16-1-6h4q-1-5 2-6 3 0 3 3l2 3h2q2 2 1 5l3 1q2 3 0 6l2 3q-1 3-4 5 3 5-1 6-7 2-6 8 0 2-2 2v-5l-6-7 2-3q-3-1-5-6l3-3c-1-1-5-5-1-6zm0-1-1-1v-4l2-1h1l1-2 2-4q3 0 4 4v1l1 1v1h1l1-1q3 1 2 4v2l1 1h1q2 1 1 5v2l1 2q0 3-2 4l-1 1 1 4-3 3-2 1q-4 2-4 6l-1 2-1 1v-6l-3-3-3-4 1-2v-1l-1-1-3-5 2-2 1-1-1-1-2-3v-2l2-1zm1 1h-3l-1 1v1l1 2 2 2v1l-2 1-1 1 2 4 2 2-1 2v1l3 3 3 4v4-1q0-4 5-7l1-1 3-2-1-3v-2l2-1 1-3v-1l-1-2v-5h-1l-2-1v-3l-1-3-1 1h-2l-1-3v-1l-2-3q-2 1-2 3l-1 3h-2l-2 1 1 2zm9-6"/><path fill="#658d5c" d="M590 596v-4l-5-7 1-3c0-1-4-3-4-6l2-3-2-5 3-1-1-5 4-1q0-4 2-6 4 3 4 6h3q2 2 1 6l3 1v5l1 3q-1 4-3 4v2q3 3-1 5-7 2-6 8z"/><path d="M589 596v-4q1-1-2-3l-2-4v-3l-1-2-2-4 1-2 1-1-1-1-1-4 2-1 1-1v-1l-1-4 2-1h2v-1q0-4 2-4 3 0 4 4l1 2h2q2 0 2 4v1l1 1h1l1 5-1 1 1 1 1 2-2 4-2 1q3 3 1 4l-2 2-2 1-3 3-1 4-2 2zm2-1 1-5 4-3 1-1 2-1v-5l1-1 2-3-1-1-1-2 1-2v-3h-1l-2-1v-3l-1-2h-3l-1-3-2-3q-3 0-2 3l-1 2-1 1h-2v3l1 2-2 1h-1l1 4 1 1-1 2-1 2 2 3 1 3v2l2 3 2 4zm53-32q3-2 6-1c2 4-2 7-3 9l1 3q-2 4-6 3l1 2c-1 4-6 2-9 2l-2 4-4-1-5-1h-2l7-20 4 1 2-2 4 1c1 0 4-5 6 0m0-1h6q3 3-1 7l-2 2v1l2 2q-1 3-5 3l-1 1v1q0 3-6 3h-3q0 3-2 3h-5l-6-1v-2l7-20 2 1h2l1-1v-1l4 1h2l3-2q2-1 2 2m0 1-2-2-2 1-2 1h-2l-2-1v1l-2 1h-2l-1-1h-1l-6 20h1l4 1h5l1-2 1-1h3q6 1 5-2v-2l2-1q4 0 4-2l-1-1-1-2 2-2q4-4 1-6zm-34-1-2 2 5 5v-2zm3 5v2l-5-5 1-2h1q0 3 3 5m-4-4 4 4zm-1-9v2l-1 2q-3 3-7 2c-1-2-4-10-2-12q6-1 10 6m0-1v3l-1 2-3 2h-4l-3-6q-1-6 1-6 2-2 5 1zm0 1-5-4q-3-3-5-2v6l2 5h3q3 0 3-2l1-1zm-8 2 2-2q4-2 7 0c2 2 3 8 0 10q-5 2-10-5zm-1 0 3-2q4-3 7-1l2 6-1 5h-6l-5-4zm1 1v2l4 4h5l1-4-2-5q-1-2-5 1-2 0-3 2"/><path fill="#a48253" d="M603 555q3-3 5-1 4 6 1 9t-9-4q-1-2 3-4"/><path d="M602 554q4-3 7 0l2 5q0 4-2 5h-4q-3-1-6-5l1-2zm1 1-2 2-1 2 5 4h4l1-4-2-5q-1-1-5 1"/><path fill="#d99f31" d="M607 553c1 3-4 7-7 6-1-2-3-8-2-10q6 0 9 4"/><path d="M608 553q2 3-3 5-3 3-5 2l-3-6 1-6 5 1zm-1 0-4-3-4-1v5l1 5q2 1 5-2z"/><path fill="#f1bf31" d="M600 549h-1l-1 1 4 2 5 2v-1l-2-1-2-2z"/><path fill="#466343" d="m623 583 8 1 3-3q5 1 8-2v-2s5 0 5-3l-1-3c1-1 5-5 3-8h-5l-2-2-4 2-3-1-3 2-4-1-7 20z"/><path d="M623 583h-2l7-21 4 1 1-1 2-1 2 1h2l3-2 2 2h6q2 3-2 8l-1 1v1l1 2q0 3-5 3h-1v1l1 1q-1 3-8 3h-1l-2 3-5-1zm0-1 4 1 4 1 2-2 1-1h1q7 0 7-2l-1-1v-1l2-1q4 0 4-2l-1-1v-2l1-2q3-4 2-6h-6v-1l-1-1-2 1-2 1h-2l-1-1-1 1-2 1-3-1zm4-7 10-4 9-6v1l-9 6zm-42 28 4-1 1 1 1-2h-4zm0 0 2-2 5 1-1 2h-6m1-1h3l1 1 1-1-4-1zm-17 21q-1-2 2-6 4-3 6-1l3 5-1 5h-5zm1-1 4 3h5v-4l-3-4q-1-2-4 1t-2 4m-4-8-4-3v-1h2l2 1 2 2zm0 0-3-3-1-1 1-1h2l2 1v1h1l1 1v1zm0-1 1-1h-1v-1h-1l-1-1h-2v1zm-1-1 5-1 7 4v4l-2 3q-4 3-7 1l-3-6zm1 1v4q0 3 3 5 1 2 5-1l3-3-1-2-6-4z"/><path fill="#658d5c" d="m624 556 6-3c4-2 11 2 13 0v-2c1 0 8 2 9-1v-2l5-3-1-2q3-2 3-6l-2-2q1-5-1-7l-6 4h-2l-3 3-2-1c-3 0-3 5-5 6h-3l-3 8-4 4h-2z"/><path d="M625 557v-1l2-4h2l4-4 1-4q0-4 2-5l2 1h1l1-3q2-4 4-4l2 1v-1l3-2 1 1h1l2-1 4-3 2 2v4l-1 1h1l1 1q1 3-2 6v2l1 1-4 3h-2v2q1 3-8 2h-1v2h-5l-8-1zm1-3 3-2 9 1h4v-1l1-1h1l7-1v-2l2-1 4-2-1-1v-2q3-4 2-5l-1-1-1-1 1-1v-4l-1-1-4 3-1 1h-2l-1-1-2 2-1 1h-1l-1-1-3 4-2 3h-2l-1-1-1 5-1 3-5 5h-1z"/><path fill="#a48253" d="m561 611 3 2h3l-1-1-2-2z"/><path d="M561 612h1l3-1 3 2v1h-3zm4 0-1-1h-2z"/><path fill="#a48253" d="M566 614q4-3 10 3 2 3-1 5-4 3-6 1-4-7-3-9"/><path d="M566 613h5l5 3q2 1 1 4l-2 3q-4 3-6 1l-3-6zm1 1v4q0 3 3 5 1 1 4-1l2-3v-2l-5-3z"/><path fill="#d99f31" d="M570 624q-1-3 2-5l4-1q4 5 3 8-5 2-9-2"/><path d="M569 624v-3l3-3 2-1 3 1q5 5 2 9h-5zm1-1 4 3h4q2-2-2-8l-4 1-1 3z"/><path fill="#f1bf31" d="M576 619q-3 1-2 4l1 3h3v-4z"/><path fill="#a48253" d="m627 475 2-7 1-2h-3l1 1q0 5-2 5z"/><path d="m628 475-1-3 1-5v-2l3 1v1l-1 1zm-1-2 2-6-1-1v1z"/><path fill="#658d5c" d="m624 469-3-8-6-4q-6-2-7-5l-1-2q-5-1-5-5v-3q-3-2-5-6l2-3-3-4 2-3c0-1-4-6-2-8q5 0 7 3l3-1 3 5h4q3 5 3 8l4 1v9l3 1c2 3-1 7 0 12v4z"/><path d="m625 469-4-8-5-4-2-1q-5-2-6-4v-2q-6-2-5-5v-3q-5-3-5-6l1-2v-2l-2-4 1-1 1-1-1-1q-3-6-1-7t6 2l1 1 1-1h3l2 3v1l2 1h3l2 6v2h4l1 8v2l2 1 1 7-1 5 1 4zm-2-4v-5l-1-4 1-6-1-5-1-1-1-1v-2l-1-7h-1l-3-1v-2q0-4-2-5h-2l-3-1v-2l-2-2h-4q-4-3-5-2-2 1 1 5v4l-1 1 1 2 1 1v2l-1 2q0 2 5 5v4q-1 3 4 4v1l1 1v1l5 3 2 1 6 5zm-16 163 2 4q1 3-2 3l-3-1-4 2q-4-2-6-6l-4 1q-3-4-4-9-1 1-4-1l-4-10-7-2 3-1 1 1 16 2q3 2 2 3 5 0 8 3 2 3 0 4h1l1 1 4 2zm0 0 1 1 2 3v3l-3 1-1-1-2-1-1 1q-2 2-3 1-2 0-5-4l-1-2-2 1h-2q-3 0-4-6v-2h-1l-3-1-2-6-2-4-7-2h-1v-1h1l3-1h1l11 2 5 1 2 2h1l1 1 6 2q2 2 1 3v1l1 1 4 3zm-1 0 1-2-1-2-3-2-2-1h-1l1-1v-3l-6-2h-2v-1l-1-1-1-1-5-1-12-2h-1l5 2 3 5 1 5 3 1h1l1 3 3 5h2l2-1v1l2 2q1 3 4 3l3-1 1-1 2 1 1 1 2-1v-2l-2-2z"/><path fill="#466343" d="m574 609 17 3q2 0 2 2c2 1 10 2 8 5v2l6 3-1 4c2 2 6 8-1 6-3 0-4 4-9-1l-2-3h-4q-3-3-4-7l-4-2c-3-3 1-10-10-11z"/><path d="m574 609 15 2h2l2 2v1h2l5 2 2 1v2l-1 1 2 1 4 3v3l-1 1q3 2 3 5v2l-5-1-1 1q-4 2-7-2l-2-3h-2l-2 1-3-6-1-2-1-1-3-1-2-4-1-5-7-2h-1l1-1zm3 1 2 2q2 1 2 5l2 4h2l2 1 1 3q0 4 2 5l2-1h2l2 2 1 1q2 4 5 2l3-1 3 1v-1l-2-5v-3l-4-3-2-1v-1l1-1v-1l-1-1-5-2h-2l-1-2-1-1h-2zm-4-1 17 8v-1c-6-4-16-7-16-7zm0 0q10 3 16 7l13 12-13-11zm18 9-1-2-16-7zm9-16c3 3-1 10-4 10-5-2-8-8-7-10 1-3 8-4 11 0m1-1v7q-2 6-5 4-5-1-6-5l-2-6 6-2zm-1 1q-2-3-6-2-4 0-5 2l2 5 5 4 4-3zm-5 9-1-4 1-3q3-4 5-3l5 5 1 5q-1 3-6 2zm5 1 5-1-1-5-4-4q-3 0-4 2l-1 4 1 2z"/><path fill="#a48253" d="M600 602c2 3-1 9-4 9q-7-4-6-9c1-2 7-3 10 0"/><path d="M600 601q3 3 0 7-2 5-4 3-4-1-6-4l-1-5q1-2 5-2 5-1 6 1m0 1q-2-2-6-1l-4 1 1 5q2 3 5 3 1 2 3-3 3-3 1-5m17 8-3 1q-4-2-6-7h-3l-5-7q-3-1-7 1l4-3c4 2 7-5 11-4l3 1q5-1 11 1c2 1-1 3 2 3q3 0 5 3v3c1 1 7 3 4 5q2 2 2 5-4 2-6 0v2q-4 0-6-3-3 6-6-1m0 1-3 1-5-5-1-2h-3l-2-3-3-4h-8v-1h1l3-2h1q2 1 5-2 4-3 7-2h1l1 1h11l1 3v1h1q5 0 6 3l-1 2v1h1l3 2 1 2-1 1 1 2q3 1 1 4h-6v1q-1 2-5-1l-1-1-1 2h-2zm-1-2 3 3h1l1-2h1l2 1 3 2v-1l1-1h5q1-1-1-3l-1-2 1-1v-1l-4-3h-1l1-1v-2q-1-2-5-2l-2-1v-1l-1-2h-10l-2-1h-1q-2-1-5 2l-6 2h-1 1l4 1 3 4 1 3h3l2 3 4 4z"/><path fill="#658d5c" d="m601 597 4 7h3c1 1 2 6 7 6l2-1 3 4 3-2 5 2 2-1h4q1-3-2-5l1-1-4-4v-3q-2-2-5-2c-3 0-1-3-3-4l-10-1-3-1-8 5z"/><path d="m600 598-1-2v-1l3-1q5-4 6-3l3 1h11l1 3v1h1q5 0 5 3v3l1 1 3 3v2l2 4-4 1-1-1-1 1-1 1-4-2-1-1v1l-3 1-3-3-2 1q-4 0-6-5l-1-2h-3l-2-3zm1-1 3 4 1 2h3l1 2q3 5 6 5l1-1h1l3 3 2-1 1-1 2 1 3 2v-1l2-1 1 1h3l-2-4v-2l-2-3-2-1v-3q0-2-4-2h-2v-2l-1-2h-11l-2-1-6 2zm-1-1s10 0 16 3l13 9-13-9c-7-2-17-2-17-2zm0-1 16 4 13 9v1q-8-8-14-9l-16-3v-2zm18 6-2-1q-6-3-16-4zm-28-6 2-22-1-14 2 14-2 21zm0 0a143 143 0 0 0 1-36l2 14-2 21zm2-22-1 21zm-12 20 2 4q-2 2-6 2v4h-7q1 3-1 5c-3 1-10-2-14 0l-2 2h-7q7-1 10-4v-8c1-3 3-1 4-2l2-7 5-1c2-2 0-5 3-6l4 2 6-3q2 2 1 6 5 2 0 6m1 0 1 4q0 2-3 2h-3v4l-5 1h-2l1 1q1 3-2 3h-14l-2 2h-8l1-1h2q7-1 7-3l1-5v-3q0-3 3-2h1v-2l2-6h3l2-1 1-2q0-3 2-4l4 2 2-1q1-2 4-1 3 0 2 5l1 2 1 2zm-2 0 2-4v-1l-2-1v-1l-1-4q-1-1-4 1l-1 1h-2l-3-2-1 3-1 3-3 1h-3l-1 5v2l-2 1-2 1v4l-1 5h13l1-2v-2h6v-4l3-1 3-1-1-3zm-26 15-3 1h2z"/><path fill="#658d5c" d="M546 610s8-3 9-5l2-8 3-1 2-7 5-1c1-1-1-4 2-6l5 2q1-2 5-2 2 1 1 4l2 3-2 4 1 3q-2 3-5 2-2 2-1 4l-6 1-1 4c-2 1-9-1-10-1l-6 2z"/><path d="m546 610 4-1 6-3v-4q0-4 2-4l1-1h1v-2l2-6h5l1-3q0-3 2-3l3 1 1 1 2-1 4-2 2 2-1 2v1l1 1 1 2q1 2-2 4l1 1 1 3q0 2-5 2h-1l-1 1v2l-4 1h-2v1l-1 3h-10l-6 1-3 1zm9-4h6l6 1 1-3v-2h6v-2l1-2h2l4-2-1-2h-1v-1q3-3 2-4l-1-1-1-2v-1l1-2-1-1-3 1-2 2-2-1-3-1-1 3-1 3h-5l-2 5v3h-2l-1 1-1 3zm0 0s10-6 15-12l7-8-7 9c-5 6-15 12-15 12zm22-19-6 8-15 12h-1v-1a61 61 0 0 0 22-20zm-21 19 11-9zm73-54q7-3 16-10l9-9-9 10-16 10zm0 0q11-4 15-9l9-9q-4 7-9 10-5 5-16 10zm13-7-12 7h-1q8-3 13-7"/><path fill="#466343" d="m621 556-1 3q1-6-5-6l-2-1q-2-1-1-3-5-1-8-4v-4q-4-2-5-6l2-3-3-6 2-1v-6l6 3 4-1 3 4 2-1q3 3 3 8h2l1 9h1q2 3 1 6z"/><path d="M621 556v3h-1l-1-4-4-2h-2l-2-1v-3l-2-1-6-3 1-2v-2l-2-1q-4-3-3-5v-2l1-1-1-2q-2-3-1-4l1-1v-6q3-1 5 1l2 1h2l2-1 2 3 1 2v-1h2q2 0 3 5l1 3h1q2 1 1 6v2l1 1h1v8zm-1-1 2-6v-7l-2-1v-8h-1l-1-1-1-3q0-4-2-4h-3l-1-2-1-2-2 1h-2l-2-1q-3-2-4-1v5l-1 1v1l1 3 1 2-1 2v1q-1 1 3 4l1 2 1 2-1 2q1 2 5 2l3 2v2l1 1h2q4 0 5 2zm1 1c0-1-3-13-7-20l-12-14 11 14c4 7 7 19 7 19zm0-1h-1v-1q-3-12-7-19l-11-14 12 14q4 7 7 19m-6-17 5 17h1zm12-45-13-19-14-13s9 7 13 13zm1 0-1-1-13-19-13-13 14 13zm-17-22 3 3 12 19h1z"/><path fill="#a48253" d="M624 464a140 140 0 0 1 8 71c-8 42-45 75-75 77a75 75 0 0 0-64 35l-8 13h-5v-1l1-1 8-13 12-14q15-18 54-22c32-1 68-36 75-78q5-23-6-65z"/><path d="M625 464a127 127 0 0 1 8 44q2 16-1 27-5 30-29 54a71 71 0 0 1-46 23 77 77 0 0 0-67 42l-5 6v1h-1l-2-1h-2v-1l1-2 4-6 4-6 11-14q21-21 55-22 24-2 46-24a102 102 0 0 0 29-82 162 162 0 0 0-7-37l1-3zm-1 1v1a164 164 0 0 1 6 65q-4 31-28 55a71 71 0 0 1-47 24 80 80 0 0 0-65 36l-4 6-4 6-1 1h4l8-13 12-15q19-18 52-20 24 0 46-23a99 99 0 0 0 29-80 168 168 0 0 0-8-43m-1-4-8-18h-1q7 12 10 24zm0 0 1 6v1-1a125 125 0 0 0-24-44v-1l15 21zm-12-24 12 27v-3z"/><path fill="#a48253" d="m625 468-1-2-1-4 1 3z"/><path d="M626 538c-2-2-7-7-7-10q1-3 3-2c0-2-4-5-3-8l5-1q-2-4 0-10h3v-3q0-2 3-3l5 6 2-1c3 0 2 8 2 10h2c3 3-3 12-4 14 1 1 4 1 1 4l-5 5zm-1 1q-7-8-7-11 0-2 3-3v-1q-3-4-2-6l3-1 1-1v-3l1-6 2-1h1v-2q0-3 3-3 2 0 5 5h1l2 1 1 2v6l3 1q2 2-3 12l-1 2 2 2-2 2-3 4-2 2zm1-1 6 1 2-2 4-3 1-2-1-1-1-1 1-3q5-9 3-10h-2l-1-1v-9h-4v-1l-4-4q-3 0-2 2l-1 3h-3v10l-2 1-2 1q-1 1 1 5l2 2h-2l-2 2q0 3 7 10"/><path fill="#658d5c" d="M627 546q2-5-2-8l-6-10c1-3 3-1 3-2q-2-3-2-7l4-2v-10h3q0-2 3-5l5 5h3v9l3 1c2 2-2 9-3 12v5q-6 5-9 12z"/><path d="M626 546q2-5-1-8l-4-5q-3-2-2-5 0-2 2-2h1l-1-2-2-6 3-1h2l-1-3 1-7h3v-1q0-4 3-4 2 0 4 4l1 1h3l1 9h2q3 3-3 13v5l-2 3q-6 6-6 9h-1q0-4 6-10l3-3-1-1v-3q6-11 3-12h-2v-1l-1-8h-2l-1-1-4-4q-2 0-2 3v2h-3l-1 6v3l-1 1-3 1 2 5 1 2-2 1-1 1 2 5 4 5q4 3 1 9zm4-2 2-19v-15 15l-4 22zm0 0-1 3h-1l4-22-1-15h1l1 15zm2-22v3l-3 21 1-2zm-31 66c1-3-1-11 1-12h3c2-2 0-8 2-11h5l5-6 4 2c2 0 7-6 10-4q3 3 0 8l2 4-3 4 3 4q-3 4-7 4v5q-5 2-8 1l-1 5c-2 2-9 0-13-1q-5 0-7 4zm0 0v-13h4v-4l2-6h5l1-2q1-4 4-4l3 1h1l3-1q5-4 7-3 3 3 1 7l-1 2 1 1 1 3-1 3-1 1 1 1 1 3q0 3-4 4l-3 1v5h-8v2l-1 4h-8l-5-1q-4 0-7 3h-1v-1zm1 1-3 3 5-1 5 1h7l1-3v-3h8v-3l1-2 2-1 4-3-1-2-1-2 1-2 1-3-1-1-1-2 1-2v-6q-2-1-7 3-1 2-3 1h-2l-2-1-3 3-1 2-3 1h-2q-2 1-2 6v4h-4z"/><path fill="#658d5c" d="m596 592 5-2 1-5v-9h4c1-2-1-8 1-10l6-1q1-3 4-5l4 1c2 0 6-5 9-3q3 0 2 3l-2 4 2 4-2 4 2 4c0 3-6 3-7 4v5h-8l-1 5c-3 3-14-3-19 3z"/><path d="m596 592 4-3 1-5v-1q-1-7 1-7h1l2-1 1-4 1-6h5l1-2 3-4 4 1 1 1 3-2q4-3 7-2l1 4v2l-1 2 1 1 1 3-2 3-1 1 1 2 1 2q0 3-4 4h-2v2l-1 3q0 2-5 1h-2l-1 2-1 3h-7q-9-1-12 2v1-1zm1 1q4-2 12-2h7v-2l1-3h7l1-3v-2l3-2q3 0 3-2l-1-2-1-2 1-2 2-3-1-1-1-2 1-2v-2l-1-3-5 2-4 2-2-1-2-1-3 3-1 3h-5l-1 5-1 5-3 1h-1v8l-1 5zm0 0s12-9 19-17l1 1-18 15zm0 0 19-17 12-15h1l-12 16-18 16zm1-1h1z"/><path fill="#a48253" d="M596 593h2zh-1z"/><path fill="#d99f31" d="M596 610v-6l4-2q6 4 5 9c-2 2-8 1-9-1"/><path d="m595 611-1-3 2-4q1-4 4-3l4 5q3 3 1 5 0 2-5 1zm1-1 4 1 4-1q1-1-1-4l-3-3q-1-1-3 2l-1 3z"/><path fill="#f1bf31" d="m601 603-1 1q-2 2 1 5l3 2v-1q1-1-1-4z"/><path d="M628 469q-4-3-3-11c2-4 11-1 11 4q-3 7-8 7m0 0-3-4v-7q0-3 6-2l4 2 1 4-3 6q-2 2-5 1m0-1q2 1 4-1 3-2 3-5l-1-3-3-2q-5-1-5 1v7zm7-8q-1 4-5 2-3 0-4-4 2-8 6-7 5 2 3 9m1 1q0 2-3 2h-3l-3-2-2-3 3-6 4-2q3 1 3 4zm-1-1-1-6q0-2-2-3-2 0-3 2l-3 5 2 2 2 2h3z"/><path fill="#a48253" d="M629 468q-4-2-3-9c1-4 9-1 9 3q-2 6-6 6"/><path d="m628 468-3-3v-7q2-3 6-1 5 2 5 5l-3 5q-3 2-5 1m1-1q1 1 3-1l3-4q0-3-4-4-4-2-5 1v5z"/><path fill="#d99f31" d="M632 451q4 2 3 9-1 3-5 1l-4-3q2-7 6-7"/><path d="m632 451 3 3 1 6q0 2-3 2h-3q-5-2-5-4l3-6zm0 1-3 1-2 5 3 3h3l2-1-1-5z"/><path fill="#f1bf31" d="M632 452v3l2 4 1-1-1-3z"/><path d="M480 661q-1-1 1-3t5-1l1 1v1l-2 3-3 1zm1 0 1 1 2-1 2-2v-1q-3-1-4 1z"/><path fill="#a48253" d="M480 661q0-4 5-3 2 1-1 3z"/><path d="M480 661v-3l5-1 1 1 1 1-2 3-3 1zm1 0 1 1 2-1 2-2-1-1-4 1zm13-15-2-2h-2v-1h3zm-2 2-1-2h-3q2-2 3-1 2 1 2 3z"/><path fill="#fff" d="m502 643 22 1c-2 6-5 16 8 19 11 1 21-3 31 4 23 15 39 9 53-5 0 0-10 1-20-1 0 0 7-5 8-14q-10 5-20 3l-21-9 2-10q2-8-7-11c-15-4-29 2-56-2-27-5-45-17-60-17q-9 0-7 8l2 11-20 3q-10-1-21-9c1 9 8 16 9 17-11-1-21-5-21-5 14 18 30 28 53 20 10-3 21 4 31 6 13 2 10-9 8-16z"/><path d="m431 631 7-1v1zm1 4v-1l7-2v1zm36 11-15-4a32 32 0 0 0-20-1h-1v-1h1q10-3 20 0zh6q1-1 0 0-2 3-6 1m-37-18 7-1h1v1zm-1-3h1l7-1h1l-1 1zm38 16-10-3-1-1h1l10 3h4l-1 1zm-16 3a32 32 0 0 0-19 0v-1q13-2 20 0l14 5 1 1h-1zm16-1-20-6h-1l1-1zh5l1 1zm-35-5-1-1 9-2 1 1h-1zm136 15-7-3v1zm-1 3q2 1 0 0l-7-4v1zm-35 1h14a37 37 0 0 1 21 6v-1h-1q-9-6-20-7h-15l-6-2q0-1 0 0 2 4 7 4m36-7-7-4h-1l1 1zm1-3-7-3v1zm-37 4h9l1-1h-11l-3-1h-1l1 1zm15 8a37 37 0 0 1 19 7v-1q-13-7-20-7h-14l-1 1 1 1zm-15-5h20l-1-1-20-1-5-2-1 1zm34 5-9-5v1zm-67-17q-15-3-29-9c-24-8-29-6-29-2q0 3 2 2l1-1-1-1c1-3 6-4 27 3q14 6 29 8m0 0q15 2 29 1c24 0 29 4 29 8l-2 1-1-1 1-1c-1-4-6-6-27-6zm0-1 25 2h4q17-1 23 2 7 2 6 6l-1 2-1-1-2-1 1-1h1q-1-6-27-5h-3l-26-2-26-7-3-1q-25-9-27-4l1 1 1 1-1 1-2-1-1-2q0-4 6-4 7 0 23 6l4 1q16 6 25 7m30 3q26 0 27 6l-1 1v1h1v-1q1-3-5-5t-22-2m-60-11-22-5q-5 0-5 4l1 1v-1l-1-1q1-6 27 2m-33-14-11 2q-15 3-29-7a28 28 0 0 0 8 15v1l-19-4q21 29 51 19c11-4 20 3 31 5s10-5 8-15l1 1c2 6 5 19-9 16-11-3-20-10-31-7q-24 10-43-9-6-5-10-11-1-1 0 0l19 4q-6-8-7-16v-1c8 6 11 8 21 9 5 1 16-3 19-2zm0 1-11 1q-16 5-28-6a28 28 0 0 0 7 14l1 1-1 1-18-4q12 14 22 18 13 4 28-1h10l10 3 11 3q7 2 8-3 2-3-1-12h2v1q3 7 2 11-2 8-11 5l-10-3-10-3h-11q-13 5-22 2-10-2-22-11l-10-11v-2h2l16 4-4-7-2-8 1-1h1l9 6 11 3 10-2 10-1zm29 31h2q9 2 10-4l-1-11h-1q3 8 1 11-2 6-9 4zm-53-30-7-2-8-5q8 6 15 7m-12 4 2 4-19-4 1 2v-1h1l18 3zm-4-12 2 8 1 1zm167 28 10 5q16 8 29 1a20 20 0 0 1-8 13l1 1q9 2 18 1-21 23-51 4c-11-7-20-3-31-4-11-3-10-10-7-18h-2c-2 5-5 17 9 19 11 1 20-3 31 4 17 10 29 12 44 3l9-8v-1q-10 1-19-1 7-5 8-14l-1-1c-8 4-11 5-20 4-6-2-17-9-20-9zm-1 0 1-1 9 4 11 5h10l9-3h2v1l-2 8-4 6h16l2 1v1q-3 4-10 8-11 8-21 6-11 0-23-9l-11-4h-20q-8-1-11-8l2-12h2v1q-2 8-1 11 1 5 8 6h11l10 1q6 0 11 3 15 11 27 9 11-1 22-11l-17-2h-1v-1l3-3 5-9q-13 7-29-2zm-28 21h-3q-7-1-9-7-2-3 1-11l-2 11q2 6 10 7zm68-16a21 21 0 0 1-8 13q11 3 18 2h1v1l1-2q-6 2-19-1l5-7 2-7zm-17 3q8 1 17-2l-9 2zm-87-32q-20-4-33-10-11-6-24-7-9 0-7 8l4 22q1 6 6 5c6 0 23-1 28 5q4 9-6 8v-1q9 2 6-6c-4-6-20-5-27-5q-7 2-8-6l-4-23c-4-16 24-4 32-1q16 7 34 11l34 1c8-1 35-4 32 12l-4 21q-1 6-8 4c-7-3-23-9-27-5q-3 6 6 8v1q-10-2-6-10c5-4 22 3 28 5q5 2 6-3l4-21q2-9-7-10-13-3-24-2-13 2-33-1zm0 0q-14-2-33-10-17-6-24-6l-5 1q-3 1-1 6l1 9 2 13q1 5 6 5h2q22-1 26 5 3 4 1 7-2 2-7 1l-1-1h1l6-1q1-2-1-5-3-6-26-4l-6-1-3-6v-2l-4-20q-1-7 2-9l10-1 20 7 1 1 34 10q16 2 34 1h21q7 1 10 4t2 9l-4 20v1l-3 5-6-1q-22-8-26-5-2 3-1 5l6 3 1 1h-1q0 2 0 0-5 0-7-3-2-4 1-7 4-5 26 4h2q5 2 6-2l2-13 1-8v-7l-6-3q-7-2-24-1-20 1-33-1zm54 1 5 1q5 1 6 4 3 3 1 7v2l1-3q1-4-2-7t-9-4zm-106-18h-11q-2 3-2 7l1 3v-2q-2-4 1-7l6-2zm114 54-4 1h2zm-122-20 2 1 2 1zm19-11-5-1-1-14h3l1 12 3 1 3 1v2zm7 2-1-14 4 1 1 14zm11-4q3 1 2-1l-3-2zm0 5 1 1 3-1-3-3h-1zm2 4-6-2v-14l5 2q5 1 5 5l-1 2 2 4q1 5-5 3m13 4-5-2v-14l7 3 1 1v1l-5-1v3l5 1v3l-5-1v2l3 1 3 1v3zm11-5q3 0 3-2t-3-2l-1-1v4zm8 8-6-4-1-2h-2v5l-3-1v-14l5 1q5 1 5 5 0 3-2 4l1 1 3 2zm0-11v-3l12 1v2h-4v11h-4v-11zm19 0-1 5h3zm4 11-1-4h-5l-1 4h-4l4-11h-1v-3h9v3h-1l4 11zm9 1-4-2 1-2 3 1 3-1-1-1-3-2q-3-1-3-4 1-4 5-4l5 2-1 2-4-1-2 1 1 1 3 2 3 4q-1 5-6 4"/></svg>