<svg xmlns="http://www.w3.org/2000/svg" viewBox="0 0 1000 1000"><path fill="#0f47af" d="M8 195c171-85 341-54 513-28 155 24 312 45 471-34v672c-171 85-341 54-513 28-155-24-312-45-471 34z"/><path fill="#fff" d="M8 419c171-85 341-54 513-28 155 24 312 45 471-34v224c-171 85-341 54-513 28-155-24-312-45-471 34zm491 141-9-4-13-9-3-1q1-2 5-2 3 0 4 2 4 3 16 7 13 1 16-2l4-1 6 4h-3q-3 3-13 5z"/><path d="m490 556-13-9-3-1h-1 1q3-3 5-2l3 1 1 1h2q7 6 14 7a28 28 0 0 0 16-3h4q3 0 6 4h-3l-2 1a34 34 0 0 1-21 5zm9 3h10l12-5h3l-5-4h-2l-2 1h-1q-8 3-15 2l-14-6-2-1-1-1-3-1-5 2 3 1 1 1a50 50 0 0 0 21 11"/><path fill="#fff" d="M475 549h-1l-1-1 1-2 3 1h-3z"/><path d="M475 549h-1l-1-2 1-1 3 1h-2zm0 0-1-1h2l-2-1v3z"/><path fill="#fff" d="m477 547 2 2h-4l-1-2z"/><path d="m477 547 2 2h-5l1-1-1-1zm0 0h-2v2h4z"/><path fill="#fff" d="M524 557v-2l-2-1h3v3z"/><path d="M524 557v-2l-3-1h4v3zm0 0v-3h-3l2 1v2"/><path fill="#fff" d="m522 554 2 1v2l-5-2z"/><path d="m522 554 2 1v2l-5-2zm0 0-2 1 4 2v-2zm-41-8-1 3h3l-1-3zm1 0 1 2-2 1zm1 5 1-4v1zm3-3-2 1 1 3q1 1 2-1zm-1 1v2l-1 1zm4 2h-1zl1 1-2 1v-2l1 1q0 1 0 0v-2zm2 1v3h1v-2h1l-1 2-1 1-1-2zm4 6-2-4v3-4l2 3v-2h1zm1 0v-4h1zm2-3-1 1 1 2 2-1zm0 0 1 2-1 1-1-2zm5 4-2-3v3h-1v-4l3 3-1-3h1zm2 0-1-4h1zh1v1zm1-1v-3zm1-3 1 3 1-1-1-1v-1zm0 0h-1zm4 0h-1v1h1v1h-1l-1-4h1l-1 1v1zm1-1 1 3v-1l1 1-1-2zm0 0v1zm0-1h2-1l2 3h-1l-1-3zm3-1v4h1v-1l1-1v1h1zm3-1 1 4 1-1v-2zm0 0 1 1-1 2z"/><path fill="#e60000" d="m472 557-1-1 1-1z"/><path d="M472 557h-1v-1l1-1zq0 1 0 0m0 0v-2l-1 1z"/><path fill="#e60000" d="m467 564-1-1 1-1 1 1z"/><path d="M467 564v-1h1l1 1zm0 0 1-1-1-1-1 1z"/><path fill="#e60000" d="m456 540-1-1 1-1 1 1z"/><path d="M456 540v-1l1-1 1 1zm0 0 1-1-1-1h-1v1z"/><path fill="#e60000" d="m449 543-1-1 1-1 1 1z"/><path d="m449 543-1-1v-1h1l1 1zm0 0v-2h-2v1z"/><path fill="#e60000" d="m448 518-1-1 1-1 1 1z"/><path d="M448 518q0-2 1-1l1 1zm0 0 1-1-1-1-1 1z"/><path fill="#e60000" d="m442 519-1-1 1-1z"/><path d="M442 519v-1l1-1h1zm0 0v-1h-2v2z"/><path fill="#e60000" d="m445 497-1-1 1-1z"/><path d="m445 497-1-1v-1h1zm0 0-1-1-1 1z"/><path fill="#e60000" d="m440 476-1-1 1-1z"/><path d="m440 476-1-1 1-1zm0 0-1-1h-1v2z"/><path fill="#e60000" d="m446 479-1-1 1-1 1 1z"/><path d="m446 479-1-1 1-1 1 1zm0 0v-2h-1l-1 1z"/><path fill="#e60000" d="m453 463-1-1 1-1 1 1z"/><path d="m453 463-1-1v-1h1l1 1zm0 0 1-1-1-1h-1v1z"/><path fill="#e60000" d="m448 457-1-1 1-1z"/><path d="M448 458v-2h1l1 1zm0-1-1-1-1 1z"/><path fill="#e60000" d="m458 447-1-1 1-1z"/><path d="M458 447h-1v-1l1-1v1zq0 1 0 0m0 0v-1l-1 1v1z"/><path fill="#e60000" d="m438 496-1-1 1-1z"/><path d="M438 496v-2h1v1zm0 0h-1v-1l-1 1zm34 66v-5h1-1zm-1 1h-3v1h-1l1-1zm-16-19 1-4 1-1-1 1zm-3-1-2-1-1 1 1-1zm-3-26-2 4-3-3h-1 1l3 3zm-12-21h1l3 3 4-2h1-1l-4 3-3-4zm3-21 1 1 1 4 3-2 2 1h-2l-3 2v-1l-1-4zm7-18 1 5h3v1h1-1v-1h-3l-1-4z"/><path fill="#1f601a" d="m516 590-5-1-2-4c-1 0-10-7-16-9l-18-10c-10-8-21-20-24-25l-6-23c-1-2-4-14-4-22l2-21 1-1-2 24c0 5 3 22 8 36 4 10 7 12 13 19l12 11c5 4 14 8 17 9l17 9z"/><path d="m516 590-5-1-1-2-1-2-6-4-10-5-18-10a118 118 0 0 1-24-25l-7-23v-2l-3-20 2-21q0-4 5-14l9-14q-11 19-13 27-3 10-2 24l2 14 6 22 4 9 6 6 3 4 12 11 17 9 17 9zm-1 0q-3-5-7-8l-16-9-17-9-12-11-4-4-5-6-4-9-8-36q-1-13 2-24l5-12-6 13-2 21 3 20 1 2 6 23 10 11 22 18 10 5 10 6 6 4 1 2 1 2z"/><path fill="#1f601a" d="m452 541-1-6v-9l1-3v-2l2 4 1 4v6l-2 3z"/><path d="m452 541-1-6v-9l1-3v-2l2 4 2 4-1 3v3l-2 3zm0 0 1-2 2-3v-6l-1-4-2-3v1l-1 3v9z"/><path fill="#1f601a" d="m452 540-3-8-1-4q-2-1 0-6l1-2 2-4v15z"/><path d="m452 540-4-8v-4q-2-3-1-6l1-1 1-2 1-1v-2h1v15zm-1-1v-22l-1 1-1 2-1 1v7l1 4z"/><path fill="#1f601a" d="m487 571-3-1-4-1-3-4-3-6h2l4 3 3 4 2 2z"/><path d="m487 571-3-1-4-1-3-4-3-5v-1h3l3 3 3 3v1h1l1 2zm0 0-2-3-1-2h-1l-3-4-4-2-2-1v1l3 5 3 4 4 1z"/><path fill="#1f601a" d="m491 574-10-8-4-5-3-6c0-2 4 0 4 1l5 3 3 4 1 5z"/><path d="m491 574-7-5-3-3-2-2-2-3-1-2-2-5h2l2 2h1l2 1 1 1 1 1 3 4v2l1 3zm0 0-4-6-2-5-2-4-1-1-1-1-3-1-4-2v1l3 6 3 3 1 1 3 4z"/><path fill="#1f601a" d="M495 576q-2 0-8-7l-3-4-3-5-1-2-1-6 4 2 3 3 3 6 1 4v3l1 1z"/><path d="M481 560v-1l-1-6h1l3 2 2 2 1 1 2 4 1 2 1 4v3l1 1 1 1 3 4q-6-3-8-7l-3-4-1-1zm13 16q0-2-2-3l-1-2-1-1v-3l-1-4-1-2-2-3-1-2-6-4 1 6 1 1v1l4 6 2 3z"/><path fill="#1f601a" d="M486 572h-10l-4-2-2-4h5l3 1 2 2z"/><path d="m486 572-4 1-1-1h-5l-4-2-2-4h5l3 1 2 1v1zm-6-3-1-1-3-1h-5v2l2 2 4 1 3 1h6z"/><path fill="#1f601a" d="m489 573-6 1-2 1h-5l-2 1-3-2-4-4h16z"/><path d="m489 573-6 1-1 1h-2l-4 1h-1l-3-1-1-1-3-3-1-1v-1l3 1 3-1 4 1h6zm-1 0-5-3h-16l1 1 3 3 1 1h10l1-1h1z"/><path fill="#1f601a" d="m493 576-4 2-2 2-3 1h-4l-7-2c-1 0-6-3-5-4l7-1h5l4-1z"/><path d="m493 576-4 2v1l-2 1-1 1h-7l-6-1-3-3-2-1v-1l7-2h4l1 1h1l3-1zm0 0-9-3-3 1h-6l-7 1 1 1 1 1 3 2 7 1 4 1 2-1h1l2-1v-1h1q0-2 3-2"/><path fill="#1f601a" d="m465 557-3-2-2-1-4-3-3-3-1-5 3 3 4 3 2 3z"/><path d="m465 557-3-1v-1l-2-1h-1l-3-3-3-3-1-5q0 2 3 2l3 3 3 3 1 1zm0-1-4-4v-1l-3-3-3-2-3-2v-1 2l1 3 3 3 3 3h1l2 1z"/><path fill="#1f601a" d="m468 559-6-2h-2l-5-2-2-1-2-3-1-4 4 1 5 3 3 2z"/><path d="m468 559-6-2h-4l-3-2-1-1h-1l-2-3-1-4v-1l4 2 3 2 2 1 3 2zm-1 0-5-6-3-1-2-2-3-2-4-1v1l1 3 2 3h1l1 1 5 2h3z"/><path fill="#1f601a" d="m469 561-6 1-3 1-5-2-1-1-3-3-3-3h7l4 1 4 2z"/><path d="m469 560-4 1h-2l-2 1h-1l-5-2-1-1-2-2-1-1-3-3h7l4 1 1 1 3 1zm0 0-6-3-3-1-1-1-4-1h-7l1 1 2 1 1 2 2 2 1 1 5 1h3l2-1z"/><path fill="#1f601a" d="m470 559-5-3-1-5-1-6v-2l3-6 1 6 2 5 1 4z"/><path d="M470 559q-1 1-3-1l-2-2v-3l-1-2-1-6v-2l3-6v3l1 3 2 5 1 4zm0 0v-7l-1-4-2-5-1-3v-2q-3 2-3 5v2l1 6 1 2v3l2 2z"/><path fill="#1f601a" d="m466 558-5-4-3-7-1-1v-2l1-4 2-4 1 4 1 3 2 6 1 6 3 4zm3 3-1-2z"/><path d="m469 561-2-2-2-2-4-3-2-4-1-3-1-1v-2l1-4 2-5 1 3 1 2 1 3 1 6 1 6 2 3h1v1zm-2-3-2-3-1-6-2-5-1-3v-3l-1-2-2 4-1 4 1 2v1l2 3 1 4 5 3z"/><path fill="#1f601a" d="M452 541h-1l-2-1h-1l-4-1-3-4-2-5-4-6 7 2 2 2h1l5 8z"/><path d="m452 541-1-1-2-1h-1l-4-1-2-2-1-2q-2-1-2-5l-4-6q4 0 7 2l3 2 3 3 2 5 1 3zm0 0-1-2-1-3-3-4-2-4h-1l-3-2-6-2 4 6 2 5 2 2 1 2 4 1h1l2 1z"/><path fill="#1f601a" d="m452 541-4-3q-3-2-5-7l-3-3-3-9 5 2 4 4 2 3 2 6z"/><path d="m452 541-4-3-3-2q-3-2-2-5l-2-2-1-1-1-4-2-5 5 2 4 3v1l2 3 2 5zm0 0-3-7-1-6-2-3q-1-3-4-3l-4-2 1 4 1 4 1 1 2 2 2 4 3 3z"/><path fill="#1f601a" d="m445 517-2-9v-2l1-4 1-2 2-2 1-1 1 6-1 4-2 3v3z"/><path d="m445 517-2-8v-7l1-1 1-1 1-1v-1l2-1 1 3v3l-1 2v2l-2 3v3zm0 0v-6l2-3v-10l-1 2h-1l-1 1-1 1v1l-1 4v3l1 4z"/><path fill="#1f601a" d="m446 515-1 3v-8l1-2 1-3 2-1v6l-1 2v2zm-1 3"/><path d="m445 518-1-3 1-5v-2l2-3 2-1v6l-1 2v2h-1l-1 1zm0-2 1-1 1-1 1-1v-2l1-1v-6l-2 1-1 3-1 2z"/><path fill="#1f601a" d="m441 492 1-7 4-5v6l-2 3-1 2z"/><path d="m441 492 1-7 1-2 3-3v6l-1 1-1 2-1 2zm0-1 3-2 1-2 1-1v-6l-3 4-1 1z"/><path fill="#1f601a" d="m441 494 1-4 2-2 2-3 3-2-1 6-2 3-2 1-1 1z"/><path d="m441 494 1-4 2-2v-1l2-2 2-3 1 1-1 6-1 2-1 2-2 1zm1 0 1-1 2-1 1-1 1-2v-6l-2 2-2 2v1l-2 2z"/><path fill="#1f601a" d="M442 515q-5-1-6-3l-2-3-2-4v-5l2 1 3 2 1 2 2 2 2 4q0 3 2 3l1 3q-1-2-3-2m3 3v-1z"/><path d="M444 518v-1l-2-2q-4 0-6-3l-2-2v-1l-2-4v-6l2 2 1 1h2l1 2v1l1 1 2 1 1 4 2 3 1 3zm0-2v-2l-2-3-2-4-1-1-1-1v-1l-2-1-1-1-1-1-2-1 1 5 1 4h1l1 3 6 3z"/><path fill="#1f601a" d="m444 516-3-3q-2-1-3-5l-2-4-1-4v-6l1 3 3 2 2 3 1 3 1 3v1z"/><path d="m444 516-3-3-2-2-1-3-2-4-1-4v-6l1 3h1l2 2 1 1 1 2 1 3 1 3v1q2 5 1 7m0 0-1-8-1-2-1-1v-3l-2-2v-1l-2-1-1-1-1-2v5l1 3 2 5 1 3 2 2z"/><path fill="#1f601a" d="M440 494q-5-2-5-5l-1-3-1-4v-5l2 2 2 2 1 3 2 2v5l2 3v2zm1 3"/><path d="M442 496v1h-1v-2l-1-2q-4-2-5-5l-2-3v-9l2 2 1 1 1 1 1 2v1l1 1 1 1 1 5 1 3zm-1-2-1-3v-5l-1-1-1-1v-1l-1-2-1-1-1-1-2-2v5l1 4v1l1 2q1 3 5 5l2 2z"/><path fill="#1f601a" d="m441 496-2-4-2-5-1-4v-5l1-4 2 3 1 3 1 2 1 2-1 1 1 1v3z"/><path d="m441 496-2-4-1-2-1-3-1-4v-5l1-4 2 3 1 2v1l1 1 1 1v14zm0 0 1-7v-3l-1-1v-4l-1-1v-1l-2-2-1-2-1 3v5l1 4 1 3 1 2q2 0 2 4"/><path fill="#1f601a" d="M444 476v-3l1-4 2-2 2-2h3l-1 5-2 2-3 3z"/><path d="M444 476v-3l1-4 1-1v-1l3-2h3l-1 5-1 1-1 1-1 1-2 2zm0-1h2l2-2 1-2 2-2 1-4-3 1-2 1-1 1-1 1-1 4z"/><path fill="#1f601a" d="m444 474-1-3 1-5 5-4v3l-1 5z"/><path d="M443 474v-3l1-5 2-3 3-1v3l-1 5-1 1zm1 0 3-3 1-1 1-5v-3l-3 1-2 3-1 5v1z"/><path fill="#1f601a" d="M443 476v-1l-1-3-1-3v-3l1-2 1-3 2 4v7z"/><path d="m443 476-1-1v-3l-1-3v-3l1-2 1-3v-1l2 5v7l-1 2zm0 0 2-4v-7l-2-4-1 3-1 2v3l1 3 1 3z"/><path fill="#1f601a" d="M452 459h-2l3-4 4-2h3l-1 2-2 2-2 2zm-2 0"/><path d="m450 459 3-4 4-2h3l-1 2-2 2-2 2zm1 0h3l2-2 2-2 1-2h-3l-4 2z"/><path fill="#1f601a" d="M451 459q-1-5 1-6l1-2 2-1 2-2v5l-2 3-1 2z"/><path d="M450 459q0-4 2-6l1-2 2-2 2-1v1l1 1-1 3-2 3-1 1v1l-2 1-1 1zm1 0h1l2-1v-1l1-1 2-3v-4l-2 1-2 1-1 2q-3 3-1 6"/><path fill="#1f601a" d="M450 459v-5l1-3 1-2 2-2v4l-1 3-1 3z"/><path d="M450 459v-2l-1-4 1-1 1-1 1-2 1-2h1v4q1 2-1 3v3h-1zm0 0 2-2 1-2v-1l1-3-1-4-1 2-1 2-1 2zm31 111-11-3h1q0 2 10 3m5 2h-15l-4-2v-1l4 3zm6 4-13 2h-1l-3-1-6-1 6 1h3l1 1 6-1 1-1zm-17-16 4 4 4 4-2-2-2-2zm0-5 14 18-8-10zm4-2 6 7 2 4 2 6 1 1 3 3-3-3-1-1-2-6-2-4zm-27-9 7 7zm-2 3 8 7 8 4-8-4zm18 13-6-1-7-2-2-1-4-1 4 1 2 1 7 2zm-8-24v5l1 3 1 5 1 3 2 3v1l-2-4-1-3-1-5-1-3zm6 2-1 5 1 4 1 4v2l1 3 1 3-1-3-1-3v-2l-1-4-1-4zm-30-13 5 4 1 2h1-1l-1-2zm16-3 1 7v5l-1 3v3-3l1-3v-5zm-1-5-1 3v6l-1 3 1 4v1l-1-5 1-3v-9zm-13 3 5 5 4 8 4 6-4-6-4-8zm-6-20 4 6 3 4h-1l-2-4zm17 5-1 3-1 3-2 5 2-5 1-3zm-1-8-2 7v1l-1 9 1-9v-1l1-3zm-13-2 2 4 2 4 3 8 2 4-2-4-3-8-2-4zm-1-17 1 4 2 6-2-6zm12 3-1 3-1 1v1l-1 2 1-2v-1l1-1zm2 2-1 3v1l-2 4-3 3h-1l4-3 1-4 1-1zm-10-8v5l2 5v4l1 4-1-4v-2l-1-2-1-5zm14-9-3 3-5 6 5-6zm-3-3-3 5-1 2 1-2zm-5-1v8l-1 5v-13zm16-8-5 3h-1zm-3-5-3 5-1 1 1-1zm-3-1-2 4-2 6 2-6zm3-2h1z"/><path fill="#e60000" d="m527 566-1-1 1-1z"/><path d="M527 566v-1h-1l-1 1zm0 0v-2h1z"/><path fill="#e60000" d="m532 574-1-1 1-1 1 1z"/><path d="m532 574 1-1-1-1h-1v1zm0 0-1-1 1-1z"/><path fill="#e60000" d="m543 553-1-1 1-1z"/><path d="m543 553-1-1-1 1zm0 0v-2h1v2"/><path fill="#e60000" d="M549 558v-1l1 1z"/><path d="m549 558 1-1v-1h-1zm0 0v-1l1 1z"/><path fill="#e60000" d="m551 534-1-2 1-1 1 2z"/><path d="M551 534h1l-1-2-1 1zm0-1-1-1 1-1z"/><path fill="#e60000" d="M556 536v-1l1 1z"/><path d="M556 536h1v-1l-1-1zm0 0v-1l1 1v1z"/><path fill="#e60000" d="m554 514-1-2 1-1z"/><path d="m554 514 1-1-1-1v-1l-1 1v1zm0 0-1-1v-1h1z"/><path fill="#e60000" d="m559 494-1-1 1-1z"/><path d="m559 494-1-1-1 1v1zm0 0v-2h1z"/><path fill="#e60000" d="m552 495-1-1 1-1 1 1z"/><path d="M552 495v-1l-1-1-1 1zm0 0-1-1 1-1z"/><path fill="#e60000" d="m546 477-1-1 1-1z"/><path d="m546 477-1-1h-1v2zm0 0-1-1v-1h1z"/><path fill="#e60000" d="m551 473-1-1 1-1z"/><path d="m551 473-1-1h-1v2zm0 0h-1v-1l1-1z"/><path fill="#e60000" d="m541 460-1-1 1-1z"/><path d="m541 460-1-1h-1v2zm0 0v-2h1z"/><path fill="#e60000" d="m561 515-1-1 1-1 1 1z"/><path d="m561 515 1-1-1-1h-1v1zm0 0v-1h1l1 1zm-35 55 1-4-1-1 1 1zm1 2 4 1v1-2zm16-14v-5l-1-1 1 1zm3-1h2l1 1v-1zm4-24q2 1 2 5h1l3-2 1 1v-1h-1l-3 2zm11-19-3 2-3-4-1 1v-1l1 1 3 3v1-1zm-3-21-1 3-3-2h-1 1l3 3zm-7-20-1 4-2-1h-1v1h-1 5z"/><path fill="#1f601a" d="m483 585 7-6 17-3 16-4 13-8c6-5 9-6 13-15 4-12 8-29 8-34l-3-24 2 1 1 22c0 8-3 18-3 21-1 6-4 16-7 21-3 4-14 13-24 17-2 1-11 4-17 4-7 1-16 5-17 5l-2 3z"/><path d="m483 585 4 1 1-2 1-2 6-2 11-2 17-4a75 75 0 0 0 24-18q4-6 7-21v-2q4-12 4-19l-2-22-6-15-9-17q12 22 13 31l3 24-3 14-5 20-5 8-5 4-3 3-13 7-16 4-17 4zm0 0 7-6 8-2 9-1 7-2 9-2 16-10 5-5 5-8a139 139 0 0 0 8-34l-2-24v1q2 10 2 22l-3 19v2q-3 15-7 21-1 3-9 8l-15 9-18 4-10 3-6 2-1 1-1 2z"/><path fill="#1f601a" d="m546 556-1-4-2-4v-6l1-3 2-3 1 2v8l1 4z"/><path d="m546 556 2-6v-4h-1v-10h-1l-2 3-1 3v6l2 4 1 3zm0-1v-3l-3-4v-6l1-3q2-1 2-3l1 2v8l1 4z"/><path fill="#1f601a" d="M547 554v-19l1-4 2 4 1 3v6h-1v4z"/><path d="m547 554 3-6 1-4v-7l-1-2-1-2-1-2-1 4zm0-1v-11l1-2v-2l-1-3 1-3 1 1 1 2v2l1 1q2 3-1 6v4z"/><path fill="#1f601a" d="m511 575 3-3 1-1 3-3 4-2 3 1-3 5-4 2-3 1z"/><path d="M511 575h7l4-3 2-4 1-1h-1l-2-1-4 2-3 2v1l-2 1v1zm0 0 3-3 1-1h1l2-3 4-1h2v1l-2 4-4 2-3 1z"/><path fill="#1f601a" d="m507 577 4-5 2-5 2-3 5-2h4l-3 6-4 3-2 3z"/><path d="m507 577 8-3 2-3 2-1 2-2 1-2 3-4h-5l-3 1h-1l-1 1-2 3-1 2-1 3zm1-1 3-4 1-3 1-2 3-3 1-1 3-1h4l-3 6-2 2-2 1-2 2z"/><path fill="#1f601a" d="m504 577 4-4v-1l1-2 1-3 2-6 4-2 3-1-1 6v2l-4 4-2 3z"/><path d="M518 566v-1l2-6h-2l-2 1-3 1-1 1-2 4v1l-1 4-1 2-1 1-1 2-2 2q6 0 8-4l2-2v-1l1-1zm-14 11 2-2 2-1v-2l1-2 1-3v-2l2-3 2-1 2-2 3-1-1 6v1l-4 5-2 2q-3 4-8 5"/><path fill="#1f601a" d="m513 576 5-2h5l6 1-3 3-4 1-3-1h-3v-1z"/><path d="m513 576 3 1h3l3 1h4l2-2 1-1v-1l-6-1-3-1v1h-2zm5-1h4q5 2 6 1l-1 1-2 2-4 1-3-1h-1l-2-1-3-1z"/><path fill="#1f601a" d="m509 576 7-1 4 1 2 1 3 1 6 1q0 2-3 4h-4l-2-1-5-1-2-2z"/><path d="m509 576 7 4 1 1h1l5 2h5l3-2 1-1v-1h-4l-3-2h-3l-2-1-4-1zm1 0 6-1 4 1 2 1 3 1 3 1 3 1h1-1l-1 1-2 2h-5l-1-1-4-1h-1l-1-1-1-1z"/><path fill="#1f601a" d="M505 578q2-2 9 0l4 2h2l3 1 7 4c1 0-4 3-5 2h-6l-4-1-4-2-2-3z"/><path d="m505 578 4 4h1l1 2 2 1 2 1 4 1 6 1 3-2 2-1-7-4-3-1h-2v-1l-3-1zm0 0h9l4 2h2l3 1 7 4-2 1-3 1-6-1h-4l-2-1-2-2-1-1-1-1z"/><path fill="#1f601a" d="m533 568 4-5 3-2 3-2 4-1-1 4-4 3-3 1-2 1h-1z"/><path d="m533 567 3-1h1l1-1h1l3-1 4-3 1-3v-1h-1l-3 1-3 2-2 2h-1zm1 0 3-3 1-1 2-2 3-2 4-1-1 1v3l-4 2-3 2h-1l-1 1z"/><path fill="#1f601a" d="m530 569 6-4 4-1 4-2h4l-1 4-2 2h-1l-5 1z"/><path d="M530 569h10l5-1 2-2 2-3v-2h-1l-4 1-3 1-1 1-4 1zm1-1 5-3 4-1 2-1 2-1h5l-1 1-1 2-2 3h-1l-5 1h-3z"/><path fill="#1f601a" d="m529 570 7-2h10q3 2 4 1l-2 2-4 3h-1l-4 1-4-2z"/><path d="m529 570 4 2 2 1 2 1 2 1 4-1h1l2-1 2-1 2-2 1-1h-1l-4-1-3-1h-4v1h-3zm1 0 6-2h7l3 1 4 1-2 1-2 2-2 1h-1l-4 1-1-1-3-1-1-1z"/><path fill="#1f601a" d="M529 568v-7l1-3 1-5 2-5 2 6v2l-1 6-1 4q-1 3-4 2"/><path d="M529 568h2l2-2 1-2v-2l2-6v-2l-3-7v1l-1 2-1 3-1 5-1 3zm0 0v-7l1-3 1-5 1-3 1-2 2 6v2q1 3-1 6v2l-1 2-2 2z"/><path fill="#1f601a" d="M532 568h-1l2-3 1-5 2-5 1-3 1-4 2 4 1 5v3l-4 5zm-3 2 2-2z"/><path d="m529 570 2-2h2l4-2 2-3 2-3v-8l-3-5-1 3v2l-1 3-2 5-1 5-2 3-1 1zm3-2 1-3 1-5 2-5 1-3 1-2v-2l2 4 1 4v4l-2 2-2 3q0 2-4 2z"/><path fill="#1f601a" d="m546 556 3-5q2-5 5-6l3-1q5-2 6-1l-3 5-3 5-2 3h-5v-1l-2 1z"/><path d="M546 556h1l2-1v1h5l2-3 3-5q0-2 4-4v-1h-7l-3 2-3 2-3 4-1 3zm0 0 1-2 2-3 2-4 3-2 3-1h6q-3 1-3 4l-3 5-1 1-1 1h-5l-2 1z"/><path fill="#1f601a" d="m546 556 3-7 1-5q2 0 2-3 1-2 4-2l5-1-3 7-2 4-5 4z"/><path d="m546 556 5-2 3-2 2-3 1-2 1-1 1-4 2-4-5 1q-3 0-4 2l-2 3-1 5zm1-1 2-6q0-5 2-5l1-3 4-2 5-1-2 4-1 3-1 1-1 3-3 3-2 1z"/><path fill="#1f601a" d="M553 534v-5l-1-3-1-3-1-4v-7l2 2 2 3 1 2 1 4-1 2v1z"/><path d="m553 534 2-4v-5l1-2-1-4-1-1v-1l-1-2-1-1-2-2v8l1 3 1 3v3zm0 0v-1l-1-7-1-3-1-3v-7l2 2 1 1 1 1v1l1 1v7l-1 4z"/><path fill="#1f601a" d="m553 531-2-1-1-2v-3l-1-1v-5l2 2q2 0 2 3l1 3zl-1 3zm0 3"/><path d="m553 534 1-2v-6l-1-2-2-4-2-1v6l1 2v1l1 1v1l1 1zm0-1v-2l-1-1h-1v-2l-1-1-1-3v-4l2 1 2 3v3l1 4z"/><path fill="#1f601a" d="M557 509h-1l-2-3-2-4v-6l4 7z"/><path d="m557 509-1-6-1-2-3-5v6l1 2 1 2 2 3zm0 0-1-1-2-2-1-2-1-2v-6l3 5 1 2z"/><path fill="#1f601a" d="m557 512-1-1-2-1-1-1-3-4v-7l3 3 2 4 1 2z"/><path d="m557 512-1-5-1-2-1-1-1-3-3-3v7l1 1 2 3 1 1 2 1zm0 0-1-1-2-1-1-1-2-3v-2l-1-5 3 3 1 2v1l2 2z"/><path fill="#1f601a" d="M556 533h-2l1-2 1-2 2-4 2-1 2-2 3-1 2-1-1 4v1l-2 4-2 2zm-2 1"/><path d="M554 534h2l6-2 2-2 2-4v-1l1-4-3 1h-2l-1 2-1 1h-1l-1 1-2 4-2 2zm0-1 1-2 1-2 2-4 1-1h1l1-1 1-1 1-1h2l2-1-1 5q0 3-2 3v1l-2 2q-1 2-6 1z"/><path fill="#1f601a" d="m554 533 1-7 1-1 1-3 1-2 1-3 3-1 1-2 1 5-2 4-1 4-4 4z"/><path d="m554 533 3-2 2-2 2-2 1-4 2-4v-5h-1l-1 2h-1l-2 1v1l-2 2v2l-1 1v2l-1 1zm0 0 1-7 1-1 1-2v-1l1-2 1-2h1l2-2 1-2v5q1 3-1 3l-1 5-2 2-2 1z"/><path fill="#1f601a" d="m559 512-2 2v-2l1-3 1-5 1-1 1-3 2-2 2-1 1 5-1 4-1 3zm-2 3v-1z"/><path d="m557 514 2-2q3 0 5-3l1-3 1-4v-1l-1-4-2 1-1 1-1 1-1 2v1l-2 1v5l-1 2zm0-2 1-3 1-5 1-1 1-1v-2l1-1 1-1 2-1v9l-1 1v2l-5 3-2 1z"/><path fill="#1f601a" d="m557 513-1-6v-2l1-2v-3l1-2 2-3 1-2 2 4-1 5-1 4-2 4z"/><path d="m557 514 2-4 2-1 1-3v-4l1-5-2-4-1 2-1 2-1 1-1 2v3l-1 2v2zm0-1v-11l1-3v-1l1-1 1-2 1-2 2 4-1 5-1 4-1 3-1 1z"/><path fill="#1f601a" d="m555 493-2-2-3-4-2-3-2-5 3 2 3 2 2 3 1 4z"/><path d="M555 493v-3l-1-4-1-2-1-1-3-2-3-2q0 5 2 5l1 2 1 1 1 1 2 3zm0-1-2-1-2-3-1-1-1-1-1-2-2-4 3 1 3 2v1l2 2 1 4z"/><path fill="#1f601a" d="m555 491-4-6-2-4 1-4 4 5 1 6z"/><path d="M555 491v-9l-5-5-1 4 2 5 1 1zm0 0-3-4-1-2-2-4 1-4 2 2 2 4 1 5z"/><path fill="#1f601a" d="m556 493-3-4 1-3v-4l1-4 1 3 1 2 1 3-1 4z"/><path d="m556 493 1-2 1-4-1-2v-1l-1-2-1-3v-1l-2 4v3l1 1-1 1v3zm0 0-2-4v-7l1-4 1 3 1 2v7z"/><path fill="#1f601a" d="m547 474-4-2-2-2-2-3-1-2 3 1 5 4 2 4zm1 0"/><path d="m548 474-2-4q-1-3-5-4l-3-1 1 2 2 3 2 2 4 2zm0 0h-1l-4-2-2-2-1-3-1-2 2 1q4 1 5 4z"/><path fill="#1f601a" d="M548 474q-2 1-3-2l-2-3-1-3-1-5 3 2 1 2 1 2v1q3 1 2 6"/><path d="M548 474q1-3-2-6v-1l-1-2-1-2-3-2v5l2 3 1 2 1 1 1 2zm0 0-1-1-1-1-1-1-1-2-1-3-1-5 3 2 1 2 1 3q3 3 2 6"/><path fill="#1f601a" d="m549 474-3-3-1-3-1-3 1-4 2 2 1 3 1 3z"/><path d="M549 474v-5l-1-2v-1l-1-3-2-2-1 4 1 3v1l1 2zm0 0-3-3v-2l-1-1-1-3 1-4 1 2h1l1 3v2l1 1zm-31 102h10zm-5 0 9 3 5 2 4-2-4 1h-1l-4-1zm-7 2 6 2 1 1 6 3h1l4 1h6-6l-4-1h-1l-6-3-1-1zm18-11-4 3-2 2-2 1v1l2-2 2-2zm0-5-11 10-4 4 8-8zm-5-3-5 5-2 4-3 5-1 1-3 2 4-3 3-5 2-4zm27 0-6 5zm2 3-7 4h-1l-8 2 8-1 1-1zm-18 8 7 1h6l2-1h4-6l-6 1zm8-22v5l-1 3-1 4-1 3-1 3 2-3v-3l2-4v-2zm-5 0v5l-1 5-1 3v5l-2 2 2-2v-5l1-3 1-5zm30-4-5 2-2 2v1-1l2-1zm-17-8-1 7 1 5v3l1 3-1-3v-3l-1-5zm2-4v5l1 2v10-12l-1-2zm12 6-4 5-5 6q0 2-4 5 4-2 4-5l5-6zm6-18-4 5-2 3 3-3zm-17 0 2 3 1 5 1 4-1-5-1-4zm1-7 2 7 1 2 1 9-1-9-1-2-1-3zm13 2-1 3-3 3q-1 6-3 8l-1 3 1-3q3-2 3-8l3-3zm2-17-1 3v1l-3 5 3-5v-1zm-12-1v3l1 2v1l1 2v-2l-1-1-1-2zm-3 2 2 5 2 3 3 5-3-5-2-4-1-1zm11-5-1 5-1 4v4l-2 4h1l1-4v-4l2-4zm-14-14 2 5 5 7-4-8zm3-2 2 7 1 2-1-3zm5 1v13h1-1zm-16-13 5 5zm2-4 3 6 1 2v-2zm4 0 1 4 2 7-2-7zm-4-3"/><path fill="#00209f" d="M499 574h2v5l-2-1zm2 0 1-8h5c1 3 0 9-1 10q0 2-4 2l-1-2 3-1q2 0 1-2v-5l-3-1zm-2 4c-1 0-6 3-3 10l-2-2v4c0-1-4-5-1-10q4-5 6-3z"/><path d="m499 578-3 3v7l-2-2v4l-2-3q-1-4 1-7 3-4 6-4zm0 0-1-1q-2-1-5 3l-1 7 1 2 1-3 2 2v-7z"/><path fill="#00209f" d="M499 575v2l-6-1-2-8c0-6 1-4 1-4v1c-1 2 1 8 1 8z"/><path d="M499 575v2l-6-1-2-8v-4h1v1q-1 2 1 8zm0 0-6-2h-1l-1-8 1-1-1 4 2 8h5z"/><path fill="#00209f" d="M499 575s-5-10-7-11l2-1 4 3 2 7z"/><path d="m499 575-7-11v-1h2q3 0 4 3l2 7zm0 0 1-2-1-2-1-5-4-3-2 1z"/><path fill="#011322" d="m495 572 3 2-5-1-2-7 1-2 2 2zm4 3-1-1z"/><path d="m499 575-1-1-4-1h-2l-1-6v-1l1-2 2 2v1l1 5zm-2-1-2-2-1-3v-3l-2-2-1 2 1 1 1 6h1zm-4-1"/><path fill="#00209f" d="M502 579v-1l5 5 1 6 1 3-2-3-1 2q-2-3-2-8z"/><path d="M502 579v-2l4 5h1l1 4v3l1 3-2-3-1 2v1-1q-2-2-3-8zm0 0 2 4q-1 6 2 8l1-2 2 3-1-3v-3l-1-3-1-1-4-4z"/><path fill="#011322" d="m502 567 2 1-2 7-1 1v-2z"/><path d="m502 567 2 1-1 4-1 3-1 1v-2zm0 0-1 7v2l1-1 1-3 1-4z"/><path fill="#011d33" d="m499 577-4 3zm3 1 2 3zm-3-3-6-1zm7-2-1-3 1-3 1 3-1 6zm-5 1v5-3l-1-3z"/><path d="m499 574 2 1 1 4-1 1-2-1zm0 0v4l2 1 1-1-1-1v-3zm2-1 1-7h5v6l-1 4q-1 2-4 2l-1-2 3-1 1-2v-5l-3-1-1 7m0 0 1-7 3 1v4l1 1-2 2-3 1 1 1q3 2 4-1l1-4v-6h-5z"/><path fill="#00209f" d="M494 450v-10l4-12v-2l1-1 1 5-1 6-1 6-1 2z"/><path fill="#fff" d="m499 441-2 3 1-2 1-6 1-6 1 7z"/><path fill="#00209f" d="m500 442 1-5v8z"/><path d="M501 445v-7l-1-7-1-5-1 1v2l-4 12 1 10h-1v-10l2-6 1-6 1-1v-1l1-1 1 5 1 7v8"/><path fill="#fc0" d="M499 426v-1zl2 2-2 1v-2h-1z"/><path d="m499 425 2 2-2 1v-1l-1-1v-2m0 1v1h1v2l2-1zl-1-1zm1 0 1 1 1 1-1-1zm1 1 1 2h1-1z"/><path fill="#fc0" d="M498 425h1v1l-1 3-1-2v-1z"/><path d="m499 425-1 3-1-2h-1l1-1zm-1 0v1l1 1v1l1-3v-1zm1 0v2h-1zm0 1-1 2z"/><path fill="#fc0" d="m500 425 2-2 2 2q0 2-2 1zl2 1v-2q-2-1-2 1"/><path d="m500 425 1-1h1v2h-1zh1l1-1-1 1zl2-2 1 1h-1zm0 0 1 1h1v-2h-1zm3 0-1-1z"/><path fill="#fc0" d="m499 425-2-2v1l-1 1zl-2 1-1-2 1-1z"/><path d="m499 425-1 1-1-1v-1l1-1q2 0 3 2zm0 0-1-2h-1v1l-1 1zm0 0-2-2-1 1 1 1v1zh-2v-1l1-1h1z"/><path fill="#fc0" d="M499 424h-1z"/><path d="M499 424h-1zm0 0"/><path fill="#fc0" d="m499 417 2 5-1 2h-1l-1-2z"/><path d="m499 417 2 5-2 2-1-2zm0 1-1 4 1 2 2-2zm0 2 1 2-1 1zm0 0v3l1-1zm0 2"/><path fill="#fff" d="M499 550h-1v-6l1-8 2 9v5z"/><path fill="#00209f" d="M499 535h2v2l1 2 1 1v1l1 1v1l1 1v3l-1 1h-1l-1 1h-1v-5zm0 0-1 8v1l-1 4h1-2v-1h-1v-1l-1-1v-3l1-2v-1h1v-1h1l1-2v-1z"/><path fill="#011322" d="m499 535-2 6q-3 3-1 6-2-3 1-6z"/><path fill="#011d33" d="m499 535-2 6q-3 4-1 6-2-3 1-6z"/><path fill="#022743" d="m499 535-2 7q-2 3-1 5-2-2 1-6z"/><path fill="#033054" d="m499 535-2 7-1 6q-1-4 1-7z"/><path fill="#053a65" d="m499 535-2 7-1 6q-1-3 1-6v-1z"/><path fill="#011d33" d="m499 535-2 6q-3 3-1 6v-6h1z"/><path fill="#022743" d="m498 535-1 6h-1v6h-1l1-6 1-1z"/><path fill="#033054" d="m498 535-1 6h-1l-1 6 1-6 1-1z"/><path fill="#053a65" d="m498 535-1 5-1 1-1 6 1-6 1-1z"/><path fill="#00209f" d="m498 535-1 5-1 1-1 6q-1-3 1-6v-1zm1 0-2 7v6h-1l1-6v-1z"/><path fill="#011322" d="m500 535 1 6 1 1 1 6-1-6-1-1z"/><path fill="#011d33" d="m500 535 2 7v6h1l-1-6-1-1z"/><path fill="#022743" d="m500 535 2 7v6-6l-1-1z"/><path fill="#033054" d="m500 535 1 6v1q3 5 1 6v1-7l-1-1z"/><path fill="#053a65" d="m499 535 2 7q3 4 1 7 2-3-1-7z"/><path fill="#011d33" d="m500 535 2 7 1 6q1-2-1-6v-1z"/><path fill="#022743" d="m500 535 2 6v1q2 4 1 6 1-2-1-6v-1z"/><path fill="#033054" d="m500 535 2 7q2 4 1 6 2-2-1-6v-1z"/><path fill="#053a65" d="m500 535 2 6v1q3 4 1 6 2-2-1-6v-1z"/><path fill="#00209f" d="m500 536 2 5v1q3 4 1 6 2-3-1-6v-1zm-1-1 2 7q2 4 1 7 2-3-1-7z"/><path d="m503 540 1 1v1l1 1v3l-1 1h-1l-1 1h-2v1h-1l-1-1h-1v-1h-1v-1h-1l-1-2v-4h1v-2h1l-1 1v1l-1 1v3l1 1v1h1v1h2v1l1 1 1-1h2l1-1h1l1-1v-3l-1-1v-1h-1v-2"/><path fill="#fff" d="m474 489-3-15 1-19 6 11v6l1 6z"/><path fill="#00209f" d="m479 478-1-12 5 6zm-17 5v-24l1-16 9 12-1 19 3 15-2 3zm6 16-1-5v-6l4 5zm-13 25-2-3-1-4v-4l-2-7-1-6v-13l1-14v-1l9 9v17c0 2 1 9 3 13zm16 7 5 4 6 4h6l1-1h3l4-2v-1h2l-1 2v1h-1l-1 1-1 1h-4l-1 1h-3l-2 1-8-1-4-3q-4-1-7-4l-2-1-4-4zm12 2 13 2v1l-4 2-2-1h-2z"/><path fill="#fff" d="m483 533 5 4h2l2 1h-3l-1 1h-6l-6-4-5-4z"/><path fill="#022743" d="m464 449 1 9q2 9 6 8v1q-4-1-6-9z"/><path fill="#022847" d="M471 466q-4 1-6-8l-1-9 1 9q2 8 6 8"/><path fill="#032b4c" d="M471 466q-4 0-6-8l-1-9 1 9q2 8 6 8"/><path fill="#032d4f" d="M471 466q-4 0-6-8l-1-8v-1 1l1 8q2 7 6 8"/><path fill="#032f53" d="M471 466q-4-1-6-9l-1-8 1 8q2 8 6 9"/><path fill="#043258" d="M471 466q-4-1-6-9l-1-8 2 8q1 8 5 9"/><path fill="#04345b" d="M471 466q-4-2-6-9l-1-8 2 8q2 8 5 9"/><path fill="#04365e" d="M471 466q-4-2-6-9l-1-8 2 8q2 8 5 9"/><path fill="#043862" d="M471 466q-4-2-5-9l-2-8 2 8q2 7 5 9"/><path fill="#053b67" d="M471 466q-3-2-5-9l-2-8 2 8q2 6 5 9"/><path fill="#053d6a" d="M471 466q-3-3-5-9l-2-8 2 8q2 6 5 9"/><path fill="#053f6e" d="M471 466q-3-3-5-9l-2-8 2 8q2 6 5 9"/><path fill="#064172" d="M471 466q-3-3-5-9l-2-8 2 8q2 6 5 9"/><path fill="#00209f" d="m464 449 2 8 5 9q-3-3-5-9z"/><path fill="#022743" d="m464 446 3 6q3 8 4 6v1l-5-7z"/><path fill="#022a49" d="m471 459-4-6-3-7v-1l3 8q3 6 4 5z"/><path fill="#032d4f" d="m471 459-4-6-3-8 3 8q3 6 4 5z"/><path fill="#033054" d="M471 458q-1 2-4-6l-3-7 3 7q3 7 4 6"/><path fill="#043359" d="M471 458q-1 2-4-6l-3-7 3 7q3 7 4 6"/><path fill="#043760" d="m471 458-2-1-2-5-3-7 3 7 3 5z"/><path fill="#053a65" d="m471 458-2-1-2-5-3-7 3 7 3 5z"/><path fill="#053d6a" d="m471 458-1-1-3-5-3-7 3 7 3 5z"/><path fill="#064171" d="m471 458-1-1-3-5-3-7 3 7 3 5z"/><path fill="#00209f" d="m464 445 3 7 4 6-4-6zm15 28h3zm0-5 3 4z"/><path fill="#064171" d="m478 469 4 3z"/><path fill="#053e6c" d="m478 469 4 3z"/><path fill="#053b67" d="m478 469 4 3z"/><path fill="#043862" d="m478 469 4 3z"/><path fill="#04355c" d="m478 469 4 3z"/><path fill="#043258" d="m478 470 4 2z"/><path fill="#032f53" d="m478 470 4 2z"/><path fill="#032c4d" d="m478 470 5 2h-1z"/><path fill="#022a49" d="m478 470 5 2z"/><path fill="#064171" d="M479 473h3z"/><path fill="#053e6c" d="M479 472h3v1z"/><path fill="#053b67" d="M479 472h3v1z"/><path fill="#043862" d="M479 472h3v1z"/><path fill="#04355c" d="M479 472h3z"/><path fill="#043258" d="m479 471 3 1z"/><path fill="#032f53" d="m479 471 4 1z"/><path fill="#032c4d" d="m479 471 4 1z"/><path fill="#022a49" d="m479 471 4 1z"/><path fill="#022743" d="m479 471 4 1zm-17-2 1 5q1 5 7 9-6-5-7-8z"/><path fill="#022847" d="m470 483-5-6-2-3-1-5 1 5 2 3z"/><path fill="#032b4c" d="M470 483q-3-1-5-6l-2-3-1-5 1 5 2 3z"/><path fill="#032d4f" d="m470 483-7-9-1-5 1 5 2 3z"/><path fill="#032f53" d="m470 483-7-9-1-5 2 5 1 3z"/><path fill="#043258" d="m470 483-5-6-1-3-2-5 2 5 1 3h1z"/><path fill="#04345b" d="m470 483-4-5-1-1-1-3-2-5 2 5 1 3 1 1z"/><path fill="#04365e" d="m470 483-4-5-1-1-1-3-2-5 2 5 1 3 1 1z"/><path fill="#043862" d="m470 483-4-5-1-1-1-3-2-5 4 8z"/><path fill="#053b67" d="m470 483-4-5v-1l-2-3-2-5v-1l4 9v1z"/><path fill="#053d6a" d="m470 483-3-5-1-1-2-3-2-6 2 6 2 2 1 2z"/><path fill="#053f6e" d="m470 483-4-6-2-3-2-6 4 8 1 2z"/><path fill="#064172" d="m471 483-4-5-1-2-2-2-2-6 4 8 1 2z"/><path fill="#00209f" d="m462 468 9 15-5-7z"/><path fill="#011d33" d="m462 483 9 9 2-3-1-3 1 3-2 3z"/><path fill="#011e34" d="m462 483 10 9v-1l1-2v-3 2l1 1-2 3z"/><path fill="#022037" d="m462 483 10 8 1-3v-2l1 2-2 3v1z"/><path fill="#022139" d="m462 483 10 8 1-1v-4 4l-1 1v1-1z"/><path fill="#02223b" d="m462 483 10 8 1-3v-2 2l-1 3z"/><path fill="#02233d" d="m462 483 10 8 1-2v-3 3l-1 2z"/><path fill="#022540" d="m462 483 10 8 1-2v-3 3l-1 2z"/><path fill="#022541" d="m462 483 10 8 1-3v-2 2l-1 3z"/><path fill="#022743" d="m462 483 10 8v-2l1-1v-2 3l-1 2z"/><path fill="#022847" d="m463 483 9 7 1-3v-1 1l-1 4z"/><path fill="#022a49" d="m463 483 9 7v-2l1-1v-1 1l-1 1v3z"/><path fill="#032a4a" d="m463 483 9 7v-3h1-1 1l-1-1h1v1l-1 1v2z"/><path fill="#032b4c" d="m463 483 9 7v-3h1l-1-1h1v1l-1 1v2z"/><path fill="#032d4f" d="m463 483 9 7v-4h1v1h-1v3z"/><path fill="#032e50" d="m463 483 9 7v-4h1l-1 1v3z"/><path fill="#032f53" d="m463 483 9 7v-4h1-1v4z"/><path fill="#033156" d="m463 483 9 6v-3h1-1v4z"/><path fill="#043258" d="m463 483 9 6v-3h1-1v4z"/><path fill="#043359" d="m463 483 9 6v-3h1-1v3z"/><path fill="#04355c" d="m463 483 9 6v-3h1-1v3z"/><path fill="#04365e" d="m463 483 9 6v-3h1-1v3z"/><path fill="#043760" d="m463 483 9 6-1-3h2-1v3z"/><path fill="#043862" d="m463 483 9 6-1-3v-1l1 1h1-1v3z"/><path fill="#053a65" d="m463 482 4 4 5 3v-1l-1-2v-1h1v1-1 1h1-1v3l-5-3z"/><path fill="#053b67" d="m463 482 4 4 5 2-1-3h1v1-1 1h1-1v-1 4l-5-3z"/><path fill="#053c68" d="m463 482 4 4 5 2-1-3h1v1h1-1v-1 3l-5-2z"/><path fill="#053e6c" d="m463 482 4 4 5 2-1-3h1v1-1h-1l1 3q-2 1-5-2z"/><path fill="#053f6e" d="m463 482 4 4 5 2-1-3h1v1-1h-1l1 3-5-2z"/><path fill="#053f6f" d="M463 482q8 7 9 6l-1-2v-1h1v1-1h-1l1 1v2q-1 1-9-5z"/><path fill="#064171" d="m463 482 4 4 5 2v-1l-1-2v-1 1h1v1-1h-1l1 3-5-2z"/><path fill="#064374" d="M463 482q8 6 9 5v-1l-1-3 1 1v1l-1-1 1 2v1q-1 1-9-5"/><path fill="#00209f" d="m463 482 7 6 2-1-1-3v1h1v1l-1-1 1 2-2 1-3-2z"/><path fill="#011d33" d="m462 511-7 13q-2-1-2-3l-1-2v-6l-1-2-1-5 1 5 1 2v4l1 2v2l2 3zm-12-5 1 5 1 2v5l1 3 2 3v-1l1-1 2-5 4-6-1 1v1l-3 5-3 6-2-3-1-3v-5l-1-2z"/><path fill="#011e34" d="m450 506 1 5 1 2v4l1 2v2l2 3v-1l1-1 2-4 4-7-4 7-3 6-2-3-1-2v-6l-1-2zm0 0 1 5 1 4v2l1 1v3l2 3v-1l1-2 3-5 3-5-3 5-4 8-2-3-1-3v-5l-1-2z"/><path fill="#011f36" d="m450 506 1 5 1 4v2l1 1v3l2 2 4-7 3-5-3 5-4 8-2-3-1-3v-5l-1-2zm0 0 1 5 1 4v2l1 1v3l2 2 1-1 2-4 4-7-4 7-3 5-2-2-1-3v-5l-1-2z"/><path fill="#022037" d="m450 506 1 5 1 2v4l1 1v3l2 2 3-6 4-6-4 6-3 6-2-2-1-3v-5l-1-2zm0 0 1 5 1 2v5l1 2 2 3 4-7 3-5-3 5-4 7q-2-1-2-3l-1-2v-5l-1-2z"/><path fill="#022139" d="m450 506 1 5 1 2v4l1 3 2 3 3-7 4-5-7 12-2-3-1-3v-4l-1-2zm0 0 1 5 1 2v4l1 3 2 3 3-6 4-6-7 12-2-3-1-3v-4l-1-2zm0 0 1 5 1 2v3l1 1v3l2 2 7-11-7 12-2-3-1-3v-4l-1-2z"/><path fill="#02223b" d="m450 506 2 7v3l1 1v3l2 2 7-11-7 11-2-2-1-3v-4l-1-2zm0 0 2 6v5l1 3 2 2 7-11-7 11-2-2-1-3v-5l-1-1z"/><path fill="#02233d" d="m450 506 2 6v4l1 1v3l2 2 7-11-7 11-2-2-1-3v-5l-1-1zm0 0 1 5 1 1v4l1 3 2 3 7-11-4 5-3 6-2-2-1-4v-4l-1-1z"/><path fill="#02233e" d="m450 506 1 5 1 1v4l1 3 2 3 7-11-3 5-4 6-2-3-1-7-1-1zm0 0 1 5 1 1v4l1 3 2 3 7-11-3 5-4 6-2-3-1-7-1-1z"/><path fill="#022540" d="m450 506 1 5 1 3v2l1 3 2 2 7-10-3 5-4 6-2-3-1-3v-2l-1-3zm0 0 1 5 1 1v3l1 4 2 2 3-5 4-5-3 5-4 5-2-2-1-7-1-1zm0 0 1 5 1 1v4l1 3 2 2 4-6 3-4-3 5-4 5-2-2-1-3v-4l-1-1z"/><path fill="#022541" d="m450 506 1 5 1 1v3l1 4 2 2 3-5 4-5-3 5-4 5-2-2-1-4v-3l-1-1zm0 0 1 5 1 1v3l1 3v1l2 2 3-5 4-5-3 5-4 5-2-2v-1l-1-3v-3l-1-1z"/><path fill="#022743" d="m450 506 2 5v4l1 3 2 3 4-6 3-4-3 4-4 6-2-3-1-3v-3l-1-1zm0 0 1 5 1 1v3l1 3 2 2 3-5 4-4-3 5-4 5-2-3-1-3v-3l-1-1z"/><path fill="#022845" d="m450 506 2 5v4l1 3 2 2 4-5 3-4-3 4-4 5-2-2-1-3v-3l-1-1zm0 0 1 5 1 1v3l1 2v1l2 2 4-5 3-4-3 4-4 5-2-2v-1l-1-2v-3l-1-1z"/><path fill="#022847" d="m450 506 2 5v4l1 2v1l2 2 3-5 4-4-3 4-4 5-2-2v-1l-1-5zm0 0 2 5v4l1 2v1l2 2 4-5 3-4-3 4-4 5-2-2v-1l-1-2v-3zm0 0 2 5v3l1 3v1l2 2 4-5 3-4-3 4-4 5-2-2v-1l-1-4v-2z"/><path fill="#022a49" d="m450 506 2 5v3l1 3 2 2 4-4 3-4-3 4-4 5-2-2v-1l-1-4v-2zm0 0 2 5v3l1 2v1l2 2 4-4 3-4-3 4-4 4-2-2v-1l-1-4v-1z"/><path fill="#032a4a" d="m450 506 2 5v3l1 3 2 2 4-4 3-4-3 4-4 4-2-2-1-3v-3zm0 0 2 5v3l1 2v1l2 2 4-4 3-4-3 4-4 4-2-2v-1l-1-2v-3h-1z"/><path fill="#032b4c" d="m450 506 2 5v3l1 2v1l2 2 4-5 3-3-3 4-4 4-2-2v-1l-1-2v-3zm0 0 2 5v3l1 2v1l2 2 4-5 3-3-3 4-4 4-2-2v-1l-1-5z"/><path fill="#032c4d" d="m450 506 2 5v3l1 2v1l2 1 4-4 3-3-3 3-4 5-2-2v-1l-1-2v-3zm0 0 2 5v3l1 2 2 2 4-4 3-3-3 3-4 5-2-2v-1l-1-4v-1zm0 0 2 5v3l1 1v1l2 2 4-4 3-3-3 3-4 4-2-2v-1l-1-1v-3z"/><path fill="#032d4f" d="m450 506 2 5v2l1 2 1 1 1 2 4-4 3-3-3 3-4 4-2-2-1-3v-2zm0 0 2 5v2l2 3 1 2 4-4 3-3-3 3-4 4-2-2v-1l-1-2v-2z"/><path fill="#032e50" d="m450 506 2 5v2l1 2 1 1 1 2 4-4 3-3-3 3-4 4-2-2v-1l-1-2v-2zm0 0 2 5v2l1 2 1 1 1 2 4-4 3-3-3 3-4 4-2-2v-1l-1-2v-2z"/><path fill="#032f53" d="m450 506 2 4v3l1 2 1 1 1 1 4-3 3-3-3 3-4 4-2-2v-1l-1-3v-1zm0 0 2 4v3l1 2 1 1 1 1 4-3 3-3-3 3-4 3-2-1v-1l-1-2v-2z"/><path fill="#033054" d="m450 506 2 4v3l2 2 1 2 4-3 3-3-3 3-4 3-2-1v-2l-1-1v-3zm0 0 2 4v3l1 1 1 1 1 2 4-3 3-3-3 3-4 3-2-2v-1l-1-1v-3zm0 0 2 4v3l1 1 1 1 1 2 4-3 3-3-3 3-4 3-2-2v-1l-1-1v-3z"/><path fill="#033156" d="m450 506 2 4v3l1 1 1 1 1 2 4-3 3-3-3 3-4 3-2-2v-1l-1-1v-3zm0 0 2 4v2l2 3 1 1q1 2 4-3l3-2-3 3-4 3-2-2v-1l-1-2v-2z"/><path fill="#043258" d="m450 506 2 4v2l1 2 1 1 1 1q1 1 4-3l3-2-3 2q-4 5-4 3l-1-1-1-1-1-2v-2zm0 0 2 4v2l1 2 1 1 1 1 4-3 3-2-3 2-4 3-1-1-1-1-1-2v-2z"/><path fill="#043359" d="m450 506 2 4v2l2 2 1 2 4-3 3-2-3 2-4 3-1-1-1-1-1-2v-2zm0 0 2 4v2l1 1 1 1 1 2 4-3 3-2-3 2-4 3-1-2-2-2v-2z"/><path fill="#04345b" d="m450 506 2 4 1 2v1l1 1 1 2 4-3 3-2-3 2-4 3-1-2-1-1-1-1v-2zm0 0 2 4 1 2v1l1 1 1 2 4-3 3-2-3 2-4 3-1-2-1-1-1-1v-2zm0 0 2 4 1 2v1l1 1 1 1 4-2 3-2-3 2-4 3-1-2-1-1-1-1v-2z"/><path fill="#04355c" d="m450 506 2 4 1 2v1l1 1 1 1 4-2 3-2-3 2q-3 3-4 2l-1-1-1-1-1-1v-2zm0 0 2 3v1l1 2v1l1 1 1 1 4-2 3-2-3 2-4 2-1-1-1-1-1-1v-2z"/><path fill="#04365e" d="m450 506 2 3v1l1 1v2h1l1 2 4-2 3-2-3 2-4 2-1-1-1-1-1-1v-2zm0 0 2 3v1l1 1v2h1l1 2 4-2 3-2-3 2-4 2-1-2h-1l-1-3v-1z"/><path fill="#043760" d="m450 506 2 3v1l1 1v1l1 1 1 2 4-2 3-2-3 2-4 2-1-2-1-1-1-1v-2zm0 0 2 3v1l1 1v1l1 1 1 1q1 1 4-2l3-1-3 2-4 2-1-2-1-1-1-1v-2q-2-1-2-3"/><path fill="#043862" d="m450 506 2 3v1l1 1v1l1 1 1 1 4-2 3-1-3 2q-3 2-4 1l-1-1-1-1-1-1v-1l-1-1zm0 0 2 3v1l1 1 1 2 1 1 4-2 3-1-3 1-4 2-1-1-1-1-1-1v-1l-1-1zm0 0 2 3 1 2v1l1 1 1 1 4-2 3-1-3 1-4 2-1-1-1-1-1-1v-2h-1z"/><path fill="#043963" d="m450 506 2 3v1l1 1v1l1 1 1 1 4-2 3-1-3 1-4 2-1-1-1-1-1-1v-1l-1-1zm0 0 2 3v1l1 1v1h1l1 2 4-2 3-1-3 1-4 2-1-1-1-1-1-1v-1l-1-1z"/><path fill="#053a65" d="m450 506 2 3 1 2v1h1l1 1q1 1 4-1l3-1-3 1-4 2-1-2h-1l-1-1v-2h-1zm0 0 2 3 1 1v2h1l1 1q1 1 4-1l3-1-3 1q-3 2-4 1l-1-1-2-1v-2h-1z"/><path fill="#053b67" d="m450 506 2 3 1 1v1l1 1 1 1 5-1 2-1-2 1q-4 2-5 1l-1-1-1-1-1-1v-1h-1zm0 0 2 3 1 1v1l1 1 1 1 5-1 2-1-2 1-5 1-1-1-1-1-1-1v-1h-1z"/><path fill="#053c68" d="m450 506 2 3 1 1v1l1 1 1 1 5-1 2-1-2 1-5 1-1-1-1-1-1-1-1-1zm0 0 2 2v1l1 1v1l1 1 1 1 5-1 2-1-2 1-5 1-1-1-1-1-1-1v-1h-1zm0 0 2 2 1 2v1h1l1 2 5-1 2-1-2 1-5 1-1-1-2-2-1-1z"/><path fill="#053d6a" d="m450 506 2 2 1 2v1h1l1 1q1 1 5-1h2l-2 1-5 1-1-2h-1l-1-1-1-2zm0 0 2 2 1 2 1 1 1 1q1 1 5-1h2l-2 1h-5l-1-1h-1l-1-1-1-2z"/><path fill="#053e6c" d="m450 506 2 2 1 2 1 1 1 1 5-1h2l-2 1h-5l-1-1-2-1-1-2zm0 0 2 2v1l1 1 1 1 1 1 5-1h2-2l-5 1-1-1h-1l-1-1v-1l-1-1z"/><path fill="#053f6e" d="m450 506 2 2v1h1v1l1 1 1 1 5-1h2-1l-6 1-1-1-1-1h-1v-1l-1-1zm0 0 2 2 1 1v1l1 1 1 1 6-1h1-1l-6 1-1-1-1-1v-1l-2-1z"/><path fill="#053f6f" d="m450 506 2 2 1 1 1 1 1 1h7l-7 1-1-1v-1l-1-1-1-1h-1zm0 0 2 2 1 1v1h1l1 1h7-8l-1-1v-1l-2-1zm0 0 2 2 1 1v1h1l1 1h7-7l-1-1h-1v-1l-2-1z"/><path fill="#064171" d="m450 506 2 2 1 1v1h1l1 1h7-7l-1-1h-1v-1l-1-1h-1zm0 0 2 2 1 1 1 1 1 1h7-7l-1-1-2-2h-1z"/><path fill="#064172" d="m450 506 2 2 1 1 1 1h1v1h7-7l-1-1-1-1-1-1h-1zm0 0 2 2 1 1 1 1h1q3 2 7 1h-7l-1-1-1-1-2-1z"/><path fill="#064374" d="m450 506 2 2 1 1 1 1h1l7 1-8-1-1-1-1-1h-1zm0 0 2 1 1 1 1 1 1 1 7 1-8-1-1-1-2-1z"/><path fill="#00209f" d="m450 506 2 1 1 1 1 1 1 1 7 1-8-2-1-1zm0 0 4 3 8 2q-4 1-8-2z"/><path fill="#022743" d="m450 484 1 10q3 7 7 9-4-2-7-9z"/><path fill="#022a49" d="m450 484 2 10q2 6 6 9-4-3-7-9z"/><path fill="#032b4c" d="m450 484 2 10q2 6 6 9-4-3-7-9z"/><path fill="#032e50" d="m450 484 2 10q2 6 6 9-4-3-6-9z"/><path fill="#033054" d="m450 484 2 10q2 5 6 9-4-4-6-9z"/><path fill="#043359" d="m450 484 2 10 6 9-6-9z"/><path fill="#04355c" d="m450 483 2 11q2 5 6 8v1l-6-9z"/><path fill="#043760" d="m450 483 2 11q2 5 6 8v1l-6-9z"/><path fill="#053a65" d="m450 483 2 11q2 5 6 8v1l-6-9z"/><path fill="#053c68" d="m450 483 2 11 6 8v1l-6-9z"/><path fill="#053f6e" d="m450 483 2 11 6 8v1l-6-9z"/><path fill="#064172" d="m450 483 2 10 1 1 5 8-6-8z"/><path fill="#00209f" d="m450 483 3 10v1l5 8-5-8-1-1z"/><path fill="#022743" d="m450 478 2 7q2 7 7 11-5-3-7-11z"/><path fill="#022a49" d="m450 478 2 8q3 7 7 10-4-3-7-10z"/><path fill="#032b4c" d="m450 478 2 8q3 7 7 10-4-3-7-10z"/><path fill="#032e50" d="m450 478 2 8q3 7 7 10-4-3-7-10z"/><path fill="#033054" d="m450 478 3 8q2 7 6 9v1q-4-3-7-10z"/><path fill="#043359" d="m450 478 3 8q1 6 6 9v1q-5-4-6-10z"/><path fill="#04355c" d="m450 478 3 8q2 6 6 9v1q-5-3-6-10z"/><path fill="#043760" d="m450 478 3 8 6 9v1q-4-3-6-10z"/><path fill="#053a65" d="m450 478 2 8 6 9q-3-2-6-9z"/><path fill="#053c68" d="m450 478 3 8q3 7 6 9-3-2-6-9z"/><path fill="#053f6e" d="m450 478 2 8q3 7 6 9l-6-8v-1z"/><path fill="#064172" d="m451 478 2 8v1l6 8-6-8v-1z"/><path fill="#00209f" d="m451 478 2 8 1 1 5 8-5-8-1-1z"/><path fill="#022743" d="m450 475 2 5q3 6 7 9-4-2-7-9z"/><path fill="#022847" d="m450 475 3 7 6 7-6-7z"/><path fill="#032a4a" d="m450 474 3 8 6 7-6-7z"/><path fill="#032c4d" d="m450 474 3 8 6 6v1q-3-1-6-7z"/><path fill="#032f53" d="m450 474 3 8 6 6v1q-3-1-6-7z"/><path fill="#033156" d="m450 474 4 8 5 6v1q-3-1-6-7z"/><path fill="#043359" d="m450 474 4 8 5 6v1l-6-7z"/><path fill="#04355c" d="m450 474 4 8 5 6v1q-3-1-5-7z"/><path fill="#043760" d="m450 474 9 14v1l-5-7z"/><path fill="#043963" d="m450 474 4 7q3 7 5 7v1l-5-7z"/><path fill="#053b67" d="m450 474 9 14v1l-5-8z"/><path fill="#053e6c" d="m450 474 9 14q-2 0-5-7z"/><path fill="#053f6f" d="M451 474q0 3 3 7l5 7q-2 0-5-7z"/><path fill="#064172" d="M451 474q0 4 3 7l5 7-5-7z"/><path fill="#00209f" d="m451 474 3 7 5 7zm16 17 4 2zm0 4 4-1z"/><path fill="#064171" d="m467 491 4 1v1z"/><path fill="#053e6c" d="m467 491 4 2z"/><path fill="#053b67" d="m467 491 4 2z"/><path fill="#043862" d="m467 492 4 1z"/><path fill="#04355c" d="m467 492 4 1z"/><path fill="#043258" d="m467 492 4 1z"/><path fill="#032f53" d="m467 492 4 1z"/><path fill="#032c4d" d="m467 492 4 1z"/><path fill="#022a49" d="M467 493h4z"/><path fill="#064171" d="m467 495 4-2v1z"/><path fill="#053e6c" d="m467 494 4-1v1z"/><path fill="#053b67" d="m467 494 4-1z"/><path fill="#043862" d="m467 494 4-1z"/><path fill="#04355c" d="m467 494 4-1z"/><path fill="#043258" d="m467 494 4-1z"/><path fill="#032f53" d="M467 493h4z"/><path fill="#032c4d" d="M467 493h4z"/><path fill="#022a49" d="M467 493h4z"/><path fill="#022743" d="M467 493h4z"/><path fill="#032b4c" d="M471 531h-3l-9-2 9 2z"/><path fill="#032e50" d="M471 531h-3l-9-2 9 2z"/><path fill="#033054" d="M471 531h-3l-9-2z"/><path fill="#043359" d="M471 531h-3l-9-2z"/><path fill="#04355c" d="M471 531h-3l-9-2 9 2z"/><path fill="#043760" d="m471 531-3 1-8-2v-1l8 2z"/><path fill="#053a65" d="m471 531-3 1-8-2v-1l8 3z"/><path fill="#053c68" d="m471 531-3 1-8-2 8 2z"/><path fill="#053f6e" d="m471 531-3 1-8-2 8 2z"/><path fill="#064172" d="m471 531-3 1-8-2 8 2z"/><path fill="#00209f" d="m460 530 8 2 3-1-3 1z"/><path fill="#022a49" d="m472 537 5 2h2l2-1v1h-4z"/><path fill="#032d4f" d="m472 537 5 1 2 1 2-1v1h-4z"/><path fill="#033054" d="m472 537 5 1 2 1 2-1v1h-4z"/><path fill="#043359" d="m472 537 5 1h4v1h-2l-2-1v1z"/><path fill="#043760" d="m471 537 6 1h4l-2 1-1-1h-1z"/><path fill="#053a65" d="m471 536 6 2h3-3z"/><path fill="#053d6a" d="m471 536 6 2h3-3z"/><path fill="#064171" d="m471 536 6 2h3-3z"/><path fill="#022743" d="m473 537 4 2h5-5z"/><path fill="#00209f" d="m471 536 6 2h3-3zm20 4 4-1 2-4-2 4h-2zm-1-1 3-1q4-1 3-3h1l-4 3z"/><path fill="#053e6c" d="m490 539 2-1h1l2-1 1-1v-1h1l-1 1-1 1-2 1h-1z"/><path fill="#043862" d="m490 539 3-1 2-1 1-1 1-1-1 1-1 2h-2z"/><path fill="#043258" d="M490 539h1l2-1h2l1-2 1-1-1 2-1 1h-2l-1 1z"/><path fill="#032c4d" d="m489 539 4-1h2l1-1 1-2-1 2-1 1h-2z"/><path fill="#053e6c" d="m490 540 3-1 2-1 2-1v-2 2l-2 2h-2z"/><path fill="#043862" d="m490 540 5-2 1-1 1-2v2l-2 1z"/><path fill="#043258" d="m490 540 6-3 1-2v2l-2 1z"/><path fill="#032c4d" d="m489 540 6-2 1-1 1-2-1 2-1 1z"/><path fill="#022743" d="m489 540 6-2 1-1 1-2-1 2-1 1z"/><path fill="#032b4c" d="M496 535h-3l-9-2 9 1z"/><path fill="#032e50" d="M496 535h-3l-9-2 9 2z"/><path fill="#033054" d="M496 535h-3l-9-2 9 2z"/><path fill="#043359" d="M496 535h-3l-9-2z"/><path fill="#04355c" d="M496 535h-3l-9-2 9 2z"/><path fill="#043760" d="M496 535h-3l-9-2 9 2z"/><path fill="#053a65" d="m496 535-3 1-9-3 9 2z"/><path fill="#053c68" d="m496 535-3 1-9-3 9 2z"/><path fill="#053f6e" d="m496 535-3 1-9-2v-1l9 3z"/><path fill="#064172" d="m496 535-3 1-9-2v-1l9 3z"/><path fill="#00209f" d="m484 533 9 3 3-1-3 1z"/><path d="M462 483v-24l1-15v-1l20 29-20-29v4l-1 12zm-7 41q-2-1-2-3l-1-2v-6l-1-2-1-5-1-6v-28l22 21-21-21v4l-1 11v13l1 6 1 5 1 2v4l1 2v2zm43 11-1 2v1h-1v1h-1l-1 1h-2l-3 1h-3l-1 1h-1l-8-1-4-2-4-3-3-2h-1l-1-1-2-2-2-2 2 1 2 3 1 1h1l3 2 4 2 4 3h13l1-1h4l1-1 1-1h1v-1z"/><path fill="#fc0" d="m472 492-22-21 1-1z"/><path d="m472 492-22-21 1-1zm0 0-22-21-1 1z"/><path fill="#fc0" d="m449 471 1-3 2 1-1 1zq2-1 1-2v-1h-1z"/><path d="m449 471 1-3 2 1v1l-1 1zm0 0h1l1-1v-1h-1zm1-3 1 1-1 1-1 1 1-1h1v-1zl-1 3z"/><path fill="#fc0" d="m449 471-2 1v1l1 1 1-2zv2h-2v-2z"/><path d="M449 471v2h-2v-2zm0 0-2 1v1l1 1v-1l1-1zm0 0-2 1v2h2zv2h-1l-1-1v-1z"/><path fill="#fc0" d="m444 467 4 1 1 3h-3z"/><path d="m444 467 4 1 1 3h-3v-1zm3 4h2l-1-3-3-1zm-1-3 2 1v1h-1zm0 1 1 1h1v-1z"/><path fill="#fc0" d="m449 473 1-1zl1 3h-2v-3"/><path d="M450 472v1l1 3h-2l-1-1h1v-2zm-1 1v3h2zm1-1v3zh-1zm0 2v2zm0 1"/><path fill="#fc0" d="M483 471v1l-20-30h1z"/><path d="M483 471v1l-20-30h1zm0 0-19-29h-1z"/><path fill="#fc0" d="m464 442 1-2h2v2zl1-1v-1h-1z"/><path d="m464 442 1-3 2 1v2zm0 0h1v-2h-2zm0 0v-2h2v2zh1v-2h-2zm0 0"/><path fill="#fc0" d="M463 442h-2v2q2 1 2-1zl-1 2h-1v-2z"/><path d="M463 442v1h-1v1l-1-1v-2zm-2 0v1h1l1-1v-1zm2 0h-2v2l1 1v-1l1-1zl-1 1h-1v-2zm0 0h1zm0 0"/><path fill="#fc0" d="m459 436 4 3v3l-2-1z"/><path d="m459 436 4 3v3l-2-1zm1 1 1 4 2 1v-3zm1 1 1 2v1l-1-1zm0 1v1l1 1v-1zm0 1"/><path fill="#fc0" d="m463 444 1-1zv3h-2v-2z"/><path d="m463 444 1-1zv3h-2v-2zm0 0v1l1 1h1zm1-1h1v3-2zm-1 1v3zm0 2"/><path fill="#fff" d="m525 497-6-13 1-12 7-8 1 19z"/><path fill="#00209f" d="m519 484-3-7 4-5zm17 10-9 6-2-3 3-15-1-18 8-10v4l1 12 1 4v16zm-6 15-3-8 5-3v6zm14 29-7-15 3-12v-5l-1-13 10-6v15l1 5-1 8-1 6-1 7-1 4-1 3zm-16 2 12 1-5 3-1 1-7 2-5 1-8-2-2-1-2-1-2-1-4-2-1-1-1-1v-1h-1v-3l1 1 1 1 3 3 3 1 1 1h1l2 1 4 1q4 0 5-2zm-13-2-5 2h-4l-3-3-1-1z"/><path fill="#fff" d="m515 538 13 2-6 2a8 8 0 0 1-9 1l-2-1h-1l-1-1-3-1h4z"/><path fill="#022743" d="m535 460-2 8q-2 9-5 7 3 2 5-7z"/><path fill="#022847" d="M528 475q3 2 5-7l2-8-2 8q-2 7-5 7"/><path fill="#032b4c" d="M528 475q3 0 5-7l2-8-2 8q-2 7-5 7"/><path fill="#032d4f" d="M528 475q3 0 5-7l2-7v-1 1l-2 7q-2 7-5 7"/><path fill="#032f53" d="M528 475q3 0 5-7l2-8-2 8q-2 7-5 7"/><path fill="#043258" d="M528 475q3 0 5-7l2-8-2 8q-2 6-5 7"/><path fill="#04345b" d="M528 475q3-1 5-7l2-8-2 8q-2 6-5 7"/><path fill="#04365e" d="M528 475q3-1 5-7l2-8-2 7q-3 7-5 8"/><path fill="#043862" d="M528 475q3-1 5-8l2-7-2 7q-2 7-5 8"/><path fill="#053b67" d="M528 475q2-1 5-8l2-7-2 7q-2 6-5 8"/><path fill="#053d6a" d="M528 475q3-2 5-8l2-7-2 7z"/><path fill="#053f6e" d="m528 475 5-8 2-7-2 7z"/><path fill="#064172" d="m528 475 5-8 2-7v-1l-2 8q-2 6-5 7z"/><path fill="#00209f" d="m535 459-2 8h-1q-2 6-4 7v1l5-8z"/><path fill="#022743" d="m534 456-2 6q-3 6-5 5 2 2 5-4z"/><path fill="#022a49" d="M527 467q2 2 5-4l3-7h-1l-2 7q-3 5-5 4"/><path fill="#032d4f" d="M527 467q2 2 5-4l3-7h-1l-2 6q-3 6-5 5"/><path fill="#033054" d="M527 467q2 1 5-5l3-6h-1l-2 6q-3 6-5 5"/><path fill="#043359" d="M527 467q2 1 5-5l3-6h-1l-2 6q-3 6-5 5"/><path fill="#043760" d="m527 467 2-1 3-4 3-6h-1l-3 6-2 4z"/><path fill="#053a65" d="m527 467 2-1 3-4 2-6-3 6-2 4z"/><path fill="#053d6a" d="m527 467 2-1 3-4 2-6-3 6-2 4z"/><path fill="#064171" d="m527 467 2-1 2-4 3-6-3 6-2 4z"/><path fill="#00209f" d="m534 456-3 6-4 5 4-5zm-14 23-4-1zm0-4-4 2z"/><path fill="#064171" d="m520 475-4 2z"/><path fill="#053e6c" d="m520 475-4 2z"/><path fill="#053b67" d="m520 475-4 2z"/><path fill="#043862" d="m520 476-4 1z"/><path fill="#04355c" d="m520 476-4 1z"/><path fill="#043258" d="m520 476-4 1z"/><path fill="#032f53" d="m520 476-4 1z"/><path fill="#032c4d" d="m520 476-4 1z"/><path fill="#022a49" d="M520 477h-4z"/><path fill="#064171" d="m520 479-4-1z"/><path fill="#053e6c" d="m520 479-4-1z"/><path fill="#053b67" d="M520 478h-4z"/><path fill="#043862" d="M520 478h-4z"/><path fill="#04355c" d="m520 478-4-1v1z"/><path fill="#043258" d="m520 478-4-1v1z"/><path fill="#032f53" d="m520 478-4-1z"/><path fill="#032c4d" d="M520 477h-4z"/><path fill="#022a49" d="M520 477h-4z"/><path fill="#022743" d="M520 477h-4zm16 4-1 5-6 6 7-6z"/><path fill="#022847" d="m529 492 5-4 1-2 1-5-1 4-1 3z"/><path fill="#032b4c" d="m529 492 5-4 1-3 1-4v-1l-1 5-1 3z"/><path fill="#032d4f" d="m529 492 5-4 1-3 1-5-1 5-2 3z"/><path fill="#032f53" d="m528 492 5-4 2-3 1-5-1 5-2 2q-2 4-5 5"/><path fill="#043258" d="m528 492 5-4v-1l2-2 1-5-1 5-2 2v1z"/><path fill="#04345b" d="m528 492 5-4v-1l2-2 1-5-1 5-2 2v1z"/><path fill="#04365e" d="m528 492 4-4 1-1 2-2 1-5-2 5-1 2-1 1z"/><path fill="#043862" d="m528 492 4-4 1-1 2-2 1-5-2 5-1 2-1 1z"/><path fill="#053b67" d="m528 492 4-4 1-1 1-2 2-5-2 5-1 2-1 1z"/><path fill="#053d6a" d="m528 492 5-5 1-2 2-5-2 4-2 4z"/><path fill="#053f6e" d="m528 492 5-5 1-3 2-4-4 7-1 1z"/><path fill="#064172" d="m528 492 4-5 2-3 2-4v-1l-5 9z"/><path fill="#00209f" d="m536 479-8 13 3-4 1-1z"/><path fill="#011d33" d="m536 494-9 6-2-3 1-3-1 3 2 3z"/><path fill="#011e34" d="m536 494-9 6-2-4v-1l1-1-1 1v2l1 3h1z"/><path fill="#022037" d="m536 494-9 6-2-4 1-2-1 2 1 4h1z"/><path fill="#022139" d="m536 494-9 6-1-2-1-1v-1l1-1v-1l-1 1v2l1 1v2h1z"/><path fill="#02223b" d="m536 494-9 6-2-4v-1l1-1-1 1v1l1 4h1z"/><path fill="#02233d" d="m536 494-9 5-1-2-1-1 1-1v-1l-1 1v1l1 1v2l1 1z"/><path fill="#022540" d="m536 494-9 5-1-2v-1h-1l1-1v-1l-1 1v1l1 1v2l1 1v-1z"/><path fill="#022541" d="m536 494-9 5-1-3v-2l-1 1v1l1 1v2h1z"/><path fill="#022743" d="m536 494-9 5-1-2v-3 5h1z"/><path fill="#022847" d="m536 494-9 5-1-3v-2 5h1z"/><path fill="#022a49" d="m536 494-9 5-1-2v-3 2l1 3z"/><path fill="#032a4a" d="m536 494-9 5v-1l-1-2v-2 5h1z"/><path fill="#032b4c" d="m536 494-9 4-1-2v-2 5h1z"/><path fill="#032d4f" d="m536 494-9 4-1-2v-2 2l1 3z"/><path fill="#032e50" d="m536 494-9 4-1-2v-2 4h1z"/><path fill="#032f53" d="m536 494-9 4-1-2v-2 4h1z"/><path fill="#033156" d="m536 494-9 4-1-2v-2 4h1z"/><path fill="#043258" d="m536 494-9 4h-1l1-3h-1v-1 4h1z"/><path fill="#043359" d="m536 494-9 4-1-1 1-2v-1h-1v4h1z"/><path fill="#04355c" d="m536 494-9 4-1-1 1-2v-1h-1v1h1l-1 2v1h1z"/><path fill="#04365e" d="m536 494-9 3h-1l1-3h-1 1l-1 3v1h1z"/><path fill="#043760" d="m536 494-9 3h-1l1-3h-1 1-1 1l-1 3h1z"/><path fill="#043862" d="m536 494-9 3h-1l1-3h-1 1l-1 3z"/><path fill="#053a65" d="m536 494-4 2-5 1h-1l1-3h-1 1l-1 3 6-1z"/><path fill="#053b67" d="m536 494-4 2-5 1h-1l1-3h-1 1l-1 3 6-1z"/><path fill="#053c68" d="m536 494-4 2-5 1-1-1 1-2h-1 1l-1 2v1l6-1z"/><path fill="#053e6c" d="m536 494-4 2-5 1-1-1 1-2h-1 1l-1 2v1l6-1z"/><path fill="#053f6e" d="m536 494-4 2h-6l2-2-1-1v1h-1 1l-1 2v1l6-1z"/><path fill="#053f6f" d="M536 494q-7 3-9 2h-1l1-2h1v-1h-1v1h-1 1l-1 2q3 2 10-2"/><path fill="#064171" d="m536 494-4 1q-5 3-5 1h-1l2-3h-1v1-1 1h-1 1l-1 2h6z"/><path fill="#064374" d="M536 494q-7 3-8 2h-1l2-3h-1l-1 1h1v-1l-1 3q2 2 10-2"/><path fill="#00209f" d="m536 494-5 2h-5l2-3h-1l-1 1 1-1-1 3 2 1 3-1z"/><path fill="#011d33" d="m537 523 7 15 1-2 1-3v-1l1-4v-2l2-5h-1l-1 5v2l-1 4v1l-1 2-1 3zm11-2-1 5v2l-1 3v2l-1 2-1 2h-1v-2l-3-5-3-8v1l1 2 2 5 4 8 1-3 1-2v-1l1-4v-2z"/><path fill="#011e34" d="m548 521-1 4v3l-1 3v2l-1 2-1 2-1-2-2-4-4-8 4 8 3 7 1-3 1-2v-2l1-3v-3zm0 0-1 5-1 3v4l-1 2-1 2-1-1-1-2-2-6-3-5 2 5 5 9 1-2 1-2v-2l1-3v-2z"/><path fill="#011f36" d="m548 521-1 4-1 4v4l-1 2-1 2-4-8-3-6 3 6 4 8 1-2 1-2v-2l1-3v-2zm0 0-1 4v2l-1 4v1l-1 3-1 2-1-1v-1l-2-5-4-8v1l4 8 3 6 1-2 1-3v-1l1-2v-3z"/><path fill="#022037" d="m548 521-1 5v1l-1 4v1l-1 3-1 2-4-7-3-8v1l3 7 4 7 1-2 1-3v-1l1-2v-3zm0 0-1 5v1l-1 4v1l-1 2-1 3-4-8-3-6 3 6 4 8 1-2 1-3v-1l1-2v-3z"/><path fill="#022139" d="m548 521-1 4v2l-1 2v3l-1 2-1 2-4-7-3-6 3 6 4 8 1-3 1-2v-1l1-4v-1zm0 0-1 4v2l-1 4-1 3-1 2-4-7-3-6 7 13 1-2 1-2v-1l1-4v-1zm0 0-1 5v1l-1 4v1l-1 2-1 2-7-14v1l7 13 1-2 1-2v-1l1-4v-1z"/><path fill="#02223b" d="m548 521-1 5v1l-1 2v2l-1 3-1 2-7-14v1l7 13 1-2 1-3 1-2v-3zm0 0-1 6-1 2v2l-1 3-1 2-7-13 7 13 1-2 1-3v-1l1-1v-3z"/><path fill="#02233d" d="m548 521-1 4v2l-1 1v3l-1 3-1 2-7-13 7 13 1-2 1-3v-1l1-2v-2zm0 0-1 5v1l-1 1v2l-1 4-1 1-7-12 7 13 1-2 1-4 1-2v-2z"/><path fill="#02233e" d="m548 521-1 5v1l-1 3-1 3-1 2-7-12 7 12 1-2 2-6v-1zm0 0-1 5v1l-1 3-1 3-1 2-7-13v1l7 12 1-2 2-6v-1z"/><path fill="#022540" d="m548 521-1 4-1 3v2l-1 3-1 2-7-13v1l3 5 4 7 1-2 1-3 1-2v-3zm0 0-1 5v1l-1 3-1 3-1 2-7-13v1l3 5 4 7 1-2 2-6v-1zm0 0-1 5v1l-1 1v2l-1 3-1 2-7-13v1l3 5 4 7 1-2 1-3 1-3v-1z"/><path fill="#022541" d="m548 521-1 4v1l-1 2v2l-1 3-1 1-4-6-3-6v1l3 5 4 7 1-2 1-3 1-3v-2zm0 0-1 4v1l-1 2v1l-1 3v1l-1 1-4-6-3-6v1l3 5 4 6 1-1v-1l1-2 1-2v-3z"/><path fill="#022743" d="m548 521-1 5-1 3-1 3-1 2-4-6-3-6v1l3 5 4 6 1-1v-1h1v-3l1-3zm0 0-1 5-1 2v1l-1 3-1 2-4-6-3-6v1l3 5 4 6 1-2 1-3 1-3z"/><path fill="#022845" d="m548 521-1 5-1 3-1 3-1 2-4-6-3-6v1l3 5 4 6 1-2 1-3 1-3zm0 0-1 4v1l-1 3-1 2v1l-1 2-4-6-3-6v1l3 5 4 6 1-2 1-1v-2l1-3v-1z"/><path fill="#022847" d="m548 521-1 5-1 3-1 2v1l-1 1-4-5-3-6v1l3 5 4 6 1-2v-1l2-5zm0 0-1 5-1 1v2l-1 2v1l-1 1-4-6-3-5v1l3 4 4 7 1-2v-1l1-2 1-3zm0 0-1 5-1 1v2l-1 2v1l-1 1-4-6-3-5v1l3 4 4 6 1-1v-1l2-4v-1z"/><path fill="#022a49" d="m548 521-1 5-1 1v2l-1 2-1 2-4-6-3-5v1l3 4 4 6 1-1v-1l2-4v-1zm0 0-1 5-1 1v2l-1 2-1 2-4-6-3-5v1l3 4 4 6 1-2 2-4v-1z"/><path fill="#032a4a" d="m548 521-1 5-1 1v1l-1 3-1 2-4-6-3-5v1l3 4 4 6 1-2 1-2v-1l1-1v-1zm0 0-1 5-1 1v1l-1 2v1l-1 2-4-6-3-5v1l3 4 4 6 1-2 1-1v-2l1-2z"/><path fill="#032b4c" d="m548 521-1 5-1 2-1 2v1l-1 1-4-5-3-5v1l3 4 4 6 1-2 1-1v-2l1-2zm0 0-1 5-1 1-1 3v1l-1 1-4-5-3-5v1l3 4 4 5 1-1v-1l2-4z"/><path fill="#032c4d" d="m548 521-1 4-1 2v1l-1 2v1l-1 1-4-5-3-5v1l3 4 4 5 1-1v-1l1-2 1-2zm0 0-1 4-1 1v2l-1 2-1 2-4-5-3-5v1l3 4 4 5 1-1v-1l2-3v-1zm0 0-1 4-1 3-1 1v1l-1 2-4-5-3-5v1l3 4 4 5 1-2 1-2 1-3z"/><path fill="#032d4f" d="m548 521-1 4-1 1v2l-1 2-1 2-4-5-3-5v1l3 4 4 5 1-2 2-4v-1zm0 0-1 4-1 1v2l-1 1v1l-1 1-4-4-3-5v1l3 4 4 5 1-2 1-1 1-3v-1z"/><path fill="#032e50" d="m548 521-1 4-1 1v2l-1 1v1l-1 1-4-5-3-4v1l3 4 4 4 1-1v-1l1-1 1-2v-1zm0 0-1 4-1 1v1l-1 2v1l-1 1-4-5-3-4v1l3 3 4 5 1-1v-1l1-1 1-2v-1z"/><path fill="#032f53" d="m548 521-1 4-1 1v1l-1 2v1l-1 1-4-5-3-4v1l3 3 4 5 1-1v-1l2-3v-1zm0 0-1 4-1 1v1l-1 2-1 2-4-5-3-4v1l3 3 4 5 1-1v-1l1-2 1-1v-1z"/><path fill="#033054" d="m548 521-1 4-1 1v1l-1 1v1l-2 2-3-5-3-4v1l3 3 4 5 1-1 1-1v-2l1-2zm0 0-1 4-1 1v1l-1 2-2 1-3-4-3-4v1l3 3 4 5 1-2 1-2 1-2zm0 0-1 4-1 2-1 1v1l-2 1-3-4-3-4v1l3 3 4 4 1-1v-1l1-1 1-2z"/><path fill="#033156" d="m548 521-1 4-1 2-1 1v1l-2 1-3-4-3-4v1l3 3 4 4 1-1v-1l1-1 1-1v-1zm0 0-1 4-1 2-1 1v1l-2 1-3-4-3-4v1l3 3 4 4 1-1v-1l1-1 1-2z"/><path fill="#043258" d="m548 521-1 4-1 2-1 1v1l-2 1-3-4-3-4v1l3 3 4 4 1-1 1-2 1-2zm0 0-1 3v1l-1 1-1 2v1l-2 1-3-4-3-4v1l2 3 5 4 1-1v-1l1-1 1-2z"/><path fill="#043359" d="m548 521-1 3-1 1v1l-1 2-2 2-3-4-3-4v1l2 3 5 4 1-1v-1l1-1 1-2zm0 0-1 3v1l-1 1-1 1v1l-2 1-3-3-3-4v1l3 3 3 4 2-2 1-2 1-1z"/><path fill="#04345b" d="m548 521-1 3v1l-1 1-1 1v1l-2 1-3-4-3-3v1l2 3 4 3 2-1 1-2 1-1v-1zm0 0-1 3v1l-1 1-1 1v1l-2 1-3-4-3-3v1l2 2 4 4 2-1v-1l1-1 1-1v-1zm0 0-1 3v1l-1 1-1 1v1l-2 1-4-4-2-3v1l2 2 4 4 2-1v-1l1-1 1-1v-1z"/><path fill="#04355c" d="m548 521-1 3v1l-1 1-1 1v1l-2 1-4-4-2-3v1l2 2 4 4 2-1v-1l1-1 1-1v-1zm0 0-1 3-1 2-1 1v1l-2 1-4-4-2-3v1l2 2 4 4 2-1v-1l1-1 1-1v-1z"/><path fill="#04365e" d="m548 521-1 3v1l-1 1-1 1-2 1-4-3-2-3v1l2 2 4 4 2-1v-1l1-1 1-1v-1zm0 0-1 3-1 2-1 1-2 1-4-3-2-3v1l2 2 4 3 2-1 1-1 1-2z"/><path fill="#043760" d="m548 521-1 3-1 2h-1v1l-2 1-4-3-2-3v1l2 2 4 3 2-1 1-1 1-2zm0 0-1 3h-1v1l-1 1v1l-2 1-4-3-2-3v1l2 2 4 3 2-1v-1h1l1-2z"/><path fill="#043862" d="m548 521-1 3-1 1-1 1v1l-2 1-4-3-2-3v1l2 2 4 3 2-1v-1l1-1 1-1zm0 0-1 3h-1v1l-1 1v1l-2 1-4-3-2-3v1l2 2 4 3 2-1v-1l1-1 1-1zm0 0-1 3-1 1-1 1v1h-2l-4-3-2-2v1l2 2 4 3 2-1v-1l1-1 1-1z"/><path fill="#043963" d="m548 521-1 2v1l-1 1-1 1-2 1-4-3-2-2v1l2 2 4 2h2v-1l1-1 1-1zm0 0-1 2-1 1v1l-1 1-2 1-4-3-2-2v1l2 1 4 3 2-1 1-1 1-1z"/><path fill="#053a65" d="m548 521-1 2v1l-1 1-1 1-2 1-4-3-2-2v1l2 1 4 3 2-1 1-1 1-1zm0 0-1 2-1 1v1l-1 1-2 1-4-3-2-2v1l2 1 4 3 2-1 1-1 1-2z"/><path fill="#053b67" d="m548 521-1 2v1l-1 1h-1v1l-2 1-4-3-2-2v1l2 1 4 3 2-1 1-1 1-1v-1zm0 0-1 2-1 1-1 1v1h-2v1l-4-3-2-2v1l2 1 4 3 2-1v-1h1l1-1v-1z"/><path fill="#053c68" d="m548 521-1 2v1h-1l-1 1v1h-2l-4-2-2-2v1l2 1 4 2h2v-1h1l1-2zm0 0-1 2-1 1-1 1-2 1-4-2-2-2v1l2 1 4 2h2v-1l1-1h1v-1zm0 0-1 2-1 1-1 1-2 1-4-2-2-2v1l2 1 4 2h2v-1l1-1 1-1z"/><path fill="#053d6a" d="m548 521-1 2-1 1-1 1-2 1-5-2-1-2v1l1 1 5 2 2-1 1-1 1-1zm0 0-1 2-1 1-1 1-2 1-5-3-1-1v1l1 1 5 2 2-1 1-1 1-1z"/><path fill="#053e6c" d="m548 521-1 2-1 1h-1v1l-2 1-5-3-1-1v1h1l5 3 2-1 1-1 1-1zm0 0-1 2h-1v1h-1v1h-2l-5-2-1-1v1h1l5 3 2-1 1-1 1-1z"/><path fill="#053f6e" d="m548 521-1 2h-1v1h-1v1h-2l-5-2-1-1v1h1q4 3 5 2h2v-1h1v-1h1zm0 0-1 2-1 1h-2l-1 1-6-2v-1 1l6 2h2v-1h1l1-1z"/><path fill="#053f6f" d="m548 521-1 2h-1l-1 1h-1l-1 1-6-3v1l6 2h2v-1h1l1-1zm0 0-1 1-1 1-1 1h-1l-1 1-6-3v1l6 2 2-1h1l1-1zm0 0-1 1-1 1-1 1h-1l-1 1-6-3v1l6 2 2-1 1-1h1z"/><path fill="#064171" d="m548 521-1 1v1h-1l-1 1h-2q-1 1-6-2v1l6 2 2-1 1-1h1zm0 0-1 1-1 1-1 1h-2q-1 1-6-2v1q5 2 6 1h2l2-1v-1z"/><path fill="#064172" d="m548 521-1 1-1 1-1 1h-2q-3 1-6-2v1q3 2 6 1h2l1-1 1-1zm0 0-1 1-1 1h-1l-1 1h-1q-3 1-6-2v1l6 1h2v-1h1l1-1z"/><path fill="#064374" d="m548 521-1 1-1 1h-2l-1 1q-3 1-6-2v1l6 1h2l1-1 1-1zm0 0-1 1-1 1h-2l-1 1q-3 1-6-2v1l6 1 1-1h2l1-1z"/><path fill="#00209f" d="m548 521-1 1-1 1h-3q-3 2-6-1v1l6 1 1-1h2zm0 0-3 2q-5 2-8-1v1h8z"/><path fill="#022743" d="m549 499-2 10q-2 6-6 6v1q5-1 6-7z"/><path fill="#022a49" d="m549 499-2 10q-2 5-6 6 4 0 6-6z"/><path fill="#032b4c" d="m549 499-2 10q-2 5-6 6 5-1 6-6z"/><path fill="#032e50" d="m549 499-2 9q-3 6-6 7l6-6z"/><path fill="#033054" d="m549 499-2 9q-3 6-6 7 3-1 6-7z"/><path fill="#043359" d="m549 499-2 9-6 7q4-1 6-7z"/><path fill="#04355c" d="m549 499-3 9-5 7 6-7z"/><path fill="#043760" d="m548 499-2 9-5 7 5-7h1z"/><path fill="#053a65" d="m548 499-2 9-5 7 5-7z"/><path fill="#053c68" d="m548 498-2 10-5 7 5-7z"/><path fill="#053f6e" d="m548 498-2 10-5 7 5-7z"/><path fill="#064172" d="m548 498-2 10-6 7h1l5-7z"/><path fill="#00209f" d="m548 498-2 10-6 7h1l5-7z"/><path fill="#022743" d="m548 493-1 7q-3 6-7 8 4-2 7-8z"/><path fill="#022a49" d="m548 493-2 8q-3 6-6 7 5-1 6-7z"/><path fill="#032b4c" d="m548 493-2 8q-3 6-6 7 3-1 6-7 3-5 2-8"/><path fill="#032e50" d="m548 493-2 8-6 7q3-1 6-7z"/><path fill="#033054" d="m548 493-2 8-6 7 6-7z"/><path fill="#043359" d="m548 493-2 7-6 8 6-7z"/><path fill="#04355c" d="m548 493-2 7-6 8 6-8z"/><path fill="#043760" d="m548 493-2 7-6 8 6-8z"/><path fill="#053a65" d="m548 493-2 7h-1q-2 6-5 8l6-8z"/><path fill="#053c68" d="M548 493q0 3-3 7l-5 8q3-2 5-7l1-1z"/><path fill="#053f6e" d="m548 493-3 7-5 8 5-7v-1z"/><path fill="#064172" d="M548 493q0 3-3 7v1l-5 7 5-7v-1q3-3 3-7"/><path fill="#00209f" d="m548 493-3 8-5 7 5-8z"/><path fill="#022743" d="m548 489-2 6-6 6 6-6z"/><path fill="#022847" d="m548 489-3 7-5 5q3-1 5-5 3-3 3-7"/><path fill="#032a4a" d="m548 489-3 7-5 5 5-5q3-3 3-7"/><path fill="#032c4d" d="m548 489-3 7-5 5 5-5q3-3 3-7"/><path fill="#032f53" d="m548 489-3 7-5 5 5-5z"/><path fill="#033156" d="m548 489-3 7-5 5 5-5z"/><path fill="#043359" d="m548 489-3 7-5 5 5-5z"/><path fill="#04355c" d="m548 489-3 7-5 5 5-5z"/><path fill="#043760" d="m548 489-3 6-5 6 5-5z"/><path fill="#043963" d="m548 489-3 6-5 6 5-5z"/><path fill="#053b67" d="m548 489-3 6-5 6 5-6z"/><path fill="#053e6c" d="m548 489-3 6-5 6 5-6z"/><path fill="#053f6f" d="m548 489-4 6-4 6 5-6z"/><path fill="#064172" d="m548 489-4 6-4 6 4-6z"/><path fill="#00209f" d="m548 489-4 6-4 6zm-16 12h-5zm-1 4-3-3h-1z"/><path fill="#064171" d="M532 501h-4z"/><path fill="#053e6c" d="M532 501h-5z"/><path fill="#053b67" d="M532 501h-5z"/><path fill="#043862" d="m532 502-5-1z"/><path fill="#04355c" d="m532 502-5-1z"/><path fill="#043258" d="m532 502-5-1v1z"/><path fill="#032f53" d="m532 502-5-1v1z"/><path fill="#032c4d" d="m532 502-5-1v1z"/><path fill="#022a49" d="m532 503-5-2v1z"/><path fill="#064171" d="m531 505-4-3z"/><path fill="#053e6c" d="m531 504-4-2z"/><path fill="#053b67" d="m531 504-4-2z"/><path fill="#043862" d="m531 504-4-2z"/><path fill="#04355c" d="m531 504-4-2z"/><path fill="#043258" d="m531 504-4-2z"/><path fill="#032f53" d="m531 503-4-1z"/><path fill="#032c4d" d="m532 503-5-1z"/><path fill="#022a49" d="m532 503-5-2v1z"/><path fill="#022743" d="m532 503-5-2v1z"/><path fill="#032b4c" d="M528 540h2l9 2v-1l-9-1z"/><path fill="#032e50" d="M528 540h2l9 2v-1l-9-1z"/><path fill="#033054" d="m528 540 2 1 9 1v-1l-9-1z"/><path fill="#043359" d="m528 540 2 1 9 1v-1z"/><path fill="#04355c" d="m528 540 2 1 9 1v-1h-9z"/><path fill="#043760" d="m528 540 2 1 9 1-9-1z"/><path fill="#053a65" d="m528 540 2 1 9 1-9-1z"/><path fill="#053c68" d="m528 540 2 1 9 1-9-1z"/><path fill="#053f6e" d="m527 540 3 2h9l-8-1z"/><path fill="#064172" d="m527 540 4 2h8-8z"/><path fill="#00209f" d="M539 542h-8l-3-2h-1l4 2z"/><path fill="#022a49" d="m526 545-4 1v-1h-3l-2-1 2 1h1l2 1z"/><path fill="#032d4f" d="M526 545h-7l-2-1 2 1 3 1z"/><path fill="#033054" d="M526 545h-7l-2-1 2 1h8z"/><path fill="#043359" d="M527 545h-8l-1-1v1z"/><path fill="#043760" d="M527 545h-8l-1-1 2 1z"/><path fill="#053a65" d="M527 545h-7l-1-1h-1l1 1z"/><path fill="#053d6a" d="M527 545h-5l-2-1h-2l1 1z"/><path fill="#064171" d="M528 545h-7l-2-1h-1 1l2 1z"/><path fill="#022743" d="M526 546h-4l-3-1-2-1 2 1 3 1z"/><path fill="#00209f" d="M528 545h-7l-2-1 2 1zm-20-3-4-2q-3-1-3-4 0 3 3 4l1 1zm0-1-3-1-3-4 3 4z"/><path fill="#053e6c" d="m508 542-2-2h-1l-1-1-2-2v-1 1l1 2 2 1 1 1z"/><path fill="#043862" d="m509 542-4-2-1-1-2-2v-1 1l3 3z"/><path fill="#043258" d="m509 542-2-1-2-1-1-1-2-2v-1 1l2 2 1 1 2 1z"/><path fill="#032c4d" d="m509 542-4-2h-1v-1l-2-1v-2 2l2 1 1 1z"/><path fill="#053e6c" d="m508 542-2-1-2-1-2-2-1-2 1 2 2 2 2 1z"/><path fill="#043862" d="m508 542-4-2-2-2-1-2 1 2 2 2z"/><path fill="#043258" d="m509 543-5-3-2-2-1-2 1 2 2 2z"/><path fill="#032c4d" d="m509 543-5-4-2-1-1-2 1 2 2 2z"/><path fill="#022743" d="m509 543-5-4-2-1v-2h-1l1 2 2 1z"/><path fill="#032b4c" d="m503 536 2 1 10 1-10-2z"/><path fill="#032e50" d="m503 536 2 1 10 1-10-2z"/><path fill="#033054" d="m503 536 2 1 10 1-10-1z"/><path fill="#043359" d="m503 536 2 1 10 1z"/><path fill="#04355c" d="m503 536 2 1 9 1-9-1z"/><path fill="#043760" d="m503 536 2 1 9 1-9-1z"/><path fill="#053a65" d="m503 536 2 1 9 1-8-1z"/><path fill="#053c68" d="m503 536 3 2h8l-8-1z"/><path fill="#053f6e" d="m502 536 4 2h8-8z"/><path fill="#064172" d="m502 536 4 2h8-8z"/><path fill="#00209f" d="M514 538h-8l-3-2h-1l4 2z"/><path d="m536 494 1-3v-17l-1-4-1-16-19 23 19-23v4l1 12zm8 44 1-2 1-3v-1l1-2v-4l1-5 1-6 1-8-1-5v-15l-22 14v1l22-15v15l1 5-1 8-1 6-1 4v3l-1 2v3l-1 2zm-43-3v3h1v2h1v1h1l4 2 1 1h1l1 1h1l1 1h1l8 2 5-1 3-1 5-2 3-2 2-1-2 1-3 2h-1v1l-4 1-3 1-5 1-9-2-1-1h-1l-1-1h-1l-1-1-1-1-3-1-1-1-1-1v-1h-1z"/><path fill="#fc0" d="m527 500 22-14v1l-22 14z"/><path d="m526 500 1 2 22-15v-1zm1 1 22-15v1z"/><path fill="#fc0" d="m549 486-1-3-1 1zl-2-1v-2h2z"/><path d="M549 486v-4h-2v2l1 1zm0 0-1-1v-1l1-1v1zm-1-3-1 1v1l1 1h1-1l-1-1v-2zv2z"/><path fill="#fc0" d="m549 487 2 2v2l-1-1zl1 2v-2z"/><path d="m549 487 1 1v1h1l1-1v-1zm0 0 2 1v1h-1zm0 0 2 2 1 1-1 1h-1v-2zv1l1 1v-2z"/><path fill="#fc0" d="M550 486v1h-1v-1z"/><path d="M550 486v1h1zm0 0h-1v-1z"/><path fill="#fc0" d="m554 483-2 4-2-1v-2z"/><path d="m554 483-4 1-1 2h1l2 1v-1l1-1zm-2 4-2-1v-2h4l-1 1zm0-3-1 1-1 1h1zm0 1v-1z"/><path fill="#fc0" d="m549 488 1 2v2l-2-1z"/><path d="m549 487-1 1v3l2 1v-2l-1-2zm0 1 1 2v1h-2zm0 0-1 3zm0 1-1 2zm0 1v2z"/><path fill="#fc0" d="m515 476 20-23-19 24z"/><path d="m515 476 1 1 19-24zm0 0 20-23-19 24z"/><path fill="#fc0" d="m535 453-1-3h-1l-1 1 2 2zl-2-1-1-2h2z"/><path d="m535 453-1-3h-2v2h1v1zm0 0-1-1h-1l-1-1 1-1h1v1zm0 0-1-2v-1h-1l-1 1 1 1 1 1zh-2v-1l-1-1 2-1zm0 0"/><path fill="#fc0" d="m535 453 2 1 1 2h-2zl1 1 1 2 1-1-1-1z"/><path d="m535 453 1 2h2l-1-2zm2 1v1l-1-1v-1l-1-1zm-2-1 2 1 1 2h-2zv1h1v1l1 1 1-1-1-1zm0 0q2 0 0 0"/><path fill="#fc0" d="m539 449-1 4h-3v-3z"/><path d="m539 448-4 2v3h3zm0 1-1 4h-3v-3zm-1 1-2 1v1h1zm-1 0v2h-1v-1zm0 2"/><path fill="#fc0" d="M536 455v2l1 1h-2v-4z"/><path d="m536 455-1-1v4h2l-1-1zm0 0v2l1 1h-2v-4zm-1-1v3-4m0 2v3zm0 2h1z"/><path fill="#fc0" d="m499 441-46 87 93 14z"/><path d="m499 440 47 103-94-15zm0 1-46 87 92 14z"/><path fill="#fff" d="m499 447-42 79 84 13zm0 0 42 92-84-13zm0 0-42 79 84 12z"/><path fill="#007e93" d="m470 502-13 24 84 13-12-28zm0 0 59 9 12 28-84-13zm0 0-13 24 84 12-12-27z"/><path fill="#086aad" d="M492 461q3-3 7-2 6 1 8 4h-1q-1-3-7-4-4-1-7 2"/><path fill="#0863aa" d="M492 461q3-3 7-2 6 1 8 4l-8-4q-4 0-7 2"/><path fill="#095fa8" d="M492 461q3-3 7-2l8 4-8-4q-4 0-7 2"/><path fill="#0a58a5" d="M492 461q3-2 7-2 6 1 8 5-2-4-8-5-4-1-7 2"/><path fill="#0a52a2" d="M492 461q3-2 7-2 5 1 8 5-2-4-8-5-4 0-7 2"/><path fill="#0b4d9f" d="M492 461q2-3 7-2t8 5q-3-4-8-5-4 0-7 2"/><path fill="#0c479d" d="M492 461q2-2 7-2 5 1 8 5-2-3-8-5z"/><path fill="#270a7f" d="M491 462q3-3 8-2 6 1 9 6-3-5-9-6-5 0-8 2"/><path fill="#241183" d="M491 462q3-3 8-2 6 1 9 6-3-5-9-6-5-1-8 2"/><path fill="#221786" d="M491 462q3-3 8-2 6 1 9 5-3-4-9-5-5-1-8 2"/><path fill="#1f1f8a" d="M491 462q2-3 8-2 6 0 9 5-3-4-9-5-5-1-8 2"/><path fill="#1a258d" d="M491 462q3-3 8-2 6 0 9 5h-1q-2-4-8-5-5-1-8 2"/><path fill="#172d91" d="M491 462q3-3 8-3 6 2 8 6-2-5-8-5-5-1-8 2"/><path fill="#143393" d="M491 462q3-3 8-3 6 1 8 6-2-5-8-5-5-1-8 2"/><path fill="#113b97" d="M491 462q3-3 8-3 6 2 8 5v1q-3-5-8-5-5-1-7 2z"/><path fill="#ff0a00" d="m495 456 4-1 5 2-5-2z"/><path fill="#f10" d="m494 456 5-1 5 2-5-2z"/><path fill="#ff1500" d="m494 456 5-1 5 2-5-2z"/><path fill="#ff1a00" d="m494 456 5-1 5 2-5-2z"/><path fill="#ff2000" d="m494 456 5-1 5 2-5-2z"/><path fill="#ff2700" d="m494 456 5-1 5 2v1l-5-3z"/><path fill="#ff2f00" d="m494 456 5-1 5 3-5-3z"/><path fill="#f30" d="m494 456 5-1 5 3-5-2z"/><path fill="#ff3c00" d="m494 456 5-1 5 3-5-2q-3-1-5 1z"/><path fill="#ff4100" d="m494 456 5-1 5 3-5-2q-3-1-5 1z"/><path fill="#ff4600" d="M494 457q2-2 5-1l5 2-5-2z"/><path fill="#fff500" d="m493 459 6-2q5 1 6 4-1-3-6-4z"/><path fill="#ffeb00" d="m493 458 6-1 6 3v1q-1-3-6-4l-6 2z"/><path fill="#ffe000" d="m493 458 6-1 6 3-6-3z"/><path fill="#ffd600" d="m493 458 6-1q5 0 6 3l-6-3z"/><path fill="#ffcf00" d="m493 458 6-1q5 0 6 3l-6-3z"/><path fill="#ffc400" d="M493 458q3-2 6-1 5 0 6 3-2-3-6-3z"/><path fill="#ffba00" d="M493 458q3-2 6-1 4 0 6 3-2-3-6-3z"/><path fill="#ffb000" d="M493 458q3-2 6-1 4 0 6 3-2-3-6-3z"/><path fill="#ffa600" d="M494 458q2-2 5-1l6 2v1q-2-3-6-3-3-1-5 1"/><path fill="#ff9c00" d="M494 458q2-2 5-2l6 3-6-2q-3-1-5 1"/><path fill="#ff9100" d="m494 457 5-1 6 3-6-2q-3-1-5 1z"/><path fill="#ff8700" d="m494 457 5-1 6 3-6-3z"/><path fill="#ff7d00" d="m494 457 5-1 6 3-6-3z"/><path fill="#ff7500" d="m494 457 5-1 6 3-6-3z"/><path fill="#ff6b00" d="m494 457 5-1 6 3h-1l-5-3z"/><path fill="#ff6100" d="m494 457 5-1 6 2-1 1q-2-3-5-3z"/><path fill="#ff5700" d="M494 457q2-2 5-1l5 2-5-2z"/><path fill="#ebf605" d="M493 459q2-2 6-2l7 4h-1q-1-3-6-3-3-1-6 1"/><path fill="#d6ec09" d="M493 459q2-2 6-1 4 0 7 3-3-3-7-3-3-1-6 1"/><path fill="#c2e30e" d="M493 459q2-2 6-1 4 0 7 3-3-3-7-3-3-1-6 1"/><path fill="#add912" d="M493 459q2-2 6-1 4 0 7 3-3-3-7-3z"/><path fill="#99cf16" d="M493 459q2-2 6-1 4 0 7 3l-7-3z"/><path fill="#85c61a" d="M493 459q2-2 6-1 4 0 7 3v1l-7-4-6 2z"/><path fill="#70bc1f" d="M492 460q3-2 7-2t7 4l-7-4q-4-1-6 2z"/><path fill="#5cb323" d="M492 460q3-3 7-2l7 4-7-4q-4-1-6 2z"/><path fill="#47a928" d="M492 460q3-2 7-2l7 4-7-4q-4 0-7 2"/><path fill="#0d74a4" d="M492 461q3-3 7-2 6 0 7 4-2-3-7-4-4-1-7 2"/><path fill="#127a97" d="M492 460q3-2 7-1 5 0 7 4-2-3-7-4-4-1-7 2z"/><path fill="#17808b" d="M492 460q3-2 7-1 5 0 7 4-3-4-7-4-4-1-7 2z"/><path fill="#1a847d" d="m492 460 7-2q5 1 7 4v1q-3-4-7-4-4-1-7 1"/><path fill="#1e8a6d" d="m492 460 7-2 7 4q-3-3-7-3-4-1-7 1"/><path fill="#238f5e" d="m492 460 7-2 7 4q-3-3-7-3-4-1-7 1"/><path fill="#2b944e" d="M492 460q3-3 7-2l7 4-7-4z"/><path fill="#2f9b3e" d="M492 460q3-2 7-2l7 4-7-4z"/><path fill="red" d="m504 457-5-2-4 1v-1h4z"/><path fill="#2a007c" d="M508 466q-3-4-9-6-5-1-8 3v-1q3-3 8-2 6 1 9 6"/><path fill="#0671b0" d="M506 463q-2-3-7-4-4 0-7 2 3-3 7-2 6 0 8 4z"/><path fill="#0c419a" d="M507 464q-2-3-8-5-5 0-7 3l-1-1q3-3 8-2t8 5"/><path fill="#ff0" d="M505 461q-2-3-6-3-3-1-6 1 3-3 6-2z"/><path fill="#ff4d00" d="m504 458-5-2-5 1q3-2 5-1z"/><path fill="#33a02c" d="m506 462-7-4-7 2q3-3 7-2z"/><path fill="#fef2ec" d="M491 463q4-2 8-1 4 0 9 4l9 19q0 10-5 15-6 6-13 4-8-1-12-8-5-7-6-16zm0 0-9 17q0 9 5 16t12 8 13-4 5-15l-9-19q-4-3-9-4-4-1-8 1"/><path fill="#fef2ea" d="M499 462q5 1 9 4l4 10 5 9q0 9-5 15-6 5-13 4-8-1-12-8-5-7-5-16l4-8 5-9q4-2 8-1m0 0-8 1-1 1-1 2-3 6-4 8q0 9 5 16t12 8 12-4 6-15l-5-9-4-10z"/><path fill="#fef0e6" d="M499 462q4 1 9 5l4 9 4 9q1 9-5 14-5 6-12 5-7-2-12-8-5-7-5-16l5-8 4-8zm0 1q-4-1-8 1l-4 8-5 8q0 9 5 16 5 6 12 7 7 2 12-4 5-5 5-14l-4-9-4-9q-4-4-9-4"/><path fill="#feede3" d="M499 463q4 0 8 4l9 18q0 9-5 14t-12 4-12-8q-4-6-4-15l8-16zm0 0-8 1-4 8-4 8q0 9 5 15 5 7 11 8 7 0 12-4 5-5 5-14l-4-9-5-9z"/><path fill="#fee8dc" d="m499 464 8 4 8 17q0 9-5 13-4 5-11 4-6-1-11-7-5-7-5-15l9-15q4-2 7-1m0 0-7 1-9 15q1 8 5 15 5 6 11 7 7 0 11-4 5-5 5-13l-8-17z"/><path fill="#fee6d5" d="m499 464 8 4 8 17q-1 7-5 13-4 4-11 4-6-1-11-8-4-5-4-14l8-15zq4 0 8 3l7 17q0 7-4 13-4 5-11 3-6 0-11-7-4-5-4-14l8-14q4-2 7-1"/><path fill="#fee3cf" d="m506 469 8 16q-1 8-4 12-5 4-11 4-6-1-10-7t-5-13l4-8 4-7 7-1zm-7-4-7 1-7 15q0 7 4 13t10 6q6 2 10-3 5-4 5-12l-8-16z"/><path fill="#fee0cc" d="M499 466q4 0 7 3l7 16q0 7-4 12t-10 3-10-6-4-13l3-7 4-7q4-2 7-1m-7 1-7 14q0 7 4 12 4 6 10 7 6 0 10-4t4-11l-7-16q-4-3-7-3z"/><path fill="#fedec6" d="m499 466 7 4 7 15q0 7-4 11t-10 4-10-7l-4-12 4-7 4-7zm-6 2-4 6-3 7q0 6 4 12 3 6 9 6 6 1 10-3t4-11l-3-8-4-7q-4-3-7-3-3-1-6 1"/><path fill="#fdcdaa" d="M499 470q3 0 5 3l4 5 2 6q0 6-3 9-4 3-8 3-4-1-7-5l-4-10 3-5 3-5zm0 0-5 1-3 5-2 5q0 6 3 10t7 5q4 0 8-3 3-3 3-9l-3-6-3-5zm0 0 5 3 3 5 3 6-3 9q-4 3-8 3-4-1-7-5t-3-10l2-5 3-5zm0 1h-5l-3 5-2 5q0 6 3 10t7 4 7-2 3-9l-2-5-3-6z"/><path fill="#fdc59e" d="m499 472 5 2 3 5 1 5q0 5-2 8-3 3-7 2l-6-4q-3-4-3-9l2-4 3-5zm0 0-4 1-3 4-2 4q0 5 3 9l6 4q4 0 7-2l2-8-2-5-2-5zm5 2 2 5 2 5-2 8-7 2-6-4q-3-4-3-9l2-4 3-4 4-1zm-5-2-4 1-3 4-2 5q0 4 3 8l6 4q4 0 6-3 3-3 3-7l-2-5-2-5z"/><path fill="#fef0e9" d="m499 462 9 4 4 10 4 9q1 9-5 14-5 6-12 5-7-2-12-8-5-7-5-16l4-8 5-9zm0 0-8 2-5 8-4 8q0 9 5 16 5 6 12 8 7 1 12-5 6-5 5-14l-4-9-4-9q-5-4-9-5"/><path fill="#feede3" d="M499 463q4 0 9 4l4 9 4 9q0 9-5 14-4 6-12 4-7-1-12-8-5-6-5-15l5-8 4-8q4-2 8-1m0 0-8 1-4 8-4 8q0 9 4 15 5 7 12 8t12-4 5-14l-4-9-5-9z"/><path fill="#feebdf" d="m499 463 8 4 9 18q-1 9-5 14-5 4-12 4-6-2-11-8-6-6-5-15l8-16zm0 0q-4-1-8 2l-8 15q0 9 5 15t11 7 12-4q4-4 4-13l-4-9-4-9z"/><path fill="#feebdd" d="M499 464q4 0 8 4l8 17q0 9-4 13-5 6-12 4-6 0-11-7t-5-15l8-15q5-2 8-1m0 0q-3-1-8 1l-8 15q0 8 5 15 5 6 11 7 7 2 11-4 6-4 5-13l-8-17q-4-4-8-4"/><path fill="#fee8d9" d="m507 468 8 17q0 8-5 13-4 4-11 4-6-1-11-7-4-7-4-15l8-15 7-1zm-8-4-7 1-8 15q0 8 4 14 5 7 11 8 7 0 11-4 5-6 5-13l-8-17z"/><path fill="#fee6d3" d="m507 468 7 17q0 8-4 12-5 6-11 4-6-1-11-7-3-5-4-14l8-14q3-2 7-1 4 0 8 3m-8-3-7 1-8 15q0 7 5 13 4 6 10 7t11-4 4-12l-7-16q-4-4-8-4"/><path fill="#fee3d2" d="M499 465q4 0 8 4l7 16q0 8-4 12-5 4-11 4-6-1-10-7-5-6-5-13l8-15zm0 0-7 1-8 15q1 7 5 13t10 7q6 0 11-4 3-4 4-12l-7-16z"/><path fill="#fee0cc" d="m499 465 7 4 8 16q0 8-5 12-4 5-10 3-6 0-10-6t-4-13l3-8 4-6zm0 1q-3-1-7 1l-4 7-3 7q0 7 4 13 4 5 10 6t10-3 4-12l-7-16q-3-3-7-3"/><path fill="#fedec8" d="m499 466 7 4 7 15q0 7-4 11t-10 4-10-7q-3-5-4-12l4-7 3-7zm0 0-7 1-3 7-4 7 4 12q4 6 10 7 6 0 10-4t4-11l-7-15z"/><path fill="#fddbc5" d="m499 467 7 3 7 15q0 7-4 11-4 5-10 3-6 0-9-6-4-6-4-12l3-7 4-6q3-2 6-1m0 0-6 1-4 6-3 7q0 6 4 12 4 5 9 6 6 2 10-3l4-11-4-8-3-7z"/><path fill="#fddbc2" d="m499 467 7 3 6 15q0 6-3 11-4 3-10 3-5-1-9-6-4-6-4-12l3-7 4-6zm0 0-6 1-4 6-3 7q0 6 4 12 4 4 9 6 6 0 9-3 4-5 4-11l-3-8-3-7z"/><path fill="#fdd9bf" d="m499 467 7 3 3 7 3 8q0 7-4 10-3 4-9 4-5-2-9-6-4-6-4-12l3-7 4-6zm0 0-6 1-4 6-3 7 4 12q4 5 9 5 6 2 9-3 4-4 4-10l-3-7-3-7zm0 0 7 4 3 7 3 7q0 6-4 10-3 4-9 3-5 0-9-6-3-5-4-11l3-7 4-6zm0 1q-3-1-6 1l-3 6-3 6q0 6 3 11 5 6 9 6 5 1 9-3t4-10l-3-7-4-7z"/><path fill="#fdd6bc" d="m499 468 6 3 4 7 3 7q-1 6-4 10-4 4-9 3t-9-6-3-11l3-6 3-6zm0 0-6 1-3 6-3 6q0 6 3 11 4 5 9 6 5 0 9-3l4-10-3-7-4-7z"/><path fill="#fdd6b9" d="m505 471 4 7 2 7q0 6-3 10-4 3-9 3l-9-6q-3-5-3-11l3-6 3-6 6-1zm-6-3-6 1-3 6-3 6q0 6 4 11 3 5 8 6 5 0 9-3 3-4 3-10l-2-7-4-7z"/><path fill="#fdd4b8" d="m499 468 6 3 4 7 2 7q0 6-3 10-4 3-9 3-5-1-8-6-4-5-4-11l3-6 3-6zm0 1h-6l-3 6-3 6q0 6 4 11 3 5 8 5 5 2 9-3 3-3 3-9l-3-7-3-6z"/><path fill="#fdd4b6" d="m505 472 3 6 3 7q0 6-3 9-4 5-9 3-5 0-8-5-4-5-4-11l3-6 3-6h6zm-6-3-5 1h-1l-3 5-3 6 4 11q3 4 8 5t8-3q4-3 4-9l-3-7-3-6z"/><path fill="#fdd2b2" d="m499 469 6 3 3 6 3 7q0 5-4 9-2 4-8 3-5-1-8-5-3-5-3-11l2-6 4-5zm0 0-5 1-4 5-2 6q0 6 3 10 3 5 8 6 5 0 8-3 4-4 4-9l-3-7-3-6z"/><path fill="#fdd1b0" d="m499 469 6 3 3 6 3 7-4 9q-3 3-8 3l-8-6q-3-4-3-10l2-6 4-5zm0 0-5 1-4 5-2 6q0 6 3 10l8 6q5 0 8-3l3-9-2-7-3-6z"/><path fill="#fdd0b0" d="m499 469 6 3 3 6 2 7-3 9q-3 3-8 2-4 0-8-5-3-4-3-10l3-6 3-5zm0 1h-5l-3 5-3 6q0 6 3 10 4 5 8 5 5 1 8-3 3-3 3-8l-2-7-3-6z"/><path fill="#fdd0ad" d="m499 470 6 2 3 6 2 7q0 5-3 8-3 4-8 3l-8-5q-3-4-3-10l3-5q1-5 3-5zm0 0-5 1-3 5-3 5 4 10q3 4 7 5 4 0 8-3 3-3 3-8l-2-7-3-5z"/><path fill="#fdcaa6" d="m499 471 5 2 3 6 2 5q0 5-3 9-3 3-7 2-4 0-7-4t-3-10l2-5 3-5zm0 0-5 1-3 4-2 5q0 6 3 9 3 5 7 5 4 1 7-2 3-4 3-9l-2-5-3-6z"/><path fill="#fdcaa4" d="m499 471 5 2 3 6 2 5q0 5-3 9-3 3-7 2t-7-5q-3-3-3-9l2-5 3-4zm0 0-5 1-3 4-2 5q0 5 3 9t7 5 7-3q3-2 3-8l-2-5-3-5q-2-3-5-3"/><path fill="#fdc8a4" d="m504 474 3 5 2 5q0 6-3 8-3 3-7 3-4-1-7-5l-3-9 2-5 3-4 5-1zm-5-3-4 1-3 4-2 5 2 9q3 4 7 5 4 0 7-3t3-8l-2-5-3-5z"/><path fill="#fdc8a1" d="m504 474 3 5 2 5q0 6-3 8-3 3-7 2-4 0-7-4l-2-9 2-5 3-4 4-1zm-5-2h-4l-3 4-2 5q0 5 3 9l6 4q4 1 7-2l3-8-2-5-3-5z"/><path fill="#fdc39b" d="m504 474 2 5 2 5q0 4-3 7-1 3-6 3-3-1-6-5-3-3-3-7l2-5 3-4 4-1zm-5-2-4 1-3 4-1 5q0 4 2 7 3 4 6 4 4 1 6-2 3-3 3-7l-2-5-3-4z"/><path fill="#fdc398" d="m499 473 4 2 3 4 2 5q0 4-3 7-2 3-6 2-3 0-6-4-2-3-2-7l1-5 3-4zm0 0h-4l-3 4-1 5 2 7 6 4q4 1 6-2t3-7l-2-5-3-4z"/><path fill="#fdc097" d="m499 473 4 2 3 4 1 5q0 4-2 7-2 2-6 2-3 0-6-4l-2-7 1-5 3-4zm0 0-4 1-2 3-2 5 2 7 6 4 6-2q2-3 2-7l-1-5-3-4z"/><path fill="#fdc095" d="m499 473 4 2 3 4 1 5-2 7-6 2-6-4-2-7 2-5 2-3zm0 0-4 1-2 3-2 5q0 3 3 7l5 4 6-2 2-7-1-5-3-4z"/><path fill="#fdbe92" d="m499 473 4 2 3 4 1 5-2 6q-3 3-6 2-3 0-5-3-3-3-3-7l2-5 2-3zm0 1h-4l-2 3-2 5 3 7q2 3 5 3t6-2l2-6-2-5q0-3-2-3z"/><path fill="#fdbe90" d="m499 474 4 2 2 4 2 4-2 6q-3 3-6 2-3 0-5-3l-2-7 1-5 2-3zm0 0h-3l-3 4-1 4q-1 3 2 6 2 3 5 4 3 0 5-2 3-2 3-6l-2-4-2-4z"/><path fill="#fdbb8f" d="m499 474 4 2 2 4 2 4-3 6q-2 3-5 2l-5-4-2-6 1-4 3-3zm0 0-3 1-3 3-1 4 2 6 5 4 5-2q3-3 2-6l-1-4-2-4z"/><path fill="#fdbb8d" d="m499 474 4 2 2 4 1 4q1 3-2 6l-5 2-5-4-2-6 1-4 3-3zm0 0-3 1-3 3-1 4 2 6q3 3 5 3 3 1 5-1l2-6-1-4-2-4z"/><path fill="#fdb98a" d="m499 475 4 1 2 4 1 4-2 6q-2 2-5 1-3 0-5-3l-2-6 1-4 3-3zm0 0h-3l-2 3-2 4 2 6q3 3 5 3 2 1 5-2l2-5-1-4-2-4zm0 0 4 2 2 3 1 4-2 5q-3 3-5 2-3 0-5-3l-1-6 1-4 2-3zm0 0-3 1-2 2-1 4q-1 3 2 6l4 3q2 1 5-2l2-5-1-4-3-3z"/><path fill="#fcb687" d="m499 475 3 2q3 3 4 7l-2 5-5 2-4-3-2-6q0-4 3-6zm0 0-3 1q-3 2-3 6l2 6 4 3 5-2 1-5q0-4-3-7z"/><path fill="#fcb685" d="m499 475 3 2q3 3 3 7l-1 5q-2 2-5 1l-4-2-2-6q0-5 3-6zm0 1h-3q-3 2-3 6l2 5q1 3 4 3l4-1q2-2 2-5 0-4-3-7z"/><path fill="#fcb485" d="m499 476 3 1q3 3 3 7 1 3-2 5l-4 1q-3 0-4-3l-2-5q0-4 3-6zm0 0h-3q-3 2-3 6l2 5 4 3 4-1 2-5q0-4-3-7z"/><path fill="#fcb482" d="m499 490-4-3-2-5 2-5 4-1q3 0 4 3l2 5-2 4q-1 2-4 2m0 0 4-2 2-4-2-5q-1-3-4-3-2-1-4 2l-1 4 1 5z"/><path fill="#fff" d="M499 490q-5-2-5-8t5-6q5 2 6 8 0 6-6 6m0 0-4-3-2-5 2-5 4-1q3 0 4 3l2 5-2 4q-1 2-4 2m0 0q3 1 4-2l2-4-2-5-4-3q-2-1-4 2l-1 4 1 5z"/><path d="m500 476 1-3zm0 0v-3zm-1 0v-4zm0 0-1-4zm-1 0-1-4zm-1 0-1-4h1zm0 0-1-3zm-1 1-1-4zm0 0-2-3zm-1 0-2-3zm0 1-2-3zm0 0-3-2zm-1 1-2-2v-1zm0 0-3-2zm0 1-3-2zm0 1-3-2zm0 0h-4l1-1zm0 1h-4zm0 1h-4zm0 1h-3zm0 0-3 1zm0 1-3 1zm0 1-3 2v-1zm1 0-7 5zm0 1-7 6zm0 1-5 7-1-1zm1 0-5 7v-1zm0 1-4 9v-1zm1 0-3 7zm0 0-2 10zm1 1-1 6zm1 0-1 10zm1 0v4zm0 0 2 10zm1 0 1 6zm0 0 4 10zm1-1 4 9zm1 0 5 10zm0 0 5 7zm0-1 8 9h-1zm1 0 4 4zm0-1 3 2v1zm0 0 3 1v1zm1-1 2 2zm0-1 3 1v1zm0 0h3v1zm0-1h3zm0-1h3zm0-1h3zm0 0 2-1h1zm-1-1 3-1zm0-1 3-1zm0 0 2-2zm-1-1 3-2zm0-1 2-2zm-1 0 2-3zm0-1 2-3v1zm-1 0 2-3zm0 0 1-4zm-2-10v-2zm-3 0v-3zm-2 1-1-3zm-2 1-2-2zm-2 2-2-2zm-2 3-2-2zm-1 2-2-1zm-1 3h-2zm0 4h-2v-1zm1 3h-2zm23 6 2 2zm1-2 3 1zm1-3h2zm0-4h2v1zm-1-3 3-1v1zm-1-3 2-1zm-1-3 1-2h1zm-2-2 1-3v1zm-3-2 1-3zm-2-2v-3z"/><path fill="#e60000" d="M502 487h-2l-2-1h4z"/><path d="M503 487h-4l-2-1 1-1 3 1zm-1 0-1-1h-4l2 1z"/><path fill="#e60000" d="m497 485 1-4v1h-1v-3h2l1 1 2 3v4l-1-1zh-1z"/><path d="M498 482h-1v-3h2l2 1 1 3v2l1 2h-1l-1-1h-4v-1zm-1 3 3 1 1 1v-4l-2-3-1-1h-2v3h1v-1zm0 0h3l2 1-2-1z"/><path fill="#fc0" d="M499 496v-10h1v17l-1-3z"/><path d="M499 496v-10h1v17h-1zm0 4v3h1v-17h-1z"/><path fill="#e60000" d="m490 486-2 1v1l-1-1zm-1-1 1-1 1 1zh-1zh-1v-1zm-1-6v1zv-1l1 2-1 1v-1l1-1zv1h-1zm0-2v-2zh1v-1h1l-1 2zv-2zm2-4v1l2 2v-1l-1-1zm3 1-1-2-1 1v-1l1-1h1l-1 1zm0-1-1-3zm0-3 1-1v1zv1l2-1v1l-2 1zl2-1zm5 1v-2zl-1-3v3l-1-3h1zv-3h1zm1-3v3l1 1 1-1-1-1h1zm0 1v1zm0 1v1h-1zm3-1-1 3 1-1 1 1v1-3zm0 1v1h-1zm3 1-1 1 1 1-1-1v1l1 1v1l-2-2zl2 1v1zm3 3-2 2v1h2zm0 1v2h-1l-1-1zm1 3v2zv2l-1-2zv2zm0 5h1v-1l1 1zm0 1v2h2l-1-2zm1 3 1 1-1 1zl-1 1 1-2zh1q0 1 0 0zm-2 2 1 1h1v1z"/><path d="m499 447 42 92-84-13zm0 0-42 79 84 12zm2 75h10l2 1 4 2 3-1h2l4 1 2 1 4 1-4-1-2-1-4-1h-2l-3 1-4-2-2-1h-4l-2 1z"/><path fill="#fff" d="M469 520h6l2 1 4 1h3l3-1 4 2 2 1h10l3 2h10l2 1 4 1h9l2 1 4 2-4-1-2-1-4-1-2 1h-3l-4-2-2-1-4 1h-2l-4-1-3-2h-4l-3 1-3-1-2-1-4-1h-3l-3 1-4-2-2-1zm-5-3h8l4 2 3-1h3l4 1 2 1 3 1 3-1 4 1 3 1h1l3 1h2l4-1 2 1 4 2h3l3-1 3 1h1l1 1 5 1v1l-5-2-2-1h-9l-4-1-2-1h-9l-1-1-3-1h-10l-2-1-4-2-3 1h-3l-4-1-2-1zm-4 7h6l2 1 4 1h3l3-1 4 2 2 1h3l2-1 5 1 3 2h5l5-1 2 2 4 2 3-1 2-1 4 1 2 1 4 2v1l-4-2-2-1-4-1-2 1h-3l-4-2-2-1-4 1h-2l-4-1-3-2h-4l-3 1h-3l-2-2-4-1h-3l-3 1-4-2-2-1zm1-4h8l4 2 3-1v1h-3l-4-1-2-1z"/><path d="M474 517h6l1 1h4-4l-2-1zm40 17 3-1 4 1 3 1h1l4 1h1l4-1 2 1 4 2-4-1-2-1h-9l-1-1-3-1z"/><path fill="#fff" d="M519 523h9l1 1h1l5 2-5-1-1-1h-1l-3-1-2 1z"/><path d="M460 525h8l4 2 3-1h3l4 1 2 2h3l3-1 4 1 3 1v1-1l-3-1-4-1-3 1h-3l-2-1-4-2-3 1h-3l-4-1-2-1zm5-3 6-1 2 1 4 2 3-1h3l4 1 3 1 2 1 3-1h4l4 2 3 1 2-1h4l2 1 4 2h4l2-1 4 1 1 1 5 1v1l-5-1-5-2h-2l-4 1-4-2-2-1h-4l-2 1-4-2-3-1h-10l-2-1-4-1h-6l-4-1-2-1z"/><path fill="#fc0" d="m468 507 1-1 2-1 4-4q3-5 7-6h3l1 1 4 4 4 4 2 2 3 3 3 5 1 1 3 3 3 3-32-5h-3l-11-2 4-6z"/><path d="m468 507 1-1h1l4-4 6-6h4v1h1l4 4 3 2 1 2 2 2 3 3 4 6 3 3 2 2 1 1-32-5h-3l-2-1-9-1 3-6h1zm-1 1-3 6 8 1h3l1 1h2l31 5-1-1-2-2-3-3-1-1-6-7v-1l-4-4-2-2-5-3v-1l-3-1q-4 2-7 6l-4 4h-1l-1 1v1h-1z"/><path fill="#fc0" d="m508 520-2-2-3-3-1-1-3-5-3-2v-1l-2-2-3-3h1l1-1h2l1 1 4 3 3 3 2 2v1l2 2 3 4h1l2 3 3 2z"/><path d="m508 521-2-2-3-3-1-1-6-7v-1l-4-4-1-1 2-1h3v1l4 3 2 2 1 1 2 2 1 1 1 1 4 5v1l2 2 2 1 1 1v1zm1-1 6 1-2-2-2-2-1-1-3-4-1-2h-1v-1l-2-2-1-1-2-2-5-4h-2l-1 1 2 3 2 2 3 3 4 6 3 3z"/><path fill="#fc0" d="m499 503 2-1 2 1h1l3 3 3 3 1 2h1l1 2 3 4h1l2 3 2 2-6-1-2-2-2-3h-1l-3-4-2-2v-1l-2-2-3-3z"/><path d="m499 503 2-1 2 1h1l3 3 2 2 1 1 1 1h1v2l2 1 3 4v1l2 2 2 1v1h1-1l-6-1-2-2-2-2-1-1-3-4-1-2h-1v-1l-2-2-1-1zm0 0 1 1 2 2 1 1 2 2 1 1 1 1 4 5v1l2 2 2 1v1l6 1-1-1-1-1-2-2v-1h-1l-2-4h-1l-1-1v-1h-1l-2-3-2-2-3-2-1-1-2-1z"/><path fill="#fc0" d="m509 508 2-2 2 1 3 2 2 3 1 1h1l1 2 2 3h1l1 2 2 2-7-1-1-1-2-3h-1l-3-4-1-2h-1z"/><path d="m509 508 2-1h2v1l3 2 1 2 1 1 2 1v1l1 1 2 3h1v1l2 1 1 1v1h1-1l-6-1h-1l-1-1-2-2v-1h-1l-3-4-1-1v-1h-1zm0 0 1 1h1v2l2 1 3 4v1l2 2 1 1 7 1-2-1-1-2v-1h-1l-2-3-1-1v-1h-1l-1-1-1-1-1-2-3-2-2-1z"/><path fill="#fc0" d="m527 522-2-2-1-2h-1l-2-3-1-2h-1l-1-1-2-3h4l2 2 2 2 1 1v1l2 1 1 3h1l1 2 2 1z"/><path d="m527 522-2-1-1-2v-1h-1l-2-3-1-1v-1h-1l-1-1-1-1-1-1v-1h4l2 2 1 1 1 1 1 1v1h1l1 1 2 2v1l1 2 1 1h1zm-10-13v2l1 1 2 1v1l1 1 2 3h1v1l2 1 1 1 4 1-1-1-1-2h-1l-2-3-1-1-2-2-1-2-3-2z"/><path fill="#00633b" d="m479 496 1 1zm-1 1h2v1zm-1 1h1-2zm-1 1h1v1-1h-2m1 1h2zm-1 1 2 1h-2zm-11 13h7zm11-13h1-2m0 1h2zm2 1h-2zm-1 1-2-1zm-3 0h3zm0 0 2 1zm-1 1h3v1-1zm3 1h-4zm-1 1h-4v-1h2v1zm-4 0h1l1 1h1-1l-1-1zm-1 0 2 1h2v1l-2-1zm0 1h3l1 1h-1l-1-1zm-1 0h1l2 1h2v1l-1-1h-3zm-1 1h1l3 1h2-2l-3-1zm0 0 2 1h2l1 1-1-1h-2zm-1 1 1 1h4v1l-2-1h-2zm0 1 3 1h3-3zm0 1 3 1h3-3zm-1 1h3l2 1h2-2l-2-1zm14-7h1zm0 1h1zm-1 0 1 1zm0 1h2zm0 0h2zm0 1 1 1zm-1 1h2zm-1 0 3 1zm0 1h3v1zm0 1h3zm0 0 1 1h1-2zm-1 1h4v1l-1-1zm0 0h4zm-1 1h2l1 1h2-3zm0 1h1l4 1-4-1zm7-7h2zm0 0 1 1h1-2zm0 1h2v1h-1zm0 1h2zm0 1h1zm0 0 1 1h-1zm0 1h1zm0 1h1zm-1 0 2 1h1-3zm0 1h2zm0 1h4zm0 1h4zm0 0h5v1l-3-1zm-8-1h2zm14 2h4zm-1-1h3v1h2-3zm-5-1h-1zm-6-1h-1zm14-11h-1zm-1 1h1zm2 2h-1zm-1 1q0 2 0 0v1zm0 1h2zm2 1h-2zm-1 1v1zm0 1h2zm2 0h-1zm-2 1h3zm3 1h-3zm-3 0h3zm4 1h-3zm-3 1h3zm3 1h-1l-1 1v-1h3zm-3 0h3-4m5 1h-4zm-3 0h3-2zm0 1h3-4m5 0h2l2 1-2-1zm0 0 4 1zm5 0h1zm0 1h1zm0 0h2l1 1h-1zm4 1 5 1zm-1-1h3l3 1h-3zm-8-15h1zm0 0 2 1zm2 2h1zm2 1-1-1zm-1 0h1zm2 1h-1zm-1 0h2zm1 2h2zm4 2h-2zm-1 1h1zm1 2h2-3m4 1h-3l1-1zm-2 0h3zm4 1h-4zm-3 1h3-4m5 0h-3zm-2 1h4zm4 1h-3v-1h1zm-3 0h2-3m1 0h2l1 1h1-2zm-16-18h2zm8 9h1-2m3 2h1zm3 1h-1zm-3-8h2zm2 1h-1zm-1 0h2v1zm2 1h-1zm-1 0h2v1zm1 2h2zm4 2h-1v-1q0 2 0 0h1zm1 1h-2zm-1 1h2zm1 2h2-3m4 0h-2zm-2 1h3zm4 1h-3v-1h1l1 1zm-3 0h2zm4 1h-3zm-2 0h1l2 1h-3zm3 1h-3 4zm-2 0h3v1h-1l-1-1zm0 1h2-3m-14-17h1-2m10 10h2zm3 1h-1zm-11-12-1 1v-1zm11 8h1zm1 1h1v1zm2 1h-1zm1 1h-1 2m0 1h-2zm-1 0h1zm1 2h1zm2 1h-2v-1zm-2 0h3zm3 1v-1h-1 2zm-2 0h2-3m4 1-1-1-1 1v-1h2zm-2 0h3zm3 1h-1zm-2 0h1-2m1 0h2-3m-10-13h1-2m10 9h-1v-1zm-1-6v1zm1 0h1zm2 2h-1v-1zm-1 0h2zm2 0h-1zm-1 1h1zm1 1v1zm2 0h-2zm0 1v1zm1 2h1zm2 0h-2zm-2 1h2zm3 0h-2 3m-3 1h1-2m4 0h-2 3m-3 1h2-3m4 0h-3zm-2 0h1zm0 1h2zm-5-7v1zm1 2h1zm2 1h-1v-1zm-8-9"/><path fill="#fc0" d="M463 576v7q-1-1-3 1-1 3 2 5l2 2 5-10-2-1-2 4v-6zm0 9h1l-1 3-1-3zm-9-10 3 2 1-2-3-3 1-2 5 5-6 9-4-4 1-2 3 3 1-2-3-3zm-1-9-3 3-1-1q-2-2-4 0-2 3 1 6l2 2 6-8zm-5 3 1 1v1l-2 2v-3zm-8-2-1-2 4-4q2-1 1-4-1-1-3 1l-5 4-1-2 5-5q3-2 5 1 3 4 0 7zm-3-23h-2q-2 1-1 4h-2q-3 1-1 5l2 2 8-5-2-4zm0 2 1 2-2 2v-3zm-3 4-2 1v-2zm-2-15 2-1 2 6-9 4-1-2 7-4zm0-6 1 3-9 3-1-2zm-10-10-1 3q2 5 5 3l2-4-2-3h2l2 2q0 6-4 8-4 0-6-5l-1-3zm4-15-9 5v2l11 5v-3l-2-1-1-4 2-2zm-3 4 1 3-4-1zm-2-28q-4 0-5 5v4l10 2v-3q0-6-4-8zm0 3q3 1 3 5l-6-1v-1q0-3 3-3m3-12-1 4 3 1 1-4 1 1-1 6-10-4 1-6h2l-1 4 2 1 1-4zm4-14-1 3 2 2 2-4 1 1-2 6-9-6 2-6 1 1-1 4 2 1 1-3zm6-7 2 1-3 5-9-7 1-2 8 6zm2-16-2 1v2h2q1-2 4 0 3 3 1 6l-4 1v-2l2-1v-2h-6q-2-2-1-5l3-2zm4-10-1 1 5 13 1-1-1-3 3-3 2 1 1-1zm2 4 3 2-2 2zm13-3 1 1-4 4-7-11 2-1 5 9zm2-14 2-1 2 13-1 1-9-9 2-2 6 7zm9-5-1 1v13h2v-3l3-1 2 2 2-1zm0 4 3 4-2 1zm11-6h-4l3 13 2-1q5-1 4-7-1-5-5-5m0 2 3 3q1 4-3 5l-1-8zm12-4q-5 1-5 7 2 5 6 6 5-1 5-6-2-6-6-7m0 3q3 0 3 3 1 3-2 4-3 0-3-4-1-3 2-3m9-2v12h2v-5l2 6h3l-3-5 2-3q0-4-4-5zm2 2 2 2q0 3-2 2zm21 12-3-1v3l3 1-1 2-5-2 3-12 5 3-1 2-3-2v3l3 1zm10 7 2-7 2 1-4 11-1-1-3-11-2 8-2-2 4-11 1 1zm12 12-1 2-4-4 5-10 2 2-5 8zm9-3-9 5 1 2 2-1 3 3v3l1 2 4-12zm-1 4-1 3-2-2zm17 18-11 1 1 3 2-1 2 4-1 2 1 3 7-11zm-3 2-2 3-1-2zm3 24-1-2 6-4h-7l-1-1 5-5-6 1-1-2 10-2 1 1-5 6h7l1 2zm7 8-1-4-3 1 1 4h-1l-2-6 9-3 2 6-1 1-2-4h-2l1 4zm6 3-10 1 1 3 4-1-4 4 1 3 3-4q1 3 4 2 3 0 2-5zm-1 3-1 2-2-2zm-7 12v-3h10v3zm8 13 1-3-3-4q-4 0-4 3l1 3h-2l-1-3q2-6 6-6 5 1 5 7l-1 3zm-7 1-1 3 2 1v4l-2 1v2l10-1v-2zm3 5 3 3h-3zm-3 30 2-2-2-5q-3-2-5 1l1 3-3-1 1-3q2-5 7-2 4 3 3 8l-2 2zm-7 7 2-3-3-2-1 3-2-1 3-5 9 7-3 5-1-1 1-4-2-1-1 3zm-6 9 5 5-1 2-8-9v-1l9 1-5-6 1-1 8 8v1zm-1 10 1-2 2 2-5 5-1-2 2-2-7-8 2-1zm-10-3-2 1 3 4-5-2-2 1 5 3v4q3 3 5 1l2-2zm1 7 2 3q-1 1-2-1zm-8-2-2 1 1 3-3 2-2-2-2 1 9 9h1zm-1 6 1 4-3-3zm-13 3v-2l4-1 5 11-2 1-4-10z"/></svg>