<svg xmlns="http://www.w3.org/2000/svg" viewBox="0 0 1000 1000"><path fill="#012a87" d="M8 195.3c170.8-85.3 341-54.5 513.3-28C676.5 191 833.4 211.8 992 132.7v672c-170.8 85.3-341 54.5-513.3 28C323.5 809 166.6 788.1 8 867.2z"/><path fill="#dc171d" d="M8 195.3c170.8-85.3 341-54.5 513.3-28C676.5 191 833.4 211.8 992 132.7v336c-170.8 85.3-341 54.5-513.3 28C323.5 473 166.6 452.1 8 531.3z"/><path fill="#fff" d="M8 195.3v672C152.4 684.2 296.6 584 445.3 491.7 301.4 360 156.5 235.2 8 195.3"/><path fill="#ff0" d="m228.9 393.6.1-5.2c-.2-.3-2.4-4 .4-9.3-.4-.2-6-3-5.1-9-.4-.2-5.6-1.3-5.6-8.2-.5 0-6-.1-7.3-5.7-.4 0-6 1.4-9.4-3.8-.5.2-5.8 1.6-8.2-2.5-.4.1-5.8 2.5-10-2.1-.4.2-6 3-9.3-1.3-3.3 5.2-8.8 3.8-9.3 3.7-4 5.7-9.5 4.8-9.9 4.7-2.3 4.8-7.7 4.7-8.1 4.7-3.4 6-9 6.3-9.4 6.3-1.3 5.9-6.8 7.5-7.2 7.7 0 6.9-5.2 9.4-5.6 9.6 1 5.6-4.7 10.2-5.1 10.5 2.9 4.5.7 8.8.5 9.1l-.1 4.9a587 587 0 0 1 108.6-14.1"/><path fill="#f9d90f" d="m228.9 393.6.1-5.2c-.2-.3-2.4-4 .4-9.3-.4-.2-6-3-5.1-9-.4-.2-5.6-1.3-5.6-8.2-.5 0-6-.1-7.3-5.7-.4 0-6 1.3-9.4-3.8-.5.2-5.8 1.6-8.2-2.5-.4.1-5.8 2.5-10-2.2-.4.3-6 3.2-9.3-1.2-3.3 5.2-8.8 3.8-9.3 3.7-4 5.7-9.5 4.8-9.9 4.7-2.3 4.8-7.7 4.7-8.1 4.7-3.4 6-9 6.3-9.4 6.3-1.3 5.9-6.8 7.5-7.2 7.7 0 6.9-5.2 9.4-5.6 9.6 1 5.6-4.7 10.2-5.1 10.5 2.9 4.5.7 8.8.5 9.1l-.1 4.9a587 587 0 0 1 108.6-14.1"/><path d="M229 393.6v.2h-.2A586 586 0 0 0 120 407.9l.1-5v-.1c1.8-3.5 1.6-6-.5-8.9l-.1-.2.2-.1c4.4-3.7 5.9-6.6 5-10.3v-.2h.2c4-2.2 5.5-4.9 5.4-9.5v-.2h.1c4.4-1.5 6.4-3.6 7-7.5v-.2h.3a10 10 0 0 0 9.2-6.1v-.2h.2c4.4 0 6.5-1.3 8-4.5v-.2h.2c4.2.6 7-.7 9.7-4.6v-.1h.2c4.5 1 7 0 9-3.6l.2-.3.2.3c2 3 4.6 3.4 9 1.2l.2-.1.1.1c2.7 3.3 5.4 3.8 9.7 2.1h.2c1.5 3 3.6 3.6 8 2.5h.2v.1c2.2 3.5 4.8 4.6 9.3 3.7h.2v.1c.7 3.8 2.6 5.4 7 5.6h.3v.2c-.2 4.6 1.4 6.8 5.4 8h.2v.2c-.9 4 .6 6.4 5 8.8l.2.1v.2c-2.1 3.5-2.2 6-.5 9v.1zm-.3-.2.1-5c-1.7-3-1.6-5.7.4-9.2-4.5-2.4-6-5-5.1-9-4.1-1.2-5.7-3.4-5.7-8.1-4.4-.3-6.4-1.9-7.2-5.7-4.5.9-7.1-.2-9.3-3.7-4.5 1-6.7.3-8.2-2.6-4.4 1.8-7.2 1.2-10-2-4.4 2-7 1.8-9.2-1.2-2.1 3.5-4.7 4.5-9.2 3.5-2.7 4-5.5 5.3-9.9 4.8-1.5 3.2-3.7 4.5-8.1 4.6-2.2 4.1-5 6-9.4 6.3-.7 4-2.7 6.1-7.1 7.6 0 3-.8 5.1-2.7 7.3q-1.5 1.5-2.8 2.3c.7 3.8-.7 6.8-5.1 10.4 2 3 2.1 5.6.4 9.1l-.1 4.6a586 586 0 0 1 108.2-14"/><path fill="#dc171d" d="M226.3 387.2c-17.2-1-36.4-3.2-51.8 7.5-10.4-4.7-24.1-2.2-36.4 1.4-6.6 2.5-14.2 4.3-21 7l-1.1.4a78 78 0 0 1-34.5 1.9c3.4 18.8 7.2 38 9 58.3 3.9 29.6-13.9 61.1-6.6 89.3 4.7 13.2 20 17 34.5 15.3 14-2.4 28.3-2.9 41.2-2 2.5 0 5.4.8 7 1.3a22 22 0 0 1 8.5 5c8-9.3 19-12.9 30.4-15 20.5-4 45-3.6 57.7-22.1v-1c6.6-10.7 5.8-26 3-38.1-.3-4.1-1.3-7.8-2-11.7-12.1-33.6-1.8-71 3.6-104.9-6.5 3.5-13.7 5.3-21 7.3-5.8.8-12.2.7-18 .7zm25.5 95.4"/><path fill="#62afe1" d="M251.8 482.6c0 2.2 1 4 1.5 6 2.4 15 4.5 33.5-10 43.2-16.4 10.8-37.6 7.9-56.5 15.4a43 43 0 0 0-11.6 8.5q-2.4-1.7-5.6-3.1c-15.7-6.1-35.5.1-53.1 0-9-1-17.7-5.2-20.2-13.8-5.5-22.6 7.7-47 6.3-70.5q-1.7-26.9-8.2-50.8a84 84 0 0 0 45-6.4c11.5-3.9 24.4-6 35.3-2.5 6-3.3 12.7-5.3 19-6.7 12.1 0 25 1.3 37.5.8q12.3-1.6 23-6.8c-4.3 28.6-12.3 58.2-2.4 86.7"/><path fill="#fff" d="m227.2 489-.1-26.7 3.2-.2a1028 1028 0 0 0-39.8-23.4l-.1-13.7 3.8-.4-19.9-12.3-19.8 17.6 3.9-.7V443a1198 1198 0 0 0-39.6 34.2l3.2-.7.1 26.6c34.7-8 69.4-12.3 105.1-14z"/><path d="m228 491.1-1.1-1.2A586 586 0 0 0 121.3 504l-.2-26.7-5.1 1.2a1198 1198 0 0 1 41.6-36l-.1-12.4-5.6 1 22.4-20 22.6 14-5.6.6V438q20.6 11.6 41.9 24.8l-5.3.2.2 25.8zm-1.6-3-.2-26.6 1.2-.1q-18.7-11.5-37.8-22.1v-15l2-.3-17.3-10.6-17.1 15.2 2-.4v15a1183 1183 0 0 0-37.5 32.4l1.1-.3.2 26.6a587 587 0 0 1 103.4-13.7"/><path fill="#fff" d="M239.5 523.6v8.3c-42.4 1.2-84.7 6-128.3 17v-8.2a588 588 0 0 1 128.3-17.1"/><path d="M240.3 523.5v9.3c-42.9 1.1-85.8 6-130 17.3v-10a574 574 0 0 1 129.1-17.4v.9zM112 541.3v6.6A588 588 0 0 1 238.6 531v-6.6c-41.8 1.2-83.6 6-126.6 16.8"/><path fill="#fff" d="m119.7 538.2-.1-28.3 5.2-1.2-.3 28.7.3-28.4-7.5 1.5v-6A583 583 0 0 1 232 489.1v6l-7 .3.1 28.6-.2-28.6 5.2-.2.1 28.3c-36.5 1.5-73 5.9-110.5 14.7"/><path d="M118.8 538.4V511l-2.3.4v-7.7a587 587 0 0 1 116.3-15.6l.1 7.8h-2l.2 27.4-1.7.1-.1-27.4-3.5.2.1 27.7-1.7.1-.2-29.5 7-.3h.2V490a585 585 0 0 0-113 15v4.4h.5v-.1l7-1.7v.3l-.4 29.3-.8.2-.9.2.3-27.6-3.5.7.1 27.3zm26.3-45.5v1.4l-1.7 1.2v-.6l-15.4 3.2-.1-21.4 17-3.5zm-17 37.3-.1-21.5 17.1-3.4v20.5l-.8.2v.9zm92.2-45.3h-.8v.9l-16.3 1.2v-21.5l17-1.2zm-26.7 2v1l-16.3 1.7v-21.4l17-1.9.1 20.6zm-21.5 2.6v.8l-16.3 2.5v-21.5l17-2.5.1 20.5zm47.5 27.5v.9l-16.2 1.1-.1-21.4 17-1.2.1 20.6zm-1-32.9v-18l-13.7 1v18zm-75.2 23.2-13.7 2.8.1 18 13.7-2.8zm49.3-21.1-.1-18-13.7 1.5.1 18zm-21.5-15.4-13.7 2v18l13.7-2.1zm-27.8 22.4-.1-17.9-13.7 2.8V496zm75.3 23v-18l-13.7 1v18zm-36.4-43.6v-.9l7.9-.9V484l-8.7 1v-12.3zm-49.2 40v-.8l7.9-1.6v13.2l-8.8 1.7v-12.3zm75.1-42.5v-.9l8-.5v13.2l-8.8.6v-12.3zm-47.4 5.4v-.9l7.9-1.1v13.2l-8.7 1.2v-12.2zm-27.9 5v-.8l8-1.6v13.2l-8.8 1.8v-12.3zm75.4 21.7v-.9l8-.5v13.1l-8.8.6v-12.2zM183.2 483l5.3-.6v-9.7l-5.4.6zm-49.3 40 5.4-1.2v-9.6l-5.4 1zm75.2-42.5 5.3-.4v-9.6l-5.3.3zm-47.4 5.3 5.3-.7v-9.7l-5.3.8zm-27.9 5 5.4-1v-9.7l-5.4 1zm75.4 21.8 5.4-.4v-9.7l-5.4.4z"/><path fill="#fff" d="m197.4 480.6.1 45.4a594 594 0 0 0-44.5 5.7l-.2-45.3q22-3.7 44.6-5.8"/><path d="m198.2 480.5.2 46.3a590 590 0 0 0-46.3 6l-.1-47.2q22.4-3.8 45.4-6h.8zm15.4-20.6v.9a585 585 0 0 0-80.7 10.9l27.2-25.5q14.2-2.2 28.7-3.8l25.3 16.8zm-22.3 65.8L191 495a595 595 0 0 0-32.2 4.3l.1 30.6a600 600 0 0 1 32.3-4.2m-3-81.5q-13.7 1.5-27.7 3.6l-22.5 21q35.8-7 72.9-9.6zm8.2 37.3a600 600 0 0 0-42.8 5.6v11.2q21.2-3.5 42.9-5.5zm-34-50.4v-.8q12-1.9 24.6-3.2v13.1q-12.5 1.4-25.4 3.4v-12.3zm1 10.5q10.7-1.6 22-3l-.1-9.6q-10.8 1.2-22 2.9zm33 52.9-3.7.4.2 30.6 3.7-.3zm-39.2 35.6-.2-30.6-3.4.6.1 30.6z"/><path d="M162.5 431.1v-.8q12-1.9 24.6-3.3v13.2q-12.5 1.4-25.4 3.4v-12.3zm1 10.5q10.7-1.6 22-3l-.1-9.6q-10.8 1.2-22 2.9z"/><path d="M169.8 432.9v5.7l-.8.1v-.9l10.9-1.4v.9l-.9.1v-5.7l.8-.1v.9l-10.9 1.4v-1.7l11.8-1.6v7.5l-12.6 1.6v-6.6zm5-17.2 15.4 9.3a604 604 0 0 0-31.6 4.1l15.2-13.3 1 1.3-13 11.4-.6-.7v-.9q13-2 26.3-3.4v.9l-.5.8-13.2-8zm0 0 15.4 9.3a604 604 0 0 0-31.6 4.1l15.2-13.3 1 1.3-13 11.4-.6-.7v-.9q13-2 26.3-3.4v.9l-.5.8-13.2-8zm0 0 15.4 9.3a604 604 0 0 0-31.6 4.1l15.2-13.3 1 1.3-13 11.4-.6-.7v-.9q13-2 26.3-3.4v.9l-.5.8-13.2-8zm0 0 15.4 9.3a604 604 0 0 0-31.6 4.1l15.2-13.3 1 1.3-13 11.4-.6-.7v-.9q13-2 26.3-3.4v.9l-.5.8-13.2-8zm0 0 15.4 9.3a594 594 0 0 0-31.6 4.1l15.2-13.3 1 1.3-13 11.4-.6-.7v-.8q13-2 26.3-3.5v.9l-.5.8-13.2-8z"/><path fill="#fff" d="M227.7 405.3c3.7.3 4.6 15.1 4.7 23.4 3.3 1 10 5.2 13.5 9.3a702 702 0 0 0-36.2 1.6c3.3-4.3 10-9.2 13.4-10.4 0-8.4.8-23.2 4.5-24"/><path d="M232.3 413.8q.8 6.4 1 14.3 2.6.8 6.3 3.3 4.6 3 7 6l1 1.5q-19.5.3-39.7 1.7l1.1-1.4a37 37 0 0 1 13.2-10.6q0-8.1.9-14.4c1-6.7 2.3-9.5 4.6-9.8 2.2.2 3.5 2.8 4.6 9.4m-4.6-8.5v.8c-1.3.3-2 2.6-3 8.3q-.7 6.3-.8 14.7v.7l-.6.2q-2.4.8-6.5 3.9a40 40 0 0 0-5.2 4.7q16-1 32.4-1.4a35 35 0 0 0-11.9-7.6l-.6-.2v-.6q0-8.2-1-14.7c-.8-5.6-1.6-7.8-2.8-8zm-54.3 78.4-1.4 2.8q1.3 2 0 4.5l1.3 2.3-6 .8 1.3-2.6c-.8-1.8-.8-3 0-4.6l-1.3-2.4h.6zm18-2.1 4.6-.5-1.4 2.7q1.4 2 0 4.6l1.2 2.3-6 .6 1.4-2.5q-1.3-2.5 0-4.7l-.6-1.1.7-.5zm-14.5 1.6 4.7-.6-1.4 2.8q1.2 2 0 4.5l1.3 2.4-6 .7 1.3-2.6c-.9-1.8-.9-3 0-4.6l-.7-1.2.8-.5zm-22 3.2 4.7-.7-1.4 2.8q1.3 2 0 4.5l1.3 2.3-6 1 1.3-2.7q-1.3-2.4 0-4.6l-.6-1.1.7-.6zm29.2-4 4.7-.6-1.4 2.8q1.3 2 0 4.5l1.3 2.4-6 .6 1.3-2.5q-1.3-2.5 0-4.7l-.6-1.2.7-.5zm-22.6 3 4.7-.7-1.4 2.8c.9 1.4.9 2.6 0 4.5l1.3 2.3-6 .9 1.3-2.6c-.8-1.8-.8-3 0-4.6l-.6-1.2.7-.5zm31.5-.8-.1.1q-1.2 1.4 0 3.4v-.1q1.2-2 0-3.4m-29.7 3.7-.1.1q-1.2 1.4 0 3.4 1.2-2.1 0-3.5m-6.7 1v.2q-1.2 1.4 0 3.3 1.2-2 0-3.4m29.3-4q-1.3 1.5-.1 3.4 1.2-2 0-3.4m-15.4 1.9q-1.2 1.5 0 3.4 1.2-2 0-3.4m8.2-1q-1.2 1.4 0 3.4 1.2-2 0-3.4m-15.5.6.2.3.1-.3zm15.4-2.1.1.3.2-.4zm14.4-1.6.1.3.2-.4zm-22.6 2.7.1.3.2-.4zm-13.8 2 .1.4.2-.4zm29.2-4 .2.3.1-.3zm7.3 5-.1.4h.3zm-7.2.9-.1.3h.3zm-7.2.8-.1.3h.2zm-15.4 2.1v.3h.2zm7.2-1v.3h.2zm-13.8 2v.3h.2z"/><path fill="#f9d90f" d="M175.3 586.7c16.7-2.2 37.2-7.3 46.8-12.8l21.1-2.8.5 26.4c-17.6 10-59.4 16.2-68.3 17.3-8.7 1.2-51.3 6.2-68.9 1.2l.3-26.5q10.5-1.7 21.1-3.2c9.6 2.8 30.8 2.5 47.4.4"/><path d="M175.3 586.5q12.8-1.6 26-5.2 13.7-3.6 20.7-7.6l21.4-2.8.5 26.7h-.2c-7.8 4.6-20.1 8.3-37.5 12a399 399 0 0 1-30.8 5.4q-12.7 1.8-31.1 2.6-26.1 1.7-37.9-1.4l.2-26.9a507 507 0 0 1 21.4-3.2q7.1 2 21 2 13.5 0 26.3-1.6m0 .4q-12.8 1.5-26.3 1.7a81 81 0 0 1-21.1-2q-10.3 1.3-21 3l-.2 26.2a129 129 0 0 0 37.6 1.4q18.4-1 31-2.6 12.8-1.6 30.9-5.5 25.7-5.2 37.3-11.7l-.5-26-20.8 2.7a92 92 0 0 1-20.8 7.6q-13.3 3.4-26 5.2z"/><path fill="#f9d90f" d="M52.2 505.2q9.1-.6 18.6-.7l-5.6 32.8-17.6 9.4s-2.9-15 4.6-41.5"/><path d="M52.3 505q9.2-.6 18.7-.8l-5.7 33.2-17.9 9.6v-.2a57 57 0 0 1-.6-10.8q.5-14.2 5.2-30.8h.2zm0 .4q-4.5 16.4-5 30.4-.2 6.9.4 10.6l17.3-9.2 5.6-32.5q-9 0-18.3.7"/><path fill="#7e7e7e" d="m65.2 537-17.6 9.7 11.1-20.5z"/><path fill="#f9b60f" d="m65.2 537-17.6 9.7 11.1-20.5z"/><path d="m65.2 537.1-18 10 11.5-21.3 6.6 11-.1.1zm-.3-.2-6.2-10.3L48 546.3z"/><path fill="#f9d90f" d="M41 531.9q9-3 18-5.7c.5 18.1 2 68.6 71.5 57.3l-2.2 22.1c-84.3 19-91-40.1-87.2-73.7"/><path d="m106.8 615 18-8.4c-35 7.4-59 3.3-73.2-17.4a70 70 0 0 1-10.4-29.5q-1.9-13.9-.3-27.8h.2v-.2l.2-.1q8.9-3 17.9-5.7v.2c1.5 50 24.9 64.9 71.3 57.2h.2l-2.2 22.5h-.2l-1.7.4-19.7 9.2zm-65.5-83q-1.6 13.8.3 27.5A70 70 0 0 0 52 588.9c14.4 20.9 38.7 24.7 74.6 16.9l1.4-.6v.3h.1l2.1-21.7c-46.4 7.6-69.8-7.4-71.4-57.4z"/><path fill="#ff0" d="m297 469.9-18.6 5.4 5.9 31 17.6 3.5c0-.1 2.7-16-5-40z"/><path fill="#f9d90f" d="m297 469.9-18.6 5.4 5.9 31 17.6 3.5c0-.1 2.7-16-5-40z"/><path d="M296.9 469.7v.1zv.1h.2q4.9 15 5.5 29 .2 7-.5 11v.2l-18-3.6-6-31.3zm0 .4-18.2 5.3 5.8 30.6 17.3 3.6q.6-4 .4-10.8-.6-13.9-5.4-28.7"/><path fill="#7e7e7e" d="m284.3 505.9 17.6 4-11.2-16.8z"/><path fill="#f9b60f" d="m284.3 505.9 17.6 4-11.2-16.8z"/><path d="m284.3 505.9-.2-.1 6.5-13 11.8 17.3-18.1-4zm.3-.2 16.9 3.8-10.8-16z"/><path fill="#f9d90f" d="m308.3 492.7-18 .4c-.3 17.6-1.6 71.2-70.8 78.7l2.4 21.5c84-4 90.3-69.4 86.4-100.6"/><path d="M308.3 492.5v.1h.2q1.5 13.4-.2 28a96 96 0 0 1-10.1 33c-14 25.6-37.8 37.4-72.8 39.7l18 3.4v.4l-19.9-3.7h-1.8l-2.4-21.8h.2c46.4-5 69.6-28.1 70.6-78.5v-.2zm-.2.4-17.6.4c-1 50.5-24.3 73.7-70.8 78.7l2.3 21h.2v-.3l1.4.3c35.8-2 60-13.7 74.3-39.5a95 95 0 0 0 10-33q1.8-14.5.2-27.6"/><path fill="#012a87" d="M164.1 601.3q-.7.5-1.9.6l-3.3.3.3-4.3 3.3-.3 1.5.1q1 .4.9 1.8 0 1.1-.8 1.7zm-5.6 7.6.3-5.3 4-.3q1.7-.2 2.7-1.4t1-2.6q.2-1.6-.8-2.5t-2.5-.7l-5.6.5-.8 12.4zm12.1-12.1 4-.5zm0 0 4-.5zm0 0 4-.5zm0 0 4-.5zm0 0 4-.5h1.5q.9.5.9 1.8 0 1.1-.7 1.7a4 4 0 0 1-1.8.7l-4 .5zm0 10.9v-5.3l3.8-.5h1.5q.8.4.9 1.6v2l.1 1 .2.4 2-.3v-.2q-.3-.1-.5-.7l-.1-1V603q0-1-.5-1.5l-1-.6q.8-.6 1.3-1.3a4 4 0 0 0 .4-1.9q0-2.1-1.7-2.7a6 6 0 0 0-2.3-.1l-5.8.7V608zm12.7-4.3q-1-1.1-1.2-3.2-.1-2.6 1-4 1.1-1.5 3-1.9 2-.2 3.2.9t1.4 3.2q0 2.1-.8 3.8a4 4 0 0 1-3.2 2q-2.3.4-3.4-.8m-2-7.5q-1 2-1 4.5.3 2.8 1.7 4.3 1.8 1.5 4.6 1a7 7 0 0 0 4.6-2.8 9 9 0 0 0 1.2-4.8 6 6 0 0 0-1.5-3.9q-1.7-1.8-5-1.3a7 7 0 0 0-4.6 3m56.5-21.9q1.7-.2 3 .1 2 .7 2.8 3l-1.6.2q-.5-1.1-1.6-1.7-1-.3-2.4-.1-1.7.3-2.7 1.7a6 6 0 0 0-.5 4 6 6 0 0 0 1.5 3.4q1.2 1.1 3.4.7 1.5-.3 2.5-1.4 1-1.2.7-3.3l-3.9.7-.2-1.4 5.4-1 1 6.6-1 .1-.7-1.4q-.7 1-1.3 1.5a6 6 0 0 1-6.6.4q-2-1.3-2.5-4.5-.5-3 .9-5.1c1-1.4 2-2.1 3.8-2.5m12.1-1.2 3.9-1.5 1.3-.2q1.1.1 1.6 1.3.3 1.2 0 1.9-.6.6-1.7 1l-3.6 1.4zm3.9 10.1-2-4.9 3.7-1.3q.9-.4 1.4-.3 1 0 1.5 1.2l.8 1.9.4.8.3.4 2-.7-.2-.3q-.4 0-.7-.5l-.5-1-.7-1.4q-.5-1-.9-1.4l-1.3-.3q.6-.7.8-1.5.1-.9-.2-1.9-.8-2-2.6-2-1-.1-2.4.3l-5.4 2 4.4 11.6zm14-6-6.8-10.3 7.5-5 .8 1.3-6.2 4 2.2 3.2 5.7-3.7.7 1.2-5.7 3.7 2.4 3.5 6.2-4 .9 1.1zm6-18 2-2.3q1.4-1.4 3-1.2 1.4.2 3.2 1.8a6 6 0 0 1 1.9 2.8q.1 1-.2 2l-.8 1.1-2 2.2zm10.4 5c1.4-1.7 1.7-3.1.9-5.2a10 10 0 0 0-2.2-3 7 7 0 0 0-4-2q-2.2 0-4 1.7l-3.3 3.6 9.3 8.5zm7.2-9.4-10.7-6.7.9-1.4 10.7 6.7zm4.1-7.2-11.4-5.1 3.3-8.2 1.4.6-2.7 6.7 3.4 1.5 2.6-6.2 1.3.6-2.5 6.2 3.9 1.8 2.8-6.8 1.4.6zm5.3-14.3-12-3.2.3-1.9 11.2-3.4-9.8-2.6.4-1.5 12 3.2-.3 1.8-11.2 3.5 9.8 2.6zm-1-15.7.2-1.6q1 0 1.8-.2 1.2-.7 1.5-2.7l-.1-1.8q-.4-1.5-1.8-1.7-.9-.2-1.5.4t-.9 1.9l-.5 1.5q-.6 1.6-1 2.2-1 1.1-2.5.9a4 4 0 0 1-2.6-1.6q-1-1.2-.8-3.3.3-1.9 1.3-3.2 1.1-1 3-.8v1.5q-1 0-1.6.3-1 .7-1.2 2.4-.1 1.5.4 2.2t1.4.9 1.4-.6l.9-2.1.5-1.7q.4-1.1 1-1.8 1-1 2.6-.8 2 .3 2.8 2 .8 1.5.6 3.5-.3 2.1-1.5 3.4-1.4 1-3.3.8M49.3 553l.3 1.4q-1 .7-1.6 1.4-1.1 1.4-.7 3.4.1.8.5 1.4.8 1 2.1.3 1-.6 1.3-1.4l.4-2.2.1-1.8q0-1.6.4-2.5.5-1.4 2-2.4 1.7-.8 3-.4 1.2.5 1.6 2.4.3 1.7-.4 3.6-.7 1.7-2.7 2.8l-.3-1.4 1.5-1.3a4 4 0 0 0 .5-3q-.3-1.3-1-1.5-.8-.3-1.5.1-1 .5-1.2 1.5l-.3 2.4v1.8l-.5 2.2q-.7 1.5-2.3 2.4-2 1.2-3.2.3a4 4 0 0 1-1.5-2.6q-.3-2.1.6-4a7 7 0 0 1 2.9-2.9m-.8 16.5 11.8-8.1 2.8 7.5-1.4 1-2.3-6.2-3.6 2.5 2.1 5.6-1.4 1-2-5.7-4 2.8 2.2 6.2-1.4 1zm5.3 12.8 10.8-10 1.2 1.7-7.5 10.8 11-5.9 1 1.7-10.8 9.8-.7-1.1 6.4-5.8 1-1L68 581l-11 6-.7-1.2 7.4-10.8-.4.3-1.2 1.1q-.4.6-1.2 1.1l-6.3 6zm20.2 9q-.7.2-1.6-.4l-2.3-1.6 3.1-4 2.3 1.6 1 1q.2 1-.7 2.2-1 1.2-1.8 1.3m-8.7 4.1 3.8-4.9 2.7 1.9q1.3.9 2.7.4t2.4-2a5 5 0 0 0 1.2-2.9q0-1.3-1.1-2.1l-3.9-2.7-9 11.6zm10.8 6.2 6.6-12.6 7.7 2.4-.8 1.5-6.4-2-2 3.9 5.9 1.8-.8 1.4-5.8-1.8-2.2 4.3 6.4 1.9-.8 1.5zm19.3-8 4 .1q.8 0 1.2.3.8.6.3 2a3 3 0 0 1-1.2 1.7q-.7.4-1.9.4l-3.7-.1zM92.1 605l1.6-5.5 3.6.2q1 0 1.4.2.7.5.3 1.7l-.5 2.2-.2 1v.4l2 .1v-.3q-.3-.2-.3-.8l.2-1 .5-1.8q.3-1 0-1.6 0-.6-.7-.9l1.6-1q.7-.8 1-2 .7-2.1-.8-3-.7-.5-2-.6l-5.5-.2-3.9 12.8zm16.6-217"/><path fill="#bc715f" d="M108.7 388c1.3-3.4 14.5-18 57.4-20.4.2 0 7 3.1 11.5 2.3 2.3-.6-1.1.2-4.6-2-3.2-2.5-4-7.2 3.5-8.5 8-.7 34-1.7 35.4.9-.2 2.5-14 4.7-20.1 5.2-5.6.7-5 3 .6 2.5 17.6-2.6 36.3-9.7 56.7 4.4 2.1 2-5.8 2-12.6-.5l-4.3.3c-5.7.4-15.9 1-21.2.7-.2.1-5.8 5-13.6 5.5 1 3-2.8 11.6-27 8-4.6 2-17.9 6.6-17 2-4.2.8-10 2.9-11.6 1.1-.2-2.1 11.3-7.5 14.1-10.4l-5 .9c-8.2 1.4-23.5 4.2-27.2 3.8-.7.3-15 7.2-15 4.2"/><path fill="#008830" d="M117.3 424.7c.6-1.1.9-2.4 2-2.8 3 .6 4.4 4.3 7.9.8 1.2-.4 1.6.8 2.6 1 .8 2.3 2.6-.9 4.4-1.4a23 23 0 0 1 12-3.5c-.1 2.9-2 5.9-4.6 8.2.3 2.7 2.2 4 2.4 6.8-.4 1.2-.1 2.5-1.6 3.3-2 0-3.8.1-5.4-.6q-.2-.4-.8-.3c0 1 1.1 1.6 1.8 2.4-1.2 1.8-2.5.8-4 1-.3 1.1 0 2.2-1 3-1.7.2-2-1.3-3.1-2.2-1 1.5.6 1.7 1 2.7-.6 3.9-.7 7-4 10.4l-2.5 1.7c-.5-1.7-.3-4.5-.6-6.3-1.4 2.6-2.5 4.9-4.5 7.4-2.5-.5-3.7-2.7-4.4-5.1a9 9 0 0 1 1.8-8.6c-1-1.1-3-.4-3.6-2.3-4.1-.8-5.6 5.2-8.3 3-.7-3.4.2-7.4 2.5-10.7-.7-1.2-2.1-.6-3.3-1-2.6-1.5-5.5-2.6-5.6-6.4 6.8-4.3 13.9-4.4 19-.5z"/><path fill="#f9d90f" d="M120.7 423.5c0 2.9 1.7.6 3.6 1.8-1.3 0-2 2.4-3.4 1.4l-.8 1c.6 1 1.3.8.5 2.2-1.4.7-1.6-.7-2.3-1.3 0-.4.2-.9-.3-1q-1 1.1-2.6 1.4c-.3-.6-.7-1.1-.2-1.8 1.2-1.5 2.4-.2 3.4-1.3 0-1-.6-1.7.3-2.6.7-.1 1.4-.6 1.8.2m8 .7c0 .6-.2 1.3.5 1.7q1.6-1 2.5.3c0 .6.2 1.1-.5 1.6h-1.5q0-.4-.6-.7c-.6 0-1 .6-1.5 1 .4.6 1.1.7 1 1.5-1 1-1.2-.3-2.3.2-.6-.3.1-1.6-.8-2-1.2.5-.5 2-2 1.8q-1.2-.9-.6-2.2 1.3-.9 2.4-.3c1-1.7 1-5.2 3.4-3m-10 6.6c.6 1 0 2.3.7 3.2 1.5-2.5 2.4-.3 4.1-.6.5.5.2 1.3.3 2-2 1-4 2-6 1l-.4.6c1 .8 1.8 1.5 1.1 3.4-1.6.7-3.4 1.2-4.3 0-.3-1.3.7-2.3-.5-3.1-1 1.6-1 2.9-2.9 2.4q-2-.8-1-3c1.5-2.3 3.4-1 5-2.2 0-2-.4-3.2 1.1-4.7 1.4-.4 2 .3 2.8 1"/><path fill="#fff" d="M124.2 430.7c-1 3-2.7.7-4 .6 1.6-2.6 2.2 0 4-.6m7 1.7c-1.6.6-1.4-1-2.1-1.8l.6-.7q.8 1.1 1.5 2.5"/><path fill="#f9d90f" d="M129 432.3c.3 1-.8 2 .3 2.6l1-1.2c1.2 0 2.3 0 3 1 .7 2-1.1 2.4-2.6 3.3l-1.2.2c.2-.7-.5-.8-.8-1.2q-.9 0-1.3.9c.4 1.4 1.8 2 .2 3.7-1.6.3-3.5 1.3-3.6-.8-.4-1.2 1.3-3-.7-2.9-.8 1.9-1.5 3.3-3.4 2.4l.2-2.3c2-.4 3.7-.6 4.8-2.8.3-1.7-.8-2.6.3-4.2 2-.7 2.8.2 3.8 1.3"/><path d="M127.7 436c.3 1-.7 1.3-1.4 2q-1.1.4-1.8-.3c-.2-1.3.6-1.7 1.4-2.4 1-.5 1.2.3 1.8.7"/><path fill="#fff" d="M126.6 437q-.3.3-.7.4l-.3-1.3c.6 0 1.3 0 1 .9"/><path fill="#1a1a1a" d="M8 195.3c170.8-85.3 341-54.5 513.3-28C676.5 191 833.4 211.8 992 132.7v672c-170.8 85.3-341 54.5-513.3 28C323.5 809 166.6 788.1 8 867.2zm31.3 19.3v604.5c306.5-128.2 611.1 96 921.5-33.7V180.9C654.2 309 349.5 84.9 39.3 214.6" opacity=".2"/></svg>