<svg xmlns="http://www.w3.org/2000/svg" viewBox="0 0 1000 1000"><path fill="#012a87" d="M8 195c171-85 341-54 513-28 155 24 312 45 471-34v672c-171 85-341 54-513 28-155-24-312-45-471 34z"/><path fill="#dc171d" d="M8 195c171-85 341-54 513-28 155 24 312 45 471-34v336c-171 85-341 54-513 28-155-24-312-45-471 34z"/><path fill="#fff" d="M8 195v672c144-183 289-283 437-375C301 360 156 235 8 195"/><path fill="#ff0" d="M229 394v-15s-6-3-5-9c0 0-5-1-5-8q-3 2-8-6s-6 2-9-4q-3 3-8-2c-1 0-6 2-10-2-1 0-6 3-9-1-4 5-9 3-10 3-4 6-9 5-10 5q-5 6-8 5c-3 6-9 6-9 6-1 6-7 7-7 8 0 6-6 9-6 9 1 6-5 10-5 11q3 7 0 9v5q54-13 109-14"/><path fill="#f9d90f" d="M229 394v-15s-6-3-5-9c0 0-5-1-5-8q-3 2-8-6s-6 2-9-4q-3 3-8-2c-1 0-6 2-10-2-1 0-6 3-9-1-4 5-9 3-10 3-4 6-9 5-10 5q-5 6-8 5c-3 6-9 6-9 6-1 6-7 7-7 8 0 6-6 9-6 9 1 6-5 10-5 11q3 7 0 9v5q54-13 109-14"/><path d="M229 394q-54 1-109 14v-5q3-5 0-9 6-5 5-11 6-3 5-9v-1h1q6-1 7-7 6-1 9-6v-1q7 0 8-4 7 0 10-5 7 2 9-4h1q2 5 9 2v-1 1q4 4 10 2 2 4 8 2 3 6 9 4h1q0 5 7 6 0 7 5 8h1-1q-1 6 6 9-3 5-1 9zm0-1v-5q-3-4 0-9-6-3-5-9-6-1-6-8-6 0-7-6-6 1-9-3-7 1-8-3-7 3-10-2-7 3-9-1-3 4-10 3-3 6-10 5-1 5-8 5-3 6-9 6-1 5-7 8 0 4-3 7l-3 2q2 6-5 11 3 4 1 9l-1 4q54-12 109-14"/><path fill="#dc171d" d="M226 387c-17-1-36-3-52 8q-17-6-36 1l-21 7-1 1q-19 4-34 1l9 59c3 29-14 61-7 89 5 13 20 17 34 15a178 178 0 0 1 49 0q5 1 8 5 13-13 31-15c20-4 45-4 57-23v-1c7-10 6-26 3-38l-2-11c-12-34-2-71 4-105l-21 7-18 1zm26 96"/><path fill="#62afe1" d="m252 483 1 6c3 15 5 33-10 43-16 11-37 8-56 15l-12 9-5-3c-16-6-36 0-54 0q-14-2-20-14c-5-23 8-47 7-71q-1-27-9-51 22 4 45-6 19-7 36-2 9-6 19-7l37 1q13-2 23-7c-4 28-12 58-2 87"/><path fill="#fff" d="M227 489v-27h3l-40-23v-14h4l-20-13-19 18 3-1v14l-39 34 3-1v27q52-11 105-14"/><path d="m228 491-1-1q-52 2-106 14v-27l-5 2q20-19 42-36v-13l-6 1 22-20 23 14-6 1v12l42 25h-5zm-2-3v-27h1l-37-22v-15h2l-18-11-17 16 2-1v15l-37 33 1-1v27q51-12 103-14"/><path fill="#fff" d="M239 524v8q-63 1-128 17v-8q63-16 128-17"/><path d="M240 524v9q-63 1-130 17v-10q64-16 129-17zm-128 17v7q63-16 127-17v-7q-63 3-127 17"/><path fill="#fff" d="M120 538v-28l5-1-1 28 1-28-8 1v-6q57-13 115-15v6h-7v29-29h5v28q-54 2-110 15"/><path d="M119 538v-27l-3 1v-8q58-14 117-16v8h-2v27l-2 1v-28h-3v28h-2v-29l7-1v-4q-55 2-113 15v4h1l7-1-1 29h-1v1-28l-4 1 1 27zm26-45v1l-2 1-15 3v-21l17-4zm-17 37v-21l17-4v21h-1v1zm92-45-16 1v-21l17-2zm-26 2-17 2v-22l17-2zm-22 2v1l-16 3v-22l17-2zm48 28-17 1v-21l17-2zm-1-33v-18l-14 1v18zm-76 23-13 3v18l13-3zm50-21v-18l-14 2v18zm-22-15-14 2 1 18 13-2zm-28 22v-18l-13 3v18zm76 23v-18l-14 1v18zm-37-43v-1l8-1v13l-9 1zm-49 40v-1l8-2v13l-9 2zm75-43h8v13h-9zm-47 6v-1l8-2v14l-9 1v-12zm-28 5v-1l8-2v13l-9 2zm75 21h8v13l-8 1zm-25-19 6-1-1-9h-5zm-49 40 5-1v-10l-5 1zm75-42 5-1v-9h-5zm-47 5 5-1v-10l-5 1zm-28 5 5-1v-10l-5 1zm75 22 6-1v-9h-6z"/><path fill="#fff" d="m197 481 1 45-45 6v-46z"/><path d="M198 480v47l-46 6v-47zm16-20q-40 3-81 11l27-26 29-4zm-23 66v-31l-32 4v31zm-3-82-27 4-23 21q36-7 73-10zm9 38-43 5v11l43-5zm-34-51 24-3v13l-25 4v-13zm0 11 22-3v-10l-22 3zm34 53h-4v31l4-1zm-40 35v-30h-3v31zm6-99 24-3v13l-25 4v-13zm0 11 22-3v-10l-22 3zm7-9v6h-1v-1l11-2v1h-1v-5h1l-11 2v-2l12-1v7l-13 2v-7zm5-17 15 9-31 4 15-13 1 1-13 11h-1v-1l27-3-1 1-13-8zm0 0 15 9-31 4 15-13 1 1-13 11h-1v-1l27-3-1 1-13-8zm0 0 15 9-31 4 15-13 1 1-13 11h-1v-1l27-3-1 1-13-8zm0 0 15 9-31 4 15-13 1 1-13 11h-1v-1l27-3-1 1-13-8zm0 0 15 9-31 4 15-13 1 1-13 11h-1v-1l27-3-1 1-13-8z"/><path fill="#fff" d="M228 405c3 1 4 15 4 24q7 2 14 9l-36 2c3-5 10-10 13-11 0-8 1-23 5-24"/><path d="m232 414 1 14 7 3 7 6 1 2-40 2 1-2 13-10 1-15q1-9 5-10 3 0 4 10m-4-9v1q-2 0-3 8l-1 15v1h-1l-6 4-5 5 32-2-12-7v-1l-1-15-3-8zm-55 79-1 2v5l1 2-6 1 2-2v-5l-2-2 1-1zm18-2 5-1-1 3v4l1 3h-6l1-2zm-14 1h5l-2 2v5l2 2-7 1 2-3v-4l-1-1 1-1zm-22 3h5l-2 3v4l2 2-7 1 2-2v-5l-1-1 1-1zm29-4h5l-2 3v4l2 2-6 1 1-2v-5l-1-1 1-1zm-22 3h4l-1 2v5l1 2-6 1 1-2v-6l1-1zm31 0v3zm-30 3v4zm-6 1v4h1zm29-4v4zm-16 2v4zm9-1v4zm-22 8"/><path fill="#f9d90f" d="M175 587c17-3 37-8 47-13l21-3 1 27c-18 10-60 16-69 17-8 1-51 6-68 1v-26l21-4c10 3 31 3 47 1"/><path d="M175 586a209 209 0 0 0 47-12l21-3 1 27q-11 6-38 12a399 399 0 0 1-62 8q-26 1-38-2l1-27 21-3q8 3 21 2 14 0 26-2m0 1a219 219 0 0 1-47 0l-21 3v26q12 3 37 1a422 422 0 0 0 62-8q26-5 37-12v-26l-21 3q-7 4-21 8z"/><path fill="#f9d90f" d="m52 505 19-1-6 33-17 10s-3-15 4-42"/><path d="m52 505 19-1-6 33-18 10v-11q0-15 5-31m0 0a129 129 0 0 0-4 41l17-9 6-32z"/><path fill="#7e7e7e" d="m65 537-17 10 11-21z"/><path fill="#f9b60f" d="m65 537-17 10 11-21z"/><path d="m65 537-18 10 12-21zm0 0-6-10-11 19z"/><path fill="#f9d90f" d="m41 532 18-6c0 18 2 69 71 58l-2 22c-84 19-91-41-87-74"/><path d="m107 615 18-8q-52 12-73-18-8-11-11-29v-28l18-6c2 50 25 65 71 57h1l-3 23h-1zm-66-83q-2 14 1 27 2 18 10 30 21 30 75 17l1-1 2-21c-46 7-70-8-71-58z"/><path fill="#ff0" d="m297 470-19 5 6 31 18 4s3-16-5-40"/><path fill="#f9d90f" d="m297 470-19 5 6 31 18 4s3-16-5-40"/><path d="M297 470a109 109 0 0 1 5 40l-18-4-6-31zm0 0-18 5 5 31 18 4v-11q0-14-5-29"/><path fill="#7e7e7e" d="m284 506 18 4-11-17z"/><path fill="#f9b60f" d="m284 506 18 4-11-17z"/><path d="m284 506 7-13 11 17zm1 0 16 4-10-16z"/><path fill="#f9d90f" d="M308 493h-18c0 18-1 71-70 79l2 21c84-4 90-69 86-100"/><path d="M308 492q3 13 0 28-2 18-10 33-21 37-73 39l18 4-19-4h-2l-3-21h1c46-5 69-28 70-79zm0 1h-17c-2 51-25 74-71 79l2 21h2q53-2 74-40 7-13 10-33z"/><path fill="#012a87" d="m164 601-2 1h-3v-4h5l1 2zm-6 8 1-5 4-1 3-1 1-3-1-2-3-1-5 1-1 12zm13-12 4-1zm0 0 4-1zm0 0 4-1zm0 0 4-1zm0 0 4-1h1l1 2-1 2-2 1h-3zm0 11v-6h5l1 1v4h2v-1l-1-1v-3l-1-1 1-1 1-2q0-3-2-3h-2l-6 1v12zm12-5-1-3 1-4 3-2 3 1 2 3-1 4-3 2q-3 1-4-1m-2-7-1 4 2 5 5 1 4-3 1-5-1-4-5-1q-3 0-5 3m57-22h3l3 3h-2l-2-1-2-1-3 2v4l1 4h4l2-1 1-3h-4v-1l5-1 1 6-1 1-1-2-1 2h-6q-3-1-3-4l1-6zm12-1 4-2h1l2 1v2l-2 1-4 2zm4 10-2-5 3-1 2-1 1 2 1 1 1 1v1l2-1-1-1-1-1v-1l-1-2h-1v-3q0-2-2-2h-3l-5 2 4 12zm14-6-7-10 7-5 1 1-6 4 2 3 6-4 1 2-6 3 2 4 7-4v1zm6-18 2-2 3-2 3 2 2 3v2l-1 1-2 2zm10 5q3-3 1-5l-2-3-4-2-4 1-3 4 9 8zm7-9-10-7 1-2 10 7zm5-8-12-5 3-8 2 1-3 6 4 2 2-6h1l-2 6 4 2 3-7 1 1zm5-14-12-3v-2l11-3-9-3v-2l12 4v1l-12 4 10 2zm-1-16v-1l2-1 1-2v-2l-2-2-1 1-1 2-1 1-1 2-2 1-3-1v-4l1-3 3-1v2h-2l-1 3 1 2 1 1 1-1 1-2 1-2 1-2h2q3 0 3 2l1 3-2 3zM49 553l1 2-2 1-1 3 1 2h2l1-1 1-3v-4l2-2 3-1 2 3-1 3-2 3-1-1 2-2v-3l-1-1h-1l-1 1-1 3v4l-2 2-4 1-1-3v-4zm0 17 11-9 3 8-1 1-3-6-3 2 2 6-1 1-3-6-4 3 3 6-2 1zm5 12 11-10 1 2-8 11 11-6 1 2-10 9-1-1 6-5 1-1 2-2-11 6-1-1 8-11h-1l-1 1-1 2-6 5zm20 9h-2l-2-2 3-4 3 2v3zm-9 5 4-5 3 2h2l3-2 1-3-1-2-4-3-9 12zm11 6 7-13 7 3v1l-7-2-2 4 6 2-1 1-5-2-3 5 7 2-1 1zm19-8h6v2l-1 2h-6zm-3 11 2-5h5v4l-1 1h2v-2l1-1v-2l-1-1 2-1 1-2-1-3-2-1h-6l-4 13zm17-217"/><path fill="#bc715f" d="M109 388c1-3 14-18 57-20 0 0 7 3 12 2l-5-2q-6-5 3-9c8 0 35-1 36 1 0 3-14 5-20 5q-8 2 0 3c18-3 37-10 57 4 2 2-6 2-13 0h-4l-21 1s-6 5-14 5c1 3-2 12-27 8-4 2-17 7-17 2l-11 2c0-3 11-8 14-11l-5 1-27 4c-1 0-15 7-15 4"/><path fill="#008830" d="m117 425 2-3c3 0 5 4 8 1l3 1q1 1 4-2l12-3q0 5-4 8l2 7q1 2-2 3h-5l-1-1 2 3-4 1-1 3-3-3q-1 2 1 3 0 6-4 10l-3 2v-6l-5 7q-3 0-4-5t2-8l-4-3c-4-1-5 6-8 3q-1-5 2-10-1-2-3-1-5-2-6-7 11-6 19 0"/><path fill="#f9d90f" d="M121 423c0 3 1 1 3 2l-3 2-1 1 1 2-3-1v-1l-3 1v-2l4-1v-3zm8 1v2h3l-1 2h-1l-1-1-1 1 1 2h-3l-1-2-2 2v-3h2q1-4 4-3m-10 7v3c2-3 3 0 5-1v2q-3 2-6 1l-1 1 2 3q-3 2-5 0v-3q-1 3-3 3-2-1-1-3c1-3 3-1 5-3q-1-2 1-4 2-1 3 1"/><path fill="#fff" d="M124 431c-1 3-3 0-4 0zm7 1-2-1 1-1z"/><path fill="#f9d90f" d="M129 432v3l1-1 3 1q1 2-2 3h-2v-1l-2 1q2 1 1 4-4 1-4-1 1-2-1-3-1 3-3 2v-2q3 0 5-3v-4q3-1 4 1"/><path d="m128 436-2 2h-1q-1-2 1-3z"/><path fill="#fff" d="M127 437h-1v-1z"/></svg>