<svg xmlns="http://www.w3.org/2000/svg" viewBox="0 0 1000 1000"><path fill="#3e5eb9" d="M8 195.3c170.8-85.3 341-54.5 513.3-28C676.5 191 833.4 211.8 992 132.7v672c-170.8 85.3-341 54.5-513.3 28C323.5 809 166.6 788.1 8 867.2z"/><path fill="#ffd900" d="M8 321.3c170.8-85.3 341-54.5 513.3-28C676.5 317 833.4 337.8 992 258.7v420c-170.8 85.3-341 54.5-513.3 28C323.5 683 166.6 662.1 8 741.2z"/><path fill="#b10c0c" d="M8 363.3c170.8-85.3 341-54.5 513.3-28C676.5 359 833.4 379.8 992 300.7v336c-170.8 85.3-341 54.5-513.3 28C323.5 641 166.6 620.1 8 699.2z"/><path fill="#fff" d="M816.3 443.6a827 827 0 0 1-39.8 17.7q19.5 6 39.8 11.1A786 786 0 0 0 856 452q-19.6-3.4-39.8-8.4"/><path d="M816.3 442.7q20.8 5.2 42.3 8.8a793 793 0 0 1-42.3 21.8q-21-5-42.3-11.8a838 838 0 0 0 42-18.6zm0 1.8a842 842 0 0 1-37.4 16.7q18.5 5.7 37.4 10.3a783 783 0 0 0 37.3-19 598 598 0 0 1-37.3-8"/><path fill="#ffd900" d="M214.6 409.6c190-12.3 379.9 60.2 575.5 46q4.6.2 5 4.5c-.2 2.8-2 4.8-5 5.2-190 13.7-379.9-58.8-575.5-46.1q-4.7-.2-5.1-4.5.4-4.4 5-5.1"/><path d="M214.6 408.7C404.6 396.4 594.5 469 790 455c4-.1 5.7 1.2 5.9 5.1-.2 4-1.8 5.6-6 6.1-189.9 13.7-379.8-58.8-575.4-46q-2.5 0-4.2-1.4a5 5 0 0 1-1.8-3.9 6 6 0 0 1 1.8-4.1 7 7 0 0 1 4.2-2m0 1.7q-1.9.3-3 1.4-1.3 1.4-1.3 2.9 0 1.6 1.2 2.7 1.3 1 3 1c190-12.4 380 60.1 575.6 46q1.7 0 3-1.4 1.2-1.2 1.2-2.8 0-1.7-1.2-2.7-1.3-1-3-1c-190 13.7-379.9-58.8-575.5-46"/><path fill="#ffd900" d="M781.2 465.9a6 6 0 0 0 4.6-5.1 5 5 0 0 0-4.6-4.5z"/><path d="M781.2 465c2.6-.3 3.7-1.4 3.8-4.2q0-1.4-1.2-2.6a4 4 0 0 0-2.6-1v-1.8q2 0 3.8 1.5a5 5 0 0 1 1.7 3.8q0 2.1-1.7 4a6 6 0 0 1-3.8 2z"/><path fill="#ffd900" d="M776.5 466.1a6 6 0 0 0 4.7-5 5 5 0 0 0-4.7-4.6z"/><path d="M776.5 465.3a4 4 0 0 0 2.6-1.4q1.2-1.4 1.2-2.8 0-3.9-3.8-3.7v-1.7q2 0 3.8 1.5a5 5 0 0 1 1.7 3.8q0 2.1-1.7 4a6 6 0 0 1-3.8 2z"/><path fill="#ffd900" d="M771.8 466.4a6 6 0 0 0 4.7-5 5 5 0 0 0-4.7-4.6z"/><path d="M771.8 465.5c2.7-.3 3.7-1.4 3.8-4.1q0-1.4-1.2-2.7a4 4 0 0 0-2.6-1v-1.8q2 0 3.8 1.6a5 5 0 0 1 1.7 3.8 6 6 0 0 1-1.7 4 6 6 0 0 1-3.8 2z"/><path fill="#fff" d="M778.1 475.7a905 905 0 0 1-39.8 15.4 861 861 0 0 0 39.8 13.4 841 841 0 0 0 39.8-17.9 714 714 0 0 1-39.8-11"/><path d="M778.1 474.8q21 6.3 42.3 11.5a833 833 0 0 1-42.3 19q-21-6.3-42.3-14.2 20.7-7.4 42-16.2zm0 1.7a912 912 0 0 1-37.3 14.6q18.4 6.6 37.3 12.5a851 851 0 0 0 37.4-16.7 705 705 0 0 1-37.4-10.3"/><path fill="#ffd900" d="M176.4 442c190.2-24.2 379.7 47.4 575.5 44.2q4.6.4 5.1 4.7-.5 4.3-5 4.9c-189.8 3-380.2-69-575.6-44.1q-4.7 0-5-4.2.3-4.4 5-5.4"/><path d="M176.4 441.2C366.6 417 556.1 488.5 752 485.4c4.1 0 5.7 1.6 6 5.5-.3 3.9-1.9 5.5-6 5.7-189.7 3.1-380-69-575.5-44q-2.5.2-4.2-1.2a5 5 0 0 1-1.7-3.7q0-2.4 1.7-4.3a7 7 0 0 1 4.2-2.2m0 1.7q-1.7.3-3 1.6-1.2 1.4-1.3 3 0 1.5 1.3 2.5a4 4 0 0 0 3 .8C366.6 426.5 556.1 498.1 752 495q1.7 0 3-1.2a4 4 0 0 0 1.3-2.8q0-1.6-1.3-2.7a4 4 0 0 0-3-1.2c-189.7 3.1-380-69-575.5-44"/><path fill="#ffd900" d="M743 495.9a5 5 0 0 0 4.7-4.8 5 5 0 0 0-4.7-4.8z"/><path d="M743 495c2.7-.1 3.7-1.2 3.9-4a4 4 0 0 0-1.3-2.6 4 4 0 0 0-2.6-1.3v-1.7q2.1 0 3.8 1.8a6 6 0 0 1 1.7 3.8q0 2.2-1.7 4a6 6 0 0 1-3.8 1.7z"/><path fill="#ffd900" d="M738.3 495.9a5 5 0 0 0 4.7-4.8 5 5 0 0 0-4.7-4.8z"/><path d="M738.3 495q1.5 0 2.6-1.2a4 4 0 0 0 1.3-2.7c-.2-2.7-1.2-3.8-3.9-4v-1.6q2.1 0 3.8 1.7a6 6 0 0 1 1.7 3.9q0 2.1-1.7 3.9a6 6 0 0 1-3.8 1.7z"/><path fill="#ffd900" d="M733.6 495.9a5 5 0 0 0 4.7-4.8 5 5 0 0 0-4.7-4.8z"/><path d="M733.6 495c2.7-.1 3.7-1.2 3.9-4a4 4 0 0 0-1.2-2.6 4 4 0 0 0-2.7-1.3v-1.7q2.1 0 3.8 1.8a6 6 0 0 1 1.7 3.9q0 2.1-1.7 3.9a5 5 0 0 1-3.8 1.7z"/><path fill="#ffd900" d="M113 485.2c259.2-64.7 518 83.9 782.7 13 4-.8 6.7 1.1 7 5.3-.3 4.2-3 7.7-7 9-259.5 69.6-517.6-79-782.7-13q-6.2 1-7-5.3a10 10 0 0 1 7-9"/><path d="M113 484.3c259.2-64.7 518 83.9 782.7 13q3.3-.9 5.5.8t2.3 5.1a11 11 0 0 1-2.3 6.4q-2.3 3-5.5 3.9c-259.5 69.5-517.6-79.1-782.7-13q-3.3.8-5.5-1t-2.3-5.1a11 11 0 0 1 7.8-10.1m0 1.8c-4.1 1.2-5.8 3.5-6 7.8.2 4.3 1.8 5.6 6 4.8 259.2-64.7 518 83.9 782.7 13 4.1-1.3 5.9-3.6 6-8-.2-4.3-1.8-5.5-6-4.6C636.2 568.6 378.1 420 113 486"/><path fill="#fff" d="M734.3 524.7C686.9 573 625.5 663 500 644c-109-17.2-188.2-121.1-234.3-168.7 47.9-48.8 124-136 234.3-119.3 124.7 19.6 187.8 120.6 234.3 168.7"/><path d="m734.9 525.3-23 24.7q-23.5 25.3-37 37.8a269 269 0 0 1-46 34.4 192 192 0 0 1-129 22.6c-43-6.7-85.6-28.2-128.5-63q-24-19.6-50-46l-40.6-43.2-15.7-16.7-.6-.6.6-.6 15.6-16q25.5-26.3 40.6-39.5a337 337 0 0 1 50-37c43-25.3 85.5-33.6 128.7-27a274 274 0 0 1 129 58.7q22.5 18 45.8 42.8 13.5 14.6 37 41.8a673 673 0 0 0 23 25.6l.6.6zm-1.8-.6a686 686 0 0 1-22.5-25.2q-23.4-27-37-41.7a451 451 0 0 0-45.6-42.6 271 271 0 0 0-128-58.4c-42.8-6.5-85 1.8-127.7 26.9q-24 14.2-49.9 36.8c-10 9-23.5 21.8-40.5 39.3l-15 15.5 15 16.1 40.6 43.2q25.8 26.5 49.8 46C415 615 457.3 636.4 500 643c46.4 7.1 88.7.2 128-22.5a268 268 0 0 0 45.7-34.1q13.5-12.4 37-37.7z"/><path d="M483.6 403.6C495.8 420 486 423.8 499 427c13.8 3.8 6.2 15.6 17.7 18.4 8 2.3-.5 33.2 7 46 8.5 12.5 14.5 5.8 15 14-.4 8.6-21.4 4.4-22.3 30.8-1.1 15.2-18 13.5-19.4 23.1-.2 9.1 34.5 20 34.8 28.1-1.3 8-38.4 1.1-40.9 10-.1 8.4 52.5 23.7 57.6 48.7-8.2 1.4-31 .5-48.4-2.1-108.8-17.1-188.2-121.1-234.3-168.7 48-48.8 124-136 234.3-119.3-.4.3-31.9 25-16.3 47.6z"/><path fill="#fff" d="M353.2 467.3V429l11.3 1.2v38.4zm34-34.7V471l-11.3-1.3v-38.4zm22.8 3v38.3l-11.4-1.5V434zm-56.8 95.7V493l11.3 1.2v38.4zm34-34.7V535l-11.3-1.3v-38.4zm22.8 3v38.3l-11.4-1.5v-38.3zm11.3-24.2v-38.3l11.4 1.5v38.5zm34.1-33.4v38.4l-11.4-1.7v-38.4zm22.7 3.4v38.4l-11.3-1.7v-38.4zm-56.8 94v-38.3l11.4 1.6V541zm34.1-33.4v38.4l-11.4-1.7v-38.4zm22.7 3.4v38.4l-11.3-1.7v-38.4z"/><path d="M525 491v-38.3l11.3 1.7v38.4zm34-33.2V496l-11.3-1.6V456zm22.8 3.2v38.4l-11.4-1.6v-38.4zM525 555v-38.4l11.3 1.8v38.4zm34-33.2v38.4l-11.3-1.7V520zm22.8 3.2v38.4l-11.4-1.6v-38.4zm11.3-24.1v-38.4l11.4 1.4v38.4zm34.1-34.3V505l-11.4-1.3v-38.4zM650 469v38.4l-11.3-1.2v-38.4zm-56.8 95.9v-38.4l11.4 1.5v38.4zm34.1-34.3V569l-11.4-1.3v-38.4zM650 533v38.4l-11.3-1.1v-38.4z"/><path fill="#3d5da7" d="M846.6 510.4c-6.7 13.2 5-3.9 36 9.5 5.8 2.8 10.5 11.3 10.7 18.7-1.4-.7-2.6-2.4-4.1-3.5-1.9 3.1 2 12 2.8 17-4.8-1.7-4.4-2.9-6-6 .3 4.2-.5 15.4 1.1 19.4-3.7-.5-3.6-3-5.5-3.5 1.1 4.6-1 10.5-.5 15.8-2.2-1.6-4.5-2.9-5.5-3.6-.4 2.7-4 10.5-4.4 13-1.8-1-2.3-2.4-2.7-3.6a128 128 0 0 0-11 19.6c-6.6-4.6-22.4-15.8-24.9-23-2 4.5-4.5 6.2-10 10-2.2-11.6-9.7-23.6-5.7-34.4-3 2.2-5.5 4.3-8.5 6.8 3-17.5 17.3-38.5 38.2-52.2"/><path d="M847.2 510.7q-2 3.9-1.8 4.3.1.1 2.8-.3 17.2-3.3 34.9 4.5 4.3 2 7.6 7.8 3.2 5.9 3.3 11.4v1.4l-1-.5q-1-.3-2.4-1.9l-1.2-1.2q-.4 2.4 1.7 9.5 1.4 4.5 1.5 6l.2 1.4-1.2-.3a9 9 0 0 1-4.8-3.4v2q-.2 11 1 13.6l.6 1.3h-1.5q-2.4-.3-4-2.4l-.3-.3q.2 2.6-.4 6.6-.6 5-.4 7.4l.3 2-1.5-1.1q-1.5-1.2-4.3-2.9l-.3-.2-2 5.5a34 34 0 0 0-2 6.2l-.1 1.2-1-.4a5 5 0 0 1-2.6-2.8 80 80 0 0 0-10.2 18.1l-.2 1.3-1-.6-2-1.5q-19-13.6-22.4-20.6a33 33 0 0 1-8.9 8.6l-.6.4-.8.6-.2-1q-.7-3.6-3.3-11.2a45 45 0 0 1-3-21.6q-2.9 2.1-7 5.6l-1.3 1.1.3-1.7a68 68 0 0 1 12.5-28q10.8-14.8 26-24.7v-.2h.4l.2.8zm-2.2 1.6a96 96 0 0 0-23.7 23.1 69 69 0 0 0-11.9 25.5l7.1-5.7 1.9-1.3-.9 2.1c-1.7 4.8-1 12 2.6 22.6q2.3 6.7 3 10.5a26 26 0 0 0 8.9-9.1l.8-2 .5 1.9q2 6.4 22.5 21.3l1.2.8q1.8-4.8 11-18.7l.9-1.3.3 1.3q.6 1.7 1.6 2.7.5-1.8 2-5.4 2-5 2-6.2l.2-1.5 1 .7 1.1.7 3.2 2q0-2.3.6-6 .7-5.6 0-8l-.3-1.1h1.2q1.1.2 2.2 1.6.9 1.1 2 1.7-.7-3.7-.6-12.8v-5.3l1.3-.7.8 1.7a7 7 0 0 0 3.5 3.4l-1.2-4.3c-1.9-6.6-2.2-10-1-11.8l.4-.6.5.3q.8.6 2 1.9l.8.8q-.4-4.5-3-9-3.2-5.7-7.2-7.5a56 56 0 0 0-34-4.5q-3.7.8-4.2-.3-.4-.8.9-3.5"/><path fill="#a70000" d="M820.1 576.6c3-6.3 5.6-8.7 7.6-12.8 3.4-7.6 3.8-12.4 6.8-12.4 3 .6 2.9 3-.9 10.4-3.8 7.3-5.6 9-13.5 14.8m20 11.6c-.3-4.5.8-6.7.7-9.6-.6-5.4-2.3-8 .2-9 2.8-.6 3.8.7 4 6-.1 5.4-.8 6.8-5 12.6m15.2 6.4c-1-6.2-.4-9.2-1-13.2-1.5-7.3-3.8-11-1.5-12.5 2.7-.9 4 .8 5 8.2.9 7.2.4 9.3-2.5 17.5m15.7-48.1c-3.7-2-5.8-2-8.2-3.2-4.4-2.7-6-5.1-7.7-3.5-1.2 2.1-.4 3.5 4 5.8 4.5 2.1 5.9 2.1 12 .9m-2.7 21.8c-2-3.6-3.9-4.4-5.2-6.7-2.3-4.6-2.2-7.9-4.7-6.8-2.4 1.7-2.6 3.5 0 7.7 2.6 4 3.9 4.6 10 5.8"/><path fill="#3d5da7" d="M140.5 492.7c-.3-3.7.3-4.1-1.9-6.5 3.3 1 3.3 4 7.3 1 1.5-1 2-1.1.3-4.9 4-.4 17.3 1.8 19.5 1.7 5.9-.8 15.5-7.8 23-1.2 6.6 6.6 4.5 13.8 4.4 23.7-2.6-1.2-1.5-1.8-4.3-5 2 8.3 0 23.8 0 33-1.2-2.1-1-1.2-2.1-3.3-3 8.5-6.3 10.7-6.4 20.4-1-3.7-.1-3-1.2-4.9-3.5 6.8-21.1 14.3-14.5 20-6.7-2.9-9.3-2.2-12.4-5.1a18 18 0 0 0-3.5 5.3c-11.4-3.8-7.6-15.5-16.5-22-1.6 3.7-1 3-2.6 8.8-1.8-7-2.4-11.6-4.4-16.7-1.8 3.4-1.6 2.3-4.8 7.6-1.5-8.8-3.4-10.4-2.7-16.6-3.4 3.4-1.2 1.7-4.6 5.7 3.5-24.5 17-44.2 27.4-41"/><path d="M139.5 491.4v-.9q-.2-2.2-1.5-3.6l1-1.6q1.3.3 2.8 1.5 1.6 1.4 3.6-.2v-.1l.3-.2.7-.6q0-.6-1-2.9l-.6-1.2 1.4-.2q2.5-.4 12.7 1 6 .8 6.9.7 1.5-.1 5.6-1.7c8.5-3 14-2.7 17.8.7q3.8 3.6 4.8 8.6.5 3 .2 10l-.2 5.7v1.4l-1.2-.5q-1.6-.5-2.5-2 .6 6.5-.2 18.9l-.5 10.1-1.7.6-.9-1.4-.2-.3-2.4 5.4a31 31 0 0 0-3.2 13l-1.8.4q-.5-1.9-.5-3.3a51 51 0 0 1-7.4 6.8 45 45 0 0 0-6.7 6.1c-1.3 1.9-1.1 3 .4 4.3l-1 1.6q-2.7-1.2-6.5-2.2t-5.6-2.5q-1.1 1.3-2.7 4.4l-.4.7-.7-.2c-4.6-1.5-7.7-5-10.1-11.6a23 23 0 0 0-5.7-9.7l-.8 2.6-1.2 4.8-1 3.2-.7-2.9-1.6-6.7a90 90 0 0 0-2.2-8.3l-1 1.5q-1.4 1.8-3 4.4l-1.2 2-.3-2q-.6-3.5-1.7-7.7-1-4-1.1-7l-.6.8-2.4 3.1-1.8 2 .3-2.4a75 75 0 0 1 11.3-31.4c5.8-8.4 10.7-11.7 16-11m.2 2c-4.8-1-9.3 1.8-14.8 9.8q-7.8 11.8-10.5 27.6l.2-.4q.7-1 2.6-3l1.7-1.6-.3 2.1q-.4 3.6.9 8.5l1.4 5.9 1.8-2.6 1.8-3 .9-1.7.6 1.5q1.4 3.3 3 10.2l.7 3.5.3-1.2q.5-2.1 1.4-4.2l.5-1.2.8.6q4.2 2.8 7.1 11 3.1 8.4 8.5 10.5 2-3.5 3.4-4.8l.6-.5.5.5q1.8 1.5 5.6 2.6l3.7 1.1q-.2-1.7 1.3-4 1.6-2 7.2-6.5 6.6-5.4 7.7-7.6l.7-1.7.8 1.4.2.2q.9-4.2 2.9-8.5 2-4 3-7l.6-2 1 1.8.4.8.4-7.2a92 92 0 0 0-.3-22.5l1.5-1q1.3 1.4 2.2 3.2l.6.9.2-4.2c.3-8.4-1.1-13.8-4.5-17.2-3.4-3-8.3-3.2-16.2-.4q-4.5 1.7-6.1 1.8l-7.3-.7q-7.8-1-10.9-1 1 3.1-1 4.6l-.2.1c-2 1.6-3.5 1.8-5.3.8l.2 1.4.1 1.8 1 .4-2.5 1.9z"/><path fill="#a70000" d="M126.3 533.6c3-8.1 5.5-11.1 7.5-16.3 3.4-9.5 4-15.6 6.9-15.6 2.8.8 2.8 3.8-1 13a45 45 0 0 1-13.4 18.9m11.2 16.3c1.3-6.9 3-9.7 3.9-14.2 1.3-8.1.7-13 3.3-13.6 2.7 0 3.2 2.4 1.5 10.5-1.9 7.9-3 9.8-8.7 17.3m13.5 10.5c.5-6.5 1.8-9.4 2-13.6.4-7.7-.8-12 1.6-13 2.7-.1 3.4 2 2.7 9.6a31 31 0 0 1-6.3 17m29-46.8c-5.6-5-8.8-5.7-12.4-8.7-6.5-5.8-9.2-10.7-11.6-8.5-2.2 2.7-1 5.3 5.7 10.5 6.7 5 8.9 5.6 18.3 6.7m-3.3 22.3c-3.7-5.2-6.2-6.4-8.6-9.7-4.2-6.1-5.4-10.7-7.9-9.4-2.3 2-1.8 4.4 2.7 10.1s6.2 6.4 13.8 9"/><path fill="#3d5da7" d="M424.2 370.2c-6.1 11.8 11-2.4 39.4 23a61 61 0 0 1 12.6 29c-6-2.3-16.4-9.7-16.5-9.8.2.3 12 14.5 12.4 29.3-4.5-3.4-6.4-3.5-8-7 .2 4.7 3.6 8.3 3.9 15.6q-4.7-4.4-8.5-7c3.6 8.2-7 20-1.7 26A45 45 0 0 1 433 450c-2.1 1.4-2.4 3.4-2.5 6-.1 0-14.8-13.8-14-18.7a14 14 0 0 0-3 7.8 55 55 0 0 1-13-21c-2.7 3-2.8 3-5.4 6.1-2-12.3-2-11.8 2-21.7a86 86 0 0 0-7.8 5 59 59 0 0 1 35-43.4"/><path d="m424.4 368.5.7 2.2-.4.1q-1.5 3-1 3.7.6.5 4.6 1a64 64 0 0 1 35.7 17.2q4 3.7 8.5 13.9a46 46 0 0 1 4.4 15.8v.8l-.8-.3a72 72 0 0 1-13.3-7.5l3.7 5.9a44 44 0 0 1 6.3 20.5v1.2l-1-.8q-1.5-1.2-3.8-2.5l-2.8-2.2 1.1 3q2.3 5.7 2.3 10v1.4l-1-1.1a80 80 0 0 0-7-5.9q.8 4.3-1.8 12c-2.2 6.5-2.3 10-.6 11.9l2 1.8-2.5-.7a48 48 0 0 1-24.9-18.8q-1.5 1.4-1.6 5v.4q-.3.3-.5.3h-.4l-.2-.1-.1-.2-.5-.4-1.7-1.6q-3-2.9-5.2-5.5a35 35 0 0 1-6.7-9.5q-1.2 2.4-1.7 5.9l-.2 1.3-1-1q-10.1-11.8-12.9-20.1l-1.8 2.1-2.7 3.1-1 1.2-.2-1.7v-.4a69 69 0 0 1-1.2-11.4q.3-2.4 2.4-8.2l-6 4-1.3 1 .3-1.8q2.1-13.5 11.4-25.6a57 57 0 0 1 23.7-18.2zm-1.6 3.1a56 56 0 0 0-21.7 17.2q-8.5 11.1-10.9 23.3 4-2.7 6.5-4.1l1.7-1-.7 2-.3.6a45 45 0 0 0-2.9 9.2q-.1 2.3 1 9.9l1.7-2 2.7-3 .8-1.1.4 1.4a55 55 0 0 0 12 19.7q.9-4.1 2.8-6.8l1.2.8c-.3 1.8 1.5 5 6.4 10.4l5.2 5.4 1.2 1.2q.5-4 2.7-5.2l.6-.4.4.7a37 37 0 0 0 9.9 11.1q6.1 4.8 12.7 7.1c-.9-2.6-.5-6.2 1.3-11.7q3.1-9.3 1.4-12.8l-1.2-2.4 2 1.5q4 3 7.5 6.1-.5-3.4-2.1-7.8a20 20 0 0 1-1.7-6.4h1.3a10 10 0 0 0 3.9 4l2.8 1.8a44 44 0 0 0-6-18.5q-3.2-5.3-6.2-9l.8-1a89 89 0 0 0 15.5 9.5q-.3-5.2-4.3-14.3-4.3-9.8-8-13.3a63 63 0 0 0-34.9-16.8q-4.5-.7-5.5-1.5-1-1.2 0-3.8"/><path fill="#a70000" d="M408.2 430.9c1.2-8.7 3.2-11.8 4-17.4 1.1-10.2-.2-17 3.3-16.7 3.5.9 4.3 4.3 2.7 14.2-1.8 9.8-3.1 12-10 19.9m18.2 18.7c-.7-7.6.5-10.6.1-15.5-.9-8.9-3.1-14.3-.3-14.8 3.2.2 4.5 2.8 5 11.6.2 8.6-.5 10.7-4.8 18.7m28.2 17.3c-3.1-6.9-5.6-9.3-7.7-13.7-3.5-8.1-4.2-13.5-7-13.2-2.6 1-2.5 3.6 1.4 11.5a36 36 0 0 0 13.3 15.4m9.8-56.4c-7.9-5.4-11.8-6.2-16.9-9.6-9-6.3-13.8-11.8-15.9-9.5-1.7 3 .5 5.8 9.8 11.7a41 41 0 0 0 23 7.3m2.9 24.7c-5.8-5.7-9-7-12.8-10.6-6.6-6.8-9.5-12-11.8-10.5-2 2.1-.8 4.8 6 11.1a36 36 0 0 0 18.6 10"/><path fill="#1a1a1a" d="M8 195.3c170.8-85.3 341-54.5 513.3-28C676.5 191 833.4 211.8 992 132.7v672c-170.8 85.3-341 54.5-513.3 28C323.5 809 166.6 788.1 8 867.2zm31.3 19.3v604.5c306.5-128.2 611.1 96 921.5-33.7V180.9C654.2 309 349.5 84.9 39.3 214.6" opacity=".2"/></svg>