<svg xmlns="http://www.w3.org/2000/svg" viewBox="0 0 1000 1000"><path fill="#3e5eb9" d="M8 195c171-85 341-54 513-28 155 24 312 45 471-34v672c-171 85-341 54-513 28-155-24-312-45-471 34z"/><path fill="#ffd900" d="M8 321c171-85 341-54 513-28 155 24 312 45 471-34v420c-171 85-341 54-513 28-155-24-312-45-471 34z"/><path fill="#b10c0c" d="M8 363c171-85 341-54 513-28 155 24 312 45 471-34v336c-171 85-341 54-513 28-155-24-312-45-471 34z"/><path fill="#fff" d="m816 444-40 17 40 11 40-20z"/><path d="m816 443 43 9-43 21-42-12zm0 2-37 16 37 11 38-20z"/><path fill="#ffd900" d="M215 410c190-13 379 60 575 46q5 0 5 4 0 5-5 5c-190 14-380-58-575-46q-4 0-6-4 1-5 6-5"/><path d="M215 409c190-13 379 60 575 46q6 0 6 5 0 6-6 6c-190 14-380-59-575-46l-5-1-1-4 1-4q3-3 5-2m0 1-3 2-2 3 2 2 3 1c190-12 379 61 575 46l3-1 1-3-1-3h-3c-190 13-380-59-575-47"/><path fill="#ffd900" d="M781 466q5-2 5-5 0-5-5-5z"/><path d="M781 465q4 0 4-4l-1-3-3-1v-2l4 2 2 4-2 4-4 2z"/><path fill="#ffd900" d="M776 466q5 0 5-5 0-3-5-4z"/><path d="m776 465 3-1 1-3q0-4-4-4v-1l4 1 2 4-2 4-4 2z"/><path fill="#ffd900" d="M772 466q4 0 4-5-1-3-4-4z"/><path d="M772 466q4-1 4-5l-2-2-2-1v-2l4 1 1 4-1 4-4 2z"/><path fill="#fff" d="m778 476-40 15 40 13 40-17z"/><path d="m778 475 42 11-42 19-42-14zm0 2-37 14 37 13 37-17z"/><path fill="#ffd900" d="M176 442c191-24 380 47 576 44q5 0 5 5t-5 5c-190 3-380-69-576-44q-4-1-5-4 1-4 5-6"/><path d="M176 441c191-24 380 48 576 44q6 0 6 6 0 5-6 6c-190 3-380-69-576-44l-4-2-2-3 2-5zm0 2-3 2-1 2 1 3 3 1c191-24 380 47 576 44l3-1 1-3-1-3-3-1c-190 3-380-69-576-44"/><path fill="#ffd900" d="M743 496q4 0 5-5-1-4-5-5z"/><path d="M743 495q4 0 4-4l-1-3-3-1v-2l4 2 2 4-2 4-4 2z"/><path fill="#ffd900" d="M738 496q5 0 5-5 0-3-5-5z"/><path d="m738 495 3-1 1-3q0-4-4-4v-2l4 2 2 4-2 4-4 2z"/><path fill="#ffd900" d="M734 496q4 0 4-5 0-3-4-5z"/><path d="M734 495q3 0 3-4l-1-3-2-1v-2l3 2 2 4q0 3-2 4l-3 2z"/><path fill="#ffd900" d="M113 485c259-64 518 84 783 13q6-1 7 5-1 7-7 10c-260 69-518-80-783-13q-6 0-7-6 0-7 7-9"/><path d="M113 484c259-64 518 84 783 13l5 1 3 5-3 7q-2 3-5 3c-260 70-518-79-783-13h-6l-2-6a11 11 0 0 1 8-10m0 2q-6 2-6 8t6 5c259-65 518 84 783 13q6-3 6-8 0-7-6-5c-260 70-518-79-783-13"/><path fill="#fff" d="M734 525c-47 48-109 138-234 119-109-17-188-121-234-169 48-48 124-136 234-119 125 20 188 121 234 169"/><path d="m735 525-23 25-37 38q-24 21-46 34-59 34-129 23-64-11-129-63l-50-46-40-43-16-17v-1l16-16 40-40q27-22 50-37 64-37 129-27 70 11 129 59a454 454 0 0 1 83 84q15 19 23 26zm-2 0-22-25-37-42q-24-25-46-43-59-47-128-58-64-10-128 27-23 13-50 37-15 12-40 39l-15 15 15 16 40 44 50 46q64 51 128 62 69 11 128-22 22-13 46-35l37-37zM484 404c12 16 2 20 15 23 14 4 6 16 18 18 8 3-1 34 7 46 8 13 14 6 15 14-1 9-22 5-23 31-1 15-18 14-19 23 0 9 34 20 35 28-2 8-39 2-41 10 0 9 52 24 57 49-8 2-31 1-48-2-109-17-188-121-234-169 48-49 124-136 234-119 0 0-32 25-16 48"/><path fill="#fff" d="M353 467v-38l12 1v38zm34-34v38l-11-1v-39zm23 3v38l-11-2v-38zm-57 95v-38l12 1v38zm34-34v38l-11-1v-39zm23 3v38l-11-2v-38zm11-25v-38l12 2v38zm34-33v38l-11-1v-39zm23 3v39l-11-2v-38zm-57 94v-38l12 2v38zm34-33v38l-11-1v-39zm23 3v39l-11-2v-38z"/><path d="M525 491v-38l11 1v39zm34-33v38l-11-2v-38zm23 3v38l-12-1v-39zm-57 94v-38l11 1v39zm34-33v38l-11-2v-38zm23 3v38l-12-1v-39zm11-24v-39l11 2v38zm34-34v38l-11-1v-39zm23 2v38l-11-1v-38zm-57 96v-39l11 2v38zm34-34v38l-11-1v-39zm23 2v38l-11-1v-38z"/><path fill="#3d5da7" d="M847 510c-7 14 5-3 36 10q9 6 10 19l-4-4c-2 3 2 12 3 17-5-2-4-3-6-6 0 4-1 15 1 19-4 0-3-3-5-3l-1 16-5-4-5 13q-2-1-2-3l-12 19c-6-4-22-16-24-23q-3 6-10 10c-3-11-10-23-6-34l-9 7c3-18 18-39 39-53"/><path d="m847 511-2 4h3q18-3 35 4l8 8 3 11v2l-1-1-2-2-2-1 2 10 2 6v1h-1q-4-1-5-4v2l1 14v1h-1l-4-2-1 6v10l-1-2-5-2v-1l-2 6-2 6v1h-1l-3-3-10 18v2l-1-1-2-2q-19-14-22-20l-9 8-1 1h-1v-1l-3-11q-4-13-3-21l-7 5-2 1 1-1q2-15 12-28 11-15 26-25h1zm-2 1q-14 10-24 23-9 14-12 26l8-6 1-1v2q-3 7 2 23l3 10q7-4 9-9l1-2v2q2 6 23 21l1 1 11-19 1-1v1l2 3 2-5 2-7v-1l1 1h1l3 2 1-6v-9h1l2 2 2 1-1-12v-6h2v1l4 4-1-5q-3-9-1-11v-1h1l2 2 1 1-4-9q-3-6-7-7-16-9-34-5h-4z"/><path fill="#a70000" d="m820 577 8-13q4-12 6-13 5 0 0 11c-4 7-6 9-14 15m20 11 1-9q-3-8 0-9 4-2 4 6c0 5-1 6-5 12m15 7-1-14c-1-7-4-11-1-12q3-2 5 8c1 7 0 9-3 18m16-49q-6-1-8-3-6-4-8-3-2 2 4 6 5 3 12 0m-3 22-5-6q-2-8-5-7-3 2 0 7 3 6 10 6"/><path fill="#3d5da7" d="M140 493q1-4-1-7c3 1 3 4 7 1q2 0 0-5l20 2c6-1 15-8 23-1 6 6 4 14 4 23l-4-5c2 9 0 24 0 33l-2-3c-3 9-7 11-7 21l-1-5c-3 6-21 14-14 20l-13-5-3 5c-12-4-8-16-17-22l-2 9-5-17-5 8c-1-9-3-11-2-17-4 3-2 2-5 6 4-25 17-44 27-41"/><path d="m140 491-1-4 1-2 3 2h3v-1h1l-1-3v-1l1-1 13 1 7 1 5-2q13-4 18 1 4 4 5 9v17l-1-1-3-2v29l-2 1-1-2-3 6q-3 6-3 13h-2v-3l-8 6-6 7v4l-1 2-6-3-6-2-3 4v1h-1q-6-2-10-12-1-7-6-10v3l-2 5v3l-1-3-2-7-2-8-1 2-3 4-1 2v-2l-2-8-1-7-1 1-2 3-2 2v-2q3-18 12-32 7-11 16-11m0 2q-7-2-15 10t-11 28l1-1 2-3 2-1v10l2 6 2-2 1-3 1-2 1 2 3 10 1 3v-1l1-4 1-1h1q4 3 7 11t8 11l4-5v-1l1 1 5 3 4 1 1-4 8-7q7-5 7-8l1-1 1 1 3-8 3-7 1-2v2l1 1v-30l1-1 3 3v1-4q1-13-4-17-4-5-16-1l-6 2-8-1-10-1-1 5h-1q-2 2-5 1v3h1l-2 2z"/><path fill="#a70000" d="M126 534c3-9 6-12 8-17q3-14 7-15 4 0-1 13c-4 9-6 11-14 19m12 16 3-14q1-12 4-14 4 0 1 11c-2 7-3 9-8 17m13 10 2-13q-1-12 2-13t2 9c-1 8-1 10-6 17m29-46-12-9q-10-11-12-9-4 4 6 11c6 5 9 5 18 7m-3 22-9-10q-5-10-8-9-4 2 3 10c4 5 6 6 14 9"/><path fill="#3d5da7" d="M424 370c-6 12 11-2 40 23 5 5 12 22 12 29-6-2-16-10-16-10 0 1 12 15 12 30l-8-7c0 4 4 8 4 15l-9-7c4 8-7 20-1 26q-18-6-25-19l-3 6s-14-14-14-19q-3 4-2 8-9-10-14-21l-5 6c-2-12-2-12 2-21l-8 5c3-18 16-36 35-44"/><path d="m424 368 1 3-1 3 4 2q20 2 36 17 4 3 8 14l5 15v1h-1l-13-8 3 6q7 11 7 21v1l-1-1-4-2-3-3 1 4 3 9v2l-1-1-7-6-2 12q-3 9-1 12l2 2-2-1a47 47 0 0 1-25-19l-2 5v1h-1v-1l-2-2-5-5-7-9-2 5v2l-1-1q-10-12-13-20l-2 2-2 3-1 1-1-2-1-11 3-9-6 4-2 1 1-1q2-14 11-26 10-14 24-18zm-1 4q-13 5-22 17-9 11-11 23l7-4 1-1v2l-1 1-2 9q-1 2 1 10l1-2 3-3 1-1v1q2 8 12 20l3-7 1 1q0 3 7 10l5 6 1 1q0-4 3-6l1 1 9 11 13 7q-1-4 1-12 4-9 2-13l-1-2 2 2 7 6-2-8-2-6 2-1q0 3 4 4l2 2q0-7-6-18l-6-9 1-1q10 7 16 9l-5-14q-4-10-8-13a63 63 0 0 0-35-17l-5-2z"/><path fill="#a70000" d="M408 431c1-9 3-12 4-17q0-17 3-17 6 0 3 14c-2 10-3 12-10 20m18 19 1-16c-1-9-4-14-1-15q5-1 5 12c0 9 0 11-5 19m29 17-8-14q-4-13-7-13-5 1 1 12c4 7 6 9 14 15m9-57-16-9c-10-6-14-12-16-10q-4 4 9 12c10 6 12 6 23 7m3 25c-5-6-9-7-12-11q-10-10-12-10-4 3 6 11c7 6 9 7 18 10"/></svg>