<svg xmlns="http://www.w3.org/2000/svg" viewBox="0 0 1000 1000"><path fill="#00247d" d="M8 195.3c170.8-85.3 341-54.5 513.3-28C676.5 191 833.4 211.8 992 132.7v672c-170.8 85.3-341 54.5-513.3 28C323.5 809 166.6 788.1 8 867.2z"/><path fill="#fff" d="M8 195.3a522 522 0 0 1 55-23.7c63 20.3 126 54.4 191 98.2a1945 1945 0 0 1 191-114.2l55 8.4 11 31.8c-66.7 35.2-133.3 69.9-202 113C375.6 358 442.3 414 511 471.5l-22 56.7C411.5 463.5 334 398.9 254 345A1230 1230 0 0 0 19 556L8 531.4v-37.6C71 419.2 134 360.3 199 310c-63-37.3-126-65.2-191-77.2z"/><path fill="#cf142b" d="M254 307.3q18 0 36.7.6c71.5 51.4 143 111.5 216.6 173.2L500 500c-81.1-68-162.3-136.2-246-192.7v25A1232 1232 0 0 0 15.3 547.8L8 531.2a1240 1240 0 0 1 246-223.9 716 716 0 0 0-36.7 1.3c-69-42.9-138.1-75.2-209.3-88.3v-25c81.2 14.9 162.3 55.7 246 112v-25c69.1-47.8 138.2-86 209.3-124L500 164c-81.2 42.9-162.4 85.5-246 143.3"/><path fill="#fff" d="M295 140v112c94.7 4 189.4 22.8 287 36.2v112c-94.7-13-189.4-32.1-287-36.2v168a755 755 0 0 0-82 .9v-168A530 530 0 0 0 8 419.3v-112a531 531 0 0 1 205-54.4v-112q40.3-2.6 82-.9"/><path fill="#cf142b" d="M278.6 139.5V274c100.1 2.3 200.2 22.6 303.4 36.7v67.2c-100-13.7-200.3-34.3-303.4-36.7v190.4q-24.2-.5-49.2.5V341.6A535 535 0 0 0 8 396.9v-67.2c73.1-36.5 146-52 221.4-55.3V140q24.2-1 49.2-.5"/><path fill="#00247d" d="M8 531.3C170.7 450 332.5 474 500 500V164c161.8 25 325.4 51.9 492-31.2v672c-170.8 85.2-341 54.4-513.3 28-155.2-24-312.1-44.6-470.7 34.5z"/><path fill="#fff" d="M835.3 373.4v95.4c0 77.5-22.3 155.8-89.3 200.4-67-43.4-89.2-120-89.3-197.5v-95.4c59 5.2 117.9 6.1 178.6-2.9"/><path fill="#fdc300" d="M829.3 384v89c0 72.3-20.8 144.9-83.3 186.4-62.5-40.5-83.2-111.5-83.3-183.9v-89a750 750 0 0 0 166.6-2.5"/><path fill="#ff9e3d" d="M707.2 428.3a7 7 0 0 0-4.3-2.3c0-6.1-2.7-8.5-5.2-10-2.3-1.3-3-2.4-3.5-5q-.6-3.6-3.7-5a15 15 0 0 1-4.7-5.3c-.9-1.4-1.1-1.2-1.7 1.1-.8 2.7-2.8 6.1-.8 6.8-1.7 1.9-2.4 3.6-1.5 6.5-1.2 1.3-1.9 2.7-.4 3.7 1.5.8 1.8 1.3 2 2-1.4.2-1.7 3.2 1.5 4.6-.7.3-1 2.7.3 3.1-1.8.3-3.4 3.2-5.7 3.4-2.4-.1-3.3.4-3.6 1.8a8 8 0 0 1-1.9 3.6c1.8.3 2.7.1 3.7-.7q1.6-1.5 3.4 0c1.2 1.2 3 1.8 4.2 1.7a12 12 0 0 0-4 7.1c-.4 2.8-1.5 5.3-3 6.3a10 10 0 0 0-4.3 5.3c2.1 6.6 4.5 8.3 7.3 10.3 5 3.4 7.8 5.7 10 8.8 2 3 2.6 1.1 5.7 6.4 3 5.5 6 15 8.9 17.1 3.3 1.7 6.5.9 9-4.3 2.2-5.8 3.5-57.2-7.7-67"/><path d="M707.3 428.2c4.9 4.2 7.9 15.5 9 35q.4 10.7 0 20.7-.4 9.4-1.3 11.5-1.6 3.7-4.3 4.8-2.4 1-4.9-.4c-1.2-1-3-4-5.6-10l-3.3-7.2q-1.6-3-3.6-4.2a7 7 0 0 1-2.2-2.2 40 40 0 0 0-9.8-8.8h-.2A19 19 0 0 1 674 457v-.1q1.1-3.9 4.3-5.4 2.5-1.3 3-6.2a11 11 0 0 1 3.6-6.9q-2 .1-3.7-1.7c-1.2-1.2-2-1.2-3.3-.1q-1.3 1.2-3.8.7h-.2l.2-.3q1.7-1.9 1.8-3.4.3-2.1 3.7-2 1.2 0 3.1-1.8l2-1.4q-.4-.4-.4-1.6 0-1.1.3-1.5-2-.8-2.2-2.8 0-.8.2-1.4t.7-.6q-.3-.8-1.9-1.6-1-.6-.8-2 .2-.8 1.1-2c-.7-2.4-.3-4.2 1.4-6.3l-.6-.5q-.2-.4-.1-1.2 0-1 1-3.2l.7-2q.5-1.8.8-2 .4-.3 1 .8 2.6 4.3 4.7 5.3a7 7 0 0 1 3.8 5.1 7 7 0 0 0 3.5 5c3.8 2.1 5.3 5 5.2 10q2.3.1 4.3 2.2m-.2.2a7 7 0 0 0-4.2-2.2h-.1v-.2c.1-4.8-1.4-7.6-5.1-9.8a7 7 0 0 1-3.6-5.1 6 6 0 0 0-3.6-4.9q-2.2-1-4.8-5.4-.5-1-.8-.8t-.7 1.9l-.7 2-1 3.1v1q.3.4.8.5h.3l-.3.3c-1.8 2-2.2 3.8-1.4 6.3v.2q-1 .9-1.2 1.9t.7 1.5q1.9 1 2 2l.1.2h-.1q-.4 0-.7.5t-.2 1.2q.4 1.8 2.4 2.6v.3q-.6 0-.5 1.5 0 1.4.8 1.4v.3q-.8 0-2.4 1.5-2 1.9-3.3 1.8-3.2-.1-3.5 1.7a6 6 0 0 1-1.7 3.5q2.2.4 3.4-.8 1.8-1.7 3.5.1 1.8 2 4 1.6l.1.3a11 11 0 0 0-4 7c-.3 3.6-1.2 5.4-3 6.4a8 8 0 0 0-4.2 5.2q2 6.4 7.1 10l.2.2q7.4 5.2 9.9 8.8a7 7 0 0 0 2.1 2.1 12 12 0 0 1 3.7 4.3q1.1 2 3.3 7.3 3.7 8.6 5.5 9.8c1.7.9 3 1 4.8.4q2.5-1 4.1-4.7.9-2 1.3-11.3.5-10 0-20.6c-1.2-19.5-4-30.7-9-34.9"/><path fill="#ff927f" d="M712.3 406.5c-3 4.1-6.2 8-5.8 15.4.6 7.8 1 19.2-3.8 23.5-5 4.3-7.3 13.8-1.4 20.5 5.9 6.5 6.2 13.6 7.2 20.7 1.2 7 3.4 12.1 7.6 7.9 4.2.7 6-1 6.3-5.6 0-4.6.2-6.6 3.2-8.2 3-1.4 3.7-2.6 5.2-6.4s2.1-5.2 1.4-7.5c-.7-2.4-1-6.6-.5-10s-.7-5-1.6-7.2c-.8-2.1-1-3.8-.7-6.6s-.6-4.4-2-6a5 5 0 0 1-1.7-5c.1-2.2-1-3.4-2.5-5.2a11 11 0 0 1-2.6-7.2 24 24 0 0 0-8.3-13.1"/><path d="M712.3 406.3q2.6 1.6 5.6 6.2 2.7 4.5 2.8 7.1c0 3 .8 5 2.5 7.1l.1.1c1.9 2.2 2.6 3.7 2.5 5.3q-.4 2.9 1.7 4.8a7 7 0 0 1 2 6.1 14 14 0 0 0 1.3 7.8q1.5 3.3 1 6a20 20 0 0 0 .5 10q.7 2-1 6.6l-.4 1q-2 5-5.3 6.4a5 5 0 0 0-2.7 2.9q-.4 1.5-.4 5.2 0 3.4-1.7 4.9t-4.6.8q-3 3.2-5 .3-2-2.4-2.8-8.3l-.4-2.7q-.8-6-1.7-9.2a24 24 0 0 0-5.1-8.7c-2.9-3.2-4-6.6-3.5-11.3a14 14 0 0 1 5-9.4c3.4-3 4.6-10.4 3.7-23.4q-.3-4.4 1.2-8.2 1.1-2.3 3.7-6zm0 .4-.9 1.2q-2.6 3.7-3.6 6a18 18 0 0 0-1.2 8c1 13.1-.3 20.6-3.9 23.6a14 14 0 0 0-4.8 9.3q-.7 6.6 3.4 11a24 24 0 0 1 5.2 8.8q1 3 1.7 9.3l.4 2.6q.9 5.8 2.7 8.2c1.5 1.8 2.8 1.7 4.8-.3q3 .6 4.6-.8 1.5-1.5 1.6-4.7 0-3.9.4-5.3a5 5 0 0 1 2.8-3c2.3-1.2 3.8-3 5.2-6.4l.4-1q1.6-4.4 1-6.4-1.4-4.3-.5-10 .5-2.6-1-5.8l-.6-1.3a14 14 0 0 1-.7-6.7c.2-2.4-.3-4-2-5.8a6 6 0 0 1-1.7-5.1q.1-2.1-2.4-5l-.1-.2a11 11 0 0 1-2.7-7.3q0-2.4-2.7-7-2.9-4.4-5.4-6"/><path fill="#ff9ee1" d="M713.4 496.2c6.7-2.7 6.1-16.8 5.1-23.6-1-6.5-3.4-15.4-1.6-22.6 2.5-10.2-3-19.7-1.8-23.7 1.6-3.8 1.4-5.7 1.2-7-.3-1.3-1.5-2.3-1.8.3a8 8 0 0 1-1.8 5.2q-1.4 2.8 0 9.2c1 4.1 2.7 10-.2 18s-1.8 11.3-.6 15.2c1.9 6.3 5.9 25.4 1.5 29"/><path d="m713.5 496.3-.1-.2c1.9-1.6 2.4-5.6 1.6-13.3a92 92 0 0 0-3.2-15.6v-.2q-1.2-3.7-1.3-6 0-4 2-9.1c1.7-4.9 1.8-10.2.4-16.8l-.3-1c-1-5-1-7.8 0-9.4a9 9 0 0 0 1.8-5.1q0-1 .3-1.4t.7-.4q.9.3 1 1.4.5 3.1-1.2 7.2-.5 1.5.8 7.2a35 35 0 0 1 1 16.5q-1.5 5.6 1 18.3l.6 4.2q1.1 6.9.4 13.4c-.8 6.1-2.5 9.1-5.6 10.3m.7-.5c2.5-1.5 4-4.4 4.7-9.9a52 52 0 0 0-.4-13.3l-.7-4a47 47 0 0 1-.9-18.6q1.6-5.9-1-16.3-1.4-5.8-.8-7.4 1.7-4.1 1.2-7-.2-1-.8-1.2-.3 0-.5.3l-.3 1.2q-.1 3-1.8 5.3c-1 1.6-1 4.2 0 9l.3 1.1c1.4 6.7 1.3 12-.5 17a26 26 0 0 0-1.9 9q.1 2.2 1.2 5.9l.1.2q2.1 7 3.2 15.6c.7 7 .4 11-1.1 13"/><path fill="#ff9e3d" d="M683.3 408.7c.8 0 2-.3 2.2 1z"/><path d="M683.3 408.5h.4l1.2.1q.7.3.7 1.1h-.2q0-.6-.5-.8l-1.2-.1h-.4z"/><path fill="#ff9e3d" d="M681.8 415.1c1-.6 2.4.2 4-.9z"/><path d="M681.7 415q.4-.4 1.7-.3a4 4 0 0 0 2.4-.6l.1.3q-.9.6-2.5.6-1.2 0-1.6.3z"/><path fill="#ff9e3d" d="M683.4 420.7a5 5 0 0 0 4.3-1.4z"/><path d="M683.4 420.6c1.9 0 3-.4 4.2-1.4l.1.2q-1.5 1.6-4.3 1.5z"/><path fill="#ff9e3d" d="M684.9 425.4a4 4 0 0 0 3.6-2.8z"/><path d="M684.9 425.2q2.9.1 3.5-2.6h.2q-.7 3.1-3.7 3z"/><path fill="#ff9e3d" d="M685.2 428.5c2.3.2 4.7 1.1 5.4.3z"/><path d="M685.2 428.4q.8 0 2.6.4 2.5.4 2.7 0h.2q-.2.8-2.9.2l-2.6-.3z"/><path fill="#ff9e3d" d="M685.3 438.3c1.7-1.7 4.8-3 5.9-4.9z"/><path d="M685.2 438.2a14 14 0 0 1 2.8-2.2q2.6-1.7 3-2.6l.2.1q-.4 1.1-3.1 2.8-2.1 1.3-2.7 2.1z"/><path fill="#ff9e3d" d="M689 407.9c2.5 1.4 1.7 3.1 2.8 4.7 2 2.7.4 4.7 2 5.7 1.8.9 1.8 1.2 1.3 4-.3 3.2 1.5 3.3 1 5.5z"/><path d="M689.1 407.8q1.6.8 2 2.9.3 1.3.8 1.8 1.1 1.3 1.2 3.7 0 1.7.8 2 1.3.6 1.5 1.3.1.6-.2 2.8a5 5 0 0 0 .6 3.1q.8 1.4.3 2.4h-.2q.5-1.1-.3-2.2a5 5 0 0 1-.6-3.4q.4-2 .2-2.6-.1-.5-1.4-1.1-1-.5-1-2.3 0-2.2-1-3.5-.5-.6-.9-2-.4-1.9-1.8-2.7z"/><path fill="#ff9e3d" d="M702.9 426c-1.3 0-3.7 0-5.3 3.6z"/><path d="M702.9 426.2c-2.7 0-4.1 1-5.2 3.4h-.2c1.1-2.7 2.6-3.7 5.4-3.7z"/><path fill="#ff9e3d" d="M681.4 464.5q1.7.1 2-1.4c.4-1 .6-1.5 1.6-1.6 1.2 0 2.5-.3 3-1.4s1.5 0 2.7-2.8c1-3 1.8-6 4.6-7.3z"/><path d="M681.4 464.3q1.4.4 2-1.3v-.2q.7-1.4 1.6-1.5 2.6 0 3-1.3 0-.4.8-.7 1.1-.5 1.8-2l.5-1.5q1.8-5 4.1-6l.1.3q-2.3 1-4 5.9l-.5 1.4q-.6 1.7-2 2.2-.6.2-.7.5-.5 1.5-3 1.5-.9 0-1.5 1.3v.3q-.8 1.9-2.2 1.4z"/><path fill="#00a728" d="M761.2 526.2c1 2.3 0 4.4 1.8 5.6 2 1.4.6 4.8 3 6.5 2 1.6.3 4.8 2.6 6.8 2 1.8-.1 4.9 2.6 7.2 2.6 2.4-.1 6.3 1.7 8.5 2 2.1-.3 6.1 2 8.2s-.8 5.2 1.3 8c2 2.8-.2 6.3 1.9 8.8 2 2.5-1 5.2 1 8.8 1.5 2.6-.4 5 .7 9 .8 3.1-.8 12.5-6.3 12.3-2.3 4.7-9 8.4-12 7.5-3 2.9-10.7 6.3-15.6.9-4.9 5.5-12.6 2.2-15.6-.6-3.1 1-9.7-2.6-12-7.2-5.5.2-7.1-9.1-6.3-12.2 1.1-4-.8-6.4.7-9 2-3.7-1-6.3 1-8.9s-.2-6 1.9-8.8c2-2.9-1-5.9 1.3-8 2.3-2.2 0-6.2 2-8.3 1.8-2.2-1-6.1 1.6-8.5 2.8-2.4.7-5.4 2.7-7.3 2.3-2 .5-5.2 2.6-6.8 2.4-1.8 1-5.2 3-6.6 1.7-1.2.8-3.3 1.9-5.8 6.1 3.1 22.7 5 30.5-.2"/><path d="M761.2 526q.5 1 .7 3t1.2 2.6q1.1.6 1.4 3.1.2 2.9 1.5 3.5t1.3 3.2q.1 2.8 1.3 3.6 1 .7 1.1 3.2 0 2.9 1.6 4 1.7 1 1.1 4.8-.3 2.8.6 3.7 1.1.8.9 4t1 4.2q1.5.9.8 3.9-.6 2.9.5 4.1 1.3 1.3 1 4.6c-.1 2.2.2 3.3 1 4.2q1.2 1.1.5 4-.8 3.2.4 4.8 1 1.4.6 4.2-.4 3 .2 4.9 1 2.5-.8 7.5c-1.5 3.8-3 5.1-5.5 5q-1.5 3.2-5.8 5.9c-2.9 1.7-4.7 2.1-6.3 1.6-1.9 1.8-4 2.9-7.1 3.6-4 .5-6.3-.2-8.5-2.7-2.2 2.5-4.6 3.3-8.5 2.8a14 14 0 0 1-7.2-3.4c-1.5.5-3.3.1-6.3-1.5a14 14 0 0 1-5.7-5.8c-2.5.2-4-1.1-5.5-4.8q-1.7-5-.8-7.6.6-1.8.2-4.8c-.4-3-.1-3.3.6-4.3.7-1.2.9-2.5.4-4.7q-.7-2.9.5-4.1 1.1-1 1-4.2-.4-3.3 1-4.6c.7-1 .9-2.1.5-4.2q-.7-2.9.8-3.9 1.2-.8 1-4.1-.3-3.2.9-4.1 1-.8.5-3.7-.5-3.7 1.2-4.9 1.5-1.1 1.5-4 0-2.4 1.2-3.2t1.3-3.6q0-2.6 1.2-3.3 1.4-.6 1.6-3.4.3-2.6 1.4-3.2 1-.5 1.2-2.7a8 8 0 0 1 .7-3h.1a36 36 0 0 0 14.6 3.1c7.4.2 12.3-.9 15.8-3.3zm0 .3c-3.6 2.4-8.6 3.5-15.9 3.3a36 36 0 0 1-14.6-3.1q-.5.9-.6 2.7-.1 2.4-1.3 3-1 .5-1.3 3-.2 2.9-1.7 3.6-1 .6-1.1 3 0 2.9-1.5 3.8-1 .8-1 3 0 3.1-1.6 4.3c-1 .8-1.3 2-1 4.5q.3 3.1-.7 4-1 1-.8 3.8c.2 2.5-.2 3.7-1.1 4.5q-1.2.9-.7 3.6.6 3.1-.6 4.4t-1 4.4q.3 3.2-1 4.4-1 1-.4 3.8.7 3.3-.5 5-1 1.3-.5 4a11 11 0 0 1-.2 5c-.6 1.9-.4 4 .7 7.3 1.5 3.7 3 5 5.4 4.7h.1v.1q1.4 3.2 5.7 5.7c3 1.7 4.7 2 6.2 1.5h.1a14 14 0 0 0 7.1 3.4c3.9.5 6.3-.3 8.4-2.8v-.1h.2c2.1 2.6 4.5 3.3 8.3 2.8q4.4-1 7.2-3.6c1.5.5 3.3.1 6.3-1.6a14 14 0 0 0 5.6-5.8v-.1h.1c2.5.2 4-1.2 5.4-4.8q1.8-4.8.8-7.3a11 11 0 0 1-.2-5q.3-2.8-.5-4-1.3-1.7-.5-5 .6-2.8-.5-3.8-1.2-1.1-1-4.4.3-3.2-.9-4.4t-.6-4.4q.5-2.8-.7-3.5c-1-.8-1.3-2-1.1-4.5q.2-3-.8-3.8-1.1-.9-.7-4 .5-3.5-1-4.5-1.6-1-1.7-4.2 0-2.3-1-3-1.3-.9-1.4-3.7 0-2.5-1.1-3-1.4-.9-1.8-3.7-.2-2.4-1.2-2.9-1.2-.6-1.3-3-.1-1.7-.6-2.6"/><path fill="#00a728" d="M735.8 527.2c-1.8 3 0 4.8-1.7 8.3-1.9 3.5-.5 5.1-2 8.3-1.4 3.3.5 4.6-1 8-1.7 3.6 0 5.4-1.8 8.4s0 5.3-1.7 8.6c-1.8 3.2 0 5-1.7 8-1.8 3 0 5.8-1.7 8.8-1.8 3 0 6.4-2 9.9s.1 5.8-1.5 8.5-.4 5.1-1.5 7c-1.3 2-1.5 4.2-1 5.5z"/><path d="M735.9 527.3a6 6 0 0 0-.9 3.8q.1 2.9-.9 4.5-1 1.8-1 4.4 0 2.4-.9 4-.7 1.4-.4 3.6.3 2.6-.7 4.4a8 8 0 0 0-.8 4.2q.2 2.6-1 4.1-.8 1.4-.8 4 .2 2.9-.8 4.6-1 1.5-.9 4 .1 2.6-.9 4t-.8 4.3q.1 3-.9 4.5-1 1.4-.8 4.5 0 3.6-1 5.4-1.1 1.7-1 4.6.3 2.6-.6 4-1 1.3-1 4 0 2-.5 3-2.2 2.8-1 5.2l-.1.2c-.8-1.9-.6-3.5 1-5.7q.5-.7.4-2.8 0-2.7 1-4.2.9-1.2.7-3.6c-.2-2.2 0-3.6.9-5a9 9 0 0 0 1-5q0-3.3.9-4.8 1-1.4.8-4.3 0-3 .9-4.5 1-1.4.8-3.8a7 7 0 0 1 1-4.2q.9-1.5.7-4.3-.1-2.8 1-4.3 1-1.4.8-4 0-2.6.8-4.3t.6-4.1.6-4 .8-3.7a9 9 0 0 1 1-4.6q1-1.6 1-4.2-.3-2.6.8-4.1z"/><path fill="#00a728" d="M739.8 528.2c-1.6 3.6.6 4.8-.8 7.8s.5 3.8-.6 7.3c-1 3.5.8 4.1-.7 7.6-1.4 3.5.6 5.8-1 9.4-1.6 3.5.7 5-.7 8.5-1.5 3.5.4 5.1-.8 7.8s.8 5.1-.8 8.4c-1.5 3.2.5 5.3-.7 8.3s.3 5.9-.8 8.3c-1 2.5.6 5.6-1 8.9-1.6 3.2.2 5-.7 7.3-1.2 2.3-1.9 4.8-1 6z"/><path d="M739.9 528.3a6 6 0 0 0-.4 4.1q.5 2.3-.4 3.7t-.4 3.5-.2 3.8q-.5 1.5-.2 3.5.3 2.3-.5 4a8 8 0 0 0-.4 4.6q.3 3-.6 4.8a6 6 0 0 0-.4 4.3 7 7 0 0 1-.3 4.3 7 7 0 0 0-.4 4.2q.3 2.3-.4 3.6t-.3 3.7q.6 3-.5 4.7-.9 1.5-.4 4.3.5 2.6-.3 4-.7 1.4-.4 4.4.3 2.7-.4 4-.4 1-.3 3.5.4 3.5-.6 5.3a6 6 0 0 0-.6 4.3q.3 2-.2 3-.9 1.6-1.3 3.3-.3 1.9.3 2.4v.3q-1-.7-.5-2.7.4-1.7 1.3-3.5.5-.9.2-2.7-.4-2.8.6-4.6t.6-5q-.2-2.7.3-3.9.6-1 .4-3.7-.4-3 .4-4.6.6-1.3.3-3.7-.5-2.9.5-4.6t.4-4.5q-.3-2.6.3-3.8t.4-3.4q-.5-2.6.4-4.4.8-1.7.3-4.1-.5-2.8.5-4.5t.5-4.7.4-4.7.5-3.8.3-3.7.1-3.7a5 5 0 0 1 .4-3.6q.9-1.4.4-3.5-.6-2.5.4-4.4z"/><path fill="#00a728" d="M745.9 531.3c-.8 5.5 1.1 10.3 0 14.9s.7 6.3.2 10c-.6 3.6.7 6.2-.2 10.2-1 4 1.3 6.9 0 12.1s.8 6.4 0 11.5c-1 6 1.6 9 0 13.2-1.6 4.3 1.4 5 .2 9.9-1.3 4.7.7 6.4-.2 11.2z"/><path d="M746 531.4q-.4 2.5.1 7.4t-.1 7.4 0 5.7q.5 2.6.2 4.3-.3 1.5 0 4.6a16 16 0 0 1-.2 5.7q-.5 1.8 0 5 .8 4.3 0 7-.8 2.9-.2 6t.2 5.5q-.5 2.9.2 7t-.2 6.3a6 6 0 0 0 0 4.6q1 2.9.2 5.2-.8 2.5-.2 5.8.5 3.2 0 5.4h-.2a14 14 0 0 0 0-5.4q-.6-3.4.2-5.9a8 8 0 0 0-.2-5q-.9-2.7 0-4.9 1-2.1.2-6.1-.7-4.1-.2-7 .4-2.3-.2-5.4-.6-3.3.2-6.1c.5-2 .5-4 0-6.9a13 13 0 0 1 0-5.2q.5-2.1.2-5.6-.3-3 0-4.7a11 11 0 0 0-.2-4.1q-.8-3.3 0-5.9.7-2.4 0-7.3-.4-4.9 0-7.5z"/><path fill="#00a728" d="M756 527c1.8 3-.1 4.8 1.7 8.3s.4 5 2 8.3c1.3 3.2-.6 4.6 1 8s0 5.3 1.8 8.3-.1 5.3 1.7 8.5-.1 5 1.7 8 0 5.8 1.7 8.8c1.8 3 0 6.4 2 9.8 1.9 3.5-.1 5.9 1.4 8.6 1.7 2.6.5 5 1.6 7 1.3 1.9 1.4 4 1 5.3z"/><path d="M756 526.9q1.1 1.5 1 4c-.2 2.6.1 3.1.8 4.3q1 1.9 1.1 4.5 0 2.3.8 3.8t.5 4 .6 4q1 1.7.8 4.4 0 2.5 1 3.9t.8 4.3.9 4.2q1 1.6.8 4.2 0 2.5.9 3.8 1 1.4.9 4.5-.2 2.9.8 4.3 1 1.5 1 4.7-.2 3.5.9 5.1 1.1 1.8 1 5-.3 2.3.5 3.6a7 7 0 0 1 1 4.1q0 2 .5 2.8c1.6 2.2 1.8 3.8 1 5.6l-.2-.1c.8-1.8.5-3.2-1-5.3q-.5-.8-.5-3 0-2.6-1-4-.8-1.1-.6-3.8.3-2.9-.9-4.6a9 9 0 0 1-1-5.4q0-3.2-.9-4.5-1-1.4-.9-4.5.2-2.9-.8-4.3t-.9-4q.2-2.5-.8-4t-.9-4.5q.1-2.6-.8-4t-1-4.1a8 8 0 0 0-.7-4.2q-1-1.7-.7-4.3.3-2.3-.5-3.7t-.8-4-1-4.3q-1.1-1.7-1-4.5.2-2.4-.8-3.8z"/><path fill="#00a728" d="M752 528.1c1.6 3.5-.7 4.8.8 7.8 1.4 3-.6 3.8.5 7.3 1.1 3.4-.7 4.1.8 7.5 1.4 3.5-.6 5.9 1 9.4 1.5 3.5-.7 5 .7 8.6 1.4 3.4-.5 5 .8 7.8 1.2 2.7-.8 5 .7 8.3 1.6 3.2-.4 5.3.8 8.3s-.3 5.9.8 8.3c1 2.4-.7 5.6.9 8.8s-.1 5.1.8 7.3c1.2 2.3 1.9 4.8 1 6z"/><path d="M752 528q1 1.8.5 4.4-.5 2.2.3 3.4a5 5 0 0 1 .5 3.7q-.5 2 .1 3.6t.3 3.8q-.3 2 .5 3.8.8 1.6.4 4.6t.5 4.7q1 1.8.5 4.5-.5 2.5.3 4 .9 2 .4 4.5-.3 2.1.3 3.4.8 1.2.3 3.8-.4 3 .5 4.5 1 1.6.5 4.5-.5 2.5.3 3.8.7 1.5.4 4.6-.2 2.7.3 3.7.6 1.1.4 3.9-.4 3.3.6 5t.6 4.5q-.3 1.8.1 2.7 1 1.8 1.4 3.5.3 2-.4 2.7l-.1-.3q.6-.5.3-2.3a13 13 0 0 0-1.3-3.4q-.5-1-.2-3 .4-2.5-.6-4.3t-.7-5.2q.3-2.6-.2-3.6-.7-1.1-.4-4t-.4-4.3-.3-4q.5-2.8-.5-4.3-1-1.7-.5-4.7.4-2.5-.2-3.6-.7-1.3-.4-3.6a7 7 0 0 0-.4-4.2 7 7 0 0 1-.3-4.4q.5-2.5-.4-4.2a8 8 0 0 1-.6-4.9 8 8 0 0 0-.4-4.5 7 7 0 0 1-.5-4q.3-1.9-.3-3.5a7 7 0 0 1-.1-3.9q.3-2-.4-3.4-.9-1.4-.4-3.7.5-2.5-.4-4z"/><path fill="#fcc300" d="M733 540q.2 1.8-.8 3.8c-1.5 3.3.5 4.6-1.2 8-1.6 3.6.1 5.4-1.7 8.4s0 5.3-1.7 8.6c-1.8 3.2 0 5-1.7 8-1.8 3 0 5.8-1.7 8.8-1.8 3 0 6.4-2 9.9s.1 5.8-1.5 8.5-.4 5.1-1.5 7c2.1-2.4 2.5-5.8 4-7.7 1.4-2-.3-4.3.4-5.7s.5-6.6 1.9-9.3.5-7.7 1.7-9.7.7-7 2.3-9 .3-6 1.5-8.6c1.3-2.5.3-5.9 1.5-8.8 1.3-3 .3-5.4 1.2-7.8.3-1.1.7-8.6-.7-4.3"/><path d="m732.9 540 .4-1.1q.2-.4.4-.2.3.1.4 1.5 0 3.2-.3 4.2-.4 1.1-.4 3.3 0 3-.8 4.5-.6 1.4-.7 4.6a9 9 0 0 1-.8 4.3q-.6 1-.6 4.1 0 3.5-1 4.5t-1.2 4.8q-.3 3.3-1 4.3-.7.8-.8 4.2 0 4-1 5.4-.8 1.4-1.2 5.8-.3 2.9-.6 3.5-.4.5 0 2.1.5 2.5-.4 3.6-.7.8-1.7 3.3-1.1 3.3-2.3 4.4l-.2-.2q.6-.7.5-2.8 0-2.7 1-4.2.9-1.2.7-3.6-.4-3.1.9-5a9 9 0 0 0 1-5q0-3.3.9-4.8 1-1.4.8-4.3 0-3 .9-4.5 1-1.4.8-3.8a7 7 0 0 1 1-4.2q.9-1.5.7-4.3-.1-2.9 1-4.3 1-1.4.8-4 0-2.6.8-4.3 1-1.7.7-4.1-.3-2.5.5-4 .7-1.4.8-3.6m.2 0q0 2.3-.8 3.8t-.5 3.7q.3 2.6-.7 4.4a8 8 0 0 0-.8 4.2q.2 2.6-1 4.1-.9 1.4-.7 4 .1 2.9-1 4.6-1 1.4-.8 4 .1 2.5-.9 4-1 1.4-.8 4.3.1 3-.9 4.5-1 1.4-.8 4.5 0 3.6-1 5.4-1.1 1.7-1 4.6.3 2.7-.6 4-1 1.3-1 4l-.1 2q.8-1.2 1.7-3.6a11 11 0 0 1 1.7-3.4q.9-1 .4-3.3-.4-1.8 0-2.4.3-.5.6-3.3.4-4.5 1.3-6 .8-1.4 1-5.2 0-3.5.7-4.5.7-.8 1-4 .4-4 1.3-5t.9-4.3q0-3.1.6-4.3.8-1 .8-4.1 0-3.3.8-4.7.7-1.5.7-4.4-.1-2.3.4-3.4a11 11 0 0 0 0-5.4l-.1.2q-.3.3-.4 1"/><path fill="#fcc300" d="M738.5 543.3c-1.1 3.5.7 4.1-.8 7.6-1.4 3.5.6 5.8-1 9.4-1.6 3.5.7 5-.7 8.5-1.5 3.5.5 5.1-.8 7.9-1.2 2.7.8 5-.8 8.3-1.5 3.2.5 5.3-.7 8.3s.3 5.9-.8 8.3c-1 2.5.7 5.6-1 8.9-1.5 3.2.2 5-.7 7.3 2-1.4 1.6-5.1 2.3-6.3.5-1 0-6.7 1-8.4s-.5-6.2.4-8.5c1.9-3.6.5-5.7 1.5-8.6s-.2-6.1.5-8c1.3-3.3-.4-5.9.5-8.2 1.4-3.4 0-5.9.9-8.1 1.5-3.4 0-6.4.5-8.2.8-2.2 1.8-8.4-.3-10.2"/><path d="M738.4 543.3v-.1c1.2.7 1.6 2.1 1.5 5q-.1 3.4-1 5.4a6 6 0 0 0 0 2.5q.6 3.6-.5 5.7-.6.9-.3 3.1a9 9 0 0 1-.6 5q-.5 1-.1 3.3.5 3-.4 4.8-.4.8-.1 3.3.3 3.3-.4 4.8-.4 1.2-.4 3.4 0 3.2-1 5.2-.6 1-.2 4.3.5 3.3-.3 4.2-.7.8-.6 5 0 2.9-.4 3.4-.3.4-.5 2-.3 3.6-1.9 4.3l-.3.1.2-.3q.5-.9.2-2.7-.5-2.8.6-4.6.9-1.7.6-5-.2-2.7.3-3.9.6-1 .3-3.7-.3-3 .5-4.6.6-1.3.3-3.7-.6-2.9.5-4.6.9-1.7.4-4.5-.4-2.6.3-3.8.8-1.2.3-3.4-.3-2.7.5-4.4t.3-4.1q-.5-2.9.4-4.5t.6-4.7.4-4.7.5-3.8q-.4-2 .3-3.7m.1.2q-.5 1.5-.2 3.4.3 2.3-.5 4a8 8 0 0 0-.4 4.5q.3 3.2-.6 5a6 6 0 0 0-.4 4.2q.5 2.6-.3 4.3a7 7 0 0 0-.5 4.2q.5 2.3-.3 3.6-.6 1.3-.3 3.7.6 3-.5 4.7-.9 1.5-.4 4.3.3 2.6-.3 4t-.4 4.4q.3 2.7-.4 4-.6 1-.3 3.5.3 3.5-.6 5.3a6 6 0 0 0-.6 4.3q.3 1.5 0 2.5 1-.8 1.4-3.8.2-1.8.5-2.2.4-.4.3-3.3 0-4.2.8-5.1.5-.8.2-4-.4-3.4.2-4.5 1-1.9 1-5 0-2.3.5-3.6t.3-4.5q-.3-2.6.1-3.5.9-1.7.4-4.7-.4-2.4.1-3.5.9-1.8.6-4.8-.2-2.2.3-3.3 1-2 .5-5.4a6 6 0 0 1 0-2.8q.9-1.8 1-5.2c.1-2.7-.3-4-1.2-4.7"/><path fill="#fcc300" d="M745.9 546.2c-1.1 4.5.7 6.2.2 10-.6 3.6.7 6.2-.2 10.2-1 4 1.3 6.9 0 12.1s.8 6.4 0 11.5c-1 6 1.6 9 0 13.2-1.5 4.3 1.8 5.4.2 9.9-.7 2.2-.2 7.3 1.6 1 1.3-6.5-.9-7 .2-9.8 1-2.7-.3-9.4 0-13.1.5-3.7-1-8.5 0-12.5s-1.6-8-.7-11.4-.3-7.5.6-10.3-.6-6.3-.4-8c.3-1.6-.2-7.2-1.5-2.9"/><path d="M745.8 546.1q.4-1.6.8-1.7t.7.9q.6 2.2.2 3.8l.3 2.6q.7 3.6 0 5.3-.3 1.4-.2 4.7.3 3.9-.3 5.6a11 11 0 0 0 .3 5.3q1 4.1.4 6.1-.6 2.3-.1 7.2.4 3.7.2 5.3t.1 5.9q.5 5.8-.2 7.3-.6 1.1-.1 3a15 15 0 0 1-1.2 9.6q-.2.4-.5.3l-.3-.5q-.7-1.8 0-3.8 1-2.1 0-5-1-2.7-.1-4.9 1-2.1.2-6.1-.7-4.1-.2-7 .4-2.3-.2-5.4-.6-3.3.2-6.2.8-2.6 0-6.8a13 13 0 0 1 0-5.2q.5-2.1.2-5.6-.3-3 0-4.7a11 11 0 0 0-.2-4.1q-.8-3.3 0-5.9m.2.1q-.7 2.5 0 5.7.5 2.6.2 4.3-.3 1.5 0 4.6a16 16 0 0 1-.2 5.7q-.5 1.8 0 5 .8 4.3 0 7-.8 2.9-.2 6t.2 5.5q-.5 2.9.2 7t-.2 6.3q-.9 2 0 4.7 1.1 2.8.2 5.2a4 4 0 0 0-.1 3.5q0 .3.2.3l.3-.2a15 15 0 0 0 1-9.4q-.4-2 .2-3.1.6-1.5.2-7.2-.4-4.4-.1-6 .1-1.5-.2-5.2a21 21 0 0 1 0-7.3q.8-1.9-.3-5.9-.8-3.8-.3-5.5t.3-5.5q-.2-3.4.3-4.8.6-1.6-.1-5.1a8 8 0 0 1-.3-2.8q.4-1.4-.2-3.6-.2-.9-.5-.8-.3.2-.6 1.6"/><path fill="#ef072d" d="M760.2 529.3c0-29.7-3-39.2-14.3-39.4-11.3.4-14.2 10-14.3 39.6z"/><path d="M760.3 529.4q-14.2.4-28.8.3v-.2q0-22.4 3-30.8c2.2-6 5.6-8.7 11.4-9 5.7.2 9.2 2.8 11.5 8.7q2.9 8.4 2.9 30.8zm-.2-.3q0-22.3-3-30.5c-2.2-5.9-5.6-8.4-11.2-8.5-5.7.2-9 2.8-11.3 8.7a111 111 0 0 0-2.9 30.6q14 0 28.4-.3"/><path d="M731.6 529.5c0-29.6 3-39.2 14.3-39.6-5.3.5-8.1 5.3-9.2 9.2-.8 3.6-.4 3.4.8 2s.5 1.5-.4 3.3c-.9 1.9-2 6.2-.6 5 1.5-1.5 2.3.1 1 3-1.3 2.8-2.9 8.8-1.2 6.8s1.6 1.4.8 3.3c-.8 2-.8 3.3 0 2.6 1-.4.6 2.8 0 4.4z"/><path d="M731.5 529.5q0-22.4 3-30.8c2.2-6 5.6-8.7 11.4-9v.4q-3.4 0-6.1 3.2a15 15 0 0 0-3 5.8q-.4 2.5-.3 2.7 0 .2 1-.9.4-.6.6-.3t.1 1a9 9 0 0 1-1 2.9 12 12 0 0 0-1.1 3.6v1.4l.4-.2q.4-.6 1-.7.4 0 .7.6.4 1.2-.6 3.2a21 21 0 0 0-1.8 7v.2l.4-.4q.5-.9 1-.8.3.1.5 1 .2 1.6-.5 3.2-.6 1.3-.6 2.2l.1.4.4-.2q0-.2.3-.1.2 0 .2.3l.2 1.3q-.1 2-.7 3.1h-5.6zm11.5-39.1q-5.9 1.4-8.4 8.4a111 111 0 0 0-2.9 30.6h5.3a8 8 0 0 0 .4-4v-.2h-.2q-.3.4-.6.2l-.2-.6q0-1 .6-2.4t.4-3q0-.6-.3-.7t-.8.7l-.4.4q-.3 0-.3-.3-.1-.5.1-1.9.6-3.2 1.7-5.3 1-1.9.6-3-.2-.3-.5-.4-.4 0-.9.6l-.4.3q-.3 0-.4-.3v-1.4q.5-2.3 1.2-3.8.7-1.3 1-2.8v-.7l-.4.3q-1 1.4-1.3 1-.2-.5.3-3 .9-3.4 3-6 1.6-1.9 3.4-2.7m15 37.2c0-23.2-2.1-29.7-6.3-32.1-2.4-1.3-2.4-1-1.3 1 1 2.2 1.1 5 0 3s-1.4-2.4-2-1.5c-.1 1 1.2 5 2.5 9 .9 3.2.5 4.7-1.1 1.6-1.6-3-1.4-.3-.2 2.4a69 69 0 0 1 1.6 18z"/><path d="m758.1 527.7-7 1.4v-.5a57 57 0 0 0-2.4-21.4h.3l.9 1.4.9 1.4q.3.3.4.1.3-.7-.4-3l-.9-2.8a20 20 0 0 1-1.5-6.4q.1-.4.4-.5l.4.1 1.2 2q.3.6.5.6l.2-.5q0-1.5-.8-3l-.6-1.2q-.3-.5 0-.8.3-.2 2 .7 3.4 2 4.8 8.4 1.6 7.3 1.6 24m-.2-.2q0-16.4-1.6-23.7c-1-4.4-2.4-6.8-4.6-8.2q-1.7-.9-2-.7l.2.3q0 .4.6 1.2.9 1.6.8 3.2 0 .7-.4.8-.3 0-.7-.8l-1.1-1.9h-.3l-.2.4q-.2.6 1.5 6.1l1 2.8q.6 2.5.3 3.3-.3.3-.7 0l-1-1.6-.8-1.2h-.1v.2q0 1.1.9 3.2 1.5 3.3 1.6 17.7v.2z"/><path fill="#ef072d" d="M745.9 533.8c4.6-.1 9.2-1.3 12.7-3 3.9-2.4 4-3.9 2.7-6.3-1.1-1.5-2.9-.7-5 .6a33 33 0 0 1-10.4 2.2c-3 0-8.2-.9-10.4-2-2.2-1.3-3.9-2-5-.6-1.3 2.5-1.2 4 2.7 6.3a30 30 0 0 0 12.7 2.8"/><path d="M745.9 534q-7.3 0-12.7-2.9c-2-1-3-2-3.4-3.1q-.5-1.4.6-3.4c.9-1.2 2.3-1 5.1.6q3.3 1.8 10.4 2 7-.3 10.3-2.2c2.9-1.7 4.3-1.9 5.2-.6q1.1 1.9.6 3.3-.7 1.5-3.4 3.2-5.4 3-12.7 3m0-.2q7.4-.3 12.6-3 2.8-1.7 3.3-3.1.5-1.3-.6-3c-.8-1.2-2.1-1-4.9.7a22 22 0 0 1-10.4 2.1q-7.1 0-10.4-2c-2.8-1.5-4.1-1.7-5-.6q-1 1.9-.5 3 .5 1.5 3.3 3 5.3 2.9 12.6 2.9"/><path fill="#b95a1e" d="m789.3 493.2 5.1 11.5c2.4 5 3.7 5.8 5.5 4.3 1.3-2 .3-5.4-1-7.5l-8.1-10.5z"/><path d="m789.2 493.1 1.6-2.3v.1l8.2 10.5q1 1.6 1.5 3.9.6 2.6-.5 3.8-1.3 1.3-2.7.3a13 13 0 0 1-3-4.6l-1.4-3.3zm.3 0 3.6 8.3 1.4 3.2q1.6 3.5 3 4.5 1.2.9 2.3-.3t.5-3.4a11 11 0 0 0-1.5-3.8l-8-10.3z"/><path fill="#b95a1e" d="m788.6 493.7 2 13.6c1 5.9 2.2 7.3 4.1 6.7 1.7-1.2 1.5-5 .8-7.6l-5-14z"/><path d="m788.5 493.7 2-1.5v.1q4.4 11.6 5.1 14 .6 2.3.6 4.5-.2 2.8-1.5 3.4t-2.5-1q-1-1.6-1.7-5.9l-.5-3.8zm.3.1 1.4 9.6.6 3.9q.6 4 1.6 5.7 1 1.4 2.3.9 1.1-.6 1.2-3.1.1-2.3-.5-4.4l-5-13.8z"/><path fill="#b95a1e" d="M787.4 494v14c.1 6.2 1 8 3 8 1.8-.7 2.1-4.4 1.8-7.4l-2.9-15.3z"/><path d="m787.3 494 2.1-1v.2l3 15.4q.2 2.3-.2 4.6c-.4 2-.9 2.7-1.8 3q-1.5 0-2.3-1.8-.8-2-.8-6.3zm.2.2V508q0 4.2.8 6.2.6 1.7 2 1.5 1.2-.2 1.7-2.7.4-2.1.1-4.4-.3-2.6-2.9-15.2z"/><path fill="#b95a1e" d="m785.5 493.4-5.1 12.3c-2.3 5.3-3.7 6.2-5.5 5-1.3-1.8-.3-5.3 1-7.6l8.2-11.6z"/><path d="m785.6 493.5-3.7 8.8-1.4 3.5q-1.6 3.7-3 5t-2.6 0q-1.2-1.1-.6-3.7.4-2.4 1.6-4.1 1.2-2 8-11.6l.2-.1 1.5 2zm-.3 0-1.2-1.8q-6.8 9.5-8 11.5a13 13 0 0 0-1.6 4q-.4 2.4.5 3.3 1.2 1 2.4 0 1.3-1.2 2.9-4.9l1.4-3.5z"/><path fill="#b95a1e" d="m786.2 493.9-2 13.9c-1 6-2.2 7.6-4.1 7.2-1.7-1-1.5-4.7-.8-7.5l5-14.7z"/><path d="m786.3 494-1.4 9.9-.6 3.9q-.7 4.3-1.7 6.1-1.1 1.8-2.5 1.3t-1.5-3.2q0-2.3.6-4.6l5-14.7.1-.1 2 1.2zm-.3 0-1.6-1-5 14.5q-.6 2.3-.5 4.5 0 2.4 1.2 2.9 1.4.4 2.3-1.2 1-1.7 1.6-6l.6-3.9z"/><path fill="#b95a1e" d="M787.4 494v14.1c-.1 6.1-1 8-3 8.3-1.8-.5-2.1-4.1-1.8-7.1l2.9-15.7z"/><path d="M787.5 494v14q0 4.4-.8 6.5-.7 2-2.2 2-1.4 0-2-2.6-.3-2.2 0-4.6.3-2.7 2.9-15.8v-.1zm-.2.2-1.7-.4-2.9 15.5q-.3 2.3.1 4.5.5 2.4 1.7 2.4 1.4 0 2-1.8.8-2 .8-6.3z"/><path fill="#b95a1e" d="M790.7 431.5s4.8-7.2 13.1-15c8.6-8 14.2-13.5 15.5-12.8-.3 1.5-7 9-13.1 15.3-6 6.2-13.2 15-13.2 15z"/><path d="M790.6 431.4q4.8-7.3 13.1-15l3-2.8c8-7.4 11.8-10.4 12.7-10v.1a80 80 0 0 1-13.1 15.5q-6 6-13.2 15l-2.6-2.7zm.2 0 2.3 2.4a232 232 0 0 1 13-14.9 92 92 0 0 0 13.1-15c-1-.2-4.7 2.9-12.4 10l-3 2.7a87 87 0 0 0-13 14.8"/><path fill="#b95a1e" d="M791.2 437s4.8-4.4 13.8-11c9.4-5.7 21-6.5 21.5-5.2-1.4 1.4-11.8 3.1-19.1 7.8-6.8 4.7-13.8 11-13.8 11z"/><path d="M791.2 436.8q4.7-4.4 13.7-10.9a39 39 0 0 1 19.5-5.8q2.1 0 2.2.7v.2q-.6.6-5 2-9.8 2.9-14.2 5.8-6.7 4.6-13.7 10.9h-.1L791 437zm.2.2 2.2 2.3q7-6.2 13.7-10.8 4.5-3 14.2-5.9 4.2-1.3 4.9-1.8-.2-.3-2-.4a39 39 0 0 0-19.3 5.8q-9 6.4-13.7 10.8"/><path fill="#b95a1e" d="M791.3 446.5s4.1-3 13.7-8.1c10-5 21.8-4 22.3-2.6-1.5 1.3-11.3 2.2-18.7 5-7.4 3-15 8.3-15 8.3z"/><path d="M791.2 446.4q4.2-3 13.8-8.2 6.3-3.2 14.7-3.7c5.4-.1 7.4.2 7.7 1.3v.1q-.7.8-6.4 2-8.5 1.5-12.3 3-7.5 3-15 8.3v.1l-2.5-2.7zm.3.1 2.2 2.4q7.5-5.2 14.9-8.2 3.9-1.5 12.4-3.2 5.4-1 6.2-1.7c-.4-.8-2.5-1.1-7.5-1q-8.3.6-14.6 3.7-9.4 5-13.6 8"/><path fill="#b95a1e" d="M791.7 456.2a30 30 0 0 1 15-8.3c10.6-2 18.3 4.6 18.6 6.2-1.5 1-10.4-4.4-17.9-3a35 35 0 0 0-13.3 7.7z"/><path d="M791.6 456q1.3-1.4 3.7-3.2 5-3.5 11.4-5a20 20 0 0 1 13.2 1.6c3.8 2 5.4 3.3 5.6 4.7v.1q-.7.6-5-.8c-6-2-10-2.7-13-2a29 29 0 0 0-13.3 7.5h-.1l-2.6-2.7zm.3.2 2.2 2.4q5.8-5.7 13.3-7.6 4.3-1 13.3 2 3.9 1.4 4.5 1-.1-1.6-5.4-4.3a20 20 0 0 0-13-1.6q-6.5 1.5-11.4 5a22 22 0 0 0-3.5 3"/><path fill="#b95a1e" d="M789.3 425.9c.3-.3 7.3-7.4 7.7-13.1-.2-5.6-3.2-10.8-4.3-13.5 2 .3 6 7.4 6.3 13.3a41 41 0 0 1-7.3 15.8z"/><path d="M789.2 426.2v-.7l.1.1c5.1-5 7.5-9 7.6-12.8q0-4.1-3.2-10.9-1-1.8-1.1-2.6l-.1-.2h.2q1.5-.2 4 4.6 2.3 5 2.4 8.9 0 6.1-7.3 16l-2.5-2.5zm.3-.3 2.2 2.3q7-9.6 7.1-15.6 0-3.9-2.4-8.7c-1.5-3-2.5-4.2-3.5-4.5l1 2.3a30 30 0 0 1 3.3 11c-.2 3.9-2.5 8-7.7 13.1"/><path fill="#b95a1e" d="M789.3 425.9s-.8-4.1-1-12.5c.3-9.7 4.3-16 5.9-18.4.1 2.1-3.7 10-3.9 18.3 0 6 1.4 15.1 1.4 15.1z"/><path d="M789.2 426a64 64 0 0 1-1-12.5c.1-6.8 2-12.7 5.9-18.6l.1-.2v.2q.2 1-1 5-2.7 8.4-2.8 13.4 0 6 1.4 15.1l.1.5zm.2-.3 2.1 2.3a106 106 0 0 1-1.3-14.7q0-5 2.7-13.6 1-3.3 1.1-4.3a33 33 0 0 0-5.5 18q0 8.3 1 12.3"/><path fill="#b95a1e" d="M784.2 432c0-.1-4.9-6.6-13.2-13.2-8.6-6.8-14.1-11.5-15.5-10.6.3 1.4 7 8 13.1 13.4a233 233 0 0 1 13.2 13.2z"/><path d="m784.3 432-2.5 3h-.1q-7.2-8-13.1-13.2a63 63 0 0 1-13.2-13.6v-.1c1-.6 4.8 1.9 12.8 8.2l2.9 2.3q8.4 6.6 13.1 13.2zm-.3-.1a70 70 0 0 0-13-13l-3-2.3c-7.6-6-11.4-8.6-12.4-8.3q.4 1.7 13.1 13.2 6 5.3 13 13.1z"/><path fill="#b95a1e" d="M783.6 437.5s-4.7-3.7-13.8-9c-9.3-4.5-21-3.5-21.5-2.2 1.4 1.1 11.8 1.4 19.1 5 6.9 3.9 13.8 9 13.8 9.1z"/><path d="m783.8 437.5-2.6 3.1q-7-5.4-13.8-9a50 50 0 0 0-14.1-3.9q-4.5-.8-5-1.3 0-.9 2.1-1.1 2.3-.4 5.3-.3 8.2.4 14.2 3.4 9 5.2 13.8 9zm-.4 0q-4.8-3.7-13.6-8.8a35 35 0 0 0-19.3-3.1q-1.9.3-2 .6.6.4 4.8 1.2 9.8 1.5 14.2 3.8 6.7 3.8 13.7 9z"/><path fill="#b95a1e" d="M783.6 447s-4.2-2.3-13.8-6.2c-10-3.6-21.8-.8-22.3.6 1.5 1.1 11.3.5 18.7 2.3 7.4 2 15 6.2 15 6.3z"/><path d="M783.6 446.9v.2l-2.4 3q-7.7-4.2-15-6.2-3.9-1-12.4-1.4c-4-.2-5.8-.6-6.3-1 .2-1.2 2.3-1.9 7.6-2.5q8.4-.8 14.7 1.7 9.6 3.7 13.8 6.2m-.3.2q-4.2-2.4-13.6-6.1-6.3-2.4-14.6-1.6c-5 .5-7 1-7.4 2q.6.5 6.1.8 8.5.3 12.4 1.4 7.4 1.9 15 6.2z"/><path fill="#b95a1e" d="M783.1 456.8c-.1-.2-4.7-5-15-6.2-10.5-.6-18.3 7.1-18.6 8.8 1.5.8 10.5-5.9 17.9-5.5a29 29 0 0 1 13.3 5.8z"/><path d="m783.3 456.8-2.6 3q-5.8-4.9-13.3-5.7c-3-.2-7.1 1-13.2 4-3 1.4-4.3 1.7-4.8 1.4.1-1.5 1.7-3 5.5-5.5 4.5-2.8 8.6-3.9 13.2-3.6q6.4.7 11.4 3.5a17 17 0 0 1 3.7 2.7zm-.4 0a17 17 0 0 0-3.5-2.6q-5-2.8-11.3-3.4-6.5-.6-13.1 3.5c-3.6 2.3-5.1 3.8-5.4 5q.6.3 4.6-1.6 8.9-4.4 13.2-4a25 25 0 0 1 13.3 5.8z"/><path fill="#b95a1e" d="M785.5 426.1c-.3-.2-7.2-6.3-7.7-12 .2-5.6 3.3-11.2 4.3-14.1-2 .6-6 8.3-6.2 14.2.3 6.2 7 14.6 7.2 14.8z"/><path d="m785.5 426.3-2.4 3v-.1q-7.3-8.8-7.4-15 .1-4 2.5-9.2 2.4-5 4-5.2h.1v.2l-1.2 2.8Q778 410 778 414q.1 5.4 7.6 11.8l.1-.2v.7zm-.2-.2q-7.6-6.4-7.6-12 0-4.1 3.2-11.5l1-2.4q-1.4.4-3.5 5a24 24 0 0 0-2.4 9q0 5.9 7.1 14.6z"/><path fill="#b95a1e" d="M785.5 426.1s.9-4.2 1-12.5a30 30 0 0 0-5.8-17.7c-.2 2.2 3.6 9.5 3.8 17.8 0 6-1.4 15.3-1.4 15.3z"/><path d="M785.6 426.2h-.1l-2.6 3.3v-.5q1.5-9.3 1.5-15.3 0-5-2.7-13.1-1.3-3.8-1.2-4.7l.1-.3.2.2q5.7 7.8 5.8 17.8 0 8.3-1 12.6m-.2-.2q.9-4.2 1-12.4a31 31 0 0 0-5.6-17.3q0 1 1.1 4.1 2.7 8.1 2.7 13.3 0 6-1.3 14.9z"/><path fill="#b95a1e" d="M812.4 523.6a142 142 0 0 1-3.8-28.7c0-7.8 1.8-46 2-61.2-.2-15.4-6.6-22.6-13.6-22.3-5.9.8-9.4 6-9.6 14.6l2.9-.2c.2-5.8 2.8-9.6 6.7-10.2 6-.3 10 5.4 10.6 18.4.4 14.8-1.1 53.5-1 63.8a67 67 0 0 0 5.8 25.8"/><path fill="#fdc301" d="m812.7 523.4-.5.4a66 66 0 0 1-5.8-26l.4-25q.8-30.4.5-38.8a30 30 0 0 0-3.2-14c-2-3-4-4.1-7-4q-2.8.1-4.7 3a13 13 0 0 0-1.8 6.8v.4l-3.5.2v-.4c.1-4.4 1-7.6 2.7-10.5 2-2.8 4.1-4.1 7.2-4.5 4-.2 6.7 1.4 9.6 5.3q4.2 6.5 4.2 17.3l-1.1 37.1-.8 24.1a136 136 0 0 0 3.8 28.6M811 519a126 126 0 0 1-2.6-24.1l.8-24.2 1.1-37a30 30 0 0 0-4-16.8c-2.8-3.8-5.5-5.2-9.2-5a9 9 0 0 0-6.7 4.1 19 19 0 0 0-2.6 9.5l2.3-.1q.2-4.1 2-7 2.1-3 5-3.3c3.3 0 5.4 1.1 7.6 4.4q3 5 3.3 14.4.3 8.4-.5 38.9l-.4 25q.3 11.2 4 21.2"/><path fill="#b95a1e" d="M762.4 527a141 141 0 0 0 3.8-29.2c0-7.8-1.7-45.7-1.9-61 .1-15.4 6.6-23.4 13.5-24 6-.1 9.4 4.6 9.6 13.2l-2.9.2c-.2-5.8-2.7-9.2-6.7-9.3-6 .6-10 6.8-10.6 19.9-.4 14.8 1.1 53.4 1 63.7a74 74 0 0 1-5.8 26.5"/><path fill="#fdc301" d="M762.1 526.9q1.9-6.1 3-17.1.8-7.8.8-12l-.8-24-1.1-37a34 34 0 0 1 4.2-17.8c2.9-4.4 5.7-6.3 9.6-6.7 3.1 0 5.2 1 7.2 3.5 1.8 2.7 2.6 5.8 2.7 10.2v.4l-3.5.2v-.4q0-4-1.8-6.5-2-2.5-4.6-2.4c-3 .3-5 1.8-7.1 5q-2.9 5.2-3.2 14.5-.2 8.4.5 38.7l.5 25a72 72 0 0 1-5.9 26.8zm1.8-4.6q3.7-10.5 4-21.8l-.5-25q-.7-30.3-.5-38.7a34 34 0 0 1 3.3-15c2.2-3.5 4.4-5 7.6-5.3q2.9-.1 5 2.6 1.9 2.6 2 6.6l2.3-.1q-.2-5.8-2.6-9.2a8 8 0 0 0-6.7-3.3c-3.7.4-6.4 2.3-9.1 6.4a33 33 0 0 0-4 17.4l1 36.8.8 24a139 139 0 0 1-2.6 24.6"/><path fill="#b95a1e" d="M787.4 494c5.4-.8 6-3.1 6-3.3s1-5.5.6-7c-1-1.1-6.2-.9-6.6-.9z"/><path d="M787.3 494v-11.3h.1c4.2-.3 6 0 6.7 1q.5 1.4-.6 7c-.6 2-2.3 3-6 3.4zm.2-.3c3.6-.4 5.2-1.3 5.8-3q1.1-5.6.6-6.9c-.6-.8-2.4-1-6.4-.8z"/><path fill="#b95a1e" d="M787.4 488.4c5.8-.7 6.7-3.1 6.7-3.3.1-.3 1.7-5.4 1-7-1.4-1-7.4-.8-7.7-.8z"/><path d="M787.3 488.5v-11.4h.1c4.7-.3 7 0 7.8.9.6 1 .4 3.1-1 7.2-.8 2-2.7 3-6.8 3.3zm.2-.3c4-.4 5.7-1.3 6.5-3.2q1.8-5.5 1-6.8c-.8-.8-3-1-7.5-.8z"/><path fill="#b95a1e" d="M787.4 482.8c5-.6 7.6-3.2 7.7-3.3.1-.3 1.6-5.4 1-7a27 27 0 0 0-8.7-.8z"/><path d="M787.3 483v-11.4h.1c5.4-.4 7.9 0 8.8.7.5 1.1.3 3.2-1 7.2v.1a12 12 0 0 1-7.8 3.4zm.2-.3q4.7-.5 7.5-3.3c1.3-3.9 1.5-5.8 1-6.8-.8-.8-3.3-1-8.5-.7z"/><path fill="#b95a1e" d="M787.4 475.9c8.7-1 8.7-4 8.7-4.2s1.6-5.4 1-7c-1.5-1-9.3 0-9.7.1z"/><path d="M787.3 476v-11.4h.1c6-.9 8.8-.9 9.7 0 .6 1 .4 3.1-.9 7.1q0 1-1.1 2-2.3 1.8-7.7 2.4zm.2-.3q5.3-.6 7.4-2.3 1-1 1-1.7c1.3-4 1.6-6 1-7-.8-.7-3.5-.6-9.4.2z"/><path fill="#b95a1e" d="M787.4 470.3c8.7-1 9.6-3.3 9.6-3.5.1-.2 1.6-5.4 1-7-1.4-1-10.2-.6-10.6-.6z"/><path d="M787.3 470.5v-11.4h.1c6.6-.4 9.8-.2 10.7.6q1 1.3-1 7.2c-.9 2-3.7 3-9.7 3.6zm.2-.3c5.9-.6 8.6-1.7 9.4-3.4 1.3-3.9 1.5-5.9 1-6.9-.8-.7-3.9-.9-10.4-.5z"/><path fill="#b95a1e" d="M787.4 463.4c8.7-1 10.5-3.5 10.6-3.6s1.6-5.4 1-7c-1.5-1-11.2-.5-11.6-.5z"/><path d="M787.3 463.6v-11.4h.1c7.3-.5 10.7-.3 11.6.5q1 1.4-.9 7.2c-1.5 2-4.7 3.1-10.7 3.7zm.2-.4q8.5-.8 10.4-3.5 1.8-5.5 1-6.8c-.9-.7-4.2-.9-11.4-.4z"/><path fill="#b95a1e" d="M787.4 456.5c8.7-1 11.5-3.6 11.6-3.7s.7-5.4 0-7c-1.5-.9-11.2-.4-11.6-.4z"/><path d="M787.3 456.7v-11.5h.1c7.3-.4 10.7-.3 11.6.6q1 1.3 0 7v.1q-2.9 3-11.6 3.8zm.2-.4c5.8-.6 9.3-1.7 11.4-3.6q.8-5.4 0-6.7c-.9-.7-4.2-1-11.4-.4z"/><path fill="#b95a1e" d="M787.4 449.6c8.7-1 11.5-3.6 11.6-3.7s-.2-5.3-1-6.9a41 41 0 0 0-10.6-.5z"/><path d="M787.3 449.7v-11.4h.1c6.6-.4 9.8-.2 10.7.6q1 1.4 1 7v.1c-2.2 2-5.8 3.2-11.7 3.7zm.2-.3q8.5-.9 11.3-3.6 0-5.4-.9-6.6c-.8-.8-3.9-1-10.4-.6z"/><path fill="#b95a1e" d="M787.4 442.6c8.7-1 10.5-3.5 10.6-3.6s-.2-5.3-1-6.8c-1.4-1-9.2-.7-9.6-.7z"/><path d="M787.3 442.8v-11.4h.1c6-.4 8.8-.2 9.7.7q1 1.3 1 7c-1.5 2-4.7 3.1-10.7 3.7zm.2-.4c5.8-.5 8.9-1.6 10.4-3.4q0-5.5-1-6.7c-.8-.8-3.5-1-9.4-.6z"/><path fill="#b95a1e" d="M787.4 425.2c6.9.1 9.5 6.9 9.7 7.1l-2 2.8c-1.4 1.3-7.4 2-7.6 2z"/><path d="M787.4 425c4.3 0 7.2 2 9.7 7v.5l-1.9 2.7q-.7 1-4.3 1.6l-2.4.3-.7.1h-.4v-.2zm9.5 7.3c-2.4-5-5.2-7-9.4-7l.1 11.6h.9l2.4-.4q3.5-.7 4.1-1.5zm0-.1"/><path fill="#b95a1e" d="M787.4 494c-5.4-.1-6-2.3-6-2.5 0-.1-1-5.3-.6-6.9 1-1.2 6.3-1.7 6.6-1.8z"/><path d="M787.4 494c-3.8.2-5.5-.6-6-2.4q-1.2-5.6-.7-7c.6-1 2.5-1.6 6.7-2h.1v11.5zm-.1-.3V483c-4 .3-5.8.8-6.4 1.7q-.5 1.3.6 6.8c.6 1.7 2.2 2.3 5.8 2.2"/><path fill="#b95a1e" d="M787.4 488.4c-5.8 0-6.7-2.2-6.7-2.4-.1-.2-1.7-5.1-1-6.9 1.4-1.2 7.4-1.8 7.7-1.8z"/><path d="M787.4 488.5q-5.8.4-6.8-2.4-2-5.5-1-7c.9-1 3.1-1.6 7.8-2h.1v11.4zm-.1-.3v-10.8c-4.5.4-6.7 1-7.5 1.9q-.9 1.4 1 6.6c.8 1.8 2.6 2.5 6.5 2.3"/><path fill="#b95a1e" d="M787.4 482.8c-5 0-7.5-2.1-7.7-2.3 0-.2-1.6-5.1-1-6.9 1.4-1.1 8.4-1.8 8.7-1.9z"/><path d="M787.4 483c-3.4.1-5.7-.6-7.8-2.3-1.3-4-1.5-6-1-7.2 1-1 3.5-1.5 8.8-2h.1V483zm-.1-.3v-10.8c-5.2.4-7.6 1-8.5 1.9q-.8 1.4 1 6.6 2.8 2.5 7.5 2.3"/><path fill="#b95a1e" d="M787.4 475.9c-8.7.1-8.6-2.8-8.7-3s-1.6-5.2-1-7c1.5-1 9.3-1.1 9.7-1.1z"/><path d="M787.4 476q-5.4.3-7.6-1.3-1.1-.8-1.2-1.8-1.8-5.5-1-7c1-1 3.8-1.3 9.8-1.3h.1zm-.1-.3V465c-5.9-.1-8.6.3-9.4 1.1q-.8 1.3 1 6.7 0 .8 1 1.6 2.1 1.5 7.4 1.3"/><path fill="#b95a1e" d="M787.4 470.3c-8.7.3-9.6-2-9.6-2.1-.1-.3-1.6-5.2-1-7 1.5-1 10.3-2 10.6-2z"/><path d="M787.4 470.5c-6 .2-8.8-.5-9.7-2.3q-2-5.5-1-7c1-1 4-1.6 10.7-2.1h.1v11.4zm-.1-.3v-10.8c-6.5.5-9.5 1.1-10.4 2q-.8 1.3 1 6.7c.9 1.6 3.5 2.3 9.4 2"/><path fill="#b95a1e" d="M787.4 463.4c-8.7.3-10.5-2-10.6-2.1 0-.3-1.6-5.2-1-6.9 1.5-1.1 11.3-2 11.6-2z"/><path d="M787.4 463.6c-6 .2-9.1-.5-10.7-2.2q-1.8-5.6-1-7.1c1-1 4.4-1.6 11.7-2.1h.1v11.4zm-.1-.4v-10.7c-7.1.5-10.5 1.2-11.3 2q-1 1.3 1 6.7c1.4 1.6 4.4 2.3 10.3 2"/><path fill="#b95a1e" d="M787.4 456.5c-8.7.3-11.4-2-11.5-2.1s-.8-5.2 0-7c1.4-1 11.2-2 11.5-2z"/><path d="M787.4 456.7c-6 .2-9.5-.5-11.6-2.2q-1-5.6 0-7.1c.9-1 4.4-1.6 11.6-2.2h.1v11.4zm-.1-.4v-10.7c-7.1.5-10.5 1.1-11.3 2q-.9 1.3 0 6.7 2.8 2.4 11.3 2"/><path fill="#b95a1e" d="M787.4 449.6c-8.7.2-11.4-2-11.5-2.1s.1-5.4 1-7a39 39 0 0 1 10.5-2z"/><path d="M787.4 449.7c-6 .3-9.5-.4-11.6-2v-.2q0-5.6 1-7.1c.8-1 4-1.6 10.6-2.1h.1v11.4zm-.1-.3v-10.8c-6.5.5-9.5 1.1-10.4 2q-.9 1.4-1 6.8c2.2 1.5 5.6 2.2 11.4 2"/><path fill="#b95a1e" d="M787.4 442.6c-8.7.3-10.5-2-10.6-2.1s.2-5.4 1-7c1.4-1.2 9.3-2 9.6-2z"/><path d="M787.4 442.8c-6 .2-9.1-.5-10.7-2.2v-.1q0-5.6 1-7.1c.9-1 3.7-1.6 9.7-2h.1v11.4zm-.1-.3v-10.8c-5.8.5-8.6 1-9.4 2q-1 1.3-1 6.7c1.6 1.6 4.6 2.3 10.4 2"/><path fill="#b95a1e" d="M787.4 425.2c-6.8 1-9.5 8.2-9.6 8.5l2 2.5c1.4 1 7.3.9 7.5.9z"/><path d="M787.5 425v12.1l-.1.1h-1.1l-2.4.1q-3.6-.2-4.3-1l-1.9-2.5v-.5.1c2.5-5.4 5.4-7.8 9.7-8.3zm-9.6 8.6 1.9 2.4q.6.9 4.1 1h3.3v-11.6c-4 .6-6.9 3-9.3 8.2m0 0"/><path fill="#1a1a1a" d="M8 195.3c170.8-85.3 341-54.5 513.3-28C676.5 191 833.4 211.8 992 132.7v672c-170.8 85.3-341 54.5-513.3 28C323.5 809 166.6 788.1 8 867.2zm31.3 19.3v604.5c306.5-128.2 611.1 96 921.5-33.7V180.9C654.2 309 349.5 84.9 39.3 214.6" opacity=".2"/></svg>