<svg xmlns="http://www.w3.org/2000/svg" viewBox="0 0 1000 1000"><path fill="#00247d" d="M8 195c171-85 341-54 513-28 155 24 312 45 471-34v672c-171 85-341 54-513 28-155-24-312-45-471 34z"/><path fill="#fff" d="M8 195q27-14 55-23 94 31 191 98 94-64 191-114l55 8 11 32c-67 35-133 70-202 113q100 75 202 163l-22 56c-78-65-155-129-235-183-78 54-155 119-235 211L8 531v-37q94-111 191-184-94-57-191-77z"/><path fill="#cf142b" d="m254 307 37 1q106 78 216 173l-7 19c-81-68-162-136-246-193v25C175 387 96 453 15 548l-7-17c81-96 162-166 246-224l-37 2c-69-43-138-76-209-89v-25c81 15 162 56 246 112v-25q103-69 209-124l37 6c-81 43-162 86-246 143"/><path fill="#fff" d="M295 140v112c95 4 189 23 287 36v112c-95-13-189-32-287-36v168q-40-2-82 1V365c-68 5-135 19-205 54V307c68-34 135-49 205-54V141q40-3 82-1"/><path fill="#cf142b" d="M279 140v134c100 2 200 22 303 37v67c-100-14-200-35-303-37v191h-50V342c-73 3-146 17-221 55v-67c73-37 146-52 221-56V140z"/><path fill="#00247d" d="M8 531c163-81 324-57 492-31V164c162 25 325 52 492-31v672c-171 85-341 54-513 28-155-24-312-45-471 34z"/><path fill="#fff" d="M835 373v96c0 77-22 156-89 200-67-43-89-120-89-197v-96q88 9 178-3"/><path fill="#fdc300" d="M829 384v89c0 72-21 145-83 186-62-40-83-111-83-183v-89q82 8 166-3"/><path fill="#ff9e3d" d="m707 428-4-2q-1-9-5-10-3-1-4-5 0-4-3-5-4-2-5-5t-2 1q-3 4-1 7-2 1-1 6-2 2-1 4l2 2q-2 1 2 4v4l-5 3q-4-1-4 2l-2 3h7l4 1-4 7q0 5-3 7l-4 5q4 9 7 10l10 9c2 3 3 1 6 6 3 6 6 16 9 18q4 2 9-5c2-5 3-57-8-67"/><path d="M707 428q8 6 9 35l-1 32q-1 4-4 5h-5l-6-10-3-7-4-5-2-2-10-9q-5-3-7-10 1-4 4-5t3-7q0-3 4-6l-4-2h-7l2-3q0-3 4-2l3-2 2-2-1-1 1-2q-2 0-3-2v-2h1l-2-2-1-2 2-2q-2-3 1-6l-1-1v-1l1-3 1-2 1-2 1 1 5 5q3 1 3 5l4 5q6 3 5 10zm0 0-4-2q0-7-5-10-3-1-4-5 0-3-4-5l-4-5-1-1-1 2-1 2-1 3 1 1v1h1-1q-2 3-1 6l-1 2v2q3 0 2 2h1-1v2q0 2 2 2v1l-1 1 1 1v1l-2 1-3 2q-4 0-4 2l-2 3 4-1q1-2 3 1l4 1-4 7q0 6-3 7t-4 5l7 10 10 9 2 2 4 4 3 8 6 10h5l4-5 1-11v-21q-1-28-9-35"/><path fill="#ff927f" d="M712 406q-5 6-6 16c1 8 2 19-3 23q-9 9-2 21 8 10 7 21c2 7 4 12 8 7q6 1 6-5 0-7 4-8 3-2 5-7 2-4 1-7v-10q0-5-2-7l-1-7q1-4-2-6-2-2-1-5 0-2-3-5l-2-7q-2-8-9-14"/><path d="M712 406q3 1 6 7l3 7 2 7 3 5 1 5 3 6 1 8 1 6v10q1 2-1 6v1q-2 6-5 7t-3 3l-1 5-1 5-5 1q-3 3-5 0l-3-8v-3l-2-9q-1-5-5-9-4-5-3-11 0-6 5-10 4-4 3-23l2-8 3-6zm0 1-3 6q-2 3-1 8 1 19-4 24-4 3-5 9t3 11q4 3 5 9l2 9 1 3 2 8q2 2 5-1h5l1-5 1-5q0-3 3-3l5-7v-1q2-4 1-6v-10l-1-6-1-1-1-7q1-3-2-6-2-2-1-5l-3-5-3-7q1-3-2-7z"/><path fill="#ff9ee1" d="M713 496c7-2 7-17 6-23q-4-11-2-23c2-10-3-20-2-24q3-5 1-7 0-2-1 1l-2 5v9q2 6 0 18-4 10-1 15c2 6 6 26 1 29"/><path d="M713 496q3-1 2-13l-3-16-1-6 1-9q3-7 1-17v-10l1-5 1-2 1 1q1 4-1 7l1 8q3 10 1 16t1 18l1 5v13q-1 9-6 10m1 0q4-3 5-10l-1-13v-4q-3-13-1-19t-1-16l-1-8 1-7-1-1v2l-2 5v10q2 10 0 17-3 5-2 9l1 6 3 16q2 10-1 13"/><path fill="#ff9e3d" d="M683 409q2-1 2 1z"/><path d="M683 409h1l1 1h-1v-1z"/><path fill="#ff9e3d" d="m682 415 4-1z"/><path d="M682 415h1l3-1-3 1z"/><path fill="#ff9e3d" d="M683 421q2 1 5-2z"/><path d="m683 421 5-2q-2 2-5 2"/><path fill="#ff9e3d" d="m685 425 4-2z"/><path d="M685 425q3 1 3-2h1q-1 3-4 3z"/><path fill="#ff9e3d" d="M685 429h6z"/><path d="m685 428 3 1h3-6z"/><path fill="#ff9e3d" d="m685 438 6-5z"/><path d="m685 438 3-2 3-3v1l-3 2z"/><path fill="#ff9e3d" d="m689 408 3 5c2 2 0 4 2 5q3 1 1 4l1 6z"/><path d="M689 408q2 0 2 3l1 1 1 4 1 2 1 2v2l1 3v3-2l-1-4v-2l-1-2-1-2-1-3-1-2q0-2-2-3"/><path fill="#ff9e3d" d="M703 426q-2-1-5 4z"/><path d="M703 426q-4 0-5 4 1-4 5-4"/><path fill="#ff9e3d" d="M681 464q2 1 2-1l2-2 3-1q2 0 3-3 1-5 4-7z"/><path d="M681 464q2 1 2-1l2-2 3-1 1-1 2-2v-1q2-5 4-6l-4 6v1l-2 3h-1q0 2-3 2l-1 1z"/><path fill="#00a728" d="M761 526q0 4 2 6l3 6c2 2 0 5 3 7 2 2 0 5 2 7 3 3 0 7 2 9s0 6 2 8-1 5 1 8 0 6 2 9c2 2-1 5 1 9l1 9c1 3-1 12-6 12q-6 8-12 7c-4 3-11 7-16 1-5 6-13 3-16 0q-6 1-12-8c-5 1-7-9-6-12l1-9c2-3-1-6 1-9 2-2 0-6 2-8 2-3-1-6 1-8 2-3 0-7 2-9s-1-6 2-8c2-3 0-6 2-7l3-7 3-7q2-2 2-6c6 3 22 5 30 0"/><path d="m761 526 1 3 1 3 1 3 2 3 1 3 2 4 1 3 1 4q2 1 1 5l1 4 1 4 1 4 1 4v4l1 5 1 4 1 4v4l1 5v5l-1 7q-2 5-5 5l-6 6-6 2-8 3q-6 2-8-3-3 5-9 3-4 0-7-3l-6-2q-4-2-6-5-3 0-5-5t-1-8v-5l1-4v-5l1-4 1-4q-1-4 1-4v-5l1-4 1-4 1-4v-4l1-4q3-1 2-4l1-4 1-3 2-3 1-4 2-3 1-3 1-3q5 3 14 3 12 1 16-3m0 0q-4 4-16 4-9-1-14-4l-1 3-1 3-1 3-2 4-1 3-2 4-1 3-1 4q-2 1-1 4l-1 4-1 4-1 5-1 3v5l-1 4-1 5-1 3v5l-1 4v5l1 8q2 5 5 4 1 4 6 6l6 2 7 3q6 2 9-3 3 4 8 3t7-4h1q1 1 6-1 4-3 5-6h1q3 1 5-5l1-7-1-5v-4l-1-5v-4l-1-4-1-5-1-4v-4l-1-4-1-4-1-4q1-4-1-5l-1-4-1-3-2-4-1-3q-2 0-2-3l-1-3-1-3z"/><path fill="#00a728" d="M736 527c-2 3 0 5-2 9-2 3 0 5-2 8l-1 8c-2 3 0 5-2 8l-1 9c-2 3 0 5-2 8s0 6-2 9 0 6-2 9l-1 9-2 7-1 5z"/><path d="m736 527-1 4-1 5-1 4-1 4v4l-1 4-1 4-1 4v4l-1 5-1 4-1 4-1 4-1 5-1 4-1 6-1 4v4l-1 4-1 3-1 5v1q-1-3 1-6l1-3 1-4v-4l1-5 1-5 1-4 1-5 1-4 1-4 1-4v-5l1-4 1-4 1-4 1-4v-4l1-4 1-5 1-4z"/><path fill="#00a728" d="m740 528-1 8-1 7v8l-1 9-1 9-1 8-1 8v8l-1 9-1 8-1 8q-2 4-1 6z"/><path d="m740 528-1 4v11l-1 4v4l-1 4v5l-1 5v8l-1 4v8l-1 4v4l-1 5v7l-1 6-1 4v3l-1 3v3-3l1-3v-3l1-5 1-5v-7l1-5v-8l1-5v-7l1-4v-4l1-5v-4l1-5v-8l1-3v-8z"/><path fill="#00a728" d="M746 531v59c-1 6 2 9 0 13s1 5 0 10v11z"/><path d="M746 531v93z"/><path fill="#00a728" d="M756 527c2 3 0 5 2 8 2 4 0 5 2 9l1 8 1 8c2 3 0 5 2 8 2 4 0 5 2 8s0 6 2 9l2 10 1 9c2 2 0 5 2 7l1 5z"/><path d="m756 527 1 4 1 4 1 5 1 3v4l1 5 1 4 1 4v4l1 4 1 5 1 3 1 5 1 4 1 5 1 5 1 5v3l1 5 1 2 1 6h-1q2-2-1-5v-3l-1-4-1-4-1-5-1-5v-5l-1-4-1-4-1-4-1-4-1-5-1-4-1-4v-4l-1-5v-3l-1-4-1-5-1-4z"/><path fill="#00a728" d="M752 528c2 4-1 5 1 8v7l1 8 1 9c2 4-1 5 1 9l1 7v9l1 8 1 8 1 9 1 7 1 6z"/><path d="m752 528 1 4v11l1 4v4l1 4v5l1 4v9l1 3v9l1 4v4l1 5v7l1 5 1 5v2l1 4v3l-1-1 1-2-2-3v-8l-1-5v-4l-1-3v-9l-1-4v-5l-1-3v-8l-1-5v-4l-1-5v-4l-1-4v-11l-1-4z"/><path fill="#fcc300" d="m733 540-1 4-1 8c-2 3 0 5-2 8l-1 9c-2 3 0 5-2 8s0 6-2 9 0 6-2 9l-1 9-2 7 4-8 1-5q-1-4 2-10l1-9 3-9 1-9 2-9 1-8c0-1 0-8-1-4"/><path d="M733 540v-1h1v5l-1 4v4l-1 5-1 4v4l-1 5-2 4-1 5v4l-1 5-2 6v6l-1 3-1 4-3 4 1-3 1-4v-4l1-5 1-5 1-4 1-5 1-4 1-4 1-4v-5l1-4 1-4 1-4 1-4v-4zm0 0-1 4v4l-1 4-1 4-1 4v4l-1 5-1 4-1 4-1 4-1 5-1 4-1 6-1 4v4l-1 4v2l1-3 2-4v-3l1-3v-3l1-6 1-5 1-4 1-5 1-5 1-4 1-4 1-4v-5l1-4 1-4v-5z"/><path fill="#fcc300" d="M738 543v8l-1 9-1 9-1 8-1 8v8l-1 9-1 8-1 8 3-6 1-9v-8l1-9 1-8v-8l1-8 1-9c1-2 2-8-1-10"/><path d="M738 543q3 1 2 5l-1 6v2l-1 6v3l-1 5v16l-1 4-1 5v8l-1 5v4l-1 2-2 4v-3l1-5 1-5v-7l1-5v-8l1-5v-7l1-4v-4l1-5v-4l1-5zm1 1-1 3v4l-1 4v5l-1 5v8l-1 4v8l-1 4v4l-1 5v7l-1 6-1 4v2q2 0 2-3v-3l1-3v-5l1-4v-4l1-5v-4l1-5v-11l1-5v-3l1-6v-3l1-5z"/><path fill="#fcc300" d="M746 546v44c-1 6 2 9 0 13-2 5 2 6 0 10-1 2 0 7 2 1v-35c1-4-2-8-1-12l1-10-1-8c1-2 0-7-1-3"/><path d="m746 546 1-2v1l1 4v13l-1 5 1 6v34l-1 10h-1zm0 0v71h1l1-3v-35l-1-6v-11l1-5v-5l-1-3v-4z"/><path fill="#ef072d" d="M760 529c0-29-3-39-14-39s-14 10-14 40z"/><path d="m760 529-29 1 3-31q4-9 12-9 9 0 11 8 3 9 3 31m0 0q0-22-3-30-3-9-11-9t-11 9-3 30zm-28 1c0-30 3-40 14-40q-7 1-9 9-2 5 1 2l-1 3c-1 2-2 7 0 5q2-1 1 3c-2 3-3 9-2 7 2-2 2 2 1 4v7zm-1 0 3-31q4-9 12-9-4 0-6 3l-4 9 1-1h1v1l-1 3-1 3v2-1h2v3l-2 6v2-1l1-1 1 1-1 4v2h1v2l-1 3zm12-40q-6 1-8 9-3 8-3 30h5v-4q0 1 0 0h-1l1-3v-3h-1v1-2l1-6 1-3h-1l-1 1v-2l1-4 1-2v-1l-2 1 1-3 3-6zm15 38c0-24-2-30-6-33q-4-2-2 2 2 5 0 3-1-4-2-2l3 9q1 5-1 2-3-3 0 2l1 18zm0 0-7 1a57 57 0 0 0-2-22l1 2 1 1v-3l-1-3-2-6 1-1v1l1 1 1 1-1-3v-2h2l5 9zm0-1-2-23q-1-7-4-8l-2-1v1l1 4h-1l-1-2q-1 1 1 6l1 3v3q0 2 0 0l-1-1-1-2v1l1 3 1 18z"/><path fill="#ef072d" d="M746 534q7 0 13-3 5-3 2-7-2-1-5 1l-10 2-10-2q-4-2-6 0-2 3 3 6 6 3 13 3"/><path d="M746 534q-7 0-13-3l-3-3v-3q2-2 6 0l10 2 10-2q4-3 5-1l1 4-3 3q-6 3-13 3m0 0q7 0 13-3l3-3-1-3q-1-2-5 0-3 3-10 2-7 0-11-2h-4l-1 3 3 3q6 3 13 3"/><path fill="#b95a1e" d="m789 493 5 12q4 7 6 4 1-3-1-8l-8-10z"/><path d="m789 493 2-2 10 14-1 4h-3l-3-4-1-3zm0 0 4 8 2 4 2 4h3v-4l-1-3-8-11z"/><path fill="#b95a1e" d="m789 494 2 13q1 9 4 7l1-8-6-14z"/><path d="m789 494 2-2 5 19-1 3q-1 1-3-1l-1-6-1-3zm0 0 1 9 1 4 1 6 3 1 1-3-1-5-5-13z"/><path fill="#b95a1e" d="M787 494v14q1 8 3 8 3-2 2-7l-3-16z"/><path d="m787 494 2-1 3 20q0 3-2 3l-2-2-1-6zm1 0v20l2 2q2 0 2-3v-4l-3-16z"/><path fill="#b95a1e" d="m785 493-5 13q-3 7-5 5-1-4 1-8l8-11z"/><path d="m786 493-4 9-1 4-3 5h-3l-1-4 2-4 8-12zm-1 0-1-1-9 15v4h2l3-5 2-4z"/><path fill="#b95a1e" d="m786 494-2 14q-1 8-4 7-2-2-1-8l5-14z"/><path d="m786 494-1 10-1 4-1 6-3 1-1-3v-5l5-14zm0 0-2-1-5 19 1 3 2-1 2-6 1-4z"/><path fill="#b95a1e" d="M787 494v14q0 8-3 8-2-1-1-7l2-15z"/><path d="M788 494v14l-1 7-3 2-1-3-1-5 3-15v-1zm-1 0h-1l-3 20 1 2q1 1 3-2z"/><path fill="#b95a1e" d="M791 431q0-2 13-15 13-12 15-12l-13 15-13 15z"/><path d="M791 431q4-7 13-15l3-2q11-12 12-10l-13 15-13 15zm0 0 2 3 13-15 13-15-12 10-3 3z"/><path fill="#b95a1e" d="m791 437 14-11c9-6 21-6 21-5-1 1-11 3-19 8l-13 11z"/><path d="m791 437 14-11a39 39 0 0 1 19-6l3 1-5 2-15 6-13 11zm0 0 3 2 13-11 15-5 4-2-2-1-5 1-14 5z"/><path fill="#b95a1e" d="m791 447 14-9c10-5 22-4 22-2-1 1-11 2-18 5q-14 6-15 8z"/><path d="m791 446 14-8q6-3 15-3 7-1 7 1l-6 2-12 3-15 8zm0 1 3 2q7-6 15-8l12-4 6-1-7-1q-9 0-15 4z"/><path fill="#b95a1e" d="M792 456q-1-2 15-8c10-2 18 4 18 6-1 1-10-4-18-3-7 2-13 8-13 8z"/><path d="m792 456 3-3q5-4 12-5 6-2 13 1 6 3 5 5l-4-1q-9-3-14-2-7 3-13 8zm0 0 2 3q6-6 13-8 5-1 14 2l4 1-5-4q-7-3-13-2l-12 5z"/><path fill="#b95a1e" d="M789 426c1 0 8-8 8-13q-1-9-4-14 5 3 6 14c0 6-7 15-7 15z"/><path d="M789 426q8-7 8-13l-3-11-1-3h-1 1l4 5 2 9q0 6-7 16zm1 0 2 2q7-9 7-15l-3-9-3-5 1 3 3 11q0 6-7 13"/><path fill="#b95a1e" d="m789 426-1-13q3-14 6-18l-4 18 2 15z"/><path d="m789 426-1-13q0-9 6-18l-1 5-3 13 2 15v1zm0 0 3 2-2-15 3-13 1-5q-5 9-5 18z"/><path fill="#b95a1e" d="M784 432s-5-7-13-13q-13-11-15-11c0 2 7 8 13 14l13 13z"/><path d="m784 432-2 3-13-13-14-14 13 8 3 3q9 6 13 13m0 0-13-13-3-2-12-9q0 2 13 13l13 14z"/><path fill="#b95a1e" d="m784 437-14-8c-10-5-21-4-22-3 2 1 12 2 19 5l14 9z"/><path d="m784 437-3 4q-6-6-14-9-4-3-14-4l-5-2 2-1h6q8 0 14 3zm-1 1-13-9a34 34 0 0 0-20-3h-2l5 1 14 4 14 9z"/><path fill="#b95a1e" d="m784 447-14-6c-10-4-22-1-22 0 1 2 11 1 18 3l15 6z"/><path d="m784 447-3 3-15-6-12-1-7-1v-1l8-2q9 0 15 2zm-1 0-13-6q-7-2-15-2l-7 2 6 1 12 2 15 6z"/><path fill="#b95a1e" d="M783 457s-5-5-15-6-18 7-19 8c2 1 11-5 18-5 8 1 14 6 14 6z"/><path d="m783 457-2 3q-6-4-14-6-4 0-13 4l-5 2v-1l6-5q7-4 13-4l11 4zm0 0-4-3q-5-3-11-3-7-1-13 3l-5 5 4-1q9-4 13-4 8 0 14 5z"/><path fill="#b95a1e" d="M785 426s-7-6-7-12q1-8 4-14-4 3-6 14c0 6 7 15 7 15z"/><path d="m785 426-2 3q-7-9-7-15l2-9 4-5-1 3-3 11q0 6 7 12m0 0q-7-6-7-12l3-11 1-3-4 5-2 9q0 6 7 15z"/><path fill="#b95a1e" d="m785 426 1-12q-2-15-5-18l4 18-2 15z"/><path d="m786 426-3 3 1-15-2-13-1-5q5 8 6 18zm-1 0 1-12q0-10-5-18l1 4 3 14-2 15z"/><path fill="#b95a1e" d="m812 524-3-29 2-61q-2-24-14-23-9 2-10 15h3q1-9 7-10 9-1 11 18l-1 64q0 15 5 26"/><path fill="#fdc301" d="M813 523q-4-12-6-26l1-25v-39q0-9-3-14-3-4-7-4-2 0-5 3l-1 7h-4q0-6 3-11 3-3 7-4 6 0 10 5 3 7 4 18l-1 37-1 24zm-2-4-3-24 1-24 1-37q0-12-4-17-4-6-9-5-4 0-7 4l-2 10 2-1 2-7q2-3 5-3 4 0 8 4 3 6 3 15l-1 39v25q0 11 4 21"/><path fill="#b95a1e" d="M762 527c3-10 4-26 4-29l-2-61q2-24 14-24 9 0 9 13h-2q-1-9-7-9-9 0-11 20l1 64q-1 15-6 26"/><path fill="#fdc301" d="m762 527 3-17 1-12-1-24-1-37q0-11 4-18 4-6 10-7 4 0 7 4t3 10l-4 1v-1q1-5-2-6-1-3-4-3-4 1-7 5-3 6-3 15v64q0 14-5 26zm2-5q4-10 4-21l-1-25v-39q0-10 3-15t8-6q3 0 5 3l2 7h2l-2-10q-3-3-7-3-6 1-9 6-4 8-4 18l1 37 1 24z"/><path fill="#b95a1e" d="M787 494q7-2 6-3l1-7-7-1z"/><path d="M787 494v-11q6-1 7 1v7q-1 3-7 3m1 0 5-3 1-7-6-1z"/><path fill="#b95a1e" d="M787 488q8-1 7-3s2-5 1-7l-8-1z"/><path d="M787 489v-12l8 1q2 1-1 7-1 3-7 4m1-1q5 0 6-3 2-6 1-7l-7-1z"/><path fill="#b95a1e" d="M787 483q8-2 8-4s2-5 1-7h-9z"/><path d="M787 483v-11h9q2 2-1 8-2 3-8 3m1 0 7-4q2-4 1-6l-8-1z"/><path fill="#b95a1e" d="M787 476c9-1 9-4 9-4 0-1 2-6 1-7h-10z"/><path d="M787 476v-11h10q1 1-1 7l-1 2zm1 0 7-3 1-1 1-7h-9z"/><path fill="#b95a1e" d="M787 470q12-2 10-3s2-6 1-7l-11-1z"/><path d="M787 471v-12l11 1q1 1-1 7-1 3-10 4m1-1q8 0 9-3l1-7-10-1z"/><path fill="#b95a1e" d="M787 463q12-2 11-3s2-6 1-7l-12-1z"/><path d="M787 464v-12l12 1q1 1-1 7-2 3-11 4m1-1q7 0 10-3l1-7-11-1z"/><path fill="#b95a1e" d="M787 456q13-1 12-3v-7l-12-1z"/><path d="M787 457v-12l12 1v7q-3 3-12 4m1-1q8 0 11-3v-7h-11z"/><path fill="#b95a1e" d="M787 450q13-3 12-4l-1-7-11-1z"/><path d="M787 450v-12l11 1 1 7q-3 3-12 4m1-1q8 0 11-3l-1-7h-10z"/><path fill="#b95a1e" d="M787 443q12-3 11-4l-1-7h-10z"/><path d="M787 443v-12l10 1 1 7q-2 3-11 4m1-1q7 0 10-3l-1-7h-9z"/><path fill="#b95a1e" d="M787 425c7 0 10 7 10 7l-2 3-7 2z"/><path d="M787 425q7 0 10 7l-2 3-4 2h-4zm10 7q-4-7-9-7v12h1l2-1 4-1zm0 0"/><path fill="#b95a1e" d="M787 494q-7-1-6-2v-7c1-2 6-2 6-2z"/><path d="m787 494-6-2v-7q0-2 6-2h1zm0 0v-11q-5 0-6 2l1 6q0 3 5 3"/><path fill="#b95a1e" d="M787 488q-7-1-6-2s-2-5-1-7l7-2z"/><path d="M787 489q-6 0-6-3-3-6-1-7 1-2 7-2h1zm0-1v-11l-7 2q-1 1 1 7 1 2 6 2"/><path fill="#b95a1e" d="m787 483-7-2c0-1-2-6-1-7 1-2 8-2 8-2z"/><path d="m787 483-7-2q-3-6-1-7 1-2 8-2h1zm0 0v-11q-7 0-8 2t1 6q3 3 7 3"/><path fill="#b95a1e" d="M787 476c-8 0-8-3-8-3s-2-5-1-7l9-1z"/><path d="m787 476-7-1-1-2q-3-6-1-7l9-1h1zm0 0v-11l-9 1q-1 1 1 7l1 1z"/><path fill="#b95a1e" d="M787 470q-10 0-9-2s-2-5-1-7l10-2z"/><path d="M787 471q-8 0-9-3-3-6-1-7l10-2h1zm0-1v-11l-10 2q-1 1 1 7 1 3 9 2"/><path fill="#b95a1e" d="M787 463q-11 0-10-2s-2-5-1-7l11-2z"/><path d="M787 464q-9 0-10-3-3-5-1-7l11-2h1zm0-1v-10q-10 0-11 2t1 6q1 2 10 2"/><path fill="#b95a1e" d="M787 456q-11 0-11-2v-7l11-2z"/><path d="M787 457q-8 0-11-2v-8l11-2h1zm0-1v-10q-10 0-11 2v6q3 3 11 2"/><path fill="#b95a1e" d="M787 450q-11-1-11-3l1-7 10-2z"/><path d="M787 450q-8 0-11-2v-1l1-7 10-2h1zm0-1v-10q-9 0-10 2l-1 6q3 3 11 2"/><path fill="#b95a1e" d="M787 443q-11-1-10-3l1-6c1-2 9-2 9-2z"/><path d="M787 443q-9 0-10-2v-1l1-7 9-2h1zm0-1v-10q-8 0-9 2l-1 6q1 3 10 2"/><path fill="#b95a1e" d="M787 425c-6 1-9 8-9 9l2 2 7 1z"/><path d="m788 425-1 12h-3l-4-1-2-2v-1q3-7 9-8zm-10 9 2 2 4 1h3v-12q-6 1-9 9m0 0"/></svg>