<svg xmlns="http://www.w3.org/2000/svg" viewBox="0 0 1000 1000"><path fill="#28ae66" d="M8 195c171-85 341-54 513-28 155 24 312 45 471-34v672c-171 85-341 54-513 28-155-24-312-45-471 34z"/><path fill="#fff" d="M497 238c29 18 49 50 49 84 0 47-36 78-82 72q-30-6-53-28 14 8 29 11c45 8 83-21 85-67q0-42-28-72m-78 50 9-28-24 15 30 4-25-22zm0-43 9-28-24 15 30 4-25-22zm41 28 9-28-24 15 30 4-24-22zm-83 31 9-28-24 15 30 3-24-21zm42 27 9-28-24 15 30 4-25-22z"/><path fill="#ca3745" d="M126 153q88-18 177-13v672q-87-5-177 13z"/><path fill="#383739" d="m169 145-17 19-7-6-4 5 6 4-7 8 3 3-17 20v-7l10-12-3-2 7-8-3-3v5l-6 1v-5l13-16 7-1 1 4-4 1 4 3 11-12zm-43 8 12-2-4 4-4 1v5l-4 5zm28-5 4-1-3 4z"/><path fill="#faae29" d="m126 192 11-13-4-2 8-8-5-4v5l-5 1v-4l14-16 6-1v4l-4 1 5 4 12-13h5l-17 17-7-6-5 6 6 4-7 9 3 2-16 19zm0-39 11-2-3 4h-4v6l-4 4zm29-5 2-1-2 3z"/><path fill="#383739" d="M126 231v7l10 7-3 4 7 5-3 4v-4l-6 1v5l13 10 7-1 1-5-4 1 4-5 11 9-11 12-4-4 4-1-1-4-7 1-13 16v5l6-1v-4l3 2-7 8 3 3-10 11v7l17-20-3-2 7-8-6-5 4-5 7 6 17-18-17-14-7 9-4-3 6-7-7-5 3-4zm0 32v25l4-5v-5l4-1 4-4-4-3-4 1v-5zm29 3-1 4 1 3 3-4z"/><path fill="#faae29" d="M126 232v5l11 8-4 4 8 5-5 5v-5l-5 1v5l14 10 6-1v-4l-4 1 5-6 12 9-12 12-5-4 4-1v-4l-6 2-14 15v5l5-1v-5l5 3-8 8 4 3-11 12v5l16-18-3-3 7-8-6-5 5-5 7 6 17-18-17-13-7 9-5-4 6-7-7-5 3-4zm0 32v23l4-4v-5l4-1 3-4-3-2-4 1v-5zm29 3v5l3-3z"/><path fill="#383739" d="M126 358v6l10 8-3 3 7 6-3 3v-4l-6 1v5l13 11 7-1 1-5h-4l4-4 11 8-11 12-4-3 4-1-1-5-7 2-13 15v6l6-2v-4l3 2-7 9 3 2-10 12v6l17-19-3-3 7-8-6-5 4-4 7 6 17-19-17-13-7 9-4-4 6-7-7-5 3-4zm0 32v24l4-5v-4l4-1 4-5-4-2-4 1v-5zm29 3-1 3 1 4 3-5z"/><path fill="#faae29" d="M126 358v5l11 8-4 4 8 6-5 5v-5l-5 1v4l14 10 6-1v-4l-4 1 5-6 12 9-12 13-5-5 4-1v-3l-6 1-14 16v4l5-1v-5l5 3-8 8 4 3-11 12v6l16-19-3-3 7-8-6-5 5-5 7 6 17-18-17-13-7 9-5-3 6-7-7-6 3-4zm0 32v24l4-5v-5l4-1 3-3-3-3-4 1v-5zm29 4v4l3-2z"/><path fill="#383739" d="M126 484v6l10 8-3 4 7 5-3 4v-5l-6 2v5l13 10 7-1 1-5-4 1 4-5 11 8-11 12-4-3 4-1-1-4-7 1-13 16v5l6-1v-5l3 3-7 8 3 2-10 12v7l17-20-3-3 7-8-6-4 4-5 7 6 17-19-17-13-7 9-4-3 6-7-7-6 3-3zm0 32v25l4-5v-5l4-1 4-4-4-3-4 1v-5zm29 3-1 4 1 3 3-4z"/><path fill="#faae29" d="M126 485v5l11 8-4 4 8 5-5 5v-5l-5 1v4l14 11 6-2v-3l-4 1 5-7 12 9-12 13-5-4 4-1v-4l-6 1-14 16v4l5-1v-5l5 4-8 8 4 2-11 13v5l16-19-3-2 7-9-6-4 5-6 7 6 17-18-17-12-7 8-5-3 6-7-7-5 3-4zm0 32v23l4-4v-6h4l3-4-3-2-4 1v-6zm29 3v5l3-3z"/><path fill="#383739" d="M126 610v7l10 7-3 4 7 5-3 4v-4l-6 1v5l13 10 7-1 1-5-4 1 4-5 11 9-11 12-4-4 4-1-1-4-7 1-13 16v5l6-1v-4l3 2-7 8 3 3-10 11v7l17-20-3-2 7-8-6-5 4-5 7 6 17-18-17-14-7 9-4-3 6-7-7-5 3-4zm0 32v25l4-5v-5l4-1 4-4-4-3-4 1v-5zm29 3-1 4 1 3 3-4z"/><path fill="#faae29" d="M126 611v5l11 8-4 4 8 5-5 5v-5l-5 1v5l14 10 6-1v-4l-4 1 5-6 12 9-12 12-5-4 4-1v-4l-6 2-14 15v5l5-1v-5l5 3-8 8 4 3-11 12v5l16-18-3-3 7-8-6-5 5-5 7 6 17-18-17-13-7 9-5-4 6-7-7-5 3-4zm0 32v23l4-4v-5l4-1 3-4-3-2-4 1v-5zm29 3v5l3-3z"/><path fill="#383739" d="M260 139h6l11 11 4-4h-4l1-5h7l14 14v5h-6v-5l-4 3 8 7-4 3 10 10v7l-17-17 4-3-7-7 6-6-4-4-8 7zm43 14-4-4v-5h-4l-3-4h11zm-32-14h4l-1 4z"/><path fill="#faae29" d="M261 139h4l12 11 5-5h-4v-4l7 1 13 13v4h-5v-5l-4 4 7 7-3 3 10 11v5l-16-16 3-3-7-7 6-6-4-4-8 7zm31 1h11v12l-3-4v-5h-5zm-20-1h2v3z"/><path fill="#383739" d="M303 218v7l-10 9 4 3-8 7 4 3v-4h6v5l-14 13-7-1-1-4h4l-4-4-11 10 11 10 4-4h-4l1-5h7l14 14v5h-6v-4l-4 2 8 7-4 4 10 10v6l-17-17 4-3-7-7 6-5-4-4-8 7-17-16 17-16 8 7 4-3-6-6 7-7-4-3zm0 32v25l-4-4v-5h-4l-3-4 3-3h4v-5zm-29 8 1 4-1 3-3-4z"/><path fill="#faae29" d="M303 219v5l-10 10 3 3-7 7 4 4v-5h5v5l-13 12h-7v-4h4l-5-5-12 11 12 11 5-6h-4v-3h7l13 13v5l-5-1v-5l-4 4 7 7-3 4 10 10v5l-16-16 3-3-7-7 6-5-4-5-8 7-16-15 16-16 8 8 4-4-6-6 7-7-3-3zm0 32v23l-3-3v-5l-5-1-3-3 3-3 5 1v-6zm-29 8 1 3-1 2-2-3z"/><path fill="#383739" d="M303 345v6l-10 9 4 4-8 6 4 3v-4h6v5l-14 13h-7l-1-5h4l-4-4-11 10 11 10 4-4h-4l1-4h7l14 13v5h-6v-4l-4 3 8 7-4 3 10 10v6l-17-16 4-3-7-7 6-6-4-4-8 7-17-16 17-16 8 8 4-4-6-6 7-7-4-3zm0 32v24l-4-4v-5h-4l-3-3 3-4h4v-4zm-29 7 1 4-1 3-3-3z"/><path fill="#faae29" d="M303 345v6l-10 9 3 4-7 6 4 4v-4h5v4l-13 12h-7v-3h4l-5-6-12 11 12 11 5-5h-4v-4h7l13 14v4h-5v-5l-4 4 7 7-3 3 10 10v6l-16-16 3-3-7-7 6-6-4-5-8 7-16-15 16-15 8 7 4-4-6-6 7-7-3-3zm0 32v24l-3-4v-5h-5l-3-3 3-3h5v-5zm-29 8 1 3-1 2-2-2z"/><path fill="#383739" d="M303 471v7l-10 9 4 3-8 7 4 3v-5l6 1v5l-14 12h-7l-1-5 4 1-4-5-11 10 11 11 4-4h-4l1-5h7l14 14v5l-6-1v-4l-4 3 8 7-4 3 10 10v7l-17-17 4-3-7-7 6-6-4-4-8 7-17-16 17-16 8 8 4-4-6-6 7-6-4-4zm0 32v25l-4-4v-5h-4l-3-4 3-3h4v-5zm-29 8 1 3-1 4-3-4z"/><path fill="#faae29" d="M303 472v5l-10 10 3 3-7 7 4 4v-5h5v4l-13 13h-7v-4h4l-5-5-12 10 12 11 5-5h-4v-4h7l13 14v4h-5v-5l-4 4 7 7-3 3 10 11v5l-16-16 3-3-7-7 6-6-4-4-8 7-16-16 16-15 8 8 4-5-6-6 7-6-3-4zm0 32v23l-3-4v-5h-5l-3-3 3-3h5v-5zm-29 8 1 2-1 3-2-3z"/><path fill="#383739" d="M303 597v7l-10 9 4 3-8 7 4 3v-4h6v5l-14 13-7-1-1-4h4l-4-4-11 10 11 10 4-4h-4l1-5h7l14 14v5h-6v-4l-4 2 8 7-4 4 10 10v6l-17-17 4-3-7-7 6-5-4-4-8 7-17-16 17-16 8 7 4-3-6-6 7-7-4-3zm0 32v25l-4-4v-5h-4l-3-4 3-3h4v-5zm-29 8 1 4-1 3-3-4z"/><path fill="#faae29" d="M303 598v5l-10 10 3 3-7 7 4 4v-5h5v5l-13 12h-7v-4h4l-5-5-12 11 12 11 5-6h-4v-3h7l13 13v5l-5-1v-5l-4 4 7 7-3 4 10 10v5l-16-16 3-3-7-7 6-5-4-5-8 7-16-15 16-16 8 8 4-4-6-6 7-7-3-3zm0 32v23l-3-3v-5l-5-1-3-3 3-3 5 1v-6zm-29 8 1 3-1 2-2-3zM140 745l5 10q3-7 2-13l-4-8q-4 5-3 11m0 16q4 4 9 6 0-4 3-8 2-5 1-9l-3 5q-3 3-3 8l-4-5q-2-4-7-6zm13 8v6l-6-4-8-5q1 6 5 9l11 5 2-11q1-5-2-8zm8 11 4 7-10-4-12-4q3 9 13 10l13 1-3-10-4-7zm13 8 5 5c-5 1-9-2-14-1l-9 2q5 3 12 3l18-2-7-8q-2-5-9-6zm19 7-27 7q15 3 30-3 8-4 14-4 9-1 22 10l3-3q-19-14-42-7m96-61-5 11q-2-6-1-12l3-9q5 4 3 10m1 16q-4 5-10 8 1-4-2-8t-1-9l2 5q3 3 3 7l4-5q3-5 7-7zm-14 10 1 6 5-4 8-7q0 7-5 10l-11 7-2-10q-1-6 2-9zm-8 13-4 7 10-5 12-6q-3 10-13 12l-13 3 4-11 3-7q2 3 1 7m-13 10-5 5 14-3 9 1-12 5h-18l7-8q3-6 9-8zm-18 9 27 3q-15 7-31 1-7-3-14-2-9 1-21 13l-3-2q18-17 42-13"/><path fill="#383739" d="m148 228-14-7v-21l14-12v-11l14-11 10-1 21-14q21-3 44-3l20 11h11l13 9v11l14 9v22l-14 8v12l-13 8h-11l-20 12q-22 0-44 3l-21-10-10 2-14-6z"/><path fill="#28ae66" d="m193 151-21 14-10 2-13 10v12l-14 11v21l14 6v12l13 5 10-1 21 9 43-3 21-12h10l14-8v-11l14-8v-21l-14-10v-11l-14-8h-10l-21-12zm1 4 41-2 21 11h10l10 6v12l14 9v16l-14 9v11l-10 6h-10l-21 12-41 3-20-10-11 2-10-5v-11l-14-6v-16l14-12v-11l10-8 11-1z"/><path fill="#faae29" d="M214 200v-46l-20 2-20 14-11 2-9 7v11l-15 12v7q37-7 76-9v46l20-1 20-13h11l10-5v-12l14-8v-8q-37-1-76 1"/><path fill="#fff" d="M139 210v7l15 7v11l9 4 11-1 20 9 20-1v-46q37-3 76-1v-8l-14-9v-11l-10-6h-11l-20-12-20 1v46q-37 3-76 10"/><path fill="#383739" d="m170 175-3-3-4 3 4 2-5 4 10-1 9 7 2-4-8-7v-5zm17-4-4-3-3 3 3 3-4 3 10-1 8 7 3-3-8-7v-5zm-18 13-3-2-4 2 4 3-5 4 10-2 8 7 3-3-8-7v-5zm46-30h-9l-5 5-9 1-7 4 2 4 6-4h3l9 10 10-7z"/><path fill="#ca3745" d="m167 172 3 3-3 2-3-2zm8 0v5l8 6-2 3-9-7-8 1zm8-3 3 2-2 2-3-2zm8 0v4l8 7-2 3-8-7h-8zm-25 13 3 3-3 2-3-3zm7 0v4l8 7-2 3-8-7-8 1zm41-28-8 1-5 5-9 1-6 4 1 2 6-3h3l9 9 9-6z"/><path fill="#383739" d="m170 234-3 4-4-2 4-4-5-2 10-1 9-9 2 2-8 9v6zm17 0-4 3-3-1 3-4-4-3 10-1 8-9 3 3-8 9v5zm-18-9-3 4-4-2 4-4-5-2 10-2 8-9 3 3-8 9v5zm46 21-9 1-5-4h-9l-7-2 2-4 6 2h3l9-12 10 6z"/><path fill="#ca3745" d="m167 237 3-3-3-1-3 3zm8-1v-5l8-9-2-2-9 9-8 1zm8 1 3-4-2-1-3 3zm8-2v-4l8-9-2-2-8 9-8 1zm-25-7 3-3-3-2-3 4zm7-2v-4l8-9-2-2-8 9-8 1zm41 20h-8l-5-4-9 1-6-3 1-3 6 3 3-1 9-11 9 5z"/><path fill="#383739" d="m164 191-4-1-5 4v2l-9 12 9 10v1l5 3 4-2-2-1v-4l1-1 4-1v-17l-4 1-1-1v-3z"/><path fill="#ca3745" d="m155 195 5-5 3 1-2 2v3l2 2 4-1v16h-4l-2 2v4l2 1-3 2-5-3v-1l-8-10z"/><path fill="#383739" d="m259 169 3-4 4 3-4 3 5 3h-10l-8 8-3-3 8-8v-5zm-17-1 4-4 3 2-3 4 4 2-9 1-9 8-3-3 9-8v-5zm18 10 4-3 3 2-3 4 4 2h-10l-8 9-3-3 8-8v-6zm-45-24 8-1 5 5 9-1 7 4-2 4-6-4-2 1-9 11-10-6z"/><path fill="#ca3745" d="m263 166-4 3 3 2 3-3zm-8 1v4l-8 8 2 2 8-8h8zm-9-2-3 3 2 1 4-3zm-8 0v5l-8 8 2 2 8-8h9zm26 11-3 3 2 1 3-3zm-8 0v5l-8 8 2 2 8-8h8zm-41-22h8l5 4h9l6 3-1 3-6-3h-3l-9 11-9-5z"/><path fill="#383739" d="m259 228 3 4 4-3-4-3 5-3h-10l-8-8-3 3 8 8v5zm-17 2 4 3 3-2-3-3 4-3h-9l-9-8-3 3 9 8v5zm18-11 4 3 3-2-3-4 4-2h-10l-8-9-3 3 8 8v6zm-45 27h8l5-5 9-1 7-3-2-4-6 3h-2l-9-10-10 7z"/><path fill="#ca3745" d="m263 231-4-3 3-2 3 3zm-8-1v-4l-8-8 2-2 8 8h8zm-9 3-3-3 2-2 4 3zm-8-1v-5l-8-7 2-2 8 7h9zm26-11-3-3 2-1 3 3zm-8 0v-5l-8-8 2-2 8 8h8zm-41 25 8-1 5-5h9l6-4-1-2-6 3h-3l-9-10-9 6z"/><path fill="#383739" d="m265 184 4-2 6 4v1l8 12-8 11v1l-6 4-4-2 2-2v-3l-1-1h-4v-17h4l1-1v-3z"/><path fill="#ca3745" d="m274 186-5-3-3 1 2 1v4l-1 2h-5v15h5l1 2v4l-2 1 3 1 5-3v-1l9-11-9-12z"/><path fill="#383739" d="m157 216-2-2v-1l-6-5 6-8v-1l2-2 4 3h-2l3 3 9-1 6-6v-14l17-2 19-13v-3l-3-2h-1l-3 2-1 2-2-3 4-5h1l6-4h2l5 3h1l5 4-3 4v-2l-3-2h-1l-3 3v3l19 11 16-1v14l7 5h8l4-3h-3l4-4 3 2v1l5 7-5 6v1l-3 2-4-4h3l-4-3h-8l-7 5v14h-16l-19 13v3l3 2h1l3-2v-2l3 3-5 5h-1l-5 4h-2l-6-4-1 1-4-4 2-4 1 2 3 2h1l3-3v-3l-19-10-17 2v-14l-6-4-9 1-3 4h2z"/><path fill="#faae29" d="m215 239 2 1-2 2zm-7 3 6 4v-4l-2-2 2-2v-6l-20-11-15 2v-13l-8-5-11 1-3 4-3-3-4 1 5 5v1l2 1 3-3-2 1v-1l4-5 9-1 7 5v13l16-2 19 11v4l-3 2h-1l-4-2v-1l-2 3zm-51-38 2 2-5 1zm57-46-2 2 2 1zm56 41 3 2 2-2zm-49-41-5-4h-1v3l3 2-3 3v6l20 12 15-1v13l8 6h12l3-3 3 3h3l-5-6v-1l-2-1-3 2h2v1l-4 4h-9l-6-6v-13h-16l-20-11v-4l3-2h2l3 2v1l2-3z"/><path fill="#fff" d="m214 242-2-2 2-1zm-55-36-2 3-3-2zm62 35-5 5h-1v-4l3-2-3-2v-6l20-14h15v-13l8-6h12l3 3 3-3h3l-5 6v1l-2 1-3-2h2v-1l-4-4h-9l-6 6v13l-16 1-20 13v3l3 2h2l3-2v-1l2 2zm52-45-3 2h5zm-65-37 6-5v3l-2 3 2 2v6l-20 14-15 2v13l-8 7-11 2-3-3-3 4h-4l5-6v-1l2-2 3 2h-2l4 4 9-1 7-7v-13l16-2 19-14v-4l-3-1h-1l-4 2v1l-2-2zm7 2 2-1-2-2z"/><path fill="#28ae66" d="M214 200v-32l-20 15-14 1v13l-8 7zv31l20-13 15-1v-12l7-6z"/><path fill="#ca3745" d="m172 204 8 5v13l14-2 20 11v-31l43-2-7-6v-12h-15l-20-12v32z"/><path fill="#383739" d="m193 186-4-3-3 3 3 3-4 3 10-1 8 8 3-4-8-7v-5zm43 28 4 3 3-2-3-3 4-3h-9l-9-8-3 4 9 7v5zm-43 3-4 4-3-2 3-4-4-2 10-1 8-9 3 3-8 8v6zm43-34 4-3 3 2-3 4 4 2-9 1-9 8-3-3 9-8v-5z"/><path fill="#ca3745" d="m240 217-3-3 2-2 4 3zm-8 0v-5l-8-8 2-2 8 8h9zm-43-33 3 3-2 2-3-3zm8 0v4l8 8-2 2-8-7-8 1z"/><path fill="#28ae66" d="m240 181-3 3 2 1 4-3zm-8 0v5l-8 8 2 2 8-8h9zm-43 39 3-3-2-1-3 3zm8-1v-5l8-8-2-2-8 8-8 1z"/><path fill="#383739" d="m236 199-21 16-22-13 22-17z"/><path fill="#fff" d="m214 186-20 15 41-2zv28l20-15-41 3 20 12z"/><path fill="#383739" d="M220 205v4l-11 1v-5l-8 1v-10l8-1v-4l11-1v4h8v10z"/><path fill="#ca3745" d="M209 192v4h-7v5l12-1v-9zm6 8 12-1v-4h-7v-4h-5zm-13 1v5l7-1v4h5v-9zm13 8 5-1v-4h7v-5l-12 1z"/><path fill="#383739" d="M252 367v-6h17v-7l18 1v-59l-18-1v-6h-17v-7l-18 1v-7l-39 3v6l-17 2v7l-18 2v7l-17 3v59l17-3v6l18-2v6l17-2v7l39-3v-6z"/><path fill="#ca3745" d="M196 279v7l-18 2v6l-17 3v6l-18 3v58l18-3v7l17-3v7l18-2v6l38-2v-7h17v-7h18v-6h17v-58h-17v-7h-18v-6h-17v-6zm4 4 29-1v6h18v6h17v7h18v48h-18v7h-17v6l-18 1v6l-29 2v-6l-17 2v-7l-18 2v-6l-17 3v-49l17-3v-6l18-3v-6l17-2zm-17 83v-7l-17 3v-7l-18 3v-48l18-2v-7l17-2v-7l18-2v-6l28-2v7l17-1v7l18-1v7h17v48h-17v6h-18v7h-17v7l-28 2v-7z"/><path fill="#383739" d="m187 297-4-3v6l-5 4v-4l-4 4-4-3v4l-5-3v7l-4 3v-4l-4 4-5-2v4l-4-3v19l-5 1v9l5-1v19l4-4v3l5-4 4 3v-4l4 2v7l5-4v4l4-4 4 3v-4l5 2v7l4-4v4l5-4 4 3v-4l4 3v7l6-6v6l9-6 8 5v-7l6 6v-7l4-4v5l5-4 4 4v-5l5 3v-6l4-3v4l4-4 4 4v-4l5 3v-6l4-3v4l5-4 4 4v-4l5 3v-19l5 1v-9h-5v-19l-5 3v-4l-4 3-5-3v4l-4-3v-6l-5 3v-4l-4 3-4-3v4l-4-3v-7l-5 4v-5l-4 4-5-3v4l-4-3v-7l-6 6v-7l-8 6-9-4v6l-6-5v7l-4 4v-5l-4 5-5-4z"/><path fill="#28ae66" d="M153 314v-3l4 2 4-4v4l4-4v45l-4-3v4l-4-2-4 3v-3l-5 4v-19l-5 1v-8l5-1v-18zm35-21 4 3 4-4v5l4-4v69l-4-3v4l-4-3-4 4v-4l-5 4v-69l5 3zm54-4-4 4-4-3v4l-5-3v69l5-4v5l4-4 4 4v-5l4 4v-70l-4 4zm35 17v-4l-4 3h-1l-4-3v4l-4-3v44l4-3v4l5-3 4 3v-4l4 3v-18h5v-8h-5v-18z"/><path fill="#faae29" d="m170 302 4 3 4-4v4l5-4v56l-5-2v4l-4-3-4 4v-4l-4 4v-57l4 3zm37-11-6-5v83l6-7v7l8-5 8 4v-7l6 6v-83l-6 6v-7l-8 6-8-5zm52 5-4 3-4-3v4l-4-3v56l4-3v4l4-3 4 3v-4l5 3v-56l-5 3z"/><path fill="#383739" d="m155 325 2 1 2-2 1-7-2 3-1-2-2 2-2-2q0 4 2 7m18-8-1-1v-3l-4 4 6 5 6-7-3-2v3l-2 1v-5l3-2-4-3-3 4 2 1zm18-7-2-2v-2l-3 3 6 5 5-6-3-3v3l-1 1v-5l2-2-3-3-4 4 3 2z"/><path fill="#fff" d="m157 319 1 2 2-3-2 6-1 1h-2l-1-6 1 2zm35-15v7l3-3v-2l2 2-5 6-5-5 2-2v2l2 2v-7l-2-1 3-3 3 2z"/><path fill="#ca3745" d="M175 312v6l2-2v-2l2 1-5 6-5-4 2-2v2l3 2v-7l-3-2 3-2 3 2z"/><path fill="#383739" d="m274 317-1 1-2-1q-3-3-2-7l2 2 2-2 1 2 2-2q1 4-2 7m-18-5 2-2v-2l3 3-6 6-6-6 4-3v2l1 2v-5l-3-2 4-3 4 3-3 2zm-17-5 1-2v-3l3 3-5 6-6-5 3-4v3l1 2v-5l-2-3 4-3 3 3-2 2z"/><path fill="#fff" d="m273 311-2 2-2-2 2 5 2 1 1-1q2-1 2-5l-2 2zm-36-10v7l-2-3v-2l-2 3 5 5 5-6-2-2v2l-3 3v-7l3-2-3-2-3 2z"/><path fill="#ca3745" d="M254 307v6l-2-2v-2l-2 2 5 5 5-5-2-2v2l-2 2v-6l2-2-3-3-3 3z"/><path fill="#383739" d="m222 309-2-2 4-5-4-4v3l-2 2v-5l4-3-7-6-8 7 4 3v4l-2-1v-3l-4 4 5 5-2 2z"/><path fill="#ca3745" d="m209 310 1-3-4-4 3-3v2l3 2v-6l-4-2 7-6 7 5-4 3v6l2-3v-2l4 3-5 5 2 2z"/><path fill="#383739" d="m211 295 4 3 3-3-3-3v1z"/><path fill="#28ae66" d="m215 293 2 2-2 2-3-2z"/><path fill="#383739" d="m155 341 2-1 2 1 1 6-2-2-1 3-2-2-2 3q0-5 2-8m18 2-1 2v3l-4-3 6-6 6 5-3 3v-3l-2-1v5l3 2-4 4-3-3 2-3zm18 4-2 1v3l-3-2 6-7 5 5-3 4v-3l-1-1v5l2 2-3 3-4-3 3-2z"/><path fill="#fff" d="m157 347 1-2 2 1-2-5h-1l-2 1-1 5 1-2zm35 5v-6l3 2v2l2-3-5-4-5 6 2 1v-2l2-2v6l-2 2 3 3 3-3z"/><path fill="#ca3745" d="M175 348v-6l2 2v2l2-2-5-5-5 6 2 2v-2l3-3v7l-3 2 3 2 3-3z"/><path fill="#383739" d="m274 333-1-1-2 1q-3 4-2 7l2-2 2 2 1-2 2 2q1-3-2-7m-18 5 2 1v3l3-3-6-6-6 6 4 3v-3l1-1v5l-3 2 4 3 4-3-3-2zm-17 6 1 1v3l3-3-5-6-6 6 3 3v-3l1-1v5l-2 2 4 3 3-3-2-2z"/><path fill="#fff" d="m273 339-2-2-2 2 2-6h3l2 6-2-2zm-36 10v-6l-2 2v2l-2-2 5-5 5 5-2 2v-2l-3-2v6l3 2-3 3-3-3z"/><path fill="#ca3745" d="M254 343v-6l-2 2v2l-2-2 5-5 5 5-2 2v-2l-2-2v6l2 2-3 3-3-3z"/><path fill="#383739" d="m222 342-2 3 4 4-4 4v-2l-2-2v5l4 3-7 6-8-5 4-4v-4l-2 1v3l-4-3 5-5-2-3z"/><path fill="#ca3745" d="m209 344 1 2-4 5 3 2v-2l3-2v6l-4 3 7 5 7-6-4-3v-6l2 2v2l4-3-5-4 2-2z"/><path fill="#383739" d="m211 358 4-3 3 2-3 3z"/><path fill="#28ae66" d="m215 360 2-3-2-2-3 3z"/><path fill="#383739" d="M277 322h-8v-3h-23l-17-10-29 1-16 13-24 3v4l-8 1v5l8-1v3l24-3 16 9 29-2 17-11h23v-3h8z"/><path fill="#ca3745" d="m200 311-16 13-23 3v3l-8 1v5l8-2v4l23-4 16 10 29-2 16-12h24v-3h7v-4h-7v-4l-24 1-16-11zm0 2 29-2 15 9v2h16v6h-16v2l-15 10-29 2-14-8v-2l-17 2v-6l17-2v-2zm29-2 14 10v1h17v6h-17v1l-14 11-28 2-15-9v-1l-17 2v-6l17-2v-2l15-11z"/><path fill="#383739" d="m193 334 7 4 4-4-3-1-1 1-2-1 24-20h-5zm14 6 5-1 24-19-6-5-5 3 3 2 2-1 1 1zm10-1h5l-24-17 2-1 1 1 3-2-4-3-7 5zm14-8-1 1-2-1-3 2 5 3 6-5-24-17h-5zm-42-2 4 2 4-3-4-3zm21-2 5 2 4-3-4-3zm31-2-5 3-4-3 4-3z"/><path fill="#faae29" d="m235 331-5 4-4-2 2-1 2 1 2-2-23-17h3zm-14 7h-4l-23-16 6-4 3 2-2 1-1-1-3 2zm-9 1h-3l23-19-2-2-2 2-2-2 4-2 5 4zm5-25h4l-24 19 3 2 1-2 2 1-3 3-6-3z"/><path fill="#28ae66" d="m193 326 3 2-3 2-4-2zm22-2 3 2-3 3-4-3zm21-1-3 2 3 3 4-3z"/><path fill="#383739" d="m140 457-2 3 3 2-3 3 2 2h3l4-4 8 4v-4l-5-3 5-4v-5l-8 7-4-2zm0-15-2 2 3 2-3 3 2 2h3l4-3 8 4v-5l-5-2 5-5v-4l-8 7-4-2zm0 41-2-2 3-3-3-2 2-3 3-1 4 2 8-7v5l-5 4 5 3v4l-8-4-4 3zm150-36 1 2-3 3 3 2-1 2-4 1-3-3-9 5v-4l6-4-6-3v-5l9 6 3-3zm0-16 1 3-3 2 3 2-1 3h-4l-3-3-9 5v-4l6-3-6-4v-4l9 5 3-2zm0 41 1-2-3-3 3-2-1-2-4-1-3 3-9-6v5l6 3-6 3v5l9-5 3 2zm-34-69v7h5v3h4v-5h-4v-5zm14 11v6h4v3h5v-5h-4v-4zm-97-5v6l-4 1v3l-5 1v-6h4v-4zm83 90v-7h5v-3h4v6h-4v4zm-83 5v-6l-4 1v-3h-5v6l4-1v4zm97-15v-7h4v-3h5v6h-4v4zm-110-68v7l-5 1v2l-5 1v-5l5-1v-4zm0 75v-6h-5v-3l-5 1v6l5-1v4zm72-92-4-4-3 4 3 3-4 4h6l2-3 2 2h6l-4-4 3-3-4-3zm-17 1-4-4-3 4 3 3-4 4h6l2-3 2 2h6l-4-4 3-3-4-3zm-18 1 4-4 3 3-3 3 4 4-5 1-3-2-2 2-6 1 4-5-3-3 4-3zm35 94-4 3-3-3 3-3-4-4h6l2 2 2-2h6l-4 4 3 3-4 3zm-17 1-4 3-3-3 3-3-4-4h6l2 2 2-2 6-1-4 4 3 3-4 4zm-18 1 4 3 3-3-3-3 4-4h-5l-3 2-2-2-6 1 4 3-3 4 4 3z"/><path fill="#28ae66" d="M155 463v4l-8-4-4 3h-3l-1-1 3-3-3-2 1-2 3-1 4 2 8-7v4l-6 5zm0-16v4l-8-4-4 3-3 1-1-2 3-3-3-2 1-2 3-1 4 2 8-6v3l-6 5zm0 25v-4l-8 7-4-2-3 1-1 2 3 2-3 3 1 1h3l4-3 8 3v-3l-6-3zm120-17v3l8-5 3 3h3l2-2-4-2 4-3-2-2h-3l-3 3-8-6v4l5 3zm0-16v4l8-5 3 2h3l2-2-4-2 4-3-2-1-3-1-3 3-8-6v4l5 4zm0 24v-3l8 5 3-2h3l2 2-4 2 4 3-2 2h-3l-3-3-8 5v-3l5-4zm-14-59v4h4v4h-4v-3h-5v-5zm13 10v4l4 1v4h-3v-3h-5v-6zm-105-4v4l-4 1v4h3v-3l5-1v-6zm92 88v-4h4v-4h-4v3h-5v5zm-92 7v-5l-4 1v-4l3-1v3l5-1v6zm105-17v-4h4v-4h-3v3h-5v5zm-119-66v5h-4v5l4-1v-3l4-1v-5zm0 74v-4l-4 1v-4l4-1v3l4-1v6zm73-95 4 3 3-3 3 2-3 3 4 4h-5l-2-2-2 2h-5l4-3-3-3zm-17 1 4 3 3-3 3 2-3 3 3 3-4 1-2-2-3 2h-4l3-3-3-3zm-10 1-4 4-3-4-3 3 3 3-3 4 4-1 2-2 3 2h4l-3-3 3-4zm27 100 4-4 3 3 3-2-3-3 4-4h-5l-2 3-2-2h-5l4 3-3 3zm-17 1 4-4 3 3 3-3-3-2 3-4h-4l-2 3-3-3-4 1 3 3-3 3zm-10 0-4-3-3 4-3-2 3-4-3-3h4l2 2 3-3h4l-3 4 3 3z"/><path fill="#383739" d="M168 489v10q46-6 93-6v-10h14v-63h-14v-11q-46 0-93 7v10l-13 2v63z"/><path fill="#ca3745" d="M169 416v10l-14 3v61l14-2v11q45-7 92-7v-10h13v-62h-13v-10q-46 0-92 6m6 3q39-5 80-5v10l3 2h12v50h-12l-3 2v10q-40 1-80 6v-10l-4-2-12 2v-50l12-2 4-3zm0 1v9l12-11zm67-5 12 8v-9zm-83 19v9l12-10zm100-7 11 8v-8zm11 40-11 8 11 1zm-111 7v9l12-2zm16 10v9l12-1zm79-5-12 9h12z"/><path fill="#28ae66" d="m241 415 29 21v30l-29 22-53 4-29-18v-30l29-26q26-3 53-3"/><path fill="#383739" d="m166 476-3-3 3-4-3-3 3-5-3-3 3-4-3-3 3-4-3-4 3-4q48-7 97-6l3 3-3 4 3 4-3 3 3 4-3 4 3 3-3 4 3 4-3 4q-48-1-97 6m67-56-4-4-4 4-3-3-4 3-3-3-4 4-4-3-3 3-4-3-4 4v64l4 3 4-3 3 3 4-4 4 3 3-3 4 3 3-4 4 3 4-3z"/><path fill="#faae29" d="m225 420-3-3-4 4v63l4 3 3-3zm-14 1-4-3-3 4v63l3 3 4-3zm-45 55-2-3 2-4q48-7 97-7l3 4-3 3q-48 0-97 7m97-28 3 3-3 4q-48-1-97 6l-2-3 2-4q48-6 97-6m0-8 3-4-3-3q-48 0-97 7l-2 3 2 3q48-6 97-6"/><path fill="#ca3745" d="m232 420-3-3-3 3v64l3 3 3-3zm-28 2-4-3-3 3v64l3 2 4-3zm-38 46-2-3 2-3q48-7 97-7l3 3-3 4q-48 0-97 6m0-14-2-3 2-4q48-7 97-7l3 4-3 3q-48 0-97 7m52 30-3 3-4-2v-64l4-3 3 3z"/><path fill="#383739" d="M247 421q-32 0-65 4v5l-8 1v51l8-1v5q33-4 65-4v-5l9-1v-50h-9z"/><path fill="#ca3745" d="M182 425v6l-8 1v49l8-1v6l7-1-13-10v-37l13-13zm58-4 14 12v37l-14 12 7-1v-5h8v-50h-8v-5z"/><path fill="#28ae66" d="m190 425-14 13v37l14 10q25-3 49-3l14-13v-36l-14-12zm1 2 47-4 13 11v34l-13 12-47 3-13-10v-34zm12 44 3 1v3l-3 2 4 4h-4l-2-2-3 2-4 1 4-4-3-3 1-2 2-1 3 2zm14-1 2 1 1 3-3 2 4 4h-4l-2-2-3 2-4 1 4-5-3-2 1-2 2-1 3 2v-1zm9 0-2 1-1 2 3 3-4 4h4l3-3 2 2h4l-4-4 3-2-1-3h-2l-2 2h-1zm-23-34 3-1v-3l-3-2 4-4h-4l-2 3-3-3-4 1 4 3-3 3 1 2 2 1 3-2zm14-1 2-1 1-3-3-2 4-4h-4l-2 3-3-3h-4l4 4-3 3 1 2 2 1 3-2zm9-1-2-1-1-2 3-3-4-3 4-1 3 3 2-3h4l-4 4 3 2-1 3-2 1-2-2h-1zm25 3-3 2 3 2v3l-4-3-2 3-3-1v-1l2-3-2-2v-1l3-1 2 2 4-3zm0 12-3 2 3 2v3l-4-3-2 3-3-1v-1l2-3-2-2v-2h3l2 2 4-3zm0 16-3-2 3-2v-3l-4 3-2-2h-3v2l2 2-2 2v2h3l2-2 4 3zm-72-23 2 2-2 2v3l3-3 2 2 3-1 1-2-2-2 2-2-1-2h-3l-2 3-3-3zm0 12 2 2-2 2v3l3-3 2 2 3-1 1-2-2-2 2-2-1-2h-3l-2 3-3-3zm0 16 2-2-2-2v-3l3 2 2-2h3l1 2-2 2 2 2-1 2h-3l-2-1-3 3z"/><path fill="#ca3745" d="m191 427-12 12 3 2 2-2h3l1 2-2 2 2 2-1 2-3 1-2-2-3 4v1l3 2 2-2h3l1 2-2 2 2 2-1 2-3 1-2-2-3 3v1l3 3 2-3 3 1 1 2-2 2 2 2-1 2-3 1-2-2-3 3 12 9h3l3-4-2-2v-3l3-2 3 2 2-2 3 1v3l-2 2 4 3 3-3-2-3v-3l3-1 3 2 2-2 3 1v3l-2 2 4 4 3-4-2-2v-4l3-1 3 2 2-2 3 1v3l-2 2 4 4h2l12-11-3-2-2 2h-3l-1-3 2-2-2-2 1-2 3-1 2 2 4-2v-1l-4-3-2 2h-3l-1-2 2-3-2-2 1-2h3l2 2 4-3v-1l-4-3-2 2h-3l-1-2 2-3-2-2 1-2h3l2 2 3-3-12-10h-2l-4 4 2 2v3l-3 2-2-3-3 3-3-1v-3l2-3-3-3-4 4 2 2v3l-3 1-2-2-3 3-3-1v-3l2-3-3-3-4 4 2 2v3l-3 1-2-2-3 3-3-1v-3l2-3-3-3zm-12 28v2l1-1z"/><path fill="#fff" d="m201 479-2 2h4zm14-1-2 2h4zm14-1-2 2h4zm-30-51 2 2 2-2zm14-1 2 2 2-2zm14-1 2 2 2-2zm24 14-2 1 2 1zm0 12-2 1 2 1zm0 12-2 1 2 1zm-72-19v2l1-1zm0 12v2l1-1zm0 12v2l1-1z"/><path fill="#383739" d="M227 448v-4h-5v-5l-15 1v5h-4v5h-6v8l6-1v5l4-1v5l15-1v-5h5v-4h5v-8z"/><path fill="#faae29" d="M214 440v5l-6 4v4l-11 1v-4h6v-4l4-1v-4zm1 25v-5l7-4v-4h10v3h-6v5h-4v5z"/><path fill="#fff" d="M222 452v-4l-7-3v-5h7v4h4v4h6v3zm-25 2 11-1v4l6 3v5l-7 1v-5h-4v-4h-6z"/><path fill="#ca3745" d="M208 453v4l6 3v-7z"/><path fill="#28ae66" d="m214 446-6 4v3l6-1z"/><path fill="#ca3745" d="M221 452v-3l-6-3v6z"/><path fill="#28ae66" d="m215 460 6-4v-4l-6 1z"/><path fill="#383739" d="M158 543v13l-12 2v12l-12 3v34l12-3v12l12-2v13l45-5 8 4-4 3-16 1-1-1 14-2-4-4-20 3 9 8 19-1 7-5 6 4 19-1 10-10h-21l-4 5 15-1-2 2-16 1-3-3 7-5 45-1v-13l12 1v-12h12v-34h-12v-12h-12v-13h-45l-7-4 3-3h16l2 1-15 1 4 4 21-1-10-10-19 1-6 5-7-4-19 2-9 11 20-2 4-5-14 2 1-2 16-2 4 2-8 6z"/><path fill="#ca3745" d="m226 620 44-1v-13h12v-12l13 1v-33l-13-1v-12h-12v-13l-44 1-18-10-19 1-8 10 19-2 3-3-14 1 2-3 16-1 21 11h38v13h12v12h12v24l-12-1v12h-12v13l-38 1-21 14-16 1-2-2 14-1-3-3-19 2 8 8 19-2zm-25-3-37 4v-13l-13 2v-12l-12 2v-23l12-2v-12l13-2v-13l37-5 21-14 16-1 3 3h-15l3 3h20l-9-9-19 1-18 12-44 6v13l-12 2v12l-13 2v33l13-2v12l12-3v14l44-6 18 10h19l9-10-20 1-3 3h15l-3 2-16 1z"/><path fill="#faae29" d="m215 535-13 9-38 4v13l-12 2v12l-13 2v23l13-2v12l12-2v13l38-5 13 7 13-8 37-1v-13h12v-12h13v-22l-13-1v-12h-12v-13l-37 1zm0 3 12 7 36-1v13h12v12h12v17h-12v12h-12v13l-36 1-12 8-13-7-35 4v-13l-12 2v-12l-13 3v-17l13-3v-11l12-2v-14l35-4z"/><path fill="#28ae66" d="M262 597v13l-35 1-12 8-13-6-35 4v-13l-12 2v-12l-12 2v-16l12-2v-12l12-2v-13l35-4 13-9 12 7 35-1v14h12v12h13v16h-13v11z"/><path fill="#383739" d="M172 599v12l19-2zm0-31v-13l19-2zm85 25v12l-19 1zm0-31v-13l-19 1z"/><path fill="#ca3745" d="m172 599 18 10-18 2zm0-32 18-13-18 2zm85 26-17 12h17zm0-31-17-12h17z"/><path fill="#383739" d="M197 577v-7l-3 1-10-6-10 8h-2v7h-5v7h5v6h2l10 5 10-7 3-1v-6l7-1v-7z"/><path fill="#ca3745" d="m184 566 10 5-19 2zm10 25-10 7-9-5zm-3-13v6l-12 1v-6z"/><path fill="#faae29" d="M196 584v6l-12 1v-6zm-12 1v6l-12 2v-6zm19-8v6l-11 1v-6zm-24 2v6l-12 2v-6zm17-8v6l-12 1v-6zm-12 1v6l-12 2v-6z"/><path fill="#383739" d="M176 581v3l-6 1v-3zm5-7v3l-6 1v-3zm12-1v3h-5v-3zm-5 7v3l-5 1v-4zm12-2v4h-5v-3zm-7 8v3h-5v-3zm-12 1v3l-6 1v-3z"/><path fill="#fff" d="M175 582h-4v3l4-1zm5-7h-4v2h4zm12-2-4 1v2l4-1zm-5 7-4 1v2l4-1zm13-1h-5v3l5-1zm-8 7-4 1v2l4-1zm-12 1-4 1v2h4z"/><path fill="#383739" d="M233 575v-7h2l10-7 11 7h2v6h5v7h-5v6h-2l-11 7-10-6h-2v-7l-8 1v-7z"/><path fill="#ca3745" d="m245 562-9 6h19zm-9 26 9 6 10-7zm2-13v6h12v-6z"/><path fill="#faae29" d="M233 581v6h12v-6zm12 0v6h12v-6zm-19-6v6h12v-6zm24 0v6l12-1v-6zm-17-7v6h12v-6zm12 0v6h12v-6z"/><path fill="#383739" d="M254 576v3h5v-3zm-5-7v4h5v-4zm-13 1v3h6v-3zm5 6v3h6v-3zm-12 0v4h5v-4zm7 7v3h6v-3zm13-1v4h5v-4z"/><path fill="#fff" d="M254 576h4v3h-4zm-5-6h5v2h-5zm-12 0h4v2l-4 1zm5 7 4-1v3h-4zm-12 0h4v2h-4zm7 6h4v2h-4zm12 0h5v2h-5z"/><path fill="#383739" d="M227 564v6l-2 1-10 7-11-6h-2v-6h-6v-7h6v-7h2l11-7 10 6 2-1v7h6v7z"/><path fill="#faae29" d="m215 577 9-6-19 1zm9-26-9-6-10 7z"/><path fill="#ca3745" d="M227 557v-6l-12 1v6zm-13 1v-6l-11 1v6zm19 5v-6l-12 1v6zm-12 1v-6l-12 1v6zm-13 1v-6l-12 1v6zm19 5v-6l-12 1v6zm-13 1v-6l-11 1v6z"/><path fill="#383739" d="M211 553v4h-5v-3zm12-1v4h-5v-3zm-18 8v4h-5v-3zm12-1v4h-5v-3zm13 0v3h-6v-3zm-19 7v4h-5v-3zm12-1v4h-5v-3z"/><path fill="#fff" d="M211 554h-5v2h5zm12-1h-4v3l4-1zm-18 8h-5v2h5zm12-1h-5v2h5zm12-1h-4v3l4-1zm-18 8h-5v2h5zm12-1h-4v3l4-1z"/><path fill="#383739" d="M227 600v6h-2l-10 7-11-6-2 1v-7l-6 1v-7l6-1v-6h2l11-8 10 6h2v7l6-1v7z"/><path fill="#faae29" d="m215 613 9-7-19 1zm9-27-9-5-10 6z"/><path fill="#ca3745" d="M227 593v-6h-12v6zm-13 0v-6l-11 1v6zm19 6v-6h-12v6zm-12 0v-6l-12 1v6zm-13 1v-6l-12 1v6zm19 6v-6h-12v6zm-13 0v-6l-11 1v6z"/><path fill="#383739" d="M211 589v3l-5 1v-4zm12-1v3l-5 1v-4zm-18 8v3l-5 1v-4zm12-1v3l-5 1v-4zm13-1v4h-6v-3zm-19 8v3l-5 1v-4zm12-1v3l-5 1v-4z"/><path fill="#fff" d="m211 589-5 1v2h5zm12 0h-4v2h4zm-18 7-5 1v2h5zm12-1-5 1v2h5zm12 0h-4v2h4zm-18 7-5 1v2h5zm12 0h-4v2h4z"/><path fill="#383739" d="m148 686 46-32 42-3 46 25v42l-46 26-42 3q-24-11-46-19z"/><path fill="#28ae66" d="m194 655-46 31v41l46 19 42-3 45-25v-41l-45-25zm1 3 40-3 43 24v37l-43 24q-21 0-40 3l-44-18v-38z"/><path fill="#faae29" d="M215 698v42l20-1 43-23v-19l-64 2v-42l-19 1q-22 14-43 30v18q31-5 63-8"/><path fill="#fff" d="M214 698v42l-19 2-43-18v-18q31-5 63-7v-42l20-1 43 23v18z"/><path fill="#383739" d="M218 738v-12l-3 2-4-2v12l-12 1 8-6v-9l-12-7-9 1v-34l9-1 12-9v-8l-8-6h1l11-1v12l4-2 3 2v-12l12-1-8 7v8l13 8 8-1v34h-8l-13 9v9l8 5z"/><path fill="#faae29" d="M219 659v13l-4-3v4l19 11h6v13h3v-16h-8l-13-7v-10l7-5zm-33 42v16h9l12 7v9l-7 6 10-1v-13l4 3v-4l-18-11-7 1v-13z"/><path fill="#fff" d="m200 661 7 4v9l-12 10-9 1v16l3-1v-13h7l18-14v-4l-4 3v-12zm40 37v13h-6l-19 13v4l4-3v12h10l-7-5v-9l13-9h8v-16z"/><path fill="#ca3745" d="M190 713h6l19 11 19-14h5v-25h-5l-19-12-19 14-6 1z"/><path fill="#383739" d="M228 704h4v-2h-3v-4h6v9h-6v7h-13v-9h6v4h-2v2l6-1v-3l-24-14-4 1v2l3-1v4l-7 1v-9l6-1v-6h1l12-1v9h-6v-3l3-1v-1h-6v3zm-2-15v-3h-6v2h2v3h-6v-8l13-1v6h6v9h-6v-3h3v-2h-4l-24 16v4l6-1v-2l-3 1v-4h6v8l-13 1v-6l-6 1v-9l7-1v4h-3v2h4z"/><path fill="#fff" d="M226 707v4h-7v-3h2v-2h-4v8l12-1v-6h6v-8h-6v2h3v3h-4l-25-13v-4l7-1v3h-2v3l5-1v-8l-12 1v6l-6 1v8h5v-3h-3v-3h5zm2-16h4v3h-3v3l6-1v-8l-6 1v-7l-12 1v8h4v-3h-2v-3h7v4l-24 17-5 1v-3l3-1v-2h-5v8h6v6l12-1v-8h-5v3h2v3h-7v-4z"/><path fill="#383739" d="M268 699v13h-5v-4h-6v4h-5v-13h5v5h6v-5zm-19 18v13h-6v-5l-5 1v4h-6v-13h6v5h5v-5zm19-22v-13h-5v4h-6v-4h-5v13h5v-5h6v5zm-107 12v13l5-1v-5l6-1v5l5-1v-13l-5 1v5h-6v-4zm0-5v-13l5-1v5l6-1v-4l5-1v13l-5 1v-5l-6 1v4zm88-24v-14l-6 1v4h-5v-4h-6v13h6v-5h5v5zm-68 43v13h5v-5h6v4h5v-13h-5v5h-6v-4zm0-39v-13l5-1v5l6-1v-4l5-1v13l-5 1v-5l-6 1v4zm71-14v10h18zm-75 63v-10l-18 3zm0-58v10l-18 3zm75 53v-10h18z"/><path fill="#ca3745" d="M263 707v5h5v-12h-5v4h-6v-4h-5v12h5v-5zm-19 18v5l4-1v-12h-4v5h-7v-4h-4v12h4v-5zm19-38v-5h5v13l-5-1v-4h-6v4l-5 1v-13h5v5zm-97 27v4l-5 1v-12l5-1v5l6-1v-5h5v12l-5 1v-5zm0-20v-5l-5 1v12l5-1v-5h6v4h5v-13l-5 1v5zm78-24v-5h4v12h-4v-4h-7v4l-4 1v-13h4v5zm-58 59v4l-5 1v-12l5-1v5l6-1v-4l5-1v12l-5 1v-5zm0-56v-4h-5v13l5-1v-5h6v4h5v-12h-5v5z"/><path fill="#faae29" d="M252 669v9h16zm-91 55 16 6v-9z"/><path fill="#fff" d="m177 674-16 11 16-2zm75 42v9l16-9z"/></svg>