<svg xmlns="http://www.w3.org/2000/svg" viewBox="0 0 1000 1000"><path fill="#28ae66" d="M8 195.3c170.8-85.3 341-54.5 513.3-28C676.5 191 833.4 211.8 992 132.7v672c-170.8 85.3-341 54.5-513.3 28C323.5 809 166.6 788.1 8 867.2z"/><path fill="#fff" d="M496.5 238a101 101 0 0 1 49.5 84.4c-.3 46.5-36.3 77.7-81.6 71.1a96 96 0 0 1-53-27.5q13.4 7.6 28.7 10.6c45.2 8.4 82.8-20.7 85-66.9a99 99 0 0 0-28.6-71.7m-77.8 49.9 9.2-27.9-24.2 14.7 30 4.1-24.3-21.3zm0-43 9.2-27.9-24.2 14.7 30 4.1-24.3-21.3zm41.4 28 9.3-27.7-24.2 14.4 30 4.4-24.3-21.6zm-82.9 30.7 9.2-28-24.2 15.2 30 3.5-24.2-20.9zm41.5 27.3 9.2-27.9-24.2 14.8 30 4-24.3-21.3z"/><path fill="#ca3745" d="M126 153.3a657 657 0 0 1 177.2-12.9v672a655 655 0 0 0-177.1 12.9z"/><path fill="#383739" d="m169.4 145.4-17 18.7-7.8-6-4 4.6 6 4.7-7 8 3.3 2.7-16.8 19.5V191l10-11.6-3.4-2.5 7.1-8.2-3.1-2.3v4.2l-6.1 1.3v-5l13.7-16 7-1.3.7 4.6-4 .7 4.4 3.4 10.9-12zm-43.3 7.9 11.4-2.5-3.3 4.2-4.2.9v4.8l-4 5zm28.2-5.6 3.8-.6-3.3 3.8z"/><path fill="#faae29" d="m126 191.7 10.7-12.4-3.3-2.6 7.1-8.2-4.3-3.2v5l-5.1 1v-4.4l13.4-15.6 6.3-1.1.6 3.6-4.6.8 5.6 4.3 11.5-12.7 4.7-.7-16.2 18-7.8-6-4.7 5.3 6 4.7-7 8.1 3.3 2.6-16.1 18.7zm0-38.4 11-2.3-3 3.5-4.5 1v5.1l-3.4 4.4zm28.8-5.6 2.6-.5-2.3 2.6z"/><path fill="#383739" d="M126 231.2v6.6l10 7.4-3.3 4 7.1 5.2-3.1 3.6v-4.3l-6.1 1.3v5l13.7 10.5 7-1.3.7-4.7-4 .7 4.4-5 10.9 8.4-11 12-4.3-3.4 4-.7-.7-4.6-7 1.3-13.7 16v5l6-1.3v-4.2l3.2 2.3-7.1 8.2 3.3 2.6-10 11.6v6.6l17-19.6-3.4-2.6 7-8.1-6-4.7 4-4.6 7.8 6 17-18.7-17-13.3-7.8 8.8-4-3.1 6-7-7-5.4 3.3-3.8zm0 32V288l4-5v-4.8l4.2-.9 3.3-4.1-3.3-2.8-4.2.9v-4.9zm28.8 3.2-.6 3.4.6 3.4 3.6-4z"/><path fill="#faae29" d="M126 232v5.1l10.7 8-3.3 3.9 7.1 5.3-4.3 5v-5l-5.1 1v4.5l13.4 10.2 6.3-1.2.6-3.8-4.6.9 5.6-6.4 11.5 9-11.5 12.7-5.6-4.2 4.6-.9-.6-3.6-6.3 1.1-13.4 15.6v4.4l5.1-1v-5l4.3 3.2-7.1 8.2 3.3 2.6-10.6 12.4v5.2l16.1-18.7-3.3-2.6 7-8.1-6-4.7 4.7-5.4 7.8 6 16.2-17.9-16.2-12.8-7.8 8.8-4.7-3.6 6-7-7-5.4 3.3-3.8zm0 31.9v23.4l3.5-4.4v-5.1l4.5-1 3-3.5-3-2.4-4.4 1v-5.2zm29.2 3.3-.5 2.5.5 2.4 2.5-2.8z"/><path fill="#383739" d="M126 357.5v6.6l10 7.4-3.3 4 7.1 5.3-3.1 3.5V380l-6.1 1.2v5l13.7 10.5 7-1.3.7-4.7-4 .7 4.4-5 10.9 8.4-11 12-4.3-3.4 4-.7-.7-4.5-7 1.2-13.7 16v5l6-1.3V415l3.2 2.3-7.1 8.2 3.3 2.6-10 11.6v6.6l17-19.6-3.4-2.6 7-8-6-4.8 4-4.5 7.8 6 17-18.8-17-13.3-7.8 8.8-4-3 6-7-7-5.5 3.3-3.8zm0 32v24.8l4-5v-4.7l4.2-1 3.3-4.1-3.3-2.8-4.2 1v-5zm28.8 3.2-.6 3.5.6 3.3 3.6-4z"/><path fill="#faae29" d="M126 358.3v5.2l10.7 8-3.3 3.8 7.1 5.3-4.3 5v-5l-5.1 1.1v4.4l13.4 10.2 6.3-1.2.6-3.7-4.6.8 5.6-6.3 11.5 9-11.5 12.7-5.6-4.3 4.6-.9-.6-3.6-6.3 1.2-13.4 15.5v4.4l5.1-1v-5l4.3 3.3-7.1 8.2 3.3 2.5-10.6 12.4v5.3l16.1-18.7-3.3-2.6 7-8.2-6-4.6 4.7-5.4 7.8 6 16.2-18-16.2-12.8-7.8 8.9-4.7-3.6 6-7-7-5.4 3.3-3.9zm0 32v23.3l3.5-4.3V404l4.5-1 3-3.5-3-2.4-4.4 1V393zm29.2 3.3-.5 2.5.5 2.3 2.5-2.8z"/><path fill="#383739" d="M126 483.9v6.6l10 7.4-3.3 3.9 7.1 5.3-3.1 3.5v-4.2l-6.1 1.3v5l13.7 10.4 7-1.2.7-4.8-4 .7 4.4-4.9 10.9 8.4-11 12-4.3-3.4 4-.7-.7-4.6-7 1.3-13.7 15.9v5l6-1.2v-4.3l3.2 2.3-7.1 8.2 3.3 2.6-10 11.6v6.6l17-19.5-3.4-2.7 7-8-6-4.7 4-4.6 7.8 6 17-18.7-17-13.4-7.8 8.8-4-3 6-7-7-5.4 3.3-3.9zm0 32v24.7l4-5V531l4.2-.9 3.3-4.2-3.3-2.7-4.2.8v-4.8zm28.8 3.1-.6 3.5.6 3.3 3.6-4z"/><path fill="#faae29" d="M126 484.6v5.2l10.7 8-3.3 3.8 7.1 5.4-4.3 4.9v-5l-5.1 1.1v4.4l13.4 10.2 6.3-1.1.6-3.8-4.6.8 5.6-6.3 11.5 9-11.5 12.7-5.6-4.3 4.6-.8-.6-3.6-6.3 1-13.4 15.7v4.4l5.1-1.1v-5l4.3 3.3-7.1 8.2 3.3 2.6-10.6 12.4v5.2l16.1-18.7-3.3-2.6 7-8.1-6-4.7 4.7-5.4 7.8 6 16.2-18-16.2-12.7-7.8 8.8-4.7-3.6 6-7-7-5.4 3.3-3.8zm0 32v23.3l3.5-4.3v-5.2l4.5-.9 3-3.6-3-2.3-4.4 1v-5.3zm29.2 3.3-.5 2.5.5 2.4 2.5-2.9z"/><path fill="#383739" d="M126 610.2v6.6l10 7.4-3.3 4 7.1 5.2-3.1 3.6v-4.3l-6.1 1.3v5l13.7 10.5 7-1.3.7-4.8-4 .8 4.4-5 10.9 8.4-11 12-4.3-3.4 4-.7-.7-4.6-7 1.3-13.7 16v5l6-1.3v-4.2l3.2 2.3-7.1 8.2 3.3 2.5-10 11.7v6.6l17-19.6-3.4-2.6 7-8.1-6-4.7 4-4.6 7.8 6 17-18.7-17-13.3-7.8 8.8-4-3.1 6-7-7-5.4 3.3-3.9zm0 32V667l4-5v-4.8l4.2-.9 3.3-4.2-3.3-2.7-4.2.9v-4.9zm28.8 3.2-.6 3.4.6 3.4 3.6-4z"/><path fill="#faae29" d="M126 611v5.1l10.7 8-3.3 3.9 7.1 5.3-4.3 5v-5l-5.1 1v4.5l13.4 10.2 6.3-1.2.6-3.8-4.6.9 5.6-6.4 11.5 9-11.5 12.7-5.6-4.3 4.6-.8-.6-3.6-6.3 1.1-13.4 15.6v4.4l5.1-1v-5l4.3 3.2-7.1 8.2 3.3 2.6-10.6 12.4v5.2l16.1-18.7-3.3-2.6 7-8.1-6-4.7 4.7-5.4 7.8 6 16.2-17.9-16.2-12.8-7.8 8.8-4.7-3.6 6-7-7-5.4 3.3-3.8zm0 31.9v23.4l3.5-4.4v-5.1l4.5-1 3-3.5-3-2.4-4.4 1v-5.2zm29.2 3.3-.5 2.5.5 2.4 2.5-2.9z"/><path fill="#383739" d="M259.9 139.3h6.1l11 10.4 4.2-4-4-.2.8-4.6 7 .1 13.7 13.7v5l-6.1-.2v-4.2l-3.1 2.8 7.1 7-3.4 3.2 10 9.9v6.6L286.3 168l3.4-3.1-7-7 6-5.6-4-4-7.8 7.2zm43.3 13.5-4-4.3v-4.8l-4.1-.2-3.4-3.6 11.5.5zm-32-13.4h3.8l-.5 3.2z"/><path fill="#faae29" d="M260.6 139.3h4.7l11.6 11 5.6-5.1-4.7-.1.7-3.8 6.2.2 13.5 13.4v4.4l-5.1-.2v-5l-4.3 4 7.1 7-3.4 3.1 10.7 10.6v5.3L287 168l3.4-3.2-7-7 6-5.6-4.7-4.7-7.8 7.2zm31.8.6 10.8.5v11.7l-3.5-3.7v-5.2l-4.4-.2zm-20.6-.5h2.7l-.4 2.2z"/><path fill="#383739" d="M303.2 218.3v6.6l-10 9.1 3.4 3.4-7.1 6.5 3.1 3v-4.2l6 .2v5L285 260.7l-7-.2-.8-4.6h4l-4.3-4.2-10.9 10 11 10.4 4.3-4-4-.2.7-4.6 7 .1 13.7 13.7v5l-6.1-.2v-4.2l-3.1 2.8 7.1 7-3.4 3.2 10 10v6.5l-16.8-16.8 3.3-3.1-7-7 6-5.6-4-4-7.8 7.2-17-16.2 17-15.8 7.8 7.6 4-3.7-6-6 7-6.6-3.4-3.3zm0 32v24.8l-4-4.3V266l-4.1-.2-3.4-3.6 3.4-3.3 4.2.2v-4.9zm-28.7 7.8.5 3.4-.5 3.4-3.6-3.4z"/><path fill="#faae29" d="M303.2 219v5.3l-10.7 9.7 3.4 3.3-7.1 6.5 4.3 4.3v-5l5.1.3v4.4L284.7 260l-6.2-.1-.7-3.7 4.7.1-5.6-5.5-11.6 10.7 11.6 11 5.6-5.1-4.7-.1.7-3.7 6.2.1 13.5 13.4v4.4l-5.1-.2v-5l-4.3 4 7.1 7-3.4 3.1 10.7 10.7v5.2l-16.2-16 3.4-3.2-7-7 6-5.6-4.7-4.7-7.8 7.3-16.3-15.6 16.3-15.2 7.8 7.6 4.7-4.3-6-6 7-6.6-3.4-3.3zm0 32v23.4l-3.5-3.7v-5.2l-4.4-.2-3-3 3-3 4.4.3v-5.2zm-29 8 .3 2.5-.4 2.4-2.5-2.4z"/><path fill="#383739" d="M303.2 344.7v6.6l-10 9 3.4 3.4-7.1 6.5 3.1 3V369l6 .3v5L285 387l-7-.2-.8-4.7 4 .1-4.3-4.2-10.9 10 11 10.3 4.3-4-4-.1.7-4.7 7 .2 13.7 13.7v5l-6.1-.2V404l-3.1 2.7 7.1 7-3.4 3.2 10 10v6.5l-16.8-16.7 3.3-3.2-7-7 6-5.6-4-4-7.8 7.2-17-16.1 17-15.9 7.8 7.6 4-3.7-6-6 7-6.6-3.4-3.3zm0 32v24.7l-4-4.2v-4.8l-4.1-.2-3.4-3.6 3.4-3.4 4.2.2v-4.8zm-28.7 7.8.5 3.3-.5 3.5-3.6-3.5z"/><path fill="#faae29" d="M303.2 345.4v5.2l-10.7 9.7 3.4 3.4-7.1 6.5 4.3 4.2v-4.9l5.1.2v4.4l-13.5 12.4-6.2-.2-.7-3.7 4.7.1-5.6-5.4-11.6 10.7 11.6 11 5.6-5.2h-4.7l.7-3.8 6.2.1 13.5 13.4v4.4l-5.1-.2v-5l-4.3 4 7.1 7-3.4 3.2 10.7 10.6v5.2l-16.2-16 3.4-3.2-7-7 6-5.6-4.7-4.6-7.8 7.2-16.3-15.5 16.3-15.2 7.8 7.6 4.7-4.4-6-6 7-6.5-3.4-3.3zm0 32v23.3l-3.5-3.7v-5.2l-4.4-.2-3-3 3-2.9 4.4.2v-5.1zm-29 8 .3 2.4-.4 2.5-2.5-2.5z"/><path fill="#383739" d="M303.2 471v6.6l-10 9.1 3.4 3.3-7.1 6.5 3.1 3v-4.2l6 .3v5L285 513.3l-7-.2-.8-4.6h4l-4.3-4.2-10.9 10 11 10.4 4.3-4.1h-4l.7-4.8 7 .2 13.7 13.7v5l-6.1-.2v-4.2l-3.1 2.8 7.1 7-3.4 3.1 10 10v6.6L286.4 543l3.3-3.2-7-7 6-5.6-4-3.9-7.8 7.2-17-16.2 17-15.9 7.8 7.6 4-3.7-6-6 7-6.5-3.4-3.3zm0 32v24.8l-4-4.3v-4.8l-4.1-.2-3.4-3.6 3.4-3.3 4.2.2v-5zm-28.7 7.8.5 3.4-.5 3.4-3.6-3.5z"/><path fill="#faae29" d="M303.2 471.7v5.2l-10.7 9.8 3.4 3.3-7.1 6.5 4.3 4.3v-5l5.1.3v4.3l-13.5 12.4-6.2-.1-.7-3.7h4.7l-5.6-5.4-11.6 10.7 11.6 11 5.6-5.1-4.7-.1.7-3.8 6.2.2 13.5 13.4v4.4l-5.1-.3v-4.9l-4.3 4 7.1 7-3.4 3.1 10.7 10.6v5.2L287 543l3.4-3.1-7-7 6-5.6-4.7-4.7-7.8 7.2-16.3-15.5L277 499l7.8 7.6 4.7-4.4-6-6 7-6.5-3.4-3.3zm0 32v23.4l-3.5-3.8v-5.1l-4.4-.2-3-3 3-3 4.4.2v-5.1zm-29 8 .3 2.5-.4 2.4-2.5-2.5z"/><path fill="#383739" d="M303.2 597.3v6.6l-10 9.1 3.4 3.4-7.1 6.5 3.1 3v-4.2l6 .2v5L285 639.7l-7-.2-.8-4.6h4l-4.3-4.2-10.9 10 11 10.4 4.3-4-4-.2.7-4.6 7 .2 13.7 13.6v5l-6.1-.2v-4.2l-3.1 2.8 7.1 7-3.4 3.2 10 9.9v6.6l-16.8-16.8 3.3-3.1-7-7 6-5.6-4-4-7.8 7.2-17-16.2 17-15.8 7.8 7.6 4-3.7-6-6 7-6.6-3.4-3.3zm0 32v24.8l-4-4.3V645l-4.1-.1-3.4-3.7 3.4-3.3 4.2.2v-4.9zm-28.7 7.8.5 3.4-.5 3.4-3.6-3.5z"/><path fill="#faae29" d="M303.2 598v5.3l-10.7 9.7 3.4 3.3-7.1 6.5 4.3 4.3v-5l5.1.3v4.4L284.7 639l-6.2-.1-.7-3.7 4.7.1-5.6-5.5-11.6 10.7 11.6 11 5.6-5.1-4.7-.1.7-3.7 6.2.1 13.5 13.4v4.4l-5.1-.2v-5l-4.3 4 7.1 7-3.4 3.1 10.7 10.7v5.2l-16.2-16 3.4-3.2-7-7 6-5.6-4.7-4.7-7.8 7.3-16.3-15.6 16.3-15.2 7.8 7.6 4.7-4.3-6-6 7-6.6-3.4-3.3zm0 32v23.4l-3.5-3.7v-5.2l-4.4-.2-3-3 3-3 4.4.3v-5.2zm-29 8 .3 2.5-.4 2.4-2.5-2.4zM140.4 744.9c1 3.6 3.6 6 4.5 9.8 1.4-4.5 2.6-8 1.7-12.5-.9-3-3-5-3.6-8.1a12 12 0 0 0-2.7 10.8m-.7 16.1q3.9 4.4 9.6 6c-.5-3 .6-5.2 2.2-8 2-3.4 2.6-6 1.3-9.3q-1.2 2.8-2.8 5.2a18 18 0 0 0-3 7.8c-1.8-1.2-2.7-3-3.7-5a14 14 0 0 0-7-5.8c.8 3.3 1.5 6.5 3.4 9.1m13.8 7.8q-1 3-1 6-2.6-2.1-5.6-3.7c-2.7-1.6-5.6-2.7-7.8-5 .5 4.2 2 6.8 5.2 9 3.5 1.8 7.5 2.7 10.9 4.7-.4-3.6.8-6.7 2-10.3a9 9 0 0 0-2.2-8.7c0 2.8-.8 5.2-1.5 8M161 780c.8 2.7 2.6 4.7 4 7q-5.3-1.2-10-3.5c-4-1.5-8-2.2-11.7-4.3 2 6.4 6 9.1 12.5 10.2 4.3.5 8-.5 13.2.8q-.9-5.6-3.3-10.4-2.2-3.2-3.6-6.8a10 10 0 0 0-1.1 7m13.3 8.2q1.8 3 4.9 4.9c-5.2.7-9.2-1.6-14.2-1.2-3.1.4-6 1.7-9.2 2 3.8 2 7.6 3.5 12.2 3.6 5.9-.2 11.3-2.2 17.8-2.5-3-2-4.5-4.5-6.4-7.5-2.6-3.8-4.7-6-9.6-6.2 1.8 2 3 4.5 4.5 7m18.2 6.5c-9 2.5-17.7 5.5-27 7a47 47 0 0 0 30.3-3 35 35 0 0 1 14-4c6.2 0 13.3 2 21.7 10.5l3.2-2.8c-12-10.3-26.9-11.8-42.2-7.7"/><path fill="#faae29" d="M288.9 734.3c-1 3.8-3.7 6.6-4.6 10.5a22 22 0 0 1-1.7-12.1c.9-3.2 3.1-5.5 3.6-8.8 2.9 3 3.5 6.4 2.7 10.4m.7 16a25 25 0 0 1-9.6 7.6c.5-3.1-.6-5.2-2.2-7.7-1.9-3.2-2.6-5.6-1.3-9q1.2 2.3 2.8 4.6a15 15 0 0 1 3 7.4c1.8-1.5 2.7-3.5 3.7-5.6q2.5-4.4 7-6.9c-.8 3.4-1.5 6.7-3.4 9.6m-13.8 10q1 2.8 1 5.8 2.6-2.5 5.6-4.5c2.7-2 5.6-3.6 7.8-6.2-.4 4.2-2 7.1-5.2 9.7-3.5 2.4-7.5 3.9-10.9 6.5.4-3.8-.8-6.6-2-10.1q-1-5.1 2.2-9c0 2.8.8 5.1 1.5 7.7m-7.6 12.4c-.8 2.8-2.6 5-4 7.5q5.3-2 10-4.9c4-2 8-3.5 11.7-6.1-2 6.7-6 10.1-12.4 12.1-4.4 1.2-8 .7-13.3 2.8q.9-5.7 3.4-10.9 2-3.5 3.5-7.3a10 10 0 0 1 1.1 6.8M255 782.7q-1.8 3.3-4.9 5.5c5.2 0 9.3-2.8 14.3-3.2 3 0 6 .9 9.1.7a30 30 0 0 1-12.2 5.4c-5.9.6-11.3-.6-17.8 0 3-2.4 4.5-5.2 6.4-8.4 2.6-4.1 4.8-6.6 9.6-7.5-1.8 2.3-3 5-4.5 7.5m-18.1 9.1c9 1.3 17.6 3.1 26.8 3.3a45 45 0 0 1-30.2 1 32 32 0 0 0-14-2.1c-6.2.9-13.3 3.8-21.7 13.4l-3.2-2.3c12-12 27-15.3 42.3-13.3"/><path fill="#383739" d="m148.2 227.6-14.2-6.2V200l14.2-11.7V177l13.5-10.5 10.7-1.6 20.4-14.1q21.5-2.2 43.7-3l20.4 11.4h10.7l13.4 8.6V179l14.2 9.4v21.4l-14.2 8.5v11.3l-13.4 8H257L236.5 250q-21.6.7-43.7 2.8l-20.4-9.3-10.7 1.6-13.5-6z"/><path fill="#28ae66" d="m192.9 151.2-20.4 14.2-10.7 1.5-13 10.3v11.3l-14.3 11.7V221l14.2 6.2v11.4l13 5.9 10.8-1.6 20.3 9.4q21.5-2.2 43.6-2.9l20.4-12.1h10.7l13-7.9V218l14.3-8.4v-20.9l-14.2-9.3V168l-13.1-8.2h-10.7l-20.4-11.4q-21.4.7-43.6 2.8m1.3 4.3q20.2-2 41.1-2.8l20.4 11.4h10.7l9.9 6.2v11.3l14.2 9.3v16.2l-14.2 8.5v11.3l-10 6h-10.6L235.2 245q-20.2.6-41.1 2.7l-20.4-9.4-10.7 1.5-10-4.5V224l-14.1-6.3v-16.1L153 190v-11.3l10-7.7 10.6-1.5z"/><path fill="#faae29" d="M214.4 200.2v-46l-20.2 1.7-20.4 14.1-10.6 1.5-9.7 7.5v11.3l-14.2 11.5v7.6c25-5 49.9-8 75.6-9.7v45.9l20.2-1 20.4-12.2H266l9.6-5.8v-11.3l14.2-8.5v-7.6a752 752 0 0 0-75.5 1"/><path fill="#fff" d="M139.3 209.9v7.5l14.2 6.3V235l9.7 4.4 10.6-1.5 20.4 9.4 20.2-1.7v-45.9q37.3-2.3 75.5-1v-7.5l-14.2-9.3v-11.3l-9.6-6h-10.6L235 153.1l-20.2 1v46a573 573 0 0 0-75.6 9.7"/><path fill="#383739" d="m170.3 174.7-3.5-2.8-3.5 2.7 3.5 2.8-4.5 3.5 9.9-1.4 8.4 7 2.7-3.2-8.2-6.9V171z"/><path fill="#383739" d="m186.8 171.2-3.5-3-3.4 2.7 3.5 2.9-4.5 3.4 9.8-1.2 8.5 7.3 2.6-3.1-8.2-7.2v-5.4zm-17.7 13.3-3.5-2.9-3.5 2.7 3.5 2.9-4.5 3.5 9.8-1.4 8.5 7 2.7-3.2-8.2-7v-5.3z"/><path fill="#383739" d="m214.6 153.8-8.8.6-4.6 5-9 .8-6.7 4.3 1.5 3.7 6-3.9 2.6-.2 9 10 10-7z"/><path fill="#ca3745" d="m166.8 172.5 3 2.5-2.5 2-3.2-2.5zm7.8-.5v4.7l8 6.7-2 2.5-8.2-6.9-8.4 1.2zm8.7-3.2 3.1 2.7-2.6 2-3.2-2.7zm7.9-.3v4.8l8 7-2 2.4-8.3-7.2-8.4 1z"/><path fill="#ca3745" d="m165.5 182.3 3.2 2.5-2.7 2-3.1-2.5zm8-.6v4.7l8 6.8-2.1 2.4-8.3-6.9-8.3 1.3zm40.9-27.4-8.4.6-4.6 5-9.1.8-6.2 4 1.2 2.8 5.6-3.6 2.9-.3 9 9.9 9.6-6.7z"/><path fill="#383739" d="m170.3 234.1-3.5 3.9-3.5-1.7 3.5-3.9-4.5-2.1 9.9-1.5 8.4-9.2 2.7 2.6-8.2 9v5.3z"/><path fill="#383739" d="m186.8 233.6-3.5 3.7-3.4-1.8 3.5-3.8-4.5-2.3 9.8-1.1 8.5-9 2.6 2.7-8.2 8.7v5.4zm-17.7-8.9-3.5 3.9-3.5-1.7 3.5-3.9-4.5-2.1 9.8-1.5 8.5-9.2 2.7 2.6-8.2 9v5.3z"/><path fill="#383739" d="m214.6 246.1-8.8.6-4.6-4.2-9 .9-6.7-2.8 1.5-4 6 2.5 2.6-.3 9-11.6 10 5.5z"/><path fill="#ca3745" d="m166.8 237.4 3-3.5-2.5-1.3-3.2 3.5zm7.8-1.7V231l8-8.8-2-2-8.2 9.1-8.4 1.2zm8.7 1 3.1-3.4-2.6-1.3-3.2 3.3zm7.9-1.4v-4.8l8-8.5-2-2-8.3 8.8-8.4 1z"/><path fill="#ca3745" d="m165.5 228 3.2-3.5-2.7-1.3-3.1 3.5zm8-1.7v-4.7l8-8.8-2.1-2-8.3 9-8.3 1.3zm40.9 19.3-8.4.6-4.6-4.1-9.1.8-6.2-2.6 1.2-3.1 5.6 2.4 2.9-.3 9-11.5 9.6 5.3z"/><path fill="#383739" d="m164.4 190.6-4.2-1-.1.1-5.5 4.8v1l-8.7 12.9 8.7 9.7v1l5.6 3.1 4.2-2.2-2.6-1.4v-3.3l1-1.4 4.6-.7v-16.7l-4.5.7-1-1.1v-3.3z"/><path fill="#ca3745" d="m155.1 194.7 5.2-4.5 3 .7-2 1.7v3.7l1.3 1.4 4.4-.7v15.8l-4.4.6-1.2 1.8v3.7l2 1-3.2 1.8-5-2.8v-1l-8.7-9.6 8.6-12.7z"/><path fill="#383739" d="m259 168.8 3.5-3.4 3.4 2.2-3.5 3.3 4.5 3-9.8-.1-8.4 8.3-2.7-3 8.2-8v-5.4z"/><path fill="#383739" d="m242.4 167.5 3.5-3.4 3.5 2.1-3.5 3.4 4.5 2.8-9.8.2-8.5 8.4-2.7-2.8 8.2-8.2v-5.4zm17.8 10.8 3.5-3.3 3.4 2.2-3.5 3.3 4.5 3-9.8-.1-8.4 8.2-2.7-2.9 8.2-8v-5.4z"/><path fill="#383739" d="m214.6 153.8 8.9-.6 4.6 4.4 9-.4 6.7 3.4-1.5 4-6-3.1h-2.6l-9.1 11.3-10-5.6z"/><path fill="#ca3745" d="m262.5 166-3.1 3 2.6 1.7 3.2-3zm-7.9.6v4.7l-8 7.9 2 2.2 8.3-8h8.4zm-8.6-2-3.1 3.2 2.6 1.6 3.1-3zm-7.9.8v4.8l-8 8 2 2.2 8.3-8.3 8.3-.2z"/><path fill="#ca3745" d="m263.7 175.6-3.1 3 2.6 1.7 3.2-3zm-7.8.6v4.7l-8 7.8 2 2.2 8.2-8h8.4zm-41-22 8.4-.5 4.6 4.4 9.1-.4 6.2 3.1-1.2 3-5.6-2.8-3 .1-9 11-9.5-5.4z"/><path fill="#383739" d="m259 228.2 3.5 3.3 3.4-2.2-3.5-3.3 4.5-2.8h-9.8l-8.4-8.1-2.7 3 8.2 7.8v5.4z"/><path fill="#383739" d="m242.4 229.9 3.5 3.2 3.5-2.2-3.5-3.3 4.5-3-9.8.3-8.5-8-2.7 3.1 8.2 7.7v5.3zm17.8-11.3 3.5 3.3 3.4-2.1-3.5-3.4 4.5-2.8h-9.8l-8.4-8.1-2.7 3 8.2 7.8v5.4z"/><path fill="#383739" d="m214.6 246.1 8.9-.5 4.6-4.8 9-.4 6.7-3.7-1.5-3.8-6 3.3-2.6.1-9.1-10.4-10 6.8z"/><path fill="#ca3745" d="m262.5 231-3.1-3 2.6-1.8 3.2 3zm-7.9-.6v-4.8l-8-7.6 2-2.3 8.3 8h8.4zm-8.6 2.1-3.1-3 2.6-1.6 3.1 3zm-7.9-.3v-4.8l-8-7.4 2-2.3 8.3 7.7 8.3-.2z"/><path fill="#ca3745" d="m263.7 221.3-3.1-3 2.6-1.6 3.2 3zm-7.8-.5V216l-8-7.7 2-2.3 8.2 8h8.4zm-41 24.8 8.4-.5 4.6-4.8 9.1-.3 6.2-3.5-1.2-3-5.6 3.2-3 .1-9-10.3-9.5 6.6z"/><path fill="#383739" d="m264.9 183.8 4.2-1.6 5.5 4v1l8.8 11.6-8.8 11v1.1l-5.5 3.9-4.2-1.7 2.5-1.7v-3.3l-1-1.3H262v-16.7h4.5l1-1.2v-3.3z"/><path fill="#ca3745" d="m274.2 186.5-5.2-3.8-3.1 1.2 2 1.4v3.8l-1.3 1.5h-4.3v15.7h4.3l1.3 1.6v3.8l-2 1.3 3.1 1.2 5.2-3.5v-1l8.6-11-8.6-11.3z"/><path fill="#383739" d="m157 216-2.5-1.8v-1l-5-5.5 5-7.2v-1l2.4-2.5 4.3 2.8-2.5.4 3.7 3.2 8.3-1.2 6.5-6.1v-13.8l16.4-1.9 19-13.5v-3.1l-3-1.8h-.9l-3.1 2.5-.5 1.6-2.5-3.2 4.8-4.6h.8l5.4-4.5 2-.1 5.5 3.8h.7l4.9 3.8-2.5 3.6-.5-1.6-3.2-2h-.9l-2.9 2.2v3.1l19 11 16.4-.3V191l6.5 5.2h8.3l3.6-3.7h-2.4l4.3-3.5 2.3 2.1v1l5.1 6.5-5 6.3v1l-2.4 2-4.3-3.6h2.4l-3.6-3.8h-8.3l-6.5 5.3v13.8l-16.4.4-19 12.9v3l3 1.9h.8l3.2-2.4.5-1.6 2.5 3.3-4.9 4.4h-.7l-5.4 4.4-2 .2-5.5-3.7h-.8l-4.8-3.7 2.5-3.7.5 1.6 3.1 2 1-.2 2.9-2.1v-3.2l-19-10.3-16.4 1.8V211l-6.5-4.4-8.3 1.3-3.7 4.3 2.5-.4z"/><path fill="#faae29" d="m214.9 238.6 2 1.5-2 1.7zm-6.6 3.4 5.5 3.7h.6v-3.2l-2.8-2 2.8-2.5v-6l-20.3-11-15 1.7v-12.9l-7.8-5.2-11.7 1.8-3 3.8-2.9-2.9-3.5.6 4.8 5.2v1l1.9 1.3 3-2.9-1.7.3v-.6l4-4.8 8.6-1.3 6.9 4.6v13.6l16-1.8L213 233v3.7l-3.2 2.4-1.2.1-3.4-2-.3-1-1.7 2.5 4.4 3.4zm-51.6-38.4 2.3 2.3-4.7.7zm57.7-45.6-2 1.8 2 1.5zm55.9 40.8 2.3 2.7 2.3-2.7zm-49.4-40.9-5.4-3.7h-.6v3.2l2.8 2-2.8 2.5v6l20.3 11.7 15-.4v12.9l7.8 6.1h11.7l3-3.3 2.9 3.5h3.4l-4.7-6v-1l-2-1.7-3 2.4h1.8v.6l-4 4.1h-8.7l-6.8-5.5v-13.5l-16 .3-19.4-11.2v-3.6l3.3-2.4 1.2-.1 3.4 2.2.3.8 1.6-2.4-4.3-3.5z"/><path fill="#fff" d="m214.4 241.9-2-1.5 2-1.8zM159 206.4l-2.3 3-2.4-2.3zm62 34.7-5.5 4.5h-.6v-3.2l2.8-2.4-2.8-2v-6l20.3-13.8 15-.4V205l7.8-6.3h11.7l3 3.5 2.9-3.4 3.4.1-4.7 5.9v1l-2 1.6-3-2.5h1.8v-.5l-4-4.2h-8.7l-6.8 5.5v13.6l-16 .3-19.4 13.1v3.7l3.3 2h1.2l3.4-2.6.3-.9 1.6 2.2-4.3 4zm51.6-45.5-2.3 2.7h4.6zm-64.3-36.8 5.5-4.5h.6v3.1l-2.8 2.5 2.8 2v6l-20.3 14.4-15 1.7v12.8l-7.8 7.2-11.7 1.8-3-3-2.9 4-3.5.5 4.8-6.7v-1l1.9-2 3 2-1.7.2v.6l4 3.5 8.6-1.2 6.9-6.4v-13.6l16-1.8 19.3-13.8v-3.6l-3.2-2-1.2.1-3.4 2.6-.3.9-1.6-2.2 4.3-4zm6.6 2.5 2-1.8-2-1.5z"/><path fill="#28ae66" d="M214.4 200.2v-31.8l-20.2 14.4-14.7 1.6V197l-7.4 7q21-3 42.8-4.3v31.7l20.2-13.7 14.7-.3v-12.6l7.4-6a716 716 0 0 0-42.8 1.4"/><path fill="#ca3745" d="m172 204.4 7.5 5V222l14.7-1.6 20.2 11v-31.7q21.1-1.4 42.8-1.5l-7.4-5.9v-12.6l-14.7.4-20.2-11.7v31.7a622 622 0 0 0-42.8 4.3"/><path fill="#383739" d="m192.9 186.3-3.5-3-3.5 2.6 3.5 3-4.5 3.3 9.9-1 8.4 7.4 2.7-3.1-8.2-7.3v-5.4zm43.5 28 3.5 3.2 3.4-2.3-3.5-3.2 4.5-3-9.8.3-8.4-7.8-2.7 3 8.2 7.6v5.4zm-43.5 2.8-3.5 3.7-3.5-1.8 3.5-3.7-4.5-2.4 9.9-1 8.4-9 2.7 2.8-8.2 8.6v5.4zm43.5-33.6 3.5-3.5 3.4 2.1-3.5 3.5 4.5 2.7-9.8.3-8.4 8.5-2.7-2.8 8.2-8.3v-5.4z"/><path fill="#ca3745" d="m240 216.9-3.2-3 2.6-1.7 3.1 3zm-8-.3v-4.7l-8-7.4 2-2.4 8.3 7.7 8.4-.3zM189.3 184l3.2 2.6-2.6 2-3.2-2.7zm8-.3v4.8l8 7-2.1 2.4-8.2-7.2-8.4.9z"/><path fill="#28ae66" d="m240 180.6-3.2 3.1 2.6 1.6 3.1-3zm-8 .8v4.8l-8 8 2 2.2 8.3-8.3 8.4-.2zm-42.7 38.8 3.2-3.3-2.6-1.4-3.2 3.3zm8-1.3V214l8-8.4-2.1-2-8.2 8.7-8.4.8z"/><path fill="#383739" d="m236.4 198.9-21.8 15.9-21.7-13 21.7-16.7z"/><path fill="#fff" d="m214.4 185.9-20.3 15.5q20.3-2 41-2.7L215 185.8V214l20.3-14.9q-20.3.8-41 2.7l20.2 12.2z"/><path fill="#383739" d="M220.4 204.7v4l-11.6.8v-4l-7.5.5v-10.2l7.5-.6v-4l11.6-.8v4l7.6-.3v10.2z"/><path fill="#ca3745" d="M209.3 191.6v4l-7.5.7v4.4l12.6-1v-8.4zm5.6 8 12.6-.6v-4.4l-7.5.4v-4l-5.1.2zm-13.1 1.5v4.4l7.5-.6v4l5.1-.3v-8.4zm13 7.5 5.2-.3v-4l7.5-.5v-4.3l-12.6.7z"/><path fill="#383739" d="M251.7 367.4V361h17.5v-6.6l17.4.4v-59l-17.4-.4v-6.5h-17.5v-6.5l-17.5.4v-6.5q-19.3.7-39.1 2.6v6.5l-17.5 2v6.5l-17.5 2.4v6.6l-17.5 3v59l17.5-3v6.5l17.5-2.5v6.6l17.5-2v6.5q19.3-1.8 39.1-2.5v-6.6z"/><path fill="#ca3745" d="M195.6 279.2v6.5l-17.5 2v6.5l-17.5 2.4v6.5l-17.5 3v58.2l17.5-3v6.4l17.5-2.4v6.5l17.5-2v6.6q18.8-1.8 38.1-2.5v-6.5l17.5-.5v-6.5h17.5v-6.5l17.5.3v-58l-17.5-.4v-6.5h-17.5v-6.5l-17.5.4v-6.5q-18.8.6-38.1 2.5m4.6 4.3q14.2-1.2 28.9-2v6.6l17.5-.5v6.5l17.5-.1v6.5l17.5.3v48.5l-17.5-.2v6.5l-17.5.1v6.6l-17.5.5v6.5q-14.1.6-28.9 2v-6.6l-17.5 1.8V360l-17.5 2.3v-6.5l-17.5 2.9V310l17.5-3v-6.4l17.5-2.4v-6.5l17.5-1.8z"/><path fill="#ca3745" d="M183.2 366v-6.5l-17.5 2.3v-6.6l-17.5 2.9v-47.6l17.5-2.9v-6.5l17.5-2.3v-6.5l17.4-1.8v-6.6a678 678 0 0 1 28-1.8v6.5l17.5-.5v6.5l17.5-.1v6.5l17.5.3v47.5l-17.5-.2v6.5l-17.5.2v6.5l-17.5.6v6.5q-13.7.6-28 1.8v-6.5z"/><path fill="#383739" d="m187.2 296.6-4.5-3v6.8l-4.3 3.3v-4.2l-4.2 4.4-4.2-3.3v4.2l-4.8-2.4v6.2l-3.9 3.5v-3.8l-4.6 4.1-4.6-2.6v3.8l-4.4-2.4V330l-5 1v8.5l5-1v19l4.4-4v3.8l4.6-4.2 4.6 2.7V352l4 2.3v6.2l4.7-3.8v4.2l4.2-4.4 4.2 3.3v-4.2l4.3 2.3v6.7l4.5-4v4.7l4.5-4.5 4.4 3.6v-4.7l4 2.7v7.2l6.1-6.1v6.6l8.4-6.1 8.4 5v-6.6l6.1 5.3v-7.2l4-3.3v4.7l4.5-4.2 4.4 4V357l4.6 3.4v-6.8l4.3-2.9v4.3l4.2-4 4.1 3.9v-4.2l4.9 3.1v-6.2l3.8-2.9v3.8l4.7-3.3 4.6 3.5V345l4.3 3.3v-19l5.1.2V321l-5-.1v-19l-4.4 3.2v-3.8l-4.6 3.3-4.6-3.5v3.8l-4-2.9v-6.2l-4.7 3.1v-4.2l-4.2 3.9-4.2-3.8v4.2l-4.3-2.8v-6.7L242 293v-4.7l-4.5 4.2-4.4-4v4.8l-4.1-3v-7.2l-6 6v-6.7l-8.5 6-8.4-4.9v6.7l-6-5.2v7.2l-4 3.5-.1-4.7-4.4 4.5-4.5-3.6z"/><path fill="#28ae66" d="M152.6 314.5v-3.8l4.1 2.3.2-.1 4-3.6v3.8l4.3-3.9v44.6l-4.3-2.6v3.8l-4.2-2.4-4.1 3.8v-3.8l-4.4 4V338l-5.1 1v-7.7l5.1-1V312zm35.1-21.6 4 3.3 4-4v4.5l4.5-3.9V362l-4.6-3v4.6l-4-3.3-3.9 4v-4.5l-4.5 4v-69.1l4.5 3zm53.9-3.5-4 3.7-4-3.5v4.6l-4.5-3.3V360l4.5-3.6v4.6l4-3.8 4 3.5v-4.6l4.5 3.4v-69.1l-4.5 3.6zm35.1 16.5v-3.8l-4.1 3-.2-.1-4-3v3.8l-4.3-3.3v44.6l4.3-3.2v3.8l4.2-3 4.1 3.1V344l4.4 3.3V329l5 .1v-7.6l-5-.2v-18.4z"/><path fill="#faae29" d="m170.5 301.6 3.7 3 3.7-4v4l4.8-3.7v56.5l-4.8-2.5v4l-3.7-3-3.7 4v-4l-4.8 3.8v-56.5l4.8 2.4zm36.2-10.4-6-5.1v82.5l6-6.2v6.9l8-5.8 7.9 4.7v-6.8l6 5.4v-82.6l-6 6v-6.9l-8 5.7-7.9-4.6zm52 4.5-3.6 3.4-3.7-3.4v4l-4.8-3v56.5l4.8-3.2v4l3.7-3.5 3.7 3.4v-4l4.8 3.1v-56.4l-4.8 3z"/><path fill="#383739" d="M154.8 325q.8.7 2 .5.9-.2 1.8-1c1.5-2.3 1.7-5 1.7-7.4l-2.3 2.8-1.3-2.1-1.3 2.5-2.3-2c0 2.4.1 5 1.7 6.7m18.3-7.5-1.4-1.3v-2.8l-3.2 3.5 5.7 5 5.7-6.5-3.2-2.7v2.9l-1.4 1.6v-5l2.5-2.6-3.6-2.7-3.6 3.7 2.5 1.8zm17.4-7.8-1.4-1.3v-2.8L186 309l5.8 5.3 5.7-6.5-3.2-2.7v2.8l-1.4 1.6v-5l2.5-2.5-3.6-2.8-3.6 3.6 2.4 1.9z"/><path fill="#fff" d="m156.7 318.8 1.2 2 1.9-2.4q-.2 3.9-1.5 5.7-.7.8-1.6 1-.8.1-1.5-.5-1.5-1.4-1.6-5.2l1.9 1.7zm35.6-14.5v6.4l2.4-2.6v-2l2 1.8-5 5.7-5.1-4.7 2-2.2v2l2.4 2.1v-6.4l-2.2-1.7 2.9-2.9 2.9 2.3z"/><path fill="#ca3745" d="M174.9 312v6.4l2.3-2.7v-2l2 1.8-5 5.8-5-4.5 2-2.3v2l2.3 2v-6.4l-2.2-1.6 2.9-3 2.9 2.2z"/><path fill="#383739" d="M274.5 316.8q-.9.8-2 .8-1 0-1.8-.9c-1.6-1.9-1.7-4.6-1.7-7l2.3 2.5 1.3-2.3 1.3 2.3 2.3-2.4c0 2.4-.2 5.1-1.8 7m-18.2-5 1.4-1.3v-2.9l3.2 3-5.7 6-5.8-5.9 3.3-3v2.8l1.4 1.4v-5l-2.5-2.2 3.6-3.2 3.6 3.2-2.5 2.1zm-17.5-5.3 1.4-1.4v-2.9l3.3 3-5.8 6-5.7-5.7 3.2-3.1v2.8l1.4 1.4v-5l-2.5-2.1 3.6-3.3 3.6 3-2.5 2.3z"/><path fill="#fff" d="m272.6 310.8-1.3 2.2-1.8-2q0 3.8 1.5 5.4.7.7 1.6.7.8 0 1.5-.6 1.4-1.6 1.6-5.5l-1.9 2zm-35.7-9.5v6.4l-2.3-2.3v-2l-2 2.1 5 5 5-5.3-2-1.9v2l-2.3 2.4v-6.4l2.2-2-2.9-2.5-2.9 2.6z"/><path fill="#ca3745" d="M254.4 306.6v6.5l-2.3-2.4v-2l-2 2 5 5.2 5-5.2-2-2v2l-2.4 2.4v-6.5l2.3-2-3-2.5-2.8 2.6z"/><path fill="#383739" d="m221.5 309.4-1.9-2.5 4.9-4.9-4.6-3.5v2.7l-1.8 1.7v-4.8l4.2-3.5-7.7-5.3-7.7 6.3 4.3 3v4.8l-1.9-1.5v-2.7l-4.5 4.1 4.8 4.2-1.8 2.8z"/><path fill="#ca3745" d="m208.7 309.8 1.6-2.4-4.8-4.1 3.4-3v1.8l2.8 2.3v-6.2l-4-2.6 7-5.7 6.8 4.8-3.9 3.2v6.1l2.8-2.6v-2l3.3 2.7-4.7 4.7 1.6 2.2z"/><path fill="#383739" d="m211.1 295.3 3.5 2.4 3.6-2.8-3.6-2.5-.1.1z"/><path fill="#28ae66" d="m214.6 293 2.8 2-2.8 2.1-2.7-1.8z"/><path fill="#383739" d="M154.8 341.3q.8-1 2-1.2 1-.1 1.8.5c1.6 1.7 1.7 4.4 1.7 6.8l-2.3-2-1.3 2.5-1.3-2.2-2.3 2.9c0-2.4.2-5.2 1.7-7.4m18.3 2.1-1.4 1.6v2.9l-3.2-2.6 5.7-6.7 5.7 5.2-3.2 3.4v-2.9l-1.4-1.2v5l2.5 2-3.6 3.5-3.6-2.6 2.5-2.6zm17.4 3.6-1.4 1.6v2.8l-3.2-2.7 5.8-6.5 5.7 5.3-3.2 3.4v-2.9l-1.4-1.2v5l2.5 2-3.6 3.5-3.6-2.8 2.4-2.5z"/><path fill="#fff" d="m156.7 346.9 1.2-2.4 1.9 1.7q-.2-3.7-1.5-5.2-.7-.6-1.6-.4-.8.1-1.5 1-1.5 1.7-1.6 5.7l1.9-2.4zm35.6 5v-6.4l2.4 2.2v2l2-2.2-5-4.7-5.1 5.7 2 1.8v-2l2.4-2.6v6.4l-2.2 2.2 2.9 2.2 2.9-2.8z"/><path fill="#ca3745" d="M174.9 348.3V342l2.3 2v2l2-2.2-5-4.5-5 5.9 2 1.6v-2l2.3-2.6v6.4l-2.2 2.3 2.9 2.1 2.9-2.9z"/><path fill="#383739" d="M274.5 333q-.9-.8-2-.8-1 0-1.8.8c-1.6 1.9-1.7 4.6-1.7 7l2.3-2.4 1.3 2.3 1.3-2.3 2.3 2.5c0-2.4-.2-5.1-1.8-7m-18.2 4.6 1.4 1.4v2.9l3.2-3-5.7-6-5.8 6 3.3 3v-2.8l1.4-1.5v5l-2.5 2.3 3.6 3.1 3.6-3.2-2.5-2.1zm-17.5 6 1.4 1.4v2.8l3.3-3-5.8-5.8-5.7 6 3.2 3v-2.9l1.4-1.4v5l-2.5 2.3 3.6 3 3.6-3.2-2.5-2.2z"/><path fill="#fff" d="m272.6 339-1.3-2.2-1.8 2q0-3.9 1.5-5.5.7-.6 1.6-.7.8 0 1.5.7 1.4 1.8 1.6 5.6l-1.9-2zm-35.7 10v-6.4l-2.3 2.5v2l-2-2 5-5.3 5 5-2 2v-2l-2.3-2.3v6.5l2.2 1.9-2.9 2.6-2.9-2.4z"/><path fill="#ca3745" d="M254.4 343v-6.4l-2.3 2.4v2l-2-2 5-5.2 5 5.1-2 2v-2l-2.4-2.3v6.4l2.3 2-3 2.5-2.8-2.5z"/><path fill="#383739" d="m221.5 342.3-1.9 2.7 4.9 4.3-4.6 4v-2.6l-1.8-1.6v5l4.2 2.9-7.7 6.2-7.7-5.2 4.3-3.5v-4.9l-1.9 1.8v2.7l-4.5-3.5 4.8-4.9-1.8-2.5z"/><path fill="#ca3745" d="m208.7 343.6 1.6 2.1-4.8 4.8 3.4 2.6v-1.9l2.8-2.7v6.2l-4 3.2 7 4.7 6.8-5.6-3.9-2.7V348l2.8 2.3v2l3.3-3-4.7-4.3 1.6-2.3z"/><path fill="#383739" d="m211.1 357.7 3.5-3 3.6 2.5-3.6 2.9-.1-.1z"/><path fill="#28ae66" d="m214.6 359.5 2.8-2.2-2.8-2-2.7 2.3z"/><path fill="#383739" d="m276.9 322.2-7.7-.1v-3.2l-23.6.2-16.3-10.6h-.1q-14.4.7-29.2 2l-16.4 12.7q-11.5 1.4-23.5 3.2v3.1l-7.7 1.3v5.5l7.7-1.3v3.2q11.6-1.9 23.5-3.2l16.4 9.3q14.4-1.3 29.3-2l16.3-11.5h23.6v-3.2l7.7.1z"/><path fill="#ca3745" d="m200.1 311-16.3 12.6q-11.4 1.4-23.2 3.2v3.1l-7.7 1.3v4.5l7.7-1.2v3.1q11.4-1.8 23.2-3.1l16.3 9.3q14.3-1.2 29-1.9l16.4-11.5 23.2-.2v-3.1l7.7.1v-4.6h-7.7v-3.2l-23.2.1-16.3-10.4q-14.3.6-29 1.9m.3 1.5q13.9-1.2 28.3-1.8l15 9.6v1.5l16.7-.2v6.4l-16.7.2v1.5l-15 10.6q-14 .6-28.3 1.8l-15-8.5v-1.5l-16.7 2.1v-6.4l16.8-2.1V324z"/><path fill="#ca3745" d="m228.6 311.2 14.7 9.3v1.8l16.7-.2v5.4l-16.7.2v1.8l-14.7 10.3q-13.7.6-28 1.8l-14.6-8.3v-1.8l-16.8 2.1v-5.4L186 326v-1.8l14.6-11.3q13.8-1.2 28-1.8"/><path fill="#383739" d="m193.4 333.6 6.3 4.3 4.2-3.6-2.5-1.7-1.7 1.5-1.5-1 23.9-20-4.9.2zm13.8 6 4.8-.4 23.9-19.6-6.3-4.6-4.2 3.4 2.4 1.7 1.8-1.4 1.4 1.1zm10-.8 4.9-.2-23.9-16.6 1.5-1.3 1.8 1.2 2.4-2.1-4.2-2.8-6.3 5.4zm13.9-7.8-1.5 1.2-1.8-1.3-2.4 2 4.2 3 6.3-5.1-23.9-17.1-4.8.3zm-42.5-2.5 4.2 2.5 4.3-3.4-4.3-2.4z"/><path fill="#383739" d="m210.4 326.6 4.2 2.6 4.3-3.2-4.3-2.6zm30.3-1.5-4.3 3-4.2-2.8 4.2-3z"/><path fill="#faae29" d="m235.1 330.8-5.5 4.5-3.4-2.4 1.6-1.4 1.8 1.3 2.2-1.8-23.2-16.6 3.3-.2zm-14.4 7.4-3.3.2-23.2-16 5.5-4.8 3.4 2.3-1.6 1.4-1.8-1.2-2.3 2zm-8.8.5-3.3.3 23.2-19.2-2.2-1.7-1.8 1.4-1.6-1.1 3.4-2.8 5.5 4zm5.5-24.9 3.3-.2-23.3 19.6 2.3 1.5 1.8-1.4 1.6 1-3.4 3-5.5-3.8z"/><path fill="#28ae66" d="m192.8 325.8 3.4 2-3.4 2.6-3.4-2zm21.8-1.9 3.4 2.2-3.4 2.5-3.4-2.1zm21.8-1-3.4 2.4 3.4 2.2 3.4-2.4z"/><path fill="#383739" d="m139.8 457.4-1.7 2.8 3 1.8-3 2.9 1.7 2 3.4-.2 3.4-3.3 8.4 4V463l-5.3-2.6 5.3-4.3v-4.5l-8.4 6.9-3.4-2z"/><path fill="#383739" d="m139.8 441.7-1.7 2.7 3 1.8-3 3 1.7 2 3.4-.3 3.4-3.2 8.4 4V447l-5.3-2.5 5.3-4.4v-4.5l-8.4 7-3.4-2.1zm0 41-1.7-2 3-3-3-1.7 1.7-2.8 3.4-1 3.4 2 8.4-7v4.6l-5.3 4.3 5.3 2.6v4.5l-8.4-4-3.4 3.3zM289.5 447l1.7 2.5-3 2.2 3 2.4-1.7 2.4-3.5.3-3.3-2.8-8.4 5.3v-4.5l5.2-3.3-5.2-3.6v-4.5l8.4 5.6 3.3-2.6z"/><path fill="#383739" d="m289.5 431.1 1.7 2.5-3 2.2 3 2.5-1.7 2.3-3.5.3-3.3-2.7-8.4 5.3v-4.6l5.2-3.3-5.2-3.6v-4.5l8.4 5.7 3.3-2.6zm0 41 1.7-2.3-3-2.4 3-2.3-1.7-2.5-3.5-.5-3.3 2.6-8.4-5.7v4.6l5.2 3.5-5.2 3.4v4.5l8.4-5.3 3.3 2.8zM256 403.4v6.6h4.6v2.9h4.6v-5.3h-4v-4.2zm13.7 10.4v6.6h4.7v3h4.5v-5.2l-4-.1v-4.2zm-96.2-4.8v6.5l-4.7.7v2.9l-4.5.6v-5.2l4-.6v-4.2zm82.5 90v-6.5h4.6v-3h4.6v5.4h-4v4.1zm-82.5 5.6V498l-4.7.7v-3l-4.5.7v5.3l4-.6v4.2zm96.2-15.9v-6.5h4.7v-2.9l4.5.1v5.3h-4v4.1zm-110-67.4v6.6l-4.6.7v3l-4.6.7V427l4.1-.7V422zm0 75v-6.6l-4.6.7v-2.9l-4.6.8v5.3l4.1-.7v4.2zm72.3-92.5-3.6-3.3-3.5 3.4 3 3-3.9 4 5.9-.3 2-2.1 2.2 2 5.8-.2-4-3.8 3.1-3.1-3.5-3.2zm-17.3 1-3.5-3.4-3.5 3.6 3 2.8-3.9 4.2 5.8-.4 2.1-2.2 2.1 2 5.9-.4-4-3.7 3-3.2-3.4-3.1zm-17.2 1.3 3.6-3.9 3.5 3-3 3.3 3.8 3.6-5.8.5-2-1.9-2.2 2.3-5.8.6 4-4.3-3.1-2.7 3.5-3.7zm34.5 93.6-3.6 3.7-3.5-3.1 3-3.2-3.9-3.7 5.9-.3 2 2 2.2-2.2 5.8-.1-4 4 3.1 3-3.5 3.3zm-17.3 1-3.5 3.7-3.5-3 3-3.3-3.9-3.6 5.8-.4 2.1 2 2.1-2.3 5.9-.3-4 4 3 3-3.4 3.5zm-17.2 1.3 3.6 3.2 3.5-3.6-3-2.8 3.8-4.2-5.8.5-2 2.3-2.2-2-5.8.7 4 3.5-3.1 3.3 3.5 3z"/><path fill="#28ae66" d="M154.5 463.2v3.4l-8-3.8-3.4 3.4-3 .3-1.4-1.6 3.2-3.1-3.2-1.8 1.3-2.2 3.1-1 3.5 2.2 8-6.6v3.4l-5.8 4.7zm0-15.7v3.4l-8-3.8-3.4 3.4-3 .2-1.4-1.6 3.2-3-3.2-1.9 1.3-2.1 3.1-1 3.5 2.1 8-6.5v3.4l-5.8 4.6zm0 24v-3.3l-8 6.6-3.4-2.2-3 1-1.4 2.1 3.2 1.9-3.2 3 1.3 1.6 3.1-.2 3.5-3.4 8 3.8V479l-5.8-2.7zM274.7 455v3.5l8-5 3.5 2.8 3-.3 1.3-1.8-3-2.5 3-2.4-1.2-1.9-3.1-.5-3.5 2.7-8-5.4v3.4l5.7 3.9zm0-15.7v3.4l8-5 3.5 2.8 3-.2 1.3-1.8-3-2.6 3-2.3-1.2-2-3.1-.4-3.5 2.6-8-5.3v3.4l5.7 3.8zm0 24.1V460l8 5.4 3.5-2.7 3 .5 1.3 1.9-3 2.3 3 2.6-1.2 1.8-3.1.3-3.5-2.9-8 5v-3.4l5.7-3.6zm-14.1-59.5v4.2h4v4.3H261v-2.9h-4.6v-5.6zm13.7 10.5v4.1l4 .1v4.3h-3.6v-3h-4.6v-5.6zM168.7 410v4.2l-4 .6v4.3l3.6-.5v-3l4.6-.6v-5.6zm91.9 88.4v-4.1h4V490H261v2.8h-4.6v5.7zm-91.9 6.2v-4.1l-4 .5v-4.3l3.6-.5v2.9l4.6-.6v5.5zm105.6-16.4V484l4 .1v-4.3h-3.6v2.8h-4.6v5.6zM155 422.5v4.2l-4.1.7v4.3l3.6-.7v-2.9l4.7-.7v-5.6zm0 74v-4.3l-4.1.7v-4.3l3.6-.6v2.9l4.7-.8v5.6zm73.3-95.5 3.6 3.4 3.5-3.7 2.8 2.6-3 3.1 3.4 3.3-4.4.2-2.3-2.2-2.3 2.4-4.5.2 3.4-3.6-3-2.9zm-17.2 1 3.5 3.3 3.6-3.8 2.8 2.6-3 3.1 3.4 3.3-4.5.2-2.3-2.1-2.2 2.4-4.5.4 3.4-3.7-3-2.8zm-10.1.8-3.6 3.9-3.6-3.2-2.8 3 3 2.6-3.4 3.8 4.5-.4 2.3-2.5 2.3 2 4.5-.4-3.5-3 3-3.4zm27.3 99.9 3.6-3.7 3.5 3.4 2.8-2.8-3-2.9 3.4-3.5-4.4.1-2.3 2.4-2.3-2.2-4.5.2 3.4 3.3-3 3.1zm-17.2 1 3.5-3.8 3.6 3.3 2.8-2.8-3-2.9 3.4-3.6-4.5.3-2.3 2.4-2.2-2.1-4.5.3 3.4 3.2-3 3.2zm-10.1.8-3.6-3.3-3.6 4-2.8-2.5 3-3.3-3.4-3 4.5-.5 2.3 2 2.3-2.4 4.5-.4-3.5 3.7 3 2.8z"/><path fill="#383739" d="M168.3 488.8V499c30.6-4.4 61.2-6.2 92.7-6.3v-10.3l13.7.1V420l-13.7-.1v-10.4c-30.6 0-61.2 1.8-92.7 6.3V426l-13.8 2.1V491z"/><path fill="#ca3745" d="M168.8 416v10.4l-13.8 2.1v61.8l13.8-2.1v10.3c30.3-4.3 60.5-6.1 91.7-6.2V482l13.8.1v-61.8l-13.8-.1v-10.3c-30.3 0-60.5 1.8-91.7 6.2m5.9 3.1c26.4-3.4 52.7-5 80-5.3v10l3.2 2.4h12.5V476h-12.5l-3.3 2.4v10c-26.4.3-52.7 1.8-80 5.4v-10l-3.2-2-12.6 1.8V434l12.5-1.9 3.4-2.9z"/><path fill="#ca3745" d="M175.1 419.7v9l12-10.5zm67-5.1 12 8.9v-9.1zm-82.7 19.8v8.5l11.3-10.2zm99.1-7.6 11.4 8.6v-8.6zm11.4 40-11.4 8.7H270zm-110.5 7.7v8.6l11.3-1.7zM175 484v9.1l12-1.4zm79-5.3-12 9.3 12-.2z"/><path fill="#28ae66" d="m241.3 414.6 28.6 21.4v30.3l-28.6 21.9a656 656 0 0 0-53.3 3.5l-28.6-17.8v-30.3l28.6-25.5q26.3-2.8 53.3-3.5"/><path fill="#383739" d="m166.2 476.3-3.3-3.4 3-4.2-3-3.2 3-4.1-3-3.2 3-4.2-3-3.2 3-4.1-3-3.2 3.3-4.4c32-4.7 64-6.6 97-6.6l3.2 4-3 3.6 3 3.7-3 3.7 3 3.7-3 3.6 3 3.7-3 3.7 3 3.6-3.3 4c-32-.1-64 1.7-97 6.5m66.7-56.7-3.8-3.2-3.6 3.3-3.6-3-3.6 3.4-3.6-3-3.6 3.5-3.5-3-3.6 3.5-3.6-2.8-3.8 3.7v64l3.8 3 3.6-3.4 3.6 2.8 3.5-3.4 3.6 3 3.6-3.5 3.6 3 3.6-3.4 3.6 3 3.8-3.5z"/><path fill="#faae29" d="m225.2 420.2-3.4-2.8-3.3 3.1v63.7l3.3 2.8 3.4-3.2zm-14.4.8-3.3-2.7-3.4 3.2v63.7l3.4 2.7 3.3-3.2z"/><path fill="#faae29" d="m166.4 475.8-2.9-3 2.9-3.9q47.5-6.8 96.5-6.5l2.9 3.4-3 3.5c-31.8-.1-63.6 1.7-96.4 6.5m96.5-28.1 2.9 3.4-3 3.5a657 657 0 0 0-96.4 6.5l-2.9-3 2.9-3.9a657 657 0 0 1 96.5-6.5m0-7.8 2.9-3.4-3-3.5a657 657 0 0 0-96.4 6.5l-2.9 3.9 2.9 3q47.5-6.8 96.5-6.5"/><path fill="#ca3745" d="M232.3 419.8 229 417l-3.4 3.1v63.7l3.4 2.8 3.3-3zm-28.7 1.8-3.3-2.7-3.4 3.3v63.6l3.4 2.7 3.3-3.3z"/><path fill="#ca3745" d="m166.4 468.4-2.9-3 2.9-3.8c31.8-4.7 63.7-6.6 96.5-6.6l2.9 3.5-3 3.4a674 674 0 0 0-96.4 6.5m0-14.7-2.9-3 2.9-3.8a657 657 0 0 1 96.5-6.5l2.9 3.4-3 3.4a674 674 0 0 0-96.4 6.5"/><path fill="#ca3745" d="m218 484.2-3.4 3.2-3.3-2.7V421l3.3-3.2 3.4 2.8z"/><path fill="#383739" d="M247 420.7q-32 .5-65 4.3v5.3l-8.3 1V482l8.3-1v5.3c21.5-2.6 43-4 65.3-4.4v-5.2l8.3-.1v-50.7l-8.3.1v-5.2z"/><path fill="#ca3745" d="M182.5 425.4v5.3l-8.4 1v49.7l8.4-1v5.3l6.8-.8-13.6-10.1V438l13.6-13.3zm57.5-4 13.5 11.4v36.8l-13.5 12 6.8-.2V476l8.3-.1v-49.7l-8.3.1v-5.2z"/><path fill="#28ae66" d="M190 424.6 176.3 438v36.4l13.9 10.3q24.2-2.5 49.1-3.2l13.9-12.2V433l-13.9-11.7q-24.2.8-49.1 3.3m.7 2q23.4-2.5 47.7-3.2L251 434v34.4l-12.6 11.1q-23.6.7-47.7 3.2l-12.6-9.4v-34.5z"/><path fill="#28ae66" d="m203.4 471.2 2.1.8.4 2.5-2.7 2.7 4 3.5-3.8.3-2.7-2.4-2.7 2.9-3.8.3 4-4.2-2.7-2.2.4-2.6 2.1-1.1 2.7 2 .2-.2zm14-1 2 .8.5 2.6-2.7 2.5 3.9 3.7-3.8.2-2.7-2.5-2.6 2.9-3.8.2 3.9-4.1-2.7-2.3.4-2.5 2.1-1.1 2.7 2 .2-.1zm8.5-.5-2.2 1.1-.3 2.6 2.6 2.3-3.9 4 3.8-.2 2.7-2.7 2.7 2.5 3.7-.1-3.9-3.8 2.7-2.5-.4-2.5-2.1-.9-2.7 2.3h-.2zm-22.5-34 2.1-1.2.4-2.6-2.7-2.2 4-4.1-3.8.2-2.7 3-2.7-2.5-3.8.4 4 3.5-2.7 2.7.4 2.5 2.1.7 2.7-2.4h.2zm14-1 2-1.1.5-2.6-2.7-2.3 3.9-4-3.8.1-2.7 2.9-2.6-2.5-3.8.3 3.9 3.5-2.7 2.7.4 2.5 2.1.8 2.7-2.4.2.1zm8.5-.5-2.2-.9-.3-2.5 2.6-2.6-3.9-3.6 3.8-.2 2.7 2.5 2.7-2.8 3.7-.1-3.9 4 2.7 2.3-.4 2.6-2.1 1-2.7-2h-.2zm24.7 3.3-2.1 1.8 2.1 1.8v3l-3.3-2.7-2.3 2.2-2.5-.3-1-1.6 2.2-2.3-2.1-2.1.9-1.8 2.5-.3 2.3 2.1 3.3-2.8zm0 11.9-2.1 1.8 2.1 1.8v3l-3.3-2.7-2.3 2.2-2.5-.3-1-1.6 2.2-2.3-2.1-2.2.9-1.7 2.5-.3 2.3 2.1 3.3-2.8zm0 15.5-2.1-1.8 2.1-1.8v-3l-3.3 2.8-2.3-2.1-2.5.4-1 1.7 2.2 2.1-2.1 2.3.9 1.7 2.5.2 2.3-2.2 3.3 2.7zm-72-22.6 2.2 1.5-2.1 2.1v3l3.2-3.2 2.4 2 2.5-.7 1-1.7-2.3-2 2.2-2.5-.9-1.6h-2.5l-2.4 2.5-3.2-2.4zm0 11.9 2.2 1.5-2.1 2.1v3l3.2-3.2 2.4 2 2.5-.7 1-1.7-2.3-2 2.2-2.5-.9-1.6h-2.5l-2.4 2.5-3.2-2.4zm0 15.5 2.2-2-2.1-1.6v-3l3.2 2.4 2.4-2.5h2.5l1 1.6-2.3 2.5 2.2 2-.9 1.7-2.5.6-2.4-1.9-3.2 3.2z"/><path fill="#ca3745" d="m191 427-12.2 11.8 3.1 2.2 2.3-2.3h3l1 2.2-2 2.3 2 2-1 2.3-3 .6-2.3-1.7-3.2 3.2v1l3.2 2.3 2.3-2.3h3l1 2.1-2 2.4 2 1.9-1 2.4-3 .7-2.3-1.9-3.2 3.2v1l3.2 2.4 2.3-2.3h3l1 2.1-2 2.4 2 2-1 2.2-3 .8-2.3-1.8-3 3 12 9 2.7-.3 3.9-4.2-2.5-2 .4-3.2 2.7-1.4 2.6 2 2.6-2.4 2.6.9.6 3-2.6 2.5 3.8 3.4 3.7-4-2.5-2 .4-3.2 2.7-1.3 2.6 2 2.7-2.3 2.6 1 .4 3-2.4 2.4 3.7 3.5 3.7-4-2.5-2 .5-3.1 2.7-1.3 2.6 2 2.6-2.2 2.6 1 .5 3-2.5 2.4 3.9 3.7h2.6l12.1-10.7-3-2.6-2.3 2.1-3-.3-1.1-2.2 2-2.2-2-2 1.2-2.3 3-.5 2.1 2 3.3-2.8v-1l-3.3-2.7-2.2 2.1-3-.3-1.1-2.2 2-2.2-2-2 1.2-2.3 3-.4 2.1 2 3.3-2.8v-1l-3.3-2.8-2.2 2-3-.2-1.1-2.2 2-2.2-2-2 1.2-2.3 3-.4 2.1 2 3.2-2.7-12.2-10.1h-2.6l-3.9 4 2.5 2.2-.5 3.1-2.6 1.3-2.6-2-2.6 2.2-2.7-1-.5-3 2.5-2.5-3.7-3.5-3.7 4 2.4 2-.4 3.2-2.6 1.3-2.7-2-2.6 2.3-2.7-1-.4-3 2.5-2.4-3.7-3.4-3.8 4 2.6 2-.6 3.1-2.6 1.4-2.6-1.9-2.6 2.4-2.6-1-.5-3 2.5-2.5-4-3.5zm-12.3 27.8v2.4l1.4-1.4z"/><path fill="#fff" d="m200.7 479.3-2 2.1 4-.3zm14-1.1-2 2 4-.2zm13.9-.8-2 2h4zm-30-51.2 2.1 1.9 2-2.2zm14-1 2 1.8 2.1-2.1zm14-.9 2 2 2-2.2zm24 13.8-1.4 1.2 1.4 1.1zm0 11.9-1.4 1.2 1.4 1.2zm0 12-1.4 1.1 1.4 1.2zm-72-19.1v2.4l1.5-1.4zm0 11.9v2.4l1.5-1.4zm0 11.8v2.5l1.5-1.4z"/><path fill="#383739" d="M226.6 448v-4.3l-4.2.2v-4.6l-15.5 1v4.6l-4.2.4v4.2l-5.8.5v8l5.8-.5v4.2l4.2-.3v4.6l15.5-1v-4.7l4.2-.2V456l5.8-.2v-8z"/><path fill="#faae29" d="M214.4 440.2v4.8l-6.6 4.3v3.5l-10.4 1v-3.3l5.8-.6v-4.2l4.2-.3v-4.7zm.5 24.8v-4.8l6.6-4.3v-3.5l10.4-.5v3.3l-5.8.2v4.3l-4.2.2v4.7z"/><path fill="#fff" d="M221.5 452v-3.6L215 445v-4.8l7-.4v4.6l4.2-.2v4.2l5.8-.2v3.2zm-24.1 2.2 10.4-.9v3.5l6.6 3.4v4.8l-7 .5v-4.7l-4.2.4v-4.3l-5.8.5z"/><path fill="#ca3745" d="M208.2 453.3v3.2l6.2 3.2v-6.8z"/><path fill="#28ae66" d="m214.4 445.5-6.2 4v3.3l6.2-.4z"/><path fill="#ca3745" d="M221 452v-3.3l-6.1-3.2v6.8z"/><path fill="#28ae66" d="m214.9 459.7 6.1-4v-3.3l-6.1.4z"/><path fill="#383739" d="M158.5 543.2v13.1l-12.2 2.2v11.9l-12.4 2.4v33.9l12.4-2.5v12l12.2-2.2v13.2q21.9-3.5 44.4-5.4l7.8 4.2-3.8 2.6-15.8 1.4-1.4-1.4 14.4-1.4-4-3.8-20.6 2.2 9.3 8.8 19.3-1.8 6.5-4.5 6.6 3.7 19.2-.8 9.3-10.1-20.5.6-4 4.3 14.3-.5-1.3 1.6-15.9.7-3.7-2.1 7.8-5.3q21.8-1 44.4-.7v-13.1l12.2.2v-11.9l12.4.4v-33.9l-12.4-.4V549l-12.2-.2v-13.1q-21.9-.3-44.4.7l-7.8-4.4 3.7-2.5 15.9-.7 1.3 1.6-14.3.5 4 4 20.6-.6-9.4-9.7-19.2.8-6.6 4.4-6.5-3.6-19.3 1.8-9.3 11 20.5-2.2 4-4.5-14.3 1.3 1.4-1.7 15.8-1.4 3.8 2-7.8 5.4q-21.9 1.9-44.4 5.4"/><path fill="#ca3745" d="M226.3 619.7q21.6-1 44-.7v-13.1l12.2.2v-12l12.4.5v-33l-12.4-.3v-11.9l-12.2-.2V536q-21.6-.2-44 .8L208 526.6l-19 1.7-8.4 10 19.2-2 3.2-3.5-14.3 1.3 2.2-2.8L207 530l20.7 11.5q18.7-.8 37.9-.7v13.1l12.2.2V566l12.4.4v23.4l-12.4-.3v12l-12.2-.3v13.2q-18.7-.2-37.9.7l-20.7 14-16.2 1.5-2.2-2.3 14.3-1.4-3.1-2.9-19.3 2 8.4 8 19-1.7zm-24.9-3q-18.6 1.7-37.9 4.5v-13.1l-12.1 2v-12l-12.4 2.3V577l12.4-2.3v-12l12.1-2v-13a599 599 0 0 1 38-4.5l20.7-14.3 16.2-.7 2.2 2.5-14.3.5 3.1 3 19.3-.5-8.4-8.8-19 .8-18.3 12.6a604 604 0 0 0-44 5.4v13l-12.3 2.2v11.8l-12.3 2.4v33l12.3-2.4v11.9l12.3-2.1v13q21.6-3.4 44-5.2l18.3 10 19-.8 8.4-9.1-19.3.6-3 3.3 14.2-.5-2.2 2.5-16.2.7z"/><path fill="#faae29" d="m214.6 534.6-13 9A610 610 0 0 0 164 548v13.1l-12.2 2v12l-12.4 2.2V600l12.4-2.3v12l12.2-2v13q18.5-2.7 37.5-4.4l13.1 7 13.1-8.7q18.5-.9 37.5-.7v-13.1l12.3.1V589l12.4.4v-22.6l-12.4-.3v-12l-12.3-.1v-13.1q-18.4-.1-37.5.7zm0 3.3 12.4 6.9q17.4-.8 35.5-.8v13.1l12.2.1v11.9l12.4.3v17l-12.4-.4v12l-12.2-.2V611a750 750 0 0 0-35.5.8l-12.4 8.3-12.3-6.7a615 615 0 0 0-35.5 4v-13l-12.2 1.9v-12l-12.4 2.3v-16.9l12.4-2.2v-11.9l12.2-2v-13q17.4-2.5 35.5-4.1z"/><path fill="#28ae66" d="M262 597.3v13.2q-17.3 0-35.2.8l-12.2 8.1-12.2-6.6q-17.3 1.5-35.2 4v-13l-12.2 1.8v-11.9l-12.3 2.3v-16l12.3-2.2v-12l12.2-1.8v-13.1q17.3-2.5 35.2-4l12.2-8.5 12.2 6.8q17.4-.7 35.2-.7v13l12.2.2v11.9l12.4.3v16l-12.4-.3v11.9z"/><path fill="#383739" d="M171.9 598.5v12.7l19.3-2.3L172 598zm0-30.6v-12.7l19.3-2.3-19.3 15.5zm85.5 24.9v12.7l-19.3.3 19.3-13.5zm0-30.6v-12.7l-19.3.3 19.3 12.8z"/><path fill="#ca3745" d="m172.3 598.9 17.4 9.7-17.4 2zm0-31.5 17.4-13.8-17.4 2zm84.6 25.8-17.3 12 17.4-.2zm0-31.5-17.3-11.5 17.4-.2z"/><path fill="#383739" d="M196.5 576.9v-6.5l-2.1.2-10.4-5.5h-.1l-10.2 7.9-2.2.3v6.5l-4.9.7v7l4.9-.7v6.4l2.2-.3 10.3 5.4 10.4-7.7 2.1-.3V584l7.4-.7v-7z"/><path fill="#ca3745" d="m184 565.7 9.5 5-19 2.2zm9.5 25-9.5 7-9.4-4.9zm-2.3-12.8v6l-11.8 1.3v-6z"/><path fill="#faae29" d="M196 583.9v6l-11.8 1.2v-6zm-12.2 1.3v6l-11.8 1.5v-6zm19.7-8.5v6l-11.8 1.2v-6zm-24.6 2.6v6l-11.8 1.6v-6zm17.2-8.4v6l-11.9 1.3v-6zm-12.3 1.3v6l-11.8 1.5v-6z"/><path fill="#383739" d="M175.7 581v3.4l-5.3.7v-3.3zm4.8-7v3.3l-5.3.7v-3.4zm12.3-1.4v3.3l-5.3.6V573zm-4.9 7v3.3l-5.3.6v-3.3zm12.3-1.2v3.3l-5.3.5v-3.3zm-7.4 7.1v3.4l-5.3.6V586zm-12.3 1.4v3.3l-5.3.7v-3.3z"/><path fill="#fff" d="m175.2 581.6-4.3.6v2.3l4.3-.6zm4.8-7-4.3.5v2.3l4.3-.6zm12.3-1.5-4.3.5v2.3l4.3-.4zm-4.9 7-4.3.5v2.3l4.3-.5zm12.3-1.2-4.3.4v2.3l4.3-.4zm-7.4 7.2-4.3.5v2.3l4.3-.5zm-12.3 1.4-4.3.5v2.3l4.3-.5z"/><path fill="#383739" d="M232.7 574.5V568h2.2l10.4-7 10.3 6.5h2.2v6.5h4.8v7h-4.8v6.4h-2.2l-10.3 6.8-10.4-6.3h-2.2v-6.4l-7.4.3v-7z"/><path fill="#ca3745" d="m245.3 561.6-9.5 6.3 19-.4zm-9.5 26.3 9.4 5.8 9.5-6.3zm2.3-13.1v6l11.8-.3v-6z"/><path fill="#faae29" d="M233.2 581.5v6l11.8-.4v-6zm12.3-.4v6l11.8-.1v-6zm-19.7-5.8v6l11.8-.5v-6zm24.6-.8v6h11.8v-6zm-17.2-6v6l11.8-.4v-6zm12.3-.4v6l11.8-.1v-6z"/><path fill="#383739" d="M253.6 575.8v3.4h5.3v-3.4zm-4.9-6.4v3.3h5.4v-3.4zm-12.2.3v3.3l5.3-.1v-3.3zm4.8 6.3v3.4l5.3-.1v-3.4zm-12.3.5v3.3l5.3-.2v-3.3zm7.5 6.2v3.3l5.3-.1v-3.4zm12.2-.3v3.3h5.4v-3.4z"/><path fill="#fff" d="M254.1 576.3h4.3v2.3h-4.3zm-4.9-6.4h4.4v2.3h-4.4zm-12.2.3 4.3-.1v2.3l-4.3.1zm4.8 6.3h4.3v2.3h-4.3zm-12.3.5 4.3-.2v2.3l-4.3.2zm7.5 6.2 4.3-.2v2.4H237zm12.2-.3h4.4v2.2h-4.4z"/><path fill="#383739" d="M227.2 564v6.4l-2.2.1-10.4 7.2-10.3-5.8-2.2.1v-6.5l-6.1.6v-7l6.1-.5V552l2.2-.2 10.3-7.4 10.4 6h2.2v6.4l6.1-.2v7z"/><path fill="#faae29" d="m214.6 577.2 9.5-6.7-19 1.3zm9.5-26.6-9.5-5.5-9.4 6.8z"/><path fill="#ca3745" d="M226.7 557v-6l-11.8.6v6zm-12.3.7v-6l-11.8.8v6zm18.4 5.5v-6l-11.8.5v6zm-12.2.6v-6l-11.9.7v6zm-12.3.8v-6l-11.9 1v6zm18.4 5.3v-6l-11.8.7v6zm-12.3.7v-6l-11.8 1v6z"/><path fill="#383739" d="M211.2 553.2v3.3l-5.4.5v-3.4zm12.2-.7v3.3l-5.3.3v-3.3zm-18.4 7.7v3.3l-5.3.5v-3.4zm12.3-1v3.4l-5.3.4v-3.4zm12.3-.6v3.4l-5.3.2V559zm-18.4 7.6v3.3l-5.4.4v-3.3zm12.2-.8v3.4l-5.3.3v-3.4z"/><path fill="#fff" d="m210.7 553.8-4.4.3v2.3l4.3-.3zm12.2-.8-4.3.2v2.3l4.3-.2zm-18.4 7.7-4.3.4v2.3l4.3-.4zm12.3-.9-4.3.3v2.3l4.3-.2zm12.3-.6-4.3.2v2.3l4.3-.2zm-18.4 7.5-4.4.3v2.4l4.3-.4zm12.2-.7-4.3.2v2.3l4.3-.2z"/><path fill="#383739" d="M227.2 599.5v6.5l-2.2.1-10.4 7.2-10.3-5.8-2.2.1v-6.4l-6.1.5v-7l6.1-.5v-6.5l2.2-.2 10.3-7.4 10.4 6h2.2v6.4l6.1-.2v7z"/><path fill="#faae29" d="m214.6 612.8 9.5-6.6-19 1.2zm9.5-26.6-9.5-5.5-9.4 6.8z"/><path fill="#ca3745" d="M226.7 592.6v-6l-11.8.6v6zm-12.3.7v-6l-11.8.8v6zm18.4 5.5v-6l-11.8.5v6zm-12.2.6v-6l-11.9.7v6zm-12.3.8v-6l-11.9 1v6zm18.4 5.3v-6l-11.8.7v6zm-12.3.7v-6l-11.8 1v6z"/><path fill="#383739" d="M211.2 588.8v3.3l-5.4.4v-3.3zm12.2-.7v3.3l-5.3.3v-3.3zm-18.4 7.7v3.3l-5.3.5v-3.4zm12.3-1v3.4l-5.3.4v-3.4zm12.3-.5v3.3l-5.3.2v-3.3zm-18.4 7.5v3.3l-5.4.4v-3.3zm12.2-.8v3.4l-5.3.3v-3.4z"/><path fill="#fff" d="m210.7 589.4-4.4.3v2.3l4.3-.3zm12.2-.8-4.3.2v2.4l4.3-.3zm-18.4 7.7-4.3.4v2.3l4.3-.4zm12.3-.9-4.3.3v2.3l4.3-.3zm12.3-.6-4.3.2v2.3l4.3-.2zm-18.4 7.5-4.4.4v2.3l4.3-.3zm12.2-.7-4.3.2v2.3l4.3-.2z"/><path fill="#383739" d="M147.6 685.8q22.6-16.6 46-31.8a662 662 0 0 1 42.1-2.7q22.6 11.7 46 25.2v41.7q-22.7 12-46 25.5-20.8.7-42.1 2.8a716 716 0 0 0-46-19z"/><path fill="#28ae66" d="M193.7 654.5a1018 1018 0 0 0-45.6 31.5v41.2q22.4 8.3 45.6 18.8a663 663 0 0 1 41.9-2.8q22.4-13.1 45.6-25.3v-41.2q-22.4-13-45.6-25a659 659 0 0 0-41.9 2.8m.8 3.3q19.9-2 40.3-2.6Q256 666 278 678.7v37.2a1145 1145 0 0 0-43.2 24q-19.8.7-40.3 2.7a726 726 0 0 0-43.2-18v-37.2a1023 1023 0 0 1 43.2-29.6"/><path fill="#faae29" d="M214.9 698.3v42.1l19.8-1q21-12.3 42.8-23.9v-18q-31-.7-63.1 1.3v-42.2l-19.8 1.6a1024 1024 0 0 0-42.8 29.4v18q31-5.2 63-7.3"/><path fill="#fff" d="M214.4 698.3v42.2l-19.8 1.6a737 737 0 0 0-42.8-17.9v-18q31-5.4 63-7.4v-42.2l19.9-1q21 10.9 42.8 23.3V697q-31-.6-63.1 1.3"/><path fill="#383739" d="M218.5 737.9v-12.2l-3.9 2.7-3.8-2.2v12.2l-12 1 8.1-6.8v-8.7l-12.3-6.9-8.6 1v-33.8l8.6-.9 12.3-9v-8.7l-8-5.4h.6l11.3-1v12.2l3.8-2.7 3.9 2.2v-12.2l12-.6-8.1 6.5v8.6l12.3 7.5 8.6-.3v33.7l-8.6.3-12.3 8.5v8.7l8 5.7z"/><path fill="#faae29" d="M219 659.2v12.6l-4.2-2.4v3.5l18.9 11.4 6.2-.2v13h3v-16.2l-8.4.3-12.6-7.7v-9.1l7.1-5.7zm-32.5 42v16.2l8.2-.9 12.7 7.2v9.1l-7.1 6 10-.9v-12.6l4 2.4V724l-18.7-10.6-6.2.6v-13z"/><path fill="#fff" d="m200.3 660.6 7 4.8v9l-12.6 9.4-8.2.8v16.2l3-.3v-13.1l6-.6 18.9-13.8v-3.6l-4 3v-12.6zm39.6 37v13.1l-6.2.2-18.8 13.1v3.7l4-3v12.7l10.1-.6-7-5v-9l12.5-9 8.3-.2v-16z"/><path fill="#ca3745" d="m189.9 713.5 5.8-.6 19 10.8 18.9-13.3 5.8-.2v-25.7l-5.8.2-19-11.3-18.9 13.8-5.8.6z"/><path fill="#383739" d="m227.7 704 4-.3v-2l-3 .2v-3.6l6.5-.2v9l-6.2.3v6.2l-12.8.7v-9l5.6-.2v3.5l-2.2.1v1.8l6-.3v-3.4l-24-13.4-4.1.4v2l3-.3v3.5l-6.5.6v-9l6.3-.6v-6.2h.2l12.6-1v8.9l-5.7.4v-3.6l2.2-.1v-1.8l-5.9.5v3.4zm-2.1-15v-3.4l-6 .3v1.8l2.2-.1v3.6l-5.6.3v-9l12.8-.6v6.2l6.2-.2v9l-6.5.3v-3.6l3-.1v-2l-4 .2-24 16.5v3.4l6-.4v-1.8l-2.3.2V706l5.7-.4v8.9l-12.8 1v-6.2l-6.3.6v-9l6.5-.7v3.6l-3 .2v2l4-.4z"/><path fill="#fff" d="M226 706.5v4.2l-6.8.3v-2.7l2.2-.1v-2.6l-4.7.2v8l11.8-.6v-6.3l6.3-.2v-8.1l-5.6.2v2.6l3-.1v2.9l-4.6.2-24.3-13.6v-4.2l6.8-.5v2.7l-2.2.2v2.6l4.7-.4v-7.9l-11.9 1v6.1l-6.2.6v8.1l5.6-.5V696l-3 .3v-3l4.6-.4zm1.6-15.3 4.6-.2v3h-3v2.7l5.6-.2v-8.2l-6.3.3v-6.2l-11.8.6v8l4.7-.3v-2.6l-2.2.1v-2.7l6.8-.4v4.2L201.7 706l-4.7.4v-2.9l3-.3v-2.6l-5.5.5v8.2l6.2-.6v6.2l12-1V706l-4.8.3v2.6l2.2-.1v2.7l-6.8.6V708z"/><path fill="#383739" d="M268.3 699.2v13.2h-5.5v-4.7h-5.5v4.7h-5.5v-13.2h5.5v4.6h5.5v-4.6zm-19.6 17.6v13.1l-5.5.1v-4.6l-5.5.2v4.6l-5.5.2v-13.2l5.5-.2v4.7l5.5-.2V717zm19.6-21.8v-13.2h-5.5v4.6h-5.5v-4.6h-5.5V695h5.5v-4.7h5.5v4.7zM161 706.5v13.2l5.5-.8v-4.7l5.5-.8v4.7l5.5-.7v-13.2l-5.5.7v4.7l-5.5.8v-4.7zm0-4.2v-13.2l5.5-.8v4.7l5.5-.8v-4.7l5.5-.7V700l-5.5.7V696l-5.5.8v4.7zm87.7-24.7v-13.2l-5.5.1v4.7l-5.5.1v-4.6l-5.5.2V678l5.5-.2v-4.6l5.5-.2v4.7zm-68.1 43.7v13.2l5.5-.7v-4.6l5.5-.6v4.6l5.5-.5v-13.2l-5.5.6v4.6l-5.5.6v-4.6zm0-39.2v-13.2l5.5-.6v4.6l5.5-.5v-4.7l5.5-.5v13.1l-5.5.6v-4.7l-5.5.6v4.7zm71.3-13.8v10h18.2zm-74.6 62.6v-10l-18.1 2.6zm0-57.6v10l-18.1 2.6zM252 726v-10h18.2z"/><path fill="#ca3745" d="M263.3 707.2v4.7h4.5v-12.2h-4.5v4.6h-6.5v-4.6h-4.5V712h4.5v-4.7zM243.7 725v4.7l4.5-.1v-12.3l-4.5.1v4.7l-6.5.2v-4.7l-4.5.2V730l4.5-.2v-4.6zm19.6-38v-4.6h4.5v12.2h-4.5v-4.7h-6.5v4.7h-4.5v-12.2h4.5v4.6zM166 714v4.6l-4.5.6V707l4.5-.7v4.7l6.5-1v-4.6l4.5-.6V717l-4.5.6V713zm0-20.4V689l-4.5.6v12.2l4.5-.6v-4.7l6.5-.9v4.7l4.5-.7v-12.2l-4.5.6v4.7zm77.7-23.9V665l4.5-.1V677h-4.5v-4.6l-6.5.2v4.7l-4.5.1v-12.2l4.5-.2v4.7zm-58.1 59.1v4.7l-4.5.5v-12.2l4.5-.5v4.6l6.5-.7v-4.6l4.5-.4v12.2l-4.5.4v-4.6zm0-55.2v-4.7l-4.5.6v12.2l4.5-.6v-4.6l6.5-.7v4.6l4.5-.4v-12.2l-4.5.4v4.7z"/><path fill="#faae29" d="M252.4 669.1v8.7h15.8zm-91.3 54.6 15.8 6.5v-8.7z"/><path fill="#fff" d="m176.9 674.2-15.8 11 15.8-2.3zm75.5 42.2v8.8l15.8-8.8z"/><path fill="#1a1a1a" d="M8 195.3c170.8-85.3 341-54.5 513.3-28C676.5 191 833.4 211.8 992 132.7v672c-170.8 85.3-341 54.5-513.3 28C323.5 809 166.6 788.1 8 867.2zm31.3 19.3v604.5c306.5-128.2 611.1 96 921.5-33.7V180.9C654.2 309 349.5 84.9 39.3 214.6" opacity=".2"/></svg>