<svg xmlns="http://www.w3.org/2000/svg" viewBox="0 0 1000 1000"><path d="M8 195c171-85 341-54 513-28 155 24 312 45 471-34v672c-171 85-341 54-513 28-155-24-312-45-471 34z"/><path fill="#fcdc04" d="M8 307c171-85 341-54 513-28 155 24 312 45 471-34v224c-171 85-341 54-513 28-155-24-312-45-471 34z"/><path fill="#d90000" d="M8 419c171-85 341-54 513-28 155 24 312 45 471-34v112c-171 85-341 54-513 28-155-24-312-45-471 34z"/><path fill="#fcdc04" d="M8 643c171-85 341-54 513-28 155 24 312 45 471-34v224c-171 85-341 54-513 28-155-24-312-45-471 34z"/><path fill="#d90000" d="M8 755c171-85 341-54 513-28 155 24 312 45 471-34v112c-171 85-341 54-513 28-155-24-312-45-471 34z"/><path fill="#fff" d="M602 515c0 58-45 98-102 90-57-9-102-62-102-120s45-98 102-90c57 9 102 62 102 120"/><path fill="#d90000" d="m482 417-7-14q4-3 14-2l-1 14z"/><path d="m482 417-7-14q5-4 14-3h1l-1 8v7zm0-1 6-2v-6l1-7q-9-1-13 3z"/><path fill="#fcdc04" d="m488 415 1-14c1 0 14 1 21 12l-7 9z"/><path d="m488 415 1-15 8 2q9 4 14 10v1l-4 5-4 5zm22-2q-4-6-13-10l-7-1-1 12 14 7 3-4z"/><path fill="#d90000" d="m503 422 7-10q6 8 7 15l-10 1z"/><path d="m503 422 7-10h1a32 32 0 0 1 7 15v1h-6l-4 1h-2v-2l-1-2zm1 0 1 3 2 3 1-1h9q-1-7-7-14zm-19 174c1 0 13-12 38-6-5-6-16-7-16-7 0-1-3-29-1-31 3-1 15 2 15 3q5-2 3-8c-3-3-9-14-6-16s16 3 17 3l-41-60s-4-20 4-29c10-8 9-16 9-17-2-9-15-18-25-11-5 7-2 12-2 12-1 0-14 2-15 4 0 3 16 2 16 2l-1 12c-1 0-33 26-8 57l1-1s9 12 18 16l8 9c0 1 2 15 0 18l-28-5c-3 1-14-1-12 18l4-9s0 7 3 10q1-12 3-12s0 8 2 10c2 0 1-12 11-10l17 3s3 28 2 31c-7-3-23-3-24 1l14 3c-1 0-7 5-6 10m1 1q-2-4 2-8l3-3-13-2h-1v-1q1-3 11-4l14 2-3-30-16-3q-6-2-9 8l-1 2h-1l-3-8-2 10 1 1-1-1q-3-2-3-7l-4 8v-2q-1-11 3-15 2-3 8-3h1l15 1 13 3v-16l-1-1-7-8-13-10-5-6h-2q-15-19-5-40 5-11 13-17l2-11-14-1h-2l-1-2q1-3 15-4l-1-4q0-4 3-8h1q6-6 15-1 9 4 10 12v6q-2 7-9 11-5 5-5 18l1 11 42 62-1-1q-15-6-17-4-2 1 1 7l5 9v6q0 2-3 2-12-3-15-2-2 0 1 29l7 1q6 3 9 7l1 1h-1q-16-4-28 0zm14-68v17l-1 1v-1l-13-2-15-2h-1l-8 2q-3 4-2 13l3-7h1l1 8q0-6 3-10l1-2v2l2 9 1-2q3-10 10-8l17 3 1 1 2 31v1l-1-1-14-2q-8 1-10 3l14 2 1 1h-1l-3 4q-3 3-2 5l9-5q11-4 27 0-3-4-9-5l-6-2h-1q-3-30 0-31t15 2l2-2v-4l-5-9q-3-8-1-9 3-2 16 3l-40-59-1-11q0-13 6-19 6-4 8-10v-6q-1-7-9-11-8-5-15 1-3 3-3 7l1 4h1l-1 1q-14 1-15 4h2l6 1h9l-2 13q-8 6-13 16-10 20 5 39v-1h1l6 7q6 7 12 10l8 9z"/><path fill="#9ca69c" d="M489 444c0 1-23 23-13 46v-4l3 2-1-5 3 2-2-4 5 1-1-5 4 1c-7-14-1-23 2-34m0 0-2 7-4 13q0 7 3 14l1 1h-1l-4-1 1 2v2l1 1-4-1h-1 1l1 4-3-2v5l-1-1-1-1h-1v5l-1-1q-6-15 3-33zm-13 42 1 1-1-4v-1l3 1v1-1l-2-3 4 1h1v-1l-1-3h4q-4-6-3-14l4-13 1-4-9 13q-9 16-4 29zm22-64c0 1 1 9-4 12q-3 0-4 3 1 2 4 2c6-1 11-10 4-17m-1 0v-1zq6 4 4 11-3 6-7 7h-1l-2-1-2-2q0-3 3-4h1q3-1 3-6zm1 1v4q0 6-4 7l-1 1-2 2 1 1h2q4 0 7-5 2-6-3-10"/><path fill="#fff" d="m489 429-2 2-2-3q0-2 2-1z"/><path fill="#d90000" d="M481 435c-2 2-8 7-1 11 6-1 5-2 6-4z"/><path d="m481 435 2 2q4 3 4 5v1h-1v1l-6 3h-1l-3-4 1-4zm0 1-3 4-1 3q1 2 3 2 4 0 5-2l1-1-3-4z"/><path fill="#9ca69c" d="M496 505q-2 4 0 12 8-2 10 1zm-1 0v-1l1 1q4 7 11 13l-1 1q-3-3-10-1l-1-1zm1 2v9h8z"/><path fill="#fff" d="M506 534v13l7 1c2-1 0-9-7-14m-1 0v-1zl7 10 1 4-1 2-7-1h-1zm1 1v12l6 1 1-2-1-3q-2-5-6-8"/><path fill="#9ca69c" d="M539 541c-1-1-9-22-30-31-22-9-19-31-17-33 1-2 1-4 8-1l38 25c4 2 1 39 1 40"/><path d="M538 541a57 57 0 0 0-29-30q-14-6-18-20l-1-9 1-5h1q0-3 2-3l6 2 7 5 31 19q3 1 3 21l-1 14-1 4v2zm0-2 1-4-1-34q-3 0-31-19l-8-5q-3-3-5-2l-1 2-1 1-1 4 1 9q4 13 17 19 14 5 23 18z"/><path fill="#d90000" d="M518 511c0 1 28 22 20 36 8-5 6-14 6-15 0 1 6 19-10 26l3 1-3 3s-1 2 10-2q-4 3-3 4s0 2 8-3l-6 6-1 2c15 1 49-45-11-70l3 3z"/><path d="m518 511 15-9-3-3-1-2 2 1q21 9 30 22 6 11 4 24-1 10-10 19-7 7-13 7h-1v-1l4-5-3 1-2-1v-1l1-2-6 2-1-1v-1l2-1-2-2-1-1h1q10-4 10-15v-3q0 6-6 8v-1q6-10-19-33l-1-1zm25 58 12-7q7-9 9-19 3-11-4-23-9-12-28-20l2 1v2l-15 9h1q24 21 20 33 3-3 3-7v-6h1l2 11q-1 11-11 15l2 1v1l-2 2 9-3v1l-3 4h1l6-4 1 1z"/><path fill="#fff" d="M519 506q6 5 6 7l-7-2-9-10-7-5c-3-2-6-12 5-8l14 8 13 7 8 10-16-10q6 7 6 9z"/><path d="m522 508 4 4v1h-1l-7-2-9-9-7-5-2-3-1-5 2-3 7 1 13 9 7 3 7 3 4 5 4 5-1 1-13-8 4 6 1 2-2-1h-1zm-3-1 1-1 11 5-5-8-1-1 1 1q3 0 14 8l-2-3-4-5-7-3-7-3-13-9-5-1q-2 1-2 3l1 3 1 3 7 5 10 9 5 2zm-54-73 15-1z"/><path fill="#fff" d="M465 433h15v1l-15 1z"/></svg>