<svg xmlns="http://www.w3.org/2000/svg" viewBox="0 0 1000 1000"><path d="M8 195.3c170.8-85.3 341-54.5 513.3-28C676.5 191 833.4 211.8 992 132.7v672c-170.8 85.3-341 54.5-513.3 28C323.5 809 166.6 788.1 8 867.2z"/><path fill="#fcdc04" d="M8 307.3c170.8-85.3 341-54.5 513.3-28C676.5 303 833.4 323.8 992 244.7v224c-170.8 85.3-341 54.5-513.3 28C323.5 473 166.6 452.1 8 531.3z"/><path fill="#d90000" d="M8 419.3c170.8-85.3 341-54.5 513.3-28C676.5 415 833.4 435.8 992 356.7v112c-170.8 85.3-341 54.5-513.3 28C323.5 473 166.6 452.1 8 531.3z"/><path fill="#fcdc04" d="M8 643.3c170.8-85.3 341-54.5 513.3-28C676.5 639 833.4 659.9 992 580.8v224c-170.8 85.2-341 54.4-513.3 28-155.2-24-312.1-44.6-470.7 34.5z"/><path fill="#d90000" d="M8 755.3c170.8-85.3 341-54.5 513.3-28C676.5 751 833.4 771.9 992 692.8v112c-170.8 85.2-341 54.4-513.3 28-155.2-24-312.1-44.6-470.7 34.5z"/><path fill="#fff" d="M602.2 514.9c-.3 58.3-45.5 98.3-102.2 89.8-56.7-9-102-61.8-102.2-119.6.3-58.2 45.5-98.3 102.2-89.8 56.7 9 102 61.8 102.2 119.6"/><path fill="#d90000" d="m482 417-6.6-13.5c2.7-2.2 6.7-3.5 13.7-2.5l-.7 13.5z"/><path d="m481.5 417.2-6.8-14 .3-.2c3.3-2.7 7.6-3.5 14-2.6h.6l-.3 7.4-.4 7.2-7.1 2.7zm.7-1 5.7-2 .3-6.6.3-6.2c-5.7-.7-9.5 0-12.5 2.3z"/><path fill="#fcdc04" d="m488.4 414.7 1-13.7a33 33 0 0 1 21 11.6q-3.4 4.9-7.2 9.6z"/><path d="m487.8 414.5 1-14.1h.5q3.5.5 8 2 8.7 3.3 13.5 9.8l.1.1q.3.4 0 .7l-3.6 4.8-4 5-15.5-7.8zm22-2q-4.6-6-12.8-9-4-1.5-7.2-1.9l-.9 12.8 14 7 3.5-4.4z"/><path fill="#d90000" d="m503.4 422.1 6.7-9.7c4.6 5.7 6.3 9.3 7.1 14.7l-10.7 1z"/><path d="m503 421.7 7-10.2.5.6a32 32 0 0 1 7.2 15.3l-.1.2h-.2l-.1.1h-.3l-1.3.2-3.7.4-3.7.3h-1.8q-.6 0-.5-.6l-.4-.7-1-2-1.6-2.9-.3-.3zm1 .5 1.5 2.7 1.3 2.6h1.3l3.7-.4 3.7-.3 1.1-.2q-1.1-6.3-6.4-13.2zm2.9 5.5.2.5q0-.3-.2-.5m9.8-.7v.2z"/><path d="M485.4 596.4c.2-.2 12.4-12.6 37.3-6-4.3-6.6-15.3-7.8-15.7-7.8 0-.7-3.4-28.7-.8-30.5a67 67 0 0 1 15.2 2.4c1.9-.1 4.1-3.4 2.2-7-2.4-3.7-8.3-14.6-6-17 3-1.2 16.8 3.8 17.2 4l-41-60.3c-.1-.4-4-20.4 4.1-29.3 10-7.5 9-16.1 8.7-16.4-1.8-9.9-14.9-18.3-24.7-11.4-5.3 6.4-2 11.6-1.9 11.9-.5 0-13.9 2-15.2 4.3.3 2.5 15.8 2 16.5 2l-1.6 11.9c-.4.3-32.8 25.5-7.8 56.6l.8-1.1c.1.2 9 12.3 18.4 16.6 8.8 10.7 8 9.2 8 9.1 0 .3 1.4 14.6.1 17.6-2.5-1-24.5-5.2-28.1-4.6-3.4.4-14.3-1.8-11.8 18l4.2-9.3c0 .3-.1 6.6 2.4 10a22 22 0 0 1 2.7-12c0 .3.8 7.7 2.3 9.6 2 .8 1.6-12.1 11.4-10.2 9.7 2.7 16.7 3.4 16.7 3.4 0 .2 3 28.3 2.2 31-7.5-2.7-23-2.9-24.7 1.2 9.8 1 14.3 2.8 14.3 2.8-.4.3-7.3 5.6-5.4 10.5"/><path d="m485.8 596.8-.5.5-.4-.7c-1-2.3-.5-4.5 1.8-7.6l3-3q-4.5-1.5-13.2-2.3l-.7-.1.2-.7c.8-2.2 3.9-3.3 10.5-3.6q8.7 0 14.3 1.9.5-3.8-2.3-29.8-6.9-.7-16.2-3.3c-4.3-1-7 1.2-9.4 7.6l-.7 2-.6.6q-.4.3-1-.2-1.6-1.5-2.4-8.3c-1.4 2.9-2 6-1.7 10.3v1.4l-1-1a12 12 0 0 1-2.6-7.7l-3.9 8.6-.2-2c-1.1-7.9-.2-12.8 2.7-15.9q2.5-2.3 8-2.6h1.4q2.4-.5 14.7 1.5 10.6 2 13.3 2.9 1.1-3-.3-16.5l-.6-.5-7.2-8.5q-6-2.6-12.8-10-3-3.2-5.3-6.1l-.6.6-.4.1-.2-.3c-10.8-13.3-12.7-26.3-5.8-40.5a50 50 0 0 1 13.4-16.8l1.5-10.8a134 134 0 0 1-13.5-.7l-2-.7q-1-.5-.9-1.5c.7-1.8 5.2-3.3 15-4.6q-.7-1.5-.9-3.2c-.2-3.3.7-5.8 3.1-8.6h.1c4.9-3.6 9.8-3.8 16-.7 5.7 3.1 8.6 6.9 9.6 12.3l.1.1.1.4v1.3q0 2-.6 4.1-2 6.6-8.4 11.1-5 5.2-5 17.5 0 6.1 1 11.3l41.9 61.4-1.5-.6c-9.7-3.6-15-4.7-16.8-3.8-.8.8-.5 2.8 1.4 7.2q2.3 5.3 4.7 8.9c1.2 1.8 1.3 3.3.5 5.4q-1.3 2.8-3 2.5h-.1c-8.3-2.3-13-3-15-2.5-1.6.9-1.3 10.2 1 29.5q3 .4 6.1 1.3c5 1.7 7.8 3.8 9.7 6.9l.6 1-1.2-.3a44 44 0 0 0-27.6.3 27 27 0 0 0-9.2 5.5m13.8-68.2c1.2 10.1 1.1 15.7 0 17.7l-.2.4-.4-.2a98 98 0 0 0-13.5-3 66 66 0 0 0-14.3-1.6l-1.5.2c-3.5.2-5.7.9-7.4 2.3-2.4 2.6-3.3 6.5-2.7 13l3.4-7.6 1 .5c0 3.6.3 6 1.3 8q0-6.4 2.9-10.6l.8-1.3.2 1.7c.4 5.4 1 8.1 2 9.2v-.3l.7-1.8c2.5-7 5.6-9.3 10.5-8.2q9.6 2.7 16.5 3.4h.6v.6q3.2 28.6 2.2 31.2l-.2.4-.4-.2q-5.6-2-14.4-2c-5.3.3-8 1-9.3 2.2a54 54 0 0 1 13.6 2.8l1 .4-.8.6q-2 1.5-3.6 3.4-2.6 3.3-2 5.6a30 30 0 0 1 9-5.1c8.2-3 16.9-3.2 26.9-.7a17 17 0 0 0-8.1-5q-3.4-1.2-6.4-1.5h-.5v-.5c-2.6-20.2-2.7-30-.6-31q3.1-1 15.5 2.4 1.1 0 2-2 1-2.4-.2-4.2a61 61 0 0 1-5-9.1c-2-5-2.3-7.4-1-8.6 2-1 7-.1 16.2 3.2l-40.2-58.9v-.1a64 64 0 0 1-1-11.7c0-8.6 1.8-14.4 5.3-18.2q6.3-4.4 8.2-10.6a15 15 0 0 0 .6-4.7h-.1l-.1-.6c-.9-5-3.6-8.6-9-11.5-5.8-2.9-10.3-2.7-14.8.6q-3.1 3.5-3 7.7.4 2 1.2 3.4l.4.8h-.7c-9.8 1.3-14.3 2.6-14.9 4l.2.2 1.6.5q2 .3 5.7.5 4.1.3 8.4.1h.7l-1.7 12.7-.2.1a49 49 0 0 0-13.3 16.7c-6.6 13.6-5 26 5.1 38.6l.4-.6.4-.6.5.7q2.3 3 5.6 6.8a41 41 0 0 0 12.5 9.6h.1l.2.2q5.4 6.6 7.2 8.5l.5.5q-.4 0-.6.2v.2l1-.2z"/><path fill="#9ca69c" d="M489.3 444.2c-.3.3-23.7 23.3-13.8 46.1.5-3 .4-4.5.7-4.5-.3-.1 2.6 2.7 2.7 2.4 0-1.6-1-4.9-1-5l3.2 1.4-2-4 4.7 1.3c0-.3-1.4-4.3-1-4.6l3.7.9c-6.6-14-.5-23.1 2.8-34"/><path fill="#9ca69c" d="m488.9 443.8.9.6-2.2 6.5q-2.9 8.3-3.4 12.7A27 27 0 0 0 487 478l.5 1-1-.3-3.3-.8.4 1.6.7 2.3.3 1-3.1-1-1.3-.3.4 1 1.6 3.1-3-1.2-.5-.2q.8 2.5.8 4 0 .3-.2.5h-.6l-.5-.3-1.1-1-.6-.5v.1l-.4 3.5-.4 1.6-.7-1.6c-4.3-9.8-3.4-20 3-32a64 64 0 0 1 10.9-14.7M476 486.3h.5v-.1q.2 0 .1-.5v-.2l.1.2 1 1 .6.4q-.2-1.3-1-3.7l-.4-1 2.7 1 .4.2-.4-.8-1.4-3 3.4 1 1.4.3-.5-1.4-.4-1.7v-.7q0-.6.6-.6l2.9.7a28 28 0 0 1-2.5-14q.5-4.6 3.5-13l1.4-4a66 66 0 0 0-9 12.7c-5.8 11-7 20.3-3.8 29.3l.4-2.9q0-.3.4-.3l.5.2zm21.7-64.2c0 .5 1 9-3.7 11.5-1.1.5-3.7 1-3.5 3 .7 2.7 1.8 2.5 4 2.3 5.3-.6 11-10 3.2-16.8"/><path fill="#9ca69c" d="m497.1 422-.1-1.1 1 .7c4 3.3 5 6.7 3.5 11.4-1.6 4.4-3.6 6.2-7 6.5h-.2q-1.8.1-2.6-.1-1.3-.6-1.8-2.7-.4-2 3-3.3l.7-.3h.1c2-1 3-2.7 3.5-6.1zm1.1 1.3v4c-.6 3.8-1.8 5.8-4 6.9l-.9.3q-2.6 1-2.4 2.1.3 1.5 1 1.7.5.3 2 .1h.3c3-.3 4.7-2 6.2-5.9 1.1-3.8.5-6.4-2.2-9.2"/><path fill="#fff" d="M488.9 428.8q-.2 1.8-2 1.7a2.5 2.5 0 0 1-2-2.3q.2-1.8 2-1.7 1.8.5 2 2.3"/><path fill="#d90000" d="M481 435.4c-1.7 1.3-7.7 6.5-1.5 10.7 6.8-1 5.2-2.3 6.6-3.8-.4-3.2-3.2-4.6-5.2-6.9"/><path d="m480.6 435 .4-.3.4.4q.5.8 2 2 3.2 2.9 3.2 5.3v.2l-.2.2-.6 1c-.8 1.5-2.5 2.3-6.1 2.8h-.4q-2.5-1.5-3-3.5-.5-1.7.5-3.7a12 12 0 0 1 3.8-4.4m.3 1.2a11 11 0 0 0-3.1 3.8q-.9 1.6-.5 3t2.3 2.5q4.4-.7 5.2-2.3l.7-1.2q-.2-1.7-2.8-4z"/><path fill="#9ca69c" d="M495.6 505.3c-.4 1.6-1.6 6.7.2 11.7 6-1.5 8.3-.5 10.5 1.1a63 63 0 0 1-10.7-12.8"/><path fill="#9ca69c" d="m495 505 .3-1 .7 1q4.4 6.6 10.6 12.7l-.6.8c-2.5-1.8-5.4-2.1-10-1l-.4.1-.3-.5a19 19 0 0 1-.3-11.8zm.9 1.6q-1.2 5.8.2 9.7 4.4-1 7.5-.2a83 83 0 0 1-7.7-9.5"/><path fill="#fff" d="m505.6 533.9.3 13.4c.2 0 4.5 1.3 6.7 1 2-1 0-8.9-7-14.4"/><path fill="#fff" d="M505 533.8v-1l.9.6c3.2 2.6 5.4 5.4 7 9.2q1 2.4 1 4 0 2-1.1 2.2-2.2.5-7-1l-.4-.2zm1.2 1.2.3 11.9a13 13 0 0 0 5.9.8q.4 0 .4-1.2 0-1.5-.9-3.6a21 21 0 0 0-5.7-8"/><path fill="#9ca69c" d="M538.5 540.6c-.1-.3-8.4-21.6-29.8-30.6s-18.6-31-16.8-32.6c1-2.1 1.5-4.6 7.8-1 6.2 4 34.5 22.8 38.6 24.3 3.9 2.3.5 39.6.2 39.9"/><path d="M538 540.7a57 57 0 0 0-29.4-30.1 28 28 0 0 1-17.5-19.6q-1.1-4.7-.9-9.3.3-3.9 1.2-4.7l.2-.4q1-2 2.2-2.5 2.1-.5 6 1.9l7.3 4.7a386 386 0 0 0 31.3 19.5c2 1 2.7 7.5 2.2 21.3q-.3 6.7-.9 13.4l-.4 4.3-.1 1.2-.1.3-.1.2-.3.2q-.4 0-.6-.3zm.3-2.1.4-4 .8-13.4c.5-13 0-19.2-1.3-20q-3.2-1-31.6-19.6l-7.2-4.7q-3.5-2.2-5.1-1.7-.8.3-1.7 2l-.2.5v.1h-.2q-.6.6-.9 4.1-.3 4.4.8 9c2.5 9 7.8 14.9 16.8 18.6a54 54 0 0 1 23.2 18.7q4 5.6 6.2 10.4"/><path fill="#d90000" d="M518.2 511.4c.2.5 27.8 21.4 19.8 35.4 8-4.9 5.7-14.1 5.6-14.5.2.4 6.5 18.4-9.6 25.3 1.8 1.8 2.8 1.7 2.9 1.7l-2.8 2.4s-1.3 1.8 9.8-1.9c-3 2.2-3.3 3.7-3.3 3.8 0 .2.7 2.3 8-2.8a53 53 0 0 0-5.4 6l-1.7 2.6c16 .4 49.6-45.7-10.8-70.9l2.8 3.4z"/><path d="m517.8 510.9 14.9-9.2-2.4-2.8-1.3-1.7 1.9.8q21.2 8.7 29.8 21.8a32 32 0 0 1 4.6 23.8 39 39 0 0 1-9.9 19c-5 5.1-9.3 7.4-13.7 7.3h-.2q-.5 0-.5-.6v-.5h.2q1.2-2.2 3.5-4.8-1.6.7-2.7.8-1.5 0-2-1v-.3q.2-1 1.2-2.1-4.6 1.3-6.3 1.4-1 0-1.3-.7v-.8l2-1.7q-.9-.4-2-1.6l-.6-.6.7-.3c6.8-2.8 10-7.3 10.7-14.6v-3.9c-.8 4.1-2.6 6.7-6 8.7l-.8-.8c4.7-7.9-1.2-18.5-18.5-33.6l-1-.8-.2-.3-.2-.1v-.3q-.1-.3.1-.5m24.7 58c3.9-.4 7.6-2.6 12-7.2q7.7-8 9.8-18.4c1.5-8.4 0-15.7-4.5-23a60 60 0 0 0-27.3-20.5l1.2 1.6.3.3q.3.5-.2.8h-.1l-14.7 9 .7.6c16.4 14.2 22.7 24.8 19.9 33 2.2-1.9 3.3-4 3.8-7.3q.3-3-.3-5.4l1-.2q1.7 4.9 1.4 10.5c-.6 7.5-4 12.2-10.5 15.2q1 .9 1.7.8l.6 1-2.2 2q2.2-.3 8.5-2.4l.6 1q-2.6 1.9-3 3.3h.6q2 0 6.5-3.3l.7 1q-4.4 4.2-6.5 7.5"/><path fill="#fff" d="M519.4 506.4c4 3.6 5.3 4.7 5.9 6.2a33 33 0 0 0-7-1.7s-7.8-8.6-9.1-9.6c-1-.4-7-5-7.1-5-2.9-2.4-6-12.7 5.4-8.4a149 149 0 0 0 13.1 8.1l13.7 6.5 8 10.3c-.1 0-14.2-9-15.9-9.7 3.8 4 6 8.5 6 8.6-4.4-2-8.3-3.8-13-5.3"/><path d="M521.7 507.8q3.7 3.2 4 4.7l.4 1-1-.4q-3.5-1.3-6.7-1.6h-.2l-.2-.2q-7.5-8.5-9-9.5-1.3-.5-7.2-5a7 7 0 0 1-2.2-3.2 9 9 0 0 1-.7-4.2q.4-2.4 2.4-3 2.3-.7 6.3 1 11.6 7.4 13.1 8.1l7 3.3 7 3.3 4 5.2 4 5.2-.7.7q-9.6-6.2-13.3-8.4a33 33 0 0 1 4.2 6.7l.6 1.2-1.2-.5-.9-.4zm-2.6-1 .4-.9q4.3 1.4 11.8 4.7a32 32 0 0 0-5.2-7.1l-1.4-1.3 1.7.4q1.7.4 13.5 8l-2-2.6-3.9-5-6.6-3.2-7-3.3q-1.6-.8-13.1-8c-2.6-1.1-4.2-1.4-5.6-1q-1.5.4-1.7 2.2-.2 1.5.6 3.6.7 1.8 1.7 2.5h.1a43 43 0 0 0 6.8 5h.2q1.4 1 9.2 9.6 2.5.3 5.4 1.2-1.2-1.5-4.3-4.3zM464.6 434c.2 0 13.4-1 15.2-.5z"/><path fill="#fff" d="M464.5 433.5q13.6-1.3 15.4-.5l-.3 1q-1.5-.7-14.8.6z"/><path fill="#1a1a1a" d="M8 195.3c170.8-85.3 341-54.5 513.3-28C676.5 191 833.4 211.8 992 132.7v672c-170.8 85.3-341 54.5-513.3 28C323.5 809 166.6 788.1 8 867.2zm31.3 19.3v604.5c306.5-128.2 611.1 96 921.5-33.7V180.9C654.2 309 349.5 84.9 39.3 214.6" opacity=".2"/></svg>