<svg xmlns="http://www.w3.org/2000/svg" viewBox="0 0 1000 1000"><path fill="#fff" d="M8 195c171-85 341-54 513-28 155 24 312 45 471-34v672c-171 85-341 54-513 28-155-24-312-45-471 34z"/><path fill="#0038a8" d="M372 221c204 22 411 91 620-14v75c-205 102-408 37-620 13zm0 149c204 23 411 91 620-13v74c-205 103-408 37-620 14zM8 569c171-86 341-55 513-28 155 23 312 44 471-35v75c-171 85-341 54-513 28-155-24-312-45-471 34zm0 149c171-85 341-54 513-28 155 24 312 45 471-35v75c-171 85-341 55-513 28-155-24-312-45-471 35z"/><path fill="#fcd116" d="m182 367 12 17c-50 43-19 59-54 78 21-26-4-23 15-72z"/><path fill="#7b3f00" d="m183 366 13 18-1 1a96 96 0 0 0-33 50l-6 15q-4 7-16 13l-5 3 4-4q10-13 8-27-3-19 6-45l1-1h2v2q-9 23-6 44 2 12-6 24l11-10 5-14q7-28 32-51l-11-16-1-1zm-1 1-8 7c-13 25-15 43-17 57q-1 10-5 18-1 5-6 10c25-17 1-35 48-75zm0-1 13 18-1 1q-16 14-25 28l-8 22-4 13q-3 6-11 11l-4 3 4-4 6-9 4-18v-1l5-25q4-15 13-31h-1zm-7 7v1a150 150 0 0 0-18 57l-4 18-4 6 7-8 4-12 8-22q9-15 25-29l-11-16zm-1 1q-12 24-17 56-4 24-17 33l-1-2q12-7 15-31 5-33 18-57z"/><path fill="#fcd116" d="m190 330-24 3 24 132 24-138zv135z"/><path fill="#7b3f00" d="m189 328 27-2-26 146-25-140zm2 3v120l22-122zm-2 121V331l-21 3zm1-122v135l24-138z"/><path fill="#fcd116" d="m159 353-4 23c-61 1-52 38-87 32 31-10 13-25 58-54z"/><path fill="#7b3f00" d="m160 354-4 23h-1q-31 0-55 21l-14 10q-7 3-19 2l-4-1 5-2q15-4 23-19 12-21 35-35l1-1 1 2-1 1q-22 14-34 34-8 13-20 19l13-2 13-10q24-21 55-21l4-22v-1h3zm-1-1h-9v1c-26 11-39 25-50 36q-8 9-15 14-5 4-11 5c26 0 25-32 81-33zm1 0-5 23q-21 1-36 8l-19 13-12 9q-6 4-14 4h-4l4-2q6-1 10-4 6-4 15-14l1-1 20-18q13-10 29-18zm-10 1a132 132 0 0 0-49 36l-1 1-15 14-7 3q6 0 10-3l11-8q12-10 20-14 15-7 36-8l4-21zm0 0q-25 10-49 36-20 20-33 20v-3q13 0 31-19 25-25 50-37z"/><path fill="#fcd116" d="m190 330-17-16-76 129q54-53 110-98z"/><path fill="#7b3f00" d="m190 328 19 17q-58 45-117 104 40-70 81-137zm0 3q-41 46-83 101 48-47 98-87zm-85 99q41-52 84-100l-16-14zm85-100 17 15zq-47 51-93 113 54-53 110-98z"/><path fill="#fcd116" d="m155 326-18 16c-37-44-57-5-69-37 22 15 23-13 68-4z"/><path fill="#7b3f00" d="m155 327-19 16a55 55 0 0 0-45-23l-14-1q-6-2-10-14l-2-4 4 2q10 7 24 1 21-9 43-4h1l-1 3h-1q-22-5-42 4-12 5-22 1 3 6 8 8 3 2 13 2 25-1 45 22l17-15 1-1 1 2zm0-1-6-7c-23-10-40-8-53-6q-10 2-17 1-4 0-9-4c13 22 33-9 67 32zm0 0-19 16q-12-15-25-20-8-3-20-2l-12-1q-6-2-9-8l-2-4 3 3 8 4 18-2 23-1q15 1 29 7zm-6-6a87 87 0 0 0-53-6l-17 1-6-2 7 5h11q13 0 20 3 13 5 26 20l17-15zm0-1q-22-10-52-6-24 3-30-7l2-2q6 10 28 6 31-3 53 7z"/><path fill="#fcd116" d="M190 330v-25q-65 19-132 55 65-11 132-6z"/><path fill="#7b3f00" d="M191 328v28q-68-7-140 7 70-40 140-60zm-2 3q-58 6-118 26 58-9 118-4zM71 354q58-19 118-26v-21q-58 16-118 47m119-24v24zq-65 5-132 30 65-11 132-6z"/><path fill="#fcd116" d="m171 300-21-1c9-64-27-50-10-87 0 31 18 11 37 54z"/><path fill="#7b3f00" d="m171 301-23-1v-1q6-33-8-54l-6-13q-1-8 5-20l2-6v6q0 15 11 21 17 10 26 32v1l-2 1v-1q-9-21-26-31-9-5-11-18-3 8-2 14 0 4 5 12 14 22 9 55l20 1h1zm0-1 2-10h-1c-6-25-17-37-25-47q-6-7-9-14l-1-10c-9 28 21 21 13 80zm0 1-22-1v-1q3-22 0-36-2-9-8-19l-6-10q-1-7 1-15l2-5-1 5 2 10 9 14 13 18q8 12 12 29v-1zm1-10a111 111 0 0 0-24-46l-1-1-9-13-2-7v10l5 11q7 10 9 18 3 15 0 37h20zm0-1q-6-24-24-46-15-17-10-32h3q-5 14 9 30 18 23 25 47z"/><path fill="#fcd116" d="m190 330 17-19q-54-35-110-59 37 45 76 97z"/><path fill="#7b3f00" d="m192 329-19 22q-40-54-81-103 58 24 117 62zm-3 1q-41-38-84-70 34 41 68 87zm-82-72q41 31 83 70l15-17q-48-31-98-53m83 72-17 19zq-47-43-93-78 37 45 76 97z"/><path fill="#fcd116" d="m198 292-12-17c49-42 20-61 55-74-22 23 3 23-15 70z"/><path fill="#7b3f00" d="m197 293-12-18 1-1q26-22 32-48l6-15q5-7 16-11l5-2-3 4q-11 10-9 25 3 20-6 44v1h-3l1-2q9-22 6-43-1-12 6-23-8 4-11 8-3 5-5 14-8 27-33 49l11 16 1 1-2 2zm1-1 8-6c14-24 16-42 18-56l4-17q3-6 7-9c-25 13-3 32-49 71zm0 1-12-18q18-14 25-29 5-8 8-20l4-13q4-6 11-10l5-2-4 3q-5 4-6 9l-5 17v1l-4 24q-5 15-13 30v1zm7-7a142 142 0 0 0 17-55l5-18 3-6-7 8-4 12q-3 13-8 21-7 13-25 28l12 16zm1 0q13-24 18-55 4-24 16-31l1 2q-11 6-15 30-4 31-18 55z"/><path fill="#fcd116" d="m190 330 24-3-24-133-24 139zV194z"/><path fill="#7b3f00" d="m191 331-26 3 25-147 26 142zm-2-3V208l-21 123zm2-120v120l22-2zm-1 122V194l-24 139z"/><path fill="#fcd116" d="m221 307 4-22c60 7 55-27 87-9-29-2-14 17-58 36z"/><path fill="#7b3f00" d="m220 307 5-23h1q31 4 54-9 9-5 14-6 9-1 19 6l5 2h-6q-15-1-23 10-12 17-34 26l-2 1v-2l1-1q21-9 34-25 7-11 19-12-7-3-13-2-5 0-12 5-23 13-56 10l-4 20v2l-2-1zm1 0 10 2v-1c25-7 39-18 50-26l15-9h10c-25-11-25 18-81 12zm0 1 4-23h1q21 2 35-1l20-9 11-5q7-1 14 2l5 2-5-1-10 1-15 9h-1l-19 13q-13 8-30 12l1 1zm9 0a145 145 0 0 0 49-26q10-8 16-9l6-1-10-1-11 5-20 9q-14 3-35 1l-4 21zm1 0q24-7 49-25 19-15 33-8l-1 2q-12-5-31 8-24 18-50 25z"/><path fill="#fcd116" d="m190 330 17 15 77-115q-55 37-111 84z"/><path fill="#7b3f00" d="m190 331-19-17q58-48 118-88l-82 121zm0-3q41-46 84-89-49 34-99 75zm85-87q-41 40-83 88l15 14zm-85 89-17-16zq46-52 94-100-55 37-111 84z"/><path fill="#fcd116" d="m226 335 18-13c36 50 57 21 68 57-21-22-23 1-67-16z"/><path fill="#7b3f00" d="m225 334 19-13 1 1q18 26 44 33 11 4 14 7 7 5 11 17l1 5-3-4q-10-10-25-9-19 2-43-7l-1-1 1-2 1 1q23 8 42 6 13-2 23 7-4-8-8-11l-13-6q-27-9-45-34l-17 12-1 1zm1 1 5 8h1c22 13 39 15 52 18q10 1 18 5l8 7c-12-26-32-4-66-51zm-1 0 19-13q13 17 26 25 7 5 19 9l12 5q6 4 9 12l2 4-2-4-9-7-17-5h-1q-14-2-22-5-15-4-29-12h-1zm6 7a138 138 0 0 0 53 18l17 5 5 4-6-7-12-5q-12-4-20-9-13-8-25-25l-17 12zm1 1q21 12 52 18 23 4 30 18l-3 1q-6-12-28-17-30-6-53-18z"/><path fill="#fcd116" d="M190 330v24q66-18 133-26-66-17-133-23z"/><path fill="#7b3f00" d="M189 331v-27q69 5 140 25-68 7-140 27zm2-3q58-6 118-2-58-14-118-20zm118 1q-58-4-118 2v22q58-17 118-24m-119 1v-25zq66-7 133-2-66-17-133-23z"/><path fill="#fcd116" d="m210 360 21 3c-9 62 26 54 10 88 0-31-19-13-37-57z"/><path fill="#7b3f00" d="m210 358 22 4v1q-4 33 8 56 6 9 6 14 2 7-4 19l-2 5v-6q0-15-11-23-18-12-26-34l-1-1 2-1 1 1q9 22 25 33 11 8 12 20 3-7 2-13l-6-13q-13-23-9-56l-20-3h-1l1-3zm0 2-2 9c7 26 17 39 25 50l9 15 2 11c9-27-22-24-13-82zm-1-1 22 3v1q-3 21 1 36 2 8 8 20 5 8 5 12 2 6-1 14l-2 5 1-5-1-10-9-15-1-1-13-19q-7-13-11-30h-1zm0 10a123 123 0 0 0 24 49v1l10 15 1 7v-10q0-4-5-12l-9-19q-3-15 0-37l-20-3zm-1 0q6 25 24 49 15 19 10 34l-2-1q4-13-9-31-19-25-25-50z"/><path fill="#fcd116" d="m190 330-17 19q55 31 111 73l-77-111z"/><path fill="#7b3f00" d="m189 330 18-21q40 55 82 118-58-43-118-78zm3-1 83 82-68-99zm82 84q-41-42-84-82l-15 18q49 28 99 64m-84-83 17-19zq46 42 94 92l-77-111z"/><path fill="#fcd116" d="M234 326c0 26-19 46-44 49-24 2-44-14-44-39s20-49 44-52c25-2 44 17 44 42"/><path fill="#7b3f00" d="M236 326q-1 19-14 34-13 13-32 16-18 1-32-9-13-12-13-31t13-35 32-18 32 11 14 32m-3 0q0-18-12-30-13-12-31-10-18 1-30 16t-13 34 13 29 30 8 31-15 12-32m-10-17c-3 3-5-2-15-2-10 2-11 7-13 6-1-1 8-8 12-10 3 0 12 2 16 6m-12 4q4 6-2 8c-3 0-8-4-6-7zm-13 5q1-6 11-7c6 0 9 5 11 6-3 0-5-4-11-4-7 1-7 1-11 6zm1 1c2-2 3 2 8 2q7 0 10-4c2-2-4 5-9 6q-9 0-9-4m14 2c5-4 2-7 0-8q3 2 0 8m-23 26 7-1c3 0 10 3 15 1-9 5-6 2-22 3l-2 1zm23 4-4-6q4 2 4 6m-23 6c10-1 9-3 22-10-10 2-12 6-22 7h-2zm0-15 7-3 10 2q0-2-5-3c-3-1-2-5-5-6l1 3q-1 4-4 1-1 4-4 3zm-32-26c3 2 4-3 14-5 10-1 12 4 13 3s-8-7-11-7c-4 0-12 4-16 9m11 2q-2 6 3 7 6-2 5-9zm14 2q-2-7-11-5-9 4-12 8l12-6c6 0 6 0 11 3m-2 1c-1-2-3 2-8 4l-9-2c-3-2 4 3 8 3q9-2 9-5m-13 4c-5-2-2-6 0-7-1 1-4 5 0 7m22 22h-6c-3 1-11 6-15 5 9 2 5 0 21-2h2zm-23 9 4-7q-4 4-4 7m23 1c-10 1-8-1-21-5 9 0 11 3 21 2h2zm0-15-7-1q-5 1-9 4-1-2 4-5c3-1 2-5 6-7l-2 4q2 3 5-1-1 5 3 3zm0 19c-2 0-7 2 0 1s2-1 0-1"/></svg>