<svg xmlns="http://www.w3.org/2000/svg" viewBox="0 0 1000 1000"><path fill="#fff" d="M8 195.3c170.8-85.3 341-54.5 513.3-28C676.5 191 833.4 211.8 992 132.7v672c-170.8 85.3-341 54.5-513.3 28C323.5 809 166.6 788.1 8 867.2z"/><path fill="#0038a8" d="M372.4 220.8C576 243.4 782.5 311.9 992 207.4v74.7c-205.1 102.3-408.3 36.8-619.6 13.4zm0 149.3C576 392.7 782.5 461.3 992 356.7v74.7c-205.1 102.4-408.3 36.9-619.6 13.4zM8 568.6c170.8-85.2 341-54.4 513.3-28 155.2 23.9 312.1 44.6 470.7-34.5v74.6c-170.8 85.3-341 54.5-513.3 28C323.5 585 166.6 564.1 8 643.2zm0 149.3c170.8-85.2 341-54.4 513.3-28 155.2 23.9 312.1 44.6 470.7-34.5v74.7c-170.8 85.2-341 54.4-513.3 28C323.5 734.2 166.6 713.4 8 792.6z"/><path fill="#fcd116" d="m182 367 12 17c-50.2 42.8-19.4 59.4-54.4 78.3 21.6-26.1-3.3-23 15-72z"/><path fill="#7b3f00" d="m183 366.1 12.7 18.1-1 .8a96 96 0 0 0-32.6 49.8q-2.7 10.5-5.7 15.1a45 45 0 0 1-16.4 13.5l-5 2.6 3.8-4.4c7-8.6 9.6-17 8.4-26.3q-3-20.6 6.3-45.2l.4-1.2 2.3.5-.5 1.2q-9 24-6.1 44a34 34 0 0 1-5.8 24q7.2-4.7 10.7-9.8 2.7-4.4 5.3-14.3a99 99 0 0 1 32.6-50.6L181 367.7l-.7-.9 2-1.6z"/><path fill="#7b3f00" d="m182 367-8 6.6.4.2c-13.5 24.8-15.9 42.8-17.8 56.7-1 7-2 13-4.2 18.4a33 33 0 0 1-6.5 9.7c24.8-17 1.6-34.9 48.2-74.5z"/><path fill="#7b3f00" d="m182.1 366.2 12.7 18-.4.3a108 108 0 0 0-25.1 29 92 92 0 0 0-7.9 21.2 65 65 0 0 1-4.3 13q-3.6 6.2-11 11.4l-4.3 2.8 3.7-3.7q4.1-4.2 6.4-9.4a86 86 0 0 0 4.1-18.2l.1-1q2.1-15 4.7-24.1 4.3-15.8 12.8-31.5l-.6-.2 8.7-7.3zm-7 7.2-.3.6a150 150 0 0 0-17.7 56.5 87 87 0 0 1-4.2 18.5q-1.5 3.4-3.6 6.4 4.4-3.8 6.8-8.2 2-3.8 4.3-12.6 3.3-13.2 8-21.7 7.9-14.3 24.9-28.9l-11.5-16.3z"/><path fill="#7b3f00" d="M174.4 373.8a165 165 0 0 0-17.7 55.8c-2.5 16.8-7.9 27.5-16.6 33.7l-1-2c7.9-5.7 12.8-15.8 15.2-31.7q4.5-32 18-56.8z"/><path fill="#fcd116" d="M190.2 329.5a617 617 0 0 0-24 3l24 132.5 24-137.5q-11.8.8-24 2V465z"/><path fill="#7b3f00" d="M189 328.4a646 646 0 0 1 26.7-2.3L190.2 472l-25.5-140.4q12-1.8 24.3-3m2.4 2.1v120.7l21.4-122.5zM189 451.5V330.9q-10.5 1-21.4 2.7z"/><path fill="#7b3f00" d="M190.2 329.5V465l24-137.5q-11.8.8-24 2"/><path fill="#fcd116" d="M159.2 353.4 155 376c-61 .7-52.1 38-87 32.5 30.7-10.6 13.1-25 58.4-54.8q16.1-.5 32.8-.2"/><path fill="#7b3f00" d="m160.4 353.5-4.5 23.7h-1.1a82 82 0 0 0-54.7 20.7q-8.8 7.7-13.8 10a33 33 0 0 1-18.9 1.8l-4.5-.8L68 407a42 42 0 0 0 23-18.7 111 111 0 0 1 34.9-35.8l1.1-.7 1 2-1.2.8A107 107 0 0 0 93 389.3a46 46 0 0 1-20 18.3q7.4.4 13-2 4.6-2.2 13-9.5c15.9-13.7 34-21 55.1-21.4l4-21.3.3-1.2h2.3z"/><path fill="#7b3f00" d="m159.2 353.4-9.5-.1v.4c-25.3 11-39.1 25.5-50 36.7-5.3 5.6-10 10.4-15 13.9a33 33 0 0 1-10.5 4.7c26.3.4 24.3-32.4 80.8-33z"/><path fill="#7b3f00" d="m159.8 352.9-4.4 23.6h-.5q-20.9.3-35.6 7.3a96 96 0 0 0-19.5 13.6q-7.5 6.6-11.5 8.9c-4.5 2.3-9 3.3-14.3 3.3l-4.4-.1 4.6-1q5.3-1.4 10.3-4.7 5.1-3.5 15-13.8l.7-.8q11.5-11.9 19.4-18.1a134 134 0 0 1 29.5-17.7l-.2-.7 10.4.2zm-9.4 1-.5.3a132 132 0 0 0-29.8 17.8 217 217 0 0 0-19.2 18l-.8.7a124 124 0 0 1-15.2 14 36 36 0 0 1-6.5 3.6q5.2-.7 9.6-3a82 82 0 0 0 11.3-8.7q11.1-9.6 19.8-13.8a84 84 0 0 1 35.4-7.4l4-21.4z"/><path fill="#7b3f00" d="M149.8 353.7q-24.8 10.7-49.3 35.9c-13 13.4-23.7 20-33 20l.9-2.5c8.4-.1 18.3-6.3 30.7-19a159 159 0 0 1 50-36.7z"/><path fill="#fcd116" d="m190.2 329.5-17-15.4a3813 3813 0 0 0-76.5 129.1 1268 1268 0 0 1 110.5-97.8z"/><path fill="#7b3f00" d="m190.2 327.8 18.9 17.6c-38.7 30.3-77.3 64-117.2 104 26.8-47.5 53.6-92.6 81.2-137.2zm0 3.5A2026 2026 0 0 0 107 431.6a1231 1231 0 0 1 98.4-86.2zm-85 99c27.5-35.4 55-68.5 83.3-100.6L173.4 316a3827 3827 0 0 0-68.1 114.3"/><path fill="#7b3f00" d="m190.2 329.5 17 16za2073 2073 0 0 0-93.5 113.7 1268 1268 0 0 1 110.5-97.8z"/><path fill="#fcd116" d="m154.6 326-18 15.6c-36.2-43.2-56.8-5-68.6-37 22.2 15.2 22.6-12.7 67.6-3.2z"/><path fill="#7b3f00" d="m155.3 326.8-19 16.6-.7-.9Q116.9 320 91 320.2q-9.8.3-13.9-1.4-6.4-3-10.2-13.4l-1.6-4.5 3.6 2.6c7 4.7 14.6 5 24 .9 13.9-6 28-7.5 43.1-4.3l1.1.3-.9 2.5-1-.3a67 67 0 0 0-42 4.1c-8.5 3.7-15.6 4.1-22.3 1.2q3.2 6.4 7.7 8.4 3.7 1.5 13 1.4c17.7-.4 32.4 7.1 45.3 22.2l17-15 1-.8 1.4 1.9z"/><path fill="#7b3f00" d="m154.6 326-5.5-7.3-.2.4a90 90 0 0 0-52.9-6c-6.7.9-12.3 1.7-17.2 1q-4.7-.7-8.3-3.9c12.3 21.5 32.3-8.9 66 31.4z"/><path fill="#7b3f00" d="m155.3 326-18.9 16.4-.3-.4a64 64 0 0 0-25.2-19.9q-7.5-2.8-19.7-2.6a47 47 0 0 1-12-.8 16 16 0 0 1-9.2-8l-2-3.8 2.9 2.8q3.3 3 8 3.8a77 77 0 0 0 18.1-1.1q14.2-1.7 22.8-1.2 14.6 1 28.9 7.2l.3-.7 6 7.8zm-6.2-6.3v.2l-.5-.2a87 87 0 0 0-51.7-6.2l-1 .1q-12.3 1.7-17.3 1-3.1-.5-5.6-1.7 2.9 3.5 6.8 4.7 3.3 1 11.6.8 12.5-.3 20 2.6a65 65 0 0 1 25.3 19.8l17.1-14.9z"/><path fill="#7b3f00" d="M148.9 319.1a97 97 0 0 0-52-6.2c-16 2-25.6.1-30-7.3l2.2-1.9c4 6.9 13 8.6 28.2 6.7a98 98 0 0 1 52.8 6.4z"/><path fill="#fcd116" d="M190.2 329.5V305A628 628 0 0 0 58 360.2c43.7-8.2 87.3-9.7 132.3-6z"/><path fill="#7b3f00" d="M191.4 328.2v27.3a493 493 0 0 0-140.2 7.2 630 630 0 0 1 140.2-59.4zm-2.4 2.7a539 539 0 0 0-117.7 25.7c38.8-6 77.7-7 117.7-3.8zM71.3 354A540 540 0 0 1 189 328.4v-21.9a630 630 0 0 0-117.7 47.6"/><path fill="#7b3f00" d="M190.2 329.5v24.7zA534 534 0 0 0 58 360.1c43.7-8.1 87.3-9.6 132.3-6z"/><path fill="#fcd116" d="M170.9 300.1q-10.4-.6-21.3-1c9.4-63.8-26.4-50.1-10-87.2-.1 31.2 18.4 10.6 37.2 53.8z"/><path fill="#7b3f00" d="M170.6 301.3a580 580 0 0 0-22.4-1l.2-1.2q5-33.1-8.4-54.4a37 37 0 0 1-5.9-13q-1-8 4.4-20.2l2.4-5.1-.1 5.3c0 10.2 3.5 16.9 11 21.5A66 66 0 0 1 178 265l.4 1-2.2 1.3-.4-1.1a63 63 0 0 0-25.3-30.9 24 24 0 0 1-11.7-18.2q-2.9 8.1-2.2 13.7.7 4.5 5.5 12.2 13.6 21.6 9 54.8 9.8.3 20 1h1.3l-.5 2.5z"/><path fill="#7b3f00" d="m170.9 300.1 1.7-10-.4.2a106 106 0 0 0-24.8-47.3c-4-4.9-7.3-9-9.2-13.7a24 24 0 0 1-1.3-10.5c-9 28.6 21.4 20.8 12.7 80.3q10.4.3 21.3 1"/><path fill="#7b3f00" d="M171.3 300.7q-11-.7-22.3-1v-.5a99 99 0 0 0 0-36.5 66 66 0 0 0-8.5-18.4 44 44 0 0 1-5.3-10.7c-1-4.4-.6-9.1 1.2-15l1.6-4.8-.6 4.9q-.5 5.6 1.3 10.2 1.9 5 9.2 13.6l.5.7q8.6 10.3 12.8 17.7 7.4 12.7 11.4 28.6l.7-.3-2 10.9zm.6-9.7-.2-.5a111 111 0 0 0-11.3-28.9q-4.3-7.3-12.7-17.5l-.6-.7q-7.4-9-9.3-13.8-1.2-3.1-1.4-6.4a24 24 0 0 0 0 9.9q.9 3.8 5.2 10.5 6.3 10.2 8.5 18.6a99 99 0 0 1 .2 36.4l20.2.9z"/><path fill="#7b3f00" d="M172.2 290.3q-6.2-24.7-24.2-46.7c-9.6-11.6-12.6-21.7-9.5-32l2.2.5c-2.8 9.2.2 18.6 9.2 29.7a121 121 0 0 1 24.6 47.5z"/><path fill="#fcd116" d="m190.2 329.5 17-19c-36.4-23-73-43-110.5-59q37.7 45.2 76.5 97.5z"/><path fill="#7b3f00" d="M192 329.3 173 351q-39.8-54-81-102.9c38.6 16 77.3 36.9 117.1 62.1zm-3.5.4q-41-37.8-83.2-70a2217 2217 0 0 1 68 87.3zM107 257.6c27.5 20.9 55 44.1 83.3 70.2l15.1-17a796 796 0 0 0-98.4-53.2"/><path fill="#7b3f00" d="m190.2 329.5-17 19.5za1146 1146 0 0 0-93.5-78q37.6 45.2 76.5 97.5z"/><path fill="#fcd116" d="M198.5 292.2 186.4 275c48.4-41.6 19.9-61.1 54.4-74-21.6 22.6 3.1 23.5-15 69.8z"/><path fill="#7b3f00" d="m197.5 293-12.7-18.1.9-.8a95 95 0 0 0 32.7-48.6A49 49 0 0 1 224 211q5-6.8 16.5-11.1l4.9-1.8-3.7 3.8c-7 7.4-9.7 15.4-8.4 25q3 20.9-6.3 44.3l-.5 1.2-2.2-.8.5-1.2q9-22.9 6-43.1c-1-8.7.8-16.1 5.8-23.2q-7.2 3.5-10.7 8.3a47 47 0 0 0-5.2 13.7 97 97 0 0 1-32.7 49l11.5 16.3.6 1-2 1.6z"/><path fill="#7b3f00" d="m198.5 292.2 7.9-6.3-.3-.2c13.4-24 15.8-41.5 17.8-55.3 1-7 2-12.7 4.2-17.9q2.1-4.9 6.5-8.7c-24.9 13.4-2.9 32.1-48.2 71.2z"/><path fill="#7b3f00" d="m198.3 293-12.6-18 .4-.4c11.4-9.9 19.7-19 25-28.2q4.6-8 8-20.7 2.1-8.8 4.3-12.4 3.5-6 11-10l4.2-2.2-3.7 3.1a26 26 0 0 0-6.3 8.5 80 80 0 0 0-4.2 17.8l-.1 1q-2.1 14.5-4.6 23.5-4.4 15.2-12.9 30.5l.6.3-8.6 6.8zm7.1-7 .2-.6a142 142 0 0 0 17.8-55 79 79 0 0 1 4.2-18q1.5-3.2 3.5-6c-3 2.3-5 4.6-6.8 7.4a56 56 0 0 0-4.2 12.1 87 87 0 0 1-8 21 116 116 0 0 1-25 28.1l11.5 16.4z"/><path fill="#7b3f00" d="M206 285.7a156 156 0 0 0 17.8-54.4c2.5-16.5 7.8-26.6 16.5-31.3l1 2.1c-7.9 4.3-12.8 13.8-15.1 29.5q-4.7 31.4-18 55.2z"/><path fill="#fcd116" d="M190.2 329.5q12-1.2 24-2l-24-133.5-24 138.5a598 598 0 0 1 24-3V194z"/><path fill="#7b3f00" d="M191.4 330.6q-13.1 1.4-26.7 3.4l25.5-147 25.5 141.5q-12 .8-24.3 2m-2.4-2.2V207.8L167.6 331q10.6-1.5 21.4-2.7m2.4-120.9v120.7l21.4-1.9z"/><path fill="#7b3f00" d="M190.2 329.5V194l-24 138.5a598 598 0 0 1 24-3"/><path fill="#fcd116" d="m221.2 307.2 4.3-22c59.8 6.6 55-27.6 87-9.5-30-1.8-14.8 17.3-58.4 36.5a759 759 0 0 0-32.9-5"/><path fill="#7b3f00" d="m220 307 4.5-23.2 1.1.2a88 88 0 0 0 54.7-9.3q8.8-4.9 13.8-5.5a33 33 0 0 1 18.9 5.4l4.6 2.8-5.2-.4a25 25 0 0 0-23 10.2 84 84 0 0 1-34.8 26.2l-1.2.4-.9-2.2 1.1-.5a82 82 0 0 0 34-25.4 27 27 0 0 1 19.9-11.2 27 27 0 0 0-13-2.8q-4.6.5-13 5.2a90 90 0 0 1-55 9.7l-4 20.8-.3 1.2-2.4-.3z"/><path fill="#7b3f00" d="m221.2 307.2 9.6 1.3-.1-.4c25.4-7.5 39-17.7 50-25.7a61 61 0 0 1 15-9 23 23 0 0 1 10.6-.8c-25.6-10.3-24.8 18.8-80.8 12.6z"/><path fill="#7b3f00" d="m220.6 307.7 4.4-23.1h.5q21 2.5 35.6-1a82 82 0 0 0 19.5-8.3q7.6-4.1 11.6-5 6.5-1.4 14.2 1.8l4.5 1.9-4.7-.8q-5.2-.8-10.2.8-5.2 1.7-15 8.9l-.8.5q-11.4 8.5-19.4 12.9-13.4 7.4-29.5 12.2l.2.7-10.3-1.4zm9.4.1.5-.2a145 145 0 0 0 49-25.1l.9-.6a66 66 0 0 1 15.2-9q3.3-1 6.5-1.1a22 22 0 0 0-9.7-.5q-3.9.9-11.2 5-11.2 6.3-19.8 8.5-14.7 3.3-35.5 1l-4 21z"/><path fill="#7b3f00" d="M230.7 308.1a161 161 0 0 0 49.2-25.2c13.1-9.4 23.7-12 33-8.3l-.8 2.3c-8.5-3.4-18.3-.9-30.7 8a164 164 0 0 1-50.1 25.6z"/><path fill="#fcd116" d="m190.2 329.5 17 16 76.6-115c-36.5 24.8-73 52-110.6 83.6z"/><path fill="#7b3f00" d="m190.2 331.3-18.9-17c38.7-32.8 77.4-61.6 117.2-88.5l-81.1 121.5zm0-3.5c27.5-31 55-60.2 83.3-88.7-32.5 22.5-65 46.9-98.4 75zm85-87c-27.5 27.7-55 56.7-83.3 88.5l15.2 14.2z"/><path fill="#7b3f00" d="m190.2 329.5-17-15.4za2180 2180 0 0 1 93.6-99c-36.5 24.8-73 52-110.6 83.6z"/><path fill="#fcd116" d="m225.9 335.2 18-13c36.2 49.9 56.8 20.9 68.6 57.2-21-22.9-23.2.9-67.6-16.7z"/><path fill="#7b3f00" d="m225.2 334.3 19-13.7.7 1a86 86 0 0 0 44.6 33.7q9.8 3 13.8 6.4 6.3 5.4 10.3 17.4l1.6 5.2-3.6-4a27 27 0 0 0-24.1-9.8q-20.6 2.4-43-6.7l-1.2-.4 1-2.3 1 .4q22 8.8 41.9 6.6c8.5-1 15.6 1.3 22.4 6.9a30 30 0 0 0-7.7-11.4q-3.7-3-13-6a88 88 0 0 1-45.3-33.7l-17 12.4-1 .7-1.4-2z"/><path fill="#7b3f00" d="m225.9 335.2 5.5 8 .2-.4c22.4 13 39.5 15.6 52.8 18a65 65 0 0 1 17.3 5q4.6 2.5 8.3 7c-12.2-26-32.3-4.1-66.1-50.6z"/><path fill="#7b3f00" d="m225.1 335.1 19-13.6.2.4a99 99 0 0 0 25.3 25.6 83 83 0 0 0 19.7 8.5q8.4 2.6 11.9 5 5.6 3.8 9.3 11.7l2 4.5-3-4q-3.3-4.4-8-7-5-2.5-17.1-4.8l-1-.2a141 141 0 0 1-51.6-17.7l-.4.7-6-8.6zm6.2 7 .5.2a138 138 0 0 0 52.6 18 70 70 0 0 1 17.4 5q3 1.5 5.6 4a25 25 0 0 0-6.9-7.4A51 51 0 0 0 289 357a85 85 0 0 1-20-8.6q-12.9-8.3-25.2-25.5l-17.2 12.4z"/><path fill="#7b3f00" d="M231.6 342.8a161 161 0 0 0 52 17.9c16 3 25.6 9.1 30 18.3l-2.2.9c-4-8.3-13-14-28.2-16.8a164 164 0 0 1-52.8-18.2z"/><path fill="#fcd116" d="M190.2 329.5v24.7a807 807 0 0 1 132.3-26A797 797 0 0 0 190.2 305z"/><path fill="#7b3f00" d="M189 330.9v-27.4a808 808 0 0 1 140.2 25.2 812 812 0 0 0-140.2 27zm2.4-2.7c38.9-4 77.7-4.3 117.8-2a775 775 0 0 0-117.8-20zm117.8.4c-38.9-2.1-77.7-2-117.8 2v22a791 791 0 0 1 117.8-24"/><path fill="#7b3f00" d="M190.2 329.5V305zc43.7-4.5 87.3-4.4 132.3-1.3A797 797 0 0 0 190.2 305z"/><path fill="#fcd116" d="m209.6 359.6 21.3 3c-9.4 62.3 26.4 54.5 10 88.9 0-31.3-18.5-14-37.2-57.8z"/><path fill="#7b3f00" d="m209.8 358.4 22.4 3.3-.2 1.1c-3.2 21.8-.5 40 8.5 55.7q5 9 5.8 14 1.1 8.3-4.4 19.5l-2.3 4.8v-5.3c0-10.2-3.5-17.6-11-23.2a78 78 0 0 1-26-34l-.5-1.2 2.2-1 .5 1a76 76 0 0 0 25.2 33.2q10.2 7.4 11.8 20 2.9-7.6 2.1-13.4-.7-4.6-5.5-13c-9-16-12-34.3-9-56.2l-20-2.9-1.2-.2.4-2.4z"/><path fill="#7b3f00" d="m209.6 359.6-1.7 9.9.4-.2c6.3 25.6 16.7 39 24.7 49.9a65 65 0 0 1 9.3 15.1q1.7 5 1.2 10.8c9-27.3-21.3-24.4-12.6-82.4z"/><path fill="#7b3f00" d="m209.1 359 22.4 3.2-.1.5a100 100 0 0 0 .1 36.5A79 79 0 0 0 240 419q4.3 7.6 5.3 11.7 1.5 6.6-1.2 14.6l-1.5 4.6.5-4.8q.6-5.4-1.3-10.4a70 70 0 0 0-9.1-15l-.6-.8q-8.6-11.4-12.8-19.3-7.3-13.2-11.3-29.5l-.7.3 1.9-10.8zm-.6 9.6h.2l.1.6A123 123 0 0 0 233 418l.6.8a72 72 0 0 1 9.3 15.3 27 27 0 0 1 1.4 6.6q1-5.2 0-9.9-1-3.9-5.2-11.3-6.4-11.2-8.5-20-3.4-15-.3-36.3l-20.2-3z"/><path fill="#7b3f00" d="M208.3 369.3a139 139 0 0 0 24.2 49.1q14.1 19.3 9.5 33.4l-2.3-.7q4.3-12.9-9.2-31.1a140 140 0 0 1-24.5-50z"/><path fill="#fcd116" d="m190.2 329.5-17 19.5c36.5 21 73 45.4 110.6 73.1l-76.6-111.6z"/><path fill="#7b3f00" d="m188.5 329.7 18.9-21c26.8 37.5 53.5 76.7 81.1 118.4-38.7-28.7-77.3-55-117.2-77.7zm3.4-.4c27.5 25.4 55 52.6 83.3 82.1l-68.1-99zm81.6 83.8c-27.5-28.6-55-55.8-83.3-81.8l-15.1 17.2a1149 1149 0 0 1 98.4 64.6"/><path fill="#7b3f00" d="m190.2 329.5 17-19za1968 1968 0 0 1 93.6 92.6l-76.6-111.6z"/><path fill="#fcd116" d="M234.3 326.5a49.4 49.4 0 0 1-44 48.2c-24.6 2.3-43.9-13.7-44.2-38.8.3-25.2 19.6-48.7 44.1-51.5 24.6-2.3 43.8 17 44.1 42"/><path fill="#7b3f00" d="M235.5 326.4a48 48 0 0 1-13.2 33.4 50 50 0 0 1-32 16.1 41 41 0 0 1-32.1-9.3 39 39 0 0 1-13.3-30.5 54 54 0 0 1 13.3-35.2 48 48 0 0 1 32-17.8c12.7-1.2 23 2.5 32 11a44 44 0 0 1 13.3 32.3m-2.4 0a41 41 0 0 0-12.6-30.4 37 37 0 0 0-30.3-10.4 46 46 0 0 0-30.3 16.8 51 51 0 0 0-12.6 33.2 37 37 0 0 0 12.6 29 39 39 0 0 0 30.3 8.9c12-1.4 21.8-6.3 30.3-15.4a46 46 0 0 0 12.6-31.6"/><path fill="#7b3f00" d="M222.7 308.9c-3 3.1-4.3-2-14.4-1.5-10.1 1.2-11.6 6.7-13.3 6-1-1.6 8-8.9 11.7-10 3.5-.5 12 2 16 5.5m-11.6 4.4c2.5 2.8.5 7.2-2.4 8-3.2-.2-7.6-3.9-5.6-7.8z"/><path fill="#7b3f00" d="M197.8 318c.7-5 4.2-6 10.9-6.6 6.4 0 9.2 4.1 11.6 5.4-2.8-.1-5.2-3.5-11.6-3.3-6.4.5-6.4.5-10.9 5zm1.2 1.2c1.9-2.1 3.5 1.7 8 1.8 4.5-.5 6.8-1.7 9.7-4 2.7-2-4 4.7-8.4 5.6-4.9.1-9.9-1.4-9.3-3.4"/><path fill="#7b3f00" d="M212.7 320.6c5-3.6 2.2-6.8 0-7.8 1 1 3.6 4.3 0 7.8m-22.5 26.6c2.4-.3 3.2-1.1 6.4-1.5 3.3 0 10.7 3.2 15.3 1.7-9.3 4.3-5.6 1.5-21.7 3l-2 .3zm23.3 3.7c-1.6-2.7-1.2-2-4.4-6.2 3.2 2.3 3.9 3.3 4.4 6.2m-23.3 6.1c10-1.1 8.4-2.8 21.7-9.6-9.6 2-11.7 5.2-21.7 6.4l-2 .2zm0-15.2c2.8-.4 3.7-2.2 6.8-2.7 3.4-.2 7.4.6 9.7 2 .4 0-1.3-2.8-4.4-3.3-3.1-.7-2.2-5-5.7-6 .2 1.6 1.1 1.1 1.6 3.5-.3 2-3.2 2.3-4.4.4.6 3.3-1.4 3.4-3.6 3.7zm-32.4-26c3 2.4 4.3-2.9 14.4-4.6 10.1-1 11.5 4.3 13.2 3.2 1-1.8-8-7.2-11.6-7.6a34 34 0 0 0-16 9m11.6 1.9c-2.6 3.4-.6 7.3 2.4 7.5 3.1-.9 7.5-5.5 5.6-9z"/><path fill="#7b3f00" d="M182.6 319.7c-.7-4.9-4.2-5.2-10.8-4.4-6.4 1.2-9.3 6-11.6 7.9 2.7-.7 5.2-4.6 11.6-5.8 6.4-.9 6.4-.9 10.8 2.7zm-1.2 1.4c-1.8-1.8-3.4 2.3-8 3.4-4.5.5-6.7-.2-9.6-1.9-2.7-1.3 3.9 3.8 8.4 3.7 4.8-.8 9.8-3.4 9.2-5.2"/><path fill="#7b3f00" d="M167.8 325.3c-5-2.6-2.2-6.3 0-7.8-1 1.3-3.7 5 0 7.8m22.4 21.9c-2.4.2-3.2-.4-6.4-.1-3.3.6-10.8 5.4-15.2 4.8 9.2 2.4 5.5.4 21.6-1.4l2-.2zm-23.2 8.6c1.6-3 1.2-2.2 4.4-7.2-3.2 3-4 4.2-4.4 7.2m23.2 1.2c-10 1-8.3-1-21.6-5.1 9.6 0 11.6 2.8 21.6 1.9l2-.3zm0-15.2c-2.8.1-3.6-1.4-6.8-1.3-3.3.5-7.4 2.2-9.6 4.1-.5.1 1.3-3.1 4.4-4.3 3-1.3 2.2-5.5 5.6-7.2-.1 1.6-1 1.4-1.6 3.9.4 2 3.3 1.6 4.4-.5-.5 3.4 1.4 3 3.6 2.9zm0 19c-2 .2-7.2 1.8 0 1.2 7.2-1 2-1.4 0-1.3"/><path fill="#1a1a1a" d="M8 195.3c170.8-85.3 341-54.5 513.3-28C676.5 191 833.4 211.8 992 132.7v672c-170.8 85.3-341 54.5-513.3 28C323.5 809 166.6 788.1 8 867.2zm31.3 19.3v604.5c306.5-128.2 611.1 96 921.5-33.7V180.9C654.2 309 349.5 84.9 39.3 214.6" opacity=".2"/></svg>