<svg xmlns="http://www.w3.org/2000/svg" viewBox="0 0 1000 1000"><path fill="#fff" d="M119 195c253-162 505 102 762-62v672c-129 82-256 56-386 30-124-25-249-49-376 32z"/><path fill="#ffe000" d="M119 195c126-81 251-57 381-31v672c-125-25-252-52-381 31z"/><path fill="#fff" d="m662 454 5 2 8 1h3v14s-1 9-3 13l-5 9-2 3-14-11q2-1 3-5l3-6 1-7 1-9zm-17 40 12 10-4 3-10 1-6-2-14-9-1-5 2-5 1 3a19 19 0 0 0 11 6l6-1z"/><path d="m662 454 5 1 8 1 3 1h1l-1 14-2 13-5 9-2 3h-1l-14-11v-1l3-4 2-6 2-7v-13zm0 1v12l-2 7-2 6-3 4 13 11 2-3 5-8 2-13 1-13-3-1-8-1zm-17 39 12 10v1l-4 2-10 2-7-3-7-4q-4-2-6-5l-2-5 2-5 1-1v1l2 3 10 5h6zm0 1-3 1h-6l-5-2q-4-1-6-4l-1-2-2 4 2 5 5 5 7 3 1 1 6 2 10-2 3-2z"/><path fill="#fff" d="m625 421 1 3 1 5-1 5-3 7-3 4-3 6-3 6-2 16v9l3 8 5 7 5 4 5 2 8 4-10-7q-3-4-3-8l-1-10 3-10 5-10 3-7 4-9 2-5-1-6-4-9-4-4-6-2z"/><path d="m624 421 2-1q3-1 6 2l5 4a28 28 0 0 1 4 15l-1 4v1l-6 13-2 3-1 3-4 7-2 10v10l4 8 5 4 4 2 1 1h-1l-8-3-1-1-4-2-10-11a38 38 0 0 1-3-25l2-8 1-4 1-2 2-2 4-9 3-6 1-5zm1 0 1 3 1 5-1 5-5 11-3 4-1 3-1 2-1 3a56 56 0 0 0-2 25q0 5 3 8l4 6 5 4 4 2 2 1 2 1-5-4-4-8v-10l6-18 1-2 2-3 6-13v-1l1-4v-6l-4-9-4-4-6-1z"/><path fill="#fff" d="m641 441 1-7v-7l-1-7a23 23 0 0 0-12-11l-9-2h-11l-4 1 9 14 5-1h5l5 1 6 5 4 6 2 6z"/><path d="M641 441v-3l-1-5a24 24 0 0 0-10-10l-5-2h-5l-4 1h-1l-9-14v-1l4-1h4l8 1 8 2 7 5 5 6 2 6v8zm0-3 1-4v-8l-2-6-4-6-7-4-16-3h-4l-3 1 9 14 4-2 5 1 5 1 6 4 5 7z"/><path fill="#ffe000" d="M642 431s-1-5-3-7l-7-6-9-3 3 6h-6l-3-5-6 1-3-4 7-2-3-5 6 1 3 4 7 1 5 2 7 7 2 5z"/><path d="m642 431-3-7-7-6-8-2 3 5v1h-1l-6-1-3-5-5 2-1-1-3-4v-1l6-1-3-4v-1h7v1l3 4 7 1 5 2 7 7q2 1 2 5zm0-4-1-1-1-5-8-7-4-1-8-2-2-4h-5l2 4-6 2 3 4 5-2h1l3 5 5 1-3-5v-1l10 3 7 6z"/><path fill="#ffe000" d="m601 409 10 14zm4-1-4 2-5 2 10 14 4-2 4-2z"/><path d="m605 407 9 14-4 2h-1l-4 2h-1l-9-14v-1l4-2h1zm-4 3-4 2 9 13 4-2zm10 13 3-1-9-14-3 2z"/><path fill="#ffe000" d="m623 463 6-9 5 3 3-5-6-3 3-6-4-2-4 6-5-3-3 5 6 3-6 9z"/><path d="m624 464-5-3 5-9-5-3q-1 0 0 0l2-5 1-1 5 3 3-5h1l4 2v1l-2 5 5 2v1l-2 5h-1l-5-2zm-1-1 5-9h1l5 2 2-4-5-3q-1 0 0 0l2-5-3-2-3 5h-1l-5-3-2 5 5 2v1l-5 9z"/><path fill="#ffe000" d="M667 464h5v6h6l-1 6-5-1-2 5-3 5-6-2 3-4 2-5-6-1 1-5 6 1z"/><path d="M667 463h5l1 1v5h5v1l-1 6h-5l-1 4-3 5h-1l-6-1v-1l3-4 1-4-5-1-1-1 2-5h5zm0 1v5h-1l-5-1-1 5 6 1q1 0 0 0l-1 5-3 4 5 1 3-4 1-5h5l1-5h-5v-6z"/><path fill="#fff" d="m709 454-5 2-7 1h-4l1 14 2 13 5 9 2 3 14-12-3-4-3-6-1-7-1-9zm18 40-13 10 4 3 10 1 7-3q8-3 13-9l1-5-2-5-1 3-10 6h-7z"/><path d="m709 454-5 1-7 1-4 1v14l3 13 4 9 3 3 14-11v-1l-3-4-2-6-1-7-1-9zm0 1v3l1 9 1 7 2 6 3 4-13 11-2-3-5-8-2-13v-13l3-1 8-1zm17 38-12 11v1l4 2 10 1 7-2v-1q6-2 7-4 4-2 6-5l2-5-2-5-1-1v1l-2 3-9 6h-6l-3-2zm1 1 2 1 7 1 5-2 5-5 1-2 2 4-2 5-5 5-7 4h-1l-6 2q-4 1-10-1l-3-2z"/><path fill="#fff" d="m747 420-2 3v10l4 7 2 3 3 7 3 6 3 15-1 9-3 9-4 6-6 5-5 3-8 3 10-7 4-8v-10q0-6-3-10l-4-10-4-7-4-8-1-6v-6l4-9 4-4 6-2z"/><path d="m747 420-2-1-6 2-5 4a29 29 0 0 0-4 15l1 5 1 1 6 12 1 3 1 3 4 7 3 10-1 10-4 8-5 4-4 3q0 2 0 0l8-3 1-1 5-2 10-11a40 40 0 0 0 3-25l-2-9-3-5-1-3-4-6-1-2-3-6-1-5zm-1 0-1 3-1 5 1 5 6 11 2 4 1 2 1 2 2 4a53 53 0 0 1 2 24l-3 9-5 6-5 4-4 3h-1l-3 1 5-4 4-8 1-10-7-18-1-2-2-3-5-12-1-1-1-5 1-6 3-8 5-4 5-2z"/><path fill="#fff" d="m731 440-2-7v-6l2-7a24 24 0 0 1 11-12l9-2 11-1 4 1-9 15-5-2-5 1-5 2-5 4-5 6z"/><path d="M730 441v-3l2-6 9-10 5-2h5l5 1 9-15v-1l-3-1h-5l-16 4-7 5-5 7-1 6v1l-1 6zm0-3-1-5 1-6v-1l1-6 5-6 6-5 16-4h4l3 1-8 14-4-1-6 1-5 1-6 5-4 6z"/><path fill="#ffe000" d="m729 430 3-6 7-7 9-3-3 7 6-2 3-5 6 2 3-5-6-2 2-4h-6l-2 5-8 1-4 2-8 8-2 4z"/><path d="m729 430 3-6 7-6 8-3-3 5v1h1l6-1 3-5 6 1 3-5v-1l-6-1 3-4v-1l-7 1-3 4-7 2-4 2-8 7-2 5zm1-3v-2l2-4 7-7 4-2 8-2 3-4 5-1-3 4v1l6 1-2 4-6-1-3 5-5 1 3-6h-1l-9 3-7 6z"/><path fill="#ffe000" d="m770 407-10 14zm-4-1 4 1 5 2-10 15-4-2-4-2z"/><path d="m766 405-8 14v1l3 1h1l4 2h1l9-15-4-2h-1zm4 2 4 2-9 14-3-2h-1zm-10 14-2-1 8-14 3 1z"/><path fill="#ffe000" d="m748 462-5-9-6 3-2-5 5-3-3-5 5-2 3 5 6-3 2 4-5 4 5 8z"/><path d="m748 463 5-3v-1l-5-8 5-3 1-1-3-5h-1l-5 3-3-5h-1l-4 2v1l3 5-6 3v1l2 4 1 1 5-3zm0-1-5-9-6 3-2-5 6-2v-1l-3-5 3-2 3 5h1l5-3 3 4-6 3v1l5 8z"/><path fill="#ffe000" d="M705 464h-6v6h-5l1 6 5-1 1 5 3 5 6-2-3-4-2-5 6-1-1-5-5 1z"/><path d="M705 463h-6v1h-1v5h-4l-1 1 1 6h5l2 4 3 5 6-2-3-5-1-3 5-1h1v-1l-1-5-1-1-5 1zm-1 1v5h1l5-1 1 5-6 1 2 5 2 4-5 1-2-4-2-5h-5l-1-5h5v-6z"/><path fill="#fff" d="m654 385-8 8 5 14 3 10-8 6 15 20 49-4 16-16-6-5v-11l5-14-8-7-7-16-2-6-3-4-4-3-4-2-6-2h-11l-5 2-5 2-4 3-2 4-3 6z"/><path d="m654 385 6-15 3-6 3-4 4-3 5-3 5-2h12l4 2h1l4 2 4 4 3 3 3 7 7 16 8 6v1l-5 14v11l6 4v1l-16 16h-1l-49 4-16-20 9-6-3-10-5-14zm1 1-8 7 5 14 3 10-9 6 15 20q25-1 49-5l15-15-5-4v-12l5-14-8-6v-1l-7-16-3-6-2-3h-1l-3-4-5-2-5-2h-11l-5 2-4 2-4 4-3 3-3 6v1z"/><path fill="red" d="M715 449c0 4-13 9-29 9-17 0-30-5-30-9s13-7 30-7c16 0 29 3 29 7"/><path d="M716 449q0 3-9 6t-21 3l-22-2q-8-3-9-7 1-3 9-5 9-2 22-2l21 1q9 2 9 6m-1 0q0-2-8-5a107 107 0 0 0-42 1q-8 1-8 4t8 6l21 2q12 0 21-3 8-2 8-5"/><path fill="#ffe000" d="m717 438-1-1-4-1-5-1-6-1h-23l-14 1-5 1-4 2-1 1q32 2 63-1m3-11-2-2-2 1-2 2 1 2 1 1 5-1zm2-1q2-1 3 1zm-71 1v4h4l2-1v-2l-2-2-2-1zm-2-1-3 1zm58 3h-3zm-42 0h2zm25 0-2-1zm-9 0 2-1zm45-8-2 1-1 3-2 1-3-1-2 1-1 1-1 2 1 2v1l-2 1-5-2-2-2 2-2v-2l-2-1-2 1-1 2 1 1-1 2-5 1h-5l-2-1-1-1 3-1 2-2-1-2-2-2h-2l-1 1h-1l-1 1h2v4h-3 2l1-1v-3l-3-1-3 1-1 1v2l1 1h3-3l-1-1v-3h2l-1-1-2-1h-2l-2 2-1 2 2 2 3 1v1l-3 1h-5l-5-1-1-2 1-1v-2l-2-1-3 1v2l2 2-1 2-6 2-1-1-1-1 1-2-1-2-1-1h-2l-2 1-2-2-1-2-1-1-2-1h-1l-2 1 2 2 1 2 1 1v2l2 2 3-1v6l3 2 3 6-1 1v3q4-3 10-4l17-1h3l20 1q5 1 9 4l1-3-1-1 2-6 4-2v-6l2 1 2-2v-2l1-2 1-1 2-2-1-1zm-45 1 2 1h6l1-1 1-1v-2l-3-2-2-1-3 2-2 1z"/><path d="m717 439-5-3h-4l-1-1-14-1-7 1h-16l-6 1h-1l-4 1-3 1-2 1h-1v-1l6-2 4-1h1l14-1h23l6 1h1l4 1 4 1 2 1zm3-12-2-1h-2l-1 2v2l1 1 4-1h1-1zm1-1v4l-5 1-2-2v-2l2-3h2zm1-1q3 0 3 2 1 0 0 0 0 1 0 0zm-71 2v4-1l4 1 1-1v-2l-1-2h-1zm-1 0 3-2 3 1 1 2v2l-1 2-5-1h-1zm-1-1-2 2h-1v-1zm58 3h-3v-1zm-43-1h3l1 1h-4zm26 2-2-2q-1 0 0 0 0-1 0 0l2 1zm-9-1 2-1h1zq-1 0 0 0m46-8-3 2v-1 1-1l-1 3-2 2h-1l-2-1h-1l-2 1v2l1 2-1 1-1 1h-1l-6-2-1-2v-1l2-1v-2h-4l-1 2 2 1-2 2-4 2h-6l-3-2v-1l3-1 2-2-1-2-2-2h-2 1-1 1l-2 2v-1 1h-1v-1 1h-1v-1l2 1 1 1h-1 1v1l-1 1h1l-1 1h-1l-1 1h-1l-1-1h3l1-1v-2l-1-1h-2v-1 1h-3v1h-1 1v2h-1 1l1 1h-1 3v1h-2l-1-1h-1v-4l2-1v1h-1v-1 1h-1v-1 1l1-1-1 1-1-2h-1 1-1l-2 2-1 2 1 2 3 1v1l-3 2h-5l-5-2-1-1v-1l1-1-1-2h-3v2l1 2-1 3-6 1h-2v-1l-1-1h1l1-2-1-2-1-1h-2l-2 1h-1l-2-2-1-2h1-1v-1 1l-2-1v-1 1h-1v-1 1h-1l1 1v1l3 3v2l1 2 2-1h1v6-1l3 3 3 6-1 2v-1 3l4-3 6-1 17-1h10l18 2 5 3h-1v-3h1l-1 1-1-2 3-6 3-3 1 1h-1v-6h3l1-1v-2l1-1 1-1 1-1 1-1v-1zm-1 0 2 1 1 1-1 1v1l-2 2-1 1v2l-2 2h-3l1-1v6l-3 3-1-1h1l-3 6 1 1v3h-1l-4-2-18-2h-27l-5 2-5 2v1l-1-1v-3l1-1h1-1l-3-5 1-1-1 1-3-3v-6h1v1h-3l-2-2v-2l-1-1-2-2-1-2 1-1h2l2 1h1v1l1 2 2 1v1l-1-1 3-1h2l2 2 1 2-2 2 1 1 1 1 5-2h1-1l1-2h1l-2-1v-3l3-1 2 1 1 2-2 2v-1l1 2 5 1h5l2-1v-1h1v1l-3-1-2-3 1-3 2-1 2-1v1l2 1h1v1l-1 1v2l1 1h-1 1-1 3v1l-3-1-1-1v-3l4-1 3 1 1 1v2h-1l-1 1-2 1v-1h2v-1h1v-2h-1l-1-1v-1h2-1 1l1-1 1-1 1 1 3 1 1 3-2 3-3 1-1-1h1v1l3 1h4l5-2 1-1v1l-2-2 1-2 3-1 2 1v3l-1 1h-1 1l1 2 6 1-1 1v-1h2-1l1-1-1-2 1-2 1-2h2l3 1h-1l2-2 1-2h1zm-45 1 2 1h6l1-1v-3l-2-1-3-1 1-1v1l-3 1-2 1zq2 0 0 0m0 0v-3l2-2h1l2-1h1l2 1h1l2 2v3l-2 1v1h-3v-1 1-1 1h-4z"/><path fill="#ffe000" d="m723 410-5-1-10-2-11-1-4-1h-5l-2 1-3-1h-5l-3 1-12 1-9 2-6 1q38 3 75 0m-14-11 2-1 1-2-1-2h-3l-1 2v1zm-46 0 1-2 1-1-1-1-2-1h-2v4zm-13 4-4 4 1 2 1 1 1 6-4 5 2 1h1l3-1 4-2 22-4 9 1h6a61 61 0 0 1 28 4l4 2 2-1-3-5v-6l2-2v-1l-4-4-3 2h-2l-2-1-4-3-1-2-7 4h-7l-1-1-8-2q-5 0-8 2l-2 1h-7l-6-4-2 2-4 3-2 1h-2z"/><path d="m650 403 3 2h2l1-1h1l4-3 1-2-2-1-1-2 1-2h4l1 2v2l-2 1 6 3h7l1-1 9-2 8 2 1 1h7l6-3-1-1-1-2 1-2 2-1 2 1 1 2-1 2-2 1 2 2 4 3 1 1h2l3-2h1l3 4v2l-2 1v6l3 4 1 1-3 1v1l-3-1-1-1-11-3-9-2-14 1-9-1-21 3-6 3-2 1h-1l-2-1v-1q-1 0 0 0l3-5v-5l-2-2v-2zm72 7-13-2h-1l-13-2h-3l-4-1-2 1h-1l-2-1-4 1h-2l-2 1-12 1h-1l-13 3v5l-3 5 1 1 2-1 2-1 11-3 15-2 9 1 6-1a61 61 0 0 1 24 3l6 3 2 1 1-1-3-5zm-59-10-2 2-4 3-2 1h-2l-3-2-3 3v2l2 1 13-3h1l12-1 1-1h3l4-1 3 2 2-2 4 1h3l2 1 11 1h1l14 3 1-2v-1l-3-3-3 2h-2l-2-1-4-3-1-2-6 3h-8l-2-1-7-2-8 2-2 1h-7zm0-1 1-2v-1l-1-1-1-1-1 1-1 1 1 1z"/><path fill="#ffe000" d="M724 401v-2l-1-2-1-2zm-3 2h2l2-2 3 1 1-1v-2l-1-1-2-1v-2l2-3 2-3v-1l-3 1-3 2-2 2v2l-3 1-3 2v3l2 1zm-71-7-2 1-1 2v2zm-8-7 2 2 2 4v2h-2l-1 1v2l2 1 3-1 2 2h4l2-2v-3l-3-2h-2l-1-2-1-3-4-2zm41 5h5zm1 6-3-3 1-1 1-2-2-1-1-2 2-2 4-2 3 2 2 2v2l-3 1 2 2v1l-2 3zm7-7 5 2 1 2-3 5-6-2h-4l-6 2-4-5 1-2 6-2z"/><path d="m684 400-6 2h-1l-3-5 1-2 5-3v-1l2-3 3-1h1l3 1 2 3v1l6 3v2l-3 5h-1l-5-2zm-43-12 2 1 4 2 1 2 1 2 2 1 3 2v3l-2 2-3 1-2-1-1-1h-3l-2-1-1-2 1-1h2l1-1v-1l-2-3-1-1-1-2zm80 15h-3l-2-2v-3q0-2 3-2l2-1 2-5 7-2 1 1-2 2v1l-1 1-1 2-1 2h2l1 1 1 1-1 2-1 1-3-1-2 2zm-33-9 2-2v-1l-1-2-3-1-3 1-2 2v1l2 2 3-1zm-39 2-1-2v-1l-1-2-3-2h-2v2l1 1 1 1 2 3v2l-2 1h-1l-1 1 1 1 1 1 2-1v-2l2-2zm76 4 3 1 1-1v-1l-1-1h-1l-1-1v-2l1-3 1-1h1l1-2h-3l-3 2-1 2-1 2 2 2 1 2zm-43-6-2-1-5 3v1l3 4 5-1-2-3v-2zm7 6 5 1 2-4v-1l-5-3-2 1 1 1v2zm-42 1 2 2h1l3-1 1-1v-2l-2-2-2-1-2 1-1 2zm74-5h-2l-2 2v3l2 1 2 1 1-1 2-1v-2l-1-2zm-37-1-2 1v1l2 2h3l2-2v-1l-1-1-2-1zm38 8"/><path fill="#ffe000" d="m681 369 3-2h2-2l-2-1v-2l1-2h5l1 2v2l-1 1h-2 2l2 2zm25 0-1 2zm9-4h-2zm1 2-4 1zm-4-3 1 1-1 3h-3zm-58 13 5-1 7-1 9-1h21l9 1 7 1 5 1zm2-12h2zm0 3h3zm1 4 6-1 14-1h17l14 1 6 1zm5-4h-3l-1-3 2-1zm17 17-22 2c-3 2-6 6-9 4v-2l2-3 3-2-1-2v-2l2-3v-3l3-2-1-1v-3l-2-2 1-1h1l-1-2-1-3v-2l2 1 3 3 1 2 3 1 1 2-2 2 3 1 2-1 1-1h2-1l-1-2v-1h3l1 1-1 1-1 1h1l1 2h9v-1l-1-1q-4-1-3-3 0-2 2-3h4q1-1-2-2v-1l3-2 2-1 1 1 3 2v1l-2 2h4l3 3q0 2-3 3l-2 1 1 1h8l2-2-1-1-1-1 1-1h3v1l-1 2h1l1 1h5l-2-2 1-2 3-1 1-2 3-3q2-2 3-1l-1 2-1 2-1 3h1l1 1-2 1v4l-1 1 4 2-1 3 3 2v3l-2 2 3 1 2 4 1 2q-4 0-10-4l-11-2z"/><path d="m679 385-22 3-3 2-3 2-4-1v-2h1l2-4h1l2-1-1-1-1-1v-3l1-1 1-1v-3l2-1 2-1h-1l-1-1v-4h-1v-2h2l-1-1v-1l-1-1-1-3v-2l3 1v1h1l2 2 1 2v1h1l2 1 2 2-2 1v1h3l1-1h1v-1l-1-1 1-1 2-1 2 1v3h-1l2 2h7l1-1-1-1-3-1-1-2q0-2 3-3h4l-1-1-1-1v-1l3-3h3l3 2 1 2-2 1-1 1h4q3 1 3 3v2l-3 1-1 1h-1l1 1h8l1-2-1-2v-1l2-1 2 1 1 1-1 1h1v1h1v1h4l-1-1-1-1q-1-1 1-2l2-1h1v-1l1-2 2-2h1l1-1 2-1v3l-1 2v1l-1 1 1 1v1l-1 1v4l-1 1h-1l2 1 2 1v3l1 1 1 1v3l-1 1v1l1 1h1l3 4v2h-3l-4-1-3-2-22-3zm0-1h13l22 3 4 2 3 2 2-1v-1l-2-3-2-1-1-1 1-1v-3l-1-2-1-1h-5l-2-1-24-1-25 1-2 1h-5l-1 2-1 1v2l1 1v1l-1 2h-1l-3 3v2h2l3-2 4-2zm-25-7 3-1h2l2-1 25-1 24 1 2 1h5v-2l-1-1-2-1h-6l-3-1h-39l-3 1-5 1-2 1h-2zm30-15h4l1-1 1-1v-1l-3-2h-3l-2 2v1l1 1zm-1 1-1 1 1 2h1l2 1 1-1h2v-2l-1-1zm-2 5 2-1-1-1-1-2 1-1h-2q-3 0-3 2v2h3zm8-5 1 1-1 2-1 1 2 1 2-1h2v-2l-2-2zm-31 9 5-1 2-1-3-1-3-1h-3v3h1zm48-2 2 1h6l1-1v-2h-3l-2 1zm6-6 1 1 2-1v-1l1-1 1-3v-1l-1 1-1 1-2 2-1 1zm-55 1h1l1-1v-2l-3-2-1-1-1-1v2l1 2v1h1zm25 5h8l-1-1-2-2h-3l-2 2zm-22-5h-1v3h4l1-1-1-2zm49 3h3v-3h-1v-1l-1 1h-1q-2 1-1 2zm-9 2h5v-1h-1l-1-1h-2zm-34 0h6l-2-2h-2v1h-1zm36-3v-1h-3v2zm-32 0v-2h-2l-1 1zm-14 0h2v-1l-2-1h-1v2zm59-2-1 1-1 1h3v-2z"/><path fill="#ffe000" d="M689 349h-6zm-1-9-2-4q-3 1-2 4zm0 12 3 1v-2l-2-2 2-2v-2l-5-4 2-1h4l2-2-2-2h-6q0-3 2-5l-2-1-2 1q0 3 2 5h-6l-3 2 2 2h5l2 1-5 4v2l2 2-3 2v2l3-1z"/><path d="M688 353h-8l-1-2 2-1 1-1-1-1-1-1v-2l3-2 2-2-2-1h-4l-2-2 2-3 4 1h2v-1l-1-1-1-3 2-1h1l2 1-1 3-1 1v1h3l3-1q3 2 2 3 0 2-2 2h-4l-1 1h-1l2 2 3 2v2l-1 1-1 1 1 1 2 1v2zm-2-11-3 2-2 1v1l1 1 1 1h5l1-1 1-1v-1l-2-1zm2 10h3v-1h-1l-2-2h-5l-2 2h-1v1zm0-13h4l1-1-1-2h-3l-2 1h1zm-5 0v-2h1l-2-1h-2l-2 2 2 1zm3 1 1-1v-1l-1-1h-1l-1 1v1zm0-6 1-2-1-1-2 1zm-37 82 8-2h2l16-3h21l17 2 2 1 8 2h-1l-8-1-2-1-16-2h-21l-16 2-2 1zm69-32-5-1h-1l-19-2h-15l-19 2-6 2v-1q-1 0 0 0l5-2h1l19-2h16l19 2zm-4 60-3-1-6-1-19-1-19 1h-1l-10 2h1l9-3 20-1 19 1 6 2z"/><path fill="#ccc" d="m586 423 31 28-2 4-3 11-36-35q2-8 10-8"/><path d="m587 423 31 27v1l-4 8-1 7h-1l-36-34v-1q0-4 3-7zm-1 1-6 1q-3 2-3 6l35 34 1-6 4-8z"/><path fill="#ccc" d="m582 437-7 6 4 5-7 5-5-5-7 6v9l17 15 6-3v-9l5 3 4-1 1 7-4-3-4 5-1 8 14 13 16-11-1-4-1-3v-14z"/><path d="M582 437q0-1 0 0l30 28 1 1-1 7v7l1 3 1 4v1l-16 10h-1l-13-13v-9l5-4 3 3v-7l-4 2-4-3v8l-6 4-1-1-18-15v-10l8-6 1 1 4 4 7-4-5-5zm0 1-7 5 5 4v1l-8 5-5-5-7 6v9l17 15 6-3v-9l5 3 4-2h1v9h-1l-3-3-4 4v8l13 12 15-10-1-4-1-3v-7l1-7z"/><path fill="#ccc" d="m575 443-1 8 5-3z"/><path d="m574 443 5 5-5 3-1 1v-9m1 1v6l3-2zm-14 9 17 16 5-3-4-3v-1l5-4 1 1 3 3 5-3 6 6-5 3 5 4v1l-5 3-1-1 5-3-5-4-1-8-3 3v6h-1v-6l-3-3v7h-1l-5 3v8h-1v-8l-18-16zm25 23 13 12 14-9v1l-13 9-1 9-1-1 1-8zm8-9 4-2-5-5zm-10-7-4 2 4 4z"/><path fill="#ccc" d="m699 519 14 11 4 8h-19l-11-10-12-9-50-42 2-5 3-7 1-2q27 25 56 47z"/><path d="m699 519 15 11 3 8v1l-20-1-11-9-11-10-50-42 4-12h1l1-2q28 25 56 46zm-1 0-12-9-55-46v1l-1 1-4 11 49 41 12 10 11 9 18 1-3-8z"/><path fill="#ccc" d="M711 520c9 10 22 18 27 22q7 5 0 15c-6 7-13 4-18 1l-29-20z"/><path d="m712 520 9 9 17 13q4 3 4 6 2 5-3 9-4 5-10 5l-10-3-8-6-9-7-12-9h1l20-17zm-1 1-19 17 11 7 9 7 8 6 9 3q5 0 9-4 5-5 3-8 0-3-4-7l-8-5z"/><path fill="#ccc" d="m706 538-10-4zm2-15 1 6 4 6h-3l-4 3 2 3 4 1 6 2c3 0 7-3 8-1l-4 1q-4 3-1 5h10q4 1 3 4-2 3-6 1l-1-3v-2z"/><path d="M709 523v3l1 3q0 3 4 5v1l-5 1-2 2 1 2h1l3 2 6 2 3-1 3-1 2 1-1 1h-1l-1 1q-2 0-3 2l1 2h10l3 1 1 3-4 2h-3l-1-3-1-2h-5q-3-1-1-3 0-2 2-3l2-1h1-1l-2 1-5 1-5-2h-1l-3-3-2-2-11-4 1-1 10 4 3-2h1l3-1-4-4-1-4v-3zm18 27v2l1 2h3l3-1-1-2-2-2-3 1z"/><path fill="#ccc" d="M815 564c0 20-17 42-39 47s-39-8-40-27c1-20 18-37 40-43 22-5 39 4 39 23"/><path d="m816 564-3 15a59 59 0 0 1-22 26l-15 7h-16q-7-1-12-5-6-4-9-10t-3-13l3-15 9-12a59 59 0 0 1 43-17q7 0 13 3t9 8q3 6 3 13m-1 0-3-12q-3-5-9-8-4-3-12-3-7-1-15 1a62 62 0 0 0-28 15l-8 13q-3 7-3 13 0 7 3 13a29 29 0 0 0 21 15h15l15-7a60 60 0 0 0 21-25z"/><path fill="#fff" d="M761 581q-11 4-12 13 1 10 12 9 11-3 12-14l5-1q1 9 12 8 11-5 12-15-1-9-12-7v-2q11-5 13-15-2-9-13-7-11 4-12 14l-4 1q-2-10-13-8t-12 13q1 9 12 8z"/><path d="M761 581v-2q-5 0-9-2l-4-7 4-9 9-5q6 0 9 2 4 1 4 6h3l4-9q4-4 9-5h9q4 3 4 7 0 5-4 9-3 4-8 6v1l8 1q4 3 4 7 0 5-4 9-4 5-9 6-5 2-9-1-4-1-4-6l-3 1-4 8q-4 4-9 5t-9-1-4-8 4-8 9-5m0 0-8 5q-4 4-4 8t4 7 8 1 8-4q4-4 4-9l5-1q0 5 4 6 3 3 8 1l8-5q4-4 4-9t-4-6-8-1h-1l1-2v-1l9-5 3-9q0-4-3-6l-9-1q-5 2-8 6-4 4-4 8v1h-5q0-4-3-7-4-2-9-1t-8 5-4 8 4 6 8 2h1z"/><path fill="#ccc" d="m780 566-2 4-4 1q-3 0-3-3l3-4 4-1z"/><path d="m781 566-2 3-3 3-4-1-1-3 1-3 4-2h3zm-1 0-1-2h-3l-3 1-1 3 1 2 3 1 3-2z"/><path fill="#ccc" d="m791 572-2 4q-3 3-5 2l-2-3 2-4q3-2 5-1z"/><path d="m791 572-1 4-4 2h-3l-2-3 2-4 3-2 4 1zm-1 0-1-2h-3l-2 2-2 3 2 2h2q2 0 3-2z"/><path fill="#ccc" d="m780 584-2 4-4 1q-3-2-2-3-1-3 2-4 2-2 4-1 3 0 2 3"/><path d="m781 583-1 4-4 2h-3l-2-3 2-4 3-2 4 1zm-1 1-1-3h-3l-3 2-1 3 1 2h3l3-2z"/><path fill="#ccc" d="m770 578-3 4-4 1-2-3q-1-3 2-4 2-2 4-1 2 0 3 3"/><path d="m770 578-1 3-4 2h-3l-2-3 2-4 3-2 4 1zm-1 0-1-2-3-1-3 2-1 3 1 2h3l3-1z"/><path fill="#fff" d="m775 598-7 7q7 0 14-3zm-23-17q-5-2-7-5-2 6 0 12zm48-11q5-4 7-8 2 5 0 12zm-24-15q-1-4-6-4 7-4 13-4z"/><path d="M775 597q3 4 7 4v1a22 22 0 0 1-14 3l4-4zm1-42-3-2-4-2v-1h1q6-3 13-3h1l-1 1zm-24 25-7 7q-3-7 0-12v-1 1l3 2zm48-10 7-8v-1q3 5 0 13zm-49 11-6-4v10zm25-27 6-6-11 2 3 2zm25 16q4 0 6 3v-10l-2 3zm-26 28-6 7 12-3z"/><path fill="#ffe000" d="M586 423v-2l-2-3-2-2h-4l-2 1h-4l-2 5-1 2v3l2 3 3 1h2q1-8 10-8"/><path d="m587 423-7 3-2 5-1 1h-2l-4-2-2-3v-3l2-2 1-5h1l4-1h6l3 2 2 3zm-1 0v-2l-4-4-4-1-2 1-4 1-2 4-1 2v3l2 3 3 1h2q1-9 10-8"/><path fill="#ffe000" d="m576 417-12-7v1l6 11 3-3z"/><path d="m577 416-4 2-3 3-7-11v-1h2zm-2 1-10-7-1 1 6 10 2-2z"/><path fill="#ffe000" d="M568 410q0 3-5 3-4-2-5-5 1-5 5-3 5 0 5 5"/><path d="m569 410-2 3-4 1-4-3-1-3 1-3 4-1 4 2zm-1 0q0-2-2-3l-3-2-3 1-1 2 1 3 3 2 3-1z"/><path fill="#ffe000" d="m596 432 5 23 10 9-6-24z"/><path d="m596 432 8 8h1l1 8 4 17h-1l-9-9v-1q-3-8-5-23m1 1q2 14 5 22l8 8-2-6-3-17z"/><path fill="#ffe000" d="m611 445-26-6 8 8 24 5v-1z"/><path d="m611 445 6 5 1 1-1 1-24-4-9-8v-1h1zm-1 0-24-5 7 7 23 4h1z"/><path fill="#ffe000" d="M643 474q-10 3-12 9l-4-2c2-9 9-11 11-12q5 1 5 5"/><path d="m643 474-7 4-4 5h-4l-2-2a15 15 0 0 1 12-12l3 1 1 2zm-1-1-1-2h-3l-5 2q-5 4-6 9l4 1 4-5z"/><path fill="#ffe000" d="M651 481q-9 3-11 9l-5-1c2-9 9-11 11-12 5 0 4 2 5 4"/><path d="m651 482-7 3-4 6h-3l-2-2a15 15 0 0 1 11-12h4l1 3zm-1-1v-1l-1-2-3-1-5 3q-4 3-5 9l3 1 4-5z"/><path fill="#ffe000" d="m747 548-5 1q0 4-4 8-3 4-7 4s-1 5 1 6h9q3-7 9-12l1-1-1-5h-3z"/><path d="M747 548h3l1 4v3l-10 12-1 1h-8l-2-4 1-3 7-4 3-7 1-1zm-1 1-4 1-3 7q-4 4-7 4l-1 3 1 3h8q4-7 10-12v-6z"/><path fill="#ffe000" d="M812 537q-1 5-6 7-5 1-5-3t5-6q4-1 6 2"/><path d="M812 537q0 3-2 5l-4 3-4-1q-2 0-2-3l2-4 4-3h4q3 2 2 3m-1 1-1-3h-4l-3 2-2 4 2 3h3l4-3z"/><path fill="#ffe000" d="M814 592q-1 5-6 6t-5-2q0-5 5-7t6 3"/><path d="m814 592-2 4-4 3h-4l-2-3 2-5 4-3 4 1q2 0 2 3m-1 0-1-3h-4l-3 3-2 3q0 2 2 3h3l4-3z"/><path fill="#ffe000" d="M753 611q0 5-5 6-6-1-6-4 0-4 6-6 5 0 5 4"/><path d="m753 611-1 4-4 2-5-1-1-3 1-4 5-2q2-1 4 1zm-1 0-1-3h-3l-4 1-1 4 1 2 4 1 3-2z"/><path fill="#ffe000" d="M785 419q-15 16-31 30l4 9 1 6 36-38q-1-8-10-7"/><path d="m785 419-31 31 4 8 1 6h1l36-38q-1-5-4-6-2-2-7-1m0 1h7l3 6-35 37-2-6-3-8z"/><path fill="#ffe000" d="m789 432 8 6-5 5 7 4 5-6 8 5v9l-18 18-6-2v-9l-4 4-5-2v8l4-3 4 3v9l-13 14-16-9 1-4 1-4v-7l-1-7z"/><path d="m790 432-30 32v14l-1 4-1 4 17 9 13-14h1l-1-9-4-4h-1l-3 3v-6l4 1h1l4-3v8l6 2 18-18v-10l-8-4-5 5-6-3 4-5v-1zm-1 1 7 5-4 5 7 4h1l4-5 7 4v9l-17 17-5-2v-8h-1l-4 3-5-1h-1v8l1 1v-1l3-3 4 4 1 8-13 13-16-9 1-3 1-4v-14z"/><path fill="#ffe000" d="M797 438v8l-5-3z"/><path d="m797 437-4 6 5 3v-9m-1 2v6l-3-2zm14 7-17 18-5-2 4-4v-1l-5-3-4 4-4-3-1 1-6 6 5 3-4 4v1l4 3 1-1-4-3 4-4v-1h1v-7l3 2v7l1-1v-6l3-4v8l1-1 6 3v8h1v-8zm-25 26-13 13-13-7h-1l14 8v9h1v-9l13-13zm-7-8-5-2 5-5zm9-9 4 2-4 4z"/><path fill="#ffe000" d="m673 519-15 11-3 9 19-1 11-10 11-9q25-19 50-43l-1-5-4-7-1-1-55 47z"/><path d="m673 519-15 11-4 8 1 1 19-1 11-9 12-10q24-19 50-43l-5-12-1-2h-1q-27 26-56 47zm0 0 12-9q27-21 55-47l1 2 5 11-50 42-12 10-10 9-19 1 3-7z"/><path fill="#ffe000" d="M660 520c-8 10-22 19-26 23s-7 8-1 15c7 6 13 3 19 0l29-20z"/><path d="m660 520-9 9-18 13-4 7q0 5 4 9t10 4l9-3 8-6 21-16zm0 1 20 17-20 14-9 6-8 3q-6 0-10-4-3-4-3-8l4-6 8-6z"/><path fill="#ffe000" d="m665 538 11-4zm-2-15-1 7-4 5h3q4 1 4 3l-2 3-3 1-6 3-8-2 3 2q3 2 2 4l-6 1-5-1q-3 2-3 5 3 2 6 1 2-2 1-4v-1z"/><path d="m663 523-1 3v3l-4 5v1l4 1 3 2-2 2-3 2h-1l-5 2-4-1-3-1-2 1 1 1 1 1h2l2 2-1 2h-10l-3 2v3l3 2 4-1 1-3v-2h6l1-3-3-3h-3l1-1 3 1 4 1 5-2h1l3-2 1-1 2-2 10-4v-1l-11 4-3-2h-1l-2-1 4-4v-4zm-19 27v1l-1 2-3 1-2-1v-3l3-1z"/><path fill="#ffe000" d="M556 573c0 19 18 38 40 41s39-10 39-30c0-19-17-36-39-40-22-2-40 9-40 29"/><path d="M556 573q0 7 3 14a47 47 0 0 0 21 22q7 5 16 6l15-1q7-1 13-6 6-4 8-10a31 31 0 0 0 0-28q-2-6-8-12a53 53 0 0 0-28-14h-16q-7 2-13 6l-8 10q-3 6-3 13m1 0q0-7 3-13 2-6 8-9l12-6a46 46 0 0 1 31 5q7 3 12 9 6 5 9 11 3 7 3 14t-3 13a31 31 0 0 1-21 16l-15 1a48 48 0 0 1-36-27q-3-7-3-14"/><path fill="#fff" d="M610 583q11 2 13 12-2 10-13 10-11-4-12-13l-4-1q-1 10-13 9-11-2-12-13 1-9 12-9v-2q-11-2-12-13 1-9 12-8 11 2 13 12l4 1q1-10 12-10 11 4 13 13-2 10-13 9z"/><path d="M611 582v-1q5 0 8-3 4-3 4-7 0-5-4-9-3-3-9-4l-9 2-4 7h-3q0-5-4-8-3-4-9-5-4-1-9 2l-4 7 4 9 9 5v1q-5 0-9 2-3 3-3 7l3 9q4 4 9 5 6 1 10-2 3-3 3-7h4l3 9 9 4q6 1 9-2 4-3 4-8 0-4-4-8-3-4-8-5m-1 1 9 4q3 4 3 8t-3 7-9 2q-5 0-8-4t-3-8h-1l-4-1h-1q0 4-3 7-4 2-9 2l-8-5q-3-3-3-8 0-4 3-6 4-3 8-2h1v-3h-1q-5-1-8-5l-4-8 4-6q3-2 8-2l9 4q3 4 3 8l1 1h4q1-4 4-7 3-2 8-2 5 1 9 4 3 3 3 8 0 4-3 7l-9 2z"/><path fill="#ffe000" d="M591 570q0 4 5 4 3 0 4-3 0-3-4-5-5 0-5 4"/><path d="m591 569 1 4 4 2 3-1 2-3-2-3-3-2-4 1zm1 1 1-3h3l2 1 2 3-2 2-2 1-3-2z"/><path fill="#ffe000" d="M581 577q0 3 4 5 4 0 4-4 0-3-4-4-4 0-4 3"/><path d="m580 577 2 3 3 2 4-1 1-2-1-4-4-2-3 1zm1 0 1-2 3-1 3 2 1 2-1 3h-3l-3-1z"/><path fill="#ffe000" d="M591 587q1 3 4 5 5 0 5-4 0-3-5-4-4 0-4 3"/><path d="m590 587 2 3 3 2 4-1 1-3-1-3-4-2-3 1zm1 0 2-2 2-1q2 0 3 2l1 2-1 3h-3l-2-1z"/><path fill="#ffe000" d="M602 580q0 4 4 5 5 0 5-4 0-3-5-4-4 0-4 3"/><path d="m601 580 2 3 3 2 4-1 1-3-1-3-4-2-3 1zm1 0 2-2 2-1 3 2 1 2-1 3h-3l-2-1z"/><path fill="#fff" d="M596 600q3 5 7 7-6 1-13-2 4-1 6-5m24-18q4-2 6-5 3 6 0 12-2-4-6-7m-49-6-7-7v12q3-4 7-5m24-18q3-4 7-5-6-2-14-2z"/><path d="M597 600q-3 4-7 5l1 1a22 22 0 0 0 13 2l1-1h-1l-3-3zm-2-42 3-3 4-2q-5-3-14-2zm24 24q6 3 7 7h1v-13h-1v1l-3 3zm-48-6-3-4-3-4h-1v1q-3 5 0 12h1zm50 6 5-4v10zm-26-25-5-6 11 2-3 2zm-25 19-5 4q-3-6 0-10l2 3zm26 25 3 4 3 2q-5 1-11-2 3 0 5-4"/><path fill="#ccc" d="M785 419v-2l5-5 3-1h2l5 1 1 4 2 2v2l-2 4-3 2h-3q0-8-10-7"/><path d="M785 419q5-1 7 1t3 5v1l3-1 3-2 2-4v-3l-1-2-2-4h-10l-3 3-2 3zm0 0v-2l5-5 3-1 2 1h4l2 4 1 2v2l-4 5-2 1q-1-9-11-7"/><path fill="#ccc" d="m795 411 12-8h1l-7 13-2-3z"/><path d="m795 411 3 2 3 2h1l6-13-1-1v1zm1 0 11-8v1l-6 11-2-2z"/><path fill="#ccc" d="M803 403q1 4 5 3 5-2 5-6t-5-3-5 6"/><path d="m803 403 1 3h4l4-2 2-4q0-3-2-3h-4l-4 2zm1 0 1-3 3-2h3l2 2-2 3-3 2h-3z"/><path fill="#ccc" d="M775 429q-1 12-5 24l-9 10q4-13 5-25z"/><path d="m776 429-9 9-1 8-5 17h1l9-10h1zm-2 1-4 23-8 8 1-6 4-17z"/><path fill="#ccc" d="m761 443 26-8-8 9-24 6-1-1z"/><path d="m761 443-6 6v1l1 1 24-7 8-8v-1zm0 1 24-8-7 8-23 6v-1z"/><path fill="#ccc" d="M729 473q9 3 11 9 3 0 5-2c-2-9-9-11-11-11-5 0-4 2-5 4"/><path d="M728 474q6 1 8 3l4 5h3l2-2a14 14 0 0 0-11-12l-4 1-1 3zm1-1 1-1 1-2 3-1 5 3q4 3 5 8l-3 1-4-5z"/><path fill="#ccc" d="M720 481q10 3 12 9 3 0 4-2c-2-9-9-11-11-11q-5 1-5 4"/><path d="M720 481q5 1 7 4l4 5h4l2-2a15 15 0 0 0-12-12l-3 1-1 2zm1 0v-2l1-1 3-1 5 3q5 3 6 8l-4 1-4-5z"/><path fill="#ccc" d="m625 549 4 1q0 4 4 8l7 4v6h-9q-4-8-10-12-1-3 1-6h3z"/><path d="M625 549h-1l-2 1-1 3v3h1l9 12h1l4 1 5-1 1-4v-3h-1q-3 0-7-4-3-3-3-7zm0 1 4 1q0 3 4 7l7 4v2l-1 3-4 1h-4v-1q-4-6-10-11v-3l1-3z"/><path fill="#ccc" d="M560 545q0 5 5 6 4 0 6-4-1-5-6-5-5-1-5 3"/><path d="m559 545 2 4 4 2h4l2-4-2-4-4-2-4 1zm1 0 2-2 3-1 4 2 1 3-1 3-4 1-3-2z"/><path fill="#ccc" d="M558 600q0 5 5 6 5 0 6-4-1-5-6-6-5 0-5 4"/><path d="m557 600 2 4 4 2 4-1q3-2 2-3 1-3-2-4l-4-2-4 1zm1 0 2-3h3l4 2 1 3-1 3h-4l-3-2z"/><path fill="#ccc" d="M618 612q2 5 6 6 5 0 5-5 0-3-5-5-5 0-6 4"/><path d="m618 612 2 4 4 2 4-1 2-3-2-4-4-2-4 1zm1 0 1-3h4l3 1 2 3q0 3-2 3l-3 1-4-1z"/><path fill="#fa0204" d="M689 505q0 2-4 2t-4-2 4-2 4 2"/><path d="m689 505-1 2h-3q-4 0-5-2l2-2 3-1 3 1zm-1 0q0-2-3-2l-3 1-1 1 4 1z"/><path fill="#fa0204" d="m691 509-4 2q-4 0-4-3l4-1q4-1 4 2"/><path d="m691 509-1 1-3 1q-5 0-5-3l2-1 3-1 3 1zm-1 0q0-2-3-2h-3l-1 1q0 2 4 2z"/><path fill="#fa0204" d="M691 514h-4q-4-1-3-3h4q4 0 3 3"/><path d="m692 514-2 1h-3q-4-1-4-4l2-1h3l3 2zm-1-1-3-1h-4v2l3 1h3z"/><path fill="#fa0204" d="M691 517q0 3-4 2t-3-3q0-3 4-1 5 0 3 2"/><path d="m692 517-2 2h-3l-4-3 2-2h3zm-1 0-3-2h-3l-1 1q0 2 3 2 3 1 4-1"/><path fill="#fa0204" d="m693 522-5 1q-4-1-3-3l4-1q4 1 4 3"/><path d="m693 522-2 1h-3q-4 0-4-3l2-2 3 1q4 0 4 3m-1 0q0-2-3-3h-3l-1 1q0 2 3 2z"/><path fill="#fa0204" d="m705 515-1-2 3-2v2z"/><path d="m705 516-1-2v-1l3-3 1 3zm0-1 2-2v-2l-2 2z"/><path fill="#fa0204" d="m702 518-1-3 3-2v2z"/><path d="m702 518-1-1v-2l3-3h1v3zm0-1 2-2v-2l-2 2z"/><path fill="#fa0204" d="M699 522q-3-1-1-4l2-2 1 3q0 3-2 3"/><path d="M699 522q-2 1-2-2v-2l1-1 2-1 2 1-1 4zm0-1 1-4-1-1-1 1-1 1z"/><path fill="#fa0204" d="M695 525q-2-1-2-3l3-3q3 1 2 4z"/><path d="m695 526-2-2v-2l1-2 2-1 2 2v2l-1 2zm0-1 1-1 1-1v-2l-1-1h-1l-1 2v2z"/><path fill="#fa0204" d="M694 527q-1 3-3 2-3-1-3-4l4-1z"/><path d="m695 527-2 2h-3l-2-1v-3l1-1h3l2 1zm-1 0-1-2-1-1h-2l-2 1 1 2 2 1h1z"/><path fill="#fa0204" d="m668 514 2 1 2 2h-3z"/><path d="m668 513 3 2 1 2-2 1-1-1zm1 1v3h2v-1l-1-1z"/><path fill="#fa0204" d="m676 516 1 3-5 2q-3-1-1-3z"/><path d="m676 516 2 1-1 2-2 2-3 1-2-2 1-2 2-2zm0 1h-3l-2 1v2l1 1 2-1 2-1z"/><path fill="#fa0204" d="M681 519q2 2 0 3-2 2-5 1-2-1 0-3z"/><path d="m683 521-1 2-3 1h-3l-2-2 2-2 2-1h3zm-2-1h-2l-3 1-1 1 1 1h3l2-1z"/><path fill="#fa0204" d="M685 522q3 2 0 3-2 2-5 1v-3z"/><path d="m687 524-1 2-3 1h-3l-1-2 1-2 3-1h3zm-2-1h-2l-2 1-1 1v1h3l2-1z"/><path fill="#fa0204" d="M687 525q2 1 1 3 0 2-4 3l-1-4z"/><path d="m687 524 2 2v2l-2 2-3 1-1-2v-2l1-2zm0 1-2 1-1 1v2l1 1h1l2-2v-2z"/><path fill="#fa0204" d="M691 529v3q-2 3-5 2-1-1 1-4 1-2 4-1"/><path d="m691 528 1 2-1 3-2 1h-3l-1-2 1-2 2-1zm-1 1h-1l-2 2-1 1 1 2h2l1-2 1-2z"/><path fill="#fa0204" d="M664 518q2 0 3 3l-3 3-2-3q0-3 2-3"/><path d="m664 517 2 1 1 3-1 2-2 1-2-1v-5zm0 1-1 2 1 2h1l1-1 1-1-1-2z"/><path fill="#fa0204" d="m669 521 1 3q-1 3-4 3l-1-4z"/><path d="m669 521 1 1v3l-1 2h-3l-1-1v-3l1-2zm-1 1h-1l-1 2v3l2-1 1-2v-1z"/><path fill="#fa0204" d="m673 524 1 4-4 3q-3-2-1-5 1-2 4-2"/><path d="m673 523 1 2v3l-2 2-2 1-2-2v-3l2-2zm-1 1-1 1-2 2v2l1 1h2l1-3v-2z"/><path fill="#fa0204" d="m676 526 3 4q0 3-3 4-3 0-3-4z"/><path d="m676 526 2 1 1 3-1 3-2 2-2-2-1-3v-2zm0 1-2 1v5l2 1 1-2 1-2-1-2z"/><path fill="#fa0204" d="M679 529q3 0 3 3l-2 3q-3 0-3-3z"/><path d="m679 528 3 2 1 2-1 2-2 2-2-1-1-3v-2zm1 1-1 1v4l2 1 1-1 1-2-1-2z"/><path fill="#fa0204" d="M683 532q3 0 3 3l-2 3q-3-1-3-3z"/><path d="m683 531 3 1v5l-2 2-3-2v-4zm0 1-1 1v4l2 1 1-1v-4z"/><path fill="#fa0204" d="M707 524h-4v-4q2-1 4 1z"/><path d="M707 525h-2l-2-1-1-2v-2h3l2 1 1 2zm0-1v-1l-1-2-1-1-2 1v1l1 1 1 1z"/><path fill="#fa0204" d="M705 528q-2 1-4-1v-3q2-1 4 1z"/><path d="m705 528-2 1-2-1-1-2v-3h3l2 1 1 2zm0 0v-2l-1-1-2-1h-1v3l2 1z"/><path fill="#fa0204" d="M701 531q-2 1-4-1v-3q2-1 4 1z"/><path d="m701 531-2 1-2-1-1-2v-3h3l2 1 1 2zm0 0v-2l-1-1-1-1h-2v1l1 2 1 1z"/><path fill="#fa0204" d="m700 533-4 1q-2 0-3-3l4-1z"/><path d="m700 533-2 1-2 1-2-2-1-2 2-1h2l2 1zm-1 0v-1l-2-1h-2l-1 1v1l2 1z"/><path fill="#fa0204" d="M694 532v4q-1 3-4 2-1-2 1-4z"/><path d="m695 532 1 2-1 2-2 2h-3l-1-2 1-2 2-2zm-1 1h-1l-2 1-1 2 1 2 1-1 2-1z"/><path fill="#fa0204" d="M689 535v3q-2 3-4 2v-4q2-2 4-1"/><path d="m689 534 1 2-1 3-2 1h-2q-2 0-1-2v-2l3-2zm0 1h-2l-2 1-1 2 1 2h2l2-2z"/><path fill="#fa0204" d="M677 542q-1 1 1 4 2 2 5 1 1-2-1-4-3-2-5-1"/><path d="M677 541h3l2 1 2 3-1 2h-3l-2-1-2-2zm1 1-1 1 1 2 3 2h1l1-2-2-2-2-1z"/><path fill="#fa0204" d="M675 545q-1 2 1 4t5 2q1-2-2-5-2-2-4-1"/><path d="M675 545h2l3 1 1 2v3h-3l-3-1-1-3zm0 1v1l1 2 2 1h2v-1l-1-2-2-2z"/><path fill="#fa0204" d="m674 549-1 4q1 3 4 2l1-4q-2-3-4-2"/><path d="m674 548 2 1 2 2 1 3-2 2-3-1-1-2-1-3zm0 1-1 1 1 3 1 1 2 1 1-1-1-3-1-1z"/><path fill="#fa0204" d="M671 553q-2 1-1 4t4 2l1-4z"/><path d="m671 552 2 1 2 2v3l-1 2-3-1-2-2v-3zm0 1-1 1v2l2 2 2 1v-4l-1-2z"/><path fill="#fa0204" d="M669 557q-2 1-2 4l3 3q2 0 2-4z"/><path d="M668 557q2-1 3 1l1 2v3l-2 2-2-2-2-2 1-3zm1 0-1 2-1 2 1 2 2 1 1-2v-2l-1-2z"/><path fill="#fa0204" d="m665 561-1 4q0 3 3 3t2-4z"/><path d="m665 561 3 1 1 2v3l-2 2-2-1-2-3v-3zm1 1-2 1v2l1 2 2 1 1-1v-3l-1-2z"/><path fill="#fa0204" d="M663 565q-3 1-3 4t3 4q2-1 2-4z"/><path d="m663 565 2 1 1 3-1 3-2 1q-2 0-2-2l-1-2 1-3zm0 1-2 1v2l1 2 1 1 1-1 1-2-1-2z"/><path fill="#fa0204" d="M660 570q-3 1-3 4t3 4l2-4z"/><path d="m660 570 2 1 1 3-1 3-2 1q-2 0-2-2l-1-2v-3zm0 1-2 1v4l2 1 1-1 1-2-1-2z"/><path fill="#fa0204" d="m656 575-2 3 2 4q2 0 3-4z"/><path d="m656 575 2 1 1 3-1 2-2 2-2-2-1-3 1-2zm0 0-1 1-1 2 1 3 1 1 1-1 1-3-1-2z"/><path fill="#fa0204" d="m652 579-2 3 2 4q3 0 3-4 0-2-3-3"/><path d="m652 578 2 2 1 2v3l-3 2-2-2-1-3 1-2zm0 1-1 1-1 2 1 3 1 1 2-1v-5z"/><path fill="#fa0204" d="m648 582-2 4 2 4q3-1 3-4t-3-4"/><path d="m648 582 2 1 1 3v3l-3 1-2-2-1-2 1-3zm0 1-1 1-1 2 1 2 1 1 2-1v-4z"/><path fill="#fa0204" d="m644 585-3 4 3 3q3-1 2-3z"/><path d="m644 585 2 1 1 3-1 2-2 2-2-2-1-2 1-3zm0 1-1 1-1 2 1 2 1 1 1-1 1-2-1-2z"/><path fill="#fa0204" d="M640 588q-3 1-3 4 0 2 3 3 2 0 2-3z"/><path d="m640 588 2 1 1 3-1 2-2 2-2-2-1-2 1-3zm0 1-2 1v4l2 1 1-1 1-2-1-2z"/><path fill="#fa0204" d="m635 589-2 6 2 2q2 0 3-4z"/><path d="m635 589 2 1 1 3v1l-1 2-2 1-2-2zm0 1-1 5 1 2q2 0 2-4l-1-2z"/><path fill="#fa0204" d="m734 593 5 2-2-7q-3 2-3 5"/><path d="m733 593 1-3q1-3 3-2 0-1 0 0l2 7-1 1-2-1zm4 1-2-6-1 1-1 3z"/><path fill="#fa0204" d="M734 587q-3 0-4 3v4q4-1 4-3z"/><path d="m734 586 1 2v3l-2 2-3 1-1-2v-3l2-2zm-1 1-1 1-2 2v2l1 1h1l2-2v-3z"/><path fill="#fa0204" d="M729 584q-3 1-3 4l2 3q3 0 3-4z"/><path d="m729 584 2 1 1 2-1 3-3 2-2-2v-2l1-3zm0 0-2 1v5l1 1 2-1 1-3-1-2z"/><path fill="#fa0204" d="M725 581q-3 1-3 3l2 4q3 0 3-4 0-3-2-3"/><path d="m725 580 2 2 1 2-1 3-3 1-2-1v-3l1-2zm0 1-2 1v5l1 1 2-2 1-2-1-2z"/><path fill="#fa0204" d="m721 577-3 3 2 4q3-1 3-4z"/><path d="m721 576 2 2 1 2-1 3-3 2-2-2v-3l1-2zm0 1-1 1-1 2v3l1 1 2-1 1-3-1-2z"/><path fill="#fa0204" d="m717 574-3 3 2 4q3-1 3-4 1-3-2-3"/><path d="m717 573 2 2 1 2-1 3-3 1-2-1v-3l1-2zm0 1-1 1-1 2v2l2 1 1-1 1-2-1-2z"/><path fill="#fa0204" d="M714 569q-3 1-3 4l2 3q3 0 3-4z"/><path d="m714 569 2 1 1 2-1 3-3 2-2-2v-2l1-3zm0 0-2 1v5l1 1 2-1 1-3-1-2z"/><path fill="#fa0204" d="M711 565q-3 1-3 3 0 4 2 4t3-4z"/><path d="m711 564 2 2v2l-1 3-2 2-2-2-1-3 1-2zm0 1-2 1-1 2 1 3 1 1 1-1 1-3v-2z"/><path fill="#fa0204" d="m707 560-2 4q-1 4 2 4l3-4q0-3-3-4"/><path d="m707 560 2 1 1 3-1 3-2 1-2-1-1-3 1-3zm0 1-1 1-1 2v2l2 1 1-1 1-2v-2z"/><path fill="#fa0204" d="M705 555q-3 1-3 4l2 4 3-4z"/><path d="m705 555 2 1v3l-1 2-2 2-2-2-1-2 1-3zm0 1-2 1-1 2 1 2 1 1 1-1 1-2z"/><path fill="#fa0204" d="M702 551q-3 0-3 3-1 4 2 4l3-4q0-3-2-3"/><path d="m702 550 2 2v2l-1 3-2 1-2-1-1-3 1-2zm0 1-2 1-1 2 1 2 1 1 1-1 1-2v-2z"/><path fill="#fa0204" d="m699 545-3 3 2 4q3 0 3-4z"/><path d="m699 545 2 1 1 2-1 3-3 2-2-2v-3l1-2zm0 0-1 1-1 2v3l1 1 2-1 1-3-1-2z"/><path fill="#fa0204" d="M693 539c0 1 0 7 3 8 2 0 3-4 3-4z"/><path d="m693 539 5 3v1l-1 2-2 2q-3 0-3-4zm1 1v3q0 3 2 3l2-1v-2z"/><path fill="#fa0204" d="M687 622q-1 2 1 4h5q1-2-2-4z"/><path d="M686 621h3l2 1 2 2v2l-2 1-3-1-2-2zm1 1v2l1 1 3 1h2l-1-2-1-2z"/><path fill="#fa0204" d="M692 621q-1 2 2 4h5l-2-4z"/><path d="m692 621 2-1 3 1 2 2v3h-3l-3-1-1-2zm1 0v2l1 2 2 1 2-1v-1l-2-2-2-1z"/><path fill="#fa0204" d="M698 620q-1 2 1 4h5q1-2-2-4z"/><path d="m697 620 3-1 3 1 2 2v3h-3l-3-1-2-2zm1 0v2l2 1 2 1h2v-2l-2-1-2-1z"/><path fill="#fa0204" d="m703 619 2 4h5q1-3-2-4z"/><path d="m703 619 2-1 3 1 2 1 1 3-3 1-3-1-2-1zm1 1v1l2 2h4l-1-2-2-2h-2z"/><path fill="#fa0204" d="m709 618 2 4h5q1-3-2-4z"/><path d="m709 618 2-1h3l2 2 1 3-3 1-3-1-2-2zm1 0v2l2 1 2 1 2-1-1-1-1-2z"/><path fill="#fa0204" d="m714 617 3 3 5-1q0-2-3-3-3-2-5 1"/><path d="m714 616 2-1h3l3 2v2l-2 2-3-1-2-1zm1 1v1l2 2h3l1-1v-2l-2-1h-3z"/><path fill="#fa0204" d="m720 615 3 3 5-1q0-2-3-3-3-2-5 1"/><path d="m720 615 2-2h3l2 2 1 2-2 2-3-1-3-1zm1 0v1l2 2h3l1-1v-2l-2-1h-3z"/><path fill="#fa0204" d="m726 613 3 3q3 0 5-2l-3-3q-3 0-5 2"/><path d="m726 612 2-1h3l2 1 1 3-2 1h-3l-3-1zm0 1 1 1 2 1h3l1-1-1-1-2-1h-2z"/><path fill="#fa0204" d="M732 610q0 3 3 3 3 1 4-1t-3-3z"/><path d="m731 610 3-1h3l2 1 1 2-3 2h-3l-2-2zm1 0 1 2 2 1h2l2-1-1-2-4-1z"/><path fill="#fa0204" d="M737 607q1 3 3 3 3 1 5-1l-3-3z"/><path d="m737 607 2-1h3l3 1 1 2-3 2h-3l-2-1zm1 1 1 1h3l2-1-1-1-2-1h-3z"/><path fill="#fa0204" d="M744 604q0 3 2 3 3 1 5-1 0-2-3-3z"/><path d="m743 604 2-1h3l3 1 1 2-3 2h-3l-2-1zm1 1 2 1h2l2-1-1-2-2-1-3 1z"/><path fill="#fa0204" d="M750 602q0 2 2 3 3 1 5-2 1-1-3-3z"/><path d="m749 602 2-2h3l3 1 1 2q-1 2-3 2h-3l-2-1zm1 0 1 1 2 1h2l2-1-1-1-4-1z"/><path fill="#fa0204" d="M750 597q1 3 3 3 3 1 5-1 0-3-3-3z"/><path d="m750 597 2-1 3-1 3 2v2l-2 2h-3l-2-1zm1 1 2 1h3l2-1-1-2h-5z"/><path fill="#fa0204" d="m749 596 5-1q-3-3-5-3z"/><path d="m749 597-1-5h4l2 3-3 2zm0-1h2l2-1-2-2h-2z"/><path fill="#fa0204" d="M638 610v4q1 3 4 3v-5z"/><path d="M637 610h3l2 2 1 3-1 2-3-1-2-2-1-2zm1 0-1 2 1 2 2 2h2v-1l-1-3-1-1z"/><path fill="#fa0204" d="M643 613v4q2 3 5 2v-4q-2-3-5-2"/><path d="m643 612 3 1 2 2 1 2-1 3-3-1-2-2-1-3zm1 1-1 1 1 3 2 1 1 1 1-2-1-2-2-2z"/><path fill="#fa0204" d="M649 614v4l4 2v-4q-2-3-4-2"/><path d="m649 613 2 1 2 2 1 2-1 3-2-1-3-2v-2zm0 1v4l2 1 2 1v-4l-2-2z"/><path fill="#fa0204" d="M655 615v5l4 2v-4z"/><path d="M655 615h2l3 2v3l-1 2h-2l-3-2v-3zm0 1v3l2 2 2 1v-4l-2-2z"/><path fill="#fa0204" d="M660 616v5l5 2v-5z"/><path d="M660 616h3l2 2 1 3-1 2h-3l-2-2-1-3zm1 1-1 1 1 2 2 2 1 1 1-2-1-2-2-2z"/><path fill="#fa0204" d="M666 618v4q2 3 4 2v-4q-2-3-4-2"/><path d="m666 617 2 1 2 1 1 3-1 2h-3l-2-2v-3zm0 1v4l2 1 2 1v-4l-2-2z"/><path fill="#fa0204" d="M671 619v4q2 3 5 3 1-2-1-5z"/><path d="M671 619h3l2 2 1 3-1 2h-3l-2-2-1-3zm1 1-1 1 1 2 1 2h2l1-1-1-3-2-1z"/><path fill="#fa0204" d="M677 620v4q2 3 4 2v-4z"/><path d="M677 620h2l2 2 1 2-1 3h-3l-2-2v-3zm0 1-1 1 1 2 2 2h2v-1l-1-3-1-1z"/><path fill="#fa0204" d="M682 621v4q2 3 5 2 1-2-1-4z"/><path d="M682 621h3l2 2 1 2-1 3-3-1-2-2-1-2zm1 0-1 2 1 2 1 2h2l1-2-1-2-2-1z"/><path fill="#fa0204" d="M621 593q-2-1-4 1v5l5-2q1-3-1-4"/><path d="m622 592 1 3-1 2-2 2h-3l-1-2 1-3 2-2zm-1 1h-2l-1 2-1 2 1 1h2l1-1 1-2z"/><path fill="#fa0204" d="m620 597-4 2q-2 3 1 4 2 1 3-2z"/><path d="m620 597 1 2v2l-2 2-3 1-1-2v-3l2-2zm-1 0-1 1-2 1v3l1 1h2l1-2v-2z"/><path fill="#fa0204" d="M621 601q-2 0-3 3-1 2 1 4 3 0 4-3z"/><path d="m621 601 2 2v3l-1 2-3 1-2-3v-2l2-2zm0 1h-1l-2 2v2l1 2 2-1 1-2v-2z"/><path fill="#fa0204" d="M626 604q-3-1-4 2l1 4q3 1 4-2z"/><path d="m626 603 1 2v3l-1 2-3 1-2-3 1-2 1-2zm0 1h-2l-1 2-1 2 1 2 2-1 1-1 1-3z"/><path fill="#fa0204" d="M629 605q-3 1-2 3l3 4 2-4z"/><path d="m628 604 2 1 1 3v2l-1 2-3-1-1-3v-2zm1 1-1 1v2l1 3h1l1-1v-2l-1-2z"/><path fill="#fa0204" d="M634 607q-2 1-2 4l4 3 1-4q-1-3-3-3"/><path d="m634 606 2 2 1 2v3l-1 1q-1 1-3-1l-1-2v-3zm0 1-1 1v3l1 2 1 1 2-2v-2l-2-2z"/><path fill="#fa0204" d="M680 539q-1 1 1 4 2 2 4 1 2-2-1-4-2-2-4-1"/><path d="M680 538h2l3 1 1 3v2l-3 1-3-2-1-2zm0 1v1l1 2 2 2h2v-2l-1-2-2-1z"/><path fill="#fa0204" d="M679 543q-2 2 1 4 2 3 4 2 1-2-1-5z"/><path d="M678 543h3l2 1 2 2v3h-3l-3-1-1-3zm1 1v1l1 2 2 1h2v-1l-1-2-2-1z"/><path fill="#fa0204" d="M679 549q-2 2 1 4 2 2 4 1 1-2-1-4t-4-1"/><path d="M678 548h3l3 2 1 2v2l-3 1-3-2-1-2zm1 1v2l1 2 2 1h2v-2l-1-2-2-1z"/><path fill="#fa0204" d="M679 554q-2 2 1 5 2 2 4 1 1-2-1-4t-4-2"/><path d="M678 554h3l2 1 2 3v2h-3l-3-1-1-3zm1 1v1l1 2 2 2h2v-2l-1-2-2-1z"/><path fill="#fa0204" d="M679 560q-1 2 1 4t4 1q2-2-1-4-2-2-4-1"/><path d="m679 560 2-1 3 2 1 2v3h-3l-3-2-1-2zm0 0v2l1 2 2 1h2v-2l-1-2-2-1z"/><path fill="#fa0204" d="M678 565q-1 2 1 4l4 2q2-2-1-5-2-2-4-1"/><path d="M678 565h2l3 1 1 2v3h-3l-3-1-1-3zm0 0v2l1 2 2 1h2v-1l-1-2-2-2z"/><path fill="#fa0204" d="M679 571q-2 2 1 4 2 2 4 1 1-2-1-4t-4-1"/><path d="m678 571 3-1 2 2 2 2v3h-3l-3-2-1-2zm1 0v2l1 2 2 1h2v-2l-1-2-2-1z"/><path fill="#fa0204" d="M678 576q-1 1 1 4 2 2 4 1 2-2-1-4-2-2-4-1"/><path d="M678 575h2l3 1 1 3v2h-3l-3-1-1-2zm0 1v1l1 2 2 2h2v-2l-1-2-2-1z"/><path fill="#fa0204" d="M679 580q-2 2 1 4l4 2q1-2-1-5-2-2-4-1"/><path d="M678 580h3l2 1 2 2v3h-3l-3-1-1-3zm1 0v2l1 2 2 1h2v-1l-1-3-2-1z"/><path fill="#fa0204" d="M679 586q-2 1 1 4 2 2 4 1 1-2-1-4t-4-1"/><path d="M678 585h3l2 1 2 3v2l-3 1-3-2-1-2zm1 1v1l1 2 2 2h2v-2l-1-2-2-1z"/><path fill="#fa0204" d="M678 591q-1 2 1 4t5 1q1-2-1-4t-5-1"/><path d="m678 591 3-1 2 2 2 2-1 3h-3l-2-2-2-2zm1 0-1 2 2 2 2 1h1l1-2-2-2-2-1z"/><path fill="#fa0204" d="M678 596q-1 2 1 4l5 2q1-3-1-5t-5-1"/><path d="M678 596h3l2 1 2 2-1 3h-3l-2-1-1-3zm1 0-1 2 2 2 2 1h2v-1l-2-2-2-2z"/><path fill="#fa0204" d="M679 602v4q3 2 5 1 1-2-1-4t-4-1"/><path d="M678 601h3l2 1 2 3-1 2-2 1-3-2-1-2zm1 1v2l3 3h2v-2l-1-2-2-1z"/><path fill="#fa0204" d="M679 607v4q3 2 5 1 1-2-1-4t-4-1"/><path d="m678 607 3-1 2 2 2 2-1 3h-2l-3-2-1-2zm1 0v2l1 2 2 1h2v-2l-1-2-2-1z"/><path fill="#fa0204" d="M678 612q-1 2 1 4 3 3 5 2 1-2-1-5z"/><path d="M678 612h3l2 1 2 2-1 3h-3l-2-1-1-3zm1 1-1 1 2 2 2 1h2v-1l-2-2-2-1z"/><path fill="#fa0204" d="M678 618q-1 2 1 4t5 1q1-2-2-4-2-2-4-1"/><path d="M678 617h2l3 1 1 3v2l-3 1-3-2-1-2zm0 1v2l1 2 2 1h2v-2l-1-2-2-1z"/><path fill="#fa0204" d="M678 624q-1 1 1 4 2 2 5 1 1-2-2-4-2-2-4-1"/><path d="M678 623h2l3 1 1 3v2l-3 1-3-2-1-2zm0 1v1l1 2 2 2h2v-2l-1-2-2-1z"/><path fill="#fa0204" d="M678 630q-1 2 1 4t4 1q2-2-1-4-2-2-4-1"/><path d="M677 629h3l3 1 1 3v2l-3 1-3-2-1-2zm1 1v2l1 2 2 1h2v-2l-1-2-2-1z"/><path fill="#fa0204" d="M678 635q-1 2 1 5 2 2 4 1 2-2-1-4z"/><path d="M677 635h3l3 1 1 3v2h-3l-3-1-1-3zm1 1v1l1 2 2 2h2v-2l-1-2-2-1z"/><path fill="#fa0204" d="M678 641q-1 2 1 4t4 1q2-2-1-4-2-2-4-1"/><path d="M677 640h3l3 2 1 2v2l-3 1-3-2-1-2zm1 1v2l1 2 2 1h2v-2l-1-2-2-1z"/><path fill="#fa0204" d="M678 647v4q3 2 5 1 1-2-1-4t-4-1"/><path d="M677 646h3l2 2 2 2v2l-3 1-3-2-1-2zm1 1v2l1 2 2 1h2v-2l-1-2-2-1z"/><path fill="#fa0204" d="m693 539-2 4h-4q-1-2 2-4z"/><path d="M693 539v2l-2 2-2 1-3-1v-2l2-2 3-1zm-1 0h-1l-2 1-2 1v2h2l2-1 1-1z"/><path fill="#fa0204" d="m694 543-2 4h-4q-1-1 1-3 3-2 5-1"/><path d="M694 543v2l-2 2-2 1h-3v-3l2-2 3-1zm-1 0h-1l-2 1-2 2v1l2 1 2-1 1-2z"/><path fill="#fa0204" d="m694 548-2 4h-4q-1-2 1-4z"/><path d="M694 548v2l-2 2-2 1h-3v-3l2-2 3-1zm-1 0h-1l-2 1-2 1v2h4l1-2z"/><path fill="#fa0204" d="M693 553q1 2-1 4h-5l2-4z"/><path d="M694 553v2l-2 2-2 1-3-1v-2l2-2 2-1zm-1 0h-1l-2 1-2 1v2h1l3-1 1-1z"/><path fill="#fa0204" d="M693 557q1 3-1 4-3 2-5 1l2-4z"/><path d="M694 557v3l-2 2-3 1-2-1v-2l2-3zm-1 1-2-1-2 1-1 2v1l1 1 2-1 2-2z"/><path fill="#fa0204" d="m694 562-2 4q-2 2-4 1-1-3 1-4 3-2 5-1"/><path d="M694 562v2l-2 2-2 1h-3v-3l2-2 3-1zm-1 1-1-1-2 1-2 2v1l2 1 2-1 1-2z"/><path fill="#fa0204" d="M693 567q1 2-1 4h-5l2-4z"/><path d="M694 567v2l-2 2-3 1-2-1v-2l2-2 2-1zm-1 0h-2l-2 1-1 1v2h1l2-1 2-1z"/><path fill="#fa0204" d="M693 572q1 2-2 4h-5l2-4z"/><path d="M693 572v2l-4 3h-3v-3l2-2 3-1zm0 0h-2l-2 1-2 1v2h4l2-2z"/><path fill="#fa0204" d="M693 577q1 2-1 4t-5 1q-1-2 1-4 3-2 5-1"/><path d="m693 576 1 3-2 2-2 2-3-1-1-2 2-3 2-1zm-1 1h-1l-2 1-2 2 1 2h1l3-1 1-2z"/><path fill="#fa0204" d="M693 582q1 2-1 4l-5 2q-1-3 1-5 3-2 5-1"/><path d="m693 582 1 2-4 4h-3v-3l1-2 3-1zm0 0h-2l-2 2-1 2v1h2l2-1 1-2z"/><path fill="#fa0204" d="M693 588q1 1-1 4-2 2-5 1-1-2 2-4 2-2 4-1"/><path d="m693 587 1 3-1 2-3 1h-3v-2l1-3 3-1zm0 1h-2l-2 1-1 2v2h2l2-2 1-2z"/><path fill="#fa0204" d="M693 593q1 2-1 4-2 3-5 2-1-2 1-5z"/><path d="m693 593 1 2-2 3-2 1h-3v-2l1-3 2-1zm-1 1h-1l-2 1-2 2 1 1 1 1 3-2 1-2z"/><path fill="#fa0204" d="M693 599q1 2-1 4t-5 1q-1-2 2-4 2-2 4-1"/><path d="m693 598 1 3-1 2-3 2h-3v-3l1-2 3-2zm0 1h-2l-2 1-1 2v2h2l2-1 1-2z"/><path fill="#fa0204" d="M693 604q1 2-1 4t-5 2q-1-2 1-5z"/><path d="m693 604 1 2-2 3-2 1h-3v-3l1-2 2-1zm-1 1-1-1-2 2-2 2 1 1h1l3-1 1-2z"/><path fill="#fa0204" d="M693 610q1 2-1 4t-5 1q-1-2 1-4 3-2 5-1"/><path d="m693 609 1 3-2 2-2 2-3-1v-2l1-2 3-2zm0 1h-2l-2 1-1 2v2h2l2-1 1-2z"/><path fill="#fa0204" d="M693 615q1 2-1 4t-5 2q-1-2 1-5z"/><path d="m693 615 1 2-4 4h-3v-2l1-3 3-1zm0 1h-2l-2 1-1 2v1h2l2-1 1-2z"/><path fill="#fa0204" d="M693 621q1 2-1 4-3 2-5 1-1-2 1-4t5-1"/><path d="M693 621v2l-1 2-2 2h-3l-1-3 2-2 2-2zm-1 0h-1l-2 1-2 2v2h2l2-1 2-2z"/><path fill="#fa0204" d="M693 626q1 2-1 4t-5 1q-1-2 2-4 2-2 4-1"/><path d="m693 626 1 2-1 2-3 2h-3v-3l1-2 3-2zm0 0h-2l-2 1-1 2v2h2l2-1 1-2z"/><path fill="#fa0204" d="M693 631q1 2-1 4t-5 2q-1-2 2-5z"/><path d="m693 631 1 2-1 3-3 1h-3v-3l1-2 3-1zm0 1-2-1-2 2-1 2v1h2l2-1 1-2z"/><path fill="#fa0204" d="M693 637q1 2-1 4t-5 1q-1-2 1-4 3-2 5-1"/><path d="m693 637 1 2-2 2-2 2h-3v-3l1-2 2-2zm-1 0h-1l-2 1-2 2 1 2h1l3-1 1-2z"/><path fill="#fa0204" d="M693 643q1 1-1 4-2 2-5 1-1-2 1-4 3-2 5-1"/><path d="m693 642 1 3-2 2-2 2-3-1v-2l1-3 2-1zm-1 1h-1l-2 1-2 2 1 2h1l3-2 1-2z"/><path fill="#fa0204" d="M683 686q7 2 15-1l-6-7z"/><path d="m683 685 8 1 6-1-5-7h1l5 7v1l-7 1z"/><path fill="#ffe000" d="m695 666-10-2c0-1 0-9 6-9 5 2 4 10 4 11"/><path d="m694 666-9-2h-1l1-5q2-4 6-4t4 6v5m0 0v-5q0-5-3-5t-5 3l-1 5z"/><path fill="#ffe000" d="M694 652q-1 3-4 3t-4-3q0-3 4-4 4 1 4 4"/><path d="m694 652-1 3a5 5 0 0 1-6 0l-2-3 2-3a5 5 0 0 1 6 0zm-1 0-1-2-2-1-3 1-1 2 1 2 3 1 2-1z"/><path fill="#fa0204" d="M694 670q4 7 1 15zm3 15q-6-2-14 1c-1-1-5-22 8-22 11 1 7 21 6 21"/><path d="m697 686-7-1-7 1-2-4v-8l2-7q3-4 8-4 5 1 6 4l2 8-1 10zm-3-16 2 7v7l1 1v-1l1-2v-7q0-11-7-11-4 0-7 3l-2 7 1 10v1l12-1 1-7z"/><path fill="#fa0204" d="M672 690q8 5 17 0l-12-11z"/><path d="M673 690q8 5 15 0l-12-11h1l12 11v1q-8 4-17 0z"/><path fill="#ffe000" d="M685 656q0 3-4 3t-4-3q1-3 4-4 3 1 4 4"/><path d="m685 656-1 3a5 5 0 0 1-6 0l-2-3 2-3 3-1 3 1zm-1 0-1-2h-5l-1 2 1 2h5z"/><path fill="#ffe000" d="M686 667h-10c0-1-1-7 5-7 5 0 5 7 5 7"/><path d="m686 668-10-1h-1v-4q2-4 6-4 3 0 5 4zm-1-1v-4q-1-3-4-3-4 0-5 3v3z"/><path fill="#fa0204" d="M681 689q-2-6-2-13zm-4 0q-4-5-1-14zm12 2c-2-2-12-3-17-1-1-1-5-24 9-24 13 1 9 24 8 25"/><path d="m688 691-2-1-4-1-10 2-1-5-1-8 3-9q3-4 8-4 6 1 8 5l2 8-1 12zm1-1v-2l1-9q-1-11-9-12-4 0-7 4l-3 8 1 11v1l4-1q-3-5-1-14h1q-3 9 1 14h3q-2-5-1-14l1 1q-1 7 1 13h1z"/></svg>