<svg xmlns="http://www.w3.org/2000/svg" viewBox="0 0 1000 1000"><defs><linearGradient id="a" x1="809.651" x2="799.119" y1="77.959" y2="74.447" gradientTransform="matrix(.81684 .06625 0 2.52286 8 132.207)" gradientUnits="userSpaceOnUse"><stop offset="0" stop-color="red"/><stop offset="1" stop-color="#ff0"/></linearGradient><linearGradient id="b" x1="808.876" x2="798.344" y1="96.296" y2="92.784" gradientTransform="matrix(.81684 .06671 0 2.52286 8 131.836)" gradientUnits="userSpaceOnUse"><stop offset="0" stop-color="red"/><stop offset="1" stop-color="#ff0"/></linearGradient><linearGradient id="c" x1="808.558" x2="798.026" y1="114.368" y2="110.856" gradientTransform="matrix(.81684 .0669 0 2.52286 8 131.684)" gradientUnits="userSpaceOnUse"><stop offset="0" stop-color="red"/><stop offset="1" stop-color="#ff0"/></linearGradient><linearGradient id="d" x1="835.377" x2="824.846" y1="133.94" y2="130.428" gradientTransform="matrix(.81684 .04994 0 2.52286 8 145.539)" gradientUnits="userSpaceOnUse"><stop offset="0" stop-color="red"/><stop offset="1" stop-color="#ff0"/></linearGradient><linearGradient id="e" x1="805.059" x2="794.528" y1="149.95" y2="146.438" gradientTransform="matrix(.81684 .06896 0 2.52286 8 130.037)" gradientUnits="userSpaceOnUse"><stop offset="0" stop-color="red"/><stop offset="1" stop-color="#ff0"/></linearGradient><linearGradient id="f" x1="805.855" x2="795.323" y1="168.867" y2="165.355" gradientTransform="matrix(.81684 .0685 0 2.52286 8 130.408)" gradientUnits="userSpaceOnUse"><stop offset="0" stop-color="red"/><stop offset="1" stop-color="#ff0"/></linearGradient><linearGradient id="g" x1="956.498" x2="945.966" y1="78.258" y2="74.746" gradientTransform="matrix(.81684 -.05307 0 2.52286 8 237.725)" gradientUnits="userSpaceOnUse"><stop offset="0" stop-color="red"/><stop offset="1" stop-color="#ff0"/></linearGradient><linearGradient id="h" x1="955.149" x2="944.617" y1="96.258" y2="92.746" gradientTransform="matrix(.81684 -.05168 0 2.52286 8 236.408)" gradientUnits="userSpaceOnUse"><stop offset="0" stop-color="red"/><stop offset="1" stop-color="#ff0"/></linearGradient><linearGradient id="i" x1="953.35" x2="942.818" y1="114.656" y2="111.144" gradientTransform="matrix(.81684 -.04984 0 2.52286 8 234.662)" gradientUnits="userSpaceOnUse"><stop offset="0" stop-color="red"/><stop offset="1" stop-color="#ff0"/></linearGradient><linearGradient id="j" x1="955.374" x2="944.842" y1="132.756" y2="129.244" gradientTransform="matrix(.81684 -.05191 0 2.52286 8 236.627)" gradientUnits="userSpaceOnUse"><stop offset="0" stop-color="red"/><stop offset="1" stop-color="#ff0"/></linearGradient><linearGradient id="k" x1="954.924" x2="944.392" y1="150.855" y2="147.343" gradientTransform="matrix(.81684 -.05145 0 2.52286 8 236.189)" gradientUnits="userSpaceOnUse"><stop offset="0" stop-color="red"/><stop offset="1" stop-color="#ff0"/></linearGradient><linearGradient id="l" x1="955.149" x2="944.617" y1="169.054" y2="165.542" gradientTransform="matrix(.81684 -.05168 0 2.52286 8 236.408)" gradientUnits="userSpaceOnUse"><stop offset="0" stop-color="red"/><stop offset="1" stop-color="#ff0"/></linearGradient></defs><path fill="#00247d" d="M8 195.3c170.8-85.3 341-54.5 513.3-28C676.5 191 833.4 211.8 992 132.7v672c-170.8 85.3-341 54.5-513.3 28C323.5 809 166.6 788.1 8 867.2z"/><path fill="#fff" d="M8 195.3a522 522 0 0 1 55-23.7c63 20.3 126 54.4 191 98.2a1945 1945 0 0 1 191-114.2l55 8.4 11 31.8c-66.7 35.2-133.3 69.9-202 113C375.6 358 442.3 414 511 471.5l-22 56.7C411.5 463.5 334 398.9 254 345A1230 1230 0 0 0 19 556L8 531.4v-37.6C71 419.2 134 360.3 199 310c-63-37.3-126-65.2-191-77.2z"/><path fill="#cf142b" d="M254 307.3q18 0 36.7.6c71.5 51.4 143 111.5 216.6 173.2L500 500c-81.1-68-162.3-136.2-246-192.7v25A1232 1232 0 0 0 15.3 547.8L8 531.2a1240 1240 0 0 1 246-223.9 716 716 0 0 0-36.7 1.3c-69-42.9-138.1-75.2-209.3-88.3v-25c81.2 14.9 162.3 55.7 246 112v-25c69.1-47.8 138.2-86 209.3-124L500 164c-81.2 42.9-162.4 85.5-246 143.3"/><path fill="#fff" d="M295 140v112c94.7 4 189.4 22.8 287 36.2v112c-94.7-13-189.4-32.1-287-36.2v168a755 755 0 0 0-82 .9v-168A530 530 0 0 0 8 419.3v-112a531 531 0 0 1 205-54.4v-112q40.3-2.6 82-.9"/><path fill="#cf142b" d="M278.6 139.5V274c100.1 2.3 200.2 22.6 303.4 36.7v67.2c-100-13.7-200.3-34.3-303.4-36.7v190.4q-24.2-.5-49.2.5V341.6A535 535 0 0 0 8 396.9v-67.2c73.1-36.5 146-52 221.4-55.3V140q24.2-1 49.2-.5"/><path fill="#00247d" d="M8 531.3C170.7 450 332.5 474 500 500V164c161.8 25 325.4 51.9 492-31.2v672c-170.8 85.2-341 54.4-513.3 28-155.2-24-312.1-44.6-470.7 34.5z"/><path fill="#fff" d="M644.5 345c67.8 6.3 135.6 7.4 205.4-5.2l-.4 249.9c2.3 12.3-6 24.8-12.7 35.4-11.4 17.7-33 42.5-73.4 69 33.7-6.3 69.7-59.1 70-59.7.4-.5 14.4-27.6 22.2-15.1a74 74 0 0 0 19.4 23.5c5.4 4.9 9.4 18.8 1.5 32.5-8.3 13.3-20.1 17.3-24 3.8-4.9 4.5-38.4 66.2-105.1 70-39.2-.8-68.1-22.8-85.8-41.2a140 140 0 0 1-19.7-25c-.2.5-8.8 18.4-22.1 1.8-12.3-22-3.2-33.4-3-33.6 0-.1 10.3-7.2 13.6-12.5 5-7.6 6.5-17.1 14.9-16.7 10 2.5 13.6 12.9 13.7 13.2.2.3 34.2 52.2 71.3 59.3-83.8-56.1-86.4-95-86.1-101.8z"/><path fill="#006129" d="M649.5 352.3c64.6 5.5 129.2 6.2 195.8-5.4v240.4c.1 31-38 70.5-98.3 111.8-62.3-43.3-97.7-75.3-98.3-108.6z"/><path d="M649.5 351.2c64.8 5.6 129.7 6.3 196.6-5.5V587q.2 22.6-26.8 53a418 418 0 0 1-72 60l-.3.2-.3-.2a518 518 0 0 1-72.4-58.3q-26-27.4-26.3-51.4l.7-238.1-.1-1.2zm.8 2.2-.8 237.1q.3 22.9 25.7 49.7a514 514 0 0 0 71.8 57.7c33.2-22.8 57-43.5 71.4-59.4q26.2-29.7 26.1-51.1V348.1c-64.1 11.1-128.2 11-194.2 5.3"/><path fill="#f7c600" d="m675.5 389.4 12.2-23.7 12.2 25.2-1.2 1-11-22.5-11 21.2z"/><path fill="#f7c600" d="M690 382.2q-.2 2.8-2.3 3-2-.4-2.3-3.3.3-2.8 2.3-3 2 .5 2.3 3.3"/><path d="M690.4 382.2q0 1.5-.8 2.6-.8 1-1.9 1-1.1-.1-1.9-1.3-.7-1-.8-2.6 0-1.5.8-2.5t2-1q1 0 1.8 1.2t.8 2.6m-.8 0q0-1-.5-1.9t-1.4-.8-1.3.7a3 3 0 0 0 0 3.7q.6.7 1.3.8.9 0 1.4-.7t.5-1.8"/><path fill="#f7c600" d="m678.3 407.3 18 1.1c0-.2 0-3-2-5.2 9.4-1.8 7-12.2 14.9-13 1 .8-3.7 4.3-4.2 4.6-.3.3-4.2 4-2.5 6.8 1.8 1.6 2.4-.8 2.7-3.3.7-2.2 7-3.4 6.5-9.8-2.5-4.9-11.5 2.6-12 3l-7.4-.4c-.6-1.5-2.5-5.4-4.6-6-2.5.6-4.1 5.1-4.2 5.5l-10.7-.7-6-.5c0 .4-.5 5.3 7.9 7.6 2 3.5 3.3 4.5 5 5.5q-1.5 1.8-1.4 4.8"/><path d="M678 407.8v-.6q0-2.9 1-4.5-2.6-2-4.5-5.2c-3.7-1-5.8-2.3-7.2-4.7q-1-1.7-.9-3.5v-.4l16.8 1.2c1.4-3.8 2.6-5.3 4.5-5.5 1.7.3 3.1 2 4.8 6l7 .4q2.6-2 5.4-3.5c4.2-2 6.1-1.8 7.2.8.3 3.3-1 5.7-4.5 8.3q-2 1.4-2 1.8-.3 2.4-1 3.4-.4.8-1 1-.5 0-1.4-.8a3 3 0 0 1-.6-2.6q.3-1.2 1-2.5 1-1.5 2.2-2.5l4-3.7c-2.3.4-4 2-6 5.6-2.2 4.2-4.5 6.3-7.5 7.3q1.5 2 1.3 4.9v.4l-18.3-1.1zm.7-1 17.2 1q0-2.5-1.8-4.2l-.8-.8 1-.1c3.2-.6 5.5-2.7 7.8-7 2.2-4 4.2-5.7 7-6h.1q.6 0 .6.8 0 .4-.4 1L708 393l-2.6 2.2q-1.2 1-2 2.3t-1 2q-.1 1 .4 1.6.5.5.8.5t.6-.5q.4-1 .7-3 0-1 2.4-2.6c3.2-2.3 4.4-4.3 4.2-7-.9-1.8-2.6-1.8-6.2 0q-2.8 1.3-5.3 3.4h-.1l-7.7-.4-.2-.3c-1.5-3.8-2.8-5.3-4.2-5.6-1.6.2-2.7 1.6-3.9 5.1v.4l-16.6-1.2q0 1 .7 2.2 1.8 3.1 6.8 4.3h.2v.2q2.1 3.5 5 5.4l.6.3-.5.6q-1.2 1.2-1.3 3.8"/><path d="m679.6 401.9 15 .8v1l-15-.8z"/><path fill="#f7c600" d="M672.8 389.9c0 .4 1.3 9 6.7 12.3z"/><path d="M673.1 389.8q.4 2.4 1.3 5c1.4 3.6 3 5.6 5.2 6.8l-.3 1q-3.4-1.7-5.6-7.4-1-2.8-1.3-5.3z"/><path fill="url(#a)" d="M671.8 389.7c.7-3.6 1.5-4.2 2.7-8.7-.1-4.5-2.4-4.2-1.8-7 1.3-3.3.7-5.9-2-8.7.2 4.1-3.3 7.7-3.6 11.1.2 3.4 1.9 2.8 1.8 8 .1 3-.5 2.1-.7 5z"/><path d="m672.2 390.2-4.5-.3v-.6q.1-1.3.6-2.5.3-.9.2-2.5a9 9 0 0 0-.9-4.6 7 7 0 0 1-1-3.3q.2-1.7 1.8-5 2-4 1.9-6l-.2-1.3.8.7a10 10 0 0 1 2.7 4.5q.6 2.4-.6 5-.2 1 .5 2 1.5 2.2 1.4 4.7v.1l-1.5 4.7q-.9 2.2-1.2 4zm-.7-1q.4-2 1.2-4 .9-2.3 1.4-4.3 0-2.1-1.1-3.8c-1.1-1.7-1-2.2-.7-3.4q1-2.1.6-4.1a8 8 0 0 0-1.9-3.3q-.1 2.3-2 5.7-1.5 3.1-1.6 4.4 0 1.3.8 2.7 1.2 2.2 1 5.2.1 1.9-.2 3l-.4 1.6z"/><path fill="#f7c600" d="M689.8 368.3q-.1 2.6-2 2.7-2-.4-2.2-3 .2-2.6 2.1-2.7 1.9.4 2.1 3"/><path d="M690.2 368.3a4 4 0 0 1-.7 2.4q-.7.9-1.8.9-1-.1-1.8-1.1a4 4 0 0 1 0-4.9q.8-.9 1.8-.9 1 .1 1.8 1.1.7 1.1.7 2.5m-.8 0a3 3 0 0 0-.5-1.7q-.5-.8-1.2-.8t-1.2.6-.5 1.7.5 1.6 1.2.8 1.2-.6.5-1.6"/><path fill="#f7c600" d="m674.9 435.6 12.2-23.7 12.2 25.2-1.3 1.1-11-22.5-10.9 21.1z"/><path fill="#f7c600" d="M689.4 428.4q-.2 3-2.3 3-2.1-.4-2.3-3.2.2-3 2.3-3 2 .4 2.3 3.2"/><path d="M689.8 428.5q0 1.5-.8 2.5t-2 1q-1-.2-1.8-1.2-.8-1.1-.8-2.7 0-1.5.8-2.5t1.9-1 1.9 1.2.8 2.7m-.8 0q0-1.1-.6-2t-1.3-.8q-.9 0-1.4.7a3 3 0 0 0-.5 1.8q0 1 .5 1.9.5.7 1.4.8.8 0 1.3-.7t.6-1.8"/><path fill="#f7c600" d="m677.7 453.5 17.9 1.1c0-.1.1-2.9-1.9-5.2 9.3-1.8 7-12.1 14.8-13 1 .9-3.7 4.3-4 4.6-.4.4-4.3 4-2.7 6.8 1.9 1.7 2.4-.8 2.7-3.2.8-2.2 7-3.4 6.6-9.9-2.5-4.8-11.6 2.6-12 3l-7.4-.4c-.6-1.4-2.5-5.3-4.6-6-2.6.6-4.1 5.2-4.3 5.5l-10.6-.7-6-.5c0 .4-.5 5.4 7.8 7.6 2 3.5 3.4 4.5 5 5.6q-1.4 1.7-1.3 4.7"/><path d="M677.3 454v-.5q0-2.9 1-4.6a16 16 0 0 1-4.4-5.2c-3.7-1-5.8-2.3-7.3-4.6q-1-1.9-.8-3.6v-.4l16.8 1.2c1.3-3.8 2.6-5.3 4.5-5.5 1.7.4 3 2 4.8 6l7 .4q2.6-2 5.4-3.4c4.1-2 6-1.8 7.2.7v.1c.3 3.2-1 5.6-4.6 8.2q-1.9 1.4-2 1.9-.3 2.2-.9 3.4-.4.8-1 .9t-1.4-.8a3 3 0 0 1-.6-2.6q.2-1.1 1-2.4 1-1.5 2.2-2.6l4-3.6c-2.4.4-4.1 2-6 5.6-2.3 4.1-4.5 6.3-7.6 7.2a7 7 0 0 1 1.4 5v.4l-18.3-1.2zm.8-1 17.1 1q0-2.5-1.7-4.1l-.9-.9 1-.1c3.3-.6 5.6-2.6 8-7 2.1-4 4.1-5.7 6.9-6q.7.1.7.9l-.4.8q-.4.7-1.5 1.7l-2.7 2.2q-1 1-2 2.4a6 6 0 0 0-.9 2q-.1.8.4 1.5t.8.5q.3 0 .5-.5a9 9 0 0 0 .7-3q.2-1 2.5-2.5c3.2-2.4 4.4-4.4 4.1-7-.8-1.9-2.5-1.9-6.2-.2q-2.7 1.5-5.3 3.5l-7.8-.4v-.3q-2.4-5.4-4.3-5.6c-1.6.2-2.7 1.6-4 5.2v.3l-16.6-1.2q0 1 .7 2.3c1.4 2 3.4 3.3 6.9 4.2h.1l.2.2q2 3.6 4.8 5.4l.6.3-.5.6q-1 1.2-1.2 3.8"/><path d="m679 448 14.9 1v1l-15-.9z"/><path fill="#f7c600" d="M672.1 436.1c0 .4 1.3 9 6.7 12.3z"/><path d="M672.5 436q.3 2.4 1.3 5 2 5.3 5.1 6.9l-.2 1q-3.5-1.9-5.6-7.4-1-3-1.4-5.3z"/><path fill="url(#b)" d="M671.2 435.9c.6-3.6 1.5-4.2 2.7-8.7-.1-4.5-2.4-4.2-1.9-7 1.4-3.3.8-5.9-2-8.7.2 4.2-3.3 7.7-3.6 11.1.2 3.4 2 2.8 1.9 8 0 3-.5 2.2-.8 5z"/><path d="m671.5 436.5-4.4-.4v-.6l.5-2.4q.3-1 .3-2.6.1-2.7-1-4.6a7 7 0 0 1-.9-3.3q0-1.7 1.8-5 2.1-4 1.8-6l-.1-1.3.7.7a10 10 0 0 1 2.8 4.5q.4 2.4-.6 5-.3 1 .5 2 1.5 2.3 1.4 4.8l-1.5 4.7q-.9 2.2-1.2 4zm-.6-1.2q.3-1.7 1.2-3.9t1.4-4.3q0-2.1-1.1-3.8c-1.1-1.7-1-2.2-.7-3.4q1-2.1.5-4.1a8 8 0 0 0-1.8-3.3q-.2 2.3-2 5.8-1.5 3-1.6 4.3 0 1.4.8 2.7 1.2 2.2 1 5.3.1 1.7-.3 3l-.3 1.5z"/><path fill="#f7c600" d="M689.2 414.5q-.2 2.6-2.1 2.8-1.9-.5-2.1-3 .1-2.7 2-2.8 2 .4 2.2 3"/><path d="M689.6 414.5a4 4 0 0 1-.7 2.4q-.7.9-1.8.9-1 0-1.8-1.1-.7-1.1-.7-2.5t.7-2.4 1.8-.8q1 0 1.8 1 .6 1.1.7 2.5m-.8 0q0-1-.5-1.7t-1.2-.8-1.2.6-.5 1.7.5 1.7 1.2.7 1.2-.6.5-1.6"/><path fill="#f7c600" d="m674.6 481.1 12.2-23.6 12.3 25.2-1.3 1-11-22.5-11 21.2z"/><path fill="#f7c600" d="M689.1 474q-.2 2.9-2.3 3-2-.4-2.3-3.3.3-2.8 2.3-3 2.1.5 2.3 3.3"/><path d="M689.5 474q0 1.5-.8 2.6-.8 1-1.9 1-1-.1-1.9-1.3-.7-1-.8-2.6 0-1.5.8-2.5t2-1q1 0 1.8 1.2t.8 2.6m-.8 0q0-1-.5-1.9t-1.4-.8-1.3.7a3 3 0 0 0-.6 1.8q0 1 .6 1.8t1.3.9q.9 0 1.4-.7t.5-1.8"/><path fill="#f7c600" d="m677.4 499 18 1.2c0-.2 0-3-2-5.2 9.4-1.8 7-12.1 14.9-13 1 .8-3.7 4.3-4.1 4.6-.4.4-4.3 4-2.6 6.8 1.8 1.7 2.4-.8 2.7-3.2.7-2.2 7-3.5 6.5-9.9-2.5-4.8-11.5 2.6-12 3l-7.4-.4c-.6-1.4-2.5-5.4-4.6-6-2.5.6-4.1 5.2-4.2 5.5l-10.7-.7-6-.5c0 .4-.5 5.3 7.9 7.6 2 3.5 3.3 4.5 5 5.6q-1.4 1.7-1.4 4.7"/><path d="M677 499.6v-.6q0-3 1.1-4.5-2.6-2-4.5-5.2c-3.7-1-5.8-2.3-7.2-4.7q-1-1.8-.9-3.5v-.5l16.8 1.3c1.4-3.8 2.6-5.3 4.5-5.5 1.7.3 3.1 2 4.8 6l7 .4q2.6-2 5.4-3.5c4.2-2 6.1-1.7 7.2.8v.1c.4 3.2-1 5.6-4.5 8.2q-2 1.4-2 1.8-.3 2.3-1 3.5-.3.8-1 .8-.5.1-1.4-.7a3 3 0 0 1-.6-2.6q.3-1.2 1-2.5 1-1.4 2.2-2.5l4-3.7c-2.3.5-4 2-6 5.7-2.2 4.1-4.5 6.2-7.5 7.2a7 7 0 0 1 1.3 4.9v.5l-18.3-1.2zm.8-1 17.2 1q0-2.5-1.8-4.2l-.8-.8 1-.1q4.7-.7 7.8-7c2.2-4 4.2-5.7 7-6h.1q.6 0 .6.8 0 .4-.4 1t-1.5 1.6l-2.6 2.2q-1.2 1-2 2.4a6 6 0 0 0-1 2q-.1.8.4 1.5.5.5.8.5t.6-.5a9 9 0 0 0 .7-3q0-1 2.4-2.5c3.2-2.4 4.4-4.4 4.2-7-.9-1.9-2.6-2-6.2-.2q-2.8 1.5-5.3 3.5h-.1l-7.7-.4-.1-.3c-1.6-3.8-2.9-5.3-4.3-5.6q-2.3 0-3.9 5.1v.4l-16.6-1.2q0 1 .7 2.2 1.8 3.1 6.8 4.2h.2l.1.3q2 3.5 4.9 5.4l.6.3-.5.6q-1.2 1.2-1.3 3.8"/><path d="m678.7 493.7 15 .8v1l-15-.8z"/><path fill="#f7c600" d="M671.9 481.7c0 .4 1.3 9 6.7 12.2z"/><path d="M672.3 481.6q.3 2.4 1.2 5c1.4 3.6 3 5.6 5.2 6.9l-.2 1c-2.5-1.4-4.2-3.6-5.7-7.5q-1-2.8-1.3-5.3z"/><path fill="url(#c)" d="M671 481.5c.6-3.6 1.4-4.2 2.6-8.7-.1-4.5-2.4-4.2-1.8-7 1.3-3.3.7-5.9-2-8.7.2 4.1-3.3 7.7-3.6 11 .2 3.5 1.9 2.9 1.8 8 .1 3-.5 2.2-.7 5z"/><path d="m671.3 482-4.4-.3v-.6q0-1.4.5-2.5.3-1 .2-2.5 0-2.7-.9-4.6a7 7 0 0 1-1-3.3q.2-1.7 1.8-5 2-4 1.9-6l-.2-1.3.8.7a10 10 0 0 1 2.7 4.5q.6 2.5-.6 4.9-.2 1 .6 2.2 1.4 2 1.3 4.6v.2l-1.5 4.6q-.9 2.2-1.2 4zm-.7-1q.4-2 1.2-4l1.4-4.4q0-2-1.1-3.7t-.7-3.4q1-2.1.6-4.1a8 8 0 0 0-1.8-3.3q-.2 2.3-2 5.7-1.6 3.1-1.6 4.4t.7 2.6q1.2 2.3 1.1 5.3 0 1.8-.3 3l-.4 1.6z"/><path fill="#f7c600" d="M689 460q-.4 2.7-2.2 2.8-1.9-.4-2-3 .1-2.6 2-2.7 1.9.4 2.1 3"/><path d="M689.3 460.1a4 4 0 0 1-.7 2.4q-.7.9-1.8.9-1-.1-1.7-1.1-.7-1.1-.8-2.5 0-1.4.8-2.4.7-.9 1.7-.9 1 .1 1.8 1.1.7 1.1.7 2.5m-.7 0q0-1-.6-1.7t-1.2-.8-1.2.6-.5 1.7.5 1.7q.5.6 1.2.7t1.2-.6.6-1.6"/><path fill="#f7c600" d="m696.5 531.9 12.2-24 12.3 25-1.3 1-11-22.2-11 21.4z"/><path fill="#f7c600" d="M711 524.4q-.2 2.9-2.3 3-2-.2-2.3-3.2.3-2.8 2.3-3 2.1.4 2.3 3.2"/><path d="M711.4 524.4q0 1.4-.8 2.6-.7 1-1.9 1t-1.9-1.2q-.7-1-.7-2.6 0-1.5.7-2.5.9-1 2-1 1 0 1.8 1.1t.8 2.6m-.8 0q0-1-.5-1.9-.6-.7-1.4-.8-.8 0-1.3.7-.6.8-.6 1.9t.6 1.8 1.3.8 1.4-.7.5-1.8"/><path fill="#f7c600" d="m699.3 549.7 18 .8c0-.2.1-3-2-5.2 9.4-2 7.1-12.3 14.9-13.4 1 .8-3.7 4.4-4.1 4.7-.4.4-4.3 4.1-2.6 6.9 1.8 1.6 2.4-.9 2.7-3.3.7-2.2 7-3.6 6.5-10-2.4-4.8-11.5 2.9-12 3.3l-7.4-.3c-.6-1.4-2.4-5.3-4.6-5.8-2.5.6-4.1 5.2-4.2 5.6l-10.7-.5-6-.4c0 .4-.5 5.4 7.9 7.4 2 3.5 3.3 4.5 5 5.5q-1.5 1.8-1.4 4.7"/><path d="M699 550.2v-.5q0-2.9 1-4.6a16 16 0 0 1-4.5-5c-3.7-1-5.8-2.2-7.2-4.6q-1-1.7-.9-3.5v-.4l16.8.8c1.4-3.8 2.6-5.3 4.5-5.5 1.7.3 3.1 1.9 4.8 5.8l7 .3a35 35 0 0 1 5.4-3.6c4.2-2.1 6.1-2 7.2.5v.1c.4 3.3-1 5.7-4.5 8.4q-2 1.4-2 1.9-.3 2.2-.9 3.4-.4.8-1 .9t-1.5-.7q-.9-1-.6-2.6.3-1.2 1-2.5 1-1.4 2.2-2.6l4-3.8c-2.3.6-4 2.2-6 5.8-2.2 4.2-4.5 6.4-7.5 7.4a7 7 0 0 1 1.3 5v.4l-18.3-.8zm.7-1 17.2.7q0-2.5-1.8-4.2l-.8-.8 1-.1c3.2-.7 5.6-2.8 7.9-7.2 2.1-4 4.1-5.8 7-6.2q.7 0 .6.8l-.3 1-1.6 1.6-2.6 2.3q-1.1 1-2 2.4l-1 2q-.1 1 .4 1.6.6.5.8.5t.6-.5q.4-1 .7-3 .2-1 2.4-2.7c3.2-2.4 4.4-4.4 4.2-7-.9-2-2.5-1.9-6.2 0q-2.8 1.5-5.3 3.5l-.1.1-7.7-.2-.1-.3c-1.6-3.8-2.8-5.3-4.3-5.6q-2.1.1-3.9 5.3v.3l-16.6-.8q0 1 .7 2.2 1.8 3 6.8 4l.2.1.1.2q2 3.5 4.9 5.3l.6.4-.5.5q-1.2 1.3-1.3 3.8"/><path d="m700.6 544.3 15 .5v1l-15-.5z"/><path fill="#f7c600" d="M693.8 532.5c0 .3 1.3 9 6.7 12z"/><path d="M694.2 532.4q.3 2.3 1.2 5 2 5 5.2 6.7l-.2 1c-2.5-1.3-4.2-3.4-5.7-7.3q-1-2.8-1.3-5.3z"/><path fill="url(#d)" d="M692.9 532.3c.6-3.6 1.4-4.2 2.6-8.8 0-4.5-2.4-4.1-1.8-7 1.3-3.3.7-5.8-2-8.6.2 4.2-3.3 7.8-3.6 11.2.2 3.4 1.9 2.8 1.8 7.9.1 3-.5 2.2-.7 5z"/><path d="m693.2 532.8-4.4-.2v-.6q0-1.4.5-2.5.3-1 .2-2.5 0-2.8-.9-4.6a7 7 0 0 1-1-3.3q.2-1.7 1.9-5 2-4.1 1.8-6.1l-.2-1.2.8.6a9 9 0 0 1 2.7 4.5q.6 2.4-.6 4.9-.2 1 .6 2.1 1.4 2.1 1.3 4.7v.1l-1.5 4.6q-.9 2.4-1.2 4.1zm-.7-1 1.2-4q.9-2.3 1.4-4.4 0-2-1-3.7-1.2-1.7-.8-3.4 1-2.2.6-4.1a8 8 0 0 0-1.8-3.3q-.2 2.3-2 5.8-1.5 3-1.6 4.4 0 1.3.7 2.6 1.2 2.3 1.1 5.3 0 1.8-.3 3l-.4 1.6z"/><path fill="#f7c600" d="M710.8 510.5q-.1 2.6-2 2.8-2-.4-2.2-3 .2-2.6 2.1-2.8 2 .4 2.1 3"/><path d="M711.2 510.5q0 1.4-.7 2.4t-1.8 1q-1-.2-1.7-1.2a4 4 0 0 1 0-4.8q.7-1 1.7-1 1 .2 1.8 1.2.7 1 .7 2.4m-.8 0a3 3 0 0 0-.4-1.7q-.6-.7-1.3-.8-.7 0-1.2.7t-.5 1.6.5 1.7 1.2.8 1.2-.7.6-1.6"/><path fill="#f7c600" d="m671.7 570.7 12.2-23.6 12.3 25.2-1.3 1.1-11-22.6L673 572z"/><path fill="#f7c600" d="M686.3 563.6q-.2 2.8-2.3 3-2.1-.4-2.3-3.3.2-2.8 2.3-3 2 .5 2.3 3.3"/><path d="M686.7 563.6q0 1.4-.8 2.6-.9 1-2 1-1-.2-1.8-1.3t-.8-2.6.8-2.5q.6-1 1.9-1 1 0 1.9 1.2.7 1.2.8 2.6m-.8 0q0-1-.6-1.9t-1.3-.8q-.9 0-1.4.6-.5.8-.6 1.8 0 1.1.6 2 .5.7 1.4.8.8 0 1.3-.7t.6-1.8"/><path fill="#f7c600" d="m674.6 588.6 17.9 1.2c0-.1.1-2.9-1.9-5.2 9.3-1.8 7-12.1 14.8-13 1 .9-3.7 4.3-4.1 4.7-.4.3-4.2 4-2.6 6.7 1.9 1.7 2.4-.8 2.7-3.2.8-2.2 7-3.4 6.6-9.8-2.5-4.9-11.6 2.6-12.1 3l-7.4-.5c-.6-1.4-2.4-5.4-4.6-6-2.5.5-4 5.1-4.2 5.5l-10.7-.8-6-.5c0 .4-.4 5.4 8 7.6 2 3.6 3.3 4.6 5 5.6q-1.5 1.8-1.5 4.7"/><path d="M674.2 589.1v-.5q0-3 1-4.5a16 16 0 0 1-4.5-5.3c-3.6-.9-5.7-2.3-7.2-4.6q-1-1.9-.8-3.6v-.4l16.8 1.3c1.3-3.8 2.6-5.3 4.4-5.5 1.8.3 3.2 2 4.9 6l7 .4q2.6-2 5.3-3.4c4.2-2 6.1-1.8 7.2.8.4 3.3-.9 5.7-4.5 8.3q-1.9 1.3-2 1.8a10 10 0 0 1-.9 3.4q-.4.8-1 .9t-1.4-.8a3 3 0 0 1-.7-2.6q.3-1.1 1.1-2.4 1-1.4 2.2-2.6l4-3.6c-2.4.4-4.1 2-6 5.6-2.3 4.2-4.5 6.3-7.6 7.2q1.5 2 1.4 5v.4l-18.3-1.2zm.7-1 17.2 1.2q0-2.5-1.7-4.2l-.9-.9 1-.1c3.3-.6 5.6-2.6 7.9-7 2.2-4 4.2-5.7 7-6q.8.2.6.9 0 .4-.3.9-.4.6-1.6 1.6l-2.6 2.2q-1.1 1-2 2.4l-1 2q0 .8.5 1.5t.8.5q.3 0 .5-.5.5-.9.7-2.9.2-1 2.4-2.6c3.3-2.3 4.4-4.3 4.2-7-.9-1.8-2.5-1.9-6.2-.1q-2.7 1.4-5.3 3.4l-7.8-.4-.1-.3c-1.6-3.8-2.8-5.3-4.2-5.6q-2.2 0-4 5.1v.3l-16.6-1.2q0 1 .7 2.3c1.4 2.1 3.3 3.4 6.9 4.2h.1l.1.2q2 3.7 4.9 5.4l.6.4-.5.5q-1.1 1.3-1.3 3.8"/><path d="m675.8 583.2 15 .9v1l-15-.8z"/><path fill="#f7c600" d="M669 571.2c0 .4 1.3 9.1 6.7 12.3z"/><path d="M669.4 571.2q.3 2.3 1.2 5 2 5.2 5.2 6.8l-.2 1q-3.5-1.7-5.7-7.4-.9-2.9-1.3-5.3z"/><path fill="url(#e)" d="M668 571c.7-3.6 1.6-4.1 2.8-8.7-.2-4.5-2.4-4.2-1.9-7 1.4-3.3.8-5.8-2-8.7.2 4.2-3.3 7.7-3.6 11.1.2 3.4 2 2.8 1.8 8 .2 3-.4 2.2-.7 5z"/><path d="m668.4 571.6-4.4-.4v-.6l.5-2.4q.3-1 .3-2.5v-.1a9 9 0 0 0-1-4.6 7 7 0 0 1-.9-3.3q0-1.7 1.8-5 2.1-4 1.8-6l-.1-1.2.7.7a10 10 0 0 1 2.8 4.4q.5 2.5-.6 5-.3 1 .5 2.1 1.5 2.1 1.3 4.7v.1q-.4 2.2-1.5 4.6-.9 2.2-1.1 4zm-.6-1.1q.3-1.8 1.2-4l1.4-4.3q0-2-1.2-3.8t-.6-3.3v-.1q1-2.2.5-4a8 8 0 0 0-1.8-3.3q-.2 2.2-2 5.7-1.5 3-1.6 4.4 0 1.2.7 2.6 1.3 2.2 1.1 5.3 0 1.7-.3 3l-.4 1.5z"/><path fill="#f7c600" d="M686 549.7q-.1 2.6-2 2.7-2-.4-2.1-3 .1-2.6 2-2.7 2 .4 2.2 3"/><path d="M686.5 549.7a4 4 0 0 1-.8 2.4q-.7.9-1.7.9-1.1 0-1.8-1.2-.7-1-.7-2.4t.7-2.4 1.8-.9 1.7 1.1.8 2.5m-.8 0q0-1-.5-1.7-.5-.8-1.2-.8t-1.3.6q-.4.7-.5 1.6t.5 1.7 1.3.8 1.2-.6q.5-.7.5-1.6"/><path fill="#f7c600" d="m672.4 618.5 12.2-23.7 12.2 25.2-1.2 1.2-11-22.6-11 21.2z"/><path fill="#f7c600" d="M687 611.4q-.3 2.8-2.4 3-2-.5-2.3-3.3.3-2.9 2.3-3 2 .4 2.3 3.3"/><path d="M687.3 611.4q0 1.5-.8 2.5t-1.9 1-1.9-1.2-.8-2.6.8-2.6 2-1 1.8 1.3.8 2.6m-.8 0q0-1.1-.5-2-.5-.7-1.4-.8-.8 0-1.3.7t-.6 1.8q0 1 .6 1.9t1.3.8q.9 0 1.4-.6.5-.8.5-1.9"/><path fill="#f7c600" d="m675.2 636.4 18 1.2c0-.2 0-3-2-5.2 9.4-1.8 7-12.2 14.9-13 1 .9-3.7 4.3-4.2 4.6-.3.3-4.2 4-2.5 6.8 1.8 1.7 2.4-.8 2.7-3.2.7-2.2 7-3.4 6.5-9.9-2.5-4.8-11.5 2.6-12 3l-7.4-.4c-.6-1.5-2.5-5.4-4.6-6-2.5.5-4.1 5-4.2 5.5l-10.7-.8-6-.5c0 .4-.5 5.3 7.9 7.6 2 3.5 3.3 4.5 5 5.6q-1.5 1.8-1.4 4.7"/><path d="M674.8 636.9v-.5q0-2.9 1.1-4.6a16 16 0 0 1-4.5-5.2c-3.7-1-5.8-2.3-7.2-4.7q-1-1.7-.9-3.5v-.4l16.8 1.2c1.4-3.8 2.6-5.3 4.5-5.4 1.7.3 3.1 2 4.8 6l7 .4a35 35 0 0 1 5.4-3.5c4.2-2 6.1-1.7 7.2.8v.1c.3 3.2-1 5.6-4.6 8.2q-1.8 1.4-2 1.8-.2 2.4-.8 3.5-.4.7-1 .8-.8 0-1.5-.7a3 3 0 0 1-.6-2.6q.3-1.2 1-2.5 1-1.5 2.2-2.5l4-3.7c-2.3.5-4 2-6 5.6-2.2 4.2-4.5 6.3-7.5 7.2q1.5 2.1 1.3 5v.4l-18.3-1.2zm.8-1 17.2 1.1q0-2.5-1.8-4.2l-.8-.8 1-.1c3.2-.6 5.5-2.7 7.8-7 2.2-4 4.2-5.7 7-6h.1q.6.1.6.8 0 .4-.4 1t-1.5 1.6l-2.6 2.2q-1.2 1-2 2.4-.8 1-1 2-.1.8.4 1.5.5.5.8.5t.6-.5q.4-.9.7-3 0-1 2.4-2.5c3.2-2.4 4.4-4.4 4.2-7-.9-1.9-2.6-2-6.2-.2q-2.8 1.4-5.3 3.5h-.1l-7.7-.4-.2-.3c-1.5-3.8-2.8-5.4-4.2-5.7-1.6.2-2.7 1.6-3.9 5.2v.3l-16.6-1.2q0 1 .7 2.2 1.8 3.1 6.8 4.3h.2v.2q2.1 3.6 5 5.4l.6.4-.5.5q-1.2 1.3-1.3 3.8"/><path d="m676.5 631 15 .9v1l-15-.9z"/><path fill="#f7c600" d="M669.7 619c0 .4 1.3 9 6.7 12.3z"/><path d="M670 619q.4 2.2 1.3 5 2 5.1 5.2 6.8l-.3 1q-3.5-1.9-5.6-7.4-1-3-1.3-5.3z"/><path fill="url(#f)" d="M668.7 618.8c.7-3.6 1.5-4.2 2.7-8.7-.1-4.5-2.4-4.2-1.8-7 1.3-3.3.7-5.9-2-8.7.2 4.2-3.3 7.7-3.6 11.1.2 3.4 1.9 2.8 1.8 8 .1 3-.5 2.1-.7 5z"/><path d="m669 619.4-4.4-.4v-.6q.1-1.3.6-2.5.3-.9.2-2.5a9 9 0 0 0-.9-4.6 7 7 0 0 1-1-3.3q.1-1.7 1.8-5 2-4 1.9-6l-.2-1.3.8.7a10 10 0 0 1 2.7 4.5q.6 2.4-.6 5-.2 1 .5 2 1.4 2.2 1.4 4.7v.1l-1.5 4.7q-.9 2.2-1.2 4zm-.6-1.1q.4-1.8 1.2-4t1.4-4.3q0-2.1-1.1-3.8t-.7-3.4q1-2.1.6-4.1a8 8 0 0 0-1.9-3.3q-.1 2.3-2 5.8-1.5 3-1.6 4.3 0 1.4.8 2.7 1.2 2.2 1 5.3.1 1.7-.2 3l-.4 1.5z"/><path fill="#f7c600" d="M686.7 597.4q-.2 2.6-2 2.8-2-.4-2.2-3 .2-2.6 2.1-2.8 1.9.4 2.1 3"/><path d="M687.1 597.5a4 4 0 0 1-.7 2.3q-.7 1-1.8 1-1-.2-1.8-1.2-.7-1-.7-2.5 0-1.4.7-2.3.8-1 1.8-1 1 .2 1.8 1.2.7 1 .7 2.5m-.8 0a3 3 0 0 0-.5-1.8q-.5-.7-1.2-.8-.7 0-1.2.7t-.5 1.6.5 1.7 1.2.8 1.2-.6q.6-.7.5-1.7"/><path fill="#f7c600" d="m795.4 390.3 12.2-25.6L820 388l-1.3 1.3-11-20.7-10.9 22.9z"/><path fill="#f7c600" d="M810 380.9q-.2 2.8-2.3 3.3-2.1 0-2.3-2.9.2-2.8 2.3-3.3 2 0 2.3 2.9"/><path d="M810.4 380.8a5 5 0 0 1-.8 2.7q-.9 1.2-2 1.3-1 0-1.8-1t-.8-2.4q0-1.5.8-2.7.7-1.1 1.9-1.3 1-.1 1.9 1 .7.9.8 2.4m-.8.1a3 3 0 0 0-.6-1.8q-.6-.7-1.3-.6t-1.4.9q-.5.9-.5 1.9t.5 1.8 1.4.6q.8 0 1.3-.9t.6-1.9"/><path fill="#f7c600" d="m798.3 407.8 17.9-1.8c0-.2.1-3-1.9-4.9 9.2-3.3 7.1-13.3 14.8-15.5 1 .7-3.7 5-4.1 5.3-.4.4-4.2 4.7-2.6 7.3 1.9 1.3 2.4-1.3 2.7-3.7.8-2.3 7-4.8 6.6-11-2.5-4.5-11.6 4.6-12.1 5l-7.4.9c-.6-1.4-2.4-5-4.6-5.2-2.4.9-4 5.8-4.2 6.1l-10.7 1-6 .4c0 .3-.5 5.4 8 6.4 2 3.2 3.2 4 5 4.7a8 8 0 0 0-1.5 5"/><path d="M797.9 408.3v-.5q0-3 1-4.7-2.5-1.4-4.5-4.5c-3.6-.4-5.7-1.4-7.2-3.6a6 6 0 0 1-.8-3.4v-.4l16.8-1.4c1.3-4 2.6-5.7 4.4-6.1 1.8 0 3.1 1.4 4.9 5.1l7-.7q2.6-2.5 5.3-4.4c4.2-2.7 6.1-2.9 7.2-.5.4 3.2-.9 5.9-4.5 9q-1.9 1.8-2 2.3-.3 2.4-.9 3.5-.4 1-1 1.1t-1.4-.5q-.9-.9-.7-2.5a9 9 0 0 1 1.1-2.6l2.2-3 4-4.3q-3.3 1-6 6.7c-2.3 4.5-4.6 7-7.6 8.5q1.5 1.7 1.4 4.7v.4l-18.3 1.8zm.8-1 17.1-1.8q0-2.5-1.7-3.9l-.9-.7 1-.3q4.6-1.5 7.9-8.2c2.2-4.4 4.2-6.5 7-7.4q.8.1.6.8 0 .4-.3 1l-1.5 2-2.7 2.6-2 2.7q-.7 1.2-1 2.1 0 1 .5 1.5t.8.4l.5-.6q.5-1 .7-3 .2-1.1 2.4-3.1c3.3-2.9 4.4-5.1 4.2-7.7-.8-1.7-2.5-1.5-6.2 1a44 44 0 0 0-5.3 4.3l-7.8 1-.1-.3q-2.2-5.2-4.2-5c-1.6.4-2.7 2-4 5.8v.3l-16.6 1.4q0 1 .7 2.1c1.4 2 3.3 3 6.9 3.2h.1l.1.2q2 3.3 4.9 4.6l.6.3-.5.6a7 7 0 0 0-1.3 4"/><path d="m799.5 402.2 15-1.6v1l-15 1.6z"/><path fill="#f7c600" d="M792.7 391.2c0 .5 1.3 9 6.7 11.3z"/><path d="M793 391.1q.4 2.3 1.3 4.8 2 5 5.2 6l-.2 1c-2.5-.9-4.1-2.8-5.6-6.4q-1-2.7-1.4-5.1z"/><path fill="url(#g)" d="M791.8 391.2c.6-3.7 1.5-4.4 2.7-9.1-.2-4.6-2.4-3.8-1.9-6.8 1.4-3.5.8-6-2-8.4.2 4.1-3.3 8.3-3.6 11.7.2 3.4 2 2.5 1.8 7.7.2 3-.4 2.2-.7 5.1z"/><path d="m792.1 391.7-4.4.3v-.6l.5-2.5q.3-1 .3-2.6 0-2.9-1-4.5-.8-1.4-.9-3.2 0-1.6 1.8-5.2 2.1-4.4 1.8-6.3l-.1-1.2.7.6a8 8 0 0 1 2.8 4 8 8 0 0 1-.6 5q-.3 1.1.5 2.1a7 7 0 0 1 1.3 4.5v.1q-.5 2.3-1.5 4.8-.8 2.4-1.1 4.3zm-.6-1q.3-1.9 1.2-4.1l1.4-4.6q0-2-1.2-3.6c-1.2-1.6-1-2-.6-3.2v-.1q1-2.2.5-4.2-.5-1.6-1.8-3a19 19 0 0 1-2 6 14 14 0 0 0-1.6 4.7q0 1.3.7 2.5 1.3 2 1.1 5.1 0 1.8-.3 3l-.4 1.7z"/><path fill="#f7c600" d="M809.8 367q-.3 2.6-2.1 3-2-.1-2.2-2.6.3-2.6 2.2-3.1 1.9 0 2 2.7"/><path d="M810.2 367q0 1.3-.8 2.4-.7 1-1.7 1.2-1.1 0-1.8-.8-.7-1-.7-2.4t.7-2.5q.7-1 1.8-1.1 1 0 1.7.8t.8 2.3m-.8.1q0-1-.5-1.6t-1.2-.6-1.3.8q-.4.7-.5 1.7t.5 1.7 1.3.5 1.2-.8.5-1.7"/><path fill="#f7c600" d="m794.3 435.8 12.2-25.6 12.3 23.2-1.3 1.3-11-20.7-10.9 22.9z"/><path fill="#f7c600" d="M808.9 426.4q-.3 2.8-2.3 3.4-2.1 0-2.3-3 .2-2.8 2.3-3.3 2 0 2.3 2.9"/><path d="M809.2 426.4a5 5 0 0 1-.7 2.6q-.9 1.2-2 1.3-1 0-1.8-.9t-.8-2.5q0-1.5.8-2.7.7-1.1 1.9-1.2 1 0 1.9.8.7 1 .7 2.6m-.7 0a3 3 0 0 0-.6-1.8q-.6-.6-1.3-.6-.9 0-1.4 1-.5.7-.6 1.8 0 1 .6 1.8t1.4.6q.8 0 1.3-.9t.6-1.9"/><path fill="#f7c600" d="m797.2 453.3 17.9-1.7c0-.2.1-3-1.9-5 9.2-3.2 7.1-13.3 14.8-15.5 1 .7-3.7 5-4.1 5.4s-4.2 4.7-2.6 7.2c1.9 1.4 2.4-1.2 2.7-3.7.8-2.2 7-4.7 6.6-11-2.5-4.4-11.6 4.6-12.1 5.1l-7.4.8c-.6-1.4-2.4-5-4.6-5.2-2.4.9-4 5.8-4.2 6.1l-10.7 1-6 .4c0 .3-.5 5.4 8 6.4 2 3.2 3.2 4 5 4.7a8 8 0 0 0-1.5 5"/><path d="M796.8 453.8v-.5q0-2.9 1-4.7-2.5-1.4-4.5-4.5c-3.6-.4-5.7-1.4-7.2-3.6q-1-1.7-.8-3.4v-.5l16.8-1.3c1.3-4 2.6-5.7 4.4-6.1 1.8 0 3.1 1.4 4.9 5.2l7-.8q2.6-2.4 5.3-4.4c4.2-2.6 6.1-2.8 7.2-.4.4 3.2-.9 5.8-4.5 9q-2 1.8-2 2.2-.3 2.4-.9 3.6-.4 1-1 1-.7.2-1.4-.4-.9-1-.7-2.6.3-1 1.1-2.6l2.2-3 4-4.2c-2.3.8-4.1 2.7-6 6.6-2.3 4.5-4.6 7-7.6 8.5q1.5 1.8 1.3 4.7v.5l-18.2 1.7zm.8-1 17.1-1.7q0-2.6-1.7-4l-.9-.6 1-.3c3.2-1.2 5.6-3.6 7.9-8.3 2.2-4.4 4.2-6.5 7-7.3q.8 0 .6.8 0 .4-.3 1l-1.6 1.9-2.6 2.6q-1.1 1.3-2 2.7l-1 2.2q0 .9.5 1.5.4.4.8.3.3 0 .5-.6.5-.9.7-3 .2-1.1 2.4-3c3.3-3 4.4-5.2 4.2-7.8-.9-1.7-2.5-1.4-6.2 1a44 44 0 0 0-5.3 4.3v.1l-7.8.8-.1-.2q-2.2-5.1-4.2-5c-1.6.4-2.7 2-4 5.8v.3l-16.6 1.4q0 1 .7 2.1c1.4 2 3.3 3 6.9 3.2h.1l.1.2q2 3.3 4.9 4.6l.6.3-.5.6a7 7 0 0 0-1.3 4"/><path d="m798.4 447.7 15-1.6v1l-15 1.6z"/><path fill="#f7c600" d="M791.6 436.7c0 .4 1.3 9 6.7 11.3z"/><path d="M792 436.6q.3 2.3 1.2 4.8 2 5 5.2 6l-.2 1.1c-2.5-1-4.1-2.9-5.7-6.5a24 24 0 0 1-1.3-5.2z"/><path fill="url(#h)" d="M790.7 436.7c.6-3.7 1.5-4.4 2.7-9.1-.2-4.6-2.4-3.8-1.9-6.8 1.4-3.5.8-6-2-8.4.2 4.1-3.3 8.3-3.6 11.7.2 3.4 2 2.5 1.8 7.6.2 3-.4 2.3-.7 5.2z"/><path d="m791 437.2-4.4.3v-.6l.5-2.5q.3-1 .3-2.6a8 8 0 0 0-1-4.5q-.8-1.4-.9-3.2 0-1.6 1.8-5.2 2.1-4.4 1.8-6.3l-.1-1.2.7.6a8 8 0 0 1 2.8 4q.4 2.4-.6 5-.3 1.1.5 2.1a7 7 0 0 1 1.3 4.5v.1q-.4 2.3-1.5 4.8-.8 2.4-1.1 4.2zm-.6-1q.3-1.9 1.1-4.1l1.5-4.6q0-2-1.2-3.6-1.1-1.4-.7-3.3 1-2.3.6-4.2-.5-1.6-1.8-3-.2 2.3-2 6-1.6 3.3-1.6 4.7 0 1.2.7 2.5 1.2 2 1.1 5.1 0 1.8-.3 3l-.4 1.7z"/><path fill="#f7c600" d="M808.7 412.5q-.3 2.6-2.1 3-2-.1-2.2-2.6.3-2.6 2.2-3 1.9 0 2 2.6"/><path d="M809 412.4q0 1.5-.7 2.5-.7 1.1-1.7 1.2-1.1 0-1.8-.8a4 4 0 0 1-.7-2.4q0-1.4.7-2.4.7-1.1 1.8-1.2 1 0 1.7.8.7 1 .8 2.3m-.8.1q0-1-.5-1.6t-1.2-.6-1.3.8a3 3 0 0 0-.5 1.8q0 .9.5 1.6.6.6 1.3.5t1.2-.8.5-1.7"/><path fill="#f7c600" d="m792.9 482.3 12.2-25.5 12.2 23.2-1.3 1.3-11-20.8-10.8 23z"/><path fill="#f7c600" d="M807.4 473q-.2 2.8-2.3 3.3-2.1 0-2.3-2.9.3-2.7 2.3-3.4 2 0 2.3 3"/><path d="M807.8 473a5 5 0 0 1-.8 2.6q-.8 1.1-2 1.3-1 0-1.8-1t-.8-2.5.8-2.6 1.9-1.3 1.9.9.8 2.5m-.8 0a3 3 0 0 0-.6-1.7q-.5-.7-1.3-.6t-1.4.9q-.5.7-.5 1.9 0 1 .5 1.7t1.4.7q.8 0 1.3-1 .6-.7.6-1.8"/><path fill="#f7c600" d="m795.7 499.8 17.9-1.6c0-.2.2-3-1.9-5 9.3-3.2 7.1-13.3 14.8-15.4 1 .7-3.7 4.9-4 5.3-.4.4-4.3 4.7-2.7 7.2 1.9 1.4 2.4-1.2 2.7-3.7.8-2.2 7-4.7 6.6-11-2.5-4.4-11.6 4.6-12 5.1l-7.4.8c-.6-1.4-2.4-5-4.6-5.2-2.5.8-4.1 5.7-4.3 6l-10.6 1-6 .4c0 .3-.6 5.4 7.9 6.4 2 3.2 3.3 4 5 4.8q-1.4 1.9-1.4 5"/><path d="M795.3 500.4v-.5q0-3 1.1-4.8-2.6-1.4-4.5-4.5c-3.7-.4-5.8-1.4-7.2-3.6q-1-1.7-.9-3.4v-.4l16.8-1.3c1.3-4 2.6-5.7 4.5-6.2 1.7 0 3 1.5 4.8 5.2l7-.7q2.5-2.4 5.4-4.4c4.1-2.6 6-2.8 7.2-.4.3 3.2-1 5.9-4.6 9q-1.9 1.8-2 2.2-.2 2.4-.8 3.6-.6 1-1 1-.8.3-1.5-.4-.9-1-.6-2.6.2-1 1-2.6l2.2-3 4-4.2c-2.3.8-4.1 2.7-6 6.6-2.2 4.5-4.5 7-7.5 8.5q1.5 1.8 1.3 4.7v.5l-18.3 1.6zm.8-1.1 17.1-1.6q0-2.6-1.7-4l-.9-.7 1-.3c3.3-1 5.6-3.5 8-8.2 2.1-4.4 4.1-6.5 7-7.3q.6 0 .6.8 0 .4-.4 1l-1.5 1.9-2.7 2.6-2 2.7q-.7 1.3-.9 2.2-.1.9.4 1.5.5.4.8.3.3 0 .5-.6.5-.9.8-3 0-1.1 2.4-3c3.2-3 4.4-5.1 4.1-7.7-.8-1.7-2.5-1.5-6.1.9a44 44 0 0 0-5.4 4.3v.1l-7.8.8v-.2q-2.4-5.2-4.3-5c-1.6.4-2.7 2-3.9 5.8l-.1.3-16.5 1.3q0 1 .7 2.1 1.8 3 6.8 3.3h.2v.1q2.1 3.3 5 4.7l.5.3-.5.6a7 7 0 0 0-1.2 4"/><path d="m797 494.2 14.9-1.5v1l-15 1.6z"/><path fill="#f7c600" d="M790.1 483.3c0 .4 1.3 8.8 6.7 11.2z"/><path d="M790.5 483.1q.3 2.3 1.3 4.8c1.4 3.5 2.9 5.2 5.2 6.1l-.3 1c-2.4-1-4.1-2.8-5.6-6.5a24 24 0 0 1-1.3-5.1z"/><path fill="url(#i)" d="M789.2 483.2c.7-3.7 1.5-4.4 2.7-9.1-.1-4.6-2.4-3.8-1.9-6.8 1.4-3.5.8-5.9-2-8.4.2 4.2-3.3 8.3-3.6 11.7.3 3.4 2 2.5 1.9 7.7 0 3-.5 2.3-.8 5.1z"/><path d="m789.5 483.7-4.4.3v-.6l.5-2.5q.4-1 .3-2.6.1-2.8-1-4.5-.8-1.5-.8-3.2 0-1.6 1.7-5.2 2.1-4.3 1.8-6.3l-.1-1.2.7.6a8 8 0 0 1 2.8 4 8 8 0 0 1-.6 5q-.3 1.1.5 2.1a7 7 0 0 1 1.4 4.5v.1l-1.5 4.9q-.9 2.3-1.2 4.2zm-.6-1q.3-1.9 1.2-4l1.4-4.7q0-2-1.1-3.6-1.2-1.5-.7-3.2v-.1q1-2.3.5-4.2-.4-1.5-1.8-3-.2 2.4-2 6a14 14 0 0 0-1.6 4.7q0 1.3.8 2.5 1.2 2 1 5.1.2 1.8-.3 3l-.3 1.7z"/><path fill="#f7c600" d="M807.2 459q-.2 2.7-2.1 3.1-1.9-.1-2.1-2.6.2-2.7 2-3.1 2 0 2.2 2.7"/><path d="M807.6 459q0 1.4-.7 2.5-.8 1-1.8 1.2-1 0-1.8-.9-.7-.9-.7-2.3t.7-2.5 1.8-1.2q1 0 1.8.9.6.9.7 2.3m-.8 0q0-.8-.5-1.5t-1.2-.6-1.2.8a3 3 0 0 0-.5 1.7q0 1 .5 1.6t1.2.6 1.2-.8.5-1.7"/><path fill="#f7c600" d="m794.5 527.9 12.2-25.6 12.3 23.2-1.3 1.3-11-20.8-10.9 23z"/><path fill="#f7c600" d="M809 518.5q-.2 2.8-2.3 3.3-2 0-2.3-2.9.3-2.7 2.4-3.4 2 0 2.2 3"/><path d="M809.4 518.4a5 5 0 0 1-.8 2.7q-.6 1.1-1.9 1.2-1 0-1.9-.8-.7-1-.7-2.6 0-1.4.8-2.6.7-1.2 1.9-1.3 1 0 1.8.9t.8 2.5m-.8 0a3 3 0 0 0-.5-1.7q-.6-.7-1.3-.6-.9 0-1.4.9-.5.7-.6 1.9 0 1 .6 1.8.5.6 1.4.6.7 0 1.3-1 .5-.7.6-1.8"/><path fill="#f7c600" d="m797.3 545.3 18-1.7c0-.2.1-3-2-4.9 9.3-3.3 7.2-13.3 14.9-15.5 1 .7-3.7 5-4.1 5.4s-4.2 4.7-2.6 7.2c1.9 1.3 2.4-1.2 2.7-3.7.7-2.3 7-4.7 6.6-11-2.5-4.4-11.6 4.6-12.1 5l-7.4.9c-.6-1.4-2.4-5-4.6-5.2-2.4.9-4 5.7-4.2 6.1l-10.7.9-6 .4c0 .4-.5 5.4 8 6.4 2 3.2 3.2 4 5 4.8q-1.5 1.9-1.5 5"/><path d="M797 545.9v-.5q0-3 1-4.7-2.6-1.5-4.5-4.6c-3.7-.3-5.7-1.4-7.2-3.5a6 6 0 0 1-.8-3.4v-.5l16.7-1.3c1.4-4 2.7-5.7 4.5-6.2 1.8 0 3.1 1.5 4.8 5.2l7-.7q2.7-2.5 5.4-4.4c4.2-2.7 6.1-2.8 7.2-.5v.1c.4 3.1-1 5.8-4.5 9q-2 1.6-2 2.2-.3 2.4-.9 3.5-.4 1-1 1.1-.8.2-1.4-.5-1-1-.7-2.5.3-1.1 1-2.6l2.3-3 4-4.3q-3.5 1-6 6.7c-2.3 4.5-4.6 7-7.6 8.4q1.5 1.8 1.3 4.7v.5l-18.3 1.8zm.7-1.1L815 543q0-2.5-1.7-3.9l-.9-.7 1-.3q4.6-1.5 7.9-8.2c2.1-4.4 4.2-6.5 7-7.3q.7 0 .6.7l-.3 1-1.6 2-2.6 2.6q-1.1 1.2-2 2.7l-1 2.2q-.1.9.4 1.4t.9.4l.5-.6q.5-1 .7-3 .2-1.1 2.4-3c3.2-3 4.4-5.2 4.2-7.8-.9-1.7-2.5-1.4-6.2 1a44 44 0 0 0-5.3 4.3h-.1l-7.7 1-.1-.4q-2.2-5-4.3-5c-1.5.5-2.6 2.1-3.9 5.9v.3l-16.6 1.3q0 1 .7 2.2 1.7 2.9 6.8 3.2h.2l.1.2q2 3.3 4.9 4.6l.6.3-.5.6a7 7 0 0 0-1.3 4"/><path d="m798.6 539.7 15-1.5v1l-15 1.6z"/><path fill="#f7c600" d="M791.8 528.8c0 .4 1.3 8.9 6.7 11.3z"/><path d="M792.2 528.7a23 23 0 0 0 1.2 4.8c1.4 3.4 3 5.1 5.2 6l-.2 1c-2.5-.9-4.1-2.8-5.7-6.5q-.9-2.7-1.3-5z"/><path fill="url(#j)" d="M790.9 528.7c.6-3.6 1.5-4.4 2.6-9 0-4.6-2.4-3.9-1.8-6.8 1.3-3.5.7-6-2-8.4.2 4.1-3.3 8.3-3.6 11.7.2 3.3 1.9 2.4 1.8 7.6.1 3-.4 2.3-.7 5.2z"/><path d="m791.2 529.3-4.4.3v-.6q0-1.4.5-2.6.3-1 .3-2.5v-.1q0-2.7-1-4.4-.9-1.5-.9-3.2t1.8-5.3q2-4.3 1.8-6.3l-.2-1.2.8.6a8 8 0 0 1 2.7 4q.6 2.5-.5 5-.3 1.1.5 2.2a7 7 0 0 1 1.3 4.4v.1l-1.5 4.9q-1 2.4-1.1 4.2zm-.6-1q.3-1.9 1.1-4.1 1-2.5 1.4-4.6 0-2.2-1-3.6-1.2-1.5-.8-3.3 1-2.3.6-4.2-.5-1.6-1.8-3a19 19 0 0 1-2 6 14 14 0 0 0-1.6 4.6q0 1.4.7 2.6 1.2 2 1.1 5 0 1.8-.3 3.1l-.4 1.6z"/><path fill="#f7c600" d="M808.9 504.5q-.3 2.7-2.1 3.1-2-.1-2.2-2.6.3-2.7 2.1-3.1 2 .1 2.2 2.6"/><path d="M809.2 504.5q0 1.4-.7 2.5-.7 1-1.8 1.2-1 0-1.7-.9t-.7-2.3.7-2.5 1.8-1.2q1 0 1.7.9t.7 2.3m-.7 0q0-.8-.5-1.5t-1.2-.6-1.3.8-.5 1.7.5 1.6 1.2.6 1.3-.8.5-1.7"/><path fill="#f7c600" d="m794.2 573.5 12.1-25.5 12.3 23.2-1.3 1.3-11-20.8-10.9 23z"/><path fill="#f7c600" d="M808.7 564.2q-.2 2.8-2.3 3.3-2.1 0-2.3-2.9.2-2.7 2.3-3.4 2 0 2.3 3"/><path d="M809 564.1a5 5 0 0 1-.7 2.7q-.8 1.1-2 1.2-1 0-1.8-.8-.8-1-.8-2.6 0-1.4.8-2.6t1.9-1.3 1.9.9.8 2.5m-.8 0a3 3 0 0 0-.6-1.7q-.6-.7-1.3-.6-.9 0-1.4.9-.5.7-.5 1.9 0 1 .5 1.8.5.6 1.4.6t1.3-1q.6-.7.6-1.8"/><path fill="#f7c600" d="m797 591 17.9-1.7c0-.2.2-3-1.9-4.9 9.3-3.3 7.1-13.3 14.8-15.5 1 .7-3.7 5-4 5.4-.4.4-4.3 4.7-2.7 7.2 1.9 1.3 2.4-1.2 2.7-3.7.8-2.3 7-4.7 6.6-11-2.5-4.4-11.6 4.6-12 5l-7.5.9c-.6-1.4-2.4-5-4.5-5.3-2.5 1-4.2 5.8-4.3 6.2l-10.7.9-6 .4c0 .4-.5 5.4 8 6.4 2 3.2 3.3 4 5 4.8q-1.5 1.9-1.4 5"/><path d="M796.6 591.6v-.5q0-3 1-4.8-2.5-1.4-4.5-4.5c-3.6-.3-5.7-1.4-7.2-3.5q-1-1.8-.8-3.4v-.5l16.8-1.3c1.3-4 2.6-5.7 4.5-6.2 1.7 0 3 1.5 4.8 5.2l7-.7a44 44 0 0 1 5.4-4.4c4.1-2.7 6-2.8 7.1-.5v.1c.4 3.2-.9 5.8-4.5 9q-1.9 1.7-2 2.2-.3 2.3-.9 3.6-.4.9-1 1-.7.2-1.4-.5-.9-.9-.6-2.5.2-1.1 1-2.6l2.2-3 4-4.3c-2.3.9-4.1 2.8-6 6.7-2.3 4.5-4.5 7-7.5 8.4q1.5 1.8 1.3 4.8v.4l-18.3 1.8zm.8-1.1 17.1-1.6q0-2.6-1.7-4l-.9-.7 1-.3c3.2-1.1 5.6-3.6 8-8.2 2-4.4 4.1-6.5 6.9-7.3q.7 0 .7.8l-.4 1-1.5 1.8-2.7 2.7-2 2.7q-.7 1.3-.9 2.2t.4 1.4.8.4.5-.6q.5-1 .7-3 .2-1.1 2.5-3c3.2-3 4.4-5.2 4.1-7.8-.8-1.7-2.5-1.4-6.2 1a44 44 0 0 0-5.3 4.3v.1l-7.8.8v-.3q-2.4-5-4.3-5c-1.6.5-2.7 2.1-4 5.9v.3l-16.6 1.3q0 1 .7 2.2c1.4 2 3.3 2.9 6.9 3.2h.2v.2q2.1 3.2 5 4.6l.5.3-.5.6a7 7 0 0 0-1.2 4"/><path d="m798.3 585.4 14.9-1.5v1l-15 1.6z"/><path fill="#f7c600" d="M791.4 574.5c0 .4 1.3 8.9 6.7 11.2z"/><path d="M791.8 574.4q.3 2.2 1.3 4.8c1.4 3.4 2.9 5.1 5.1 6l-.2 1c-2.5-1-4.1-2.8-5.6-6.5q-1-2.7-1.4-5z"/><path fill="url(#k)" d="M790.5 574.4c.6-3.6 1.5-4.4 2.7-9-.1-4.6-2.4-3.9-1.9-6.8 1.4-3.5.8-6-2-8.4.2 4-3.3 8.3-3.6 11.6.2 3.4 2 2.5 1.9 7.7 0 3-.5 2.3-.8 5.2z"/><path d="m790.8 575-4.4.3v-.6l.5-2.6q.3-1 .3-2.5v-.1a8 8 0 0 0-1-4.5q-.7-1.5-.9-3.1 0-1.7 1.8-5.3 2.1-4.3 1.8-6.3l-.1-1.2.7.6a8 8 0 0 1 2.8 4 8 8 0 0 1-.6 5q-.3 1.1.5 2.2a7 7 0 0 1 1.4 4.4v.2l-1.6 4.8q-.8 2.4-1.1 4.2zm-.6-1q.3-1.9 1.2-4.1l1.4-4.6q0-2.2-1.1-3.6-1.2-1.5-.7-3.3v-.1q1-2.2.5-4.1-.4-1.7-1.8-3-.2 2.3-2 6-1.5 3.3-1.6 4.6 0 1.3.8 2.5 1.2 2 1 5.2.2 1.7-.3 3l-.3 1.6z"/><path fill="#f7c600" d="M808.5 550.2q-.2 2.7-2.1 3.1-2-.1-2.1-2.6.2-2.7 2-3.1 2 .1 2.2 2.6"/><path d="M808.9 550.2q0 1.4-.7 2.5-.8 1-1.8 1.2-1 0-1.8-.9-.7-.9-.7-2.3t.7-2.5 1.8-1.2q1 0 1.8.9.6.9.7 2.3m-.8 0q0-.8-.5-1.5t-1.2-.6q-.7 0-1.2.8-.5.7-.6 1.7t.6 1.6q.4.7 1.2.6t1.2-.8q.5-.7.5-1.7"/><path fill="#f7c600" d="m794.3 619.4 12.2-25.5 12.3 23.2-1.3 1.3-11-20.8-10.9 23z"/><path fill="#f7c600" d="M808.9 610q-.3 2.9-2.3 3.4-2.1 0-2.3-2.9.2-2.7 2.3-3.4 2 0 2.3 3"/><path d="M809.2 610a5 5 0 0 1-.7 2.7q-.9 1.1-2 1.2-1 0-1.8-.9t-.8-2.5q0-1.4.8-2.6.7-1.2 1.9-1.3 1 0 1.9.9.7 1 .7 2.5m-.7 0a3 3 0 0 0-.6-1.7q-.6-.8-1.3-.6-.9 0-1.4.9-.5.7-.6 1.9 0 1 .6 1.8.5.6 1.4.6.8-.1 1.3-1 .6-.7.6-1.8"/><path fill="#f7c600" d="m797.2 637 17.9-1.8c0-.2.1-3-1.9-4.9 9.2-3.3 7.1-13.3 14.8-15.5 1 .7-3.7 5-4.1 5.4-.4.3-4.2 4.6-2.6 7.2 1.9 1.3 2.4-1.2 2.7-3.7.8-2.3 7-4.8 6.6-11-2.5-4.4-11.6 4.6-12.1 5l-7.4.8c-.6-1.3-2.4-4.9-4.6-5.2-2.4 1-4 5.8-4.2 6.2l-10.7.9-6 .4c0 .4-.5 5.4 8 6.4 2 3.2 3.2 4 5 4.8-1.1 1.4-1.4 2.8-1.5 5"/><path d="M796.8 637.5v-.5q0-3 1-4.8-2.5-1.4-4.5-4.5c-3.6-.3-5.7-1.4-7.2-3.5q-1-1.8-.8-3.4v-.5l16.8-1.3c1.3-4 2.6-5.7 4.4-6.2 1.8 0 3.1 1.5 4.9 5.2l7-.7a44 44 0 0 1 5.3-4.4c4.2-2.7 6.1-2.8 7.2-.5v.1c.4 3.1-.9 5.8-4.5 9q-2 1.6-2 2.2-.3 2.4-.9 3.5-.4 1-1 1.1t-1.4-.5q-.9-1-.7-2.5.3-1.1 1.1-2.6l2.2-3 4-4.3q-3.3 1-6 6.7c-2.3 4.5-4.6 7-7.6 8.4q1.5 1.8 1.3 4.7v.5l-18.2 1.8zm.8-1.1 17.1-1.7q0-2.5-1.7-3.9l-.9-.7 1-.3q4.6-1.5 7.9-8.2c2.2-4.4 4.2-6.5 7-7.3q.8 0 .6.7 0 .4-.3 1l-1.6 2-2.6 2.6q-1.1 1.2-2 2.7l-1 2.2q0 .9.5 1.4t.8.4l.5-.6q.5-1 .7-3 .2-1.1 2.4-3c3.3-3 4.4-5.2 4.2-7.8-.9-1.7-2.5-1.4-6.2 1a44 44 0 0 0-5.3 4.3l-7.8.9-.1-.3c-1.6-3.5-2.8-4.9-4.2-5-1.6.5-2.7 2.1-4 5.9v.3l-16.6 1.3q0 1 .7 2.2c1.4 2 3.3 2.9 6.9 3.2h.1l.1.1q2 3.3 4.9 4.7l.6.3-.5.6q-1.2 1.4-1.3 4"/><path d="m798.4 631.3 15-1.5v1l-15 1.6z"/><path fill="#f7c600" d="M791.6 620.4c0 .4 1.3 8.9 6.7 11.2z"/><path d="M792 620.3q.3 2.2 1.2 4.8c1.4 3.4 3 5.1 5.2 6l-.2 1c-2.5-1-4.1-2.8-5.7-6.5a24 24 0 0 1-1.3-5.1z"/><path fill="url(#l)" d="M790.7 620.3c.6-3.6 1.5-4.4 2.7-9-.2-4.6-2.4-3.9-1.9-6.8 1.4-3.5.8-6-2-8.4.2 4-3.3 8.3-3.6 11.6.2 3.4 2 2.5 1.8 7.7.2 3-.4 2.3-.7 5.2z"/><path d="m791 620.8-4.4.4v-.6l.5-2.6q.3-1 .3-2.5v-.1a8 8 0 0 0-1-4.4q-.8-1.5-.9-3.2t1.8-5.3q2.1-4.3 1.8-6.3l-.1-1.2.7.6a8 8 0 0 1 2.8 4q.4 2.5-.6 5-.3 1.1.5 2.2a7 7 0 0 1 1.3 4.4v.2q-.4 2.2-1.5 4.8-.8 2.4-1.1 4.2zm-.6-1q.3-1.8 1.1-4l1.5-4.6q0-2.2-1.2-3.7t-.7-3.2v-.1q1-2.2.6-4.1-.5-1.6-1.8-3-.2 2.3-2 6a14 14 0 0 0-1.6 4.6q0 1.4.7 2.5 1.2 2 1.1 5.2 0 1.7-.3 3l-.4 1.6z"/><path fill="#f7c600" d="M808.7 596.1q-.3 2.7-2.1 3.1-2-.1-2.2-2.6.3-2.7 2.2-3.1 1.9.1 2 2.6"/><path d="M809 596.1q0 1.4-.7 2.5-.7 1-1.7 1.2-1.1 0-1.8-.9a4 4 0 0 1-.7-2.3q0-1.4.7-2.5.7-1 1.8-1.2 1 0 1.7.9t.8 2.3m-.8 0q0-.8-.5-1.5t-1.2-.6q-.7 0-1.3.8-.5.7-.5 1.7t.5 1.6q.6.7 1.3.6t1.2-.8.5-1.7"/><path fill="#f7c600" d="M759 643.5c.2.5 4.2 14 10 5.3 5.1-9.4 3.5-12.9 3.4-13l-12-8.5-3.5 10.2z"/><path d="m758.6 643.7-2.1-6.2 3.8-11 12.3 8.8v.1q.6 1.1.5 3.5a28 28 0 0 1-3.8 10.3q-2 3.3-4.1 3.2-1.8 0-3.5-2.4a24 24 0 0 1-3-6.3zm.7-.4q1.3 3.5 3 6 1.5 2 3 2 1.7.2 3.4-2.8 3.2-5.7 3.6-9.7 0-1.8-.2-2.6l-11.5-8.2-3.3 9.5z"/><path fill="#ffc6b5" d="M769.3 641.2s.7.1 1.4-1.5c.4-1.6-1.3-2.2-2.4-4l-1 3z"/><path d="m769 641.7-2.2-3 1.5-4 .4.7q.3.7 1.2 1.5 1.6 1.7 1.1 3-.7 2-1.8 1.8zm.4-1q.4 0 1-1.2.1-.7-1-1.7l-1-1.1-.6 1.8z"/><path fill="#ffc6b5" d="m742.2 637.9-10.5 7.8c-.4 0-4.7 1.1-5.6-.1-.3-1.5.1-2.5 2.9-2.8 2.8-.7 9.9-9 10.1-9.3z"/><path d="m742.4 638.4-10.6 7.8c-3.9 1-5.5.8-6-.4q-.5-1.5.3-2.5t2.9-1c1.8-.3 4.9-3 9.9-9.2l.2-.4 3.8 5.3zm-.8-.6-2.5-3.6c-5 6.1-8.1 8.8-10.1 9.1q-1.8.2-2.4.8-.3.5-.1 1.3.3 1 5-.2z"/><path fill="#ffc6b5" d="m742.4 382.6.4 5.1c-.1 2-2 5.3-2.2 5.4-.3-.2-1.1.1-1 1.2s1.5 1.4 1.6 1.4c0 .3-.5 3.5 0 4 .3.4-1.3 4.4 0 6 1.9 1.3 4.4 2.6 5.8 2.4 1.2.4.1 6.4 0 7l-3.6 10.6 20-3.2-4.1-9c-.2 0-1.8-1.6-1.5-6.8.5-5.2-.2-28.4-.2-28.4l-14.3-2.4z"/><path d="m742 382.6 1-7.3 15 2.5v.5q.7 23.3.2 28.4c-.3 3.4.1 5.2 1.3 6.4l4.6 9.8-21.3 3.4 3.9-11.5a28 28 0 0 0 .4-6.2q-2 .6-6-2.5-1.4-1-.4-5l.2-1h.2q-.7-.2-.5-2.5l.1-1.4q-1.4-.6-1.6-1.8 0-1 .6-1.6.5-.4.8-.3l.2-.3.7-1.3q1-2.2 1-3l-.2-2.1zm.8 0 .2 3 .1 2.1q0 1.4-1 3.7l-.8 1.5-.4.5q-.3.4-.6 0v.2l-.2.1q-.3.2-.2.5 0 .7 1.4 1l.4.1-.1.6-.3 3.2q.4.3.4 1.1l-.3 1.2q-.7 3.3 0 3.8c2.7 2 4.3 2.6 5.6 2.4q.4-.1.7.4l.3 1v2.5l-.6 3.7-3.4 9.9 18.7-3-3.7-8.2c-1.4-1.4-1.9-3.5-1.6-7.3q.6-5-.2-27.8l-13.6-2.4z"/><path fill="#ffc6b5" d="M738.7 423c-.2.2-6 4-6.2 15.1a372 372 0 0 0-2.6 21.3s-7.6 11.8-10 16c-2.3 4.2-5.9 12.7-7.1 15-1.5 2.4-6 9.6-6.3 12.6 0 3.2-1 14.7 4 17 1.3-.2 5.2-13.7 5.4-14.4 0-.3 0-6.2-1.2-7.9-1-1.6 2.8-5 3.1-5.4l10.7-10.6c1.9-2.2 7.2-10.2 7.2-10.2z"/><path d="m739.2 422.2-3 49.5-.2.1q-5.4 8.2-7.3 10.3L718 492.7l-2 2.2q-.8 1-1 1.7-.3.6 0 .7c1 1.2 1.4 3.6 1.2 8.3v.2q-1 3.8-2.2 7.5c-1.8 5.3-2.8 7.2-3.7 7.2-3-1.3-4.3-6-4.2-15.5v-2q0-2.5 5.3-11.2l1-1.7 2.7-5.7 4.5-9.4q2.4-4.1 10-15.9.8-10.5 2.5-21 0-7 3.1-12 1.7-2.4 3.4-3.5zm-1 1.8q-1.1 1-2.4 2.8a20 20 0 0 0-3 11.3v.1a313 313 0 0 0-2.5 21.2v.2l-.1.1a371 371 0 0 0-10 16q-1.3 2.3-4.4 9.2l-2.7 5.8-1.1 1.8q-5.1 8.4-5.1 10.4v2.2c-.1 9 1 13.2 3.6 14.3.4 0 1.2-1.8 2.8-6.6l2.2-7.4c.1-4.2-.2-6.3-1-7.2q-.7-.8-.3-2.1l1.3-2 2-2.2h.1q8.7-8.5 10.6-10.6t7.2-10z"/><path fill="#fff" d="M746.1 414.7c.2.5 1.6 5.6 5.5 5 3.8-1.4 8-5.8 8.2-6 .1 0 3.3-.1 4 .4.7 1 9 12.1 9.2 16-.6 3.6-3.8 3-5.6 5.4a28 28 0 0 0-3 13.4c.6 4.6 2.3 10.5 2.2 12.9-.3 2.3-1.5 3-1.6 4.3 0 1.2 1 3.3 1.1 5.6-.1 2.3-1.4 5.7-1.3 8 .3 2.4.4 9 .4 9l-.4 31.3c.1 0 1.2 1 1.5 2.8l7.7 46.8 1.1 6.2c0 .1-.4 1.5-1.3 1.5-.4.4 3.2 7.4 3.6 10.1.3 2.3 4.4 20.2 4.5 22.6-.2 2.7-1 7.9-1.2 8.3 0 .2 2.5 11.1 2.3 13-1 1.7-5.5 1.9-5.8 1.9l-1.4-.3c0 .2 0 2.1-1 2.5-1 .2-8.6-.1-8.7-.1-.1.3-2.1 4.2-3.5 4.5-1.3-.4-2.8-2.9-3.3-2.7-.2.6 1 3.5.7 4.4-1 1-6.3 2.8-8.3-1.2-1.1-4.3.6-3.2.4-4.1-.6-1-3.1-2.9-4.3-2.4-.6.8 2 1.6 2.2 3.5-.4 2-2.7 4.2-3.9 4.5-1-.5-3.5-5.9-7.1-5.9-3.6.8-6 2-6 2-.2 0-4.1 2.1-6 1.9a4 4 0 0 1-2.7-3.6c.1-1.1 1.2-5.7 1.2-7.1-.2-1.4-1-2.9-1.2-5 .2-2.2 3-9.3 3-9.4l-.1-32.6c-.2 0-2.5 0-2.9-2.4 0-2.3 4.2-51.4 4.8-54.7l2.4-14.5c-.2 0-1.8 1.1-2.1 0 0-1.3 5.8-29.4 5.8-29.4s1-14 1-17.8c0-3.7-.5-8.8-.5-8.8-.3-.2-4.8-3-5.4-7.9-.1-7.5 4.8-11.6 5.7-14.1l2.6-10c.1-.3 2.8-6.2 7.5-7.8"/><path d="M746.5 414.5q.5 1.5 1.2 2.8 1.7 2.6 3.8 2c2.5-1 5-2.7 8-6h.3q3.6-.4 4.3.5v.1c6.5 8.5 9.3 13.6 9.3 16.2q-.2 2.5-3.2 3.9-1.8.9-2.5 1.8-1.2 2.4-2.2 5.8-1.1 4.3-.8 7.2l1.2 6q1.3 5.6 1.1 7a8 8 0 0 1-1.1 3q-.6.9-.5 1.3l.4 1.7q.7 2.5.7 4 0 1.1-.7 3.7-.6 3-.6 4.2.3 2.2.4 9l-.4 31q1.3 1.1 1.4 3l8.9 53v.3q-.4 1.7-1.3 1.8l.1.4 1.2 2.9q2.2 5 2.3 6.3 0 .9 1.8 8.9 2.6 12.2 2.6 13.8c-.3 5.6-.8 8.1-1.4 8.7l.3-.3.1.9.7 3q1.7 7.7 1.5 9-.7 2.2-6.2 2.3l-1-.2q-.1 2.2-1.3 2.5l-8.6-.2c-1.6 3.3-2.6 4.5-3.7 4.6q-.8-.1-2.4-2l-.6-.6.4 1q.6 2.3.4 3c-.6.9-1.7 1.4-4.2 1.6-2.7 0-4-.8-4.8-2.9-.7-2.3-.6-3.4.3-4.2q-.5-.6-1.7-1.4-1.3-.9-1.8-.7l.5.4q1.8 1.5 1.7 2.7-.1 1.4-1.7 3.3-1.6 1.7-2.6 1.7-.4 0-1.8-1.8-3-4.4-5.3-4a24 24 0 0 0-5.8 1.9q-4.4 2.5-6.4 1.9-2.9-1-2.9-4.1l.5-2.9q.7-3.5.7-4.1l-.5-1.7q-.6-2-.7-3.4 0-2.2 3-9.5l-.1-32q-2.7-.2-2.9-2.8l2.1-27.2q2.3-25.3 2.7-27.7.6-3 2.2-13.6l-.3.2h-1q-.4-.1-.6-1 0-1.3 5.8-29.5 1-14 1-17.7t-.4-8.5c-3.6-2.3-5.2-4.7-5.5-8.2q-.2-5.4 4.2-11.7 1.3-2 1.5-2.6l1.2-4.6 1.5-5.4c2.1-4.8 4.4-7.2 7.8-8.1l.3-.1zm-.6.8c-3 1-5 3.2-7 7.5l-1.3 5.3-1.2 4.5q-.3.9-1.8 3-4.1 6-4 11c.3 3 1.8 5.2 5.3 7.4h.2v.4q.5 5.2.5 9t-1 17.7v.1a603 603 0 0 0-5.8 29.3h.6l.9-.5.7-.4-.2 1-2.3 14.6q-.5 2.3-2.7 27.6a728 728 0 0 0-2.1 27q0 1.7 2.5 1.8h.3l.2 33.3v.1q-3 7.2-3 9.1 0 1.1.6 3l.6 2q0 .8-.7 4.5l-.5 2.6q0 2.3 2.3 3 1.7.5 5.9-1.8 2.4-1.2 6-2c2-.1 3.6 1 6 4.3l1.2 1.6q.7 0 2-1.5t1.5-2.5q0-.7-1.3-1.8l-.8-.8q-.2-.3-.2-.7t.3-.7q.8-.6 2.7.6a6 6 0 0 1 2.1 2q.3.5 0 1l-.3.3q-.8.5 0 2.9.7 2.4 4.1 2.2c2.2-.1 3.1-.5 3.5-1q.1-.2-.5-2-.5-2-.2-2.6.4-.5 1.7 1 1.4 1.5 2 1.6 1 .2 3.1-4.3l.1-.2h.3q7.5.3 8.6.1.6-.1.6-2v-.6l1.8.4c3.5-.2 5-.6 5.5-1.6q.1-.9-1.6-8.4c-.7-3.2-.8-4.6-.5-5q.4-.2.9-7.7 0-1.3-2.6-13.4l-1.9-9.1q0-1-2.2-5.8l-1.5-4v-.5q.3-.4.5-.4.6 0 .9-1l-8.8-53q-.1-1.5-1.3-2.3l-.2-.2.4-31.5q0-6.7-.4-9 0-1.3.7-4.6.6-2.5.6-3.5 0-1.2-.6-3.4-.5-1.6-.5-2.2t.7-2q.9-1.2 1-2.4t-1.1-6.5q-1-4.2-1.3-6.2-.4-3.2.8-7.8 1-3.5 2.4-6 .7-1.2 2.9-2.2 2.5-1.1 2.6-3 .2-3.2-9-15.3v-.2q-.5-.5-3.7-.2a21 21 0 0 1-8.2 6c-1.9.4-3.1-.2-4.6-2.3z"/><path fill="#f7c600" d="M744.2 640s-12.7 8.9-14.4 9.7c-2 .3-2.9-2.7-1.2-3.7 1.9-.6 4.7-1 4.7-1l-4.2-4.8 6-3c.2.3 1.8 4.1 3 4.2 1.1-.5 4.5-3.8 4.5-3.9z"/><path d="M744.2 640.6q-12.5 8.9-14.3 9.7-1.7.6-2.4-1.7-.3-1-.1-1.8.3-1 1-1.3 1.7-.6 3.9-1l-1.4-1.5-1.4-1.6-.5-.6-.2-.2q-.2-.5 0-.8l3.2-1.7 3-1.4q.4 0 .7.9 1.7 3.5 2.3 3.3 1-.3 4.4-3.8l.3-.3.2.4.9 1.4.5.8.2.3v.7q-.2.3-.3.2m-.6-.7-.4-.6-.6-1a17 17 0 0 1-4.4 3.7c-.9 0-1.7-1-3.1-3.9l-.2-.3-2.7 1.3-2.4 1.2.2.3 1.4 1.6 2.1 2.4.8.8-1 .1q-2.8.4-4.6 1a1 1 0 0 0-.6.7v1q.5 1.5 1.6 1a147 147 0 0 0 13.9-9.3"/><path fill="#ffc6b5" d="M762 644.7c1.1 2.3 1.5 5.3 4.3 3.4 2.3-2.6-1-5.7-1.4-6z"/><path d="m761.4 644.5 3.5-3 .2.1q1.2 1 1.9 2.3t.6 2.3a3 3 0 0 1-1 2.4c-1.9 1.2-3 .7-4.3-2.1l-.7-1.5zm1 .3.6 1.1q1.3 3.2 3.1 1.8.7-.7.8-1.5 0-.6-.6-1.6l-1.4-1.9z"/><path fill="#ffc6b5" d="M767 644.1c0 .1 1 1.3 2.4-.2.8-2-2.1-4.7-2.4-5l-1.6 2.8z"/><path d="m766.6 644.5-1.8-2.8 2.2-3.4.3.2q.9.9 1.6 2 1.8 2.3.8 3.7-1.4 2-3 .3zm.6-.8q1 1 2-.2.4-.6-.8-2.3l-1.3-1.5-1.2 2z"/><path fill="#ffc6b5" d="M772.5 431s4.2 17.2 4.8 21.7 2 22 1.6 24.6c-.8 2.5-7.2 14.7-8 17.7-1 3.1-5.5 14.8-5.5 14.8 0 .1-1.4 11.2-1.7 12-.3.6 1.1 3.2 1.1 4.2-.5 1.4-3.5 5.6-5.3 5.6a7 7 0 0 1-4.2-5.2c0-2.4.3-9.7 1.3-11.9 1.1-2 7.3-21.8 7.7-23.1s5.4-16.9 5.7-19.5c0-3-1.6-8.5-3.4-11-4-16.5-2.5-26 5.9-30"/><path d="M772.5 430.4a175 175 0 0 1 5.2 22.2q2.3 21.1 1.5 24.8-.3 1.3-3.7 8.3-3.9 8-4.3 9.5-.9 3-5.5 14.8a68 68 0 0 1-1.8 12.2l.1.2.5 1.2a6 6 0 0 1 .7 2.5q-.3 1.3-2.3 3.7-2.3 2.7-3.5 2.4-1.4-.5-2.8-2a7 7 0 0 1-1.6-3.7q-.1-2.4.1-6.2.5-4.7 1.2-6.1a289 289 0 0 0 7.5-22.6l.2-.4.4-1.3q5-15.9 5.2-18 .1-2-1-5.5-1-3.6-2.3-5v-.3q-3.2-12.5-1.8-20a14 14 0 0 1 7.9-10.7zm-.2 1.2q-5.7 2.8-7 9.7-1.4 7.2 1.6 19.3 1.3 1.7 2.5 5.4 1 3.7 1 5.9a159 159 0 0 1-5.3 18.4l-.4 1.3-.2.4q-6.4 21-7.6 22.8-.6 1.2-1 5.6l-.2 6q.2 1.3 1.4 3 1.4 1.3 2.5 1.7.8.2 2.8-2 1.8-2.3 2-3.3l-.5-1.6q-1-2.3-.5-2.9.4-.3 1.6-11.5v-.2q4.6-11.7 5.4-14.7.5-1.7 4.4-9.8 3.4-6.8 3.7-8a125 125 0 0 0-4.1-36.8l-1.5-6.4-.5-2z"/><path fill="#9c5100" d="M742 381.6c.1 0 2.7.3 4.4-.8 1.7-1.3 3.2-1.7 4.7.7 1.4 2.4 2.1 2.2 2.2 2.2-.2.5-1.7 6 0 7.3 2 .7 2.7.7 3 1.5 0 1-1.5 2.8-1.2 3.8.5.9 1.4 2 1.6 2.6 0 .8-1 3.7-.8 4.5.4.8 1.5 3.2 2.3 3.5.7.4.3 4 2.6 3.3 2.3-1.4 2.2-3.8 2.2-4 .2 0 2.3-.6 3.1-3.7.8-3 2.2-3.7 2.2-3.8.3-.2 2.9-2.1-1-5.8-.4-24.7-11.6-21.9-12-21.8 0-.3-1.3-4-3.7-3.8-2.3.9-2.5 3.9-4.2 4-1.6-.6-2-1.9-2.2-1.8-.1.2-1.4 3.7-1.5 4.6-.5.7-4.1-1-4.2 3.4.6 4.6 2.4 4.4 2.5 4"/><path d="m742.1 382.1-.4.1q-.4 0-1-.4-1.3-1-1.6-4.3 0-2.4 1.2-3.3a5 5 0 0 1 2.4-.4h.6q0-.8.8-2.5.6-2 .9-2.2.2-.4.6 0l.1.2q.7 1.1 1.8 1.4.5 0 1.4-1.4 1.4-2.2 2.6-2.6 2.6-.5 4 3.8 3.2-.5 6 1.8c4 3.4 6 9.8 6.2 20.3q2.6 2.3 2 4.6-.3 1.3-1.2 2-1.4.8-2 3.5-.7 3-3 4c-.2 2-1 3-2.6 4q-1.2.5-1.9-.5l-.6-2-.2-.7v-.1q-.9 0-2.3-3.1l-.3-.6q-.3-.6.3-3.1l.4-1.5q0-.4-.9-1.5l-.6-1q-.5-.8.6-2.8l.5-1.1q0-.4-1.4-.8l-1.3-.4c-1-.5-1.4-1.7-1-4.5l.5-2.8q-.9-.4-2-2.4-1.4-2.7-4.1-.5-1.6 1.2-4.5.8m0-1q2.6.3 4.1-.7c2.4-1.8 3.8-1.6 5.2.8q1.1 2.1 1.8 2l.7-.1-.3.8-.7 3.3q-.4 3 .5 3.3l1.2.4q1.9.5 2 1.5 0 .6-.6 2t-.6 1.6l.6.8q1 1.5 1 2 .1.5-.4 2.1l-.4 2.1.3.7q1.4 2.6 1.7 2.6.6 0 1 1.6 0 1.2.4 1.6t1 .2q2.1-1 2-3.5v-.4l.4-.1q2.1-.6 2.8-3.3.7-3.3 2.4-4.2.6-.4.8-1.3.4-1.7-1.9-3.5l-.2-.2v-.3c0-10.3-2-16.5-5.8-19.7q-2.9-2.2-5.7-1.6h-.3l-.1-.3q-1.3-4-3.3-3.5-1.1.2-2.2 2.2-1.1 1.9-2.1 1.7-1.3-.2-2.1-1.4l-.6 1.4-.6 2.4q0 .6-.7.7h-.7q-1.4 0-2 .4-1 .5-.8 2.2.3 2.7 1.2 3.5l.3.2-.1-.2zm1.2-7.2v.2zm20 47.8c-7.7 7-11.1 11.2-11.2 13.4l-.8.2c0-2.7 3.6-7.2 11.5-14.5zm2.6 1.6q-2.7 4-3 4.2v-1l-.1-.1.3-.4 1-1.4 1.2-2zm3.5 4.2c-3.7 4.4-5.1 7.4-4.7 10l-.7.4c-.5-3.1.9-6.5 4.9-11.2zm-27-6.5q-1.5 4.6-1.2 6 0 .4 1 2.6 2.3 6.1 2.6 8.8.4 3.8 0 6.6l-.7-.2q.3-2.7 0-6.2-.4-2.5-2.7-8.5l-1-2.8q-.4-1.8 1.4-6.8z"/><path d="M739.5 429.6q.6 5.4 1.2 6.4t1.8 3.7q1.2 3 1.4 4.4l-.7.2a21 21 0 0 0-1.4-4.1q-1-2.7-1.7-3.5-.8-1.1-1.4-7zm-1.2 23.1q.7.6 1.7 0c1.6-.8 2.9-2.6 4.2-6.3l.7.5c-1.4 4-2.8 6-4.6 6.9q-1.4.5-2.4-.1zm11.3-11.8q.3 0 .3-.2v.2l-.3 1-.3 3.3c0 3.3.6 5.2 2.2 6.6 3.5 2.4 6 3 8.8 1.7q1.8-1 3.7-2.6l.4 1a22 22 0 0 1-3.9 2.6c-3 1.3-5.7.8-9.4-1.8-1.8-1.6-2.6-3.8-2.6-7.6.1-3.6.5-5 1.1-5.2zm-1.4 10.1q.1 2.9 1.7 7a41 41 0 0 0 11 15.6l-.4.9q-8-7.1-11.3-16a26 26 0 0 1-1.8-7.4zm.5 11q0 2.6.6 5.6c.8 4.2 2.1 6.8 4 8.8l-.4 1q-3.1-3.1-4.4-9.5-.5-3.2-.5-5.9zm-2.6-11.8c-2.6 10.5-4.9 15.8-7 17.2l-.3-1c2-1.2 4-6.4 6.6-16.6zm-1.1 11q-.2 11.1-1.2 15l-.8-.3a78 78 0 0 0 1.2-14.7zm-2.3 17.2c1.8 3 3.2 4 5 3.9q1.5-.3 3.2-2.5 1.8-2.1 3-1.9l1.6.8a11 11 0 0 0 6.6 1.3v1q-3.4.6-6.9-1.3-1-.6-1.5-.7-.8-.2-2.3 1.6-2 2.5-3.5 2.7c-2.2.1-3.8-1-5.8-4.2zm13.3 7c0 5.9.4 8.7 1 9.4.8.9 1.1 3.7.8 9.7h-.7c.3-5.6 0-8.1-.5-8.8-.8-.9-1.3-4-1.4-10.4zm-15.8-4.1q-.3 8.6-1 11.7l-.3 1q-1.9 7.6-1.7 11.3l-.8.1q-.2-4 1.8-11.7l.3-1q.7-3 .9-11.5zm-8.5 28.5a19 19 0 0 0 2.8-2.9l.5.8a20 20 0 0 1-3 3.1zm4.5-.4q-1.3 8.2-2.5 18.7a188 188 0 0 0-1.5 33.3h-.7q-1-12.2 1.4-33.5 1.2-10.5 2.6-18.7zm1.3 1.6a129 129 0 0 0-1.5 28.8l-.8.4a127 127 0 0 1 1.6-29.4z"/><path d="m735.8 509.6 5.4.6 5.5.5v1l-5.5-.5-5.5-.5zm12.6-.8q2.8 2 7 1.6v1a11 11 0 0 1-7.4-1.7zm-1.1 12.3q-.5 42-1.3 51.2l-.8-.1q.8-9.3 1.3-51zm16 9.2q3.3 36.5 5.2 39.6l-.6.7q-2-3.5-5.4-40.2zm-6.5 4.8q2.1 32.4 3.2 35l-.7.6q-1.1-3-3.3-35.5zm-30 46.3q3.9-1.7 7.5-6.9l.3-.4.3.5c1.8 3 3.6 3.8 6.4 2.9q2-1 3.5-2.7l.3-.2.2.2q2.5 2.2 5.4 3.2c4 1 6.4-.1 8.3-4.3l.2-.5.4.3c2.9 2.3 4.9 2.7 7.2 1.5q1.5-1 2.4-2.6l.3-.7.3.7c1.7 3.3 2.8 4.4 4 4.2v1q-1.8.6-4.3-4a8 8 0 0 1-2.4 2.4c-2.5 1.3-4.6 1-7.6-1.3-2.2 4.2-4.7 5.5-9 4.3q-3-1-5.4-3a11 11 0 0 1-3.6 2.5c-3 1-5 .3-7-2.8a20 20 0 0 1-7.5 6.7zm36.6-.4q1.3 8 3.5 17.2 4.5 18.2 9 23.7l-.5.8a67 67 0 0 1-9.3-24.1 236 236 0 0 1-3.5-17.4z"/><path d="M737.3 578.1q.6 27 1.8 46.3h-.8q-1-19.1-1.8-46.3zm-1 30.7q-.7 17.9-1.4 19.3l-.6-.7q.7-1.1 1.3-18.6z"/><path d="M728.7 629.4q.4 1.7 1.4 2.6c1.8 1.1 3.5.5 6.6-2.3 3-3 4.8-3.4 6.4-1.7q1.2 1.4 1.6 5l.1.6.1.5q.6 2.7 1.2 3.6.4.6.7.3.8-.4 1.5-2.2l.6.5q-.9 2.2-1.8 2.7t-1.6-.6-1.3-4l-.1-.4-.1-.8a10 10 0 0 0-1.4-4.4c-1.3-1.3-2.8-.8-5.5 1.7-3.3 3.1-5.3 3.8-7.4 2.4q-1.3-1.1-1.7-3.3zm26-3.8q-.2 3.7.7 6.1.7 1.8 2.2 1.7 2.1-.4 5.6-4.3c4.8-5.3 7.7-6.6 10.3-4.4q2 2.2 2.5 7.6l-.8.2c-.3-3.5-1-5.5-2.2-6.9-2.2-1.9-4.9-.7-9.4 4.3q-3.6 4.2-6 4.5-1.9.3-3-2.2-.9-2.7-.7-6.7zm.1-250.2q0 1.9.3 3.6c.8 2.3 2 3 4.5 2.8h.5v.6q-.8 3.8 1.3 5l-.4 1q-2.3-1.3-1.9-5.5-3.5.1-4.7-3.5-.6-2-.3-4.1zm11 16.7q.8 0 1.4 1.7.7 2.2-1.4 4.4l-.4-.9q1.5-1.6 1-3-.3-1.1-.7-1.2zm-8.6 6.6q1.1 1.9 2.3 1.4 1.7-.5 4 1.9 1.7.6 1.8.5l.6.5q-.3.9-2.6 0l-.1-.1c-1.6-1.6-2.5-2-3.5-1.8q-1.7.7-3-1.7zm-8 6.8q.9.5 2.2-.1c1.9-1 3.2-3 4.5-7l.7.4c-1.4 4.3-2.8 6.5-5 7.6q-1.5.7-2.8 0zm-8.4-10.1 2.6.2v1l-2.6-.2zm-28.4 112 .2 7.7h-.8l-.2-7.8zm-5.4-1q3.6 8.6 3.4 13.1h-.8q.1-4.3-3.3-12.7zm34.2-107.5h2.3q.4 0 .4.6 0 .3-.2.4l-2 1.3-.4-1 .4-.2h-.5zm14.3 125q.8 0 1.6.7 1 1 1.4 3.2 1-3.2 2.8-5 1.2-1 2.2-1.2v1.1q-.7 0-1.8 1a14 14 0 0 0-3.1 6.7q0 .4-.4.4t-.4-.6q0-3.6-1.1-4.8-.6-.4-1-.4zm-11-135.3.4-.2q1.7-.5 2.2.4.3.6 0 1.2 0 .3-.4.5-.3.3-.9.3-1.3.2-1.8-.6-.3-.3-.3-.7t.3-.7z"/><path fill="#f7c600" d="M746.3 702.3c55-3.2 89.9-63 89.9-63.6 0-1 6.9-15.4 13.3-15.2 6 1.5 15 23.4 25.5 26.6 5 10.6-1.4 21.9-3.8 24.8-2.7 2.9-12 10.1-14.1 2.3-1.9-7.8-4.3-6-4.6-5.9-.4.7-48.4 73.5-105.1 72-58.3.7-106.2-67.6-106.3-67.7l-4.2 5.8c-.3.4-4.3 5.6-6.8 5.5a33 33 0 0 1-13-19.7c-.3-9 5.8-13.6 6.1-13.8s16.4-15.8 18.7-25c4.3-4.2 10.6 4.1 11 4.6.2.4 44 73.2 93.3 69.3"/><path d="M746.2 701.2c23-1.2 44.4-11.9 65.3-32.5a172 172 0 0 0 18-21 137 137 0 0 0 5.7-8.9l.2-.4q0 .7.2 1.1-.6-.8 1-4 1.4-3 3.3-5.6c3.8-5.6 6.7-7.7 9.8-7.5q2.9.6 10 11 9.9 14 15.6 15.7h.2l.2.3c2.3 4.9 2.7 10 1 16.2q-2 6.5-5 10-3.3 3.6-7.7 5.5c-4.5 1.7-6.6.7-7.6-3.5q-1-4.4-2.5-5.3-.6-.3-1-.1a221 221 0 0 1-31.4 37c-26 24.6-50.3 35.9-74.1 35.2-24.6.3-49.4-10.8-75.4-33.7a211 211 0 0 1-30.9-33.6l-3.6 5c-3.4 4.6-5.6 6.2-7.6 5.8q-2.6-1-7.4-7a28 28 0 0 1-6.2-13.6 17 17 0 0 1 6.5-14.9q4.1-3.9 8.5-9 8.6-10 9.8-15.4v-.3l.2-.2c2.1-2.3 4.3-2.2 7.9.4q2.3 1.9 4.2 4.4h.1a211 211 0 0 0 28.1 36.2c23 23.8 44.2 34.5 64.6 32.7v.3zm0 2.1c-20.7 1.8-42.2-9-65.5-33.1a214 214 0 0 1-28.3-36.5 24 24 0 0 0-4-4c-2.7-2-4.3-2.2-5.8-.8a46 46 0 0 1-10.3 16.2q-4.4 5.2-8.6 9.2h-.1a15 15 0 0 0-5.7 12.9q.5 5.4 5.6 12.2 4.5 5.6 6.7 6.5c1.4.2 3.1-1.2 6.1-5.3l4.8-6.5.5.8q12 16.9 31.2 34c25.8 22.7 50.3 33.7 74.6 33.4 23.5.7 47.6-10.5 73.3-34.8a219 219 0 0 0 31.3-36.8l.1-.2.2-.1q1-.7 2.3-.1c1.5.9 2.5 2.8 3.3 6.6.7 2.9 2.3 3.5 5.8 2.2q4.2-1.9 7-5a25 25 0 0 0 4.5-9 19 19 0 0 0-.7-14c-4.1-1.4-9.3-6.5-16-16.2q-6.8-9.9-9.2-10.3c-2.5-.2-5 1.7-8.4 6.6l-3 5.3-.9 1.8-.1.4q0-.5-.2-.9c.3.7 0 1.8-1.5 4.2q-2 3.2-4.7 7a175 175 0 0 1-18.2 21.4c-21.1 20.9-42.8 31.7-66 33"/><path d="M621.9 653.6c3.5-.8 5.4-.2 7 2q1.5 2.7 13 19.2l-1.1 1.4q-11.4-16.5-13.1-19.3-1.4-2.2-5.4-1.2z"/><path d="m632.9 663.9-3.2 3q2 1 4 2.8c3.7 3.6 4.8 7.3 3.7 12.1l-1.4-.8c.8-3.8-.1-6.6-3.1-9.6a18 18 0 0 0-5.2-3.2l-1.7-.7 6-5.4zm237.7-14.6q-1.9-.9-5 2.9a207 207 0 0 0-12.5 19.6l-1.1-1.2q9-15.5 12.6-20c2.9-3.2 4.7-4.1 6.7-3.4z"/><path d="m861.2 656.8 6.5 5.5-2 .6q-2.3.7-4.5 2.9c-2.7 3-3.6 6.4-2.8 11.5l-1.5.8c-1-6 .1-10.3 3.5-14q1.6-1.5 3.3-2.5l-3.4-3zm-181 19.7c-.5 1-1 0-1.8 0-1.7.2-3.1 1.4-4.6 2.4l-15.1 10.8q-.6-.5-.3-1.3l4-25.4c.3-1.6.5-3.2-.4-4.5-.4-.6.1-1.2.5-.5l7.7 8.1c-.3 1-.7.3-1.1-.2-1.2-1.3-2.2-.3-2.3 1.5l-2.8 16.8 10.3-7.5c1.2-.9 2-2.6.8-4.3-.5-.5-1.2-1.4-.4-1.6zm5.3 36.2q-.1 1-.7.2l-9-7.3q0-1 .7-.3c.9.8 2 1.2 2.7-.1l3.3-8 4.6-11.1q.7-2.5-1-3.7-.8-.3-.5-1c.3-.3.6.4 1 .5l8.7 7q-.2 1-.8.3c-1-.8-2-1.1-2.8.1l-3.3 8-4.5 11.2c-.6 1.4 0 2.9 1 3.7zm35-9.7-2.5 9.4c-1-.4-.4-1.8-.6-2.9-.6-4.5-2.6-8-5.8-9.3q-3.9-1-6.3 3.2-3.2 6-3.6 13.6 0 4.4 2.5 7.2 2.3 1.8 4.9 2l1.7-7.2c.1-1.6-.9-2.5-1.9-3-.1-.4.2-1 .6-.4l9 4.6c-.2 1.4-1.2 0-2 .5-1 .7-1.2 2.2-1.6 3.7l-1.1 4.2q-6.2.2-11.8-4a18 18 0 0 1-5-14.6q1-7.5 5.9-11 4.7-2.9 9.6-.1 2.5 1.3 4.5 4 1.6 2.2 3-.2zm14.7 32.5q.1.9-.5.6l-10.4-2.2q-.1-1 .5-.7c1 .3 2 .3 2.6-1l.8-5.9 1.7-16.3q.4-2-1-3l-1.5-.5q-.1-.9.5-.6l10.3 2.2q.1.9-.5.7-1.6-.6-2.5 1-.6 3-.8 5.9l-1.8 16.3q-.3 2 1 3zm28-9.7-.4 10-18.5 1.7q-.2-1 .5-.8 1.7.1 2.2-2l-.2-7.5-.5-14.9q-.1-2.4-2-2.5c-.4-.2-1 .4-1-.3-.1-.7.4-.4.7-.5l10.3-.9q.2 1-.5.9c-1 0-2 .3-2.4 1.8v6.5l.7 15.5q0 2.3 1.7 2.3 2.3 0 4.5-.7c2.1-1 3.1-3.4 3.8-6.2.3-.8 0-2.3.9-2.4zm14.4-25c-.5.2-.3.9-.4 1.4l-2.4 25.3c-.3 2-.6 3.9-2 5-.3.4 0 1.2.5.7l6.1-2.8c-.2-1.3-1.1-.2-1.9-.3-1.4-.2-1.6-2-1.4-3.8l.2-3 7.1-3.2q1.5 2.1 2.7 4.4c.5 1.6-.7 2.3-1.7 2.7-.3.2-.1 1.2.3.7l9.3-4.5c-.2-1.3-1.2 0-2-.9q-2.4-2.8-4.4-6.1zm0 10.1 5 8-6 2.7zm31.6-31.4 2.7 6.5c-.9 1-1.2-.9-2-1.4q-2.2-1.9-4.5 0l-1.7 1.4 8 19.6c.6 1.7 1.9 1.8 3 .7q.7-.8 1 .1l-4.3 3.7-5.4 4.5q-.5-.8.4-1.2 1.9-1.7.9-4.3l-8-19.5c-1.6 1.3-3.2 2.4-3.7 5-.3 1.6.1 3.4.2 4.8-.5.6-.6-.1-.8-.6l-2.3-5.6zm12.5-11.5 5.1 8.6q2-2 1.9-5.1c0-1.7-1.3-3.1-1-4.4.4-.2.6.7 1 1l5.7 9.8c-.8 1.1-1.2-.8-2-1.2-1.3-.9-2.6-1.2-4 .1q-1.4 1-.3 2l4.1 6.6c1 1 2-.2 2.8-1.3 2-2.3 3.5-5 3.6-8.6 0-1.5-.5-3-.6-4.3.5-.8.6.3.8.7l2.8 6.4-14.4 17c-.6-.6 0-1 .4-1.5 1.3-1.5 1-3.4 0-4.7l-9.3-15.4c-1-1.3-2.1-.5-3 .7-.5.6-.8-.5-.3-.8l13.6-15.6 3.7 6.2c-1 1-1.6-1-2.6-1.3-2-.8-3.7.2-5.4 2.1z"/><path fill="#1a1a1a" d="M8 195.3c170.8-85.3 341-54.5 513.3-28C676.5 191 833.4 211.8 992 132.7v672c-170.8 85.3-341 54.5-513.3 28C323.5 809 166.6 788.1 8 867.2zm31.3 19.3v604.5c306.5-128.2 611.1 96 921.5-33.7V180.9C654.2 309 349.5 84.9 39.3 214.6" opacity=".2"/></svg>