<svg xmlns="http://www.w3.org/2000/svg" viewBox="0 0 1000 1000"><defs><linearGradient id="a" x1="810" x2="799" y1="78" y2="74" gradientTransform="matrix(.81684 .06625 0 2.52286 8 132.207)" gradientUnits="userSpaceOnUse"><stop offset="0" stop-color="red"/><stop offset="1" stop-color="#ff0"/></linearGradient><linearGradient id="b" x1="809" x2="798" y1="96" y2="93" gradientTransform="matrix(.81684 .06671 0 2.52286 8 131.836)" gradientUnits="userSpaceOnUse"><stop offset="0" stop-color="red"/><stop offset="1" stop-color="#ff0"/></linearGradient><linearGradient id="c" x1="809" x2="798" y1="114" y2="111" gradientTransform="matrix(.81684 .0669 0 2.52286 8 131.684)" gradientUnits="userSpaceOnUse"><stop offset="0" stop-color="red"/><stop offset="1" stop-color="#ff0"/></linearGradient><linearGradient id="d" x1="835" x2="825" y1="134" y2="130" gradientTransform="matrix(.81684 .04994 0 2.52286 8 145.539)" gradientUnits="userSpaceOnUse"><stop offset="0" stop-color="red"/><stop offset="1" stop-color="#ff0"/></linearGradient><linearGradient id="e" x1="805" x2="795" y1="150" y2="146" gradientTransform="matrix(.81684 .06896 0 2.52286 8 130.037)" gradientUnits="userSpaceOnUse"><stop offset="0" stop-color="red"/><stop offset="1" stop-color="#ff0"/></linearGradient><linearGradient id="f" x1="806" x2="795" y1="169" y2="165" gradientTransform="matrix(.81684 .0685 0 2.52286 8 130.408)" gradientUnits="userSpaceOnUse"><stop offset="0" stop-color="red"/><stop offset="1" stop-color="#ff0"/></linearGradient><linearGradient id="g" x1="956" x2="946" y1="78" y2="75" gradientTransform="matrix(.81684 -.05307 0 2.52286 8 237.725)" gradientUnits="userSpaceOnUse"><stop offset="0" stop-color="red"/><stop offset="1" stop-color="#ff0"/></linearGradient><linearGradient id="h" x1="955" x2="945" y1="96" y2="93" gradientTransform="matrix(.81684 -.05168 0 2.52286 8 236.408)" gradientUnits="userSpaceOnUse"><stop offset="0" stop-color="red"/><stop offset="1" stop-color="#ff0"/></linearGradient><linearGradient id="i" x1="953" x2="943" y1="115" y2="111" gradientTransform="matrix(.81684 -.04984 0 2.52286 8 234.662)" gradientUnits="userSpaceOnUse"><stop offset="0" stop-color="red"/><stop offset="1" stop-color="#ff0"/></linearGradient><linearGradient id="j" x1="955" x2="945" y1="133" y2="129" gradientTransform="matrix(.81684 -.05191 0 2.52286 8 236.627)" gradientUnits="userSpaceOnUse"><stop offset="0" stop-color="red"/><stop offset="1" stop-color="#ff0"/></linearGradient><linearGradient id="k" x1="955" x2="944" y1="151" y2="147" gradientTransform="matrix(.81684 -.05145 0 2.52286 8 236.189)" gradientUnits="userSpaceOnUse"><stop offset="0" stop-color="red"/><stop offset="1" stop-color="#ff0"/></linearGradient><linearGradient id="l" x1="955" x2="945" y1="169" y2="166" gradientTransform="matrix(.81684 -.05168 0 2.52286 8 236.408)" gradientUnits="userSpaceOnUse"><stop offset="0" stop-color="red"/><stop offset="1" stop-color="#ff0"/></linearGradient></defs><path fill="#00247d" d="M8 195c171-85 341-54 513-28 155 24 312 45 471-34v672c-171 85-341 54-513 28-155-24-312-45-471 34z"/><path fill="#fff" d="M8 195q27-14 55-23 94 31 191 98 94-64 191-114l55 8 11 32c-67 35-133 70-202 113q100 75 202 163l-22 56c-78-65-155-129-235-183-78 54-155 119-235 211L8 531v-37q94-111 191-184-94-57-191-77z"/><path fill="#cf142b" d="m254 307 37 1q106 78 216 173l-7 19c-81-68-162-136-246-193v25C175 387 96 453 15 548l-7-17c81-96 162-166 246-224l-37 2c-69-43-138-76-209-89v-25c81 15 162 56 246 112v-25q103-69 209-124l37 6c-81 43-162 86-246 143"/><path fill="#fff" d="M295 140v112c95 4 189 23 287 36v112c-95-13-189-32-287-36v168q-40-2-82 1V365c-68 5-135 19-205 54V307c68-34 135-49 205-54V141q40-3 82-1"/><path fill="#cf142b" d="M279 140v134c100 2 200 22 303 37v67c-100-14-200-35-303-37v191h-50V342c-73 3-146 17-221 55v-67c73-37 146-52 221-56V140z"/><path fill="#00247d" d="M8 531c163-81 324-57 492-31V164c162 25 325 52 492-31v672c-171 85-341 54-513 28-155-24-312-45-471 34z"/><path fill="#fff" d="M645 345c67 6 135 7 205-5l-1 250c3 12-5 25-12 35-12 18-33 43-74 69 34-6 70-59 70-60 1 0 15-27 23-15q11 18 19 24c5 5 9 19 2 32-9 14-21 18-24 4-5 5-39 66-106 70-39-1-68-23-85-41q-12-12-20-25s-9 18-22 2c-12-22-3-34-3-34s10-7 13-12c5-8 7-18 15-17 10 2 14 13 14 13s34 52 71 59c-84-56-86-95-86-101z"/><path fill="#006129" d="M649 352c65 6 130 7 196-5v240c0 31-38 71-98 112-62-43-98-75-98-109z"/><path d="M649 351q97 10 197-5v241q0 23-27 53-21 25-72 60-55-39-73-58-26-28-26-52l1-238zm1 2v238q0 22 25 49 18 20 72 58 50-35 71-59 27-30 27-52V348q-97 15-195 5"/><path fill="#f7c600" d="m675 389 13-23 12 25-1 1-11-23-11 22zm15-7q0 3-2 3t-3-3 3-3 2 3"/><path d="M690 382v3l-2 1-2-1-1-3 1-3 2-1 2 2zm0 0-1-2-1-1-2 1v4l2 1 1-1z"/><path fill="#f7c600" d="m678 407 18 1-2-5c10-2 7-12 15-13 1 1-4 4-4 5 0 0-4 4-3 7q3 1 3-4c1-2 7-3 7-10-3-4-12 3-12 4l-8-1q0-3-4-6-4 3-5 6l-10-1-6-1c0 1-1 6 8 8l5 6z"/><path d="m678 408 1-4-5-6q-4 0-7-4l-1-4 17 1q3-5 5-5t5 6h7l5-3q6-3 7 0 0 5-4 9l-2 1-1 4-1 1-2-1v-3l1-2 2-3 4-3q-4 0-6 5-3 7-8 8l2 4v1zm1-1 17 1-2-4-1-1h1q5-1 8-7t7-6l1 1h-1l-1 2-3 2-2 3-1 2 1 1 1 1v-1l1-3 2-2q5-4 4-7 0-3-6 0l-5 3h-8v-1l-4-5q-3-1-4 5l-17-1 1 2q1 4 7 4v1l5 5v1zm1-5 15 1v1z"/><path fill="#f7c600" d="M673 390s1 9 6 12z"/><path d="m673 390 1 5 6 7-1 1-5-8z"/><path fill="url(#a)" d="M672 390c0-4 1-4 3-9-1-5-3-4-2-7q1-5-2-9c0 4-4 8-4 11 0 4 2 3 2 8l-1 5z"/><path d="M672 390h-4v-3l1-3-1-4-1-4 1-5q3-3 2-6v-1l1 1 3 4-1 5 1 2 1 5-2 5zm0-1 1-4 1-4-1-4-1-3 1-4-2-4-2 6-2 4 1 3 1 5v5z"/><path fill="#f7c600" d="M690 368q0 3-2 3t-2-3 2-3z"/><path d="m690 368-1 3-1 1-2-2v-4l2-1 1 1zm-1 0v-1l-1-1h-2v4l2 1 1-1z"/><path fill="#f7c600" d="m675 436 12-24 12 25-1 1-11-22-11 21zm14-8q0 3-2 3t-2-3 2-3z"/><path d="m690 428-1 3-2 1-2-1-1-3 1-2 2-1 2 1zm-1 0-1-1-1-1h-1l-1 2 1 2 1 1 1-1z"/><path fill="#f7c600" d="m678 453 18 2-2-6c9-1 7-12 15-13 1 1-4 5-5 5 0 0-4 4-2 7q2 1 3-3c0-3 7-4 6-10-2-5-11 2-12 3l-7-1-5-6q-4 3-4 6l-11-1h-6s0 5 8 7l5 6z"/><path d="m677 454 1-4-4-5q-6-2-7-5l-1-3v-1l17 1q1-5 4-5 2 0 5 6h7l5-3q6-3 7 1 2 4-4 8l-2 2-1 3-1 1-1-1-1-2 1-3 2-2 4-4q-3 0-6 6t-7 7l1 5zm1-1 17 1-1-4-1-1h1q4-1 8-7 3-6 7-6v2l-2 1-2 2-2 3-1 2v1l1 1v-1l1-3 3-2q4-3 4-7-1-3-6 0l-6 3h-8q-1-6-4-6-2 0-4 5l-16-1v2q3 4 7 5l5 5 1 1h-1zm1-5 15 1v1l-15-1z"/><path fill="#f7c600" d="M672 436s1 9 7 12z"/><path d="m673 436 1 5q2 6 5 7v1q-4-2-6-8l-1-5z"/><path fill="url(#b)" d="m671 436 3-9-2-7q2-5-2-9-1 7-4 12c1 3 2 2 2 8v5z"/><path d="M672 436h-5l1-3v-3l-1-4-1-3 2-5 2-6-1-2 1 1q3 2 3 5l-1 4 1 3 1 4-1 5zm-1-1 1-4 1-4-1-4v-7l-2-3-2 5-1 5 1 2 1 6-1 3v1z"/><path fill="#f7c600" d="m689 415-2 2q-2 0-2-3l2-3z"/><path d="m690 415-1 2-2 1-2-1v-5l2-1 2 1zm-1-1-1-1-1-1-1 1-1 1 1 2 1 1 1-1z"/><path fill="#f7c600" d="m675 481 12-24 12 26-1 1-11-23-11 21zm14-7q0 3-2 3-3 0-2-3 0-3 2-3t2 3"/><path d="m690 474-1 3-2 1-2-2-1-2 1-3 2-1 2 1zm-1 0-1-2-1-1-2 1v4h3z"/><path fill="#f7c600" d="m677 499 18 1q1-1-2-5c10-2 7-12 15-13 1 1-3 4-4 5 0 0-4 4-2 6q2 2 2-3c1-2 7-3 7-10-3-5-12 3-12 3h-8q-1-4-4-6c-3 0-4 5-4 5h-11l-6-1c0 1-1 6 8 8l5 5z"/><path d="m677 500 1-5q-3-1-4-5l-8-4v-4l16 1q2-5 5-6 3 1 5 6l7 1 5-4q6-2 7 1 1 5-4 8l-2 2-1 4-1 1-2-1v-3l1-2 2-3 4-3q-3 0-6 5-3 6-8 7l2 5v1zm1-1 17 1-2-5h-1l1-1q6 0 8-6 3-6 7-7l1 1v1l-2 2-3 2-2 2-1 2 1 2h1l1-3 2-3q6-3 4-7h-6l-5 4-8-1-4-6q-3 1-4 6l-17-1 1 2q1 3 7 4 2 5 5 6h1l-1 1zm1-5h15v2z"/><path fill="#f7c600" d="M672 482s1 9 7 12z"/><path d="m672 482 2 5q1 5 5 6l-1 1q-3-1-5-7z"/><path fill="url(#c)" d="m671 481 3-8c0-5-3-4-2-7q2-5-2-9c0 4-4 8-4 11 0 4 2 3 2 8l-1 5z"/><path d="M671 482h-4v-3l1-3-1-5-1-3 2-5 1-6v-1l1 1 3 4-1 5 1 2 1 5-2 5zm0-1 1-4 1-4-1-4-1-3v-1l1-4-2-3-2 6-1 4v3l1 5v5z"/><path fill="#f7c600" d="M689 460q0 3-2 3t-2-3 2-3 2 3"/><path d="M689 460v2l-2 1-2-1-1-2 1-3h2l2 1zm0 0-1-2h-2l-1 2 1 2h2z"/><path fill="#f7c600" d="m697 532 12-24 12 25-1 1-11-22-11 21zm14-8q0 3-2 3t-3-3q1-3 3-3z"/><path d="M711 524v3l-2 1-2-1-1-3 1-2 2-1 2 1zm0 0-1-1-1-1h-2v4l2 1 1-1z"/><path fill="#f7c600" d="M699 550h18l-2-5c10-2 7-12 15-13 1 1-4 4-4 5 0 0-4 4-3 6q3 2 3-3c1-2 7-3 7-10-3-5-12 3-12 3h-8l-4-6c-3 1-4 6-5 6l-10-1h-6s-1 5 8 8l5 5z"/><path d="m699 550 1-5-5-5-7-4-1-4h17q3-5 5-5t5 6h7l5-4q6-3 7 1 0 5-4 8l-2 2-1 4-1 1-2-1v-3l1-2 2-3 4-4q-4 2-6 6-3 6-8 8l2 5zm1-1 17 1-2-4-1-1h1q6-1 8-7 3-6 7-7l1 1-1 1-1 2-3 2-2 3-1 2 1 1 1 1v-1l1-3 2-3q5-3 4-7 0-2-6 0l-5 4h-8v-1l-4-5q-3 0-4 5v1l-17-1 1 2q1 3 7 4 2 4 5 5v1zm1-5 15 1v1l-15-1z"/><path fill="#f7c600" d="M694 532c0 1 1 10 6 13z"/><path d="m694 532 1 5q2 6 6 7l-1 1q-3-1-5-7z"/><path fill="url(#d)" d="m693 532 3-8-2-7q1-5-2-9c0 4-4 8-4 11s2 3 2 8l-1 5z"/><path d="M693 533h-4v-3l1-3-1-5-1-3 1-5 2-6v-1h1l3 5-1 5 1 2 1 5-2 4zm0-1 1-4 1-5-1-3-1-4 1-4-2-3-2 6-2 4 1 3 1 5v5z"/><path fill="#f7c600" d="M711 510q0 3-2 3t-2-3 2-2z"/><path d="M711 510v3l-2 1-2-1v-5l2-1 2 1zm-1 0v-1l-1-1-1 1-1 1 1 2 1 1 1-1z"/><path fill="#f7c600" d="m672 571 12-24 12 25-1 1-11-22-11 21zm14-7-2 3-2-4q0-3 2-3z"/><path d="m687 564-1 2-2 1-2-1-1-3 1-2 2-1 2 1zm-1 0-1-2-1-1-1 1-1 1 1 2 1 1 1-1z"/><path fill="#f7c600" d="m675 589 17 1q1-1-1-5c9-2 7-13 14-13 1 1-3 4-4 4 0 1-4 4-2 7q2 2 2-3c1-2 7-4 7-10-3-5-12 3-12 3h-7q-2-4-5-6c-3 0-4 5-4 5l-11-1h-6s0 5 8 7l5 6z"/><path d="m674 589 1-5-4-5q-6-1-7-5l-1-3v-1l16 1q3-5 5-5 3 0 5 6h7l5-3q6-3 7 1t-4 8l-2 2-1 3-1 1-2-1v-2l1-3 2-2 4-4q-3 1-6 6-3 6-7 7l1 5zm1-1 17 1-2-4v-1h1q4 0 7-7 4-6 7-6l1 1v1l-2 2-2 2-3 2v4h1l1-3 2-3q6-3 5-7-1-3-7 0l-5 3h-8q-2-6-4-6-3 0-4 5v1l-17-2 1 3q1 3 7 4l5 5 1 1h-1zm1-5 15 1v1l-15-1z"/><path fill="#f7c600" d="M669 571c0 1 1 9 7 13z"/><path d="m669 571 2 5q2 6 5 7v1q-4-2-6-7z"/><path fill="url(#e)" d="m668 571 3-9-2-7q2-5-2-8l-4 11c1 3 2 3 2 8l-1 5z"/><path d="m668 572-4-1 1-3v-2l-1-5-1-3 2-5 2-6-1-2 1 1 3 5-1 5 1 2 1 4v1l-1 4zm0-2 1-3 1-5-1-4v-7l-2-3q1 2-2 5l-1 5v2l2 6-1 3v1z"/><path fill="#f7c600" d="m686 550-2 2q-2 0-2-3l2-2q2 0 2 3"/><path d="M686 550v2l-2 1-2-1-1-3 1-2 2-1 2 1zm0 0-1-2-1-1-1 1-1 1 1 2 1 1 1-1z"/><path fill="#f7c600" d="m672 618 13-23 12 25-1 1-11-22-11 21zm15-7q0 3-2 3-3 0-3-3t3-3z"/><path d="M687 611v3l-2 1-2-1-1-3 1-2 2-1 2 1zm0 0-1-2h-3v4l2 1 1-1z"/><path fill="#f7c600" d="m675 636 18 2-2-6c10-1 7-12 15-13 1 1-4 5-4 5s-4 4-3 7q3 1 3-3c1-3 7-4 7-10-3-5-12 2-12 3l-8-1q0-3-4-6-5 3-5 6l-10-1h-6s-1 5 8 7l5 6z"/><path d="m675 637 1-4-5-5-7-5-1-4 17 1q2-5 5-5 2 0 4 6h7l6-3q6-3 7 1 0 4-5 8l-2 2v3l-1 1-2-1-1-2 2-3 2-2 4-4q-4 0-6 6-4 6-8 7l2 5h-1zm1-1 17 1-2-4-1-1h1q5-1 8-7t7-6l1 1-1 1-1 1-3 2-2 3-1 2 1 1v1l1-1 1-3 2-2q4-3 4-7-1-3-6 0l-5 3h-8l-4-6q-3 0-4 5l-17-1 1 2q1 3 7 5l5 5v1zm0-5 15 1v1l-15-1z"/><path fill="#f7c600" d="M670 619s1 9 6 12z"/><path d="m670 619 1 5q3 6 5 7v1q-3-2-5-8z"/><path fill="url(#f)" d="m669 619 2-9-1-7q1-4-2-9c0 5-4 8-4 12 0 3 2 2 2 7l-1 6z"/><path d="M669 619h-4v-10l-1-4 1-5q3-3 2-6v-1l1 1 3 4-1 5v2l2 5-2 5zm-1-1 2-4 1-4-1-4-1-3 1-4-2-4-2 6-2 5 1 2 1 5v5z"/><path fill="#f7c600" d="M687 597q0 3-2 3-3 0-2-3 0-3 2-3z"/><path d="m687 597-1 3-1 1-2-1-1-3 1-2 2-1 1 1zm-1 0v-1l-1-1-2 1v3l2 1 1-1z"/><path fill="#f7c600" d="m795 390 13-25 12 23-1 1-11-21-11 23zm15-9q0 3-2 3-3 0-3-3t3-3 2 3"/><path d="M810 381v2l-2 2-2-1-1-3 1-2 2-2 2 1zm0 0-1-2-1-1-2 1v4l2 1 1-1z"/><path fill="#f7c600" d="m798 408 18-2-2-5c10-3 7-13 15-15l-4 5s-4 5-3 7q3 2 3-4c1-2 7-4 7-11-3-4-12 5-12 6h-8q0-3-4-5c-3 1-4 6-5 6l-10 1-6 1s-1 5 8 6l5 5z"/><path d="m798 408 1-5-5-4-7-4-1-3v-1l17-1q3-6 5-6t4 5l7-1 6-4q6-4 7-1 0 5-4 9l-2 2-1 4-1 1h-2v-3l1-3 2-2 4-5q-4 1-6 7-3 6-8 8l2 5v1zm1-1 17-1-2-4-1-1h1q5-2 8-9 3-6 7-7l1 1-1 1-1 2-3 2-2 3-1 2 1 2 1-1 1-3 2-3q5-4 4-7t-6 1l-5 4-8 1-4-5q-3 0-4 5v1l-17 1 1 2q1 3 7 4l5 4v1zm1-5 14-1v1l-14 1z"/><path fill="#f7c600" d="M793 391c0 1 1 9 6 11z"/><path d="m793 391 1 5q2 4 6 6l-1 1q-3-1-5-7z"/><path fill="url(#g)" d="m792 391 2-9-1-7q1-5-2-8c0 4-4 8-4 12 0 3 2 2 2 7l-1 5z"/><path d="M792 392h-4v-10l-1-3 1-6 2-6v-1h1l3 5-1 5v2l2 4-2 5zm-1-1 2-4 1-5-1-4-1-3 1-4-2-3-2 6-2 5 1 2 1 5v5z"/><path fill="#f7c600" d="M810 367q0 3-2 3t-2-3q-1-2 2-3 2 0 2 3"/><path d="m810 367-1 2-1 2-2-1-1-3 1-2 2-1 1 1zm-1 0v-2h-1l-2 1v3l2 1 1-1z"/><path fill="#f7c600" d="m794 436 13-26 12 23-1 2-11-21-11 23zm15-10-2 4q-3 0-3-3t3-4z"/><path d="m809 426-1 3-1 1-2-1-1-2 1-3 2-1 1 1zm-1 0v-1l-1-1-2 1v4h2l1-1z"/><path fill="#f7c600" d="m797 453 18-1-2-5c9-4 7-14 15-16 1 1-4 5-4 5 0 1-4 5-3 8q3 0 3-4c1-2 7-5 7-11-3-4-12 5-12 5l-8 1q0-3-4-5-5 3-5 6l-10 1h-6c0 1-1 6 8 7q3 4 5 4z"/><path d="m797 454 1-4-5-5q-4 0-7-3l-1-4 17-2q2-5 5-6 2 0 4 5h7l6-5q6-4 7 0 1 5-5 9l-2 2v4l-2 1-1-1-1-2 2-3 2-3 4-4q-4 2-6 6-4 7-8 9 2 2 1 5zm1-1 17-2-2-4-1-1h1q5-1 8-8t7-7h1l-1 1-1 2-3 3-2 3-1 2 1 1v1l1-1 1-3q-1-1 2-3 4-4 4-8-1-2-6 1l-5 5h-8l-4-5q-3 1-4 6l-17 2 1 2q1 3 7 3l5 5v1zm0-5 15-2v1z"/><path fill="#f7c600" d="M792 437s1 9 6 11z"/><path d="m792 437 1 4q3 6 5 6v2q-3-1-5-7z"/><path fill="url(#h)" d="m791 437 2-9c0-5-2-4-1-7q1-5-3-9c1 5-3 9-3 12s2 3 2 8l-1 5z"/><path d="M791 437h-4v-5l-1-5v-3l1-5 2-6v-2l1 1 2 4v7l2 5-2 5zm-1-1 2-4 1-4-1-4-1-3 1-5-2-3-2 6-2 5 1 3 1 5v3l-1 1z"/><path fill="#f7c600" d="m809 412-2 4q-2 0-3-3 1-3 3-3z"/><path d="m809 412-1 3-1 1-2-1-1-2 1-3 2-1 1 1zm-1 1v-2l-1-1-2 1v3l2 1 1-1z"/><path fill="#f7c600" d="m793 482 12-25 12 23-1 1-11-20-11 22zm14-9q0 3-2 3t-2-3l2-3q2 0 2 3"/><path d="m808 473-1 3-2 1-2-1-1-3 1-2 2-1h2zm-1 0-1-2h-2l-1 2 1 2 1 1 1-1z"/><path fill="#f7c600" d="m796 500 18-2q1-1-2-5c9-3 7-13 15-15l-5 5s-4 5-2 7q2 2 3-3c0-3 7-5 6-11-2-5-11 4-12 5h-7l-5-5c-2 1-4 6-4 6l-11 1-6 1s0 5 8 6l5 5z"/><path d="m795 500 1-5-4-4q-6-1-7-4l-1-3v-1l17-1q1-6 4-6 2 0 5 5l7-1 5-4q6-4 7-1 2 5-4 9l-2 3-1 3-1 1h-1l-1-3 1-2 2-3 4-5q-3 1-6 7-3 7-7 8l1 5v1zm1-1 17-1-1-4-1-1h1q4-2 8-8 3-7 7-8v2l-2 2-2 3-2 2-1 2v2h1l1-3 3-3q4-5 4-8-1-3-6 1l-6 4-8 1q-1-5-4-5-2 0-4 6l-16 1v2l7 4 5 4 1 1h-1zm1-5 15-1v1l-15 1z"/><path fill="#f7c600" d="M790 483c0 1 1 9 7 12z"/><path d="m791 483 1 5q2 4 5 6v1q-4-1-6-7l-1-5z"/><path fill="url(#i)" d="m789 483 3-9-2-7q2-5-2-8l-4 12c1 3 2 2 2 7v5z"/><path d="M790 484h-5v-1l1-2v-3l-1-4-1-3 2-6 2-6-1-1h1q3 3 3 5l-1 5 1 2 1 4-1 5zm-1-1 1-4 2-5-2-4v-7l-2-3-2 6-1 5 1 2 1 5-1 3v2z"/><path fill="#f7c600" d="M807 459q0 3-2 3t-2-3l2-3q2 0 2 3"/><path d="m808 459-1 3-2 1-2-1v-5l2-1 2 1zm-1 0-1-2h-1l-1 1-1 1 1 2 1 1 1-1z"/><path fill="#f7c600" d="m795 528 12-26 12 23-1 2-11-21zm14-10-2 4q-2 0-3-3 1-3 3-3z"/><path d="M809 518v3l-2 1-2-1-1-2 1-3 2-1 2 1zm0 0-1-1-1-1-2 1v4h2l1-1z"/><path fill="#f7c600" d="m797 545 18-1q1-2-2-5c10-4 7-14 15-16 1 1-3 5-4 6 0 0-4 4-2 7q2 1 2-4c1-2 7-5 7-11-3-4-12 5-12 5l-8 1q-1-3-4-5c-3 1-4 6-4 6l-11 1h-6c0 1-1 6 8 7q3 4 5 4z"/><path d="m797 546 1-4-4-5q-6 0-8-3l-1-4h1l16-2 5-6 5 5h7l5-5q6-4 7 0 0 4-4 9l-2 2-1 4-1 1-2-1v-2l1-3 2-3 4-4-6 6q-3 8-8 9l2 5zm1-1 17-2-2-4h-1l1-1q6-1 8-8 3-6 7-7h1l-1 1-1 2-3 3-2 3-1 2 1 1 1 1v-1l1-3 2-3q5-4 4-8 0-2-6 1l-5 5-8 1v-1l-4-5q-3 1-4 6l-17 2 1 2q1 3 7 3 2 4 5 5v1zm1-5 15-2v1z"/><path fill="#f7c600" d="M792 529s1 9 6 11z"/><path d="m792 529 1 4q2 6 6 7l-1 1q-3-1-5-7z"/><path fill="url(#j)" d="m791 529 3-9c-1-5-3-4-2-7q1-5-2-9c0 5-4 9-4 12 0 4 2 3 2 8l-1 5z"/><path d="m791 529-4 1v-4l1-2-1-5-1-3 1-5 2-6v-2l1 1 3 4-1 5 1 2 1 5-2 5zm0-1 1-4 1-4-1-4-1-3 1-5-2-3-2 7-2 4 1 3 1 5v4z"/><path fill="#f7c600" d="m809 505-2 3q-2 0-2-3t2-3 2 3"/><path d="M809 505v2l-2 1-2-1-1-2 1-2 2-2 2 1zm-1 0v-2l-1-1-1 1-1 2 1 2h1l1-1z"/><path fill="#f7c600" d="m794 574 12-26 13 23-2 2-11-21-11 23zm15-10q0 3-3 4l-2-3 2-4q3 0 3 3"/><path d="m809 564-1 3-2 1-2-1v-5l2-1 2 1zm-1 0v-2h-2l-1 1-1 2 1 1 1 1 2-1z"/><path fill="#f7c600" d="m797 591 18-2q1-1-2-5c9-3 7-13 15-15 1 1-4 5-4 5q-3 3-3 7 3 2 3-3c1-2 7-5 6-11-2-5-11 4-12 5l-7 1q-1-4-5-6c-2 1-4 6-4 7h-11l-6 1s0 5 8 6q3 5 5 5z"/><path d="m797 592 1-5-5-4q-6-1-7-4l-1-3v-1l17-1q2-6 4-6 3 0 5 5l7-1 6-4q6-4 7 0t-5 9l-2 2-1 3-1 1h-1l-1-3 1-2 2-3h1l4-4q-4 0-7 6-3 7-7 9l1 4v1zm0-2 18-1-2-4-1-1h1q5-2 8-8 3-7 7-8v2l-1 2-3 3-2 2-1 3v1h2v-3l3-3q4-4 4-8-1-2-6 1l-5 4h-1l-7 1q-2-5-5-5l-4 6-16 1 1 3q1 2 6 3h1l5 5zm1-5 15-1v1l-15 1z"/><path fill="#f7c600" d="M791 574c0 1 2 9 7 12z"/><path d="m792 574 1 5q2 5 5 6v1l-6-6z"/><path fill="url(#k)" d="m791 574 2-9c0-4-2-3-2-6q3-5-2-9c1 4-3 8-3 12 0 3 2 2 2 8l-1 5z"/><path d="M791 575h-5l1-3v-3l-1-4-1-3 2-5q3-4 2-7v-1l1 1 2 4v7l2 4-2 5zm-1-1 1-4 2-5-1-3-1-4 1-4-2-3-2 6-2 5 1 2 1 5v4l-1 1z"/><path fill="#f7c600" d="M808 550q1 3-2 3l-2-2q0-3 2-3t2 2"/><path d="m809 550-1 3-2 1-1-1-1-2 1-3 1-1 2 1zm-1 0v-1l-2-1-1 1v3l1 1 2-1z"/><path fill="#f7c600" d="m794 619 13-25 12 23-1 1-11-20-11 23zm15-9q0 3-2 3-3 0-3-2 0-3 3-4 2 0 2 3"/><path d="m809 610-1 3-1 1-2-1-1-2 1-3 2-1h1zm-1 0v-2h-1l-2 1v3l2 1 1-1z"/><path fill="#f7c600" d="m797 637 18-2-2-5c9-3 7-13 15-15 1 1-4 5-4 5 0 1-4 5-3 7q3 2 3-3c1-3 7-5 7-11-3-5-12 4-12 5l-8 1q0-4-4-6c-3 1-5 6-5 6l-10 1-6 1s-1 5 8 6l5 5q-2 2-2 5"/><path d="m797 637 1-5-5-4-7-4-1-3v-1l17-1q2-6 5-6 2-1 4 5l7-1 6-4q6-4 7-1v1q1 4-5 9l-2 2v3l-2 1h-1l-1-3 2-2 2-3 4-5q-4 1-6 7-4 7-8 9 2 1 1 4v1zm1-1 17-1-2-4-1-1h1q5-2 8-8 3-7 7-8l1 1-1 1-1 2-3 3-2 2-1 2 1 2h1l1-3q-1-2 2-3 4-5 4-8-1-3-6 1l-5 4-8 1-4-5q-3 0-4 6l-17 1 1 2q1 3 7 4l5 5zm0-5 15-1v1l-15 1z"/><path fill="#f7c600" d="M792 620c0 1 1 9 6 12z"/><path d="m792 620 1 5 5 6v1q-3-2-5-6z"/><path fill="url(#l)" d="m791 620 2-9-1-7q1-4-3-8c1 4-3 8-3 12 0 3 2 2 2 7l-1 6z"/><path d="M791 621h-4v-6l-1-4v-3l1-5q3-4 2-7v-1l1 1 2 4v7l2 4-2 5zm-1-1 2-4 1-5-1-3-1-4 1-4-2-3-2 6-2 5 1 2 1 5v3l-1 2z"/><path fill="#f7c600" d="M809 596q0 3-2 3t-3-2l3-4q2 0 2 3"/><path d="m809 596-1 3-1 1-2-1-1-2 1-3 2-1 1 1zm-1 0v-1l-1-1-2 1v3l2 1 1-1z"/><path fill="#f7c600" d="M759 644s4 14 10 5c5-10 3-13 3-13l-12-9-3 11z"/><path d="m759 644-3-6 4-11 13 8v4q0 4-4 10-1 3-4 3-1 1-3-2zm0-1 3 6q2 3 3 2l4-2 3-10v-3l-11-8-4 10z"/><path fill="#ffc6b5" d="m769 641 2-1-3-4-1 3z"/><path d="m769 642-2-3 1-4h1l1 2 1 3zm0-1 1-2-1-1-1-1v1z"/><path fill="#ffc6b5" d="m742 638-10 8h-6q-1-3 3-3c3-1 10-9 10-10z"/><path d="m742 638-10 8h-6v-3l3-1q3 0 10-9zm0 0-3-4q-7 9-10 9l-2 1-1 1h6z"/><path fill="#ffc6b5" d="m742 383 1 5-2 5q-2 0-1 1l1 2v10l6 2v7l-4 11 20-4-4-8-1-7v-29l-15-2z"/><path d="m742 383 1-8 15 3 1 35h1l4 10-21 3 4-11v-6l-6-3v-10l-2-2 1-1 1-1v-1l1-3zm1 0v5l-1 3-1 2h-1v1l1 1h1v1l-1 3 1 1-1 1v4l6 3h1v4l-1 3-3 10 19-3-4-8-2-7v-28l-13-3z"/><path fill="#ffc6b5" d="M739 423c-1 0-6 4-7 15l-2 21-10 16-7 15c-2 3-6 10-6 13s-1 15 3 17c2 0 6-14 6-14l-1-8q0-4 3-6l10-10 8-11z"/><path d="m739 422-3 50-7 10-11 11-2 2-1 2 1 9-2 7q-3 9-4 7-4-1-4-15v-2l5-11 1-2 3-6 15-25 5-33q1-3 4-3zm-1 2-2 3q-3 5-3 11l-3 21v1l-17 31-1 2-5 10v2q0 13 3 14h1l2-6 2-8q1-6-1-7v-2l1-2 3-2 17-21z"/><path fill="#fff" d="M746 415s2 5 6 5l8-6h4c1 1 9 12 9 16-1 4-4 3-6 5l-3 14 3 13-2 4 1 6-1 8v40l1 3 8 47 1 6-1 1c-1 1 3 8 3 10l5 23-1 8 2 13q-3 3-6 2h-1l-1 2h-9l-3 5-4-3 1 5q-3 3-8-2v-4l-4-2 2 3q-1 4-4 5c-1-1-3-6-7-6l-6 2-6 2-3-4 1-7-1-5 3-9v-33l-3-2 5-55 2-15q0 2-2 0l6-29 1-18v-9q-3-1-6-7c0-8 5-12 6-15l3-9c0-1 2-7 7-8"/><path d="m746 415 2 2q1 3 4 2t8-6l4 1q10 12 9 16 0 3-3 4l-2 2-3 6v7l1 6 1 7-1 3-1 1 1 2 1 4-1 4-1 4 1 9-1 31q2 1 2 3l8 53h1-1l-1 2 2 3 2 6 2 9 2 14-1 9 1 3 1 9q0 3-6 3h-1l-1 2h-9l-3 4q-2 1-3-2v4l-4 1q-4 1-5-2l1-5-2-1-2-1 1 1 1 2-1 4-3 1-2-2q-3-4-5-4l-6 2q-5 3-6 2-3 0-3-4v-3l1-4v-1l-1-4 3-9v-32q-3-1-3-3a705 705 0 0 1 11-99v-26q-5-4-5-8 0-6 4-12l2-3 1-4 1-6q3-6 8-8zm0 0q-4 1-7 8l-1 5-2 5-1 3q-4 5-4 11-1 4 5 7v27l-5 29h1v1l-3 14-2 57h1v33l-3 9v3l1 2-1 5v2q0 3 2 3 2 1 6-2l6-2q3 0 6 5l1 1 2-1 2-3-2-2h-1v-1l1-1 2 1 2 2v4q1 3 4 2l4-1-1-2v-2l2 1 2 1 3-4h9v-3l2 1q5 0 6-2l-2-8v-13l-4-23-2-5-2-5h1l1-1-9-53-1-3h-1l1-31-1-9 1-5 1-3-1-4v-4l1-2-1-7-1-6 1-8 2-6 3-2 3-3q0-3-9-15l-4-1-8 6q-3 1-5-2z"/><path fill="#f7c600" d="m744 640-14 10q-3-1-1-4l4-1-4-5 6-3 3 4 5-3z"/><path d="m744 641-14 9q-1 1-3-1v-2l1-2h4l-1-2-2-2v-1l3-2 3-1 1 1 2 3 4-4h1l1 2 1 1zm0-1v-1l-5 4-3-4-3 1-2 1v1l1 1 3 3-1 1-4 1h-1v1l2 1z"/><path fill="#ffc6b5" d="M762 645q1 5 4 3c3-3-1-6-1-6z"/><path d="m761 645 4-4v1l2 2 1 2-1 3q-3 1-5-3zm1 0 1 1q2 3 3 2l1-2-1-1-1-2z"/><path fill="#ffc6b5" d="M767 644h2q0-4-2-5l-2 3z"/><path d="m767 645-2-3 2-4v1l2 1 1 4q-1 3-3 1m0-1 2-1-1-2-1-1-1 2z"/><path fill="#ffc6b5" d="m773 431 4 22 2 24-8 18-6 15-1 12 1 4-5 6q-3-1-5-6l2-11 7-24 6-19-3-11q-7-25 6-30"/><path d="m773 430 2 10 4 37-4 9-4 9-5 15-2 12 1 2v2l-2 4-4 2-2-2-2-4v-6l1-6q2-1 8-22v-2l6-18-1-6-3-5-2-20q3-7 8-11m-1 2q-6 3-7 9-1 7 2 20 2 1 2 5l1 6-5 18v2l-9 28v6l1 3 3 2 2-2q3-1 2-3v-2l-1-3 2-11 5-15 5-10 4-8a125 125 0 0 0-5-37l-1-6z"/><path fill="#9c5100" d="m742 382 4-1q3-2 5 0l2 3v7l3 2-1 3 2 3-1 4 2 4c1 0 0 4 3 3q3-3 2-4 1 1 3-3l2-4q3 0-1-6c0-25-11-22-12-22 0 0-1-4-3-4l-5 4-2-2-1 5c-1 1-4-1-4 3q1 6 2 5"/><path d="M742 382h-1l-2-4 1-4h3l1-3 1-2h1l1 2 2-2 3-2q1-2 4 4 2-1 6 1 6 5 6 21l2 4-1 2h-1l-1 4-4 4q1 3-2 4l-2-1-1-2v-1l-2-3v-5l-1-1v-4l1-1-2-1h-1l-1-5 1-3-2-2q-1-3-4-1zm0-1 4-1q4-2 5 1l2 2h1v1l-1 3v3l2 1 2 1-1 2-1 2 1 1 1 2v2l-1 2 1 1 1 2 1 2 1 1 1 1 2-4 3-4 2-4 1-1-2-4q0-15-6-20-3-2-6-1v-1l-3-3-2 2-3 2-2-2v2l-1 2-1 1h-2l-1 2zm21 41q-11 10-11 13h-1q0-3 12-14zm3 1-3 4v-1l1-1zm3 4q-5 7-4 11h-1q-1-5 5-11m-27-6-1 6 1 3 3 8v7h-1v-6l-3-9-1-3zm-2 9 1 6 2 4 1 4h-1l-1-4-2-3-1-7zm-2 23h2q3-1 4-7l1 1q-3 6-5 7zm12-12-1 3q0 4 3 7 5 4 8 1l4-2v1l-3 2q-4 3-10-1-3-3-3-8l2-5zm-2 10 2 7q3 9 11 16h-1q-7-7-11-15zm1 11v6l4 8v1q-3-3-4-9l-1-6zm-3-12q-4 16-7 17v-1q3-1 6-16zm-1 11-1 15h-1zm-2 17q2 4 5 4l3-2q1-2 3-2l2 1 6 1v1l-7-1-1-1-3 2-3 2q-3 0-6-4zm13 7 1 10 1 9h-1v-8q-2-1-2-11zm-16-4-1 12v1l-2 11h-1l2-11v-1zm-8 29 2-3 1 1zm4-1-4 52h-1a191 191 0 0 1 4-52zm2 2q-3 24-2 29h-1q-1-5 2-29zm-2-1h5l6 1v1l-6-1zm12-1q4 2 7 1v1q-4 1-7-1zm-1 12-1 51h-1zm16 9q4 37 6 40l-1 1q-2-4-5-41m-6 5 3 35-1 1zm-30 46 7-6 1-1v1q2 4 6 2l4-2 6 3q5 2 8-4v-1l1 1q3 3 7 1 2-1 2-3h1l4 5v1q-3 0-5-4l-2 2q-3 2-7-1-4 6-10 4l-5-3-3 2q-5 3-7-2l-8 6zm36 0 4 17q4 18 9 24l-1 1q-5-6-9-24zm-26-3 2 46h-1zm-1 31-1 19-1-1zm-7 20 1 3q3 2 7-2 5-5 6-2l2 5v1l1 4h1l1-2h1l-2 3-1-1-2-4v-1l-1-4q-2-3-6 2-4 4-7 2l-2-3zm26-3v6l3 1q2 0 5-4 7-7 11-4l2 7h-1l-2-6q-3-3-9 4l-6 4q-3 1-3-2l-1-7zm0-251v4q1 3 5 3l1 5v1q-2-1-2-5-3 0-5-4zm11 17 1 2q1 2-1 4l-1-1q2-1 1-3zm-9 7 3 1 4 2h1l1 1h-3l-3-2q-1 1-3-2m-8 6h2q3-1 5-7l1 1q-2 6-5 7h-3zm-8-10 2 1v1l-2-1zm-29 112 1 8h-1zm-5-1 3 14v-1q0-4-4-12zm34-107h3v1l-2 1-1-1zh-1zm15 125 1 1 1 3 3-5 2-1 1 1-2 1q-3 2-3 6l-1 1v-1l-1-5zm-12-135 2 1v2h-1l-2-1z"/><path fill="#f7c600" d="M746 702c55-3 90-63 90-63 0-1 7-16 13-16 6 2 15 24 26 27 5 11-1 22-4 25s-12 10-14 2-4-6-4-6c-1 1-49 74-106 72-58 1-106-67-106-67l-4 5c0 1-4 6-7 6-2-1-12-11-13-20 0-9 6-13 6-14 0 0 17-15 19-25 4-4 11 5 11 5s44 73 93 69"/><path d="M746 701q35-2 65-32a172 172 0 0 0 24-31l1 2q-2-1 1-5l3-5q6-8 10-8 3 1 10 11 9 15 15 16h1q3 7 1 17l-5 10-8 5q-7 3-8-3l-2-6h-1q-12 19-31 37-39 37-75 35-36 2-75-33-19-18-31-34l-4 5q-4 7-7 6l-7-7q-6-7-7-14a17 17 0 0 1 7-15l8-9q9-9 10-15 3-4 8 0l4 4h1q10 19 28 37 34 35 64 32m0 2q-31 3-65-33-17-18-29-36l-4-4q-3-3-5-1-2 6-11 16l-8 9a15 15 0 0 0-6 13q0 6 6 12l6 7q2 1 6-5l5-7 1 1q12 17 31 34 39 34 74 33 36 2 74-35 19-18 31-36v-1h3l3 7q1 4 6 2l7-5q3-3 4-9 3-8-1-14-6-1-15-16-7-10-10-10-3-1-8 6l-4 7v1-1l-2 4a135 135 0 0 1-23 28q-31 32-66 33m-124-49q4-2 7 2l13 19-1 1-13-19q-2-3-6-1zm11 10-3 3 4 3q5 5 3 12l-1-1q2-6-3-10l-5-3h-2l6-6zm238-15q-3 0-5 3l-13 20-1-1 13-20q3-6 6-4zm-10 8 7 5-2 1q-2 0-5 3-4 4-3 11l-1 1q-1-9 3-14l4-2-4-3zm-181 20h-2l-4 2-15 11-1-2 4-25v-5q0-1 0 0l8 8h-1q-2-1-2 1l-3 17 10-7q3-2 1-5v-1zm6 36h-1l-9-7v-1h3l4-8 4-11q1-2-1-4v-1l1 1 8 7q0 1 0 0h-3l-4 8-4 11q-1 3 1 4zm34-10-2 9-1-2q0-7-5-10-4-1-7 3-3 6-3 14-1 4 2 7t5 2l2-7q0-2-2-3h1l9 4-2 1q-2 1-2 3l-1 5q-6 0-12-4-5-6-5-15 2-8 6-11t10 0l4 4zm15 32v1l-11-2 1-1 2-1 1-6 2-16-1-3h-2l1-1 10 2v1l-3 1-1 6-1 16q-1 2 1 3zm28-9v10l-19 2 1-1 2-2v-8l-1-15-2-2-1-1h1l10-1v1l-3 2v6l1 16 2 2 4-1q3-1 4-6zm15-25-1 1-2 25-2 6q-1 1 0 0l6-3h-1q-3-1-2-4v-3l7-3 3 5q0 2-2 2l1 1 9-5h-2l-4-7zm0 10 5 8-6 3zm31-31 3 6-2-1q-3-3-5 0l-1 1 8 20h4l-5 4-5 5v-2q3-1 1-4l-8-19q-2 1-3 5v4h-1l-2-6zm13-12 5 9 2-6-1-4 1 1 5 10-2-1h-4v2l4 6q2 1 3-1 4-3 4-8l-1-5q1-1 1 1l3 6-15 17 1-1v-5l-10-15q-2-2-3 0-1 1 0 0l14-16 3 6-2-1q-3-1-6 2z"/></svg>