<svg xmlns="http://www.w3.org/2000/svg" viewBox="0 0 1000 1000"><path fill="#fff" d="M8 195.3c170.8-85.3 341-54.5 513.3-28C676.5 191 833.4 211.8 992 132.7v672c-170.8 85.3-341 54.5-513.3 28C323.5 809 166.6 788.1 8 867.2z"/><path fill="#369443" d="M314.8 595.8c0-.2-.7-5.2 9.5-9s11-17.9 9-28.4c-.2.1-5.4 8.7-11.9 11.8-.3.2-10 4.9-11 15.8 0 0-.2 3.9-1 7-.7 1.4-4.6-13.6 3.8-24.6 9.2-11.3 11.7-20.2 4.5-39.3 0 .3-.9 10.7-7.9 17-7.2 6-8 6.5-8 21.8 0 .3 0 4.8-2.6 6.8 0 0-5.4-8.6-7-14.1-1.5-5.7-2.1-7.9 4.2-14.1.3-.2 20-12.3 5.7-42.8 0 .3-.6 9.7-7.5 15.8-7 6-6.5 9.8-6.9 20.3s-1 9.7-1.8 11.1c-.2-.4-12.5-24.3-3-37.5 10.2-12.8 15.5-15.1 4.6-39.8 0 .4.3 12-8.3 18.3-8.7 6.5-6.9 20-6.8 20.4 0 .2.3 5.2-1.3 9.3-.2-.4-12-24.6-.5-38.4 10-11.4 10.7-19 5.3-35.5 0 .3-.8 7-6.3 11.4-5.6 4.1-9.8 8-9 23.6 0 .2.3 10.8-.8 14 0 0-5.1-9.9-6.8-16.4-1.4-6.6-2-10.1 1.9-16.8 4-6.7 19-25 .9-52 0 0-.7 8.5-5.3 16.6-4.4 8.1-2.5 17-1.4 24.3.7 7.3-2.4 13.9-2.4 14a64 64 0 0 1-6.3-32c1.6-17.4-5-31-20.6-40.6-.2.5-10.9 26.8 4.1 40.2.1.1 12.8 12.5 16.4 28.6-.2 0-9.6-.7-18.9-18-9.5-17.4-27.2-13.2-28.9-13 0 .6 3.1 26.3 31.8 33.1.4.1 17.7 2.5 21.7 16.2 0 0 3 9.4 4.3 14.4a29 29 0 0 1-11.1-10.2c-5.3-7.8-4.8-9-22.8-9.8-.3 0-6.9-.6-11.1-5.4.1.6 7.5 27.8 27.1 27.5.4 0 17.4-2.5 28 21.6l-4.6-3c-2.8-2-9.1-5.2-22.3-3.3s-16.7.3-20-.7c.2.5 12.8 23.2 31.8 16 18.9-7 27.5 19 27.9 20 0 0-2.5-2-5.8-5.3-3.5-3.4-10-7.4-23.1-3-.2 0-9.2 3.5-18.8 1.3.2.4 9 17 30.4 14.2 21.4-2.6 26.5 16 26.6 16.3 0 0-2.8-1.8-4.8-3.4-2-1.7-9-5.8-24.4-1.2-15.6 4.5-20.8 0-21-.3.2.4 8.5 15 25 17.3 0 0 9-.3 13-1.5a17 17 0 0 1 21 7.1s-1.8.2-4.8-1.1c-.4-.2-10.5-4.1-19.2 2.6-.3.3-7.2 7.3-17.9 6.4.3.2 13.2 12.7 35 2.3.4-.3 6.9-4.7 12.7-.8s17.3-2.8 17.7-3"/><path fill="#010002" d="M316 595.7v.8l-.5.4a41 41 0 0 1-7.1 3.2c-5.7 1.9-9.2 1.8-12-.3-2.1-1.5-4.2-1.8-7.3-1q-2.2.7-4 1.9h-.1a35 35 0 0 1-26.5 3 26 26 0 0 1-10-5.5l-2.4-2.5 3.5.5q6.1.6 12.1-2.6 3-1.6 4.7-3.4h.1a19 19 0 0 1 13.5-4.4q4 .3 6.9 1.5l2 .8a16 16 0 0 0-9.4-5.6q-4.4-.5-8.9 1-4 1.4-13.3 1.6h-.1a34 34 0 0 1-19.4-9.6 39 39 0 0 1-6.5-8.3l-3.5-6.4 5.3 5q1.3 1 4.2 1.6 6.3 1.2 15.6-1.7 10.3-3 17.8-1.8a17 17 0 0 1 9.4 4.6 27 27 0 0 0-3.8-5.5c-5.2-5.7-11.6-7.8-20.2-6.6a30 30 0 0 1-31.6-14.8l-1.3-2.4 2.6.7a30 30 0 0 0 18-1.4h.1c10.7-3.5 18.4-2.4 24.3 3.3l2 2q-2.3-4.7-5.3-8.6c-6-7-11.9-8.8-19.2-6-8.4 3.3-16 1.6-24.1-5.3a45 45 0 0 1-9.2-11.2l-1.4-2.5 2.8.7 1.2.4a44 44 0 0 0 18.3.2c10.2-1.5 17.5-.3 23.1 3.4l1.2.8q-5.9-11.4-15.4-15.5c-3.8-1.5-6.7-2-9.6-1.6h-.1c-8.8.3-15.7-4-22-13.8a56 56 0 0 1-6.4-14.5l-1.5-5.7 3.6 4.5q2.3 2.8 6.5 4.2 2.2.7 3.8.8 12.4.6 16 2 2.8 1.4 6.6 6.8l1 1.6a33 33 0 0 0 8.4 8.5q-1.3-4.6-3.6-11.7c-1.5-5.5-5.1-9.4-11.6-12.6a34 34 0 0 0-9.2-2.8h-.1a40 40 0 0 1-32.6-34l-.2-1.5h1.4l.6-.1c14-2 23.3 2.6 29.2 13.6q5.6 10.6 12.5 15.2 2.2 1.4 3.9 2-2.3-8.9-8.9-18.1-3.6-5-6.8-8.1c-6.7-5.8-9.3-14-8.1-25.8q1-8.7 3.8-15.7l.5-1.3 1.2.7a41 41 0 0 1 21 41.7 58 58 0 0 0 5.1 29.2q2-5.6 1.3-11.1l-.3-2.3a75 75 0 0 1-1-11.1q0-6.7 3-11.7 4.4-7.7 5-16.1l.2-3.4 2 2.8a44 44 0 0 1 8.4 32.2q-1.4 8.5-8.1 19.2l-1.2 2q-2.5 4.1-2.8 7.8 0 2.6 1 8a67 67 0 0 0 5.3 13.4q.4-3.6.1-10.6-.6-10.8 2.2-16.7 2-4 7.3-8 3-2.3 4.8-6.6.7-2.2 1-4l.5-5.4 1.7 5.2a49 49 0 0 1 3.2 20.2 33 33 0 0 1-8.8 16.5c-4.6 5.5-6 12.8-3.9 23.2a65 65 0 0 0 3.5 11.3q.5-2.7.2-6-.5-3.9.1-8.3c1-6.3 3.2-10.4 7.2-13.3q5.1-3.4 7-10.7.9-3.6.9-6.6l-.3-5.9 2.5 5.5a51 51 0 0 1 6 23.3q-.5 3.6-2.7 7.3-1.4 2.1-5.1 6.8l-3 3.5c-3.8 5.3-4.5 12.4-2 22.5a71 71 0 0 0 4 11.6q.5-2.5.8-8.5v-2.6q.3-7.5 1.2-10.4 1.4-4.2 6-8.1c2.8-2.4 4.7-5.3 6-9.5q1-3.2 1.1-5.5l.2-4.5 2 4c6.3 13.3 7.1 24.2 2.7 33.9a25 25 0 0 1-8.7 10.5 16 16 0 0 0-4.6 6.5q-.3 1.8.8 6.2v.1q1.4 5 6.2 12.7 1.2-1.6 1.2-5.2 0-11 1.3-14.5 1.3-3 6.6-7.7l.5-.3q4.2-3.6 6.2-10.3a29 29 0 0 0 1.2-6l.3-5.2 2 5q5.2 13.9 4 23.1a37 37 0 0 1-8.7 17.3 24 24 0 0 0-5 18.2l.1-1.5a19 19 0 0 1 6-12.7q3-2.7 5.7-4 3.8-1.8 8-6.7a42 42 0 0 0 3.4-4.8l1.5-2.6.6 3.1q1.8 9.4.1 17.4c-1.7 6.8-4.7 10.6-9.8 12.4-4.1 1.4-6.5 3-8 5.3q-.9 1.4-.7 2.4m-2.4-.6q.1-1.5 1.1-3.1a16 16 0 0 1 9.2-6.2q6.3-2.2 8.3-11 1.4-6 .4-13.3-.8 1.3-2 2.6-4.4 5.4-8.7 7.2-2.4 1.3-5 3.7-5 4.9-5.4 11 0 4.2-.9 7.3 0 .4-.4.7-.6.4-1.3.1-.4-.2-.8-.8l-.6-1.7a29 29 0 0 1 4.8-24 35 35 0 0 0 8.2-16.2 42 42 0 0 0-2.4-17.7l-.6 2.1a24 24 0 0 1-7 11.3l-.4.4q-5 4.3-6 6.7-1.1 3.2-1 13.7c-.1 4.1-1 6.4-3.3 7.9l-.9.5-.6-1a57 57 0 0 1-7.2-14.5 19 19 0 0 1-.9-7.4q.8-3.3 5.4-7.8l.2-.1a23 23 0 0 0 8-9.6c3.6-8.2 3.3-17.2-1.1-28.2l-.6 2.2q-2.2 6.8-6.8 10.6a17 17 0 0 0-5.3 7q-.8 2.5-1 9.7l-.1 2.7a30 30 0 0 1-2 11.6l-1 1.9-1-2q-3.3-6.4-5.3-14.2c-2.7-11-1.9-18.7 2.5-24.6l2.9-3.6 5-6.6q1.8-3 2.3-6.3.7-6-4-17.7l-.5 2.5a20 20 0 0 1-8 12c-3.4 2.5-5.3 6-6.2 11.6q-.5 4.2 0 7.6.4 5.8-1.4 10l-1 2.2-1.1-2.2q-3.1-6.3-4.9-14.5c-2.1-11.1-.7-19.2 4.5-25.2A31 31 0 0 0 278 467q.8-5.7-1.8-15l-.1.2a17 17 0 0 1-5.7 7.8 22 22 0 0 0-6.6 7 34 34 0 0 0-1.9 15.6q.5 11.2-1 14.5l-1 2.2-1-2a76 76 0 0 1-6.9-16.8q-1.2-5.7-1.1-8.7.4-4.2 3-9l1.3-2a52 52 0 0 0 7.9-18.3c1.3-9.3-.7-18.2-6.4-27.8q-1.2 7.3-5 13.9-2.6 4.4-2.8 10.5 0 3.6 1 10.6l.4 2.4q1 7.5-2.5 14.8l-1 2-1-2a61 61 0 0 1-6.4-32.7 39 39 0 0 0-19-38.7 59 59 0 0 0-3 13.6c-1 11 1.3 18.5 7.4 23.8a66 66 0 0 1 16.7 29.4l.4 1.6-1.6-.2q-2.8-.2-6.6-2.7-7.4-4.9-13.2-16c-5.4-10-13.8-14.1-26.6-12.5q1.1 6 4.8 12.6a38 38 0 0 0 26 18.4q4.5.6 9.8 3 10.3 4.9 12.7 14 3 9.4 4.3 14.4l.6 2.3-2.1-.8q-1.5-.7-3.8-2.3-4.4-3.3-7.9-8.4l-1-1.6q-3.3-4.7-5.7-5.8a59 59 0 0 0-15.2-2 20 20 0 0 1-8.6-2.7q1.9 5 4.8 9.7c5.8 9 12 13 19.9 12.8q4.7-.5 10.7 1.8c8 3.5 13.9 10 18.3 20.5l1.4 3.4-3-2-4.7-3q-7.4-5.1-21.5-3-10.4 1.5-17.6.1 3 4.3 7.2 8c7.4 6.4 14.1 8 21.7 5 8.3-3.3 15.1-1.1 21.8 6.7a49 49 0 0 1 7.5 13.8v.1l1.6 4-3.3-2.6a79 79 0 0 1-6-5.5c-5.2-5-12-6-21.8-2.7a34 34 0 0 1-16.7 2q2 3 5.5 5.6a28 28 0 0 0 22.2 5.6c9.5-1.3 16.5 1.1 22.3 7.4q4.1 4.8 5.6 9.9l.8 2.8-2.5-1.5-4.9-3.6a15 15 0 0 0-6.6-2.7q-7-1.2-16.8 1.7a36 36 0 0 1-18 1.5l3.9 4.3a31 31 0 0 0 17.8 9q8.9-.3 12.5-1.6 5-1.7 10-1c5.2 1 9 3.7 12.5 8.7l1 1.5-1.7.3q-2.3.3-5.5-1.3-2.7-.9-6.1-1.2a17 17 0 0 0-12 3.7 25 25 0 0 1-15 6.8q2.6 1.5 6.2 2.8c8 2.4 15.8 1.5 24.6-2.8a17 17 0 0 1 4.6-2.2c3.9-1 6.6-.5 9.4 1.5q2.8 2.3 9.7-.1 3.4-1.2 6.1-2.8"/><path fill="#f4c53d" d="M434.5 276.2c0-.5-2.4-22.5 15.3-22.8a63 63 0 0 1 27.8 6l8.3 18-2.8 10.9-11.6 3.6c0-.5 2-16.4-13.5-19.8-4-.5-6.2.5-12.5-1.3-6.4-1.5-9.5 4.2-11 5.4"/><path fill="#010002" d="M433.4 276.2q-.5-6 1-12c2.5-8.3 7.2-12 15.3-12a82 82 0 0 1 21.2 3.2q4.7 1.5 7.2 3l.3.2 8.8 18.9-3.1 11.8-14 4.3.3-2q.4-4-1-8.4a14 14 0 0 0-11.4-9.9l-3.9-.2q-4.7 0-8.8-1.2c-3-.7-5.4.4-8.6 4l-1.5 1.4-1.6 1zm2.1-2.8c3.6-3.6 6.6-4.7 10.2-3.8q3.7 1 8 1.1 2.8 0 4.3.2a17 17 0 0 1 13.7 12q1 3.7 1.1 7.3l9.3-3 2.6-9.8-8-17.3q-2.1-1-6.2-2.4-9-2.7-20.5-3c-7 0-11.2 3.2-13.4 10.5q-1 4-1.1 8.2"/><path fill="#f4c53d" d="M559.9 351.8c-3.1 2.8-12.9 2.7-13.3 2.7.1.1 10.7 10.3 15.6 23.2 3.8 13-126-19-126.5-19 0-.1 5.4-3.4 9.5-10.7-.3 0-5.4 1.2-11.6-5.4.2.1 4 2 10-5.9.1-.1 8.4-9.5 14.4-11.8-.2 0-2.6 1-9.4-3.4.3 0 11 .2 15.5-19 0-.1.8-4.2 5-10 4.5-5.6 3.2 1.4 11.4-7 .2-.3 3.2-6 .4-11-3.3-4.7-6.4-4-13.2-8.9-6.8-5.2-9.5-7.7-7.4-13.8 2.8-5.8 7.8-4.2 9-4 .7-.2 1.5-4.9 8.6-7.9 7.7-2.4 26.2 2 29.5 4 3 2.2 14.3 7.5 21.4 26.2 6.7 18.8-1.7 24 16.8 53.5-.2 0-7.3.3-12.2-1.7a89 89 0 0 0 26.5 29.8"/><path fill="#010002" d="M560.8 352.6c-2 2-5.4 3-11.4 3.2q2 2.1 4.1 4.8a63 63 0 0 1 9.8 16.8q.8 2.1-1 3.3-1.1.8-3.8 1.1-4.6.6-14-.3-15.5-1.6-43.8-7.3l-65.1-14.4-3.1-.7 2.5-1.5q4.6-2.9 8-8.3l-1.5-.3q-4.8-1.2-8.7-5.6l-3.5-4.1 4.7 2.3q.6.3 2 0 3.3-1 6.7-5.7 6.1-7.1 11-10.3-2.5-1-5.6-3.1l-3.2-2.3 3.6.1q2.4 0 5.6-2.1 6.3-4.6 8.9-16.1.8-4.6 5.2-10.5 2.3-2.9 4.8-2.8c1.8 0 3.7-1.1 6.5-4q.8-1.5 1.3-3.5c.5-2.7.3-4.5-.8-6.3a14 14 0 0 0-5.5-4.1 44 44 0 0 1-14.8-11.3c-1.5-2.6-1.6-5-.5-8.4 1.8-4.1 4.6-5.5 9.7-4.6l.2-.4c2-3.7 4.5-6 8.3-7.4q5.1-1.8 17 .2a42 42 0 0 1 15 4.9 51 51 0 0 1 20.5 26 72 72 0 0 1 3.4 17.1q.9 8.9 2.5 14.4 3 9.3 10.7 21.7l1 1.6-1.7.1a32 32 0 0 1-10-.8q2.1 3.8 5.4 8.1 9 12 19.2 18.6l1.3.9zM458 326.2q-5.4 2.2-13.4 11.4c-2.7 3.5-5 5.4-7.7 6.2l-.4.2q2.4 2 5.2 2.7 2 .4 3.1.1l2.8-.6-1.3 2.5q-3.3 5.9-7.7 9.5l62.2 13.7q28.2 5.6 43.6 7.2 9 .9 13.5.4 2.1-.3 3-.9.4-.3.3-.6a61 61 0 0 0-15.3-22.6l-2.2-2.1h2.8q8.4.2 11.4-1.5a81 81 0 0 1-18.5-18.4 85 85 0 0 1-7-11l-1.5-2.8 2.8 1.3q3.9 1.7 9.9 1.6-7.1-11.6-10-20.7-1.7-5.9-2.6-14.9-.9-9.8-3.3-16.5a48 48 0 0 0-20.8-25.5 42 42 0 0 0-12.6-3.5 36 36 0 0 0-15.9-.3 13 13 0 0 0-7.2 6.4q-1 1.7-1.9 1.5h-.3c-4.1-.7-6.2.2-7.6 3.4q-1.3 3.6.2 6 1.3 2.2 6.7 6.3 2.9 2 6.9 4 4.6 2.2 6.7 5.1c1.5 2.5 1.8 5 1.1 8.4q-.5 2.4-1.5 4v.2h-.1q-4.8 5.1-8.3 4.8-1.4 0-3 2a25 25 0 0 0-4.9 9.6c-1.8 8.5-5 14-9.6 17.4q-2 1.5-3.8 2 2.2 1.2 4 1.5.9.2 1.4.1h.3l1 2.2z"/><path fill="#010002" d="M478.6 266c-7-1.7-10.5-5-11.4-10.9q-.5-4.1 1-7.9l2.2 1.3q-1.2 3.2-1 6.7c.8 4.6 3.5 7 9.3 8.4z"/><path fill="#f4c53d" d="M505 270.9c-.1 0-2.6-1.8-5-5.1-3.5-5-9.9-7.8-14-4.6-.3.2-3.8 3.5-7.3 3.6 0 0 3.7 1.9 6.5 4.7 2.8 3 5.4 5 9.5 5.3 4-.1 4.6-1.8 6.4-3 2-1 3.8-1 3.9-1"/><path fill="#010002" d="m505.4 269.9 3.7 2.3-4-.1q-1.7 0-3.3.8l-1.3 1a9 9 0 0 1-5.7 2.1q-5.2-.2-10.4-5.7a21 21 0 0 0-6-4.4l-6-2.8 6.2.5q2.9 0 6.5-3.3c2.4-1.9 4.7-2.2 8.3-1 3.3 1.3 5.5 3 7.5 5.9a17 17 0 0 0 4.5 4.7m-3.3.1q-1.5-1.5-3-3.7a13 13 0 0 0-6.1-4.8c-2.8-.9-4.5-.7-6.2.7a16 16 0 0 1-4.7 3.3q2.1 1.4 3.9 3.3 4.3 4.6 8.5 4.8 2.4 0 4.3-1.7l1.7-1.2z"/><path fill="#f4c53d" d="M603.4 505.9c.3.3 13.6 13 26 3 .1.3 4.5 6 14.2 5.7 9.6-1 11.1-5.6 12.1-8.7.3.3 8 5.3 15.3 2.3 6.8-3.8 7-9 7-9.3.4.1 11.5 3 18.3-4.8 6-8.6 2.5-16.3-1-17.9.6.2 12.6 4 16.8-7.3 2.6-9.9-3.5-14.7-3.8-15 .4 0 27 .5 39-8.4.4-.3 8.7-5.8 3.8-12.5.4-.1 24.2-4.8 31-15.4.2-.2 2.5-2.8 1.9-7.8 0-.3-.2-2.5-3-2.8.5-.1 27.8-6.6 36.7-17.3.2-.3 3.5-4.6 2-10.5 0 0-.5-1.5-1.2-2.5.3-.1 25.4-9 38.6-23.3.3-.4 6.9-7.9 3.6-16.4.3-.2 42.6-21.4 33.1-39.3.4-.2 19.6-12 13.8-29.2.4-.3 16-13.3 9.4-25.3-7.3-10.5-28.1 10.7-53.7 23.3-1.2.7-68 32.3-102.3 39.4l-96 143.5q-27.5 8.4-56 16.3z"/><path fill="#010002" d="m602.1 506.2 6-41.5q27.6-7.4 56.2-16.4l96-143.5h.5c14-3 35.3-9.2 63.7-21.2q21.3-9.1 38.5-18.1 7.6-3.7 21.4-12.5 14.7-9.5 20.3-12.1c6.7-2.8 10.6-2.4 13.3 1.4 3.2 5.4 2.6 11-2 18.4q-3.2 4.5-7 8c2.3 7.3.7 14-5.1 21.4a41 41 0 0 1-8.5 7.9c3.3 7.6-1 16.3-13.9 27q-9 7.3-19.3 12.4c1.1 3.6.9 7-.9 11.2q-1.5 3.3-3.4 5.5a85 85 0 0 1-24.5 17.5q-7.2 3.6-13.2 5.7l.5 1.4q1.3 3.9-.3 8.2-.8 2-1.9 3.5-5.4 6.9-21.9 13.2-6.5 2.4-12.2 3.8l.2.3q.5.9.5 1.8c.6 3.8 0 6.3-2 8.7-3 4.7-8.9 8.7-18.5 12.2q-6 2.2-11.5 3.4c1.4 2.8 1.2 5.2-1 8.5q-1.7 2.4-4.2 4.1-7.4 5.8-24.2 8-6.9.7-12.7.7.8 1 1.3 2.2c1.9 3.8 2.2 7.5.9 12-1.9 5.4-5 8-10.6 8.8h-3.4q.9 1.8 1.4 4.3a15.8 15.8 0 0 1-15.7 18.3q-3.2.2-6-.3-.2 1.1-.8 2.5a14 14 0 0 1-6.6 6.4 15 15 0 0 1-11 .2l-4.1-1.8q-1.1 2.6-2.6 4.2a16 16 0 0 1-10 3.9 19 19 0 0 1-14.5-5.2c-5.3 4-10.8 4.6-17.7 1.8a31 31 0 0 1-9-5.7zm93.6-31q3 .8 6.5.5c4.6-.6 7.2-2.8 8.8-7.1 1-4 .9-7-.7-10.3q-1.2-2.2-2.7-3.5l-2.9-2.2 3.6.1q6.8.3 15-.7 16.4-2.1 23.3-7.5a15 15 0 0 0 3.7-3.6c1.8-2.8 1.8-4.7-.1-7.1l-1.4-1.6 2-.4q6.3-1.2 13.1-3.6 13.6-5 17.3-11.2v-.1l.1-.1c1.6-1.8 2-3.8 1.5-6.8v-.1q0-1.7-1.8-1.7v-2.4q6.9-1.5 15-4.5 15.9-6 20.8-12.3.8-1 1.5-2.8 1.2-3.4.2-6.5v-.1q-.4-1.3-1-2.1l-.9-1.4 1.7-.6q6.3-2.1 14.4-6a82 82 0 0 0 23.6-16.9q1.6-1.8 3-4.7c1.6-3.9 1.7-7 .3-10.3l-.5-1.1 1.3-.6a105 105 0 0 0 20-12.8c12.2-10 16-18 12.4-24.5l-.7-1.1 1.4-.8q4.7-2.9 8.8-7.9c5.3-6.7 6.6-12.8 4.2-19.6l-.3-.9.9-.7q4-3.3 7-7.9c4-6.3 4.6-11 1.9-15.6-2.2-3-5.3-3.3-11-1q-5.3 2.5-19.7 11.9-14 8.9-21.7 12.6-17 9-38.5 18.2a357 357 0 0 1-63.4 21.2l-96 143.4q-27.3 8.5-55.6 16.2l-5.5 39q3.3 2.8 7.6 4.6c6.5 2.5 11.5 1.9 16.3-2.2l.9-.8.8 1a13 13 0 0 0 3.2 2.9q4.5 2.6 10 2.3 5.9-.5 8.7-3.3 1.5-1.5 2.5-4.6l.4-1.4 1.3.8q1.9 1.4 4.7 2.3c3.8 1.2 6.6 1.1 9.4 0a12 12 0 0 0 5.6-5.5q.8-1.6.8-2.9v-1.4l1.4.4q2.8.7 6.5.6c4.8-.4 8-2 10.7-5.1 2.6-3.6 3.4-6.8 2.9-10.6q-.9-4.4-3.2-5.3z"/><path fill="#f4c53d" d="M602.7 398c.2-.1 8.7-5.5 25 4.2.4.3 5 4 9.7.7 3.5-3.5 3.8-9.2-1-13.7-12-10.9-16.3-37.6 1.8-47.5 0 0 8.6-4 34.2-11.4 19.1-5.5 47.6-12.5 89-24.5.1 0 8-2.3 12.4-1.7 4.9 1.3 7.8 4.8 8.7 8.5.1.3 4.2 12-10.2 20.4 0 0-6.6 3.3-13.4 5.5.4 0 7-1.6 10.7 5.6 2.8 7.2-1.3 14.4-15 19.7 0 0-3.8 1.5-9 3 .5.1 11 3 6 13 0 .2-4.9 10-22.6 12 .4 0 12.6 1.3 3.9 14.3-.2.2-4.1 6.8-17 9.4.5 0 9 .4 4.8 9.4-5.2 9-16.3 13.5-28 13.8 0 0-6-.1-10.4-1.3.4.3 10.2 5.9 4.4 15.2-.1.2-4.5 6-16.4 5.2 0 .4 2.8 10-5.6 14-7 2-12-2.8-12.3-3 0 .4 2.1 10.8-7.5 14.4-.2 0-4.7 1.9-12.2-1.3-.1.3-5.4 11.9-25.3.9-19.6-12.2-4.8-84.2-4.7-84.8"/><path fill="#010002" d="M602 397q2.5-1.5 7-1.8 8.9-.3 19.2 6h.1v.1q1.3.9 2.9 1.5 3.1 1 5.4-.9a7 7 0 0 0 2.3-5.5 9 9 0 0 0-3.2-6.4 32 32 0 0 1-7.7-11q-3-6.8-3.2-14-.2-7.8 2.7-14a23 23 0 0 1 10-10.4q6.8-3.2 25.6-8.9c25-7.4 57.6-15.3 98-27q8.4-2.6 13-1.8a13 13 0 0 1 6.4 3.6q2.5 2.7 3.1 5.7 1.2 3.5.4 7.7-1.6 8.8-11.2 14.1l-8.1 3.7q3.9 1.5 6 5.8a12 12 0 0 1-1.5 11.9q-4 5.7-14.2 9.5l-5.8 2 2.3 1.8c3.4 3.4 3.7 6.8 1.2 11.6q-1.4 2.7-5 5.8a33 33 0 0 1-13.8 6.2l1.3 1c3.3 3.3 2.9 7.4-1.4 13.5q-1.1 2-4 4-3.9 3.2-9.4 4.8l.4.3c3 2.3 3.3 5 1 9.6q-3.9 6.7-12.1 10.7a43 43 0 0 1-23 3.3l1.1 1.5c2.8 4.3 2.8 8-.1 12.3q-1.4 1.8-4.2 3.4a23 23 0 0 1-11.8 2.4q.4 2.2.2 4.6c-.7 4.7-2.6 7.4-6.7 9.1-3.3 1.1-6.1 1-9.6-.5l-1.8-1q0 1.8-.3 4a11 11 0 0 1-8.1 9q-1.5.6-3.7.7a21 21 0 0 1-8.4-1.6 12 12 0 0 1-5.3 4.3c-5.7 2.2-12.3 1-21.1-3.9-8.7-5.3-12.2-20.8-10.5-48a287 287 0 0 1 5.2-38.2v-.4zm1.7 1.8q-3.5 18-5 37.5c-1.6 26 1.4 40.7 9.1 45.5 8.1 4.5 14.1 5.6 19.1 3.7a9 9 0 0 0 4.8-4.2l.4-1 1 .6a19 19 0 0 0 8.3 1.7q2 0 3-.5a10 10 0 0 0 6.8-7.6q.6-3 0-5.6l-.6-3.4 2.6 2.5q1.2 1.2 3.2 2.1c2.9 1.2 5.2 1.4 7.8.5 3.3-1.4 4.8-3.5 5.4-7.3q.2-2.9-.4-5.3l-.5-1.6 1.6.2a21 21 0 0 0 12-2q2.4-1.4 3.5-2.7c2.3-3.5 2.3-6.2.2-9.6a15 15 0 0 0-4.3-3.8l.8-2.2a40 40 0 0 0 26.2-2.3q7.5-3.7 11-9.7c1.7-3.2 1.6-5-.2-6.5q-1.5-1-3.7-1.2l-.2-2.3a30 30 0 0 0 12.9-5.3q2.4-2 3.3-3.5l.1-.1c3.5-5 4-8 1.7-10.4a9 9 0 0 0-4.8-2v-2.4c7.3-.8 12.8-2.8 17.4-6.4q3.3-2.6 4.4-5c2-3.8 1.8-6.1-.7-8.7q-2-1.7-4.6-2.6l-4.2-1.2 4.2-1a72 72 0 0 0 8.8-3 28 28 0 0 0 13.3-8.7c2-3.2 2.4-6 1.1-9.4q-1.8-4-5.7-4.9a9 9 0 0 0-3.6 0l-.6-2.3a93 93 0 0 0 13.2-5.5c5.8-3.2 8.8-7 10-12.2a14 14 0 0 0-.4-6.6v-.2a10 10 0 0 0-2.6-4.6 11 11 0 0 0-5.3-3q-4-.8-11.8 1.6c-40.3 11.8-73 19.7-97.8 27.1a195 195 0 0 0-25.1 8.8c-8.2 4.4-11.9 11.4-11.7 22.3q.3 6.8 3 13.2 2.8 6.2 7 10c2.6 2.5 3.8 4.9 4 8.2 0 3.2-.8 5.3-3 7.3-2.2 1.8-4.3 2.2-7.4 1.3q-2-.7-3.6-2-9.6-5.8-17.7-5.5-3.7.2-5.7 1.2"/><path fill="#010002" d="M908.2 269.4a192 192 0 0 1-27.9 19A383 383 0 0 1 780 328l-.4-2.3a383 383 0 0 0 100-39.5 191 191 0 0 0 27.5-18.7z"/><path fill="#f4c53d" d="M352.2 572.7c-.2.4-11.4 18.6-25.5 18.5-.5-.1-23.4-4.3-30.8 1.6-4.8 4.3-9.4 7.8-11.5 19.2-1.6 11.5 3.5 14 5.1 14.6.1.5 1 7.5 9 6.4 0 .4.4 8 14.4 5.2 14.1-3.2 19.5-1.5 22.5-15.4 2.8-14 5.1-13.6 7.7-15.1 3.4-1.9 9.6-3.6 14.3-5.9 4.3-2 20-8.4 25.6-8.6 5.4-1 4.3-18.3 4.2-19l-14-1.6-6.9-11z"/><path fill="#010002" d="m351.3 571.8 15.2-12 7.3 11.7 14.5 1.7.1 1a76 76 0 0 1 0 9.7c-.8 7.2-2.3 10.2-5.3 10.5a52 52 0 0 0-13 3.5q-7.4 2.7-12.2 5-2.3 1.1-7.3 3a54 54 0 0 0-7.8 3.4 7 7 0 0 0-3 2.6 44 44 0 0 0-3.3 11.2c-1.2 5.7-3 9.2-5.8 11.4q-2.7 2-11.1 3.5l-6.4 1.3c-6.4 1.4-10.5 1-13.5-1.6q-1.5-1.4-2.1-3.3c-3.4.2-5.5-.7-7.5-3.3q-1.2-1.8-1.6-3.7a10 10 0 0 1-3.7-3.4c-1.9-3.1-2.4-6.9-1.5-12.2q1.3-7.3 4.4-12 2-2.9 6.3-7l1.1-1c3.3-2.6 9.2-3.8 18.8-3.4q6.8.4 12.9 1.6c5.6 0 11-2.6 17-8.7q4.5-4.7 7.4-9.3zm1.8 1.8q-3 4.8-7.6 9.5-9.5 9.6-18.8 9.2h-.1q-6-1.1-12.7-1.5c-9-.4-14.4.6-17.2 2.9l-1.1 1a41 41 0 0 0-6 6.4q-2.8 4.4-4 11.2c-1.2 7.4.1 11.3 4.3 13.2l.7.3v.7q.4 1.7 1.4 3.3 2 3 6.2 2l1.4-.3v1.5q.2 1.6 1.6 3c2.4 1.9 5.8 2.2 11.4 1l6.4-1.3q8-1.5 10.3-3.2 3.3-2.5 5-10 1.6-8.4 3.5-12 1.4-2 3.8-3.4l.8-.4q2-1.2 7.3-3.1l7-2.8q4.9-2.4 12.5-5.2A52 52 0 0 1 383 592c1.7-.3 2.5-2.6 3.1-8.5q.3-4.2.1-8.2l-13.6-1.6-6.4-10.4zm541-274.8q-21 12.6-47 24.7c-34.6 15.8-60.2 23-76.6 25.1l-.2-2.3c16.3-2.2 41.7-9.2 76.2-25q26-12 47-24.6zM861 338q-12.5 6.6-32 14.6a407 407 0 0 1-75.4 22.4l-.3-2.3a408 408 0 0 0 107-36.8zm-42.2 39.8q-14 5.1-31.3 10.1a288 288 0 0 1-51.3 10.5l-.2-2.4c11-1 28-4 51-10.4a451 451 0 0 0 31.2-10zm-37.5 30.3a380 380 0 0 1-59.2 12.4l-.3-2.4c8-.7 27.7-3.8 59-12.3z"/><path fill="#0081c6" d="m728 481.6 2.3 76.8-13.2-8.1-22 96.4-9-7.2 21.3-92.2-14.9-.4z"/><path fill="#010002" d="m729.1 481.6 2.5 78.9-13.7-8.4-22 96.7-11.2-8.9 21.3-91.4-15.5-.5 38.5-70.7zM727 486l-32.4 59.8 14.4.4-21.6 92.9 7 5.6 22-96.3 12.8 7.9zm24.3-51.9c-23 4-39.1 5-48.3 4.4v-2.4c9.1.6 25-.4 48-4.3zm-43 21q-14-1.2-20.7-2.8l.4-2.3q6.6 1.6 20.4 2.7zm-13.1 22.3q-12-4-19.2-9.2l1.3-2a70 70 0 0 0 18.5 9zM677.5 500a32 32 0 0 1-14.1-15.1l2-.8a30 30 0 0 0 13 13.8zm-22.6 6.7a37 37 0 0 1-3.7-4.6 23 23 0 0 1-4.2-10.6l2.3.1q.4 4.1 3.7 9.2 1.8 2.7 3.5 4.3z"/><path fill="#0081c6" d="m813.5 511.9-31.3 71.6-8.3-13.2-66 80.2-7.2-8.5 65.8-78.6-13.3-7c20-13.8 39.8-28.4 60.3-44.5"/><path fill="#010002" d="M814.5 512.3 782.3 586l-8.5-13.7-65.9 80-8.7-10.4 65.5-78-13.7-7.3c21.5-15 43-30.8 65.3-48.3zm-3.8 3.2a1280 1280 0 0 1-55.2 40.8l12.8 6.7-66 79 5.5 6.7c22-25.7 43.8-52 66.3-80.4l8 12.7zM628.5 508q.4-.4.8-1.8.8-3.4-.3-9.6l2.3-.1q1 6.7.2 10.5-.5 2.2-1.4 3z"/><path fill="#0081c6" d="m785 463.8-16.2 75.6-10.9-11-59 115.8-9.2-6 59.5-114.8-14.5-3.8z"/><path fill="#010002" d="m786 464-16.5 77.7-11.3-11.3-59 115.4-11-7.2 59.3-114.4-15-4 54.5-60.5zm-3 3.8L737 519l14 3.7L691.1 638l7.1 4.6 59.4-116 10.5 10.5zm-151.3 13.5q1-2.4.8-6.8h2.3q.4 5-1 8z"/><path fill="#f4c53d" d="M396.6 475.9c-.3.2-13.6 9.6-26-3.1-.1.2-4.5 5-14.2 2.7-9.6-3-11.1-7.7-12.1-11a17 17 0 0 1-15.2-.2c-7-4.8-7-10-7-10.3-.4 0-11.7 1.4-18.4-7-6-9.2-2.5-16.6 1-17.8-.5.1-12.6 2.7-16.8-8.7-2.6-10.2 3.6-14.6 3.8-14.8-.1 0-27.4-1.1-39-9.5-.4-.3-8.7-5.5-3.7-12.4-.4 0-24.5-3.6-31.1-13-.2-.2-2.5-2.5-1.9-7.7 0-.2.2-2.5 3-3-.3-.1-28.2-2.8-36.6-11-.3-.2-3.6-3.6-2-10 0 0 .4-1.6 1-2.7 0 0-25.7-2.4-38.5-11.5-.3-.2-7-5-3.6-15-.8 0-42-2.3-33.1-24-.5 0-19.5-1-13.8-21.4-.5-.1-16-3.4-9.4-19.6 7.3-15.2 28-6.6 53.7-4.4L156 243c22.9 3.3 60.6 10.9 83 14.2l96 149.2 56 27.8z"/><path fill="#010002" d="M397.4 476.9a23 23 0 0 1-9 3.5c-6.9 1-12.4-.8-17.7-6q-1.2 1-3 1.9a18 18 0 0 1-11.5.3 20 20 0 0 1-10-5.7q-1.5-1.9-2.6-4.7-1.8.6-4 1c-4.4.7-7.8 0-11.1-1.9a18 18 0 0 1-6.6-7.4l-.9-2.6q-2.6.1-6-.4a19 19 0 0 1-12.2-7.3 17 17 0 0 1-3.4-12.8q.5-2.5 1.5-4l-3.5-.4a13 13 0 0 1-10.6-9.6 16 16 0 0 1 2.2-14q-5.9-.5-12.7-1.5a57 57 0 0 1-24.2-8.1 17 17 0 0 1-4.3-4c-2.1-3.3-2.3-5.6-.9-8.5q-5.5-1-11.5-2.8-14.2-4.1-18.5-10.4c-2-2.2-2.6-4.6-2-8.4q0-1 .5-1.9l.2-.4q-5.8-.6-12.2-2c-11.2-2.3-18.2-5-22-8.8q-1-1-1.8-3a12 12 0 0 1-.3-8.1l.5-1.5q-6-.7-13.2-2.2-16.4-3.5-24.5-9.2-2-1.5-3.4-4.2a14 14 0 0 1-.9-10.8q-10.2-1-19.4-4c-12.8-4.4-17.2-10.4-13.8-20q-4.5-.6-8.5-3c-5.8-4.1-7.4-9.8-5.1-18.6q-3.8-1.1-7-3.7c-4.6-4.4-5.3-9.5-2-17 2.6-5.5 6.7-8.5 13.3-9.6q5.7-.8 20.3 1.3 13.8 2.2 21.4 3a968 968 0 0 1 38.5 5.4c28.5 4.6 49.7 9.1 63.7 11.2h.5l96 149.4 56.3 28.1 5.9 43zm-92.5-46.5q-2.3.6-3.2 5c-.5 3.7.4 7 3 10.9q3.6 4.9 10.7 6.2 3.5.7 6.5.3l1.3-.2v1.5q0 1.2.8 3a15 15 0 0 0 5.6 6.2c2.8 1.6 5.6 2.1 9.4 1.6q2.8-.4 4.7-1.5l1.3-.6.4 1.5q1 3.2 2.5 5.1a18 18 0 0 0 8.7 5q5.5 1.4 10-.4a10 10 0 0 0 3.2-2l.8-1 .9 1a17 17 0 0 0 16.3 6q4.4-.7 7.6-2.8l-5.5-40.2-55.7-27.7-95.9-149c-14-2.1-35.2-6.6-63.4-11.2q-21.4-3.4-38.5-5.3-7.8-.7-21.7-3a82 82 0 0 0-19.7-1.2c-5.6 1-8.8 3.2-11 7.6-2.7 6.3-2.2 10.6 1.8 14.4a17 17 0 0 0 7.1 3.6l1 .3-.4 1c-2.4 8.3-1.1 13.5 4.2 17.2q4.1 2.6 8.8 3l1.4.1-.7 1.4c-3.7 8.7.2 14.2 12.4 18.5q9.5 3 20 4l1.3.1-.5 1.4a12 12 0 0 0 .3 10.1 11 11 0 0 0 3 3.6q7.8 5.6 23.6 9 8.1 1.5 14.4 2.3l1.7.1-1 1.6-1 2.4q-.9 3.5.3 6.5.7 1.5 1.5 2.5 5 5 20.8 8.2a163 163 0 0 0 15 2.3v2.4q-1.7.2-1.8 2c-.5 3.1 0 5 1.5 6.6v.1l.1.1c2.7 3.9 8.1 6.9 17.3 9.7q7 2 13 3l2.1.2-1.4 1.7c-1.9 2.4-2 4.3-.1 7q1.5 2.2 3.7 3.6 7 5.2 23.2 7.7 8.3 1.3 15.1 1.6l3.6.2-2.9 2q-1.5 1.1-2.7 3.3a13 13 0 0 0-.7 10.2c1.6 4.5 4.2 6.8 8.8 7.8q3.4.8 6.5 0zM683 342q-3.9 1.5-8.5 3.7-9 4.8-12.2 9.8a19 19 0 0 0-2.5 11.5q.4 3.7 2.4 9.7l.2.6.4 1c7.2 17.9 6.7 31-1.6 40.8l-1.8-1.7c7.7-9 8.1-21.4 1.3-38.4l-.4-1-.2-.6a49 49 0 0 1-2.6-10.3c-.4-5 .5-9 2.8-13a34 34 0 0 1 13-10.5q4.8-2.4 8.8-3.9z"/><path fill="#f4c53d" d="M397.3 368.2c-.2-.2-8.8-7.8-25-1.8-.4.2-5 2.9-9.7-1.4-3.5-4.2-3.8-9.9 1-13.5 12-8.2 16.4-34.1-1.8-47.8-8.7-6.2-18.6-10.5-28.4-15a490 490 0 0 0-94.8-31.6c-.2 0-7.9-1.8-12.4-.7a14 14 0 0 0-8.7 9.4c-.2.5-4.1 12.3 10.2 19.3 0 0 6.6 2.7 13.4 4.6-.4 0-7-1.3-10.7 6.2-2.8 7.6 1.3 14.2 15 18.9 0 0 3.8 1.3 9 2.6-.5.2-11 3.4-6 13.2.1.3 4.9 9.5 22.6 12-.4 0-12.6 1-3.9 14.2.2.2 4.1 6.7 17 10-.4 0-9-.1-4.8 9.2 5.2 9.1 16.3 14.4 28 16 0 0 6 .5 10.4 0-.4.1-10.2 4.5-4.4 14.5.1.3 4.6 6.5 16.4 7.5 0 .4-2.8 9.6 5.6 14.8 7 3.2 12-.6 12.3-.8 0 .4-2 10.4 7.5 15.8.2.1 4.7 2.8 12.2 1.3.1.3 5.4 12.8 25.3 6.7 19.6-7.4 4.8-83 4.7-83.6"/><path fill="#010002" d="m398 367.3.4.3v.5a318 318 0 0 1 5.2 39.6c1.7 27.5-1.7 42-10.5 45.2-8.8 2.8-15.4 2.5-21-1a16 16 0 0 1-5.4-5.5q-4.4.8-8.4-.1-2.2-.7-3.7-1.5c-4.5-2.4-7-5.6-8-10.6q-.4-2-.4-4l-1.8.7a13 13 0 0 1-16.3-11.2q-.1-2.5.2-4.7-6.7-.7-11.8-4-2.8-1.9-4.2-3.8c-3-4.8-3-8.5-.1-12.4l1.2-1.3q-3 0-6.2-.4a50 50 0 0 1-16.9-5.2 30 30 0 0 1-12-11.4c-2.4-4.7-2-7.3 1-9.6l.3-.2q-5.5-2-9.5-5a18 18 0 0 1-4-4.3c-4.2-6.1-4.6-10.1-1.3-13.5l1.3-1q-8.2-1.8-13.8-6.1-3.5-3-5-5.6c-2.5-4.8-2.2-8.1 1.2-11.6l2.3-1.9-5.7-1.8q-10.3-3.3-14.3-8.7c-2.7-3.8-3-7.2-1.4-11.7 1.4-3.2 3.2-5 6-6.3q-4.2-1.3-8.2-3c-6.5-3-10-7-11.2-12.9q-.8-4.2.4-7.7a15 15 0 0 1 9.5-10.3q4.6-1.5 13 .6a502 502 0 0 1 98 33.2q18.8 8.8 25.5 13.6a31 31 0 0 1 12.8 27.1q-.3 7.2-3.2 13.4-3 6.1-7.7 9.3c-2 1.5-3 3.1-3.2 5.7q0 3.4 2.3 6a6 6 0 0 0 5.4 2q1.6-.1 2.8-.8h.1a30 30 0 0 1 19.3-1.6q4.5 1.4 7 3.5m-1.7 1.4q-2-1.5-5.7-2.6-8.1-2.2-17.7 1.4-1.5 1-3.6 1.1c-3 .3-5.2-.5-7.5-2.8-2-2.5-3-4.8-3-8a9 9 0 0 1 4.1-7.3q4.2-2.9 7-8.5 2.7-5.9 3-12.5a28 28 0 0 0-11.7-24.9q-6.5-4.6-25-13.4a501 501 0 0 0-97.9-33 25 25 0 0 0-11.8-.7 12 12 0 0 0-5.4 3.5 11 11 0 0 0-2.5 5v.1q-.9 3-.3 6.6c1 5.1 4.1 8.5 10 11.3q6.3 2.7 13 4.5l-.5 2.3a9 9 0 0 0-3.6.3 9 9 0 0 0-5.7 5.3 9 9 0 0 0 1.1 9.3q3.8 4.8 13.2 8a85 85 0 0 0 8.9 2.6l4.2 1-4.2 1.3q-2.6.8-4.7 2.7c-2.4 2.6-2.6 5-.7 8.7q1.3 2.3 4.5 4.9a35 35 0 0 0 17.3 6.4v2.4q-2.9.4-4.7 2c-2.3 2.4-1.8 5.3 1.7 10.4v.1q1 1.5 3.4 3.6 5.1 3.9 12.9 5.8l-.2 2.4q-2.2 0-3.7 1c-1.8 1.3-1.9 3-.2 6.4q3.5 6.2 11 10.4a48 48 0 0 0 26.2 5l.8 2.2a12 12 0 0 0-4.3 3.4c-2.1 3-2 5.7.2 9.5q1 1.4 3.5 3.2 5 3.3 12 3.7h1.6l-.5 1.6q-.6 2.4-.4 5.2a10 10 0 0 0 5.4 8.1 11 11 0 0 0 11-.7l2.6-2-.7 3.3q-.5 2.5.1 5.6c1 4.2 3 6.8 6.7 8.8l.1.1q1.1.6 3 1.1 4 1 8.3 0l1-.3.4 1q1.3 3 4.8 5.3c5 3 11 3.3 19 .7 7.8-2.8 10.8-16.6 9.1-43a313 313 0 0 0-5-38.9m285.2 69.5.3.3-.6-.3-4.9-2 .7-2.1q6 2.3 6.2 2.6zm34.7-21.6a92 92 0 0 1-19 1.3v-2.3a91 91 0 0 0 18.5-1.3zm13-23.7q-11.2 1-21.8.5V391q10.5.5 21.6-.4zm16.7-25a131 131 0 0 1-25 3.3v-2.4q8.6 0 24.6-3.2zm13.5-28.2a196 196 0 0 1-34.8 8l-.3-2.4q14.6-1.7 34.4-7.9zm-67 16.7q3.8 4 5.4 9.2c1.8 7.2-.5 12.8-7.5 18q1.4 3 1.4 7c-.1 6.4-3 11.6-9.3 16.6l-1.5-2c5.7-4.5 8.4-9.1 8.5-14.7q0-4-1.6-6.7l-.6-1 1-.5c6.7-4.8 9-9.8 7.4-16.2q-1.4-4.7-4.7-8z"/><path fill="#f4c53d" d="M398.5 484.3c0 .3-3 15.2-26 33-.2.2-17.3 14-17.3 32.8.4 18.9-3 20.6-10.1 26.3.3.1 14 2.3 21.4-6.5 0 .4-.6 15.7-2.5 17.6.2 0 4.3.6 11.1-5.9 0 0 4-3.6 7.6-5 0 .2-4 10.6-1 21.7.2-.3 1.1-3.6 6.8-5.1.2 0 9.7-1 14-15.4.1-.2 2.7-9.4 18.6-16.4.5-.1 17.3-4.4 17.6-13.6-1-9.5-40-63.3-40.2-63.5"/><path fill="#010002" d="m397.4 484 .4-2.4 1.6 2q10 13.6 20 28.3 20 30 20.4 36c0 4.4-2.7 7.8-9.1 11.2q-4.4 2.3-9.2 3.5a38 38 0 0 0-14.7 10.3 17 17 0 0 0-3.1 5.3 24 24 0 0 1-9 13.7q-3.1 2.1-6 2.5a9 9 0 0 0-4.8 2.6l-1 1.7-1 3.8-1.2-4a36 36 0 0 1 0-19.6q-2.2 1.3-4.7 3.6-4.4 4.3-8.4 5.7-2.2.6-3.6.4l-3.4-.5 2.8-1.7c.9-.8 1.5-4.8 1.8-13.4a22 22 0 0 1-11.8 4.7q-4.6.4-8.4 0l-2.7-.5 2-1.7 1.2-1q5.2-4.3 6.7-7.5 2-5.1 1.9-17t8.7-24q4.5-6 9-9.7a84 84 0 0 0 21.4-22.7q3.4-6 4.2-9.6m1.6 3q-1 3.3-3.8 8a86 86 0 0 1-21.9 23.3 53 53 0 0 0-8.6 9.2c-5.7 7.8-8.4 15-8.3 22.7q.2 12.4-2.1 18-1.5 3.3-6.2 7.4l4.8-.2c5.8-.8 9.7-2.7 12.6-6.3l2.2-2.8v3.7q-.3 11.7-1.6 16l.6-.1q3.5-1.3 7.6-5.2t8-5.2l2.5-.9-1 2.6a35 35 0 0 0-1.6 18q2.1-2.4 6-3.2a12 12 0 0 0 5.1-2.1c3.9-2.8 6.5-6.7 8.2-12.6q.7-2.6 3.4-6 5.6-6.6 15.6-11h.2q4.4-1.2 8.7-3.4c5.7-3 8-5.7 8.1-9.2q-.3-5.3-20-34.6A909 909 0 0 0 399 487m287.5-74.8c.3 4-.4 7.5-2.3 11.4-4 7.2-10.6 10.4-21.4 10a17 17 0 0 1-1 8.8c-2.9 6.5-9 9.1-19.7 8.1q-1 3.6-3.7 6.6c-4.5 4.6-10.2 5.7-18.5 3.4l.4-2.2c7.4 2 12.4 1 16.3-3q2.8-2.9 3.5-6.4l.2-1 1 .2c10.1 1.1 15.8-1 18.4-6.7 1-3 1.3-5.7.6-8.9l-.4-1.5 1.5.1c10.6.7 17-2 20.7-8.7a19 19 0 0 0 2.1-10.2z"/><path fill="#f4c53d" d="M647.8 612.6c.2.4 11.5 20.9 25.5 22.8.3 0 23.6-1.1 30.8 5.3 4.8 4.7 9.4 8.5 11.5 20 1.7 11.6-3.5 13.7-5.1 14.2 0 .5-1 7.6-9 5.7 0 .3-.3 8.1-14.4 3.7-14-4.9-19.5-4.2-22.4-18.6s-5.2-14.5-7.8-16.4c-3.4-2.5-9.5-5.4-14.2-8.5a159 159 0 0 0-25.7-14.3c-5.3-2.1-4.3-19.3-4.2-20l14 1.7 7-9.6z"/><path fill="#010002" d="M648.8 612.1q3 5.2 7.4 10.7 8.9 10.5 17 11.4 6-.2 13 .2 14 1 18.7 5.4l1 1q4.5 4.5 6.4 7.4 3.2 5 4.5 12.3c.8 5.4.3 9.1-1.5 12.2a9 9 0 0 1-3.8 3.1q-.4 2-1.6 3.6c-2 2.5-4 3.3-7.4 2.7q-.5 1.8-2.2 3.1c-3 2.3-7 2.4-13.5.2l-6.4-2a37 37 0 0 1-11.1-5.2 22 22 0 0 1-5.8-12.4q-1.6-8.2-3.3-11.7a9 9 0 0 0-3-3.2l-1-.7a69 69 0 0 0-6.8-4.1q-5-2.8-7.3-4.3-4.7-3.2-12.3-7.7a69 69 0 0 0-12.9-6.4c-3-1-4.5-4.4-5.2-11.7q-.4-5 0-9.7v-1l14.6 1.6 7.2-10 15.2 15zm-1.9 1.2-13-12.9-6.4 9-13.6-1.5q-.1 4 .1 8.2c.6 6 1.5 8.6 3.2 9.3q3.7.9 13.6 6.7 7.7 4.5 12.4 7.7 2.2 1.5 7.2 4.2 5.3 3 7.2 4.4l.8.6q2.4 1.8 3.8 4.1 2 3.8 3.6 12.4c1 5.4 2.6 8.7 5 11q2.3 2 10.2 4.6l6.4 2c5.7 2 9 2 11.4.3a4 4 0 0 0 1.6-2.9v-1.4l1.4.4c3 .8 4.7.4 6.2-1.5q1.1-1.4 1.3-3.3l.1-.7.7-.2c4.2-1.6 5.5-5.5 4.4-13q-1.2-6.7-4-11.4a47 47 0 0 0-6-6.8l-1.2-1.1c-2.8-2.6-8.2-4-17.1-4.7q-6.9-.5-12.8-.2h-.1c-6.3-.8-12.3-4.7-18.8-12.4q-4.5-5.5-7.6-10.9"/><path fill="#f4c53d" d="M601.5 513.9s3 16.3 26 39.2c.2.2 17.3 17.7 17.3 36.3-.3 18.8 3.1 21.3 10.2 28.3-.4 0-14-.3-21.4-10.8 0 .4.5 16 2.4 18.1-.2 0-4.3-.2-11-8.2-.1 0-4-4.5-7.7-6.8.1.2 4 11.6 1 21.9-.1-.2-1.2-3.8-6.7-6.7-.3 0-9.8-3.3-14.1-19 0-.1-2.7-10-18.6-21.2-.4-.3-17.3-9.4-17.5-18.6 1-9 39.9-52.2 40.1-52.5"/><path fill="#010002" d="M602.7 513.8q.7 3.9 4.2 10.7 7.1 13.7 21.3 27.8 4.5 4.5 9 11.5a47 47 0 0 1 8.7 25.8q-.1 11.9 2 17.3 1.4 3.6 6.6 8.8l1.2 1.2 2 2H655a33 33 0 0 1-8.4-1.5q-7.3-2.4-11.8-7c.3 8.5 1 12.7 1.8 13.7l2.8 2.3-3.3-.2q-1.4 0-3.6-1.2-4.1-2.3-8.4-7.5a38 38 0 0 0-4.8-4.8l.9 4.4c.8 6 .5 10.8-.9 15.3l-1.2 3.7-1-4-1-2a12 12 0 0 0-4.8-3.8 19 19 0 0 1-6-3.9 33 33 0 0 1-9-16q-.6-2.3-3-6-5.2-7.7-14.8-14.4-4.5-2.5-9.1-6c-6.4-5.2-9.2-9.5-9.2-13.8q.4-6 20.5-30.2a727 727 0 0 1 20-23l1.5-1.7zm-1.7 2.6a771 771 0 0 0-18.5 21.3c-13.2 15.9-19.7 25.3-20 29 0 3.4 2.5 6.9 8.1 11.5q4.4 3.4 8.8 5.7l.1.1a61 61 0 0 1 15.6 15.2q2.7 4.1 3.5 6.9a30 30 0 0 0 8.1 14.6q3 2.6 5.1 3.4h.1q3.8 1.8 6 4.7a36 36 0 0 0-1.6-18.5l-1-2.7 2.5 1.4a33 33 0 0 1 8 7q4 4.9 7.6 6.9l.5.3q-1.2-4.6-1.5-16.4v-3.7l2.1 3.2a23 23 0 0 0 12.6 8.9q2.5.8 4.9 1a32 32 0 0 1-6.3-8.5q-2.3-6-2-18.4 0-11.1-8.3-24.3-4.4-6.7-8.7-11.1-14.5-14.3-21.8-28.5-2.7-5.3-4-9m59.6 116.9q4 1 12.7 1l.2 2.3q-9.1.3-13.4-1zm37.8 14c2.6-.2 4.7.7 7.2 3 4.3 4.7 6.3 12.6 6.1 24.7l-2.3-.1c.2-11.5-1.6-18.7-5.4-22.9q-2.7-2.6-5.2-2.4zm-7.5 6c2.4-.1 4.3.9 6.6 3.3 3.8 4.7 5.5 12.4 5.3 24.1l-2.3-.2c.2-11-1.3-18.2-4.7-22.4q-2.4-2.6-4.6-2.5z"/><path fill="#010002" d="M581.3 576.6c4 1.5 7 3.8 9.9 7.3q2.1 2.6 6.3 3.9l1.4.3a26 26 0 0 1-4-10.6q-.9-4.9-3.1-8.3-1.1-1.5-2-2.2l1-2q1.4 1 2.8 3 2.7 4 3.6 9.4.9 5 3 8.7 1.1 1.8 2 2.7l2 2h-2.7q-1.9 0-4.4-.7-5-1.5-7.6-4.9-3.6-4.4-8.7-6.3zm22.3-17.7c4 1.4 7 3.6 9.9 7.1a12 12 0 0 0 6.2 3.8l1.4.3-.5-.9q-2.4-4.2-3.4-9.6a21 21 0 0 0-3.1-8.2q-1.2-1.6-2-2.2l1-2q1.4 1 2.8 2.9 2.7 3.9 3.6 9.4.9 4.9 3 8.7 1 1.8 2 2.5l2 2h-2.7a19 19 0 0 1-4.4-.6q-5-1.4-7.6-4.7-3.6-4.4-8.7-6.3zm3.8 32.2q5 1.8 8.7 6.3 1.8 2.2 5.3 3.2l.8.2a25 25 0 0 1-3.1-9q-.7-4.1-2.7-7-1-1.4-1.8-2l1.1-1.9q1.2.9 2.5 2.6a21 21 0 0 1 3.2 8.2 18 18 0 0 0 4.2 9.8l2.2 2H625q-1.7 0-3.9-.6-4.3-1.1-6.8-4.2a17 17 0 0 0-7.4-5.3z"/><path fill="#f4c53d" d="M517.9 707.9c0 .5 4 18.6 18.5 20 .3 0 9.7.5 9.4-17 .4.3 14.4 10.2 17.4-9.5.4.2 13.1 5.1 13.5-13.8.4.1 12.2 4 11.2-13 .5.2 13.2 5.4 13.9-10.3.5 0 31.6-1-35-73.2l-60.2 27.6z"/><path fill="#010002" d="m516.7 707.9-11.3-90 61.5-28.2.6.6c28.4 30.7 42.5 51.6 43.2 64.4 0 4.5-1.3 7.2-4.3 9.3q-1.7 1-3.5 1.4c-.4 6.7-2.7 10-7.7 11.2q-3 .5-6-.4c.2 7-1.6 10.6-5.8 12.4q-2.7 1-5.5.5c-.4 7.8-2.6 12-7.4 13.7q-3.2 1-6.3.1c-1.4 8.3-4.6 11.9-10.5 12a16 16 0 0 1-6.7-1.9c-.1 6.8-1.6 11-4.8 14a8 8 0 0 1-5.7 2c-6.6-.4-11.5-3.8-15.7-10.9a38 38 0 0 1-4-10.2zm6 9.2c3.7 6.2 7.9 9.1 13.6 9.6q2 0 4.3-1.7c3-2.7 4.2-7 4-14.2v-2l1.7 1.2q3.5 2.3 7.1 2.5c5-.1 7.6-3.5 8.7-11.4l.1-1.3 1.3.5q3 1 6 .2c4.2-1.5 6-5.5 6-13V686l1.4.5q2.8.8 5.5-.1c3.6-1.6 4.9-5.1 4.4-11.9l-.2-1.7 1.6.7q3.2 1.2 6.3.7c4.2-1 6-3.9 6.1-10v-1l1-.1q1.8-.1 3.5-1.2c2.3-1.7 3.2-3.8 3.2-7.4-.6-12-14.3-32.2-41.7-62l-58.7 27 11.1 88.3q1.1 4.6 3.7 9.3"/><path fill="#f4c53d" d="M511.2 623c.3.3 9.5 10.2 17.1-2 .5.1 9 1 11.3-6.2.4 0 7.3.3 9.4-7.1.4 0 10 .4 10.4-9 .4 0 19.1 1.4 0-24.2-20-25-52.4 29.1-52.8 29.7z"/><path fill="#010002" d="m510.2 623.4-4.8-19.6.2-.4a128 128 0 0 1 19.2-24.6q9.7-9.3 17.7-11.6c7.2-1.8 12.7.2 17.8 6.6 8.6 11.4 11 18.7 7.4 23.2q-2.6 2.8-7.1 3c-.4 4-2 6.2-5.8 7.8a15 15 0 0 1-4.9 1 9 9 0 0 1-5.7 6.3q-2 .8-3.7.9c-1.1 3-3 4.7-6.7 5.8q-2.5.6-4.8.5c-3.4 5.3-7 7-12.1 5.5q-3.7-1.2-6.5-4zm2-1q2.2 2.2 5 3.2c4.2 1.1 7.2-.4 10.1-5.2l.3-.6.7.1q2.2.2 4.6-.4c3.2-1 4.8-2.4 5.5-5.1l.2-.9h.8q1.8.1 3.7-.6c2.7-1.2 4-2.8 4.7-5.6l.2-.9h.8q2.5.1 5-.8c3.2-1.5 4.4-3.4 4.5-7v-1.1h1q4.4.3 6.6-2.2c2.7-3.6.5-9.8-7.3-20.2-4.4-5.4-9-7-15.2-5.6q-7.6 2-16.9 11.2Q516 591 508 604.5z"/><path fill="#010002" d="M544.6 710.8a123 123 0 0 0-4.2-22.7 281 281 0 0 0-25-61.2l2-.9q17.4 32.3 25.2 61.8 3.9 14.9 4.3 23.3zm17.5-9.8q.2-1 0-3.5-.4-5.2-2.7-12.8a290 290 0 0 0-32-63l-.4-.6.2-.6q1-2.9.5-7.1a23 23 0 0 0-9.4-14.8l1.2-1.9a26 26 0 0 1 10.5 16.7q.6 4.4-.4 7.7a292 292 0 0 1 32 63.2 42 42 0 0 1 2.8 17.5zm13.5-13.6q.1-4.8-4.1-16.2-9-23.1-32.8-55.8l-.4-.5.1-.6q.8-2.7 0-6.7a28 28 0 0 0-10-15.3l1.3-1.8a31 31 0 0 1 11 17q.7 4.1.1 7.2a265 265 0 0 1 32.8 55.9q4.5 11.9 4.3 17.2zm11.2-12.9q-.4-5-5.3-15.7a254 254 0 0 0-33.4-50.4l-.4-.5.1-.6q.4-2.7-.7-6.7c-1.7-5.5-5-9.8-10.3-13.8l1.2-2c5.9 4.5 9.5 9.3 11.3 15.4q1.1 4.1.9 7.2 23.2 28.8 33.4 50.6 5 11.2 5.5 16.6zm13.8-10.2q-.7-5.8-6.2-16.8a213 213 0 0 0-35.7-48l-.5-.5v-.6q.4-2-.8-5.4a36 36 0 0 0-10.5-14l1.4-1.7q8.5 7.5 11.2 15.2a17 17 0 0 1 1.1 6 215 215 0 0 1 35.9 48.1 61 61 0 0 1 6.4 17.7z"/><path fill="#f4c53d" d="M482.2 702.4c-.1.4-4 17.3-18.5 14.3-.4 0-9.8-2.4-9.4-19.7-.5.1-14.5 5.8-17.5-14.7-.4 0-13 1.3-13.5-17.6-.4 0-12.1.5-11.2-16.1-.5 0-13.2 1.9-13.8-14-8.2-2.4-7.1-18.2-2.7-25.5 5.8-9.3 17-21.6 37.7-38.1l60 45.7z"/><path fill="#010002" d="M483.3 702.8q-1.1 4.7-4 8.9c-4.3 5.8-9.1 7.7-15.8 6.2q-2.9-.8-5.6-3.9a23 23 0 0 1-4.8-15.4q-3.3.8-6.8 0c-5.8-1.9-9-6.4-10.5-15q-3-.2-6.3-2c-4.7-3-7-7.9-7.3-15.8a13 13 0 0 1-5.6-2c-4.2-2.9-6-7.1-5.8-14q-3 0-6-1.2c-5-2.3-7.3-6.3-7.7-13.1q-1.7-.8-3.5-2.3c-3-2.8-4.3-5.9-4.2-10.3.6-12.7 14.7-30.3 43.1-52.9l.7-.5 61.4 46.8zm-2.3-.8 11.1-84.9-58.6-44.6q-41 32.9-41.8 50.8 0 5.1 3.3 8.1 1.8 1.5 3.5 2.1l1 .3v1c0 6.2 1.9 9.7 6 11.7q3.2 1.2 6.3.9l1.6-.2-.2 1.6c-.4 6.6.9 10.5 4.4 13a10 10 0 0 0 5.5 1.7h1.4v1.3c0 7.6 1.9 12 6 14.8q3 1.7 6 1.5l1.3-.1.2 1.3c1 8.2 3.7 12.3 8.6 13.9q3.6 1 7.1-.4l1.8-.7v2c-.3 7 1 11.8 4 15.5a9 9 0 0 0 4.3 3c5.7 1.2 9.8-.4 13.5-5.5q2.7-3.9 3.7-8.1"/><path fill="#f4c53d" d="M488.8 619.5c-.3.2-9.5 7.2-17.1-7.1-.4-.1-9-2-11.2-9.8-.4 0-7.4-2-9.4-9.9-.5-.1-10.2-2.6-10.5-12-.4 0-19-4.1 0-24.3 20.1-19 52.5 45 52.8 45.7z"/><path fill="#010002" d="M489.6 620.5q-2.9 2-6.5 2.1c-5-.1-8.7-2.9-12.1-9.2q-2.3-.5-4.8-2a14 14 0 0 1-6.7-7.8q-1.8-.7-3.7-2-4.3-3.1-5.7-8-2.5-.7-5-2.4c-3.6-2.8-5.3-5.6-5.7-9.6q-4.5-1.4-7-5c-3.6-5.5-1.3-12.1 7.3-21 5.1-5 10.6-5.4 17.8-1.4a68 68 0 0 1 17.7 17q10.8 14 19.2 30.5l.2.4-4.7 18.2zm-1.8-1.8 4.4-16.6a193 193 0 0 0-18.7-29.6 65 65 0 0 0-16.8-16.3c-6.3-3.3-10.9-3-15.2 1.2-7.8 8-10 13.6-7.3 18q2.1 3.1 6.5 4.1l1 .3v1.1c.1 3.6 1.4 6 4.6 8.3q2.4 1.7 4.9 2.4l.8.2.2.9c.7 3 2 5 4.7 7q2 1.3 3.7 1.8l.8.2.2.9q.9 4.2 5.5 6.8a18 18 0 0 0 4.7 1.8l.6.1.3.7c3 5.6 6 8 10 8.2q3 0 5.1-1.5"/><path fill="#010002" d="M453.1 696.7q.4-8.2 4.3-22a203 203 0 0 1 25.2-54l2 1.5a201 201 0 0 0-25 53.5q-3.7 13.5-4.2 21.5zm-17.4-14.3q-1-5.2 2.8-16.8a199 199 0 0 1 32-53.6q-1-3.7-.5-7.8a17 17 0 0 1 10.5-13.5l1.2 2.2a15 15 0 0 0-9.4 12q-.5 4 .5 7.2l.2.7-.4.4a198 198 0 0 0-32 53.5 54 54 0 0 0-2.7 12 15 15 0 0 0 0 3.5z"/><path fill="#f4c53d" d="M500 615.6c9.7 2 20.6 64.8 17.9 102.3-1.3 13.6-8 23.1-17.9 21.9-9.8-1.8-16.6-13.4-17.8-27.4-2.8-38.4 8-97.7 17.8-96.8"/><path fill="#010002" d="M500 614.4c5.5 1.2 10.3 13.6 14.8 39q6.3 36.8 4.2 64.7a32 32 0 0 1-5.9 17.2c-3.8 4.6-7.8 6.3-13 5.7-5.4-1-9.4-4-13.2-9.8a42 42 0 0 1-5.9-19q-2.1-28.5 4.2-63.4c4.5-24 9.2-35 14.8-34.4m-6.2 11q-3.4 9-6.3 24.2-6.3 34.5-4.2 62.8c.6 7 2.4 12.6 5.5 17.7 3.3 5 6.7 7.7 11.2 8.5 4.5.5 7.9-1 11.2-5q4.8-6 5.5-16a266 266 0 0 0-10.5-90.4c-2.5-6.8-4.3-9.9-6.2-10.4-2 0-3.7 2.4-6.2 8.5m-71.7 39.3q-.1-5.5 4.3-16 9.1-20.9 32.8-46.4-.6-3.2.2-7.2a21 21 0 0 1 11-13.6l1.2 2.1c-5.6 3.2-8.7 7-10 12.3q-.7 3.8 0 6.7l.1.6-.3.4a174 174 0 0 0-32.8 46.2q-4.4 10.2-4.1 15zM411 648.3q.5-5.3 5.6-15.1a166 166 0 0 1 33.4-41q-.4-3.3.8-7a19 19 0 0 1 11.4-12l1.1 2.3a17 17 0 0 0-10.3 10.7 16 16 0 0 0-.7 6.5l.1.6-.4.4a165 165 0 0 0-33.4 40.8q-4.9 9.4-5.3 14.3z"/><path fill="#f4c53d" d="M513.4 617.2c-.2 11.5-5.8 19.1-13.4 18.3-7.5-1.6-13.2-11-13.4-22.5.2-11.5 5.8-19.1 13.4-18.3 7.6 1.5 13.2 11 13.4 22.5"/><path fill="#010002" d="M514.6 617.4a24 24 0 0 1-4.1 14.4c-3.1 4-6.2 5.3-10.5 4.9-4.2-.9-7.4-3.3-10.4-8.2q-4-6.9-4.2-15.7a24 24 0 0 1 4.2-14.4c3-4 6.1-5.4 10.4-4.9 4.3.9 7.4 3.3 10.5 8.1q4 7 4.1 15.7m-2.3-.3q-.1-8-3.7-14.3c-2.6-4.1-5.2-6.1-8.6-6.8-3.5-.4-6 .8-8.5 4.1a23 23 0 0 0-3.8 13.2q.1 8 3.8 14.3c2.6 4 5.1 6 8.5 6.8 3.5.3 6-.8 8.6-4.1 2.4-3.6 3.6-7.7 3.7-13.2M397 634.4q.9-6 6.5-16a139 139 0 0 1 35.8-38.3q0-2.5 1-5.7 2.9-7 11.4-11.8l1.3 2.1a23 23 0 0 0-10.5 10.9q-1 3-.9 5.1l.1.6-.4.4a138 138 0 0 0-35.8 38.1 46 46 0 0 0-6.2 15.1z"/><path fill="#fff" d="M500 610.6c.3 0 113.4-34.3 114.2-155-75.4-9-150.7-23.3-228.4-32.6.8 118.8 113.8 187.4 114.2 187.6"/><path fill="#010002" d="m500.5 611.8-.5.1-.5-.3q-7-4.4-17.9-12.7a306 306 0 0 1-39.4-37 247 247 0 0 1-39.5-59c-12-26-17.9-52.4-18-80v-1.2c76 9 152.2 23.6 230.7 32.9v1.2q-.3 41.4-18.1 75.5a161 161 0 0 1-39.5 48.2 189 189 0 0 1-57.3 32.3m-.5-2.5a188 188 0 0 0 56.2-31.8 159 159 0 0 0 39-47.5 159 159 0 0 0 17.8-73.3c-74.6-9-149.2-23.1-226-32.4q.4 40.2 17.8 77.8a244 244 0 0 0 39 58.3 303 303 0 0 0 39 36.6q10.3 8.1 17.2 12.3"/><path fill="#010002" d="m438.5 428.8 17.6 2.6v2.4l-17.6-2.6zm-35.1-4.8 17.6 2.3v2.4l-17.6-2.3zm70.3 10 17.5 2.8v2.3l-17.5-2.7z"/><path fill="#a60032" d="M403.4 425.2v76.4s8.8 18.8 17.6 31.2V427.5z"/><path fill="#010002" d="m402.2 423.8 20 2.7v109.8l-2.1-2.9a200 200 0 0 1-17.7-31.4l-.2-.3zm2.4 2.7v75q7.5 16.3 15.2 27.7V428.5z"/><path fill="#a60032" d="M438.5 430v126s11 12.6 17.6 19V432.5z"/><path fill="#010002" d="m437.4 428.7 19.9 2.9v146l-2-1.8a317 317 0 0 1-17.6-19l-.3-.5zm2.3 2.7v124.3q9.2 10.5 15.2 16.6V433.6z"/><path fill="#a60032" d="M473.7 435.3V591s12.5 10.2 17.5 13.7V438z"/><path fill="#010002" d="m472.5 433.9 19.9 3v170l-1.7-1.2q-5.1-3.6-17.7-13.8l-.5-.4zm2.3 2.7v154l15.3 12V439zM403.4 424l17.6 2.3v2.4l-17.6-2.3zm35.1 4.8 17.6 2.6v2.4l-17.6-2.6z"/><path fill="#010002" d="m473.7 434 17.5 2.8v2.3l-17.5-2.7z"/><path fill="#a60032" d="M596.6 453.5v76.4s-8.8 16.5-17.5 26.5V451z"/><path fill="#010002" d="m597.8 530.3-.1.3a137 137 0 0 1-17.7 26.7l-2 2.3V449.8l19.8 2.6zm-2.3-75.8-15.3-2V553q7.7-9.2 15.3-23.6z"/><path fill="#a60032" d="M561.5 448.6v126s-11 9.4-17.6 13.8V446z"/><path fill="#010002" d="m562.7 575.3-.4.3a199 199 0 0 1-17.7 13.8l-1.8 1.2v-146l19.9 3zm-2.4-125.7-15.2-2.2v138.7q6-4.3 15.2-12.2z"/><path fill="#a60032" d="M526.4 443.4V599s-12.6 6.3-17.6 8.3V440.7z"/><path fill="#010002" d="m527.5 600-.5.2q-12.6 6.4-17.7 8.3l-1.7.7V439.3l20 3zm-2.3-155.6L510 442v163.6q5.1-2.1 15.3-7.3z"/><path fill="#0081c6" d="m684.2 678.9-4.5 18.2 12.2 13.1-17.2 73.1-15.2-22.2-22.6 8.7 17.1-72.5 16-3.2 4-18.2c.3-.1 4.5-1.4 10.2 3"/><path fill="#010002" d="m685.3 679.2-4.3 17.6 12.1 13.2-17.8 76.1-16.2-23.5-23.9 9.1 17.9-75.4L669 693l4-18.2.6-.2q1.5-.4 3.5-.2c2.9.3 5.2 1.4 7.8 3.5l.6.5zm-2.4 0a12 12 0 0 0-5.8-2.4h-2l-4.2 18.3-15.9 3.2-16.4 69.5 21.3-8.1 14.3 20.8 16.4-70-12.1-13z"/><path fill="#0081c6" d="m688.2 666.9-8.7 16.1 8.7 16-34.3 64.2-9.7-25.5-24.4 1.5 34.3-63.3 16.5 1.5 8.4-16.1c.3 0 5.7.5 9.2 5.6"/><path fill="#010002" d="m689.3 667.5-8.5 15.6 8.8 15.9-35.8 67-10.3-27-25.8 1.5 35.8-65.8 16.4 1.4 8.4-16h.7q1.8 0 3.8.9 4.2 1.7 6.4 5.3l.4.6zm-2.4-.6a11 11 0 0 0-4.8-3.7l-2.4-.7-8.4 16.1-16.5-1.4-32.9 60.7 23-1.4 9.1 23.9 33-61.5-8.8-16z"/><path fill="#0081c6" d="m689.7 671.8-23.2 28.6 5.3 17.5-47.4 52.3-4.3-26.7-24.7-5 47.4-51.3 16 5.6 24.7-30.2c.3.2 6 3.6 6.2 9.2"/><path fill="#010002" d="m690.6 672.6-22.8 28.2 5.3 17.5-49.4 54.5-4.6-28.3-26-5.3 49.3-53.3 16 5.5 24-29.6h.2l1.8 1.5q.6-.7-.1-1.5l-.2-.2q1.8 1 3.5 2.8c2.4 2.6 3.3 4.8 3.3 7.6v.3zm-6.8-8.5-24.5 30-16-5.5-45.5 49.2 23.3 4.7 4 25.1 45.4-50-5.3-17.5 23.4-28.8q-.1-2.6-2.6-5.3zM93 263.3q7.6 2.1 27.4 4.1c26.5 3 59.8 5.8 100.2 11.2l-.5 2.4c-40.4-5.4-73.9-8.2-100.4-11.1a205 205 0 0 1-27.9-4.2zm13.5 21.4q21 1.4 47 4.4c34.5 4 59.9 8.3 76.2 9.1l-.2 2.4c-16.5-.8-42-5-76.6-9.1q-26-2.9-47-4.3zm33.2 24 31.9 3.9 75.1 11-.3 2.3-75.4-11-32-3.8zm42 26.5 31.2 4.2c23 3.4 40 6.3 51.1 7.3l-.2 2.3c-11.1-1-28.2-3.9-51.3-7.2l-31.3-4.3zm37.5 23.6c31.4 5 51 9.3 59 10.3l-.3 2.4c-8-1-27.7-5.4-59.2-10.3zm30 23.8c22.8 3.2 38.8 5.5 47.9 5.8v2.4c-9.2-.3-25.3-2.6-48.3-5.8zm42.5 22q13.8-.2 20.5-.9l.3 2.4q-6.7.7-20.7.8zm12.6 23.4q11.6-2.6 18.5-6.5l1.3 2q-7.2 4.1-19.2 6.9zm17.3 24.9q2.1-.7 4.9-2.6a24 24 0 0 0 8-9.3l2.1 1.2a26 26 0 0 1-14.1 13zm22 10.7q1.6-1.5 3.3-3.7a17 17 0 0 0 3.8-8.5l2.3.3q-.4 4.8-4.2 9.8-2 2.5-3.7 4zm26.3 10a7 7 0 0 1-1.4-3.2q-.9-4 .2-10.5l2.3.7a27 27 0 0 0-.3 9.5l.7 1.9zm-3.7-28.1q-1.4-3.5-1-8.3l2.3.5q-.3 4.2.8 7zM318 294.4q4 2 8.7 5a42 42 0 0 1 13 12.6c2.4 4.4 3.3 8.6 3 13.5q-.5 4-2.7 9.8l-.2.5-.4 1c-6.8 16-6.4 28.3 1.3 38.7l-1.8 1.3c-8.3-11-8.8-24.3-1.6-41l.4-1 .2-.5q2-5.6 2.4-9.3c.3-4.3-.5-8-2.5-11.9a40 40 0 0 0-12.2-11.7q-4.7-3-8.5-4.9zm-1.1 96.7q.3-.3 6.2-1.8l.7 2.3-5 1.3-.6.1.4-.2zm-32.5-25.5q9.4 2.2 18.6 2.8v2.3q-9.5-.6-19-2.8zM271 341.3a243 243 0 0 0 21.5 1.6v2.3q-10.5-.2-21.7-1.5z"/><path fill="#369443" d="M312.5 629.6c0-.4-.4-9.5 12-10l36 54.8c0 .2-1.2 3-17.7 1.3 0 0-1.5-.2-2.6 1.7-2 2-27.4-47.3-27.7-47.8"/><path fill="#010002" d="M311.3 629.6q0-2.9 1.5-5.7c2.4-3.7 5.8-5.3 11.5-5.4h.7l37 55.9-.3.6c-1.5 2.5-7.2 3-18.9 1.8q-1 0-1.6 1.2-.4.7-1.2.7l-1-.5-1.3-1.4q-1.2-1.6-3.4-5.1l-9.5-16.7-13.4-25v-.2zm2.3-.3 13.2 24.6a472 472 0 0 0 12.7 21.5l.3.4q1.1-1.5 3-1.3 10.1 1 14.7 0l1.5-.4-35.2-53.2c-4.5.2-7 1.5-9 4.3a9 9 0 0 0-1.2 4.1m-59-313q16 3 24.6 3.6v2.3q-8.9-.4-25-3.6zm-13.2-27.8a364 364 0 0 0 34.4 7.7l-.3 2.4q-15-2.5-34.8-7.8zm67.8 23a17 17 0 0 0-4.7 7.6c-1.6 6.2.7 11.4 7.5 17l.9.6-.6 1q-1.6 2.5-1.6 6.4c.1 5.6 2.8 10.5 8.5 15.8l-1.5 1.8c-6.3-5.8-9.2-11.4-9.3-17.7q0-4 1.4-6.8c-7-6-9.3-11.9-7.5-18.9q1.6-5.1 5.3-8.6zm6.6 54.9q-.4 5 2 10.4c3.7 7.1 10.2 10.8 20.8 11.8l1.5.1-.4 1.5q-1 4.4.6 9c2.6 6.1 8.3 9.2 18.4 10.1h1l.2 1q.7 3.7 3.5 7.3c4 4.7 9 6.7 16.3 6.4l.4 2.4c-8.2.3-14-2-18.5-7.4q-2.7-3.7-3.7-7.4c-10.7-1.1-16.8-4.7-19.7-11.7a18 18 0 0 1-1-9c-10.7-1.4-17.5-5.5-21.4-13.2q-2.8-5.8-2.3-11.7zm24.2 227q-4.4.5-13.4-1l.2-2.4q8.8 1.5 12.7 1zm-38.7 8.8q-2.5-.4-5.2 2-5.8 5.5-5.4 22.4h-2.4c-.1-12.2 1.9-19.9 6.2-24.2 2.5-2.2 4.5-2.9 7.2-2.5zm7.6 6.8q-2.2-.4-4.6 2c-3.4 3.9-5 10.9-4.7 22h-2.3q-.4-17.5 5.3-23.6c2.3-2.3 4.2-3 6.6-2.7zm110.3-54.2q-5 .5-8.6 4a11 11 0 0 1-7.7 2.8q-2.4.1-4.4-.4l-2.8-.6 2.2-1.5q.8-.6 1.9-2.2 2.1-3.2 3-8 1-5.2 3.6-8.4 1.5-1.6 2.7-2.2l1.1 2.2q-.9.4-2 1.7a16 16 0 0 0-3.1 7.4q-1 5.3-3.4 8.8l-.5.8h1.4q4 0 6.2-2.2 4.2-4.1 10-4.6zm-22.3-23.6q-5 .5-8.6 4c-2 2-4.2 2.8-7.7 3q-2.4 0-4.4-.3l-2.8-.6 2.2-1.6q.9-.6 2-2.2a22 22 0 0 0 3-8q.8-5.2 3.5-8.5 1.5-1.5 2.8-2.2l1 2.2q-.8.4-2 1.7-2.2 2.8-3.1 7.5a24 24 0 0 1-4 9.6h1.5q4.1-.1 6.2-2.3 4.2-4.1 10-4.7zm-3.8 31.3q-4.3.4-7.4 3.5a10 10 0 0 1-6.8 2.7q-2.1 0-3.9-.4l-2.7-.6 2.1-1.5c2.1-1.7 3.4-4.3 4.3-8.8q.9-4.7 3.2-7.5 1.2-1.4 2.4-2l1 2.2a6 6 0 0 0-1.6 1.5 14 14 0 0 0-2.8 6.4q-.9 5.4-3 8.3h.7c2.5-.2 4-.8 5.4-2 2.5-2.5 5.1-3.8 8.7-4.2z"/><path fill="#162667" d="M614.2 368.7c-.6.3-55.2 22.6-114.2-18.7-33.4 13-65.7 6.6-87.6-1.3a150 150 0 0 1-26.6-12.6V423c75.4 9 150.8 23.3 228.4 32.7z"/><path fill="#010002" d="M615.4 367v90c-76.2-9-152.3-23.6-230.7-33v-90l1.7 1q3.4 2.3 9.5 5.4a164 164 0 0 0 25.3 10c28.3 8.4 54 8 78.3-1.6l.5-.2.6.4a129 129 0 0 0 78.2 25 120 120 0 0 0 34.9-6.4zm-2.3 3.5q-3.4 1.2-8.1 2.4-12.4 3-25.8 3.4c-28.6.6-54.7-7.9-79.2-25a119 119 0 0 1-79.1 1.4 167 167 0 0 1-34-14.6V422c74.7 9 149.3 23.2 226.2 32.4z"/><path fill="#0081c6" d="M101.4 573.2c5.7-4 9.3-7 9.5-13.1q0-2.2-2.3-9L71.4 445.9a77 77 0 0 0-4.6-11c-2-2.5-4.8-2.8-9.4-3l4.6-1.7a526 526 0 0 1 38-12.2l4.7-1.2c-5.4 4-9.5 7-9.8 12.7q0 3.3 1.8 8.5l28.5 84 28.4-96.9q1.8-6 1.8-9.3c-.4-5.8-4.7-6.9-9.7-8.3l4.5-.8a592 592 0 0 1 36.7-5.3l4.6-.4c-4.3 2.2-7.4 3.8-9.4 7.5q-1.2 2.4-4.6 13L140.3 544a79 79 0 0 0-2.3 10c-.1.5-1.6 7.1 9.5 8.7a539 539 0 0 0-46 10.5"/><path fill="#010002" d="M101 572.2q4.6-3.3 6.5-5.4 2.2-2.9 2.3-6.4-.1-2-2.3-8.6L70.3 446.7q-3-8.1-4.6-10.8c-1.1-1.5-3.6-2.4-8.4-2.7H57l-5.4-.3a517 517 0 0 1 58.2-18.7l-4.7 3.5-.7.5q-4.5 3.4-6 5.3a9 9 0 0 0-2.4 5.7q.1 3 1.8 8.1l27.4 80.8 27.3-93.2q1.8-6 1.7-8.9a6 6 0 0 0-2.4-4.8q-1.7-1-6-2.4l-.6-.1-4.8-1.4q28-5.4 57-8.1L192 402h-.1l-.1.1q-7 3.7-8.5 6.8-1.7 3.4-4.6 13L141.4 544a76 76 0 0 0-2.3 10q-.3 1.6.5 3.3c1.3 2.4 3.7 3.7 8.2 4.2l8.3.9A536 536 0 0 0 95.5 576zm5.5-1.6q17.3-4.5 35.2-8-3-1.4-4.2-3.9-1.2-2.3-.7-4.6.8-4.5 2.4-10.4l37.2-122.3q3-9.7 4.7-13.3a14 14 0 0 1 4.9-5.4 588 588 0 0 0-35.3 5l2.6 1.4a8 8 0 0 1 3.3 6.5q0 3.3-1.9 9.7l-29.5 100.6-29.6-87.2a32 32 0 0 1-1.9-8.8c.1-2.9 1-5.2 3.1-7.8l3-2.8a524 524 0 0 0-37 11.8l1 .2q2.7.8 4 2.8a72 72 0 0 1 4.7 11l37.2 105.4a41 41 0 0 1 2.4 9.3q0 4.6-3 8.3-1 1.2-2.6 2.5"/><path fill="#0081c6" d="M893.4 571.8V440.1q0-3.5-1-5c-1-1-4-3.5-8.6-4.5l4.6-1q16.4-4.2 33.4-9.8l4.6-1.5a32 32 0 0 0-8.5 9.3q-1 2.3-1 5.7V565q0 3.5 1 5c1 1.1 3.8 3 8.5 3.9l-4.6 1.5a527 527 0 0 1-33.4 9.7l-4.6 1a32 32 0 0 0 8.5-8.7q1-2 1.1-5.6"/><path fill="#010002" d="M892.3 572.1V440.4q0-3.1-1-4.4c-1.7-2.2-4-3.4-7.9-4.2l-5.5-1q27.4-6.2 55.7-16.1l-6.8 4.6a29 29 0 0 0-7.9 8.6q-.9 2-1 5v131.8q.1 3.1 1 4.4c1.5 1.7 3.8 2.8 8 3.5l4.6.7a523 523 0 0 1-53 15.4l4.9-3.5q5.9-4.3 8-8.1.7-1.8.9-5m2.3-.6q0 3.8-1.3 6.3-1.6 3-4.9 6a526 526 0 0 0 33.5-9.6q-3.3-1.2-5-3.2-1.2-1.8-1.2-5.6V433.7q0-3.8 1.2-6.4a25 25 0 0 1 4.7-6.2 529 529 0 0 1-33 9.5q3 1.4 4.7 3.6 1.2 1.8 1.3 5.5z"/><path fill="#1a1a1a" d="M8 195.3c170.8-85.3 341-54.5 513.3-28C676.5 191 833.4 211.8 992 132.7v672c-170.8 85.3-341 54.5-513.3 28C323.5 809 166.6 788.1 8 867.2zm31.3 19.3v604.5c306.5-128.2 611.1 96 921.5-33.7V180.9C654.2 309 349.5 84.9 39.3 214.6" opacity=".2"/></svg>