<svg xmlns="http://www.w3.org/2000/svg" viewBox="0 0 1000 1000"><path fill="#fff" d="M8 195c171-85 341-54 513-28 155 24 312 45 471-34v672c-171 85-341 54-513 28-155-24-312-45-471 34z"/><path fill="#369443" d="M315 596s-1-5 9-9 11-18 9-29c0 1-5 9-12 12 0 0-10 5-11 16l-1 7c0 1-4-14 4-25 9-11 12-20 5-39 0 0-1 11-8 17s-8 7-8 22c0 0 0 5-3 7l-7-14c-1-6-2-8 4-14 1-1 20-13 6-43 0 0-1 9-7 16-7 5-7 9-7 20l-2 11c0-1-13-24-3-38 10-12 15-15 5-39 0 0 0 12-9 18-8 6-7 20-7 20s1 6-1 10c0-1-12-25 0-39 10-11 10-19 5-35 0 0-1 7-6 11-6 4-10 8-9 24l-1 14-7-17q-3-8 2-16c4-7 19-25 1-53q1 3-5 17c-5 8-3 17-2 24q0 13-2 14s-8-14-7-32q3-26-20-40s-11 27 4 40c0 0 13 13 16 29 0 0-9-1-19-18-9-18-27-14-28-13 0 0 3 26 31 33 1 0 18 2 22 16l4 14q-1 1-11-10c-5-8-5-9-23-10q-2 1-11-5c0 1 8 28 27 27 1 0 18-2 28 22l-4-3q-3-4-23-3c-13 2-16 0-20-1 1 1 13 23 32 16s28 19 28 20l-6-5c-3-4-10-8-23-3 0 0-9 3-18 1 0 0 8 17 30 14 21-2 26 16 27 17l-5-4c-2-2-9-6-25-1-15 4-20 0-21 0 1 0 9 15 25 17 0 0 9 0 13-2 4-1 14-3 21 8l-5-2s-10-4-19 3c0 0-7 7-18 6 1 1 14 13 35 3 1-1 7-5 13-1s17-3 18-3"/><path fill="#010002" d="m316 596-7 3q-7 3-12 0-3-3-7-1l-4 2q-14 6-26 3-7-2-10-6l-3-2h4q6 1 12-2l4-4h1q5-4 13-4l7 1 2 1q-4-5-10-5h-8l-14 2q-10-1-19-9l-7-9-3-6 5 5 4 1q7 2 16-1 10-3 18-2l9 5-4-6q-7-9-20-7a30 30 0 0 1-32-14l-1-3 3 1a30 30 0 0 0 18-1q16-6 24 3l2 2-5-9q-9-10-19-6-13 5-24-5l-10-11-1-3 3 1h1q8 3 18 1 15-3 23 3l2 1q-6-12-16-16-6-2-9-1h-1q-12 1-21-14-5-7-7-15l-1-5 3 4 7 4 4 1q12 0 15 2 4 1 7 7l1 1 8 9-3-12q-2-7-12-12l-9-3a40 40 0 0 1-33-34v-2h2q21-3 29 14 6 10 13 15l4 2a57 57 0 0 0-16-26q-10-8-8-26l4-16v-1l1 1q24 14 22 42a58 58 0 0 0 5 29l1-11v-3q-2-7-1-11l3-12q4-7 5-16v-3l2 3q11 16 8 32-1 9-8 19l-1 2-3 8 1 8 5 13 1-10q-1-11 2-17 1-4 7-8l5-7 1-3v-6l2 5q5 13 3 21-1 7-9 16-7 8-3 23l3 11v-14q2-9 8-13l7-11v-12l3 5q6 16 6 24l-3 7-5 7-3 3q-6 7-2 23l4 11 1-8v-3l1-10q2-5 6-8 5-4 6-10l1-5v-5l2 4q9 19 3 34-4 7-9 10l-5 7 1 6 6 13 2-5 1-15 7-7v-1q5-3 6-10l2-6v-5l2 5q5 14 4 23-1 8-9 17a24 24 0 0 0-5 18v-1q1-7 6-13l6-4q3-1 8-7l3-4 2-3v3q3 10 1 18-3 9-10 12-6 2-8 5zm-2-1 1-3q1-4 9-6 6-2 8-11l1-13-2 2q-5 6-9 7l-5 4q-5 5-5 11l-1 7-1 1h-1l-1-1v-1a29 29 0 0 1 4-24q8-8 8-17 1-6-2-17v2l-7 11h-1l-6 7-1 14q0 6-3 8h-1l-1-1-7-14-1-8q1-3 6-7v-1q5-3 8-9 5-12-1-28l-1 2q-2 7-7 10l-5 8-1 9v3l-2 12-1 1-1-2-5-14q-4-16 2-24l3-4 5-7 2-6q1-6-4-18v3q-2 8-8 12-6 3-6 12v7l-2 10-1 2-1-2-5-14q-3-18 5-26 7-7 8-15l-2-15q-2 6-6 8l-6 7q-3 6-2 16l-1 14-1 2-1-2q-6-9-7-16l-1-9 3-9 1-2q6-11 8-18 1-15-6-28l-5 14q-3 4-3 10l1 11v2q1 7-2 15l-1 2-1-2-4-10q-4-11-3-23 3-24-19-38l-3 13q-1 16 8 24a66 66 0 0 1 16 29l1 2h-2l-6-3q-8-4-14-16-7-15-26-12 1 6 5 12 8 15 26 19l9 3q10 4 13 14l4 14 1 2-2-1-4-2-8-8-1-2-6-6-15-2-8-2 5 9q8 13 19 13 6 0 11 2 12 5 18 21l2 3-3-2-5-3q-7-5-21-3h-18l7 8q11 9 22 5 12-5 22 7l7 14 2 4-4-3-5-5q-9-8-22-3a34 34 0 0 1-17 2l5 5q10 7 23 6 13-2 22 7l6 10v3l-2-1-5-4-7-3-16 2a36 36 0 0 1-18 1l3 5q9 8 18 9l13-2 10-1q8 2 12 9l1 1-1 1-6-2-6-1q-8 0-12 4a25 25 0 0 1-15 7l6 2q12 4 25-2l4-2q6-2 10 1 3 2 10 0z"/><path fill="#f4c53d" d="M435 276c-1 0-3-22 15-23 18 1 28 6 28 6l8 18-3 11-11 4c0-1 1-17-14-20q-4 1-12-1c-7-2-10 4-11 5"/><path fill="#010002" d="m433 276 1-12q4-12 16-12l21 3 7 3v1l9 18-3 12-14 5v-2q1-4-1-9-2-7-11-10h-4l-9-1q-4-2-8 4l-2 1-1 1zm3-3q4-4 10-3l8 1h4q10 1 14 12l1 7 9-3 3-10-8-17-6-2q-10-3-21-3-10 0-13 10z"/><path fill="#f4c53d" d="M560 352c-3 3-13 3-13 3s10 10 15 23c4 13-126-19-126-19l9-11s-5 1-11-5c0 0 4 2 10-6 0 0 8-10 14-12q0 2-9-3s11 0 15-20l5-10c5-5 3 2 11-6 1-1 4-6 1-12-3-4-7-3-13-8-7-6-10-8-8-14 3-6 8-4 9-4q0-2 9-8c8-2 26 2 29 4s15 7 22 26c6 19-2 24 17 54-1 0-8 0-13-2 0 0 10 19 27 30"/><path fill="#010002" d="M561 353q-3 3-12 3l5 5q6 8 9 16 2 3-1 4l-4 1-13-1-44-7-65-14-4-1 3-1q5-3 8-9h-2l-8-6-4-4 5 3h2l7-6q5-7 11-10l-6-4-3-2h3q3 1 6-2 6-4 9-16l5-10q2-3 5-3t7-4l1-4-1-6-5-4-15-11q-3-4-1-9 3-6 10-4v-1q3-5 8-7h17l15 5q15 9 21 26 3 7 3 17l3 14q3 10 11 22l1 2h-2l-10-1 5 8q9 12 19 19l2 1zm-103-27q-6 2-13 12l-8 6h-1l6 3h3l3-1-2 3q-3 6-7 9l62 14 60 7v-1a61 61 0 0 0-15-23l-2-2h3l11-1a81 81 0 0 1-26-30l-1-2 3 1 10 2q-7-12-10-21l-3-15-3-17a48 48 0 0 0-21-25l-13-4h-16q-4 1-7 7l-2 1q-6-2-8 3l1 6 6 7 7 4 7 5q2 3 1 8l-1 4h-1q-4 5-8 5l-3 2-5 10q-3 12-9 17l-4 2 4 2h1zm21-60q-11-3-12-11l1-8 2 1-1 7q1 7 10 9z"/><path fill="#f4c53d" d="m505 271-5-5q-7-8-14-5s-4 4-7 4l6 5q4 5 10 5l6-3z"/><path fill="#010002" d="m505 270 4 2h-4l-3 1-2 1-5 2q-5 0-11-6-2-3-6-4l-6-3 7 1q3 0 6-4 3-3 8-1t8 6zm-3 0-3-4-6-4h-6q-2 3-5 3l4 4q5 4 9 5l4-2 1-1z"/><path fill="#f4c53d" d="M603 506c1 0 14 13 26 3 1 0 5 6 15 6q12-3 12-9s8 5 15 2q9-7 7-9s12 3 18-5 3-16-1-18c1 0 13 4 17-7 3-10-3-15-4-15 1 0 27 0 39-9 1 0 9-5 4-12 1 0 24-5 31-15q2-1 2-8 1-1-3-3c1 0 28-7 37-17q2-2 2-11l-1-2s25-9 38-24c0 0 7-7 4-16 0 0 42-21 33-39 0-1 19-12 14-29 0-1 16-14 9-26-7-10-28 11-54 24-1 0-68 32-102 39l-96 143-56 17z"/><path fill="#010002" d="m602 506 6-41 56-17 96-143h1a354 354 0 0 0 102-40l21-12 21-12q9-4 13 1 5 8-2 19l-7 8q3 10-5 21l-9 8q6 11-13 27l-20 12q2 5-1 12l-3 5q-9 9-25 18l-13 5 1 2q1 3-1 8l-1 3q-6 7-22 14l-13 3 1 1v2q1 5-2 8-4 8-18 12l-12 4q3 4-1 8l-4 4q-8 6-24 8l-13 1 1 2q3 6 1 12-3 8-10 9h-4l2 4a16 16 0 0 1-16 19l-6-1-1 3q-2 5-6 6-5 3-12 0l-4-1-2 4-10 4a19 19 0 0 1-15-5q-7 6-17 1-6-2-9-5zm94-31 6 1q7-1 9-7 2-5-1-11l-2-3-3-2h3l15-1q16-2 24-7v-1l3-3q3-4 0-7l-1-2h2l13-4q14-5 17-11 2-3 2-7l-2-2v-2l15-5q16-6 21-12l1-3 1-6-1-3-1-1h1l15-7q15-8 23-16l3-5q3-6 1-10l-1-2h1l20-13q18-15 13-24l-1-2h1q6-3 9-8 9-10 5-20l-1-1h1l7-8q6-10 2-16-2-4-11-1l-20 12-21 13a535 535 0 0 1-102 39l-96 143-56 17-5 39 7 4q10 4 17-2v-1l1 1 3 3q6 3 10 2 6 0 9-3l3-5v-1l1 1 5 2h9q4-2 6-5l1-3v-2l1 1h7q7 0 10-5 4-4 3-10 0-5-3-6z"/><path fill="#f4c53d" d="M603 398s8-5 25 4c0 1 5 4 9 1q6-6-1-14c-12-11-16-37 2-47l34-12 89-24c1 0 8-3 13-2q8 2 9 9s4 12-11 20l-13 6c0-1 7-2 11 5q4 12-15 20l-9 3s11 3 6 13c0 0-5 10-23 12 0 0 13 1 4 14 0 0-4 7-17 9 0 1 9 1 5 10q-10 13-28 14-2 1-11-2c1 1 10 6 5 16 0 0-5 6-17 5 0 0 3 10-5 14-7 2-12-3-13-3 0 0 3 11-7 14q-1 2-12-1s-6 12-26 1c-19-12-4-84-4-85"/><path fill="#010002" d="m602 397 7-2q9 0 19 6l3 2 6-1 2-6-3-6q-5-4-8-11t-3-14l2-14q4-7 11-10 7-4 25-9l98-27q9-3 13-2l7 4 3 5v8q-2 8-11 14l-8 4 6 6q2 6-2 11-4 6-14 10l-6 2 3 2q4 4 1 11l-5 6q-6 5-14 6l1 1q5 6-1 14l-4 4-10 5h1q4 3 1 10-5 6-12 10a43 43 0 0 1-23 4l1 1q4 6 0 12l-4 4-12 2v5q-1 6-7 9-5 2-9-1l-2-1-1 4q-1 7-8 9l-3 1q-4 1-9-2l-5 5q-8 3-21-4t-11-48q2-20 6-38zm2 2q-4 18-5 37-3 39 9 46 12 6 19 4l5-5v-1l1 1 8 2 3-1q6-1 7-7v-10l2 3 3 2 8 1q5-2 6-8l-1-5v-2l1 1 12-2 4-3q3-5 0-10l-4-4 1-2a40 40 0 0 0 26-2q7-4 11-10v-6l-4-1v-3q7-1 12-5l4-3v-1q5-7 2-10l-5-2v-2q11-1 17-7l5-5q3-6-1-8-2-3-5-3l-4-1 4-1 9-3q10-4 13-9 3-4 2-9-2-5-6-5h-4v-3l13-5q9-5 10-12l-1-7-2-5-5-3-12 2-98 27-25 9q-12 6-12 22 0 7 3 13 3 7 7 10 4 4 4 9 0 4-3 7t-7 1l-4-2q-9-6-18-5zm304-130q-7 8-28 19-39 25-100 40l-1-2a383 383 0 0 0 128-58z"/><path fill="#f4c53d" d="M352 573s-11 18-25 18c-1 0-24-4-31 2q-8 4-12 19c-1 12 4 14 6 15 0 0 1 7 8 6 1 0 1 8 15 5s19-1 22-15 6-14 8-15l14-6c5-2 20-9 26-9 5-1 4-18 4-19l-14-1-7-11z"/><path fill="#010002" d="m351 572 16-12 7 11 14 2v11q0 10-5 10l-13 4-19 8-8 3-3 3-4 11q-2 8-5 12l-11 3-7 1q-9 2-13-1l-2-4q-5 1-8-3l-1-4q-3 0-4-3-3-4-2-12l5-12 6-7 1-1q4-4 19-4l13 2q8 0 17-9zm2 2-7 9q-10 10-19 9l-13-1q-13-1-17 3l-1 1-6 6q-3 5-4 11-2 12 4 13l1 1 1 4q2 3 6 2h2v1l1 3q4 3 12 1l6-1 10-3q4-2 5-11l4-11 4-4 8-3 7-3 26-9q2 0 3-9v-8l-13-1-7-11zm541-275-47 25q-52 22-76 25l-1-3q25-2 77-25l46-24zm-33 39a387 387 0 0 1-107 37l-1-2a408 408 0 0 0 107-37zm-42 40a458 458 0 0 1-83 20v-2a288 288 0 0 0 82-20zm-38 30q-47 13-59 12v-2q12-1 59-12z"/><path fill="#0081c6" d="m728 482 2 76-13-8-22 97-9-7 21-93h-14z"/><path fill="#010002" d="m729 482 3 78-14-8-22 97-11-9 21-92h-15l38-71zm-2 4-33 60h15l-22 93 7 6 22-97 13 8zm24-52q-34 5-48 5v-3q14 2 48-4zm-43 21-21-3 1-2 20 3zm-13 22q-12-3-19-9l1-2q7 6 19 9zm-17 23-6-4q-6-5-9-11l2-1a30 30 0 0 0 13 14zm-23 7-4-5-4-10h2l4 9 3 4z"/><path fill="#0081c6" d="m813 512-31 71-8-13-66 80-7-8 66-79-14-7q30-20 60-44"/><path fill="#010002" d="m815 512-33 74-8-14-66 80-9-10 66-78-14-7q32-22 65-49zm-4 3-56 41 13 7-66 79 6 7q33-38 66-81l8 13zm-182-7v-11l2-1 1 11-2 3z"/><path fill="#0081c6" d="m785 464-16 75-11-11-59 116-9-6 59-115-14-3z"/><path fill="#010002" d="m786 464-16 78-12-12-59 116-11-7 60-115-15-4 54-60zm-3 4-46 51 14 4-60 115 7 5 60-117 10 11zm-151 13v-6h3l-1 8z"/><path fill="#f4c53d" d="M397 476c-1 0-14 9-26-3-1 0-5 5-15 2q-12-4-12-10s-8 3-15-1q-9-9-7-10s-12 1-18-7c-6-9-3-17 1-18-1 0-13 3-17-9-3-10 3-14 4-14 0 0-28-1-39-10-1 0-9-5-4-12 0 0-25-4-31-13q-2 0-2-8-1-1 3-3s-28-3-37-11q-2-1-2-10l1-3s-25-2-38-11c0 0-7-5-4-15 0 0-42-2-33-24 0 0-19-1-14-22 0 0-16-3-9-19 7-15 28-7 54-4l19 2 83 14 96 149 56 28z"/><path fill="#010002" d="M397 477q-3 3-9 3-9 2-17-6l-3 2q-5 3-12 1l-10-6-2-5-4 1q-7 1-12-2-4-3-6-7l-1-3h-6q-7-1-12-7-4-7-4-13l2-4-4-1q-7-2-10-9a16 16 0 0 1 2-14l-13-2q-16-2-24-8l-4-4q-3-4-1-8l-12-3q-13-4-18-10-3-4-2-9v-2h1l-13-2q-16-3-22-9l-1-3q-2-4-1-8l1-2-13-2q-16-3-25-9l-3-4q-3-5-1-11l-20-4q-18-5-13-20l-9-3q-8-6-5-19l-7-3q-7-7-2-17 4-9 13-10l21 1 21 3 39 6 63 11h1l96 149 56 29zm-92-47q-3 1-3 5-1 6 3 11 3 6 10 7h8v1l1 3q2 4 6 6 3 3 9 2l5-2h1v1l3 5q3 4 9 5h10l3-2 1-1 1 1q6 8 16 6l7-3-5-40-56-28-96-149-63-11-80-9q-8 1-11 7-4 10 2 15l7 3h1l-1 2q-4 12 5 17l9 3h1l-1 1q-6 13 13 19l20 4h1l-1 1q-2 6 1 10l3 4q8 6 23 9l15 2h1l-1 2-1 2 1 7 1 2q5 6 21 8l15 3v2l-2 2q0 4 2 7 3 6 17 10l13 3h2l-1 2q-3 3 0 7l3 3q7 6 24 8l15 2h3l-3 2-2 3q-3 4-1 10 2 7 9 8h6zm378-88-9 4q-9 4-12 10-3 5-2 11l2 10 1 1q10 26-2 41l-2-1q12-14 2-39l-1-1v-1l-3-10q0-7 3-13 4-5 13-10l9-4z"/><path fill="#f4c53d" d="M397 368s-8-8-25-2q-1 3-9-1-6-7 1-13c12-9 16-35-2-48q-14-9-29-15a491 491 0 0 0-107-33q-8 4-9 10s-4 12 11 19l13 5s-7-2-11 6q-4 12 15 19l9 2c0 1-11 4-6 14 1 0 5 9 23 12 0 0-13 1-4 14 0 0 4 6 17 10 0 0-9 0-5 9 5 9 17 14 28 16h11c-1 0-11 5-5 15 0 0 5 6 17 7 0 0-3 10 5 15 7 3 12-1 13-1 0 0-2 10 7 16 0 0 5 3 12 1 0 0 6 13 26 7 19-8 4-83 4-84"/><path fill="#010002" d="M398 367q4 19 6 40 2 40-11 45-13 4-21-1-3-2-5-6h-9l-3-1q-7-4-8-11l-1-4-2 1a13 13 0 0 1-16-11v-5q-6 0-11-4l-5-4q-4-7 0-12l1-2h-6q-9-1-17-5-7-5-12-11-3-7 1-10h1l-10-5-4-5q-6-9-1-13l1-1q-8-2-14-6l-5-6q-3-7 1-11l3-2-6-2q-10-3-14-9t-2-11 6-7l-8-3q-9-4-11-13v-7l3-6q3-4 7-5t13 1a503 503 0 0 1 123 47 31 31 0 0 1 13 27q0 7-3 13l-8 10q-3 2-3 5l2 6q3 3 6 2l3-1q10-3 19-1zm-2 2-5-3q-9-2-18 2l-4 1q-4 0-7-3-3-4-3-8 0-5 4-8 4-2 7-8t3-13q0-15-12-24-6-5-25-14a501 501 0 0 0-110-34l-5 4-2 5-1 7q1 7 10 11l13 5v2h-4q-4 1-5 5-2 6 1 10t13 8l9 2 4 1-4 2-5 2q-3 4-1 9l5 5q6 5 17 6v3l-5 2q-3 3 2 10l4 4 12 6v2l-4 1v6q4 7 11 11a48 48 0 0 0 27 5v2l-4 3q-3 4 0 10l4 3 12 4h1v1l-1 6q1 5 6 8a10 10 0 0 0 11-1l2-2v9q1 6 7 9l3 1h9v1l5 5q7 4 19 1 12-4 9-43-1-21-5-39m285 69-5-2 1-2 6 3zm35-21-19 1v-2l19-2zm13-24h-22v-2h22zm17-25-25 3v-2l24-3zm13-28-34 8-1-3q15-1 35-8zm-67 16q5 4 6 10 3 10-8 18l2 7q0 9-10 16l-1-2q8-6 8-14l-1-7-1-1 1-1q10-6 7-16l-4-8z"/><path fill="#f4c53d" d="M398 484c0 1-2 16-25 33-1 1-18 14-18 33 1 19-3 21-10 26 0 1 14 3 21-6 0 0 0 16-2 17 0 0 4 1 11-5q1-2 8-5s-4 10-1 21q-1-1 6-5c1 0 10-1 15-15 0 0 2-10 18-17 1 0 17-4 18-13-1-10-40-63-41-64"/><path fill="#010002" d="m397 484 1-2 1 2 41 64q0 6-9 11l-9 4q-10 4-15 10l-3 5q-3 10-9 14l-6 2-5 3-1 2-1 3-1-3a36 36 0 0 1 0-20l-5 4-8 5-4 1-3-1 2-2q2 0 2-13-4 4-12 5h-8l-3-1 2-1 1-1q6-5 7-8 2-5 2-17t9-24l9-10q14-10 21-22zm2 3-4 8q-7 12-22 23l-8 10q-9 11-9 22 1 13-2 18l-6 8 5-1q9 0 13-6l2-3v4l-2 16h1l7-5 8-6h3l-1 2a35 35 0 0 0-2 18l6-3 5-2q6-4 8-13l4-6q6-6 16-11l8-3q8-4 9-9-1-5-21-35zm288-75q0 6-3 11-5 12-21 10l-1 9q-4 10-20 8l-4 7q-6 8-18 3v-2q11 3 17-3l3-6v-1h1q15 2 19-7v-10h1q16 2 21-9 2-4 2-10z"/><path fill="#f4c53d" d="M648 613s11 20 25 22c1 0 24-1 31 6 5 4 9 8 12 20 1 11-4 13-6 14 0 0 0 7-8 6 0 0-1 8-15 3s-19-4-22-18c-3-15-5-15-8-17l-14-8c-5-3-20-13-26-14-5-3-4-20-4-20l14 1 7-9z"/><path fill="#010002" d="m649 612 7 11q9 11 17 11h13q15 2 19 6l1 1 6 7 5 13q1 8-2 12l-3 3-2 3q-3 5-8 3l-2 3q-4 4-13 0l-7-2-11-5q-3-3-5-12l-4-12-3-3-1-1-7-4-7-4-25-14q-5-1-5-12v-11l14 2 7-10zm-2 1-13-13-6 9-14-1v8l3 9 14 7 19 12 8 4v1l4 4 4 13q1 7 5 10 2 3 10 5l6 2q8 3 12 0l1-2v-2l2 1q4 1 6-2l1-3v-1h1q6-3 5-13l-5-12-6-6-1-2q-3-3-17-4h-13q-9-1-19-13z"/><path fill="#f4c53d" d="M602 514s3 16 25 39c1 0 18 18 18 36-1 19 3 22 10 29 0 0-14-1-21-11 0 0 0 16 2 18 0 0-4 0-11-8 0 0-4-5-8-7 0 0 4 12 1 22q1-1-6-7c-1 0-10-3-15-19 0 0-2-10-18-21-1 0-17-9-18-19 1-9 40-52 41-52"/><path fill="#010002" d="m603 514 4 10q8 15 21 28l9 12q9 14 9 26 0 11 2 17l7 9 1 1 2 2h-3l-8-2q-8-1-12-7 0 13 2 14l2 2h-3l-4-1-8-7-5-5 1 4q2 9-1 15l-1 4-1-4-1-2-5-4q-3 0-6-4-6-6-9-16l-3-6q-4-7-15-14l-9-6q-9-7-9-14 1-6 21-30l20-23 1-2zm-2 2-38 51q0 5 8 11l8 6h1l15 15 4 7q2 9 8 15l5 3 6 5a36 36 0 0 0-2-19l-1-2 3 1 8 7 7 7h1l-2-16v-4l3 3q3 7 12 9l5 1-6-8q-3-6-2-19 0-10-9-24l-8-11a118 118 0 0 1-26-38m59 117 13 1v3l-13-1zm38 14q4 0 8 3 6 7 6 25h-3q1-18-5-23l-5-2zm-7 6q3 0 6 4 6 6 6 24h-3q1-17-4-23-2-3-5-2zm-110-76q6 1 10 7l6 4h2l-4-10-3-9-2-2 1-2 3 3 3 9 3 9 2 3 2 2h-2l-5-1q-5-1-8-5t-8-6zm23-18q6 2 9 7l7 4h1v-1l-4-9q0-5-3-9l-2-2 1-2 3 3 4 9q0 6 3 9l1 3 3 2h-3l-5-1q-4-1-7-5-4-4-9-6zm3 32q6 1 9 6l5 4h1l-3-9q0-4-3-7l-1-2 1-2 2 2q3 4 3 9 2 6 5 9l2 3h-3l-4-1-7-4q-3-4-7-6z"/><path fill="#f4c53d" d="M518 708s4 19 18 20c1 0 10 0 10-17 0 0 14 10 17-10 1 1 13 6 14-13 0 0 12 4 11-13 0 0 13 5 14-11 0 0 31-1-35-73l-60 28z"/><path fill="#010002" d="m517 708-12-90 62-28q43 46 44 65 0 6-5 9l-3 1q0 10-8 12l-6-1q1 10-6 13h-5q0 11-7 14h-7q-1 12-10 12l-7-2q0 10-5 14l-6 2q-9 0-15-11zm6 9q5 9 13 10l5-2q4-4 4-14v-2l1 1q4 3 7 2 8 0 9-11v-1h8q6-1 6-13v-1h6q6-2 5-11v-2h1q3 2 7 1 5-1 6-10v-1h1l3-1q3-3 3-7 0-19-41-62l-59 27 11 88z"/><path fill="#f4c53d" d="M511 623c1 0 10 10 17-2 1 0 9 1 12-6 0 0 7 0 9-7 0 0 10 0 10-9 1 0 20 1 0-25-20-24-52 30-52 30z"/><path fill="#010002" d="m510 623-5-19 1-1q8-13 19-24 9-9 17-12 11-3 18 7 13 16 8 23-3 3-7 3-1 6-6 8l-5 1q-2 5-6 6l-4 1q-1 5-6 6h-5q-4 8-12 6zm2-1 5 4q6 2 10-6h6q5-1 5-6h1l4-1q4-1 5-6v-1h6q4-3 4-7v-2l1 1q4 0 7-3 4-5-7-20-7-8-16-5-7 2-16 11-11 10-19 24zm33 89-5-23q-7-29-25-61l2-1a285 285 0 0 1 30 85zm17-10v-3l-3-13q-7-25-32-63v-1l1-8q-1-8-10-14l2-2q9 7 10 16v8q23 39 32 63 3 13 2 18zm14-14-5-16q-8-23-32-56h-1v-7q-1-9-10-16l2-1q9 7 11 16v8q24 32 33 56 4 12 4 17zm11-12-5-16q-10-22-34-51v-1l-1-6q-3-8-10-14l1-2q9 6 11 15l1 7q24 29 34 51 5 12 5 17zm14-11-7-16q-11-22-35-48l-1-1v-1l-1-5q-2-7-10-14l1-2q9 8 12 15l1 6q24 27 35 49 6 11 7 17z"/><path fill="#f4c53d" d="M482 702c0 1-4 18-18 15-1 0-10-3-10-20 0 0-14 6-17-15-1 0-13 2-14-17 0 0-12 0-11-16 0 0-13 1-14-14-8-3-7-19-2-26q7-14 37-38l60 46z"/><path fill="#010002" d="M483 703q0 5-4 9-6 8-15 6l-6-4q-5-6-5-15h-7q-9-3-10-15l-6-2q-8-4-8-16l-5-2q-7-4-6-14l-6-1q-7-4-8-14l-3-2q-5-4-5-10 1-19 44-53l62 46zm-2-1 11-85-59-45q-41 33-41 51 0 6 3 8l3 3h1v1q0 9 7 11 3 2 6 1h1v2q0 9 5 13l5 1h1v2q1 10 6 15l7 1h1v1q1 12 9 14h7l2-1-1 2q0 10 4 16l5 3q8 2 13-6z"/><path fill="#f4c53d" d="M489 619c-1 1-10 8-17-7-1 0-9-2-12-9 0 0-7-2-9-10 0 0-10-3-10-12-1 0-19-4 0-25 20-19 52 45 52 46z"/><path fill="#010002" d="M490 620q-3 3-7 3-8 0-12-10l-5-2q-4-3-6-7l-4-2-6-8-5-3q-5-4-6-9l-7-5q-5-9 8-21 7-8 18-2 8 5 17 17 11 15 19 31h1zm-2-1 4-17q-8-16-19-30-9-11-16-16-10-5-16 1-11 12-7 18 3 4 7 5h1v1q0 5 4 8l5 3h1v1q1 4 5 7l4 1v1l1 1q0 3 5 6l5 2 1 1q4 9 10 8zm-35 78 4-22q8-27 26-54l2 1a201 201 0 0 0-30 75zm-17-15q-1-5 2-16 8-22 32-54v-8q1-9 11-13l1 2q-9 4-10 12l1 7v1q-25 32-32 54l-3 12v3z"/><path fill="#f4c53d" d="M500 616c10 2 21 64 18 102q-2 22-18 22c-10-2-17-14-18-28-3-38 8-97 18-96"/><path fill="#010002" d="M500 614q8 2 15 39 6 37 4 65-1 11-6 17-6 8-13 6-7-1-13-10-5-7-6-19-2-28 4-63 7-36 15-35m-6 11q-4 9-6 25-7 35-5 62 2 11 6 18 5 7 11 9 7 1 11-5 5-7 6-16a266 266 0 0 0-11-91q-3-10-6-10t-6 8m-72 40q0-6 4-16 10-21 33-47v-7q2-8 11-14l2 3q-9 5-10 12v7l-1 1q-24 25-32 46-5 10-5 15zm-11-17 5-15q10-19 34-41l1-7q2-7 11-12l1 2q-7 4-10 11l-1 7v1q-24 21-33 41-5 9-6 14z"/><path fill="#f4c53d" d="M513 617q0 19-13 18-12-3-13-22 1-18 13-18c8 1 13 11 13 22"/><path fill="#010002" d="M515 617q0 9-5 15-4 6-10 5-6-2-10-8-4-7-5-16 1-9 5-15t10-4q6 0 10 8 5 6 5 15m-3 0q0-8-3-14-4-6-9-7-4 0-9 4-3 6-3 13 0 8 3 15 5 6 9 6 5 1 9-4 3-5 3-13m-115 17 7-16q11-19 35-38l1-6q3-6 12-11l1 2q-8 4-10 11l-1 5-1 1q-24 18-35 38-6 9-7 15z"/><path fill="#fff" d="M500 611s113-35 114-155c-75-9-151-24-228-33 1 119 114 187 114 188"/><path fill="#010002" d="m500 612-18-13q-22-17-40-37-25-29-39-59-18-39-18-80v-1c76 9 152 23 230 33v1q0 41-18 75-13 27-39 48a189 189 0 0 1-58 33m0-3q7-1 17-7 21-10 39-24 26-21 39-48 18-33 18-73c-75-9-149-23-226-33q0 41 18 78 14 30 39 58a303 303 0 0 0 56 49m-61-180 17 2v3l-17-3zm-36-5 18 2v3l-18-3zm71 10 17 3v2l-17-3z"/><path fill="#a60032" d="M403 425v77s9 18 18 31V428z"/><path fill="#010002" d="m402 424 20 3v109l-2-3q-9-12-18-31zm3 3v74l15 28V429z"/><path fill="#a60032" d="M439 430v126l17 19V433z"/><path fill="#010002" d="m437 429 20 3v146l-2-2-17-19-1-1zm3 2v125l15 16V434z"/><path fill="#a60032" d="M474 435v156l17 14V438z"/><path fill="#010002" d="m473 434 19 3v170l-1-1-18-14zm2 3v154l15 12V439zm-72-13 18 2v3l-18-3zm36 5 17 2v3l-17-3zm35 5 17 3v2l-17-3z"/><path fill="#a60032" d="M597 453v77s-9 16-18 26V451z"/><path fill="#010002" d="M598 530q-9 17-18 26l-2 3V450l20 2zm-3-76-15-2v101q8-9 15-24z"/><path fill="#a60032" d="M562 449v126l-18 13V446z"/><path fill="#010002" d="m563 575-17 13-2 2V445l20 3zm-3-125-15-3v139l15-12z"/><path fill="#a60032" d="M526 443v156l-17 8V441z"/><path fill="#010002" d="M528 600h-1l-18 9h-1V439l20 3zm-3-156-15-2v164l15-8z"/><path fill="#0081c6" d="m684 679-4 18 12 13-17 73-16-22-22 9 17-73 16-3 4-18q1-2 10 3"/><path fill="#010002" d="m685 679-4 18 12 13-18 76-16-23-24 9 18-76 16-3 4-18h1l3-1 8 4zm-2 0-6-2h-2l-4 18-16 3-16 70 21-8 14 21 17-70-13-14z"/><path fill="#0081c6" d="m688 667-8 16 8 16-34 64-10-25-24 1 34-63 17 1 8-16s6 1 9 6"/><path fill="#010002" d="m689 668-8 15 9 16-36 67-11-27-25 2 35-66 17 1 8-16h1l4 1q5 2 6 5l1 1zm-2-1-5-4h-2l-9 16-16-2-33 61 23-2 9 24 33-61-9-16z"/><path fill="#0081c6" d="m690 672-24 28 6 18-48 52-4-27-25-4 48-52 16 6 24-30c1 0 7 3 7 9"/><path fill="#010002" d="m691 673-23 28 5 17-49 55-5-29-26-5 49-53 16 5 24-29h1l1 1v-1l4 2q3 4 3 8zm-7-9-25 30-16-5-45 49 23 4 4 26 46-50-6-18 24-29-3-5zM93 263q7 3 27 4l101 12-1 2-100-11-28-4zm14 22 46 4 77 9-1 3q-24-2-76-10l-47-4zm33 24 32 4 75 11-1 2-75-11-32-4zm42 26 31 4 51 8v2l-52-7-31-4zm37 24 59 10v2l-59-10zm30 24 48 5v3l-48-6zm43 22 20-1 1 2-21 1zm12 23q12-3 19-7l1 3q-7 4-19 6zm18 25 4-3q6-3 9-9l2 1a26 26 0 0 1-15 13zm22 11 3-4 4-9 2 1-4 10-4 3zm26 10-2-4 1-10 2 1v11zm-4-29-1-8 3 1v7zm-48-151 9 5 13 13q3 7 3 13l-3 10v1l-1 1q-9 24 2 38l-2 2q-12-16-2-41l1-1v-1l2-9q1-6-2-12-3-5-12-12l-9-4zm-1 97 6-2 1 3-5 1h-1 1zm-33-25 19 2v3l-19-3zm-13-25 22 2v2l-22-1z"/><path fill="#369443" d="M312 630c0-1 0-10 12-10l37 54c0 1-2 3-18 2l-3 1c-2 2-27-47-28-47"/><path fill="#010002" d="m311 630 2-6q3-5 11-5h1l37 55v1q-3 4-19 2l-2 1-1 1-1-1-1-1-4-5-9-17zm3-1 13 25 12 21 1 1 3-2 15 1 1-1-35-53q-7 0-9 4zm-59-313 24 4v2l-25-3zm-14-27 35 7-1 3-34-8zm68 23-4 7q-3 9 7 17l1 1-1 1-1 6q-1 9 8 16l-1 2q-10-9-10-18l2-7q-11-9-8-19 2-5 6-8zm7 54q0 6 2 11 5 11 21 12h1v10q4 9 19 10h1v1l3 8q6 6 17 6v2q-12 1-18-7l-4-7q-16-2-20-12l-1-9q-16-2-21-13l-3-12zm24 227q-4 1-13-1v-2l13 1zm-39 9-5 2q-5 6-5 23h-3q0-18 6-25l8-2zm8 7q-3 0-5 2-5 6-4 22h-3q0-17 6-24 3-3 6-2zm110-54q-5 0-8 4l-8 3-5-1h-2l2-2 2-2 3-8 3-9 3-2 1 3-2 1-3 8-3 8-1 1h2l6-2q4-4 10-5zm-22-24-9 4q-3 3-7 3h-5l-3-1 3-1 2-2 3-8q0-6 3-9l3-2 1 2-2 2q-3 3-3 7l-4 10h1l7-2q3-5 9-5zm-4 31-7 4-7 3-4-1h-3l2-2q4-2 5-9 0-4 3-7l2-2 1 2-1 2q-3 1-3 6l-3 8h1q3 1 5-2l9-4z"/><path fill="#162667" d="M614 369s-55 22-114-19c-33 13-66 7-88-1-16-6-26-13-26-13v87c75 9 151 23 228 33z"/><path fill="#010002" d="M615 367v90c-76-9-152-24-230-33v-90l1 1 10 5q12 6 25 10 42 13 78-1h2a128 128 0 0 0 103 22l10-3zm-2 4-8 2q-12 3-26 3-42 1-79-25-37 15-79 2a167 167 0 0 1-34-15v84c75 9 149 23 226 32z"/><path fill="#0081c6" d="M101 573q10-5 10-13l-2-9-38-105-4-11q-3-4-10-3l5-2 38-12 5-1q-9 5-10 13l2 8 28 84 29-97 1-9q-1-7-9-9h4l37-6h4q-6 3-9 7l-5 14-37 122-2 10s-2 7 9 9z"/><path fill="#010002" d="m101 572 6-5q3-3 3-7l-3-8-37-105-4-11q-1-2-9-3h-5q28-12 58-19l-5 4h-1l-6 5-2 6 2 8 27 81 28-93 1-9-2-5-6-2h-1l-5-2 57-8-5 3-9 7-4 13-38 122-2 10 1 3q1 4 8 5h8q-30 5-60 14zm6-1 35-8-5-4v-5l2-10 37-123 5-13 5-5-33 6 4 7-2 9-30 101-29-87-2-9q0-4 3-8l3-3-36 12 4 3 5 11 37 105 2 10q0 5-3 8z"/><path fill="#0081c6" d="M893 572V440l-1-5-8-4 4-1 34-10 4-2-8 10-1 5v132l1 5 8 4-4 1-34 10-4 1 8-9z"/><path fill="#010002" d="M892 572V440l-1-4q-2-3-8-4l-5-1 56-16-7 4-8 9-1 5v132l1 4q2 3 8 4h4l-52 16 4-4q6-4 8-8zm3-1-2 7q-1 3-5 6l34-10-5-3-1-6V434l1-7 5-6-33 10 4 3 2 6z"/></svg>