<svg xmlns="http://www.w3.org/2000/svg" viewBox="0 0 1000 1000"><path fill="#fff" d="M8 195.3c170.8-85.3 341-54.5 513.3-28C676.5 191 833.4 211.8 992 132.7v672c-170.8 85.3-341 54.5-513.3 28C323.5 809 166.6 788.1 8 867.2z"/><path fill="#d42e12" d="M249.4 280.6v-73.2h23.3l15.3 56 15-55 23.4 1.4V283l-14.8-1v-59l-15.5 58.3-16.2-.6-15.7-59.2v59zm121.5-52-10.6 30 21.2 2.4zm-9.2-15.6 18.2 2 27.6 76.6-16.5-2.1-5.2-15.7-29.7-3.3-5 14.6-16.6-1.5zm88 84.5-15.8-2.3v-27.3L406 218.2l19.2 2.6 16.4 34 15.2-29.4 18 2.7-25.3 42.1zm44.7-29.7a33 33 0 0 0 5.7 19.6 23 23 0 0 0 15.6 9.1c7 1 12-.3 16-4.2 3.7-4 5.5-9.7 5.6-18q-.2-11.8-5.7-19.5c-4-5-9-8-15.9-9.1s-11.7.3-15.7 4.2c-3.7 4-5.5 9.7-5.6 18m-16-2.6c0-12 3.3-20.5 10-26.5 7-6 15.8-8 27.4-6.2A44 44 0 0 1 543 247c6.8 8.2 10.1 17.7 10.2 29.7s-3.4 20.4-10.2 26.6c-7 5.9-15.7 8-27.3 6.2a44 44 0 0 1-27.2-14.6 45 45 0 0 1-10.1-29.7m103.2 52v-60l-22.7-3.3v-13l61 8v13l-22.6-2.7v60.1zm63.2 7.6v-60.2l-22.7-2.4v-13a1238 1238 0 0 0 61 5.5v13l-22.6-1.6v60.1zm47.3 3.6v-73.1q27.4 1.5 55.6 1.2v12.8q-19.7.2-40-.6v15.6q18 .7 36.6.6v12.5q-18 0-36.6-.6v18.8q20.6.9 41.9.6v13.5q-28.4.3-57.5-1.3"/><path fill="#dfdfdf" d="M297.4 334.8c-6.7.7-11.6 2.4-18.4 6.3-2.2 1.3-4 2.1-4.5 2q-.6-.4-1-2.6a11 11 0 0 0-1-3.2c-1-1.3-1.7-.4-3.5 4.2-.8 2.1-1.7 4.2-2 4.5-1 1-1.8.7-3.3-1.1s-3.2-2.2-3.9-1c0 .4 0 1.9.3 3.4.6 4.6-.4 5.1-4.4 2.2-3.4-2.6-4.5-3-5.9-2.4-1.3.8-1.2 1.6.5 5.7 1.3 3.5 1.6 5.8.1 4a12 12 0 0 0-3.9-2.6l-6.2-3.2-5-2.3c-2.3-.6-13-1.6-14.2-1.4q0 .4 3.4 2.7c4.8 3.3 13.2 11 13.6 12.1 0 .7-.5.8-3.8.6-4.3-.2-4.2-.4-3.2 4.2q.5 2.4 0 2.9-.4.3-3.9-.1l-3.8-.6c-.6.4-.3 3.6.6 7 1 3 1 3.3.2 3.9-1 .7-1.9.4-9.1-2.5-4.3-1.7-5.3-2-7.6-1.7-1.5.2-3.1.6-3.9 1l-1.3.9 3 3c3.7 4 7.2 8.9 7.9 11 .8 3.7-2.3 4.3-14.1 3.9q-9.6-.4-12.8 1.7c-1.8 1.3-7 7-7.3 7.8.2.2 2.6.2 6 0 7.1-.4 12 .3 16.3 2.3 3.9 1.9 3.8 2.3-.5 2.7-3.6.4-5.5 1.1-7.5 2.8-.9.8-.9.9 0 1.8q2.3 2.1 7.3 2.6c1.6.1 3 .3 3.1.4l-3.2 1c-5 1.3-11.7 4-15 6.2-3 1.9-3.2 2-3.8 6.6l-.3 1.8 1.5-.5c2.5-.7 14.3-2.2 16.4-2q4.5.6-2.5 2c-5.8 1.4-9 2.5-10.6 3.4l-1.2.8 2.5 1c1.4.5 4.6 1.2 7.2 1.5 11 1.3 12.3 2.4 3.1 2.8-7.7.4-10.2 1-10.3 2.1.6 1.4 4.7 3 9.7 4q4.4.8-3 1.8-6.7 1-9 4.1c-.9 2-.3 7.3.9 8.5q.5 0 1.2-.6c.5-.5 2.4-1.7 4.3-3 3.6-2 3.7-2 8.8-1.7q3.3.3 5.8 5.2a43 43 0 0 0 3.6 5.5l3.1 3.7c1 1 1 1 0 3.2-.6 1.1-1.1 2.5-1.3 3-1.3 2.9-14.8 3-26.5.5-4.5-1.1-11-3.6-14.1-5.4l-2.3-1.4v1.9a24 24 0 0 0 7 14.7l2.3 1.8-2.3 4.8c-2.9 6.1-3 8-.9 10.1q1.3 1.3 1.2 2c-.2.5-1.4 1.5-2.7 2.5-4.3 3-4 2.8-2.3 3.5.9.3 3 .5 5 .4q3.3 0 4 .4 1.2 2.6-5.5 8c-.7.5-.2.5 2.8.6l6.7-.1 3-.3-1 2a23 23 0 0 1-5.3 6.2l-1.3 1h1.5c.8.1 2.4-.2 3.6-.5a21 21 0 0 1 8.8-.7c1.2 1.2.3 3.3-3.5 7.5l-3.2 3.5 2.1.1c4 .1 8.7-1 11.4-2.5q2.3-1.3 2.7-1.3c.3 1-1.9 7.4-3.6 9.9q-.5.8-.3 1.2a37 37 0 0 0 12.4-1.5l1.8-1 .1 2.3c0 1.7-.3 2.6-1.2 4l-1.2 1.6 1.3-.1c3.2-.4 10.1-3.1 12.9-5.2 1.7-1.2 1.8-1.2 1.8.6-.1 2.1-1 4.8-2.1 6.3-1 1.2-.8 1.2 3.8-.2 4.2-1.3 7.7-3 9.7-4.3 1.7-1.3 1.9-1.2 1.5.8-.5 2.5-1.3 3.7-3 4.9q-1.5.6-1.3 1c.6.1 10-1.5 12.5-2.3q2-.9 3-1.6 1-1.2.8.4c0 .7-.5 2.2-1.2 3.5l-1.2 2.5q.6.4 5.6-1.8a17 17 0 0 1 4.3-1.4q2.5.2 4.9 3.8c.9 1.3 2 2.2 4.4 3.5l3.2 1.7.2-2c.4-1.9 8-22.2 8.8-23.2.4 0 9.5 6.4 18.8 13.8 5.5 4.6 18 18 21.8 23.5 10.2 15 13.4 25 13.6 40.9a78 78 0 0 1-2.6 21.6 76 76 0 0 1-25.7 42c-7.7 5.3-16.3 6.7-32.9 6-20.1-1.1-32.2-4.9-41.7-13.8a48 48 0 0 1-13.7-35.2c0-11.8 2.6-19.8 8.2-26.5 5-5.6 10-8.5 16.7-9.9 6.6-1 13.3 1 18 5.1 3.1 3.1 3.2 4.3.8 9.4-2.1 4.5-2.3 5.5-1 7q2.1 1.9 7-.2 6.4-3.3 6-14c-.4-6.5-3-10.3-9.6-14a33 33 0 0 0-19.3-3.6c-8.1.2-9 .4-12.9 1.8-8 2.9-12.5 6.3-16.3 11.8-8.5 13-13 34-10.4 47.4a68 68 0 0 0 15.6 29.7c13.4 15 30.6 21.3 55.9 22a79 79 0 0 0 45-10.4c14.7-8.8 24-20.3 32.1-40 2.2-5.3 3-8.6 3.4-13.4q.4-3.8 1-4.7c1.7-2.3 2.4-8 1.3-12.4l-.7-2.4 1.4-1.2c2.5-2.4 2.3-6.8-.6-10.9l-1.3-1.7 1.5-1.4q3-3.2 2.6-11.1c-.4-4-1.9-8.5-2.8-9-.9-.3-.3-1.3 1-2 2.2-1.3 3.2-3 3.3-6-.1-6.2-2.4-14.7-4-16-.8-.4-1-1.5-.3-1.5 1.2-.4 2.4-4 2.8-8.3q.3-7.8-2.8-11.5l-1.3-1.6 1.4-3c1.3-2.5 1.5-3.2 1.3-5.4-.8-5.4-6-14.8-10.2-18.3-1.5-1.2-1.8-1.7-1.9-2.9q-.3-5.1-6.9-13.3a28 28 0 0 1-6.9-11.2c-.7-2.3-1.3-3.4-3.3-5.6a34 34 0 0 0-10.1-6.9q-.9-.2-1-1.4a16 16 0 0 0-7-10.2c-1.6-1-1.8-1.2-1.8-2.6-.2-2-1.6-3.9-5.4-6.9A40 40 0 0 0 289 447c-18.4-2.2-26.2-5.1-35-13.8a31 31 0 0 1-9-15.8q-2.3-8.8-.3-15.4a38 38 0 0 1 4.7-9.1l-.6 3.4a38 38 0 0 0-.3 15.7q2.5 7.6 8.9 11.1c3 1.5 4.3 1.8 9.3 2.4 5.3.6 8.4 1.6 10.3 3.2 2.8 2.4 8 2.8 13.6 1.2 1.5-.5 4-1 5.9-1l3.4-.2 4.3 3.3c4.5 3.4 24 15.9 27.4 17.6 6.6 3 13 1.9 16.2-2.7 2.3-3.8.3-7.4-9.9-17.8-8.3-8.4-10.1-11-11.3-15.5-.5-2-2-6-3.4-9.3-3.4-7.9-3.5-9-.3-12.3a15 15 0 0 0 3-4.1c.8-2 1-5.5.7-6.4-.5-.1-3.3.2-5.1.7-.5.1-.6-.5-.5-3.8q0-4.1-.4-5.6l-.6-1.5-1.7 1.5q-2.6 2.5-3.6 1l-.7-3c-.6-3.5-2.2-7.4-2.8-7.4l-1 2.1q-.4 1.6-.9 1.8-.2-.3-.7-2.6c-.5-4.2-1-5.8-2.3-7.2q-1.3-1.4-1.6-.5l-.5 1.9c-.1 2.1-1.3 6.2-3 9.8-3.6 6.7-6.5 6-13.2-3.2-3.8-5.3-4.2-6.7-3.3-9 2.8-5.4 12.8-12 22.7-14.9q3-.8 3.4-1.2c-.3-1-2.3-3-4.5-4.3-2.4-1.2-5-1.5-9-1.2"/><path d="M200.5 432c2.5-2.3-11.1-.4-14.5 0-2.1 1-4 1.9-4.6 1.8q-.6-.5.5-6.7 3.4-3.1 7.2-4.5c2.3-1.2 4.4-2 7.2-3.1 2.6-.5 3.4-.5 7.1-1.7-4.4-.3-7.2.4-11.7-3.7 1.7-1.4 2.4-2.6 4.5-3.4s2.9-.7 4.6-.8c3.3-.3 4.2.2 2-1.2a28 28 0 0 0-11.2-3.4 111 111 0 0 0-13.6.7c1.6-3 4-5 5.6-7 2.9-3.5 8.4-4.1 17.6-3.5 14 .5 15-1 6-12l-5.7-6 3.6-1.7 4-.4c3.7.7 8.5 3.2 11.4 4.3 4.7 1.6 4.4 0 3-3.9-1.2-3.2-.5-3.2-.9-6.8 2.8 0 7.9 1.7 8.5.5-.1-1.8-.8-3-1.3-7 2 0 6.5.2 7.6 0 .7-.5-1.3-2.3-3.9-4.6l-6.2-5.5-8.8-5.6 13 1c4.2.1 10.4 4 13.9 5.9 1.7.8 3.2 1.2 4.3 2.2 2.1 1.1-.2 3.1 1.2 1 .4-1.6-2.7-6-2.6-8.6 3.5-5 8.8 3.7 10.7 2.9 2.3-1-.9-6 .8-8 3.2-1.2 4.6 3.9 6.4 3.4 1.4-1.5 3-8.8 5.2-10.2 2.7 0 1.5 7.4 3.3 7a50 50 0 0 1 18.6-8.2c3.3-.4 7.1-1 10.5-.4a11 11 0 0 1 7.3 6.2c-4.5 1-5.2 1.1-9.8 3a46 46 0 0 0-13.6 8.6c-4.8 5.5-4.8 6 .6 13.3 7.1 10 10.3 9.6 14.2-1.5 1.4-4.4 1.2-7.1 1.8-8.7.5.4 2 1.2 3 2.7.7 1.6 1.5 7.2 1.5 8.9q1-.7 2-5.4a54 54 0 0 1 2.8 6.3c.5 2 .2 5.6 1.9 6.1 1-.1 2.2-1.7 4.3-3.7 1.8 4 1.6 8 .9 11.5 1.5-.4 4.4-1.1 5.9-1.2q.6 2.9 0 5.5c-1 2.3-1.4 4.1-3.6 5.8-3.5 3-3.5 4.4 0 11.6 2.3 4.7 3.9 9.7 4 11.8a49 49 0 0 0 11.8 14.2c8.2 8 10.8 12.4 9.8 15.7-3.2 6.8-11.5 8-19.9 3L310 436.7c-4.5-2.9-7.5-5.7-10.2-7.6-4.4-.2-7.6.1-11.5 1.8q-9.1 1-11.5-1.7c-1.5-1.8-5.6-3.3-10.1-3.4-11.8-.4-18.9-7.6-19.6-19.2 0-5 .5-8.1 2.1-13.8-6.3 10.6-6.7 15.1-4.4 24.3 3 13 15.4 28 43.8 29.5 5.4.4 9.8 2 14.9 3.4 3.5 2.3 9.6 6 8.7 10.9 5.4 2 8.6 7.3 8.9 12.1 12.9 5.2 14.5 12.5 14.6 14.2.2 1.6 3 6 7.2 10.4 4 4.5 6.5 10.5 6.2 14 4.4 3 6 6.4 8.8 10.5 2.5 5.2 6 11.1.5 18 5.9 3.5 5.6 19.3 1 22 3.3 3 4.1 8.7 4.9 17.1 0 3-.8 4.9-5 6.9q1.5 1.2 2.6 4.5.9 3.4 1 7.4-.2 4-1.2 7-1 2.9-3.4 3.3c5.3 4.5 5.2 12.8.6 13.9 2.5 5.5 1.8 13.9-1.5 15.9.6 9.8-3 16.1-5 21q-6 14.8-15.6 24.8a76 76 0 0 1-23.6 16.1 104 104 0 0 1-74.2-2 66 66 0 0 1-34.4-46.2c-2.4-17.2 5.5-42.4 15.9-51.4 17-13.3 47.9-9.6 53.1 5.8 2.2 8-.5 16.4-6 18.9-7.4 2.3-10-.7-6.1-7.5 2.8-5 2.6-6.3-2-10.3-14.3-10.1-34.2-.6-39.6 18.3-5.9 24.3 3.4 46.8 22.8 56.4 16.3 7.7 48.7 9 60.4 2.4 22.5-13.7 36.5-51 29.7-81.5-4-16.6-19.3-37.7-39.6-52.6l-12.7-9.6-4.6 12c-2.5 6.4-4.4 9.8-4 13.9-3.8-2.3-5-2.1-7.7-4.5-1.3-2.9-3.1-5.4-6.5-4.8-.7.3-5 2.7-9.4 3.6 1.6-3.6 2.8-3.8 2.8-7.3-2.6 3-8.8 3.5-17.7 4.8 6.7-4.3 5.6-4.9 6-8.3-2.8 3-9 5-16.5 7 3.7-4.5 3.2-5.6 3.5-9.4-4 4-12.8 6.5-16.5 6.7 3-3.8 3-3.7 3-8.2-3.6 2.8-9.4 3-15.2 2.6a20 20 0 0 0 4.7-11.6c-4.8 4.6-11.7 4.5-16.7 4.3 3.8-4 6-6.1 7.2-8.4 1.3-2.9.6-3.5-4.1-3.1-3.3.5-5.4 2.4-10.1 1.4 6.6-4 8.9-12.3 10.2-13 6.1-.6-8.6 11.5 4.5 8.3a30 30 0 0 1 7.2-1l-3.5 5c-1.5 2.7-2 5.5-5.8 8.2 3.4-.3 5.8-.3 8.1-2.2s2.3-2.6 6.8-6.4c.6 3.5.3 4.2 0 6.6-.7 4-1.3 5.2-2.6 8.5 5.2.6 7.8-1 9-3.3 1.3-1.6 3.2-4.9 5.6-6 1 3.1 0 3.3-.4 6l-2.3 8.2a23 23 0 0 0 11.4-7.9c5.4-5 5.4-5 3.7 1.3-.7 4.2-.6 5.1-2 8.8a19 19 0 0 0 11.8-7.6c3-4.5 3.2-4.3 2 1.4 0 3.8.4 4.4-.4 8 4.5-1.1 7.5-2.8 10-6.7 2.9-4.4 3.1-4.2 2 1.5-.6 3.6.4 4.2-1.5 8 5-2.2 5.2-1.7 7-4.5 1.4-2.1 2.9.6 5.3 5.2 2 3.4 3.3 3.7 4.8 3.9.5-2.6 1.4-4.3 3.7-9.9a64 64 0 0 0 4-12.3l-15.8-8.8c-8.6-4.3-15-8.6-15.3-10.5q-.2-2.4-3.5-2.6c-5-.3-16.2-11-16.7-15.6-.2-2.2-2.6-6.8-5.8-10.7-4.4-5.6-9.1-7.4-22.2-7.8a80 80 0 0 1-21.7-4.4c-2.3-1-2.7-2-4.5-2.5 0 1.8 1 6 4.3 9 2 1.8 3.7 2.1 5.5 3-1.6 1.9-2.8 5-4.1 7.5-2.9 5.2-2.9 6.4 1.2 7.5 3.7 1.2 3.7 1.9.5 4.4-1.3 1.2-3.2 2.2-4.6 3.2 2.2.3 3.8.2 8-1.3 5.2-3.8 5.4-3 3.3.6-1.8 3-3.2 6.2-5.8 8.9 3-.3 4.4-1 7.2-2.3 3-1.5 5.1-2.5 3.4 2.3-2 3.3-.8-1.6-2.7 2.8-3.1.8-10 1-15.2.4 4.6-3.3 6.2-5.4 6.9-6.8.6-2.8-1.4-2.4-4-2-1.1.1-4 .8-6.8-1.5 2.2-1.5 5-3 7.1-5.6-5.6-3.2-2.6-8.2-1-11.2 1-2.2 1.2-3.2 2.5-5.5-2-.2-4.3-2.9-5.8-5.3a24 24 0 0 1-3.5-13.4c4 2.5 5.4 3.3 7.9 4.3 4.2 2 12.9 4 20.8 4.6 8.2.4 14.2-.1 14.7-3.1.3-3 2.8-2.9.8-5.1a31 31 0 0 1-7.8-11.8c-2.7-2.8-5.5-2.8-9.8-2.4-2.3 1.4-6.2 3-8.4 6-1.9-1.2-2.7-6-2-9.3.9-1.4 5-3.9 8-4.5 2.7-.3 4 .2 6.5-1-2.8-.5-4.3-.4-7.3-1.5-2.8-1.1-4.8-1.6-4.7-3.3 1.1-2 14.2-2.1 16.7-2.2 1.6-.3-3-1.6-6.6-1.8-2.4-.6-7.4 0-12.7-3.2 4-2.8 5.8-2.3 9-3.6zm4.7.8c-2 2.3-14.4 3-11.2 3.8a44 44 0 0 1 14.3 4c.2 2.8-2.8 4-3.1 4.2l-13.6-.2c.6 1.6 12.3 1.5 12.7 4.3 0 1 .7 2.4-3.7 2.5-4.1.5-8.9.7-12 2.5-2.2 1.6-2.4 3.7-1.8 6 2-2 5.1-3.6 6.9-4.4 3.8-.8 6.2-.3 8.8.6 2.6 1 4.1 1.9 6.4 6.1 1.7 3.8 6 7.6 10.4 9.4a33 33 0 0 1 15.3 9.3c3.7 5 6.4 8.7 15.2 14 8.3 7.9 1.5 5.3 5 5.6 10 1.6 15.2 4 17 6.3 2.3 2.4 6.6 5 10.5 6.2 4.2 1.4 6.9 3.3 7.2 5q.4 2.7 4.6 3c6.6.8 34.2 32 39.8 45 9.8 23.7 11.5 32 11.6 54.3-.4 14.8-2.1 27.8-4.6 33.8-6.1 13.6-30.2 39.2-37 39.3l-2.2.4c-.6.9-1 1-3.2 2a32 32 0 0 1-12.6 2.1q-7.7-.1-18.2-1.7c-7-1.1-13.7-2.5-18.9-4.2-5-1.7-6.8-2.5-8.4-4-.5-.5-1.5-1-1.4-3.2-1.3 1-3.3.9-6.4-1.7-2.5-2.2-4.4-3-3.4-5.3-3.2-.3-3.7-1.4-6.2-5-1.7-2.3-3.2-4-2.6-7.5-2.3.3-3.2-2.2-4.5-5.3-1.2-2.7-2.8-5.5-.6-7.2-2.7-.1-2.3-3-2.6-5.6-.3-2.7-.9-5.7 1.8-7-2.7-1-1.7-3.5-1.2-6.5.6-4 1-5.7 3.3-6.5-2-1.2-1-4.3.6-9.5 1.3-4 3.4-5.3 6.6-5-2.3-2.5 1.9-5.6 3.4-6.9 3.4-2.8 6.2-3.7 7.2-2.2.5-3.2 10.1-3.7 14.8-3.4 4.2.6 7.7 2.4 11.7 5.6 6 5.2 6.3 6.5 3.2 11.9-3.6 6.9-1 8 4.6 2.6 5.7-6 4-13-4.3-20.1-6.5-5.3-10.6-6.2-21.7-5.1-19.4 2.7-27 9.4-32.6 28.2-8.5 31.5 3.2 59.6 29.2 72.1 11.6 5.3 18.4 6.6 37.2 7 27.6.1 44.2-5.2 60.3-22 10-10.5 20.5-37.2 17.3-43.3-5.4-3.1-.1-2.4 1.8-2.3 2.3-.5 3-11.2-1.1-14.5 8.5.2 4-10.1-1.2-13.3 4.8 0 6.8-3.8 7-9 0-5-1.8-9.8-5.8-11.7-2.8-1.4-.3-1.7 2.6-2.2 3.5-.5 4.5-.7 4.2-7-.5-4.3-2-10.5-4.7-12.4-3-1.5-7.4-2.3-10-2.8q4.7-1 8.4-1c5.2-2.3 6.8-11.8 2.3-15.8-5.2-3.1-15.9 1-17-1.1 2.4-2.1 9.2-2.6 12.5-4.4 4-3.7 7.2-6.7 1-16.7-3-5.4-2.7-6.4-6.3-8.3-4.9-.3-15.3 5-23.3 4.4 3.8-2.7 16-4.6 20-7 3.8-3 1.2-7.2-3-13-5-4.9-6.9-5.3-13.3-2.9-4.4 1.4-11.2 2.8-18.6 3.7 3-2.7 15.8-5.5 18.9-7.5 5.4-3.8 5.4-5.3.2-11.8l-7.7-3.8-8.7 4.2a61 61 0 0 1-16.2 4.7c.4-.5 8.8-4.2 13.6-6.7 5-2.6 7.7-5.8 7.9-8-.3-7.5-6.4-8.8-16.9-2.1-5.6 3-17.6 6.2-19 5-.3-2 8.3-3.4 13.6-5.6 5-2.7 13.1-6.7 13.6-9-1.3-4-6.3-7.4-29.2-10.8-17.2-2.5-25.8-7.8-33.5-20.4-9.1-15.4-7.5-28.4 4.9-41l10.4-10-6 9.4c-11.2 17.1-6 35.9 10 36.4 4 .1 9 1.6 12.2 3.7 4.2 2.4 7.4 2 10.9 1.2l5.5-1.5 2-.4-8-5.8c-9.1-5-12.6-13-7.9-18.3q2.8-2.3 1.5 4.8c-1 5.8 0 8 4 9.9 3 1.6 8.6 5 12.4 8.1a290 290 0 0 0 31 21.7q1.1-.5-3.8-7c-3.1-3.9-1.5-3 3.7 2.3 8 7.7 10 8.7 13.9 5.8 6.3-4.8 5.5-7-5.5-15.2a35 35 0 0 1-13.6-18.2 94 94 0 0 0-5.7-14.6q-2.4-3.4 1.7-7c2.5-2.2 4.7-6.3 4.6-8.3q-1.5.2-3.2 1-2.4 1-2.8-3.1c0-1.4.8-6.3.7-7.6-.8 1.3-2.8 3.9-3.6 4.4-1.6.7-3 0-3.2-2.2-.5-4.3-1-5.6-1.3-7.7-.7 1.2-3.7 5.2-5 6.4 1-3.5.2-13.5-.2-14.8-.2 2.8-1.6 7.7-2.1 9.5-3.1 4.3-3.8 5.1-7.3 6.1-3-.1-4.2-1.2-8.4-6.3q-6-7.7-6.7-11.5c.3-3 8.4-12.7 18.7-16.5 4.3-1.4 4.9-1.8 7.5-2.4-.7-.2-1.8-1.2-4.9-2-1.8-.4-8-.6-12.6 1.2-4 1.2-12.5 4.8-16.7 8.9-2.1-.5.2-6.4-2.3-6.1-2.2 1.5-1.9 8.5-3.7 10-3.3 1.2-3.7-3.4-5.2-4-1 .7.7 6.4-1.5 8.5-2 .2-7.6-5.8-8.5-5.4 0 1.2 4 6.8 3.2 8.1-1.7 1.6-1.5 3.1-5.4 1.8-3.4-1.7-17-9.8-20.7-9.7 3.3 2.1 6 4.7 9.6 8 5.9 6 7.3 6.7 2.8 7.6-4.4-.7-5.3-1.8-7.5-.4-.7 1 .5 6-.5 7.3-1.5.6-6.2-.5-6.9-.2-1.7 2.6 1.3 5.1.4 8.8-1.8 5.1-2.5 5.1-8.3 1.3-5-3.2-10-5-10.7-3.8-.1 1.7 1 2.4 3.7 6 8.4 11.8 6.1 13.9-10.4 13.6-.5-.1-12.7-2.5-17.4 4 4.2-1 13.3-.2 16 .7 1.4.5 4.3 2 7 4 1.1 1 .5 1.7-.3 4.1q-4.4 2-9.8 2.4c10.8 3.3 9.7.2 13.6 1.9-3 4.9-4.9 4.7-14.5 7q-3.5 1.8-7.3 3.1c-2.8 1.3-4.1 3.1-3.6 3.5.6 0 3.2-.7 6.2-1.4 3.4-.3 1.7-.2 9.4 0 3.7.8 5 3 4.5 4.7"/><path d="M303.4 402.1q-.1 2.9-2.2 3-1.8-.4-2.2-3.2.4-2.8 2.2-3 2 .4 2.2 3z"/><path d="M308.9 405.1q-1.3 3-4.3 4.3c-2.2.7-4 .7-6.3-.1a9 9 0 0 1-4.5-4.5q-1.4-3.1-.2-6.2 1.3-3 4.3-4.3c2.2-.8 4-.8 6.2 0q3.1 1.5 4.6 4.6t.2 6.2l-2.1-1q.8-2.1-.1-4.4a6 6 0 0 0-3.3-3.2 6 6 0 0 0-4.6 0 6 6 0 0 0-3.1 3q-.8 2.3.1 4.4a6 6 0 0 0 3.3 3.3q2.3.9 4.6 0a6 6 0 0 0 3-3z"/><path d="M281.8 391c4.3-2 9-2.1 15.1-.1q4.4 1.5 7.7 3.7l-1.1 1.9q-3-2-7.2-3.5c-5.6-1.8-9.7-1.8-13.4 0z"/><path fill="#dfdfdf" d="M214 478c-.2-1.7.4-2.4 3-4.3a26 26 0 0 1 11.8 5.1c5.8 5 6.7 7 10 11.4-1.4 2.7-2.2 3.4-4.8 6-2.5 1.8-4 2.9-5.8 3.8-1.5-4.3-3-6.4-7-11.3-2-2.6-7-4.6-9.8-6.4.7-2.2 1.6-2.5 2.7-4.4m21.7 19.8c2.5-2 3.4-4.2 5.1-5.5 2.5 1 1.9 1.3 5.8 3.2 4.2 2.7 2.8 2 6 6.6-1.4 2.7-2 4-4 6.9-2.3 2.1-2.4 3.5-4.4 6.2a17 17 0 0 1-9.5-5.8c-2.3-2.5-4.4-2.7-5.6-7 2.7-2 4.9-3 6.6-4.6m15 12.2c2-2.8 2.5-4.7 4-6.7 3 .3 5.3.8 8.8 2 4.7 1.2 5.3 2.5 7.8 5.3-1.2 2.7-1.6 6.1-2.6 11-.8 3.4-1.4 5.3-2.8 8.4a72 72 0 0 1-10.1-5.4c-3.6-2.2-6.6-4.2-8.3-8.7 1.7-3.3 1.7-4.2 3.2-5.9m20.7 13.3c.8-3.9.9-7.7 2.6-10.8 2.9.6 2.5 1.3 5.9 2.6 3.7 1.7 5.8 2.2 8 6.2-3.3 3-3.8 2.5-5 7.4-.5 3.5.5 8.1-.6 11.2-3.9-1.9-4.3-2.7-7.6-5-3.5-2.2-3.8-1.4-6-3.6 1.2-3.9 2-5.8 2.7-8m14.3 5.7c1.7-3.4 2.3-4.1 4.2-5.7 3.5 1.4 4.8.8 8.2 3.8 3 2.4 9.5 8.2 12 11-2.4 1-4.4 1.8-7.3 5.3-2.6 3.6-2 4.5-3.5 8.5l-7-4.9c-2.7-2.7-3.9-3.5-7-5.9 1-3.7 0-9 .4-12m19 16.7c1.9-3.3 4-4 5.9-5.4 3.4 1.7 4.8 4.6 8 7.9 4.1 4.9 4.8 5.7 6.7 8.6-3 1.3-3.8 1.4-6.5 3.7-2.9 2.3-3.6 2.4-5.6 4.4-2-2.5-1.7-2.3-4.4-5.1s-3.1-2.8-6.8-6.4a50 50 0 0 1 2.7-7.7m16 17.4q3-2.1 5.5-3.5 2.5 2.8 4 5.9c1.6 2.2 1.8 2.6 3 5.5-3 1.3-2.6 1-4.8 1.9-2.2 1-3.2 2-5.7 3.5-2-2.5-.6-1.5-3.3-4.4-1.3-1.8-2-3-4-5.3 2.9-2.4 3.3-2.7 5.2-3.6m7.9 12.5 5.5-2.2c1.3 2.7 1.7 3.1 2.6 5.3l2.1 5.9c-2.2.7-2.9.8-4.4 1.4l-4.8 2.3c-1.7-3.3-1.6-2.6-2.6-4.5s-1.4-2.5-3-5c2.3-1.7 3-2.3 4.6-3.2m6 12.7c2.4-1 2.4-.7 4.4-1.4 1.2 2.8 2.3 7.4 3 10.3q.8 4.8 1.1 10.7c-2 .2-1.2 0-3 .3-2 .2-2 .2-4 1a59 59 0 0 0-6-19c2.1-1 3-1 4.5-1.9m5.2 22.3 3.1-.1c.3 5.5.3 6.9.2 12.4-.4 5.7-.5 10.4-1.4 16.2-1-.4-1.3-.7-3.1-1s-1.8-.3-3.7-.3c1.3-5.4 1.4-7.3 1.8-13.8.2-5 .1-6.7-.2-12.5zm-2.6 30c.8 0 2.6.3 4.2.3a50 50 0 0 1-6.3 18.9c-3.8 5.3-7.5 10.3-12.4 15.4l-1.6-1.7c-.5-.6-1-.8-1.6-1.5 5.5-7.1 6.5-9.3 9.8-16a87 87 0 0 0 5-15.9c1.5.8 1.7.8 3 .6M319.7 675l1.9 1.5c-2.3 2.6-3.9 4-8.2 8.1-3.2 2.3-4.2 4.2-10.7 6.7l-1.2-1.7-1-1.8c3.5-1 7.2-3 9.9-5.5 4-3.5 5.1-5 8-8.4zM299 690.6c.5.9.4 1 .8 2.1-3 1.7-3.6 1.8-11 3-9 0-12.7-.3-17-.9l.3-2.3v-1.8c8.4.6 11 .2 14.3 0 6-.4 10.4-1.5 11.9-1.9.6 1.3.5 1 .7 1.8m-29.3 2-.4 2-15.6-3c-6.3-1.8-8.4-3-12.3-5.1-.3-1.4-.3-1.3 0-1.9.5-.8.2-.5 1.1-1.1 4.7 2.6 9.6 3.6 12.4 4.4 6.3 1.3 9.5 1.7 15 2.4zm-30.1-9.7c-1.1.8-1.2 1.2-2.5 1-2.2-.3-2.4-.8-4.5-2.5-1.2-1-2.5-2.3-2.3-3 .4-1 1-3 2-1.7s4.2 3.3 6.3 4.7c1.6 1 1.4 1.1 1 1.5m-10.5-7c-1.2.5-1 .7-1.9-.1s-1.4-2-2.9-3.7c-.9-1-2.5-3.8-2.6-4.5-.1-2 .6-3.1 1.6-1.7a30 30 0 0 0 5.9 8c1.3 1.3.5 1.8 0 2m-7.6-12c-1.2.5-1 .7-2-.1q-1.3-1.3-2.7-4.6c-.6-1.3-1.6-3-1.3-4.4.6-1.4 2-2.4 2.7-.8.9 3 1.1 3 2.5 6.6.6 1.5 1.2 3 .8 3.3m-4-12.9q-.7 1.4-2.8.4c-1.1-.7-.8-2.3-1-4.7q-.2-1.8 0-4.2c.6-1.5 2.7-2.1 3.2-.4l.2 4.2c.4 3.6.7 4 .4 4.7m-1-12.3q-.9 1.1-2.2-.2c-.6-1 0-2.7.2-4.8q.1-1.9 1-4.2c.6-1 1.8-1.2 2 .6q0 1.1-.5 3.9c-.2 2-.2 3.3-.6 4.7m2-12.7c-.3.8-1.3.2-1.7-1-.2-1.5.7-3.3 1.2-5.3q.7-2.7 2.4-4.8c1-.9 2.5-1.4 2.3.4-.4 1.3-2 4-2.8 6.2zm7.7-14.7c-1 0-1.7.3-1.6-.8.3-1 1.1-1.4 2.9-2.9l3.3-2.6c1-.6 2.7-1.2 2.2.4-.3.7-1 1-2.7 2.2s-3.6 3.4-4.1 3.6m476.3-228.6a49 49 0 0 1 18.4 7.6c2.3 1.4 4.1 2.2 4.5 2.2q.6-.4 1-2.7a11 11 0 0 1 1-3.2c1-1.2 1.7-.2 3.5 4.4.8 2.1 1.7 4.2 2 4.5 1 1 1.8.7 3.3-1 1.5-1.8 3.2-2.3 3.9-1 0 .4 0 1.8-.3 3.4-.7 4.6.4 5.1 4.4 2.2 3.4-2.7 4.5-3.2 5.9-2.6 1.2.8 1.2 1.6-.5 5.7-1.4 3.6-1.6 5.9-.1 4 .4-.6 2-1.8 3.9-2.7l6.2-3.5c1.6-1 3.9-2.1 5-2.6 2.2-.7 13-2.8 14.2-2.7q0 .4-3.4 3.1a92 92 0 0 0-13.6 13.2c0 .7.5.7 3.8.3 4.3-.5 4.2-.7 3.2 4q-.4 2.4 0 2.9t3.9-.5l3.8-.9c.6.4.3 3.5-.6 7-1 3.2-1 3.4-.2 4 1 .5 1.9.2 9.1-3.6 4.3-2.3 5.3-2.7 7.6-2.8 1.5 0 3.1.2 3.9.5l1.3.5-3 3.6a54 54 0 0 0-7.9 12.2c-.8 3.7 2.3 4.1 14.1 1.6q9.7-2.1 12.8-.9c1.9 1 7 5.3 7.3 6.1-.2.2-2.6.9-6 1.5-7 1.1-12 2.8-16.3 5.5-3.9 2.6-3.8 3 .5 2.6 3.6-.2 5.5.1 7.5 1.4.8.7.8.7 0 1.8q-2.3 2.5-7.3 4c-1.6.4-3 .8-3.1 1l3.2.4c5 .4 11.7 1.8 15 3.1 3.1 1.2 3.2 1.3 3.8 5.8l.3 1.7-1.5-.1c-2.4-.2-14.3.8-16.4 1.3q-4.5 1.4 2.5 1.7c5.8.2 9 .5 10.6 1.1l1.2.5-2.5 1.6a44 44 0 0 1-7.2 3q-16.7 5.1-3.1 3.4c7.7-1 10.2-1.2 10.3 0-.6 1.5-4.7 4-9.7 6q-4.4 1.5 3 1.2 6.7-.3 9 2.2c.9 1.8.3 7.2-.9 8.7q-.5.2-1.2-.3c-.5-.4-2.4-1.3-4.3-2-3.6-1.4-3.6-1.4-8.8-.2-2.3.8-4 2.5-5.8 6.2-.8 1.7-2.4 4.4-3.6 6l-3.1 4.2c-1 1.2-1 1.2 0 3.2.6 1 1.1 2.3 1.3 2.8 1.3 2.8 14.7.8 26.5-4.3 4.5-2.2 11-6.3 14.1-9l2.3-2v1.8a32 32 0 0 1-7 16.7l-2.3 2.3 2.3 4.2c2.9 5.4 3 7.2.9 10q-1.3 1.6-1.2 2.3.5.7 2.7 1.8c4.2 1.8 4 1.6 2.3 2.8-.9.6-3 1.3-5 1.8q-3.3.8-4 1.4-1.2 2.9 5.5 6.5c.7.4.2.6-2.9 1.5l-6.6 1.4-3 .4 1 1.7q2.3 3.3 5.3 5.1l1.3.7-1.5.4c-.8.2-2.4.3-3.6.3-3.7-.2-7.6.4-8.7 1-1.3 1.6-.4 3.5 3.4 7l3.2 2.8-2.1.5a22 22 0 0 1-14-1.2 21 21 0 0 0 3.4 9.3q.6.7.4 1.2c-.2.1-2.6.5-5.6.8-4 .3-5.5.2-6.8-.3l-1.8-.7-.1 2.2c0 1.7.3 2.6 1.2 3.8l1.2 1.5h-1.3a33 33 0 0 1-12.9-3.5c-1.7-1.1-1.8-1-1.8.7.1 2.1 1 4.7 2.1 6 1 1.2.8 1.2-3.8.2a33 33 0 0 1-9.7-3.5c-1.7-1.2-1.9-1.1-1.5 1 .5 2.4 1.3 3.5 3 4.6q1.5.6 1.3.9c-.7.2-10-1-12.5-1.7q-2-.7-3-1.5-1-1.2-.8.5 0 1.3 1.2 3.4l1.2 2.5q-.6.4-5.6-1.7c-1.7-.7-3.5-1.3-4.3-1.4q-2.5.2-4.9 3.9c-.9 1.3-2 2.2-4.4 3.4l-3.2 1.6-.2-2c-.4-1.8-8-22.5-8.8-23.5-.4 0-9.5 5.9-18.8 12.5-5.5 4-18 16-21.8 21a57 57 0 0 0-13.6 38.8c0 8.7.6 13.4 2.6 22a88 88 0 0 0 25.7 45.4c7.6 6 16.3 8.5 32.9 8.3 20-.4 32.3-5 41.7-14.6a53 53 0 0 0 13.7-36.6c0-11.9-2.6-19.5-8.2-25.6-5-5.1-10-7.7-16.7-8.7a24 24 0 0 0-18 5.5c-3.1 3-3.2 4.2-.8 9.3 2.1 4.6 2.3 5.5 1 7q-2.1 2-7-.2-6.4-3.5-6-14.2c.5-6.4 3-10.1 9.6-13.7a36 36 0 0 1 19.5-4c8.1-.2 9-.1 12.9 1 8 2.2 12.5 5 16.4 10.1 8.4 12 13 32 10.3 46a79 79 0 0 1-15.5 31.8c-13.4 16.3-30.7 24-56 23.7a74 74 0 0 1-45-14.5c-14.6-10.8-24-24.1-32.1-45.3-2.2-5.8-3-9.3-3.4-14.1q-.3-3.8-1-4.9a19 19 0 0 1-1.3-12.7l.7-2.2-1.4-1.5c-2.5-3-2.3-7.3.6-10.8l1.3-1.4-1.5-1.8q-3-3.6-2.5-11.6c.3-4 1.8-8 2.7-8.5.9 0 .3-1.1-1-2.2a8 8 0 0 1-3.3-6.7c.1-6 2.4-14 4-15 .8-.3 1-1.3.3-1.5-1.1-.6-2.4-4.5-2.8-8.9q-.3-7.8 2.8-10.9l1.3-1.3-1.4-3.2c-1.3-2.8-1.4-3.6-1.2-5.8.7-5.2 5.9-13.6 10-16.3 1.6-.9 2-1.3 2-2.5q.3-5.1 6.9-12c4.5-4.7 5.9-6.7 6.9-10 .7-2.2 1.3-3.3 3.3-5.2 2.5-2.1 7.1-4.6 10.1-5.3q.9-.2 1-1.4c.3-3.2 3.6-7.6 7-9.3 1.6-.7 1.8-.9 1.9-2.3.1-2 1.5-3.7 5.3-6.3a40 40 0 0 1 17.9-3.9c18.3-1 26.2-4.2 34.9-13 5.2-5.3 7.1-8.8 9-16q2.4-8.8.3-15.4a42 42 0 0 0-4.7-9l.6 3.5a38 38 0 0 1 .3 15.7 19 19 0 0 1-8.9 11.3 21 21 0 0 1-9.3 2.3q-7.6.8-10.3 3c-2.8 2.3-8 2.4-13.6.4-1.5-.6-4-1.3-5.9-1.5l-3.4-.5-4.3 2.9c-4.7 3-24 12.8-27.4 14a14 14 0 0 1-16.2-5.4c-2.3-4.3-.3-7.4 9.9-16.1 8.3-7 10.1-9.4 11.3-13.7.5-1.9 2-5.8 3.4-8.8 3.4-7.4 3.5-8.5.3-12.3a23 23 0 0 1-3-4.5 13 13 0 0 1-.6-6.5c.4 0 3.2.7 5 1.4.6.2.6-.4.5-3.8q0-4 .4-5.5l.6-1.4 1.7 1.8q2.7 2.8 3.6 1.5l.7-3c.6-3.4 2.1-7.2 2.8-7l1 2.2q.4 1.6.9 1.8.3-.1.7-2.5c.5-4.1 1-5.7 2.3-6.9q1.3-1.4 1.7-.4.4.8.4 2c.1 2.1 1.4 6.3 3 10 3.6 7.1 6.5 6.6 13.2-2 3.8-5.1 4.2-6.5 3.3-8.9-2.8-5.5-12.8-12.9-22.7-16.7a14 14 0 0 1-3.3-1.6c.2-1 2.2-2.8 4.4-3.8 2.4-1 5-1 9-.4"/><path d="M799.5 476.2c-2.4-1.7 11-2.5 14.5-2.8 2.1.4 3.9 1 4.6.7.5-.6.2-2.5-.5-6.6a19 19 0 0 0-7.1-2.9l-7.3-1.6c-2.6 0-3.4.1-7.2-.4 4.5-1 7.4-.9 11.9-6-1.8-1-2.5-2-4.6-2.4s-2.8-.2-4.6 0c-3.3.3-4.2 1-2-.9s6.4-4 11.2-5.4c4.2-1 10.5-2 13.6-2.4-1.6-2.6-4-4-5.6-5.6-2.9-2.9-8.4-2.2-17.5 0-14.3 3-15 1.2-6.1-11l5.7-6.9-3.6-1.1-4 .2c-3.7 1.2-8.5 4.3-11.4 5.7-4.7 2.2-4.3.5-3-3.5 1.2-3.4.5-3.3.9-6.9-2.8.4-7.8 2.4-8.4 1.3 0-1.8.7-3 1.2-7.1-2 .1-6.5.7-7.5.6-.8-.5 1.2-2.4 3.8-5l6.2-6 8.8-6.5-13 2.3c-4.1.5-10.4 4.8-13.9 6.8-1.7.9-3.2 1.3-4.3 2.3-2.1 1.2.2 3.1-1.2 1.1-.4-1.7 2.7-6.2 2.6-8.8-3.5-4.8-8.8 4-10.7 3.1-2.3-1 .9-6-.8-8-3.2-1.1-4.6 4-6.4 3.4-1.4-1.4-3-8.8-5.2-10.3-2.7 0-1.4 7.4-3.3 7-3.8-2.8-11.8-8-18.5-9.4-3.4-.6-7.2-1.6-10.6-1.3q-5.4 1-7.3 5.4c4.5 1.6 5.2 1.7 9.8 4a54 54 0 0 1 13.6 9.7c4.8 5.9 4.9 6.4-.6 13.3-7.1 9.5-10.3 8.8-14.2-2.6-1.4-4.6-1.2-7.3-1.8-8.9-.5.3-2 1-3 2.4-.7 1.4-1.5 7-1.5 8.6q-1-.8-2-5.5a47 47 0 0 0-2.8 6c-.5 2-.2 5.5-1.9 5.8-1-.2-2.2-2-4.3-4.2a18 18 0 0 0-.9 11.3c-1.5-.6-4.4-1.7-5.9-2q-.6 2.8 0 5.5c1 2.5 1.4 4.3 3.6 6.4 3.5 3.3 3.5 4.8 0 11.5-2.3 4.4-3.9 9-4 11.2-.3 2-5 7.2-11.8 12.4-8.2 6.6-10.8 10.4-9.8 14 3.2 7.4 11.5 10 19.9 6.3l18.7-9.4c4.5-2.3 7.5-4.8 10.2-6.5 4.4.2 7.6.8 11.5 2.8q9.1 1.4 11.5-1.2c1.5-1.7 5.6-3 10.1-3.1 11.8-.2 18.9-7.7 19.6-19.4 0-5-.5-8-2.1-13.7 6.3 10.4 6.7 14.9 4.4 24.1-2.9 12.8-15.4 29.3-43.8 29-5.4 0-9.8 1.2-14.9 2-3.5 2-9.6 5-8.7 10a12 12 0 0 0-8.9 11c-12.9 3.4-14.5 10.3-14.6 12-.2 1.6-3 5.5-7.2 9.2-4 3.7-6.5 9.2-6.2 12.9-4.4 2.1-6 5.1-8.8 8.7-2.4 4.8-6 10-.5 17.9-5.9 2.4-5.6 18.2-1 21.9-3.3 2.3-4.1 7.8-4.9 16 0 3 .8 5.1 5 8q-1.5.7-2.6 4-.8 3.1-1 7.1.1 3.9 1.2 7.2 1.1 3 3.4 4c-5.3 3.5-5.2 11.8-.6 13.8-2.5 5-1.8 13.6 1.5 16.2-.6 9.6 3 16.7 5 22q6 15.9 15.6 27.6a87 87 0 0 0 23.6 19.5 87 87 0 0 0 74.2.7 74 74 0 0 0 34.4-50c2.4-17.7-5.5-41.5-15.9-49.2-16.8-11.3-48-7-53.1 7.8-2.1 8 .5 16.5 6 19 7.4 2.5 10-.7 6.1-7.4-2.8-5.1-2.6-6.4 2-10.3 14.2-10.2 34.3-2 39.6 16 5.8 23.5-3.4 47.7-22.8 58.3-16.8 8.7-48.2 8.6-60.3.6-22.6-16-36.5-56-29.8-85.3 4-16.1 19.3-34.6 39.6-48l12.7-8.7 4.6 12.2c2.5 6.5 4.4 10 4 14 3.8-2.2 5-2 7.7-4.3 1.3-3 3.1-5.4 6.5-4.8.7.3 5 2.7 9.4 3.4-1.6-3.6-2.8-3.7-2.8-7.3 2.6 3 8.8 3.3 17.7 4-6.7-3.9-5.6-4.6-6-8 2.8 3 8.9 4.6 16.6 5.6-3.8-4-3.3-5.1-3.6-9a27 27 0 0 0 16.5 4.8c-3-3.4-3-3.3-3-7.8 3.6 2.4 9.4 1.7 15.2.1a17 17 0 0 1-4.7-10.6c4.8 3.7 11.6 2.3 16.8.9-3.9-3-6-4.8-7.3-6.8-1.3-2.7-.5-3.4 4.2-4 3.2-.2 5.2 1.2 10-1-6.6-2.3-8.8-10.1-10.2-10.6-6 .7 8.4 9.8-4.5 9.3-3.3-.2-4.7 0-7.1.3 1.7 2.4 2 2.5 3.4 4.3 1.6 2.5 2 5.2 5.8 7.2-3.4.4-5.8.7-8.1-.7-2.2-1.6-2.3-2.2-6.8-5.3-.6 3.6-.3 4.3 0 6.6.7 4 1.3 5 2.6 8.1-5.2 1.5-7.8.3-9-2-1.3-1.4-3.1-4.4-5.6-5.2-1 3.3 0 3.3.4 6 1 3 1.4 5 2.3 7.9a19 19 0 0 1-11.3-6.7c-5.5-4.4-5.5-4.5-3.8 1.7.7 4.1.6 5 2 8.5q-7.6-.9-11.8-6.7c-3-4.3-3.2-4-2 1.5 0 3.8-.4 4.4.4 8-4.5-.9-7.5-2.5-10-6.3-2.9-4.4-3.1-4.1-2 1.5.6 3.6-.4 4.2 1.5 8-5-2.1-5.2-1.7-7-4.4-1.4-2.1-2.9.5-5.3 5.2-2 3.4-3.3 3.6-4.8 3.8-.4-2.6-1.4-4.4-3.7-10a65 65 0 0 1-4-12.5l15.8-8.4c8.6-4.3 15-9 15.3-10.8q.3-2.5 3.5-2.7c5-.6 16.2-12 16.7-17 .2-2 2.6-7 5.8-11.1 4.5-6.2 9.1-8.4 22.2-11.2a79 79 0 0 0 21.7-9.1c2.3-1.7 2.7-2.7 4.5-3.7 0 1.7-1 6.2-4.3 10.1-2 2.3-3.7 3-5.5 4.3 1.6 1.6 2.8 4.4 4.1 6.6 2.9 4.5 2.9 5.6-1.2 7.8-3.7 2-3.7 2.7-.5 4.5 1.3.8 3.2 1.4 4.6 2a14 14 0 0 1-8 .7c-5.2-2.6-5.5-1.8-3.3 1.3 1.9 2.7 3.2 5.6 5.8 7.6-3.1.5-4.4.1-7.2-.6-3-.9-5.1-1.5-3.4 3 2 2.9.8-1.8 2.7 2.2 3.2.1 10-1.3 15.2-3.3-4.7-2-6.2-3.7-6.9-5-.6-2.6 1.4-2.7 4-3 1.1-.1 4-.3 6.8-3.4-2.2-.8-5-1.6-7.1-3.6 5.6-4.7 2.6-9 1-11.5-1-1.9-1.2-2.9-2.5-4.8 1.9-.7 4.3-4.1 5.8-6.8a29 29 0 0 0 3.5-14.4c-4 3.6-5.4 4.8-7.9 6.4-4.2 3-12.9 7.2-20.8 9.2-8.2 2-14.2 2.3-14.7-.7-.3-3-2.8-2.4-.8-5 4.2-4.8 6.4-8.8 7.8-13 2.7-3.1 5.5-3.6 9.8-4.1 2.3 1 6.2 1.7 8.4 4.3 1.9-1.6 2.7-6.7 2-9.8-.9-1.2-5-2.7-8-2.8-2.7.3-4 1-6.5.3 2.9-1 4.3-1.2 7.3-3 2.7-1.6 4.8-2.5 4.7-4.2-1-1.7-14.2.7-16.7 1-1.6 0 3-2 6.6-3 2.4-1 7.3-1.4 12.7-5.8-4-2-5.8-1-9-1.7zm-4.7 1.6c2.1 2.2 14.3.5 11.2 1.9-.1 0-10.5 3.2-14.3 6.4-.2 2.9 2.8 3.7 3.1 3.8l13.7-2.8c-.7 1.8-12.4 4.1-12.8 6.7 0 1-.7 2.6 3.7 1.9 4.1-.3 9-1 12 .1 2.2 1.2 2.4 3.2 1.8 5.6-2-1.4-5-2.4-6.9-3a18 18 0 0 0-8.8 2.3c-2.6 1.4-4.1 2.6-6.4 7.2-1.7 4-6 8.4-10.4 10.7a40 40 0 0 0-15.3 10.8c-3.7 5.1-6.5 9.2-15.2 14.6-8.3 8.2-1.5 5.4-5 5.8-10 1.8-15.1 4-17 6.3a23 23 0 0 1-10.5 5.7c-4.2 1.2-6.9 2.9-7.2 4.5q-.4 2.7-4.6 2.8c-6.6.2-34.3 28.3-39.8 40.1a102 102 0 0 0-11.6 52.2c.4 15 2.1 28.2 4.6 34.7 6.2 14.9 30.2 43.6 37 44.4l2.2.6c.6 1 1 1.1 3.2 2.3q5 2.6 12.6 3.1 7.8.5 18.2-1c7-1 13.7-2.5 18.9-4.3 5-1.8 6.8-2.8 8.4-4.4.5-.5 1.5-1.1 1.4-3.2 1.3.8 3.3.6 6.4-2.2 2.5-2.4 4.4-3.3 3.4-5.6 3.2-.6 3.7-1.7 6.2-5.5 1.7-2.5 3.2-4.5 2.6-7.8 2.2 0 3.2-2.6 4.5-5.9 1.2-2.9 2.8-5.8.6-7.3 2.7-.5 2.3-3.3 2.6-6s.9-5.8-1.8-6.6c2.7-1.4 1.7-3.8 1.2-6.7-.6-4-1-5.6-3.3-6.2 2-1.4 1-4.3-.6-9.3-1.3-3.9-3.4-5-6.6-4.3 2.3-2.7-1.9-5.4-3.4-6.6-3.4-2.5-6.2-3.2-7.2-1.5-.4-3.2-10.1-3.2-14.8-2.7-4.2.7-7.7 2.5-11.7 5.8-6 5.1-6.3 6.4-3.2 11.8 3.6 7 1 8.2-4.6 2.6-5.7-6.2-4-13 4.3-20 6.5-5.3 10.6-6.2 21.7-5.6 19.4 1.7 27 7 32.6 25 8.4 30-3 61-29.2 75.2-11.5 5.9-18.4 7.5-37.2 7.2-27.5-1-44.3-9-60.3-28.3-10-12.2-20.5-41-17.3-46.4 5.4-2.1.1-2.4-1.8-2.6-2.3-1-3-11.9 1.2-14.4-8.6-1.4-4.1-10.9 1-13-4.6-1-6.7-5.2-7-10.4 0-5.1 1.8-9.5 5.9-10.6 2.9-.8.3-1.7-2.6-2.6-3.4-1.2-4.5-1.8-4.2-7.9.6-4.3 1.9-10.1 4.7-11.5 3-.8 7.4-.9 10-.9q-4.7-1.9-8.4-2.6c-5.2-3.3-6.8-13.1-2.3-16.2 5.2-2.1 15.9 4 17 2-2.4-2.5-9.1-4.2-12.5-6.7-4-4.4-7.2-8.1-1-16.8 3-4.9 2.7-6 6.3-7 4.9.4 15.4 7.5 23.3 8-3.8-3.1-16-7-20-10.1-3.8-3.6-1.2-7.4 3-12.5 5-4 6.9-4.1 13.3-.7 4.4 2 11.2 4.3 18.7 6-3.1-2.9-15.9-7.5-19-9.9-5.4-4.7-5.4-6.2-.2-11.8l7.7-2.7 8.7 5.2a60 60 0 0 0 16.2 6.4c-.3-.4-8.8-5-13.6-8-5-3.2-7.6-6.8-7.9-9 .3-7.5 6.4-7.9 16.9-.2 5.7 3.5 17.6 7.6 19 6.4.3-2-8.3-3.9-13.6-6.5-5-3.1-13.1-8-13.6-10.4 1.4-4 6.3-6.2 29.2-8.3 17.2-1.8 25.9-7.5 33.5-20.4 9.2-15.8 7.5-28.5-4.9-40.7l-10.4-10 6 9.5c11.1 16.7 6 36-10 36.3-4 .1-9 1.5-12.1 3.4-4.3 2.2-7.4 1.7-11 .6l-5.5-2-2-.4 8-5.3c9.1-4.5 12.6-12.3 7.9-17.8q-2.8-2.4-1.5 4.7c1 5.9 0 8-4 9.7a99 99 0 0 0-12.4 7.2c-12.7 8.7-29 17.8-31 18q-1-.7 3.8-6.6c3.1-3.4 1.5-2.8-3.7 1.8-8 6.5-10 7.1-13.9 3.6-6.3-6-5.5-8 5.5-14.3q10-5.3 13.6-16.1a77 77 0 0 1 5.7-13.8q2.5-3.2-1.7-7.2c-2.5-2.6-4.7-7-4.6-9q1.5.4 3.2 1.5 2.5 1.3 2.9-2.8c-.1-1.3-.9-6.4-.8-7.6a24 24 0 0 0 3.6 4.8q2.7 1.4 3.2-1.8c.5-4.3 1-5.5 1.3-7.5.7 1.2 3.7 5.6 5 6.8a50 50 0 0 1 .2-14.7c.2 2.9 1.6 7.9 2.1 9.7 3.1 4.7 3.8 5.5 7.3 6.9 3 0 4.2-1 8.4-5.7q6-7.4 6.7-11.2c-.3-2.9-8.4-13-18.7-17.8-4.3-1.8-4.9-2.3-7.5-3.2.7-.1 1.8-1 4.9-1.5 1.8-.2 8 .2 12.6 2.3a59 59 0 0 1 16.7 9.7c2.1-.4-.2-6.4 2.3-6 2.2 1.6 1.9 8.5 3.7 10.2 3.3 1.2 3.7-3.5 5.2-4 1 .7-.7 6.3 1.5 8.4 2 .3 7.6-5.8 8.6-5.5 0 1.2-4 7-3.3 8.3 1.7 1.5 1.5 3 5.4 1.6 3.2-1.8 17-10.6 20.7-10.9-3.3 2.4-6 5.2-9.6 8.7-5.8 6.4-7.3 7-2.8 7.8 4.4-1 5.3-2 7.5-.9.7 1-.5 6 .5 7.3 1.5.4 6.2-1 6.9-.8 1.7 2.5-1.3 5.3-.4 8.8 1.8 5 2.5 5 8.3.5 5-3.8 10-6.3 10.7-5.3.1 1.7-1 2.6-3.7 6.6-8.2 12.7-6.2 15 10.4 12 .4-.3 12.8-5 17.4.4a53 53 0 0 0-16 4c-1.4.7-4.3 2.8-7 5-1.1 1.3-.5 1.9.3 4.2a24 24 0 0 0 9.8.7c-10.8 5.3-9.6 1.8-13.6 4.2 2.9 4.4 5 4 14.5 4.5q3.5 1.1 7.3 1.7c2.8.6 4.1 2.2 3.6 2.7-.7.2-3.2 0-6.2 0-3.4.3-1.6.1-9.4 1.7-3.7 1.4-5 3.8-4.5 5.4"/><path d="M696.6 449.3q.1 2.8 2.2 3.2 2-.1 2.2-3-.3-2.9-2.2-3.3-2 .2-2.2 3z"/><path d="M691.2 451.7q1.2 3.2 4.2 4.7a8 8 0 0 0 6.2.5q3.2-1.1 4.6-4a8 8 0 0 0 .2-6.3 9 9 0 0 0-4.3-4.6c-2.2-1-4-1.1-6.2-.5q-3.1 1.1-4.6 4a8 8 0 0 0-.2 6.2l2.1-.7q-.8-2.4.1-4.4a6 6 0 0 1 3.3-3 6 6 0 0 1 7.7 3.8q.8 2.3-.1 4.4a6 6 0 0 1-3.3 3 6 6 0 0 1-4.6-.4 6 6 0 0 1-3-3.4z"/><path d="M718.2 439.8c-4.3-2.3-9-2.6-15.1-1.2q-4.5 1.2-7.7 3l1.1 2q3-1.6 7.2-2.7c5.6-1.4 9.7-1.1 13.4.8z"/><path fill="#dfdfdf" d="M786 524.3c.2-1.7-.4-2.3-3-3.8a30 30 0 0 0-11.8 6.3c-5.8 5.6-6.7 7.5-10 12.1 1.4 2.7 2.2 3.2 4.8 5.7a52 52 0 0 0 5.8 3.4c1.5-4.5 3-6.8 7-12 2-2.9 7-5.5 9.8-7.7-.7-2.2-1.6-2.3-2.6-4m-21.7 22c-2.6-1.8-3.5-4-5.2-5.3-2.5 1.2-1.9 1.4-5.8 3.5-4.2 2.9-2.8 2.2-6 6.8 1.4 2.7 2 3.9 4 6.7 2.2 2.1 2.4 3.5 4.4 6.1 4-1.2 6.3-2.7 9.5-6.4 2.3-2.6 4.4-3 5.6-7.4-2.7-1.7-4.9-2.6-6.6-4m-15 12.9c-2-2.8-2.5-4.7-4-6.7-3 .4-5.3.9-8.8 2-4.7 1.2-5.3 2.5-7.8 5.2 1.2 2.8 1.6 6.2 2.6 11.1.8 3.4 1.4 5.3 2.8 8.4a65 65 0 0 0 10.1-5.4c3.6-2.2 6.6-4.3 8.4-8.8-1.8-3.3-1.8-4.2-3.3-5.8m-20.7 13.2c-.8-3.9-.9-7.7-2.6-10.8-2.9.4-2.5 1.2-5.9 2.3-3.7 1.5-5.8 1.9-8 5.8 3.3 3.1 3.8 2.7 5 7.6.5 3.5-.5 8.1.6 11.3 3.9-1.7 4.3-2.5 7.6-4.7 3.6-2 3.8-1.3 6-3.4-1.2-4-2-5.8-2.7-8.1m-14.3 5.1a16 16 0 0 0-4.2-6c-3.5 1.2-4.8.5-8.2 3.2-3.1 2.1-9.5 7.3-12 9.8 2.4 1.3 4.4 2.2 7.3 6 2.6 3.8 2 4.7 3.5 8.9 2.8-1.8 4.2-2.7 7-4.3 2.7-2.5 3.9-3.3 7-5.4-1-3.9 0-9.2-.4-12.2m-19 15.2c-1.9-3.5-4-4.3-5.9-6-3.4 1.3-4.8 4-8 6.9a67 67 0 0 0-6.7 7.7c3 1.7 3.8 2 6.6 4.6 2.8 2.7 3.5 2.8 5.5 5.1 2-2.3 1.7-2 4.4-4.6s3.1-2.5 6.8-5.7c-1-4-1.6-5.3-2.7-8m-16 15.5q-3-2.5-5.5-4.3c-1.6 1.9-3 3.3-4 5.3-1.6 2-1.8 2.3-3 5l4.8 2.7c2.2 1.3 3.2 2.4 5.7 4.4 2-2.3.6-1.5 3.3-4 1.3-1.6 2-2.8 4-4.8-2.9-2.7-3.3-3-5.2-4.3m-7.9 11.4-5.5-3.1c-1.3 2.5-1.7 2.9-2.6 5l-2.1 5.5 4.4 2 4.8 3.1c1.7-3 1.6-2.3 2.6-4.1s1.4-2.2 3-4.5c-2.3-2-3-2.8-4.6-4m-6 11.9c-2.4-1.4-2.4-1.1-4.4-2.2-1.2 2.6-2.3 7-3 9.8q-.9 4.7-1.1 10.5l3 .8c2 .5 2 .6 4 1.6a50 50 0 0 1 6-18c-2.1-1.3-3-1.4-4.5-2.5m-5.2 21.4-3.1-.7c-.3 5.5-.3 6.9-.2 12.4.4 5.8.6 10.5 1.4 16.5 1-.3 1.3-.5 3.1-.5s1.8 0 3.7.3c-1.3-5.6-1.4-7.5-1.8-14-.2-5.2-.1-6.8.3-12.5zm2.6 30.5c-.8-.2-2.6-.2-4.2-.4a59 59 0 0 0 6.3 19.8c3.8 6 7.5 11.5 12.4 17.3l1.6-1.4 1.7-1.3c-5.6-7.9-6.6-10.2-10-17.4-2.7-7-3.1-9-5-16.7-1.4.5-1.6.5-2.8 0m17.4 37-1.9 1.3c2.3 2.9 3.9 4.6 8.2 9.2 3.1 2.7 4.2 4.7 10.7 7.8l1.2-1.5 1-1.8a30 30 0 0 1-9.9-6.5c-4-4-5.2-5.6-8-9.4zM701 738c-.5.8-.4 1-.8 2 3 2 3.6 2.2 11 4 9 .5 12.7.3 17-.2l-.3-2.3v-1.8c-8.4.4-11-.2-14.3-.6-6-.8-10.4-2.4-11.9-2.8-.6 1.2-.5.9-.7 1.7m29.3 3.7.5 2c7-1.2 7-1.1 15.5-3 6.3-1.9 8.4-3.3 12.4-5.6.2-1.4.2-1.2-.2-1.8-.4-.8 0-.5-1-1-4.8 2.8-9.6 3.8-12.3 4.8a121 121 0 0 1-15 2.2zm30.1-10.3c1.1.8 1.2 1.2 2.5 1 2.2-.5 2.5-1 4.5-2.9 1.2-1 2.5-2.5 2.3-3.2-.4-.9-1-2.9-2-1.5s-4.2 3.6-6.3 5c-1.6 1.3-1.4 1.3-1 1.6m10.5-7.7c1.2.4 1 .6 1.9-.3s1.4-2 2.9-3.9c.8-1.2 2.4-4 2.6-4.8.1-2-.6-3-1.6-1.5a34 34 0 0 1-5.9 8.5c-1.3 1.5-.5 1.9 0 2m7.6-12.7c1.2.4 1 .6 2-.4.9-.8 1.7-2.7 2.7-4.9.6-1.4 1.6-3.2 1.3-4.5-.6-1.4-2-2.1-2.7-.5-.9 3.2-1.1 3.2-2.5 7-.6 1.5-1.2 3-.8 3.3m4-13.4q.7 1.4 2.8 0c1.1-.8.8-2.3 1-4.8q.2-1.8 0-4.1c-.6-1.5-2.8-1.8-3.2 0l-.2 4.2c-.4 3.6-.7 4-.4 4.7m1-12.5q.9 1 2.2-.4c.6-1.2 0-2.7-.2-4.8q-.1-1.8-1-4c-.6-1-1.8-1-2 .8q0 1.2.5 3.8.2 3 .6 4.6m-2-12.4c.3.8 1.3 0 1.7-1.1.2-1.7-.7-3.3-1.2-5.2a9 9 0 0 0-2.4-4.6c-1-.7-2.5-1-2.3.7.4 1.3 2 3.8 2.8 5.9zm-7.7-13.9c1 0 1.7.2 1.6-.9-.4-.9-1.1-1.3-2.9-2.6-.9-.7-2.4-1.9-3.3-2.3-1-.5-2.7-1-2.2.6.3.6 1 .9 2.7 2s3.6 3 4.1 3.2"/><path d="M373.9 700.6c-17.1 4-41.4 14-51.4 20-3.1 2.4-2.9 4.8 2 15.3a83 83 0 0 0 7.5 12.7c1 0 10.3-3.6 21-8.2a166 166 0 0 1 30.7-10.3c4.8-.4 9.1-.8 11.9-1.6 1 2.9.4 1.3 2.4 5.8 2.7 6.5 1.1 6 6 8.4 5.5 2 17.7-2.8 18-3 15-3.2 23.4-2.7 77.4 5.7s62.3 10 77.4 17.8l13.6 6.5c1.6.8 2.3 1.2 4 1 1.5-.3 3-2.1 3.7-3.6 0 0 3.3-7.7 4.2-10.5 2.9 1.8 8 4.3 13.2 6.5 6 2.9 19.6 10.6 30.3 17a215 215 0 0 0 21 11.9c.6-.3 4-5.2 7.5-11.6 7-13.5 7.5-12-17.6-27.4-33.8-20.8-66.5-33.1-70.1-25.2l-1.9 4.5c-3.3-1.3-12.1-4.6-21-7.3-27.2-8.9-101.4-20.5-128.7-19.5-8.8.3-14.7 1.8-19.7 2.6-2.8-6.1-2.2-3.8-2.8-5.5-2.6-6.1-17.3-7.3-38.6-2"/><path fill="#dfdfdf" d="M401.3 699.6c-12.5-1-35.5 4.1-59.2 14.3-20.3 8.7-20.7 9.4-15.3 20.7 2.4 5.2 5 9.9 5.2 10.5 1.3.2 10-3 20.5-7.5 11-4.5 24.8-9 30.9-10.2 4.5-1 7.7-.9 11.7-1.2-.7-4.5.2-.6-2.6-9.3 3.4-8.1 9.4-14.2 15.7-15.2q-2.4-1.5-7-2"/><path fill="#dfdfdf" d="M496.1 713.6c-24-3.4-47.4-5.7-58.2-5.6-18.4.6-28.2 5-35 7.9-2.6 1.5-4.7 1.8-7.4 3 2 5.3 2.1 8.3 3.9 12.9 1.8 5 1 7.3 6.2 8.5 5.4.5 16.6-3.4 16.7-3.5 14.8-3.2 23.4-2.7 77.1 5.6 54 8.4 64.8 11.6 77.4 17.8 9 4.5 12.7 7.3 16.4 7.3 1.8-.4 2.7-2.6 4-6a75 75 0 0 0 5.1-17.5c-2.9-.7-1.6.8-5.5-1.4-8.3-5-9.9-5.5-15.4-8.6-6.6-3.6-12.7-4.6-22.3-7.8a748 748 0 0 0-60.7-12.2z"/><path fill="#dfdfdf" d="M596.4 728.4q-2.4-.3-4.2 0c2.5 2 5.5 5 7.1 6.1 6 4.2 6 6.9 5.5 12.6-.3 2.5-.5 3.5-1.5 6.9 2.3 1.3 7.8 4.3 12.4 6.5 5.8 2.5 19.7 10.2 30.6 17 10.3 6.3 19 10.8 20.4 11h.1c.3-.6 2.9-5 5.2-9.8 3.8-7.2 4-9.5 1.2-12.3-6.4-5.6-32-20-50.5-28.7a108 108 0 0 0-26.3-9.3"/><path fill="#dfdfdf" d="m589.1 729.8-.5.7q-1 1.4-1.3 3.4c2 1.1 8.4 5.6 11.7 6.2q1.1.1 1.6 0h.2v-.1h.1v-.4l-.2-.2a25 25 0 0 0-4.6-3.8c-2-1.4-5-4-7-5.8M410 703.5c-1.9 1.2-5 2.8-7.1 4-3.7 2.2-4.3 4-6 7.4v.2c.6-.2 3.4-2.2 10.1-3.8 5.8-1.4 2.7-.7 6.3-1.8-2.4-4-2.6-4.3-3-5.3q0-.4-.3-.7"/><path d="m435 715.7.6 6h4q2 0 2.8-.6t.6-2.3-1-2.3-3.1-.7zm-2.5-2.1 6.5.2q1.5 0 2.4.2.8.1 1.4.5 1 .6 1.8 1.7.6 1.1.8 2.6.2 1.4-.3 2.4t-1.6 1.5q1 .4 1.5 1t.8 2.3l.5 3 .4 1.4.6.6v.5h-2.6l-.7-2.4v-.1l-.4-2.3q-.3-1.7-1-2.3t-3-.6l-3.7-.1.8 7.5h-2.3zm20 11 5.3.4-3.2-8zm-4.4 7 5-17.1 2.6.2 7.6 18-2.5-.2-2.2-5.4-6.7-.5-1.4 5.1zm23.4 2L471 716l2.3.3.2 7.1 8.8 1.1-.2-7.1 2.3.2.5 17.5-2.3-.3-.3-8.2-8.8-1 .3 8.1zm20-4.7 5.3.8-2.7-8zm-4.9 6.5 6.2-16.4 2.6.4 6.4 18.3-2.5-.4-1.8-5.4-6.7-1-1.8 5zm29-1.8 2.2.4a7 7 0 0 1-2.2 4.7q-2.1 1.5-5.1 1a9 9 0 0 1-5.6-3.5q-1.9-2.8-2-7.3.3-4 2.3-6 2.2-2 5.8-1.5a9 9 0 0 1 4.7 2.4 8 8 0 0 1 2 4.5l-2.2-.4q-.3-1.7-1.5-3a6 6 0 0 0-3.1-1.4q-2.6-.4-4 1.2-1.5 1.5-1.6 5 0 3.1 1.4 5.3a6 6 0 0 0 4 2.6q2 .3 3.4-.7 1.3-1.1 1.4-3.3m4.9 7.3.8-17.2 2.3.4-.3 7.1 8.8 1.8.3-7.1 2.3.5-.8 17.2-2.3-.4.4-8.1-8.8-1.8-.4 8.1zm17 3.6 1.3-17.2 2.3.5-1.2 17.2zm9.8-13.2-.5 5.7 3.9 1q2.1.4 3 0 1-.5 1.2-2 0-1.6-.7-2.4t-3-1.4zm-2-2.6 6.5 1.6 2.3.7 1.4.8a5 5 0 0 1 1.7 4.7q0 1.4-.8 2.2-.6 1-1.9 1.1 1 .6 1.3 1.3t.4 2.4l-.1 2.8v1.4q.2.6.6.8v.5l-2.7-.7q-.3-.6-.3-2.4l.1-2.3q0-1.8-.5-2.4t-3-1.3l-3.7-.9-.7 7.3-2.3-.5zm14 21 2.2-16.9 2.3.7-2.3 17z"/><path fill="#171796" d="M401.2 365.4a19 19 0 0 0-12.5 17c-.5 9.1 1.3 15.3 6.3 21 2.3 2.7 4 5 4.2 5.6a19 19 0 0 1-3.9 4.2q-7.6 6.6-7.9 16.8c.1 6.9 2 11.6 7.5 18.6l4.5 5.6-5 5c-9.7 10.2-9.4 22.5.8 34.7l4.4 5.2 100.8 14.7 100.8 14.7 4.9-4.7c9.5-9.6 9.5-20.3.1-33.7l-4.8-6.6 4.5-5c9.8-11 9.6-21.7-.6-34.8-4.6-5.8-4.6-6.6-1-8.7 5.9-3.7 9.3-16.2 6.8-25.2-4.3-13.1-20.6-23.2-31.3-19.4a53 53 0 0 0-8.7 4.8c-3 2-5.5 3.3-6.1 3.4a45 45 0 0 1-5.7-5.2c-10.7-10.6-22.3-11.7-33-3l-4 3.3-5.2-5.8c-10.8-11.8-23.5-13.4-34.6-4.4l-4 3.4-4.3-4.6c-6.4-7-10.4-9.2-17.7-10.5q-10.7-1.6-18.7 5.8l-2.5 2.4-5.6-5.6c-10.5-10.5-18.3-13-28.5-9"/><path d="M400.7 364c10-3.8 19.5-.8 29.9 9.5l4.6 4.6 1.7-1.5a22 22 0 0 1 19.6-6.1 33 33 0 0 1 18.6 11l3.4 3.5 3-2.6a24 24 0 0 1 18.4-5.9 30 30 0 0 1 18.1 10.6l4.4 4.7 3-2.6a24 24 0 0 1 17.4-6q9.1 1 17.4 9.3l4.8 4.8q.5 0 5.3-3.3a55 55 0 0 1 8.9-5c5.7-2 11.8-1 19.2 3.6a31 31 0 0 1 14 17q2 6.8-.2 15.3-2.5 8.5-7.2 11.3-2 1.1-2 1.8.2 1 3.3 5c10.4 13.4 10.6 25.1.6 36.5l-3.8 4.2 4.1 5.7c10 14 9.9 25.4-.2 35.4l-5.3 5.1c-66.8-8.5-133.7-20.7-202.6-29.5l-4.8-5.7a31 31 0 0 1-8.3-19 24 24 0 0 1 7.5-17.6l4.1-4.2-3.7-4.6a32 32 0 0 1-7.8-19.5c.1-7.3 2.8-12.9 8.3-17.7q3.5-3 3.5-3.3l-3.8-4.6a29 29 0 0 1-6.7-22 20 20 0 0 1 13.2-18.1zM390 382.8a26 26 0 0 0 6 19.8q4.4 5.3 4.5 6.6 0 1.6-4.3 5.2-7.4 6.3-7.5 15.8c.2 6 2.4 11.5 7.2 17.7l5.3 6.6-5.7 5.7q-7 7.3-6.9 15.8c.3 5.9 2.7 11.3 7.6 17.1l4 4.9c66.1 8.4 132.3 20.5 200.4 29.2l4.5-4.4c9-9 9-19.1 0-31.9l-5.4-7.6 5.2-5.6c9-10.4 8.9-20.9-.5-33.1a19 19 0 0 1-4-6.5c0-1.7.8-2.8 3.2-4.2 2.6-1.7 4.5-4.7 6-9.9q2.1-7.8.3-13.9-2.9-9.1-12.6-15.2c-6.7-4-12-5-17-3.2q-3 1.2-8.4 4.7-5.5 3.8-7 3.6-1.2-.2-6.4-5.6a26 26 0 0 0-15.6-8.3 21 21 0 0 0-15.6 5.4l-4.9 4.1-6.1-6.7a27 27 0 0 0-16.4-9.6c-6-.6-11.2 1.1-16.5 5.4l-4.9 4.1-5.1-5.6a31 31 0 0 0-17-10c-7-1-12.4.8-17.6 5.6l-3.4 3.1-6.5-6.5q-7.5-7.4-13.8-9.6c-4.3-1.2-8.4-1-13.3 1-7.4 3.1-11 8.1-11.8 16"/><path fill="#d42e12" d="M396 505.1c-10.4 11-10.3 22.6.2 36.2l4 5-4.5 4.5c-2.5 2.5-5 6-6 8-3.3 8.2-.8 19.2 5.9 26.9 4 4.6 4.1 6 .3 10.5a42 42 0 0 0-4.5 6c-7.8 15 3.8 35.1 21.7 38 7.3.8 12.3-.7 17.3-5.3 4-3.5 5.7-3.4 9.3.8a31 31 0 0 0 17.2 11.8c6.7.9 10.5-.5 17.3-6l5-4.2 4.6 5.8c10.2 12.5 19.8 14.3 33.4 6l5.4-3.3 4.8 5.1c6 6.2 10.2 8.8 16 9.8 6 .8 10-.8 16.8-6.6l5.6-4.7 4.3 4.6c8.3 8.7 12.6 11.6 18.7 12.5 6.3.8 10.5-.6 16.8-5.6q8.8-7.4 8.1-15.8a53 53 0 0 0-9.3-20.4l-3-3.5 4.7-5c10.5-11.5 10.6-20.8.2-34.8l-4.2-5.8 4.5-5c10-11.2 9.9-22-.2-34.6l-5.5-6.5L500.7 515l-100.2-14.5z"/><path d="m395 504 5-4.9 100.7 14.6 100.7 14.5 6 7c10.5 13.1 10.6 24.7.2 36.4l-3.8 4.2 3.6 4.9a34 34 0 0 1 8 19.2c-.2 5.8-2.8 11.3-8.3 17.4l-4 4.1 2.2 2.4q3 3.3 6 10t3.7 11.3c.7 6.2-2 11.5-8.5 17-6.1 4.6-11.7 6.5-17.7 5.8-5.7-1-12-5-19.6-13l-3.4-3.6-4.7 3.9c-6.4 5.4-12 7.6-17.7 6.9-5.6-1-11-4.2-17-10.3l-3.8-4.2-4.6 2.8c-13.6 8.2-24.8 6.2-35.2-6.5l-3.7-4.7-4 3.5c-6.3 5-12 7-18.2 6.1q-9.6-1.5-18.2-12.3-2.2-2.6-3.4-2.7-1.4-.1-4 2.2c-5 4.6-10.7 6.3-18.1 5.5a29 29 0 0 1-21.7-15.1c-5-9.1-5.4-17-1.2-25q1.5-2.6 4.6-6.1 2.5-3 2.5-4.4t-2.7-4.4q-5.3-5.8-7.1-13.9a25 25 0 0 1 .9-14.5q1.9-3.9 6.2-8.3l3.7-3.7-3.1-4c-11.2-14.3-11.3-26.5-.2-38zm1.8 2.4c-9.8 10.3-9.6 21.2.4 34.2l4.8 6-5.3 5.2a30 30 0 0 0-5.8 7.6q-2.3 5.7-.8 13 1.7 7.2 6.4 12.4 3.4 3.9 3.5 6.4 0 2.4-3 6a32 32 0 0 0-4.4 5.8c-3.7 7.1-3.4 14 1.1 22.2q7 11.8 19.4 13.6c6.7.8 11.8-.8 16.3-5q3.3-3 5.7-2.7c1.8.2 3.4 1.3 5.6 3.8 5.3 6.7 10.4 10.2 16.2 11.2 5.5.7 10.6-1 16.4-5.7l6-5 5.5 7c4.9 6 9.4 9.2 14.4 10.2 5.2.8 10.6-.6 17.2-4.6l6.3-3.9 5.5 6a29 29 0 0 0 15.2 9.3c5 .6 10-1.4 15.9-6.4l6.5-5.4 5.1 5.5c7.2 7.5 12.9 11.3 17.9 12.1 5.4.6 10.4-1 16-5.4 5.8-4.9 8.2-9.4 7.6-14.6q-.6-4-3.4-10.5-3-6.3-5.5-9.1l-4-4.5 5.7-5.9q7.4-8.1 7.6-15.6 0-7.5-7.5-17.4l-5-6.8 5.3-5.8c9.4-10.5 9.3-21-.2-32.8l-5-6-99.7-14.4-99.6-14.4-4 4.1z"/><path d="M373.9 488.3v23.6L374 630c0 5.8 2.8 7.4 7.9 12 8 7.2 16 14.2 61.1 17.3 41.4 6.4 49.9 11.2 54.3 28.6l2.3 9.8 2-9.1c3.4-15.9 12.9-18 52.8-12.4 51.2 8.2 55.7 5 63-.5 0-.1 5-3.6 6.7-7.5 1.4-4.5.8-8.1.8-8.2V379.9c-41.5-4.7-82.9-11.1-125.6-17.7-41.4-6.4-82.9-12.8-125.5-17.6zM622 524.4l.5 118.4c0 16 1 21-.5 23.8-1.8 2.9-5 6.5-5 6.5-7.8 7-14.4 8.1-50 2.6a329 329 0 0 0-53.4-4.3c-3.1 2-10.3.8-14.3 15.3-4.9-15.9-8-15.7-8-15.8-19.3-11-27.8-11-58.7-15.7-20 0-41-6.5-49.3-15.6-.1 0-1.1.1-6.7-7V347.7c40.5 4.7 81 10.9 122.7 17.4 40.5 6.2 81 12.5 122.7 17.3z"/><path fill="#fff" d="M464.7 421.5c-7.6 15-7.9 22-1.6 36a53 53 0 0 0 18.6 23c21 13.8 46.7 10.1 57.5-8.2a46 46 0 0 0-1.4-41.6l-2-2.6-1.8 6.7c-2.6 9.7-5.1 14.2-10.2 18.9-10 8.5-22.7 8.7-36.6.4-10.7-6.6-14.8-13.7-18.9-33.1l-1-4.8z"/><path d="M462.2 422.1c-6.3 14-5.8 21.2 2 38.2 20.7 43.7 79.7 37.9 80-8.5-.3-7.5-.2-12.1-4-21-2-3.7-2.8-4.8-4.1-7q-.6 3-3 12.2c-6 22-24.4 29.4-44.6 18-11.3-6.7-16.4-14.9-19.4-31.4l-2-10.7zm19.6 32.3c14.2 11.2 34.6 11.5 45.6 1.1 4.3-4.5 7-11.7 8.1-15.6 1-3.8 1.3-4.3 2-8.2 1.6 4.1 2.5 6.2 3.3 12.2 1 9-.7 15.8-2.7 21-10.5 25.6-42 28.8-62.6 6.3-10-11-17.4-29.6-13.4-40.9 1.5-3.9 2-6.2 3.8-10.2.4 3 .7 7 2.6 13.6q4.2 13.3 13.3 20.7"/><path fill="#e9d315" d="M450.7 556.4a56 56 0 0 0 1 14.2 68 68 0 0 0-10.6-9.4c-5.9-4.3-12.1-8-14.9-4.6-1.9 4 4 9.5 9.4 13.5 5.7 4 8.8 5 12.5 7-3.1 1.2-7.2 1.8-12 4.2-4.8 2.6-11 7.3-8.8 12 3 4.1 10 1 14.6-1.4a72 72 0 0 0 10.2-6.9c-.4 2.9-1.4 8.4-1.4 13.8.2 7 1 13.8 5.8 15 5 .2 6-7.6 6-13.8q-.4-9.2-1.5-13.8a139 139 0 0 0 9.6 10.3c4 3.6 11.6 8.5 14.6 5.2 2.4-3.9-1.3-8.1-8.9-14.3-5.3-4.2-8.9-6-12.3-8 3.5-.8 7.1-.8 12.7-3.2 8.3-4 11.4-6.6 9.1-11.5-2.7-4.5-7-3.1-14.8.7a62 62 0 0 0-10.3 7c.6-3.9 1.2-9.5 1.2-13.8-.2-6.8-1.5-14.3-5.7-15.5-4.3-.2-5.2 6-5.5 13.3"/><path d="M449.6 556.2c.4-10.3 2.4-14.5 6.6-14.2 4.4 1 6.5 6 6.7 16.7q0 4.8-.7 11 4.5-3.4 8.2-5.3 6.5-3.2 9.6-3.6c3.3-.2 5.2.8 6.8 3.5 1.3 3 1.1 5-.7 7.3a31 31 0 0 1-8.8 5.6 39 39 0 0 1-9.6 2.7l-.7.1a78 78 0 0 1 9.9 6.5q6.3 5.1 8.5 8.4c2 3.1 2.2 5.2.7 7.6-1.7 2-3.9 2-8.1.2a32 32 0 0 1-8-5.5q-3.8-3.6-7.3-7.6.6 5.3.8 10.5 0 5.8-1.1 9.7c-1.4 3.9-3 5.2-5.9 5-4.5-1-6.6-5.8-6.8-16.1q0-4.1.9-10.9a69 69 0 0 1-8.1 5 36 36 0 0 1-8.2 3.4c-4 .7-6.2 0-8-2.5-1.3-2.6-.8-4.9 1.9-8q2.9-3 7.4-5.4 3-1.5 8.3-3l1.4-.5-.8-.3a65 65 0 0 1-9.4-5.5 44 44 0 0 1-7.8-7c-2.7-3.5-3.2-5.8-2-8 2.5-3.4 7.4-2.1 16.4 4.3q5 3.9 8.5 7.2-.7-5.3-.6-11.3m2.2.4q-.2 7.4 1 14l.8 3.6-2.6-2.9a73 73 0 0 0-10.4-9.2c-7.7-5.6-11.7-7-13.5-4.7-.7 1.3-.2 2.8 1.8 5.3q2.7 3.1 7.2 6.6a63 63 0 0 0 12.4 6.9l2.2 1.2-2 .8-4 1.2q-5 1.4-8 2.9a26 26 0 0 0-6.9 5q-2.9 3.3-1.6 5.5c1 1.4 2.5 1.8 5.4 1.2q3.2-.7 7.7-3.1 6.6-3.6 10-6.7l2.3-2.1-.4 3.2-.4 2.2q-1 7.3-1 11.5c.2 8.9 1.6 12.9 4.7 13.6q2.5.3 3.8-3.7 1-3.6 1-9a85 85 0 0 0-1.3-13.7l-.7-3.7 2.5 3q4.5 5.5 9.5 10.2a29 29 0 0 0 7.3 5c3.1 1.4 4.7 1.4 5.8.3q1.4-2-.7-5a46 46 0 0 0-8-7.8 77 77 0 0 0-10-6.6l-2.1-1.2-2.4-1.4 2.4-.6 3.5-.7q5.4-.9 9-2.6 6.4-3 8.3-5.1 1.9-2.2.5-4.9-1.3-2.5-4.3-2.1t-9 3.4q-4.5 2.2-10.1 6.9l-2.3 1.8.5-3q1.2-8 1.1-13.7c-.2-9.2-1.6-13.4-4.6-14.2-2.8-.1-4 3.5-4.4 12.4"/><path fill="#fff" d="M462.8 579.4q-.6 6-6.6 5.7a8 8 0 0 1-6.5-7.7q.6-6 6.6-5.8c3.7.9 6.2 3.8 6.5 7.8"/><path d="M464 579.6a7 7 0 0 1-2.2 5.2 7 7 0 0 1-5.6 1.6 9.5 9.5 0 0 1-7.8-9.1 7 7 0 0 1 2.3-5.4 7 7 0 0 1 5.6-1.5q3.1.5 5.5 3.1a10 10 0 0 1 2.2 6l-2.4-.3a6.6 6.6 0 0 0-5.3-6.3q-2.3-.3-3.8 1t-1.6 3.7a6.5 6.5 0 0 0 5.4 6.2q2.2.4 3.7-1t1.6-3.6z"/><path fill="#e9d315" d="M536.8 569.6a56 56 0 0 0 1 14.2 68 68 0 0 0-10.6-9.5c-5.8-4.3-12.1-8-14.9-4.7-1.9 3.9 4 9.6 9.4 13.6 5.7 4 8.8 5.1 12.5 7-3 1.2-7.2 1.9-12 4.1-4.8 2.6-11 7.3-8.8 12 3 4.2 10 1.2 14.6-1.3 3.6-2 8.3-5.1 10.2-6.8-.4 2.8-1.4 8.3-1.4 13.8.2 7 1 13.7 5.8 14.9 5 .2 6-7.5 6-13.7q-.5-9.2-1.4-13.8c2.1 2.5 5.3 6.2 9.5 10.2 4 3.6 11.6 8.4 14.6 5.1 2.4-4-1.2-8-8.9-14.2-5.2-4.1-8.9-6-12.3-7.8 3.5-1 7.2-1 12.7-3.4 8.3-4 11.4-6.7 9.1-11.6-2.7-4.5-7-3-14.8.8-4 2-7.7 5-10.3 7 .6-3.8 1.2-9.5 1.2-13.8-.2-6.7-1.4-14.2-5.7-15.4-4.3-.2-5.2 6-5.5 13.3"/><path d="M535.7 569.4c.5-10.3 2.4-14.5 6.6-14.2 4.5 1 6.5 6 6.8 16.7q0 4.8-.8 11 4.5-3.4 8.2-5.4 6.5-3.1 9.7-3.6c3.2-.3 5 .7 6.7 3.4 1.3 2.9 1.2 5-.7 7.3a31 31 0 0 1-8.8 5.7 39 39 0 0 1-9.6 2.8h-.6a79 79 0 0 1 9.8 6.5q6.3 5 8.5 8.3c2 3 2.2 5.2.7 7.6-1.6 2-3.9 2-8.1.3q-4.5-2.1-8-5.4l-7.3-7.6q.7 5.2.8 10.5 0 5.8-1.1 9.7c-1.4 3.8-3 5.2-5.9 5-4.5-1-6.6-5.8-6.8-16.1q0-4.1 1-11a68 68 0 0 1-8.2 5.1 35 35 0 0 1-8.2 3.3c-4 .6-6.2-.1-7.9-2.6-1.4-2.7-.9-5 1.8-8q2.9-3 7.4-5.4 3-1.5 8.3-3l1.4-.3-.8-.4a65 65 0 0 1-9.4-5.5 45 45 0 0 1-7.7-7.1c-2.7-3.6-3.3-5.8-2.1-8 2.5-3.4 7.5-2 16.4 4.5q5 3.8 8.5 7.2-.7-5.4-.6-11.3m2.2.4a66 66 0 0 0 1 14l.8 3.6-2.5-2.9q-3.8-4.4-10.5-9.3c-7.7-5.6-11.7-7-13.5-4.9-.6 1.3-.2 2.8 1.8 5.4q2.7 3.3 7.2 6.7a63 63 0 0 0 12.4 7l2.2 1.1-2 .8-4 1.2q-5 1.5-8 2.9-4.2 2-6.9 5c-2 2.2-2.4 3.7-1.6 5.4 1 1.4 2.5 1.8 5.4 1.3q3.3-.7 7.7-3 6.6-3.7 10-6.8l2.3-2-.4 3.2-.3 2.2q-1.1 7.2-1.1 11.5c.2 8.8 1.7 12.9 4.7 13.6q2.6.3 3.8-3.8 1-3.5 1-9 0-7-1.3-13.6l-.7-3.7 2.5 3q4.5 5.5 9.5 10.2 3.3 3 7.3 4.9c3.1 1.3 4.7 1.4 5.8.2q1.4-2-.7-5t-8-7.7a78 78 0 0 0-10-6.5l-2.1-1.2-2.4-1.4 2.4-.6 3.5-.7q5.4-1 9-2.6 6.4-3.1 8.3-5.3t.5-4.9q-1.3-2.4-4.3-2t-9 3.4q-4.5 2.4-10.1 7l-2.3 1.8.5-3q1.1-8.1 1.1-13.7c-.2-9.2-1.6-13.4-4.6-14.2-2.8-.1-4 3.5-4.4 12.4"/><path fill="#fff" d="M549 592.5q-.7 6-6.7 5.8a8 8 0 0 1-6.5-7.7q.6-6 6.5-5.8c3.9.9 6.3 3.8 6.6 7.7"/><path d="M550.2 592.7a7 7 0 0 1-2.3 5.3 7 7 0 0 1-5.5 1.6 9.5 9.5 0 0 1-7.8-9.2 7 7 0 0 1 2.2-5.3 7 7 0 0 1 5.6-1.5q3.1.5 5.5 3.1a10 10 0 0 1 2.3 6l-2.5-.3a6.5 6.5 0 0 0-5.4-6.3q-2.2-.3-3.7 1t-1.6 3.7a6.6 6.6 0 0 0 5.3 6.2q2.3.4 3.8-1t1.6-3.6z"/><path fill="#1a1a1a" d="M8 195.3c170.8-85.3 341-54.5 513.3-28C676.5 191 833.4 211.8 992 132.7v672c-170.8 85.3-341 54.5-513.3 28C323.5 809 166.6 788.1 8 867.2zm31.3 19.3v604.5c306.5-128.2 611.1 96 921.5-33.7V180.9C654.2 309 349.5 84.9 39.3 214.6" opacity=".2"/></svg>