<svg xmlns="http://www.w3.org/2000/svg" viewBox="0 0 1000 1000"><path fill="#fff" d="M8 195c171-85 341-54 513-28 155 24 312 45 471-34v672c-171 85-341 54-513 28-155-24-312-45-471 34z"/><path fill="#d42e12" d="M249 281v-74h24l15 56 15-55 23 2v73l-14-1v-59l-16 58h-16l-16-60v60zm122-52-11 30 22 2zm-9-16 18 2 28 77-17-3-5-15-30-3-5 14-17-1zm88 85-16-3v-27l-28-50 19 3 17 34 15-30 18 3-25 42zm44-30q1 12 6 19 6 8 16 10 10 1 16-5 5-5 5-18 0-12-5-19-6-7-16-9t-16 4-6 18m-16-3q1-17 10-26 10-9 28-6 17 2 27 14t10 30-10 26-27 7-28-15-10-30m104 52v-60l-23-3v-13l61 8v13l-23-3v60zm63 8v-60l-23-3v-13q30 4 61 6v13l-22-2v60zm47 4v-74l56 2v12h-40v15l36 1v13l-36-1v19h42v14z"/><path fill="#dfdfdf" d="M297 335q-8 1-18 6l-5 2-1-3v-3q-2-2-4 4l-2 5q-1 2-3-1-3-3-4-1v3q2 7-4 3-5-4-6-3v6q3 6 0 4l-3-3-12-5-14-2 4 3 13 12-4 1q-5-3-3 4v3h-4l-4-1 1 7v4l-9-2-7-2-4 1-2 1 3 3 8 11q3 4-14 4-9-1-13 1l-7 8h6q10 0 16 2 6 3 0 3t-8 3v2l8 2 3 1-4 1-15 6q-4 2-3 6l-1 2h2l16-2q4 0-2 2l-11 3-1 1 2 1 8 1q16 3 3 3l-10 2q1 3 9 4 4 1-3 2-6 1-9 4c-1 2 0 8 1 9l1-1 5-3c3-2 3-2 8-2q4 1 6 6l4 5 3 4v3l-1 3c-2 3-15 3-27 1l-14-6-2-1v2q1 8 7 14l2 2-2 5q-4 8-1 10l1 2-3 3q-5 3-2 3l5 1h4q1 2-6 8l3 1 7-1h3l-1 2-5 6-2 1h6l8-1q3 1-3 8l-3 3h2l11-2 3-2c0 1-2 8-4 10v2l12-2 2-1v2l-1 4-1 2h1l13-5q3-3 2 0l-2 6q-2 3 4 0l9-4q3-2 2 1l-3 5-2 1 13-3 3-1h1l-1 4-2 2 6-2 4-1q3 0 5 4l4 3 4 2v-2l9-23 18 14c6 4 18 18 22 23 10 15 14 25 14 41 0 9-1 13-3 22q-7 27-25 42-10 7-33 6-29-1-42-14a48 48 0 0 1-14-35q0-17 8-27 8-7 17-10 11-1 18 5 4 4 1 10-3 5-1 7 3 2 7-1 6-2 6-14 0-9-10-13c-6-4-9-4-19-4-8 0-9 0-13 2q-11 4-16 12c-9 13-13 33-11 47q4 16 16 30 19 22 56 22 27 1 45-11a76 76 0 0 0 36-53v-5q3-4 2-12l-1-3 2-1q3-4-1-11l-1-1 1-2q3-3 3-11l-3-9 1-2q3-1 3-6c0-6-2-15-4-16v-2l3-8q0-8-3-11l-1-2 1-3 1-5c0-6-6-15-10-19l-2-2q0-6-7-14-6-6-7-11l-3-6-10-6-1-2q-1-6-7-10-2-1-2-3 1-3-5-7-5-3-18-5c-18-2-26-5-35-14q-7-6-9-16-3-9 0-15l4-9v19q2 8 8 11 4 3 10 2 7 1 10 4 5 3 14 1l5-1h4l4 3 28 18q10 3 16-3 4-4-10-18-11-10-11-16l-4-9c-3-8-3-9 0-12l3-4 1-7-6 1v-9l-1-2-2 2-3 1-1-3-3-8-1 2-1 2v-2q-1-6-3-8h-1l-1 2-3 10q-3 10-13-4-5-6-3-9c2-5 12-12 22-14l4-2q0-2-5-4-3-2-9-1"/><path d="M201 432c2-2-12 0-15 0l-5 2 1-7 7-4 7-3 7-2q-6 1-11-4l4-3 5-1q5 0 2-1-4-3-11-4l-14 1 6-7q3-4 17-3c14 0 15-1 6-12l-5-6 3-2 4-1 11 5q7 2 3-4v-7l8 1-1-7h7q1-2-3-5l-7-6-9-5 14 1q7 2 13 6l5 2c2 1-1 3 1 1l-3-9c4-5 9 4 11 3s-1-6 1-8c3-1 4 4 6 4l5-11c3 0 2 8 4 7q7-5 18-8h11q5 2 7 6l-10 3-13 9c-5 5-5 6 0 13q10 15 14-2l2-8 3 2 2 9 2-5 3 6 1 6 5-3q2 6 1 11l6-1v5q-1 4-4 6-4 3 0 12l4 12 12 14q12 11 10 16-7 10-20 3l-19-12-10-8q-7-1-12 2-9 1-11-2-3-3-10-3-18-2-20-19l2-14c-6 10-6 15-4 24 3 13 15 28 44 30l14 3c4 2 10 6 9 11q9 4 9 12c13 5 15 13 15 14q0 3 7 11 6 7 6 14 6 4 9 10c2 5 6 11 0 18 6 4 6 19 1 22q6 5 5 17 1 4-5 7l3 5 1 7-1 7q-1 3-4 3c6 5 6 13 1 14 2 6 2 14-2 16q0 14-5 21-6 15-15 25-10 10-24 16c-20 9-54 8-74-2-17-9-31-27-34-46-3-17 5-43 16-52 17-13 47-9 53 6 2 8-1 17-6 19q-12 3-7-7 5-6-2-11c-14-10-34 0-39 19-6 24 3 46 23 56 16 8 48 9 60 2 23-13 37-51 30-81-4-17-19-38-40-53l-12-9-5 12q-5 8-4 14l-8-5q-2-5-6-5l-10 4q3-4 3-7-4 3-18 4c7-4 6-4 6-8q-4 4-16 7 4-4 3-9c-4 4-12 6-16 6 3-3 3-3 3-8q-6 4-15 3 4-6 4-12-7 7-16 4l7-8q2-4-4-3-4 2-10 1c6-4 9-12 10-13 6 0-9 12 4 9l8-1-4 5-6 8q6 1 8-2l7-7v7l-2 8q7 1 9-3l5-6v6l-2 8q7-2 11-8 6-8 4 2l-2 8q8-1 11-7 5-7 2 1v8q7-1 10-6 4-8 2 1l-1 8q6-2 6-4 2-4 6 5 3 4 5 4l3-10 4-13-16-8q-13-8-15-11 0-2-3-2c-5-1-17-11-17-16l-6-11q-4-7-22-7-14-2-22-5l-4-2q0 3 4 9l6 3-5 7q-3 7 2 8t0 4l-4 3 8-1q7-5 3 0-2 6-6 9l7-2q5-3 4 2c-2 4-1-1-3 3l-15 1 7-7q-1-4-4-2-2 1-7-2l7-5c-6-3-3-8-1-11l3-6q-4-1-6-5-4-7-4-14l8 5q8 4 21 4 13 1 15-3 2-3 0-5-6-6-7-12-4-4-10-2l-9 6-2-10 8-4 7-1q-3 1-7-2-5-1-5-3c1-2 14-2 17-2l-7-2q-4 1-13-3l9-4zm4 1c-2 2-14 3-11 4 0 0 10 1 14 4 1 2-3 4-3 4h-13c0 1 12 1 12 4q1 2-3 2l-12 3q-4 2-2 6l7-4h9q3 1 6 6 3 6 10 10 9 2 16 9 3 7 15 14c8 8 1 5 5 5q15 3 17 7 4 4 10 6 7 2 7 5 1 3 5 3c7 1 34 32 40 45 10 24 11 32 11 54q0 24-4 34c-6 14-30 39-37 39l-2 1-4 2-12 2a133 133 0 0 1-46-10l-1-3q-1 2-6-2-5-3-4-5-3-1-6-5-3-3-3-8-3 0-4-5-3-4-1-7-2-1-2-6-2-4 1-7-2-1-1-6 1-6 4-7-2-2 0-9 3-6 7-5c-3-3 2-6 3-7q6-5 7-2c1-4 11-4 15-4l12 6c6 5 6 6 3 12q-4 11 5 2 8-9-5-20c-6-5-10-6-21-5-20 3-27 10-33 28-8 32 3 60 29 72 12 6 19 7 37 7 28 1 45-5 61-22 10-10 20-37 17-43-5-3 0-2 2-2 2-1 3-11-1-15 8 1 4-10-1-13q6-1 7-9 0-8-6-12-3-1 2-2 6 1 5-7-1-7-5-12-6-3-10-3l8-1c6-2 7-12 3-16-6-3-16 1-17-1 2-2 9-3 12-4 4-4 7-7 1-17q-3-8-6-8c-5-1-16 5-24 4 4-3 16-5 21-7q4-4-4-13c-5-5-6-5-13-3q-7 3-18 4c3-3 15-6 18-8 6-4 6-5 1-11l-8-4-9 4c-6 3-15 5-16 5l14-7q7-5 8-8-2-12-17-2c-6 3-18 6-19 5-1-2 8-4 13-6 5-3 13-6 14-9-1-4-6-7-29-11q-24-2-34-20-13-22 5-41l10-10-6 9c-11 18-5 36 11 37q6 0 12 4 6 3 11 1l5-2h2l-8-6q-14-9-8-18 3-3 2 5-2 8 4 9l12 9c13 9 29 21 31 21q2-1-4-7-4-6 4 2c8 8 10 9 14 6 6-5 5-7-6-15q-9-7-13-18l-6-15q-3-3 2-7l4-8-3 1q-1 2-3-3l1-8-4 5q-2 1-3-3l-1-7-5 6v-15l-2 10q-3 5-8 6-3 1-8-6l-7-12c1-3 9-12 19-16l8-3-5-2-13 2q-8 2-17 8c-2 0 1-6-2-6-2 2-2 9-4 10-3 2-3-3-5-4-1 1 1 7-1 9-2 0-8-6-9-6 0 2 4 7 3 9q0 3-5 1c-3-1-17-9-21-9l10 8q9 7 3 7-6-2-8 0v7h-7c-2 3 1 5 0 9-2 5-2 5-8 1q-8-5-11-4 0 2 4 6c8 12 6 14-11 14 0 0-12-3-17 4h16l7 4v5l-10 2c11 3 10 0 14 2-3 5-5 5-15 7l-7 3q-4 2-4 4l6-2h10q5 2 4 5m98-31q0 3-2 3t-2-3 2-3 2 3m6 3-4 4h-7l-4-4v-6q1-4 4-5h6l5 5zl-2-1v-4q-1-3-4-3l-4-1q-3 1-3 4v4l3 3h5l3-3zm-27-14q6-3 15 0l8 4-2 1-7-3q-7-3-13 0z"/><path fill="#dfdfdf" d="M214 478q-1-2 3-4 5 0 12 5 7 6 10 11-2 4-5 6l-6 4q-1-5-7-11l-10-7zm22 20 5-6 6 3c4 3 2 2 6 7l-4 7q-3 2-5 6-5-1-9-6-4-1-6-7zm15 12 4-7 9 2q5 2 7 5l-2 12-3 8q-6-2-10-6-6-2-8-8zm21 13q0-6 2-11l6 3q6 2 8 6c-3 3-4 3-5 8l-1 11-7-5-6-4zm14 6 4-6q5 1 8 4l12 11-7 5-4 9-7-5q-2-4-7-6zm19 17 6-6 8 8 6 9-6 3-6 5-4-5-7-7zm16 17 5-3 4 5 3 6-5 2-5 3-3-4-5-5zm8 13 5-3 3 6 2 6-5 1-4 2-3-4-3-5zm6 12 4-1 3 10 1 11h-3l-4 1-2-10-4-9zm5 23 3-1v13l-1 16-3-1h-4l2-14-1-12zm-3 30h4c-1 10-3 13-6 19l-12 15-2-2-2-1c6-7 7-9 10-16s4-8 5-16zm-17 34 2 1-8 9c-4 2-5 4-11 6l-1-1-1-2q5-1 9-6 6-4 8-8zm-21 15 1 3-11 3-17-1v-4h14l12-2zm-29 3-1 1-15-2q-9-3-13-6v-1l2-2 12 5 15 2zm-30-10-3 1q-2 0-4-3l-3-3q1-3 2-1l7 4zm-11-7h-2l-3-4-2-4q0-4 1-2l6 8q2 2 0 2m-7-12h-2l-3-5q-2-2-1-4 1-3 2-1l3 7zm-4-13h-3l-1-4v-5q2-2 3 0v4zm-1-12-3-1 1-4 1-5q0-2 2 1l-1 4zm2-13q-2 1-2-1l1-5 2-5q2-2 3 0l-3 6zm7-15q-1 1-1-1l3-2 3-3h2l-3 3zm477-228q8 1 18 7 3 3 5 2l1-2v-4q2-2 4 5l2 4q2 2 3-1 3-3 4-1v4q-2 6 4 2l6-3v6q-3 7 0 4l3-3 12-6 14-3-4 4-13 13h4q5-2 3 4v3h4l4-1-1 7v4l9-4q5-3 8-3l3 1h2l-3 4-8 12q-3 6 14 2 9-3 13-1l7 6-6 1q-10 2-16 6-6 3 0 2l8 2v2l-8 4-3 1h4l15 3q4 0 3 6l1 2-2-1-16 2q-4 1 2 2l11 1h1l-2 2-8 3q-17 4-3 3h10q-1 3-9 6-4 2 3 1 6 0 9 3c1 1 0 7-1 8h-1l-5-2c-3-2-3-2-8 0q-4 0-6 6l-4 6-3 4v3l1 3c2 3 15 1 27-4l14-9 2-2v2c0 4-3 12-7 16l-2 3 2 4q4 6 1 10l-1 2 3 2q6 2 2 3l-5 1-4 2q-1 3 6 6l-3 2-7 1-3 1 1 1q2 4 5 6h2l-2 1h-4l-8 1q-3 1 3 7l3 3h-2a22 22 0 0 1-14-1c0 1 2 7 4 9v1l-5 1h-7l-2-1v3l1 3 1 2h-1c-3 0-10-2-13-4q-3-2-2 1l2 6h-4l-9-3q-3-2-2 1l3 4 2 1-13-1-3-2h-1l2 4 1 2q-1 1-6-1l-4-2-5 4-4 4-4 1v-2l-9-23-18 12c-6 4-19 16-22 21a57 57 0 0 0-14 39c0 9 1 13 3 22 4 18 14 36 25 45q11 9 33 9 29-1 42-15a53 53 0 0 0 14-36q0-17-8-26-8-7-17-9-11-1-18 6-4 3-1 9 3 7 1 7h-7q-6-4-6-14t10-14c6-3 9-4 19-4l13 1q11 3 16 10c9 12 13 32 11 46q-4 17-16 32-19 24-56 24-27-1-45-15a93 93 0 0 1-36-64q-3-6-2-13l1-2-2-2q-3-5 1-10l1-2-1-2q-3-3-3-11l3-9-1-2q-3-3-3-7c0-6 2-14 4-15v-1l-3-9q0-8 3-11l1-1-1-3-1-6c1-5 6-14 10-16l2-3q0-5 7-12l7-10q0-2 3-5l10-6 1-1q1-5 7-9l2-2q0-3 5-7 5-3 18-4c18-1 26-4 35-13q7-7 9-16 3-9 0-15l-4-9v3q2 9 0 16-2 8-8 11l-10 3q-7 0-10 3-5 3-14 0l-5-1-4-1-4 3-28 14q-10 3-16-5c-2-5 0-8 10-17q11-8 11-13l4-9q5-9 0-12l-3-5-1-6 6 1v-9l1-2 2 2 3 2 1-3 3-7 1 2 1 2v-3q1-5 3-7h1l1 2 3 10q3 11 13-2 5-7 3-9c-2-5-12-13-22-17l-4-1q0-2 5-4z"/><path d="M799 476c-2-1 11-2 15-3l5 1-1-7-7-2-7-2h-7q5 0 11-6l-4-3h-5q-5 2-2-1l11-5 14-3-6-5q-3-4-17 0-20 6-6-11l5-7-3-1h-4q-7 2-11 6-7 3-3-4v-7l-8 2 1-7h-7l3-5 7-6 9-6-14 2c-4 0-10 5-13 7l-5 2c-2 1 1 3-1 1l3-9c-4-4-9 4-11 4-2-1 1-7-1-8-3-2-4 3-6 3-2-2-3-9-5-10-3 0-2 7-4 7q-7-6-18-10l-11-1q-5 1-7 5l10 4 13 10c5 6 5 6 0 13q-10 15-14-2l-2-9-3 2-2 9-2-6-3 6-1 6-5-4q-2 6-1 11l-6-2v6l4 6q5 3 0 12l-4 11q-1 4-12 12-12 10-10 14 7 12 20 7l19-10 10-6q7 0 12 2 9 2 11-1 3-3 10-3 18-1 20-19l-2-14c6 10 6 15 4 24-3 13-15 29-44 29l-14 2c-4 2-10 5-9 10q-9 3-9 11c-13 3-15 10-15 12q0 4-7 9-6 7-6 13-6 3-9 9c-2 5-6 10 0 18-6 2-6 18-1 22q-5 3-5 16 0 4 5 8l-3 4-1 7 1 7 4 4c-6 4-5 12-1 14-2 5-2 13 2 16q0 15 5 22 6 16 15 28 11 11 24 19c21 11 54 12 74 1 17-10 31-31 34-50 3-18-5-42-15-49-17-12-49-7-54 7-2 8 1 17 6 19q12 4 7-7-5-6 2-10c14-10 34-2 39 16 6 23-3 47-23 58-16 9-48 9-60 1-23-16-37-56-30-86q7-25 40-48l12-8 5 12q5 8 4 14l8-5q2-4 6-4l10 3q-3-3-3-7 4 4 18 4c-7-4-6-5-6-8q4 4 16 5-5-4-3-9c4 4 12 6 16 5-3-3-3-3-3-8q6 4 15 1-4-6-4-11 7 4 16 1l-7-7q-2-3 4-4 5 1 10-1c-6-2-8-10-10-11-6 1 9 10-4 10h-8l4 4q1 5 6 7h-8l-7-5v6l2 8q-7 2-9-2l-5-5v6l2 8q-7-1-11-7-7-6-4 2l2 8q-8 0-11-6-5-7-2 1v8q-6-1-10-6-4-6-2 1l1 8q-6-1-6-4-2-2-6 5-3 5-5 4l-3-10-4-13 16-8q13-7 15-11 0-2 3-2c5-1 17-12 17-17l6-12q4-8 22-11 14-4 22-9l4-4q0 4-4 11l-6 4 5 6q3 6-2 8-4 3 0 5l4 2h-8q-7-3-3 2l6 7h-7q-5-3-4 3c2 3 1-2 3 2l15-3-7-5q1-4 4-3l7-4-7-3c6-5 3-9 1-12l-2-5 5-6q4-9 4-15l-8 7q-7 5-21 9-13 3-15-1c0-3-2-2 0-5q6-7 7-13 4-4 10-4l9 4 2-10-8-2h-7l7-3 5-4c-1-2-14 0-17 1l7-3 13-6-9-2zm-4 2c2 2 14 0 11 2 0 0-10 3-14 6-1 3 3 4 3 4l13-3c0 2-12 4-12 7q-1 2 3 2h12q4 2 2 5l-7-3-9 3q-3 0-6 7-4 6-10 11-9 3-16 10-3 8-15 15c-8 8-1 5-5 6q-15 3-17 6-3 4-10 6t-7 4q-1 3-5 3c-7 0-34 28-40 40a98 98 0 0 0-11 52q1 24 4 35c6 15 30 44 37 45h2l4 2 12 4a101 101 0 0 0 37-6l9-4 1-3q2 1 6-3 5-3 4-5 3-1 6-6 3-2 3-8 3 0 4-5 3-5 1-8 3-1 2-6 2-4-1-6 2-3 1-7 0-6-4-6 2-2 0-9-3-5-7-5c3-2-2-5-3-6q-6-5-7-2c-1-3-11-3-15-3l-12 6q-8 6-3 12 4 11-5 3-8-10 5-20c6-6 10-7 21-6 20 2 27 7 33 25 8 30-3 61-29 75-12 6-19 8-37 7-28-1-45-9-61-28-10-12-20-41-17-46 5-2 0-3-2-3-2-1-3-12 1-14-8-2-4-11 1-13q-6-2-7-11 0-8 6-10 4-1-2-3-6 0-5-8t5-11l10-1-8-3c-6-3-7-13-3-16 6-2 16 4 17 2-2-3-9-4-12-7-4-4-7-8-1-17l6-7c5 1 16 8 24 9-4-4-16-7-21-11q-4-5 4-12c5-4 6-4 13-1q7 4 18 6c-3-3-15-7-18-10q-9-4-1-12l8-2 9 5c6 4 15 7 16 6l-14-8q-7-5-8-9 2-10 17 0c6 4 18 8 19 7 1-2-8-4-13-7s-13-8-14-10c1-4 6-6 29-9q24-1 34-20 13-23-5-41l-10-10 6 10c11 17 6 36-11 36l-12 4q-5 2-11 0l-5-2h-2l8-6q14-8 8-17-2-3-2 4 2 8-4 10l-12 7c-13 9-29 18-31 18q-2-1 4-6 4-6-4 1c-8 7-10 8-14 4-6-6-5-8 6-14q10-6 13-16l6-14q3-3-2-7l-4-9 3 1q2 2 3-3l-1-7 4 5q2 1 3-2l1-8 5 7v-15l2 10q3 7 8 7 3 1 8-6l7-11c-1-3-9-13-19-18l-8-3 5-1q4-1 13 2c4 1 13 5 17 10 2-1-1-7 2-6 2 1 2 8 4 10 3 1 3-4 5-4 1 0-1 6 1 8 2 0 8-6 9-5 0 1-4 7-3 8q0 2 5 2c3-2 17-11 21-11l-10 8c-6 7-7 7-3 8q6-2 8-1v7h7c2 2-1 5 0 9 2 4 2 4 8 0q9-6 11-5l-4 6q-13 18 11 12s12-5 17 1c-4 0-13 2-16 4l-7 5v4l10 1c-11 5-10 1-14 4 3 4 5 4 15 4l7 2 4 3h-6l-10 1q-5 3-4 6m-98-29q0 3 2 4l2-4-2-3q-2 0-2 3m-6 3 4 4q4 2 7 1l4-4v-6q-1-4-4-5l-6-1-5 4zl2-1v-4q1-3 4-3a6 6 0 0 1 7 3v5l-3 3-5-1-3-3zm27-12q-6-3-15-1-4 0-8 3l2 2 7-3q7-2 13 1z"/><path fill="#dfdfdf" d="M786 524q1-1-3-4l-12 7c-6 5-6 7-10 12l5 6 6 3q1-6 7-12l10-8zm-22 22-5-5-6 4c-4 2-2 2-6 6l4 7 5 6q5-1 9-6c2-3 5-3 6-8zm-15 13-4-7-9 3q-5 1-7 5l2 11 3 8 10-5q6-3 8-9zm-21 13-2-10-6 2q-6 1-8 6c3 3 4 2 5 7l1 12 7-5q5-1 6-4zm-14 6q-1-5-4-7l-8 4-12 9 7 6 4 9 7-4 7-5zm-19 15q-3-5-6-6-4 2-8 7l-6 7 6 5 6 5 4-5 7-5zm-16 15-5-4-4 5-3 5 5 3 5 4 4-4 4-4zm-8 12-5-3-3 4-2 6 5 2 4 3 3-4 3-5zm-6 11-4-2-3 10-1 11h3l4 2 2-9q1-5 4-9zm-5 22-3-1v13l1 16 3-1 4 1-2-14 1-13zm3 30h-4c1 10 3 13 6 20l12 17 2-1 2-2c-6-8-7-10-10-17s-4-9-5-17zm17 37-2 1 8 10 11 8 1-2 1-2-9-6q-6-5-8-10zm21 18-1 2 11 4h17v-4l-14-1-12-3zm29 4 1 2 15-3q9-2 13-6v-2l-1-1-13 5q-8 3-15 2zm30-10h3l4-2 3-4-2-1-7 5zm11-8h2l3-4 2-5q0-3-1-2l-6 9q-2 2 0 2m7-13h2l3-5q2-3 1-5t-2 0l-3 7zm4-13h3l1-5v-4q-2-3-3 0v4zm1-13h3l-1-5-1-4q0-2-2 1l1 4zm-2-12q2 1 2-1l-1-6-2-4q-2-2-3 1l3 6zm-7-14 1-1-3-3-3-2q-3-1-2 1l3 2z"/><path d="M374 701c-17 4-42 14-52 20-3 2-2 4 3 15l7 13 21-9c11-4 24-9 31-10l12-1 2 5c3 7 1 6 6 9 6 2 18-3 18-3 15-3 23-3 77 5 54 9 63 10 78 18l13 7 4 1 4-4 4-10 13 6 52 29 7-12c7-13 8-12-17-27-34-21-67-33-70-25l-2 4-21-7c-27-9-102-21-129-19l-20 2-2-5q-6-11-39-2"/><path fill="#dfdfdf" d="M401 700c-12-1-35 4-59 14-20 9-21 9-15 21l5 10 20-7 31-11 12-1-3-9q6-13 16-15zm95 14c-24-4-47-6-58-6q-26 3-35 8l-8 3q4 7 4 13c2 5 1 7 7 8 5 1 16-3 16-3 15-3 24-3 77 5 54 9 65 12 78 18q12 7 16 7 3 0 4-5l5-18c-3-1-1 1-5-1l-16-9q-8-5-22-8l-61-12zm100 14h-4l7 7q8 5 6 12l-2 7 13 7c6 2 19 10 30 16q17 11 21 11l5-9q6-10 1-13a324 324 0 0 0-77-38m-7 2-2 4c2 1 9 6 12 6h2v-1l-5-3zm-179-27-7 4q-4 3-6 8l10-4 6-1-3-6z"/><path d="m435 716 1 6h4l2-1 1-2-1-2-3-1zm-3-2h11l2 2v5l-1 2 1 1 1 2v3l1 1v2l-2-1-1-2v-2l-1-3h-7l1 7h-3zm21 11h5l-3-8zm-5 7 5-18 3 1 7 18h-2l-2-6h-7l-1 5zm23 2v-18h2v8l9 1v-8l2 1 1 17h-2l-1-8-8-1v8zm21-5 5 1-3-8zm-5 6 6-16h2l7 19-3-1-2-5-6-1-2 5zm29-1h2l-2 5-6 1-5-4-2-7 2-6 6-2 5 3 2 4h-2l-2-3-3-1q-3-1-4 1-2 1-2 5l2 5 4 3 3-1zm4 7 1-17h2v7l9 2v-7h3l-1 18-2-1v-8l-9-2v8zm17 3 2-17 2 1-1 17zm10-13v6l4 1h3l1-2-1-2-3-2zm-2-2 7 1 2 1 1 1 2 4-1 3-2 1 2 1v7l1 1-3-1v-4l-1-3-3-1-3-1-1 7h-2zm14 21 2-17h3l-3 17z"/><path fill="#171796" d="M401 365q-11 5-12 17-2 14 6 21l4 6-4 4q-7 7-8 17 0 10 8 19l4 5-5 5q-14 16 1 35l5 5 100 15 101 15 5-5q15-15 0-34l-5-7 5-4q14-17-1-35-6-7-1-9c6-4 10-16 7-25-4-13-20-23-31-20l-9 5-6 4-6-6q-16-15-33-3l-4 4-5-6q-17-18-35-4l-3 3-5-5q-7-9-18-10t-18 6l-3 2-5-6q-15-15-29-9"/><path d="M401 364q14-6 30 9l4 5 2-1q9-9 19-7t19 11l3 4 4-3q8-6 18-5t18 10l4 5 3-3q8-6 18-6 9 1 17 10l5 4 5-3 9-5q9-3 19 4 11 6 14 17 3 6 0 15-3 8-7 11l-2 2 3 5q16 19 1 37l-4 4 4 5q15 21 0 36l-5 5-203-30-5-5q-8-10-8-19 0-10 8-18l4-4-4-5q-8-9-8-19t8-18l4-3-4-5q-7-9-7-22 1-13 14-18m-11 19q-1 11 6 20l5 6-5 5q-7 7-7 16t7 18l5 6-6 6q-6 7-6 16 0 8 7 17l4 5 201 29 4-4q14-13 0-32l-5-8 5-5q14-16-1-33l-4-7q0-3 4-4l6-10v-14q-3-9-13-15-9-6-17-3l-8 4-7 4-7-6q-7-7-15-8-9-1-16 5l-5 5-6-7q-7-9-16-10t-17 6l-4 4-6-6q-7-9-17-10t-17 6l-4 3-6-7q-8-7-14-9-6-3-13 1-11 4-12 16"/><path fill="#d42e12" d="M396 505q-15 17 0 36l4 5-4 5q-5 4-6 8-5 14 6 27 6 5 0 10l-5 6c-7 15 4 35 22 38q10 2 17-5 5-5 10 1 8 9 17 11c7 1 10 0 17-5l5-5 5 6q14 19 33 6l6-3 4 5q9 9 16 10 8 1 17-7l6-5 4 5q11 13 19 13 8 1 17-6 8-7 8-16c-1-6-6-16-10-20l-3-4 5-5q17-15 0-35l-4-5 5-5q14-17-1-35l-5-6-100-15-100-14z"/><path d="m395 504 5-5 101 15 100 14 6 7q16 19 1 37l-4 4 3 5q9 10 8 19 1 8-8 17l-4 4 2 3 6 10 4 11q2 9-9 17-8 8-17 6-8-1-20-13l-3-4-5 4q-9 9-18 7-8-1-17-10l-3-4-5 2q-20 14-35-6l-4-5-4 4q-9 8-18 6-10-1-18-12l-4-3-4 2q-7 7-18 5-14-1-21-15-8-13-2-25l5-6 2-4-2-4q-6-6-7-14-2-9 1-15l6-8 3-4-3-4q-16-21 0-38m2 2q-15 16 0 35l5 6-5 5-6 7q-3 6-1 13 1 7 7 13l3 6-3 6q-4 3-4 6-6 10 1 22t19 14q10 1 16-5l6-3q3 0 6 4 7 10 16 11 7 2 16-6l6-5 6 7q7 9 14 11 8 1 17-5l7-4 5 6q8 9 15 9 7 2 16-6l7-5 5 5q11 11 18 12t16-5q9-8 7-15l-3-10-5-9-4-5 5-6q8-7 8-15t-8-18l-5-7 6-5q14-16-1-33l-5-6-99-15-100-14zm-23-18v142q0 8 8 12c8 7 16 14 61 17 41 7 50 12 54 29l3 10 2-9c3-16 13-18 53-13 51 9 55 5 62 0q3-1 7-8 2-7 1-8V380l-126-18q-61-10-125-17zm248 36 1 119c0 16 1 21-1 24l-5 6c-8 7-14 8-50 3-23-3-35-5-53-5-3 2-11 1-15 16-4-16-8-16-8-16-19-11-27-11-58-16-20 0-41-6-50-15l-6-7V348q60 7 122 17 61 10 123 18z"/><path fill="#fff" d="M465 421c-8 16-8 22-2 36q7 16 19 24c21 13 46 10 57-9 7-11 6-31-1-41l-2-3-2 7q-3 13-10 19-15 12-37 0c-10-6-15-14-19-33l-1-5z"/><path d="M462 422c-6 14-6 21 2 38 21 44 80 38 80-8 0-8 0-12-4-21l-4-7-3 12c-6 22-24 29-45 18q-16-9-19-31l-2-11zm20 32c14 12 34 12 45 2q7-9 9-16l1-8 4 12q1 13-3 21c-10 26-42 29-63 6-9-11-17-29-13-41l4-10 3 14q4 13 13 20"/><path fill="#e9d315" d="m451 556 1 15-11-10c-6-4-12-8-15-4-2 4 4 9 10 13l12 7-12 4c-5 3-11 8-9 12 3 4 10 1 15-1l10-7-1 14q-1 12 6 15c5 0 5-8 5-14l-1-14 10 10c4 4 11 9 14 6q4-5-9-15l-12-8q4 1 13-3 12-5 9-11-4-6-15 0l-10 7 1-13c0-7-2-15-6-16q-5 1-5 13"/><path d="M450 556q0-14 6-14 7 1 7 17l-1 11 8-6 10-3q4 0 7 3 2 4-1 8l-9 5-9 3h-1l10 7 8 8q3 4 1 7-3 4-8 1-5-2-8-6l-7-7v10l-1 10q-2 6-5 5-7-1-7-16l1-11-8 5-9 3q-5 1-8-2-1-4 2-8l8-6 8-3h1v-1l-10-5-8-7q-3-5-2-8 4-5 17 4l8 8zm2 1 1 14 1 3-3-3-10-9q-11-8-14-5-1 2 2 6l7 6 13 7 2 1-2 1-4 1-8 3-7 5q-3 4-2 6t6 1l7-3 10-7 3-2-1 3v2l-1 12q0 13 5 14l3-4 1-9-1-14-1-3 3 3 9 10 8 5h5v-5l-8-8-10-6-2-2-3-1 3-1h3l9-3 8-5q3-2 1-5-1-3-4-2l-9 3-11 7-2 2 1-3 1-14q0-13-5-14-4 0-4 13"/><path fill="#fff" d="M463 579q0 6-7 6-6-2-6-8t6-5q7 1 7 7"/><path d="m464 580-2 5q-2 2-6 1-3 0-5-3l-3-6 3-5 5-2 6 4zl-2-1a7 7 0 0 0-6-6l-4 1-1 4a7 7 0 0 0 5 6l4-1 2-4z"/><path fill="#e9d315" d="m537 570 1 14-11-10c-6-4-12-8-15-4-2 3 4 9 10 13l12 7-12 4c-5 3-11 8-9 12 3 4 10 1 15-1l10-7-1 14q-1 12 6 15c5 0 6-8 6-14l-2-14 10 11c4 3 11 8 14 5q4-5-9-15l-12-7 13-4q12-5 9-11-4-6-15 1-7 3-10 7l1-14c0-7-1-15-6-16q-6 1-5 14"/><path d="M536 569q0-15 6-14 7 1 7 17l-1 11 9-5q6-4 9-4 4 0 7 3 2 4-1 8l-9 5-9 3h-1l10 7 9 8q2 4 0 7-2 4-8 1l-8-6-7-7 1 10-2 10q-1 6-5 5-7-1-7-16l1-11-8 5-9 3q-6 1-7-2-2-4 1-8l8-6 8-3h1l-10-6-8-7q-3-5-2-8 4-5 17 4l8 8zm2 1 1 14 1 3-3-2-10-10q-11-8-14-5l2 6 7 6 13 7 2 2h-2l-4 2-8 2-7 5q-3 4-2 6 2 2 6 1l7-3q7-3 10-7l3-2-1 4v2l-1 11q0 13 5 14l3-4 1-9-1-14-1-3 3 3 9 10 8 5h5v-5l-8-8-10-6-2-1-3-2h3l3-1 9-3 9-5v-5q-1-2-4-2t-9 4l-10 6-3 2 1-3 1-13q0-14-5-15-4 0-4 13"/><path fill="#fff" d="M549 593q0 6-7 5-5-1-6-7 1-6 6-6 7 2 7 8"/><path d="m550 593-2 5-6 2-5-4q-3-2-2-6l2-5q2-2 5-1 4 0 6 3zl-2-1a7 7 0 0 0-6-6l-3 1-2 4a7 7 0 0 0 5 6l4-1 2-4z"/></svg>