<svg xmlns="http://www.w3.org/2000/svg" viewBox="0 0 1000 1000"><path fill="#198a00" d="M8 195c171-85 341-54 513-28 155 24 312 45 471-34v672c-171 85-341 54-513 28-155-24-312-45-471 34z"/><path fill="#ef7d00" d="M875 415q58-13 117-42v432q-58 29-117 42z"/><path d="M758 428q57-1 117-13v432q-58 12-117 13z"/><path fill="#de2010" d="M641 423q57 6 117 5v432q-58 1-117-5z"/><path fill="#ef7d00" d="M906 247s40-29 44-34c1 1-16 29-51 47 32-16 59-49 64-51 4 0-7 31-71 64 50-26 79-63 79-60q2 0-10 17-10 13-39 33c13-7 45-38 45-35 1 1-31 57-92 58 48 1 79-40 84-42 0 0-5 16-33 33q-13 10-37 16c29-10 21-6 21-6 0 1-17 18-38 14l19 1c-2 2-14 8-28 4l20 2q-1 3-13 5l-59-25q44-16 92-41z"/><path d="M906 247a330 330 0 0 0 45-35q1 2-3 6l-9 12-1 1 11-10 9-9 5-4 1 1v4l-8 13-4 4 13-12 4-5 2-1v1l-1 4-11 16 3-2 5-4 1 1-6 9-7 9 4-3v2l-2 4-10 13a117 117 0 0 1-35 24l-1 1-1 1a55 55 0 0 1-22 13h1l2 1v1l-3 2-6 2 2 1-5 3q-4 3-9 2a399 399 0 0 1-59-25 686 686 0 0 0 92-41zm0 1h-3q-45 24-91 40 53 24 59 24l8-2 3-1v-1h-5l-14-1v-1h1l13 1 11-3 2-2h-18v-1h11l16-6 11-8h-2l-19 6 19-7q24-10 39-25l11-16-6 5-8 8q-15 13-30 20-19 9-39 9v-1a94 94 0 0 0 48-14q9-5 20-15h1a139 139 0 0 0 23-29l-1 1-4 3-9 8a179 179 0 0 1-31 23l6-4 20-17 4-3 17-22 1-3-5 5a386 386 0 0 1-63 49l-10 4 10-5q18-10 36-25l3-2 14-15 8-12v-4l-13 13-23 19-1 2-27 17v-1a158 158 0 0 0 39-29l12-16q-6 6-44 34m61-20"/><path fill="#ef7d00" d="M798 351c-8 2-8 7-8 8l-1 4 2-3q2 1 11-4c-5 5-3 7-2 7q-1 2 2 5v-3c0-1 5-1 5-8q3 8 4 7-1 1 4 3l-2-4s4-3 1-9l4-5-5-2v-10l-2-10-5 17c0-2 0 6-8 7"/><path d="M798 351q4-1 6-5l1-2v-1l6-16v-1l1 1 2 10v9l4 2h1v1l-4 5v7l-1 2q-1 3 1 4v1l-4-2-1-2-1-1-2-3-5 5 1 2v1h-1q-3 0-3-3v-2l-1-2 1-3q-4 3-7 2l-2 3h-1v-4l1-4q3-3 8-4m0 1q-4 0-7 4l-1 3v2l1-2h1q4 0 10-4v1l-3 5 1 1v3l1 2v-3h1l2-1q3-2 3-6v-1l1 1 2 5 1 1v1l1 1 1 1v-3l2-3-2-6h1l4-5-5-2v-10l-2-8-5 15-1 3q-1 5-7 5"/><path fill="#ef7d00" d="M838 323c0 1 6 5 12 4 1-2-4-4-5-5 3 2 12 7 18 4 2-4-4-2-12-10 6 3 19 7 25 3 2-3-13-8-19-14l-14-4-20 18z"/><path d="m838 324-15-5v-1l19-17h1l14 4 11 7 7 3 2 2v2h-1q-4 3-13 2l-9-3 7 4 3 1v3q-5 3-11 1l-3-1v2q-6 2-12-4m0-1q6 5 11 4v-1l-3-2-1-2q0-1 0 0l8 3q6 3 10 0v-1l-2-1-10-6v-1h1l12 4q7 1 12-1v-1l-2-2-7-3-11-7-13-4-19 17z"/><path fill="#ef7d00" d="M816 276c0-1 6-4 33-7 3 0 18-8 23-11 7-3 31-14 38-21 5-1-1 8-7 12-7 5-29 17-37 18 10-1 4 7-11 7 7 2 4 3 4 3 0 1-13 3-17 1 9 2 6 4 6 4-1 0-9 2-14 1 7 1 3 2 3 2l-9 1c-5-1-12-10-12-10"/><path d="m816 275 6-2 27-5q2 1 19-8l3-2a229 229 0 0 0 41-20l-1 3q-3 6-8 9l-32 17v2l-1 1-6 3-6 1 2 2v2h-1l-11 2h1l-1 2-9 2-2 2-10 1-10-10-1-1zm52-8q5-1 17-8l18-10q4-2 7-8l1-3h-1q-4 4-19 12l-19 9-4 2-19 9-32 6 1 1 10 9 9-1h1l-2-1-2-1q-1 0 0 0v-1l2 1 6-1 6-1-2-1-4-1v-1l4 1 6-1 7-1-5-3 1-1 9-1 6-2v-2zh-2v-1z"/><path fill="#ef7d00" d="M827 328v18c-2 1-12 0-11 8q0 4 2 6v-4s3 2 7-4l-1 7q0 4 4 5-2-3-1-4s4-1 3-9h3s0 4 4 3q2 2 0 3 1 1 4-3t-3-7q-1-2 2-3l4 2c1 1 0-3-4-4h-5l-1-15z"/><path d="M826 329v-1l8-2 1 1v8l1 7h4q3 0 4 3l1 1-1 1h-1q0-2-3-2h-1l-1 1 4 4-1 5-2 2-2 1h-1v-1l1-1v-2q-3 2-4-1l-1-2h-1l-1 8-2 2v2l1 1h-1q-3 1-3-1l-1-2v-1l-1-2v-3l-3 2h-2l1 3v1h-1l-2-3-1-4q0-4 4-7l6-1h1l1-1zm1 0 1 16-1 1-2 1-6 1q-3 2-3 6l1 4 1 1-1-3h3l4-4h1l-1 6 1 1v1l1 3h1l-1-1 1-2 2-2 1-7q1-2 2-1l1 1 1 1q1 3 3 1 2 1 1 3v1q2-1 2-3l1-4-3-3h-1l1-3h2l3 1q0-2-3-2l-5-1-1-6v-8z"/><path fill="#ef7d00" d="M843 340c0-1-7-9-6-12q3 3 8 3c-1-2-3-1-6-5-3-5-3-12-13-20 7 9 20 12 21 9 0-3-12-11-12-13 4 4 16 13 26 10 0-2-7-5-10-8-7-3-23-14-23-17q-10-11-12-11l-1-2c-3-8 1-11 4-11l5-2-6-1c3 1 9-1 8 4 3-1 9-9-7-9-6-5-28-6-34 20l2 1-32-5c-19-5-38-17-40-16-1 2 11 13 11 14l-33-17-15-8c-2 6 11 18 14 20l20 10 3 2c-31-14-36-18-38-19s-9-9-11-9c-1 1 1 13 16 21l31 13-34-15c-7-3-15-11-16-10s3 9 10 13l28 13-32-14-7-5c-1 0 1 14 35 23 3 1 9-2 11-1l-18 2c-1 1 2 6 19 5l13-2-24 5q0 2 13 6l19-3 5-1-16 5-6 1c0 1 8 8 32 0-2 3-14 6-14 6q0 2 7 4h7q7-1 16-8l-15 10c5 3 15-1 16-1l23-14-28 18c3 2 11-1 12-1l13-7-13 9c0 6 22-4 24-6 1 0-10 6-11 9 5 5 16 3 18 1v4l4-5-3 8-2 10c0 2 7-4 7-15 0 6-3 17-2 18q4-2 7-11l6 8-1-7 1-18c7 11 9 16 7 25q5-2 5-11c3 10 13 10 14 10"/><path d="m844 340-2 1-4-1q-6-3-7-7l-2 5q-1 4-4 4v-1q2-6-1-12l-5-11-1 16 1 5v2h-1l-6-6-5 9h-2v-7l-1 2-3 3h-1v-1l2-10 1-4-2 2-1-1 1-2v-1l-3 1-5 1q-7 0-10-4l3-4-13 3h-2l-1-1v-2l1-1 1-1-2 1-5 2q-6 1-7-1l2-2h-3q-7 2-10-1v-1l2-1h1-11l-5-2-2-2 3-1 8-3q-13 3-22 2l-6-2-1-3h4l2-1 4-1-12 1q-6 0-10-3l-4-3 7-1h1l3-1-16-2-2-3-1-1 4-1h1q-19-6-28-15l-4-6-1-3q2 0 3 2l6 4-8-10 1-3 2 1 8 6-5-7-2-6v-3q1-1 6 5l6 4 7 5 5 2-7-7q-7-9-5-12h2l3 2 10 6 30 15-1-2-7-8-1-1 1-1q1-1 4 1l8 3q18 9 28 11l3 1 27 4q2-10 7-15 4-5 10-7l10-1 7 3q11 0 11 4l-1 4-3 2h-1v-4h-1v1l-3 1h-2l-4 3v8h1v2l12 11 9 8 14 8 6 5 3 2 2 2-1 1q-6 2-16-3l-1-1 2 2 2 4-3 1-6-1-5-2v1l4 7q0 4 2 5l4 3 2 1-1 1-3 1-3-2-2-1 1 3 4 5zm-39-13v-1l1 1v6l-2 11h1l2-3q3-3 3-7h1l6 7v-1l-1-5v-18l1-1v1l7 13q3 5 1 12l2-4 2-6v-1h1q1 6 7 9h5l-1-1-4-5v-5l3 1 4 2-1-1-4-3-2-5-4-7-2-3-5-5v-1h1l5 5 7 3 6 1h2l-6-7-4-3-2-4h1q3 5 10 8 8 5 15 3l-4-3q-6-3-6-5l-14-8-10-9-11-10-2-2v-9l5-4 3-1h-2l-2-1h-1l1-1 2 1h2l3 1 2 2 1-1 1-3q0-3-10-3h-1q-1-2-6-3l-10 1q-12 4-16 20v1l2 1-1 1q-6-3-29-5l-3-1q-11-2-29-11l-10-4h-1 1l1 3 6 6 2 2 1 1v1h-1l-46-24q-2 3 5 10l8 9 13 6 7 4 2 1h1v1l-44-24-4-4v2l2 6q4 7 13 12l16 7 10 5 4 1q2 1 1 2h-1 1-1l-9-4-17-8-8-3-10-7-5-4v1l2 4q4 6 8 7l3 2 13 6 9 4 2 1h1v1l-13-5-19-8-7-6 1 2 4 6a71 71 0 0 0 31 15l3-1h4l2-1h1l1 1-13 2h-6v1l3 2 16 2 7-2 5-1h2v1l-18 5h-1l-6 1h1l2 1q4 3 10 3l22-3 1-1h1v1l-9 3-6 2-3 1h-3l1 1 5 2q10 2 25-3h1v1l-12 5h-2l1 1 5 2h7a34 34 0 0 0 16-8h1l-3 4-7 4-4 2-1 1h8q6 0 7-2l24-14-1 1-6 5-12 7-7 4-2 2h6l5-2 6-3 7-4v1l-12 9v1h2l8-2 9-3 2-1h1l1-1h1v1l-3 1-3 2-5 4q2 4 9 4l5-1 3-1 1-1v4-1l2-3h1l-1 4-2 8-1 6 2-3 3-6zm-73-17"/><path fill="#ef7d00" d="M732 272q0 2-10 3c2 5 13 1 13 1s-5 6-10 7c3 2 13 1 15 0l4-4-11 11c0 1 10 1 13-1l8-5-16 10c6 1 17-2 25-7-11 8-12 9-18 11 5 1 8 4 24-3 10-5 15-13 15-13q-9 12-25 21c-1 2 10 6 26-10q-26-9-53-21"/><path d="m733 272-10 3q1 3 6 2l6-1h1l-4 4-5 3 6 1 7-1 1-1 3-4h1v1l-4 4-7 7h4q6 0 7-2l9-5v1l-14 10 10-2 12-5h1v1l-8 5-8 5h1l6 1q6 0 15-5a41 41 0 0 0 15-12h1l-9 9-17 12 1 1h6q9-2 18-11h1v1q-10 9-19 11h-6l-1-1-1-1 11-7-14 4-8-1h-2v-1q-1 0 0 0l10-6-5 1q-7 3-12 1h-1l1-1 5-2h-10l-1-1 1-1 5-5-5 1-8-2v-1l6-3 2-2-4 1q-6 0-7-3v-1l10-3z"/><path fill="#ef7d00" d="m813 300 5 7q5 5 4 6z"/><path d="m814 299 1 3 3 4 4 5 1 2v1l-1-1-1-2-3-4-5-7v-1z"/><path fill="#ef7d00" d="m811 271 6 6c4 2 10 9 11 10l2 15z"/><path d="m812 271 1 2 4 3 7 6 4 5 3 15-1 1v-1l-1-7-2-7q0-2-4-5l-7-6-5-6v-1z"/><path fill="#ef7d00" d="M785 279c0 2-5 9 3 18l-8 11c1 0 4 2 12-5 13 14 9 20 9 21z"/><path d="m786 279-1 2-1 7q1 5 4 9 2 0 0 0l-7 10h2q5 0 9-4h1q8 8 9 15l-1 6-1-1 1-4q-2-7-9-15l-8 4h-4l7-11q-4-4-4-9l1-7 1-2z"/><path fill="#ef7d00" d="m800 313 1-7 5 3c1 0 10 1 11 7z"/><path d="m799 314 1-8 1-1 4 3h1l2 1 6 2q3 1 3 5h-1q0-3-3-4l-6-2-2-1h-1l-3-2-1 5v2z"/><path fill="#ef7d00" d="M811 257c0-1-1-4-9 1q6 2 9-1"/><path d="m812 257-3 2h-7v-1q4-4 8-3l1 1zm-1 0h-1q-2-1-5 2h5z"/><path fill="#ef7d00" d="M880 263c1 0 22-1 29-5-9 14-26 11-27 11l12 1c0 2-16 5-22 4 16 1 16 0 17 2 0 3-25 5-28 2l14 6c-4 3-13 7-30-1 22 14 41 9 44 11-8 12-35 2-49-4-13-6 28 14 33 13-3 3-16 4-17 2z"/><path d="m881 262 11-1q13-1 17-4h1v1q-6 9-17 11l1 1h1l-1 1-2 1-6 2h1l2 2v1h-1l-3 1-19 2 10 3v1q-10 6-24 2a60 60 0 0 0 30 7h8v1q-5 9-24 5l-13-3 20 7q-1 3-9 4l-9-1v-1h1l3 1 5-1 7-1-22-9-11-5-1-1v-1l3 1q15 8 27 9 16 3 22-4h-7l-16-2q-10-1-21-9v-1h1q16 9 28 2l-3-1-11-4v-1h1l2 1h13l12-3-1-1h-8l-7-1v-1l8 1 12-3 1-1-2-1h-9v-1h10q10-1 16-9l-16 4h-12z"/><path fill="#ef7d00" d="m886 281-11 3z"/><path d="m886 281-11 3h-1l1-1z"/><path fill="#ef7d00" d="M726 269s16 8 23 7l-5 3 14 1-4 3q1 2 13-1l-3 4h5z"/><path d="m726 268 9 4 14 4h1l-1 1-3 2h12l1 1h-1l-3 3h3q4 1 9-2h1v1l-3 4h4v1h-5l-1-1 2-3-7 1h-4v-1l2-2q-6 1-11-2h-1v-1l3-1-12-4z"/></svg>