<svg xmlns="http://www.w3.org/2000/svg" viewBox="0 0 1000 1000"><path fill="#198a00" d="M8 195.3c170.8-85.3 341-54.5 513.3-28C676.5 191 833.4 211.8 992 132.7v672c-170.8 85.3-341 54.5-513.3 28C323.5 809 166.6 788.1 8 867.2z"/><path fill="#ef7d00" d="M874.9 414.5A513 513 0 0 0 992 372.7v432a514 514 0 0 1-117.1 41.8z"/><path d="M757.7 428.5c38.7-1 77.3-5 117.2-14v432c-38.7 8.7-77.3 13-117.2 14z"/><path fill="#de2010" d="M640.6 423.3c38.6 3.9 77.3 6.1 117.1 5.2v432c-38.7.9-77.3-1.2-117.1-5.2z"/><path fill="#ef7d00" d="M906 247.3s39.6-29.3 44.2-34.6c1.3 1.5-15.8 29.2-51 46.9 31.5-16 58.7-48.8 64.1-50.8 3.2-.2-7.6 31-71.2 64.2 50.3-25.8 78.9-63 78.9-60.2 0 .3-1.3 6.3-10 17a165 165 0 0 1-38.9 33.2c12.6-7 44.9-38 45.1-35.2.4.8-31.6 57.5-92.1 58.7 47.8.3 79.1-40.9 83.4-42.5.2 0-4 16.2-32 33.3a150 150 0 0 1-37.2 16c29-10.3 20.8-6.1 20.6-6-.3.3-16.8 17.3-37.6 13.8 16.2.6 17.8 0 18.2 1.3-1.4 2-14 7.6-27.1 4 10.6 1.7 19 .4 19.7 1.7-.6.8-6.4 5.2-12.6 4.4a1326 1326 0 0 1-59.8-24.1 701 701 0 0 0 92-41.3z"/><path d="M906 246.7a330 330 0 0 0 43.9-34.3q.3-.5.7-.2c.6.7 0 2.4-2.3 6a99 99 0 0 1-9.6 12.1l-.7.8 11-10.3 9-8.5q3.9-3.6 5.4-4 .8-.2.8 1.2 0 1.2-.7 3.2a50 50 0 0 1-7.7 12.8l-3.9 4.6q6-5.5 12.6-12l4.7-4.7 1.3-1 .6-.3q.4 0 .4.4 0 1-1.4 4.2a68 68 0 0 1-11.5 16.6l3-2.6a53 53 0 0 1 5.4-3.8q.7 0 .8.6c0 1.1-1.7 4.1-5.7 9.8q-3.3 4.5-7 8.9 2.8-2.5 3.5-2.7.5-.2.5.3v.4l-.3 1q-.6 1.6-1.8 3.7-3.5 6-9.8 12.7-13.7 14-35.8 24.2l.1.3q.1.4-.5 1l-.9.7a55 55 0 0 1-22.2 13.1h.8q2 .3 2.4 1.2l-.1.5q-.6 1-3.2 2.3-2.7 1.2-5.8 2 1.5.3 1.6 1v.3q-.4 1.1-4.6 3.3-4.8 2.3-8.7 1.5c-4-.8-24-7.2-60-24.1q-.4-.3-.1-.7l.3-.3a686 686 0 0 0 92.3-41.4zm.2 1-.4.2-3.2-.2a686 686 0 0 1-90.5 40.7 394 394 0 0 0 58.6 23.6q3.6.7 8-1.5l3-1.7.7-.6-5.3-.2h-.2a35 35 0 0 1-14-1.4v-.4q.3-.6.7-.4 5.1 1 13.5 1a45 45 0 0 0 10.4-2.9q1.8-.9 2.4-1.4-.4-.3-1.5-.4l-5.3-.2a36 36 0 0 1-11.4-.5v-.4q.3-.4.7-.4l7.6.2h3.3q7.4-1.2 15.3-5.5 6.8-4 11-8.3l.1-.1-1.6.4a173 173 0 0 1-19.2 6.4l-.1-.3q0-.6.5-.7 13.5-4.9 18.6-6.4 24.2-10.4 38.7-25.4a66 66 0 0 0 11.2-15.7l.1-.3q-1.4 1.1-5.7 5.2-4.5 4.3-8.7 8a121 121 0 0 1-30 20.3A87 87 0 0 1 875 287q-.6 0-.4-.5 0-.3.2-.4l.4-.2a94 94 0 0 0 47.7-13.7q9.3-5.6 20.1-15l.8-.6a139 139 0 0 0 21.8-26.2l1-1.8.1-.4-.8.3-4 3-9.3 8.1a179 179 0 0 1-30.4 23.9q-.4.2-.6-.2t.4-.8l5.8-3.8q7.1-5.1 20.5-16.6l3.9-3.3q6-6 10.6-12a65 65 0 0 0 7.5-13.2l-.6.6-4.7 4.6a386 386 0 0 1-23.8 22 225 225 0 0 1-39.2 27.4l-9.7 5.3q-.6.2-.7-.3t.4-.7l9.6-5.2q18.4-10.5 36.2-24.9l3-2.5q8.6-7.7 14.3-15 5.6-7.2 7.5-12.2.5-1.7.6-2.8l-.1-.5q-2.1 1.2-13.6 12.2-13.5 13-22 19.9l-1.5 1.1a135 135 0 0 1-27 17.5q-.2 0-.3-.3-.1-.4.4-.7 12.4-6.2 26.4-17.3 6.7-5.7 12.6-12.1a99 99 0 0 0 11.6-15.8 372 372 0 0 1-43.5 33.9m60.5-19.6.1.1z"/><path fill="#ef7d00" d="M797.9 351.5c-8 1.2-8.3 7-8.3 7.4 0 0-.6.5-.2 3.7 1.3-2.3 2-3 2-3 1 0 4.3.7 10.4-4-5 5.9-2.4 7.2-2.1 7.3-.1.4-1.2 3.8 2.8 4.7-1.2-1.7-.6-3-.5-3 .4-.2 5-1 5.3-7.7.6 6 3.4 7 3.6 7 0 .3 0 3 3.7 3.2-1.9-1.7-1.5-4-1.5-4.1.3-.3 4.4-3.5.7-9 2.4-1.7 4.4-5.4 4.5-5.5s-3.3-1-5-1.8c-.4-1.6 0-9.4 0-9.5l-2-10.2-5.7 16.8c.2-1.8.3 6.2-7.7 7.6"/><path d="M797.9 351c3.2-.5 5-1.8 6.5-4.7l.7-2.3v-.8l.2-.2 5.5-16.1q0-.3.4-.4h.4l.2.4 2 10.1v.2q-.5 7.6 0 9a23 23 0 0 0 4.7 1.8q.5.3.2.7a17 17 0 0 1-4.1 5.4q2.2 3.3.9 6.5-.7 1.7-2 2.6-.1 2.2 1.5 3.4l.2.4-.2.5-.4.1q-2.5 0-3.7-1.7l-.5-1.6q-.7-.3-1.6-1.3t-1.4-2.5a8 8 0 0 1-5 4.5q-.4 1 .5 2.3v.4q0 .4-.5.5-2.9-.4-3.4-3v-2q-.6-.4-.8-1.7-.1-1.4 1-3.4a13 13 0 0 1-7.7 2l-1.7 2.8q-.1.2-.4.3h-.4l-.2-.5q-.3-3 .3-4 0-1.7 1.2-3.6c1.7-2.5 3.9-3.8 7.6-4.2m0 1c-3.3.5-5.3 1.5-6.8 3.8q-1 1.5-1 3.1 0 .3-.2.5l-.1.3v1.4l1.2-1.8.4-.2h.2c3.2.2 6.2-.9 9.9-3.9q.4-.3.7.1t0 .7q-3.1 3.4-3 5.4.1.5.5.9l.2.2q.4.3.3.6-.3 1-.1 2 .1 1.2 1.2 1.7-.4-1.1.2-2.4 0-.3.4-.3 1.3-.3 2.6-1.2c1.6-1.5 2.3-3 2.3-5.6v-.2q0-.5.5-.6t.5.4v.3q.3 3.3 1.8 5.1.8 1 1.5 1.2.3 0 .4.5 0 .6.4 1.3.4 1 1.3 1.1a5 5 0 0 1-.6-3.3q0-.3.2-.4 1-1 1.7-2.3 1.3-2.8-1.1-5.9l-.1-.4.2-.3q2.2-1.5 4-4.8-3-.9-4.4-1.8l-.2-.2a30 30 0 0 1-.1-9.6l-1.6-8.3-5 14.7v.2q-.3 1.4-.9 2.7a9 9 0 0 1-7.4 5.4"/><path fill="#ef7d00" d="M837.8 323.4c.4.3 5.8 5 11.7 4 1.5-2.2-3.8-4.4-4.4-5.4 2.6 1.9 11.7 7.4 18.3 3.7 2-3.8-4.1-2-12.1-9.6 5.7 2.5 18.2 6.8 24.9 2.8 2-3.4-13.3-7.9-19.4-13.5l-14.2-4.3-19.3 17.6z"/><path d="m837.5 323.9-14.5-4.6-.2-.2q-.3-.4.1-.7l19.4-17.7q.3-.2.5-.1l14.2 4.3.2.1q2.3 2.3 10.7 6.6 5.3 2.6 6.9 3.7 1.4 1 1.9 1.8.6 1.1-.2 2.1l-.1.2c-3 1.8-7.1 2.3-13.2 1.2q-4.3-.9-8.7-2.5 3 2.1 6.8 3.6 2.2 1 2.7 1.5.9 1-.2 2.7l-.2.2c-3 1.8-6.3 2-11 .4q-1.2-.3-2.3-.9l.2.6q.1.9-.7 1.6l-.2.2c-4 .7-7.6-.5-12-4.1m.6-1c4.2 3.5 7.5 4.7 11.1 4l.1-.3q0-.4-.5-.9l-2.5-1.9q-1.9-1.2-1.8-1.7t.5-.6h.3q3.7 2.6 7.6 4c4.4 1.4 7.4 1.3 10-.2q.5-.9.2-1.3-.3-.3-2.5-1.2-6-2.5-9.8-6.2-.3-.4 0-.8.4-.3.7-.2 6 2.7 12 4c5.7 1 9.5.6 12.2-1q.1-.4 0-.8-.5-.7-1.7-1.5l-6.8-3.7q-8.3-4.3-10.8-6.7l-13.8-4.2-18.4 16.8 13.7 4.4z"/><path fill="#ef7d00" d="M816 275.6c.2-.1 6.4-3.7 32.8-6.6 3-.4 17.8-8.1 22.7-10.8 7.9-3 31.6-14.2 38.6-21 4.7-1.3-1.3 8.1-7.1 12.1-6.6 4.7-28.5 17.1-36.8 18 9.7-1.5 4.2 6.5-11.7 6.4 7.5 2.7 5 3.7 4.8 3.7-.4.1-13 2.9-17 1 8.8 1.8 5.5 3.3 5.3 3.4-.2 0-9 2-13.5 1.1 6.4 1 3.3 2.5 3.2 2.5-.2 0-5.2 1.4-9.8.8-4.3-1.4-11.2-10.4-11.5-10.6"/><path d="M815.7 275.2q1.8-1.2 6.8-2.5a189 189 0 0 1 26.4-4.2c1.5-.2 7.8-2.9 19.1-9l3.4-1.7a229 229 0 0 0 19.7-9 87 87 0 0 0 19-12q.9-.5 1.5-.3t.6 1.2q0 1.3-1.3 3.7a25 25 0 0 1-7.8 8.4 165 165 0 0 1-32 17.4q.6.5.3 1.5a4 4 0 0 1-1.2 1.7 16 16 0 0 1-5.7 2.8q-3.3.8-7 1 2.3 1.1 2.7 2 .3.8-.2 1.4l-.6.3a75 75 0 0 1-11.2 1.8q.4.3.6.7.4 1.1-1 1.8h-.2q-5.4 1.5-9.1 1.6l.2.6q0 .8-1.3 1.5-5.6 1.7-10 .8-3.5-.8-10.5-9.2l-1-1.1-.2-.3q-.2 0-.3-.4t.3-.5m52.1-8.6q5.5-1 17.3-7.2 11.2-6 17.7-10.5 4-2.8 7.2-7.9a8 8 0 0 0 1.2-3q0-.3-.2-.4l-.8.1q-4.4 4.5-18.9 12-10.2 5.3-19.6 9l-3.3 1.8a105 105 0 0 1-19.6 9q-16.4 1.7-26.2 4.2a36 36 0 0 0-5.8 2l.9 1c4.6 5.6 7.8 8.3 10 9q4.4.6 9.4-.8l.5-.4q0-.3-1.5-.7-1.2 0-2.2-.4-.5 0-.3-.6t.6-.4q1 0 1.8.3 2.4.1 6.4-.4l5-1 .4-.4q-.2-.6-2.1-1.2-2.6-.1-3.8-1l-.2-.2.1-.5q.3-.3.6-.2 2.1.3 3.5.8 2.4.1 6.2-.4t7.1-1.3v-.1q-.3-1-5-2.6-.3-.1-.2-.5 0-.6.6-.6a35 35 0 0 0 9.8-1q3.5-1 5.3-2.5l.7-1-.1-.5q-.6-.6-2.5-.4l-1.6.2h-.4l-.1-.5q0-.4.5-.6z"/><path fill="#ef7d00" d="m826.5 328.5 1 16.1-1 1.5c-1 .4-11.5-.1-10.7 8 0 3.6.1 4.4 2.6 6.1-.6-2.2-.4-3.8-.4-3.8.3 0 3 1.3 6.6-4.1-2 5.5-.8 6.8-.2 7 .4 1.2-.7 4.7 3.6 4.5a4 4 0 0 1-.9-3.6c.3-.2 4.2-1.3 3-9.1 1.8-1.7 2.4-.5 2.4-.4 0 .3.4 4.2 4.6 3 1.7 1-.1 3.4-.3 3.7.2 0 2.7-.5 3.9-3 1-2.8 1.8-6.4-3-7.8-.3-1.7 1.7-2 2-2.1 0 0 2.8.5 4 1.8 1 .9.4-3.4-3.3-4-4.8.6-5-.1-5-.4l-1.2-15z"/><path d="M826 328.6q0-.6.5-.7l7.6-1.5q.5-.1.6.4l.7 8.6.5 6.4.4.1q1.1.3 4.1 0c2 0 3 .8 3.9 2.6l.3 1.7q0 .7-.6.8t-.8-.4q-.8-1-3.6-1.6l-1 .4q-.4.3-.4.7 3.2.8 3.7 3.7a11 11 0 0 1-.7 4.8 5 5 0 0 1-2.6 2.8q-1 .4-1.8.5h-.3l-.2-.4.1-.4.8-1.4q.3-1-.2-1.3c-2 .6-3 .2-4.2-1.2a6 6 0 0 1-.8-2.3l-.3-.2q-.3 0-1 .5c.6 3.4.3 5.6-1 7.6q-1 1.3-2.2 1.8-.4 1.7.8 2.8.3 0 .2.3 0 .6-.5.7-2.4.3-3.4-1.2a6 6 0 0 1-.5-2.6v-.8q-1-.4-1.1-1.9-.2-1.2.1-2.8a7 7 0 0 1-3 1.8q-.8.2-1.7.2 0 1.2.5 3v.4q-.4.5-.8.2-1.9-1.3-2.4-2.6-.4-1-.4-3.8c-.5-3.3.5-5.2 3.3-6.9q2.2-1 6.5-1.6l1-.1h.1l.7-1.1zm1 .3 1 15.6v.4l-1.1 1.5q-.2.3-1.8.5a21 21 0 0 0-6.1 1.5q-3.3 1.8-2.6 5.6v.1q0 2.7.3 3.5.2.6.8 1.2v-2.4q0-.6.6-.6h.1q.7.4 1.8 0 2.2-.5 4.1-3.8.3-.5.8-.2.3.2.2.6a11 11 0 0 0-1.1 5.2q.1 1.1.6 1.2.2 0 .3.2l.2 1.4q0 1.5.4 2.2.4.6 1.3.7-.4-.7-.4-1.7l.2-1.6.4-.4q1-.2 1.8-1.4c1.2-1.7 1.4-3.7.8-7l.2-.4q1.4-1.4 2.4-1.1a1 1 0 0 1 .8.9q.2 1 .7 1.9 1.2 1.5 3.3.8h.4q1.5.6.8 2.7l-.3.6a4 4 0 0 0 2.3-2.2q.9-2.6.6-4.3-.3-2.4-3.3-3l-.3-.3q-.5-1.4 1-2.3l1.4-.6h.2a9 9 0 0 1 3.5 1.2q-.9-2-3-2.2c-3.8.5-5.3.2-5.5-1l-.4-6.2-.7-8.2z"/><path fill="#ef7d00" d="M843 340c-.4-1.2-7.4-9.4-6-11.5 2.2.4 5.2 3.7 8.2 2.2-1-1.5-3-.4-6-4.5-2.8-5-3.4-12.5-13-20 6.8 8.4 20 11.3 21.2 8.6 0-2.7-12-10.7-12-13.3 3.1 4.8 15.7 13.3 25.8 10.8 0-2.3-7.6-5-10.3-8.6-6.5-3-22.5-13.7-23.3-17a34 34 0 0 0-11.6-10.4q-1-1-1-1.8c-3.5-8.2 1-11 4.1-12 2.5-.5 3.1-.3 4.9-1.3l-6.2-1.5c3.2 1.3 9-.8 8 4.6 3.2-1.8 9.3-9-7.2-9-5.8-5-27.2-6.2-33.2 19.4l2 1.5c-7-2.6-25.9-4.4-32.7-5.3-18.6-4.8-37.4-16.7-39.5-15.7-1.6 1.6 10.4 12.7 10.5 13.4C713.9 262 703 257 693 252.2c-7.3-3.1-13.8-8.6-15-8-2 5.3 11 18 14 20l19.8 10q1.5.6 2.8 1.4c-30.6-14-35.8-17.3-37.3-18.8-2.7-1.1-9.3-9-11.1-9.2-.9 1.2 1 13.8 15.6 21.2 2.7 1.8 30.9 13.3 31 13.7l-34.4-15c-6.5-3.2-14-11.2-15.7-11-1 1.3 3.5 9.6 10.1 13.4 3.4 1.7 16.4 8.5 28 13 .7.1-20.8-8.9-31.4-13.8-4.9-3.1-6.9-5.8-7.7-5.5-.8.7 1.5 14.1 35.3 23.6 3.3.4 8.7-2.5 11.3-1.6a204 204 0 0 1-18.8 2.3c-.2 1 2 5.6 19.4 5.5 2.8-.2 13.5-3.6 13.3-2.8l-17.6 4.8c-1.3.1-6.4.6-6.8 1 0 .8 3.9 4 13.4 5.1 5.3.3 13.5-1.3 18.8-2.7l4.8-1.2-15.5 5.2-6.1.7c-.2 1 7.6 8.6 32.2 1-2.8 2.8-14 5.5-14.3 5.7.2.5 2.5 2.6 6.8 3.7 2 .4 4.8.4 7.5 0 4.7-1 9.4-2.8 15.7-8.3 0 1.6-14.7 9.8-14.8 10.4 4.1 2.8 14.8-.5 16-1 1.2-.7 22-13 22.6-14.5-.4 1.7-27.6 17.7-27.8 18.1 2.5 2.4 11-.4 12-.8l12.7-7.1c-.3.2-13.1 8.2-12.7 9.8.2 5.2 21.8-4.7 24.2-6.2.4-.8-10.4 6-11.1 8.3 4.5 5.8 15.7 3.1 18.1 1.5 1-.3-1.1 4-.4 4.1.2-.2 2.5-3 3.6-5.1-.4 1.7-1.6 4.6-2.4 7.7s-1.1 6.7-2.2 10.5c.3 1.6 7.2-3.8 6.5-15.3.5 6.1-2 17.2-1.6 18 2 .4 5.8-5.8 6.6-10.9 1.5 2.3 4.2 6.4 6.7 7.5-.3-3.5 0-3.3-1-6.6.5-4.7.7-11 .8-18 6.7 11.2 9.2 15.7 7.5 25.2 2.1-.1 4.8-6.6 4.9-10.7a13 13 0 0 0 13.6 9.4"/><path d="m843.6 339.9-.1.2q-.4.6-2.5.4t-4.2-1a13 13 0 0 1-7.1-6.4q-.4 2-1.5 4.5c-1.5 3.2-2.6 4.3-4 4.2q-.3-.2-.3-.6c.8-4.4.7-8-.5-11.7a83 83 0 0 0-5.9-11.6q-.3 11.7-.8 16 .8 2.5.9 4.6l.1 2v.3l-.3.3h-.4q-2.4-.9-6.2-6.5a23 23 0 0 1-5 9.1q-1.4 1.3-2.2.7c-.4-.4-.4-2 .2-5.8l.3-1.5-1 1.8q-1.4 1.8-2.7 2.8-.7.4-1.1.4t-.6-.2-.2-.6v-.1q.6-2 1.3-6.1a73 73 0 0 1 2.1-8.4l-1.6 2h-.6q-.3 0-.4-.4v-.5l.4-1.5.3-1.4q-1 .6-2.6 1-2.6.6-5.3.8c-5.2.1-8.2-1-10.2-3.7l-.1-.3q0-1.5 3.4-4l-4.7 1.7a42 42 0 0 1-8 2q-1.8.3-2.8-.1-1.1-.5-1-1.7-.4-.4.2-1.1.3-.6 1.2-1.3l1.1-1-1.8 1q-1.4.9-5.6 1.7c-4 .6-6 .3-7-1h-.1q-.2-.6 2.4-2.3l-3.5.7c-4.9.8-7.7.5-9.5-.8q-.4-.4 0-1l.3-.3 1.3-1 1-.6q-1.5.5-3.1.8-4.7.8-7.7 0a16 16 0 0 1-5.2-2q-2-1.4-2-2.2.2-.6 3.4-1.5 5-1.4 8-2.7-13.3 3.7-22.1 1.8-3.5-.9-5.6-2.2t-1.6-2.3q.2-.4 3.9-.8l2.5-.2 4-1.4q-7.7 1.5-12 1.2a32 32 0 0 1-10.4-2.7q-3.9-2-3.4-3.3.3-.7 6.5-1.2h.7l3.9-.9q-10.8 0-16-2.4a9 9 0 0 1-2.9-2.1q-.8-1.1-.5-1.8.2-.5 3.5-.8h1.2a68 68 0 0 1-27.7-14.5 21 21 0 0 1-4.5-6c-.7-2-.7-2.8-.1-3.3q.7-.4 2.9 1.5 3 2.5 5.3 4l.5.2a27 27 0 0 1-7.8-10.2q-.7-2 .2-2.5.7-.4 2.5.9 1 .6 3.6 2.9l4.3 3.4a31 31 0 0 1-5.2-7.2q-1.5-3-2-5.7-.5-2.6.1-3.2l.2-.1c1 0 2.7 1.3 6 4.6a25 25 0 0 0 5.7 4.8q1.1 1 7.6 4.5l4.5 2.3q-3-2.6-7.1-7.5c-4.7-5.8-6.1-9.4-5-12q.5-.6 2.2.3l3.4 2q6.3 4.1 9.9 5.6a571 571 0 0 1 30.2 15l-1.3-1.3-5.7-6.1-1.8-2.6-.3-1q0-.7.6-1 .9-.4 4 .9 2 .7 7.5 3.6 18 8.7 28.3 11.2l3 .4q19.4 2.3 27 4v-.2a34 34 0 0 1 7-14.8c3-3.3 6.1-5.4 10.2-6.8q5-1.5 10-.9 4.5.7 6.9 2.7c7.5 0 10.8 1.1 11.2 4.2q0 1.6-1.4 3.5-1.3 1.5-2.7 2.3h-.3q-.3 0-.3-.2v-.4q.5-2-.7-2.7l-.2-.1-.3.3q-1.3.7-3.1 1l-1.9.3a7 7 0 0 0-4.2 3c-1.2 2.4-1.1 4.7.5 8.2v.2q.3.8.8 1.5a37 37 0 0 1 11.9 10.7c.3 1.3 3 4 9.2 8.3a96 96 0 0 0 14 8.4q1.1 1.6 5.8 4.6l3.3 2q1.5 1.4 1.2 2.4 0 .4-.4.5c-4.7 1.3-9.7.5-16-2.6l-1.4-.8 2.2 2q2 2.3 1.9 3.5-.4 1.4-3.3 1.5-2.6 0-6-1.2-2.7-.9-5-2.1l.5.8q1.5 2.7 3.5 7.6l1.9 4.4a8 8 0 0 0 4.2 3.2q1.5.5 1.9 1.3.1.4-.2.8-1.4.9-3.3.4l-2.8-1.4q-1.5-1-2.2-1.1-.2.6 1 2.8l3.6 5.1q1.8 2.5 1.7 2.9M805 326.6v-.5q0-.5.5-.6t.5.4v.5q.3 3-.2 5.8a138 138 0 0 1-1.6 11.3q.3.1 1-.6 1-.8 2-2.5 2.4-4 2.8-7.3 0-.5.6-.5.3 0 .4.2 3.4 5.4 5.6 6.9v-1q-.2-2.1-1-4.5v-.2q.6-4.3.8-16.4V316q.1-.5.6-.6.3 0 .5.2 5.5 9.6 7 13.4 1.6 5.3.6 11.6.9-.5 2.2-3.4a16 16 0 0 0 1.5-6.6l.1-.4q.1-.2.4-.3.5-.1.6.4 1.6 5.9 7.4 8.2a16 16 0 0 0 4.9 1l-1.3-1.7-3.6-5.2c-1.3-2.5-1.5-3.7-.6-4.6h.4q.8 0 2.9 1.2 2.8 1.6 4.3 1.4l-1-.4a9 9 0 0 1-4.6-3.6q-.8-1.5-2-4.6a29 29 0 0 0-5.6-10.5q-3.2-2-5.4-5v-.6l.4-.3.4.1q3 2.4 5.3 5a33 33 0 0 0 7.4 3.5q3.3 1 5.6 1 2 .1 2.1-.4c0-.8-1.7-2.7-6-6.3l-4.2-3.8q-2-2.1-1.7-3.3l.2-.4h.4q.3 0 .3.2 2.5 4 10 8a22 22 0 0 0 14.7 2.7q-.4-.9-4-3a22 22 0 0 1-6-4.8 96 96 0 0 1-13.9-8.3c-6.1-4.3-9-7.2-9.6-8.8a36 36 0 0 0-11.4-10.2h-.1q-.8-.9-1.1-2c-1.7-4-1.8-6.6-.4-9.2q1.7-2.8 5-3.6l3.1-.6-1.6-.4-.7-.2a7 7 0 0 1-2.4-.6q-.3-.1-.2-.6l.3-.3q0-.2.4 0l2.2.5h1.3q2.9.2 3.8.7 1.4.8 1.3 2.7l1.3-1.3q1.2-1.5 1.2-2.7c-.4-2.5-3.4-3.4-10.5-3.3l-.4-.1a12 12 0 0 0-6.4-2.6q-4.8-.6-9.6.8c-8.5 3-13.6 9.3-16.2 20.5l1.8 1.2q.4.2.1.8-.2.3-.6.2-6.2-2.2-29.7-4.8l-3-.4q-10.4-2.6-28.5-11.4a53 53 0 0 0-10.5-4.5h-.1l.2.6q.4.9 1.6 2.4 1.6 2 5.6 6l2.4 2.6.9 1.1v.4q0 .3-.3.4h-.5q-12.5-7-32.5-16.4-3.6-1.5-10-5.6-4.1-2.7-4.3-2.6c-.7 2.1.7 5.2 5 10.6q5.5 6.7 8.7 8.7l12.8 6.5 7 3.4 2.1 1 .6.4h.2l.1.2.1.3q0 .4-.3.6h-.4q-22.7-10.6-29.6-14.3a50 50 0 0 1-13.5-9.5q-4-4-4.8-4.3l.2 2.1q.5 2.7 1.9 5.5 4.3 8.2 13.4 12.6h.1q1.2 1 15.7 7l10.6 4.4 3.5 1.5q1.7.8 1.5 1.5l-1-.1v.2-.1l-.4-.2q-2.3-.7-9-3.5l-17.2-7.6-7.6-3.5q-3.3-1.5-10.2-7.2a22 22 0 0 0-5-3.7l.3 1.3q.6 1.6 2 3.7 3.5 5.2 7.7 7.4l3.2 1.6q6.8 3.5 12.4 6.1l9.4 4 2.3 1 .6.2h.1l.1.1.2.2v.4q0 .3-.2.4h-.4q-5.3-2-12.5-5.3l-19-8.5a41 41 0 0 1-7.2-5.6v.3q0 .7.5 1.7 1.2 2.6 4.2 5.7a71 71 0 0 0 30.7 15l3.3-.4 4-.6 2.6-.5.8-.1h.2q.5 0 .5.5 0 .3-.2.5a82 82 0 0 1-12.3 1.8 23 23 0 0 0-5.7.3l-.6.1.3.5q.8 1 2.5 1.8Q698 293 709 293q1 0 7.5-1.7l4.2-1 1.3-.3h.5q.5.4.3.8l-.2.3q-.5.3-8.7 2.7-8.1 2.2-9.2 2.2h-.7l-5.6.6.5.4q.8.8 2.3 1.5 4 2 10.1 2.6 6.3.6 21.4-3.4l1.6-.4.4-.1h.2q.3 0 .4.2.3.3 0 .7-.2.2-9 3l-6.6 2.2q-.4.2-3 .4l-2.2.2h-.5l1 1q2 1.1 5.2 2 9.8 2 25.1-2.9.6-.1.7.4l-.1.5q-1.8 2-11.5 5l-2.2.5-.2.1 1.3 1q2.2 1.4 4.8 2 2.9.6 7.3 0a34 34 0 0 0 15.9-8.4q.2 0 .3.2l.1.1q.4 1.1-3 3.4l-6.3 4-4.2 2.5-1 .7c1.6.9 4 1 8.2.4q5.2-1 6.8-1.9 5.4-3 11.6-6.7a84 84 0 0 0 10.7-7.1q0-.5.5-.6t.5.4v.3q-.6 1.2-6.4 5-3.6 2.4-12.4 7.7l-6.6 3.9-2 1.2-.2.1q1.4 1 5.7.2 4.1-.7 5.3-1.5l6.4-3.5 6.4-3.6h.4q.4 0 .4.5l-.2.3v.1h-.2a226 226 0 0 0-11.3 7.9l-1 1-.2.2v.3q0 .6.6.8t2.2.1q2.9-.3 7.8-2 4-1.4 8.4-3.3l2.4-1.1.8-.5 1.2-.6.3-.2h.2q.3 0 .4.2v.6l-.2.2-2.3 1.2-3 1.8q-5.2 3.4-5.6 4.8c1.9 2.3 4.6 3.2 9.3 3.1q2.6 0 5.1-.8 2.2-.6 3-1.1l.4-.2q.4 0 .5.4v.7q0 .6-.4 1.9v.1l.4-.5q1.5-1.9 2-3.2.3-.4.7-.3t.3.5q-.1 1-1 3.4a52 52 0 0 0-2.3 8.7q-.5 3.6-1.1 5.7l.1-.1q1.2-.9 2.4-2.5 1.8-3 2.6-6.2.3-3.6.2-5.5m-73.3-16.3v-.1z"/><path fill="#ef7d00" d="M732.2 271.8c-.2.1-4.4 3-10.2 3 2.3 5 12.5 1.5 13.1 1.3-.1.2-5.6 5.5-9.6 6.7 2.9 1.8 12 1.3 14.3.4a110 110 0 0 1-7.2 6.6c.5 1.3 10.2.8 13.2-1.1 2.4-2 8.1-5 8.2-5-.2 0-15.3 9.8-16 10.1 6 1.3 16.9-1.8 24.5-6.3-10.8 7.1-11.9 8.3-17.4 10.6 5 1.1 7.4 4.1 24.1-3.2 9.6-5 15-12.7 15-12.8a99 99 0 0 1-25.6 21.2c-.2 1.3 10.7 5.4 26-10a921 921 0 0 1-52.4-21.5"/><path d="M732.5 272.3a18 18 0 0 1-9.7 3c1 1.4 2.8 1.9 6.3 1.6a29 29 0 0 0 6.3-1.3l.2.3v.6q-1.5 1.5-3.5 3a24 24 0 0 1-5.2 3.4q1.9.6 6 .7 5.2 0 6.6-.9l1.1-.8 3.5-3.7q.3-.4.7 0 .2 0 .3.3t-.2.4q-2.1 2.6-3.6 3.9-5.5 5.6-7.6 7l.5.1q1.6.2 4 0 5.7-.4 7.3-1.6a52 52 0 0 1 8.6-5.2q.2 0 .3.3.3.4-.2.7-11 7.4-14.6 9.4 3.8.4 9.9-1.1 7.2-2 12.7-5.4.5-.3.8.2.1.4-.2.7l-7.6 5a77 77 0 0 1-8.5 5l.9.3q3.8 1 6.9.8 5.4-.6 14.5-4.6a42 42 0 0 0 14.8-12.6q.4-.4.8-.2.4.4 0 .8-1.3 2.1-4 4.7l-4.2 4q-6.8 5.8-17 12.3l1 .5q2.3.5 5.3.1 9.1-1.4 18.5-11 .4-.4.7 0l.2.3-.2.4a35 35 0 0 1-19.1 11.4q-3.2.4-5.7-.2l-1.5-.6q-.9-.6-.5-1.3l.2-.2q6-3.7 10.7-7.2-9 3.8-14.4 4.5-3.4.4-7.3-.8l-2.3-.6-.4-.4q-.1-.4.3-.7 3.8-1.5 9.8-5.5l.7-.5-5.6 1.8q-7.6 2-12 1-.4-.2-.4-.6 0-.5.6-.5.3 0 4.6-2.8a35 35 0 0 1-8.5.5q-.9 0-1.3-.3-.9-.3-.8-1 0-.4.6-.4.8-.1 5.8-5a33 33 0 0 1-5.5.3q-5.9 0-7.7-1.4l-.2-.3v-.4l.4-.2q2.3-.7 6-3.6l1.8-1.4-4 .7c-4.6.3-6.7-.6-7.7-3.2v-.1q0-.5.6-.5a17 17 0 0 0 9.8-2.8q.3-.2.4-.1l.4.2q.2.4-.2.8"/><path fill="#ef7d00" d="M813.1 299.5c0 .2 1.1 4 5 7.3 4 3.2 4.3 6 4.4 6.2z"/><path d="m813.6 299.4 1 2.4q1.5 2.8 3.9 4.6 2.6 2 3.8 4.3.6 1.3.7 2.2 0 .5-.5.6h-.4l-.2-.4q0-.7-.5-1.8-1.2-2.2-3.6-4a15 15 0 0 1-5.2-7.6v-.4l.4-.3q.5-.1.6.4"/><path fill="#ef7d00" d="M811.1 270.8a13 13 0 0 0 5.5 6 42 42 0 0 1 11.1 10.5c.5 1.8 2.8 13.7 2.7 15z"/><path d="M811.6 270.6q.3 1 1.2 2 1.6 2.3 4.1 3.6 2.9 1.5 7 5.7 3.8 3.9 4.3 5.2a128 128 0 0 1 2.7 15.3q0 .6-.6.5l-.3-.1v-.4l-1.2-7.3-1.6-7.5q-.5-1.2-4-4.9a30 30 0 0 0-6.8-5.5 13 13 0 0 1-5.8-6.1q-.1-.5.3-.8.6-.1.7.3"/><path fill="#ef7d00" d="M785.5 279.2c0 1.7-5.6 9.2 2.6 18-7.8 9.4-7.8 10.4-7.8 10.5.2 0 4 1.8 12-4.8 12.6 14 8.8 20.5 8.6 20.8z"/><path d="M786 279q0 .5-.6 2.2-1.4 3.9-1.3 6.5c.2 3.4 1.5 6.1 4.3 9q.5.4 0 .8a141 141 0 0 0-7.4 9.8q.9.3 2.4 0 3.9-.7 8.7-4.8.3-.3.7 0 8 8.8 9.2 15.8.5 3.6-.7 5.6 0 .3-.3.3h-.4q-.4-.2-.1-.8.9-1.6.4-4.8c-.8-4.6-3.5-9.3-8.6-15q-4.8 4-8.8 4.8-2.2.3-3.4-.2-.3-.2-.3-.5a56 56 0 0 1 7.5-10.5q-4-4.3-4.3-9.4 0-2.9 1.5-7l.4-1.5q-.1-.4.4-.6h.4q.2 0 .3.3"/><path fill="#ef7d00" d="M799.9 313.4c0-.1-1-1.4 1-7.6 1.9 1.9 3.8 2.3 4.8 3 1.4.7 10 1.2 11.2 7z"/><path d="M799.5 313.7c-.8-1.3-.6-3.6.8-8q.2-.6.7-.4h.2q1.2 1.3 3.4 2.2l1.5.9 1.7.4q3.7.9 5.7 1.8c2.5 1.4 3.6 2.8 4 5.1q0 .3-.2.4l-.3.2q-.6.2-.6-.4-.4-2.5-3.4-4.3-1.9-1-5.5-1.7l-2.1-.7-1.3-.7q-2-.7-3-1.8-1 3.2-1 5.1 0 1 .2 1.2.3.4 0 .8l-.5.1q-.2 0-.3-.2"/><path fill="#ef7d00" d="M811.2 256.7c-.2-.7-1.7-3.8-9.2 1.5 4.2 0 7.4 1.3 9.2-1.5"/><path d="m811.8 256.7-.1.2a4 4 0 0 1-2.8 2q-1 .3-3.6 0l-3.3-.2q-.3 0-.4-.2-.3-.4.2-.7 4.8-3.6 7.7-3.1 1 .2 1.7.9.5.6.6 1m-1.1 0-.3-.2q-.5-.6-1.2-.7-2.1-.3-5.6 2l2 .1q2.3.3 3.3.1 1.2-.2 1.8-1.2"/><path fill="#ef7d00" d="M880.4 262.9c.7 0 21.2-1.1 28.8-5.4-9.7 14-26.7 11-27.2 11 9 .3 9.2 0 12 1.6.2 2.2-15.6 5.1-22 3.5 16 1.2 16.2.5 16.8 2.2-.2 2.8-25.1 5.2-28.3 2.4 7.2 3.7 11 4 15 5.4-5 3-13.6 7-30-1 21.6 14.5 40.6 9 43.8 11.3-8.2 12.3-35.8 2.2-49.7-4.3-12.5-5.8 28.3 14.3 33 13.4-2.7 3.3-15.3 3.6-16.9 2.5z"/><path d="M880.6 262.3q1.4.4 11.7-.9a50 50 0 0 0 16.7-4.3q.6-.3.7.1l-.1.5c-4 6-9.3 9.5-16.9 11.1l1.7.8.2.2q.4.8-.8 1.5-.6.6-2 1-2.4.9-6.3 1.6l2 .2q1.3.2 1.8 1.5.1.6-.4 1l-1 .7-3 1a73 73 0 0 1-18.6 1.8q2.4 1 5.3 1.7l4.4 1.5-.1.4-.2.3c-6.8 4.2-14.2 4.9-23.3 2a60 60 0 0 0 14.2 5.2q6.3 1.2 15.8 1.4 6.3 0 7.3.8.3.3 0 .7c-3.7 5.6-11 7.5-23.3 5.3q-6-1-13-3.5 17 7.4 19.1 6.6.6-.2.6.3v.4c-1.3 1.7-4 2.7-9.4 3.3-5.1.4-7.5.1-8.4-.6l-.1-.4.2-.4q.5-.5.8 0 .2.3 2.4.4h5.2q5.6-.6 7.6-1.9a103 103 0 0 1-22-8.3q-7-3.2-11.1-5.5l-1.3-.6-.3-.2-.1-.2q-.3-.2 0-.6t.5-.3l2.8 1.2q15.4 7.2 27 9.2c11.4 2 18.1.5 21.6-4.1q-1.3-.5-6.4-.5-9.5 0-16-1.5a61 61 0 0 1-21-9.1q-.4-.3-.1-.7l.3-.3h.4c11.5 5.5 20.6 6 28.5 1.6l-3-.8a57 57 0 0 1-11-4.3l-.2-.4.2-.4q.2-.2.6-.1l2 1q3.4.7 13-.1a71 71 0 0 0 12-2.3l.4-.3q-.3-.7-1.2-.8l-7.1-.5h-.4q-4.9.3-7.7-.5l-.3-.3.1-.4q.2-.4.6-.4l7.5.4a68 68 0 0 0 12-2.2l1.7-.8q-1.4-.9-2.6-1l-1.7-.2a30 30 0 0 1-7.6-.4v-.5q.2-.4.7-.4h3.3l3.8.2q1.5 0 3-.4a24 24 0 0 0 15.4-9 61 61 0 0 1-15.5 3.7c-7 1-11 1-12 1q-.4-.2-.3-.7l.3-.4h.4"/><path fill="#ef7d00" d="M886 280.7c-2.6 1-10 2.7-11 2.8z"/><path d="M886 281.3a67 67 0 0 1-11.2 2.8q-.4 0-.4-.6l.2-.4.4-.2a53 53 0 0 0 10.8-2.7q.6-.1.6.3v.5z"/><path fill="#ef7d00" d="M726 268.7c.2.2 16 7.9 23 7.6-2 1.5-4.4 2.2-4.5 2.3 1.8.7 6.3 2.7 13.6 1.3l-4 3.5c.3 0 6 1.8 13.1-1.7l-3.3 4.4 4.8.1a973 973 0 0 1-42.7-17.5"/><path d="M726.2 268.3q4 2 9 4a37 37 0 0 0 14.2 3.5l.1.4-.1.5q-1.4 1.1-3.3 2 5.9 2 11.9.6h.4l.2.4q0 .3-.2.5l-3.1 2.9q1.2.3 2.8.3 4.7 0 8.9-2.1l.4-.1.3.3v.6l-2.8 3.5h3.9q.5 0 .5.6 0 .3-.2.4l-.4.2-4.8-.2h-.3l-.2-.4v-.4l2-2.6q-3.6 1.3-7.3 1.3-2.5-.2-4.1-.6l-.3-.2-.1-.4.2-.4q1.5-1.1 2.6-2.2-5.8.7-11.6-1.4l-.5-.2-.3-.4v-.4q0-.2.4-.3 1.6-.4 3-1.2-4.4-.2-12.7-3.5a119 119 0 0 1-9.3-4.4l.1-.4q.3-.4.7-.3"/><path fill="#1a1a1a" d="M8 195.3c170.8-85.3 341-54.5 513.3-28C676.5 191 833.4 211.8 992 132.7v672c-170.8 85.3-341 54.5-513.3 28C323.5 809 166.6 788.1 8 867.2zm31.3 19.3v604.5c306.5-128.2 611.1 96 921.5-33.7V180.9C654.2 309 349.5 84.9 39.3 214.6" opacity=".2"/></svg>